<svg width="512" height="512" viewBox="0 0 512 512" xmlns="http://www.w3.org/2000/svg"><title>charlotte-hornets</title><g fill="none" fill-rule="evenodd"><path d="M147.77 239.208h-30.003v32.51l-18.075 8.85 18.075 9.407v28.97l19.94 12.203c7.36-.932 16.677-2.05 27.578-3.167l76.96 44.34 14.07 64.56c.092-.18 14.16-64.55 14.16-64.55l76.868-44.34c10.807 1.12 20.218 2.24 27.578 3.17l19.94-12.2v-28.97l18.08-9.22-18.07-9.035v-32.51h-30s4.66-4.47 10.53-14.623c2.426-4.19 4.755-9.5 7.64-15.742 21.9-6.612 38.017-20.584 44.91-34.184 18.73-34.28 32.8-76.2 32.8-76.2s-8.107 3.915-17.797 8.666c7.92-24.128 12.67-44.62 12.67-44.62s-86.37 57.1-153.64 110.755l-5.87-3.447c0-.56.188-5.497.188-5.87 0 0 .656-5.683-9.41-9.13-.65-.187-1.21-.373-1.77-.56 4.848-3.63 12.395-9.22 17.985-13.04 8.758-6.055 7.73-12.67 7.73-12.67l-31.96 23.75c-24.69-8.01-45.184 0-45.184 0l-31.864-23.754s-1.026 6.613 7.73 12.67c5.5 3.817 13.05 9.406 17.988 13.04-.56.185-1.21.37-1.77.56-10.06 3.444-9.41 9.126-9.41 9.126 0 .372.187 5.31.187 5.87l-5.87 3.445C143.39 119.602 57.11 62.5 57.11 62.5s4.752 20.495 12.672 44.62c-10.436-5.123-17.796-8.662-17.796-8.662s14.07 41.917 32.796 76.197c6.895 13.6 23.014 27.572 44.91 34.186 0 0 3.726 8.48 6.894 14.54 3.82 7.55 11.18 15.84 11.18 15.84" fill="#1D1160"/><path d="M292.464 190.397c-.28.932-.652 1.863-.93 2.795 30.186-19.748 83.015-54.214 142.272-92.685 0 0 .093 1.304 5.31-13.88-62.518 37.726-117.862 80.576-146.652 103.77" fill="#008CA8"/><path d="M220.07 190.397c-28.697-23.287-84.04-66.044-146.56-103.77 5.218 15.184 5.31 13.88 5.31 13.88 59.165 38.47 111.994 72.844 142.275 92.592-.373-.84-.746-1.77-1.025-2.71" fill="#008CA8"/><path d="M256.314 220.95c-5.125-1.955-18.17-8.476-25.995-25.43 6.42 5.496 14.62 7.266 21.15.932-8.02-3.447-9.04-17.7-10.53-21.425-3.17-7.545-8.11-11.457-12.02-13.04 1.95-.653 3.72-1.212 5.4-1.77 3.72 2.05 9.97 6.706 11.92 16.02 0 0 .84-10.618-4.47-18.07 10.244-2.422 20.493-2.142 28.88 0-5.31 7.452-4.47 18.07-4.47 18.07 1.952-9.314 8.2-13.97 12.02-16.02 1.672.558 3.54 1.117 5.492 1.77-3.913 1.583-8.85 5.402-12.02 13.04-1.583 3.726-2.515 17.978-10.527 21.425 1.86 10.806-.375 20.96-4.847 24.5m-91.12 19.933s-14.816-10.62-23.2-29.995l5.962 1.77c19.38 5.124 56.37 10.247 56.37 10.247-17.8.372-32.89 1.77-41.465 2.794-1.77-2.23-3.82-5.03-4.656-7.17 0 0 .65 6.8 2.142 10.99 1.862 6.15 4.844 11.37 4.844 11.37" fill="#008CA8"/><path d="M352.28 229.52c1.49-4.284 2.144-10.99 2.144-10.99-.746 2.14-2.796 4.936-4.66 7.17-8.57-.93-23.665-2.327-41.46-2.7 0 0 36.99-5.123 56.368-10.247l5.963-1.77c-8.385 19.376-23.2 29.995-23.2 29.995-.092-.093 2.89-5.31 4.846-11.457" fill="#008CA8"/><path d="M210.194 332.638l-37.642-21.704c-2.702.28-5.404.56-7.92.745l52.363 30.18c-2.61-2.8-4.845-5.87-6.8-9.23" fill="#008CA8"/><path d="M302.34 332.638l37.642-21.704c2.702.28 5.404.56 7.92.745l-52.27 30.27c2.61-2.89 4.845-5.96 6.71-9.32" fill="#008CA8"/><path d="M239.543 337.762c-16.678-3.633-23.48-11.83-23.48-11.83 3.448 6.893 8.572 12.854 14.908 17.232-.09 0 6.9-2.05 8.58-5.402" fill="#008CA8"/><path d="M229.387 319.97c-1.21-1.118-2.33-2.33-3.54-3.54-5.31 1.863-8.293 3.912-9.877 5.31 3.727 3.54 10.715 8.197 23.293 10.805-1.584-4.378-5.497-8.197-9.876-12.575" fill="#008CA8"/><path d="M255.94 359.28c-5.496.093-9.41 2.235-10.807 2.7-1.398-2.607-2.98-5.216-4.472-7.544 4.76.56 8.95-.28 8.95-.28-1.95-.652-7.08-2.422-13.88-6.8.56-.28 1.12-.466 1.77-.838 1.77-.932 3.54-2.05 4.94-3.447 1.68-1.77 2.8-3.91 2.8-6.52 0-8.29-5.59-11.08-11.832-17.23-1.21-1.21-2.61-2.51-4.006-3.82 5.777-1.49 13.51-2.7 24.038-2.88l2.518 35.03h.374l2.61-35.024c10.53.187 18.26 1.398 24.04 2.89-1.4 1.303-2.706 2.607-4.01 3.818-6.24 6.15-11.83 8.944-11.83 17.235 0 2.7 1.115 4.845 2.885 6.52 1.397 1.49 3.168 2.61 4.938 3.45.56.28 1.21.56 1.77.836-6.704 4.47-11.83 6.148-13.88 6.8 0 0 4.19.93 8.946.28-1.49 2.328-3.17 4.937-4.474 7.545-1.302-.464-5.216-2.606-10.806-2.7h-.56z" fill="#008CA8"/><path d="M281.656 343.164c6.336-4.378 11.46-10.246 14.908-17.232 0 0-6.895 8.197-23.48 11.83 1.585 3.353 8.572 5.402 8.572 5.402" fill="#008CA8"/><path d="M273.364 332.545c12.578-2.608 19.66-7.266 23.293-10.805-1.584-1.398-4.66-3.447-9.876-5.31-1.21 1.21-2.32 2.422-3.54 3.54-4.38 4.378-8.29 8.197-9.87 12.575" fill="#008CA8"/><path d="M245.04 197.384s-6.056-4.006-7.08-12.576c0-.093-7.92 13.228 7.08 12.576" fill="#FFF"/><path d="M268.053 197.384s6.15-4.006 7.08-12.576c0-.093 7.828 13.228-7.08 12.576" fill="#FFF"/><path d="M263.488 372.04c-1.118-1.117-2.702-2.42-7.547-2.42-4.56 0-6.14 1.117-7.54 2.235l7.83 31.02 7.27-30.834z" fill="#FFF"/><path d="M315.385 235.855v11.364h-3.82v-11.37h-3.168v-3.26h10.155v3.26h-3.167z" fill="#FFF"/><path d="M297.59 235.855v11.364h-3.82v-11.37h-3.17v-3.26h10.157v3.26h-3.168z" fill="#FFF"/><path d="M244.015 242.003h1.398v-7.825l-1.584-1.583h-9.69v14.624h3.63V242h2.7l2.05 5.216h3.54L244.01 242zm-6.336-3.26v-2.888h4.1v2.887h-4.1z" fill="#FFF"/><path d="M337.373 235.855v-3.26h-10.715v14.624h10.715v-3.26h-6.988v-2.43h6.988v-3.26h-6.988v-2.42h6.988z" fill="#FFF"/><path d="M258.27 243.96v-11.365h-3.727v14.624h9.13v-3.26h-5.403z" fill="#FFF"/><path d="M280.445 232.595h-9.69v12.947l1.584 1.677h9.69v-12.95l-1.59-1.68zm-6.15 11.364v-8.11h4.1v8.1h-4.1z" fill="#FFF"/><path d="M225.474 247.22v-12.95l-1.584-1.582h-9.876v14.624h3.633v-4.75h4.193v4.75h3.634v-.093zm-7.827-8.012v-3.353h4.193v3.353h-4.193z" fill="#FFF"/><path d="M202.274 232.595v6.613h-4.1v-6.613h-3.633v14.624h3.64v-4.76h4.1v4.75H206v-14.62h-3.726z" fill="#FFF"/><path d="M421.32 129.01c7.082-16.673 12.486-28.503 12.486-28.503-59.164 38.47-111.993 72.937-142.273 92.685-1.118 3.167-2.516 6.148-3.914 8.85l119.26-64.927-93.08 67.162 4.28-.745 49.19-4.75s33.26-3.168 51.71-28.04c8.663-13.32 23.48-52.35 23.48-52.35l-21.15 10.62z" fill="#FFF"/><path d="M136.495 284.48l11.46-4.938v25.99c3.26-.466 6.708-.84 10.062-1.305v-57.1h-10.062v20.585l-11.46 4.844v-25.43H126.34v29.53s-8.386 4.004-8.293 4.097l8.292 4.192v23.94c3.26-.56 6.7-1.118 10.15-1.677v-22.73z" fill="#FFF"/><path d="M215.132 284.386c2.515-.093 4.938-.186 7.547-.186 1.86 4.844 3.72 10.34 5.59 15.184l10.06-.28c-1.87-4.844-3.73-10.34-5.59-15.09 1.3 0 2.51-.093 3.82-.093v-23.38l-4.47-4.37h-30.94l3.82 4.57v39.59c3.35-.187 6.7-.374 10.15-.467v-15.47zm0-19.002h11.46v8.942c-3.82.093-7.547.093-11.367.186l-.093-9.128z" fill="#FFF"/><path d="M254.543 265.384h11.554v33.534c3.447 0 7.08.093 10.528.186v-38.378l-4.565-4.564h-31.68l3.82 4.564v38.285c3.45 0 6.896-.09 10.343-.09v-33.53z" fill="#FFF"/><path d="M314.453 290.907c-6.522-.373-12.95-.652-19.566-.84v-7.17c6.522.185 13.044.37 19.566.65v-10.06c-6.522-.186-13.044-.372-19.566-.465v-7.638h19.566v-9.222h-33.915l3.727 4.564v38.658c10.342.28 20.405.745 30.188 1.397v-9.87z" fill="#FFF"/><path d="M339.89 265.384h8.664v-9.222h-28.51v9.222h8.85v36.328c3.634.28 7.454.652 10.995.932v-37.26z" fill="#FFF"/><path d="M197.522 260.726l-4.565-4.564H161.93l3.634 4.378v37.726l4.007 4.75c8.95-.93 18.36-1.676 27.96-2.328v-39.962zm-10.155 30.647c-3.914.28-7.734.465-11.554.745v-26.734h11.554v25.99z" fill="#FFF"/><path d="M385.17 284.76c3.075-1.398 6.243-2.796 9.41-4.286-10.062-4.658-20.124-8.942-30.187-12.855v-11.46h10.715v4.19h10.155v-13.23H350.51l3.82 4.47v23.56l20.778 9.035v13.227s-4.845-.65-10.715-1.397v-4.19l-10.063-1.21v13.507c10.995 1.305 21.337 2.796 30.933 4.47-.186-7.077-.093-18.44-.093-23.844" fill="#FFF"/><path d="M182.615 242.655v1.304h-3.26v-8.11h3.26v1.21h3.727v-4.47h-10.53v12.94l1.585 1.675h8.945v-4.565h-3.727z" fill="#FFF"/><path d="M91.213 129.01c-7.08-16.673-12.392-28.503-12.392-28.503 59.17 38.47 112 72.937 142.28 92.685 1.12 3.167 2.52 6.148 3.92 8.85l-119.26-64.927 93.08 67.162-4.285-.745-49.194-4.75s-33.262-3.168-51.71-28.04c-8.665-13.32-23.48-52.35-23.48-52.35l21.057 10.62z" fill="#FFF"/><path d="M458.403 117.46c-9.41 25.244-21.988 51.326-28.324 62.04-10.53 18.07-31.68 28.875-43.98 32.88 0 0-5.97 14.44-12.21 22.45h25.25v34.28l23.94 11.457-23.948 12.11v28.69l-23.29 14.253s-18.54-2.33-27.58-3.26l-73.7 42.57C259.752 441.622 256.31 461 256.31 461s-3.45-18.35-18.262-86.07l-73.7-42.57c-9.04.93-27.58 3.26-27.58 3.26l-23.294-14.256v-28.69l-23.944-12.11 23.945-11.457v-34.28h25.25c-6.055-7.64-12.205-22.45-12.205-22.45-7.453-2.42-14.44-5.776-20.777-9.78-9.97-6.335-18.076-14.346-23.294-23.01-10.06-17.7-21.8-44.34-28.33-62.04-4.19-10.896-9.504-27.29-9.504-27.29s13.696 6.52 17.89 8.662C55.896 79.26 50.4 53.09 50.4 53.09s94.383 62.04 160.628 115.13l1.027-.65c0-1.12-.094-2.237-.094-3.355 0-.65 0-1.956.56-3.54.75-2.14 2.52-4.937 6.34-7.266-4.846-3.54-13.604-9.6-14.35-10.43-6.43-5.59-7.454-11.83-6.99-14.91l1.12-7.08 35.87 26.732c19.57-5.59 33.36-2.797 43.515 0l35.87-26.73 1.12 7.08c.465 3.07-.56 9.312-6.99 14.9-.744.84-9.503 6.894-14.44 10.433 3.82 2.33 5.59 5.125 6.335 7.267.56 1.584.56 2.89.56 3.54 0 1.12 0 2.236-.096 3.353l1.025.654C369.33 113.734 462.13 53 462.13 53s-4.658 21.518-12.112 45.83c3.54-1.77 17.89-8.663 17.89-8.663-4.008 13.134-9.505 27.293-9.505 27.293M147.77 239.208h-30.003v32.51l-18.075 8.85 18.075 9.407v28.97l19.94 12.203c7.36-.932 16.677-2.05 27.578-3.167l76.96 44.34 14.07 64.56c.092-.18 14.16-64.55 14.16-64.55l76.868-44.34c10.807 1.12 20.218 2.24 27.578 3.17l19.94-12.2v-28.97l18.08-9.22-18.07-9.035v-32.51h-30s4.66-4.47 10.53-14.623c2.426-4.19 4.755-9.5 7.64-15.742 21.9-6.612 38.017-20.584 44.91-34.184 18.73-34.28 32.8-76.2 32.8-76.2s-8.107 3.915-17.797 8.666c7.92-24.128 12.67-44.62 12.67-44.62s-86.37 57.1-153.64 110.755l-5.87-3.447c0-.56.188-5.497.188-5.87 0 0 .656-5.683-9.41-9.13-.65-.187-1.21-.373-1.77-.56 4.848-3.63 12.395-9.22 17.985-13.04 8.758-6.055 7.73-12.67 7.73-12.67l-31.96 23.75c-24.69-8.01-45.184 0-45.184 0l-31.864-23.754s-1.026 6.613 7.73 12.67c5.5 3.817 13.05 9.406 17.988 13.04-.56.185-1.21.37-1.77.56-10.06 3.444-9.41 9.126-9.41 9.126 0 .372.187 5.31.187 5.87l-5.87 3.445C143.39 119.602 57.11 62.5 57.11 62.5s4.752 20.495 12.672 44.62c-10.436-5.123-17.796-8.662-17.796-8.662s14.07 41.917 32.796 76.197c6.895 13.6 23.014 27.572 44.91 34.186 0 0 3.726 8.48 6.894 14.54 3.82 7.55 11.18 15.84 11.18 15.84" fill="#A1A1A4"/></g></svg>