<svg width="512" height="512" viewBox="0 0 512 512" xmlns="http://www.w3.org/2000/svg"><title>chicago-bulls</title><g fill="none" fill-rule="evenodd"><path d="M398.692 218.235c-1.037-20.71-10.375-39.694-15.91-50.74l-3.11-6.213.344 5.522c.692 7.25 2.42 32.792-5.187 47.29-9.69 19.674-37.36 17.948-46.7 17.258h-.69c-14.87-1.035-63.64-2.76-78.86-2.76-19.72 0-41.508 1.725-59.147 3.105-8.645.69-15.907 1.036-21.097 1.38h-1.73c-24.555 2.417-40.12-4.83-46.344-21.4-3.805-10.355-3.46-30.375-3.46-40.04v-6.904l-2.074 3.452c-4.498 8.63-13.146 24.508-15.91 50.74-1.73 31.41 14.524 42.458 26.63 47.98 12.797 6.21 26.284 6.903 30.436 7.248h.345c.69 0 1.73 0 2.77.345 1.382 0 2.766 0 4.15.345-2.076.345-5.188 1.037-7.957 1.382-2.768.343-5.535 1.033-6.918 1.38-3.113.345-15.218 3.453-22.135 5.523-5.532 2.072-11.76 4.832-11.76 4.832l-1.036.69.69 1.035s2.08 2.762 4.15 4.832c4.5 4.49 16.605 12.08 31.13 10.356 11.76-1.725 17.986-4.142 20.407-5.522 1.04 2.42 2.77 8.29 4.498 12.77 5.19 13.12 17.293 38.32 21.79 46.95 3.805 6.91 7.263 13.12 9.684 17.26l1.037 1.38c-.69 2.76-2.766 4.49-4.15 5.87-.345.34-.69.34-1.037.69l-.34.35v.35c0 2.415-.693 24.16 14.18 40.04l.346.345c7.61 2.76 16.95 5.523 32.51 5.523 15.91 0 29.05-3.452 33.892-5.867v-.345h.347c10.376-12.082 14.87-30.375 15.22-37.28v-.342l-.346-.343c-.346-.345-.69-.345-1.037-.69-1.384-1.73-3.46-3.454-4.495-7.94 1.038-2.07 3.46-7.25 5.534-11.39 1.382-2.418 2.073-4.49 2.767-5.526 4.15-8.628 16.947-35.897 22.136-48.67 3.11-8.28 4.84-12.425 5.88-13.805 2.072 1.034 8.3 3.796 19.71 4.83 14.53 1.724 28.71-8.285 32.514-13.81l2.075-2.07.69-1.034-1.038-.69c-.345 0-.69 0-2.765-1.034l-16.6-5.175c-2.078-1.04-12.11-3.11-19.37-4.49l-5.534-1.38 1.73-.348c16.95-2.76 61.91-10.697 59.143-55.225z" fill="#061922"/><path d="M114.743 173.364c-.346 11.734-.346 24.16 2.42 35.207-2.42-2.07-5.187-4.83-7.608-6.9-2.42 2.42-4.496 5.18-6.916 7.6 2.42-12.42 6.57-24.51 12.1-35.9z" fill="#CE1141"/><path d="M394.196 204.085l.69 3.106-5.88-4.14c-2.765 1.04-5.187 2.77-7.953 4.15 2.074-11.04 2.42-22.78 1.73-34.51 5.186 10.01 8.3 20.71 11.413 31.41z" fill="#CE1141"/><path d="M248.936 313.504c6.225 9.663 17.984 12.425 28.36 9.663 4.15-.69 7.956-2.415 11.413-3.795-3.12 10.01-5.54 21.4-5.19 32.79 0 10.008 1.73 19.675 4.49 28.65-1.38-.69-2.77-1.728-4.5-2.418-21.448-10.7-51.19-10.354-72.29.69 1.04-3.45 2.078-6.902 2.77-10.352 3.458-16.224 1.037-33.137-4.5-47.635 11.416 4.832 27.67 5.867 37.008-4.833 1.04-.69 1.386-1.725 2.423-2.76z" fill="#CE1141"/><path d="M201.553 321.442c-.692 4.832-2.075 9.666-6.916 11.39-3.804 1.036-7.61-1.036-10.03-3.796-1.04-1.382-2.076-2.762-2.422-4.487 5.88 3.79 13.835.69 19.022-3.11h.346z" fill="#CE1141"/><path d="M315.685 322.132c-1.383 4.142-4.842 8.286-9.336 8.976-3.12.688-5.89-1.037-7.96-3.8-1.04-1.38-1.39-3.104-1.73-4.83 5.19 4.14 13.49 3.106 19.02-.346z" fill="#CE1141"/><path d="M303.927 333.868c2.074.345 4.496 0 6.57-.69-5.878 14.843-13.142 29.337-20.75 43.836-2.42-7.247-2.075-15.19-1.384-23.126 1.037-9.666 3.46-18.983 6.224-27.96 1.73 3.798 5.188 7.25 9.34 7.94z" fill="#CE1141"/><path d="M209.16 377.014c-8.99-13.806-15.907-28.303-22.825-43.146 3.112 1.382 7.956 2.762 11.068.345 3.112-2.07 4.842-5.177 5.88-8.63 7.61 14.844 9.338 34.517 5.878 51.43z" fill="#CE1141"/><path d="M294.587 388.75c-1.728 12.772-6.224 24.163-14.525 34.172-18.676 7.594-44.27 8.284-62.945.345-9.34-10.354-12.797-23.128-13.49-36.932 20.06-14.498 51.534-17.603 74.36-7.25 5.88 2.76 11.413 5.52 16.6 9.665z" fill="#CE1141"/><path d="M372.058 284.855c-15.558-6.214-35.966-9.667-52.912-10.012-1.73-19.33-3.807-31.064-7.61-41.765-8.646-.69-48.073-2.07-62.945-2.07-15.21 0-53.6 2.415-62.6 2.76-3.46 10.356-7.61 23.126-9.33 42.113-17.29 1.04-40.81 5.87-56.37 11.74-2.42 1.04-3.46 1.73-3.46 1.73 2.42 2.767 11.07 13.12 27.325 13.468 5.188 0 14.873-.69 21.444-3.452 1.73-1.033 5.187-2.413 5.187-2.413s1.04 2.07 1.73 3.796c1.73 4.83 3.808 11.732 5.19 14.84 2.42 4.488 5.88 7.938 12.105 8.285 5.19 0 8.994-4.49 9.686-5.18-15.217-1.04-21.442-8.975-22.48-21.4-3.803-.69-4.843-1.034-5.19-2.763-.344-2.07.347-4.14 1.733-6.556 1.73-2.07 4.494-4.487 11.756-2.07 4.84 1.38 8.647 4.487 11.07 6.9 3.456 2.76 12.45 12.08 17.982 15.534 5.88 3.45 16.95 6.56 24.21-.69 7.265-6.905 7.954-12.774 8.994-16.224-12.45-.347-23.865-1.73-34.585-3.11-3.114-.344-1.73-3.45.692-2.76 0 0 20.056 2.76 34.24 2.76v-7.59c-8.305-.346-22.14-1.036-35.28-3.8-2.77-.69-2.42-3.8.345-3.106 1.73.69 23.52 3.8 35.28 3.8v-9.668c-7.61.346-19.023-.69-34.933-3.106-2.77-.344-2.42-2.76 0-2.76 0 0 20.06 3.106 34.93 2.76v-7.594c0-2.762 2.42-3.107 2.42 0 0 1.036.344 3.798.344 7.594 14.18-.348 26.975-2.07 32.856-3.11 3.46-.69 3.114 2.07 1.386 2.417-2.076.346-18.68 3.45-34.59 3.796 0 2.76.35 6.56.35 9.32 10.72-.344 22.827-.69 33.55-3.104 3.802-.693 4.15 2.414.69 2.76-10.377 1.727-25.25 3.454-34.24 3.8 0 2.414 0 5.52.345 7.59 16.95-.345 32.86-2.76 35.627-3.105 2.767-.69 3.46 2.416.345 2.76-2.766.346-22.83 3.108-35.623 3.108 1.382 4.486 1.382 10.7 7.607 15.875 6.224 5.176 16.253 4.83 23.52.69 5.53-3.106 14.18-12.772 17.29-15.532 2.765-2.412 8.99-7.94 17.29-7.94 7.955 0 8.3 4.49 8.647 5.528.344 1.38.69 3.8-1.04 4.83-1.38 1.037-2.766.69-4.15 1.38-1.036 6.558-3.11 14.15-8.645 18.294-5.532 4.142-14.526 4.832-14.526 4.832l1.73 1.724c.695.69 3.808 2.417 7.958 2.07 3.458-.343 7.954-3.103 9.683-5.176 2.77-3.45 5.19-11.044 7.266-15.874.69-1.73 2.42-4.83 2.767-6.215 1.73.694 2.422 1.04 5.533 2.42 6.57 2.414 14.87 3.45 20.06 3.45 8.3-.346 17.98-5.52 23.86-10.7 1.036-1.037 2.765-3.45 2.765-3.45s-5.535-2.07-7.27-2.417z" fill="#CE1141"/><path d="M281.1 390.477c1.384 3.105.345 6.557-1.383 8.972-3.46 3.8-8.3 5.52-13.143 4.14-2.768-.69-5.534-2.42-7.263-5.53-1.03 2.41 1.04 4.49.7 6.56-.34.69-1.03.69-1.38.34-2.763-3.798-3.8-9.32-1.38-13.46 3.11-5.18 8.645-7.6 14.87-6.91 3.46.694 7.265 2.42 8.995 5.87z" fill="#061922"/><path d="M239.25 392.547c2.422 3.797 1.385 9.32-1.036 12.772-.346.69-.692 1.38-1.383.69-1.03-1.04.35-2.07.35-3.45.35-1.04.69-2.08.35-3.11-3.46 4.49-8.3 6.56-13.49 5.52-3.8-.69-7.26-3.45-8.64-7.25-.69-2.42-.344-5.18 1.04-7.25 3.457-4.49 10.03-5.87 15.563-3.8 2.767.69 5.88 3.1 7.26 5.862z" fill="#061922"/><path d="M280.756 418.782c-.348.688-.694.688-1.385 1.725-1.73-.692-3.8-1.382-5.87-2.072-17.29-6.904-39.43-4.832-55.68 2.072-.343-.692-.69-1.037-1.035-1.725 19.023-8.286 44.96-9.32 63.986 0z" fill="#061922"/><path d="M283.867 326.964c-3.11 13.808-11.76 29.34-25.94 33.136-11.414 3.108-24.555.69-32.165-8.63-5.533-6.903-8.3-15.185-9.337-24.16.692-.346 1.383-.346 2.075-.346 1.038 12.77 7.954 27.27 20.75 31.41 11.07 3.45 24.556 0 32.512-9.663 5.187-6.55 8.646-14.49 10.374-22.43.694 0 1.04 0 1.73.69z" fill="#061922"/><path d="M113.705 88.796C111.285 86.38 107.48 85 103.675 85 99.87 85.345 85 90.177 85 112.267c0 21.748 13.487 28.996 21.443 28.996 7.954 0 15.91-6.213 18.676-16.914.34-1.38 0-1.73-1.39-2.42l-5.19-2.07c-1.39-.35-1.39-.35-2.08 1.72-.69 1.38-2.77 7.94-8.3 7.94-5.19 0-7.61-7.94-7.61-16.23 0-8.283 1.38-15.878 7.954-15.878 6.916 0 7.954 6.903 8.645 9.665 0 1.034.346 1.034 1.385 1.034h4.844c1.035 0 1.035 0 1.035-2.416V88.1c0-1.38 0-1.38-2.078-1.38h-4.15c-1.04 0-1.04.344-1.73 1.38-.346 1.034-1.384 1.725-2.767.69z" fill="#061922"/><path d="M311.19 97.425l10.03 31.756c.346 1.38.346 1.38 1.037 1.38h1.73c1.73 0 1.73 0 1.73 1.39v6.21c0 1.73 0 2.07-1.384 2.07H304.62c-1.73 0-1.73-.34-1.73-1.38v-6.21c0-2.07.346-2.07 1.383-2.07h2.076c1.03 0 1.03 0 .69-1.38l-1.73-4.83c-.35-1.033-.69-1.033-1.73-1.033h-12.11l2.42-7.25h7.61c1.03 0 1.38 0 1.03-1.04l-4.5-13.804c-.344-1.035-.69-1.035-1.036 0l-4.497 13.805c0 1.036 0 1.036 1.383 1.036l-2.42 7.248c-1.38 0-1.38 0-1.726 1.036l-1.73 4.83c-.346 1.38-.346 1.38.69 1.38h2.077c1.385 0 1.385.344 1.385 2.07v6.214c0 1.035 0 1.38-1.73 1.38H276.6c-1.036 0-1.036-.345-1.036-2.07v-6.213c0-1.383 0-1.383 1.73-1.383h1.384c.69 0 1.037-.342 1.382-1.032l10.032-32.1c.345-.69.345-1.035-1.04-1.035h-2.074c-1.382 0-1.728 0-1.728-1.38V88.8c0-2.07.346-2.07 2.42-2.07h26.63c1.383 0 1.383.345 1.383 2.07v5.868c0 1.38 0 1.38-2.074 1.38h-2.08c-.69 0-.69.347-.35 1.38z" fill="#061922"/><path d="M358.92 121.243h3.458c1.728 0 1.728.345 1.728 1.38 0 2.762-2.422 6.903-7.955 6.903-5.53 0-7.6-7.938-7.6-16.223 0-8.283 1.39-15.878 7.96-15.878 5.536 0 7.61 3.798 8.3 6.56.347 1.035.347 1.035 1.73 1.035h4.84c1.04 0 1.04 0 1.04-2.416V88.106c0-1.38-.35-1.38-2.422-1.38h-4.15c-1.036 0-1.036.345-1.382 1.38-.345 1.035-1.727 1.726-3.112.69-2.424-2.416-6.23-3.796-9.69-3.796-4.15.345-18.676 5.177-18.676 27.267 0 21.748 13.144 28.996 21.097 28.996 12.106 0 21.446-9.32 21.446-26.58 0-1.725 0-1.725-2.42-1.725h-14.53c-1.382 0-1.382 0-1.382 1.382v5.867c0 1.036 0 1.036 1.73 1.036z" fill="#061922"/><path d="M405.608 86.726c-13.14 0-23.863 12.08-23.863 27.27 0 15.185 10.722 27.267 23.863 27.267 12.798 0 23.52-12.082 23.52-27.268 0-15.188-10.722-27.27-23.52-27.27l-.346 9.666c4.844 0 8.994 7.94 8.994 17.61 0 9.67-4.15 17.61-8.994 17.61-4.842 0-8.644-7.94-8.644-17.6 0-9.667 3.802-17.605 8.644-17.605l.346-9.663z" fill="#061922"/><path d="M139.99 129.526V97.77c0-1.033-.345-1.38-1.382-1.38h-1.385c-1.73 0-1.73 0-1.73-1.036v-7.248c0-1.035 0-1.38 1.73-1.38H155.9c1.384 0 1.73.345 1.73 1.725v6.22c0 1.38 0 1.38-1.73 1.38h-1.038c-.692 0-.692 0-.692 1.38v8.98c0 2.42 0 2.42 1.73 2.42h10.03c2.075 0 2.075 0 2.075-2.415v-8.98c0-1.38-.346-1.38-1.038-1.38h-1.037c-1.73 0-1.73 0-1.73-1.38v-6.22c0-1.38.346-1.723 1.73-1.723h18.676c2.075 0 2.075.345 2.075 1.38v7.248c0 1.037-.34 1.037-1.72 1.037h-1.73c-1.03 0-1.03 0-1.03 1.38v31.76c0 1.04 0 1.04 1.382 1.04h1.73c1.383 0 1.383 0 1.383 2.07v6.216c0 1.036 0 1.38-1.73 1.38h-19.72c-1.38 0-1.38 0-1.38-2.07v-6.212c0-1.38 0-1.38 1.73-1.38h1.035c1.04 0 1.04 0 1.04-1.38v-9.663c0-2.414 0-2.414-1.73-2.414H155.9c-1.384 0-1.73.343-1.73 2.414v9.665c0 1.38 0 1.38 1.385 1.38h.69c1.73 0 1.73 0 1.73 1.384v6.21c0 1.728 0 2.07-1.384 2.07h-19.36c-1.73 0-1.73 0-1.73-1.38v-6.212c0-2.07 0-2.07 1.39-2.07h1.387c1.73 0 1.73 0 1.73-1.036z" fill="#061922"/><path d="M200.515 97.425c0-1.38 0-1.38-.69-1.38h-2.076c-1.39 0-1.73 0-1.73-1.38V88.45c0-1.38.34-1.724 1.73-1.724h18.67c2.07 0 2.07.345 2.07 1.38v7.248c0 1.037 0 1.037-1.73 1.037h-.69c-1.39 0-1.39 0-1.39 1.38v31.76c0 1.04 0 1.04 1.384 1.04h1.383c1.383 0 1.383 0 1.383 2.07v6.22c0 1.036 0 1.38-1.73 1.38h-19.7c-1.036 0-1.382 0-1.382-2.07v-6.212c0-1.382 0-1.382 1.73-1.382h1.728c1.037 0 1.037 0 1.037-1.38V97.43z" fill="#061922"/><path d="M254.47 88.796C252.05 86.38 248.59 85 244.783 85c-3.804.345-18.674 5.177-18.674 27.267 0 21.748 13.14 28.996 21.09 28.996 8.3 0 16.25-6.213 18.67-16.914.69-1.38.35-1.73-1.386-2.42l-5.187-2.07c-1.036-.35-1.036-.35-2.073 1.72-.344 1.38-2.765 7.94-7.952 7.94-5.533 0-7.61-7.94-7.61-16.23 0-8.283 1.383-15.878 7.956-15.878 6.57 0 7.952 6.903 8.3 9.665.343 1.034.343 1.034 1.73 1.034h4.84c1.04 0 1.04 0 1.04-2.416V88.1c0-1.38-.348-1.38-2.077-1.38h-4.5c-.69 0-.69.344-1.38 1.38-.348 1.034-1.386 1.725-3.115.69z" fill="#061922"/><path d="M136.877 165.08v31.41c0 1.035-.346 1.38-1.383 1.38h-1.73c-1.037 0-1.383 0-1.383 1.38v6.56c0 1.38.35 1.38 1.73 1.38h29.06l-10.03-10.01c-1.73 0-2.07 0-2.07-2.07v-8.974c0-1.728.347-2.073 2.076-2.073v-7.938c-2.075 0-2.075-.345-2.075-2.07v-8.976c0-2.08 0-2.08 2.073-2.08 1.73 0 9.34.34 9.34 6.9 0 6.21-6.916 6.21-9.34 6.21v7.94c2.076 0 9.34.344 9.34 6.904 0 6.557-6.916 6.212-9.34 6.212l10.03 10.01c7.264 0 12.454-6.56 12.454-13.808 0-7.598-4.5-10.36-8.302-13.12 2.42-2.416 7.265-5.177 7.265-12.77 0-8.286-8.3-13.46-13.14-13.46h-26.64c-2.077 0-2.42 0-2.42 1.723v6.557c0 1.034 0 1.38 1.726 1.38h1.73c1.038 0 1.038 0 1.038 1.38z" fill="#061922"/><path d="M225.07 164.733v27.27c0 6.903-3.458 16.914-17.292 16.914-13.487 0-20.06-10.01-20.06-16.914v-27.27c0-1.035-.346-1.035-1.383-1.035h-1.73c-1.382 0-1.382-.345-1.382-1.726v-5.867c0-2.07 0-2.07 2.074-2.07h18.33c1.384 0 1.73 0 1.73 1.725v6.212c0 1.38 0 1.38-2.075 1.38H201.9c-1.04 0-1.04 0-1.04 1.036v26.58c0 2.76 2.422 7.593 7.957 7.593 6.917 0 8.3-5.17 8.3-7.59v-26.23c0-1.38-.346-1.38-1.383-1.38h-1.384c-1.73 0-1.73 0-1.73-1.38v-6.21c0-1.72 0-1.72 1.385-1.72h13.834c2.42 0 2.42 0 2.42 1.726v6.213c0 1.38 0 1.726-1.73 1.726h-2.08c-1.04 0-1.39 0-1.39 1.032z" fill="#061922"/><path d="M289.748 197.87h-1.73c-1.383 0-1.383 0-1.383 1.726v6.214c0 1.38 0 1.38 1.382 1.38h34.24c1.385 0 1.73 0 1.73-2.072v-15.186c0-1.38 0-1.725-1.73-1.725h-4.842c-1.73 0-1.73.345-1.73 2.07v5.522c0 2.07 0 2.07-1.73 2.07h-7.26c-2.422 0-2.422-.35-2.422-1.73v-30.72c0-2.07 0-2.07 1.037-2.07h2.076c1.383 0 1.383-.35 1.383-1.38v-6.22c0-1.73 0-1.73-1.73-1.73h-18.33c-2.08 0-2.08 0-2.08 1.726v6.21c0 1.38 0 1.727 1.38 1.727h1.73c1.04 0 1.38 0 1.38 1.725v30.72c0 1.38-.35 1.723-1.386 1.723z" fill="#061922"/><path d="M368.948 192.348c0 11.392-10.72 16.223-15.22 16.223-3.458 0-7.26-1.38-9.682-3.45-1.73-1.38-3.11 0-3.457.69-1.04 1.38-1.04 1.38-1.73 1.38h-2.08c-2.42 0-2.42 0-2.42-1.03v-14.84c0-2.07.34-2.07 1.04-2.07h3.45c1.38 0 1.38 0 1.73 1.04.69 3.11 4.143 7.25 9.33 7.25 2.768 0 4.845-.69 4.845-3.106 0-4.83-2.77-5.866-7.956-8.63-5.188-2.76-13.14-5.87-13.14-17.256 0-11.045 10.373-15.877 14.87-15.877 3.46 0 6.92 1.38 9.34 3.45 1.73 1.38 3.11 0 3.456-.69.694-1.725.694-1.725 1.386-1.725h2.42c2.075 0 2.075 0 2.075 1.38v14.497c0 2.42 0 2.42-1.035 2.42h-3.11c-1.388 0-1.388 0-1.73-1.035-1.04-3.107-4.497-7.25-10.03-7.25-2.424 0-3.807 1.38-3.807 3.453 0 3.105 3.46 5.87 9.685 8.63 5.88 2.76 11.76 7.245 11.76 16.565z" fill="#061922"/><path d="M242.364 197.87h-1.73c-1.383 0-1.383 0-1.383 1.726v6.214c0 1.38 0 1.38 1.39 1.38h34.24c1.39 0 1.73 0 1.73-2.072v-15.186c0-1.38 0-1.725-1.73-1.725h-4.84c-1.73 0-1.73.345-1.73 2.07v5.522c0 2.07 0 2.07-1.73 2.07h-7.26c-2.42 0-2.42-.35-2.42-1.73v-30.72c0-2.07 0-2.07 1.04-2.07h2.075c1.384 0 1.384-.35 1.384-1.38v-6.22c0-1.73 0-1.73-1.73-1.73h-18.33c-2.074 0-2.074 0-2.074 1.726v6.21c0 1.38 0 1.727 1.385 1.727h1.73c1.036 0 1.384 0 1.384 1.725v30.72c0 1.38-.35 1.723-1.387 1.723z" fill="#061922"/><path d="M120.277 217.545c7.263 14.152 22.48 18.984 37.7 18.294 8.644 0 16.946-1.04 25.246-1.73v.69c-4.15 12.08-7.263 24.5-8.994 37.28-22.14.69-44.62-1.04-61.22-15.88-11.07-11.05-13.84-26.58-11.42-41.77 2.77-3.11 5.53-5.87 7.95-8.98 3.804 3.797 9.683 6.903 10.722 12.08z" fill="#FFF"/><path d="M395.58 210.987c.692 2.416.692 4.487 1.038 6.558 1.037 17.258-6.225 32.79-21.098 41.422-15.91 9.664-34.24 13.114-53.61 13.46-.344-1.726-.69-4.14-.69-5.868-1.728-11.4-3.805-22.78-6.918-33.49 20.752 0 46.345 5.52 60.18-13.81 1.73-2.76 3.458-5.18 5.19-7.94 3.11-1.38 6.223-3.45 8.99-4.83 2.42 1.03 4.497 3.102 6.92 4.482z" fill="#FFF"/><path d="M316.376 297.28c0 6.558-2.074 13.115-7.953 16.224-2.767 1.38-5.878 2.07-8.994 2.07-.35-.69-.35-1.38 0-2.07 4.49 0 9.34-1.73 11.76-5.524 1.73-2.762 2.42-6.212 2.42-9.664.69-.69 1.73-1.035 2.76-1.035z" fill="#FFF"/><path d="M198.44 314.884c-1.037 0-1.383.345-3.112 0-7.61 0-15.564-6.214-15.218-16.568 1.038-.345 2.075-.345 2.767 0 0 5.867 2.42 14.15 15.218 14.15.69 1.38 0 1.38.346 2.418z" fill="#FFF"/></g></svg>