<svg width="512" height="512" viewBox="0 0 512 512" xmlns="http://www.w3.org/2000/svg"><title>dallas-mavericks</title><g fill="none" fill-rule="evenodd"><path d="M104.646 104.87s8.1 98.07 44.184 173.282c0 0-26.51-7.37-58.914-25.806l60.387 154.852s30.928-19.174 58.91-21.384c0 0 30.195 39.82 44.922 49.403 14.726-9.583 42.71-50.142 42.71-50.142 27.984 2.212 56.703 20.648 56.703 20.648l62.596-153.377c-32.403 18.435-53.758 25.806-53.758 25.806 32.402-75.21 43.445-174.02 43.445-174.02l-64.8 19.173H167.24l-62.592-18.436z" id="Shape" fill="#061922"/><path d="M167.238 127.84h174.448s48.072-14.22 58.78-17.39c-3.158 23.534-15.33 103.45-42.242 165.91l-5.414 12.854s55.705-18.548 81.667-32.444c-7.97 19.53-56.876 133.904-60.312 142.316-9.572-2.95-54.615-16.764-76.964-18.533l-2.6-.205-1.48 2.148c-7.13 10.338-27.06 37.464-39.01 47.115-14.64-11.5-41.01-46.17-41.29-46.54l-1.49-1.97-2.464.2c-21 .09-73.284 14.11-79.177 20.74-6.24-15.99-48.1-132.02-52.69-143.79 27.283 14.154 79.98 29.114 79.98 29.114l-4.58-11.21c-29.97-62.463-40.014-141.875-42.57-165.027 10.396 3.06 56.76 16.714 56.76 16.714h.65z" id="Shape" fill="#FFF"/><path d="M115.692 118.88l44.184 13.272h188.517l43.45-14.01s-3.684 67.1-39.768 155.584c-36.08 88.49-98.677 146.743-98.677 146.743s-72.904-79.64-101.623-160.02c-28.72-80.37-36.083-141.58-36.083-141.58z" id="Shape" fill="#C4CED3"/><path d="M87.71 268.57s61.12 27.28 120.032 33.92c58.914 6.634 96.47.736 96.47.736s59.648-8.11 115.615-34.657l-52.284 122.4s-38.293-11.8-67.014-14.75c-28.72-2.95-74.38-2.95-96.47 0-22.1 2.95-69.96 16.22-69.96 16.22L87.71 268.56z" id="Shape" fill="#007DC5"/><path d="M361.414 184.118c0-56.938-47.85-103.094-106.88-103.094-59.03 0-106.883 46.156-106.883 103.094 0 56.935 47.86 103.09 106.89 103.09s106.88-46.155 106.88-103.09z" id="Shape" fill="#FFF"/><path d="M144.63 184.118c0 58.512 49.303 106.114 109.903 106.114 60.6 0 109.9-47.602 109.9-106.114 0-58.513-49.3-106.118-109.9-106.118-60.6 0-109.902 47.605-109.902 106.118zm6.04 0c0-55.18 46.593-100.07 103.863-100.07 57.27 0 103.864 44.892 103.864 100.07 0 55.177-46.593 100.067-103.864 100.067-57.27 0-103.863-44.89-103.863-100.067z" id="Shape" fill="#061922"/><path d="M354.468 213.518c0 53.807-43.557 97.423-97.295 97.423-53.734 0-97.295-43.61-97.295-97.42s43.56-97.42 97.295-97.42c53.738 0 97.295 43.62 97.295 97.43z" id="Shape" fill="#007DC5"/><path d="M358.092 213.518c0 55.81-45.182 101.052-100.918 101.052-27.868 0-53.097-11.312-71.36-29.596-18.262-18.29-29.56-43.552-29.56-71.456 0-27.905 11.298-53.168 29.56-71.456 18.263-18.286 43.494-29.598 71.36-29.598 27.87 0 53.098 11.31 71.362 29.598 18.26 18.288 29.556 43.55 29.556 71.456zm-7.25 0c0-25.9-10.48-49.353-27.43-66.325-16.953-16.972-40.37-27.473-66.238-27.473-25.866 0-49.286 10.5-66.234 27.473-16.953 16.972-27.437 40.424-27.437 66.325 0 25.902 10.484 49.353 27.437 66.324 16.95 16.974 40.368 27.47 66.234 27.47 51.733.003 93.67-41.99 93.67-93.794z" id="Shape" fill="#061922"/><path d="M244.3 114.65s19.018 10.04 23.165 17.31c0 0 7.608-2.424 12.794-2.077 5.18.345 13.48 3.81 13.48 3.81s-8.3 4.498-10.03 6.232c-1.73 1.73-5.88 7.616-5.88 7.616s13.14 9.01 28.695 10.39c15.56 1.39 24.204-3.46 24.204-3.46l3.11 1.39-1.04 2.08s-5.873 2.425-11.063 3.462c-5.188 1.04-10.717 2.078-15.21 2.078-4.495 0-16.94-2.422-20.745-3.81l1.038 5.196s-4.84-5.194-10.37-5.194v2.42s13.484 5.54 25.586 14.89c12.1 9.346 22.82 22.16 22.82 22.16s7.84 7.62 13.14 23.54c3.11 9.35 3.456 21.12 3.456 21.12l3.11 1.73-6.57 14.193-1.035-5.19s-.344-12.81-4.15-24.583c-3.8-11.772-10.716-19.39-16.94-27.005-6.222-7.616-25.584-20.423-29.734-22.502 0 0 6.568 12.813 6.914 17.31 0 0-5.53-5.537-10.72-6.574 0 0 4.844 3.81 15.217 21.12 10.37 17.31 9.337 40.503 9.337 40.503s-1.04 18-2.77 25.62c-1.73 7.617-3.8 9.346-3.8 9.346l-1.73-8.657s3.8-13.846 1.73-30.462c-2.075-16.62-5.88-34.276-18.325-45.353 0 0 2.765 10.04 2.074 16.962-.7 6.923-5.537 15.924-5.537 15.924s-1.73-16.27-6.57-16.62c0 0 0 4.5-.345 7.62-.346 3.113-3.46 9-1.383 13.846 2.075 4.847 5.187 17.656 5.533 19.04.346 1.385 1.038 5.195 1.038 5.195s.69 1.386-1.382 3.115c-2.08 1.73-9.337 7.965-9.337 7.965s-5.53 3.113-2.07 4.152c3.454 1.034 23.163 1.034 23.163 1.034s22.13-1.73 35.61-12.46c13.484-10.73 24.2-26.653 24.2-26.653l-4.495 19.73s-6.91 20.08-25.583 31.855c-18.67 11.77-53.933 32.54-103.377 11.077-49.44-21.467-58.777-68.2-58.777-68.2s-4.15-14.197-3.456-20.43c.69-6.233-2.77-13.85 3.8-13.85 0 0 0-10.39 3.46-13.85l1.725-7.27s2.42-17.657 14.523-27.697c0 0 6.566-7.96 7.95-9 1.385-1.04 2.076-4.844 2.076-4.844l8.3-7.963 4.495-.69s12.1-7.96 14.52-8.308c2.418-.348 9.68-16.62 36.647-15.928 0 0-4.493 4.5-4.493 7.615z" id="Shape" fill="#061922"/><path d="M257.784 288.1c-13.137-2.075-15.56-3.462-23.856-9.003-8.3-5.536-11.755-12.46-11.755-12.46 6.914 3.46 15.21 1.383 16.594 1.038 1.384-.347 9.68-5.195 11.755-7.275 2.073-2.075 1.73-3.806 1.382-5.883-.344-2.078-1.037-9.348-1.037-13.157 0-3.808-1.382-9-1.382-9l-3.11 6.923-1.038-2.422c-1.038-2.42-1.73-6.23-2.075-9-.344-2.77-2.076-8.65-2.766-12.11-.69-3.46-2.075-12.12-2.075-12.12s-4.49-16.962-4.84-18c-.34-1.04.7-3.115.7-3.115s1.73 4.848 5.88 7.617c4.15 2.77 8.643 3.117 8.643 3.117s-10.72-10.735-14.176-16.62c-3.456-5.886-5.53-16.62-6.567-20.427-1.04-3.81.69-5.193.69-5.193l2.073 3.81 5.878 1.038c-6.913-22.85-3.8-30.465-3.11-33.233.69-2.77 7.607-11.424 7.607-11.424l-3.114.347c-6.57 1.385-15.21 8.31-15.21 8.31s-7.955 5.54-8.3 12.12c-.346 6.576-5.878 10.387-8.645 13.85-2.764 3.46-7.607 12.81-10.372 19.733-2.765 6.923-3.11 19.04-1.036 26.31s7.606 14.54 10.025 16.965c2.42 2.42 1.036 2.77-2.074 1.73s-8.645-3.81-11.41-6.925c-2.77-3.116-2.77-1.04-2.77.695 0 1.727 6.23 14.883 7.61 17.31 1.385 2.42-1.034 1.382-3.456-.693-2.42-2.08-7.26-7.965-7.26-7.965s1.038 3.463 3.8 9.694c2.768 6.23 16.25 24.234 16.25 24.234s12.798 7.965-.34 4.503c-13.14-3.46-20.054-8.31-20.054-8.31l4.494 8.31s19.706 27.004 37.684 34.97c17.98 7.96 35.268 7.27 42.873 7.27 7.61 0 22.13-3.81 22.13-3.81s-21.092.346-34.23-1.733zm-22.473-42.236c3.12-6.232 6.92-1.73 7.61 3.462.72 5.426 1.04 9.694 1.04 9.694-6.57-17.31-5.88-3.115-5.88-3.115-8.29-1.386-2.76-10.04-2.76-10.04zm-11.75-120.827c.35-1.385 4.84-6.233 4.84-6.233s7.26-4.847 6.23-3.462c-1.035 1.387-6.912 13.85-6.912 13.85h-1.73l-5.53 5.193c-.003 0 2.764-7.964 3.11-9.348zm-3.8 30.466c.69-2.077 2.77-3.81 2.77-3.81s-.693 5.194.69 11.425c1.383 6.233 6.224 13.503 6.224 13.503s-2.767.7-5.877-1.38c-3.112-2.072-5.53-5.54-5.53-8.65 0-3.113 1.035-9 1.727-11.076zm-10.022 9.35c.343-4.5 3.8-9.35 3.8-9.35s-2.764 6.926-1.036 12.81c1.728 5.887 6.568 13.502 7.606 13.848 1.04.35 2.42-.34 2.42-.34l3.804 3.12 3.11 11.427s-7.606-4.154-13.136-11.077c-5.54-6.928-6.92-15.93-6.574-20.427zm.69 68.547c-4.15-6.923-9.682-16.964-9.682-16.964l10.72 2.423s13.136 29.77 14.175 30.46c1.04.69.345 3.11.345 3.11l-2.074-1.385s-9.334-10.73-13.48-17.656z" id="Shape" fill="#FFF"/><path d="M193.13 141.655s-3.112 5.193-1.384 7.27c0 0 10.373-12.463 16.596-14.54 0 0-13.483 13.5-18.67 27.35-5.187 13.85-6.57 31.853-5.53 43.277 0 0-7.264-19.042-3.114-32.89 0 0-8.99 8.31-6.223 29.428 2.764 21.12 19.015 40.16 19.015 40.16s-9.335-4.846-13.483-9.002c-4.15-4.154-7.608-11.424-7.608-11.424s1.03 25.273 20.4 48.468c19.36 23.2 42.52 29.774 58.77 32.195 16.25 2.425 43.903-1.384 68.46-17.653 0 0-25.248 21.81-58.78 22.503-33.54.692-61.547-16.622-73.996-30.814-12.446-14.193-30.08-43.277-26.623-66.818 0 0 1.384 18.35 8.99 26.657 0 0-7.26-30.81-6.57-43.275.694-12.463 6.917-25.273 10.72-28.042 0 0-5.88 12.81-3.46 18.695 0 0 5.88-18.002 10.375-21.81 4.496-3.81 4.15-6.577 4.842-8.658.692-2.077 2.075-7.27 7.26-11.077z" id="Shape" fill="#C4CED3"/><path d="M231.507 234.438l-.69-16.618s.345-4.847-.692-8.308c-1.037-3.463 0-10.04 0-10.04l2.076 5.192s.7 3.116.7 4.5c0 1.385.69 5.54 2.42 9.003 1.73 3.462 4.84 18.002 4.84 18.002s-4.494-3.81-8.643-1.74z" id="Shape" fill="#C4CED3"/><path d="M233.237 249.673s.69-6.925 1.728-7.962c1.037-1.04 5.187-4.5 7.608.35 2.42 4.85 3.11 9.69 1.728 15.58 0 0-1.38-23.89-11.06-7.96z" id="Shape" fill="#C4CED3"/><path d="M268.848 135.076l3.803 5.886s.35-3.81 5.19-5.886c4.84-2.077 11.07-1.73 11.07-1.73s-6.912-2.08-11.062-1.386c-4.147.693-8.99 3.116-8.99 3.116z" id="Shape" fill="#C4CED3"/><path d="M261.24 157.233s5.188-7.963 5.188-10.385l1.728-5.193.692 4.848c1.036 5.538.69 17.655.69 17.655s-.344 11.427-2.42 17.31c-2.072 5.886-5.528 10.04-5.528 10.04s2.42-4.847 4.145-19.732c1.728-14.888.693-14.888.693-14.888s-3.457 9.003-6.226 11.77c0 0-1.036-6.577-3.11-11.078-2.075-4.5-6.914-7.962-6.914-7.962s2.764 7.962 4.84 16.62c2.074 8.652 1.38 24.232 1.38 24.232s-3.456-13.848-7.95-30.12c-4.495-16.273-10.72-27.005-10.72-27.005s11.065 7.617 14.523 11.426c3.46 3.81 8.99 12.47 8.99 12.47z" id="Shape" fill="#C4CED3"/><path d="M229.087 152.04s7.952 12.813 4.84-14.54c0 0 6.915 24.928 7.26 25.62.347.693 1.386 4.847-1.38 2.425-2.768-2.426-10.72-13.504-10.72-13.504z" id="Shape" fill="#C4CED3"/><path d="M274.726 172.813s-.695-5.54.345-3.116 2.08 10.732 1.04 15.58c-1.03 4.846-8.3 11.424-8.3 11.424s-.34.35 1.04-2.76c1.38-3.115 2.42-5.54 3.46-10.04 1.04-4.5 2.42-11.08 2.42-11.08z" id="Shape" fill="#C4CED3"/><path d="M257.093 277.712l14.867-11.423s.692-1.39.346-3.46c-.346-2.08-6.914-24.59-6.914-24.59s-1.382-2.428-.345-3.467c1.036-1.038 1.382-4.847 1.036-6.577-.345-1.73.346-5.54 1.037-6.577.693-1.04 1.73-5.54 1.73-9.003 0-3.46-.693-9.346-.693-9.346s-2.073 7.963-2.42 11.077c-.345 3.117-2.072 5.194-1.727 10.387.343 5.19-1.73 7.616-1.73 7.616s-1.73 3.12-.344 5.54c1.382 2.426 6.566 23.196 6.566 23.196s1.382 2.43-.69 4.506c-2.075 2.077-10.72 12.113-10.72 12.113z" id="Shape" fill="#C4CED3"/><path d="M189.234 117.227l4.14-3.402c.817-.67 1.538-1.138 2.162-1.403.622-.265 1.213-.395 1.767-.386.555.007 1.06.136 1.507.38.448.247.84.576 1.177.986.524.642.822 1.23.894 1.764.08.536.02 1.083-.18 1.644-.19.56-.48 1.063-.86 1.51-.52.607-1.03 1.116-1.53 1.523l-4.14 3.403-4.93-6.02zm3.91-.914l2.693 3.286.683-.56c.582-.48.96-.87 1.136-1.15.176-.29.245-.6.21-.93-.037-.33-.252-.74-.646-1.22-.524-.64-1.038-.95-1.54-.93-.505.023-1.116.33-1.84.923l-.696.57z" id="Shape" fill="#061922"/><path d="M221.06 105.142l-3.764 1.563-.05 1.41-3.403 1.415 1.07-8.87 3.656-1.52 7 5.52-3.49 1.447-1.03-.965zm-1.348-1.262l-2.242-2.095-.11 3.07 2.352-.975z" id="Shape" fill="#061922"/><path d="M238.766 93.587l3.58-.417.68 5.835 5.586-.65.22 1.896-9.164 1.07-.902-7.73z" id="Shape" fill="#061922"/><path d="M264.996 92.838l3.568.513-.837 5.82 5.57.8-.275 1.89-9.134-1.31 1.108-7.702z" id="Shape" fill="#061922"/><path d="M294.503 107.755l-3.715-1.67-1.06.934-3.36-1.51 7.178-5.31 3.61 1.62.798 8.89-3.443-1.55v-1.41zm-.007-1.85l-.016-3.07-2.307 2.03 2.323 1.04z" id="Shape" fill="#061922"/><path d="M311.157 116.3l2.677 2.16c-.19.33-.262.64-.22.94.07.48.366.947.883 1.402.387.337.737.54 1.052.603.31.062.53.015.67-.145.13-.152.15-.374.06-.668-.09-.293-.46-.813-1.09-1.558-1.033-1.224-1.675-2.207-1.92-2.947-.253-.745-.18-1.346.215-1.8.27-.307.647-.475 1.145-.515.495-.037 1.074.098 1.73.407.66.31 1.446.86 2.36 1.66 1.12.982 1.857 1.873 2.2 2.67.347.793.31 1.544-.11 2.25l-2.64-2.14c.16-.32.186-.64.07-.95-.11-.31-.36-.637-.743-.97-.316-.28-.59-.446-.83-.498-.237-.05-.41-.013-.523.114-.088.096-.09.237-.03.425.058.19.3.53.72 1.013 1.037 1.21 1.737 2.13 2.098 2.754.36.623.543 1.17.55 1.632.01.464-.13.86-.41 1.175-.33.375-.79.585-1.378.63-.59.04-1.233-.1-1.933-.43-.7-.33-1.476-.866-2.325-1.61-1.494-1.31-2.36-2.41-2.596-3.297-.24-.885-.138-1.66.305-2.32z" id="Shape" fill="#061922"/><path d="M106.63 291.923l33.135 89.198 13.328-3.93.002.02 12.92-3.484c.02.064.09.31.09.31l15.93-3.3-.863-3.11c-.465-1.687-11.466-41.38-14.566-50.696-3.505-10.53-15.037-15.476-15.527-15.68l-.16-.067-.16-.044c-3.56-1.06-9.64-2.904-10.804-3.37-2.088-.838-3.776-.558-4.9.095-1.746-1.13-4.05-2.48-4.38-2.67l-.248-.15-26.056-9.156 2.244 6.04z" id="Shape" fill="#FFF"/><path d="M164.614 308.57l15.54 62.235s12.153-1.943 12.92-2.07l.067.31 13.22-2.33-.58-3.022c-.27-1.385-6.592-34.055-8.31-41.956-2.072-9.56-12.972-13.17-13.44-13.317l-.13-.044-20.46-4.55 1.184 4.743zm7.044 3.275c4.514 1.006 10.395 2.315 10.62 2.368.965.34 8.037 3.064 9.282 8.804 1.4 6.444 6.052 30.33 7.7 38.805-.718.13-.777.138-1.48.266l-4.62-20.774-11.978-.754 6.095 22.98c-1.23.197-1.48.238-2.61.416-1.12-4.495-11.1-44.463-13.01-52.11z" id="Shape" fill="#FFF"/><path d="M179.417 312.798c-3.426 1.092-3.207 5.51-3.135 6.96l.015.287 5.476 22.32h11.35l-.458-3.425c-.36-2.712-2.297-16.45-4.94-20.61-1.973-3.105-5.015-6.585-8.308-5.532zm3.76 9.946c.743 1.953 1.535 5.42 2.216 9.036-1.002-4.092-1.517-6.193-2.216-9.036z" id="Shape" fill="#FFF"/><path d="M194.76 314.676l-.012-.035c.665 2.25 7.76 40.15 8.532 45.55.4 2.81 1.482 4.76 3.216 5.79 1.248.74 2.568.82 3.59.628 1.744-.015 9.604-.157 14.012-1.52 4.68-1.44 6.008-6.553 6.008-10.87 0-1.734-.212-3.336-.508-4.52l.01.035c-.423-2.133-.613-20.72-.613-33.23v-2.934s-15.408-.48-16.488-.517l-.028-.25-19.2-2.748 1.47 4.63zm14.497 44.662c-.463-3.25-5.497-30.826-7.758-42.01 2.5.358 3.77.536 5.47.78.86 8.056 3.66 34.07 4.26 37.958.322 2.12 1.22 3.514 2.29 4.37-1.585.082-2.977.112-3.805.112h-.18c-.09-.232-.203-.615-.288-1.21zm6.564-15.826c.3 2.332.53 4.4.7 6.105-.2-1.784-.44-3.863-.69-6.105zm6.91 11.904c.06-.335.08-.8.08-1.383 0-6.116-2.82-25-4.34-34.756 1.99.065 2.75.086 4.5.142.016 9.45.13 29.13.78 31.73.2.8.314 1.89.314 3.01 0 2.302-.486 4.75-1.733 5.13-.473.15-1.04.28-1.64.39 1.02-1.085 1.766-2.56 2.05-4.275z" id="Shape" fill="#FFF"/><path d="M227.798 326.183v.087l1.12 39.29h2.934c.358 0 8.81-.007 13.7-.353 6.49-.462 10.12-8.52 10.513-9.442l.21-.495.543-10.3h-.855v-6.415h.634l.46-23.572-2.944-.127c-.08-.004-8.106-.35-15.69-.35-7.797-.002-10.625 6.98-10.625 11.677zm10.625-5.63h1.115c-.405.216-.806.455-1.18.77-1.033.865-2.263 2.473-2.263 5.202v13.252h-.346v19.7c-.34.007-.66.01-.97.01l-.95-33.313c.01-.978.31-5.62 4.583-5.62zm9.59 2.168v-2.02c1.075.03 2.06.06 2.89.09-.062 3.29-.164 8.45-.23 11.73h-2.662c.01-3.53.01-9.79.01-9.79zm-4.768 23.11l-.906 7.7c-.08.69-.27 1.18-.51 1.33-.02.01-.04.01-.05.02v-9.05h1.455zm7.208 5.19l-.147 2.8c-.797 1.657-2.21 3.72-3.67 4.74.787-.965 1.466-2.346 1.7-4.312l.376-3.22h1.74z" id="Shape" fill="#FFF"/><path d="M276.687 313.816l-21.14.8-1.568 49.46s11.79.38 12.59.408l-.008.03h1.136c.02.008.183.01.183.01v-.01h12.02l.527-2.364c.09-.395 2.15-9.74 2.15-15.543 0-2.658-.495-4.545-1.16-5.895 2.08-2.478 3.002-5.653 3.13-6.137l.053-.2.025-.204c.032-.29.78-6.33.78-10.85 0-.8-.028-1.56-.08-2.23-.445-5.333-5.65-7.083-8.34-7.263l-.157-.013-.156.013zm.017 6.05c.526.063 2.507.392 2.62 1.725.04.5.058 1.09.058 1.73 0 3.25-.464 7.86-.707 9.868-.473 1.6-1.64 3.944-2.754 4.44 0 0-6.27 2.793-7.11 3.165-.803-.18-1.68-.31-2.72-.31h-2.85s-.79 13.71-1.03 17.82c-.93-.03-1.054-.032-1.995-.066.154-4.866 1.056-33.215 1.2-37.784l15.3-.58zm-2.43 27.026l.015-.143v-.14c0-1.3-.66-3.3-2.64-4.67 2.05.59 3.78 1.08 4.23 1.21.23.3.66 1.29.66 3.45 0 3.51-.928 8.82-1.52 11.86h-1.83l1.073-11.58z" id="Shape" fill="#FFF"/><path d="M266.115 318.83l-1.927.68-.897 21.17 2.84.283c2.62.264 6.3.314 8.13-2.21.61-.85.84-1.782.84-2.63 0-.23-.037-.443-.07-.658.244-1.71.997-7.353.997-11.358 0-2.78-1.44-4.213-2.294-4.82-2.817-1.997-6.83-.73-7.607-.457z" id="Shape" fill="#FFF"/><path d="M298.396 312.78l-13.575.85-6.22 51.672 14.56.734 9.04-53.494-3.8.24zm-3.424 6.27c-1.01 5.98-6.142 36.358-6.87 40.678l-2.728-.14c.627-5.243 4.344-36.103 4.84-40.238 1.67-.104 2.613-.163 4.758-.3z" id="Shape" fill="#FFF"/><path d="M330.165 307.29l-19.95 3.852-.226.087c-.33.12-8.08 3.06-10.18 11.07-1.74 6.61-7.09 35.34-7.31 36.56-.59 2.94.37 6.61 3.87 7.61 2.63.755 9.97 1.09 11.42 1.155l.13.003.14-.006c.373-.018 9.324-.543 12.38-9.29 2.43-6.96 4.148-13.456 4.218-13.737l.883-3.19s-15.486.23-15.74.25c.297-1.335-.154.75.145-.615 1.05-.03 15.792-.524 15.792-.524l9.194-34.155-4.773.923zm-17.912 9.62c-1.25 1.248-2.762 3.337-4.59 6.83l-.188.364-.087.4c-2.56 11.73-6.498 29.65-6.855 30.92l.027-.075c-.146.44-.217.91-.217 1.41 0 1.53.66 3.21 1.782 4.33.048.05.103.08.154.125-1.64-.14-3.05-.3-3.87-.476-.01-.085-.02-.17-.02-.27 0-.17.01-.35.04-.5.054-.307 5.53-29.747 7.212-36.14 1.165-4.447 5.396-6.49 6.252-6.865l.347-.065zm14.283-2.762c-1.48 5.386-3.923 14.264-4.69 17.054-1.39.044-2.168.072-4.127.134l2.5-9.753.02-.162c.04-.31.06-.62.06-.94 0-1.85-.788-3.7-2.41-4.65l8.64-1.67zm-8.858 33.01c-.724 2.48-1.746 5.803-2.93 9.185-1.29 3.7-4.537 4.798-6.11 5.12 2.22-1.662 3.44-4.855 3.897-6.345l.023-.08 1.91-7.645c1.12-.08 1.626-.115 3.21-.234z" id="Shape" fill="#FFF"/><path d="M360.98 300.443l-11.655 3.535c.004-.025.075-.235.075-.235l-16.218 3.606-17.82 61.06s11.518 1.624 12.214 1.72c-.004.02-.056.193-.056.193l13.475 2.58.878-2.42c.227-.624 5.566-15.334 7.287-20.504.478-1.438.673-2.804.673-4.073 0-1.736-.367-3.28-.883-4.56 2.36-2.04 4.44-5.066 5.43-6.635l.195-.307 12.015-35.68-5.61 1.71zm-20.55 11.487l-8.91 27.747.116.008c-.087.282-5.988 19.91-7.19 23.908-.604-.087-.667-.093-1.327-.188 1.67-5.735 13.97-47.903 14.86-50.928.74-.168 1.23-.276 2.45-.548zm16.694-4l-8.03 23.84c-1.73 2.67-4.044 5.338-4.958 5.688-.037.012-.922.274-1.797.53 1.19-.862 2.25-2.06 2.94-3.718 1.52-3.66 6.15-19.884 7.62-25.064 1.01-.3 2.11-.637 4.22-1.277zm-17.03 31.244c.53.66 2.547 3.192 2.547 3.192.06.07 1.16 1.41 1.16 3.548 0 .65-.1 1.378-.36 2.16-1.28 3.857-4.73 13.428-6.36 17.93-.84-.16-.98-.185-1.91-.367 1.29-4.46 4.766-16.524 4.94-17.125.47-.83.836-1.892.836-3.028 0-.665-.125-1.354-.42-2.024-.87-1.962-2.87-3.15-5.892-3.58l.75.052c1.246.085 2.99-.096 4.718-.758z" id="Shape" fill="#FFF"/><path d="M395.704 288.736l-20.372 7.736-.282.19c-1.878 1.253-11.333 7.8-13.29 13.68-1.692 5.075-11.62 31.475-11.72 31.74l-1.492 3.972s.477.015.64.018c-.074.215-7.08 19.505-7.102 19.555-.24.57-.752 1.927-.752 3.507 0 .93.184 1.923.714 2.85.494.854 1.714 2.325 4.32 2.565 3.9.35 7.723.35 7.883.35h.2l.2-.03c.39-.05 9.48-1.32 13.98-9.1 3.89-6.72 12.307-29.275 12.665-30.23l1.567-4.21s-.203.01-.227.01l19.812-45.167-6.732 2.552zm-4.585 8.21c-3.7 8.403-11.48 26.145-12.6 28.71-.93.034-1.43.055-2.86.105l5-12.92.05-.25c.16-.81.242-1.554.242-2.23 0-1.55-.43-2.74-1.28-3.553-.88-.84-2.132-1.163-3.35-.857-2.033.51-3.97 2.324-4.513 2.87l-.395.395-.23.517c-2.547 5.745-8.516 19.418-8.88 22.316-.27 2.187.19 3.83 1.373 4.88 1.102.98 2.475 1.08 3.39.85l-.645.09 7.59-.215c-2.657 6.934-7.963 20.487-10.64 25.11-2.726 4.718-8.38 5.926-9.38 6.108-.8-.002-3.632-.05-6.554-.284.052-.214.13-.45.21-.632l.04-.093.045-.117s5.038-13.86 6.197-17.056h.58c-1.597 3.77-3.715 8.84-4.175 10.213-.32.96-.477 1.84-.477 2.65 0 1.095.29 2.054.87 2.86.636.88 1.88 1.934 4.2 1.934 3.84 0 5.854-4.09 6.215-4.913l.03-.066 8.838-22.767-12.844-.346c2.87-7.656 8.964-23.97 10.3-27.986.946-2.835 6.707-7.7 10.656-10.38.443-.17 7.19-2.726 12.98-4.927z" id="Shape" fill="#FFF"/><path d="M186.906 332.07h-4.84v-10.388h4.84v10.388z" id="Shape" fill="#FFF"/><path d="M243.608 355.955h-2.42V344.53h2.42v11.425z" id="Shape" fill="#FFF"/><path d="M351.138 343.843h-2.42v-4.156h2.42v4.156z" id="Shape" fill="#FFF"/><path d="M325.55 342.803H309.3v-2.77h16.25v2.77z" id="Shape" fill="#FFF"/><path d="M141.612 377.42l-32.155-86.55 19.706 6.924s3.874 1.786 5.534 3.46c1.218 1.233 1.73 2.426 1.73 2.426v-3.116s.69-.69 2.42 0c1.728.692 11.063 3.46 11.063 3.46s10.718 4.505 13.83 13.852c3.114 9.35 14.522 50.545 14.522 50.545l-10.027 2.08-14.868-51.93s-3.803-8.65-5.876-7.96c-2.07.69 0 5.89 0 5.89l16.6 54.61-8.99 2.43s-19.36-60.843-21.09-62.92c0 0-2.56-5.66-5.53-5.542-2.1.083-.69 1.73 0 4.156.69 2.426 22.82 65.345 22.82 65.345l-9.68 2.854z" fill="#061922"/><path d="M195.463 365.565l7.347-1.298s-6.57-33.93-8.298-41.893c-1.73-7.96-11.41-11.077-11.41-11.077l-15.56-3.464 14.866 59.546 8.645-1.39-5.877-22.16 5.532.342 4.755 21.38zM184.14 339.34l-4.84-19.735c-.345-6.922 3.456-3.46 5.878.347 2.42 3.807 4.495 19.388 4.495 19.388h-5.532z" fill="#061922"/><path d="M197.624 313.72l12.103 1.735s3.802 35.657 4.493 40.155c.69 4.506 4.84 3.467 5.53-.692.692-4.152-4.84-38.772-4.84-38.772l11.064.346s0 31.157.692 33.93c.693 2.767 1.04 10.384-3.456 11.77-4.495 1.38-13.483 1.38-13.483 1.38s-2.767 1.04-3.46-3.805c-.692-4.85-7.95-43.973-8.643-46.048z" fill="#061922"/><path d="M253.982 317.874l-.348 17.656h-8.642v-12.81s-5.878-1.038-5.878 3.807v12.813h13.83v3.464h-14.177v14.883s5.88 2.08 6.57-3.807l.69-5.886h7.607l-.346 6.58s-3.11 7.272-7.95 7.62c-4.842.342-13.486.342-13.486.342l-1.037-36.353s0-8.655 7.608-8.655c7.606 0 15.56.346 15.56.346z" fill="#061922"/><path d="M281.64 333.8s1.038-8.312.693-12.465c-.345-4.15-5.53-4.5-5.53-4.5l-18.326.693-1.382 43.625 7.952.258 1.036-17.91c5.187 0 5.187 3.12 5.187 3.12l-1.383 14.886h7.608s2.074-9.347 2.074-14.887c0-5.54-2.42-6.235-2.42-6.235 3.1-1.382 4.49-6.576 4.49-6.576zm-15.21 4.156l.69-16.274s5.877-2.077 5.877 2.425c0 4.5-1.037 11.423-1.037 11.423s1.38 3.118-5.53 2.426z" fill="#061922"/><path d="M287.52 316.492l11.064-.698-7.954 47.09-8.643-.435 5.532-45.96z" fill="#061922"/><path d="M313.794 334.49l10.373-.344 6.572-23.887-19.71 3.8s-6.58 2.424-8.3 9c-1.73 6.577-7.27 36.35-7.27 36.35s-.69 3.465 1.73 4.154c2.42.695 10.72 1.04 10.72 1.04s7.26-.345 9.68-7.27c2.42-6.92 4.144-13.5 4.144-13.5l-9.68.69-2.42 9.693s-1.383 4.5-3.457 5.19c-2.078.7-3.113-2.073-2.768-3.11.342-1.04 6.913-31.16 6.913-31.16s3.802-7.27 5.53-6.92c1.733.342 1.382 2.77 1.382 2.77l-3.455 13.494z" fill="#061922"/><path d="M335.578 309.91l9.336-2.076-9.336 29.085s5.187.34 6.915-3.82c1.728-4.15 7.95-26.317 7.95-26.317l11.412-3.46-10.03 29.774s-4.148 6.58-6.913 7.273c0 0 3.11 3.464 1.382 8.65-1.73 5.197-7.26 20.43-7.26 20.43l-7.695-1.473 5.96-20.684s2.77-3.807-3.46-4.5l-7.26 24.145-7.35-1.04 16.34-56z" fill="#061922"/><path d="M371.192 328.955l9.332-.347 16.253-37.045-20.054 7.616s-10.372 6.92-12.102 12.11c-1.72 5.192-11.75 31.85-11.75 31.85l12.8.35-7.26 18.694s-1.383 3.114-3.46 3.114-2.42-1.385-1.73-3.46c.694-2.08 5.877-14.198 5.877-14.198h-7.257l-6.915 19.04s-2.075 4.498 1.728 4.848c3.805.35 7.607.35 7.607.35s7.95-1.04 11.753-7.62c3.8-6.58 12.446-29.777 12.446-29.777l-12.1.35s-1.386.343-1.04-2.424c.345-2.77 8.644-21.466 8.644-21.466s1.73-1.73 3.11-2.076c1.384-.344.693 3.115.693 3.115l-6.568 16.97z" fill="#061922"/><path d="M253.36 391.73l-11.595 8.393 4.883-12.52c-2.746-4.582-15.1-7.64-15.1-7.64 3.05-.916 18.15-2.444 18.15-2.444.61-2.45 3.662-10.85 3.662-10.85s3.05 8.4 3.66 10.84c0 0 15.102 1.526 18.153 2.442 0 0-12.355 3.057-15.102 7.64l4.88 12.52-11.59-8.394z" fill="#FFF"/><path d="M252.224 366.266c-.113.31-2.556 7.045-3.467 10.134-3.224.338-14.815 1.582-17.558 2.405l-4.23 1.27 4.28 1.062c3.152.78 11.51 3.433 14.024 6.637l-6.134 15.74 14.21-10.292c1.246.904 14.21 10.29 14.21 10.29s-5.702-14.627-6.132-15.738c2.515-3.204 10.87-5.858 14.025-6.637l4.29-1.063-4.234-1.27c-2.74-.822-14.33-2.064-17.557-2.404-.91-3.09-3.354-9.823-3.466-10.134l-1.137-3.128-1.135 3.128zm-2.404 12.455l.842-.08.208-.82c.35-1.404 1.562-4.92 2.488-7.55.927 2.63 2.138 6.14 2.49 7.55l.207.83.844.08c2.76.283 8.7.933 13.08 1.544-3.97 1.388-9.14 3.685-10.95 6.71l-.31.51 3.603 9.254-8.976-6.5-8.978 6.5 3.605-9.253-.307-.51c-1.813-3.03-6.976-5.324-10.947-6.714 4.385-.61 10.318-1.26 13.09-1.543z" fill="#061922"/></g></svg>