<svg width="512" height="512" viewBox="0 0 512 512" xmlns="http://www.w3.org/2000/svg"><title>denver-nuggets</title><g fill="none" fill-rule="evenodd"><path d="M152.198 188.75c29.162-17.99 46.05-18.198 46.05-18.198l1.227 1.45 64.948-53.914 62.437 52.758 2.128-2.1s16.925 2.635 37.804 15.676c28.67 17.905 47.68 37.445 47.68 37.445h-14.618l10.258 12.77-.65 2.79s14.803-.3 22.463 1.08c6.087 1.1 12.632 5.662 12.632 5.662l8.67-3.01v60.85h-23.91s10.72 6.42 14.367 10.732c1.996 2.36 4.02 4.607 5.386 7.384 1.554 3.163 3.58 7.32 3.58 14.51v31.96c0 3.155-1.922 9.97-3.65 12.774-3.366 5.45-7.765 9.57-13.77 11.688-6.63 2.34-16.866 2.13-22.837.202-3.37-1.088-8.925-5.134-8.925-5.134l-5.158 4.52-11.974-6.495v8.2h-38.273l-11.49-9.03v9.03H283.8s-4.098-5.185-6.245-8.2c-4.193 3.12-8.468 7.03-14.202 7.93-4.087.64-8.004.69-11.878.07-4.364-.695-8.172-2.605-11.77-5.35-2.78-2.114-5.137-5.27-7.482-7.74-7.266 4.468-15.745 10.84-21.53 12.68-3.543 1.13-13.058 1.23-17.932-.85-6.88-2.933-14.41-11.984-14.41-11.984s-17.21 12.187-22.4 13.287c-5.18 1.097-10.89 1-15.77-.813-3.98-1.476-6.91-3.7-10.18-6.5-5.01 3.01-12.102 7.415-12.102 7.415H94.5l-1.247-1.444-2.432 1.44H59.36v-30.74s3.927-.19 3.927-3.62v-84.61c0-3.493-4.285-3.556-4.285-3.556v-31.258h61.082l-4.09-8.535 7.65-8.13h-12.99s18.59-18.92 41.546-33.08" id="Shape" fill="#4D90CD"/><path d="M403.53 234.73s-9.62-13.71-32.952-31.573c-23.335-17.862-39.094-28.038-39.094-28.038l-4.094 3.94 4.094-3.95s14.805 2.26 37.25 17.03c18.625 12.25 31.928 24.03 31.928 24.03h-14.53m-263.816 14.6s16.167-16.62 31.52-27.42c15.347-10.8 41.134-27.416 41.134-27.416l3.686 3.947-3.686-3.946s-20.26 3.327-45.028 20.357c-23.89 16.43-26.342 20.354-26.342 20.354h13.626" id="Shape" stroke="#FDB827" stroke-width=".866"/><path d="M263.946 124.234l-120.344 98.238 245.6 6.65-125.256-104.888z" id="Shape" fill="#002D62"/><path d="M205 177.61l58.946-48.39 60.784 51.715-37.045-15.163-.204 15.786-14.32-13.498-8.18 21.808-10.44-22.43-12.07 9.135-4.296-12.047L205 177.61z" id="Shape" fill="#FFF"/><path d="M65.83 243.834h74.905s73.68-17.83 119.526-17.83c45.85 0 126.9 13.707 126.9 13.707l39.71 2.91 6.86 54h-24.15l27.937 35.31-4.51 34.48-26.605 10.806-8.39 6.434-22.11-10.388-22.92 14.33-3.69.006-20.26-14.748-43.34 14.75-10.897-14.96-33.158-6.23-28.652 18.903-25.586-17.87-29.27 18.04-22.92-13.68-20.264 15.79-13.916-11.634-13.71 11.632-12.693-17.04-4.912-117.76-3.887-8.96z" id="Shape" fill="#002D62"/><path d="M65.83 243.834h74.905s73.68-17.83 119.526-17.83c45.85 0 126.9 13.707 126.9 13.707l39.71 2.91 6.86 54h-24.15l27.937 35.31-4.51 34.48-26.606 10.8-8.39 6.435-22.104-10.38-22.92 14.33-3.69.007-20.26-14.75-43.34 14.75-10.895-14.955-33.16-6.23-28.65 18.9-25.584-17.87-29.267 18.04-22.92-13.68-20.265 15.79-13.917-11.634-13.717 11.63-12.69-17.036L69.716 252.8l-3.887-8.96z" id="Shape" stroke="#000" stroke-width=".124"/><path d="M63.422 243.867H83.84l16.987 79.752.207-47.91s.1-5.58-1.433-7.13c-1.53-1.56-3.48-3.6-3.48-3.6v-21.12h23.13v21.11s-2.05 2.56-3.07 3.6-1.23 7.13-1.23 7.13v111.88H97.97L81.8 309.69v44.24s.787 5.968 1.842 7.89c1.024 1.874 3.684 3.953 3.684 3.953v21.81h-23.9v-21.81s1.793-1.037 3.226-2.495c1.43-1.456 1.635-7.06 1.635-7.06v-80.51s-.817-5.47-1.837-7.13c-1.025-1.66-3.023-3.6-3.023-3.6v-21.115z" id="Shape" fill="#FDB927"/><path d="M63.422 243.866H83.84l16.987 79.753.207-47.91s.1-5.58-1.433-7.13c-1.53-1.56-3.48-3.6-3.48-3.6v-21.12h23.13v21.11s-2.05 2.56-3.07 3.6-1.23 7.13-1.23 7.13v111.88H97.97L81.8 309.69v44.24s.787 5.968 1.842 7.89c1.024 1.874 3.684 3.953 3.684 3.953v21.81h-23.9v-21.81s1.793-1.038 3.226-2.496c1.43-1.456 1.635-7.06 1.635-7.06v-80.51s-.817-5.47-1.837-7.13c-1.025-1.66-3.023-3.6-3.023-3.6V243.86z" id="Shape" stroke="#FFF" stroke-width=".747"/><path d="M121.293 277.717V298.9s1.878.136 2.867 1.248c1.84 2.08 1.227 6.648 1.227 6.648v57.117s1.842 23.884 22.92 23.884c21.083 0 22.925-24.3 22.925-24.3v-75.39s-.207-8.1 1.022-9.558c1.227-1.46 3.276-4.36 3.276-4.36v-22.02s-5.527 1.66-14.327 5.4c-8.8 3.73-11.257 4.77-11.257 4.77v21.81s2.048.83 2.048 2.07v66.68s.1 5.5-3.79 5.5c-3.886 0-3.784-3.846-3.784-5.3v-58.77s-.41-4.573.41-5.82c.82-1.247 1.638-3.736 1.638-3.736v-20.972s-6.14 2.7-14.53 7.478c-8.394 4.773-10.645 6.433-10.645 6.433" id="Shape" fill="#FDB927"/><path d="M121.293 277.717V298.9s1.878.136 2.867 1.248c1.84 2.08 1.227 6.648 1.227 6.648v57.114s1.842 23.887 22.92 23.887c21.083 0 22.925-24.3 22.925-24.3v-75.39s-.207-8.1 1.022-9.558c1.227-1.46 3.276-4.36 3.276-4.36v-22.02s-5.527 1.66-14.327 5.4c-8.8 3.73-11.257 4.77-11.257 4.77v21.81s2.048.83 2.048 2.07v66.67s.1 5.5-3.79 5.5c-3.886 0-3.784-3.843-3.784-5.296v-58.77s-.41-4.574.41-5.82c.82-1.248 1.638-3.737 1.638-3.737V263.8s-6.14 2.705-14.53 7.48c-8.394 4.775-10.645 6.435-10.645 6.435z" id="Shape" stroke="#FFF" stroke-width=".747"/><path d="M223.128 255.2l3.467-1.958v43.872H206.64v-17.732s.61-5.4-3.685-5.4c-4.912 0-4.503 4.98-4.503 4.98v72.954s-.41 6.593 4.3 6.593c4.707 0 3.89-6.6 3.89-6.6v-25.36h-3.07v-16.64h23.024v59.39s-7.47 18.48-24.048 18.48c-16.58 0-23.535-17.447-23.535-20.356v-99.06s2.66-23.263 24.764-23.263c12.686.006 19.35 10.093 19.35 10.093" id="Shape" fill="#FDB927"/><path d="M223.128 255.2l3.467-1.958v43.872H206.64v-17.732s.61-5.4-3.685-5.4c-4.912 0-4.503 4.98-4.503 4.98v72.954s-.41 6.593 4.3 6.593c4.707 0 3.89-6.6 3.89-6.6v-25.36h-3.07v-16.64h23.024v59.39s-7.47 18.48-24.048 18.48c-16.58 0-23.535-17.447-23.535-20.356v-99.06s2.66-23.263 24.764-23.263c12.686.006 19.35 10.093 19.35 10.093z" id="Shape" stroke="#FFF" stroke-width=".747"/><path d="M281.034 247.394v49.722h-20.16v-23.133s.412-6.65-4.298-6.65c-4.705 0-4.09 5.606-4.09 6.44v78.144s-.413 6.594 4.295 6.594c4.71 0 4.3-6.59 4.3-6.59v-25.36h-3.48v-16.64h23.43v59.4s-7.26 18.37-23.63 18.37c-19.85 0-25.04-20.24-25.04-20.24V260.28s2.12-21.88 24.74-21.88c12.385 0 19.603 10.666 19.603 10.666l4.345-1.665z" id="Shape" fill="#FDB927"/><path d="M281.034 247.394v49.722h-20.16v-23.133s.412-6.65-4.298-6.65c-4.705 0-4.09 5.606-4.09 6.44v78.144s-.413 6.594 4.295 6.594c4.71 0 4.3-6.59 4.3-6.59v-25.36h-3.48v-16.64h23.43v59.4s-7.26 18.37-23.63 18.37c-19.85 0-25.04-20.24-25.04-20.24V260.28s2.12-21.88 24.74-21.88c12.385 0 19.603 10.666 19.603 10.666l4.345-1.665z" stroke="#FFF" stroke-width=".747"/><path d="M285.69 240.335s5.07-.207 22.668 3.322c17.6 3.53 22.513 5.402 22.513 5.402v48.05h-15.14s.62-17.53-2.04-21.89c-1.74-2.86-4.292-4.16-4.292-4.16v38.84h11.05v16.61H308.98v35.1s4.917-1.246 6.14-7.687c1.024-5.365.618-16.2.618-16.2h15.144v49.85H285.7v-22.01s4.04-1.043 4.04-6.855v-88.26c0-4.156-4.042-7.06-4.042-7.06v-23.056h-.002z" fill="#FDB927"/><path d="M285.69 240.335s5.07-.207 22.668 3.32c17.6 3.532 22.513 5.404 22.513 5.404v48.05h-15.14s.62-17.53-2.04-21.89c-1.74-2.86-4.292-4.16-4.292-4.16v38.84h11.05v16.61H308.98v35.1s4.917-1.246 6.144-7.687c1.02-5.365.615-16.2.615-16.2h15.14v49.85H285.7v-22.01s4.04-1.043 4.04-6.855v-88.26c0-4.156-4.042-7.06-4.042-7.06v-23.056h-.002z" stroke="#FFF" stroke-width=".747"/><path d="M336.807 250.72s10.03 1.87 29.266 11.007c19.237 9.138 25.995 13.293 25.995 13.293v22.096h-12.283s.234-4.453-.818-7.56c-1.226-3.634-4.094-5.815-4.094-5.815v70.41s0 4.99 1.636 7.27c1.63 2.29 3.47 3.95 3.47 3.95v22.23h-30.69v-21.81s2.25-1.03 3.48-2.9c1.22-1.87 2.25-8.52 2.25-8.52V280.4s-4.71 1.484-4.71 7.507v9.22H336.8v-46.4z" fill="#FDB927"/><path d="M336.807 250.72s10.03 1.87 29.266 11.007c19.237 9.138 25.995 13.293 25.995 13.293v22.096h-12.283s.234-4.453-.818-7.56c-1.226-3.634-4.094-5.815-4.094-5.815v70.41s0 4.99 1.636 7.27c1.63 2.29 3.47 3.95 3.47 3.95v22.23h-30.69v-21.81s2.25-1.03 3.48-2.9c1.22-1.87 2.25-8.52 2.25-8.52V280.4s-4.71 1.484-4.71 7.507v9.22H336.8v-46.4z" stroke="#FFF" stroke-width=".747"/><path d="M442.823 249.887l4.707-1.868v48.6H428.5v-19.94s.202-8.52-5.936-8.52c-6.145 0-5.325 8.51-5.325 8.51v17.68c0 2.284 1.63 6.406 5.94 9.523 12.05 8.74 16.36 11.84 18.62 14.332 2.24 2.49 5.32 8.72 5.32 12.252v38.84c0 1.87-3.69 18.273-24.56 18.273-10.85 0-19.45-7.893-19.45-7.893l-5.12 3.95v-42.57h18.83v13.81s-.617 6.95 5.523 6.95c6.143 0 5.527-6.95 5.527-6.95v-17.13s-1.024-6.23-4.094-8.1c-9.548-5.81-17.198-11.63-20.47-14.952-2.66-2.7-5.526-9.97-5.526-15.993V266.09c0-3.53 1.337-11.112 5.938-15.785 4.41-4.475 11.052-7.894 20.264-7.894 12.28 0 18.826 7.48 18.826 7.48" fill="#FDB927"/><path d="M442.823 249.887l4.707-1.868v48.59H428.5v-19.93s.202-8.52-5.936-8.52c-6.145 0-5.32 8.51-5.32 8.51v17.684c0 2.285 1.633 6.407 5.935 9.524 12.05 8.74 16.36 11.84 18.62 14.332 2.24 2.49 5.32 8.72 5.32 12.25v38.84c0 1.87-3.69 18.275-24.56 18.275-10.85 0-19.45-7.89-19.45-7.89L398 383.63v-42.57h18.83v13.814s-.62 6.95 5.52 6.95c6.144 0 5.528-6.95 5.528-6.95V337.74s-1.024-6.23-4.094-8.1c-9.55-5.81-17.2-11.63-20.47-14.952-2.66-2.7-5.53-9.97-5.53-15.993v-32.607c0-3.53 1.336-11.11 5.937-15.783 4.41-4.478 11.056-7.894 20.268-7.894 12.277 0 18.826 7.48 18.826 7.48z" stroke="#FFF" stroke-width=".747"/><path d="M122.316 230.78s57.51-32.4 138.15-32.4c80.638 0 143.06 36.553 143.06 36.553l-19.034 28.25s-49.733-30.95-124.026-30.95-120.343 27.624-120.343 27.624l-17.807-29.076" fill="#4D90CD"/><path d="M260.466 198.38c80.638 0 143.06 36.553 143.06 36.553l-19.034 28.25s-49.733-30.95-124.026-30.95-120.343 27.624-120.343 27.624l-17.807-29.076s57.51-32.4 138.15-32.4z" stroke="#FDB827" stroke-width=".866"/><path d="M157.72 240.71l5.79-2.002c4.828-1.67 6.01-4.66 4.91-7.935-1.097-3.277-3.832-4.91-8.663-3.242l-5.788 2.01 3.75 11.18zm-11.724-12.206c-.12-.347-.345-.567-1.51-.254l-.155-.46 15.13-5.23c8.39-2.898 13.78.14 15.71 5.88 1.77 5.282-.93 11.632-9.4 14.56l-14.62 5.057-.16-.462c1.117-.47 1.16-.79 1.046-1.132l-6.03-17.96z" fill="#FFF"/><path d="M209.284 223.595l-.567.118c-.243-.49-.654-.822-1.596-.625l-8.77 1.81.74 3.71 15.15-3.124c.52-.106.67-.347.61-1.374l.56-.116 1.39 6.942-.56.116c-.273-.65-.5-.81-1.02-.703l-23.54 4.85-.097-.48c1.16-.32 1.247-.63 1.175-.99l-3.722-18.59c-.07-.36-.266-.61-1.465-.45l-.095-.48 23.54-4.86c.525-.106.67-.345.63-1.293l.567-.117 1.384 6.944-.566.115c-.32-.89-.553-1.05-1.073-.945l-15.143 3.126.666 3.31 8.776-1.81c.944-.195 1.19-.66 1.235-1.207l.564-.118 1.247 6.222z" fill="#FFF"/><path d="M231.938 207.675c-.02-.365-.18-.64-1.385-.655l-.026-.485 11.58-.66.03.49c-1.105.102-1.33.36-1.317.604.023.44 8.752 7.45 12.288 10.38l-.6-10.85c-.025-.49-.42-.67-1.05-.67l-.026-.49 8.796-.5.026.49c-1.2.15-1.326.44-1.305.81l1.04 18.94c.02.36.18.64 1.38.65l.023.483-9.13.52-.03-.487c.866-.048 1.1-.226 1.08-.51-.027-.53-1.258-.988-14.607-12.256l.7 12.764c.02.362.18.64 1.39.654l.025.487-9.13.52-.03-.487c1.197-.15 1.327-.443 1.308-.806l-1.046-18.95z" fill="#FFF"/><path d="M283.866 227.588l.05-.486c.58-.02.735-.126.755-.286.04-.365-6.79-17.652-7.62-19.87-.33-.94-.5-1.16-.98-1.256l.05-.484 9.82 1.07-.05.486c-.77-.04-.98.1-1.01.38-.03.324.58 1.374 5.4 13.04 6.828-10.065 7.718-11.157 7.77-11.642.03-.285-.102-.42-.672-.524l.054-.484 8.235.898-.052.486c-.39.038-.592.1-.772.447-.62 1.244-11.616 17.772-11.674 18.34-.026.203.2.388.63.436l-.058.52-9.86-1.08z" fill="#FFF"/><path d="M335.834 229.29l-.56-.142c-.014-.548-.245-1.027-1.18-1.266l-8.683-2.2-.9 3.67 14.99 3.805c.52.13.75-.02 1.14-.97l.56.138-1.69 6.872-.56-.14c.026-.708-.11-.952-.625-1.082l-23.304-5.91.12-.478c1.185.218 1.395-.024 1.48-.38l4.538-18.402c.086-.356.01-.67-1.135-1.043l.117-.474 23.3 5.912c.51.13.75-.02 1.11-.892l.56.14-1.69 6.87-.56-.142c.08-.943-.056-1.188-.57-1.317l-14.995-3.81-.804 3.28 8.685 2.2c.933.24 1.358-.08 1.63-.55l.556.14-1.52 6.16z" fill="#FFF"/><path d="M364.924 234.17l7.522 3.018c2.64 1.06 3.83.4 4.258-.698.424-1.098.005-2.405-2.636-3.465l-7.52-3.017-1.624 4.163zm-4.042 10.375c-.127.34-.1.66.993 1.184l-.176.45-9.23-3.7.17-.46c1.145.37 1.385.16 1.517-.18l6.874-17.64c.13-.34.105-.66-.99-1.187l.178-.454 16.382 6.575c6.624 2.66 8.676 5.76 6.995 10.075-1.35 3.487-4.76 4.26-8.818 3.645l2.833 8.402c.213.654.54 1.004 1.032 1.203l-.174.453-9.313-3.738.177-.456c.643.212 1.074.17 1.25-.29.134-.34-2.58-7.466-2.85-8.494l-4.385-1.76-2.485 6.354z" fill="#FFF"/></g></svg>