<svg width="512" height="512" viewBox="0 0 512 512" xmlns="http://www.w3.org/2000/svg"><title>denver-nuggets</title><g fill="none" fill-rule="evenodd"><path d="M152.198 188.75c29.162-17.99 46.05-18.198 46.05-18.198l1.227 1.45 64.948-53.914 62.437 52.758 2.128-2.1s16.925 2.635 37.804 15.676c28.67 17.905 47.68 37.445 47.68 37.445h-14.618l10.258 12.77-.65 2.79s14.803-.3 22.463 1.08c6.087 1.1 12.632 5.662 12.632 5.662l8.67-3.003v60.854h-23.91s10.72 6.422 14.367 10.736c1.996 2.36 4.02 4.607 5.386 7.384 1.554 3.164 3.58 7.32 3.58 14.51v31.953c0 3.156-1.922 9.972-3.65 12.775-3.366 5.448-7.765 9.568-13.77 11.687-6.63 2.34-16.866 2.13-22.837.202-3.37-1.088-8.925-5.134-8.925-5.134l-5.158 4.52-11.974-6.494v8.2h-38.273l-11.49-9.03v9.03H283.8s-4.098-5.186-6.245-8.2c-4.193 3.118-8.468 7.028-14.202 7.93-4.087.642-8.004.69-11.878.072-4.364-.698-8.172-2.608-11.77-5.35-2.78-2.117-5.137-5.27-7.482-7.74-7.266 4.465-15.745 10.84-21.53 12.68-3.543 1.13-13.058 1.23-17.932-.85-6.88-2.936-14.41-11.987-14.41-11.987s-17.213 12.187-22.4 13.285c-5.18 1.098-10.894 1-15.773-.812-3.978-1.476-6.91-3.7-10.186-6.502-5.01 3.012-12.106 7.417-12.106 7.417H94.5l-1.247-1.443-2.432 1.443H59.36V361.56s3.927-.193 3.927-3.622V273.32c0-3.493-4.285-3.556-4.285-3.556v-31.258h61.082l-4.09-8.535 7.65-8.133h-12.99s18.59-18.925 41.546-33.087" id="Shape" fill="#4B90CD"/><path d="M403.53 234.73s-9.62-13.71-32.952-31.573c-23.335-17.862-39.094-28.038-39.094-28.038l-4.094 3.945 4.094-3.946s14.805 2.263 37.25 17.03c18.625 12.253 31.928 24.032 31.928 24.032h-14.53m-263.816 14.6s16.167-16.616 31.52-27.416c15.347-10.8 41.134-27.416 41.134-27.416l3.686 3.947-3.686-3.947s-20.26 3.325-45.028 20.355c-23.89 16.43-26.342 20.354-26.342 20.354h13.626" id="Shape" stroke="#FDB827" stroke-width=".866"/><path d="M263.946 124.234l-120.344 98.238 245.6 6.65-125.256-104.888z" id="Shape" fill="#002D62"/><path d="M205 177.61l58.946-48.39 60.784 51.715-37.045-15.163-.204 15.786-14.325-13.498-8.185 21.808-10.44-22.43-12.075 9.135-4.296-12.047L205 177.61z" id="Shape" fill="#FFF"/><path d="M65.83 243.834h74.905s73.68-17.83 119.526-17.83c45.846 0 126.892 13.707 126.892 13.707l39.707 2.908 6.857 54h-24.15l27.935 35.307-4.504 34.478-26.605 10.803-8.39 6.434-22.105-10.385-22.92 14.33-3.688.006-20.26-14.748-43.34 14.75-10.895-14.96-33.158-6.23-28.652 18.903L187.4 367.44l-29.268 18.04-22.92-13.678-20.264 15.79-13.916-11.635L87.32 387.59l-12.692-17.036-4.912-117.758-3.887-8.962z" id="Shape" fill="#002D62"/><path d="M65.83 243.834h74.905s73.68-17.83 119.526-17.83c45.846 0 126.892 13.707 126.892 13.707l39.707 2.908 6.857 53.996h-24.15l27.935 35.31-4.504 34.477-26.605 10.804-8.39 6.434-22.105-10.385-22.92 14.33-3.688.006-20.26-14.75-43.34 14.75-10.895-14.958-33.158-6.23-28.652 18.9L187.4 367.44l-29.268 18.04-22.92-13.678-20.264 15.79-13.916-11.635L87.32 387.59l-12.692-17.037-4.912-117.758-3.887-8.96z" id="Shape" stroke="#000" stroke-width=".124"/><path d="M63.422 243.867H83.84l16.987 79.752.207-47.91s.1-5.574-1.433-7.13c-1.536-1.557-3.48-3.6-3.48-3.6v-21.113h23.13v21.116s-2.05 2.56-3.07 3.598c-1.025 1.04-1.23 7.133-1.23 7.133v111.88H97.962l-16.17-77.89v44.24s.787 5.966 1.842 7.888c1.025 1.873 3.685 3.952 3.685 3.952v21.81H63.422v-21.81s1.792-1.037 3.225-2.495c1.432-1.456 1.636-7.062 1.636-7.062V275.71s-.818-5.468-1.838-7.13c-1.025-1.66-3.023-3.6-3.023-3.6v-21.113z" id="Shape" fill="#FDB827"/><path d="M63.422 243.866H83.84l16.987 79.753.207-47.91s.1-5.574-1.433-7.13c-1.536-1.557-3.48-3.6-3.48-3.6v-21.114h23.13v21.117s-2.05 2.56-3.07 3.598c-1.025 1.04-1.23 7.133-1.23 7.133v111.88H97.962l-16.17-77.89v44.24s.787 5.966 1.842 7.888c1.025 1.873 3.685 3.952 3.685 3.952v21.81H63.422v-21.81s1.792-1.037 3.225-2.495c1.432-1.456 1.636-7.062 1.636-7.062V275.71s-.818-5.468-1.838-7.13c-1.025-1.66-3.023-3.6-3.023-3.6v-21.114z" id="Shape" stroke="#FFF" stroke-width=".747"/><path d="M121.293 277.717V298.9s1.878.136 2.867 1.248c1.84 2.08 1.227 6.648 1.227 6.648v57.117s1.842 23.884 22.92 23.884c21.083 0 22.925-24.3 22.925-24.3v-75.39s-.207-8.1 1.022-9.558c1.227-1.454 3.276-4.36 3.276-4.36v-22.017s-5.527 1.66-14.327 5.4c-8.8 3.737-11.257 4.775-11.257 4.775v21.808s2.048.832 2.048 2.076v66.673s.1 5.503-3.79 5.503c-3.886 0-3.784-3.847-3.784-5.3v-58.773s-.41-4.574.41-5.82c.82-1.248 1.638-3.737 1.638-3.737v-20.972s-6.14 2.7-14.53 7.478c-8.394 4.773-10.645 6.433-10.645 6.433" id="Shape" fill="#FDB827"/><path d="M121.293 277.717V298.9s1.878.136 2.867 1.248c1.84 2.08 1.227 6.648 1.227 6.648v57.114s1.842 23.887 22.92 23.887c21.083 0 22.925-24.3 22.925-24.3v-75.39s-.207-8.1 1.022-9.558c1.227-1.454 3.276-4.36 3.276-4.36v-22.017s-5.527 1.66-14.327 5.4c-8.8 3.737-11.257 4.775-11.257 4.775v21.808s2.048.832 2.048 2.076v66.67s.1 5.503-3.79 5.503c-3.886 0-3.784-3.844-3.784-5.297v-58.773s-.41-4.574.41-5.82c.82-1.248 1.638-3.737 1.638-3.737v-20.975s-6.14 2.704-14.53 7.48c-8.394 4.774-10.645 6.434-10.645 6.434z" id="Shape" stroke="#FFF" stroke-width=".747"/><path d="M223.128 255.2l3.467-1.958v43.872H206.64v-17.732s.61-5.4-3.685-5.4c-4.912 0-4.503 4.98-4.503 4.98v72.954s-.41 6.593 4.3 6.593c4.707 0 3.89-6.594 3.89-6.594v-25.36h-3.07v-16.644h23.024v59.397s-7.47 18.482-24.048 18.482c-16.58 0-23.535-17.446-23.535-20.355V268.37s2.66-23.262 24.764-23.262c12.686.005 19.35 10.092 19.35 10.092" id="Shape" fill="#FDB827"/><path d="M223.128 255.2l3.467-1.958v43.872H206.64v-17.732s.61-5.4-3.685-5.4c-4.912 0-4.503 4.98-4.503 4.98v72.954s-.41 6.593 4.3 6.593c4.707 0 3.89-6.594 3.89-6.594v-25.36h-3.07v-16.644h23.024v59.397s-7.47 18.482-24.048 18.482c-16.58 0-23.535-17.446-23.535-20.355V268.37s2.66-23.262 24.764-23.262c12.686.005 19.35 10.092 19.35 10.092z" id="Shape" stroke="#FFF" stroke-width=".747"/><path d="M281.034 247.394v49.722h-20.16v-23.133s.412-6.65-4.298-6.65c-4.705 0-4.09 5.606-4.09 6.44v78.144s-.413 6.594 4.295 6.594c4.71 0 4.298-6.593 4.298-6.593v-25.36h-3.48v-16.643h23.432v59.396s-7.262 18.366-23.638 18.366c-19.85 0-25.04-20.238-25.04-20.238V260.274s2.12-21.882 24.734-21.882c12.385 0 19.603 10.667 19.603 10.667l4.344-1.666z" id="Shape" fill="#FDB827"/><path d="M281.034 247.394v49.722h-20.16v-23.133s.412-6.65-4.298-6.65c-4.705 0-4.09 5.606-4.09 6.44v78.144s-.413 6.594 4.295 6.594c4.71 0 4.298-6.593 4.298-6.593v-25.36h-3.48v-16.643h23.432v59.396s-7.262 18.366-23.638 18.366c-19.85 0-25.04-20.238-25.04-20.238V260.274s2.12-21.882 24.734-21.882c12.385 0 19.603 10.667 19.603 10.667l4.344-1.666z" id="Shape" stroke="#FFF" stroke-width=".747"/><path d="M285.69 240.335s5.07-.207 22.668 3.322c17.6 3.53 22.513 5.402 22.513 5.402v48.056H315.73s.612-17.525-2.048-21.89c-1.74-2.855-4.297-4.155-4.297-4.155v38.844h11.05v16.61h-11.462v35.1s4.917-1.245 6.14-7.686c1.024-5.365.618-16.2.618-16.2h15.143v49.85h-45.177V365.57s4.042-1.042 4.042-6.854V270.45c0-4.155-4.042-7.06-4.042-7.06v-23.055h-.002z" id="Shape" fill="#FDB827"/><path d="M285.69 240.335s5.07-.207 22.668 3.32c17.6 3.532 22.513 5.404 22.513 5.404v48.056H315.73s.612-17.525-2.048-21.89c-1.74-2.855-4.297-4.155-4.297-4.155v38.844h11.05v16.61h-11.462v35.1s4.917-1.245 6.144-7.686c1.02-5.365.614-16.2.614-16.2h15.143v49.85h-45.177V365.57s4.042-1.042 4.042-6.854V270.45c0-4.155-4.042-7.06-4.042-7.06v-23.055h-.002z" id="Shape" stroke="#FFF" stroke-width=".747"/><path d="M336.807 250.72s10.03 1.87 29.266 11.007c19.237 9.138 25.995 13.293 25.995 13.293v22.096h-12.283s.234-4.453-.818-7.56c-1.226-3.634-4.094-5.815-4.094-5.815v70.41s0 4.984 1.636 7.268c1.637 2.283 3.477 3.946 3.477 3.946v22.227H349.29v-21.81s2.25-1.037 3.48-2.906c1.227-1.868 2.25-8.52 2.25-8.52v-73.966s-4.704 1.484-4.704 7.507v9.22h-13.51V250.72z" id="Shape" fill="#FDB827"/><path d="M336.807 250.72s10.03 1.87 29.266 11.007c19.237 9.138 25.995 13.293 25.995 13.293v22.096h-12.283s.234-4.453-.818-7.56c-1.226-3.634-4.094-5.815-4.094-5.815v70.41s0 4.984 1.636 7.268c1.637 2.283 3.477 3.946 3.477 3.946v22.227H349.29v-21.81s2.25-1.037 3.48-2.906c1.227-1.868 2.25-8.52 2.25-8.52v-73.966s-4.704 1.484-4.704 7.507v9.22h-13.51V250.72z" id="Shape" stroke="#FFF" stroke-width=".747"/><path d="M442.823 249.887l4.707-1.868v48.6H428.5v-19.94s.202-8.517-5.936-8.517c-6.145 0-5.325 8.517-5.325 8.517v17.684c0 2.285 1.637 6.407 5.94 9.524 12.058 8.74 16.367 11.84 18.623 14.332 2.246 2.49 5.32 8.72 5.32 12.254v38.836c0 1.87-3.685 18.274-24.56 18.274-10.85 0-19.446-7.892-19.446-7.892l-5.115 3.945v-42.572h18.83v13.813s-.615 6.95 5.525 6.95c6.143 0 5.527-6.95 5.527-6.95V337.74s-1.024-6.23-4.094-8.1c-9.545-5.81-17.195-11.63-20.466-14.952-2.66-2.7-5.527-9.97-5.527-15.993V266.09c0-3.53 1.335-11.112 5.936-15.785 4.41-4.475 11.052-7.894 20.264-7.894 12.277 0 18.826 7.477 18.826 7.477" id="Shape" fill="#FDB827"/><path d="M442.823 249.887l4.707-1.868v48.596H428.5V276.68s.202-8.517-5.936-8.517c-6.145 0-5.32 8.517-5.32 8.517v17.684c0 2.285 1.633 6.407 5.935 9.524 12.058 8.74 16.367 11.84 18.623 14.332 2.246 2.49 5.32 8.72 5.32 12.252v38.84c0 1.87-3.685 18.274-24.56 18.274-10.85 0-19.446-7.892-19.446-7.892l-5.115 3.944v-42.573h18.83v13.813s-.615 6.95 5.525 6.95c6.143 0 5.527-6.95 5.527-6.95V337.74s-1.024-6.23-4.094-8.1c-9.545-5.81-17.195-11.63-20.466-14.952-2.66-2.7-5.527-9.97-5.527-15.993v-32.607c0-3.53 1.335-11.11 5.936-15.783 4.41-4.478 11.052-7.894 20.264-7.894 12.277 0 18.826 7.477 18.826 7.477z" id="Shape" stroke="#FFF" stroke-width=".747"/><path d="M122.316 230.78s57.51-32.4 138.15-32.4c80.638 0 143.06 36.553 143.06 36.553l-19.034 28.25s-49.733-30.95-124.026-30.95-120.343 27.624-120.343 27.624l-17.807-29.076" id="Shape" fill="#4B90CD"/><path d="M122.316 230.78s57.51-32.4 138.15-32.4c80.638 0 143.06 36.553 143.06 36.553l-19.034 28.25s-49.733-30.95-124.026-30.95-120.343 27.624-120.343 27.624l-17.807-29.076" id="Shape" stroke="#FDB827" stroke-width=".866"/><path d="M157.72 240.71l5.79-2.002c4.828-1.67 6.01-4.66 4.91-7.935-1.097-3.277-3.832-4.91-8.663-3.242l-5.788 2.002 3.75 11.178zm-11.724-12.206c-.12-.347-.345-.567-1.51-.254l-.155-.46 15.13-5.23c8.385-2.898 13.78.14 15.707 5.88 1.77 5.282-.93 11.632-9.403 14.56l-14.627 5.057-.158-.462c1.114-.47 1.16-.79 1.043-1.132l-6.027-17.96z" id="Shape" fill="#FFF"/><path d="M209.284 223.595l-.567.118c-.243-.49-.654-.822-1.596-.625l-8.774 1.81.74 3.71 15.147-3.124c.516-.106.667-.347.61-1.374l.562-.116 1.39 6.942-.565.116c-.277-.65-.505-.81-1.025-.703l-23.54 4.856-.096-.478c1.16-.322 1.247-.632 1.175-.99l-3.722-18.592c-.07-.358-.267-.61-1.466-.447l-.096-.48 23.54-4.855c.523-.106.67-.345.63-1.293l.565-.116 1.388 6.942-.566.116c-.32-.888-.553-1.05-1.073-.943l-15.143 3.127.665 3.31 8.775-1.81c.942-.196 1.19-.662 1.233-1.208l.564-.117 1.247 6.222z" id="Shape" fill="#FFF"/><path d="M231.938 207.675c-.02-.365-.18-.64-1.385-.655l-.026-.485 11.58-.66.03.49c-1.105.102-1.33.36-1.317.604.023.446 8.752 7.45 12.288 10.388l-.6-10.85c-.025-.488-.42-.67-1.05-.672l-.026-.49 8.796-.5.026.488c-1.2.15-1.326.442-1.305.808l1.046 18.94c.02.365.18.642 1.385.655l.027.487-9.13.52-.03-.488c.866-.048 1.1-.226 1.08-.512-.027-.53-1.258-.988-14.607-12.256l.702 12.763c.02.365.18.643 1.387.657l.027.487-9.13.518-.03-.485c1.196-.15 1.326-.444 1.307-.807l-1.046-18.945z" id="Shape" fill="#FFF"/><path d="M283.866 227.588l.05-.486c.58-.02.735-.126.755-.286.04-.365-6.797-17.652-7.626-19.87-.335-.94-.505-1.16-.98-1.256l.047-.484 9.818 1.07-.052.486c-.77-.04-.98.1-1.01.38-.033.324.583 1.374 5.398 13.04 6.828-10.065 7.718-11.157 7.77-11.642.03-.285-.102-.42-.672-.524l.053-.484 8.234.898-.053.486c-.392.038-.593.1-.773.447-.618 1.244-11.615 17.772-11.673 18.34-.024.203.2.388.632.436l-.058.526-9.858-1.08z" id="Shape" fill="#FFF"/><path d="M335.834 229.29l-.56-.142c-.014-.548-.245-1.027-1.18-1.266l-8.683-2.2-.907 3.67 14.99 3.805c.518.13.75-.02 1.135-.97l.562.138-1.695 6.872-.56-.14c.027-.708-.11-.952-.624-1.082l-23.304-5.91.12-.478c1.184.218 1.394-.024 1.482-.38l4.535-18.402c.086-.356.01-.67-1.135-1.043l.116-.474 23.303 5.912c.512.13.75-.02 1.112-.892l.56.14-1.69 6.87-.56-.142c.082-.943-.055-1.188-.572-1.317l-14.992-3.803-.804 3.278 8.684 2.202c.933.24 1.358-.073 1.63-.552l.556.143-1.518 6.163z" id="Shape" fill="#FFF"/><path d="M364.924 234.17l7.522 3.018c2.64 1.06 3.83.4 4.258-.698.424-1.098.005-2.405-2.636-3.465l-7.52-3.017-1.624 4.163zm-4.042 10.375c-.127.34-.1.66.993 1.184l-.176.453-9.223-3.702.177-.452c1.145.375 1.385.163 1.517-.177l6.875-17.642c.13-.34.104-.66-.99-1.183l.177-.454 16.383 6.575c6.625 2.66 8.677 5.758 6.996 10.075-1.35 3.484-4.76 4.26-8.817 3.642l2.834 8.402c.214.654.542 1.004 1.033 1.203l-.175.455-9.313-3.737.177-.456c.643.215 1.074.168 1.25-.286.134-.34-2.58-7.468-2.85-8.496l-4.385-1.76-2.483 6.357z" fill="#FFF"/></g></svg>