<svg width="512" height="512" viewBox="0 0 512 512" xmlns="http://www.w3.org/2000/svg"><title>detroit-pistons</title><g fill="none" fill-rule="evenodd"><path d="M217.982 284.027c0 11.333-6.818 17.98-20.264 19.74l-.18.02c-8.8.81-15.96 1.598-23.235 2.526l-4.344.544-.1-18.936-.085-2.884v-.012c3.742-.452 6.31-.752 8.195-.985 2.487-.35 4.96-.655 7.454-.962-.023-3.344-.07-12.99-.086-16.27-5.02-1.02-12.562-3.39-16.187-11.49-.085-.17-.143-.355-.214-.552v45.184c-.093.007-.162.024-.23.048v6.93l-3.032.44c-6.083.85-12.416 1.836-19.58 3.035 19.367 13.722 50.255 27.187 98.232 29.904.74-12.354-4.65-25.362-13.116-38.898l-.834.01v-1.332c-3.678-5.743-7.87-11.577-12.393-17.51v1.45z" id="Shape" fill="#ED174C"/><path d="M139.8 227.37c1.602-.277 3.112-.533 4.592-.794v-.332c7.137-1.276 14.007-2.43 21.09-3.477 1.158-.19 2.32-.345 3.454-.522v9.683c.776-2.87 2.274-5.316 4.373-7.262-12.483-18.544-22.44-38.203-24.986-58.907-16.088 18.83-26.73 41.693-31.066 65.956.29-.067.6-.14.896-.19 1.342-.314 3.44-.765 4.458-.992.278-.072.474-.102.555-.136.416-.084.816-.165 1.232-.244 0 0 .062-.012.092-.03.074 0 .133-.018.11-.018.005 0 .023 0 .034.014.255-.05.613-.09.728-.113 4.922-.475 8.12.148 10.19 1.92 0 .007 0 .007.012.007.14.13.29.263.416.406l.07.052c.104.125.23.26.346.403.036.023.047.06.08.102.14.153.268.34.383.533v-5.554l2.94-.505z" id="Shape" fill="#ED174C"/><path d="M120.647 284.177s-.203.058-.526.13c3.082 4.715 8.403 11.587 16.86 18.934-.07-9.942-.094-19.845-.094-29.625-3.223 5.244-8.75 8.916-16.24 10.562" id="Shape" fill="#ED174C"/><path d="M137.023 310.826c-7.506-6.044-13-11.978-16.91-17.01 6.12 22.07 17.63 42.395 33.936 59.343 9.304 9.658 19.783 17.794 31.09 24.283 18.95 3.18 33.738 1.077 43.905-6.374 7.692-5.645 12.562-14.19 14.556-25.385-53.17-2.92-85.873-18.63-105.42-33.948l-1.145.195-.012-1.106z" id="Shape" fill="#ED174C"/><path d="M372.155 310.45c-2.134-.394-4.337-.784-6.6-1.172l-3.972-.72-4.09-.64c-7.684-1.236-15.59-2.348-24.155-3.403l-.95-.116c-4.22 10.845-7.547 21.148-9.542 30.13 22.105-5.424 38.182-14.034 49.31-24.08" id="Shape" fill="#ED174C"/><path d="M368.633 225.58c7.577 1.298 14.87 2.718 22.422 4.296-3.99-20.72-12.578-39.84-24.66-56.248 4.274 14.914 5.848 32.135.995 51.873.387.08.798.142 1.243.22v-.14z" id="Shape" fill="#ED174C"/><path id="Shape" fill="#ED174C" d="M185.89 220.245c0 .017 0 .065.018.125-.017-.028-.017-.094-.017-.125"/><path d="M275.404 206.32c-.076-.013-.157-.025-.23-.03h-.124c-4.1-.553-6.21-2.237-7.327-3.893 0 .292-.02 1.515-.02 1.515-.016.55-.022 1.115-.038 1.665-5.368 0-10.728-.017-16.077-.08.138-9.637.277-19.285.398-28.914-.12.105-.23.217-.376.335-.567.475-1.26.83-2.047 1.115-.115 8.052-.225 15.88-.36 23.972-.37.005-.722.023-1.068.038-.024 1.24-.024 1.998-.024 1.998-.028.506-.046 1.02-.085 1.537-5.35.25-10.71.476-16.066.653 0 0 .295-23.453.323-26.718-.88.05-2.452.13-3.747.196-.018.046-.018.1-.018.148 0 .012-5.477.458-8.438.69-.012.46-.012.9-.012 1.365 2.255-.22 4.378-.427 6.558-.558-.034 3.062-.074 5.98-.104 9.097-.376.023-.752.033-1.116.068 0 .69 0 1.37-.017 2.055-.036.48-.058.974-.082 1.465 0 0-3.267.273-5.424.455-.024.69-.034 1.374-.047 2.067 3.32-.323 6.414-.572 9.588-.844 0 2.486-.045 4.855-.075 7.29-.364.028-.724.062-1.087.085-.024 1.122-.04 2.255-.053 3.382-.618.055-1.25.096-1.884.142-6.755.493-13.614 1.175-21.08 2.043-.838.1-1.67.215-2.52.31.016-1.24.028-2.463.045-3.686-1.595 2.528-4.377 4.265-8.038 4.837-6.02.873-11.815 1.833-18.165 3.06-.937.178-1.85.35-2.77.534 0 0 .324-24.52.353-27.35-1.156-.18-2.204-.53-3.146-1.212-1-.753-2.243-2.19-2.22-4.592.01-.185.033-.373.045-.57 0-.073.01-.136.034-.208.127-.716.254-1.447.382-2.153.4-.084.822-.16 1.238-.256 1.295-.245 2.59-.494 3.897-.73v-.06c8.057-1.61 15.795-2.954 23.98-4.148h.034c2.226-.237 3.77-.107 4.858.398v-1.02c.566-.06 1.122-.125 1.69-.19 1.236-.132 2.456-.25 3.653-.387v-.153c6.12-.7 11.913-1.27 17.928-1.756v-.03c.625-.05 1.237-.09 1.88-.14.365-.027.745-.044 1.105-.067.098-.005.196-.005.29-.02v.013c.692-.043 1.392-.084 2.07-.112v-.035c7.402-.475 14.422-.76 21.952-.872.457 0 .972 0 1.527.006.034.076.034.165.034.266h2.083v-.3c5.032-.033 9.97.027 14.996.17-5.525-25.16-12.325-42.967-19.64-51.397-35.698.36-69.363 14.113-95.184 39.046-1.532 1.49-3.03 3.003-4.476 4.533 1.306 21.54 11.287 41.808 24.532 61.352.6-.287 1.237-.48 1.908-.623 3.205-.838 7.56-1.147 9.843-1.42l-.29.06c.07-.005.13-.018.197-.023.266 0 .544-.073.787-.108 2.96-.386 17.05-1.733 28.337-2.44.208-.01.394-.028.578-.028.93-.08 1.492-.113 1.492-.113l.48-.022c.186 0 .388-.015.584-.026h.04c2.933-.137 5.835-.26 8.74-.36 14.33-.636 28.175-.78 42.655-.47 1.17 0 2.28.077 3.24.077.202.944.202 1.84.202 2.812v.48c0 .945-.122 2.9-.983 5.038 1.45-1.477 3.22-2.718 5.222-3.737-.52-4.84-1.1-9.618-1.718-14.346-1.198-.06-2.4-.106-3.602-.168" id="Shape" fill="#ED174C"/><path d="M206.734 242.436c1.15.373 2.244.713 3.204 1.122 1.567.553 2.568 1.09 3.482 1.69 2.696 1.688 4.1 3.675 4.344 6.285.063 1.003.11 2.54.144 4.664.115 2.243.15 6.08.15 13.108l-.024 4.617c4.373 5.58 8.543 11.102 12.342 16.548v-49.932c-3.678.16-12.71.522-12.71.522v-4.717c-2.684 2.912-6.23 4.592-10.654 4.983 0 0-1.227.102-2.805.25.677.243 1.393.48 2.175.735 0 .126.19.085.352.126" id="Shape" fill="#ED174C"/><path d="M249.645 340.557c10.12.395 20.947.324 32.56-.325 1.237-11.924 1.953-24.967 2.203-38.625-7.68-2.376-14.544-7.382-14.62-18.61v-43c.018-1.53.138-3.002.353-4.397l-.704.64-.092.073c-1.862 1.45-2.544 2.45-5.042 3.068v61.646l-26.868.314c7.996 13.386 12.962 26.457 12.21 39.217" id="Shape" fill="#ED174C"/><path d="M317.06 335.85c2.358-12.12 7.14-26.21 13.155-40.575v-.51c-.723 1.14-1.624 2.217-2.665 3.192-5.465 4.966-14.487 6.86-28.51 5.975-2.685-.215-5.986-.47-9.4-1.072-.23 12.933-.906 25.436-2.064 37.026 10.77-.797 20.583-2.158 29.483-4.035" id="Shape" fill="#ED174C"/><path d="M361.78 226.148v-1.654s.14.03.416.08c6.298-24.844 1.77-45.362-5.725-62.95-24.287-26.295-58.57-43.267-96.89-44.713 8.235 11.953 14.22 32.035 18.414 51.692 3.054.628 4.43 1.904 5.042 4.146 1.863-1.62 4.373-2.323 6.64-2.584.723-.107 1.456-.144 2.185-.156.452-.093.88-.17 1.355-.237 1.89-.255 3.926-.164 6.118.038 3.423.306 7.032.663 9.46 2.373v-.724c1.782.26 3.564.505 5.35.742v-.79c3.36.415 6.553.88 9.96 1.34.514.095 1.04.18 1.612.22 0 .31-.02.605-.02.91.65.097 1.28.204 1.928.312v-.906c7.38 1.115 14.458 2.374 21.78 3.89.555.114 1.022.233 1.55.346 0 .41 0 .776.05 1.204v.244c0 .555-.132 1.976-1.207 3.08-.232 1.314-.96 3.018-3.02 4.21-.486.267-1.03.404-1.584.535-.11 7.732-.232 15.23-.318 23.02-.387-.063-.746-.142-1.117-.194-.012 1.392-.024 2.26-.024 2.26-.034.736-.057 1.466-.08 2.2-5.31-.927-10.63-1.88-15.95-2.86 0 0 .335-24.088.335-26.427-.815-.12-1.665-.256-2.487-.385-.102 7.338-.212 14.6-.334 22.09-.354-.06-.694-.107-1.064-.157 0 .73-.005 1.468-.028 2.198-.023.7-.045 1.382-.064 2.077-5.273-.696-10.525-1.42-15.8-2.168.025-1.316.04-2.64.064-3.957-.282.287-.607.564-.953.813-2.757 1.904-7.25 2.683-13.44 2.208-.142-.01-.305-.016-.45-.033-2.244-.186-6.235-.553-9.288-2.285.59 4.473 1.133 9.06 1.642 13.73 1.047-.285 2.153-.54 3.314-.737.046 0 .098-.01.144-.01 1.197-.363 2.476-.66 3.84-.885 3.39-.56 7.265-.617 12.908-.225l.034.005c9.802.764 19.854 1.58 24.127 9.856v-5.87l6.24-.217c1.707-.05 3.702.074 5.854.425 5.24.316 12.672 2.333 18.598 7.976.304-1.04.61-2.07.888-3.092" id="Shape" fill="#ED174C"/><path d="M324.08 363.397c3.145 3.784 9.038 4.317 17.458 1.64 3.24-2.613 6.39-5.36 9.415-8.292 13.336-12.862 23.74-27.963 30.946-44.447-1.082-.21-2.157-.43-3.244-.637-12.197 12.162-30.675 22.546-56.92 28.63-1.74 10.57-1.236 18.79 2.344 23.107" id="Shape" fill="#ED174C"/><path d="M319.974 366.817c-4.425-5.33-5.36-14.278-3.857-25.327-8.86 1.773-18.557 3.06-29.12 3.795-2.398 20.52-6.412 37.814-12.392 49.044 20.64-2.99 40.204-10.592 57.46-22.298-5.163-.053-9.23-1.768-12.09-5.215" id="Shape" fill="#ED174C"/><path d="M248.962 345.94c-2.163 12.775-7.9 22.94-16.753 29.458-8.594 6.287-19.9 9.23-33.723 8.814 16.597 7.272 34.623 11.253 53.286 11.6 5.465.093 10.862-.156 16.21-.672 6.495-9.71 10.983-27.424 13.643-49.506-11.635.612-22.51.68-32.664.305" id="Shape" fill="#ED174C"/><path d="M408.93 280.672c-2.145-1.16-4.353-2.45-6.435-4.005-.798 5.934-1.973 12.24-3.448 17.917l1.01.237v-.045c3.055.737 5.97 1.408 8.918 2.104.012-1.647.012-4.006.012-6.045 0-3.806-.015-7.792-.056-10.163" id="Shape" fill="#0067B1"/><path d="M106.408 234.243c11.022-73.13 74.845-129.176 150.605-127.8 73.69 1.347 134.128 56.135 145.1 126.736 2.207-.274 4.707-.083 7.482.604v.017c.186.06 1.858.5 2.13.566.046.012.12.024.186.034h-.035c.782.203 1.76.452 2.846.73-4.44-34.18-19.627-65.965-44.02-91.3-30.02-31.2-70.3-48.814-113.46-49.606-83.65-1.528-153.822 61.74-163.554 143.24 2.18-.577 4.39-1.14 6.57-1.687 2.07-.544 4.105-1.06 6.152-1.534" id="Shape" fill="#0067B1"/><path d="M393.5 314.68v-3.495c0 .007-.016.007-.016.03v3.465l-1.296-.28c-23.09 54.792-77.737 92.903-140.61 91.75-68.185-1.24-125.507-49.073-142.296-112.04v17.197c-.017.007-.017.007-.03.007v6.048l-2.254.574c-.706.156-1.4.33-2.094.486 23.953 57.642 80.258 98.742 146.452 99.935 43.147.8 84.047-15.337 115.193-45.422 16.597-16.056 29.338-35.01 37.752-55.776-2.596-.62-5.234-1.216-8.08-1.86l-2.72-.62z" id="Shape" fill="#0067B1"/><path d="M218.023 275.48l-.04 7.1c4.522 5.93 8.714 11.765 12.392 17.508v-9.62c-3.8-5.445-7.97-10.968-12.342-16.548l-.01 1.56z" id="Shape" fill="#FFF"/><path d="M381.9 312.298c-7.207 16.484-17.61 31.585-30.947 44.447-3.025 2.932-6.176 5.68-9.415 8.292-8.42 2.677-14.31 2.144-17.458-1.64-3.58-4.316-4.084-12.538-2.343-23.107 26.243-6.085 44.72-16.468 56.92-28.63-2.124-.412-4.28-.806-6.502-1.213-11.127 10.048-27.204 18.658-49.307 24.082 1.994-8.983 5.32-19.285 9.543-30.13l-2.175-.256v-8.87c-6.014 14.363-10.797 28.455-13.156 40.576-8.902 1.878-18.716 3.24-29.484 4.033 1.158-11.59 1.834-24.093 2.065-37.026-1.74-.3-3.504-.718-5.233-1.25-.25 13.656-.965 26.7-2.204 38.624-11.612.65-22.438.72-32.56.326.753-12.76-4.215-25.83-12.213-39.216l-6.223.07c8.466 13.535 13.856 26.543 13.116 38.897-47.977-2.717-78.865-16.183-98.233-29.904-1.612.26-3.272.538-4.986.835l-2.926.5c19.548 15.318 52.252 31.027 105.422 33.947-1.995 11.194-6.864 19.74-14.556 25.384-10.167 7.452-24.955 9.554-43.906 6.373-11.306-6.49-21.785-14.625-31.09-24.284-16.31-16.95-27.818-37.275-33.935-59.345 3.91 5.035 9.403 10.967 16.91 17.01l-.035-3.04c0-1.52-.012-3.026-.012-4.544-8.454-7.346-13.775-14.22-16.858-18.934-2.787.614-8.94 1.935-10.838 2.346v7.359c17.078 62.556 74.406 110.898 142.296 112.138 62.873 1.153 117.52-36.957 140.61-91.748l-2.942-.62c-2.45-.515-4.887-1.003-7.345-1.482M251.772 395.81c-18.663-.346-36.688-4.328-53.286-11.6 13.82.417 25.127-2.526 33.722-8.814 8.852-6.518 14.59-16.68 16.752-29.458 10.155.376 21.03.307 32.663-.307-2.66 22.084-7.148 39.797-13.642 49.507-5.348.518-10.745.767-16.21.674m22.832-1.482c5.98-11.23 9.994-28.526 12.393-49.044 10.56-.737 20.26-2.022 29.12-3.795-1.504 11.05-.57 19.995 3.856 25.325 2.862 3.448 6.928 5.162 12.092 5.215-17.256 11.706-36.82 19.308-57.46 22.298" id="Shape" fill="#FFF"/><path d="M281.856 203.3c-.023.51-.023.998-.034 1.503v1.807c-.936-.047-1.88-.08-2.816-.122.62 4.728 1.198 9.508 1.718 14.346 1.538-.773 3.243-1.42 5.11-1.912-.508-4.67-1.052-9.256-1.64-13.73-.88-.51-1.69-1.126-2.338-1.89" id="Shape" fill="#FFF"/><path d="M393.484 266.02v45.194c0-.024.017-.024.017-.03v-17.908l5.547 1.31c1.475-5.68 2.648-11.984 3.448-17.918-3.563-2.653-6.803-6.032-9.01-10.65" id="Shape" fill="#FFF"/><path d="M360.895 229.242c.296.283.596.567.885.864v-3.958c-.277 1.022-.584 2.053-.885 3.094" id="Shape" fill="#FFF"/><path d="M148.324 165.76c2.546 20.703 12.504 40.362 24.984 58.904 1.25-1.155 2.683-2.21 4.384-2.93-13.243-19.543-23.226-39.81-24.532-61.35 1.445-1.53 2.943-3.043 4.476-4.533 25.82-24.932 59.486-38.685 95.185-39.04 7.316 8.43 14.116 26.236 19.64 51.395 1.34.046 2.713.086 4.07.136h.087c.035 0 .082.03.11.03.468.067.873.14 1.267.232-4.193-19.657-10.18-39.74-18.414-51.69 38.32 1.445 72.603 18.417 96.89 44.712 7.496 17.588 12.024 38.106 5.726 62.95.788.14 2.684.474 5.194.928 4.853-19.74 3.28-36.958-.995-51.873 12.08 16.41 20.67 35.527 24.66 56.248.666.14 1.307.277 1.984.414v.095l.445.096v8.24c.868-1.57 2.058-2.87 3.568-3.833 1.464-.92 3.153-1.477 5.06-1.71-10.97-70.6-71.41-125.388-145.1-126.734-75.758-1.376-139.58 54.67-150.604 127.8.393-.085.792-.192 1.184-.278.903-.22 1.805-.44 2.725-.66 2.3-.546 4.608-1.12 6.94-1.62 4.335-24.26 14.976-47.085 31.064-65.93" id="Shape" fill="#FFF"/><path d="M109.253 317.36v-6.048c-8.402 1.982-16.75 4.005-25.15 6.392v-61.67c-6.172.973-8.89-1.384-10.07-3.222-.555-.94-1.394-3.18-1.434-5.4.04-1.275.316-2.465 1.08-3.434.353-.423.607-.808 1.013-1.24 6.06-1.77 12.046-3.435 17.968-5.015-7.233 1.852-14.62 4.048-22.362 6.255l-1.04.295s-3.743 3.26-3.622 7.626v.176c.034 2.758 1.053 4.833 1.978 6.333 1.26 1.97 4.065 4.79 9.634 5.046v62.034l4.476-1.245c7.843-2.19 15.708-4.084 23.18-5.823.693-.156 1.388-.33 2.094-.487l2.255-.574z" id="Shape" fill="#002D62"/><path d="M100.254 235.78c2.17-.557 4.337-1.09 6.512-1.62-.126.037-.243.06-.358.083-2.047.474-4.083.99-6.154 1.536" id="Shape" fill="#002D62"/><path d="M120.647 284.177c7.49-1.646 13.018-5.32 16.24-10.563 0 9.78.023 19.684.092 29.626 0 1.517.01 3.024.01 4.543l.035 3.042.012 1.106 1.144-.194 2.927-.5c1.712-.296 3.372-.574 4.986-.834 7.166-1.2 13.498-2.185 19.58-3.036l3.032-.44v-6.93c-8.132 1.176-16.05 2.474-24.186 3.882-.21-26.115-.082-51.19-.128-77.302-1.48.26-2.99.517-4.592.795l-2.937.505v5.554c2.614 3.91 2.52 11.118 2.52 22.044 0 .487-.033.938-.033 1.414v1.14c-.076 10.106-6.107 16.857-16.476 19.175-4.58.986-8.982 1.98-13.59 3.072v6.378c2.96-.642 9.12-1.97 10.837-2.346.324-.072.527-.13.527-.13" id="Shape" fill="#002D62"/><path d="M118.154 231.525c1.555-.362 3.123-.712 4.702-1.063-.07.03-.163.05-.244.072-1.017.225-3.116.678-4.458.99" id="Shape" fill="#002D62"/><path d="M361.78 226.148v3.958c2.55 2.653 4.77 6.023 6.315 10.308.17.6.37 1.09.538 1.727v-16.417c-.445-.078-.856-.14-1.243-.22-2.51-.455-4.406-.787-5.194-.93-.277-.05-.416-.078-.416-.078v1.653z" id="Shape" fill="#002D62"/><path d="M444.473 248.844v-.182c0 .296.006.6.006.895 0 .076-.615 2.842-2.182 4.427-2.082 2.462-5.256 3.135-9.304 2.01-4.007-1.077-7.963-2.128-11.97-3.22v1.726c0 2.52 1.93 4.432 5.17 6.803l2.683.72c7.125 1.98 11.045-1.084 12.758-3.106-.06.064-.104.127-.17.186l.187-.204c-.017 0-.017.01-.017.018 0-.007.017-.02.017-.02 2.215-2.397 2.916-5.92 2.916-6.746l-.095-3.308z" id="Shape" fill="#002D62"/><path d="M409.594 233.785c-2.775-.686-5.274-.878-7.483-.605-1.907.232-3.596.79-5.06 1.71-1.51.96-2.7 2.262-3.567 3.832v-8.24l-.446-.096v77.63c-7.872-1.705-15.483-3.164-23.578-4.585 0 0-4.36-10.724-8.016-19.635v18.252c-8.028-1.314-15.996-2.432-24.053-3.44V221.266c.944-.035 2.753-.04 2.753-.04.677-.022 1.393 0 2.153.04-2.153-.352-4.148-.475-5.853-.427l-6.24.218v5.87c1.3 2.57 2.104 5.83 2.14 10.038v43.353s-.047 1.795-.047 1.847c-.05 3.842-1.416 7.04-4.036 9.485-4.592 4.253-12.96 5.933-25.625 5.122-10.208-.793-25.626-2-25.736-17.592V235.81c.082-9.324 4.135-15.127 12.393-17.636-.045 0-.098.01-.144.01-1.163.198-2.267.454-3.315.738-1.868.493-3.573 1.14-5.11 1.912-2.003 1.02-3.772 2.26-5.223 3.737-.654 1.566-1.683 3.234-3.383 4.672-2.13 1.69-4.778 2.633-7.856 2.922v61.643c-8.477-.08-16.65 0-25.098.29V232.62c-4.413.107-8.35.29-12.59.516V216.81c1.273-.073 2.534-.124 3.812-.176-2.902.098-5.806.223-8.738.36 0 .937.236 1.763.236 2.693 0 .644.082 1.2.082 1.8 0 .605-.082 1.132-.082 1.642v.118c0 .05-.045.072-.045.072 0 .562-.474 2.562-1.838 4.763-2.128 3.334-5.24 5.17-9.496 5.548-4.013.29-7.934.628-11.99 1.047v1.683c.03 2.712 2.176 3.94 5.692 5.215 1.58-.148 2.806-.25 2.806-.25 4.423-.39 7.97-2.07 10.653-4.982v4.717s9.033-.362 12.71-.522v60.884l.834-.012 6.224-.07 26.868-.312v-61.646c2.498-.617 3.18-1.615 5.042-3.067l.092-.074c.243-.22.473-.43.705-.638-.212 1.393-.334 2.866-.352 4.395v43c.076 11.23 6.94 16.237 14.62 18.61 1.73.535 3.494.953 5.235 1.253 3.41.603 6.713.857 9.397 1.072 14.024.887 23.046-1.01 28.51-5.975 1.042-.974 1.943-2.05 2.667-3.193V304.144l2.175.257.948.116c8.566 1.055 16.47 2.166 24.157 3.402l4.09.642 3.972.72c2.26.388 4.463.777 6.598 1.17 2.22.406 4.378.8 6.5 1.212 1.087.21 2.162.43 3.244.637 2.458.48 4.892.966 7.344 1.483l2.943.62 1.295.28V266.02c2.208 4.618 5.448 7.997 9.01 10.65 2.083 1.554 4.29 2.845 6.437 4.004.04 2.37.058 6.358.058 10.163 0 2.04 0 4.398-.012 6.044 2.17.5 4.35 1.02 6.633 1.565 0-4.497.083-20.222-.126-22.54 0-.092-.208-.12-.29-.162-.15-.08-.406-.19-.555-.26-5.727-2.968-12.546-7.162-15.673-15.257-.776-1.977-.867-5.123-.926-8.43-.08-4.582.724-11.155.724-11.726 1.158-5.113 5.766-7.422 12.96-5.7-.27-.068-1.943-.506-2.13-.566v-.02z" id="Shape" fill="#002D62"/><path d="M411.8 234.396c.247.08 1.663.423 3.81.967-.3-.072-.602-.14-.89-.232-1.088-.277-2.065-.526-2.847-.73-.028 0-.057 0-.074-.004" id="Shape" fill="#002D62"/><path d="M441.842 242.525l-.67-.197c.73.22 1.456.48 2.19.72l-1.52-.523z" id="Shape" fill="#002D62"/><path id="Shape" fill="#002D62" d="M444.29 243.368h-.013c0 1.28.087 2.562.144 3.862l-.13-3.862z"/><path id="Shape" fill="#002D62" d="M440.287 277.642c.017.278.023.562.034.864.002-.285.018-.574-.033-.864"/><path d="M440.402 308.45s-.08 1.12-.51 1.953c-2.533 4.874-7.9 6.513-16.4 4.676.046 0-.028-.03-.028-.03-8.074-2.11-15.36-3.904-23.406-5.696V294.82l-1.01-.236-5.547-1.31v21.405l2.726.62c2.844.642 5.48 1.24 8.08 1.858 4.897 1.16 9.604 2.354 15.116 3.778l.064.024.11.052c12.445 2.7 17.597-2.045 19.906-6.49.7-1.354.872-2.878.9-3.307l.02-.133.027-5.325.05-10.43c0-.498 0-1.113-.004-1.768-.007 6.067-.093 11.872-.093 14.78v.11z" id="Shape" fill="#002D62"/><path d="M112.446 248.844c-.76.186-1.562.345-2.314.452-.41.113-.776.148-1.134.26v16.452c1.722-.417 3.365-.795 5.094-1.172 0-1.912-.074-14.573-.074-15.06-.41-.903-.612-1.08-1.572-.932" id="Shape" fill="#002D62"/><path d="M303.207 234.38l-.09-.013h-.07c-.14-.03-.28-.03-.41-.03-.077.547-.123 1.1-.123 1.655v.226l-.034.215c-.057.538-.086 1.12-.086 1.72v1.228l.04 1.18V271.454c-.04.614-.04 1.148-.04 1.61 0 2.33.515 2.92 3.87 3.198l.676.03h.202c0-.422.076-2.277.076-2.277v-30.42c0-3.882 0-7.24-.556-8.36-.25-.48-2.008-.73-3.455-.854" id="Shape" fill="#002D62"/><path id="Shape" fill="#002D62" d="M192.977 259.738"/><path d="M169.15 255.317c3.625 8.1 11.167 10.47 16.187 11.49.034 3.8.07 13.438.086 16.27 2.527-.265 5.06-.556 7.674-.856 0-7.6-.122-14.863-.122-22.48-.064.005-.277.005-.277-.076-.19-.03-.358-.065-.555-.065-5.743-.974-12.543-2.712-15.678-9.668-.752-1.726-.914-4.8-.914-8.164 0-4.468.302-9.086.516-10.462v.267c0-.603.203-1.174.203-1.732 1.006-4.68 4.43-7.984 9.64-9.44.023 0 .04-.01.064-.022 1-.273 2.06-.488 3.18-.623l.29-.06c-2.285.273-6.64.582-9.843 1.42-.705.17-1.352.39-1.907.623-1.7.718-3.134 1.773-4.384 2.93-2.1 1.945-3.598 4.392-4.374 7.262v22.838c.068.195.126.38.214.55m16.758-34.947c-.017-.06-.017-.106-.017-.123 0 .03 0 .095.018.124" id="Shape" fill="#002D62"/><path d="M169.773 285.034l.087 2.886.098 18.935 4.344-.544c7.274-.926 14.434-1.715 23.235-2.525l.18-.018c13.445-1.762 20.264-8.41 20.264-19.742v-1.446l.04-7.1.013-1.558.024-4.617c0-7.028-.034-10.865-.15-13.108.045 2.34.045 5.407.045 9.277 0 4.16-.08 8.925-.08 14.735 0 11.49-7.715 14.826-16.876 15.886.045-.005-.036 0-.036 0-8.05.732-15.516 1.524-23.364 2.544 0-4.913-.093-9.665-.093-14.544l.284-.034c-4.064.486-8.014.972-8.014.972" id="Shape" fill="#002D62"/><path d="M271.47 177.597v-.26c.047-1.585-.22-1.88-.264-1.913-.186-.12-.938-.148-1.574-.14h-.196c-.08 0-.14-.025-.225-.025-.04 2.32-.04 4.568-.07 6.907.712-.012 1.393.023 2.11.052.082-.073.082-.15.082-.22v-.036c0-.148.034-.29.034-.443.105-.96.083-1.217.105-2.7v-1.223z" id="Shape" fill="#ED174C"/><path d="M271.47 177.597v-.26c.047-1.585-.22-1.88-.264-1.913-.186-.12-.938-.148-1.574-.14h-.196c-.08 0-.14-.025-.225-.025-.04 2.32-.04 4.568-.07 6.907.712-.012 1.393.023 2.11.052.082-.073.082-.15.082-.22v-.036c0-.148.034-.29.034-.443.105-.96.083-1.217.105-2.7v-1.223z" id="Shape" fill="#002D62"/><path d="M272.27 198.335c-.117-.144-.197-.377-.227-2.326 0-.233-.03-.412-.03-.673-.08-1.4-.114-4.326-.08-5.322 0-.368.08-1.448-2.678-1.53h-.226c-.082 4.56-.122 8.878-.192 13.427-3.997-.093-7.9-.116-11.86-.053.144-11.352.334-22.204.485-33.524h-2.082c.046.307.058.634.058.942v.226c0 .6-.15 2.16-1.34 3.537-.278 1.104-.862 2.408-2.112 3.544-.12 9.63-.26 19.277-.398 28.913 5.35.064 10.71.082 16.077.082.017-.552.024-1.117.04-1.667 0 0 .018-1.223.018-1.515 1.117 1.656 3.226 3.34 7.327 3.893h.123c.074.007.155.018.23.03 1.203.06 2.406.108 3.603.168-.16-1.295-.346-2.62-.53-3.912-3.316-.503-5.433-1.94-6.207-4.24" id="Shape" fill="#ED174C"/><path d="M272.27 198.335c-.117-.144-.197-.377-.227-2.326 0-.233-.03-.412-.03-.673-.08-1.4-.114-4.326-.08-5.322 0-.368.08-1.448-2.678-1.53h-.226c-.082 4.56-.122 8.878-.192 13.427-3.997-.093-7.9-.116-11.86-.053.144-11.352.334-22.204.485-33.524h-2.082c.046.307.058.634.058.942v.226c0 .6-.15 2.16-1.34 3.537-.278 1.104-.862 2.408-2.112 3.544-.12 9.63-.26 19.277-.398 28.913 5.35.064 10.71.082 16.077.082.017-.552.024-1.117.04-1.667 0 0 .018-1.223.018-1.515 1.117 1.656 3.226 3.34 7.327 3.893h.123c.074.007.155.018.23.03 1.203.06 2.406.108 3.603.168-.16-1.295-.346-2.62-.53-3.912-3.316-.503-5.433-1.94-6.207-4.24" id="Shape" fill="#002D62"/><path d="M278.797 202.617c0-.03-.027 0-.076 0-.08-.012-.16-.024-.246-.04.186 1.29.37 2.616.53 3.91.94.042 1.882.076 2.817.123v-1.81c.013-.503.013-.99.035-1.5-.173-.185-.335-.38-.473-.59-.855-.02-1.71-.053-2.585-.093" id="Shape" fill="#FFF"/><path d="M278.797 202.617c0-.03-.027 0-.076 0-.08-.012-.16-.024-.246-.04.186 1.29.37 2.616.53 3.91.94.042 1.882.076 2.817.123v-1.81c.013-.503.013-.99.035-1.5-.173-.185-.335-.38-.473-.59-.855-.02-1.71-.053-2.585-.093" id="Shape" fill="#002D62"/><path d="M311.71 178.564c-.092 6.325-.192 12.354-.278 18.68 0 .253-.034.525-.034.78-.047 1.247-.487 2.305-1.262 3.15-.244 1.272-.856 2.393-1.81 3.317-.024 1.32-.04 2.643-.063 3.958 5.273.747 10.525 1.472 15.8 2.168.017-.696.04-1.376.063-2.077.023-.73.027-1.468.027-2.197-3.5-.51-6.933-.99-10.502-1.382.152-11.08.343-21.685.493-32.762-1.786-.237-3.568-.48-5.35-.742v.725c1.772 1.234 2.916 3.18 2.916 6.384" id="Shape" fill="#ED174C"/><path d="M311.71 178.564c-.092 6.325-.192 12.354-.278 18.68 0 .253-.034.525-.034.78-.047 1.247-.487 2.305-1.262 3.15-.244 1.272-.856 2.393-1.81 3.317-.024 1.32-.04 2.643-.063 3.958 5.273.747 10.525 1.472 15.8 2.168.017-.696.04-1.376.063-2.077.023-.73.027-1.468.027-2.197-3.5-.51-6.933-.99-10.502-1.382.152-11.08.343-21.685.493-32.762-1.786-.237-3.568-.48-5.35-.742v.725c1.772 1.234 2.916 3.18 2.916 6.384" id="Shape" fill="#002D62"/><path d="M249.61 175.204c-.017.962-.034 1.895-.047 2.83.787-.284 1.48-.64 2.047-1.114.144-.12.254-.232.376-.336.017-.684.024-1.347.04-2.036-.738.326-1.55.558-2.416.656" id="Shape" fill="#ED174C"/><path d="M249.61 175.204c-.017.962-.034 1.895-.047 2.83.787-.284 1.48-.64 2.047-1.114.144-.12.254-.232.376-.336.017-.684.024-1.347.04-2.036-.738.326-1.55.558-2.416.656" id="Shape" fill="#002D62"/><path id="Shape" fill="#ED174C" d="M229.508 169.088c-.358.024-.74.04-1.105.067-.643.052-1.255.093-1.88.14v.03c.544-.05 1.094-.095 1.648-.136.442-.023.91-.073 1.338-.102"/><path id="Shape" fill="#002D62" d="M229.508 169.088c-.358.024-.74.04-1.105.067-.643.052-1.255.093-1.88.14v.03c.544-.05 1.094-.095 1.648-.136.442-.023.91-.073 1.338-.102"/><path d="M237.697 175.728c-2.013.125-3.932.235-5.934.38.035-2.393.076-4.716.104-7.138-.676.03-1.376.07-2.07.113-.035 2.395-.08 4.698-.08 7.048-.366.036-.73.058-1.106.082 0 .73 0 1.46-.023 2.19-.023.435-.04.872-.052 1.306 1.295-.067 2.868-.148 3.747-.196-.03 3.265-.324 26.718-.324 26.718 5.354-.177 10.716-.404 16.065-.653.04-.516.058-1.03.087-1.536 0 0 0-.757.023-1.997-3.632.105-7.212.244-10.79.493.117-9.098.227-17.72.354-26.808" id="Shape" fill="#ED174C"/><path d="M237.697 175.728c-2.013.125-3.932.235-5.934.38.035-2.393.076-4.716.104-7.138-.676.03-1.376.07-2.07.113-.035 2.395-.08 4.698-.08 7.048-.366.036-.73.058-1.106.082 0 .73 0 1.46-.023 2.19-.023.435-.04.872-.052 1.306 1.295-.067 2.868-.148 3.747-.196-.03 3.265-.324 26.718-.324 26.718 5.354-.177 10.716-.404 16.065-.653.04-.516.058-1.03.087-1.536 0 0 0-.757.023-1.997-3.632.105-7.212.244-10.79.493.117-9.098.227-17.72.354-26.808" id="Shape" fill="#002D62"/><path d="M254.1 173.04c-.233.255-.476.51-.79.746-.37.302-.815.55-1.282.76-.017.69-.023 1.353-.04 2.037 1.248-1.135 1.832-2.44 2.11-3.544" id="Shape" fill="#ED174C"/><path d="M254.1 173.04c-.233.255-.476.51-.79.746-.37.302-.815.55-1.282.76-.017.69-.023 1.353-.04 2.037 1.248-1.135 1.832-2.44 2.11-3.544" id="Shape" fill="#002D62"/><path d="M254.1 173.04c-.233.255-.476.51-.79.746-.37.302-.815.55-1.282.76-.017.69-.023 1.353-.04 2.037 1.248-1.135 1.832-2.44 2.11-3.544" id="Shape" fill="#002D62"/><path d="M345.228 183.323c0 1.17-.012 2.31-.034 3.47.556-.13 1.1-.268 1.585-.534 2.057-1.194 2.787-2.898 3.018-4.213-.248.255-.526.504-.88.72-1.012.537-2.22.73-3.69.556" id="Shape" fill="#ED174C"/><path d="M345.228 183.323c0 1.17-.012 2.31-.034 3.47.556-.13 1.1-.268 1.585-.534 2.057-1.194 2.787-2.898 3.018-4.213-.248.255-.526.504-.88.72-1.012.537-2.22.73-3.69.556" id="Shape" fill="#002D62"/><path d="M328.042 184.794c0 2.338-.337 26.43-.337 26.43 5.32.978 10.642 1.932 15.95 2.858.025-.736.047-1.466.082-2.2 0 0 .012-.868.024-2.262-3.573-.677-7.044-1.283-10.675-1.892.117-8.95.232-17.476.348-26.422-2.013-.333-3.875-.65-5.87-.957.018-2.066.052-4.112.064-6.16-.647-.108-1.28-.215-1.927-.313-.045 3.54-.09 7.037-.143 10.53.818.132 1.67.268 2.485.387" id="Shape" fill="#ED174C"/><path d="M328.042 184.794c0 2.338-.337 26.43-.337 26.43 5.32.978 10.642 1.932 15.95 2.858.025-.736.047-1.466.082-2.2 0 0 .012-.868.024-2.262-3.573-.677-7.044-1.283-10.675-1.892.117-8.95.232-17.476.348-26.422-2.013-.333-3.875-.65-5.87-.957.018-2.066.052-4.112.064-6.16-.647-.108-1.28-.215-1.927-.313-.045 3.54-.09 7.037-.143 10.53.818.132 1.67.268 2.485.387" id="Shape" fill="#002D62"/><path d="M208.596 171.236c-1.197.136-2.417.254-3.654.385-.567.068-1.122.132-1.69.193v1.02c2.535 1.188 2.46 4.473 2.373 10.217-.076 4.984-.146 9.796-.186 14.778-.048 1.883-.586 3.537-1.528 4.89-.26.93-.63 1.778-1.14 2.564-.016 1.223-.028 2.446-.045 3.685.85-.095 1.684-.208 2.522-.31 7.465-.865 14.324-1.55 21.078-2.042.637-.047 1.268-.086 1.885-.14.012-1.128.03-2.262.052-3.382-6.76.498-13.388 1.182-20.154 2.022.15-11.445.336-22.41.486-33.88" id="Shape" fill="#ED174C"/><path d="M208.596 171.236c-1.197.136-2.417.254-3.654.385-.567.068-1.122.132-1.69.193v1.02c2.535 1.188 2.46 4.473 2.373 10.217-.076 4.984-.146 9.796-.186 14.778-.048 1.883-.586 3.537-1.528 4.89-.26.93-.63 1.778-1.14 2.564-.016 1.223-.028 2.446-.045 3.685.85-.095 1.684-.208 2.522-.31 7.465-.865 14.324-1.55 21.078-2.042.637-.047 1.268-.086 1.885-.14.012-1.128.03-2.262.052-3.382-6.76.498-13.388 1.182-20.154 2.022.15-11.445.336-22.41.486-33.88" id="Shape" fill="#002D62"/><path d="M219.885 194.493c2.157-.182 5.424-.455 5.424-.455.023-.49.045-.984.08-1.465.017-.684.017-1.365.017-2.055-1.793.12-3.58.3-5.477.493 0 1.177-.033 2.334-.045 3.483" id="Shape" fill="#ED174C"/><path d="M219.885 194.493c2.157-.182 5.424-.455 5.424-.455.023-.49.045-.984.08-1.465.017-.684.017-1.365.017-2.055-1.793.12-3.58.3-5.477.493 0 1.177-.033 2.334-.045 3.483" id="Shape" fill="#002D62"/><path d="M226.42 176.386c-2.082.16-4.13.338-6.27.545-.033 1.206-.057 2.406-.07 3.617 2.963-.232 8.44-.678 8.44-.69 0-.047 0-.102.017-.147-1.203.057-2.175.118-2.175.118.012-1.154.046-2.31.058-3.442" id="Shape" fill="#ED174C"/><path d="M226.42 176.386c-2.082.16-4.13.338-6.27.545-.033 1.206-.057 2.406-.07 3.617 2.963-.232 8.44-.678 8.44-.69 0-.047 0-.102.017-.147-1.203.057-2.175.118-2.175.118.012-1.154.046-2.31.058-3.442" id="Shape" fill="#002D62"/><path d="M228.612 176.212c-.74.055-1.464.122-2.192.174-.012 1.132-.046 2.288-.058 3.442 0 0 .972-.06 2.175-.118.012-.436.03-.873.053-1.307.022-.73.022-1.46.022-2.19" id="Shape" fill="#ED174C"/><path d="M228.612 176.212c-.74.055-1.464.122-2.192.174-.012 1.132-.046 2.288-.058 3.442 0 0 .972-.06 2.175-.118.012-.436.03-.873.053-1.307.022-.73.022-1.46.022-2.19" id="Shape" fill="#002D62"/><path d="M228.612 176.212c-.74.055-1.464.122-2.192.174-.012 1.132-.046 2.288-.058 3.442 0 0 .972-.06 2.175-.118.012-.436.03-.873.053-1.307.022-.73.022-1.46.022-2.19" id="Shape" fill="#002D62"/><path d="M193.653 181.572c-.012-.034-.012-.072 0-.072 0-.45-.122-.98-.306-1.06-.185-.05-.648-.018-1.96.205-.077 6.647-.15 13.008-.256 19.646.828-.18 1.54-.248 2.372-.396.03-3.324.186-7.418.22-11.036.034-3.477.115-6.284-.034-7.217 0-.033-.035-.045-.035-.068" id="Shape" fill="#ED174C"/><path d="M193.653 181.572c-.012-.034-.012-.072 0-.072 0-.45-.122-.98-.306-1.06-.185-.05-.648-.018-1.96.205-.077 6.647-.15 13.008-.256 19.646.828-.18 1.54-.248 2.372-.396.03-3.324.186-7.418.22-11.036.034-3.477.115-6.284-.034-7.217 0-.033-.035-.045-.035-.068" id="Shape" fill="#002D62"/><path d="M197.493 206.522c-6.212.93-12.092 1.964-18.332 3.143.15-9.167.278-17.913.383-27.04-1.736.05-2.945-.296-3.91-.98-1.354-1-1.51-2.447-1.51-3.272 0-.296.03-.54.03-.59.115-.38.126-.728.23-1.144-1.306.236-2.602.487-3.897.73-.416.095-.838.17-1.237.255-.128.706-.255 1.436-.383 2.153-.024.072-.035.136-.035.208-.012.197-.034.385-.046.57-.024 2.402 1.22 3.84 2.22 4.592.944.682 1.99 1.03 3.146 1.21-.028 2.832-.353 27.353-.353 27.353.92-.185 1.832-.355 2.77-.532 6.35-1.228 12.144-2.19 18.165-3.06 3.66-.573 6.44-2.31 8.038-4.837 0-.422.02-.836.024-1.25-1.35 1.264-3.14 2.125-5.304 2.492" id="Shape" fill="#ED174C"/><path d="M197.493 206.522c-6.212.93-12.092 1.964-18.332 3.143.15-9.167.278-17.913.383-27.04-1.736.05-2.945-.296-3.91-.98-1.354-1-1.51-2.447-1.51-3.272 0-.296.03-.54.03-.59.115-.38.126-.728.23-1.144-1.306.236-2.602.487-3.897.73-.416.095-.838.17-1.237.255-.128.706-.255 1.436-.383 2.153-.024.072-.035.136-.035.208-.012.197-.034.385-.046.57-.024 2.402 1.22 3.84 2.22 4.592.944.682 1.99 1.03 3.146 1.21-.028 2.832-.353 27.353-.353 27.353.92-.185 1.832-.355 2.77-.532 6.35-1.228 12.144-2.19 18.165-3.06 3.66-.573 6.44-2.31 8.038-4.837 0-.422.02-.836.024-1.25-1.35 1.264-3.14 2.125-5.304 2.492" id="Shape" fill="#002D62"/><path d="M202.795 204.03c-.005.415-.023.83-.023 1.252.51-.785.88-1.634 1.14-2.564-.324.482-.694.913-1.117 1.313" id="Shape" fill="#ED174C"/><path d="M202.795 204.03c-.005.415-.023.83-.023 1.252.51-.785.88-1.634 1.14-2.564-.324.482-.694.913-1.117 1.313" id="Shape" fill="#002D62"/><path d="M202.795 204.03c-.005.415-.023.83-.023 1.252.51-.785.88-1.634 1.14-2.564-.324.482-.694.913-1.117 1.313" id="Shape" fill="#002D62"/><path d="M283.46 180.96c0 .22-.07.403-.07.624v.487c-.024 1.803-.468 3.08-1.48 4.23-.04.155-.1.312-.17.47.79 1.032 1.365 2.315 1.365 3.425-.023 2.237-.045 4.395-.08 6.56.41 2.755.802 5.58 1.17 8.438 3.05 1.733 7.042 2.1 9.286 2.286.145.016.308.022.453.033 6.188.476 10.682-.304 13.44-2.208.347-.25.67-.527.952-.814.007-.657.024-1.327.03-1.98-2.343 1.205-6.004 1.636-10.874 1.277-3.95-.328-12.074-.736-12.143-7.744.11-6.32.186-12.388.254-18.707.11-4.053 2.14-6.463 6.27-7.33-.73.013-1.463.05-2.186.157-2.267.26-4.777.964-6.64 2.584.517 1.947.453 4.6.426 8.214" id="Shape" fill="#ED174C"/><path d="M283.46 180.96c0 .22-.07.403-.07.624v.487c-.024 1.803-.468 3.08-1.48 4.23-.04.155-.1.312-.17.47.79 1.032 1.365 2.315 1.365 3.425-.023 2.237-.045 4.395-.08 6.56.41 2.755.802 5.58 1.17 8.438 3.05 1.733 7.042 2.1 9.286 2.286.145.016.308.022.453.033 6.188.476 10.682-.304 13.44-2.208.347-.25.67-.527.952-.814.007-.657.024-1.327.03-1.98-2.343 1.205-6.004 1.636-10.874 1.277-3.95-.328-12.074-.736-12.143-7.744.11-6.32.186-12.388.254-18.707.11-4.053 2.14-6.463 6.27-7.33-.73.013-1.463.05-2.186.157-2.267.26-4.777.964-6.64 2.584.517 1.947.453 4.6.426 8.214" id="Shape" fill="#002D62"/><path d="M282.95 202.78c-.376-.015-.746-.032-1.094-.04v.56c.65.766 1.457 1.383 2.338 1.893-.365-2.86-.76-5.683-1.17-8.437-.028 1.994-.056 3.98-.074 6.023" id="Shape" fill="#FFF"/><path d="M282.95 202.78c-.376-.015-.746-.032-1.094-.04v.56c.65.766 1.457 1.383 2.338 1.893-.365-2.86-.76-5.683-1.17-8.437-.028 1.994-.056 3.98-.074 6.023" id="Shape" fill="#002D62"/><path d="M299.068 195.325c.15.06.295.06.44.05.126-.41.086-.85.126-1.33.04-4.44.116-8.652.145-13.096.027-1.664 0-3.133-.215-3.72 0-.08-.162-.227-1.412-.37-.133.012-.253.012-.334.012-.11.696-.147 1.4-.198 2.19v.764c-.064 4.474-.11 8.77-.168 13.243 0 .027.028.07 0 .07v.528c-.05.51 0 1.06.255 1.31.19.187.606.324 1.358.347" id="Shape" fill="#ED174C"/><path d="M299.068 195.325c.15.06.295.06.44.05.126-.41.086-.85.126-1.33.04-4.44.116-8.652.145-13.096.027-1.664 0-3.133-.215-3.72 0-.08-.162-.227-1.412-.37-.133.012-.253.012-.334.012-.11.696-.147 1.4-.198 2.19v.764c-.064 4.474-.11 8.77-.168 13.243 0 .027.028.07 0 .07v.528c-.05.51 0 1.06.255 1.31.19.187.606.324 1.358.347" id="Shape" fill="#002D62"/><path id="Shape" fill="#ED174C" d="M281.637 186.61c.028.046.07.113.104.16.07-.16.13-.315.17-.47-.1.096-.18.208-.273.31"/><path id="Shape" fill="#002D62" d="M281.637 186.61c.028.046.07.113.104.16.07-.16.13-.315.17-.47-.1.096-.18.208-.273.31"/><path id="Shape" fill="#002D62" d="M281.637 186.61c.028.046.07.113.104.16.07-.16.13-.315.17-.47-.1.096-.18.208-.273.31"/><path id="Shape" fill="#FFF" d="M281.383 202.713c.138.208.3.403.473.588v-.56c-.16-.022-.31-.022-.473-.028"/><path id="Shape" fill="#002D62" d="M281.383 202.713c.138.208.3.403.473.588v-.56c-.16-.022-.31-.022-.473-.028"/><path id="Shape" fill="#002D62" d="M281.383 202.713c.138.208.3.403.473.588v-.56c-.16-.022-.31-.022-.473-.028"/><path d="M308.356 202.51c-.007.655-.024 1.323-.03 1.98.954-.923 1.568-2.045 1.81-3.316-.467.512-1.052.957-1.78 1.335" id="Shape" fill="#ED174C"/><path d="M308.356 202.51c-.007.655-.024 1.323-.03 1.98.954-.923 1.568-2.045 1.81-3.316-.467.512-1.052.957-1.78 1.335" id="Shape" fill="#002D62"/><path d="M308.356 202.51c-.007.655-.024 1.323-.03 1.98.954-.923 1.568-2.045 1.81-3.316-.467.512-1.052.957-1.78 1.335" id="Shape" fill="#002D62"/><path d="M272.998 181.98c.11-1.54.173-1.512.15-4.36.098-3.703-1.03-3.573-3.713-3.662-.636 0-1.283.005-1.833-.036-.052 3.222-.098 6.284-.128 9.512 1.28.018 2.643.047 3.915.073 1.023.036 1.608-.813 1.608-1.526m-1.667-.016V182c0 .07 0 .147-.08.22-.718-.03-1.4-.065-2.11-.053.028-2.338.028-4.587.07-6.908.085 0 .144.023.225.023h.196c.636-.005 1.39.023 1.574.14.046.035.312.33.266 1.913v1.484c-.024 1.483 0 1.737-.105 2.7 0 .154-.034.296-.034.444" id="Shape" fill="#0067B1"/><path d="M257.464 168.037v.3c-.15 11.32-.34 22.17-.485 33.522 3.96-.065 7.864-.04 11.86.052.07-4.55.11-8.868.19-13.426h.227c2.757.08 2.677 1.162 2.677 1.53-.034.995 0 3.922.08 5.32 0 .262.03.44.03.673.03 1.95.11 2.18.226 2.325.775 2.3 2.89 3.738 6.205 4.24.087.02.168.03.247.042.048 0 .076-.03.076 0 .874.04 1.73.072 2.586.096.162.005.313.005.474.028.348.007.718.025 1.093.04.02-2.044.047-4.03.077-6.024.034-2.166.057-4.324.08-6.56 0-1.11-.576-2.394-1.363-3.426-.034-.047-.076-.112-.105-.16.092-.102.173-.214.27-.31 1.014-1.15 1.458-2.428 1.482-4.23v-.488c0-.22.07-.402.07-.622.028-3.613.092-6.267-.422-8.214-.613-2.243-1.99-3.518-5.042-4.147-.394-.09-.798-.166-1.268-.233-.027 0-.074-.028-.11-.028h-.086c-1.357-.05-2.73-.09-4.07-.138-5.03-.14-9.97-.2-15-.165m19.038 1.602c5.163.676 5.407 2.243 5.285 11.207v.653c0 .148-.046.34-.046.48 0 1.924-.484 3.16-2.156 4.473.087.142.232.258.36.362.86.99 1.46 2.338 1.543 3.347-.082 3.815-.128 7.425-.162 11.28-.82-.06-1.578-.088-2.412-.12-2.52-.33-4.342-1.31-5.048-3.27-.11-.284-.186-2.028-.186-2.028 0-.475-.128-4.728-.128-5.988.034-1.998-1.92-2.752-4.297-2.847-.654-.03-1.21-.03-1.857-.064-.08 4.586-.11 8.917-.186 13.42-2.84-.025-5.632-.008-8.58-.025.155-10.565.31-20.652.462-31.195 5.853.012 11.544.084 17.408.314" id="Shape" fill="#0067B1"/><path d="M324.154 206.343c.37.05.712.095 1.065.157.12-7.49.23-14.752.334-22.09.052-3.496.098-6.99.144-10.532 0-.304.018-.6.018-.91-.573-.04-1.1-.124-1.613-.22-3.406-.46-6.598-.924-9.958-1.338v.79c-.15 11.078-.342 21.68-.492 32.763 3.568.39 7.003.87 10.5 1.38m-8.39-33.44c2.822.356 5.48.725 8.3 1.145-.15 10.445-.277 20.466-.416 30.936-2.834-.398-5.505-.764-8.34-1.12.166-10.477.313-20.502.457-30.96" id="Shape" fill="#0067B1"/><path d="M252.028 174.546c.47-.208.915-.458 1.283-.76.314-.237.557-.49.79-.747 1.19-1.377 1.34-2.94 1.34-3.538v-.225c0-.307-.012-.634-.058-.942 0-.1 0-.192-.034-.266-.556-.007-1.07-.007-1.526-.007-7.53.113-14.552.397-21.953.873v.034c-.03 2.422-.07 4.745-.106 7.138 2-.144 3.92-.254 5.934-.38-.127 9.09-.236 17.71-.353 26.808 3.58-.25 7.16-.388 10.79-.493.347-.015.7-.032 1.07-.038.134-8.09.244-15.92.36-23.972.01-.935.028-1.868.046-2.83.867-.097 1.678-.33 2.418-.657m-4.078-.582c-.093 9.062-.225 17.725-.37 26.813-2.91.084-5.627.203-8.57.338.11-9.053.237-17.705.376-26.764-2.042.123-3.962.195-5.957.343.028-1.548.028-3.03.075-4.55 6.865-.422 13.434-.68 20.276-.76 0-.005.405 4.67-5.83 4.58" id="Shape" fill="#0067B1"/><path d="M333.432 181.306c-.117 8.946-.232 17.472-.348 26.422 3.63.608 7.102 1.215 10.675 1.892.37.052.73.13 1.116.194.087-7.79.208-15.288.318-23.02.024-1.162.034-2.3.034-3.47 1.47.173 2.678-.017 3.69-.556.353-.215.63-.464.88-.718 1.074-1.103 1.207-2.524 1.207-3.08v-.243c-.052-.43-.052-.797-.052-1.205-.526-.112-.994-.232-1.55-.344-7.322-1.518-14.4-2.776-21.78-3.89v.906c-.01 2.048-.044 4.094-.063 6.16 1.996.302 3.86.62 5.872.952m-4.17-6.475c6.805 1.058 13.294 2.246 20.14 3.64 0 0 .307 4.728-5.783 3.334-.116 8.906-.27 17.455-.38 26.416-2.893-.564-5.682-1.034-8.485-1.51.098-8.922.208-17.472.323-26.407-1.994-.34-3.868-.69-5.868-.99 0-1.522.05-2.973.05-4.482" id="Shape" fill="#0067B1"/><path d="M226.42 176.386c.728-.052 1.452-.12 2.192-.174.377-.024.74-.046 1.105-.08 0-2.35.046-4.654.08-7.05v-.01c-.092.01-.19.01-.288.017-.43.028-.898.078-1.336.1-.555.04-1.104.087-1.648.137-6.014.487-11.81 1.055-17.928 1.756v.153c-.15 11.47-.335 22.435-.487 33.88 6.767-.84 13.394-1.524 20.155-2.022.364-.024.724-.058 1.087-.084.03-2.436.076-4.806.076-7.292-3.174.273-6.27.522-9.59.844.013-.693.025-1.376.05-2.066.01-1.15.044-2.307.044-3.482 1.897-.194 3.685-.374 5.478-.493.364-.033.74-.045 1.116-.068.03-3.118.07-6.035.104-9.098-2.18.13-4.303.34-6.558.56 0-.464 0-.904.012-1.366.012-1.21.034-2.41.07-3.615 2.137-.21 4.184-.387 6.266-.547m-7.917-.612c-.053 2.582-.053 5.06-.105 7.605 2.204-.236 4.384-.427 6.558-.597-.03 2.175-.063 4.293-.093 6.466-2.19.158-4.332.367-6.575.592-.04 2.776-.076 5.413-.104 8.182 3.32-.356 6.407-.606 9.576-.855 0 1.555-.034 3.096-.034 4.646-3.025.237-5.887.488-8.905.8-3.133.304-5.956.6-9.045.967.15-10.603.29-20.778.45-31.388 6.027-.696 11.885-1.23 17.917-1.686-.04 1.476-.04 2.954-.08 4.443-3.17.263-6.257.512-9.56.82" id="Shape" fill="#0067B1"/><path d="M174.124 178.374c0 .826.155 2.27 1.51 3.274.964.683 2.174 1.03 3.91.98-.106 9.125-.233 17.87-.383 27.038 6.24-1.178 12.123-2.213 18.333-3.143 2.163-.368 3.955-1.23 5.304-2.49.422-.4.79-.832 1.115-1.313.943-1.352 1.48-3.006 1.527-4.89.04-4.983.11-9.795.185-14.777.086-5.746.162-9.03-2.372-10.218-1.087-.505-2.63-.634-4.858-.397h-.023c-8.194 1.194-15.932 2.538-23.988 4.15v.056c-.105.414-.115.764-.232 1.146 0 .046-.028.288-.028.584m1.688-.748c7.674-1.512 14.927-2.76 22.502-3.862 6.107-.708 5.8 1.417 5.663 10.51-.087 4.663-.157 9.104-.203 13.75-.186 3.982-2.596 6.557-6.252 7.198-5.685.814-11.03 1.76-16.702 2.807.144-9.092.26-17.806.376-26.897-6.212.89-5.384-3.507-5.384-3.507" id="Shape" fill="#0067B1"/><path d="M195.3 181.232s.158-1.874-1.265-2.123c-.017 0-.578-.216-4.268.52-.105 7.536-.173 14.71-.29 22.245 1.91-.3 3.685-.63 5.605-.907 0 0 .474-16.98.22-19.736m-1.58 7.626c-.034 3.618-.19 7.712-.22 11.036-.833.148-1.544.215-2.37.397.104-6.637.178-12.998.254-19.645 1.312-.223 1.775-.254 1.96-.205.186.08.307.61.307 1.06-.012 0-.012.038 0 .072 0 .023.035.034.035.07.15.932.068 3.74.034 7.216" id="Shape" fill="#0067B1"/><path d="M299.02 196.65c.655.057 1.285.05 1.934.016.3-.82.3-1.56.3-2.45.08-4.44.104-8.692.173-13.125.046-4.366-.018-5.18-3.233-5.53-.636-.053-1.14-.075-1.775-.024-.37 1.335-.406 2.74-.406 4.15-.092 4.488-.104 8.763-.186 13.282-.045 1.728-.19 3.336 3.193 3.68m-1.566-2.978v-.527c.028 0 0-.043 0-.072.06-4.47.104-8.768.168-13.24v-.766c.05-.792.087-1.496.197-2.19.08 0 .2 0 .333-.012 1.25.14 1.412.29 1.412.368.214.59.243 2.058.214 3.72-.03 4.444-.105 8.656-.146 13.096-.04.48 0 .92-.127 1.33-.144.012-.29.012-.44-.05-.75-.023-1.17-.16-1.358-.344-.256-.25-.307-.802-.256-1.312" id="Shape" fill="#0067B1"/><path d="M285.593 177.336c-.07 6.32-.144 12.388-.254 18.707.07 7.01 8.195 7.416 12.144 7.744 4.87.36 8.53-.072 10.873-1.278.728-.38 1.313-.824 1.78-1.336.776-.847 1.215-1.904 1.262-3.15 0-.253.033-.526.033-.78.087-6.326.186-12.355.277-18.68 0-3.204-1.144-5.15-2.915-6.384-2.43-1.71-6.038-2.067-9.46-2.374-2.193-.202-4.228-.292-6.12-.036-.474.066-.902.144-1.353.237-4.13.866-6.16 3.277-6.27 7.33m8.006-6.273c1.554-.215 3.428-.16 5.695.03 6.228.56 10.7 1.057 10.746 7.268-.077 6.325-.158 12.36-.234 18.684 0 .25-.04.516-.04.777-.104 4.285-5.494 5.197-12.253 4.635-6.6-.56-10.444-1.675-10.515-6.33.07-6.322.145-12.343.255-18.722.156-4.355 2.684-5.916 6.345-6.342" id="Shape" fill="#0067B1"/><path d="M258.632 200.523c2.95.017 5.742 0 8.582.023.076-4.503.104-8.834.185-13.42.647.035 1.203.035 1.857.064 2.376.095 4.332.85 4.296 2.847 0 1.26.127 5.514.127 5.988 0 0 .076 1.744.186 2.03.706 1.957 2.528 2.937 5.05 3.27.832.03 1.59.057 2.41.12.035-3.856.082-7.467.163-11.282-.084-1.01-.684-2.355-1.546-3.347-.128-.105-.272-.22-.358-.36 1.67-1.316 2.157-2.55 2.157-4.474 0-.142.045-.333.045-.48v-.654c.122-8.963-.12-10.53-5.285-11.208-5.864-.23-11.555-.302-17.408-.313-.15 10.54-.307 20.63-.463 31.196m8.97-26.6c.55.04 1.197.036 1.833.036 2.684.088 3.81-.04 3.713 3.66.023 2.848-.04 2.82-.15 4.362 0 .712-.584 1.56-1.608 1.527-1.273-.028-2.637-.056-3.915-.075.03-3.227.075-6.29.127-9.51" id="Shape" fill="#FFF"/><path d="M324.063 174.048c-2.82-.42-5.478-.79-8.3-1.144-.143 10.458-.29 20.483-.457 30.96 2.834.356 5.505.724 8.34 1.12.14-10.47.266-20.49.417-30.936" id="Shape" fill="#FFF"/><path d="M253.78 169.383c-6.842.08-13.41.34-20.276.763-.046 1.52-.046 3.002-.076 4.548 1.994-.148 3.916-.22 5.956-.342-.138 9.06-.265 17.712-.375 26.764 2.942-.136 5.66-.254 8.57-.338.144-9.088.276-17.75.37-26.812 6.235.088 5.83-4.588 5.83-4.583" id="Shape" fill="#FFF"/><path d="M334.757 206.71c2.804.476 5.59.946 8.483 1.51.11-8.96.266-17.51.38-26.416 6.09 1.393 5.785-3.334 5.785-3.334-6.848-1.393-13.336-2.582-20.143-3.64 0 1.51-.05 2.962-.05 4.482 2 .3 3.873.652 5.868.99-.115 8.936-.225 17.486-.323 26.41" id="Shape" fill="#FFF"/><path d="M228.144 170.51c-6.033.46-11.89.992-17.917 1.688-.162 10.61-.3 20.784-.45 31.387 3.087-.368 5.91-.663 9.045-.967 3.02-.313 5.882-.562 8.906-.8 0-1.55.034-3.09.034-4.646-3.17.25-6.258.498-9.577.854.03-2.77.063-5.406.105-8.18 2.243-.227 4.384-.436 6.575-.595.028-2.172.064-4.29.093-6.465-2.174.17-4.355.362-6.56.597.054-2.544.054-5.024.106-7.605 3.3-.31 6.39-.558 9.56-.82.04-1.49.04-2.97.08-4.446" id="Shape" fill="#FFF"/><path d="M181.196 181.13c-.115 9.094-.232 17.807-.376 26.898 5.673-1.05 11.017-1.993 16.702-2.807 3.654-.64 6.066-3.215 6.252-7.196.046-4.647.115-9.09.203-13.753.138-9.09.444-11.214-5.663-10.507-7.575 1.103-14.828 2.35-22.502 3.862 0 0-.828 4.4 5.384 3.506m8.57-1.5c3.69-.736 4.25-.52 4.267-.52 1.423.248 1.267 2.122 1.267 2.122.255 2.756-.22 19.736-.22 19.736-1.92.278-3.695.606-5.605.907.118-7.535.187-14.71.29-22.244" id="Shape" fill="#FFF"/><path d="M286.998 196.127c.07 4.656 3.916 5.772 10.515 6.33 6.76.563 12.15-.35 12.254-4.634 0-.26.04-.527.04-.777.075-6.324.156-12.36.232-18.684-.048-6.21-4.52-6.71-10.747-7.27-2.267-.188-4.14-.243-5.695-.028-3.66.426-6.188 1.988-6.345 6.342-.11 6.38-.184 12.4-.255 18.72m8.83-3.157c.084-4.52.094-8.794.187-13.284 0-1.41.034-2.814.405-4.15.636-.05 1.14-.028 1.775.025 3.215.352 3.28 1.166 3.234 5.532-.07 4.432-.094 8.685-.175 13.125 0 .89 0 1.63-.3 2.45-.647.034-1.28.04-1.933-.017-3.384-.346-3.24-1.954-3.193-3.68" id="Shape" fill="#FFF"/><path d="M168.935 254.766v-32.521c-1.134.177-2.295.333-3.453.522-7.084 1.046-13.955 2.2-21.09 3.477v.332c.045 26.113-.082 51.188.126 77.302 8.137-1.408 16.054-2.705 24.186-3.882.07-.025.138-.04.23-.047v-45.184zm-3.452 42.74c-5.92.914-11.583 1.767-17.556 2.814 0-24.278-.076-47.472-.076-71.757 5.97-1.08 11.712-1.94 17.633-2.84v71.782z" id="Shape" fill="#0067B1"/><path d="M219.052 217.155c-.186 0-.37.02-.578.03-11.288.706-25.376 2.053-28.337 2.438-.243.034-.52.107-.787.107-.07.006-.127.02-.197.024-1.12.136-2.18.35-3.18.623-.024.01-.04.023-.065.023-5.21 1.455-8.633 4.757-9.64 9.44 0 .56-.203 1.13-.203 1.732v-.267c-.215 1.376-.516 5.994-.516 10.46 0 3.365.162 6.44.914 8.166 3.134 6.957 9.935 8.694 15.678 9.668.196 0 .364.034.555.064 0 .08.214.08.277.076 0 7.618.122 14.88.122 22.482-2.615.3-5.147.59-7.674.857-2.493.306-4.968.614-7.454.96-.07 0-.128.013-.18.025-.086.012-.19.024-.283.034 0 4.88.093 9.63.093 14.544 7.847-1.02 15.313-1.814 23.364-2.544 0 0 .08-.005.035 0 9.16-1.06 16.875-4.396 16.875-15.887 0-5.813.08-10.575.08-14.736 0-3.87 0-6.936-.044-9.277-.034-2.127-.08-3.66-.144-4.664-.244-2.61-1.648-4.597-4.344-6.284-.914-.6-1.914-1.14-3.482-1.692-.96-.41-2.053-.75-3.204-1.122-.162-.04-.353 0-.353-.125-.78-.254-1.497-.49-2.175-.735-3.515-1.275-5.662-2.503-5.69-5.215v-1.683c4.054-.417 7.974-.757 11.988-1.046 4.256-.38 7.368-2.213 9.496-5.547 1.363-2.2 1.838-4.2 1.838-4.763 0 0 .046-.024.046-.072v-.12c0-.51.08-1.037.08-1.642 0-.6-.08-1.155-.08-1.8 0-.93-.237-1.755-.237-2.693h-.04c-.936.067-1.7.118-2.555.162m-.613 5.974s-.29 1.838-1.447 3.684c-1.323 1.904-3.007 3.512-6.488 3.862-5.188.402-10.225.813-15.447 1.376v4.647c.243 5.208 5.025 6.856 9.796 8.395 1.156.373 2.33.753 3.477 1.194 1.133.38 2.014.9 2.972 1.392 1.723 1.12 2.81 2.32 3.002 4.302.37 5.4.162 29.453.134 29.493 0 .516-.232 3.175-.683 4.242-2.105 4.93-6.91 6.464-12.86 7.293-6.9.567-13.163 1.385-19.902 2.254 0-2.932-.034-5.77-.034-8.656 5.384-.712 10.414-1.274 15.596-1.762 0-9.107-.126-17.76-.126-26.867-.36-.63-1.047-.863-1.614-1.042-.59-.156-1.278-.197-1.67-.26-6.334-1.02-11.07-2.786-13.43-8.185-1.44-3.625-.19-17.19-.19-17.365 0 0-.087-.505.11-1.21 1-4.303 4.407-6.71 9.774-7.23.254-.14.578-.07.81-.14 3.683-.456 23.016-2.113 28.22-2.403.208.707.208 1.822 0 2.984" id="Shape" fill="#0067B1"/><path d="M391.055 229.876c-7.552-1.58-14.845-2.998-22.422-4.296v16.56c-.168-.635-.37-1.127-.538-1.727-1.544-4.286-3.764-7.655-6.315-10.31-.29-.295-.59-.578-.885-.862-5.926-5.644-13.358-7.66-18.598-7.975-.76-.04-1.475-.06-2.153-.04 0 0-1.81.005-2.752.04v77.34c8.056 1.01 16.025 2.126 24.054 3.44v-18.252c3.654 8.913 8.015 19.637 8.015 19.637 8.096 1.42 15.708 2.88 23.578 4.584V230.29c-.676-.136-1.318-.272-1.983-.414zm-1.48 74.454c-5.933-1.24-11.58-2.36-17.72-3.44-4.61-11.503-9.207-22.45-13.81-33.84v31.47c-5.953-.9-11.272-1.692-17.247-2.47 0-24.318.04-47.556.04-71.857 0 0 17.57-.763 23.936 16.482 2.118 6.26 3.997 12.246 5.894 18.46.602 1.548.833 2.967 1.405 4.468v-34.47c5.922 1.093 11.537 2.172 17.5 3.41v71.787h.002z" id="Shape" fill="#0067B1"/><path d="M421.023 254.5v-1.727c4.008 1.092 7.964 2.144 11.97 3.22 4.05 1.124 7.223.453 9.305-2.01 1.567-1.585 2.18-4.35 2.18-4.427 0-.296-.005-.6-.005-.895-.018-.474-.028-.955-.052-1.43-.056-1.302-.143-2.582-.143-3.862v-.03c-.306-.095-.62-.19-.914-.29-.735-.24-1.462-.5-2.192-.72-.11-.04-.212-.064-.322-.112-7.888-2.374-19.328-5.346-25.24-6.853-2.145-.545-3.56-.89-3.81-.967.018.005.047.005.076.005h.035c-.065-.01-.14-.022-.186-.033-7.196-1.72-11.804.59-12.96 5.702 0 .57-.804 7.144-.724 11.724.06 3.308.15 6.454.926 8.43 3.128 8.095 9.945 12.29 15.672 15.257.15.072.405.182.554.262.083.04.29.07.29.162.21 2.32.127 18.044.127 22.54-2.284-.545-4.465-1.066-6.633-1.564-2.95-.696-5.864-1.368-8.918-2.103v14.579c8.043 1.79 15.33 3.585 23.405 5.695 0 0 .076.03.028.03 8.5 1.836 13.87.197 16.4-4.676.43-.835.51-1.952.51-1.952v-.11c0-2.91.086-8.714.093-14.782v-.73c0-5.625-.047-11.014-.174-14.323-.012-.3-.018-.586-.034-.864-.018-.464-.052-.88-.07-1.23-.21-2.7-1.603-5.166-4.285-7.78-.978-.952-1.932-1.85-3.5-2.893-.965-.752-2.122-1.47-3.077-2.212-.122-.076-.37-.22-.485-.337-.964-.67-1.873-1.296-2.677-1.887-3.24-2.372-5.17-4.284-5.17-6.804m6.32 10.974c1.164.766 2.32 1.577 3.494 2.405.955.815 1.994 1.615 2.962 2.46 1.74 1.727 2.803 3.35 3.01 5.322.326 5.372.152 29.72.152 31.82 0 0 .046.482-.36 1.044-1.907 4.3-5.955 5.557-13.223 3.565-6.705-1.837-13.2-3.332-19.878-4.902v-8.667c5.17 1.206 10.364 2.412 15.55 3.755 0-9.102-.132-17.84-.132-26.938-.394-.683-1.023-1.16-1.63-1.582-.567-.342-1.284-.632-1.637-.852-6.345-3.267-11.122-6.72-13.434-12.938-1.447-4.12-.245-17.272-.245-17.45 0 0 .007-.42.15-1.133 1.012-3.963 4.373-5.128 9.786-3.78.21 0 22.785 5.915 28.91 7.714 0 .974.122 1.994.122 3.007 0 .452-.602 1.94-1.572 3.292-1.366 1.306-3.1 2.314-6.374 1.42-5.164-1.42-10.26-2.77-15.423-4.083v4.687c-.003 5.18 5.16 8.613 9.77 11.834" id="Shape" fill="#0067B1"/><path d="M276.485 219.053c0-.974 0-1.87-.202-2.812-.96 0-2.07-.075-3.24-.075-14.48-.31-28.325-.168-42.656.47-1.278.05-2.54.104-3.812.176v16.328c4.24-.225 8.178-.41 12.59-.516v61.474c8.45-.29 16.62-.37 25.098-.29v-61.642c3.078-.29 5.726-1.234 7.854-2.922 1.7-1.438 2.73-3.106 3.384-4.67.862-2.138.983-4.095.983-5.038v-.48h.002zm-15.68 10.224v61.57c-6.13-.075-12.062 0-18.2.18V229.55c-4.215.113-8.17.22-12.578.452v-10.38c14.55-.717 28.42-.83 43.015-.492 0 0 .997 10.816-12.236 10.147z" id="Shape" fill="#0067B1"/><path d="M73.682 243.98c-.763.967-1.04 2.158-1.082 3.433.04 2.22.88 4.458 1.435 5.4 1.18 1.838 3.898 4.195 10.068 3.223v61.67c8.403-2.388 16.75-4.41 25.15-6.392.013 0 .013 0 .03-.007V280.276c4.61-1.09 9.01-2.086 13.59-3.072 10.37-2.318 16.403-9.07 16.477-19.174v-1.142c0-.474.034-.927.034-1.414 0-10.926.093-18.133-2.52-22.045-.117-.195-.245-.38-.383-.534-.033-.04-.045-.08-.08-.103-.116-.14-.244-.277-.347-.402l-.07-.05c-.128-.143-.277-.277-.415-.408-.012 0-.012 0-.012-.005-2.07-1.773-5.27-2.397-10.19-1.92-.115.023-.474.062-.73.112-.05.004-.097.004-.143.004-.03.018-.093.03-.093.03-.416.077-.816.16-1.232.242-.093.035-.196.058-.312.065-1.58.352-3.146.702-4.702 1.063-.296.053-.607.125-.896.192-2.338.516-4.645 1.055-6.94 1.587-.92.22-1.822.44-2.725.66-.272.063-.56.13-.827.194-2.173.53-4.342 1.064-6.512 1.62-2.18.548-4.39 1.11-6.57 1.687-.34.09-.68.174-1.023.26-5.92 1.58-11.906 3.245-17.967 5.016-.404.43-.658.818-1.01 1.24m2.49 1.304c16.274-4.723 31.907-8.698 48.226-12.223 10.813-1.077 11.537 2.173 11.537 22.976 0 .562-.046 1.048-.046 1.535v1.13c-.035 8.872-5.123 13.785-13.017 15.54-5.744 1.282-11.26 2.515-17.043 3.888v31.035c-6.13 1.426-12.144 2.996-18.268 4.642-.203-20.744-.046-40.722-.046-61.513-13.227 3.853-11.343-7.008-11.343-7.008" id="Shape" fill="#0067B1"/><path d="M117.332 266.94c0-.343.122-.788.122-1.154.19-3.817.12-12.52.12-12.52 0-.826-.046-1.613-.046-2.474 0-.896-.023-1.716-.196-2.51-.595-1.65-1.75-2.778-4.442-2.474-.972.115-1.96.33-3.33.668-1.313.232-2.644.57-4.01.902v22.447c3.286-.828 6.294-1.536 9.543-2.254.76-.214 1.482-.41 2.24-.63m-8.334-.932v-16.45c.358-.114.722-.15 1.133-.262.752-.107 1.555-.267 2.314-.452.96-.147 1.163.03 1.573.933 0 .488.075 13.148.075 15.06-1.73.375-3.373.754-5.096 1.17" id="Shape" fill="#0067B1"/><path d="M147.925 300.32c5.974-1.048 11.636-1.9 17.557-2.815v-71.783c-5.92.902-11.664 1.76-17.633 2.84 0 24.286.075 47.48.075 71.758" id="Shape" fill="#FFF"/><path d="M190.218 222.547c-.23.072-.556 0-.81.14-5.366.52-8.773 2.928-9.774 7.23-.196.706-.11 1.21-.11 1.21 0 .178-1.25 13.742.19 17.366 2.36 5.4 7.097 7.164 13.43 8.184.392.064 1.082.105 1.67.26.568.18 1.255.41 1.614 1.044 0 9.11.127 17.76.127 26.868-5.18.488-10.212 1.05-15.597 1.763 0 2.887.034 5.725.034 8.657 6.737-.87 13-1.687 19.9-2.254 5.95-.83 10.757-2.364 12.862-7.294.45-1.068.682-3.728.682-4.243.03-.04.237-24.094-.133-29.493-.19-1.98-1.28-3.18-3.002-4.302-.96-.493-1.838-1.01-2.97-1.393-1.145-.442-2.32-.82-3.477-1.195-4.77-1.54-9.553-3.187-9.797-8.396v-4.648c5.223-.563 10.26-.974 15.447-1.376 3.482-.352 5.165-1.96 6.49-3.862 1.155-1.846 1.444-3.685 1.444-3.685.208-1.163.208-2.278 0-2.985-5.203.29-24.536 1.947-28.22 2.402" id="Shape" fill="#FFF"/><path d="M306.077 217.07l-.034-.004c-5.644-.39-9.52-.333-12.908.226-1.364.225-2.644.52-3.84.883-8.257 2.51-12.312 8.312-12.395 17.635v43.373c.11 15.592 15.53 16.798 25.736 17.592 12.666.81 21.033-.87 25.625-5.12 2.62-2.447 3.987-5.646 4.038-9.487 0-.052.047-1.847.047-1.847v-43.353c-.035-4.206-.84-7.468-2.14-10.038-4.276-8.28-14.326-9.095-24.128-9.86zm22.74 63.25c0 .596-.04 1.192-.04 1.795-.122 9.885-11.433 12.064-25.868 11.124-14.02-1.09-22.405-3.338-22.48-14.058V235.85c.075-10.056 5.36-13.76 13.266-15.07 3.448-.557 7.293-.535 12.105-.195 13.268 1.048 22.885 1.993 23.02 16.38v43.354h-.003z" id="Shape" fill="#0067B1"/><path d="M303.515 230.855c-1.12-.15-2.156-.072-3.28-.043-.207.19-.363.338-.613.457-.4 1.46-.647 3.03-.647 4.722-.196 1.608-.076 3.25-.076 4.57v30.764c-.157 4.078-.077 7.856 7.108 8.453 1.117.05 2.317.16 3.637.05.237-.144.41-.277.607-.463.203-.927.203-1.75.394-2.69 0-.897.086-1.76.086-2.664v-30.42c0-10.11-.046-12.102-7.217-12.738zm3.7 43.16s-.075 1.854-.075 2.276h-.2s-.505-.023-.678-.028c-3.354-.278-3.87-.87-3.87-3.197 0-.464 0-.998.04-1.61V240.56l-.04-1.18v-1.227c0-.6.03-1.183.087-1.72l.033-.216v-.226c0-.556.046-1.11.122-1.654.133 0 .272 0 .41.03h.07l.09.01c1.446.125 3.206.374 3.454.855.555 1.12.555 4.478.555 8.36v30.42z" id="Shape" fill="#0067B1"/><path d="M305.8 220.585c-4.812-.34-8.658-.362-12.105.194-7.906 1.31-13.19 5.014-13.267 15.07v43.332c.076 10.72 8.46 12.968 22.48 14.057 14.435.94 25.747-1.24 25.867-11.125 0-.603.04-1.2.04-1.796v-43.354c-.13-14.388-9.75-15.33-23.015-16.38zm4.932 53.43c0 .903-.086 1.767-.086 2.664-.19.938-.19 1.76-.394 2.688-.196.186-.37.318-.607.464-1.32.11-2.522 0-3.637-.05-7.184-.6-7.265-4.377-7.11-8.455v-30.765c0-1.318-.12-2.96.077-4.568 0-1.692.248-3.262.647-4.723.25-.12.406-.267.614-.457 1.122-.03 2.157-.107 3.28.043 7.17.635 7.217 2.628 7.217 12.74v30.42z" id="Shape" fill="#FFF"/><path d="M372.074 263.603c-.573-1.502-.803-2.92-1.405-4.468-1.897-6.214-3.777-12.2-5.894-18.46-6.366-17.245-23.936-16.482-23.936-16.482 0 24.3-.04 47.54-.04 71.857 5.973.778 11.294 1.57 17.245 2.47v-31.47c4.604 11.39 9.2 22.337 13.81 33.84 6.143 1.08 11.788 2.2 17.72 3.44v-71.786c-5.962-1.24-11.577-2.318-17.5-3.41v34.47z" id="Shape" fill="#FFF"/><path d="M417.57 253.64v-4.688c5.164 1.31 10.26 2.663 15.424 4.082 3.273.895 5.008-.113 6.373-1.42.97-1.35 1.572-2.84 1.572-3.29 0-1.014-.122-2.035-.122-3.008-6.125-1.8-28.7-7.714-28.91-7.714-5.414-1.348-8.774-.183-9.785 3.78-.144.713-.15 1.134-.15 1.134 0 .177-1.204 13.33.243 17.45 2.314 6.216 7.09 9.67 13.434 12.937.353.22 1.07.51 1.636.852.608.422 1.238.9 1.63 1.582 0 9.096.135 17.834.135 26.938-5.187-1.343-10.38-2.55-15.55-3.754v8.668c6.68 1.57 13.173 3.065 19.876 4.903 7.27 1.994 11.317.737 13.225-3.564.406-.562.36-1.043.36-1.043 0-2.102.173-26.45-.15-31.82-.21-1.972-1.274-3.594-3.013-5.322-.967-.845-2.007-1.645-2.963-2.46-1.173-.83-2.33-1.64-3.492-2.406-4.608-3.22-9.772-6.653-9.772-11.835" id="Shape" fill="#FFF"/><path d="M230.028 219.623V230c4.407-.23 8.364-.34 12.58-.45v61.476c6.135-.18 12.07-.254 18.2-.18v-61.57c13.23.67 12.235-10.146 12.235-10.146-14.595-.338-28.464-.225-43.015.493" id="Shape" fill="#FFF"/><path d="M87.515 252.292c0 20.79-.157 40.77.045 61.513 6.124-1.646 12.14-3.216 18.27-4.642v-31.035c5.782-1.373 11.3-2.606 17.04-3.888 7.896-1.756 12.984-6.67 13.02-15.54v-1.13c0-.486.045-.972.045-1.534 0-20.803-.723-24.053-11.537-22.975-16.32 3.526-31.952 7.502-48.226 12.224 0 0-1.883 10.86 11.343 7.008zm18.038-4.914c1.364-.33 2.695-.67 4.007-.902 1.37-.338 2.36-.553 3.332-.668 2.69-.304 3.845.82 4.44 2.474.175.794.198 1.613.198 2.51 0 .86.047 1.648.047 2.474 0 0-.047 8.036-.122 12.52 0 .366-.122.81-.122 1.153-.757.22-1.48.416-2.237.63-3.25.72-6.258 1.427-9.542 2.255v-22.447z" fill="#FFF"/></g></svg>