<svg width="512" height="512" viewBox="0 0 512 512" xmlns="http://www.w3.org/2000/svg"><title>detroit-pistons</title><g fill="none" fill-rule="evenodd"><path d="M217.982 284.027c0 11.333-6.818 17.98-20.264 19.74l-.18.02c-8.8.81-15.96 1.598-23.235 2.526l-4.344.544-.1-18.936-.09-2.88v-.01c3.74-.45 6.31-.75 8.19-.98 2.482-.35 4.96-.65 7.45-.96-.024-3.342-.07-12.99-.087-16.27-5.02-1.02-12.56-3.39-16.187-11.49-.085-.17-.143-.353-.214-.55v45.184c-.093.008-.16.025-.23.05v6.93l-3.03.44c-6.084.85-12.417 1.835-19.58 3.034 19.366 13.723 50.254 27.188 98.23 29.905.74-12.352-4.65-25.36-13.115-38.896l-.834.01V300.1c-3.677-5.743-7.87-11.577-12.392-17.51v1.45z" id="Shape" fill="#ED174C"/><path d="M139.8 227.37c1.602-.277 3.112-.533 4.592-.794v-.332c7.137-1.276 14.007-2.43 21.09-3.477 1.158-.19 2.32-.345 3.454-.522v9.683c.776-2.87 2.274-5.316 4.373-7.262-12.49-18.544-22.44-38.203-24.99-58.907-16.09 18.83-26.73 41.69-31.07 65.95.29-.07.6-.14.89-.19 1.342-.32 3.44-.77 4.46-.99.28-.07.473-.1.554-.14.416-.09.816-.17 1.232-.25 0 0 .06-.01.09-.03.073 0 .13-.016.11-.016.004 0 .02 0 .033.014.255-.05.613-.09.73-.114 4.922-.473 8.12.15 10.19 1.92 0 .01 0 .01.012.01.14.13.29.265.416.41l.07.05c.1.124.23.26.343.402.038.024.05.06.08.103.14.153.27.34.385.533v-5.556l2.94-.503z" id="Shape" fill="#ED174C"/><path d="M120.647 284.177s-.203.058-.526.13c3.09 4.715 8.41 11.587 16.86 18.934-.07-9.94-.09-19.84-.09-29.62-3.22 5.25-8.75 8.92-16.24 10.56" id="Shape" fill="#ED174C"/><path d="M137.023 310.826c-7.506-6.044-13-11.978-16.91-17.01 6.12 22.07 17.63 42.395 33.936 59.343 9.3 9.65 19.78 17.79 31.09 24.28 18.95 3.18 33.73 1.07 43.9-6.38 7.69-5.65 12.56-14.19 14.55-25.39-53.17-2.92-85.877-18.63-105.42-33.948l-1.15.194-.01-1.107z" id="Shape" fill="#ED174C"/><path d="M372.155 310.45c-2.134-.394-4.337-.784-6.6-1.172l-3.972-.72-4.09-.64c-7.684-1.236-15.59-2.348-24.155-3.403l-.95-.116c-4.22 10.84-7.547 21.14-9.542 30.13 22.105-5.43 38.182-14.04 49.31-24.08" id="Shape" fill="#ED174C"/><path d="M368.633 225.58c7.577 1.298 14.87 2.718 22.422 4.296-3.99-20.72-12.578-39.84-24.66-56.248 4.274 14.914 5.848 32.135.995 51.873.387.08.798.15 1.243.22v-.14z" id="Shape" fill="#ED174C"/><path id="Shape" fill="#ED174C" d="M185.89 220.245c0 .017 0 .065.018.125-.017-.028-.017-.094-.017-.125"/><path d="M275.404 206.32c-.076-.013-.157-.025-.23-.03h-.124c-4.1-.553-6.21-2.237-7.327-3.893 0 .292-.02 1.515-.02 1.515-.016.55-.022 1.115-.038 1.665-5.368 0-10.728-.017-16.077-.08.138-9.637.277-19.285.398-28.914-.12.105-.23.217-.376.335-.567.475-1.26.83-2.047 1.115-.115 8.052-.225 15.88-.36 23.972-.37.005-.722.023-1.068.038-.024 1.24-.024 1.998-.024 1.998-.02.51-.04 1.02-.08 1.54-5.35.25-10.71.48-16.06.66 0 0 .3-23.45.327-26.713-.88.05-2.452.13-3.747.196-.02.046-.02.1-.02.148 0 .014-5.477.46-8.44.69-.01.46-.01.9-.01 1.367 2.255-.22 4.38-.43 6.56-.56-.036 3.062-.076 5.98-.106 9.097-.375.024-.75.034-1.115.07 0 .69 0 1.37-.018 2.054-.035.48-.06.976-.08 1.467l-5.425.456c-.024.69-.034 1.375-.047 2.068 3.32-.323 6.416-.57 9.59-.844 0 2.484-.045 4.853-.075 7.29-.364.026-.724.06-1.09.083-.02 1.12-.04 2.254-.05 3.38-.62.054-1.25.095-1.885.14-6.755.494-13.614 1.176-21.08 2.044-.838.1-1.67.216-2.52.31l.045-3.685c-1.595 2.53-4.377 4.266-8.04 4.838-6.02.874-11.813 1.834-18.163 3.06-.937.18-1.85.35-2.77.535 0 0 .324-24.52.353-27.35-1.157-.18-2.205-.53-3.147-1.214-1-.754-2.244-2.19-2.22-4.593.01-.183.032-.37.044-.57 0-.07.01-.134.033-.206.128-.72.255-1.45.383-2.156.4-.085.822-.16 1.238-.257 1.298-.245 2.59-.494 3.9-.73v-.06c8.058-1.61 15.796-2.954 23.98-4.15h.035c2.23-.24 3.77-.11 4.86.397v-1.02c.568-.06 1.12-.125 1.69-.19 1.238-.132 2.458-.25 3.655-.387v-.15c6.12-.7 11.913-1.27 17.928-1.76v-.03c.628-.05 1.24-.09 1.88-.14.368-.027.748-.044 1.108-.067.098-.003.196-.003.29-.02v.015c.69-.045 1.39-.086 2.07-.114v-.03c7.4-.473 14.42-.76 21.95-.87.46 0 .974 0 1.53.008.034.076.034.165.034.266h2.083v-.3c5.03-.033 9.97.027 14.996.17-5.526-25.16-12.326-42.967-19.64-51.397-35.7.36-69.364 14.11-95.185 39.046-1.533 1.49-3.03 3.005-4.477 4.535 1.306 21.54 11.287 41.81 24.53 61.354.6-.288 1.24-.48 1.91-.624 3.205-.84 7.56-1.15 9.843-1.42l-.29.06c.07-.007.13-.02.197-.025.265 0 .543-.077.786-.11 2.96-.388 17.05-1.735 28.337-2.44.21-.01.397-.03.58-.03.93-.08 1.49-.114 1.49-.114l.48-.02c.19 0 .39-.014.587-.025h.04c2.934-.138 5.836-.26 8.74-.36 14.33-.637 28.176-.78 42.656-.47 1.17 0 2.28.076 3.24.076.204.946.204 1.84.204 2.814v.48c0 .945-.122 2.9-.983 5.04 1.45-1.476 3.22-2.717 5.22-3.736-.52-4.84-1.1-9.62-1.72-14.347-1.196-.06-2.4-.104-3.6-.166" id="Shape" fill="#ED174C"/><path d="M206.734 242.436c1.15.373 2.244.713 3.204 1.122 1.567.553 2.568 1.09 3.482 1.69 2.696 1.688 4.1 3.675 4.344 6.285.063 1.003.11 2.54.144 4.664.115 2.243.15 6.08.15 13.108l-.024 4.617c4.373 5.58 8.543 11.102 12.342 16.548v-49.932c-3.678.16-12.71.522-12.71.522v-4.717c-2.684 2.912-6.23 4.592-10.654 4.983 0 0-1.227.102-2.805.25.677.243 1.393.48 2.175.735 0 .13.19.09.352.13" id="Shape" fill="#ED174C"/><path d="M249.645 340.557c10.12.395 20.947.324 32.56-.325 1.237-11.924 1.953-24.967 2.203-38.625-7.68-2.376-14.544-7.382-14.62-18.61v-43c.018-1.53.138-3.002.353-4.397l-.7.64-.09.073c-1.86 1.45-2.54 2.45-5.04 3.068v61.65l-26.87.32c8 13.39 12.96 26.46 12.21 39.22" id="Shape" fill="#ED174C"/><path d="M317.06 335.85c2.358-12.12 7.14-26.21 13.155-40.575v-.51c-.723 1.14-1.624 2.217-2.665 3.192-5.465 4.966-14.487 6.86-28.51 5.975-2.685-.215-5.986-.47-9.4-1.072-.23 12.933-.906 25.436-2.064 37.026 10.77-.797 20.583-2.158 29.483-4.035" id="Shape" fill="#ED174C"/><path d="M361.78 226.148v-1.654s.14.03.416.08c6.298-24.844 1.77-45.362-5.725-62.95-24.28-26.295-58.57-43.267-96.89-44.713 8.24 11.96 14.22 32.04 18.42 51.7 3.06.63 4.43 1.91 5.04 4.15 1.87-1.62 4.38-2.32 6.64-2.582.73-.107 1.46-.144 2.19-.156.45-.095.88-.17 1.36-.24 1.89-.254 3.924-.163 6.116.04 3.423.305 7.03.66 9.46 2.37v-.723c1.78.26 3.564.505 5.35.74v-.79c3.36.417 6.553.88 9.96 1.34.514.097 1.04.18 1.61.22 0 .31-.02.607-.02.91.65.1 1.28.206 1.928.314v-.903c7.38 1.115 14.46 2.374 21.78 3.89.556.114 1.023.233 1.55.346 0 .41 0 .78.05 1.207v.244c0 .556-.13 1.977-1.206 3.08-.233 1.315-.96 3.02-3.02 4.21-.487.268-1.03.405-1.585.536-.11 7.733-.232 15.23-.32 23.02-.385-.062-.744-.14-1.115-.193-.016 1.392-.028 2.26-.028 2.26-.035.736-.058 1.466-.08 2.2-5.31-.927-10.63-1.88-15.95-2.86 0 0 .334-24.088.334-26.427-.815-.12-1.665-.254-2.487-.383-.1 7.338-.21 14.6-.334 22.09-.357-.06-.697-.107-1.067-.157 0 .73-.003 1.466-.026 2.196-.023.7-.045 1.382-.064 2.08-5.274-.7-10.526-1.42-15.8-2.17.024-1.317.04-2.64.063-3.958-.284.287-.61.564-.955.813-2.754 1.905-7.25 2.684-13.44 2.21-.14-.01-.302-.015-.45-.03-2.24-.186-6.232-.55-9.285-2.285.59 4.473 1.134 9.06 1.643 13.73 1.046-.285 2.152-.54 3.313-.737.05 0 .1-.01.147-.01 1.197-.364 2.476-.66 3.84-.886 3.39-.56 7.265-.615 12.908-.223l.037.007c9.8.767 19.852 1.58 24.125 9.86v-5.87l6.24-.22c1.708-.05 3.703.074 5.855.425 5.24.315 12.67 2.332 18.595 7.975.304-1.04.61-2.07.888-3.095" id="Shape" fill="#ED174C"/><path d="M324.08 363.397c3.145 3.784 9.038 4.317 17.458 1.64 3.24-2.613 6.39-5.36 9.415-8.292 13.336-12.862 23.74-27.963 30.946-44.447-1.09-.21-2.16-.43-3.25-.637-12.2 12.17-30.68 22.55-56.92 28.63-1.74 10.57-1.24 18.79 2.34 23.11" id="Shape" fill="#ED174C"/><path d="M319.974 366.817c-4.425-5.33-5.36-14.278-3.857-25.327-8.86 1.773-18.557 3.06-29.12 3.795-2.398 20.52-6.412 37.814-12.392 49.044 20.64-2.99 40.204-10.6 57.46-22.3-5.163-.06-9.23-1.77-12.09-5.22" id="Shape" fill="#ED174C"/><path d="M248.962 345.94c-2.163 12.775-7.9 22.94-16.753 29.458-8.6 6.287-19.9 9.23-33.73 8.814 16.59 7.272 34.62 11.253 53.28 11.6 5.464.093 10.86-.156 16.21-.672 6.494-9.71 10.982-27.424 13.642-49.506-11.635.612-22.51.68-32.664.305" id="Shape" fill="#ED174C"/><path d="M408.93 280.672c-2.145-1.16-4.353-2.45-6.435-4.005-.798 5.934-1.973 12.24-3.448 17.917l1.01.237v-.04c3.055.74 5.97 1.41 8.918 2.11.012-1.643.012-4.002.012-6.04 0-3.807-.015-7.793-.056-10.164zm-302.522-46.43c11.022-73.13 74.845-129.175 150.605-127.8 73.69 1.348 134.128 56.136 145.1 126.737 2.207-.28 4.707-.09 7.482.6v.01c.186.06 1.858.5 2.13.562.046.012.12.024.186.034h-.03c.78.202 1.76.45 2.85.73-4.44-34.18-19.622-65.966-44.02-91.3-30.02-31.2-70.3-48.815-113.46-49.607-83.65-1.53-153.82 61.74-163.55 143.24 2.18-.578 4.39-1.14 6.57-1.688 2.07-.545 4.106-1.06 6.15-1.535zM393.5 314.68v-3.495c0 .007-.016.007-.016.03v3.465l-1.296-.28c-23.09 54.792-77.737 92.903-140.61 91.75-68.185-1.24-125.507-49.073-142.296-112.04v17.197c-.017.007-.017.007-.03.007v6.048l-2.254.574c-.706.156-1.4.33-2.094.486 23.953 57.642 80.258 98.742 146.452 99.935 43.147.8 84.047-15.337 115.193-45.422 16.59-16.056 29.33-35.01 37.75-55.776-2.6-.62-5.24-1.22-8.08-1.86l-2.72-.62zM273 181.98c.11-1.54.173-1.512.15-4.36.098-3.703-1.03-3.573-3.713-3.662-.636 0-1.283.005-1.833-.036-.052 3.222-.098 6.284-.128 9.512 1.28.018 2.643.047 3.915.073 1.03.036 1.61-.813 1.61-1.526zm-15.534-13.943v.3c-.15 11.32-.34 22.17-.485 33.522 3.96-.07 7.87-.04 11.86.05.07-4.55.11-8.87.19-13.43h.23c2.76.08 2.68 1.16 2.68 1.53-.03.99 0 3.92.08 5.32 0 .26.03.44.03.67.03 1.95.11 2.18.23 2.32.78 2.3 2.89 3.74 6.21 4.24.087.02.168.03.247.042.048 0 .076-.03.076 0 .874.04 1.73.07 2.586.095.16.004.313.004.474.03.347.004.717.022 1.09.04.02-2.047.048-4.03.078-6.027.035-2.165.058-4.323.08-6.56 0-1.11-.575-2.393-1.362-3.425l-.105-.16c.09-.105.172-.217.27-.31 1.013-1.15 1.46-2.43 1.48-4.23v-.49c0-.22.07-.4.07-.62.028-3.616.09-6.27-.422-8.217-.61-2.24-1.99-3.516-5.04-4.145-.395-.09-.8-.166-1.27-.233-.026 0-.073-.026-.11-.026h-.085c-1.357-.05-2.73-.09-4.07-.137-5.03-.14-9.97-.2-15-.17zm19.038 1.602c5.163.67 5.407 2.24 5.285 11.2v.65c0 .143-.05.34-.05.48 0 1.92-.49 3.16-2.16 4.47.08.14.23.255.36.36.86.99 1.46 2.34 1.54 3.35-.086 3.812-.13 7.422-.166 11.28-.82-.06-1.578-.09-2.41-.12-2.52-.33-4.34-1.31-5.05-3.27-.11-.287-.185-2.03-.185-2.03 0-.476-.128-4.73-.128-5.99.032-2-1.92-2.752-4.3-2.847-.653-.03-1.21-.03-1.856-.065-.08 4.586-.11 8.917-.187 13.42-2.84-.025-5.63-.008-8.58-.025.155-10.565.31-20.652.462-31.195 5.852.01 11.543.085 17.407.315zm47.652 36.7c.37.05.712.09 1.065.15.12-7.49.23-14.757.34-22.09l.15-10.537c0-.304.02-.6.02-.91-.572-.04-1.1-.124-1.612-.22-3.405-.46-6.597-.924-9.957-1.338v.79c-.15 11.076-.343 21.68-.493 32.76 3.567.39 7.002.87 10.5 1.38zm-8.39-33.44c2.82.35 5.478.72 8.3 1.14-.152 10.44-.278 20.46-.417 30.93-2.84-.398-5.51-.764-8.34-1.12.16-10.477.31-20.5.45-30.96zm-63.736 1.64c.47-.21.915-.46 1.283-.76.314-.24.557-.49.79-.75 1.19-1.38 1.34-2.94 1.34-3.54v-.23c0-.306-.012-.633-.058-.94 0-.1 0-.193-.034-.267-.55-.008-1.07-.008-1.52-.008-7.53.11-14.55.395-21.95.87v.034c-.03 2.424-.07 4.747-.1 7.14 2-.143 3.92-.253 5.933-.38-.126 9.09-.235 17.71-.352 26.81 3.58-.25 7.16-.39 10.79-.494.35-.015.7-.032 1.07-.04.137-8.09.247-15.92.36-23.97.01-.935.03-1.87.05-2.83.866-.097 1.677-.33 2.417-.657zm-4.078-.58c-.093 9.06-.225 17.72-.37 26.81-2.91.08-5.627.2-8.57.34.11-9.06.237-17.71.376-26.77-2.042.12-3.962.193-5.957.34.03-1.55.03-3.03.08-4.55 6.87-.423 13.44-.68 20.28-.76 0-.006.41 4.67-5.83 4.58zm85.482 7.34c-.117 8.94-.232 17.47-.348 26.42 3.63.61 7.102 1.21 10.675 1.89.37.05.73.13 1.12.19.09-7.79.21-15.288.32-23.02.03-1.16.04-2.3.04-3.47 1.47.173 2.68-.017 3.69-.556.355-.215.63-.464.88-.718 1.076-1.105 1.21-2.526 1.21-3.08v-.245c-.053-.43-.053-.8-.053-1.206-.525-.11-.993-.23-1.55-.343-7.32-1.516-14.4-2.774-21.78-3.89v.908c-.01 2.05-.043 4.096-.062 6.16 2 .304 3.86.62 5.875.954zm-4.17-6.48c6.805 1.055 13.294 2.243 20.14 3.64 0 0 .307 4.725-5.783 3.33-.11 8.908-.27 17.457-.38 26.418-2.89-.565-5.68-1.035-8.48-1.51.1-8.923.21-17.473.33-26.408-1.992-.34-3.87-.69-5.87-.99 0-1.524.05-2.975.05-4.484zm-102.842 1.553c.728-.05 1.452-.12 2.192-.174.377-.025.74-.047 1.105-.08 0-2.35.04-4.655.08-7.05v-.01c-.1.01-.19.01-.29.016-.43.026-.9.076-1.34.1-.56.04-1.11.085-1.65.135-6.02.486-11.81 1.054-17.93 1.755v.15c-.15 11.47-.34 22.436-.49 33.88 6.764-.84 13.39-1.523 20.152-2.02.364-.024.724-.058 1.087-.084.03-2.436.076-4.806.076-7.292-3.174.27-6.27.52-9.59.84.013-.69.025-1.373.05-2.063.01-1.15.044-2.308.044-3.48 1.9-.195 3.688-.375 5.48-.49.365-.037.74-.05 1.117-.07.03-3.12.07-6.037.103-9.1-2.18.13-4.306.34-6.56.56 0-.464 0-.904.01-1.366.01-1.21.033-2.41.07-3.613 2.136-.21 4.183-.385 6.265-.545zm-7.917-.61c-.053 2.582-.053 5.06-.105 7.605 2.204-.237 4.384-.428 6.558-.598-.03 2.173-.063 4.29-.093 6.464-2.19.16-4.332.367-6.575.592-.04 2.774-.076 5.41-.104 8.18 3.32-.357 6.407-.607 9.576-.856 0 1.554-.034 3.095-.034 4.645-3.025.237-5.887.49-8.905.8-3.133.304-5.956.6-9.045.967.15-10.603.29-20.778.45-31.388 6.027-.7 11.885-1.23 17.917-1.69-.04 1.476-.04 2.954-.08 4.443-3.17.26-6.257.51-9.56.82zm-44.38 2.6c0 .826.156 2.27 1.51 3.274.965.683 2.175 1.03 3.91.98-.105 9.125-.232 17.87-.382 27.04 6.24-1.18 12.123-2.215 18.333-3.145 2.163-.367 3.955-1.23 5.304-2.49.422-.4.79-.83 1.115-1.31.943-1.355 1.48-3.01 1.527-4.89.04-4.986.11-9.798.185-14.78.086-5.747.162-9.03-2.372-10.22-1.087-.504-2.63-.633-4.858-.396h-.023c-8.194 1.194-15.932 2.54-23.988 4.15v.056c-.105.417-.115.767-.232 1.15 0 .044-.028.286-.028.582zm1.69-.748c7.673-1.513 14.926-2.76 22.5-3.863 6.108-.705 5.802 1.42 5.664 10.51-.09 4.666-.16 9.107-.21 13.75-.19 3.985-2.6 6.56-6.25 7.2-5.69.816-11.03 1.76-16.7 2.81.14-9.096.26-17.81.37-26.9-6.21.89-5.387-3.51-5.387-3.51zm17.91 11.23c-.035 3.62-.192 7.713-.22 11.037-.834.15-1.545.218-2.372.4.106-6.636.18-12.997.256-19.644 1.31-.223 1.77-.254 1.96-.205.18.08.3.61.3 1.06-.01 0-.01.04 0 .076 0 .023.03.034.03.07.15.932.07 3.74.032 7.216zm105.298 7.79c.655.06 1.285.054 1.934.02.3-.82.3-1.56.3-2.45.08-4.44.104-8.693.173-13.126.046-4.367-.018-5.18-3.233-5.53-.636-.054-1.14-.076-1.775-.025-.37 1.334-.406 2.74-.406 4.15-.092 4.487-.104 8.762-.186 13.28-.045 1.727-.19 3.335 3.193 3.68zm-13.427-19.31c-.07 6.32-.144 12.387-.254 18.706.07 7.01 8.195 7.418 12.144 7.746 4.87.36 8.53-.07 10.873-1.278.72-.38 1.31-.826 1.78-1.338.77-.844 1.21-1.9 1.26-3.15 0-.25.03-.523.03-.78.08-6.323.18-12.352.27-18.68 0-3.2-1.146-5.15-2.917-6.38-2.43-1.71-6.038-2.07-9.46-2.376-2.193-.2-4.228-.29-6.12-.034-.474.064-.9.142-1.353.235-4.13.868-6.16 3.28-6.27 7.33zm8.005-6.273c1.56-.212 3.43-.16 5.7.03 6.23.56 10.7 1.06 10.75 7.27-.072 6.327-.16 12.36-.23 18.686 0 .25-.04.516-.04.777-.103 4.287-5.493 5.2-12.252 4.637-6.6-.56-10.444-1.68-10.515-6.33.07-6.326.147-12.347.257-18.726.156-4.355 2.684-5.916 6.345-6.34zM168.94 254.76v-32.52c-1.13.177-2.29.333-3.45.52-7.08 1.048-13.95 2.2-21.09 3.48v.332c.05 26.113-.08 51.188.13 77.302 8.14-1.408 16.057-2.705 24.19-3.882.07-.025.14-.04.23-.047v-45.19zm-3.45 42.74c-5.92.915-11.58 1.768-17.55 2.815 0-24.28-.075-47.473-.075-71.758 5.97-1.08 11.71-1.94 17.633-2.84V297.5zm53.57-80.35c-.18 0-.37.02-.58.03-11.28.707-25.37 2.054-28.33 2.44-.242.033-.52.106-.786.106-.07.005-.127.02-.197.023-1.12.133-2.18.35-3.18.62-.024.01-.04.023-.065.023-5.21 1.452-8.63 4.754-9.64 9.44 0 .56-.2 1.13-.2 1.73v-.268c-.215 1.374-.516 5.992-.516 10.46 0 3.363.163 6.44.915 8.164 3.138 6.96 9.94 8.696 15.68 9.67.198 0 .366.034.557.064 0 .08.212.08.275.075 0 7.62.12 14.88.12 22.48-2.614.3-5.146.59-7.673.86-2.493.305-4.97.613-7.454.96-.07 0-.13.012-.18.024l-.283.033c0 4.88.09 9.63.09 14.544 7.848-1.02 15.314-1.81 23.365-2.54 0 0 .08-.005.034 0 9.16-1.06 16.876-4.396 16.876-15.887 0-5.81.08-10.573.08-14.734 0-3.87 0-6.937-.042-9.278-.032-2.13-.08-3.66-.142-4.666-.242-2.61-1.65-4.6-4.342-6.286-.915-.6-1.915-1.14-3.483-1.69-.96-.41-2.053-.75-3.204-1.12-.162-.04-.353 0-.353-.125-.78-.253-1.495-.49-2.173-.734-3.515-1.273-5.662-2.5-5.69-5.213v-1.682c4.054-.416 7.974-.756 11.988-1.045 4.256-.38 7.368-2.21 9.496-5.544 1.364-2.2 1.84-4.2 1.84-4.763 0 0 .046-.022.046-.07v-.12c0-.51.08-1.037.08-1.642 0-.6-.08-1.152-.08-1.8 0-.93-.236-1.752-.236-2.69h-.04c-.938.068-1.7.12-2.557.163zm-.61 5.974s-.29 1.832-1.444 3.68c-1.323 1.9-3.007 3.51-6.49 3.86-5.19.4-10.224.812-15.446 1.375v4.65c.242 5.203 5.024 6.85 9.795 8.39 1.154.373 2.33.753 3.475 1.194 1.132.38 2.013.9 2.97 1.39 1.723 1.12 2.81 2.32 3 4.3.37 5.4.16 29.454.13 29.494 0 .514-.23 3.173-.68 4.24-2.104 4.93-6.91 6.464-12.86 7.293-6.9.567-13.162 1.385-19.9 2.254 0-2.93-.035-5.77-.035-8.655 5.384-.71 10.414-1.273 15.596-1.76 0-9.108-.12-17.76-.12-26.868-.36-.63-1.045-.862-1.612-1.04-.59-.154-1.277-.195-1.67-.26-6.333-1.02-11.07-2.784-13.43-8.183-1.44-3.625-.19-17.19-.19-17.365 0 0-.086-.503.11-1.21 1-4.3 4.408-6.71 9.775-7.23.254-.14.578-.07.81-.14 3.683-.454 23.016-2.11 28.22-2.4.208.707.208 1.822 0 2.984zm172.618 6.74c-7.552-1.58-14.845-2.997-22.422-4.295v16.56c-.167-.64-.37-1.13-.537-1.73-1.55-4.288-3.77-7.657-6.32-10.31-.29-.297-.59-.58-.886-.864-5.926-5.644-13.36-7.66-18.6-7.975-.76-.04-1.474-.06-2.152-.04 0 0-1.81.004-2.75.04v77.34c8.055 1.01 16.024 2.125 24.053 3.44v-18.25c3.652 8.913 8.013 19.637 8.013 19.637 8.097 1.42 15.71 2.88 23.58 4.585v-77.72c-.676-.136-1.318-.272-1.983-.414zm-1.48 74.455c-5.933-1.24-11.58-2.36-17.72-3.44-4.61-11.507-9.207-22.45-13.81-33.84v31.47c-5.953-.9-11.272-1.696-17.247-2.47 0-24.32.04-47.56.04-71.86 0 0 17.57-.765 23.94 16.48 2.117 6.26 3.996 12.245 5.893 18.46.6 1.55.83 2.966 1.404 4.47v-34.47c5.92 1.09 11.537 2.17 17.5 3.41v71.784zm31.448-49.83v-1.73c4.01 1.09 7.965 2.142 11.97 3.22 4.05 1.122 7.224.45 9.306-2.01 1.567-1.587 2.18-4.35 2.18-4.43 0-.297-.005-.6-.005-.896-.017-.475-.027-.956-.05-1.43-.057-1.303-.144-2.583-.144-3.863v-.03c-.306-.093-.62-.19-.914-.29-.74-.24-1.466-.5-2.196-.72-.11-.04-.212-.062-.322-.11-7.885-2.373-19.325-5.345-25.24-6.852-2.142-.543-3.56-.89-3.81-.965.02.004.05.004.08.004h.035c-.066-.01-.14-.02-.187-.03-7.2-1.72-11.805.59-12.96 5.7 0 .57-.805 7.143-.725 11.723.06 3.31.15 6.455.927 8.43 3.128 8.096 9.945 12.29 15.67 15.258.15.07.407.18.556.26.084.04.29.07.29.16.21 2.32.128 18.047.128 22.54-2.284-.542-4.465-1.063-6.633-1.56-2.95-.696-5.867-1.368-8.92-2.1v14.58c8.042 1.79 15.33 3.58 23.404 5.69 0 0 .074.03.026.03 8.5 1.837 13.87.198 16.4-4.675.43-.835.51-1.95.51-1.95v-.11c0-2.91.087-8.716.094-14.784v-.73c0-5.627-.046-11.016-.173-14.325-.012-.3-.018-.587-.034-.865-.02-.463-.056-.88-.07-1.23-.21-2.7-1.607-5.165-4.29-7.78-.977-.95-1.93-1.85-3.5-2.892-.964-.755-2.12-1.47-3.076-2.215-.12-.076-.37-.22-.484-.337-.964-.67-1.873-1.298-2.677-1.89-3.24-2.37-5.17-4.283-5.17-6.803zm6.32 10.97c1.165.767 2.32 1.58 3.495 2.406.96.815 1.998 1.615 2.96 2.46 1.74 1.727 2.81 3.35 3.01 5.322.33 5.37.158 29.72.158 31.82 0 0 .045.48-.36 1.04-1.908 4.3-5.956 5.557-13.224 3.565-6.704-1.84-13.2-3.335-19.877-4.905v-8.665c5.17 1.205 10.363 2.41 15.55 3.754 0-9.105-.133-17.84-.133-26.94-.396-.684-1.025-1.16-1.63-1.58-.57-.345-1.286-.635-1.64-.855-6.343-3.265-11.12-6.72-13.432-12.936-1.45-4.12-.246-17.273-.246-17.45 0 0 .01-.42.15-1.134 1.01-3.964 4.375-5.13 9.788-3.78.21 0 22.785 5.914 28.91 7.713 0 .972.12 1.992.12 3.005 0 .45-.6 1.94-1.57 3.29-1.366 1.303-3.1 2.31-6.374 1.42-5.162-1.42-10.26-2.77-15.42-4.086v4.685c-.004 5.18 5.16 8.613 9.77 11.834zm-150.86-46.42c0-.975 0-1.87-.202-2.813-.96 0-2.07-.075-3.24-.075-14.48-.31-28.324-.167-42.655.47-1.28.05-2.54.105-3.81.177v16.33c4.24-.23 8.18-.41 12.59-.52v61.47c8.45-.29 16.62-.37 25.1-.29v-61.64c3.073-.29 5.72-1.233 7.85-2.92 1.7-1.44 2.73-3.106 3.384-4.67.86-2.14.983-4.095.983-5.04v-.48zm-15.68 10.223v61.57c-6.13-.074-12.062 0-18.2.18v-61.47c-4.215.113-8.17.22-12.58.452v-10.38c14.55-.718 28.42-.83 43.016-.493 0 0 .997 10.816-12.236 10.147zm-187.13 14.71c-.763.967-1.04 2.158-1.08 3.433.04 2.22.88 4.46 1.435 5.4 1.18 1.84 3.9 4.195 10.07 3.223v61.67c8.404-2.388 16.75-4.41 25.15-6.39.014 0 .014 0 .03-.008v-31.03c4.61-1.09 9.01-2.087 13.59-3.073 10.37-2.318 16.404-9.07 16.478-19.174v-1.142c0-.474.035-.927.035-1.414 0-10.923.09-18.13-2.52-22.042-.12-.2-.246-.38-.384-.54-.034-.04-.046-.08-.08-.105-.117-.14-.245-.276-.348-.4l-.07-.05c-.13-.144-.28-.28-.416-.41-.012 0-.012 0-.012-.004-2.07-1.774-5.27-2.398-10.19-1.92-.112.022-.47.06-.73.11-.05.004-.094.004-.14.004-.03.02-.093.03-.093.03-.416.08-.816.16-1.232.244-.093.035-.196.06-.312.065-1.58.35-3.145.7-4.7 1.06-.297.055-.608.127-.897.194-2.34.516-4.646 1.055-6.94 1.587-.92.22-1.823.44-2.726.66-.27.064-.56.13-.826.195-2.172.53-4.34 1.062-6.51 1.62-2.18.546-4.39 1.11-6.57 1.685-.34.09-.68.175-1.024.26-5.92 1.58-11.908 3.246-17.97 5.017-.404.43-.66.816-1.01 1.24zm2.49 1.304c16.275-4.723 31.91-8.698 48.227-12.223 10.81-1.07 11.534 2.18 11.534 22.98 0 .56-.046 1.05-.046 1.54v1.13c-.03 8.87-5.12 13.783-13.012 15.54-5.74 1.28-11.26 2.513-17.04 3.886v31.037c-6.13 1.425-12.143 2.995-18.267 4.64-.202-20.743-.045-40.72-.045-61.51-13.23 3.85-11.345-7.01-11.345-7.01zM109 266.01v-16.45c.358-.114.722-.15 1.133-.262.752-.107 1.555-.267 2.314-.452.96-.147 1.163.03 1.573.933 0 .484.075 13.144.075 15.06-1.73.37-3.373.75-5.096 1.17zm197.077-48.937h-.034c-5.644-.39-9.52-.33-12.908.23-1.364.227-2.644.52-3.84.885-8.257 2.51-12.312 8.31-12.395 17.635v43.373c.11 15.59 15.53 16.798 25.736 17.59 12.666.81 21.033-.87 25.625-5.12 2.62-2.446 3.99-5.645 4.04-9.486 0-.052.05-1.847.05-1.847v-43.36c-.03-4.207-.84-7.47-2.14-10.04-4.27-8.28-14.32-9.094-24.13-9.86zm22.74 63.25c0 .6-.04 1.2-.04 1.8-.122 9.89-11.433 12.07-25.868 11.13-14.02-1.09-22.41-3.338-22.48-14.058v-43.34c.07-10.055 5.36-13.76 13.26-15.07 3.45-.556 7.29-.534 12.1-.194 13.264 1.05 22.88 1.997 23.02 16.38v43.358h-.007zm-21.6-6.3s-.077 1.86-.077 2.28h-.2l-.678-.03c-3.354-.28-3.87-.87-3.87-3.195 0-.464 0-1 .04-1.61v-30.9l-.04-1.18v-1.226c0-.6.03-1.184.087-1.72l.03-.217V236c0-.552.04-1.11.12-1.65.13 0 .27 0 .41.03h.07l.09.01c1.44.125 3.2.374 3.45.855.55 1.12.55 4.476.55 8.36v30.42z" id="Shape" fill="#006BB6"/><path d="M218.023 275.48l-.04 7.1c4.522 5.93 8.714 11.765 12.392 17.508v-9.62c-3.8-5.445-7.97-10.968-12.342-16.548l-.01 1.56z" id="Shape" fill="#FFF"/><path d="M381.9 312.298c-7.207 16.484-17.61 31.585-30.947 44.447-3.025 2.932-6.176 5.68-9.415 8.292-8.42 2.677-14.31 2.144-17.458-1.64-3.58-4.316-4.084-12.538-2.343-23.107 26.243-6.085 44.72-16.468 56.92-28.63-2.124-.412-4.28-.806-6.502-1.213-11.127 10.048-27.204 18.658-49.307 24.082 1.994-8.99 5.32-19.29 9.543-30.13l-2.17-.26v-8.87c-6.01 14.36-10.79 28.45-13.15 40.57-8.9 1.873-18.712 3.24-29.48 4.03 1.158-11.59 1.834-24.096 2.065-37.03-1.74-.3-3.503-.717-5.232-1.25-.25 13.657-.964 26.7-2.203 38.625-11.613.65-22.44.72-32.56.326.752-12.76-4.216-25.83-12.214-39.213l-6.222.07c8.468 13.534 13.858 26.542 13.118 38.896-47.976-2.717-78.864-16.183-98.232-29.904-1.61.26-3.27.54-4.985.833l-2.926.5c19.546 15.32 52.25 31.03 105.42 33.95-1.995 11.196-6.864 19.74-14.556 25.386-10.166 7.45-24.954 9.552-43.905 6.37-11.307-6.49-21.786-14.627-31.09-24.286-16.31-16.95-27.82-37.272-33.936-59.342 3.91 5.033 9.402 10.965 16.91 17.01l-.036-3.04c0-1.52-.014-3.028-.014-4.546-8.45-7.345-13.772-14.22-16.855-18.933-2.788.615-8.94 1.936-10.84 2.347V294c17.072 62.56 74.4 110.9 142.29 112.14 62.873 1.156 117.52-36.954 140.61-91.745l-2.94-.62c-2.45-.515-4.89-1.003-7.347-1.482m-130.13 83.52c-18.664-.346-36.69-4.33-53.287-11.6 13.82.417 25.127-2.526 33.722-8.814 8.85-6.52 14.59-16.68 16.75-29.46 10.15.375 21.03.306 32.66-.308-2.66 22.087-7.15 39.8-13.64 49.51-5.35.518-10.74.767-16.21.674m22.83-1.48c5.98-11.23 9.995-28.527 12.394-49.045 10.56-.74 20.26-2.024 29.12-3.797-1.505 11.05-.57 19.996 3.855 25.326 2.862 3.45 6.93 5.16 12.092 5.215-17.257 11.707-36.82 19.31-57.46 22.3" id="Shape" fill="#FFF"/><path d="M281.856 203.3c-.023.51-.023.998-.034 1.503v1.807c-.936-.047-1.88-.08-2.816-.122.62 4.728 1.198 9.508 1.718 14.346 1.538-.773 3.243-1.42 5.11-1.912-.508-4.67-1.052-9.256-1.64-13.73-.88-.51-1.69-1.126-2.338-1.89" id="Shape" fill="#FFF"/><path d="M393.484 266.02v45.194c0-.024.017-.024.017-.03v-17.908l5.55 1.31c1.48-5.68 2.65-11.984 3.45-17.918-3.56-2.653-6.8-6.032-9.01-10.65" id="Shape" fill="#FFF"/><path d="M360.895 229.242c.296.283.596.567.885.864v-3.958c-.277 1.022-.584 2.053-.885 3.094" id="Shape" fill="#FFF"/><path d="M148.324 165.76c2.546 20.703 12.504 40.362 24.984 58.904 1.25-1.155 2.683-2.21 4.384-2.93-13.243-19.543-23.226-39.81-24.532-61.35 1.445-1.53 2.943-3.043 4.476-4.533 25.82-24.93 59.486-38.68 95.185-39.04 7.32 8.43 14.12 26.24 19.64 51.4 1.34.05 2.72.09 4.07.14h.09c.04 0 .08.03.11.03.47.07.88.14 1.27.23-4.19-19.65-10.18-39.74-18.41-51.69 38.32 1.45 72.608 18.42 96.89 44.71 7.5 17.59 12.03 38.11 5.73 62.95l5.195.93c4.854-19.74 3.28-36.96-.994-51.87 12.08 16.41 20.67 35.53 24.66 56.25.664.14 1.305.278 1.98.415v.095l.447.096v8.24c.868-1.57 2.058-2.87 3.568-3.833 1.465-.92 3.154-1.476 5.06-1.71-10.97-70.6-71.41-125.387-145.1-126.733-75.757-1.376-139.58 54.67-150.603 127.8.396-.085.79-.19 1.187-.278.903-.22 1.805-.44 2.725-.66 2.3-.548 4.608-1.12 6.94-1.62 4.335-24.26 14.976-47.087 31.064-65.93" id="Shape" fill="#FFF"/><path d="M109.253 317.36v-6.048c-8.402 1.982-16.75 4.005-25.15 6.392v-61.67c-6.172.973-8.89-1.384-10.07-3.222-.555-.94-1.394-3.18-1.434-5.4.04-1.275.31-2.465 1.08-3.434.35-.423.6-.808 1.01-1.24 6.06-1.77 12.04-3.435 17.97-5.015-7.24 1.852-14.62 4.048-22.37 6.255l-1.04.295s-3.748 3.26-3.62 7.626v.17c.03 2.76 1.05 4.83 1.98 6.33 1.26 1.97 4.06 4.79 9.63 5.04v62.035l4.473-1.245c7.844-2.19 15.71-4.083 23.18-5.822.694-.158 1.39-.33 2.095-.49l2.255-.574z" id="Shape" fill="#002D62"/><path d="M100.254 235.78c2.17-.557 4.337-1.09 6.512-1.62-.126.037-.243.06-.358.083-2.047.474-4.083.99-6.154 1.536" id="Shape" fill="#002D62"/><path d="M120.647 284.177c7.49-1.646 13.018-5.32 16.24-10.563 0 9.78.023 19.684.092 29.626 0 1.517.01 3.024.01 4.543l.03 3.042.01 1.106 1.14-.19 2.923-.5c1.712-.29 3.372-.57 4.986-.83 7.165-1.2 13.497-2.18 19.58-3.03l3.03-.44V300c-8.13 1.175-16.05 2.473-24.185 3.88-.21-26.115-.083-51.19-.13-77.302-1.48.26-2.99.517-4.59.795l-2.938.505v5.554c2.613 3.91 2.52 11.12 2.52 22.046 0 .487-.034.938-.034 1.414v1.14c-.076 10.105-6.107 16.856-16.476 19.174-4.58.986-8.98 1.98-13.59 3.072v6.378c2.96-.642 9.12-1.97 10.838-2.346.326-.072.53-.13.53-.13" id="Shape" fill="#002D62"/><path d="M118.154 231.525c1.555-.362 3.123-.712 4.702-1.063-.07.03-.163.05-.244.072-1.017.225-3.116.678-4.458.99" id="Shape" fill="#002D62"/><path d="M361.78 226.148v3.958c2.55 2.653 4.77 6.023 6.315 10.308.17.6.37 1.09.538 1.727v-16.41c-.445-.07-.856-.14-1.243-.22-2.51-.45-4.406-.78-5.194-.93l-.416-.07v1.65z" id="Shape" fill="#002D62"/><path d="M444.473 248.844v-.182c0 .296.006.6.006.895 0 .076-.62 2.842-2.19 4.427-2.08 2.462-5.26 3.135-9.31 2.01-4.007-1.077-7.963-2.128-11.97-3.22v1.726c0 2.52 1.93 4.432 5.17 6.803l2.683.72c7.125 1.98 11.045-1.084 12.76-3.106-.06.064-.105.127-.17.186l.186-.204c-.018 0-.018.01-.018.01 0-.01.015-.02.015-.02 2.216-2.4 2.917-5.92 2.917-6.75l-.095-3.31z" id="Shape" fill="#002D62"/><path d="M409.594 233.785c-2.775-.686-5.274-.878-7.483-.605-1.9.232-3.59.79-5.06 1.71-1.51.96-2.7 2.262-3.56 3.832v-8.24l-.44-.096v77.63c-7.87-1.705-15.482-3.164-23.58-4.585 0 0-4.36-10.72-8.013-19.63v18.25c-8.03-1.31-15.996-2.43-24.053-3.44v-77.34c.945-.03 2.754-.04 2.754-.04.677-.02 1.393 0 2.153.04-2.155-.35-4.15-.47-5.855-.42l-6.24.22v5.87c1.3 2.57 2.106 5.83 2.14 10.04v43.35s-.045 1.795-.045 1.847c-.05 3.843-1.418 7.04-4.038 9.486-4.59 4.255-12.96 5.935-25.622 5.124-10.21-.793-25.623-2-25.733-17.592v-43.37c.083-9.322 4.136-15.125 12.394-17.634-.043 0-.1.01-.142.01-1.164.2-2.27.455-3.316.74-1.867.493-3.572 1.14-5.11 1.912-2.002 1.02-3.77 2.26-5.222 3.736-.652 1.57-1.68 3.236-3.38 4.674-2.13 1.69-4.778 2.634-7.856 2.923v61.643c-8.476-.08-16.65 0-25.097.29v-61.48c-4.415.106-8.35.29-12.59.515v-16.33c1.27-.07 2.532-.122 3.81-.174-2.903.097-5.807.22-8.74.36 0 .936.237 1.76.237 2.69 0 .645.082 1.2.082 1.8 0 .606-.085 1.13-.085 1.64v.116c0 .05-.046.07-.046.07 0 .56-.475 2.56-1.84 4.76-2.127 3.334-5.24 5.17-9.495 5.548-4.015.29-7.936.63-11.99 1.048v1.684c.03 2.71 2.174 3.94 5.69 5.215 1.58-.15 2.802-.25 2.802-.25 4.424-.39 7.97-2.07 10.654-4.98v4.72s9.035-.363 12.71-.523v60.885l.836-.01 6.224-.07 26.87-.31v-61.65c2.496-.617 3.18-1.615 5.04-3.067l.092-.073.703-.64c-.21 1.39-.332 2.86-.35 4.39v43c.076 11.23 6.94 16.238 14.62 18.61 1.73.536 3.494.954 5.235 1.254 3.41.604 6.714.858 9.398 1.073 14.025.884 23.047-1.01 28.51-5.978 1.043-.974 1.944-2.05 2.668-3.193v9.38l2.177.255.947.117c8.564 1.057 16.47 2.168 24.155 3.404l4.09.64 3.97.72c2.26.39 4.463.78 6.598 1.17 2.22.408 4.378.8 6.5 1.214 1.087.21 2.162.43 3.244.64 2.458.48 4.89.965 7.344 1.482l2.945.62 1.294.28v-48.66c2.21 4.62 5.45 8 9.01 10.65 2.084 1.556 4.29 2.847 6.44 4.006.04 2.37.06 6.36.06 10.164 0 2.04 0 4.398-.01 6.044 2.17.5 4.35 1.02 6.63 1.57 0-4.5.084-20.225-.125-22.54 0-.095-.21-.12-.29-.165-.15-.08-.408-.19-.557-.26-5.73-2.97-12.548-7.163-15.675-15.26-.776-1.976-.867-5.122-.926-8.43-.08-4.58.72-11.154.72-11.725 1.157-5.115 5.765-7.42 12.96-5.7-.27-.07-1.944-.508-2.13-.568v-.02z" id="Shape" fill="#002D62"/><path d="M411.8 234.396c.247.08 1.663.423 3.81.967-.3-.072-.602-.14-.89-.232-1.088-.27-2.065-.52-2.847-.73h-.074" id="Shape" fill="#002D62"/><path d="M441.842 242.525l-.67-.197c.73.22 1.456.48 2.19.72l-1.52-.523z" id="Shape" fill="#002D62"/><path id="Shape" fill="#002D62" d="M444.29 243.368h-.013c0 1.28.087 2.562.144 3.862l-.13-3.862z"/><path id="Shape" fill="#002D62" d="M440.287 277.642c.017.278.023.562.034.864.01-.285.02-.574-.03-.864"/><path d="M440.402 308.45s-.08 1.12-.51 1.953c-2.533 4.874-7.9 6.513-16.4 4.676.046 0-.028-.03-.028-.03-8.074-2.11-15.36-3.91-23.406-5.7v-14.53l-1.01-.24-5.547-1.31v21.4l2.73.62c2.85.64 5.48 1.24 8.08 1.853 4.9 1.16 9.61 2.354 15.12 3.78l.07.023.11.05c12.445 2.7 17.597-2.044 19.906-6.49.7-1.353.87-2.877.9-3.306l.02-.133.027-5.323.05-10.43c0-.5 0-1.114-.003-1.77-.01 6.068-.096 11.873-.096 14.78v.11z" id="Shape" fill="#002D62"/><path d="M112.446 248.844c-.76.186-1.562.345-2.314.452-.41.113-.776.148-1.134.26v16.452c1.722-.417 3.365-.795 5.094-1.172 0-1.912-.074-14.573-.074-15.06-.41-.903-.612-1.08-1.572-.932" id="Shape" fill="#002D62"/><path d="M303.207 234.38l-.09-.013h-.07c-.14-.03-.28-.03-.41-.03-.077.547-.123 1.1-.123 1.655v.226l-.034.215c-.057.538-.086 1.12-.086 1.72v1.228l.04 1.18v30.9c-.04.62-.04 1.15-.04 1.61 0 2.33.515 2.92 3.87 3.2l.676.03h.202c0-.42.076-2.272.076-2.272V243.6c0-3.883 0-7.24-.556-8.36-.25-.48-2.008-.73-3.455-.855" id="Shape" fill="#002D62"/><path d="M169.15 255.317c3.625 8.1 11.167 10.47 16.187 11.49.034 3.8.07 13.438.086 16.27 2.527-.265 5.06-.556 7.674-.856 0-7.6-.122-14.86-.122-22.48-.064.01-.277.01-.277-.07-.19-.03-.358-.06-.555-.06-5.743-.97-12.543-2.71-15.678-9.664-.752-1.726-.914-4.8-.914-8.164 0-4.47.31-9.086.52-10.462v.268c0-.6.21-1.172.21-1.73 1.01-4.68 4.43-7.983 9.64-9.44.027 0 .04-.01.068-.02 1-.274 2.06-.49 3.18-.624l.29-.06c-2.285.275-6.64.58-9.843 1.42-.704.17-1.35.39-1.906.625-1.7.717-3.135 1.772-4.385 2.93-2.1 1.944-3.6 4.39-4.376 7.26v22.84c.07.194.13.38.216.55m16.76-34.948c-.02-.06-.02-.105-.02-.122 0 .03 0 .095.02.124" id="Shape" fill="#002D62"/><path d="M169.773 285.034l.087 2.886.098 18.935 4.344-.544c7.274-.92 14.434-1.71 23.235-2.52l.18-.02c13.445-1.76 20.264-8.41 20.264-19.74v-1.44l.04-7.1.02-1.554.03-4.617c0-7.03-.033-10.866-.15-13.11.046 2.34.046 5.407.046 9.277 0 4.16-.08 8.926-.08 14.736 0 11.49-7.715 14.826-16.876 15.886.044-.005-.037 0-.037 0-8.05.73-15.514 1.524-23.362 2.544 0-4.914-.092-9.666-.092-14.545l.284-.035c-4.065.488-8.015.974-8.015.974" id="Shape" fill="#002D62"/><path d="M271.47 177.597v-.26c.047-1.585-.22-1.88-.264-1.913-.186-.12-.938-.148-1.574-.14h-.196c-.08 0-.14-.025-.225-.025-.04 2.32-.04 4.56-.07 6.9.72-.01 1.4.02 2.11.05.09-.078.09-.15.09-.22v-.04c0-.15.04-.29.04-.444.105-.96.083-1.218.105-2.7v-1.224z" id="Shape" fill="#ED174C"/><path d="M271.47 177.597v-.26c.047-1.585-.22-1.88-.264-1.913-.186-.12-.938-.148-1.574-.14h-.196c-.08 0-.14-.025-.225-.025-.04 2.32-.04 4.56-.07 6.9.72-.01 1.4.02 2.11.05.09-.078.09-.15.09-.22v-.04c0-.15.04-.29.04-.444.105-.96.083-1.218.105-2.7v-1.224z" id="Shape" fill="#002D62"/><path d="M272.27 198.335c-.117-.144-.197-.377-.227-2.326 0-.24-.03-.42-.03-.68-.08-1.4-.114-4.33-.08-5.32 0-.37.08-1.45-2.678-1.53h-.226c-.09 4.56-.13 8.88-.2 13.42-4-.094-7.9-.117-11.86-.054.14-11.35.33-22.204.48-33.524h-2.08c.043.31.055.635.055.943v.226c0 .6-.15 2.16-1.34 3.537-.278 1.1-.86 2.405-2.11 3.54-.12 9.63-.26 19.275-.4 28.91 5.35.065 10.71.083 16.078.083.016-.55.023-1.116.04-1.666 0 0 .02-1.223.02-1.515 1.115 1.655 3.224 3.34 7.325 3.892h.12c.075.002.156.013.23.03 1.204.06 2.407.103 3.604.163-.16-1.294-.344-2.62-.53-3.91-3.314-.503-5.43-1.94-6.205-4.24" id="Shape" fill="#ED174C"/><path d="M272.27 198.335c-.117-.144-.197-.377-.227-2.326 0-.24-.03-.42-.03-.68-.08-1.4-.114-4.33-.08-5.32 0-.37.08-1.45-2.678-1.53h-.226c-.09 4.56-.13 8.88-.2 13.42-4-.094-7.9-.117-11.86-.054.14-11.35.33-22.204.48-33.524h-2.08c.043.31.055.635.055.943v.226c0 .6-.15 2.16-1.34 3.537-.278 1.1-.86 2.405-2.11 3.54-.12 9.63-.26 19.275-.4 28.91 5.35.065 10.71.083 16.078.083.016-.55.023-1.116.04-1.666 0 0 .02-1.223.02-1.515 1.115 1.655 3.224 3.34 7.325 3.892h.12c.075.002.156.013.23.03 1.204.06 2.407.103 3.604.163-.16-1.294-.344-2.62-.53-3.91-3.314-.503-5.43-1.94-6.205-4.24" id="Shape" fill="#002D62"/><path d="M278.797 202.617c0-.03-.027 0-.076 0-.08-.012-.16-.024-.24-.04.19 1.29.37 2.616.53 3.91.94.042 1.88.076 2.82.123v-1.81c.018-.503.018-.99.04-1.5-.173-.185-.335-.38-.473-.59-.855-.02-1.71-.053-2.585-.093" id="Shape" fill="#FFF"/><path d="M278.797 202.617c0-.03-.027 0-.076 0-.08-.012-.16-.024-.24-.04.19 1.29.37 2.616.53 3.91.94.042 1.88.076 2.82.123v-1.81c.018-.503.018-.99.04-1.5-.173-.185-.335-.38-.473-.59-.855-.02-1.71-.053-2.585-.093" id="Shape" fill="#002D62"/><path d="M311.71 178.564c-.092 6.325-.192 12.354-.278 18.68 0 .253-.034.525-.034.78-.047 1.247-.487 2.305-1.262 3.15-.244 1.272-.856 2.393-1.81 3.317-.024 1.32-.04 2.65-.063 3.96 5.273.75 10.525 1.47 15.8 2.17.017-.69.04-1.37.063-2.07.023-.73.027-1.464.027-2.193-3.5-.51-6.933-.99-10.502-1.382.16-11.08.35-21.683.5-32.76-1.78-.237-3.57-.48-5.35-.742v.726c1.77 1.23 2.92 3.18 2.92 6.38" id="Shape" fill="#ED174C"/><path d="M311.71 178.564c-.092 6.325-.192 12.354-.278 18.68 0 .253-.034.525-.034.78-.047 1.247-.487 2.305-1.262 3.15-.244 1.272-.856 2.393-1.81 3.317-.024 1.32-.04 2.65-.063 3.96 5.273.75 10.525 1.47 15.8 2.17.017-.69.04-1.37.063-2.07.023-.73.027-1.464.027-2.193-3.5-.51-6.933-.99-10.502-1.382.16-11.08.35-21.683.5-32.76-1.78-.237-3.57-.48-5.35-.742v.726c1.77 1.23 2.92 3.18 2.92 6.38" id="Shape" fill="#002D62"/><path d="M249.61 175.204c-.017.962-.034 1.895-.047 2.83.787-.284 1.48-.64 2.047-1.114.144-.12.254-.232.376-.336.017-.684.024-1.347.04-2.036-.738.326-1.55.558-2.416.656" id="Shape" fill="#ED174C"/><path d="M249.61 175.204c-.017.962-.034 1.895-.047 2.83.787-.284 1.48-.64 2.047-1.114.144-.12.254-.232.376-.336.017-.684.024-1.347.04-2.036-.738.326-1.55.558-2.416.656" id="Shape" fill="#002D62"/><path id="Shape" fill="#ED174C" d="M229.508 169.088c-.358.024-.74.04-1.105.067-.643.052-1.255.093-1.88.14v.03c.544-.05 1.094-.095 1.648-.136.45-.03.91-.08 1.34-.11"/><path id="Shape" fill="#002D62" d="M229.508 169.088c-.358.024-.74.04-1.105.067-.643.052-1.255.093-1.88.14v.03c.544-.05 1.094-.095 1.648-.136.45-.03.91-.08 1.34-.11"/><path d="M237.697 175.728c-2.013.125-3.932.235-5.934.38.035-2.393.076-4.716.104-7.138-.676.03-1.376.07-2.07.113-.035 2.395-.08 4.698-.08 7.048-.366.04-.73.06-1.106.09 0 .73 0 1.46-.02 2.19-.02.44-.04.87-.05 1.31l3.75-.194c-.03 3.265-.32 26.718-.32 26.718 5.356-.174 10.718-.4 16.067-.65.04-.516.058-1.03.087-1.536 0 0 0-.757.025-1.997-3.63.106-7.21.245-10.79.494.117-9.1.227-17.72.354-26.81" id="Shape" fill="#ED174C"/><path d="M237.697 175.728c-2.013.125-3.932.235-5.934.38.035-2.393.076-4.716.104-7.138-.676.03-1.376.07-2.07.113-.035 2.395-.08 4.698-.08 7.048-.366.04-.73.06-1.106.09 0 .73 0 1.46-.02 2.19-.02.44-.04.87-.05 1.31l3.75-.194c-.03 3.265-.32 26.718-.32 26.718 5.356-.174 10.718-.4 16.067-.65.04-.516.058-1.03.087-1.536 0 0 0-.757.025-1.997-3.63.106-7.21.245-10.79.494.117-9.1.227-17.72.354-26.81" id="Shape" fill="#002D62"/><path d="M254.1 173.04c-.233.255-.476.51-.79.746-.37.302-.815.55-1.282.76-.017.69-.023 1.353-.04 2.037 1.248-1.135 1.832-2.44 2.11-3.544" id="Shape" fill="#ED174C"/><path d="M254.1 173.04c-.233.255-.476.51-.79.746-.37.302-.815.55-1.282.76-.017.69-.023 1.353-.04 2.037 1.248-1.135 1.832-2.44 2.11-3.544" id="Shape" fill="#002D62"/><path d="M254.1 173.04c-.233.255-.476.51-.79.746-.37.302-.815.55-1.282.76-.017.69-.023 1.353-.04 2.037 1.248-1.135 1.832-2.44 2.11-3.544" id="Shape" fill="#002D62"/><path d="M345.228 183.323c0 1.17-.012 2.31-.034 3.47.556-.13 1.1-.268 1.585-.534 2.05-1.2 2.78-2.9 3.01-4.22-.25.25-.53.5-.88.72-1.01.53-2.22.73-3.69.55" id="Shape" fill="#ED174C"/><path d="M345.228 183.323c0 1.17-.012 2.31-.034 3.47.556-.13 1.1-.268 1.585-.534 2.05-1.2 2.78-2.9 3.01-4.22-.25.25-.53.5-.88.72-1.01.53-2.22.73-3.69.55" id="Shape" fill="#002D62"/><path d="M328.042 184.794c0 2.338-.337 26.43-.337 26.43 5.32.978 10.642 1.932 15.95 2.858.025-.736.047-1.466.082-2.2 0 0 .012-.868.024-2.262-3.57-.677-7.04-1.283-10.67-1.892l.35-26.422c-2.01-.333-3.87-.65-5.87-.957.02-2.07.05-4.12.07-6.16-.646-.11-1.28-.22-1.926-.32-.044 3.54-.09 7.03-.142 10.53.82.13 1.67.27 2.487.38" id="Shape" fill="#ED174C"/><path d="M328.042 184.794c0 2.338-.337 26.43-.337 26.43 5.32.978 10.642 1.932 15.95 2.858.025-.736.047-1.466.082-2.2 0 0 .012-.868.024-2.262-3.57-.677-7.04-1.283-10.67-1.892l.35-26.422c-2.01-.333-3.87-.65-5.87-.957.02-2.07.05-4.12.07-6.16-.646-.11-1.28-.22-1.926-.32-.044 3.54-.09 7.03-.142 10.53.82.13 1.67.27 2.487.38" id="Shape" fill="#002D62"/><path d="M208.596 171.236c-1.197.136-2.417.254-3.654.385-.567.07-1.122.14-1.69.2v1.02c2.535 1.19 2.46 4.48 2.373 10.22-.076 4.99-.146 9.8-.186 14.78-.05 1.88-.59 3.54-1.53 4.89-.26.93-.63 1.78-1.14 2.567-.02 1.223-.03 2.446-.05 3.685.85-.094 1.68-.207 2.52-.31 7.46-.864 14.32-1.55 21.08-2.04.63-.05 1.27-.087 1.88-.14.01-1.13.03-2.263.05-3.383-6.76.5-13.39 1.18-20.154 2.02.15-11.444.334-22.41.484-33.88" id="Shape" fill="#ED174C"/><path d="M208.596 171.236c-1.197.136-2.417.254-3.654.385-.567.07-1.122.14-1.69.2v1.02c2.535 1.19 2.46 4.48 2.373 10.22-.076 4.99-.146 9.8-.186 14.78-.05 1.88-.59 3.54-1.53 4.89-.26.93-.63 1.78-1.14 2.567-.02 1.223-.03 2.446-.05 3.685.85-.094 1.68-.207 2.52-.31 7.46-.864 14.32-1.55 21.08-2.04.63-.05 1.27-.087 1.88-.14.01-1.13.03-2.263.05-3.383-6.76.5-13.39 1.18-20.154 2.02.15-11.444.334-22.41.484-33.88" id="Shape" fill="#002D62"/><path d="M219.885 194.493c2.157-.182 5.424-.455 5.424-.455.02-.49.04-.984.08-1.465.01-.684.01-1.365.01-2.055-1.8.12-3.58.3-5.48.493 0 1.18-.038 2.34-.05 3.49" id="Shape" fill="#ED174C"/><path d="M219.885 194.493c2.157-.182 5.424-.455 5.424-.455.02-.49.04-.984.08-1.465.01-.684.01-1.365.01-2.055-1.8.12-3.58.3-5.48.493 0 1.18-.038 2.34-.05 3.49" id="Shape" fill="#002D62"/><path d="M226.42 176.386c-2.082.16-4.13.338-6.27.545-.033 1.21-.057 2.41-.07 3.62 2.963-.23 8.44-.68 8.44-.69 0-.04 0-.1.017-.14-1.203.06-2.175.12-2.175.12.012-1.15.046-2.31.058-3.44" id="Shape" fill="#ED174C"/><path d="M226.42 176.386c-2.082.16-4.13.338-6.27.545-.033 1.21-.057 2.41-.07 3.62 2.963-.23 8.44-.68 8.44-.69 0-.04 0-.1.017-.14-1.203.06-2.175.12-2.175.12.012-1.15.046-2.31.058-3.44" id="Shape" fill="#002D62"/><path d="M228.612 176.212c-.74.055-1.464.122-2.192.174-.012 1.132-.046 2.288-.058 3.442 0 0 .972-.06 2.175-.118.012-.436.03-.873.053-1.307.022-.73.022-1.46.022-2.19" id="Shape" fill="#ED174C"/><path d="M228.612 176.212c-.74.055-1.464.122-2.192.174-.012 1.132-.046 2.288-.058 3.442 0 0 .972-.06 2.175-.118.012-.436.03-.873.053-1.307.022-.73.022-1.46.022-2.19" id="Shape" fill="#002D62"/><path d="M228.612 176.212c-.74.055-1.464.122-2.192.174-.012 1.132-.046 2.288-.058 3.442 0 0 .972-.06 2.175-.118.012-.436.03-.873.053-1.307.022-.73.022-1.46.022-2.19" id="Shape" fill="#002D62"/><path d="M193.653 181.572c-.012-.034-.012-.072 0-.072 0-.45-.122-.98-.306-1.06-.185-.05-.648-.018-1.96.205-.077 6.647-.15 13.008-.256 19.646.83-.18 1.54-.24 2.38-.39.03-3.32.19-7.42.22-11.03.04-3.475.12-6.282-.03-7.215 0-.033-.033-.045-.033-.07" id="Shape" fill="#ED174C"/><path d="M193.653 181.572c-.012-.034-.012-.072 0-.072 0-.45-.122-.98-.306-1.06-.185-.05-.648-.018-1.96.205-.077 6.647-.15 13.008-.256 19.646.83-.18 1.54-.24 2.38-.39.03-3.32.19-7.42.22-11.03.04-3.475.12-6.282-.03-7.215 0-.033-.033-.045-.033-.07" id="Shape" fill="#002D62"/><path d="M197.493 206.522c-6.212.93-12.092 1.964-18.332 3.143.15-9.167.28-17.913.39-27.04-1.73.05-2.94-.296-3.91-.98-1.35-1-1.51-2.447-1.51-3.272 0-.296.03-.54.03-.59.12-.38.13-.728.23-1.144-1.3.23-2.6.48-3.89.73-.416.09-.84.17-1.237.25-.127.7-.254 1.43-.382 2.15-.022.07-.033.13-.033.21-.012.19-.034.38-.046.57-.025 2.4 1.22 3.84 2.22 4.59.943.68 1.99 1.03 3.145 1.21-.026 2.83-.35 27.35-.35 27.35.92-.188 1.83-.358 2.77-.535 6.35-1.228 12.144-2.19 18.165-3.06 3.66-.573 6.44-2.31 8.04-4.837 0-.42.02-.835.022-1.25-1.35 1.265-3.14 2.126-5.304 2.493" id="Shape" fill="#ED174C"/><path d="M197.493 206.522c-6.212.93-12.092 1.964-18.332 3.143.15-9.167.28-17.913.39-27.04-1.73.05-2.94-.296-3.91-.98-1.35-1-1.51-2.447-1.51-3.272 0-.296.03-.54.03-.59.12-.38.13-.728.23-1.144-1.3.23-2.6.48-3.89.73-.416.09-.84.17-1.237.25-.127.7-.254 1.43-.382 2.15-.022.07-.033.13-.033.21-.012.19-.034.38-.046.57-.025 2.4 1.22 3.84 2.22 4.59.943.68 1.99 1.03 3.145 1.21-.026 2.83-.35 27.35-.35 27.35.92-.188 1.83-.358 2.77-.535 6.35-1.228 12.144-2.19 18.165-3.06 3.66-.573 6.44-2.31 8.04-4.837 0-.42.02-.835.022-1.25-1.35 1.265-3.14 2.126-5.304 2.493" id="Shape" fill="#002D62"/><path d="M202.795 204.03c-.005.415-.023.83-.023 1.252.51-.785.88-1.634 1.14-2.564-.324.482-.694.913-1.117 1.313" id="Shape" fill="#ED174C"/><path d="M202.795 204.03c-.005.415-.023.83-.023 1.252.51-.785.88-1.634 1.14-2.564-.324.482-.694.913-1.117 1.313" id="Shape" fill="#002D62"/><path d="M202.795 204.03c-.005.415-.023.83-.023 1.252.51-.785.88-1.634 1.14-2.564-.324.482-.694.913-1.117 1.313" id="Shape" fill="#002D62"/><path d="M283.46 180.96c0 .22-.07.403-.07.624v.487c-.024 1.81-.468 3.08-1.48 4.23-.04.16-.1.32-.17.47.79 1.04 1.365 2.32 1.365 3.43-.023 2.24-.045 4.4-.08 6.56.41 2.76.802 5.58 1.17 8.44 3.05 1.74 7.042 2.1 9.286 2.29.15.02.31.026.46.037 6.19.476 10.68-.304 13.44-2.21.35-.25.67-.526.95-.813.01-.656.03-1.326.03-1.98-2.34 1.206-6 1.637-10.87 1.278-3.95-.327-12.07-.735-12.14-7.743.11-6.32.187-12.39.255-18.71.11-4.05 2.14-6.46 6.27-7.33-.73.014-1.463.05-2.186.16-2.267.26-4.777.96-6.64 2.58.517 1.95.453 4.6.426 8.218" id="Shape" fill="#ED174C"/><path d="M283.46 180.96c0 .22-.07.403-.07.624v.487c-.024 1.81-.468 3.08-1.48 4.23-.04.16-.1.32-.17.47.79 1.04 1.365 2.32 1.365 3.43-.023 2.24-.045 4.4-.08 6.56.41 2.76.802 5.58 1.17 8.44 3.05 1.74 7.042 2.1 9.286 2.29.15.02.31.026.46.037 6.19.476 10.68-.304 13.44-2.21.35-.25.67-.526.95-.813.01-.656.03-1.326.03-1.98-2.34 1.206-6 1.637-10.87 1.278-3.95-.327-12.07-.735-12.14-7.743.11-6.32.187-12.39.255-18.71.11-4.05 2.14-6.46 6.27-7.33-.73.014-1.463.05-2.186.16-2.267.26-4.777.96-6.64 2.58.517 1.95.453 4.6.426 8.218" id="Shape" fill="#002D62"/><path d="M282.95 202.78c-.376-.015-.746-.032-1.094-.04v.56c.65.766 1.457 1.383 2.338 1.893-.365-2.86-.76-5.683-1.17-8.437-.028 1.994-.056 3.98-.074 6.023" id="Shape" fill="#FFF"/><path d="M282.95 202.78c-.376-.015-.746-.032-1.094-.04v.56c.65.766 1.457 1.383 2.338 1.893-.365-2.86-.76-5.683-1.17-8.437-.028 1.994-.056 3.98-.074 6.023" id="Shape" fill="#002D62"/><path d="M299.068 195.325c.15.06.295.06.44.05.126-.41.086-.85.126-1.33.04-4.44.116-8.652.145-13.096.02-1.67 0-3.14-.22-3.72 0-.08-.16-.23-1.41-.37-.14.01-.26.01-.34.01-.11.69-.15 1.4-.2 2.19v.76c-.068 4.47-.11 8.77-.17 13.24 0 .022.03.07 0 .07v.53c-.05.51 0 1.06.253 1.31.19.18.606.32 1.36.34" id="Shape" fill="#ED174C"/><path d="M299.068 195.325c.15.06.295.06.44.05.126-.41.086-.85.126-1.33.04-4.44.116-8.652.145-13.096.02-1.67 0-3.14-.22-3.72 0-.08-.16-.23-1.41-.37-.14.01-.26.01-.34.01-.11.69-.15 1.4-.2 2.19v.76c-.068 4.47-.11 8.77-.17 13.24 0 .022.03.07 0 .07v.53c-.05.51 0 1.06.253 1.31.19.18.606.32 1.36.34" id="Shape" fill="#002D62"/><path id="Shape" fill="#ED174C" d="M281.637 186.61c.028.046.07.113.104.16.07-.16.13-.315.17-.47-.1.096-.18.208-.27.31"/><path id="Shape" fill="#002D62" d="M281.637 186.61c.028.046.07.113.104.16.07-.16.13-.315.17-.47-.1.096-.18.208-.27.31"/><path id="Shape" fill="#002D62" d="M281.637 186.61c.028.046.07.113.104.16.07-.16.13-.315.17-.47-.1.096-.18.208-.27.31"/><path id="Shape" fill="#FFF" d="M281.383 202.713c.138.208.3.403.473.588v-.56c-.16-.02-.31-.02-.473-.02"/><path id="Shape" fill="#002D62" d="M281.383 202.713c.138.208.3.403.473.588v-.56c-.16-.02-.31-.02-.473-.02"/><path id="Shape" fill="#002D62" d="M281.383 202.713c.138.208.3.403.473.588v-.56c-.16-.02-.31-.02-.473-.02"/><path d="M308.356 202.51c-.007.655-.024 1.323-.03 1.98.954-.923 1.568-2.045 1.81-3.316-.467.512-1.052.957-1.78 1.335" id="Shape" fill="#ED174C"/><path d="M308.356 202.51c-.007.655-.024 1.323-.03 1.98.954-.923 1.568-2.045 1.81-3.316-.467.512-1.052.957-1.78 1.335" id="Shape" fill="#002D62"/><path d="M308.356 202.51c-.007.655-.024 1.323-.03 1.98.954-.923 1.568-2.045 1.81-3.316-.467.512-1.052.957-1.78 1.335" fill="#002D62"/><path d="M258.632 200.523c2.95.017 5.742 0 8.582.023.076-4.503.104-8.834.185-13.42.64.035 1.2.035 1.85.064 2.37.095 4.33.85 4.29 2.847 0 1.26.126 5.514.126 5.988 0 0 .075 1.744.185 2.03.706 1.957 2.528 2.937 5.05 3.27.83.03 1.59.057 2.41.12.035-3.856.08-7.467.163-11.282-.085-1.01-.685-2.355-1.547-3.347-.13-.105-.27-.22-.36-.36 1.67-1.316 2.16-2.55 2.16-4.474 0-.142.045-.333.045-.48v-.654c.12-8.963-.12-10.53-5.285-11.208-5.867-.23-11.558-.302-17.41-.313-.15 10.54-.31 20.63-.465 31.196m8.97-26.6c.55.04 1.197.036 1.833.036 2.683.08 3.81-.04 3.712 3.66.022 2.84-.04 2.82-.15 4.36 0 .71-.585 1.56-1.61 1.52-1.272-.03-2.636-.06-3.914-.08.03-3.227.078-6.29.13-9.51" fill="#FFF"/><path d="M324.063 174.048c-2.82-.42-5.478-.79-8.3-1.144-.143 10.458-.29 20.483-.457 30.96 2.834.356 5.505.724 8.34 1.12.14-10.47.266-20.49.417-30.936" fill="#FFF"/><path d="M253.78 169.383c-6.842.08-13.41.34-20.276.763-.046 1.52-.046 3.002-.076 4.548 1.994-.148 3.916-.22 5.956-.342-.138 9.06-.265 17.712-.375 26.764 2.94-.136 5.66-.254 8.57-.338.14-9.088.27-17.75.37-26.812 6.23.088 5.83-4.588 5.83-4.583" fill="#FFF"/><path d="M334.757 206.71c2.804.476 5.59.946 8.483 1.51.11-8.96.266-17.51.38-26.416 6.09 1.393 5.785-3.334 5.785-3.334-6.848-1.393-13.336-2.582-20.143-3.64 0 1.51-.05 2.962-.05 4.482 2 .3 3.873.652 5.868.99-.115 8.936-.225 17.486-.323 26.41" fill="#FFF"/><path d="M228.144 170.51c-6.033.46-11.89.992-17.917 1.688-.162 10.61-.3 20.784-.45 31.387 3.087-.368 5.91-.663 9.045-.967 3.02-.313 5.882-.562 8.906-.8 0-1.55.034-3.09.034-4.646-3.17.25-6.258.498-9.577.854.03-2.77.063-5.406.105-8.18 2.243-.227 4.384-.436 6.575-.595.028-2.17.064-4.29.093-6.46-2.174.17-4.355.36-6.56.6.054-2.54.054-5.02.106-7.6 3.3-.31 6.39-.56 9.56-.82.04-1.49.04-2.97.08-4.445" fill="#FFF"/><path d="M181.196 181.13c-.115 9.094-.232 17.807-.376 26.898 5.673-1.05 11.017-1.993 16.702-2.807 3.654-.64 6.066-3.21 6.252-7.19.046-4.64.115-9.09.203-13.75.138-9.09.444-11.21-5.663-10.502-7.575 1.103-14.828 2.35-22.502 3.86 0 0-.828 4.4 5.384 3.507m8.57-1.5c3.69-.736 4.25-.52 4.267-.52 1.423.248 1.267 2.12 1.267 2.12.255 2.757-.22 19.737-.22 19.737-1.92.28-3.695.607-5.605.908.118-7.533.187-14.71.29-22.242" fill="#FFF"/><path d="M286.998 196.127c.07 4.656 3.916 5.772 10.515 6.33 6.76.563 12.15-.35 12.254-4.634 0-.26.04-.527.04-.777.075-6.324.156-12.36.232-18.684-.05-6.21-4.52-6.71-10.75-7.27-2.27-.188-4.14-.243-5.7-.028-3.66.426-6.19 1.988-6.35 6.342-.11 6.38-.185 12.4-.256 18.72m8.83-3.157c.084-4.52.094-8.8.187-13.29 0-1.41.034-2.82.405-4.15.635-.05 1.14-.03 1.774.02 3.215.35 3.28 1.162 3.234 5.53-.07 4.43-.095 8.683-.176 13.123 0 .89 0 1.63-.3 2.45-.648.034-1.28.04-1.93-.017-3.388-.347-3.24-1.955-3.197-3.68" fill="#FFF"/><path d="M147.925 300.32c5.974-1.048 11.636-1.9 17.557-2.815v-71.783c-5.92.902-11.664 1.76-17.633 2.84 0 24.286.07 47.48.07 71.758" fill="#FFF"/><path d="M190.218 222.547c-.23.072-.556 0-.81.14-5.366.52-8.773 2.928-9.774 7.23-.196.706-.11 1.21-.11 1.21 0 .178-1.25 13.742.19 17.366 2.36 5.4 7.097 7.164 13.43 8.184.392.064 1.082.105 1.67.26.568.18 1.255.41 1.614 1.044 0 9.11.127 17.76.127 26.87-5.18.49-10.212 1.05-15.597 1.77 0 2.89.034 5.73.034 8.66 6.737-.87 13-1.685 19.9-2.252 5.95-.83 10.757-2.364 12.862-7.294.45-1.066.682-3.726.682-4.24.03-.04.237-24.095-.133-29.494-.19-1.98-1.28-3.18-3.002-4.3-.96-.494-1.83-1.01-2.97-1.394-1.14-.44-2.32-.82-3.47-1.194-4.77-1.54-9.55-3.187-9.79-8.396v-4.65c5.223-.563 10.26-.974 15.447-1.376 3.48-.352 5.165-1.96 6.49-3.862 1.155-1.846 1.444-3.685 1.444-3.685.208-1.163.208-2.28 0-2.985-5.203.29-24.536 1.947-28.22 2.4" fill="#FFF"/><path d="M305.8 220.585c-4.812-.34-8.658-.362-12.105.194-7.906 1.31-13.19 5.01-13.267 15.07v43.33c.076 10.72 8.46 12.97 22.48 14.05 14.435.94 25.747-1.24 25.867-11.13 0-.603.04-1.2.04-1.796v-43.35c-.13-14.388-9.75-15.33-23.015-16.38zm4.932 53.43c0 .903-.086 1.767-.086 2.664-.19.93-.19 1.76-.394 2.68-.196.18-.37.32-.607.46-1.32.11-2.522 0-3.637-.05-7.184-.6-7.265-4.38-7.11-8.457v-30.76c0-1.318-.12-2.96.077-4.568 0-1.693.248-3.263.647-4.724.25-.12.406-.267.614-.457 1.122-.03 2.157-.108 3.28.042 7.17.635 7.217 2.628 7.217 12.74v30.42z" fill="#FFF"/><path d="M372.074 263.603c-.573-1.502-.803-2.92-1.405-4.468-1.9-6.214-3.78-12.2-5.9-18.46-6.37-17.245-23.94-16.482-23.94-16.482 0 24.3-.04 47.54-.04 71.857 5.97.778 11.29 1.57 17.24 2.47v-31.47c4.604 11.39 9.2 22.337 13.81 33.84 6.143 1.08 11.79 2.2 17.72 3.44v-71.786c-5.96-1.24-11.577-2.318-17.5-3.41v34.47z" fill="#FFF"/><path d="M417.57 253.64v-4.688c5.164 1.31 10.26 2.663 15.424 4.082 3.273.895 5.008-.113 6.373-1.42.97-1.35 1.572-2.84 1.572-3.29 0-1.014-.13-2.035-.13-3.008-6.13-1.8-28.7-7.714-28.91-7.714-5.42-1.348-8.78-.183-9.79 3.78-.145.713-.15 1.134-.15 1.134 0 .177-1.205 13.33.242 17.45 2.314 6.216 7.09 9.67 13.434 12.937.352.22 1.07.51 1.635.852.608.422 1.238.9 1.63 1.582 0 9.096.135 17.834.135 26.938-5.187-1.343-10.38-2.55-15.55-3.754v8.67c6.68 1.57 13.173 3.07 19.876 4.91 7.27 2 11.32.74 13.228-3.56.404-.56.36-1.042.36-1.042 0-2.102.17-26.45-.15-31.82-.21-1.972-1.276-3.594-3.015-5.322-.968-.844-2.008-1.644-2.964-2.46-1.173-.83-2.33-1.64-3.49-2.405-4.61-3.22-9.77-6.652-9.77-11.834" fill="#FFF"/><path d="M230.028 219.623V230c4.407-.23 8.364-.34 12.58-.45v61.476c6.135-.18 12.07-.254 18.2-.18v-61.57c13.23.67 12.235-10.146 12.235-10.146-14.595-.338-28.464-.225-43.015.493" fill="#FFF"/><path d="M87.515 252.292c0 20.79-.157 40.77.045 61.513 6.124-1.646 12.14-3.216 18.27-4.642v-31.035c5.782-1.373 11.3-2.606 17.04-3.888 7.896-1.756 12.984-6.67 13.02-15.54v-1.13c0-.486.045-.972.045-1.534 0-20.803-.723-24.053-11.537-22.975-16.32 3.53-31.952 7.51-48.226 12.23 0 0-1.883 10.86 11.343 7.01zm18.038-4.914c1.364-.33 2.695-.67 4.007-.902 1.37-.338 2.36-.553 3.332-.668 2.69-.304 3.845.82 4.44 2.474.175.794.198 1.613.198 2.51 0 .86.047 1.648.047 2.474 0 0-.047 8.036-.122 12.52 0 .366-.122.81-.122 1.153-.757.22-1.48.41-2.237.63-3.25.72-6.258 1.42-9.542 2.25v-22.45z" fill="#FFF"/></g></svg>