<svg width="512" height="512" viewBox="0 0 512 512" xmlns="http://www.w3.org/2000/svg"><title>golden-state-warriors</title><g fill="none" fill-rule="evenodd"><path d="M142.485 371.426l-20.006 10.088c-1.08.46-1.73.796-1.88 1.006-.54.624-.418 1.47.32 2.573l-.574.656-8.663-7.76.572-.65c1.022.63 1.86.59 2.495-.14.196-.21.507-.96 1.03-2.26l10-26.81c.52-1.33.738-2.29.738-2.938 0-.605-.217-1.24-.725-1.89l.583-.626 9.345 8.375-.56.61c-.994-.534-1.74-.534-2.29.07-.254.294-.53.83-.832 1.574l-7.38 19.033 18.533-9.19c.788-.396 1.29-.69 1.45-.88.56-.618.465-1.4-.3-2.363l.6-.63 9.75 8.764-.547.64c-1.118-.58-1.95-.53-2.465.062-.22.23-.44.72-.75 1.498l-7.23 19.18 17.814-9.26c.896-.46 1.513-.88 1.798-1.21.52-.586.38-1.388-.37-2.4l.54-.65 9.247 8.3-.55.615c-.84-.374-1.48-.56-1.995-.476-.514.024-1.43.4-2.763 1.09l-25.45 12.983c-1.22.618-1.945 1.07-2.22 1.408-.59.63-.487 1.46.31 2.446l-.54.63-8.787-7.852.57-.637c1.055.69 1.9.68 2.586-.08.182-.25.52-1.02.944-2.318l7.655-20.59" fill="#006BB6"/><path d="M131.133 395.02l8.345 7.472.23-.242c-.395-.53-.592-1.045-.592-1.535 0-.4.14-.79.42-1.102.35-.37 1.086-.834 2.31-1.458l25.444-12.96c1.353-.694 2.255-1.083 2.814-1.153.12-.013.21-.013.305-.013.47 0 1.04.14 1.69.47l.23-.28-8.81-7.92-.24.25c.4.58.63 1.09.63 1.58 0 .37-.147.72-.37 1-.356.42-.99.802-1.893 1.254l-18.47 9.623 7.476-19.876c.304-.77.56-1.27.78-1.56.324-.403.794-.6 1.302-.594.41 0 .862.12 1.32.33l.22-.248-9.317-8.37-.24.24c.35.498.54.976.54 1.44.03.415-.14.765-.408 1.064-.25.276-.73.556-1.544.97l-19.194 9.503 7.66-19.69c.297-.776.583-1.33.92-1.655.286-.402.724-.587 1.19-.587.366 0 .785.113 1.2.335l.233-.26-8.93-7.98-.22.254c.424.62.653 1.235.653 1.872-.02.72-.268 1.704-.75 3.035l-10.03 26.79c-.517 1.33-.82 2.07-1.076 2.37-.375.413-.857.674-1.41.674-.425 0-.794-.136-1.25-.365l-.23.254 8.257 7.377.19-.25c-.34-.604-.564-1.15-.564-1.68 0-.395.18-.783.42-1.082.294-.3.897-.594 1.964-1.09l20.01-10.05.654-.338-7.92 21.25c-.444 1.306-.75 2.07-1.022 2.414-.392.4-.875.677-1.364.677-.455 0-.89-.14-1.34-.41l-.233.24zm-.78.06l.176-.224.7-.828.21.14c.47.318.9.446 1.257.446.343 0 .635-.14.927-.47.184-.148.515-.957.927-2.23l7.413-19.896-19.37 9.75c-1.07.446-1.698.822-1.806.95-.183.197-.265.426-.265.687 0 .414.178.892.623 1.554l.13.17-.147.16-.774.82-9.04-8.12.18-.2.7-.802.21.102c.43.267.824.394 1.154.394.363 0 .66-.153.99-.484.085-.1.49-.883.96-2.17l10.036-26.786c.47-1.316.704-2.3.704-2.844 0-.548-.2-1.12-.67-1.726l-.132-.198.14-.155.75-.87 9.78 8.766-.18.204-.69.803-.224-.11c-.426-.252-.83-.354-1.137-.354-.338 0-.567.087-.783.354-.227.25-.513.752-.805 1.484l-7.14 18.36 17.902-8.86c.78-.37 1.276-.69 1.36-.83.22-.205.28-.434.28-.695 0-.325-.174-.758-.58-1.306l-.127-.16.16-.205.73-.828 10.226 9.132-.22.196-.708.82-.166-.12c-.504-.256-.93-.377-1.285-.377-.375.007-.63.135-.85.396-.147.166-.395.638-.674 1.415l-6.98 18.48 17.16-8.94c.885-.443 1.456-.844 1.72-1.12.16-.183.2-.374.225-.635 0-.33-.196-.828-.634-1.388l-.15-.21.15-.194.75-.82 9.67 8.64-.187.23-.706.77-.18-.074c-.69-.358-1.257-.505-1.65-.505-.058 0-.14 0-.21.02-.426.042-1.34.4-2.68 1.06l-25.394 13.01c-1.206.6-1.95 1.09-2.16 1.32-.21.24-.29.44-.297.73 0 .35.184.817.642 1.384l.15.173-.178.19-.738.853-9.19-8.234z" fill="#006BB6"/><path d="M179.19 408.782l.38-14.144-10.967 8.96 10.587 5.184zm-.146 5.445l-14.71-7.215-4.44 3.49c-.596.465-.99.904-1.18 1.274-.31.694-.038 1.44.902 2.23l-.4.77-10.683-5.274.355-.74c.7.18 1.315.205 1.785.02.476-.12 1.143-.566 2.026-1.28l24.11-19.105c.76-.612 1.25-1.166 1.48-1.618.35-.75.16-1.49-.59-2.26l.36-.76 11.49 5.63-.4.77c-1.03-.2-1.73.054-2.05.71-.24.464-.337 1.05-.337 1.783l.095 31.09c0 1.325.132 2.27.33 2.84.183.58.622 1.13 1.23 1.56l-.386.76-11.916-5.847.36-.77c1.14.343 1.893.1 2.293-.707.18-.314.24-.887.24-1.715l.02-5.65z" fill="#006BB6"/><path d="M169.105 403.513l9.793 4.834.38-13.126-10.173 8.3zm10.086 5.267l.11-.255-.1.255zm-11.1-5.133l11.76-9.617-.37 14.756-.02.44-11.36-5.58zm8.42 19.27l11.4 5.61.14-.285c-.523-.44-.9-.975-1.11-1.54-.232-.645-.32-1.613-.32-2.95l-.12-31.002c-.04-.057 0-.09 0-.09 0-.783.08-1.407.36-1.916.274-.624.916-.93 1.697-.93.203 0 .425.02.356.223l.254-.516-10.95-5.39-.17.36c.46.488.69 1.048.69 1.59 0 .286-.058.56-.166.815-.28.56-.774 1.114-1.574 1.725l-24.117 19.093c-.89.74-1.556 1.16-2.115 1.357-.26.083-.546.114-.826.114-.26 0-.59-.03-.876-.114l-.172.313 10.22 5.018.134-.33c-.585-.55-.916-1.11-.94-1.7 0-.27.06-.48.164-.72.216-.41.642-.863 1.277-1.373l4.705-3.514 14.716 7.22-.113.26h.274l-.02 5.646c0 .853-.063 1.445-.273 1.846-.31.65-.914 1.02-1.638 1-.23 0-.48-.024-.76-.094l-.12.293zm-.75.262l.11-.24.498-.98.178.07c.363.09.623.132.85.132.573-.03.897-.23 1.158-.695.1-.254.185-.8.185-1.604v-5.484l-14.24-7.165-4.4 3.494c-.6.47-.948.883-1.113 1.17-.083.16-.108.3-.108.465 0 .388.27.89.92 1.42l.176.14-.095.204-.512 1.023-11.23-5.52.134-.256.49-.957.24.06c.32.084.637.147.94.147.237 0 .485-.038.66-.095.428-.128 1.07-.548 1.95-1.26l24.09-19.1c.746-.58 1.19-1.12 1.42-1.516.1-.21.145-.397.145-.58 0-.428-.22-.868-.697-1.34l-.14-.17.09-.166.47-1.01 12.015 5.883-.105.255-.706.906c-.217-.025-.427-.063-.573-.063-.672.04-1.01.22-1.22.63-.183.38-.284.94-.284 1.67h-.165l.168.01.12 31.08c0 1.307.127 2.236.305 2.765.19.51.533.992 1.117 1.406l.165.134-.096.23-.49 1.017-12.406-6.123z" fill="#006BB6"/><path d="M206.076 411.726l11.896 2.477c1.753.37 2.985.573 3.754.605.737.064 1.454 0 2.115-.235 1.47-.42 2.4-1.567 2.79-3.4.38-1.874-.01-3.262-1.18-4.243-.56-.477-1.17-.84-1.85-1.082-.68-.242-1.88-.56-3.69-.917L208 402.42l-1.924 9.31zm-1.238 5.814l-2.42 11.763c-.14.497-.063.923.114 1.248.178.36.572.66 1.137.96l-.19.82-11.01-2.33.18-.814c.67-.032 1.12-.172 1.43-.39.3-.234.52-.597.64-1.12l6.222-29.983c.12-.49.076-.962-.12-1.286-.16-.312-.547-.624-1.138-.95l.165-.81 22.062 4.625c2.68.554 4.795 1.16 6.313 1.8 1.513.658 2.776 1.467 3.793 2.498 1.17 1.18 1.94 2.645 2.28 4.314.336 1.618.336 3.274-.045 4.968-1.175 5.758-5.087 8.478-11.686 8.12l4.815 11.216c.846 1.94 1.48 3.24 1.95 3.84.465.615 1.1 1.04 1.92 1.24l-.21.834-12.74-2.656.164-.833c.913.057 1.43-.172 1.516-.656.064-.325-.203-1.147-.75-2.522l-4.972-11.93-9.432-1.953z" fill="#006BB6"/><path d="M218.015 413.917c1.74.37 2.99.586 3.715.643.147 0 .274.013.426.013.553 0 1.092-.11 1.588-.255 1.365-.4 2.197-1.44 2.61-3.216.07-.408.108-.86.108-1.223 0-1.19-.4-2.08-1.2-2.72-.56-.48-1.13-.82-1.747-1.07-.648-.23-1.88-.558-3.69-.89l-11.604-2.445-1.82 8.725 11.625 2.427zm3.703 1.178c-.807-.05-2.058-.255-3.83-.63l-11.87-2.484-.28-.05 2.032-9.842 12.188 2.566c1.798.37 3.05.688 3.735.93.705.248 1.36.637 1.924 1.14.928.777 1.398 1.853 1.398 3.165 0 .413-.013.86-.12 1.35-.407 1.89-1.405 3.164-2.954 3.642-.57.154-1.18.224-1.78.224h-.44zm-16.9 2.72l.03-.274-.03.28zm13.832 17.392l12.2 2.535.04-.28c-.706-.236-1.31-.676-1.748-1.268-.52-.662-1.162-1.968-2-3.923l-4.986-11.62.426.03c.393.017.75.03 1.11.03 5.85-.026 9.172-2.6 10.322-7.936.17-.866.247-1.72.247-2.547 0-.776-.05-1.54-.23-2.286-.35-1.623-1.07-3.024-2.18-4.176-.99-.987-2.21-1.79-3.7-2.426-1.494-.63-3.564-1.234-6.244-1.807l-21.92-4.605-.145.28c.61.326 1.038.67 1.26 1.046.127.306.19.56.19.905 0 .21-.02.4-.025.616l-6.27 29.97c-.12.556-.356.98-.737 1.28-.363.295-.89.42-1.31.225l-.12.555 10.55 2.23.164-.277c-.58-.305-1.015-.617-1.27-1.05-.132-.255-.202-.574-.202-.892 0-.17.046-.39.07-.57l2.447-11.736.084-.26 9.876 2.184 4.965 11.916c.49 1.216.776 2.025.776 2.502v.174c-.163.635-.773.89-1.573.87l-.05.33zm-.686.446l.05-.28.465-1.058h.21c.73-.006.96-.178 1.02-.395v-.09c.02-.292-.24-1.075-.746-2.285l-4.757-11.756-9.127-1.92-2.413 11.5c-.033.15-.05.29-.05.43 0 .24.05.44.13.63.165.24.49.53 1.18 1.11l-.24 1.11-11.54-2.45.05-.25.44-1.06c.63-.027 1.04-.167 1.27-.32.234-.18.387-.51.52-.96l6.237-29.97c.02-.187.034-.378.034-.505 0-.256-.03-.466-.126-.6-.108-.26-.457-.54-1.188-1.15l.27-1.09L222 398.97c2.693.587 4.79 1.18 6.345 1.803 1.55.695 2.846 1.53 3.868 2.6 1.213 1.215 2 2.712 2.37 4.425.152.79.234 1.592.234 2.414 0 .866-.1 1.764-.28 2.662-1.124 5.565-4.865 8.405-10.848 8.367H223l4.636 10.81c.84 1.93 1.5 3.23 1.937 3.8.413.588.98.938 1.71 1.148l.272.064-.058.26-.24 1.09-13.3-2.757z" fill="#006BB6"/><path d="M248.376 417.768l12.138-.49c1.797-.057 3.067-.178 3.772-.306.77-.146 1.436-.382 2.02-.738 1.315-.79 1.944-2.115 1.867-4.013-.09-1.87-.775-3.17-2.146-3.84-.674-.3-1.334-.492-2.07-.562-.706-.076-1.982-.076-3.812 0l-12.137.465.368 9.495zm.23 5.93l.495 11.998c0 .54.17.93.42 1.223.26.28.73.47 1.32.61l.04.87-11.23.42-.04-.86c.634-.21 1.072-.44 1.314-.734.22-.28.343-.68.31-1.23l-1.206-30.58c-.02-.555-.16-.95-.42-1.236-.253-.267-.71-.49-1.345-.65l-.026-.82 22.528-.9c2.758-.12 4.936-.07 6.556.21 1.608.256 3.025.747 4.27 1.49 1.42.868 2.527 2.078 3.27 3.63.705 1.486 1.087 3.09 1.18 4.83.224 5.87-2.91 9.462-9.392 10.71l7.4 9.72c1.27 1.7 2.215 2.782 2.83 3.266.565.496 1.296.732 2.134.764v.816l-12.975.503-.05-.81c.87-.2 1.307-.51 1.307-1.015 0-.32-.476-1.056-1.34-2.247l-7.717-10.357-9.624.363z" fill="#006BB6"/><path d="M260.164 408.094l-11.883.172.39 9.21 11.847-.485c1.803-.07 3.055-.17 3.76-.3.68-.12 1.333-.35 1.918-.69 1.125-.7 1.697-1.79 1.697-3.47v-.28c-.082-1.82-.77-2.986-1.994-3.59-.63-.3-1.29-.503-1.95-.554-.338-.05-.815-.076-1.437-.076-.672 0-1.422.025-2.336.076zm-11.788 9.674h-.28l-.1-9.763 12.123-.503c.93-.045 1.7-.045 2.38-.045.62 0 1.11.026 1.48.045.73.083 1.48.306 2.15.637 1.46.7 2.25 2.12 2.32 4.1v.28c0 1.79-.675 3.16-2.01 3.93-.615.39-1.332.66-2.09.79-.76.12-2.03.23-3.802.32l-12.18.46v-.26zm18.61 18.157v.013-.013zm-27.362 2.624l10.987-.16.18-.59c-.66-.12-1.12-.35-1.45-.7-.35-.358-.51-.836-.54-1.415l-.45-11.98.26-.02v-.28l9.85-.235 7.697 10.325c.84 1.102 1.258 1.777 1.277 2.452h.12c0 .7-.615 1.094-1.276.986l-.265.56 12.73-.24.273-.568c-.92-.025-1.675-.286-2.336-.796-.618-.53-1.55-1.63-2.885-3.327l-7.647-10.055.444-.078c6.18-1.26 9.133-4.456 9.164-9.88 0-.187 0-.38-.03-.588-.07-1.695-.435-3.287-1.14-4.72-.713-1.503-1.786-2.643-3.13-3.49-1.196-.72-2.606-1.216-4.163-1.465-1.15-.18-2.572-.275-4.27-.275-.705 0-1.454.047-2.25.066l-22.28.606-.164.586c.665.146 1.122.382 1.484.69.31.35.48.85.48 1.44l1.213 30.625v.083c0 .5-.11.955-.38 1.3-.28.336-.77.623-1.244.546l-.25.58zm-.108-.85c.597-.2.997-.448 1.15-.645.196-.198.292-.51.292-.943 0-.01-.02-.07 0-.108l-1.22-30.583c-.013-.5-.146-.85-.33-1.035-.21-.23-.623-.44-1.423-.833l.242-1.12 22.527-.925c.782-.027 1.556-.033 2.26-.033 1.697 0 3.133.07 4.314.25 1.67.26 3.112.77 4.4 1.56 1.475.876 2.593 2.14 3.387 3.72.705 1.537 1.092 3.187 1.162 4.96.02.207.02.41.02.596.018 5.523-3.12 9.044-9.204 10.318l7.132 9.35c1.302 1.7 2.268 2.77 2.795 3.204.553.465 1.175.688 2.248.975l-.254 1.153-13.293.23.18-1.122c.866-.175 1.09-.443 1.09-.71.03 0 .03-.02 0-.032 0-.18-.422-.945-1.26-2.078l-7.487-10.223-9.324.37.444 11.69c.024.49.164.814.38 1.037.197.217.56.42 1.39.777l-.21 1.17-11.572.16.173-1.127z" fill="#006BB6"/><path d="M286.906 431.95l-6.567-29.894c-.13-.516-.33-.892-.63-1.095-.29-.23-.778-.37-1.46-.4l-.157-.82 10.982-2.425.19.815c-.58.3-.985.612-1.163.943-.17.356-.19.783-.08 1.305l6.585 29.875c.09.553.33.916.646 1.152.3.244.782.36 1.4.384l.196.825-11.005 2.426-.185-.834c.585-.28.986-.624 1.17-.962.165-.33.203-.75.063-1.286" fill="#006BB6"/><path d="M287.248 432.532c0 .312-.05.61-.178.847-.235.4-.647.76-1.105.76l.108.54 10.543-2.33.045-.3c-.66-.03-1.19-.14-1.58-.42-.39-.287-.64-.765-.75-1.325l-6.55-29.894c-.07-.235-.11-.464-.11-.636 0-.31.09-.61.2-.853.235-.432.667-.744 1.143-.744l-.132-.536-10.535 2.308-.03.32c.69.04 1.23.145 1.58.444.396.293.624.73.74 1.242l6.572 29.92-.285.07.286-.07c.047.222.06.44.06.65m-1.665 2.572l-.037-1.16c.565-.268.89-.59 1.035-.828.08-.16.12-.365.12-.588 0-.154-.02-.345-.04-.51l-6.593-29.933c-.094-.45-.29-.756-.507-.91-.248-.164-.66-.304-1.57-.56l-.22-1.113 11.533-2.547.076.267.005 1.15c-.527.268-.87.58-1.02.828-.09.154-.12.358-.12.58 0 .135.01.313.05.49l6.584 29.908c.114.49.3.81.553.973.235.2.654.332 1.51.56l.26 1.096-11.54 2.56-.075-.27" fill="#006BB6"/><path d="M312.34 395.044c-3.18 1.344-5.404 3.414-6.706 6.203-1.537 3.293-1.537 6.75-.045 10.355 1.55 3.605 4.02 5.96 7.47 7.12 2.9.975 5.94.77 9.14-.598 3.2-1.344 5.46-3.407 6.74-6.203.77-1.65 1.15-3.43 1.11-5.34-.02-1.67-.37-3.29-1.02-4.85-1.6-3.74-4.11-6.17-7.51-7.28-2.95-.918-5.97-.74-9.19.604m-2.426-5.642c5.76-2.47 11.02-2.86 15.78-1.184 4.946 1.76 8.55 5.21 10.76 10.407 1.363 3.195 1.75 6.526 1.21 10.05-1.065 6.82-5.435 11.87-13.063 15.136-5.727 2.454-10.986 2.804-15.68 1.14-2.547-.883-4.757-2.31-6.675-4.22-1.72-1.745-3.05-3.74-4.033-6.006-1.42-3.32-1.86-6.725-1.325-10.23 1.01-6.653 5.353-11.7 13.025-15.09" fill="#006BB6"/><path d="M305.87 401.375c-.774 1.605-1.117 3.26-1.117 4.955 0 1.662.343 3.368 1.106 5.164 1.49 3.516 3.93 5.815 7.27 6.96 1.21.41 2.41.606 3.643.606 1.715 0 3.474-.42 5.33-1.184 3.143-1.35 5.33-3.363 6.573-6.082.756-1.567 1.1-3.242 1.1-5.07v-.152c-.027-1.644-.344-3.223-1.024-4.732-1.587-3.694-4-6.038-7.32-7.12-1.196-.382-2.4-.574-3.597-.574-1.76 0-3.57.39-5.41 1.153-3.1 1.35-5.28 3.34-6.563 6.07zm7.096 17.602c-3.513-1.165-6.072-3.617-7.628-7.266-.794-1.82-1.163-3.61-1.163-5.38 0-1.78.394-3.51 1.214-5.21 1.32-2.83 3.61-4.96 6.8-6.34l.13.26-.134-.26c1.905-.81 3.8-1.19 5.646-1.19 1.25 0 2.52.21 3.734.59 3.508 1.12 6.086 3.63 7.71 7.44.676 1.58 1.03 3.22 1.044 5.03v.08c0 1.89-.37 3.69-1.124 5.31-1.3 2.852-3.616 4.986-6.86 6.362-1.92.808-3.77 1.216-5.565 1.216-1.314 0-2.59-.223-3.816-.63zm-2.928-29.32c-7.635 3.394-11.884 8.323-12.862 14.87-.184.917-.235 1.88-.235 2.77 0 2.503.52 4.923 1.53 7.312.95 2.22 2.26 4.22 3.97 5.91 1.904 1.87 4.095 3.29 6.572 4.13 1.887.68 3.868 1.024 5.945 1.024 2.993 0 6.18-.707 9.528-2.134 7.616-3.26 11.85-8.215 12.888-14.94.168-1.013.238-1.994.238-2.956 0-2.388-.463-4.693-1.403-6.92-2.184-5.134-5.72-8.51-10.637-10.24-1.893-.696-3.843-1.027-5.894-1.027-3.023 0-6.224.75-9.62 2.17v.02zm-1.213 35.55c-2.566-.893-4.834-2.338-6.803-4.313-1.714-1.732-3.093-3.744-4.07-6.043-1.036-2.47-1.576-4.96-1.576-7.55 0-.93.083-1.88.24-2.84 1-6.77 5.444-11.895 13.18-15.32 3.468-1.484 6.758-2.23 9.864-2.23 2.108 0 4.166.345 6.078 1.046 5.056 1.77 8.733 5.324 10.975 10.565.946 2.3 1.467 4.68 1.467 7.145 0 .992-.095 1.992-.24 3.043-1.075 6.92-5.514 12.067-13.218 15.353-3.455 1.478-6.714 2.216-9.775 2.216-2.14 0-4.185-.364-6.122-1.064z" fill="#006BB6"/><path d="M345.6 388.246l9.596-7.432c1.442-1.095 2.408-1.923 2.935-2.458.51-.554.93-1.134 1.2-1.79.62-1.388.348-2.827-.79-4.337-1.16-1.49-2.48-2.11-3.99-1.87-.72.11-1.39.35-2.02.71-.596.372-1.632 1.1-3.092 2.23l-9.61 7.42 5.78 7.516zm3.6 4.713l7.337 9.51c.285.39.666.65 1.022.73.39.072.86-.02 1.46-.27l.51.666-8.91 6.885-.52-.644c.39-.564.6-1.004.62-1.373.05-.37-.13-.77-.43-1.21l-18.67-24.204c-.318-.446-.667-.694-1.035-.783-.375-.03-.877.03-1.467.27l-.52-.664 17.85-13.814c2.2-1.695 4.025-2.905 5.47-3.637 1.48-.72 2.912-1.16 4.354-1.255 1.67-.118 3.25.23 4.74 1.04 1.433.792 2.703 1.9 3.77 3.26 3.557 4.68 3.093 9.422-1.486 14.21l11.65 3.63c2.04.6 3.43.96 4.184 1.01.75.03 1.487-.17 2.166-.627l.517.655-10.294 7.992-.51-.688c.624-.64.776-1.18.47-1.57-.19-.267-1.008-.61-2.393-1.05l-12.284-3.967-7.61 5.883z" fill="#006BB6"/><path d="M354.577 370.658c-.66.102-1.302.3-1.88.65-.61.356-1.677 1.095-3.087 2.216l-9.406 7.234 5.424 7.076 9.42-7.26c1.41-1.077 2.368-1.905 2.857-2.44.514-.51.883-1.07 1.17-1.687.164-.46.284-.892.284-1.37 0-.834-.34-1.732-1.05-2.668-.97-1.23-1.996-1.81-3.18-1.81-.168 0-.36 0-.56.05zm-8.987 17.57l.21-.146-.21.147zm-6.173-7.54l9.825-7.642c1.467-1.09 2.515-1.86 3.137-2.204.66-.407 1.38-.636 2.12-.732.23-.07.45-.083.63-.083 1.393 0 2.59.688 3.62 2.038.75 1.013 1.17 2.006 1.17 3.012 0 .574-.113 1.115-.35 1.605-.303.688-.73 1.312-1.262 1.873-.54.535-1.51 1.375-2.947 2.477l-9.61 7.45-.244.167-6.098-7.97zm11.267 29.397l8.472-6.534-.228-.28c-.42.158-.77.228-1.106.228-.095 0-.184 0-.317-.026-.464-.076-.838-.363-1.18-.815L349 393.13l-.193-.238 8.11-6.08 12.277 3.936c1.41.49 2.186.79 2.504 1.166.152.18.216.376.216.593 0 .388-.216.77-.54 1.165l.184.274 9.87-7.616-.204-.254c-.597.324-1.238.51-1.892.51-.05 0-.12.005-.21 0-.812-.04-2.19-.364-4.267-1.014l-12.067-3.763.317-.31c2.522-2.68 3.748-5.26 3.748-7.8 0-2.01-.762-4.01-2.292-6.01-1.06-1.36-2.3-2.44-3.62-3.22-1.3-.73-2.61-1.048-4.012-1.048h-.59c-1.422.134-2.813.53-4.255 1.274-1.466.705-3.263 1.883-5.442 3.57L329 381.93l.21.268c.42-.16.762-.217 1.105-.217.12 0 .23.02.324.03.48.09.85.4 1.24.87l18.64 24.248c.3.407.49.86.49 1.3v.063c-.02.446-.24.854-.56 1.35l.223.255zm-.273.612l-.64-.86.11-.185c.395-.503.56-.923.59-1.184v-.05c0-.275-.12-.613-.41-.963l-18.61-24.232c-.32-.414-.64-.624-.914-.682-.057 0-.115-.01-.21-.01-.286 0-.66.08-1.105.276l-.197.077-.107-.153-.688-.885 18.076-13.994c2.185-1.693 4-2.916 5.513-3.66 1.5-.758 2.99-1.204 4.446-1.293.22-.013.45-.013.66-.013 1.48-.02 2.902.34 4.242 1.095 1.46.82 2.77 1.942 3.835 3.343 1.592 2.07 2.412 4.22 2.412 6.38 0 2.62-1.216 5.254-3.58 7.833l11.21 3.51c2.02.606 3.41.95 4.1.994h.19c.65-.006 1.25-.17 1.81-.58l.252-.134.147.19.705.89-10.783 8.335-.16-.215-.67-.897.16-.16c.406-.405.584-.743.584-.953 0-.086-.07-.156-.096-.23-.07-.12-.883-.557-2.25-.96L357 387.29l-7.387 5.732 7.127 9.272c.305.39.585.573.902.65.012.006.09.006.183.006.274 0 .655-.083 1.093-.267l.197-.097.127.184.69.905-9.348 7.23-.17-.206z" fill="#006BB6"/><path d="M382.08 333.97l3.862 8.73-.775.312c-.146-.127-.24-.23-.292-.292-.476-.383-1.308-.39-2.496-.02-3.68 1.045-6.84 3.236-9.49 6.515-1.17 1.478-2.04 2.885-2.55 4.293-.43 1.038-.52 2.038-.4 2.987.15.93.526 1.668 1.193 2.184 1.05.87 2.26.78 3.684-.17.717-.5 2.115-1.76 4.04-3.75l2.96-2.98c1.752-1.75 3.27-3.064 4.58-3.956 1.325-.897 2.665-1.56 4.04-1.94 1.452-.396 2.932-.41 4.47-.058 1.536.317 2.9 1.02 4.14 2.02 2 1.577 3.207 3.653 3.734 6.18.45 2.28.026 4.9-1.27 7.88-.953 2.23-2.274 4.355-3.944 6.432-2.99 3.72-6.847 6.66-11.547 8.864-.998.46-1.538.804-1.658.925-.134.196-.223.604-.223 1.215l-.793.37-4.413-8.62.757-.38c.12.09.22.164.26.215.636.517 1.45.657 2.44.517 1.524-.267 3.296-1.09 5.385-2.516 2.09-1.386 3.803-2.882 5.15-4.57 1.453-1.84 2.42-3.65 2.86-5.455.232-.988.26-1.91.01-2.797-.235-.865-.648-1.56-1.258-2.07-.933-.744-2.007-.77-3.188-.113-.86.47-2.256 1.667-4.2 3.642l-2.89 2.89c-1.95 1.92-3.347 3.265-4.236 4.004-.934.707-1.95 1.33-3.093 1.86-1.64.745-3.37.987-5.18.674-1.614-.244-3.15-.95-4.593-2.12-2.37-1.926-3.67-4.33-3.88-7.237-.305-3.8 1.27-7.825 4.725-12.124 1.44-1.784 2.96-3.3 4.58-4.55 1.64-1.28 3.85-2.665 6.72-4.18.92-.56 1.49-.906 1.612-1.085.235-.28.368-.763.368-1.387l.79-.344" fill="#006BB6"/><path d="M379.314 371.215l4.198 8.19.356-.05c.012-.657.07-1.083.304-1.402.204-.242.7-.51 1.734-.987 4.668-2.197 8.467-5.1 11.452-8.788 1.657-2.057 2.972-4.172 3.912-6.37.94-2.17 1.385-4.138 1.385-5.915 0-.618-.026-1.223-.153-1.822-.52-2.43-1.702-4.44-3.607-6.01-1.213-.97-2.573-1.61-4.072-1.97-.705-.14-1.39-.24-2.045-.24-.762 0-1.51.11-2.23.31-1.333.4-2.698 1.043-3.968 1.91-1.302.885-2.846 2.203-4.58 3.954l-2.915 2.955c-1.98 1.984-3.315 3.24-4.09 3.78-.788.522-1.53.803-2.26.803-.636 0-1.246-.21-1.767-.663-.717-.56-1.15-1.374-1.276-2.37-.064-.284-.083-.54-.083-.826 0-.726.15-1.51.45-2.28.54-1.42 1.43-2.885 2.61-4.37 2.69-3.336 5.89-5.54 9.64-6.615.57-.19 1.08-.277 1.55-.277.47-.016.86.09 1.154.34.114.075.21.183.02.234l.532-.216-3.685-8.25-.33.045c0 .65-.11 1.172-.4 1.573-.235.26-.76.56-1.734 1.132-2.85 1.536-5.06 2.917-6.674 4.12-1.562 1.288-3.08 2.765-4.54 4.567-3.15 3.883-4.713 7.552-4.713 11.003 0 .26.03.6.05.9.24 2.85 1.5 5.13 3.81 7.035 1.385 1.146 2.88 1.808 4.46 2.082.476.064.984.102 1.44.102 1.233 0 2.414-.27 3.545-.78 1.143-.518 2.14-1.136 3.05-1.85.862-.686 2.29-2.01 4.222-3.946l2.896-2.917c1.94-1.945 3.34-3.16 4.24-3.664.59-.344 1.193-.522 1.783-.522.622-.01 1.2.225 1.72.664.667.53 1.13 1.28 1.37 2.222.104.45.14.9.14 1.38 0 .49-.036 1.004-.163 1.55-.424 1.86-1.41 3.694-2.88 5.54-1.4 1.72-3.153 3.248-5.236 4.643-2.1 1.44-3.924 2.28-5.5 2.54-.28.04-.526.064-.76.064-.756 0-1.37-.21-1.887-.604-.042-.04-.112-.12-.004-.17l-.475.22zm-.756-.273l.26-.11 1.074-.362c.1.134.21.198.266.23.42.343.896.515 1.525.515.21 0 .444-.044.686-.05 1.42-.25 3.18-1.058 5.25-2.46 2.06-1.368 3.77-2.865 5.12-4.527 1.42-1.802 2.36-3.573 2.78-5.318.11-.496.16-.974.16-1.432 0-.453-.05-.86-.14-1.26-.218-.836-.63-1.447-1.177-1.906-.464-.37-.9-.54-1.38-.54-.456 0-.97.126-1.49.445-.79.452-2.21 1.656-4.117 3.585l-2.92 2.898c-1.94 1.968-3.355 3.273-4.257 4.02-.934.73-1.98 1.38-3.164 1.89-1.22.58-2.46.84-3.786.84-.525 0-1.02-.044-1.51-.114-1.69-.28-3.28-1.006-4.744-2.203-2.434-1.956-3.786-4.452-4.01-7.413-.01-.325-.056-.65-.056-.956 0-3.617 1.63-7.413 4.832-11.368 1.466-1.815 3.01-3.37 4.65-4.617 1.65-1.27 3.866-2.67 6.755-4.22.92-.52 1.505-.91 1.536-1 .185-.2.286-.587.445-1.48l.8-.324.256-.108 4.09 9.207-.246.117-1.08.3c-.172-.167-.23-.237-.293-.3-.183-.134-.45-.23-.82-.23-.39 0-.875.083-1.383.242-3.62 1.07-6.744 3.2-9.36 6.47-1.16 1.412-2.02 2.832-2.57 4.195-.237.727-.383 1.434-.383 2.083 0 .26.02.503.07.752.125.89.51 1.516 1.052 1.988.47.376.944.547 1.44.547.56 0 1.22-.23 1.92-.706.72-.478 2.07-1.707 4-3.72l2.954-2.955c1.745-1.767 3.314-3.09 4.64-4.01 1.36-.91 2.725-1.57 4.135-2 .79-.2 1.576-.31 2.395-.31.723 0 1.435.07 2.18.24 1.573.347 2.996 1.07 4.266 2.104 2.047 1.64 3.305 3.77 3.806 6.33.146.626.19 1.28.19 1.94 0 1.896-.482 3.91-1.435 6.15-.96 2.216-2.285 4.394-3.993 6.483-3.017 3.744-6.917 6.73-11.655 8.93-.96.47-1.542.84-1.555.857-.076.04-.146.456-.32 1.31l-1.046.45-4.657-9.133z" fill="#006BB6"/><path d="M396.327 247.543c0 80.028-64.687 144.91-144.503 144.91-79.842 0-144.53-64.882-144.53-144.91 0-80.027 64.688-144.93 144.53-144.93 79.816 0 144.503 64.903 144.503 144.93" fill="#006BB6"/><path d="M251.758 367.86c-68.803 0-124.58-55.928-124.58-124.938 0-68.997 55.777-124.938 124.58-124.938 68.816 0 124.586 55.948 124.586 124.938 0 69.01-55.77 124.938-124.586 124.938m-.013-258.225c-73.433 0-132.97 59.667-132.97 133.325 0 73.64 59.537 133.32 132.97 133.32 73.44 0 132.977-59.68 132.977-133.32 0-73.658-59.537-133.325-132.977-133.325" fill="#FDB927"/><path d="M178.656 179.793s74.08 99.26 191.884 121.85l-21.25 6.107s-73.63-17.087-170.062-125.047" fill="#FDB927"/><path d="M143.718 319.554s95.853-15.84 201.52-13.26l21.16-4.553-11.418 25.01s-111.503-3.83-194.082 4.857c-14.716-2.025-12.785-7.426-12.785-7.426l-4.395-4.616" fill="#FDB927"/><path d="M157.91 333.175s124.943-5.458 188.354 2.987c1.677.223 5.144-5.725 5.144-5.725s-46.02-6.375-186.89-1.453c-22.847.803-6.607 4.19-6.607 4.19" fill="#FDB927"/><path d="M172.587 190.517c-22.795 54.12-49.7 75.716-49.7 75.716l1.55 10.91s29.674-38.58 48.15-81.71c10.206-23.805 0-4.916 0-4.916" fill="#FDB927"/><path d="M174.603 175.658l-3.22.796s-3.144 154.367-1.1 171.556c.192 1.522 7.66.14 7.66.14s2.548 10.463 7.457 6.107c-4.318-54.706-5.36-181.796-5.36-181.796h-5.354l-.083 3.2" fill="#FDB927"/><path d="M182.015 178.407l3.62-3.14 3.868 1.745s3.862 145.51 10.81 186.312l-3.766-.3s-7.558-.438-8.073-5.202c-3.036-27.245-6.46-179.415-6.46-179.415" fill="#FDB927"/><path d="M161.483 322.736l-2.61-.46 10.74-60.73 2.597.466-10.727 60.724z" fill="#FDB927"/><path d="M151.928 321.583l-2.572-.484 21.632-122.4 2.61.44-21.67 122.432z" fill="#FDB927"/><path d="M144.208 313.565l-2-2.592 14.982-85.854 3.71-5.84-16.692 94.28z" fill="#FDB927"/><path d="M207.095 316.054l2.508-.783-23.937-76.28 2.057 15.97 19.372 61.1z" fill="#FDB927"/><path d="M216.39 313.7l2.514-.79-32.32-104.26.22 10.49 29.585 94.56z" fill="#FDB927"/><path d="M227.2 311.715l2.517-.777-34.945-111.87-4.32-4.566 36.75 117.213z" fill="#FDB927"/><path d="M205.69 210.7l32.03 100.756 2.515-.815-29.997-95.61-1.587-1.59" fill="#FDB927"/><path d="M221.47 225.657l27.145 85.854 2.515-.79-25.722-81.652-3.532-3.4" fill="#FDB927"/><path d="M258.454 309.708l2.515-.796-21.61-67.895-3.52-2.72 22.61 71.41z" fill="#FDB927"/><path d="M269.627 309.223l2.52-.802-17.33-55.03-4.06-3.67 18.87 59.51z" fill="#FDB927"/><path d="M264.712 260.456l15.453 48.49 2.508-.784-14.023-44.72-2.445-1.42" fill="#FDB927"/><path d="M279.22 271.466l11.83 37.555 2.504-.78-10.943-34.59-3.01-.93" fill="#FDB927"/><path d="M306.205 321.806l2.522-.79-11.84-38.37-4.42-5.305 13.738 44.47z" fill="#FDB927"/><path d="M305.553 285.43l10.505 33.634 2.51-.816-9.014-28.894-4-3.923z" fill="#FDB927"/><path d="M319.042 293.748l7.685 24.283 2.528-.79-6.415-20.2-3.798-3.282z" fill="#FDB927"/><path d="M131.384 289.812l-3.125-2.458 8.11-31.747 2.59.3-7.58 33.905z" fill="#FDB927"/><path d="M138.302 298.728l-2.007-2.605 9.336-53.088 3.37-4.885-10.69 60.578z" fill="#FDB927"/><path d="M120.274 144.02l-.68.53c-.1-.147-.228-.268-.355-.363-.33-.248-.79-.255-1.36-.045-.57.217-1.18.574-1.82 1.07-.65.497-1.29 1.083-1.93 1.758-.636.688-1.188 1.356-1.684 2.025-.603.822-1.086 1.732-1.435 2.713-.36.98-.533 1.968-.507 2.962.023.993.283 1.967.772 2.923.49.96 1.3 1.847 2.407 2.662 1.087.796 2.16 1.293 3.24 1.477 1.06.19 2.077.147 3.03-.12.952-.28 1.84-.74 2.66-1.383.826-.65 1.537-1.37 2.14-2.2.928-1.26 1.658-2.48 2.186-3.65.52-1.17.925-2.2 1.204-3.1l-2.858-2.097-3.124 4.28c-.23.305-.33.592-.307.846.01.25.227.56.64.93l-.444.6-4.256-3.128.44-.59c.42.22.723.297.933.214.215-.083.437-.274.66-.59l6.09-8.34.597.44c-.252.498-.38.83-.366 1.007 0 .17.146.362.44.585l3.76 2.755c.222.16.42.203.584.114.157-.083.354-.18.564-.293l.54.39c-.033 1.1-.173 2.19-.433 3.248-.26 1.05-.597 2.07-1.016 3.038-.426.982-.915 1.9-1.48 2.76-.57.865-1.137 1.706-1.728 2.502-1.13 1.56-2.366 2.84-3.69 3.834-1.33.99-2.7 1.66-4.13 2.01-1.43.344-2.88.37-4.34.064-1.467-.306-2.896-.968-4.287-1.994-1.404-1.022-2.47-2.19-3.2-3.5-.73-1.305-1.15-2.7-1.265-4.17-.113-1.484.096-3.026.617-4.605.52-1.566 1.36-3.145 2.497-4.7.71-.98 1.467-1.86 2.242-2.66.786-.79 1.51-1.465 2.18-2.038.67-.56 1.24-1.02 1.72-1.37.474-.343.754-.585.842-.687.14-.206.202-.397.195-.57-.004-.18 0-.356.02-.515l.52-.23 2.955 5.19" fill="#006BB6"/><path d="M133.854 125.72c-.546.95-.92 1.936-1.13 2.96-.197 1.027-.19 2.052.038 3.077.222 1.026.724 1.962 1.505 2.822.775.85 1.658 1.44 2.66 1.76 1.005.32 2.008.42 3.056.31 1.03-.1 2.045-.4 3.042-.86.99-.45 1.88-1.037 2.65-1.75.774-.7 1.434-1.535 1.987-2.484.54-.94.914-1.936 1.118-2.96.203-1.026.19-2.05-.032-3.07-.216-1.026-.724-1.975-1.505-2.82-.775-.848-1.664-1.45-2.66-1.77-1-.32-2.015-.415-3.05-.314-1.035.104-2.052.39-3.05.856-1.002.464-1.872 1.043-2.647 1.75-.762.707-1.43 1.535-1.982 2.484m3.303-7.91c1.46-.72 2.98-1.184 4.547-1.38 1.556-.206 3.112-.07 4.662.406 1.544.466 2.954 1.408 4.23 2.81 1.277 1.41 2.083 2.904 2.407 4.484.33 1.59.318 3.15-.025 4.7-.343 1.54-.953 3.004-1.842 4.36-.876 1.37-1.874 2.567-2.985 3.586-1.12 1.02-2.4 1.9-3.83 2.663-1.43.75-2.93 1.22-4.492 1.425-1.575.198-3.13.064-4.674-.407-1.544-.463-2.954-1.406-4.23-2.813-1.283-1.408-2.077-2.898-2.41-4.484-.33-1.585-.31-3.152.034-4.693.34-1.558.932-3.017 1.79-4.418.85-1.4 1.835-2.604 2.953-3.63 1.117-1.01 2.407-1.89 3.874-2.61" fill="#006BB6"/><path d="M180.05 113.774c-.255.095-.553.248-.903.465l-16.677 10.37-.396-.64c.692-.44.92-.86.66-1.29l-9.87-15.95c-.253-.427-.742-.414-1.44.02l-.388-.64 6.02-3.736.4.63c-.66.41-.857.822-.59 1.242l8.65 13.984 11.636-7.23c.343-.223.578-.484.7-.783.12-.307.088-.594-.084-.88l.634-.39 2.98 4.815-.636.39c-.216-.345-.457-.485-.7-.39" fill="#006BB6"/><path d="M194.312 103.586c1.194-.477 2.204-.993 3.023-1.56.813-.56 1.41-1.223 1.79-1.98.376-.758.54-1.637.49-2.618-.044-.987-.343-2.146-.87-3.484-.527-1.33-1.112-2.37-1.747-3.126-.64-.752-1.36-1.28-2.153-1.574-.8-.286-1.683-.35-2.66-.197-.973.147-2.06.465-3.265.943l-5.94 2.362 5.4 13.604 5.932-2.37zm-5.164-17.513c1.404-.56 2.795-.88 4.173-.955 1.37-.07 2.67.133 3.9.605 1.22.477 2.35 1.248 3.36 2.305 1.01 1.07 1.86 2.458 2.54 4.17.678 1.727 1.02 3.32 1 4.79-.005 1.472-.284 2.803-.85 3.994-.56 1.184-1.37 2.222-2.413 3.12-1.06.892-2.286 1.618-3.69 2.178l-12.72 5.07-.275-.688c.585-.236.788-.58.61-1.038l-6.91-17.456c-.19-.446-.584-.567-1.162-.332l-.28-.7 12.73-5.063z" fill="#006BB6"/><path d="M229.565 79.97c-.064-.294-.223-.504-.477-.6-.254-.108-.666-.108-1.238.013l-13.103 2.56.978 5.038 7.927-1.56c.54-.1.946-.26 1.22-.46.26-.21.33-.62.215-1.25l.73-.13 1.22 6.33-.724.146c-.114-.624-.337-.993-.68-1.114-.33-.12-.762-.12-1.302-.02l-7.92 1.555 1.08 5.6 13.52-2.644c.41-.077.718-.236.94-.48.23-.24.3-.52.24-.85l.72-.13 1.086 5.555-.73.14c-.076-.4-.25-.604-.515-.61-.265-.013-.61.03-1.01.11l-18.85 3.69-.145-.73c.182-.04.34-.128.474-.28.115-.16.153-.35.102-.593l-3.58-18.414c-.045-.25-.16-.42-.324-.51-.172-.09-.356-.12-.54-.084l-.146-.732 18.457-3.61c.564-.11.945-.274 1.142-.497.196-.225.26-.48.21-.78l.723-.146 1.04 5.36-.73.14" fill="#006BB6"/><path d="M240.087 95.286c.52 0 .78-.248.788-.74V75.774c0-.497-.267-.745-.782-.74l-.006-.75h7.05v.745c-.222 0-.324.13-.324.41 0 .23.273.61.832 1.16l11.825 12.32V75.78c0-.498-.35-.746-1.08-.746v-.745h6.236v.74c-.52 0-.78.25-.78.74l-.008 18.77c0 .5.267.742.782.742v.74h-6.677v-.74c.357-.006.54-.127.54-.375-.005-.198-.22-.516-.653-.95l-12.587-13.15.007 13.73c-.004.503.307.745.94.75v.74h-6.11l.01-.745" fill="#006BB6"/><path d="M287.86 92.916l.336.306c-.064.242-.076.47-.02.687.096.37.376.78.84 1.24.456.45.996.9 1.63 1.33.643.44 1.316.83 2.047 1.2.73.36 1.397.62 2.007.79.45.13 1.047.25 1.778.38.724.144 1.473.195 2.21.18.762-.02 1.43-.15 2.033-.38.62-.227 1-.647 1.17-1.27.17-.6.07-1.12-.31-1.54-.38-.42-.94-.8-1.65-1.14-.716-.35-1.555-.68-2.507-.988-.953-.312-1.925-.643-2.91-1.006-.984-.366-1.936-.77-2.845-1.23-.913-.448-1.694-1-2.33-1.65-.622-.657-1.067-1.42-1.32-2.307-.255-.885-.21-1.94.133-3.165.228-.828.64-1.573 1.245-2.267.61-.69 1.39-1.224 2.357-1.62.96-.38 2.1-.604 3.436-.65 1.328-.043 2.808.167 4.447.626 1.402.395 2.596.84 3.57 1.34.97.493 1.802.97 2.494 1.43.68.445 1.25.846 1.71 1.203.46.356.855.58 1.204.68.37.11.654.097.857-.01l.387.44-4.124 4.22-.356-.278c.05-.377.04-.72-.056-1-.127-.37-.387-.784-.793-1.23-.4-.446-.902-.88-1.5-1.3-.59-.43-1.26-.816-1.98-1.18-.73-.356-1.474-.643-2.25-.866-.585-.15-1.2-.28-1.842-.356-.648-.082-1.264-.1-1.81-.057-.553.045-1.042.18-1.448.39-.43.21-.696.54-.82 1-.18.63-.08 1.17.29 1.623.374.45.927.85 1.632 1.23.716.366 1.542.72 2.49 1.035.95.326 1.917.66 2.914 1.026.97.362 1.93.776 2.84 1.25.91.47 1.68 1.023 2.31 1.672.638.65 1.08 1.407 1.34 2.286.25.87.21 1.903-.12 3.094-.373 1.386-1.052 2.412-2.04 3.074-.962.675-2.055 1.12-3.28 1.318-1.225.206-2.495.22-3.804.034-1.298-.18-2.5-.42-3.585-.72-1.517-.427-2.755-.86-3.727-1.325-.97-.45-1.747-.9-2.356-1.346-.61-.44-1.08-.82-1.424-1.133-.35-.305-.66-.503-.945-.573-.19-.057-.394.007-.61.166l-.47-.47 3.53-4.21" fill="#006BB6"/><path d="M322.235 111.756l-.324.675-5.72-2.73.31-.67c.17.09.36.106.556.05.19-.04.33-.18.45-.39l7.02-14.877-6.142-2.923c-.234-.1-.476-.147-.75-.127-.266.03-.48.215-.653.56l-.666-.32 2.478-5.23.67.326c-.16.343-.164.636-.02.86.154.23.345.393.56.49l16.55 7.864c.225.12.466.15.74.13.26-.023.49-.214.653-.56l.67.32-2.47 5.23-.672-.326c.157-.344.157-.63.01-.853-.15-.222-.335-.39-.56-.502l-6.152-2.913-7.023 14.863c-.21.44-.043.803.503 1.064" fill="#006BB6"/><path d="M346.066 117.066l1.422-8.31-7.507 4.19 6.09 4.12zm-17.174-2.344c.324.153.654.166.997.032.33-.14.69-.318 1.07-.528l15.3-9.05c.35-.185.68-.363.98-.535.29-.16.5-.34.62-.51.15-.23.176-.45.09-.64-.1-.21-.237-.39-.39-.552l.427-.62 5.773 3.906-.413.618c-.203-.063-.4-.11-.61-.133-.21-.03-.406.09-.57.33-.12.19-.21.4-.255.63-.04.24-.082.56-.12.97l-2.287 18.76c-.05.323-.02.61.093.86.12.24.26.51.438.79l-.425.62-6.005-4.07.42-.62c.09.062.223.11.407.13.184.02.317-.04.406-.17.153-.228.273-.585.337-1.08l.404-3.41-8.34-5.64-2.87 1.597c-.55.32-.89.585-1.03.79-.165.254-.038.527.394.82l-.416.62-4.85-3.29.41-.616z" fill="#006BB6"/><path d="M360.3 138.7l-.502.555-4.674-4.318.508-.548c.14.12.31.19.502.21.197.01.375-.08.546-.26l11.12-12.1-4.997-4.63c-.19-.17-.407-.285-.674-.336-.28-.058-.53.057-.79.337l-.56-.5 3.91-4.254.546.496c-.26.286-.35.554-.267.82.07.256.203.47.39.638l13.456 12.444c.184.173.406.288.673.345.265.054.525-.06.792-.347l.54.503-3.906 4.26-.55-.5c.267-.287.356-.554.273-.816-.07-.267-.21-.477-.387-.65l-5.004-4.623-11.12 12.108c-.33.364-.28.75.163 1.16" fill="#006BB6"/><path d="M395.093 154.094c.235-.185.343-.42.324-.694-.02-.287-.216-.643-.565-1.108l-8.15-10.604-4.045 3.12 4.922 6.426c.33.433.66.726.96.873.3.153.71.032 1.2-.357l.46.586-5.11 3.942-.45-.592c.5-.382.736-.75.698-1.108-.05-.344-.24-.745-.578-1.185l-4.936-6.413-4.503 3.477 8.405 10.942c.254.33.527.54.845.63.31.09.596.03.862-.17l.45.59-4.47 3.45-.466-.588c.33-.255.44-.503.323-.74-.115-.247-.293-.528-.553-.86L369 148.46l.59-.458c.115.146.268.254.458.293.185.05.394-.008.585-.154l14.818-11.45c.21-.15.31-.33.31-.52 0-.2-.05-.37-.16-.53l.587-.445 11.47 14.936c.355.465.67.726.958.81.288.07.548.01.78-.173l.46.593-4.32 3.336-.443-.6" fill="#006BB6"/></g></svg>