<svg width="512" height="512" viewBox="0 0 512 512" xmlns="http://www.w3.org/2000/svg"><title>houston-rockets</title><g fill="none" fill-rule="evenodd"><path d="M200.723 206.886c.254-5.285 1.078-8.543 2.548-14.038-.21.247-.66.684-1.37 1.362-1.47 5.5-2.3 8.773-2.53 14.04v9.367l1.37 1.792-.01-12.53" fill="#261C02"/><path d="M188.82 215.8l15.586 20.588 1.372-1.355-16.946-22.41-.013 3.176" fill="#261C02"/><path d="M187.41 235.212l1.364-1.356-4.997 3.643-.027-40.19-1.352 1.36.013 40.182 5-3.65" fill="#261C02"/><path d="M166.344 236.307s8.983.874 8.983-8.558c0 7.28-7.605 7.19-7.605 7.19h-7.08s-7.605.09-7.605-7.19v-23.24c0-7.2 7.604-7.2 7.604-7.2s-8.96-.258-8.96 8.562v23.23c0 7.29 7.59 7.194 7.59 7.194h7.08" fill="#261C02"/><path d="M168.015 206.87v21.364c0 1.316-.34 2.47-.927 3.377.052-.02.105-.05.138-.07.097-.07.176-.122.254-.19v-.02c.228-.15.41-.34.58-.54.08-.08.14-.15.217-.24.084-.09.137-.18.19-.272.05-.1.123-.19.17-.287.026-.04.058-.08.07-.142.047-.104.1-.196.157-.287 0-.012.008-.012.008-.012.04-.11.077-.202.117-.3v-.024c.02-.04.04-.104.04-.15h.01c.01-.057.024-.11.05-.156.005-.013.005-.026.005-.026.027-.04.027-.095.052-.133v-.034c.02-.04.026-.104.04-.164l.006-.015c.012-.046.025-.085.03-.15.01 0 .01-.012.01-.032.012-.11.045-.215.064-.32V228c.01-.057.01-.103.02-.148.02-.008.02-.008.02-.028v-.165c0-.02.013-.02.013-.05 0-.044 0-.08.007-.14v-.03c.005-.06.01-.12.01-.17v-.24c.014-.05.014-.124.014-.18V205.5c0-3.317-2.06-5.568-5.214-5.568-.06 0-.124 0-.19.014h-.267c-.02 0-.066 0-.11.02h-.087c-.01.007-.05.007-.097.013h-.08c-.026 0-.07.01-.105.01-.025.01-.04.01-.07.01-.034 0-.067.02-.125.02h-.065c-.03.007-.077.007-.13.028-.02 0-.03.012-.06.012-.043.005-.09.02-.135.032-.027 0-.066 0-.08.026-.038 0-.07 0-.104.01-.02.016-.04.016-.07.02-.03.016-.05.016-.082.035-.034 0-.06.005-.075.012-.03.013-.062.013-.082.02-.043.02-.06.02-.09.044-.005 0-.05.016-.07.016-.04 0-.05.014-.092.028-.02.013-.03.02-.057.02-.027.025-.073.045-.1.053-.006 0-.025.012-.05.025-.065.02-.118.058-.176.078-.02 0-.032.016-.052.02-.03.02-.05.04-.08.054-.02.014-.036.014-.05.02-.04.02-.065.047-.09.053-.02.007-.032.04-.052.04-.03.006-.055.032-.082.046-.025.02-.038.02-.046.03-.03.02-.056.04-.095.052-.013.02-.02.03-.04.047-.04.02-.05.034-.078.053-.03.02-.035.027-.048.046-.024.02-.044.04-.08.064-.01 0-.03.013-.03.02-.1.08-.19.17-.28.253-.02.007-.034.02-.05.026l-.064.085c-.02.005-.026.024-.045.04-.02.017-.033.062-.052.08-.02.015-.032.02-.05.047-.02.02-.04.04-.053.067-.024.025-.04.04-.05.06-.02.025-.045.06-.06.083 0 .012 0 .045-.03.052-.027.02-.034.05-.053.07-.025.02-.025.033-.044.045-.007.046-.02.085-.04.1.843-.504 1.856-.733 2.987-.733 3.15 0 5.212 2.235 5.212 5.56" fill="#261C02"/><path d="M310.22 188.372c-.47.46-.887.847-1.365 1.368-.9 2.568-1.567 5.11-2.037 7.64.372-.086.745-.164 1.124-.222.47-2.908 1.26-5.827 2.28-8.786" fill="#261C02"/><path d="M322.98 219.204c.086-3.24-6.043-3.977-9.987-4.12l.02 1.435c3.827.27 8.674 1.17 8.583 4.05l.215 15.46 5.47 3.19 1.38-1.37-5.48-3.18-.19-15.475" fill="#261C02"/><path d="M306.305 200.764c-.052.403-.104.802-.14 1.2l-.194 37.262 5.79-3.187 1.36-1.37-5.774 3.18.223-37.26c.012-.403.076-.8.117-1.22-5.44-.06-10.18.406-10.18.406l-1.357 1.36s4.71-.448 10.163-.38" fill="#261C02"/><path d="M322.823 214.023c.964-.515 2.16-1.553 3.708-2.985-2.9 2.47-6.58 3.33-6.58 3.33s1.3-.3 2.88-.345" fill="#261C02"/><path d="M312.908 201.145c5.037.594 9.354 1.955 9.74 4.92.287 2.347-.334 4.173-1.437 5.575.04-.033.07-.046.1-.066.106-.105.21-.202.33-.306.08-.045.16-.13.246-.21.098-.11.183-.195.287-.298.09-.09.15-.17.23-.248.09-.11.187-.22.26-.32.07-.09.14-.202.2-.306.078-.11.156-.21.235-.318.06-.118.123-.23.183-.34.06-.112.105-.222.17-.34.06-.13.11-.253.164-.39.045-.105.084-.23.117-.34.06-.15.098-.318.138-.475.025-.105.066-.21.077-.32.055-.254.095-.546.134-.827v-.144c.02-.033.02-.085.02-.136v-.842c0-.018 0-.057-.02-.09v-.19c-.014-.04-.014-.064-.014-.103v-.04c-.013-.04-.013-.06-.024-.112v-.033c0-.046-.02-.085-.026-.144-.4-3.24-5.534-4.587-11.185-5.075.04.33.066.658.08.985l.006.545" fill="#261C02"/><path d="M348.984 199.95h-.458c-.04 0-.066.02-.118.02-.014 0-.04 0-.072.005-.045 0-.064 0-.116.005h-.066c-.035 0-.085.014-.105.014-.03.013-.06.013-.09.013s-.07.02-.1.02c-.04.008-.04.008-.06.008-.05.005-.09.005-.13.025-.017 0-.07.013-.07.013-.05.007-.11.014-.15.025-.02 0-.06.014-.077.027-.046 0-.07 0-.097.013-.04.013-.053.013-.09.02-.014.012-.033.032-.066.032-.044.007-.06.007-.077.033-.045 0-.073.006-.097.006-.02.01-.05.01-.087.04-.016 0-.047.01-.055.01-.034.012-.06.024-.08.024-.04.013-.06.02-.072.02-.03.026-.066.04-.104.045 0 0-.025.013-.045.013-.11.064-.218.115-.34.18-.01 0-.02 0-.048.007-.02.027-.05.046-.083.05-.015.017-.034.036-.047.036-.013.006-.06.032-.08.06-.01.004-.044.004-.044.02-.017.023-.07.043-.09.06-.018.016-.018.023-.05.043-.02.015-.06.04-.08.06-.033 0-.033 0-.045.01-.028.025-.06.06-.106.083-.136.12-.28.26-.424.397 0 .023-.012.023-.012.036-.02.013-.046.06-.078.09-.006.008-.013.008-.013.02-.043.04-.06.072-.076.1-.03.012-.03.024-.045.024-.01.044-.04.076-.063.096 0 .013 0 .025-.01.025l-.15.246c.814-.5 1.84-.723 2.984-.723 3.15 0 5.21 2.237 5.21 5.547v21.35c0 1.303-.324 2.443-.92 3.357.067-.058.16-.097.224-.155.07-.05.135-.084.2-.13.19-.16.37-.32.55-.504l.19-.253.013-.02c.066-.07.13-.156.183-.26h.013c.01-.03.05-.084.062-.118.046-.062.052-.116.098-.155.028-.04.05-.07.07-.143.004 0 .004 0 .01-.01.052-.1.086-.19.15-.28v-.02c.04-.1.07-.2.11-.3 0-.016.014-.03.014-.03.027-.045.033-.09.052-.15v-.005c.02-.04.047-.105.06-.164l.012-.004.02-.15c.02 0 .02 0 .02-.018.01-.053.025-.1.04-.158.02 0 .02-.015.02-.015.005-.06.005-.097.02-.156v-.038c.037-.112.05-.22.062-.314.015-.017.015-.045.015-.05 0-.05.02-.1.02-.15v-.02c.006-.05.01-.117.018-.16v-.04c0-.055.015-.1.015-.14v-.045c.006-.068.006-.127.006-.18.01-.013.01-.024.01-.024v-21.7c0-3.316-2.04-5.55-5.188-5.55" fill="#261C02"/><path d="M352.517 234.913h-7.08s-7.592.092-7.592-7.196v-23.203c0-7.196 7.59-7.196 7.59-7.196s-8.96-.56-8.96 8.565v23.203c0 7.3 7.59 7.196 7.59 7.196h7.088s8.472.743 8.917-7.835c-.464 6.395-7.226 6.466-7.553 6.466" fill="#261C02"/><path d="M382.476 231.502c.086-.066.17-.12.242-.19h.012c.09-.072.17-.13.25-.215.025-.026.072-.065.11-.103.052-.046.08-.08.105-.125.038-.03.065-.06.11-.11h.007c.085-.09.13-.16.196-.25.014 0 .014-.03.014-.03.077-.07.124-.156.18-.233 0-.02 0-.02.022-.02.013-.038.034-.078.072-.124l.006-.014c.006-.054.06-.1.08-.126l.005-.02c.033-.038.046-.07.066-.13l.01-.02c.042-.09.087-.188.14-.27 0-.01 0-.03.013-.035l.123-.28v-.033c.01-.05.022-.095.05-.13v-.03c.02-.038.04-.103.042-.163v-.006c.03-.05.04-.096.053-.15l.007-.017c.01-.05.03-.1.047-.16.007 0 .007-.012.007-.012 0-.056.014-.095.02-.14.02-.02.02-.034.02-.05 0-.05.02-.09.025-.16 0-.056.005-.103.012-.15v-.05c.024-.054.03-.1.03-.145 0-.007.013-.02.013-.02 0-.058.015-.124.015-.17 0-.026.01-.04.01-.04 0-.044.016-.096.016-.135v-.25c0-.04 0-.09.014-.15v-2.26l-1.372 1.37v2.04c0 1.3-.347 2.47-.915 3.38.034-.026.08-.05.12-.07 0-.013.013-.013.013-.013" fill="#261C02"/><path d="M384.633 205.5c0-3.317-2.06-5.554-5.2-5.554h-.457c-.04 0-.067.02-.11.02-.022 0-.053 0-.086.007-.035 0-.054 0-.098.006h-.086c-.025 0-.065.01-.09.01-.02.01-.053.01-.086.01-.04 0-.072.02-.104.02h-.085c-.03.007-.05.007-.09.007-.024.02-.08.033-.102.04-.052 0-.072.013-.124.026-.026 0-.047.026-.09.026-.02 0-.06 0-.08.01-.026.013-.052.013-.08.02-.025.013-.05.032-.08.032-.036.005-.063.005-.102.026-.012 0-.04.01-.052.01-.044.02-.063.02-.096.044-.013 0-.027.012-.066.012-.02 0-.064.025-.097.04 0 0-.02.006-.055.006-.032.025-.065.045-.09.053-.014 0-.027.013-.027.013-.118.064-.262.11-.387.175l-.01.007c-.025.027-.07.052-.11.072-.014 0-.025.02-.025.02-.04.004-.07.03-.1.063-.02 0-.028 0-.028.013-.046.02-.072.047-.106.054-.002.02-.02.026-.02.044-.05.013-.086.045-.105.072-.005 0-.005 0-.026.008-.195.138-.37.308-.55.496h-.005c-.025.034-.046.08-.07.12h-.02c-.033.044-.057.076-.098.116v.015c-.03.046-.06.083-.082.104v.026c-.06.078-.112.163-.17.243.835-.5 1.847-.73 2.984-.73 3.16 0 5.206 2.233 5.206 5.544v2.04h5.93l1.376-1.362h-5.93v-2.03" fill="#261C02"/><path d="M390.41 229.414c-.01.06-.025.098-.025.124 0 .012-.006.026-.006.026 0 .032-.01.066-.02.104 0 0 0 .025-.02.025 0 .04 0 .086-.017.105 0 .013 0 .02-.026.026 0 .046-.02.078-.02.098-.005.02-.005.026-.005.034-.007.045-.007.077-.027.097v.026l-.04.09v.03c-.014.024-.027.062-.04.09v.04c-.01.032-.027.05-.034.09 0 .013 0 .02-.003.02-.014.04-.034.065-.034.097-.026.013-.026.013-.026.026-.008.04-.02.06-.02.09l-.014.007c-.005.035-.032.075-.045.114v.016c-.014.038-.025.07-.04.09v.026c-.02.02-.045.065-.05.096h-.015c-.17.398-.398.744-.633 1.063-.02.034-.047.06-.074.09 0 0 0 .01-.006.01 0 .027-.03.053-.05.085-.02.02-.044.046-.06.066v.016c-.025.02-.064.064-.083.07v.013c-.027.017-.04.044-.065.07 0 0 0 .013-.015.013-.014.027-.04.04-.07.066-.016.023-.04.05-.07.07v.01c-.02.02-.046.054-.078.075-.364.362-.77.66-1.18.915-.03.02-.05.04-.078.053-.045.012-.066.04-.097.045-.03.032-.054.04-.06.05h-.035c-.02.026-.033.034-.078.054v.01c-.02.01-.053.014-.08.035-.443.235-.907.405-1.35.548-.028.01-.04.02-.068.02-.03.003-.066.03-.08.036h-.005c-.027.01-.066.01-.085.025-.02 0-.04.006-.085.02h-.008c-.02.01-.03.01-.066.018-.024 0-.056 0-.08.02-.348.098-.656.158-.944.19h-.01c-.01 0-.027.014-.053.014-.015.028-.06.028-.073.028-.025.007-.04.007-.05.007h-.013c-.027 0-.047 0-.066.014-.016 0-.036 0-.055.015h-.13c-.007.01-.02.01-.06.01h-.058c-.007 0-.007.004-.047.004h-.03c-.12.026-.236.026-.33.026-.02.02-.03.02-.04.02h-.11c-.01 0-.01 0-.01.013h-7.28s-7.597.084-7.597-7.196v-23.2c0-7.197 7.6-7.197 7.6-7.197s-8.98-.492-8.98 8.567v23.202c0 7.293 7.625 7.194 7.625 7.194h7.054s8.316.822 8.93-7.573c-.03.256-.067.478-.11.706" fill="#261C02"/><path d="M499.023 231.597c.085-.053.184-.1.288-.163v-.013c.1-.06.17-.11.26-.19l.01-.01c.06-.05.13-.12.21-.22h.01c.06-.07.13-.142.19-.245 0-.002 0-.007.01-.007l.19-.26v-.01c.053-.096.09-.195.125-.292 0 0 .02-.007.02-.02.045-.09.078-.18.137-.285v-.03c.033-.105.06-.21.093-.327v-.02c.036-.09.08-.225.1-.343v-.02c.015-.12.03-.25.074-.386 0 0 .005 0 .005-.008.013-.145.033-.275.046-.4v-.032c.02-.136.026-.272.054-.416v-.03c0-.16 0-.288.01-.445v-.032c.007-.15.007-.303.007-.46v-.04c0-.15 0-.31.013-.47v-5.72c0-4.823-3.433-4.96-9.02-4.96-7.29 0-7.505-1.664-7.505-6.794v-5.73c0-.082.02-.15.02-.226v-.07c0-.06 0-.107.015-.16 0-.033.004-.07.004-.083v-.135c0-.026.01-.058.01-.084.014-.04.014-.08.035-.13v-.09c.01-.045.01-.08.025-.11.005-.027.005-.053.013-.09 0-.035.013-.07.013-.106.01-.04.01-.07.02-.09.005-.04.01-.07.01-.085 0-.05.01-.08.03-.12.01-.027.01-.04.01-.08.02-.02.04-.077.04-.11 0-.006.018-.04.03-.046.04-.14.09-.284.124-.42.02-.006.02-.02.02-.027.047-.05.054-.084.074-.142 0 0 .008-.012.008-.024.026-.04.046-.073.053-.107.02-.03.03-.04.046-.045.007-.052.02-.084.04-.123.02-.005.02-.02.02-.032.03-.047.05-.087.063-.12 0-.02.02-.026.02-.04.02-.025.043-.064.08-.103v-.013c.232-.378.5-.684.8-.978.046-.033.072-.073.11-.1h.013c.04-.04.06-.06.11-.096v-.013c.22-.17.456-.35.717-.507 0-.006.007-.006.013-.006.037-.033.07-.046.1-.06.016-.013.03-.013.055-.02.02-.025.05-.044.083-.063.013 0 .04-.002.054-.02.01-.01.048-.03.065-.05.03 0 .06-.02.08-.03.012 0 .03-.027.06-.027l.083-.044c.02 0 .045-.01.05-.03.04-.01.07-.03.11-.052h.026c.24-.123.51-.216.743-.3.055-.02.1-.04.17-.066.25-.06.46-.14.66-.195.075-.006.13-.033.193-.04.158-.032.3-.07.465-.103.07-.005.15-.01.235-.04.143-.03.28-.037.424-.056.02-.014.063-.014.09-.014-2.138.235-7.71 1.42-7.71 7.294v5.75c0 5.115.21 6.79 7.504 6.79 5.58 0 9.02.124 9.02 4.94v5.425c0 1.804-.162 3.21-.632 4.204.04-.027.09-.04.15-.073l.006-.014" fill="#261C02"/><path d="M500.88 205.25c-.013-2.97-.64-5.41-5.553-5.41h-.587c-.014.014-.033.014-.046.014h-.157c-.027.014-.046.014-.085.014h-.19c-.046.013-.066.013-.112.032h-.26c-.02 0-.04 0-.066.013-.012 0-.05 0-.058.02h-.183c-.02.02-.04.02-.078.02h-.046c-.03.012-.07.012-.09.02h-.04c-.03.006-.07.006-.1.006-.01.01-.01.01-.05.01-.006.01-.05.01-.064.01-.014 0-.014.02-.04.02h-.07c-.015 0-.015 0-.034.006h-.064c-.03.02-.04.02-.04.02-.04.014-.048.014-.067.02h-.043c-.02.013-.048.013-.067.026h-.026c-.03.026-.07.026-.075.026-.028 0-.035.013-.04.013-.04.014-.06.014-.085.02 0 0-.02 0-.03.014-.013.02-.033.02-.05.02-.02 0-.035.005-.04.005-.028.006-.048.025-.054.025h-.045c-.02 0-.02 0-.053.02-.013 0-.025 0-.04.028 0 0-.03 0-.04.015h-.038c-.036 0-.048.013-.048.025-.014 0-.014 0-.034.012-.028.007-.05.007-.08.026 0 .006-.01.006-.026.026-.02 0-.04.005-.06.02-.02 0-.038 0-.038.01 0 .015-.015.015-.054.015-.006.007-.006.027-.027.027 0 .012-.03.012-.04.02-.005 0-.005 0-.023.012-.013.012-.033.012-.045.02-.01 0-.02.004-.025.023-.027 0-.04 0-.052.015 0 .004-.015.004-.034.02-.01 0-.02.01-.025.016-.006 0-.02.02-.033.02-.01.01-.04.034-.063.034-.016.006-.016.006-.016.02-.027.017-.027.017-.06.025 0 .02-.026.027-.026.027s-.02.015-.02.028c-.016.006-.024.006-.036.02 0 .02-.034.02-.034.02-.01.018-.03.018-.03.018 0 .014 0 .014-.014.034-.008 0-.027.003-.033.023-.012 0-.024.015-.04.02l-.03.027s-.006.007-.013.027c-.013 0-.04.004-.04.023-.012.004-.024.024-.045.04-.006 0-.006 0-.006.01-.005.013-.016.026-.03.04-.013.005-.032.02-.04.02 0 .005-.02.005-.02.02-.02.02-.02.03-.02.03-.02.014-.02.014-.024.035-.01.004-.02.004-.02.024-.02.007-.02.007-.038.033 0 0-.01.006-.025.02 0 0-.008.012-.008.026-.02.006-.03.025-.03.025-.006.02-.02.02-.02.04-.004 0-.004.013-.012.013-.033.02-.033.03-.052.058v.008c0 .01-.02.04-.024.04 0 .006-.027.02-.027.025-.01.014-.01.04-.036.04 0 .02-.004.032-.004.032 0 .007 0 .02-.02.032 0 .005-.013.005-.013.02-.016.02-.027.02-.027.03s-.008.025-.008.025c-.02.025-.027.025-.027.044 0 .016 0 .028-.01.028-.01.005-.01.04-.02.04-.02.012-.02.02-.02.02 0 .025-.022.052-.022.07.814-.41 1.96-.64 3.616-.64 4.92 0 5.547 2.44 5.573 5.41l-.027 1.996 5.355-2.803 1.363-1.374-5.36 2.798.015-1.974" fill="#261C02"/><path d="M435.42 202.572c-.013.02-.013.033-.04.04v.024c-.064.072-.117.19-.182.32-.008.02-.033.04-.033.052-.02.053-.027.066-.04.09 1.503-.846 3.21-.805 3.21-.805l10.065-.014c.843-.92 1.38-1.39 1.38-1.39l-10.074.023s-2.647-.117-4.286 1.65" fill="#261C02"/><path d="M442.227 234.92h-6.18s-8.05.08-8.015-7.242l.052-12.026-.052-10.605c0-1.9.516-3.33 1.286-4.38-1.476 1.096-2.68 2.862-2.68 5.75l.074 10.598-.052 12.02c-.04 7.34 8.015 7.26 8.015 7.26h6.18s8.31.35 8.93-4.778c-.685 4.12-7.558 3.402-7.558 3.402" fill="#261C02"/><path d="M434.182 217.556v1.36l.654.022c4.533-.295 8.727-.888 13.43-2.654.608-.593.75-.775 1.37-1.37-4.707 1.754-8.882 2.354-13.415 2.648l-2.03-.006" fill="#261C02"/><path d="M468.785 202.367v1.383h.71c4.6-.248 7.546-.966 10.884-2.438.51-.488.87-.847 1.39-1.38-3.36 1.483-6.31 2.19-10.9 2.435h-2.09" fill="#261C02"/><path d="M463.14 202.367h-9.122v-4.874l-1.377 1.37v4.887h9.13l-.02 31.09 5.66 3.78 1.37-1.375-5.664-3.78.034-31.098" fill="#261C02"/><path d="M398.322 193.533l-1.358 1.363v43.69l5.782-3.73 1.37-1.355-5.794 3.73v-43.69" fill="#261C02"/><path d="M404.116 214.71v3.534l10.915 17.29h6.33l1.37-1.367h-6.33l-12.28-19.457" fill="#261C02"/><path d="M415.725 197.5l-1.397 1.362-10.21 14.535v.58l11.607-16.478" fill="#261C02"/><path d="M51.398 234.94H44.31s-7.598.097-7.598-7.198V204.5c0-3.403 1.712-5.188 3.49-6.14-2.4 1.082-4.966 3.24-4.862 7.503v23.242c0 7.3 7.604 7.19 7.604 7.19h7.088s8.427.572 8.944-7.717c.02-.274.02-.55.02-.836 0 7.295-7.598 7.197-7.598 7.197" fill="#261C02"/><path d="M47.864 199.93h-.256c-.038 0-.098 0-.13.02h-.19c-.02 0-.045 0-.084.02-.027 0-.066 0-.1.007-.032 0-.045 0-.07.006h-.11c-.02 0-.047.01-.093.01-.01.015-.04.015-.08.015-.02.02-.04.02-.08.027-.03 0-.06 0-.1.005-.043 0-.07.02-.122.028-.032.006-.065.006-.11.02-.02 0-.046.01-.09.024-.016.014-.06.014-.074.014-.04.012-.072.025-.09.025-.022.01-.047.01-.08.02-.02.03-.066.03-.09.04-.02.02-.053.02-.053.02-.053.01-.066.028-.112.028-.01.027-.025.027-.05.04-.033 0-.073.014-.093.026-.03 0-.044.014-.05.014-.027.004-.08.023-.11.044-.01 0-.014.007-.014.007-.18.08-.344.17-.514.254l-.033.013c-.023.028-.07.055-.1.08-.008 0-.008.006-.008.006-.05.034-.085.06-.117.073 0 0-.006.02-.026.02-.032.026-.08.046-.11.07 0 0-.02 0-.02.02-.215.18-.45.37-.647.61-.027.04-.066.08-.086.12-.105.125-.184.254-.26.386.83-.498 1.846-.733 2.983-.733 3.17 0 5.22 2.25 5.22 5.56v21.36c0 1.316-.345 2.49-.94 3.375.046-.027.098-.034.124-.06 0 0 .01-.02.02-.02.09-.05.17-.123.256-.175 0-.02 0-.02.02-.02.024-.025.07-.052.09-.085h.02c.026-.04.07-.08.11-.11h.01c.03-.04.054-.074.1-.107 0 0 .014 0 .014-.006.027-.034.066-.08.106-.117v-.01c.045-.02.07-.053.11-.09 0-.015.014-.015.014-.02.064-.068.12-.158.194-.238 0 0 .01-.01.01-.026.032-.034.052-.067.096-.11 0-.01 0-.01.01-.01.023-.03.03-.084.076-.13v-.012c.032-.04.05-.08.08-.105.02-.007.02-.02.02-.034.04-.04.04-.087.075-.14v-.007c.025-.032.05-.076.07-.13 0 0 0-.012.014-.026.03-.083.09-.17.13-.26.005-.02.005-.025.025-.046l.045-.11c0-.01.006-.02.006-.02.014-.05.034-.096.047-.142 0-.014 0-.026.02-.04.027-.04.027-.085.04-.13.007 0 .007-.007.007-.034.02-.033.045-.098.065-.144 0-.016 0-.036.008-.036 0-.04.025-.085.025-.11.013-.012.013-.04.013-.04.02-.052.04-.117.05-.17v-.005c.01-.04.032-.1.032-.15v-.035c.02-.058.024-.104.04-.15v-.013c.01-.058.023-.104.023-.163 0-.005.022-.023.022-.05 0-.03.005-.09.02-.136v-.04c0-.026 0-.105.02-.155v-.05c0-.045 0-.077.004-.123v-.05c.02-.052.02-.117.02-.183.013-.006.013-.006.013-.013v-21.73c0-3.32-2.07-5.56-5.204-5.56" fill="#261C02"/><path d="M83.092 226.85l.038-11.74.026-14.307-1.372 1.382-.04 14.293-.024 11.727c0 1.55-.38 2.66-.863 3.46 1.124-.684 2.235-2.067 2.235-4.816" fill="#261C02"/><path d="M112.98 205.233c-.014-2.98-.647-5.417-5.567-5.417h-.516c-.02 0-.045 0-.078.013h-.14c-.02 0-.04.01-.07.01h-.24c-.02 0-.03.01-.05.01-.034 0-.08 0-.1.01h-.195c-.02.01-.047.01-.08.01-.006.02-.025.02-.046.02h-.125c-.025 0-.038 0-.058.012h-.066c-.007.02-.04.02-.066.02h-.042c-.02 0-.05 0-.065.013-.04 0-.084 0-.11.02h-.05c-.02.007-.04.007-.047.013h-.056c-.022 0-.047.012-.06.012-.014.01-.026.01-.053.01-.02 0-.043 0-.062.02-.012 0-.025.01-.04.01-.02 0-.043 0-.06.003h-.03c-.03 0-.05.02-.06.02-.02.012-.02.012-.04.02h-.082c0 .012-.006.012-.012.012-.046.013-.092.04-.137.04 0 0-.02 0-.02.012-.023 0-.04.01-.06.01-.015 0-.02.007-.034.007-.01.015-.044.015-.06.034h-.03c-.02.007-.033.014-.04.028h-.05c-.008.005-.027.005-.046.005-.008.02-.027.02-.027.02-.035 0-.048.026-.054.026-.013.015-.02.015-.026.015-.01 0-.04 0-.065.013-.07.033-.15.058-.215.098h-.005c-.012.016-.025.03-.058.03-.014.007-.014.007-.014.026l-.05.02h-.02c-.01.01-.037.02-.05.02-.007.01-.014.02-.02.02-.02.02-.033.02-.046.03-.005.01-.02.01-.02.01-.024.01-.03.022-.05.022-.057.052-.11.08-.17.124l-.01.005c-.013.013-.033.025-.046.032 0 0-.013 0-.02.012 0 .014-.012.02-.04.02 0 .02-.01.02-.01.02-.014.013-.02.013-.034.032 0 .005-.02.005-.02.023-.028 0-.04.015-.04.02-.007 0-.007.015-.027.015-.007.01-.026.02-.026.04v.006c-.04.027-.073.06-.1.085l-.033.033c0 .01-.02.01-.02.01-.012.008-.02.02-.02.04l-.02.02-.04.03-.02.02c-.012.008-.012.035-.02.035-.02.008-.02.008-.025.02-.006.015-.006.027-.006.034-.02 0-.02.02-.02.03-.006.008-.026.015-.04.027 0 0-.014.02-.026.027 0 .014-.007.027-.02.053-.02.006-.02.012-.025.03-.01.014-.02.014-.02.02 0 .013-.024.02-.024.03-.012.028-.012.028-.025.028v.04c-.012.015-.012.027-.024.027-.013 0-.013.034-.02.04 0 0-.006.012-.006.026-.015.015-.02.027-.02.04-.014 0-.014.006-.034.02 0 .027-.006.033-.006.033l-.012.03c-.007.022-.015.047-.028.074.802-.425 1.952-.627 3.612-.627 4.925 0 5.552 2.418 5.585 5.403l-.034 1.98 5.358-2.798 1.38-1.36-5.354 2.78.013-1.97" fill="#261C02"/><path d="M111.39 231.438c.085-.07.176-.13.255-.203.078-.077.157-.15.242-.22.066-.092.124-.17.19-.255.058-.09.13-.188.196-.274v-.007c.046-.1.084-.19.13-.3.05-.11.098-.21.138-.31v-.02c.05-.11.1-.22.11-.33v-.02c.03-.11.07-.23.09-.367v-.013c.04-.122.06-.24.07-.37v-.014c.047-.144.06-.26.068-.41v-.026c.02-.124.025-.267.03-.424v-.034c.008-.137.04-.286.047-.437v-.027c0-.165.007-.32.02-.47v-6.226c0-4.83-3.442-4.96-9.035-4.96-7.3 0-7.505-1.69-7.505-6.805v-5.75c0-2.61 1.38-4.08 2.914-4.91-2.138.978-4.29 2.823-4.29 6.264v5.76c0 5.12.212 6.814 7.523 6.814 5.584 0 9.014.123 9.014 4.953v5.423c0 1.826-.15 3.227-.635 4.205.15-.072.3-.15.437-.247" fill="#261C02"/><path d="M137.1 203.157v1.376h.68c4.52-.234 7.428-.932 10.713-2.398.726-.706.85-.85 1.372-1.363-3.285 1.446-6.187 2.158-10.707 2.385H137.1" fill="#261C02"/><path d="M131.55 203.157h-8.968v-4.785l-1.366 1.363v4.798h8.975l-.03 30.595 5.58 3.688 1.36-1.37-5.56-3.706.02-30.583" fill="#261C02"/><path d="M23.59 217.753H11.27l.012 1.362h10.93l-.11 17.56 5.36 2.94 1.367-1.376-5.35-2.94.1-17.557" fill="#261C02"/><path d="M23.672 203.71c.275-4.125.968-7.494 2.483-11.333-.58.61-.79.834-1.378 1.375-1.497 3.82-2.196 7.195-2.484 11.328l-.052 8.682h1.37l.07-10.05" fill="#261C02"/><path d="M6.232 203.71c.207-3.675 1.136-7.488 2.475-11.333-.536.547-.804.762-1.372 1.375-1.34 3.832-2.267 7.646-2.482 11.328l-.196 34.538 5.336-2.94 1.385-1.368-5.356 2.926.21-34.525" fill="#261C02"/><path d="M286.31 326.418v-.064c0-.033-.01-.07-.01-.105 0-.02 0-.06-.008-.07V326c-.014-.025-.014-.064-.02-.097v-.072c-.013-.03-.013-.07-.032-.08 0-.02-.007-.04-.007-.07v-.11c0-.01 0-.02-.02-.043-.007-.052-.02-.105-.04-.157v-.026c-.005-.025-.005-.077-.025-.11v-.045c-.013-.03-.033-.058-.033-.085 0-.025 0-.046-.014-.066-.01-.02-.01-.054-.02-.08 0-.013-.01-.032-.01-.06-.02-.02-.04-.04-.04-.064 0-.01 0-.037-.02-.064 0-.017 0-.04-.02-.05-.01-.033-.01-.052-.02-.06-.01-.02-.03-.044-.03-.084-.02-.008-.02-.027-.02-.03-.012-.04-.02-.075-.052-.11 0-.025 0-.037-.012-.05-.01-.008-.023-.035-.03-.068-.013-.01-.013-.024-.02-.05-.013-.014-.013-.02-.025-.05-.033-.016-.033-.02-.047-.04 0-.015-.02-.04-.024-.05 0-.01-.008-.037-.028-.04-.01-.03-.023-.03-.04-.054 0-.015-.01-.028-.02-.053-.008-.008-.02-.02-.02-.034-.014-.02-.02-.03-.047-.045 0-.007-.01-.03-.024-.04-.054-.052-.1-.104-.145-.15-.012-.005-.012-.02-.012-.02-.017-.02-.037-.02-.037-.045-.035 0-.035-.02-.048-.03-.007-.006-.013-.02-.04-.034-.013 0-.013-.007-.027-.02-.004 0-.015-.025-.043-.03-.01 0-.02-.01-.02-.01l-.055-.04v-.01c-.125-.07-.24-.124-.34-.164-.02 0-.02-.006-.02-.006-.02 0-.03-.006-.045-.006h-.02c-.03-.012-.06-.012-.067-.02-.118-.012-.21-.012-.32-.012-.02 0-.052.015-.092.015-.06.007-.13.025-.22.045-.012.013-.06.026-.09.04-.086.044-.19.09-.28.16l-.036.028c-.085.06-.157.144-.24.235-.02.028-.066.06-.1.088-.052.09-.104.163-.163.254-.013.04-.05.08-.077.12-.06.136-.115.26-.18.417 0 0-.013.007-.013.02 1.004-.136 2.116.96 2.175 3.304l1.66 61.715 1.37-1.366-1.672-61.725v-.186" fill="#261C02"/><path d="M230.222 299.788v-.3c-.012-.014-.012-.04-.012-.054v-.09c-.007-.008-.007-.04-.007-.06-.007-.018-.007-.045-.007-.084-.007-.02-.007-.038-.007-.046 0-.04-.02-.064-.02-.097 0-.02-.02-.033-.02-.04-.016-.038-.016-.084-.02-.13-.01-.05-.02-.085-.04-.123 0-.026-.008-.026-.008-.04 0-.026-.006-.06-.02-.09v-.033c-.007-.04-.02-.05-.03-.09 0 0 0-.02-.016-.04-.013-.02-.013-.05-.025-.07 0 0-.006-.02-.006-.03-.02-.03-.02-.06-.035-.07-.003-.02-.003-.02-.003-.04-.013-.008-.02-.054-.033-.074 0-.012-.013-.02-.013-.02-.02-.033-.03-.065-.03-.1h-.007c-.014-.03-.04-.07-.058-.1 0 0-.008-.015-.008-.028-.02-.02-.033-.04-.04-.065-.005-.013-.012-.013-.012-.026-.02-.026-.033-.033-.045-.065 0-.013-.005-.02-.005-.027-.02-.01-.03-.02-.03-.05-.02-.012-.025-.025-.025-.033-.017-.005-.024-.018-.037-.03-.02-.033-.027-.033-.027-.04-.002-.01-.022-.04-.03-.046-.005 0-.02-.017-.02-.03-.02-.007-.024-.03-.024-.03-.027 0-.027-.023-.033-.03-.027-.013-.047-.03-.07-.058 0-.02-.02-.027-.02-.027-.01-.02-.03-.02-.03-.04-.02-.01-.02-.023-.038-.023-.014 0-.033-.02-.04-.033-.007-.005-.02-.02-.026-.02 0-.005-.014-.025-.04-.038 0 0-.014-.008-.027-.008 0-.013-.025-.013-.04-.013l-.03-.033s-.005-.005-.025-.005l-.03-.033h-.028c-.07-.03-.15-.064-.234-.09h-.01c0-.013-.034-.013-.06-.013h-.013c-.024 0-.032-.007-.045-.007-.11-.02-.208 0-.274.006-.04 0-.062.01-.082.01-.066.025-.126.038-.178.07-.04 0-.086.02-.1.046-.085.025-.145.064-.217.12-.01.015-.03.035-.063.05-.066.07-.125.134-.197.22-.012.032-.052.05-.07.096-.054.06-.112.13-.14.224-.032.03-.05.077-.07.123-.053.102-.125.24-.163.38 0 .01 0 .01-.014.022.85-.014 1.765 1.01 1.765 2.914l1.21 46.44 1.367-1.375-1.208-46.434v-.15" fill="#261C02"/><path d="M237.7 308.1v-.424c-.014-.046-.014-.078-.014-.118 0-.02 0-.03-.012-.058v-.157c-.008-.045-.014-.11-.014-.15-.02-.025-.02-.032-.02-.045 0-.038-.007-.08-.007-.124 0-.012 0-.04-.013-.046 0-.03-.006-.077-.02-.097v-.05c-.005-.03-.025-.063-.038-.082v-.06c0-.03-.006-.072-.006-.103 0 0-.02-.02-.02-.034-.026-.083-.052-.18-.085-.26v-.03c0-.02-.03-.067-.04-.092v-.045c-.02-.02-.02-.045-.03-.06 0-.032 0-.043-.02-.05-.003-.02-.01-.047-.03-.073-.012-.014-.02-.026-.02-.04 0-.027-.012-.05-.024-.085-.013-.014-.013-.02-.013-.02-.014-.033-.027-.07-.053-.104v-.013c-.034-.026-.048-.046-.048-.078-.008-.015-.027-.015-.04-.027 0-.032-.014-.04-.027-.052-.012-.03-.012-.03-.03-.045-.013-.005-.02-.02-.026-.044 0-.01-.01-.025-.02-.036-.015 0-.035-.02-.035-.034-.013-.01-.013-.04-.04-.04 0-.015-.012-.034-.032-.04-.012-.027-.012-.033-.03-.033-.028-.026-.04-.032-.053-.045 0-.02-.013-.027-.026-.06-.014 0-.027-.007-.04-.007 0-.008-.02-.02-.026-.04-.015-.006-.015-.006-.035-.025 0 0-.028-.02-.034-.03 0 0-.016 0-.03-.007-.032-.01-.032-.01-.04-.034-.01 0-.025 0-.025-.02-.056-.01-.11-.05-.174-.067-.013-.026-.04-.026-.053-.04h-.013c-.032 0-.032-.007-.052-.007l-.01-.01c-.02 0-.04-.015-.07-.015-.08-.01-.177-.01-.26 0-.03 0-.06 0-.094.016-.074.01-.146.03-.21.07-.034.006-.05.006-.07.026-.1.048-.17.1-.258.177-.026.015-.05.054-.066.087-.084.052-.13.105-.183.188-.03.04-.05.073-.083.106-.07.11-.143.237-.2.36-.015.048-.034.087-.034.125-.048.074-.094.146-.106.224.876.032 1.75 1.213 1.7 3.454l1.3 48.4 1.378-1.37-1.32-48.402v-.19" fill="#261C02"/><path d="M256.462 284.79c-5.148 0-10.184-.07-15.104-.254l-.04 1.41c4.495.134 9.088.225 13.778.225 4.827 0 9.622-.09 14.294-.24l2.31 73.45 1.388-1.363-2.314-73.444c-4.69.157-9.458.228-14.312.228" fill="#261C02"/><path d="M278.406 319.086v-.234c0-.04-.02-.072-.02-.105v-.072c-.012-.02-.012-.065-.012-.097v-.06c-.013-.037-.013-.083-.013-.11v-.045c0-.045-.01-.11-.02-.157v-.02c-.03-.045-.03-.083-.04-.13v-.13c-.014-.032-.014-.04-.014-.065 0-.02-.013-.06-.02-.09 0 0 0-.02-.027-.05v-.07c0-.026-.02-.033-.02-.045-.02-.026-.027-.072-.035-.097 0 0 0-.027-.01-.027-.015-.052-.015-.084-.034-.125-.01-.01-.01-.024-.01-.024-.01-.026-.03-.066-.04-.09 0-.007-.003-.027-.003-.05-.014-.03-.026-.043-.04-.056 0-.02-.012-.035-.012-.054-.006-.03-.025-.04-.032-.05-.006-.017-.012-.045-.012-.06 0-.016-.01-.04-.03-.048 0-.02-.013-.026-.013-.053 0-.007-.02-.04-.032-.058-.006-.015-.025-.028-.045-.053 0-.026-.015-.04-.02-.06-.01-.02-.04-.044-.04-.05-.01-.007-.01-.02-.027-.02-.006-.026-.027-.04-.04-.066 0-.013 0-.013-.006-.02-.012-.033-.012-.033-.04-.06-.005 0-.026 0-.026-.012-.015-.02-.015-.032-.03-.046-.004-.012-.004-.012-.02-.025-.09-.11-.2-.19-.32-.264-.03-.024-.063-.04-.11-.064-.076-.032-.162-.064-.246-.07-.03-.006-.08-.02-.102-.02-.105-.005-.183 0-.25.02-.04 0-.09 0-.123.033-.118.033-.223.09-.334.182-.033.026-.06.07-.098.097-.08.065-.15.142-.215.235-.04.044-.084.11-.122.19-.04.077-.112.193-.16.31-.024.073-.063.14-.095.203-.01.04-.01.08-.03.08.814.077 1.64 1.2 1.63 3.297l1.98 53.93 1.378-1.38-1.985-53.91v-.17" fill="#261C02"/><path d="M222.496 165.857c-18.592-.268-34.89 1.213-34.89 1.213l-1.38 1.37s16.306-1.468 34.892-1.214c-2.064 21.124.06 41.238-.026 79.226h-.098c.484.02.98.02 1.477.045.14-38.944-2.06-59.234.03-80.64" fill="#261C02"/><path d="M290.444 283.512l-.03 1.185c32.68-2.835 57.55-9.372 63.972-16.887-8.23 7.046-32.616 13.042-63.942 15.623v.08" fill="#261C02"/><path d="M232.308 122.072c-.6.644-.802.807-1.37 1.355-4.522 14.013-7.206 25.152-8.78 35.522.417-.08.802-.14 1.193-.2 1.54-10.7 4.26-22.16 8.96-36.68" fill="#261C02"/><path d="M156.5 262.627c-.064-1.473.537-2.888 1.653-4.218-2.03 1.7-3.103 3.57-3.037 5.58.327 9.16 27.632 17.59 66.005 20.8l1.64 51.98 1.37-1.36-1.634-51.98c-38.36-3.22-65.672-11.64-65.985-20.81" fill="#261C02"/><path d="M270.106 209.484c5.92-1.845 13.353-5.142 18.684-10.826.013-.014.026-.02.034-.04-8.186 7.686-20.12 10.515-24.982 11.38 1.53-.195 3.75-.43 6.264-.514" fill="#261C02"/><path d="M274.312 183.602c1.025 7.49-1.19 13.128-5.082 17.358h.006c.157-.155.313-.312.464-.47.254-.24.51-.462.75-.722.164-.183.314-.372.49-.555.196-.246.405-.475.615-.723.15-.195.307-.39.443-.607.204-.254.38-.5.55-.755.135-.214.287-.43.41-.632.164-.28.34-.56.505-.834.123-.222.215-.444.344-.652.138-.306.308-.612.426-.92.09-.215.19-.43.275-.638.17-.37.28-.724.39-1.09.06-.2.12-.377.184-.586.182-.566.32-1.14.445-1.746v-.012c.02-.072.04-.17.045-.26 0-.03.008-.04.008-.06.02-.086.052-.183.063-.254 0-.027.008-.066.008-.093.01-.08.04-.15.04-.24 0-.04.01-.06.01-.11.02-.06.03-.14.05-.21 0-.04.015-.086.015-.11.006-.08.01-.166.033-.23 0-.046.006-.086.006-.124 0-.08.013-.157.02-.23v-.13l.038-.214c0-.04 0-.09.015-.143 0-.075 0-.14.007-.225.026-.04.026-.08.026-.11v-.28c.005-.17.02-.352.02-.523v-.34c0-.072.01-.145.01-.2v-.363c0-.08-.01-.125-.01-.19v-.387c0-.07 0-.123-.014-.193 0-.068 0-.127-.007-.198v-.39c0-.066-.027-.125-.033-.196 0-.072 0-.13-.013-.176 0-.08-.012-.16-.012-.22-.01-.076-.024-.136-.024-.175 0-.086-.006-.17-.006-.25-.014-.045-.014-.097-.02-.156 0-.1-.02-.17-.033-.27 0-.054 0-.106-.013-.14-.02-.135-.047-.266-.058-.4-1.277-9.51-16.78-13.736-34.437-15.417.05.5.084 1.016.144 1.522 16.99 1.782 31.668 6.018 32.918 15.265" fill="#261C02"/><path d="M242.682 213.284c0 .515-.014 1.01-.02 1.525 12.347 1.4 27.443 4.86 27.17 13.57l-.44 47.18 1.354-.047.463-48.5c.25-9.02-15.96-12.45-28.53-13.74" fill="#261C02"/><path d="M290.897 246.676l-.032 1.552c24.738 3.213 44.86 6.816 44.86 12.716 0 .938-.43 1.948-1.118 2.823.014 0 .027-.008.04-.008.22-.21.444-.39.64-.58.04-.05.092-.1.117-.13.184-.198.36-.368.51-.557.013-.027.033-.04.046-.06.15-.195.314-.403.444-.6.02-.045.058-.09.086-.136.11-.22.226-.423.313-.625v-.02c.014-.032.033-.07.038-.117 0 0 .02-.01.02-.016.02-.047.03-.07.04-.118.018-.008.018-.02.018-.035l.03-.096s0-.017.008-.025c0-.04.02-.067.035-.1v-.04c.01-.04.01-.07.026-.09 0-.027.015-.04.015-.04 0-.04.02-.07.02-.09 0-.014 0-.04.004-.04 0-.046.007-.066.007-.097 0-.02 0-.03.026-.046v-.084c0-.01 0-.035.008-.054v-.07c0-.025.01-.04.01-.05 0-.034 0-.06.016-.092v-.176c0-6.007-20.88-9.644-46.21-12.903" fill="#261C02"/><path d="M176.96 258.025c5.925-4.407 25-7.163 44.134-10.025-.02 7.405-.13 15.453-.373 24.31l.06 1.874h.02c.45.045.93.097 1.41.136l-.11-3.37c.25-8.863.36-16.927.38-24.31-21.033 3.147-42.015 6.158-45.51 11.385" fill="#261C02"/><path d="M499.885 234.913h-8.362s-6.97 0-6.97-5.742l-.014-4.09-1.37 1.38.01 4.08c0 5.75 6.98 5.75 6.98 5.75h8.32s7.5.57 7.92-8.01c-.425 6.49-6.27 6.64-6.525 6.64" fill="#261C02"/><path d="M81.28 234.92h-7.41s-7.106-.327-7.106-6.93l.02-12.782v-17.93c0 .033-1.36 1.362-1.36 1.362v17.932l-.026 12.8c0 6.585 7.102 6.922 7.102 6.922h7.394s8.845.58 9.153-7.873h-.02c-.328 6.14-7.52 6.5-7.747 6.5" fill="#261C02"/><path d="M118.376 229.357c-.012.052-.02.105-.02.143v.006c-.02.045-.03.09-.03.125v.02c0 .056-.022.088-.034.13-.013.04-.027.08-.04.13-.006.04-.006.08-.025.13v.01c-.008.034-.008.073-.033.118-.008.04-.02.08-.033.118v.02c-.01.026-.03.066-.03.1-.02 0-.02 0-.02.006 0 .045-.01.078-.02.13-1.17 3.48-4.334 4.21-5.6 4.347h-.01s-.01.005-.02.005h-.14c-.02 0-.022.02-.022.02h-.073c-.005 0-.005.01-.02.01h-.18l-.008.01h-8.394s-6.98 0-6.98-5.75l-.007-4.092-1.385 1.384.026 4.08c0 5.74 6.97 5.74 6.97 5.74h8.343s7.55.608 7.93-8.067c-.02.365-.05.69-.104 1-.013.04-.013.106-.027.14" fill="#261C02"/><path d="M324.007 204.692c.008.058.027.097.027.143v.033c.012.06.012.077.025.117v.046c0 .04 0 .07.01.11v.19c.02.04.02.07.02.09v.84c0 .05 0 .108-.02.14v.145c-.04.28-.08.57-.13.826-.02.11-.06.215-.08.32-.04.157-.08.326-.14.475-.037.11-.08.236-.127.34-.046.138-.098.26-.157.39-.07.12-.118.23-.17.34-.06.11-.125.22-.19.34-.07.11-.15.21-.228.32-.067.103-.13.214-.204.306-.073.098-.17.21-.26.32-.08.077-.145.156-.23.247-.106.105-.196.19-.287.308-.09.073-.17.158-.244.203-.124.103-.23.2-.333.305-.027.02-.06.04-.1.066-1.776 1.41-4.12 2.237-6.224 2.74h-.015c-.34.09-.67.16-.987.2-.02.01-.02.01-.046.01-.32.067-.632.127-.945.165l-.077-13.61-.01-.55c-.013-.33-.04-.654-.08-.985 5.646.485 10.78 1.835 11.185 5.074m-16.33-5.304c-.04.41-.107.814-.12 1.213l-.224 37.26 5.776-3.18-.105-18.165-.02-1.43c3.955.137 10.074.873 9.997 4.12l.197 15.473 5.48 3.18-.155-19.75c0-.214-.005-.39-.02-.584 0-.054-.018-.105-.03-.165-.008-.12-.033-.245-.066-.357-.01-.05-.03-.122-.05-.168-.037-.11-.064-.228-.103-.32-.015-.06-.048-.104-.067-.15-.04-.104-.105-.227-.17-.325-.012-.03-.026-.06-.04-.08-.084-.125-.162-.257-.274-.36 0-.028-.015-.04-.04-.06-.067-.098-.17-.17-.257-.26-.025-.02-.05-.06-.097-.073-.073-.075-.158-.135-.25-.21-.04-.02-.07-.04-.09-.06-.106-.067-.204-.14-.334-.197-.01 0-.026-.023-.026-.023-.43-.21-.87-.37-1.36-.48-.8-.175-1.637-.227-2.415-.214-1.574.04-2.875.34-2.875.34s3.684-.853 6.592-3.324c1.05-.87 1.964-1.958 2.637-3.268.007-.016.007-.028.013-.05.307-.62.516-1.29.68-2.006.007-.047.02-.1.026-.152.076-.336.123-.7.143-1.054v-.22c.032-.384.044-.755 0-1.17-.346-5.263-6.056-7.88-16.234-6.84-.458.064-.903.12-1.36.17-.425-2.744-1.11-5.3-2.22-8.083-1.027 2.96-1.817 5.88-2.28 8.786-.386.068-.75.14-1.13.225-5.523 1.08-9.317 2.404-9.317 2.404s4.737-.457 10.18-.398" fill="#CE1141"/><path d="M354.17 226.83v.378s0 .012-.007.025c0 .053 0 .11-.006.177v.045c0 .04-.014.085-.014.13v.046c-.007.05-.012.12-.02.17v.02c0 .056-.018.1-.018.15 0 .01 0 .037-.014.05-.01.097-.02.207-.05.31v.04c-.02.06-.02.098-.023.158 0 0 0 .01-.02.01-.01.06-.027.106-.04.16 0 .02 0 .02-.02.02l-.02.147-.012.006c-.012.06-.04.126-.06.164v.004c-.02.058-.023.104-.05.15 0 0-.013.013-.013.026-.04.096-.07.2-.112.298v.02c-.063.09-.1.184-.15.28-.005.007-.005.007-.01.007-.013.07-.04.104-.066.137-.045.05-.05.1-.1.167-.01.034-.05.087-.062.12h-.015c-.05.104-.116.19-.182.26l-.01.02c-.064.085-.12.163-.19.254-.176.183-.36.346-.55.507-.064.048-.13.08-.193.13-.07.06-.163.1-.23.158-.586.374-1.245.635-2.023.76-.05.006-.084.006-.137.006-.246.022-.495.06-.75.06-3.175 0-5.213-1.623-5.213-5.56V205.5c0-.34.025-.652.046-.932.004-.07.02-.142.03-.202.065-.59.19-1.107.392-1.577.005-.03.005-.05.02-.09.1-.24.225-.458.36-.67.043-.07.095-.158.154-.24.003 0 .003-.016.003-.028.03-.02.054-.06.067-.1.013 0 .013-.013.046-.027.02-.027.034-.058.08-.097 0-.01.01-.01.014-.02.033-.03.066-.077.078-.09 0-.01.013-.01.013-.03.145-.14.29-.28.428-.4.046-.025.085-.06.106-.084.012-.004.012-.004.045-.004.02-.02.06-.046.08-.066.033-.02.033-.026.047-.047.02-.01.077-.03.09-.058 0-.015.034-.015.046-.02.02-.026.067-.053.08-.06.014 0 .033-.02.046-.03.032-.008.065-.027.09-.054.02-.006.03-.006.04-.006.124-.065.236-.117.34-.18.02 0 .04-.015.04-.015.044-.008.08-.03.11-.048.02 0 .033-.006.073-.02.02 0 .045-.012.083-.025.006 0 .04-.016.05-.016.037-.026.065-.026.09-.043.017 0 .045-.008.09-.008.018-.027.03-.027.077-.03.033 0 .052-.023.066-.037.04-.006.052-.006.092-.02.026-.01.05-.01.097-.01.013-.014.052-.028.072-.028.047-.014.1-.02.15-.027.008 0 .06-.018.074-.018.04-.02.08-.02.13-.026.02 0 .02 0 .06-.008.034 0 .073-.02.1-.02.032 0 .07 0 .084-.014.02 0 .07-.01.104-.01h.067c.053-.008.07-.008.117-.008.035-.01.06-.01.073-.01.05 0 .08-.02.115-.02h.457c3.145 0 5.185 2.236 5.185 5.554v21.326zm-1.653-29.507h-7.082s-7.59 0-7.59 7.19v23.21c0 7.28 7.59 7.188 7.59 7.188h7.082c.327 0 7.088-.07 7.552-6.46.03-.222.04-.47.04-.72v-23.21c0-7.19-7.6-7.19-7.6-7.19z" fill="#CE1141"/><path d="M382.973 197.32H375.9s-7.6 0-7.6 7.195v23.205c0 7.28 7.6 7.195 7.6 7.195h7.275c0-.01 0-.01.014-.01h.11c.004 0 .02 0 .04-.02.08 0 .21 0 .32-.028h.03c.037 0 .037-.006.05-.006h.242c.02-.01.046-.01.06-.01.02-.01.04-.01.065-.01h.012c.012 0 .025 0 .05-.006.013 0 .05 0 .065-.027.03 0 .052-.012.06-.012h.01c.288-.03.594-.096.94-.187.028-.02.053-.02.08-.02.036-.008.054-.008.074-.02h.007c.046-.013.065-.02.084-.02.02-.013.06-.013.08-.027h.008c.014-.005.047-.03.086-.04.024 0 .035-.004.062-.017.437-.144.907-.32 1.35-.555.026-.02.06-.027.08-.034v-.005c.038-.02.05-.03.07-.054h.033c.013-.014.04-.02.065-.052.03-.007.05-.034.098-.046.023-.013.04-.033.07-.052.42-.254.82-.554 1.19-.92.03-.02.06-.05.08-.07v-.014c.03-.016.05-.042.063-.07.026-.026.052-.045.066-.07.02 0 .02-.007.02-.007.024-.026.037-.05.063-.07v-.015c.02-.01.06-.055.084-.075v-.012l.05-.07c.02-.033.055-.05.06-.08.006 0 .006-.003.006-.003.027-.034.053-.06.07-.094.238-.32.46-.67.636-1.06h.015c.006-.034.025-.08.045-.1v-.032c.014-.02.026-.042.046-.08v-.014c.012-.04.04-.08.045-.11l.015-.01c0-.04.016-.06.02-.09 0-.013 0-.013.028-.025 0-.032.02-.06.033-.1.007 0 .007-.004.007-.02.006-.036.02-.055.033-.095v-.033c.008-.024.02-.064.033-.09v-.032l.04-.106v-.026c.016-.016.024-.05.03-.09 0-.01 0-.017.006-.037 0-.02.02-.052.02-.097.025-.013.025-.02.025-.032.012-.02.012-.057.012-.1.01 0 .01-.023.01-.023.014-.04.02-.07.02-.104 0 0 .006-.012.006-.03 0-.026.013-.058.026-.117.043-.23.07-.46.1-.71.027-.29.046-.64.046-.985v-2.93h-5.93v2.267c-.012.053-.012.105-.012.145v.248c0 .038-.013.09-.013.136 0 0-.01.01-.01.04 0 .043-.012.11-.012.167 0 0-.016.014-.016.02 0 .053-.004.09-.03.144v.055c-.006.046-.013.1-.013.15-.013.07-.03.11-.03.16 0 .015 0 .028-.02.048 0 .048-.015.088-.015.146 0 0 0 .014-.007.014-.02.057-.04.11-.048.16l-.004.014c-.014.052-.027.098-.053.15v.006c-.007.066-.026.125-.045.163v.035c-.027.033-.04.078-.055.13 0 0-.012.014-.012.04-.04.09-.076.183-.114.28-.013 0-.013.02-.013.026-.053.086-.1.184-.145.275-.008.005-.008.005-.014.02-.02.057-.027.09-.06.13l-.005.02c-.02.024-.07.07-.076.122l-.01.012c-.04.046-.06.085-.07.123-.027 0-.027 0-.027.02-.052.078-.1.164-.178.234 0 0 0 .027-.014.027-.066.09-.118.156-.196.247h-.005c-.045.046-.073.085-.112.104-.024.045-.06.08-.104.125-.04.04-.086.08-.11.11-.08.08-.16.14-.25.21h-.015c-.07.08-.158.127-.24.19 0 0-.015 0-.015.015-.035.02-.082.047-.115.073-.59.366-1.255.626-2.03.73-.05.007-.094.007-.12.007-.254.027-.51.066-.764.066-3.17 0-5.21-1.62-5.21-5.56V205.5c0-.333.03-.65.06-.932l.02-.21c.07-.585.196-1.1.37-1.57.028-.032.054-.052.054-.083.1-.243.215-.452.346-.665.06-.08.11-.165.162-.242v-.026c.03-.02.06-.058.09-.104v-.013c.04-.04.065-.072.1-.125h.02c.022-.03.043-.077.063-.11h.014c.176-.19.352-.36.55-.495.02-.007.02-.007.025-.007.02-.026.058-.058.105-.072 0-.02.02-.025.027-.045.035 0 .06-.03.098-.05 0-.01.014-.01.033-.01.034-.026.06-.053.1-.06 0 0 .01-.018.025-.018.04-.02.085-.046.104-.072v-.007c.146-.064.28-.12.407-.174 0 0 .014-.016.027-.016.03-.007.06-.027.09-.052.03 0 .056-.006.056-.006.032-.01.08-.04.1-.04.04 0 .05-.01.063-.01.032-.026.05-.026.09-.046.02 0 .046-.005.06-.005.04-.02.064-.025.103-.03.028 0 .053-.014.08-.027.02-.006.053-.006.077-.02.02-.01.06-.01.08-.01.044 0 .064-.027.09-.027.045-.014.07-.026.123-.026.028-.01.08-.02.104-.04.046 0 .066 0 .09-.008.035 0 .073 0 .093-.006.034 0 .067-.02.106-.02.032 0 .056 0 .084-.014.027 0 .067-.014.09-.014h.088c.046-.006.065-.006.1-.006.03-.008.062-.008.083-.008.048 0 .07-.02.11-.02h.46c3.14 0 5.2 2.235 5.2 5.553v2.03h5.93v-3.01c0-7.193-7.59-7.193-7.59-7.193" fill="#CE1141"/><path d="M506.424 219.446c0-6.407-3.098-6.87-10.08-6.87-4.842 0-6.41-.17-6.41-4.264l-.024-3.695c0-.247.006-.494.025-.723v-.116c.02-.49.08-.94.196-1.35.06-.21.12-.403.21-.587 0-.01.03-.04.03-.07l.02-.02c.007 0 .007-.03.02-.04.01 0 .01-.01.01-.02 0-.02.01-.02.03-.04 0 0 .005-.01.005-.02 0-.013.013-.013.027-.033 0-.02.014-.02.014-.025.01-.01.01-.024.01-.03 0 0 .01-.014.01-.033.025 0 .025-.027.033-.04 0-.006.024-.02.024-.027.01 0 .03-.03.03-.04v-.004c.02-.02.02-.034.05-.054.007 0 .007-.02.015-.02 0-.025.01-.025.025-.046 0 0 .015-.02.034-.023 0-.013.005-.026.005-.026.01-.013.025-.02.025-.02.015-.025.015-.025.027-.03 0-.022.014-.022.022-.03.004-.02.004-.02.024-.024 0 0 0-.013.02-.03 0-.016.015-.016.015-.02.01 0 .027-.015.04-.028.013-.012.026-.025.03-.04 0-.01 0-.01.01-.01.025-.014.037-.035.05-.04 0-.02.027-.025.04-.025.006-.02.013-.03.013-.03.005-.015.025-.028.025-.028.014-.007.027-.02.04-.02.007-.013.026-.02.03-.02.016-.02.016-.02.016-.03 0 0 .02 0 .034-.02 0 0 .032-.006.04-.027.012-.013.017-.013.04-.02 0-.012.02-.025.02-.025s.023-.005.023-.024c.03-.01.03-.01.054-.028 0-.018 0-.018.01-.02.025 0 .052-.03.065-.037.01 0 .023-.02.03-.02.008-.006.02-.012.033-.012.02-.012.03-.012.03-.02.013-.013.026-.013.053-.013 0-.02.006-.026.02-.026.01-.014.03-.014.044-.03.02-.01.02-.01.025-.01.006-.006.038-.006.038-.02.02 0 .02-.02.027-.026.045 0 .06 0 .06-.014 0-.01.02-.01.04-.01.017-.015.03-.02.05-.02.013-.02.027-.02.027-.026.027-.02.054-.02.08-.027.02-.014.02-.014.03-.014.007-.013.02-.02.053-.02h.04c.006-.01.03-.01.03-.01.015-.027.028-.027.04-.027.033-.02.033-.02.05-.02.016-.007.035-.007.048-.007.014 0 .034-.02.06-.03.01 0 .02-.005.04-.005.013 0 .034 0 .046-.02.016-.013.034-.013.034-.013.027-.007.045-.007.085-.02.01 0 .015-.012.05-.012.005 0 .044 0 .076-.025h.02c.02-.014.046-.014.066-.027h.046l.07-.02s.012 0 .04-.02h.055c.02-.004.02-.004.035-.004h.07c.03 0 .03-.02.05-.02.01 0 .06 0 .06-.015.03 0 .035 0 .04-.013.034 0 .07 0 .1-.007h.04c.026-.007.065-.007.09-.026h.033c.048 0 .067 0 .087-.02h.183c.005-.02.045-.02.057-.02.027-.012.047-.012.066-.012h.26c.046-.02.073-.02.12-.03h.182c.044 0 .063 0 .09-.014h.15c.013 0 .032 0 .046-.013h.594c4.91 0 5.532 2.438 5.545 5.41l-.01 1.976 5.364-2.795v-.68c0-6.53-6.38-6.54-6.38-6.54h-8.32s-.047.006-.06.006h-.04c-.05 0-.104 0-.176.014h-.08c-.144.01-.365.023-.594.063-.147.01-.283.02-.427.05-.085.03-.162.036-.23.04-.17.035-.312.07-.47.107-.06.007-.116.04-.194.046-.2.05-.41.13-.66.19-.06.025-.116.044-.17.07-.24.08-.507.17-.748.3h-.026c-.04.02-.072.034-.11.046-.007.02-.033.028-.053.028l-.083.047c-.025 0-.044.026-.056.026-.02.013-.054.033-.08.033-.02.02-.053.04-.058.052-.013.02-.046.024-.06.024-.032.02-.063.04-.083.06-.026.004-.04.004-.054.02-.03.01-.067.023-.09.056-.01 0-.017 0-.017.01-.26.162-.503.337-.724.507v.013c-.05.04-.066.06-.11.096h-.014c-.04.03-.064.07-.11.095-.3.297-.57.6-.804.98v.01c-.03.048-.06.088-.08.107 0 .012-.016.02-.016.04-.006.03-.026.07-.066.115 0 .013 0 .027-.02.04-.02.04-.03.065-.036.116-.016.01-.03.016-.048.05-.006.03-.026.064-.052.104 0 .02-.006.033-.006.033-.02.05-.027.084-.065.136 0 .005 0 .02-.02.026-.04.142-.09.28-.13.422-.015.01-.03.04-.03.047 0 .036-.023.09-.037.11 0 .04 0 .06-.014.09-.02.03-.027.064-.027.116 0 .014-.007.047-.013.085-.01.02-.01.06-.02.094 0 .033-.02.07-.02.105-.008.04-.008.064-.014.09-.014.037-.014.07-.026.11v.09c-.02.045-.02.09-.033.13 0 .02-.015.05-.015.077v.138l-.003.087c-.013.056-.013.1-.013.16v.07c0 .075-.02.14-.02.22v5.74c0 5.12.215 6.79 7.513 6.79 5.578 0 9.014.13 9.014 4.956v5.718c-.015.16-.015.32-.015.48v.035c0 .156 0 .313-.01.463v.04c-.005.15-.005.288-.005.437v.032c-.028.144-.035.28-.06.417v.03c-.013.122-.034.253-.046.397 0 .01-.007.01-.007.01-.04.133-.06.263-.07.38v.02c-.02.117-.067.253-.098.344v.02c-.032.126-.065.224-.097.334v.03c-.06.098-.09.19-.14.287 0 .016-.02.016-.02.016-.027.096-.07.2-.124.29v.01c-.074.097-.126.174-.183.26-.01 0-.01.006-.01.006-.065.105-.14.177-.2.25h-.002c-.073.096-.153.17-.21.227l-.014.02c-.085.064-.156.116-.254.182v.012c-.1.07-.204.11-.29.162l-.005.01c-.06.034-.104.047-.15.073-.57.28-1.29.47-2.2.54h-.073c-.293.02-.633.033-.98.033-5.082 0-5.7-2.455-5.7-6.77l-.015-2.68-5.36 2.276.01 4.093c0 5.74 6.97 5.74 6.97 5.74h8.363c.256 0 6.1-.15 6.526-6.642.01-.24.01-.486.01-.753v-8.07" fill="#CE1141"/><path d="M434.226 226.524l-.045-7.607v-1.36l2.04.005c4.54-.294 8.71-.894 13.42-2.647-3.68-1.487-8.35-2.177-13.42-2.522h-2.04l.05-6.225c-.02-.117-.02-.24 0-.385 0-.046.02-.077.02-.116 0-.124.007-.228.052-.333 0-.045.013-.104.04-.143.01-.09.03-.2.058-.32.034-.06.04-.12.073-.18.006-.06.033-.11.05-.17.185-.52.41-1.02.615-1.412.012-.025.02-.04.04-.085 0-.013.02-.04.025-.06.062-.13.12-.24.19-.32v-.024c.023-.005.023-.02.035-.04 1.64-1.764 4.287-1.647 4.287-1.647l10.07-.028c-.77-4.023-7.55-3.325-7.55-3.325h-6.254c-.03 0-.18 0-.33.013h-.045c-.164.016-.392.04-.653.087h-.01c-.27.034-.577.087-.87.153h-.02c-.34.062-.686.167-1.045.297H433c-1.28.418-2.693 1.187-3.68 2.55-.77 1.05-1.286 2.478-1.286 4.38l.052 10.605-.052 12.026c-.033 7.32 8.01 7.24 8.01 7.24h6.186s6.866.72 7.558-3.4l-10.224.05s-5.338.32-5.338-5.042" fill="#CE1141"/><path d="M454.022 197.493v4.874h9.12l-.033 31.105 5.66 3.773.01-34.878h2.09c4.59-.246 7.53-.944 10.893-2.436-3.364-1.57-6.305-2.12-10.897-2.43h-16.854" fill="#CE1141"/><path d="M421.22 197.5h-5.495l-11.608 16.476v-16.698l-5.795-3.742v43.69l5.795-3.73v-18.783l12.28 19.455h6.324l-13.13-20.78 11.63-15.89" fill="#CE1141"/><path d="M53.07 226.85v.37c0 .013 0 .013-.014.02 0 .06 0 .124-.02.176v.052c-.006.052-.006.077-.006.123v.05c-.02.05-.02.13-.02.16v.04c-.012.05-.02.107-.02.14 0 .028-.02.045-.02.053 0 .058-.01.103-.025.163v.013c-.013.044-.013.09-.033.15v.03c0 .05-.026.11-.038.15v.007c-.008.06-.027.12-.047.17 0 0 0 .027-.013.04 0 .026-.025.07-.025.117-.01 0-.01.02-.01.028-.02.047-.05.11-.07.144 0 .026 0 .034-.01.034-.015.042-.015.09-.04.13-.014.012-.014.023-.014.04-.013.043-.04.09-.05.14 0 0-.007.006-.007.027l-.047.105c-.02.02-.02.028-.026.046-.04.09-.096.178-.13.26-.005.015-.005.03-.005.03-.02.053-.052.105-.08.13v.007c-.038.053-.038.1-.077.138 0 .013 0 .027-.02.033-.025.025-.045.066-.077.104v.015c-.04.046-.05.098-.08.13v.007c-.048.047-.07.08-.1.12 0 .006-.006.02-.006.02-.077.08-.123.17-.195.24 0 .005-.015.005-.015.013-.04.036-.066.07-.11.09v.01c-.04.04-.074.085-.106.117 0 .006-.015.006-.015.006-.045.04-.07.066-.097.105h-.016c-.04.035-.08.074-.1.11h-.02c-.024.035-.07.06-.096.094-.02 0-.02 0-.02.013-.082.05-.16.125-.253.178-.013 0-.02.02-.02.02-.03.025-.08.038-.123.063-.575.37-1.247.62-2.02.725-.024.01-.076.025-.116.025-.254.04-.503.053-.76.053-3.17 0-5.212-1.61-5.212-5.553V205.5c0-.328.02-.64.045-.927.01-.07.02-.137.037-.2.08-.585.19-1.126.385-1.57.015-.04.02-.076.027-.104.097-.237.22-.446.352-.66.074-.13.16-.26.26-.387.02-.04.06-.078.083-.118.195-.24.43-.43.65-.613 0-.01.015-.01.015-.01.034-.03.08-.05.113-.08.02 0 .025-.02.025-.02.034-.01.067-.035.125-.07v-.005c.033-.027.08-.053.105-.078l.033-.01c.17-.09.333-.183.517-.26 0 0 .005-.01.012-.01.03-.01.08-.037.11-.044.01 0 .023-.015.05-.015.02-.01.056-.022.09-.022.026-.014.04-.014.05-.04.047 0 .06-.02.12-.026 0 0 .026 0 .045-.02.023-.01.07-.01.09-.03.03-.013.06-.013.08-.02.02 0 .05-.012.09-.024.01 0 .06 0 .07-.016.045-.012.072-.02.09-.02.054-.01.08-.01.113-.02.05-.01.076-.03.12-.03.047-.005.074-.005.11-.005.03-.01.05-.01.074-.03.04 0 .07 0 .083-.014.046 0 .072-.015.1-.015h.103c.026-.006.04-.006.072-.006.034-.005.07-.005.105-.005.033-.02.06-.02.078-.02h.198c.028-.02.087-.02.126-.02h.255c3.14 0 5.206 2.24 5.206 5.56v21.36zm-1.675-29.55H44.31s-2.11.014-4.11 1.057c-1.778.95-3.488 2.735-3.488 6.138v23.244c0 7.29 7.597 7.19 7.597 7.19h7.08s7.6.093 7.6-7.2v-23.24c0-7.196-7.6-7.196-7.6-7.196z" fill="#CE1141"/><path d="M83.155 200.802l-.025 14.307-.04 11.74c0 2.74-1.11 4.13-2.235 4.81-1.15.68-2.26.68-2.26.68h-1.672s-4.252-.47-4.24-5.5v-11.85l.066-14.13-5.97-3.59v17.93l-.02 12.79c0 6.6 7.11 6.92 7.11 6.92h7.41c.22 0 7.42-.358 7.74-6.498.02-.145.02-.295.02-.45l.005-13.878s-.105-16.62-.105-16.81l-5.794 3.52" fill="#CE1141"/><path d="M188.774 233.856l.045-18.06.01-3.175 16.94 22.42-.05-28.15c-.297-5.912-1.21-9.73-2.458-14.04-1.47 5.5-2.294 8.76-2.548 14.04l.01 12.52-1.37-1.79-15.614-20.294.027 40.18 4.996-3.643" fill="#CE1141"/><path d="M108.418 212.565c-4.815 0-6.416-.17-6.416-4.275l-.005-3.697c0-.246.005-.48.005-.715 0-.047.007-.1.007-.132.03-.49.08-.925.2-1.33v-.006c.05-.22.11-.404.21-.586.01-.027.02-.052.02-.073l.01-.03s.006 0 .006-.03c.02-.01.02-.02.033-.02 0-.01.012-.02.025-.04 0-.01.005-.02.005-.02.01-.004.01-.04.02-.04.015 0 .015-.01.02-.023v-.04c.01 0 .01 0 .028-.026 0-.012.02-.02.02-.03 0-.007.013-.007.02-.02.006-.02.006-.026.025-.033.014-.026.02-.04.02-.053.013-.005.027-.025.027-.025.01-.01.03-.02.036-.026 0-.013 0-.033.02-.033 0-.007.006-.02.013-.033.003-.016.003-.016.023-.02.01 0 .01-.03.02-.035l.014-.02.036-.03.02-.02c0-.02.01-.033.02-.04 0 0 .02 0 .02-.013.014-.01.02-.017.035-.03.025-.025.06-.058.104-.083v-.007c0-.02.02-.024.026-.04.014 0 .014-.01.02-.01 0-.006.014-.02.04-.02 0-.02.02-.02.02-.025.012-.02.02-.02.033-.03 0 0 .01 0 .01-.02.024 0 .04-.004.04-.02.004-.01.02-.01.02-.01.01-.008.04-.02.05-.034l.013-.007c.05-.046.102-.072.16-.124.02 0 .027-.015.054-.027 0 0 .01 0 .022-.008.013-.01.026-.01.046-.03.006 0 .013-.006.02-.02.005 0 .032-.006.045-.02h.02l.055-.02c0-.02 0-.02.01-.025.033 0 .045-.014.06-.027h.006c.074-.04.145-.065.217-.1.024-.01.05-.01.065-.01.01 0 .02 0 .03-.014.008 0 .02-.028.047-.028 0 0 .02 0 .024-.02.02 0 .04 0 .045-.01h.052c.01-.013.02-.02.04-.026h.04c.013-.02.044-.02.06-.033.006 0 .012-.003.025-.003.02 0 .04-.013.06-.013 0-.01.017-.01.017-.01.046 0 .09-.027.145-.04.006 0 .012 0 .012-.014h.08c.02-.007.02-.007.04-.02.01 0 .027-.02.06-.02h.032c.02-.005.046-.005.066-.005.006 0 .02-.006.03-.006.02-.02.047-.02.067-.02.025 0 .038 0 .052-.014.01 0 .04-.012.056-.012h.066c.006-.006.02-.006.04-.012h.05c.028-.02.073-.02.113-.02.02-.013.053-.013.073-.013h.037c.028 0 .06 0 .067-.02h.062c.02-.01.033-.01.066-.01h.12c.017 0 .037 0 .044-.02.034 0 .06 0 .086-.01h.19c.02-.018.065-.018.105-.018.02 0 .027-.012.04-.012h.24c.036 0 .055-.01.067-.01h.14c.03-.015.064-.015.084-.015h.517c4.92 0 5.546 2.436 5.56 5.416l-.014 1.974 5.36-2.783v-.7c0-6.543-6.376-6.543-6.376-6.543H103.6s-2.27.02-4.28 1.094c-1.53.83-2.91 2.295-2.91 4.91v5.74c0 5.123.202 6.806 7.505 6.806 5.59 0 9.033.138 9.033 4.96v6.225c-.014.158-.02.314-.02.464v.035c-.007.155-.033.3-.04.442v.035c-.006.155-.02.29-.04.415v.03c-.005.144-.02.27-.065.407v.01c-.014.14-.03.25-.066.38v.012c-.028.13-.067.253-.09.364v.02c-.01.1-.06.215-.108.32v.02c-.04.104-.088.21-.14.305-.04.12-.084.2-.13.3v.01c-.066.085-.137.176-.19.27-.072.09-.13.16-.195.25-.08.08-.162.15-.24.225-.08.077-.17.135-.255.206-.137.094-.286.18-.437.25-.567.287-1.293.464-2.206.535h-.06c-.3.032-.63.032-.995.032-5.077 0-5.696-2.443-5.696-6.777l-.03-2.68-5.347 2.28.005 4.09c0 5.75 6.99 5.75 6.99 5.75h8.393l.007-.007h.176c.01 0 .01-.012.02-.012h.077s.007-.015.028-.015h.13c.008 0 .02-.007.02-.007h.015c1.26-.136 4.433-.867 5.6-4.347.01-.05.022-.082.022-.13 0-.005 0-.005.02-.005 0-.03.02-.064.03-.097v-.02c.015-.037.028-.076.034-.115.027-.047.027-.08.033-.11v-.015c.025-.05.025-.09.03-.13.013-.05.025-.09.038-.122.013-.052.032-.085.032-.14v-.01c0-.033.014-.08.027-.117v-.007c0-.046.008-.1.02-.15.015-.032.015-.09.027-.13.05-.32.083-.644.102-1.01.02-.22.03-.45.03-.69v-8.077c0-6.42-3.11-6.884-10.117-6.884" fill="#CE1141"/><path d="M122.58 198.37v4.785h8.97l-.02 30.59 5.56 3.7.013-34.29h2.057c4.515-.228 7.42-.932 10.707-2.386-3.286-1.56-6.192-2.1-10.7-2.38l-16.587-.02" fill="#CE1141"/><path d="M158.962 205.5c0-.333.02-.653.054-.932.012-.066.02-.138.025-.204.08-.592.21-1.132.4-1.576.02-.04.02-.052.03-.078.11-.248.214-.457.36-.67.02-.014.03-.053.04-.1.02-.012.02-.025.044-.046.01-.02.02-.058.045-.07.03-.007.03-.04.04-.052.01-.02.035-.058.055-.085.013-.02.027-.033.05-.06.015-.025.034-.045.054-.065.02-.025.03-.032.045-.046.02-.02.03-.064.055-.083.02-.014.026-.033.045-.04.028-.032.047-.06.066-.085.016-.012.03-.02.05-.026.086-.084.184-.175.28-.254 0-.012.02-.02.034-.02.026-.025.045-.045.07-.064.02-.02.028-.026.053-.046.028-.02.04-.033.08-.053.02-.018.026-.025.04-.045.04-.013.056-.032.09-.052.013-.013.026-.013.05-.032.028-.014.054-.04.086-.047.02 0 .034-.04.054-.04.024-.01.044-.03.083-.06.02-.008.04-.008.057-.02.028-.01.047-.03.08-.05.02-.01.033-.02.05-.02.055-.02.113-.06.18-.08.025-.01.044-.026.05-.026.027-.008.07-.028.093-.053.025 0 .045-.006.064-.02.046-.012.053-.025.093-.025.02 0 .063-.013.07-.013.026-.026.04-.026.09-.046.02-.006.054-.006.09-.027.01 0 .035-.007.07-.007.03-.02.044-.02.075-.032.033-.003.06-.003.08-.016.032-.01.065-.01.103-.01.012-.026.05-.026.07-.026.046-.014.1-.028.145-.034.025 0 .04-.01.058-.01.054-.02.09-.02.13-.027.035 0 .06 0 .068-.005.06 0 .09-.02.123-.02.025 0 .04 0 .064-.015.04 0 .083-.01.11-.01h.08c.04-.006.08-.006.1-.01h.083c.045-.02.09-.02.11-.02h.27c.06-.016.13-.016.19-.016 3.154 0 5.212 2.25 5.212 5.57v21.347c0 .06 0 .13-.013.183v.24c0 .047-.005.107-.013.17v.028c-.007.06-.007.1-.007.144 0 .025-.013.025-.013.045v.16c0 .02 0 .02-.02.027-.008.044-.008.09-.02.15v.037c-.02.106-.053.21-.066.32 0 .02 0 .03-.01.03-.01.068-.02.107-.033.153l-.01.01c-.012.06-.02.125-.032.163v.034c-.027.037-.027.096-.054.135 0 0 0 .013-.005.025-.024.047-.038.1-.05.15 0 0 0 .006-.014.006 0 .048-.01.11-.04.153 0 .01-.002.01-.002.022-.048.1-.086.19-.12.3 0 0-.01 0-.01.014-.057.09-.11.182-.155.287-.02.065-.054.105-.08.144-.04.1-.11.19-.164.29-.056.09-.11.183-.186.274-.08.086-.147.164-.22.243-.17.195-.35.383-.58.54v.02c-.08.064-.163.116-.254.19-.033.024-.085.05-.14.077-.57.366-1.25.62-2.02.725-.05.01-.062.01-.136.02-.24.046-.49.05-.75.05-3.175 0-5.22-1.61-5.22-5.56V205.5zm-5.924-.985v23.23c0 7.288 7.603 7.197 7.603 7.197h7.09s7.607.09 7.607-7.197v-23.23c0-7.202-7.605-7.202-7.605-7.202h-7.08s-7.604 0-7.604 7.202z" fill="#CE1141"/><path d="M26.154 192.374c-1.51 3.84-2.207 7.21-2.482 11.336l-.066 10.05h-12.36l-.058-10.05c-.27-4.127-.98-7.497-2.483-11.336-1.338 3.846-2.267 7.66-2.476 11.336l-.21 34.525 5.35-2.927-.09-16.19-.017-1.362H23.58l-.097 17.552 5.336 2.927-.2-34.525c-.22-3.676-1.138-7.49-2.477-11.336" fill="#CE1141"/><path d="M337.11 259.718v.04c-.012.032-.012.058-.012.09 0 .014-.013.027-.013.053v.08c-.006.02-.006.05-.006.06v.087c-.03.014-.03.025-.03.046 0 .03-.01.05-.01.097-.01 0-.01.025-.01.04 0 .02-.02.05-.02.09 0 .005-.02.012-.02.04-.014.02-.014.05-.025.083v.046c-.007.03-.027.056-.027.095-.005.01-.005.02-.005.02l-.035.102c0 .015 0 .03-.013.035-.012.042-.023.07-.037.113 0 .008-.014.015-.014.015-.007.045-.026.084-.04.117v.02c-.09.2-.2.403-.32.624-.025.048-.06.09-.08.14-.13.195-.29.403-.44.6-.012.02-.04.03-.052.06-.146.187-.32.357-.506.55-.033.03-.077.08-.117.13-.2.19-.42.365-.64.57-.01 0-.026.01-.04.01-4.46 3.637-14.63 6.643-28.447 8.735-.176.02-.353.056-.537.068-.41.067-.824.126-1.236.205-.295.03-.595.07-.882.11-.372.052-.726.104-1.092.143-.41.067-.85.13-1.29.177-.27.04-.522.064-.77.09-.693.1-1.386.17-2.09.248-.24.05-.484.07-.74.1-.51.06-1.027.106-1.542.17-.254.03-.517.05-.804.085-.518.05-1.046.096-1.59.16-.234.02-.463.047-.71.06-.766.1-1.563.157-2.333.216l.32-26.097.03-1.554c25.333 3.26 46.21 6.898 46.21 12.907v.137zm-66.364 15.806c-4.632.145-9.407.242-14.287.242-5.07 0-10.02-.097-14.81-.26l.19-5.978c-.02-.964-.05-1.923-.07-2.92 0-.488-.006-.985-.025-1.48 0-.514 0-1.016-.013-1.538v-1.54c-.02-.533-.02-1.04-.02-1.59v-1.413c.02-.593.02-1.192.02-1.812.013-.36.013-.736.013-1.096 0-.77.02-1.5.028-2.26 0-.2 0-.41.01-.61.174-11.72.664-24.797.873-38.47.007-.515.02-1.01.02-1.527 12.576 1.29 28.783 4.72 28.53 13.74l-.464 48.5zm-29.494-108.712c17.652 1.68 33.152 5.904 34.434 15.415.012.136.038.268.052.404.012.04.012.1.012.14.014.1.033.18.033.27.007.06.007.11.02.168 0 .07.012.156.012.24 0 .047.014.1.027.177 0 .06.013.143.013.22.014.045.014.105.014.18 0 .067.03.126.03.19v.588c.01.077.01.123.01.194v.393c0 .057.013.103.013.18v.37c0 .045-.013.117-.013.19v.344c0 .165-.01.347-.02.516v.28c0 .04 0 .08-.024.11-.006.083-.006.15-.006.23-.014.043-.014.095-.014.134l-.04.218v.14c-.014.064-.026.142-.026.22 0 .037-.006.08-.006.123-.02.064-.025.15-.032.234 0 .022-.012.06-.012.1-.014.07-.02.164-.04.215 0 .052-.012.072-.012.118 0 .09-.027.16-.033.24 0 .03-.006.07-.006.095-.01.07-.05.17-.068.254 0 .02-.005.04-.005.065-.008.082-.028.18-.05.26v.01c-.12.6-.258 1.17-.44 1.74-.066.207-.13.384-.184.585-.11.374-.226.72-.39 1.09-.09.21-.182.424-.273.647-.126.303-.29.604-.426.91-.13.207-.227.436-.345.65-.17.274-.34.555-.504.835-.124.2-.276.416-.41.63-.17.26-.355.51-.55.763-.138.208-.3.404-.446.6-.21.253-.423.48-.615.72-.175.185-.33.37-.49.56-.24.257-.495.478-.75.72-.157.157-.307.313-.47.47h-.006c-.42.403-.85.775-1.32 1.133-.05.053-.09.093-.148.13-.403.315-.78.6-1.2.9l-.235.164c-.393.292-.81.56-1.223.82-.084.045-.156.086-.222.137-.475.288-.965.588-1.47.855l-.005.007c-1.045.58-2.13 1.12-3.235 1.604-.065.027-.118.053-.17.086-.484.2-.967.398-1.445.607-.117.04-.247.07-.346.13-.444.17-.89.325-1.33.495-.127.038-.244.09-.375.136-.45.168-.916.318-1.39.456-.08.044-.185.075-.3.114-1.133.353-2.296.684-3.44.99-.025 0-.064 0-.077.014-.524.144-1.067.267-1.59.392-.123.03-.266.063-.41.09-.41.09-.837.2-1.25.287-.16.032-.324.052-.495.09-.39.08-.79.15-1.175.242-.156.012-.327.05-.49.09-.41.07-.796.137-1.195.215-.144.016-.29.04-.43.06-.51.086-1.053.17-1.564.25.15-14.11-.076-28.75-1.304-43.11-.06-.508-.092-1.024-.144-1.525zM222.21 274.32c-.484-.04-.954-.086-1.412-.13h-.02c-15.697-1.5-28.385-3.985-36.093-7.172-.006-.012-.025-.012-.025-.012-.385-.163-.778-.334-1.138-.49-.032-.018-.07-.032-.098-.058-.346-.15-.68-.307-1-.47-.045-.02-.077-.04-.136-.064-.294-.15-.582-.3-.857-.457-.07-.02-.13-.078-.19-.117-.23-.124-.48-.28-.72-.43-.06-.033-.14-.08-.21-.144-.22-.117-.42-.267-.62-.404-.084-.05-.15-.11-.23-.17-.175-.123-.35-.26-.51-.397-.083-.058-.154-.13-.232-.195-.145-.117-.29-.25-.42-.37-.077-.08-.135-.152-.23-.23-.095-.124-.22-.24-.32-.358-.083-.078-.135-.177-.214-.274-.083-.098-.176-.21-.254-.313-.07-.105-.116-.216-.175-.306-.056-.11-.122-.21-.18-.31-.066-.11-.105-.23-.15-.34-.04-.1-.086-.18-.112-.28-.03-.13-.06-.276-.11-.4-.006-.066-.026-.15-.04-.23-.044-.2-.06-.416-.06-.63 0-.164.016-.327.06-.496.014-.065.034-.13.04-.195.03-.085.06-.157.098-.24.08-.21.19-.425.316-.608l.007-.02c3.5-5.226 24.477-8.23 45.513-11.385-.02 7.383-.124 15.447-.366 24.316l.103 3.363zm68.69-27.845l.266-23.994c-.01-.42-.024-.82-.058-1.21-.02-.12-.02-.24-.045-.36-.026-.282-.065-.55-.104-.82-.03-.12-.05-.24-.06-.35-.1-.293-.14-.574-.22-.853-.02-.065-.03-.143-.07-.215-.1-.332-.2-.66-.355-.98-.027-.07-.046-.13-.065-.19-.117-.252-.24-.506-.36-.74-.057-.078-.11-.164-.143-.24-.124-.23-.268-.43-.404-.647-.034-.065-.093-.136-.13-.202-.387-.533-.805-1.04-1.288-1.484-.03-.054-.093-.106-.164-.17-.183-.157-.366-.328-.56-.477-.07-.06-.153-.118-.22-.178l-.64-.474c-.06-.025-.1-.046-.15-.09-.27-.177-.55-.353-.83-.502-.076-.052-.13-.085-.21-.124-.214-.12-.42-.233-.663-.336-.113-.06-.223-.1-.32-.158-.203-.09-.387-.17-.614-.254-.11-.044-.203-.096-.346-.15-.223-.082-.48-.16-.713-.26-.174-.06-.364-.116-.554-.17-.19-.076-.38-.13-.55-.18-.19-.044-.376-.096-.57-.14-.122-.04-.24-.07-.383-.09-.213-.06-.416-.126-.64-.165-.076-.02-.136-.032-.2-.04-3.163-.663-6.513-.8-9.44-.73-2.515.087-4.73.32-6.264.516 4.86-.865 16.796-3.693 24.98-11.38.313-.292.607-.584.91-.892.018-.012.032-.026.037-.032.883-.907 1.7-1.865 2.457-2.88.07-.092.13-.19.21-.288l.59-.87c.093-.142.172-.285.27-.422.184-.28.346-.594.543-.875.077-.16.156-.31.24-.466.276-.49.516-.996.746-1.517.12-.237.23-.465.334-.71.11-.275.21-.524.305-.785.092-.265.197-.552.29-.82.084-.24.17-.487.253-.755.098-.32.177-.67.268-.997.067-.22.126-.44.17-.663.126-.547.236-1.094.335-1.68.028-.198.04-.4.07-.595.075-.41.12-.832.148-1.25.01-.234.04-.482.05-.724.03-.42.055-.85.055-1.31.013-.213.02-.422.02-.656-.007-.67-.02-1.33-.072-2.02-1.114-16.256-21.48-24.36-55.263-21.113-.57.06-1.117.133-1.67.18-1.604-12.02-4.053-23.66-7.803-34.394-4.702 14.524-7.42 25.98-8.956 36.684-.39.06-.776.115-1.194.193-20.29 3.474-34.552 8.115-34.552 8.115s16.3-1.47 34.89-1.205c-2.09 21.405.116 41.694-.02 80.64-.498-.026-.993-.026-1.477-.047-.045 0-.09-.006-.124-.006-5.526-.16-10.923-.103-16.09.1h-.052c-11.368.5-21.65 1.856-29.743 3.884h-.045c-8.1 2.04-14.066 4.76-16.79 7.98-1.11 1.33-1.71 2.75-1.647 4.217.306 9.17 27.625 17.593 65.98 20.813l1.632 51.972 2.696-35.255c0-.213.016-.4.04-.57.047-.48.138-.86.24-1.19.016-.01.016-.01.016-.022.04-.144.11-.274.163-.385.013-.046.033-.09.066-.118.03-.09.09-.17.142-.227.02-.04.06-.06.07-.09.067-.093.13-.16.197-.225.03-.012.05-.03.066-.045.067-.057.13-.103.216-.13.014-.026.06-.045.09-.045.055-.033.12-.045.185-.064.02 0 .047-.014.08-.014.07-.006.17-.025.27-.006.017 0 .02.007.05.007h.013c.033 0 .066 0 .066.016h.005c.084.02.156.05.235.083h.025l.034.032c.02 0 .024.006.024.006l.033.03c.01 0 .035 0 .035.02.008 0 .02.007.02.007.027.013.04.034.04.04.006 0 .02.013.027.02.012.014.03.033.045.033.01 0 .01.012.03.02 0 .02.025.02.03.033 0 0 .02.006.02.025.027.025.048.044.067.056.007.008.007.027.033.027 0 0 .006.032.026.04 0 .012.013.03.027.03.005.005.025.03.03.043 0 .007.01.007.03.033.012.014.02.027.04.03 0 .008.005.02.024.035 0 .034.01.04.033.054 0 .01.005.02.005.03.014.035.02.04.04.068 0 .013.007.013.012.025.008.02.02.04.04.06 0 .01.013.024.013.024.02.033.045.08.057.11h.008c0 .034.014.066.033.094 0 0 .01.005.01.016.016.02.02.067.035.073 0 .03 0 .03.007.053.014.008.014.04.033.074 0 .01.007.025.007.03.005.02.005.047.02.067.012.014.012.04.012.04.013.037.025.057.032.096v.033c.012.034.026.06.026.086 0 .012.01.012.01.04.02.036.027.07.04.13.006.044.006.083.02.12 0 .01.02.02.02.04 0 .035.01.067.01.107 0 .007 0 .026.008.046 0 .03 0 .058.008.077 0 .02 0 .053.005.06v.1c0 .01 0 .04.016.05v.45l1.2 46.436 2.863-37.786c-.01-.265.02-.5.03-.74.04-.678.17-1.2.32-1.643.016-.076.06-.154.11-.22 0-.04.02-.077.03-.124.06-.122.13-.245.203-.364.034-.03.054-.057.086-.098.057-.084.104-.137.183-.19.01-.033.036-.072.062-.085.092-.08.156-.13.255-.184.017-.015.036-.015.07-.02.07-.04.136-.06.21-.07.03-.016.063-.016.096-.016.076-.013.174-.013.26 0 .032 0 .052.013.065.013l.01.01c.02 0 .02.01.054.01h.01c.01.013.04.013.05.04.073.01.125.045.177.06 0 .025.014.025.027.025.008.024.008.024.04.03.01.008.028.008.028.008.007.015.03.03.03.03.02.024.02.024.035.03.014.02.033.033.033.04.013 0 .027.006.04.006.006.033.02.04.02.06.012.01.025.01.052.036.02 0 .02.008.03.04.02.006.03.026.03.04.03 0 .03.032.04.038 0 .016.02.036.04.036.014.01.02.027.02.04.006.027.014.04.027.045.015.014.015.014.028.04.014.02.026.026.026.06.013.012.032.012.04.026 0 .03.013.05.044.08v.015c.027.03.04.07.052.094 0 0 0 .01.012.023.01.033.03.06.03.086 0 .015.01.028.02.04.02.027.03.05.03.07.02.01.02.02.02.048.01.02.01.046.03.066 0 .013 0 .026.006.046.007.023.03.07.04.09v.03c.03.08.06.178.083.26 0 .015.02.03.02.03 0 .03.007.077.007.11.01.013.01.025.01.06.012.017.032.05.04.083v.058c.01.02.017.068.017.1.01.006.01.033.01.044 0 .046.007.087.007.126 0 .014 0 .02.018.045 0 .04.008.107.015.15v.16c.01.026.01.04.01.058 0 .04 0 .072.013.11v.62l1.32 48.402 2.345-72.155c4.92.182 9.95.252 15.097.252 4.852 0 9.62-.07 14.32-.227l2.304 73.444 1.98-38.44c0-.26.003-.49.03-.706.04-.623.17-1.12.31-1.542.02-.005.02-.045.024-.084.026-.066.065-.126.093-.204.05-.117.12-.227.16-.313.04-.08.08-.136.118-.18.072-.1.144-.18.216-.236.04-.027.068-.08.106-.105.11-.09.21-.143.332-.176.035-.033.087-.033.12-.033.07-.02.15-.024.25-.02.026 0 .072.015.11.02.085.007.164.04.248.073.047.02.08.03.11.056.11.08.23.165.32.27l.02.026c.006.014.006.027.025.046 0 .015.02.015.028.015.03.025.03.032.04.066.016.004.016.004.016.015.013.025.033.04.04.06.013 0 .013.01.025.02 0 .003.035.03.04.05.01.02.02.03.02.06.02.023.04.043.047.055.007.02.028.05.028.06 0 .02.013.025.013.045.02.004.033.03.033.045 0 .018.01.044.02.058.01.015.03.034.035.06 0 .02.014.03.014.05.014.015.025.03.04.055 0 .02.005.04.005.047.008.025.027.064.04.09 0 .007 0 .02.007.032.02.04.02.07.03.116.013 0 .013.026.013.026 0 .026.006.07.027.104 0 .013.02.02.02.047v.07c.025.03.025.045.025.05.007.03.027.072.027.1 0 .026 0 .032.01.063v.126c.014.043.014.09.047.134v.02c.007.04.02.108.02.15.007.01.007.02.007.05 0 .032 0 .077.015.11v.06c0 .03 0 .077.016.102v.07c0 .036.02.06.02.1v.41l1.977 53.906 2.033-46.56c.007-.225.026-.434.046-.63.073-.52.185-.96.328-1.322.06-.154.125-.28.183-.41.028-.04.066-.076.08-.115.053-.097.105-.17.163-.254.033-.028.078-.067.098-.094.08-.09.158-.17.243-.234.014-.013.026-.02.034-.025.083-.07.195-.11.28-.16.026-.012.07-.024.086-.04.1-.025.164-.042.22-.05.04 0 .07-.012.1-.012.11 0 .195 0 .32.014.007.01.04.01.067.02h.02c.01 0 .026.007.04.007 0 0 0 .017.02.017.103.04.22.09.344.16v.015l.06.04s.01.005.02.005c.03.005.04.033.046.033.013.017.013.025.026.025.02.01.03.025.036.03.01.014.01.034.043.034 0 .024.02.024.04.036.008 0 .008.013.02.02.046.045.09.1.145.156.014.007.02.033.02.04.027.014.033.027.046.046 0 .004.013.02.02.023.01.027.03.04.03.053.015.025.03.025.04.05.02.005.03.04.03.046.004.01.023.04.023.05.014.02.014.025.047.04.01.025.01.03.024.044.01.025.01.036.015.05.006.033.02.06.033.072.01.014.01.025.01.045.033.04.047.068.06.107 0 .008.007.027.025.033 0 .04.012.066.026.086.013.013.013.034.02.065.02.016.02.036.026.05.013.026.013.054.02.065 0 .026.01.046.038.065v.067c.02.026.02.06.03.078.014.016.014.035.014.06 0 .028.02.05.033.086v.05c.02.035.02.08.035.107v.027c.018.05.03.11.038.16.02.026.02.03.02.045v.1c0 .027.008.045.008.08.02.013.02.052.032.083v.063c.006.033.006.072.02.1v.18c.006.014.006.046.006.065 0 .04.016.08.016.11v.248l1.666 61.72 2.44-103.63.022-1.187v-.074c31.324-2.587 55.717-8.582 63.95-15.63.187-.15.358-.32.527-.482.075-.082.174-.15.25-.226.147-.17.295-.31.44-.47.065-.09.15-.17.216-.263.13-.155.25-.3.374-.44.122-.194.254-.376.364-.58.08-.14.15-.28.237-.415.072-.145.143-.294.21-.458.057-.102.08-.2.117-.3.06-.174.11-.35.136-.505.04-.086.056-.184.07-.267.054-.254.074-.51.074-.764-.467-10.06-30.797-17.83-66.505-16.15z" fill="#CE1141"/></g></svg>