<svg width="512" height="512" viewBox="0 0 512 512" xmlns="http://www.w3.org/2000/svg"><title>indiana-pacers</title><g fill="none" fill-rule="evenodd"><path d="M370.164 157.76c-20.003-24.104-48.807-37.435-81.116-37.488l-129.2-.08L99.89 392.344l110.304.06 15.817-65.85c14.83 0 53.78.028 53.74.028 36.95.26 67.27-12.245 87.67-36.168 37.07-40.294 30.567-99.157 2.758-132.654" fill="#BEC0C2"/><path d="M220.37 319.383l-15.825 65.853-95.74-.06 56.812-257.822 123.415.08c30.717.076 57.04 12.504 75.622 34.906 27.35 32.98 30.043 87.803-2.694 123.427-20.095 23.54-49.54 33.86-82.157 33.63l-59.432-.014" fill="#00275D"/><g fill="#FFC633"><path d="M152.892 184.662l54.095.023c6.214 0 12.833 5.212 9.963 13.1-1.775 4.868-3.13 10.536-3.75 15.832-.504 4.15 4.126 6.764 6.79 6.764l110.23.08c2.082 0 3.168-.58 3.168-1.58 0-.97-.092-4.62-.49-7.19-.382-2.42-.78-2.86-2.754-2.86-13.728 0-19.33-6.112-33.748-15.4-14.402-9.264-35.527-14.61-53.68-14.62l-88.5-.056-1.324 5.92"/><path d="M219.682 255.953c-1.905-4.092-3.68-8.946-4.76-13.39-1.355-5.73-6.2-10.365-14.478-10.373l-58.006-.046 1.43-6.496 188.033.126c1.87 0 1.47.79 1.37 2.87-.09 2.06-.58 5.91-.89 8.166-.27 2.266-2.16 1.727-3.95 1.766-4.24.095-12.1 1.112-16.68 4.525-7.79 5.87-24.41 16.13-33.76 19.12-10.01 3.2-47.45 14.64-58.42-6.45"/><path d="M132.023 279.463l98.187.07c4.34 0 8.067 1.023 10.966 3.445 8.288 6.81 19.047 11.785 30.453 15.08 5.14 1.483 13.94-.428 21.84-4.884 19.65-11.097 32.27-32.218 36.44-45.808 1.08-3.562-1-3.263-3.75-3.058-8.27.577-16.98 8.068-28.42 15.348-11.47 7.28-34.77 14.18-56.87 14.142l-107.59-.045-1.26 5.71"/><path d="M276.053 148.135c1.393-.26 6.367-.565 9.123.524 18.642 7.34 36.303 26.74 43.678 47.35 1.424 3.95 1.777 6.49 0 6.69-8.555.95-12.534-3.28-22.605-10.07-10.04-6.8-19.32-11.45-32.05-15.49-12.56-3.998-35.44-4.57-38.39-4.67-2.96-.097-2.58-1.34-1.3-2.615 10.96-10.936 25.68-18.858 41.53-21.736"/><path d="M365.542 218.792c.06.806-.78 1.69-1.76 1.69l-21.52-.015c-2.753 0-2.815-1.284-2.89-2.87-.11-1.575-.552-4.72-.66-6.6-.09-1.815-.75-3.898 1.667-4.914 6-2.545 11.66-8.388 14.25-13.39.85-1.71 2.14-4.494 3.62-2.122 5.09 8.14 6.67 18.16 7.28 28.23"/><path d="M357.86 257.402c-.37.733-1.747 1.26-2.206.076-3.138-8.396-10.576-14.14-15.718-17.02-1.56-.86-1.683-1.857-1.484-3.39.214-1.54.856-6.41.934-8.47.09-1.628.75-2.816 1.99-2.816h22.405c.78.007 1.76.725 1.76 1.33.01 10.665-3.22 21.21-7.68 30.29"/><path d="M299.562 299.396c-1.577.23-5.004-.298.414-3.462 16.283-9.463 30.794-31.658 34.666-44.387 1.47-4.854 1.638-5.1 3.504-4.586 2.48.74 6.413 4.11 9.428 8.25 3 4.13 4.316 12.21 2.57 14.53-11.724 15.69-30.302 26.71-50.582 29.67"/><path d="M340.993 198.978c-3.796 2.026-4.53 1.658-5.327-1.192-7.085-24.794-27.946-43.146-36.487-48.572-1.63-1.032-1.2-1.703-.02-1.547 20.43 2.713 40.43 13.838 50.5 29.074 5.75 8.72-5.02 20.28-8.68 22.24"/></g><g fill="#00275D"><path d="M255.068 347.677c-.26 1.008-4.056 17.06-4.27 17.9h-10.093c.305-1.284 4.056-17.073 4.246-17.9h10.12zm-16.653-7.245l-12.244 51.484h8.28s4.33-18.25 4.54-19.093h13.2c3.19 0 5.62-1.926 6.37-5.03l5.26-22.118c.124-.504.177-.95.177-1.407 0-.887-.245-1.682-.735-2.293-.795-1.023-2.17-1.543-3.954-1.543h-20.88z"/><path d="M255.068 347.677c-.26 1.008-4.056 17.06-4.27 17.9h-10.093c.305-1.284 4.056-17.073 4.246-17.9h10.12zm-16.653-7.245l-12.244 51.484h8.28s4.33-18.25 4.54-19.093h13.2c3.19 0 5.62-1.926 6.37-5.03l5.26-22.118c.124-.504.177-.95.177-1.407 0-.887-.245-1.682-.735-2.293-.795-1.023-2.17-1.543-3.954-1.543h-20.88z"/><path d="M282.3 373.648c-.26 1.132-2.51 10.64-2.71 11.404h-9.123c.275-1.116 2.556-10.638 2.725-11.404h9.107zm-6.568-23.173c-3.15 0-5.218 1.62-5.954 4.708l-2.158 9.112h8.065s1.423-6.055 1.607-6.833h8.862c-.292 1.177-2.004 8.377-2.188 9.14h-11.74c-3.566 0-5.908 1.973-6.78 5.732l-3.57 14.936c-.09.38-.136.778-.136 1.145 0 .842.25 1.666.773 2.31.773.977 2.065 1.513 3.638 1.513.04 0 .22-.016.22-.016 2.9-.2 9.26-.687 11.74-.948-.03.138-.15.642-.15.642h8.07l8.678-36.458c.368-1.59.23-2.844-.457-3.7-.674-.825-1.807-1.284-3.354-1.284h-15.15z"/><path d="M282.3 373.648c-.26 1.132-2.51 10.64-2.71 11.404h-9.123c.275-1.116 2.556-10.638 2.725-11.404h9.107zm-6.568-23.173c-3.15 0-5.218 1.62-5.954 4.708l-2.158 9.112h8.065s1.423-6.055 1.607-6.833h8.862c-.292 1.177-2.004 8.377-2.188 9.14h-11.74c-3.566 0-5.908 1.973-6.78 5.732l-3.57 14.936c-.09.38-.136.778-.136 1.145 0 .842.25 1.666.773 2.31.773.977 2.065 1.513 3.638 1.513.04 0 .22-.016.22-.016 2.9-.2 9.26-.687 11.74-.948-.03.138-.15.642-.15.642h8.07l8.678-36.458c.368-1.59.23-2.844-.457-3.7-.674-.825-1.807-1.284-3.354-1.284h-15.15z"/><path d="M309.54 350.475c-3.09 0-5.11 1.62-5.815 4.708l-7.56 31.765c-.383 1.604-.26 2.843.443 3.714.642.826 1.79 1.253 3.352 1.253h14.89c3.124 0 5.082-1.59 5.833-4.692l2.94-12.367h-7.944s-2.21 9.28-2.39 10.073h-8.61c.32-1.3 6.33-26.63 6.53-27.47h8.587c-.276 1.2-1.608 6.74-1.608 6.74h7.94l2.097-8.75c.385-1.65.248-2.86-.43-3.76-.66-.78-1.79-1.23-3.38-1.23h-14.89"/><path d="M309.54 350.475c-3.09 0-5.11 1.62-5.815 4.708l-7.56 31.765c-.383 1.604-.26 2.843.443 3.714.642.826 1.79 1.253 3.352 1.253h14.89c3.124 0 5.082-1.59 5.833-4.692l2.94-12.367h-7.944s-2.21 9.28-2.39 10.073h-8.61c.32-1.3 6.33-26.63 6.53-27.47h8.587c-.276 1.2-1.608 6.74-1.608 6.74h7.94l2.097-8.75c.385-1.65.248-2.86-.43-3.76-.66-.78-1.79-1.23-3.38-1.23h-14.89z"/><path d="M352.502 357.462c-.245 1.07-2.02 8.468-2.19 9.202h-8.54c.26-1.056 2.037-8.453 2.205-9.202h8.525zm-10.225-6.987c-3.076 0-5.096 1.62-5.83 4.708l-7.547 31.765c-.38 1.604-.244 2.843.445 3.714.643.826 1.774 1.253 3.35 1.253h14.97c1.5.015 2.77-.352 3.764-1.147.99-.78 1.66-1.956 2.05-3.545l2.77-11.602h-8.07s-2.04 8.52-2.24 9.31h-8.51l2.74-11.54h14.69l2.34-1.88 3.825-16.05c.153-.58.185-1.13.185-1.6 0-.85-.184-1.56-.627-2.14-.675-.79-1.79-1.24-3.37-1.24h-14.95z"/><path d="M352.502 357.462c-.245 1.07-2.02 8.468-2.19 9.202h-8.54c.26-1.056 2.037-8.453 2.205-9.202h8.525zm-10.225-6.987c-3.076 0-5.096 1.62-5.83 4.708l-7.547 31.765c-.38 1.604-.244 2.843.445 3.714.643.826 1.774 1.253 3.35 1.253h14.97c1.5.015 2.77-.352 3.764-1.147.99-.78 1.66-1.956 2.05-3.545l2.77-11.602h-8.07s-2.04 8.52-2.24 9.31h-8.51l2.74-11.54h14.69l2.34-1.88 3.825-16.05c.153-.58.185-1.13.185-1.6 0-.85-.184-1.56-.627-2.14-.675-.79-1.79-1.24-3.37-1.24h-14.95z"/><path d="M389.402 350.123c-3.245.368-8.463.995-10.713 1.33l.24-.962-8.07-.01-9.86 41.44h8.05s7.87-33 8.063-33.86h8.02c-.307 1.21-1.33 6.15-1.33 6.15h8.126l2.02-9.06c.37-1.59.2-2.813-.458-3.685-.72-.917-1.99-1.36-3.798-1.36-.078.016-.308.03-.308.03"/><path d="M389.402 350.123c-3.245.368-8.463.995-10.713 1.33l.24-.962-8.07-.01-9.86 41.44h8.05s7.87-33 8.063-33.86h8.02c-.307 1.21-1.33 6.15-1.33 6.15h8.126l2.02-9.06c.37-1.59.2-2.813-.458-3.685-.72-.917-1.99-1.36-3.798-1.36-.078.016-.308.03-.308.03z"/><path d="M404.08 350.475c-1.607 0-4.455.61-5.418 4.708l-2.357 9.874c-.092.368-.215.978-.215 1.606 0 .718.17 1.437.628 1.986.03.01.03.06.046.1.03.01.03.01.03.03v-.02c.077.06.183.15.413.3 9.23 6.284 11.663 8.056 12.306 8.56-.14.61-1.668 7.017-1.73 7.29h-7.958c.306-1.22 2.19-9.11 2.19-9.11h-8.083l-2.632 11.13c-.414 1.636-.245 2.92.444 3.775.627.78 1.623 1.19 2.97 1.19h15.134c2.848 0 4.697-1.635 5.433-4.69l2.59-10.854c.06-.29.2-.853.2-1.494 0-.888-.21-1.96-1.1-2.875l-.04-.045-.073-.045c-4.27-2.77-11.004-7.22-12.183-8.12.153-.61 1.394-5.807 1.516-6.326h8.126c-.277 1.21-1.58 6.85-1.58 6.85h8.065l2.04-8.85c.397-1.58.213-2.86-.46-3.767-.443-.55-1.33-1.22-3.06-1.22h-15.23"/><path d="M404.08 350.475c-1.607 0-4.455.61-5.418 4.708l-2.357 9.874c-.092.368-.215.978-.215 1.606 0 .718.17 1.437.628 1.986.03.01.03.06.046.1.03.01.03.01.03.03v-.02c.077.06.183.15.413.3 9.23 6.284 11.663 8.056 12.306 8.56-.14.61-1.668 7.017-1.73 7.29h-7.958c.306-1.22 2.19-9.11 2.19-9.11h-8.083l-2.632 11.13c-.414 1.636-.245 2.92.444 3.775.627.78 1.623 1.19 2.97 1.19h15.134c2.848 0 4.697-1.635 5.433-4.69l2.59-10.854c.06-.29.2-.853.2-1.494 0-.888-.21-1.96-1.1-2.875l-.04-.045-.073-.045c-4.27-2.77-11.004-7.22-12.183-8.12.153-.61 1.394-5.807 1.516-6.326h8.126c-.277 1.21-1.58 6.85-1.58 6.85h8.065l2.04-8.85c.397-1.58.213-2.86-.46-3.767-.443-.55-1.33-1.22-3.06-1.22h-15.23v.003z"/></g></g></svg>