<svg width="512" height="512" viewBox="0 0 512 512" xmlns="http://www.w3.org/2000/svg"><title>indiana-pacers</title><g fill="none" fill-rule="evenodd"><path d="M370.164 157.76c-20.003-24.104-48.807-37.435-81.116-37.488l-129.2-.08L99.89 392.344l110.304.06 15.817-65.85c14.823 0 53.78.028 53.733.028 36.946.26 67.265-12.245 87.666-36.168 37.067-40.294 30.563-99.157 2.754-132.654" id="Shape" fill="#BEC0C2"/><path d="M220.37 319.383l-15.825 65.853-95.74-.06 56.812-257.822 123.415.08c30.717.076 57.04 12.504 75.622 34.906 27.35 32.98 30.043 87.803-2.694 123.427-20.095 23.54-49.54 33.86-82.157 33.63l-59.432-.014" id="Shape" fill="#002D62"/><g id="Shape" fill="#FFC526"><path d="M152.892 184.662l54.095.023c6.214 0 12.833 5.212 9.963 13.1-1.775 4.868-3.13 10.536-3.75 15.832-.504 4.15 4.126 6.764 6.79 6.764l110.23.077c2.082 0 3.168-.584 3.168-1.586 0-.97-.092-4.62-.49-7.188-.382-2.423-.78-2.862-2.754-2.862-13.728 0-19.33-6.116-33.748-15.404-14.402-9.264-35.527-14.61-53.68-14.618l-88.5-.058-1.324 5.922"/><path d="M219.682 255.953c-1.905-4.092-3.68-8.946-4.76-13.39-1.355-5.73-6.2-10.365-14.478-10.373l-58.006-.046 1.43-6.496 188.033.126c1.868 0 1.47.79 1.362 2.87-.092 2.06-.58 5.91-.888 8.166-.276 2.266-2.158 1.727-3.948 1.766-4.24.095-12.106 1.112-16.683 4.525-7.79 5.863-24.41 16.125-33.762 19.112-10.01 3.196-47.45 14.637-58.42-6.454"/><path d="M132.023 279.463l98.187.07c4.34 0 8.067 1.023 10.966 3.445 8.288 6.81 19.047 11.785 30.453 15.08 5.142 1.483 13.94-.428 21.84-4.884 19.65-11.097 32.278-32.218 36.44-45.808 1.087-3.562-.995-3.263-3.75-3.058-8.264.577-16.974 8.068-28.42 15.348-11.465 7.28-34.763 14.18-56.87 14.142l-107.586-.045-1.26 5.71"/><path d="M276.053 148.135c1.393-.26 6.367-.565 9.123.524 18.642 7.348 36.303 26.742 43.678 47.356 1.424 3.956 1.777 6.496 0 6.69-8.555.957-12.534-3.277-22.605-10.068-10.04-6.795-19.316-11.446-32.05-15.488-12.56-3.993-35.434-4.57-38.387-4.666-2.954-.096-2.58-1.338-1.294-2.614 10.958-10.935 25.68-18.857 41.533-21.735"/><path d="M365.542 218.792c.06.806-.78 1.69-1.76 1.69l-21.52-.015c-2.753 0-2.815-1.284-2.89-2.87-.11-1.575-.552-4.72-.66-6.6-.09-1.815-.75-3.898 1.667-4.914 6-2.545 11.662-8.388 14.25-13.39.856-1.71 2.142-4.494 3.626-2.122 5.097 8.132 6.673 18.156 7.286 28.222"/><path d="M357.86 257.402c-.37.733-1.747 1.26-2.206.076-3.138-8.396-10.576-14.14-15.718-17.02-1.56-.86-1.683-1.857-1.484-3.39.214-1.54.856-6.41.934-8.47.09-1.628.75-2.816 1.99-2.816h22.405c.78.007 1.76.725 1.76 1.33.002 10.665-3.228 21.21-7.68 30.29"/><path d="M299.562 299.396c-1.577.23-5.004-.298.414-3.462 16.283-9.463 30.794-31.658 34.666-44.387 1.47-4.854 1.638-5.1 3.504-4.586 2.48.735 6.413 4.11 9.428 8.248 3 4.127 4.316 12.21 2.57 14.525-11.724 15.683-30.302 26.706-50.582 29.663"/><path d="M340.993 198.978c-3.796 2.026-4.53 1.658-5.327-1.192-7.085-24.794-27.946-43.146-36.487-48.572-1.623-1.032-1.195-1.703-.016-1.547 20.432 2.713 40.435 13.838 50.506 29.074 5.754 8.712-5.02 20.28-8.677 22.238"/></g><g fill="#002D62"><path d="M255.068 347.677c-.26 1.008-4.056 17.06-4.27 17.9h-10.093c.305-1.284 4.056-17.073 4.246-17.9h10.118zm-16.653-7.245l-12.244 51.484h8.274s4.323-18.25 4.538-19.093h13.2c3.192 0 5.617-1.926 6.366-5.03l5.258-22.118c.123-.504.176-.95.176-1.407 0-.887-.245-1.682-.735-2.293-.795-1.023-2.17-1.543-3.954-1.543h-20.878z"/><path d="M255.068 347.677c-.26 1.008-4.056 17.06-4.27 17.9h-10.093c.305-1.284 4.056-17.073 4.246-17.9h10.118zm-16.653-7.245l-12.244 51.484h8.274s4.323-18.25 4.538-19.093h13.2c3.192 0 5.617-1.926 6.366-5.03l5.258-22.118c.123-.504.176-.95.176-1.407 0-.887-.245-1.682-.735-2.293-.795-1.023-2.17-1.543-3.954-1.543h-20.878z"/><path d="M282.3 373.648c-.26 1.132-2.51 10.64-2.71 11.404h-9.123c.275-1.116 2.556-10.638 2.725-11.404h9.107zm-6.568-23.173c-3.15 0-5.218 1.62-5.954 4.708l-2.158 9.112h8.065s1.423-6.055 1.607-6.833h8.862c-.292 1.177-2.004 8.377-2.188 9.14h-11.74c-3.566 0-5.908 1.973-6.78 5.732l-3.57 14.936c-.09.38-.136.778-.136 1.145 0 .842.25 1.666.773 2.31.773.977 2.065 1.513 3.638 1.513.032 0 .215-.016.215-.016 2.893-.2 9.26-.687 11.738-.948-.03.138-.152.642-.152.642h8.067l8.676-36.458c.368-1.59.23-2.844-.457-3.7-.674-.825-1.807-1.284-3.354-1.284h-15.15z"/><path d="M282.3 373.648c-.26 1.132-2.51 10.64-2.71 11.404h-9.123c.275-1.116 2.556-10.638 2.725-11.404h9.107zm-6.568-23.173c-3.15 0-5.218 1.62-5.954 4.708l-2.158 9.112h8.065s1.423-6.055 1.607-6.833h8.862c-.292 1.177-2.004 8.377-2.188 9.14h-11.74c-3.566 0-5.908 1.973-6.78 5.732l-3.57 14.936c-.09.38-.136.778-.136 1.145 0 .842.25 1.666.773 2.31.773.977 2.065 1.513 3.638 1.513.032 0 .215-.016.215-.016 2.893-.2 9.26-.687 11.738-.948-.03.138-.152.642-.152.642h8.067l8.676-36.458c.368-1.59.23-2.844-.457-3.7-.674-.825-1.807-1.284-3.354-1.284h-15.15z"/><path d="M309.54 350.475c-3.09 0-5.11 1.62-5.815 4.708l-7.56 31.765c-.383 1.604-.26 2.843.443 3.714.642.826 1.79 1.253 3.352 1.253h14.89c3.124 0 5.082-1.59 5.833-4.692l2.94-12.367h-7.944s-2.206 9.28-2.39 10.073h-8.602c.32-1.3 6.337-26.628 6.536-27.47h8.587c-.275 1.208-1.607 6.742-1.607 6.742h7.943l2.097-8.744c.384-1.65.247-2.858-.428-3.76-.66-.78-1.79-1.224-3.383-1.224h-14.89"/><path d="M309.54 350.475c-3.09 0-5.11 1.62-5.815 4.708l-7.56 31.765c-.383 1.604-.26 2.843.443 3.714.642.826 1.79 1.253 3.352 1.253h14.89c3.124 0 5.082-1.59 5.833-4.692l2.94-12.367h-7.944s-2.206 9.28-2.39 10.073h-8.602c.32-1.3 6.337-26.628 6.536-27.47h8.587c-.275 1.208-1.607 6.742-1.607 6.742h7.943l2.097-8.744c.384-1.65.247-2.858-.428-3.76-.66-.78-1.79-1.224-3.383-1.224h-14.89z"/><path d="M352.502 357.462c-.245 1.07-2.02 8.468-2.19 9.202h-8.54c.26-1.056 2.037-8.453 2.205-9.202h8.525zm-10.225-6.987c-3.076 0-5.096 1.62-5.83 4.708l-7.547 31.765c-.38 1.604-.244 2.843.445 3.714.643.826 1.774 1.253 3.35 1.253h14.97c1.5.015 2.77-.352 3.764-1.147.995-.78 1.668-1.956 2.05-3.545l2.77-11.602h-8.066s-2.035 8.515-2.234 9.31h-8.51c.292-1.223 2.558-10.762 2.74-11.542h14.693l2.342-1.88 3.826-16.05c.153-.58.185-1.13.185-1.605 0-.856-.184-1.56-.627-2.14-.674-.794-1.79-1.238-3.368-1.238h-14.953z"/><path d="M352.502 357.462c-.245 1.07-2.02 8.468-2.19 9.202h-8.54c.26-1.056 2.037-8.453 2.205-9.202h8.525zm-10.225-6.987c-3.076 0-5.096 1.62-5.83 4.708l-7.547 31.765c-.38 1.604-.244 2.843.445 3.714.643.826 1.774 1.253 3.35 1.253h14.97c1.5.015 2.77-.352 3.764-1.147.995-.78 1.668-1.956 2.05-3.545l2.77-11.602h-8.066s-2.035 8.515-2.234 9.31h-8.51c.292-1.223 2.558-10.762 2.74-11.542h14.693l2.342-1.88 3.826-16.05c.153-.58.185-1.13.185-1.605 0-.856-.184-1.56-.627-2.14-.674-.794-1.79-1.238-3.368-1.238h-14.953z"/><path d="M389.402 350.123c-3.245.368-8.463.995-10.713 1.33.028-.09.244-.962.244-.962l-8.066-.015-9.856 41.44h8.05s7.868-33.002 8.066-33.86h8.02c-.307 1.21-1.332 6.147-1.332 6.147h8.127l2.02-9.066c.368-1.59.2-2.812-.458-3.684-.72-.917-1.99-1.36-3.796-1.36-.078.016-.308.03-.308.03"/><path d="M389.402 350.123c-3.245.368-8.463.995-10.713 1.33.028-.09.244-.962.244-.962l-8.066-.015-9.856 41.44h8.05s7.868-33.002 8.066-33.86h8.02c-.307 1.21-1.332 6.147-1.332 6.147h8.127l2.02-9.066c.368-1.59.2-2.812-.458-3.684-.72-.917-1.99-1.36-3.796-1.36-.078.016-.308.03-.308.03z"/><path d="M404.08 350.475c-1.607 0-4.455.61-5.418 4.708l-2.357 9.874c-.092.368-.215.978-.215 1.606 0 .718.17 1.437.628 1.986.03.015.03.06.046.106.03.015.03.015.03.03v-.016c.077.062.183.153.413.306 9.23 6.283 11.663 8.055 12.306 8.56-.14.61-1.668 7.016-1.73 7.29h-7.958c.306-1.222 2.19-9.11 2.19-9.11h-8.083l-2.632 11.13c-.414 1.635-.245 2.92.444 3.774.627.78 1.623 1.192 2.97 1.192h15.134c2.848 0 4.697-1.636 5.433-4.692l2.588-10.853c.06-.29.2-.856.2-1.497 0-.887-.214-1.958-1.103-2.874l-.046-.046-.077-.045c-4.27-2.768-11.004-7.217-12.183-8.118.152-.61 1.393-5.808 1.515-6.327h8.127c-.275 1.207-1.577 6.847-1.577 6.847h8.066l2.037-8.85c.397-1.576.213-2.858-.46-3.762-.443-.55-1.33-1.222-3.06-1.222H404.08"/><path d="M404.08 350.475c-1.607 0-4.455.61-5.418 4.708l-2.357 9.874c-.092.368-.215.978-.215 1.606 0 .718.17 1.437.628 1.986.03.015.03.06.046.106.03.015.03.015.03.03v-.016c.077.062.183.153.413.306 9.23 6.283 11.663 8.055 12.306 8.56-.14.61-1.668 7.016-1.73 7.29h-7.958c.306-1.222 2.19-9.11 2.19-9.11h-8.083l-2.632 11.13c-.414 1.635-.245 2.92.444 3.774.627.78 1.623 1.192 2.97 1.192h15.134c2.848 0 4.697-1.636 5.433-4.692l2.588-10.853c.06-.29.2-.856.2-1.497 0-.887-.214-1.958-1.103-2.874l-.046-.046-.077-.045c-4.27-2.768-11.004-7.217-12.183-8.118.152-.61 1.393-5.808 1.515-6.327h8.127c-.275 1.207-1.577 6.847-1.577 6.847h8.066l2.037-8.85c.397-1.576.213-2.858-.46-3.762-.443-.55-1.33-1.222-3.06-1.222H404.08v.002z"/></g></g></svg>