<svg width="512" height="512" viewBox="0 0 512 512" xmlns="http://www.w3.org/2000/svg"><title>los-angeles-clippers</title><g fill="none" fill-rule="evenodd"><path d="M290.732 116.762c11.123-1.875 22.487-2.36 33.723-1.316 7.635.645 15.174 2.104 22.607 3.928 15.322 3.55 30.04 9.78 43.097 18.56 6.33 4.312 12.53 8.876 18.17 14.066 9.34 8.41 17.2 18.323 24.05 28.825 6.52 10.313 11.863 21.432 15.35 33.138 3.08 11.023 5.45 22.29 6.14 33.732.9 12.497-.34 25.092-3.16 37.28-1.73 7.8-3.82 15.54-6.778 22.972-3.4 8.682-7.756 16.996-12.98 24.723-5.394 8-11.32 15.68-18.21 22.457-6.89 6.963-14.694 12.955-22.835 18.377-12.07 8.023-25.535 13.922-39.585 17.478-6.102 1.517-12.233 2.973-18.47 3.834-16.37 2.344-33.135 1.518-49.254-2.11-15.25-3.098-30.03-8.652-43.307-16.79-13.21-8.11-25.144-18.387-34.85-30.477h-32.71c-4.63 5.14-9.92 9.68-15.66 13.54-5.69 3.75-11.812 7.02-18.48 8.63-3.226.74-6.442 1.62-9.742 1.96-5.87.56-11.783-.22-17.463-1.72-6.354-1.307-12.485-3.694-17.963-7.17-6.03-3.92-11.84-8.35-16.39-13.97-4.444-5.577-8.554-11.535-11.17-18.21-2.11-5.054-3.247-10.426-4.444-15.743-2.26-10.71-1.56-21.88 1.17-32.437 1.97-9.13 5.134-18.02 9.65-26.205 3.15-5.845 7.04-11.248 11.13-16.47 5.1-6.367 11.13-11.98 17.83-16.637-4.125-.003-8.254.05-12.375-.022-1.84-.393-4.204-1.693-3.88-3.91.162-1.102.11-2.382.9-3.263 15.474-18.486 30.944-36.976 46.42-55.466 1.57-1.89 3.18-3.754 4.674-5.71 2.89-3.3 7.47-4.48 11.692-4.78 24.902-.045 49.81.014 74.72-.03 7.395-6.02 15.1-11.742 23.525-16.25 7.764-4.17 15.956-7.562 24.41-10.073 6.725-1.92 13.552-3.526 20.44-4.756zm-24.614 18.785c-14.377 5.57-27.7 13.817-39.11 24.168-.642.598-1.463 1.04-2.36.986-23.592.01-47.183.01-70.774 0-1.68.01-3.616-.24-4.953 1.01-1.07.83-1.37 2.21-1.37 3.49 4.03.62 8.11.24 12.16.34 20.41.03 40.82-.07 61.22.07-2.9 2.7-5.39 5.81-8.06 8.72-.42.607-1.21.52-1.85.58-24.51-.04-49.02.01-73.53-.03-2.59-.017-4.7 2.498-4.36 5.048 3.92.43 7.87.13 11.8.22 21.17.023 42.338-.05 63.508.042-2.282 3.213-4.45 6.512-6.45 9.912-25.76.09-51.52-.014-77.277.05-2.24-.03-4.19 2.33-3.237 4.49 25.96.02 51.916-.01 77.875.02-1.563 3.325-3.437 6.51-4.704 9.97-4.64.193-9.29.046-13.933.11-21.635.08-43.27-.045-64.906.02-2.208.087-4.615.265-6.4 1.7-1.09.79-1.018 2.264-1.23 3.448 1.09.25 2.19.51 3.314.5 38.746-.015 77.496-.007 116.246-.003 2.993.058 5.975-.365 8.973-.323 63.354.02 126.71.08 190.065 0 1.968 4 3.33 8.26 4.53 12.545 3.095 11.57 4.526 23.58 4.265 35.55-.35 12.992-2.51 26.017-7.152 38.193-1.913 5.004-3.78 10.04-5.987 14.93-2.295 5.134-4.95 10.175-8.58 14.51-4.08.72-8.197-.205-12.29.12-3.64.234-7.287-.007-10.926.117-4.65.153-9.297-.402-13.943-.03-11.545.055-23.09-.05-34.64.024-8.94-.154-17.886.056-26.83.02-6.616.02-13.226-.47-19.835-.067-4.252-.287-8.5.14-12.75-.027-4.954-.105-9.907-.07-14.86.06-4.273-.24-8.545.056-12.818-.107-4.52.37-9.05-.24-13.57.09-10.635.173-21.27-.16-31.906-.095-3.63-.01-7.264.202-10.9.117-3.887-.182-7.775.148-11.66-.13-6.73.434-13.48-.206-20.21.14-4.545-.04-9.09.09-13.63-.063-2.975-.216-5.945.052-8.92.04-7.923.1-15.85-.09-23.77.05-1.193-.16-1.815 1.084-1.873 2.093-.11 2.04 1.76 3.97 3.82 3.88 10.745 0 21.49.005 32.233-.007-4.87 5.553-10.76 10.43-17.69 13.172-4.585 1.77-9.74 2.362-14.507.98-6.518-1.71-11.797-6.528-15.277-12.148-4.51-7.222-6.3-15.803-6.577-24.217-.42-13.146 2.213-26.245 6.575-38.603 3.893-10.813 9.16-21.195 16.16-30.34 6.04-7.812 14.683-13.898 24.48-15.808 7.15-1.013 14.852-.384 21.185 3.334 5.41 3.1 9.386 8.305 11.583 14.07 1.056 2.654 1.422 5.54 2.7 8.114.63-.054 1.26-.1 1.897-.147 1.11-2.96 1.697-6.07 2.498-9.124 1.83-7.192 3.544-14.42 5.42-21.6.367-1.134.075-2.31-.19-3.43-3.234-.553-6.52-.285-9.78-.332-9.712.027-19.424-.067-29.136.042-3.603.33-7.23.25-10.834.58-10.838 1.37-21.37 5.05-30.72 10.683-10.86 6.528-19.98 15.746-26.826 26.37-6.365 9.89-10.93 20.977-13.133 32.535-2.03 10.626-1.67 21.76 1.534 32.124 2.296 7.424 6.025 14.42 11.024 20.383 7.636 9.062 18.222 15.804 29.905 18.156 6.427 1.238 13.184 1.32 19.494-.57 5.923-1.72 11.42-4.74 16.312-8.47 5.89-4.475 11.14-9.79 15.504-15.76 4.194.03 8.385-.06 12.58.065 10.17.16 20.333-.114 30.5.13 1.05 1.134 1.975 2.37 2.89 3.618 11.77 15.12 27.112 27.446 44.424 35.694 25.17 11.985 54.228 15.432 81.58 10.184 23.6-4.532 45.83-15.892 63.3-32.38 17.91-16.767 30.873-38.742 36.763-62.546 3.196-12.86 4.58-26.22 3.596-39.454-.98-13.688-3.757-27.34-9.133-40-4.202-9.92-9.427-19.436-15.877-28.08-14.34-19.355-34.15-34.686-56.65-43.41-29.858-11.72-64.098-11.87-94.023-.3zm-34.333 85.71c-4.25.55-7.67 3.884-9.233 7.742-1.287 3.14-1.684 6.72-.762 10.01 1.104 2.56 3.977 4.04 6.698 4.03 2.792.18 5.688-.448 7.967-2.12 3.417-2.46 5.155-6.62 5.757-10.678.34-2.72-.29-5.86-2.554-7.635-2.232-1.69-5.217-1.736-7.873-1.367zm97.58.022c-3.826 1-7.227 3.66-8.82 7.32-1.405 3.29-2.385 7.23-.713 10.62.778 1.85 2.663 2.85 4.518 3.32 4.078 1.03 8.456.56 12.433-.69.785-3.507 1.508-7.028 2.282-10.53-2.9-.018-5.8-.01-8.7-.02-.257 1.21-.475 2.42-.666 3.64l3.97.034c-.37 1.42-.71 2.84-1.04 4.27-2.34.445-5.02.744-7.09-.69-1.48-1.068-1.69-3.08-1.54-4.76.32-3.57 2.005-7.455 5.45-9.01 1.865-.83 4.44-.74 5.76 1.01.14.733.07 1.49.102 2.24 1.606-.004 3.215 0 4.825 0 .006-1.607.293-3.466-.88-4.77-1.16-1.277-2.827-2.165-4.57-2.193-1.78-.066-3.576-.09-5.337.2zm-120.918.04c-1.248 7.11-3.157 14.1-4.312 21.23 4.54.01 9.082.01 13.623 0 .257-1.24.498-2.47.723-3.71-2.96-.01-5.93 0-8.9-.02 1.07-5.87 2.72-11.62 3.52-17.53-1.55 0-3.1.004-4.64.02zm39.997 3.26c-1.372 1.64-1.74 3.98-1.21 6.01.833 1.702 2.75 2.43 4.426 3.04 1.508.575 3.27.533 4.603 1.518 1.085.92.428 2.564-.482 3.35-1.52 1.434-3.82 1.415-5.71.856-.91-1.056-.88-2.426-.8-3.734-1.566.004-3.133.01-4.7.023-.065 1.397-.27 2.825.055 4.207.573 1.747 2.388 2.733 4.11 3.03 3.297.46 6.894.12 9.708-1.79 1.66-1.165 3.12-2.907 3.257-5.007.09-1.306.2-2.925-.93-3.85-2.2-1.7-5.09-1.91-7.603-2.92-1.41-.443-1.17-2.31-.57-3.323 1.168-1.85 3.823-1.87 5.526-.8.4.73.45 1.6.666 2.4 1.476.004 2.953-.01 4.43-.02-.025-1.63.236-3.597-1.144-4.79-2.03-1.877-4.967-1.683-7.53-1.536-2.306.4-4.603 1.47-6.085 3.337zm152.69 2.28c-.61 1.69-.455 3.883 1.073 5.044 2.44 1.99 5.765 2.014 8.518 3.35.105 1.525-.474 3.16-1.843 3.966-1.66.675-3.522.51-5.21.043-.37-1.186-.59-2.405-.684-3.64-1.47 0-2.935-.017-4.4-.024-.4 1.894-.666 4.183.804 5.713 1.89 1.847 4.743 1.81 7.208 1.684 3.577-.196 7.38-2.11 8.728-5.595.657-1.655.82-3.875-.614-5.18-2.162-1.784-5.113-1.81-7.605-2.87-.71-.31-1.63-.89-1.34-1.8.29-2.684 3.9-4.108 6.04-2.55.65.685.65 1.73.93 2.6 1.45-.013 2.9-.02 4.35-.033-.006-1.627.18-3.548-1.11-4.78-2.236-2.067-5.548-1.865-8.328-1.353-2.92.526-5.583 2.57-6.53 5.42zm-118.88-5.245c-3.827 7.04-8.022 13.874-11.882 20.895 1.473.027 2.947.04 4.42.04.82-1.464 1.652-2.924 2.47-4.387 2.744-.03 5.492-.02 8.24-.016.15 1.476.35 2.944.604 4.407 1.504 0 3.016-.01 4.525-.028-.75-7.015-1.79-13.99-2.78-20.98-1.86-.01-3.73.007-5.59.066zm16.312-.044c-1.528 6.98-2.95 13.98-4.502 20.956 1.458.014 2.92.022 4.38.026.934-4.16 1.833-8.33 2.684-12.505.25-1.29.65-2.54 1.116-3.76 1.59 5.37 2.717 10.866 4.222 16.26 2.103-.003 4.21-.003 6.318.005 1.512-6.993 2.993-13.99 4.478-20.99-1.438-.007-2.88-.003-4.315.01-1.225 5.374-2.236 10.796-3.554 16.15-1.185-5.43-2.795-10.76-4.14-16.15-2.232-.024-4.46-.02-6.687 0zm43.64 20.95c4.922.02 9.848.103 14.77-.05.132-1.217.276-2.432.428-3.647-3.184.006-6.364.013-9.55-.01.21-1.808.553-3.594.942-5.37 3.076-.03 6.155.03 9.23-.064.117-1.21.24-2.416.373-3.62-2.95.017-5.89.03-8.83-.02.35-1.606.75-3.2 1.21-4.78 3.13.015 6.27.003 9.4.015.24-1.137.48-2.275.74-3.41-4.755-.01-9.506-.03-14.26.02-1.458 6.985-2.944 13.963-4.468 20.94zm23.545-20.957c-1.52 6.98-2.99 13.97-4.45 20.965 4.61.026 9.21.04 13.82-.017.213-1.23.44-2.462.68-3.69-2.998 0-6 .015-8.997-.023 1.29-5.733 2.438-11.5 3.713-17.237-1.586-.007-3.17-.01-4.75-.003zm13.27 20.965c4.85.04 9.71.002 14.57.02.24-1.24.48-2.478.697-3.72-3.262-.008-6.524.015-9.786-.024.385-1.786.774-3.57 1.147-5.36 2.98-.028 5.968-.01 8.954-.01.24-1.225.483-2.447.716-3.67-2.97-.004-5.94.02-8.91-.023.34-1.61.715-3.21 1.174-4.79 3.15.02 6.302.02 9.46.008.212-1.134.44-2.27.67-3.405-4.743.013-9.483-.026-14.22.025-1.46 6.99-2.97 13.97-4.47 20.95zm11.14 13.222c-4.54 1.83-7.95 6.13-8.77 10.94-.82 4.564-.1 9.5 2.45 13.425 3.99 6.13 8.87 11.78 11.687 18.602 1.06 2.59 1.5 5.735.047 8.27-1.13 1.8-2.79 3.34-4.79 4.106-2.52.854-5.366.2-7.505-1.308-4.05-2.76-6.37-7.536-6.86-12.326-.31-2.39.243-4.88-.64-7.185-2.5 5.47-2.6 11.75-5.497 17.07-.67 1.26-1.784 2.59-3.36 2.49-1.188.12-2.055-.925-2.38-1.95-1.2-3.49-.908-7.235-1.27-10.852-.26-2.505.17-5.164-.91-7.524-.84-2.066-3.43-2.86-3.856-5.17 4.226-1.604 8.67-3.08 12.033-6.24 2.775-2.49 4.92-5.987 4.9-9.806.14-3.72-.574-7.895-3.45-10.52-3.435-2.885-8.147-3.09-12.42-3.05-9.87.08-19.75-.095-29.62.084.01.22.04.658.053.876 1.253.935 2.886 1.824 3.16 3.516.91 5.69-1.01 11.26-2.183 16.75-1.765 7.47-3.643 14.91-5.645 22.32-1.055 3.774-2.046 7.624-3.99 11.063-.926 1.784-2.873 2.595-4.355 3.826 8.93.175 17.87.187 26.8 0-1.35-1.26-3.09-2.11-4.21-3.6-1.425-2.11-1.08-4.81-.55-7.15 1.02-4.2 2.212-8.35 3.152-12.564.305-1.196.635-2.66 1.883-3.207 1.396-.25 2.52.963 2.998 2.15 1.05 2.632 1.39 5.48 1.78 8.27.5 3.47.133 6.972.25 10.46-.03 2.508 1.426 4.78 3.195 6.45 3.95 3.77 10.79 3.87 14.77.09 1.43.257 2.94.618 4.37.14 2.232-.733 4.324-2.11 6.76-2.045 3.368-.21 6.035 2.358 9.3 2.69 6.424.705 13.406-1.434 17.644-6.464 3.396-3.95 4.7-9.392 4.115-14.51-.347-3.673-1.813-7.12-3.547-10.34-3.12-5.78-7.32-10.873-10.716-16.485-.943-1.58-1.752-3.41-1.453-5.3.28-1.72 1.79-2.94 3.35-3.504 4.13-1.4 9.09.44 11.26 4.226 1.507 2.527 1.27 5.58 1.55 8.395.808-1.44 1.33-3.006 1.73-4.6.905-3.46 2.3-6.773 3.06-10.27-3.63-1.37-7.56-1.34-11.373-1.67-4.337-.18-8.854-.245-12.936 1.436zm-266.72-.517c.92 1.58 2.96 1.886 4.06 3.306 1.62 1.77 1.42 4.39.85 6.55-3.21 12.12-6.41 24.245-9.62 36.366-1.25 4.706-3.85 9.3-8.15 11.828 1.2.26 2.408.52 3.64.5 9.328-.024 18.65-.02 27.985-.012 2.72-.023 5.456.155 8.15-.322 2.21-5.865 4.16-11.885 5.015-18.12-.933.638-1.703 1.476-2.224 2.478-2.02 3.63-4.64 7.01-8.05 9.44-3.38 2.31-7.65 3.35-11.702 2.79-1.655-.404-1.775-2.36-1.3-3.703 3.51-13.13 7.016-26.266 10.65-39.37.79-3.01 2.404-5.75 4.414-8.11 1.26-1.49 3.115-2.27 4.546-3.57-2.25-.22-4.515-.16-6.774-.157-7.157.067-14.32-.135-21.476.11zm41.98-.062l.04.866c1.25 1.05 2.75 2.08 3.17 3.76.66 2.75-.39 5.49-1.073 8.12-2.877 10.623-5.742 21.25-8.607 31.877-.81 3.05-1.59 6.144-3.064 8.96-.927 1.8-2.6 3.023-3.86 4.572 1.382.25 2.78.464 4.185.46 5.05-.026 10.1-.03 15.15 0 1.53.01 3.05-.2 4.554-.46-.5-1.32-1.753-2.14-2.286-3.43-1.144-2.51-.942-5.408-.164-7.98 3.102-11.556 6.034-23.15 9.233-34.67.723-2.455 1.415-4.935 2.496-7.26.99-2.115 3.096-3.31 4.81-4.76-8.19-.19-16.39-.1-24.58-.055zm29.46-.023c2.44 1.72 5.4 4.415 4.49 7.72-.962 4.95-2.36 9.8-3.672 14.66-1.64 6.365-3.28 12.73-4.953 19.088-1.077 3.84-1.656 7.885-3.647 11.405-1.024 2.01-2.81 3.455-4.305 5.09.95.29 1.9.68 2.916.66 5.074 0 10.152-.01 15.225-.005 2.59-.03 5.23.234 7.756-.48-1.643-1.417-3.914-2.42-4.676-4.607-1.02-2.71-.263-5.62.35-8.33 1.125-4.606 2.37-9.2 4.068-13.634 3.738-.317 7.525.443 11.23-.32 5.46-1.133 10.827-3.52 14.703-7.62 3.292-3.387 5.734-8.025 5.26-12.86-.265-3.07-1.357-6.347-3.935-8.24-2.31-1.608-5.094-2.613-7.932-2.516-10.954-.066-21.91-.04-32.865-.012zm44.92.03c1.62 1.296 3.49 2.55 4.22 4.59.63 1.476.41 3.125.01 4.635-3.25 12.51-6.56 25.01-9.75 37.53-.93 4.13-2.75 8.406-6.48 10.754l.09 1.08c8.23.004 16.467.004 24.697 0l.015-1.153c-1.314-.846-2.862-1.63-3.484-3.155-1.183-2.75-.71-5.84.018-8.64 1.22-4.73 2.374-9.498 4.154-14.06 3.79-.39 7.63.425 11.39-.39 6.346-1.31 12.6-4.437 16.44-9.804 1.974-2.86 3.797-6.23 3.393-9.826-.175-2.736-1.042-5.53-2.93-7.583-2.342-2.69-5.95-4.07-9.48-4.04-10.765.05-21.53-.064-32.296.06zm43.498.116c1.53 1.535 3.92 2.195 4.918 4.22.566 1.97.25 4.08-.192 6.05-3.214 12.35-6.316 24.73-9.504 37.086-1.17 4.366-4.09 8.36-8.31 10.203 1.11.315 2.256.49 3.41.44 13.736-.114 27.47.11 41.203-.11.624.085.896-.58 1.196-1 .78-1.45 1.072-3.09 1.565-4.647 1.066-3.96 2.68-7.808 3.01-11.93-4.23 4.14-6.81 9.862-11.866 13.165-4.326 2.71-9.66 2.5-14.57 2.45-1.9.08-3.09-2.02-2.52-3.71 1.744-6.855 3.645-13.674 5.426-20.52.41-1.22.743-2.75 2.06-3.303 2.19-.967 4.72.143 6.198 1.855 2.66 2.784 2.957 6.843 3.264 10.48.22-.093.65-.283.863-.376 1.786-6.86 3.43-13.76 5.238-20.61.425-1.557.716-3.148.85-4.755-2.527 2.09-4.15 5.115-6.95 6.9-2.475 1.728-5.58 2.33-8.552 2.058-.13-1.715-.02-3.442.41-5.107.92-3.59 1.95-7.15 2.81-10.752.48-1.96 1.272-3.86 2.532-5.45 4.38.21 9.383-.95 13.15 1.93 3.284 2.76 2.92 7.45 3.23 11.316.83-1.078 1.352-2.35 1.61-3.68.893-4.117 2.21-8.14 2.743-12.33-14.406.1-28.82-.14-43.226.127z" id="Shape" fill="#FEFFFE"/><path d="M266.118 135.547c29.925-11.57 64.165-11.422 94.023.3 22.5 8.724 42.32 24.055 56.65 43.41 6.45 8.644 11.68 18.157 15.88 28.077 5.38 12.66 8.15 26.315 9.13 40 .99 13.235-.4 26.594-3.59 39.456-5.89 23.804-18.85 45.78-36.76 62.546-17.462 16.488-39.692 27.848-63.3 32.38-27.35 5.25-56.41 1.802-81.58-10.183-17.31-8.248-32.65-20.57-44.42-35.692-.913-1.24-1.84-2.48-2.89-3.61-10.165-.24-20.33.03-30.5-.13-4.193-.12-8.384-.03-12.58-.06-3.87-.02-7.74-.01-11.612 0-10.74.01-21.486.01-32.23.01-2.057.09-3.927-1.84-3.818-3.88.06-1.01.68-2.25 1.874-2.094 7.92-.14 15.848.048 23.77-.05 2.976.013 5.946-.255 8.92-.042 4.54.155 9.086.027 13.63.065 6.734-.346 13.48.294 20.213-.14 3.885.28 7.773-.05 11.66.13 3.636.087 7.267-.126 10.898-.115 10.64-.065 21.27.27 31.906.094 4.52-.326 9.05.28 13.57-.09 4.276.164 8.548-.13 12.82.106 4.954-.13 9.907-.163 14.86-.06 4.25.168 8.5-.26 12.75.028 6.61-.403 13.22.09 19.834.067 8.945.033 17.89-.177 26.832-.025 11.547-.074 23.094.03 34.64-.024 4.647-.37 9.296.186 13.946.03 3.64-.12 7.29.12 10.928-.112 4.096-.328 8.21.596 12.29-.126 3.63-4.33 6.288-9.37 8.58-14.505 2.21-4.89 4.076-9.925 5.99-14.93 4.64-12.177 6.806-25.202 7.152-38.196.26-11.972-1.17-23.98-4.267-35.55-1.197-4.285-2.56-8.543-4.53-12.544-63.355.08-126.71.024-190.066.004-3-.045-5.98.38-8.974.32-38.75-.005-77.5-.013-116.244.003-1.124.01-2.224-.25-3.313-.5.215-1.185.14-2.656 1.23-3.448 1.79-1.436 4.195-1.614 6.4-1.7 21.635-.066 43.27.06 64.906-.02 4.642-.065 9.292.082 13.934-.112 1.266-3.458 3.14-6.644 4.703-9.97-25.96-.028-51.91 0-77.87-.016-.954-2.162 1-4.522 3.237-4.49 25.76-.067 51.52.038 77.28-.05 2-3.4 4.168-6.7 6.45-9.914-21.17-.093-42.34-.02-63.51-.042-3.93-.09-7.88.217-11.792-.214-.344-2.55 1.767-5.063 4.36-5.05 24.51.046 49.02-.005 73.534.034.64-.06 1.43.026 1.85-.576 2.676-2.917 5.157-6.02 8.065-8.72-20.408-.135-40.815-.034-61.22-.065-4.054-.106-8.136.28-12.16-.34-.003-1.288.3-2.666 1.373-3.49 1.336-1.25 3.27-1 4.95-1.01 23.59.01 47.184.01 70.775.002.9.054 1.72-.39 2.36-.987 11.41-10.35 24.735-18.6 39.11-24.17zm10.05 3.497c-12.806 4.11-24.913 10.367-35.725 18.354 1.575-.34 3.15-.687 4.716-1.07 18.46-4.833 37.92-5.986 56.78-3.013 13.34 2.042 26.26 6.377 38.43 12.172 1.904-3.862 3.24-8.298 2.16-12.6-1.17-4.023-4.397-7-7.667-9.422-5.47-4.072-11.668-7.037-17.955-9.622-2.02-.892-4.26-.562-6.4-.54-11.643.315-23.26 2.17-34.356 5.74zm55.18-4.378c3.53 2.03 6.986 4.25 9.98 7.03 3.386 3.178 6.333 7.206 7.006 11.907.73 5.014-.79 10.048-3.002 14.504 7.282 3.982 14.268 8.51 20.808 13.615.552.44 1.586 1.16 2.045.213 5.618-8.546 11.053-17.22 16.126-26.1-15.62-11.128-33.92-18.576-52.96-21.17zm-101.34 32.288c-.987.345-1.873.93-2.608 1.67-10.524 10.494-19.38 22.774-25.29 36.44 21.114.073 42.225.104 63.34.09 1.81-.052 3.72.247 5.443-.49 11.348-4.805 22.93-9.024 34.492-13.274 7.24-2.662 14.218-6.113 20.5-10.603 4.22-3.047 8.212-6.498 11.33-10.69-16.73-8.127-35.267-12.536-53.874-12.75-18.18-.267-36.32 3.28-53.33 9.607zm158.79-7.825c-5.39 9.21-11.05 18.26-16.862 27.21 6.656 5.5 13.126 11.25 19.175 17.42 3.48-4.51 8.12-8.47 13.79-9.81 5.2-1.35 10.71-.074 15.45 2.223-7.795-14.368-18.78-26.88-31.54-37.058zm-46.572 13.65c-7.263 9.41-17.468 16.14-28.222 20.97-6.885 3.04-14.07 5.32-21.08 8.05-2.51 1-5.154 1.71-7.46 3.15 22.417.23 44.838.05 67.26.12 4.023-5.87 7.988-11.77 11.896-17.71-7.072-5.428-14.354-10.68-22.394-14.59zm17.367 32.27c8.37.05 16.74-.04 25.11.05-2.32-2.21-4.622-4.43-6.99-6.58-2.907-2.54-5.656-5.33-8.875-7.48-3.04 4.69-6.318 9.232-9.245 14.002zM397.4 205c9 .148 18 .03 27 .066-4.032-3.155-8.77-5.697-13.95-6.186-5.05-.39-9.9 2.3-13.044 6.12zM218.41 331.93c6.438 7.878 13.71 15.12 21.985 21.074 5.776-6.948 11.526-13.918 17.214-20.94-13.07-.155-26.14.086-39.2-.13zm45.78.68c-6.45 7.857-12.82 15.78-19.375 23.55 23.56 16.38 53.212 23.385 81.682 20.427 2.465-.08 4.37-1.8 6.47-2.86 4.564-2.498 8.937-5.397 12.627-9.084 9.295-8.982 15.45-20.68 19.823-32.707-32.934-.07-65.867.01-98.797-.043-.848.046-1.9-.11-2.43.718zm107.03-.685c-1.92 5.398-4.114 10.71-6.754 15.803-5.135 9.856-11.872 19.174-20.985 25.72 4.96-1.1 9.82-2.64 14.53-4.52 9.73-3.807 18.97-8.845 27.39-15.016 8.78-6.388 16.75-13.848 23.93-21.975-12.7-.056-25.4-.03-38.11-.01z" id="Shape" fill="#ED174C"/><path d="M276.168 139.044c11.096-3.57 22.713-5.426 34.357-5.74 2.138-.023 4.377-.353 6.4.54 6.286 2.584 12.483 5.55 17.953 9.62 3.27 2.423 6.496 5.4 7.667 9.424 1.077 4.3-.257 8.737-2.162 12.6-12.17-5.796-25.088-10.13-38.435-12.173-18.863-2.973-38.33-1.82-56.79 3.012-1.565.384-3.14.73-4.715 1.07 10.812-7.986 22.92-14.243 35.725-18.353z" id="Shape" fill="#FEFFFE"/><path d="M331.348 134.666c19.042 2.593 37.334 10.04 52.963 21.168-5.07 8.88-10.5 17.555-16.12 26.1-.46.948-1.49.227-2.04-.212-6.54-5.104-13.52-9.633-20.803-13.615 2.21-4.456 3.733-9.49 3-14.504-.672-4.7-3.62-8.73-7.005-11.908-2.994-2.78-6.45-5-9.98-7.03z" id="Shape" fill="#FEFFFE"/><path d="M230.01 166.954c17.008-6.326 35.144-9.874 53.33-9.606 18.608.213 37.145 4.622 53.875 12.75-3.118 4.19-7.11 7.642-11.33 10.69-6.282 4.49-13.26 7.94-20.5 10.602-11.562 4.25-23.144 8.47-34.492 13.274-1.723.737-3.632.438-5.443.49-21.115.014-42.226-.017-63.34-.09 5.91-13.666 14.766-25.946 25.29-36.44.735-.74 1.62-1.325 2.61-1.67z" id="Shape" fill="#FEFFFE"/><path d="M388.798 159.13c12.76 10.176 23.743 22.69 31.538 37.057-4.74-2.297-10.24-3.574-15.443-2.224-5.668 1.335-10.302 5.294-13.782 9.804-6.04-6.17-12.51-11.915-19.17-17.422 5.82-8.954 11.48-18.005 16.86-27.216z" id="Shape" fill="#FEFFFE"/><path d="M342.226 172.784c8.04 3.908 15.322 9.163 22.394 14.585-3.908 5.94-7.873 11.84-11.897 17.71-22.42-.07-44.842.11-67.26-.12 2.307-1.44 4.95-2.16 7.462-3.16 7.01-2.73 14.194-5.02 21.08-8.06 10.753-4.83 20.958-11.56 28.22-20.97z" id="Shape" fill="#FEFFFE"/><path d="M359.593 205.056c2.927-4.77 6.205-9.31 9.245-14.007 3.22 2.15 5.968 4.93 8.876 7.47 2.367 2.15 4.67 4.38 6.99 6.58-8.37-.09-16.74 0-25.11-.05z" id="Shape" fill="#FEFFFE"/><path d="M397.4 205.005c3.147-3.82 7.995-6.512 13.05-6.12 5.174.49 9.913 3.03 13.948 6.186-9-.03-18 .09-26.997-.06z" id="Shape" fill="#FEFFFE"/><path d="M143.062 216.575c3.604-.33 7.23-.248 10.835-.582 9.712-.11 19.424-.015 29.14-.043 3.257.047 6.542-.22 9.777.334.264 1.118.556 2.294.19 3.43-1.877 7.18-3.588 14.408-5.42 21.604-.8 3.05-1.387 6.163-2.495 9.12-.64.047-1.27.094-1.9.148-1.28-2.573-1.65-5.46-2.7-8.115-2.2-5.76-6.18-10.97-11.59-14.07-6.34-3.71-14.04-4.34-21.19-3.33-9.798 1.91-18.44 8-24.48 15.81-7 9.15-12.268 19.53-16.16 30.34-4.36 12.36-6.994 25.46-6.578 38.61.276 8.416 2.07 16.997 6.58 24.22 3.48 5.62 8.76 10.438 15.274 12.146 4.766 1.386 9.92.79 14.505-.98 6.93-2.745 12.82-7.62 17.69-13.174 3.87-.012 7.74-.016 11.613.004-4.367 5.97-9.62 11.28-15.51 15.756-4.895 3.725-10.39 6.75-16.317 8.47-6.31 1.89-13.066 1.81-19.493.572-11.682-2.35-22.27-9.092-29.904-18.155-5-5.96-8.728-12.96-11.02-20.385-3.2-10.36-3.564-21.495-1.534-32.122 2.207-11.56 6.77-22.64 13.136-32.533 6.84-10.624 15.966-19.842 26.82-26.37 9.35-5.635 19.887-9.315 30.722-10.685z" id="Shape" fill="#006BB6"/><path d="M231.785 221.256c2.656-.37 5.64-.322 7.873 1.366 2.263 1.774 2.893 4.914 2.554 7.635-.602 4.052-2.34 8.212-5.757 10.673-2.28 1.677-5.175 2.3-7.967 2.12-2.72.007-5.594-1.472-6.698-4.034-.922-3.29-.525-6.877.762-10.017 1.563-3.86 4.984-7.2 9.233-7.75zm-.004 3.412c-1.59.555-2.99 1.653-3.78 3.16-1.64 2.894-2.12 6.407-1.59 9.67.95 2.054 3.76 2.838 5.74 1.798 3.44-1.487 4.6-5.453 5.22-8.818.52-2.108-.263-4.54-2.113-5.748-1.08-.474-2.353-.396-3.46-.062z" id="Shape" fill="#006BB6"/><path d="M329.365 221.28c1.76-.292 3.557-.268 5.338-.2 1.742.03 3.41.917 4.568 2.194 1.18 1.304.89 3.163.88 4.77-1.61 0-3.22-.004-4.82 0-.03-.75.04-1.506-.1-2.24-1.313-1.75-3.89-1.84-5.753-1.008-3.444 1.556-5.132 5.44-5.45 9.012-.156 1.68.054 3.69 1.535 4.758 2.07 1.436 4.744 1.137 7.085.69.34-1.427.675-2.848 1.04-4.268l-3.972-.035c.19-1.22.41-2.434.665-3.64 2.9.01 5.8.003 8.7.02-.773 3.503-1.496 7.024-2.28 10.528-3.98 1.25-8.356 1.72-12.434.69-1.853-.47-3.74-1.47-4.516-3.32-1.67-3.39-.69-7.32.71-10.62 1.597-3.65 4.998-6.31 8.82-7.32z" id="Shape" fill="#006BB6"/><path d="M208.447 221.322c1.547-.012 3.098-.02 4.646-.02-.8 5.912-2.45 11.664-3.515 17.528 2.967.023 5.937.012 8.903.016-.22 1.238-.46 2.476-.72 3.71-4.54.008-9.08.012-13.62 0 1.16-7.134 3.07-14.12 4.31-21.234z" id="Shape" fill="#006BB6"/><path d="M248.444 224.586c1.482-1.867 3.78-2.934 6.085-3.334 2.56-.147 5.49-.34 7.52 1.537 1.38 1.19 1.12 3.15 1.14 4.79-1.48.01-2.96.02-4.438.01-.214-.81-.265-1.68-.665-2.41-1.704-1.07-4.36-1.046-5.526.8-.6 1.014-.835 2.88.573 3.327 2.51 1.013 5.402 1.223 7.602 2.923 1.125.924 1.02 2.543.93 3.85-.14 2.1-1.6 3.843-3.258 5.008-2.814 1.917-6.41 2.255-9.707 1.797-1.722-.3-3.537-1.286-4.11-3.03-.325-1.384-.12-2.81-.053-4.21 1.57-.015 3.137-.02 4.7-.023-.074 1.31-.1 2.68.81 3.737 1.895.56 4.19.58 5.72-.85.91-.79 1.564-2.43.48-3.35-1.335-.987-3.096-.945-4.604-1.52-1.677-.61-3.594-1.34-4.426-3.04-.53-2.033-.16-4.377 1.21-6.015z" id="Shape" fill="#006BB6"/><path d="M401.134 226.872c.948-2.85 3.612-4.894 6.53-5.418 2.78-.512 6.093-.714 8.325 1.35 1.29 1.235 1.1 3.156 1.11 4.782-1.46.012-2.91.02-4.36.03-.28-.868-.27-1.912-.93-2.6-2.14-1.555-5.74-.13-6.04 2.55-.29.913.62 1.49 1.33 1.802 2.49 1.063 5.44 1.087 7.6 2.872 1.433 1.304 1.27 3.524.613 5.18-1.35 3.483-5.15 5.4-8.728 5.594-2.466.128-5.32.163-7.21-1.684-1.47-1.53-1.206-3.82-.806-5.713 1.466.007 2.932.023 4.4.023.095 1.234.316 2.453.685 3.637 1.686.47 3.55.632 5.21-.043 1.37-.807 1.946-2.44 1.84-3.967-2.752-1.335-6.076-1.358-8.517-3.35-1.53-1.16-1.687-3.357-1.076-5.045z" id="Shape" fill="#006BB6"/><path d="M282.253 221.63c1.862-.06 3.732-.075 5.598-.067.99 6.986 2.03 13.964 2.78 20.978-1.5.02-3.02.03-4.52.03-.25-1.46-.45-2.93-.6-4.4-2.75 0-5.49-.01-8.24.02-.81 1.465-1.65 2.925-2.47 4.388-1.47 0-2.94-.012-4.42-.04 3.86-7.02 8.06-13.855 11.88-20.895zm-2.88 12.85c1.916.034 3.836.034 5.757.027-.513-2.717-.6-5.48-.894-8.22-2 2.49-3.344 5.406-4.864 8.192z" id="Shape" fill="#006BB6"/><path d="M298.566 221.586c2.228-.02 4.455-.023 6.687 0 1.345 5.39 2.955 10.72 4.14 16.15 1.318-5.353 2.33-10.775 3.554-16.15 1.434-.012 2.877-.016 4.315-.008-1.485 6.998-2.966 13.996-4.478 20.99-2.108-.008-4.215-.008-6.318-.004-1.505-5.395-2.632-10.89-4.222-16.262-.467 1.222-.867 2.472-1.116 3.76-.85 4.177-1.75 8.345-2.683 12.506-1.46-.004-2.923-.012-4.38-.027 1.55-6.97 2.973-13.97 4.5-20.95z" id="Shape" fill="#006BB6"/><path d="M342.206 242.537c1.524-6.975 3.01-13.953 4.468-20.94 4.754-.05 9.505-.027 14.26-.02-.26 1.138-.505 2.276-.747 3.413-3.137-.012-6.274 0-9.408-.016-.46 1.58-.86 3.175-1.21 4.778 2.94.05 5.88.04 8.83.023-.14 1.203-.26 2.41-.38 3.62-3.08.095-6.16.036-9.23.064-.39 1.77-.73 3.56-.94 5.37 3.18.02 6.36.01 9.55 0-.15 1.21-.3 2.43-.43 3.65-4.92.15-9.85.07-14.77.05z" id="Shape" fill="#006BB6"/><path d="M365.75 221.578c1.583-.008 3.166-.004 4.752.004-1.275 5.736-2.422 11.504-3.713 17.237 2.99.03 5.99.02 8.99.02-.24 1.22-.47 2.45-.68 3.68-4.61.052-9.21.04-13.82.01 1.47-6.994 2.94-13.985 4.46-20.967z" id="Shape" fill="#006BB6"/><path d="M379.016 242.545c1.497-6.983 3.01-13.96 4.467-20.95 4.74-.052 9.48-.013 14.222-.025-.234 1.134-.46 2.27-.673 3.408-3.157.012-6.31.012-9.463-.008-.46 1.58-.84 3.18-1.18 4.79 2.97.042 5.94.02 8.91.023l-.72 3.668c-2.99 0-5.97-.01-8.96.02-.374 1.79-.76 3.58-1.148 5.36 3.262.04 6.524.02 9.786.03-.218 1.24-.45 2.48-.69 3.718-4.858-.015-9.714.024-14.566-.02z" fill="#006BB6"/><path d="M231.78 224.668c1.11-.334 2.38-.412 3.462.062 1.85 1.207 2.635 3.64 2.118 5.748-.618 3.365-1.784 7.33-5.217 8.818-1.98 1.04-4.79.256-5.735-1.797-.528-3.27-.054-6.78 1.59-9.68.786-1.51 2.19-2.61 3.783-3.16z" fill="#FEFFFE"/><path d="M279.372 234.48c1.52-2.787 2.865-5.702 4.864-8.194.295 2.74.38 5.504.894 8.22-1.92.008-3.84.008-5.758-.027z" fill="#FEFFFE"/><path d="M390.155 255.768c4.082-1.68 8.6-1.615 12.934-1.436 3.81.33 7.74.302 11.37 1.673-.76 3.497-2.16 6.81-3.06 10.273-.41 1.59-.93 3.16-1.73 4.6-.29-2.815-.05-5.87-1.55-8.396-2.17-3.784-7.13-5.624-11.26-4.226-1.57.566-3.08 1.79-3.35 3.508-.3 1.887.51 3.715 1.45 5.298 3.395 5.612 7.597 10.708 10.715 16.488 1.734 3.217 3.2 6.664 3.546 10.34.584 5.115-.72 10.556-4.116 14.51-4.24 5.03-11.22 7.17-17.644 6.467-3.264-.334-5.93-2.903-9.3-2.69-2.435-.066-4.53 1.312-6.762 2.046-1.43.477-2.94.116-4.37-.14-3.98 3.78-10.82 3.68-14.77-.09-1.77-1.672-3.23-3.943-3.198-6.45-.113-3.49.25-6.994-.25-10.464-.384-2.79-.723-5.64-1.772-8.27-.477-1.19-1.6-2.4-2.996-2.16-1.25.55-1.58 2.01-1.88 3.2-.94 4.215-2.134 8.364-3.153 12.564-.53 2.34-.874 5.04.55 7.15 1.122 1.493 2.86 2.34 4.213 3.6-8.935.187-17.87.175-26.8 0 1.482-1.23 3.43-2.04 4.355-3.826 1.942-3.44 2.933-7.29 3.99-11.066 2-7.408 3.88-14.848 5.642-22.316 1.174-5.496 3.094-11.06 2.185-16.75-.275-1.694-1.91-2.58-3.16-3.518-.016-.22-.043-.657-.055-.878 9.87-.18 19.75-.005 29.62-.087 4.273-.04 8.985.17 12.42 3.05 2.875 2.63 3.59 6.8 3.45 10.525.016 3.82-2.126 7.317-4.902 9.805-3.363 3.16-7.81 4.636-12.033 6.243.42 2.31 3.01 3.1 3.85 5.17 1.08 2.36.65 5.018.91 7.525.362 3.618.07 7.364 1.27 10.85.325 1.028 1.192 2.07 2.38 1.955 1.576.1 2.69-1.23 3.36-2.49 2.893-5.32 2.994-11.6 5.494-17.07.883 2.3.327 4.79.64 7.182.492 4.79 2.81 9.563 6.86 12.323 2.14 1.506 4.983 2.162 7.502 1.31 2-.766 3.66-2.307 4.79-4.107 1.453-2.535 1.013-5.68-.048-8.27-2.817-6.824-7.696-12.47-11.685-18.604-2.55-3.925-3.27-8.86-2.45-13.426.822-4.81 4.232-9.11 8.773-10.943zm-37.366 2.375c-1.37.384-2.38 1.572-2.7 2.934-1.43 5.48-2.69 11.01-4.19 16.48-.26 1.133-.706 2.336-.345 3.497.423.55.975.986 1.49 1.46 4.155-.37 8.172-2.582 10.62-5.978 3-4.09 3.983-9.69 2.2-14.485-.93-2.8-4.17-4.82-7.09-3.9z" fill="#006BB6"/><path d="M123.436 255.252c7.158-.245 14.32-.043 21.476-.11 2.26-.003 4.522-.06 6.773.156-1.43 1.3-3.285 2.084-4.545 3.575-2.01 2.356-3.623 5.1-4.416 8.108-3.632 13.11-7.138 26.24-10.65 39.38-.473 1.35-.353 3.3 1.303 3.7 4.055.57 8.324-.47 11.703-2.79 3.41-2.43 6.03-5.81 8.05-9.44.522-1 1.292-1.84 2.225-2.47-.855 6.233-2.803 12.253-5.015 18.12-2.694.48-5.43.3-8.15.323-9.33-.007-18.656-.01-27.983.013-1.233.02-2.442-.24-3.64-.5 4.308-2.53 6.905-7.123 8.157-11.827 3.208-12.12 6.404-24.248 9.62-36.37.566-2.16.772-4.78-.85-6.55-1.1-1.42-3.14-1.723-4.058-3.302z" fill="#006BB6"/><path d="M165.413 255.19c8.19-.047 16.387-.136 24.578.054-1.71 1.45-3.82 2.647-4.8 4.762-1.08 2.325-1.77 4.805-2.49 7.258-3.2 11.523-6.13 23.116-9.237 34.667-.78 2.58-.98 5.48.167 7.98.53 1.3 1.782 2.12 2.283 3.44-1.504.27-3.025.48-4.552.46-5.05-.03-10.1-.02-15.15 0-1.41.01-2.8-.21-4.185-.46 1.26-1.55 2.935-2.77 3.86-4.57 1.474-2.81 2.255-5.91 3.064-8.96 2.863-10.63 5.73-21.25 8.605-31.88.68-2.63 1.734-5.37 1.073-8.12-.422-1.68-1.92-2.71-3.17-3.76l-.036-.86z" fill="#006BB6"/><path d="M194.87 255.166c10.956-.027 21.912-.054 32.868.012 2.838-.097 5.626.908 7.935 2.515 2.578 1.894 3.67 5.17 3.935 8.24.474 4.836-1.968 9.474-5.26 12.862-3.877 4.1-9.242 6.486-14.704 7.62-3.705.763-7.492.003-11.228.32-1.695 4.437-2.943 9.03-4.067 13.636-.62 2.71-1.37 5.62-.35 8.33.76 2.19 3.03 3.19 4.67 4.61-2.53.72-5.17.45-7.76.48-5.078 0-10.15.01-15.23.01-1.014.02-1.967-.37-2.915-.66 1.495-1.63 3.28-3.08 4.302-5.09 1.99-3.52 2.57-7.56 3.645-11.4 1.67-6.357 3.31-12.723 4.95-19.09 1.315-4.862 2.71-9.713 3.675-14.662.91-3.302-2.045-5.996-4.486-7.72zm21.578 3.047c-1.186.912-1.668 2.4-2.05 3.784-1.527 5.787-3.055 11.574-4.653 17.34-.28 1.065-.443 2.156-.583 3.25.46.334.918.675 1.38 1.017 4.39.16 8.713-2.247 10.906-6.035 2.787-4.58 3.852-10.1 3.312-15.41-.198-2.2-2.068-3.86-3.977-4.71-1.454-.14-3.138-.24-4.335.75z" fill="#006BB6"/><path d="M239.79 255.197c10.766-.128 21.53-.01 32.296-.062 3.53-.03 7.138 1.35 9.48 4.04 1.888 2.054 2.755 4.848 2.93 7.584.404 3.59-1.42 6.96-3.394 9.82-3.837 5.36-10.093 8.49-16.438 9.8-3.76.81-7.6 0-11.39.39-1.78 4.56-2.936 9.33-4.153 14.06-.72 2.8-1.2 5.89-.01 8.64.62 1.52 2.17 2.31 3.49 3.15l-.013 1.15c-8.23.005-16.464.005-24.695 0-.03-.36-.06-.72-.085-1.08 3.726-2.346 5.545-6.62 6.48-10.75 3.186-12.523 6.495-25.02 9.75-37.53.392-1.51.62-3.16-.01-4.64-.737-2.036-2.607-3.29-4.225-4.586zm21.95 2.93c-1.434.874-2.025 2.566-2.46 4.1-1.513 5.677-2.994 11.363-4.568 17.026-.276 1.273-.984 2.694-.308 3.95 1.478.723 3.212.45 4.78.21 2.88-.935 5.445-2.83 7.04-5.42 2.756-4.36 3.743-9.658 3.514-14.758-.12-2.146-1.322-4.4-3.43-5.162-1.465-.477-3.117-.454-4.567.055z" fill="#006BB6"/><path d="M283.283 255.314c14.408-.264 28.82-.024 43.228-.124-.53 4.187-1.85 8.212-2.74 12.326-.25 1.332-.78 2.605-1.61 3.68-.31-3.866.06-8.555-3.23-11.318-3.77-2.88-8.77-1.72-13.15-1.93-1.26 1.592-2.05 3.49-2.53 5.45-.86 3.606-1.89 7.165-2.804 10.755-.43 1.665-.54 3.392-.412 5.108 2.976.28 6.08-.33 8.555-2.05 2.8-1.78 4.42-4.81 6.95-6.9-.13 1.61-.424 3.2-.848 4.76-1.81 6.85-3.45 13.75-5.235 20.61-.22.094-.646.284-.864.377-.307-3.637-.602-7.696-3.262-10.48-1.476-1.71-4.007-2.82-6.196-1.854-1.315.55-1.65 2.085-2.06 3.304-1.78 6.844-3.68 13.663-5.425 20.52-.57 1.69.62 3.79 2.52 3.71 4.904.05 10.242.26 14.565-2.45 5.058-3.304 7.636-9.03 11.866-13.17-.33 4.126-1.943 7.972-3.01 11.93-.492 1.557-.784 3.2-1.565 4.647-.3.425-.575 1.088-1.2 1.003-13.73.22-27.47-.003-41.205.11-1.156.05-2.3-.124-3.41-.44 4.22-1.842 7.14-5.836 8.31-10.203 3.185-12.36 6.29-24.74 9.503-37.09.445-1.97.76-4.077.196-6.048-1-2.026-3.388-2.686-4.92-4.22z" fill="#006BB6"/><path d="M216.448 258.213c1.197-.99 2.88-.893 4.335-.753 1.91.846 3.78 2.507 3.977 4.704.54 5.306-.525 10.825-3.312 15.405-2.193 3.78-6.516 6.19-10.906 6.03-.462-.34-.92-.69-1.38-1.02.14-1.1.303-2.19.583-3.25 1.598-5.77 3.126-11.56 4.654-17.34.38-1.39.86-2.87 2.04-3.79z" fill="#FEFFFE"/><path d="M261.74 258.128c1.45-.51 3.103-.532 4.57-.055 2.106.76 3.307 3.016 3.428 5.162.23 5.1-.758 10.398-3.515 14.757-1.594 2.592-4.16 4.486-7.04 5.422-1.567.24-3.3.512-4.78-.21-.675-1.257.033-2.678.31-3.95 1.573-5.664 3.054-11.35 4.567-17.028.435-1.533 1.026-3.225 2.46-4.098z" fill="#FEFFFE"/><path d="M352.79 258.143c2.915-.92 6.157 1.102 7.086 3.908 1.785 4.8.8 10.4-2.2 14.49-2.445 3.4-6.462 5.61-10.618 5.98-.513-.47-1.065-.91-1.49-1.46-.36-1.16.083-2.36.344-3.49 1.492-5.47 2.752-11 4.183-16.48.322-1.36 1.326-2.55 2.694-2.933z" fill="#FEFFFE"/><path d="M218.407 331.937c13.063.217 26.13-.024 39.197.132-5.688 7.02-11.438 13.99-17.215 20.93-8.28-5.96-15.55-13.2-21.99-21.07z" fill="#FEFFFE"/><path d="M264.186 332.616c.53-.827 1.583-.672 2.43-.718 32.93.054 65.863-.027 98.797.043-4.374 12.03-10.528 23.73-19.824 32.71-3.69 3.69-8.07 6.59-12.63 9.08-2.1 1.06-4.01 2.79-6.47 2.86-28.47 2.96-58.13-4.04-81.69-20.42 6.55-7.77 12.92-15.69 19.37-23.54z" fill="#FEFFFE"/><path d="M371.217 331.93c12.702-.017 25.407-.044 38.108.01-7.18 8.128-15.15 15.588-23.93 21.976-8.424 6.17-17.66 11.21-27.39 15.013-4.714 1.88-9.57 3.42-14.53 4.52 9.112-6.55 15.85-15.87 20.985-25.72 2.64-5.09 4.833-10.41 6.757-15.81z" fill="#FEFFFE"/></g></svg>