<svg width="512" height="512" viewBox="0 0 512 512" xmlns="http://www.w3.org/2000/svg"><title>memphis-grizzlies</title><g fill="none" fill-rule="evenodd"><path d="M173.27 318.567v51.462c2.902 0 32.963-.04 32.963-.04v-6.348l-26.53.062v-46.99h26.53v-6.66l-36.098.054 3.134 8.46zm74.634 0s-3.9-.027-8.775-.032V370.2h5.502v-45.764l1.972-.048c1.15 0 2.066 1.246 2.066 2.765l-.014 43.11h5.887v-43.535c0-5.616-3.067-8.16-6.64-8.16zm-27.352 51.694h5.572v-45.826h4.6V370.2h5.75v-51.666c-6.913-.034-14.62-.056-15.922-.062v51.79zm-69.556-67.618s-4.38 0-9.83-.028v67.23h6.217v-60.57l2.19-.047c1.244 0 2.272 1.355 2.272 3.03l-.04 57.635h6.87v-58.108c0-5.984-3.572-9.142-7.68-9.142zm31.35 36.134h17.33v-6.085h-11.69v-7.16h18.247v-6.168h-23.888v19.414zm66.474-28.44h-39.958l3.367 9.074v50.85h5.666v-54.44l30.008.08c4.997 0 9.308 3.722 9.308 10.827v43.534h5.34l-.055-47.212c-.002-8.01-6.79-12.712-13.677-12.712zm77.523 23.305h-7.078v-23.735l-5.49.014v28.31h18.688v-28.34h-6.12v23.75zm-138.358 14.19h11.69v-6.415h-17.33v19.635c2.136-.008 20-.048 23.888-.062v-5.676l-18.248-.02v-7.46zm-67.283 22.062h6.27v-60.617h5.09v60.57h6.45v-67.23c-7.75-.03-16.482-.042-17.81-.056v67.332zm31.308-76.175h-44.053l3.71 10.004v66.172h6.38v-69.987l32.95.097c5.434 0 10.334 4.062 10.334 11.782v58.108h5.805l-.055-62.156c0-8.823-7.473-14.02-15.07-14.02zm204.176 16.316v60.35h6.502l-.014-60.35h-6.488zm-9.16 9.84l.016 50.513h6.502v-60.352H343.4l3.627 9.84zm36.744 18.96c5.64 0 4.777 3.59 4.777 7.288v6.278c0 1.5-1.013 2.71-2.246 2.71h-.902c-1.233 0-2.245-1.21-2.245-2.71v-7.386h-6.805v6.532c0 3.994 0 10.03 9.173 10.03 9.556 0 9.91-7.172 9.925-7.44v-13.72c0-6.49-3.395-7.077-8.91-7.48-1.66-.13-3.356-.26-4.86-.663-6.504-1.798-7.297-6.31-7.6-8.008-.205-1.12-.137-10.044-.11-12.898-.013-.3-.26-4.445 2.615-7.577 2.013-2.21 4.997-3.316 8.872-3.316 4.135 0 7.323 1.21 9.5 3.605 2.67 2.927 2.943 6.73 2.943 8.18 0 .287-.014.444-.014.545v5.697h6.997v-9.677c0-9.178-7.407-15.305-17.085-15.305h-3.148c-9.527 0-18.14 5.006-18.14 15.537v14.088c.003 10.384 9.64 15.692 17.266 15.692zm-95.497-28.47H264.74l3.258 9v51.027h5.34v-54.675h14.044c5.01 0 10.102 3.543 10.102 9.916v6.47c0 6.36-5.093 9.69-10.102 9.69h-11.388v28.6h6.09v-23.736l7.543-.143c8.365 0 12.882-7.405 12.882-14.408l.162-8.876c0-8.358-7.43-12.864-14.4-12.864zm101.985 14.162l-2.97-.152c-2.712 0-4.27-1.155-4.27-3.98v-7.986c0-1.506.998-2.71 2.215-2.71h.905c1.23 0 2.244 1.204 2.244 2.71v6.093h6.914v-5.84c.014-.04.26-4.063-2.26-6.82-1.67-1.82-4.216-2.75-7.584-2.75-3.12 0-5.463.836-6.968 2.464-2.136 2.326-1.93 5.58-1.93 5.627v.11c-.028 5.512-.028 11.756.07 12.502.273 1.49.833 4.588 5.735 5.942 1.245.343 2.764.458 4.352.575 4.777.34 11.32.833 11.32 10.105v13.753c0 .102-.397 10.02-12.51 10.02-11.76 0-11.76-8.857-11.76-12.646v-6.53h-7.106v9.64c0 11.49 8.76 15.866 16.81 15.866h4.122c10.09 0 17.454-6.224 17.454-16.236v-14.975c0-10.892-7.336-14.782-14.784-14.782zm-85.298-5.293v51.53h6.2v-60.843l-9.527.013 3.327 9.3zm-10.13 12.87v-6.47c0-4.848-3.86-7.263-7.448-7.263h-11.388v20.775h11.388c3.587 0 7.448-2.2 7.448-7.043zm-12.745 1.573V323.43h3.752c1.89 0 3.408 1.847 3.408 4.118v2.017c0 2.305-1.492 4.11-3.408 4.11h-3.752zm53.032 37.084h5.586v-60.87h-5.586v60.87zm-21.34 0h5.488v-23.996h7.078v23.995h6.12v-29.89h-18.687v29.89z" id="Shape" fill="#23375B"/><path d="M217.896 370.26v-54.44l30.008.08c4.99 0 9.308 3.722 9.308 10.827v43.534h-2.668v-43.533c0-5.614-3.067-8.16-6.64-8.16 0 0-3.9-.027-8.773-.032V370.2h-2.655v-51.665c-6.913-.034-14.62-.055-15.92-.06v51.788h-2.66v-.002zm-11.663-50.898h-23.888v19.414h17.33v2.64h-17.33v19.634c2.136-.008 20-.048 23.888-.062v2.654l-26.53.062v-46.99h26.53v2.648zm-88.187 50.53v-69.987l32.95.097c5.435 0 10.335 4.062 10.335 11.782v58.108h-2.655v-58.108c0-5.984-3.574-9.142-7.68-9.142 0 0-4.382 0-9.83-.028v67.23h-2.656v-67.23c-7.75-.03-16.482-.04-17.81-.055v67.332h-2.654zm235.498-59.86h2.643v60.352h-2.643v-60.35zm-80.207 60.358v-54.675h14.045c5.01 0 10.102 3.543 10.102 9.916v6.47c0 6.36-5.093 9.69-10.102 9.69h-11.388v28.6h-2.657zm103.013-25.378v6.532c0 3.994 0 10.03 9.173 10.03 9.554 0 9.91-7.172 9.924-7.44v-13.72c0-6.49-3.395-7.077-8.912-7.48-1.657-.13-3.354-.26-4.86-.663-6.503-1.798-7.295-6.31-7.598-8.008-.205-1.12-.137-10.044-.11-12.898-.014-.3-.26-4.445 2.615-7.577 2.013-2.21 4.997-3.316 8.87-3.316 4.136 0 7.325 1.21 9.502 3.605 2.67 2.927 2.943 6.73 2.943 8.18 0 .287-.014.444-.014.545v5.697h-2.587v-5.84c.014-.04.26-4.063-2.26-6.82-1.67-1.82-4.216-2.75-7.584-2.75-3.12 0-5.463.836-6.968 2.464-2.136 2.327-1.93 5.582-1.93 5.628v.109c-.028 5.512-.028 11.756.07 12.502.273 1.49.833 4.587 5.735 5.94 1.245.344 2.764.46 4.352.576 4.777.34 11.32.833 11.32 10.106v13.753c0 .102-.397 10.018-12.51 10.018-11.76 0-11.76-8.856-11.76-12.644v-6.532h2.588v.004zm-81.52-12.91v-6.47c0-4.848-3.86-7.263-7.448-7.263h-11.388v20.775h11.388c3.587 0 7.448-2.2 7.448-7.043zm16.332 38.657v-60.843h2.614v28.312h18.687v-28.34h2.656v60.87h-2.657v-29.89h-18.687v29.89h-2.614z" id="Shape" fill="#6189B9"/><path d="M362.304 126.693c-.943-1.45-1.902-2.813-2.874-4.163 24.038-39.383-32.69-69.58-53.237-36.156-25.297-4.65-46.435 4.585-49.282 5.916-2.834-1.323-23.736-10.44-48.775-6.008-24.82-34.874-76.003 1.17-53.43 35.797-1.08 1.486-2.147 3.005-3.215 4.615-32.06 48.774-7.98 81.827-7.98 81.827l4.927-4.924s7.01 34.005 44.05 56.346l1.343-7.33c22.806 24.335 43.928 23.766 63.613 46.006 18.194-21.064 44.627-21.064 65.203-47.34v9.333c38.056-18.51 41.533-58.514 41.533-58.514l3.516 6.488c.002.002 26.695-33.12-5.392-81.895" id="Shape" fill="#23375B"/><path d="M281.634 161.243c1.793-.65 4.94 1.23 6.625 4.503 7.707-2.24 7.296-12.62 7.25-13.356-6.135 2.377-11.18 6.473-13.876 8.853" id="Shape" fill="#FDB827"/><path d="M257.21 211.445c2.123-.335 35.92-1.556 15.223 19.433 14.43-19.098-11.744-19.238-15.222-19.433m58.468-108.93s7.6-18.984 30.884-14.394c0 0-21.37-14.063-36.25 11.366 0 0-21.11-10.015-52.95 3.73 0 0-30.16-10.504-52.895-4.55 0 0-13.252-22.993-31.924-13.517-18.66 9.46-8.94 31.358-5.682 37.03 0 0-30.95 31.49-19.314 70.44l6.23-7.758s8.87 42.4 31.827 55.768l1.368-10.426s23.944 28.862 52.102 41.12c2.656 1.252 17.62 8.658 18.07 12.317v-20.197s-19.562 1.625-24.71-7.378c-3.504-6.127-25.94-46.147-14.853-88.068 0 0-10.802-1.604-12.84-19.818 0 0-8.065-3.913-18.07-3.103 0 0 17.904-5.6 34.7.87 16.77 6.5 21.26 23.017 32.637 15.714l3.355-46.54 3.202 46.54c11.377 7.304 15.867-9.215 32.636-15.714 16.797-6.47 34.69-.87 34.69-.87s-7.147-5.05-18.66-7.343c-9.623-1.925-23.752 4.25-23.752 4.25s1.958-13.208 8.378-20.26c5.506-6.046 17.96-7.38 21.822-19.207m-144.79 16.036c-.686-6.336 7.336-12.61 7.336-12.61-3.3-3.416-9.076-.454-9.076-.454 5.23-10.23 16.96-5.232 16.96-5.232-4.434-5.433-13.867-5.092-13.867-5.092 11.664-11.527 25.71 6.107 25.71 6.107-12.525 2.816-27.063 17.282-27.063 17.282m124.628 33.838c-.096.037-.177.072-.246.106.066-.034.15-.076.245-.106m-9.337 15c18.7 50.268-5.12 82.55-5.12 82.55 14.675-38.347 5.244-70.253-1.19-82.108-3.272.322-7.227.148-7.227.148s4.942-3.067 8.16-5.98c.246-.224.534-.482.863-.77 0 .007-.027.007-.027.014 1.793-.65 4.94 1.232 6.625 4.504 7.71-2.233 7.298-12.588 7.256-13.357 2.232-.874 4.64-1.504 7.105-1.756 0-.002-1.767 16.525-16.442 16.757" id="Shape" fill="#6189B9"/><path d="M219.91 152.367c-.043.762-.446 11.147 7.255 13.376 1.656-3.213 4.627-5.07 6.434-4.523-4.15-3.195-9.298-6.76-13.69-8.853" id="Shape" fill="#FDB827"/><path d="M257.143 258.617c-23.572 0-20.41-5.183-20.41-5.183 2.56-1.586 19.056-1.916 20.384-1.916 1.314 0 17.865.33 20.424 1.916 0 0 3.176 5.183-20.397 5.183m-37.222-106.24s-.02-.007-.02-.015c0 .008.02.014.02.014m37.223 84.44v9.553l-6.5.342c-6.832.2-15.744 2.975-15.744 2.975-16.538-40.922-7.366-71.893-2.957-82.94-16.4 3.558-19.048-16.11-19.048-16.11 1.703-.346 4.196.39 7.01 1.727-.034.77-.432 11.15 7.26 13.384 1.657-3.215 4.615-5.08 6.408-4.538 1.218.95 2.368 1.87 3.367 2.708 11.13 9.38 19.794 7.468 19.794 7.468s.123 35.677.123 40.06c0 0-32.25-2.52-14.936 19.42 0 0 2.794-8.02 5.75-5.488 4.093 3.52 9.473 10.682 9.473 11.437" id="Shape" fill="#BBD1E4"/><path d="M184.932 406.615l-.37 1.04c-.424 1.197-1.573 1.84-2.6 1.463l-2.08-.765 1.917-5.274 2.107.76c.998.36 1.464 1.613 1.025 2.775m2.71-9.062l-12.566-4.56.028 5.264-9.57 26.35 7.435 2.71 4.462-12.248 2.26.812c.656.238.916 1.1.614 1.936l-3.914 10.764 7.377 2.666 4.038-11.08c.63-1.735.424-3.35-.547-4.532 0 0 2.492-.43 3.82-4.11l1.753-4.555c1.572-4.32-1.48-8.068-5.19-9.417" id="Shape" fill="#6189B9"/><path d="M341.456 400.93l-2.6-7.46-18.576 6.483 3.108 3.83 9.31 26.71c1.478-.518 17.055-5.94 17.055-5.94l-2.656-7.395-9.404 3.263c-.26-.765-1.532-4.397-1.532-4.397l6.024-2.09-2.6-7.544-6.038 2.084-1.493-4.274 9.403-3.27z" id="Shape" fill="#6189B9"/><path d="M289.367 431.807l-2.436-25.273-9.923.942 2.477 5.042 2.63 27.443 19.452-1.806-.713-7.46-11.486 1.113z" id="Shape" fill="#6189B9"/><path d="M202.77 407.532l-.672-5.637 9.515 2.027-6.694 32.263-7.777-1.67 5.626-26.983z" id="Shape" fill="#6189B9"/><path d="M305.713 408.892l-2.9-4.877 9.54-1.98 6.912 32.195-7.762 1.627-5.79-26.965z" id="Shape" fill="#6189B9"/><path d="M240.537 407.772l-19.752-2.073-.876 9.15 5.528-1.382 3.19.33-11.28 24.624 19.755 1.963.683-7.455-8.515-.895 11.267-24.263z" id="Shape" fill="#6189B9"/><path d="M267.957 408.208l-19.876-.103.042 9.2 5.353-1.937h3.245L247.916 441h19.892l-.068-7.495-8.558-.028 8.775-25.27z" id="Shape" fill="#6189B9"/><path d="M365.987 404.26l1.56 2.348c.37.567.302 1.25-.15 1.566l-1 .657c-.466.3-1.135.11-1.506-.457l-1.833-2.77-6.16 4.09 2.382 3.61c2.847 4.295 7.213 3.76 10.226 1.764l2.176-1.45c3.807-2.503 4.983-6.646 2.505-10.38l-3.724-5.608c-2.696-4.063-6.406-3.707-9.185-1.86l-1.807 1.115c-1.01.67-1.888.62-2.573-.417l-1.985-2.995c-.384-.56-.3-1.258.152-1.572l1.013-.64c.45-.303 1.12-.11 1.492.443l1.518 2.276 6.174-4.083-2.438-3.604c-2.26-3.447-6.543-3.892-10.158-1.492l-1.82 1.22c-3.56 2.35-5.545 6.352-2.928 10.283l3.502 5.266c2.56 3.875 7.488 3.474 10.336 1.592 2.59-1.73 3.33-.28 4.23 1.1" id="Shape" fill="#6189B9"/><path d="M155.075 413.303c-2.668 3.966-7.406 4.172-10.636 2.004l-3.314-2.25c-3.232-2.154-4.806-6.62-2.15-10.593l10.815-16.16c2.67-3.973 7.42-4.2 10.637-2.038l3.327 2.222c3.23 2.154 4.846 6.62 2.19 10.606l-2.15 3.215-6.584-4.42 1.355-1.996c.493-.746.465-1.656-.067-2.01l-1.054-.707c-.534-.353-1.382-.027-1.89.72 0 0-.52.806-1.328 2.01-1.48 2.196-7.9 11.777-7.9 11.777-.492.75-.48 1.654.056 2.01l1.054.72c.52.348 1.382.033 1.89-.72l2.422-3.583-1.135-.77 3.053-4.57 7.734 5.156-6.325 9.377z" fill="#6189B9"/></g></svg>