<svg width="512" height="512" viewBox="0 0 512 512" xmlns="http://www.w3.org/2000/svg"><title>memphis-grizzlies</title><g fill="none" fill-rule="evenodd"><path d="M173.27 318.567v51.462c2.902 0 32.963-.04 32.963-.04v-6.35l-26.53.06v-46.99h26.53v-6.66l-36.098.05 3.134 8.46zm74.634 0s-3.9-.027-8.775-.032V370.2h5.5v-45.764l1.97-.048c1.15 0 2.06 1.246 2.06 2.765l-.015 43.11h5.887v-43.535c0-5.616-3.068-8.16-6.64-8.16zm-27.352 51.694h5.572v-45.82h4.6v45.76h5.75v-51.66c-6.913-.034-14.62-.056-15.922-.062v51.79zm-69.556-67.61s-4.38 0-9.83-.03v67.23h6.217v-60.57l2.19-.044c1.244 0 2.272 1.355 2.272 3.03l-.04 57.635h6.87v-58.11c0-5.984-3.572-9.142-7.68-9.142zm31.35 36.136h17.33V332.7h-11.69v-7.16h18.247v-6.17h-23.888v19.414zm66.474-28.44h-39.958l3.367 9.074v50.85h5.66v-54.44l30.01.08c4.992 0 9.31 3.722 9.31 10.827v43.536h5.34l-.06-47.21c0-8.01-6.79-12.713-13.678-12.713zm77.523 23.305h-7.078v-23.74l-5.49.014v28.31h18.688v-28.34h-6.12v23.75zm-138.358 14.19h11.69v-6.415h-17.33v19.633c2.136-.008 20-.048 23.888-.062v-5.673l-18.248-.02v-7.46zm-67.283 22.06h6.27v-60.62h5.09v60.57h6.45v-67.23c-7.75-.03-16.482-.042-17.81-.056v67.333zm31.308-76.175h-44.053l3.71 10.005v66.17h6.38v-69.99l32.95.093c5.434 0 10.334 4.062 10.334 11.782v58.108h5.81l-.05-62.156c0-8.826-7.472-14.02-15.07-14.02zm204.176 16.317v60.35h6.502l-.014-60.35h-6.488zm-9.16 9.84l.016 50.516h6.502V310.04H343.4l3.627 9.84zm36.744 18.96c5.64 0 4.777 3.59 4.777 7.29v6.28c0 1.5-1.013 2.71-2.246 2.71h-.9c-1.23 0-2.24-1.21-2.24-2.71v-7.385h-6.802v6.53c0 3.996 0 10.03 9.173 10.03 9.556 0 9.91-7.17 9.925-7.44v-13.72c0-6.49-3.394-7.075-8.91-7.48-1.66-.13-3.355-.26-4.86-.66-6.503-1.8-7.296-6.31-7.6-8.01-.204-1.12-.136-10.044-.11-12.9-.012-.3-.26-4.444 2.616-7.576 2.013-2.21 4.997-3.315 8.87-3.315 4.137 0 7.325 1.21 9.5 3.605 2.67 2.926 2.945 6.73 2.945 8.18 0 .286-.013.443-.013.544v5.696h7v-9.678c0-9.18-7.406-15.306-17.084-15.306h-3.15c-9.526 0-18.14 5.006-18.14 15.537v14.09c.004 10.383 9.64 15.69 17.267 15.69zm-95.497-28.47H264.74l3.258 9v51.03h5.34v-54.68h14.044c5.01 0 10.102 3.543 10.102 9.916v6.47c0 6.36-5.093 9.69-10.102 9.69h-11.388v28.6h6.09V346.66l7.543-.144c8.365 0 12.882-7.405 12.882-14.408l.16-8.876c0-8.357-7.43-12.863-14.4-12.863zm101.985 14.16l-2.97-.15c-2.712 0-4.27-1.153-4.27-3.98v-7.984c0-1.507.998-2.71 2.215-2.71h.905c1.23 0 2.244 1.203 2.244 2.71v6.09h6.914v-5.84c.014-.04.26-4.06-2.26-6.82-1.67-1.82-4.216-2.75-7.584-2.75-3.12 0-5.463.838-6.968 2.466-2.136 2.326-1.93 5.58-1.93 5.627v.11c-.028 5.51-.028 11.756.07 12.5.273 1.49.833 4.59 5.735 5.94 1.24.345 2.76.46 4.35.577 4.77.34 11.32.835 11.32 10.107v13.755c0 .1-.4 10.02-12.51 10.02-11.76 0-11.76-8.86-11.76-12.648v-6.53h-7.11v9.64c0 11.49 8.76 15.867 16.81 15.867h4.12c10.09 0 17.452-6.226 17.452-16.238v-14.98c0-10.893-7.336-14.783-14.784-14.783zm-85.298-5.29v51.53h6.2v-60.85l-9.527.016 3.327 9.3zm-10.13 12.87v-6.47c0-4.85-3.86-7.262-7.448-7.262h-11.388v20.777h11.388c3.587 0 7.448-2.2 7.448-7.043zm-12.745 1.574v-10.25h3.752c1.89 0 3.408 1.848 3.408 4.12v2.016c0 2.304-1.492 4.11-3.408 4.11h-3.752zm53.032 37.084h5.586V309.9h-5.586v60.87zm-21.34 0h5.488v-24h7.078v23.994h6.12v-29.89h-18.687v29.89z" id="Shape" fill="#23375B"/><path d="M217.896 370.26v-54.44l30.008.08c4.99 0 9.308 3.722 9.308 10.827v43.534h-2.668v-43.53c0-5.61-3.067-8.16-6.64-8.16 0 0-3.9-.02-8.773-.03v51.66h-2.65v-51.66c-6.91-.03-14.62-.052-15.92-.06v51.79h-2.66zm-11.663-50.898h-23.888v19.414h17.33v2.64h-17.33v19.634c2.136-.008 20-.048 23.888-.062v2.654l-26.53.062v-46.99h26.53v2.648zm-88.187 50.53v-69.987l32.95.097c5.435 0 10.335 4.062 10.335 11.782v58.108h-2.65v-58.108c0-5.984-3.57-9.142-7.68-9.142 0 0-4.38 0-9.83-.028v67.23h-2.65v-67.23c-7.75-.03-16.48-.04-17.81-.055v67.33h-2.654zm235.498-59.86h2.643v60.352h-2.643v-60.35zm-80.207 60.358v-54.675h14.045c5.01 0 10.102 3.543 10.102 9.916v6.47c0 6.36-5.093 9.69-10.102 9.69h-11.388v28.6h-2.657zm103.013-25.378v6.532c0 3.994 0 10.03 9.173 10.03 9.554 0 9.91-7.172 9.924-7.44v-13.72c0-6.49-3.395-7.077-8.912-7.48-1.657-.13-3.354-.26-4.86-.663-6.503-1.79-7.295-6.31-7.598-8-.205-1.12-.137-10.042-.11-12.9-.014-.3-.26-4.442 2.615-7.574 2.013-2.21 4.997-3.316 8.87-3.316 4.136 0 7.325 1.21 9.502 3.604 2.67 2.928 2.943 6.73 2.943 8.18 0 .288-.014.445-.014.546v5.696h-2.587v-5.84c.014-.04.26-4.063-2.26-6.82-1.67-1.82-4.216-2.75-7.584-2.75-3.12 0-5.463.836-6.968 2.464-2.136 2.326-1.93 5.58-1.93 5.627v.11c-.028 5.514-.028 11.758.07 12.504.273 1.49.833 4.59 5.735 5.94 1.24.347 2.76.46 4.35.58 4.77.34 11.32.83 11.32 10.104v13.753c0 .102-.4 10.018-12.51 10.018-11.76 0-11.76-8.855-11.76-12.643v-6.53h2.59v.004zm-81.52-12.91v-6.47c0-4.848-3.86-7.263-7.448-7.263h-11.388v20.77h11.388c3.587 0 7.448-2.2 7.448-7.048zm16.332 38.657v-60.85h2.614v28.31h18.687v-28.34h2.656v60.87h-2.66v-29.89h-18.69v29.89h-2.62z" id="Shape" fill="#6189B9"/><path d="M362.304 126.693c-.943-1.45-1.902-2.813-2.874-4.163 24.038-39.383-32.69-69.58-53.237-36.156-25.297-4.65-46.435 4.585-49.282 5.916-2.83-1.323-23.73-10.44-48.77-6.008-24.82-34.874-76 1.17-53.43 35.797-1.08 1.48-2.142 3-3.21 4.61-32.06 48.77-7.98 81.822-7.98 81.822l4.928-4.924s7.01 34.005 44.05 56.346l1.344-7.33c22.807 24.334 43.93 23.765 63.614 46.005 18.195-21.066 44.628-21.066 65.204-47.34v9.33c38.057-18.51 41.534-58.513 41.534-58.513l3.518 6.486c0 .003 26.694-33.12-5.393-81.894" id="Shape" fill="#23375B"/><path d="M281.634 161.243c1.793-.65 4.94 1.23 6.625 4.503 7.7-2.24 7.29-12.62 7.25-13.356-6.14 2.377-11.18 6.473-13.88 8.853" id="Shape" fill="#FDB827"/><path d="M257.21 211.445c2.123-.335 35.92-1.556 15.223 19.433 14.43-19.098-11.744-19.238-15.222-19.433m58.47-108.93s7.6-18.984 30.89-14.394c0 0-21.37-14.06-36.25 11.37 0 0-21.11-10.01-52.95 3.73 0 0-30.16-10.5-52.893-4.55 0 0-13.252-22.99-31.924-13.51-18.66 9.46-8.94 31.36-5.682 37.03 0 0-30.95 31.49-19.313 70.44l6.23-7.758s8.87 42.4 31.825 55.768l1.368-10.425s23.944 28.86 52.102 41.12c2.655 1.25 17.62 8.658 18.07 12.317v-20.2s-19.563 1.623-24.71-7.38c-3.505-6.127-25.94-46.147-14.854-88.068 0 0-10.802-1.604-12.84-19.818 0 0-8.065-3.913-18.07-3.103 0 0 17.904-5.6 34.7.87 16.77 6.5 21.26 23.018 32.637 15.715l3.353-46.54 3.202 46.54c11.377 7.305 15.867-9.214 32.636-15.713 16.8-6.47 34.69-.87 34.69-.87s-7.145-5.05-18.66-7.342c-9.62-1.93-23.75 4.25-23.75 4.25s1.958-13.21 8.378-20.26c5.508-6.05 17.96-7.38 21.824-19.21m-144.79 16.034c-.688-6.336 7.334-12.61 7.334-12.61-3.3-3.416-9.076-.454-9.076-.454 5.23-10.23 16.96-5.232 16.96-5.232-4.434-5.433-13.867-5.092-13.867-5.092 11.663-11.527 25.71 6.107 25.71 6.107-12.526 2.816-27.064 17.282-27.064 17.282M295.52 152.39c-.096.037-.177.072-.246.106.068-.032.15-.074.247-.104m-9.334 15c18.7 50.268-5.12 82.55-5.12 82.55 14.674-38.347 5.243-70.253-1.19-82.108-3.273.322-7.228.148-7.228.148s4.94-3.067 8.16-5.98c.244-.224.532-.482.86-.77 0 .007-.026.007-.026.014 1.79-.65 4.94 1.23 6.623 4.503 7.71-2.23 7.3-12.59 7.256-13.358 2.23-.874 4.64-1.504 7.104-1.756 0-.004-1.767 16.523-16.44 16.755" id="Shape" fill="#6189B9"/><path d="M219.91 152.367c-.043.762-.446 11.147 7.255 13.376 1.656-3.213 4.627-5.07 6.434-4.523-4.15-3.195-9.3-6.76-13.69-8.853" fill="#FDB827"/><path d="M257.143 258.617c-23.572 0-20.41-5.183-20.41-5.183 2.56-1.586 19.056-1.916 20.384-1.916 1.314 0 17.865.33 20.424 1.916 0 0 3.18 5.183-20.39 5.183m-37.22-106.24s-.02-.007-.02-.015c0 .008.02.014.02.014m37.224 84.44v9.553l-6.5.34c-6.832.2-15.744 2.97-15.744 2.97-16.538-40.92-7.366-71.896-2.957-82.94-16.4 3.56-19.05-16.11-19.05-16.11 1.702-.35 4.195.39 7.01 1.724-.035.77-.433 11.15 7.26 13.384 1.656-3.215 4.614-5.08 6.407-4.538 1.217.95 2.367 1.87 3.366 2.707 11.13 9.38 19.795 7.47 19.795 7.47s.12 35.676.12 40.06c0 0-32.25-2.52-14.933 19.42 0 0 2.794-8.02 5.75-5.49 4.093 3.52 9.473 10.683 9.473 11.438" fill="#BBD1E4"/><path d="M184.932 406.615l-.37 1.04c-.424 1.197-1.573 1.84-2.6 1.463l-2.08-.765 1.917-5.274 2.1.76c1 .36 1.46 1.61 1.022 2.77m2.71-9.06l-12.566-4.56.03 5.26-9.57 26.35 7.433 2.71 4.462-12.25 2.26.812c.655.236.915 1.1.613 1.934l-3.916 10.764 7.375 2.666 4.04-11.08c.63-1.735.423-3.35-.548-4.53 0 0 2.492-.43 3.82-4.11l1.753-4.556c1.576-4.32-1.48-8.07-5.19-9.417" fill="#6189B9"/><path d="M341.456 400.93l-2.6-7.46-18.576 6.483 3.108 3.83 9.31 26.71c1.478-.518 17.055-5.94 17.055-5.94l-2.656-7.395-9.404 3.263c-.26-.76-1.532-4.39-1.532-4.39l6.03-2.09-2.6-7.54-6.04 2.084-1.49-4.274 9.405-3.27z" fill="#6189B9"/><path d="M289.367 431.807l-2.436-25.273-9.92.942 2.48 5.042 2.63 27.443 19.45-1.8-.71-7.46-11.484 1.117z" fill="#6189B9"/><path d="M202.77 407.532l-.672-5.637 9.515 2.027-6.694 32.263-7.78-1.67 5.62-26.983z" fill="#6189B9"/><path d="M305.713 408.892l-2.9-4.877 9.54-1.98 6.912 32.195-7.762 1.627-5.79-26.965z" fill="#6189B9"/><path d="M240.537 407.772l-19.752-2.073-.876 9.15 5.52-1.39 3.19.33-11.28 24.622 19.753 1.963.683-7.455-8.515-.896 11.266-24.264z" fill="#6189B9"/><path d="M267.957 408.208l-19.876-.103.05 9.2 5.355-1.937h3.245L247.917 441h19.89l-.07-7.495-8.56-.028 8.774-25.27z" fill="#6189B9"/><path d="M365.987 404.26l1.56 2.348c.37.567.302 1.25-.15 1.566l-1 .657c-.466.3-1.135.11-1.506-.45l-1.83-2.77-6.16 4.09 2.38 3.61c2.85 4.298 7.22 3.76 10.23 1.767l2.18-1.45c3.808-2.503 4.984-6.646 2.506-10.38l-3.724-5.61c-2.696-4.06-6.406-3.705-9.185-1.86l-1.807 1.117c-1.01.67-1.887.62-2.572-.417l-1.984-2.997c-.382-.56-.3-1.26.154-1.573l1.013-.64c.45-.3 1.12-.11 1.493.446l1.517 2.274 6.174-4.082-2.437-3.605c-2.26-3.448-6.543-3.893-10.158-1.493l-1.82 1.22c-3.56 2.35-5.548 6.354-2.93 10.285l3.5 5.267c2.56 3.873 7.49 3.472 10.337 1.59 2.59-1.73 3.33-.28 4.23 1.1" fill="#6189B9"/><path d="M155.075 413.303c-2.668 3.966-7.406 4.172-10.636 2.004l-3.32-2.25c-3.23-2.154-4.81-6.62-2.15-10.593l10.81-16.16c2.67-3.973 7.42-4.2 10.637-2.038l3.327 2.222c3.23 2.154 4.846 6.62 2.19 10.606l-2.15 3.215-6.584-4.42 1.355-2c.495-.75.467-1.66-.065-2.01l-1.054-.71c-.534-.356-1.38-.03-1.89.72 0 0-.52.803-1.328 2.01-1.48 2.193-7.9 11.774-7.9 11.774-.492.75-.48 1.654.056 2.01l1.053.72c.52.35 1.382.033 1.89-.72l2.422-3.583-1.137-.77 3.055-4.57 7.733 5.156-6.327 9.376z" fill="#6189B9"/></g></svg>