<svg width="512" height="512" viewBox="0 0 512 512" xmlns="http://www.w3.org/2000/svg"><title>miami-heat</title><g fill="none" fill-rule="evenodd"><path d="M395 153.073c-10.86-11.772-34.435-21.376-65.15-27.263 0-3.407 2.17-4.956 6.206-7.434 1.862-1.55 4.03-3.1 6.514-5.268 9.616-9.292-1.862-23.544-2.483-24.164l-6.204-7.745 1.55 9.91c.93 6.81-1.55 9.29-8.995 14.25-.93.93-1.55 1.55-2.483 2.17.313-4.34.623-9.61-.93-15.8-1.55-6.51-4.654-8.99-4.654-8.99l-.62 9.29c-.31 0-.92 7.125-10.54 15.8.93-.93 1.86-1.86 2.48-2.79 4.66-6.814 3.41-14.56 1.55-23.54l-.31-1.86c-1.55-9.297.93-15.18 2.48-16.11 1.86-1.86 4.97-5.267 4.97-5.267s-1.86-.62-6.51 0c-5.894.93-15.823 4.337-15.512 12.392 0 3.716 1.24 7.123 2.17 10.22 1.24 3.1 2.17 6.197 1.24 7.746-.62 1.24-2.792 2.17-6.513 2.788-13.96 2.48-24.817 9.3-30.093 18.59-1.86 3.1-3.1 6.2-3.72 9.916-34.747 0-67.942 4.335-93.38 12.39-28.542 8.675-44.363 20.757-45.604 34.7-.93 7.433 2.48 17.965 21.093 28.19h-.312l5.28 2.48 2.79 1.547c8.378 3.72 18.306 6.816 29.474 9.604-4.03 2.17-7.445 4.65-10.86 7.746-17.68 14.56-27.92 36.244-27.92 59.48 0 20.445 7.757 39.654 22.34 54.215 14.58 14.56 34.123 22.615 54.598 22.615 36.298 0 67.94-25.714 75.388-61.34 6.204-18.588 5.583-38.414 5.273-46.16-.62-17.04 7.756-26.33 13.03-30.67 24.51-3.1 45.91-8.365 62.046-15.49l2.48-1.24 5.59-2.79c12.716-7.12 20.16-15.797 20.78-24.78.62-5.885-1.55-11.77-6.51-17.348zm-25.13 15.18c2.172 2.168 2.172 3.716 2.172 4.336-.31 2.79-3.724 6.19-9.618 9.29-12.408 6.19-33.504 11.15-58.323 13.63.94-.62 2.18-1.24 3.42-1.86h.62c7.14-3.1 15.21-6.2 15.52-18.28.31-1.86.31-7.44 1.24-9.61 1.55-2.788 4.965-6.817 7.756-8.056.31 0-4.963-.93-4.963-.93h-.62c1.55-1.24 2.793-2.788 3.72-4.34 20.17 4.34 34.128 9.915 39.09 15.803zm-219.953 2.787c.93-9.914 36.298-22.615 93.69-24.783-5.274 4.03-11.79 10.843-13.34 21.996l-.62 4.336c-.312 2.79-.622 5.26-1.862 8.05-2.172 5.58-8.377 10.53-14.89 13.94-22.958-2.79-42.503-7.75-53.67-13.63-6.204-3.41-9.62-7.13-9.308-9.92z" fill="#061922"/><path d="M327.058 125.5c.62-6.814 7.138-8.363 13.34-14.25 8.376-7.746-2.17-20.447-2.17-20.447 1.24 8.675-2.796 11.772-10.24 17.04-2.17 1.548-4.033 3.717-4.033 6.504-.308 3.41-.618 6.817-1.24 10.224 1.553.31 3.104.62 4.343.93z" fill="#F9A01B"/><path d="M304.72 113.418c-1.858 1.55-3.72 3.097-5.272 4.34l-3.724 3.715c7.138.62 14.27 1.24 20.788 2.17 4.342-7.747 6.512-16.42 3.72-31.6 0 0-.62 10.222-15.51 21.375z" fill="#F9A01B"/><path d="M265.01 119.925c8.07 0 16.136.31 23.89.93.312-.31.622-.62.93-.93 4.965-5.578 13.342-10.224 17.374-16.42 4.342-6.505 2.79-14.25 1.24-23.545-2.792-16.11 4.036-18.896 4.036-18.896s-13.653 1.858-13.342 9.604c.31 10.53 11.167 20.444-5.274 23.544-17.994 3.098-29.163 13.01-31.644 25.713h2.79z" fill="#F9A01B"/><path d="M189.937 405.557l9.618-40.273h-16.133l-9.928 40.273h16.443z" fill="#1C2524"/><path d="M225.303 375.196l.93 16.422h-8.376l8.687 13.94h14.58l-2.17-40.274h-24.51l-19.854 40.273h15.51l15.203-30.36z" fill="#1C2524"/><path d="M187.766 442.423l-3.414 13.63h15.203l9.927-39.962H194.28l-3.722 15.49h-11.48l3.723-15.49h-15.2l-9.92 39.97h15.2l3.42-13.63h11.48z" fill="#1C2524"/><path d="M224.063 447.07l1.24-5.577h18.615l2.48-8.675h-18.924l1.24-5.888h18.926l3.102-10.84h-34.436l-9.928 39.964h34.126l2.483-8.985h-18.924z" fill="#1C2524"/><path d="M322.093 405.557l9.928-40.273h-16.44l-9.92 40.273h16.44z" fill="#1C2524"/><path d="M349.085 396.262c2.172 3.1 4.342 8.985-5.586 13.63-11.79 5.267 0 18.59-15.82 18.59h-6.83l-6.52 27.572H298.2l6.515-27.572H293.86l3.413-12.39h28.233c16.75 0 4.96-11.773 13.34-13.324 5.89-.93 9.614-2.17 10.235-6.506z" fill="#1C2524"/><path d="M145.574 386.04l-2.79-20.756h-19.857L113 405.557h14.89l5.275-21.066h.31l2.792 21.07h8.687l12.1-21.06h.31l-4.964 21.06h13.96l9.928-40.27h-19.235l-11.48 20.758z" fill="#1C2524"/><path d="M278.04 386.04l-2.79-20.756h-19.854l-9.927 40.273h14.89l5.27-21.066h.31l2.79 21.07h8.68l12.1-21.06h.31l-4.967 21.07h13.96l9.926-40.27h-19.23l-11.48 20.752z" fill="#1C2524"/><path d="M275.56 425.696l.93 16.417h-8.374l8.374 13.94h14.892l-2.17-39.962h-24.51s-20.164 39.97-19.854 39.97h15.51l15.2-30.36z" fill="#1C2524"/><path d="M142.783 281.33c2.17 10.22 7.754 22.305 19.232 30.358 3.725 2.48 7.447 4.338 11.48 5.885-2.482-4.026-5.274-8.365-8.375-12.7-5.586-8.056-11.17-16.73-14.893-25.713-3.722-9.295-4.653-18.898-3.102-28.812-2.79 8.056-4.652 16.42-4.652 25.713 0 1.55.31 3.41.31 5.27z" fill="#98002E"/><path d="M155.192 277.303c3.412 8.362 8.997 16.727 14.27 24.473 4.344 6.195 8.377 12.08 11.168 17.967 3.412.93 7.136 1.55 10.548 1.55-3.722-5.267-6.826-11.155-9.617-17.968-10.54-26.644-8.99-59.48 4.04-78.38 6.83-9.913 15.2-16.418 25.75-22.305 9-4.956 14.58-6.197 20.47-9.604 6.21-4.027 9.62-10.224 5.59-24.164-1.24-4.027-1.55-7.436-1.24-9.914-1.55 2.788-2.48 6.197-3.1 9.914-.62 3.717-.93 8.055-2.48 12.7-5.584 14.56-32.573 22.617-35.987 23.546-10.237 3.1-18.3 7.746-24.817 13.32-18.302 16.42-21.716 40.895-14.58 58.865z" fill="#98002E"/><path d="M267.185 145.947c.308.93.62 1.86.62 2.788.932 4.958-.62 9.294-6.826 10.223-6.52.93-8.69-4.646-9.31-8.984 0-1.86.31-3.098.31-4.027-.93 0-2.17.31-3.1.31-2.18.93-4.97 2.787-7.45 5.577-1.24 2.788-2.79 6.505-.31 15.49 4.03 15.488 2.17 25.092-10.24 30.36-16.13 7.124-26.37 11.15-40.33 28.5-6.52 8.056-10.24 21.686-10.55 35.627-.62 13.32 2.17 27.58 6.82 39.35 3.1 7.74 6.823 14.56 11.17 20.45 4.34-.31 8.683-.93 13.03-1.86-4.968-5.57-7.76-12.39-8.07-20.13-1.55-25.41 12.1-35.94 33.195-52.98l9.31-8.05c37.845-31.91 26.68-64.44 31.02-92.32-3.1 0-6.204 0-9.305-.31z" fill="#98002E"/><path d="M282.384 146.566c-1.238 5.578-1.55 11.463-1.86 17.35-1.55 24.164-.93 51.735-31.643 78.996l-9.3 7.436c-20.47 16.42-32.26 26.643-31.33 48.948.31 7.436 3.418 13.94 8.69 18.897 5.586-1.547 11.17-4.026 16.754-7.123 26.68-15.183 43.43-37.796 49.947-66.916 4.033-18.28 4.033-33.15 3.72-45.23 0-5.888.933-17.97.933-17.97.93-7.434 2.172-17.967 10.86-31.6.31-.62.31-.93.615-1.548-5.27-.31-11.167-.93-17.374-1.24z" fill="#98002E"/><path d="M291.382 224.326c-.93 4.646-.93 9.294-1.552 14.25-.308 1.858-.618 3.72-.618 5.268-.313.62-.313 1.24-.313 1.55-6.83 30.667-24.2 54.215-52.43 70.322-4.66 2.787-9.62 4.956-14.58 6.503 8.37 5.57 17.99 7.12 24.5 6.19 25.13-3.72 37.53-20.14 43.43-37.8 5.89-17.97 5.27-37.178 4.96-44.92-.93-26.64 19.544-36.556 19.544-36.556-15.823-.93-21.096 6.194-22.958 15.18z" fill="#98002E"/><path d="M274.628 322.53c-10.237 8.674-21.405 10.534-26.368 11.153-9.927 1.55-21.716-.62-32.264-8.982l-.31-.31c-4.653 1.24-8.997 1.86-13.34 2.17 10.238 11.16 23.578 17.04 41.572 18.28 12.41-4.64 22.957-12.7 31.02-22.61l-.31.31z" fill="#98002E"/><path d="M180.94 340.81c0-5.577-1.55-11.153-4.032-16.73-6.206-1.55-12.1-4.337-17.994-7.744-3.412-2.17-6.204-5.266-8.687-8.055 6.516 13.94 17.374 25.1 30.713 32.53z" fill="#98002E"/><path d="M232.13 348.554c-9.928-2.477-18.615-5.886-26.062-11.772-3.722-2.79-7.444-6.195-10.548-9.914-4.032 0-8.064-.31-12.098-1.237 2.173 5.89 3.41 11.78 2.48 17.66 9.618 4.34 19.856 6.82 31.024 6.82 5.276 0 10.548-.62 15.51-1.55h-.307z" fill="#98002E"/><path d="M318.682 166.394c-1.86 5.575-7.446 4.956-9.308 1.86-2.48-4.96-1.55-8.676 1.24-11.464 2.794-2.478 7.137-4.026 11.48-5.887-4.964-.93-10.235-1.55-15.82-2.168h-.31c-.622.62-.932 1.24-1.553 1.858-8.99 13.323-9.92 23.544-10.85 30.98l-.31 2.478c-.62 4.03-.62 8.99-.31 14.88v2.48c-.31 2.17-.31 4.03-.31 6.2 0-.93.31-1.24.31-.62 2.48-8.05 7.14-13.01 13.65-15.8 7.14-2.784 13.96-5.574 14.27-15.8.31-4.34.62-8.67 1.55-10.84 1.87-4.03 4.97-4.96 4.97-4.96-3.41-.31-7.133 1.24-8.684 6.818z" fill="#98002E"/><path d="M124.478 167.323c-.93 9.914 8.067 19.206 23.888 26.642 9.617 4.648 22.026 8.675 36.3 11.772 3.1-1.24 5.892-2.168 8.993-3.097 2.48-.93 7.13-2.478 12.4-4.646-21.1-3.1-38.16-7.746-48.71-13.323-7.758-4.33-12.1-8.98-11.48-13.94 1.24-16.72 53.98-29.43 117.576-28.81 63.596.62 114.163 14.56 112.612 30.98-.31 4.65-4.654 8.99-11.79 12.7-13.34 6.82-36.607 12.4-65.15 14.88-.93 1.24-1.86 2.79-2.79 4.34 13.03-4.954 27.922 2.48 27.922 2.48s1.24.313 1.86.93c18.923-3.407 35.056-8.363 47.156-13.94 14.58-7.124 23.266-15.18 24.197-24.164 2.17-24.782-57.395-45.23-132.47-46.16-75.385-.62-138.36 18.9-140.534 43.373z" fill="#FFF"/></g></svg>