<svg width="512" height="512" viewBox="0 0 512 512" xmlns="http://www.w3.org/2000/svg"><title>minnesota-timberwolves</title><g fill="none" fill-rule="evenodd"><path d="M311.424 319.03c0 2.85 2.043 5.52 4.535 5.52 2.49 0 4.53-2.67 4.53-5.52 0-2.86-2.04-5.537-4.54-5.537-2.498 0-4.54 2.677-4.54 5.537" id="Shape" fill="#061922"/><path d="M182.17 355.975c-.132-3.35-1.21-4.362-2.774-4.712v9.66c.58-.185 1.144-.46 1.592-.884.86-.82 1.26-2.19 1.183-4.07" id="Shape" fill="#061922"/><path d="M190.823 367.85c2.31 1.927 4.085 4.368 5.137 6.7l-.076-15.857c-.887 3.97-3.05 7.085-5.06 9.157" id="Shape" fill="#061922"/><path d="M226.865 344.12l-1.08 7.76-.727 5.222-3.968-3.458-3.89-3.39-6.01-.06c.036 3 .104 7.873.143 10.828h15.157l-1.904 4.064-4.217 9.03-1.1 2.345-2.44-.86-5.5-1.93-.15 14.42 4.77-.073 7.84-5.33 4.46-3.025v14.913l.87-1.922-.31-44.376-1.957-4.142z" id="Shape" fill="#061922"/><path d="M318.112 353.273c-.03 0-.29.085-.69.556-1.732 1.98-3.617 7.77-3.617 15.81 0 10.85 3.2 16.53 4.307 16.53.508 0 1.017-.49 1.286-.78 1.455-1.67 3.02-8.4 3.02-15.76 0-8.048-1.864-13.84-3.598-15.8-.41-.48-.67-.57-.708-.57" id="Shape" fill="#061922"/><path d="M244.316 393.018l2.083 4.304.84 1.747.58-1.54 1.43-3.69-5.15-10.43.202 9.6z" id="Shape" fill="#061922"/><path d="M244.665 350.877c-.076 2.67-.2 7.09-.276 10.108 1.85-1.002 2.87-3.16 3.03-6.495.03-.754-.33-2.17-1.25-2.96-.2-.167-.62-.527-1.51-.653" id="Shape" fill="#061922"/><path d="M180.793 376.032c-.46-.35-1.024-.594-1.606-.77v12.57c.657-.14 1.275-.37 1.694-.725 1.09-.924 2.33-2.404 2.47-5.76.09-2.384-1.33-4.357-2.55-5.315" id="Shape" fill="#061922"/><path d="M121.126 345.157l-2.677-3.4-1.57-1.98-.86 1.57-2.1 3.876v45.305l.18.564 7.01-45.935z" id="Shape" fill="#061922"/><path d="M454.99 390.12c-.726 2.88-2.918 11.62-13.593 14.247-10.114 2.49-17.44-3.786-19.61-5.95v2.99h-35.62l1.128-3.7 2.27-7.474-.198-40.722-14.202 53.3-.6 2.26h-4.332l-.588-2.29-14.81-57.41-2.66-3.19-1.646 3.09v42.77l.49-.01 7.86-5.347 4.45-3.025v21.76h-31.4l1.205-3.74 2.272-7.062c-.01-.95-.01-3.432-.03-6.72-1.147 4.954-3.04 9.06-5.69 12.08-3.21 3.62-7.286 5.54-11.823 5.54-4.54 0-8.616-1.92-11.806-5.53-4.386-5-6.757-12.898-6.927-22.866l-5.88 29.523-.472 2.447h-4.28l-.717-2.054-5.69-16.196-5.71 16.196-.7 2.05h-4.26l-.506-2.42-9.88-48.165c0 1.61-.113 3.38-.407 5.31-.802 5.243-3.795 8.873-5.826 10.815l12.784 26.727 1.96 4.09h-44.39l.01-.02h-32.52l1.12-3.696 2.285-7.478-.01-1.22c-.916 2.67-2.284 5.1-4.105 7-5.9 6.158-15.262 5.778-21.46 5.53-1.052-.04-2.03-.09-2.853-.09h-2.774v-.03H149.7l-.26-2.57-1.812-18.033-5.85 21.99-.613 2.26h-4.32l-.596-2.294-5.438-21.086-1.72 17.16-.26 2.57h-21.81l.017-.02H95.35l1.21-3.735 2.27-7.06-.217-45.39-.434-.8-.14 1.187-.69 5.13-3.96-3.31-5.54-4.602-.44 49.77 2.77 8.6 1.21 3.74H68.48l1.204-3.73 2.73-8.533-.214-50.26-.146.006-6.03 5.01-3.967 3.31-.683-5.13-1.762-13.214-.42-3.24h41.02l-.427 3.24-.63 4.74h37.07l.407 2.37 2.712 15.63 2.767-15.638.42-2.363h15.82l-.01-.02 4.45-.13 1.7-.05c3.528-.11 9.42-.293 13.096-.134 3.74.15 15.67 1.705 18.28 14.286l-.03-3.286-2.78-6.7-1.654-3.96h36.446l-.014.084h16.26c3.965 0 7.6.92 10.145 2.485l-2.135-2.376H274l.348 2.47 2.66 18.97 2.325-9.12 2.49-9.82 2.99 9.67 2.84 9.17 1.993-18.78.28-2.56h21.545l-4.09 4.733-2.66 3.07-.55 2.764c1.12-2.237 2.39-4.207 3.79-5.815 2.93-3.32 6.36-5.07 9.92-5.07 8 0 14.65 8.84 17.4 21.67-.02-5.894-.03-10.25-.03-10.273l-.04-2.95-2.91-3.69-3.65-4.637h40.98l.39 2.39 2.71 16.44 2.76-16.45.4-2.38h45.48l-.46 3.25v.05c2.16-5.783 6.32-9.656 12.01-11.045 11.88-2.935 19.95 6.244 20.29 6.643l1.23 1.43-.83 1.7-6.31 12.777-3.19 6.473-2.11-6.913-2.27-7.473c-.39-.37-1.176-.958-2.164-.98-1.566-.04-2.33.48-2.78 1.847-.687 2.17-.17 5.388.52 6.74 1.254 2.498 3.685 4.788 6.517 7.45 3.295 3.11 7.033 6.62 9.984 11.51 2.66 4.38 5.418 10.566 3.185 19.515zM83.215 301.303l18.41-31.603-6.185-1.39 20.634-38.025 12.38 38.618-6.403.852 10.26 31.604-21.42-.03-6.44 18.82H79.81l10.55-18.84-7.145-.01zm55.377 7.942h.037l5 11.44 5.15-11.44h.03l4.22 19.234h-3.96l-1.36-8.66h-.05l-4.158 8.98h-.054l-3.79-8.97h-.043l-1.365 8.64h-4.03l4.355-19.24zm15.93-74.867l9.427 29.394-4.88.65 8.44 24.096h-6.5l2.74 12.718h-5.6l-15.623-26.348s.905-.118 2.067-.4c1.1-.268 2.444-.694 3.48-1.312l-4.67-8.61.105-.185-.24-.06-2.5-4.61 13.74-25.33zm18.293 93.98h-3.935v-18.894h3.935v18.893zm17.42-19.114h.05l10.378 10.46v-10.238h3.935v19.338h-.044l-10.38-10.674v10.23h-3.937v-19.116h-.002zM174.67 268.33s.69-.08 1.573-.3c.842-.204 1.862-.53 2.652-1.008l-4.115-7.592 10.835-19.967 7.738 24.127-4.004.534 6.93 19.773h-5.33l3.73 17.345h-7.88l-4.66-8.82c.025-.006.103-.016.22-.04.88-.145 4.22-.744 5.63-1.587l-13.33-22.466zm-5.417-41.996s4.208-21.93 20.97-34.973c0 0 3.087-1.31-14.962-1.65 0 0 7.77-10.27 20.53-16.05 0 0-8.01-1.4-15.01-.65 0 0 5.65-10.89 25.18-13.89l1.56-.25c-1.26-2.237-4.39-1.313-5.63-3.49-.675-1.19 17.18-5.492 16.517-6.66-.785-1.392-15.88-5.11-16.666-6.47-.443-.787 5.443-3.274 4.998-4.063-.41-.714-3.702-2.502-6.68-4.53-2.95-2.005-5.582-4.25-5.864-4.176-2.58.634.81 25.784.95 27.13.017.14-2.582.67-2.582.67-1.425-1.42-13.03-36.306-10.48-42.45.37-.9 1.905-.414 7.5 3.87 23.555 18.013 44.03 22.5 44.03 22.5.595-4.74 0-11.256 0-11.256 9.17 3.56 14.488 13.63 14.488 13.63l.307-.886c1.38-4.177 1.77-10.074 1.77-10.074 4.433 2.664 8.725 9.83 8.725 9.83s1.437 14.443-2.25 22.13c-2.095 4.373-9.07 7.114-15.34 6.754 0 0 1.692 2.266 4.3 4.154 1.577 1.15 4.59 2.31 4.59 2.31s-5.514 3.993-18.095 1.23c-1.13.12 6.24 7.372 16.884 11.91 5.1 2.18 7.6 10.48.964 10.54 0 0 5.442 6.223 5.943 10.745l.842 4.51c-2.025-2.857-4.99-3.797-7.36-4.05-.56-.06-1.085-.09-1.56-.09h-.18c-.466.004-.88.03-1.207.064-.005.006-.02.006-.02.006-.27.024-.51.084-.757.13-.157.04-.33.053-.474.094-.256.065-.48.15-.71.24-.11.04-.24.073-.34.12-.27.113-.507.244-.736.374-.042.024-.1.043-.145.08-1.324.79-1.94 1.732-1.957 1.75h.01c1.856-.28 2.947-.513 6.136.557 10.22 3.448 8.893 17.45 9.53 19.707.01-.04-2.63-1.9-6.244-1.9-.325 0-.635.05-.952.11-.356.054-.71.15-1.047.274-.04.013-.08.024-.117.04-.318.12-.624.273-.91.44-.065.034-.127.064-.18.11-.27.16-.51.337-.75.54l-.25.21c-.2.186-.395.376-.57.58-.11.12-.21.25-.305.38-.134.17-.265.345-.38.53-.126.2-.23.4-.328.608-.07.14-.147.27-.204.41-.13.3-.22.606-.297.92-.02.06-.04.112-.056.173-.08.386-.126.775-.126 1.16 0 1.608.51 2.96 1.17 4.065.617 1.03 1.37 1.84 1.947 2.426.74.734 1.47 1.56 1.48 1.976.02.274-.252.374-.99.19l-.006-.006h-.003c-4.48-1.12-9.56-5.95-9.9-13.52-.276-6.154 1.32-9.335 3.35-10.07.156-.05.327-.1.517-.14.015.006.04.02.057.02 3.57-.844 8.174 2.13 8.174 2.13l-.002-.01v.01s-.512-1.03-1.66-2.187c-1.152-1.165-2.935-2.47-5.48-3.033-1.112-.24-2.17-.23-3.152-.01-2.96.67-5.32 3.3-6.92 6.983-.674 1.54-1.2 3.427-1.414 5.546-.07.704-.12 1.433-.114 2.193.026 1.83.294 3.804.91 5.88 1.486 5 3.05 10.927 4.83 14.54 6.774 13.667 7.08 22.29 6.67 30.247-.013.28.007.52.01.775.006.274-.003.564.016.824.02.23.065.43.1.646.04.276.08.56.14.82.045.194.112.364.173.55.08.256.165.515.268.75.07.16.15.315.23.464.12.234.24.46.384.68.087.134.184.258.28.39.154.21.31.41.487.6.098.11.208.22.31.328.19.18.387.355.596.53.11.083.22.18.33.26.22.17.458.31.69.46.115.076.228.145.345.21.25.15.52.29.79.41.103.05.2.11.307.152.31.13.634.258.95.377.08.025.146.06.22.08.8.273 1.62.483 2.435.642.155.03.3.052.454.08.255.042.5.09.74.12.21.033.41.056.616.078.186.025.366.05.547.07.23.02.457.04.68.057.14.008.285.024.425.034.25.02.49.03.725.04.585.023 1.144.04 1.65.04 8.26 0 11.15-4.82 11.63-11.28.55-7.45-.708-16.463 6.665-29.58 2.803-4.963-2.35 3.846-2.68 18.024-.33 13.517-.06 28.34-17.216 28.673v.007c-.87.018-1.735.03-2.685-.023 0 0-6.596-.084-10.37-5.255-.698-.955-1.25-2.014-1.725-3.13-2.95-6.91-2.05-16.285-3.78-22.045-1.643-5.47-4.067-10.44-5.88-13.744-1.387-2.547-2.41-4.105-2.423-4.135v.045c-.104 2.617.01 6.694 2.142 11.23 2.26 4.82 2.48 10.29 2.504 11.934l.003.233c0 .2-.004.3-.004.3-1.91-1.803-4.82-2.28-4.826-2.28.046.1.095.245.143.37.68 1.77 1.42 5.39 2.176 10.5.11.78.226 1.594.34 2.44.538 4.036 1.91 7.52 2.934 9.72.22.48.436.92.615 1.26h-.007s.002 0 .002.007h-20.38l-7.47-14.14h.01c.013 0 .085-.01.18-.03.722-.12 3.463-.615 4.61-1.3l-10.936-18.436s.56-.073 1.29-.25c.694-.164 1.53-.43 2.18-.82L185.64 229.4l-13.574 25.01-3.573-6.607-2.117-4.21s1.256-11.515 2.905-17.25zM280.04 315.01c0-3.687 2.912-5.764 5.78-5.764 1.825 0 3.68.793 5.085 2.14l-2.164 3.232c-.89-.934-1.57-1.42-2.8-1.42-.69 0-1.73.485-1.73 1.467 0 2.972 7.1 1.045 7.1 7.898 0 4.192-2.78 6.24-6.09 6.24-1.96 0-3.99-.673-5.49-2.2l2.35-3.555c.74 1.018 1.81 1.504 2.98 1.504.82 0 2.1-.46 2.1-1.653 0-2.93-7.11-1.19-7.11-7.89zm7.417-120.193l2.55-1.756s2.014 4.4-2.55 7.86c-4.785 3.63-7.855-1.6-7.855-1.6l2.084-1.442s1.764 1.61 4.176.484c2.4-1.117 1.595-3.53 1.595-3.53zm-23.192 92.89c3.65-.345 2.433-6.022 2.433-6.022.697.858 1.733 2.425 1.733 5.2 0 4.536-2.43 5.753-2.93 5.753-.53 0-1.8-.873-1.8-2.96 0-2.09.58-1.972.58-1.972zm-14.985-33.392c.476-1.128 3.2-.487 3.84.8 1.274-1.29 3.043-.65 3.84.158.804-.81 2.56-1.447 3.843-.16.626-1.287 3.352-1.926 3.85-.798 0 0 0 2.557-1.614 4.16 0 0-.96-2.082-1.77-2.25 0 0-1.59 2.093-2.23 2.896l-2.08-2.57-2.08 2.57c-.65-.8-2.25-2.89-2.25-2.89-.8.17-1.77 2.25-1.77 2.25-1.59-1.6-1.59-4.16-1.59-4.16zm-1.672 27.372s-1.216 5.675 2.424 6.02c0 0 .576-.118.576 1.972 0 2.08-1.266 2.96-1.792 2.96-.515 0-2.95-1.22-2.95-5.76 0-2.78 1.043-4.35 1.742-5.2zm-2.205-18.372s-2.397-1.446-2.397-5.77c0-5.625 2.397-6.744 2.397-6.744.96-.31 1.445.17 2.25.81.798.64 1.12 2.25 1.12 2.25s-1.747.49-3.044 2.56c-1.28 2.09-.33 6.91-.33 6.91zm16.25 31.398c-.856 1.054-2.08 0-2.08 0s-1.034.875-2.43.176c-1.377.7-2.423-.18-2.423-.18s-1.217 1.05-2.083 0c-1.652-1.98-.526-5.04-.526-5.04s.36 3.29 2.44 3.47l1.39-2.44 1.21 2.612 1.22-2.615 1.396 2.44c2.08-.18 2.43-3.474 2.43-3.474s1.126 3.056-.53 5.036zm-4.35-11.35v-.064c-6.394-.33-8.95-6.73-9.272-12.17-.31-5.45.8-7.53 3.84-7.69 3.04-.17 4.48 3.68 4.64 5.28.17 1.6.808 3.04.808 3.04v.06s.638-1.45.796-3.056c.164-1.59 1.604-5.433 4.644-5.273 3.04.15 4.144 2.237 3.834 7.676-.32 5.444-2.88 11.85-9.277 12.18zm10.88-26.95c-1.276-2.073-3.04-2.557-3.04-2.557s.33-1.607 1.126-2.246c.79-.64 1.28-1.128 2.23-.81 0 0 2.4 1.12 2.4 6.746 0 4.323-2.4 5.77-2.4 5.77s.96-4.818-.32-6.904zm-31.866 53.053v19.338h-.046l-10.39-10.674v10.23h-3.91v-19.114h.04l10.38 10.46v-10.238h3.94v-.002zm25.44 7.408v3.954h-4.094v3.59h6.223l-.967 3.953h-9.19v-18.68h8.97l.69 3.96h-5.74v3.24h4.09zm16.31-139.693c.4 2.34 1.156 4.72 1.606 3.98 1.195-1.99 8.74-5.72 8.74-5.72s-2.69 4.69-1.514 3.99c1.63-.98 5.58 1.037 5.58 1.037-11.15 4.348-19.95 9.365-23.38 15.978-.39-3.113 8.58-21.58 8.96-19.25zm46.363 141.85c0 5.45-3.848 9.78-8.47 9.78-4.625 0-8.46-4.33-8.46-9.78 0-5.44 3.835-9.78 8.46-9.78 4.622 0 8.47 4.34 8.47 9.78zm7.395-36.52l-5.034.33-1.84 18.41h-20.06l6.28-11.872 3.15-5.965-4.76-.75 7.64-12.86 3.697-6.284-4.046-.526 12.747-23.495 3.847 23.1-4.084.54 2.48 19.37zM292.07 141.83c14.43-4.818 36.285-20.768 36.435-20.883 6.706-5.53 8.9-7.263 10.174-6.663.88.418 1.19 1.263 1.19 1.866 0 0-5.07 26.692-15.79 43.334 0 0 9.41 3.415 14.22 11.242 0 0-9.99-.21-14.93.793 5.12 3.07 17.23 14.24 20.63 20.26-10.01-1.61-20.37-.91-20.37-.91.79.71 5.82 6.072 6.69 6.83 9.718 8.29 18.38 20.95 17.99 41.22l-.92-5.605c-4.98-17.86-14-28.075-22.72-35.52-1.605-1.366-10.096-8.095-11.41-9.334 0 0 6.116-.84 8.31-1.194 3.606-.604 10.772-.205 14.42-.106-6.31-6.86-21.296-16.97-21.427-17.06l-1.217-.6c6.03-2.007 17.203-1.44 17.63-1.4 0 0-4.293-4.62-11.1-7.826 11.44-17.238 15.426-40.54 15.516-40.536-.07-.005 1.396-2.606-5.19 3.41-.67.493-7.366 6.225-16.135 14.555l3.39 5.33c-5.36 1.35-12.17 2.693-19.166 3.496l8.66 8.55c-8.02-3.5-14.92-9.03-23.45-10.037 3.074-1.144 5.706-2.212 8.555-3.225zm47.637 172.097l1.006-4.248h10.824v4.24h-3.827v14.43h-3.928v-14.43h-4.075zm20.98-79.548l5.89 28.74-4.984.66 3.747 24.34-6.13.41-1.265 12.71h-22.92l3.21-6.08 3.836-7.27-5.81-.907 9.3-15.675 4.52-7.648-4.93-.65 15.55-28.646zm22.103 93.98h-3.986l-1.615-3.57h-6.04l-1.6 3.56h-3.82l8.47-19.12h.04l8.54 19.114zm2.4-59.6l-6.476-.85 20.42-37.64 13.91 38.62-6.04.805c3.27 6.98 10.763 24.022 13.815 29.653l-6.33 1.264 9.43 19.963c-4.33 1.69-7.49 6.97-7.49 6.97l-8.55.13-10.148-26.33-30.267-.116 17.71-32.475zm70.59 88.21s10.634-22.36 10.662-22.44c-.05-.07-.16-.21-.16-.21l-.48-.62c-.417-.525-10.284-12.82-22.262-14.34l-1.374-.136-6.53-12.357 1.956-.424c2.42-.506 4.275-1.114 5.252-1.703 0 0 .23-.133.358-.213-.08-.12-17.35-29.248-17.35-29.248l1.903-.54c1.385-.39 2.472-.78 3.138-1.118 0 0 .258-.123.39-.192-.112-.22-32.39-59.672-32.51-59.906-.228.39-21.336 39.284-21.336 39.284s-16.892-31.133-17.032-31.37c-.12.23-5.43 10.01-5.43 10.01l-.678-4.46c-.618-4.092-1.774-7.915-3.41-11.355-1.993-4.184-5.16-9-9.435-14.317l-2.71-3.387 4.225.94c3.756.846 6.646 2.164 6.985 2.33 0 0 3.826 1.857 4.087 1.98l-.89-4.462c-1.3-6.567-4.7-12.73-10.12-18.328l-3.67-3.733 7.19 1.69 5.342 1.57c-.29-.52-2.75-4.866-2.75-4.866-4.586-8.103-9.51-12.586-12.847-14.917l-.99-.69.46-1.125c7.775-19.09 11.71-33.72 11.71-43.484 0-7.996-2.66-10.396-3.816-11.056l-.61-.35s-.098-.06-.14-.09c-.057.02-.854.197-.865.197-2.184.49-7.625 4.097-19.586 12.243-6.395 4.373-13.64 9.324-18.82 12.425-6.827 4.103-11.84 5.884-14.85 6.657l-1.347.34-.45-1.31c-.93-2.61-1.48-6.48-1.61-9.156 0 0-.17-3.66-.19-3.908-.346.224-3.286 2.097-3.286 2.097-2.11 1.36-4.8 4.406-7.78 8.84l-1.207 1.81-1.272-1.78c-3.97-5.53-8.57-9.158-8.75-9.3l-5.17-4.025c.175.688 1.58 6.364 1.58 6.364l.026.01.057 1.06-.202 4.666-2.3-1.743c-4.4-3.32-9.57-6.363-10.145-6.704l-3.86-2.27c.05.484.226 2.116.226 2.116l.57 5.515-2.688-1.8c-6.146-4.123-13.116-6.33-13.91-6.57 0 0-4.2-1.25-4.48-1.34.184.476 1.74 4.354 1.74 4.354.65 1.638 1.2 3.93 1.604 6.62l.404 2.835-2.57-1.244c-10.34-5.02-29.43-16.88-36.416-21.96-4.026-2.94-7.132-3.75-9.484-2.49-3.116 1.67-3.116 6.11-3.116 7.57l.03 1.29c.606 13.84 8.046 34.42 11.214 42.625l.45 1.18-1.063.664c-9.89 6.17-16.434 15.07-17.14 16.055 0 0-2.55 3.633-2.723 3.893l4.722-.33 6.752-.06-3.38 2.74c-8.49 6.87-12.69 14.955-12.734 15.04 0 0-2.313 4.433-2.48 4.737.546-.164 5.13-1.53 5.13-1.53 2.18-.64 4.45-1.12 6.753-1.395l3.76-.47-2.404 2.935c-4.53 5.52-7.78 12.163-9.673 19.73-.49 1.96-.883 4.062-1.147 6.24l-.59 4.68-5.46-10.053c-.125.236-17.03 31.37-17.03 31.37l-21.33-39.275c-.21.393-32.438 59.777-32.515 59.908l.394.2c.662.336 1.75.716 3.134 1.106l1.903.54s-17.27 29.132-17.353 29.25c.203.124.37.215.37.215.96.586 2.822 1.195 5.238 1.7l1.962.428-6.68 12.635H48.55c.024.17 7.164 46.088 7.2 46.317.31-.21 8.724-5.8 8.724-5.8l.264 30.56s-7.664 22.03-7.728 22.22h47.053c-.1-.318-1.19-3.68-1.19-3.68h321.503l.31.14c2.292 1.063 10.514 4.427 19.67 3.323 5.164-.623 22.017-4.69 22.017-30.785 0-11.444-6.957-20.654-9.936-24.08l-.657-.75z" id="Shape" fill="#061922"/><path d="M372.107 321.336h4.195l-2.093-4.572-2.11 4.572z" id="Shape" fill="#061922"/><path d="M421.786 392.42l5.23-10.628 3.19-6.466 2.104 6.9 2.26 7.388c.44.38 1.297.953 2.423 1.077 1.058.12 3.07-1.37 3.54-2.23 1.562-2.85.337-6.11-1.06-8.94-.946-1.89-3.875-5.03-6.715-8.06-3.678-3.94-7.845-8.4-10.236-12.66-1.555-2.76-2.56-6.073-2.9-9.213l-.31 2.306-.726 5.22-3.967-3.457-3.9-3.39-6.01-.06c.05 3 .1 7.873.14 10.828h15.16l-1.91 4.067-4.22 9.03-1.097 2.347-2.44-.863-5.5-1.94-.14 14.416 4.77-.076 7.846-5.33 4.46-3.02v12.773z" id="Shape" fill="#061922"/><path d="M163.455 347.45l-3.144-6.346s-.11-.23-.28-.563l-.55.93-2.1 3.5 7.23 47.39-1.14-44.9z" id="Shape" fill="#061922"/><path d="M466.373 381.817c0 26.087-16.844 30.15-22.006 30.776-9.17 1.103-17.39-2.255-19.68-3.32l-.31-.134H102.873s1.086 3.36 1.194 3.67h-47.06l7.73-22.22-.263-30.57s-8.417 5.59-8.725 5.8c-.04-.225-7.18-46.146-7.2-46.32h24.33l6.68-12.63-1.97-.423c-2.41-.51-4.28-1.117-5.24-1.7 0 0-.17-.097-.367-.215.077-.126 17.355-29.243 17.355-29.243l-1.898-.543c-1.394-.39-2.474-.773-3.145-1.11 0 0-.17-.09-.39-.2.074-.125 32.3-59.514 32.51-59.904.135.234 21.333 39.29 21.333 39.29s16.9-31.137 17.03-31.37c.12.233 5.457 10.053 5.457 10.053l.59-4.69c.263-2.18.656-4.28 1.145-6.24 1.895-7.57 5.144-14.21 9.676-19.73l2.407-2.937-3.764.463c-2.296.283-4.57.76-6.746 1.4 0 0-4.58 1.356-5.126 1.526.162-.304 2.48-4.73 2.48-4.73.043-.09 4.244-8.173 12.735-15.053l3.375-2.74-6.75.07-4.73.32 2.73-3.89c.71-.985 7.25-9.882 17.135-16.052l1.064-.664-.45-1.175c-3.164-8.204-10.603-28.78-11.214-42.623l-.033-1.288c0-1.456 0-5.898 3.12-7.57 2.35-1.27 5.46-.45 9.484 2.49 6.986 5.08 26.074 16.93 36.41 21.96l2.58 1.245-.414-2.84c-.405-2.696-.955-4.988-1.604-6.62 0 0-1.55-3.89-1.74-4.36.285.097 4.48 1.344 4.48 1.344.788.246 7.757 2.45 13.9 6.57l2.697 1.808-.58-5.515s-.174-1.63-.222-2.116c.25.15 3.864 2.27 3.864 2.27.57.336 5.74 3.38 10.14 6.707l2.3 1.74.2-4.67-.05-1.052-.03-.02s-1.407-5.67-1.58-6.36c.327.26 5.16 4.026 5.16 4.026.2.145 4.795 3.773 8.77 9.304l1.26 1.774 1.223-1.806c2.975-4.433 5.665-7.483 7.777-8.845 0 0 2.94-1.87 3.29-2.09.02.25.19 3.902.19 3.902.13 2.672.68 6.54 1.612 9.156l.45 1.307 1.342-.343c3.01-.77 8.024-2.557 14.85-6.65 5.184-3.11 12.42-8.06 18.826-12.424 11.96-8.16 17.39-11.767 19.583-12.256.01 0 .796-.173.865-.19l.14.09.61.35c1.156.66 3.817 3.06 3.817 11.06 0 9.763-3.938 24.393-11.71 43.48l-.46 1.126.99.692c3.33 2.337 8.27 6.814 12.843 14.916 0 0 2.465 4.343 2.754 4.87l-5.342-1.575-7.197-1.687 3.67 3.73c5.422 5.59 8.82 11.753 10.115 18.322 0 0 .797 3.982.888 4.46-.26-.13-4.09-1.98-4.09-1.98-.34-.162-3.23-1.48-6.98-2.32l-4.226-.954 2.712 3.39c4.274 5.314 7.453 10.136 9.436 14.31 1.636 3.454 2.78 7.27 3.41 11.37l.68 4.453 5.43-10.004c.14.233 17.03 31.363 17.03 31.363s21.11-38.897 21.33-39.285c.125.232 32.406 59.686 32.516 59.906-.13.063-.39.2-.39.2-.67.33-1.756.716-3.14 1.107l-1.905.547s17.272 29.114 17.352 29.24c-.12.073-.358.213-.358.213-.98.59-2.83 1.192-5.245 1.7l-1.96.425 6.53 12.357 1.374.13c11.98 1.53 21.844 13.82 22.262 14.35l.48.617s.11.135.16.21c-.03.07-10.66 22.434-10.66 22.434l.66.755c2.986 3.425 9.933 12.636 9.933 24.087M470 334.15l-1.813-2.326c-.448-.564-10.953-13.625-24.087-15.43-.26-.488-2.802-5.27-3.956-7.462 1.794-.484 3.308-.995 4.255-1.574l2.95-1.76-1.77-2.967-15.147-25.54c.706-.24 1.335-.48 1.804-.72l3.2-1.6-1.705-3.16-34.98-64.42s-16.953 31.23-21.328 39.28L360.4 215.11s-3.528 6.49-4.026 7.41c-.7-2.87-1.556-5.63-2.76-8.17-1.606-3.38-3.94-7.12-6.938-11.17 1.093.408 1.81.73 1.95.804-.02-.013 3.3 1.6 3.3 1.6l6.257 3.033-1.354-6.82-.72-3.633c-1.127-5.68-3.738-11.054-7.664-16.046l9.778 2.89-6.45-11.41c-4.457-7.872-9.25-12.53-12.778-15.19 7.624-18.91 11.51-33.57 11.51-43.534 0-9.24-3.34-12.55-5.34-13.692 0-.004-1.798-1.023-1.798-1.023l-1.99.45c-2.74.606-7.547 3.77-20.56 12.65-6.43 4.394-13.644 9.315-18.747 12.38-5.76 3.454-10.023 5.09-12.646 5.89-.51-1.98-.92-4.583-1.028-6.906l-.15-3.165-.3-5.977-7.684 4.92c-2.18 1.394-4.69 4.13-7.443 7.994-3.79-4.816-7.624-7.887-8.08-8.256l-12.117-9.43s3.094 12.36 3.47 13.87c-3.76-2.62-7.36-4.75-7.837-5.04l-9.04-5.305s.746 7.048.77 7.31c-5.526-3.207-10.867-4.95-12.016-5.293l-10.533-3.143 4.076 10.187c.314.794.6 1.823.854 2.966-10.452-5.45-27.05-15.817-33.22-20.304-5.076-3.69-9.223-4.578-12.71-2.706-4.72 2.53-4.72 8.338-4.72 10.245l.04 1.417c.607 13.71 7.57 33.51 10.984 42.47-9.79 6.43-16.242 15.15-16.963 16.16-.01.018-6.39 9.108-6.39 9.108l7.223-.484 1.865-.122c-6.8 6.45-10.128 12.85-10.28 13.15.003-.015-2.01 3.83-2.01 3.83l-3.794 7.254 12-3.56c.82-.243 1.696-.337 2.545-.527-3.573 5.177-6.266 11.07-7.91 17.67-.19.72-.28 1.538-.43 2.295-.314-.59-3.823-7.048-3.823-7.048s-14.81 27.275-17.03 31.37L116.41 207.2l-3.03 5.59-33.64 61.98 3.2 1.603c.468.24 1.09.485 1.8.725-1.73 2.91-16.91 28.51-16.91 28.51l2.954 1.77c.95.57 2.47 1.078 4.25 1.56 0 .004-3.283 6.24-3.982 7.556H45l.618 3.993 7.86 50.51s6.47-4.3 8.007-5.328c.04 4.476.214 23.974.22 24.43-.165.48-8.963 25.76-8.963 25.76h55.505s-.954-2.91-1.2-3.677H423.74c2.8 1.253 11.36 4.604 20.988 3.438 5.79-.7 24.684-5.203 24.684-33.792 0-11.76-6.598-21.167-10.055-25.31C460.083 355 470 334.15 470 334.15" id="Shape" fill="#C4CED3"/><path d="M172.04 254.4l13.573-25.008 20.005 36.875c-.653.395-1.484.66-2.176.825-.73.175-1.29.245-1.29.245l10.932 18.44c-1.15.69-3.887 1.19-4.617 1.303-.086.02-.157.03-.175.03h-.005l7.473 14.137h20.377v-.005h-7.69c-5.025-7.827-3.353-24.973-10.408-39.696-2.13-4.406-3.63-8.36-4.7-11.804-2.21 1.81-4.06 3.798-4.06 3.798-2.15-9.156-.23-16.433.77-19.324-5.43 2.143-8.86 7.5-8.86 7.5s-3.374-7.4 1.646-19.136c3.462-8.088 10.19-12.34 14.996-13.953-4.476-2.047-6.38-6.398-6.975-9.687-1.16-6.435 3.34-16.768 3.34-16.768 7.395 7.094 17.11 10.34 24 15.65 6.61 5.08 8.09 9.784 8.09 9.784s-.035-.02-.056-.036c1.73 2.072 2.88 4.034 3.18 5.093h-.056c2.363.254 5.33 1.193 7.355 4.05l-.843-4.51c-.5-4.52-5.95-10.746-5.95-10.746 6.64-.06 4.14-8.36-.963-10.534-10.64-4.543-18.01-11.79-16.88-11.914 12.586 2.76 18.104-1.23 18.104-1.23s-3.016-1.17-4.59-2.31c-2.607-1.89-4.3-4.16-4.3-4.16 6.27.36 13.242-2.388 15.336-6.756 3.686-7.683 2.243-22.13 2.243-22.13s-4.286-7.168-8.726-9.83c0 0-.38 5.894-1.76 10.073l-.307.885s-5.315-10.068-14.487-13.63c0 0 .59 6.515 0 11.26 0 0-20.475-4.492-44.03-22.507-5.594-4.284-7.13-4.77-7.503-3.87-2.547 6.144 9.056 41.032 10.474 42.45 0 0 2.61-.53 2.593-.675-.14-1.34-3.54-26.49-.95-27.124.275-.075 2.913 2.177 5.867 4.178 2.97 2.027 6.265 3.813 6.68 4.53.44.79-5.44 3.274-5 4.063.78 1.354 15.88 5.077 16.665 6.465.666 1.17-17.19 5.477-16.516 6.666 1.25 2.177 4.38 1.25 5.64 3.49l-1.565.26c-19.524 2.993-25.18 13.89-25.18 13.89 7-.75 15.018.654 15.018.654-12.762 5.77-20.527 16.05-20.527 16.05 18.045.337 14.958 1.65 14.958 1.65-16.76 13.044-20.97 34.973-20.97 34.973-1.646 5.737-2.907 17.254-2.907 17.254l2.12 4.21 3.576 6.6z" id="Shape" fill="#C4CED3"/><path d="M250.027 227.345l.004.01s-4.6-2.97-8.18-2.128c2.92.56 6.65 5.187 7.93 8.67 0 0-.01 0-.02.007.32-.06.63-.114.96-.114 3.61 0 6.25 1.86 6.24 1.902-.64-2.257.69-16.26-9.53-19.708-3.18-1.07-4.28-.833-6.13-.555 9.34 1.98 8.74 11.84 8.74 11.91" id="Shape" fill="#C4CED3"/><path d="M258.37 300.6c-.036 1.598-1.378 3.21-1.39 3.216 17.16-.334 16.893-15.156 17.212-28.674.338-14.176 5.493-22.987 2.692-18.03-7.374 13.123-6.12 22.134-6.668 29.586-.48 6.46-3.368 11.276-11.632 11.276-.498 0-1.06-.016-1.647-.04.044.006.103.01.152.01 0 0 1.3 1.348 1.28 2.657" id="Shape" fill="#C4CED3"/><path d="M292.48 180.446s-3.948-2.002-5.58-1.035c-1.187.72 1.513-3.97 1.513-3.97s-7.545 3.73-8.74 5.72c-.44.75-1.208-1.64-1.615-3.97-.38-2.32-9.347 16.14-8.96 19.25 3.44-6.614 12.25-11.626 23.38-15.98" id="Shape" fill="#C4CED3"/><path d="M298.31 146.55c6.995-.808 13.803-2.15 19.163-3.502l-3.388-5.33c8.77-8.327 15.467-14.06 16.145-14.557 6.587-6 5.123-3.41 5.18-3.4-.078 0-4.075 23.29-15.515 40.53 6.807 3.21 11.102 7.83 11.102 7.83-.438-.04-11.6-.61-17.63 1.4l1.218.6c.14.09 15.117 10.2 21.427 17.07-3.648-.103-10.813-.5-14.422.107-2.192.36-8.31 1.2-8.31 1.2 1.315 1.234 9.806 7.958 11.42 9.33 8.72 7.44 17.73 17.658 22.712 35.518l.926 5.6c.388-20.264-8.282-32.93-17.998-41.22-.877-.753-5.9-6.11-6.687-6.823 0 0 10.356-.7 20.36.903-3.408-6.026-15.517-17.193-20.627-20.268 4.942-1.01 14.928-.8 14.928-.8-4.813-7.827-14.22-11.237-14.22-11.237 10.714-16.64 15.785-43.34 15.785-43.34 0-.596-.32-1.44-1.2-1.86-1.28-.6-3.48 1.138-10.18 6.665-.15.11-22.01 16.064-36.44 20.882-2.84 1.015-5.494 2.078-8.55 3.236 8.52 1.003 15.425 6.53 23.44 10.034l-8.656-8.55z" id="Shape" fill="#005083"/><path d="M285.853 198.347c-2.4 1.128-4.156-.484-4.156-.484l-2.085 1.453s3.06 5.215 7.845 1.59c4.564-3.453 2.55-7.845 2.55-7.845l-2.55 1.76s.797 2.42-1.604 3.53" id="Shape" fill="#FDD51D"/><path d="M248.772 253.856s-.32-1.607-1.116-2.246c-.808-.64-1.29-1.128-2.253-.81 0 0-2.397 1.12-2.397 6.746 0 4.323 2.397 5.774 2.397 5.774s-.96-4.822.33-6.908c1.29-2.077 3.04-2.556 3.04-2.556" id="Shape" fill="#FFF"/><path d="M248.816 292.638c.526 0 1.792-.87 1.792-2.96 0-2.098-.576-1.967-.576-1.967-3.637-.35-2.424-6.02-2.424-6.02-.7.86-1.74 2.43-1.74 5.21 0 4.53 2.436 5.75 2.948 5.75" id="Shape" fill="#FFF"/><path d="M270.903 257.546c0-5.62-2.4-6.748-2.4-6.748-.948-.31-1.437.168-2.234.808-.81.64-1.12 2.252-1.12 2.252s1.75.48 3.03 2.56c1.28 2.082.32 6.9.32 6.9s2.4-1.45 2.4-5.772" id="Shape" fill="#FFF"/><path d="M252.636 256.226s1.606 2.092 2.248 2.895l2.074-2.57 2.08 2.57c.644-.8 2.24-2.89 2.24-2.89.808.17 1.763 2.25 1.763 2.25 1.62-1.6 1.62-4.16 1.62-4.16-.48-1.12-3.21-.48-3.85.8-1.28-1.29-3.04-.65-3.84.16-.795-.81-2.564-1.45-3.84-.16-.63-1.29-3.362-1.92-3.84-.8 0 0 0 2.56 1.59 4.16 0 0 .97-2.08 1.77-2.25" id="Shape" fill="#FFF"/><path d="M259.752 293.152l-1.4-2.44-1.208 2.614-1.204-2.615-1.394 2.45c-2.082-.18-2.435-3.47-2.435-3.47s-1.12 3.057.53 5.037c.87 1.054 2.09 0 2.09 0s1.047.875 2.425.176c1.39.7 2.43-.175 2.43-.175s1.22 1.054 2.077 0c1.66-1.98.53-5.036.53-5.036s-.345 3.296-2.423 3.475" id="Shape" fill="#FFF"/><path d="M265.492 292.638c.508 0 2.94-1.22 2.94-5.746 0-2.775-1.037-4.347-1.734-5.207 0 0 1.216 5.67-2.433 6.024 0 0-.578-.13-.578 1.96s1.277 2.96 1.805 2.96" id="Shape" fill="#FFF"/><path d="M263.388 313.633l-.685-3.947h-8.966v18.684h9.175l.974-3.958h-6.225v-3.59h4.11v-3.948h-4.1v-3.24h5.73z" id="Shape" fill="#C4CED3"/><path d="M222.002 309.246h-.043v19.113h3.91v-10.23l10.39 10.67h.05v-19.34h-3.95v10.24L222 309.24z" id="Shape" fill="#C4CED3"/><path d="M285.056 324.552c-1.176 0-2.244-.484-2.98-1.504l-2.352 3.555c1.495 1.527 3.536 2.2 5.49 2.2 3.31 0 6.09-2.05 6.09-6.24 0-6.853-7.107-4.926-7.107-7.898 0-.982 1.047-1.467 1.744-1.467 1.22 0 1.91.485 2.82 1.414l2.16-3.225c-1.407-1.348-3.26-2.14-5.074-2.14-2.88 0-5.79 2.076-5.79 5.764 0 6.71 7.095 4.97 7.095 7.89 0 1.2-1.265 1.66-2.08 1.66" id="Shape" fill="#C4CED3"/><path d="M194.17 318.132l10.38 10.672h.046V309.47h-3.93v10.24l-10.376-10.46h-.057v19.11h3.938v-10.23z" id="Shape" fill="#C4CED3"/><path d="M320.492 319.03c0 2.85-2.03 5.52-4.535 5.52-2.49 0-4.535-2.67-4.535-5.52 0-2.86 2.043-5.537 4.535-5.537 2.504 0 4.535 2.677 4.535 5.537m-12.994 0c0 5.435 3.835 9.774 8.46 9.774 4.623 0 8.47-4.337 8.47-9.774 0-5.452-3.847-9.786-8.47-9.786-4.625 0-8.46 4.334-8.46 9.786" id="Shape" fill="#C4CED3"/><path d="M139.628 319.838h.048l3.784 8.96h.053l4.158-8.98h.06l1.36 8.662h3.97l-4.227-19.23h-.036l-5.15 11.433-5.01-11.432h-.035l-4.352 19.23h4.025l1.368-8.64z" id="Shape" fill="#C4CED3"/><path d="M347.72 328.36v-14.433h3.818v-4.24h-10.825l-1.006 4.24h4.086v14.432h3.926z" id="Shape" fill="#C4CED3"/><path fill="#C4CED3" d="M168.958 310.333h3.935v18.893h-3.935z"/><path d="M376.302 321.34h-4.195l2.103-4.576 2.092 4.577zm-10.563 7.02h3.81l1.59-3.565h6.032l1.615 3.564h3.996l-8.553-19.12h-.04l-8.47 19.11z" id="Shape" fill="#C4CED3"/><path d="M246.246 207.567c-.292-.185-2.41-1.487-4.68-2.477-1.507-.66-3.067-1.167-4.184-1.123-2.975.126-4.847 3.355-12.242.696-6.143-2.197-6.46-8.66-6.042-12.296.154-1.308-1.465-2.97-2.474-4.472-1.334-1.982-2.27-5.243-2.39-5.65-.015-.05-.02-.075-.02-.075s-4.503 10.328-3.345 16.773c.6 3.28 2.5 7.637 6.97 9.684-4.81 1.613-11.53 5.87-14.99 13.948-5.02 11.745-1.66 19.14-1.66 19.14s3.43-5.36 8.86-7.503c-1 2.9-2.91 10.17-.78 19.328 0 0 1.856-1.987 4.06-3.798 1.066 3.443 2.56 7.398 4.69 11.804 7.063 14.728 5.39 31.87 10.413 39.696h7.69c-.18-.343-.394-.783-.61-1.264-1.028-2.194-2.395-5.68-2.937-9.714-.11-.85-.223-1.662-.34-2.44-.75-5.112-1.495-8.73-2.173-10.498-.046-.13-.09-.275-.143-.38.004 0 2.92.483 4.83 2.29 0 0 .003-.104.003-.304 0-.048-.008-.165-.008-.235-.02-1.642-.244-7.108-2.505-11.932-2.13-4.538-2.246-8.61-2.143-11.23v-.045c.013.03 1.035 1.588 2.423 4.133 1.812 3.305 4.236 8.272 5.88 13.738 1.73 5.77.83 15.14 3.78 22.05.476 1.12 1.025 2.18 1.726 3.13 3.774 5.18 10.372 5.26 10.372 5.26.95.06 1.814.04 2.683.03.01-.004 1.35-1.62 1.386-3.213.02-1.31-1.28-2.66-1.28-2.66-.055 0-.105 0-.156-.006-.236-.01-.48-.024-.73-.04-.14-.01-.276-.025-.425-.033-.22-.015-.45-.04-.68-.054-.183-.02-.36-.036-.545-.07-.203-.02-.407-.04-.61-.073-.246-.038-.49-.08-.736-.127-.156-.023-.307-.05-.454-.08-.82-.16-1.64-.367-2.435-.64-.073-.02-.14-.055-.214-.082-.323-.12-.643-.24-.955-.37-.105-.048-.207-.11-.308-.158-.27-.123-.54-.26-.794-.412-.12-.06-.23-.13-.34-.204-.235-.144-.465-.293-.688-.463-.11-.08-.22-.18-.33-.26-.2-.176-.4-.35-.59-.534-.11-.108-.217-.216-.314-.328-.17-.186-.335-.39-.49-.6-.095-.13-.187-.257-.28-.397-.137-.213-.26-.442-.384-.673-.075-.155-.16-.3-.23-.466-.102-.24-.183-.49-.263-.75-.06-.185-.12-.355-.173-.55-.06-.256-.1-.545-.146-.82-.034-.214-.078-.418-.1-.64-.02-.26-.01-.55-.013-.827-.006-.255-.03-.498-.01-.773.405-7.95.1-16.572-6.666-30.244-1.785-3.613-3.35-9.535-4.836-14.54-.61-2.076-.882-4.05-.902-5.88 0-.76.04-1.483.116-2.198.21-2.127.735-4.01 1.408-5.545 1.61-3.686 3.967-6.317 6.926-6.986.984-.225 2.04-.225 3.152.01 2.545.567 4.326 1.87 5.48 3.03 1.145 1.166 1.66 2.19 1.66 2.19v-.002c0-.066.61-9.94-8.735-11.916h-.01c.015-.02.633-.962 1.96-1.752.04-.03.097-.055.145-.08.23-.13.463-.26.734-.37.103-.05.23-.083.34-.124.23-.087.454-.176.71-.24.15-.04.32-.056.473-.097.25-.045.485-.106.754-.13.005 0 .01 0 .016-.004.32-.036.737-.056 1.205-.06h.183c.478 0 1 .024 1.558.084h.058c-.29-1.06-1.436-3.02-3.17-5.09" id="Shape" fill="#FFF"/><path d="M241.856 225.227c-.015-.004-.035-.014-.054-.02-.185.04-.36.09-.516.14-2.03.735-3.628 3.914-3.354 10.068.34 7.573 5.42 12.395 9.906 13.518.006 0 .006.005.006.005.738.185 1.01.08.993-.19-.01-.415-.738-1.238-1.48-1.976-.574-.585-1.325-1.392-1.946-2.427-.65-1.103-1.16-2.455-1.16-4.064 0-.38.05-.77.13-1.15.017-.06.04-.11.058-.18.078-.3.175-.61.296-.91.06-.14.134-.27.206-.41.103-.203.204-.41.33-.602.113-.18.25-.355.38-.53.103-.13.2-.254.307-.384.177-.2.366-.396.565-.575.08-.07.166-.146.25-.215.24-.2.487-.375.75-.54.06-.04.117-.07.18-.11.29-.165.598-.32.915-.443.036-.013.075-.024.118-.04.338-.122.69-.22 1.048-.28l.02-.002c-1.283-3.48-5.01-8.1-7.926-8.67" id="Shape" fill="#FFF"/><path d="M223.43 193.06l2.56 1.757s-.802 2.416 1.606 3.53c2.387 1.128 4.154-.484 4.154-.484l2.088 1.453s-3.056 5.215-7.848 1.59c-4.573-3.453-2.56-7.845-2.56-7.845m-6.804-5.16c1.01 1.5 2.626 3.16 2.47 4.47-.413 3.64-.097 10.1 6.042 12.3 7.397 2.66 9.265-.58 12.242-.7 1.123-.04 2.683.47 4.183 1.13 2.27.99 4.39 2.29 4.683 2.478.023.01.057.034.057.034s-1.48-4.706-8.093-9.78c-6.888-5.31-16.603-8.56-23.998-15.66l.025.078c.113.41 1.052 3.68 2.39 5.66" id="Shape" fill="#061922"/><path d="M225.99 200.907c4.786 3.624 7.848-1.597 7.848-1.597l-2.093-1.447s-1.758 1.612-4.15.484c-2.407-1.118-1.605-3.525-1.605-3.525l-2.56-1.767s-2.013 4.398 2.56 7.852" id="Shape" fill="#FDD51D"/><path d="M266.577 271.18c.31-5.436-.797-7.524-3.835-7.68-3.04-.153-4.48 3.69-4.643 5.28-.16 1.604-.8 3.048-.8 3.048v-.058s-.64-1.442-.81-3.046c-.16-1.607-1.6-5.44-4.64-5.278-3.04.16-4.15 2.243-3.836 7.683.32 5.44 2.877 11.85 9.27 12.17v.06c6.4-.33 8.96-6.73 9.277-12.19" id="Shape" fill="#E03A3F"/><path d="M319.396 385.392c-.267.3-.776.784-1.286.784-1.106 0-4.306-5.686-4.306-16.537 0-8.04 1.884-13.83 3.617-15.81.41-.48.66-.56.69-.56.05 0 .3.09.71.56 1.74 1.96 3.6 7.76 3.6 15.8 0 7.37-1.56 14.09-3.02 15.75m-1.29-34.975c-.97 0-1.94.51-2.82 1.516-2.62 2.99-4.33 9.94-4.33 17.704 0 10.09 2.88 19.403 7.156 19.403 1.237 0 2.424-.61 3.42-1.76 2.383-2.71 3.757-10.738 3.757-17.645 0-7.764-1.703-14.713-4.324-17.704-.888-1.01-1.855-1.52-2.85-1.52" id="Shape" fill="#005083"/><path d="M244.387 360.987c.076-3.02.2-7.437.276-10.103.894.113 1.318.48 1.51.644.925.793 1.286 2.205 1.253 2.97-.16 3.327-1.18 5.49-3.04 6.49m-2.27-12.817l-.238.05-.006.25-.428 15.72-.01.33h.332c7.255-.11 8.378-6.95 8.505-9.9.08-1.53-.59-3.84-2.24-5.26-1.48-1.28-3.47-1.67-5.91-1.18" id="Shape" fill="#005083"/><path d="M452.22 389.424c-1.143 4.563-3.536 10.21-11.5 12.164-10.323 2.543-17.45-5.738-17.45-5.738l6.31-12.784 2.464 8.095s1.742 2.06 4.643 2.38c2.502.28 5.472-2.11 6.35-3.7 2.28-4.17.496-8.56-1.007-11.58-2.42-4.875-12.867-13.44-17.01-20.855-2.284-4.067-3.07-9.08-2.443-12.36.758-3.912 3.06-10.92 11.024-12.89 10.34-2.534 17.45 5.747 17.45 5.747l-6.31 12.78-2.45-8.104s-1.73-2.31-4.65-2.372c-3.56-.083-4.99 2.048-5.55 3.83-.92 2.876-.36 6.86.68 8.915 3.08 6.11 11.32 10.39 16.61 19.14 2.84 4.71 4.68 10 2.85 17.348zm-34.888-6.754l-7.845 5.33-4.772.076.14-14.416 5.5 1.937 2.442.863 1.096-2.346 4.215-9.024 1.903-4.07h-15.15c-.04-2.955-.1-7.827-.14-10.828l6.01.06 3.9 3.39 3.96 3.458.74-5.216.32-2.31c.33 3.14 1.336 6.46 2.89 9.213 2.39 4.258 6.558 8.72 10.236 12.66 2.83 3.035 5.77 6.166 6.718 8.062 1.397 2.83 2.62 6.09 1.058 8.94-.48.86-2.48 2.35-3.537 2.24-1.128-.13-1.975-.7-2.43-1.08l-2.256-7.39-2.1-6.9-3.19 6.46-5.23 10.63v-12.77l-4.457 3.02zm1.594 15.87h-28.91l2.4-7.895-.21-43.444-2.52-6.04-1.805 2.87-15.47 58.04-14.96-58.04-3.37-4.04h13.15l5.498 33.36 5.6-33.36h12.12v.01H418.1l-1.604 11.498-4.686-4.073-9.607-.096-.38-.08.013.39.21 15.953v.306h13.49l-4.217 9.024-9.27-3.264-.22 21.34 8.56-.14 8.54-5.813v13.507zm-66.98-7.69l8.56-5.817v13.508H335.87l2.412-7.48-.18-42.59v-.08l-.05-3.923-3.517-4.464h15.576l-2.44 4.56v46.43l4.28-.13zm-24.387 3.217c-2.64 2.99-5.98 4.568-9.68 4.568-3.69 0-7.04-1.58-9.67-4.568-4.09-4.652-6.24-12.28-6.24-22.078 0-11.57 3.11-22.31 8.13-28.03 2.36-2.69 5.04-4.11 7.77-4.11 8.77 0 15.924 14.42 15.924 32.13-.003 9.792-2.176 17.42-6.25 22.072zm-37.09 8.002l-8.38-23.86-8.39 23.86-11.95-58.25-3.26-3.64h13.03l4.68 33.35 5.89-23.19 6.93 22.393 3.46-32.56h12.726l-3.15 3.64-11.594 58.242zm-32.68-42.72c-1.04 6.82-6.54 10.49-6.54 10.49L265 398.56h-14.5l1.88-4.867-9.824-19.88-1.495.27.42 19.612 2.35 4.867h-14.26l2.41-5.314-.31-45.643-3.564-7.544h15.99c4.12 0 7.81 1.11 9.72 2.86 2.4 2.18 5.43 6.92 3.99 16.43zm-9.96 38.17l-.6 1.534-.85-1.74-2.074-4.31-.206-9.594 5.148 10.424-1.43 3.684zm-19.58-2.97v-14.91l-4.46 3.02-7.85 5.33-4.77.077.145-14.413 5.5 1.938 2.44.86 1.1-2.345 4.215-9.023 1.9-4.07h-15.15l-.143-10.83 6.01.06 3.888 3.39 3.972 3.46.722-5.216 1.08-7.766 1.952 4.142.307 44.377-.864 1.923zm-2.85 3.98h-28.92l2.41-7.9-.217-43.443-3.007-7.206h28.88l-1.6 11.495-4.68-4.074-9.606-.093-.38-.08v.39l.217 15.954.01.306H222l-4.22 9.026-9.256-3.264-.228 21.34 8.55-.135 8.56-5.815v13.503h-.002zm-34.58-30.688c2-2.078 4.17-5.193 5.06-9.156l.07 15.85c-1.05-2.338-2.83-4.77-5.14-6.695zm-.95 26.172c-5.948 6.21-16.7 4.572-22.26 4.572l-1.33-51.864-3.43-6.91c2.746-.07 10.326-.37 14.586-.185 4.706.2 14.433 2.135 15.88 13.5 1.216 9.366-6.783 14.633-6.86 14.677l-.487.29.496.24c4.355 2.22 7.146 6.86 7.667 9.81 1.006 5.703-.61 12.06-4.264 15.87zm-37.61 4.54l-3.367-33.61L139 402.05l-9.44-36.6-3.32 33.105h-13.13l.026-.03H99.27l2.41-7.49-.22-46.554-2.4-4.503h14.457l-2.432 4.51v46.48l2.332 7.23 3.056-3.68 7.66-50.166-3.444-4.373h13.12l5.5 31.688 5.595-31.69h12.117l-2.64 4.38 7.654 50.16 3.37 4.035h-13.14v.002zm-38.34-53.344l2.1-3.875.856-1.572 1.554 1.98 2.678 3.4-7.01 45.938-.18-.56v-45.31h.002zm45.543-3.754l.55-.93c.167.33.277.563.277.563l3.15 6.35 1.15 44.893-7.233-47.393 2.11-3.49zm-64.28 3.755l-6.794-5.65-3.384-.09-.47 53.55 2.917 9.04H72.39l2.874-8.96-.227-53.626-4.04.09-6.797 5.656L62.44 332h34.51l-1.755 13.22zm346.63 13.868c-2.83-2.66-5.262-4.95-6.52-7.447-.686-1.352-1.214-4.57-.516-6.744.45-1.363 1.22-1.883 2.78-1.847.99.025 1.776.61 2.175.983l2.27 7.474 2.094 6.906 3.19-6.473 6.3-12.78.836-1.7-1.224-1.43c-.34-.398-8.41-9.575-20.29-6.646-5.69 1.386-9.85 5.26-12.01 11.048v-.045l.46-3.258H375.9l-.407 2.38-2.75 16.45-2.714-16.437-.4-2.398h-40.99l3.65 4.632 2.913 3.69.04 2.95c0 .027.01 4.38.037 10.275-2.76-12.83-9.426-21.67-17.41-21.67-3.57 0-6.994 1.753-9.916 5.077-1.413 1.604-2.69 3.57-3.795 5.81l.55-2.764 2.66-3.07 4.106-4.737h-21.55l-.28 2.56-1.983 18.78-2.85-9.17-3-9.67-2.48 9.82-2.323 9.12-2.66-18.972-.348-2.47H252.1l2.133 2.374c-2.547-1.57-6.18-2.486-10.144-2.486h-16.26l.01-.084h-36.45l1.65 3.964 2.773 6.69.03 3.29c-2.608-12.58-14.536-14.14-18.28-14.29-3.67-.16-9.567.027-13.09.137l-1.697.05-4.45.13s0 .017.01.02h-15.83l-.413 2.36-2.764 15.64-2.71-15.633-.41-2.37H99.15l.632-4.74.43-3.24H59.19l.428 3.24 1.762 13.22.678 5.13 3.972-3.31 6.025-5.013.145-.01.22 50.264-2.736 8.538-1.205 3.73h22.9l-1.21-3.737-2.77-8.603.44-49.768 5.53 4.6 3.96 3.31.684-5.13.153-1.18.43.79.22 45.39-2.27 7.064-1.2 3.73h11.68l-.02.026h21.81l.263-2.57 1.72-17.16 5.435 21.09.6 2.287h4.31l.62-2.26 5.853-21.99 1.808 18.035.265 2.57h15.137v.036h2.78c.817 0 1.8.05 2.854.09 6.2.248 15.57.628 21.464-5.53 1.82-1.9 3.19-4.33 4.103-7l.01 1.217-2.28 7.48-1.125 3.693h32.52l-.01.023h44.39l-1.96-4.093-12.78-26.73c2.03-1.94 5.022-5.578 5.823-10.82.3-1.93.413-3.7.404-5.306l9.885 48.167.498 2.42h4.266l.715-2.05 5.71-16.193L287.78 403l.718 2.05h4.282l.477-2.446 5.88-29.523c.17 9.97 2.545 17.87 6.93 22.87 3.19 3.617 7.265 5.53 11.807 5.53 4.538 0 8.61-1.913 11.82-5.532 2.65-3.03 4.545-7.13 5.693-12.084.01 3.29.02 5.77.03 6.723l-2.273 7.07-1.205 3.73h31.4V379.64l-4.457 3.026-7.86 5.347-.5.015V345.26l1.655-3.092 2.65 3.19 14.81 57.42.59 2.288h4.323l.61-2.26 14.2-53.3.2 40.72-2.27 7.48-1.13 3.69h35.62v-2.982c2.173 2.163 9.497 8.436 19.61 5.95 10.675-2.625 12.87-11.366 13.595-14.247 2.232-8.95-.53-15.134-3.18-19.51-2.95-4.895-6.69-8.41-9.987-11.52z" id="Shape" fill="#005083"/><path d="M180.885 387.113c-.418.35-1.04.58-1.695.718v-12.57c.576.18 1.144.43 1.603.78 1.225.95 2.644 2.93 2.552 5.32-.144 3.36-1.383 4.83-2.46 5.77m1.647-13.344c-2.474-1.916-6.19-1.772-6.19-1.772v18.84s4.058.455 6.404-1.567c2-1.714 3.29-4.08 3.44-7.804.137-3.485-1.86-6.305-3.654-7.7" id="Shape" fill="#005083"/><path d="M179.397 351.256c1.568.36 2.644 1.368 2.77 4.717.076 1.883-.322 3.245-1.183 4.065-.448.424-1.01.7-1.587.883v-9.66zm5.633 4.604c-.295-7.313-4.907-7.538-7.474-7.69-.24-.008-.46-.024-.67-.038l-.34-.02v15.955s8.846.993 8.484-8.207z" id="Shape" fill="#005083"/><path d="M321.52 387.283c-.998 1.144-2.183 1.758-3.42 1.758-4.275 0-7.154-9.31-7.154-19.4 0-7.76 1.703-14.71 4.333-17.7.87-1.01 1.84-1.51 2.82-1.51 1 0 1.95.51 2.86 1.518 2.62 2.99 4.32 9.94 4.32 17.703 0 6.906-1.39 14.935-3.77 17.644m-3.64-47.42c-2.73 0-5.4 1.416-7.767 4.1-5.024 5.72-8.144 16.45-8.144 28.02 0 9.805 2.142 17.43 6.247 22.084 2.62 2.985 5.97 4.56 9.657 4.56 3.7 0 7.04-1.576 9.68-4.56 4.076-4.65 6.238-12.28 6.238-22.082.003-17.71-7.142-32.122-15.913-32.122" id="Shape" fill="#FFF"/><path d="M305.215 340.185H292.49l-3.448 32.563-6.947-22.393-5.89 23.186-4.684-33.35H258.5l3.253 3.64 11.957 58.25 8.392-23.85 8.38 23.854 11.59-58.25 3.148-3.635z" fill="#FFF"/><path d="M154.393 344.373l2.64-4.382h-12.12l-5.593 31.69-5.504-31.68H120.69l3.445 4.38-7.66 50.167-3.054 3.686-2.33-7.234v-46.5l2.44-4.503H99.07l2.4 4.504.22 46.56-2.41 7.48h13.866l-.024.04h13.13l3.32-33.1 9.44 36.604 9.896-37.115 3.365 33.61h13.14l-3.366-4.04-7.654-50.155z" fill="#FFF"/><path d="M182.748 389.27c-2.352 2.027-6.41 1.573-6.41 1.573v-18.85s3.716-.133 6.196 1.783c1.792 1.387 3.793 4.207 3.647 7.697-.14 3.718-1.43 6.085-3.43 7.797zm-6.203-40.833v-.324l.34.02c.21.015.435.03.67.044 2.57.145 7.18.37 7.475 7.677.362 9.204-8.485 8.218-8.485 8.218v-15.635zm9.934 19.912l-.5-.24.48-.29c.08-.05 8.08-5.32 6.86-14.68-1.45-11.37-11.18-13.31-15.88-13.51-4.27-.187-11.84.11-14.59.182l3.43 6.914 1.33 51.86c5.556 0 16.307 1.635 22.25-4.57 3.66-3.81 5.28-10.168 4.27-15.875-.52-2.95-3.31-7.58-7.665-9.807z" fill="#FFF"/><path d="M401.825 390.982l.22-21.34 9.266 3.264 4.22-9.024h-13.48l-.01-.31-.21-15.947-.01-.396.39.08 9.6.09 4.69 4.07 1.595-11.49h-27.66l.01-.01h-12.13l-5.59 33.36-5.492-33.364h-13.15l3.36 4.04 14.97 58.045 15.476-58.046 1.802-2.86 2.53 6.033.21 43.446-2.41 7.895h28.91v-13.49l-8.552 5.805-8.55.14z" fill="#FFF"/><path d="M208.297 390.982l.225-21.34 9.26 3.264 4.216-9.024h-13.48l-.006-.31-.215-15.947v-.396l.372.08 9.6.09 4.68 4.07 1.595-11.49h-28.88l3.006 7.21.22 43.44-2.41 7.89h28.91v-13.49l-8.552 5.807-8.553.14z" fill="#FFF"/><path d="M347.67 344.552l2.44-4.56h-15.575l3.517 4.456.04 3.93v.08l.19 42.595-2.412 7.488h24.636v-13.5l-8.56 5.82-4.275.13v-46.43z" fill="#FFF"/><path d="M241.766 364.515l-.33.006.008-.33.428-15.72.006-.25.24-.05c2.437-.48 4.428-.09 5.913 1.19 1.65 1.42 2.32 3.73 2.24 5.27-.13 2.94-1.25 9.79-8.5 9.9m12.05-21.596c-1.91-1.744-5.6-2.85-9.72-2.85h-15.99l3.57 7.54.315 45.645-2.407 5.31h14.25l-2.352-4.86-.41-19.61 1.497-.28 9.817 19.89-1.88 4.86h14.51l-13.756-28.72s5.494-3.68 6.533-10.495c1.446-9.504-1.584-14.25-3.98-16.433" fill="#FFF"/><path d="M432.76 352.934c-1.038-2.056-1.605-6.028-.68-8.91.568-1.782 1.993-3.907 5.553-3.827 2.91.064 4.643 2.372 4.643 2.372l2.46 8.1 6.31-12.79s-7.123-8.28-17.458-5.74c-7.953 1.96-10.255 8.98-11.013 12.89-.627 3.27.15 8.29 2.442 12.35 4.156 7.42 14.59 15.985 17.01 20.862 1.506 3.01 3.298 7.42 1.007 11.575-.877 1.59-3.838 3.982-6.35 3.703-2.9-.32-4.642-2.366-4.642-2.366l-2.463-8.098-6.3 12.78s7.11 8.273 17.44 5.732c7.96-1.958 10.35-7.59 11.5-12.16 1.83-7.348-.01-12.638-2.85-17.345-5.3-8.75-13.54-13.035-16.62-19.15" fill="#FFF"/><path d="M64.206 345.226l6.795-5.65 4.05-.094.23 53.627-2.87 8.95h15.07l-2.915-9.04.47-53.54 3.38.09 6.8 5.65 1.75-13.22H62.45l1.756 13.215z" fill="#FFF"/><path d="M143.522 264.385l-.108.184 4.67 8.61c-1.034.62-2.37 1.04-3.478 1.31-1.164.28-2.067.4-2.067.4l15.63 26.34h5.59l-2.74-12.728h6.49l-8.44-24.1 4.87-.643-9.43-29.395-13.74 25.33 2.504 4.61.234.064z" fill="#00A94F"/><path d="M104.442 320.147l6.445-18.813 21.413.025-10.25-31.6 6.404-.86-12.378-38.63-20.634 38.03 6.184 1.38-18.41 31.614 7.144.01-10.55 18.827h24.632z" fill="#00A94F"/><path d="M182.155 292.423h-.006l4.65 8.82h7.88l-3.74-17.346h5.33l-6.936-19.773 4-.534-7.735-24.127-10.835 19.967 4.11 7.593c-.784.48-1.805.803-2.646 1.007-.888.22-1.577.3-1.577.3l13.33 22.464c-1.408.843-4.74 1.443-5.628 1.588-.11.027-.19.036-.215.04" fill="#00A94F"/><path d="M350.07 263.675l-4.512 7.648-9.298 15.675 5.81.9-3.838 7.27-3.208 6.07h22.92l1.267-12.704 6.13-.41-3.74-24.344 4.99-.653-5.89-28.748-15.546 28.64 4.93.65z" fill="#00A94F"/><path d="M329.582 239.485l-12.747 23.496 4.057.53-3.708 6.29-7.632 12.86 4.772.75-3.16 5.965-6.276 11.878h20.06l1.843-18.41 5.04-.33-2.48-19.37 4.08-.54-3.834-23.1z" fill="#00A94F"/><path d="M407.893 327.685l8.552-.124s3.16-5.28 7.485-6.97l-9.44-19.96 6.33-1.26c-3.05-5.63-10.543-22.67-13.814-29.65l6.04-.803-13.91-38.62-20.42 37.644 6.477.845-17.71 32.473 30.267.117 10.143 26.33z" fill="#00A94F"/></g></svg>