<svg width="512" height="512" viewBox="0 0 512 512" xmlns="http://www.w3.org/2000/svg"><title>new-orleans-pelicans</title><g fill="none" fill-rule="evenodd"><path d="M472.918 218.25l1.315.55v-24.52c0-3.83-.657-7.662-1.972-11.384-1.314-3.722-3.286-7.334-5.697-10.508-2.19-2.956-4.82-5.583-7.67-7.88-2.52-1.972-5.37-3.723-8.328-5.036-1.862-1.204-5.697-3.065-15.778-7.006-8.546-3.393-22.462-8.538-40.322-13.792-16.326-4.925-37.364-10.29-60.703-14.12-.11-.22-15.778-19.812-39.446-9.632-.767.328-1.534.766-2.41 1.094-3.507 1.752-6.575 3.175-12.6 1.642-3.508-.985-8-3.065-6.137-10.946.437-1.75 1.752-4.16 3.943-5.363 1.534-.877 3.068-1.096 4.822-.55 3.177.877 4.492 2.628 4.054 5.255-.22.986-.878 1.97-1.864 2.3-.986.437-2.082.218-3.287-.658-1.097-.766-2.63-.438-3.508.657-.767 1.095-.438 2.627.658 3.503 2.63 1.75 5.48 2.19 8 1.094 2.41-.984 4.272-3.392 4.82-6.02.33-1.97.767-8.427-7.56-10.835-3.07-.876-6.027-.548-8.766 1.094-3.068 1.75-5.48 5.144-6.246 8.537 0 .11 0 .22-.11.328-.986-1.423-1.972-2.517-2.52-2.955l-8.108-8.32-8.108 8.32c-.548.547-1.425 1.532-2.52 2.955 0-.11 0-.22-.11-.328-.767-3.393-3.287-6.786-6.246-8.538-2.63-1.533-5.697-1.97-8.765-1.095-8.327 2.408-7.89 8.866-7.56 10.836.438 2.628 2.3 5.036 4.82 6.02 2.52 1.096 5.37.658 8-1.093 1.096-.766 1.425-2.3.658-3.503-.767-1.095-2.302-1.423-3.507-.657-1.204.876-2.3 1.095-3.286.657-.877-.328-1.644-1.313-1.863-2.3-.437-2.626.878-4.268 4.055-5.253 1.754-.546 3.288-.327 4.822.55 2.19 1.203 3.506 3.61 3.944 5.362 1.864 7.88-2.628 10.07-6.135 10.946-6.026 1.642-8.985.11-12.6-1.642-.768-.438-1.535-.766-2.41-1.094-23.56-10.07-39.228 9.413-39.447 9.632 0 0 0 .11-.11.11-22.462 3.83-42.623 8.866-58.51 13.572-30.462 8.867-54.896 20.032-55.882 20.47l-3.178 1.422v.548c-1.424.22-2.85.656-4.273 1.313-5.26 2.407-10.41 4.925-15.34 7.442l-3.835 1.97v13.355c0 3.174.657 5.8 1.862 7.99.22.438.548.876.877 1.314v14.778c-1.645 3.284-2.63 6.677-2.63 9.85 0 3.285.876 6.13 2.63 8.32v30.758l.328.876c.22.657 5.15 13.792 19.723 19.155l-.438.22s7.67 12.478 19.723 15.105l-2.3.985s8.436 13.573 24.762 16.528l-2.41 1.204s10.52 11.383 26.954 13.463c17.423 54.073 68.265 93.37 128.09 93.37 59.937 0 110.668-39.297 128.09-93.37 16.436-2.08 26.955-13.464 26.955-13.464l-2.41-1.205c16.326-2.846 24.763-16.528 24.763-16.528l-2.3-.985c11.942-2.627 19.72-15.106 19.72-15.106l.768-.985c13.697-5.8 21.586-19.154 21.586-31.742v-15.762c.658-3.83-.22-7.662-1.534-11.275m-147.483-95.228c-9.643-1.423-19.614-2.627-29.804-3.394.33-.11.55-.328.878-.437 13.258-5.582 23.448-.437 28.927 3.832M219.26 119.3c.328.11.657.328.876.438-10.19.766-20.27 1.97-29.913 3.393 5.48-4.268 15.778-9.522 29.036-3.83" fill="#B4975A"/><path d="M461.632 207.853l7.232 2.955v-16.42c0-3.283-.548-6.457-1.644-9.63-1.095-3.285-2.848-6.24-4.93-9.086-1.973-2.518-4.164-4.817-6.684-6.787-2.3-1.86-4.93-3.393-7.56-4.597-1.425-.985-5.15-2.846-15.012-6.677-8.437-3.392-22.243-8.428-39.775-13.682-29.037-8.647-72.756-18.827-118.23-19.483-1.094-3.175-3.724-5.473-7.12-6.35-.44-5.91-4.712-10.617-5.59-11.492l-4.272-4.27-4.273 4.27c-.877.875-5.15 5.582-5.59 11.493-3.395.766-6.025 3.174-7.12 6.24-44.816.765-87.658 10.726-116.147 19.155-30.35 8.867-55.224 20.25-55.224 20.25v3.394l-.657-.33c-.877-.436-1.754-.655-2.74-.655-1.315 0-2.63.327-4.054.984-5.04 2.408-10.19 4.816-15.23 7.334l-.767.437v10.07c0 2.19.438 3.94 1.205 5.255.44.766.987 1.423 1.535 1.86v18.28c-1.644 2.737-2.63 5.802-2.63 8.43 0 2.735.877 4.815 2.63 6.238V257s4.82 13.354 20.052 16.857c.328.11.767.22 1.095.22h.11c2.41.546 5.04.765 7.89.546-2.74 1.313-5.37 2.627-8.11 4.05 0 .22 8 13.245 27.284 11.384-3.178 1.532-6.355 3.065-9.642 4.707 0 .218 9.313 13.135 29.584 12.697-4.71 2.41-7.56 3.832-7.45 3.832 0 .11 9.203 8.976 24.543 9.96 15.89 53.09 65.197 91.837 123.598 91.837 58.402 0 107.71-38.75 123.597-91.837 15.34-1.095 24.544-9.96 24.544-9.96s-2.85-1.534-7.452-3.832c20.27.33 29.585-12.587 29.585-12.696-3.178-1.642-6.355-3.175-9.642-4.707 19.285 1.86 27.284-11.275 27.284-11.384-2.63-1.423-5.37-2.737-8.108-4.05 6.574.438 11.943-1.314 15.997-3.83 10.3-5.584 15.888-16.31 15.888-25.505v-15.762c0-10.07-7.998-21.673-7.998-21.673" fill="#002B5C"/><path d="M343.733 332.2l7.232 5.58c0-.218-28.708 7.882-49.088-1.094-.767-.328-1.425-.656-2.192-1.094-5.04 18.28-21.914 31.853-41.856 31.853-19.943 0-36.708-13.464-41.858-31.853-.767.328-1.424.766-2.19 1.094-20.49 8.976-49.2.876-49.09 1.095l7.232-5.58c-9.97 1.422-19.175-.33-25.53-2.3 17.97 43.784 61.14 74.65 111.435 74.65 50.292 0 93.463-30.866 111.433-74.65-6.355 1.97-15.56 3.83-25.53 2.3" fill="#E31837"/><path d="M245.885 136.704c-2.19-1.095-3.835-2.955-4.82-5.254-72.21 1.86-144.197 27.803-144.088 28.788-3.177 1.204-4.82 3.94-4.82 5.692v2.517c49.745-19.265 101.682-29.444 153.728-30.758v-.986z" fill="#FFF"/><path d="M423.173 161.99c.11-.986-75.495-28.68-148.58-30.54-.876 2.3-2.52 4.16-4.71 5.254v.985c53.58 1.532 107.05 12.368 158.22 32.618v-2.517c-.11-1.86-1.753-4.597-4.93-5.8" fill="#FFF"/><path d="M265.718 123.57c-4.712-.548-5.48 6.13-5.588 8.318h-1.534c0-6.35 3.068-8.866 3.068-13.135 0-4.27-3.945-8.21-3.945-8.21s-3.945 3.94-3.945 8.21c0 4.27 3.068 6.786 3.068 13.135h-1.534c-.11-2.3-.878-8.866-5.59-8.32-5.04.658-4.492 7.663 0 8.21 0 0-.876-3.064 1.644-3.064 1.863 0 2.3 2.08 2.41 3.283h-2.3v2.408H256.404c-.657 2.3-2.19 3.065-2.19 3.065s.656 1.314 2.08 1.533c0 0 0 1.642 1.316 2.955 1.314-1.313 1.314-2.955 1.314-2.955 1.425-.22 2.082-1.533 2.082-1.533s-1.534-.656-2.19-3.065H263.745v-2.408h-2.3c.108-1.204.656-3.283 2.41-3.283 2.52 0 1.643 3.064 1.643 3.064 4.71-.547 5.258-7.552.218-8.21" fill="#E31837"/><path d="M242.598 172.278v-15.652c0-2.19-.438-4.05-1.205-5.692-.767-1.642-1.863-2.846-3.287-3.94-1.425-.986-3.068-1.752-4.93-2.08-1.864-.438-3.946-.548-6.027-.438-2.193.11-4.165.547-6.028 1.204-1.863.656-3.506 1.642-4.93 2.736-1.425 1.204-2.52 2.627-3.288 4.38-.767 1.75-1.205 3.61-1.205 5.8v15.653c-1.645.436-2.96 1.97-2.96 3.61 0 1.643 1.315 2.956 2.96 2.956v17.514c0 2.19.437 4.05 1.204 5.582.767 1.533 1.863 2.846 3.287 3.722 1.426.985 3.07 1.642 4.932 1.97 1.863.328 3.945.438 6.027.328 2.19-.11 4.162-.547 6.025-1.094 1.863-.657 3.506-1.533 4.93-2.627 1.425-1.094 2.52-2.517 3.288-4.16.767-1.64 1.205-3.61 1.205-5.69v-17.514c1.753-.22 3.068-1.642 3.068-3.393 0-1.752-1.315-3.065-3.068-3.175zm-8.656 24.08c0 1.096-.22 2.08-.657 2.957-.44.766-.987 1.423-1.534 1.97-.657.547-1.314.876-2.19 1.204-.768.328-1.644.437-2.41.546-.878.11-1.645 0-2.522-.218-.767-.11-1.534-.438-2.19-.876-.658-.438-1.206-.985-1.535-1.75-.438-.768-.657-1.643-.657-2.847v-39.077c0-1.095.22-2.08.657-2.956.438-.766.986-1.423 1.534-1.97.657-.547 1.424-.985 2.19-1.204.768-.33 1.645-.438 2.522-.547.875 0 1.642 0 2.41.22.766.218 1.533.547 2.19.985.658.437 1.206 1.094 1.535 1.75.438.767.657 1.643.657 2.847v38.967z" fill="#FFF"/><path d="M77.145 214.31c0 .22 0 .22-.11.11l-.22-.22c-.218-.655-10.518-34.807-11.066-36.34-.548-1.532-.768-2.407-.768-2.517-.11-.547-.438-.875-.767-.985-.328-.22-.876-.11-1.424.22-3.067 1.422-6.135 2.845-9.203 4.377v2.846c0 .986.11 1.643.438 2.19.22.438.658.767.986.986.33.22.878.328 1.426.22v26.05c-1.534.985-2.63 2.955-2.63 4.597 0 1.642 1.096 2.408 2.63 1.97v36.67c2.41-1.205 4.82-2.3 7.232-3.394v-46.083c0-.33 0-.548.11-.438.11 0 .11.108.218.218 0 0 .22.876.767 2.408.548 1.532 10.63 35.027 10.738 35.246.22.876.55 1.532.878 1.97.33.547.767.547 1.534.33 1.643-.658 3.177-1.315 4.82-1.972.658-.22 1.206-.656 1.535-1.313.33-.548.548-1.204.548-1.752v-34.48c1.315-.984 2.41-2.626 2.41-4.16 0-1.53-.986-2.407-2.41-2.297v-25.504c0-.548.11-.986.33-1.205.108-.33.327-.548.546-.876.44-.548.878-1.204 1.316-1.97.44-.767.658-1.642.658-2.628v-2.627c-3.397 1.313-6.794 2.736-10.08 4.268v46.083h-.44z" fill="#FFF"/><path d="M418.023 214.858c0 .22 0 .22-.11 0-.11-.11-.11-.328-.22-.438-.218-.875-.656-2.517-1.314-4.925-.658-2.518-1.425-5.364-2.302-8.538-.876-3.284-1.753-6.677-2.74-10.18-.985-3.612-1.862-6.896-2.74-9.85-.875-2.957-1.533-5.474-2.08-7.554-.548-2.08-.877-3.065-.877-3.174-.11-.658-.437-1.205-.766-1.534-.33-.438-.877-.766-1.534-.985-3.178-1.094-6.355-2.08-9.642-3.064v2.846c0 .985.11 1.752.438 2.518.33.656.657 1.313.986 1.75.438.548.877.986 1.425 1.424v20.25c-1.534-.22-2.74.766-2.74 2.408s1.206 3.393 2.74 4.16v29.773c2.52.766 4.93 1.64 7.45 2.408v-40.83c0-.327 0-.437.11-.437.11.11.11.22.22.33 0 .108.218 1.093.876 3.064.548 1.97 1.315 4.488 2.082 7.443.876 2.955 1.753 6.24 2.74 9.632.985 3.503 1.862 6.787 2.738 9.852.877 3.065 1.644 5.692 2.192 7.88.657 2.19.986 3.504 1.095 3.832.33 1.094.548 1.97.877 2.735.33.767.877 1.204 1.534 1.533 1.645.547 3.288 1.204 4.822 1.86.658.22 1.205.22 1.534-.11.33-.327.548-.765.548-1.312V210.15c1.315.11 2.41-.765 2.41-2.297 0-1.533-.986-3.175-2.41-4.16V183.99c0-.437.11-.875.33-.985.108-.22.327-.328.547-.437.44-.11.877-.438 1.315-.876.44-.438.658-1.204.658-2.19v-2.517c-3.397-1.313-6.794-2.627-10.19-3.83v41.703z" fill="#FFF"/><path d="M460.646 221.316c-.986-2.298-2.3-4.488-3.835-6.677-1.314-1.752-2.63-3.504-4.163-5.255.11-.22.11-.547.11-.766 0-1.862-1.425-4.05-3.178-4.817-.768-.33-1.425-.33-2.083-.11-.22-.328-.547-.657-.767-.875-1.534-1.752-2.848-3.394-3.835-4.817-1.095-1.53-1.534-2.735-1.534-3.94V180.49c0-.657.22-1.095.55-1.423.328-.33.876-.547 1.533-.547.548-.11 1.206-.11 1.863.11.657.108 1.315.327 1.863.546.547.22 1.204.548 1.86.985.66.437 1.316.985 1.864 1.532s1.096 1.204 1.425 1.86c.437.657.546 1.424.546 2.08v3.175c0 1.313.44 2.736 1.425 4.05.878 1.313 2.083 2.298 3.398 2.955 1.205.547 2.41 1.204 3.616 1.752v-6.24c0-2.19-.33-4.27-1.096-6.24-.658-1.97-1.644-3.83-2.96-5.472-1.313-1.642-2.738-3.174-4.49-4.488-1.754-1.313-3.617-2.408-5.59-3.393-1.972-.875-3.944-1.53-5.587-1.75-1.753-.22-3.177-.11-4.492.438-1.315.547-2.3 1.423-2.958 2.736-.767 1.314-1.096 3.174-1.096 5.473v11.165c0 2.408.548 4.707 1.534 6.786.986 2.08 2.3 4.16 3.835 6.02 1.534 1.86 3.178 3.722 4.93 5.474-.218.328-.328.766-.328 1.204 0 1.86 1.424 3.94 3.178 4.816.986.438 1.862.328 2.41-.11 1.425 1.642 2.52 3.284 3.506 5.036.986 1.86 1.534 3.612 1.534 5.582v16.09c0 .767-.22 1.314-.658 1.752-.438.438-.986.657-1.644.766-.657.11-1.424.11-2.08 0-.768-.11-1.535-.328-2.193-.657-.658-.327-1.425-.765-2.192-1.312-.767-.547-1.425-1.204-2.082-1.86-.658-.658-1.205-1.424-1.534-2.19-.438-.766-.658-1.533-.658-2.19v-3.72c0-1.314-.328-2.52-1.095-3.504-.768-.985-1.864-1.86-3.398-2.517l-3.945-1.642v6.458c0 2.19.44 4.27 1.206 6.13.767 1.97 1.862 3.72 3.287 5.363 1.315 1.642 2.958 3.065 4.71 4.38 1.864 1.312 3.727 2.407 5.81 3.282 1.97.876 3.943 1.533 5.696 1.86 1.863.33 3.397.33 4.712-.108s2.41-1.204 3.287-2.408c.767-1.204 1.206-2.956 1.206-5.145v-15.324c.11-2.19-.438-4.488-1.424-6.787" fill="#FFF"/><path d="M171.377 184.32c-.33 3.064-.658 6.02-1.096 8.975-.328 2.955-.657 5.582-.985 7.77-.33 2.3-.548 4.16-.658 5.474-.22 1.422-.328 2.08-.328 2.08-.66-4.05-1.316-7.663-1.864-10.838-.548-3.174-1.205-6.786-1.863-10.727-.657-3.94-1.315-7.88-2.082-11.602-.656-3.83-1.314-7.334-1.97-10.618-.658-3.284-1.097-5.8-1.645-7.77-.11-.55-.657-.987-1.643-1.206-.986-.22-1.863-.22-2.85 0-.876.218-1.752.547-2.738 1.094s-1.534 1.204-1.644 1.97c-.438 1.97-.986 4.707-1.644 8.32-.657 3.502-1.205 7.333-1.972 11.492-.657 4.16-1.315 8.32-1.972 12.588-.658 4.27-1.315 8.21-1.863 11.603-.55 3.503-1.206 7.443-1.864 11.822 0 0-.22-.658-.438-1.972-.22-1.313-.438-3.064-.657-5.254-.218-2.19-.547-4.597-.876-7.333-.33-2.736-.657-5.582-.986-8.428-.767-6.786-3.616-31.086-3.616-31.086-3.506.985-7.012 1.97-10.41 3.065v2.518c0 .985.22 1.75.55 2.19.437.547.875.875 1.314.984.328.11.547.33.767.548.22.22.438.547.547.985.877 6.896 1.534 13.244 2.3 19.046-1.204.876-2.08 2.3-2.08 3.722 0 1.642 1.205 2.737 2.848 2.518v.328c.44 3.284.767 6.458 1.206 9.523.328 3.066.657 5.912.986 8.32.33 2.408.548 4.488.767 6.02.22 1.533.33 2.41.33 2.518.108.438.218.876.546 1.204.33.33.767.438 1.315.33 3.287-.877 6.465-1.753 9.752-2.52.658-.108 1.096-.437 1.425-.875.328-.438.657-1.094.986-1.86 2.41-14.45 4.932-29.007 7.342-43.456 2.41 13.355 4.82 26.71 7.232 40.063.33.657.548 1.204.986 1.423.33.22.877.33 1.424.22 3.288-.658 6.465-1.314 9.752-1.862.548-.11.986-.438 1.315-.875.33-.44.55-.986.55-1.424 0-.11.11-.985.328-2.627.22-1.643.438-3.723.767-6.35.328-2.627.657-5.473 1.095-8.757.33-3.284.767-6.567 1.206-10.07v-.328c1.643-.548 2.85-2.08 2.85-3.83 0-1.424-.878-2.41-2.083-2.738.767-6.13 1.534-12.916 2.3-20.14.11-.438.33-.876.55-1.205.218-.328.546-.656.766-.875.437-.33.875-.876 1.313-1.533.44-.656.658-1.532.658-2.517v-2.627c-3.505.547-7.12 1.204-10.628 1.86 0 .11-2.848 25.614-3.615 32.73" fill="#FFF"/><path d="M385.918 193.295c0-1.642-1.205-3.394-2.85-4.05-.437-2.41-.766-4.707-1.204-7.006-.548-3.285-.986-6.13-1.424-8.758-.44-2.627-.767-4.706-1.096-6.458-.33-1.642-.438-2.627-.438-2.846-.11-1.094-.548-2.08-1.315-3.064-.766-.986-1.862-1.642-3.177-1.97-3.835-.986-7.67-1.97-11.505-2.847v1.97c0 2.41.767 4.16 2.19 5.036.33.22.44.438.44.875 0 .33 0 .767-.11 1.204 0 .11-.11.767-.438 2.08-.22 1.314-.658 3.065-1.096 5.145-.438 2.08-.876 4.488-1.424 7.224-.22 1.315-.548 2.628-.767 3.942-1.863-.438-3.287.766-3.287 2.627 0 1.422.876 2.735 2.08 3.61-1.642 8.32-5.587 28.57-5.587 28.68 2.74.546 5.478 1.203 8.217 1.86 0 0 2.41-13.9 2.41-14.12.11-1.095.658-1.533 1.535-1.314 3.287.766 6.574 1.642 9.86 2.518.55.11.987.328 1.316.657.33.33.548.876.658 1.533 0 .328 1.972 15.215 1.972 15.215 2.85.766 5.698 1.642 8.656 2.517 0 0-3.506-21.125-5.26-31.633.987-.438 1.644-1.314 1.644-2.627m-8.656 6.677c-.22.22-.548.328-.986.22-2.74-.768-5.37-1.424-8.108-2.08-.33-.11-.658-.33-.877-.548-.218-.33-.328-.657-.218-1.095 0-.11.11-.548.22-1.424.11-.876.328-1.97.547-3.393.218-1.314.437-2.956.766-4.598.33-1.75.548-3.502.986-5.254.877-4.705 1.753-9.522 2.63-14.228h.22c.875 5.144 1.752 10.398 2.52 15.543.328 1.97.656 3.94.985 5.8.33 1.862.548 3.504.767 5.036.22 1.534.438 2.738.658 3.723.22.985.22 1.423.22 1.532 0 .22-.11.438-.33.767" fill="#FFF"/><path d="M281.168 202.27c-.33-.22-.548-.328-.767-.547-.22-.11-.328-.547-.328-1.095V185.96c0-2.08-.33-4.05-.986-5.8-.658-1.752-1.644-3.175-2.96-4.16-.656-.657-.656-1.204-.218-1.75 1.205-.877 2.19-2.08 2.958-3.614.768-1.532 1.096-3.174 1.096-4.925v-6.786c0-2.08-.22-4.05-.767-5.8-.548-1.752-1.315-3.285-2.52-4.598-1.096-1.314-2.63-2.3-4.383-3.065-1.753-.765-3.944-1.203-6.465-1.203-6.026-.11-12.052-.11-18.188 0v2.517c0 1.204.218 2.08.656 2.737.438.658.877 1.095 1.315 1.314.22.11.44.33.658.548.22.22.22.656.22 1.094v19.593c-1.535.328-2.74 1.75-2.74 3.283s1.205 2.956 2.74 3.175v29.663h8.656v-28.24c0-.766.328-1.204 1.095-1.204 1.862 0 3.615 0 5.478.11 1.863 0 3.287.657 4.054 1.75.877 1.096 1.315 2.738 1.315 4.708v18.827c0 1.205.33 2.3 1.096 3.066.767.766 1.862 1.204 3.396 1.313 2.41.11 4.82.218 7.34.328v-3.284c0-.985-.218-1.75-.657-2.19-.22-.437-.657-.765-1.095-1.094zm-9.862-36.778c0 1.97-.438 3.612-1.315 4.816-.875 1.204-2.19 1.75-4.053 1.75s-3.725 0-5.588-.108c-.22 0-.44-.11-.66-.22-.218-.218-.327-.437-.327-.656v-18.28c0-.766.438-1.203 1.424-1.203 1.753 0 3.506 0 5.15.11 1.863 0 3.287.657 4.054 1.86.878 1.205 1.316 2.737 1.316 4.817v7.115z" fill="#FFF"/><path d="M308.67 185.96c-.877.33-1.315 1.095-1.315 2.41 0 .327.11 14.885-.11 15.104-.22.33-.547.438-.876.33-2.52-.22-5.15-.55-7.67-.768-.44 0-.658-.218-.878-.547-.22-.33-.22-.767-.22-1.205 0-15.653 0-31.415-.108-47.067 0-.657.11-1.095.22-1.314.108-.22.328-.438.656-.547.44-.33.986-.766 1.425-1.314.438-.547.657-1.313.657-2.298v-2.627c-4.93-.438-9.752-.876-14.682-1.095v2.518c0 .986.22 1.752.657 2.41.438.655.986 1.203 1.424 1.53.33.22.55.44.66.658.218.22.218.657.218 1.313v19.485c-1.534.22-2.74 1.423-2.74 3.065s1.206 3.065 2.74 3.503v29.663c7.78.548 15.45 1.204 23.23 2.19.547.11 1.204.11 1.752.218.44.11.877-.11 1.425-.438.438-.328.657-.875.657-1.532V186.07c-1.205-.11-2.41-.328-3.725-.438-1.315 0-2.52 0-3.397.33" fill="#FFF"/><path d="M117.686 165.93c-.11 0-.328 0-.438.11h-.11c-8.984 2.845-17.86 6.02-26.735 9.413v2.517c0 1.095.11 1.97.438 2.518.33.547.768.766 1.316.876.33.11.548.218.767.437.22.22.33.55.33 1.096v19.374c-1.535.876-2.63 2.627-2.63 4.27 0 1.64 1.095 2.517 2.63 2.298v29.554c.766-.22 1.423-.547 2.19-.766 3.835-1.423 7.67-2.846 11.505-4.16 1.644-.547 3.288-1.094 4.93-1.642 1.206-.438 2.52-.766 3.727-1.204.547-.11.986-.328 1.534-.438h.108l.658-.328c.328-.22.547-.438.767-.766.438-.547.657-1.095.657-1.752V209.276c-1.205.328-2.41.766-3.616 1.094-1.205.438-2.41.985-3.287 1.642-.877.657-1.315 1.642-1.315 2.956 0 .328.11 9.304-.11 9.74-.22.33-.438.658-.876.768-1.096.328-2.19.766-3.287 1.094-1.535.548-2.96.985-4.494 1.533-.657.22-.986 0-.986-.876v-19.922c0-.766.438-1.313 1.205-1.64 3.397-1.206 6.794-2.41 10.19-3.504.877-.328 1.316-.765 1.316-1.64v-4.817c0-.438-.11-.767-.438-.876-.328-.11-.657-.11-.876 0-3.397 1.095-6.684 2.3-10.08 3.393-.878.33-1.206 0-1.206-.766v-17.842c0-.328.11-.657.328-1.094.22-.33.548-.548.767-.657 2.63-.984 5.37-1.86 8.11-2.736.108 0 .218.11.328.22.22.218.11 9.303.11 9.632 0 1.313.437 2.08 1.314 2.19.877.108 2.082-.11 3.287-.44 1.205-.327 2.41-.765 3.616-1.094V167.243c0-.438-.22-.766-.657-1.094-.22-.22-.548-.22-.987-.22" fill="#FFF"/><path d="M347.678 153.014c-.11-.11-.33-.11-.44-.11h-.108c-9.204-1.75-18.408-3.284-27.612-4.597v2.517c0 1.095.11 2.08.438 2.737.33.658.767 1.205 1.315 1.533.33.22.55.438.768.766.22.328.328.766.328 1.204v19.374c-1.534.11-2.74 1.313-2.74 2.846 0 1.532 1.206 3.174 2.74 3.72v29.665c.768.108 1.535.218 2.302.327 3.944.548 7.998 1.204 11.943 1.86 1.644.33 3.398.548 5.04.877 1.316.22 2.52.438 3.836.766.548.11 1.096.22 1.534.328h.877c.328 0 .548-.11.767-.328.438-.328.657-.766.657-1.423v-18.061c-1.204-.22-2.41-.438-3.615-.766-1.315-.22-2.52-.328-3.396 0-.878.22-1.316.985-1.316 2.3 0 .327.11 9.412-.11 9.63-.22.22-.548.33-.876.33-1.096-.22-2.192-.438-3.288-.548-1.534-.22-3.068-.547-4.602-.766-.657-.11-1.095-.547-1.095-1.314v-19.92c0-.767.438-1.096 1.315-.986 3.506.547 7.012 1.204 10.41 1.86.875.11 1.314-.11 1.314-.985v-4.815c0-.438-.11-.766-.44-1.094-.327-.218-.656-.437-.875-.437-3.506-.657-6.903-1.204-10.41-1.752-.876-.108-1.314-.655-1.314-1.422v-17.842c0-.328.11-.656.438-.875.22-.218.55-.328.878-.218 2.74.438 5.588.985 8.327 1.423l.33.328c.218.33.108 9.414.108 9.742 0 1.314.44 2.3 1.315 2.846.877.548 2.082.986 3.397 1.205 1.205.22 2.41.438 3.616.766v-18.497c0-.438-.218-.876-.547-1.423-.438-.33-.767-.548-1.205-.766" fill="#FFF"/><path d="M187.593 348.07l6.136 5.91c1.095.986 2.41 2.41 2.08 4.27-.108.876-.547 1.75-1.314 2.518-.876.985-1.862 1.313-2.63 1.423-1.753.22-2.958-.875-4.273-2.08l-3.506-3.283-3.616 3.722-2.41-2.3 9.533-10.18zm-1.863 6.787l3.068 2.955c.767.766 1.863 1.86 3.178.547.548-.548.658-1.095.658-1.533 0-.657-.44-.985-1.425-1.97l-2.74-2.737-2.74 2.737z" fill="#FFF"/><path d="M203.81 362.41l10.957 6.567-1.205 2.08-8-4.816-1.643 2.628 7.78 4.706-1.206 2.08-7.78-4.707-1.753 2.846 8.438 5.035-1.315 2.08-11.286-6.786 7.013-11.713z" fill="#FFF"/><path d="M222.985 372.48l3.287 1.094-3.616 10.618 7.232 2.408-.767 2.408-10.518-3.503 4.383-13.025z" fill="#FFF"/><path d="M241.83 377.624l3.398.548-2.082 13.463-3.397-.438 2.08-13.573z" fill="#FFF"/><path d="M270.868 387.585c-.22.876-.44 1.86-1.644 3.065-1.096 1.095-2.85 2.3-6.355 2.408-4.822.22-8.328-2.19-8.548-7.005-.22-5.145 3.835-7.444 8.11-7.662 1.533-.11 6.135.11 7.997 3.94l-3.726.658c-.438-.547-1.534-2.19-4.164-2.08-3.068.11-4.82 2.408-4.71 4.926.108 2.955 2.52 4.707 5.15 4.597 2.957-.108 3.834-1.86 4.162-2.735l3.726-.11z" fill="#FFF"/><path d="M283.03 375.545l3.616-1.095 10.19 11.274-3.725 1.095-1.862-2.19-6.793 1.97-.44 2.846-3.614 1.095 2.63-14.995zm3.287 3.502c-.11-.11-.22-.328-.328-.438-.11-.11-.22-.33-.22-.438v1.093l-.658 4.926 4.602-1.314-3.397-3.83z" fill="#FFF"/><path d="M299.904 369.524l2.96-1.75 9.64 3.064c1.206.438 1.425.547 2.74.985-.767-1.095-.986-1.314-1.534-2.408l-3.616-6.02 2.85-1.642 7.012 11.712-2.96 1.75-9.86-3.173c-1.096-.328-1.424-.547-2.63-.985.658.875.767 1.094 1.315 1.97l3.836 6.458-2.85 1.642-6.902-11.603z" fill="#FFF"/><path d="M328.174 361.205c1.753.657 3.506-.328 4.82-1.64.658-.55 2.412-2.52 1.206-3.723-.657-.657-1.534-.22-2.19.22-.44.327-2.85 1.97-3.398 2.297-1.096.766-3.725 2.517-5.917.218-.438-.437-.876-1.094-.986-1.75-.44-2.08.985-4.27 2.63-5.693 1.423-1.423 2.738-2.3 4.272-2.736 1.534-.44 2.63-.11 3.178 0l-1.753 2.845c-.22-.11-.767-.22-1.644 0-.986.328-1.863 1.094-2.3 1.532-1.097 1.095-1.973 2.3-1.097 3.284.658.658 1.315.22 2.3-.328.44-.328 2.85-1.86 3.398-2.298 1.315-.876 3.725-2.408 5.807-.22 3.07 3.175-.547 6.897-1.86 8.1-1.645 1.533-4.384 3.722-8.11 2.41l1.644-2.52z" fill="#FFF"/><path d="M241.94 295.53s-49.197-16.42-27.83-68.74c0 0-51.937 2.188-123.27 30.867 0 0-5.04 2.08-7.888 3.174-2.958 1.096-7.56 2.956-14.354-.327 0 0 65.195-34.042 148.908-41.923 11.067-1.095 12.49.656 9.533 4.816-2.192 3.284-32.105 41.266 14.9 72.134" fill="#FFF"/><path d="M198.33 241.566c-42.184 5.473-83.383 20.14-83.383 20.14 7.013 12.48 26.078 7.225 26.078 7.225 35.72-10.07 51.61-13.462 56.758-14.557-.22-3.94-.11-8.21.548-12.807" fill="#B4975A"/><path d="M198.66 262.035c-7.013 1.314-36.487 7.443-66.29 18.5 0 0 9.422 10.726 27.94 5.362 15.67-4.378 35.72-10.836 41.747-12.806-1.534-3.174-2.63-6.895-3.397-11.055" fill="#B4975A"/><path d="M205.125 279.11c-6.355 2.08-38.13 12.37-51.61 17.514 0 0 7.67 10.29 29.914 1.533 15.45-6.13 23.996-9.633 27.72-11.275-2.08-2.298-4.163-4.816-6.025-7.77" fill="#B4975A"/><path d="M216.19 291.48c-5.587 2.408-26.186 11.384-38.13 17.185 0 0 15.012 7.334 33.858-4.27l11.724-7.66c-2.41-1.643-5.04-3.285-7.45-5.255" fill="#B4975A"/><path d="M229.45 299.58c-3.835 2.408-19.395 12.15-27.065 17.842 0 0 12.93 5.363 26.298-7.115 4.273-4.05 6.683-6.35 7.998-7.662-2.3-.876-4.71-1.86-7.23-3.065" fill="#B4975A"/><path d="M273.607 295.53s49.198-16.42 27.83-68.74c0 0 51.938 2.188 123.27 30.867 0 0 5.04 2.08 7.89 3.174 2.957 1.096 7.56 2.956 14.353-.327 0 0-65.196-34.042-148.908-41.923-11.067-1.095-12.492.656-9.533 4.816 2.3 3.284 32.213 41.266-14.903 72.134" fill="#FFF"/><path d="M317.326 241.566c42.185 5.473 83.384 20.14 83.384 20.14-7.012 12.48-26.078 7.225-26.078 7.225-35.72-10.07-51.608-13.462-56.758-14.557.22-3.94 0-8.21-.548-12.807" fill="#B4975A"/><path d="M316.997 262.035c7.013 1.314 36.488 7.443 66.29 18.5 0 0-9.422 10.726-27.94 5.362-15.668-4.378-35.72-10.836-41.746-12.806 1.535-3.174 2.63-6.895 3.397-11.055" fill="#B4975A"/><path d="M310.533 279.11c6.355 2.08 38.13 12.37 51.608 17.514 0 0-7.67 10.29-29.912 1.533-15.45-6.13-23.996-9.633-27.83-11.275 2.19-2.298 4.272-4.816 6.135-7.77" fill="#B4975A"/><path d="M299.466 291.48c5.588 2.408 26.188 11.384 38.13 17.185 0 0-15.01 7.334-33.857-4.27l-11.725-7.66c2.41-1.643 5.04-3.285 7.45-5.255" fill="#B4975A"/><path d="M286.208 299.58c3.725 2.408 19.394 12.15 27.064 17.842 0 0-12.93 5.363-26.297-7.115-4.383-4.05-6.684-6.35-8-7.662 2.302-.876 4.713-1.86 7.233-3.065" fill="#B4975A"/><path d="M298.042 324.1c0 22.22-17.97 40.28-40.213 40.28-22.244 0-40.214-18.06-40.214-40.28 0-22.222 17.97-40.173 40.213-40.173 22.242-.11 40.212 17.95 40.212 40.172" fill="#FFF"/><path d="M289.714 332.418c0 17.623-14.244 31.852-31.885 31.852-17.642 0-31.887-14.23-31.887-31.852 0-17.623 14.245-31.853 31.886-31.853 17.64-.11 31.884 14.23 31.884 31.853" fill="#B4975A"/><path d="M257.83 280.643c-23.888 0-43.392 19.484-43.392 43.346 0 23.86 19.504 43.345 43.39 43.345 23.887 0 43.39-19.484 43.39-43.346 0-23.863-19.503-43.347-43.39-43.347zm36.486 36.45c-2.63 10.727-10.08 19.484-19.613 24.3.767-5.254 3.068-10.508 5.478-15.98 3.508-7.882 7.343-16.53 5.59-25.724 4.273 4.925 7.23 10.836 8.546 17.403zm-55.553-24.847c4.82-2.955 10.41-4.707 16.326-5.145v58.343c-2.96-.22-5.808-.766-8.547-1.642-.33-7.223-3.287-13.9-6.136-20.468-4.82-10.946-8.985-20.468-1.644-31.086zm7.45 57.028c2.85.767 5.808 1.314 8.876 1.423v10.29c-4.822-.33-9.424-1.642-13.587-3.722 1.972-1.75 4.163-4.488 4.71-7.99zm14.245 1.423c3.068-.22 6.027-.656 8.876-1.423.548 3.503 2.74 6.24 4.71 8.1-4.162 2.08-8.764 3.284-13.695 3.722v-10.4h.108zm8.657-7.005c-2.74.876-5.698 1.423-8.657 1.642v-58.342c5.917.438 11.505 2.3 16.327 5.144 7.34 10.618 3.177 20.14-1.534 30.978-2.848 6.677-5.807 13.354-6.135 20.578zm-39.337-44.003c-1.643 9.194 2.192 17.84 5.588 25.722 2.41 5.473 4.712 10.727 5.48 16.09-9.534-4.816-16.875-13.572-19.614-24.518 1.424-6.458 4.383-12.48 8.546-17.295zm-8.546 30.867c4.71 7.552 11.614 13.463 19.832 16.966 0 .22 0 .438-.11.766-.438 2.736-2.74 5.034-4.273 6.238-7.997-5.582-13.695-14.12-15.448-23.97zm57.744 23.97c-1.644-1.312-3.945-3.5-4.273-6.238 0-.22-.11-.44-.11-.767 8.218-3.393 15.12-9.304 19.723-16.966-1.753 9.85-7.34 18.39-15.34 23.97z" fill="#002B5C"/><path d="M270.758 224.38s-.33 1.315-1.205 1.315c-.877 0-6.027-2.518-8.547-3.83-1.095-.55-2.52-1.424-3.068-1.753 0 0-2.19 1.204-3.287 1.752-2.52 1.313-7.67 3.83-8.545 3.83-.877 0-1.206-1.313-1.206-1.313s-13.697 8.21-13.697 30.978c0 16.966 8.875 24.628 8.875 24.628l1.205 4.817h32.98l1.207-4.817s8.875-7.662 8.875-24.628c0-22.658-13.587-30.977-13.587-30.977" fill="#002B5C"/><path d="M277.223 249.666c0-7.005-2.85-12.807-5.917-16.2 0 0-.11 1.97-3.506-.22-2.96-1.97-6.355-3.173-9.97-3.173-3.727 0-7.123 1.204-9.972 3.174-3.287 2.19-3.397.22-3.397.22-3.067 3.392-5.916 9.194-5.916 16.2 0 5.8 1.425 8.756 1.972 9.522 2.85 7.442 9.643 12.696 17.422 12.696 7.78 0 14.354-5.144 17.313-12.478.11-.22 1.973-2.955 1.973-9.742" fill="#FFF"/><path d="M265.17 265.538s0-.11-.11-.11c0 0-1.972-3.612 1.206-6.13 0 0 7.122 1.533 7.34-7.99 0 0-.218-.985.878-2.955 0 0-1.863-1.642-5.808 1.313-3.944 2.956-6.136 11.493-8.327 9.523-2.193-1.97-1.316-13.026-2.52-13.464-1.097.438-.33 11.493-2.412 13.463-2.19 1.97-4.383-6.46-8.327-9.524-4.053-2.955-5.807-1.313-5.807-1.313.987 1.97.877 2.955.877 2.955.22 9.523 7.34 7.99 7.34 7.99 3.18 2.518 1.207 6.13 1.207 6.13s0 .11-.11.11c-8.547-9.195-13.477-7.88-11.067 2.298 2.41 10.07 11.615 53.417 13.15 63.487-.22 8.976-1.206 12.26-1.535 12.916l-.877 1.86.986 2.08c1.644 2.408 2.74 5.035 3.178 6.02l3.506 8.976 3.507-8.976c.438-.985 1.534-3.722 3.177-6.02l1.096-1.97-.986-1.97c-.22-.658-1.315-3.832-1.534-12.48 1.205-8.975 10.628-53.634 13.148-63.924 2.3-10.18-2.63-11.383-11.176-2.298" fill="#002B5C"/><path d="M252.02 310.745c-3.067-16.09-5.477-28.022-7.45-36.67-1.533-6.567 2.52-3.94 4.603.11l2.848 36.56z" fill="#E31837"/><path d="M263.636 310.745c3.068-16.09 5.48-28.022 7.45-36.67 1.425-6.567-2.52-3.94-4.6.11l-2.85 36.56z" fill="#E31837"/><path d="M247.2 256.124c-.657-.22-.986-.766-.767-1.423.11-.218.22-.436.44-.546-.44-.438-.878-.876-1.426-1.313 0 0-.986 4.707 3.178 4.16 0 0-.11-.438-.44-.985-.437.11-.656.22-.985.11" fill="#E31837"/><path d="M270.32 252.84c-.548.438-1.096.876-1.425 1.314.22.11.33.328.44.547.218.658-.22 1.205-.768 1.424-.33.11-.658 0-.877-.11-.33.548-.438.986-.438.986 4.054.547 3.068-4.16 3.068-4.16" fill="#E31837"/><path d="M259.8 316.655c1.316-24.956 3.288-42.47 3.288-44.77 0-.765-.11-1.75-.438-2.954l-1.425 4.708-.438-8.32c-.767-.984-1.753-1.86-2.958-2.736h-.11c-1.206.876-2.083 1.86-2.85 2.737l-.438 8.318-1.424-4.707c-.33 1.096-.44 2.08-.44 2.956 0 2.19 1.974 19.813 3.288 44.77 1.315 24.847-1.753 29.553-1.753 29.553 1.753 2.626 3.726 7.224 3.726 7.224s1.97-4.598 3.724-7.225c0 0-3.068-4.598-1.753-29.555" fill="#E31837"/></g></svg>