<svg width="512" height="512" viewBox="0 0 512 512" xmlns="http://www.w3.org/2000/svg" xmlns:xlink="http://www.w3.org/1999/xlink"><title>new-york-knicks</title><defs><path id="a" d="M0 0h436.784v354.216H0z"/></defs><g fill="none" fill-rule="evenodd"><g transform="translate(39 79)"><mask id="b" fill="#fff"><use xlink:href="#a"/></mask><path d="M217.097 353.784l-28.917-37.558c-36.795-12.196-62.475-45.438-64.85-84.183l-17.91-23.313c-17.157 7.34-34.205 18.996-34.205 18.996l-53.95-54.072L39.922 123.9-.648 71.124h64.633l12.517-27.198 31.94-12.95L112 21.37l25.896 11.87 6.15-21.584 4.208-1.403c20.502-6.8 44.132-10.47 68.302-10.685.647 0 8.416.108 8.524.108.863 0 4.64.216 4.64.216 20.5.97 39.707 4.425 57.187 10.145l4.315 1.403 5.72 20.506 9.28-7.015 52.44 18.68 12.623 27.63h64.957l-41.002 52.99 22.33 49.11-54.705 56.34s-20.07-14.68-33.774-20.073l-16.51 21.26c-1.83 39.72-28.81 74.47-66.79 86.127l-28.7 36.804z" id="Shape" fill="#FFF" mask="url(#b)"/></g><path d="M256.097 406.774l186.67-240.677H70.722l185.374 240.677z" id="Shape" fill="#BEC0C2"/><path d="M55.4 158.542l200.697 260.535 201.99-260.535H55.402zm387.366 7.555l-186.56 240.677L70.83 166.097h371.936z" id="Shape" fill="#006BB6"/><path d="M415.79 182.826l-.107-.108-.108-.108-11.977-7.987 4.424-8.526.108-.216-.108-.21-16.4-36.04-.11-.214-.214-.11-44.24-15.756-.324-.11-.215.216-11.77 8.956-.11.108-.11.11-2.05 4.964s-18.34-4.64-45.32-7.34c-2.7-.32-10.145-.86-21.798-1.832l-1.187-.11-1.187-.11h-.32l-.218.217-8.74 8.74v-8.96s-24.816 1.402-41.11 3.56c-16.29 2.268-32.26 6.26-32.26 6.26l-2.914-6.26-.108-.214-.217-.11-20.93-9.604-.65-.215-.212.642-2.484 6.583-.54-1.294-.217-.54-.54.217-29.886 11.98-.214.11-.11.214-54.914 121.1 45.316 45.438 2.158-1.19c1.404-.757 3.346-1.944 5.504-3.24 5.503-3.24 12.95-7.663 16.617-9.39l.758-.324c4.64-2.266 7.02-3.345 29.03-12.843l1.837-.647s2.48-.97 7.014-2.483c12.085-3.992 43.484-13.382 74.02-13.382h3.99c20.72.54 44.89 4.966 61.505 8.527 15.97 3.454 28.053 6.8 31.506 7.77l2.264.757c15.108 5.83 33.667 15.54 50.824 26.55l2.156 1.404 45.86-47.273-30.97-67.67z" id="Shape" fill="#006BB6"/><path d="M410.936 187.035l-44.132-29.464-7.66-21.47 13.702 4.86 5.503 13.49 20.71 6.697-12.09-26.766-39.17-13.922-7.23 5.614 13.055 42.306 41.865 29.68 10.79 26.766-17.37-7.88-5.936-16.62-21.367-6.26 11.436 37.668c3.56 1.297 7.015 2.59 10.47 3.995 9.493 3.885 18.88 8.094 27.944 12.735 6.26 3.24 12.518 6.693 18.56 10.254l9.17-9.39-28.27-62.27z" id="Shape" fill="#F58426"/><path d="M113.668 207l14.674-13.166 3.56 4.1-14.458 41.77c7.877-3.455 15.97-6.692 24.17-9.606l10.466-34.43-9.063-15 18.775-17.81 11.006-36.586-13.488-6.044-12.085 34.537-19.422 16.728 17.696-44.68-19 7.553-52.66 115.05 8.2 8.203c4.854-2.81 9.82-5.62 14.78-8.21L113.67 207z" id="Shape" fill="#F58426"/><path d="M246.602 124.87l-16.077.862-7.553 86.342c6.797-.648 13.703-1.08 20.717-1.295l2.91-85.91z" id="Shape" fill="#F58426"/><path d="M294.294 194.158l-18.667-1.08-3.02-52.883 15.86.755-1.834-14.57-21.256-1.51-9.496 9.496v66.16l10.04 10.253c10.36.32 20.5 1.07 30.65 2.26l-2.263-18.89z" id="Shape" fill="#F58426"/><path d="M188.443 158.974l6.69 32.81-4.316 24.93c6.474-1.294 13.056-2.374 19.746-3.237l10.358-86.557-14.89 2.158-4.85 28.385-5.5-26.658-17.59 4.425-24.38 90.874c7.016-2.158 14.137-4.21 21.366-5.936l13.38-61.194z" id="Shape" fill="#F58426"/><path d="M318.248 189.41l5.288-7.124 7.66 6.368 7.014 32.162c7.445 1.835 14.783 3.993 22.012 6.26l-13.164-47.272-13.596-11.117 7.77-10.36-6.475-23.96-16.4-3.67 6.473 24.176-10.25 13.706-7.553-39.72-15.214-1.94s7.66 58.17 11.22 86.88c6.907.97 13.705 2.16 20.503 3.56l-5.288-27.96z" id="Shape" fill="#F58426"/><path d="M225.238 228.48s6.366-3.67 18.99-5.074l-.43-9.93c-6.907.217-13.813.648-20.718 1.296.647 3.777 1.618 9.605 2.158 13.707" id="Shape" fill="#BEC0C2"/><path d="M265.485 222.76c5.18.646 10.682 2.265 15.537 3.668 4.424 1.08 9.064 2.914 12.95 4.64l2.157-15.325c-10.15-1.295-19.86-2.05-30.22-2.374-.22 3.02-.22 7.12-.43 9.39" id="Shape" fill="#BEC0C2"/><path d="M198.91 247.042c5.934-4.425 9.387-8.85 15.645-12.627-1.187-5.613-2.697-12.844-3.884-18.348-6.79.863-13.48 2.05-20.07 3.346 2.49 8.202 5.72 19.32 8.31 27.63" id="Shape" fill="#BEC0C2"/><path d="M299.15 234.2c5.72 3.345 10.25 7.122 15.322 12.087l.97.755 8.094-26.766c-7.014-1.403-13.704-2.698-20.825-3.67l-3.56 17.593z" id="Shape" fill="#BEC0C2"/><path d="M324.615 257.403l19.314 4.533 16.29-32.162c-7.45-2.483-14.68-4.425-22.45-6.368l-13.17 33.997z" id="Shape" fill="#BEC0C2"/><path d="M169.345 261.936c5.07-1.835 12.085-4.425 18.667-6.152l-12.517-33.133c-7.553 1.84-14.135 3.78-21.58 6.16 4.64 11.12 9.82 22.56 15.43 33.14" id="Shape" fill="#BEC0C2"/><path d="M140.21 273.916c1.08-.97 12.086-5.72 19.53-8.85-5.717-10.36-12.515-21.693-18.234-32.162-8.2 2.914-15.646 5.936-23.522 9.497l22.227 31.52z" id="Shape" fill="#BEC0C2"/><path d="M112.912 288.378c3.453-2.158 7.23-4.21 11.222-6.583l-25.573-30.22c-4.85 2.482-9.71 5.18-14.45 7.88l28.81 28.923z" id="Shape" fill="#BEC0C2"/><path d="M354.18 265.93c15.32 5.935 36.902 18.023 45.426 23.743 3.992-3.777 25.357-26.226 28.27-29.356-17.804-10.47-36.47-19.32-55.893-26.442L354.18 265.93z" id="Shape" fill="#BEC0C2"/><path d="M262.57 222.22l-7.336-.217-.108-17.808 7.66 7.88-.215 10.144z" id="Shape" fill="#BEC0C2"/><path d="M256.853 218.765c-47.693 0-86.43 38.746-86.43 86.45 0 47.703 38.737 86.45 86.43 86.45 47.692 0 86.428-38.747 86.428-86.45 0-47.812-38.62-86.45-86.42-86.45" id="Shape" fill="#006BB6"/><path d="M262.248 225.133c-6.582 2.266-13.056 5.72-19.315 8.634-4.316-2.59-6.797-3.238-9.71-5.072 9.063-3.346 18.774-3.778 29.025-3.562" fill="#F58426"/><path d="M324.075 261.936c-20.393-20.506-50.93-18.995-76.826-26.334 0 0 15.21-7.23 23.09-9.282 21.25 3.562 41.75 16.297 53.73 35.616" fill="#F58426"/><path d="M209.7 264.958c-19.53 30.004-22.228 67.022-6.582 99.4-20.07-16.944-32.155-49.646-23.09-81.484 7.336-10.253 16.832-19.427 29.672-17.916" fill="#F58426"/><path d="M230.633 286.327c10.574 31.407 12.84 66.052 40.14 97.674-21.258 4.32-42.406-2.05-59.13-12.73-20.826-30.43-18.884-75.76 1.94-105.23 10.144 2.92 15.647 16.19 17.05 20.29" fill="#F58426"/><path d="M215.958 262.69c3.13-4.424 6.69-8.74 10.79-12.626 44.24 12.52 86.537 58.388 93.658 103.502-2.05 3.454-7.12 8.202-10.574 11.548-11.006 9.93-23.09 15.002-34.744 17.808-20.717-21.477-27.515-49.323-34.744-76.736-5.61-21.046-9.496-36.91-24.386-43.387v-.11z" fill="#F58426"/><path d="M319.435 262.584c-21.364-18.888-51.145-16.405-76.178-25.255-4.856 2.91-9.603 6.47-13.596 10.03 44.24 13.92 84.49 57.2 93.99 101.88 6.91-10.04 11.12-21.7 12.84-34 1.08-19 .87-36.268-17.05-52.67" fill="#F58426"/><path d="M223.08 248.77c-4.317 4.1-7.446 8.2-10.79 12.842h-.11c-11.76-2.59-20.93 3.454-28.377 11.01 3.56-8.96 11.006-19.536 18.883-26.55 7.23.323 12.41.215 20.394 2.697" fill="#F58426"/><path d="M226.21 245.963c4.207-3.778 8.2-7.015 13.27-10.037l-11.33-5.613c-7.552 3.13-15.645 7.124-21.148 12.196 8.524 1.07 12.193 1.61 19.207 3.45" fill="#F58426"/><path d="M244.66 112.78l-3.453 3.455-6.043.324-2.265-1.95-2.81 2.37-6.48.643-2.92-2.698 3.777-25.58 4.963-.65-2.697 22.557 3.56-.43L233.1 88.27l4.855-.43-2.05 22.45 3.452-.325 1.725-22.34c2.05-.218 3.13-.218 4.963-.326l-1.403 25.47z" fill="#006BB6"/><path d="M260.63 86.88v16.08h3.128l-.216-15.973s3.345.108 4.748.215l.648 18.024-3.022 3.022h-.97l.107 7.663-5.395-.21-.108-7.66-1.08-.11-3.236-3.34.216-17.914c1.942.216 5.18.216 5.18.216" fill="#006BB6"/><path d="M220.92 89.9l-.862 5.29-5.934 1.078-1.08 6.152c2.16-.432 3.56-.647 6.15-.97-.323 2.265-.43 3.13-.862 5.287l-6.043.864-1.08 5.94 6.15-.86s-.65 4-.97 5.72c-4.32.54-8.64 1.19-12.74 1.84 0 0 4.64-21.475 5.72-28.06l11.54-2.27z" fill="#006BB6"/><path d="M198.37 121.2l-6.258 1.187 2.805-11.657-1.942-4.21-4.855 16.838-6.043 1.403c2.482-9.06 5.07-18.24 7.66-27.3 2.05-.64 3.67-1.18 5.504-1.72.65 1.51 2.27 4.64 2.27 4.64l1.51-5.72s3.89-.97 5.83-1.4l-6.47 27.95z" fill="#006BB6"/><path d="M285.986 91.843c.647 7.34 1.834 14.355 2.59 21.154l-2.698 4.21-8.848-.54-3.13-3.454c-.54-7.447-.97-15.002-1.402-22.45.756-1.078 2.05-1.942 3.022-2.913l7.337.755 3.13 3.238zm-8.2 1.295l1.51 17.485 3.13.215-1.62-17.376-3.02-.324z" fill="#006BB6"/><path d="M314.364 94.54c1.08 4.21 3.237 12.845 3.237 12.845l2.05.43.98-1.402-2.59-10.684s2.59.75 5.4 1.51l2.807 10.36-1.295 1.83 2.37 2.7 3.67 12.62-6.043-1.298-2.375-8.85-3.775-.864 2.05 8.85-6.15-1.187c-2.16-9.496-5.937-28.276-5.937-28.276s3.13.54 5.61 1.402" fill="#006BB6"/><path d="M304.87 95.513l2.05 10.47-1.188 1.618 2.05 2.49 1.726 10.36-5.826-.97-1.62-8.63-3.56-.43 1.295 8.42-5.826-.756-3.88-28.71 11.22 1.946 3.56 4.21zm-8.526.324l1.08 7.23 3.344.324-1.402-7.12-3.022-.43z" fill="#006BB6"/></g></svg>