<svg width="512" height="512" viewBox="0 0 512 512" xmlns="http://www.w3.org/2000/svg"><title>oklahoma-city-thunder</title><g fill="none" fill-rule="evenodd"><path d="M137.072 228.823l10.085-4.91-42.563-86.928 10.088-4.892-4.918-10.058-30.26 14.708 4.916 10.05 10.098-4.898 42.554 86.928zm22.385-10.92l10.673-3.46-15-45.987 10.675-3.46 15 45.994 10.677-3.452-33.47-102.623-10.67 3.455 14.998 45.995-10.674 3.456-15-45.99-10.68 3.455 33.47 102.617zM215.86 94l-11.095 1.746 15.19 95.524-11.09 1.745-15.18-95.523-11.092 1.76 14.452 90.894c1.45 9.106 10.127 15.383 19.265 13.938 9.137-1.438 15.438-10.085 13.998-19.19L215.86 94zm23.644 105.82l11.226.19.545-31.272c.167-9.52-.403-28.72-.857-37.806l.303.01c2.92 24.083 8.283 46.545 11.84 69.275l10.605.19 1.898-107.887-11.22-.188-.547 31.267c-.163 9.523.407 28.733.845 37.8l-.295-.005c-2.92-24.075-8.29-46.54-11.83-69.267l-10.62-.194-1.89 107.887zm41.904.803l22.184 3.496c6.14.972 11.86-3.175 12.838-9.297l13.433-84.474c.965-6.128-3.186-11.83-9.336-12.802l-22.164-3.494-16.955 106.57zm26.28-93.778l11.088 1.75-13.424 84.48-11.095-1.757 13.432-84.473zm78.964 8.674l-21.346-6.907c-5.91-1.914-12.224 1.282-14.147 7.18l-26.535 81.343c-1.92 5.893 1.3 12.18 7.202 14.092l21.355 6.91 3.465-10.632-21.352-6.915 11.535-35.353 16.02 5.184 3.46-10.625-16.008-5.193 11.52-35.354 21.367 6.912 3.462-10.64zm-28.43 104.907l47.613-97.243 20.213 9.834c5.615 2.724 7.92 9.406 5.19 14.99L413.7 183.842c-2.273 4.628-6.202 6.6-10.63 4.443l-12.04 48.083-10.116-4.915 12.047-48.096-3.28-1.595-21.344 43.578-10.114-4.913zm52.78-82.248l-16.397 33.502 10.12 4.92 16.4-33.508L411 138.18z" id="Shape" fill="#1E3160"/><path d="M145.546 378.396c-1.142-.09-2.247-.286-3.344-.57-11.306-4.895-5.443-16.576-2.07-24.19 4.365-9.774 8.845-19.502 13.456-29.173-24.458 7.626-48.277 15.63-71.337 23.98-5.78 2.444-9.295-1.413-2.622-5.336 23.43-14.853 49.314-28.407 77.203-40.285-6.816-14.19-12.29-29.354-16.33-45.564l-3.195-12.822c40.504-20.778 74.738-32.26 120.738-32.26 45.988.004 80.226 11.486 120.734 32.264-.756 3.08-1.544 6.153-2.363 9.22 20.147-.7 39.77-.295 58.647 1.17 4.522.308 4.522 5.487.186 5.94-20.992 2.955-42.367 6.383-64.027 10.298-1.35 4.14-2.784 8.19-4.292 12.165 23.102-4.888 45.745-8.185 67.663-9.917 5.638-.512 5.708 4.866 1.125 5.84-25.634 7.832-51.746 16.502-78.177 26-22.492 46.35-55.505 77.362-99.498 103.635-19.55-11.69-37.375-24.66-53.73-40.493-36.126 16.81-70.717 34.393-103.472 52.443-4.95 3.12-9.415.413-3.442-4.865 14.783-12.992 30.878-25.55 48.15-37.48" id="Shape" fill="#FFF"/><path d="M99.386 418.138c20.794-18.314 44.224-35.73 69.9-51.76 4.827-2.443 9.664-4.85 14.51-7.248 2.002-.983 5.92-2.878 10.846-5.232 3.303 3.702 6.732 7.3 10.283 10.798-36.873 17.14-72.16 35.03-105.54 53.442m262.74-130.808c24.847-5.5 49.196-9.168 72.702-11.032-26.05 7.955-52.59 16.785-79.477 26.467 2.403-4.985 4.642-10.134 6.774-15.435" id="Shape" fill="#0A7EC2"/><path d="M81.227 345.634c24.126-15.282 50.85-29.196 79.7-41.28.956 1.924 1.95 3.838 2.958 5.725-1.553 3.163-3.094 6.318-4.625 9.492-26.82 8.247-52.86 16.946-78.033 26.062m291.196-88.83c21.474-.904 42.348-.55 62.404 1.008-21.594 3.046-43.596 6.584-65.916 10.63 1.23-3.804 2.398-7.68 3.513-11.638" id="Shape" fill="#F05333"/><path d="M258.04 222.596c40.667 0 72.556 9.476 108.557 27.353-17.616 66.135-49.848 110.56-108.55 146.655-22.047-13.586-40.795-28.743-56.46-46.01 6.962-3.296 14.818-7.014 21.72-10.265 2.798.256 5.47.398 7.965.455-.153 3.813-1.358 6.612-3.287 8.613 1.124 1.283 2.266 2.556 3.41 3.813 3.04-2.71 4.998-6.717 5.155-12.402 7.14-.12 14.032-.842 20.434-2.205-.363 10.43-1.82 18.1-4.797 21.14-.105.093-.164.176-.21.268-.746.79-1.413 1.44-1.984 1.945 2.876-.53 5.703-1.193 8.495-1.975 3.586-7.4 3.64-20.373 3.692-22.624 6.662-1.667 12.59-3.347 17.927-5.163.21 6.088 2.65 11.904 7.318 14.047 2.102-1.472 4.14-3.042 6.115-4.668-1.18.172-8.575.683-8.46-11.146 15.622-5.87 25.79-12.946 34.74-23.503 2.362-5.32 4.268-10.9 5.623-16.673-10.712 16.824-20.573 26.653-39.832 34.353.553-3.39 1.55-7.457 3.125-12.306 5.62-2.35 11.486-5.143 15.01-6.594l8.424-8.81c2.118-8.147 4.22-16.293 6.322-24.437l-6.584 2.043 7.742-8.11c1.62-6.373 3.222-12.755 4.82-19.132-3.88.565-7.766 1.14-11.64 1.74.645-3.186 1.104-6.346 1.354-9.5-1.866-.47-3.743-.915-5.628-1.338-.4 3.544-1.09 7.47-2.142 11.848l-.538.09c-3.642.606-7.363 1.792-10.6 4.517l1.035-3.14c-6.238 1.125-12.458 2.266-18.683 3.47l-6.195 6.484.208-.527 2.01-5.187c-6.155 1.252-12.3 2.547-18.44 3.88-1.286-8.266-2.565-15.737-3.686-21.78-1.738.204-3.48.437-5.213.687 1.124 6.123 2.44 13.77 3.736 22.234l-4.348.972-5.536 5.805c-3.876-4.082-11.744-1.513-16.702-.265-5.37 1.357-10.747 2.75-16.102 4.196-1.605.44-3.2.925-4.76 1.46-4.023-5.78-7.797-11.728-10.914-18.14l-.568-1.19c-1.62.665-3.238 1.34-4.84 2.044l.687 1.424c3.036 6.265 6.696 12.127 10.64 17.81-5.783 2.564-11.128 6.126-15.758 11.207 0 0-7.526 7.852-8.404 8.813-1.956 2.238-3.642 4.616-5.125 7.043-7.9-15.846-14.166-33.08-18.862-51.954 36.005-17.88 67.904-27.375 108.587-27.366zm3.98 100.113c3.74-1.65 7.477-3.266 11.202-4.898l1.756-1.82c.74.123 1.586.15 2.537.052 1.45-.242 3.23-.74 5.167-1.41-1.257 4.57-2.014 8.515-2.366 11.954-5.32 1.882-11.29 3.64-18.082 5.35-.01-2.953-.08-6.036-.213-9.23zm-25.898 11.623l3.51-1.623 9.012-7.22 2.007-5.522c1.302 2.627 2.013 3.66 3.305 6.308l2.958-1.304c.105 2.848.156 5.612.156 8.256-6.512 1.48-13.535 2.276-20.786 2.39l-.162-1.285z" id="Shape" fill="#FFF"/><path d="M279.95 236.132c8.6 0 17.067.45 25.437 1.348 6.353 1.326 12.658 2.93 18.905 4.81 2.384 8.312 3.668 17.092 3.668 26.165 0 7.503-.867 14.79-2.517 21.797-10.712 16.824-20.573 26.653-39.832 34.353.553-3.39 1.55-7.458 3.125-12.307 5.62-2.35 11.486-5.143 15.01-6.594l8.424-8.81c2.118-8.146 4.22-16.292 6.322-24.437l-6.584 2.044 7.742-8.11c1.62-6.372 3.222-12.753 4.82-19.13-3.88.565-7.766 1.14-11.64 1.74.645-3.187 1.104-6.347 1.354-9.5-1.866-.47-3.743-.915-5.628-1.34-.4 3.545-1.09 7.472-2.142 11.85l-.538.09c-3.642.606-7.363 1.792-10.6 4.516l1.035-3.14c-6.238 1.126-12.458 2.266-18.683 3.47l-6.195 6.484.208-.526 2.01-5.186c-6.155 1.252-12.3 2.546-18.44 3.878-1.286-8.265-2.565-15.736-3.686-21.778 9.325-1.123 18.793-1.686 28.425-1.686zm39.87 70.794c-6 13.493-15.05 25.323-26.28 34.65-1.18.17-8.575.682-8.46-11.147 15.622-5.873 25.79-12.947 34.74-23.504zm-32.395 39.317c-8.7 6.106-18.448 10.79-28.936 13.738 3.585-7.4 3.638-20.372 3.69-22.623 6.664-1.666 12.593-3.346 17.93-5.162.206 6.087 2.647 11.905 7.315 14.048zm-37.43 15.712c-2.93.538-5.918.943-8.93 1.213-3.33-3.226-6.555-6.555-9.668-9.956 3.04-2.71 4.998-6.717 5.155-12.403 7.14-.12 14.03-.843 20.434-2.205-.363 10.43-1.82 18.1-4.798 21.14-.104.093-.163.176-.21.268-.747.79-1.413 1.436-1.983 1.942zm-22.01-12.557c-2.306-2.644-4.563-5.343-6.755-8.088l2.08-.978c2.797.256 5.47.398 7.963.455-.153 3.812-1.358 6.61-3.288 8.61zm-41.34-67.882c-2.913-7.35-5.485-14.89-7.694-22.59 2.43-1.147 4.873-2.244 7.323-3.302l.69 1.424c3.034 6.266 6.694 12.127 10.637 17.81-3.878 1.72-7.556 3.886-10.955 6.658zm4.47-27.938c17.93-7.313 36.268-12.35 55.196-15.07 1.124 6.122 2.44 13.77 3.736 22.234l-4.348.97-5.536 5.807c-3.876-4.083-11.744-1.514-16.702-.266-5.37 1.358-10.747 2.75-16.102 4.197-1.605.44-3.2.926-4.76 1.46-4.023-5.78-7.797-11.727-10.914-18.14l-.568-1.192zm70.906 69.13c3.74-1.647 7.477-3.264 11.202-4.896l1.756-1.82c.74.123 1.586.15 2.537.052 1.45-.242 3.23-.74 5.167-1.41-1.257 4.57-2.014 8.515-2.366 11.954-5.32 1.882-11.29 3.64-18.082 5.35-.01-2.953-.08-6.036-.213-9.23zm-25.898 11.625l3.51-1.623 9.012-7.22 2.007-5.522c1.302 2.627 2.013 3.66 3.305 6.308l2.958-1.304c.105 2.848.156 5.612.156 8.256-6.512 1.48-13.535 2.276-20.786 2.39l-.162-1.285z" id="Shape" fill="#F05333"/><path d="M259.8 385.604c-17.27-11.657-32.68-25.39-45.996-40.797l7.426-3.496c2.192 2.747 4.45 5.445 6.754 8.09 1.123 1.282 2.265 2.556 3.413 3.812 9.862 10.785 20.78 20.677 32.682 29.544-1.413.96-2.837 1.91-4.28 2.848zm-81.414-95.922c-5.06-11-9.307-22.457-12.696-34.302 30.133-14.17 61.33-21.815 94.45-22.704 15.486.133 30.534 1.745 45.247 4.804-8.37-.9-16.838-1.353-25.434-1.353-9.636 0-19.104.564-28.427 1.688-1.74.203-3.484.44-5.21.69-18.937 2.72-37.272 7.76-55.194 15.07-1.626.667-3.245 1.343-4.85 2.046-2.447 1.06-4.89 2.156-7.32 3.303 2.206 7.7 4.782 15.24 7.692 22.59-1.67 1.358-3.275 2.874-4.796 4.55l-3.462 3.62z" id="Shape" fill="#FCBB30"/><path d="M140.785 246.018c38.95-19.975 73.123-30.845 117.255-30.845 44.135 0 78.313 10.87 117.237 30.845-18.082 72.606-52.617 120.69-117.237 159.28-24.38-14.555-45.685-31.605-63.4-51.394-4.924 2.35-8.837 4.24-10.846 5.232-6.097 3.015-12.195 6.06-18.265 9.142-6.852 3.473-14.453 8.75-22.345 6.704-8.62-3.73-2.94-14.18-.298-20.126 6.7-15.047 13.7-29.984 20.997-44.773-8.764-16.393-15.656-34.208-20.482-53.547l-2.617-10.518zm117.255-23.422c-40.683-.01-72.582 9.485-108.588 27.367 4.696 18.867 10.962 36.128 18.862 51.955 1.482-2.428 3.167-4.804 5.126-7.043.88-.962 8.403-8.812 8.403-8.812 4.63-5.08 9.975-8.644 15.757-11.208-3.94-5.683-7.603-11.544-10.638-17.81l-.69-1.424c1.605-.704 3.22-1.38 4.843-2.044l.567 1.19c3.117 6.414 6.89 12.362 10.914 18.14 1.563-.533 3.157-1.018 4.76-1.458 5.356-1.447 10.733-2.84 16.102-4.197 4.96-1.247 12.826-3.816 16.703.266l5.536-5.806 4.35-.972c-1.3-8.463-2.613-16.11-3.737-22.233 1.734-.252 3.475-.484 5.213-.687 1.12 6.042 2.4 13.513 3.684 21.778 6.14-1.332 12.286-2.628 18.44-3.878l-2.008 5.186-.21.526 6.195-6.484c6.224-1.202 12.445-2.344 18.684-3.47l-1.037 3.14c3.238-2.724 6.96-3.91 10.6-4.517l.54-.09c1.052-4.378 1.742-8.305 2.14-11.85 1.886.425 3.762.87 5.63 1.34-.25 3.153-.71 6.313-1.356 9.5 3.877-.6 7.76-1.177 11.64-1.74-1.597 6.377-3.198 12.76-4.818 19.13l-7.744 8.11 6.584-2.043c-2.102 8.145-4.202 16.29-6.322 24.437l-8.423 8.81c-3.526 1.45-9.393 4.245-15.012 6.594-1.576 4.85-2.57 8.918-3.123 12.307 19.258-7.7 29.12-17.53 39.83-34.353-1.354 5.774-3.26 11.354-5.622 16.673-8.95 10.557-19.118 17.63-34.74 23.502-.114 11.83 7.28 11.32 8.46 11.146-1.973 1.626-4.012 3.196-6.115 4.67-4.667-2.144-7.108-7.96-7.317-14.048-5.335 1.816-11.264 3.494-17.928 5.162-.053 2.25-.106 15.224-3.692 22.624-2.792.783-5.62 1.448-8.494 1.977.57-.507 1.236-1.155 1.984-1.944.044-.092.105-.175.21-.268 2.977-3.043 4.435-10.71 4.797-21.14-6.403 1.362-13.294 2.085-20.434 2.204-.158 5.685-2.116 9.693-5.156 12.402-1.146-1.256-2.287-2.53-3.41-3.812 1.928-2 3.135-4.8 3.286-8.613-2.494-.057-5.168-.2-7.963-.455-6.903 3.25-14.76 6.97-21.723 10.266 15.667 17.265 34.414 32.424 56.462 46.01 58.702-36.096 90.932-80.523 108.55-146.657-36-17.878-67.89-27.354-108.556-27.354zm3.98 100.113c.134 3.19.205 6.275.214 9.23 6.79-1.712 12.763-3.47 18.082-5.352.352-3.437 1.11-7.382 2.366-11.954-1.938.67-3.717 1.166-5.167 1.41-.95.097-1.797.07-2.537-.052l-1.756 1.82c-3.723 1.632-7.462 3.25-11.2 4.897zm-25.898 11.623l.16 1.282c7.25-.113 14.274-.908 20.784-2.388 0-2.645-.052-5.408-.156-8.256l-2.958 1.304c-1.292-2.65-2.003-3.68-3.304-6.307l-2.007 5.522-9.01 7.22-3.508 1.623z" id="Shape" fill="#1E3160"/><path d="M208.035 274.493c-9.156 2.48-17.335 6.383-23.876 13.59-3.757 4.29-6.434 9.198-8.93 14.232-7.33 14.828-14.344 29.783-21.062 44.874-1.758 3.935-7.14 13.505-1.41 15.986 6.342 1.64 14.275-3.668 19.876-6.51 6.078-3.08 12.18-6.13 18.293-9.154 10.41-5.14 19.743-11.386 26.073-21.417 2.523-4.237 4.397-8.78 6.246-13.31 3.974-9.748 8.024-19.49 12.156-29.198 1.545-3.636 4.246-8.225 3.388-12.197-1.74-5.33-10.784-2.076-14.715-1.098-5.345 1.36-10.7 2.75-16.04 4.2m-11.572 55.68c-4.843 2.152-9.666 4.32-14.49 6.533 6.997-16.164 14.256-32.22 21.835-48.146 4.236-1.336 8.49-2.654 12.76-3.948-6.94 15.095-13.63 30.283-20.105 45.56m82.85-72.376c-6.71 8.726-13.335 17.527-19.885 26.382 3.07-8.106 6.158-16.2 9.278-24.267-6.947 1.42-13.877 2.926-20.8 4.495-1.798 4.166-3.583 8.343-5.345 12.526 1.485-.413 2.99-.828 4.48-1.233-5.45 13.13-10.76 26.32-15.963 39.523-2.14 5.372-4.258 10.747-6.38 16.12 6.95-3.268 13.906-6.51 20.878-9.707 3.157-8.687 6.342-17.36 9.57-26.018 2.96 5.906 5.89 11.82 8.807 17.758 4.486-1.997 8.998-3.968 13.504-5.925-2.742-6.233-5.53-12.456-8.335-18.672 4.99-7.54 10.016-15.06 15.107-22.554 1.43-.335 2.86-.674 4.288-1.005l3.217-9.743c-4.147.748-8.29 1.52-12.42 2.322m26.916-4.59c-3.74.624-7.113 1.808-9.9 4.603-2.284 2.454-3.498 5.374-4.506 8.486-2.98 9.305-5.972 18.617-8.96 27.935-1.17 3.678-3.083 10.382 2.846 9.885 2.018-.332 3.92-1.16 5.814-1.962 5.99-2.547 11.99-5.056 18.006-7.528 1.536-5.846 3.06-11.7 4.567-17.56-3.17.987-6.313 1.988-9.482 3.002-.743 2.63-1.48 5.28-2.208 7.91-2.203.81-4.388 1.604-6.584 2.41 2.77-9.448 5.55-18.888 8.3-28.335 1.946-.423 3.893-.83 5.84-1.23-.465 1.654-.912 3.314-1.375 4.97 2.836-.676 5.676-1.354 8.512-1.998 1.085-4.25 2.163-8.513 3.225-12.767-4.697.685-9.405 1.41-14.094 2.18" id="Shape" fill="#FFF"/><path d="M331.5 244.568c2.85.93 5.514 1.878 8.17 2.88 6.677 2.467 12.587 4.992 17.472 7.32-15.078 51.547-45.96 94.777-89.52 125.54l-3.55 2.45c-12.758-9.514-20.29-16.988-20.29-16.988l6.007-.982c18.22-3.032 35.776-11.244 50.29-24.74 24.74-22.996 34.79-55.828 29.692-86.768-.124-.7-.265-1.402-.39-2.102l-.047-.3-.062-.326-.076-.343-.067-.328-.066-.357-.07-.33-.086-.376-.085-.358-.07-.33-.054-.282-.102-.397-.08-.37-.074-.278-.05-.28-.07-.272c-.28-1.11-.528-2.054-.783-2.967 1.34.427 2.658.855 3.96 1.282m.477.603c2.664.91 5.41 1.865 8.025 2.85-2.663-1.006-5.343-1.95-8.025-2.85" fill="#0A7EC2"/></g></svg>