<svg width="512" height="512" viewBox="0 0 512 512" xmlns="http://www.w3.org/2000/svg"><title>orlando-magic</title><g fill="none" fill-rule="evenodd"><path d="M300.143 179.737l1.415.095 3.02 13.647 37.124 3.3v6.3l-41.56-3.47v-19.88zm170.755 56.673v-59.577l-.086-.028c-.436-.147-33.986-11.878-53.536-16.276-22.997-5.17-29.634 12.51-30.607 15.65v-22.47s-63.02-12.14-108.03-11.46c-7.77.12-19.44 2.923-23.147 19.23v-19.75s-43.273 1.234-59.343 2.705c-3.99.37-21.287 1.866-26.785 21.463l.01-19.06s-57.035 6.83-108.108 23.282c-7.416 2.39-19.176 11.02-19.176 23.984v130.97L85 311.39V288.8l39.11-9.25.006 22.496s9.97-2.098 19.264-4.024c-19.752 16.84-35.822 38.096-45.76 61.554 25.96-22.28 51.78-43.903 90.16-54.273l-8.696 20.2c30.53-16.703 71.524-17.24 104.14-6.755l-2.465 5.398c-20.155-8.5-43.18-9.54-66.248-6.005 22.555 7.76 41.54 13.75 60.454 26.19-1.257 35.16 27.616 68.76 64.83 68.44 59.843-.45 87.39-70.53 53.97-113.81 3.423 2.635 7.596 4.5 13.915 6.416 21.12 5.92 63.21 18.357 63.21 18.357V267.8l-32.135-9.587-3.515 15.623c-2.107-.687-5.137-.816-5.19-2.357-.027-.77-.01-42.15-.013-63.15l2.55 16.28 38.303 11.79z" fill="#C4CED3"/><path d="M432.36 198.786l3.573 22.836 30.943 9.52v-.004l.072.02v-51.622s-30.82-10.8-50.665-15.298c-6.798-1.884-26.84-3.06-27.292 22.186v87.24c0 15.034 7.95 25.062 22.97 29.01 22.87 6 54.99 15.834 54.99 15.834v-47.864l-25.43-7.585-3.5 15.55c-2.81-.81-5.1-1.44-7.95-2.19-3.13-.815-3.79-2.49-3.92-4.155v-75.23c.427.113 5.33 1.48 6.22 1.74" fill="#061922"/><path d="M345.454 151.16v139.01l6.954.603c2.09.256 18.805 3.017 20.822 3.44l9.5 2.404V156.91c.07-.214-23.243-4.06-37.276-5.75" fill="#061922"/><path d="M300.85 230.915v25.844c-.716-.05-4.167.23-4.556-2.06v-24.13l4.557.334zm3.746-54.76l3.034 13.718 30.796 2.74V150.19s-44.85-4.25-57.396-4.25c-7.505 0-21.828 2.744-22.355 21.795v90.794c0 15.7 9.09 25.09 24.938 25.75 0 0 32.952 1.6 45.617 3.46l9.196 1.73V206.6l-42.132-3.383v-27.53l8.302.464z" fill="#061922"/><path d="M209.426 203.782v-26.427c.08-1.66 3.902-1.5 4.434-1.533v27.722c-1.467.076-2.948.152-4.434.238m-13.013-55.54c-15.338 1.423-24.49 11.703-24.49 27.5l.042 113.962 9.024-1.698c2.02-.29 18.89-1.973 21-2.096l7.43-.19v-50.957c1.463-.11 2.94-.214 4.43-.31v51.138l8.502-.97c1.827-.14 18.38-.76 21.172-.76l8.023.44V145.66s-38.46 1.053-55.148 2.585" fill="#061922"/><path d="M165.44 151.28s-34.94 5.235-45.318 7.565c-2.393.54-4.672 1.432-6.803 2.632l-.01-1.204s-29.07 6.422-50.95 13.48c-6.86 2.216-16.51 9.986-16.51 20.328v125.35l35.21-11.15v-104.4c0-1.9 1.67-3.38 4.97-4.38.16-.044.37-.1.61-.153v85.083l37.262-8.823V194.16c.43-3.73 3.625-4.09 3.92-4.128v107.06s28.954-5.82 30.6-6.03l7.004-.61.005-139.167" fill="#061922"/><path d="M444.843 268.73l-3.494 15.54c-5.62-1.66-8.37-2.444-12.42-3.497-3.95-1.03-6.31-3.297-7.05-6.755v-79.514c1.31-4.497 7.16-.693 14.47.792l3.58 22.865 22.45 6.91v-42.36s-27.907-9.485-47.153-14.1c-2.103-.503-21.306-5.02-21.757 17.82v87.248c0 12.95 6.6 21.25 19.623 24.667 18.81 4.937 49.344 14.102 49.344 14.102V273.99l-17.604-5.256" fill="#FFF"/><path d="M378.24 160.67l-28.295-4.387v129.773s22.872 3.45 24.315 3.79l3.993 1.01-.014-130.186" fill="#FFF"/><path d="M297.51 171.217c.257 0 7.962.503 10.753.73l3.043 13.748 22.627 2.012v-33.463s-46.867-4.065-52.906-3.82c-5.61.23-17.066 1.193-17.864 17.31v90.796c0 13.354 7.135 20.707 20.637 21.267 0 0 31.12 1.54 44.782 3.31l5.35.963v-73.4l-34.232-2.756v18.42l5.7.413v34.777c-4.272-.29-13.245.687-13.596-6.756v-80.273c.308-1.47 1.453-3.278 5.706-3.278" fill="#FFF"/><path d="M218.03 207.51c-.147.004-8.635.422-12.77.702v-31.07c.313-3.26 2.55-5.063 6.613-5.367 0 0 4.135-.265 6.157-.388v36.122zm-21.235-55.122c-13.05 1.28-20.59 9.606-20.698 23.045h-.01v109.252l.028-.004v.01l.47-.09 4.43-.782c3.74-.45 19.364-2.007 20.803-2.064l3.442-.085V230.9c4.14-.327 8.412-.625 12.77-.882l.038 50.834 3.88-.38c1.333-.132 18.547-.787 21.585-.787l3.86.204V149.94s-33.507.773-50.598 2.448z" fill="#FFF"/><path d="M160.97 156.486l-.02.005s-34.015 5.2-39.84 6.74c-4.624 1.22-8.024 3.05-12.078 7.596v-4.976s-23.61 5.186-45.286 12.182c-5.406 1.746-13.4 8.055-13.4 16.058v118.79l26.243-8.197-.02-100.794c-.14-8.477 12.14-9.558 14.56-9.97v84.832l28.25-6.684s.02-73.827.02-78.134c.96-9.26 11.3-8.62 12.94-9.194l.02 106.554 13.825-2.4.01-.005 14.7-2.55v-.406l.064-.014V156.487" fill="#FFF"/><path d="M459.183 276.348l-11.964-3.567-3.5 15.54c-7.77-2.3-10.79-3.19-15.6-4.44-4.58-1.19-9.23-4.43-9.66-11.36v-77.18c.9-5.962 4.86-7.03 9.63-5.73.044-.084 5.104 1.395 11.11 3.198l3.584 22.884 16.39 5.04v-35.75c-9.074-3.16-26.858-8.987-44.694-13.265-11.422-2.738-17.803 3.045-17.803 14.705v87.24c0 11.69 5.83 18.58 17.23 21.57 23.28 6.115 45.317 12.865 45.317 12.865l-.05-31.75" fill="#007DC5"/><path d="M353.15 283.12c1.357.118 20.555 3.282 21.88 3.614v-123.38c-6.57-1.166-12.42-2.158-21.88-3.414v123.18" fill="#007DC5"/><path d="M302.906 223.355c1.13.086 5.702.41 5.702.41v41.212c-3.38-.26-6.765-.49-10.12-.707-4.943-.318-9.924-3.51-9.924-10.123l-.014-79.495c.693-5.94 6.437-6.836 9.937-6.608 0-.09 5.768.35 12.4.91l3.033 13.724 16.8 1.504v-27.02h-.09v-.005c-30.525-2.965-47.587-3.477-47.587-3.477-3.58-.16-8.962-.152-12.666 3.42-2.35 2.24-4.007 5.986-4.007 10.635v90.795c0 11.68 5.916 17.58 17.566 18.064.024-.374 40.903 2.5 46.785 3.586v-66.606c-9.77-.958-15.38-1.528-27.81-2.258v12.04" fill="#007DC5"/><path d="M201.73 176.988c.195-2.39 1.557-8.112 9.913-8.728 3.304-.214 6.603-.428 9.913-.603v43.206c-6.595.336-13.223.61-19.826 1.142v-35.017zm-22.114-1.253l.043 104.698c1.35-.255 20.7-2.176 22.07-2.21v-50.568c6.6-.564 13.23-1.01 19.82-1.366v50.67c1.372-.16 20.95-.88 22.303-.8v-122.6c-13.13.35-31.19.91-46.738 2.33-11.637 1.08-17.51 8.19-17.51 19.84z" fill="#007DC5"/><path d="M121.81 166.348c-8.103 1.822-14.21 9.516-15.984 18.762v-15.29s-19.313 4.223-41.094 11.253c-4.35 1.404-11.18 6.73-11.18 13.007v114.11c1.282-.498 18.496-5.796 19.816-6.09v-98.22c0-6.864 5.64-10.29 10.444-11.75 2.65-.787 10.53-1.978 10.53-1.978v84.51l21.905-5.142v-76.085c.783-5.735 3.93-9.516 9.722-10.892 5.54-.94 9.58-1.55 9.58-1.55l.02 106.168c1.33-.34 20.75-3.64 22.11-3.76 0-24.48.05-123.19.05-123.19s-25.704 3.85-35.93 6.14" fill="#007DC5"/><path d="M353.453 274.645c85.284 33.662 49.84 132.857-12.665 133.583-34.23.408-63.37-31.37-60.914-65.292-15.386-12.362-34.794-18.33-53.503-23.614 16.94-1.788 40.76 2.638 56.22 9.79l5.75-12.537c-28.61-10.498-73.97-12.31-101.81 1.12l7.64-17.808c-29.543 6.522-62.55 24.724-86.92 47.57 17.08-32.732 55.787-65.89 91.12-76.91l-2.595 7.718c22.75-8.273 46.477-12.784 70.604-14.16 25.636-1.47 46.372-.004 64.132 3.928-3.185-4.123-8.317-11.48-8.317-11.48s13.77 3.5 16.414 4.174c1.414-2.29 4.2-6.783 4.2-6.783l4.292-6.973s2.1 14.42 2.452 16.93c2.405.78 15.68 5.15 15.68 5.15l-11.77 5.6" fill="#061922"/><path d="M362.923 323.536c3.224 4.283 6.65 9.322 9.234 14.04 6.148-4.163 11.46-8.514 16.274-14.14-3.02-5.81-8.37-12.367-12.12-15.612-3.46 6.182-7.92 11.258-13.38 15.712M374.2 341.7c1.504 3.423 2.833 6.9 3.987 10.463 5.265-1.73 10.326-2.613 15.814-2.926.15-7.91-.92-13.706-3.48-21.09-5.02 5.174-10.32 9.552-16.32 13.55m5.09 14.588c1.89 8.454 2.457 16.936 1.97 25.508 6.787-9.023 10.366-16.74 12.3-28.268-4.853.417-9.68 1.22-14.27 2.76m-3.65 1.96c-16.89 7.95-23.744 25.687-30.4 41.872 11.12-1.285 21.36-5.042 29.95-12.348 2.588-9.59 2.265-19.83.45-29.53m-1.35-4.45c-1-3.39-2.24-6.67-3.61-9.9-24.003 14.08-52.127 21.053-79.9 20.85 8.06 21.213 26.846 35.292 49.757 35.54 7.277-17.92 15.32-37.467 33.753-46.495m-5.58-14.03c-2.62-4.915-5.89-9.484-9.28-13.876-21.93 13.997-43.93 5.905-66.158-2.255-5.54 11.586-6.9 24.056-3.864 36.55 26.997.684 56.056-6.588 79.3-20.42m-11.697-17.33c-30.58-33.56-91.43-40.21-133.63-28.758 29.288-.788 87.344.786 108.08 25.445-6.69-3.717-20.24-9.965-28.275-9.5-2.86 3.15-5.377 6.637-7.623 10.247 20.377 7.51 41.237 15.06 61.45 2.56m3.325-2.35c5.347-4.2 10.056-8.97 13.294-14.876-9.522-9.322-27.68-20.816-73.91-23.966 19.6 4.44 37.9 10.616 48.253 17.96-8.46-3.23-13.724-4.13-13.724-4.13-2.495.347-6.008.68-8.62 1.28 14.09 5.514 24.355 12.15 34.71 23.73" fill="#C4CED3"/><path d="M331.833 279.253l9.49-3.315 7.21 8.173-.844-10.66 9.19-4-10.01-3.284-1.55-10.645-5.34 8.645-10.133-2.58 6.717 8.62-4.74 9.057" fill="#C4CED3"/><path d="M295.984 331.708c14.536 6.81 26.05 7.096 40.87 7.79l-23.898 7.062c12.01.574 26.12-.626 37.89-3.022-25.76 12.846-56.975 11.902-56.975 11.902-2.33-7.898-1.23-17.74 2.12-23.732m2.8 39.558c15.928-.603 38.484-4.91 55.83-15.005-10.016 10.14-20.703 15.69-36.973 24.13 17.818-3.01 26.586-10.01 38.26-18.68-9.072 10.15-13.545 20.846-20.55 31.918 0 0-20.78 2.6-36.566-22.352m52.73 24.26c10.036-3.482 15.197-7.486 17.32-9.174 1.556-3.37 2.28-10.593 2.18-19.33l-6.39 10.697 2.025-10.41c-8.95 10.85-12.35 18.603-15.136 28.214" fill="#007DC5"/><path d="M281.26 286.932l6.593-3.25 5.494 4.883-1.074-7.258 6.353-3.69-7.25-1.234-1.562-7.164-3.4 6.5-7.32-.747 5.137 5.247-2.97 6.7" fill="#FFF"/><path d="M207.132 301.505l4.34-2.145 3.607 3.216-.71-4.772 4.17-2.433-4.77-.82-1.026-4.7-2.24 4.268-4.815-.474 3.385 3.45-1.95 4.42" fill="#FFF"/><path d="M344.15 292.57c-.826-.427-1.656-.84-2.525-1.228 13.378 3.966 22.393 9.127 27.44 13.05-.78 1.148-1.648 2.253-2.535 3.33-6.187-6.413-13.75-11.637-22.38-15.15m41.213 74.854l-.047-.872c.726-3.597 1.134-7.206 1.258-10.77.944-.25 1.913-.445 2.886-.63-1.036 4.43-2.33 8.45-4.097 12.272m5.587-23.448c-1.742.228-3.36.48-4.96.825-.357-2.585-.875-5.147-1.534-7.66 1.738-1.457 3.4-2.937 5.084-4.526.964 3.724 1.373 7.21 1.41 11.36m-5.967-21.953c-1.486 1.6-2.92 3.013-4.382 4.336-1.62-3.486-3.51-6.826-5.71-9.98 1.15-1.38 2.25-2.805 3.29-4.294 2.8 3.093 5.22 6.708 6.81 9.938" fill="#FFF"/><path d="M343.718 133.38c0 .953-.49 1.4-1.154 1.31-.546-.077-2.15-.244-3.224-.386-.726-.095-1.163-.29-1.163-1.636v-20.223c0-1.067.537-1.39 1.282-1.31.74.077 2.02.338 2.77.447.75.11 1.48.275 1.48 1.224v20.573zm2.235-27.562c-2.34-.412-10.772-1.802-11.308-1.783-4.52.137-5.066 3.757-5.06 4.92v24.135c0 5.137 4.4 6.356 5.725 6.5 2.615.28 9.495 1.227 11.806 1.465 2.446.256 5.127-1.395 5.127-4.768v-23.984c.005-1.162-.37-5.432-6.29-6.485z" fill="#061922"/><path d="M290.4 99.224c-4.663-.394-15.913-.778-15.913-.778v36.584l8.763.313v-30.17s1.738.052 3.514.137c1.77.086 2.3.816 2.3 1.713v28.53l8.694.525.005-30.592c0-2.016-1.42-5.763-7.364-6.262" fill="#061922"/><path d="M261.068 114.877l-5.848.02v-8.767c.018-.698.57-1.642 2.445-1.642h3.403v10.39zm-7.8-16.66c-4.282 0-6.78 1.964-6.78 6.475 0 2.164.025 30.11.025 30.11l8.707-.063v-14.36l5.848-.03v14.46l8.78.032v-36.46s-6.99-.17-9.292-.17h-7.288z" fill="#061922"/><path d="M242.235 123.325l-6.974.194-1.71 6.06-2.33.09V98.83l-8.72.494v36.284s3.61-.185 9.85-.37c6.316-.18 9.895-.26 9.895-.26v-11.65" fill="#061922"/><path d="M207.54 116.235c-1.76.227-3.845.39-3.845.39v-9.49c.978-.117 2.725-.307 3.7-.392 1.79-.152 1.955 1.067 1.955 1.54 0 .41-.005 5.992 0 6.116v.03s-.048 1.57-1.81 1.8m10.568 4.98h-.01c.125-1.22-.66-2.89-2.135-3.35.96-.492 2.046-1.85 2.055-3.4v-9.307c0-2.297-1.808-5.28-5.848-5.067-4.624.242-17.148 1.632-17.148 1.632v35.864l8.673-.73V122.16c1.002-.123 3.884-.422 4.11-.436 1.26-.086 1.616.673 1.616 1.03v13.68l8.69-.574v-14.65" fill="#061922"/><path d="M180.913 132.948c-.555.095-2.202.313-3.266.403-.817.07-1.205-.88-1.205-1.3l-.015-20.344c0-.39.19-1.11.96-1.257.792-.144 2.463-.385 3.284-.537.76-.137 1.28.59 1.28 1.06l.03 20.59c0 .53-.31 1.266-1.06 1.394m4.34-29.88c-1.01 0-8.93 1-11.27 1.447-1.79.346-6.212 1.888-6.09 6.665v24.594c0 2.075 1.16 4.77 4.79 4.39 1.1-.12 9.1-1.215 12.05-1.47 4.468-.39 5.936-3.834 5.84-6.29V107.86c.005-4.787-4.524-4.787-5.317-4.787" fill="#061922"/><path d="M316.843 130.588c-.143.712-.756.95-1.738.864l-4.058-.36v-23.676s2.155.222 3.66.393c1.42.16 1.955.65 2.136 1.35v21.42zm2.07-29.003c-2.046-.36-16.516-1.698-16.516-1.698v36.503s13.364 1.072 16.492 1.362c3.12.294 6.62-.792 6.62-5.067v-24.13c0-5.205-3.76-6.467-6.607-6.97z" fill="#061922"/></g></svg>