<svg width="512" height="512" viewBox="0 0 512 512" xmlns="http://www.w3.org/2000/svg"><title>toronto-raptors</title><g fill="none" fill-rule="evenodd"><path d="M434.655 260.338c-8.098 5.44-17.338 10.595-27.388 15.31-8.328 3.914-17.026 7.428-25.84 10.442-2.482.848-4.91 1.638-7.335 2.384.416-4.48.59-8.982.59-13.5 0-3.468-.115-6.943-.347-10.406l17.442-3.84v-.044c-.89-10.405-2.784-20.766-5.614-30.787-2.784-9.79-6.445-19.388-11.008-28.525-3.13-6.292-6.733-12.417-10.638-18.286-.53-.797-1.063-1.588-1.606-2.373l5.684-30.965s-17.268 2.373-29.166 4c-.104-.114-.23-.24-.403-.356-3.373-3.14-6.92-6.135-10.593-8.987-.174-12.237-.404-30.47-.404-30.47s-16.032 7.82-26.97 13.165c-4.265-2.135-8.643-4.092-13.007-5.836 0-.005-.07-.018-.07-.023-3.36-12.097-8.455-30.092-8.455-30.092s-12.834 12.415-21.995 21.256c-4.967-.946-9.997-1.644-15.08-2.124-6.444-11.22-15.616-27.18-15.616-27.18s-9.108 15.926-15.536 27.14c-5.106.46-10.182 1.166-15.2 2.1L174.15 91.15s-5.024 17.823-8.444 29.92c-.127.064-.272.116-.4.168-4.358 1.732-8.656 3.665-12.866 5.778l-26.787-13.08s-.237 17.962-.404 30.198c-3.744 2.904-7.372 5.963-10.842 9.166-.15.144-.29.27-.44.416-11.862-1.633-28.928-3.966-28.928-3.966l5.706 30.694c-4.615 6.62-8.75 13.604-12.343 20.808-4.55 9.126-8.264 18.72-11.047 28.525-2.847 9.998-4.754 20.375-5.673 30.8l-.005.028 17.367 3.848c-.242 3.506-.376 7.02-.376 10.524 0 6.078.375 12.143 1.108 18.14-.895.012-1.75.088-2.442.283-.122.023-.22.052-.33.098-.634.226-1.577 1.248-2.76 2.523-1.824 1.964-4.33 4.653-7.2 6.003-2.028.953-3.017 3.244-3.017 5.485 0 .807.12 1.605.375 2.326-.005.02-.005.048-.005.07-.012.036-.023.08-.04.14-.005.023-.017.057-.03.087-.005.023-.017.04-.028.068-.005.035-.017.07-.036.105-.01.035-.035.082-.058.116l-.04.108c-.07.18-.167.383-.266.623-.844 1.93-2.42 5.52-2.478 9.713-.005.094-.005.174-.005.272 0 1.704.253 3.318.756 4.87-.59 1.173-1.114 2.39-1.582 3.63-.005.008-.005.02-.012.042-.15.247-.254.524-.3.82-1.57 4.518-2.276 9.252-2.062 14.1.087 2.267.38 4.5.867 6.695-.144.674.023 1.39.48 1.933.57 2.094 1.328 4.133 2.263 6.105 2.102 4.468 5.025 8.44 8.675 11.797 1.444 1.327 2.97 2.535 4.575 3.608.313.41.762.71 1.288.837 2.08 1.287 4.29 2.36 6.613 3.236 4.788 1.79 9.83 2.605 14.99 2.396 5.145-.207 10.112-1.426 14.737-3.607 1.68-.784 3.28-1.69 4.817-2.706 1.467 1.603 2.97 3.173 4.5 4.703 4.932 4.93 10.234 9.53 15.806 13.72-.122.144-.242.294-.358.438-1.74 2.13-2.94 4.214-3.742 6.408-1.248 3.435-1.52 7.193-1.52 11.752v.306c.03.913.37 2.384.9 3.972.042.125.095.277.14.403.052.15.1.29.15.428.14.352.266.7.417 1.034 1.05 2.534 2.24 4.386 3.27 5.096l.016.012.017-.017c.023-.018 1.854-1.877 4.92-4.953.358.37.734.738 1.15 1.074.04.03.082.075.134.108l.005.007c1.357 1.09 3.14 2.106 5.745 3.302.895 4.08 3.552 6.367 5.988 8.184l.023.028.02-.038.01-.025c.174-.322 1.79-3.52 2.934-4.518.134.052 1.63.75 1.63.75.335.098.693.21 1.045.3.132.03.266.064.405.11.04.012.08.017.115.03 5.14 1.287 10.79 1.357 16.835.208 5.586-1.07 10.448-2.967 13.666-4.213.306-.122.607-.244.89-.347.67-.26 1.275-.485 1.777-.658 1.594-.52 3.985-.49 6.74-.434h.133c2.184.04 4.726.08 7.427-.174.052-.012.104-.012.162-.024h.035c5.89.705 11.835 1.057 17.783 1.057 10.02 0 20.07-1.01 29.836-3.002 9.52-1.945 18.865-4.847 27.794-8.616 8.755-3.713 17.21-8.302 25.134-13.647.174-.138.404-.29.59-.42-.473 1.766-.762 3.63-.89 5.505v1.097c0 2.274.302 4.518.948 6.55.83 2.575 2.08 4.79 3.73 6.593v.035l.058-.04c.53-.935 1.592-2.425 2.784-3.65.472-.466.945-.9 1.478-1.24 0 .012 6.734 1.848 6.734 1.86.127.478.53 1.627 1.305 2.886.056.068.115.125.115.188.057.018.057.035.057.052.945 1.42 2.31 2.91 4.194 3.682v.01-.022c.774-2.05 2.31-4.34 3.73-5.58 4.977 1.05 9.644 1.228 13.78.52 4.09-.7 7.752-2.24 10.825-4.59 7.39-5.557 11.77-15.584 12.716-29.014.175-1.43.718-3.39 1.423-5.663 1.42-4.947 3.362-11.73 3.362-19.296v-.254c-.047-1.264-.29-2.748-.705-4.213-.59-1.898-1.354-3.82-2.356-5.143 0-.017-.07-.035-.07-.05-.762-.902-5.5-2.707-9.275-3.562-1.134-1.113-2.96-2.044-4.97-2.544 1.41-2.887 2.773-5.817 4.02-8.78 1.768-4.172 3.373-8.427 4.723-12.75 9.288-4.178 17.5-8.703 26.615-14.078 8.628-5.066 16.494-10.315 23.484-15.55" id="Shape" fill="#FFF"/><path d="M432.874 257.69c-8.04 5.38-17.094 10.46-26.97 15.08-8.214 3.862-16.843 7.337-25.54 10.314-.888.322-1.837.63-2.783.93.185-3.007.302-6.024.302-9.033 0-2.613-.07-5.263-.244-7.9 3.846-.83 14.785-3.25 14.785-3.25 1.48-.31 2.553-1.612 2.553-3.09 0-.1 0-.173-.07-.26v-.059c-.877-10.62-2.784-21.175-5.67-31.38-2.843-9.996-6.632-19.768-11.24-29.08-3.188-6.388-6.86-12.668-10.826-18.648-.29-.44-.646-.876-.946-1.31.473-2.385 5.5-29.68 5.5-29.68.056-.178.056-.375.056-.57 0-.81-.29-1.6-.89-2.193-.704-.74-1.708-1.09-2.714-.96 0 0-25.02 3.435-27.674 3.804-2.842-2.603-5.856-5.136-8.872-7.556-.057-2.735-.416-28.95-.416-28.95 0-1.08-.59-2.085-1.48-2.656-.945-.578-2.123-.628-3.072-.15 0 0-23.067 11.243-25.607 12.473-3.432-1.673-6.92-3.25-10.407-4.675-.774-2.714-8.04-28.6-8.04-28.6-.3-1.078-1.132-1.91-2.253-2.203-1.062-.306-2.183 0-3.016.785 0 0-18.75 18.077-20.817 20.12-4.025-.715-8.104-1.293-12.186-1.714-1.415-2.55-14.745-25.748-14.745-25.748-.566-.987-1.622-1.6-2.76-1.6" id="Shape" fill="#FFF"/><path d="M226.835 79.928c-1.13 0-2.194.613-2.76 1.605 0 0-13.243 23.145-14.71 25.702-4.09.42-8.195.975-12.227 1.686-2.102-2.02-20.77-20.05-20.77-20.05-.812-.785-1.962-1.09-3.048-.785-1.074.29-1.923 1.126-2.23 2.2 0 0-7.242 25.713-8.01 28.426-3.584 1.456-7.155 3.042-10.65 4.757-2.517-1.23-25.382-12.375-25.382-12.375-.98-.48-2.13-.428-3.06.15-.93.57-1.496 1.576-1.513 2.655 0 0-.348 25.94-.38 28.68-3.144 2.482-6.228 5.097-9.18 7.787-2.662-.364-27.432-3.764-27.432-3.764-1.023-.133-2.04.22-2.744.96-.566.593-.878 1.385-.878 2.19 0 .198.018.394.058.58l5.464 29.406c-4.39 6.424-8.374 13.172-11.828 20.098-4.63 9.304-8.414 19.083-11.25 29.068-2.905 10.21-4.857 20.773-5.786 31.4l-.005.023c-.005.086-.01.19-.01.282 0 1.478 1.028 2.773 2.495 3.102 0 0 10.897 2.41 14.703 3.26-.133 2.672-.202 5.362-.202 8.01 0 5.127.262 10.298.78 15.418-.137.038-.328.098-.328.098s.007 0-.016.012c-1.37.496-2.42 1.628-4.014 3.348-1.646 1.767-3.903 4.196-6.23 5.298 0 0 .005 0 .01-.005-1.593.75-2.888 2.018-3.746 3.686-.717 1.386-1.09 3.014-1.09 4.676 0 .738.07 1.466.224 2.16-.058.12-.092.2-.092.2-.935 2.137-2.668 6.107-2.743 10.945v.317c0 1.565.185 3.098.55 4.577-.405.878-.78 1.773-1.122 2.66-.208.412-.357.833-.46 1.26-1.478 4.297-2.223 8.758-2.223 13.314 0 .592.012 1.182.04 1.788.092 2.25.376 4.502.82 6.7-.005.106-.01.233-.01.34 0 .995.276 1.965.8 2.823.596 2.073 1.376 4.128 2.3 6.09 2.287 4.834 5.445 9.142 9.402 12.77 1.45 1.347 3.004 2.58 4.626 3.69.578.6 1.288 1.062 2.067 1.345 2.15 1.293 4.44 2.402 6.81 3.285 5.185 1.957 10.654 2.834 16.24 2.603 5.583-.225 10.96-1.553 15.974-3.902.986-.466 1.95-.975 2.89-1.516.932.98 1.868 1.943 2.815 2.873 4.267 4.283 8.847 8.323 13.624 12.07-1.132 1.686-2.02 3.388-2.663 5.166-1.408 3.897-1.704 7.96-1.704 12.847l.005.307v.057c.028 1.577.595 3.546 1.056 4.925 0-.007.155.46.155.46l.16.462c.158.382.31.785.47 1.16 1.333 3.203 2.81 5.374 4.39 6.476 0-.007.022.012.022.012 1.26.87 2.986.72 4.072-.386l.016-.02c.012-.005 1.035-1.033 2.836-2.845 1.126.802 2.478 1.575 4.18 2.4 1.324 3.954 4.004 6.413 6.747 8.486.005.006.035.024.035.024.757.56 1.728.773 2.645.554.924-.225 1.693-.838 2.12-1.69l.024-.04c.37-.74.762-1.462 1.126-2.045.272.075.538.138.802.225l.444.104.126.035c5.59 1.403 11.708 1.478 18.2.242 5.88-1.108 10.903-3.065 14.23-4.364l.883-.346c.526-.207 1.137-.44 1.628-.593 1.092-.364 3.43-.33 5.69-.284l.127.007c2.148.035 4.817.08 7.657-.18 5.885.688 11.875 1.04 17.806 1.04 10.257 0 20.49-1.033 30.49-3.07 9.7-1.986 19.217-4.953 28.39-8.802 7.033-2.984 13.883-6.528 20.396-10.55v.162c0 2.58.405 5.178 1.12 7.49.947 3.03 2.427 5.658 4.436 7.817-.057-.007 0 .03 0 .03.716.75 1.71 1.12 2.715.992 1.006-.133 1.906-.74 2.438-1.65v-.013c.414-.728 1.29-1.95 2.24-2.908.057.017 2.01.558 3.546.962.3.653.647 1.328 1.075 1.964l.113.225c0 .006.06.07.06.093 1.06 1.58 2.898 3.712 5.61 4.848v.014c.833.34 1.722.34 2.484-.013.832-.333 1.422-.99 1.778-1.788v-.035c.416-1.084 1.064-2.31 1.826-3.25 4.735.82 9.17.884 13.26.19 4.553-.784 8.63-2.527 12.175-5.177 8.1-6.1 12.892-16.89 13.907-31.185.174-1.196.705-3.118 1.294-5.132 1.48-5.143 3.546-12.178 3.546-20.19v-.347c-.057-1.494-.346-3.22-.877-5.01-.427-1.414-1.304-4.085-2.853-6.157 0-.006-.232-.254-.232-.254-.3-.375-1.12-1.264-4.736-2.668-1.71-.653-3.66-1.27-5.43-1.696-.6-.503-1.304-.952-2.078-1.363.89-1.928 1.778-3.878 2.6-5.817 1.604-3.797 3.083-7.718 4.388-11.67 9.575-4.387 17.973-9.14 25.61-13.646 8.742-5.136 16.735-10.446 23.758-15.758" id="Shape" fill="#FFF"/><path id="Shape" fill="#FFF" d="M78.09 296.49s-.012 0-.03.006l.023-.007h.006z"/><path id="Shape" fill="#FFF" d="M57.847 328.045c-.052.082-.093.18-.144.266.04-.086.092-.183.144-.265"/><path id="Shape" fill="#FFF" d="M57.615 328.513v.012-.012z"/><path id="Shape" fill="#FFF" d="M57.206 329.714c-.024.093-.047.183-.06.288.013-.105.036-.195.06-.288"/><path id="Shape" fill="#FFF" d="M72.557 376.667c.052.082.115.15.174.21-.058-.06-.12-.128-.173-.21"/><path d="M415.965 287.66c-6.86 5.17-14.67 10.336-23.24 15.347-7.81 4.623-16.392 9.5-26.267 13.914-.82.365-1.48 1.077-1.71 1.94-1.36 4.226-2.898 8.416-4.61 12.468-1.245 2.887-2.55 5.785-3.96 8.59-.244.456-.358.945-.358 1.43 0 .455.114.913.29 1.322.427.888 1.19 1.536 2.135 1.76 1.71.43 2.96 1.172 3.488 1.726.416.416.948.705 1.537.843 3.374.744 6.675 2.072 7.693 2.666.59.925 1.178 2.305 1.652 3.857v.012c.358 1.252.59 2.465.59 3.4v.184c0 7.115-1.883 13.638-3.258 18.422-.703 2.384-1.29 4.456-1.524 6.11v.203c-.89 12.48-4.793 21.72-11.412 26.7-2.725 2.033-5.855 3.377-9.47 3.985-3.73.652-7.982.484-12.602-.49-1.006-.215-1.998.055-2.772.73-.947.808-1.838 1.945-2.67 3.198-.174-.226-.346-.454-.473-.658v-.012l-.045-.04c0 .005-.07-.12-.07-.12-.59-.925-.82-1.663-.89-1.814v.076c-.23-1.184-1.118-2.228-2.296-2.545l-6.747-1.847c-.946-.247-1.883-.087-2.657.474-.646.416-1.246.964-1.894 1.587v.01c-.184.162-.3.312-.473.473-.288-.675-.59-1.373-.83-2.12-.53-1.712-.763-3.653-.763-5.608v-.952c.057-1.635.357-3.238.762-4.79.114-.283.114-.567.114-.856 0-1.005-.473-1.973-1.293-2.58-1.132-.79-2.54-.806-3.66-.056l-.6.422c-7.75 5.223-16.02 9.708-24.59 13.345-8.768 3.693-17.928 6.532-27.212 8.426-9.517 1.952-19.337 2.943-29.183 2.943-5.798 0-11.65-.345-17.402-1.03-.237-.032-.474-.032-.705-.008l-.174.018c-2.536.244-4.944.202-7.074.17h-.134c-3.044-.053-5.677-.106-7.786.588 0 0-.005.005-.012.005-.61.208-1.31.472-1.91.704l-.907.352c-3.106 1.2-7.806 3.04-13.115 4.053-5.572 1.05-10.77 1.004-15.455-.175l-.473-.113c-.25-.07-.496-.15-.75-.214-.336-.17-1.387-.66-1.387-.66-1.15-.53-2.49-.34-3.443.486-.577.5-1.166 1.24-1.704 2.05-.96-1.07-1.715-2.315-2.086-3.978-.214-.97-.872-1.79-1.784-2.198-2.38-1.078-3.938-1.975-5.07-2.875v-.005s-.024-.02-.03-.02l.017.013-.093-.086c-.318-.265-.595-.524-.832-.78-.595-.63-1.422-1.008-2.276-1.02-.873-.013-1.7.316-2.324.935-.895.906-1.685 1.698-2.355 2.372-.213-.422-.444-.913-.68-1.484-.128-.3-.248-.606-.365-.924 0 .005-.134-.382-.134-.382l-.13-.352c-.55-1.634-.71-2.655-.723-3.026v-.237c0-4.225.226-7.648 1.328-10.682.675-1.882 1.698-3.632 3.212-5.477l.322-.404c.554-.663.82-1.54.72-2.406-.108-.862-.542-1.65-1.24-2.17-5.452-4.105-10.662-8.62-15.48-13.433-1.483-1.478-2.966-3.024-4.4-4.6-1.05-1.15-2.795-1.36-4.1-.508-1.397.93-2.877 1.767-4.408 2.486-4.24 2.004-8.79 3.11-13.514 3.308-4.73.19-9.356-.54-13.75-2.19-2.114-.8-4.147-1.796-6.054-2.968-.197-.127-.416-.226-.64-.3-.164-.175-.342-.342-.538-.462-1.467-.987-2.89-2.112-4.2-3.324-3.347-3.07-6.022-6.713-7.957-10.81-.843-1.808-1.555-3.684-2.074-5.595-.08-.306-.22-.588-.38-.854.004-.068.015-.15.015-.243 0-.226-.027-.45-.074-.668-.444-2.01-.71-4.075-.792-6.154-.023-.508-.035-1.014-.035-1.516 0-3.903.64-7.735 1.927-11.412.04-.12.076-.254.092-.382.07-.12.133-.237.173-.364l.017-.035c.416-1.137.905-2.25 1.45-3.34.214-.435.322-.92.322-1.41 0-.34-.04-.663-.15-.982-.393-1.222-.6-2.54-.6-3.89v-.22c.064-3.56 1.415-6.643 2.217-8.49l.294-.668.046-.132.075-.164.052-.138c0-.012.04-.132.04-.132l.064-.18s.116-.4.123-.42l.058-.41c.03-.144.04-.294.04-.42 0-.335-.062-.624-.194-.97-.127-.387-.197-.83-.197-1.277 0-1.206.483-2.285 1.172-2.603.005 0 .005 0 .01-.007 3.438-1.628 6.175-4.575 8.173-6.718.572-.617 1.324-1.42 1.705-1.742.254-.07.745-.134 1.554-.152.9-.012 1.756-.414 2.344-1.084.508-.59.778-1.334.778-2.09 0-.126-.005-.253-.023-.38-.717-5.866-1.08-11.845-1.08-17.756 0-3.41.128-6.885.365-10.303.005-.087.012-.156.012-.226 0-1.477-1.028-2.79-2.495-3.107 0 0-10.713-2.378-14.61-3.238.974-9.304 2.76-18.516 5.295-27.473 2.737-9.61 6.376-19.02 10.834-27.96 3.517-7.06 7.584-13.922 12.112-20.41.376-.537.566-1.176.566-1.81 0-.198-.012-.393-.047-.595l-4.904-26.367c6.29.872 24.558 3.377 24.558 3.377.952.12 1.906-.18 2.6-.827l.08-.075.357-.322c3.384-3.133 6.964-6.152 10.627-9.005.763-.582 1.224-1.5 1.23-2.47 0 0 .243-18.203.34-25.17l22.28 10.862c.89.444 1.93.44 2.82-.018 4.123-2.055 8.362-3.96 12.613-5.663l.397-.15c.93-.365 1.623-1.138 1.9-2.09 0 0 5.003-17.77 6.982-24.818 5.227 5.048 18.13 17.5 18.13 17.5.738.715 1.772 1.032 2.788.847" id="Shape" fill="#FFF"/><path d="M196.682 115.47c4.897-.912 9.916-1.616 14.917-2.072 1.033-.08 1.95-.675 2.47-1.576 0 0 9.044-15.797 12.77-22.326 3.736 6.53 12.827 22.36 12.827 22.36.532.9 1.42 1.483 2.483 1.582 4.91.463 9.94 1.165 14.785 2.096 1.07.19 2.074-.127 2.836-.837 0 0 12.965-12.51 18.16-17.57 1.954 7.07 6.978 24.98 6.978 24.98.3.952 1.006 1.727 1.895 2.085l.057.016c4.32 1.708 8.583 3.65 12.775 5.733.89.44 1.895.445 2.772.024 0 0 16.262-7.92 22.535-10.966.07 6.995.3 25.442.3 25.442.06.97.475 1.882 1.248 2.476 3.604 2.787 7.09 5.754 10.396 8.802l.244.247.174.115c.658.64 1.594.947 2.54.82 0 0 18.518-2.535 24.847-3.412-1.19 6.4-4.908 26.637-4.908 26.637-.06.197-.06.4-.06.59 0 .634.175 1.275.533 1.81.53.765 1.062 1.55 1.594 2.327 3.845 5.755 7.392 11.78 10.476 17.934 4.435 8.964 8.097 18.37 10.754 27.983 2.553 8.934 4.32 18.168 5.266 27.456-3.903.86-14.725 3.232-14.725 3.232-1.42.323-2.482 1.62-2.482 3.096v.232c.243 3.382.358 6.816.358 10.193 0 4.38-.174 8.824-.6 13.212v.282c0 .952.428 1.87 1.19 2.465.82.674 1.894.887 2.957.577 2.426-.755 4.91-1.568 7.394-2.412 8.928-3.065 17.74-6.61 26.197-10.574 10.108-4.765 19.522-10.002 27.804-15.544" id="Shape" fill="#FFF"/><path id="Shape" fill="#FFF" d="M75.388 378.59c.08.022.167.05.258.074-.09-.022-.178-.052-.258-.075"/><path id="Shape" fill="#FFF" d="M135 391.75v.005-.006"/><path id="Shape" fill="#FFF" d="M152.253 429.48c-.012.018-.02.04-.02.04 0-.007.006-.023.013-.04h.007z"/><path d="M311.937 414.128c-.357.49-.658.93-.832 1.297v.025c.303-.54.533-.993.832-1.322" id="Shape" fill="#FFF"/><path id="Shape" fill="#FFF" d="M388.59 260.98v-.018.024-.007z"/><path id="Shape" fill="#FFF" d="M67.51 310.586l-.005.005v.026c-.002.01.02-.112.005-.03"/><path id="Shape" fill="#FFF" d="M67.284 311.312l-.005.012.004-.012z"/><path id="Shape" fill="#FFF" d="M375.628 345.343v.007c0 .005.058.005.058.005.002.03-.058-.012-.058-.012"/><path id="Shape" fill="#FFF" d="M375.86 345.587v.021-.023z"/><path id="Shape" fill="#FFF" d="M378.712 351.768v-.01.01z"/><path id="Shape" fill="#FFF" d="M145.322 416.904s0-.006-.012-.006c.012 0 .012.006.012.006"/><path id="Shape" fill="#FFF" d="M323.708 418.843v-.007.007z"/><path d="M78.707 274.98c0-81.687 66.24-147.9 147.978-147.9 81.765 0 147.997 66.213 147.997 147.9 0 81.706-66.233 147.902-147.997 147.902-81.74 0-147.978-66.198-147.978-147.903" id="Shape" fill="#D31245"/><path d="M91.3 275.124c0-74.73 60.635-135.33 135.39-135.33 74.84 0 135.404 60.6 135.404 135.33 0 74.74-60.56 135.315-135.403 135.315-74.757 0-135.39-60.577-135.39-135.316" id="Shape" fill="#141006"/><path d="M140.973 278.125c-.047-.838-.064-2.05-.064-2.91.063-47.315 38.19-85.565 85.817-85.565 47.603 0 85.802 38.354 85.802 85.472 0 .86.057 2.14 0 2.978l79.18-17.41c-7.148-84.606-78.35-151.108-165.017-151.108-86.86 0-157.5 66.342-164.973 150.986l79.253 17.557z" id="Shape" fill="#141006"/><path d="M226.84 122.408c54.87 0 105.264 30.262 132.582 76.748l9.172-49.366-40.035 5.483-.544-41.274-37.007 18.03-11.483-40.824-30.924 29.905-21.763-37.944-21.71 37.945-30.954-29.904-11.518 40.824L125.685 114l-.543 41.273-40.06-5.483 9.178 49.366c27.313-46.486 77.708-76.748 132.58-76.748" id="Shape" fill="#D31245"/><path d="M106.62 174.76l-.213-.21c.397-.506.334-.697.155-.865l-7.053-6.62-2.918 3.37c-.184.202-.15.393.214.842l-.174.244-3.378-3.145.207-.23c.487.34.648.34.833.12l8.43-9.637c.186-.21.14-.37-.208-.83l.19-.232 3.322 3.13-.202.236c-.48-.334-.63-.364-.814-.138l-2.956 3.366 7.04 6.603c.15.178.352.242.815-.22l.23.21-3.52 4.007z" id="Shape" fill="#A7A9AC"/><path d="M146.187 132.7c2.345 3.935.508 7.983-3.166 10.342-3.638 2.338-7.97 2.223-10.296-1.673-2.333-3.927-.525-8.018 3.13-10.372 3.692-2.366 7.988-2.218 10.333 1.7m-10.27 6.6c1.26 2.106 3.63 2.23 5.488 1.02 1.878-1.207 2.843-3.458 1.57-5.568-1.247-2.096-3.615-2.228-5.474-1.01-1.882 1.193-2.828 3.456-1.582 5.557" id="Shape" fill="#A7A9AC"/><path d="M180.436 124.452c.04.26.167.404.762.272l.122.306-5.06 1.478-.074-.294c.63-.237.63-.428.56-.653l-3.217-11.808c-.088-.226-.168-.387-.857-.244l-.07-.322 8.94-2.638c3.598-1.074 5.52-.214 6.302 2.69.64 2.32-.487 3.994-2.34 5.164l4.06 3.372c.283.253.544.322.798.225l.09.305-5.076 1.506-.075-.293c.33-.134.467-.312.42-.618-.08-.238-3.643-2.956-4.076-3.4l-2.398.71 1.188 4.242zm-1.93-6.933l4.077-1.218c1.472-.416 1.716-1.208 1.502-1.95-.202-.722-.82-1.248-2.235-.826l-4.124 1.213.78 2.78z" id="Shape" fill="#A7A9AC"/><path d="M234.758 111.175c.035 4.594-3.58 7.077-7.918 7.077-4.314.03-7.918-2.446-7.918-7.053 0-4.595 3.592-7.083 7.918-7.095 4.314-.005 7.918 2.46 7.918 7.07m-12.07.025c0 2.488 1.947 3.856 4.152 3.856 2.2 0 4.142-1.39 4.142-3.88 0-2.48-1.94-3.86-4.142-3.86-2.205.005-4.152 1.408-4.152 3.884" id="Shape" fill="#A7A9AC"/><path d="M266.693 109.59c.058-.23.058-.422-.53-.654l.057-.294 5.915 1.692-.115.3c-.532-.133-.706-.01-.776.14-.057.28 2.97 6.17 4.09 8.622l1.837-6.776c.058-.3-.126-.496-.415-.606l.115-.318 4.434 1.304-.056.308c-.6-.14-.774.023-.833.242l-3.13 11.832c-.057.237-.057.433.53.653l-.056.306-4.623-1.332.06-.312c.415.143.6.052.657-.105.06-.333-.416-.86-4.91-10.192l-2.066 7.965c-.127.237-.07.428.53.658l-.068.313-4.667-1.344.057-.295c.648.115.773-.04.832-.265l3.13-11.84z" id="Shape" fill="#A7A9AC"/><path d="M308.75 141.202l.173-.282c.53.312.704.185.83 0l4.968-8.416-3.67-2.385c-.29-.134-.418-.076-.763.385l-.3-.15 2.355-4 .244.156c-.174.555-.174.746.068.89l10.638 6.792c.3.15.416.087.774-.364l.29.155-2.425 4-.243-.172c.244-.56.184-.716 0-.87l-3.72-2.35-4.97 8.375c-.112.214-.112.41.36.797l-.115.265-4.493-2.825z" id="Shape" fill="#A7A9AC"/><path d="M355.588 173.31c-3.257 3.118-7.45 2.045-10.418-1.257-2.89-3.277-3.604-7.71-.3-10.828 3.268-3.128 7.46-2.054 10.35 1.247 2.956 3.295 3.614 7.72.368 10.84m-8.165-9.225c-1.778 1.668-1.422 4.126.058 5.79 1.48 1.69 3.777 2.226 5.557.558 1.777-1.663 1.42-4.11-.116-5.79-1.42-1.684-3.776-2.226-5.497-.558" id="Shape" fill="#A7A9AC"/><path d="M456 246.285c-8.212 18.283-26.012 38.49-61.682 59.442-18.804 11.097-37.667 21.084-72.735 28.9l-35.958-43.902c8.986 4.086 51.216 6.73 72.03 2.13 28.982-6.338 71.256-23.572 96.103-47.696" id="Shape" fill="#141006"/><path d="M94.913 307.144c-19.798.814-35.26 17.53-34.42 37.35.82 19.845 17.533 35.232 37.384 34.436 19.844-.81 35.234-17.53 34.45-37.362-.826-19.82-17.563-35.242-37.414-34.424" id="Shape" fill="#A7B1B7"/><path d="M94.844 305.31c-5.1.208-10.008 1.415-14.588 3.58-4.422 2.09-8.345 4.98-11.677 8.594-3.316 3.6-5.87 7.74-7.578 12.31-1.78 4.722-2.558 9.698-2.345 14.778.214 5.09 1.41 10.002 3.57 14.574 2.085 4.416 4.967 8.34 8.576 11.665 3.61 3.32 7.756 5.87 12.324 7.59 4.735 1.784 9.726 2.568 14.825 2.366 5.1-.207 10.003-1.402 14.57-3.566 4.42-2.078 8.347-4.965 11.674-8.57 3.315-3.603 5.88-7.754 7.594-12.325 1.78-4.727 2.57-9.713 2.362-14.804-.202-5.102-1.41-9.996-3.564-14.575-2.096-4.41-4.972-8.327-8.583-11.657-3.62-3.325-7.762-5.88-12.335-7.598-4.737-1.77-9.73-2.573-14.826-2.36m13.537 5.8c4.125 1.548 7.868 3.856 11.136 6.856 3.258 3.003 5.863 6.55 7.74 10.53 1.946 4.126 3.037 8.546 3.227 13.147.186 4.6-.543 9.102-2.137 13.368-1.56 4.134-3.864 7.874-6.86 11.136-2.998 3.247-6.543 5.852-10.528 7.734-4.13 1.945-8.553 3.03-13.156 3.214-4.603.186-9.103-.53-13.375-2.134-4.13-1.547-7.878-3.862-11.136-6.852-3.25-3.008-5.86-6.546-7.74-10.535-1.945-4.12-3.036-8.553-3.222-13.153-.016-.498-.035-.987-.035-1.478 0-4.08.73-8.064 2.15-11.862 1.546-4.122 3.845-7.862 6.843-11.11 3.002-3.268 6.548-5.877 10.546-7.76 4.13-1.96 8.56-3.04 13.156-3.225 4.608-.194 9.108.52 13.393 2.125" id="Shape" fill="#141006"/><path d="M78.136 336.744c-.46 6.21.035 12.167 1.48 17.684 1.51 5.808 4.012 10.898 7.43 15.157 3.663 4.556 8.288 8.03 13.747 10.315l1.42-3.387c-4.886-2.05-9.026-5.16-12.3-9.23-3.092-3.85-5.36-8.49-6.748-13.78-1.333-5.133-1.796-10.68-1.36-16.486.415-5.796 1.72-11.556 3.838-17.137l-3.442-1.304c-2.24 5.908-3.608 12.02-4.064 18.168" id="Shape" fill="#141006"/><path d="M100.054 327.514c-1.883 4.198-3.825 8.532-6.954 11.74-1.646 1.686-3.482 2.94-5.626 3.845-2.46 1.026-5.278 1.563-8.58 1.655-4.108.094-7.075-.975-9.34-3.37-2.108-2.23-3.724-5.64-5.25-11.05l-3.546.995c1.704 6.02 3.592 9.887 6.122 12.57 2.985 3.168 6.942 4.647 12.1 4.532 7.12-.183 12.596-2.343 16.748-6.602 3.6-3.677 5.673-8.323 7.676-12.82 1.415-3.152 2.75-6.13 4.51-8.56 1.866-2.587 3.973-4.185 6.624-5.022l-1.114-3.515c-7.462 2.378-10.466 9.09-13.37 15.6" id="Shape" fill="#141006"/><path d="M111.148 343.434c-5.665 4.564-12.544 7.987-19.884 9.87-5.84 1.5-11.7 1.974-16.974 1.378-4.984-.554-9.17-2.09-11.8-4.31l-2.367 2.792c3.216 2.73 7.975 4.526 13.762 5.174 5.706.646 12.025.13 18.298-1.478 7.848-2.01 15.206-5.67 21.27-10.564 7.045-5.684 12.25-12.837 15.455-21.268l-3.437-1.31c-2.973 7.814-7.795 14.45-14.322 19.716" id="Shape" fill="#141006"/><path d="M104.084 361.58c-5.353-.237-10.887-.48-17.03 1.046-3.588.88-6.29 2.152-8.248 3.872-1.935 1.69-3.148 3.81-3.714 6.475l3.592.774c.59-2.76 2.15-5.806 9.253-7.555 5.638-1.397 10.897-1.165 15.987-.945 4.803.207 9.338.41 13.998-.68 2.546-.596 4.864-1.514 7.11-2.823 2.47-1.426 4.786-3.29 7.07-5.68l-2.665-2.534c-8.39 8.788-16.25 8.443-25.353 8.05" id="Shape" fill="#141006"/><path d="M94.913 307.144c-19.798.814-35.26 17.53-34.42 37.35.82 19.845 17.533 35.232 37.384 34.436 19.844-.81 35.234-17.53 34.45-37.362-.826-19.82-17.563-35.242-37.414-34.424" id="Shape" fill="#A7A9AC"/><path d="M94.816 304.877c-5.146.214-10.12 1.426-14.745 3.608-4.475 2.123-8.45 5.05-11.81 8.703-3.362 3.65-5.932 7.838-7.664 12.444-1.797 4.785-2.594 9.818-2.373 14.96.21 5.15 1.427 10.114 3.61 14.736 2.108 4.468 5.023 8.44 8.674 11.797 3.65 3.355 7.848 5.946 12.47 7.683 4.793 1.79 9.834 2.605 14.992 2.396 5.15-.207 10.112-1.426 14.744-3.607 4.464-2.107 8.433-5.02 11.8-8.668 3.36-3.65 5.943-7.844 7.68-12.47 1.79-4.783 2.605-9.835 2.403-14.99-.214-5.147-1.432-10.107-3.616-14.722-2.107-4.48-5.03-8.446-8.68-11.797-3.65-3.36-7.847-5.95-12.48-7.687-4.794-1.798-9.84-2.6-15.004-2.386m13.41 6.642c4.065 1.53 7.773 3.803 10.99 6.77 3.224 2.958 5.794 6.46 7.648 10.385 1.923 4.08 2.998 8.45 3.18 12.986.187 4.55-.523 8.988-2.105 13.2-1.532 4.07-3.82 7.764-6.777 10.978-2.962 3.216-6.457 5.796-10.39 7.64-4.072 1.93-8.443 2.992-13 3.176-4.534.183-8.982-.52-13.198-2.1-4.076-1.537-7.774-3.81-10.99-6.772-3.212-2.96-5.78-6.46-7.64-10.396-1.924-4.08-2.994-8.445-3.19-12.99-.01-.492-.022-.978-.022-1.463 0-4.015.71-7.948 2.12-11.705 1.525-4.07 3.794-7.763 6.752-10.972 2.962-3.215 6.463-5.79 10.4-7.653 4.09-1.94 8.462-3.002 13-3.193 4.55-.187 9 .523 13.22 2.11" id="Shape" fill="#141006"/><path d="M315.426 387.8c-2.483.222-5.856 1.74-9.818 4.597-.705-2.103-.82-5.127-.058-8.087v-.1l.775-6.4c-4.678-1.12-9.472-2.77-14.912-4.64l-6.978 1.568c-12.59-12.14-31.814-20.725-35.187-20.702-6.324-.023-22.137 3.45-35.472 10.446l-1.923-2.798-1.028.045c1.883 5.177-.768 8.784-.566 11.265 6.306 1.346 8.4 7.43 6.657 14.828 2.506 3.153 5.233 13.6 3.216 17.42 1.49 4.842.913 9.39-.322 13.326-10.13 5.622-20.732 2.33-25.416 3.897-5.122 1.725-19.816 9.113-34.705 4.57l-1.635-.773c-1.224 1.05-2.974 4.577-2.974 4.577-2.684-2.02-5.122-4.254-5.977-8.196-2.974-1.36-5.398-2.7-7.058-4.5-3.124 3.14-4.944 4.974-4.944 4.974-2.274-1.57-4.792-8.312-4.844-10.904-.023-9.742 1.114-14.955 8.83-22.29.762-9.466 22.715-8.052 30.107-6.055 0 0-.906-3.828-1.79-7.423-.82-3.574 3.102-5.604 3.102-5.604-2.547-12-9.54-16.316-9.668-28.317-16.085-1.443-25.694-11.303-27.976-13.385 0 0 .17 2.85-1.137 6.13-5.377 13.922-21.133 15.647-21.133 15.647l-.675-.75c5.758-4.958 5.95-13.28 5.54-16.9-3.744-2.51-3.217-8.9-2.068-10.41-.42-2.76-3.333-5.508-4.857-7.978-2.344-1.895-6.555-4.745-6.555-4.745s-5.007 1.396-5.908 1.773c-.756 2.625-3.72 6.008-7.16 6.117 0 0-1.982 1.334-4.32 4.457-2.725 3.677-3.05 5.06-4.17 7.54-.428.967-2.864 3-2.864 3l-.97-.755c-2.86-3.66-3.525-7.498-3.363-10.2-4.21 1.283-6.815 12.18-6.815 12.18l-.376-.122c-12.186-10.054-3.732-22.828-3.586-24.294-.983-2.792-.076-6.52 2.616-7.778 4.724-2.223 8.34-7.937 9.962-8.525 2.73-.945 8.588.15 8.588.15 5.163-2.782 12.63-3.895 14.992-4.565 3.13-.466 14.93 2.523 27.243 8.723 5.724-.566 20.433 1.65 22.974 2.65-.283-10.26 4.607-19.298 10.694-24.573 2.553-2.81 5.788-6.776 10.708-9.222 5.048-2.448 59.637-13.474 67.093-13.37 8.743-.59 18.868 1.125 23.764 4.98 3.14 1.368 11.663 14.745 11.133 30.96 2.24.812 4.898 2.41 5.14 4.108 15.432.162 34.422 19.976 36.79 24.807 2.413 4.833 8.396 12.542 17.557 16.057-.473 3.318-1.362 5.94-2.483 7.878 6.09-7.27 16.033-4.133 21.474-.472 3.132-1.506 8.756-.19 11.3 2.29 3.96.89 8.627 2.726 9.274 3.602 1.777 2.338 3.143 6.805 3.143 9.594 0 11.082-4.264 20.46-4.853 24.957-1.707 24.52-14.853 37.783-37.32 33.044-1.42 1.27-2.898 3.574-3.66 5.604-3.673-1.524-5.44-5.76-5.626-6.804l-6.79-1.877c-1.778 1.217-3.56 3.62-4.333 4.91-7.15-7.722-5.487-22.134 1.19-28.12v-.144l.41-.892z" id="Shape" fill="#141006"/><path d="M81.804 318.424c-2.26 5.95-3.645 12.103-4.107 18.29-.462 6.245.035 12.26 1.49 17.818 1.525 5.864 4.067 11.02 7.52 15.326 3.706 4.605 8.39 8.125 13.917 10.446 1.154.486 2.49-.057 2.974-1.217.486-1.166-.06-2.487-1.225-2.97-4.81-2.02-8.894-5.1-12.122-9.103-3.048-3.804-5.294-8.386-6.657-13.616-1.328-5.086-1.784-10.586-1.362-16.357.427-5.738 1.722-11.463 3.824-17.005.45-1.165-.15-2.48-1.31-2.932-1.18-.44-2.49.144-2.94 1.32" id="Shape" fill="#141006"/><path d="M113.29 311.51c-7.647 2.43-10.7 9.235-13.647 15.827-1.848 4.162-3.77 8.46-6.86 11.624-1.594 1.64-3.39 2.865-5.48 3.73-2.408 1.005-5.17 1.548-8.422 1.634-3.967.08-6.843-.94-9.01-3.237-2.055-2.176-3.64-5.534-5.15-10.862-.348-1.208-1.595-1.912-2.808-1.582-1.213.353-1.916 1.605-1.565 2.817 1.714 6.073 3.625 10.01 6.22 12.75 3.078 3.255 7.145 4.78 12.423 4.653 7.24-.18 12.81-2.384 17.056-6.724 3.644-3.735 5.734-8.417 7.756-12.942 2.767-6.205 5.158-11.537 10.858-13.362 1.207-.376 1.865-1.65 1.48-2.85-.377-1.2-1.653-1.864-2.85-1.477" id="Shape" fill="#141006"/><path d="M59.58 350.296c.808-.957 2.247-1.08 3.2-.26 2.557 2.172 6.664 3.67 11.557 4.214 5.226.593 11.037.108 16.823-1.368 7.277-1.87 14.1-5.253 19.718-9.783 6.467-5.218 11.24-11.787 14.19-19.533.44-1.182 1.756-1.767 2.927-1.32 1.178.443 1.768 1.754 1.317 2.93-3.235 8.51-8.485 15.736-15.587 21.462-6.117 4.933-13.532 8.61-21.44 10.647-6.304 1.623-12.687 2.136-18.45 1.49-5.87-.668-10.715-2.48-14-5.274l-.255-3.207z" id="Shape" fill="#141006"/><path d="M74.666 372.88c1.178-5.517 5.094-8.917 12.29-10.68 6.196-1.533 11.758-1.296 17.146-1.06 4.523.195 8.78.385 12.886-.578 4.504-1.057 8.35-3.388 12.14-7.337.86-.912 2.304-.946 3.217-.076.905.866.94 2.302.07 3.21-2.31 2.417-4.655 4.305-7.168 5.76-2.27 1.327-4.638 2.257-7.225 2.868-4.718 1.102-9.28.9-14.11.687-5.064-.214-10.297-.446-15.87.94-2.94.716-5.084 1.685-6.52 2.96-1.254 1.107-2.028 2.453-2.41 4.26-.264 1.23-1.47 2.01-2.702 1.743l-1.744-2.698z" id="Shape" fill="#141006"/><path d="M325.418 386.178c-1.292-2.077-12.06-1.68-18.1 2.732-1.41-4.19 4.32-13.2 14.138-14.736 12.002-1.887 6.388 12.42 3.962 12.004" id="Shape" fill="#141006"/><path d="M321.167 372.078c-3.14.49-6.097 1.675-8.697 3.534-2.31 1.61-4.262 3.653-5.614 5.904-1.72 2.92-2.31 5.87-1.535 8.085l.937 2.722 2.31-1.7c2.253-1.622 5.556-2.82 9.113-3.312 3.246-.44 5.442-.108 6.09.19.114.208.358.612.358.612l.946.15c.947.18 2.355-.068 3.834-2.216.89-1.38 1.606-3.29 1.895-5.103.416-2.377.058-4.473-.946-6.054-1.124-1.736-3.492-3.637-8.69-2.812m-10.65 11.632c1.838-3.03 5.743-6.57 11.298-7.43 1.536-.242 2.726-.182 3.546.158.532.226.89.57 1.134 1.09.173.416.23.952.23 1.554 0 .716-.113 1.53-.357 2.36-.29.952-.647 1.674-.948 2.14-.473-.207-1.063-.37-1.708-.496-2.254-.416-5.327-.306-8.456.324-1.537.312-3.49.825-5.44 1.666.17-.414.412-.88.7-1.366" id="Shape" fill="#141006"/><path d="M176.247 380.626c1.115 3.29 2.184 6.932 2.184 6.932 3.692 2.518 4.915 6.747 3.82 9.806-2.305-5.62-8-8.05-9.61-8.623-3.402-.616-7.08-.905-10.742-1.094-3.656-.202-11.106-.51-12.95 1.403 1.844.967 5.46 4.033 5.766 10.527 1.605-2.436 4.58-3.238 6.168-3.562 1.375-.254 5.106 4.894 5.98 6.586 1.327 2.47 3.955 8.19 3.955 8.19 2.224.53 5.434 1.656 9.663.698 4.245-.935 8.223-3.03 14.663-4.225 1.68-.316 9.686-.225 11.32-.604 4.33-.965 6.058-.694 7.786-2.142 2.916-4.525-2.942-17.248-2.942-17.248 1.542-4.807-.023-7.312-2.628-8.472-2.15 2.222-8.506 3.88-11.186 3.758-12.226-.542-13.56-.946-18.816-3.406-.003-.002-3.498-1.616-2.43 1.476" id="Shape" fill="#FFF"/><path d="M176.19 378.833c-.38.327-.41.952-.098 1.852 1.11 3.237 2.165 6.88 2.172 6.914l.023.046.047.038c1.72 1.166 2.993 2.77 3.644 4.624.34.925.497 1.854.497 2.754 0 .64-.082 1.257-.254 1.84-1.015-2.26-2.674-4.235-4.948-5.875-1.987-1.442-3.858-2.19-4.573-2.443l-.013-.005h-.012c-3.73-.67-7.72-.94-10.77-1.09-4.765-.266-11.297-.393-13.07 1.442l-.15.15.19.105c.896.466 5.342 3.158 5.678 10.395l.024.49.26-.408c1.15-1.72 3.188-2.904 6.075-3.5 1.173-.212 4.8 4.572 5.805 6.507 1.317 2.442 3.92 8.128 3.95 8.185l.035.07.93.237c2.173.566 5.135 1.327 8.878.484 1.8-.392 3.562-.998 5.428-1.638 2.587-.888 5.516-1.893 9.235-2.586.792-.15 3.08-.207 5.296-.266 2.54-.068 5.15-.132 6.03-.334 1.386-.312 2.53-.496 3.446-.648 2-.327 3.205-.52 4.413-1.534l.016-.012.01-.023c.56-.867.84-2.08.84-3.607 0-1.825-.394-4.11-1.196-6.84-1.016-3.453-2.344-6.46-2.546-6.893.397-1.264.594-2.4.594-3.44 0-.814-.122-1.56-.376-2.217-.502-1.316-1.497-2.303-2.957-2.956l-.1-.045-.085.087c-2.056 2.134-8.358 3.82-11.066 3.705-12.348-.548-13.567-.964-18.754-3.394-.072-.03-1.823-.838-2.55-.173m.208 1.748c-.116-.3-.196-.645-.196-.95 0-.23.057-.428.202-.56.475-.434 1.75.017 2.2.225 2.542 1.19 4.24 1.946 6.826 2.435 2.64.498 6.273.728 12.047.982 1.38.063 3.672-.33 5.85-1.005 1.443-.44 4.013-1.373 5.376-2.72 1.324.62 2.234 1.537 2.692 2.73.242.63.358 1.335.358 2.115 0 1.01-.203 2.148-.602 3.393l-.01.06.023.06c.045.1 3.736 8.19 3.736 13.675 0 1.344-.227 2.534-.775 3.398-1.138.93-2.24 1.12-4.24 1.437-.923.15-2.072.34-3.464.653-.843.19-3.443.266-5.97.322-2.323.064-4.53.116-5.342.266-3.75.705-6.684 1.708-9.275 2.603-1.866.64-3.627 1.24-5.39 1.634-3.678.825-6.607.068-8.725-.48 0 0-.664-.168-.797-.2-.305-.648-2.684-5.83-3.926-8.133-.42-.83-1.565-2.527-2.818-4.052-1.536-1.852-2.67-2.742-3.334-2.613-2.772.578-4.782 1.673-6.01 3.266-.48-6.647-4.407-9.413-5.62-10.106 2.142-1.782 10.03-1.356 12.67-1.206 3.044.155 7.007.414 10.708 1.09.717.248 2.553.976 4.504 2.39 2.345 1.698 4.032 3.757 5.008 6.14l.157.384.143-.386c.26-.74.397-1.543.397-2.36 0-.94-.173-1.913-.52-2.865-.674-1.892-1.962-3.537-3.72-4.743-.13-.462-1.128-3.835-2.162-6.876" id="Shape" fill="#141006"/><path d="M159.69 420.788c2.1-3.227 6.04-5.892 6.04-5.892 1.88.95 9.826 2.41 15.3 1.113 5.505-1.293 13.63-5.08 19.505-5.115 5.71-.052 10.95.214 14.553-2.263l-.34 5.375s-2.878 1.79-5.338 2.002c-3.205.253-9.6-.515-13.935.3-4.337.855-8.53 2.77-12.232 4.064-3.01 1.02-7.59 2.183-15.472 1.934-2.704-.105-8.08-1.52-8.08-1.52" id="Shape" fill="#FFF"/><path d="M148.226 415.178s-.212-.877.052-2.498c.37-2.223.52-2.84.52-2.84-2.265 1.783-2.535 1.783-3.384 3.03.595 1.21 1.975 1.523 2.812 2.308" id="Shape" fill="#FFF"/><path d="M215.816 337.016c3.686 2.88 7.51 8.12 10.702 14.908 9.31-3.083 19.423-4.04 21.248-4.342 2.668-.397 14.32 3.25 27.742 12.682 5.683.266 17.452-4.07 22.236-7.838-5.15-3.29-6.388-15.01-16.206-19.578-16.035 10.192-35.483 15.087-65.722 4.168" id="Shape" fill="#FFF"/><path d="M281.48 332.72c-4.31 2.738-8.515 4.855-12.775 6.465-4.782 1.813-9.584 2.957-14.725 3.498-5.447.59-11.292.44-17.384-.432-6.45-.94-13.445-2.763-20.728-5.385l-.156.276c3.743 2.94 7.538 8.21 10.65 14.854l.07.132.133-.045c7.866-2.597 16.24-3.676 19.792-4.14.647-.097 1.12-.156 1.41-.194 1.24-.185 4.734.553 9.765 2.643 4.02 1.667 10.41 4.762 17.918 9.995v.023l.058.007c2.67.132 6.86-.757 11.54-2.4 4.433-1.606 8.512-3.643 10.81-5.462l.175-.132-.174-.132c-2.068-1.304-3.49-3.96-5.14-7.018-1.122-2.205-2.483-4.704-4.194-6.937-2.022-2.57-4.274-4.4-6.92-5.622l-.07-.034-.056.045zm-27.437 10.287c5.146-.55 9.983-1.698 14.79-3.533 4.25-1.605 8.455-3.722 12.704-6.446 5.8 2.712 8.524 7.855 10.95 12.387 1.594 3.024 3.016 5.627 5.024 7.023-2.366 1.762-6.27 3.72-10.59 5.263-4.61 1.646-8.687 2.52-11.355 2.403-7.45-5.242-13.838-8.34-17.925-10.014-4.436-1.848-8.327-2.893-9.928-2.663-.237.045-.767.108-1.427.184-3.54.462-11.84 1.55-19.694 4.122-2.933-6.21-6.443-11.233-9.98-14.267 7 2.47 13.724 4.184 19.985 5.096 6.093.88 11.938 1.035 17.448.447z" id="Shape" fill="#141006"/><path d="M297.27 319.094c12.185 7 9.76 15.093 16.62 18.817 0 0 .946-.888 2.24-3.075 1.306-2.142 1.607-4.74 1.607-4.74-5.44-5.326-8.398-14.065-13.838-17.736l-6.63 6.734z" id="Shape" fill="#FFF"/><path d="M296.98 319.122l.174.105c6.92 3.964 9.1 8.207 10.996 11.953 1.422 2.817 2.668 5.24 5.625 6.874l.116.052.114-.082c0-.035.948-.923 2.31-3.11 1.237-2.148 1.538-4.693 1.595-4.796v-.075l-.058-.06c-2.426-2.365-4.377-5.44-6.215-8.408-2.356-3.745-4.608-7.29-7.68-9.344l-.116-.07-6.86 6.962zm6.92-6.546c2.956 2.02 5.14 5.496 7.45 9.17 1.894 2.962 3.777 6.02 6.203 8.412-.058.44-.404 2.7-1.537 4.593-1.12 1.778-1.895 2.697-2.184 2.962-2.84-1.588-4.018-3.947-5.383-6.678-.947-1.813-1.953-3.867-3.674-5.922-1.824-2.315-4.25-4.288-7.266-6.062.29-.27 6.204-6.293 6.39-6.474z" id="Shape" fill="#141006"/><path d="M354.398 345.98c-1.006.068-2.426.465-2.426.465-5.555-4.103-14.9-6.654-18.33-.514l1.246.537c6.92-3.15 10.638 4.393 10.28 11.926-.115 1.927-1.41 6.684-3.66 9.668-2.784 3.793-8.515 7.338-8.515 7.338.89 1.344 1.12 1.777.764 2.314 4.088-.132 11.353 1.535 14.553 4.808-13.422-2.14-22.652-1.857-27.86 6.228 2.784.964 6.63 3.722 6.86 8.37 1.78-3.464 4.677-5.324 7.692-5.508 2.54-.115 7.923 2.32 9.345 7.786 11.585-1.57 12.06-15.722 13.25-20.034 1.292-4.278 4.967-16.114 4.666-22.86-.29-6.702-2.6-9.548-5.915-10.398.002 0-.944-.218-1.95-.125" id="Shape" fill="#FFF"/><path d="M338.378 342.326c-2.193.46-3.858 1.65-4.91 3.526l-.057.15 1.48.635.058-.03c2.24-1.027 4.25-.963 5.96.21 1.373.934 2.483 2.56 3.198 4.696.717 2.06 1.006 4.438.89 6.875-.126 1.77-1.293 6.55-3.603 9.586-2.727 3.717-8.457 7.25-8.527 7.284l-.113.092.056.138c.947 1.35 1.132 1.703.832 2.13l-.174.253.29-.01c2.134-.064 4.966.352 7.574 1.12 2.772.83 5.015 1.983 6.493 3.3-7.393-1.153-12.533-1.35-16.55-.634-2.427.42-4.494 1.166-6.262 2.275-1.848 1.17-3.432 2.73-4.678 4.745l-.127.168.184.07c2.957 1.02 6.504 3.786 6.803 8.224v.585l.3-.52c.82-1.658 1.953-2.98 3.304-3.927 1.236-.888 2.715-1.41 4.193-1.506 1.075-.046 2.958.39 4.978 1.775 1.48 1.034 3.42 2.888 4.194 5.893l.07.14.114-.025c2.3-.307 4.32-1.137 6.03-2.453 1.41-1.138 2.657-2.666 3.66-4.555 1.837-3.44 2.61-7.422 3.13-10.336.244-1.12.428-2.09.6-2.79l.174-.502c1.422-4.756 4.737-15.897 4.436-22.412-.232-6.13-2.184-9.575-6.03-10.545 0-.004-.946-.225-2.008-.138-.89.06-2.01.37-2.31.446-3.603-2.647-9.216-4.886-13.652-3.932m.06.305c4.376-.935 9.862 1.304 13.477 3.937l.057.045.06-.018c0-.005 1.36-.398 2.366-.46 1.006-.076 1.895.126 1.895.126 1.72.444 3.073 1.402 4.018 2.932 1.007 1.703 1.666 4.168 1.78 7.32v.824c0 6.552-3.142 16.942-4.492 21.488l-.127.503c-.23.71-.403 1.692-.59 2.817-.53 2.897-1.292 6.853-3.072 10.253-1.005 1.84-2.253 3.334-3.603 4.443-1.663 1.26-3.558 2.054-5.74 2.366-1.48-5.38-6.862-7.885-9.473-7.758-1.524.094-3.06.635-4.366 1.56-1.305.88-2.368 2.09-3.2 3.578-.46-4.196-3.835-6.856-6.733-7.91 1.236-1.895 2.715-3.368 4.482-4.476 1.79-1.09 3.73-1.82 6.157-2.245 4.09-.71 9.29-.497 16.968.722l.486.075-.36-.346c-1.894-1.905-4.85-3.077-7.033-3.72-2.483-.755-5.267-1.176-7.394-1.142.046-.092.046-.196.046-.294 0-.456-.29-.975-.877-1.807.944-.56 5.97-3.84 8.512-7.284 2.31-3.083 3.557-7.956 3.615-9.756.045-.375.045-.738.045-1.113 0-2.083-.29-4.092-.935-5.88-.705-2.21-1.895-3.885-3.315-4.86-1.768-1.207-3.905-1.292-6.204-.26-.127-.045-.774-.334-1.006-.438 1.008-1.698 2.545-2.782 4.555-3.22" id="Shape" fill="#141006"/><path d="M365.94 350.44c1.005 2.574 1.477 5.24 1.477 8.854 0 2.263-1.42 9.71-2.322 11.62-.82 1.887-2.713 8.07-2.89 8.946-.23.91-.945 10.07-3.788 14.666-2.958 4.605-6.79 9.628-14.715 9.875-2.426.838-6.93 5.318-6.93 5.318s8.166.888 13.075-.862c6.688-2.378 10.408-7.982 12.418-12.028 2.193-4.426 3.79-14.522 4.018-16.825.53-5.6 4.378-13.228 4.563-19.74.114-5.74-.775-6.457-1.953-8.997l-2.954-.825z" id="Shape" fill="#FFF"/><path d="M321.398 406.55l2.426.478c-.233-1.622.113-3.035.113-3.035s-1.707 1.338-2.54 2.557" id="Shape" fill="#FFF"/><path d="M225.923 334.798c6.96.67 22.264-2.014 28.767-3.92-5.62 5.52-14.075 6.333-14.075 6.333 14.195 1.876 39.973-3.756 56.883-27.472l-.994-3.595c-4.85-7.29-6.573-9.86-9.83-10.876l-2.355 4.133c-5.037 7.868-16.092 13.125-26.08 13.5-11.118.393-19.457-2.91-25.976-7.94-7.324-5.612-20.266-19.343-13.186-45.804-1.635.23-.814.068-1.964.78-.167.796-1.843 6.276-2.772 9.55-2.593 9.315-.444 17.302-1.288 21.972-1.305 7.21-6.296 13.663-9.898 15.683-25.874-.593-31.188-34.32-31.188-34.32-3.333 5.333-.975 16.307-.975 16.307s-.076 1.51 1.732 5.62c9.5 21.837 21.883 23.188 43.108 37.306 3.31 1.4 10.09 2.745 10.09 2.745" id="Shape" fill="#FFF"/><path d="M259.836 324.536s-11.47 3.324-17.62 3.728l-11.337-7.89-2.924 3.542 8.46 5.68c-7.728 1.846-18.585.523-18.585.523l.135-2.14-21.277-14.362-7.577-2.818c17.51 1.726 32.148-5.57 32.148-5.57l7.554 1.415 7.49 6.182-1.923 3.104 7.12.393 9.467 6.603 8.87 1.61zm-34.982-8.675l-2.906-2.838s-.623.444-1.213.743c-1.196.6-3.686 1.426-5.84 1.5l6.67 4.907 3.29-4.31z" id="Shape" fill="#141006"/><path d="M188.26 397.672c6.7-1.236 16.455 6.62 22.114 2.47-.37 2.47-8.687 6.152-13.62 3.063-2.4-1.482-5.536-4.917-8.493-5.533" id="Shape" fill="#141006"/><path d="M188.175 397.227l-.01.877c1.858.397 3.88 2.032 5.66 3.463.96.78 1.866 1.506 2.696 2.02 3.276 2.05 7.82 1.235 10.703-.098 2.085-.953 3.43-2.183 3.597-3.285l.162-1.064-.872.63c-1.363 1-3.06 1.335-5.337 1.034-2.06-.277-4.354-1.038-6.573-1.783-3.446-1.153-7.017-2.347-10.025-1.793m8.817 5.6c-.785-.487-1.67-1.196-2.598-1.953-1.265-1.015-2.64-2.122-4.043-2.868 2.352.12 4.997 1.005 7.566 1.875 3.882 1.3 7.872 2.62 11.07 1.497-.502.422-1.212.872-2.142 1.304-2.684 1.23-6.87 2.003-9.852.146" id="Shape" fill="#141006"/><path d="M158.2 392.188c4.338 1.802 12.557 8.184 12.926 18.996l-4.99-.33s.935-5.107-7.935-18.666" id="Shape" fill="#141006"/><path d="M193.85 398.532c4.95-7.423-.385-12.773-.385-12.773 11.98-.792 13.71 11.606 12.78 15.553-.167.877-9.777 1.39-12.394-2.78" id="Shape" fill="#141006"/><path d="M193.35 383.986l-3.87.254s2.704 2.74 2.72 2.758c.017.012 1.11 1.154 1.67 3.03.207.722.312 1.442.312 2.17 0 1.762-.6 3.55-1.803 5.345l-.636.952.607.97c2.796 4.455 10.703 4.488 13.272 4.01.515-.1 2.096-.398 2.363-1.836l-.017.074c.717-3.026.127-9.182-3.442-13.385-2.658-3.154-6.528-4.645-11.176-4.344m4.37 8.214c0-1.305-.218-2.442-.52-3.372-.12-.41-.264-.773-.42-1.132 2.052.404 3.743 1.38 5.036 2.916 1.566 1.84 2.264 4.086 2.577 5.64.218 1.072.3 2.06.3 2.867 0 .34-.016.647-.046.923-.868.122-2.455.178-4.256-.087-1.906-.282-3.418-.853-4.348-1.616 1.258-2.273 1.68-4.35 1.68-6.14" id="Shape" fill="#141006"/><path d="M289.76 301.505c.36 6.142.948 10.183 3.073 17.08 2.715 3.52 10.882 8.387 12.488 8.387 3.246 0 9.934-1.97 9.934-1.97s1.293.178 3.778-.35c7.335-1.583 11.423-6.357 11.423-6.357 3.43 1.46 8.097-3.418 8.097-3.418 2.54-2.54 5.5-13.002 6.216-16.264.705-3.237-2.727-5.968-2.727-5.968 1.665-14.584-10-20.415-13.962-21.864 1.43 2.893 1.43 12.29-.348 13.733-2.54-7.226-8.28-10.838-11.955-12.28 1.133 3.796.776 9.736 0 12.28-4.25-13.87-11.527-22.2-13.18-23.846-.646-.668-4.193-2.782-5.97-3.26-13.134-3.563-23.068-2.656-39.033-.187-4.73-2.523-19.515-1.62-26.052-.167-5.348 10.305-3.258 20.943 5.77 32.892 9.164 12.103 24.952 12.16 31.755 5.962 8.34 1.5 12.89-1.455 12.89-1.455.656 1.156 5.565 5.82 7.805 7.053" id="Shape" fill="#141006"/><path d="M319.216 287.417c.59-1.46 1.478-4.882 1.12-7.422 2.368 2.004 3.962 4.348 5.082 11.21 0-.002-2.714-2.338-6.202-3.788" id="Shape" fill="#A7A9AC"/><path d="M331.16 287.776c1.65.184 5.496 1.68 6.502 2.886 0 0 .763-8.668-5.257-12.824.764 3.052-.184 8.31-1.246 9.938" id="Shape" fill="#A7A9AC"/><path d="M170.993 264.975c6.117 11.816 2.165 29.98 31.105 39.174 0 0 10.655-14.72 11.078-34.603 4.36 3.55 13.45 7.427 20.007 7.83 6.55.394 19.856-2.555 21.807-12.58l-4.083-3.392s3.43-5.425 2.957-11.4c0 0-5.146 4.537-7.392 4.342 0 0 1.364-6.633 1.006-10.25 0 0-6.566 4.8-8.872 4.72 0 0 2.9-5.828 2.958-10.043 0 0-3.847 2.937-6.423 3.365l-1.322-5.917 5.313-5.61v4.127s7.698-2.58 9.35-5.813c0 0 .654 5.247.238 7.596 0 0 4.2-1.605 8.922-5.8 0 0 .473 3.6.774 7.365 0 0 10.174-4.173 13.778-13.484 0 0 3.188-.9 5.74-2.95 0 0-2.123-16.166-4.793-22.45 0 0-23.53-6.31-26.668-7.482-.825-3.954.417-2.37-.825-3.954-1.363-1.575-14.468-5.905-17.53-7.07-3.048-1.177-6.508 1.165-8.27 2.748-4.828-1.58-16.632-3.925-19.242-2.354-2.617 1.553-6.1 3.924-6.1 3.924-5.23.785-38.348 11.036-38.348 39.803 0 6.273-.098 14.153 5.1 22.816 4.81 8.078 7.084 12.24 9.736 17.34" id="Shape" fill="#141006"/><path d="M223.34 180.665c-1.547.686-2.864 1.703-3.592 2.337-2.26-.72-6.23-1.69-10.293-2.31-3.27-.495-7.49-.882-9.056.06-2.392 1.425-5.54 3.544-6.047 3.883-2.264.376-11.88 2.92-21.213 9.472-5.11 3.573-9.172 7.7-12.065 12.253-3.53 5.552-5.314 11.762-5.314 18.458v.658c0 6.22.08 13.91 5.157 22.365 4.806 8.076 7.04 12.162 9.715 17.31 1.513 2.92 2.402 6.237 3.35 9.747 1.443 5.385 2.94 10.95 6.855 16.174 4.458 5.957 11.372 10.355 21.138 13.455l.27.093.17-.232c.023-.045 2.72-3.792 5.423-9.92 1.59-3.596 2.87-7.303 3.81-11.02 1.11-4.386 1.745-8.79 1.89-13.114 4.504 3.366 13.132 7.04 19.618 7.445 2.962.174 8.11-.357 12.78-2.422 3.724-1.63 8.34-4.774 9.46-10.482l.06-.232s-3.605-2.946-4.078-3.314c.294-.514.947-1.668 1.536-3.232.653-1.708 1.363-4.213 1.363-6.927 0-.392 0-.79-.064-1.19l-.058-.783-.59.52c-1.24 1.13-4.73 3.89-6.623 4.207.294-1.395 1.004-5.42 1.004-8.49 0-.49 0-.947-.057-1.368l-.064-.688-.59.41c-1.594 1.162-5.856 4.012-7.982 4.555.77-1.663 2.657-6.096 2.657-9.56v-.808l-.59.496c-.057.03-3.43 2.615-5.855 3.203-.174-.64-1.143-4.968-1.223-5.332.237-.26 3.534-3.69 4.54-4.74v3.688l.53-.174c.238-.098 6.445-2.204 8.873-5.073.12 1.083.237 2.838.237 4.374 0 .773 0 1.49-.115 2.037l-.12.69.653-.25c.174-.075 4.02-1.564 8.513-5.385.12 1.248.416 3.9.653 6.61l.057.542.475-.21c.113-.045 2.66-1.084 5.615-3.295 2.784-2.032 6.388-5.432 8.34-10.227.773-.226 3.488-1.15 5.682-2.966l.174-.145v-.218c-.117-.658-2.195-16.288-4.852-22.55l-.058-.186-.174-.045c-.242-.058-22.717-6.073-26.436-7.388-.242-1.016-.3-1.622-.3-1.99 0-.255.058-.405.058-.51 0-.097.063-.172.063-.24 0-.3-.178-.503-.71-1.16-1.005-1.218-7.39-3.528-14.34-5.997-1.478-.526-2.65-.94-3.338-1.208-1.445-.552-3.108-.437-4.922.343zm-3.233 3.075c1.05-.935 4.713-3.895 7.87-2.678.7.265 1.866.688 3.363 1.212 2.43.855 5.786 2.05 8.564 3.14 3.97 1.564 5.147 2.285 5.384 2.614.294.346.53.595.53.675v.08c-.057.15-.057.336-.057.646 0 .455.06 1.172.353 2.384v.207l.238.076c2.958 1.12 24.132 6.788 26.5 7.434 2.426 5.88 4.436 20.01 4.667 21.95-2.425 1.883-5.382 2.732-5.382 2.743l-.232.045-.057.19c-1.838 4.71-5.442 8.064-8.11 10.045-2.184 1.586-4.08 2.574-4.965 2.99-.294-3.51-.767-6.793-.767-6.828l-.07-.738-.583.496c-3.546 3.168-6.86 4.854-8.16 5.466 0-.457.058-.967.058-1.498 0-2.44-.353-5.345-.41-5.505l-.122-1.276-.59 1.15c-1.363 2.568-6.86 4.78-8.576 5.42v-4.553l-6.167 6.47 1.455 6.494.365-.062c2.038-.324 4.7-2.06 5.884-2.932-.294 3.977-2.835 8.993-2.835 9.038l-.294.56.647.023c1.005.035 2.898-.766 5.498-2.39 1.242-.763 2.368-1.534 3.078-1.997v.59c0 3.618-1.068 8.785-1.068 8.842l-.116.432.416.04c1.063.092 2.652-.63 4.79-2.164.946-.64 1.772-1.304 2.296-1.743v.347c0 5.317-2.887 9.98-2.95 10.026l-.174.305.237.214s3.605 2.953 3.963 3.235c-1.126 5.23-5.44 8.15-8.93 9.68-4.557 2.01-9.523 2.523-12.44 2.354-6.642-.41-15.587-4.336-19.78-7.74l-.63-.515-.016.807c-.094 4.497-.734 9.11-1.9 13.69-.92 3.678-2.184 7.338-3.754 10.898-2.288 5.2-4.562 8.65-5.187 9.558-9.453-3.052-16.148-7.33-20.467-13.09-3.826-5.103-5.298-10.593-6.723-15.908-.952-3.543-1.86-6.903-3.41-9.9-2.684-5.162-4.924-9.264-9.73-17.35-4.972-8.28-5.06-15.84-5.06-21.963v-.658c0-6.54 1.75-12.613 5.2-18.038 2.835-4.462 6.825-8.514 11.844-12.034 4.806-3.36 9.64-5.582 12.856-6.85 4.055-1.61 7.01-2.323 8.12-2.49l.092-.016.07-.052c.036-.023 3.506-2.373 6.082-3.914 1.045-.628 4.152-.61 8.525.052 4.147.63 8.195 1.628 10.384 2.338l.218.07.17-.146z" id="Shape" fill="#141006"/><path d="M215.682 220.144c1.526.79 6.776 1.98 6.776 1.98s-.675 3.325-5.897 5.708c0 0 .44-5.5-.878-7.688" id="Shape" fill="#FFF"/><path d="M225.39 223.093c1.848.19 5.88-.802 5.88-.802s-1.075 5.605-4.69 7.402c0-.002-.328-5.237-1.19-6.6" id="Shape" fill="#FFF"/><path d="M233.818 221.852l6.502-1.28s-1.062 6.036-5.18 8.016c.213-1.58-.23-5.408-1.322-6.736" id="Shape" fill="#FFF"/><path d="M243.163 219.578c1.472.49 5.313 1.877 5.313 1.877s-1.716 5.316-5.44 6.886c.594-1.478.594-7.388.127-8.762" id="Shape" fill="#FFF"/><path d="M251.796 222.59s3.308 1.727 5.736 2.016c0 0-2.664 4.132-5.736 5.512.474-1.38.352-6.003 0-7.528" id="Shape" fill="#FFF"/><path d="M260.367 225.05c1.36.335 5.322.335 6.8.138-1.894 1.974-3.604 5.322-6.207 7.105.002 0 .353-5.218-.593-7.243" id="Shape" fill="#FFF"/><path d="M206.083 239.173c1.606-.902 5.135-3.348 6.203-4.53.05 2.434.376 4.138-.283 5.91-1.627-.722-3.148-1.016-5.92-1.38" id="Shape" fill="#FFF"/><path d="M215.1 243.912c1.506-.618 4.377-2.192 5.486-3.353.226 2.734-1.11 6.693-1.975 7.67-.866-1.57-3.07-3.73-3.51-4.318" id="Shape" fill="#FFF"/><path d="M221.233 251.976c1.063-.3 4.21-2.054 5.515-3.682.445 1.985.607 5.24-1.358 7.82-1.113-.797-3.492-2.943-4.157-4.138" id="Shape" fill="#FFF"/><path d="M228.885 259.456c1.01-.63 4.806-3.34 5.678-5.108.792 2.777.364 5.65-.21 7.47-1.12 0-4.158-.775-5.468-2.362" id="Shape" fill="#FFF"/><path d="M239.08 262.417c1.894-1.957 3.608-4.525 4.55-6.275.71 1.172 1 4.513.948 6.275-2.306.574-3.604.38-5.5 0" id="Shape" fill="#FFF"/><path d="M208.1 228.738c-1.455 1.63-3.95 5.54-4.59 8.882 0 0 6.196-3.88 9.753-7.133 0 0 2.57 5.286 2.34 9.945 0 0 3.897-1.83 6.75-3.815.163 1.19 1.694 6.256-.248 11.42 1.838-.744 5.81-3.213 6.625-3.664.357 1.085 1.784 5.52.698 10.585 1.086-.548 5.135-3.238 6.22-4.156.89 1.715 1.896 5 2.185 7.96 0 0 3.2-2.615 4.088-4.584-.236-.917-.83-1.27-3.077-2.874-1.358-.98-3.31-.923-6.544-4.39-2.825-2.962-2.987-8.504-7.38-12.353-3.468-3.035-9.682-5.626-16.82-5.822" id="Shape" fill="#A7A9AC"/><path d="M207.973 228.612c-1.547 1.726-3.996 5.65-4.643 8.98l-.075.397.347-.22c.06-.045 6.054-3.797 9.61-6.99.445.987 2.225 5.172 2.225 9.056 0 .202-.005.392-.017.59l-.012.305.27-.126c.03-.017 3.725-1.772 6.55-3.682.024.127.052.277.088.456.213 1.027.583 2.852.583 5.01 0 1.713-.232 3.648-.96 5.587l-.144.382.38-.15c1.38-.565 3.957-2.09 5.495-2.996.387-.236.734-.43.96-.57.46 1.414 1.027 3.717 1.027 6.43 0 1.218-.122 2.517-.4 3.844l-.08.37.33-.163c1-.506 4.758-2.982 6.087-4.028.82 1.715 1.772 4.814 2.06 7.688l.065.322.243-.213c.115-.1 3.25-2.656 4.13-4.637l.062-.063-.063-.06c-.168-.875-.762-1.298-2.537-2.515l-.59-.45c-.472-.307-.947-.515-1.478-.746-1.248-.555-2.842-1.23-5.053-3.63-1.2-1.248-1.923-3.002-2.685-4.855-1.017-2.48-2.185-5.288-4.714-7.504-3.073-2.694-9.125-5.656-16.933-5.875l-.075-.005-.055.062zm.214.31c7.657.23 13.6 3.13 16.61 5.783 2.47 2.16 3.615 4.924 4.62 7.37.78 1.882 1.52 3.672 2.75 4.965 2.264 2.44 3.956 3.174 5.198 3.7.526.23.947.432 1.363.716l.642.456c1.664 1.16 2.194 1.535 2.372 2.25-.767 1.582-3.014 3.59-3.782 4.237-.358-2.926-1.364-6.04-2.196-7.672l-.115-.21-.116.157c-1.016.836-4.47 3.152-5.85 3.942.237-1.23.324-2.424.324-3.543 0-2.897-.625-5.334-1.104-6.76l-.076-.202-.178.11c-.214.104-.635.358-1.167.675-1.408.832-3.66 2.164-5.082 2.812.647-1.86.86-3.684.86-5.323 0-2.192-.385-4.03-.594-5.084-.063-.306-.115-.548-.133-.71l-.04-.294-.238.168c-2.39 1.66-5.555 3.226-6.467 3.677 0-.092.005-.21.005-.306 0-4.502-2.34-9.375-2.363-9.432l-.11-.208-.174.155c-3.016 2.753-7.993 6.003-9.368 6.874.728-3.12 2.954-6.663 4.41-8.308z" id="Shape" fill="#141006"/><path d="M443.34 260.3c-8.396 10.3-28.207 29.258-54.75 43.587-9.83 5.31-33.602 18.528-64.536 24.62l-3.834-4.16c6.56-1.8 10.222-6.048 10.222-6.048 3.442 1.458 8.108-3.424 8.108-3.424 2.31-2.286 4.91-11.065 5.915-15.14v.013c5.083-.353 9.574-.884 12.775-1.55 29.387-6.072 59.2-19.058 83.443-37.04" id="Shape" fill="#D31245"/><path d="M337.847 322.867l8.93-14.25 8.81 7.267 6.978-11.724 7.68 5.27 6.1-9.84 6.444 4.19 5.326-8.44 4.838 2.494 4.206-6.69 4.493 1.166 3.072-4.746 3.847 1.05c-7.218 5.41-21.23 14.453-36.906 21.19-10.878 4.706-21.46 9.734-33.82 13.063" id="Shape" fill="#141006"/><path d="M338.494 362.99c-1.362 2.54-4.68 5.777-4.68 5.777-9.46 7.533-16.667 6.163-32.755.957 10.348-4.542 23.123-13.966 27.143-21.72 4.075 1.575 5.382 3.168 6.503 2.68v-.14c2.067-1.638 5.024-.352 5.266 6.194 0 1.4-.173 3.687-1.478 6.252" id="Shape" fill="#D31245"/><path d="M279.11 364.247l7.693 4.767c7.808-.704 19.81-6.62 26.855-12.386 7.324-5.968 12.002-12.796 14.543-19.793l-6.146-3.775c-.945 3.405-4.678 10.025-7.39 12.26-11.01-6.384-8.757-16.567-20.412-21.628l-8.156 6.377c12.117 7.07 7.74 13.9 19.51 22.886-4.018 4.15-17.555 10.708-26.495 11.29" id="Shape" fill="#D31245"/><path d="M172.794 325.915l1 .168c6.975 1.194 13.444 3.936 21.61 9.178 7.792 5.212 14.156 12.49 19.446 22.274l.226.433 7.744-3.896-.23-.455c-2.75-5.43-5.892-10.1-9.6-14.28-3.47-3.924-7.438-7.387-12.128-10.608-4.48-3.054-8.38-5.305-11.93-6.88-2.947-1.316-5.712-2.2-8.693-2.77l-.267-.047-7.18 6.885z" id="Shape" fill="#D31245"/><path d="M196.312 349.892c1.578 1.477 9.073 7.295 8.998 13.465-.087 6.81-2.645 8.34-.884 11.705-2.414 1.214-5.325 1.6-7.67 1.68-2.72.07-13.33-.87-16.806-2.937-1.363-5.564-6.7-20.075-9.992-24.53-3.303-4.508-2.165-16.282 1.872-19.007 0 0 4.857 1.38 8.778 2.603 9.644 3.06 19.978 10.327 27.457 22.24l-.722.524c-.935-1.107-2.685-2.688-4.267-3.92-2.102-1.524-6.48-2.5-6.48-2.5-.105.193-.187.355-.284.678" id="Shape" fill="#D31245"/><path d="M135.47 323.767c3.244 2.114 13.663 9.87 26.467 11.828 0 0 .115-2.725 2.183-6.61 1.947-3.595 5.123-8.536 12.827-15.168-7.167-6.696-12.954-18.655-13.092-31.63-4.79 3.355-8.318 12.923-7.352 18.078 0 0 6.86 5.726 6.336 14.015 0 0-5.91-5.992-9.23-7.585-5.33-1.28-17.605-4.143-27.51-3.705-3.378-2.47-16.875-6.703-16.875-6.703s-5.3-1.42-8.103-1.898c-3.46.692-9.853 3.232-13.66 3.918-2.247.422-5.117 5.664-5.26 7.268 0 0 1.16-1.02 2.684-.895 2.612.526 4.465 3.33 5.78 6.252 1.56-.675 2.78-2.228 3.617-4.916 4.464-.618 8.16-3.09 10.673-2.392 0 0 8.78 5.67 11.557 8.49 1.133 3.443 3.887 7.597 4.5 9.017 0 0-1.61 4.538-.353 6.794 0 0 3.235.91 7.912-2.216 3.06-3.903.468-11.532-.144-13.935 0 .002 6.197 4.86 7.04 11.994" id="Shape" fill="#D31245"/><path d="M80.92 298.51s-3.893 5.225-3.766 6.91c.155 1.68.143 2.706.143 2.706l-1.062 2.073s-3.096-4.186-4.597-3.81c-1.352.357-1.864.592-1.864.592s-.642-.375 2.096-1.962c3.616-1.99 4.528-3.745 5.243-4.6.567-.685 2.173-2.176 3.807-1.91" id="Shape" fill="#D31245"/><path d="M76.726 300.093c-.127.145-.254.322-.398.51-.71.94-1.78 2.36-4.707 3.975l-.004.007c-2.137 1.234-2.414 1.83-2.414 2.257v.005c0 .284.162.49.318.573l.218.144.244-.116c.005 0 .515-.225 1.785-.564.11-.025.738-.064 2.362 1.628.923.952 1.685 1.984 1.692 1.995l.49.663 1.497-2.92v-.177c0-.247-.013-1.217-.14-2.684v-.06c0-1.106 2.125-4.442 3.66-6.508l.51-.675-.833-.138c-1.797-.295-3.536 1.17-4.28 2.083zm.423 1.12c.132-.173.253-.33.363-.467l.005-.007c.347-.427 1.3-1.34 2.356-1.65-.37.524-.842 1.223-1.317 1.968-1.744 2.77-1.923 3.827-1.923 4.255 0 .063.005.105.005.15v.005c.12 1.322.138 2.23.138 2.54-.06.115-.348.68-.635 1.245-.323-.402-.774-.93-1.277-1.454-1.45-1.505-2.513-2.12-3.35-1.91l-.012.004-.138.03c.214-.127.46-.282.757-.456l-.005.007c3.12-1.717 4.314-3.305 5.03-4.262zm-.43-1.114c0-.007.006-.007.006-.007l-.005.006z" id="Shape" fill="#D31245"/><path d="M252.148 259.577c-.595 1.304-.947 1.738-.947 1.738l4.143 3.338c-1.952 9.172-12.185 12.664-19.816 13.103l-.595.04c.595 1.443 1.133 2.61 1.9 3.936 4.255 7.133 10.35 11.862 15.258 12.443 4.2.57 12.292 1.154 14.788-5.108 5.08 2.164 12.358 1.478 16.968-1.292 2.424 5.13 9.46 7.998 11.355 9.955 1.063 15.88 5.21 23.615 6.62 23.96 3.904.964 8.523-1.015 8.523-1.015l-.945-7.117 8.097 6.494c3.258-.71 7.16-3.36 7.16-3.36-1.005-1.224-3.96-7.682-3.96-7.682 4.723 2.145 9.99 4.172 9.99 4.172s2.84-1.374 4.666-3.186c1.84-1.8 3.732-11.555 3.732-11.555-1.235-2.832-8.097-4.766-8.097-4.766l-.717 2.17c2.725 3.337 1.247 8.844 1.247 8.844-5.74-9.87-16.68-13.796-16.68-13.796-.944.78-3.903 2.944-3.903 2.944-.174-5.76-.243-6.36-.243-6.36-2.484-8.814-10.94-22.77-14.243-24.005-9.228-3.433-24.257-3.38-29.166-.903 0 0 4.033 4.844 2.554 8.827 0 0-3.084-4.836-8.05-7.746-4.606-2.722-7.333-3.773-9.46-4.36l-.176.29z" id="Shape" fill="#D31245"/><path d="M194.272 195.307s5.678-6.96 8.08-9.523c4.68-.202 14.214.855 17.257 2.413 3.077 1.593 4.81 5.864 9.823 7.244 0 0 .266-.328.248-.34-.756-.658-3.568-3.63-3.72-4.605-.218-1.374-1.142-3.637-2.02-4.243l2.72-1.213s9.102 4.07 11.472 4.687c2.247.59 1.714 2.55 1.714 2.55s-4.314-.617-5.815-1.984c0 0-.356 3.733 8.364 5.54 7.86 1.645 22.994 4.664 26.31 6.66.717 1.56 1.895 5.132 1.895 5.132s-2.484 4.15-2.484 8.064l.358.137c.53-.866 1.594-2.736 2.83-3.02 0 0 .958 3.326 1.016 6.15-2.137 1.19-5.037 1.442-7.22 1.69-6.978.793-18.743-5.668-21.174-5.494-2.42.214-15.01 3.526-17.85 3.336-2.848-.215-7.3-2.73-9.912-2.73-1.75 0-16.83 9.418-19.897 27.536 0 0 10.725.317 13.728 1.83 2.224 1.12 10.852 14.476 15.634 17.62 4.816 3.157 11.907 4.814 23.736 3.63 0 0-5.614 6.44-13.358 6.44-8.085 0-15.697-4.612-21.9-12.994-1.304-1.79-7.184-5.95-8.813-6.898-4.032-2.25-14.877-2.014-20.653-8.41-4.968-5.54-5.008-10.925-3.997-14.21 0 0-3.915 2.58-3.672 8.134.178 4.52 1.9 7.78 4.066 10.337 5.064 5.98 13.715 7.66 19.06 9.88 4.752 1.97 5.347 4.558 5.347 4.558s-9.41 3.292-23.818-4.88c0 0 5.29 15.347 25.133 12.386l.487-.076s-4.17 9.448-23.317 3.97c0 0 4.58 6.916 11.776 7.48 3.625.272 7.508.334 11.637-2.51 0 .196-.184 1.996-2.12 4.737-1.658 2.403-6.007 5.27-12.336 3.39 5.406 7.013 13.22 5.408 13.22 5.408-.976 2.17-3.315 6.232-4.956 7.387-4.36-.202-10.106-3.226-16.083-11.248-6.478-8.698-5.827-20.784-9.54-27.673-4.33-8.03-7.87-13.038-10.186-18.1-3.882-8.68-3.43-16.906-3.43-19.463 0-2.555 2.205-14.763 9.43-22.077 6.765-6.828 10.668-8.912 22.265-12.305-.006-.005-.596 3.764.662 5.67" id="Shape" fill="#D31245"/><path d="M254.452 209.933l2.6-2.263s3.962 2.76 4.146 8.18c0 0-3.372-4.728-6.746-5.917" id="Shape" fill="#141006"/><path d="M191.183 201.564c-5.69 1.16-20.336 6.684-22.3 18.897-1.49 9.345 1.526 11.828 3.26 15.574 0 0-3.835-21.207 20.582-23.843l-7-2.748 5.458-7.878z" id="Shape" fill="#141006"/><path d="M205.495 218.297s-10.234 8.957-13.37 22.457c0 0-3.333-1.684-4.1-4.328 0 0 5.23-11.233 17.47-18.13" id="Shape" fill="#141006"/><path d="M231.923 200.368c-1.086.98-4.754 1.525-6.533.802-2.772-1.102-4.58-8.052-10.702-8.86-7.438-1-10.944 1.56-11.823 2.17 0 0 4.385-.305 5.915.386 0 0-7.103 2.46-9.6 8.283 0 0 2.38-.81 3.826-1.098 1.408.67 3.315 3 7.24 3.3 0 0-2.68-1.712-2.68-4.675 1.336-1.478 4.547-3.29 7.545-2.862 5.655.785 6.337 6.015 9.83 5.698-.317.698-2.414 2.084-3.83 2.776 0 0 9.167-.605 10.813-5.922" id="Shape" fill="#141006"/><path d="M213.477 197.23c-.536 1.096-2.657 5.5.936 9.327-.433-2.482.918-7.354 3.874-8.134 0 0-1.963-1.304-4.81-1.194" id="Shape" fill="#141006"/><path d="M73.926 313.622c-.376-1.502-2.288-3.545-2.594-3.707 0 0-2.767 1.334-3.84 2.92-.866 1.3-4.176 7.175-.698 13.87.664-2.053 2.11-7.722 6.244-9.447-.615.26 1.766.184.888-3.636" id="Shape" fill="#A7A9AC"/><path d="M87.077 312.588c-.468-2.228-2.725-3.637-2.725-3.637-1.145-.13-3.24 1.646-3.985 3.02-.98 1.844-3.598 7.47-.358 14.402.704-2.367 2.64-8.952 7.235-10.666.443-.157-.03-2.5-.168-3.118" id="Shape" fill="#A7A9AC"/><path d="M137.755 414.052c2.344-3.994 8.444-9.252 13.017-11-1.062-4.67-2.297-9.46-5.388-9.39-1.126.022-2.177 1.592-3.813 2.677-2.713 3.987-6.71 10.814-3.815 17.712" id="Shape" fill="#A7A9AC"/><path d="M153.69 421.74c1.74-4.01 8.352-10.316 12.572-12.278-1.824-6.337-4.614-8.93-6.09-8.806-.96.063-3.97 2.486-4.593 3.595-1.89 3.365-5.448 11.07-1.89 17.49" id="Shape" fill="#A7A9AC"/><path d="M196.012 398.294c3.408-5.684.675-10.613.675-10.613 6.867 1.178 8.282 8.953 7.946 12.388.002.188-6.456.304-8.62-1.774" id="Shape" fill="#A7A9AC"/><path d="M326.666 379.115c-2.84.86-6.157 2.748-7.394 3.792-.83-.115-5.682.44-9.47 2.204 1.19-2.867 3.788-5.137 4.91-5.886 2.552.19 5.914.514 11.954-1.108v1" id="Shape" fill="#A7A9AC"/><path d="M314.594 408.46c1.422-3.753 6.56-8.295 8.755-9.277.358-5.684-4.02-6.32-5.73-6.835-2.782 2.78-6.456 9.38-3.026 16.11" id="Shape" fill="#A7A9AC"/><path d="M329.506 412.586c1.48-3.29 7.15-9.045 10.755-10.817-.46-3.67-3.776-7.007-5.786-6.673-.89.075-1.837.51-2.958 1.38-1.894 3.404-5.208 9.823-2.01 16.11" id="Shape" fill="#A7A9AC"/><path d="M130.022 330.02s.017 1.327-.618 3.007c-.663 1.69-3.235 7.9-9.536 10.453 1.145-1.89 3.616-7.712 2.502-11.14 0 0 5.804-.7 7.652-2.32" id="Shape" fill="#A7A9AC"/><path d="M144.946 299.22c2.8.452 5.007.936 5.873 1.26-.29-10.26 4.602-19.298 10.694-24.566 2.35-2.587 5.25-6.153 9.587-8.6l.4-.237c-.314-.648-.56-1.26-.902-1.846-2.616-5.12-4.765-9.035-9.57-17.122-4.597-7.693-5.182-15.138-5.238-21.136l-.398.507c-8.83 13.53-14.515 29.984-14.376 48.135.045 8.012 1.352 16.114 3.442 23.508l.488.098z" id="Shape" fill="#141006"/><path d="M312.18 275.17c-3.96-8.27-8.338-13.266-9.586-14.513-.647-.646-4.194-2.77-5.97-3.25-12.187-3.302-21.59-2.753-35.604-.698l-.474-.024c-1.773-.912-3.962-1.656-6.33-2.206l-.3-.063c.3-1.316.364-3.752.237-5.247 0 0-5.017 4.83-7.156 4.277 0 0 1.19-6.55.896-10.188 0 0-6.21 4.686-8.635 4.957 0 0 2.894-5.825 2.72-10.275 0 0-3.905 3.02-6.566 3.706l-1.115-5.31 4.488-4.83v3.78s7.572-2.545 9.345-5.397c0 0 .53 4.907.058 7.284 0 0 4.435-1.54 9.16-5.754 0 0 .3 3.567.593 7.33 0 0 11.18-4.64 14.61-13.91 0 0 3.43-1.09 5.857-2.95 0 0-1.48-9.84-3.188-17.344h.113c22.063 15.366 36.964 41.044 36.964 70.546l-.116.077z" id="Shape" fill="#141006"/><path d="M160.268 203.596c5.568-5.408 14.474-11.11 14.474-11.11l-4.916-.62L146.29 167.5l-11.152.035c-6.162 5.085-15.99 14.73-23.465 25.523l7.375.813 23.56 23.89.836 6.32c1.61-2.8 8.56-12.33 11.706-15.394.047-.047-8.212-8.318-8.212-8.318 1.183-2.182 5.226-5.12 5.226-5.12s8.104 8.37 8.104 8.348m-20.132-10.142l-8.635-9.027 4.073-4.046 2.355.23 7.41 7.74c0 .002-3.037 2.495-5.202 5.104" id="Shape" fill="#A7A9AC"/><path d="M144.102 223.093s-5.22 7.866-8.484 16.698l-19.67-6.855 2.39 8.484s14.912 5.062 14.9 5.147c-1.812 5.53-3.458 14.614-3.81 19.12l-5.152-6.324-41.507-14.447-8.16 2.377c3.73-19.81 10.724-34.85 10.724-34.85l7.716-2.91 18.013 6.16 1.83 6.764 5.575-4.44 20.074 6.57 5.56-1.494zm-39.23 6.03l-13.41-4.444s-.613 1.684-1.214 3.255c-.416 1.04-1.183 3.624-1.183 3.624l17.764 6.065-1.96-8.5z" id="Shape" fill="#A7A9AC"/><path d="M187.805 173.57l1.836 5.41s6.7 3.3 6.602 3.336c-8.282 2.794-16.287 6.684-22.39 10.787l1.906-8.362-10.234-28.086-7.455-5.084c9.696-5.733 25.514-11.382 32.346-13.04l8 1.807 7.572 20.023-5.637 7.786-12.545 5.425zm1.513-10.228l1.982-2.592-3.66-10.044-2.726-.606-5.47 1.957 4.767 13.402 5.108-2.118z" id="Shape" fill="#A7A9AC"/><path d="M235.532 143.378l12.36 6.77.056-14.73c-10.465-1.76-26.585-2.238-39.977-.252-.057 0-.09 14.7-.09 14.7l12.457-6.604-.21 29.045-4.67 5.99s6.023-.858 11.943-.835c5.915.047 12.44.877 12.44.877l-4.545-5.94.237-29.022z" id="Shape" fill="#A7A9AC"/><path d="M281.78 187.314l-10.708.855s-11.114-5.133-17.975-7.158L246 173.035l12.41-31.04 10.826-1.34c3.672 1.063 15.084 5.31 18.458 7.256l6.618 8.417-12.53 30.987zm-12.187-9.23l9.404-23.81-7.866-3.122-9.403 23.797 7.866 3.133z" id="Shape" fill="#A7A9AC"/><path d="M311.937 227.41s-5.082-9.218-11.884-16.67l10.996-10-9.52-2.28s-6.93 6.54-6.93 6.487c-4.54-4.41-10.753-9.09-15.013-11.896l7.75-1.413 23.598-21.604.115-8.035c13.838 10.2 26.383 25.91 26.383 25.91l-.717 8.017-8.988 8.484-6.385-1.323.113 7.532-8.93 8.91-.59 7.88zm5.44-33.066l7.162-6.943-5.44-5.643-10.767 10.02 9.045 2.567z" id="Shape" fill="#A7A9AC"/><path d="M323.35 261.534l26.024-8.814 5.382-25.58 7.093-2.245 3.083 8.876-10.002 3.383 4.32 15.058 4.493-4.743 14.08-4.6c-3.014-14.037-8.167-28-13.78-38.972l-3.904 6.285-16.323 5.31-5.913 27.226-8.167 2.852-3.016-8.813 9.172-3.174-5.567-16.28-3.778 4.183-15.084 5.125c6.09 10.256 10.767 24.703 11.886 34.926" id="Shape" fill="#A7A9AC"/><path d="M217.836 198.44c-2.58 1.19-3.823 5.78-3.425 8.117-3.13-3.308-1.946-6.736-1.212-8.728l-.174.022c-2.252.357-4.55 1.212-5.46 2.83 0 2.96 2.68 4.674 2.68 4.674v-.023c1.25.72 2.693 1.28 4.466 1.546 2.24.316 4.394 0 6.44-.682h.07c1.42-.693 3.568-1.98 3.91-2.662-2.824.26-3.58-3.07-7.296-4.86v-.235h.002z" fill="#A7A9AC"/></g></svg>