<svg width="512" height="512" viewBox="0 0 512 512" xmlns="http://www.w3.org/2000/svg"><title>utah-jazz</title><g fill="none" fill-rule="evenodd"><path d="M106.612 256.313c0 13.058 1.643 26.038 4.572 38.7-5.26-1.206-13.438-3.093-13.438-3.093l-79.85 18.057 7.477 7.786c5.482 5.7 8.89 14.15 9.23 16.06-.036-.437-2.07 11.48-2.07 11.48-3.005 13.076-7.133 30.978 6.913 45.035 22.775 21.697 59.532 25.016 84.134 17.146 3.16-1 18.437-7.77 44.804-19.81 31.203 26.14 70.486 40.773 111.424 40.773 86.752 0 159.384-63.56 171.188-148.4 4.877-1.29 19.374-5.1 19.374-5.1l1.28-2.33 23.225-43.057s-26.74-4.452-30.478-5.068l25.718-40.434-29.848-10.764s-21.046 2.825-27.048 3.622c-29.99-57.214-88.23-92.72-153.412-92.72-95.496 0-173.196 77.212-173.196 172.117" fill="#B6B7B6"/><path d="M485.457 234.172l-24.33-4.046-5.67 2.883-1.774-3.014 27.212-42.79-21.29-7.67-29.585 3.955c-27.16-55.188-84.21-93.203-150.212-93.203-92.287 0-167.104 74.337-167.104 166.027 0 13.874 1.727 27.354 4.947 40.238l-2.15 5.71-17.768-4.09L29.77 313.54c7.02 7.308 11.007 18.09 10.887 19.847 0 13.43-13.15 36.385 3.104 52.644 20.315 19.355 54.454 23.17 77.962 15.648 4.368-1.392 35.754-15.72 47.355-21.02 29.48 25.943 68.247 41.7 110.73 41.7 85.9 0 156.64-64.405 166.034-147.254 7.282-1.947 14.134-3.74 20.447-5.377l19.17-35.555z" fill="#002344"/><path d="M305.89 139.26c-4.108-.952-8.295-1.69-12.547-2.207l6.572 9.676 5.974-7.47zm32.115 16.197l11.483 14.477 5.56-6.494c-11.928-9.802-25.78-17.348-40.893-21.992l17.076 22.055 6.775-8.046zm41.345 38.238l.883-1.805c-5.546-8.7-12.177-16.647-19.693-23.642l8.395 11.668s4.556 5.356 10.415 13.78zM233.678 144.93l8.27 10.527 12.128-16.753c-7.045 1.474-13.863 3.58-20.398 6.227zm-50.286 38.32l5.18-.71 17.087-19.514 4.563 5.527 15.245-19.944c-16.543 8.214-30.92 20.12-42.076 34.64z" fill="#ED992D"/><path d="M370.828 266.38l-20.638 6.234 6.024-14.492 8.736-6.458-3.102-6.103 21.184-42.223-74.716 11.46-16.38 29.823 19.796-6.784 19.99-3.258-8.75 14.67-7.71 5.028.817 8.404-26.597 51.12c-1.76-1.84-4.456-4.93-4.456-6.897l2.54-36.18 5.998-8.336-5.577-7.337-.12-20.63 8.96-17.863-72.44 11.348 2.36 13.088-12.704 24.91-9.058 9.042 1.453 7.86-32.228 74.622 48.644-19.38 7.54-20.063 18.454-6.105-2.892 19.315 43.445-15.358 82.823-26 18.234-31.77-19.632 8.312m-120.163 22.348l-10.276 3.365 11.715-25.355-1.44 21.99m-66.73 2.444l8.266-9.405-1.973-8.64 21.287-61.603 16.59-18.078-69.585 8.25 11.6 13.656-26.16 63.395-9.284 9.908 3.725 7.554-23.667 69.106c-4.51 1.573-11.958 3.44-13.78 1.993-2.07-1.635-3.444-2.705-.147-12.423 0 0 8.398-23.99 8.38-23.99.316-.734 13.75-20.427 13.75-20.427l-62.368 15.337s5.477 7.62 5.273 10.9l-6.563 22.865c-3.287 14.612 3.102 22.737 9.792 28.766 7.22 6.488 28.306 15.836 56.48 4.67 4.56-1.795 37.373-17.09 37.373-17.09s-3.11-5.06-4.232-10.556l25.246-74.19m274.74-46.228c-3.788.87-16.54 3.6-21.25 4.583l5.773-9.424 7.256-5.186-2.755-5.693 24.933-40.21-73.58 11.882-16.717 27.75 18.677-6.28 15.838-2.503-7.414 11.786-11.007 6.173 2.116 9.088-23.628 41.515 85.98-24.238 15.056-26.86s-18.816 7.483-19.28 7.617" fill="#ED992D"/><path d="M169.17 205.714l47.866-6.204-10.03 9.64-22.635 64.287 1.646 6.726-6.227 7.296-26.664 77.145s.803 7.288 2.11 8.7c-6.968 3.128-23.85 11.56-31.677 14.67-26.165 10.376-45.045 1.57-50.868-3.664-7.178-6.466-10.547-12.855-8.143-23.576 1.057-4.764 1.467-5.64 2.788-10.215 1.272-4.337 2.466-8.464 3.648-12.18 1.092-3.33-.81-7.2-1.934-9.04l42.705-10.497c-1.22 2.073-6.545 7.11-7.668 10.265l-8.4 24.053c-3.757 11.01-2.737 14.798 1.915 18.463 6.81 5.357 21.512-2.317 21.512-2.317l25.086-73.313-2.87-6.553 7.137-7.363 27.588-68.493-6.888-7.83z" fill="#FFF"/><path d="M309.757 232.29l32.338-5.034-14.307 25.334-6.765 4.255.778 5.888-22.464 43.462 69.635-21.592 8.974-15.26-7.602 3.508-29.794 8.312L351.5 255.36l6.64-4.953-2.766-4.702 17.39-35.204s-53.012 7.33-60.43 8.687l-8.964 15.418 6.387-2.316z" fill="#FFF"/><path d="M282.456 233.677l5.46-10.605-57.05 8.915 1.516 9.88-15.05 28.32-6.738 5.977 1.32 6.797-27.602 64.62 34.29-13.662 7.626-20.29 29.15-9.603-2.46 18.2 28.612-9.266s-1.958-2.346-1.74-4.567l2.262-40.173 4.62-5.634-4.09-4.93-.126-23.98zm-27.166 59.225l-24.248 7.725 27.03-57.347-2.782 49.622z" fill="#FFF"/><path d="M459.917 250.224c-8.846 2.002-33.96 7.268-33.96 7.268l12.386-19.533 5.548-4.308-2.06-4.516 20.324-32.774-59.758 9.48-8.276 13.635c.444-.14 4.347-1.872 4.787-1.983 3.482-.78 30.155-5.058 30.155-5.058l-16.252 23.687-7.424 4.595 1.127 5.485-18.025 32.31s57.395-16.304 70.87-19.072l7.482-12.108s-5.27 2.515-6.923 2.892" fill="#FFF"/><path d="M204.744 180.926l34.31 10.932-19.26 18.894 12.866-1.914c10.465-10.18 21.594-21.134 21.594-21.134l5.68 6.17 10.8-6.672 9.024-20.9s13.19 17.415 22.882 33.644l4.832-.63-11.712-18.95 3.948-28.422 9.48-11.843c.125 3.13-.08 8.34.3 10.952l-2.45 3.552c3.362 4.835 6.73 8.753 10.113 13.71l-12.498 13.464 5.05 8.91 10.31-8.91 16.834 13.804 29.79-3.806 11.65 4.046 1.063-2.128c-5.86-8.42-10.415-13.78-10.415-13.78l-12.795-17.74-6.652 7.76-11.483-14.476-6.774 8.044-22.012-28.41-9.304 11.638-25.016-36.81-32.95 45.538-10.994-14.01-20.732 27.104-4.56-5.527-17.09 19.514 4.506-.61 12.503-14.133-.836 13.13z" fill="#FFF"/><path d="M355.883 167.212l.217 8.3 4.118 5.95c-.96.718-1.575 2.703-2.95 3.037-4.144-5.195-6.213-7.894-7.732-9.87l6.347-7.418z" fill="#013D1F"/><path d="M334.163 171.208c-.863-1.088-1.74-2.198-2.593-3.292l6.366-7.55c2.936 13.376 4 20.67 6.576 34.165l-13.95-11.28 3.6-12.042z" fill="#013D1F"/><path d="M299.71 151.944l9.48-11.842c.123 3.127-.08 8.336.3 10.95l-2.45 3.553c3.358 4.835 6.728 8.753 10.11 13.71l-12.497 13.463 5.047 8.91 10.312-8.91 16.835 13.805-29.376 3.733-11.71-18.95 3.95-28.422z" fill="#013D1F"/><path d="M274.803 115.315c-2.393 13.395-3.632 31.306-6.04 43.937l4.757 6.6-16.677 12.675-14.637-18.137 32.597-45.075z" fill="#013D1F"/><path d="M254.254 187.705l5.68 6.168 10.8-6.67 9.024-20.9s13.19 17.414 22.882 33.644l-14.94 1.903-1.92 4.254-11.225-3.476-41.895 6.21c10.465-10.178 21.594-21.133 21.594-21.133" fill="#013D1F"/><path d="M230.992 146.498c-.345 3.985.055 10.212.22 14.954 1 2.274 3.362 3.57 3.866 5.7L221.625 186.1l-11.3-12.603 20.667-27z" fill="#013D1F"/><path d="M205.58 167.796l-.836 13.13-1.283-.41-10.382 1.413 12.503-14.134z" fill="#013D1F"/><path d="M208.13 351.525l18.83-7.684 6.184-14.3s11.956 8.843 12.04 8.8c41.906-15.765 91.894-31.484 91.894-31.484s.28 8.83-.553 14.484c-15.42-.048-30.79 9.2-46.688 18.75-21.54 12.943-43.8 26.308-69.673 20.07-4.275-2.567-12.033-8.635-12.033-8.635" fill="#013D1F"/><path d="M304.055 373.63c-16.46 3.695-33.977 3.744-51.498-.496-7.112-1.733-13.707-3.927-19.878-6.58 22.174.22 41.903-11.616 59.657-22.308 15.327-9.205 29.44-17.695 43.302-17.914-1.854 8.814-9.23 35.666-31.585 47.298" fill="#013D1F"/><path d="M317.99 369.57c10.87-10.124 18.944-25.205 22.508-42.747.005-.072.034-.14.05-.202 7.64 1.023 15.244 4.85 22.964 12.763-12.664 13.592-28.294 23.95-45.523 30.187" fill="#013D1F"/><path d="M366.764 335.76c-8.542-8.72-16.975-12.91-25.373-14.08.853-6.01.98-11.598.415-16.323 8.56-2.686 45.652-13.887 49.336-14.96.024 0 .043-.01.064-.012-5 17.258-13.47 32.59-24.44 45.374" fill="#013D1F"/><path d="M317.99 369.57c10.87-10.124 18.944-25.205 22.508-42.747.005-.072.034-.14.05-.202 7.64 1.023 15.244 4.85 22.964 12.763-12.664 13.592-28.294 23.95-45.523 30.187m-13.934 4.06c-16.462 3.696-33.977 3.742-51.497-.497-7.114-1.73-13.71-3.925-19.882-6.58 22.177.222 41.904-11.616 59.658-22.306 15.327-9.205 29.443-17.695 43.304-17.916-1.852 8.815-9.23 35.67-31.584 47.3m87.147-83.245c-5 17.258-13.468 32.606-24.44 45.374-8.542-8.718-16.973-12.91-25.373-14.08.854-6.01.98-11.6.417-16.323-1.567.494-3.14 1.005-4.728 1.5 0 .012.28 8.832-.556 14.483-15.418-.048-30.787 9.2-46.69 18.747-21.536 12.947-43.797 26.312-69.67 20.074-4.203-2.538-11.757-8.422-12.008-8.615-2.923 1.19-5.005 2.03-5.032 2.004 13.825 11.31 30.198 19.755 48.482 24.182 64.457 15.6 128.708-24.118 146.222-89.273-2.185.62-4.41 1.27-6.625 1.925" fill="#FFF"/><path d="M187.686 137.477c-1.426-2.26-2.868-4.372-4.322-6.33.833-.35 1.605-.71 2.312-1.08.706-.367 1.44-.785 2.2-1.252.738-.45 1.444-.91 2.117-1.388.675-.475 1.33-.99 1.975-1.544.25.614.585 1.332 1.014 2.164.43.83.89 1.69 1.392 2.593.503.894 1.012 1.792 1.53 2.694.518.9 1.004 1.72 1.452 2.46l1.418 2.312c.776 1.264 1.52 2.425 2.24 3.47.72 1.05 1.488 1.878 2.302 2.484.816.61 1.727.93 2.734.944 1.008.015 2.166-.376 3.48-1.18.83-.504 1.528-1.19 2.09-2.058.56-.865.807-1.796.735-2.8-.06-.818-.244-1.56-.555-2.225-.313-.66-.692-1.393-1.15-2.19-.228-.427-.476-.852-.724-1.268-.252-.412-.51-.827-.76-1.24l-1.522-2.49c-.89-1.45-1.844-2.956-2.872-4.51-1.03-1.554-2.177-3.182-3.437-4.88.503-.21.993-.415 1.476-.613.48-.2.95-.44 1.413-.723.44-.267.832-.546 1.192-.845.355-.294.702-.612 1.037-.942.576 1.102 1.218 2.294 1.92 3.57.702 1.28 1.39 2.52 2.06 3.725.676 1.203 1.305 2.314 1.894 3.33.59 1.015 1.072 1.82 1.434 2.42.63 1.037 1.18 1.988 1.643 2.84.46.862.826 1.692 1.093 2.49.265.805.44 1.602.51 2.395.077.793.043 1.644-.1 2.553-.317 1.804-1.077 3.43-2.267 4.87-1.193 1.445-2.7 2.718-4.52 3.832-3.73 2.282-7.03 3.15-9.89 2.606-2.865-.544-5.446-2.695-7.74-6.45-1.775-2.9-3.374-5.482-4.804-7.743" fill="#FFF"/><path d="M239.952 108.413c-1.197.34-2.385.715-3.567 1.12-.002-.745-.093-1.513-.274-2.302-.076-.344-.18-.684-.318-1.03-.128-.344-.274-.73-.43-1.168 2.022-.244 4.018-.573 5.986-.99 1.97-.415 3.94-.846 5.914-1.294 1.895-.432 3.828-.884 5.794-1.365 1.97-.476 3.97-1.05 6.006-1.73.02.33.05.697.084 1.103.036.408.11.86.223 1.36.09.396.203.773.342 1.128.133.357.26.66.37.913-1.24.143-2.473.32-3.7.528-1.227.21-2.47.456-3.736.742.143.88.338 1.884.58 3.005.24 1.125.488 2.25.745 3.382l.484 2.132c.35 1.53.682 2.962.997 4.303.32 1.335.628 2.64.93 3.898.3 1.26.613 2.493.94 3.69.33 1.2.68 2.435 1.05 3.71-1.398.176-2.494.33-3.283.453-.786.125-1.364.228-1.735.31-1.106.253-2.023.51-2.752.772-.73.26-1.315.47-1.75.627-.09-.758-.21-1.604-.366-2.533-.156-.938-.332-1.922-.526-2.957-.19-1.035-.402-2.08-.627-3.136-.228-1.06-.45-2.073-.672-3.05l-.795-3.513-.387-1.697c-.227-1-.5-2.15-.824-3.447-.322-1.3-.658-2.6-1.01-3.905-1.263.29-2.496.603-3.69.943" fill="#FFF"/><path d="M299.464 119.92c.284.087.57.16.865.22.287.062.577.123.87.184l1.743.362 1.743.368.87.18c.295.062.585.11.882.144l-1.476-9.95-5.498 8.49zm-4.868 8.62c-.427-.197-.85-.377-1.273-.533-.425-.158-.87-.288-1.348-.385-.448-.097-.9-.153-1.35-.18-.45-.026-.87-.024-1.26.003l3.44-4.782c.537-.715 1.14-1.546 1.807-2.496.665-.95 1.367-1.97 2.108-3.056l2.303-3.406c.8-1.186 1.6-2.368 2.4-3.556.445-.675.954-1.46 1.528-2.345.57-.89 1.126-1.767 1.67-2.63.535-.87 1.03-1.648 1.48-2.342.447-.69.77-1.18.97-1.47.428.2.872.384 1.332.546.46.168.92.296 1.365.39.477.1.96.167 1.45.2.49.034.97.045 1.442.032.09 1.012.228 2.208.407 3.584.18 1.375.383 2.824.6 4.345.218 1.52.453 3.047.702 4.574.245 1.528.476 2.947.7 4.262.26 1.52.495 2.862.703 4.04.21 1.175.413 2.286.606 3.333.193 1.05.407 2.105.638 3.174.234 1.067.503 2.257.808 3.56-.734-.316-1.57-.596-2.513-.836-.944-.24-1.813-.44-2.606-.603-.845-.178-1.705-.323-2.578-.44-.874-.112-1.743-.203-2.61-.274-.056-1.06-.123-2.082-.207-3.067-.086-.983-.202-1.97-.35-2.968-.874-.183-1.745-.37-2.616-.568-.868-.195-1.74-.385-2.612-.566-.685-.145-1.38-.284-2.082-.416-.706-.132-1.4-.273-2.086-.414-.563.847-1.08 1.716-1.54 2.616-.466.894-.94 1.788-1.43 2.677z" fill="#FFF"/><path d="M341.004 126.073c.41-.745.847-1.525 1.318-2.347.482-.844.928-1.634 1.33-2.366.405-.734.687-1.24.847-1.523.455-.797.935-1.69 1.438-2.675.5-.986 1.024-2.093 1.564-3.306.593.433 1.262.91 2.004 1.428.747.522 1.46.976 2.14 1.363.653.376 1.406.765 2.248 1.17.84.403 1.594.733 2.254.985-.538.783-1.085 1.603-1.64 2.465-.556.867-1.105 1.73-1.645 2.587-.538.858-1.043 1.687-1.518 2.49-.478.8-.905 1.544-1.294 2.223.527.33 1.114.69 1.764 1.077.647.387 1.327.782 2.03 1.184.61.353 1.26.71 1.957 1.07.687.368 1.364.738 2.022 1.113.402-.704.835-1.473 1.296-2.313.462-.84.927-1.7 1.394-2.588.46-.885.917-1.785 1.37-2.69.46-.906.876-1.778 1.26-2.613.598.43 1.267.912 2.03 1.436.753.528 1.46.978 2.116 1.354.656.375 1.407.766 2.246 1.17.843.4 1.598.732 2.26.986-.986 1.397-1.96 2.864-2.916 4.402-.957 1.535-2.032 3.346-3.222 5.434-.9 1.566-1.708 3.01-2.427 4.325-.727 1.31-1.408 2.57-2.047 3.775-.642 1.203-1.273 2.385-1.887 3.54-.616 1.156-1.26 2.38-1.94 3.676-1.378-1.07-2.855-2.055-4.424-2.953-.677-.39-1.37-.742-2.067-1.068-.704-.322-1.424-.635-2.156-.93.538-.72 1.146-1.607 1.827-2.662.68-1.056 1.352-2.135 2.017-3.235.656-1.1 1.28-2.143 1.863-3.13.576-.992 1.043-1.793 1.392-2.403-.634-.362-1.273-.74-1.912-1.138-.646-.4-1.294-.788-1.95-1.163-.61-.35-1.257-.71-1.94-1.087-.693-.38-1.345-.728-1.967-1.056-.363.634-.82 1.452-1.38 2.453-.558 1.004-1.145 2.068-1.755 3.195-.616 1.125-1.21 2.242-1.775 3.35-.572 1.104-1.04 2.06-1.417 2.877-.66-.534-1.338-1.032-2.038-1.493-.696-.463-1.424-.91-2.175-1.34-.89-.507-1.68-.92-2.368-1.238-.692-.316-1.365-.602-2.03-.856l1.147-1.68c.337-.487.752-1.113 1.24-1.877.48-.766.988-1.597 1.516-2.493.528-.896 1.064-1.806 1.615-2.738.546-.93 1.048-1.797 1.507-2.594.174-.303.465-.83.877-1.573" fill="#FFF"/></g></svg>