<svg width="512" height="512" viewBox="0 0 512 512" xmlns="http://www.w3.org/2000/svg"><title>washington-wizards</title><g fill="none"><path d="M255.923 71.623c-102.036 0-184.726 82.668-184.726 184.71 0 102.033 82.69 184.7 184.726 184.7 102.015 0 184.728-82.667 184.728-184.7 0-102.043-82.712-184.71-184.727-184.71" fill="#C2C9CA"/><path d="M256.424 77.843c-95.566 0-178.37 82.686-178.37 178.27 0 87.746 69.76 165.196 155.115 177.332 7.203.89 14.538 1.36 21.982 1.37 16.42-.005 32.088-2.17 46.993-6.2 74.548-21.404 131.648-93.06 131.648-172.947 0-95.582-81.77-177.826-177.37-177.826z" fill="#D02138"/><path d="M433.562 247.045l-355.252.03c-.17 3.043-.256 6.097-.256 9.167 0 16.195 2.382 32.038 6.795 47.187 41.833-.006 299.58-.026 342.126-.047 4.43-15.278 6.817-31.26 6.817-47.585 0-2.93-.08-5.85-.23-8.753" fill="#fff"/><path d="M233.14 433.493c7.205.892 14.54 1.36 21.982 1.37h.245c16.177-.005 31.845-2.17 46.748-6.2 46.675-13.4 86.504-46.498 109.768-88.98H99.963c27.15 49.217 76.752 85.787 133.18 93.81" fill="#002344"/><path d="M255.093 117.59s-1.4-25.082-1.405-26.237c.007-1.148 1.3-2.304 1.3-2.304-.89.01-4.343.26-7.992.388-.885.18-2.49.224-2.146 3.878l1.478 27.663 8.92-.475.65-.183s-.597-1.01-.805-2.732" fill="#fff"/><path d="M344.815 122.513l3.246-5.65-13.186-7.615-.13-.075-7.483-4.322c-1.072-.62-1.84.198-2.106.616-.265.435-2.983 5.223-2.983 5.223h.006l-1.203 2.124s1.823-1.766 3.912-.558l4.667 2.695-11.926 20.666 8.398 4.866s.032-1.37.794-2.926c0 0 6.602-11.487 10.453-18.146l3.6 2.075c2.075 1.2 2.01 4.454 2.01 4.454l1.937-3.428z" fill="#fff"/><path d="M319.096 101.198l-12.278-4.26c-3.96-1.375-6.767-1.734-8.437-1.107-1.662.632-3.09 2.666-4.284 6.118l-4.495 12.976c-.537 1.52-.868 2.796-.996 3.834-.254 2.02.206 3.59 1.375 4.683 1.154 1.104 3.314 2.204 6.49 3.307l5.542 1.92c4.004 1.39 6.84 1.758 8.49 1.125 1.66-.638 3.095-2.67 4.294-6.122 0 0 2.148-6.074 2.45-6.994.517-1.677-.74-2.743-1.446-2.988l-10.396-3.612c-1.222-.423-2 .506-2.432 1.29-.42.79-1.958 5.232-1.958 5.232l-.544 1.382s1.176-1.155 2.734-.62l3.823 1.327c-.583 1.4-1.222 2.192-1.885 2.402-.6.212-1.858-.028-3.79-.7 0 0-1.344-.52-1.708-.738-.93-.595-1.334-1.366-1.21-2.347.07-.56.284-1.33.627-2.34l2.495-7.188c.668-1.922 1.352-2.995 2.054-3.223.708-.21 2.017.005 3.95.677l9.444 3.275c1.702.593 2.032 2.82 2.032 2.82l.66-1.884 1.676-4.85c.485-1.85-.68-2.838-2.274-3.392" fill="#fff"/><path d="M224.954 92.133s2.82.9 3.292 3.095l.04.092 1.623 7.822-6.203 1.297c-1.826.376-2.21 2.184-2.21 2.184l-2.65-13.23-10.68 2.226s2.21 1.027 2.674 3.22l.042.093 5.632 27.144 6.24-1.288c1.223-.255 2.1-.54 2.328-1.497l-2.274-10.903 8.643-1.803 2.46 11.88 6.236-1.288c1.23-.255 2.112-.545 2.33-1.497l-6.23-29.9-11.293 2.35z" fill="#fff"/><path d="M358.595 140.584l-4.688 5.966c-1.267 1.633-2.31 2.407-3.15 2.377-.63.01-1.74-.63-3.356-1.9l.7.54c-1.113-.877-1.79-1.48-2.063-1.802-.68-.862-.81-1.72-.373-2.61.25-.506.7-1.164 1.35-2.01l4.7-5.986c1.262-1.596 2.264-2.385 2.99-2.383.74.037 1.91.668 3.522 1.935l-.666-.512c1.11.874 1.798 1.478 2.066 1.828.684.835.812 1.716.375 2.603-.242.497-.71 1.15-1.406 1.952m11.118-.165c.897-1.828.95-3.493.135-4.985-.66-1.34-2.34-3.066-5.02-5.173l-4.6-3.63c-3.294-2.59-5.836-3.85-7.61-3.792-1.78.05-3.796 1.508-6.06 4.376l-8.475 10.803c-.997 1.267-1.718 2.37-2.178 3.31-.897 1.828-.988 3.45-.245 4.86.736 1.424 2.424 3.172 5.062 5.247l4.605 3.63c3.33 2.623 5.898 3.9 7.66 3.835 1.786-.056 3.794-1.518 6.057-4.387l8.488-10.796c.988-1.258 1.718-2.36 2.18-3.3" fill="#fff"/><path d="M210.474 114.47c-2.032-3.895-6.268-5.228-10.576-3.435l-4.855 2.022c-1.748.73-2.976.597-3.667-.403-.025-.037-.213-.448-.23-.494-.216-.728-.76-1.988 1.83-3.066l8.76-3.65c1.89-.788 4.76 1.097 4.76 1.097s-1.734-4.124-2.8-6.652c-.613-1.478-2.507-2.434-4.05-1.79l-10.73 4.47c-3.868 1.61-6.206 3.202-7.022 4.783-.817 1.57-.503 4.073.895 7.454l1.232 2.885c.188.43.412.843.668 1.214.984 1.423 2.354 2.372 4.134 2.85 2.112.543 4.53.24 7.26-.898l4.176-1.74c1.615-.674 2.784-.497 3.49.525.19.273.285.578.287.902 0 0 .476 1.462-2.85 2.846l-8.427 3.512c-1.887.64-4.614-1.144-4.614-1.144s1.732 4.123 2.8 6.653c.613 1.475 2.505 2.433 4.05 1.788l.834-.348 5.795-2.414 4.205-1.752c3.873-1.613 6.204-3.196 7.02-4.788.823-1.585.473-3.875-.928-7.234 0 0-1.087-2.503-1.448-3.194" fill="#fff"/><path d="M389.77 158.038l-1.512-1.9s.42 2.733-1.325 4.115l.048-.037-9.374 7.318 6.035-16.458c.143-.416.072-.817-.237-1.213-.684-.876-4.626-5.95-4.626-5.95l-1.624-2.054s.437 2.943-1.322 4.325l-21.906 17.14 3.92 5.024c.763.978 1.415 1.655 2.37 1.424 0 0 5.515-4.326 11.696-9.16l-5.566 14.417c-.988 2.296-2.542.93-2.542.93l1.112 1.517.02-.005 3.902 5c.77.985 1.414 1.646 2.363 1.415l24.057-18.814-5.486-7.035z" fill="#fff"/><path d="M280.016 90.99l-2.416-.25s2.247 1.613 2.01 3.825l.01-.06-1.336 11.82-7.53-15.832c-.198-.39-.532-.622-1.033-.68-1.104-.123-7.487-.86-7.487-.86l-2.603-.278s2.41 1.75 2.164 3.974l-3.095 27.64 6.33.72c1.234.14 2.174.147 2.678-.697 0 0 .77-6.964 1.645-14.763l6.4 14.067c.948 2.31-1.115 2.464-1.115 2.464l1.862.27.01-.02 6.3.717c1.24.14 2.167.14 2.666-.698l3.402-30.352-8.863-1.007z" fill="#fff"/><path d="M147.132 126.595l-.924 1.114-4.955 5.62-.07.096c-.672.764-1.145 1.414-1.088 2.116l12.61 19.453-17.77-9.61c-2.257-.91-1.314-3.378-1.314-3.378l-1.78 2.004-3.652 4.142-.064.094c-.924 1.045-1.384 2.098-.892 3.228l12.745 17.934-17.815-9.153c-2.31-1.187-1.31-3.756-1.31-3.756l-1.888 2.12-4.198 4.76-.075.106c-.958 1.09-1.202 2.656-.27 3.418l.052.078 27.663 12.96 6.493-7.364c.878-.997 1.135-1.54.725-2.594l-5.24-9.737 10.726 5.285 6.917-7.852c.856-.97.98-2.352.63-3.402l-14.71-24.6c-.948-1.675-.543-3.082-.543-3.082" fill="#fff"/><path d="M168.984 135.294l-1.702-4.656 4.25 2.79-2.548 1.866zm-6.564-17.755l-5.262 3.68c-1.057.748-1.512 1.446-1.407 2.553l8.86 27.01c.57 1.69-1.49 4.75-1.49 4.75l9.24-6.465c.832-.583 1.028-1.567.736-2.5l-1.306-3.817 7.042-4.927 2.745 1.725c1.58 1.304.446 2.764.446 2.764l10.15-7.1-29.753-17.674z" fill="#fff"/><path d="M111.5 190.975l4.167 12.827h13.49l-10.914 7.93 4.168 12.83-10.912-7.93-10.913 7.93 4.168-12.83-10.913-7.93h13.49l4.167-12.827z" fill="#fff"/><path d="M400.347 192.684l-4.168 12.827h-13.49l10.913 7.93-4.168 12.83 10.913-7.93 10.913 7.93-4.167-12.83 10.913-7.93h-13.49l-4.167-12.826z" fill="#fff"/><path d="M252.3 409.916l1.374-4.763 1.784 4.763H252.3zm4.528-18.476h-6.422c-1.295.005-2.068.316-2.617 1.283l-8.225 27.21c-.503 1.71-3.946 3.036-3.946 3.036h11.278c1.016 0 1.74-.694 2.036-1.625l1.12-3.875h8.592l1.263 2.986c.543 1.974-1.22 2.52-1.22 2.52h12.388L256.83 391.44z" fill="#fff"/><path d="M289.725 396.352c.233.654.556 2.926.352 3.525-.194.59-.6.95-1.222 1.066l-5.152 1.016c-1.174.216-2.034 1.438-2.74 2.907l-1.518-8.23 8.36-1.614c.903-.167 1.552.268 1.918 1.33m12.162 18.255l-6.776-7.497c1.575-.365 2.843-1.23 3.312-2.012.764-1.272.803-3.697.14-7.275 0 0-1.272-6.266-1.526-7.243-.49-1.89-1.547-3.03-2.697-3.473-1.13-.45-2.902-.462-5.302-.016l-22.338 4.2s2.83 1.05 3.304 3.172l4.964 27.263 6.23-1.155c1.235-.23 2.123-.478 2.363-1.437l-1.687-9.23 4.35-.866 7.52 9.142 11.14-2.067s-1.93-.48-2.997-1.505" fill="#fff"/><path d="M321.085 384.374c.377.59 5.575 12.2 5.513 12.823-.055.63-.37 1.078-.952 1.33l-8.06 3.488-4.717-10.86c-.294-.705-1.02-2.366-1.84-4.225l7.886-3.413c.85-.368 1.576-.09 2.17.858m5.862-7.264c-.908-1.747-2.19-2.607-3.397-2.785-1.205-.183-2.936.2-5.176 1.17l-21.04 9.11s2.926.518 3.956 2.365l9.74 22.48c.424 1.594-.164 3.307-.434 3.655l20.475-8.776c2.78-1.204 4.396-2.52 4.853-3.906.464-1.412-.04-3.784-1.485-7.124l-6.083-13.294c-.645-1.466-.94-2-1.407-2.894" fill="#fff"/><path d="M239.346 397.707l1.327-5.998s-23.337-5.116-23.662-5.15c-1.914-.21-2.655 1.028-3.14 2.568l-.927 4.205.018.005-.418 1.72s1.727-1.295 3.615-1.018l10.74 2.366-17.987 15.13-1.09 5.07 23.42 5.16c1.5.33 2.543.38 3.07-1.132l1.685-7.746s-1.752 1.688-3.683 1.37l-11.347-2.5 18.382-14.05z" fill="#fff"/><path d="M201.154 411.416s8.18-23.754 8.613-24.824c.44-1.06 2.073-1.643 2.073-1.643-.826-.326-4.12-1.4-7.545-2.66-.888-.166-2.388-.73-3.452 2.78l-9.085 26.173 8.437 2.93.673.08s-.17-1.163.286-2.836" fill="#fff"/><path d="M199.686 381.528l-1.247-.737-6.336-4.003-.105-.05c-.863-.544-1.577-.908-2.264-.74l-13.935 13.56 5.098-16.382c.318-1.585 2.873-1.63 2.873-1.63l-2.26-1.442-4.666-2.95-.103-.05c-1.18-.745-2.29-1.033-3.328-.37l-14.314 13.26 6.284-15.957c.805-2.47 3.503-1.89 3.503-1.89l-2.393-1.528-5.367-3.39-.117-.057c-1.226-.775-2.812-.768-3.416.27l-.07.067-9.86 28.448 8.3 5.244c1.124.71 1.7.877 2.678.306l8.783-6.715-3.52 11.426 8.848 5.59c1.095.692 2.48.594 3.46.083l20.516-19.337c1.505-1.203 2.958-1.025 2.958-1.025" fill="#fff"/><path d="M359.566 370.325c-2.796-3.386-7.218-3.814-11.06-1.164l-4.33 2.987c-1.558 1.073-2.786 1.2-3.67.364-.032-.03-.3-.392-.327-.434-.365-.666-1.156-1.787 1.152-3.38l7.815-5.387c1.684-1.163 4.882.086 4.882.086l-4.12-5.928c-.905-1.318-2.957-1.862-4.334-.913l-9.567 6.598c-3.45 2.38-5.41 4.422-5.88 6.138-.475 1.703.354 4.09 2.422 7.107l1.803 2.565c.272.387.58.74.906 1.05 1.26 1.187 2.797 1.832 4.638 1.933 2.178.09 4.477-.707 6.914-2.388l3.727-2.567c1.438-.993 2.616-1.062 3.52-.21.24.23.398.506.47.824 0 0 .765 1.33-2.2 3.377l-7.515 5.18c-1.714 1.02-4.752-.16-4.752-.16s2.55 3.674 4.12 5.928c.904 1.318 2.956 1.86 4.333.91l.744-.51 5.168-3.565 3.752-2.585c3.454-2.384 5.406-4.413 5.873-6.14.476-1.723-.343-3.89-2.407-6.886 0 0-1.583-2.22-2.08-2.823" fill="#fff"/><path d="M364.895 197.328c-7.614-14.033-17.856-26.43-30.072-36.533-2.29-1.894-4.67-3.68-7.094-5.406-20.206-14.402-44.893-22.92-71.59-22.968h-.22c-66.206.005-120.304 51.952-123.724 117.334-.114 2.112-.17 4.235-.174 6.37v.216c.005 17.092 3.466 33.378 9.725 48.19.78 1.854 1.61 3.682 2.478 5.487 6.95 14.435 16.616 27.315 28.336 37.982 2.93 2.668 5.988 5.193 9.163 7.572 20.647 15.463 46.283 24.63 74.063 24.662h.17c14.956-.005 29.29-2.656 42.558-7.513 47.402-17.35 81.247-62.83 81.31-116.247v-.158c-.004-17.083-3.465-33.362-9.722-48.17-1.565-3.705-3.304-7.313-5.207-10.822" fill="#C2C9CA"/><path d="M367.043 209.44c-1.52-3.602-3.214-7.116-5.067-10.53-7.41-13.657-17.378-25.722-29.267-35.553-2.23-1.844-4.544-3.58-6.905-5.262-19.663-14.015-43.69-22.303-69.673-22.35h-.213c-64.43.004-117.08 50.558-120.41 114.19-.11 2.053-.165 4.12-.17 6.2v.21c.006 16.633 3.375 32.48 9.468 46.898.76 1.803 1.567 3.583 2.41 5.34 6.764 14.05 16.17 26.586 27.575 36.963 2.853 2.6 5.83 5.056 8.918 7.373 20.094 15.045 45.042 23.968 72.08 23.997h.166c14.555-.005 28.505-2.583 41.42-7.31 46.13-16.885 79.067-61.146 79.13-113.132v-.153c-.004-16.625-3.37-32.47-9.46-46.88" fill="#fff"/><path d="M233.4 201.06l2.796-10.168.66-2.37-12.833-7.19s-7.485-5.193-24.225 4.518c-19.6 11.558-35.545 26.504-43.797 42.36-4.568 8.785-8.194 18.897-10.067 30.397.583 21.76 7.453 41.95 18.9 58.795-3.264-31.358 27.038-65.713 50.764-89.174 12.53-12.523 17.803-27.167 17.803-27.167" fill="#002344"/><path d="M312.193 185.847c-16.742-9.71-24.225-4.514-24.225-4.514l-12.83 7.186.657 2.374 2.796 10.17s5.272 14.64 17.804 27.16c23.653 23.39 53.853 57.606 50.795 88.89 11.502-17.04 18.328-37.474 18.724-59.487-1.92-11.1-5.484-20.883-9.924-29.42-8.25-15.85-24.202-30.8-43.797-42.36" fill="#002344"/><path d="M271.93 167.05c43.984 4.968 72.892 29.93 87.817 52.07-11.23-31.95-36.787-57.146-68.97-67.893-7.098 2.098-14.965 6.51-18.848 15.822" fill="#D02138"/><path d="M240.06 167.05c-3.9-9.362-11.833-13.773-18.962-15.85-32.378 10.79-58.058 36.222-69.2 68.447 14.827-22.27 43.838-47.592 88.163-52.598" fill="#D02138"/><path d="M247.26 165.81l8.73-12.854 8.742 12.853c3.505-9.58 9.032-14.86 14.575-17.738-7.506-1.624-15.29-2.498-23.28-2.507-8.03-.007-15.845.872-23.392 2.496 5.557 2.872 11.102 8.136 14.626 17.75" fill="#D02138"/><path d="M255.992 203.14c-1.27.907-41.877 30.133-59.767 59.073-24.145 39.06-21.008 61.586-14.76 74.445 15.558 14.308 35.25 24.18 57.08 27.647l9.41-133.414 7.846-7.87.102-.104v.002l.01-.002.097.105 7.84 7.87 9.48 133.308-.125.066c22-3.475 41.836-13.43 57.464-27.91 6.15-12.903 9.063-35.378-14.903-74.14-17.888-28.94-58.5-58.167-59.776-59.075" fill="#002344"/><path d="M263.853 230.892l-7.842-7.868.093 150.99 17.1-9.747.006-.005.123-.066-9.478-133.305z" fill="#C2C9CA"/><path d="M279.465 174.868c-4.775-.82-9.58-1.478-14.45-1.784l-3.437-.217-.07-.142-.07-.142-1.382-2.812-.085-.173v-.002l-3.977-8.083-1.28 2.606-2.563 5.21-.005.006-.11.217-.105.22-1.38 2.813-.114.238-.023.047-3.434.217c-4.867.307-9.678.965-14.453 1.784-2.12.36-4.255.682-6.348 1.144l6.748 3.635 6.75 3.64 2.083 1.12 2.09 1.127-1.267 4.57-.07.255-.58 2.11-3.756 13.647.002-.005v.005l8.55-6.31 5.798-4.276 1.71-1.262 1.71-1.26v-.072l.046.04.055-.04v.07l1.708 1.262 1.71 1.263 14.347 10.586-3.756-13.646-.326-1.183-.323-1.183-1.262-4.57 1.354-.733 2.82-1.513 9.107-4.912 4.385-2.363h-.005.005c-2.096-.462-4.228-.782-6.348-1.144" fill="#C2C9CA"/></g></svg>