<svg width="512" height="512" viewBox="0 0 512 512" xmlns="http://www.w3.org/2000/svg"><title>arizona-diamondbacks</title><g fill="none" fill-rule="evenodd"><path d="M319.496 355.024l-30.218 41.566h130.034L357.182 119h-86.55L95 396.54h138.58l-19.845-41.713 42.797-71.725c1.15 4.442 3.348 13.145 3.693 14.49-2.183 3.802-35.383 61.087-35.383 61.087s48.94-40.39 51.19-42.27c.802.993 36.224 43.89 36.224 43.89s-16.66-55.5-17.81-59.27c.854-1.36 6.402-10.16 9.933-15.816l15.11 69.758v.048zm-61.438-74.48l27.298-45.715h8.076l9.93 45.71h-45.304z" fill="#E3D4AD"/><path d="M180.354 292.33l54.4-34.065-18.698-33.462 52.622-25.337-16.972-29.868 40.46-17.996-18.22-26.692-168.932 266.076 92.42-58.073-17.08-40.583z" fill="#000"/><path d="M288.293 300.214c1.428-2.228 8.85-13.998 8.85-13.998h-33.995s2.594 10.015 3.168 12.26c-1.576 2.688-20.813 35.863-20.813 35.863s27.428-22.64 31.27-25.85c2.707 3.26 22.027 26.664 22.027 26.664s-9.57-31.896-10.522-34.944" fill="#A71930"/><path d="M405.048 385.625L347.99 129.91h-64.424l15.872 24.348-39.985 17.944 17.22 29.814-52.56 25.132 17.603 32.578-54.45 34.227 16.793 41.058-81.6 50.488h91.82l-14.788-30.372L278.79 224.91h24.57l29.678 132.754-20.682 27.962h92.692z" fill="#A71930"/><path d="M412.236 391.083l-59.452-266.825h-72.912l3.694 5.678h64.425l57.06 255.704h-92.69l20.698-27.945-29.694-132.76h-24.57L199.5 355.138l14.81 30.388h-91.85l-8.995 5.606H224.22l-17.502-36.108 75.157-125.194h16.38l28.363 126.49-25.49 34.812h111.106v-.05h.002z" fill="#000"/></g></svg>