<svg width="512" height="512" viewBox="0 0 512 512" xmlns="http://www.w3.org/2000/svg"><title>atlanta-braves</title><g fill="none" fill-rule="evenodd"><path d="M498.886 311.585c.017-.354.045-.598.045-1 0-1.32-.11-2.95-.514-4.815-1.1-5.14-3.855-8.902-5.884-11.646l-1.59-2.314c0 .017-.71-1.747-.71-1.747-.282-.763-.613-1.667-1.04-2.66 4.346-3.588 6.108-7.562 6.816-10.262 1.48-5.77-.156-11.743-4.405-15.952-4.22-4.186-10.464-6.085-17.516-5.58-.22-9.16-4.454-14.352-6.83-17.05-.016-.45-.016-.92-.016-.92-.046-5.35-.126-15.266-8.072-23.254-1.714-1.72-1.933-2.25-2.61-3.972 0 0-.818-1.926-1.04-2.462-.44-1.07-1.62-3.573-5.413-6.406l-8.984-6.697-6.12 9.53c-3.382 5.227-3.807 10.31-4.092 13.677 0 0-.14 1.33-.218 1.88-.268.29-.738.77-.738.77l-2.896 3.163-.315.394c-4.125 5.154-4.816 9.51-4.816 19.97 0 0-.016.51-.047 1.008-.284.345-.644.804-.644.804-3.46 4.47-3.59 9.85-3.683 13.76 0 0-.173 3.2-.173 3.25a4049232.21 4049232.21 0 0 1-212.497 30.64c-12.7 1.7-18.565 11.74-17.633 20.328 1.608 14.8 12.05 19.216 21.3 18.42 5.86-.503 149.755-21.967 200.85-29.6-.41 2.03-.71 4.16-.71 6.45 0 2.8.472 5.792 1.528 8.853-.804 1.866-1.465 3.904-1.748 6.256a31.606 31.606 0 0 0-.25 3.895c0 8.208 3.51 12.765 6.672 15.206 5.02 3.88 11.754 4.18 19.86 1.314 8.416 1.56 17.655.7 26.01-2.486 7.835 1.493 15.813-3.14 19.78-5.54 0 0 .094-.063.11-.07.17.007.38.007.38.007l5.476-.157.896-.182c3.62-.674 10.34-1.933 13.376-8.75.895-1.98 1.226-3.94 1.226-5.79-.002-4.706-2.203-8.64-3.116-10.252" fill="#13274F"/><path d="M494.856 313.944l-.33-.598s-.173-.204-.345-.37c.02-.086.02-.205.02-.205.046-.59.095-1.333.095-2.182a17.7 17.7 0 0 0-.392-3.787c-.895-4.114-3.21-7.26-5.05-9.79l-1.92-2.816-1.04-2.453c-.565-1.577-1.305-3.6-2.88-5.826 5.84-3.305 7.84-7.41 8.514-9.993 1.057-4.09-.11-8.31-3.13-11.296-3.745-3.707-9.708-5.053-16.49-3.944-.315-.428-.6-.845-.913-1.25 0 0-1.23-1.83-1.494-2.247.015-.323.03-.652.03-.968 0-8.018-3.68-12.18-5.93-14.747l-.88-1.054c-.018-.622-.11-2.754-.11-2.754-.034-4.965-.098-13.266-6.66-19.852-2.423-2.422-2.896-3.617-3.665-5.59l-1.07-2.54c-.267-.547-.895-1.9-3.62-4.12l-5.13-4.154-3.604 5.602c-2.72 4.224-3.066 8.396-3.32 11.45l-.39 3.035c-.205.85-.645 1.348-2 2.67l-2.47 2.678-.363.465c-2.91 3.636-3.745 6.296-3.745 16.925 0 2.33-.234 2.91-.234 2.95-.017.017-.63.788-.63.788l-.85 1.054c-2.504 3.216-2.58 7.292-2.675 10.89l-.22 3.892c-.25 1.74-.58 2.81-.943 3.55-4.517.65-213.58 30.805-215.54 31.08-10.943 1.472-14.166 10.002-13.615 15.05 1.51 13.938 11.912 14.558 16.314 14.19 5.98-.52 167.457-24.62 207.616-30.634-1.163 3.523-2.484 7.64-2.484 12.22 0 2.94.532 6.034 1.997 9.246-1.088 2.046-1.953 4.09-2.238 6.484a26.826 26.826 0 0 0-.203 3.24c0 6.297 2.5 9.665 4.8 11.428 5.555 4.29 13.045 1.913 17.01.266 8.136 1.726 17.135.654 25.257-2.626 6.578 2.408 14.258-2.21 18.253-4.648l.914-.536c.425-.26.77-.276 2.297-.15l4.233-.11.96-.182c3.354-.63 7.965-1.502 9.978-6.042a9.01 9.01 0 0 0 .82-3.793c0-2.993-1.34-5.81-2.52-7.89" fill="#CE1141"/><path d="M412.413 209.983c-1.557-3.895-6.01-15.06.867-24.63 2.627-3.193 1.416-6.648.976-7.616-.44-.968-2.25-4.147-6.798-4.068h-.252l-.268.02c-13.99 1.383-21.73 17.75-29.93 35.062-.85 1.77-1.872 3.666-2.848 5.532-.38-.07-.74-.213-1.12-.26-1.35-.15-2.626.01-3.917.15-.045-.23-.033-.44-.094-.67-.3-.826-.96-1.462-1.548-2.13 1.134-.286 2.55-.654 2.55-.654 3.84-1.006 5.24-4.987 5.667-6.67a13.89 13.89 0 0 0 .423-3.384 13.01 13.01 0 0 0-2.156-7.208c-2.266-3.43-6.01-5.73-10.275-6.29-8.2-1.086-17.106 5.777-20.757 15.186a31.348 31.348 0 0 1-9.586 7.357c-.834-6.694-4.99-11.525-11.096-12.61-6.642-1.19-13.438 2.463-16.194 8.654-.11.244-.155.528-.266.788-1.335-2.296-3.13-4.2-5.538-5.16-17.608-7.05-31.017 14.243-42.837 33.017-4.724 7.49-9.17 14.564-13.45 19.395-.36.4-.527.487-.818.755.11-1.238.4-2.748 1.262-4.606.09-.218 16.155-38.327 16.155-38.327l-22.196 2.218s-.247.645-.413 1.095c-2.02-1.023-4.216-1.866-6.78-2.196-19.8-2.518-32 15.085-36.83 32.394-.284.904-2 4.35-3.596 7.19-6.43 11.434-11.94 14.62-14.1 14.818-.17-.614-.332-1.213-.332-2.187 0-6.07 2.985-18.416 6.303-26.606.513-1.416.713-2.676.713-3.76 0-2.904-1.45-4.637-2.245-5.367-1.705-1.59-4.73-2.67-8.097-.93-3.76 2.25-7.52 3.564-11.04 4.415.037-.558.194-1.18.194-1.706 0-1.544-.196-2.937-.644-4.14-2.112-5.674-6.337-9.404-11.585-10.244-5.29-.843-10.7 1.415-14.15 5.892-2.262 2.927-3.414 6.42-3.414 10.118 0 2.314.448 4.706 1.364 7.08.878 2.236 2.408 4.345 4.233 6.31-2.03 4.165-4.34 8.65-6.645 12.703-6.743 11.89-12.962 20.412-21.456 29.38-.355.37-.615.73-.883 1.094.23-.616.47-1.23.68-1.866 1.79-5.376 2.65-10.804 2.65-16.148 0-11.19-3.97-21.827-11.174-30.586 11.1-8.79 17.87-21.535 17.87-34.89 0-2.63-.318-5.27-.838-7.9 1.627-.534 3.252-1.07 5.007-1.604 6.18-1.59 5.674-7.144 5.596-7.766-.084-.63-.962-6.105-7.537-6.01-3.262.046-6.42.26-9.518.574-6.53-8.838-17.84-15.77-35-15.714-18.392.4-29.372 10.183-35.356 18.318-8.193 11.134-10.747 23.993-9.024 30.925l.908 3.66 3.734 1.35c2.284.718 4.725.16 6.525-1.49 5.438-4.424 8.742-5.62 9.526-5.698l.806-.08c-9.305 12.59-14.962 28.28-20.4 43.5-5.703 15.933-11.09 30.994-19.736 39.037l-2.69 2.52.657 3.677c.724 4.146 1.258 13.005.873 21.94-.047 3.122 1.346 5.64 3.707 6.907 2.357 1.275 5.127 1.007 7.4-.67 14.607-10.945 24.483-40.812 33.184-67.166 3.61-10.896 7.07-21.31 10.268-28.484a13.6 13.6 0 0 0 .017 5.88c2.043 7.765 8.542 11.84 16.208 10.323l1.57-.718c2.35 3.587 3.625 8.804 3.625 14.533 0 4.462-.76 9.223-2.334 13.7-2.047 5.798-8.483 19.238-24.14 18.9-3.396-.096-6.913-1.59-7.602-1.95-4-2.346-7.63-.623-9.27 1.98-1.687 2.708-1.54 6.84 1.996 9.5-.362-.292.21.22.21.22 3.41 3.077 11.414 10.29 27.284 9.67 13.29-.572 25.718-9.96 32.496-23.998-.02.19-.068.384-.068.558 0 2.07.976 3.597 1.46 4.22 1.75 2.28 5.416 3.942 9.995 1.092 2.57-1.596 6.01-3.863 9.72-7.28 6.295-5.782 12.5-13.755 19.523-25.07.327-.527 3.904-6.334 7.4-13.603a34.04 34.04 0 0 0 2.35-.08c-1.75 5.132-3.582 11.362-3.582 17.248 0 6.58 2.296 12.638 9.57 15.926 8.176 3.703 21.48.61 34.086-12.91 2.96 3.92 7.042 6.47 12.177 6.972 5.08.172 10.5-2.322 14.607-5.225 3.027 2.18 7.176 4.255 12.716 3.665 8.11-.832 16.165-7.128 24.66-19.207l4.987-7.643c4.988-7.844 12.464-19.506 18.3-25.636-.423 1.156-.912 2.416-1.872 4.03-4.895 8.252-9.552 16.814-9.552 24.186 0 1.723.252 3.392.833 4.972 1.29 3.612 4.123 6.31 7.947 7.577 15.657 5.217 32.195-8.23 44.85-35.84a42.735 42.735 0 0 0 4.72-1.638c-1.81 3.886-2.974 7.577-2.974 10.787 0 5.47 2.236 9.852 5.272 12.802 7.82 7.538 21.526 7.12 31.71-.253a31.4 31.4 0 0 0 14.95 4.083c11.786.19 22.172-5.2 28.482-14.76 6.25-9.45 7.367-21.63 3.007-32.567zm-353.38-2.73c-.09-1.52-.285-9.363 4.39-14.274 3.007-3.14 7.706-4.59 13.964-4.318 1.467.064 3.806.545 6.287 1.607-9.44 4.233-17.676 10.236-24.595 17.775l-.05-.794zm11.56 21.678c.084-.11.158-.26.235-.373l1.287-1.778c4.108-5.72 8.922-12.37 22.893-19.58-.047 3.54-.933 11.236-6.984 18.727l-.078.102c-.21.267-.493.502-.77.746-5.4-2.69-11.125-2.392-15.388 1.04-.424.347-.816.725-1.195 1.118zm324.65-9.76c-.518 11.007-6.985 14.68-12.95 15.887 4.06-6.2 7.524-12.66 10.592-18.414.63-1.142 1.26-2.306 1.89-3.462.218 1.34.535 2.606.535 4.148 0 .59-.017 1.205-.066 1.842zm-40.69 20.687c-1.465.52-2.85.738-3.556.118-.473-.4-.677-1.046-.677-1.873 0-1.14.425-2.62 1.258-4.217.597-1.172 1.494-2.305 2.516-3.375-.157.998-.63 2.013-.63 3.022 0 2.146.426 4.253 1.09 6.324zm9.048-31.073s.398.433.62.67c-1.4-.38-2.85-.652-4.706-.016l.128-.022c-.08.01-.173-.04-.267-.07-.018-.073-.048-.15-.048-.23 0-1.47.818-2.983 1.794-3.8.36-.29.583-.417.865-.59.188 1.998 1.07 3.445 1.62 4.06zm-58.84 17.988c.49-1.08.68-1.927 1.028-2.92.174.347.237.756.41 1.07.803 1.456 2.03 2.426 3.162 3.496-4.91 8.9-9.614 14.645-12.525 16.51 1.006-3.668 3.823-9.585 5.57-13.204l2.36-4.95zm-88.55 31.965c-.252.11-.48.214-1.16-.085-.346-.16-1.343-2.653-.283-7.997 2.05-10.213 8.67-18.506 11.905-18.506.41 0 .47.102.515.17.23.345.436 1.11.436 2.34 0 1.73-.43 4.39-1.845 8.07-5.064 13.218-8.6 15.596-9.565 16.005z" fill="#13274F"/><path d="M406.388 212.533c-1.59-3.965-7.586-18.35 1.653-31.185.52-.645.49-.976-.47-.96-10.18 1.01-16.77 14.558-24.703 31.326a188.86 188.86 0 0 1-5.68 10.867c-2.816-2.38-12.068-4.25-15.94 5.01-2.25 5.374-1.275 10.497 1.732 14.564-.788.773-1.59 1.528-2.378 2.174-9.41 7.587-21.714-.307-14.76-13.636 3.414-6.54 11.833-11.67 15.06-12.96 1.558-.604 3.24-2.79.69-1.912-3.083 1.08-7.473-.63-8.37-3.838-1.323-4.604.754-9.357 3.806-11.906 7.74-6.436 12.242-.204 11.44 3.5-.44 1.364.536.355.93-1.202 1.116-4.42-2.25-7.963-6.517-8.53-5.68-.738-12.666 5.312-14.666 12.63-6.577 7.704-15.687 11.937-22.91 12.686 1.163-3.462 1.873-6.517 1.716-8.143-.836-9.804-12.086-9.065-15.014-2.446-2.88 6.435-1.984 16.09 6.152 17.28-6.104 12.62-16.41 28.49-24.202 26.736-9.268-2.117-.565-16.846 4.926-28.713 4.375-9.433 2.55-14.807-.976-16.217-18.223-7.287-33.912 33.512-49.113 50.682-9.71 10.954-15.6.243-10.245-11.284l11.636-27.625-7.21.722-2.33 6.005c-.937-2.4-4.646-6.01-10.252-6.726-15.77-2.007-25.724 13.078-29.765 27.57-.552 1.968-3.388 7.194-4.22 8.704-8.274 14.724-17.234 20.45-23.282 17.533-7.832-3.786.584-30.272 3.5-37.47.517-1.45.226-1.92-.704-1.45-6.82 4.1-15.49 6.484-22.35 6.144 1.744-4.82 2.67-9.014 1.86-11.18-4.478-12.076-20.46-4.52-15.63 7.94 1.03 2.7 3.194 5.273 6.252 7.08-2.7 5.847-6.136 12.607-9.1 17.83-7.795 13.733-14.512 22.334-22.42 30.68-1.973 2.088-.254 1.434.658.877 2.737-1.716 5.636-3.7 8.738-6.54 5.964-5.492 11.93-13.298 18.366-23.675 2.482-3.996 6.07-10.67 8.914-17.17 2.602.594 5.556.75 8.88.15 1.854-.33 5.343-1.89 6.744-2.523.385-.18.5.314.5.314-.705 6.73-14.324 30.25-1.19 36.205 7.337 3.32 21.19-1.613 33.294-19.38.87 7.04 4.326 12.26 10.945 12.89 4.91.164 11.86-4.32 13.964-7.2 3.954 3.603 13.81 15.27 32.13-10.81 4.394-6.268 15.715-25.766 24.418-34.617 9.144-9.284 16.084-1.047 7.837 12.818-5.98 10.096-13.436 23.81-4.326 26.84 15.03 4.988 29.585-14.98 38.316-35.21 9.885-1.527 21.75-10.624 24.99-13.96.237 2.322 1.51 5.5 3.637 6.54-4.17 3.137-8.594 6.505-11.08 9.74-15.108 21.45 8.953 31.35 23.603 18.765.644-.54 1.243-1.155 1.873-1.746 3.84 3.294 9.27 5.39 15.298 5.48 20.318.328 32.75-19.477 25.355-38.054zm-263.074 23.22c-4.705-7.734 7.71-12.495 7.455-3.84-.04 1.118-1.04 3.928-2.58 7.54-2.114-.773-3.824-1.976-4.88-3.7zm88.526 9.442c-5.528 14.432-11.674 23.04-19.372 19.608-11.88-5.278.916-39.383 14.198-39.374 5.812 0 10.43 6.05 5.174 19.76zm88.88-37.07c3.006 1.15 3.006 4.4.36 11.08-1.15-.133-2.217-.362-3.146-.747-5.1-2.08-2.048-12.165 2.785-10.332zm43.305 20.665c3.367-6.885 8.324-3.36 9.804-.653-2.38 3.753-4.868 7.302-7.43 10.324-2.946-2.513-4.17-5.983-2.38-9.67zm37.72-9.105c-.79 17.195-13.504 21.56-20.238 22.435-4.31.552-8.34-.072-11.535-1.463 12.95-15.194 20.96-37.777 27.35-43.215-.425 4.272 5.287 10.714 4.422 22.243zM110.147 193.49a264.196 264.196 0 0 1 11.168-3.737c.93-.235 1.65-.622 0-.598-3.768.056-8.11.315-12.753.96-5.23-9.387-15.78-16.147-31.827-16.092-30.29.653-40.387 31.553-38.08 40.838.04.16.275.38.514.16 5.652-4.6 10.39-7.134 13.36-7.37-.47-8.17 2.36-26.724 25.142-25.7 5.11.235 13.836 3.06 19.24 10.583-12.624 3.534-26.127 10.584-36.945 24.486-19.474 25.05-23.047 67.25-41.895 84.78.882 5.075 1.36 14.59.972 23.433-.02.952.495.692.78.48 21.264-15.943 33.6-84.573 45.804-101.215 5.483-7.493 11.004-16.894 34.05-26.89.806 2 1.417 4.196 1.74 6.673.57 4.56-.235 15.86-8.39 25.948-1.86 2.4-5.077 4.39-6.01 4.22-1.195-.977-1.047-.67-2.375-1.582-7.062-3.77-12.392 1.792-11.197 6.987.916 3.494 3.763 6.223 8.64 5.27 1.494-.297 4.004-2.54 4.49-2.14 16.9 13.984 8.37 62.605-24.683 61.883-5.012-.133-9.79-2.29-10.618-2.78-.803-.486-.82-.242-.295.15 2.68 2.33 9.07 9.166 23.427 8.61 26.763-1.156 45.92-45.867 16.82-71.227 18.605-10.057 25.13-30.67 18.916-46.125" fill="#CE1141"/><path d="M490.45 316.597c-1.543-1.645-1.48-2.582-1.34-4.257.08-1.142.208-2.558-.203-4.405-.63-2.992-2.425-5.408-4.14-7.753l-2.264-3.36-1.385-3.242c-.738-2.02-1.493-4.123-3.918-6.608l-.583-.653-2.043-2.58c6.624-1.957 11.014-5.26 12.02-9.18.584-2.244-.06-4.476-1.746-6.145-2.408-2.4-7.713-4.046-15.422-1.812-.016-.033-.047-.064-.047-.102-.62-1.3-1.53-2.612-2.47-3.91-.1-.14-.21-.3-.3-.44a50.03 50.03 0 0 1-1.76-2.74c-.29-.605-.508-1.164-.47-1.61.482-7.05-2.43-10.37-4.57-12.795-.942-1.072-1.76-2-2.012-2.96-.285-1.054-.285-2.58-.3-4.35-.03-4.667-.08-11.064-5.113-16.108-3.164-3.188-3.952-5.14-4.832-7.39l-.945-2.225c-.33-.818-1.65-1.88-2.2-2.29l-.79-.582-.533.828c-1.984 3.09-2.252 6.223-2.488 8.96l-.505 3.87c-.58 2.41-1.966 3.77-3.447 5.21l-2 2.157-.41.518c-1.84 2.314-2.58 3.644-2.58 13.58 0 4.652-.756 5.542-2.077 7.154l-.754.936c-1.417 1.818-1.497 4.688-1.56 7.718l-.285 4.55a30.49 30.49 0 0 1-.268 1.637l-.536 2.123c-.016.015-.016.015-.016.024v.024c-.596 1.88-1.35 2.942-2.217 3.707-.094.07-.19.14-.268.18-.582.087-6.406.92-15.83 2.283l-1.575.204c-.032 0-.032.035-.047.035-5.93.85-13.14 1.898-21.213 3.06-.014 0-.014-.006-.014-.006l-4.25.62c-45.476 6.56-115.52 16.65-151.51 21.836-.077 0-.14-.046-.22-.04l-4.64.747a17406.73 17406.73 0 0 1-18.256 2.63c-7.332.983-9.535 6.2-9.208 9.26.278 2.557 1.12 10.36 10.814 9.52 1.02-.08 6.807-.89 15.835-2.194.05 0 .084.024.135.024l4.81-.746c31.272-4.534 91.327-13.465 136.68-20.225l.425-.04 2.437-.384c18.6-2.778 34.51-5.15 44.567-6.65.077.016.157.032.218.016l7.034-1.088c.015 0 .015-.014.032-.022 1.1-.166 2.03-.293 2.705-.4-.22 2.296-.926 4.73-1.794 7.323-1.18 3.47-2.425 7.216-2.425 11.166 0 2.928.77 5.98 2.69 9.152-.095.196-.253.622-.253.622-1.73 2.8-2.47 4.602-2.72 6.673-.11.937-.158 1.82-.158 2.645 0 3.33.927 5.745 2.752 7.145 2.69 2.084 7.206 1.738 13.374-.97 8.295 2.203 18.02 1.118 26.266-2.863 4.406 3.028 11.41-1.156 15.25-3.487l.943-.564c1.886-1.12 3.586-.97 5.24-.845l2.894-.025.977-.187c2.77-.52 5.365-.998 6.294-3.085.71-1.594.236-3.767-1.495-6.828zm-267.395 1.778c-8.85 1.275-14.493 2.06-15.48 2.148-6.99.598-8.39-3.864-8.82-7.83-.015-.118-.015-.243-.015-.378 0-1.897 1.303-5.93 7.617-6.768l15-2.165c1.24.937 2.29 3.21 2.753 6.085.577 3.574.146 7.06-1.055 8.908zM357.51 298.5c-42.143 6.276-94.334 14.028-124.762 18.466 1.103-2.707 1.107-6.345.665-9.025-.4-2.5-1.203-4.54-2.23-5.97l124.707-17.98c.926 3.943 1.745 8.373 1.62 14.51zm8.67-7.612c-.314-3.07-.85-5.713-1.43-8.174l8.164-1.18-6.735 9.354zm7.113 5.258l5.478-7.726c.22 2.07.35 4.31.3 6.862-1.89.283-3.81.563-5.773.864zm14.635-2.19a54.51 54.51 0 0 0-.298-6.82l6.278 5.93c-1.935.287-3.934.594-5.98.89zm11.032-8.85c-.93-.86-4.737-4.37-6.876-6.343l12.4-1.786c-1.717 2.51-4.802 7.067-5.524 8.13zm12.84 5.286c-2.124.324-4.516.67-7.128 1.064l6.69-8.914c.312 2.224.5 4.79.437 7.85zm71.773-20.59c.896.896 1.37 1.974 1.37 3.138 0 .37-.048.755-.142 1.134-.844 3.304-5.08 6.232-11.28 7.948-.534-.724-1.04-1.724-1.463-2.754a13.67 13.67 0 0 1-.47-1.307c0-.042-.048-.06-.062-.1a28.742 28.742 0 0 1-.834-2.65 24.327 24.327 0 0 1-.536-3.084 31.022 31.022 0 0 1-.077-2.267s-.033-.275-.094-.63v-.55c0-.08-.033-.15-.047-.22 6.94-2.008 11.595-.684 13.64 1.346zm-15.137 3.666c.078.606.188 1.213.346 1.85 0 .014.016.03.016.045v.04a.102.102 0 0 1 .017.062c.14.608.313 1.23.503 1.858a8.876 8.876 0 0 1-3.304-.686c.8-1.02 1.602-2.074 2.422-3.17zm-2.33-8.68c-1.92 2.716-4.186 5.636-6.846 8.478-2.092-1.126-5.523-3.794-7.79-5.965.77-.11 1.543-.224 2.314-.342l12.322-2.165zm-3.337 19.153a28.24 28.24 0 0 1-3.057-.12c.268-.278.552-.537.834-.81.71.37 1.447.684 2.22.935zm-28.047-7.313c-.172-1.77-.58-3.36-1.18-4.58-.14-.29-.33-.52-.502-.8 2.644-.868 5.43-1.582 8.293-2.18 3.635 3.69 8.844 7.803 11.913 9.866a54.684 54.684 0 0 1-2.786 2.117l-2.36-.81c-3.825-1.34-8.97-3.094-13.377-3.614zm5.775 9.774a46.36 46.36 0 0 1-8.954 2.5c.99-1.636 1.716-3.226 2.22-4.78 1.652.25 3.256.87 4.8 1.515.63.275 1.273.526 1.934.764zm-11.377-26.314c.065-2.707.11-5.264 1.15-6.57l.725-.895c1.636-1.983 2.5-3.266 2.5-8.39 0-9.654.726-10.56 2.174-12.36l.426-.55 1.84-1.953c1.51-1.496 3.24-3.188 3.964-6.138l.537-4.165c.204-2.32.564-4.705 1.777-7.066.346.314.63.612.692.754.032.055.928 2.18.928 2.18.93 2.343 1.794 4.555 5.256 8.017 4.486 4.5 4.517 10.19 4.55 14.76.017 1.898.033 3.535.363 4.826.347 1.416 1.37 2.55 2.438 3.76 1.86 2.102 4.128 4.682 4.128 9.962 0 .44 0 .913-.047 1.408v.22l-8.624 1.48c2.157-5.242.63-11.756-1.56-16.075a.903.903 0 0 0-1.257-.392c-.444.235-.616.818-.38 1.283 2.156 4.273 3.633 10.836.93 15.573l-1.544.26c-7.27 1.076-14.73 2.226-21.23 4.366l.268-4.296zm-6.94 28.76c-.407.062-.927.132-1.51.236.08-5.8-.69-9.96-1.7-14.19l4.077-.58c.062.007.11.07.174.07 1.118 0 1.826.45 2.266 1.416 1.306 2.86-.3 9.09-3.305 13.048zm68.077 33.788c-.534 1.157-2.66 1.56-4.94 1.994l-.99.188h-2.39c-1.764-.15-3.937-.313-6.314 1.078l-.96.58c-3.352 2.03-10.306 6.25-13.643 3.385l-.458-.4-.55.26c-3.008 1.51-13.785 6.15-25.778 2.84l-.313-.08-.3.133c-5.583 2.5-9.66 2.96-11.815 1.307-1.72-1.33-2.33-4.024-1.844-8.028.208-1.754.867-3.344 2.426-5.877l.77-2.087-.31-.173c-4.39-6.782-2.315-13.022-.3-19.058 13.03-.59 22.156-3.45 29.695-8.59 7.76 1.956 17.86 1.65 24.55-.726 1.4 1.74 2.012 3.28 2.58 4.87l1.51 3.51 2.425 3.59c1.59 2.18 3.244 4.425 3.81 7.005.173.843.234 1.575.234 2.253 0 .564-.046 1.1-.08 1.58-.046.457-.08.912-.08 1.362 0 1.32.3 2.66 1.81 4.2.914 1.68 1.403 3.067 1.403 4.06a2.24 2.24 0 0 1-.15.822z" fill="#13274F"/><path d="M441.15 244.786a.974.974 0 0 1-.472 1.274c-1.89.92-3.494 3.163-3.965 5.588-.458 2.344.142 4.617 1.698 6.412a.98.98 0 0 1-.06 1.352.904.904 0 0 1-1.303-.086c-1.966-2.242-2.72-5.106-2.157-8.065.597-3.02 2.565-5.74 5.004-6.93a.956.956 0 0 1 1.26.46m29.598 47.693a.96.96 0 0 1 .883 1c-.064 1.196 1.43 2.4 3.163 3.806 3.036 2.47 7.205 5.853 5.46 12.085a.938.938 0 0 1-1.15.655c-.503-.15-.77-.685-.63-1.19 1.4-4.98-1.762-7.56-4.83-10.04-2.046-1.667-3.98-3.24-3.873-5.428.033-.52.458-.92.978-.888m9.69 20.866c-.28 1.258-.69 1.543-1.02 1.637l-1.92-.03-2.093-.113c-1.307.15-2.612.718-3.62 1.534l-3.242 2.59-.754.316c-1.37.313-2.722.212-4.124-.324-.487-.182-1.006.064-1.195.56a.97.97 0 0 0 .566 1.226c1.75.678 3.43.804 5.164.4l1.462-.65 3.272-2.612a5.378 5.378 0 0 1 2.676-1.144l1.62.105 2.722-.023c1.733-.52 2.156-2.416 2.298-3.036.11-.51-.205-1.022-.692-1.14a.934.934 0 0 0-1.116.707zm-26.373-17.16c2.032 3.264 2.173 7.48.426 11.556-.38.858.016 1.754 1.368 3.202 0 0 .474.434.394.857-.078.42-.11.774-.534.813-.3.024-.79.06-1.2-.346-.88-.953-2.752-2.936-1.746-5.297 1.526-3.487 1.414-7.052-.268-9.765a.98.98 0 0 1 .268-1.33c.458-.282 1.025-.147 1.29.31m-19.304 2.96c1.794 1.825 1.196 4.532-.346 6.27l-2.28 1.967c-2.063 1.526-3.29 2.566-2.74 4.485.14.52-.142 1.04-.63 1.187a.92.92 0 0 1-1.15-.65c-.944-3.324 1.48-5.126 3.414-6.575l2.03-1.712c.52-.59 1.605-2.386.392-3.613a.96.96 0 0 1 0-1.34.89.89 0 0 1 1.31-.02m-4.454 22.055c.818 2.22 3.1 3.51 5.176 2.935l2.645-1.196 2.77-1.267c1.1-.347 2.09-.016 2.977.285.708.235 1.305.44 1.808.266l.772-.244-.033.033c.03-.033 1.27-.487 1.603-.174.882.833-.41 1.43-.033 1.18l-1.462.936-.22.06c-1.1.41-2.124.06-3.02-.245-.71-.236-1.324-.44-1.858-.277l-2.44 1.135s-3.02 1.352-3.036 1.352c-2.99.825-6.23-.976-7.38-4.1a.95.95 0 0 1 .535-1.236.912.912 0 0 1 1.196.55m16.9-97.4c.472.22.677.79.472 1.266-.885 2.055-.807 4.847.185 7.288.772 1.872 1.952 3.227 3.274 3.738.473.18.725.73.537 1.228a.917.917 0 0 1-1.18.567c-1.826-.707-3.366-2.408-4.342-4.783-1.18-2.92-1.244-6.287-.158-8.798.203-.497.737-.718 1.21-.505" fill="#13274F"/><path d="M452.384 261.556c.03 0 .045 0 .062-.008a8365.07 8365.07 0 0 0 10.497-1.794c.033.06.078.133.11.196.44 1.015 1.134 2.054 1.905 3.133-2.297.384-11.44 1.974-11.44 1.974-2.187.323-4.376.67-6.58 1.023-3.18.512-4.893.827-5.52 1.04-3.322.693-6.58 1.48-9.617 2.54-1-1.006-2.2-1.636-3.534-1.847.11-.434.205-.868.3-1.33 6.527-2.28 14.272-3.454 21.793-4.58 0 0 .815-.136 2.03-.347m22.986 26.194c-5.916 1.887-14.083 2.203-20.992.81.19-.142.41-.324.6-.482.268-.212.536-.407.804-.622.818-.66 1.636-1.352 2.297-1.99 3.65.787 11 .235 14.635-1.07a28.13 28.13 0 0 0 2.66 3.353m-67.226-11.3c.644-.08 1.384-.168 1.918-.23.128.566.44 1.906.68 2.855.06.293.11.614.187.913-.66.86-8.468 11.276-8.89 11.843-.617.095-5.1.756-5.81.85-.58-.542-8.42-7.963-9.034-8.54a82.86 82.86 0 0 0-.912-4.48 333.28 333.28 0 0 1 3.416-.51l8.81 8.104c.176.18.444.26.71.235a.964.964 0 0 0 .66-.41s6.737-9.906 7.116-10.456m-22.615 3.258l.898 4.22a49.11 49.11 0 0 1 .804 8.913v1.18c-1.022.156-3.822.59-5.16.803 0-.307.016-.64.016-.94 0-3.05-.252-5.654-.642-8.07-.033-.383-.142-1.03-.285-1.752a62.46 62.46 0 0 1-.3-1.505c-.172-.77-.33-1.51-.47-2.1.457-.07 1.1-.164 1.795-.266m-23.31 3.402c1.274-.19 4.044-.59 5.145-.755.834 3.51 1.59 7.374 1.683 12.38v2.056c-1.025.14-3.875.535-5.194.715 0-.336.014-.673.014-.99 0-5.563-.788-9.694-1.653-13.4m8.688 13.4a43.77 43.77 0 0 0-.015-2.496v-.905c.346-.473 8.623-11.97 9.063-12.59.426-.055 1.164-.14 1.92-.237.22 1.04.834 4.076.977 4.794-.487.717-7.193 10.175-7.617 10.765-.347.055-1.528.243-2.69.433-.536.076-1.072.156-1.64.234m47.242-7.053c0-.29.016-.59.016-.873 0-3.62-.348-6.517-.818-9.017a.693.693 0 0 0 0-.26c-.41-2.02-.694-3.218-.896-3.998 1.272-.19 4.057-.59 5.157-.747.945 3.934 1.732 7.774 1.732 13 0 .362-.016.738-.033 1.125-1.432.217-3.146.47-5.16.767m48.91-9.307c.11-.127.217-.26.344-.39.695-.788 1.56-1.795 1.97-2.253a10.827 10.827 0 0 0 5.08 1.055c.22.555.47 1.11.725 1.678.205.448.426.874.66 1.29.034.062.08.134.112.206.032.04.047.094.063.133-2.783.493-6.355.415-9.534-1.058.08-.094.297-.346.582-.66m-19.28 4.372c-1.31-.212-2.627-.73-4.03-1.32-1.557-.654-3.194-1.223-4.94-1.522.3-1.32.44-2.57.457-3.774 4.17.543 9.05 2.202 12.714 3.485 0 0 .537.174.977.323a50.52 50.52 0 0 1-5.082 2.785.222.222 0 0 1-.096.025m11.47-7.547c-2.583-1.667-7.43-5.452-11.157-9.032.976-.18 1.95-.346 2.927-.512.804-.133 1.684-.268 2.707-.415 1.968 2.134 5.87 5.32 8.642 6.95l-2.568 2.517s-.207.182-.41.384c-.048.034-.093.073-.142.11m-27.08-7.93c1.304.14 2.485.757 3.38 1.874l.048.06c.283.373.55.79.788 1.26.66 1.362 1.04 3.1 1.055 5.06v.16c0 .762-.08 1.547-.206 2.374 0 .102-.032.205-.047.3-.47 2.658-1.603 5.562-3.603 8.424-.39.048-.802.12-1.21.16-.065 0-.128.007-.206.007-.99.093-2.014.126-3.05.156v-1.062l-.034.01c1.856-3.006 3.21-6.854 3.21-10.12 0-1.256-.19-2.422-.63-3.39-.38-.802-.912-1.41-1.56-1.84.855-.887 1.53-2.006 2.068-3.43" fill="#EAAA00"/><path d="M423.776 294.76a22.44 22.44 0 0 0 .71-3.226v-.053c1.305-.03 3.807-.122 5.366-.42.045 0 .077-.06.126-.078 5.068-.66 9.597-2.016 13.642-3.865 1.275-.37 5.32-2.6 7.523-4.25 0 0 0-.008.016-.022a53.445 53.445 0 0 0 4.15-3.21c.06-.04.14-.04.19-.087l1.04-.968.076-.094c4.312-3.872 7.76-8.105 10.56-12 .3.457.597.96.77 1.495.095.276.173.55.173.804v1.934l-.077.127c-11.66 16.14-22 24.637-44.8 25.866.185-.61.373-1.26.53-1.946m-194.94 7.47c1.237.938 2.286 3.164 2.76 6.02.17 1.078.255 2.164.255 3.18 0 2.446-.526 4.556-1.41 5.845-.618.1-3.494.54-5.346.815a14.45 14.45 0 0 0 1.126-5.524c0-1.202-.11-2.383-.28-3.422-.425-2.67-1.38-4.605-2.53-6.05 1.814-.28 4.79-.76 5.425-.866" fill="#EAAA00"/></g></svg>