<svg width="512" height="512" viewBox="0 0 512 512" xmlns="http://www.w3.org/2000/svg"><title>atlanta-braves</title><g fill="none" fill-rule="evenodd"><path d="M498.886 311.585c.017-.354.045-.598.045-1 0-1.32-.11-2.95-.51-4.815-1.1-5.14-3.85-8.902-5.88-11.646l-1.59-2.314c0 .017-.71-1.747-.71-1.747-.28-.763-.61-1.667-1.04-2.66 4.35-3.588 6.11-7.562 6.82-10.262 1.48-5.77-.152-11.74-4.4-15.95-4.22-4.18-10.465-6.08-17.517-5.58-.22-9.16-4.454-14.35-6.83-17.05-.016-.45-.016-.92-.016-.92-.045-5.35-.125-15.26-8.07-23.25-1.714-1.72-1.933-2.25-2.61-3.97 0 0-.818-1.92-1.04-2.46-.44-1.07-1.62-3.57-5.413-6.4l-8.984-6.696-6.12 9.53c-3.385 5.228-3.81 10.31-4.095 13.678 0 0-.14 1.33-.214 1.88-.265.29-.735.77-.735.77l-2.896 3.165-.317.396c-4.122 5.154-4.813 9.51-4.813 19.97 0 0-.016.51-.047 1.008-.284.347-.644.806-.644.806-3.46 4.47-3.59 9.85-3.68 13.76 0 0-.175 3.2-.175 3.25-10.022 1.45-208.06 30.004-212.494 30.64-12.7 1.7-18.564 11.74-17.632 20.33 1.61 14.8 12.05 19.215 21.3 18.42 5.86-.504 149.756-21.968 200.85-29.6-.41 2.03-.71 4.16-.71 6.45 0 2.8.473 5.79 1.53 8.852-.805 1.867-1.466 3.905-1.75 6.257-.17 1.388-.25 2.677-.25 3.896 0 8.207 3.51 12.764 6.673 15.205 5.02 3.88 11.757 4.18 19.86 1.313 8.42 1.56 17.658.7 26.01-2.486 7.838 1.49 15.816-3.14 19.78-5.54 0 0 .097-.066.11-.07.17.004.38.004.38.004l5.48-.158.895-.182c3.62-.672 10.34-1.93 13.375-8.75.896-1.98 1.227-3.94 1.227-5.79-.002-4.704-2.203-8.64-3.116-10.25" fill="#0F437C"/><path d="M494.856 313.944l-.33-.598s-.173-.204-.345-.37c.02-.086.02-.205.02-.205.05-.59.1-1.33.1-2.18 0-1.06-.08-2.33-.39-3.78-.89-4.11-3.21-7.26-5.05-9.79l-1.92-2.81-1.04-2.452c-.56-1.577-1.3-3.6-2.88-5.826 5.84-3.305 7.84-7.41 8.52-9.993 1.06-4.09-.11-8.31-3.13-11.296-3.742-3.706-9.71-5.052-16.49-3.943-.312-.427-.6-.844-.91-1.25 0 0-1.23-1.83-1.494-2.246.016-.325.03-.654.03-.97 0-8.02-3.68-12.18-5.93-14.75l-.88-1.05c-.017-.625-.11-2.757-.11-2.757-.033-4.965-.097-13.266-6.66-19.852-2.422-2.42-2.895-3.616-3.664-5.59l-1.07-2.54c-.266-.546-.894-1.9-3.62-4.12l-5.13-4.153-3.603 5.6c-2.72 4.228-3.067 8.4-3.32 11.45l-.39 3.04c-.206.85-.646 1.347-2 2.67l-2.47 2.677-.364.464c-2.91 3.635-3.746 6.295-3.746 16.924 0 2.33-.235 2.91-.235 2.95l-.63.79-.85 1.06c-2.504 3.215-2.58 7.29-2.675 10.89l-.22 3.89c-.25 1.74-.58 2.81-.94 3.55-4.518.65-213.58 30.805-215.54 31.08-10.944 1.47-14.167 10-13.616 15.05 1.51 13.938 11.91 14.558 16.314 14.19 5.98-.52 167.46-24.62 207.62-30.634-1.163 3.522-2.484 7.64-2.484 12.22 0 2.94.53 6.033 1.996 9.245-1.087 2.05-1.952 4.09-2.237 6.486-.14 1.154-.205 2.24-.205 3.24 0 6.294 2.5 9.662 4.8 11.425 5.554 4.29 13.044 1.916 17.01.27 8.135 1.726 17.134.654 25.256-2.626 6.578 2.41 14.258-2.21 18.25-4.65l.916-.534c.426-.26.77-.276 2.298-.15l4.234-.11.96-.18c3.355-.63 7.966-1.504 9.98-6.044.58-1.264.82-2.55.82-3.79 0-2.99-1.34-5.81-2.52-7.89" fill="#CD1141"/><path d="M412.413 209.983c-1.557-3.895-6.01-15.06.867-24.63 2.627-3.193 1.416-6.648.976-7.616-.44-.968-2.25-4.147-6.798-4.068h-.252l-.268.02c-13.99 1.38-21.73 17.75-29.93 35.06-.85 1.77-1.872 3.66-2.848 5.53-.38-.07-.74-.22-1.12-.26-1.35-.15-2.626.01-3.917.15-.045-.23-.033-.44-.094-.67-.3-.83-.96-1.46-1.55-2.13 1.13-.29 2.55-.66 2.55-.66 3.84-1.01 5.24-4.99 5.66-6.67.28-1.13.42-2.26.42-3.39 0-2.558-.728-5.036-2.16-7.21-2.266-3.43-6.01-5.73-10.275-6.29-8.2-1.086-17.107 5.777-20.758 15.186-2.945 3.344-6.315 5.73-9.588 7.356-.833-6.694-4.99-11.525-11.095-12.61-6.64-1.19-13.436 2.463-16.19 8.654-.11.247-.156.53-.267.79-1.335-2.295-3.13-4.2-5.538-5.16-17.61-7.05-31.018 14.244-42.838 33.018-4.727 7.49-9.17 14.564-13.45 19.395-.36.4-.53.49-.82.757.11-1.24.4-2.75 1.26-4.608.09-.22 16.155-38.33 16.155-38.33l-22.197 2.22s-.246.644-.41 1.094c-2.02-1.023-4.218-1.866-6.78-2.196-19.8-2.517-32 15.086-36.83 32.395-.286.904-2 4.35-3.598 7.19-6.43 11.434-11.94 14.62-14.1 14.818-.17-.613-.33-1.212-.33-2.186 0-6.07 2.983-18.418 6.3-26.608.515-1.42.715-2.68.715-3.76 0-2.907-1.45-4.64-2.246-5.37-1.702-1.59-4.73-2.67-8.094-.93-3.76 2.25-7.52 3.564-11.04 4.415.04-.556.195-1.18.195-1.704 0-1.546-.195-2.94-.643-4.14-2.11-5.676-6.336-9.406-11.584-10.246-5.29-.844-10.7 1.414-14.15 5.89-2.26 2.928-3.414 6.42-3.414 10.12 0 2.313.45 4.705 1.364 7.08.88 2.235 2.41 4.344 4.233 6.31-2.03 4.164-4.34 8.65-6.643 12.702-6.744 11.89-12.963 20.41-21.457 29.38-.357.37-.617.73-.885 1.092.23-.616.47-1.23.68-1.866 1.79-5.374 2.65-10.802 2.65-16.146 0-11.19-3.97-21.828-11.177-30.587 11.1-8.79 17.87-21.535 17.87-34.89 0-2.63-.317-5.27-.837-7.9 1.627-.534 3.25-1.07 5.007-1.604 6.18-1.59 5.677-7.143 5.6-7.765-.085-.63-.963-6.103-7.54-6.01-3.26.048-6.42.26-9.515.576-6.53-8.834-17.84-15.77-35-15.71-18.395.4-29.375 10.184-35.36 18.32-8.192 11.133-10.746 23.99-9.023 30.924l.91 3.66 3.733 1.35c2.283.715 4.724.16 6.524-1.49 5.437-4.427 8.74-5.62 9.525-5.7l.802-.08c-9.302 12.59-14.96 28.28-20.4 43.5-5.7 15.93-11.09 30.99-19.733 39.034L11 299.31l.658 3.677c.724 4.147 1.26 13.006.873 21.94-.04 3.123 1.35 5.64 3.71 6.908 2.36 1.274 5.13 1.006 7.4-.67 14.62-10.948 24.49-40.814 33.19-67.168 3.61-10.896 7.07-21.31 10.27-28.484-.41 1.904-.43 3.91.02 5.88 2.048 7.764 8.547 11.84 16.21 10.322l1.57-.718c2.35 3.587 3.628 8.804 3.628 14.533 0 4.464-.76 9.225-2.334 13.7-2.047 5.8-8.483 19.24-24.14 18.9-3.396-.094-6.913-1.59-7.602-1.95-4-2.344-7.63-.62-9.27 1.98-1.686 2.71-1.54 6.84 1.997 9.5-.365-.29.21.22.21.22 3.41 3.08 11.41 10.29 27.28 9.67 13.29-.57 25.718-9.96 32.496-23.996-.02.19-.07.384-.07.558 0 2.07.98 3.598 1.46 4.22 1.75 2.28 5.42 3.943 9.998 1.093 2.57-1.595 6.01-3.862 9.72-7.28 6.3-5.78 12.5-13.754 19.527-25.07.33-.526 3.906-6.333 7.4-13.602.765.008 1.565-.033 2.35-.08-1.75 5.132-3.58 11.362-3.58 17.248 0 6.58 2.297 12.64 9.57 15.93 8.177 3.71 21.48.61 34.087-12.91 2.96 3.92 7.044 6.47 12.18 6.98 5.08.17 10.5-2.32 14.606-5.224 3.03 2.18 7.178 4.255 12.718 3.665 8.11-.832 16.167-7.13 24.66-19.207l4.99-7.643c4.987-7.845 12.463-19.507 18.3-25.637-.424 1.156-.913 2.416-1.873 4.03-4.896 8.25-9.553 16.814-9.553 24.186 0 1.723.253 3.392.834 4.972 1.29 3.61 4.124 6.31 7.948 7.576 15.66 5.216 32.197-8.23 44.85-35.84 1.588-.46 3.164-.987 4.72-1.64-1.81 3.886-2.972 7.577-2.972 10.787 0 5.47 2.236 9.852 5.27 12.802 7.82 7.534 21.527 7.12 31.71-.257 4.376 2.476 9.504 3.996 14.95 4.082 11.787.19 22.17-5.2 28.48-14.76 6.25-9.45 7.37-21.63 3.01-32.57zm-353.38-2.73c-.09-1.52-.285-9.363 4.39-14.274 3.007-3.14 7.706-4.59 13.964-4.32 1.467.06 3.806.54 6.287 1.6-9.44 4.23-17.676 10.23-24.595 17.77l-.05-.796zm11.56 21.678c.084-.11.158-.26.235-.37l1.287-1.78c4.108-5.72 8.922-12.37 22.893-19.58-.047 3.54-.933 11.24-6.984 18.73l-.078.1c-.21.27-.493.5-.77.75-5.4-2.69-11.125-2.39-15.388 1.04-.424.35-.816.73-1.195 1.12zm324.65-9.76c-.518 11.01-6.985 14.68-12.95 15.89 4.06-6.2 7.524-12.66 10.592-18.41.63-1.14 1.26-2.3 1.89-3.46.218 1.34.535 2.61.535 4.15 0 .59-.017 1.21-.066 1.848zm-40.69 20.69c-1.465.52-2.85.74-3.556.12-.473-.4-.677-1.04-.677-1.87 0-1.14.425-2.62 1.258-4.21.597-1.17 1.494-2.304 2.516-3.374-.157 1-.63 2.014-.63 3.023 0 2.146.426 4.253 1.09 6.324zm9.048-31.07l.62.67c-1.4-.38-2.85-.65-4.7-.01l.13-.02c-.08.01-.17-.04-.26-.07-.02-.07-.05-.15-.05-.23 0-1.47.82-2.98 1.796-3.8.36-.29.583-.414.865-.59.186 2 1.07 3.448 1.62 4.06zm-58.84 17.99c.49-1.08.68-1.92 1.03-2.92.18.35.24.76.41 1.07.81 1.46 2.03 2.43 3.16 3.5-4.91 8.9-9.61 14.65-12.52 16.51 1.01-3.67 3.83-9.58 5.57-13.2l2.36-4.95zm-88.55 31.97c-.25.11-.48.217-1.16-.082-.34-.16-1.34-2.653-.28-7.997 2.05-10.212 8.67-18.505 11.91-18.505.41 0 .47.105.52.17.23.348.44 1.11.44 2.34 0 1.73-.43 4.39-1.846 8.07-5.064 13.22-8.6 15.6-9.565 16.008z" fill="#0F437C"/><path d="M406.388 212.533c-1.59-3.965-7.586-18.35 1.653-31.185.52-.645.49-.976-.47-.96-10.18 1.01-16.77 14.558-24.7 31.326-1.68 3.51-3.62 7.206-5.68 10.867-2.81-2.38-12.07-4.25-15.94 5.01-2.25 5.38-1.27 10.5 1.73 14.57-.78.78-1.59 1.53-2.37 2.18-9.41 7.59-21.71-.303-14.76-13.632 3.42-6.54 11.84-11.67 15.06-12.96 1.56-.604 3.24-2.79.69-1.912-3.08 1.08-7.47-.63-8.37-3.835-1.32-4.603.76-9.356 3.81-11.905 7.74-6.437 12.24-.205 11.44 3.5-.44 1.363.54.354.93-1.203 1.12-4.42-2.25-7.96-6.514-8.53-5.68-.735-12.665 5.315-14.665 12.63-6.576 7.707-15.686 11.94-22.91 12.69 1.164-3.46 1.874-6.516 1.717-8.14-.834-9.806-12.084-9.067-15.012-2.448-2.88 6.435-1.983 16.09 6.153 17.28-6.106 12.62-16.41 28.49-24.204 26.736-9.27-2.116-.567-16.845 4.924-28.712 4.373-9.43 2.55-14.805-.978-16.215-18.224-7.29-33.914 33.51-49.114 50.68-9.71 10.953-15.6.24-10.245-11.285l11.636-27.625-7.21.72-2.33 6.007c-.94-2.4-4.65-6.01-10.256-6.725-15.77-2.004-25.725 13.08-29.766 27.57-.552 1.97-3.39 7.197-4.22 8.707-8.274 14.72-17.234 20.45-23.282 17.53-7.832-3.79.584-30.275 3.5-37.47.517-1.45.226-1.92-.704-1.45-6.82 4.1-15.49 6.48-22.35 6.14 1.744-4.82 2.67-9.015 1.86-11.18-4.478-12.077-20.46-4.52-15.63 7.94 1.03 2.7 3.194 5.27 6.252 7.08-2.7 5.846-6.137 12.606-9.1 17.83-7.796 13.73-14.513 22.333-22.42 30.68-1.974 2.087-.255 1.433.657.876 2.74-1.716 5.637-3.7 8.74-6.54 5.964-5.492 11.93-13.298 18.366-23.675 2.486-3.994 6.07-10.67 8.918-17.17 2.607.596 5.56.75 8.88.15 1.86-.33 5.348-1.89 6.75-2.52.385-.18.5.31.5.31-.705 6.73-14.324 30.25-1.19 36.208 7.337 3.32 21.19-1.61 33.294-19.38.87 7.04 4.322 12.26 10.94 12.89 4.91.166 11.86-4.32 13.964-7.2 3.954 3.605 13.81 15.27 32.13-10.81 4.394-6.266 15.715-25.764 24.42-34.615 9.142-9.287 16.082-1.05 7.835 12.815-5.98 10.094-13.44 23.81-4.33 26.84 15.03 4.986 29.586-14.98 38.317-35.21 9.883-1.53 21.75-10.626 24.99-13.96.235 2.32 1.51 5.5 3.635 6.54-4.17 3.135-8.598 6.503-11.08 9.74-15.11 21.45 8.95 31.35 23.6 18.763.643-.54 1.242-1.152 1.872-1.743 3.84 3.295 9.27 5.39 15.298 5.48 20.32.33 32.75-19.476 25.356-38.053zm-263.074 23.22c-4.705-7.734 7.71-12.495 7.455-3.84-.04 1.118-1.04 3.928-2.58 7.54-2.12-.773-3.83-1.976-4.88-3.7zm88.526 9.442c-5.528 14.432-11.674 23.04-19.372 19.608-11.88-5.278.916-39.383 14.198-39.374 5.812 0 10.43 6.05 5.174 19.76zm88.88-37.07c3.006 1.15 3.006 4.4.36 11.08-1.15-.133-2.217-.362-3.146-.747-5.1-2.08-2.048-12.165 2.785-10.332zm43.305 20.665c3.367-6.885 8.324-3.36 9.804-.653-2.38 3.753-4.87 7.302-7.43 10.324-2.95-2.51-4.17-5.98-2.38-9.67zm37.72-9.105c-.79 17.195-13.504 21.56-20.238 22.435-4.31.552-8.34-.072-11.535-1.463 12.95-15.194 20.96-37.777 27.35-43.215-.425 4.272 5.287 10.714 4.422 22.243z" fill="#CD1141"/><path d="M110.147 193.49c3.447-1.235 7.097-2.477 11.168-3.737.93-.235 1.65-.622 0-.598-3.768.056-8.11.315-12.753.96-5.23-9.387-15.78-16.147-31.827-16.092-30.29.653-40.387 31.553-38.08 40.838.04.16.275.38.514.16 5.65-4.6 10.39-7.13 13.36-7.37-.47-8.17 2.36-26.72 25.14-25.7 5.11.24 13.83 3.06 19.24 10.59-12.63 3.54-26.13 10.59-36.95 24.49-19.48 25.05-23.05 67.25-41.9 84.78.88 5.08 1.36 14.59.97 23.44-.02.95.492.69.78.48 21.26-15.944 33.6-84.574 45.8-101.216 5.484-7.493 11.005-16.894 34.05-26.89.807 2 1.418 4.196 1.74 6.673.57 4.56-.234 15.86-8.39 25.95-1.86 2.4-5.076 4.39-6.01 4.22-1.194-.977-1.046-.67-2.374-1.582-7.06-3.77-12.39 1.79-11.197 6.987.915 3.495 3.762 6.224 8.64 5.27 1.493-.296 4.003-2.54 4.49-2.14 16.9 13.985 8.37 62.606-24.684 61.884-5.01-.136-9.79-2.29-10.617-2.78-.804-.49-.82-.245-.296.15 2.68 2.33 9.07 9.163 23.422 8.61 26.765-1.16 45.92-45.87 16.82-71.23 18.607-10.057 25.13-30.67 18.918-46.125" fill="#CD1141"/><path d="M490.45 316.597c-1.543-1.645-1.48-2.582-1.34-4.257.08-1.142.208-2.558-.203-4.405-.63-2.992-2.425-5.408-4.14-7.753l-2.264-3.36-1.385-3.242c-.738-2.02-1.493-4.123-3.918-6.608l-.583-.653-2.043-2.58c6.624-1.96 11.014-5.26 12.02-9.18.584-2.25-.06-4.48-1.746-6.15-2.408-2.4-7.713-4.05-15.422-1.81-.016-.04-.047-.07-.047-.1-.62-1.3-1.53-2.62-2.47-3.91-.1-.14-.21-.3-.3-.44-.54-.78-1.26-1.88-1.76-2.74-.29-.61-.51-1.17-.47-1.61.48-7.05-2.43-10.37-4.57-12.8-.95-1.07-1.76-2-2.02-2.96-.29-1.06-.29-2.58-.3-4.35-.03-4.67-.08-11.07-5.12-16.11-3.165-3.19-3.95-5.14-4.83-7.39l-.947-2.23c-.33-.82-1.65-1.88-2.2-2.29l-.79-.58-.533.825c-1.983 3.09-2.25 6.223-2.487 8.96l-.506 3.87c-.58 2.41-1.967 3.77-3.448 5.21l-2 2.157-.41.52c-1.84 2.312-2.58 3.642-2.58 13.58 0 4.65-.76 5.54-2.08 7.152l-.756.935c-1.42 1.816-1.5 4.686-1.56 7.716l-.287 4.55c-.078.59-.174 1.138-.27 1.64l-.536 2.124c-.013.02-.013.02-.013.028v.024c-.596 1.88-1.35 2.94-2.217 3.705-.09.07-.19.14-.264.18-.58.085-6.404.92-15.83 2.28l-1.573.204c-.034 0-.034.036-.05.036-5.93.85-13.14 1.9-21.21 3.06-.015 0-.015-.005-.015-.005l-4.25.62c-45.477 6.56-115.52 16.65-151.51 21.836-.078 0-.14-.047-.22-.04l-4.64.746c-11.34 1.64-18.257 2.63-18.257 2.63-7.33.985-9.533 6.2-9.206 9.26.278 2.56 1.12 10.36 10.814 9.52 1.02-.08 6.806-.89 15.834-2.192.05 0 .085.025.136.025l4.81-.745c31.27-4.534 91.326-13.465 136.68-20.225l.424-.04 2.438-.384c18.6-2.78 34.51-5.15 44.566-6.65.076.016.156.03.22.016l7.033-1.09c.015 0 .015-.014.032-.022 1.1-.166 2.03-.293 2.705-.4-.22 2.296-.925 4.73-1.793 7.323-1.18 3.47-2.423 7.216-2.423 11.166 0 2.93.77 5.98 2.69 9.153-.095.196-.253.622-.253.622-1.73 2.8-2.47 4.6-2.72 6.67-.11.936-.155 1.82-.155 2.644 0 3.33.928 5.747 2.753 7.147 2.69 2.08 7.205 1.735 13.373-.97 8.294 2.2 18.02 1.115 26.265-2.866 4.406 3.03 11.41-1.154 15.25-3.485l.943-.565c1.886-1.12 3.586-.97 5.24-.847l2.894-.027.98-.186c2.77-.52 5.368-.997 6.297-3.084.71-1.594.234-3.767-1.497-6.828zm-267.395 1.778c-8.85 1.275-14.493 2.06-15.48 2.148-6.99.598-8.39-3.864-8.82-7.83-.015-.118-.015-.243-.015-.378 0-1.897 1.303-5.93 7.617-6.768l15-2.165c1.24.937 2.29 3.21 2.753 6.085.577 3.574.146 7.06-1.055 8.908zM357.51 298.5c-42.143 6.276-94.334 14.028-124.762 18.466 1.103-2.707 1.107-6.345.665-9.025-.4-2.5-1.203-4.54-2.23-5.97l124.707-17.98c.926 3.95 1.745 8.38 1.62 14.51zm8.67-7.612c-.314-3.07-.85-5.713-1.43-8.174l8.164-1.18-6.735 9.354zm7.113 5.258l5.478-7.726c.22 2.07.35 4.31.3 6.862-1.89.283-3.81.563-5.77.864zm14.635-2.19c.045-2.532-.08-4.767-.298-6.82l6.278 5.93c-1.935.287-3.934.594-5.98.89zm11.032-8.85c-.93-.86-4.737-4.37-6.876-6.343l12.4-1.786c-1.717 2.51-4.802 7.067-5.524 8.13zm12.84 5.286c-2.124.324-4.516.67-7.128 1.064l6.69-8.914c.312 2.224.5 4.79.437 7.85zm71.773-20.59c.896.896 1.37 1.974 1.37 3.138 0 .37-.048.755-.142 1.134-.84 3.304-5.08 6.232-11.28 7.948-.53-.724-1.04-1.724-1.46-2.754-.19-.45-.34-.896-.47-1.307 0-.04-.05-.06-.06-.1-.39-1.07-.67-2.04-.83-2.65-.27-1.12-.44-2.16-.53-3.08-.06-.83-.076-1.61-.076-2.26 0 0-.033-.27-.094-.63v-.55c0-.08-.034-.15-.048-.22 6.94-2.002 11.596-.68 13.64 1.35zm-15.137 3.666c.078.606.188 1.213.346 1.85 0 .014.016.03.016.045v.04c.017.025.017.048.017.062.14.608.313 1.23.503 1.858-1.197-.025-2.298-.26-3.304-.686.8-1.02 1.602-2.074 2.422-3.17zm-2.33-8.68c-1.92 2.716-4.186 5.636-6.846 8.478-2.092-1.126-5.523-3.794-7.79-5.965.77-.11 1.543-.22 2.314-.34l12.322-2.16zm-3.337 19.153c-1.11.01-2.14-.03-3.06-.12.27-.27.55-.53.83-.81.71.37 1.44.69 2.22.94zm-28.05-7.31c-.17-1.77-.58-3.36-1.18-4.58-.14-.29-.33-.52-.5-.8 2.64-.87 5.43-1.58 8.29-2.18 3.63 3.69 8.84 7.81 11.91 9.87-.9.73-1.83 1.43-2.79 2.12l-2.36-.81c-3.83-1.34-8.97-3.09-13.38-3.61zm5.77 9.78c-2.77 1.08-5.75 1.95-8.96 2.5.99-1.63 1.714-3.22 2.22-4.78 1.65.25 3.254.87 4.8 1.52.63.277 1.27.528 1.932.766zm-11.37-26.32c.06-2.7.11-5.26 1.15-6.57l.72-.89c1.63-1.98 2.5-3.263 2.5-8.39 0-9.65.72-10.56 2.17-12.36l.424-.55 1.84-1.95c1.51-1.49 3.24-3.182 3.964-6.132l.536-4.164c.206-2.32.566-4.705 1.78-7.066.344.314.63.612.69.754.032.056.93 2.18.93 2.18.93 2.344 1.792 4.556 5.254 8.018 4.487 4.5 4.518 10.19 4.55 14.76.018 1.9.034 3.536.364 4.827.347 1.42 1.37 2.55 2.438 3.76 1.86 2.106 4.13 4.686 4.13 9.966 0 .44 0 .914-.047 1.41v.22l-8.623 1.48c2.16-5.24.63-11.756-1.56-16.075-.232-.47-.784-.644-1.255-.39-.444.234-.616.82-.38 1.282 2.156 4.274 3.633 10.837.93 15.574l-1.544.26c-7.27 1.076-14.73 2.226-21.23 4.366l.27-4.295zm-6.94 28.76c-.41.06-.93.13-1.51.24.08-5.8-.69-9.96-1.7-14.19l4.07-.58c.06.01.11.07.17.07 1.12 0 1.827.45 2.267 1.42 1.306 2.86-.3 9.09-3.305 13.05zm68.07 33.79c-.537 1.16-2.66 1.56-4.94 2l-.99.19h-2.39c-1.767-.15-3.94-.31-6.317 1.08l-.96.58c-3.35 2.03-10.306 6.25-13.643 3.387l-.46-.4-.55.26c-3.01 1.51-13.79 6.15-25.78 2.84l-.314-.08-.3.134c-5.584 2.5-9.66 2.96-11.816 1.307-1.72-1.33-2.33-4.022-1.842-8.026.21-1.756.867-3.346 2.426-5.88l.77-2.086-.31-.173c-4.39-6.782-2.313-13.022-.3-19.06 13.03-.59 22.158-3.45 29.697-8.59 7.76 1.958 17.86 1.65 24.55-.724 1.4 1.74 2.015 3.28 2.58 4.87l1.51 3.51 2.428 3.59c1.59 2.18 3.244 4.423 3.81 7.003.173.84.234 1.575.234 2.25 0 .567-.045 1.1-.08 1.58-.045.46-.08.915-.08 1.365 0 1.32.3 2.66 1.81 4.2.915 1.68 1.404 3.065 1.404 4.06-.008.32-.05.585-.15.82z" fill="#0F437C"/><path d="M441.15 244.786c.203.48.015 1.047-.472 1.274-1.89.92-3.494 3.163-3.965 5.588-.458 2.344.142 4.617 1.698 6.412.35.393.32.99-.06 1.352-.37.348-.96.315-1.3-.086-1.96-2.242-2.72-5.106-2.15-8.065.6-3.02 2.57-5.74 5.01-6.93.47-.22 1.024-.01 1.26.46" fill="#0F437C"/><path d="M470.75 292.48c.503.032.896.47.882.998-.064 1.197 1.43 2.4 3.163 3.807 3.036 2.472 7.205 5.854 5.46 12.086-.14.51-.66.79-1.15.66-.503-.15-.77-.68-.63-1.19 1.4-4.98-1.762-7.56-4.83-10.04-2.046-1.66-3.98-3.24-3.873-5.42.033-.52.458-.92.978-.89" fill="#0F437C"/><path d="M480.44 313.346c-.28 1.258-.69 1.543-1.022 1.637l-1.92-.03-2.092-.113c-1.307.15-2.612.718-3.62 1.534l-3.242 2.59-.754.316c-1.37.313-2.723.212-4.125-.324-.487-.182-1.006.064-1.195.56-.173.494.078 1.044.565 1.226 1.747.678 3.43.804 5.162.4l1.462-.65 3.27-2.612c.74-.608 1.73-1.03 2.67-1.144l1.62.105 2.72-.02c1.73-.52 2.15-2.41 2.29-3.03.11-.51-.207-1.02-.69-1.14-.5-.11-1.007.21-1.12.71z" fill="#0F437C"/><path d="M454.066 296.185c2.032 3.265 2.173 7.482.426 11.557-.38.858.016 1.754 1.368 3.202 0 0 .473.434.393.857-.078.42-.11.78-.534.82-.3.03-.79.06-1.2-.34-.88-.95-2.76-2.93-1.75-5.29 1.52-3.487 1.41-7.05-.27-9.765-.29-.44-.16-1.04.27-1.33.46-.282 1.02-.147 1.29.31" fill="#0F437C"/><path d="M434.76 299.145c1.794 1.825 1.196 4.532-.346 6.27l-2.28 1.967c-2.063 1.526-3.29 2.566-2.74 4.485.14.52-.142 1.04-.63 1.187-.504.14-1.007-.14-1.15-.65-.944-3.322 1.48-5.124 3.414-6.573l2.03-1.71c.52-.59 1.605-2.38.392-3.61-.362-.37-.362-.97 0-1.34.364-.39.947-.39 1.31-.02" fill="#0F437C"/><path d="M430.306 321.2c.818 2.22 3.1 3.51 5.176 2.935l2.645-1.195 2.77-1.267c1.1-.347 2.09-.016 2.975.285.708.235 1.305.44 1.808.266l.772-.244-.033.033c.03-.033 1.27-.487 1.6-.174.88.83-.41 1.43-.04 1.18l-1.47.93-.22.06c-1.1.41-2.125.06-3.02-.24-.71-.24-1.325-.44-1.86-.28l-2.44 1.13s-3.02 1.35-3.036 1.35c-2.99.82-6.23-.98-7.38-4.1-.19-.5.045-1.05.534-1.24.49-.183 1.02.053 1.197.55" fill="#0F437C"/><path d="M447.206 223.8c.473.22.678.788.473 1.266-.89 2.055-.81 4.847.18 7.288.77 1.872 1.95 3.227 3.27 3.738.47.18.72.73.53 1.228-.17.495-.71.738-1.18.566-1.83-.707-3.37-2.408-4.34-4.783-1.18-2.92-1.248-6.287-.16-8.798.2-.497.74-.718 1.21-.505" fill="#0F437C"/><path d="M452.384 261.556c.03 0 .045 0 .062-.008 3.337-.567 9.585-1.637 10.497-1.794.033.06.078.133.11.196.44 1.015 1.134 2.054 1.905 3.133-2.297.384-11.44 1.974-11.44 1.974-2.187.323-4.376.67-6.58 1.023-3.18.512-4.893.827-5.52 1.04-3.322.693-6.58 1.48-9.617 2.54-1-1.006-2.2-1.636-3.53-1.847.11-.434.21-.868.3-1.33 6.53-2.28 14.27-3.454 21.8-4.58 0 0 .82-.136 2.03-.347" fill="#EEB210"/><path d="M475.373 287.75c-5.916 1.887-14.083 2.203-20.992.81.19-.142.41-.324.6-.482.27-.212.54-.407.81-.622.82-.66 1.64-1.352 2.3-1.99 3.65.787 11 .235 14.64-1.07.73 1.078 1.58 2.164 2.55 3.234l.11.12" fill="#EEB210"/><path d="M408.15 276.45c.644-.08 1.384-.165 1.918-.228.127.567.44 1.907.678 2.856.06.293.11.614.188.913-.66.86-8.466 11.28-8.89 11.85-.615.1-5.1.76-5.81.85-.58-.54-8.418-7.96-9.032-8.54-.268-1.55-.58-3.03-.912-4.48 1.102-.17 2.864-.43 3.416-.51l8.812 8.11c.174.18.442.26.71.24.268-.033.503-.19.66-.41 0 0 6.735-9.906 7.114-10.456" fill="#EEB210"/><path d="M384.387 279.882l.896 4.22c.473 2.634.804 5.476.804 8.913v1.18c-1.023.156-3.823.59-5.16.803 0-.305.015-.638.015-.937 0-3.05-.252-5.65-.642-8.07-.033-.38-.142-1.03-.285-1.75-.11-.51-.206-1.01-.3-1.5-.172-.77-.328-1.51-.47-2.1.457-.07 1.102-.16 1.795-.26" fill="#EEB210"/><path d="M357.73 283.768c1.274-.19 4.044-.59 5.145-.755.835 3.51 1.59 7.373 1.684 12.378v2.06c-1.03.14-3.88.54-5.2.72 0-.33.01-.67.01-.99 0-5.56-.79-9.69-1.66-13.4" fill="#EEB210"/><path d="M366.416 297.17c.017-.86.017-1.693-.014-2.495v-.905c.346-.472 8.623-11.97 9.063-12.59.426-.054 1.164-.14 1.92-.236.22 1.04.834 4.076.977 4.794-.487.716-7.193 10.174-7.617 10.764-.347.055-1.528.243-2.69.433-.536.076-1.072.156-1.64.234" fill="#EEB210"/><path d="M413.657 290.118c0-.29.016-.59.016-.873 0-3.62-.348-6.517-.818-9.017.016-.086.016-.166 0-.26-.41-2.02-.694-3.218-.896-3.998 1.27-.188 4.05-.59 5.15-.746.94 3.934 1.73 7.774 1.73 13 0 .362-.02.738-.04 1.125-1.43.21-3.148.47-5.16.76" fill="#EEB210"/><path d="M462.567 280.81c.11-.128.218-.26.345-.392.694-.787 1.56-1.794 1.968-2.252 1.527.724 3.24 1.125 5.082 1.055.22.56.47 1.11.724 1.68.205.45.426.88.66 1.29.034.06.08.14.112.21.032.04.047.1.063.14-2.78.5-6.35.42-9.53-1.05.08-.093.3-.345.59-.66" fill="#EEB210"/><path d="M443.29 285.183c-1.31-.212-2.628-.73-4.03-1.32-1.558-.654-3.195-1.223-4.94-1.522.298-1.32.44-2.57.456-3.77 4.17.55 9.05 2.21 12.715 3.49l.98.32c-1.6 1.01-3.3 1.94-5.08 2.79-.02.01-.06.03-.09.03" fill="#EEB210"/><path d="M454.76 277.638c-2.582-1.668-7.43-5.453-11.156-9.033.976-.18 1.95-.346 2.927-.512.81-.133 1.69-.268 2.71-.415 1.97 2.132 5.87 5.32 8.64 6.948l-2.56 2.517s-.2.182-.41.384c-.05.033-.09.072-.14.11" fill="#EEB210"/><path d="M427.68 269.708c1.304.14 2.485.755 3.38 1.872l.048.06c.282.373.55.79.787 1.26.66 1.362 1.038 3.1 1.054 5.06v.16c0 .762-.08 1.547-.21 2.374 0 .102-.03.205-.05.3-.47 2.658-1.61 5.562-3.61 8.424-.39.047-.8.12-1.21.158-.07 0-.13.008-.21.008-.99.094-2.018.127-3.05.157v-1.06l-.038.01c1.855-3 3.21-6.85 3.21-10.12 0-1.25-.19-2.42-.63-3.39-.38-.8-.913-1.41-1.56-1.84.854-.89 1.53-2 2.067-3.43" fill="#EEB210"/><path d="M423.776 294.76c.315-1.084.566-2.164.71-3.226v-.053c1.305-.03 3.807-.12 5.366-.42.045 0 .077-.06.126-.07 5.068-.66 9.597-2.01 13.642-3.86 1.275-.37 5.32-2.6 7.523-4.25 0 0 0-.01.016-.02 1.46-1.012 2.85-2.1 4.15-3.21.06-.04.14-.04.19-.085l1.04-.97.07-.092c4.31-3.87 7.76-8.103 10.56-12 .3.46.59.96.77 1.497.09.276.17.55.17.804v1.934l-.08.128c-11.66 16.14-22 24.638-44.8 25.867.18-.61.37-1.26.53-1.946" fill="#EEB210"/><path d="M228.834 302.235c1.236.937 2.285 3.163 2.758 6.02.17 1.077.256 2.163.256 3.178 0 2.447-.524 4.557-1.408 5.846-.618.1-3.494.54-5.346.81.696-1.67 1.126-3.57 1.126-5.53 0-1.21-.11-2.39-.28-3.43-.426-2.67-1.382-4.605-2.53-6.05 1.813-.28 4.788-.76 5.424-.866" fill="#EEB210"/></g></svg>