<svg width="512" height="512" viewBox="0 0 512 512" xmlns="http://www.w3.org/2000/svg"><title>baltimore-orioles</title><g fill="none" fill-rule="evenodd"><path d="M284.03 95.52c3.67-.572 7.523-1.1 11.152.026 3.546 1.214 6.41 3.746 8.99 6.36 6.487 1.55 13.962.265 19.622 4.423-5.962 2.57-12.284 4.42-17.79 7.93-.575 6.12-5.7 10.24-9.038 14.97-1.526 1.78-1.22 4.24-1.438 6.42.077 4.58.725 9.19.137 13.77-.417 4.04-1.795 7.89-3.045 11.73-2.295 6.85-6.077 13.29-11.488 18.14-8.947 7.972-20.72 11.79-32.294 13.99-5.56 1.11-11.207 1.613-16.833 2.24-2.92.23-5.878 1.845-7.322 4.432-.478 1.72 1.28 2.486 2.464 3.217 6.697 3.81 13.886 6.956 19.753 12.05 1.23 1.24 2.892 2.496 2.96 4.39.037 1.3.504 2.556.46 3.85-1.295 2.804-3.437 5.33-6.345 6.505-1.065 2.086-2.114 4.185-3.057 6.333l1.487.77c-5.143 12.96-9.693 26.14-14.204 39.33-2.73 8.264-5.51 16.52-7.85 24.91-.43 1.68-1.04 3.49-.43 5.21 1.79 1.643 4.52.17 6.21-.99 2.96-2.38 5.74-5.14 7.72-8.4-1.1-10.57.47-21.47 4.85-31.187 1.42-3.02 2.38-6.24 3.92-9.205.85-1.756 1.99-3.43 2.22-5.42.51-3.9 2.15-7.497 3.89-10.98 4.938-12.237 21.03-18.774 32.9-12.665 5.304 2.37 9.047 7.224 11.105 12.55 1.755 3.99 2.76 8.27 3.31 12.58 1.29-.96 3.22-1.636 3.443-3.46 2.13-8.453 4.683-16.83 8.25-24.8 4.74-12.043 10.636-23.775 18.744-33.93 4.46-5.444 9.795-10.8 16.75-12.765 3.423-.444 7.42-.8 10.25 1.594 3.848 3.195 5.456 8.447 5.126 13.33-.4 10.32-4.1 20.13-8.114 29.53-4.4 10.25-10.804 19.595-18.57 27.582-3.504 3.833-7.56 7.107-11.403 10.583-.85 3.715-1.22 7.615-.73 11.41.145 1.53 1.473 3.18 3.164 2.586 4.567-1.232 8.004-4.76 11.13-8.12 2.148-2.51 4.425-4.95 6.22-7.732.274-5.2 1.047-10.39 2.68-15.35 1.3-4.29 3.345-8.29 4.916-12.478 3.795-9.25 9.763-18.13 18.643-23.136 3.792-2.01 8.205-3.67 12.54-2.654 5.61 1.04 10.35 5.464 12.124 10.84 1.305 3.644.982 7.61.724 11.4-1.83 8.782-5.33 17.38-11.262 24.21-2.98 3.66-6.83 6.42-10.49 9.34 4.694.285 8.43-3.07 11.144-6.51 4.26-5.39 7.27-11.6 10.436-17.66 2.87-5.71 5.76-11.406 8.408-17.23 2.75-6.11 5.35-12.356 9.054-17.975 1.056-1.425 2.1-3.27 4.047-3.5 6.46-1.415 12.79-3.425 19.308-4.58-.946 4.19-2.93 8.708-.98 12.926 4.25 8.745 9.606 17.21 11.39 26.91 5.67 2.147 11.075 5.96 13.666 11.606 2.3 4.907 1.78 10.593.504 15.712-1.907 9.886-9.06 17.856-17.11 23.45-4.47 3.14-9.446 5.44-14.5 7.462-22.596 9.28-45.314 18.28-67.95 27.47-44.056 17.913-88.05 35.974-131.91 54.374-9.31 3.85-18.524 7.92-27.595 12.31-18.048 8.62-36.774 17.432-50.534 32.403-4.604-3.27-9.418-6.334-14.747-8.27-11.05-4.134-22.948-5.067-34.617-5.825-1.676-.266-4 .48-4.88-1.436-1.367-2.213-3.32-4.14-4.354-6.5.63-2.096 1.61-4.08 2.42-6.113.3-1.192 1.66-1.324 2.61-1.746 101.72-36.574 203.64-72.622 305.34-109.26 8.133-2.976 16.344-5.766 24.37-9.05 5.904-2.456 11.6-5.632 16.28-10.046 2.47-1.99-.305-5.024-1.95-6.58-3.12 8.08-10.15 14.628-18.68 16.52-5.62 1.624-12.033.436-16.485-3.436-2.62-2.153-3.877-5.393-4.865-8.536-4.27 7.838-9.5 15.34-16.42 21.054-5.13 4.224-11.63 7.125-18.37 6.784-6.62.063-13.13-2.88-17.34-8.006-5.668 8.13-12.82 15.253-21.12 20.67-4.91 3.064-10.49 5.854-16.45 5.39-5.73-.22-10.622-4.44-12.77-9.587-2.52-6.02-1.05-12.69-1.112-19-1.23 5.07-2.71 10.1-4.986 14.81-1.876 5.14-4.226 10.125-7.255 14.694-5.063 8.31-13.582 14.69-23.25 16.37-4.16.52-8.594.44-12.413-1.49-2.676-1.23-4.826-3.28-6.786-5.42-5.7 8.172-13.03 15.433-22.015 19.903-5.39 2.614-11.884 4.062-17.62 1.7-2.244-.866-3.825-2.746-5.257-4.597-4.146 5.13-9.07 9.606-14.43 13.434-3.36 2.416-7.33 4.223-11.53 4.28-2.74.053-5.677.24-8.15-1.17-3.827-1.863-6.3-5.73-7.236-9.794-1.53-6.055-.664-12.377.77-18.358 1.524-6.49 3.87-12.748 6.547-18.83 2.35-6.165 5.26-12.097 8.61-17.77-1.257-.127-2.5-.275-3.75-.44-3.677 5.64-9.106 9.94-15.01 13.056-.505.32-1.29.566-1.27 1.3-1.65 10.43-4.727 20.616-9.01 30.26-4.98 12.89-11.78 25.47-22.06 34.915-6.984 6.397-16.11 10.917-25.72 10.84-10.2.318-20.225-4.916-26.175-13.14-6.11-8.47-9.13-18.794-10.21-29.086-1.51-14.96.306-30.306 5.67-44.377.98-2.775 2.3-5.418 3.34-8.164 3.898-9.986 9.45-19.333 16.55-27.37 1.267-2.615 2.01-5.49 3.397-8.08 2.36-7.52 7.01-14.434 13.66-18.78 8.076-5.563 18.81-6.414 27.94-3.14 7.676 2.5 13.62 8.71 17.084 15.87 5.74 11.65 6.87 24.925 6.87 37.734 1.514-.777 3.123-1.73 3.924-3.288 1.37-4.62 2.7-9.28 4.43-13.78.82-2.214 3.1-3.55 5.393-3.63 3.36-.226 6.54 1.12 9.86 1.317 4.86.57 10.084-.473 13.93-3.63 1.62-1.32 3.678-2.52 5.84-1.957 2.586.496 3.49 3.233 5.084 4.973 1.7 2.35 4.274 4.07 5.482 6.75 1.42 4.854-1.004 9.885-4.034 13.6-6.676 6.97-11.87 15.212-16.31 23.75-1.946 3.72-3.115 7.792-3.93 11.896-.546 2.93-.986 5.967-.277 8.906 2.787-.077 4.763-2.308 6.837-3.884 3.395-3.19 6.88-6.45 9.21-10.53 6.057-16.88 11.37-34.04 17.82-50.788 1.12-3.054 2.617-5.97 3.637-9.062-.7-2.434-1.727-4.883-1.25-7.493.18-3.817 2.85-6.8 3.716-10.408 1.426-4.278 4.533-7.997 8.53-10.09 1.053-.548 1.975-1.295 2.852-2.086-.39-.683-.69-1.5-1.46-1.84-5.36-3.073-10.932-5.78-16.163-9.082-1.54-.965-3.03-2.327-3.423-4.18-.44-1.855.066-3.74.555-5.53-8.75-1.016-17.466-2.29-26.16-3.685-7.306.504-14.66.54-21.987.34-2.26-.2-4.66-.358-6.548-1.76.616-2.68 2.702-4.61 4.655-6.38 3.75-3.07 8.245-5.19 12.927-6.385-3.49-1.77-7.28-2.804-10.865-4.357-1.478-.52-2.894-1.465-4.52-1.334-10.46.48-20.866 1.75-31.316 2.39-4.726.56-9.512.53-14.26.36-4.413-.324-8.953-1.373-12.454-4.223-1.844-.33-3.75-.465-5.494-1.218-2.118-.873-4.587-.84-6.448-2.285-2.167-1.79-5.26-2.02-7.18-4.153l.06-1c2.62-1.62 5.813-1.38 8.77-1.702.024-.74.052-1.482.09-2.218 1.06-.252 2.13-.46 3.144-.862 1.217-.757 2.22-1.856 3.577-2.4 1.76-.786 3.427-2.11 5.46-1.878 14.34 1.065 28.49 3.9 42.82 5.053 5.23.948 10.505-.3 15.58-1.51 4.668-1.24 9.4-2.293 13.9-4.08 3.954-1.54 7.45-3.992 11.25-5.84 4.92-2.54 10.06-4.623 15.217-6.63 10.213-4.58 20.547-9.02 31.316-12.152 3.63-1.1 7.684-1.495 10.697-4.03 3.58-3.03 7.6-5.516 10.95-8.83 4.54-4.43 8.606-9.5 14.144-12.763 4.73-2.948 10.28-4.09 15.69-5.07z" fill="#100A07"/><path d="M300.18 101.78c1.928.797 3.734 2.12 5.918 2.045 4.884.137 9.73.79 14.517 1.752-7.546 1.125-15.07 2.603-22.267 5.207 1.02-1.64 2.283-3.114 3.27-4.773-.004-1.52-.98-2.81-1.437-4.23zm-17.885 5.526c.818-1.796 2.43-3.668 4.615-3.378 2.63-.363 4.666 1.483 6.554 3l-1.927-.056c-1.284-1.735-3.315-3.163-5.576-2.504-3.26.505-3.66 5.438-1 6.982 1.75 1.07 3.7-.215 5.39-.808-1.36.99-2.99 2.22-4.78 1.642-1.88-.742-3.79-2.703-3.27-4.878z" fill="#FDFDFD"/><path d="M301.96 105.357c1.79-.96 3.886-.588 5.823-.506-1.613 1.44-3.853 1.65-5.856 2.15.006-.41.022-1.22.033-1.63z" fill="#100A07"/><path d="M287.646 106.147c.938-.63 2.092 1.396.988 1.813-.796-.055-1.28-1.13-.988-1.813zm11.84 6.174c6.117-1.48 12.117-3.46 18.225-5-5.34 1.87-10.64 4.06-15.27 7.37l.21-2.52c-1.05.05-2.1.11-3.15.16z" fill="#FDFDFD"/><path d="M266.746 134.413c-1.778-1.43-1.11-4.016-.604-5.916.993 1.692 1.724 3.614 3.228 4.938 3.363 2.68 7.547 3.91 11.526 5.35-1.158.33-2.333.615-3.49.934 3.6 2.52 7.386 4.8 10.58 7.86-1.48-.05-2.963-.09-4.434.04 1.186 1.15 2.738 1.9 4.374 2.16 3.426-2.1 5.527-5.9 5.973-9.85 1.52 4.68.98 9.74-.35 14.4-1.68 5.61-3.55 11.28-7.02 16.07-5.63 8.49-14.26 14.83-23.95 17.88-8.58 2.71-17.52 4.08-26.42 5.18-5.25.59-10.86 1.01-15.4 3.98-1.73 1.055-2.24 3.07-2.65 4.91-1.43.067-3.11.935-4.35-.114-1.26-.94-2.147-2.406-2.306-3.98 0-1.78.735-3.445 1.25-5.12-3.688-.44-7.348-1.094-10.966-1.94l-.39-.823c5.64-1.46 11.395-2.38 17.037-3.81 10.065-2.166 20.21-4.34 29.79-8.214 2.525-1.006 4.98-2.286 6.98-4.164 2.24-2.07 5.31-2.974 7.384-5.248 2.184-2.06 3.03-5.28 5.71-6.85 3.42-2.24 5.97-5.527 8.07-8.987-3.4 3.2-6.52 6.99-11 8.72-1.49.665-3.145.45-4.71.374 2.668-3.24 6.19-5.75 8.278-9.476-4.495 3.58-8.934 8.86-15.25 8.37-1.36-.84-2.98-.72-4.468-1.096 1.605.042 3.356.3 4.766-.667 3.41-1.976 6.282-4.745 8.97-7.606-3.536 2.48-6.918 5.45-11.15 6.64-1.49.474-3.01 0-4.39-.56 3.09-2.245 6.28-4.415 8.74-7.39-3.12 2.154-6.17 4.653-9.92 5.61-1.19.41-2.343-.3-3.47-.6 2.708-1.96 5.71-3.57 7.993-6.07-2.508 1.495-4.91 3.3-7.776 4.054-1.685.434-3.4-.093-5.044-.45.956-2.933 3.646-4.943 6.483-5.86 3.98-.127 7.52-2.253 11.46-2.703-.09.537-.17 1.07-.256 1.607 5.47-1.468 11.36-1.298 16.564 1.04-2.44-2.46-5.743-3.7-8.942-4.816-1.712-.7-3.59-.18-5.334-.67-1.553-.355-3.112-.97-4.73-.705-2.086.36-4.19-.09-6.28.053-.99.245-1.822.89-2.8 1.147-2.062.127-4.114-.25-6.145-.57 4.476-3.093 10.17-2.92 15.366-2.944l-.05-1.67c3.18.51 6.32 1.22 9.42 2.095-.57-.644-1.137-1.286-1.686-1.94 4.295.632 8.295 2.367 12.26 4.047-1.688-2.65-4.136-4.65-6.485-6.68zm-80.663 12.374c7.524-4.273 15.95-6.827 24.506-7.97.11 1.24.21 2.477.3 3.718 3.13.57 6.61.653 9.22 2.73-9.23 2.526-18.61 5.564-26.3 11.468-2.11 1.54-3.66 3.718-5.87 5.12-1.86 1.196-3.74 2.46-5.06 4.267-2 2.944-5.04 4.904-7.4 7.524-3.5-1.488-7.02-2.927-10.45-4.564 2.41-.236 4.82-.57 7.22-.95-3.56-1.45-7.49-1.22-11.13-2.324 1.254-.192 2.522-.335 3.78-.55-3.79-1.696-8.09-1.405-11.997-2.74 1.21-.132 2.42-.22 3.634-.308l-.01-.818c-1.753-.093-3.51-.187-5.26-.253 1.015-.29 2.025-.58 3.03-.912-1.46-.813-3.07-1.29-4.62-1.884 4.32-.66 8.736-.76 12.96-1.98 4.62-1.35 9.34-2.45 13.8-4.31 3.386-1.39 6.432-3.47 9.622-5.25z" fill="#ED4C09"/><path d="M242.95 153.433c2.863-.752 5.267-2.56 7.775-4.053-2.283 2.5-5.285 4.108-7.99 6.07 1.124.3 2.277 1.01 3.468.598 3.748-.956 6.795-3.454 9.912-5.608-2.454 2.977-5.648 5.147-8.737 7.393 1.383.56 2.904 1.033 4.39.56 4.238-1.19 7.618-4.162 11.153-6.64-2.68 2.86-5.55 5.63-8.96 7.607-1.41.967-3.16.71-4.76.665-.94-.395-1.39-1.456-2.16-2.093-1-.313-2.05-.418-3.04-.73-.706-.518-1.145-1.303-1.65-1.994-1.89.264-3.46-.627-4.423-2.225 1.644.357 3.357.884 5.043.45zm10.706 7.685c6.317.483 10.757-4.79 15.253-8.376-2.09 3.724-5.61 6.234-8.28 9.474 1.56.077 3.22.292 4.71-.374 4.47-1.725 7.59-5.514 10.99-8.716-2.1 3.46-4.65 6.744-8.07 8.986-2.68 1.57-3.53 4.788-5.71 6.85-2.08 2.272-5.15 3.174-7.39 5.244-2 1.88-4.45 3.158-6.98 4.163-9.59 3.87-19.73 6.04-29.79 8.21 9.05-2.19 18.02-4.98 26.55-8.78 3.09-1.51 6.4-3.01 8.57-5.8.69-1.1 2.04-1.29 3.13-1.8 3.02-1.2 5.663-3.43 7.013-6.43-1.85-.42-3.5-2.17-5.477-1.32-1.635.7-3.578.2-4.54-1.34zm-43.04-3c2.338-2.823 6.064-3.53 9.385-4.542-2.17 1.005-4.32 2.12-6.19 3.636 1.84 1.153 4.09.764 6.14.807 2.33-.14 4.84.19 6.96-1.02.58-.47 1.31-.22 1.7.34-2.64-.03-5.03 1.29-7.65 1.53-3.46-.09-6.98.41-10.33-.77z" fill="#FDFDFD"/><path d="M95.17 157.24c4.293-.956 8.704.038 13.04.137 7.42.796 14.94.757 22.295 2.148-3.107-.445-6.236-.6-9.37-.615-4.192-.51-8.43-.34-12.634-.785-4.43-.392-8.93-.072-13.33-.886zm114.99.77l.456.11c3.348 1.18 6.87.68 10.335.767-3.56.445-7.41.495-10.79-.878z" fill="#ED4C09"/><path d="M197.794 162.682c1.35-2.317 4.04-3.097 6.29-4.234-.78.84-1.537 1.697-2.25 2.597 3.107 1.352 6.58 1.203 9.89 1.06 2.68-.378 5.412-.24 8.052-.878-1.12.956-2.23 1.934-3.134 3.098 7.058.643 14.177-.55 20.966-2.44-7.514 3.708-16.158 4.148-24.375 3.488.89-.972 1.91-1.81 2.937-2.636-2.948.154-5.907.165-8.837.495-3.19.093-6.355-.433-9.54-.55z" fill="#FDFDFD"/><path d="M84.9 161.265c13.717 1.18 27.45 2.302 41.176 3.252 3.968.077 7.88 1.005 11.867.638l-.012.346c-4.14.17-8.24-.72-12.39-.49-7.48-.44-14.98-.9-22.46-1.31-6.04-.73-12.52.24-18.16-2.43z" fill="#ED4C09"/><path d="M229.968 168.807c4.55-.753 8.683-2.944 12.54-5.383-2.7 4.17-8.017 4.883-12.54 5.383z" fill="#FDFDFD"/><path d="M95.325 165.704c10.51.478 21.015 1.307 31.536 1.615 6.49.87 13.06.26 19.57.69-9.85.82-19.76-.16-29.62-.39-7.13-.79-14.54.28-21.47-1.93z" fill="#ED4C09"/><path d="M188.952 169.883c1.053-1.148 2.255-2.158 3.606-2.944.006.64.017 1.3.04 1.95 7.177 1.57 14.598.15 21.826-.42-8.347 1.49-17.085 3.86-25.472 1.4zm54.183 3.466c3.314-1.42 6.223-3.55 9.055-5.74-1.257 1.39-2.443 2.89-4.03 3.93-1.507.99-3.313 1.32-5.025 1.8z" fill="#FDFDFD"/><path d="M106.22 169.555c3.314-.176 6.64.033 9.955.093 6.96.6 13.974-.005 20.922.664-7.865.385-15.752.313-23.627.324-2.438-.05-5.023.1-7.25-1.08z" fill="#ED4C09"/><path d="M187.69 174.338c10.615.736 21.142-1.252 31.636-2.57-8.908 1.603-17.75 3.745-26.805 4.317-3.49.318-7.05.757-10.49-.16.91-1.242 2.03-2.302 3.2-3.296.68.72 1.36 1.68 2.47 1.7zm-7.59 6.504c15.817.79 31.36-3.082 46.526-7.12-3.074 1.446-6.323 2.478-9.604 3.325-8.24 2.142-16.63 3.646-25.045 4.87-4.988.446-10.11 1.26-15.055.073.988-.972 2.125-1.774 3.212-2.63-.007.366-.023 1.108-.035 1.482z" fill="#FDFDFD"/><path d="M340.4 182.615c2.647-1.505 5.81-2.07 8.8-1.516 3.078.87 4.83 4 5.58 6.92 1.044 4.64-.043 9.39-.9 13.97-3.666 17.21-14.16 32.28-27.096 43.88-2.377 2.21-4.906 4.24-7.443 6.26-1.16.76-1.21 2.237-1.51 3.456-.99 5.46-2.23 11.023-1.49 16.592.28 2.13 1.41 4.23 3.36 5.25 1.59.943 3.55.6 5.21.04 3.14-1.15 5.94-3.086 8.33-5.396 4.8-4.584 8.91-9.845 12.73-15.26 1.32-1.67.6-3.9.79-5.84.35-9.876 3.73-19.52 8.89-27.892 3.83-5.926 9.04-11.33 15.73-13.91 3.62-1.496 8.05-1.35 11.33.916 3.906 2.52 6.117 7.19 6.068 11.787.41 8.49-3.86 16.54-9.76 22.393-5.066 5.25-11.49 8.91-18.13 11.794 1.5 3.315 3.766 6.8 7.48 7.82 4.1 1.015 8.49-.545 11.61-3.27 4.92-4.255 8.16-10.023 11.295-15.642 5.586-10.53 10.794-21.265 15.607-32.173 2.054-3.85 3.64-8.185 6.83-11.25 4.52-1.544 9.274-2.444 13.923-3.58-.475 3.233-.617 6.68.83 9.704 1.91 4.06 4.21 7.93 6.093 12.007 2.315 5.04 4.83 10.19 5.115 15.83 5.045 1.884 10.28 4.515 13.11 9.316 2.745 4.453 2.41 10.06.945 14.895-1.837 6.037-6.513 10.75-11.71 14.09-5.66 3.66-11.926 6.18-18.135 8.723-21.86 8.94-43.804 17.67-65.687 26.56-42.87 17.44-85.69 35.017-128.383 52.884-8.7 3.66-17.414 7.267-25.91 11.38-11.9 5.604-23.853 11.183-35.006 18.193-6.756 4.22-13.16 9.07-18.72 14.79-3.134-1.75-6.07-3.86-9.38-5.29-12.805-5.913-27.14-6.78-41-7.793-1.46.03-1.876-1.65-2.56-2.63 44.493-16.18 89.14-31.963 133.713-47.914 54.46-19.46 108.94-38.847 163.35-58.43 9.118-3.314 18.267-6.54 27.34-9.97 7.6-2.98 15.22-6.61 21.027-12.5 2.78-2.887 4.94-6.73 4.802-10.84-.52-4.746-4.45-8.36-8.55-10.32-1.257 5.524-3.968 10.885-8.584 14.335-3.656 2.83-8.157 4.595-12.773 4.87-4.27.114-8.82-1.665-11.278-5.286-2.174-3.32-2.694-7.805-.9-11.408 2.14-4.32 6.3-7.427 10.862-8.794 3.38-1.07 6.96-1.234 10.488-1.16-4.07-6.81-7.785-14.025-9.233-21.896-2.43 2.51-4.07 5.633-5.68 8.7-5.767 11.17-10.125 23.056-16.67 33.827-3.905 6.14-8.466 12.04-14.35 16.41-4.275 3.14-9.538 5.085-14.884 4.83-4.577-.12-9.253-1.63-12.58-4.88-1.876-1.73-3.183-3.94-4.516-6.09-3.53 5.79-7.675 11.207-12.605 15.88-4.98 4.714-10.5 9.03-16.87 11.695-3.38 1.39-7.28 2.09-10.81.84-4.448-1.666-7.384-6.18-7.96-10.784-.57-7.02.34-14.06 1.67-20.947-2.7 1.662-5.17 3.674-7.905 5.284-.92.673-2.33 1.184-2.345 2.53-1.033 7.325-2.95 14.592-6.4 21.166-2.46 4.635-5.144 9.3-9.068 12.87-5.196 4.804-12.057 8.232-19.26 8.03-3.71.005-7.413-1.408-10.09-3.994-1.905-1.768-3.06-4.13-4.276-6.38-.704.953-1.374 1.942-2.005 2.95-3.923 6.3-9.054 11.84-14.965 16.31-5.105 3.635-11.03 7.025-17.52 6.57-2.3.06-4.7-.64-6.295-2.363-1.88-1.918-2.32-4.68-3.006-7.17-5.3 7.322-11.656 13.962-19.235 18.95-2.934 1.84-6.4 2.774-9.843 2.94-3.595.096-7.168-1.83-8.88-5.02-2.15-4.034-2.218-8.784-1.878-13.238.68-6.26 2.553-12.33 4.7-18.228 3.44-9.09 7.973-17.835 13.98-25.51 1.402-1.834 3.02-3.492 4.41-5.34-5.088.748-10.52 2.067-15.418-.256-1.126 2.41-2.574 4.684-4.51 6.54-3.844 4.014-8.51 7.27-13.685 9.325-.75.38-1.902.54-1.86 1.63-.97 12.894-4.482 25.527-9.72 37.32-4.75 10.444-11.006 20.5-19.86 27.943-5.976 5-13.495 8.5-21.39 8.55-9.75.423-19.41-4.795-24.653-12.985-6.693-10.14-9.064-22.547-9.114-34.538-.53-23.593 8.26-47.49 24.685-64.54.894-.928.79-2.32 1.07-3.498 1.806-12.194 12.04-23.07 24.474-24.42 8.04-.808 16.74 1.45 22.507 7.332 4.973 5.002 7.806 11.703 9.595 18.432 2.774 10.437 3.01 21.318 2.824 32.05 4.4-1.83 8.625-4.56 11.474-8.45 2.84-3.792 1.87-8.84 3.413-13.092.324-.98 1.34-1.56 2.34-1.6 2.81-.197 5.494.87 8.265 1.154 5.855.81 12.206-.1 17-3.754 1.144-.697 2.236-2.036 3.71-1.723 1.698 1.67 2.87 3.8 4.54 5.51 1.125 1.32 2.53 2.434 3.37 3.977.676 1.39-.093 2.894-1.085 3.893-6.05 6.435-10.896 13.905-15.084 21.656-4.383 8.45-8.18 17.506-8.88 27.097-.09 2.537-.15 5.76 2.225 7.34 2.093 1.365 4.59.05 6.462-1.09 4.637-3.123 8.637-7.14 12.08-11.54 1.377-1.79 2.743-3.646 3.506-5.794 6.635-18.38 12.43-37.06 19.363-55.335.39-1.92 2.513-2.03 4.034-2.567 4.245-1.165 8.334-2.85 12.64-3.79-6.77 19.054-13.71 38.07-19.38 57.49-.86 2.935-1.836 6.405-.052 9.197 1.38 2.13 4.28 2.256 6.52 1.76 3.42-.9 6.143-3.354 8.56-5.825 2.84-3.075 5.4-6.432 7.55-10.03 1.23-1.686.22-3.784.22-5.662-.27-6.044-.29-12.185 1.15-18.11 1.66-7.225 4.66-14.19 9.04-20.193.786-.973.56-2.28.65-3.44-.17-4.816 2.402-9.353 5.89-12.517 4.733-4.11 11.16-6.52 17.46-5.68 5.15.74 10.073 3.61 12.91 8.03 3.996 6.43 5.63 14.07 5.665 21.59 3.14-1.164 5.744-3.306 8.423-5.245 1.13-.885 2.565-1.72 2.75-3.29 2.494-10.816 5.418-21.61 10-31.75 3.92-8.666 8.487-17.12 14.37-24.63 3.374-4.27 7.2-8.35 11.997-11.04z" fill="#ED4C09"/><path d="M343.376 190.563c1.323-.742 3.53-.813 4.072.934 1.42 3.69-.01 7.65-1.246 11.177-4.143 11.288-9.962 21.998-17.48 31.39-2.542 3.033-5.16 6.092-8.42 8.372 1.987-9.464 5.478-18.554 9.018-27.534 2.508-6.108 5.12-12.194 8.41-17.934 1.436-2.456 3.1-4.977 5.646-6.405z" fill="#100A07"/><path d="M220.308 201.977c.022-2.725 2.32-4.345 4.56-5.34-.833 1.478-1.508 3.04-2.118 4.62-.74.44-1.624.51-2.442.72z" fill="#ED4C09"/><path d="M337.158 206.827c1.218-2.148 2.448-4.416 4.495-5.888.07 4.32-1.832 8.36-3.688 12.17-3.052 5.82-6.256 11.66-10.466 16.73 2.39-7.99 5.72-15.68 9.65-23.03z" fill="#FDFDFD"/><path d="M221.833 203.586c1.268.23 2.504.632 3.645 1.23 5.258 2.664 10.488 5.454 15.296 8.893 1.67 1.21 3.327 2.49 4.66 4.09 2.075 2.25 1.768 6.26-.75 8.07-.233-2.03-.205-4.09-.556-6.1-.566-1.83-2.13-3.08-3.517-4.28-4.9-3.96-10.6-6.7-16.1-9.7-1.04-.53-1.95-1.29-2.67-2.22zm10.945 15.286c2.294-.51 5.01-.203 6.613 1.692 2.41 2.697 2.04 6.794.6 9.87-2.13 4.646-6.94 8.798-12.34 8.035-3.19-.39-5.12-3.67-5.02-6.69.25-5.82 4.49-11.41 10.16-12.91z" fill="#ED4C09"/><path d="M369.238 223.54c2.09-2.767 5.093-5.463 8.792-5.272 3.15.435 4 4.257 3.58 6.92-.616 5.477-3.042 10.84-7.13 14.59-3.99 3.872-9.03 6.46-14.15 8.502.296-8.915 3.545-17.648 8.908-24.74z" fill="#100A07"/><path d="M413.102 226.403c.68 1.57 1.34 3.153 1.975 4.74-1.897.697-3.753 1.51-5.575 2.378 1.2-2.37 2.37-4.76 3.6-7.11zm-42.788 4.79c1.13-1.418 2.8-2.198 4.522-2.63 1.048 2.31.63 5.26-1.147 7.1-2.53 2.994-5.82 5.23-9.29 6.988.43-4.42 3.05-8.21 5.9-11.45z" fill="#FDFDFD"/><path d="M112.135 236.438c4.863-2.22 11.384-.924 14.452 3.64 3.435 5.05 4.484 11.267 5.153 17.22.505 8.31.35 16.67-.52 24.953-6.082.85-12.498-.92-17.268-4.81-9.26-7.31-14.44-20.64-9.88-31.96 1.532-3.8 4.27-7.3 8.063-9.03zm153.508 2.07c2.364-2 5.872-2.642 8.71-1.274 2.827 1.22 4.512 4.103 5.182 6.997 1.7 6.21.697 12.73-.813 18.86-3.2.96-6.788.98-9.748-.73-3.518-2.04-6.575-5.23-7.732-9.21-1.362-5.17.257-11.15 4.4-14.63zm146.998 3.208c3.99-3.52 9.72-3.72 14.75-3.224.74 4.51-.05 9.59-3.38 12.946-3.08 3.3-9.2 4.08-12.38.516-2.67-2.917-1.87-7.755 1.02-10.238z" fill="#100A07"/><path d="M106.27 250.29c2.293-3.394 6.83-5.476 10.822-3.966 3.644 1.078 5.318 4.917 6.4 8.234 2.322 7.854 2.49 16.144 2.206 24.266-5.895-.66-11.044-4.377-14.474-9.084-4.12-5.487-6.306-12.624-4.955-19.45zm157.875-1.5c1.405-1.18 3.21-2.24 5.116-1.614 2.4.505 3.54 2.943 4.12 5.086.77 2.642.68 5.41.64 8.13-5.45-.815-10.1-6-9.86-11.6zm150.493.907c2.23-.687 4.572-1.033 6.9-.73-1.592 1.807-5.264 2.888-6.9.73z" fill="#FDFDFD"/><path d="M255.577 264.807c3.568 2.07 7.1 4.312 11.174 5.26 3.41.99 6.98 1.072 10.49.848-.45 3.444-1.5 6.773-2.53 10.08-1.85 5.437-4.09 10.89-7.79 15.35-1.81 2.165-4.39 4.198-7.38 3.917-3.22-.35-5.46-3.225-6.49-6.092-1.99-5.497-1.85-11.556-.75-17.23.84-4.102 1.38-8.35 3.29-12.133zM83.99 287.425c2.195-4.95 4.765-9.87 8.458-13.874 3.743 4.89 8.09 9.51 13.69 12.26 7.37 3.89 15.96 4.3 24.094 3.51-.763 8.46-2.876 16.73-5.313 24.85-2.81 8.61-6.39 17.1-11.67 24.5-3.47 4.69-8.09 9.16-14.04 10.19-4.94.444-10.05-1.7-13.11-5.63-4.41-5.654-6.05-12.877-6.89-19.858-1.24-12.104-.2-24.7 4.76-35.926z" fill="#100A07"/><path d="M255.484 277.775c1.992.527 3.808 1.543 5.774 2.153 2.885.955 5.91 1.467 8.952 1.614-1.12 4.02-2.35 8.107-5 11.43-1.438 1.736-3.15 4.17-5.71 3.818-3.226-1.494-3.88-5.48-4.318-8.64-.742-3.45.027-6.926.302-10.375zm-166.027 8.37c4.16 4.516 8.974 8.592 14.726 10.915 6.015 2.544 12.628 3.268 19.11 3.032-.553 6.108-2.26 12.05-3.896 17.944-1.186 4.175-2.662 8.284-4.83 12.056-2.915 5.22-6.345 10.513-11.536 13.716-3.25 2.136-7.68 1.993-10.98.083-3.25-1.9-5.18-5.34-6.57-8.72-2.57-6.86-3.29-14.27-3.18-21.55-.06-6.19.71-12.4 2.49-18.32.97-3.32 2.87-6.24 4.68-9.14z" fill="#FDFDFD"/></g></svg>