<svg width="512" height="512" viewBox="0 0 512 512" xmlns="http://www.w3.org/2000/svg"><title>boston-red-sox</title><g fill="none" fill-rule="evenodd"><path d="M398.4 289.016c-12.63-8.95-27.844-10.937-42.56-12.926-28.143-3.68-50.318-6.562-53.5-52.597-4.674-66.916-6.265-82.327-23.17-94.557-.597-4.673-3.978-31.42-3.978-31.42-1.094-9.047-9.447-15.51-18.496-14.317l-51.41 6.46c-4.377.49-8.255 2.78-11.04 6.26-1.79 2.38-2.982 5.07-3.28 7.95-7.16-.4-14.12 3.87-16.607 10.93 0 0-8.86 24.953-10.55 29.63-10.25 4.57-18.5 19.09-27.65 48.32L131 209.66c-10.048 33.21-18.1 59.46-33.12 75.667C84.96 299.157 78 314.27 78 328.09c0 4.177.597 8.254 1.89 12.032 3.878 11.534 15.413 26.548 48.825 32.613 18.297 3.182 39.578 16.306 60.063 29.033 14.12 8.75 29.235 18.096 42.86 23.763 8.75 3.68 23.765 10.15 65.63-.39 2.188-.49 6.762-2.38 8.254-9.64.298-1.49.497-3.28.497-5.17 0-14.12-9.85-38.68-36.5-61.44 18.99 1.89 40.37 6.465 56.08 11.93 26.05 9.15 74.98 15.415 103.12-4.97 2.28-1.49 4.87-4.87 5.07-11.035 0-12.826-10.74-38.38-35.4-55.78" fill="#FFF"/><path d="M394.82 294.087c-33.71-23.962-93.276 6.86-98.745-70.197-4.873-69.997-6.663-80.736-22.772-91.474l-4.376-34.203c-.696-5.568-5.867-9.645-11.435-8.85l-51.412 6.463c-4.972.597-8.65 4.673-8.95 9.446 1.79.696 5.072 1.79 9.05 3.182l-.398-3.28c-.1-.896.497-1.692 1.392-1.79.895-.1 1.69.496 1.79 1.39l.597 4.873c2.19.795 4.58 1.59 6.97 2.486l-.99-7.656c-.1-1.194.7-2.188 1.79-2.287 1.1-.1 2.19.696 2.29 1.79l1.198 9.743c2.088.696 4.077 1.492 6.066 2.188l-1.494-12.13c-.2-1.39.796-2.68 2.19-2.78 1.393-.2 2.686.8 2.885 2.19l1.79 14.62c1.99.7 3.88 1.4 5.47 1.99l-2.19-17.2c-.2-1.39.8-2.68 2.19-2.78 1.39-.2 2.687.8 2.786 2.19l2.486 19.79c.693.3 1.19.4 1.19.4 1.89.696 3.58 1.69 4.973 2.88l-2.984-24.16c-.1-1.092.696-2.185 1.79-2.285 1.094-.1 2.19.696 2.287 1.79l3.978 32.115c.6 1.69.9 3.48.9 5.27 0 1.79-.296 3.68-.99 5.57 0 0-8.95 25.253-10.64 29.83 1.99 3.974 2.883 8.05 2.883 12.326 0 12.63-7.46 26.25-14.32 38.78-2.886 5.27-5.67 10.34-7.76 15.015-10.54 25.75-15.61 41.66-15.61 52.498 0 5.77 1.392 10.046 4.276 13.72.1-6.86 1.393-12.13 2.09-14.71 6.763 2.187 26.85 8.45 36.894 10.64 0 0-.8 20.68 1.69 35.495 1.19.896 2.187 1.79 2.88 2.388 1.295.898 2.588 1.79 3.88 2.787 22.676 1.294 49.625 6.96 67.027 13.027 27.048 9.45 72.69 13.92 97.55-4.272 7.26-4.474-1.59-36.49-30.13-56.773m-131.56-157.8c-.895.1-1.69-.5-1.79-1.39l-4.48-36c-.1-.9.497-1.695 1.39-1.79.896-.1 1.69.493 1.79 1.39l4.475 35.99c.1.795-.495 1.69-1.39 1.79m155.225 208c-8.65 5.766-20.29 8.65-32.62 9.544-2.685.1-4.375-.89-4.97-2.98l-8.95-24.26c-.896-1.99-.996-3.88 1.79-5.27 0 0 18.296-7.955 20.384-9.05 2.09-1.09 4.573-3.08 7.06-.595 12.232 12.92 17.302 27.04 17.302 32.51.1-.1 0 0 0 .094" fill="#C62033"/><path d="M253.812 344.696c-2.486-1.99-17.004-14.517-37.59-28.437-20.583-13.92-15.81-34.7 2.686-79.85 9.05-20.39 29.733-45.84 18-63.04l11.534-32.52c1.89-5.37-.895-11.238-6.264-13.127l-48.826-17.3c-5.37-1.89-11.237.893-13.126 6.262l-11.436 32.62c-8.95 1.984-17.104 15.11-26.55 45.24-12.83 41.16-21.082 74.87-39.678 94.95-26.55 28.536-29.534 66.816 27.247 77.057 32.61 5.67 71.1 39.375 103.71 52.997 7.85 3.28 20.58 9.943 62.25-.497 9.05-1.79 5.57-41.37-41.97-74.38m-127.29 11.93c-17.7-4.074-28.74-11.33-32.12-21.375-3.38-10.24 1.092-23.667 12.03-36.69 12.43 4.77 22.87 10.54 30.626 15.81-5.47 11.63-9.248 26.25-10.54 42.254M239.59 135.2c.796.298 1.293 1.193.995 2.088l-12.232 34.104c-.298.795-1.193 1.293-2.088.994-.795-.298-1.293-1.193-.994-2.088l12.23-34.104c.3-.895 1.2-1.292 2.09-.994m-9.74-3.48c1.1.398 1.69 1.59 1.3 2.685l-11.93 33.21c-.4 1.092-1.59 1.69-2.68 1.29-1.093-.396-1.59-1.59-1.29-2.683l11.93-33.31c.397-.993 1.59-1.59 2.684-1.192m-9.747-3.48c1.29.497 1.99 1.89 1.49 3.28l-11.634 32.415c-.5 1.292-1.89 1.988-3.283 1.59-1.296-.496-1.99-1.888-1.495-3.28l11.538-32.414c.597-1.39 2.09-2.08 3.38-1.59m-42.363 26.75c-.797-.3-1.294-1.19-.996-2.09l12.137-34.1c.3-.79 1.194-1.29 2.09-.99.797.3 1.294 1.2.996 2.09L179.73 154c-.298.894-1.193 1.292-1.988.993m9.744 3.48c-1.093-.396-1.69-1.59-1.292-2.683l11.833-33.21c.398-1.094 1.59-1.69 2.686-1.293 1.098.4 1.59 1.59 1.297 2.686l-11.933 33.31c-.397.993-1.59 1.59-2.585 1.192m9.645 3.48c-1.292-.497-1.99-1.89-1.49-3.28l11.534-32.415c.5-1.29 1.89-1.987 3.29-1.49 1.298.497 1.99 1.89 1.49 3.28l-11.532 32.41c-.497 1.29-1.89 1.987-3.28 1.49m93.573 248.97c-15.413 3.68-26.153 4.772-34.01 4.673-2.783.397-5.07-.995-5.57-4.276l-2.882-25.354c.1-2.586.896-4.774 4.078-4.873 7.555.1 16.604-.696 19.39-1.59 4.175-1.393 5.27-.896 5.766-.2 10.24 13.72 13.32 25.454 13.32 30.922 0 .297-.1.496-.1.694" fill="#C62033"/></g></svg>