<svg width="512" height="512" viewBox="0 0 512 512" xmlns="http://www.w3.org/2000/svg"><title>chicago-white-sox</title><g fill="none" fill-rule="evenodd"><path d="M165.457 100.277c-9.696 10.297-19.04 30.733-20.38 44.59-.435 4.43-.644 8.538-.644 12.392 0 13.883 2.844 24.52 9.038 34.88 7.78 12.97 20.096 23.632 35.61 30.83 14.64 6.79 35.72 16.246 38.236 17.274.863.345 1.98.87 3.173 1.455-4.834 3.5-7.678 5.555-9.97 7.23-13.048-2.974-29.457-.69-33.27.215-15.5 3.665-29.713 10.65-40.03 19.656-10.51 9.19-18.385 19.74-21.057 28.237-2.98 9.443-2.02 16.155 2.85 19.935 7.163 5.58 16.42-.13 19.444-2.022 6.24-3.942 17.72-11.156 32.183-13.292 12.584-1.875 29.46-.16 37.213 4.905v13.707c-1.865 1.71-3.855 3.525-3.855 3.525-1.957 1.955-2.993 4.624-2.993 7.394 0 1.29.22 2.602.69 3.87 1.315 3.522 4.274 5.01 4.274 5.01 25.02 15.235 25.013 15.235 41.85 25.5-.24.09-.74.106-.93.19-2.22.98-7.366 4.2-7.366 13.19v36.61l21.767 20.79c4.82 4.83 9.505 5.62 12.57 5.413 3.816-.23 7.268-2.087 9.71-5.234l23.47-30.1c6.652 10.29 17.14 26.493 17.14 26.493-.114-.182.246.565.246.565 1.216 2.612 3.757 8.035 9.692 9.572 2.63.682 6.804.763 11.65-2.755 6.51-4.73 21.64-16.532 24.24-19.13l.475-.485c1.792-1.76 4.522-4.454 4.522-8.883v-34.95c0-3.756-2.015-8.506-6.643-10.365-3.37-1.355-7.235-1.355-11.855 2.4-2.05 1.677-5.566 4.215-10.69 8.088-2.966-4.733-4.544-7.263-6.79-10.84 4.398-5.546 14.87-18.735 20.715-26.113.755.6 2.285 1.8 2.285 1.8l.257.17c6.155 4.1 10.85 2.58 13.096 1.31 6.115-3.453 6.24-11.145 6.133-13.413l.017-29.353-18.504-19.13c-2.68-3.024-6.42-4.578-10.268-4.26-3.93.323-7.565 2.54-9.684 5.936-.997 1.43-9.79 12.48-18.925 23.853v-38.41c1.134-1.135 2.302-2.308 2.302-2.308 1.652-1.438 5.41-6.08 5.41-11.505 0-1.3-.224-2.637-.733-3.993-1.078-2.843-3.627-6.057-9.29-7.388 1.66-6.427 2.327-12.64 2.392-17.43.008-.454.017-.897.017-1.35 0-12.82-2.968-23.626-8.79-32.147-6.953-10.135-12.322-13.536-19.753-18.254l-1.92-1.215c-8.658-5.522-54.06-29.377-55.99-30.397-.166-.084-17.41-8.62-17.41-8.62-11.388-5.76-12.2-9.796-12.2-11.98 0-.14.01-.266.014-.39.257-1.322 3.355-6.105 9.857-6.105 6.668 0 11.346.213 20.125 3.154 13.9 4.66 14.294 10.32 14.303 12.417-.04.507-.46 6.375-.46 6.375l28.91 19.745 43.33-55.617L299.085 78l-4.652 4.668c-1.57 1.56-2.55 2.45-3.123 2.886l-2.508-.428-7.76-2.942C268.824 77.266 248.38 69 229.77 69c-32.53 0-49.61 15.458-64.313 31.277" fill="#FFF"/><path d="M169.81 104.484c-8.767 9.32-17.525 28.45-18.733 40.933-.4 4.183-.618 8.07-.618 11.693 0 12.745 2.56 22.434 8.15 31.762 7.13 11.89 18.495 21.702 32.872 28.377 15.298 7.09 35.776 16.26 38.02 17.18 4.192 1.7 10.548 5.16 12.224 6.95-2.196 1.587-18.957 13.74-20.026 14.513-11.023-3.576-28.36-1.58-33.277-.412-14.533 3.437-27.8 9.928-37.36 18.275-9.55 8.342-16.906 18.07-19.213 25.393-2.087 6.655-1.866 11.027.69 13.01 2.463 1.914 6.454 1.133 12.193-2.417 6.127-3.87 18.85-11.86 34.69-14.216 11.722-1.75 23.527-.394 32.363 1.8 0 0 6.823 2.104 12.224 5.736v20.263a1633.8 1633.8 0 0 0-5.737 5.235c-.797.79-1.127 1.858-1.127 2.88 0 .59.116 1.165.305 1.656.438 1.184 1.598 1.785 1.598 1.785l59.653 36.35 16.648-12.7c.96 1.618 2.194 3.665 2.87 4.79a25403.65 25403.65 0 0 1-18.456 22.55 12064.51 12064.51 0 0 1-13.33-11.875c-3.32-3.057-5.91-2.604-7.15-2.063-2.254.99-3.545 3.67-3.545 7.35v33.95l19.927 19.04c3.157 3.146 5.91 3.68 7.678 3.565 1.966-.124 3.765-1.11 5.08-2.785 0 0 23.028-29.56 29.036-37.26 2.268 3.5 22.064 34.11 22.064 34.11l.666 1.334c.994 2.118 2.483 5.307 5.516 6.097 1.916.49 4.028-.09 6.305-1.74 6.476-4.726 21.396-16.404 23.517-18.53l.492-.49c1.462-1.445 2.622-2.595 2.622-4.363v-35.013c0-1.653-.93-3.73-2.737-4.495-1.207-.52-3.18-.633-5.655 1.75.115-.1-12.018 9.064-16.138 12.178-1.595-2.548-11.863-18.908-12.923-20.6 1.346-1.678 25.663-32.33 27.53-34.672 1.84 1.456 7.037 5.53 7.037 5.53 2.647 1.76 4.8 2.12 6.527 1.143 3.083-1.742 2.934-6.986 2.9-7.575v-27.13l-16.9-17.496c-1.365-1.537-3.125-2.303-4.98-2.146-1.917.156-3.767 1.306-4.82 2.983-.895 1.42-13.965 17.75-23.156 29.19-2.39-1.91-5.78-3.28-7.612-3.887v-45.86c.61-.608 4.49-4.545 4.49-4.545.63-.556 3.22-3.55 3.22-6.68 0-.6-.083-1.198-.304-1.79-.986-2.604-4.01-3.92-8.992-3.92-.084 0-1.646.14-3.157.288 3.667-8.307 4.735-17.24 4.827-23.567.015-.42.024-.83.024-1.25 0-11.53-2.59-21.143-7.702-28.597-6.207-9.06-10.605-11.86-17.913-16.497l-1.95-1.24c-8.45-5.383-53.696-29.156-55.62-30.16-.04-.025-17.302-8.57-17.302-8.57-13.605-6.888-15.775-12.854-15.775-17.842 0-.227 0-.45.016-.672.137-4.11 6.024-12.113 16.266-12.113 7.12 0 12.495.247 22.18 3.484 12.585 4.225 18.7 10.34 18.7 18.703-.008.01-.214 2.977-.214 2.977l20.97 14.325 35.487-45.542-25.173-16.83-.97.96c-5.408 5.417-5.623 5.367-11.41 4.217-1.513-.302-4.768-1.625-8.903-3.293-11.8-4.767-31.563-12.753-48.964-12.753-30.023 0-45.396 13.854-59.74 29.287zm53.252 154.532l22.565-16.377v-.84c-.262-3.808-11.064-8.81-14.87-10.456-2.146-.92-22.935-10.182-37.872-17.117-13.77-6.386-24.642-15.753-31.423-27.07-4.95-8.274-9.24-19.006-7.073-41.432 1.12-11.67 9.63-30.25 17.84-38.978 13.845-14.883 28.624-28.236 57.315-28.236 16.75 0 36.143 7.833 47.734 12.51 4.45 1.807 7.68 3.105 9.503 3.467 6.354 1.273 8.04 1.044 13.4-4.175 1.857 1.24 17.517 11.72 19.975 13.354-1.99 2.555-29.636 38.03-31.378 40.283a20077.992 20077.992 0 0 1-16.827-11.498l.082-1.2c0-9.944-7.056-17.297-20.963-21.957-10.135-3.4-16.022-3.665-23.23-3.665-12.504 0-19.402 9.978-19.582 15.31-.33 8.62 5.113 15.286 17.585 21.604.025 0 17.288 8.553 17.288 8.553.436.23 47.013 24.686 55.332 30.003l1.965 1.248c7.17 4.56 11.13 7.06 16.968 15.565 4.875 7.14 7.275 16.535 7.086 27.916-.098 6.65-1.158 16.33-5.564 24.76l-1.42 2.703 8.785-.822c3.156.018 5.302.657 5.722 1.784.55 1.462-1.3 4.197-1.99 4.806l-5.74 5.843.116.534v48.97l1.194.36c2.655.773 7.333 2.663 8.616 4.43l1.27 1.75 1.357-1.684c2.37-2.933 23.117-28.712 24.457-30.834.508-.807 1.404-1.365 2.286-1.448.806-.058 1.554.29 2.228 1.044 0 0 13.746 14.24 16.073 16.633v25.87c0 .122.008.253.008.393 0 1.618-.394 3.74-1.224 4.207-.528.297-1.638-.056-2.946-.936 0-.008-9.544-7.495-9.544-7.495l-31.04 39.105 16.09 25.647 19.18-14.482c1.192-1.142 1.916-1.35 2.22-1.225.394.172.714.938.714 1.447v35.017c0 .385-.763 1.134-1.636 2.003l-.518.51c-1.857 1.858-16.334 13.24-23.13 18.177-1.432 1.036-2.615 1.448-3.528 1.217-1.504-.395-2.558-2.646-3.32-4.29l-.89-1.724-24.594-38.04-31.92 40.955c-.51.64-1.373 1.43-2.663 1.504-1.545.097-3.313-.806-5.112-2.597 0 0-17.97-17.176-18.964-18.11v-32.537c0-2.67.813-3.976 1.56-4.313.838-.362 2.187.196 3.593 1.486l15.935 14.2 22.138-27.035-5.992-9.977s-16.16 12.334-17.772 13.576c-1.882-1.14-57.832-35.23-57.92-35.285a1.214 1.214 0 0 1-.116-.494c0-.223.06-.435.15-.535l6.69-6.1.026-.75V301.2l-.772-.484c-4.514-2.893-8.163-5.013-14.674-6.657-10.983-2.78-23.93-3.268-32.95-1.83-16.506 2.63-29.66 10.707-35.966 14.693-6.07 3.755-7.966 2.942-8.406 2.605-.917-.724-1.357-3.608.46-9.393 2.1-6.673 9.25-16.05 18.21-23.89 9.17-8.004 21.93-14.234 35.953-17.545 5.51-1.306 22.64-3.008 32.325.518l.838.297.7-.502z" fill="#C4CED4"/><path d="M379.39 432.523h-2.5v6.814h-1.702v-6.814h-2.483v-1.48h6.683v1.48zm11.335 6.814h-1.684v-6.592H389l-2.393 6.592h-1.643l-2.318-6.592h-.04v6.592h-1.694v-8.293h2.935l1.932 5.417h.04l1.984-5.412h2.917v8.293z" fill="#231F20"/><path d="M379.177 331.052v-24.874l-15.563-13.987-43.1 53.49-6.05-9.65c5.244-3.92 12.02-8.95 12.776-9.33 1.233-.623 4.34-2.48 5.9-2.48 1.407 0-2.184-6.22-12.444-6.22V262.96l5.91-6.533s-7.193 1.135-10.587.1c-.72-.222-1.92-.798-3.4-1.56 1.93-3.082 3.666-6.575 4.965-10.65 7.053-22.303 2.432-42.888-14.313-55.577-11.747-8.9-60.026-33.322-60.026-33.322s-29.206-14.305-32.354-17.454c-2.252-2.25-6.83-5.752-6.83-16.79 0-6.58 7.323-13.837 10.48-15.324 5.063-2.4 6.714-3.534 16.95-3.682 5.794-.08 11.18 1.307 11.903 1.388 6.37.676 21.454 5.65 29.246 16.175 2.968 2.975 3.56 11.7 3.56 11.7l12.14 7.775 26.448-34.515-14.32-9.64c-4.046 4.356-11.814 4.66-14.923 3.114-3.114-1.56-29.814-11.282-33.603-12.49-7.153-2.283-22.705-3.993-31.1-2.753-8.4 1.25-22.186 3.8-32.98 15.246-12.585 13.363-12.75 24.095-12.75 29.847 0 9.024 2.336 20.948 12.44 31.047 14.574 14.56 36.703 23.682 41.685 26.435 8.85 4.89 36.72 19.466 40.74 21.81 17.12 9.95 23.65 20.527 21.79 33.896-.097.66-.303 1.275-.452 1.9-7.497-4.404-18.035-11.044-22.27-15.27 0 0-2.556 2.72-4.2 4.35l-12.41 9.293c1.463-6.03 1.634-16.343 1.38-17.37-.32-1.25-1.25-11.2-9.954-17.414-5.91-4.225-19.13-12.13-30.48-17.726-4.877-2.407-20.733-11.99-28.31-18.3 0 0-13.06-12.17-15.083-19.64-3.897-8.554-4.053-28.76-2.026-30.783 0 0-4.973 5.597-8.395 16.798-1.67 5.466-2.8 12.59-2.8 17.414 0 8.08 1.396 22.23 10.275 34.203 3.903 5.276 10.032 11.275 16.51 15.564 7.933 5.226 15.915 8.3 16.45 8.684 2.18 1.552 22.713 10.213 24.58 11.15 1.857.937 11.27 5.31 13.267 6.377 7.093 3.788 10.744 6.22 12.98 12.253l-21.284 15.935s.935 1.7.935 4.348v2.013c-2.87-.944-5.786-1.776-8.705-2.277-13.992-2.382-22.507-2.235-33.588.5-12.29 3.034-25.198 7.99-37.328 20.12-13.7 13.688-13.53 22.868-13.53 22.868l13.68-8.07c11.445-6.433 26.506-10.27 37.176-10.27 25.425 0 38.62 7.338 42.293 11.42v24.646c0 4.9-1.47 5.515-2.566 6.453-.42.36-.773.384-2.253 1.397 0 0 1.876.698 2.336 1.168 1.24.928 49.668 30.167 49.668 30.167l18.75-13.733 9.26 14.74-25.73 31.943-17.73-16.17v30.166l20.22 18.662 35.694-44.804 29.306 46.66 23.65-18.957v-29.856l-18.972 14.3-19.227-30.652 34.773-43.66 11.515 9.327zm-120.85-67.162l11.047-8.087c3.002 2.498 6.537 4.767 10.054 6.79-.23.203-.42.36-.42.36s-12.733 10.895-20.682 12.012V263.89h.002zm19.344 70.892l-19.34-11.807v-29.297c8.106-1.437 27.876-10.854 38.1-21.086.13 1.93.09 21.506.06 34.77l-11.88-18.91-18.083 12.852v23.01l10.004-6.633 7.498 11.94-6.354 5.166z" fill="#000"/></g></svg>