<svg width="512" height="512" viewBox="0 0 512 512" xmlns="http://www.w3.org/2000/svg"><title>cincinnati-reds</title><g fill="none" fill-rule="evenodd"><path d="M280.842 386.41C387.772 386.41 449 316.89 449 253.795 449 178.24 364.253 125 273.76 125v.005c-72.648 0-123.01 42.807-150.392 75.217C85.772 244.734 65 250.406 65 250.406c29.118 25.402 42.82 38.325 56.334 52.89 38.135 41.087 69.716 83.113 159.508 83.113z" fill="#C6011F"/><path d="M278.982 368.492c-77.682 0-108.226-33.177-144.197-71.216-14.75-15.593-23.98-29.684-47.865-47.233l4.91 11.305c22.962 18.712 32.452 32.23 47.202 47.82 35.968 38.04 65.99 67.98 143.67 67.98 68.017 0 120.654-33.452 145.413-74.636l-3.727-8.662c-24.753 41.18-77.4 74.642-145.406 74.642z" fill="#000"/><path d="M280.97 174.8c-75.97 0-105.8 50.29-105.8 74.37 0 13.966 4.086 26.24 11.037 36.698-4.555-8.506-5.623-21.32-5.623-29.608 0-24.093 28.68-72.634 102.967-72.634 44.677 0 78.39 20.54 89.71 38.36h56.258c-1.03-2.034-3.545-8.83-3.545-8.83H372.26c-11.32-17.82-46.614-38.355-91.286-38.355z" fill="#000"/><path d="M134.785 297.274c35.97 38.04 66.515 71.216 144.197 71.216 68.007 0 120.653-33.462 145.406-74.642H371.27c-24.85 18.795-55.298 33.958-94 33.958-35.726 0-73.05-14.837-91.063-41.938-6.95-10.46-11.038-22.734-11.038-36.698 0-24.08 29.824-74.37 105.8-74.37 44.67 0 79.96 20.536 91.28 38.356h53.715c-24.913-48.987-89.224-78.512-153.535-78.512-63.167 0-111.43 36.28-139.137 68.954-36.71 43.305-46.377 46.445-46.377 46.445 23.886 17.55 33.115 31.64 47.865 47.23z" fill="#FFF"/><path d="M312.62 244.252h-11.95v-5.7h-17.86v11.592h5.883v-5.736h11.777l6.08 5.708h11.95V234.29l-5.88-5.857v15.82zm-49.647 37.173l5.805 5.857H318.5v-15.47l-5.88-5.858v15.47h-49.647zm19.835-21.345v11.582h5.883v-5.722h14.7V256l-5.88-5.856v9.935h-14.7zm-19.835-21.528l5.805 5.856h2.082v-5.856h-7.887zm-68.316 0l5.874 5.856h2.09v-5.856h-7.96zm0 42.873l5.874 5.857h27.89v-9.75l-5.882-5.858v9.75H194.66zm42.78-24.055l6.2 14.304h3.345l-3.666-8.446 8.852-7.228v-11.654l-5.88-5.852v11.65l-8.85 7.226zm-22.87 2.587v11.717h5.88v-5.86h7.925l-2.522-5.857h-11.284zm35.73 21.468H235.11l5.88 5.857h15.187v-9.75l-5.885-5.858v9.75zm-15.962-37.017v-3.346l-3.02-2.51h-16.75v11.642h5.882v-5.786h13.888z" fill="#000"/><path d="M282.808 238.552h17.86v5.7h11.953v-15.82H262.9v10.12h7.966v33.11h-7.887v.012h-.08v9.75h49.723v-15.47h-11.95v5.708h-17.86V260.08h14.7v-9.936h-14.7v-11.592zm-32.512 33.122h-6.656l-6.2-14.304 8.85-7.226v-11.65l-12.02-10.062h-39.613v10.118h7.964v33.124h-7.96v9.75h27.88v-9.75h-7.97v-11.717h11.283l2.525 5.857 6.738 15.61H250.3v-9.75zm-29.85-21.48h-5.882v-11.642h16.75l3.02 2.51v6.733l-2.88 2.4h-11.007z" fill="#FFF"/><path d="M325.24 238.552l5.796 5.856h2.085v-5.856h-7.88zm37.69 5.856v-3.346l-3.013-2.51H345.07v33.11h5.877v-27.254h11.984z" fill="#000"/><path d="M374.877 271.612l-12.01 9.813H325.24l5.796 5.857H365l15.76-12.86v-30.076l-5.883-5.852v33.118zm39.293-11.532H399.1l-11.952-9.936 18.93 15.796h11.093v-3.367l-3-2.494zm20.757 5.86l-5.877-5.86.07 11.396-12.008 10.062H402.16l-3.132-2.632v2.766h-11.88l5.88 5.858h11.878v-2.772l3.136 2.63h11.466l15.47-12.632-.05-8.816zm-17.757-21.688v-3.182l-3.054-2.543-11.768.016-3.07 2.55v6.57l2.986 2.48h2.896v-3.196l3.065-2.544 8.766-.014 6.066 5.722h11.875V234.29l-5.877-5.857v15.82h-11.88zm-15.23 27.326l3.193.023-6.105-5.752v3.323l2.912 2.41z" fill="#000"/><path d="M374.877 271.612v-33.118l-12.01-10.062h-37.712v10.118h7.968v33.112h-7.883v.014h-.085v9.75h37.712l12.01-9.814zm-23.93.05h-5.878v-33.11h14.843l3.014 2.51v28.203l-2.88 2.397h-9.104zm48.08 7.244l3.13 2.632h14.955l12.01-10.062-.072-11.397-11.95-9.94h-14.835l-2.985-2.48v-6.57l3.068-2.55 11.768-.017 3.055 2.543v3.18h11.88v-15.82h-11.88v2.58l-3.073-2.58H399.35l-12.2 10.064v11.65l11.952 9.936h15.07l3 2.493v6.68l-2.9 2.415-9.137-.07-3.193-.022-2.912-2.41v-3.324h-11.88v15.83h11.88V278.9z" fill="#FFF"/><path d="M417.274 351.59h-3.824v10.348h-2.582V351.59h-3.815v-2.25h10.223v2.25h-.002zm17.292 10.338h-2.583v-10.022h-.06l-3.663 10.022h-2.48l-3.54-10.022h-.06v10.032h-2.59v-12.6h4.47l2.947 8.23h.055l3.07-8.23h4.436v12.59h-.002z" fill="#000"/></g></svg>