<svg width="512" height="512" viewBox="0 0 512 512" xmlns="http://www.w3.org/2000/svg"><title>cincinnati-reds</title><g fill="none" fill-rule="evenodd"><g id="Shape"><path d="M280.842 386.41C387.772 386.41 449 316.89 449 253.795 449 178.24 364.253 125 273.76 125v.005c-72.648 0-123.01 42.807-150.392 75.217C85.772 244.734 65 250.406 65 250.406c29.118 25.402 42.82 38.325 56.334 52.89 38.135 41.087 69.716 83.113 159.508 83.113z" fill="#FF0028"/><path d="M278.982 368.49c-77.682 0-108.226-33.175-144.197-71.215-14.75-15.592-23.98-29.684-47.865-47.232l4.91 11.305c22.962 18.71 32.45 32.23 47.202 47.82 35.968 38.04 65.99 67.98 143.67 67.98 68.017 0 120.653-33.453 145.412-74.636l-3.726-8.662c-24.754 41.18-77.4 74.64-145.406 74.64z" fill="#000"/><path d="M280.97 174.8c-75.97 0-105.8 50.29-105.8 74.37 0 13.966 4.086 26.24 11.037 36.698-4.555-8.506-5.623-21.32-5.623-29.608 0-24.093 28.68-72.634 102.967-72.634 44.673 0 78.39 20.538 89.71 38.36h56.253c-1.03-2.034-3.544-8.83-3.544-8.83h-53.715c-11.32-17.822-46.614-38.355-91.286-38.355z" fill="#000"/><path d="M134.785 297.274c35.97 38.04 66.515 71.216 144.197 71.216 68.007 0 120.652-33.462 145.406-74.642H371.27c-24.85 18.795-55.298 33.957-94 33.957-35.726 0-73.05-14.836-91.063-41.937-6.95-10.46-11.038-22.734-11.038-36.698 0-24.08 29.828-74.37 105.8-74.37 44.67 0 79.964 20.536 91.285 38.356h53.714c-24.913-48.987-89.225-78.512-153.536-78.512-63.168 0-111.43 36.28-139.137 68.954-36.712 43.304-46.377 46.445-46.377 46.445 23.886 17.548 33.114 31.64 47.865 47.23z" fill="#FFF"/><g><path d="M312.62 244.253H300.67v-5.7h-17.86v11.59h5.883v-5.734h11.777l6.08 5.706H318.5V234.29l-5.88-5.856v15.82z" fill="#000"/><path d="M262.973 281.425l5.805 5.858H318.5v-15.47l-5.88-5.858v15.47h-49.647z" fill="#000"/><path d="M282.808 260.08v11.582h5.883v-5.722h14.7V256l-5.883-5.856v9.935h-14.7z" fill="#000"/><path d="M262.973 238.553l5.805 5.856H270.86v-5.857h-7.887z" fill="#000"/><path d="M194.657 238.553l5.874 5.856h2.09v-5.857h-7.963z" fill="#000"/><path d="M194.657 281.425l5.874 5.858h27.887v-9.75l-5.883-5.86v9.752h-27.877z" fill="#000"/><path d="M237.437 257.37l6.2 14.304h3.345l-3.666-8.446 8.852-7.228v-11.653l-5.88-5.853v11.65l-8.85 7.227z" fill="#000"/><path d="M214.566 259.957v11.717h5.88v-5.86h7.926l-2.522-5.857h-11.284z" fill="#000"/><path d="M250.296 281.425h-15.184l5.88 5.858h15.187v-9.75l-5.884-5.86v9.752z" fill="#000"/><path d="M234.335 244.41v-3.347l-3.02-2.51h-16.75v11.64h5.882v-5.784h13.888z" fill="#000"/><path d="M282.808 238.553h17.86v5.7h11.953v-15.82h-49.725v10.12h7.966v33.108h-7.887v.012h-.078v9.75H312.62v-15.47H300.67v5.708H282.81V260.08h14.7v-9.936h-14.699v-11.59z" fill="#FFF"/><path d="M250.296 271.674h-6.656l-6.2-14.303 8.85-7.226v-11.65l-12.02-10.062h-39.613v10.12h7.964v33.121h-7.963v9.75h27.88v-9.75h-7.972v-11.717h11.284l2.524 5.858 6.738 15.61h15.184v-9.75zm-29.85-21.48h-5.882v-11.64h16.75l3.02 2.51v6.731l-2.88 2.4h-11.007z" fill="#FFF"/><path d="M325.24 238.553l5.796 5.856h2.085v-5.857h-7.88z" fill="#000"/><path d="M362.93 244.41v-3.347l-3.013-2.51H345.07v33.11h5.877v-27.254h11.984z" fill="#000"/><path d="M374.877 271.612l-12.01 9.813H325.24l5.796 5.858H365l15.76-12.86v-30.076l-5.883-5.853v33.118z" fill="#000"/><path d="M414.17 260.08H399.1l-11.952-9.936 18.93 15.796h11.093v-3.367l-3-2.494z" fill="#000"/><path d="M434.927 265.94l-5.877-5.86.07 11.396-12.008 10.062H402.16l-3.132-2.632v2.767h-11.88l5.88 5.858h11.878v-2.772l3.136 2.63H419.508l15.47-12.632-.05-8.816z" fill="#000"/><path d="M417.17 244.253v-3.183l-3.054-2.542-11.768.016-3.07 2.55v6.57l2.986 2.48h2.896v-3.197l3.065-2.544 8.766-.014 6.062 5.726h11.875V234.29l-5.877-5.856v15.82h-11.88z" fill="#000"/><path d="M401.94 271.58l3.193.022-6.105-5.757v3.323l2.912 2.41z" fill="#000"/><path d="M374.877 271.612v-33.118l-12.01-10.062h-37.712v10.12h7.968v33.109h-7.883v.014h-.085v9.75h37.712l12.01-9.814zm-23.93.05h-5.878v-33.11h14.847l3.014 2.51v28.203l-2.88 2.397h-9.103z" fill="#FFF"/><path d="M399.028 278.906l3.13 2.632h14.954l12.01-10.062-.072-11.397-11.95-9.936H402.265l-2.985-2.48v-6.57l3.068-2.55 11.768-.016 3.055 2.542v3.183h11.88v-15.82h-11.88v2.578l-3.077-2.576h-14.748l-12.197 10.06v11.65l11.953 9.935h15.07l3 2.493v6.68l-2.9 2.418-9.137-.068-3.193-.023-2.912-2.412v-3.323h-11.88v15.828h11.88v-2.767z" fill="#FFF"/></g></g><path d="M417.274 351.59h-3.824v10.348h-2.582V351.59h-3.815v-2.25h10.223v2.25h-.002zm17.292 10.338h-2.583v-10.022h-.06l-3.663 10.022h-2.48l-3.54-10.022h-.06v10.032h-2.59v-12.6h4.47l2.947 8.23h.055l3.07-8.23h4.436v12.59h-.002z" fill="#000"/></g></svg>