<svg width="512" height="512" viewBox="0 0 512 512" xmlns="http://www.w3.org/2000/svg"><title>colorado-rockies</title><g fill="none" fill-rule="evenodd"><path d="M147.74 264.23l-14.188 29.392h33.36l93.25-70.854-78.278 70.593h5.78l74.074-53.01-59.628 53.272h6.567l60.94-40.675-46.49 40.414 6.566.262 54.635-32.278-40.715 32.017 6.305.524 53.324-28.603-39.14 28.08h119.78l-26.27-34.902-10.506 1.575-10.243-17.58-52.535-47.237-29.155-26.768-35.463 45.137-19.7-6.037-32.834 52.22-8.932-1.572-3.938 6.823-6.567-.79z" fill="#4C3576"/><path d="M179.784 253.473l22.852-37.527 19.702 5.25 32.57-42.513L278.393 206l-1.05 2.886-5.358-3.437-6.042 5.51-3.154-13.645-7.615 9.186-3.942-5.774-31.52 26.242-6.305-5.25-16.547 20.21-2.89-2.626-14.184 14.17z" fill="#FFF"/><path d="M338.964 260.034l-6.943-12.907-4.853 2.84s4.966 5.343 6.28 6.13c1.315.786 5.517 3.937 5.517 3.937z" fill="#FFF"/><path d="M374.57 281.027h76.82v-5.772s-13.66-.262-13.66 0c-1.865-20.15-18.1-76.383-71.308-115.76-27.228-21.363-63.41-37.313-110.463-38.806-60.153 2.098-84.056 19.155-109.01 35.163C81.544 202.04 73.138 274.73 73.138 274.73H60.266v6.033h79.48l2.86-5.77h-16.933S140.12 183.67 247.29 172.385c-.26.263 8.407-9.445 8.407-9.445l9.456 9.445s14.447 1.575 23.904 4.46c9.455 2.888 18.386 6.824 18.386 6.824s-31.24 2.908-32.57 36.214C277.196 248.86 301.924 254 308.757 254c6.828 0 33.62-.79 37.034-34.116 0-7.612-1.84-12.335-1.84-12.335s13.398 9.71 25.482 29.39 14.973 37.79 14.973 37.79h-14.53l4.692 6.297z" fill="#161413"/><path d="M315.848 303.725v-4.723h27.712v5.377s-4.99-1.05-6.435 2.364c-1.445 3.412-1.05 22.698-1.05 22.698s-.395 18.763.264 20.338c.654 1.573 1.178 5.116 4.067 5.51 2.89.394 3.284.92 3.284.92v4.2h-27.71v-4.593s4.202-.264 5.515-2.494c1.314-2.23 1.05-4.46 1.05-4.46v-20.077l-.262-19.156s.395-2.23-.917-3.543c-1.312-1.313-3.153-2.362-5.518-2.362z" fill="#161413"/><path d="M163.76 297.035c17.074 0 29.552 11.547 29.552 32.408 0 20.862-12.478 31.754-31.127 32.803-18.388-1.05-28.633-12.465-28.633-33.065 0-20.598 13.66-31.096 30.208-32.145zM148 331.018c2.364 25.323 12.61 25.85 17.73 25.85 5.123 0 16.024-7.613 12.74-30.575-3.283-22.962-12.74-23.878-17.467-23.878-3.81.525-15.367 3.278-13.002 28.603z" fill="#161413"/><path d="M104.002 354.896v5.25H70.116v-5.117s6.96-.526 8.144-3.543c1.182-3.02.918-3.938.918-3.938v-46.71c0-2.756-2.495-4.33-4.858-4.988-2.365-.654-4.072-.654-4.072-.654v-5.513s3.808.262 8.144 0c4.334-.264 12.084-1.05 19.7-1.05 7.617 0 31.52.134 31.52 19.55.92 15.09-13.92 18.764-13.92 18.764s-.395 1.705 1.05 2.493c1.444.787 1.84 1.575 1.84 1.575s5.383 9.708 6.17 11.154c.79 1.44 4.203 9.05 6.174 10.495 1.97 1.442 6.96 2.362 6.96 2.362v5.246h-20.488L99.8 331.282s-1.97-.788-2.76-.788c-.788 0-2.1.39-2.1.39l-.263 16.142s-.394 4.328 1.707 6.036c2.1 1.706 7.618 1.834 7.618 1.834zm-3.022-30.57c2.1-.263 11.952-2.623 11.034-15.878 0-13.776-10.113-14.563-13.66-14.563-3.545 0-3.677.525-3.677.525v30.18s4.202 0 6.303-.263z" fill="#161413"/><path d="M167.964 265.545l-6.567-1.313-5.517 8.397 12.084-7.085z" fill="#FFF"/><path d="M346.318 267.642l7.62-1.835 5.252 7.083-12.872-5.248z" fill="#FFF"/><path d="M311.12 188.656s11.56.524 17.6 5.773c14.183 10.758 11.56 20.47 11.56 20.47l-1.84.258s-1.314-3.936-2.365-3.936c-1.05 0-1.18.788-1.18.788l.656 2.363h-2.233s-.788-3.542-2.233-3.542c-1.444 0-.918 1.442-.918 1.442l-.133 2.363-1.838-.132s-1.706-4.198-3.022-3.017c-1.313 1.18-.394 1.705-.394 1.705s1.314 2.1-.132 2.1c-1.443 0-2.758-1.705-2.758-1.705s-.788-1.97-1.574-1.313c-.788.658-.657 1.575-.657 1.575l1.05 2.1-1.577.657s-2.89-2.363-3.547-2.363-2.1 1.05-1.18 1.576c.916.524 1.838 1.05 1.838 1.705 0 .657-.922.92-.922.92l-1.312.393s-2.627-2.755-3.546-1.706c-.92 1.05.395 2.1.395 2.1l.918 1.313-1.05.787s-1.84-.264-2.365-.655c-.526-.396-1.706-1.052-2.103-.264-.39.787.397 1.575.397 1.575l1.837 1.31-2.1 1.313s-2.628-1.574-3.152-1.05c-.526.526-.79 1.97-.79 1.97l2.103 1.18-.396 1.05-1.313.394s-1.972-.656-2.627-.394c-.657.262-.657 1.967-.657 1.967s.92 1.05 1.445 1.05 1.972.13 1.05.92c-.918.787-1.312.787-1.312.787s-3.284-.788-3.81.655c-.524 1.443 1.446 1.705 1.446 1.705s1.97-.13 1.838.526c-.133.656-.657 1.31-.657 1.31l-2.1.265s-1.84.263-1.97 1.444c-.133 1.18 1.443 1.312 1.443 1.312s2.234-.394 1.84.917c-.394 1.314-2.495 1.446-2.495 1.446s-1.707 0-1.707 1.048c0 1.05.787 1.573.787 1.573s3.022-.26 2.76.92c-.263 1.182-1.446 1.05-1.446 1.05s-17.598-7.086-17.598-25.323c-.264-3.15-.133-6.692-.133-6.692s.393-1.576 1.315-.262c.92 1.31 1.05 1.443 1.838 1.443s.526-1.97.526-1.97l-.264-1.574s.655-.524 1.315-.524c.655 0 1.838 3.28 2.624 3.28.79 0 1.84-.787 1.84-.787s-.13-1.05-.392-1.574c-.264-.524-.79-1.312-.79-1.312l1.97-.787s1.05 1.313 1.576 1.837c.525.526 1.446 1.05 1.973.787.524-.26.262-1.31.262-1.31l-1.315-2.23 1.97-.656s2.103 2.228 2.758 2.228c.66 0 1.183-.785 1.183-.785s.132-.788-.26-1.443c-.396-.658-1.577-1.052-.396-1.97 1.183-.917 1.97 0 1.97 0s1.314 1.576 1.97 1.576c.657 0 1.707-1.182 1.05-2.1-.656-.92-1.577-.92-1.577-.92l.526-1.442s1.184-.394 2.234.13c1.05.526 3.15 1.05 3.15-.13 0-1.18-.916-1.575-.916-1.575l-1.183-.524s.134-1.444.79-1.444 1.31-.394 2.233 0c.917.394 1.05.524 1.838.262.786-.262.524-1.444-.526-2.1-1.05-.655-1.84-.13-1.708-1.313.133-1.18 1.97-.785 1.97-.785l2.627.13.92-1.573s-.524-.92-1.048-.92c-.528 0-1.84-.262-1.84-1.18 0-.92 1.05-.92 1.97-.92.918 0 2.757 0 2.888-.525.133-.523.133-1.705.133-1.705s-1.84.13-2.365-.132c-.526-.26-.657-1.18-.657-1.18z" fill="#FFF"/><path d="M83.118 294.54h7.488v60.227h-7.488V294.54z" fill="#C9CCD1"/><path d="M111.358 294.54s13.396 1.574 13.396 14.303c0 12.727-13.134 15.22-13.134 15.22s4.072-3.674 4.072-15.35c0-11.68-4.334-14.172-4.334-14.172z" fill="#C9CCD1"/><path d="M103.476 331.018s4.204-1.444 5.517-1.444h3.415s3.808 3.807 4.728 5.772c.92 1.97 11.032 19.027 11.032 19.027h-11.032l-13.66-23.355z" fill="#C9CCD1"/><path d="M149.182 304.906s-5.777 8.53-4.726 23.75c0 16.664 7.485 25.848 7.485 25.848s-15.234.13-15.234-24.142c.262-20.338 12.476-25.456 12.476-25.456z" fill="#C9CCD1"/><path d="M174.66 303.594s15.368 3.676 15.368 24.01c0 20.337-11.557 26.376-11.557 26.376s3.68-4.856 3.68-25.85c-1.71-18.107-7.49-24.536-7.49-24.536z" fill="#C9CCD1"/><path d="M58.69 367.1h392.96v6.562h-16.546v9.97h-359.6v-10.496H58.69V367.1z" fill="#161413"/><path d="M197.646 330.36c0-18.37 11.557-32.933 32.965-32.933 8.145 0 13.265 3.017 13.265 3.017s3.022-1.966 3.81-1.966c.79 0 .79 1.05.79 1.05l.787 20.074h-3.678s-3.15-16.4-15.89-16.4-17.996 13.512-17.996 26.897c0 13.382 7.356 26.24 18.387 26.24 11.033 0 17.338-14.566 17.338-14.566s.392-.916 1.313-.916c.92 0 2.103.393 2.103.393l.13 1.312-4.73 18.765s-4.728-.526-6.83-.526c-2.102 0-13.657 1.312-15.498 1.312-1.837 0-26.266-2.622-26.266-31.75z" fill="#161413"/><path d="M208.415 330.36c0 14.303 7.487 23.75 7.487 23.75s-15.235-2.495-15.235-23.092c0-20.6 13.396-25.456 13.396-25.456s.79.264.262 1.313c-.526 1.05-5.91 9.184-5.91 23.486z" fill="#C9CCD1"/><path d="M326.16 304.053h6.958v50.91h-6.96v-50.91z" fill="#C9CCD1"/><path d="M252.15 303.726l.263-4.723h27.713v4.854s-6.173-.13-6.566 3.28c-.395 3.412-.526 19.55-.526 19.55l16.94-19.155s.788-.918.526-1.838c0-1.704-2.89-2.1-2.89-2.1v-4.722h22.59v5.118s-6.696-.264-9.325 1.967c-3.677 1.837-15.76 16.534-15.76 16.534s5.254 6.56 8.274 11.02c3.02 4.463 10.64 16.926 11.82 17.844 1.183.92 1.71 2.888 4.86 3.807 3.15.92 3.677.524 3.677.524v4.856h-29.682v-5.117s4.73.523 4.73-1.706c0-2.23-1.84-6.69-5.123-10.495-3.284-3.807-8.01-10.236-10.245-10.5-.13 2.363 0 18.11 0 18.11s.262 2.623 2.234 3.936c1.968 1.31 4.597.916 4.597.916v4.856H252.28v-4.723s5.912 0 6.436-3.542c.526-3.545.526-4.333.526-4.333v-39.098s0-3.15-2.495-4.07c-2.495-.917-4.596-1.048-4.596-1.048z" fill="#161413"/><path d="M348.026 304.118v-4.985h45.97l.917 14.828h-4.332s1.182-8.267-4.73-8.267h-16.547v20.6s4.597.525 6.305.525c1.707 0 6.96-.656 7.223-2.886.265-2.23 1.182-4.723 1.182-4.723h3.15v20.86h-3.412s-.452-6.084-3.94-6.69c-3.02-.526-4.333-.66-5.515-.66-1.183 0-4.86.79-4.86.79v18.238s.657 2.36 3.415 2.36h12.477c.92 0 4.332-.785 5.254-2.23.92-1.443 3.283-8.005 3.283-8.005h3.808l-1.442 16.667h-48.99v-5.118s4.992.395 6.7-.92c1.705-1.31 2.1-1.835 2.1-1.835l-.262-42.25s.393-4.068-2.496-5.512c-2.89-1.442-5.254-.787-5.254-.787z" fill="#161413"/><path d="M359.256 303.79h6.96v51.698h-6.96V303.79z" fill="#C9CCD1"/><path d="M418.16 288.636c9.064 0 14.58 2.232 14.58 2.232s.917.394 1.443 0c.526-.393 1.707-1.575 1.707-1.575h2.627l1.184 20.73-4.596-.392s-2.103-14.958-15.5-14.958c-10.638 1.31-8.01 11.154-4.596 12.86 7.224 7.61 27.582 14.56 27.582 33.327 0 18.76-17.074 21.912-20.884 21.912-3.81 0-14.185-2.758-15.63-2.89-1.444-.13-2.625 1.97-2.625 1.97h-2.23l-2.366-22.176 3.808-.13s3.153 8.134 5.254 10.104c2.103 1.965 4.466 6.56 11.296 6.56 6.828 0 9.193-5.644 9.193-10.63 0-4.983-8.405-11.81-11.558-13.775-3.153-1.97-17.338-8.004-17.338-23.62 0-15.61 9.587-19.55 18.65-19.55z" fill="#161413"/><path d="M406.866 299.264s-.262 5.25 3.94 9.71c6.566 8.922 27.712 14.302 27.712 30.573-.917 11.94-6.697 14.695-6.697 14.695s.658-2.494.658-9.053c0-8.924-13.266-16.273-13.266-16.273s-15.76-8.92-15.76-19.68c0-8.922 3.414-9.973 3.414-9.973z" fill="#C9CCD1"/><path d="M299.17 247.83l.26-.918s2.76 1.31 3.02.788c.265-.526.134-1.97.134-1.97l-1.71-1.05s-1.838 0-1.574-1.442c.262-1.443 1.446-.394 1.446-.394l1.705.788v-2.755s-2.1-.787-2.1-1.837c0-1.05.658-1.05.658-1.05l2.1 1.442s1.05-.262 1.05-.917c0-.656-.128-1.182-.128-1.182l-2.105-1.967s-.262-1.443.79-1.443c1.05 0 1.84 1.705 1.84 1.705s1.18-.526 1.05-1.443c-.132-.918-.79-1.705-.79-1.705s-1.182-1.182-.918-1.97c.262-.787 1.183-.655 1.183-.655s.788 1.97 1.577 1.97c.786 0 1.705-1.183 1.312-1.97-.396-.786-1.446-2.493-1.446-2.493s.133-1.05.786-1.05c.66 0 1.972 2.1 1.972 2.1s1.445.525 1.445-.656c0-1.18-.395-2.495-.395-2.495s-.92-1.178.13-1.704c1.053-.524 1.053.526 1.315 1.05.262.525.92 1.97 1.444 1.313.527-.66.922-1.838.922-1.838s-.526-.92-.526-1.837c0-.918.526-1.314.526-1.314s1.05-1.31 1.18-.522c.133.787.133 2.1.264 2.492.13.394 1.707.394 1.838-.26.13-.657.262-1.05.262-1.05s-.526-1.05-.13-1.838c.392-.788-.132-1.18.657-1.18.788 0 1.314 1.704 1.314 1.704s0 1.575.655 1.443c.657-.13 1.446-1.312 1.446-2.362s.393-2.23 1.312-2.36c.92-.132.13 2.492.13 2.492s.658 1.182 1.185.918c.524-.262 1.18-.918 1.18-.918l1.053-3.018h1.444s-.526 2.754.13 2.886c.658.132 1.577-.262 1.577-.262s.392-1.707.788-2.23c.393-.526 1.705-.656 1.705-.656s.395 0 .262.788c-.13.785-1.05 2.098 0 2.36s1.972 0 1.972 0 .657-3.412 2.1-3.28c1.446.132-.26 2.363-.26 2.363s.132 1.18 1.05 1.444c.92.262 2.1-1.443 2.1-1.443s.657-1.313 1.445-1.05c.788.263-.788 2.362-.788 2.362s1.576 2.1 1.576 2.755c0 .655-1.445 13.515-13.658 21.78-13.004 9.973-28.763 3.543-28.763 3.543z" fill="#FFF"/><path d="M281.834 210.173c-.526.658-1.315.526-1.315.526l-.658-.395s4.203-11.414 12.61-16.27c8.403-4.855 13.788-5.117 13.788-5.117l-.917 1.967.393 1.182s2.234 1.31 1.312 2.23c-.917.92-2.232-.525-2.232-.525s0-1.573-1.05-.524c-1.05 1.05-.262 2.493-.262 2.493s1.97 1.706 1.05 2.625c-.92.918-1.707-.787-1.707-.787s-.657-1.444-1.446-.656c-.787.788-.392 2.1-.392 2.1s1.84 2.885.393 3.017c-1.442.13-2.1-2.625-2.1-2.625s-1.443 1.443-1.443 2.1c0 .654 1.706 2.36.262 3.28-1.446.918-1.708-1.444-1.708-1.444s-.79-1.836-1.577-.917c-.788.918-.262 2.36-.262 2.36s.524 2.494-.66 2.494c-1.18 0-1.44-.918-1.44-.918s.128-2.757-.79-2.232c-.92.524-1.05 1.97-1.05 1.97s.787 3.148-.92 3.148c-1.706 0-.918-2.1-.918-2.1s-.264-2.1-1.183-1.706c-.922.393-.922 1.575-.922 1.575l-.393 2.756-1.836.393s.394-1.705.13-2.36c-.262-.656-.656-.92-1.313-.92-.655 0-1.314 1.18-1.314 1.18s.395 1.445-.13 2.1z" fill="#FFF"/><path d="M307.31 188.524s2.365 1.18 1.71 1.967c-.657.79-1.446-.13-1.446-.13l-.788-1.048.524-.788z" fill="#161413"/><path d="M411.462 225.787c4.203 7.48 7.223 17.977-2.89 24.667-10.113 6.693-20.75-.787-23.772-6.954-3.02-6.167-6.96-15.614 4.072-23.748 8.536-4.593 18.387-1.443 22.59 6.035z" fill="#C9CCD1"/><path d="M410.02 227.756c1.18 1.967 4.858 8.266-5.255 15.744-10.114 7.48-17.602 1.443-18.52-1.18-.918-2.624-3.938-10.366 6.698-16.14 10.64-5.772 15.893-.393 17.076 1.576z" fill="#161413"/><path d="M367.595 171.99s7.75 6.826 9.982 9.056c2.234 2.23 16.418 14.565 4.73 26.24-11.692 11.68-26.27-3.805-27.715-5.378-1.443-1.576-3.544-3.936-4.728-5.118-1.18-1.18-4.463-4.068-4.463-4.068l1.05-1.443s1.97 1.574 2.495 1.706c.528.13 1.84 0 1.84 0s14.972-13.515 15.89-14.564c.92-1.05.658-2.887.658-3.543 0-.658-1.05-2.1-1.05-2.1l1.312-.79z" fill="#C9CCD1"/><path d="M356.038 197.183l15.89-14.694s1.183-1.97 2.63-.66c1.442 1.315 7.353 5.774 6.565 12.205-.788 6.43-7.223 13.383-14.578 12.334-7.354-1.05-10.507-6.038-10.507-6.038s-1.577-1.05 0-3.15z" fill="#161413"/><path d="M328.456 147.587l5.65 3.41s-2.628 27.818-2.497 28.474c.13.656.26 1.576 1.05 2.493.785.918 1.18.918 1.18.918l-.26.92-13.922-6.167.786-1.705 2.496 1.312s2.232.655 2.494-1.444c.264-2.098.395-7.478.395-7.478l-9.06-4.855-5.388 4.855s-1.18 1.573-.39 2.493c.785.918 2.886 1.968 2.886 1.968l-.524 1.575-11.558-5.247 1.05-1.575s2.1 1.968 4.86-.393c2.757-2.363 20.75-19.55 20.75-19.55z" fill="#C9CCD1"/><path d="M326.49 154.41l-.397 10.365-7.092-3.41 7.49-6.955z" fill="#161413"/><path d="M269.88 150.08l3.02.394s.527.394 1.053 1.31c.524.92 4.99 10.236 4.99 10.236s1.84 2.36 4.465 2.755c2.627.393 7.88.787 7.88.787s.263-.917-1.052-1.705c-1.312-.787-3.808-2.493-5.513-7.216-2.1-3.805-3.81-6.692-3.81-6.692s7.356-1.18 8.01-6.69c.658-5.512-3.06-8.916-9.323-10.235-6.807-1.427-11.034-1.443-11.034-1.443l-7.88-.656-.655 1.443 4.204 1.967s-2.234 23.224-2.496 23.88c-.263.658-2.628 1.445-3.416 1.445-.788 0-1.837-.133-1.837-.133l-.132 1.312 16.548 2.23.265-1.444-2.627-.787s-2.1 0-1.84-3.02c.263-3.016 1.183-7.74 1.183-7.74z" fill="#C9CCD1"/><path d="M270.276 147.717l1.708-13.12s1.97-.263 3.94.263c1.97.524 6.827 2.492 5.91 6.954-.922 4.46-2.63 6.955-7.092 6.69-4.466-.26-4.466-.787-4.466-.787z" fill="#161413"/><path d="M215.77 135.516c7.086-3.658 20.62-2.755 24.036 5.51 3.415 8.267 2.363 17.32-8.538 22.305-10.9 4.99-22.197-.26-24.56-7.61-2.365-7.345.92-16.007 9.063-20.204z" fill="#C9CCD1"/><path d="M219.578 136.17c3.81-1.048 10.77.527 13.793 8.793 3.02 8.266 1.18 15.35-4.073 17.057-5.253 1.705-12.608 1.05-16.022-10.758-2.495-10.5 2.495-14.04 6.303-15.09z" fill="#161413"/><path d="M159.688 159.133l14.317-7.61.526 1.18s-1.838.787-2.364 1.838c-.524 1.05-.92 1.575-.92 1.575l11.427 21.387 8.668-4.854s2.104-1.443 2.234-2.493c.132-1.05.92-5.643.92-5.643l1.05.262 1.313 7.742-22.984 12.99-.657-1.706s3.416-1.443 2.495-3.935c-.917-2.493-10.11-18.633-10.11-18.633s-.658-1.705-1.97-1.705c-1.315 0-2.627.785-2.627.785l-1.315-1.18z" fill="#C9CCD1"/><path d="M127.117 185.376c7.487-8.662 16.55-10.105 23.51-4.724 6.96 5.38 9.193 15.088 2.232 23.616-6.962 8.53-15.76 9.71-23.772 4.855-6.043-4.46-8.668-13.907-1.97-23.747z" fill="#C9CCD1"/><path d="M128.956 186.687c2.57-4.018 8.93-5.773 16.155-1.18 7.224 4.59 10.77 12.726 5.78 17.844-4.993 5.118-11.822 4.068-17.338-.393-5.515-4.46-8.536-10.103-4.596-16.27z" fill="#161413"/><path d="M104.397 250.98c-7.527-2.64-11.033-13.253-6.83-22.962 3.678-6.823 5.253-6.69 6.304-7.872.133-.92 0-1.444.265-2.1.262-.657 7.747 3.15 7.747 3.15l-.656.917s-.656.132-1.84.132c-1.18 0-5.515-.918-9.455 6.428-3.94 7.348 3.152 13.647 6.962 15.484 3.81 1.837 13.84 4.5 18.124-5.38 2.438-5.642-.262-9.448-.262-9.448l-1.577-2.23.92-1.707 6.042 5.643s-1.314 2.1-1.578 3.148c-.262 1.05-1.707 6.693-2.363 7.874-.657 1.18-7.357 14.17-21.803 8.922z" fill="#C9CCD1"/><path d="M440.698 386.675c0-3.67 2.995-6.66 6.7-6.66 3.696 0 6.67 2.99 6.67 6.66 0 3.707-2.974 6.697-6.67 6.697-3.705 0-6.7-2.99-6.7-6.697zm12.568 0c0-3.234-2.627-5.857-5.867-5.857-3.255 0-5.88 2.623-5.88 5.857 0 3.27 2.625 5.893 5.88 5.893 3.24 0 5.866-2.623 5.866-5.893zm-2.538 3.74h-1.086l-2.137-3.442h-1.68v3.443h-.91v-7.465h3.256c.63 0 1.26.035 1.82.368.563.317.842.98.842 1.61 0 1.466-1.034 2.01-2.363 2.045l2.258 3.443zm-3.502-4.158c1.05 0 2.678.173 2.678-1.35 0-1.152-1.017-1.29-1.942-1.29h-2.137v2.64h1.4z" fill="#161413"/><path d="M262.592 303.79h6.96v51.305h-6.96V303.79z" fill="#C9CCD1"/><path d="M277.5 330.885l4.99-5.247s4.86 4.46 9.587 11.808c4.73 7.348 11.032 17.32 11.032 17.32h-10.247s.395-4.2-4.463-10.103c-4.335-6.56-10.9-13.778-10.9-13.778z" fill="#C9CCD1"/></g></svg>