<svg width="512" height="512" viewBox="0 0 512 512" xmlns="http://www.w3.org/2000/svg"><title>colorado-rockies</title><g fill="none" fill-rule="evenodd"><path d="M147.74 264.23l-14.188 29.392h33.36l93.25-70.854-78.278 70.593h5.78l74.074-53.01-59.628 53.28h6.567l60.94-40.67-46.49 40.417 6.566.26 54.635-32.28-40.715 32.02 6.305.524 53.324-28.603-39.14 28.08h119.78l-26.27-34.903-10.506 1.576-10.243-17.58-52.535-47.237-29.155-26.765-35.463 45.13-19.7-6.036-32.834 52.22-8.932-1.573-3.938 6.826-6.567-.79z" fill="#4C3576"/><path d="M179.784 253.473l22.852-37.527 19.702 5.25 32.57-42.513L278.393 206l-1.05 2.886-5.358-3.437-6.042 5.51-3.154-13.65-7.62 9.18-3.94-5.78-31.52 26.242-6.31-5.25-16.55 20.21-2.89-2.627-14.19 14.17z" fill="#FFF"/><path d="M338.964 260.034l-6.943-12.907-4.85 2.84s4.97 5.343 6.28 6.13c1.32.786 5.52 3.937 5.52 3.937z" fill="#FFF"/><path d="M374.57 281.027h76.82v-5.772s-13.66-.262-13.66 0c-1.865-20.15-18.1-76.383-71.308-115.76-27.228-21.363-63.41-37.313-110.463-38.806-60.16 2.09-84.06 19.15-109.01 35.16-65.41 46.19-73.82 118.88-73.82 118.88H60.26v6.03h79.48l2.86-5.77h-16.93s14.45-91.32 121.62-102.61c-.26.26 8.407-9.45 8.407-9.45l9.456 9.443s14.447 1.576 23.904 4.46c9.455 2.89 18.386 6.825 18.386 6.825s-31.24 2.904-32.57 36.21c2.323 28.98 27.05 34.12 33.884 34.12 6.828 0 33.62-.79 37.034-34.117 0-7.61-1.84-12.336-1.84-12.336s13.4 9.71 25.49 29.39 14.98 37.79 14.98 37.79h-14.53l4.69 6.294z" fill="#161413"/><path d="M315.848 303.725v-4.723h27.712v5.377s-4.99-1.05-6.435 2.36c-1.445 3.41-1.05 22.7-1.05 22.7s-.395 18.76.264 20.34c.65 1.57 1.17 5.11 4.06 5.51 2.89.39 3.28.92 3.28.92v4.2h-27.71v-4.6s4.2-.27 5.51-2.5 1.05-4.46 1.05-4.46v-20.07l-.26-19.158s.392-2.23-.92-3.545c-1.31-1.314-3.15-2.363-5.518-2.363z" fill="#161413"/><path d="M163.76 297.035c17.074 0 29.552 11.547 29.552 32.408 0 20.862-12.478 31.754-31.127 32.803-18.388-1.05-28.633-12.465-28.633-33.065 0-20.59 13.66-31.09 30.208-32.14zM148 331.018c2.364 25.323 12.61 25.85 17.73 25.85 5.123 0 16.024-7.613 12.74-30.575-3.283-22.962-12.74-23.878-17.467-23.878-3.81.525-15.367 3.278-13.002 28.603z" fill="#161413"/><path d="M104.002 354.896v5.25H70.116v-5.117s6.96-.53 8.144-3.55c1.182-3.02.918-3.94.918-3.94v-46.71c0-2.76-2.495-4.33-4.858-4.99-2.365-.66-4.072-.66-4.072-.66v-5.513s3.808.26 8.144 0c4.334-.265 12.084-1.05 19.7-1.05 7.617 0 31.52.133 31.52 19.55.92 15.09-13.92 18.763-13.92 18.763s-.395 1.708 1.05 2.496c1.444.785 1.84 1.573 1.84 1.573s5.383 9.71 6.17 11.152c.79 1.44 4.203 9.05 6.174 10.493 1.97 1.44 6.96 2.36 6.96 2.36v5.247h-20.488L99.8 331.282s-1.97-.79-2.76-.79c-.788 0-2.1.39-2.1.39l-.263 16.143s-.394 4.328 1.707 6.036c2.1 1.71 7.618 1.84 7.618 1.84zm-3.022-30.57c2.1-.263 11.952-2.623 11.034-15.878 0-13.776-10.113-14.563-13.66-14.563-3.545 0-3.677.525-3.677.525v30.18s4.202 0 6.303-.263z" fill="#161413"/><path d="M167.964 265.545l-6.567-1.313-5.517 8.397 12.084-7.09z" fill="#FFF"/><path d="M346.318 267.642l7.62-1.835 5.252 7.083-12.872-5.248z" fill="#FFF"/><path d="M311.12 188.656s11.56.524 17.6 5.773c14.183 10.75 11.56 20.47 11.56 20.47l-1.84.25s-1.314-3.94-2.365-3.94c-1.05 0-1.18.79-1.18.79l.656 2.36h-2.23s-.79-3.54-2.23-3.54-.92 1.44-.92 1.44l-.13 2.36-1.84-.13s-1.7-4.2-3.02-3.02c-1.31 1.18-.39 1.706-.39 1.706s1.318 2.1-.13 2.1c-1.44 0-2.76-1.703-2.76-1.703s-.784-1.97-1.57-1.313c-.79.66-.66 1.578-.66 1.578l1.05 2.1-1.576.655s-2.89-2.363-3.547-2.363-2.1 1.05-1.18 1.575c.916.52 1.838 1.05 1.838 1.702 0 .653-.92.92-.92.92l-1.31.39s-2.628-2.757-3.547-1.708c-.92 1.05.393 2.1.393 2.1l.92 1.31-1.05.786s-1.84-.264-2.366-.655c-.527-.396-1.707-1.052-2.104-.264-.39.787.396 1.575.396 1.575l1.836 1.31-2.1 1.314s-2.63-1.573-3.153-1.05c-.527.527-.79 1.97-.79 1.97l2.102 1.18-.392 1.05-1.312.395s-1.973-.66-2.628-.397c-.658.26-.658 1.964-.658 1.964s.92 1.05 1.444 1.05 1.97.13 1.05.92c-.92.79-1.313.79-1.313.79s-3.284-.787-3.81.656c-.524 1.44 1.446 1.702 1.446 1.702s1.97-.13 1.84.525c-.135.654-.66 1.31-.66 1.31l-2.1.263s-1.84.26-1.97 1.442c-.13 1.18 1.445 1.31 1.445 1.31s2.234-.396 1.84.915c-.394 1.317-2.495 1.45-2.495 1.45s-1.705 0-1.705 1.05.787 1.572.787 1.572 3.024-.26 2.76.92c-.26 1.182-1.444 1.05-1.444 1.05s-17.595-7.086-17.595-25.323c-.265-3.15-.134-6.69-.134-6.69s.395-1.577 1.32-.26c.92 1.31 1.05 1.44 1.84 1.44s.523-1.97.523-1.97l-.265-1.574s.653-.524 1.313-.524c.657 0 1.84 3.28 2.626 3.28.79 0 1.84-.786 1.84-.786s-.13-1.05-.39-1.574c-.265-.525-.79-1.31-.79-1.31l1.97-.79s1.05 1.313 1.575 1.837c.528.526 1.45 1.05 1.976.787.525-.26.263-1.31.263-1.31l-1.316-2.23 1.97-.658s2.104 2.23 2.76 2.23c.66 0 1.18-.79 1.18-.79s.13-.79-.26-1.443c-.396-.655-1.577-1.05-.396-1.97 1.185-.914 1.97 0 1.97 0s1.316 1.58 1.97 1.58c.66 0 1.71-1.18 1.05-2.1-.654-.92-1.575-.92-1.575-.92l.527-1.44s1.184-.395 2.234.13 3.15 1.05 3.15-.13c0-1.18-.915-1.576-.915-1.576l-1.183-.525s.134-1.445.79-1.445 1.31-.39 2.233 0c.92.398 1.05.528 1.84.266.786-.265.524-1.447-.526-2.1-1.05-.658-1.84-.13-1.71-1.316.13-1.18 1.97-.786 1.97-.786l2.625.13.92-1.573s-.525-.92-1.05-.92c-.524 0-1.84-.26-1.84-1.18 0-.92 1.05-.92 1.97-.92.92 0 2.76 0 2.89-.524.136-.525.136-1.707.136-1.707s-1.84.13-2.365-.136c-.525-.26-.656-1.18-.656-1.18z" fill="#FFF"/><path d="M83.118 294.54h7.488v60.227h-7.488V294.54z" fill="#C9CCD1"/><path d="M111.358 294.54s13.396 1.574 13.396 14.303c0 12.727-13.134 15.22-13.134 15.22s4.072-3.674 4.072-15.35c0-11.68-4.334-14.172-4.334-14.172z" fill="#C9CCD1"/><path d="M103.476 331.018s4.204-1.444 5.517-1.444h3.415s3.808 3.807 4.728 5.772c.92 1.97 11.032 19.027 11.032 19.027h-11.032l-13.66-23.355z" fill="#C9CCD1"/><path d="M149.182 304.906s-5.777 8.53-4.726 23.75c0 16.664 7.485 25.848 7.485 25.848s-15.23.13-15.23-24.142c.26-20.338 12.48-25.456 12.48-25.456z" fill="#C9CCD1"/><path d="M174.66 303.594s15.368 3.676 15.368 24.01c0 20.337-11.557 26.376-11.557 26.376s3.68-4.856 3.68-25.85c-1.71-18.107-7.49-24.536-7.49-24.536z" fill="#C9CCD1"/><path d="M58.69 367.1h392.96v6.562h-16.546v9.97h-359.6v-10.496H58.69V367.1z" fill="#161413"/><path d="M197.646 330.36c0-18.37 11.557-32.933 32.965-32.933 8.15 0 13.27 3.017 13.27 3.017s3.02-1.966 3.81-1.966.79 1.05.79 1.05l.79 20.074h-3.68s-3.15-16.4-15.89-16.4-18 13.512-18 26.898c0 13.38 7.36 26.24 18.39 26.24s17.34-14.567 17.34-14.567.39-.916 1.317-.916c.92 0 2.103.393 2.103.393l.13 1.312-4.73 18.765s-4.728-.526-6.83-.526c-2.1 0-13.657 1.32-15.498 1.32-1.837 0-26.266-2.62-26.266-31.75z" fill="#161413"/><path d="M208.415 330.36c0 14.303 7.487 23.75 7.487 23.75s-15.235-2.495-15.235-23.092c0-20.6 13.396-25.456 13.396-25.456s.79.264.262 1.313c-.526 1.05-5.91 9.184-5.91 23.486z" fill="#C9CCD1"/><path d="M326.16 304.053h6.958v50.91h-6.96v-50.91z" fill="#C9CCD1"/><path d="M252.15 303.726l.263-4.723h27.713v4.854s-6.173-.13-6.566 3.28c-.395 3.412-.526 19.55-.526 19.55l16.94-19.155s.788-.918.526-1.838c0-1.704-2.89-2.1-2.89-2.1v-4.722h22.59v5.118s-6.696-.264-9.325 1.967c-3.677 1.837-15.76 16.534-15.76 16.534s5.254 6.56 8.274 11.02c3.02 4.47 10.64 16.93 11.82 17.85 1.18.92 1.71 2.89 4.86 3.81 3.15.92 3.67.53 3.67.53v4.857h-29.68v-5.117s4.73.522 4.73-1.707c0-2.23-1.84-6.69-5.13-10.495-3.286-3.806-8.01-10.235-10.247-10.5-.13 2.364 0 18.11 0 18.11s.262 2.624 2.234 3.937c1.967 1.31 4.596.918 4.596.918v4.857h-27.97v-4.724s5.913 0 6.437-3.543c.527-3.547.527-4.335.527-4.335v-39.1s0-3.15-2.495-4.07c-2.495-.918-4.596-1.05-4.596-1.05z" fill="#161413"/><path d="M348.026 304.118v-4.985h45.97l.917 14.828h-4.332s1.19-8.26-4.73-8.26h-16.54v20.6s4.6.53 6.31.53 6.96-.652 7.228-2.882c.265-2.23 1.18-4.723 1.18-4.723h3.15v20.86h-3.41s-.452-6.083-3.94-6.69c-3.02-.525-4.333-.66-5.515-.66-1.182 0-4.86.79-4.86.79v18.24s.658 2.36 3.416 2.36h12.476c.92 0 4.33-.786 5.253-2.23.92-1.444 3.28-8.006 3.28-8.006h3.81l-1.44 16.666h-48.99v-5.116s4.994.39 6.7-.92c1.707-1.31 2.1-1.84 2.1-1.84l-.26-42.25s.393-4.07-2.496-5.512c-2.89-1.44-5.252-.785-5.252-.785z" fill="#161413"/><path d="M359.256 303.79h6.96v51.698h-6.96V303.79z" fill="#C9CCD1"/><path d="M418.16 288.636c9.064 0 14.58 2.232 14.58 2.232s.917.394 1.443 0c.526-.393 1.707-1.575 1.707-1.575h2.627l1.184 20.73-4.59-.392s-2.1-14.95-15.5-14.95c-10.64 1.31-8.01 11.16-4.59 12.86 7.228 7.61 27.58 14.56 27.58 33.33 0 18.76-17.07 21.918-20.88 21.918-3.81 0-14.182-2.76-15.63-2.89-1.44-.13-2.622 1.97-2.622 1.97h-2.23l-2.366-22.176 3.807-.13s3.152 8.134 5.253 10.104c2.104 1.967 4.467 6.56 11.297 6.56 6.83 0 9.194-5.642 9.194-10.63 0-4.98-8.406-11.81-11.56-13.773-3.154-1.97-17.34-8.006-17.34-23.62 0-15.61 9.588-19.55 18.65-19.55z" fill="#161413"/><path d="M406.866 299.264s-.262 5.25 3.94 9.71c6.566 8.922 27.712 14.302 27.712 30.573-.917 11.94-6.697 14.695-6.697 14.695s.66-2.494.66-9.053c0-8.93-13.26-16.28-13.26-16.28s-15.76-8.92-15.76-19.68c0-8.92 3.42-9.98 3.42-9.98z" fill="#C9CCD1"/><path d="M299.17 247.83l.26-.918s2.76 1.31 3.02.788c.265-.526.134-1.97.134-1.97l-1.71-1.05s-1.838 0-1.574-1.442c.262-1.443 1.446-.394 1.446-.394l1.705.788v-2.755s-2.1-.787-2.1-1.837c0-1.05.66-1.05.66-1.05l2.1 1.442s1.05-.262 1.05-.917c0-.656-.13-1.182-.13-1.182l-2.1-1.967s-.26-1.443.79-1.443 1.84 1.705 1.84 1.705 1.18-.526 1.05-1.443c-.13-.918-.79-1.705-.79-1.705s-1.18-1.182-.92-1.97c.26-.787 1.19-.655 1.19-.655s.79 1.97 1.58 1.97 1.71-1.183 1.316-1.97c-.396-.786-1.446-2.493-1.446-2.493s.132-1.05.785-1.05c.66 0 1.97 2.1 1.97 2.1s1.445.525 1.445-.656c0-1.18-.398-2.495-.398-2.495s-.92-1.17.13-1.7c1.053-.52 1.053.53 1.315 1.05.26.53.92 1.97 1.444 1.32.53-.66.927-1.832.927-1.832s-.525-.92-.525-1.837c0-.92.525-1.314.525-1.314s1.05-1.31 1.18-.52c.133.786.133 2.1.264 2.49.13.395 1.708.395 1.84-.26.13-.656.26-1.05.26-1.05s-.526-1.05-.13-1.837c.39-.79-.132-1.18.657-1.18.79 0 1.316 1.704 1.316 1.704s0 1.576.658 1.444c.658-.13 1.447-1.31 1.447-2.36s.395-2.23 1.31-2.36c.92-.13.13 2.492.13 2.492s.66 1.18 1.19.916c.523-.26 1.18-.917 1.18-.917l1.052-3.02h1.443s-.528 2.75.13 2.883c.656.132 1.575-.26 1.575-.26s.394-1.71.79-2.23c.393-.528 1.705-.658 1.705-.658s.394 0 .26.787c-.13.786-1.05 2.1 0 2.36s1.97 0 1.97 0 .66-3.41 2.1-3.28c1.447.133-.26 2.364-.26 2.364s.13 1.18 1.05 1.444c.92.26 2.1-1.443 2.1-1.443s.66-1.315 1.446-1.05c.787.26-.79 2.36-.79 2.36s1.576 2.1 1.576 2.755c0 .654-1.446 13.514-13.66 21.78-13.004 9.97-28.763 3.54-28.763 3.54z" fill="#FFF"/><path d="M281.834 210.173c-.526.658-1.315.526-1.315.526l-.66-.4s4.2-11.42 12.61-16.27c8.4-4.86 13.79-5.12 13.79-5.12l-.92 1.96.39 1.18s2.23 1.31 1.31 2.23c-.92.92-2.23-.525-2.23-.525s0-1.573-1.05-.524c-1.05 1.05-.26 2.495-.26 2.495s1.97 1.707 1.05 2.626c-.92.92-1.71-.784-1.71-.784s-.66-1.44-1.45-.654c-.79.79-.396 2.1-.396 2.1s1.84 2.884.393 3.016c-1.44.13-2.1-2.626-2.1-2.626s-1.44 1.442-1.44 2.1c0 .653 1.705 2.36.26 3.28-1.445.92-1.707-1.445-1.707-1.445s-.79-1.837-1.58-.918c-.786.916-.26 2.36-.26 2.36s.526 2.492-.66 2.492c-1.18 0-1.44-.917-1.44-.917s.13-2.757-.79-2.23c-.92.525-1.05 1.97-1.05 1.97s.79 3.15-.92 3.15c-1.704 0-.916-2.1-.916-2.1s-.265-2.1-1.184-1.707c-.92.394-.92 1.576-.92 1.576l-.393 2.755-1.836.393s.397-1.707.13-2.36c-.26-.658-.653-.92-1.31-.92s-1.314 1.18-1.314 1.18.393 1.443-.13 2.1z" fill="#FFF"/><path d="M307.31 188.524s2.365 1.18 1.71 1.967c-.657.79-1.446-.13-1.446-.13l-.788-1.04.524-.79z" fill="#161413"/><path d="M411.462 225.787c4.203 7.48 7.223 17.977-2.89 24.667-10.113 6.693-20.75-.787-23.772-6.954-3.02-6.167-6.96-15.614 4.072-23.748 8.536-4.593 18.387-1.443 22.59 6.035z" fill="#C9CCD1"/><path d="M410.02 227.756c1.18 1.967 4.858 8.266-5.255 15.744-10.114 7.48-17.602 1.443-18.52-1.18-.918-2.624-3.938-10.366 6.698-16.14 10.64-5.772 15.893-.393 17.076 1.576z" fill="#161413"/><path d="M367.595 171.99s7.75 6.826 9.982 9.056c2.234 2.23 16.418 14.565 4.73 26.24-11.692 11.68-26.27-3.805-27.715-5.378-1.443-1.576-3.544-3.936-4.728-5.118-1.18-1.18-4.463-4.068-4.463-4.068l1.05-1.443s1.97 1.57 2.5 1.7c.53.13 1.84 0 1.84 0s14.97-13.52 15.89-14.57c.92-1.05.66-2.89.66-3.547 0-.658-1.05-2.1-1.05-2.1l1.31-.79z" fill="#C9CCD1"/><path d="M356.038 197.183l15.89-14.694s1.183-1.97 2.63-.66c1.442 1.31 7.353 5.77 6.565 12.2-.788 6.43-7.223 13.38-14.578 12.33-7.354-1.05-10.507-6.04-10.507-6.04s-1.577-1.05 0-3.15z" fill="#161413"/><path d="M328.456 147.587l5.65 3.41s-2.628 27.818-2.497 28.474c.13.66.26 1.58 1.05 2.5.78.92 1.18.92 1.18.92l-.26.92-13.93-6.16.78-1.705 2.494 1.313s2.23.656 2.493-1.443c.264-2.1.395-7.48.395-7.48l-9.06-4.855-5.39 4.854s-1.18 1.574-.39 2.494c.786.917 2.887 1.967 2.887 1.967l-.527 1.578-11.56-5.246 1.05-1.575s2.1 1.97 4.86-.392c2.76-2.36 20.75-19.55 20.75-19.55z" fill="#C9CCD1"/><path d="M326.49 154.41l-.397 10.365-7.092-3.41 7.49-6.955z" fill="#161413"/><path d="M269.88 150.08l3.02.394s.527.394 1.053 1.31c.524.92 4.99 10.236 4.99 10.236s1.84 2.36 4.465 2.755c2.627.393 7.88.787 7.88.787s.263-.917-1.052-1.705c-1.312-.787-3.808-2.493-5.513-7.216-2.1-3.8-3.81-6.69-3.81-6.69s7.356-1.18 8.01-6.69c.658-5.51-3.06-8.91-9.323-10.23-6.807-1.42-11.034-1.44-11.034-1.44l-7.88-.65-.655 1.444 4.21 1.968s-2.23 23.226-2.49 23.88c-.26.66-2.63 1.447-3.412 1.447-.79 0-1.837-.134-1.837-.134l-.132 1.31 16.55 2.23.264-1.444-2.625-.79s-2.1 0-1.84-3.02c.265-3.015 1.185-7.74 1.185-7.74z" fill="#C9CCD1"/><path d="M270.276 147.717l1.708-13.12s1.97-.263 3.94.263c1.97.524 6.827 2.492 5.91 6.954-.922 4.46-2.63 6.955-7.092 6.69-4.466-.26-4.466-.787-4.466-.787z" fill="#161413"/><path d="M215.77 135.516c7.086-3.658 20.62-2.755 24.036 5.51 3.415 8.267 2.363 17.32-8.538 22.305-10.9 4.99-22.197-.26-24.56-7.61-2.365-7.34.92-16 9.063-20.2z" fill="#C9CCD1"/><path d="M219.578 136.17c3.81-1.048 10.77.527 13.793 8.793 3.02 8.266 1.18 15.35-4.07 17.057-5.25 1.705-12.61 1.05-16.02-10.758-2.49-10.5 2.5-14.04 6.31-15.09z" fill="#161413"/><path d="M159.688 159.133l14.317-7.61.526 1.18s-1.83.787-2.36 1.838c-.52 1.05-.92 1.58-.92 1.58l11.43 21.39 8.67-4.85s2.11-1.44 2.24-2.49c.13-1.05.92-5.642.92-5.642l1.05.26 1.314 7.74-22.984 12.99-.658-1.703s3.417-1.44 2.496-3.933c-.917-2.492-10.11-18.632-10.11-18.632s-.66-1.703-1.97-1.703c-1.315 0-2.627.786-2.627.786l-1.314-1.18z" fill="#C9CCD1"/><path d="M127.117 185.376c7.487-8.662 16.55-10.105 23.51-4.724 6.96 5.38 9.193 15.088 2.232 23.616-6.97 8.53-15.76 9.71-23.78 4.855-6.05-4.46-8.67-13.907-1.97-23.747z" fill="#C9CCD1"/><path d="M128.956 186.687c2.57-4.018 8.93-5.773 16.155-1.18 7.23 4.59 10.77 12.726 5.78 17.844-4.99 5.12-11.82 4.07-17.33-.39-5.51-4.46-8.53-10.1-4.59-16.27z" fill="#161413"/><path d="M104.397 250.98c-7.527-2.64-11.033-13.253-6.83-22.962 3.678-6.823 5.253-6.69 6.304-7.872.14-.92 0-1.444.27-2.1.26-.657 7.75 3.15 7.75 3.15l-.65.917s-.654.132-1.84.132c-1.18 0-5.513-.918-9.453 6.428-3.94 7.348 3.15 13.647 6.96 15.484 3.81 1.837 13.84 4.5 18.125-5.38 2.438-5.642-.262-9.448-.262-9.448l-1.575-2.23.92-1.71 6.04 5.64s-1.31 2.1-1.575 3.15c-.26 1.05-1.706 6.69-2.362 7.87-.656 1.18-7.356 14.17-21.802 8.92z" fill="#C9CCD1"/><path d="M440.698 386.675c0-3.67 2.995-6.66 6.7-6.66 3.696 0 6.67 2.99 6.67 6.66 0 3.707-2.974 6.697-6.67 6.697-3.705 0-6.7-2.99-6.7-6.697zm12.568 0c0-3.234-2.627-5.857-5.867-5.857-3.26 0-5.88 2.623-5.88 5.857 0 3.27 2.62 5.893 5.88 5.893 3.24 0 5.86-2.623 5.86-5.893zm-2.538 3.74h-1.086l-2.137-3.442h-1.68v3.443h-.91v-7.465h3.256c.63 0 1.26.04 1.82.37.57.32.85.98.85 1.61 0 1.47-1.03 2.01-2.36 2.05l2.26 3.45zm-3.502-4.158c1.05 0 2.678.173 2.678-1.35 0-1.152-1.017-1.29-1.942-1.29h-2.137v2.64h1.4z" fill="#161413"/><path d="M262.592 303.79h6.96v51.305h-6.96V303.79z" fill="#C9CCD1"/><path d="M277.5 330.885l4.99-5.247s4.86 4.46 9.587 11.808c4.73 7.348 11.032 17.32 11.032 17.32h-10.25s.39-4.2-4.47-10.103c-4.34-6.56-10.9-13.778-10.9-13.778z" fill="#C9CCD1"/></g></svg>