<svg width="512" height="512" viewBox="0 0 512 512" xmlns="http://www.w3.org/2000/svg"><title>detroit-tigers</title><g fill="none" fill-rule="evenodd"><path d="M379.722 383.99c3.633-2.038 4.606-6.09 4.606-9.488 0-2.766-.554-5.03-.605-5.237-.026-.103-5.76-16.083-5.76-16.083.013 0 .013-4.82.013-12.84 0-39.76-.064-158.255-.064-158.255 0-.05.026-.47.026-1.215 0-7.444-2.21-47.105-47.616-65.723-24.622-10.1-57.355-7.7-86.25-5.6-18.257 1.33-35.464 2.54-47.537.26.283-.92.767-2.77.767-5.83 0-3.21-.62-7.3-2.803-11.72-5.03-10.15-16.34-18.02-33.57-23.34-32.51-10.06-58.81 9.27-67.99 33.55-2.56 6.79-3.94 14.13-3.94 21.7 0 25.25 15.53 52.84 54.02 70.25l-1.23 16.33c-1.66 1.18-22.24 16.4-22.24 38.03 0 5.97 1.64 12.42 5.63 19.17-.75 1.69-5.81 13.45-5.81 24.192 0 4.357.84 8.51 3.14 11.75 3.26 4.566 9.013 6.554 17.085 5.98-.01 3.47-.327 19.436-5.33 30.534l-.305.682c-1.32 2.95-2.813 6.322-6.62 10.91-1.133 1.35-2.15 3.524-2.15 6.123 0 2.94 1.38 6.43 5.29 9.96-1.77 1.35-9.105 7.465-9.66 18.59-.004.197-.01.397-.01.58 0 3.445 1.456 8.09 5.553 11.42 3.356 2.73 9.644 5.38 20.506 2.55l7.424-2.143c10.752-3.218 24.12-7.226 39.104-6.145.592 1.004 3.633 5.74 9.102 6.87 3.52.74 7.245-.39 11.033-3.1 1.024 2.11 5.49 9.78 15.81 5.894 3.69-1.41 9.766 4.592 16.176 10.955 6.9 6.82 14.71 14.54 21.846 15.27 7.724.79 14.71-4.74 16.83-6.583.68 2.695 3.373 11.36 11.394 15.76 5.754 3.147 12.88 3.115 21.157-.024.91 1.024 5.426 5.804 12.35 6.03 5.007.14 9.92-2.367 14.61-7.22 1.29 1.115 6.72 5.426 12.814 4.33 3.757-.686 6.86-3.47 9.317-8.065 2.003.656 10.816 3.094 17.993-1.9 5.967-4.14 9.007-12.28 9.02-24.162 0-10.26-10.365-20.468-13.14-23.01" fill="#FFF"/><path d="M371 380.697c8.922-3.442 5.56-11.998 4.477-13.503-6.153-8.55-5.554-22.472-5.65-24.865V198.21c2.39-44.37-19.366-60.66-25.686-66.02-25.22-19.164-66.27-15.98-70.47-16.076-7.57-.33-52.59 2.856-57.84 2.657-25.08.19-53.59-.43-65.6-8.05-18.072-10.65-22.21 5.08-17.97 17.29 9.246 26.59 31.376 35.76 35.59 37.68-.733.67-2.04 1.62-2.724 2.32 0 0 4.1 1.2 4.495 1.2 2.33-1.74 5.19-3.65 6.545-4.5-20.34-4.67-38.89-24.58-41.547-42.84-.36-1.39-1.03-7.83 2.57-9.905 2.177-1.244 4.593-1.79 13.2 3.305 8.6 5.082 31.27 6.233 34.762 6.62 14.87 1.685 62.413-.663 66.923-1.287 29.08-2.13 53.828-.61 70.205 4.606 16.38 5.203 44.804 20.192 43.84 67.99v149.63c0 2.482-.48 17.542 3.824 22.46 6.197 7.07 3.182 10.895-1 12.36L371 380.7" fill="#002344"/><path d="M231.678 394.297c15.88 7.32 22.818 16.27 28.816 22.517 7.222 7.508 15.03.946 15.99-.29 4.09-5.313 8.93-9.746 13.896-13.4.62-1.216 2.48-5.43 6.397-8.46-11.196 6.736-18.186 13.774-20.866 17.32-7.47 8.877-13.11 1.864-14.27.72-7.69-9.503-17.06-15.962-25.48-20.31-.35.18-2.88 1.427-4.47 1.903" fill="#002344"/><path d="M193.153 384.995c-5.67.07-12.395.63-21.125 1.647-2.564.296-14.308 3.673-28.72 8.074-5.308 1.936-21.684-4.06-10.024-18.567.664-1.06 5.72-6.96 9.264-9.22-1.043-.2-15.487-4.74-4.18-18.14 8.497-8.38 10.333-32.75 10.268-55.53-1.533 2.09-9.296 12.6-16.898 6.23-9.747-8.17.754-32.09 3.763-34.23-1.43-.3-8.75-3.44-8.27-15.3-.16-6.51 6.5-26.13 21.91-35.23-.25-1.21-.5-10.81 1.87-20.047l3.44 1.447c-1.31 4.94-2.25 13.35-1.85 21.18-7.23 2.103-22.2 19.454-21.55 34.85-.405 4.345 3.88 15.44 12.42 4.686.903-1.134 4.685-5.12 8.898-6.267l.055 3.58c-3.73 1.536-21.923 15.01-21.15 36.43.28 1.53 2.29 13.187 12.25 3.25.58-.575 5.646-7.46 9-7.85l-.29 12.54c-.07 1.25.106 24.045-4.494 39.87-.52 1.59-1.79 8.243-5.03 11.343-4.18 4.007-6.856 7.764-3.43 11.348 1.99 2.1 8.43 4.068 13.53 2.16-2.68 1.335-13.84 10.72-17.71 16.447-5.59 8.27 1.01 14.24 10.83 10.673 7.305-2.662 13.645-4.496 15.75-4.972 10.4-2.872 20.855-3.88 29.74-3.882.22.4 1.17 2.643 1.76 3.467" fill="#002344"/><path d="M324.943 273.814c-.934-.515-1.63-1.647-1.855-3.017-.058.07-.174.09-.18.038l-.175.412c-.45.585-.715 1.016-1.153 1.12l-.98-.013h-.67l-1.95.057-.156 1.05c-1.74 1.21-5.076 2.04-5.965 1.97-7.23-.65-10.16 1.76-11.1 2.17-.93.42-3.43-1.35-3.43-1.35l.32.63c1.31.81 3.26 6.15-3.31 4.6-.21-.04-.4-.08-.64-.14l.31.93c1.45.308 3 .62 3.63 1.55.62.94-.94 3.95-2.39 4.97l-.42 1.258c1.55-1.453 3.93-2.8 5.28-2.38 1.35.4 3.33 1.126 3.22 2.066-.11.928-4.34 2.38-5.918 4.454v1.343c.736-.624 6.025-3.886 8.563-2.85 1.15.47 2.71 1.795 3.19 3.333-2.23.352-4.89.81-6.145 1.32-.787.33-3.34-.536-4.29-.21 0 0 2.46 1.69 1.706 1.96-4.243 1.54-7.734 5.55-10.5 5.55-2.755 0-6.25-4.015-10.493-5.553-.752-.27 1.715-1.96 1.715-1.96-.955-.325-3.507.54-4.29.21-1.25-.51-3.9-.966-6.116-1.31.51-1.55 2.073-2.898 3.2-3.37 2.53-1.046 7.776 2.254 8.517 2.88v-1.346c-1.57-2.07-5.81-3.524-5.918-4.45-.104-.94 1.86-1.666 3.214-2.064 1.347-.42 3.737.924 5.29 2.38l-.42-1.257c-1.453-1.022-3-4.032-2.39-4.965.635-.936 2.18-1.25 3.63-1.55l.324-.93c-.327.084-.604.14-.894.206-6.27 1.357-4.347-3.873-3.06-4.664l.32-.63s-2.49 1.76-3.425 1.35c-.936-.41-3.89-2.81-11.096-2.17-3.13.28-5.482-1.46-6.403-2.275l-.115-.554c-.11-.04-.23-.04-.355-.05-.52-.15-1.54-.182-1.54-.182h-.424l-1.235.01c-.54-.12-1.004-.58-1.275-1.248-.53.842-1.38 2.302-2.09 2.695-2.447 1.366-3.852 2.968-5.643 4.975-1.85 2.102-2.692 4.443-3.342 6.61-.09.337-.186.665-.283.987-.146.52-.21 1.23-.21 2.04 0 1.56.225 3.527.534 5.39l-2.236-.705-.46 1.42 2.985.97c.315 1.624.644 3.02.875 3.75.583 1.76.92 3.49 1.11 5.13l-2.54-.424-.25 1.48 2.963.48c.043.716.06 1.398.06 2.035 0 3.4-.57 5.87-.81 6.27.044.04.14-.04.27-.18-.03.13-.07.23-.097.276.2-.23.51-.69.85-1.237.91-1.29 2.07-3.19 2.1-3.23l.008-.01c.26-.483.36-1.274.36-2.26 0-.385-.01-.784-.043-1.21l2.63.43c.07.337.153.67.23 1.03.56 2.33 1.96 4.01 3.453 5.76l-1.676-.065-.467-.01-3.91-.12-1.21-.035-.05 1.494 1.39.05 3.473.105 1.64.055 2.072.06c1.596 2.015 2.974 4.286 2.974 7.767 0 .546.02 1.086-.05 1.697-.003.04-.003.07-.003.128.895-1.45 1.32-3.05 1.32-4.736 0-1.48-.33-3.05-.992-4.74l.53.005 7.34.236c2.293 1.724 4.748 3.184 6.77 4.033-.02.082-.057.17-.07.262-.007.235-.007.518-.007.8-2.77-.87-5.346-2.502-8.135-4.522.11.14.24.27.37.398 2.1 2.05 5.2 4.244 5.2 11.78 0 2.262-.99 6.14-1.58 9.235-.03.175-.07.355-.095.54-.26 1.41-.4 2.62-.285 3.373.39 2.388 2.605 7.766 7.37 7.766 4.78 0 8.358-1.796 10.85-1.796 2.48 0 6.057 1.796 10.83 1.796 4.76 0 7.094-5.38 7.487-7.765.392-2.4-1.96-9.68-1.96-13.15 0-8.428 5.096-11.226 5.47-12.17-2.706 1.956-5.057 3.545-7.71 4.426 0-.25-.008-.495-.02-.7-.007-.136-.04-.265-.078-.4 1.94-.855 4.24-2.25 6.41-3.873l6.953-.23 1-.032c-.72 1.816-1.076 3.5-1.076 5.077 0 .5.06.998.137 1.493.01.04.014.09.02.14.007.028.02.048.02.086.026.177.05.34.103.51 0 .027.006.05.02.07.02.11.057.22.095.317.032.118.045.247.08.36.02.04.022.086.04.125.163.465.35.928.59 1.366.01.02.062-.04.07-.02-.02-.355-.08-.59-.08-.94 0-4.02 1.498-6.51 3.225-8.68l1.94-.057 1.19-.046 3.465-.117 1.946-.066-.046-1.492-1.777.06-3.902.12-.348.01-1.205.047c1.49-1.755 2.89-3.43 3.46-5.763.14-.6.274-1.156.39-1.7l2.14-.43c-.07.678-.103 1.308-.103 1.88 0 .7.06 1.32.19 1.776.05.18.1.35.18.483l2.832 4.51c0-.01 0 .01 0 0s0 .02 0 0c0-.01 0 .01 0 0-.01-.05-.056-.056 0 0-.075-.11-.075-.56-.2-1.156-.16-1.074-.34-2.785-.34-4.915 0-.51.027-1.05.046-1.598.027-.504.072-1.01.124-1.54l.074-.014 3.17-.635-.302-1.48-2.76.566c.21-1.406.53-2.866 1.004-4.346.24-.713.56-2.08.87-3.653l3.33-1.07-.45-1.42-2.584.82c.31-1.896.55-3.916.55-5.505 0-.81-.073-1.517-.215-2.04-.065-.224-.136-.47-.207-.7-.657-2.24-1.47-4.67-3.182-6.62-2.03-2.283-3.45-3.885-5.892-5.25" fill="#002344"/><path d="M294.928 376.464c.458-.54-6.43 1.422-6.43 1.422s-9.192-7.302-10.7-7.965c.503 1.41 5.012 13.23-6.835 22.36-2.184 4.06-7.37 7.23-12.923 6.69l-1.302-4.93s-1.997-.8-2.75-1.79c-1.012.68-2.68 1.42-3.183 1.58 0 .68-.54 1.96-.54 1.96 2.39 1.76 11.576 8.73 14.83 13.908 3.44 5.447 6.145.616 6.976-.34.84-.96 14.75-16.36 31.17-22.82l-8.31-10.057" fill="#002344"/><path d="M203.428 351.6c1-.42 3.84-3.687 3.84-3.687-7.1.02-41.276 3.52-67.103 32.604-4.252 4.793-3.086 7.965 3.266 6.13 6.36-1.845 24.4-10.337 46.85-9.398 0 0-3.37-7.92 2.53-17.15.76-.99 2.78-5.24 10.62-8.51" fill="#002344"/><path d="M260.05 167.503v12.7c3.884 5.37 2.88 14.655 2.88 14.655 2.164 2.206 13.825 7.29 13.825 7.29V167.67h28.153c14.102 1.35 13.735 16.425 13.735 21.623v38.22s7.956 9.097 10.204 14.688c0 0 3.692-1.39 9.29-.91 2.905.26 6.094 3.34 7.1 7.68.238 1.07 3.678 12.1-3.26 23.37 1.25 1.17 14.09 13.82 12.42 31.51l-3.408-1.82c1.01 6.94 2.94 16.75-2.16 24.17l-2.07-2.89c0 .56-.39 1.59-.62 3.52 1 1.42 2.68 9.76 2.43 15.52 1.58 1.26 12.95 12.77 11.61 22.71l5.51 8.733c1.94.104 5.43-.147 1.63-4.554-6.98-8.09-5.63-24.26-5.63-30.208v-147.5c0-43.496-24.93-57.244-41.32-62.45-16.39-5.203-50.043-6.007-71.174-4.09-28.663 2.6-83.964 3.91-102.176-6.317-1.345-.38-5.77-4.3-7.523-2.59-2.01 1.333-.22 6.756.087 7.79 6.985 24.21 27.48 34.858 46.225 40.03-21.448 10.79-29.12 26.486-29.12 55.803-15.114 7.675-20.835 24.537-21.305 31.575-.46 6.82 2.05 6.736 3.825 4.13 3.04-4.445 9.156-10.19 17.48-10.197v11.71c-15.113 7.67-20.647 22.588-21.304 31.58-.66 8.983 3.96 3.96 3.96 3.96 4.605-7.13 10.94-12.038 17.34-12.038.813 23.714-.77 66.63-13.476 74.95-2.094 1.363-1.23 5.004 3.724 4.464 5.377-.136 27.59-4.15 38.37-14.99 2.04-1.97 3.65-4.27 4.913-6.77 2.712-6.734 2.64-13.676 2.602-17.317l-.016-1.08V212.64l-.137-9.198c-.53-15.42-1.18-34.612 17.45-35.384l2.21-.096v171.956c4.42-5.256 10.7-11.078 16.973-13.683v-158.73h30.724" fill="#002344"/><path d="M208.112 196.292v-4.31c-6.932.502-10.952 8.21-10.54 10.814 0-.154-.283-.54-.69-.958l.04 1.454.083 5.513c.464-.598.844-1.216.992-1.743 1.49-5.07 4.884-9.515 10.115-10.77" fill="#F47735"/><path d="M208.112 187.607V183.8c-3.15-.728-7.615.494-10.946 3.724-.277 2.515-.393 5.28-.393 8.28v.257c1.85-6.19 7.267-8.73 11.34-8.45" fill="#F47735"/><path d="M198.72 265.856c1.16 1.71 2.537 3.088 4.116 3.712.76-10.84 3.22-21.976 5.27-28.3v-23.926c-1.122 2.155-2.075 5.153-3.035 7.276-1.14 2.522-5.85 4.343-5.85 4.343 6.01-4.8 3.55-13.74 8.89-18.62v-9.02c-3.22 1.1-6.09 4.74-7.97 7.61-1.83 2.8-2.19 7.5-3.07 11.76V248c2.54-4.724 6.01-10.205 10.57-15.358-5.26 11.08-8.16 23.733-8.91 33.23" fill="#F47735"/><path d="M208.112 180.1v-.83c-3.086-1.268-6.546.212-6.546.212 1.534-2.432 4.523-3.152 6.546-3.34v-.68c-1.546-.51-3.814-.824-6.327.205-1.868 1.814-3.098 4.31-3.852 7.392 2.39-2.1 5.405-3.12 10.18-2.96" fill="#F47735"/><path d="M208.112 201.323v-5.03c-5.23 1.26-8.626 5.7-10.115 10.775-.148.52-.528 1.132-.992 1.737l.052 3.892v7.978c.895-4.253 1.25-8.95 3.08-11.754 1.86-2.86 4.754-6.51 7.975-7.59" fill="#002344"/><path d="M208.112 191.982v-4.375c-4.072-.283-9.49 2.252-11.34 8.447 0 1.847.053 3.79.11 5.784.407.418.69.804.69.958-.412-2.605 3.608-10.312 10.54-10.814" fill="#002344"/><path d="M208.112 183.792v-3.686c-4.774-.167-7.79.856-10.18 2.96-.34 1.37-.585 2.856-.766 4.458 3.33-3.23 7.796-4.452 10.946-3.732" fill="#002344"/><path d="M208.112 175.46v-2.842c-2.68.45-4.742 1.51-6.327 3.055 2.513-1.035 4.78-.72 6.327-.212" fill="#002344"/><path d="M199.22 228.96s4.71-1.82 5.85-4.342c.96-2.116 1.914-5.114 3.042-7.276v-7.006c-5.347 4.883-2.886 13.832-8.89 18.625" fill="#002344"/><path d="M201.566 179.482s3.454-1.473 6.54-.206v-3.133c-2.017.193-5.006.914-6.54 3.34" fill="#002344"/><path d="M202.836 269.568c-1.58-.624-2.95-2-4.117-3.712.75-9.496 3.64-22.15 8.91-33.228-4.56 5.153-8.03 10.634-10.57 15.356v36.22c.94 2.94 2.16 5.352 3.66 6.17 0 0-.51-3.674.7-5.83 0 0 .8 6.08 6.65 11.67 0 0-.75-6.536.04-9.463v-45.48c-2.06 6.33-4.52 17.46-5.28 28.3" fill="#002344"/><path d="M238.938 178.8c1.025 1.004 2.32 2.29 3.775 3.738.426.328.844.67 1.27 1.023.65-.92 4.04-3.19 7.22-3.61-2.807-4.35-10.46-5.9-12.265-1.14" fill="#F47735"/><path d="M256.055 192.374v-1.37c-.193-2.123-.63-4-1.236-5.674-1.44-1.017-4.49-.81-7.54 1.068 1.76 1.563 3.49 3.165 5.14 4.703 1.14.78 2.48 1.52 3.63 1.28" fill="#F47735"/><path d="M234.725 327.68c.502-2.425 1.288-4.786 1.656-7.25.15 3.024.9 5.944 2.21 8.633.29.586.71 1.113 1.14 1.622.75.244 1.49.54 2.25.907.91-1.08 1.92-2.548 2.7-3.288.06 1.73 3.05 6.253 4.87 9.502.7.875 1.36 1.814 2.01 2.863.98-.95 2.27-2.6 3.22-2.96-.03 1.18 3.31 9.83 3.11 10.55.595-.66 1.265-1.49 1.67-2.07 1.62 3.64 3.486 6.42 4.3 7.12l.41.15c-.27-.76-.5-1.565-.603-2.45-.054-.49-.08-.96-.08-1.406 0-3.39 1.495-5.777 2.835-7.92.986-1.6 1.855-2.99 1.926-4.56.016-.27.016-.534.016-.79 0-2.38-.495-3.53-.8-3.91-1.44 1.03-3.55 3.96-5.635 6.89l-.86 1.214c-.32.79-.574 1.5-.74 2.04-2.5-3.89-3.474-5.924-4.505-9.243-.26-.54-.79-1.64-1.317-2.72l-.237.44-1.92 3.684c-.195.94-.38 1.93-.737 3.077-2.604-2.19-4.47-6.617-5.15-10.87-.517-1.485-.97-2.92-1.34-4.097-.524.665-1.12 1.54-1.89 2.646l-2.094 2.782c-.14.22-.27.385-.36.48-1.058-4.65-1.348-8.87-1.13-12.307.04-1.88.3-4.19.51-6.41-.554.515-1.11 1.043-1.694 1.615l-1.055 1.03c-1.387 1.524-2.404 2.965-3.216 4.01-.032-.298-.04-.575-.065-.858l-.234.22v11.04c.27.207.56.406.84.58" fill="#F47735"/><path d="M246.134 203.832c3.312-4.342 6.99-5.75 8.904-6.163-.16-.15-.316-.29-.49-.44-3.653-.7-6.37-1.61-12.15-.32-2.63.57-5.064 1.68-7.73 2.37-.278.06-.53.13-.787.19v3.46c5.4-1.1 11.87 1.4 12.26.89" fill="#F47735"/><path d="M236.123 195.95c4.703-.09 4.606-1.414 6.925-2.205 2.584-.882 5.064-.927 6.997-.714-1.868-1.73-3.885-3.57-5.927-5.31-2.925.07-6.636 1-7.493 4.51-.766-.57-1.74-.92-2.738-1.12v4.74c.735.08 1.47.12 2.236.11" fill="#F47735"/><path d="M296.77 367.438c.336-.11.62-.206.813-.27 0 0-.007-.006-.007-.013l-.805.283" fill="#F47735"/><path d="M241.67 185.67c-2.648-2.135-5.25-3.988-7.538-5.14-.083.026-.167.052-.245.078v5.893c2.777 2.06 5.76.44 7.783-.83" fill="#F47735"/><path d="M263.097 362.632c-3.112-2.56-5.92-5.963-7.59-8.4l-5.63-10.417c-6.17-11.574-14.843-11.4-17.665-10.358h-.02c-9.14 3.288-15.725 13.19-19.66 19.114-1.83 2.76-2.752 4.11-3.64 4.71l-3.003 1.63c-2.34 1.17-5.23 2.62-6.47 4.58-.5.8-.89 1.65-1.23 2.53.34 1.87 1 3.41 1.87 4.67 1.02-1.42 2.64-2.15 4.88-1.99 2.73.175 4.43 2.8 4.55 4.247.036.39.024.746-.015 1.094 1.777-.665 4.405-2.756 5.172-4.326-.628-2.65-2.43-5.206-6.31-7.136 3.61.514 9.07-1.763 12.215-9.007-1.136 7.077 1.035 6.903 3.335 6.73-4.22 3.66-6.714 9.02-7.835 13.966.254.52.557 1.01.905 1.45.76.99 1.544 1.76 2.36 2.372.88-2.452 2.85-3.635 5.45-3.38 2.543.25 4.044 2.76 4.134 4.125.03.597.03 1.105.01 1.562 1.92-.22 3.37-1.364 4.11-3.1-.34-9.65-3.2-10.828-4.96-12.005 4.38-.98 5.766 3 6.185 2.51.71-.81 3.383-3.726 5.986-2.105-3.463 1.358-4.85 7.245-4.72 12.777 1.38 1.25 2.99 2.24 4.68 3.096-.224-.97-.32-2.03-.133-3.567.16-1.313 1.71-3.81 4.256-3.976 4.556-.265 6.856 3.254 5.316 10.074-.02.11-.063.21-.09.314 2.295-.513 3.964-2.41 3.92-5.164 1.83.932 4.27 1.704 6.776 2.135-.724-1.284-1.32-2.545-1.02-4.42.22-1.35 2.03-3.722 4.632-3.69 4.16.22 5.83 3.05 5.203 7.7.44-.18.85-.383 1.215-.63.317-.525.665-1.17 1.02-1.902.354-2.074.22-4.45-.877-6.96-.575-1.122-1.42-2.383-2.405-3.63l-3.754-4.15c-.413-.39-.81-.746-1.173-1.05m-10.273 14.675s-.74-7.67-6.44-8.377c4.19-4.8.68-16.978-6.12-20.27.45-.716 1.955-.87 3.34-1.27-.14-.25-.38-3.115-5.354-4.987-.134.057 1.96-1.133 4.37.01-.23-.98-1.238-3.145-7.938-4.882 1.97.335 5.057-2.412 10.353 3.217 2.784 2.945 4.208 10.12 12.28 19.57 2.3 2.707 5.044 4.65 9.31 9.823-9.85-5.13-13.8 7.16-13.8 7.16" fill="#F47735"/><path d="M247.036 226.76c14.876-5.01 19.54-1.39 28.488-2.11.516-.032.896-.508.844-1.344 1.366 1.06 5.2.913 8.974-4.542 1.057-1.518 3.125-2.142 5.257-2.226-2.81-1.3-5.69-2.54-8.62-3.815-1.43-.605-2.86-1.235-4.31-1.866-3.7.63-8.06 2.915-5.05 10.268-1.32-.637-26.88-4.812-38.76 5.526v9.63c2.894-3.63 7.158-7.49 13.156-9.51" fill="#F47735"/><path d="M257.3 213.18c1.848.366 2.453.707 2.975-.483 2.042-4.542 5.502-5.906 7.866-6.31-2.58-1.32-5.19-2.754-7.8-4.376-.09-.05-.19-.12-.29-.18-7.96-.45-11.26 4.78-11.26 4.78s-8.42-1.64-14.89.3v8.85c4.2-2.42 11.64-4.99 23.41-2.58" fill="#F47735"/><path d="M235.31 267.516c1.238 1.563 1.27 5.005.465 7.41-.728 2.162-1.346 4.993-1.888 7.882v6.71c.007 0 .007-.013.013-.013 2.416-6.967 7.042-14.47 10.43-18.11-7.86-9.142-4.863-19.7-3.64-23.565.56-1.422 6.398-.444 10.192.482 3.08.74 6.14 1.184 9.18 1.563 3.177-1.8 18.76-6.394 21.615-7.173.444-.585 2.602-3.384 2.602-3.384s2.02 1.248 2.8 1.718c.79-.85 1.82-1.988 1.82-1.988l1.09-1.196s2.27 2.393 3.12 3.274l2.95-1.962s2.18 2.946 2.63 3.538c2.853.804 17.8 5.295 21.18 7.11 1.25-.162 2.507-.33 3.77-.535-1.565-3.487-3.23-6.594-5-9.38-.42-.308-.837-.604-1.12-.765-2.455-1.377-4.916-2.567-7.66-2.998-4.387-.676-8.42 1.32-12.86 1.737-5.64.53-7.633-.41-11.38-1.7-.86 2.13-3.277 2.56-5.23 2.96-1.93.39-10.27-1.43-12.81-1.49-4.307-.09-8.63 1.12-11.39 3.61-2.446 2.23-5.196 3.81-8.31 4.05 1.65-1.97 2.36-3.903 3.854-5.724 3.756-4.6 7.82-5.734 10.495-6.23 6.11-1.153 11.87-.207 18.065.938 3.623.69 3.94-.924 4.222-1.52 2.254 1.51 4.47 1.81 6.56 1.04 4.16-1.51 6.33-2.78 8.727-3.882 2.15-.996 2.916-1.362 5.27-1.77 1.18-.216 2.76-.004 4.075.25-1.01-.924-2.038-1.793-3.07-2.623-6.234-1.75-18.526-3.557-23.08 3.732-.496.79-42.545-11.02-48.26 29.566-.14.995-.437 2.153-.876 3.34v9.995c.607-1.52 1.13-3.165 1.425-4.882" fill="#F47735"/><path d="M238.146 293.397c-.908.52-2.815 1.628-4.265 2.458v12.84c.48-4.767 2.01-9.868 4.27-15.298" fill="#F47735"/><path d="M380.837 412.568c.65-1.97.856-3.892.612-5.745l.03-.006c-.92-5.584-4.7-10.82-11.33-15.582-3.08-2.213-9.11-10.84-15.03-19.493l-1.89-2.766c-.012.064-.025.122-.05.167-1.785-1.563-4.962-4.24-8.473-4.986 0 0 3.93-2.026 8.053-.463-.774-4.87-3.5-9.476-6.69-13.555-6.05 3.58-14.19 4.08-20.4 6.67-2.03.84-4.07 1.26-8.358 5.65 3.072-8.28 11.872-8.02 17.67-12.64.264-.21-3.047 1.34-5.225.21 4.24-3.46 9.36-7.49 11.045-12.84-.38-2.67-1.08-5.638-1.95-8.53l-2.827-4.12c-.457-.67-.8-1.147-1.134-1.597-.37 1.202-.842 2.675-1.363 4.19-.68 4.275-2.22 8.354-4.96 10.663-.31-.985-.486-1.854-.65-2.67l-2.13-4.1-.246-.423-.985 2.03c-1.12 3.73-2.046 5.785-4.707 9.93-.193-.46-.496-1.18-.87-2.035l-.857-1.218c-2.07-2.916-4.17-5.84-5.637-6.886-.306.38-.81 1.53-.81 3.917 0 .25.007.51.02.78.07 1.57.934 2.956 1.94 4.57 1.17 1.886 2.47 3.977 2.756 6.776.5-.367 1.007-.74 1.51-1.113 2.91-2.185 6.794-2.78 9.075-5.45 2.08-2.422 4.67-5.214 4.842-8.45.43 1.18.75 3.165.632 4.7.91-.74 4.41-6.063 3.93-8.424 1.48 7.194-2.94 14.02-9.176 17.74-4.457 2.65-8.322 5.93-11.776 9.816l-.31.308c-2.35 4.35-3.526 9.43-3.526 9.43s5.615-2.597 7.23-2.397c4.788-3.47 11.398-5.97 20.978-6.176 4.626-.102 6.495.05 8.4-.347-2.337 2.374-5.107 2.985-8.296 2.895-3.21-.08-7.46.8-11.52 2.73.18-.008.375-.027.53-.027-.077.407-1.617 2.98-2.345 4.19 6.615-2.78 14.932-3.704 21.64.697 1.79.892 3.42 2.2 4.85 4.096 4.555 6.806 5.914 9.463 11.5 16.25 3.742 4.568 10.932 7.746 13.42 15.3-11.18-7.554-14.516 5.422-14.516 5.422s-.895-5.87-6.98-6.36c5.45-17.313-8.938-16.554-8.938-16.554 9.145-3.78-.963-24.78-18.782-10.53.766-1.86 1.59-3.292 2.49-4.444-3.322 1.15-6.24 2.73-8.73 4.68-1.022.86-2.053 1.794-3.103 2.84-1.14 1.264-2.132 2.64-2.95 4.12l-.542 1.127c-1.053 2.32-3.03 6.61-5.81 8.95l-3.992 3.25c-2.43 1.94-5.626 4.515-6.895 5.744-.14.16-.31.32-.44.49-2.25 2.765-3.79 5.35-4.683 7.744-.05.185-.102.37-.147.56.61 2.185 2.1 3.806 4.042 4.913.818-4.615 3.427-6.944 7.77-6.15 2.91.673 4.335 3.555 4.174 5.63-.06.81-.175 1.48-.33 2.08.825-.17 1.604-.393 2.306-.67 1.928-.785 3.957-2.966 4.736-5.37-.32-2.69-.844-5.32-1.534-7.52.652.18 4.05 4.4 3.93 4.97.554-1.575 2.558-2.476 4.156-2.283-2.545 2.11-3.86 6.557-4.194 11.04.015.013.028.04.047.058 1.18 1.298 2.59 2.1 4.14 2.578-.65-6.093 2.3-8.344 5.24-8.17 2.7-.38 5.417 1.556 5.99 4.42.187.926.387 1.903.14 3.59 2.965-.69 5.09-3.07 5.697-6.248.04.063.1.11.144.165-.157-.91-.337-1.866-.56-2.928-.795-3.69-3.81-5.066-5.556-5.44 1.387 0 2.837-.27 4.106.14 1.513.5 2.55.767 3.845.03 1.87-1.064 3.66-2.6 6.15-2.24-4.196 3.242-5.748 8.054-5.806 12.602 1.45 1.11 3.12 1.913 4.886 2.562-.433-1.305-.613-2.656-.446-4.56.17-1.88 2.202-4.63 5-4.66 3.225-.236 6.685 1.65 6.55 10.174-.007.313-.026.61-.03.91 2.864-.99 5.01-3.725 4.94-7.18 1.764.61 3.84 1.126 5.99 1.396-1.38-1.557-2.77-2.857-2.926-5.456-.1-1.582 1.323-4.695 4.254-5.32 5.33-1.132 8.02 2.68 7.89 9.657.76-.38 1.463-.854 2.095-1.44" fill="#F47735"/><path d="M384.728 408.123c-.496-7.09-4.8-13.594-12.795-19.34-2.9-2.083-10.307-12.93-14.282-18.76 0 0-1.24-1.8-1.65-2.405.02-.405.05-.797.05-1.196 0-9.078-6.29-17.132-12.06-23.328.08-.63.16-1.248.16-1.98 0-4.015-1.12-9.27-2.68-14.167.53-2.863.78-5.546.78-7.958 0-1.97-.24-3.63-.51-5.21.97 1.07 1.77 2.11 2.428 2.98l3.028 3.97.338-3.91c.125-1.4.19-2.75.19-4.05 0-7.467-1.886-13.508-4.13-18.14 1.207.753 2.42 1.54 3.365 2.17l3.03 2.012-.72-3.566c-1.434-7.374-5.486-14.823-11.954-22.183-.27-.324-.543-.63-.807-.92 0-.008-.01-.02-.01-.028 4.225-5.097 7.46-13.08 3.75-24.79-1.04-2.93-5.83-2.01-12-.51l-2.207.353c-10.874-23.49-26.49-30.22-42.822-37.25-6.92-2.987-14.07-6.068-21.26-10.5-.742-.464-1.72-1.25-2.843-2.23v-6.36c-1.1-12.044-8.774-17.885-15.45-18.26-3.825-.22-7.104.66-9.745 2.59v5.417l.244-.075c2.285 1.153 4.89 3.01 7.536 5.14-2.02 1.263-5 2.884-7.78.83v4.6c1 .207 1.98.555 2.74 1.127.854-3.51 4.572-4.43 7.49-4.51 2.037 1.744 4.06 3.58 5.93 5.315-1.935-.21-4.415-.168-7 .714-2.32.79-2.212 2.115-6.92 2.205-.768.016-1.5-.03-2.236-.106v3.635c.256-.066.51-.13.78-.194 2.67-.698 5.11-1.805 7.73-2.377 5.78-1.29 8.503-.38 12.155.32.16.147.323.295.484.437-1.914.41-5.586 1.82-8.904 6.165-.39.52-6.857-1.984-12.25-.884v3.96c6.46-1.942 14.89-.295 14.89-.295s3.296-5.24 11.265-4.79c.097.065.2.14.29.193 2.616 1.63 5.225 3.057 7.808 4.376-2.36.404-5.814 1.76-7.856 6.304-.53 1.2-1.136.864-2.99.49-11.77-2.42-19.206.155-23.406 2.574v10.905c11.88-10.345 37.43-6.176 38.76-5.54-3.014-7.35 1.34-9.63 5.04-10.26 1.44.636 2.882 1.254 4.3 1.865 2.935 1.264 5.81 2.51 8.605 3.82-2.12.082-4.19.7-5.25 2.22-3.77 5.45-7.61 5.6-8.975 4.54.052.842-.32 1.305-.837 1.343-8.95.72-13.62-2.9-28.487 2.11-6.005 2.02-10.276 5.88-13.155 9.51v26.14c.44-1.19.737-2.34.88-3.35 5.71-40.59 47.76-28.766 48.26-29.557 4.55-7.29 16.85-5.486 23.072-3.73 1.04.824 2.06 1.69 3.07 2.62-1.31-.257-2.89-.463-4.062-.25-2.36.405-3.13.78-5.272 1.77-2.394 1.12-4.565 2.38-8.726 3.89-2.08.76-4.304.48-6.56-1.04-.282.584-.6 2.206-4.225 1.52-6.19-1.146-11.957-2.09-18.064-.94-2.674.502-6.74 1.63-10.495 6.23-1.493 1.82-2.202 3.755-3.86 5.724 3.127-.24 5.865-1.82 8.31-4.04 2.76-2.496 7.09-3.706 11.39-3.62 2.548.06 10.88 1.883 12.82 1.5 1.95-.395 4.358-.83 5.228-2.95 3.743 1.28 5.734 2.226 11.377 1.7 4.44-.42 8.464-2.414 12.86-1.73 2.75.43 5.203 1.613 7.66 2.996.28.16.7.457 1.125.76 1.763 2.785 3.426 5.89 4.99 9.386-1.263.2-2.52.373-3.77.534-3.374-1.812-18.327-6.31-21.187-7.11-.44-.59-2.63-3.54-2.63-3.54l-2.95 1.96c-.85-.88-3.12-3.266-3.12-3.266l-1.094 1.197s-1.03 1.13-1.83 1.99c-.78-.475-2.803-1.723-2.803-1.723s-2.16 2.8-2.6 3.385c-2.853.78-18.43 5.37-21.613 7.17-3.04-.37-6.096-.815-9.175-1.56-3.8-.92-9.64-1.908-10.19-.49-1.23 3.88-4.227 14.43 3.632 23.57-3.382 3.634-8.014 11.142-10.43 18.102-.006.008-.006.014-.013.02v6.338c1.45-.83 3.355-1.93 4.263-2.45-2.26 5.425-3.794 10.526-4.265 15.29v7.376l.24-.228c.02.29.027.56.05.85.82-1.04 1.838-2.484 3.22-4.015l1.06-1.017c.58-.58 1.14-1.1 1.7-1.622-.22 2.236-.477 4.53-.516 6.417-.22 3.438.066 7.66 1.12 12.31.1-.1.228-.27.37-.486l2.093-2.78c.76-1.104 1.373-1.98 1.894-2.64.37 1.17.828 2.61 1.337 4.097.683 4.244 2.55 8.676 5.147 10.864.36-1.15.544-2.14.737-3.074l1.928-3.7.23-.425c.53 1.08 1.06 2.172 1.317 2.71 1.03 3.323 2.004 5.35 4.503 9.25.17-.54.42-1.25.74-2.03l.863-1.22c2.08-2.938 4.19-5.87 5.64-6.89.297.37.8 1.53.8 3.91 0 .25-.006.51-.01.78-.08 1.57-.94 2.964-1.935 4.566-1.34 2.136-2.832 4.523-2.832 7.913 0 .44.026.91.084 1.4.1.886.324 1.69.595 2.455-.13-.06-.263-.11-.4-.16.06.05.117.09.16.12.047.02.1.04.138.06-.03 0-.075-.02-.133-.06-.583-.25-1.18-.48-1.77-.7-.36-.136-.72-.26-1.08-.38-.05-.013-.09-.026-.14-.045-.63-.206-1.24-.39-1.84-.56-.63-.18-1.235-.334-1.815-.46l-4.805-8.9c-.33-.604-.664-1.17-1.005-1.73-.64-1.042-1.304-1.994-1.993-2.863-1.825-3.24-4.815-7.77-4.873-9.5-.79.74-1.79 2.213-2.7 3.28-.755-.36-1.5-.66-2.25-.893-.437-.513-.85-1.034-1.14-1.626-1.314-2.695-2.06-5.61-2.21-8.627-.367 2.458-1.15 4.825-1.655 7.244-.29-.175-.565-.368-.835-.58v2.64c-.66.056-1.41.255-2.21.532v.18c-.01 0-.01.007-.01.007v-.19c-.46.153-.95.34-1.455.545v.054c-9.505 3.95-16.212 14.01-20.21 20.01-1.1 1.66-2.35 3.53-2.792 3.856l-2.675 1.45c-2.67 1.33-6 2.99-7.68 5.667-1.838 2.94-2.766 6.335-2.766 10.105 0 .51.014 1.034.053 1.57.263 3.974 1.874 7.83 3.91 9.385.9.69 1.842 1.222 2.79 1.647 1.764 4.212 4.064 6.303 5.307 6.972 0 0-.384-2.83-.416-5.76 3.124.22 5.98-.52 7.79-1.37 1.375 2.29 2.985 3.992 5.06 4.82.73.285 1.463.555 2.22.793 1.26 3.21 2.703 5.76 2.992 6.095 0 0 .937-2.498 1.954-5.37.27-.02.537-.05.8-.088 1.187.13 2.256-.066 3.2-.394 1.82-.29 3.57-1 4.87-2.18.13 0 .26 0 .396.04l1.37.707.49.266c.96.635 1.97 1.11 3.015 1.433.09.022.175.06.26.09.02 0 .04.01.057.01h.01c.722.255 1.495.46 2.29.58.24 2.14.34 3.915.34 3.915.8-.426 2.305-2.015 3.73-4.176 3.072-.79 5.85-2.664 7.49-3.82 1.526 1.53 3.034 2.366 5.88 3.073.44.11.897.163 1.36.19-.56 2.116-1.27 3.865-1.27 3.865 1.103-.494 3.583-1.73 5.73-4.656 2.13-.823 4.025-2.116 5.1-3.33 1.32-1.5 2.745-3.93 3.35-6.918.02-.01.02-.023.027-.036h-.01c.186-.94.3-1.93.3-2.97 0-1.24-.166-2.533-.53-3.87l.067-.02c-.18-.77-.53-1.627-.987-2.51-.42-.912-.93-1.84-1.573-2.777l-1.016-1.13c-1.31-1.68-2.754-3.235-3.98-4.425l-.25-.27c-1.73-1.81-3.65-3.816-5.21-5.618 2.954 1.164 5.905 2.56 8.98 4.226.713.448 1.45.86 2.2 1.246 5.02 2.9 10.394 6.57 16.597 11.35l.64.48s5.54-1.83 7.133-2.37c5.006 8.1 9.65 12.2 13.41 15.434l.984.857c-1.4 2.875-4.16 5.204-7.27 7.565-2.55 1.95-5.19 3.98-7.26 6.54-2.387 2.92-4.055 5.708-5.07 8.36l-.04-.01c-.03.104-.05.2-.09.303-.69 1.883-1.05 3.69-1.05 5.42 0 1.26.185 2.49.56 3.67 1.384 4.387 5.12 7.237 8.48 8.987 1.6 3.92 4.07 6.192 5.18 7.05 0 0 .003-2.228.363-4.846 2.88.786 7.893.7 11.65-1.202 1.945 2.37 6.873 3.696 10.38 4.366.67 1.696 1.31 3.1 2.01 4.546 0 0 .63-1.717 1.447-3.994.228.03.376.04.39.04 4.876.44 8.773-2.715 11.7-5.218 3.05 1.545 6.96 1.86 9.984 1.905.568 2.243.794 3.97.794 3.97.817-.68 2.2-2.125 3.38-4.576 3.525-1.145 7.513-3.686 9.607-5.925 1.46.623 3.4.726 6.17.115-.07 2.62-.46 4.9-.46 4.9 1.08-.818 3.465-2.76 5.12-6.4 4.99-2.16 7.796-6.76 7.796-12.92 0-.476-.012-.985-.044-1.486zM243.983 183.56c-.42-.353-.844-.694-1.27-1.03-1.45-1.44-2.75-2.726-3.775-3.736 1.81-4.748 9.464-3.204 12.266 1.158-3.176.418-6.57 2.682-7.22 3.61zm3.298 2.844c3.05-1.885 6.11-2.09 7.54-1.074.61 1.672 1.05 3.55 1.24 5.668v1.376c-1.14.232-2.49-.5-3.63-1.267-1.65-1.544-3.38-3.146-5.14-4.703zM203.24 383.94c-.606-1.35-1.224-3.088-1.475-5.237-.096-.778-.147-1.5-.147-2.162 0-2.05.43-3.56 1.25-4.31.495-.45 1.153-.6 1.938-.43l1.258.79.336 1.72-.986 1.82-1.598 2.98c-.458 1.5-.54 3.5-.574 4.84zm18.612-2.863c0-1.403.27-2.348.79-2.87.425-.424 1.018-.572 1.81-.443 1.29.257 1.67 1.62 1.67 2.38 0 .058-.007.122-.014.167l-.766 2.6-.59 1.57s-.862 3.18-1.287 4.76c-.644-1.46-1.102-3.84-1.32-5.17-.2-1.16-.297-2.15-.297-2.99zm22.257 3.23c-.9-1.99-1.29-3.352-1.36-4.684-.01-.045-.01-.084-.01-.135 0-.824.4-2.233 1.94-2.49.75-.006 1.33.232 1.73.7.47.567.71 1.455.71 2.684 0 .856-.13 1.872-.36 3.05 0 0-1.41 4.09-1.8 5.255-.02-1.235-.174-2.83-.87-4.38zm19.99 3.64s.2-2.122-.25-4.052c-.54-2.297-1.49-3.095-1.74-5.54-.13-1.1.63-2.232 2.14-2.354 1.33-.09 2.93 1 2.04 5.92-.41 2.26-1.197 4.54-2.202 6.04zm6.32-16.482c1.09 2.51 1.23 4.883.87 6.955-.353.74-.7 1.383-1.01 1.91-.535.882-1.005 1.5-1.43 1.97.096-.47.154-.908.21-1.345.627-4.652-1.04-7.476-5.203-7.7-2.6-.027-4.41 2.34-4.63 3.692-.3 1.878.304 3.14 1.02 4.426.592 1.068 1.262 2.15 1.57 3.622.045.238.077.495.096.765-2.308.168-4.756-.405-6.94-1.775l-.805-.52-.807.507c-.9.566-2.525 1.46-4.367 2.252.22-.592.4-1.203.554-1.815.025-.11.07-.22.09-.33 1.54-6.83-.76-10.34-5.31-10.08-2.55.16-4.1 2.66-4.263 3.97-.185 1.535-.095 2.59.137 3.562.3 1.254.83 2.355 1.34 4.124.18.63.34 1.396.48 2.22-.37-.027-.715-.07-1.04-.16-1.69-.458-3.37-1.08-4.383-2.43-.64-1.908-1.02-4.34-1.072-6.848-.13-5.536 1.257-11.42 4.723-12.78-2.604-1.62-5.28 1.29-5.986 2.1-.42.49-1.806-3.486-6.187-2.51 1.756 1.18 4.62 2.363 4.96 12 .056 1.57.05 3.345-.047 5.404-.04.872-.54 2.454-.956 3.644-1.25.8-3.035 1.16-4.665 1.08-.17-.005-.31-.024-.48-.037.106-.32.2-.62.305-.92.847-2.616 1.64-3.58 1.736-6.06.017-.47.017-.976-.02-1.58-.09-1.358-1.59-3.874-4.13-4.124-2.6-.25-4.568.93-5.45 3.385-.586 1.63-.7 3.805-.18 6.54.05.237.102.48.16.726-1.816-1.093-3.098-2.6-3.79-4.53l-.16-.423c-.007-1.846.21-3.944.71-6.13 1.12-4.955 3.61-10.307 7.83-13.96-2.306.166-4.47.34-3.336-6.737-3.143 7.245-8.606 9.53-12.214 9.01 3.875 1.93 5.68 4.485 6.304 7.135.92 3.917-.74 8.035-2.214 10.64l-.537.21c-2.45.958-4.01 1.57-5.89 1.164.044-.19.083-.377.134-.557.863-3 3.08-4.315 3.33-7.15.03-.34.05-.69.02-1.083-.13-1.456-1.83-4.068-4.56-4.255-2.244-.154-3.867.573-4.885 2-1.035 1.45-1.42 3.63-1.16 6.383-2.053-3.12-1.325-8.645-.71-11.064v.004c.34-.874.72-1.723 1.23-2.52 1.24-1.956 4.13-3.41 6.46-4.575l3.005-1.627c.89-.594 1.813-1.95 3.64-4.705 3.94-5.927 10.523-15.828 19.664-19.116l.01-.004v.01c2.823-1.044 11.5-1.218 17.67 10.356l5.633 10.41c1.66 2.445 4.475 5.85 7.59 8.41.36.294.76.655 1.17 1.05l3.755 4.14c.985 1.255 1.83 2.516 2.402 3.64zm47.443-115.047c-.884.135-3.995 1.5-4.18 1.576-.86-.11-2.154-.984-3.526-1.917-1.507-1.042-3.07-2.09-4.464-2.457 0 0-.004-.007-.01-.007 1.03.38 3.62-.148 6.152-.67 0 0 3.993-.713 4.56-.816h-.01c-1.12.264-6.296 2.792-6.296 2.792.116.33 9.825-2.22 11.03-2.55-1.4.36-8.44 3.79-8.44 3.79.077.31 4.245.27 5.186.25zm-35-10.904l.545-.116.347-.45 1.25-1.622c.76.476 2.607 1.602 2.607 1.602l.858-.913s.806-.888 1.566-1.73c.84.893 2.64 2.778 2.64 2.778s1.88-1.26 2.672-1.782c.587.81 1.56 2.11 1.56 2.11l.573.13c1.05.22 10.146 2.98 16.13 5.06-1.78.23-3.556.47-5.334.8-3.214-1.88-7.047-.72-10.58-1.03 1.188-.2 2.908-1.97 3.9-2.46-2.08-1.01-5.6 1.38-7.71.04-.64-.41-1.52-2.493-2.4-2.33l-1.762 4.87-1.766-4.87c-.883-.163-1.77 1.92-2.41 2.33-2.106 1.348-5.617-1.05-7.698-.03.983.49 2.703 2.256 3.882 2.46-3.526.317-7.365-.84-10.57 1.037-1.627-.294-3.257-.533-4.887-.74 6.092-2.096 15.57-4.907 16.58-5.12zm-20.65 10.763c1.456.186 4.51.244 4.51.244 0-.33-5.863-3.24-7.75-4.16l.592.17c3 .97 9.7 2.76 9.7 2.76v-.002c0-.373-5.03-2.875-6.03-3.364h.025c.927.41 4.38 1.05 4.38 1.05 2.57.52 5.205 1.07 6.26.99-1.462 0-3.05 1.07-4.58 2.133-1.373.934-2.67 1.81-3.524 1.918-.097-.034-2.9-1.27-3.943-1.733l.354.02zm.722-4.407c.023.013.035.026.055.038l-.085-.038h.026zm-2.23 84.096c-1.864-2.283-3.114-4.36-5.388-9.952-.266.302-.498.56-.724.804-1.54 1.544-2.46 2.908-3.027 4.195-3.5-5.43-3.72-10.48-3.72-14.52l-.607.604-1.565 1.564-.02.01c-.826.81-1.7 1.69-2.166 2.16-1.66-8.9 0-12.83.824-15.93 0 0-1.773.99-3.287 1.84-1.07.39-2.206.86-3.16 1.7-.296-9.3 4.63-19.33 6.45-21.54-.01.007-.02.007-.03.014-.015 0-.028.005-.03.01l.33-.696-3.323 1.906c-1.463.72-2.73 1.51-3.486 2l-.71.41c.006-.205.04-.424.064-.636 2.57-7.114 7.36-14.54 10.053-17.105l.22-.13-.04-.04c0-.007 0-.007.01-.007-.393-.333-1.076-1.195-1.84-2.404l-.02.02c-1.967-3.06-4.428-8.336-3.71-12.9.004-.02.004-.036.004-.056.575-4.16 1.04-3.55 1.04-3.55.186-.026.373-.032.56-.05.186-.02.386-.045.58-.05.29-.008.573.005.863.02.06.004.123 0 .187.004 5.133.324 9.24 4.27 15.434 5.91-1.23 1.085-2.99 1.42-4.71 1.3h.006c-.585-.04-1.165-.137-1.725-.266.16.29.445.64.8 1.016.528.566 1.256 1.202 2.306 1.88h-.012c.01.004.014.004.014.01-.733.06-1.713-.083-2.763-.366l.005-.014c-.922-.25-1.907-.614-2.874-1.103l-.006.008c-1.63-.81-3.215-1.912-4.303-3.282.63 3.31 2.48 5.378 4.976 6.825l-.01.008c-.667.263-1.807.6-3.15.4v.004c-.796-.118-1.66-.41-2.536-1.018 1.016 1.825 3.084 3.864 4.53 5.21 1.473-.78 3.09-1.565 3.644-2.53.03-.064.04-.09.064-.148.122.062.295.113.566.15 1.85.21 3.31-1.448 4.55-.82.63-1.67 1.87-4.977 3.947-6.22 2.08-1.246 3.525-.622 4.768-1.04 1.25-.404 8.09-6.83 9.95-7.45 1.87-.616 3.73-.616 5.188.83 1.46 1.45 4.51-.803 5.34-1.01 0 1.45-1.2 3.29-1.2 3.29-2.89-.83-4.55-2.08-6.212-1.237-1.653.824-2.69 3.1-4.14 3.307-1.456.213-4.57.62-6.842 3.93 3.94 1.455 5.39-.41 7.046-1.865 1.67-1.45 5.19-2.07 6.64-1.45 1.21.53.2 1.904-.765 3.07-.19.23-.385.455-.55.655-1.04 1.25-.94 1.764-.94 1.764.866-.41 1.45-.81 1.9-1.17 1.02-.795 1.298-1.35 2.01-1.21 1.04.203 1.86 3.523 1.25 6.01-.622 2.49 1.66 4.56 2.49 6.204.824-1.64 3.11-3.713 2.487-6.203-.63-2.485.21-5.805 1.233-6.01.76-.15 1.01.475 2.177 1.34.432.32.98.673 1.746 1.04 0 0 .104-.515-.94-1.76-.116-.145-.244-.286-.367-.44-1.02-1.204-2.24-2.73-.95-3.29 1.45-.616 4.972 0 6.63 1.45 1.66 1.454 3.115 3.32 7.045 1.866-2.273-3.31-5.385-3.717-6.834-3.93-1.462-.206-2.486-2.483-4.15-3.306-1.667-.84-3.322.405-6.22 1.235 0 0-1.193-1.84-1.193-3.29.823.21 3.89 2.46 5.34 1.01 1.45-1.443 3.324-1.443 5.18-.83 1.874.62 8.71 7.05 9.96 7.45 1.242.42 2.692-.202 4.766 1.046 2.074 1.24 3.32 4.55 3.942 6.215 1.242-.625 2.692 1.03 4.554.822.266-.03.44-.084.57-.15.02.06.024.08.057.15.837 1.45 2.132 1.284 3.69 2.53 1.438-1.35 3.467-3.356 4.504-5.22-2.392 1.645-4.67 1.04-5.704.62 2.494-1.452 4.356-3.523 4.98-6.836-2.486 3.105-7.465 4.964-9.952 4.765 1.765-1.146 2.69-2.18 3.11-2.903-2.176.52-4.77.415-6.43-1.04 7.05-1.86 10.5-8.625 17.63-5.826 0 0 .09.003.22.254.15.277.36.85.6 2.07.007.034.007.06.007.09.07.336.14.71.207 1.14.677 4.413-1.584 9.51-3.498 12.616-.7 1.117-1.336 1.98-1.787 2.45-.125.13-.228.24-.324.31l1.982 1.316c2.315 2.57 5.54 7.15 8.04 11.99.58 1.624.975 3.19 1.026 4.54-.224-.13-.47-.268-.733-.41-.94-.62-2.666-1.673-4.56-2.496-1.36-.74-2.37-1.284-2.37-1.284l1.16 2.27c.53.7 1.04 1.41 1.514 2.16 2.03 4.23 4.335 10.95 4.213 17.386v.04c-.32-.307-.643-.603-.97-.88-1.78-1.325-3.945-1.78-5.53-2.728l-.02-.01c.02.097.04.22.08.355l-.015-.004c.02.07.04.133.06.21.37 1.596 1.16 5.115 1.5 8.9-.02 1.824-.215 3.98-.69 6.58l-.91-.806-3.486-3.29c0 2.07-.05 4.4-.567 6.91-.316.83-.605 1.647-.754 2.458-.02.173-.063.347-.102.527-.523 1.46-1.245 2.97-2.21 4.51-1.103-1.606-2.31-4.25-3.12-6.03-.057-.16-.135-.338-.186-.49-.01.01-.02.024-.024.04v.02l-.073-.126c-.38 1.08-1.643 4.013-2.912 6.87-.994 2.013-1.94 3.6-2.91 4.78-2.89-3.53-5.06-5.91-7.46-6.63-.93-.28-2.44 2.724-2.05 6.58v.32c0 1.072.166 2.22.6 3.35.488 1.254.59 2.476.848 3.756.06.29.12.58.197.876.533 1.955.295 4.34-.37 6.613-.102.38-1.58 4.952-4.82 6.26-.203-1.08-1.48-2.568-2.58-3.58-.45-.42-.884-.754-1.18-.947l-.097-.063c-.412 1.28-1.706 6.356-3.23 7.7-.47-1.274-1.42-2.95-2.55-4.52-.424-.607-.875-1.186-1.35-1.727-.057-.06-.11-.14-.16-.2-.3.875-4.104 6.11-5.566 7.6-1.02-1.046-3.19-3.93-4.504-5.86-.45-.667-.8-1.22-.968-1.54-.04-.08-.07-.15-.084-.2-1.36 2.51-2.71 2.82-4.064 6.45-.936-.854-1.818-3.216-2.45-5.15-.36-1.107-.637-2.08-.786-2.55-.075.046-.15.11-.22.16-2.264 1.495-3.64 4.094-3.64 4.428-2.18-.733-4.38-3.65-5.02-7.096-.33-1.707-.573-3.26-.315-4.88.043-.3.075-.597.152-.9.44-1.6 1.05-3.093 1.64-4.63.33-.843.516-1.693.62-2.516 0 .046 0 .085.005.13.936-4.452-.822-8.18-1.87-7.87-2.39.72-4.544 3.1-7.46 6.634zm36.042 31.472l-6.72 2.355-7.964-5.565c.007-.013 1.09-2.04 2.004-4.38 1.746 3.672 3.57 5.326 4.555 6.15l1.34 1.164 1.1-.862.34-.303c.96-.804 2.727-2.374 4.415-5.828 1 2.31 2.867 6.75 2.867 6.75l1.587-1.43c1.48-1.33 3.08-2.85 4.05-5.93.08.22.157.43.228.64-2.36 4.06-3.264 8.86-3.573 11.81-1.48-1.99-2.795-3.85-3.394-4.85-.2.06-.485.16-.827.27zm5.66 59.837c-.806-1.474-1.43-4.06-1.59-6.453-.034-.45-.054-.888-.054-1.312 0-2.767.662-4.85 1.873-5.81.73-.572 1.63-.714 2.62-.405h.02l1.343.96c.23.39.34.86.34 1.382 0 .34-.05.707-.153 1.093l-1.54 3.185-1.65 2.998c-.84 2.155-1.1 3.455-1.215 4.362zm26 3.23c-.02-1.397-2.016-8.615-2.016-8.615-.452-2.914-.26-4.857.598-5.79.47-.495 1.133-.7 2.03-.63 1.84-.052 2.582 1.51 2.673 2.843v.032c.007.026.245 1.724-.573 4.098l-2.7 8.113c-.006-.013-.006-.033-.006-.052zm23.934-7.862c-1.232-2.394-1.98-3.828-2.302-6.028-.026-.283-.045-.554-.045-.81 0-.876.205-1.635.61-2.156 0 0 1.547-.83 1.567-.85.012.01 2.06.56 2.06.56.877.8 1.31 2.58 1.34 5.43v.43c0 3.55-.45 6.065-1.25 7.91l-1.976-4.51zm23.358-7.765c-.103 1.865-.58 4.683-1.024 6.542-.07-1.544-.25-3.557-1.01-5.024l-2.17-3.165-1.68-2.59c-.1-.24-.152-.58-.152-.95 0-.44.077-.9.283-1.34l1.44-1.24.03-.01c.82-.34 1.55-.29 2.216.17 1.336.94 2.11 3.385 2.11 6.505 0 .37-.013.75-.03 1.124zm-4.858-10.525c-2.93.624-4.358 3.737-4.26 5.32.16 2.6 1.54 3.9 2.92 5.456.73.82 1.456 1.71 2.003 2.92.315.69.515 1.55.64 2.48-2.36.29-4.847-.08-6.91-1.04l-.13-.07c-.605-.74-.94-1.43-1.34-2.7.2.96.187 1.89.026 2.78l-.275.29c-.053.04-2.19 2.2-5.252 4.132.15-.93.253-1.95.304-3.03.01-.3.027-.596.04-.91.13-8.527-3.324-10.41-6.55-10.174-2.797.032-4.846 2.78-5.007 4.657-.17 1.906.01 3.257.445 4.56.56 1.695 1.545 3.31 2.872 5.92.302.594.566 1.21.81 1.84-.734.11-1.475.16-2.21.12-1.932-.136-3.31-.548-4.284-1.288-1.254-2.347-2.105-5.654-2.07-9.147.06-4.557 1.61-9.37 5.802-12.605-2.485-.36-4.29 1.18-6.15 2.24-1.29.74-2.33.47-3.845-.03-1.27-.418-2.72-.14-4.104-.14 1.754.363 4.76 1.75 5.555 5.433.228 1.056.408 2.014.56 2.92.918 5.283.776 8.25.38 10.09l-.03.095c-1 2.816-4.586 4.51-7.505 4.9-.53.065-1.008.09-1.5.13.79-2.233 1.555-4.427 2-5.823.444-1.37.683-2.43.812-3.31.25-1.685.05-2.66-.13-3.59-.57-2.86-3.297-4.798-5.996-4.42-2.94-.17-5.89 2.08-5.24 8.172.12 1.104.34 2.32.718 3.684.52 1.885 1 3.48 1.44 4.87-2.88-.785-4.836-2.45-5.82-5.05l-.503-1.35c-.13-1.532-.13-3.153-.02-4.79.34-4.474 1.65-8.93 4.2-11.04-1.6-.19-3.604.71-4.16 2.288.114-.574-3.287-4.79-3.944-4.97.7 2.195 1.22 4.83 1.55 7.515.57 4.772.514 9.72-.42 12.79-1.93 1.992-5.9 3.43-10.77 1.992.28-1.01.63-1.967 1.08-2.76 1.44-2.59 2.518-3.846 3.06-5.982.154-.602.263-1.27.334-2.082.16-2.07-1.27-4.952-4.18-5.63-4.34-.79-6.95 1.547-7.77 6.15-.273 1.58-.35 3.426-.203 5.5.026.3.084.557.116.846-3.82-2.8-5.34-5.95-3.954-11.26.047-.188.1-.368.156-.554.884-2.4 2.437-4.98 4.68-7.75.134-.167.3-.33.443-.49 1.273-1.227 4.46-3.8 6.89-5.74l3.993-3.25c2.774-2.34 4.75-6.635 5.81-8.95l.533-1.128c.822-1.48 1.814-2.857 2.954-4.125 1.05-1.037 2.087-1.977 3.104-2.84 2.486-1.94 5.405-3.53 8.73-4.67-.897 1.15-1.728 2.58-2.494 4.45 17.825-14.258 27.93 6.74 18.785 10.523 0 0 14.387-.76 8.937 16.56 6.09.482 6.986 6.35 6.986 6.35s3.345-12.977 14.516-5.424c-2.486-7.554-9.67-10.73-13.42-15.3-5.584-6.787-6.943-9.444-11.5-16.25-1.435-1.898-3.06-3.204-4.85-4.09-6.7-4.41-15.023-3.48-21.64-.703-3.8 1.592-7.034 3.793-9.063 5.95 2.367-4.718 6.516-8.03 10.88-10.115 4.06-1.93 8.32-2.806 11.52-2.716 3.19.082 5.95-.53 8.3-2.9-1.9.403-3.778.242-8.4.35-9.58.2-16.19 2.703-20.97 6.17-6.06 4.4-9.177 10.34-11.5 15.19-.36-.43-.76-.88-1.18-1.37.06-.303.102-.625.082-.98-.22-3.93.627-6.676 2-10.433 1.484-4.077 5.697-8.25 6.89-9.43.15-.16.25-.27.31-.31 3.454-3.896 7.32-7.177 11.783-9.82 6.23-3.72 10.65-10.546 9.165-17.738.478 2.36-3.02 7.68-3.93 8.426.11-1.547-.205-3.528-.637-4.71-.175 3.234-2.765 6.03-4.845 8.452-2.28 2.67-6.166 3.26-9.08 5.45l-1.5 1.11c-.29-2.8-1.585-4.89-2.764-6.777-1-1.61-1.87-2.997-1.94-4.566-.01-.27-.02-.535-.02-.77 0-2.397.508-3.54.817-3.928 1.463 1.05 3.563 3.97 5.63 6.89l.858 1.21c.376.86.68 1.572.87 2.04 2.656-4.15 3.59-6.206 4.705-9.938l.983-2.025.247.423 2.127 4.1c.17.812.343 1.68.646 2.672 2.757-2.318 4.29-6.397 4.967-10.675.52-1.51.99-2.985 1.37-4.188.33.45.674.924 1.125 1.593l2.83 4.12c.88 2.897 1.575 5.87 1.955 8.53-1.68 5.35-6.802 9.376-11.034 12.837 2.17 1.14 5.48-.415 5.22-.21-5.795 4.614-14.6 4.36-17.67 12.636 4.29-4.39 6.322-4.806 8.36-5.65 6.202-2.59 14.345-3.094 20.394-6.67 3.197 4.07 5.915 8.68 6.688 13.55-4.12-1.565-8.05.47-8.05.47 3.51.744 6.69 3.414 8.473 4.977.026-.043.04-.1.058-.165l1.88 2.766c5.914 8.65 11.95 17.285 15.024 19.49 6.63 4.76 10.402 10 11.33 15.58l-.045.01c.245 1.85.04 3.774-.61 5.743-.42 1.28-1.02 2.57-1.818 3.89-.15.246-.34.43-.518.65.065-.404.116-.81.15-1.24.05-.644.076-1.255.09-1.853.134-6.974-2.552-10.796-7.887-9.663z" fill="#002344"/><path d="M311.633 367.04s1.173-5.083 3.524-9.432c-1.198 1.197-5.405 5.36-6.887 9.43-1.372 3.758-2.222 6.512-1.997 10.443.02.35-.025.68-.09.98.425.49.825.94 1.185 1.37 2.326-4.85 5.438-10.79 11.5-15.19-1.623-.2-7.235 2.4-7.235 2.4" fill="#FFF"/><path d="M328.422 363.733c-4.374 2.078-8.517 5.397-10.88 10.113 2.028-2.155 5.262-4.356 9.063-5.95.728-1.21 2.268-3.784 2.345-4.19-.154 0-.348.02-.528.027" fill="#FFF"/><path d="M304.56 360.207c-.07-.206-.15-.418-.226-.637-.973 3.082-2.57 4.594-4.052 5.92l-1.585 1.434s-1.868-4.44-2.86-6.762c-1.7 3.46-3.46 5.03-4.42 5.842l-.34.29-1.096.868-1.34-1.158c-.98-.83-2.8-2.477-4.55-6.15-.91 2.335-1.99 4.36-2 4.374l7.97 5.565 6.73-2.355.808-.276c.008 0 .008.006.008.006.607 1.01 1.92 2.87 3.4 4.857.31-2.946 1.208-7.746 3.58-11.818" fill="#FFF"/><path d="M342.3 308.16v-.037c-.304-.322-.633-.598-.974-.843.328.277.65.573.973.88" fill="#F47735"/><path d="M317.515 322.617c.052.206.11.425.187.682-.04-.12-.052-.25-.084-.36-.032-.11-.077-.22-.103-.33" fill="#F47735"/><path d="M321.258 309.757c.657-.978 1.192-1.936 1.643-2.856l-5.76 1.16c-.68 1.8-2.53 3.92-4.83 5.9l6.67-.22c.61-1.25 1.36-2.56 2.29-3.97" fill="#F47735"/><path d="M317.38 321.948v.007c.006.122.05.328.116.59-.045-.166-.065-.34-.097-.513-.01-.032-.02-.052-.02-.084" fill="#F47735"/><path d="M276.24 319.78c.006-.103.038-.174.057-.264-2.016-.842-4.47-2.31-6.764-4.033l-7.344-.238c2.91 3.094 4.27 7.404 3.79 11.657 2.92-3.01 3.77-6.15 2.1-10.847 2.79 2.02 5.36 3.66 8.14 4.523-.01-.29 0-.56.01-.798" fill="#F47735"/><path d="M255.154 312.76c-.02.09.116.394.315.773l1.67.058c-1.5-1.75-2.89-3.42-3.45-5.75-.09-.36-.16-.69-.25-1.03l-2.62-.43c.03.43.04.83.04 1.21 0 .99-.106 1.78-.37 2.26l-.01.01c.07.91.18 1.81.433 2.72.07.28.11.56.16.84l3.91.12c.05-.255.106-.474.15-.76" fill="#F47735"/><path d="M261.383 322.894c0-3.474-1.378-5.752-2.976-7.76l-2.074-.07c.856 1.5 1.94 3.384 2.332 4.703 1.056 3.532.863 8.595.863 8.595.58-.74 1.282-2.354 1.81-3.77.065-.605.045-1.145.045-1.698" fill="#F47735"/><path d="M271.478 285.973c-2.647-1.737-5.237-3.822-6.796-6.446-2.34.36-5.483-1.255-6.037-3.777-.096.592-.045 1.23.194 1.782.85 1.93 3.02 3.095 5.42 3.037.02-.01.05 0 .08-.01h.19c-.07 1.7-.07 3.23.65 4.64.69 1.32 2.29 1.25 3.7 1.17l1.01-.045-.468.366c-2.1 1.666-5.278 2.29-6.946.463-.54-.61-.85-1.44-.85-2.3 0-.535.16-1.056.392-1.545.062-.18.11-.35.18-.524l-2.296-.457-.774-.285s-3.015-1.66-3.382-2.06c-.04-.01-.06-.03-.08-.05-.5 1.357-.76 2.547-.76 3.596 0 1.58.58 2.83 1.735 3.837 1.154.99 2.578 1.7 4.646 2.262l2.69.21 3.09.335.5.156c.17.11.32.236.475.35.357.124.66.324.898.645.005.005.01.005.01.01.027.01.027.025.034.04.136.12.194.23.05.26-.043.008-.09.008-.16 0-.205-.01-.41-.16-.6-.224-.25-.075-.526-.03-.784-.06-.516-.07-1.045-.11-1.567-.12-1.096-.03-2.185.03-3.267.094-3.22.195-6.57.388-9.09-2.044l-1.03-2.384s-.126-.4-.27-.9c-.3-.583-.507-1.253-.57-2.173-1.877.854-2.85 3.743-2.85 8.632l.355 2.47 4.97 1.595c.64-1.25 1.523-2.603 2.722-4.15.01-.02.01-.03.016-.04l.324.21c-.616 1.238-1.215 2.74-1.576 4.46l9.413 3.01c.34-.384.69-.732 1.07-1.034.035-.03.06-.078.106-.104.01-.003.025 0 .025-.003.83-.63 1.72-1.065 2.604-1.187-1.443-1.028-.825-5.17.625-6.2.99-.7 1.79-1.91 3.22-2.304-.26-1.19-.17-2.504-1.26-3.224" fill="#F47735"/><path d="M310.43 291.364h-.027c.026-.013.038-.013.038-.013.07-.03.2-.12.36-.21.17-.15.35-.27.55-.36.34-.22.65-.41.65-.41l.51-.16 3.09-.33 2.7-.21c2.057-.56 3.487-1.263 4.65-2.26 1.098-.97 1.478-2.187 1.478-3.52 0-1.112-.26-2.302-.58-3.492-.08-.223-.16-.436-.23-.654l-1.05.888-2.12 1.47-.78.28s-.69.136-1.297.214c-.316.047-.593.07-.75.06-.03 0-.063.006-.11.006.31.66.466 1.355.466 2.024 0 .98-.302 1.874-.882 2.517-1.654 1.83-4.836 1.208-6.936-.452l-.04-.36.59.04c1.41.067 3.016.14 3.7-1.18.68-1.313.73-2.747.84-4.47v-.18h.025c0-.06.007-.117.014-.18 2.29.352 4.59-.844 5.47-2.85.21-.484.29-1.03.23-1.565-.684 2.39-3.68 3.91-5.966 3.556-1.547 2.63-4.143 4.717-6.79 6.448-.722.484-1.04 1.256-1.296 2.086.05.395-.014.76-.246 1.038 1.72.2 2.594 1.548 3.663 2.33l.09-.06" fill="#F47735"/><path d="M303.928 319.38c.04.13.078.26.097.4 0 .212.006.45.006.708 2.66-.888 5.01-2.484 7.71-4.426-1.67 4.696-1.29 7.83 1.65 10.846-.49-4.35.89-8.575 3.93-11.63l-6.955.224c-2.165 1.628-4.465 3.03-6.417 3.88" fill="#F47735"/><path d="M248.995 278.787c1.784-2.007 3.19-3.603 5.637-4.967.702-.392 1.56-1.86 2.087-2.702.26.663.74 1.133 1.28 1.248l1.23-.012c.51-.946 2.22-1.712 2.85-2.484.49-.585 1.38-.823 1.94-1.376 2.11-2.11 4.32-3.873 7.04-4.973.1-.04.27.67.31 1.1 2.085-1.74 4.06-3.72 6.795-4.55.11.64.11 1.3-.007 1.93.57-.31 1.18-.582 1.884-.78-.014.068-.034.12-.047.177.986-.624 1.534-.45 3.47-.797.03.142.06.26.087.387.973-1.163 1.985-2.54.774-3.06-1.45-.623-4.98 0-6.635 1.44-1.662 1.456-3.112 3.32-7.054 1.874 2.28-3.31 5.39-3.72 6.84-3.934 1.457-.205 2.488-2.48 4.15-3.306 1.66-.845 3.325.403 6.217 1.233 0 0 1.2-1.84 1.2-3.29-.83.208-3.882 2.46-5.34 1.01-1.45-1.445-3.32-1.445-5.184-.83-1.86.62-8.71 7.047-9.953 7.45-1.243.427-2.686-.204-4.767 1.044-2.07 1.25-3.32 4.55-3.943 6.217-1.248-.623-2.698 1.03-4.56.824-.27-.025-.436-.08-.565-.14-.02.05-.024.076-.06.14-.55.965-2.17 1.75-3.643 2.535.024.024.056.043.082.07-.86.765-3.075 2.11-3.69 2.41l-.04-.04c-.008 0-.008 0-.008.01l.04.04-.22.13c-2.69 2.565-7.484 9.99-10.054 17.105-.032.21-.06.43-.065.64.206-.12.438-.25.71-.414.746-.49 2.02-1.28 3.484-2l3.323-1.905-.337.693c.006-.007.02-.007.032-.013.424-.52.875-1.02 1.345-1.49.648-2.166 1.49-4.51 3.348-6.61" fill="#F47735"/><path d="M251.61 321.292c1.398-1.563 2.28-2.805 3.086-6.28l-3.472-.102c.038 2.136-.367 4.29.386 6.382" fill="#F47735"/><path d="M329.87 298.44l.24-1.73-3.724 1.184c.574 1.44.812 2.766.812 4.117 0 .83-.09 1.68-.238 2.58l2.01-.42c.225-1.81.573-3.82.9-5.72" fill="#F47735"/><path d="M327.752 321.292c.74-2.084.348-4.233.38-6.37l-3.453.117c.8 3.45 1.68 4.69 3.07 6.25" fill="#F47735"/><path d="M324.602 299.908c0-.496-.058-.946-.11-1.41l-8.736 2.78c.947 1.5 1.598 3.32 1.695 5.288l6.14-1.274c.72-1.95 1.02-3.744 1.02-5.384" fill="#F47735"/><path d="M284.865 270.21c-.122 1.088-.98 1.854-.927 2.916.116 2.065.393 4.09 1.333 6.227.28.65.28 1.467.06 2.187.29-.07.57-.122.89-.212l-.31.926c-1.45.303-2.99.624-3.62 1.544-.62.946.933 3.944 2.396 4.98l.41 1.248c-1.56-1.454-3.937-2.8-5.296-2.38-1.348.398-3.313 1.132-3.21 2.07.097.927 4.35 2.375 5.914 4.447v1.344c-.74-.624-5.98-3.918-8.52-2.882-1.126.476-2.69 1.82-3.21 3.377 2.226.34 4.874.798 6.12 1.306.79.33 3.34-.534 4.294-.212 0 0-2.475 1.692-1.715 1.962 4.247 1.538 7.74 5.546 10.496 5.546 2.762 0 6.253-4.008 10.505-5.546.75-.27-1.706-1.962-1.706-1.962.94-.322 3.492.54 4.28.212 1.254-.508 3.915-.977 6.144-1.312-.486-1.544-2.05-2.87-3.185-3.332-2.546-1.043-7.84 2.22-8.57 2.843v-1.344c1.572-2.072 5.805-3.52 5.914-4.446.11-.94-1.87-1.673-3.216-2.07-1.35-.42-3.73.925-5.29 2.38l.42-1.25c1.45-1.035 3.01-4.033 2.39-4.98-.63-.92-2.184-1.24-3.634-1.543l-.32-.926c.24.058.427.103.64.142-.2-.69-.204-1.493.08-2.117.94-2.136 1.21-4.162 1.32-6.227.076-1.062-.8-1.828-.916-2.915-.18-1.57-.49-3.05-.4-4.57.08-1.58.71-2.27 1.213-3.29-1.17-.86-1.42-1.49-2.18-1.34-1.026.21-1.87 3.53-1.245 6 .63 2.5-1.656 4.56-2.48 6.22-.83-1.65-3.12-3.72-2.487-6.21.61-2.47-.22-5.79-1.245-6-.72-.15-1 .42-2.01 1.218.51 1.088 1.18 1.764 1.275 3.417.08 1.514-.228 3-.41 4.57" fill="#F47735"/><path d="M262.897 308.387l-5.547-.92c.387.746.82 1.5 1.347 2.29.928 1.396 1.688 2.702 2.287 3.956l6.603.2c-2.145-1.84-3.917-3.815-4.69-5.526" fill="#F47735"/><path d="M255.45 298.55c-.032.45-.103.888-.103 1.357 0 1.776.34 3.75 1.224 5.9l5.93.984c0-.05-.03-.14-.03-.19.09-1.95.74-3.76 1.66-5.25l-8.67-2.79" fill="#F47735"/><path d="M318.314 323.827c0 .334.064.585.09.94-.013-.033-.064.038-.077.018-.24-.444-.432-.9-.593-1.37.483 1.608 1.366 4.008 2.1 4.954 0 0 1.166-5.7 1.714-7.74.387-1.42 1.288-3.78 1.94-5.55l-1.953.06c-1.72 2.17-3.22 4.65-3.22 8.68" fill="#F47735"/><path d="M253.562 297.94l-4.103-1.32.25 1.82c.36 2.143.76 4.408.98 6.39l2.43.404c-.22-1.132-.36-2.193-.36-3.223 0-1.33.24-2.64.8-4.07" fill="#F47735"/><path d="M328.802 305.71l-2.14.43c-.115.542-.25 1.102-.392 1.7-.56 2.335-1.97 4-3.453 5.758l1.198-.04c.136-.41.22-.707.2-.803.045.29.097.527.148.79l3.904-.12c.04-.29.078-.574.16-.85.298-1.075.4-2.15.46-3.21-.13-.464-.188-1.075-.188-1.776 0-.58.03-1.21.1-1.88" fill="#F47735"/><path d="M281.747 250.34c-1.18-.207-2.9-1.976-3.884-2.46 2.08-1.015 5.592 1.378 7.698.033.64-.41 1.53-2.496 2.41-2.33l1.77 4.87 1.77-4.87c.87-.166 1.76 1.92 2.4 2.33 2.11 1.345 5.63-1.048 7.71-.032-.99.49-2.7 2.26-3.89 2.46 3.53.32 7.36-.84 10.58 1.04 1.78-.33 3.558-.57 5.336-.79-5.98-2.08-15.082-4.84-16.132-5.06l-.57-.13s-.973-1.3-1.565-2.1c-.79.52-2.67 1.784-2.67 1.784s-1.8-1.887-2.64-2.78l-1.567 1.73-.85.91s-1.85-1.13-2.61-1.6l-1.25 1.62-.347.45-.55.12c-1.006.212-10.49 3.023-16.58 5.12 1.625.206 3.25.445 4.88.74 3.205-1.878 7.044-.72 10.57-1.035" fill="#F47735"/><path d="M245.696 318.66l1.566-1.556c-.342.334-.94.92-1.585 1.563l.02-.006" fill="#F47735"/><path d="M330.696 292.47c0-4.927-.966-7.86-2.635-8.627-.06 2.47-.09 3.72-2.11 5.546-2.47 2.36-5.81 2.15-9.04 1.96-1.87-.11-3.8-.21-5.72 0-.24.05-.48.11-.71.17 1.41 1.12 1.99 5.16.56 6.16 1.35.19 2.676 1.05 3.79 2.31l9.458-3.01c-.36-1.71-.954-3.21-1.566-4.44l.317-.2c.007 0 .007.016.02.035 1.19 1.54 2.075 2.89 2.72 4.124l4.586-1.46.356-2.587" fill="#F47735"/><path d="M325.272 324.316l.077.122v-.02c-.03-.045-.05-.096-.07-.14 0 .005-.01.025-.02.038" fill="#F47735"/><path d="M335.78 304.546h.018c-.006 0-.013 0-.02-.006v.006" fill="#F47735"/><path d="M299.548 261.295c-.007-.033-.013-.065-.02-.09.747.212 1.398.5 2.01.842-.135-.643-.135-1.325-.02-1.988 2.726.83 4.697 2.81 6.778 4.55.058-.43.226-1.14.322-1.1 2.72 1.1 4.922 2.86 7.042 4.97.567.55 1.456.79 1.94 1.37.74.887 2.872 1.473 3 2.483l.98.01c.445-.1.702-.526 1.153-1.12.058-.133.116-.275.174-.41.007.045.13.026.18-.04.226 1.37.922 2.504 1.856 3.025 2.442 1.362 3.865 2.96 5.895 5.25 1.713 1.94 2.525 4.373 3.182 6.61.915.9 1.76 1.874 2.55 2.903l-1.158-2.27s1.01.545 2.37 1.285c1.895.824 3.62 1.88 4.568 2.5.258.14.503.273.728.402-.045-1.35-.444-2.917-1.024-4.545-2.5-4.837-5.727-9.417-8.04-11.99l-1.978-1.313c-.63-.31-2.712-1.724-3.575-2.496-1.55-1.24-2.84-1.08-3.68-2.53-.03-.062-.04-.09-.06-.145-.13.063-.29.114-.56.146-1.87.205-3.31-1.448-4.55-.82-.62-1.67-1.87-4.977-3.94-6.22-2.08-1.25-3.52-.625-4.77-1.043-1.243-.402-8.08-6.83-9.953-7.45-1.864-.614-3.73-.614-5.18.83-1.45 1.45-4.52-.8-5.34-1.01 0 1.45 1.19 3.29 1.19 3.29 2.9-.83 4.56-2.08 6.223-1.234 1.656.82 2.686 3.1 4.15 3.3 1.45.214 4.56.62 6.834 3.93-3.93 1.456-5.385-.41-7.053-1.864-1.65-1.445-5.172-2.063-6.622-1.445-1.292.56-.074 2.084.95 3.287.04-.193.09-.386.13-.604 1.853.335 2.427.18 3.34.715" fill="#F47735"/><path d="M268.186 329.327c1.038-.302 2.803 3.423 1.862 7.875-.006-.046-.006-.09-.013-.13-.096.818-.283 1.674-.612 2.523-.592 1.524-1.204 3.023-1.643 4.625-.077.303-.11.6-.154.895-.25 1.62-.013 3.178.316 4.89.65 3.447 2.84 6.355 5.025 7.088 0-.334 1.378-2.933 3.64-4.432.07-.03.14-.1.218-.14.15.47.426 1.44.786 2.54.63 1.94 1.52 4.3 2.45 5.16 1.36-3.63 2.71-3.95 4.06-6.44.02.047.05.118.09.195.17.316.52.88.97 1.538 1.31 1.94 3.49 4.83 4.51 5.86 1.46-1.474 5.26-6.71 5.56-7.586.06.06.11.136.17.2.48.534.93 1.126 1.36 1.725 1.13 1.57 2.08 3.245 2.55 4.52 1.52-1.345 2.82-6.415 3.227-7.695.03.01.067.04.1.054.302.193.727.527 1.18.945 1.1 1.01 2.37 2.494 2.582 3.574 3.234-1.307 4.71-5.88 4.82-6.254.662-2.276.9-4.663.366-6.62-.08-.29-.136-.58-.2-.874-.25-1.285-.36-2.5-.837-3.75-.44-1.144-.6-2.28-.6-3.36v-.32c-.396-3.853 1.112-6.86 2.05-6.59 2.393.73 4.564 3.11 7.46 6.64.97-1.18 1.91-2.76 2.91-4.78 1.27-2.854 2.53-5.79 2.904-6.862.007-.013.014-.032.02-.045.02.047.21.43.27.594.81 1.78 2.017 4.425 3.11 6.033.98-1.545 1.697-3.05 2.218-4.523.03-.167.08-.347.11-.527.14-.81.43-1.62.746-2.45.516-2.51.567-4.84.567-6.91l3.49 3.282.91.81c.475-2.603.67-4.752.69-6.58-.34-3.79-1.136-7.31-1.497-8.902l-.06-.21.014.01c-.033-.13-.06-.25-.078-.354 0 0-.01 0-.01-.005.013.004.02.01.026.01 1.58.943 3.75 1.41 5.53 2.725.336.245.665.52.968.843.12-6.436-2.184-13.16-4.214-17.39-.475-.736-.984-1.456-1.513-2.15-.79-1.03-1.64-2-2.55-2.896.07.225.14.463.2.695.15.51.22 1.22.22 2.04 0 1.59-.25 3.61-.55 5.502l2.58-.822.46 1.43-3.34 1.068c-.306 1.57-.628 2.94-.867 3.65-.482 1.48-.79 2.94-1.004 4.34l2.75-.56.32 1.47-3.177.64c-.04.59-.075 1.19-.11 1.79-.023-.08-.056-.157-.08-.234-.034.546-.053 1.086-.053 1.582 0 2.133.186 3.844.34 4.92.127.6.127 1.04.19 1.16-.05-.068-.004-.06 0 0 .01.01 0-.01 0 0 0 .015.01-.01 0 0 0 .01 0-.01 0 0l-2.825-4.52c-.08-.135-.13-.3-.18-.483-.06 1.06-.17 2.135-.46 3.203-.08.29-.13.57-.165.86l1.78-.064.045 1.493-1.96.07c-.03 2.13.36 4.275-.38 6.353-1.39-1.55-2.27-2.79-3.072-6.24l-1.192.04c-.65 1.76-1.55 4.13-1.93 5.544-.548 2.044-1.72 7.73-1.72 7.73-.735-.94-1.618-3.34-2.1-4.947-.007-.04-.02-.08-.033-.125-.075-.25-.133-.47-.185-.676l-.02-.06c-.065-.267-.11-.49-.116-.6-.007-.054-.02-.105-.02-.144-.083-.49-.14-.984-.14-1.493 0-1.57.366-3.26 1.08-5.077l-.997.036c-3.04 3.042-4.42 7.282-3.93 11.62-2.92-3.013-3.3-6.153-1.638-10.85-.375.94-5.465 3.744-5.465 12.166 0 3.473 2.35 10.755 1.96 13.155-.398 2.387-2.72 7.765-7.498 7.765-4.765 0-8.35-1.79-10.827-1.79-2.49 0-6.064 1.79-10.85 1.79-4.762 0-6.972-5.38-7.36-7.767-.12-.748.02-1.957.28-3.38.025-.173.063-.36.095-.54.587-3.09 1.58-6.974 1.58-9.24 0-7.525-3.1-9.713-5.194-11.77-.194-.156-.35-.29-.38-.394 1.67 4.695.817 7.835-2.1 10.846.48-4.248-.877-8.565-3.795-11.66l-.535-.006c.66 1.693.997 3.27.997 4.75 0 1.68-.43 3.273-1.32 4.72.23-.23-.02.033 0 0 0-.04 0-.076.005-.115-.527 1.417-1.23 3.03-1.816 3.77 0 0 .195-5.07-.85-8.594-.392-1.32-1.474-3.202-2.34-4.7l-1.634-.045c-.805 3.47-1.69 4.71-3.086 6.264-.75-2.085-.35-4.234-.388-6.376l-1.393-.05.052-1.493 1.21.04c-.044-.28-.09-.553-.16-.84-.25-.9-.36-1.804-.425-2.712-.024.04-1.2 1.94-2.105 3.23-.334.54-.65 1.004-.843 1.235.03-.044-.13-.06-.164-.09.23-.4.805-2.875.805-6.27 0-.644-.02-1.326-.065-2.033l-2.96-.49.25-1.48 2.544.425c-.195-1.64-.53-3.37-1.11-5.13-.24-.725-.575-2.127-.884-3.75l-2.985-.963.46-1.43 2.23.718c-.303-1.867-.53-3.836-.53-5.4 0-.82.066-1.526.214-2.04.1-.32.197-.65.29-.985-.47.475-.92.97-1.343 1.492.008 0 .027-.01.034-.016-1.817 2.21-6.745 12.24-6.45 21.54.948-.833 2.082-1.303 3.164-1.7 1.513-.85 3.285-1.83 3.285-1.83-.826 3.11-2.488 7.048-.83 15.94.47-.485 1.344-1.347 2.17-2.164.643-.64 1.242-1.23 1.584-1.56l.6-.61c0 4.044.224 9.08 3.723 14.524.564-1.3 1.48-2.658 3.03-4.195l.717-.81c2.273 5.59 3.523 7.666 5.385 9.95 2.912-3.53 5.07-5.91 7.466-6.64" fill="#FFF"/><path d="M324.015 313.56l.348-.014c-.05-.264-.103-.502-.154-.79.02.095-.06.385-.2.803" fill="#FFF"/><path d="M255.005 313.527l.47.013c-.205-.386-.34-.682-.32-.78-.047.284-.105.51-.15.767" fill="#FFF"/><path d="M261.138 274.142c-.908-.22-1.65-.206-2.132.566-.193.31-.296.67-.354 1.042.554 2.522 3.685 4.143 6.03 3.777 1.56 2.63 4.15 4.715 6.796 6.446 1.083.727 1.005 2.033 1.263 3.23.17-.052.34-.09.52-.11-.83-.94.31-3.01 1.45-3.422-4.39-1.46-6.74-6.51-7.56-8.18-3.01-.4-4.98-2.07-6.02-3.1l.02-.24" fill="#FFF"/><path d="M280.008 261.378c-.316 1.293-.56 1.557-.792 2.992-.277 1.763-.097 3.5-.097 5.27-.85-.136-1.63-.522-2.48-.625-.11 1.318.24 2.528.53 3.827.05.193.12.386.29.515-.32.206-.69.142-1.03.084-2.08-.38-3.99-.46-6.03-.36-.56.02-1.09.34-1.65.09l-.27-.15c-.18-.19.05-.64.14-.83.692-1.21 1.832-2.05 2.142-3.48.077-.39.193-.72.2-1.03.032-1.12.476-2.17 1.2-3 .115.53.456 1.75.73 2.28 1.78-1.95 3.14-3.8 5.26-4.96.116-.62.116-1.282.013-1.92-2.745.83-4.716 2.81-6.797 4.556-.05-.43-.22-1.14-.317-1.093-2.715 1.1-4.92 2.866-7.044 4.977-.56.553-1.458.79-1.948 1.376-.63.77-2.337 1.54-2.85 2.484h.42s1.03.03 1.542.186c.126.02.248.01.358.042l.11.554c.927.822 3.28 2.552 6.41 2.276 7.215-.637 10.16 1.756 11.1 2.174.927.42 3.414-1.342 3.414-1.342l-.317.617c-1.29.805-3.216 6.023 3.06 4.67.22-.706.22-1.536-.06-2.18-.94-2.135-1.21-4.16-1.33-6.233-.05-1.057.812-1.816.93-2.91.17-1.56.49-3.05.403-4.58-.104-1.647-.767-2.33-1.276-3.416-.465.36-1.045.76-1.915 1.17 0 0-.095-.512.94-1.76.176-.2.363-.425.55-.663-.026-.122-.065-.24-.09-.38-1.933.348-2.487.174-3.473.798m-12.89 8.318c-.47.81-.67 1.637-.642 2.54 0 0-1.208-.52-1.936-.82-.4-.153-.1-.854.204-1.1 1.21-1.002 2.21-2.04 3.376-3.06.028-.015-.54 1.664-1.003 2.442" fill="#FFF"/><path d="M272.91 266.943c-.272-.54-.607-1.743-.736-2.27-.715.823-1.153 1.884-1.185 3.003-.02.29-.13.637-.21 1.023-.31 1.42-1.45 2.27-2.14 3.48-.1.18-.34.63-.16.82l.27.14c.56.254 1.09-.07 1.65-.09 2.03-.09 3.95-.016 6.02.37.332.052.7.13 1.02-.083-.167-.12-.24-.32-.283-.52-.303-1.286-.65-2.51-.54-3.82.855.11 1.635.49 2.485.63 0-1.77-.187-3.51.096-5.28.225-1.42.464-1.685.79-2.985.015-.065.035-.11.05-.174-.706.193-1.318.463-1.88.78-2.13 1.152-3.48 3.01-5.27 4.96" fill="#002344"/><path d="M264.546 271.408c.722.296 1.927.823 1.927.823-.026-.9.18-1.73.65-2.54.458-.78 1.025-2.45 1.005-2.44-1.172 1.03-2.164 2.06-3.382 3.07-.303.24-.605.95-.2 1.1" fill="#002344"/><path d="M294.82 270.205c.128 1.093.997 1.853.927 2.914-.116 2.07-.393 4.09-1.334 6.23-.27.62-.27 1.42-.07 2.12 6.564 1.54 4.612-3.8 3.304-4.62l-.31-.63s2.488 1.77 3.422 1.35c.93-.42 3.87-2.83 11.09-2.175.89.076 4.23-.74 5.96-1.957l.16-1.05 1.94-.056h.67c-.128-1.015-2.26-1.6-2.99-2.48-.49-.587-1.38-.825-1.95-1.385-2.11-2.106-4.33-3.868-7.04-4.968-.1-.05-.26.65-.32 1.09-2.09-1.75-4.06-3.726-6.788-4.56-.117.67-.11 1.35.02 1.992 2.054 1.16 3.39 2.982 5.14 4.893.264-.54.612-1.75.73-2.277.726.83 1.16 1.886 1.196 3.01.005.29.115.63.2 1.018.3 1.435 1.45 2.277 2.144 3.487.106.18.33.636.145.82l-.264.156c-.57.25-1.09-.07-1.663-.09-2.03-.098-3.943-.014-6.01.372-.33.05-.71.13-1.038-.084.17-.13.24-.323.29-.52.29-1.295.64-2.51.54-3.823-.86.104-1.65.483-2.49.625 0-1.77.196-3.51-.09-5.278-.23-1.46-.48-1.707-.822-3.07-.915-.534-1.488-.38-3.344-.72-.033.224-.084.417-.13.604.13.152.25.3.367.442 1.047 1.24.95 1.763.95 1.763-.76-.364-1.314-.72-1.746-1.04-.51 1.01-1.123 1.706-1.214 3.29-.09 1.524.226 3.01.4 4.574m20.01.103c.315.24.62.945.21 1.1-.726.296-1.6.61-1.937.823-.013-.777-.174-1.736-.638-2.54-.466-.785-1.03-2.457-1.02-2.445 1.18 1.025 2.18 2.055 3.383 3.065" fill="#FFF"/><path d="M308.212 285.973c2.648-1.737 5.244-3.822 6.79-6.446 2.288.354 5.283-1.165 5.966-3.558-.032-.46-.167-.9-.393-1.27-.425-.68-1.043-.77-1.79-.64l.012.31c-1.037 1.03-3.002 2.692-6.017 3.1-.825 1.66-3.163 6.72-7.563 8.18.805.29 1.61 1.418 1.7 2.38.258-.82.574-1.593 1.295-2.075" fill="#FFF"/><path d="M299.548 261.295c.334 1.37.586 1.608.824 3.075.277 1.762.084 3.5.084 5.27.844-.136 1.636-.522 2.493-.625.1 1.318-.26 2.528-.55 3.827-.04.2-.12.386-.29.522.33.2.69.135 1.03.077 2.06-.38 3.98-.46 6.02-.36.57.02 1.09.34 1.66.09l.26-.15c.17-.19-.05-.64-.14-.83-.7-1.21-1.85-2.05-2.15-3.48-.09-.39-.2-.72-.21-1.03-.038-1.12-.47-2.17-1.19-3-.12.53-.47 1.75-.72 2.28-1.76-1.91-3.09-3.73-5.15-4.89-.61-.34-1.262-.63-2.01-.843.008.026.014.058.02.09" fill="#002344"/><path d="M313.102 272.23c.335-.205 1.218-.52 1.94-.83.405-.147.102-.848-.213-1.086-1.21-1.01-2.21-2.04-3.39-3.07-.01-.01.55 1.668 1.02 2.446.47.81.62 1.77.64 2.54" fill="#002344"/><path d="M296.88 342.567c1.012-2.374 2.32-5.842 2.977-8.717-.806-1.416-.947-2.136-1.237-3.545-.174-.823-.264-1.615-.264-2.374 0-1.24.315-2.36.837-3.41-.174-.74-.386-1.55-.63-2.43-.162 0-.33.01-.51.02-.348 1.19-.844 2.36-1.45 3.21l-1.03 1.4-.728-3.92c-.09.04-.18.1-.265.14l-.096.3-.303 1.01-.64-.7c-.64.46-1.23 1.04-1.7 1.82-.66 1.1-.96 1.603-.96 4.183 0 .97.93 4.047 1.53 5.874l1.15 3.38-3.55-3.884c-.51.57-3.77 4.11-3.77 4.11l1.33-3.59c.45-1.21 1.61-4.64 1.54-5.857 0 0-.85-3.97-.93-4.13-.38-.78-.862-1.396-1.4-1.88l-.59.883-.554-1.72c-.075-.033-.126-.065-.197-.09l-.015.135-.733 3.974-1.033-1.43c-.65-.913-1.174-2.194-1.52-3.48-.124-.007-.253-.013-.37-.013-.33 1.186-.607 2.247-.82 3.2.34.857.55 1.77.55 2.774 0 .79-.09 1.633-.276 2.51l-.156 1.09c-.09.65-.17 1.26-.515 2.13l.09.39c.656 2.89 1.95 6.342 2.976 8.716l.084-2.17.05-1.8 1.255 1.55c.57.694.956 1.492 1.25 2.302l.11-.45.26-2.052.893 1.91.69 1.46.43-1.19.294-.92.84.844c.19.2.334.41.47.63.134-.22.276-.43.476-.63l.72-1.05.843 2.316.687-1.46.65-1.903.615 2.5c.294-.8.69-1.61 1.254-2.31l1.215-1.74.173 4.09" fill="#F47735"/><path d="M302.105 336.925l-.283-.328c.244 2.618-.136 4.973-.426 6.6.683-.154 1.315-.32 1.862-.508 1.14-.41 1.38-.53 1.38-1.1 0-.17-.02-.36-.04-.59-.148-1.67-1.45-3-2.493-4.08" fill="#F47735"/><path d="M279.087 343.236c-.284-1.628-.664-3.963-.42-6.562l-.527.624c-.947 1.023-2.14 2.29-2.14 3.854 0 .006-.006.103-.006.154 0 .94.052.96 1.108 1.35.567.213 1.25.406 1.985.58" fill="#F47735"/><path d="M280.49 336.204c-.2-.656-.353-1.222-.476-1.717-.882 3.487-.31 6.832.052 8.858l.167 1.055c.07.502.555.933 1.315 1.152.8.238 1.694.154 1.977-.187.13-.148.13-.353.013-.604-.837-1.73-2.28-5.26-3.047-8.55" fill="#FFF"/><path d="M287.99 345.636c.084-.078.11-.135.11-.226 0-.045 0-.102-.02-.14 0 0-.92-2.04-.947-2.568-.05.245-.528 2.245-.528 2.245l-.02.373c0 .16.09.296.278.374.335.16.876.122 1.127-.058" fill="#FFF"/><path d="M289.89 345.75c.2-.134.174-.25.168-.397-.084-.72-.193-1.602-.548-2.33-.045-.064-.09-.134-.135-.2l-.805 2.272-.065.36c-.012.078 0 .213.174.316.31.19.88.18 1.21-.02" fill="#FFF"/><path d="M284.518 344.947c.05.52.38.72.567.792.27.1.6.06.78-.11.167-.15.218-.36.11-.79-.266-1.04-.594-2.29-1.058-3.41-.097-.17-.206-.33-.33-.49l-.114 3.47s.038.5.045.52" fill="#FFF"/><path d="M296.97 345.295c.297.334 1.186.424 1.998.186.74-.21 1.224-.65 1.288-1.14l.18-1.07c.297-1.66.73-4.2.587-6.97-.078-.6-.193-1.2-.348-1.81-.908 3.69-2.732 8.187-3.71 10.22-.123.26-.117.46.006.607" fill="#FFF"/><path d="M292.39 345.346v.07c0 .065.026.136.116.22.25.186.792.218 1.127.064.187-.084.277-.22.277-.386l-.02-.354s-.353-1.512-.353-2.104c0-.045 0-.057.013-.083-.232.495-1.134 2.483-1.16 2.573" fill="#FFF"/><path d="M291.817 345.77c.154-.09.174-.186.174-.276 0-.013-.05-.386-.05-.386s-.58-1.666-.6-2.174c-.63.733-.8 1.666-.89 2.515v.03c0 .06.02.16.18.27.31.2.9.2 1.2.02" fill="#FFF"/><path d="M296.127 340.96c-.883 1.182-1.295 2.688-1.643 4.045-.013.077-.02.148-.02.225 0 .168.06.303.168.412.187.154.503.2.78.097.186-.07.515-.28.573-.8.006-.02.05-.52.05-.52s-.037-.76-.037-1.59c0-.77.038-1.55.135-1.84-.006-.02-.006-.03-.006-.04" fill="#FFF"/><path d="M279.538 329.076c.038-1.33.393-3.16.85-5.024.264-1.44.586-2.902.954-4.17-.896.297-1.753.438-2.5.368-.477-.04-1.05-.187-1.67-.4-.09.792-.12 1.673-.108 2.548.245 2.818 1.005 6.33 2.422 7.695 0-.31.013-.63.052-1.017" fill="#FFF"/><path d="M288.325 318.654c-.2.116-.303.283-.303.49 0 .012.052.488.052.488s.625 2.207.625 2.844c0 .058-.02.058-.03.083v.02c.9-1 1.09-2.28 1.26-3.44v-.07c0-.15-.07-.27-.22-.37-.358-.24-1-.27-1.408-.05" fill="#FFF"/><path d="M283.75 324.007c.117.23.24.437.368.643l.38-2.06.322-2.83c-.07-.327-.502-.694-.98-.94-.41.214-.83.407-1.242.593.16 1.43.618 3.198 1.153 4.594" fill="#FFF"/><path d="M287.43 319.124c0-.167-.09-.296-.252-.412-.38-.238-1.037-.244-1.404-.02-.18.11-.264.265-.264.45 0 .008.064.49.064.49s.728 2.303.728 2.895c0 .045-.013.052-.026.07.007.007.007.007.007.014.863-.99 1.018-2.26 1.147-3.44v-.04" fill="#FFF"/><path d="M298.942 319.992c.638 2.18 1.314 4.993 1.59 7.27.175 1.1.24 2.046.136 2.734.38-.296.716-.695 1.005-1.19.593-1.17 1-2.76 1.257-4.336.2-1.8.212-3.57.148-4.645-.007-.026-.007-.05-.013-.084-.76.29-1.437.47-1.997.51-.644.07-1.36-.04-2.126-.25" fill="#FFF"/><path d="M292.235 319.175c.02-.218-.09-.392-.31-.52-.392-.22-1.036-.187-1.403.05-.16.116-.232.252-.2.438l.013.135c.148 1.042.335 2.36.992 3.384 0 0 .863-3.03.908-3.487" fill="#FFF"/><path d="M295.437 319.76l.322 2.83s.21 1.147.21 1.777c0 .084-.01.148-.03.193.88-1.338 1.48-3.377 1.69-5.012-.46-.186-.92-.405-1.38-.643-.41.245-.75.573-.82.856" fill="#FFF"/><path d="M292.847 319.285c.11 1.068.252 2.38.87 3.39 0 0 .967-3.036 1.037-3.487.02-.212-.07-.38-.27-.502-.367-.218-1.024-.212-1.398.033-.187.11-.27.27-.25.45l.01.11" fill="#FFF"/><path d="M299.07 313.295l-.69-.437.787-.238s.593-.187.87-.16c2.944 1.427 6.913 1.035 10.108-1.018l.51.534-.007.02c.876-1.113 1.61-2.252 2.138-3.32-3.794 1.48-11.087 2-12.53 1.583l-.992-.29.947-.42s1.4-.61 1.54-.64c4.16-.16 9.19-1.96 11.92-4.19-.08-.9-.27-1.83-.62-2.7-2.29.2-6.06 1.75-10.85 4.52l-1.83.23.87-.79c2.715-2.49 7.218-4.93 10.12-6.41-.63-.54-1.395-.9-2.31-.97-4.74-.39-7.29 2.83-7.29 2.83-2.46 7.45-7.22 9.47-10.57 12.18 2.15 1.68 6.62 4.76 9.69 4.76 2.2 0 4.65-1.36 6.817-3.256l-.01-.29c-2.852 1.035-6.292-.084-8.6-1.545" fill="#FFF"/><path d="M288.75 313.617c-3.356-2.702-8.11-4.735-10.578-12.178 0 0-1.97-2.79-7.19-2.78-.934.06-1.707.4-2.358.93.554.28 1.096.56 1.643.85 2.944 1.57 5.96 3.27 8.433 5.53l.87.8-1.173-.16s-.663-.09-.805-.14c-4.658-2.717-8.407-4.267-10.694-4.47-.354.865-.56 1.804-.638 2.692 2.712 2.233 7.763 4.04 12.054 4.24l2.345 1.023-1 .29c-1.44.406-8.73-.11-12.53-1.59.53 1.077 1.27 2.21 2.15 3.33l.49-.568c3.2 2.064 7.17 2.45 10.39 1.003l1.38.41-.71.445c-2.39 1.52-5.99 2.678-8.9 1.44l-.286-.126c2.307 2.152 5.006 3.773 7.402 3.773 3.06 0 7.523-3.08 9.68-4.767" fill="#FFF"/><path d="M282.488 303.51l-.58-.276.754 2.058c.322 1.055.49 1.59 1.147 2.194l.98-.405c.69-.34 1.12-.5 2.14.24 1.03.75 1.32 1.64 1.32 2.49 0 .4-.07.79-.15 1.13-.01.05-.01.09-.01.13 0 .44.42.83.81 1.11l.654-4.115h.812l.655 4.117c.4-.285.82-.67.82-1.11 0-.04-.01-.083-.02-.13-.08-.35-.136-.734-.136-1.132 0-.843.286-1.737 1.31-2.484 1.03-.733 1.47-.572 2.15-.23 0 0 .665.275.7.398.936-.61 1.116-1.15 1.43-2.18 0 0 .594-1.58.77-2.058-.3.135-.595.276-.595.276-1.618.86-4.318 2.28-7.487 2.28-3.17 0-5.877-1.42-7.494-2.28" fill="#F47735"/><path d="M271.82 280.01c.25 2.122 2.164 3.653 4.29 3.422 1.804-.206 3.215-1.61 3.46-3.204-.123-.167-.786-.637-1.836-1.165-1.082.715-2.094 2.47-2.397 3.36-.837-1.307-.94-3.59-.637-4.563-.026 0-.046-.012-.07-.02 0 0-2.127-.27-2.153-.436-.438.65-.683 1.396-.683 2.174 0 .148.02.283.026.43" fill="#FFF"/><path d="M304.47 283.432c2.12.238 4.045-1.3 4.284-3.423.103-.94-.136-1.87-.374-2.48l-2.448.31-.052.02c.31.97.264 3.34-.65 4.56-.297-.9-1.328-2.67-2.41-3.37-1.024.49-1.68.91-1.778.96.206 1.8 1.617 3.202 3.427 3.402" fill="#FFF"/><path d="M319.055 417.92c-.123 1.628-.116 3.256.013 4.787l.51 1.35c.978 2.6 2.943 4.266 5.816 5.05-.438-1.388-.92-2.984-1.443-4.87-.36-1.363-.59-2.585-.71-3.685-1.54-.476-2.96-1.28-4.14-2.574-.01-.02-.03-.045-.04-.057" fill="#FFF"/><path d="M311.955 417.084c-.702.283-1.48.508-2.306.67-.55 2.135-1.62 3.39-3.06 5.982-.46.792-.8 1.75-1.09 2.76 4.87 1.435 8.84 0 10.77-1.994.93-3.07.99-8.016.41-12.79-.78 2.406-2.82 4.587-4.74 5.372" fill="#FFF"/><path d="M293.988 411.275c-1.385 5.307.135 8.46 3.955 11.258-.032-.29-.09-.547-.116-.836-.148-2.084-.07-3.93.207-5.507-1.94-1.113-3.434-2.72-4.046-4.915" fill="#FFF"/><path d="M344.708 425.634c.973.74 2.352 1.152 4.278 1.287.74.05 1.48 0 2.216-.11-.245-.63-.51-1.25-.812-1.84-1.327-2.62-2.313-4.22-2.873-5.92-1.765-.65-3.434-1.45-4.883-2.56-.033 3.5.818 6.81 2.074 9.16" fill="#FFF"/><path d="M334.607 420.39c-.13.882-.374 1.944-.812 3.314-.445 1.396-1.21 3.59-2.004 5.822.5-.038.97-.064 1.5-.128 2.93-.393 6.52-2.085 7.51-4.903l.03-.096c.4-1.84.54-4.81-.37-10.09-.05-.06-.09-.1-.14-.16-.6 3.17-2.73 5.55-5.7 6.24" fill="#FFF"/><path d="M378.646 415.868c-.026.43-.084.843-.142 1.248.168-.225.368-.41.516-.662.805-1.313 1.39-2.606 1.81-3.886-.625.585-1.333 1.062-2.08 1.448-.02.59-.04 1.21-.104 1.852" fill="#FFF"/><path d="M358.59 420.912c-.057 1.08-.153 2.097-.295 3.037 3.047-1.95 5.192-4.11 5.244-4.15l.27-.29c.16-.89.17-1.83-.03-2.79.4 1.28.74 1.97 1.34 2.71l.13.06c2.06.97 4.54 1.33 6.9 1.03-.12-.92-.32-1.78-.64-2.48-.55-1.21-1.28-2.1-2.008-2.92-2.15-.27-4.226-.79-5.985-1.4.057 3.45-2.075 6.19-4.95 7.18" fill="#FFF"/><path d="M257.305 360.323c-8.072-9.45-9.496-16.63-12.272-19.577-5.296-5.622-8.382-2.875-10.353-3.216 6.693 1.743 7.698 3.905 7.937 4.89-2.41-1.146-4.503.05-4.368-.02 4.98 1.872 5.21 4.747 5.34 4.992-1.38.4-2.89.553-3.34 1.267 6.79 3.29 10.3 15.46 6.11 20.27 5.7.7 6.44 8.38 6.44 8.38s3.95-12.3 13.8-7.18c-4.27-5.18-7.01-7.11-9.31-9.82" fill="#002344"/><path d="M216.976 375.7c-.34-.44-.644-.928-.895-1.45-.5 2.188-.72 4.286-.7 6.132l.15.425c.71 1.93 1.98 3.44 3.8 4.53-.05-.246-.11-.49-.16-.728-.52-2.75-.4-4.91.19-6.53-.815-.63-1.6-1.4-2.362-2.38" fill="#FFF"/><path d="M209.497 374.013c-.25 2.83-2.467 4.15-3.33 7.14-.052.18-.09.374-.136.56 1.89.406 3.44-.205 5.89-1.17l.54-.206c1.48-2.612 3.15-6.73 2.23-10.64-.766 1.57-3.394 3.66-5.172 4.316" fill="#FFF"/><path d="M228.94 380.39c-.097 2.482-.89 3.447-1.733 6.06-.097.3-.2.603-.297.92.162.005.31.03.477.037 1.624.077 3.415-.283 4.658-1.08.42-1.19.915-2.773.953-3.648.097-2.06.104-3.84.046-5.41-.735 1.73-2.19 2.89-4.104 3.11" fill="#FFF"/><path d="M268.856 382.3c.426-.47.896-1.088 1.43-1.97-.36.245-.766.445-1.217.625-.06.437-.11.875-.22 1.344" fill="#FFF"/><path d="M236.613 385.304c1.01 1.35 2.692 1.975 4.387 2.43.322.09.67.136 1.03.162-.135-.817-.296-1.59-.476-2.22-.516-1.768-1.044-2.87-1.34-4.123-1.688-.856-3.3-1.853-4.677-3.094.058 2.51.43 4.94 1.076 6.84" fill="#FFF"/><path d="M249.562 384.41c-.155.61-.335 1.222-.554 1.82 1.842-.79 3.466-1.686 4.367-2.258l.806-.508.81.52c2.18 1.377 4.63 1.95 6.94 1.783-.02-.277-.05-.534-.09-.772-.31-1.473-.98-2.554-1.57-3.622-2.51-.43-4.94-1.203-6.77-2.136.045 2.76-1.624 4.65-3.917 5.172" fill="#FFF"/><path d="M198.204 365.99c-.62 2.42-1.347 7.946.702 11.066-.258-2.753.13-4.94 1.166-6.388-.87-1.26-1.527-2.805-1.868-4.67v-.007" fill="#FFF"/><path d="M257.872 348.273c.2-.72-3.137-9.38-3.105-10.557-.953.354-2.248 2.014-3.22 2.96.34.553.67 1.113 1.004 1.724l4.81 8.89c.58.142 1.18.29 1.82.47.6.16 1.21.354 1.84.566.05.02.08.026.14.04.36.12.73.243 1.09.378.59.213 1.19.45 1.77.708-.04-.032-.11-.077-.16-.13-.82-.693-2.68-3.48-4.3-7.12-.404.58-1.074 1.415-1.67 2.07" fill="#FFF"/><path d="M264 353.452c.057.026.102.045.14.045-.045-.013-.09-.032-.14-.045" fill="#FFF"/><path d="M235.31 267.516c-.295 1.717-.817 3.364-1.423 4.883v10.4c.542-2.89 1.16-5.72 1.888-7.88.805-2.41.773-5.85-.464-7.42" fill="#002344"/><path d="M355.59 418.802c-.033-2.856-.465-4.632-1.34-5.443 0 0-2.05-.54-2.062-.55-.02 0-1.566.83-1.566.83-.406.53-.612 1.29-.612 2.15 0 .25.02.52.045.81.322 2.21 1.07 3.63 2.307 6.03 0 0 1.443 3.3 1.977 4.51.79-1.85 1.25-4.36 1.25-7.92v-.43" fill="#FFF"/><path d="M331.707 418.345v-.026c-.09-1.34-.837-2.91-2.68-2.86-.895-.07-1.552.14-2.022.63-.857.92-1.05 2.87-.587 5.78 0 0 1.985 7.22 2.004 8.62.006.02.013.03.02.05l2.692-8.12c.812-2.38.573-4.078.573-4.09" fill="#FFF"/><path d="M373.64 407.248c-.657-.464-1.397-.502-2.222-.174l-.026.02-1.443 1.254c-.2.43-.29.9-.29 1.344 0 .36.06.708.16.946l1.67 2.593 2.17 3.17c.753 1.47.94 3.48 1.01 5.03.444-1.86.92-4.67 1.017-6.54.026-.37.04-.75.04-1.12 0-3.12-.774-5.56-2.108-6.5" fill="#FFF"/><path d="M306.834 416.724c.103-.386.148-.746.148-1.087 0-.528-.103-.99-.335-1.383l-1.347-.953h-.02c-.985-.31-1.886-.18-2.62.4-1.212.97-1.876 3.05-1.876 5.82 0 .41.02.86.052 1.31.16 2.4.78 4.98 1.585 6.46.13-.91.38-2.21 1.22-4.37l1.66-2.99 1.54-3.19" fill="#FFF"/><path d="M206.385 374.303l-.328-1.725-1.257-.79c-.785-.168-1.443-.02-1.94.437-.823.746-1.248 2.27-1.248 4.31 0 .663.045 1.39.14 2.162.26 2.155.87 3.885 1.477 5.236.03-1.33.12-3.332.57-4.838l1.59-2.972.98-1.82" fill="#FFF"/><path d="M246.766 383.43c.238-1.17.36-2.192.36-3.048 0-1.222-.238-2.123-.715-2.676-.39-.483-.97-.714-1.72-.708-1.54.25-1.94 1.666-1.94 2.49 0 .045.01.083.02.135.067 1.332.466 2.69 1.35 4.683.692 1.55.86 3.146.866 4.382.406-1.17 1.798-5.257 1.798-5.257" fill="#FFF"/><path d="M264.257 376c-1.508.117-2.255 1.25-2.14 2.356.252 2.444 1.212 3.242 1.74 5.54.438 1.93.245 4.052.245 4.052.998-1.5 1.79-3.777 2.203-6.035.896-4.915-.715-6.01-2.048-5.912" fill="#FFF"/><path d="M224.752 384.48l.587-1.57.76-2.592c0-.052.01-.116.01-.174 0-.76-.38-2.117-1.68-2.38-.79-.123-1.37.02-1.81.444-.524.52-.794 1.473-.794 2.87 0 .835.096 1.832.296 2.99.22 1.332.677 3.712 1.32 5.173.426-1.58 1.29-4.76 1.29-4.76" fill="#FFF"/><path d="M321.123 252.378c-1.205.315-10.907 2.876-11.023 2.548 0 0 5.173-2.53 6.288-2.8h.013c-.56.11-4.55.818-4.55.818-2.54.52-5.13 1.055-6.15.663 0 .006.01.006.01.006 1.4.38 2.96 1.422 4.47 2.464 1.38.933 2.67 1.802 3.52 1.917.19-.083 3.3-1.447 4.18-1.576-.94.013-5.11.064-5.18-.257 0 0 7.05-3.41 8.44-3.78" fill="#FFF"/><path d="M262.955 251.87c-.006 0-.026-.007-.032-.007l.077.045c-.02-.02-.025-.025-.045-.038" fill="#FFF"/><path d="M269.333 256.077c1.533-1.06 3.118-2.136 4.587-2.136-1.057.09-3.698-.46-6.262-.99 0 0-3.453-.63-4.38-1.04h-.026c.992.49 6.03 2.99 6.03 3.37l-.007.01s-6.693-1.78-9.696-2.75l-.6-.167c1.88.92 7.75 3.826 7.75 4.16l-.01.007s-3.05-.06-4.51-.246l-.358-.02c1.043.466 3.84 1.7 3.942 1.74.85-.11 2.15-.984 3.514-1.917" fill="#FFF"/><path d="M154.306 87.826c3.253.624 6.893 1.7 10.372 3.48 5.044-.32 5.527-4.618 5.41-5.564 2.34 3.512.414 6.182 1.167 9.187.902 3.58 4.516-2.76 4.594-3.52-.67 5.1 1.47 9.53 4.43 10.1 3.96.76 5.14-1.36 4.56-4.3-.15-.29-.3-.578-.45-.85-.07-.108-5.5-7.72-15.39-13.24-.95.26-1.94.83-2.84 1.95-2.12 2.62-6.28 2.66-7.37 2.66.84-.33 3.84-2.608 3.76-3.426-.09-.83.4-2.15 1.17-2.915.23-.23.23-.484.144-.748-3.11-1.26-6.543-2.253-10.28-2.774-.36-.045-.707-.045-1.07-.096-1.1 4.24-5.92 6.93-5.92 6.93 1.74-2.01.903-5.497.066-7.32-2.653-.055-5.25.08-7.75.42 3.815 3.847 2.185 8.016.935 10.087 1.626-.375 3.19-.645 4.63-.82.78-.11 2.434-.14 4.6.013 3.883-1.974 9.005-5.48 9.38-6.37-.594 3.315-2.398 5.548-4.16 7.085" fill="#F47735"/><path d="M114.093 120.675c-2.01-2.934-5.908-6.324-11.867-6.376 1.198-1.3 6.842-4.01 12.582-.79.277-1.49.612-2.89 1.01-4.21-1.86-1.46-4.05-3.95-5.636-8.54 0 0 3.318 3.95 7.183 4.43 1.102-2.43 2.43-4.54 3.924-6.38-.35-2.9-2.71-5.18-7.85-5.61 3.79-1.48 6.84-2.5 13.4.35 2.53-1.81 5.24-3.15 7.92-4.14 3.49-6.386.18-9.236-2.66-10.117-2.03.6-3.96 1.35-5.83 2.232 2.88.635 5.14 3.073 2.01 9.18.14-5.54-2.57-7.194-5.93-7.078-1.97 1.2-3.87 2.51-5.64 4.04-2.37 2.06-4.49 4.41-6.38 6.93 2.26 1.33 4.45 4.49 4.45 4.49-1.61-.856-4.44-1.34-6.53-1.358-4.75 7.65-7.41 16.83-7.44 26.574v.114c0 .43.005.92.024 1.42 7.814-1.875 13.503 5.44 13.503 5.44-5.18-1.835-8.156-.265-9.064.217-2.635 1.367-1.675 4.01-.464 4.127 5.43.51 6.715 4.047 6.715 4.047-2.96-1.35-6.05-1.27-8.687-.4.61 2.27 1.423 4.674 2.43 7.16 1.943-2.47 6.32-4.92 12.37-2.04 0 0-8.087 1.27-9.69 7.77 1.693 3.15 3.8 6.365 6.36 9.562 2.94-5.636 8.662-6.576 10.215-6.576-5.265 2.895-6.476 7.617-6.843 10.48.78.83 1.6 1.654 2.45 2.47.378-1.73 1.58-3.71 3.39-4.104 2.33-.497 2.84-2.84 2.5-4.17 1.51.662 2.51 2.836.177 5.34-1.63 1.736-1.23 5.31-.61 7.725.14.11.256.23.404.34 2.038 1.59 4.667 3.32 7.624 5.06.315-7.96 6.648-8.89 8.54-9.2-4.965 4.96-3.89 9.81-2.845 12.36 4.57 2.395 9.594 4.72 14.63 6.73l.09.04s.254.115.39.18c.167-.463.36-.933.554-1.403-.517-3.59-.17-7.2 1.473-11.82-6.856.336-7.275 9.227-7.275 9.227-3.304-7.52-1.764-11.65.697-14.13-4.66-1.825-9.235-4.11-13.526-6.914-1.81.38-3.51 1.665-4.467 3.813-1.34 2.995-.32 6.47-1.005 5.66-.996-1.16-4.004-5.34-2-7.175 2.006-1.83 2.17-4.336.666-6.17-.836-1.02-1.383-1.98-1.602-2.84-1.506-1.476-2.943-3.04-4.263-4.73-2.66-.14-7.097.22-9 3.4 0 0-.197-5.447 6.36-7.14-4.06-6.458-6.68-14.287-7.002-23.83-.045-1.298 0-2.49.04-3.697" fill="#F47735"/><path d="M186.723 95.16c-.22-.366-12.08-17.03-32.76-19.866-15.24-2.09-28.72 1.506-38.968 10.416-10.65 9.238-16.757 23.314-16.802 38.62v.115c0 9.25 2.596 32.462 26.207 50.887 6.217 4.85 17.4 10.847 28.52 15.28.033.012 3.035 1.466 3.035 1.466l.438-1.486c2.01-6.723 8.53-16.308 8.594-16.405l.986-1.434-3.51-1.165c-20.378-5.236-44.763-17.68-45.774-47.304-.92-26.872 17.24-33.203 28.13-34.586 2.98-.373 19.75.084 27.43 11.4 0 .026 5.54 9.965 13.13 7.077 4.13-2.696 4.53-7.392 1.33-13.015m-65.67 53.037c-6.56 1.704-6.37 7.147-6.37 7.147 1.9-3.184 6.34-3.545 9-3.397 1.32 1.692 2.758 3.25 4.266 4.722.225.86.766 1.82 1.604 2.84 1.5 1.84 1.334 4.33-.67 6.17-2.003 1.83 1.01 6.01 2.004 7.18.69.8-.325-2.67 1.002-5.67.96-2.15 2.66-3.44 4.476-3.82 4.283 2.8 8.863 5.09 13.51 6.91-2.46 2.47-3.99 6.61-.69 14.13 0 0 .42-8.9 7.266-9.235-1.64 4.62-1.98 8.23-1.47 11.82-.197.47-.377.945-.557 1.41-.134-.07-.372-.188-.372-.188l-.1-.04c-5.04-2.008-10.06-4.337-14.63-6.73-1.05-2.554-2.125-7.398 2.85-12.35-1.897.3-8.22 1.23-8.54 9.2-2.97-1.75-5.59-3.476-7.626-5.06-.152-.115-.262-.23-.403-.34-.627-2.425-1.02-5.99.603-7.726 2.345-2.51 1.34-4.675-.167-5.34.335 1.335-.16 3.67-2.5 4.165-1.81.395-3.015 2.376-3.39 4.107-.85-.82-1.68-1.64-2.453-2.467.36-2.86 1.578-7.59 6.848-10.484-1.56 0-7.282.94-10.22 6.576-2.554-3.195-4.66-6.41-6.355-9.564 1.605-6.503 9.683-7.77 9.683-7.77-6.05-2.88-10.417-.43-12.362 2.04-1.002-2.478-1.814-4.89-2.433-7.16 2.642-.87 5.74-.94 8.69.404 0 0-1.294-3.54-6.712-4.05-1.21-.11-2.176-2.752.45-4.123.91-.48 3.887-2.05 9.08-.21 0 0-5.7-7.33-13.515-5.45-.01-.495-.025-.984-.025-1.415v-.11c.025-9.753 2.686-18.926 7.44-26.58 2.094.024 4.916.493 6.527 1.355 0 0-2.184-3.16-4.446-4.49 1.89-2.53 4.01-4.864 6.38-6.93 1.774-1.53 3.674-2.84 5.63-4.033 3.365-.12 6.077 1.533 5.93 7.07 3.13-6.104.87-8.542-2.01-9.18 1.87-.88 3.81-1.626 5.83-2.23 2.835.88 6.15 3.73 2.66 10.12-2.68.99-5.385 2.32-7.91 4.135-6.565-2.85-9.61-1.826-13.41-.353 5.14.43 7.5 2.71 7.84 5.61-1.49 1.84-2.81 3.95-3.914 6.37-3.87-.475-7.187-4.432-7.187-4.432 1.58 4.594 3.777 7.083 5.64 8.537-.397 1.33-.745 2.726-1.015 4.206-5.74-3.21-11.384-.51-12.588.79 5.964.044 9.86 3.434 11.87 6.37-.04 1.2-.084 2.404-.04 3.69.32 9.547 2.94 17.376 7.004 23.83m28.04-61.08c-2.17-.16-3.83-.12-4.607-.02-1.43.18-3 .445-4.624.82 1.25-2.07 2.88-6.24-.93-10.09 2.5-.34 5.096-.47 7.756-.425.83 1.83 1.67 5.317-.075 7.32 0 0 4.826-2.685 5.928-6.924.36.045.71.045 1.07.103 3.74.505 7.18 1.5 10.28 2.76.08.26.08.51-.147.743-.764.77-1.254 2.09-1.17 2.926.09.814-2.925 3.08-3.763 3.413 1.09 0 5.242-.047 7.362-2.67.894-1.115 1.887-1.687 2.834-1.95 9.896 5.525 15.327 13.14 15.398 13.245.153.27.295.56.443.843.58 2.94-.6 5.075-4.56 4.296-2.954-.58-5.093-5.003-4.43-10.09-.08.75-3.693 7.09-4.59 3.5-.76-3 1.168-5.67-1.17-9.18.116.94-.367 5.234-5.405 5.562-3.483-1.78-7.12-2.85-10.376-3.475 1.77-1.55 3.57-3.782 4.16-7.09-.365.88-5.493 4.395-9.37 6.377" fill="#002344"/><path d="M414.356 389.678H411.6v-10.203l-3.738 10.203h-1.623l-3.74-10.203v10.203h-2.76V377.03h4.45l2.84 7.482 2.852-7.482h4.45v12.648zm-16.145-10.203h-3.85v10.203h-3.03v-10.203h-3.86v-2.445h10.76v2.445z" fill="#002344"/></g></svg>