<svg width="512" height="512" viewBox="0 0 512 512" xmlns="http://www.w3.org/2000/svg"><title>kansas-city-royals</title><g fill="none" fill-rule="evenodd"><path d="M182.957 406.57c6.488-3.254 8.323-7.954 9.24-12.715.348-1.797-.722-1.893-1.923-.55-6.86 6.396-20.31 7.768-29.027-9.343-4.51-8.855-8.92-15.878-14.392-20.24 13.982-5.082 23.52-17.022 22.78-29.72-.917-15.398-16.606-26.99-36.955-25.62-42.163 2.78-54.334 40.82-40.633 44.117 10.424 2.514 15.696-7.35 16.534-14.446-2.615 2.443-8.468 4.254-7.43-4.135.984-7.966 14.426-18.216 31.508-19.513 11.93-.847 21.613 9.483 22.192 21.277.49 10.384-6.15 19.974-15.833 23.992-4.193-1.145-9.007-1.065-14.738.506-.307-21.776 2.18-33.934 8.725-40.96-3.792 1.29-7.945 3.603-11.454 7.695-12.37 14.84-8.13 57.902-11.148 72.37-1.36 7.81-9.916 11.933-13.9 5.018-8.774 12.994 5.94 23.872 17.516 17.707 5.505-2.922 13.467-10.69 11.993-29.47-.837-10.522-1.392-19.634-1.634-27.602 3.533-.815 9.338-.622 13.58 7.284 4.795 8.978 16.684 48.492 45 34.345" id="Shape" fill="#004684"/><path d="M398.32 321.21c1.095-4.678.91-9.835-.475-14.892-4.757-17.282-1.19-23.26 2.067-26.203-38.51-5.04-38.638 53.297-56.45 59.387-3.02 1.032-5.94-1.538-6.232-5.413 24.978-29.867 20.68-71.367-1.214-73.477-5.426-.53-10.906 4.625-10.812 14.06 0 0-.025 49.283.01 54.07.024 4.782 0 6.49.136 7.54.09.69.24 1.304.378 1.93-1.03.967-2.07 1.935-3.158 2.852-7.765 6.54-9.055 4.237-9.754-1.66l.024-36.94-12.583 3.23s-.073 1.168-.055 2.74c-1.66-1.572-4.893-1.934-7.365-1.876-14.852.376-26.192 25.165-22.16 44.117-2.598 2.966-6.278 6.357-10.415 10.07l.04-43.797-12.753 3.553-.122 33.13c-.015.588-.033 1.863-.056 3.618-1.675 6.286-6.714 9.71-9.37 9.324-2.696-.404-3.478-5.044-3.413-7.185l.007-35.4-12.1 3.076c.3 14.13-5.304 20.23-11.663 22.52-2.045-8.004-6.826-14.367-14.417-15.59-3.743-.6-6.93.403-9.218 2.278-16.728 5.43-19.955 32.975-12.864 44.423 4.194 6.976 9.61 8.5 12.58 8.783 17.453 1.69 25.92-16.638 25.002-32.735 4.387-1.418 8.034-3.97 10.19-7.276l-.24 10.49c.032 7.01.948 17.264 8.934 17.28 6.07.017 11.913-4.416 16.783-9.958 0 1.628-.008 3.345-.008 5.084-8.347 8.04-16.18 16.99-19.407 26.35-.2.615-.386 1.243-.556 1.877-14.062 3.805-25.896 6.873-33.107 8.483-43.807 9.838-56.332 21.915-58.352 36.924 15.286-17.128 33.212-10.474 38.283-7.422 1.215-2.652 7.566-11.794 22.95-17.707 9.32-3.59 19.067-7.102 28.993-10.57-.04 12.706 5.716 25.856 17.798 23.793 9.305-1.58 16.164-7.8 16.043-32.55l.01-1.396c52.01-16.847 103.885-31.226 139.893-43.69 18.676-6.458 14.748-28.736-1.802-35.246m-201.96 20.207c3.123 1.203 5.426 4.843 6.777 9.38-4.54-.05-8.38-1.24-9.467-1.868-6.584-3.774-2.228-9.396 2.69-7.513M194 377.97c-11.985.032-11.815-20.505-8.24-27.538 1.06 1.404 2.502 2.722 4.442 3.833 4.644 2.675 9.586 3.795 14.216 3.724.684 9.698-2.43 19.965-10.417 19.98m185.18-54.76c.04-.008.09-.008.12-.008.635-.074 1.25-.12 1.845-.148.033-.006.064-.006.097-.006.605-.027 1.184-.033 1.796 0 .025 0 .048 0 .074.006.613.027 1.23.09 1.883.187.023.007.04.017.072.017.074.01.154.033.242.048-.976 4.416-3.446 7.726-8.382 8.734-10.93 2.24-10.528-7.203-2.133-8.282 1.67-.2 3.073-.412 4.385-.548m6.085-34.7c-4.682 4.536-.09 17.458.5 28.067.015.34.007.67.015 1-3.71-.55-7.672-.588-13.016.065-4.283.524-7.365 1.992-9.41 3.9 5.152-12.89 13.073-31.59 21.91-33.032m-38.218-8.92c3.606 12.828-.05 29.675-9.58 44.466.006-14.268.047-45.1 0-48.84-.088-6.692 6.733-5.735 9.58 4.375m-60.006 38.673c4.416-8.54 12.66-5.823 13.812-.957.047 8.84-.187 17.04-.168 19.76.046 7.223-5.264 15.98-11.014 15.64-8.404-.485-8.92-22.333-2.63-34.443M247.555 380.5c-.007 4.97-.015 9.822-.025 13.8-4.032 1.113-7.993 2.2-11.857 3.246.065-.162.113-.32.185-.492 2.512-5.71 6.73-11.242 11.697-16.553m-4.983 45.11c-5.425 1.417-8.75-7.467-8.83-16.628 4.58-1.565 9.17-3.126 13.782-4.648-.034 15.52-.67 20.147-4.952 21.277m155.652-74.46c-26.144 7.82-86.026 25.174-137.986 39.63l.016-22.39c4.583-4.043 9.17-7.903 13.25-11.552 1.52 4.307 17.257 12.794 27.23-5.514 4.6 14.27 20.728-2.785 24.473-5.67.918-.707 1.798-1.44 2.665-2.184 5.256 7.68 16.798 5.633 23.406-.733 3.445-3.32 6.867-8.935 9.16-14.052.555 5.47 6.667 10.652 17.662 9.454 8.94-.992 14.844-5.264 18.04-11.096.604.273 1.247.556 1.916.862 13.054 6.018 9.975 20.31.168 23.244" id="Shape" fill="#004684"/><path d="M411.175 287.277h-2.908v7.9h-1.964v-7.9h-2.9v-1.727h7.767v1.727h.005zm13.144 7.9h-1.966v-7.65h-.046l-2.782 7.65h-1.895l-2.678-7.65h-.064v7.65h-1.95v-9.627h3.407l2.222 6.295h.048l2.325-6.295h3.38v9.628z" id="Shape" fill="#004684"/><path d="M411.175 287.277h-2.908v7.9h-1.964v-7.9h-2.9v-1.727h7.767v1.727h.005zm13.144 7.9h-1.966v-7.65h-.046l-2.782 7.65h-1.895l-2.678-7.65h-.064v7.65h-1.95v-9.627h3.407l2.222 6.295h.048l2.325-6.295h3.38v9.628z" id="Shape" fill="#004684"/><path d="M411.175 287.277h-2.908v7.9h-1.964v-7.9h-2.9v-1.727h7.767v1.727h.005zm13.144 7.9h-1.966v-7.65h-.046l-2.782 7.65h-1.895l-2.678-7.65h-.064v7.65h-1.95v-9.627h3.407l2.222 6.295h.048l2.325-6.295h3.38v9.628z" id="Shape" fill="#004684"/><path d="M173.145 132.686v130.548l68.88 40.342 68.88-40.342V132.686h-137.76z" id="Shape" fill="#004684"/><path d="M308.327 85.38c4.516 0 8.18-3.674 8.18-8.194 0-4.52-3.664-8.186-8.18-8.186-4.507 0-8.178 3.665-8.178 8.186 0 4.52 3.67 8.193 8.178 8.193" id="Shape" fill="#8E6C22"/><path d="M307.507 90.73h-1.69c0 10.778-8.717 19.537-19.48 19.537-10.76 0-19.415-8.765-19.415-19.544h-5.193c0 10.78-8.725 19.544-19.48 19.544s-19.415-8.814-19.415-19.577l-5.23.05c0 10.778-8.72 19.527-19.48 19.527-10.762 0-19.45-8.8-19.45-19.563l-5.634-.064v38.356h137.92V90.73h-5.142" id="Shape" fill="#8E6C22"/><path d="M175.94 85.38c4.523 0 8.177-3.674 8.177-8.194 0-4.52-3.655-8.186-8.178-8.186-4.517 0-8.18 3.665-8.18 8.186 0 4.52 3.663 8.193 8.18 8.193" id="Shape" fill="#8E6C22"/><path d="M220.428 85.38c4.524 0 8.186-3.674 8.186-8.194 0-4.52-3.662-8.186-8.186-8.186-4.516 0-8.17 3.665-8.17 8.186 0 4.52 3.654 8.193 8.17 8.193" id="Shape" fill="#8E6C22"/><path d="M264.42 85.38c4.516 0 8.18-3.674 8.18-8.194 0-4.52-3.664-8.186-8.18-8.186-4.526 0-8.187 3.665-8.187 8.186 0 4.52 3.66 8.193 8.188 8.193" id="Shape" fill="#8E6C22"/><path d="M198.606 170.56c0-7.475-5.022-9.87-9.522-9.82l-1.48-.05v-3.858h29.338v3.94c-4.194.313-8.5 2.883-8.5 9.787l-.008 23.235 2.045-1.136c4.224-5.962 15.325-21.787 17.62-26.355 2.848-5.598-1.49-5.598-5.653-5.598v-3.9h26v3.9h-1.844c-2.817 0-6.327 0-11.004 5.768-5.964 7.395-17.837 25.297-17.837 25.297 18.175 1.362 25.01 26.328 29.686 29.714-2.674-17.83 10.5-40.074 29.84-39.212 2.155.09 4.828-.177 10.994 1.515 6.18 1.706 6.738-1.355 7.566-4.747h4.607v29.375h-3.98c-.336-5.09-2.86-21.913-19.138-22.414-16.56-.508-19.655 18.667-19.902 31.75-.82 48.398 32.852 46.848 39.024 31.245.884-2.29.507-2.917-.514-3.408-7.326-3.554 1.174-13.068 5.89-4.746 2.15 3.81-1.712 21.905-21.883 21.905-31.345 0-40.52-43.81-52.168-58.07-9.095-11.102-16.517-6.116-19.303-3.4l-.113 7.637.066 13.583c0 7.485 5.03 9.87 9.53 9.82l1.47.05v3.875h-31.835v-3.875l1.483-.05c4.5.05 9.522-2.335 9.522-9.82v-51.94" id="Shape" fill="#231F20"/><path d="M195.853 167.805c0-7.477-5.014-9.86-9.515-9.82l-1.49-.04v-3.877h29.347v3.948c-4.21.314-8.5 2.876-8.5 9.788l-.008 23.25 2.036-1.15c4.234-5.97 15.327-21.794 17.628-26.345 2.843-5.607-1.488-5.607-5.657-5.607v-3.9h26v3.9h-1.835c-2.817 0-6.327 0-10.996 5.786-5.98 7.378-17.846 25.287-17.846 25.287 18.176 1.354 25.01 26.32 29.67 29.714-2.655-17.828 10.513-40.072 29.848-39.218 2.166.088 4.83-.17 11.007 1.522 6.166 1.7 6.727-1.362 7.556-4.753h4.608v29.376h-3.985c-.332-5.093-2.86-21.906-19.13-22.415-16.565-.506-19.672 18.677-19.897 31.753-.828 48.395 32.84 46.858 39.017 31.244.9-2.28.497-2.91-.5-3.4-7.332-3.57 1.16-13.077 5.877-4.755 2.158 3.82-1.714 21.915-21.885 21.915-31.345 0-40.513-43.82-52.168-58.072-9.09-11.118-16.51-6.115-19.295-3.41l-.122 7.648.073 13.59c0 7.46 5.023 9.853 9.522 9.806l1.482.048v3.875h-31.846v-3.875l1.49-.05c4.5.05 9.515-2.344 9.515-9.804v-51.96" fill="#FFF"/></g></svg>