<svg width="512" height="512" viewBox="0 0 512 512" xmlns="http://www.w3.org/2000/svg"><title>los-angeles-dodgers</title><g fill="none" fill-rule="evenodd"><path d="M395.027 163.55c-.67 5.28-5.513 7.298-3.846 13.436 7.472 8.802 14.715 12.593 14.715 26.91 3.664-3.46 18.102-5.594 21.924 5.24 9.438 26.8-32.272 47.675-61.4 60.165-31.362 13.436-61.39 24.98-78.173 32.183-2.63 12.3-8.064 43.647-27.77 45.128-10.93.83-12.21-18.808-5.82-31.747-26.064 8.684-43.826 24.483-46.725 32.355-23.29 2.49-27.026-.662-27.113-.827 17.96-26.823 61.47-42.866 83.812-50.943 0 0 10.954-16.147 17.407-23.885l1.152-7.62c-2.488 6.643-13.142 15.965-20.227 4.736-1.492 4.318-3.988 14.5-11.973 14.83-3.49.158-5.655-2.83-7.48-5.137-1.46 4.634-6.69 15.792-16.008 14.476-8.72-1.253-11.058-15.68-10.015-23.403 0 .33-2.252 3.947-4.59 5.468-.19 27.865-15.36 43.136-31.26 32.56l-13.19 11.97c-1.887.174-3.6-.51-4.462-2.056L176.9 298.93c-4.532-23.924 9.48-49.298 26.673-44.08 5.19 1.56 7.503 6.216 8.703 11.26 1.95-.97 4.194-2.798 5.868-4.453.27-8.298 12.692-31.07 26.474-21.898.174-.04 8.372-39.04 8.372-39.04s7.495-3.947 10.552-3.395c-3.057 15.5-12.084 58.178-11.223 72.66.18 2.933 6.64.05 8-10.653-.885-39.7 24.294-47.327 29.688-39.187l1.287-5.24s5.663-3.633 10.102-3.767c-1.122 8.613-3.673 25.744-5.67 38.526l8.813-14.27c1.01-30.654 19.287-42.482 28.156-35.84 8.46 6.32-3.31 31.016-16.246 32.797-.49 14.8 15.433 7.96 21.45-8.627 5.214-14.334 6.55-18.636 8.215-29.26-2.22-4.372-2.393-13.513 2.046-16.034 5.577-3.16 3.184 6.224 6.548 6.082 5.276-.22 11.357-1.97 14.58 1.324 5.528 5.68-3.444 16.894-5.11 23.12-1.66 6.217-1.5 11.45 1.745 10.976 5.63-.803 16.436-31.953 18.434-42.11-4.747-21.804 12.03-24.925 10.67-14.27m-114.94 126.3s1.17-5.233 1.478-7.486c-.774 1.26-3.933 6.367-5.876 9.25 1.39-.488 4.398-1.764 4.398-1.764m108.534-104.38c-2.82 9.48-12.566 52.923-28.314 48.353-15.836-4.61-3.918-31.607-2.362-36.658-1.524.047-3.633-.236-5.244-.575-3.317 15.602-12.692 55.562-34.032 56.113-6.73.174-9.81-4.87-11.8-8.187-4.486 6.635-8.538 14.27-13.197 20.74-1.138 6.446-2.354 15.2-3.19 21.07 86.245-31.29 115.878-42.708 126.674-59.02 2.583-3.9 6.84-13.774.932-17.887-3.958-2.734-10.316 1.135-11.99 2.87-5.45 5.665-10.86 11.26-19.002 9.873-5.71-.97-8.467-7.518-4.328-11.442 2.772-2.63 5.63 1.16 8.134-.078 4.873-2.443 7.267-14.105-2.282-25.17m-62.75 22.656c-2.977-1.78-9.524 9.51-9.35 17.644 7.803-2.388 12.13-15.99 9.35-17.644m-42.996 18.22c-12.92 1.535-15.764 35.46-7.03 33.82 4.59-.867 7.354-7.368 8.997-12.537 1.556-4.877 1.46-10.708 1.982-13.466.94-4.973-1.485-8.117-3.95-7.817m-42.72 20.062c-12.967-1.34-16.608 32.158-8.67 32.45 4.612.172 7.92-4.477 9.57-11.05.35-1.41 1.89-14.277 2.11-15.743.23-1.513-.766-5.42-3.01-5.658m-45.704 19.723c1.825 3.365 10.49 4.192 9.802 2.31.403-9.244-10.267-10.42-9.8-2.31m-4.977 5.847c-5.38 7.352-4.747 24.9 1.777 26.16 7.985 1.562 13.813-12.45 13.182-20.14-4.455.174-12.053-.725-14.96-6.02m88.426 33.214s-4.904 2.34-10.717 4.555c-4.44 6.91-6.99 22.71-1.66 20.376 6.517-2.852 9.36-10.653 12.377-24.932" fill="#263667"/><path d="M162.44 313.673c-16.815 30.566-44.402 23.002-53.05 23.183-11.91 19.18-32.31 26.327-36.19 23.82-5.11-3.277 3.113-26.334 28.876-30.14 8.317-9.952-2.71-70.96 32.43-88.76.828 0 1.99.33 1.492 1.497-19.12 16.76-11.705 42.812-16.704 66.523-2.22 10.512-4.352 17.368-5.576 20.14 5.544.222 7.874.884 13.97-.227 16.208-2.933 23.348-18.795 26.775-33.838 4.59-20.19 3.902-46.16-11.64-54.916-28.98-16.343-79.597 28.59-63.69 47.722 3.26 3.94 19.026 1.166 26.268-21.844 1.178 1.994 1.178 4.862-.22 9.015-8.61 25.76-24.27 27.8-31.094 24.285-6.943-3.593-7.282-14.75-5.924-21.686 6.832-35.16 64.677-65.192 91.008-39.432 18.253 17.84 14.667 53.93 3.27 74.655m-77.487 34.46c4.88 1.047 11.144-4.973 13.972-9.96-6.99 1.212-13.253 4.364-13.972 9.96" fill="#263667"/><path d="M275.602 98.265c0-19.038 15.464-34.467 34.546-34.467 19.073 0 34.538 15.43 34.538 34.467 0 19.03-15.465 34.46-34.538 34.46-19.082 0-34.546-15.43-34.546-34.46m23.29-3.01c4.47-14.507-3.237-23.963-4.208-25.074-9.936 5.446-16.665 15.974-16.665 28.085 0 5.508 1.405 10.686 3.845 15.21 1.998-.57 12.724-4.225 17.028-18.22m22.257 6.816c-4.297 13.95 2.464 22.98 3.83 24.61 10.26-5.358 17.29-16.06 17.29-28.415 0-5.256-1.296-10.204-3.547-14.578-1.493.394-13.12 3.932-17.573 18.384m-2.386-.732c4.802-15.602 16.657-20.29 18.126-20.81-5.757-8.62-15.582-14.31-26.742-14.31-4.312 0-8.396.858-12.147 2.387.917 1.27 8.08 11.78 3.278 27.375-4.573 14.878-15.235 19.724-17.47 20.598 5.805 8.29 15.425 13.735 26.34 13.735 4.05 0 7.914-.788 11.49-2.15-1.373-1.987-7.446-11.97-2.874-26.825" fill="#D92A2F"/><path d="M144.828 338.976l-19.406 36.366c-.323.614-.086 1.355.53 1.678.608.33 1.358.103 1.682-.512l19.405-36.358c.315-.607.078-1.363-.514-1.68-.616-.322-1.382-.093-1.698.506" fill="#D92A2F"/><path d="M188.037 351.915L174.17 382.75c-.278.614 0 1.362.63 1.646.624.276 1.375 0 1.643-.623l13.86-30.842c.278-.62.01-1.354-.623-1.638-.624-.284-1.374 0-1.643.623" fill="#D92A2F"/><path d="M238.08 332.136l-5.127 16.114c-.213.654.15 1.348.806 1.56.654.206 1.357-.15 1.563-.81l5.125-16.108c.214-.654-.15-1.355-.805-1.56-.656-.22-1.36.158-1.564.804" fill="#D92A2F"/><path d="M229.344 360.133l-27.367 86.208c-.213.655.15 1.348.814 1.57.648.204 1.35-.16 1.557-.813l27.366-86.207c.22-.654-.142-1.348-.798-1.568-.655-.205-1.358.165-1.57.81" fill="#D92A2F"/><path d="M266.306 350.3l-6.776 31.66c-.15.67.284 1.333.955 1.475.68.15 1.343-.284 1.477-.954l6.793-31.67c.134-.668-.285-1.33-.948-1.464-.687-.15-1.343.276-1.5.953" fill="#D92A2F"/><path d="M235.89 173.456L201.45 234.85c-.332.598-.11 1.347.482 1.686.6.338 1.366.126 1.706-.473l34.427-61.393c.332-.6.126-1.348-.482-1.687-.6-.338-1.35-.126-1.69.473" fill="#D92A2F"/><path d="M331.875 132.307L320.447 185.6c-.158.74.316 1.465 1.05 1.623.75.157 1.47-.308 1.635-1.048l11.428-53.3c.143-.74-.316-1.474-1.058-1.632-.734-.142-1.47.315-1.627 1.064" fill="#D92A2F"/><path d="M311.31 143.883l-12.275 51.637c-.173.75.285 1.49 1.035 1.655.727.18 1.46-.276 1.643-1.024l12.257-51.63c.174-.732-.276-1.465-1.01-1.646-.743-.18-1.485.276-1.65 1.01" fill="#D92A2F"/><path d="M298.656 142.535l-20.582 63.253c-.23.717.158 1.49.885 1.726.717.236 1.49-.158 1.72-.883l20.59-63.252c.222-.717-.157-1.48-.892-1.725-.72-.23-1.485.157-1.722.882" fill="#D92A2F"/><path d="M269.6 113.726l-26.75 46.665c-.372.655-.143 1.49.513 1.87.655.37 1.492.14 1.87-.513l26.752-46.666c.37-.653.142-1.488-.514-1.858-.662-.38-1.49-.15-1.87.504" fill="#D92A2F"/><path d="M285.206 135.743l-19.54 41.898c-.323.686-.023 1.49.664 1.813.687.323 1.508.016 1.832-.67l19.524-41.882c.324-.685.024-1.504-.656-1.827-.695-.308-1.508-.016-1.824.67" fill="#D92A2F"/><path d="M295.197 326.69l-6.366 34.358c-.133.677.317 1.323.996 1.45.672.118 1.327-.316 1.454-.993l6.373-34.365c.134-.678-.324-1.324-1.003-1.45-.68-.126-1.327.323-1.453 1" fill="#D92A2F"/><path d="M437.487 233.518h-1.746v4.712h-1.16v-4.712h-1.737v-1.025h4.644v1.025zm7.882 4.712h-1.178v-4.563h-.024l-1.674 4.563h-1.145l-1.605-4.563h-.023v4.563h-1.177v-5.737h2.038l1.342 3.743h.016l1.407-3.743h2.022v5.737z" fill="#263667"/></g></svg>