<svg width="512" height="512" viewBox="0 0 512 512" xmlns="http://www.w3.org/2000/svg"><title>los-angeles-dodgers</title><g fill="none" fill-rule="evenodd"><path d="M395.027 163.55c-.67 5.28-5.513 7.298-3.846 13.436 7.48 8.802 14.72 12.593 14.72 26.91 3.67-3.46 18.1-5.594 21.93 5.24 9.44 26.8-32.27 47.675-61.4 60.165-31.36 13.44-61.39 24.98-78.17 32.19-2.63 12.3-8.06 43.65-27.77 45.13-10.93.83-12.21-18.81-5.82-31.74-26.06 8.688-43.82 24.487-46.72 32.36-23.29 2.49-27.023-.66-27.11-.827 17.96-26.823 61.47-42.866 83.81-50.943 0 0 10.955-16.147 17.408-23.885l1.154-7.62c-2.487 6.644-13.14 15.966-20.226 4.737-1.49 4.32-3.99 14.5-11.972 14.83-3.49.16-5.652-2.83-7.48-5.14-1.46 4.63-6.69 15.79-16.005 14.474-8.72-1.252-11.06-15.68-10.016-23.402 0 .33-2.253 3.95-4.59 5.47-.19 27.865-15.36 43.136-31.26 32.56l-13.19 11.97c-1.888.174-3.6-.51-4.463-2.056l12.916-18.46c-4.535-23.925 9.48-49.3 26.67-44.08 5.19 1.56 7.502 6.215 8.702 11.26 1.95-.97 4.197-2.8 5.87-4.45.27-8.3 12.69-31.07 26.475-21.9.172-.04 8.37-39.04 8.37-39.04s7.494-3.95 10.55-3.4c-3.057 15.5-12.084 58.18-11.223 72.66.18 2.934 6.64.05 8-10.652-.886-39.7 24.293-47.326 29.687-39.186l1.288-5.24s5.666-3.633 10.1-3.767c-1.12 8.614-3.67 25.745-5.67 38.527l8.818-14.27c1.01-30.654 19.288-42.48 28.157-35.84 8.46 6.32-3.31 31.016-16.246 32.797-.49 14.8 15.433 7.96 21.45-8.628 5.214-14.34 6.55-18.64 8.215-29.26-2.22-4.377-2.395-13.518 2.044-16.04 5.577-3.16 3.184 6.22 6.548 6.08 5.277-.22 11.358-1.97 14.58 1.324 5.53 5.68-3.443 16.894-5.11 23.12-1.66 6.217-1.5 11.45 1.746 10.976 5.63-.8 16.435-31.95 18.433-42.11-4.75-21.803 12.03-24.924 10.67-14.27m-114.94 126.3s1.17-5.23 1.478-7.485c-.773 1.26-3.932 6.37-5.875 9.25 1.39-.49 4.395-1.76 4.395-1.76m108.52-104.39c-2.82 9.48-12.565 52.925-28.313 48.355-15.837-4.61-3.92-31.608-2.363-36.66-1.526.048-3.635-.235-5.246-.574-3.31 15.61-12.69 55.57-34.03 56.12-6.73.18-9.81-4.87-11.8-8.18-4.48 6.635-8.54 14.27-13.19 20.74-1.14 6.446-2.35 15.2-3.19 21.07 86.25-31.29 115.88-42.71 126.68-59.02 2.582-3.9 6.84-13.774.93-17.887-3.96-2.736-10.316 1.133-11.99 2.87-5.45 5.663-10.86 11.26-19 9.87-5.71-.97-8.47-7.52-4.33-11.442 2.77-2.63 5.63 1.16 8.132-.076 4.873-2.443 7.267-14.105-2.282-25.17m-62.75 22.656c-2.975-1.78-9.522 9.51-9.35 17.647 7.805-2.386 12.13-15.99 9.35-17.642m-42.994 18.22c-12.92 1.536-15.764 35.46-7.03 33.82 4.59-.866 7.354-7.37 8.997-12.536 1.557-4.88 1.46-10.71 1.983-13.47.94-4.975-1.487-8.12-3.95-7.82m-42.72 20.06c-12.97-1.34-16.61 32.16-8.67 32.45 4.61.173 7.92-4.476 9.57-11.05.35-1.41 1.89-14.276 2.11-15.74.23-1.514-.77-5.42-3.01-5.66m-45.707 19.72c1.825 3.365 10.49 4.192 9.8 2.31.405-9.244-10.265-10.42-9.8-2.31m-4.975 5.85c-5.38 7.35-4.75 24.9 1.78 26.16 7.985 1.56 13.813-12.45 13.182-20.14-4.46.17-12.057-.73-14.96-6.02m88.41 33.2s-4.907 2.34-10.72 4.553c-4.44 6.91-6.99 22.71-1.66 20.376 6.52-2.85 9.36-10.65 12.38-24.93" fill="#263667"/><path d="M162.44 313.673c-16.815 30.566-44.402 23.002-53.05 23.183-11.91 19.18-32.31 26.327-36.19 23.82-5.11-3.277 3.113-26.334 28.876-30.14 8.317-9.952-2.71-70.96 32.43-88.76.828 0 1.99.33 1.492 1.497-19.12 16.76-11.705 42.812-16.704 66.523-2.22 10.512-4.352 17.368-5.576 20.14 5.544.222 7.874.884 13.97-.227 16.208-2.94 23.348-18.8 26.775-33.84 4.59-20.19 3.902-46.16-11.64-54.92-28.98-16.35-79.597 28.59-63.69 47.72 3.26 3.94 19.026 1.16 26.268-21.85 1.18 1.99 1.18 4.86-.22 9.01-8.61 25.76-24.27 27.8-31.09 24.284-6.94-3.59-7.28-14.75-5.92-21.684 6.83-35.16 64.68-65.19 91.01-39.43 18.26 17.84 14.67 53.93 3.27 74.655m-77.49 34.47c4.88 1.045 11.15-4.975 13.97-9.96-6.99 1.21-13.25 4.36-13.97 9.96" fill="#263667"/><path d="M275.602 98.265c0-19.038 15.464-34.467 34.546-34.467 19.073 0 34.538 15.43 34.538 34.467 0 19.03-15.465 34.46-34.538 34.46-19.082 0-34.546-15.43-34.546-34.46m23.29-3.01c4.47-14.507-3.237-23.963-4.208-25.074-9.936 5.45-16.665 15.98-16.665 28.09 0 5.51 1.4 10.69 3.84 15.21 2-.57 12.72-4.22 17.03-18.22m22.25 6.82c-4.3 13.95 2.46 22.98 3.83 24.61 10.26-5.36 17.29-16.06 17.29-28.41 0-5.25-1.3-10.2-3.55-14.58-1.5.4-13.12 3.93-17.58 18.39m-2.388-.73c4.8-15.6 16.656-20.29 18.125-20.81-5.76-8.62-15.584-14.31-26.744-14.31-4.313 0-8.397.86-12.148 2.39.914 1.27 8.08 11.78 3.275 27.374-4.57 14.88-15.233 19.725-17.47 20.6 5.807 8.29 15.427 13.735 26.34 13.735 4.05 0 7.916-.79 11.49-2.15-1.37-1.988-7.444-11.97-2.872-26.826" fill="#D92A2F"/><path d="M144.828 338.976l-19.406 36.366c-.323.614-.086 1.355.53 1.678.608.33 1.358.103 1.682-.512l19.405-36.358c.31-.607.07-1.363-.52-1.68-.62-.322-1.38-.093-1.7.506" fill="#D92A2F"/><path d="M188.037 351.915L174.17 382.75c-.278.614 0 1.362.63 1.646.624.276 1.375 0 1.643-.623l13.86-30.842c.278-.62.01-1.35-.623-1.63-.624-.28-1.374 0-1.643.63" fill="#D92A2F"/><path d="M238.08 332.136l-5.127 16.114c-.213.654.15 1.348.806 1.56.65.206 1.35-.15 1.56-.81l5.12-16.108c.21-.654-.15-1.355-.81-1.56-.66-.22-1.36.158-1.57.804" fill="#D92A2F"/><path d="M229.344 360.133l-27.367 86.208c-.213.66.15 1.35.814 1.57.65.21 1.35-.16 1.56-.81l27.37-86.2c.22-.65-.14-1.34-.8-1.56-.65-.202-1.36.168-1.57.81" fill="#D92A2F"/><path d="M266.306 350.3l-6.776 31.66c-.15.67.284 1.333.955 1.475.68.15 1.343-.284 1.477-.954l6.793-31.67c.134-.66-.285-1.33-.948-1.46-.687-.15-1.343.28-1.5.96" fill="#D92A2F"/><path d="M235.89 173.456l-34.44 61.394c-.332.598-.11 1.347.482 1.686.6.338 1.366.126 1.706-.473l34.427-61.393c.332-.6.126-1.348-.482-1.687-.6-.338-1.35-.126-1.69.473" fill="#D92A2F"/><path d="M331.875 132.307L320.447 185.6c-.158.74.316 1.465 1.05 1.623.75.157 1.47-.308 1.635-1.048l11.428-53.3c.143-.74-.316-1.474-1.058-1.632-.734-.142-1.47.315-1.627 1.064" fill="#D92A2F"/><path d="M311.31 143.883l-12.275 51.637c-.173.75.285 1.49 1.035 1.655.727.18 1.46-.276 1.643-1.024l12.257-51.63c.174-.73-.276-1.46-1.01-1.64-.743-.18-1.485.28-1.65 1.01" fill="#D92A2F"/><path d="M298.656 142.535l-20.582 63.253c-.23.717.158 1.49.885 1.726.71.236 1.49-.158 1.72-.883l20.59-63.25c.22-.71-.16-1.48-.9-1.72-.72-.23-1.49.16-1.72.88" fill="#D92A2F"/><path d="M269.6 113.726l-26.75 46.665c-.372.66-.143 1.49.513 1.87.655.37 1.492.14 1.87-.51l26.752-46.66c.37-.65.142-1.49-.514-1.86-.66-.38-1.49-.15-1.87.51" fill="#D92A2F"/><path d="M285.206 135.743l-19.54 41.898c-.323.69-.023 1.49.664 1.82.687.33 1.508.02 1.832-.67l19.524-41.88c.324-.68.024-1.5-.656-1.82-.695-.31-1.508-.012-1.824.67" fill="#D92A2F"/><path d="M295.197 326.69l-6.366 34.358c-.13.677.32 1.323 1 1.45.67.118 1.33-.316 1.46-.993l6.38-34.365c.138-.678-.32-1.324-1-1.45-.68-.126-1.325.323-1.45 1" fill="#D92A2F"/><path d="M437.487 233.518h-1.746v4.712h-1.16v-4.712h-1.73v-1.025h4.65v1.025zm7.882 4.712h-1.18v-4.563h-.03l-1.68 4.563h-1.15l-1.606-4.563h-.02v4.563h-1.18v-5.737h2.04l1.342 3.743h.015l1.403-3.743h2.02v5.737z" fill="#263667"/></g></svg>