<svg width="512" height="512" viewBox="0 0 512 512" xmlns="http://www.w3.org/2000/svg"><title>miami-marlins</title><g fill="none" fill-rule="evenodd"><path d="M309.076 281.988l30.768 78.904h60.228l-83.748-209.56-53.552 98.436-44.82-83.182-5.783-10.74-2.79-5.196-3.74 9.374-5.82 14.557c-6.69 5.05-12.37 9.91-17.43 14.757-23 22.08-25.08 38.49-18.943 50.027a32.92 32.92 0 0 0 3.264 4.533c4.54 5.32 10.838 9.682 16.816 12.535.15.07.29.14.444.2.318.155.646.303.967.445.408.178 1.183.513 1.72.743.25.107.466.194.54.227.01 0 .024 0 .05.01a35.522 35.522 0 0 1-1.995-.96l-.005.002c-.443-.224-.866-.47-1.31-.71-.216-.123-.444-.25-.666-.375a.77.77 0 0 0-.134-.074l-1.155-.71c-.28-.18-.56-.36-.835-.543a9.07 9.07 0 0 1-.406-.272c-.175-.122-.37-.24-.54-.36a36.46 36.46 0 0 1-3.72-2.987c-.226-.202-.51-.482-.76-.724l29.296-74.874 2.532-6.47 1.822-4.654.014.006 1.334 2.476 1.814 3.36 50.32 93.206 53.475-99.046 74.32 190.036h-46.303l-34.267-87.79-47.227 87.5-47.238-87.5-.043.096-.41 1.054v-.016l-33.86 86.655h-46.284l37.986-97.123c.118.03.247.045.37.065a91.69 91.69 0 0 1-4.98-1.037h-.043c.013 0 .03.01.03.017-.053-.017-.46-.064-1.124-.166h-.016l-41.8 104.75h60.184l30.855-78.907 46.27 84.89 46.32-84.89zm-137.692-36.176a44.363 44.363 0 0 1-4.263-6.257c-1.212-2.187-1.742-3.618-1.742-3.618a33.27 33.27 0 0 1-1.07-5.01c-2.218-16.185 12.882-33.75 32.774-49.46l-25.694 64.345z" fill="#C4CED4"/><path d="M254.807 126.187c43.846-20.802 73.63-36.185 73.637-36.187l-10.967 4.197c-1.08.502-24.226 11.07-28.29 12.854-23.996 10.55-56.195 24.82-69.562 31.65-2.67 1.36-6.994 3.724-11.785 6.524-45.602 28.677-79.037 60.79-62.047 97.708-19.47-22.613-2.4-55.815 18.18-78.76 13.746-15.352 20.25-21.7 27.26-33.096 5.5-8.925 9.03-18.3 8.72-27.73.36.166-7.337-3.723-7.337-3.723.932 3.03-1.064 21.423-12.91 37.627-12.964 17.7-57.687 56.82-44.123 93.664 7.517 20.4 26.817 24.467 31.676 25.235.37.026.732.126 1.083.15-42.09-21.713-31.07-75.53 86.46-130.103z" fill="#C4CED4"/><path d="M217.954 166.586c21.058-13.712 42.688-24.633 53.403-29.793l-4.227-1.996c-18.658 9.358-33.587 17.613-45.87 25.22a348.264 348.264 0 0 0-5.105 3.226l1.8 3.343z" fill="#C4CED4"/><path d="M221.26 160.018c12.285-7.608 27.212-15.865 45.864-25.22l-6.41-3.01-3.032-1.434c-12.48 6.246-30.033 15.835-45.51 25.494l3.986 7.396c1.65-1.067 3.35-2.14 5.102-3.226zm-34.603 97.797c-.537-.23-1.31-.566-1.717-.742a29.08 29.08 0 0 1-.967-.446c-.155-.06-.294-.13-.443-.198-5.978-2.86-12.274-7.22-16.815-12.54a33.05 33.05 0 0 1-3.264-4.533c-6.13-11.535-4.054-27.947 18.948-50.027 5.055-4.847 10.738-9.706 17.426-14.75l5.82-14.557a276.01 276.01 0 0 0-6.005 4.02c-58.485 40.27-54.03 67.41-37.48 81.313 2.9 2.48 6.22 4.78 9.566 6.398 4.603 2.227 8.968 4.3 13.624 5.753.535.16 1.064.29 1.594.473a1.4 1.4 0 0 1 .275.08l.005-.002a9.135 9.135 0 0 0-.563-.245z" fill="#0077C8"/><path d="M163.973 164.166c-20.58 22.946-37.65 56.147-18.18 78.76-16.988-36.915 16.445-69.03 62.047-97.706 4.79-2.8 9.117-5.164 11.785-6.524 13.367-6.83 45.566-21.098 69.56-31.645 4.066-1.78 27.21-12.35 28.292-12.85.026-.01.05-.022.05-.022s-48.807 18.56-58.518 22.363c-.136.045 0 0-.048.014-4.613 1.133-11.133 2.295-15.788 2.115-3.698-.11-9.97-.887-17.09-3.877-2.134-.903-14.588-6.044-25.077-10.957-.35-.165-.7-.327-1.057-.493.31 9.43-3.22 18.804-8.72 27.73-7.012 11.397-13.514 17.744-27.26 33.096z" fill="#F60"/><path d="M209.847 172.04l1.11 18.434.196 3.08v-.01l49.83 91.538 1.945 3.645 1.973-3.645 49.52-91.36.005.024 1.904-29.392-53.48 99.046-50.323-93.208-1.813-3.36-1.335-2.478.19 3.247.273 4.44z" fill="#FFD100"/><path fill="#0077C8" d="M153.41 341.247l-.005.004h18.43-18.425zm111.497-20.607l-2.067 3.82-2.053-3.81 2.053 3.815 2.067-3.824z"/><path d="M373.507 344.455l.1.243h-22.682L311.483 243.74l-48.634 90.065-48.64-90.064-39.49 101.05h-22.69l.467-1.2-.47 1.2-17.01 9.6H181.3l33.865-86.653.407-1.038.042-.098 47.24 87.5 47.222-87.5 34.268 87.79h46.3l-17.037-9.69-.1-.243z" fill="#0077C8"/><path d="M339.608 258.058l31.728 81.02.74 1.903 1.43 3.48-33.898-86.398z" fill="#0077C8"/><path d="M174.724 344.79l39.49-101.05 48.635 90.065 48.63-90.064L350.92 344.7h22.683l-.1-.24-1.43-3.474h-18.2l-41.86-107.526-47.11 87.185-2.066 3.825-2.056-3.817-46.966-86.95-41.985 107.547-18.43.004-.908 2.34-.466 1.2h22.694z" fill="#C4CED4"/><path d="M210.958 190.474l-1.126-18.428-.267-4.44-.198-3.26-1.824 4.653-2.53 6.464-29.297 74.873c.252.242.534.522.76.724.78.708 2.063 1.836 3.72 2.99.16.115.347.232.522.345.03.02.07.046.107.065a46.98 46.98 0 0 0 1.157.764c.38.234.77.473 1.155.707a.94.94 0 0 1 .134.076l.55.304c.12.07.245.13.364.2.355.195.703.39 1.067.58l25.904-63.54-.19-3.08zM135.016 354.39l17.01-9.6.47-1.2.91-2.34.004-.002h-.005l.025-.033 31.348-82.962c.01 0 .015-.01.015-.01a20.3 20.3 0 0 1-.854.03c-.23.007-.448.007-.67.007-3.44-.017-6.846-.47-9.9-.954-.12-.02-.25-.034-.37-.063L135.01 354.39zm204.592-96.332l33.9 86.397.1.243 17.036 9.69-74.32-190.034-1.903 29.392 25.19 64.312z" fill="#F60"/><path d="M153.43 341.212l-.025.035h18.432L213.823 233.7l46.965 86.95 2.054 3.81 2.067-3.82 47.1-87.186 41.863 107.525h18.2l-.74-1.908-31.728-81.018-25.187-64.312-.005-.025-49.515 91.36-1.972 3.646-1.946-3.645-49.83-91.537v.01l-25.904 63.54.004-.002c.583.3 1.398.704 1.996.96-.027-.01-.042-.013-.05-.01l-.542-.226c.28.116.503.214.565.244h-.01c-.16 0-1.587.15-2.42.183 0 0-.005.01-.014.01l-31.35 82.96zm43.622 40.036h8.427v42.246h-8.43zm141.3 21.732l-1.03 1.903-1.042-1.902-12.064-22.35-16.92 43.2h8.982l8.234-21.033.915-2.35 1.205 2.22 10.69 19.797 10.69-19.797 1.203-2.22.92 2.35 8.206 21.034h8.97l-16.892-43.2-12.062 22.354zm-81.832-21.732l-16.964 42.246h9l4.002-9.85h16.657l4.02 9.85h8.988l-16.958-42.246h-8.744zm-.56 23.945l5.148-11.806 4.716 11.806h-9.865zm143.57-24.856h8.435v43.175h-8.434zM135.035 402.98l-1.017 1.903-1.04-1.902-12.072-22.35L104 423.828h8.97l8.217-21.033.93-2.35 1.198 2.22 10.703 19.797 10.677-19.8 1.2-2.22.917 2.35 8.21 21.036h8.97l-16.886-43.198-12.07 22.353z" fill="#000"/></g></svg>