<svg width="512" height="512" viewBox="0 0 512 512" xmlns="http://www.w3.org/2000/svg"><title>miami-marlins</title><g fill="none" fill-rule="evenodd"><path d="M309.076 281.988l30.768 78.904h60.228l-83.748-209.56-53.552 98.436-44.82-83.182-5.783-10.74-2.79-5.196-3.74 9.374-5.82 14.557c-6.69 5.05-12.37 9.91-17.43 14.76-23 22.08-25.08 38.49-18.95 50.03.93 1.58 2.03 3.09 3.26 4.54 4.54 5.32 10.832 9.68 16.81 12.538.15.07.29.14.444.2.317.155.645.303.966.445l1.72.74c.25.11.47.196.54.23.01 0 .027 0 .05.01-.594-.26-1.41-.66-1.992-.96h-.004c-.443-.223-.866-.47-1.31-.71l-.666-.374c-.04-.03-.08-.054-.13-.075l-1.155-.71-.838-.54c-.136-.083-.27-.176-.41-.27-.173-.124-.37-.24-.54-.36-1.66-1.154-2.94-2.28-3.72-2.99-.224-.204-.51-.484-.76-.726l29.298-74.875 2.53-6.47 1.82-4.655.015.005 1.333 2.477 1.81 3.36 50.32 93.205 53.478-99.05 74.32 190.04h-46.3l-34.26-87.79-47.23 87.5-47.237-87.5-.043.095-.41 1.055v-.016l-33.86 86.656h-46.28L173 257.26c.118.03.247.046.37.066-1.81-.324-3.507-.69-4.98-1.038h-.043c.01 0 .03.01.03.017-.055-.018-.46-.065-1.126-.167h-.01l-41.8 104.75h60.19l30.857-78.906 46.27 84.89 46.32-84.89zm-137.692-36.176c-1.907-2.347-3.3-4.537-4.263-6.257-1.21-2.187-1.74-3.618-1.74-3.618-.43-1.44-.8-3.1-1.07-5.01-2.22-16.185 12.88-33.75 32.78-49.46l-25.69 64.345z" fill="#8A8D8F"/><path d="M254.807 126.187c43.846-20.802 73.63-36.185 73.637-36.187l-10.967 4.197c-1.08.502-24.226 11.07-28.29 12.854-23.996 10.55-56.195 24.82-69.562 31.65-2.67 1.36-6.994 3.73-11.785 6.53-45.602 28.68-79.037 60.79-62.047 97.71-19.47-22.61-2.4-55.81 18.18-78.76 13.746-15.35 20.25-21.7 27.26-33.09 5.5-8.923 9.03-18.3 8.72-27.73.36.168-7.337-3.72-7.337-3.72.932 3.03-1.064 21.422-12.91 37.626-12.964 17.7-57.687 56.82-44.123 93.665 7.517 20.4 26.817 24.468 31.676 25.236.37.027.73.127 1.08.15-42.09-21.712-31.07-75.53 86.46-130.102z" fill="#8A8D8F"/><path d="M217.954 166.586c21.058-13.712 42.688-24.633 53.403-29.793l-4.227-1.996c-18.658 9.358-33.587 17.613-45.87 25.22-1.753 1.087-3.454 2.162-5.105 3.226l1.8 3.343z" fill="#8A8D8F"/><path d="M221.26 160.018c12.285-7.608 27.212-15.865 45.864-25.22l-6.41-3.01-3.032-1.434c-12.48 6.246-30.033 15.835-45.51 25.494l3.986 7.396c1.65-1.067 3.35-2.14 5.102-3.226z" fill="#2177BD"/><path d="M186.657 257.815c-.537-.23-1.31-.566-1.717-.742-.32-.143-.648-.29-.967-.446-.155-.06-.294-.13-.443-.198-5.978-2.86-12.274-7.22-16.815-12.54-1.23-1.45-2.33-2.96-3.264-4.54-6.13-11.54-4.05-27.95 18.95-50.03 5.06-4.85 10.74-9.71 17.43-14.75l5.82-14.56c-2.07 1.342-4.08 2.69-6 4.02-58.48 40.27-54.03 67.41-37.48 81.31 2.9 2.48 6.22 4.78 9.57 6.395 4.605 2.23 8.97 4.3 13.626 5.754.536.16 1.065.29 1.595.473.048 0 .183.047.275.08l.002-.003c-.06-.03-.284-.13-.563-.242z" fill="#2177BD"/><path d="M163.973 164.166c-20.58 22.946-37.65 56.147-18.18 78.76-16.988-36.915 16.445-69.03 62.047-97.706 4.79-2.8 9.117-5.164 11.785-6.524 13.367-6.83 45.566-21.098 69.56-31.645 4.066-1.78 27.21-12.35 28.292-12.85l.05-.02s-48.807 18.56-58.518 22.37l-.05.02c-4.62 1.134-11.14 2.296-15.79 2.116-3.7-.11-9.97-.886-17.09-3.876-2.14-.904-14.59-6.045-25.08-10.958l-1.06-.492c.31 9.43-3.22 18.805-8.72 27.73-7.02 11.398-13.52 17.745-27.26 33.097z" fill="#F26822"/><path d="M209.847 172.04l1.11 18.434.196 3.08v-.01l49.83 91.538 1.945 3.645 1.973-3.645 49.52-91.36.01.024 1.91-29.392-53.48 99.046-50.32-93.208-1.81-3.36-1.333-2.478.19 3.247.27 4.44z" fill="#FFD107"/><path fill="#2177BD" d="M153.41 341.247l-.005.004h18.43-18.425z"/><path d="M264.907 320.64l-2.067 3.82-2.053-3.81 2.053 3.815 2.067-3.824z" fill="#2177BD"/><path d="M373.507 344.455l.1.243h-22.682L311.483 243.74l-48.634 90.065-48.64-90.064-39.49 101.05h-22.69l.46-1.2-.47 1.2-17.01 9.6h46.29l33.86-86.65.402-1.04.042-.09 47.24 87.5 47.22-87.5 34.27 87.79h46.3l-17.038-9.69-.1-.24z" fill="#2177BD"/><path d="M339.608 258.058l31.728 81.02.74 1.903 1.43 3.48-33.898-86.39z" fill="#2177BD"/><path d="M174.724 344.79l39.49-101.05 48.635 90.065 48.63-90.064 39.44 100.96h22.68l-.1-.24-1.43-3.47h-18.2l-41.86-107.52-47.11 87.19-2.07 3.827-2.06-3.816-46.97-86.95-41.98 107.54-18.43.006-.91 2.34-.464 1.2h22.694z" fill="#8A8D8F"/><path d="M210.958 190.474l-1.126-18.428-.267-4.44-.198-3.26-1.824 4.653-2.53 6.46-29.297 74.87c.252.24.534.52.76.72.78.702 2.063 1.83 3.72 2.99.16.11.347.23.522.34.03.02.07.045.107.064.098.072.207.145.32.217.275.185.555.366.837.546l1.155.703c.05.02.094.046.134.072l.55.302c.12.07.25.13.37.2.36.194.71.39 1.07.58l25.91-63.54-.19-3.08z" fill="#F26822"/><path d="M135.016 354.39l17.01-9.6.47-1.2.91-2.34.004-.002h-.005l.025-.033 31.348-82.962c.01 0 .015-.01.015-.01-.284.014-.57.028-.854.03-.23.007-.45.007-.67.007-3.44-.017-6.85-.47-9.9-.954-.12-.02-.25-.034-.37-.063l-37.99 97.127z" fill="#F26822"/><path d="M339.608 258.058l33.9 86.397.1.243 17.036 9.69-74.32-190.034-1.903 29.392 25.19 64.312z" fill="#F26822"/><path d="M153.43 341.212l-.025.035h18.432L213.823 233.7l46.965 86.95 2.054 3.81 2.067-3.82 47.1-87.186 41.86 107.526h18.2l-.74-1.91-31.73-81.017-25.19-64.312-.01-.02-49.52 91.36-1.97 3.65-1.948-3.64-49.83-91.535v.01L185.23 257.1h.005c.582.3 1.397.702 1.995.96-.026-.01-.04-.015-.05-.01l-.54-.228c.28.116.5.214.564.244h-.01c-.16 0-1.588.15-2.42.18 0 0-.006.01-.015.01l-31.35 82.96z" fill="#010101"/><path fill="#010101" d="M197.052 381.248h8.427v42.246h-8.43z"/><path d="M338.352 402.98l-1.03 1.903-1.042-1.902-12.064-22.35-16.92 43.2h8.982l8.234-21.03.915-2.35 1.205 2.22 10.69 19.8 10.69-19.79 1.203-2.22.92 2.35 8.206 21.037h8.97l-16.89-43.2L338.36 403z" fill="#010101"/><path d="M256.52 381.248l-16.964 42.246h9l4.002-9.85h16.657l4.02 9.85h8.988l-16.958-42.246h-8.744zm-.56 23.945l5.148-11.806 4.716 11.806h-9.865z" fill="#010101"/><path fill="#010101" d="M399.53 380.337h8.435v43.175h-8.434z"/><path d="M135.035 402.98l-1.017 1.903-1.04-1.902-12.072-22.35L104 423.83h8.97l8.217-21.033.93-2.35 1.198 2.22 10.703 19.797 10.677-19.8 1.2-2.22.917 2.35 8.21 21.036h8.97l-16.886-43.198-12.07 22.353z" fill="#010101"/></g></svg>