<svg width="512" height="512" viewBox="0 0 512 512" xmlns="http://www.w3.org/2000/svg"><title>minnesota-twins</title><g fill="none" fill-rule="evenodd"><path d="M254.333 89.766c-92.55 0-167.568 75.038-167.568 167.586 0 92.55 75.02 167.56 167.568 167.56 92.548 0 167.568-75.01 167.568-167.56 0-92.548-75.02-167.586-167.56-167.586m0 329.99c-89.7 0-162.4-72.704-162.41-162.404.01-89.7 72.72-162.433 162.42-162.433s162.4 72.73 162.4 162.43-72.707 162.4-162.406 162.4" fill="#1A2544"/><path d="M150.667 339.546c.448-.353.64-.81.64-1.363.008-.733-.373-1.59-.945-2.23l-1.038-1.142-3.058 2.32.343.46c.8 1.08 2.16 2.29 3.2 2.26.29 0 .57-.08.85-.29" fill="#1A2544"/><path d="M163.518 358.693l1.553-4.858-4.74 1.896 3.19 2.97" fill="#1A2544"/><path d="M215.99 388.692l-1.563-.362-1.39 4.81 1.96.734c.697.267 1.44.42 2.116.42 1.277-.02 2.25-.496 2.6-1.677.068-.22.096-.42.096-.62.03-1.505-1.8-2.83-3.82-3.305" fill="#1A2544"/><path d="M316.51 145.828c1.45.78 2.86 1.143 4.154 1.143 2.296 0 4.192-1.12 5.307-3.16.55-1.02.84-2.16.84-3.32 0-2.39-1.22-4.83-4.02-6.35-1.5-.81-2.95-1.18-4.28-1.18-2.33.01-4.24 1.13-5.37 3.19-.49.92-.77 1.98-.77 3.09.01 2.45 1.3 5.05 4.15 6.6" fill="#1A2544"/><path d="M144.532 338.45l-4 3.04 1.142 1.76-.285.182.28-.18c.84 1.314 2.09 2.276 3.22 2.257.45 0 .88-.13 1.32-.46.61-.48.86-1.1.86-1.84 0-1.11-.62-2.46-1.525-3.53l-1.03-1.24" fill="#1A2544"/><path d="M369.734 177.846l-5.144.886 2.553 3.648 2.59-4.534" fill="#1A2544"/><path d="M237.347 392.73l4.344.468-1.65-4.83-2.68 4.363" fill="#1A2544"/><path d="M217.61 382.843l-1.506-.305-1.067 3.677.543.162c.666.19 1.467.352 2.21.352 1.124-.02 1.972-.34 2.22-1.19.037-.16.056-.32.056-.46.03-1-1.124-1.98-2.457-2.24" fill="#1A2544"/><path d="M362.428 332.658h-.03c-.847 0-1.828.724-2.39 1.667l-.78 1.334 3.124 2.22.323-.48c.648-.89 1.296-2.18 1.296-3.177 0-.534-.18-.953-.62-1.277-.28-.21-.59-.303-.91-.303" fill="#1A2544"/><path d="M368.677 335.173h-.03c-1.247 0-2.723 1.162-3.647 2.63l-.867 1.352 4.077 2.905 1.343-1.6c.79-.943 1.315-2.077 1.315-3.048-.01-.724-.267-1.344-.943-1.83-.4-.285-.82-.41-1.248-.41" fill="#1A2544"/><path d="M213.503 354.826c-19.31-8.412-34.79-21.93-45.603-38.287-1.276.49-2.724 1.04-4.267 1.63 3.972 6.1 8.62 11.88 13.927 17.23.067.062.143.14.21.2.838.85 1.686 1.68 2.553 2.5.124.105.247.22.37.324.792.743 1.564 1.486 2.373 2.18 1.334 1.18 2.696 2.306 4.078 3.41 20.024 16.025 44.183 23.91 68.208 23.903h.02c30.302 0 60.49-12.547 82.087-37.077.03-.03.07-.076.11-.123 14.45-16.445 23.05-36.05 26.02-56.236l-.42.03c-1.27.11-2.65.24-4.07.36-1.367 8.62-3.82 17.21-7.47 25.57-23.14 53.18-84.99 77.51-138.14 54.37" fill="#1A2544"/><path d="M365.933 145.742c-28.58-28.57-68.017-46.222-111.6-46.222-43.593 0-83.032 17.653-111.592 46.222-28.56 28.57-46.23 68.01-46.23 111.61 0 43.593 17.67 83.032 46.23 111.6 28.57 28.552 68.01 46.213 111.6 46.213 43.59 0 83.02-17.66 111.6-46.212 28.57-28.57 46.23-68.008 46.23-111.6 0-43.602-17.65-83.04-46.22-111.61zm12.632 59.16c1.41-.097 2.792-.163 4.097-.24-.02 2.477 0 22.692 0 28.284-6.926-1.095-11.24-4.153-13.842-7.86 2.458 1.754 5.64 3.068 9.745 3.707-.01-4.26-.01-16.967 0-23.892zm-3.896 18.965c-8.78-3.296-9.55-11.403-9.68-14.137-5.79-.152-9.9 2.45-9.57 10.06.16 3.21 1.61 7.012 7.82 11.24 14.7 10.042 15.13 14.376 15.57 19.425.61 6.945-4.21 14.604-11.34 15.385-8.297.61-15.023 1.258-23.187 2.182-.058-1.63.047-18.157 0-19.3 8.773 3.162 9.545 11.23 9.687 13.984 5.776.048 12.47-2.848 12.13-10.47-.15-3.19-2.074-6.687-14.24-14.822-7.09-4.754-8.935-11.117-9.154-16.042-.297-6.526 3.543-14.46 11.573-15.27 7.41-.62 12.84-1.02 20.392-1.478.056 1.915-.058 18.12-.02 19.243zm-11.26-.21c.01.182.03.39.06.592.21.68.39 1.37.6 2.05.13.29.29.59.49.9-4.48-3.28-5.18-5.768-5.25-7.59-.02-.22-.48-4.65 2.38-5.56.43 1.933 1.14 3.914 2.24 5.762-.76 1.6-.536 3.687-.527 3.83zm5.69-48.993c.43-.067.86-.133 1.11-.257.25-.143.242-.143.27-.324 0-.095-.03-.257-.103-.457l-.143-.4.342-.258.53-.38 3.44 4.886-7.43 13.51c-.687 1.228-1.316 2.237-1.316 3.457 0 .26.03.55.108.85l.088.36-.325.22-.533.38-4.41-6.27.456-.32.39-.28.34.237c.45.318.735.41.744.4 0-.006.02.01.174-.2.17-.216.41-.635.724-1.216l1.888-3.23-4.19-5.972-3.64.726c-1.352.268-1.58.4-1.533.735 0 .133.03.334.125.61l.133.4-.35.25-.53.38-4.02-5.727.45-.34.38-.277.33.22c.743.466 1.4.6 2.105.6.705.01 1.487-.163 2.325-.325l12.07-1.96zm-31.5-11.898l.33-.362.37.18c.2.086.37.115.533.125.712.03 1.61-.95 2.274-1.72l7.53-8.27-1.64-1.51c-.95-.88-2.134-1.57-3.17-1.63l-.2-.02-.145-.14-.67-.59 4.01-2.16.296.276.133.133.06.09c.12.24.4.484.655.8l9.363 8.534c.38.363.74.63 1.03.744l.103.04.076.074.65.6-3.915 2.23-.303-.29-.35-.325.123-.34c.027-.075.036-.15.036-.237.03-.476-.544-1.23-1.2-1.78l-1.687-1.554-7.72 8.47c-.75.83-1.16 1.302-1.15 1.95 0 .276.06.6.23 1.03l.142.342-.247.266-.45.484-5.498-5.03.392-.43zm16.23 39.477c-.01 0-.01.01-.02.01-1.458.152-2.81.504-4.06 1-5.773-9.832-13.175-18.93-22.187-26.855-20.78-18.243-46.53-27.207-72.145-27.198-20.92-.01-41.783 5.983-59.807 17.748-8.182 5.325-15.784 11.84-22.547 19.538-7.09 8.07-12.757 16.9-17.053 26.188-1.476.124-2.99.286-4.524.467-.18.01-.37.06-.56.08 4.59-10.53 10.85-20.56 18.83-29.64 22.435-25.55 53.88-38.66 85.413-38.64 26.6 0 53.387 9.326 74.946 28.264 9.726 8.546 17.642 18.396 23.71 29.056zm-45.01-68.17c1.58-2.906 4.84-4.487 8.46-4.487 2.312 0 4.79.647 7.132 1.97 4.506 2.412 6.945 6.44 6.954 10.233 0 1.34-.315 2.65-.95 3.83-1.69 3.1-4.985 4.63-8.558 4.63h-.01c-2.274 0-4.694-.61-6.94-1.83-4.29-2.34-7.11-6.31-7.13-10.35 0-1.37.344-2.747 1.04-4.01zm-29.267-3.82c1.4 1.666 3.64 3.067 5.944 3.638.44.12.98.19 1.533.19 1.44 0 2.697-.5 2.85-1.33.03-.12.04-.25.04-.37.096-1.2-1.85-2.61-4.06-4.064-2.14-1.516-4.523-3.174-4.57-5.84 0-.354.05-.706.145-1.07.648-2.562 3.173-3.45 5.754-3.43 1.245 0 2.54.18 3.8.487 1.59.4 3.16.99 4.6 1.78l.39.21-.828 3.326-.302 1.2-.732-1.01c-.83-1.17-2.497-2.2-4.107-2.6-.54-.134-1.16-.23-1.722-.23-1.18.02-1.965.344-2.156 1.135-.024.107-.033.18-.033.288-.105 1 1.896 2.507 4.125 4.01 2.16 1.545 4.544 3.184 4.6 5.69 0 .287-.03.573-.113.87-.65 2.513-3.525 4.05-7.05 4.056-1.03 0-2.115-.13-3.24-.41-1.933-.484-3.82-1.2-5.495-2.21l-.266-.17-.154-5.363 1.06 1.24zm-28.12 1.886l.03-.51.406-.11c1.1-.2 1.1-1.73 1.12-3.03l.312-9.94c.02-.346.04-.718.04-1.09-.02-1.04-.16-1.77-.96-2.03l-.4-.15.01-.42.02-.65 10.762.354c.28.01.526.027.746.027.22 0 .4-.025.52-.073l.106-.04h.136l.646.01-.12 4.24-.56-.02h-.344l-.163-.17c-.76-.8-1.866-.96-3.323-1-.42-.02-.84-.038-1.26-.038-.477 0-.97.02-1.42.056l-.124 3.82 3.21.112c.16 0 .314.01.466.01.315 0 .58-.04.724-.087l.113-.036h.114l.658.03-.124 3.935-.57-.02-.4-.018-.162-.267c-.154-.39-1.335-.55-2.345-.54l-1.78-.065-.16 5.137 3.505.4c.305.02.628.05.952.05 1.664 0 3.34-.467 4.6-1.315l.15-.128.19.01.943.038-2.05 4.527-14.23-.45.02-.57zm-31.76-13.5l.093.45c.094.14.15.16.42.34l.512.4 12.76 8.68-1.78-8.382c-.376-1.505-.338-2.048-1.89-2.458l-.35-.087-.08-.36-.124-.64 6.58-1.4.12.552.106.44-.303.22c-.78.64-.907 1.03-.916 1.61 0 .38.087.84.22 1.42l3.23 15.202-.75-.06c-2.44-.123-3.783-.876-5.46-2.057l-11.89-8.15 1.82 8.583c.37 1.503.334 2.055 1.897 2.493l.34.086.085.35.124.64-6.62 1.41-.136-.553-.086-.447.275-.22c.81-.646.942-1.055.96-1.646 0-.38-.095-.847-.21-1.39l-2.19-10.3c-.372-1.512-.362-2.055-1.886-2.474l-.35-.085-.088-.35-.123-.64 5.675-1.2zm-36 14.4l.22.42c.14.09.19.1.492.21l.61.26 14.61 4.96-3.953-7.6c-.723-1.31-.876-1.83-2.286-1.89h-.16l-.38.04-.17-.34-.307-.588 5.99-3.115.466.905-.22.288c-.418.57-.54.96-.54 1.314-.01.48.26 1.04.66 1.79l7.18 13.78-.74.17c-.79.16-1.488.246-2.136.246-1.302 0-2.39-.332-3.674-.79l-13.635-4.67 4.05 7.786c.735 1.322.878 1.84 2.345 1.894h.17l.344.01.152.294.313.58-6.03 3.133-.257-.524-.21-.38.22-.28c.43-.6.555-1 .555-1.36.01-.488-.255-1.04-.645-1.79l-4.86-9.33c-.725-1.3-.906-1.834-2.325-1.873h-.145l-.362.03-.17-.333-.306-.58 5.137-2.68zm-17.617 11.81l.36.44.324.39-.25.35c-.142.25-.2.44-.21.66-.02.696.79 1.65 1.42 2.372l6.307 7.68c.64.827 1.497 1.885 2.24 1.837.143 0 .296-.025.477-.1l.39-.15.27.322.41.493-5.554 4.565-.362-.42-.32-.4.236-.36c.153-.24.21-.44.21-.65.03-.673-.77-1.626-1.39-2.35l-6.317-7.676c-.66-.857-1.5-1.915-2.24-1.858-.147 0-.3.01-.47.095l-.4.17-.266-.32-.43-.513 5.566-4.574zm-29.41 30.83l.448.32.05.02c.133.12.505.18.953.25l11.747 2.077-5.165-9.927c-.28-.55-.536-.96-.86-1.19l-.467-.36 4.03-5.303.45.362.43.322-.186.41c-.056.086-.066.172-.066.24-.01.227.22.58.448.75l11.587 6.174c.69.375 1.107.565 1.565.565.278 0 .61-.06 1.078-.25l.307-.136.256.2.517.4-4.42 5.79-.448-.332-.42-.323.17-.41c.08-.22.127-.38.127-.524 0-.36-.235-.657-.655-.99l-9.542-5.335 7.125 13.71-.6.23c-1.03.39-1.81.545-2.6.545-.62 0-1.22-.098-1.944-.22l-11.394-2.07 6.7 7.03c.83.888 1.42 1.39 1.84 1.374.17-.01.4-.06.71-.26l.336-.22.324.25.515.4-3.835 5.03-.457-.346-.286-.228v-.363c-.01-1.35-.746-2.106-1.71-3.17l-7.697-8.15c-.42-.46-.732-.82-1.132-.81-.18 0-.4.047-.733.23l-.325.18-.296-.23-.517-.41 4.06-5.316zm-22.205 66.77c0-26.17 45.603-26.59 60.1-26.61 20.865-.05 35.43-5.13 37.87-13.76-3.173 25.47-44.69 27.49-53.26 27.622v72.18c0 5.392 4.085 6.983 5.647 7.04-8.77 3.182-16.573 6.24-23.27 9.127 4.48-2.943 5.147-10.574 5.14-10.583.02.142 0-75.926 0-75.926-7.357.697-25.847 3.526-25.866 14.13v.037c0 3.61 2.01 6.497 3.61 7.707-8.95-.048-9.96-8.164-9.96-10.975zm15.443 9.6c-1.6-.39-5.2-2.15-5.2-6.34v-.01c.007-5.23 9.01-8.387 18.1-9.768v4.277c-8.367 1.23-14.006 3.724-14.006 8.23v.03c0 1.475.45 2.647 1.11 3.57zm4.486 6.9c-.965.4-3.82 1.13-5.89 1.112-4.22-.048-7.413-1.543-9.65-3.82 1.59.657 3.447 1.05 5.552 1.057 2.077.02 4.925-.724 5.897-1.133v-3.62c1.37 1.58 3.304 2.257 4.085 2.362v4.04zm11.85 89.71c-1.07 0-2.18-.36-3.165-.956-1.875-1.115-3.17-2.935-4.41-4.583l-2.97-3.886.276-.21.258-.19.21.135c.24.18.456.24.675.24.69.02 1.526-.676 2.164-1.17l6.89-5.24c.75-.553 1.76-1.25 1.732-2.04 0-.123-.03-.275-.087-.437l-.086-.24.2-.15.326-.25 4.17 5.48c1.3 1.703 1.958 3.275 1.958 4.61.01 1.02-.4 1.894-1.17 2.476-.53.42-1.13.6-1.733.6-.6 0-1.19-.17-1.78-.446.296.774.468 1.564.468 2.326.01 1.23-.458 2.375-1.506 3.176-.694.53-1.53.76-2.41.76zm18.583 17.01c-.28.906-.564 1.715-.564 2.535 0 .464.09.93.325 1.445l.085.21-.16.17-.276.296-4.65-4.313.23-.26.21-.225.228.095c.374.162.62.22.736.22.154.047.297-.21.697-1.487l1.03-3.17-4.764-4.42-3.06 1.29c-.95.38-1.31.67-1.283.945-.006.136.07.355.26.68l.115.23-.17.18-.275.296-4.23-3.935.24-.237.2-.22.22.066c.437.16.837.237 1.21.237.904 0 1.75-.39 2.723-.79l9.88-3.86c.695-.254 1.25-.54 1.18-.826 0-.104-.046-.275-.19-.513l-.14-.22.18-.2.275-.294 3.603 3.354-3.85 12.723zm21.87 4.6l-.41.63-.2-.714c-.36-1.267-1.456-2.6-2.704-3.42-.72-.486-1.695-.905-2.448-.895-.514.01-.895.155-1.18.59-.144.2-.19.42-.19.65-.106 2.088 4.505 5.794 4.57 9.07 0 .554-.14 1.125-.485 1.64-.77 1.16-2.22 1.754-3.9 1.754-1.645 0-3.54-.56-5.37-1.764-1.43-.95-2.752-2.066-3.83-3.37l-.113-.153 1.267-3.935.335.916c.694 1.79 2.14 3.61 3.886 4.753.704.48 1.838.9 2.734.9.635 0 1.11-.19 1.39-.63.18-.246.245-.512.245-.82.092-2.2-4.41-5.562-4.49-8.962 0-.66.18-1.326.6-1.945.723-1.104 1.867-1.56 3.095-1.56 1.727.01 3.67.837 5.366 1.952 1.17.78 2.28 1.695 3.23 2.743l.18.2-1.58 2.38zm16.834 8.795l-.325-.146-.2-.096-.036-.126c-.37-.96-1.25-1.478-2.39-2.02-.775-.36-1.547-.696-2.29-.934l-1.535 3.276 2.668 1.24c.4.18.78.352 1.02.352h.085l.056.027.38.183-1.31 2.85-.316-.15-.24-.116-.03-.2c-.026-.478-.96-1-1.76-1.354l-1.534-.704-2.01 4.324 2.783 1.584c1.154.64 2.487 1 3.764 1 .41 0 .818-.038 1.21-.114l.094-.02.117.05.546.236-2.944 2.712-10.966-5.107.147-.31.144-.3.255.05c.067.01.133.02.2.02.934.048 1.467-1.22 1.886-2.153l3.64-7.83c.298-.64.726-1.43.717-2.056-.01-.35-.106-.647-.42-.933l-.2-.19.114-.23.18-.36 8.317 3.867c.45.22.83.43 1.078.42h.085l.066.028.39.18-1.427 3.05zm20.118 7.122c-.38 1.332-1.447 1.96-2.723 2.22 1.524.96 2.6 2.342 2.61 3.98 0 .343-.048.695-.15 1.05-.55 1.884-2.525 2.98-4.59 3.19-.288.03-.564.04-.85.04-1.877 0-3.696-.59-5.42-1.09l-4.716-1.363.093-.33.084-.295.257-.01c1.105.02 1.43-1.37 1.715-2.46l2.41-8.317c.16-.56.41-1.26.41-1.85-.01-.468-.126-.82-.574-1.12l-.2-.138.067-.248.103-.4 6.62 1.914c3.107.887 4.965 2.46 4.984 4.393 0 .276-.04.552-.136.828zm25.618 15.49l-.036.4-6.314-.67.048-.353.03-.292.228-.067c.81-.22.81-.285.81-.44.01-.2-.16-.683-.41-1.42l-1.066-3.16-6.48-.694-1.67 2.868c-.35.6-.56 1.04-.55 1.257.01.2.087.37.696.666l.22.096-.02.27-.042.4-5.74-.63.03-.33.026-.305.23-.056c1.525-.447 2.06-1.533 2.83-2.8l5.61-9.02c.268-.43.535-.897.525-1.144-.02-.17-.04-.313-.535-.513l-.256-.09.077-.677 4.897.525 4.514 12.515c.5 1.4.824 2.584 2.19 3.346l.2.106-.04.23zm19.235-.43l-11.89.695-.017-.335-.01-.335.23-.087c.743-.257.885-.914.895-1.743 0-.39-.04-.78-.058-1.133l-.494-8.63c-.057-1.138-.066-2.538-1.17-2.767l-.25-.066-.01-.258-.027-.41 5.952-.345.017.344.02.314-.24.093c-.714.27-.866.897-.876 1.706 0 .41.045.82.074 1.18l.55 9.66 3.44-.01c1.81-.03 3.316-.62 4.593-1.62l.074-.06.115-.01.62-.034-1.543 3.84zm21.016-3.6l-11.687 2.42-.06-.335-.057-.317.22-.113c.532-.293.656-.712.665-1.284 0-.553-.16-1.173-.268-1.687l-1.763-8.45c-.22-1.125-.43-2.516-1.554-2.57l-.267-.03-.05-.27-.073-.4 5.83-1.2.074.34.06.318-.22.117c-.504.303-.647.712-.647 1.265s.163 1.19.278 1.715l1.98 9.47 3.385-.517c1.79-.284 3.2-1.094 4.315-2.266l.07-.077.11-.037.61-.118-.95 4.02zm35.935-14.7l-.075.095c-.98 1.084-2.21 1.913-3.514 2.56-2.305 1.152-4.496 1.743-6.46 1.743h-.02c-3.064 0-5.6-1.466-6.99-4.24-.57-1.15-.836-2.323-.836-3.485.01-3.342 2.274-6.47 6.114-8.38 1.53-.784 3.2-1.336 4.81-1.774l.256-.076 1.326 2.61.248.514-.562-.028h-.248c-1.58 0-3.25.342-4.745 1.094-2.385 1.2-3.65 3.148-3.65 5.177 0 .764.18 1.545.57 2.307.99 1.962 3 3.23 5.344 3.23 1.064 0 2.19-.268 3.32-.82 1.78-.896 3.324-2.354 4.486-3.85l.05-.056.076-.036.582-.288-.086 3.706zm7.67-4.268l-.2-.27-.18-.268.15-.2c.19-.26.26-.497.27-.735.02-.675-.638-1.513-1.095-2.142l-5.03-7.02c-.564-.783-1.25-1.83-2.05-1.793-.135 0-.277.02-.42.067l-.248.097-.154-.22-.226-.33 4.84-3.477.21.283.18.26-.152.2c-.19.266-.26.486-.26.733-.02.668.65 1.506 1.12 2.145l5.64 7.85 2.895-1.84c1.517-.98 2.49-2.29 3.02-3.81l.04-.09.077-.07.512-.37.752 4.067-9.69 6.935zm25.8-21.61l-.24-.25-.52-.523c-.24 1.705-1.35 3.39-2.56 4.62-1.338 1.324-3.1 2.4-4.91 2.486-.076.01-.16.01-.24.01-1.99 0-3.104-1.21-4.21-2.316l-4.324-4.333c-.6-.63-1.38-1.485-2.106-1.456-.18 0-.36.04-.57.155l-.22.124-.18-.19-.304-.28 4.21-4.21.24.257.24.22-.124.217c-.115.21-.153.4-.153.57-.02.728.83 1.52 1.445 2.12l4.328 4.345c1.047 1.03 2.02 1.484 2.933 1.484.935 0 1.878-.47 2.85-1.43.98-.97 1.64-2.26 1.64-3.45 0-.096 0-.18-.01-.268-.06-.8-.363-1.07-.963-1.67l-4.888-4.896c-.59-.61-1.39-1.47-2.117-1.44-.17 0-.364.04-.554.142l-.23.113-.18-.18-.294-.286 4.125-4.117.22.09.4.165-.16.35c-.112.21-.15.4-.15.58-.03.735.82 1.507 1.448 2.126l6.106 6.115c.6.63 1.38 1.477 2.104 1.458.18 0 .38-.046.59-.16l.23-.113.18.16.283.305-3.366 3.354zm14.51-19.3c-.525 2.134-1.868 3.896-3.068 5.573l-2.85 4-.274-.2-.26-.18.075-.24c.046-.15.065-.286.065-.4.03-.8-1.02-1.506-1.81-2.05l-7.04-5.02c-.64-.467-1.46-1.124-2.122-1.105-.246 0-.465.07-.723.27l-.21.152-.2-.14-.344-.258 4-5.6c1.563-2.19 3.24-3.4 4.83-3.41.6 0 1.19.19 1.706.55.882.64 1.244 1.583 1.234 2.564 0 .246-.02.493-.06.75 1.05-.83 2.22-1.336 3.4-1.346.735 0 1.487.23 2.164.704 1.153.84 1.68 2.266 1.68 3.742 0 .554-.068 1.097-.2 1.64zm-4.097-63.8c-.075 0-.676.058-1.62.134-2.942 21.31-11.935 42.07-27.177 59.418-22.433 25.56-53.87 38.65-85.373 38.65h-.046c-26.597.01-53.385-9.32-74.934-28.247-1.65-1.447-3.21-2.943-4.764-4.46-6.145-6.056-11.45-12.67-15.948-19.69-7.47 2.88-15.618 6.08-17.88 7.146v-4.67c8.15-3.52 20.362-8.132 27.5-10.714v-4.676c-.05-.01-.707-.096-1.565-.344-1.79-.533-4.47-1.77-4.47-4.64v-68.43c13.55-.704 52.34-5.058 53.378-33.6.02-.618.05-1.237.04-1.885l-5.936-1.94c-.216 10.545-14.515 15.89-35.97 15.918-2.98 0-7.753.02-13.364.345 24.55-50.08 84.43-72.46 136.09-49.968 21.187 9.22 37.77 24.596 48.62 43.116-4.59 3.56-7.09 9.498-7.09 15.214 0 .295.01.59.02.886.336 7.334 3.556 13.507 9.32 17.975.506.38 1.02.76 1.554 1.12 2.335 1.55 4.22 2.9 5.774 4.082 3.144 2.41 4.858 4.104 5.763 5.342.745 1.03.954 1.762.983 2.343.133 2.82-1.248 4.295-2.668 5.095-.86.49-1.735.726-2.278.86-.525-2.35-1.545-4.81-3.174-7.03-2.703-3.686-7.085-6.687-13.687-7.41v28.37c.6-.06 1.22-.125 1.84-.2.75-.077 1.496-.153 2.258-.24 7.94-.837 16.52-1.637 23.028-2.14 9.202-.706 15.203-10.06 15.203-18.14 0-4.525-.743-8.326-4.372-12.775 6.974 6.44 7.908 11.116 7.908 16.956 0 8.08-7.02 17.29-16.957 18.236z" fill="#1A2544"/><path d="M254.323 94.92c-89.69 0-162.405 72.742-162.405 162.432 0 89.7 72.715 162.405 162.405 162.405 89.7 0 162.424-72.705 162.424-162.405 0-89.69-72.724-162.433-162.424-162.433m111.61 274.03c-28.58 28.55-68.017 46.21-111.61 46.21-43.583 0-83.03-17.66-111.6-46.21-28.56-28.58-46.213-68.02-46.213-111.6 0-43.6 17.652-83.04 46.222-111.61 28.56-28.58 68.008-46.23 111.59-46.23 43.594 0 83.032 17.64 111.61 46.22 28.57 28.57 46.223 68.02 46.233 111.61-.01 43.58-17.662 83.02-46.232 111.6" fill="#FFF"/><path d="M133.415 181.628l.334-.18c.32-.163.54-.23.71-.23.41-.01.72.362 1.13.81l7.7 8.145c.97 1.076 1.693 1.83 1.693 3.172v.372l.294.22.45.35 3.84-5.03-.515-.4-.315-.256-.34.23c-.307.19-.536.25-.707.26-.42.02-1.02-.49-1.84-1.37l-6.696-7.04 11.395 2.08c.723.14 1.324.23 1.943.23.78 0 1.574-.17 2.59-.56l.61-.22-7.123-13.703 9.548 5.336c.43.333.66.628.65.99 0 .143-.027.296-.113.524l-.173.41.42.312.458.353 4.41-5.805-.51-.4-.27-.19-.304.115c-.458.19-.79.268-1.067.268-.46 0-.878-.19-1.56-.57l-11.588-6.173c-.227-.17-.456-.52-.437-.75 0-.066.01-.152.048-.24l.18-.41-.41-.32-.455-.367-4.03 5.304.452.364c.323.23.58.65.866 1.19l5.16 9.928-11.738-2.074c-.46-.077-.84-.134-.97-.258l-.03-.02-.46-.334-4.06 5.32.516.41.295.22" fill="#FFF"/><path d="M161.194 150.267l.41-.17c.16-.087.323-.097.466-.097.743-.057 1.582 1 2.24 1.858l6.315 7.678c.62.724 1.42 1.667 1.39 2.353 0 .21-.047.41-.21.65l-.237.35.314.4.372.43 5.554-4.58-.41-.496-.267-.324-.39.15c-.18.08-.33.107-.48.107-.73.05-1.6-1-2.23-1.84l-6.31-7.68c-.62-.73-1.43-1.675-1.41-2.37.01-.22.07-.42.21-.668l.24-.35-.31-.38-.362-.45-5.56 4.57.43.51.255.325" fill="#FFF"/><path d="M179.018 136.635l.38-.03c.03-.008.067-.008.124-.008 1.43.038 1.6.58 2.325 1.886l4.858 9.326c.4.75.658 1.3.658 1.79-.01.36-.124.76-.553 1.35l-.22.28.2.39.268.51 6.02-3.137-.304-.58-.162-.306h-.334c-.066-.01-.124 0-.162 0-1.486-.046-1.62-.58-2.353-1.894l-4.058-7.78 13.632 4.67c1.296.46 2.382.78 3.687.78.648 0 1.343-.085 2.134-.237l.743-.16-7.18-13.785c-.4-.763-.66-1.315-.65-1.792.01-.363.12-.753.55-1.315l.21-.286-.2-.4-.26-.507-5.99 3.12.295.58.18.33.38-.03h.155c1.42.05 1.56.564 2.295 1.88l3.954 7.602-14.616-4.972-.61-.245c-.307-.094-.36-.103-.497-.21l-.22-.427-5.142 2.686.308.584.17.333" fill="#FFF"/><path d="M214.208 120.83l.352.087c1.534.42 1.534.97 1.896 2.476l2.19 10.298c.115.55.21 1.01.21 1.4-.018.59-.152 1-.962 1.66l-.276.22.086.43.133.56 6.62-1.41-.142-.64-.066-.35-.36-.08c-1.56-.44-1.52-.99-1.89-2.496l-1.82-8.582 11.88 8.148c1.68 1.18 3.03 1.933 5.46 2.066l.753.048-3.24-15.202c-.124-.58-.22-1.037-.22-1.42.01-.58.143-.97.924-1.61l.296-.217-.094-.44-.125-.55-6.597 1.4.133.637.066.36.36.086c1.554.41 1.516.95 1.88 2.454l1.78 8.382-12.756-8.69-.508-.4c-.28-.18-.327-.2-.43-.335l-.088-.468-5.68 1.2.124.638.076.355" fill="#FFF"/><path d="M267.708 128.642l-.944-.047-.19-.01-.162.115c-1.248.857-2.925 1.324-4.592 1.324-.324 0-.647-.02-.962-.048l-3.496-.39.162-5.145 1.78.06c1.01-.01 2.192.17 2.345.57l.16.26.4.02.57.01.12-3.92-.66-.028h-.13l-.107.028c-.143.07-.42.098-.724.098-.143 0-.304-.01-.466-.01l-3.21-.103.125-3.83c.456-.036.933-.046 1.43-.046.41 0 .83.01 1.246.03 1.46.037 2.555.2 3.327 1l.162.17h.33l.575.02.135-4.23-.668-.02h-.126l-.104.04c-.116.047-.297.075-.525.075-.22 0-.47-.02-.754-.03L252 114.248l-.02.648-.016.43.41.14c.8.27.944.993.96 2.013 0 .39-.025.76-.035 1.1l-.31 9.93c-.02 1.307-.02 2.83-1.12 3.02l-.42.116-.017.502-.02.57 14.233.454 2.045-4.525" fill="#FFF"/><path d="M278.93 134.54c1.676 1.01 3.572 1.733 5.496 2.21 1.124.285 2.21.41 3.24.41 3.524 0 6.4-1.544 7.05-4.05.084-.295.113-.59.113-.876-.06-2.496-2.44-4.144-4.61-5.687-2.23-1.486-4.24-3.01-4.13-4.01 0-.087.02-.182.04-.268.19-.8.97-1.14 2.15-1.16.56 0 1.18.09 1.722.23 1.61.4 3.277 1.43 4.106 2.6l.733 1.01.304-1.2.83-3.33-.39-.21c-1.44-.78-3.01-1.37-4.6-1.76-1.26-.33-2.557-.51-3.805-.51-2.58-.02-5.107.866-5.754 3.44-.095.35-.14.712-.14 1.055.045 2.676 2.43 4.343 4.57 5.84 2.21 1.456 4.154 2.885 4.06 4.076 0 .115-.01.238-.04.37-.15.83-1.41 1.33-2.845 1.324-.55 0-1.094-.067-1.54-.18-2.296-.563-4.535-1.973-5.935-3.63L278.5 129l.15 5.365.267.165" fill="#FFF"/><path d="M314.91 148.43c2.258 1.208 4.668 1.828 6.955 1.828h.01c3.572 0 6.868-1.534 8.544-4.64.64-1.18.95-2.496.95-3.84 0-3.79-2.45-7.8-6.95-10.22-2.35-1.334-4.83-1.963-7.14-1.963-3.63-.01-6.89 1.562-8.46 4.477-.7 1.277-1.03 2.64-1.03 4 .01 4.05 2.82 8.023 7.103 10.357m-1.77-12.29c1.12-2.07 3.035-3.2 5.37-3.2 1.324 0 2.78.36 4.27 1.18 2.81 1.52 4.02 3.96 4.03 6.35 0 1.16-.29 2.302-.84 3.32-1.116 2.04-3.01 3.155-5.317 3.164-1.277 0-2.696-.36-4.144-1.14-2.858-1.554-4.125-4.155-4.135-6.6 0-1.107.26-2.17.763-3.088" fill="#FFF"/><path d="M343.166 167.738l.247-.266-.143-.334c-.17-.438-.238-.77-.238-1.038 0-.648.41-1.134 1.162-1.953l7.717-8.47 1.69 1.554c.66.57 1.23 1.31 1.2 1.78 0 .09-.02.17-.04.25l-.11.36.355.314.305.278 3.915-2.22-.65-.6-.085-.073-.095-.04c-.287-.113-.65-.39-1.03-.74L347.99 148c-.256-.304-.523-.56-.656-.81l-.05-.075-.133-.133-.29-.28-4.01 2.153.665.6.14.136.2.02c1.037.077 2.21.75 3.17 1.63l1.64 1.495-7.526 8.28c-.676.77-1.56 1.753-2.286 1.715-.154-.01-.325-.04-.525-.127l-.373-.18-.34.36-.39.43 5.515 5.03.44-.485" fill="#FFF"/><path d="M354.702 176.95c-.696 0-1.362-.143-2.096-.61l-.324-.21-.4.277-.438.334 4.01 5.73.543-.38.353-.25-.133-.4c-.105-.26-.124-.46-.124-.61-.048-.32.17-.45 1.533-.72l3.63-.7 4.192 5.958-1.868 3.23c-.333.57-.57.99-.743 1.218-.143.2-.17.185-.17.195-.01.02-.287-.075-.735-.4l-.343-.23-.39.278-.46.334 4.41 6.28.53-.37.31-.23-.08-.36c-.09-.316-.117-.59-.117-.86 0-1.218.627-2.218 1.323-3.447l7.42-13.52-3.43-4.882-.543.39-.33.26.143.41c.087.21.107.352.107.447-.02.19-.02.18-.287.325-.245.11-.674.19-1.1.255l-12.07 1.98c-.84.142-1.62.304-2.335.304m15.034.897l-2.59 4.537-2.553-3.646 5.144-.884" fill="#FFF"/><path d="M149.677 342.403c.59.277 1.18.458 1.78.458.62 0 1.2-.18 1.735-.59.78-.59 1.19-1.48 1.18-2.48 0-1.34-.656-2.9-1.952-4.61l-4.172-5.49-.315.26-.21.15.086.238c.05.16.07.324.07.457.04.78-.98 1.478-1.73 2.03l-6.89 5.23c-.64.505-1.47 1.19-2.165 1.17-.217 0-.436-.05-.674-.23l-.21-.13-.265.18-.266.22 2.97 3.886c1.24 1.64 2.535 3.478 4.41 4.58.983.59 2.1.955 3.165.955.874 0 1.722-.23 2.41-.762 1.05-.8 1.512-1.95 1.503-3.17 0-.762-.17-1.562-.476-2.334m-3.46 2.65c-.438.324-.876.457-1.33.457-1.116.03-2.38-.952-3.21-2.26l-.287.194.28-.19-1.143-1.752 3.993-3.06 1.038 1.25c.9 1.067 1.527 2.42 1.518 3.516 0 .754-.247 1.37-.857 1.85m.4-7.47l-.354-.447 3.07-2.335 1.03 1.156c.58.635.95 1.483.95 2.24 0 .54-.19 1-.647 1.35-.276.21-.55.283-.857.283-1.03.04-2.39-1.18-3.19-2.25" fill="#FFF"/><path d="M164.785 349.9l-.18.2.142.23c.153.228.19.4.19.504.067.286-.476.58-1.18.83l-9.88 3.857c-.952.4-1.81.8-2.714.8-.372 0-.772-.07-1.21-.24l-.21-.06-.22.22-.237.24 4.24 3.933.275-.295.18-.18-.12-.23c-.19-.324-.25-.543-.25-.677-.02-.273.34-.56 1.28-.94l3.07-1.295 4.765 4.42-1.03 3.17c-.4 1.288-.544 1.536-.706 1.488-.105.01-.36-.057-.734-.21l-.227-.104-.44.484 4.67 4.315.264-.296.16-.175-.094-.21c-.24-.513-.316-.98-.316-1.446 0-.82.278-1.63.573-2.535l3.84-12.727-3.605-3.36-.283.3zm-1.267 8.793l-3.19-2.962 4.743-1.89-1.55 4.86z" fill="#FFF"/><path d="M184.867 364.962c-1.696-1.115-3.64-1.944-5.364-1.953-1.228 0-2.372.45-3.096 1.56-.42.63-.6 1.28-.6 1.93.076 3.41 4.582 6.78 4.487 8.97 0 .29-.067.57-.248.83-.276.43-.752.62-1.39.62-.905 0-2.03-.42-2.744-.9-1.734-1.148-3.182-2.96-3.877-4.758l-.334-.904-1.27 3.933.13.143c1.08 1.303 2.4 2.42 3.83 3.37 1.83 1.2 3.73 1.763 5.37 1.763 1.68 0 3.13-.59 3.9-1.75.328-.516.49-1.087.49-1.65-.066-3.257-4.677-6.973-4.572-9.05 0-.237.05-.457.19-.657.29-.44.67-.58 1.184-.59.75-.01 1.723.41 2.45.904 1.245.81 2.34 2.15 2.7 3.41l.2.713.41-.63 1.58-2.38-.18-.2c-.95-1.05-2.06-1.973-3.23-2.744" fill="#FFF"/><path d="M204.49 375.812h-.075c-.248.01-.63-.2-1.077-.41l-8.316-3.867-.18.37-.116.23.19.18c.325.277.41.592.42.935.01.628-.41 1.42-.705 2.057l-3.64 7.83c-.41.935-.93 2.192-1.87 2.144-.055 0-.14 0-.2-.01l-.255-.04-.134.3-.162.32 10.966 5.096 2.943-2.704-.542-.24-.103-.053-.103.02c-.39.075-.8.113-1.21.113-1.27 0-2.61-.352-3.764-1l-2.78-1.572 2.01-4.322 1.54.715c.79.34 1.735.86 1.763 1.35l.02.19.246.106.313.15 1.315-2.82-.38-.19-.07-.03h-.076c-.24 0-.62-.17-1.02-.362l-2.677-1.23 1.536-3.294c.75.24 1.52.58 2.292.948 1.145.532 2.03 1.046 2.39 2.02l.04.112.2.103.325.143 1.428-3.058-.39-.165-.076-.047" fill="#FFF"/><path d="M218.81 380.985l-6.64-1.915-.096.4-.076.248.2.133c.457.31.562.66.57 1.14 0 .58-.227 1.28-.408 1.84l-2.4 8.32c-.287 1.09-.61 2.48-1.725 2.46h-.248l-.086.31-.1.333 4.73 1.36c1.73.497 3.56 1.087 5.41 1.087.3 0 .57-.01.85-.04 2.08-.21 4.05-1.297 4.61-3.19.094-.356.142-.708.142-1.05-.01-1.64-1.077-3.02-2.61-3.99 1.285-.25 2.36-.88 2.743-2.21.076-.28.124-.555.124-.82-.02-1.945-1.89-3.508-4.976-4.4m.896 11.63c-.342 1.19-1.314 1.656-2.6 1.675-.667 0-1.4-.143-2.115-.42l-1.964-.723 1.39-4.82 1.56.36c2.04.485 3.87 1.81 3.83 3.295 0 .2-.04.42-.104.63m.306-7.08c-.26.85-1.106 1.17-2.23 1.19-.733 0-1.534-.15-2.21-.35l-.533-.162 1.067-3.676 1.498.303c1.333.257 2.486 1.23 2.466 2.248 0 .136-.02.298-.054.45" fill="#FFF"/><path d="M246.912 398.01l-4.516-12.51-4.896-.533-.048.42-.03.256.26.096c.494.2.513.34.532.52.01.24-.257.71-.524 1.14l-5.61 9.01c-.772 1.27-1.306 2.35-2.83 2.8l-.23.06-.027.304-.03.342 5.736.62.04-.41.02-.26-.23-.105c-.6-.277-.68-.45-.69-.65-.01-.23.2-.676.55-1.266l1.665-2.877 6.48.696 1.067 3.16c.247.743.42 1.23.41 1.43 0 .15 0 .218-.81.437l-.23.058-.037.315-.04.335 6.32.686.04-.41.037-.23-.2-.113c-1.36-.75-1.684-1.942-2.19-3.342m-9.564-5.28l2.687-4.365 1.66 4.83-4.34-.464" fill="#FFF"/><path d="M269.308 397.475l-.086.057c-1.276 1-2.772 1.59-4.582 1.61l-3.44.01-.56-9.65c-.03-.362-.068-.772-.068-1.182.01-.81.153-1.448.867-1.705l.23-.095-.02-.315-.02-.352-5.96.352.03.41.01.248.25.076c1.11.22 1.12 1.64 1.17 2.77l.503 8.62c.02.35.057.74.057 1.13-.02.83-.162 1.47-.886 1.74l-.25.08.02.332.02.322 11.9-.687 1.535-3.84-.63.04-.107.01" fill="#FFF"/><path d="M289.75 393.788l-.075.086c-1.105 1.172-2.524 1.982-4.306 2.267l-3.41.51-1.97-9.46c-.12-.53-.29-1.16-.29-1.72.01-.54.14-.96.652-1.25l.22-.113-.058-.314-.078-.342-5.83 1.21.074.39.05.268.256.03c1.13.056 1.34 1.447 1.56 2.57l1.762 8.45c.1.515.263 1.135.263 1.687-.01.57-.142.99-.666 1.288l-.23.114.066.303.065.34 11.67-2.42.96-4.02-.61.117-.104.03" fill="#FFF"/><path d="M324.875 379.585l-.048.057c-1.152 1.495-2.705 2.953-4.487 3.848-1.143.562-2.267.82-3.334.82-2.334 0-4.353-1.267-5.344-3.22-.39-.772-.572-1.553-.572-2.315 0-2.02 1.277-3.973 3.66-5.173 1.494-.752 3.16-1.086 4.762-1.086h.228l.572.02-.267-.515-1.305-2.61-.276.08c-1.61.44-3.277.99-4.8 1.76-3.84 1.93-6.117 5.05-6.117 8.4 0 1.16.276 2.34.847 3.49 1.39 2.776 3.906 4.24 6.974 4.24h.02c1.96 0 4.152-.59 6.458-1.73 1.305-.658 2.543-1.487 3.515-2.564l.09-.103.08-3.717-.58.295-.07.04" fill="#FFF"/><path d="M341.537 368.067l-.077.067-.038.095c-.533 1.51-1.505 2.83-3.03 3.81l-2.886 1.83-5.65-7.85c-.456-.64-1.123-1.48-1.104-2.15 0-.248.067-.468.257-.734l.15-.2-.18-.258-.21-.287-4.85 3.477.25.334.13.22.26-.096c.13-.05.28-.066.42-.066.8-.04 1.48 1.01 2.04 1.79l5.02 7.02c.46.64 1.12 1.47 1.1 2.146-.01.235-.087.473-.268.73l-.153.2.18.27.2.263 9.69-6.94-.744-4.068-.524.37" fill="#FFF"/><path d="M361.81 353.273l-.23.114c-.22.115-.41.153-.59.153-.734.028-1.515-.82-2.106-1.44l-6.106-6.115c-.64-.62-1.487-1.4-1.458-2.134 0-.18.038-.37.162-.59l.18-.34-.418-.16-.22-.08-4.124 4.12.295.288.172.18.238-.113c.2-.114.37-.143.552-.143.724-.03 1.525.82 2.115 1.44l4.887 4.893c.6.6.89.865.95 1.665 0 .086.01.18.01.267 0 1.19-.66 2.476-1.63 3.447-.98.96-1.92 1.43-2.85 1.43-.93 0-1.9-.46-2.94-1.49l-4.33-4.344c-.62-.6-1.47-1.39-1.45-2.114 0-.17.037-.362.15-.562l.115-.23-.23-.23-.24-.25-4.2 4.2.286.286.18.18.22-.113c.21-.11.39-.15.57-.15.736-.025 1.517.83 2.117 1.46l4.324 4.337c1.097 1.105 2.22 2.315 4.21 2.315.068 0 .164 0 .24-.01 1.8-.08 3.57-1.17 4.906-2.48 1.21-1.23 2.314-2.914 2.56-4.62l.515.534.237.236 3.374-3.353-.283-.305-.18-.16" fill="#FFF"/><path d="M371.945 332.41c-.677-.486-1.42-.705-2.172-.705-1.172.01-2.353.524-3.4 1.353.037-.267.056-.524.056-.762 0-.99-.35-1.934-1.23-2.563-.53-.37-1.11-.552-1.71-.552-1.6.01-3.28 1.22-4.84 3.41l-3.99 5.62.33.24.21.15.2-.152c.25-.19.48-.265.73-.265.67-.02 1.48.65 2.11 1.116l7.05 5.02c.78.543 1.85 1.24 1.81 2.04 0 .123-.02.256-.08.4l-.075.237.267.19.275.2 2.85-3.99c1.2-1.684 2.55-3.46 3.064-5.57.135-.55.2-1.105.2-1.657 0-1.48-.512-2.908-1.674-3.737m-9.27 5.01l-.325.46-3.124-2.22.78-1.335c.565-.954 1.556-1.658 2.394-1.658h.027c.325 0 .63.084.925.294.437.325.61.744.61 1.287.01.98-.63 2.267-1.288 3.17m6.877 3.04l-1.34 1.6-4.074-2.904.87-1.353c.933-1.468 2.4-2.63 3.658-2.63h.02c.43 0 .85.124 1.25.41.678.485.936 1.105.945 1.83.01.96-.513 2.104-1.314 3.047" fill="#FFF"/><path d="M255.19 144.923c-31.532-.01-62.978 13.09-85.413 38.648-7.983 9.08-14.242 19.1-18.833 29.64.19-.02.38-.05.562-.07 1.533-.18 3.048-.33 4.525-.46 4.3-9.28 9.97-18.12 17.06-26.19 6.76-7.7 14.36-14.21 22.55-19.53 18.03-11.77 38.89-17.753 59.81-17.753 25.62 0 51.37 8.965 72.148 27.198 9.01 7.93 16.414 17.036 22.187 26.868 1.247-.497 2.6-.85 4.057-1.01h.02c-6.07-10.67-13.985-20.52-23.71-29.066-21.56-18.936-48.35-28.263-74.945-28.253" fill="#FFF"/><path d="M364.066 226.278c.01.01.01.01.01.02-.2-.678-.39-1.364-.6-2.05v.01c.21.686.39 1.362.59 2.02" fill="#FFF"/><path d="M167.157 237.204v5.01c6.183-2.01 19.29-6.096 24.788-7.79v4.362c.867-.248 1.667-.486 2.4-.715v-4.33c5.564-1.62 20.14-5.69 25.817-7.24v4.39c.867-.24 1.667-.45 2.4-.65v-4.36c6.107-1.58 19.615-4.89 25.74-6.35v4.39c.858-.21 1.65-.39 2.4-.56v-4.372l3.03-.685c6.107-1.38 12.28-2.715 18.33-3.934l4.667-.953v4.41l2.39-.475v-4.41c6.2-1.17 15.96-2.95 21.97-3.94l11.25-1.79c6.38-.964 11.33 1.16 14.67 3.894 1.02.847 1.89 1.78 2.61 2.78.53.343 1.02.705 1.48 1.076 5.19 4.305 6.26 10.812 6.24 15.51v33.03c-.01.735-.02 1.478.18 2.24l.63.305v1.03c.445.656 1.16 1.294 2.255 1.952v-25.09c6.6.73 10.983 3.72 13.69 7.41.484.33.922.712 1.37 1.093 1.724 1.51 3.087 3.24 4.07 5.08 1.417-.8 2.81-2.27 2.675-5.09-.03-.575-.24-1.318-.982-2.347-.904-1.237-2.62-2.942-5.76-5.352-1.554-1.18-3.45-2.53-5.774-4.075-.543-.36-1.048-.74-1.553-1.12-5.76-4.48-8.99-10.644-9.314-17.988-.01-.285-.02-.57-.02-.876 0-5.717 2.496-11.65 7.08-15.224-10.84-18.51-27.42-33.895-48.614-43.107-51.66-22.49-111.543-.116-136.092 49.964 5.61-.326 10.384-.345 13.365-.345 21.454-.03 35.753-5.373 35.97-15.92l5.937 1.945c.01.648-.02 1.267-.04 1.886l3.164 1.05c-.43 29.678-38.6 35.66-52.435 36.298m155.33-57.682c.134-.104.306-.085.41.02.934.82 1.85 1.648 2.735 2.495l.095.16c.084.304.14.61.2.933.37.056.74.113 1.132.17l.16.067c2.47 2.1 6.24 5.756 6.26 10.424 0 .736-.096 1.508-.315 2.3-.038.15-.18.24-.324.24h-.05c-.97-.123-1.97-.275-2.95-.4-.106-.01-.19-.056-.248-.133-.05-.084-.068-.18-.05-.284.134-.486.25-1.163.25-1.97 0-2.21-.896-5.547-5.154-9.357-.483-.11-.99-.247-1.57-.39-.085-.028-.17-.076-.2-.16-.05-.078-.066-.18-.04-.26.07-.226.127-.55.127-.96 0-.61-.134-1.44-.58-2.476-.068-.15-.01-.31.113-.41m-8.44-4.502c.01-.095.054-.2.12-.26.096-.064.19-.093.296-.064.926.22 1.18.16 2.164.41.117.036.21.132.24.265.325 1.646.716 4.2.716 6.685v.363c0 .048-.048.067-.048.105.95.25 1.855.477 1.855.477l.163.103c.027.03 3.23 3.01 3.23 8.377 0 1.02-.116 2.145-.4 3.336-.04.174-.183.288-.354.288h-.06l-3.86-.58c-.094-.01-.2-.07-.246-.174-.058-.075-.077-.19-.048-.284.283-1.098.635-2.517.635-4.118-.01-2.258-.675-4.84-3.247-7.346-.01 0-.01 0-.02-.01-.01-.03-.124 0-.17-.296 0-.01.01-.01.01-.02-.43-.104-.87-.18-1.41-.323-.174-.046-.278-.21-.26-.38.24-1.295.57-3.47.687-6.55m-9.153-2.45c.008-.097.056-.19.13-.26.078-.047.18-.075.288-.047.903.19 1.43.143 2.42.39.12.03.22.144.245.258.058.29.068.566.068.88 0 1.79-.74 4.068-.77 6.21 0 0-.02.01-.03.03.79.105 1.19.14 2.64.315.118.01.24.083.29.22.02.016 1.983 4.522 1.983 9.466 0 1.106-.103 2.26-.37 3.383-.02.162-.17.286-.342.286-.01 0-.045 0-.055-.01l-3.23-.468c-.17-.028-.304-.16-.314-.333-.22-2.44.478-7.115-2.123-12.48-.058-.103-.04-.246.037-.36-.85-.17-1.6-.285-2.62-.543-.17-.047-.286-.21-.25-.39.287-1.458 1.896-3.544 2.01-6.545m-4.9 5.973c.737 2.183 1.4 5.346 1.4 8.642 0 1.25-.082 2.506-.3 3.735-.05.19-.19.313-.36.313-.02 0-.04-.01-.07-.01-1.29-.2-2.375-.4-3.62-.57-.19-.03-.336-.2-.317-.39 0 0 .057-.906.057-2.326 0-2.44-.18-6.43-1.123-9.73-.03-.115 0-.25.08-.344.076-.086.2-.133.324-.124 1.49.193 2.175.364 3.64.545.145.03.26.128.297.26m-8.604-1.693c.943-1.665 2.124-4.85 3.887-6.552l.305-.082 2.65.42c.104.02.19.067.237.17.068.08.087.19.058.287-.844 2.784-1.13 3.23-2.7 6.62-.057.136-.19.22-.334.22-.01 0-.02 0-.04-.01-1.497-.19-2.288-.35-3.77-.512-.138-.01-.23-.077-.29-.2-.07-.106-.07-.23 0-.353m-6.66-8.64l.24-.068c1.064.12 2.093.26 3.16.4.143.023.24.12.286.252.028.115-.02.27-.124.344-1.517 1.16-2.774 2.36-4.25 5.97-.02.04-.06.06-.067.077 1.02.17 2 .4 3.03.55.132.01.247.105.285.24.672 2.37 1.75 6.38 1.75 10.2 0 .906-.06 1.78-.2 2.66-.01.085-.06.16-.135.218-.058.038-.125.048-.19.048h-.068c-1.116-.18-2.25-.38-3.345-.552-.154-.02-.278-.14-.288-.294-.17-2.325-.674-7.593-1.96-12.795-.02-.084 0-.17.048-.24-1.04-.15-2.094-.273-3.123-.39-.105-.02-.2-.074-.257-.18-.05-.084-.06-.22-.01-.303.857-1.744 2.457-4.22 5.21-6.145m-11.165-1.99l.19-.04c.83.05 1.68.106 2.5.163.15.01.263.113.31.266.04.125-.02.277-.132.344-1.477 1.02-3.554 2.943-4.392 6.03-.01.02-.03.03-.03.05 1.005.106 1.938.3 2.948.39.173.01.287.145.306.31l1.088 11.83c0 .094-.04.19-.114.256-.06.075-.143.104-.23.104h-.037c-.895-.13-1.77-.255-2.686-.35-.124-.01-.23-.105-.277-.23-.857-2.62-1.667-7.22-2.04-12.04-.01-.04.03-.066.04-.105-.962-.08-1.925-.137-2.86-.17-.103-.01-.2-.06-.255-.157-.07-.076-.088-.18-.06-.276.39-1.543 1.67-4.096 5.735-6.373m-11.734-.65l.19-.038c.84.04 1.69.116 2.51.173.15.01.266.114.304.238.04.144-.01.296-.135.38-1.41.974-3.344 2.784-4.25 5.61.81.078 1.63.126 2.457.2.154.02.28.145.306.297l1.58 12.56c.01.105-.04.2-.097.286-.077.07-.163.09-.24.09h-.05c-.883-.106-1.77-.24-2.674-.354-.13-.01-.24-.082-.28-.22-.83-2.54-2.3-7.54-2.71-12.274-.78-.05-1.57-.087-2.35-.135-.085-.01-.19-.067-.237-.134-.067-.085-.077-.2-.057-.294.38-1.535 1.665-4.088 5.723-6.375m3.553 24.974c2.82 0 5.355 1.19 7.165 3.095 3.64 1.466 6.23 5.05 6.23 9.2 0 5.46-4.44 9.87-9.887 9.83-2.77-.01-5.28-1.18-7.08-3.04-3.674-1.44-6.304-5.01-6.304-9.2 0-5.45 4.43-9.89 9.88-9.89m-15.14-25.48l.16-.037 2.22.03c.144 0 .27.076.325.22.047.133.01.266-.105.37-1.4 1.278-3.156 3.307-3.97 5.946.69.01 1.38.01 2.09.03.18.01.334.15.334.33.05 2.302.326 7.04 1.66 11.83.03.113.01.21-.065.303-.06.087-.155.115-.27.115h-.02c-.827-.078-1.694-.144-2.55-.22-.116-.01-.22-.077-.277-.19-1.357-2.907-2.81-7.08-2.94-11.728h-1.6c-.106 0-.2-.036-.27-.13-.064-.087-.093-.18-.045-.287.476-1.725 1.772-4.735 5.315-6.583m-11.803.41l.162-.067c.75-.075 1.51-.123 2.273-.18.14-.01.274.067.33.21.066.123.03.276-.086.38-1.355 1.17-3.05 3.154-3.47 5.81.59-.046 1.19-.103 1.79-.15.095 0 .21.037.267.133.086.077.115.19.086.286-.18.8-.37 1.918-.37 3.44 0 1.746.245 4.08 1.01 7.12.025.104 0 .2-.07.295-.067.068-.15.134-.257.134h-.01c-.85-.02-1.99-.266-2.78-.276-.127 0-.25-.182-.308-.287-.933-1.953-1.714-4.39-1.714-7.41 0-.754.095-1.535.267-2.316-.494.04-.99.088-1.484.135h-.036c-.085 0-.17-.025-.23-.09-.074-.057-.112-.16-.103-.257.113-1.484.95-4.19 4.724-6.895m-12.06 1.37l.143-.08c1.01-.22 2.03-.44 3.058-.64.16-.03.313.068.38.2.057.16.01.334-.115.41-1.62 1.16-3.09 3.2-3.28 5.58.55-.093 1.102-.22 1.645-.293.134-.03.26.02.334.124.065.092.084.225.05.33-.46 1.02-.976 2.62-.976 4.706 0 1.297.325 2.783.858 4.43.03.106.01.21-.056.306-.05.078-.15.145-.258.145-.58.03-1.61-.05-2.2.01h-.02c-.124 0-.238-.076-.305-.17-.88-1.55-1.89-4.105-1.898-6.59 0-.57.084-1.134.256-1.677-.42.047-.81.124-1.085.18h-.073c-.086 0-.18-.02-.24-.085-.075-.08-.12-.18-.094-.307.22-1.322 1.05-4.275 3.87-6.58m-55.52 37.23c.07.126.06.26-.02.355l-1.31 1.82c-.068.095-.16.142-.277.142-.04 0-.076-.01-.114-.028-.095-.01-.97-.46-.952-2 0-.66.125-1.518.55-2.69l2.03-3.542c.088-.156.288-.22.45-.127.153.07.23.26.153.43.01 0-.86 1.96-.86 3.83 0 .66.11 1.298.357 1.81m5.74-4.904c.058.124.01.267-.085.37-.477.42-.944.897-1.42 1.355-.076.067-.15.096-.248.096h-.02c-.087 0-.19-.05-.24-.144-.637-.83-1.23-1.974-1.23-3.365 0-.06.116-1.394.116-1.394.067-.226.153-.484.305-.77l.05-.066c.2-.21.42-.42.64-.64.4-1.25 1.23-2.916 2.63-5.336.15-.163.28-.315.41-.45.1-.135.3-.164.443-.08.142.107.2.288.113.45-.7 1.41-1.57 2.944-1.674 4.67l-.107.227c-.065.06-.13.145-.2.19-.113.498-.2 1.04-.2 1.718 0 .905.27 1.98.716 3.162m6.756-5.105c.055.15.01.32-.107.415-.516.467-1.38.896-1.917 1.39-.07.087-.16.125-.26.125-.01 0-.02-.01-.028-.01-.105 0-.21-.064-.277-.14-.706-.952-1.37-1.98-1.37-3.534 0-.06 0-.17.007-.29l.146-1.243c.074-.255.17-.54.33-.846l.06-.077c.258-.296.56-.573.84-.88.466-1.322 1.37-3.04 2.857-5.62.162-.19.324-.35.457-.503.124-.15.343-.19.505-.075.142.114.21.314.123.486-.8 1.58-1.746 3.136-1.84 5.06l-.13.248c-.1.105-.21.22-.33.333-.114.503-.2 1.075-.2 1.78 0 1.01.61 2.075 1.124 3.39m6.61-10.785c.114-.095.285-.095.41-.01.123.077.19.22.17.372-.066.476-.114 1.03-.114 1.64 0 1.39-.067 2.694.857 4.313.05.086.067.172.02.286-.02.084-.077.18-.16.23-.67.37-1.327.79-2.07 1.14-.066.027-.143.047-.2.047-.095 0-.2-.01-.257-.084-.875-1.22-1.475-2.294-1.61-4.075-.02-.26-.085-.524-.056-.79-.05.046-.306.208-.4.208-.058 0-.134-.01-.2-.056-.135-.084-.2-.256-.144-.41.477-1.685 1.687-4.714 4.64-8.16l.048-.07c.27-.2.517-.41.79-.61.156-.092.366-.073.49.06.123.126.133.336.03.48-1.317 1.63-2.746 3.885-3.21 6.18.34-.265.6-.427.97-.685m11.117-9.545c-1.454 1.46-2.445 3.326-2.92 5.374.59-.276.74-.305 1.21-.515.13-.05.274-.01.38.085.094.107.123.26.056.38-.36.718-.57 1.82-.57 3.31 0 1.1.24 2.394.936 3.937.04.076.04.19 0 .267-.037.105-.123.152-.21.19-.79.248-1.437.515-2.2.782-.037 0-.085.01-.113.01-.105 0-.2-.04-.267-.135-.88-1.12-1.783-2.85-1.783-5.063 0-.336.02-.66.068-1-.054.026-.12.055-.19.074-.04.02-.083.04-.14.04-.067 0-.153-.03-.21-.078-.105-.082-.143-.22-.114-.36.37-1.39 1.295-4.133 3.782-6.87l.092-.092c.61-.286 1.2-.58 1.81-.867.144-.09.325-.03.43.09.085.144.076.335-.04.45m8.53-2.99c-1.336 1.134-1.99 3.2-2.336 5.355.553-.124 1.087-.24 1.487-.353.134-.03.258 0 .35.098.09.087.118.2.07.335-.313 1.01-.866 2.486-.866 4.268 0 1.13.21 2.02.84 3.32.048.105.048.21 0 .306-.047.085-.143.16-.247.17-.753.125-1.515.363-2.25.515h-.065c-.097 0-.2-.04-.27-.132-.874-1.185-1.903-2.805-1.903-5.03 0-.63.132-1.318.323-2-.22.043-.41.1-.545.14-.03.02-.07.02-.1.02-.095 0-.152-.02-.22-.088-.084-.058-.132-.18-.123-.287.134-1.298.677-4.05 3.01-6.337l.125-.074c.78-.277 1.58-.544 2.4-.79.154-.06.316.017.4.14.068.143.04.324-.084.43m6.97 3.104c.514-.085 1.133-.19 1.648-.285.124-.01.23.025.305.1.076.11.085.22.04.33-.41.942-.887 2.41-.887 4.315 0 1.19.19 2.56.675 4.065.03.098.01.19-.046.27-.048.085-.134.123-.23.132-.532.03-1.628.17-2.17.22h-.03c-.104 0-.21-.05-.257-.145-.82-1.44-1.494-3.994-1.494-6.26 0-.668.116-1.325.38-1.935-.436.08-.855.136-1.13.19-.03 0-.06.01-.08.01-.073 0-.16-.02-.21-.073-.073-.078-.11-.174-.092-.278.2-1.22.963-3.924 3.554-6.05l.134-.056c.92-.2 1.845-.41 2.79-.59.16-.02.303.056.36.19.04.113.01.285-.114.36-1.543 1.134-3.096 3.134-3.143 5.487" fill="#FFF"/><path d="M173.178 314.558c-.4.143-2.43.905-5.278 1.99 10.813 16.348 26.293 29.876 45.612 38.278 53.138 23.14 114.993-1.19 138.132-54.357 3.65-8.37 6.106-16.96 7.47-25.58-5.727.51-12.186 1.1-14.596 1.35v-4.38c-.77.07-1.514.16-2.267.25v4.4c-6.29.59-18.34 2.26-24.95 3.24v-4.42c-1.51.23-2.9.44-4.1.62v-44.48c0-2.77-.39-5.02-1.122-6.73-.8-.24-1.61-.335-2.353-.36 0 6.152-.03 56.5-.03 56.5l-20.05 3.38v-4.353l-3.136.544v4.376l-6.88 1.38c-5.26.887-9.05.077-12.66-2.704-.943-.723-1.724-1.533-2.41-2.39-.56-.343-1.124-.696-1.686-1.124-5.585-4.26-6.223-11.608-6.223-16.77v-32.16c.03-1.715-.085-4.354-4.24-6.288v52.88c0 1.514.088 2.686.335 3.62.4.104.83.2 1.3.295v1.888c.877.755 2.18 1.2 4.097 1.58v5.586c-18.91 4.266-39.41 9.686-58.09 15.192-5.696 1.687-12.222.877-16.85-2.438-.74-.535-1.41-1.164-2.037-1.84-.723-.36-1.41-.76-2.057-1.22-4.64-3.305-7.25-9.47-7.23-16.823l.01-30.12c0-1.6-.145-3.465-4.72-5v56.49c0 .64.145 1.18.36 1.67.86.25 1.528.324 1.58.333v1.486c1.73 1.21 3.978 1.505 4.09 1.514v4.688zm19.29 26.588c-.066 0-.133-.02-.19-.048-1.972-1.22-2.982-2.42-2.99-2.43l-.115-.15s-1.03-2.612-.915-2.697c.124-.08.276-.08.39-.01l2.687 1.81.143.2c.01 0 .6 2.14 1.22 2.76.123.125.133.315.028.45-.057.085-.172.133-.257.133zm8.06 5.84l.01.01-.01-.01zm.705-.305c-.048 0-.124-.01-.18-.05-.21-.12-4.288-3.05-4.288-3.05-.42-.76-.867-2.17-.98-2.69-.03-.13.037-.27.142-.35.114-.072.247-.072.362-.01.13.08.22.157.35.24l.02.01c1.39.907 1.61.82 3.05 1.688l.15.23c.19.97.67 2.516 1.61 3.42.13.115.14.315.03.448-.07.087-.17.135-.27.135zm8.44 3.81c-.057 0-.124-.01-.18-.05-.153-.08-2.66-1.05-4.04-2.77l-.028-.05c-.43-.76-1.096-2.4-1.21-2.98v-.01c0-.123.066-.238.18-.295.096-.066.23-.057.334.01.11.076.24.16.34.238l.02.01c1.4.906 1.61.82 3.05 1.688l.15.23c.18.964.67 2.517 1.62 3.42.11.126.12.317.03.46-.08.076-.18.123-.28.123zm10.432 3.12c-.04 0-.067-.01-.105-.02-1.172-.42-2.325-.88-3.62-1.43-1.172-.97-2.325-2.36-2.972-4.18-.04-.12-.01-.263.104-.36.086-.084.24-.113.353-.06 1.048.47 2.105.918 3.144 1.328.1.038.18.133.2.247.17.8.81 2.2 3.1 3.877.14.104.17.285.09.438-.06.116-.17.17-.31.17zm10.078 1.17h-.066c-.467-.08-1.153-.14-1.81-.21-.01.04-.03.07-.03.12 0 .06.344.33.363.37.038.13.01.26-.067.35-.076.08-.152.117-.257.117-.028 0-.066 0-.095-.02-.52-.16-1.39-.314-1.94-.485l-.13-.07c-.54-.502-.88-1.21-.89-1.22-.08-.11-.08-.263-.01-.38.08-.112.21-.18.358-.15l.047.02c-1.097-.934-2.307-2.163-3.27-3.44-.085-.105-.094-.266-.02-.38.078-.115.21-.182.345-.163 1.086.2 2.153.36 3.21.496l.24.144c.694 1.056 2.123 2.923 4.22 4.295.122.075.19.247.122.41-.045.12-.17.208-.303.208zm13.318.36c-.19 0-.37-.01-.56-.01-.83 0-1.68-.01-2.52-.02-.05.1-.1.24-.1.42 0 .17.82.49.99.74.08.114.09.257.01.37-.06.106-.17.173-.28.173-.02 0-.04-.01-.046-.01-.533-.085-1.962-.275-2.514-.37l-.125-.06c-1.295-.826-2.05-1.703-2.06-1.722-.092-.093-.11-.245-.063-.38.058-.123.19-.2.344-.18l1.046.067c-1.56-.78-3.315-1.935-5.01-3.66-.105-.085-.134-.237-.086-.36.06-.135.19-.21.326-.21.427.01.866.01 1.304.01.72 0 1.453-.01 2.21-.04l.272.115c1.105 1.287 3.39 3.354 6.973 4.47.164.046.28.21.26.37-.04.17-.172.296-.353.296zm10.24 2.43c-.21 0-2.23-.01-3.05-.03l-.133-.02c-1.352-.65-2.79-1.954-2.99-3.05 0 0-.01-.028.01-.124.047-.133.16-.24.314-.24.484-.03.97-.075 1.446-.113-2.155-.695-4.43-2.01-6.975-4.134-.105-.086-.153-.23-.105-.363.047-.12.143-.207.276-.226 1.163-.152 2.335-.22 3.488-.45l.298.088c1.305 1.24 3.715 3.44 7.21 4.517.154.05.268.19.24.356-.01.16-.134.287-.296.306-.45.06-1.4.21-1.42.24-.097.16-.16.333-.16.533 0 .46.35 1.117 2.03 2.1.12.075.19.23.15.38-.048.142-.18.247-.325.247zm10.7-1.48c-.19 0-.61.114-.81.114-.81 0-1.28.22-2.12.2l-.14-.037c-1.343-.65-3.277-1.84-3.315-3.372 0 0-.02-.02.01-.122.04-.13.16-.235.315-.245.62-.03 1.22-.095 1.83-.143-2.24-.67-5.05-2.107-7.757-4.384-.125-.083-.173-.23-.125-.36.037-.113.15-.22.285-.24 1.133-.14 2.315-.435 3.477-.664l.305.088c1.297 1.24 4.02 3.774 7.547 4.84.132.05.24.2.23.354-.01.16-.136.294-.298.313l-1.304.14c.02.096-.19.61-.19.81 0 .458.57 1.115 2.246 2.087.133.073.19.235.152.38-.04.15-.18.25-.334.25zm12.35-2.26c-1.04.087-2.312.38-3.34.44l-.134-.01c-1.743-.553-4.086-1.65-4.982-3.87-.026-.104-.026-.21.02-.294.05-.105.154-.162.25-.172.324-.034.63-.1.934-.19-1.942-.644-4.552-1.97-7.8-4.54-.115-.086-.153-.21-.134-.343.03-.125.142-.23.256-.25.902-.2 2.274-.74 3.25-1.01.1-.037.234 0 .32.087 1.495 1.584 4.572 4.25 8.935 5.12.152.027.276.17.276.322 0 .17-.123.304-.285.342-.57.108-1.37.36-2.123.556.334.95 1.725 2.14 4.64 3.16.17.047.248.2.228.36-.02.164-.14.287-.302.297zm13.13-3.58c-.934.285-1.867.55-2.8.8h-.153c-2.324-.544-6.125-1.715-6.753-4.583-.05-.17.047-.333.22-.39.18-.06.37-.124.56-.19-2.552-.563-5.65-1.66-9.26-4.412-.094-.065-.142-.19-.132-.304.02-.116.09-.22.19-.28 1.03-.473 2.46-.873 3.357-1.36.125-.066.28-.05.37.04 1.91 1.53 4.92 3.56 10.87 4.33.165.02.28.145.3.29.02.15-.06.3-.2.36-.63.275-1.536.713-2.39 1.094.13.99 1.016 2.685 5.82 3.943.13.04.245.17.245.325s-.106.288-.24.336zm12.27-5.46c-.896.286-2.47 1.134-3.44 1.39h-.17c-2.316-.563-7.612-1.935-8.29-4.83-.027-.16.068-.334.24-.39.16-.06.35-.125.543-.21-2.327-.544-4.88-1.58-8.44-4.307-.1-.066-.146-.18-.136-.295.01-.123.095-.22.2-.266.96-.474 2.477-1.23 3.44-1.74.113-.07.256-.05.36.037 1.954 1.582 4.04 3.85 9.994 4.61.144.02.258.144.287.296.02.145-.06.298-.2.355-.48.21-1.355.64-2.02.934.38 1.055 3 2.6 7.61 3.77.143.037.257.17.257.32.01.155-.095.288-.24.326zm9.62-6.18l-.21.007c-1.714-.495-6.563-1.79-8.1-4.744-.493.27-1 .517-1.4.698l-.15.02c-3.144-.19-5.26-1.36-9.24-4.23-.096-.066-.153-.16-.153-.266-.01-.067.02-.144.066-.21.115-.143 2.706-1.505 3.62-2.02.124-.066.277-.047.37.05 1.68 1.427 2.84 2.903 8.528 4.2.897-.46 1.58-1.06 2.307-1.41.103-.05.236-.04.34.03.096.074.153.19.143.31-.067.878 2.04 3.38 7.47 4.79h.01c.18.05.284.23.236.41-.047.18-2.99 1.99-3.84 2.366zm13.748-9.624c-.01.03-.03.058-.056.087l-.01.02-.01.01v.01l-.017.01v.01h-.01c-.08.056-2.107 1.485-2.955 2.066l-.285.03c-1.965-.687-5.29-1.973-7.167-4.488-.333.23-.914.57-1.2.754l-.2.046c-2.896-.19-4.258-.486-9.02-3.944-.097-.067-.154-.172-.144-.286 0-.116.06-.22.154-.278.962-.58 2.19-1.75 3.182-2.39.113-.074.247-.074.36-.01 2.687 1.546 2.964 3.1 8.784 4.01.153.02 1.734-1.302 1.905-1.36.162-.066.43.01.44.2.122 1.59.532 3.19 6.04 5.06.01 0 .02.01.03.02.16.065.235.256.19.41-.01.01-.01.01-.01.02zm9.565-9.24c-.63.668-2.123 2.068-2.695 2.65-.076.066-.16.104-.238.104-.058 0-.106-.01-.153-.03-.78-.24-4.667.103-7.192-2.698-.37.276-.72.55-1.083.828l-.26.07c-2.773-.504-3.89-1.276-8.117-4.134-.096-.066-.143-.17-.153-.266 0-.116.047-.22.133-.287 1.115-.894 2.21-1.77 3.287-2.665.104-.084.256-.094.37-.027 2.667 1.457 2.8 3.17 7.81 4.24.116.028.8-.706.8-.715l.028-.084c.03-.046.07-.084.115-.112.02-.01.06-.02.08-.03.13-.054.303 0 .39.146 1.542 2.61 6.66 2.46 6.66 2.46.14.02.254.094.292.22.04.122.02.246-.077.34zm8.3-8.344c-.59.62-1.87 2.17-2.48 2.79-.076.068-.162.106-.26.106-.034 0-.082-.01-.13-.036-.725 0-2.8-.27-5.164-2.336-.373.284-1.058.666-1.42.95l-.267.068c-2.82-.522-5.21-2.04-9.46-4.904-.097-.068-.154-.173-.154-.277-.01-.105.04-.2.124-.28 1.117-.883 2.22-1.77 3.29-2.654.104-.096.25-.105.37-.04 2.61 1.43 4.124 3.02 8.677 4.64.354-.295.725-.58 1.068-.857.078-.066.174-.095.27-.076.093.03.15.097.236.155 1.43 1.13 4.56 1.882 5.37 1.95.076.01.105.152.114.25.01.083-.114.483-.19.55zm6.63-29.465c.675-.77 1.314-1.523 1.95-2.257.086-.105.238-.143.35-.095 2.507 1 1.41.6 4 .918.04 0 .07.01.088.01.058.028.106.057.154.105 0 0 0 .01.004.01.04.057.058.143.058.23 0 .027-.02.046-.035.075-.294.895-.61 1.81-.97 2.733-.047.122-.17.19-.295.19h-.05c-2.58-.44-2.65-.278-5.164-1.43-.085-.048-.152-.115-.17-.22-.02-.095.01-.19.076-.266zm-5.29 8.88c.848-.6 1.02-1.477 1.98-2.24.097-.085.24-.104.354-.037 2.82 1.42 3.286 1.78 6.087 2.353.087.02.173.083.24.17.037.085.037.19.01.285-.41.99-.88 1.98-1.354 2.99-.05.126-.18.193-.306.193-.025 0-.054 0-.082-.01-2.935-.733-4.144-1.58-6.888-3.134-.1-.054-.168-.16-.17-.273-.01-.12.03-.22.13-.3zm.17 9.67c.41-.42.84-.83 1.287-1.28.133-.123.304-.075.476-.01 1.18.43 2.83.954 3.162 1.44.077.124.105.276.02.41-.41.647-1.048 1.82-1.42 2.41-.076.095-.17.15-.295.15-.047 0-.085-.01-.133-.036-1.02-.47-2.38-.84-3.285-1.317-.58.44-1.18.88-1.77 1.41-.05.07-.14.098-.21.098-.04 0-.62-.124-.64-.134-3.452-.875-5.05-1.37-8.26-3.19-.08-.057-.16-.162-.17-.276-.01-.116.05-.23.14-.297 1.087-.8 2.106-1.6 3.097-2.36.105-.086.247-.095.362-.04 2.81 1.417 4.885 2.34 7.65 3.02zM180.2 316.1c20.395-8.087 97.853-30.16 157.964-35.922v3.743c1.382-.13 2.744-.25 4.087-.38v10.81c-39.78 4.37-94.14 19.99-115.93 43.99l-3.78-2.85c-2.6-1.95-5.25-3.66-7.9-5.16-13.31-7.554-26.642-9.65-34.43-9.46v-4.76z" fill="#FFF"/><path d="M200.528 346.986l.01.01-.01-.01" fill="#C12344"/><path d="M261.8 209.635c1.125.43 2.326.677 3.574.677 5.458 0 9.888-4.43 9.888-9.88 0-2.63-1.03-5.02-2.715-6.792-1.82-1.905-4.344-3.086-7.173-3.086-5.44 0-9.87 4.43-9.87 9.88 0 4.18 2.63 7.763 6.297 9.2m3.58-15.203c3.33 0 6 2.69 6 6.01s-2.67 5.99-6 5.99c-3.29 0-5.99-2.67-5.99-5.99s2.7-6 5.99-6" fill="#1A2544"/><path d="M196.984 288.19c.98.19 2.048.2 3.096.123 0-5.66.01-43.278.01-43.45 0-1.524-.39-3.724-4.05-5.268v43.174c0 2.23.325 4.04.944 5.42" fill="#FFF"/><path d="M281.264 275.586c.362.095.733.18 1.143.267v1.78c.733.773 1.762 1.268 3.134 1.62v-53.91c.02-1.752-.03-4.58-4.72-6.448v52.937c0 1.534.15 2.754.45 3.754" fill="#FFF"/><path d="M225.173 280.435c.97.18 2.02.2 3.038.124v-43.24c0-1.55-.39-3.76-3.95-5.49v43.1c0 2.276.32 4.086.92 5.487" fill="#FFF"/><path d="M250.694 223.344c-.734.17-1.534.362-2.4.57v50.32c0 4.62.875 6.134 4.448 7.05-.257-.935-.343-2.107-.343-3.62V224.78c-.52-.23-1.07-.457-1.71-.676v-.762" fill="#AAB1B1"/><path d="M195.946 302.67c-4.906 1.476-10.422 1.104-14.814-1.134.63.685 1.306 1.314 2.05 1.838 4.628 3.325 11.163 4.125 16.85 2.448 18.69-5.515 39.192-10.926 58.102-15.204v-5.582c-1.925-.372-3.22-.83-4.106-1.58v3.704c-18.9 4.373-39.41 9.898-58.082 15.51" fill="#AAB1B1"/><path d="M222.743 279.425c.677.514 1.515.838 2.42 1.01-.59-1.39-.905-3.22-.905-5.478V231.85c-.495-.247-1.057-.476-1.696-.704v-.905c-.733.19-1.533.41-2.4.64v40.79c0 3.83.867 6.44 2.58 7.76" fill="#AAB1B1"/><path d="M194.46 287.15c.714.534 1.58.858 2.524 1.04-.62-1.373-.943-3.183-.943-5.43v-43.165c-.5-.21-1.05-.41-1.69-.59v-.934c-.73.22-1.53.47-2.4.73v40.85c0 3.69.85 6.21 2.52 7.51" fill="#AAB1B1"/><path d="M281.264 275.586c-.305-1-.448-2.22-.448-3.754v-52.937c-.505-.19-1.067-.4-1.696-.58v-.983l-2.4.467v50.43c0 4.57 1.22 6.47 4.544 7.35" fill="#AAB1B1"/><path d="M285.54 279.253c-1.37-.342-2.39-.838-3.133-1.62v3.564l-6.897 1.43c-4.44.77-7.82.313-10.965-1.506.686.86 1.467 1.67 2.41 2.4 3.61 2.78 7.402 3.59 12.66 2.71l6.878-1.38v-4.37l-.952.17v-1.38" fill="#AAB1B1"/><path d="M167.9 316.54c2.858-1.077 4.887-1.84 5.287-1.992v-4.677c-.133 0-2.372-.3-4.096-1.51v3.2c-7.13 2.58-19.35 7.21-27.51 10.72v4.66c2.27-1.06 10.41-4.26 17.88-7.14 1.43-.54 2.84-1.082 4.18-1.6 1.55-.59 2.99-1.14 4.27-1.65" fill="#AAB1B1"/><path d="M378.365 238.795c3.63 4.46 4.382 8.28 4.382 12.785 0 8.078-6 17.433-15.213 18.128-6.497.515-15.09 1.315-23.016 2.153 0 2.17-.01 3.77-.01 4.4 2.42-.26 8.88-.84 14.605-1.36 1.42-.12 2.8-.24 4.067-.36 1.84-.16 3.42-.29 4.516-.41.952-.06 1.543-.12 1.63-.12 9.944-.94 16.956-10.144 16.956-18.23 0-5.84-.934-10.518-7.917-16.968" fill="#AAB1B1"/><path d="M368.81 225.096c2.6 3.687 6.926 6.755 13.842 7.85 0-5.592-.01-25.807 0-28.284-1.295.067-2.686.143-4.096.23-.01 6.934-.01 19.642 0 23.89-4.087-.628-7.278-1.952-9.746-3.686" fill="#AAB1B1"/><path d="M361.694 214.055c-2.858.905-2.4 5.335-2.38 5.554.084 1.83.78 4.31 5.257 7.6-.2-.32-.36-.61-.5-.92 0-.01 0-.01-.01-.02-.2-.66-.38-1.35-.59-2.02-.02-.21-.05-.4-.05-.6-.01-.15-.22-2.22.548-3.83-1.115-1.86-1.83-3.83-2.26-5.77" fill="#AAB1B1"/><path d="M354.102 251.34c1.63 2.22 2.648 4.68 3.172 7.05.553-.142 1.42-.39 2.286-.876-.98-1.83-2.353-3.572-4.086-5.077-.44-.38-.877-.762-1.372-1.096" fill="#AAB1B1"/><path d="M167.148 248.38c-.315-.106-.667-.23-1.03-.335v-5.506c.325-.09.668-.22 1.03-.34v-5c13.842-.64 52.013-6.62 52.433-36.3l-3.15-1.05c-1.04 28.54-39.83 32.89-53.37 33.59v68.44c0 2.87 2.67 4.13 4.46 4.65-.22-.5-.36-1.04-.36-1.67v-56.49" fill="#AAB1B1"/><path d="M142.8 240.224c0-1.476 0-2.915-.01-4.277-9.08 1.38-18.082 4.534-18.09 9.755v.028c0 4.182 3.6 5.935 5.19 6.326-.647-.924-1.095-2.096-1.095-3.573v-.028c.01-4.516 5.63-7.01 14.004-8.23" fill="#AAB1B1"/><path d="M130.29 256.18c-.962.41-3.81 1.153-5.887 1.134-2.115-.01-3.953-.4-5.563-1.057 2.248 2.277 5.43 3.763 9.65 3.81 2.077.03 4.925-.695 5.897-1.095v-4.05c-.79-.104-2.725-.78-4.097-2.36v3.62" fill="#AAB1B1"/><path d="M265.374 210.312c-1.248 0-2.45-.248-3.573-.677 1.82 1.858 4.32 3.02 7.09 3.04 5.45.028 9.89-4.383 9.89-9.832 0-4.154-2.59-7.726-6.23-9.203 1.69 1.763 2.72 4.154 2.72 6.783 0 5.45-4.43 9.89-9.89 9.89" fill="#AAB1B1"/><path d="M222.543 335.468l3.782 2.858c21.777-23.997 76.144-39.62 115.936-43.992V283.54c-1.35.115-2.72.248-4.09.39v7.05c-39.79 4.592-93.85 20.377-115.62 44.488" fill="#AAB1B1"/><path d="M338.164 267.06v5.525c-5.154.505-14.146 1.762-20.872 2.753v4.42c6.62-.98 18.662-2.657 24.97-3.248v-4.41c-.62.075-1.25.142-1.84.21v-3.307c-1.096-.638-1.81-1.286-2.258-1.943" fill="#AAB1B1"/><path d="M333.258 259.582c-.028 1.962-.057 3.99 3.868 5.935l.41.21c-.2-.763-.19-1.506-.182-2.24l.01-33.037c0-4.696-1.067-11.203-6.25-15.51-.466-.37-.96-.732-1.476-1.085 2.934 4 3.63 8.936 3.62 12.7v33.027" fill="#AAB1B1"/><path d="M305.622 220.648c0 6.144-.028 56.48-.028 56.48l-15.966 2.783v4.36l20.053-3.37s.03-50.34.03-56.49c.75.02 1.56.12 2.36.34-.48-1.12-1.15-2.04-1.97-2.69-1.36-1.064-3.04-1.37-4.46-1.4" fill="#AAB1B1"/><path d="M248.302 274.233v-54.72c-6.134 1.45-19.633 4.774-25.74 6.355v5.287c.64.22 1.2.448 1.696.686 3.563 1.74 3.963 3.95 3.963 5.49 0 .19-.01 37.59-.01 43.23-1.02.08-2.07.06-3.04-.12-.9-.18-1.74-.49-2.42-1-1.71-1.32-2.58-3.93-2.58-7.75V226.5c-5.68 1.543-20.25 5.62-25.82 7.24v5.258c.63.19 1.19.39 1.7.6 3.66 1.553 4.05 3.744 4.05 5.278 0 .162-.01 37.78-.01 43.44-1.05.086-2.11.067-3.09-.124-.944-.172-1.82-.496-2.516-1.03-1.676-1.305-2.524-3.82-2.524-7.535v-45.202c-5.5 1.695-18.61 5.782-24.79 7.783-.37.114-.716.247-1.03.333v5.51c.36.11.704.23 1.03.33 4.57 1.536 4.714 3.41 4.714 5.02l-.02 30.106c-.02 7.374 2.6 13.538 7.24 16.834.64.465 1.325.856 2.04 1.21 4.38 2.247 9.907 2.61 14.813 1.132 18.67-5.614 39.18-11.14 58.09-15.51v-5.584c-.476-.095-.905-.19-1.295-.295-3.572-.912-4.44-2.43-4.44-7.05m-53.5 24.72c-4.8 1.32-9.753.89-13.45-1.78-3.6-2.59-5.63-7.59-5.6-13.68v-28.95c-.038-2 .667-6.82-5.99-9.095 5.24-1.724 11.372-3.68 18.3-5.772v39.954c0 16.938 15.736 11.975 15.91 11.965v-45.57c-.03-2.01.664-6.81-5.986-9.31 5.708-1.673 11.824-3.39 18.29-5.14v40.106c0 17.195 15.644 12.165 15.825 12.146v-45.32c-.02-2.01.677-6.82-6.04-9.517 5.878-1.545 12.01-3.07 18.358-4.564v49.803c0 4.162.59 8.84 5.78 9.88-20.08 4.637-38.734 9.724-55.395 14.84" fill="#1A2544"/><path d="M275.51 282.626l6.897-1.42v-5.363c-.41-.067-.78-.162-1.143-.257-3.335-.886-4.545-2.782-4.545-7.354v-54.834l-4.66.953c-6.05 1.23-12.23 2.56-18.34 3.93l-3.02.69v5.15c.63.22 1.18.45 1.68.68 4.16 1.933 4.27 4.562 4.25 6.277v32.17c0 5.155.64 12.51 6.22 16.768.56.43 1.12.78 1.69 1.125 3.123 1.82 6.514 2.276 10.954 1.505m-10.29-5.72c-3.428-2.62-4.705-7.095-4.705-13.68V231.7c-.028-2.01.677-6.744-5.935-9.63 5.937-1.334 12.025-2.65 18.255-3.915v50.08c0 4.115.59 8.735 5.63 9.85-1.22.238-2.42.476-3.62.714-4.114.71-6.84.23-9.62-1.89" fill="#1A2544"/><path d="M222.534 335.468c21.786-24.11 75.84-39.896 115.63-44.488v-10.793c-60.11 5.763-137.57 27.826-157.965 35.924v4.76c7.78-.19 21.12 1.89 34.42 9.45 2.66 1.51 5.3 3.2 7.9 5.16m-35.488-17.92c15.766-5.96 89.09-26.96 147.23-33.05v3.076c-40.66 5.25-90.777 20.474-112.287 42.87-17.157-11.517-32.037-13.25-34.943-12.89" fill="#1A2544"/><path d="M338.164 267.06v-1.03l-.63-.313-.4-.19c-3.933-1.954-3.895-3.992-3.876-5.955v-33.018c.02-3.773-.676-8.698-3.63-12.7-.723-.99-1.59-1.933-2.61-2.78-3.343-2.734-8.287-4.84-14.67-3.887l-11.25 1.78c-6.012 1.002-15.776 2.783-21.978 3.964v5.39c.63.18 1.19.38 1.696.58 4.687 1.87 4.744 4.7 4.725 6.45v55.29l.97-.17 3.13-.54 15.96-2.78s.038-50.34.038-56.5c1.44.03 3.116.35 4.48 1.41.82.66 1.47 1.56 1.963 2.71.74 1.706 1.113 3.944 1.113 6.726v44.468c1.22-.18 2.61-.38 4.115-.61 6.726-.99 15.71-2.246 20.87-2.76v-5.516zm-21.09 4.4v-39.98c0-16.367-11.918-15.138-15.338-14.33v56.72c-4.144.687-8.25 1.4-12.318 2.145v-50.042c-.03-2.01.676-6.735-5.992-9.908 6.002-1.143 12.108-2.23 18.31-3.267 3.63-.6 7.287-1.18 10.974-1.734 4.458-.676 9.06.734 11.84 3.01 3.955 3.258 4.84 8.555 4.82 12.47-.008 4.773 0 32.4 0 32.4.03 2.01-.656 6.744 6.04 10.06-6.162.742-12.278 1.57-18.337 2.457z" fill="#1A2544"/><path d="M244.416 274.224V224.43c-6.345 1.495-12.47 3.03-18.348 4.553 6.697 2.715 6.01 7.507 6.03 9.517v45.326c-.18.02-15.823 5.04-15.823-12.155v-40.1c-6.468 1.76-12.584 3.48-18.29 5.15 6.65 2.51 5.953 7.3 5.982 9.31v45.57c-.17.01-15.91 4.977-15.91-11.942V239.68c-6.925 2.095-13.05 4.048-18.3 5.773 6.65 2.276 5.964 7.097 5.993 9.107v28.94c-.03 6.088 2.01 11.09 5.61 13.68 3.688 2.658 8.65 3.087 13.443 1.782 16.66-5.117 35.323-10.204 55.405-14.843-5.192-1.04-5.792-5.73-5.792-9.89" fill="#C12344"/><path d="M278.463 278.072c-5.04-1.105-5.62-5.735-5.62-9.83v-50.09c-6.23 1.267-12.328 2.572-18.263 3.915 6.612 2.886 5.916 7.63 5.935 9.63v31.533c0 6.583 1.286 11.06 4.706 13.68 2.79 2.115 5.51 2.61 9.63 1.886 1.2-.238 2.41-.476 3.62-.724" fill="#C12344"/><path d="M342.718 221.362c.22 4.925 2.057 11.29 9.155 16.042 12.155 8.136 14.09 11.632 14.24 14.833.344 7.62-6.343 10.517-12.135 10.46-.133-2.725-.905-10.822-9.68-13.985.04 1.153-.066 17.68 0 19.3 8.165-.895 14.89-1.562 23.198-2.18 7.106-.782 11.936-8.432 11.327-15.377-.458-5.05-.886-9.383-15.586-19.424-6.2-4.23-7.65-8.04-7.81-11.24-.344-7.62 3.78-10.21 9.554-10.06.15 2.74.91 10.84 9.69 14.14-.05-1.13.07-17.33.02-19.24-7.55.45-12.99.85-20.4 1.47-8.02.81-11.87 8.76-11.56 15.27" fill="#C12344"/><path d="M120.812 245.73v-.047c.02-10.603 18.51-13.442 25.854-14.128 0 0 .03 76.068 0 75.925.02.01-.648 7.64-5.125 10.584 6.69-2.877 14.5-5.954 23.28-9.136-1.56-.048-5.65-1.64-5.65-7.03v-72.18c8.58-.135 50.08-2.154 53.26-27.628-2.45 8.63-17 13.71-37.85 13.747-14.51.02-60.12.438-60.12 26.607 0 2.82 1.02 10.936 9.977 10.984-1.6-1.21-3.61-4.097-3.61-7.698" fill="#C12344"/><path d="M265.374 206.425c3.324 0 6-2.677 6-5.992s-2.676-6.002-6-6.002c-3.296 0-5.992 2.69-5.992 6.01s2.696 5.99 5.992 5.99" fill="#C12344"/><path d="M334.287 287.57v-3.077c-58.15 6.106-131.482 27.083-147.23 33.056 2.897-.37 17.777 1.37 34.934 12.88 21.51-22.4 71.63-37.62 112.3-42.87" fill="#C12344"/><path d="M329.37 258.943s-.008-27.626 0-32.4c.02-3.914-.865-9.2-4.828-12.46-2.782-2.285-7.374-3.686-11.832-3.02-3.687.554-7.345 1.135-10.984 1.744-6.202 1.03-12.298 2.125-18.3 3.258 6.668 3.182 5.954 7.898 5.992 9.908v50.042c4.068-.744 8.174-1.458 12.308-2.144v-56.72c3.42-.8 15.347-2.02 15.347 14.33v39.98c6.05-.88 12.175-1.7 18.338-2.45-6.69-3.31-6.01-8.04-6.04-10.06" fill="#C12344"/><path d="M171.196 198.004c-.16-.077-.352-.03-.447.133l-2.03 3.553c-.41 1.172-.55 2.02-.55 2.668-.02 1.552.85 2 .94 2.02.04.01.08.018.12.018.1 0 .21-.047.273-.143l1.313-1.82c.066-.094.085-.228.03-.342-.27-.53-.364-1.16-.364-1.82-.008-1.86.86-3.82.85-3.82.075-.17.01-.36-.154-.44" fill="#C12344"/><path d="M176.284 194.107l.104-.228c.105-1.73.972-3.26 1.677-4.67.076-.16.03-.35-.114-.45-.14-.09-.33-.06-.44.07-.12.14-.26.28-.41.44-1.4 2.42-2.24 4.087-2.63 5.335-.21.22-.43.427-.63.637l-.05.066c-.15.285-.24.543-.302.77 0 0-.114 1.335-.114 1.392 0 1.39.59 2.532 1.23 3.36.057.095.143.143.248.143h.02c.085 0 .17-.03.238-.106.467-.448.95-.924 1.42-1.343.104-.108.14-.25.085-.375-.45-1.18-.718-2.258-.718-3.16 0-.68.085-1.21.2-1.717.066-.048.142-.134.2-.19" fill="#C12344"/><path d="M279.787 174.836c1.03.114 2.086.238 3.125.39-.048.067-.067.162-.048.238 1.286 5.202 1.79 10.47 1.962 12.794.01.153.134.276.286.295 1.096.172 2.23.372 3.344.553.02.02.038.02.067.02.066 0 .133-.02.19-.068.076-.057.124-.133.133-.22.143-.875.2-1.752.2-2.657 0-3.82-1.076-7.83-1.752-10.2-.038-.13-.153-.23-.286-.24-1.03-.15-2.01-.37-3.03-.55.01-.02.048-.05.067-.07 1.477-3.61 2.734-4.81 4.25-5.97.104-.07.15-.23.123-.34-.048-.132-.143-.25-.286-.255-1.067-.136-2.096-.28-3.163-.4l-.23.064c-2.77 1.924-4.37 4.4-5.22 6.144-.05.085-.04.22.02.305.04.1.14.16.24.18" fill="#C12344"/><path d="M222.84 173.826h.065c.286-.067.677-.134 1.105-.18-.17.542-.276 1.094-.276 1.666.01 2.496 1.03 5.05 1.905 6.602.05.095.18.17.29.17h.03c.59-.056 1.62.02 2.21-.008.09 0 .2-.067.26-.143.05-.096.06-.2.04-.305-.53-1.648-.84-3.144-.84-4.43 0-2.086.51-3.687.96-4.706.04-.105.02-.238-.05-.333-.09-.11-.2-.16-.34-.13-.55.07-1.107.2-1.65.29.19-2.38 1.66-4.42 3.27-5.59.143-.085.18-.247.124-.4-.076-.142-.22-.24-.37-.2-1.04.19-2.05.41-3.08.63l-.132.076c-2.83 2.306-3.66 5.26-3.88 6.583-.02.113.02.23.115.304.057.065.133.084.23.084" fill="#C12344"/><path d="M305.737 180.046c-.077.115-.086.248-.03.362 2.592 5.364 1.906 10.04 2.125 12.48.01.162.143.305.305.324l3.24.486h.056c.172 0 .315-.124.353-.296.248-1.105.352-2.257.352-3.382 0-4.944-1.953-9.44-1.972-9.46-.057-.133-.162-.218-.295-.228-1.43-.162-1.84-.21-2.62-.295 0-.02.02-.03.02-.038.03-2.14.77-4.43.78-6.23 0-.31-.02-.59-.07-.86-.02-.13-.113-.23-.24-.27-.99-.26-1.512-.2-2.43-.39-.092-.03-.21 0-.273.045-.086.06-.124.164-.133.25-.123 3-1.733 5.096-2.02 6.554-.03.17.077.343.258.38 1.02.27 1.773.382 2.61.553" fill="#C12344"/><path d="M322.827 183.37c-.03.077-.01.182.038.258.038.086.114.134.21.162.562.143 1.076.277 1.562.39 4.258 3.81 5.154 7.146 5.154 9.356 0 .81-.11 1.486-.24 1.972-.03.104 0 .19.05.285.06.077.15.124.24.134.99.124 1.98.276 2.96.39.02.01.03.01.05.01.14 0 .29-.086.33-.238.22-.8.314-1.57.314-2.3-.02-4.67-3.79-8.33-6.26-10.42l-.17-.07-1.134-.17c-.05-.33-.107-.62-.2-.94l-.088-.17c-.885-.847-1.8-1.676-2.724-2.486-.116-.113-.297-.13-.41-.028-.135.094-.18.256-.125.41.446 1.036.58 1.865.58 2.475 0 .41-.057.73-.124.96" fill="#C12344"/><path d="M206.882 170.968l-.114.076c-2.334 2.286-2.877 5.05-3 6.335-.03.11.028.21.113.29.06.05.14.06.21.06.03 0 .08 0 .11-.01.14-.05.32-.1.54-.14-.19.68-.31 1.36-.31 2 0 2.23 1.02 3.84 1.906 5.03.068.08.163.13.268.13h.068c.74-.14 1.505-.38 2.25-.51.093-.02.19-.085.245-.18.036-.096.036-.2 0-.305-.62-1.305-.84-2.19-.84-3.315 0-1.78.543-3.267.867-4.277.04-.117.01-.24-.074-.336-.093-.09-.22-.127-.34-.09-.4.115-.935.23-1.49.354.337-2.16.99-4.21 2.338-5.352.135-.105.154-.277.078-.42-.075-.142-.247-.21-.4-.16-.82.247-1.62.524-2.4.8" fill="#C12344"/><path d="M198.88 174.073l-.095.077c-2.496 2.743-3.41 5.496-3.782 6.887-.038.134 0 .267.114.353.057.047.133.076.21.076.047 0 .104-.01.152-.038.05-.03.11-.048.17-.076-.04.333-.07.676-.07.99 0 2.23.91 3.944 1.79 5.078.06.095.16.143.27.143.04 0 .06-.01.1-.02.76-.266 1.41-.533 2.21-.78.08-.03.16-.096.21-.182.03-.09.03-.19-.01-.27-.7-1.53-.93-2.85-.93-3.94 0-1.48.22-2.58.57-3.29.057-.122.04-.274-.057-.38-.105-.104-.257-.132-.38-.085-.478.2-.62.25-1.22.516.485-2.04 1.486-3.925 2.924-5.383.117-.114.136-.295.04-.43-.094-.133-.275-.18-.43-.114-.6.295-1.19.58-1.8.885" fill="#C12344"/><path d="M192.173 177.303c-.133-.134-.333-.153-.495-.048-.267.2-.524.42-.78.62l-.05.047c-2.952 3.45-4.162 6.487-4.648 8.164-.047.153.02.324.153.42.067.037.133.056.21.056.076 0 .342-.162.39-.2-.02.267.03.524.048.772.15 1.79.75 2.867 1.62 4.077.05.08.16.11.25.11.07 0 .14-.03.2-.06.75-.34 1.4-.76 2.07-1.14.1-.045.15-.13.18-.23s.02-.2-.03-.283c-.92-1.6-.853-2.915-.853-4.316 0-.6.058-1.152.115-1.64.03-.142-.037-.285-.17-.37-.124-.077-.286-.077-.41.02-.36.246-.61.42-.97.675.474-2.296 1.903-4.535 3.22-6.164.103-.154.093-.364-.03-.497" fill="#C12344"/><path d="M182.76 188.563l.125-.257c.105-1.915 1.04-3.477 1.84-5.06.085-.17.027-.37-.135-.485-.152-.09-.37-.06-.495.08-.133.16-.295.33-.457.51-1.496 2.58-2.39 4.31-2.85 5.64-.284.3-.58.57-.856.87l-.048.08c-.16.297-.257.59-.333.85l-.13 1.24c-.01.134-.01.23-.01.305 0 1.544.66 2.59 1.36 3.525.07.087.17.144.28.153h.03c.1 0 .19-.037.26-.103.53-.515 1.4-.934 1.92-1.4.127-.105.16-.267.108-.42-.514-1.314-1.134-2.39-1.134-3.4 0-.687.096-1.268.21-1.78.114-.107.23-.23.333-.326" fill="#C12344"/><path d="M268.136 173.006c.943.048 1.906.105 2.868.172-.02.038-.048.076-.048.124.372 4.8 1.19 9.402 2.048 12.022.038.124.153.22.276.23.905.103 1.8.237 2.677.35h.048c.086 0 .17-.027.23-.085.075-.08.113-.19.103-.28l-1.076-11.83c-.01-.16-.143-.3-.305-.31-1.01-.1-1.943-.28-2.953-.39.01-.01.03-.03.038-.05.848-3.08 2.906-4.99 4.382-6.01.124-.09.172-.23.143-.36-.048-.15-.162-.24-.314-.26-.83-.07-1.667-.13-2.506-.17l-.18.03c-4.068 2.288-5.355 4.83-5.736 6.384-.02.096 0 .2.05.286.07.076.15.124.26.133" fill="#C12344"/><path d="M256.41 172.36c.77.056 1.552.094 2.333.142.41 4.734 1.877 9.745 2.706 12.28.03.132.15.21.28.228.89.104 1.79.228 2.67.362h.04c.08 0 .17-.038.232-.115.076-.076.114-.18.095-.276l-1.58-12.55c-.03-.15-.145-.28-.307-.3-.82-.06-1.64-.11-2.45-.19.914-2.83 2.838-4.64 4.248-5.61.116-.08.17-.24.135-.38-.036-.13-.16-.23-.303-.232-.83-.067-1.666-.134-2.505-.172l-.19.04c-4.05 2.287-5.343 4.83-5.724 6.374-.03.094-.01.2.05.294.068.068.16.125.258.125" fill="#C12344"/><path d="M295.734 177.865c-.076.095-.105.22-.067.333.934 3.296 1.115 7.288 1.115 9.746 0 1.41-.057 2.305-.057 2.315-.01.18.124.35.314.38 1.24.17 2.33.37 3.63.57.01.01.03.01.05.01.17 0 .32-.13.35-.31.23-1.23.32-2.49.32-3.74 0-3.3-.68-6.47-1.41-8.65-.04-.138-.15-.22-.3-.24-1.466-.2-2.152-.375-3.64-.556-.122-.02-.246.03-.322.124" fill="#C12344"/><path d="M295.448 177.913h.038c.143 0 .277-.077.334-.21 1.572-3.382 1.857-3.84 2.705-6.61.03-.106.01-.21-.057-.306-.038-.086-.133-.143-.238-.162l-2.64-.43-.313.106c-1.763 1.7-2.944 4.88-3.887 6.56-.067.12-.067.25 0 .36.057.108.152.18.286.19 1.486.16 2.277.328 3.772.52" fill="#C12344"/><path d="M315.015 182.266s-.01.02-.01.03c.058.303.163.265.172.303.01 0 .01 0 .02.01 2.57 2.48 3.248 5.07 3.257 7.33 0 1.6-.352 3.03-.648 4.11-.02.09 0 .21.048.28.057.094.153.16.257.17l3.86.57c.02.01.04.01.06.01.16 0 .32-.124.35-.286.28-1.2.4-2.315.4-3.344-.01-5.35-3.21-8.343-3.24-8.37l-.16-.093s-.9-.23-1.85-.487c.01-.03.05-.055.05-.084v-.38c0-2.48-.4-5.03-.72-6.68-.02-.134-.11-.23-.24-.268-.97-.248-1.24-.19-2.16-.41-.09-.02-.2 0-.27.066-.075.056-.132.152-.132.257-.124 3.08-.46 5.26-.686 6.547-.03.173.085.344.247.38.562.145.99.24 1.41.326" fill="#C12344"/><path d="M245.235 172.073h1.6c.115 4.65 1.582 8.82 2.935 11.717.047.124.16.19.285.2.848.077 1.715.143 2.534.22h.03c.1 0 .19-.03.26-.115.07-.095.09-.19.06-.305-1.337-4.79-1.62-9.526-1.67-11.83 0-.182-.15-.335-.334-.335-.694-.02-1.39-.02-2.084-.028.82-2.64 2.562-4.668 3.982-5.945.102-.105.14-.238.083-.37-.044-.144-.17-.22-.31-.22-.746-.01-1.49-.03-2.22-.03l-.17.04c-3.53 1.847-4.83 4.857-5.32 6.582-.027.095-.008.2.06.295.065.08.16.12.265.12" fill="#C12344"/><path d="M234.042 172.74h.028c.496-.057.99-.105 1.486-.143-.162.78-.266 1.553-.266 2.315 0 3.02.79 5.458 1.724 7.402.057.124.17.295.305.295.79.01 1.92.25 2.77.26h.01c.1 0 .2-.05.26-.13.06-.09.08-.19.06-.3-.77-3.05-1.01-5.363-1.01-7.116 0-1.535.18-2.64.37-3.44.03-.096-.01-.22-.077-.286-.067-.087-.17-.135-.277-.135-.6.05-1.2.105-1.8.153.43-2.66 2.123-4.64 3.466-5.81.114-.11.153-.27.095-.385-.057-.15-.19-.22-.333-.21-.775.06-1.527.117-2.28.18l-.163.07c-3.77 2.708-4.62 5.404-4.72 6.9-.01.095.03.2.09.257.068.07.154.106.24.106" fill="#C12344"/><path d="M219.838 167.996c-.067-.134-.2-.21-.353-.18-.962.18-1.886.38-2.8.58l-.143.066c-2.59 2.125-3.344 4.83-3.554 6.04-.01.105.02.21.115.276.047.058.114.086.21.086.01 0 .037 0 .056-.01.28-.066.7-.123 1.14-.18-.27.6-.38 1.257-.38 1.914 0 2.277.67 4.84 1.49 6.26.05.094.14.152.26.152h.02c.54-.04 1.63-.19 2.17-.21.085-.01.18-.057.24-.143.045-.076.064-.18.035-.267-.486-1.514-.676-2.877-.676-4.067 0-1.906.467-3.382.876-4.316.06-.105.05-.228-.034-.314-.065-.095-.18-.134-.285-.114-.52.08-1.14.19-1.665.28.07-2.35 1.6-4.37 3.154-5.48.12-.09.15-.25.11-.38" fill="#C12344"/><path d="M217.218 349.11c-.02-.114-.105-.2-.21-.238-1.038-.4-2.086-.867-3.134-1.324-.123-.058-.266-.03-.37.057-.096.095-.135.228-.087.362.648 1.82 1.79 3.2 2.963 4.182 1.286.54 2.448 1 3.62 1.43.038.01.076.03.114.03.114 0 .238-.08.295-.19.07-.15.03-.33-.1-.43-2.28-1.68-2.93-3.09-3.1-3.89" fill="#C12344"/><path d="M208.3 346.49l-.16-.238c-1.44-.867-1.65-.762-3.05-1.686h-.018c-.105-.076-.23-.172-.343-.23-.1-.075-.24-.084-.33-.008-.13.047-.19.162-.19.276v.01c.12.59.78 2.238 1.21 2.99l.03.058c1.38 1.715 3.87 2.677 4.04 2.782.05.028.12.047.19.047.08 0 .19-.03.25-.13.1-.14.09-.32-.03-.45-.938-.89-1.43-2.45-1.61-3.41" fill="#C12344"/><path d="M199.87 342.68l-.152-.23c-1.457-.875-1.667-.78-3.058-1.685l-.028-.01c-.105-.085-.22-.17-.334-.238-.114-.066-.257-.066-.37.01-.106.076-.163.22-.135.352.115.51.562 1.93.982 2.69 0 0 4.067 2.91 4.286 3.05.06.03.13.05.18.05.11 0 .2-.04.27-.14.11-.122.11-.323-.02-.456-.93-.887-1.42-2.44-1.61-3.41" fill="#C12344"/><path d="M315.396 335.81h-.01c-5.44-1.41-7.525-3.914-7.458-4.77 0-.144-.057-.25-.153-.325-.105-.067-.228-.086-.343-.03-.714.354-1.41.944-2.296 1.4-5.706-1.275-6.868-2.77-8.526-4.2-.104-.076-.257-.095-.37-.038-.925.505-3.516 1.867-3.63 2.02-.048.066-.067.152-.067.2 0 .114.057.21.143.267 3.99 2.867 6.115 4.048 9.25 4.248l.162-.028c.39-.18.886-.438 1.39-.696 1.534 2.944 6.383 4.26 8.098 4.735h.21c.847-.372 3.79-2.19 3.838-2.372.048-.17-.057-.36-.238-.41" fill="#C12344"/><path d="M325.332 328.524c-5.506-1.877-5.906-3.468-6.05-5.06-.008-.19-.256-.266-.428-.208-.18.066-1.762 1.39-1.895 1.362-5.84-.905-6.11-2.458-8.81-4.01-.11-.058-.24-.058-.35.018-.99.64-2.23 1.81-3.18 2.39-.1.06-.15.163-.15.278-.01.114.04.22.13.285 4.76 3.45 6.12 3.75 9.03 3.93l.2-.05c.27-.17.86-.52 1.2-.75 1.87 2.52 5.21 3.81 7.16 4.49l.28-.03c.85-.58 2.877-2.01 2.944-2.07h.01c0-.01.01-.01.01-.01s.01-.01.02-.01v-.01c.01 0 .01-.01.01-.01s.01-.01.01-.02c.025-.03.044-.057.054-.086 0-.008.01-.008.01-.018.05-.164-.03-.345-.19-.41-.01-.01-.02-.02-.03-.02" fill="#C12344"/><path d="M236.623 349.996l-.267-.114c-.762.02-1.486.038-2.22.038-.437 0-.866 0-1.304-.02-.134 0-.267.086-.324.21-.048.134-.02.286.076.372 1.715 1.724 3.458 2.867 5.03 3.658l-1.057-.067c-.143-.02-.277.057-.334.18-.067.135-.038.287.057.382.01.02.762.896 2.058 1.724l.124.05c.552.08 1.98.28 2.515.36.01.01.028.01.047.01.115 0 .23-.06.296-.16.066-.12.057-.26-.01-.37-.18-.26-1-.58-1-.75-.01-.176.048-.328.114-.42.84.01 1.686.03 2.525.03.18 0 .37.01.56.01.16 0 .3-.14.33-.3.02-.17-.08-.327-.24-.37-3.59-1.12-5.87-3.196-6.99-4.47" fill="#C12344"/><path d="M294.543 340.355c.667-.295 1.543-.724 2.03-.933.133-.067.218-.21.19-.353-.02-.16-.143-.28-.286-.3-5.954-.77-8.03-3.03-9.984-4.61-.114-.09-.257-.11-.38-.04-.953.51-2.458 1.27-3.43 1.73-.105.05-.18.15-.2.27-.01.112.038.23.133.293 3.563 2.725 6.107 3.763 8.44 4.306-.19.077-.38.153-.552.21-.162.057-.257.22-.22.39.668 2.896 5.964 4.27 8.28 4.83l.17-.01c.972-.256 2.544-1.104 3.44-1.38.143-.048.238-.18.238-.324 0-.155-.105-.288-.257-.326-4.61-1.18-7.23-2.713-7.612-3.77" fill="#C12344"/><path d="M284.074 345.633c.848-.38 1.772-.82 2.4-1.105.134-.057.22-.2.2-.353-.028-.143-.142-.266-.295-.285-5.97-.772-8.98-2.81-10.87-4.335-.11-.095-.26-.114-.38-.048-.91.496-2.32.896-3.35 1.372-.11.05-.18.15-.2.27-.01.11.04.24.13.29 3.62 2.76 6.7 3.86 9.25 4.42-.18.052-.36.13-.55.19-.16.06-.26.22-.22.39.63 2.86 4.44 4.04 6.74 4.58h.16c.94-.26 1.864-.516 2.8-.8.14-.05.24-.18.24-.335 0-.15-.118-.284-.26-.32-4.78-1.26-5.68-2.954-5.81-3.945" fill="#C12344"/><path d="M262.363 353.36c0-.21.21-.716.18-.82.44-.048.878-.077 1.325-.134.153-.02.277-.162.286-.314.01-.162-.085-.305-.238-.353-3.515-1.07-6.25-3.61-7.535-4.84l-.31-.1c-1.16.24-2.32.53-3.46.67-.14.02-.25.11-.28.24-.05.14 0 .26.113.35 2.726 2.272 5.527 3.73 7.765 4.39-.607.05-1.21.112-1.827.15-.15.01-.273.095-.31.24-.03.094-.01.113-.01.113.03 1.543 1.97 2.734 3.316 3.382l.15.036c.83.02 1.307-.19 2.117-.19.19 0 .63-.124.81-.124.15 0 .283-.098.32-.24.04-.153-.01-.324-.152-.39-1.665-.98-2.246-1.62-2.24-2.087" fill="#C12344"/><path d="M251.884 354.835c0-.2.067-.37.153-.533.028-.038.97-.18 1.43-.238.15-.02.275-.153.294-.305.02-.17-.08-.31-.23-.37-3.51-1.07-5.91-3.27-7.21-4.52l-.3-.08c-1.15.22-2.33.294-3.483.44-.124.02-.24.102-.276.235-.04.136.01.27.114.364 2.527 2.127 4.81 3.44 6.975 4.137-.484.026-.96.084-1.455.112-.14 0-.264.1-.302.234-.02.096-.01.124-.02.124.2 1.086 1.65 2.39 3 3.05l.135.03c.82.02 2.85.03 3.05.03.15 0 .276-.11.323-.25.037-.15-.03-.316-.153-.39-1.68-.97-2.03-1.63-2.02-2.09" fill="#C12344"/><path d="M272.223 349.996c.743-.19 1.553-.457 2.124-.562.162-.03.277-.172.277-.334 0-.162-.115-.295-.277-.333-4.353-.867-7.44-3.525-8.926-5.106-.09-.08-.21-.13-.33-.08-.97.27-2.34.81-3.24 1-.13.03-.23.14-.25.26-.03.13.01.26.12.34 3.27 2.58 5.87 3.898 7.8 4.556-.283.086-.61.144-.91.18-.106.02-.2.078-.25.173-.057.094-.067.2-.04.294.914 2.22 3.25 3.32 5 3.87l.115.02c1.04-.06 2.325-.362 3.354-.44.16-.01.292-.14.3-.293.03-.16-.062-.313-.224-.36-2.905-1.02-4.296-2.21-4.63-3.163" fill="#C12344"/><path d="M336.907 297.477c-.99.772-2.01 1.572-3.087 2.372-.095.05-.143.18-.133.29.01.11.067.22.162.27 3.22 1.83 4.8 2.32 8.25 3.2.02 0 .6.12.63.12.07 0 .16-.03.23-.086.59-.544 1.18-.99 1.76-1.43.9.486 2.26.85 3.28 1.334.04.02.095.03.133.03.114 0 .23-.06.286-.155.39-.59 1.01-1.76 1.43-2.41.087-.14.06-.284-.03-.41-.31-.493-1.97-1.01-3.15-1.436-.17-.076-.343-.114-.467.02-.456.447-.875.847-1.304 1.257-2.748-.667-4.83-1.58-7.64-3-.12-.067-.26-.048-.366.02" fill="#C12344"/><path d="M338.107 308.633c-.076-.058-.143-.134-.23-.153-.103-.02-.2 0-.275.076-.343.277-.714.562-1.067.848-4.563-1.61-6.068-3.2-8.67-4.63-.123-.066-.275-.057-.38.04-1.076.885-2.172 1.77-3.286 2.656-.09.067-.14.172-.13.277 0 .104.05.21.15.266 4.25 2.868 6.65 4.392 9.46 4.916l.26-.08c.36-.28 1.045-.67 1.41-.95 2.37 2.06 4.45 2.33 5.18 2.33.037.02.085.04.132.04.084 0 .18-.04.236-.11.62-.62 1.895-2.17 2.495-2.79.056-.067.19-.467.19-.553-.01-.093-.038-.236-.134-.245-.79-.067-3.943-.82-5.36-1.953" fill="#C12344"/><path d="M328.228 316.7c-.076-.14-.247-.2-.39-.14-.03.008-.048.018-.067.037-.05.02-.09.057-.11.104 0 0-.04.07-.05.1 0 .01-.66.74-.8.72-4.99-1.06-5.13-2.77-7.8-4.24-.12-.06-.26-.06-.37.03-1.07.9-2.16 1.77-3.28 2.67-.083.07-.12.167-.12.28 0 .115.056.2.142.268 4.24 2.867 5.345 3.64 8.108 4.134l.267-.065c.375-.26.727-.555 1.09-.82 2.525 2.79 6.42 2.447 7.193 2.685.047.02.095.026.143.026.085 0 .18-.035.247-.092.57-.59 2.07-1.98 2.695-2.65.1-.093.127-.217.08-.34-.037-.125-.15-.21-.275-.23-.01 0-5.135.17-6.68-2.46" fill="#C12344"/><path d="M226.144 349.863l-.238-.153c-1.048-.133-2.124-.295-3.2-.486-.144-.02-.287.038-.353.162-.076.115-.067.276.02.372.96 1.286 2.17 2.524 3.266 3.448l-.05-.02c-.15-.027-.28.04-.36.144-.08.133-.08.276.01.38.01.01.34.716.89 1.22l.13.077c.553.18 1.42.324 1.954.476.03.02.057.02.085.02.094 0 .19-.04.246-.096.097-.105.126-.23.08-.353-.02-.047-.355-.314-.355-.38 0-.048.02-.067.03-.115.65.06 1.334.13 1.8.21h.06c.143 0 .27-.09.314-.22.056-.14 0-.32-.125-.41-2.084-1.37-3.52-3.24-4.22-4.29" fill="#C12344"/><path d="M191.478 337.812l-.143-.19-2.677-1.82c-.124-.067-.286-.067-.39.02-.124.084.895 2.695.895 2.695l.114.152c.01.01 1.03 1.21 3 2.42.058.03.125.05.192.05.09 0 .19-.05.25-.14.11-.136.1-.326-.03-.45-.62-.62-1.21-2.754-1.22-2.754" fill="#C12344"/><path d="M351.673 294.505c.028.01.057.01.085.01.124 0 .248-.077.305-.2.486-1 .934-2 1.343-2.992.038-.085.038-.19-.01-.276-.056-.095-.142-.162-.228-.17-2.8-.573-3.267-.935-6.087-2.354-.11-.067-.25-.048-.36.028-.95.78-1.12 1.64-1.97 2.25-.09.08-.14.18-.13.3.01.11.07.22.17.28 2.75 1.56 3.97 2.39 6.89 3.14" fill="#C12344"/><path d="M355.293 283.836h.047c.134 0 .238-.077.295-.19.362-.925.686-1.84.982-2.735.01-.02.02-.04.028-.08.01-.07-.02-.16-.066-.22-.04-.05-.1-.08-.16-.11-.02 0-.05-.01-.09-.01-2.58-.31-1.49.09-4-.91-.13-.05-.27-.01-.36.1-.63.733-1.277 1.485-1.953 2.257-.067.078-.095.173-.076.27.02.104.087.17.17.22 2.508 1.15 2.584.99 5.166 1.43" fill="#C12344"/><path d="M253.78 80.277c-97.197.01-176.275 79.097-176.284 176.294.01 97.2 79.087 176.27 176.284 176.29 97.197-.02 176.275-79.09 176.285-176.27-.01-97.2-79.088-176.29-176.285-176.3m.553 344.647c-92.55 0-167.568-75.02-167.568-167.57s75.02-167.58 167.568-167.587c92.547 0 167.567 75.03 167.567 167.578 0 92.55-75.02 167.567-167.563 167.567" fill="#FFF"/><path d="M392.207 372.106h2.03v5.535h1.38v-5.53h2.03v-1.2h-5.44v1.2" fill="#1A2544"/><path d="M402.867 375.307h-.03l-1.57-4.4h-2.373v6.734h1.372v-5.35h.02l1.895 5.36h1.34l1.95-5.35h.03v5.358h1.38v-6.734h-2.38l-1.63 4.4" fill="#1A2544"/><path d="M340.527 333.544c15.242-17.357 24.235-38.105 27.178-59.416-1.114.096-2.696.248-4.525.41h-.01c.153-.01.287-.03.43-.038-2.973 20.177-11.565 39.79-26.026 56.243-.03.038-.067.076-.115.115-21.59 24.52-51.78 37.085-82.08 37.085h-.02c-24.03.01-48.2-7.878-68.23-23.91-1.37-1.096-2.74-2.22-4.07-3.4-.81-.716-1.59-1.45-2.36-2.183-.14-.114-.26-.23-.37-.343-.88-.82-1.73-1.648-2.56-2.486-.09-.07-.158-.14-.21-.21-5.32-5.35-9.96-11.11-13.94-17.22-1.335.52-2.745 1.06-4.17 1.6 4.483 7.02 9.8 13.64 15.943 19.7 1.553 1.52 3.115 3.01 4.763 4.45 21.54 18.94 48.324 28.27 74.93 28.26h.04c31.513 0 62.95-13.1 85.385-38.65" fill="#FFF"/></g></svg>