<svg width="512" height="512" viewBox="0 0 512 512" xmlns="http://www.w3.org/2000/svg"><title>new-york-yankees</title><g fill="none" fill-rule="evenodd"><path d="M253.57 67.644c-94.604 0-171.57 77.18-171.57 172.05 0 65.953 36.62 124.98 95.552 154.24-.247.488-.817 1.593-.817 1.593-2.736 5.362-8.436 16.508-10.17 17.322l-3.223 1.015c-1.592.38-3.232.777-4.682 1.893-1.55 1.2-3.94 5.742-3.94 8.09l-.115.798c-.137.704-.32 1.682-.32 2.877 0 3.812 1.876 9.835 13.302 16.175.016.005 2.315 1.22 2.315 1.22 15.55 7.346 20.98 1.582 23.026-.58l.58-.572c1.887-1.37 4.165-5.97 4.228-7.936.006-.074.006-.148.006-.222 0-1.735-.617-3.23-1.213-4.685l-1.066-3.215c-.01-.048-.016-.1-.016-.154 0-2.183 5.98-13.705 8.89-19.315 0 0 1.276-2.465 1.67-3.237 15.392 4.446 31.385 6.74 47.56 6.74 94.6 0 171.565-77.183 171.565-172.05 0-94.87-76.966-172.05-171.564-172.05" fill="#FFF"/><path d="M188.472 290.535c-.348.418-.28 1.042.143 1.385l2.4 1.978c.42.333 1.037.28 1.385-.143.348-.423.28-1.047-.137-1.39l-2.404-1.973c-.423-.338-1.045-.28-1.388.143" fill="#DD3B41"/><path d="M198.838 299.307c.454.296 1.065.16 1.35-.3.3-.456.17-1.07-.285-1.36l-2.182-1.4c-.453-.297-1.065-.16-1.36.295-.29.455-.158 1.068.3 1.364l2.178 1.4" fill="#DD3B41"/><path d="M194.99 310.454c.363-.407.337-1.03-.07-1.396l-4.592-4.162c-.4-.364-1.023-.333-1.392.07-.364.4-.327 1.025.07 1.395l4.597 4.162c.4.365 1.022.334 1.386-.068" fill="#DD3B41"/><path d="M322.494 300.687c-.543.053-.933.54-.88 1.084.053.54.538.932 1.07.88l4.382-.44c.543-.047.933-.534.88-1.078-.058-.545-.537-.93-1.086-.884l-4.366.44" fill="#DD3B41"/><path d="M311.358 254.452c5.14-9.803-7.17-23.414-25.377-32.382-18.206-8.962-35.638-10.765-41.22-.084-3.012 5.753 3.49 13.716 14.562 21.13.416-1.19.807-2.333 1.186-3.46.274-.84.443-1.733.823-2.51.18-.588.407-1.217.58-1.793.138-.434.807-1.497 1.372-2.327 2.235-3.34 9.728-4.03 16.714-.73 6.997 3.31 11.985 11.094 10.045 16.197-.01.016-.005.03-.015.047-.364.936-1.092 2.184-1.366 2.544-1.124 1.5-2.3 3.104-3.518 4.8 12.73 4.263 23.163 4.38 26.216-1.432" fill="#004A86"/><path d="M280.576 262.6h-.142c-.538.772-1.076 1.56-1.62 2.364.017.037.038.07.043.07 6.586 2.288 18.676 10.637 22.678 14.883.11.127.29.286.396.402.043.02.09.026.127.042 1.002-.624 2.025-1.217 3.07-1.76.61-.324 1.228-.625 1.85-.916l-.127-.132c-2.62-2.41-19.277-12.104-26.274-14.954" fill="#004A86"/><path d="M255.31 254.21c.395-1.022.78-2.048 1.16-3.052-6.607-3.47-18.197-7.45-24.176-9.782-.865-.34-1.814-.783-2.805-1.312-1.594-.835-3.297-1.91-4.995-3.2-6.854-5.15-13.63-13.678-12.31-24.21 1.164-9.344 8.567-13.95 18.965-15.23 1.655-.206 3.385-.333 5.183-.37 16.52-.37 38.38 5.922 55.432 14.504 13.234 6.658 30.946 19.56 39.65 27.988 2.142 2.068 3.85 3.812 5.305 5.436 1.23 1.37 2.267 2.65 3.106 3.865 2.752 4.02 3.575 7.646 3.97 13.796.032 6.25-1.698 11.87-3.812 16.323-.032.063-.042.116-.063.174 1.862-1.126 3.813-2.12 5.764-2.945.02-.074.03-.127.042-.138.127-.57.206-1.68.206-1.68 2.768-13.01.232-24.483-3.77-32.827-.992-2.057-2.062-3.913-3.164-5.557-1.524-2.274-3.106-4.178-4.598-5.58-6.828-6.423-3.575-1.622-1.313 1.318 1.608 2.09 2.378 3.31 3.058 4.596 1.208 2.295 1.767 3.66 1.856 4.346-.04.17-.083.34-.13.497-.49.18-2.1-1.212-4.56-3.744-9.292-9.518-25.474-21.595-40.343-29.046-18.28-9.168-40.226-13.99-54.478-14.54-1.572-.064-3.08-.085-4.446-.048 2.368-1.095 4.292-1.766 6.154-2.237 2.604-.666 5.088-.92 8.5-1.264 5.172-.522 3.137-1.558 0-1.315-1.894.143-4.198.275-6.708.497-1.914.164-3.95.37-6.047.682-11.28 1.628-24.134 5.885-26.823 19.432-2.715 13.653 6.01 25.614 16.425 32.18 1.708 1.08 3.46 2.005 5.22 2.772.437.19.875.396 1.313.56 11.078 4.336 22.773 9.48 23.04 9.597.007 0 .028.01.028.01l.163-.496" fill="#004A86"/><path d="M299.658 200.634c7.878 3.95 18.16 11.622 29.517 24.556l10.124-5.81 1.907-1.096c-3.28-20.61-14.753-34.724-30.613-43.3-21.53-11.644-45.588-5.706-55.533 1.205l.877 11.727c17.495.883 35.86 8.772 43.72 12.717zm28.54 11.65l1.277-3.703 2.336 3.37 3.93.026-2.415 3.278 1.033 3.855-3.654-1.48-3.39 2.278.232-4.135-3.285-2.375 3.94-1.115zm-21.147-27.18l5.885 3.416 5.92-2.713-1.35 6.626 4.272 5.076-6.543.337-3.5 5.817-2.548-6.388-6.596-1.258 5.146-4.458-.685-6.456zm-22.498-6.377l2.842-4.775 2.25 5.288 5.448 1.486-4.424 3.41.364 5.78-4.867-3.24-5.23 2.325 1.444-5.62-3.602-4.182 5.774-.47zm-21.265.36l1.134-3.49 2.23 3.077 3.713.16-2.352 2.844 1.077 3.67-3.607-1.37-3.03 2.258.12-3.83-2.932-2.172 3.65-1.147z" fill="#004A86"/><path d="M363.268 319.13v-7.09h2.6v-1.54h-6.95v1.54h2.595v7.09h1.755" fill="#004A86"/><path d="M377.642 319.13v-8.63h-3.027l-2.082 5.638h-.048l-1.998-5.637h-3.048v8.63h1.76v-6.863h.042l2.41 6.864h1.693l2.494-6.863h.046v6.864h1.756" fill="#004A86"/><path d="M267.14 307.038c3.25 2.496 13.014-.55 22.178-8.762l.86-.682c.116.714.316 1.433.643 2.142 4.035 8.846 23.027 5.61 37.448-4.775.11 1.048.39 2.105.928 3.147 3.933 7.683 20.052 5.54 33.04-2.29.294.957.684 1.952 1.317 2.983 1.52 2.47 5.2 4.663 8.484 5.22 5.15.876 11.357.21 14.964-4.697.945-1.28 1.514-2.654 1.91-4.04 5.135-4.383 17.647-18.083 25.578-34.47 2.267-4.722 2.905-16.91 2.836-21.135l-.1-.28c0-90.546-73.212-163.955-163.507-163.955-80.446 0-147.32 58.265-160.95 135.01l15.86-16.852c7.234-22.598 19.604-42.897 35.697-59.527.474.386.933.777 1.386 1.174l-3.76 11.548c-.173.523.112 1.08.628 1.248.517.17 1.065-.11 1.245-.635 0 0 2.64-8.084 3.517-10.78 1.487 1.3 2.926 2.653 4.355 4.017l-4.688 11.115c-.21.508.022 1.08.522 1.296.495.216 1.065-.027 1.286-.52l4.403-10.442c1.38 1.35 2.71 2.745 4.027 4.15l-4.566 11.237c-.194.498.043 1.08.54 1.276.505.21 1.08-.032 1.28-.53l4.234-10.405c.67.74 1.34 1.48 1.998 2.232 0 .02-.015.037-.015.064.052.364.332.587.66.703.078.094.162.205.252.306l-5.838 11.088c-.264.48-.08 1.08.4 1.332.49.254 1.076.064 1.335-.412l5.467-10.385c.87 1.04 1.746 2.093 2.59 3.16.142.18.273.37.416.556.248.317.485.66.738.99l-6.75 10.15c-.3.456-.178 1.064.275 1.37.46.307 1.065.175 1.366-.274l6.368-9.576c1.47 2.004 2.89 4.03 4.26 6.107-.047.032-.105.016-.142.064l-7.872 8.544c-.374.403-.343 1.027.047 1.397.407.365 1.035.35 1.4-.053l7.655-8.317c1.698 2.66 3.337 5.356 4.866 8.122l-8.71 9.147c-.38.396-.368 1.02.038 1.395.385.376 1.002.36 1.392-.03 0 0 6.164-6.484 8.236-8.657 1.334 2.5 2.573 5.05 3.76 7.64l-9.25 9.058c-.39.38-.4.994-.02 1.39.385.392 1.012.398 1.392.017 0 0 6.654-6.51 8.73-8.55 1.404 3.21 2.727 6.456 3.893 9.766l-9.85 9.883c-.373.385-.373 1.003.007 1.39.384.385 1.012.385 1.386 0 0 0 7.013-7.023 9.143-9.175 1.076 3.194 2.02 6.435 2.858 9.703l-3.77 3.78c-.385.387-.385 1.01 0 1.39.385.393 1.007.393 1.392 0l2.942-2.96c.875 3.638 1.608 7.313 2.2 11.025l-9.814 9.83c-.38.39-.38 1.02-.005 1.4.39.392 1.006.392 1.396 0l8.77-8.782c.663 4.707 1.106 9.477 1.29 14.29l-11.362 9.035c-.427.328-.506.957-.163 1.386.333.43.95.498 1.377.154 0 0 7.53-5.975 10.218-8.11.027 1.13.1 2.256.1 3.388 0 3.23-.116 6.345-.32 9.423l-10.937 7.302c-.448.307-.575.915-.27 1.37.312.454.913.576 1.367.274l9.612-6.423c-.343 4.077-.854 8.11-1.592 12.2l-12.217 4.985c-.5.206-.75.782-.543 1.285.205.507.78.75 1.286.54l11.048-4.506c-.49 2.476-1.023 4.96-1.66 7.52-.017.058.03.11.03.17-.015.126.01.227.048.348.037.122.09.233.174.328.03.053.026.106.068.153l6.776 5.7c.422.348 1.04.296 1.392-.122.353-.418.29-1.036-.127-1.39l-6.317-5.315c.653-2.623 1.218-5.192 1.713-7.736 2.615 1.105 12.56 5.288 12.56 5.288.5.21 1.08-.027 1.292-.534.2-.496-.037-1.073-.528-1.284l-12.992-5.462c.74-4.193 1.255-8.344 1.593-12.548 3.006 1.222 12.175 4.928 12.175 4.928.5.2 1.08-.042 1.287-.55.195-.513-.047-1.084-.548-1.285l-12.718-5.14c.2-3.115.32-6.255.32-9.518 0-1.227-.078-2.443-.104-3.67 3.285 1.396 12.844 5.463 12.844 5.463.496.216 1.087-.022 1.287-.524.21-.5-.02-1.083-.517-1.294l-13.677-5.817c-.186-4.723-.608-9.397-1.246-14.024l11.806 4.14c.51.18 1.07-.09 1.255-.602.174-.518-.09-1.09-.612-1.264l-12.76-4.473c0-.027-.005-.043-.005-.064.07-.243.026-.46-.095-.687-.58-3.675-1.292-7.308-2.14-10.903l12.68 3.325c.533.143 1.07-.174 1.202-.703.138-.534-.18-1.073-.7-1.205l-13.747-3.612c-.87-3.4-1.84-6.768-2.947-10.09l13.963 1.17c.538.047 1.007-.36 1.054-.9.053-.55-.353-1.025-.896-1.067l-14.773-1.23c-1.176-3.338-2.505-6.616-3.918-9.852 3.57.217 12.86.772 12.86.772.548.032 1.012-.386 1.05-.925.025-.55-.386-1.01-.93-1.042l-13.882-.84c-1.197-2.618-2.463-5.21-3.807-7.763 3.523-.1 13.726-.397 13.726-.397.532-.016.96-.454.96-.978 0-.016 0-.026-.006-.032-.01-.544-.46-.973-1.007-.962l-14.68.42c-1.528-2.783-3.168-5.51-4.877-8.187l13.984-1.22c.543-.05.943-.525.89-1.07-.036-.544-.52-.94-1.064-.898l-15.06 1.317c-1.74-2.634-3.558-5.214-5.483-7.73l12.022-1.725c.532-.08.907-.576.822-1.116-.068-.538-.57-.908-1.107-.84l-13.08 1.878c-1.05-1.343-2.153-2.64-3.25-3.945l12.038-1.882c.533-.084.902-.586.823-1.13-.084-.54-.59-.905-1.128-.82l-13.224 2.072c-1.086-1.242-2.204-2.458-3.327-3.664l9.577-3.077c.516-.158.8-.718.638-1.237-.174-.518-.723-.803-1.245-.645l-10.477 3.37c-.748-.78-1.47-1.572-2.24-2.333l9.427-3.548c.51-.196.77-.762.585-1.27-.2-.518-.76-.77-1.27-.576l-10.335 3.882c-1.555-1.496-3.132-2.987-4.76-4.425l10.1-3.755c.39-.142.645-.518.645-.925 0-.116-.027-.233-.07-.344-.19-.502-.758-.772-1.264-.58l-11.14 4.14c-.475-.403-.96-.81-1.44-1.217 27.555-27.75 65.677-44.93 107.8-44.93 38.486 0 73.597 14.356 100.383 37.97-.833.948-1.73 1.995-2.652 3.094-1.344-1.93-5.525-7.915-5.525-7.915-.31-.45-.933-.55-1.376-.243-.44.317-.56.93-.244 1.38l5.837 8.36c-1.144 1.4-2.278 2.818-3.322 4.15-1.697-1.755-7.565-7.64-7.565-7.64-.396-.38-1.007-.38-1.403 0-.38.38-.38 1.01 0 1.4l7.762 7.774c-.76.957-1.445 1.856-2 2.56-12.838-8.842-28.197-14.14-44.622-14.14-17.036 0-32.817 5.393-45.74 14.573-.185.125 1.413 25.84 1.96 34.596 2.337-1.28 4.794-2.36 7.31-3.33l-.602-31.447c3.174-2.518 7.487-4.602 10.82-5.807l-.712 34.412c3.886-.793 7.903-1.22 12.01-1.22 1.272 0 2.495.12 3.745.2l6.27-37.892c8.098-.76 16.19.11 23.294 2.422l-14.685 38.26c6.75 2.212 12.97 5.596 18.444 9.9l26.01-33.217c5.642 4.928 10.108 9.67 14.49 16.582l-30.36 26.734c3.18 4.03 5.873 8.46 7.956 13.225l31.3-21.728c.627 1.232 2.435 8.777 2.14 10.982l-30.376 19.68c.522 1.994.943 4.04 1.27 6.114 7.583-4.32 35.25-20.088 35.264-20.326-2.367-23.335-15.19-44.115-33.57-57.44.537-.693 1.243-1.602 2.024-2.596 2.446 1.2 8.367 4.034 8.367 4.034.487.233 1.082.02 1.32-.465.058-.138.095-.28.095-.43 0-.363-.21-.723-.565-.887 0 0-5.53-2.644-7.988-3.812 1.044-1.328 2.178-2.75 3.322-4.14l10.487 3.637c.44.154.882-.074 1.12-.47 26.268 27.416 42.434 64.636 42.434 105.653l.09.127c-.976 28.225-6.46 40.47-16.462 47.864-.443-2.84-1.376-5.346-2.12-6.87-1.523-3.15-.838-3.32.217-4.35 5.63-4.865 6.774-9.825 4.692-11.316-3.043-2.178-11.653 4.765-12.75 11.422-.153.994-.31 2.057-.443 3.125-1.846 2.194-4.272 4.204-6.544 5.816-3.206-2.934-10.03.376-10.477 6.42-6.27 3.49-11.316 5.393-15.962 5.44-5.69.048-7.18-3.325-6.127-6.403.012-.026.007-.042.007-.053.01.022.063.074.374.053 11.11-.867 24.213-7.27 22.094-14.773-1.245-4.4-8.837-3.823-16.53-.582-1.946.825-3.897 1.82-5.77 2.945-5.066 3.083-9.43 7.154-11.04 11.47-7.793 6.662-15.88 8.92-21.386 8.972-5.68.048-7.18-3.326-6.127-6.403.05-.133-.12 0 .38-.017 12.133-.106 26.84-7.212 23.728-15.16-.79-2.035-2.663-3.072-5.14-3.363-3.185-.365-7.393.534-11.66 2.306-.563.232-1.127.48-1.686.745-.627.287-1.24.588-1.86.916-1.035.545-2.063 1.132-3.065 1.756-2.64 1.655-5.093 3.58-7.086 5.668-1.76 1.84-3.152 3.807-4.007 5.81-3.922 5.24-11.03 10.312-13.514 9.984-5.7-.756-.196-6.964-5.753-7.99 4.287-.708 9.66-3.257 12.944-6.768 1.256-1.343 2.216-2.818 2.68-4.394.395-1.338.438-2.74.01-4.182-1.576-5.42-11.02-3.823-16.804-.857l-.22.127c2.915-4.473 5.773-8.772 8.51-12.8.547-.795 1.085-1.582 1.613-2.354 1.6-2.332 3.157-4.553 4.654-6.63.016-.038.032-.06.058-.09 1.213-1.693 2.394-3.3 3.517-4.797.28-.37 1-1.614 1.37-2.544.01-.016.005-.032.01-.048 1.946-5.108-3.047-12.89-10.05-16.2-6.975-3.3-14.467-2.613-16.714.728-.56.836-1.233 1.9-1.36 2.332-.185.577-.406 1.206-.59 1.787-.26.825-.538 1.677-.823 2.517-.4 1.222-.754 2.396-1.192 3.654-.88 2.544-1.84 5.17-2.846 7.842-.374 1.004-.765 2.03-1.155 3.05l-.164.503-.027-.015c-1.983 5.145-4.124 10.406-6.37 15.715-.56 1.343-1.128 2.67-1.72 4.02-3.463 8.062-7.085 16.057-10.602 23.603-1.624 1.1-4.63 2.94-5.853 2.152-3-1.91 10.588-15.614 6.116-20.252-3.658-3.823-15.005 1.597-20.383 7.218.612-1.65.775-4.695-1.587-7.02-7.582-7.467-29.875 26.807-33.75 24.005-2.22-1.608 6.463-11.84 10.65-23.144l-9.227.08-1.366 2.168c.058-.57-.227-1.28-1.028-2.015-10.193-9.406-35.465 17.735-26.16 25.82 4.35 3.776 14.65-.767 18.893-6.377-2.852 6.107-.717 8.535.09 9.116 9.464 6.943 29.622-25.735 33.065-22.72 2.42 2.125-10.045 20.415-9.47 20.854l9.35-.08c3.97-7.07 6.885-12.674 6.885-12.674 5.24-6.06 11.68-10.914 13.24-9.053 2.583 3.098-11.1 14.176-6.623 21.145 2.146 3.363 10.56-.746 14.648-3.88-8.23 17.395-15.397 31.487-17.653 36.07-4.208 8.593-12.576 24.44-21.107 40.14-14.32-6.182-27.677-14.6-39.55-24.79.015-.2.02-.406-.096-.586l-3.174-5.093c.037-.026.063-.047.09-.08 1.524-1.4 2.93-2.918 4.38-4.383 1.88 2.137 5.01 5.69 5.01 5.69.36.407.98.444 1.382.08.406-.355.443-.984.084-1.386l-5.072-5.78c1.207-1.247 2.42-2.506 3.575-3.8 2.13 2.262 5.726 6.085 5.726 6.085.38.39 1.007.412 1.397.03.4-.363.412-.987.043-1.384l-5.885-6.246c1.75-2.025 3.522-4.034 5.157-6.16 1.988 2.797 5.325 7.51 5.325 7.51.322.448.934.55 1.37.23.45-.316.55-.93.24-1.368l-5.728-8.074c1.624-2.163 3.2-4.347 4.698-6.605 1.81 2.3 6.465 8.196 6.465 8.196.332.434.95.508 1.37.164.428-.344.507-.957.17-1.385l-6.887-8.725c1.47-2.3 2.853-4.67 4.187-7.064l7.382 6.82c.406.37 1.028.344 1.397-.063.358-.396.337-1.02-.07-1.39l-7.68-7.102c.052-.084.104-.17.152-.253.253-.487.074-1.08-.406-1.338-.47-.26-1.07-.08-1.33.402-.12.226-.263.432-.39.66-.015.01-.03.005-.04.015-.022.032-.012.08-.038.117-.116.217-.264.428-.39.655l-9.25-.872c-.542-.048-1.016.354-1.074.888-.043.545.353 1.037.89 1.08l8.32.782c-1.064 1.86-2.124 3.733-3.273 5.54l-10.746-1.268c-.54-.063-1.03.328-1.082.867-.01.037-.016.08-.016.122 0 .486.375.91.875.978 0 0 7.124.83 9.77 1.142-1.338 2.036-2.773 3.982-4.212 5.933l-.07-.096c-.157-.222-.41-.376-.695-.407l-10.498-1.095c-.543-.058-1.023.333-1.07.878-.01.037-.01.07-.01.106 0 .502.374.925.885.978 0 0 9.243.967 10.045 1.052.03.032.137.19.205.286-1.682 2.21-3.495 4.32-5.304 6.424l-.195-.21c-.116-.123-.27-.218-.432-.27l-10.06-3.068c-.512-.164-1.066.138-1.224.66-.032.09-.042.19-.042.28 0 .43.27.82.696.948 0 0 9.333 2.85 9.807 2.993.02.02.12.125.17.173-1.145 1.28-2.332 2.528-3.53 3.765l-.178-.196c-.12-.137-.28-.238-.46-.29l-8.968-2.634c-.51-.148-1.06.148-1.218.666-.027.096-.037.19-.037.28 0 .43.284.826.706.947 0 0 8.177 2.39 8.694 2.55.01.01.053.063.058.074-1.403 1.422-2.758 2.882-4.224 4.235l-.142-.218c-.11-.185-.274-.322-.48-.4l-5.684-2.185c-.042-.02-.095.01-.147 0-5.584-5.8-10.757-12.014-15.392-18.64l58.818-111.342-13.64.38-24.075 44.93c-7.772 7.292-20.374 13.99-27.576 9-14.3-9.91 41.71-63.558 21.095-81.007-16.467-13.923-34.352 6.874-40.01 16.735-4.62 8.038-13.276 20.363-13.593 35.544.148 67.333 40.774 125.127 98.774 150.223-5.478 9.956-10.635 19.125-14.326 25.386-2.605 4.415-4.297 6.43-7.408 6.192-.59-.053-1.882.116-2.273.275-1.556.608-2.162 3.326-2.115 4.478.12 2.39 2.062 6.71 9.802 10.254 7.725 3.553 12.022 3.226 14.02 1.92.97-.64 2.805-2.73 2.384-4.342-.1-.412-.732-1.56-1.117-2.02-2.02-2.374-1.535-4.5.49-9.21 2.89-6.695 7.9-16.942 13.525-28 16.26 5.447 33.65 8.44 51.725 8.44 76.992 0 141.557-53.368 158.92-125.222.65-2.634 1.35-5.85 1.35-5.85-4.593 7.235-16.725 18.017-16.725 18.017-6.443 18.633-16.388 35.406-29.042 49.683l2.262-4.553c.242-.487.042-1.084-.45-1.327-.473-.238-1.074-.043-1.317.45 0 0-2.572 5.17-2.893 5.826-1.42-.904-2.943-2.046-4.524-3.363 1.834-2.22 5.125-6.223 5.125-6.223.348-.423.29-1.042-.127-1.386-.426-.35-1.038-.29-1.386.127 0 0-3.358 4.094-5.104 6.21-.748-.646-1.492-1.318-2.24-2.032l6.274-8.666c.322-.434.227-1.063-.216-1.375-.438-.323-1.055-.233-1.376.217l-6.127 8.45c-1.23-1.195-2.468-2.433-3.702-3.728 1.862-2.242 5.71-7.038 5.71-7.038.338-.418.27-1.037-.158-1.38-.406-.344-1.028-.275-1.376.143 0 0-3.802 4.738-5.5 6.848-1.355-1.45-2.69-2.913-4.002-4.415l5.768-6.874c.348-.42.3-1.048-.11-1.392-.422-.35-1.045-.296-1.393.117 0 0-3.6 4.293-5.573 6.636-1.597-1.866-3.148-3.727-4.613-5.546l5.995-6.82c.358-.403.327-1.027-.09-1.387-.41-.36-1.023-.317-1.387.09l-5.768 6.552c-1.86-2.36-3.538-4.596-4.956-6.595l2.537-2.554c.38-.39.38-1.01 0-1.395-.385-.386-1.002-.386-1.392 0 0 0-1.324 1.322-2.304 2.305-1.138-1.676-2.082-3.146-2.694-4.283-.27-.475-.86-.655-1.334-.38-.485.254-.654.856-.39 1.338.643 1.163 1.613 2.686 2.81 4.425l-8.684 1.576c-.48.09-.812.508-.812.973 0 .062.005.115.02.18.09.538.608.892 1.15.797l9.565-1.75c1.573 2.21 3.47 4.695 5.548 7.302l-11.39.38c-.542.016-.97.476-.948 1.02.016.545.47.968 1.013.952l12.865-.428c1.276 1.555 2.61 3.146 3.986 4.732-.7.207-10.166 2.972-10.166 2.972-.427.127-.7.518-.7.947 0 .095.01.185.03.28.154.523.702.825 1.224.666l10.498-3.07c.163-.043.31-.154.427-.276 1.25 1.422 2.536 2.824 3.818 4.21-2.336.982-10.614 4.747-10.614 4.747-.5.23-.717.81-.495 1.307.227.492.817.71 1.302.487l11.184-5.076c.95.988 1.888 1.956 2.827 2.88-.005.017-.032 0-.042.017l-9.618 5.695c-.474.286-.627.888-.348 1.36.273.464.88.623 1.344.343l9.612-5.7c.17-.1.237-.27.322-.423 0 .312.084.613.353.81.222.163.49.215.74.178.77.725 1.528 1.412 2.293 2.078-1.387.894-8.684 5.77-8.684 5.77-.444.3-.57.914-.276 1.37.3.454.918.575 1.37.268l9.113-6.086c1.428 1.19 2.794 2.232 4.086 3.104-2.368 1.634-6.433 4.415-6.433 4.415-.28.196-.427.508-.427.82 0 .196.048.38.174.555.31.45.923.566 1.37.26l6.09-4.183c-27.78 29.36-67.358 47.345-111.38 47.725-15.744.133-31.194-2.437-45.852-7.244 8-15.38 16.22-30.61 20.87-38.73 6.116-10.73 18.25-31.114 30.914-51.254l.11-.022c2.082-.148 3.358.022 4.117.66 2.78 2.354-2.21 7.8 3.264 11.994m85.79-177.206c.847-1.015 1.686-1.983 2.445-2.84 2.067 1.878 4.092 3.808 6.064 5.796-2.13-.735-6.365-2.205-8.51-2.956m14.367 164.246c.3.296 6.058.08 6.106-5.526 1.792-1.248 3.7-2.728 5.43-4.39.058.488.1.974.222 1.45 1.097 4.04 1.218 14.91-7.034 14.5-4.955-.244-5.72-4.945-4.723-6.034m-13.16-15.705c2.156 3.004-5.326 9.677-13.663 10.005.58-5.203 10.99-13.76 13.662-10.005m-46.09 3.596c1.873-1.513 3.808-2.518 5.305-2.677 1.067-.11 1.9.19 2.3 1.08 1.224 2.807-6.116 8.925-13.424 9.887.707-3.056 3.18-6.155 5.82-8.29m-147.24 19.325c-4.46-4.975 12.934-22.16 17.02-17.005 3.08 4.97-12.016 22.563-17.02 17.005m-58.527-60.522c-1.187-17.037 3.716-27.935 7.723-35.332 4.124-7.603 12.898-17.65 20.67-16.116 12.058 2.37 4.302 18.152-5.932 36.05-10.002 17.498-22.118 35.873-12.364 46.443 7.893 8.555 24.05 6.62 33.946-3.226l-24.29 45.718c-12.466-21.705-19.753-46.758-19.753-73.535m46.99 108.29c-.4-.39-.823-.765-1.23-1.162.776.297 1.425.55 1.61.62.01.02.068.11.1.153-.164.143-.312.264-.48.39m1.523 1.418c.02-.01.037-.025.058-.036.038.064.07.127.117.19-.058-.047-.105-.1-.174-.153m20.242 72.405c1.81-.475 5.257-4.864 5.447-5.25.19-.38.685-.762.438.058-.37 1.904-1.688 3.77-2.78 4.98-.648.72-1.06 1.212-1.58 1.328-1.287.313-1.767-.168-1.9-.55-.01-.628.117-.5.375-.565m8.78.99c-.37 1.03-.628 1.797-.723 2.162-.496 1.708-1.097 4.246-1.592 6.472-.296 1.38-1.03 1.67-1.788 1.38-.464-.175-.954-.51-1.355-.847-.237-.185-.554-.243-.928-.428-.112-.058-.222.127-.338.053-.18-.133-.385-.52-.59-.614-.312-.132-.765-.417-1.092-.587-.285-.137-.522-.502-.77-.613-.185-.08-.353.09-.56-.005-.505-.255-.853-.625-1.25-.858-.257-.143-.71-.402-.848-.53-.327-.274-.274-.5-.163-.676.178-.264.737-.4.995-.433.285-.048 1.245.307 2.33.835.866.418 1.815.984 2.553 1.206.612.185 1.355.01 1.687-.323.253-.237.11-.564.132-.898.037-.433.4-.893.174-1.205-.29-.397-.568-.508-.853-.677-.353-.21-.7-.434-1.05-.57-.632-.25-.896-1.254-.142-1.392 0 0 .686-.26 1.108-.67.242-.234.142-.51.42-.826.133-.148.48-.286.576-.44.083-.12-.085-.242.025-.364.127-.127.053-.29.254-.502.173-.18.6-.397.768-.63.17-.2.333-.406.512-.63 3.443-4.467 9.148-14.476 14.078-23.53-2.267 4.23-4.308 8.155-5.215 10.122-1.898 4.15-4.914 11.337-6.385 15.392-.08.217.1.43.026.624m14.11-20.997c-.016.042-.427.07-.448.17-.042.115.026.263-.037.364-.344.493-.312.97-.49 1.53-.017.068-.207.094-.207.13.048.535-.585.905-.712 1.387-.215.872-.6 1.565-.943 2.42-.02.07-.195.086-.2.144-.042.35-.406.472-.51.768-.033.074.02.2-.028.227-.222.154-.296.376-.465.55-.058.074.01.238-.026.35-.09.242-.296.417-.328.655-.206 1.052-.538 2.03-.96 2.945-.105.227-.263.55-.174.862-.295-.01.08.412-.258.375.005.26.074.534-.02.75-.254.673-.34 1.328-.486 2.037-.032.12-.195.248-.195.385.025.545-.565.983-.57 1.528 0 .46-.285.767-.486 1.243-.116.285-.353.54-.543.814-.29.412-.774.83-1.006 1.27-.074.137.27.396.095.464-.096.043-.186.064-.233.16-.18.348.2.834-.248 1.014-.275.936-1.293 1.75-1.588 2.68-.1.313.31.704.19.98-.322.697-.343 1.2-.58 1.924-.042.106-.143.196-.237.122-.1-.08-.127-.217-.153-.36-.02-.095-.275-.1-.243-.386.11-.946.7-1.343.932-2.22.31-1.19.507-2.232.717-3.353.057-.302.173-.57.21-.904.01-.09-.063-.158-.058-.253.058-.36.37-.635.275-1.01.543-.672.39-1.592.954-2.31.09-.112.365-.344.433-.482.412-.783.3-1.56.786-2.337.046-.085.094-.042.147-.138.084-.18.532-.497.585-.703.042-.153-.195-.338-.07-.53.033-.062-.015-.163.017-.237.13-.36.43-.63.542-1 .143-.438.295-.908.607-1.257.072-.085.183-.175.183-.302.016-.12-.105-.242.27-.374-.033-.497.437-.772.553-1.26.058-.205.31-.432.4-.66.106-.285.227-.56.3-.877.017-.102.117-.16.233-.134 0-.126-.033-.264.015-.364.395-.75 1.007-1.312 1.244-2.174.02-.058.178-.068.21-.137.058-.105-.026-.28.047-.353.46-.56.57-1.19.944-1.82.065-.084-.01-.248.033-.354.126-.322.332-.597.47-.904.036-.112-.027-.27.026-.366.146-.227.304-.444.447-.67.274-.435.548-1.027.85-1.61-.138.472.057 1.165-.223 1.593m1.703-3.97l-.153.284v.186c-.09-.074-.03.143-.12.07.03.116-.006.237-.075.306-.143.132-.16.227-.233.402-.005.005.064.058.027.084-.122.106-.1.286-.206.423-.142.186-.57.313-.69.546.295-.587.595-1.163.906-1.592.248-.312.027-.1.174-.417.095-.228.686-1.883.79-2.13.233-.54.808-1.677 1.625-3.237.2.074.41.137.606.206-1.345 2.438-2.268 4.15-2.653 4.87m4.767-17.904c-.01.032-.137.264-.317.587-.047-.017-.1-.038-.147-.054.17-.344.343-.688.46-.92.995-1.713.125-.005.004.386M249.8 276.507c.585-1.375 1.15-2.707 1.708-4.03 8.605-20.41 13.044-34.618 13.71-37.092l1.248-.27c-3.865 11.707-9.253 25.196-14.616 37.622-.585 1.343-1.16 2.686-1.745 4.008-7.64 17.396-14.874 31.927-17.147 35.057 6.697-12.78 12.286-24.757 16.84-35.295m-7.776 31.536c1.17-2.306 7.95-13.907 15.702-26.983.717-1.21 1.445-2.438 2.173-3.67 9.664-16.276 20.147-33.688 22.904-37.87.25-1.264-1.28-2.137-1.28-2.137-1.993 3.443-11.684 20.025-22.98 39.346l-2.145 3.69c-17.69 30.277-38.285 65.55-39.418 67.75 2.478-4.578 19.06-38.134 25.203-50.005 2.03-3.93 5.49-11.7 9.3-20.585.555-1.29 1.114-2.617 1.683-3.95 7.9-18.602 16.567-40.128 16.89-41.587 5.8-.18 12.174 2.443 15.59 7.133.064-.127-1.302 2.14-1.302 2.14-1.106 1.7-16.677 26.894-22.73 36.9-1.065 1.76-1.84 3.06-2.188 3.668-.026.037-.063.127-.09.16-1.987 3.568-52.215 89.398-52.215 89.398 12.4-24.18 32.174-58.054 34.905-63.4m-37.742 75.144c-.237-.085-.475-.154-.712-.238 12.354-22.446 37.39-66.503 57.536-100.334.743-1.258 1.482-2.49 2.22-3.717 3.306-5.52 6.46-10.755 9.375-15.488 6.236-9.714 13.39-21.315 14.04-22.34.374.31 1.107 1.47 1.028 2.458-.058.877-12.88 20.013-13.683 21.24-2.963 4.526-6.11 9.46-9.353 14.652-.754 1.217-1.52 2.438-2.294 3.686-20.806 33.608-45.324 77-58.158 100.08m57.784-92.302l-.18-.016c1.37-2.168 2.753-4.33 4.118-6.46.417-.646.828-1.276 1.234-1.916l.222-.08c1.086-.432 2.372-.803 3.685-1.072 3.248-.66 6.64-.65 7.387 1.02.027.08.027.154.064.222.458 1.328-.296 2.77-1.83 4.077-3.053 2.606-9.148 4.668-14.7 4.224" fill="#DD3B41"/></g></svg>