<svg width="512" height="512" viewBox="0 0 512 512" xmlns="http://www.w3.org/2000/svg"><title>oakland-athletics</title><g fill="none" fill-rule="evenodd"><path d="M257.683 431.744c96.244 0 174.273-78.023 174.273-174.273 0-96.24-78.03-174.27-174.273-174.27S83.41 161.23 83.41 257.47c0 96.252 78.03 174.274 174.273 174.274" fill="#FFF"/><path d="M257.683 94.898C168.04 94.898 95.1 167.834 95.1 257.47c0 89.65 72.94 162.58 162.583 162.58 89.645 0 162.572-72.93 162.572-162.58 0-89.634-72.93-162.572-162.572-162.572zm0 262.108c-54.885 0-99.535-44.642-99.535-99.535 0-54.873 44.648-99.522 99.535-99.522 54.877 0 99.535 44.65 99.535 99.527 0 54.894-44.658 99.536-99.535 99.536z" fill="#003831"/><path d="M257.683 89.957c-92.367 0-167.523 75.147-167.523 167.514C90.16 349.85 165.316 425 257.683 425c92.368 0 167.515-75.152 167.515-167.53-.002-92.362-75.15-167.51-167.515-167.51zm0 330.094C168.04 420.05 95.1 347.12 95.1 257.47c0-89.635 72.94-162.57 162.584-162.57 89.645 0 162.572 72.936 162.572 162.573 0 89.653-72.93 162.58-162.572 162.58z" fill="#EFB21E"/><path d="M257.683 162.59c-52.322 0-94.882 42.568-94.882 94.882 0 52.32 42.56 94.89 94.887 94.89 52.322 0 94.882-42.57 94.882-94.89 0-52.316-42.56-94.882-94.883-94.882" fill="#FFF"/><path d="M257.683 157.944c-54.885 0-99.535 44.65-99.535 99.527 0 54.898 44.648 99.54 99.535 99.54 54.877 0 99.535-44.642 99.535-99.535 0-54.875-44.658-99.526-99.535-99.526zm0 194.416c-52.322 0-94.882-42.568-94.882-94.89 0-52.314 42.56-94.88 94.887-94.88 52.322 0 94.882 42.566 94.882 94.88 0 52.323-42.56 94.89-94.883 94.89z" fill="#EFB21E"/><path d="M310.724 295.217c-2.618 1.89-5.685 3.163-8.584 2.618-2.347-.415-5.494-2.14-7.273-7.976 0 0-19.237-79.67-19.262-79.847-1.465-9.682-6.6-15.008-10.66-17.763-5.206-3.53-11.717-4.843-17.395-3.522-8.873 2.065-12.16 6.672-13.383 10.284 3.724-1.858 7.64-1.026 10.115.576 1.586.97 5.287 3.263 2.844 9.814l-3.42 8.987-1.842-.52c-2.058-.59-4.213-.705-6.39-.337-3.75.64-6.384 2.114-7.817 4.373-.905 1.417-1.178 2.955-1.25 4.316 3.125-1.755 6.28-1.25 8.546.216 1.602 1.04 3.02 2.42 3.02 5.244 0 .905-.152 1.978-.49 3.236l-20.43 68.398-1.025.344c-10.443 3.5-13.246 9.267-13.95 12.96 3.17-1.827 8.312-4.165 15.513-4.88 2.98-.293 6.58.628 10.06 1.508 2.82.704 5.73 1.45 7.84 1.394 2.68-.063 4.7-.833 6.03-2.29 1.39-1.505 1.766-3.46 1.806-5.117a844.573 844.573 0 0 1-5.206-2.915 5.256 5.256 0 0 1-1.715 1.625c-1.137.64-3.124 1.17-6.08.01l-1.777-.69 8.065-28.097h29.73l1.617-.04 5.342 20.897c3.57 14.553 14.15 18.036 22.11 16.602 7.587-1.367 13.024-8.734 15.314-19.41zm-70.245-29.473l11.36-39.323 2.243-7.732 10.78 47.06h-24.388z" fill="#003831"/><path d="M251.844 226.42l-11.365 39.324h24.382l-10.78-47.06-2.242 7.737zm-5.823 35.15c1.03-3.54 5.07-17.53 7.6-26.27 2.02 8.827 5.24 22.868 6.027 26.27H246.02z" fill="#EFB21E"/><path d="M311.43 288.898c-2.088 2.714-5.79 5.343-8.554 4.837-1.728-.312-3.083-1.986-3.988-4.974l-19.198-79.54c-1.273-8.536-5.694-15.85-12.405-20.404-6.15-4.173-13.88-5.725-20.68-4.14-18.98 4.43-17.306 19.548-17.28 19.71l.655 5.204 3.09-4.244c3.157-4.324 7.017-3.492 8.626-2.45 1.2.744 2.074 1.28 2.074 2.666 0 .6-.16 1.36-.545 2.38 0 0-1.417 3.747-2.146 5.645-2.08-.352-4.17-.528-6.316-.16-4.98.85-8.57 2.965-10.668 6.297-3.18 5.07-1.53 10.99-1.466 11.237l1.115 3.838 2.512-3.1c2.748-3.37 5.205-2.545 6.43-1.753.987.64 1.54 1 .778 3.838.016-.047-17.443 58.433-19.815 66.37-14.295 5.263-15.96 14.93-15.96 18.933 0 1.098.12 1.77.12 1.794l.666 3.442 2.715-2.233c.067-.05 6.37-5.15 16.797-6.19 2.266-.22 5.493.596 8.624 1.39 3.09.785 6.287 1.603 8.987 1.52 3.78-.095 6.896-1.352 8.995-3.635 2.13-2.314 3.13-5.516 2.916-9.265l-.072-1.145-11.86-6.63-.513 2.89c-.055.37-.24 1.017-.71 1.29-.17.096-.41.13-.674.146.967-3.34 5.372-18.7 6.07-21.11h24.98c.663 2.587 4.523 17.685 4.523 17.685 3.98 16.242 16.376 21.59 26.893 19.7 10.964-1.97 18.58-13.24 19.862-29.41l.176-2.24h-2.25c-1.1-.002-1.594.646-2.506 1.824zm-38.13 9.122l-5.343-20.896-1.617.04h-29.73l-8.063 28.095 1.777.69c2.956 1.16 4.943.63 6.08-.01a5.27 5.27 0 0 0 1.713-1.63c1.915 1.08 4.022 2.26 5.207 2.916-.04 1.66-.417 3.61-1.802 5.117-1.33 1.457-3.357 2.226-6.03 2.29-2.115.055-5.022-.69-7.84-1.394-3.485-.88-7.08-1.8-10.06-1.506-7.2.713-12.343 3.053-15.513 4.878.7-3.693 3.504-9.46 13.95-12.96l1.02-.343 20.43-68.397c.34-1.258.49-2.33.49-3.236 0-2.827-1.42-4.203-3.02-5.245-2.267-1.465-5.42-1.97-8.545-.216.072-1.364.343-2.9 1.248-4.318 1.433-2.26 4.07-3.735 7.816-4.375 2.18-.37 4.334-.257 6.392.336l1.843.52 3.417-8.987c2.443-6.55-1.257-8.84-2.843-9.813-2.475-1.6-6.39-2.433-10.115-.575 1.224-3.61 4.508-8.216 13.38-10.283 5.68-1.32 12.19-.008 17.397 3.523 4.06 2.756 9.194 8.082 10.66 17.764.024.175 19.26 79.84 19.26 79.84 1.78 5.84 4.927 7.56 7.274 7.976 2.9.545 5.967-.73 8.586-2.618-2.29 10.675-7.728 18.042-15.313 19.403-7.963 1.44-18.54-2.044-22.114-16.597z" fill="#EFB21E"/><path d="M319.055 235.567s-2.452-.736-2.49-.745c-1.867-.608-5.35-1.738-5.35-5.045 0-2.932 2.897-4.678 5.702-4.678 1.97 0 3.906.74 5.71 1.82.72-1.41 1.522-2.97 2.274-4.413-2.863-1.337-6.32-2.274-9.35-2.274-6.68 0-11.15 4.348-11.15 10.803 0 5.822 2.55 7.136 9.15 9.01 2.337.65 6.68 1.882 6.68 5.655 0 3.124-2.573 5.31-6.25 5.31-2.66 0-5.286-1.194-7.945-3.13-.81 1.52-1.778 3.355-2.54 4.79 3.35 2.04 7.097 3.3 10.82 3.3 3.742 0 7.105-1.098 9.46-3.1 2.162-1.84 3.27-4.78 3.27-8.747 0-4.35-2.382-6.912-7.987-8.56" fill="#003831"/><path d="M319.967 232.516l-2.452-.738c-1.153-.376-3.122-1.01-3.122-2 0-.93 1.465-1.498 2.522-1.498 1.835 0 3.73.736 5.35 2.082l1.523 1.267 5.437-10.57-1.33-.753c-3.476-1.978-8.328-3.25-12.35-3.25-8.45 0-14.335 5.757-14.335 13.98 0 8.803 5.927 10.494 11.157 11.975 1.834.52 4.67 1.33 4.67 2.69 0 2.075-2.75 2.132-3.06 2.132-2.402 0-4.844-1.122-7.488-3.428l-1.51-1.33-5.71 10.763 1.146.81c4.14 2.906 9.073 4.5 13.893 4.5 4.502 0 8.594-1.36 11.525-3.86 2.916-2.467 4.382-6.223 4.382-11.165-.002-7.7-5.847-10.318-10.253-11.615zm3.806 20.358c-2.356 2.003-5.72 3.1-9.46 3.1-3.724 0-7.472-1.258-10.82-3.3.76-1.434 1.73-3.268 2.54-4.79 2.658 1.937 5.285 3.13 7.944 3.13 3.676 0 6.248-2.185 6.248-5.308 0-3.773-4.34-5.006-6.68-5.656-6.6-1.874-9.147-3.187-9.147-9.01 0-6.455 4.47-10.803 11.15-10.803 3.035 0 6.487.937 9.353 2.274a545.74 545.74 0 0 0-2.27 4.42c-1.8-1.08-3.74-1.827-5.71-1.827-2.804 0-5.702 1.746-5.702 4.678 0 3.308 3.482 4.438 5.35 5.046.04.01 2.49.745 2.49.745 5.606 1.65 7.987 4.213 7.987 8.56 0 3.967-1.106 6.907-3.267 8.748z" fill="#EFB21E"/><path d="M291.663 221.943c.96-.056 2.404-.143 3.237 1.018.336.47.456 1 .456 1.527 0 .77-.257 1.538-.505 2.147-.55 1.363-1.052 2.1-1.58 2.75.64-.378 1.29-.778 1.61-1.06 1.53-1.312 2.913-3.563 2.913-6.262 0-1.04-.2-2.146-.68-3.306-.658-1.53-2.114-1.97-2.916-2.1-1.42-.207-2.932.203-3.59.98-1.015 1.2-1.05 2.634-.623 3.468.29.606.804.895 1.684.847" fill="#003831"/><path d="M291.656 225.13a3.61 3.61 0 0 1 .344-.015l-.105.312c-.896 2.243-1.273 2.41-2.28 2.876l-1.73.786.69 1.74 2.073 3.004 1.05-.242c1.57-.352 4.332-2.082 5.254-2.86 3.163-2.738 5.333-7.88 3.083-13.22-.904-2.163-2.868-3.62-5.357-4.005-2.547-.393-5.095.41-6.496 2.06-1.698 2-2.13 4.79-1.057 6.942.87 1.744 2.57 2.73 4.53 2.617zm-1.05-7.503c.658-.777 2.17-1.185 3.59-.977.802.128 2.258.57 2.915 2.098.48 1.162.686 2.267.686 3.307 0 2.7-1.384 4.95-2.915 6.264-.32.28-.97.68-1.61 1.052.53-.65 1.033-1.385 1.587-2.748.248-.608.505-1.376.505-2.146 0-.53-.12-1.057-.455-1.52-.832-1.164-2.274-1.075-3.237-1.02-.88.05-1.393-.24-1.68-.848-.43-.832-.397-2.266.62-3.467z" fill="#EFB21E"/><path d="M169.41 326.378l-23.46 28.513-4.83-6.72 4.022-4.7-4.59-6.37-5.71 2.37-4.5-6.256 34.294-13.47 4.773 6.64zm-13.842 5.737l3.86-3.878-.056-.08-4.87 2.484-8.697 4.2 3.196 4.447 6.57-7.168zm37.09 17.042l-4.302 5.038-4.676-3.99-18.877 22.113-5.903-5.036 18.878-22.114-4.64-3.95 4.303-5.042m30.01 21.38l-5.79 12.705 7.155 3.27 5.79-12.71 7.064 3.23-14.808 32.467-7.067-3.22 6.264-13.733-7.154-3.267-6.262 13.75-7.055-3.227 14.8-32.478m42.296 50.11c.112-.543 1.064-6.454 1.064-6.454h-.03c-.235-.064-8-1.33-8-1.33.013 0 4.666-28.663 4.666-28.663v-.024l-7.672-1.25-.006.026-.032.24c-.455 2.643-5.7 34.993-5.7 34.993.016.03 15.697 2.57 15.697 2.57l.008-.017.01-.09zm1.04-6.437l-.007.047.006-.05zm-7.992-1.316l-.015-.01.015.006zm35.35-27.98l.347 6.612-7.856.41.4 7.76 6.917-.37.338 6.624-6.91.353.414 8.05 7.963-.418.343 6.622-15.705.808-1.857-35.654m43.66-7.98l1.92 6.345-5.878 1.786 8.472 27.814-7.422 2.258-8.466-27.805-5.83 1.77-1.93-6.336m34.87-14.127l17.386 31.17-6.776 3.78-17.394-31.17" fill="#FFF"/><path d="M314.85 353.218l-6.776 3.78c0 .048 17.388 31.203 17.388 31.203.025.01 6.8-3.76 6.8-3.76 0-.056-17.38-31.21-17.38-31.21l-.016-.017m28.52-13.886c-.906.472-1.7.986-2.437 1.642-5.11 4.523-3.608 10.707.03 14.815 3.513 3.974 10.064 6.905 15.134 2.43.738-.666 1.338-1.498 1.882-2.37l4.42 5.004c-.57 1.07-1.345 2.01-2.28 2.84-8.387 7.416-19.11 4.646-25.326-2.38-5.862-6.63-7.05-17.722.866-24.715 1.007-.905 2.146-1.594 3.403-2.138m20.76-15.152c-1.9.6-3.85 1.593-5.054 3.362-1.344 1.978-1.112 3.972.698 5.198 4.844 3.307 11.78-6.255 19.756-.818 5.238 3.573 6.93 9.58 2.813 15.61-1.233 1.802-3.268 3.69-5.246 4.484l-5.55-3.787c1.97-.864 3.597-1.898 4.886-3.794 1.41-2.06 1.28-4.56-.68-5.89-2.268-1.552-4.48-.16-6.88.85-4.8 2.154-8.54 2.94-12.848 0-4.644-3.18-6.656-8.9-2.89-14.4 1.41-2.06 3.178-3.57 5.326-4.685M165.76 165.06c10.37 8.48 9.908 16.98 5.52 22.345-4.383 5.36-12.623 7.506-22.995-.976-10.372-8.474-9.908-16.98-5.52-22.338 4.383-5.365 12.625-7.504 22.995.97zm.465 18.204c3.268-3.99-3.507-9.994-5.702-11.79-2.458-2.01-9.434-7.24-12.7-3.25-3.262 3.99 3.258 9.786 5.71 11.797 2.2 1.795 9.433 7.24 12.692 3.244zm11.822-49.823l27.782 24.33-6.87 4.63-4.576-4.163-6.52 4.39 2.195 5.773-6.384 4.315-12.408-34.71 6.775-4.565zm5.302 14.008l-3.75-3.972-.096.057 2.338 4.93 3.94 8.836 4.532-3.06-6.966-6.793zm28.484-29.874l4.646 15.266.097-.04 1.538-17.14 7.577-2.298-2.138 17.867 13.406 16.015-7.81 2.37-12.12-15.314-.09.026 5.278 17.404-7.418 2.257-10.386-34.166m49.816-9.41l.77 29.068 8.13-.217.167 6.62-15.882.426-.937-35.696m50.537 5.18l.44 36.914-8.024-2.02.05-6.183-7.622-1.912-2.834 5.485-7.48-1.882 17.548-32.394 7.93 1.995zm-6.88 13.304l.44-5.455-.09-.024-2.13 5.03-3.94 8.833 5.31 1.33.41-9.713zm41.398 1.258l-3.188 23.402.145-.025c.497-1.698 1.345-3.34 2.33-4.91l8.504-13.614 6.575 4.11-18.91 30.273-6.24-3.884 3.28-23.345-.136.026-1.586 3.243-.745 1.272-8.674 13.896-6.59-4.11 18.916-30.275m10.68 51.153l27.34-22.938 3.78 4.5c.867 1.04 12.694 12.332-2.58 25.14-7.79 6.543-16.224 7.98-24.09-1.393l-4.452-5.313zm23.6.73c3.477-2.917 7.978-8.748 3.87-13.65l-17.63 14.785c3.8 4.975 10.34 1.73 13.76-1.136z" fill="#FFF"/><path d="M390.83 395.616h-3.412v9.274h-2.308v-9.274h-3.41v-2.02h9.128v2.02zm15.44 9.274h-2.314v-8.986h-.047l-3.27 8.986h-2.23l-3.17-8.986h-.057v8.986h-2.297V393.6h3.987l2.634 7.375h.05l2.737-7.376h3.972v11.29z" fill="#003831"/></g></svg>