<svg width="512" height="512" viewBox="0 0 512 512" xmlns="http://www.w3.org/2000/svg"><title>philadelphia-phillies</title><g fill="none" fill-rule="evenodd"><path d="M255.627 77.113c-74.398.55-169.47 44.365-192.582 166.038l-.045.238 192.627 192.505L448 243.573C424.85 110.82 312.04 76.675 255.627 77.113" id="Shape" fill="#FFF"/><path d="M255.7 86.355c52.62-.407 157.875 31.454 179.6 154.92-.045 0-179.652 179.55-179.652 179.55 0-.097-179.03-179-179.614-179.578C97.62 127.747 186.304 86.867 255.7 86.355" id="Shape" fill="#CD1141"/><path d="M255.686 103.016c-91.027.83-150.848 70.014-160.925 134.694l-.163 1.053 161.104 160.5 160.32-160.5-.164-1.038c-9.827-64.695-69.284-133.88-160.133-134.71h-.022" id="Shape" fill="#FFF"/><path d="M255.7 107.18c88.07.816 145.81 67.474 155.844 130.168-1.542 1.542-152.975 153.157-155.843 156.026-2.882-2.87-155.07-154.468-156.627-156.026 10.27-62.694 68.373-129.352 156.628-130.167" id="Shape" fill="#00529B"/><path d="M383.918 212.318h-3.394v9.236h-2.283v-9.236h-3.392v-2.007h9.07v2.008zm15.368 9.236h-2.282v-8.947h-.06l-3.26 8.947h-2.208l-3.157-8.947h-.045v8.947h-2.297V210.31h3.972l2.623 7.338h.045l2.71-7.337h3.958v11.244z" id="Shape" fill="#FFF"/><path d="M163.267 183.437l-1.587.102v22.24l2.03-.385c7.56-1.437 11.82-6.344 11.13-12.8-.718-6.533-4.616-9.61-11.573-9.158" id="Shape" fill="#FFF"/><path d="M332.922 225.268c0-.252-.016-.48-.03-.698 0 0-.402-1.09-.402-1.126-.74-.467-1.91-.54-3.243-.207-2.328.577-4.506 2.195-5.575 4.107l-.043.05c-2.343 2.788-3.44 6.308-3.142 7.97.074.407.22.68.55.865l1.39.474c2.224-.03 5.78-2.068 7.93-4.55 1.733-2.04 2.564-4.9 2.564-6.886" id="Shape" fill="#FFF"/><path d="M362.945 215.824s-.933-.696-1.57-1.15c-.34-.584-2.89-4.81-2.89-4.81l-12.39 8.85.133 2.084c.044.69.06 1.356.06 2.023 0 4.87-1.216 8.99-3.468 12.237 1.883-3.387 2.565-6.48 2.565-8.916 0-2.274-.49-4.017-.86-5.01-2.578-6.922-10.182-11.132-18.052-9.997-2.74.4-9.633 2.35-14.36 10.658-1.082-4.498-3.068-12.687-3.157-13.102.268-.275 4.15-4.188 6.787-6.856l17.593-.045v-25.02h-5.825V138.08c-.09-.274-5.824-9.554-5.824-9.554l-.15-.244-17.75-.08c-.193.036-13.726 5.142-13.726 5.142l-34.753-.028H221.94c0-.03-13.354-5.078-13.354-5.078-.186-.037-17.66.044-17.66.044h-.28l-5.89 9.524s-.075 37.962-.075 38.963h-.734c-2.2-2.32-4.957-4.292-8.26-5.813-14.525-6.677-35.044-3.63-45.752 6.805-6.93 6.774-10.307 15.053-9.04 22.124.77 4.357 3.31 7.79 6.98 9.434 5.002 2.246 8.79 1.304 11.086.133 1.57-.815 2.87-1.956 3.944-3.215v29.882c-3.83 4.483-6.108 9.086-6.108 13.207 0 1.26.187 2.467.564 3.616 1.185 3.602 4.186 6.07 8.224 6.782 4.506.8 9.433-.616 13.198-3.774 3.646-3.06 5.734-7.432 5.734-12.013v-23.332c7.64-2.897 14.932-6.425 19.756-12.235v41.622c-.037.304-.068.623-.068.928 0 2.897 1.29 5.416 3.653 7.034 3.09 2.11 7.61 2.252 10.997.362 2.935-1.652 4.572-4.483 4.572-7.818 0-.178-.007-.356-.015-.526l.008-19.612c.096-.045.147-.08.23-.104.02.074.03.09.058.156v18.403c.068 4.93 2.875 8.64 7.514 10.234l-.252 1.156h-61.033l-.236.037c-4.47.57-7.5 3.907-7.5 8.168 0 .157 0 .303.022.452.2 4.387 3.61 7.788 7.915 7.917h54.99c-5.35 9.916-10.486 15.088-14.45 19.016-4.756 4.707-8.032 7.945-8.032 15.935 0 .685.03 1.388.068 2.143l.03.467h63.81c.095-2.697-.27-4.765-.6-6.588 0 0-.453-4.7-.453-4.72.147-1.632-.594-2.652-1.528-3.95-.814-1.134-1.74-2.424-2.074-4.292l-.956-1.378s-1.334-2.63-1.334-2.667c.088-.905-.32-1.51-1.03-2.506 0 0-1.55-3.046-1.556-3.1-.37-2.15.133-3.527.563-4.75.385-1.075.718-2.002.46-3.5 0 0-.008-.09-.008-.11h2.252c.06.4.102.785.102 1.135 0 1.325-.356 2.326-.688 3.24-.297.828-.57 1.57-.57 2.548 0 .304.03.637.095.994l1.176 2.215c.698.97 1.46 2.046 1.46 3.565 0 .142 0 .29-.022.445l.718.926s1.556 2.624 1.556 2.586c.238 1.327.934 2.297 1.682 3.327 1.015 1.41 2.156 3.003 1.95 5.45l.42 4.143c.357 1.91.727 4.1.623 6.987h.178v3.033c-.652.497-4.163 3.393-4.483 7.996-.014.214-.03.43-.03.643 0 3.106 1.564 6.196 4.668 9.204l-.156 6.952v.51h14.233v-7.833c2.965-2.654 4.52-5.73 4.52-8.836 0-.214 0-.43-.015-.642-.326-4.604-3.852-7.5-4.506-7.997v-3.03h66.232l.03-.468c.06-.756.075-1.467.075-2.15 0-7.982-3.277-11.22-8.035-15.928-3.957-3.92-9.084-9.086-14.434-19.017h36.754c3.232 4.15 7.47 6.418 12.004 6.108 4.55-.32 8.523-3.12 10.376-7.302l.133-.303.073-.318c1.29-5.315-.206-8.64-1.69-10.478-3.23-4.01-8.64-4.32-10.833-4.27H335.66c1.733-.266 3.438-.71 5.097-1.392 3.083-1.268 5.66-3.217 7.974-5.367 8.76 7.68 15.754 7.42 20.096 5.795 6.507-2.423 10.76-9.45 11.47-14.822.178-1.267.268-2.484.268-3.64.005-12.156-9.32-18.93-17.62-24.964zm-52.135 8.553c-1.157 2.572-2.105 5.634-2.727 9.3v-7.373c-.164-2-.637-3.64-1.304-4.994 1.57 1.2 3.035 2.312 4.03 3.067zm.488-21.93s-6.358 5.597-6.462 5.478c0 .023 2.83 9.213 2.83 9.213.018.03.018.06.018.088 0 .097-.045.193-.134.252-.104.074-.25.074-.356-.008 0 0-6.862-5.306-6.862-5.58l-7.2 5.58c-.104.082-.253.082-.358.008-.09-.06-.133-.155-.133-.252 0-.03.016-.06.016-.088 0 0 2.757-8.9 2.934-8.91-.015-.006-6.566-5.78-6.566-5.78-.06-.05-.103-.14-.103-.23 0-.036 0-.067.032-.102.043-.12.15-.193.282-.193l7.29.2 3.35-9.552c.045-.126.164-.206.283-.206.133 0 .252.082.297.207 0 0 3.083 8.784 3.083 9.324 0 .023 0 .023-.016.03h7.576c.133 0 .235.075.28.193.04.116.012.25-.078.33zm-34.782-26.392h21.178c.074.303.875 4.284 1.84 9.02-.892 2.253-3.81 9.487-4.937 12.317-3.04-9.42-10.078-16.12-18.08-16.415v-4.922zm-33.99 25.867h1.134c.118 0 .23.073.288.192.037.12 0 .252-.088.334l-1.355 1.186c-1.868 1.63-5.033 4.373-5.114 4.29l2.838 9.214c.015.03.015.06.015.088 0 .097-.045.193-.133.252-.11.074-.252.074-.348-.008 0 0-6.862-5.306-6.87-5.58-.022.022-7.194 5.58-7.194 5.58-.11.082-.26.082-.37.008-.083-.06-.12-.155-.12-.252 0-.03 0-.06.01-.088 0 0 2.74-8.9 2.918-8.91l-6.55-5.78c-.06-.05-.096-.14-.096-.23 0-.036 0-.067.023-.102.036-.12.147-.193.274-.193l7.3.2 3.348-9.552c.045-.126.156-.206.29-.206.118 0 .243.082.28.207 0 0 3.09 8.784 3.09 9.324 0 .023-.005.023-.005.023.01.005 4.33.005 6.435.005zm-33.31-.045s5.115-25.03 5.27-25.822h21.185v4.92c-9.958.363-18.524 10.584-19.59 23.724l-.24 7.678c-.667-.512-1.363-.98-2.127-1.335-3.497-1.66-7.158-1.245-10.137-.385v-8.797l5.64.017zm-24.94.34c-4.114 8.45-13.184 12.48-22.913 15.823v25.896c0 3.565-1.6 6.878-4.527 9.337-3.03 2.55-7.12 3.744-10.657 3.12-2.654-.46-4.507-1.948-5.248-4.164-.244-.742-.363-1.54-.363-2.387 0-3.713 2.32-8.287 6.506-12.592v-51.123c-3.978 1.86-6.914 5.618-6.914 7.96 0 .17.014.34.045.49.29 1.34 1.765 1.586 2.956 1.556l.4-.007-.058.408c-.05.297-1.245 7.382-5.98 9.93-2.34 1.26-5.113 1.18-8.27-.228-2.667-1.194-4.445-3.66-5.038-6.938-1.053-5.973 1.963-13.126 8.085-19.12 9.61-9.376 28.833-12.194 41.977-6.153 1.71.786 3.2 1.727 4.586 2.75 3.556 2.654 5.95 6.04 7.032 10.013.563 2.046.8 4.24.66 6.567-.217 3.437-1.054 6.328-2.283 8.862zm116.855 57.668c.89.177 1.765.283 2.625.326h-2.55c-.015-.102-.044-.22-.074-.325zm52.85 4.048c3.394-.08 11.027 1.098 8.82 10.153-2.594 5.9-11.56 8.02-17.162-1.023h-195.39c-5.27-.156-6.21-8.345-.074-9.13H353.98zm-48.387-3.722c3.26-.155 6.327-1.103 8.802-2.48.875-.49 1.335-1.04 1.986-1.55 4.166 2.143 8.183 3.484 12.036 4.033h-22.823v-.002zm71.328-16.23c-.5 3.758-3.717 9.983-9.29 12.074-3.483 1.304-9.248 1.43-16.926-5.758.15-.26 3.706-6.412 6.36-7.145 2.784 2.817 5.273 3.908 7.038 3.077 1.41-.668 2.252-2.556 2.252-4.958 0-.378-.014-.765-.06-1.164-.384-3.67-2.755-8.353-8.06-9.79-.55 2.03-5.692 19.96-18.777 25.355-6.95 2.86-14.968 1.58-23.786-3.573-.31.823-1.51 1.854-2.933 2.654-5.203 2.9-12.85 3.646-18.867-2.68-.964.733-14.168 10.448-25.195-.757-.77.704-6.535 5.654-13.345 5.38-3.372-.138-6.365-1.643-8.966-4.357-.65.668-4.55 4.44-10.01 4.5-3.386.036-6.61-1.49-9.567-4.418-2.178 3.142-8.79 4.958-13.746 3.654-3.756-.987-5.853-3.557-5.918-7.256l.006-18.89c-.764-3.484-3.372-3.217-4.136-3.054-1.763.37-3.216 1.786-2.98 2.988v20.285c.112 2.26-.887 4.106-2.822 5.195-2.268 1.267-5.372 1.178-7.41-.2-1.66-1.14-2.4-2.98-2.098-5.136V193.14c-.31-2.64.71-4.916 2.81-6.255 2.163-1.386 4.978-1.468 7.017-.215 1.77 1.09 2.718 3.008 2.718 5.455 0 .334-.014.69-.06 1.044v22.553c1.535-.89 7.263-3.87 12.095-1.593 3.364 1.585 5.44 5.402 6.158 11.39v16.27c.194 2.327 2.424 3.484 4.528 3.432 1.904-.045 3.853-1.12 3.92-3.41l.007-15.08c-.207-2.884.8-5.24 2.756-6.456 1.625-1.03 3.676-1.066 5.337-.11 1.986 1.15 3.067 3.5 2.97 6.462v14.038c-.126 1.63.49 2.97 1.72 3.765 1.26.808 2.905.868 4.187.165 1.356-.756 2.09-2.238 2.068-4.188v-37.7c-.185-4.752.674-8.07 2.616-10.125 1.497-1.587 3.64-2.38 6.536-2.43 3.306-.09 5.972 1.23 7.692 3.808 1.593 2.38 2.364 5.722 2.364 9.813 0 7.41-2.557 17.277-7.507 28.34-.445 2.342-.623 4.084-.623 5.426 0 2.474.6 3.623 1.2 4.815 0 0 .252.49.26.54 1.898 1.625 4.01 2.202 5.78 1.58 1.527-.535 3.527-2.194 4.416-6.99l.016-35.552c-.342-4.298.4-7.456 2.208-9.377 2.09-2.207 5.202-2.453 7.974-2.408 2.565.082 4.875 1.667 6.535 4.47.622 1.067 1.125 2.407 1.54 3.86.623 2.157.95 4.72.934 7.67-.06 6.746-2.03 15.417-7.35 25.756-2.016 7.478.177 10.88 1.644 12.243 1.75 1.608 4.298 2.07 6.67 1.215 2.577-.934 4.325-3.186 4.712-5.996v-13.03c-.31-3.557 2.52-6.225 5.38-6.477 2.492-.208 5.307 1.355 5.766 6.44l-.015 16.32c.683 1.68 2.165 2.61 3.574 2.26 1.378-.333 2.86-2.06 2.534-5.848 1.467-20.788 12.774-24.02 16.2-24.517 6.297-.91 12.33 2.37 14.374 7.812 2.61 7.048-2.223 15.372-12.833 22.087-.032.14-.06.32.19.504 1.1.882 5.32.712 9.708-1.557 4.578-2.372 12.124-8.478 11.367-23.08l7.707-5.49.192.31s1.097 1.83 1.097 1.883l2.18 1.593c8.314 6.05 16.2 11.792 16.2 22.205-.006 1.022-.08 2.09-.23 3.2z" id="Shape" fill="#FFF"/><path d="M255.404 198.6c-.416-.25-.875-.28-1.335-.08l-.2.103v22.42l.392-.07c1.852-.28 2.993-4.794 3.572-14.192-.103-2.538-.764-7.156-2.43-8.18" id="Shape" fill="#FFF"/><path d="M278.144 198.6c-.415-.25-.874-.28-1.333-.08l-.206.103v22.42l.4-.07c1.838-.28 3.008-4.934 3.572-14.22-.09-2.51-.77-7.13-2.432-8.153" id="Shape" fill="#FFF"/><path d="M150.247 273.063h195.39c5.603 9.042 14.57 6.92 17.163 1.023 2.207-9.057-5.426-10.234-8.82-10.153H150.173c-6.134.785-5.194 8.976.075 9.13" id="Shape" fill="#CD1141"/><path d="M178.864 176.775c-1.386-1.023-2.875-1.964-4.586-2.75-13.146-6.04-32.367-3.223-41.978 6.152-6.12 5.995-9.137 13.148-8.085 19.12.594 3.278 2.37 5.745 5.04 6.94 3.156 1.406 5.926 1.488 8.268.228 4.736-2.55 5.93-9.634 5.98-9.93l.06-.41-.4.008c-1.195.03-2.67-.215-2.958-1.557-.03-.147-.045-.317-.045-.49 0-2.34 2.936-6.1 6.914-7.96v51.125c-4.187 4.308-6.506 8.88-6.506 12.593 0 .846.12 1.645.362 2.386.742 2.215 2.594 3.705 5.248 4.164 3.535.623 7.624-.57 10.656-3.12 2.928-2.462 4.527-5.773 4.527-9.338V218.04c9.73-3.34 18.8-7.373 22.913-15.822 1.23-2.535 2.068-5.424 2.282-8.863.14-2.328-.097-4.52-.66-6.567-1.08-3.974-3.474-7.36-7.03-10.013zm-15.153 28.622l-2.03.385v-22.24l1.587-.104c6.957-.452 10.855 2.624 11.574 9.16.69 6.455-3.57 11.36-11.13 12.8z" id="Shape" fill="#CD1141"/><path d="M360.945 218.582l-2.178-1.593c0-.052-1.098-1.883-1.098-1.883l-.193-.31-7.707 5.49c.758 14.6-6.787 20.708-11.367 23.08-4.385 2.27-8.61 2.44-9.708 1.557-.25-.185-.22-.363-.19-.504 10.61-6.714 15.44-15.038 12.832-22.087-2.043-5.44-8.077-8.723-14.375-7.812-3.424.5-14.732 3.73-16.198 24.52.325 3.785-1.157 5.513-2.535 5.847-1.41.348-2.892-.578-3.574-2.26l.015-16.32c-.458-5.086-3.273-6.65-5.764-6.44-2.86.25-5.69 2.92-5.38 6.476v13.03c-.386 2.807-2.134 5.062-4.714 5.995-2.372.852-4.92.393-6.668-1.214-1.468-1.364-3.66-4.765-1.645-12.244 5.32-10.34 7.29-19.01 7.35-25.754.014-2.95-.312-5.515-.934-7.67-.415-1.453-.92-2.794-1.542-3.863-1.66-2.8-3.972-4.387-6.535-4.468-2.773-.045-5.885.2-7.975 2.408-1.808 1.92-2.55 5.078-2.208 9.376l-.016 35.552c-.887 4.796-2.888 6.455-4.415 6.99-1.77.622-3.882.044-5.78-1.58-.008-.053-.26-.54-.26-.54-.6-1.194-1.2-2.34-1.2-4.817 0-1.34.177-3.084.623-5.425 4.95-11.064 7.507-20.93 7.507-28.34 0-4.092-.77-7.434-2.364-9.813-1.72-2.58-4.385-3.9-7.69-3.81-2.898.052-5.04.845-6.537 2.432-1.94 2.05-2.8 5.372-2.616 10.123v37.694c.023 1.95-.71 3.432-2.068 4.188-1.282.703-2.928.645-4.188-.164-1.23-.793-1.844-2.134-1.72-3.764v-14.038c.097-2.965-.984-5.313-2.97-6.462-1.66-.956-3.712-.92-5.336.11-1.955 1.217-2.964 3.574-2.756 6.455l-.008 15.083c-.067 2.29-2.014 3.364-3.92 3.41-2.103.05-4.333-1.104-4.526-3.433v-16.272c-.718-5.988-2.794-9.805-6.158-11.39-4.832-2.276-10.56.7-12.094 1.592v-22.554c.045-.356.06-.71.06-1.044 0-2.446-.948-4.366-2.72-5.455-2.038-1.252-4.854-1.17-7.018.215-2.098 1.34-3.12 3.616-2.81 6.254v56.86c-.302 2.156.438 3.995 2.1 5.135 2.037 1.38 5.143 1.47 7.41.202 1.934-1.09 2.933-2.935 2.823-5.195v-20.282c-.24-1.202 1.215-2.617 2.978-2.987.763-.164 3.372-.43 4.135 3.053l-.006 18.892c.067 3.698 2.164 6.27 5.92 7.255 4.956 1.304 11.567-.512 13.745-3.654 2.957 2.93 6.18 4.454 9.567 4.418 5.46-.06 9.358-3.83 10.01-4.498 2.6 2.71 5.595 4.216 8.965 4.357 6.81.274 12.575-4.678 13.345-5.382 11.027 11.205 24.23 1.49 25.195.756 6.017 6.33 13.665 5.582 18.867 2.682 1.423-.8 2.623-1.83 2.934-2.653 8.818 5.15 16.836 6.432 23.786 3.573 13.086-5.396 18.23-23.324 18.777-25.355 5.306 1.438 7.675 6.122 8.06 9.79.045.402.06.787.06 1.164 0 2.402-.844 4.292-2.253 4.958-1.764.83-4.252-.26-7.04-3.076-2.652.735-6.21 6.886-6.358 7.145 7.677 7.19 13.442 7.064 16.925 5.76 5.573-2.09 8.79-8.317 9.29-12.074.15-1.112.224-2.18.224-3.195.004-10.407-7.88-16.15-16.195-22.198zm-106.682 2.394l-.393.067v-22.42l.2-.104c.46-.202.92-.17 1.335.08 1.67 1.024 2.328 5.642 2.43 8.183-.578 9.397-1.72 13.912-3.572 14.193zm22.74 0l-.4.067v-22.42l.208-.104c.46-.202.92-.17 1.334.08 1.66 1.024 2.342 5.642 2.432 8.154-.564 9.287-1.734 13.94-3.572 14.222zm44.034 15.252c-.328-.185-.475-.46-.55-.867-.297-1.66.8-5.18 3.142-7.966l.042-.052c1.07-1.912 3.245-3.528 5.575-4.107 1.333-.334 2.504-.26 3.243.207 0 .037.4 1.126.4 1.126.016.215.032.445.032.698 0 1.987-.83 4.847-2.565 6.885-2.15 2.483-5.706 4.522-7.928 4.55l-1.393-.472z" id="Shape" fill="#CD1141"/><path d="M233.003 192.568c-.037-.127-.163-.207-.282-.207-.132 0-.243.083-.288.208l-3.35 9.553-7.298-.2c-.127 0-.238.074-.275.193-.023.036-.023.067-.023.102 0 .09.037.178.096.23l6.55 5.78c-.178.008-2.92 8.91-2.92 8.91-.008.03-.008.06-.008.088 0 .096.037.193.12.252.11.074.26.074.37-.008 0 0 7.172-5.558 7.194-5.58.006.274 6.868 5.58 6.868 5.58.097.082.238.082.348.008.09-.06.134-.156.134-.252 0-.03 0-.06-.015-.088l-2.838-9.213c.082.082 3.246-2.662 5.114-4.292l1.357-1.185c.088-.082.127-.215.088-.334-.06-.118-.17-.192-.29-.192h-7.573s.008-.008.008-.03c.003-.538-3.087-9.32-3.087-9.32" id="Shape" fill="#00529B"/><path d="M303.518 201.922c.016-.008.016-.008.016-.03 0-.542-3.084-9.324-3.084-9.324-.043-.127-.163-.207-.296-.207-.12 0-.236.083-.283.208l-3.348 9.553-7.29-.2c-.134 0-.24.074-.284.193-.03.036-.03.067-.03.102 0 .09.043.178.103.23 0 0 6.552 5.774 6.567 5.78-.177.008-2.935 8.91-2.935 8.91 0 .03-.014.06-.014.088 0 .096.043.193.133.252.104.074.253.074.357-.008 0 0 7.174-5.558 7.2-5.58 0 .274 6.864 5.58 6.864 5.58.104.082.25.082.357.008.088-.06.133-.156.133-.252 0-.03 0-.06-.016-.088 0 0-2.83-9.19-2.83-9.213.103.12 6.46-5.477 6.46-5.477.09-.082.12-.215.074-.334-.043-.118-.147-.192-.28-.192.003.004-7.542.004-7.57.004" fill="#00529B"/></g></svg>