<svg width="512" height="512" viewBox="0 0 512 512" xmlns="http://www.w3.org/2000/svg"><title>san-diego-padres</title><g fill="none" fill-rule="evenodd"><path d="M429.555 256.64c0 22.763-4.525 45.522-13.237 66.554-8.712 21.032-21.6 40.325-37.7 56.42-16.095 16.1-35.388 28.99-56.42 37.7-21.032 8.714-43.79 13.24-66.558 13.24-22.763 0-45.52-4.526-66.55-13.24-21.037-8.71-40.325-21.6-56.424-37.7-16.1-16.095-28.99-35.388-37.7-56.42-8.713-21.032-13.24-43.79-13.24-66.554 0-22.767 4.527-45.523 13.24-66.554 8.71-21.032 21.6-40.325 37.7-56.424 16.1-16.1 35.387-28.99 56.423-37.7 21.03-8.712 43.787-13.238 66.55-13.238 22.767 0 45.526 4.526 66.558 13.238 21.032 8.71 40.325 21.6 56.42 37.7 16.1 16.1 28.988 35.392 37.7 56.424 8.712 21.03 13.237 43.787 13.237 66.554z" fill="#1C3465"/><path d="M374.507 406.402v-6.772h-2.42v-1.375h6.48v1.375h-2.416v6.772h-1.643z" fill="#1C3465"/><path d="M380.242 406.402v-8.147h2.463l1.478 5.556 1.463-5.555h2.466v8.147h-1.526v-6.416l-1.62 6.416h-1.58l-1.614-6.416v6.416h-1.53z" fill="#1C3465"/><path d="M255.39 133.52c-15.988 0-31.964 3.173-46.73 9.296-14.772 6.12-28.306 15.166-39.607 26.47-11.304 11.305-20.344 24.847-26.458 39.614-6.115 14.767-9.28 30.728-9.277 46.708 0 15.98 3.162 31.94 9.277 46.708 6.114 14.767 15.154 28.31 26.458 39.614 11.3 11.304 24.835 20.356 39.606 26.474 14.766 6.12 30.742 9.293 46.73 9.293 15.99 0 31.954-3.174 46.725-9.293l.08-.04c14.738-6.118 28.244-15.154 39.525-26.438 11.3-11.305 20.344-24.847 26.455-39.614 6.115-14.767 9.28-30.727 9.277-46.708 0-15.98-3.162-31.94-9.277-46.708-6.11-14.767-15.154-28.31-26.455-39.613-11.304-11.305-24.838-20.352-39.605-26.47l-.15-.06c-14.728-6.08-30.64-9.237-46.574-9.237v.004zm0 5.363c15.27 0 30.547 3.04 44.654 8.886 14.11 5.845 27.055 14.497 37.854 25.3 10.794 10.802 19.447 23.755 25.285 37.866 5.846 14.11 8.877 29.395 8.873 44.668 0 15.277-3.027 30.558-8.873 44.673-5.838 14.11-14.494 27.067-25.293 37.87-10.8 10.8-23.743 19.455-37.854 25.3-14.107 5.843-29.384 8.882-44.653 8.882-15.273 0-30.55-3.04-44.657-8.882-14.107-5.846-27.064-14.502-37.862-25.3l-.103-.112c-10.687-10.723-19.272-23.553-25.094-37.534l-.095-.225c-5.84-14.115-8.877-29.396-8.873-44.673 0-15.273 3.032-30.557 8.874-44.668 5.843-14.115 14.5-27.072 25.294-37.87 10.798-10.803 23.755-19.455 37.862-25.3 14.107-5.847 29.384-8.887 44.657-8.887l.008.003z" fill="#FFF"/><path d="M255.493 90.736c-21.57 0-43.123 4.29-63.052 12.542-19.924 8.257-38.193 20.463-53.45 35.72-15.253 15.253-27.463 33.518-35.718 53.45-8.256 19.93-12.54 41.484-12.54 63.057 0 21.574 4.284 43.135 12.54 63.07 8.255 19.928 20.465 38.197 35.718 53.45 15.257 15.253 33.526 27.46 53.45 35.714 19.93 8.255 41.484 12.543 63.053 12.543 21.57 0 43.116-4.288 63.04-12.544 19.875-8.232 38.1-20.395 53.326-35.59l.125-.125c15.253-15.253 27.467-33.522 35.72-53.45 8.257-19.935 12.542-41.496 12.542-63.07 0-21.573-4.285-43.127-12.542-63.056-8.253-19.934-20.467-38.2-35.72-53.452-15.253-15.257-33.522-27.463-53.45-35.72-19.926-8.253-41.472-12.542-63.042-12.542zm0 5.388c20.862 0 41.732 4.158 61.005 12.142 19.273 7.984 36.953 19.8 51.705 34.546 14.747 14.75 26.57 32.443 34.553 51.716 7.98 19.27 12.13 40.12 12.13 60.977 0 20.855-4.15 41.716-12.13 60.986l-.05.12c-7.98 19.225-19.784 36.877-34.503 51.597-14.752 14.75-32.432 26.56-51.705 34.545-19.273 7.984-40.143 12.133-61.005 12.133-20.86 0-41.727-4.15-61-12.133-19.277-7.984-36.965-19.794-51.717-34.545-14.75-14.75-26.573-32.443-34.554-51.716-7.98-19.27-12.133-40.13-12.133-60.985 0-20.826 4.136-41.644 12.093-60.89l.04-.087c7.98-19.273 19.802-36.965 34.553-51.716 14.752-14.747 32.44-26.562 51.717-34.546 19.273-7.984 40.14-12.142 61-12.142z" fill="#FFF"/><path d="M220.797 165.926c-9.62 0-18.08 4.447-23.336 10.273-5.256 5.825-8.308 13.798-8.308 21.71v31.52c0 6.098 2.838 11.71 6.554 15.162 3.72 3.45 8.26 6.087 15.506 6.09h52.82c1.035 0 2.054.518 2.69 1.242.637.723.945 1.585.945 2.36v29.34c0 3.146-1.312 6.245-3.118 8.312-1.808 2.07-5.033 4.502-9.926 4.502h-8.004v-39h-17.985v39h-17.83c-1.142 0-1.988-.447-2.664-1.122-.675-.676-1.03-1.65-1.03-2.574 0-1.197.066-17.118.066-17.118s0-1.846.487-2.854c.403-.834.818-1.696 1.45-2.372.775-.826 1.72-1.537 2.767-1.96 1.24-.502 3.976-.61 3.976-.61v-1.197h-26.7v26.112c0 4.99 1.803 10.835 6.222 15.265 4.42 4.43 9.664 6.43 15.43 6.43h17.83v23.678c0 1.75-.702 3.616-2.29 5.166-1.59 1.554-3.57 2.147-4.464 2.372-.89.226-1.07.26-2.664.47v1.02l64.12-.04c10.52 0 21.42-4.493 28.565-12.094 5.538-5.894 11.02-14.42 11.02-27.368 0-6.98-.284-53.448 0-67.8.257-13.055-7.7-23.802-12.735-28.308-5.032-4.51-13.85-10.384-26.562-10.384-6.652 0-63.685.04-63.685.04v1.138s1.467.05 1.973.04c2.205.04 3.557.853 4.786 2.166 1.23 1.308 1.95 1.73 1.95 5.158v23.052h-17.83c-1.238 0-2.152-.558-2.808-1.305-.652-.747-.89-1.486-.89-2.56v-32.262c0-3.49 1.155-5.874 2.942-8.226 1.782-2.35 5.628-4.487 9.54-4.487h42.8c1.12 0 2.072.296 2.87 1.11.802.81 1.142 1.59 1.142 2.487s-.185 2.04-1.636 3.13c-1.644 1.11-3.613 1.08-3.613 1.08v1.205h24.482v-8.878c0-4.937-1.59-9.316-5.482-12.842-3.89-3.526-7.756-5.265-17.13-5.265h-42.227l-.016-.004zm25.823 53.286h39.016c5.826 0 10.49 2.067 13.9 5.72 3.416 3.655 5.397 8.442 5.397 12.557v72.786c0 5.012-2.103 9.97-5.514 13.325-3.412 3.352-8.598 5.51-13.416 5.51H246.62v-14.676h10.395c6.27 0 13.66-1.853 20.12-8.07 6.46-6.222 8.5-14.487 8.5-20.385v-31.037c0-6.355-2.11-11.767-6.28-15.893-4.17-4.127-9.676-6.316-15.45-6.316H246.62v-13.522z" stroke="#FFF" stroke-width=".625" fill="#FFF"/><path d="M115.017 222.22c-.24.85-.537 1.47-.885 1.858-.348.39-.988.47-1.913.233-.693-.11-1.156-.433-1.39-.97-.232-.535-.133-1.64.298-3.317.276-1.29.616-2.186 1.02-2.688.403-.502 1.197-.593 2.38-.28l1.584-6.175-.996-.257c-2.186-.533-3.874-.482-5.063.155-1.185.64-2.08 1.668-2.677 3.083-.6 1.416-1.107 3.016-1.524 4.81-.577 2.1-.92 3.946-1.024 5.54-.103 1.59.266 2.93 1.11 4.022.843 1.087 2.398 1.93 4.664 2.522 2.26.573 3.98.617 5.158.127 1.182-.486 2.083-1.395 2.712-2.73.628-1.333 1.245-2.98 1.846-4.95l.462-1.387c.423-1.45.802-2.355 1.138-2.715.332-.36.996-.388 1.977-.083.984.23 1.533.68 1.644 1.356.114.673-.04 1.752-.456 3.234-.355 1.557-.778 2.59-1.264 3.095-.49.5-1.336.584-2.542.244l-1.585 6.174c2.593.656 4.57.703 5.933.154 1.36-.553 2.368-1.557 3.024-3.02.66-1.458 1.225-3.225 1.707-5.296.866-3.48 1.115-6.052.743-7.728-.375-1.672-1.118-2.814-2.237-3.423-1.122-.604-2.363-1.05-3.735-1.332-2.656-.763-4.593-.628-5.81.403-1.218 1.032-2.356 3.273-3.423 6.724l-.878 2.62z" fill="#FFF"/><path d="M136.678 195.615l4.423.668 2.91-6.118-25.744-3.85-4.328 9.118 19.28 17.435 2.965-6.237-3.34-2.947 3.835-8.068zm-4.95-.88l-2.65 5.58-8.448-7.364.04-.058 11.07 1.842h-.01z" fill="#FFF"/><path d="M133.954 171.492l.162-.213 19.443 6.098 6.912-8.97-19.727-15.197-4.052 5.258 15.392 11.36-.162.21-19.506-6.02-6.85 8.893 19.723 15.2 4.056-5.262-15.392-11.356z" fill="#FFF"/><path d="M173.164 156.706l11.155-7.63c2.825-1.92 4.33-3.948 4.524-6.074.194-2.13-.687-4.58-2.652-7.356l-2.94-4.3c-1.96-2.898-4.032-4.502-6.214-4.82-2.186-.31-4.688.523-7.518 2.503l-10.415 7.122 14.06 20.554zm-5.316-19.534l4.798-3.28c.93-.685 1.77-.96 2.514-.83.75.13 1.562.845 2.447 2.145l2.94 4.3c.764 1.088 1.14 2.084 1.135 2.993 0 .91-.506 1.71-1.502 2.407l-4.794 3.28-7.538-11.015z" fill="#FFF"/><path d="M190.825 117.04l-5.97 2.914 10.914 22.38 5.968-2.91-10.913-22.383z" fill="#FFF"/><path d="M206.362 116.646l10.748-3.554-1.708-5.17-17.056 5.637 7.815 23.643 17.278-5.707-1.708-5.174-10.972 3.628-1.522-4.605 10.09-3.332-1.45-4.383-10.087 3.336-1.428-4.32z" fill="#FFF"/><path d="M247.782 110.432c-.348-2.56-1.055-4.344-2.127-5.344-1.067-.996-2.438-1.514-4.106-1.55-1.67-.04-3.575.104-5.713.432-2.43.272-4.49.747-6.182 1.42-1.688.675-2.917 1.746-3.688 3.224-.766 1.474-.98 3.557-.648 6.245l.82 6.387c.34 2.636 1.033 4.57 2.08 5.806 1.048 1.233 2.47 1.968 4.265 2.202 1.8.237 3.992.17 6.577-.194 2.917-.34 5.14-.865 6.668-1.568 1.526-.704 2.503-1.81 2.93-3.317.426-1.502.45-3.624.07-6.367l-.557-4.313-11.23 1.443.59 4.577 4.545-.585c.25 1.668.103 2.83-.43 3.487-.534.66-1.63 1.07-3.28 1.245-1.693.288-2.978.19-3.855-.297-.874-.486-1.443-1.794-1.708-3.913l-.513-4.016c-.317-1.96-.26-3.395.173-4.304.43-.905 1.787-1.494 4.068-1.763 1.023-.187 1.976-.21 2.854-.068.873.142 1.446.806 1.71 1.992l6.685-.862z" fill="#FFF"/><path d="M264.592 128.405c3.412.348 6.21 0 8.392-1.08 2.178-1.066 3.435-3.462 3.767-7.18l.52-7.02c.212-3.732-.68-6.286-2.68-7.66-2-1.377-4.717-2.14-8.144-2.294-3.41-.347-6.205 0-8.387 1.08-2.183 1.068-3.44 3.463-3.772 7.186l-.514 7.016c-.217 3.73.676 6.285 2.676 7.66 2.004 1.376 4.715 2.14 8.142 2.293zm.427-5.763c-1.7-.06-2.882-.364-3.546-.91-.66-.54-.937-1.71-.826-3.505l.41-5.597c.155-1.775.598-2.882 1.33-3.32.734-.435 1.948-.562 3.635-.376 1.708.063 2.902.368 3.58.91.68.54.946 1.7.792 3.474l-.41 5.593c-.112 1.795-.543 2.914-1.294 3.352-.754.44-1.975.566-3.67.38z" fill="#FFF"/><path d="M298.352 135.223l2.277-5.957 5.49 2.1c3.145 1.248 5.528 1.418 7.137.51 1.61-.914 2.992-3 4.154-6.258 1.183-3.004 1.412-5.415.693-7.233-.72-1.818-2.51-3.26-5.375-4.328l-11.696-4.467-8.882 23.262 6.202 2.37zm4.336-11.352l2.486-6.513 4.25 1.625c1.185.427 1.865.944 2.047 1.55.182.6.04 1.485-.45 2.647-.518 1.462-1.032 2.33-1.542 2.6-.505.27-1.355.174-2.54-.284l-4.25-1.625z" fill="#FFF"/><path d="M329.546 146.085l-1.162 4.316 5.75 3.582 6.728-25.142-8.57-5.333-19.497 17.198 5.86 3.65 3.31-2.99 7.58 4.72zm1.435-4.818l-5.244-3.265 8.265-7.566.06.04-3.08 10.795v-.003z" fill="#FFF"/><path d="M335.72 155.385l9.83 9.27c2.482 2.347 4.783 3.39 6.905 3.126 2.12-.264 4.328-1.65 6.617-4.157l3.577-3.795c2.406-2.533 3.537-4.897 3.38-7.1-.16-2.196-1.507-4.465-4.05-6.81l-9.18-8.65-17.08 18.117zm17.95-9.36l4.228 3.985c.866.767 1.316 1.526 1.348 2.284.04.755-.49 1.704-1.573 2.842l-3.577 3.795c-.898.973-1.795 1.554-2.684 1.744-.89.19-1.78-.13-2.672-.953l-4.225-3.983 9.154-9.71z" fill="#FFF"/><path d="M368.724 172.338l5.506-3.885 2.97 4.2c.63.867.892 1.583.78 2.144-.113.557-.623 1.146-1.528 1.76-1.103.852-1.98 1.347-2.63 1.477-.647.126-1.358-.368-2.133-1.494l-2.966-4.202zm-13.948 1.716l3.83 5.427 5.4-3.81 2.963 4.202c.56.818.735 1.565.525 2.24-.21.68-.71 1.274-1.506 1.784l-2.847 2.012 3.83 5.427 4.095-2.894c1.147-.825 1.787-1.777 1.933-2.856.147-1.08-.157-2.194-.908-3.348l.217-.155c1.743 1.535 3.268 2.14 4.573 1.82 1.308-.32 2.778-1.12 4.41-2.392 2.47-1.743 3.712-3.486 3.724-5.233 0-1.747-.826-3.783-2.506-6.11l-7.39-10.47-20.344 14.36z" fill="#FFF"/><path d="M389.547 193.315l4.68 10.308 4.956-2.253-7.427-16.356-22.672 10.3 7.526 16.566 4.956-2.253-4.778-10.518 4.415-2.01 4.39 9.677 4.203-1.91-4.392-9.675 4.143-1.877z" fill="#FFF"/><path d="M395.258 221.256c-.185-.866-.217-1.55-.094-2.06.122-.505.648-.877 1.573-1.106.664-.23 1.225-.162 1.683.2.46.36.894 1.38 1.31 3.065.362 1.265.49 2.213.37 2.85-.122.632-.778 1.087-1.968 1.37l1.522 6.19 1-.244c2.178-.56 3.64-1.402 4.383-2.525.747-1.126 1.048-2.454.905-3.98-.138-1.53-.45-3.182-.925-4.96-.486-2.127-1.055-3.914-1.715-5.368-.66-1.45-1.62-2.46-2.878-3.02-1.26-.565-3.027-.57-5.304 0-2.26.565-3.798 1.336-4.61 2.324-.805.985-1.173 2.215-1.098 3.69.08 1.47.313 3.216.712 5.232l.253 1.443c.308 1.478.403 2.454.277 2.933-.127.474-.696.81-1.704 1.008-.976.26-1.672.122-2.09-.42-.416-.54-.79-1.56-1.124-3.067-.422-1.538-.54-2.65-.347-3.325.188-.676.896-1.146 2.117-1.42l-1.518-6.19c-2.597.654-4.36 1.543-5.3 2.67-.938 1.13-1.353 2.494-1.242 4.09.11 1.597.443 3.42 1 5.475.877 3.474 1.877 5.858 2.996 7.158 1.12 1.3 2.316 1.953 3.59 1.96 1.272 0 2.576-.185 3.92-.588 2.704-.58 4.344-1.617 4.93-3.1.584-1.482.532-3.995-.16-7.54l-.466-2.724v-.02z" fill="#FFF"/><path d="M136.737 348.847l6.107 6.7c1.174 1.383 2.308 2.22 3.39 2.517 1.084.297 2.376-.237 3.882-1.604.827-.704 1.36-1.43 1.605-2.182.242-.747 0-1.61-.77-2.58l.135-.124c.877.684 1.688.933 2.43.747.744-.19 1.507-.66 2.29-1.414 1.33-1.233 1.897-2.39 1.687-3.47-.205-1.08-.9-2.234-2.09-3.463l-6.044-6.628-12.62 11.502zm12.93-5.62l2.576 2.825c.403.467.58.842.538 1.127-.043.283-.26.588-.648.912-.482.462-.897.664-1.25.61-.35-.057-.785-.38-1.295-.97l-2.21-2.423 2.29-2.084zm-4.63 4.217l2.38 2.608c.506.526.786.973.842 1.336.05.368-.175.78-.69 1.234-.497.462-.952.652-1.355.57-.403-.084-.85-.4-1.336-.954l-2.317-2.54 2.474-2.254z" fill="#FFF"/><path d="M162.737 369.772l-1.182 2.83 3.59 2.953 6.837-16.487-5.344-4.395-14.806 9.93 3.66 3.01 2.518-1.734 4.727 3.892zm1.407-3.146l-3.27-2.692 6.302-4.395.04.038-3.068 7.06-.004-.012z" fill="#FFF"/><path d="M182.073 374.167c-.505-.336-.85-.656-1.035-.964-.182-.308-.103-.743.24-1.297.218-.43.527-.668.922-.71.4-.04 1.103.252 2.11.876.787.447 1.3.85 1.546 1.218.245.367.146.91-.304 1.616l3.71 2.31.373-.602c.802-1.32 1.114-2.435.94-3.34-.173-.91-.66-1.708-1.462-2.387-.802-.684-1.747-1.344-2.834-1.99-1.254-.81-2.392-1.41-3.412-1.805s-1.976-.43-2.862-.103c-.885.327-1.755 1.17-2.61 2.533-.836 1.36-1.22 2.474-1.145 3.348.08.87.487 1.65 1.23 2.333.744.684 1.696 1.427 2.858 2.23l.814.584c.862.573 1.38 1.012 1.542 1.305.17.292.05.73-.352 1.312-.352.597-.76.86-1.225.794-.463-.063-1.138-.387-2.02-.964-.95-.554-1.534-1.04-1.763-1.463-.233-.422-.11-.995.36-1.71l-3.716-2.308c-.956 1.56-1.4 2.845-1.316 3.85.08 1 .53 1.87 1.348 2.596.822.73 1.858 1.467 3.115 2.21 2.095 1.28 3.73 1.972 4.9 2.075 1.175.1 2.072-.154 2.7-.763.63-.605 1.18-1.328 1.64-2.166 1.048-1.58 1.357-2.878.934-3.88-.424-1.013-1.657-2.22-3.697-3.626l-1.53-1.11z" fill="#FFF"/><path d="M200.987 381.223l7.1 3.146 1.513-3.412-11.258-4.996-6.93 15.61 11.41 5.058 1.513-3.415-7.242-3.21 1.348-3.04 6.66 2.953 1.282-2.893-6.66-2.952 1.265-2.85z" fill="#FFF"/><path d="M211.758 399.903l8.743 2.39c1.736.54 3.14.644 4.21.314 1.076-.332 1.882-1.475 2.423-3.43.32-1.04.384-1.942.186-2.705-.195-.763-.87-1.352-2.032-1.767l.047-.178c1.11.11 1.93-.114 2.455-.668.525-.558.917-1.364 1.173-2.424.467-1.755.33-3.03-.426-3.834-.755-.802-1.96-1.403-3.625-1.806l-8.652-2.364-4.502 16.47zm7.913-11.668l3.69 1.008c.588.18.943.4 1.054.664.115.264.1.64-.055 1.118-.16.648-.405 1.044-.733 1.182-.328.142-.865.103-1.612-.122l-3.162-.862.818-2.988zm-1.65 6.04l3.402.932c.71.17 1.186.395 1.427.676.244.28.268.75.078 1.41-.174.657-.455 1.06-.838 1.207-.388.146-.933.118-1.637-.09l-3.316-.906.882-3.23z" fill="#FFF"/><path d="M244.88 403.487l.578 3.014 4.62.486-3.375-17.526-6.882-.723-6.88 16.445 4.707.496 1.143-2.832 6.09.64zm-.557-3.402l-4.21-.443 2.835-7.142h.047l1.332 7.58-.004.005z" fill="#FFF"/><path d="M261.517 389.7l-4.55.215.81 17.057 11.665-.553-.185-3.958-7.12.337-.62-13.1z" fill="#FFF"/><path d="M278.89 387.72l-4.47.874 3.267 16.76 11.467-2.236-.76-3.887-6.995 1.365-2.51-12.874z" fill="#FFF"/><path d="M317.166 385.776l.218.45c.42.87.474 1.52.162 1.94-.31.428-.897.828-1.763 1.203-1.178.576-2.032.687-2.557.327-.526-.36-1.036-1.118-1.534-2.284l-1.15-2.4c-.562-1.063-.787-1.89-.688-2.478.1-.585.72-1.142 1.854-1.668.695-.364 1.308-.56 1.83-.6.526-.04.988.252 1.383.88l.29.594 4.23-2.027-.29-.593c-.75-1.506-1.53-2.51-2.335-3.016-.807-.506-1.716-.644-2.74-.415-1.02.228-2.23.69-3.624 1.39-1.52.7-2.758 1.447-3.703 2.242-.948.794-1.51 1.747-1.684 2.865-.174 1.12.135 2.518.933 4.198l1.91 3.98c.893 1.838 1.85 3.024 2.87 3.558 1.02.533 2.118.644 3.303.332 1.185-.313 2.474-.823 3.865-1.53.91-.407 1.75-.866 2.526-1.376.775-.51 1.38-1.21 1.82-2.096.386-.91.48-1.77.276-2.585-.202-.815-.518-1.637-.953-2.467l-.217-.45-4.23 2.023z" fill="#FFF"/><path d="M326.103 368.365l-3.802 2.51 9.408 14.25 9.747-6.436-2.182-3.305-5.948 3.925-7.222-10.945z" fill="#FFF"/><path d="M344.712 354.088l7.257 8.383c.64.725.896 1.31.762 1.76-.13.45-.57.977-1.312 1.574-.7.66-1.316 1.08-1.846 1.26-.526.182-1.1-.075-1.708-.774l-7.387-8.538-3.444 2.98 7.447 8.605c.866 1.052 1.704 1.8 2.514 2.233.81.435 1.76.45 2.846.044 1.083-.403 2.474-1.344 4.17-2.814 1.91-1.597 3.02-3.09 3.332-4.48.316-1.39-.265-2.924-1.74-4.604l-7.45-8.608-3.443 2.98z" fill="#FFF"/><path d="M366.033 357.36l5.9-6.877c1.23-1.336 1.926-2.56 2.084-3.672.162-1.11-.526-2.33-2.063-3.655-.803-.735-1.59-1.174-2.364-1.324-.77-.15-1.597.21-2.466 1.08l-.14-.12c.57-.955.72-1.79.444-2.505-.277-.71-.838-1.41-1.684-2.098-1.387-1.17-2.6-1.59-3.648-1.253-1.048.336-2.107 1.173-3.182 2.502l-5.842 6.806 12.96 11.12zm-7.163-12.142l2.49-2.9c.416-.46.767-.685 1.056-.673.285 0 .613.186.984.534.518.418.77.805.755 1.16 0 .36-.277.827-.798 1.408l-2.135 2.49-2.352-2.02zm4.755 4.08l2.297-2.68c.458-.566.866-.902 1.225-1 .356-.1.79.08 1.305.533.52.44.763.863.73 1.278-.04.41-.292.89-.782 1.44l-2.237 2.607-2.54-2.178h.002z" fill="#FFF"/></g></svg>