<svg width="512" height="512" viewBox="0 0 512 512" xmlns="http://www.w3.org/2000/svg"><title>san-diego-padres</title><path d="M329.363 226.705c-.145 31.32.166 93.157.166 120.612 0 19.81-15.777 30.405-35.41 30.405-22.066 0-60.986.04-60.986.04l.23-24.708h15.857c28.626 0 47.365-20.755 47.365-47.973l-.08-.022c1.533-29.43.847-51.124.847-54.322 0-11.718-9.565-34.31-37.38-34.31h-26.028l-.046-23.974h61.522c20.592 0 33.94 14.898 33.94 34.053v.202zm-36.992-60.49l-104.483.03c-.814 0-.77 1.39 0 1.39.81 0 14.053 1.214 14.053 13.385l.06 35.405c-15.692 0-25.406.067-27.248 0-5.98-.078-7.316-5.05-7.143-7.95 0-.326-.175-30.285.04-49.024.31-15.257 8.5-23.05 22.834-23.05l66.958-.34c4.003 0 7.47 1.85 7.47 6.75 0 4.938-5.214 6.358-6.122 6.8-.395.227-.48.843-.038.843h39.185l-.492-12.79c-.318-9.377-6.107-31.46-35.19-31.46l-78.733-.17.046-.032c-28.622 0-48.673 20.423-48.55 47.807l.058.535c-.057 16.315-.453 39.244-.534 53.933-.1 18.088 15.587 36.842 37.427 36.842h87.276c6.018 0 7.635 5.503 7.635 7.61 0 .75.234 27.89.146 47.505l-.184.13c.04 12.46-8.265 22.28-21.21 22.28h-12.897l.215-65.425-31.01-.194v65.728c-15.632 0-26.42.178-27.73.178-6.46 0-7.85-5.45-7.85-7.935 0-1.385.085-22.016.124-29.622.09-8.61 12.356-11.12 12.356-11.12l-.13-.873h-44.5s-.128 30.578-.21 45.483c-.098 16.105 13.474 34.197 32.796 34.197h34.79l-.227 32.125c-.087 12.358-7.916 18.275-14.74 20.354-.313 0-.355.62.04.62h105.257v.1c43.234 0 67.503-21.17 67.503-63.838v-112.7c0-43.07-24.268-63.504-67.05-63.504zm65.235 237.718v-9.002h3.306v-1.967h-8.853v1.97h3.31v9h2.24zm18.292 0v-10.97h-3.854l-2.656 7.166h-.046l-2.555-7.17h-3.872v10.97h2.24v-8.724h.055l3.063 8.726h2.16l3.173-8.726h.06v8.726h2.235z" fill="#002D62" fill-rule="evenodd"/></svg>