<svg width="512" height="512" viewBox="0 0 512 512" xmlns="http://www.w3.org/2000/svg"><title>san-francisco-giants</title><g fill="none" fill-rule="evenodd"><path d="M122.205 255.412c0 71.91 58.615 130.403 130.648 130.403 72.032 0 130.658-58.492 130.658-130.403C383.51 183.5 324.89 125 252.86 125s-130.65 58.5-130.65 130.412zm8.336 0c0-67.322 54.87-122.096 122.32-122.096 67.45 0 122.33 54.774 122.33 122.096 0 67.318-54.87 122.094-122.32 122.094-67.44 0-122.312-54.773-122.312-122.094z" fill="#BC9B6A"/><path d="M252.853 381.673c69.846 0 126.488-56.53 126.488-126.26 0-69.727-56.64-126.257-126.48-126.257-69.85 0-126.48 56.53-126.48 126.258 0 69.73 56.63 126.26 126.49 126.26" fill="#FFF"/><path d="M128.503 272.63c-.388 0-.7.05-.952.136-.14-1.192-.31-2.39-.43-3.61.27.076.81.122 1.4.122 1.17 0 1.61 1.166 1.61 1.736 0 .558-.31 1.617-1.61 1.617" fill="#FFE1BB"/><path d="M379.34 255.412c0 69.73-56.64 126.26-126.487 126.26-21.256 0-41.28-5.24-58.86-14.488.12-.103.186-.25.186-.41 0-.33-.27-.597-.59-.597-.29 0-.52.218-.58.494-5.53-2.97-10.81-6.34-15.82-10.08 0-.03.003-.05.003-.07 0-.41-.334-.74-.747-.74-.105 0-.2.015-.283.05-.9-.663-1.77-1.363-2.646-2.064.2-.16.32-.39.32-.654 0-.455-.35-.834-.817-.834-.327 0-.605.197-.74.464-.85-.71-1.707-1.44-2.547-2.16.433-.068.77-.437.77-.908 0-.495-.41-.896-.91-.896-.482 0-.886.383-.902.873-.89-.8-1.765-1.6-2.63-2.42h.11c.538 0 .985-.434.985-.983 0-.54-.444-.98-.983-.98-.554 0-.99.435-.99.98 0 .06.004.11.01.155-.855-.822-1.706-1.67-2.544-2.51.033 0 .07.005.093.005.6 0 1.077-.476 1.077-1.064 0-.6-.48-1.065-1.077-1.065-.577 0-1.07.468-1.07 1.065 0 .01.01.043.01.055-.747-.77-1.486-1.552-2.21-2.356.564-.06.993-.545.993-1.12 0-.64-.515-1.148-1.145-1.148-.537 0-.99.36-1.108.866-.605-.67-1.19-1.35-1.78-2.04.414-.198.7-.62.7-1.095 0-.673-.555-1.224-1.238-1.224-.41 0-.764.196-.993.508-.52-.655-1.05-1.3-1.57-1.95.185-.21.29-.467.29-.752 0-.63-.53-1.153-1.15-1.153-.185 0-.345.053-.507.126-3.497-4.6-6.69-9.456-9.546-14.525.58-.068 1.43-.4 1.43-1.547 0-1.478.17-1.697 1.78-1.697.825 0 1.59.694 1.59 1.694s-.43 1.794-1.605 1.794c-1.186 0-1.622.5-1.622 1.61 0 1.13.89 1.635 1.623 1.635.72 0 1.623-.502 1.623-1.632 0-1.11.72-1.54 1.814-1.54.662 0 1.51.77 1.51 1.54 0 .79-.22 1.74-1.53 1.74-1.464 0-1.7.528-1.7 1.69 0 1.09.84 1.697 1.7 1.697 1.65 0 1.69-.047 1.69-1.697 0-1.084.655-1.505 1.758-1.505.28 0 1.467.51 1.467 1.504 0 .7-.13 1.562-1.47 1.562-1.69 0-1.76.13-1.76 1.85 0 .58.406 1.755 1.74 1.755 1.63 0 1.667.03 1.667 1.668 0 .7.207 1.76 1.757 1.76 1.55 0 1.632.02 1.632 1.665 0 .56.26 1.785 1.796 1.785 1.71 0 1.663.065 1.663 1.637 0 .777.478 1.757 1.763 1.757 1.66 0 1.76-.2 1.76-1.756 0-.82.47-1.47 1.686-1.47.63 0 1.455.647 1.455 1.47 0 1.034-.47 1.68-1.475 1.68-1.623 0-1.744.27-1.744 1.74 0 1.12.795 1.736 1.746 1.736.95 0 1.74-.703 1.74-1.735 0-.69.422-1.47 1.716-1.47.59 0 1.46.676 1.46 1.47 0 .555-.08 1.637-1.46 1.637-1.386 0-1.714.14-1.714 1.78 0 1.42 1.17 1.687 1.68 1.687s1.687-.34 1.687-1.688c0-.997.8-1.562 1.76-1.562.727 0 1.6.54 1.6 1.565 0 1.61-.656 1.79-1.615 1.79-1.293 0-1.63.155-1.63 1.633 0 1.423 1.2 1.61 1.63 1.61.423 0 1.624-.187 1.624-1.61 0-1.43.25-1.696 1.82-1.696.836 0 1.717.824 1.717 1.696 0 1.676.1 1.77 1.708 1.77 1.26 0 1.686.214 1.686 1.633 0 1.185.05 1.78 1.74 1.78s1.676.084 1.676 1.656c0 .77.15 1.82 1.75 1.82 1.606 0 1.78-1.26 1.78-1.82 0-.57.335-1.64 1.62-1.64 1.29 0 1.636.98 1.636 1.64 0 1.583-.065 1.624-1.633 1.624-1.394 0-1.494 1.227-1.494 1.787s.47 1.564 1.53 1.564c1.38 0 1.68-.83 1.68-1.562 0-1.632.05-1.7 1.72-1.7 1.206 0 1.71.8 1.71 1.7 0 1.384.372 1.706 1.72 1.706 1.85 0 1.832-.06 1.832-1.716 0-.56.34-1.583 1.585-1.583 1.25 0 1.598 1.03 1.598 1.58 0 .565-.1 1.588-1.596 1.588-1.48 0-1.7.155-1.7 1.84 0 1.133.59 1.557 1.716 1.557 1.137 0 1.75-.21 1.75-1.56 0-1.346 1.194-1.665 1.667-1.665.472 0 1.666.405 1.666 1.663 0 1.515.123 1.645 1.76 1.645 1.657 0 1.765.03 1.765 1.774 0 .99.43 1.552 1.672 1.552 1.264 0 1.64-.337 1.64-1.558 0-1.203 1.085-1.716 1.763-1.716.7 0 1.728.51 1.728 1.716 0 1.22.2 1.82 1.727 1.82 1.74 0 1.725-.267 1.725-1.82 0-.865.642-1.67 1.682-1.67 1.045 0 1.665.586 1.665 1.666 0 1.78.036 1.77 1.784 1.77 1.73 0 1.713.1 1.713 1.654 0 1.21.844 1.557 1.71 1.557s1.73-.294 1.73-1.554.008-1.603 1.69-1.603c1.7 0 1.734.43 1.734 1.604 0 1.17.53 1.557 1.7 1.557 1.175 0 1.763-.292 1.763-1.552s.1-1.655 1.663-1.655c1.56 0 1.718.448 1.718 1.66 0 1.207.537 1.555 1.708 1.555 1.17 0 1.775-.21 1.775-1.555 0-1.476.073-1.656 1.655-1.656 1.74 0 1.776.23 1.776 1.654s.605 1.554 1.645 1.554c1.05 0 1.82-.085 1.82-1.555 0-1.474.006-1.654 1.613-1.654 1.596 0 1.723.14 1.723 1.657 0 1.044 1 1.51 1.696 1.51.7 0 1.77-.38 1.77-1.51 0-1.603-.136-1.794-1.77-1.794-1.63 0-1.61-.108-1.61-1.63 0-.9.56-1.61 1.61-1.61 1.052 0 1.63.663 1.63 1.61 0 1.73.15 1.82 1.8 1.82 1.638 0 1.75-.05 1.75-1.82 0-.864.58-1.67 1.67-1.67 1.09 0 1.68.72 1.68 1.67 0 1.61.708 1.82 1.75 1.82 1.04 0 1.71-.517 1.71-1.82 0-1.3 1.06-1.72 1.724-1.72 1.63 0 1.725.16 1.725 1.72 0 1.383 1.178 1.61 1.7 1.61.52 0 1.65-.36 1.65-1.61 0-1.677-.145-1.8-1.65-1.8-1.494 0-1.622-.18-1.622-1.622 0-.862.53-1.62 1.624-1.62s1.63.715 1.63 1.62c0 1.6.175 1.65 1.798 1.65 1.61 0 1.76-.046 1.76-1.647 0-.955.657-1.66 1.666-1.66 1.006 0 1.67.507 1.67 1.662 0 1.166 1.06 1.647 1.75 1.647.7 0 1.706-.39 1.706-1.65 0-1.77-.202-1.84-1.704-1.84-.856 0-1.59-.45-1.59-1.585 0-1.125.89-1.583 1.59-1.583.714 0 1.586.43 1.586 1.585 0 1.605.194 1.712 1.844 1.712 1.666 0 1.71-.182 1.71-1.704 0-.735.405-1.7 1.734-1.7 1.586 0 1.71.195 1.71 1.7 0 .787.615 1.566 1.702 1.566s1.65-.957 1.65-1.563c0-1.296-.74-1.786-1.65-1.786-1.496 0-1.63.01-1.63-1.625 0-1.26.975-1.637 1.63-1.637 1.38 0 1.65.265 1.65 1.64 0 1.29 1.253 1.76 1.78 1.76.515 0 1.77-.21 1.77-1.76 0-1.57.14-1.653 1.66-1.653 1.515 0 1.77-.597 1.77-1.78 0-1.165.126-1.632 1.65-1.632 1.825 0 1.775-.16 1.775-1.77 0-.356.56-1.657 1.655-1.657 1.73 0 1.797.27 1.797 1.66 0 .82.49 1.61 1.624 1.61 1.134 0 1.63-.79 1.63-1.61 0-.83-.515-1.633-1.63-1.633-1.468 0-1.708-.202-1.708-1.79 0-.855 1.06-1.695 1.703-1.695 1.487 0 1.74.74 1.74 1.697 0 .73.466 1.687 1.69 1.687 1.23 0 1.68-.87 1.68-1.683 0-.824-.522-1.696-1.68-1.696-1.16 0-1.393-1.026-1.393-1.72 0-.904.55-1.57 1.395-1.57 1.16 0 1.684.435 1.684 1.563 0 1.12.724 1.73 1.74 1.73 1 0 1.75-.7 1.75-1.73 0-1.04-.67-1.74-1.75-1.74-1.075 0-1.605-.825-1.605-1.68 0-.864.786-1.43 1.606-1.43s1.67.22 1.67 1.43.87 1.756 1.75 1.756 1.77-.595 1.77-1.757c0-1.165-.915-1.76-1.773-1.76-.86 0-1.666-.62-1.666-1.66 0-.556.833-1.43 1.664-1.43 1.33 0 1.63.22 1.63 1.43 0 .997.71 1.783 1.8 1.783 1.086 0 1.79-.696 1.79-1.785 0-1.084-.67-1.795-1.79-1.795-1.11 0-1.486-.89-1.486-1.63 0-.54.69-1.427 1.487-1.427 1.53 0 1.668.573 1.668 1.43 0 .87.365 1.76 1.755 1.76 1.393 0 1.76-1.066 1.76-1.76 0-1.557-.32-1.757-1.76-1.757-1.34 0-1.39-1.224-1.39-1.668 0-.43.09-1.387 1.386-1.387 1.314 0 1.695.532 1.695 1.386 0 1.51.19 1.755 1.73 1.755 1.14 0 1.73-.83 1.73-1.754 0-1.3-.148-1.72-1.734-1.72-1.12 0-1.49-1.26-1.49-1.694 0-.84.79-1.47 1.49-1.47 1.69 0 1.732.823 1.732 1.47 0 1.4.144 1.695 1.696 1.695 1.445 0 1.69-1.26 1.69-1.694 0-.43-.227-1.685-1.69-1.685-1.21 0-1.57-.435-1.57-1.74 0-.94.73-1.68 1.57-1.68 1.826 0 1.81.996 1.81 1.68 0 .71.3 1.636 1.62 1.636 1.3 0 1.623-1.106 1.623-1.637 0-.51-.34-1.61-1.62-1.61-1.296 0-1.624-1.45-1.624-1.794 0-.35.432-1.697 1.62-1.697 1.82 0 1.806-.085 1.806-1.73 0-1.12.47-1.697 1.616-1.697 1.644 0 1.854-.34 1.854-1.717 0-1.395.045-1.655 1.572-1.655.77 0 1.85-.345 1.85-1.78 0-1.426-1-1.702-1.85-1.702-.866 0-1.724-.5-1.724-1.706 0-1.22.925-1.71 1.724-1.71 1.565 0 1.713.14 1.713 1.71 0 1.285.58 1.557 1.71 1.557 1.125 0 1.64-.73 1.64-1.557 0-.83-.387-1.7-1.64-1.7-1.54 0-1.724-.104-1.724-1.724 0-.78.41-1.715 1.72-1.715 1.75 0 1.765-.19 1.765-1.708 0-1.517 0-1.73 1.652-1.73 1.094 0 1.733-.78 1.733-1.687 0-.913-.347-1.76-1.737-1.76-1.38 0-1.655-1.012-1.655-1.66 0-.653.386-1.655 1.653-1.655 1.7 0 1.817-.21 1.817-1.76 0-1.567.04-1.74 1.61-1.74.935 0 1.704-.82 1.704-1.685 0-.872-.533-1.69-1.704-1.69-1.157 0-1.605-.86-1.605-1.727 0-.873.98-1.728 1.61-1.728.66 0 1.95-.055 1.95-1.698 0-1.656-.82-1.797-1.95-1.797-1.11 0-1.613-.808-1.613-1.62 0-.833.476-1.63 1.61-1.63 1.635 0 1.644.057 1.644 1.63 0 .56.48 1.676 1.8 1.676 1.31 0 1.68-1.204 1.68-1.676 0-.478-.3-1.688-1.68-1.688-1.684 0-1.58-.528-1.58-1.735 0-1.21.238-1.74 1.58-1.74 1.338 0 1.717-.646 1.717-1.688 0-1.035-.284-1.688-1.717-1.688-1.44 0-1.627-.77-1.627-1.727s.5-1.74 1.62-1.74c1.117 0 1.85-.467 1.85-1.69 0-1.203-.47-1.69-1.85-1.69-1.38 0-1.722-1.21-1.722-1.73s.37-1.713 1.72-1.713c1.36 0 1.895-.486 1.895-1.702 0-1.21-.48-1.753-1.892-1.753-1.42 0-1.72-1.264-1.72-1.7 0-.435.19-1.72 1.72-1.72 1.524 0 1.896-.497 1.896-1.66s-.52-1.74-1.9-1.74c-1 0-1.626-.47-1.626-1.675 0-1.214.5-1.735 1.625-1.735 1.117 0 1.85-.646 1.85-1.687 0-1.04-.514-1.78-1.85-1.78-1.346 0-1.665-.033-1.665-1.643 0-1.603.31-1.77 1.665-1.77.78 0 1.676-.523 1.676-1.69 0-1.166-.824-1.685-1.68-1.685-.85 0-1.73.65-1.73 1.685 0 1.43-.023 1.69-1.703 1.69-1.19 0-1.674-1-1.674-1.69 0-.697.38-1.685 1.67-1.685 1.672 0 1.91-.136 1.91-1.696 0-1.557-.304-1.72-1.91-1.72-1.2 0-1.606-1.086-1.606-1.7 0-.605.357-1.78 1.608-1.78 1.27 0 1.705-1.08 1.705-1.684 0-.614-.236-1.687-1.706-1.687-1.453 0-1.57-.04-1.57-1.677 0-1.654-.04-1.78-1.855-1.78-.9 0-1.475-.997-1.475-1.653 0-.654.18-1.777 1.475-1.777 1.304 0 1.854-.645 1.854-1.636 0-.993-1.08-1.873-1.86-1.873-1.29 0-1.554-.41-1.554-1.556 0-1.82-.014-1.737-1.863-1.737-1.126 0-1.71-.9-1.71-1.674 0-.79.504-1.824 1.71-1.824 1.213 0 1.64-.83 1.64-1.608 0-.78-.036-1.81-1.64-1.81-1.603 0-2.067 1.122-2.067 1.82 0 .69-.4 1.373-1.354 1.373-.96 0-1.373-.81-1.373-1.375 0-1.085.657-1.486 1.374-1.486 1.563 0 1.85-.596 1.85-1.944 0-1.33-.74-1.82-1.85-1.82-.575 0-1.623.05-1.623-1.59 0-1.64-.043-1.77-1.805-1.77-.87 0-1.75-.53-1.75-1.65 0-1.125.78-1.78 1.75-1.78.965 0 1.69-.513 1.69-1.677 0-1.184-.96-1.685-1.69-1.685-.724 0-1.69.433-1.69 1.686 0 1.24-.71 1.727-1.734 1.727-1.045 0-1.623-.78-1.623-1.686 0-.918.7-1.68 1.623-1.68.91 0 1.78-.53 1.78-1.79 0-1.25-.92-1.896-1.783-1.896-.876 0-1.8.823-1.8 1.896 0 1.09-.59 1.515-1.635 1.515-1.04 0-1.44-1.078-1.44-1.465 0-1.09.63-1.67 1.44-1.67 1.61 0 1.805-1.355 1.805-1.792 0-.44-.255-1.79-1.805-1.79s-1.588-.076-1.588-1.636c0-.47-.256-1.833-1.84-1.833-1.6 0-1.6-.024-1.6-1.603 0-.55-.267-1.81-1.83-1.81-1.54 0-1.594-.042-1.594-1.594 0-.56-.32-1.828-1.83-1.828-1.504 0-1.63-.07-1.63-1.596 0-.74-.355-1.79-1.8-1.79-1.42 0-1.63-.377-1.63-1.63 0-.82-.328-1.784-1.794-1.784-1.944 0-1.71-.98-1.71-1.593 0-.594-.29-1.735-1.71-1.735-1.667 0-1.722 0-1.722-1.72 0-1.476-1.14-1.7-1.71-1.7-.542 0-1.7.175-1.7 1.7 0 1.514-1.374 1.56-1.717 1.56-.98 0-1.657-.752-1.657-1.515 0-1.343 1.293-1.795 1.656-1.795.355 0 1.67-.15 1.67-1.627 0-1.47-1.162-1.715-1.67-1.715-.51 0-1.672.244-1.672 1.673 0 1.426-1.06 1.688-1.76 1.688-.69 0-1.61-.297-1.61-1.648 0-1.64-.09-1.82-1.81-1.82-1.31 0-1.66-.43-1.66-1.598 0-1.176-.413-1.81-1.77-1.81-1.344 0-1.71-.487-1.71-1.603 0-1.126-.683-1.72-1.717-1.72-1.016 0-1.71.712-1.71 1.72 0 .99-.76 1.47-1.7 1.47-.968 0-1.67-.52-1.67-1.47 0-1.64.02-1.83 1.67-1.83.91 0 1.58-.66 1.58-1.59s-.7-1.6-1.58-1.6c-.918 0-1.598.64-1.598 1.595 0 1.51-.08 1.6-1.84 1.6-1.3 0-1.7-.95-1.7-1.6 0-.645-.22-1.99-1.73-1.99s-1.86.95-1.86 1.99-.83 1.578-1.57 1.578c-.743 0-1.6-.626-1.6-1.576 0-.957.807-1.768 1.6-1.768.74 0 1.64-.398 1.64-1.648s-1.214-1.67-1.64-1.67c-.44 0-1.65.15-1.65 1.67 0 1.51-1 1.707-1.775 1.707-.79 0-1.725-.454-1.725-1.704s-.57-1.906-1.702-1.906c-1.126 0-1.834.56-1.834 1.907s-1.285 1.6-1.59 1.6c-.31 0-1.62-.256-1.62-1.6s.8-1.89 1.62-1.89c.817 0 1.53-.587 1.53-1.544 0-.95-.71-1.555-1.53-1.555-.82 0-1.554.73-1.554 1.555 0 1.656-.4 1.615-1.876 1.615-1.48 0-1.75-.53-1.75-1.614s-.9-1.692-1.68-1.692c-.786 0-1.7.57-1.7 1.694 0 1.133-.596 1.56-1.724 1.56-1.13 0-1.6-.427-1.6-1.56 0-1.123-1.056-1.84-1.834-1.84-.784 0-1.84.68-1.84 1.838 0 1.184-.5 1.35-1.58 1.35s-1.566-.394-1.566-1.35c0-.95-.79-1.88-1.865-1.88-1.088 0-1.89 1.023-1.89 1.88 0 .863-.405 1.35-1.53 1.35-1.128 0-1.56-.435-1.56-1.35 0-.9-.777-1.88-1.87-1.88-1.08 0-1.893.9-1.893 1.88 0 .997-.62 1.35-1.53 1.35-.905 0-1.576-.31-1.576-1.35 0-1.026-.85-1.88-1.85-1.88-.993 0-1.91.797-1.91 1.88 0 1.08-.737 1.394-1.52 1.394-.77 0-1.6-.212-1.6-1.395 0-1.158-1.08-1.84-1.82-1.84-.733 0-1.876.506-1.876 1.838 0 1.35-.86 1.56-1.546 1.56-.7 0-1.774-.252-1.774-1.56 0-.6-.25-1.003-.57-1.28 2.562-.635 5.162-1.19 7.784-1.674.2.58.74.98 1.38.98.82 0 1.485-.654 1.49-1.46 1.31-.22 2.65-.4 3.987-.576-.063.172-.113.35-.113.55 0 .81.67 1.484 1.5 1.484.813 0 1.484-.672 1.484-1.487 0-.32-.11-.61-.277-.857 1.62-.174 3.27-.324 4.91-.427-.446.25-.74.73-.74 1.28 0 .816.67 1.49 1.49 1.49s1.483-.674 1.483-1.49c0-.617-.37-1.13-.9-1.357 2.406-.136 4.82-.22 7.257-.22 4.066 0 8.105.2 12.084.58-.346.21-.57.586-.57 1.005 0 .66.534 1.196 1.207 1.196.658 0 1.195-.54 1.195-1.2 0-.337-.144-.65-.38-.87 1.69.19 3.363.38 5.018.63-.01.076-.03.15-.03.227 0 .556.456 1.02 1.008 1.02s.967-.42 1.027-.93c60.087 9.792 105.947 61.86 105.947 124.596" fill="#FFE1BB"/><path d="M143.94 312.047c0 1.648-.122 1.686-1.718 1.686-.495 0-.958.22-1.24.616-.337-.62-.65-1.26-.972-1.88.05-.13.085-.27.085-.43 0-.58-.395-1.08-.918-1.25-1.19-2.44-2.32-4.9-3.362-7.41 1.2-.02 1.235-.2 1.235-1.59 0-.49.254-1.72 1.737-1.72 1.452 0 1.703 1.27 1.703 1.71 0 .43-.142 1.705-1.703 1.705-1.593 0-1.787.066-1.787 1.704 0 1.204.692 1.735 1.794 1.735 1.522 0 1.636.125 1.636 1.695 0 1.558.263 1.78 1.792 1.78 1.112 0 1.717.47 1.717 1.637" fill="#FFE1BB"/><path d="M128.685 279.564c-.217-1.148-.436-2.31-.618-3.483.134.03.276.05.442.05.95 0 1.68.86 1.68 1.73 0 .81-.61 1.61-1.52 1.71" fill="#FFE1BB"/><path d="M131.903 289.768c-.283 0-.536.057-.757.15-.644-2.282-1.224-4.597-1.756-6.937.658.08.717.39.717 1.71 0 1.78.176 1.76 1.794 1.76 1.05 0 1.69.75 1.69 1.66.01.92-.48 1.66-1.68 1.66" fill="#FFE1BB"/><path d="M135.343 300.09c-.31 0-.552.076-.753.202-.91-2.39-1.744-4.823-2.515-7.293 1.51.01 1.504.35 1.504 1.94 0 1.65.08 1.71 1.76 1.71 1.16 0 1.71.8 1.71 1.71 0 .91-.66 1.72-1.72 1.72" fill="#FFE1BB"/><path fill="#FFE1BB" d="M126.777 253.902c0-.406-.135-.775-.386-1.078 0 .73-.02 1.456-.02 2.185.27-.31.41-.68.41-1.11"/><path d="M131.903 221.165c.852 0 1.532-.672 1.532-1.503 0-.814-.655-1.477-1.46-1.502-.288.932-.576 1.853-.843 2.796.235.134.495.21.77.21" fill="#FFE1BB"/><path d="M130.182 229.923c0-.652-.378-1.214-.917-1.48-.226 1.047-.445 2.095-.644 3.145.88-.06 1.57-.78 1.57-1.665" fill="#FFE1BB"/><path d="M135.343 210.993c.85 0 1.547-.69 1.547-1.545 0-.772-.543-1.392-1.266-1.526-.38.94-.75 1.886-1.112 2.825.238.162.52.246.83.246" fill="#FFE1BB"/><path d="M140.13 199.192c0-.267-.067-.513-.195-.704-.342.672-.69 1.36-1.025 2.045.69-.063 1.22-.635 1.22-1.34" fill="#FFE1BB"/><path d="M142.2 197.027c.705 0 1.275-.563 1.275-1.266 0-.69-.57-1.26-1.276-1.26-.05 0-.12.02-.16.02-.34.61-.66 1.2-.98 1.81.19.42.63.714 1.14.714" fill="#FFE1BB"/><path d="M128.503 238.36c.85 0 1.547-.698 1.547-1.554 0-.846-.698-1.545-1.547-1.545-.204 0-.37.04-.548.1-.144.89-.27 1.79-.404 2.68.26.21.59.33.96.33" fill="#FFE1BB"/><path d="M169.638 162.974c.772 0 1.393-.638 1.393-1.408 0-.713-.52-1.303-1.22-1.385-.52.46-1.06.95-1.58 1.41.01.76.64 1.39 1.42 1.39" fill="#FFE1BB"/><path d="M173.05 159.66c.84 0 1.523-.68 1.523-1.52 0-.554-.315-1.04-.758-1.3-.742.59-1.47 1.183-2.193 1.787.21.595.764 1.034 1.43 1.034" fill="#FFE1BB"/><path d="M176.48 156.128c.775 0 1.393-.63 1.393-1.404 0-.3-.1-.578-.26-.8-.746.538-1.483 1.1-2.22 1.664.255.317.643.54 1.086.54" fill="#FFE1BB"/><path d="M179.902 152.767c.808 0 1.473-.644 1.473-1.47 0-.017-.007-.04-.007-.065-.68.47-1.356.948-2.02 1.426.17.07.36.11.554.11" fill="#FFE1BB"/><path d="M166.206 166.398c.776 0 1.406-.63 1.406-1.417 0-.77-.63-1.41-1.406-1.41-.067 0-.117.03-.183.03-.406.4-.808.78-1.21 1.18-.01.07-.027.15-.027.21 0 .79.64 1.42 1.42 1.42" fill="#FFE1BB"/><path d="M162.773 169.754c.744 0 1.35-.6 1.35-1.35 0-.737-.606-1.343-1.35-1.343-.112 0-.215.02-.306.05-.35.34-.673.69-1.016 1.04-.01.08-.02.18-.02.26 0 .75.61 1.35 1.35 1.35" fill="#FFE1BB"/><path d="M159.347 173.172c.746 0 1.365-.606 1.365-1.345 0-.747-.62-1.344-1.365-1.344-.018 0-.048 0-.084.012-.432.46-.838.913-1.258 1.39.04.724.63 1.287 1.342 1.287" fill="#FFE1BB"/><path d="M155.923 176.593c.742 0 1.347-.606 1.347-1.353 0-.635-.443-1.164-1.04-1.308-.512.613-1.032 1.233-1.54 1.853.21.474.688.808 1.233.808" fill="#FFE1BB"/><path d="M152.495 179.908c.7 0 1.246-.55 1.246-1.232 0-.435-.21-.807-.52-1.023-.51.654-1.02 1.292-1.51 1.952.21.194.498.303.8.303" fill="#FFE1BB"/><path d="M149.067 183.342c.698 0 1.262-.574 1.262-1.253 0-.17-.04-.35-.11-.5-.42.57-.82 1.16-1.23 1.74.02 0 .05.01.06.01" fill="#FFE1BB"/><path d="M193.608 146.072c.89 0 1.605-.72 1.605-1.602 0-.472-.21-.9-.548-1.192-.874.463-1.757.923-2.63 1.41.1.77.777 1.384 1.573 1.384" fill="#FFE1BB"/><path d="M354.646 251.844c.753 0 1.376-.603 1.376-1.357 0-.757-.62-1.372-1.376-1.372-.756 0-1.36.615-1.36 1.372 0 .754.604 1.357 1.36 1.357" fill="#FFE1BB"/><path d="M347.796 251.113c.345 0 .63-.285.63-.626 0-.344-.285-.616-.63-.616-.35 0-.63.27-.63.62 0 .34.28.63.63.63" fill="#FFE1BB"/><path fill="#FFE1BB" d="M344.375 254.15c.128 0 .235-.107.235-.248 0-.135-.107-.244-.235-.244-.142 0-.253.112-.253.244 0 .143.11.248.253.248"/><path d="M356.01 250.475c0-.754-.622-1.367-1.378-1.367-.75 0-1.365.613-1.365 1.367 0 .747.616 1.37 1.365 1.37.753 0 1.38-.623 1.38-1.37" fill="#FFE1BB"/><path d="M352.224 253.902c0-.563-.46-1.014-1.01-1.014-.57 0-1.023.45-1.023 1.014 0 .544.46 1.004 1.03 1.004.55.003 1.01-.46 1.01-1.004" fill="#FFE1BB"/><path d="M348.44 257.317c0-.362-.29-.663-.664-.663-.35 0-.65.3-.65.663 0 .358.3.654.65.654.374 0 .664-.29.664-.65" fill="#FFE1BB"/><path d="M344.676 260.74c0-.174-.15-.31-.308-.31-.176 0-.303.136-.303.31 0 .167.127.306.303.306.155-.002.308-.14.308-.307" fill="#FFE1BB"/><path d="M356.022 257.317c0-.745-.62-1.35-1.376-1.35-.756 0-1.36.605-1.36 1.35 0 .763.604 1.37 1.36 1.37.753 0 1.376-.605 1.376-1.37" fill="#FFE1BB"/><path d="M352.238 260.75c0-.556-.454-1.01-1.01-1.01-.565 0-1.02.454-1.02 1.01 0 .552.455 1.005 1.02 1.005.556.002 1.01-.45 1.01-1.005" fill="#FFE1BB"/><path d="M348.45 264.163c0-.36-.286-.654-.654-.654-.37 0-.664.29-.664.65 0 .36.295.66.664.66.368 0 .655-.3.655-.67" fill="#FFE1BB"/><path d="M344.857 267.59c0-.28-.222-.48-.482-.48-.276 0-.49.2-.49.48 0 .266.214.476.49.476.26 0 .482-.208.482-.476" fill="#FFE1BB"/><path d="M341.246 277.85c0-.172-.128-.31-.3-.31-.17 0-.314.138-.314.31 0 .16.144.295.315.295.17 0 .3-.132.3-.294" fill="#FFE1BB"/><path fill="#FFE1BB" d="M324.01 308.635c0-.112-.088-.205-.2-.205-.114 0-.187.093-.187.205 0 .102.073.186.187.186.112 0 .2-.08.2-.18"/><path d="M354.646 249.076c.753 0 1.376.613 1.376 1.37 0 .747-.62 1.367-1.376 1.367-.756 0-1.36-.618-1.36-1.367 0-.76.604-1.37 1.36-1.37" fill="#FFE1BB"/><path d="M347.796 249.815c.345 0 .63.277.63.628 0 .342-.285.627-.63.627-.35 0-.63-.285-.63-.627 0-.35.28-.628.63-.628" fill="#FFE1BB"/><path fill="#FFE1BB" d="M344.375 246.782c.128 0 .235.112.235.246 0 .132-.107.235-.235.235-.142 0-.253-.103-.253-.235 0-.134.11-.246.253-.246"/><path d="M356.01 250.452c0 .748-.622 1.358-1.378 1.358-.75 0-1.365-.61-1.365-1.358 0-.747.616-1.37 1.365-1.37.753 0 1.38.623 1.38 1.37" fill="#FFE1BB"/><path d="M352.224 247.035c0 .554-.46 1.007-1.01 1.007-.57 0-1.023-.453-1.023-1.007 0-.56.46-1.005 1.03-1.005.55 0 1.01.445 1.01 1.005" fill="#FFE1BB"/><path d="M348.44 243.613c0 .36-.29.663-.664.663-.35 0-.65-.303-.65-.663 0-.37.3-.663.65-.663.374 0 .664.292.664.663" fill="#FFE1BB"/><path d="M344.676 240.19c0 .174-.15.302-.308.302-.176 0-.303-.128-.303-.303 0-.16.127-.3.303-.3.155 0 .308.13.308.29" fill="#FFE1BB"/><path d="M356.022 243.606c0 .754-.62 1.358-1.376 1.358-.756 0-1.36-.604-1.36-1.358 0-.756.604-1.362 1.36-1.362.753 0 1.376.606 1.376 1.362" fill="#FFE1BB"/><path d="M352.238 240.18c0 .562-.454 1.014-1.01 1.014-.565 0-1.02-.452-1.02-1.014 0-.554.455-1.005 1.02-1.005.556-.002 1.01.45 1.01 1.005" fill="#FFE1BB"/><path d="M348.45 236.765c0 .362-.286.663-.654.663-.37 0-.664-.3-.664-.663 0-.363.295-.654.664-.654.368 0 .655.29.655.66" fill="#FFE1BB"/><path d="M351.215 218.16c.843 0 1.516.663 1.516 1.502 0 .83-.67 1.503-1.51 1.503-.83 0-1.5-.672-1.5-1.503 0-.84.67-1.502 1.5-1.502" fill="#FFE1BB"/><path d="M327.6 188.923c0 .21-.158.37-.366.37-.205 0-.365-.16-.365-.37 0-.202.16-.36.36-.36.21-.002.36.158.36.36" fill="#FFE1BB"/><path d="M310.105 159.718c-.86 0-1.57-.7-1.57-1.578 0-.864.714-1.568 1.57-1.568 1.428 0 1.572-.016 1.572 1.568.002.88-.707 1.578-1.572 1.578" fill="#FFE1BB"/><path d="M248.993 144.47c0-.32-.25-.56-.564-.56-.31 0-.56.24-.56.56 0 .312.24.55.55.55.31 0 .56-.238.56-.55" fill="#FFE1BB"/><path d="M255.856 144.47c0-.32-.26-.56-.575-.56-.31 0-.55.24-.55.56 0 .312.24.55.55.55.32 0 .58-.238.58-.55" fill="#FFE1BB"/><path fill="#FFE1BB" d="M252.063 147.883c0-.107-.082-.2-.203-.2-.12 0-.22.093-.22.2 0 .12.1.203.22.203s.203-.082.203-.203"/><path d="M242.185 144.47c0-.333-.28-.606-.617-.606-.32 0-.598.27-.598.606 0 .32.277.595.598.595.336 0 .617-.276.617-.595" fill="#FFE1BB"/><path fill="#FFE1BB" d="M245.21 147.883c0-.107-.092-.2-.202-.2-.114 0-.21.093-.21.2 0 .12.096.203.21.203.11 0 .2-.082.2-.203"/><path d="M261.35 144.47c0-.435.345-.788.785-.788.434 0 .792.35.792.788 0 .428-.356.78-.792.78-.44 0-.785-.354-.785-.78" fill="#FFE1BB"/><path d="M267.978 144.47c0-.554.464-1.023 1.016-1.023.555 0 1 .47 1 1.023 0 .55-.443 1.005-1 1.005-.552 0-1.016-.454-1.016-1.005" fill="#FFE1BB"/><path d="M274.604 144.47c0-.69.564-1.233 1.244-1.233.682 0 1.226.543 1.226 1.233 0 .672-.544 1.223-1.226 1.223-.68 0-1.244-.55-1.244-1.223" fill="#FFE1BB"/><path d="M281.237 144.47c0-.813.657-1.46 1.463-1.46.808 0 1.463.644 1.463 1.46 0 .797-.655 1.454-1.463 1.454-.806 0-1.463-.657-1.463-1.454" fill="#FFE1BB"/><path d="M307.14 168.415c0 .248-.2.442-.454.442-.25 0-.464-.194-.464-.442 0-.262.215-.456.464-.456.253-.01.454.19.454.45" fill="#FFE1BB"/><path d="M303.8 164.98c0 .302-.24.546-.547.546-.29 0-.537-.244-.537-.545 0-.28.247-.53.537-.53.306 0 .548.25.548.53" fill="#FFE1BB"/><path d="M300.457 161.566c0 .342-.29.627-.625.627-.352 0-.62-.285-.62-.627 0-.335.268-.622.62-.622.335-.002.625.285.625.622" fill="#FFE1BB"/><path d="M297.115 158.15c0 .386-.317.705-.714.705-.38 0-.71-.32-.71-.706 0-.4.33-.72.71-.72.4-.01.72.32.72.72" fill="#FFE1BB"/><path d="M293.776 154.73c0 .44-.356.794-.805.794-.43 0-.79-.353-.79-.793 0-.43.36-.79.8-.79.45 0 .81.36.81.8" fill="#FFE1BB"/><path d="M258.714 148.318c.237 0 .43-.2.43-.435s-.193-.433-.43-.433c-.247 0-.43.2-.43.433 0 .235.18.435.43.435" fill="#FFE1BB"/><path d="M265.566 148.55c.358 0 .657-.305.657-.667 0-.36-.3-.652-.657-.652-.36 0-.655.3-.655.66 0 .36.3.67.66.67" fill="#FFE1BB"/><path d="M272.427 148.758c.477 0 .88-.385.88-.875 0-.485-.403-.88-.88-.88-.496 0-.877.395-.877.88 0 .49.38.875.877.875" fill="#FFE1BB"/><path d="M279.272 148.99c.614 0 1.095-.503 1.095-1.107 0-.602-.484-1.105-1.095-1.105-.608 0-1.105.506-1.105 1.105-.002.606.497 1.107 1.105 1.107" fill="#FFE1BB"/><path d="M275.84 151.735c.236 0 .435-.193.435-.435 0-.228-.2-.428-.434-.428-.23 0-.43.2-.43.428 0 .242.21.435.44.435" fill="#FFE1BB"/><path d="M282.7 151.963c.36 0 .655-.303.655-.663 0-.36-.295-.654-.655-.654-.363 0-.664.294-.664.654 0 .36.3.663.664.663" fill="#FFE1BB"/><path d="M289.558 152.182c.47 0 .87-.385.87-.882 0-.476-.4-.865-.87-.865-.49 0-.894.39-.894.865.002.497.406.882.894.882" fill="#FFE1BB"/><path d="M286.12 155.153c.245 0 .43-.196.43-.43 0-.23-.182-.427-.43-.427-.227 0-.42.196-.42.428 0 .233.193.43.42.43" fill="#FFE1BB"/><path d="M286.12 149.202c.743 0 1.336-.588 1.336-1.32 0-.717-.593-1.323-1.335-1.323-.73 0-1.32.6-1.32 1.32 0 .73.6 1.32 1.33 1.32" fill="#FFE1BB"/><path d="M292.97 149.437c.86 0 1.57-.695 1.57-1.554 0-1.367.065-1.558-1.57-1.558-.846 0-1.55.694-1.55 1.558.003.86.704 1.554 1.55 1.554" fill="#FFE1BB"/><path d="M296.4 152.75c.807 0 1.462-.643 1.462-1.45 0-1.032-.162-1.45-1.463-1.45-.8 0-1.46.644-1.46 1.45 0 .807.66 1.45 1.46 1.45" fill="#FFE1BB"/><path d="M299.83 156.09c.752 0 1.357-.605 1.357-1.368 0-.745-.605-1.36-1.358-1.36-.77 0-1.37.615-1.37 1.36 0 .766.6 1.37 1.37 1.37" fill="#FFE1BB"/><path d="M303.25 159.415c.704 0 1.28-.57 1.28-1.278 0-.697-.576-1.26-1.28-1.26-.693 0-1.268.563-1.268 1.26.002.707.577 1.278 1.27 1.278" fill="#FFE1BB"/><path d="M306.683 162.74c.642 0 1.173-.522 1.173-1.176 0-.647-.53-1.17-1.173-1.17s-1.182.523-1.182 1.17c.01.654.54 1.175 1.19 1.175" fill="#FFE1BB"/><path d="M310.11 166.063c.593 0 1.072-.49 1.072-1.084 0-.59-.48-1.09-1.07-1.09-.6 0-1.087.49-1.087 1.08.002.59.49 1.08 1.086 1.08" fill="#FFE1BB"/><path d="M313.535 169.394c.536 0 .986-.437.986-.993 0-.54-.44-.99-.98-.99-.55 0-.99.45-.99.99.01.56.44 1 1 1" fill="#FFE1BB"/><path d="M316.956 172.716c.496 0 .893-.403.893-.89 0-.495-.4-.892-.9-.892s-.88.397-.88.89c0 .49.38.892.88.892" fill="#FFE1BB"/><path d="M320.378 176.04c.447 0 .803-.362.803-.8 0-.433-.35-.786-.8-.786-.42 0-.79.35-.79.786 0 .438.37.8.79.8" fill="#FFE1BB"/><path d="M331.233 192.348c0 .31-.263.562-.57.562-.316 0-.564-.252-.564-.562 0-.312.24-.572.56-.572.31 0 .57.26.57.572" fill="#FFE1BB"/><path d="M334.848 195.763c0 .428-.335.772-.758.772-.417 0-.764-.344-.764-.772 0-.422.347-.766.764-.766.423 0 .758.344.758.766" fill="#FFE1BB"/><path d="M338.473 199.185c0 .528-.43.966-.95.966-.536 0-.972-.43-.972-.96 0-.52.44-.96.98-.96.53 0 .95.44.95.97" fill="#FFE1BB"/><path d="M342.104 202.61c0 .635-.52 1.156-1.157 1.156-.648 0-1.167-.52-1.167-1.157 0-.65.52-1.17 1.167-1.17.637 0 1.157.52 1.157 1.16" fill="#FFE1BB"/><path d="M345.722 206.022c0 .756-.6 1.362-1.347 1.362-.75 0-1.367-.606-1.367-1.362 0-.745.618-1.358 1.367-1.358.746.002 1.347.613 1.347 1.358" fill="#FFE1BB"/><path d="M347.796 207.888c-.858 0-1.545.7-1.545 1.563 0 .86.69 1.55 1.55 1.55.87 0 1.57-.69 1.57-1.54 0-.86-.7-1.56-1.56-1.56" fill="#FFE1BB"/><path d="M340.947 194.494c-.703 0-1.274.572-1.274 1.27 0 .703.57 1.265 1.274 1.265.694 0 1.27-.57 1.27-1.27 0-.7-.576-1.27-1.27-1.27" fill="#FFE1BB"/><path d="M337.523 191.18c-.65 0-1.19.52-1.19 1.168 0 .65.537 1.175 1.19 1.175.637 0 1.176-.52 1.176-1.175 0-.65-.54-1.17-1.18-1.17" fill="#FFE1BB"/><path d="M334.09 187.848c-.604 0-1.075.488-1.075 1.085 0 .585.47 1.073 1.075 1.073.6 0 1.08-.488 1.08-1.073 0-.597-.48-1.085-1.08-1.085" fill="#FFE1BB"/><path d="M330.662 184.526c-.536 0-.986.436-.986.99 0 .537.448.983.986.983.555 0 .993-.45.993-.99 0-.56-.438-.99-.993-.99" fill="#FFE1BB"/><path d="M327.234 181.202c-.48 0-.892.392-.892.89 0 .486.41.89.892.89.493 0 .888-.404.888-.89 0-.498-.395-.89-.888-.89" fill="#FFE1BB"/><path d="M323.81 177.87c-.445 0-.8.352-.8.806 0 .428.353.79.8.79.448 0 .806-.362.806-.79 0-.454-.356-.807-.806-.807" fill="#FFE1BB"/><path fill="#FFE1BB" d="M316.936 178.874c.135 0 .217-.09.217-.2 0-.126-.082-.22-.217-.22-.112 0-.2.094-.2.22 0 .11.088.2.2.2"/><path fill="#FFE1BB" d="M320.378 182.29c.128 0 .22-.083.22-.2 0-.12-.092-.213-.22-.213-.103 0-.21.093-.21.212 0 .11.107.2.21.2"/><path fill="#FFE1BB" d="M340.947 223.337c.114 0 .217-.092.217-.21 0-.125-.103-.22-.217-.22-.112 0-.212.095-.212.22 0 .118.1.21.212.21"/><path d="M338.025 206.02c0 .29-.223.52-.502.52-.297 0-.522-.23-.522-.52 0-.278.23-.51.53-.51.28 0 .5.23.5.51" fill="#FFE1BB"/><path fill="#FFE1BB" d="M334.09 209.658c.12 0 .206-.1.206-.21 0-.118-.085-.218-.206-.218-.116 0-.216.1-.216.218 0 .11.1.21.216.21"/><path fill="#FFE1BB" d="M327.234 195.988c.116 0 .224-.102.224-.227 0-.11-.108-.2-.224-.2-.114 0-.212.1-.212.21 0 .13.098.23.212.23"/><path d="M310.105 172.196c.212 0 .365-.175.365-.37 0-.2-.153-.36-.365-.36-.194 0-.366.16-.366.36 0 .195.17.37.36.37" fill="#FFE1BB"/><path d="M313.535 175.52c.144 0 .27-.118.27-.278 0-.143-.128-.273-.27-.273-.157 0-.278.13-.278.27 0 .16.12.28.278.28" fill="#FFE1BB"/><path d="M323.81 185.834c.185 0 .33-.15.33-.33 0-.182-.145-.333-.33-.333-.187 0-.33.16-.33.34.002.18.143.33.33.33" fill="#FFE1BB"/><path d="M351.215 227.81c.71 0 1.27-.57 1.27-1.268 0-.697-.56-1.258-1.27-1.258-.694 0-1.266.56-1.266 1.258 0 .697.57 1.267 1.26 1.267" fill="#FFE1BB"/><path d="M347.796 224.068c.518 0 .943-.428.943-.94 0-.523-.43-.95-.95-.95s-.94.43-.94.95c0 .512.42.94.94.94" fill="#FFE1BB"/><path d="M347.796 230.704c.407 0 .728-.332.728-.738 0-.403-.324-.738-.728-.738-.404 0-.737.335-.737.738 0 .406.33.738.73.738" fill="#FFE1BB"/><path d="M351.215 234.49c.62 0 1.12-.496 1.12-1.106 0-.604-.503-1.105-1.12-1.105-.604 0-1.093.5-1.093 1.1.002.61.49 1.1 1.093 1.1" fill="#FFE1BB"/><path d="M354.64 238.36c.866 0 1.565-.698 1.565-1.554 0-.846-.7-1.545-1.566-1.545-.85 0-1.55.7-1.55 1.55 0 .86.7 1.56 1.55 1.56" fill="#FFE1BB"/><path d="M344.375 226.998c.242 0 .443-.194.443-.454 0-.24-.2-.444-.443-.444-.253 0-.46.203-.46.444 0 .26.207.454.46.454" fill="#FFE1BB"/><path d="M344.375 220.316c.335 0 .61-.267.61-.61 0-.338-.272-.607-.61-.607-.342 0-.612.26-.612.6 0 .34.27.61.612.61" fill="#FFE1BB"/><path d="M347.796 217.48c.655 0 1.192-.536 1.192-1.183 0-.663-.537-1.2-1.192-1.2-.664 0-1.184.537-1.184 1.2 0 .644.52 1.184 1.184 1.184" fill="#FFE1BB"/><path d="M344.375 213.77c.495 0 .9-.403.9-.904 0-.497-.405-.89-.9-.89-.504 0-.904.393-.904.89 0 .5.4.904.91.904" fill="#FFE1BB"/><path d="M340.947 216.698c.223 0 .404-.183.404-.4 0-.23-.18-.414-.4-.414-.22 0-.41.185-.41.413 0 .218.19.4.42.4" fill="#FFE1BB"/><path d="M340.947 210.102c.35 0 .643-.294.643-.654 0-.36-.294-.654-.643-.654-.365 0-.667.294-.667.654 0 .36.302.654.667.654" fill="#FFE1BB"/><path d="M354.64 265.744c.873 0 1.597-.708 1.597-1.58 0-.862-.724-1.578-1.598-1.578-.87 0-1.57.716-1.57 1.58 0 .87.7 1.578 1.57 1.578" fill="#FFE1BB"/><path d="M344.973 274.43c0-.338-.267-.616-.598-.616-.336 0-.612.275-.612.615 0 .33.274.61.612.61.33 0 .598-.28.598-.61" fill="#FFE1BB"/><path d="M348.712 271.002c0-.503-.414-.91-.916-.91s-.917.41-.917.91c0 .502.41.916.91.916s.91-.412.91-.916" fill="#FFE1BB"/><path d="M352.436 267.59c0-.673-.536-1.22-1.22-1.22-.66 0-1.22.547-1.22 1.22 0 .667.56 1.205 1.22 1.205.684.002 1.22-.538 1.22-1.205" fill="#FFE1BB"/><path d="M352.65 274.42c0-.77-.643-1.41-1.435-1.41-.77 0-1.41.64-1.41 1.41 0 .788.64 1.424 1.41 1.424.792 0 1.434-.636 1.434-1.424" fill="#FFE1BB"/><path d="M351.215 282.888c.897 0 1.628-.72 1.628-1.62 0-.89-.73-1.62-1.628-1.62-.9 0-1.622.73-1.622 1.62 0 .9.723 1.62 1.622 1.62" fill="#FFE1BB"/><path d="M334.55 298.37c0-.26-.206-.455-.46-.455-.248 0-.45.196-.45.454 0 .25.202.45.45.45.254 0 .46-.2.46-.46" fill="#FFE1BB"/><path d="M338.235 294.947c0-.387-.324-.716-.712-.716-.404 0-.716.34-.716.72 0 .39.314.72.716.72.388 0 .712-.32.712-.71" fill="#FFE1BB"/><path d="M341.584 284.69c0-.36-.288-.635-.637-.635-.36 0-.648.275-.648.635 0 .35.28.64.64.64.35.003.63-.287.63-.64" fill="#FFE1BB"/><path d="M341.912 291.53c0-.543-.43-.97-.965-.97-.532 0-.98.427-.98.97 0 .52.446.965.98.965.536 0 .965-.444.965-.966" fill="#FFE1BB"/><path d="M340.947 306.846c.904 0 1.63-.73 1.63-1.642 0-.896-.726-1.62-1.63-1.62-.904 0-1.637.724-1.637 1.62 0 .913.735 1.642 1.637 1.642" fill="#FFE1BB"/><path d="M348.928 277.85c0-.63-.502-1.147-1.132-1.147-.63 0-1.134.517-1.134 1.148 0 .63.504 1.14 1.134 1.14.63 0 1.132-.51 1.132-1.13" fill="#FFE1BB"/><path d="M349.16 284.69c0-.747-.606-1.358-1.364-1.358-.75 0-1.37.61-1.37 1.358 0 .757.617 1.372 1.37 1.372.758 0 1.365-.615 1.365-1.372" fill="#FFE1BB"/><path d="M345.256 281.268c0-.49-.4-.88-.88-.88-.5 0-.882.39-.882.88 0 .495.383.882.88.882.483 0 .882-.387.882-.882" fill="#FFE1BB"/><path d="M345.534 288.108c0-.636-.522-1.158-1.16-1.158-.64 0-1.18.522-1.18 1.158 0 .635.537 1.166 1.18 1.166.638 0 1.16-.53 1.16-1.166" fill="#FFE1BB"/><path fill="#FFE1BB" d="M292.78 339.41c0 .106.083.19.19.19.11 0 .195-.084.195-.19 0-.112-.085-.197-.194-.197-.1 0-.19.085-.19.196"/><path fill="#FFE1BB" d="M261.948 349.662c0 .12.098.2.187.2.12 0 .2-.08.2-.2 0-.098-.08-.192-.2-.192-.09 0-.187.094-.187.192"/><path d="M289.104 342.83c0 .254.187.446.454.446.24 0 .443-.192.443-.445s-.2-.45-.44-.45c-.26 0-.45.2-.45.46" fill="#FFE1BB"/><path d="M285.407 346.244c0 .397.322.716.714.716.39 0 .71-.322.71-.716 0-.392-.32-.704-.7-.704-.39 0-.71.312-.71.704" fill="#FFE1BB"/><path d="M278.815 346.258c0 .24.2.45.454.45.24 0 .45-.21.45-.45 0-.253-.21-.463-.45-.463-.26 0-.46.208-.46.463" fill="#FFE1BB"/><path d="M268.537 349.662c0 .262.206.47.457.47.244 0 .454-.208.454-.47 0-.237-.21-.45-.454-.45-.25 0-.457.213-.457.45" fill="#FFE1BB"/><path d="M275.134 349.662c0 .396.32.715.714.715.388 0 .712-.32.712-.715 0-.383-.324-.704-.712-.704-.395 0-.714.32-.714.704" fill="#FFE1BB"/><path d="M281.725 349.662c0 .546.43.975.968.975.527 0 .974-.43.974-.975 0-.522-.445-.953-.974-.953-.54 0-.968.43-.968.95" fill="#FFE1BB"/><path d="M274.476 356.5c0 .748.623 1.363 1.365 1.363.76 0 1.36-.615 1.36-1.362 0-.74-.6-1.34-1.36-1.34-.74 0-1.36.61-1.36 1.35" fill="#FFE1BB"/><path d="M278.108 353.097c0 .636.522 1.158 1.164 1.158.643 0 1.157-.522 1.157-1.158 0-.65-.52-1.17-1.16-1.17-.65 0-1.17.52-1.17 1.17" fill="#FFE1BB"/><path d="M349.383 291.54c0-.892-.706-1.594-1.587-1.594-.874 0-1.58.704-1.58 1.593 0 .86.708 1.57 1.58 1.57 1.47 0 1.587-.1 1.587-1.58" fill="#FFE1BB"/><path d="M316.956 330.137c.548 0 .986-.453.986-.993 0-.534-.436-.98-.986-.98-.536 0-.972.444-.972.98.002.537.436.993.972.993" fill="#FFE1BB"/><path d="M337.523 310.125c.822 0 1.502-.677 1.502-1.49 0-.832-.68-1.513-1.502-1.513-.844 0-1.515.68-1.515 1.513 0 .813.67 1.49 1.515 1.49" fill="#FFE1BB"/><path d="M334.09 313.414c.758 0 1.372-.61 1.372-1.37 0-.757-.614-1.373-1.372-1.373-.753 0-1.378.62-1.378 1.38.002.76.625 1.37 1.378 1.37" fill="#FFE1BB"/><path d="M330.662 316.707c.683 0 1.25-.547 1.25-1.233 0-.69-.567-1.25-1.25-1.25-.682 0-1.246.56-1.246 1.25 0 .686.564 1.233 1.246 1.233" fill="#FFE1BB"/><path d="M327.234 319.994c.62 0 1.114-.494 1.114-1.116 0-.602-.495-1.108-1.114-1.108-.61 0-1.105.51-1.105 1.108 0 .624.49 1.116 1.1 1.116" fill="#FFE1BB"/><path d="M323.81 323.288c.537 0 .986-.435.986-.984 0-.537-.447-.975-.986-.975-.538 0-.98.43-.98.97.004.54.442.98.98.98" fill="#FFE1BB"/><path d="M320.378 326.71c.548 0 .986-.435.986-.988 0-.53-.436-.966-.986-.966-.537 0-.975.435-.975.966.002.55.438.988.975.988" fill="#FFE1BB"/><path d="M296.4 348.172c-.832 0-1.503.663-1.503 1.49 0 .84.67 1.503 1.502 1.503 1.61 0 1.5.126 1.5-1.503 0-.827-.68-1.49-1.51-1.49" fill="#FFE1BB"/><path d="M299.83 344.877c-.763 0-1.37.622-1.37 1.38 0 .75.607 1.375 1.37 1.375.76 0 1.364-.622 1.364-1.376 0-.755-.605-1.38-1.365-1.38" fill="#FFE1BB"/><path d="M303.25 341.6c-.686 0-1.232.546-1.232 1.23 0 .683.546 1.248 1.233 1.248.7 0 1.24-.565 1.24-1.247 0-.68-.54-1.23-1.24-1.23" fill="#FFE1BB"/><path d="M306.683 338.293c-.616 0-1.114.513-1.114 1.12 0 .607.5 1.117 1.11 1.117.6 0 1.11-.512 1.11-1.116 0-.61-.51-1.12-1.11-1.12" fill="#FFE1BB"/><path d="M310.11 335.008c-.542 0-.987.444-.987.984 0 .542.443.984.988.984.54 0 .98-.44.98-.984 0-.538-.44-.984-.98-.984" fill="#FFE1BB"/><path d="M313.535 331.595c-.545 0-.993.435-.993.975 0 .542.445.98.993.98.536 0 .98-.435.98-.98 0-.538-.44-.975-.98-.975" fill="#FFE1BB"/><path d="M313.535 326.082c.194 0 .354-.16.354-.36 0-.187-.16-.342-.36-.342-.2 0-.36.155-.36.342 0 .2.16.36.36.36" fill="#FFE1BB"/><path d="M316.956 322.664c.194 0 .354-.168.354-.36 0-.19-.16-.35-.354-.35-.182 0-.35.16-.35.35 0 .192.168.36.35.36" fill="#FFE1BB"/><path d="M320.378 319.242c.205 0 .36-.16.36-.364 0-.183-.155-.35-.36-.35-.192 0-.343.167-.343.35 0 .205.15.364.343.364" fill="#FFE1BB"/><path d="M323.81 315.96c.268 0 .503-.23.503-.486 0-.267-.235-.503-.503-.503-.27 0-.486.24-.486.51 0 .26.217.49.486.49" fill="#FFE1BB"/><path d="M327.24 312.672c.343 0 .626-.276.626-.627 0-.346-.283-.622-.625-.622s-.62.276-.62.622c0 .35.29.627.63.627" fill="#FFE1BB"/><path d="M330.662 309.4c.434 0 .772-.355.772-.765 0-.43-.336-.775-.772-.775-.422 0-.77.346-.77.775 0 .41.35.765.77.765" fill="#FFE1BB"/><path d="M334.09 306.117c.5 0 .91-.41.91-.91 0-.49-.412-.896-.91-.896-.497 0-.9.41-.9.9 0 .5.403.91.9.91" fill="#FFE1BB"/><path d="M337.523 302.827c.568 0 1.05-.462 1.05-1.032 0-.578-.48-1.04-1.05-1.04-.58 0-1.045.462-1.045 1.04 0 .57.465 1.032 1.045 1.032" fill="#FFE1BB"/><path d="M340.947 299.544c.643 0 1.164-.524 1.164-1.175 0-.66-.52-1.19-1.16-1.19-.66 0-1.18.53-1.18 1.18 0 .65.52 1.17 1.18 1.17" fill="#FFE1BB"/><path d="M344.375 296.264c.72 0 1.308-.588 1.308-1.317 0-.734-.59-1.317-1.308-1.317-.73 0-1.322.583-1.322 1.317 0 .73.592 1.317 1.322 1.317" fill="#FFE1BB"/><path d="M310.105 328.802c-.194 0-.36.143-.36.342 0 .205.166.37.36.37.2 0 .35-.165.35-.37.003-.2-.15-.342-.35-.342" fill="#FFE1BB"/><path d="M306.683 332.08c-.276 0-.504.22-.504.49 0 .267.22.494.5.494.26 0 .49-.227.49-.494 0-.27-.23-.49-.49-.49" fill="#FFE1BB"/><path d="M303.25 335.356c-.35 0-.634.285-.634.636 0 .342.285.627.635.627.35 0 .64-.29.64-.63 0-.35-.28-.64-.63-.64" fill="#FFE1BB"/><path d="M299.83 338.635c-.43 0-.763.342-.763.774 0 .42.333.77.762.77.43 0 .76-.35.76-.77 0-.44-.34-.78-.77-.78" fill="#FFE1BB"/><path d="M296.4 341.93c-.494 0-.914.398-.914.9 0 .505.422.908.913.908.5 0 .9-.405.9-.907 0-.5-.41-.9-.91-.9" fill="#FFE1BB"/><path d="M292.97 345.217c-.57 0-1.04.462-1.04 1.04 0 .56.47 1.037 1.04 1.037.583 0 1.04-.476 1.04-1.036.004-.58-.457-1.04-1.04-1.04" fill="#FFE1BB"/><path d="M289.558 348.486c-.664 0-1.186.538-1.186 1.176 0 .653.522 1.19 1.186 1.19.637 0 1.16-.537 1.16-1.19 0-.636-.52-1.176-1.16-1.176" fill="#FFE1BB"/><path d="M286.12 351.776c-.73 0-1.316.592-1.316 1.32 0 .72.587 1.31 1.317 1.31s1.33-.59 1.33-1.31c0-.73-.6-1.32-1.32-1.32" fill="#FFE1BB"/><path d="M241.58 364.883c.84 0 1.53-.686 1.53-1.536 0-.836-.69-1.526-1.53-1.526-.85 0-1.53.69-1.53 1.53 0 .85.68 1.54 1.53 1.54" fill="#FFE1BB"/><path d="M248.43 364.928c.883 0 1.588-.708 1.588-1.58 0-.87-.708-1.573-1.59-1.573-.866 0-1.576.704-1.576 1.574 0 .87.71 1.57 1.577 1.57" fill="#FFE1BB"/><path d="M265.566 361.413c.812 0 1.476-.663 1.476-1.486 0-.806-.664-1.47-1.476-1.47-.815 0-1.48.664-1.48 1.47-.002.823.663 1.486 1.48 1.486" fill="#FFE1BB"/><path d="M258.714 361.267c.737 0 1.335-.61 1.335-1.34 0-.73-.6-1.326-1.34-1.326-.73 0-1.34.6-1.34 1.33 0 .73.6 1.34 1.34 1.34" fill="#FFE1BB"/><path d="M251.86 361.12c.657 0 1.194-.523 1.194-1.193 0-.658-.537-1.175-1.194-1.175-.664 0-1.192.517-1.192 1.175-.002.673.528 1.192 1.192 1.192" fill="#FFE1BB"/><path d="M245.008 360.978c.575 0 1.052-.48 1.052-1.05 0-.58-.477-1.033-1.052-1.033-.57 0-1.04.454-1.04 1.032 0 .57.47 1.05 1.04 1.05" fill="#FFE1BB"/><path d="M241.58 357.146c.35 0 .646-.28.646-.636 0-.36-.295-.636-.646-.636-.354 0-.64.276-.64.636 0 .355.286.636.64.636" fill="#FFE1BB"/><path d="M268.996 357.683c.648 0 1.178-.52 1.178-1.175 0-.663-.527-1.187-1.178-1.187-.657 0-1.194.53-1.194 1.19-.002.66.537 1.18 1.194 1.18" fill="#FFE1BB"/><path d="M262.135 357.51c.555 0 1.002-.444 1.002-1 0-.55-.447-.998-1.002-.998-.552 0-1 .444-1 .998-.002.556.448 1 1 1" fill="#FFE1BB"/><path d="M255.28 357.332c.458 0 .832-.36.832-.822 0-.462-.374-.818-.83-.818-.444 0-.813.356-.813.818 0 .463.36.822.81.822" fill="#FFE1BB"/><path d="M248.43 357.146c.353 0 .648-.28.648-.636 0-.36-.295-.636-.65-.636-.348 0-.642.276-.642.636 0 .355.294.636.643.636" fill="#FFE1BB"/><path d="M245.008 353.453c.2 0 .37-.164.37-.356 0-.214-.17-.37-.37-.37-.2 0-.367.156-.367.37 0 .192.17.356.37.356" fill="#FFE1BB"/><path d="M272.42 354.08c.536 0 .954-.45.954-.98 0-.534-.418-.953-.954-.953-.53 0-.98.42-.98.952 0 .53.448.98.98.98" fill="#FFE1BB"/><path d="M265.566 353.883c.42 0 .764-.342.764-.756 0-.428-.344-.775-.764-.775-.42 0-.763.347-.763.775 0 .414.343.756.763.756" fill="#FFE1BB"/><path d="M258.714 353.696c.31 0 .555-.243.555-.56 0-.312-.25-.57-.56-.57-.32 0-.57.258-.57.57 0 .317.25.56.57.56" fill="#FFE1BB"/><path d="M251.86 353.523c.203 0 .372-.16.372-.37 0-.208-.17-.36-.372-.36-.208 0-.368.152-.368.36 0 .21.16.37.368.37" fill="#FFE1BB"/><path d="M128.493 251.844c-.757 0-1.37-.603-1.37-1.357 0-.757.613-1.372 1.37-1.372.747 0 1.37.615 1.37 1.372 0 .754-.623 1.357-1.37 1.357" fill="#FFE1BB"/><path d="M135.343 251.113c-.342 0-.63-.285-.63-.626 0-.344.288-.616.63-.616.347 0 .63.27.63.62 0 .34-.283.63-.63.63" fill="#FFE1BB"/><path fill="#FFE1BB" d="M138.787 254.15c-.153 0-.265-.107-.265-.248 0-.135.112-.244.265-.244.114 0 .224.112.224.244 0 .143-.11.248-.22.248"/><path d="M127.14 250.475c0-.754.605-1.367 1.363-1.367.755 0 1.37.613 1.37 1.367 0 .747-.615 1.37-1.37 1.37-.758 0-1.363-.623-1.363-1.37" fill="#FFE1BB"/><path d="M130.922 253.902c0-.563.443-1.014 1.006-1.014.555 0 1.018.45 1.018 1.014 0 .544-.463 1.004-1.018 1.004-.56.003-1.006-.46-1.006-1.004" fill="#FFE1BB"/><path d="M134.697 257.317c0-.362.297-.663.664-.663.36 0 .65.3.65.663 0 .358-.29.654-.64.654-.36 0-.66-.29-.66-.65" fill="#FFE1BB"/><path d="M138.48 260.74c0-.174.136-.31.307-.31.162 0 .29.136.29.31 0 .167-.128.306-.29.306-.17-.002-.308-.14-.308-.307" fill="#FFE1BB"/><path d="M127.122 257.317c0-.745.614-1.35 1.37-1.35.748 0 1.37.605 1.37 1.35 0 .763-.62 1.37-1.37 1.37-.756 0-1.37-.605-1.37-1.37" fill="#FFE1BB"/><path d="M130.908 260.75c0-.556.452-1.01.998-1.01.575 0 1.03.454 1.03 1.01 0 .552-.455 1.005-1.03 1.005-.546.002-.998-.45-.998-1.005" fill="#FFE1BB"/><path d="M134.69 264.163c0-.36.283-.654.653-.654.365 0 .657.29.657.65 0 .36-.292.66-.657.66-.37 0-.653-.3-.653-.67" fill="#FFE1BB"/><path d="M138.278 267.59c0-.28.228-.48.51-.48.248 0 .47.2.47.48 0 .266-.222.476-.47.476-.282 0-.51-.208-.51-.476" fill="#FFE1BB"/><path d="M141.887 271.01c0-.176.15-.302.312-.302.17 0 .29.126.29.303 0 .16-.13.3-.3.3-.16 0-.31-.13-.31-.29" fill="#FFE1BB"/><path d="M141.887 277.85c0-.172.15-.31.312-.31.17 0 .29.138.29.31 0 .16-.13.295-.3.295-.16 0-.31-.132-.31-.294" fill="#FFE1BB"/><path fill="#FFE1BB" d="M145.433 281.268c0-.11.076-.187.194-.187.11 0 .194.08.194.19s-.08.19-.19.19c-.12 0-.19-.09-.19-.19"/><path d="M145.34 288.108c0-.17.135-.303.303-.303.167 0 .302.134.302.303 0 .168-.135.303-.302.303-.17 0-.303-.13-.303-.3" fill="#FFE1BB"/><path fill="#FFE1BB" d="M148.882 291.53c0-.108.08-.2.185-.2.107 0 .21.092.21.2 0 .11-.103.195-.21.195-.105 0-.185-.084-.185-.196"/><path fill="#FFE1BB" d="M152.285 301.795c0-.116.087-.2.194-.2.1 0 .19.084.19.2 0 .112-.09.192-.2.192-.11 0-.2-.08-.2-.192"/><path fill="#FFE1BB" d="M155.707 305.204c0-.103.084-.187.194-.187s.2.084.2.187c0 .107-.09.2-.2.2-.11 0-.19-.093-.19-.2"/><path d="M155.923 327.285c-1.275 0-1.536-.313-1.536-1.563 0-.84.69-1.54 1.536-1.54.863 0 1.552.7 1.552 1.54-.002.863-.69 1.563-1.552 1.563" fill="#FFE1BB"/><path d="M162.773 334.115c-1.347 0-1.54-.018-1.54-1.545 0-.85.69-1.545 1.54-1.545.854 0 1.552.695 1.552 1.545-.002.854-.698 1.545-1.552 1.545" fill="#FFE1BB"/><path d="M159.347 330.688c-1.42 0-1.536-.2-1.536-1.544 0-.84.7-1.536 1.54-1.536.86 0 1.55.695 1.55 1.536 0 .845-.69 1.544-1.55 1.544" fill="#FFE1BB"/><path d="M128.493 249.076c-.757 0-1.37.613-1.37 1.37 0 .747.613 1.367 1.37 1.367.747 0 1.37-.618 1.37-1.367 0-.76-.623-1.37-1.37-1.37" fill="#FFE1BB"/><path d="M135.343 249.815c-.342 0-.63.277-.63.628 0 .342.288.627.63.627.347 0 .63-.285.63-.627 0-.35-.283-.628-.63-.628" fill="#FFE1BB"/><path fill="#FFE1BB" d="M138.787 246.782c-.153 0-.265.112-.265.246 0 .132.112.235.265.235.114 0 .224-.103.224-.235 0-.134-.11-.246-.22-.246"/><path d="M127.046 250.452c0 .748.15 1.358 1.457 1.358.755 0 1.37-.61 1.37-1.358 0-.747-.615-1.37-1.37-1.37-.758 0-1.457.623-1.457 1.37" fill="#FFE1BB"/><path d="M130.922 247.035c0 .554.443 1.007 1.006 1.007.555 0 1.018-.453 1.018-1.007 0-.56-.463-1.005-1.018-1.005-.56 0-1.006.445-1.006 1.005" fill="#FFE1BB"/><path d="M134.697 243.613c0 .36.297.663.664.663.36 0 .65-.303.65-.663 0-.37-.29-.663-.64-.663-.36 0-.66.292-.66.663" fill="#FFE1BB"/><path d="M138.48 240.19c0 .174.136.302.307.302.162 0 .29-.128.29-.303 0-.16-.128-.3-.29-.3-.17 0-.308.13-.308.29" fill="#FFE1BB"/><path d="M126.998 243.606c0 .754.738 1.358 1.495 1.358.747 0 1.37-.604 1.37-1.358 0-.756-.62-1.362-1.37-1.362-.757 0-1.495.606-1.495 1.362" fill="#FFE1BB"/><path d="M130.908 240.18c0 .562.452 1.014.998 1.014.575 0 1.03-.452 1.03-1.014 0-.554-.455-1.005-1.03-1.005-.546-.002-.998.45-.998 1.005" fill="#FFE1BB"/><path d="M134.69 236.765c0 .362.283.663.653.663.365 0 .657-.3.657-.663 0-.363-.292-.654-.657-.654-.37 0-.653.29-.653.66" fill="#FFE1BB"/><path d="M138.465 233.34c0 .17.135.313.302.313.175 0 .303-.144.303-.313 0-.166-.128-.293-.303-.293-.167 0-.302.125-.302.293" fill="#FFE1BB"/><path d="M155.533 188.923c0 .21.164.37.368.37.21 0 .37-.16.37-.37 0-.202-.16-.36-.37-.36-.2-.002-.36.158-.36.36" fill="#FFE1BB"/><path d="M234.146 144.47c0-.32.253-.56.564-.56.313 0 .566.24.566.56 0 .312-.253.55-.566.55-.31 0-.564-.238-.564-.55" fill="#FFE1BB"/><path d="M227.294 144.47c0-.32.245-.56.562-.56.315 0 .557.24.557.56 0 .312-.242.55-.557.55-.315 0-.562-.238-.562-.55" fill="#FFE1BB"/><path fill="#FFE1BB" d="M231.08 147.883c0-.107.092-.2.197-.2.12 0 .206.093.206.2 0 .12-.085.203-.206.203-.105 0-.198-.082-.198-.203"/><path fill="#FFE1BB" d="M237.935 147.883c0-.107.077-.2.205-.2.117 0 .2.093.2.2 0 .12-.083.203-.2.203-.127 0-.205-.082-.205-.203"/><path d="M221.79 144.47c0-.435-.352-.788-.775-.788-.436 0-.798.35-.798.788 0 .428.36.78.798.78.423 0 .774-.354.774-.78" fill="#FFE1BB"/><path d="M215.154 144.47c0-.554-.445-1.023-1-1.023-.563 0-1.008.47-1.008 1.023 0 .55.445 1.005 1.008 1.005.553 0 1-.454 1-1.005" fill="#FFE1BB"/><path d="M208.53 144.47c0-.69-.556-1.233-1.227-1.233-.692 0-1.246.543-1.246 1.233 0 .672.554 1.223 1.246 1.223.67 0 1.228-.55 1.228-1.223" fill="#FFE1BB"/><path d="M201.905 144.47c0-.813-.648-1.46-1.463-1.46-.808 0-1.463.644-1.463 1.46 0 .797.65 1.454 1.46 1.454.81 0 1.46-.657 1.46-1.454" fill="#FFE1BB"/><path d="M176.002 168.415c0 .248.21.442.454.442.25 0 .452-.194.452-.442 0-.262-.203-.456-.452-.456-.244-.01-.454.19-.454.45" fill="#FFE1BB"/><path d="M179.348 164.98c0 .302.237.546.536.546.304 0 .548-.244.548-.545 0-.28-.244-.53-.548-.53-.3 0-.536.25-.536.53" fill="#FFE1BB"/><path d="M182.694 161.566c0 .342.28.627.623.627.342 0 .612-.285.612-.627 0-.335-.27-.622-.62-.622s-.63.285-.63.622" fill="#FFE1BB"/><path d="M186.022 158.15c0 .386.333.705.716.705.395 0 .705-.32.705-.706 0-.4-.31-.72-.705-.72-.383-.01-.716.32-.716.72" fill="#FFE1BB"/><path d="M189.38 154.73c0 .44.34.794.78.794.442 0 .803-.353.803-.793 0-.43-.358-.79-.803-.79-.44 0-.78.36-.78.8" fill="#FFE1BB"/><path d="M224.42 148.318c-.232 0-.42-.2-.42-.435s.188-.433.42-.433c.243 0 .437.2.437.433.002.235-.192.435-.436.435" fill="#FFE1BB"/><path d="M217.576 148.55c-.36 0-.658-.305-.658-.667 0-.36.297-.652.658-.652.36 0 .664.3.664.66 0 .36-.304.67-.664.67" fill="#FFE1BB"/><path d="M210.715 148.758c-.482 0-.865-.385-.865-.875 0-.485.383-.88.865-.88.488 0 .892.395.892.88 0 .49-.404.875-.892.875" fill="#FFE1BB"/><path d="M203.87 148.99c-.612 0-1.107-.503-1.107-1.107 0-.602.498-1.105 1.107-1.105.616 0 1.112.506 1.112 1.105.002.606-.496 1.107-1.112 1.107" fill="#FFE1BB"/><path fill="#FFE1BB" d="M213.942 151.3c0-.11.085-.2.212-.2.11 0 .204.09.204.2 0 .128-.094.22-.204.22-.125 0-.212-.092-.212-.22"/><path d="M207.303 151.735c-.242 0-.436-.193-.436-.435 0-.228.194-.428.436-.428.235 0 .43.2.43.428 0 .242-.195.435-.43.435" fill="#FFE1BB"/><path d="M200.442 151.963c-.36 0-.648-.303-.648-.663 0-.36.287-.654.648-.654.36 0 .653.294.653.654 0 .36-.29.663-.653.663" fill="#FFE1BB"/><path d="M193.592 152.182c-.48 0-.874-.385-.874-.882 0-.476.393-.865.874-.865.49 0 .88.39.88.865 0 .497-.394.882-.88.882" fill="#FFE1BB"/><path fill="#FFE1BB" d="M203.665 154.724c0-.118.1-.207.207-.207.112 0 .21.09.21.207 0 .12-.098.203-.21.203-.107 0-.207-.084-.207-.203"/><path fill="#FFE1BB" d="M186.537 164.997c0-.118.083-.2.203-.2.12 0 .213.082.213.2 0 .116-.094.2-.213.2-.12 0-.203-.086-.203-.2"/><path d="M189.883 161.573c0-.16.128-.285.277-.285.16 0 .287.125.287.285 0 .148-.128.278-.287.278-.15 0-.277-.13-.277-.27" fill="#FFE1BB"/><path d="M193.227 158.15c0-.202.17-.36.363-.36.2 0 .354.158.354.36 0 .192-.153.36-.354.36-.192 0-.363-.168-.363-.36" fill="#FFE1BB"/><path d="M197.018 155.153c-.242 0-.43-.196-.43-.43 0-.23.188-.427.43-.427.235 0 .432.196.432.428 0 .233-.197.43-.432.43" fill="#FFE1BB"/><path d="M197.018 149.202c-.73 0-1.335-.588-1.335-1.32 0-.717.605-1.323 1.335-1.323s1.33.6 1.33 1.32c0 .73-.597 1.32-1.33 1.32" fill="#FFE1BB"/><path d="M190.16 149.437c-.854 0-1.546-.695-1.546-1.554 0-.864.692-1.558 1.546-1.558.87 0 1.568.694 1.568 1.558-.003.86-.7 1.554-1.568 1.554" fill="#FFE1BB"/><path d="M186.74 152.75c-.807 0-1.456-.643-1.456-1.45 0-.806.65-1.45 1.457-1.45s1.46.644 1.46 1.45c0 .807-.65 1.45-1.45 1.45" fill="#FFE1BB"/><path d="M183.32 156.09c-.76 0-1.375-.605-1.375-1.368 0-.745.616-1.36 1.374-1.36.74 0 1.37.615 1.37 1.36-.01.766-.63 1.37-1.37 1.37" fill="#FFE1BB"/><path d="M179.886 159.415c-.705 0-1.27-.57-1.27-1.278 0-.697.565-1.26 1.27-1.26.71 0 1.274.563 1.274 1.26-.002.707-.566 1.278-1.274 1.278" fill="#FFE1BB"/><path d="M176.465 162.74c-.655 0-1.187-.522-1.187-1.176 0-.647.53-1.17 1.187-1.17.64 0 1.178.523 1.178 1.17-.002.654-.54 1.175-1.178 1.175" fill="#FFE1BB"/><path d="M173.035 166.063c-.598 0-1.087-.49-1.087-1.084 0-.59.49-1.09 1.087-1.09.598 0 1.077.49 1.077 1.08-.002.59-.482 1.08-1.077 1.08" fill="#FFE1BB"/><path d="M169.606 169.394c-.547 0-.986-.437-.986-.993 0-.54.436-.99.986-.99s.993.45.993.99c-.01.56-.45 1-1 1" fill="#FFE1BB"/><path d="M166.174 172.716c-.477 0-.888-.403-.888-.89 0-.495.41-.892.888-.892.504 0 .904.397.904.89-.003.49-.4.892-.904.892" fill="#FFE1BB"/><path d="M162.752 176.04c-.436 0-.79-.362-.79-.8 0-.433.352-.786.79-.786.445 0 .808.35.808.786-.002.438-.363.8-.808.8" fill="#FFE1BB"/><path d="M151.906 192.348c0 .31.26.562.573.562.32 0 .56-.252.56-.562 0-.312-.25-.572-.57-.572-.32 0-.58.26-.58.572" fill="#FFE1BB"/><path d="M148.29 195.763c0 .428.34.772.76.772s.763-.344.763-.772c0-.422-.342-.766-.764-.766-.42 0-.76.344-.76.766" fill="#FFE1BB"/><path d="M144.67 199.185c0 .528.428.966.957.966.53 0 .96-.43.96-.96 0-.52-.43-.96-.96-.96s-.958.44-.958.97" fill="#FFE1BB"/><path d="M141.047 202.61c0 .635.51 1.156 1.152 1.156.64 0 1.14-.52 1.14-1.157 0-.65-.51-1.17-1.15-1.17-.64 0-1.16.52-1.16 1.16" fill="#FFE1BB"/><path d="M137.413 206.022c0 .756.596 1.362 1.374 1.362.737 0 1.33-.606 1.33-1.362 0-.745-.593-1.358-1.33-1.358-.778.002-1.374.613-1.374 1.358" fill="#FFE1BB"/><path d="M145.627 191.18c.65 0 1.17.52 1.17 1.168 0 .65-.52 1.175-1.17 1.175-.655 0-1.186-.52-1.186-1.175 0-.65.54-1.17 1.19-1.17" fill="#FFE1BB"/><path d="M149.05 187.848c.595 0 1.085.488 1.085 1.085 0 .585-.49 1.073-1.086 1.073-.61 0-1.09-.488-1.09-1.073 0-.597.48-1.085 1.08-1.085" fill="#FFE1BB"/><path d="M152.48 184.526c.536 0 .985.436.985.99 0 .537-.447.983-.986.983-.55 0-.99-.45-.99-.99 0-.56.43-.99.98-.99" fill="#FFE1BB"/><path d="M155.9 181.202c.496 0 .9.392.9.89 0 .486-.404.89-.9.89-.495 0-.88-.404-.88-.89 0-.498.385-.89.88-.89" fill="#FFE1BB"/><path d="M159.33 177.87c.44 0 .79.352.79.806 0 .428-.348.79-.79.79-.433 0-.8-.362-.8-.79 0-.454.365-.807.8-.807" fill="#FFE1BB"/><path fill="#FFE1BB" d="M166.206 178.874c-.117 0-.23-.09-.23-.2 0-.126.113-.22.23-.22.112 0 .22.094.22.22 0 .11-.108.2-.22.2"/><path fill="#FFE1BB" d="M162.752 182.29c-.127 0-.2-.083-.2-.2 0-.12.073-.213.2-.213.128 0 .222.093.222.212 0 .11-.096.2-.222.2"/><path d="M145.105 206.02c0 .29.235.52.522.52.288 0 .512-.23.512-.52 0-.278-.23-.51-.52-.51-.29 0-.52.23-.52.51" fill="#FFE1BB"/><path fill="#FFE1BB" d="M155.9 195.988c-.11 0-.21-.102-.21-.227 0-.11.1-.2.21-.2.128 0 .222.1.222.21 0 .13-.096.23-.22.23"/><path fill="#FFE1BB" d="M152.48 199.438c-.145 0-.245-.117-.245-.253 0-.135.1-.24.244-.24.12 0 .23.108.23.24-.01.136-.11.253-.24.253"/><path d="M149.05 202.928c-.177 0-.328-.135-.328-.32 0-.193.15-.336.327-.336.18 0 .33.143.33.337 0 .18-.16.31-.34.31" fill="#FFE1BB"/><path fill="#FFE1BB" d="M145.627 213.082c-.118 0-.22-.1-.22-.22 0-.108.102-.2.22-.2.117 0 .21.092.21.2 0 .12-.093.22-.21.22"/><path d="M173.035 172.196c-.21 0-.36-.175-.36-.37 0-.2.15-.36.36-.36.212 0 .36.16.36.36 0 .195-.15.37-.36.37" fill="#FFE1BB"/><path d="M169.606 175.52c-.148 0-.27-.118-.27-.278 0-.143.122-.273.27-.273.15 0 .277.13.277.27 0 .16-.128.28-.277.28" fill="#FFE1BB"/><path d="M159.33 185.834c-.184 0-.328-.15-.328-.33 0-.182.144-.333.327-.333.17 0 .33.16.33.34 0 .18-.16.33-.34.33" fill="#FFE1BB"/><path d="M131.903 227.81c-.698 0-1.25-.57-1.25-1.268 0-.697.552-1.258 1.25-1.258.71 0 1.29.56 1.29 1.258 0 .697-.58 1.267-1.29 1.267" fill="#FFE1BB"/><path d="M135.343 224.068c-.51 0-.94-.428-.94-.94 0-.523.43-.95.94-.95.516 0 .943.43.943.95 0 .512-.427.94-.943.94" fill="#FFE1BB"/><path d="M135.343 230.704c-.404 0-.726-.332-.726-.738 0-.403.324-.738.726-.738.406 0 .742.335.742.738 0 .406-.336.738-.742.738" fill="#FFE1BB"/><path d="M131.903 234.49c-.586 0-1.09-.496-1.09-1.106 0-.604.504-1.105 1.09-1.105.626 0 1.103.5 1.103 1.1.002.61-.475 1.1-1.103 1.1" fill="#FFE1BB"/><path d="M138.787 226.998c-.265 0-.475-.194-.475-.454 0-.24.21-.444.475-.444.224 0 .43.203.43.444 0 .26-.208.454-.43.454" fill="#FFE1BB"/><path d="M138.787 213.77c-.518 0-.917-.403-.917-.904 0-.497.4-.89.917-.89.477 0 .88.393.88.89 0 .5-.403.904-.88.904" fill="#FFE1BB"/><path d="M142.2 216.698c-.238 0-.416-.183-.416-.4 0-.23.176-.414.415-.414.22 0 .41.185.41.413 0 .218-.19.4-.41.4" fill="#FFE1BB"/><path d="M142.2 210.102c-.373 0-.66-.294-.66-.654 0-.36.287-.654.66-.654.35 0 .652.294.652.654 0 .36-.3.654-.653.654" fill="#FFE1BB"/><path d="M128.503 265.744c-.886 0-1.598-.708-1.598-1.58 0-.862.714-1.578 1.598-1.578.855 0 1.57.716 1.57 1.58-.002.87-.715 1.578-1.57 1.578" fill="#FFE1BB"/><path d="M138.162 274.43c0-.338.276-.616.623-.616.317 0 .593.275.593.615 0 .33-.276.61-.593.61-.347 0-.623-.28-.623-.61" fill="#FFE1BB"/><path d="M134.43 271.002c0-.503.418-.91.913-.91.507 0 .915.41.915.91 0 .502-.41.916-.915.916-.498.002-.913-.412-.913-.916" fill="#FFE1BB"/><path d="M130.696 267.59c0-.673.555-1.22 1.207-1.22.683 0 1.24.547 1.24 1.22 0 .667-.557 1.205-1.24 1.205-.652.002-1.207-.538-1.207-1.205" fill="#FFE1BB"/><path d="M130.493 274.42c0-.77.64-1.41 1.41-1.41.804 0 1.434.64 1.434 1.41 0 .788-.63 1.424-1.434 1.424-.77 0-1.41-.636-1.41-1.424" fill="#FFE1BB"/><path d="M131.903 282.888c-.88 0-1.764-.72-1.764-1.62 0-.89.88-1.62 1.76-1.62.91 0 1.64.73 1.64 1.62 0 .9-.74 1.62-1.65 1.62" fill="#FFE1BB"/><path d="M148.606 298.37c0-.26.19-.455.443-.455.25 0 .44.196.44.454 0 .25-.2.45-.45.45-.26 0-.45-.2-.45-.46" fill="#FFE1BB"/><path d="M144.918 294.947c0-.387.306-.716.71-.716.394 0 .714.34.714.72 0 .39-.32.72-.715.72-.403 0-.71-.32-.71-.71" fill="#FFE1BB"/><path d="M141.558 284.69c0-.36.294-.635.64-.635.353 0 .638.275.638.635 0 .35-.285.64-.637.64-.35.003-.65-.287-.65-.64" fill="#FFE1BB"/><path d="M141.22 291.53c0-.543.445-.97.98-.97.543 0 .974.427.974.97 0 .52-.43.965-.975.965-.54 0-.98-.444-.98-.966" fill="#FFE1BB"/><path d="M142.2 306.846c-.905 0-1.635-.73-1.635-1.642 0-.896.73-1.62 1.634-1.62.9 0 1.63.724 1.63 1.62 0 .913-.74 1.642-1.64 1.642" fill="#FFE1BB"/><path d="M134.213 277.85c0-.63.5-1.147 1.13-1.147.63 0 1.137.517 1.137 1.148 0 .63-.507 1.14-1.137 1.14s-1.13-.51-1.13-1.13" fill="#FFE1BB"/><path d="M133.985 284.69c0-.747.605-1.358 1.358-1.358.758 0 1.363.61 1.363 1.358 0 .757-.605 1.372-1.363 1.372-.753 0-1.358-.615-1.358-1.372" fill="#FFE1BB"/><path d="M137.874 281.268c0-.49.395-.88.91-.88.478 0 .873.39.873.88 0 .495-.395.882-.872.882-.516 0-.91-.387-.91-.882" fill="#FFE1BB"/><path d="M137.603 288.108c0-.636.525-1.158 1.184-1.158.62 0 1.148.522 1.148 1.158 0 .635-.527 1.166-1.148 1.166-.657 0-1.184-.53-1.184-1.166" fill="#FFE1BB"/><path fill="#FFE1BB" d="M186.94 335.992c0 .103-.083.196-.202.196-.11 0-.194-.093-.194-.196 0-.116.085-.2.194-.2.12 0 .2.084.2.2"/><path fill="#FFE1BB" d="M183.502 332.57c0 .107-.076.19-.183.19-.13 0-.21-.083-.21-.19 0-.102.08-.196.2-.196.1 0 .18.094.18.196"/><path fill="#FFE1BB" d="M200.643 342.83c0 .113-.092.193-.2.193-.113 0-.186-.08-.186-.192 0-.1.073-.18.185-.18.11 0 .2.08.2.18"/><path fill="#FFE1BB" d="M210.916 346.258c0 .098-.092.19-.192.19s-.194-.092-.194-.19c0-.12.094-.205.194-.205s.192.084.192.205"/><path fill="#FFE1BB" d="M221.19 349.662c0 .12-.08.2-.186.2-.116 0-.21-.08-.21-.2 0-.098.094-.192.21-.192.105 0 .187.094.187.192"/><path d="M210.724 358.308c.9 0 1.63.72 1.63 1.62 0 .9-.73 1.624-1.63 1.624-1.237 0-1.616-.267-1.616-1.625 0-.9.726-1.62 1.616-1.62" fill="#FFE1BB"/><path d="M194.053 342.83c0 .254-.212.446-.46.446-.243 0-.448-.192-.448-.445s.205-.45.447-.45c.25 0 .46.2.46.46" fill="#FFE1BB"/><path d="M197.735 346.244c0 .397-.322.716-.715.716-.392 0-.714-.322-.714-.716 0-.392.322-.704.714-.704.393 0 .715.312.715.704" fill="#FFE1BB"/><path d="M204.32 346.258c0 .24-.206.45-.448.45-.26 0-.45-.21-.45-.45 0-.253.19-.463.45-.463.242 0 .448.208.448.463" fill="#FFE1BB"/><path d="M214.61 349.662c0 .262-.21.47-.453.47-.26 0-.454-.208-.454-.47 0-.237.194-.45.454-.45.242 0 .452.213.452.45" fill="#FFE1BB"/><path d="M208.008 349.662c0 .396-.322.715-.705.715-.404 0-.715-.32-.715-.715 0-.383.313-.704.715-.704.383 0 .705.32.705.704" fill="#FFE1BB"/><path d="M201.41 349.662c0 .546-.43.975-.968.975-.54 0-.97-.43-.97-.975 0-.522.43-.953.97-.953.538 0 .968.43.968.95" fill="#FFE1BB"/><path d="M208.665 356.5c0 .748-.616 1.363-1.355 1.363-.765 0-1.37-.615-1.37-1.362 0-.74.605-1.34 1.37-1.34.74 0 1.355.61 1.355 1.35" fill="#FFE1BB"/><path d="M205.032 353.097c0 .636-.514 1.158-1.162 1.158-.637 0-1.16-.522-1.16-1.158 0-.65.523-1.17 1.16-1.17.65 0 1.162.52 1.162 1.17" fill="#FFE1BB"/><path d="M133.754 291.54c0-.892.71-1.594 1.59-1.594.875 0 1.58.704 1.58 1.593 0 .86-.707 1.57-1.58 1.57-.882 0-1.59-.72-1.59-1.58" fill="#FFE1BB"/><path d="M166.174 330.137c-.543 0-.975-.453-.975-.993 0-.534.42-.98.97-.98s.99.444.99.98c-.01.537-.45.993-1 .993" fill="#FFE1BB"/><path d="M145.627 310.125c-.842 0-1.513-.677-1.513-1.49 0-.832.67-1.513 1.513-1.513.824 0 1.505.68 1.505 1.513 0 .813-.68 1.49-1.505 1.49" fill="#FFE1BB"/><path d="M149.05 313.414c-.76 0-1.38-.61-1.38-1.37 0-.757.62-1.373 1.38-1.373.754 0 1.377.62 1.377 1.38 0 .76-.623 1.37-1.378 1.37" fill="#FFE1BB"/><path d="M152.48 316.707c-.69 0-1.245-.547-1.245-1.233 0-.69.555-1.25 1.244-1.25.69 0 1.23.56 1.23 1.25 0 .686-.55 1.233-1.24 1.233" fill="#FFE1BB"/><path d="M159.33 323.288c-.538 0-.983-.435-.983-.984 0-.537.443-.975.982-.975.53 0 .98.43.98.97s-.45.98-.99.98" fill="#FFE1BB"/><path d="M162.752 326.71c-.536 0-.976-.435-.976-.988 0-.53.438-.966.976-.966.546 0 .986.435.986.966-.002.55-.44.988-.986.988" fill="#FFE1BB"/><path d="M186.73 348.172c.84 0 1.512.663 1.512 1.49 0 .84-.67 1.503-1.51 1.503-.825 0-1.496-.663-1.496-1.503-.002-.827.67-1.49 1.495-1.49" fill="#FFE1BB"/><path d="M183.308 344.877c.764 0 1.378.622 1.378 1.38 0 .75-.616 1.375-1.378 1.375-.758 0-1.37-.622-1.37-1.376 0-.755.612-1.38 1.37-1.38" fill="#FFE1BB"/><path d="M179.886 341.6c.692 0 1.247.546 1.247 1.23 0 .683-.555 1.248-1.247 1.248-.677 0-1.24-.565-1.24-1.247 0-.68.563-1.23 1.24-1.23" fill="#FFE1BB"/><path d="M176.458 338.293c.614 0 1.116.513 1.116 1.12 0 .607-.504 1.117-1.116 1.117-.605 0-1.11-.512-1.11-1.116 0-.61.505-1.12 1.11-1.12" fill="#FFE1BB"/><path d="M173.035 335.008c.547 0 .983.444.983.984 0 .542-.433.984-.983.984-.537 0-.982-.44-.982-.984 0-.538.443-.984.982-.984" fill="#FFE1BB"/><path d="M169.606 331.595c.537 0 .982.435.982.975 0 .542-.443.98-.982.98-.547 0-.986-.435-.986-.98 0-.538.436-.975.986-.975" fill="#FFE1BB"/><path d="M169.606 326.082c-.196 0-.353-.16-.353-.36 0-.187.157-.342.353-.342.194 0 .35.155.35.342 0 .2-.156.36-.35.36" fill="#FFE1BB"/><path d="M166.174 322.664c-.194 0-.343-.168-.343-.36 0-.19.15-.35.35-.35.21 0 .37.16.37.35 0 .192-.16.36-.36.36" fill="#FFE1BB"/><path d="M162.752 319.242c-.194 0-.35-.16-.35-.364 0-.183.156-.35.35-.35.204 0 .354.167.354.35 0 .205-.15.364-.354.364" fill="#FFE1BB"/><path d="M159.33 315.96c-.266 0-.5-.23-.5-.486 0-.267.234-.503.5-.503.28 0 .492.24.492.51 0 .26-.212.49-.493.49" fill="#FFE1BB"/><path d="M152.48 309.4c-.423 0-.765-.355-.765-.765 0-.43.342-.775.764-.775.42 0 .77.346.77.775 0 .41-.36.765-.78.765" fill="#FFE1BB"/><path d="M149.05 306.117c-.506 0-.907-.41-.907-.91 0-.49.404-.896.906-.896.51 0 .9.41.9.9 0 .5-.4.91-.91.91" fill="#FFE1BB"/><path d="M145.627 302.827c-.582 0-1.052-.462-1.052-1.032 0-.578.47-1.04 1.052-1.04.57 0 1.053.462 1.053 1.04 0 .57-.482 1.032-1.053 1.032" fill="#FFE1BB"/><path d="M142.2 299.544c-.66 0-1.18-.524-1.18-1.175 0-.66.52-1.19 1.18-1.19.643 0 1.175.53 1.175 1.18 0 .65-.532 1.17-1.176 1.17" fill="#FFE1BB"/><path d="M138.787 296.264c-.75 0-1.34-.588-1.34-1.317 0-.734.59-1.317 1.34-1.317.72 0 1.297.583 1.297 1.317 0 .73-.578 1.317-1.297 1.317" fill="#FFE1BB"/><path d="M173.035 328.802c.194 0 .35.143.35.342 0 .205-.156.37-.35.37-.21 0-.352-.165-.352-.37-.002-.2.142-.342.352-.342" fill="#FFE1BB"/><path d="M176.465 332.08c.27 0 .498.22.498.49 0 .267-.23.494-.498.494-.278 0-.495-.227-.495-.494 0-.27.217-.49.495-.49" fill="#FFE1BB"/><path d="M179.886 335.356c.343 0 .63.285.63.636 0 .342-.287.627-.63.627-.342 0-.63-.29-.63-.63-.002-.35.286-.64.63-.64" fill="#FFE1BB"/><path d="M183.32 338.635c.428 0 .76.342.76.774 0 .42-.334.77-.76.77-.43 0-.77-.35-.77-.77 0-.44.338-.78.77-.78" fill="#FFE1BB"/><path d="M186.74 341.93c.503 0 .904.398.904.9 0 .505-.404.908-.904.908-.497 0-.9-.405-.9-.907 0-.5.403-.9.9-.9" fill="#FFE1BB"/><path d="M190.16 345.217c.582 0 1.052.462 1.052 1.04 0 .56-.47 1.037-1.052 1.037-.57 0-1.034-.476-1.034-1.036-.003-.58.463-1.04 1.034-1.04" fill="#FFE1BB"/><path d="M193.592 348.486c.655 0 1.192.538 1.192 1.176 0 .653-.537 1.19-1.192 1.19-.648 0-1.187-.537-1.187-1.19 0-.636.537-1.176 1.187-1.176" fill="#FFE1BB"/><path d="M197.018 351.776c.73 0 1.313.592 1.313 1.32 0 .72-.58 1.31-1.31 1.31-.72 0-1.33-.59-1.33-1.31 0-.73.61-1.32 1.33-1.32" fill="#FFE1BB"/><path d="M234.71 364.928c-.867 0-1.582-.708-1.582-1.58 0-.87.715-1.573 1.582-1.573.865 0 1.58.704 1.58 1.574 0 .87-.715 1.57-1.58 1.57" fill="#FFE1BB"/><path d="M227.85 364.976c-1.496 0-1.624-.107-1.624-1.63 0-.9.72-1.614 1.623-1.614s1.64.715 1.64 1.615c0 1.524-.1 1.63-1.64 1.63" fill="#FFE1BB"/><path d="M217.576 361.413c-.824 0-1.48-.663-1.48-1.486 0-.806.656-1.47 1.48-1.47.806 0 1.47.664 1.47 1.47 0 .823-.664 1.486-1.47 1.486" fill="#FFE1BB"/><path d="M224.42 361.267c-.734 0-1.32-.61-1.32-1.34 0-.73.586-1.326 1.32-1.326.747 0 1.345.6 1.345 1.33 0 .73-.598 1.34-1.344 1.34" fill="#FFE1BB"/><path d="M231.277 361.12c-.644 0-1.184-.523-1.184-1.193 0-.658.538-1.175 1.184-1.175.66 0 1.187.517 1.187 1.175 0 .673-.527 1.192-1.187 1.192" fill="#FFE1BB"/><path d="M238.14 360.978c-.577 0-1.05-.48-1.05-1.05 0-.58.473-1.033 1.05-1.033.573 0 1.034.454 1.034 1.032 0 .57-.46 1.05-1.034 1.05" fill="#FFE1BB"/><path d="M214.154 357.683c-.657 0-1.186-.52-1.186-1.175 0-.663.527-1.187 1.186-1.187.646 0 1.178.53 1.178 1.19 0 .66-.532 1.18-1.178 1.18" fill="#FFE1BB"/><path d="M221.015 357.51c-.57 0-1.006-.444-1.006-1 0-.55.43-.998 1-.998.54 0 1 .444 1 .998 0 .556-.46 1-1 1" fill="#FFE1BB"/><path d="M227.856 357.332c-.45 0-.82-.36-.82-.822 0-.462.37-.818.82-.818.456 0 .824.356.824.818 0 .463-.368.822-.824.822" fill="#FFE1BB"/><path d="M234.71 357.146c-.352 0-.646-.28-.646-.636 0-.36.294-.636.646-.636.35 0 .648.276.648.636 0 .355-.297.636-.648.636" fill="#FFE1BB"/><path d="M238.14 353.453c-.205 0-.388-.164-.388-.356 0-.214.183-.37.388-.37.194 0 .363.156.363.37 0 .192-.17.356-.363.356" fill="#FFE1BB"/><path d="M210.724 354.08c-.53 0-.968-.45-.968-.98 0-.534.436-.953.968-.953.536 0 .965.42.965.952 0 .53-.43.98-.97.98" fill="#FFE1BB"/><path d="M217.576 353.883c-.43 0-.765-.342-.765-.756 0-.428.34-.775.77-.775.42 0 .77.347.77.775 0 .414-.34.756-.76.756" fill="#FFE1BB"/><path d="M224.42 353.696c-.312 0-.554-.243-.554-.56 0-.312.242-.57.555-.57.33 0 .58.258.58.57 0 .317-.25.56-.57.56" fill="#FFE1BB"/><path d="M231.277 353.523c-.198 0-.365-.16-.365-.37 0-.208.167-.36.365-.36.206 0 .365.152.365.36 0 .21-.16.37-.365.37" fill="#FFE1BB"/><path d="M311.956 161.566c0-.875.698-1.58 1.58-1.58 1.487 0 1.574.058 1.574 1.58 0 .873-.71 1.574-1.575 1.574-.88 0-1.58-.7-1.58-1.574" fill="#FFE1BB"/><path d="M315.38 164.98c0-.865.714-1.57 1.576-1.57.875 0 1.582.708 1.582 1.57 0 .883-.71 1.587-1.582 1.587-.865 0-1.577-.704-1.577-1.586" fill="#FFE1BB"/><path d="M318.79 168.403c0-.863.723-1.567 1.588-1.567.876 0 1.593.706 1.593 1.567 0 .866-.71 1.577-1.59 1.577-.86 0-1.59-.71-1.59-1.577" fill="#FFE1BB"/><path d="M322.23 171.827c0-.872.71-1.585 1.58-1.585.884 0 1.59.713 1.59 1.585 0 .873-.71 1.586-1.59 1.586-.874 0-1.58-.713-1.58-1.586" fill="#FFE1BB"/><path d="M325.64 175.242c0-.872.718-1.585 1.6-1.585 1.496 0 1.578.118 1.578 1.585 0 .884-.705 1.595-1.577 1.595-.88 0-1.6-.713-1.6-1.595" fill="#FFE1BB"/><path d="M329.074 178.676c0-.89.714-1.602 1.588-1.602 1.63 0 1.584-.018 1.584 1.602 0 .863-.705 1.576-1.584 1.576-.874 0-1.588-.715-1.588-1.576" fill="#FFE1BB"/><path fill="#FFE1BB" d="M337.507 288.354c.135 0 .24-.12.24-.262 0-.135-.107-.237-.24-.237-.132 0-.244.102-.244.237 0 .14.112.262.244.262"/><path d="M165.745 323.555l-2.557 9.822-1.924 1.55s2.698-1.234 3.9-.717c1.21.534 1.665 1.162 1.665 1.162l5.97 6.63s-.61 2.3.26 2.83c.88.52 3.6.253 3.6.253l-1.45-1.816 2.03-1.88-.61-.15-7.205-8.03c-1.05-.57-2.775-.11-2.775-.11l2.244-8.94 1.38-1.01-2.745-2.01s-.57-1.08-.14-1.41c.435-.34.97-.89.97-.89s-2.408-.51-3.138 1.03c-.625 1.3.51 3.67.51 3.67" fill="#BC9B6A"/><path d="M189.1 338.416s-2.68.12-3.52-.444c-.832-.56-.118-2.786-.118-2.786l-5.56-6.817s-.385-.66-1.547-1.25c-1.16-.56-3.894.52-3.894.52l2-1.44 3-9.52s-.99-2.37-.3-3.64c.8-1.47 3.14-.86 3.14-.86s-.55.517-1 .813c-.43.31.06 1.4.06 1.4l2.61 2.115-1.41.915-2.658 8.68s1.72-.38 2.72.25l6.67 8.243.587.183-2.094 1.754 1.333 1.86" fill="#BC9B6A"/><path d="M201.562 333.424s-2.66-.027-3.44-.626c-.798-.606.028-2.745.028-2.745l-5.105-7.008s-.36-.663-1.477-1.29c-1.112-.64-3.844.294-3.844.294l2.02-1.31 3.463-9.22s-.852-2.41-.11-3.61c.865-1.41 3.138-.68 3.138-.68s-.575.48-1.018.76c-.454.28-.018 1.37-.018 1.37l2.45 2.226-1.45.822-3.08 8.402s1.72-.277 2.66.395l6.145 8.47.564.21-2.154 1.62 1.215 1.9" fill="#BC9B6A"/><path d="M214.038 329.513s-2.61-.174-3.366-.807c-.754-.626.17-2.718.17-2.718l-4.665-7.19s-.32-.68-1.38-1.372c-1.066-.663-3.817.094-3.817.094l2.077-1.176 3.91-8.92s-.705-2.41.082-3.574c.93-1.326 3.14-.494 3.14-.494s-.6.435-1.06.695c-.47.26-.1 1.36-.1 1.36l2.32 2.33-1.48.73-3.5 8.15s1.718-.17 2.617.54l5.613 8.7.54.237-2.21 1.47 1.094 1.965" fill="#BC9B6A"/><path d="M226.537 326.633s-2.586-.303-3.294-.97c-.705-.682.33-2.68.33-2.68l-4.23-7.395s-.286-.68-1.295-1.41c-1.018-.725-3.782-.126-3.782-.126l2.112-1.054 4.37-8.62s-.573-2.432.286-3.533c1.008-1.285 3.136-.32 3.136-.32s-.617.405-1.08.626c-.477.22-.162 1.33-.162 1.33l2.148 2.45-1.504.64-3.91 7.89s1.716-.08 2.568.66l5.073 8.93.54.27-2.286 1.337.98 1.99" fill="#BC9B6A"/><path d="M239.05 324.917s-2.548-.435-3.213-1.152c-.67-.704.47-2.652.47-2.652l-3.775-7.57s-.248-.694-1.218-1.475c-.964-.788-3.746-.342-3.746-.342l2.148-.925 4.825-8.32s-.41-2.44.49-3.48c1.06-1.22 3.14-.16 3.14-.16s-.62.38-1.1.58c-.48.19-.25 1.32-.25 1.32l2 2.55-1.52.55-4.32 7.6s1.7.02 2.51.825l4.55 9.15.516.29-2.335 1.187.845 2.04" fill="#BC9B6A"/><path d="M251.58 324.236s-2.502-.588-3.144-1.335c-.61-.73.635-2.6.635-2.6l-3.33-7.76s-.21-.71-1.13-1.55c-.92-.84-3.72-.54-3.72-.54l2.21-.804 5.282-8.02s-.29-2.466.68-3.45c1.13-1.15 3.13.028 3.13.028s-.654.334-1.14.505c-.48.17-.297 1.3-.297 1.3l1.844 2.65-1.558.464-4.746 7.334s1.69.12 2.456.96l4.008 9.382.498.31-2.4 1.066.735 2.08" fill="#BC9B6A"/><path d="M264.137 324.444s-2.472-.74-3.07-1.51c-.57-.782.785-2.575.785-2.575l-2.9-7.97s-.17-.72-1.04-1.61c-.88-.88-3.697-.75-3.697-.75l2.262-.67 5.745-7.73s-.15-2.49.865-3.41c1.19-1.08 3.13.19 3.13.19s-.674.3-1.165.44c-.495.14-.395 1.285-.395 1.285l1.71 2.764-1.59.38-5.155 7.053s1.69.21 2.395 1.09l3.483 9.61.47.35-2.458.934.625 2.112" fill="#BC9B6A"/><path d="M276.706 325.722s-2.447-.868-2.99-1.673c-.543-.82.918-2.54.918-2.54l-2.463-8.14s-.11-.74-.94-1.68-3.65-.98-3.65-.98l2.3-.55 6.2-7.44s-.01-2.49 1.06-3.365c1.27-1.023 3.13.39 3.13.39s-.68.246-1.18.362c-.515.11-.47 1.26-.47 1.26l1.56 2.86-1.62.3-5.565 6.792s1.68.304 2.336 1.224l2.945 9.84.463.377-2.517.798.5 2.15" fill="#BC9B6A"/><path d="M289.29 327.938s-2.413-1.013-2.91-1.872c-.496-.846 1.067-2.502 1.067-2.502l-2.024-8.334s-.082-.738-.86-1.745c-.772-.984-3.62-1.166-3.62-1.166l2.332-.44 6.66-7.12s.128-2.52 1.264-3.35c1.32-.96 3.12.57 3.12.57s-.71.22-1.21.3c-.53.08-.55 1.25-.55 1.25l1.4 2.96-1.64.21-5.99 6.52s1.683.402 2.28 1.37l2.423 10.06.43.413-2.58.644.39 2.216" fill="#BC9B6A"/><path d="M301.893 331.333s-2.37-1.157-2.824-2.046c-.47-.872 1.2-2.465 1.2-2.465l-1.59-8.512s-.04-.76-.77-1.802c-.73-1.04-3.597-1.392-3.597-1.392l2.393-.303 7.114-6.82s.268-2.537 1.464-3.302c1.388-.89 3.12.74 3.12.74s-.73.19-1.24.24c-.53.08-.62 1.24-.62 1.24l1.256 3.08-1.66.116-6.42 6.26s1.677.506 2.24 1.497l1.883 10.298.424.438-2.635.52.256 2.234" fill="#BC9B6A"/><path d="M314.52 335.82s-2.343-1.304-2.747-2.227c-.43-.907 1.35-2.43 1.35-2.43l-1.133-8.71s0-.766-.687-1.86c-.676-1.107-3.552-1.592-3.552-1.592l2.43-.19 7.57-6.51s.42-2.55 1.66-3.26c1.45-.83 3.12.93 3.12.93s-.74.143-1.28.164c-.52.027-.67 1.22-.67 1.22l1.09 3.17-1.69.03-6.813 5.99s1.66.587 2.18 1.646l1.346 10.52.4.453-2.696.39.135 2.28" fill="#BC9B6A"/><path d="M331.68 317.757l-8.013 6.22-2.488.056s2.89.65 3.52 1.812c.65 1.143.6 1.922.6 1.922l.69 8.904s-1.87 1.45-1.52 2.4c.38.95 2.69 2.4 2.69 2.4l-.024-2.32 2.755-.24-.38-.5-.805-10.734c-.47-1.092-2.137-1.787-2.137-1.787l7.24-5.72 1.716.06-.943-3.28s.2-1.2.77-1.2c.537 0 1.293-.11 1.293-.11s-1.598-1.863-3.118-1.1c-1.307.665-1.86 3.23-1.86 3.23" fill="#BC9B6A"/><path d="M343.168 323.234l-8.014 6.23-2.488.055s2.9.65 3.53 1.81c.647 1.13.597 1.92.597 1.92l.69 8.89s-1.877 1.44-1.507 2.41c.37.942 2.684 2.39 2.684 2.39l-.025-2.33 2.745-.25-.365-.486-.808-10.75c-.47-1.08-2.138-1.78-2.138-1.78l7.24-5.713 1.73.05-.96-3.27s.21-1.2.75-1.203c.54 0 1.3-.114 1.3-.114s-1.598-1.865-3.13-1.1c-1.298.666-1.848 3.225-1.848 3.225" fill="#BC9B6A"/><path d="M342.337 184.834l2.554-9.817 1.92-1.554s-2.69 1.242-3.89.72c-1.21-.528-1.66-1.166-1.66-1.166l-5.98-6.64s.617-2.282-.264-2.82c-.884-.52-3.59-.257-3.59-.257l1.437 1.82-2.04 1.882.61.157 7.214 8.01c1.04.59 2.786.12 2.786.12l-2.258 8.94-1.38 1 2.742 2.02s.576 1.08.136 1.41c-.426.32-.946.87-.946.87s2.398.5 3.12-1.03c.63-1.31-.49-3.68-.49-3.68" fill="#BC9B6A"/><path d="M318.976 169.98s2.675-.126 3.52.444c.835.563.112 2.78.112 2.78l5.56 6.814s.404.663 1.563 1.232c1.17.57 3.88-.512 3.88-.512l-1.98 1.428-3 9.523s1 2.38.32 3.65c-.813 1.46-3.144.85-3.144.85s.556-.52 1-.83c.428-.3-.067-1.4-.067-1.4l-2.61-2.107 1.434-.923 2.657-8.672s-1.722.37-2.73-.255l-6.686-8.244-.57-.185 2.09-1.74-1.33-1.874" fill="#BC9B6A"/><path d="M306.51 174.97s2.66.022 3.446.626c.8.606-.018 2.752-.018 2.752l5.106 7.005s.36.654 1.465 1.294c1.11.62 3.84-.296 3.84-.296l-2.02 1.3-3.47 9.22s.85 2.41.11 3.63c-.87 1.394-3.14.665-3.14.665s.57-.48 1.022-.76c.44-.274.02-1.375.02-1.375l-2.464-2.224 1.46-.82 3.065-8.418s-1.71.277-2.673-.386l-6.135-8.47-.567-.21 2.15-1.61-1.21-1.91" fill="#BC9B6A"/><path d="M294.03 178.885s2.622.167 3.378.798c.75.626-.18 2.718-.18 2.718l4.662 7.2s.33.68 1.39 1.36c1.068.68 3.812-.08 3.812-.08l-2.066 1.18-3.92 8.92s.71 2.418-.09 3.57c-.933 1.35-3.138.503-3.138.503s.598-.443 1.052-.703c.456-.24.094-1.343.094-1.343l-2.306-2.333 1.48-.74 3.48-8.146s-1.716.194-2.616-.512l-5.605-8.704-.546-.237 2.21-1.47-1.09-1.957" fill="#BC9B6A"/><path d="M281.552 181.754s2.577.312 3.282.975c.716.68-.324 2.67-.324 2.67l4.227 7.38s.28.693 1.294 1.422c1.02.73 3.79.107 3.79.107l-2.11 1.07-4.38 8.617s.57 2.44-.28 3.536c-1 1.285-3.122.32-3.122.32s.605-.4 1.075-.626c.47-.22.167-1.333.167-1.333l-2.16-2.43 1.497-.65 3.923-7.87s-1.72.076-2.57-.67l-5.09-8.94-.53-.25 2.283-1.344-.965-1.99" fill="#BC9B6A"/><path d="M269.026 183.476s2.547.444 3.21 1.14c.665.715-.476 2.653-.476 2.653l3.79 7.57s.252.7 1.21 1.48c.97.78 3.758.32 3.758.32l-2.166.94-4.834 8.31s.438 2.46-.473 3.49c-1.068 1.226-3.13.15-3.13.15s.62-.37 1.103-.56c.464-.19.238-1.32.238-1.32l-2.01-2.54 1.537-.56 4.33-7.594s-1.705-.02-2.522-.807l-4.53-9.16-.51-.29 2.33-1.2-.84-2.03" fill="#BC9B6A"/><path d="M256.486 184.157s2.52.595 3.145 1.333c.63.738-.61 2.602-.61 2.602l3.34 7.77s.2.714 1.12 1.546c.93.83 3.73.535 3.73.535l-2.213.816-5.277 8.02s.273 2.46-.685 3.45c-1.125 1.15-3.127-.03-3.127-.03s.655-.34 1.13-.51c.49-.17.304-1.306.304-1.306l-1.85-2.653 1.563-.47 4.733-7.334s-1.68-.11-2.444-.95l-4.02-9.37-.48-.32 2.386-1.077-.734-2.07" fill="#BC9B6A"/><path d="M243.94 183.955s2.48.72 3.06 1.51c.6.77-.773 2.568-.773 2.568l2.903 7.955s.174.72 1.04 1.61c.866.892 3.682.757 3.682.757l-2.255.677-5.733 7.723s.16 2.484-.876 3.416c-1.194 1.1-3.125-.21-3.125-.21s.662-.29 1.16-.43c.504-.14.387-1.28.387-1.28l-1.693-2.74 1.577-.39 5.16-7.06s-1.69-.21-2.396-1.09l-3.483-9.6-.47-.35 2.458-.93-.623-2.12" fill="#BC9B6A"/><path d="M231.37 182.67s2.438.863 2.988 1.686c.537.813-.917 2.533-.917 2.533l2.46 8.13s.13.73.95 1.68c.83.94 3.66.97 3.66.97l-2.29.53-6.19 7.437s.007 2.493-1.08 3.366c-1.252 1.022-3.11-.388-3.11-.388s.685-.25 1.187-.37c.5-.11.456-1.26.456-1.26l-1.547-2.86 1.616-.298 5.57-6.797s-1.695-.302-2.34-1.215l-2.962-9.85-.435-.37 2.518-.8-.51-2.146" fill="#BC9B6A"/><path d="M218.786 180.464s2.407 1.02 2.916 1.86c.49.85-1.063 2.503-1.063 2.503l2.01 8.332s.08.73.86 1.74c.78.99 3.61 1.17 3.61 1.17l-2.34.43-6.65 7.12s-.14 2.52-1.27 3.35c-1.325.95-3.11-.57-3.11-.57s.7-.235 1.203-.32c.502-.074.53-1.25.53-1.25l-1.386-2.964 1.63-.195 5.983-6.53s-1.67-.394-2.295-1.367l-2.408-10.07-.437-.407 2.583-.654-.39-2.195" fill="#BC9B6A"/><path d="M206.168 177.056s2.388 1.16 2.847 2.046c.465.872-1.208 2.47-1.208 2.47l1.564 8.516s.05.763.8 1.802c.73 1.05 3.59 1.387 3.59 1.387l-2.38.31-7.11 6.814s-.276 2.53-1.474 3.31c-1.39.89-3.12-.74-3.12-.74s.723-.18 1.255-.24c.523-.06.598-1.24.598-1.24l-1.455-2.53 1.297-.34 6.98-6.56s-1.666-.49-2.228-1.5l-1.866-10.29-.43-.43 2.64-.535-.28-2.235" fill="#BC9B6A"/><path d="M193.556 172.575s2.346 1.3 2.757 2.226c.424.91-1.36 2.43-1.36 2.43l1.125 8.71s0 .77.69 1.86c.69 1.1 3.564 1.61 3.564 1.61l-2.435.18-7.56 6.53s-.413 2.544-1.656 3.257c-1.46.84-3.11-.91-3.11-.91s.73-.137 1.28-.185c.53-.026.678-1.206.678-1.206l-1.093-3.164 1.68-.036 6.824-5.992s-1.665-.596-2.176-1.646l-1.35-10.52-.402-.457 2.708-.387-.15-2.28" fill="#BC9B6A"/><path d="M176.39 190.637l8.02-6.22 2.488-.057s-2.894-.654-3.54-1.81c-.637-1.145-.598-1.926-.598-1.926l-.69-8.904s1.884-1.444 1.507-2.392c-.372-.957-2.675-2.4-2.675-2.4l.027 2.316-2.77.262.39.476.81 10.75c.47 1.092 2.14 1.78 2.14 1.78l-7.26 5.723-1.72-.047.95 3.27s-.22 1.202-.77 1.202c-.54 0-1.3.11-1.3.11s1.6 1.863 3.11 1.097c1.307-.672 1.864-3.23 1.864-3.23" fill="#BC9B6A"/><path d="M164.893 185.162l8.04-6.233 2.48-.06s-2.894-.66-3.538-1.81c-.632-1.14-.6-1.93-.6-1.93l-.692-8.907s1.883-1.44 1.514-2.39c-.377-.953-2.69-2.405-2.69-2.405l.035 2.32-2.768.256.388.477.808 10.74c.48 1.1 2.134 1.79 2.134 1.79l-7.242 5.72-1.717-.05.952 3.28s-.203 1.19-.758 1.19c-.54 0-1.3.117-1.3.117s1.59 1.85 3.1 1.08c1.31-.65 1.84-3.205 1.84-3.205" fill="#BC9B6A"/><path d="M164.585 323.555l-2.554 9.822-1.92 1.55s2.69-1.234 3.91-.717c1.2.534 1.65 1.162 1.65 1.162l6 6.63s-.62 2.3.265 2.83c.874.52 3.597.253 3.597.253l-1.444-1.816 2.036-1.88-.602-.15-7.213-8.03c-1.05-.57-2.777-.11-2.777-.11l2.238-8.94 1.396-1.01-2.753-2.01s-.56-1.08-.13-1.41c.42-.34.955-.89.955-.89s-2.4-.51-3.133 1.03c-.63 1.3.505 3.67.505 3.67" fill="#F47836"/><path d="M187.95 338.416s-2.688.12-3.524-.444c-.847-.56-.128-2.786-.128-2.786l-5.54-6.817s-.403-.66-1.563-1.25c-1.16-.56-3.877.52-3.877.52l1.974-1.44 3.013-9.52s-.993-2.37-.313-3.64c.8-1.47 3.143-.86 3.143-.86s-.562.517-.99.813c-.446.31.04 1.4.04 1.4l2.607 2.115-1.42.915-2.647 8.68s1.734-.38 2.713.25l6.686 8.243.582.183-2.096 1.754 1.34 1.86" fill="#F47836"/><path d="M200.403 333.424s-2.652-.027-3.44-.626c-.792-.606.03-2.745.03-2.745l-5.11-7.008s-.368-.663-1.486-1.29c-1.11-.64-3.837.294-3.837.294l2.022-1.31 3.463-9.22s-.85-2.41-.1-3.61c.87-1.41 3.13-.68 3.13-.68s-.567.48-1.02.76c-.45.28-.006 1.37-.006 1.37l2.44 2.226-1.46.822-3.07 8.402s1.716-.277 2.663.395l6.14 8.47.57.21-2.15 1.62 1.203 1.9" fill="#F47836"/><path d="M212.885 329.513s-2.615-.174-3.362-.807c-.757-.626.167-2.718.167-2.718l-4.674-7.19s-.322-.68-1.386-1.372c-1.06-.663-3.802.094-3.802.094l2.077-1.176 3.898-8.92s-.705-2.41.094-3.574c.924-1.326 3.136-.494 3.136-.494s-.59.435-1.06.695c-.45.26-.08 1.36-.08 1.36l2.308 2.33-1.48.73-3.47 8.15s1.71-.17 2.61.54l5.61 8.7.54.237-2.2 1.47 1.093 1.965" fill="#F47836"/><path d="M225.375 326.633s-2.577-.303-3.294-.97c-.7-.682.34-2.68.34-2.68l-4.22-7.395s-.28-.68-1.31-1.41c-1-.725-3.77-.126-3.77-.126l2.12-1.054 4.37-8.62s-.58-2.432.29-3.533c.982-1.285 3.13-.32 3.13-.32s-.61.405-1.088.626c-.466.22-.16 1.33-.16 1.33l2.16 2.45-1.507.64-3.91 7.89s1.71-.08 2.575.66l5.06 8.93.537.27-2.285 1.337.98 1.99" fill="#F47836"/><path d="M237.9 324.917s-2.55-.435-3.215-1.152c-.67-.704.465-2.652.465-2.652l-3.777-7.57s-.25-.694-1.217-1.475c-.965-.788-3.75-.342-3.75-.342l2.16-.925 4.827-8.32s-.427-2.44.484-3.48c1.073-1.22 3.127-.16 3.127-.16s-.62.38-1.1.58c-.477.19-.242 1.32-.242 1.32l2.01 2.55-1.533.55-4.33 7.6s1.7.02 2.51.825l4.54 9.15.5.29-2.34 1.187.87 2.04" fill="#F47836"/><path d="M250.44 324.236s-2.52-.588-3.152-1.335c-.63-.73.63-2.6.63-2.6l-3.355-7.76s-.194-.71-1.125-1.55c-.918-.84-3.716-.54-3.716-.54l2.21-.804 5.285-8.02s-.285-2.466.68-3.45c1.12-1.15 3.123.028 3.123.028s-.64.334-1.137.505c-.486.17-.32 1.3-.32 1.3l1.875 2.65-1.57.464-4.734 7.334s1.695.12 2.455.96l4 9.382.48.31-2.4 1.066.752 2.08" fill="#F47836"/><path d="M262.973 324.444s-2.467-.74-3.06-1.51c-.578-.782.766-2.575.766-2.575l-2.91-7.97s-.15-.72-1.03-1.61c-.88-.88-3.69-.75-3.69-.75l2.25-.67 5.74-7.73s-.15-2.49.88-3.41c1.19-1.08 3.13.19 3.13.19s-.677.3-1.17.44c-.49.14-.39 1.285-.39 1.285l1.7 2.764-1.58.38-5.165 7.053s1.69.21 2.415 1.09l3.47 9.61.464.35-2.45.934.613 2.112" fill="#F47836"/><path d="M275.55 325.722s-2.443-.868-2.99-1.673c-.544-.82.926-2.54.926-2.54l-2.468-8.14s-.127-.74-.94-1.68c-.83-.94-3.66-.98-3.66-.98l2.302-.55 6.194-7.44s-.013-2.49 1.07-3.365c1.272-1.023 3.11.39 3.11.39s-.674.246-1.19.362c-.495.11-.45 1.26-.45 1.26l1.546 2.86-1.605.3-5.582 6.792s1.682.304 2.346 1.224l2.95 9.84.44.377-2.52.798.51 2.15" fill="#F47836"/><path d="M288.14 327.938s-2.42-1.013-2.92-1.872c-.503-.846 1.068-2.502 1.068-2.502l-2.018-8.334s-.082-.738-.858-1.745c-.772-.984-3.63-1.166-3.63-1.166l2.333-.44 6.67-7.12s.134-2.52 1.262-3.35c1.32-.96 3.118.57 3.118.57s-.706.22-1.212.3c-.518.08-.537 1.25-.537 1.25l1.406 2.96-1.648.21-5.98 6.52s1.667.402 2.28 1.37l2.415 10.06.43.413-2.57.644.39 2.216" fill="#F47836"/><path d="M300.742 331.333s-2.392-1.157-2.84-2.046c-.456-.872 1.224-2.465 1.224-2.465l-1.588-8.512s-.032-.76-.765-1.802c-.72-1.04-3.606-1.392-3.606-1.392l2.403-.303 7.1-6.82s.275-2.537 1.468-3.302c1.38-.89 3.123.74 3.123.74s-.71.19-1.25.24c-.52.08-.61 1.24-.61 1.24l1.26 3.08-1.67.116-6.4 6.26s1.67.506 2.24 1.497l1.877 10.298.424.438-2.64.52.268 2.234" fill="#F47836"/><path d="M313.368 335.82s-2.344-1.304-2.764-2.227c-.426-.907 1.363-2.43 1.363-2.43l-1.137-8.71s0-.766-.687-1.86c-.682-1.107-3.56-1.592-3.56-1.592l2.428-.19 7.57-6.51s.43-2.55 1.67-3.26c1.46-.83 3.12.93 3.12.93s-.75.143-1.27.164c-.54.027-.685 1.22-.685 1.22l1.1 3.17-1.71.03-6.81 5.99s1.668.587 2.18 1.646l1.348 10.52.405.453-2.69.39.15 2.28" fill="#F47836"/><path d="M330.53 317.757l-8.02 6.22-2.48.056s2.89.65 3.527 1.812c.632 1.143.6 1.922.6 1.922l.694 8.904s-1.89 1.45-1.51 2.4c.39.95 2.69 2.4 2.69 2.4l-.03-2.32 2.76-.24-.372-.5-.814-10.734c-.47-1.092-2.123-1.787-2.123-1.787l7.236-5.72 1.72.06-.95-3.28s.21-1.2.756-1.2c.54 0 1.307-.11 1.307-.11s-1.6-1.863-3.11-1.1c-1.305.665-1.86 3.23-1.86 3.23" fill="#F47836"/><path d="M342.015 323.234l-8.034 6.23-2.47.055s2.91.65 3.54 1.81c.63 1.13.59 1.92.59 1.92l.69 8.89s-1.88 1.44-1.51 2.41c.38.942 2.7 2.39 2.7 2.39l-.04-2.33 2.76-.25-.38-.486-.792-10.75c-.48-1.08-2.14-1.78-2.14-1.78l7.244-5.713 1.716.05-.95-3.27s.21-1.2.754-1.203c.536 0 1.3-.114 1.3-.114s-1.595-1.865-3.106-1.1c-1.303.666-1.86 3.225-1.86 3.225" fill="#F47836"/><path d="M341.18 184.834l2.538-9.817 1.944-1.554s-2.707 1.242-3.9.72c-1.22-.528-1.66-1.166-1.66-1.166l-5.993-6.64s.62-2.282-.27-2.82c-.89-.52-3.6-.257-3.6-.257l1.45 1.82-2.03 1.882.59.157 7.21 8.01c1.04.59 2.77.12 2.77.12L338 184.23l-1.406 1 2.76 2.02s.556 1.08.124 1.41c-.42.32-.962.87-.962.87s2.414.5 3.144-1.03c.625-1.31-.5-3.68-.5-3.68" fill="#F47836"/><path d="M317.826 169.98s2.673-.126 3.503.444c.84.563.12 2.78.12 2.78l5.54 6.814s.41.663 1.57 1.232c1.16.57 3.86-.512 3.86-.512l-1.97 1.428-3 9.523s.975 2.38.293 3.65c-.794 1.46-3.13.85-3.13.85s.546-.52.986-.83c.443-.3-.06-1.4-.06-1.4l-2.6-2.107 1.42-.923 2.65-8.672s-1.723.37-2.715-.255l-6.68-8.244-.57-.185 2.092-1.74-1.33-1.874" fill="#F47836"/><path d="M305.357 174.97s2.648.022 3.453.626c.786.606-.043 2.752-.043 2.752l5.11 7.005s.363.654 1.48 1.294c1.102.62 3.843-.296 3.843-.296l-2.03 1.3-3.457 9.22s.858 2.41.117 3.63c-.875 1.394-3.14.665-3.14.665s.556-.48 1.012-.76c.443-.274.014-1.375.014-1.375l-2.444-2.224 1.442-.82 3.074-8.418s-1.716.277-2.668-.386l-6.142-8.47-.56-.21 2.15-1.61-1.21-1.91" fill="#F47836"/><path d="M292.872 178.885s2.616.167 3.378.798c.754.626-.187 2.718-.187 2.718l4.68 7.2s.32.68 1.375 1.36c1.07.68 3.82-.08 3.82-.08l-2.055 1.18-3.93 8.92s.714 2.418-.085 3.57c-.933 1.35-3.138.503-3.138.503s.598-.443 1.056-.703c.452-.24.078-1.343.078-1.343l-2.294-2.333 1.475-.74 3.48-8.146s-1.702.194-2.615-.512l-5.6-8.704-.556-.237 2.22-1.47-1.102-1.957" fill="#F47836"/><path d="M280.38 181.754s2.582.312 3.292.975c.71.68-.33 2.67-.33 2.67l4.23 7.38s.277.693 1.295 1.422c1.02.73 3.775.107 3.775.107l-2.102 1.07-4.37 8.617s.565 2.44-.286 3.536c-.993 1.285-3.136.32-3.136.32s.623-.4 1.086-.626c.46-.22.16-1.333.16-1.333l-2.16-2.43 1.512-.648 3.893-7.87s-1.69.07-2.55-.676l-5.09-8.934-.53-.25 2.272-1.346-.98-1.995" fill="#F47836"/><path d="M267.866 183.476s2.54.444 3.212 1.14c.675.715-.47 2.653-.47 2.653l3.788 7.57s.238.7 1.212 1.48c.968.78 3.743.32 3.743.32l-2.15.94-4.82 8.31s.43 2.46-.476 3.49c-1.07 1.226-3.13.15-3.13.15s.624-.37 1.1-.56c.473-.19.236-1.32.236-1.32l-1.996-2.54 1.518-.56 4.32-7.594s-1.685-.02-2.493-.807l-4.54-9.16-.52-.29 2.344-1.2-.86-2.03" fill="#F47836"/><path d="M255.322 184.157s2.515.595 3.143 1.333c.642.738-.628 2.602-.628 2.602l3.358 7.77s.194.714 1.127 1.546c.904.83 3.714.535 3.714.535l-2.212.816-5.29 8.02s.296 2.46-.658 3.45c-1.14 1.15-3.138-.03-3.138-.03s.657-.34 1.134-.51c.49-.17.308-1.306.308-1.306l-1.846-2.653 1.557-.47 4.73-7.334s-1.69-.11-2.44-.95l-4.02-9.37-.48-.32 2.42-1.077-.76-2.07" fill="#F47836"/><path d="M242.78 183.955s2.47.72 3.068 1.51c.58.77-.774 2.568-.774 2.568l2.9 7.955s.16.72 1.035 1.61c.87.892 3.68.757 3.68.757l-2.25.677-5.74 7.723s.15 2.484-.88 3.416c-1.18 1.1-3.13-.21-3.13-.21s.67-.29 1.16-.43c.49-.14.382-1.28.382-1.28l-1.71-2.74 1.6-.39 5.145-7.06s-1.69-.21-2.393-1.09l-3.475-9.6-.48-.35 2.452-.93-.61-2.12" fill="#F47836"/><path d="M230.21 182.67s2.44.863 2.996 1.686c.536.813-.925 2.533-.925 2.533l2.47 8.13s.12.73.95 1.68c.83.94 3.66.97 3.66.97l-2.295.53-6.195 7.437s0 2.493-1.08 3.366c-1.254 1.022-3.11-.388-3.11-.388s.676-.25 1.187-.37c.508-.11.457-1.26.457-1.26l-1.55-2.86 1.6-.298 5.586-6.797s-1.68-.302-2.34-1.215l-2.95-9.85-.45-.37 2.52-.8-.51-2.146" fill="#F47836"/><path d="M217.62 180.464s2.412 1.02 2.914 1.86c.497.85-1.066 2.503-1.066 2.503l2.024 8.332s.078.73.87 1.74c.774.99 3.622 1.17 3.622 1.17l-2.353.43-6.64 7.12s-.14 2.52-1.27 3.35c-1.32.95-3.12-.57-3.12-.57s.71-.235 1.22-.32c.52-.074.54-1.25.54-1.25l-1.4-2.964 1.64-.195 5.995-6.53s-1.682-.394-2.293-1.367l-2.414-10.07-.435-.407 2.574-.654-.386-2.195" fill="#F47836"/><path d="M205.016 177.056s2.387 1.16 2.84 2.046c.453.872-1.208 2.47-1.208 2.47l1.57 8.516s.046.763.765 1.802c.734 1.05 3.6 1.387 3.6 1.387l-2.382.31-7.1 6.817s-.28 2.524-1.47 3.305c-1.38.89-3.11-.74-3.11-.74s.72-.19 1.25-.25c.53-.07.607-1.24.607-1.24l-1.462-2.54 1.3-.348 6.994-6.56s-1.674-.49-2.238-1.5l-1.885-10.29-.417-.43 2.63-.536-.27-2.235" fill="#F47836"/><path d="M192.396 172.575s2.347 1.3 2.77 2.226c.41.91-1.375 2.43-1.375 2.43l1.14 8.71s0 .77.69 1.86c.69 1.1 3.57 1.61 3.57 1.61l-2.43.18-7.575 6.53s-.404 2.544-1.657 3.257c-1.456.84-3.11-.91-3.11-.91s.74-.137 1.28-.185c.53-.026.675-1.206.675-1.206l-1.1-3.164 1.7-.036 6.814-5.992s-1.664-.596-2.173-1.646l-1.345-10.52-.42-.457 2.71-.387-.146-2.28" fill="#F47836"/><path d="M175.228 190.637l8.032-6.22 2.474-.057s-2.896-.654-3.526-1.81c-.644-1.145-.598-1.926-.598-1.926l-.7-8.904s1.884-1.444 1.517-2.392c-.38-.957-2.682-2.4-2.682-2.4l.032 2.316-2.766.262.39.476.8 10.75c.48 1.092 2.15 1.78 2.15 1.78l-7.24 5.723-1.725-.047.953 3.27s-.212 1.202-.76 1.202c-.542 0-1.3.11-1.3.11s1.596 1.863 3.118 1.097c1.305-.672 1.85-3.23 1.85-3.23" fill="#F47836"/><path d="M163.745 185.162l8.027-6.233 2.475-.06s-2.897-.66-3.527-1.81c-.637-1.14-.605-1.93-.605-1.93l-.687-8.907s1.888-1.44 1.51-2.39c-.38-.953-2.68-2.405-2.68-2.405l.025 2.32-2.77.256.39.477.816 10.74c.47 1.1 2.12 1.79 2.12 1.79l-7.24 5.72-1.72-.05.94 3.28s-.21 1.19-.76 1.19-1.302.117-1.302.117 1.6 1.85 3.12 1.08c1.303-.65 1.85-3.205 1.85-3.205" fill="#F47836"/><path d="M22.672 242.565l36.906-13.043c4.812 3.543 14.05 6.22 20.994 7.395-.564 3.634-.242 7.443.536 9.667.783 2.24 8.07 19.746 8.07 19.746l-23.73 8.64-8.89-21.155-8.06-2.09-2.057 10.012 24.87 61.768 7.71 1.686 4.27-7.69-5.54-14.43-6.39 2.41L63 284.63l30.34-11.1s11.454 28.34 12.65 31.405c1.19 3.076 5.055 8.026 6.662 9.57-3.05 2.86-10.314 11.593-8.824 19.633l-37.476 14.51c-3.678-3.86-6.164-11.79-17.697-10.504-.12-3.163-2.658-5.494-4.696-10.55-2.05-5.07-20.94-50.526-22.16-53.575-1.2-3.07-3.39-8.28-7.89-12.52 5.7-4.11 9.88-11.78 8.76-18.93" fill="#BC9B6A"/><path d="M178.54 203.85l33.738-3.212c2.01 7.484 7.28 12.63 10.333 15.14-3.17 3.79-2.28 8.046-1.46 10.575 3 9.07 18.94 53.022 19.96 55.31 1.99 4.5 6.38 8.515 10.06 11.163-.78.98-5.73 8.197-5.68 17.09 0 0-25.68 1.63-25.7 1.58-.41-3.03-5.03-11.47-9.27-16.162 4.24-3.283 5.89-5.513 4.34-9.878-.32-.89-1.14-3.51-1.86-5.92l-19.91 2.47c-.067 2.418-.188 4.776-.26 5.98-.32 4.762 3.034 7.093 6.314 8.665-2.07 4.54-4.423 10.56-4.11 17.62l-27.782 4.04c-.333-5.08-4.312-12.11-7.464-16.02 4.146-3.92 5.77-8.34 7.1-14.93.846-4.17 3.24-22.32 5.16-36.89 1.474-11.11 1.57-18.51 1.91-20.16.913-4.66-.237-6.88-2.392-9.87 2.776-3.13 6.88-9.894 6.996-16.573zm22.4 41.182c-.918-2.92-2.616-10.254-2.616-10.254s-.646 8.045-1.023 10.68c-.38 2.652-2.07 14.31-2.07 14.31l10.73-1.107s-4.1-10.71-5.01-13.62z" fill="#BC9B6A"/><path d="M309.634 201.76l26.5 2.47c.37 6.46 3.17 13.82 5.244 17.72-4.79 3.417-7.653 6.547-8.036 12.354l-3.456 52.922c-.235 3.61.41 6.67 3.937 10.06-1.766 2.14-7.696 11.355-9.266 17.616l-20.818-2.385-17.44-49.464-2.52-10.26c-.14 1.83.38 8.65.25 10.525-.677 9.74-1.32 18.748-1.32 18.748-.23 3.324 1.78 9.958 6.19 12.37-2.48 3.356-7.853 9.758-8.706 16.456l-23.465-.458c-1.318-8.076-2.41-10.34-6.63-16.918 1.635-1.27 7.462-6.91 7.793-11.98l3.45-53.33c.24-3.516.986-8.307-4.31-12.766 2.95-4.212 5.8-11.683 6.026-15.674l26.56.357L306 246.447l1.58 10.65.01-11.397 1.01-15.49c.278-4.114-.315-8.368-4.98-12.464 2.33-3.087 4.61-11.856 6.004-15.987" fill="#BC9B6A"/><path d="M136.856 240.14c1.404 6.05 13.15 49.2 13.587 50.772 1.514 5.452 4.84 8.174 10.19 10.93-3.43 6.073-5.228 10.26-2.79 18.234 0 0-25.62 6.425-25.62 6.41-1.53-5.624-2.61-9.258-11.348-14.644 4.546-5.727 4.74-10.675 3.58-15.24-1.172-4.564-11.804-46.36-12.598-49.357-.78-2.978-2.73-8.516-10.844-12.73 2.48-3.592 4.323-10.834 2.9-16.958 0 0 26.575-6.042 26.557-6.11 1.783 7.064 7.267 12.493 10.942 13.906-3.075 4.226-5.957 8.735-4.556 14.786" fill="#BC9B6A"/><path d="M361.728 290.97l13.005-56.976c-5.3-.032-13.865 3.224-20.12 9.122l-14.497-13.785c7.696-5.14 18.07-13.02 21.41-21.43 0 0 62.044 12.98 62.044 12.99-.96 7.98 3.12 20 7.404 28.06 0 0-17.935 5.98-17.95 5.98-2.375-6.27-7.382-14.6-12.472-17.24l-13.982 59.04c-1.016 4.86.507 10.947 3.782 14.39-5.464 3.537-9.474 7.42-10.762 14.9 0 0-24.663-5.7-24.663-5.71 2.382-7.25.2-11.982-3.09-18.384 5.662-2.23 8.576-6.83 9.89-10.95" fill="#BC9B6A"/><path d="M413.982 306.753l4.76-11.956 24.785 9.557-6.38 16.775 3.51 7.1 7.504-3.04 6.94-18.43-33.18-26.12c2.72-3.07 3.85-5.49 5.02-8.3 1.18-2.79 7.52-16.16 8.66-20.1 1.14-3.94 2.21-5.007 1.52-13.288 6.267.165 15.563-2.31 19.18-8.663l34.37 12.362c.843 5.915 9.76 17.235 12.344 19.89-2.51 2.774-5.24 6.07-6.313 9.213-1.075 3.126-6.076 16.7-6.076 16.7l-23.922-9.36 6.99-19.25.27-2.35-3.1-4.904-8.18 3.19-8.105 19.355 32.115 25.586c-2.03 2.39-3.144 4.583-4.443 7.683-2.787 6.91-8.9 22.99-8.9 22.99-1.52 4.524-1.3 7.99-1.353 11.49-8.19.335-17.125 3.36-19.95 8.457l-35.8-13.953c.53-8.504-.902-15.81-6.656-20.66 3.23-3.047 2.936-6.337 4.41-9.998" fill="#BC9B6A"/><path d="M18.77 240.65l37.992-13.42c4.807 3.552 12.955 6.59 19.907 7.774-.57 3.622-.25 7.436.54 9.655.78 2.23 7.99 19.98 7.99 19.98l-23.73 8.57-8.82-21.33-8.06-2.08-2.6 9.39 24.86 61.77 8.18 2.46 4.58-8.52-5.1-13.83-7.16 2.63L59 282.85l30.35-11.09s11.45 28.333 12.644 31.39c1.184 3.07 5.066 8.03 6.666 9.57-3.05 2.877-10.32 11.603-8.824 19.634l-37.48 14.53c-3.674-3.846-8.81-8.375-20.354-7.09-.127-3.187 0-8.905-2.037-13.965-2.035-5.05-22.075-53.73-22.075-53.73-1.598-4.51-3.39-8.27-7.89-12.52 5.69-4.118 9.87-11.78 8.77-18.938" fill="#F47836"/><path d="M175.194 201.067L208.9 197.9c2.01 7.486 7.256 12.64 10.326 15.148-3.173 3.784-2.308 8.044-1.456 10.564 2.992 9.09 18.923 53.024 19.94 55.335 2.354 5.265 5.988 8.632 9.44 11.106-.79.984-5.11 8.25-5.045 17.135 0 0-25.698 1.62-25.716 1.57-.41-3.02-5.02-11.48-9.27-16.162 4.24-3.267 5.88-5.514 4.32-9.888-.31-.863-1.13-3.497-1.85-5.9l-19.937 2.478c-.056 2.408-.16 4.766-.24 5.967-.314 4.766 3.026 7.078 6.312 8.678-2.06 4.52-4.425 10.54-4.105 17.62l-27.787 4.04c-.355-5.07-3.564-11.753-7.264-16.034 4.13-3.915 5.56-8.324 6.886-14.92.86-4.18 3.247-22.315 5.164-36.875 1.47-11.117 1.607-18.56 1.936-20.214.93-4.676-.22-6.89-2.38-9.88 2.764-3.133 6.883-9.9 7-16.583zm22.347 41.227c-.91-2.912-2.62-10.573-2.62-10.573s-.02 8.38-.39 11.02c-.374 2.64-2.074 14.32-2.074 14.32l10.107-1.12c-.004.008-4.08-10.72-5.007-13.63z" fill="#F47836"/><path d="M306.786 198.453l26.5 2.488c.366 6.46 3.158 13.82 5.246 17.73-4.804 3.42-7.67 6.55-8.045 12.36l-3.49 52.92c-.23 3.613.4 6.68 3.928 10.065-1.758 2.14-7.703 11.35-9.267 17.61l-20.815-2.4-17.41-49.46-2.77-13.592c-.125 1.84.633 11.975.496 13.84-.68 9.754-1.32 18.756-1.32 18.756-.24 3.326 1.77 9.96 6.18 12.39-2.48 3.34-7.86 9.76-8.72 16.44l-23.468-.473c-1.313-8.072-1.91-10.38-6.115-16.95 3.044-2.37 6.96-6.95 7.3-11.942l3.465-53.33c.238-3.515-.04-7.75-5.322-12.2 2.96-4.223 6.818-12.254 7.056-16.246l25.37.384 16.35 46.358 3.405 13.506-.624-14.276 1.01-15.51c.276-4.103-1.406-7.944-6.07-12.042 2.33-3.082 5.715-12.27 7.112-16.4" fill="#F47836"/><path d="M133.083 237.735c1.406 6.05 13.076 49.286 13.512 50.858 1.502 5.456 4.118 8.334 9.456 11.097-3.42 6.074-4.5 10.093-2.06 18.067 0 0-25.62 6.42-25.62 6.404-1.53-5.63-2.6-9.25-11.34-14.65 4.55-5.72 4.74-10.67 3.59-15.23-1.153-4.55-12.738-47.61-13.455-50.62-.724-3-2.254-7.02-10.35-11.24 2.46-3.59 4.77-11.14 3.347-17.25 0 0 26.576-6.04 26.56-6.118 1.778 7.07 7.256 12.505 10.937 13.913-3.08 4.22-5.96 8.745-4.56 14.784" fill="#F47836"/><path d="M359.443 287.276l12.994-56.963c-5.288-.044-13.338 2.886-19.606 8.76l-14.48-13.77c7.7-5.135 17.49-12.65 20.84-21.063 0 0 60.94 12.788 60.94 12.804-.96 7.98 5.356 19.866 9.65 27.92l-19.08 6.306c-2.38-6.272-7.844-13.145-12.94-15.788l-13.47 57.544c-1.02 4.87.5 10.952 3.77 14.385-5.45 3.55-9.453 7.44-10.76 14.92 0 0-24.66-5.69-24.642-5.71 2.376-7.25.19-11.99-3.08-18.38 5.643-2.24 8.564-6.84 9.88-10.95" fill="#F47836"/><path d="M412.247 302.77l4.76-11.95 24.765 9.556-6.372 16.77 3.52 7.102 7.492-3.035 6.94-18.43-33.178-26.108c2.714-3.08 4.905-7.814 6.07-10.612 1.176-2.795 6.346-13.79 7.48-17.745 1.146-3.937 2.212-4.99 1.523-13.294 6.263.178 15.552-2.3 19.17-8.65l36.032 12.965c.84 5.91 8.12 16.62 10.7 19.28-2.52 2.78-5.24 6.07-6.32 9.2-1.087 3.14-6.07 16.71-6.07 16.71l-23.94-9.36 6.99-19.25-4.042-6.41-6.964 2.34-8.015 19.31 32.14 25.57c-2.047 2.404-3.166 4.594-4.46 7.708-2.79 6.887-8.894 22.983-8.894 22.983-1.534 4.528-1.313 7.968-1.347 11.49-8.2.335-17.146 3.35-19.97 8.46l-35.8-13.96c.555-8.51-3.916-15.07-9.684-19.93 3.252-3.056 5.98-7.066 7.456-10.72" fill="#F47836"/><path d="M63.244 342.907c-4.298-4.51-11.257-7.21-17.983-6.737-.11-2.82.42-5.272-1.45-9.915-1.86-4.632-20.79-50.108-22.7-55.294-1.912-5.17-4.18-9.44-6.21-11.28 4.985-3.95 7.877-12.91 7.516-16.72l33.738-11.9c3.23 2.46 11.605 5.09 17.24 6.23-.346 2.36-.34 5.78.617 8.51.95 2.726 6.51 16.54 6.51 16.54l-17.13 6.493-8.053-19.613-12.19-3.475-4.93 13.207 26.046 64.67 12.53 4.12L83 315.86l-7.31-18.9-6.402 2.42-5.67-14.243 23.82-9s10.51 26.13 11.464 28.46c.974 2.34 2.797 5.346 5.582 8.032-3.62 3.39-8.46 11.16-8.16 17.46L63.24 342.91" fill="#000"/><path d="M215.063 213.586c-2.415 3.223-1.646 7.686-.53 11.086 2.59 7.837 18.928 53.13 20.086 55.662 1.58 3.51 4.07 7.11 8.49 10.28-1.38 1.75-3.83 8.324-4.2 13.39l-19.98 1.222c-.59-2.225-5.44-10.23-7.32-12.232 3.59-2.713 4.845-6.322 3.035-11.41-.46-1.325-2.58-8.49-2.58-8.49l-25.74 3.155s-.037 6.77-.28 8.55c-.56 4.19 1.346 8.19 5.59 10.37-2.24 4.97-3.167 8.64-3.32 13.4l-21.75 3.17c-.88-4.607-3.644-8.908-6.27-12.37 3.44-3.29 5.07-6.95 6.515-14.09 1.44-7.115 6.266-52.953 7.09-57.098.813-4.097.57-7.747-1.81-10.54 3.474-3.94 5.467-8.896 6.087-13.455l28.462-2.636c2.15 5.755 4.703 8.97 8.41 12.014zm-17.545 18.89c-.892-2.182-3.793-10.304-3.793-10.304s-.96 9.123-1.235 10.65c-.26 1.52-4.038 28.074-4.038 28.074l18.798-2.06c.002-.002-8.824-24.17-9.732-26.36z" fill="#000"/><path d="M319.32 307.944l-15.983-1.877s-17.353-49.598-19.145-54.432c-1.762-4.816-4.884-15.725-4.884-15.725-.294 4.106-.646 10.918-.99 15.96-.888 12.268-1.77 24.976-1.883 26.664-.297 4.347 1.714 10.55 5.37 13.09-3.567 4.963-5.86 7.383-7.148 12.475l-17.906-.3c-.88-5.46-2.73-9.05-5.38-13.08 2.67-2.09 6.66-6.36 7.06-12.3.25-3.736 3.23-49.57 3.48-53.316.23-3.59.35-8.913-4.664-12.998 2.69-4.19 5.18-9 5.79-12.25l20.158.32s17.25 48.944 18.73 53.038c1.464 4.094 4.54 13.51 4.54 13.51.24-3.506.638-7.978.916-12.284.792-12.155 1.632-25.32 1.764-27.323.353-5.23-1.2-8.538-5.57-12.58 2.39-3.324 4.234-8.477 5.58-12.473l21.2 2c.65 4.136 2.027 9.324 4.236 13.57-2.995 2.18-7.02 6.05-7.498 13.15-.54 8.082-3.274 49.91-3.475 52.914-.284 4.34.59 8.2 3.18 10.48-2.024 2.46-5.89 9.14-7.463 13.75" fill="#000"/><path d="M149.925 315.283s-.817-3.51-.128-7.195c.692-3.698 2.63-7.03 2.63-7.03s-1.79-.673-4.9-3.97c-2.847-3.01-4.22-7.595-4.22-7.595l-13.58-51.115s-.754-4.416.06-7.84c.688-2.818 3.262-6.233 3.262-6.233s-1.08-.285-4.48-4.44c-3.43-4.16-4.05-6.812-4.05-6.812l-20.67 4.725s.62 2.642-.61 7.87c-1.208 5.21-2.05 5.924-2.05 5.924s3.822 1.967 5.7 4.197c2.26 2.72 3.53 7.02 3.53 7.02l13.69 51.51s1 4.68-.05 8.66c-1.17 4.346-2.402 5.79-2.402 5.79s3.3 2.024 5.7 4.942c2.37 2.93 3.356 6.386 3.356 6.386l19.197-4.81" fill="#000"/><path d="M418.89 230.595c-1.71-4.948-2.22-10.84-2.22-10.84l-55.467-11.605s-3.953 5.367-7.623 9.095c-5.38 5.472-9.865 8.51-9.865 8.51l9.192 8.674c8.072-7.74 17.033-8.22 23.764-7.28l-13.94 60.97s-1.27 4.61-4.06 7.67c-3.05 3.34-4.81 4.05-4.81 4.05s2 3.304 2.75 7c.77 3.69.02 7.205.02 7.205l18.23 4.217s.9-3.49 3.227-6.456c2.32-2.97 5.59-5.04 5.59-5.04s-1.27-1.43-2.503-5.768c-1.117-3.98-.2-8.68-.2-8.68l14.337-61.58c6.948 2.29 14.61 8.06 17.358 16.38l12.174-4.244s-3.43-5.05-5.935-12.294" fill="#000"/><path d="M427.402 271.725c-1.812 3.52-2.588 4.29-2.588 4.29l32.602 25.648-8.338 22.147-11.795 4.785-5.583-11.262 5.7-15.023-18.434-7.083c-1.937 5.078-3.834 9.523-4.028 10.02-.724 1.895-3.82 6.092-5.642 8.23 5.238 4.264 8.474 11.38 8.563 17.61l31.37 12.26c4.03-4.824 12.84-7.227 17.78-7.26-.24-3.852.9-8.1 1.33-9.686l7.36-19.53s2.03-5.24 3.17-7.3c1.013-1.87 1.37-2.19 1.37-2.19l-31.48-25.08 9.385-23.1 11.07-3.744 6.355 10.05-6.436 17.657 17.556 7 5.346-14.604c1.19-3.366 3.134-4.655 4.834-7-3.66-4.447-8.32-12.68-9.29-16.64l-31.78-11.45c-2.1 3.18-10.723 7.653-17.07 7.56.427 2.736-.73 8.446-2.212 12.717-.21.57-1.732 2.994-4.23 10.168 0 .002-3.977 9.056-4.888 10.81" fill="#000"/></g></svg>