<svg width="512" height="512" viewBox="0 0 512 512" xmlns="http://www.w3.org/2000/svg"><title>toronto-blue-jays</title><g fill="none" fill-rule="evenodd"><path d="M256 82.722c-95.664 0-173.278 77.62-173.278 173.278 0 95.657 77.614 173.278 173.278 173.278 95.67 0 173.278-77.62 173.278-173.278 0-95.657-77.607-173.278-173.278-173.278z" fill="#FFF"/><path d="M256 82.722c-95.664 0-173.278 77.614-173.278 173.27 0 95.658 77.614 173.286 173.278 173.286 95.67 0 173.278-77.628 173.278-173.285S351.67 82.723 256 82.723zm0 6.16c92.32 0 167.126 74.775 167.126 167.11 0 92.344-74.805 167.135-167.126 167.135-92.33 0-167.105-74.79-167.105-167.134C88.895 163.657 163.67 88.88 256 88.88z" fill="#003DA5"/><g fill="#DA291C"><path d="M271.602 171.693l-3.77 4.88 4.26-.245 2.506-3.61-2.996-1.025z"/><path d="M262.295 168.704c-.202.332-4.34 5.45-4.34 5.45l2.13 3.61 3.2-.07-1.48-3.156 3.407-5.126-2.917-.708z"/><path d="M252.664 165.823s-.75 1.322-1.213 2.065c-.468.737-1.14 1.654-1.703 2.296-.563.65-1.783 1.675-1.783 1.675s.765.85 1.083 1.393c.325.548.7 1.3.953 1.956.253.663.447 1.364.563 2 .123.634.202 1.645.202 1.645l3.567.137s-.094-1.054-.275-1.76c-.173-.716-.534-1.756-.852-2.463-.31-.702-.7-1.323-.99-1.763-.295-.44-.7-.895-.7-.895s.737-.52 1.12-.867c.383-.346.787-.758 1.2-1.27.403-.513.72-1.004 1.03-1.538.304-.534.875-1.682.875-1.682l-3.076-.932z"/><path d="M243.524 164.018l3.22.657s-1.156 1.632-1.733 2.325c-.577.693-1.11 1.285-1.696 1.834-.585.556-1.805 1.494-1.805 1.494s.8.954 1.14 1.56c.347.6.664 1.278.874 2.043.202.767.26 1.727.31 2.528.072.81-.072 2.18-.072 2.18l-3.386-.115s.16-1.552.115-2.34c-.07-.786-.122-1.69-.31-2.39-.194-.707-.447-1.342-.8-2.013-.354-.665-1.35-1.834-1.35-1.834s1.032-.823 1.523-1.25c.49-.425 1.047-.974 1.53-1.487.484-.513.91-1.033 1.35-1.596.434-.563 1.076-1.596 1.076-1.596h.014z"/><path d="M232.6 162.596c.318.072 3.747.42 3.747.42s-.888 1.667-1.32 2.39c-.427.72-.593 1.045-.97 1.558-.374.513-.843 1.047-1.176 1.386-.33.34-1.074 1.04-1.074 1.04s.736.715 1.04 1.177c.303.47.57 1.018.757 1.595.195.578.398 1.314.49 2.253.095.94 0 3.567 0 3.567l-3.71-.13s.087-2.072.073-2.845c-.073-.773-.152-1.466-.318-2.152-.166-.678-.657-1.696-.758-1.87-.11-.173-1.285-1.523-1.285-1.523s.866-.816 1.35-1.386c.483-.578.982-1.098 1.386-1.733.405-.635.795-1.235 1.077-1.805.28-.563.693-1.942.693-1.942z"/><path d="M192.046 186.97c.072.174 2.454-1.48 2.454-1.48-1.06-1.436-1.79-2.454-2.852-3.877 1.112-.96 2.36-1.978 3.343-2.73l3.604 5.084 2.043-1.61-3.14-5.408 3.992-2.773c.59.592 1.797 1.87 2.28 2.78.492.924.593 1.566.708 2.266.116.708.166 1.675.166 1.675l3.235-.664s0-.902-.16-1.733c-.173-.83-.397-1.89-.78-2.518-.375-.62-.844-1.343-1.278-1.935-.426-.578-1.285-1.48-1.364-1.625 1.566-.938 2.823-1.725 4.635-2.73.924-.446 2.1-1.09 2.1-1.09s-.346 1.467-.642 2.102c-.28.635-.916 1.357-.916 1.357s1.14.904 1.647 1.655c.5.75.975 1.935 1.17 2.837.195.903.137 2.26.137 2.26l3.033-.31s.086-1.46 0-2.232c-.072-.772-.217-1.25-.42-1.833-.194-.585-.447-1.09-.78-1.647-.324-.555-1.19-1.682-1.19-1.682s.55-.88.8-1.393c.254-.52.536-1.112.702-1.697.16-.57.36-1.32.36-1.32s4.015-1.763 5.9-2.478c0 0-.073 1.148-.275 1.885-.217.736-.52 1.408-.895 2-.376.592-1.3 1.523-1.3 1.523s.686.81 1.083 1.415c.404.607.946 1.466 1.27 2.238.333.767.586 1.62.708 2.333.116.722.073 1.928.073 1.928l3.407.073s.073-1.595 0-2.36c-.072-.76-.122-1.43-.404-2.188-.282-.765-.86-1.646-1.308-2.274-.447-.62-1.328-1.487-1.328-1.487 1.567-2.21 2.91-4.765 3.646-6.62 8.67-2.888 15.638-4.087 24.447-4.55 11.42-.598 23.11.636 33.457 3.755 11.833 3.58 17.992 7.314 17.992 7.314l7.176-2.224s-9.884-6.043-21.067-9.638c-9.783-3.148-20.678-4.953-33.017-4.982-17.667.16-33.233 4.823-46.88 11.51-9.544 4.77-21.37 13.507-34.034 28.59-8.476 10.1-13.126 21.73-15.097 27.016l6.325-.866c1.06-3.307 8.16-16.844 14.425-24.223l.896.932 2.144-2.036-1.076-1.227c.91-1.032 2.06-2.303 2.97-3.285l1.356 2.31 2.224-1.617-1.92-2.403c1.313-1.292 2.324-2.245 3.68-3.523l2.536 3.436z"/><path d="M314.82 310.778l1.885-1.466 2.36 1.725-2.41 7.025-3.15-.1 2.26-6.138-.945-1.046"/><path d="M321.058 304.75l2.73-2.254c.137.693.332 1.38.57 2.044.26.722.585 1.43 1.054 2.043.397.52.895.96 1.415 1.364.412.318.837.607 1.278.874l-3.328 6.456-3.206.18c.485-1.07.983-2.13 1.503-3.177.447-.91.917-1.813 1.393-2.708-.65-.42-1.235-.932-1.733-1.516-.433-.513-.8-1.076-1.097-1.683-.253-.52-.448-1.06-.578-1.624"/><path d="M329.31 301.168l2.65-.563c.16.794.36 1.58.62 2.353.247.744.543 1.466.875 2.174.245.52.512 1.04.866 1.494.268.347.593.657.947.917l-3.364 6.78h-2.578c.433-.925.88-1.842 1.35-2.744.426-.83.874-1.662 1.343-2.47.217-.368.433-.737.657-1.098-.34-.382-.65-.794-.938-1.22-.36-.54-.686-1.112-.968-1.704-.297-.613-.55-1.242-.788-1.884-.245-.672-.47-1.35-.67-2.036"/><path d="M337.794 305.695c-.354-.52-.635-1.09-.823-1.69-.158-.505-.252-1.025-.317-1.545-.08-.592-.122-1.184-.13-1.776l2.448-.072c0 .592.116 1.177.26 1.754.116.44.26.88.506 1.27.253.398.6.73 1.004.96 1.877-3.58 3.617-7.226 5.213-10.937.866-2.008 1.69-4.037 2.47-6.08l5.66.072c-.867 2.8-1.878 5.567-3.02 8.267-1.854 4.39-4.064 8.634-6.533 12.713-3.927 6.49-8.512 12.592-13.696 18.13-4.238 4.52-8.873 8.67-13.855 12.36-5.22 3.87-10.816 7.234-16.686 10.02-5.798 2.752-11.863 4.947-18.086 6.528l4.15-6.735c3.777-1.27 7.474-2.78 11.062-4.52 5.184-2.512 10.137-5.494 14.86-8.8 5.255-3.676 10.23-7.77 14.69-12.376 4.65-4.802 8.716-10.167 12.095-15.935l-1.27-1.596"/><path d="M152.906 269.95l5.53 1.183 2.152 10.57 1.98 6.447 3.746 9.393 1.292-.158 1.58 1.92-1.06 1.97 1.408 2.535 1.48-2.166 1.884 2.03-1.37 3.5 2.035 3.4 2.158-4.345 1.857 1.638-1.885 5.747 3.82 4.996-.202-3.963 1.61-4.252 2.49 1.913-1.364 2.188v7.068l3.646 3.87 1.487-2.52c-.383-.678-.672-1.408-.853-2.166-.216-.93-.274-1.9-.21-2.86.08-1.233.362-2.46.817-3.61l2.83 1.734c-.303.773-.52 1.58-.642 2.397-.123.8-.16 1.616-.123 2.425.07 1.213.28 2.42.67 3.567l-1.913 3.01 4.707 4.282 2.34-4.527c-.513-1.09-.903-2.246-1.156-3.422-.238-1.105-.353-2.24-.274-3.365.072-.86.238-1.704.52-2.513l2.404 1.59-.397 2.67.117 3.09 1.22 2.766-2.246 5.812 7.806 5.407c6.816 4.318 14.15 7.834 21.79 10.433 4.28 1.46 8.656 2.628 13.09 3.51l2.252 4.952c-5.66-.88-11.25-2.217-16.685-4.007-8.18-2.686-16.036-6.39-23.306-11.003-6.772-4.296-13.046-9.38-18.656-15.104-4.793-4.896-9.11-10.267-12.85-16.014-4.896-7.517-8.795-15.683-11.545-24.217-1.863-5.797-3.2-11.76-3.98-17.804"/><path d="M201.345 321.362l3.04.895s-.145 4.043.093 5.32c.23 1.272.426 1.575.838 2.312.404.735 1.624 1.825 1.624 1.825s-.8.852-1.112 1.35c-.303.506-.548.823-.714 1.64-.174.815 0 3.212 0 3.212h-2.744s-.188-1.848-.13-2.7c.072-.838.332-1.603.57-2.296.246-.678.88-1.76.88-1.76s-1.053-1.163-1.428-1.79c-.383-.63-.6-.665-.896-2-.288-1.337-.072-6.008-.072-6.008h.05z"/><path d="M209.987 323.896l2.975.715s-.073 3.004.245 4.18c.31 1.17.787 1.98 1.336 2.766.556.787 1.89 1.92 1.89 1.92s-.822 1.64-1.024 2.78c-.203 1.14 0 4 0 4l-3.33.073s-.26-2.947 0-4.138c.246-1.184 1.257-2.88 1.257-2.88s-1.112-.687-1.545-1.113c-.433-.427-.708-.774-1.032-1.416-.325-.635-.6-1.278-.773-2.433-.18-1.154 0-4.44 0-4.44v-.014z"/><path d="M219.582 325.427l3.358.39s.158 2.18.512 3.198c.354 1.025.657 1.877 1.386 2.722.73.852 2.174 1.9 2.174 1.9s-.354 1.168-.44 1.854c-.087.687-.145 1.49-.16 2.37 0 .88.123 2.924.123 2.924l-3.242-.16s-.072-1.58-.072-2.33c0-.752 0-1.07.16-1.972.16-.91.91-2.174.91-2.174s-.81-.49-1.466-.945c-.758-.535-1.328-1.343-1.812-2.05-.49-.716-.823-1.178-1.105-2.138-.29-.96-.36-3.588-.36-3.588h.035z"/></g><path d="M256.18 92.513c-90.155 0-163.292 73.152-163.292 163.3 0 90.155 73.137 163.307 163.292 163.307 90.156 0 163.315-73.152 163.315-163.307 0-90.148-73.16-163.3-163.315-163.3zm0 6.15c86.82 0 157.127 70.316 157.127 157.15S343 412.97 256.18 412.97c-86.82 0-157.134-70.323-157.134-157.157 0-86.834 70.315-157.15 157.134-157.15z" fill="#003DA5"/><path d="M277.082 182.393c3.227-.743 6.447-1.523 9.653-2.346 3.105-.794 6.202-1.625 9.285-2.49 3.45-.97 6.895-1.965 10.296-3.098 4.714-1.575 9.328-3.453 13.855-5.503 3.834-1.733 7.61-3.596 11.235-5.725 3.018-1.77 5.934-3.74 8.512-6.1 2.137-1.965 4.036-4.19 5.624-6.615.232 1.683.283 3.386.146 5.076-.11 1.35-.34 2.686-.607 4.007-.297 1.473-.65 2.93-1.055 4.375l8.224-3.624c3.58-1.58 7.34-2.902 11.247-3.06l-1.74 1.552c-1.234 1.393-2.418 2.823-3.545 4.303-1.162 1.516-2.267 3.083-3.32 4.678-1.66 2.513-3.2 5.112-4.6 7.776l-3.097 6.865 2.115-1.66c1.22-.73 2.455-1.43 3.697-2.116 1.242-.686 2.505-1.343 3.848-1.813 1.097-.382 2.245-.635 3.4-.75 1.026-.102 2.065-.102 3.09 0-.6.505-1.155 1.06-1.66 1.66-1.01 1.206-1.805 2.592-2.34 4.072-.866 1.89-1.624 3.833-2.266 5.81-.897 2.752-1.56 5.575-2.26 8.383-.673 2.7-1.38 5.394-2.117 8.072l-10.945-18.035-12.98 21.133-12.376-4.903 2.787 28.07-13.957-13.283-4.23 10.115-17.53-2.75v3.32c-2.615-.26-5.22-.55-7.828-.873-3.444-.427-6.88-.918-10.266-1.655-2.897-.628-5.756-1.437-8.6-2.267-3.01-.88-6.007-1.798-8.982-2.794-2.96-.996-5.89-2.072-8.852-3.06-2.05-.687-4.115-1.323-6.187-1.922 2.302-.34 4.62-.592 6.945-.772 1.992-.152 3.992-.246 5.992-.224 2.412 0 4.816.216 7.198.57-3.176-1.14-6.418-2.094-9.703-2.86-3.256-.757-6.556-1.327-9.87-1.753-2.758-.354-5.538-.6-8.317-.7-2.49-.087-4.982-.073-7.473.08-2.382.13-4.765.345-7.097.83-2.123.44-4.195 1.11-6.187 1.963-1.17.498-2.31 1.068-3.415 1.697-2.997 1.328-5.322 4.086-6.123 7.27-.585 2.318-.368 4.83.592 7.018-2.123.073-4.252-.548-6.02-1.725-1.308-.866-2.406-2.03-3.337-3.292-.852-1.155-1.574-2.41-2.08-3.754-.808-2.16-1.017-4.58-.317-6.774.44-1.386 1.227-2.642 2.152-3.768.917-1.127 1.97-2.138 3.01-3.148 2.108-2.05 4.18-4.137 6.513-5.928 2.938-2.26 6.238-4.014 9.66-5.444 4.556-1.9 9.342-3.24 14.223-3.97 6.267-1.02 12.563-1.914 18.866-2.68 6.007-.728 12.028-1.35 18.028-2.115 7.097-.902 14.173-2.007 21.212-3.314" fill="#003DA5"/><path d="M178.682 214.493s-2.91 1.14-4.18 1.964c-1.27.823-2.455 1.877-3.423 2.902-.975 1.024-1.654 2.223-2.167 3.032-.512.808-1.227 2.31-2.223 2.916-.99.607-5.92 1.2-9.524 1.82-3.595.606-8.194 1.473-11.696 2.216-3.487.744-6.28 1.372-9.277 2.145-2.997.778-6.065 1.508-8.88 2.33-2.802.817-5.726 1.77-7.972 2.557-2.237.787-3.73 1.364-5.183 2.036-1.444.678-2.36 1.285-3.162 1.783-.8.498-1.473 1.06-2.08 1.718-.598.665-.952 1.61-.952 1.61l75.08.23s.707-1.002 1.133-1.457c.426-.448.81-.823 1.79-1.357.975-.535 2.196-.953 3.452-1.257 1.256-.296 2.47-.353 3.704-.375 1.234 0 2.512-.072 3.978.303 1.473.355 2.996.96 4.195 1.61 1.19.65 2.23 1.452 3.068 2.11.83.67 1.538 1.544 2.368 2.223.83.68 1.582 1.32 2.557 2 .982.68 2.152 1.538 3.314 2.058 1.163.528 2.203.838 3.41 1.07 1.205.223 2.432.302 3.81.288 1.38 0 3.105-.245 4.513-.67 1.4-.427 2.693-1.135 3.834-1.814 1.14-.67 2.116-1.45 3.01-2.18.903-.73 1.568-1.437 2.405-2.173.838-.736 1.632-1.602 2.628-2.26.996-.663 2.137-1.176 3.213-1.56 1.076-.38 2.022-.64 3.184-.77 1.162-.124 41.24-.073 41.24-.073l-.16-6.116s-34.936.074-40.85 0c-1.176-.1-2.07-.323-2.894-.576-.823-.253-1.076-.462-2.022-.968-.945-.512-1.955-1.176-3.01-1.985-1.054-.808-2.245-1.985-3.277-2.88-1.04-.902-1.92-1.79-2.932-2.505-1.017-.715-2.006-1.314-3.118-1.776-1.12-.463-2.317-.803-3.53-.97-1.213-.158-2.455-.107-3.682 0-1.235.117-2.36.24-3.682.687-.903.31-2.138.903-2.888 1.372-1.307.83-2.325 1.753-3.56 2.685-1.126.86-2.202 1.834-3.307 2.657-1.234.924-2.267 1.76-3.71 2.584-1.033.585-2.57 1.416-3.748 1.582-1.487.202-2.245.216-3.386.13-1.127-.08-1.986-.24-3.142-.614-1.155-.368-2.332-.88-3.5-1.625-1.164-.744-2.304-1.74-3.387-2.867-1.075-1.126-2.2-2.462-3.024-3.906-.83-1.444-1.596-3.32-2.022-4.982-.426-1.66-.332-4.916-.332-4.916v.013zm36.28 12.173v7.826h-4.152s.188-2.137.49-3.155c.225-.75.543-1.502.962-2.166.39-.627.88-1.19 1.43-1.68.382-.34 1.27-.846 1.27-.846v.022z" stroke="#000" stroke-width=".213" fill="#041E42"/><path d="M306.626 224.218L318.8 235.69c1.01.76 2.446 1.553 3.45 1.055.68-.433 1.285-1.365 1.105-2.52-.715-7.826-2.47-25.956-2.47-25.956l9.184 3.862 11.955-18.36 11.357 18.483 9.06-3.625s-1.436 17.437-2 25.573c.073.997.225 1.632 1.164 2.166 1.314.498 1.805 0 3.234-.78 4.895-3.97 8.16-7.51 12.325-11.964l3.06 8.267 15.906-2.484-1.074 17.4 5.443 2.295-33.71 29.234 5.306 6.93-27.29-2.224-2.904 4.592-2.656-4.346-28.028 1.812 5.675-6.404-34.187-29.963 5.928-1.69-1.09-17.876 16.064 2.535 3.018-7.487z" fill="#DA291C"/><path d="M108.028 245.568l22.96.808 18.728 1.307 16.613 1.87 11.384 1.675s-.072 1.574.18 2.68c.232 1.103.716 2.648 1.373 3.854s1.588 2.296 2.548 3.3c.96.996 1.776 1.653 3.177 2.67 1.393 1.02 3.386 2.275 5.285 3.3 1.9 1.026 3.978 1.834 6.1 2.802 2.123.967 4.643 2.093 6.658 2.99 2.014.887 3.01 1.19 5.415 2.36 2.397 1.17 6.274 3.24 8.894 4.786 2.62 1.553 4.665 2.896 6.845 4.426 2.172 1.524 3.898 2.81 6.223 4.722 2.317 1.92 4.988 4.368 7.653 6.852 2.657 2.47 5.53 4.996 8.274 8.02 2.743 3.026 5.63 6.723 8.086 10.145 2.455 3.422 4.88 7.25 6.657 10.325 1.77 3.075 3.126 5.92 4.108 8.028.983 2.108 1.93 4.54 1.93 4.54s2.18-3.183 3.493-5.312c1.307-2.13 3.393-4.758 4.88-7.386 1.495-2.636 3.77-5.567 5.704-8.1 1.943-2.535 4.39-5.373 6.224-7.59 1.835-2.216 3.214-3.95 4.788-5.725 1.58-1.783 4.086-4.397 4.086-4.397l-13.56-.13s2.06-4.396 3.33-7.068c1.27-2.678 2.88-6.13 4.324-8.714 1.452-2.592 2.737-4.563 4.188-6.91 1.45-2.346 4.585-7.357 4.585-7.357l12.253 10.952-8.707 10.642s4.418-.23 7.913-.39c3.5-.152 8.323-.52 11.644-.758 2.217-.152 8.318-.91 8.318-.91s-5.56 4.838-8.715 7.776c-3.155 2.946-7.61 6.78-10.165 9.9-2.686 3.27-4.31 4.62-7.256 8.02-2.946 3.4-7.112 8.332-10.325 12.447-3.212 4.107-6.02 8.02-8.96 12.194-2.937 4.165-5.775 8.367-8.648 12.815-2.874 4.446-5.538 8.684-8.585 13.876-3.054 5.19-9.646 17.29-9.646 17.29s-3.175-8.294-4.785-12.56c-1.618-4.268-3.018-8.723-4.903-13.055-1.884-4.33-4.245-8.67-6.425-12.894-2.18-4.223-4.484-8.577-6.657-12.44-2.173-3.87-3.69-6.534-6.347-10.765-2.656-4.237-6.52-10.208-9.703-14.56-3.184-4.348-6.57-8.434-9.27-11.575-2.7-3.133-4.304-4.924-6.78-7.335-2.476-2.42-5.38-4.946-8.086-7.097-2.715-2.152-5.437-4.173-8.16-5.848-2.713-1.675-5.6-3.177-8.085-4.23-2.485-1.055-4.535-1.56-6.456-2.153-1.92-.592-3.364-.873-5.234-1.278-1.863-.41-4.578-.99-7.466-1.566-2.88-.585-5.176-1.134-9.588-2.282-4.41-1.155-11.3-2.975-15.616-4.296-4.318-1.32-7.314-2.36-10.332-3.487-3.01-1.12-5.76-2.282-7.776-3.17-2.014-.888-4.353-2.05-4.353-2.05s-2.564-1.58-3.236-2.303c-.67-.73-.996-1.682-.996-1.682z" fill="#041E42"/><g fill="#003DA5"><path d="M380.103 389.21v-6.072h-2.167v-1.235h5.805v1.235h-2.16v6.072h-1.477z"/><path d="M384.68 389.21v-7.307h2.216l1.323 4.968 1.292-4.967h2.216v7.307h-1.355v-5.752l-1.446 5.752h-1.447l-1.43-5.752v5.752h-1.37z"/><path d="M237.027 137.48c.07 1.218-.03 2.452-.926 3.483l8.05-.47c-.764-.8-.84-1.715-.955-3.322v-.05l-.674-11.826 18.255 14.337-1.536-26.235c-.054-1.065 0-2.198.602-3.1l-7.636.462c.585.687.776 1.545.9 2.872l.722 12.283-18.324-14.337 1.523 25.903z"/><path d="M144.028 172.63c2.902-3.91 8.658-4.763 12.566-1.864 3.91 2.912 4.76 8.652 1.865 12.57-2.906 3.912-8.658 4.76-12.567 1.86-3.91-2.897-4.76-8.653-1.865-12.565m-1.8 17.496c6.647 4.937 16.093 3.493 21.06-3.204 4.974-6.694 3.607-16.156-3.028-21.077-6.645-4.93-16.103-3.494-21.07 3.198-4.965 6.7-3.607 16.152 3.037 21.083"/><path d="M275.708 117.646l4.262.858-4.01 19.806c-.305 1.515-.86 2.472-1.884 3.072l8.732 1.773c-.62-.927-.95-2.17-.66-3.586l4.01-19.8 4.72.947c1.677.34 2.917 1.287 3.702 2.053l.12-6.943-20.72-4.205-2.55 6.362c1.514-.646 2.683-.62 4.278-.338"/><path d="M123.955 209.966l1.644-4.023 18.7 7.66c1.507.607 2.264 1.453 2.64 2.485l3.41-8.314c-1.04.44-2.32.527-3.65-.03l-18.707-7.658 1.822-4.445c.65-1.578 1.807-2.63 2.705-3.258l-6.792-1.42-8.008 19.564 5.755 3.696c-.332-1.597-.098-2.742.48-4.256"/><path d="M172.1 145.137c1.997-1.447 3.444-1.693 4.995-.83 1.05.578 1.474 1.916 1.526 2.243.05.24.315 2.35-2.2 4.182l-2.154 1.567-4.164-5.692 1.998-1.47zm-8.603 2.745l13.822 19.228c.338.732.572 1.646.41 2.637l7.062-5.15c-1.354-.12-2.127-.907-3.013-2l-5.99-8.233 15.52 5.497 6.652-4.843c-1.087-.06-2.435-.3-3.91-.705l-10.223-3.493.187-.494c1.23-3.136.643-5.448.514-5.875-.304-1.024-.8-2.003-1.474-2.91-.905-1.248-2-2.2-3.262-2.84l-.17-.085c-1.015-.468-1.9-.74-2.87-.865-1.503-.17-3.202.086-4.907.75-.34.127-1.99.866-3.287 1.808l-.09.074-7.946 5.774c1.016.22 2.183.634 2.973 1.726z"/><path d="M203.123 128.252c2.905-3.912 8.65-4.755 12.563-1.86 3.906 2.897 4.764 8.647 1.856 12.558-2.896 3.912-8.645 4.77-12.557 1.866-3.906-2.903-4.758-8.652-1.862-12.564m-1.804 17.5c6.647 4.925 16.096 3.488 21.06-3.204 4.974-6.694 3.616-16.155-3.034-21.092-6.648-4.93-16.094-3.49-21.06 3.207-4.966 6.694-3.614 16.16 3.033 21.09"/><path d="M305.998 133.558c2.906-3.912 8.66-4.764 12.58-1.865 3.9 2.902 4.754 8.66 1.852 12.564-2.9 3.912-8.65 4.764-12.567 1.865-3.917-2.896-4.76-8.66-1.865-12.564m-1.79 17.488c6.64 4.943 16.086 3.506 21.057-3.197 4.97-6.696 3.61-16.15-3.026-21.08-6.655-4.93-16.11-3.498-21.08 3.2-4.96 6.7-3.595 16.152 3.047 21.076"/><path d="M189.002 350.654l.22-.354c1.12-1.75 2.55-2.604 4.748-2.5l-5.426-3.44-14.462 22.804c-2.235 3.51-.58 8.38 3.56 11.012 4.152 2.626 9.185 2.17 11.477-1.4l14.502-22.865-5.417-3.43c1.194 1.932.963 3.43-.253 5.357l-11.756 18.54c-1.272 1.867-4.232 2.2-6.56.715-2.332-1.465-3.283-4.312-2.163-6.257 1.318-2.077 11.483-18.113 11.53-18.18"/><path d="M205.05 354.83l-14.232 22.438-.538.847c-2.49 3.936-8.52 4.577-13.453 1.44-1.708-1.08-3.04-2.47-3.986-3.992-.032-.052-.066-.086-.1-.154-1.69-2.845-1.985-6.15-.388-8.674 0 0 .12-.2.51-.84l14.238-22.444-5.41-3.438c1.046 1.825 1.126 3.152-.243 5.356l-12.102 19.082c-4.093 6.553-2.09 13.37 5.318 18.107 7.24 4.62 14.823 3.803 18.965-2.712l12.096-19.083c1.317-1.998 2.933-2.736 4.71-2.53l-5.384-3.404z"/><path d="M359.803 357.336l-6.777-6.968-7.38-21.95c-.195-.8-.813-2.14.38-5.865l-4.757 4.57 8.373 25.123 10.446 10.867.03-.03 5.016-4.83c-2.16.758-3.785.373-5.33-.926"/><path d="M325.1 342.69l-.12.125 22.63 8.54-7.7-22.917-5.938 5.716c1.492-.67 2.425-.573 2.843-.446.296.154.862.372 1.595 2.366l3.437 9.293-9.113-3.73c-1.406-.727-1.985-1.647-1.985-1.647-.573-1.025-.08-2.1.2-2.924l-5.85 5.623z"/><path d="M323.615 344.123l-4.638 4.45c2.585-.86 3.552-.692 5.69-.052l21.74 8.235 6.194 6.488c1.928 1.926 1.86 4.22 1.22 5.91l5.066-4.864-10.468-10.86-24.803-9.307z"/><path d="M295.236 389.21l-5.463-22.003c-.625-2.72 1.44-5.152 1.44-5.152l-6.21 1.54 6.422 25.862s1.28 3.755-.704 6.833c-1.415 2.154-3.606 3.816-6.61 4.555-2.81.677-6.18.4-8.686-1.293-1.108-.74-1.64-1.2-2.82-2.34l-2.193 3.664c6.538 6.34 14.608 3.57 14.608 3.57 3.003-.77 5.595-2.216 7.49-4.217 2.534-2.648 3.54-6.064 3.02-9.573 0-.092-.206-1.14-.292-1.447"/><path d="M283.076 395.705c-2.02.585-3.617-.03-3.663-.062-2.268-.77-3.358-4.247-3.358-4.247l-2.63 4.4c1.024 1.2 3.25 2.648 3.25 2.648 2.957 1.816 6.108 1.108 7.1.862 3.87-.954 7.21-4.432 6.15-8.74 0-.032-6.585-26.526-6.585-26.526l-6.207 1.523c1.354.222 3.15 1.675 3.693 3.882l5.407 21.828c.502 2.062-1.138 3.878-3.157 4.432"/><path d="M146.382 304.45l1.204 2.53c.905 1.902.652 3.74-.924 4.484-1.935.914-3.444-.91-4.022-2.145l-1.2-2.525 4.942-2.345zm2.022 10.686c3.27-1.545 4.37-5.83 2.49-9.726l-2.807-5.925-11.12 5.28 2.814 5.92c1.946 4.106 5.5 5.937 8.624 4.45z"/><path d="M135.263 318.52c-.397.39-1.14.82-1.72.894-1.604.194-3.137.3-4.96-3.644l-1.11-2.373 6.69-3.17 1.12 2.35c1.5 3.165 1 4.96-.03 5.944m2.89-7.293l-2.72-5.73-12.874 6.11 2.722 5.723c1.505 3.223 4.885 8.26 10.3 5.694 6.08-2.89 3.82-9.14 2.57-11.797"/><path d="M123.734 318.063l-3.444-7.255 28.595-13.57 3.542 7.455c2.265 4.77.81 10.04-3.3 11.99-2.44 1.152-4.936.746-7.635-1.258l-.302-.228.056.373c.504 3.853-1.34 7.276-4.95 8.98-4.85 2.3-9.543-.125-12.562-6.487zm14.32 10.166c2.945-1.392 5.115-3.77 5.866-7.33 0 0 2.798 1.31 6.894-.624v-.03c6.008-2.85 8.144-10.373 4.897-17.135l-6.296-13.27c0 1.744-.83 3.425-3.022 4.41l-26.395 12.53c-2.487 1.123-4.444.877-6.038-.776l6.468 13.62c5.2 10.944 13.785 10.406 17.626 8.6v.005z"/><path d="M142.034 347.995l26.4-23.512-4.272-4.795c.505 1.62.2 3.324-1.7 5.082 0 0-.085.07-.214.193l-21.682 19.314c-1.98 1.647-3.758 1.68-5.913.92l16.444 18.46 3.155-1.972h-.03l-12.2-13.69h.012z"/><path d="M154.618 354.065s-3.096-3.478-4.946-5.544c2.518-2.25 16.435-14.674 18.734-16.708h.03c.06-.034.106-.083.158-.136 0 0 3.195-2.364 5.242-1.11l-4.25-4.79-.032-.03-25.126 22.384 11.246 12.62 5.318-3.306s-3.462-.18-6.248-3.244l-.123-.14-.002.005z"/><path d="M230.752 394.75c-.068 0-9.4-2.246-9.4-2.246l1.687-7.06 6.588 1.55.092.03c3.12.832 3.79 3.17 3.79 3.17l1.243-5.212-14.663-3.488-3.268 13.718 17.983 4.248 2.505-5.787c-1.45.862-3.078 1.786-6.558 1.078"/><path d="M220.33 379.817l14.83 3.512 1.242-5.252s-1.717 1.905-4.807 1.173l-6.89-1.63 1.307-5.504 8.294 1.973c4.506 1.07 5.592 3.514 5.592 3.514l.394-5.866-17.084-4.054-2.878 12.133z"/><path d="M218.062 365.733c-6.83 28.74-6.765 28.494-6.808 28.68-.412 1.507-1.597 3.63-4.38 3.94l25.783 6.124 1.465-3.417-19.504-4.617 7.316-30.812 18.45 4.387.24-3.706-24.282-5.773c1.375 1.265 2.206 3.124 1.72 5.196"/><path d="M313.142 381.116L314 394.35l.114-.06 6.383-3.356c-1.492-.215-2.84-1.57-3.21-3.632l-.307-4.653 8.907-4.674 3.868 3c.982.814 2.52 2.39.936 4.596l6.436-3.382.136-.074-10.45-8.21-13.67 7.21z"/><path d="M383.304 311.6c-8.116-4.577-13.82.806-16.56 3.404l-.12.107c-2.682 2.52-3.94 3.144-5.2 2.553-.292-.142-.436-.246-.646-.382-1.403-.984-1.535-2.723-.344-4.588.258-.394 2.644-3.85 7.002-1.66l.073.04-1.727-4.788h-.05c-1.634-.05-5.758.345-8.552 4.915-2.378 3.89-1.4 7.842 2.426 9.993 3.595 2.03 6.28-.36 8.645-2.478l.12-.1 1.08-.885c.186-.17.392-.335.595-.507 2.176-1.86 4.23-3.626 7.255-3.53.224 0 2.243.126 4.136 1.27 1.91 1.16 3.17 2.724 3.71 4.657.734 2.564.322 5.41-1.125 7.997-1.538 2.717-3.984 4.59-6.896 5.263-1.225.292-1.945.372-3.588.446h-.03l1.17 4.04h.032c7.544-.35 11.206-5.865 12.126-7.552.216-.342.277-.542.277-.542 1.51-2.662 2.217-5.506 2.063-8.233-.246-4.03-2.37-7.483-5.86-9.44"/><path d="M376.638 331.313c2.58-.56 4.57-2.07 5.915-4.484.062-.094.108-.192.148-.26l.07-.12c2.1-3.826 1.242-8.1-2.03-9.96-2.545-1.453-4.807-1.486-6.927-.108-1.813 1.2-4.032 3.087-4.05 3.106-3.64 3.216-6.762 5.488-11.068 3.136-2.084-1.123-3.51-2.822-4.11-4.897-.68-2.357-.25-5.056 1.248-7.58.778-1.333 3.77-5.704 9.307-5.577h.03l-1.305-3.61v-.035l-.91.12c-3.823.527-8.1 3.57-10.182 7.26-1.572 2.814-2.3 5.584-2.145 8.237.2 3.55 1.865 6.55 4.798 8.68.42.305.853.59 1.333.853 6.927 3.905 11.32-.03 14.827-3.183l.274-.262c2.873-2.57 4.916-3.835 6.843-2.748 1.19.665 1.764 2.896.75 4.87-.836 1.618-2.076 2.252-2.437 2.41-2.037 1.086-5.29-.312-5.315-.327l-.054-.03 1.413 4.893h.04c1.294.154 3.51-.385 3.544-.39"/><path d="M315.444 368.974l4.09 3.27-3.684 1.94-.406-5.21zm-3.69-7.036l1.197 17.343 12.447-6.554-13.643-10.788z"/><path d="M306.1 351.184l2.18 39.72c-.04 3.754-.63 5.94-1.62 7.325l5.71-3.018-2.466-36.848 28.992 22.872 5.45-2.87c-2.252-.066-4.388-1.415-6.64-2.917L306.1 351.183z"/></g></g></svg>