<svg width="512" height="512" viewBox="0 0 512 512" xmlns="http://www.w3.org/2000/svg"><title>washington-nationals</title><g fill="none" fill-rule="evenodd"><path d="M435 257.13c0 63.284-33.76 121.76-88.565 153.4-54.805 31.642-122.327 31.642-177.13 0-54.806-31.64-88.567-90.116-88.567-153.4 0-97.826 79.304-177.13 177.13-177.13C355.697 80 435 159.304 435 257.13z" fill="#FFF"/><path d="M427.533 257.135c0 93.71-75.964 169.678-169.67 169.678-93.707 0-169.67-75.968-169.67-169.678s75.963-169.677 169.67-169.677c93.706 0 169.67 75.967 169.67 169.677z" stroke="#000" stroke-width=".5" fill="#BA122B"/><path d="M385.957 399.95h-.073l-2.156-6.303h-3.188v9.63h1.83v-7.667h.074l2.57 7.668h1.763l2.68-7.668v7.668h1.85v-9.63h-3.202l-2.214 6.302h.067z" fill="#14225A"/><path d="M371.53 395.36h2.744v7.918h1.867v-7.92h2.74v-1.726h-7.35v1.727z" fill="#14225A"/><path d="M417.952 257.5c0 88.614-71.836 160.45-160.45 160.45-88.617 0-160.453-71.836-160.453-160.45 0-88.615 71.835-160.452 160.45-160.452 88.616 0 160.452 71.837 160.452 160.45z" stroke="#000" stroke-width=".5" fill="#14225A"/><path d="M370.18 257.108c0 62.03-50.283 112.313-112.31 112.313-62.03 0-112.314-50.283-112.314-112.312 0-62.028 50.284-112.313 112.313-112.313 62.027 0 112.31 50.285 112.31 112.313z" stroke="#BA122F" stroke-width="8.654"/><path d="M361.195 257.13c0 57.067-46.26 103.327-103.326 103.327-57.066 0-103.327-46.26-103.327-103.326 0-57.064 46.26-103.325 103.326-103.325 57.065 0 103.325 46.26 103.325 103.326z" fill="#FFF"/><g><path d="M129.072 283.49l-8.293-5.903-8.254 5.97 3.153-9.59-8.32-5.865 10.24-.023 3.11-9.6 3.178 9.576 10.243-.06-8.278 5.938 3.22 9.555z" fill="#BA122B"/><path d="M409.374 283.666l-8.294-5.903-8.252 5.97 3.152-9.59-8.32-5.865 10.243-.022 3.11-9.6 3.177 9.576 10.242-.06-8.28 5.94 3.222 9.554z" fill="#BA122B"/><g fill="#FFF"><path d="M140.807 215.95l-13.3-14.015 19.265.057.477-1.117-22.587-20.384-2.252 5.253 12.63 11.06-17.967.08-.466 1.077 12.42 12.96-16.783-1.31-2.352 5.518 30.472 1.922.443-1.072v-.028z"/><path d="M171.938 148.673c1.17 0 2.47-.17 4.1-.524l1.995-.423c1.04-.215 2.023-.423 2.87-.423 1.13 0 1.885.378 2.516 1.248.414.56.567 1.173.465 1.818-.154.975-.892 1.99-2.074 2.847-2.015 1.463-4.203 1.668-6.356.585l-.625-.307-2.506 4.805.66.314c1.618.79 3.3 1.193 4.998 1.193 2.426 0 4.76-.802 6.937-2.39 4.81-3.495 5.958-8.2 2.987-12.268-1.75-2.39-3.903-3.51-6.777-3.51-1.165 0-2.494.173-4.295.557l-2.006.426c-1.222.258-2.193.433-2.977.433-1.05 0-1.665-.3-2.26-1.122-.893-1.228-.598-2.566.788-3.573 1.4-1.017 2.7-1.128 4.41-.397l.68.293 1.865-4.914-.625-.267c-3.267-1.393-6.442-.997-9.425 1.176-1.88 1.37-3.13 3.22-3.505 5.215-.375 2.003.13 4.084 1.42 5.86 1.665 2.285 3.812 3.348 6.738 3.348"/><path d="M207.654 143.807l-2.97-7.698 10.758-4.135 2.97 7.7 5.284-2.037-10.208-26.485-5.295 2.036 5.374 13.944-10.76 4.14-5.368-13.95-5.295 2.03 10.214 26.484 5.294-2.03z"/><path d="M242.46 134.386l-4.073-28.08-5.613.81 4.074 28.08 5.612-.81z"/><path d="M262.468 116.797l14.93 18.263 1.33.097 2.22-28.684-5.374-.41-1.284 16.606-14.94-18.26-1.318-.1-2.233 28.68 5.38.418 1.288-16.61z"/><path d="M303.61 142.678c2.295.88 4.442 1.313 6.555 1.313 1.665 0 3.295-.273 4.988-.835l.312-.105 3.937-10.197-11.73-4.51-1.875 4.835 6.754 2.593-1.09 2.8c-1.806.316-3.726.05-5.953-.806-5.21-2.002-7.374-6.83-5.38-12.01 1.47-3.812 4.63-6.178 8.232-6.178 1.055 0 2.118.204 3.17.604 3.595 1.386 4.623 3.357 5.367 5.262l.26.67 5.035-2.073-.24-.64c-1.448-3.865-4.123-6.434-8.424-8.086-1.772-.685-3.6-1.026-5.442-1.026-6.027 0-11.157 3.592-13.39 9.377-2.982 7.738.847 15.91 8.913 19.013"/><path d="M332.815 158.848l13.674-18.74 6.48 4.714 3.063-4.185-17.55-12.766-3.05 4.187 6.483 4.716-13.68 18.74 4.58 3.335z"/><path d="M350.937 169.573c-.386 3.79.767 7.577 3.25 10.668 2.85 3.557 7.004 5.605 11.4 5.605 3.28 0 6.443-1.134 9.124-3.278 3.137-2.507 5.074-6 5.472-9.846.375-3.782-.778-7.57-3.255-10.656-2.852-3.563-7.01-5.607-11.402-5.607-3.283 0-6.436 1.135-9.123 3.275-3.136 2.507-5.08 6.007-5.465 9.84m9.1-5.296c1.853-1.48 3.955-2.258 6.08-2.258 2.595 0 4.976 1.186 6.697 3.33 3.193 3.987 2.46 9.318-1.744 12.676-1.846 1.48-3.948 2.263-6.073 2.263-2.596 0-4.97-1.19-6.698-3.34-3.193-3.977-2.466-9.314 1.738-12.67"/><path d="M370.706 206.155l15.515-6.125-9.77 21.132-.12.273.472 1.242 26.825-10.584-1.994-5.002-15.514 6.12 9.89-21.4-.472-1.24-26.826 10.577 1.994 5.008z"/><path d="M156.713 329.553l-14.02 9.04 5.5-22.924-.717-1.13-24.207 15.626 2.927 4.52 14.02-9.04-5.52 22.936.747 1.1 24.195-15.614-2.927-4.515z"/><path d="M187.617 366.266l7.08 3.755-10.87 20.498 5 2.643 10.88-20.49 7.09 3.748 2.43-4.577-19.178-10.15-2.433 4.576z"/><path d="M212.386 402.672l5.448 1.577 7.908-27.26-5.448-1.576-7.908 27.258z"/><path d="M251.89 380.593c-8.282-.38-14.923 5.71-15.298 13.867-.37 8.15 5.772 14.826 13.975 15.194h.727c7.948 0 14.214-5.972 14.566-13.89.37-8.144-5.766-14.814-13.97-15.188m-1.084 23.804c-5.107-.233-8.635-4.294-8.39-9.67.238-5.236 3.85-8.888 8.776-8.888h.46c2.488.113 4.704 1.15 6.22 2.92 1.517 1.765 2.284 4.164 2.165 6.76-.244 5.39-4.056 9.093-9.23 8.872"/><path d="M294.47 375.68l4.14 16.143-19.775-12.32-.25-.158-1.3.33 7.17 27.87 5.22-1.345-4.148-16.136 19.78 12.325.25.158 1.296-.335-7.163-27.865-5.22 1.333z"/><path d="M359.782 363.118l-16.39-16.436-4.02 3.993 20.052 20.11 12.464-12.386-3.664-3.67-8.442 8.388z"/><path d="M385.852 324.698c-1.494-.913-2.932-1.36-4.386-1.36-2.346 0-4.488 1.122-6.976 2.818l-1.693 1.157c-1.704 1.157-2.8 1.78-3.738 1.78-.444 0-.887-.14-1.37-.44-1.3-.795-1.534-2.14-.63-3.597.88-1.43 2.022-2.042 3.794-2.042h.88l-.147-5.258h-.847c-3.465 0-6.192 1.566-8.106 4.65-1.216 1.986-1.665 4.17-1.26 6.155.408 2.003 1.663 3.738 3.538 4.884 1.38.85 2.738 1.265 4.17 1.265 2.068 0 4.147-.823 6.936-2.746l1.682-1.152c1.39-.94 2.596-1.758 3.76-1.758.512 0 1.017.16 1.54.477.59.364.966.88 1.12 1.504.226.97-.07 2.183-.842 3.43-1.312 2.128-3.232 3.126-5.658 2.945l-.7-.058-.487 5.388.727.057h.818c4.056 0 7.52-2.014 9.765-5.655 1.682-2.717 2.273-5.388 1.722-7.742-.466-1.934-1.71-3.567-3.613-4.736"/><path d="M147.31 363.186l4.358 3.806 4.545-2.223 7.85 6.844-1.63 4.793 4.51 3.93 9.7-30.008-.86-.733-28.472 13.59zm18.84 2.275l-.308.908-4.618-4.05.852-.413 6.334-3.103-2.26 6.66z"/><path d="M319.374 363.952l4.04 31.25 4.975-2.943-.7-5.01 8.965-5.308 4.056 3.04 5.154-3.04-25.524-18.58-.966.59zm12.09 14.094l.766.58-5.3 3.112-.13-.94-.978-6.977 5.64 4.226z"/><path d="M157.082 184.353l-2.37-4.475 6.608-8.036 4.846 1.468 3.8-4.616-30.352-8.74-.705.877 14.503 27.992 3.67-4.47zm-8.725-16.453l6.748 2.047.915.284-3.914 4.737-3.75-7.067z"/></g></g><g><path d="M315.127 184.374c-14.54-11.653-27.72 2.916-27.72 11.248 14.524 3.107 27.52 17.67 21.712 55.5-4.754 30.94-22.984 50.203-34.43 50.587 9.49-13.043 15.882-27.744 19.344-42.107 10.428-42.96-6.252-56.807-19.448-57.442-16.038-.825-32.12 21.058-36.592 46.882-3.55 20.458-3.085 41.36 9.33 56.682-11.006 13.875-37.398 18.178-32.77-15.307 3.882-28.002 17.772-58.904 25.484-74.078l.23-.407c4.117-8.48 7.402-14.48 8.796-16.88l-3.107-.073c-30.01.517-53.944 7.47-65.05 22.702-10.444 14.267-10.747 29.3-2.134 38.172l1.27 1.284c2.53 2.525 5.83 3.838 9.13 3.838 2.988 0 5.985-1.1 8.258-3.38 2.29-2.258 3.418-5.307 3.418-8.303 0-3.306-1.33-6.606-3.845-9.137-1.373-1.32-2.9-2.332-4.532-2.982l.075-.088.775-1.602c2.03-3.535 5.565-6.768 10.14-9.056 3.624-1.808 7.846-3.063 12.437-3.52l-.7 1.513c-6.37 11.846-15.678 34.364-18.637 46.077-9.145 36.71 5.668 58.195 21.684 61.206 19.292 3.61 34.075-5.757 41.906-17.846 9.32 5.934 33.957 9.336 52.482-23.698 21.308-38.033 22.09-94.117 2.517-109.823M260.62 293.044c-3.646-8.908-5.32-19.396-5.32-29.367 0-12.03 2.405-23.21 6.553-29.787 2.708-4.333 5.985-6.42 9.63-6.178 1.308.074 2.784.524 3.846 3.04.85 2.038 1.227 4.747 1.227 7.883 0 15.684-9.366 42.438-15.935 54.41" fill="#14225A"/><path d="M312.95 187.098c-4.65-3.72-9.455-4.57-13.905-2.406-3.742 1.8-6.57 5.38-7.66 8.435 8.974 3.034 22.62 12.333 22.62 40.955 0 5.225-.465 11.04-1.483 17.587-4.458 29.182-20.68 49.02-33.67 52.836-3.838 1.13-7.307.812-10.148-.745 12.864-15.853 19.034-32.894 21.957-44.998 2.28-9.403 3.204-17.123 3.204-23.44 0-11.278-2.87-18.134-5.912-22.216-4.62-6.155-10.458-7.336-13.558-7.498-13.632-.664-28.725 19.514-32.96 44.024-1.226 7.085-1.876 13.632-1.876 19.618 0 15.38 4.067 27.322 12.178 36.193-6.008 9.44-18.244 15.89-27.935 13.684-4.28-.967-13.247-4.967-13.247-21.44 0-2.34.177-4.894.568-7.728 3.53-25.264 15.095-53.236 23.265-70.13l.2-.362c3.55-7.432 6.597-13.3 8.634-16.88h-.547c-29.182.983-49.538 8.267-58.977 21.16 0 0-7.875 10.09-7.602 20.327.155 5.948 2.243 11.196 6.782 14.87l.59.466c3.544 2.776 8.46 2.717 11.455-.316 3.286-3.306 3.072-8.842-.44-12.377-1.832-1.83-4.17-2.782-6.474-2.812h-.074c2.074-11.713 15.55-20.77 31.847-20.77l2.146.075-.302.59-3.388 6.333c-6.037 11.21-15.358 33.41-18.31 45.242-4.628 18.533-3.285 34.807 3.756 45.803 3.904 6.104 9.307 10.045 15.16 11.152 12.908 2.42 22.325-1.69 27.964-5.557 4.694-3.225 9.292-8.266 12.517-13.602 3.845 2.495 10.318 5.167 15.75 5.093 9.218-.133 22.702-4.716 34.49-25.75 9.83-17.544 15.734-40.017 16.14-61.642.428-20.672-4.354-37.012-12.753-43.765m-41.28 37.19c20.592 1.284-2.62 65.605-11.58 75.893-14.723-26.643-9.225-77.207 11.58-75.893" fill="#BA122B"/></g></g></svg>