<?xml version="1.0" encoding="UTF-8" standalone="no"?>
<svg width="512px" height="512px" viewBox="0 0 512 512" version="1.1" xmlns="http://www.w3.org/2000/svg" xmlns:xlink="http://www.w3.org/1999/xlink" xmlns:sketch="http://www.bohemiancoding.com/sketch/ns">
    <!-- Generator: Sketch 3.3.1 (12002) - http://www.bohemiancoding.com/sketch -->
    <title>arizona-coyotes</title>
    <desc>Created with Sketch.</desc>
    <defs></defs>
    <g id="NHL" stroke="none" stroke-width="1" fill="none" fill-rule="evenodd" sketch:type="MSPage">
        <g id="arizona-coyotes" sketch:type="MSArtboardGroup">
            <g sketch:type="MSLayerGroup" transform="translate(77.000000, 71.000000)" id="Group">
                <g sketch:type="MSShapeGroup">
                    <path d="M351.471855,176.383745 L342.364785,172.318798 C342.59505,170.561899 342.739635,168.384058 342.61647,165.908346 C342.204135,157.62149 338.937585,149.825139 333.179175,143.364745 L323.80257,132.850106 L324.21312,146.703745 C324.1917,147.001615 324.02748,148.744245 322.98504,151.410808 C322.133595,153.590433 320.54316,156.759986 317.61576,160.439663 L315.56658,159.401577 L310.4829,146.207889 L331.56375,102.041053 L333.179175,109.733952 L339.92469,98.773399 C340.09962,98.4915817 341.65971,95.8910144 342.97347,91.4889567 C344.546055,86.2253942 345.135105,80.4588413 344.695995,74.7208269 L349.29594,65.347726 L349.90641,64.1063029 L349.808235,62.7275385 C349.78146,62.3654567 347.241405,26.5068798 346.941525,20.4763462 C346.79337,17.5226154 344.11944,12.9207885 340.43877,9.28570192 C336.899115,5.78974038 330.865815,1.623125 322.2282,1.623125 C319.024125,1.623125 315.950355,2.14573558 313.09257,3.18025481 C310.963065,3.94900962 309.385125,4.86402404 308.681835,5.41517308 C307.999965,5.94848558 299.76933,12.3179135 288.375675,21.1327308 C255.042585,46.9243654 222.29319,72.2683029 214.797975,78.1258221 C214.61769,78.1258221 214.430265,78.1240385 214.230345,78.1240385 C211.106595,78.1240385 204.60741,78.3184567 196.187565,79.6240913 C186.38613,81.1437644 176.834595,83.6997404 167.80071,87.2224567 C156.01257,91.8207163 145.240095,98.0278317 135.78138,105.676139 C124.60014,114.717481 115.16463,125.851048 107.726535,138.778971 L4.38753,221.754548 L0.426615,224.934803 L3.57,228.923053 C3.939495,229.392154 4.43751,230.075293 5.017635,230.867236 C8.202075,235.226486 14.128275,243.340327 23.50845,250.350087 C35.10381,259.015077 48.468105,263.408216 63.23184,263.408216 C67.28736,263.408216 71.49996,263.072889 75.75183,262.405803 L75.828585,262.393317 L75.90534,262.377264 L95.877705,258.628024 C96.58278,261.381986 97.619865,265.199005 99.026445,269.807966 C103.21227,283.522481 111.01629,303.770519 124.416285,322.356192 C131.849025,332.663928 140.284935,341.455558 149.48661,348.48137 C160.25373,356.702231 172.250715,362.645365 185.14377,366.144894 L197.072925,369.382226 L190.94502,358.653548 C190.875405,358.528692 183.65151,345.747029 178.7142,328.516933 C175.345905,316.764437 172.5381,301.02726 175.174545,285.896524 C177.020235,290.412736 179.35323,295.565712 182.18067,300.782899 C187.00017,309.674413 192.26949,316.916048 197.84583,322.300899 C205.22502,329.42838 213.19326,333.375606 221.52921,334.03199 L234.20985,335.03262 L225.80607,325.556067 C225.572235,325.277817 219.574635,318.086125 216.058185,305.675462 C212.05086,291.53287 212.677395,276.551962 217.9128,261.027038 C219.43362,262.958736 221.24718,265.063447 223.34991,267.168159 C227.64105,271.463197 232.269555,274.903865 237.103335,277.390279 C243.286575,280.570534 249.798255,282.190091 256.46166,282.202577 L267.084195,282.225764 L260.49933,273.896101 C258.751815,271.686154 257.277405,268.768096 255.60843,265.068798 C249.876795,252.387019 248.380965,237.607663 251.408325,224.767139 L306.361335,226.868284 L307.500165,226.911091 L308.54796,226.470529 L335.03022,215.344096 L336.670635,214.653822 L337.531005,213.094909 L353.867325,183.541548 L356.56803,178.657904 L351.471855,176.383745 L351.471855,176.383745 Z" id="Shape" fill="#FFFFFF"></path>
                    <path d="M7.6041,225.746365 C12.83058,232.379774 31.71588,264.103841 74.95929,257.334875 L99.72795,252.686673 C99.72795,252.686673 101.02743,258.779635 103.935195,268.309697 C112.028385,294.818361 134.04636,346.963481 186.48966,361.195255 C186.48966,361.195255 156.656955,308.957385 174.8586,269.608197 C174.8586,269.608197 190.732605,326.46038 221.93619,328.921822 C221.93619,328.921822 195.25044,298.358913 216.700785,250.052216 C216.700785,250.052216 230.86476,277.026413 256.47237,277.076356 C254.342865,274.383038 252.657825,271.006582 250.929945,267.178861 C245.20545,254.507784 242.14239,236.583846 247.5438,219.489308 L306.561255,221.747413 L333.04173,210.619197 L349.37805,181.065837 L336.513555,175.322471 C336.513555,175.322471 341.50977,160.41826 329.34678,146.776875 C329.34678,146.776875 329.295015,155.648769 318.877755,166.826928 L311.487855,163.083038 L304.901205,145.990284 L332.475885,88.2141683 C332.475885,88.2141683 334.914195,93.033601 335.556795,96.0854327 C335.556795,96.0854327 340.92786,87.3580144 339.45702,73.7523029 L344.692425,63.0860529 C344.692425,63.0860529 342.125595,26.8832308 341.818575,20.729625 C341.711475,18.5731875 335.164095,6.7475625 322.23177,6.7475625 C316.025325,6.7475625 312.187575,9.18225 311.85021,9.44801442 C309.488655,11.2940962 219.339015,81.0010721 216.525855,83.2912837 C210.239085,82.9844952 145.372185,82.5742548 111.707085,142.160779 L7.6041,225.746365 L7.6041,225.746365 Z" id="Shape" fill="#000000"></path>
                    <path d="M62.712405,243.524043 C68.25483,242.293322 56.964705,238.396038 54.929805,227.86713 C57.99108,230.260793 69.8292,234.703875 72.497775,232.515332 C74.49876,230.515856 68.187,223.796832 70.6503,208.721389 C73.20642,193.075178 82.04217,190.567361 77.62965,188.00425 C72.70305,187.183769 26.926725,224.925885 26.926725,224.925885 L34.11135,236.822856 C34.109565,236.822856 58.196355,245.780365 62.712405,243.524043 L62.712405,243.524043 Z" id="Shape" fill="#EFE1C6"></path>
                    <path d="M315.05607,209.490144 L329.70735,203.354375 L325.446555,193.440827 L315.05607,209.490144 L315.05607,209.490144 Z" id="Shape" fill="#8E0028"></path>
                    <path d="M205.515975,257.814678 C205.17504,260.071 208.18455,261.301721 209.278755,258.702937 C210.37296,256.104154 216.393765,238.875841 218.721405,238.670721 C219.610335,238.59224 220.699185,243.586471 223.783665,248.653832 C228.77274,256.84437 238.22253,266.704409 243.49185,266.704409 C245.82663,266.704409 246.210405,266.386918 246.210405,266.386918 L240.487695,257.927048 L223.783665,211.593072 L213.519915,226.977087 L205.515975,257.814678 L205.515975,257.814678 Z" id="Shape" fill="#8E0028"></path>
                    <path d="M183.20883,225.746365 C183.20883,225.746365 205.908675,310.400361 204.43962,308.673784 C180.44208,280.467082 179.37822,249.197846 179.37822,249.197846 C179.37822,249.197846 163.886205,267.569481 163.439955,298.15201 L157.92609,297.741769 L169.38936,251.386389 L183.20883,225.746365 L183.20883,225.746365 Z" id="Shape" fill="#8E0028"></path>
                    <path d="M331.297785,176.774365 C331.297785,176.774365 334.78746,164.672274 330.88902,156.0055 C328.73274,163.493279 324.32022,168.312712 320.598495,171.646361 L307.332375,165.210938 L334.221615,182.603346 L318.00489,186.431067 L303.15726,181.097942 C303.15726,181.097942 306.06681,165.371466 302.25048,159.927755 C302.03985,161.133505 301.1295,162.913591 300.635055,164.106856 C297.76299,171.031 291.55119,176.695885 291.55119,176.695885 L277.22478,171.525072 L265.456275,140.689264 L308.49441,71.2212981 C308.49441,71.2212981 313.24965,76.0068413 315.60942,81.8179856 C318.48327,72.8622596 314.30994,61.6484279 314.30994,61.6484279 L319.441815,53.3740577 L331.92789,44.3148798 L334.21983,55.6999423 L313.69233,112.586014 L329.97867,77.5104615 C329.97867,77.5104615 330.772995,78.229274 331.893975,79.8363462 C333.06315,81.5147644 334.578615,84.1313846 335.38365,86.262851 C337.298955,81.4077452 334.63038,68.3496154 334.63038,68.3496154 L339.351705,59.6650048 L333.604005,38.4698462 L311.79309,53.5203173 L247.492035,126.824923 C247.492035,126.824923 232.915725,132.463053 222.80727,140.10601 C220.64742,141.739837 218.79102,143.566298 217.21308,145.337466 C217.21308,145.337466 234.183075,148.551611 235.689615,159.901 C235.689615,159.901 230.20074,163.113361 222.07185,169.233077 C192.481905,191.518048 126.71358,250.339385 152.62107,314.834524 C157.338825,326.579885 165.16605,338.330596 176.741775,350.286428 C176.741775,350.286428 144.069135,295.007428 183.34449,232.256702 C183.35877,233.713947 183.221325,291.356288 209.107395,313.808923 C190.59873,270.118322 222.773355,218.069519 222.773355,218.069519 C216.907845,244.922428 246.210405,266.383351 246.210405,266.383351 C232.47483,237.436433 244.20942,210.669139 244.20942,210.669139 L306.521985,213.148418 L315.054285,209.488361 L325.771425,198.943399 L329.705565,203.352591 L341.765025,181.593798 L331.297785,176.774365 L331.297785,176.774365 Z M256.28673,139.938346 L275.855685,115.871505 L261.81309,139.802788 L273.392385,171.391298 L256.28673,139.938346 L256.28673,139.938346 Z" id="Shape" fill="#EFE1C6"></path>
                    <path d="M337.045485,24.5252404 C335.146245,26.8832308 332.30631,36.729 332.30631,36.729 C332.30631,36.729 332.01714,28.5759183 328.16868,23.4479135 C324.55227,18.6320481 320.059425,22.8325529 316.928535,18.3716346 C315.49518,16.3311346 315.543375,13.3470817 315.543375,13.3470817 L306.818295,19.9109279 C306.818295,19.9109279 304.458525,29.3464567 304.972605,40.9348558 C304.972605,40.9348558 299.7372,36.8324519 296.75982,28.7310962 C296.75982,28.7310962 294.708855,33.4488606 294.605325,50.8840769 C294.605325,50.8840769 288.95937,45.7560721 285.67497,37.4478125 C285.67497,37.4478125 283.10814,48.3191827 283.416945,61.5503269 C283.416945,61.5503269 278.490345,57.8581635 273.460215,46.7816731 C273.460215,46.7816731 270.996915,59.7042452 271.20219,73.3456298 C271.20219,73.3456298 263.196465,66.0647548 260.11734,56.2172019 C260.11734,56.2172019 221.780895,85.5493894 219.11232,87.6005913 C216.44553,89.6517933 199.868235,107.70237 195.659205,127.138846 C195.659205,127.138846 195.19689,117.549923 196.54992,108.421183 C196.54992,108.421183 180.222525,120.027418 171.05298,130.010529 C171.05298,130.010529 170.822715,117.71937 177.64677,107.447308 C177.64677,107.447308 175.22274,109.006221 172.1811,111.396317 C170.26401,112.903505 168.405825,114.581923 165.7908,116.907808 C159.222,122.752841 151.148445,130.361909 146.136165,135.497048 C146.136165,135.497048 159.837825,109.651904 180.70626,94.9171394 C180.70626,94.9171394 127.09557,106.848 108.3138,165.803111 C107.79972,165.239476 109.23843,152.213452 109.23843,152.213452 L17.480505,224.997231 C38.418555,253.851399 72.904755,249.884553 76.73715,249.201413 C88.13973,247.166264 123.659445,241.59413 123.659445,241.59413 C123.659445,241.59413 117.85998,226.927144 119.09163,217.236553 C119.09163,217.236553 122.991855,236.157553 136.40256,247.90113 L107.116065,251.935755 C107.116065,251.935755 108.6708,257.907428 111.289395,266.720462 C117.901035,288.976894 134.808555,330.873139 176.738205,350.291779 C176.738205,350.291779 173.19855,346.621019 168.098805,340.53876 C153.672435,323.331851 129.014445,284.046875 154.19187,232.517115 C134.07492,237.304442 131.063625,223.629168 131.063625,223.629168 C157.88682,242.362885 216.49194,164.110423 202.174455,145.547938 C202.174455,145.547938 226.653945,125.703005 244.000575,123.241563 L311.79309,53.5256683 L332.30274,42.0995817 L339.34992,59.6721394 L337.045485,24.5252404 L337.045485,24.5252404 Z M73.932915,242.157764 C71.505315,242.632216 67.79073,242.848038 66.407355,242.840904 C57.739395,242.798096 37.718835,239.835447 30.211125,226.705971 L101.78427,169.340096 C52.92882,217.473779 106.230705,233.132476 113.006565,235.388798 C113.00478,235.388798 81.836895,240.618471 73.932915,242.157764 L73.932915,242.157764 Z" id="Shape" fill="#8E0028"></path>
                    <path d="M292.75785,142.877808 L301.788165,129.648447 L296.86335,142.98126 L301.68642,155.390139 L292.75785,142.877808 Z" id="Shape" fill="#8E0028"></path>
                    <path d="M184.192365,102.214067 C184.192365,102.214067 191.111025,100.52138 200.82678,100.983346 C201.485445,99.0338125 198.354555,98.6235721 195.891255,98.6235721 C199.81647,95.8036154 206.026485,93.8540817 206.026485,93.8540817 L209.41263,89.8551298 C199.254195,90.6756106 184.192365,102.214067 184.192365,102.214067 L184.192365,102.214067 Z" id="Shape" fill="#EFE1C6"></path>
                </g>
            </g>
        </g>
    </g>
</svg>