<?xml version="1.0" encoding="UTF-8" standalone="no"?>
<svg width="512px" height="512px" viewBox="0 0 512 512" version="1.1" xmlns="http://www.w3.org/2000/svg" xmlns:xlink="http://www.w3.org/1999/xlink" xmlns:sketch="http://www.bohemiancoding.com/sketch/ns">
    <!-- Generator: Sketch 3.3.1 (12002) - http://www.bohemiancoding.com/sketch -->
    <title>carolina-hurricanes</title>
    <desc>Created with Sketch.</desc>
    <defs></defs>
    <g id="NHL" stroke="none" stroke-width="1" fill="none" fill-rule="evenodd" sketch:type="MSPage">
        <g id="carolina-hurricanes" sketch:type="MSArtboardGroup">
            <g sketch:type="MSLayerGroup" transform="translate(55.000000, 130.000000)">
                <g id="Layer_7"></g>
                <g id="Layer_6" transform="translate(10.429185, 10.427586)" sketch:type="MSShapeGroup">
                    <g id="Layer_2">
                        <g id="Group">
                            <path d="M99.8959442,229.459034 C83.3343991,229.459034 68.5666738,228.312 55.9977682,226.042262 L49.8775751,224.940414 L55.0869528,221.546234 L66.6685622,213.9984 C59.922618,213.223283 49.4830043,211.31851 38.9425751,206.64869 C22.662618,199.4328 3.25738197,184.050372 3.25738197,151.749186 C3.25738197,128.594731 13.0190987,106.809766 32.2783262,86.9956138 C49.260515,69.5207172 73.2389485,53.9123586 103.544421,40.5998069 C156.489914,17.3445517 226.087339,2.89886897 285.172146,2.89886897 C302.329893,2.89886897 317.655579,4.13975172 330.725086,6.59023448 L336.81573,7.73205517 L331.611567,11.0932138 L320.061245,18.5472 C326.72897,19.428331 337.095579,21.496469 347.563004,26.3244414 C363.65176,33.7454069 382.832768,49.2929379 382.832768,81.2083034 C382.758026,104.540028 372.839871,126.410152 353.35294,146.217352 C336.209099,163.636634 312.025558,179.168524 281.473262,192.364634 C228.508648,215.246234 158.930343,229.459034 99.8959442,229.459034 L99.8959442,229.459034 L99.8959442,229.459034 Z" id="Shape" fill="#FFFFFF"></path>
                            <path d="M285.172146,5.36846897 C301.923155,5.36846897 317.247103,6.57633103 330.271416,9.01812414 L312.693026,20.3633379 C312.693026,20.3633379 380.364528,21.9518069 380.364528,81.2048276 C380.056867,177.199448 207.838004,226.991172 99.894206,226.991172 C83.694206,226.991172 68.9403863,225.868469 56.435794,223.614372 L74.1619313,212.064083 C74.1619313,212.064083 5.72562232,211.713021 5.72562232,151.750924 C5.72388412,56.5557517 176.077661,5.36846897 285.172146,5.36846897 L285.172146,5.36846897 Z M285.172146,0.431006897 C225.764034,0.431006897 155.789421,14.9566345 102.55191,38.3404966 C71.9526824,51.7816552 47.7135193,67.5742345 30.5053648,85.2768 C10.7837768,105.565407 0.785665236,127.929103 0.785665236,151.749186 C0.785665236,178.3656 13.6326824,198.13109 37.9413734,208.904524 C45.7597854,212.371697 53.5330043,214.354676 59.8617811,215.487807 L53.7381116,219.476359 L43.3193562,226.266455 L55.5580043,228.475366 C68.2729185,230.769434 83.1901288,231.928634 99.894206,231.928634 C159.246695,231.928634 229.196974,217.63589 282.451867,194.629159 C313.297918,181.302703 337.743927,165.597021 355.111996,147.946593 C375.06824,127.664938 385.226266,105.214345 385.302747,81.2222069 C385.302747,54.909931 372.608691,35.1566069 348.595494,24.0807724 C340.806631,20.486731 333.059485,18.3820966 326.772425,17.1516414 L332.949979,13.1683034 L343.360043,6.44946207 L331.178755,4.16755862 C317.961502,1.6857931 302.482854,0.431006897 285.172146,0.431006897 L285.172146,0.431006897 L285.172146,0.431006897 Z" id="Shape" fill="#8E8E91"></path>
                        </g>
                    </g>
                    <g id="Layer_3" transform="translate(13.905579, 12.165517)" fill="#231F20">
                        <path d="M291.669528,2.02642759 C291.669528,2.02642759 282.968112,0.615227586 266.272725,0.615227586 C177.932318,0.615227586 1.34362661,46.6738759 1.34362661,137.821407 C1.34362661,187.552303 50.378176,193.548166 77.1898712,193.548166 C123.519785,193.548166 178.787511,176.090648 201.010365,163.568855 C201.010365,163.568855 118.110515,196.487007 48.0263948,172.736441 C61.798133,174.945352 93.4159442,170.619641 105.894464,165.331117 C105.894464,165.331117 71.015794,159.571614 71.015794,123.711145 C71.015794,34.2007448 269.451888,2.02642759 291.669528,2.02642759 L291.669528,2.02642759 Z" id="Shape"></path>
                        <path d="M96.4143348,126.709076 C105.645901,109.955421 105.880558,99.3748966 116.464442,86.9121931 C134.828498,66.0518069 192.896459,50.2592276 224.469077,50.2592276 C256.340665,50.2592276 267.508584,70.8276414 267.684142,83.7960828 C267.684142,120.595034 190.937511,150.574345 191.07309,150.574345 C265.095966,100.784359 262.511266,72.3031448 219.840258,72.3031448 C184.561803,72.3048828 119.167339,95.4940966 96.4143348,126.709076 L96.4143348,126.709076 Z" id="Shape"></path>
                    </g>
                    <g id="Layer_4" transform="translate(79.957082, 26.068966)" fill="#E13A3E">
                        <path d="M0.670944206,192.342041 C0.670944206,192.342041 9.37236052,193.754979 26.069485,193.754979 C114.409893,193.754979 291.000322,147.692855 291.000322,56.5505379 C291.000322,6.81790345 241.965773,0.822041379 215.152339,0.822041379 C168.822425,0.822041379 113.556438,18.2830345 91.3318455,30.8013517 C91.3318455,30.8013517 174.233433,-2.11853793 244.315815,21.6320276 C230.542339,19.4265931 198.926266,23.7470897 186.447747,29.0390897 C186.447747,29.0390897 221.326416,34.7985931 221.326416,70.6590621 C221.328155,160.167724 22.8903219,192.342041 0.670944206,192.342041 L0.670944206,192.342041 Z" id="Shape"></path>
                    </g>
                    <g id="Layer_5" transform="translate(112.982833, 86.896552)">
                        <path d="M151.379614,10.5944276 C146.092017,-4.11715862 104.896738,-2.25757241 66.3921888,11.063669 C25.0091845,25.9334069 -4.27422747,49.5362483 1.0151073,64.2460966 C6.30270386,78.9594207 47.49103,77.7880552 85.5175751,63.9628138 C126.898841,49.0948138 156.665472,25.3060138 151.379614,10.5944276 L151.379614,10.5944276 Z" id="Shape" fill="#E13A3E"></path>
                        <path d="M77.4861484,48.1291807 C94.6435709,42.328377 107.023007,32.9780557 105.136394,27.2446536 C103.24978,21.5112515 87.8115383,21.5658913 70.6541158,27.366695 C53.4966933,33.1674987 41.1172568,42.5178199 43.0038705,48.2512221 C44.8904842,53.9846242 60.3287259,53.9299844 77.4861484,48.1291807 L77.4861484,48.1291807 Z" id="Oval" fill="#231F20"></path>
                    </g>
                </g>
            </g>
        </g>
    </g>
</svg>