<?xml version="1.0" encoding="UTF-8" standalone="no"?>
<svg width="512px" height="512px" viewBox="0 0 512 512" version="1.1" xmlns="http://www.w3.org/2000/svg" xmlns:xlink="http://www.w3.org/1999/xlink" xmlns:sketch="http://www.bohemiancoding.com/sketch/ns">
    <!-- Generator: Sketch 3.3.1 (12002) - http://www.bohemiancoding.com/sketch -->
    <title>columbus-blue-jackets</title>
    <desc>Created with Sketch.</desc>
    <defs></defs>
    <g id="NHL" stroke="none" stroke-width="1" fill="none" fill-rule="evenodd" sketch:type="MSPage">
        <g id="columbus-blue-jackets" sketch:type="MSArtboardGroup">
            <g sketch:type="MSLayerGroup" transform="translate(65.000000, 91.000000)">
                <g id="Layer_9" transform="translate(0.062134, 0.111602)"></g>
                <g id="Layer_8" transform="translate(8.939618, 7.720797)" sketch:type="MSShapeGroup">
                    <g id="Silver_BG" fill="#A7B1B7">
                        <path d="M185.912258,1.1565977 L169.453404,35.5983525 C144.968036,37.8481379 109.493613,46.932249 77.7895828,63.7168659 C36.4813841,85.5831571 1.20606954,121.22336 1.20606954,164.046644 C1.20606954,225.176383 59.8050695,242.061188 65.8240033,245.292559 L38.8745,311.757613 L110.022457,255.453372 C148.402354,260.925651 197.645755,258.182536 222.978288,253.712134 L300.818599,322.099778 L274.254632,242.12967 C274.254632,242.12967 293.492139,235.627613 300.211126,231.882621 L372.404089,65.6813065 C313.541301,100.090088 260.573162,120.410444 260.573162,120.410444 L363.191798,44.0749962 L298.381096,55.1057931 C298.381096,55.1057931 262.060775,31.2737931 196.901315,33.2356973 L185.912258,1.1565977 L185.912258,1.1565977 Z" id="path7"></path>
                    </g>
                    <g id="Blue_BG" transform="translate(6.341060, 16.486590)" fill="#00285D">
                        <path d="M352.718904,64.2304866 C299.005056,94.1688659 262.054434,109.358088 224.00554,123.227115 L221.767146,116.571605 L337.849119,35.9509119 L208.932841,68.9557969 L280.939377,39.8759885 C280.939377,39.8759885 246.238563,20.0679847 185.971864,23.0748851 L178.561702,1.08304215 L138.403772,84.4405096 L77.4661887,101.709579 L133.849623,78.5903065 L159.868258,25.512364 C152.629305,26.6385249 144.918576,27.9460383 137.049321,29.7544904 C60.3174272,47.390069 1.01203311,96.0140958 1.01203311,147.128866 C1.01203311,201.256877 48.7399205,218.428295 67.892457,225.031808 L42.7197185,280.330368 L101.827272,232.34805 C142.468391,238.443015 191.746033,236.20718 218.737387,230.722218 L284.241801,288.989632 L259.704437,221.464364 C259.704437,221.464364 274.212781,217.785318 289.08003,210.808954 L352.718904,64.2304866 L352.718904,64.2304866 Z M106.135387,142.247567 C86.4971258,139.633808 80.4908742,132.848943 80.4908742,127.394418 C80.4908742,125.361494 81.4559834,123.025471 81.4559834,123.025471 L111.123265,131.305544 L106.135387,142.247567 L106.135387,142.247567 Z" id="path10"></path>
                    </g>
                    <g id="Red" transform="translate(16.486755, 44.386973)" fill="#E13A3E">
                        <path d="M278.326861,77.0215441 C211.370344,111.78669 152.846169,125.536506 115.321046,125.536506 C65.6705497,125.536506 43.4197715,101.863031 43.4197715,86.9616897 C43.4197715,51.4432337 96.456394,23.6848889 142.35552,12.6401418 L146.130987,4.93709962 C107.705434,11.973069 64.3275132,27.9371609 39.5250927,50.6214406 C15.344096,66.8772184 0.150917219,91.1505517 0.150917219,119.113077 C0.150917219,160.262337 34.2772318,198.824471 139.841924,198.824471 C207.101543,198.824471 253.637311,184.531866 269.41894,176.608157 C203.241106,176.202333 135.575659,156.490713 135.575659,156.490713 C135.575659,156.490713 221.734172,123.369153 278.326861,77.0215441 L278.326861,77.0215441 Z" id="Banner"></path>
                        <path d="M180.050583,7.4544751 C180.058192,7.4544751 180.06707,7.4532069 180.075947,7.4532069 C186.934437,6.88885824 193.851265,6.59590421 200.769361,6.59590421 C230.065056,6.59590421 249.572692,11.3288238 249.572692,11.3288238 C249.572692,11.3288238 228.742311,0.905494253 186.172242,0.905494253 C183.56353,0.905494253 180.86097,0.973977011 178.078513,1.10713793 L180.050583,7.4544751 L180.050583,7.4544751 Z" id="Banner_Tip"></path>
                    </g>
                    <g id="White" transform="translate(16.486755, 93.846743)" fill="#FFFFFF">
                        <path d="M180.502066,117.488513 L180.502066,117.488513 C180.502066,117.488513 156.655877,121.255065 127.394424,121.255065 C11.9858709,121.255065 3.97964901,63.1487126 3.97964901,45.9202261 C1.49522185,53.3899195 0.167403974,61.2895326 0.15218543,69.5087318 C0.223205298,70.7160575 4.66575166,136.903375 132.221238,136.903375 C184.614877,136.903375 228.302242,124.715981 228.302242,124.715981 L228.302242,124.715981 C210.940421,122.868215 194.543709,120.197387 180.502066,117.488513 L180.502066,117.488513 Z" id="Low_Stripe"></path>
                        <path d="M227.987725,62.0009923 C227.701109,62.1138621 157.72498,89.7606054 109.224752,89.7606054 C53.4285,89.7606054 28.0439702,57.931341 28.0439702,32.9300613 C28.0439702,15.5899732 39.5250927,1.1629387 39.5250927,1.1629387 C39.1535066,1.41404215 38.7819205,1.66641379 38.4141391,1.92005364 C38.2556126,2.03926437 18.1214801,17.3121877 18.1214801,41.3344176 C18.1214801,80.4317318 56.6535629,101.885858 101.536851,101.885858 C127.005083,101.885858 152.643255,97.4154559 167.694394,93.2506897 C184.527371,85.5184789 206.147848,74.8415096 227.987725,62.0009923 L227.987725,62.0009923 Z" id="Top_Stripe"></path>
                    </g>
                    <g id="Star" transform="translate(69.751656, 46.923372)">
                        <g id="Grey" fill="#A7B1B7">
                            <path d="M176.206632,209.491295 L176.206632,209.491295 L198.03256,226.651299 L186.929364,197.191031 C175.992305,199.940487 176.206632,209.491295 176.206632,209.491295 L176.206632,209.491295 Z" id="path20"></path>
                            <path d="M55.3714007,112.80759 C57.3168377,112.872268 59.3497815,112.907778 61.4791093,112.907778 C93.3213742,112.907778 130.594123,102.514885 149.040265,96.6684866 L143.557785,82.1222414 L223.943397,29.3905172 L129.528825,52.3018046 L112.917785,0.230812261 L86.5250265,63.1601264 L14.7429636,81.2839617 L65.0364437,93.5017931 L55.3714007,112.80759 L55.3714007,112.80759 Z" id="path22"></path>
                            <path d="M12.8558642,197.738893 L12.8558642,197.738893 L0.925794702,221.570893 L23.1791093,204.876318 C23.1791093,204.873782 20.9901755,197.693238 12.8558642,197.738893 L12.8558642,197.738893 Z" id="path24"></path>
                        </g>
                        <g id="White_1_" transform="translate(5.072848, 8.877395)" fill="#FFFFFF">
                            <path d="M107.818305,0.237153257 L120.771821,44.4922337 L94.200245,61.6598467 L107.818305,0.237153257 Z" id="polygon27"></path>
                            <path d="M24.2672351,71.2981609 L82.7901424,55.3974789 L94.200245,61.6598467 L24.2672351,71.2981609 Z" id="polygon29"></path>
                            <g id="g31" transform="translate(0.000000, 60.873563)">
                                <path d="M9.59275497,128.109682 L0.627764901,145.672973 L11.6548675,128.59667 C11.0271026,128.37854 10.3397318,128.212406 9.59275497,128.109682 L9.59275497,128.109682 Z" id="path33"></path>
                                <path d="M56.4075298,43.1568199 C59.9065265,43.1568199 63.470202,43.03 67.066851,42.7991877 L94.200245,0.785015326 L62.6686921,24.131295 L52.9732119,43.1251149 C54.0905066,43.1454061 55.2344338,43.1568199 56.4075298,43.1568199 L56.4075298,43.1568199 Z" id="path35"></path>
                            </g>
                            <g id="g37" transform="translate(93.847682, 60.873563)">
                                <path d="M92.560447,147.908808 L81.6829934,130.553502 C79.5777616,132.346736 78.4807583,134.46336 77.9075265,136.213475 L92.560447,147.908808 L92.560447,147.908808 Z" id="path39"></path>
                                <path d="M21.7117881,34.8666015 L0.352562914,0.786283525 L0.352562914,39.3902682 C7.77413907,38.065 14.9915331,36.4987739 21.7117881,34.8666015 L21.7117881,34.8666015 Z" id="path41"></path>
                            </g>
                            <path d="M94.200245,61.6598467 L136.368291,70.6044559 L204.289917,28.3366437 L94.200245,61.6598467 Z" id="polygon43"></path>
                        </g>
                    </g>
                    <g id="Stars" transform="translate(182.622517, 116.674330)" fill="#FFFFFF">
                        <path d="M6.68854967,75.4667318 L4.18890397,78.4875824 L0.223205298,78.9847165 L2.83952649,80.2389655 L0.405827815,83.4652644 L4.57570861,81.3207395 L7.41143046,83.4170728 L6.93838742,80.063954 L10.6364934,77.9042107 L6.79381126,78.2922797 L6.68854967,75.4667318 Z" id="polygon46"></path>
                        <path d="M28.1137219,80.140046 L25.8778642,82.7804368 L22.0935199,83.1875287 L24.4549305,84.5597203 L22.0935199,87.4550192 L25.9133742,85.5869617 L28.6222748,87.6072031 L28.2747848,84.3327126 L31.872702,82.4012452 L28.1302086,82.5597701 L28.1137219,80.140046 Z" id="polygon48"></path>
                        <path d="M36.2264735,61.2946054 L33.6177616,64.6109464 L29.6875728,65.0015517 L32.2176556,66.4599808 L29.7738113,69.6241379 L33.955106,67.4225441 L36.8859437,69.6076513 L36.3596358,66.0681073 L40.1198841,63.9514828 L36.2924205,64.2736054 L36.2264735,61.2946054 Z" id="polygon50"></path>
                        <path d="M57.7353477,63.7701303 L55.3143311,66.8467816 L51.6720265,67.2082184 L54.0182185,68.561387 L51.7493874,71.4947318 L55.6275795,69.4541992 L58.3453576,71.4795134 L57.8596325,68.1974138 L61.345947,66.2342414 L57.7962219,66.5322682 L57.7353477,63.7701303 Z" id="polygon52"></path>
                        <path d="M49.323298,83.2128927 L46.9162318,85.9471303 L43.4565497,86.1348238 L45.5376854,87.5742299 L43.237149,90.4530421 L47.1140728,88.4201188 L49.8572152,90.5037701 L49.347394,87.3535632 L52.8020033,85.3967318 L49.3981225,85.6338851 L49.323298,83.2128927 Z" id="polygon54"></path>
                        <path d="M76.2892881,85.321908 L73.4320066,88.6014713 L69.347096,89.0123678 L71.9215662,90.4695287 L69.3141225,93.6869502 L73.7160861,91.4181418 L76.7648675,93.755433 L76.2892881,90.1651609 L80.388149,87.9978084 L76.2233411,88.1664789 L76.2892881,85.321908 Z" id="polygon56"></path>
                        <path d="M66.6965331,42.6749042 L64.0066556,46.1802069 L59.3066623,46.7382146 L62.1766258,48.26259 L59.3307583,52.0215326 L64.2070331,49.3545096 L67.6121821,51.8693487 L66.9780762,47.8808621 L71.4218907,45.289931 L66.875351,45.7984789 L66.6965331,42.6749042 Z" id="polygon58"></path>
                        <path d="M105.942619,84.2553525 L102.182371,88.5735709 L96.491904,89.1823065 L100.098699,90.96159 L96.5692649,95.5334483 L102.471523,92.3756322 L106.575457,95.6095402 L105.889354,90.681318 L111.503728,87.7352912 L105.889354,87.9876628 L105.942619,84.2553525 Z" id="polygon60"></path>
                        <path d="M116.558821,58.0581609 L113.274152,62.2584368 L108.057997,62.8341992 L111.31096,64.5614866 L107.990781,68.8277088 L113.54555,65.8474406 L117.286775,68.5410958 L116.519507,64.214 L121.910675,61.1741264 L116.508093,61.7930077 L116.558821,58.0581609 Z" id="polygon62"></path>
                        <path d="M125.500983,31.9801801 L122.121199,36.3237625 L116.457364,36.9844943 L119.913242,38.8132375 L116.457364,43.386364 L122.452202,40.1854291 L126.618278,43.2582759 L125.727993,38.3807816 L131.188914,35.2572069 L125.753358,35.7657548 L125.500983,31.9801801 Z" id="polygon64"></path>
                        <path d="M100.302881,21.0077203 L97.6624636,25.8598506 L91.8680033,27.0278621 L95.8565298,28.7805134 L93.1641159,33.5299195 L98.7518576,29.745613 L103.883043,32.514092 L102.028917,27.6885939 L106.80754,23.9283831 L101.242626,25.0203027 L100.302881,21.0077203 Z" id="polygon66"></path>
                        <path d="M134.601672,0.594785441 L130.610609,6.22685824 L123.518768,7.07147893 L128.356997,9.4303295 L124.294914,15.3312605 L131.512308,11.2121494 L136.931377,14.9622146 L135.602291,8.80891188 L142.16402,4.85339847 L135.207877,5.68026437 L134.601672,0.594785441 Z" id="polygon68"></path>
                    </g>
                    <g id="Dot" transform="translate(249.837748, 157.256705)">
                        <path d="M0.980327815,25.1293678 C0.980327815,28.2783065 3.31764238,37.5247471 14.3904007,37.5247471 C26.4828013,37.5247471 39.1839437,25.8408276 39.1839437,14.156908 C39.1839437,6.9433908 34.1034868,1.1527931 26.0769735,1.1527931 C10.633957,1.1527931 0.980327815,15.9856513 0.980327815,25.1293678 L0.980327815,25.1293678 Z" id="White_2_" fill="#FFFFFF"></path>
                        <path d="M4.63785099,23.5720192 C4.63785099,28.9897663 8.1596755,34.1386552 14.8659801,34.1386552 C25.5012053,34.1386552 35.3552119,24.1084674 35.3552119,14.3953295 C35.3552119,9.28068199 31.3895132,4.11657471 24.9584106,4.11657471 C13.5292848,4.11530651 4.63785099,15.970433 4.63785099,23.5720192 L4.63785099,23.5720192 Z" id="Red_1_" fill="#E13A3E"></path>
                    </g>
                </g>
            </g>
        </g>
    </g>
</svg>