<?xml version="1.0" encoding="UTF-8" standalone="no"?>
<svg width="512px" height="512px" viewBox="0 0 512 512" version="1.1" xmlns="http://www.w3.org/2000/svg" xmlns:xlink="http://www.w3.org/1999/xlink" xmlns:sketch="http://www.bohemiancoding.com/sketch/ns">
    <!-- Generator: Sketch 3.3.1 (12002) - http://www.bohemiancoding.com/sketch -->
    <title>dallas-stars</title>
    <desc>Created with Sketch.</desc>
    <defs></defs>
    <g id="NHL" stroke="none" stroke-width="1" fill="none" fill-rule="evenodd" sketch:type="MSPage">
        <g id="dallas-stars" sketch:type="MSArtboardGroup">
            <g sketch:type="MSLayerGroup" transform="translate(26.000000, 67.000000)">
                <g id="#0b714cff" fill="#0B714C" sketch:type="MSShapeGroup">
                    <path d="M246.613123,0.108803828 C247.37979,4.85385965 247.627297,9.67145136 248.182677,14.4527751 C251.768504,49.7354386 255.221522,85.036236 258.891864,120.312855 C276.676115,122.023493 294.750131,128.515455 307.240157,141.759298 C352.92021,141.72303 398.606299,141.765343 444.292388,141.73512 C449.52021,141.420797 454.760105,141.571914 460,141.602137 L460,141.771388 C411.585302,167.672743 363.212861,193.682903 314.810236,219.602392 C305.531759,239.253573 291.719685,256.982552 273.844882,269.470813 C277.273753,303.254402 280.63622,337.03799 284.053018,370.815534 C252.269554,345.307081 220.612861,319.635423 188.85958,294.084657 C184.162992,294.519872 179.387927,294.145104 174.733596,294.749569 C122.612336,322.609394 70.587664,350.674737 18.4422572,378.492249 C35.2545932,350.475263 52.2178478,322.542903 69.0301837,294.525917 C56.503937,294.513828 43.9716535,294.550096 31.4454068,294.507783 C48.5173228,265.807751 65.6435696,237.143987 82.7637795,208.468134 C55.1879265,186.235885 27.624147,163.979458 0.0482939633,141.747209 C40.8808399,141.741164 81.7194226,141.753254 122.558005,141.741164 C126.970866,134.396906 131.34147,127.034514 135.724147,119.678166 C148.660892,119.6963 161.597638,119.678166 174.534383,119.684211 C198.536483,79.8136523 222.635171,39.997496 246.613123,0.108803828 L246.613123,0.108803828 Z M240.014961,26.3909729 C219.791864,60.1020255 199.33937,93.674051 179.17664,127.421372 C166.185564,127.771962 153.164304,127.330702 140.167192,127.638979 C136.176903,134.481531 132.041732,141.239458 128.027297,148.06992 C127.580577,148.728788 127.194226,149.822871 126.174016,149.599219 C91.5895013,149.562951 57.0049869,149.647576 22.4204724,149.556906 C45.716273,168.470638 69.1146982,187.257432 92.4587927,206.110718 C93.3884514,206.672871 92.3682415,207.615837 92.1146982,208.26866 C76.5036745,234.302998 61.0314961,260.428006 45.4023622,286.450255 C57.9346457,286.631595 70.4729659,286.426077 83.0052493,286.54697 C81.8944882,288.868118 80.3611549,290.94748 79.1055118,293.184003 C67.3036745,312.80496 55.4414698,332.389649 43.6456693,352.010606 C42.5349081,353.908628 41.2188976,355.691802 40.3979003,357.746986 C84.7136483,334.106332 128.890551,310.193668 173.230446,286.613461 C178.850656,286.462344 184.495013,286.462344 190.12126,286.09362 C191.805512,285.706762 192.892126,287.211882 194.087402,288.094402 C212.783202,303.212089 231.52126,318.281419 250.211024,333.399107 C258.233858,339.721818 266.02126,346.358852 274.146719,352.542536 C274.122572,352.058963 274.080315,351.097863 274.056168,350.61429 C271.200787,322.216491 268.30315,293.824737 265.52021,265.426938 C284.632546,253.410159 299.150919,234.973955 308.399213,214.52488 C308.954593,213.424753 310.300787,213.12252 311.27874,212.505965 C349.980315,191.766746 388.669816,171.003349 427.365354,150.258086 C427.52231,150.088836 427.842257,149.750335 427.999213,149.581085 C386.550919,149.581085 345.108661,149.641531 303.666404,149.550861 C298.77664,143.947464 292.854593,139.238676 286.177953,135.938293 C275.51706,130.473923 263.51601,128.352249 251.659843,127.638979 C248.098163,93.3536842 244.759843,59.0442105 241.252493,24.7528708 C240.805774,25.2727113 240.365092,25.8046411 240.014961,26.3909729 L240.014961,26.3909729 Z" id="path3091"></path>
                </g>
                <g id="#231f1fff" transform="translate(22.335958, 24.178628)" fill="#231F1F" sketch:type="MSShapeGroup">
                    <path d="M217.679003,2.2123445 C218.029134,1.62601276 218.469816,1.09408293 218.916535,0.574242424 C222.423885,34.8655821 225.762205,69.1750558 229.323885,103.460351 C241.180052,104.17362 253.181102,106.295295 263.841995,111.759665 C270.518635,115.060048 276.440682,119.768836 281.330446,125.372233 C322.772703,125.462903 364.214961,125.402456 405.663255,125.402456 C405.506299,125.571707 405.186352,125.910207 405.029396,126.079458 C366.333858,146.824721 327.644357,167.588118 288.942782,188.327337 C287.964829,188.943892 286.618635,189.246124 286.063255,190.346252 C276.814961,210.795327 262.296588,229.231531 243.184252,241.248309 C245.967192,269.646108 248.864829,298.037863 251.72021,326.435662 C251.744357,326.919234 251.786614,327.880335 251.810761,328.363907 C243.685302,322.180223 235.8979,315.54319 227.875066,309.220478 C209.185302,294.102791 190.447244,279.033461 171.751444,263.915774 C170.556168,263.033254 169.469554,261.528134 167.785302,261.914992 C162.159055,262.283716 156.514698,262.283716 150.894488,262.434833 C106.554593,286.01504 62.3776903,309.927703 18.0619423,333.568357 C18.8829396,331.513174 20.1989501,329.73 21.3097113,327.831978 C33.1055118,308.211021 44.9677165,288.626332 56.7695538,269.005375 C58.0251969,266.768852 59.5585302,264.68949 60.6692913,262.368341 C48.1370079,262.247448 35.5986877,262.452967 23.0664042,262.271627 C38.6955381,236.249378 54.1677165,210.12437 69.7787402,184.090032 C70.0322835,183.437209 71.0524934,182.494242 70.1228346,181.932089 C46.7787402,163.078804 23.380315,144.29201 0.0845144357,125.378278 C34.6690289,125.468947 69.2535433,125.384322 103.838058,125.42059 C104.858268,125.644242 105.244619,124.550159 105.691339,123.891292 C109.705774,117.060829 113.840945,110.302903 117.831234,103.460351 C130.828346,103.152073 143.849606,103.593333 156.840682,103.242743 C177.003412,69.4954226 197.455906,35.9233971 217.679003,2.2123445 L217.679003,2.2123445 Z M203.782415,55.985614 C191.044882,77.069378 178.373753,98.1894099 165.593963,119.248995 C152.699475,119.218772 139.804987,119.224817 126.910499,119.242951 C122.533858,126.587209 118.127034,133.913333 113.774541,141.28177 C91.3238845,141.366396 68.8671916,141.179011 46.4165354,141.37244 C46.1448819,141.305949 45.6015748,141.179011 45.3299213,141.118565 C45.9275591,142.387943 47.27979,143.028676 48.2818898,143.941419 C62.6734908,155.565295 77.1073491,167.140813 91.4627297,178.813046 C82.6188976,193.271866 74.0708661,207.924115 65.323622,222.45547 C60.6692913,230.410239 55.7433071,238.213892 51.264042,246.25933 L50.932021,246.44067 C71.1792651,246.507161 91.4265092,246.452759 111.673753,246.470893 C113.044094,246.53134 114.504987,246.192839 115.790814,246.821483 C113.303675,247.365502 110.895013,248.20571 108.401837,248.707416 L108.287139,248.846443 C99.9866142,250.986252 91.7343832,253.325534 83.439895,255.501611 C79.6910761,261.715518 75.9362205,267.923381 72.2055118,274.149378 C68.6740157,280.145678 64.8044619,285.966683 61.5446194,292.114099 C62.2026247,291.727241 62.8545932,291.322249 63.5608924,291.03815 C65.2934383,290.397416 66.8509186,289.394003 68.4868766,288.559841 C89.8388451,277.087081 111.208924,265.656635 132.560892,254.183876 C137.474803,251.687432 142.213648,248.761818 147.224147,246.501116 C156.261155,246.51925 165.316273,246.392313 174.329134,245.576284 C193.145669,260.875311 212.052756,276.05949 230.929659,291.279936 L230.899475,291.47941 C231.376378,291.811866 231.877428,292.144322 232.360367,292.482823 C230.633858,276.125981 229.106562,259.738915 227.192913,243.406252 C220.474016,244.264593 213.688714,244.222281 206.927559,244.228325 C201.482415,244.186013 196.03727,243.920048 190.604199,243.581547 C205.351969,241.048836 219.991076,236.720861 232.891601,228.971611 C244.150131,222.322488 253.730446,213.001627 261.137533,202.248182 C268.055643,192.171738 273.935433,181.091882 276.356168,169.008612 C277.738583,162.613365 277.52126,156.036778 276.458793,149.617352 C278.221522,151.835742 279.754856,154.229426 281.11916,156.71378 C283.630446,161.56764 285.085302,166.905072 285.755381,172.321085 C304.010499,162.480383 322.229396,152.567145 340.472441,142.708309 C340.707874,142.490702 341.17874,142.061531 341.414173,141.843923 C341.637533,141.819745 342.084252,141.759298 342.307612,141.73512 C342.211024,141.626316 342.023885,141.420797 341.933333,141.318038 C318.987664,141.287815 296.035958,141.257592 273.084252,141.330128 L273.023885,141.20319 C268.496325,132.952233 260.515748,127.082871 251.822835,123.824801 C240.111549,119.291308 227.355906,119.025343 214.968504,119.291308 C212.559843,96.6480223 210.57979,73.9442903 207.977953,51.3251834 C207.923622,50.732807 207.869291,50.134386 207.820997,49.5420096 C206.293701,51.5730144 205.164829,53.8578947 203.782415,55.985614 L203.782415,55.985614 Z" id="path3094"></path>
                    <path d="M138.814961,153.612871 C158.947507,153.431531 179.086089,153.588692 199.224672,153.53429 C205.967717,153.824434 213.10315,154.301962 219.03727,157.850175 C222.128084,159.633349 224.222835,162.818884 224.965354,166.282472 C226.094226,172.236459 224.132283,178.29925 221.343307,183.515789 C214.95643,194.982504 203.842782,203.741212 191.195801,207.222935 C184.193176,209.193493 176.894751,209.816093 169.644619,210.039745 C154.933071,210.100191 140.221522,209.973254 125.51601,210.106236 C126.023097,208.770367 126.868241,207.609793 127.616798,206.406906 C136.013911,192.57673 144.531759,178.819091 152.904724,164.976826 C148.23832,161.144514 143.523622,157.384737 138.814961,153.612871 L138.814961,153.612871 Z" id="path3096"></path>
                </g>
                <g id="#a7aaacff" transform="translate(67.611549, 74.953748)" fill="#A7AAAC" sketch:type="MSShapeGroup">
                    <path d="M161.935696,1.06385965 C162.128871,0.93692185 162.509186,0.683046252 162.702362,0.550063796 C165.304199,23.1691707 167.284252,45.8729027 169.692913,68.5161882 C161.820997,68.7337959 153.937008,68.5282775 146.065092,68.624992 C146.397113,66.0318341 147.175853,63.5233014 147.731234,60.9724561 C152.476115,41.0069537 157.148556,21.0112281 161.935696,1.06385965 L161.935696,1.06385965 Z" id="path3099"></path>
                    <path d="M94.5656168,90.4522488 C95.555643,88.7597448 96.5094488,87.0370175 97.6866142,85.4714514 C121.060892,85.6044338 144.429134,85.4895853 167.803412,85.5258533 C176.532546,85.6769697 185.623885,86.7045614 193.326772,91.1413397 C197.787927,93.6680064 201.295276,97.6635247 203.492651,102.281643 C211.606037,98.3767943 219.689239,94.4235885 227.748294,90.4280702 L227.808661,90.555008 C229.130709,93.2327911 230.030184,96.0858692 231.183202,98.8422329 C232.245669,105.261659 232.462992,111.838246 231.080577,118.233493 C228.659843,130.316762 222.780052,141.396619 215.861942,151.473062 C208.454856,162.226507 198.874541,171.547368 187.61601,178.196491 C174.715486,185.945742 160.076378,190.273716 145.328609,192.806427 C139.907612,193.519697 134.474541,194.130207 129.053543,194.801164 C120.040682,195.617193 110.985564,195.744131 101.948556,195.725997 C96.9380577,197.986699 92.1992126,200.912313 87.2853018,203.408756 C65.9333333,214.881515 44.5632546,226.311962 23.2112861,237.784721 C21.5753281,238.618884 20.0178478,239.622297 18.2853018,240.26303 C18.092126,239.537671 18.5629921,239.005742 19.0821522,238.582616 C32.2543307,226.565837 45.384252,214.506746 58.5383202,202.465789 C60.0716535,201.045295 61.7257218,199.733604 63.0115486,198.071324 L63.1262467,197.932297 C65.6194226,197.43059 68.028084,196.590383 70.5152231,196.046364 C69.2293963,195.417719 67.7685039,195.75622 66.3981627,195.695774 C46.1509186,195.67764 25.9036745,195.732041 5.65643045,195.66555 L5.98845144,195.484211 C18.1947507,189.469777 30.4734908,183.552057 42.6254593,177.440909 C48.7708661,167.618341 54.511811,157.529809 60.5183727,147.616571 C71.8614173,128.557767 83.2225722,109.511053 94.5656168,90.4522488 L94.5656168,90.4522488 Z M93.5393701,102.837751 C98.2480315,106.609617 102.96273,110.369394 107.629134,114.201707 C99.256168,128.043971 90.7383202,141.801611 82.3412073,155.631786 C81.5926509,156.834673 80.7475066,157.995247 80.2404199,159.331116 C68.0099738,165.412041 55.6406824,171.220957 43.4826772,177.422775 C67.8047244,177.386507 92.1267717,177.41673 116.448819,177.404641 C132.228871,177.622249 148.268504,175.385726 162.841207,169.105327 C180.058005,161.821515 194.576378,147.840223 201.428084,130.310718 C204.875066,121.624545 206.553281,111.67504 203.353806,102.656411 C195.397375,106.446411 187.519423,110.405662 179.569029,114.219841 C179.599213,114.540207 179.65958,115.186986 179.689764,115.507352 C178.947244,112.043764 176.852493,108.85823 173.76168,107.075056 C167.827559,103.526842 160.692126,103.049314 153.949081,102.759171 C133.810499,102.813573 113.671916,102.656411 93.5393701,102.837751 L93.5393701,102.837751 Z" id="path3101"></path>
                    <path d="M0.0543307087,90.343445 C0.325984252,90.4038915 0.869291339,90.5308293 1.14094488,90.5973206 C1.61181102,90.8088836 2.55958005,91.2259649 3.03648294,91.4314833 C21.3217848,97.1980861 39.6614173,102.789394 57.9286089,108.610399 C53.9805774,115.066093 50.3041995,121.691037 46.1871391,128.037927 C31.8317585,116.365694 17.3979003,104.790175 3.00629921,93.1662998 C2.00419948,92.2535566 0.651968504,91.612823 0.0543307087,90.343445 L0.0543307087,90.343445 Z" id="path3103"></path>
                    <path d="M288.182152,92.8036204 C290.826247,92.1991547 293.41601,91.2985008 296.138583,91.0688038 C295.90315,91.2864115 295.432283,91.7155821 295.19685,91.9331898 C276.953806,101.792026 258.734908,111.705263 240.47979,121.545965 C239.809711,116.129952 238.354856,110.79252 235.84357,105.93866 C253.271654,101.495837 270.735958,97.1920415 288.182152,92.8036204 L288.182152,92.8036204 Z" id="path3105"></path>
                    <path d="M161.651969,193.453206 C168.413123,193.447161 175.198425,193.489474 181.917323,192.631132 C183.830971,208.963796 185.358268,225.350861 187.084777,241.707703 C186.601837,241.369203 186.100787,241.036746 185.623885,240.70429 L185.654068,240.504817 C185.853281,239.870128 185.78084,239.277751 185.448819,238.721643 C177.510499,223.634179 169.445407,208.613206 161.651969,193.453206 L161.651969,193.453206 Z" id="path3107"></path>
                </g>
                <path d="M74.7058062,268.859399 C75.0177852,268.347087 77.0065548,264.961528 79.125293,261.335938 C82.6777825,255.256899 109.850096,209.895674 120.928258,191.550425 C123.54483,187.217436 125.593899,183.586701 125.481746,183.482133 C125.369598,183.37756 113.04138,179.472659 98.0857107,174.804563 C83.1300409,170.136473 70.6359725,166.198732 70.3211152,166.054032 C69.9621751,165.889076 74.8732945,165.768449 83.4878316,165.730638 C91.0443784,165.697465 106.036718,165.592008 116.804132,165.496285 L136.381254,165.322237 L142.844836,154.502785 L149.308418,143.683327 L168.640515,143.683327 L187.972608,143.683327 L207.554072,111.224969 C230.347069,73.4431447 229.997851,74.0072466 230.139198,74.7421415 C230.197088,75.0431461 230.05861,75.4269189 229.831464,75.5949701 C229.41105,75.9060136 213.59469,141.816814 213.583288,143.30526 C213.581356,143.561307 218.685531,143.673153 234.547253,143.76465 C256.812234,143.893086 257.244421,143.916786 264.571659,145.411113 C277.773011,148.103417 288.411568,154.732757 294.206824,163.878062 C294.707464,164.668113 295.093878,165.333417 295.06552,165.356518 C294.938893,165.459659 271.322846,176.929865 271.237109,176.929865 C271.184213,176.929865 270.684003,176.149205 270.125527,175.195068 C264.885082,166.241886 255.352447,161.570053 240.337801,160.596442 C237.956363,160.442018 220.307638,160.315781 200.642404,160.312503 L165.23483,160.306603 L164.401518,161.524684 C163.943198,162.19463 153.004997,180.476642 140.094408,202.151375 C127.183823,223.826113 115.155159,243.972482 113.364052,246.92109 L110.107493,252.282193 L96.6545432,258.937921 C82.1753755,266.101357 74.5785902,269.79088 74.3081054,269.79088 C74.2148594,269.79088 74.3938272,269.371715 74.7058062,268.859404 L74.7058062,268.859399 Z" id="path3000" stroke-opacity="0" stroke="#000000" stroke-width="4.74151039" fill-opacity="0" fill="#FFFFFF" sketch:type="MSShapeGroup"></path>
                <path d="M302.726459,179.29438 C302.294291,178.545616 301.266861,176.965688 300.443289,175.78343 C299.206954,174.008642 297.769735,170.976767 295.993778,166.397016 L295.743712,165.752148 L329.726788,165.795089 C348.417479,165.818687 363.323444,165.891886 362.851163,165.957714 C362.378877,166.023538 348.89159,169.357525 332.879413,173.366578 C316.86724,177.375632 303.709188,180.655762 303.639297,180.655762 C303.569411,180.655762 303.158632,180.043139 302.726459,179.294375 L302.726459,179.29438 Z" id="path3002" stroke-opacity="0" stroke="#000000" stroke-width="4.74151039" fill-opacity="0" fill="#FFFFFF" sketch:type="MSShapeGroup"></path>
                <path d="M117.835783,249.248394 C121.14177,247.572882 129.242803,243.566116 135.838077,240.344469 L147.829478,234.48693 L171.474072,234.360408 C198.782584,234.214273 202.945587,233.986428 210.718365,232.212538 C227.689926,228.339306 241.58904,216.250997 246.68839,200.928754 C247.409211,198.762866 247.476344,198.182603 247.504688,193.873421 L247.535596,189.178066 L259.197275,183.501742 C266.473581,179.959998 270.901157,177.953423 270.971188,178.165813 C272.916532,184.066071 272.964744,190.895194 271.112868,198.237397 C266.667148,215.863574 253.348581,232.121883 235.873232,241.255307 C225.612585,246.617991 213.786263,249.979991 199.368081,251.63303 C195.596429,252.065446 190.436513,252.130032 153.471797,252.2075 L111.824909,252.29478 L117.835802,249.248394 L117.835783,249.248394 Z" id="path3004" stroke-opacity="0" stroke="#000000" stroke-width="4.74151039" fill-opacity="0" fill="#FFFFFF" sketch:type="MSShapeGroup"></path>
                <path d="M225.069988,292.467257 C209.74274,280.085657 197.330259,269.912533 197.486707,269.860317 C197.643156,269.8081 201.231697,269.346429 205.461248,268.834384 C211.996484,268.043206 213.645674,267.933904 216.443025,268.106573 C218.253445,268.218322 221.294583,268.320568 223.201103,268.333794 C225.107628,268.346996 227.24553,268.437163 227.951998,268.534124 L229.236487,268.710415 L233.896777,277.633929 C236.459936,282.541862 241.835662,292.773644 245.842835,300.371221 C249.850012,307.968799 253.085659,314.363708 253.033163,314.582128 C252.974969,314.824267 242.061717,306.19345 225.069988,292.467257 L225.069988,292.467257 L225.069988,292.467257 Z" id="path3006" stroke-opacity="0" stroke="#000000" stroke-width="4.74151039" fill-opacity="0" fill="#FFFFFF" sketch:type="MSShapeGroup"></path>
                <path d="M85.5171826,313.713559 C86.1094259,312.649525 89.8317218,306.426546 93.7889485,299.884718 C97.7461799,293.342891 102.059072,286.184856 103.373156,283.977971 C104.687244,281.771091 105.784705,279.933259 105.811962,279.893896 C105.938695,279.710903 129.526805,273.501918 129.777455,273.585576 C129.934247,273.637908 129.501199,274.18361 128.815116,274.798245 C117.512783,284.923578 85.8879257,314.156739 85.7470522,314.609203 C85.5570251,315.219515 85.127798,315.635557 84.679688,315.643773 C84.5480676,315.646191 84.9249392,314.777593 85.5171826,313.713559 L85.5171826,313.713559 L85.5171826,313.713559 Z" id="path3008" stroke-opacity="0" stroke="#000000" stroke-width="4.74151039" fill-opacity="0" fill="#FFFFFF" sketch:type="MSShapeGroup"></path>
                <path d="M243.105282,307.147848 C237.595018,302.691494 225.003376,292.510817 215.123861,284.524113 C205.244345,276.537414 197.161182,269.954845 197.161269,269.896188 C197.161356,269.837526 200.781737,269.353445 205.20656,268.820452 L213.251687,267.851368 L217.198434,268.067341 C219.369146,268.186125 222.962502,268.34862 225.183672,268.428439 L229.222163,268.573559 L234.354445,278.402689 C237.177203,283.808711 242.538885,294.005206 246.269299,301.06156 C251.98136,311.866351 253.699751,315.38835 253.201028,315.268787 C253.158626,315.258632 248.615546,311.604201 243.105282,307.147848 L243.105282,307.147848 Z" id="path3005" stroke-opacity="0" stroke="#000000" stroke-width="3.35275421" fill="#FFFFFF" sketch:type="MSShapeGroup"></path>
                <path d="M230.337633,296.680581 C217.98778,286.701863 205.489814,276.590457 202.564373,274.210787 L197.245392,269.884108 L204.670927,268.969474 C211.248763,268.159258 213.06958,268.088773 220.620627,268.352059 L229.144786,268.649277 L231.729185,273.562703 C248.838248,306.090236 253.014812,314.154128 252.912317,314.462013 C252.846097,314.660941 242.687486,306.659294 230.337633,296.680581 L230.337633,296.680581 Z" id="path3775" stroke-opacity="0" stroke="#000000" stroke-width="6.70550842" fill="#FFFFFF" sketch:type="MSShapeGroup"></path>
                <path d="M85.8378159,313.718269 C85.8378159,313.546141 86.3184519,312.568498 86.9058996,311.545732 C87.9584183,309.713258 105.694342,280.217493 105.892353,279.970272 C106.154632,279.642806 129.568487,273.571252 129.467925,273.856778 C129.404838,274.035903 121.338293,281.514275 111.542268,290.475388 C101.746239,299.436495 91.955275,308.402467 89.7845627,310.399772 C87.6138505,312.397076 85.8378159,313.890402 85.8378159,313.718269 L85.8378159,313.718269 Z" id="path3777" stroke-opacity="0" stroke="#000000" stroke-width="6.70550842" fill="#FFFFFF" sketch:type="MSShapeGroup"></path>
                <path d="M74.5035704,269.503406 C74.5035704,269.136447 85.8639429,250.012511 103.243651,221.122643 C125.591339,183.974622 125.673801,183.833501 125.259801,183.445106 C125.062178,183.259699 112.787011,179.328477 97.9816517,174.709058 C83.1762921,170.089634 70.7895811,166.15433 70.4556283,165.963938 C70.1161459,165.770398 84.5087805,165.612337 103.099155,165.605446 L136.349868,165.593115 L142.786299,154.750669 L149.222725,143.908227 L168.640004,143.80306 L188.057282,143.697897 L208.490777,109.844481 C219.729197,91.2251042 228.978771,76.1547827 229.045383,76.3548705 C229.11199,76.5549632 225.777016,91.0155383 221.634322,108.489486 C217.491627,125.963434 213.956002,141.035487 213.777377,141.982931 L213.4526,143.705562 L231.717295,143.711945 C251.145724,143.718763 257.226118,144.024739 263.811381,145.326932 C268.242092,146.203084 274.994626,148.412725 278.296262,150.066843 C284.153745,153.001442 290.916305,158.746032 293.686944,163.140754 C294.842151,164.973122 294.931514,165.416282 294.205776,165.713733 C293.927482,165.827798 288.659557,168.384257 282.499276,171.394753 L271.298761,176.868388 L269.645244,174.308234 C265.145024,167.340514 258.165778,163.283055 247.171725,161.243003 C243.935836,160.642551 238.894188,160.546939 204.240203,160.428816 C166.901208,160.301535 164.953291,160.330477 164.529767,161.018731 C164.284815,161.416813 153.054643,180.255722 139.573828,202.882992 C106.714963,258.035908 110.644305,251.855696 107.384139,253.512155 C99.0282639,257.757704 74.5035704,269.685109 74.5035704,269.503377 L74.5035704,269.503406 Z" id="path3779" stroke-opacity="0" stroke="#000000" stroke-width="6.70550842" fill="#FFFFFF" sketch:type="MSShapeGroup"></path>
                <path d="M74.5035704,269.510747 C74.5035704,269.145026 79.8105602,260.208518 102.95181,221.606409 C115.601163,200.505913 125.463974,183.643235 125.262177,183.461837 C125.063245,183.283022 112.787011,179.349783 97.9816517,174.721297 C83.1762921,170.092816 70.7895811,166.151052 70.4556283,165.961825 C70.1190049,165.771084 84.6645333,165.612279 103.097354,165.605446 L136.34627,165.593115 L142.778799,154.750669 L149.211328,143.908227 L168.629876,143.802605 L188.048425,143.696988 L208.486662,109.844979 C219.727695,91.2263711 228.978713,76.1546134 229.044485,76.3521818 C229.110256,76.5497454 225.875551,90.601194 221.856252,107.577618 C217.836958,124.554043 214.300603,139.62773 213.997689,141.074705 L213.44694,143.705562 L231.71446,143.711945 C256.489987,143.720649 262.692705,144.316643 272.088339,147.591333 C279.848927,150.296158 285.330804,153.724276 290.124816,158.870538 C293.094749,162.058698 295.093569,164.940563 294.64584,165.388878 C294.358984,165.676111 272.051534,176.544443 271.532103,176.650041 C271.29003,176.699249 270.635738,175.918734 270.078122,174.915553 C268.469517,172.021603 263.347252,167.189833 260.101845,165.505052 C256.390932,163.57862 252.027104,162.134498 247.317008,161.274159 C243.926052,160.654775 239.191201,160.561291 204.425463,160.427293 C167.126688,160.283532 165.316679,160.310066 164.709768,161.009577 C164.360028,161.412693 153.052572,180.255722 139.582086,202.882992 C126.111601,225.510256 113.968233,245.847442 112.59683,248.076726 L110.103359,252.129978 L106.572472,253.917524 C97.3873799,258.567548 74.5035704,269.694582 74.5035704,269.510718 L74.5035704,269.510747 Z" id="path3781" stroke-opacity="0" stroke="#000000" stroke-width="6.70550842" fill="#FFFFFF" sketch:type="MSShapeGroup"></path>
                <path d="M301.324572,177.046614 C299.441672,174.256279 295.926152,166.927771 295.926152,165.792985 C295.926152,165.68306 311.272926,165.610258 330.030088,165.631206 C359.387182,165.663992 363.767797,165.743671 361.502859,166.203684 C359.285108,166.654107 306.322601,179.828815 304.381358,180.412961 C303.915785,180.553056 303.039491,179.58802 301.324572,177.046614 L301.324572,177.046614 L301.324572,177.046614 Z" id="path3783" stroke-opacity="0" stroke="#000000" stroke-width="6.70550842" fill="#FFFFFF" sketch:type="MSShapeGroup"></path>
                <path d="M129.758017,243.40939 L147.568976,234.557667 L170.077483,234.528024 C198.018569,234.491224 205.101632,233.98841 214.157668,231.398894 C232.713628,226.092942 248.450844,208.025665 247.663454,192.932234 L247.472094,189.263978 L259.002196,183.684194 C265.343758,180.615316 270.675967,178.253311 270.851554,178.435299 C271.027146,178.617286 271.458194,180.172069 271.809441,181.890367 C275.171044,198.335277 264.04381,221.062414 245.934038,234.740308 C235.047883,242.962371 221.071166,248.424792 204.608014,250.891467 C196.84505,252.05459 186.303434,252.320806 149.188151,252.291013 L111.947063,252.26108 L129.758017,243.409361 L129.758017,243.409357 L129.758017,243.40939 Z" id="path3785" stroke-opacity="0" stroke="#000000" stroke-width="6.70550842" fill="#FFFFFF" sketch:type="MSShapeGroup"></path>
                <path d="M232.361947,298.311657 C221.125091,289.23116 208.624701,279.138256 204.583307,275.882986 C200.541914,272.627711 197.263077,269.934767 197.297009,269.898659 C197.330911,269.862536 200.637531,269.433535 204.644998,268.945286 C211.028306,268.16758 212.997584,268.093376 220.535224,268.346551 L229.139146,268.635543 L231.321729,272.74519 C241.251639,291.442504 253.011938,314.16275 252.913332,314.458967 C252.846927,314.658441 243.598803,307.392153 232.361947,298.311657 L232.361947,298.311657 Z" id="path3787" stroke-opacity="0" stroke="#000000" stroke-width="6.70550842" fill="#FFFFFF" sketch:type="MSShapeGroup"></path>
                <path d="M85.8378159,313.717549 C85.8378159,313.545813 86.3192584,312.568498 86.9076913,311.545732 C88.0581743,309.546049 105.708203,280.181825 105.886833,279.970272 C106.169,279.636094 129.567811,273.573666 129.467925,273.860617 C129.373259,274.132579 117.620575,284.959232 89.3797676,310.790092 C87.4316953,312.571927 85.8378159,313.88928 85.8378159,313.717549 L85.8378159,313.717549 Z" id="path3789" stroke-opacity="0" stroke="#000000" stroke-width="6.70550842" fill="#FFFFFF" sketch:type="MSShapeGroup"></path>
            </g>
        </g>
    </g>
</svg>