<svg width="512" height="512" viewBox="0 0 512 512" xmlns="http://www.w3.org/2000/svg" xmlns:sketch="http://www.bohemiancoding.com/sketch/ns"><title>philadelphia-eagles</title><desc>Created with Sketch.</desc><g sketch:type="MSLayerGroup" fill="none"><path d="M288.136 141.248l-19.784 21.088c32.549-14.71 103.398-40.764 103.398-40.764l-22.646 22.685c62.088-20.946 109.152-31.79 109.152-31.79s-13.439 31.524-33.601 63.374c3.902-.642 29.587-4.924 29.587-4.924s-22.923 38.414-49.551 66.594l14.955 2.82s-23.122 33.817-53.894 61.942c-44.036 40.567-66.96 35.79-66.96 35.79-32.837 24.807-59.258 14.399-59.258 14.399s11.111-28.48-.567-30.681c-10.794-2.226-26.888 6.666-28.854 10.064-1.961 7.121-10.729 25.351-19.758 36.621-17.346 21.635-36.773 31.067-36.773 31.067s-15.369-11.925-15.676-33.304c0 0-10.352 11.217-27.444 15.605-11.996 3.177-28.35 1.94-45.067-10.618-11.388-8.542-13.681-38.992-13.681-38.992s10.409-19.978 30.659-38.056c-4.582-3.549-7.367-8.105-8.181-10.97 53.882-25.563 53.852-47.397 96.605-76.066 42.263-28.255 68.814-41.682 117.339-65.884" fill="#ACC0C6" sketch:type="MSShapeGroup"/><path d="M261.89 161.05l-16.9 18.037c33.525-16.002 104.259-43.008 104.259-43.008l-20.496 20.554c72.587-25.423 118.747-35.174 118.747-35.174s-14.862 33.199-34.754 61.86c9.606-1.468 29.933-4.711 29.933-4.711s-20.121 33.832-49.756 63.169c3.244.29 16.904 2.561 16.904 2.561s-17.908 26.857-49.096 55.002c-39.764 35.935-57.683 32.774-57.683 32.774s.449-1.329.282-3.402c.077-1.134-.184-2.174-.215-2.277-30.595 29.722-56.352 21.433-56.352 21.433s11.173-27.22-6.421-31.696c-13.538-3.512-34.139 8.255-35.813 14.05-1.678 6.382-10.29 24.139-18.706 34.704-14.747 18.416-31.076 27.312-31.076 27.312s-14.895-10.331-9.917-43.012c1.016-7.137-.47-9.858-1.243-10.904-2.551-3.5-21.555 1.367-26.12 11.868-3.191 7.477 15.796 12.601 15.796 12.601s-8.717 9.825-24.005 13.674c-9.58 2.245-24.499 2.419-40.155-9.829-9.265-7.242-11.378-33.322-11.378-33.322s11.302-20.83 33.381-39.381c-4.378-2.638-7.772-7.154-8.574-8.928 44.741-20.886 50.643-47.62 101.076-79.703 23.447-14.914 48.235-29.771 78.281-44.252" fill="#004953" sketch:type="MSShapeGroup"/><path d="M381.609 246.051c1.795.25 9.111 1.134 13.273 2.589-15.254 24.902-61.066 74.607-86.679 77.913-.381-4.267-1.98-7.632-4.065-9.924-9.479 17.534-38.898 29.461-51.196 27.425 14.558-53.514-48.357-30.188-53.123-15.514-12.139 38.175-43.989 57.303-43.989 57.303s-10.273-10.632-6.085-36.056c3.137-18.73-8.994-17.485-8.994-17.485-4.922-.121-23.323 3.023-29.091 15.748-4.605 10.206 11.797 16.47 11.797 16.47s-23.465 19.428-51.072-1.771c-6.736-5.301-9.448-28.604-9.448-28.604 13.08-21.784 30.367-36.101 37.556-41.455-7.647-2.516-10.032-6.142-10.032-6.142 36.724-18.275 50.894-46.137 82.132-67.813 34.421-23.944 60.74-36.301 60.74-36.301l-9.849 12.755s8.297-3.888 11.853-5.877c32.844-17.217 88.497-37.034 88.497-37.034l-17.267 17.09s28.714-10.975 64.976-20.283c19.281-4.967 59.654-15.224 59.654-15.224s-9.351 27.378-29.306 55.839c12.189-1.47 25.304-2.794 25.304-2.794s-13.965 28.193-45.588 59.145m-149.98-28.95c-.444.195-.724.339-1.186.578.383-.239.692-.397 1.082-.56l.105-.018m-1.485.534l.298.044-.298-.044" fill="#000" sketch:type="MSShapeGroup"/><path d="M274.084 278.49s-17.663-7.412-45.439 2.762c0 0 38.142-23.944 86.698-17.112-31.49-8.427-59.85-2.219-76.493 4.096-9.804 4.157-15.665 7.373-15.665 7.373s2.468-1.816 7.132-4.698c11.26-8.625 26.804-18.131 42.162-25.111 10.686-4.728 31.983-11.369 40.646-12.273 0 0-22.286-2.482-42.659 3.448 0 0 32.106-13.782 63.397-16.062 10.535-.615 34.472-.707 34.472-.707-34.602-8.112-70.455-8.259-94.921-3.392-13.843 3.928-24.893 7.868-24.893 7.868s1.995-.95 5.681-2.694c8.727-5.521 44.812-26.207 111.945-39.73 0 0-8.522-.536-19.043-.004-10.707.549-31.958 5.127-31.958 5.127 15.357-7.488 44.189-15.584 79.863-20.674 0 0-54.614-3.506-120.503 19.791-.621.238-.837.428-.837.428s6.849-5.137 14.816-10.54c5.677-4.104 14.055-10.303 14.055-10.303s-33.829 9.424-79.549 32.928c-12.857 6.591-19.676 10.382-19.676 10.382 1.994-2.203 11.109-10.586 13.281-13.431-33.922 17.927-46.283 29.115-66.309 50.882-17.988 19.42-17.136 22.659-44.42 38.342 0 0 20.209 6.959 40.558-6.908 3.537-2.331 6.793-5.738 9.96-9.166 7.207-8.418 4.766-16.636 14.375-23.074-1.411 3.19-3.62 7.11-3.815 11.203 4.576-6.391 13.577-14.911 23.649-21.354 25.782-16.086 42.882-19.543 42.882-19.543-.758.199-1.265.579-1.95.776-35.099 15.95-40.744 34.761-40.921 36.77-.336 4.201 12.697-5.844 23.34-7.692-11.264 4.44-20.81 14.18-25.406 25.159-1.95 4.647-2.519 9.838-8.133 14.14-1.57 1.517-3.574 3.018-6.345 4.333-7.339 3.626-12.51 2.186-14.281 1.18-1.052-.596-1.629-1.788-1.629-1.788 3.576.857 8.471-.291 12.884-3.196 3.275-2.164 5.701-4.904 6.972-7.671.679-1.567 2.065-4.429.037-7.89-1.015-1.666-3.1-2.589-5.517-2.79.197-.455 1.294-3.563 5.251-8.272-5.258 4.006-8.547 8.559-10.311 10.685 2.431.156 4.609 1.109 5.83 2.942 2.385 3.703.168 9.429-4.852 12.45-5.064 3.318-11.241 2.896-13.531-.775-.333-.572-.509-.915-.721-1.471-.212.112-.553.286-.847.401-1.549.879-4.766 2.303-4.766 2.303 1.466.338 3.494.313 4.829.093.487 5.346 4.011 13.907 23.683 8.065-5.615 5.445-19.113 5.865-27.337 2.082 1.164.81 2.417 1.57 3.906 2.406 24.78 13.53 53.024-1.82 59.898-6.108 1.774-1.034 3.509-2.086 5.192-2.992 0 0-7.128 6.454-11.938 16.258 8.532-11.171 33.588-29.498 67.27-27.254" fill="#fff" sketch:type="MSShapeGroup"/><path d="M183.776 259.563c.966 3.454 7.175-.453 7.175-.453s-8.453 7.375-11.719 15.089c-.12.454-.117 1.901-1.224 4.157.89.13 1.746.196 2.416.125 2.208-.438 4.834-2.023 4.834-2.023s.106 4.447-4.85 9.04c5.614-4.304 6.182-9.494 8.133-14.14 4.596-10.979 14.142-20.722 25.406-25.159-10.644 1.848-23.676 11.893-23.34 7.692.177-2.009 5.822-20.82 40.921-36.77-.388.163-1.192.576-1.379.516-32.128 13.285-48.963 32.732-46.37 41.928" fill="#BACAD3" sketch:type="MSShapeGroup"/><path d="M170.388 274.53c1.688 2.66.073 6.661-3.666 9.061-3.722 2.273-8.119 2.11-9.739-.575-.318-.388-.476-.852-.531-1.331-.727.573-1.544 1.03-2.258 1.553.21.557.387.899.723 1.47 2.291 3.672 8.464 4.093 13.529.776 5.022-3.022 7.236-8.746 4.854-12.449-1.221-1.835-3.402-2.788-5.831-2.943-.584.692-1.275 1.478-1.966 2.346 2.149-.095 3.965.616 4.885 2.093" fill="#004D55" sketch:type="MSShapeGroup"/><path d="M166.726 283.591c3.735-2.4 5.35-6.399 3.665-9.061-.92-1.478-2.739-2.188-4.887-2.095-1.361 1.758-3.003 3.821-5.048 5.694-.023 1.621.312 3.483 2.32 4.8 0 0-2.302.243-3.746-.659-.784-.533-1.197-1.258-1.33-1.659-.447.349-.864.832-1.247 1.074.054.48.214.946.53 1.331 1.62 2.685 6.019 2.848 9.743.575" fill="#000" sketch:type="MSShapeGroup"/><path d="M159.03 282.27c1.443.903 3.746.659 3.746.659-2.013-1.316-2.343-3.179-2.32-4.8-.847.867-1.77 1.734-2.756 2.481.129.401.542 1.126 1.33 1.659" fill="#fff" sketch:type="MSShapeGroup"/><path d="M368.336 220.205s-23.936.092-34.474.708c-31.29 2.281-63.393 16.061-63.393 16.061 20.37-5.929 42.658-3.446 42.658-3.446-8.662.904-29.961 7.544-40.648 12.271-15.357 6.98-30.902 16.487-42.163 25.109 18.046-11.258 69.5-38.427 135.29-28.272 0 0 4.283-3.345 15.677-16.074 11.988-13.429 14.457-21.475 14.457-21.475s-55.684-2.992-95.981 5.069c-8.681 1.81-18.058 4.144-26.342 6.652 24.467-4.862 60.321-4.718 94.921 3.396m-128.171 70.453c45.447-13.297 77.168-1.624 81.131 12.19l.458-.356c1.812-1.049 8.887-4.311 19.478-14.901 11.054-11.261 18.028-20.182 20.771-26.103-46.69-20.166-98.017-3.985-123.154 6.749 16.645-6.315 45.004-12.525 76.495-4.099-48.557-6.829-86.699 17.114-86.699 17.114 27.779-10.175 45.442-2.763 45.442-2.763-33.686-2.244-58.742 16.082-67.27 27.256-.684 1.328-1.29 2.739-1.845 4.086 7.78-7.461 16.002-13.618 35.193-19.172m154.843-123.953c-35.675 5.089-64.507 13.186-79.863 20.674 0 0 21.251-4.58 31.958-5.128 10.521-.532 19.043.004 19.043.004-67.133 13.524-103.218 34.21-111.945 39.73 8.916-4.09 28.171-12.221 55.919-18.893 26.005-6.289 56.398-9.083 68.664-10.828 17.296-17.186 23.956-38.161 23.956-38.161s-30.254 3.937-64.711 11.803c-35.759 8.42-58.939 18.578-63.524 20.592 65.889-23.298 120.503-19.792 120.503-19.792m-180.339 142.94s11.427-8.989 30.903-6.936c28.835 3.019 28.172 20.629 28.172 20.629s12.865-6.045 19.4-17.483c0 0-8.144-6.999-22.934-8.844-38.353-4.611-55.542 12.634-55.542 12.634m-77.99-6.842c-5.892-.172-8.072-1.278-10.176-2.779-4.886 2.679-8.612 4.796-8.612 4.796-2.888 4.349 3.249 3.256 6.088 2.301 2.325-.802 12.7-4.318 12.7-4.318m63.913 2.586c-1.781 3.152-2.575 6.614-3.828 10.788-8.788 41.769-39.594 61.262-39.594 61.262-5.792-12.206-2.605-24.23-1.737-28.707 2.2-10.297-2.972-17.655-2.972-17.655 20.337-.154.513 25.42 8.23 35.651 13.565-8.406 21.669-35.879 23.647-45.632.087-.358-1.984-1.72-3.642-2.193-19.722-5.18-52.618 1.769-64.418 9.267-37.227 23.815-2.2 36.998-2.2 36.998s-22.908 8.611-36.117-10.817c-3.353-5.198-4.193-14.79-5.011-22.361 13.536-23.03 35.057-33.037 40.979-37.343 5.141 1.153 14.562 1.259 21.973-1.311.001 0 25.093 29.152 64.69 12.053" fill="#ACC0C6" sketch:type="MSShapeGroup"/><path d="M117.893 304.824c-2.888 4.348 3.246 3.253 6.085 2.3 2.327-.804 12.702-4.32 12.702-4.32-5.892-.172-8.072-1.278-10.176-2.779-4.886 2.681-8.612 4.799-8.612 4.799" fill="#000" sketch:type="MSShapeGroup"/></g></svg>