<svg xmlns="http://www.w3.org/2000/svg" width="512" height="512" viewBox="0 0 512 512" xmlns:xlink="http://www.w3.org/1999/xlink"><defs><path id="a" d="M.129 116.768c0 64.418 52.222 116.64 116.639 116.64 64.42 0 116.64-52.223 116.64-116.64S181.189.128 116.769.128C52.35.129.128 52.352.128 116.769"/><path id="c" d="M.129 116.768c0 64.418 52.222 116.64 116.639 116.64 64.42 0 116.64-52.223 116.64-116.64S181.189.128 116.769.128C52.35.129.128 52.352.128 116.769"/><path id="e" d="M.129 116.768c0 64.418 52.222 116.64 116.639 116.64 64.42 0 116.64-52.223 116.64-116.64S181.189.128 116.769.128C52.35.129.128 52.352.128 116.769"/></defs><g fill="none" fill-rule="evenodd"><g fill-rule="nonzero"><path fill="#000" d="M434 256c0 98.306-79.694 178-178 178S78 354.306 78 256 157.694 78 256 78s178 79.694 178 178"/><path fill="#A29061" d="M256.001 430.021c-46.44 0-90.101-18.084-122.94-50.923-32.84-32.838-50.925-76.5-50.925-122.94s18.086-90.1 50.924-122.94c32.84-32.837 76.5-50.923 122.94-50.923 46.442 0 90.104 18.085 122.942 50.923 32.836 32.839 50.923 76.5 50.923 122.94s-18.087 90.102-50.923 122.94c-32.838 32.839-76.499 50.923-122.94 50.923m0-343.453c-93.514 0-169.593 76.079-169.593 169.59 0 93.513 76.08 169.591 169.592 169.591 93.513 0 169.591-76.078 169.591-169.59 0-93.513-76.078-169.59-169.59-169.59"/></g><g transform="translate(139.232 139.232)"><mask id="b" fill="#fff"><use xlink:href="#a"/></mask><path fill="#80000B" fill-rule="nonzero" mask="url(#b)" d="M89.215-1.124h54.641v235.776H89.215z"/><mask id="d" fill="#fff"><use xlink:href="#c"/></mask><path fill="#80000B" fill-rule="nonzero" mask="url(#d)" d="M-2.469 21.992h45.646v189.544H-2.469z"/><g><mask id="f" fill="#fff"><use xlink:href="#e"/></mask><path fill="#80000B" fill-rule="nonzero" mask="url(#f)" d="M189.895 21.992h45.646v189.544h-45.646z"/></g></g><g fill-rule="nonzero"><path fill="#000" d="M290.377 190.57l11.336-22.746h-91.606l11.338 22.752-48.91 145.047 44.394 29.107 9.24-26.36h59.983l8.505 26.167 44.99-28.999-49.27-144.968zm-46.68 96.087l12.273-36.854 12.652 36.854h-24.925z"/><path fill="#A29061" d="M285.779 190.257l9.101-18.208h-77.934l9.095 18.207-49.689 147.358 17.14 16.015 8.897 4.193 10.772 4.8 9.992-28.506h66.088l9.62 29.597 18.161-9.722 19.059-15.732-50.302-148.002zM237.8 290.914l18.108-54.391 18.67 54.395-36.778-.004z"/><path fill="#817244" d="M237.801 290.914l-30.146 21.63L256 171.952l48.345 140.592-29.766-21.625-18.67-54.396zM194.9 349.637l12.755-37.091h96.69l12.457 36.224-19.179 11.136-8.383-25.789h-66.087l-8.999 25.676z"/><path fill="#A29061" d="M256.003 374.075c-65.108 0-118.076-52.969-118.076-118.075 0-65.105 52.97-118.071 118.076-118.071 65.104 0 118.07 52.966 118.07 118.071 0 65.106-52.966 118.075-118.07 118.075m0-231.345c-62.46 0-113.275 50.813-113.275 113.27 0 62.459 50.815 113.274 113.275 113.274 62.457 0 113.27-50.815 113.27-113.274 0-62.457-50.813-113.27-113.27-113.27"/><path fill="#817244" d="M256.001 369.812c-62.757 0-113.813-51.056-113.813-113.812S193.244 142.189 256 142.189c62.757 0 113.812 51.055 113.812 113.811 0 62.756-51.055 113.812-113.812 113.812m0-223.372c-60.413 0-109.563 49.148-109.563 109.56 0 60.413 49.15 109.562 109.563 109.562 60.414 0 109.562-49.149 109.562-109.562 0-60.412-49.148-109.56-109.562-109.56"/><path fill="#A39161" d="M261.241 99.802c.324-1.029.644-2.052.965-3.076a126.075 126.075 0 0 0-12.364-.039c.315 1.025.63 2.05.945 3.082a4382.812 4382.812 0 0 0-8.784 29.08c2.443-.26 4.89-.454 7.342-.572.453-1.613.902-3.222 1.355-4.833 3.484-.13 6.972-.12 10.457.034l1.345 4.841c2.451.133 4.898.343 7.339.62a4468.083 4468.083 0 0 0-8.6-29.137m-5.242 4.877c1.115 4.043 2.229 8.1 3.345 12.175a128.236 128.236 0 0 0-6.784-.023c1.146-4.066 2.292-8.117 3.44-12.152m81.635 52.68a127.523 127.523 0 0 1 5.549 4.842l4.412-2.401a125.708 125.708 0 0 1 7.298 7.487c-.842 1.443-1.683 2.89-2.526 4.335a130.18 130.18 0 0 1 4.697 5.67c5-8.912 9.924-17.76 14.774-26.54.958-.491 1.919-.98 2.874-1.467a128.338 128.338 0 0 0-7.24-7.542 4643.736 4643.736 0 0 0-29.838 15.616m15.983-.867c3.702-2.033 7.391-4.055 11.07-6.067-2.1 3.63-4.214 7.27-6.334 10.924a126.436 126.436 0 0 0-4.736-4.857m-25.137-42.683l-3.39 5.615a171.55 171.55 0 0 1 6.892 3.767c-4.307 7.142-8.617 14.28-12.925 21.42a166.35 166.35 0 0 1 5.827 3.516c4.31-7.14 8.617-14.28 12.923-21.42a178.533 178.533 0 0 1 5.724 3.767l5.035-4.469a173.786 173.786 0 0 0-20.086-12.196m-22.545-9.406c-1.764 5.941-3.52 11.883-5.283 17.821a1357.482 1357.482 0 0 0-3.8-20.54 126.903 126.903 0 0 0-7.335-1.672c.016 1.063.032 2.122.05 3.184-2.696 9.092-5.39 18.183-8.088 27.278 2.225.454 4.438.97 6.635 1.543 1.76-5.94 3.522-11.884 5.284-17.824 1.295 6.74 2.565 13.593 3.794 20.56 2.069.712 4.12 1.474 6.152 2.294l8.975-30.273a123.76 123.76 0 0 0-6.384-2.37m-160.804 37.341a126.283 126.283 0 0 0-7.24 7.54c.954.488 1.912.977 2.87 1.464 4.852 8.78 9.775 17.632 14.778 26.544a128.514 128.514 0 0 1 4.697-5.67c-.845-1.45-1.688-2.894-2.53-4.335a127.286 127.286 0 0 1 7.299-7.488l4.416 2.401a126.403 126.403 0 0 1 5.548-4.84 4505.07 4505.07 0 0 0-29.838-15.616m9.12 19.605c-2.124-3.654-4.235-7.296-6.338-10.925 3.681 2.009 7.37 4.035 11.073 6.067a125.894 125.894 0 0 0-4.735 4.858m29.872-47.541a23520.5 23520.5 0 0 0 3.388 5.615 172.04 172.04 0 0 0-6.89 3.767c4.307 7.142 8.616 14.28 12.923 21.42a166.32 166.32 0 0 0-5.826 3.516c-4.31-7.14-8.616-14.28-12.923-21.42a178.502 178.502 0 0 0-5.723 3.767c-1.682-1.49-3.36-2.98-5.036-4.469a173.856 173.856 0 0 1 20.087-12.196m31.97 13.872c-2.291-8.018-4.587-16.035-6.879-24.051a142.94 142.94 0 0 0-6.45 2.178l8.685 30.355a144.55 144.55 0 0 1 17.594-5.167c.052-2.248.106-4.492.16-6.732a143.188 143.188 0 0 0-13.11 3.417m-9 246.21a218.772 218.772 0 0 1-6.195-2.808c-4.341 9.591-8.684 19.175-13.025 28.764 2.052.967 4.118 1.902 6.195 2.803l13.024-28.76m31.323 8.594l-1.48 6.39a133.584 133.584 0 0 1-7.741-1.342c-1.882 8.123-3.767 16.245-5.65 24.37a133.71 133.71 0 0 1-6.631-1.537c1.883-8.122 3.765-16.246 5.65-24.37-2.535-.657-5.05-1.391-7.542-2.202.49-2.128.986-4.258 1.48-6.39a129.924 129.924 0 0 0 21.914 5.081m17.264 19.946c3.552.02 7.106-.103 10.65-.372-.044-2.188-.09-4.374-.133-6.56-3.543.274-7.095.398-10.65.375-.035-1.85-.072-3.7-.11-5.554 4.516.025 9.033-.182 13.53-.629l-2.132-6.373c-6.097.51-12.224.584-18.336.228.213 10.522.426 21.043.637 31.567 6.114.356 12.237.281 18.338-.228.624-2.24 1.244-4.486 1.867-6.737-4.498.443-9.016.655-13.533.624l-.128-6.341m48.07-19.18c-1.203-4.31-5.588-6.5-9.87-5.189a133.518 133.518 0 0 1-14.46 3.573c.594.945 1.187 1.887 1.782 2.827 2.555 9.134 5.106 18.267 7.664 27.4a133.429 133.429 0 0 0 13.518-3.391c4.28-1.313 6.706-6.131 5.5-10.434-1.374-4.928-2.753-9.856-4.134-14.785m-2.299 17.014a1.604 1.604 0 0 1-1.066 1.958c-2.196.673-4.411 1.286-6.642 1.841-1.659-5.924-3.312-11.848-4.97-17.774 2.23-.559 4.445-1.173 6.64-1.844a1.505 1.505 0 0 1 1.904 1.035c1.38 4.927 2.756 9.858 4.134 14.784M183.702 361.07c-3.7 4.971-7.399 9.94-11.099 14.914 1.1-6.768 2.264-13.63 3.497-20.58a133.884 133.884 0 0 1-5.013-4.237 68539.658 68539.658 0 0 0-18.849 25.332 131.755 131.755 0 0 0 5.206 4.389c3.7-4.973 7.399-9.946 11.098-14.915-1.23 6.945-2.39 13.803-3.486 20.565a131.738 131.738 0 0 0 5.499 3.59l18.845-25.332a131.527 131.527 0 0 1-5.698-3.726m-25.612-23.472c-6.328 4.904-12.656 9.805-18.983 14.707a1.614 1.614 0 0 1-2.22-.248 119.551 119.551 0 0 1-3.287-4.208 1.595 1.595 0 0 1 .307-2.201c6.327-4.904 12.656-9.805 18.983-14.709a123.571 123.571 0 0 1-4.364-6.424c-.652.906-1.305 1.814-1.953 2.718-5.503 4.262-11.01 8.53-16.517 12.794-3.533 2.74-4.46 8.054-1.785 11.644a119.55 119.55 0 0 0 3.585 4.59c2.838 3.469 8.238 3.876 11.768 1.141 6.33-4.905 12.657-9.806 18.987-14.708a123.005 123.005 0 0 1-4.521-5.096m179.452 25.31c3.6-2.725 7.07-5.629 10.384-8.703-1.849-1.26-3.695-2.52-5.548-3.79a136.078 136.078 0 0 1-15.224 11.852l2.725 1.912 17.644 22.324c1.876-1.278 3.72-2.6 5.531-3.967-2.666-3.376-5.333-6.75-8.001-10.125a135.67 135.67 0 0 0 8.24-6.756l-4.066-5.146a135.644 135.644 0 0 1-8.24 6.757l-3.445-4.358m33.081-34.274c-3.567-2.703-8.459-1.85-11.102 1.76a171.784 171.784 0 0 1-3.516 4.64c-2.76 3.525-2.257 8.464 1.31 11.169 4.37 3.309 8.745 6.622 13.116 9.936 3.563 2.7 8.861 2.15 11.619-1.372a184.032 184.032 0 0 0 3.515-4.64c2.646-3.61 1.736-8.857-1.823-11.555l-2.048-1.55a174.503 174.503 0 0 1-3.87 5.598c.68.516 1.363 1.031 2.048 1.55.681.517.833 1.502.32 2.193a175.83 175.83 0 0 1-3.221 4.253c-.53.675-1.516.8-2.199.282-4.372-3.312-8.744-6.626-13.116-9.937a1.518 1.518 0 0 1-.276-2.158 176.66 176.66 0 0 0 3.222-4.252 1.517 1.517 0 0 1 2.15-.32c.472.355.944.717 1.417 1.073a177.104 177.104 0 0 0 3.87-5.596c-.47-.36-.943-.715-1.416-1.074m4.135-149.862c14.973 22.993 22.874 49.644 22.874 77.23 0 22.108-4.951 43.29-14.718 62.953l3.88 1.932c10.067-20.272 15.17-42.103 15.17-64.885 0-29.231-8.61-57.447-24.9-81.596l-2.306 4.366zm-237.6 0c-14.973 22.993-22.874 49.644-22.874 77.23 0 22.108 4.951 43.29 14.717 62.953l-3.879 1.932c-10.066-20.272-15.17-42.103-15.17-64.885 0-29.231 8.61-57.447 24.9-81.596l2.307 4.366z"/></g></g></svg>