<?xml version="1.0" encoding="UTF-8" standalone="no"?>
<svg width="512px" height="512px" viewBox="0 0 512 512" version="1.1" xmlns="http://www.w3.org/2000/svg" xmlns:xlink="http://www.w3.org/1999/xlink" xmlns:sketch="http://www.bohemiancoding.com/sketch/ns">
    <!-- Generator: Sketch 3.2.2 (9983) - http://www.bohemiancoding.com/sketch -->
    <title>mls</title>
    <desc>Created with Sketch.</desc>
    <defs></defs>
    <g id="Leagues" stroke="none" stroke-width="1" fill="none" fill-rule="evenodd" sketch:type="MSPage">
        <g id="mls" sketch:type="MSArtboardGroup">
            <g sketch:type="MSLayerGroup" transform="translate(91.000000, 120.000000)" id="Group">
                <g sketch:type="MSShapeGroup">
                    <path d="M295.859872,11.8829856 L38.18288,11.8829856 C23.703312,11.8829856 11.974568,23.5507383 11.974568,37.955404 L11.974568,234.043267 C11.974568,248.438633 23.703312,260.106386 38.18288,260.106386 L295.859872,260.106386 C310.29936,260.106386 322.046808,248.438633 322.046808,234.043267 L322.046808,37.955404 C322.045472,23.5520669 310.29936,11.8829856 295.859872,11.8829856 L295.859872,11.8829856 Z M140.29336,239.040127 L113.889992,239.040127 L113.889992,201.784894 L98.187984,239.040127 L70.991032,239.040127 L55.32376,201.784894 L55.32376,239.040127 L28.907032,239.040127 L28.907032,191.700831 L74.218808,191.700831 L84.607544,217.523473 L94.99628,191.700831 L140.29336,191.700831 L140.29336,239.040127 L140.29336,239.040127 Z M43.29308,181.636697 C35.915688,181.636697 29.962472,175.703175 29.962472,168.391898 L29.962472,92.1821548 L29.962472,82.6029591 L29.962472,70.9259062 L29.962472,64.2098404 L29.962472,47.1931499 C29.962472,39.8725718 35.915688,33.9324075 43.29308,33.9324075 L52.409944,33.9324075 L54.96304,33.9324075 L65.374488,33.9324075 L68.791976,33.9324075 C72.359096,46.203344 79.61892,47.6169728 100.256112,45.2494102 C113.514576,43.6922927 118.357576,42.4407528 120.08636,41.67548 C121.634784,41.000552 125.31012,39.3623899 129.089664,40.811891 C131.737616,41.8202973 133.811088,44.0350711 135.431656,47.5824293 C136.618024,50.3020706 136.654096,53.3445613 136.527176,56.036302 C137.73492,56.8640189 139.03084,58.2152037 139.967376,60.511022 C142.420272,66.4432146 145.137696,72.7646866 147.482376,78.6517069 C149.04416,82.8102204 159.54512,99.214427 166.51236,110.026562 L175.881728,123.008299 C175.881728,123.008299 178.633888,126.07869 194.60844,143.327885 C199.293792,148.846884 207.03324,158.066029 197.673224,170.94015 C195.7574,173.154923 192.703304,175.846664 188.901048,177.980393 C191.94312,177.124776 194.536296,175.77492 196.768752,174.18193 C199.005216,172.58894 200.842216,170.770089 202.39064,168.933966 C211.357872,156.672329 204.754024,147.72289 200.04596,142.122847 C210.190208,146.218916 222.687152,148.379217 222.687152,148.379217 L225.945656,143.814153 C221.442,143.156496 207.28708,140.672017 196.355928,134.802268 C195.794808,135.279235 195.220328,135.766831 194.644512,136.215897 C192.879656,134.314673 191.331232,132.632667 189.964504,131.183166 C188.593768,129.707093 187.4074,128.399752 186.416088,127.32093 C186.470864,127.285058 186.539,127.230585 186.611144,127.194713 C186.611144,127.194713 184.52832,112.006174 186.760776,99.0244374 C189.2778,97.3397744 192.541648,97.4752915 192.541648,97.4752915 C189.495568,94.7835508 180.20636,90.3991755 174.349336,87.5984897 C170.189032,88.6613686 165.848368,91.4341538 162.376104,94.0807221 C160.791608,91.5776424 159.275248,89.1117635 157.90852,86.8518173 C157.726824,86.6086838 157.586544,86.3469498 157.436912,86.1131165 C155.693432,83.1968426 154.213144,80.6485906 153.263248,78.8124673 C152.774272,77.9116775 152.429584,77.1822769 152.254568,76.6508375 C149.873816,70.781089 147.157728,64.4343736 144.726208,58.5367245 C143.784328,56.2143342 142.489744,54.8817498 141.263296,54.034104 C141.412928,51.3609636 141.37552,48.3357447 140.154416,45.5988316 C138.59664,42.0514734 135.319432,38.4230707 132.676824,37.396064 C130.783712,36.6759636 128.751656,36.3159134 127.004168,36.2255687 L126.53256,33.9324075 L290.708256,33.9324075 C298.090992,33.9324075 304.052224,39.8739004 304.052224,47.1931499 L304.052224,168.391898 C304.052224,175.703175 298.090992,181.636697 290.708256,181.636697 L250.923512,181.636697 C241.848064,185.922756 231.979032,188.424507 221.821424,188.893502 C217.48076,188.750013 215.57028,185.552077 215.57028,185.552077 C215.57028,185.552077 214.095336,188.748685 209.808112,188.415207 C200.913024,187.370928 191.801504,184.489198 183.7668,180.266912 C181.317912,181.113229 178.687328,181.635368 175.953872,181.635368 L163.631944,181.635368 L156.575192,181.635368 L154.283952,181.635368 L43.29308,181.635368 L43.29308,181.636697 Z M222.922288,239.040127 L154.624632,239.040127 L154.624632,191.700831 L185.279152,191.700831 L185.279152,225.1297 L222.922288,225.1297 L222.922288,239.040127 L222.922288,239.040127 Z M263.135888,240.921422 C246.274232,240.921422 231.309696,238.55386 231.309696,238.55386 L231.309696,224.131922 C231.309696,224.131922 244.029752,227.553063 259.73176,227.553063 C263.135888,227.553063 272.465176,227.200985 272.465176,225.131028 C272.465176,220.656308 230.431944,225.374162 230.431944,206.296815 C230.431944,196.88768 241.848064,189.792963 272.465176,189.792963 C282.673552,189.792963 299.927992,191.702159 299.927992,191.702159 L299.927992,206.01648 C299.927992,206.01648 287.895976,203.396484 275.258752,203.396484 C266.68564,203.396484 263.135888,204.278674 263.135888,205.494341 C263.135888,209.816272 305.11568,205.160863 305.11568,224.130593 C305.11568,238.320026 281.863936,240.921422 263.135888,240.921422 L263.135888,240.921422 Z M318.085568,59.0774641 L309.760952,61.6987891 L318.085568,64.3001851 L318.085568,66.0459636 L307.85448,66.0459636 L307.85448,64.965813 L316.567872,64.965813 L307.85448,62.2288999 L307.85448,61.1487493 L316.567872,58.4118363 L307.85448,58.4118363 L307.85448,57.3316856 L318.085568,57.3316856 L318.085568,59.0774641 L318.085568,59.0774641 Z M318.085568,55.8821846 L316.980696,55.8821846 L316.980696,52.7121484 L307.85448,52.7121484 L307.85448,51.6319977 L316.980696,51.6319977 L316.980696,48.5974786 L318.085568,48.5974786 L318.085568,55.8821846 L318.085568,55.8821846 Z" id="Shape" fill="#FFFFFF"></path>
                    <path d="M230.735216,65.8652742 C228.430616,61.6522882 221.96304,54.1975216 212.868888,48.4991623 C202.389304,49.4172239 192.806176,52.8210935 184.703336,58.0690578 C180.88772,70.4755113 178.257136,81.8735584 178.257136,81.8735584 L182.720712,79.8740176 C182.720712,79.8740176 189.239056,82.0980916 196.05132,86.6086838 C196.05132,86.6086838 209.051936,78.5055611 222.77132,77.7681889 C222.77132,77.7681889 225.437976,68.2700377 226.283664,65.5862685 C227.983056,64.5419901 230.735216,65.8652742 230.735216,65.8652742" id="Shape" fill="#FFFFFF"></path>
                    <path d="M250.398464,108.818866 L253.336328,104.317574 C253.336328,104.317574 262.326272,104.94733 269.4378,105.126691 C269.4378,105.126691 272.769784,98.5275416 274.426424,87.2915834 C274.426424,87.2915834 271.149216,77.4692542 261.118528,67.2696029 L262.181984,63.7036444 C250.996992,64.0464228 241.72248,65.7111568 237.973664,67.6030812 L232.967672,83.6897527 C236.303664,86.5728116 243.844048,94.95494 250.398464,108.818866" id="Shape" fill="#FFFFFF"></path>
                    <path d="M241.884136,158.561597 C240.331704,150.269813 237.958968,143.274741 237.958968,143.274741 C242.91152,139.250416 251.371072,127.473719 253.823968,121.675714 C259.870704,121.764731 269.2374,122.13541 269.2374,122.13541 C270.409072,121.145604 271.957496,117.300639 271.957496,117.300639 L250.510688,116.148744 C250.398464,116.624383 241.630296,133.019289 232.6978,141.284501 C235.758576,149.756974 237.650352,160.433592 237.650352,160.433592 L241.884136,158.561597 L241.884136,158.561597 Z" id="Shape" fill="#FFFFFF"></path>
                    <path d="M226.285,65.5862685 C225.437976,68.2700377 222.772656,77.7681889 222.772656,77.7681889 C209.051936,78.5068897 196.052656,86.6086838 196.052656,86.6086838 C189.240392,82.096763 182.722048,79.8740176 182.722048,79.8740176 L178.258472,81.8735584 C186.63252,85.7889384 196.767416,92.1821548 196.767416,92.1821548 C200.91436,89.8318639 211.718592,84.367338 225.691816,82.2880812 L230.73388,65.8666028 C230.735216,65.8652742 227.983056,64.5419901 226.285,65.5862685" id="Shape" fill="#A7B1B7"></path>
                    <path d="M279.432416,88.0581848 C275.833232,78.5414332 269.777144,70.2509781 262.180648,63.704973 L261.117192,67.2709315 C271.14788,77.4719114 274.425088,87.292912 274.425088,87.292912 C272.768448,98.5288702 269.436464,105.128019 269.436464,105.128019 C262.324936,104.94733 253.334992,104.318903 253.334992,104.318903 L250.397128,108.820195 L271.830576,110.324168 C277.182592,103.669218 279.432416,88.0581848 279.432416,88.0581848" id="Shape" fill="#A7B1B7"></path>
                    <path d="M186.75944,99.0244374 C184.52832,112.006174 186.609808,127.194713 186.609808,127.194713 C186.537664,127.229257 186.469528,127.283729 186.414752,127.32093 C187.406064,128.40108 188.592432,129.707093 189.963168,131.183166 C190.823552,130.497609 191.657216,129.796109 192.375984,129.103909 C191.72936,124.512272 190.270448,111.547808 192.538976,97.4752915 C192.540312,97.4752915 189.276464,97.341103 186.75944,99.0244374" id="Shape" fill="#A7B1B7"></path>
                    <path d="M222.687152,148.379217 C222.687152,148.379217 210.190208,146.218916 200.04596,142.122847 C204.752688,147.72289 211.357872,156.671001 202.39064,168.933966 C200.842216,170.770089 199.005216,172.58894 196.768752,174.18193 C201.725312,175.911765 206.930368,177.027788 211.792072,177.855505 C211.792072,177.855505 224.683136,173.731535 230.596272,163.199734 C230.627,155.384917 225.946992,143.815481 225.946992,143.815481 L222.687152,148.379217 L222.687152,148.379217 Z" id="Shape" fill="#A7B1B7"></path>
                    <path d="M269.238736,122.13541 C269.238736,122.13541 259.873376,121.766059 253.825304,121.675714 C251.372408,127.473719 242.91152,139.250416 237.960304,143.274741 C237.960304,143.274741 240.331704,150.269813 241.885472,158.561597 L237.653024,160.433592 C249.105216,165.205918 261.190672,162.334817 261.190672,162.334817 C269.619496,155.663923 275.671576,146.974889 279.039632,137.467437 C279.039632,137.467437 277.885328,124.638489 271.960168,117.300639 C271.958832,117.300639 270.410408,121.145604 269.238736,122.13541" id="Shape" fill="#A7B1B7"></path>
                    <path d="M194.60844,143.327885 C178.633888,126.07869 175.881728,123.008299 175.881728,123.008299 L166.51236,110.026562 C159.54512,99.2130984 149.04416,82.8102204 147.482376,78.6517069 C145.137696,72.763358 142.421608,66.4432146 139.967376,60.511022 C139.03084,58.2138751 137.736256,56.8640189 136.527176,56.036302 C136.654096,53.3445613 136.618024,50.3020706 135.431656,47.5824293 C133.811088,44.0350711 131.737616,41.8202973 129.089664,40.811891 C125.31012,39.3623899 121.633448,41.0018806 120.08636,41.67548 C118.357576,42.4407528 113.514576,43.6936213 100.256112,45.2494102 C79.61892,47.6169728 72.359096,46.2046726 68.791976,33.9324075 L65.374488,33.9324075 C66.23888,37.8026152 67.931592,43.4292301 71.045808,46.8596717 C76.106576,52.4955868 92.530024,51.1537022 100.817232,50.2090687 C109.27812,49.2099625 118.393648,47.8959785 122.12376,46.2392161 C125.559952,44.700699 128.406968,44.2224035 130.819784,49.5979133 C131.955384,52.1262364 131.50248,55.6828948 131.30876,58.5739253 C131.18184,60.3117322 133.812424,58.5832255 135.247288,62.3365164 C137.736256,68.6035159 140.978728,75.5268431 142.797024,80.3523131 C144.580584,85.1419109 154.810336,101.04125 162.768888,113.492876 C163.470288,114.491982 172.746136,127.14024 172.746136,127.14024 C172.746136,127.14024 185.642544,140.400983 190.377328,146.010326 C195.184256,151.717985 201.018568,158.064701 193.478184,168.203237 C193.129488,168.716076 192.776784,169.266115 192.341248,169.786926 C196.876968,160.072213 178.847648,150.00675 173.6466,146.60421 C167.522376,142.615757 146.509768,130.32622 133.988776,121.071202 C120.155832,110.799807 75.459952,88.5696953 54.818752,80.6113898 C37.74868,74.0308411 32.723984,79.0090999 29.963808,82.6016305 L29.963808,92.1808262 C31.77008,94.6560053 33.788776,97.0793691 36.563648,99.456232 L35.803464,105.739175 C35.803464,105.739175 35.098056,108.468116 41.438712,109.546938 C46.106696,110.340111 47.685848,108.466787 48.14276,106.485847 C49.450704,107.089031 50.89492,107.692215 52.443344,108.268826 C73.387816,116.371949 89.00432,119.612401 102.222704,129.372286 C109.550664,134.80094 120.089032,151.015157 128.481784,160.441564 C128.481784,160.648825 128.445712,160.775042 128.445712,160.775042 L127.58132,168.825021 C127.58132,168.825021 126.82648,171.561934 133.23928,172.623484 C135.720232,173.064579 139.359496,172.550411 140.418944,169.805526 C145.932616,172.956962 151.120304,175.145164 154.48836,176.530892 L154.289296,181.636697 L156.580536,181.636697 L157.35408,175.595559 C157.693424,174.128786 159.495688,173.669091 160.79428,173.569446 C163.709432,173.344913 166.353376,175.514514 166.353376,175.514514 C164.967944,175.280681 164.035416,179.395351 163.637288,181.636697 L175.959216,181.636697 C178.692672,181.636697 181.323256,181.113229 183.772144,180.26824 C185.591776,179.665056 187.32056,178.871883 188.905056,177.980393 C192.707312,175.847993 195.762744,173.154923 197.677232,170.94015 C207.03324,158.066029 199.293792,148.846884 194.60844,143.327885 M45.275704,105.541213 C41.25568,102.8043 38.395304,104.632452 38.395304,104.632452 L39.228968,98.0505747 C39.581672,96.5652015 41.351872,96.1413785 42.669168,96.0523624 C45.59768,95.7999287 48.228264,97.9615586 48.228264,97.9615586 C46.28572,97.6825529 45.275704,105.541213 45.275704,105.541213 M56.836112,94.9722118 C52.802728,92.2273271 49.995792,94.0541502 49.995792,94.0541502 L50.782696,87.4457009 C51.180824,85.9868996 52.960376,85.5458049 54.260304,85.4567888 C57.162096,85.1950549 59.791344,87.3739565 59.791344,87.3739565 C57.810056,87.0776791 56.836112,94.9722118 56.836112,94.9722118 M78.125272,114.121303 C78.125272,114.121303 101.1018,115.689049 103.8406,117.596917 C109.856608,121.764731 111.331552,130.866959 111.331552,130.866959 C106.941456,126.861235 94.54872,118.092484 78.125272,114.121303 M136.94,168.878165 C132.942688,166.13328 130.064944,167.968075 130.064944,167.968075 L130.928,161.388854 C131.286048,159.903481 133.050904,159.479658 134.350832,159.34547 C137.265984,159.110308 139.895232,161.30781 139.895232,161.30781 C137.984752,161.018175 136.94,168.878165 136.94,168.878165 M153.077544,153.862344 C149.04416,151.117459 146.201152,152.961554 146.201152,152.961554 L147.029472,146.362405 C147.404888,144.886332 149.152376,144.453208 150.469672,144.344263 C153.424904,144.10113 156.032776,146.289332 156.032776,146.289332 C154.122296,145.993054 153.077544,153.862344 153.077544,153.862344 M177.26716,169.922443 C173.26584,167.212102 170.409472,169.049554 170.409472,169.049554 L171.233784,162.423833 C171.631912,160.95706 173.375392,160.533237 174.656616,160.442892 C177.611848,160.182487 180.242432,162.36936 180.242432,162.36936 C178.294544,162.054482 177.26716,169.922443 177.26716,169.922443" id="Shape" fill="#A7B1B7"></path>
                    <path d="M76.758544,76.6694378 C61.557536,61.0039321 40.590352,61.3918828 40.590352,61.3918828 C40.590352,61.3918828 38.431376,50.4535308 54.96304,33.9324075 L52.409944,33.9324075 C39.028568,41.0364241 32.814832,55.476962 29.962472,64.2098404 L29.962472,70.9259062 C46.483448,59.5185589 76.758544,76.6694378 76.758544,76.6694378" id="Shape" fill="#A7B1B7"></path>
                    <path d="M133.236608,172.624813 C126.822472,171.561934 127.578648,168.826349 127.578648,168.826349 L128.44304,160.77637 C128.44304,160.77637 128.479112,160.650154 128.479112,160.442892 C120.08636,151.016485 109.549328,134.802268 102.220032,129.373615 C89.001648,119.61373 73.385144,116.373278 52.440672,108.270155 C50.892248,107.693543 49.448032,107.090359 48.140088,106.487176 C47.683176,108.468116 46.104024,110.340111 41.43604,109.548267 C35.094048,108.468116 35.800792,105.740503 35.800792,105.740503 L36.560976,99.4575606 C33.786104,97.0806977 31.767408,94.6586625 29.961136,92.1821548 L29.961136,168.391898 C29.961136,175.703175 35.914352,181.636697 43.291744,181.636697 L154.283952,181.636697 L154.483016,176.530892 C151.11496,175.145164 145.927272,172.958291 140.4136,169.805526 C139.356824,172.55174 135.71756,173.065907 133.236608,172.624813" id="Shape" fill="#009A66"></path>
                    <path d="M242.300968,113.033181 C241.631632,114.527854 231.383176,136.08968 208.907648,131.579088 C208.907648,131.579088 219.034528,135.944863 226.633696,136.449731 C226.633696,136.449731 236.370464,126.879835 242.300968,113.033181" id="Shape" fill="#009A66"></path>
                    <path d="M283.541952,93.4509664 C286.172536,109.585467 281.591392,119.245708 281.591392,119.245708 L283.411024,127.14024 C289.735648,110.115578 283.541952,93.4509664 283.541952,93.4509664" id="Shape" fill="#009A66"></path>
                    <path d="M247.95492,170.112433 C242.513392,174.658897 233.257584,176.953387 225.226888,177.278893 C222.759296,179.728829 219.034528,181.410835 219.034528,181.410835 C240.494696,181.87053 255.119888,170.715616 255.119888,170.715616 C255.119888,170.715616 252.240808,170.95875 247.95492,170.112433" id="Shape" fill="#009A66"></path>
                    <path d="M29.962472,47.1931499 L29.962472,64.2098404 C32.814832,55.476962 39.029904,41.0364241 52.409944,33.9324075 L43.29308,33.9324075 C35.914352,33.9324075 29.962472,39.8739004 29.962472,47.1931499" id="Shape" fill="#006BB6"></path>
                    <path d="M290.708256,33.9324075 L126.53256,33.9324075 L127.004168,36.2282259 C128.751656,36.3185706 130.783712,36.6786208 132.676824,37.3987212 C135.320768,38.4243993 138.597976,42.0541306 140.154416,45.6014888 C141.376856,48.3384019 141.412928,51.3636208 141.263296,54.0367612 C142.489744,54.884407 143.784328,56.2169914 144.726208,58.5393817 C147.156392,64.4357022 149.873816,70.7837462 152.254568,76.6534947 C152.43092,77.1849341 152.775608,77.9143347 153.263248,78.8151245 C158.265232,69.3873891 165.077496,61.3573393 173.104184,54.9747517 C175.793552,52.9034666 179.160272,54.2732517 179.160272,54.2732517 C179.160272,54.2732517 178.798216,51.2480327 181.319248,49.2670923 C189.462168,44.3871497 198.461464,41.0390813 207.8816,39.4527346 C212.566952,39.1112848 215.246968,41.9465141 215.246968,41.9465141 C215.246968,41.9465141 217.301736,38.6250177 221.118688,38.4177563 C229.261608,38.4908293 237.544808,39.8765576 245.63028,42.79416 C250.962256,44.7033562 255.918816,47.1785353 260.491944,50.085509 C263.914776,52.9579391 262.976904,56.3697802 262.976904,56.3697802 C262.976904,56.3697802 267.228056,55.2710292 269.96552,57.2612699 C277.886664,64.3812296 284.175216,73.1154367 288.407664,82.7398047 C289.452416,86.8717463 287.361576,89.4478989 287.361576,89.4478989 C287.361576,89.4478989 291.213264,90.7260107 292.386272,94.1285517 C295.39628,105.913221 295.61004,118.59868 292.507848,131.023734 C291.358888,135.138404 287.958768,136.091009 287.958768,136.091009 C287.958768,136.091009 289.990824,138.78275 288.83652,142.105575 C284.74836,151.820288 278.931416,160.272832 271.785152,167.250631 C268.74308,169.960972 264.88204,169.2143 264.88204,169.2143 C264.88204,169.2143 265.103816,172.850674 262.148584,175.191665 C258.581464,177.668173 254.81528,179.801902 250.92752,181.639354 L290.712264,181.639354 C298.095,181.639354 304.056232,175.705833 304.056232,168.394555 L304.056232,47.1931499 C304.052224,39.8739004 298.090992,33.9324075 290.708256,33.9324075" id="Shape" fill="#006BB6"></path>
                    <path d="M199.940416,126.178335 C204.440064,97.1511134 226.773976,91.6520439 226.773976,91.6520439 C211.881584,91.7782608 200.465464,99.3672159 200.465464,99.3672159 C198.949104,114.158504 199.940416,126.178335 199.940416,126.178335" id="Shape" fill="#006BB6"></path>
                    <path d="M157.435576,86.1131165 C157.585208,86.3469498 157.725488,86.6086838 157.907184,86.8518173 C167.255176,71.8971118 175.555744,67.6389533 175.555744,67.6389533 L177.375376,60.8777152 C167.217768,66.6225754 160.482992,79.2362903 157.435576,86.1131165" id="Shape" fill="#006BB6"></path>
                    <path d="M221.1748,47.1214056 L226.339776,51.4885091 C237.276272,49.4358243 257.538048,59.1505371 257.538048,59.1505371 C239.018416,45.9070665 221.1748,47.1214056 221.1748,47.1214056" id="Shape" fill="#006BB6"></path>
                    <path d="M139.28468,107.13686 C127.271368,97.1511134 112.233352,89.2114084 101.211352,83.215443 C90.189352,77.2553498 68.144016,71.2593844 84.177352,81.2345025 C84.177352,81.2345025 117.225984,100.159061 129.27136,108.154567 C141.30204,116.103572 162.333352,132.040112 167.321976,133.020618 C172.35068,134.018395 147.459664,113.90607 139.28468,107.13686" id="Shape" fill="#006BB6"></path>
                    <path d="M295.859872,0 L38.18288,0 C17.106144,0 0,17.0233335 0,37.955404 L0,234.077811 C0,254.99261 17.106144,271.998671 38.181544,271.998671 L295.858536,271.998671 C316.85244,271.998671 334,254.99261 334,234.077811 L334,37.955404 C334,17.0233335 316.853776,0 295.859872,0 L295.859872,0 Z M322.045472,234.043267 C322.045472,248.438633 310.29936,260.106386 295.858536,260.106386 L38.18288,260.106386 C23.703312,260.106386 11.974568,248.438633 11.974568,234.043267 L11.974568,37.955404 C11.974568,23.5507383 23.703312,11.8829856 38.18288,11.8829856 L295.859872,11.8829856 C310.29936,11.8829856 322.046808,23.5507383 322.046808,37.955404 L322.046808,234.043267 L322.045472,234.043267 Z" id="Shape" fill="#000000"></path>
                    <path d="M84.607544,217.523473 L74.218808,191.700831 L28.907032,191.700831 L28.907032,239.040127 L55.325096,239.040127 L55.325096,201.784894 L70.991032,239.040127 L98.187984,239.040127 L113.889992,201.784894 L113.889992,239.040127 L140.29336,239.040127 L140.29336,191.700831 L94.99628,191.700831 L84.607544,217.523473 Z" id="Shape" fill="#000000"></path>
                    <path d="M185.279152,191.700831 L154.624632,191.700831 L154.624632,239.040127 L222.922288,239.040127 L222.922288,225.1297 L185.279152,225.1297 L185.279152,191.700831 Z" id="Shape" fill="#000000"></path>
                    <path d="M263.135888,205.494341 C263.135888,204.278674 266.684304,203.396484 275.258752,203.396484 C287.895976,203.396484 299.927992,206.01648 299.927992,206.01648 L299.927992,191.702159 C299.927992,191.702159 282.672216,189.792963 272.465176,189.792963 C241.848064,189.792963 230.431944,196.88768 230.431944,206.296815 C230.431944,225.372833 272.465176,220.656308 272.465176,225.131028 C272.465176,227.202313 263.135888,227.553063 259.73176,227.553063 C244.029752,227.553063 231.309696,224.131922 231.309696,224.131922 L231.309696,238.55386 C231.309696,238.55386 246.274232,240.921422 263.135888,240.921422 C281.8626,240.921422 305.11568,238.320026 305.11568,224.130593 C305.11568,205.160863 263.135888,209.816272 263.135888,205.494341" id="Shape" fill="#000000"></path>
                    <path d="M307.85448,52.7121484 L316.980696,52.7121484 L316.980696,55.8821846 L318.085568,55.8821846 L318.085568,48.5974786 L316.980696,48.5974786 L316.980696,51.6319977 L307.85448,51.6319977 L307.85448,52.7121484 Z" id="Shape" fill="#000000"></path>
                    <path d="M307.85448,58.4118363 L316.569208,58.4118363 L307.85448,61.1474207 L307.85448,62.2288999 L316.569208,64.9644844 L307.85448,64.9644844 L307.85448,66.0459636 L318.085568,66.0459636 L318.085568,64.2988565 L309.760952,61.6974605 L318.085568,59.0774641 L318.085568,57.330357 L307.85448,57.330357 L307.85448,58.4118363 Z" id="Shape" fill="#000000"></path>
                    <path d="M177.375376,60.8777152 L175.555744,67.6389533 C175.555744,67.6389533 167.25384,71.8971118 157.907184,86.8518173 C159.273912,89.1117635 160.790272,91.578971 162.374768,94.0807221 C165.847032,91.4341538 170.187696,88.6613686 174.348,87.5984897 C180.205024,90.3978469 189.494232,94.7822222 192.540312,97.4752915 C190.271784,111.547808 191.730696,124.512272 192.37732,129.103909 C191.657216,129.796109 190.824888,130.498938 189.964504,131.183166 C191.331232,132.632667 192.879656,134.314673 194.644512,136.215897 C195.220328,135.765502 195.794808,135.279235 196.355928,134.802268 C207.288416,140.672017 221.442,143.156496 225.945656,143.814153 C225.945656,143.814153 230.625664,155.383589 230.594936,163.198406 C224.683136,173.731535 211.790736,177.854177 211.790736,177.854177 C206.929032,177.02646 201.723976,175.910437 196.767416,174.180601 C194.536296,175.773591 191.941784,177.124776 188.899712,177.979065 C187.315216,178.870554 185.586432,179.663728 183.7668,180.266912 C191.801504,184.489198 200.913024,187.370928 209.808112,188.415207 C214.094,188.748685 215.57028,185.552077 215.57028,185.552077 C215.57028,185.552077 217.48076,188.748685 221.821424,188.893502 C231.979032,188.424507 241.846728,185.922756 250.923512,181.636697 C254.811272,179.799245 258.577456,177.666844 262.144576,175.189008 C265.099808,172.848017 264.878032,169.211643 264.878032,169.211643 C264.878032,169.211643 268.739072,169.959644 271.781144,167.247974 C278.928744,160.270174 284.745688,151.81763 288.832512,142.102918 C289.986816,138.780093 287.95476,136.088352 287.95476,136.088352 C287.95476,136.088352 291.353544,135.134418 292.50384,131.021077 C295.604696,118.596023 295.392272,105.911892 292.382264,94.1258945 C291.210592,90.7220249 287.357568,89.4452417 287.357568,89.4452417 C287.357568,89.4452417 289.448408,86.8704177 288.403656,82.7371475 C284.171208,73.1127795 277.882656,64.379901 269.961512,57.2586127 C267.222712,55.268372 262.972896,56.367123 262.972896,56.367123 C262.972896,56.367123 263.910768,52.9552819 260.487936,50.0828518 C255.916144,47.1758781 250.959584,44.6993704 245.626272,42.7915028 C237.542136,39.8739004 229.258936,38.4881721 221.11468,38.4150991 C217.299064,38.6223605 215.24296,41.9438569 215.24296,41.9438569 C215.24296,41.9438569 212.562944,39.1086276 207.877592,39.4500774 C198.457456,41.0350955 189.45816,44.3844925 181.31524,49.2644351 C178.794208,51.244047 179.156264,54.2705945 179.156264,54.2705945 C179.156264,54.2705945 175.788208,52.902138 173.100176,54.9720945 C165.074824,61.3560107 158.26256,69.3860605 153.25924,78.8124673 C154.209136,80.6485906 155.689424,83.1968426 157.432904,86.1131165 C160.482992,79.2362903 167.217768,66.6225754 177.375376,60.8777152 M200.465464,99.3658873 C200.465464,99.3658873 211.881584,91.7769322 226.773976,91.6507153 C226.773976,91.6507153 204.440064,97.1511134 199.940416,126.177006 C199.940416,126.178335 198.949104,114.158504 200.465464,99.3658873 M226.633696,136.449731 C219.034528,135.944863 208.907648,131.579088 208.907648,131.579088 C231.38184,136.08968 241.630296,114.527854 242.300968,113.033181 C236.370464,126.879835 226.633696,136.449731 226.633696,136.449731 M219.034528,181.410835 C219.034528,181.410835 222.759296,179.727501 225.226888,177.278893 C233.257584,176.954715 242.513392,174.658897 247.95492,170.112433 C252.240808,170.95875 255.119888,170.715616 255.119888,170.715616 C255.119888,170.715616 240.494696,181.87053 219.034528,181.410835 M261.189336,162.334817 C261.189336,162.334817 249.10388,165.205918 237.651688,160.433592 C237.651688,160.433592 235.758576,149.756974 232.699136,141.284501 C241.630296,133.019289 250.398464,116.624383 250.512024,116.148744 L271.958832,117.300639 C277.883992,124.637161 279.038296,137.467437 279.038296,137.467437 C275.67024,146.974889 269.619496,155.662595 261.189336,162.334817 M283.541952,93.4509664 C283.541952,93.4509664 289.734312,110.115578 283.411024,127.14024 L281.591392,119.245708 C281.591392,119.245708 286.172536,109.584139 283.541952,93.4509664 M262.181984,63.704973 C269.77848,70.2509781 275.834568,78.5414332 279.433752,88.0581848 C279.433752,88.0581848 277.183928,103.669218 271.833248,110.32284 L250.3998,108.818866 C243.845384,94.9536114 236.303664,86.5728116 232.967672,83.6910813 L237.973664,67.6044098 C241.721144,65.7124854 250.996992,64.0477514 262.181984,63.704973 M257.538048,59.1505371 C257.538048,59.1505371 237.276272,49.4358243 226.339776,51.4885091 L221.1748,47.1214056 C221.1748,47.1214056 239.018416,45.9070665 257.538048,59.1505371 M184.703336,58.0690578 C192.806176,52.8210935 202.389304,49.4172239 212.868888,48.4991623 C221.96304,54.1975216 228.430616,61.6522882 230.735216,65.8652742 L225.693152,82.2867526 C211.719928,84.3660094 200.91436,89.8318639 196.768752,92.1808262 C196.768752,92.1808262 186.633856,85.7876098 178.259808,81.8722298 C178.258472,81.8735584 180.889056,70.4755113 184.703336,58.0690578" id="Shape" fill="#000000"></path>
                    <path d="M54.817416,80.6127184 C75.458616,88.5710239 120.154496,110.801135 133.98744,121.072531 C146.508432,130.327548 167.52104,142.617085 173.645264,146.605538 C178.846312,150.009408 196.875632,160.07487 192.339912,169.788255 C192.775448,169.266115 193.128152,168.716076 193.476848,168.204565 C201.018568,158.066029 195.18292,151.719314 190.375992,146.011655 C185.641208,140.402311 172.7448,127.141569 172.7448,127.141569 C172.7448,127.141569 163.470288,114.491982 162.767552,113.494204 C154.809,101.042579 144.579248,85.1432395 142.795688,80.3536417 C140.976056,75.5281717 137.73492,68.6048445 135.245952,62.337845 C133.811088,58.5845541 131.18184,60.3130608 131.307424,58.5752539 C131.50248,55.6842234 131.954048,52.127565 130.818448,49.5992419 C128.405632,44.2237321 125.558616,44.700699 122.122424,46.2405447 C118.392312,47.8973071 109.275448,49.2112911 100.815896,50.2103973 C92.527352,51.1563594 76.10524,52.498244 71.044472,46.8610003 C67.930256,43.4305587 66.237544,37.8039438 65.373152,33.9337361 L54.96304,33.9337361 C38.431376,50.4535308 40.590352,61.3918828 40.590352,61.3918828 C40.590352,61.3918828 61.557536,61.0039321 76.757208,76.6694378 C76.757208,76.6694378 46.483448,59.5185589 29.961136,70.9259062 L29.961136,82.6029591 C32.723984,79.0104285 37.747344,74.0321697 54.817416,80.6127184 M101.211352,83.215443 C112.233352,89.2114084 127.271368,97.1511134 139.28468,107.13686 C147.459664,113.907399 172.35068,134.018395 167.321976,133.019289 C162.333352,132.038783 141.30204,116.103572 129.27136,108.153238 C117.225984,100.157732 84.177352,81.2331739 84.177352,81.2331739 C68.144016,71.2593844 90.188016,77.2540212 101.211352,83.215443" id="Shape" fill="#000000"></path>
                    <path d="M78.125272,114.121303 C94.547384,118.091156 106.941456,126.861235 111.331552,130.866959 C111.331552,130.866959 109.856608,121.763402 103.8406,117.596917 C101.1018,115.689049 78.125272,114.121303 78.125272,114.121303" id="Shape" fill="#000000"></path>
                    <path d="M171.232448,162.423833 L170.408136,169.049554 C170.408136,169.049554 173.264504,167.212102 177.265824,169.922443 C177.265824,169.922443 178.293208,162.053154 180.23976,162.368032 C180.23976,162.368032 177.609176,160.181158 174.653944,160.441564 C173.374056,160.533237 171.631912,160.955731 171.232448,162.423833" id="Shape" fill="#000000"></path>
                    <path d="M156.032776,146.289332 C156.032776,146.289332 153.424904,144.102458 150.469672,144.344263 C149.152376,144.453208 147.404888,144.885003 147.029472,146.362405 L146.201152,152.961554 C146.201152,152.961554 149.04416,151.11613 153.077544,153.862344 C153.077544,153.862344 154.122296,145.993054 156.032776,146.289332" id="Shape" fill="#000000"></path>
                    <path d="M50.784032,87.4457009 L49.997128,94.0541502 C49.997128,94.0541502 52.804064,92.2273271 56.837448,94.9722118 C56.837448,94.9722118 57.811392,87.0776791 59.79268,87.3739565 C59.79268,87.3739565 57.163432,85.1937263 54.26164,85.4567888 C52.961712,85.5471335 51.183496,85.9882282 50.784032,87.4457009" id="Shape" fill="#000000"></path>
                    <path d="M39.227632,98.0519033 L38.393968,104.633781 C38.393968,104.633781 41.25568,102.805629 45.274368,105.542542 C45.274368,105.542542 46.283048,97.6838815 48.225592,97.9628872 C48.225592,97.9628872 45.595008,95.8012573 42.666496,96.053691 C41.351872,96.1427071 39.580336,96.5665301 39.227632,98.0519033" id="Shape" fill="#000000"></path>
                    <path d="M130.928,161.388854 L130.063608,167.969403 C130.063608,167.969403 132.942688,166.13328 136.938664,168.879493 C136.938664,168.879493 137.984752,161.019504 139.893896,161.30781 C139.893896,161.30781 137.264648,159.111636 134.349496,159.34547 C133.050904,159.479658 131.286048,159.902153 130.928,161.388854" id="Shape" fill="#000000"></path>
                    <path d="M157.350072,175.595559 L156.576528,181.636697 L163.63328,181.636697 C164.031408,179.394022 164.963936,175.280681 166.349368,175.514514 C166.349368,175.514514 163.705424,173.344913 160.790272,173.569446 C159.490344,173.669091 157.689416,174.128786 157.350072,175.595559" id="Shape" fill="#000000"></path>
                </g>
            </g>
        </g>
    </g>
</svg>