<svg width="512" height="512" viewBox="0 0 512 512" xmlns="http://www.w3.org/2000/svg" xmlns:sketch="http://www.bohemiancoding.com/sketch/ns"><title>mls</title><desc>Created with Sketch.</desc><g sketch:type="MSShapeGroup" fill="none"><path d="M386.86 131.883h-257.677c-14.48 0-26.208 11.668-26.208 26.072v196.088c0 14.395 11.729 26.063 26.208 26.063h257.677c14.439 0 26.187-11.668 26.187-26.063v-196.088c-.001-14.403-11.747-26.072-26.187-26.072zm-155.567 227.157h-26.403v-37.255l-15.702 37.255h-27.197l-15.667-37.255v37.255h-26.417v-47.339h45.312l10.389 25.823 10.389-25.823h45.297v47.339zm-97-57.403c-7.377 0-13.331-5.934-13.331-13.245v-121.19899999999997c0-7.321 5.953-13.261 13.331-13.261h25.498000000000005c3.567 12.271 10.827 13.685 31.464 11.317 13.258-1.557 18.101-2.809 19.83-3.574 1.548-.675 5.224-2.313 9.003-.864 2.648 1.008 4.721 3.223 6.342 6.771 1.186 2.72 1.222 5.762 1.096 8.454 1.208.828 2.504 2.179 3.44 4.475 2.453 5.932 5.17 12.254 7.515 18.141 1.562 4.159 12.063 20.563 19.03 31.375l9.369 12.982s2.752 3.07 18.727 20.32c4.685 5.519 12.425 14.738 3.065 27.612-1.916 2.215-4.97 4.907-8.772 7.04 3.042-.856 5.635-2.205 7.868-3.798 2.236-1.593 4.073-3.412 5.622-5.248 8.967-12.262 2.363-21.211-2.345-26.811 10.144 4.096 22.641 6.256 22.641 6.256l3.259-4.565c-4.504-.658-18.659-3.142-29.59-9.012-.561.477-1.136.965-1.711 1.414-1.765-1.901-3.313-3.583-4.68-5.033-1.371-1.476-2.557-2.783-3.548-3.862l.195-.126s-2.083-15.189.15-28.17c2.517-1.685 5.781-1.549 5.781-1.549-3.046-2.692-12.335-7.076-18.192-9.877-4.16 1.063-8.501 3.836-11.973 6.482-1.584-2.503-3.101-4.969-4.468-7.229-.182-.243-.322-.505-.472-.739-1.743-2.916-3.224-5.465-4.174-7.301-.489-.901-.834-1.63-1.009-2.162-2.381-5.87-5.097-12.216-7.528-18.114-.942-2.322-2.236-3.655-3.463-4.503.15-2.673.112-5.698-1.109-8.435-1.558-3.547-4.835-7.176-7.478-8.203-1.893-.72-3.925-1.08-5.673-1.17l-.472-2.293h164.176c7.383 0 13.344 5.941 13.344 13.261v121.199c0 7.311-5.961 13.245-13.344 13.245h-39.785c-9.075 4.286-18.944 6.788-29.102 7.257-4.341-.143-6.251-3.341-6.251-3.341s-1.475 3.197-5.762 2.863c-8.895-1.044-18.007-3.926-26.041-8.148-2.449.846-5.079 1.368-7.813 1.368h-132.661v.001zm179.629 57.403h-68.298v-47.339h30.655v33.429h37.643v13.91zm40.214 1.881c-16.862 0-31.826-2.368-31.826-2.368v-14.422s12.72 3.421 28.422 3.421c3.404 0 12.733-.352 12.733-2.422 0-4.475-42.033.243-42.033-18.834 0-9.409 11.416-16.504 42.033-16.504 10.208 0 27.463 1.909 27.463 1.909v14.314s-12.032-2.62-24.669-2.62c-8.573 0-12.123.882-12.123 2.098 0 4.322 41.98-.333 41.98 18.636 0 14.189-23.252 16.791-41.98 16.791zm54.95-181.844l-8.325 2.621 8.325 2.601v1.746h-10.231v-1.08h8.713l-8.713-2.737v-1.08l8.713-2.737h-8.713v-1.08h10.231v1.746zm0-3.195h-1.105v-3.17h-9.126v-1.08h9.126v-3.035h1.105v7.285zM321.735 185.865c-2.305-4.213-8.772-11.668-17.866-17.366-10.48.918-20.063 4.322-28.166 9.57-3.816 12.406-6.446 23.805-6.446 23.805l4.464-2s6.518 2.224 13.331 6.735c0 0 13.001-8.103 26.72-8.84 0 0 2.667-9.498 3.512-12.182 1.699-1.044 4.452.279 4.452.279M341.398 228.819l2.938-4.501s8.99.63 16.101.809c0 0 3.332-6.599 4.989-17.835 0 0-3.277-9.822-13.308-20.022l1.063-3.566c-11.185.343-20.46 2.008-24.208 3.899l-5.006 16.087c3.336 2.883 10.876 11.265 17.431 25.129" id="Shape" fill="#fff"/><path d="M332.884 278.562c-1.552-8.292-3.925-15.287-3.925-15.287 4.953-4.024 13.412-15.801 15.865-21.599 6.047.089 15.413.46 15.413.46 1.172-.99 2.72-4.835 2.72-4.835l-21.447-1.152c-.112.476-8.88 16.871-17.813 25.136 3.061 8.472 4.953 19.149 4.953 19.149l4.234-1.872z" id="Shape" fill="#fff"/><path d="M317.285 185.586c-.847 2.684-3.512 12.182-3.512 12.182-13.721.739-26.72 8.84-26.72 8.84-6.812-4.512-13.331-6.735-13.331-6.735l-4.464 2c8.374 3.915 18.509 10.309 18.509 10.309 4.147-2.35 14.951-7.815 28.924-9.894l5.042-16.421c.001-.001-2.751-1.325-4.449-.28M370.432 208.058c-3.599-9.517-9.655-17.807-17.252-24.353l-1.063 3.566c10.031 10.201 13.308 20.022 13.308 20.022-1.657 11.236-4.989 17.835-4.989 17.835-7.112-.181-16.101-.809-16.101-.809l-2.938 4.501 21.433 1.504c5.352-6.655 7.602-22.266 7.602-22.266M277.759 219.024c-2.231 12.982-.15 28.17-.15 28.17l-.195.126c.991 1.08 2.178 2.386 3.548 3.862.86-.686 1.694-1.387 2.413-2.079-.647-4.592-2.106-17.556.163-31.629.001 0-3.263-.134-5.78 1.549" id="Shape" fill="#A7B1B7"/><path d="M313.687 268.379s-12.497-2.16-22.641-6.256c4.707 5.6 11.312 14.548 2.345 26.811-1.548 1.836-3.385 3.655-5.622 5.248 4.957 1.73 10.162 2.846 15.023 3.674 0 0 12.891-4.124 18.804-14.656.031-7.815-4.649-19.384-4.649-19.384l-3.26 4.564zM360.239 242.135s-9.365-.369-15.413-.46c-2.453 5.798-10.914 17.575-15.865 21.599 0 0 2.371 6.995 3.925 15.287l-4.232 1.872c11.452 4.772 23.538 1.901 23.538 1.901 8.429-6.671 14.481-15.36 17.849-24.867 0 0-1.154-12.829-7.079-20.167-.001 0-1.55 3.845-2.721 4.835M285.608 263.328c-15.975-17.249-18.727-20.32-18.727-20.32l-9.369-12.982c-6.967-10.813-17.468-27.216-19.03-31.375-2.345-5.888-5.061-12.208-7.515-18.141-.937-2.297-2.231-3.647-3.44-4.475.127-2.692.091-5.734-1.096-8.454-1.621-3.547-3.694-5.762-6.342-6.771-3.78-1.45-7.456.19-9.003.864-1.729.765-6.572 2.018-19.83 3.574-20.637 2.368-27.897.955-31.464-11.317h-3.417c.864 3.87 2.557 9.497 5.671 12.927 5.061 5.636 21.484 4.294 29.771 3.349 8.461-.999 17.576-2.313 21.307-3.97 3.436-1.539 6.283-2.017 8.696 3.359 1.136 2.528.683 6.085.489 8.976-.127 1.738 2.504.009 3.939 3.763 2.489 6.267 5.731 13.19 7.55 18.016 1.784 4.79 12.013 20.689 19.972 33.141.701.999 9.977 13.647 9.977 13.647s12.896 13.261 17.631 18.87c4.807 5.708 10.641 12.054 3.101 22.193-.349.513-.701 1.063-1.137 1.584 4.536-9.715-13.494-19.78-18.695-23.183-6.124-3.988-27.137-16.278-39.658-25.533-13.833-10.271-58.529-32.502-79.17-40.46-17.07-6.581-22.095-1.602-24.855 1.99v9.579c1.806 2.475 3.825 4.899 6.6 7.275l-.76 6.283s-.705 2.729 5.635 3.808c4.668.793 6.247-1.08 6.704-3.061 1.308.603 2.752 1.206 4.301 1.783 20.944 8.103 36.561 11.344 49.779 21.103 7.328 5.429 17.866 21.643 26.259 31.069 0 .207-.036.333-.036.333l-.864 8.05s-.755 2.737 5.658 3.798c2.481.441 6.12-.073 7.18-2.818 5.514 3.151 10.701 5.34 14.069 6.725l-.199 5.106h2.291l.774-6.041c.339-1.467 2.142-1.926 3.44-2.026 2.915-.225 5.559 1.945 5.559 1.945-1.385-.234-2.318 3.881-2.716 6.122h12.322c2.733 0 5.364-.523 7.813-1.368 1.82-.603 3.548-1.396 5.133-2.288 3.802-2.132 6.858-4.825 8.772-7.04 9.356-12.874 1.617-22.093-3.069-27.612m-149.333-37.787c-4.02-2.737-6.88-.909-6.88-.909l.834-6.582c.353-1.485 2.123-1.909 3.44-1.998 2.929-.252 5.559 1.909 5.559 1.909-1.943-.279-2.953 7.58-2.953 7.58m11.56-10.569c-4.033-2.745-6.84-.918-6.84-.918l.787-6.608c.398-1.459 2.178-1.9 3.478-1.989 2.902-.262 5.531 1.917 5.531 1.917-1.981-.296-2.955 7.598-2.955 7.598m21.289 19.149s22.977 1.568 25.715 3.476c6.016 4.168 7.491 13.27 7.491 13.27-4.39-4.006-16.783-12.774-33.206-16.746m58.815 54.757c-3.997-2.745-6.875-.91-6.875-.91l.863-6.579c.358-1.485 2.123-1.909 3.423-2.043 2.915-.235 5.544 1.962 5.544 1.962-1.91-.29-2.955 7.57-2.955 7.57m16.138-15.016c-4.033-2.745-6.876-.901-6.876-.901l.828-6.599c.375-1.476 2.123-1.909 3.44-2.018 2.955-.243 5.563 1.945 5.563 1.945-1.91-.296-2.955 7.573-2.955 7.573m24.19 16.06c-4.001-2.71-6.858-.873-6.858-.873l.824-6.626c.398-1.467 2.142-1.891 3.423-1.981 2.955-.26 5.586 1.926 5.586 1.926-1.948-.315-2.975 7.553-2.975 7.553M167.759 196.669c-15.201-15.666-36.168-15.278-36.168-15.278s-2.159-10.938 14.373-27.459h-2.553c-13.381 7.104-19.595 21.545-22.447 30.277v6.716c16.521-11.407 46.796 5.744 46.796 5.744" id="Shape" fill="#A7B1B7"/><path d="M224.237 292.625c-6.414-1.063-5.658-3.798-5.658-3.798l.864-8.05s.036-.126.036-.333c-8.393-9.426-18.93-25.641-26.259-31.069-13.218-9.76-28.835-13-49.779-21.103-1.548-.577-2.993-1.18-4.301-1.783-.457 1.981-2.036 3.853-6.704 3.061-6.342-1.08-5.635-3.808-5.635-3.808l.76-6.283c-2.775-2.377-4.794-4.799-6.6-7.275v76.21c0 7.311 5.953 13.245 13.331 13.245h110.992l.199-5.106c-3.368-1.386-8.556-3.573-14.069-6.725-1.057 2.746-4.696 3.26-7.177 2.819M333.301 233.033c-.669 1.495-10.918 23.056-33.393 18.546 0 0 10.127 4.366 17.726 4.871 0 0 9.737-9.57 15.667-23.417M374.542 213.451c2.631 16.135-1.951 25.795-1.951 25.795l1.82 7.895c6.325-17.025.131-33.689.131-33.689M338.955 290.112c-5.442 4.546-14.697 6.841-22.728 7.166-2.468 2.45-6.192 4.132-6.192 4.132 21.46.46 36.085-10.695 36.085-10.695s-2.879.243-7.165-.603" id="Shape" fill="#009A66"/><path d="M120.962 167.193v17.017c2.852-8.733 9.067-23.173 22.447-30.277h-9.117c-7.379 0-13.331 5.941-13.331 13.261M381.708 153.932h-164.176l.472 2.296c1.747.09 3.78.45 5.673 1.17 2.644 1.026 5.921 4.655 7.478 8.203 1.222 2.737 1.259 5.762 1.109 8.435 1.226.848 2.521 2.18 3.463 4.503 2.43 5.896 5.148 12.244 7.528 18.114.176.531.521 1.261 1.009 2.162 5.002-9.428 11.814-17.458 19.841-23.84 2.689-2.071 6.056-.701 6.056-.701s-.362-3.025 2.159-5.006c8.143-4.88 17.142-8.228 26.562-9.814 4.685-.341 7.365 2.494 7.365 2.494s2.055-3.321 5.872-3.529c8.143.073 16.426 1.459 24.512 4.376 5.332 1.909 10.289 4.384 14.862 7.291 3.423 2.872 2.485 6.284 2.485 6.284s4.251-1.099 6.989.891c7.921 7.12 14.21 15.854 18.442 25.479 1.045 4.132-1.046 6.708-1.046 6.708s3.852 1.278 5.025 4.681c3.01 11.785 3.224 24.47.122 36.895-1.149 4.115-4.549 5.067-4.549 5.067s2.032 2.692.878 6.015c-4.088 9.715-9.905 18.167-17.051 25.145-3.042 2.71-6.903 1.964-6.903 1.964s.222 3.636-2.733 5.977c-3.567 2.477-7.333 4.61-11.221 6.448h39.785c7.383 0 13.344-5.934 13.344-13.245v-121.201c-.004-7.319-5.965-13.261-13.348-13.261M290.94 246.178c4.5-29.027 26.834-34.526 26.834-34.526-14.892.126-26.309 7.715-26.309 7.715-1.516 14.791-.525 26.811-.525 26.811M248.436 206.113c.15.234.29.496.472.739 9.348-14.955 17.649-19.213 17.649-19.213l1.82-6.761c-10.158 5.745-16.892 18.359-19.94 25.235M312.175 167.121l5.165 4.367c10.936-2.053 31.198 7.662 31.198 7.662-18.52-13.243-36.363-12.029-36.363-12.029M230.285 227.137c-12.013-9.986-27.051-17.925-38.073-23.921-11.022-5.96-33.067-11.956-17.034-1.981 0 0 33.049 18.925 45.094 26.92 12.031 7.949 33.062 23.886 38.051 24.866 5.029.998-19.862-19.115-28.037-25.884" id="Shape" fill="#006BB6"/><path d="M386.86 120h-257.677c-21.077 0-38.183 17.023-38.183 37.955v196.122c0 20.915 17.106 37.921 38.182 37.921h257.677c20.994 0 38.141-17.006 38.141-37.921v-196.122c0-20.932-17.146-37.955-38.14-37.955zm26.186 234.043c0 14.395-11.746 26.063-26.187 26.063h-257.676c-14.48 0-26.208-11.668-26.208-26.063v-196.088c0-14.405 11.729-26.072 26.208-26.072h257.677c14.439 0 26.187 11.668 26.187 26.072v196.088h-.001zM175.608 337.523l-10.389-25.823h-45.312v47.339h26.418v-37.255l15.666 37.255h27.197l15.702-37.255v37.255h26.403v-47.339h-45.297l-10.389 25.823zM276.279 311.701h-30.655v47.339h68.298v-13.91h-37.643v-33.429zM354.136 325.494c0-1.216 3.548-2.098 12.123-2.098 12.637 0 24.669 2.62 24.669 2.62v-14.314s-17.256-1.909-27.463-1.909c-30.617 0-42.033 7.095-42.033 16.504 0 19.076 42.033 14.359 42.033 18.834 0 2.071-9.329 2.422-12.733 2.422-15.702 0-28.422-3.421-28.422-3.421v14.422s14.965 2.368 31.826 2.368c18.727 0 41.98-2.601 41.98-16.791 0-18.97-41.98-14.314-41.98-18.636" id="Shape" fill="#000"/><path d="M398.854 172.712h9.126v3.17h1.105v-7.285h-1.105v3.035h-9.126v1.08zM398.854 178.412h8.715l-8.715 2.736v1.081l8.715 2.736h-8.715v1.081h10.231v-1.747l-8.325-2.601 8.325-2.62v-1.747h-10.231v1.081zM268.375 180.878l-1.82 6.761s-8.302 4.258-17.649 19.213c1.367 2.26 2.883 4.727 4.468 7.229 3.472-2.647 7.813-5.419 11.973-6.482 5.857 2.799 15.146 7.184 18.192 9.877-2.269 14.073-.81 27.037-.163 31.629-.72.692-1.552 1.395-2.413 2.079 1.367 1.45 2.915 3.132 4.68 5.033.576-.45 1.15-.937 1.711-1.414 10.932 5.87 25.086 8.354 29.59 9.012 0 0 4.68 11.569 4.649 19.384-5.912 10.533-18.804 14.656-18.804 14.656-4.862-.828-10.067-1.944-15.023-3.674-2.231 1.593-4.826 2.944-7.868 3.798-1.584.891-3.313 1.685-5.133 2.288 8.035 4.222 17.146 7.104 26.041 8.148 4.286.333 5.762-2.863 5.762-2.863s1.91 3.197 6.251 3.341c10.158-.469 20.025-2.971 29.102-7.257 3.888-1.837 7.654-3.97 11.221-6.448 2.955-2.341 2.733-5.977 2.733-5.977s3.861.748 6.903-1.964c7.148-6.978 12.965-15.43 17.051-25.145 1.154-3.323-.878-6.015-.878-6.015s3.399-.954 4.549-5.067c3.101-12.425 2.888-25.109-.122-36.895-1.172-3.404-5.025-4.681-5.025-4.681s2.091-2.575 1.046-6.708c-4.232-9.624-10.521-18.357-18.442-25.479-2.739-1.99-6.989-.891-6.989-.891s.938-3.412-2.485-6.284c-4.572-2.907-9.528-5.383-14.862-7.291-8.084-2.918-16.367-4.303-24.512-4.376-3.816.207-5.872 3.529-5.872 3.529s-2.68-2.835-7.365-2.494c-9.42 1.585-18.419 4.934-26.562 9.814-2.521 1.98-2.159 5.006-2.159 5.006s-3.368-1.368-6.056.701c-8.025 6.384-14.838 14.414-19.841 23.84.95 1.836 2.43 4.384 4.174 7.301 3.05-6.877 9.785-19.491 19.942-25.235m23.09 38.488s11.416-7.589 26.309-7.715c0 0-22.334 5.5-26.834 34.526 0 .001-.991-12.019.525-26.811m26.168 37.084c-7.599-.505-17.726-4.871-17.726-4.871 22.474 4.511 32.723-17.051 33.393-18.546-5.931 13.847-15.667 23.417-15.667 23.417m-7.599 44.961s3.725-1.683 6.192-4.132c8.031-.324 17.287-2.62 22.728-7.166 4.286.846 7.165.603 7.165.603s-14.625 11.155-36.085 10.695m42.155-19.076s-12.085 2.871-23.538-1.901c0 0-1.893-10.677-4.953-19.149 8.931-8.265 17.699-24.66 17.813-25.136l21.447 1.152c5.925 7.337 7.079 20.167 7.079 20.167-3.368 9.507-9.419 18.195-17.849 24.867m22.353-68.884s6.192 16.665-.131 33.689l-1.82-7.895s4.581-9.662 1.951-25.795m-21.36-29.746c7.596 6.546 13.653 14.836 17.252 24.353 0 0-2.25 15.611-7.601 22.265l-21.433-1.504c-6.554-13.865-14.096-22.246-17.432-25.128l5.006-16.087c3.747-1.892 13.023-3.557 24.208-3.899m-4.644-4.554s-20.262-9.715-31.198-7.662l-5.165-4.367s17.844-1.214 36.363 12.029m-72.835-1.081c8.103-5.248 17.686-8.652 28.166-9.57 9.094 5.698 15.562 13.153 17.866 17.366l-5.042 16.421c-13.973 2.079-24.779 7.545-28.924 9.894 0 0-10.135-6.393-18.509-10.309-.001.001 2.629-11.397 6.444-23.803M145.817 200.613c20.641 7.958 65.337 30.188 79.17 40.46 12.521 9.255 33.534 21.545 39.658 25.533 5.201 3.404 23.23 13.469 18.695 23.183.436-.522.788-1.072 1.137-1.584 7.542-10.139 1.706-16.485-3.101-22.193-4.735-5.609-17.631-18.87-17.631-18.87s-9.275-12.65-9.977-13.647c-7.959-12.452-18.188-28.351-19.972-33.141-1.82-4.825-5.061-11.749-7.55-18.016-1.435-3.753-4.064-2.025-3.939-3.763.195-2.891.647-6.448-.489-8.976-2.413-5.376-5.26-4.899-8.696-3.359-3.73 1.657-12.847 2.971-21.307 3.97-8.289.946-24.711 2.288-29.771-3.349-3.114-3.43-4.807-9.057-5.671-12.927h-10.41c-16.532 16.52-14.373 27.458-14.373 27.458s20.967-.388 36.167 15.278c0 0-30.274-17.151-46.796-5.744v11.677c2.763-3.593 7.786-8.571 24.856-1.99m46.394 2.603c11.022 5.996 26.06 13.936 38.073 23.921 8.175 6.771 33.066 26.882 28.037 25.882-4.989-.981-26.02-16.916-38.051-24.866-12.045-7.996-45.094-26.92-45.094-26.92-16.033-9.974 6.011-3.979 17.034 1.982M169.125 234.121c16.422 3.97 28.816 12.74 33.206 16.746 0 0-1.475-9.104-7.491-13.27-2.739-1.908-25.715-3.476-25.715-3.476M262.232 282.424l-.824 6.626s2.856-1.837 6.858.873c0 0 1.027-7.869 2.974-7.554 0 0-2.631-2.187-5.586-1.926-1.28.092-3.022.514-3.421 1.982M247.033 266.289s-2.608-2.187-5.563-1.945c-1.317.109-3.065.541-3.44 2.018l-.828 6.599s2.843-1.845 6.876.901c0 0 1.045-7.869 2.955-7.573M141.784 207.446l-.787 6.608s2.807-1.827 6.84.918c0 0 .974-7.895 2.955-7.598 0 0-2.629-2.18-5.531-1.917-1.3.09-3.078.531-3.478 1.989M130.228 218.052l-.834 6.582s2.862-1.828 6.88.909c0 0 1.009-7.859 2.951-7.58 0 0-2.631-2.162-5.559-1.909-1.315.089-3.086.513-3.439 1.998M221.928 281.389l-.864 6.581s2.879-1.836 6.875.91c0 0 1.046-7.86 2.955-7.572 0 0-2.629-2.196-5.544-1.962-1.299.134-3.063.557-3.421 2.043M248.35 295.596l-.774 6.041h7.057c.398-2.243 1.331-6.356 2.716-6.122 0 0-2.644-2.17-5.559-1.945-1.3.1-3.101.559-3.44 2.026" fill="#000"/></g></svg>