<?xml version="1.0" encoding="UTF-8" standalone="no"?>
<svg width="512px" height="512px" viewBox="0 0 512 512" version="1.1" xmlns="http://www.w3.org/2000/svg" xmlns:xlink="http://www.w3.org/1999/xlink" xmlns:sketch="http://www.bohemiancoding.com/sketch/ns">
    <!-- Generator: Sketch 3.2.2 (9983) - http://www.bohemiancoding.com/sketch -->
    <title>nhl</title>
    <desc>Created with Sketch.</desc>
    <defs>
        <rect id="path-1" x="3.13909489" y="1.32010675" width="535.072993" height="324.635353"></rect>
        <rect id="path-3" x="3.13909489" y="1.32010675" width="535.072993" height="324.635353"></rect>
        <rect id="path-5" x="3.13909489" y="1.32010675" width="535.072993" height="324.635353"></rect>
        <rect id="path-7" x="3.13909489" y="1.32010675" width="535.072993" height="324.635353"></rect>
        <rect id="path-9" x="3.13909489" y="1.32010675" width="535.072993" height="324.635353"></rect>
        <rect id="path-11" x="3.13909489" y="1.32010675" width="535.072993" height="324.635353"></rect>
        <rect id="path-13" x="3.13909489" y="1.32010675" width="535.072993" height="324.635353"></rect>
        <path id="path-15" d="M12.2472263,163.800321 C9.94046715,156.1215 8.66025547,147.6855 8.66025547,138.424929 C8.66025547,114.337929 24.8868394,94.2627857 28.771073,69.7872857 C29.0921168,66.6 29.2784015,63.2145 29.2784015,59.5396071 C29.2784015,31.5676071 15.9293212,7.94442857 15.9293212,7.94442857 L2.6079854,1.67689286 L11.6447737,22.2039643 C16.1948759,32.5388571 19.6470876,45.2523214 19.6470876,59.6149286 C19.6470876,94.6671429 2.45737226,101.632393 2.45737226,138.424929 C2.45737226,149.651786 4.36778102,160.14525 7.78432117,169.798286 C8.86239416,167.586214 10.4477956,165.441536 12.2472263,163.800321"></path>
        <rect id="path-17" x="2.45737187" y="1.67293254" width="26.82103" height="168.125357"></rect>
        <linearGradient x1="-9.61463161%" y1="50.0302006%" x2="118.678552%" y2="50.0302006%" id="linearGradient-19">
            <stop stop-color="#FFFFFF" offset="0%"></stop>
            <stop stop-color="#FFFFFF" offset="11.24%"></stop>
            <stop stop-color="#CDD3D9" offset="27%"></stop>
            <stop stop-color="#98A6B1" offset="45.08%"></stop>
            <stop stop-color="#8494A1" offset="53.93%"></stop>
            <stop stop-color="#8494A1" offset="100%"></stop>
        </linearGradient>
        <rect id="path-20" x="3.13909489" y="1.32010675" width="535.072993" height="324.635353"></rect>
        <path id="path-22" d="M14.125927,7.94046429 C14.125927,7.94046429 0.780810219,31.5636429 0.780810219,59.5356429 C0.780810219,74.3581071 6.80533577,86.4135 12.2987518,99.7572857 L19.4687299,99.5233929 C15.0256423,88.3877143 10.4121241,77.7673929 10.4121241,59.6109643 C10.4121241,45.2483571 13.8603723,32.5348929 18.4184015,22.2 L27.4512263,1.67292857 L14.125927,7.94046429 L14.125927,7.94046429 Z"></path>
        <rect id="path-24" x="0.780806255" y="1.67293254" width="26.6704165" height="98.0803889"></rect>
        <linearGradient x1="50.1386863%" y1="101.381229%" x2="50.1386863%" y2="-2.11459194%" id="linearGradient-26">
            <stop stop-color="#FFFFFF" offset="0%"></stop>
            <stop stop-color="#FFFFFF" offset="34.83%"></stop>
            <stop stop-color="#8494A1" offset="56.18%"></stop>
            <stop stop-color="#8494A1" offset="100%"></stop>
        </linearGradient>
        <rect id="path-27" x="3.13909489" y="1.32010675" width="535.072993" height="324.635353"></rect>
        <path id="path-29" d="M125.429036,72.2570357 C114.50562,68.3165357 99.6702263,66.9290357 78.176146,61.4979643 C48.8026204,54.0530357 18.477854,35.1751071 8.28372263,1.26857143 C6.48429197,2.90978571 4.89889051,5.05446429 3.82081752,7.26653571 C15.4101022,39.9798214 44.4110584,62.9290714 75.7663358,70.9963929 C95.8375182,76.0667143 105.18346,76.56225 120.145686,80.7525 C122.091766,82.7980714 135.916467,97.7394643 135.916467,97.7394643 L135.916467,83.4244286 C135.916467,83.4204643 126.828153,73.56525 125.429036,72.2570357"></path>
        <rect id="path-31" x="3.82081831" y="1.26460714" width="132.095646" height="96.4708889"></rect>
        <linearGradient x1="-0.729520923%" y1="50.0245369%" x2="100.13282%" y2="50.0245369%" id="linearGradient-33">
            <stop stop-color="#FFFFFF" offset="0%"></stop>
            <stop stop-color="#FFFFFF" offset="15.17%"></stop>
            <stop stop-color="#FAFAFB" offset="20.72%"></stop>
            <stop stop-color="#EBEDEF" offset="27.57%"></stop>
            <stop stop-color="#D2D7DC" offset="35.1%"></stop>
            <stop stop-color="#AFB9C2" offset="43.11%"></stop>
            <stop stop-color="#8494A1" offset="51.12%"></stop>
            <stop stop-color="#8494A1" offset="100%"></stop>
        </linearGradient>
        <rect id="path-34" x="3.13909489" y="1.32010675" width="535.072993" height="324.635353"></rect>
        <path d="M197.95719,5.21303571 C197.95719,5.21303571 183.141613,19.0444286 162.689934,19.0444286 C137.07381,19.0444286 120.062453,1.0545 120.062453,1.0545 C120.062453,1.0545 103.051095,19.0483929 77.4349708,19.0483929 C56.983292,19.0483929 42.1677153,5.217 42.1677153,5.217 C31.7635182,33.4863214 9.43313869,37.9937143 9.43313869,37.9937143 C9.43313869,37.9937143 19.1120146,57.7239643 19.1120146,83.3253214 C19.1120146,121.319036 1.94608029,132.300107 1.94608029,162.210643 C1.94608029,204.029893 34.5260803,230.654036 64.7319416,238.320964 C88.6556496,244.39425 104.291672,245.088 114.794956,250.154357 C114.794956,250.154357 118.615774,253.650857 120.062453,255.256393 C121.509131,253.650857 125.329949,250.154357 125.329949,250.154357 C135.833234,245.088 151.473219,244.39425 175.392964,238.320964 C205.598825,230.650071 238.178825,204.029893 238.178825,162.210643 C238.178825,132.300107 221.012891,121.319036 221.012891,83.3253214 C221.012891,57.7239643 230.691766,37.9937143 230.691766,37.9937143 C230.691766,37.9937143 208.361387,33.4823571 197.95719,5.21303571 M30.0750657,83.3253214 C30.0750657,67.0836429 26.5554745,53.058 23.5273577,43.98375 C30.5784307,40.1146071 39.4289343,33.27225 46.4800073,21.4943571 C54.0582263,25.7361429 64.8072482,30.0136071 77.4349708,30.0136071 C96.5668029,30.0136071 111.513175,21.6648214 120.062453,15.3814286 C128.61173,21.6648214 143.562066,30.0136071 162.689934,30.0136071 C165.745796,30.0136071 168.690679,29.7598929 171.500803,29.3198571 L14.8829562,146.956071 C19.3973869,129.251571 30.0750657,114.599571 30.0750657,83.3253214 M227.215774,162.210643 C227.215774,197.687036 198.948066,221.008929 172.697781,227.692714 C153.74827,232.513286 130.569701,234.994929 123.56619,238.990929 C121.988715,240.144536 120.058489,242.198036 120.058489,242.198036 C120.058489,242.198036 118.128263,240.144536 116.550788,238.990929 C109.551241,234.994929 86.3726715,232.513286 67.4231606,227.692714 C66.7097299,227.514321 65.9962993,227.312143 65.2789051,227.113929 L214.370058,115.122857 C219.459197,132.886821 227.215774,144.525964 227.215774,162.210643 M210.045876,83.3253214 C210.045876,90.0725357 210.545277,96.04275 211.369686,101.438143 L51.4106058,221.587714 C31.3671679,211.284536 13.8247007,191.510679 12.9448029,164.355321 L196.787956,26.2633929 C203.196942,35.1671786 210.561131,40.6656429 216.597547,43.9797857 C213.569431,53.0540357 210.045876,67.0796786 210.045876,83.3253214" id="path-36"></path>
        <rect id="path-38" x="1.94608108" y="1.05846429" width="236.236712" height="254.205861"></rect>
        <linearGradient x1="67.1279098%" y1="74.320389%" x2="31.4568769%" y2="23.4926397%" id="linearGradient-40">
            <stop stop-color="#8494A1" offset="0%"></stop>
            <stop stop-color="#99A6B0" offset="4.22%"></stop>
            <stop stop-color="#C2C8CD" offset="13.5%"></stop>
            <stop stop-color="#DBDDDF" offset="20.84%"></stop>
            <stop stop-color="#E4E5E6" offset="25.28%"></stop>
            <stop stop-color="#E4E5E6" offset="75.28%"></stop>
            <stop stop-color="#DCDEE0" offset="79.51%"></stop>
            <stop stop-color="#C6CCD1" offset="86.02%"></stop>
            <stop stop-color="#A3AEB8" offset="93.97%"></stop>
            <stop stop-color="#8494A1" offset="100%"></stop>
        </linearGradient>
        <rect id="path-41" x="3.13909489" y="1.32010675" width="535.072993" height="324.635353"></rect>
        <path id="path-43" d="M45.7269416,36.99075 C71.4381898,36.99075 88.3544234,15.1356429 88.3544234,15.1356429 L88.3544234,1.46282143 L74.8983285,14.7788571 C67.9820146,21.6251786 56.9079854,27.2068929 45.7269416,27.2068929 C37.3798029,27.2068929 29.5241387,23.4844286 22.6474599,17.7917143 L1.75186861,0.483642857 L6.10775912,16.7253214 C6.10775912,16.7213571 25.7825912,36.99075 45.7269416,36.99075"></path>
        <rect id="path-45" x="1.75186465" y="0.48364365" width="86.6025547" height="36.5071056"></rect>
        <linearGradient x1="-0.897974005%" y1="50.050586%" x2="100.215985%" y2="50.050586%" id="linearGradient-47">
            <stop stop-color="#FFFFFF" offset="0%"></stop>
            <stop stop-color="#FFFFFF" offset="24.72%"></stop>
            <stop stop-color="#FAFAFB" offset="33.04%"></stop>
            <stop stop-color="#EBEDEF" offset="43.32%"></stop>
            <stop stop-color="#D2D7DC" offset="54.62%"></stop>
            <stop stop-color="#AFB9C2" offset="66.63%"></stop>
            <stop stop-color="#8494A1" offset="78.65%"></stop>
            <stop stop-color="#8494A1" offset="100%"></stop>
        </linearGradient>
        <rect id="path-48" x="3.13909489" y="1.32010675" width="535.072993" height="324.635353"></rect>
        <path id="path-50" d="M132.127358,39.3177857 C132.127358,84.72075 99.6900438,114.599571 58.8937007,124.926536 C37.4035839,130.357607 22.5642263,131.745107 11.6408102,135.685607 C10.2416934,136.993821 1.15337956,146.849036 1.15337956,146.849036 L1.15337956,161.164071 C1.15337956,161.164071 14.9741168,146.218714 16.9241606,144.177107 C31.8824234,139.986857 41.2323285,139.491321 61.3035109,134.421 C101.897715,123.967179 138.572015,88.5819643 138.572015,39.3177857 C138.572015,21.5815714 134.576803,10.7788929 130.438905,0.41625 L123.268927,0.650142857 C127.894336,11.8373571 132.127358,23.9323929 132.127358,39.3177857"></path>
        <rect id="path-52" x="1.15734307" y="0.41625" width="137.422603" height="160.747821"></rect>
        <linearGradient x1="0.113634514%" y1="50.1019322%" x2="101.661855%" y2="50.1019322%" id="linearGradient-54">
            <stop stop-color="#FFFFFF" offset="0%"></stop>
            <stop stop-color="#FFFFFF" offset="19.66%"></stop>
            <stop stop-color="#FAFBFC" offset="31.85%"></stop>
            <stop stop-color="#EDEFF1" offset="45.42%"></stop>
            <stop stop-color="#D7DCE0" offset="59.67%"></stop>
            <stop stop-color="#B8C1C8" offset="74.38%"></stop>
            <stop stop-color="#909EAA" offset="89.3%"></stop>
            <stop stop-color="#8494A1" offset="93.26%"></stop>
            <stop stop-color="#8494A1" offset="100%"></stop>
        </linearGradient>
        <rect id="path-55" x="3.13909489" y="1.32010675" width="535.072993" height="324.635353"></rect>
        <path id="path-57" d="M43.7848248,36.99075 C63.7252117,36.99075 83.4040073,16.7253214 83.4040073,16.7253214 L87.7638613,0.483642857 L66.8643066,17.7917143 C59.9915912,23.4844286 52.1319635,27.2068929 43.7887883,27.2068929 C32.611708,27.2068929 21.5416423,21.6251786 14.621365,14.7788571 L1.16130657,1.46282143 L1.16130657,15.1356429 C1.15734307,15.1316786 18.0775401,36.99075 43.7848248,36.99075"></path>
        <rect id="path-59" x="1.15734307" y="0.48364365" width="86.6065182" height="36.5071056"></rect>
        <linearGradient x1="0.161569036%" y1="50.3897872%" x2="101.321913%" y2="50.3897872%" id="linearGradient-61">
            <stop stop-color="#FFFFFF" offset="0%"></stop>
            <stop stop-color="#FFFFFF" offset="24.72%"></stop>
            <stop stop-color="#FAFAFB" offset="33.04%"></stop>
            <stop stop-color="#EBEDEF" offset="43.32%"></stop>
            <stop stop-color="#D2D7DC" offset="54.62%"></stop>
            <stop stop-color="#AFB9C2" offset="66.63%"></stop>
            <stop stop-color="#8494A1" offset="78.65%"></stop>
            <stop stop-color="#8494A1" offset="100%"></stop>
        </linearGradient>
        <rect id="path-62" x="3.13909489" y="1.32010675" width="535.072993" height="324.635353"></rect>
        <path id="path-64" d="M57.6333066,16.7213571 L53.2774161,0.479678571 L43.9037299,26.1523929 C39.8649197,37.21275 33.123,44.20575 23.868219,46.9331786 L2.6079854,53.2086429 L15.9293212,59.4761786 C15.9293212,59.4761786 48.7431679,56.6179286 57.6333066,16.7213571"></path>
        <rect id="path-66" x="2.6079854" y="0.48364365" width="55.0253212" height="58.9925357"></rect>
        <linearGradient x1="-5.03473406%" y1="50.0424304%" x2="104.214708%" y2="50.0424304%" id="linearGradient-68">
            <stop stop-color="#FFFFFF" offset="0%"></stop>
            <stop stop-color="#FFFFFF" offset="38.76%"></stop>
            <stop stop-color="#FAFAFB" offset="46.13%"></stop>
            <stop stop-color="#EBEDEF" offset="55.23%"></stop>
            <stop stop-color="#D2D7DC" offset="65.24%"></stop>
            <stop stop-color="#AFB9C2" offset="75.87%"></stop>
            <stop stop-color="#8494A1" offset="86.52%"></stop>
            <stop stop-color="#8494A1" offset="100%"></stop>
        </linearGradient>
        <rect id="path-69" x="3.13909489" y="1.32010675" width="535.072993" height="324.635353"></rect>
        <rect id="path-71" x="3.13909489" y="1.32010675" width="535.072993" height="324.635353"></rect>
        <rect id="path-73" x="3.13909489" y="1.32010675" width="535.072993" height="324.635353"></rect>
        <rect id="path-75" x="3.13909489" y="1.32010675" width="535.072993" height="324.635353"></rect>
        <rect id="path-77" x="3.13909489" y="1.32010675" width="535.072993" height="324.635353"></rect>
    </defs>
    <g id="Leagues" stroke="none" stroke-width="1" fill="none" fill-rule="evenodd" sketch:type="MSPage">
        <g id="nhl" sketch:type="MSArtboardGroup">
            <g sketch:type="MSLayerGroup" transform="translate(-15.000000, 89.000000)" id="g236">
                <g transform="translate(3.214401, 2.640214)">
                    <g id="path244-Clipped">
                        <mask id="mask-2" sketch:name="SVGID_1_" fill="white">
                            <use xlink:href="#path-1"></use>
                        </mask>
                        <g id="SVGID_1_"></g>
                        <path d="M142.916015,197.889214 C142.916015,168.402857 156.736752,157.191857 159.566693,129.251571 C155.68246,153.731036 139.455876,173.802214 139.455876,197.889214 C139.455876,207.149786 140.736088,215.58975 143.042847,223.264607 C153.236978,257.175107 183.561745,276.049071 212.93527,283.494 C167.695839,272.049107 142.916015,234.07125 142.916015,197.889214" id="path244" fill="#FFFFFF" sketch:type="MSShapeGroup" mask="url(#mask-2)"></path>
                    </g>
                    <g id="path246-Clipped">
                        <mask id="mask-4" sketch:name="SVGID_1_" fill="white">
                            <use xlink:href="#path-3"></use>
                        </mask>
                        <g id="SVGID_1_"></g>
                        <path d="M392.799066,159.225536 C387.301686,145.88175 381.281124,133.826357 381.281124,119.003893 C381.281124,154.892571 398.435168,165.045107 398.435168,197.889214 C398.435168,234.07125 373.655343,272.049107 328.415912,283.497964 C369.212255,273.174964 401.649569,243.292179 401.649569,197.889214 C401.645606,182.503821 397.412584,170.408786 392.799066,159.225536" id="path246" fill="#FFFFFF" sketch:type="MSShapeGroup" mask="url(#mask-4)"></path>
                    </g>
                    <g id="path248-Clipped">
                        <mask id="mask-6" sketch:name="SVGID_1_" fill="white">
                            <use xlink:href="#path-5"></use>
                        </mask>
                        <g id="SVGID_1_"></g>
                        <path d="M386.691307,54.86175 C377.432562,52.1343214 370.698569,45.1413214 366.651832,34.0809643 L357.282109,8.40825 L352.922255,24.6499286 C361.812394,64.5425357 394.622277,67.40475 394.622277,67.40475 L407.943613,61.1372143 L386.691307,54.86175 L386.691307,54.86175 Z" id="path248" fill="#E4E5E6" sketch:type="MSShapeGroup" mask="url(#mask-6)"></path>
                    </g>
                    <g id="path250-Clipped">
                        <mask id="mask-8" sketch:name="SVGID_1_" fill="white">
                            <use xlink:href="#path-7"></use>
                        </mask>
                        <g id="SVGID_1_"></g>
                        <path d="M231.837219,200.144893 L214.663358,173.833929 L195.590978,188.160857 C195.590978,188.160857 202.269482,188.347179 202.269482,195.348107 L202.269482,244.885821 L215.72954,234.780857 L215.72954,199.752429 L231.072263,223.24875 L245.297277,212.568964 L245.297277,150.825214 L231.837219,160.934143 L231.837219,200.144893 L231.837219,200.144893 Z" id="path250" fill="#E4E5E6" sketch:type="MSShapeGroup" mask="url(#mask-8)"></path>
                    </g>
                    <g id="path252-Clipped">
                        <mask id="mask-10" sketch:name="SVGID_1_" fill="white">
                            <use xlink:href="#path-9"></use>
                        </mask>
                        <g id="SVGID_1_"></g>
                        <path d="M286.410701,142.769786 L271.226518,154.171071 L271.226518,131.352643 L250.71935,146.753893 C250.71935,146.753893 257.401818,146.940214 257.401818,153.937179 L257.401818,203.482821 L271.226518,193.100357 L271.226518,170.519786 L286.410701,159.1185 L286.410701,181.695107 L299.569533,171.808179 L299.569533,110.060464 L286.410701,119.955321 L286.410701,142.769786 L286.410701,142.769786 Z" id="path252" fill="#E4E5E6" sketch:type="MSShapeGroup" mask="url(#mask-10)"></path>
                    </g>
                    <g id="path254-Clipped">
                        <mask id="mask-12" sketch:name="SVGID_1_" fill="white">
                            <use xlink:href="#path-11"></use>
                        </mask>
                        <g id="SVGID_1_"></g>
                        <path d="M324.880467,137.033464 L324.880467,91.04775 L304.377263,106.449 C304.377263,106.449 311.05973,106.635321 311.05973,113.63625 L311.05973,163.173964 L349.232234,134.50425 C348.403861,124.62525 349.232234,118.746214 349.232234,118.746214 L324.880467,137.033464 L324.880467,137.033464 Z" id="path254" fill="#E4E5E6" sketch:type="MSShapeGroup" mask="url(#mask-12)"></path>
                    </g>
                    <g id="g256-Clipped">
                        <mask id="mask-14" sketch:name="SVGID_1_" fill="white">
                            <use xlink:href="#path-13"></use>
                        </mask>
                        <g id="SVGID_1_"></g>
                        <g id="g256" mask="url(#mask-14)">
                            <g transform="translate(130.795620, 59.464286)" id="g264-Clipped">
                                <g>
                                    <mask id="mask-16" sketch:name="SVGID_3_" fill="white">
                                        <use xlink:href="#path-15"></use>
                                    </mask>
                                    <g id="SVGID_3_"></g>
                                    <g id="g264" mask="url(#mask-16)">
                                        <g id="rect285-Clipped">
                                            <mask id="mask-18" sketch:name="SVGID_5_" fill="white">
                                                <use xlink:href="#path-17"></use>
                                            </mask>
                                            <g id="SVGID_5_"></g>
                                            <rect id="rect285" fill="url(#linearGradient-19)" sketch:type="MSShapeGroup" mask="url(#mask-18)" x="2.45737187" y="1.67293254" width="26.82103" height="168.125357"></rect>
                                        </g>
                                    </g>
                                </g>
                            </g>
                        </g>
                    </g>
                    <g id="g287-Clipped">
                        <mask id="mask-21" sketch:name="SVGID_1_" fill="white">
                            <use xlink:href="#path-20"></use>
                        </mask>
                        <g id="SVGID_1_"></g>
                        <g id="g287" mask="url(#mask-21)">
                            <g transform="translate(380.496350, 59.464286)" id="g295-Clipped">
                                <g>
                                    <mask id="mask-23" sketch:name="SVGID_8_" fill="white">
                                        <use xlink:href="#path-22"></use>
                                    </mask>
                                    <g id="SVGID_8_"></g>
                                    <g id="g295" mask="url(#mask-23)">
                                        <g id="rect312-Clipped">
                                            <mask id="mask-25" sketch:name="SVGID_10_" fill="white">
                                                <use xlink:href="#path-24"></use>
                                            </mask>
                                            <g id="SVGID_10_"></g>
                                            <rect id="rect312" fill="url(#linearGradient-26)" sketch:type="MSShapeGroup" mask="url(#mask-25)" x="0.780806255" y="1.67293254" width="26.6704165" height="98.0803889"></rect>
                                        </g>
                                    </g>
                                </g>
                            </g>
                        </g>
                    </g>
                    <g id="g314-Clipped">
                        <mask id="mask-28" sketch:name="SVGID_1_" fill="white">
                            <use xlink:href="#path-27"></use>
                        </mask>
                        <g id="SVGID_1_"></g>
                        <g id="g314" mask="url(#mask-28)">
                            <g transform="translate(134.759124, 222.000000)" id="g322-Clipped">
                                <g>
                                    <mask id="mask-30" sketch:name="SVGID_13_" fill="white">
                                        <use xlink:href="#path-29"></use>
                                    </mask>
                                    <g id="SVGID_13_"></g>
                                    <g id="g322" mask="url(#mask-30)">
                                        <g id="rect347-Clipped">
                                            <mask id="mask-32" sketch:name="SVGID_15_" fill="white">
                                                <use xlink:href="#path-31"></use>
                                            </mask>
                                            <g id="SVGID_15_"></g>
                                            <rect id="rect347" fill="url(#linearGradient-33)" sketch:type="MSShapeGroup" mask="url(#mask-32)" x="3.82081831" y="1.26460714" width="132.095646" height="96.4708889"></rect>
                                        </g>
                                    </g>
                                </g>
                            </g>
                        </g>
                    </g>
                    <g id="g349-Clipped">
                        <mask id="mask-35" sketch:name="SVGID_1_" fill="white">
                            <use xlink:href="#path-34"></use>
                        </mask>
                        <g id="SVGID_1_"></g>
                        <g id="g349" mask="url(#mask-35)">
                            <g transform="translate(150.613139, 35.678571)" id="g357-Clipped">
                                <g>
                                    <mask id="mask-37" sketch:name="SVGID_18_" fill="white">
                                        <use xlink:href="#path-36"></use>
                                    </mask>
                                    <g id="SVGID_18_"></g>
                                    <g id="g357" mask="url(#mask-37)">
                                        <g id="polygon386-Clipped">
                                            <mask id="mask-39" sketch:name="SVGID_20_" fill="white">
                                                <use xlink:href="#path-38"></use>
                                            </mask>
                                            <g id="SVGID_20_"></g>
                                            <path d="M357.59919,171.63375 L79.6664234,366.280179 L-117.466358,84.6890357 L160.462445,-109.961357 L357.59919,171.63375 Z" id="polygon386" fill="url(#linearGradient-40)" sketch:type="MSShapeGroup" mask="url(#mask-39)"></path>
                                        </g>
                                    </g>
                                </g>
                            </g>
                        </g>
                    </g>
                    <g id="g388-Clipped">
                        <mask id="mask-42" sketch:name="SVGID_1_" fill="white">
                            <use xlink:href="#path-41"></use>
                        </mask>
                        <g id="SVGID_1_"></g>
                        <g id="g388" mask="url(#mask-42)">
                            <g transform="translate(182.321168, 7.928571)" id="g396-Clipped">
                                <g>
                                    <mask id="mask-44" sketch:name="SVGID_23_" fill="white">
                                        <use xlink:href="#path-43"></use>
                                    </mask>
                                    <g id="SVGID_23_"></g>
                                    <g id="g396" mask="url(#mask-44)">
                                        <g id="rect421-Clipped">
                                            <mask id="mask-46" sketch:name="SVGID_25_" fill="white">
                                                <use xlink:href="#path-45"></use>
                                            </mask>
                                            <g id="SVGID_25_"></g>
                                            <rect id="rect421" fill="url(#linearGradient-47)" sketch:type="MSShapeGroup" mask="url(#mask-46)" x="1.75186465" y="0.48364365" width="86.6025547" height="36.5071056"></rect>
                                        </g>
                                    </g>
                                </g>
                            </g>
                        </g>
                    </g>
                    <g id="g423-Clipped">
                        <mask id="mask-49" sketch:name="SVGID_1_" fill="white">
                            <use xlink:href="#path-48"></use>
                        </mask>
                        <g id="SVGID_1_"></g>
                        <g id="g423" mask="url(#mask-49)">
                            <g transform="translate(269.518248, 158.571429)" id="g431-Clipped">
                                <g>
                                    <mask id="mask-51" sketch:name="SVGID_28_" fill="white">
                                        <use xlink:href="#path-50"></use>
                                    </mask>
                                    <g id="SVGID_28_"></g>
                                    <g id="g431" mask="url(#mask-51)">
                                        <g id="rect458-Clipped">
                                            <mask id="mask-53" sketch:name="SVGID_30_" fill="white">
                                                <use xlink:href="#path-52"></use>
                                            </mask>
                                            <g id="SVGID_30_"></g>
                                            <rect id="rect458" fill="url(#linearGradient-54)" sketch:type="MSShapeGroup" mask="url(#mask-53)" x="1.15734307" y="0.41625" width="137.422603" height="160.747821"></rect>
                                        </g>
                                    </g>
                                </g>
                            </g>
                        </g>
                    </g>
                    <g id="g460-Clipped">
                        <mask id="mask-56" sketch:name="SVGID_1_" fill="white">
                            <use xlink:href="#path-55"></use>
                        </mask>
                        <g id="SVGID_1_"></g>
                        <g id="g460" mask="url(#mask-56)">
                            <g transform="translate(269.518248, 7.928571)" id="g468-Clipped">
                                <g>
                                    <mask id="mask-58" sketch:name="SVGID_33_" fill="white">
                                        <use xlink:href="#path-57"></use>
                                    </mask>
                                    <g id="SVGID_33_"></g>
                                    <g id="g468" mask="url(#mask-58)">
                                        <g id="rect493-Clipped">
                                            <mask id="mask-60" sketch:name="SVGID_35_" fill="white">
                                                <use xlink:href="#path-59"></use>
                                            </mask>
                                            <g id="SVGID_35_"></g>
                                            <rect id="rect493" fill="url(#linearGradient-61)" sketch:type="MSShapeGroup" mask="url(#mask-60)" x="1.15734307" y="0.48364365" width="86.6065182" height="36.5071056"></rect>
                                        </g>
                                    </g>
                                </g>
                            </g>
                        </g>
                    </g>
                    <g id="g495-Clipped">
                        <mask id="mask-63" sketch:name="SVGID_1_" fill="white">
                            <use xlink:href="#path-62"></use>
                        </mask>
                        <g id="SVGID_1_"></g>
                        <g id="g495" mask="url(#mask-63)">
                            <g transform="translate(130.795620, 7.928571)" id="g503-Clipped">
                                <g>
                                    <mask id="mask-65" sketch:name="SVGID_38_" fill="white">
                                        <use xlink:href="#path-64"></use>
                                    </mask>
                                    <g id="SVGID_38_"></g>
                                    <g id="g503" mask="url(#mask-65)">
                                        <g id="rect528-Clipped">
                                            <mask id="mask-67" sketch:name="SVGID_40_" fill="white">
                                                <use xlink:href="#path-66"></use>
                                            </mask>
                                            <g id="SVGID_40_"></g>
                                            <rect id="rect528" fill="url(#linearGradient-68)" sketch:type="MSShapeGroup" mask="url(#mask-67)" x="2.6079854" y="0.48364365" width="55.0253212" height="58.9925357"></rect>
                                        </g>
                                    </g>
                                </g>
                            </g>
                        </g>
                    </g>
                    <g id="path530-Clipped">
                        <mask id="mask-70" sketch:name="SVGID_1_" fill="white">
                            <use xlink:href="#path-69"></use>
                        </mask>
                        <g id="SVGID_1_"></g>
                        <path d="M402.783131,83.3768571 L413.766,58.4415 L387.880358,50.8062857 C379.989022,48.4752857 374.186453,42.3583929 370.627226,32.6300357 L359.192518,1.32407143 L333.675482,22.4576786 C326.909781,28.0592143 320.056883,30.8976429 313.299109,30.8976429 C304.266285,30.8976429 293.980993,26.50125 287.104314,19.6945714 L270.671628,3.43307143 L254.238942,19.6945714 C247.358299,26.50125 237.076971,30.8976429 228.044146,30.8976429 C221.286372,30.8976429 214.433474,28.0592143 207.667774,22.4576786 L182.150737,1.32407143 L170.716029,32.6300357 C167.16473,42.3583929 161.358197,48.4752857 153.462898,50.8062857 L127.581219,58.4415 L138.560124,83.3768571 C143.633409,94.8891429 146.201759,106.900929 146.201759,119.079214 C146.201759,152.787536 129.016007,160.454464 129.016007,197.889214 C129.016007,251.823321 170.716029,287.117357 209.463241,297.0915 C229.038985,301.856571 234.956496,302.177679 252.633723,306.534429 C254.080401,308.092393 270.671628,325.955464 270.671628,325.955464 C270.671628,325.955464 287.266818,308.088429 288.709533,306.534429 C306.386759,302.177679 312.30427,301.856571 331.880015,297.0915 C370.623263,287.113393 412.331212,251.823321 412.331212,197.889214 C412.331212,160.454464 395.141496,152.787536 395.141496,119.079214 C395.141496,106.896964 397.71381,94.8891429 402.783131,83.3768571 M399.96508,158.987679 C404.102978,169.346357 408.09819,180.153 408.09819,197.889214 C408.09819,247.157357 371.423891,282.542571 330.829686,292.992429 C310.758504,298.06275 301.408599,298.558286 286.450336,302.748536 C284.500292,304.794107 270.679555,319.7355 270.679555,319.7355 C270.679555,319.7355 256.854854,304.790143 254.908774,302.748536 C239.946547,298.558286 230.600606,298.06275 210.529423,292.992429 C179.174146,284.925107 150.17319,261.975857 138.583905,229.262571 C135.163401,219.609536 133.252993,209.116071 133.252993,197.889214 C133.252993,161.096679 150.442708,154.127464 150.442708,119.079214 C150.442708,104.716607 146.990496,92.0031429 142.440394,81.66825 L133.403606,61.1411786 L154.663839,54.8657143 C163.91862,52.1382857 170.66054,45.1452857 174.69935,34.0849286 L184.073036,8.41221429 L204.968628,25.7202857 C211.845307,31.413 219.700971,35.1354643 228.048109,35.1354643 C239.229153,35.1354643 250.303182,29.55375 257.219496,22.7074286 L270.675591,9.39139286 L284.13565,22.7074286 C291.055927,29.55375 302.125993,35.1354643 313.303073,35.1354643 C321.646248,35.1354643 329.505876,31.413 336.378591,25.7202857 L357.278146,8.41221429 L366.647869,34.0849286 C370.694606,45.1452857 377.428599,52.1382857 386.687343,54.8657143 L407.943613,61.1411786 L398.910788,81.66825 C394.356723,92.0031429 390.904511,104.716607 390.904511,119.079214 C390.908474,137.235643 395.521993,147.852 399.96508,158.987679" id="path530" fill="#000000" sketch:type="MSShapeGroup" mask="url(#mask-70)"></path>
                    </g>
                    <g id="path536-Clipped">
                        <mask id="mask-72" sketch:name="SVGID_1_" fill="white">
                            <use xlink:href="#path-71"></use>
                        </mask>
                        <g id="SVGID_1_"></g>
                        <path d="M394.622277,67.40475 C394.622277,67.40475 361.812394,64.5425357 352.922255,24.6499286 C352.922255,24.6499286 333.24346,44.9153571 313.303073,44.9153571 C287.595788,44.9153571 270.675591,23.06025 270.675591,23.06025 C270.675591,23.06025 253.759358,44.9153571 228.048109,44.9153571 C208.103759,44.9153571 188.428927,24.6499286 188.428927,24.6499286 C179.538788,64.5465 146.724942,67.40475 146.724942,67.40475 C146.724942,67.40475 160.074022,91.0279286 160.074022,118.999929 C160.074022,122.674821 159.887737,126.060321 159.566693,129.247607 C156.736752,157.191857 142.916015,168.398893 142.916015,197.88525 C142.916015,234.067286 167.695839,272.045143 212.93527,283.494 C234.42935,288.925071 249.264745,290.312571 260.188161,294.253071 C261.587277,295.561286 270.675591,305.4165 270.675591,305.4165 C270.675591,305.4165 279.763905,295.561286 281.163022,294.253071 C292.086438,290.312571 306.925796,288.925071 328.415912,283.494 C373.655343,272.045143 398.435168,234.067286 398.435168,197.88525 C398.435168,165.041143 381.281124,154.884643 381.281124,118.999929 C381.277161,91.0279286 394.622277,67.40475 394.622277,67.40475 M388.791964,197.889214 C388.791964,239.708464 356.211964,266.332607 326.006102,273.999536 C302.086358,280.072821 286.450336,280.766571 275.943088,285.832929 C275.943088,285.832929 272.12227,289.329429 270.675591,290.934964 C269.228912,289.329429 265.408095,285.832929 265.408095,285.832929 C254.90481,280.766571 239.268788,280.072821 215.34508,273.999536 C185.139219,266.328643 152.559219,239.708464 152.559219,197.889214 C152.559219,167.978679 169.725153,156.997607 169.725153,119.003893 C169.725153,93.4025357 160.046277,73.6722857 160.046277,73.6722857 C160.046277,73.6722857 182.376657,69.1648929 192.780854,40.8955714 C192.780854,40.8955714 207.596431,54.7269643 228.048109,54.7269643 C253.664234,54.7269643 270.675591,36.7370357 270.675591,36.7370357 C270.675591,36.7370357 287.686949,54.7269643 313.303073,54.7269643 C333.754752,54.7269643 348.570328,40.8955714 348.570328,40.8955714 C358.974526,69.1648929 381.304905,73.6722857 381.304905,73.6722857 C381.304905,73.6722857 371.626029,93.4025357 371.626029,119.003893 C371.626029,156.997607 388.791964,167.978679 388.791964,197.889214" id="path536" fill="#000000" sketch:type="MSShapeGroup" mask="url(#mask-72)"></path>
                    </g>
                    <g id="path538-Clipped">
                        <mask id="mask-74" sketch:name="SVGID_1_" fill="white">
                            <use xlink:href="#path-73"></use>
                        </mask>
                        <g id="SVGID_1_"></g>
                        <path d="M313.303073,65.6882143 C294.175204,65.6882143 279.224869,57.3394286 270.675591,51.0560357 C262.126314,57.3394286 247.179942,65.6882143 228.048109,65.6882143 C215.420387,65.6882143 204.671365,61.41075 197.093146,57.1689643 C190.042073,68.9468571 181.191569,75.7892143 174.140496,79.6583571 C177.168613,88.7326071 180.688204,102.75825 180.688204,118.999929 C180.688204,150.274179 170.010526,164.930143 165.496095,182.634643 L322.113942,64.9984286 C319.303818,65.4345 316.358934,65.6882143 313.303073,65.6882143" id="path538" fill="#000000" sketch:type="MSShapeGroup" mask="url(#mask-74)"></path>
                    </g>
                    <g id="path540-Clipped">
                        <mask id="mask-76" sketch:name="SVGID_1_" fill="white">
                            <use xlink:href="#path-75"></use>
                        </mask>
                        <g id="SVGID_1_"></g>
                        <path d="M360.659015,119.003893 C360.659015,102.762214 364.182569,88.7365714 367.210686,79.6623214 C361.17427,76.3481786 353.81008,70.8497143 347.401095,61.9459286 L163.557942,200.033893 C164.437839,227.18925 181.980307,246.963107 202.023745,257.266286 L361.982825,137.116714 C361.158416,131.721321 360.659015,125.751107 360.659015,119.003893 L360.659015,119.003893 Z M245.297277,212.568964 L231.072263,223.24875 L215.72954,199.752429 L215.72954,234.780857 L202.269482,244.885821 L202.269482,195.348107 C202.269482,188.347179 195.590978,188.160857 195.590978,188.160857 L214.663358,173.833929 L231.837219,200.144893 L231.837219,160.934143 L245.297277,150.825214 L245.297277,212.568964 L245.297277,212.568964 Z M299.569533,171.804214 L286.410701,181.691143 L286.410701,159.114536 L271.226518,170.515821 L271.226518,193.096393 L257.401818,203.478857 L257.401818,153.937179 C257.401818,146.940214 250.71935,146.753893 250.71935,146.753893 L271.226518,131.352643 L271.226518,154.171071 L286.410701,142.769786 L286.410701,119.955321 L299.569533,110.060464 L299.569533,171.804214 L299.569533,171.804214 Z M349.22827,134.508214 L311.055766,163.177929 L311.055766,113.640214 C311.055766,106.639286 304.373299,106.452964 304.373299,106.452964 L324.876504,91.0517143 L324.876504,137.037429 L349.22827,118.750179 C349.22827,118.750179 348.399898,124.629214 349.22827,134.508214 L349.22827,134.508214 Z" id="path540" fill="#000000" sketch:type="MSShapeGroup" mask="url(#mask-76)"></path>
                    </g>
                    <g id="path542-Clipped">
                        <mask id="mask-78" sketch:name="SVGID_1_" fill="white">
                            <use xlink:href="#path-77"></use>
                        </mask>
                        <g id="SVGID_1_"></g>
                        <path d="M215.896007,262.788536 C216.613401,262.990714 217.326832,263.192893 218.040263,263.367321 C236.989774,268.187893 260.168343,270.669536 267.167891,274.665536 C268.745365,275.819143 270.675591,277.872643 270.675591,277.872643 C270.675591,277.872643 272.605818,275.819143 274.183292,274.665536 C281.186803,270.669536 304.361409,268.187893 323.314883,263.367321 C349.565168,256.683536 377.832876,233.365607 377.832876,197.88525 C377.832876,180.200571 370.076299,168.565393 364.991124,150.797464 L215.896007,262.788536 L215.896007,262.788536 Z" id="path542" fill="#000000" sketch:type="MSShapeGroup" mask="url(#mask-78)"></path>
                    </g>
                </g>
            </g>
        </g>
    </g>
</svg>