<svg width="512" height="512" viewBox="0 0 512 512" xmlns="http://www.w3.org/2000/svg" xmlns:sketch="http://www.bohemiancoding.com/sketch/ns"><title>hull-city</title><desc>Created with Sketch.</desc><g sketch:type="MSLayerGroup" fill="none"><path id="Shape" d="M102.043 76.79c.054-.496.129-.989.201-1.481l.025.403c.112 1.557.101 3.12.083 4.68-.014 69.884.018 139.764-.014 209.647-.151-.978-.273-1.959-.306-2.944.007-70.103-.011-140.209.011-210.305z" fill="#1B1204" opacity=".24" sketch:type="MSShapeGroup"/><path id="Shape" d="M102.245 75.309c100.88.126 201.76.007 302.64.061 2.032.047 4.079-.165 6.094.201l-.424.029c-1.996.334-4.018.147-6.029.173-100.751-.043-201.505-.014-302.255-.061l-.025-.403z" fill="#291C07" opacity=".95" sketch:type="MSShapeGroup"/><path d="M102.27 75.711c100.751.047 201.505.018 302.255.061 2.011-.025 4.032.162 6.029-.173.086 1.477.108 2.955.086 4.432-.018 69.743.018 139.483-.014 209.223-.09 22.461-5.428 45.503-18.648 63.992-9.77 13.937-23.331 24.776-37.936 33.303-18.339 12.503-39.317 20.149-59.545 28.942-13.346 5.802-26.72 12.082-38.048 21.364-8.939-7.391-19.277-12.834-29.76-17.687-19.785-9.099-40.523-16.256-59.375-27.288-4.227-2.448-8.202-5.292-12.428-7.736-17.403-10.644-32.799-25.369-41.684-43.94-7.569-15.548-10.766-32.957-10.864-50.166.032-69.884 0-139.764.014-209.647.018-1.56.029-3.124-.083-4.68zm18.069 16.907c-.014 61.709-.004 123.422-.007 185.13.032 7.779-.198 15.58.647 23.33 1.514 15.864 6.734 31.631 16.547 44.335 7.953 10.461 18.504 18.661 29.781 25.268 18.777 10.989 39.422 18.136 59.138 27.177 10.565 4.878 21 10.342 30.004 17.798 13.637-11.14 30.073-17.971 46.131-24.812 19.713-8.358 40.001-16.353 57.037-29.621 8.903-6.945 16.637-15.505 22.062-25.437 6.011-10.867 9.194-23.115 10.342-35.431.741-7.272.54-14.591.568-21.889 0-61.95-.004-123.9 0-185.849-90.75-.007-181.501-.004-272.251 0zm115.053 28.866c2.95-3.124 7.59-3.102 11.565-3.038 10.069.737 20.058 2.8 30.191 2.355.73.83 1.424 1.697 2.05 2.61-3.313 1.129-6.831 1.089-10.284.953-1.112.05-2.396-.226-3.349.489-.486 1.176-.741 2.437-1.342 3.57 1.5.82 3.263.794 4.813 1.449 2.547 1.517 4.234 4.281 4.363 7.247 1.054 1.434.655 3.491 2.083 4.663 1.054.884.817 2.326.734 3.534.705.802 1.313 1.682 1.806 2.631-.964.32-2 .431-2.939-.04-2.917-1.344-6.522-.288-9.101-2.516.435-.78.957-1.51 1.543-2.189-2.05-1.269-4.263-2.268-6.191-3.724.734-.888 1.651-1.593 2.673-2.128-2.91-1.83-5.932-3.512-8.579-5.727.899-2.696 4.216-1.995 6.417-2.135-1.536-1.204-2.993-2.506-4.446-3.807-4.018-.845-7.885-2.286-11.874-3.25-3.324-.877-6.817-.025-10.133-.945zm-6.626.414c1.18-.41 2.414-.255 3.583.115-.871 2.027-1.396 4.519-3.385 5.777-3.191 1.718-6.943 1.28-10.407 1.869-1.579.036-2.36 1.83-3.964 1.801-5.137.345-8.324 6.043-13.669 5.461l-.759-1.449c8.554-6.273 18.321-10.932 28.601-13.574zm52.012.194c7.158.92 14.022 3.347 20.759 5.849 2.216.766 4.133 2.135 6.198 3.21 1.644.927 3.648.6 5.331 1.416 3.266 1.503 6.554 2.962 9.784 4.547-.838.78-1.748 1.966-3.05 1.693-2.737-.568-5.353-1.614-8.054-2.326 2.061 3.038 5.184 6.73 9.317 5.705 9.058-2.035 17.705-5.637 26.846-7.337 2.899-.554 6.194-.5 8.623 1.391 3.122 2.391 4.241 6.528 4.335 10.296-.054 4.08-.273 8.157-.345 12.237-.09.712.388 1.276.802 1.794 3.576 4.213 7.813 7.937 10.691 12.701.68 1.474 1.608 4.655-.871 4.695 1.529 1.301 3 2.682 4.309 4.213-.381.413-.763.83-1.14 1.247 2.05 1.61 3.889 3.483 5.493 5.536-.522.435-1.047.863-1.572 1.291 1.536 1.664 3.385 2.969 5.209 4.285-1.64.938-3.565.212-5.083-.618-2.536-1.445-4.669-3.462-7.015-5.177l-.594.579c.802 1.15 1.471 2.387 1.968 3.699-2.978.6-4.482-2.409-6.058-4.328-.978-1.38-2.198-2.707-2.371-4.468 1.302-.636 2.532-1.416 3.651-2.337-2.025-1.887-5.774-2.998-5.917-6.122l2.324-.643c-2.525-1.24-5.202-2.125-7.91-2.861-.96 1.255-2 2.452-3.022 3.66 2.025 1.025 4.137 1.877 6.101 3.023-.101 2.006.993 3.624 2.378 4.954-1.176.748-2.522.363-3.763.043.698.967 1.41 1.93 2.076 2.923-1.885.679-3.748-.259-5.59-.6 1.831 2.02 4.184 3.433 6.374 5.015-.371.593-.752 1.179-1.133 1.765.532.848 1.022 1.726 1.504 2.61-.791.058-1.583.097-2.363.165.662.593 1.338 1.176 2 1.783-.773.683-1.59 1.305-2.425 1.902 1.799 1.837 3.453 3.832 4.741 6.068-1.766.424-3.72.205-5.263 1.323-1.493.902-2.464-1.204-3.342-2.081-.435.158-.867.32-1.291.489 1.083 1.506 2.155 3.138 3.878 3.979.288-.374.579-.748.871-1.118 2.299 1.028 3.532 3.411 4.353 5.665-1.594.28-2.993-.327-3.971-1.578l-1.065 1.291c1.928 2.577.086 5.788.831 8.638.763 3.088 1.478 6.194 1.917 9.35-1.331-.467-2.809-1.096-3.335-2.524-.827-2.25-.486-4.792-1.669-6.945-1.108.633-2.27 1.244-3.583 1.19.09 4.156-1.155 8.771.924 12.589.935-.69 1.968-1.265 3.166-1.28-.043 1.643.277 3.365-.259 4.954-.755 1.312-2.525 2.815-4.068 1.805-1.252-.708-2.54-1.614-3.13-2.969-.615-1.841.176-3.771-.097-5.647-.245-1.575-.784-3.084-1.255-4.601-.335.205-.665.413-.993.626-1.543-2.743-.212-5.748.773-8.416l-.831-.701c-2.737.579-2.345 3.429-1.86 5.507l-.719.561c-1.737-4.184-1.183-9.817-5.633-12.413.058-2.782.392-5.608 1.338-8.239.896-1.761 3.496-3.598 5.076-1.567-.248-2.682-1.666-5.029-2.439-7.567.784-.144 1.568-.295 2.356-.446.968 1.751 1.083 3.832 2.158 5.529 1.802-4.796.46-9.933.586-14.886.108-1.697-.565-3.275-1.317-4.749-1.022.892-2.144 1.686-3.018 2.728-.856 1.003-.187 2.344-.086 3.487-1.978.14-3.119-1.69-4.522-2.75-2.842-1.952-.313-6.6 2.518-6.927 6 .618 10.605-4.396 13.45-9.07 2.687-4.235 2.795-9.386 3.522-14.192.716-4.494.554-9.361-1.748-13.402-2.043-3.979-7.68-5.09-11.238-2.502.579.51 1.165 1.017 1.748 1.535-1.558 2.782-4.777 3.562-7.504 4.698-2.651.942-3.576 4.228-6.525 4.659-.536 1.15-.788 2.7-2.119 3.214-1.705.712-3.586.769-5.381 1.114 1.076 1.499.978 4.562 3.378 4.526 3.73.007 6.378-2.948 9.353-4.749 2.608-1.686 6.162-2.15 8.917-.536-1.435 1.722-3.979.69-5.59 2.067-1.482 1.158-2.392 2.977-4.18 3.746-1.691.651-1.604 2.711-2.518 3.997-.86.457-1.835.129-2.709-.068-2.237-.852-4.59-.065-6.885-.18-2.443-.158-3.961-2.732-6.468-2.66-2.14-.022-3.407-2.027-5.155-2.941-2.331-.536-5.119-.439-6.687 1.643-1.716-.04-3.428-.129-5.14-.032 1.148.615 2.608 1.007 3.18 2.311 1.766 3.401 3.77 6.708 5.086 10.321-.349.395-.694.787-1.036 1.183.464.733.935 1.46 1.407 2.189-.752.626-1.522 1.226-2.291 1.823-1.802-2.347-3.374-4.849-4.971-7.337-.975.532-1.989.992-3.025 1.391l.32 1.265c1-.96 2.237-1.582 3.583-.888-.187 1.582-1.331 3.404-.216 4.857 1.266 1.657 3.036 2.818 4.651 4.102-.917.478-1.856.899-2.784 1.344 1.694.661 3.979.665 4.925 2.495 1.518 2.66 3.014 5.342 4.752 7.873.536.694.457 1.6.54 2.427-3.407.528-4.756-3.501-6.745-5.493-.137 1.873.457 3.936 2.198 4.907 2.396 1.42 5.166 2.757 6.191 5.561-2.684.741-4.982-1.398-7.403-2.2-2.82-1.869-5.572 1.355-6.806 3.631.212 1.97 2.198 3.545 1.777 5.709-.489 3.397-.36 6.873 1.054 10.055.324-2.139.529-4.299.583-6.464.018-2.013-1.151-3.857-1.079-5.86.813-1.442 1.874-2.739 2.802-4.109 1.766-.525 3.288.935 4.925 1.366 1.576.392 2.241 2.002 2.982 3.271-1.363.554-2.781.241-4.047-.388-1.489 1.959-1.205 4.486-1.291 6.798-.065 2.444-1.324 4.627-1.809 6.981-.079 2.006 1.101 3.836 1.094 5.838-.104 1.255-1.313 2.002-2.493 1.977-.324-.449-.651-.895-.989-1.334-.133 1.352.219 2.657.615 3.933.518 1.823-.63 3.764-2.36 4.422.054.572.112 1.147.173 1.722l.615.622c1.018-.014 2.036-.025 3.058-.043.791-2.635.626-7.193 4.403-7.186 2.252-3.329 1.079-7.452.604-11.108.572-1.776 2.881-.471 4.227-.449.122 2.908-1.378 6.305.68 8.822.432-.564 1.029-1.132.867-1.916-.241-2.901-.842-5.759-1.108-8.656-.129-1.528 1.014-2.797 1.101-4.285-.27-2.056-1.748-3.868-1.493-6.007.209-2.211 1.586-4.051 2.914-5.745 1.245 1.165 2.878 1.237 4.464.863.831 2.351 1.183 4.882 2.41 7.082 1.004-2.322-.5-5.504 1.752-7.244 1.022 2.218 2.353 4.343 2.96 6.726.079 2.707-4.014 2.714-4.14 5.385-.507 4.889.173 9.817.176 14.724-.097 1.596.367 3.156 1.442 4.357.871-.018 1.745-.025 2.622-.032.381-2.833.374-5.849 1.993-8.34.766.687 2.493 1.639 1.5 2.804-1.32 1.575-.712 3.731-.755 5.604.723-.173 1.91.029 2.119-.935.475-2.204-.014-4.454-.09-6.668.191-1.197 1.637-2.448.536-3.588-1.205-1.326-.313-3.145-.162-4.684.863.345 1.806.762 1.993 1.783 3.029 8.531 5.525 17.485 5.302 26.605-.889 5.755.23 11.622-.763 17.363-.759 3.519.112 7.075.712 10.544-2.777-1.474-2.694-4.86-3.18-7.542-.388-.399-1.04-.697-.986-1.344-.101-2.93.007-5.863-.032-8.793-3.295-1.158-1.666-5.097-3.18-7.431-.903 1.032-1.899 1.981-3 2.8-1.874-1.905-.201-4.594.004-6.827.302-2.844.745-5.924-.23-8.664-1.867 1.632-2.148 4.062-1.939 6.395-1.496-1.111-2.547-2.66-3.363-4.31-1.004 2.664-2.068 5.324-2.73 8.096-.295 1.01.576 1.851.651 2.822-.313 1.697-1.076 3.656-2.996 3.987-.378-1.05-.727-2.107-1.108-3.153.734 3.94-1.871 8.257-5.482 9.792.507 2.329-1.313 4.109-1.917 6.219-.27 1.244-1.572 1.56-2.583 1.999-.424 1.456-.853 2.912-1.371 4.343-3.169.884-1.55 4.943-3.407 6.992-.655.007-1.302.022-1.95.043.068-1.575.014-3.149-.054-4.72-.493 2.509-.874 5.076-.615 7.639.342 4.159.007 8.441 1.327 12.46.687 2.193 1.971 4.116 3.094 6.097 2.45-5 4.36-10.465 8.27-14.566.435-.726 1.946-1.043 2.097.025-.029 2.315-1.165 4.436-2.025 6.539-2.748 6.348-6.774 12.111-9.705 18.305-2.561.762-2.41 3.462-2.903 5.615-.863-.766-2.23-1.481-2.201-2.79.867-2.707 2.086-5.741.924-8.531-.838-1.593 1.925-2.991.511-4.458-.77-.776-1.324-2.207-2.407-2.401-2.083 3.296 2.259 6.783.36 10.094-1.083 2.358-1.259 4.986-1.421 7.542-.439.277-.878.561-1.313.845l-1.335-.399c.054-2.707.381-5.396.637-8.088.219-1.657-.871-3.081-1.061-4.677-.079-2.746.824-5.443.637-8.185-.709-1.28-2.119-2.182-2.317-3.724-.227-2.143.302-4.289.104-6.442-1.712.291-3.133 1.312-4.651 2.067-.295 1.039-.608 2.071-.939 3.099-.644 0-1.288 0-1.928.004-.223-1.912-.126-3.836.054-5.741-4.493.183-3.781-5.392-5.234-8.221-.964 2.178-1.313 4.767-3.108 6.474-1.176 1.025-2.727.036-3.975-.295.252 2.437 1.558 4.591 2.043 6.981.572-.525 1.122-1.078 1.748-1.546 2.396 1.891 1.137 5.313.993 7.883l.647.683c1.011-1.902 1.781-3.951 3.043-5.705 1.885.237 1.626 2.693 2.047 4.091.176 1.449 1.644 1.988 2.878 2.25-.079 3.25-.302 6.51.014 9.753 2.309-2.585.824-6.194.46-9.188.191-3.063 1.101-6.068 2.263-8.901l2.036-.047c2.295 5.32 1.407 11.227 2.104 16.827.259 3.088 1.155 6.309.079 9.332-1.216.78-2.496 1.467-3.612 2.398-.773-.086-1.547-.176-2.313-.266-.324.766-.619 1.542-.896 2.326-2.187.866-4.486 1.463-6.835 1.646.09-1.294.205-2.757 1.374-3.566 2.255-1.715 2.097-6.611-1.237-6.924-.223-2.639-.853-5.245-1.978-7.643-.428 3.239 1.414 6.302.986 9.508-.924 2.225-3.475.403-4.806-.435-.201.981.119 2.232-.558 3.03-1.82.615-3.054-1.589-2.684-3.135.234-1.24 1.277-2.045 2.219-2.764-.335-3.8-.313-7.621-.568-11.421-.004-.766-.414-1.42-.777-2.056-.36.399-.982.719-.921 1.352-.126 3.124.284 6.251.014 9.375-.799.144-1.795-.108-2.457.428-.183 1.104-.234 2.229-.414 3.34-2.241-2.125-2.59-5.313-3.734-8.031-1.065.949-3.583 2.186-4.104.108-1.09-1.909.799-3.458 1.209-5.205-.169-1.503-1.212-2.696-2.043-3.893-1.144 3.135-2.622 6.309-2.378 9.735-.698-.004-1.392-.007-2.083-.004.068-3.926.421-8.149-1.579-11.705-.543.949-1.04 1.927-1.565 2.89-3.266-2.117-.957-6.561-1.626-9.724-.838-.151-1.845-.428-2.482.334-1.712 1.765-2.291 4.249-3.202 6.464-.529-.011-1.058-.018-1.583-.022-.727-1.772.45-3.447 1.148-5.011 1.896-3.527 3.536-7.373 6.407-10.227 1.881-.108 2.46 2.071 2.619 3.555 3.511-.78 4.18-5.399 3.14-8.362-1.068-.741-2.327-1.341-3.029-2.48.45-2.268 1.921-4.159 2.626-6.341.536-1.096-1.345-1.632-.96-2.707.755-1.485 2.216-2.531 2.712-4.163.759-2.175.115-4.486-.608-6.575-.525.503-1.04 1.017-1.554 1.528l-1.784-.036c-.406-3.573.068-7.168-.137-10.738-.802-2.06-1.407-4.195-1.094-6.431-.594-.04-1.183-.075-1.773-.104-.353 1.283-.59 2.592-.795 3.908l-.601.313c-3.047 1.086-5.015 3.753-6.705 6.356-.345 1.65-.122 3.451-1.101 4.936-2.108 3.818-3.737 8.333-7.694 10.644.41 1.654.371 3.595-.932 4.864-2.194 2.196-5.482 2.552-8.421 2.836.014 1.201.083 2.401.155 3.602-3.209 1.859-6.489-1.021-8.846-3.012-1.317 3.185 1.162 6.456 2.277 9.39-1.644.618-2.921-.683-3.979-1.747-2.95-.122-5.921.187-8.853-.129-1.608-1.233-2.878-3.056-5.119-3.145-.097-5.227-7.54-3.66-8.943-7.927 1.054-.812 2.385-1.657 2.367-3.163.957-4.432-.176-8.879-1.176-13.189-.432-1.956-2.45-2.818-3.842-4.005.32-1.017.619-2.038.853-3.074-.561.701-1.032 1.481-1.683 2.103-1.086.449-2.342.09-3.453.46-.73.856-.475 2.171-.198 3.174.813 2.48 1.874 4.878 2.525 7.413-6.051 1.078-12.885-3.699-13.205-10.051-1.331-1.025-2.644-2.081-3.773-3.332 2.011-.787 5.194-.827 5.86-3.307-.403-2.905-3.036-4.788-4.799-6.924 1.083-1.431 3.493-1.977 2.935-4.202-1.853-.054-2.694 1.481-3.493 2.865-1.234.367-2.245-.697-2.853-1.628-1.478-2.279-1.284-5.119-2.108-7.625-.475-1.708-2.719-2.682-2.155-4.68.604-3.275.007-7.165 2.561-9.728-1.874-.004-2.817-1.578-3.705-2.973-.507 1.37.029 2.894-.345 4.224-2.817 2.948-2.198 7.409-1.428 11.054.212 1.754 1.741 2.84 2.464 4.343.043 1.057-.871 2.002-.64 3.059.608.759 1.475 1.255 2.112 1.988.453 2.261-.853 4.846.683 6.87.709 1.28 2.248 1.434 3.453 1.981.46.751.349 1.697.036 2.48-1.345 1.215-2.921 2.225-3.907 3.785-2.072 3.174-2.604 7.014-4.115 10.439-.655.007-1.306.014-1.957.025-.385-1.193-.489-2.473-.004-3.652 1.302-3.652 3.345-6.992 5.475-10.213l-.95-1.406c-2.277 1.974-4.41 4.102-6.547 6.219l-1.547.004c.025-3.171 3.302-4.817 5.018-7.125.673-.909 2.324-1.995 1.371-3.21-1.227-1.273-3.144-.244-4.299.626-4.831 3.843-7.874 9.336-11.608 14.142 1.025-3.131 2.076-6.377 4.162-8.983 2.568-2.944 5.979-5.087 8.23-8.318.802-1.122 1.263-2.513 1.011-3.893-.669-4.659-1.428-9.303-2.259-13.934-.043-1.125-1.237-1.474-2.058-1.941-3.63-1.718-7.417-3.117-11.299-4.152-3.392-1.043-6.863.395-10.31.133l2.345-1.183c-2.727-.248-5.461-.007-8.191.025 3.122-2.951 7.676-1.528 11.454-1.179 2.835.654 5.604-1.294 8.396-.288-.331.525-.683 1.039-1.04 1.546 3.464 1.323 6.925 2.649 10.36 4.044.942-1.6 1.183-4.396-.993-5.065-2.453-.291-4.939.018-7.403-.155 1.058-1.751 3.162-1.409 4.896-1.549-8.525-3.491-17.943-3.235-26.957-2.516 3.036-.827 6.13-1.413 9.227-1.956 5.417-.575 10.849 1.708 16.234.604-.259-.78-.572-1.539-.924-2.276l.471-.931c2.572 1.898 4.662 4.512 7.543 5.946 1.36-.295 2.601-1.409 2.971-2.757-.162-1.003-.928-1.747-1.633-2.412-2.874-2.542-6.403-4.181-9.399-6.561 4.691-.036 8.036 3.904 11.705 6.291 4.036-3.059 4.414-8.872 3.63-13.484-.928-5.27.112-10.838 2.791-15.458 1.385-1.603 3.155-2.991 3.597-5.195.489-.007.978-.011 1.471-.011l-.514 1.743c-.766 3.343-3.061 6.776-1.608 10.238 1.032 2.811 2.727 5.784 5.792 6.694.004 2.078-1.608 3.527-2.41 5.31 1.809-1.815 3.079-4.152 5.281-5.565l.327-1.693c2.076-.859 4.766-1.326 4.763-4.145 2.691-1.47 3.975-4.407 4.604-7.265-1.241 1.517-1.766 3.645-3.554 4.666-1.827 1.021-2.371 3.588-4.54 4.084-5.083 1.043-7.871-7.945-3.058-9.85 1.55.492 2.374 2.078 3.453 3.189.755-.489 1.5-.996 2.227-1.524-1.201-1.862-3.227-3.135-5.392-3.534-1.241.327-1.986 1.614-3.223 2.002-1.396-.032-2.201-1.614-1.504-2.79 1.187-1.107 2.889-1.28 4.367-1.79 1.428-.377 3.108-1.035 4.475-.14.96.863.978 2.319 1.773 3.3.824.773 2.018.492 2.989.226-.421-1.643-1.817-3.336-.896-5.051 1.799-3.965 3.939-7.905 7.033-11.018.532-.773 1.389-.158 2.09-.036.126 1.495-.367 2.894-1.586 3.811-1.561 1.057-.442 3.074-1.255 4.494-.734 1.341-1.723 2.524-2.475 3.854.835-.083 1.648-.288 2.389-.694l.838.309c-.165 1.179-.295 2.365-.378 3.552 1.389-1.33 2.752-2.8 3.489-4.605.41-1.043-1.615-1.593-.924-2.642.791-1.043 2.043-1.618 2.86-2.642.892-1.294.687-3.095 1.781-4.281 1.46-1.564 3.536-2.333 5.554-2.883.867 2.168-.77 4.091-1.313 6.1.791-.618 1.478-1.352 2.122-2.117.867.05 2.191.101 2.212 1.269-.129 1.578-.889 3.11-1.892 4.317-1.327.895-3.133.953-4.248 2.196-2.187 2.369-2.036 5.996-4.212 8.383-1.903 1.905-3.378 4.353-3.032 7.157 2.946-2.347 2.95-6.474 5.212-9.293 1.579-2.099 3.259-4.145 5.173-5.946.619 1.679-.36 3.264-.906 4.806-.489 1.176.223 2.488-.291 3.66-.68 1.657-1.788 3.084-2.842 4.515.662.201 1.32.406 1.982.618-.496.874-1.007 1.74-1.493 2.621 3.137-2.646 7.288-1.758 11.047-1.88l1.094-1.355c-.784-.126-1.594-.165-2.345-.428-.608-2.031 2.144-2.79 2.471-4.605.284-1.506 1.338-2.613 2.755-3.145.59 1.927 1.622 3.789 1.719 5.824-.665 1.869-1.928 3.559-3.428 4.846-1.813.597-3.676 1.107-5.194 2.344-1.417 1.107-2.853-.46-4.281-.694-2.252.572-3.835 2.642-6.115 3.113-1.64-.022-1.845-1.988-2.41-3.142-1.853 2.383-4.234 4.627-5.018 7.617 1.648.004 3.291-.079 4.935-.133.248 1.01.615 2.265-.273 3.084-1.806 1.632-4.504 1.075-6.586 2.085-1.173 1.046-.881 2.98-2.086 4.026-.885.744-2.133.611-3.202.791.46.809 1.086 1.948.277 2.761-1.327 1.043-3.59-.147-4.511 1.575-1.389 2.326-2.619 4.939-5.238 6.136-.273-.971-.525-1.945-.813-2.908-1.604 2.092-.327 4.903-1.59 7.114-.745 1.319-.921 2.822-.824 4.314 2.428.471 4.576-.999 5.583-3.131.813-1.539 2.284-2.631 2.899-4.278-2.475.09-2.885 3.171-4.255 4.742-.903.022-1.845-.065-2.349-.924 1.752-3.07 3.795-5.989 6.058-8.7 1.327-.708 2.903-.83 4.291-1.424.719.927 1.273 1.966 1.73 3.048 1.46-1.132 3.169-2.027 4.202-3.624-1.054-.176-2.813-.029-2.428-1.625.935-2.506 2.932-4.436 4.576-6.499.194.852.378 1.708.59 2.56 1.673-.338 2.856-1.639 3.266-3.264 2.137-.705 4.482-1.118 6.63-.212 2.784.999 5.781.449 8.669.575.324-.467.647-.935.975-1.398-4.259-2.545-9.461-2.452-13.853-4.67 1.827-1.366 4.155-2.204 6.439-2.085 3.205.812 6.403 3.379 9.799 1.697 1.748-.442 1.302-2.423 1.514-3.775 5.676-1.618 5.792-9.131 10.828-11.5 1.511-.895 2.827 1.071 4.32.28 2.63-.715 5.795-3.494 8.169-.759-.658-.122-1.317-.216-1.971-.316-1.097 1.319-2.604 2.667-2.396 4.562-.147 1.492 1.151 2.416 2.219 3.171 1.82-.877 1.77-2.93 1.824-4.659 1.094-.187 2.237-.241 3.273.234 3.335 1.003 6.802 4.386 10.338 2.337 2.255-1.269 4.597-3.354 4.705-6.111-.453-1.251-1.475-2.193-2.144-3.329 1.302-1.413 3.331-1.916 5.194-1.887 2.13.546 3.27 2.66 4.622 4.217.288-2.053.356-4.228 1.424-6.068 1.076-1.934 2.356-3.832 2.597-6.093 1.964-1.237 5.414-3.261 7.061-.59 1.083 1.794 3.155 2.383 5.025 2.984-.572-1.747-1.302-3.473-2.237-5.051-1.561-1.219-3.504-1.826-5.104-2.998 1.424-.697 2.946-1.154 4.457-1.621-.155-1.362-.317-2.728-.388-4.098 2.666.615 4.892 2.222 7.166 3.649 1.817.715 3.633 1.431 5.385 2.29 1.982-.543 3.558-1.966 5.22-3.11-1.453-1.844-3.968-1.682-6.072-1.646.924-4.414-3.223-7.233-4.385-11.104l1.101-.899c-2.802-1.395-5.842-2.207-8.694-3.476-.252-1.208-.554-2.401-.842-3.595zm14.371 6.96c.989 6.061 8.605 7.366 10.284 13.089l-1.568.845c.964.543 2.004.985 2.845 1.711.399.967.209 2.171 1.068 2.926.917.902-.079 2.225-1.043 2.581-1.95.794-4.068.036-6.018-.381.112.78.234 1.564.36 2.347 2.702.442 5.374 1.1 8.119 1.258.63-.917 1.23-1.851 1.838-2.782.835.194 1.662.413 2.486.654-.022-.863-.014-2.103 1.112-2.222 2.54.122 4.86 2.304 7.453 1.341 2.863-.963 5.36-2.736 7.968-4.22-3.27.582-6.597 1.722-9.935.917-5.993-1.337-10.63-5.903-14.008-10.806-.737-1.222-2.094-1.761-3.234-2.506-1.122-.701-1.255-2.351-2.532-2.854-1.683-.759-3.446-1.323-5.194-1.898zm-3.95 22.831c-1.183 1.772-2.82 3.527-2.824 5.788-.13 1.201-1.198 1.977-1.86 2.905.683.942 1.781 1.898 1.507 3.192-.471 1.136-1.478 1.923-2.273 2.833 1.896.359 4.108 1.01 5.594-.654.011-1.664.022-3.325-.004-4.99-.543-.485-1.126-.935-1.561-1.524 0-1.438 1.385-2.337 2.234-3.343-1.799-1.708 1.05-3.908 2.702-2.671 1.04.723 2.119.151 2.96-.572-2.018-.726-4.371-2.236-6.475-.963zm-21.076 12.772c-.14 1.24-.187 2.491-.115 3.739 1.076.201 2.13.086 2.637-1.007-.716-1.017-1.543-1.956-2.522-2.732zm24.972 1.014c1.209.82 2.565.737 3.514-.413-1.191-.093-2.392-.018-3.514.413zm-20.443 3.44c1.978.521 4.04.543 6.058.816.309-.802.615-1.603.91-2.412-2.284.705-4.802.536-6.968 1.596zm14.299 3.685c1.299.859 2.119 2.207 2.13 3.793 1.554-.895 3.306-1.815 4.151-3.48-.036-1.643-1.604-2.905-2.978-3.591-1.939-.367-2.525 1.992-3.302 3.278zm-18.831-2.383c-3.014.726-6.05 1.485-8.874 2.79 2.486.237 5.583-1.585 7.576.568-.266.478-.529.96-.788 1.445 1.065.622 2.054 1.359 2.91 2.247-1.691 1.934-4.353 2.265-6.486 3.494.683.791 1.374 1.578 2.036 2.394-.406.403-.806.812-1.209 1.219l.917.784c.036 2.258-2.54 1.977-4.083 2.279.784 1.402 1.921 2.556 2.77 3.915-1.097 1.905-3.601.64-5.238.352.356.838.615 1.711.752 2.617 1.525.802 3.112 2.56 2.273 4.379-2.565 1.168-4.684-1.521-7.079-1.992-1.133.205-2.007 1.233-3.223 1.143-4.356.018-8.716-.018-13.072.007-1.716-1.988-3.478-4.019-5.806-5.324-2.018-1.481-4.63-.712-6.939-.888-1.853 2.265-4.22 5.626-7.547 4.889-1.076-1.887 1.644-3.53.781-5.658-1.453.439-3.022 1.086-4.514.424-2.601-1.1-5.241.485-7.889.5-2.45-.234-3.558 2.93-6.047 2.563l-.144-2.071c-1.691.802-2.327 2.613-2.914 4.253-.403 1.603-2.471 1.56-3.223 2.894-1.291 1.761-2.072 4.21-4.281 5.047-1.813.467-2.205 2.887-4.173 3.124.464 3.124-2.504 5.392-5.166 6.226-2.414.435-4.889.075-7.328.226.86 1.851 2.748 3.261 4.874 2.671 4.011-.859 8.435-1.69 11.525-4.573 1.701-1.808-.835-3.415-1.842-4.756 1.392-.604 2.849.058 4.238.342.237-2.854 2.223-5.177 4.626-6.564 3.219-1.88 6.741-3.235 10.252-4.45 1.942.273 3.723-.723 5.594-.658.291 1.287.288 2.793 1.622 3.494-3.486.726-7.086.827-10.533 1.736-3.986 1.485-5.957 6.007-5.853 10.04-1.856.848-3.543-.942-5.115-1.682-.752 2.8.424 5.709-.576 8.459-1.701 5.338-5.853 9.789-10.921 12.118.004.471.007.942.018 1.413 9.849 2.488 19.799 4.616 29.839 6.18 4.568.687 9.533 1.089 13.828-.953 1.407-.6 2.795-2.757 1.475-3.994-1.414-.04-2.82.176-4.234.14l-.014-1.431c1.96-1.495 4.227-2.495 6.36-3.706 2.248-1.247 3.871-3.289 5.82-4.918-.004-.449-.004-.899 0-1.344-3.119-.201-3.05-3.634-3.809-5.867l.554-.482c2.14 1.068 4.306 2.362 5.522 4.504 1.155-1.779 1.356-4.842 3.838-5.27 2.403.144 4.543 1.531 6.939 1.826-1.748-1.621-3.691-3.25-6.137-3.598-1.363-.262-3.443-.899-2.935-2.714.741-1.38 2.259-.205 3.011.539 1.201 1.305 3.036 1.359 4.676 1.546 2.018 1.715 4.079 3.426 5.601 5.622l-.842.697c-2.885-.827-5.939 2.222-4.799 5.054 2.27 2.854 6.68 1.316 9.252 3.749 3.23 2.631 3.32 7.139 5.216 10.572 1.18 2.258 4.64 2.344 6.266.543 1.705-1.621 1.989-4.386 4.076-5.63 1.788-.866 2.96 1.499 2.216 2.93-1.036 2.603-1.345 5.68-3.471 7.7-1.856 1.916-1.827 4.752-1.781 7.24.083 2.739-.259 5.874 1.741 8.074 2.784 3.275 3.331 7.682 4.363 11.698.263-3.947.277-7.905.284-11.856.097-2.466.327-5.292 2.295-7.046-.104-3.282-.68-6.546-.669-9.821.518-1.747 2.205-.863 3.252-.14-.518-2.804 1.248-6.082-.82-8.484-2.723-3.268-6.522-5.353-10.094-7.546-1.676-1.043-2.14-3.099-3.281-4.594-3.392-4.734-8.615-7.812-14.022-9.731-2.201-.881-5.036-2.121-5.068-4.9 3.536.295 7.065-.04 10.587-.324 2.223-.27 4.115 1.082 6.166 1.636 2.378-.061 5.63-1.158 7.284 1.172 1.353 1.672-2.104 3.275-.327 4.677 2.097.812 4.791-.424 6.676 1.186 2.101 2.02 4.173 4.184 5.5 6.809-.608.582-1.766 1.143-1.104 2.132 1.453 2.488.745 5.511 1.856 8.124.576-1.416 1.558-2.621 3.025-3.174.094-1.154-.115-2.513.723-3.444 1.407-1.222 3.626-.338 5.043-1.51.82-1.359-.845-2.757-.403-4.184.471-1.916 1.252-3.739 1.773-5.64.863.945 1.594 2.006 2.23 3.12 1.737-2.319-1.644-5.213.928-7.089 1.09 1.528 2.443 4.066 4.687 2.757.115-.467.241-.927.367-1.388-1.18-1.934-1.112-4.249-1.112-6.428-2.27-1.19-5.266-1.654-6.63-4.051-1.183-2.621-1.942-5.45-2.317-8.3-.338-1.736 1.791-1.963 2.903-2.606-.245-1.445.345-2.797.939-4.077.856-1.722.068-3.631-.439-5.331-3.45-1.276-7.979-1.064-10.691 1.618.327.503.655 1.01.978 1.521-.845.96-1.867 1.743-2.925 2.459 1.701 1.161 1.957 3.246.05 4.346-.011.557-.014 1.118-.018 1.682 1.112.554 2.158 1.229 3.094 2.045-.673 1.122-1.076 2.459-2.061 3.361-1.13.618-2.475.647-3.702.974.399.521.802 1.039 1.198 1.567-1.212 1.445.162 2.75 1.457 3.419l.036.931c-2.982 1.057-5.932 2.283-9.029 2.962-2.381.209-6.263-.608-5.853-3.757 1.054-.083 2.112-.09 3.169-.111-1.648-1.348-4.809-1.941-4.669-4.547 2.795.51 5.234-.536 7.407-2.193-.518-.622-1.036-1.244-1.543-1.873.773-.395 1.55-.794 2.324-1.197-.597-.651-1.612-1.388-.939-2.358 1.155-1.726-.565-3.987 1.032-5.497.77-.805-.23-1.7-.568-2.455.91-1.334 2.112-2.427 3.047-3.735l-1.086-1.161c1.701-1.539 1.331-3.864.637-5.802-1.626-1.416-3.784-2.905-6.054-2.294zm-40.055.244c-.978 1.718-2.946 3.846-1.579 5.863 1.676 2.121 4.439 2.876 6.558 4.458-3.086 1.291-6.205-.05-9.281-.525-2.525.611-5.047 1.758-6.989 3.516 1.799.262 3.237-.938 4.853-1.452 4.363.654 8.698 1.567 13.051 2.315 2.079.298 4.191 1.114 6.284.431 4.824-.899 10.105-3.221 11.889-8.178-1.144-.992-2.457-2.581-4.155-2.006-3.428 1.521-6.043 5.216-10.133 4.957l-.691-.834c1.806-.931 3.576-1.97 5.083-3.35-2.59.464-5.22 1.553-7.86.701-2.889-.604-4.961-3.088-5.604-5.885-.478-.007-.953-.011-1.424-.011zm-38.53 6.845c-.137.503-.23 1.74.622 1.319 1.345-1.434 2.259-3.239 2.853-5.101-1.317 1.082-2.741 2.2-3.475 3.782zm-7.385 13.98c1.763-2.099 2.899-4.623 4.547-6.805-1.36-1.176-.255-2.675.428-3.872-4.223 1.844-4.288 6.801-4.975 10.677zm-15.292 1.255c2.856.126 3.425-3.117 3.295-5.31-1.237 1.675-2.475 3.383-3.295 5.31zm10.418.823c2.184-.776 2.529-3.347 2.277-5.349-1.342 1.477-2.004 3.404-2.277 5.349zm-10.641 8.462c.906.011 1.817.014 2.727.029-1.115-2.768.817-5.202 2.047-7.513-3.288.945-3.514 4.857-4.773 7.484zm6.738-3.872c1.126-.791 2.007-1.923 2.022-3.354-1.148.776-1.676 2.067-2.022 3.354zm5.82 27.055c.942 1.262 2.687.626 4.018.755-1.183-1.413-2.46-2.761-3.425-4.339-.54 1.05-1.522 2.47-.594 3.584zm156.835 12.701c.658 1.265 1.237 2.57 1.881 3.846.558-4.134.622-8.34-.025-12.467-.54 2.919.741 6.406-1.856 8.62zm-16.026 4.799c.529-.446 1.05-.899 1.572-1.355-.032-3.447.205-6.949-.558-10.339-1.14 3.771-1.025 7.794-1.014 11.694zm-22.724-10.141c-.507 1.923-.514 3.922-.809 5.881l-.906.27c-.04 1.524-.392 3.056-1.518 4.163-.59-1.37-1.144-2.75-1.777-4.095-1.831 1.348-1.007 3.814-1.921 5.651-.989-.151-1.968-.32-2.95-.482-2.443 4.379 1.745 10.008-1.978 13.898-.96-1.603-1.234-3.469-1.763-5.23-.392 3.253-1.342 7.675-5.331 8.042-.004.485 0 .974.007 1.467 3.784-.306 7.533-.974 11.328-1.226.273-1.305.263-2.793 1.079-3.897 2.745-1.966 6.601-3.613 7.27-7.298-.73-1.974-1.083-4.112.388-5.874 1.151 1.046 2.443 1.927 3.82 2.653-.338-2.887-.96-6.036.845-8.599-.896-1.204-2.158-2.24-3.705-1.452l-2.079-3.872zm7.022 5.993c.27 5.885.867 11.752 1.241 17.633.198 1.927.561 4.152-.781 5.777-1.687 1.794-1.198 4.458-1.173 6.701.676-2.513 2.633-4.522 3.04-7.1-.353-7.653-.791-15.307-.968-22.967-.457-.018-.91-.032-1.36-.043zm-105.535.449c.878 2.477 4.047 1.136 5.385 2.933.932 3.911 2.273 8.426 6.083 10.454-.252-3.688.651-7.333 2.425-10.558-4.752-.262-9.302-1.715-13.892-2.829zm-21.878 1.114c-.831 4.184 3.68 6.205 6.655 7.919-.863-2.218-1.389-4.537-2.076-6.805-.856-1.718-3.061-.971-4.579-1.114zm101.531 6.147c.115 1.83.68 3.624.579 5.464-.061 1.513-1.36 2.48-2.32 3.483.004.748.011 1.495.025 2.243 1.216-.64 2.892-1.025 3.471-2.401.356-2.994-.237-6.169-1.755-8.789zm32.231 5.439c-.511 2.013-.568 4.12-.022 6.136.345-1.97 2.284-4.734.022-6.136zm-45.019 15.54c-.252-1.88-.342-4.734-2.691-5.169-1.158 2.11 1.601 3.667 2.691 5.169zm-4.579.316c-.101 1.413-.09 2.851.338 4.22.626 2.031-.547 4.17.266 6.183 2.227 6.845 4.439 13.725 7.453 20.275.367-3.239.302-6.503.64-9.746.752-.191 1.504-.381 2.255-.579-.673-2.998-1.173-6.047-2.13-8.973-1.471 1.416.079 3.239.381 4.817.576 1.535-1.54 3.566-2.853 2.146-1.928-2.006-2.806-4.803-3.453-7.449-.601-1.6 1.572-2.779.878-4.335-.903-2.365-2.227-4.565-3.777-6.561zm-5.802 12.844c-.259 1.398-.252 2.833-.061 4.242 1.23-1.186.644-2.897.061-4.242zm4.698.579c-.435 2.47.032 5.184 1.716 7.114-.453-2.394-.867-4.824-1.716-7.114zm40.371 10.396c.058-1.208-.108-2.412-.493-3.555-1.176 1.093-.594 2.664.493 3.555zm-63.178-166.267c1.331.147 1.799 2.477 3.342 1.808 1.637-.654 3.443-.852 4.921.295-2.338 3.44-7.079 2.308-10.151 4.587-1.932 1.557-4.568-.536-6.457 1.082-2.227 1.815-5.274 1.215-7.792 2.268-3.54 1.729-6.831 4.059-10.626 5.213-1.856.626-2.737-2.139-1.442-3.207 1.281-1.104 2.396-2.444 2.356-4.242 2.903-.687 5.896-.162 8.835-.395 1.953-2.128 4.694-3.447 7.579-3.67 1.889-.165 2.755-2.132 4.342-2.872.838-.14 1.536.647 2.381.679.975-.385 1.719-1.201 2.712-1.546zm33.353.83c2.079-.014 4.158-.007 6.238-.011.191.798.374 1.6.554 2.405 1.784.888 3.964 1.291 5.14 3.066 2.061 2.764 3.389 6.478 6.957 7.679-.349 1.341-1.432 2.915-3.029 2.448-2.241-.83-4.216-2.923-6.813-2.114-2.529-3.023-3.979-7.017-7.41-9.21-.939-.564-1.583-1.449-2.119-2.376.158-.629.32-1.258.482-1.887zm-32.033 10.508c2.478-.744 4.979-1.643 7.608-1.513l-.806 2.581c1.971-.05 3.982-.467 5.939-.079 1.799.694 1.259 2.973 1.299 4.479 1.673.971 2.122 2.926 1.54 4.688 1.46.608 3.626 1.039 3.097 3.131-1.331.805-2.917 1.812-4.493.992-3.532-1.672-5.497-5.637-9.331-6.841-2.896-.881-5.691.838-8.41 1.628l-1.068-.572c.734-1.039 1.586-1.984 2.432-2.933-1.95-.647-4.802.744-5.644-1.873 2.284-1.833 5.086-2.797 7.838-3.688zm-38.814 7.081c1.112-3.156 4.238-4.982 7.277-5.917l.953.956c-.414 1.682.047 4.152-2.007 4.864-.978.564-1.619-.6-2.302-1.1-1.327.331-2.615.787-3.921 1.197zm-12.626-2.067c.705-.917 1.971-.532 2.968-.636.784 1.938-1.025 3.516-1.666 5.205-1.176 2.042-.529 4.429-.514 6.643-3.061 2.157-5.766-1.032-8.155-2.617 2.554-2.779 4.727-5.892 7.367-8.595zm22.09 4.677c.673-2.836 3.108-5.838 6.381-4.893-.475 2.639-2.716 4.256-4.59 5.924-.676-.097-1.975.007-1.791-1.032zm13.191 1.09c2.112-.079 2.91-2.247 4.342-3.437.842.672 1.788 1.693 1.144 2.84-2.047 4.346-4.68 8.412-7.385 12.377-.719 1.237-2.41 1.053-3.309 2.078-.968.963-2 1.862-3.133 2.624-2.036-1.377.158-3.717.683-5.363-1.712-.334-4.209.669-5.205-1.226 1.475-1.794 3.317-3.289 4.612-5.23.576-.823-.475-1.395-.953-1.912l-.032-1.675c2.414-1.237 4.331 1.158 6.417 2.002.835-1.1 1.173-2.969 2.82-3.077zm12.094-.115c2.324-1.517 5.507-1.499 8.072-.593 2.748.892 2.799 5.798-.245 6.244-2.59.848-6.173.791-7.497 3.631-1.04 2.067-2.309 4.993-5.155 4.465-.025-1.474-.151-3.016.511-4.386 1.327-3.163 2.615-6.381 4.313-9.361zm23.037 1.006c1.982-1.158 4.759-3.34 6.874-1.294-.317.626-.637 1.247-.968 1.866-1.968-.198-3.943-.352-5.907-.572zm-13.335 9.372c2.54-1.643 5.619-.658 8.407-.475 2.554.633 2.763 3.904 2.554 6.061.025 1.571-1.554 2.987-3.108 2.326-3.568-1.341-6.86-3.311-10.248-5.033-.324-1.621 1.219-2.265 2.396-2.879zm60.937 6.305c.989-1.521 1.928-3.074 2.907-4.598 1.824 1.064 3.349 2.552 4.583 4.26-.96.212-1.921.417-2.881.611.198.536.223 1.211.737 1.564 1.446 1.431 3.763-.435 5.108 1.283.032-1.136.219-2.272 1.054-3.113.759.428 1.507.874 2.248 1.337-.162 2.229.435 4.627-.63 6.701-.942 1.999-2.151 3.857-3.295 5.745 1.022.007 2.043-.04 3.068-.115-.212 1.672-.302 3.354-.367 5.04-.957.137-1.917.241-2.878.324.324 1.923-.108 4.573 2.36 5.137l.705-1.679c2.655-.115 3.899 2.631 5.36 4.382 1.917 2.128 1.025 5.137.633 7.653-1.597.572-3.788.022-4.378-1.726-.719-1.974-1.892-4.059-4.148-4.479 1.183 1.294 2.838 2.441 2.45 4.458-1.964 1.136-3.961-.687-4.234-2.631-.46-4.015-.709-8.142-2.169-11.949-.68-1.754-2.809-3.537-1.36-5.464-.155-1.071-.41-2.549.914-2.973 1.309-.525 2.914-1.513 2.378-3.189-.741-1.524-2.802-.974-4.166-1.086-1.234-1.902-2.478-3.807-4-5.493zm29.525-1.398c1.277.022 2.806-.288 3.601 1.003-.953 1.639-2.741 2.045-4.507 1.754.194-.953.514-1.869.906-2.757zm-126.61 4.802c-.504-2.168.842-3.915 2.684-4.853.486 2.143-.266 4.483-2.684 4.853zm-30.318 8.258c-3.187-1.158-2.36-4.767-1.691-7.305 1.04 2.297 1.392 4.821 1.691 7.305zm150.932-3.146c1.835-1.715 4.212-.169 6.302.072-.475 1.862-1.849 3.692-3.925 3.767-1.759-.298-2.507-2.236-2.378-3.839zm-4.712 6.87c3.094.6 5.169 4.13 4.029 7.107l-1.892.061c-1.389-2.053-4.036-4.627-2.137-7.168zm11.597 9.494c1.399 1.521 2.716 3.117 3.982 4.749.371.633.374 1.988-.626 1.984-1.766-.036-2.856-1.686-3.932-2.865.187-1.291.367-2.581.576-3.868zm25.018 2.423l1.421.004c2.586 3.286 6.59 4.774 10.069 6.859-3.241 3.102-7.64.058-10.022-2.599-1.392-1.014-1.673-2.646-1.468-4.263zm-71.447 4.382c1.475.475.259 2.488-.245 3.429l-2.281-.568c.759-1.017 1.514-2.071 2.525-2.861zm43.979 2.135c2.709.856 3.162 4.001 3.403 6.428-2.317-1.326-4.191-3.591-3.403-6.428zm-92.858 3.444c1.439-2.836 5.101-2.11 7.72-2.024 5.187.626 11.123.298 15.234 4.091-1.302.55-2.745.643-4.09.187-3.579-1.129-7.443.23-11.004-.874-2.162-1.269-4.622-1.323-6.925-.388l-.935-.992zm123.402-1.01c3.299-.288 5.63 2.477 7.982 4.346-2.996 1.007-8.029-.661-7.982-4.346zm-148.003 1.603l1.029.435c.378 2.329-1.594 3.926-2.971 5.486-1.194 1.521-3.54 1.287-4.648 2.901-.91 1.104-1.565 2.836-3.194 2.973-1.13.151-1.676-.967-2.227-1.729.719-1.132 1.496-2.229 2.331-3.278.727-.852.32-2.265 1.363-2.915 2.435-1.905 5.475-2.768 8.317-3.872zm9.021.004l1.299.014c.014 1.229.845 2.351 2.209 1.963 2.317-.065 5.792-2.214 7.133.679-2.41 3.056-7.27-.439-9.658 2.955 2.212 1.708 4.813-1.093 7.166.28l.004 1.51c-.964 1.219-2.291 2.24-3.943 1.751-.345 1.082-.673 2.175-.809 3.304l1 .827c-1.809 1.176-3.849-.252-5.752-.403-1.201-2.02 1.356-3.437 2.698-4.472-1.597-.69-3.335-.568-4.82.338-.601-.449-1.277-1.118-.845-1.93 1.205-2.409 3.025-4.454 4.32-6.816zm-97.653 5.845c1.112-1.147 2.327-2.552 4.104-2.315-.683 1.657-2.349 2.466-4.104 2.315zm157.673 3.192c1.791.561 3.676 1.427 4.73 3.056-.252.568-.424 1.56-1.155 1.625-1.863-.881-2.766-2.908-3.576-4.68zm-149.953 7.068c5.036-2.452 10.4-4.461 16.011-4.982-.464.554-.903 1.219-1.673 1.352-6.788 1.898-12.928 5.428-19.295 8.34.576-2.423 2.925-3.66 4.957-4.709zm67.609-4.824c1.942.759 1.532 2.973.155 4.095-.522-.05-1.047-.083-1.561-.183-1.112-1.424.464-2.919 1.407-3.911zm15.4 4.716c.813-1.664 2.63-3.494 4.554-2.214.349 2.444-2.849 4.206-4.554 2.214zm-19.501 3.005c-.957-1.438-.147-3.584 1.482-4.066 1.982 1.413.176 3.469-1.482 4.066zm13.278-1.966c1.209-.37 2.518-.122 3.766-.155.335 1.114.475 2.534-.608 3.3-1.255 1.136-2.993.5-4.302-.173-.058-1.107-.022-2.437 1.144-2.973zm39.724.658c.73-.248 1.604-.708 2.252-.018 2.273 1.887 4.22 4.134 6.234 6.284-.342.683-1.068 1.664-1.849.856-2.536-2.035-4.59-4.609-6.637-7.121zm6.77-.475c3.137-.503 4.367 2.93 5.497 5.177-2.396.266-4.407-1.416-5.655-3.286-.468-.59.029-1.276.158-1.891zm-35.048 5.935c-.612-2.682 2.065-4.163 4.385-3.487.18.87.745 1.959-.007 2.725-1.04 1.334-2.943.586-4.378.762zm-19.727-.068c.705-1.664 2.673-4.21 4.579-2.527 1.158 2.513-2.86 3.695-4.579 2.527zm13.033.133c1.219-.902 2.777-.295 4.104-.011-.655 2.628-3.184 3.652-5.684 3.084.324-1.096.536-2.409 1.579-3.074zm-8.224 3.038l3.043.022.978 1.035c-1.047 1.003-2.313 2.711-3.961 1.948-1.392-.449-.928-2.25-.061-3.005zm-7.971 1.283c1.353-1.445 3.982-.902 4.425 1.06-.95 2.178-4.612 1.391-4.425-1.06zm-63.246 9.8c-.122-2.872 2.978-5.389 5.644-5.579-1.752 1.894-2.709 5.497-5.644 5.579zm77.923-4.731c.633-.453 1.266-.906 1.907-1.352 1.353.226 1.309 1.416 1.241 2.527-1.043.187-2.094.32-3.144.413-.007-.532-.007-1.06-.004-1.589zm34.63 3.562c1.165.769 2.561 1.222 3.579 2.207.755 1.15-.284 2.401-.453 3.573.227 1.585 1.752 2.693 1.903 4.289-.378 1.977-1.295 3.803-1.871 5.727-.248 1.204-1.612 1.47-2.496 2.067l2.076.223c.079 1.229-.428 2.308-1.291 3.16-1.05.981-.41 2.542-.914 3.731-.978 1.269-2.342 2.16-3.496 3.253.687.64 1.414 1.237 2.158 1.815-1.047 2.146-2.788 3.882-3.687 6.108-.665 1.503.317 3.005.482 4.501.112 1.503-.63 2.879-1.32 4.159-.935-.615-1.788-1.344-2.514-2.193-.46 1.866-1.025 3.71-1.791 5.475 1.061-.482 2.223-.784 3.338-.273-.119 4.077-4.025 7.643-8.13 7.431-3.349.626-5.435-2.757-8.558-3.142-1.558-.043-1.32-2.398-2.903-2.265-1.701-.611-2.799 1.474-4.446 1.043-2.561-.518-5.223-1.265-7.169-3.11-1.928 1.025-1.277 3.332-1.637 5.09-.406 1.323-2.025.744-2.971.471-.011-1.564-.234-3.336 1.09-4.468-1.907-.532-4.011-1.352-4.489-3.516-1.683-.431-3.403-.683-5.14-.726-.579-.845-1.209-1.657-1.892-2.419-.525.442-1.04.899-1.547 1.362-1.694.399-2.374-1.377-1.216-2.506 1.277-1.219-.133-2.682-.809-3.785-.263 1.779-.975 3.649-2.964 4.033-1.14-2.682 1.482-4.914 1.579-7.499-.917-2.782-3.374-4.734-4.464-7.452-1.018-2.29-1.719-5.5.266-7.474 1.68-1.359 3.493.399 4.648 1.582l-.04 1.47-2.09.122-.989-.111c-.406 3.778 2.133 6.996 5.004 9.113 6.41 4.645 14.087 7.441 21.932 8.322-.658.708-1.363 1.366-2.086 2.01 4.295 2.495 9.658.924 13.464-1.761 5.065-3.663 8.162-9.336 10.576-14.962 1.565-3.433 1.824-7.28 3.313-10.738 2.086-4.943 4.813-9.598 7.968-13.937zm-13.36 48.602c-.194.543-.385 1.082-.565 1.632 1.586.327 2.799-.733 3.73-1.869-1.058.093-2.112.176-3.166.237zm91.97-45.51c.856.467 2.158.802 2.259 1.959.108 2.603-.025 5.209.047 7.812 1.198-.101 2.403-.111 3.601.018.18 3.228-.129 6.46-.047 9.692l2.18-.28 1.018 1.053c-1.367 1.952-3.457 3.379-4.331 5.662-1.59 4.166-3.813 8.678-1.993 13.154-2.608.989-4.126-1.639-5.407-3.397-1.45.938-2.86 1.945-4.374 2.782 1.453-3.879-.176-7.754-.885-11.583-.565-.097-1.133-.187-1.691-.273-.439-2.204.687-4.458-.259-6.593-.838 1.14-1.806 2.196-3.076 2.854-.022-1.395-.176-2.815.061-4.195 1.281-1.751 3.309-2.768 4.878-4.238 2.439 1.625.417 4.619.91 6.945.871.345 1.734.712 2.586 1.111.356 1.531.687 3.07 1.112 4.591.705-.69 1.407-1.388 2.104-2.085-1.043-.913-2.486-1.772-2.687-3.261.252-1.366 1.493-2.232 2.381-3.203.004-1.859 0-3.713-.004-5.565-1.295 0-2.586-.007-3.878-.043-.489-2.556 2.317-3.721 3.439-5.594 1.194-2.268 1.302-4.903 2.054-7.323zm-187.149 14.451c.662-1.801 1.489-3.645 3.115-4.781.288 1.981-.827 3.66-1.791 5.27l-1.324-.489zm175.044 8.973c1.511 1.255 1.871 3.25 2.288 5.062l1.453-.183c1.058 4.217-.871 8.455-1.673 12.575-2.777-2.93-4.428-7.222-3.471-11.241.371-2.092.784-4.181 1.403-6.212zm-90.588 9.824c1.532-1.431 2.662-3.243 4.216-4.659.306 1.848 1.144 4.084-.32 5.665-2.414 2.57-6.371 3.692-9.763 2.664 0-.953.011-1.898.047-2.844 1.917-.395 4.058.147 5.82-.827zm83.383-.025c.306-1.902 1.799-3.325 3.385-4.271.655 2.495 1.482 4.957 1.806 7.528-.396.374-.788.748-1.18 1.125.036 2.171.133 4.353-.194 6.51l-1.763.514c-.536 2.728-1.061 5.497-2.245 8.034-1.119-1.154-2.115-2.628-1.781-4.325.608-3.933 1.838-7.75 2.608-11.654.302-1.211-.514-2.29-.637-3.462zm-116.028 11.198c.802-2.915 3.802-1.729 5.964-1.7-.022.636-.04 1.276-.05 1.916-.986.996-1.968 1.988-2.971 2.962-1.094-.953-2.022-2.067-2.943-3.178zm5.719 3.077c-.022-2.135 3.349-4.145 4.266-1.366-.737 1.582-2.827 3.102-4.266 1.366zm5.011.396c.745.331 2.065.363 1.925 1.495-.223 2.362-1.27 4.627-2.608 6.564-.842 1.406-2.935-.061-2.489-1.438.63-2.376 1.914-4.526 3.173-6.622zm-14.255 2.75c.504-1.114 1.788-1.567 2.885-1.032.809 1.531.011 3.275-.723 4.673 2.561-.083 1.705 2.419 1.349 3.997-.773-.047-1.543-.086-2.317-.119.104-.719.216-1.434.338-2.143-.806.665-2.036 1.992-2.943.715-1.327-1.974.367-4.361 1.41-6.093zm8.842-1.287c.748.316 1.766.352 2.184 1.161.198 1.664-.889 3.095-1.633 4.486-.806-.475-1.928-.78-2.241-1.765-.09-1.485.982-2.678 1.691-3.882zm16.831.568c1.817.266 3.658.237 5.475-.036 1.342 3.3-1.453 6.352-.586 9.656.27 1.388-1.054 2.222-1.982 2.966-1.414-2.193-3.932-4.447-3.137-7.301.342-1.743.248-3.523.23-5.284zm8.327 5.252c-1.255-1.79-.464-4.691 2.036-4.616l.928 1.003c0 1.247.004 2.498.025 3.749-.953.266-2.241.838-2.989-.137zm-15.392-3.76c.737.014 1.475.036 2.216.068.072 3.473-1.273 6.776-1.892 10.159-.219 2.678-5.205 1.549-4.169-.938 1.101-3.167 2.64-6.162 3.845-9.289zm3.935 5.173c.464.018.896.226 1.338.363.626 1.639.579 3.383.068 5.047-1.108-.011-2.209-.025-3.313-.065-.507-1.992.543-3.958 1.907-5.346zm-20.536 8.261c-.824-1.564.032-3.131.939-4.425l2.594.514c-.601 1.808-.784 5.011-3.532 3.911zm4.288-2.51c1.356-1.201 3.338-.726 4.781.054.122 2.096-.388 5.306-2.978 5.525-2.791.014-3.227-3.836-1.802-5.579zm35.425.896c.637-.011 1.273-.018 1.914-.025.054 2.211.061 4.418.047 6.629-1.464.28-2.608 1.183-3.428 2.401-.835 1.233-2.443.654-3.615.385-.011-1.844-.007-3.688.004-5.532.741-.413 1.489-.823 2.237-1.222l1.752 1.621c.255-1.445.583-2.879 1.09-4.256zm-30.637 6.186c-.097-1.963 1.219-3.638 2.389-5.087l1.097.532c-.119 2.081.478 4.368-.734 6.23-1.176.04-2.482-.381-2.752-1.675zm21.568-1.578c.637-1.154 2.281-.794 3.047.025-.04 1.765-.687 3.48-.773 5.256-.942.255-2.36.579-2.831-.575-.417-1.546-.23-3.304.558-4.706zm-8.913 5.436c-.187-1.873 1.183-4.138 3.072-4.619 1.482.708 1.917 2.542 2.759 3.843-1.453 1.517-4.396 3.243-5.831.776zm8.687 19.43c.554-.453 1.676-.385 1.543.546.083 9.875-.482 19.768.194 29.639-2.608-.234-5.23-.23-7.838-.004.457-8.056.518-16.137.299-24.204-1.781.766-3.507 1.65-5.194 2.606-.64-.974-1.273-1.948-1.899-2.926 4.446-1.524 8.738-3.465 12.896-5.658zm15.748 1.797c3.637-1.621 8.083-1.589 11.637.248 3.576 1.938 5.05 6.176 5.198 10.026.324 5.554-1.112 11.658-5.464 15.436-4.025 3.527-10 4.177-14.939 2.383.263-1.477.475-2.966.633-4.454 1.701 2.092 4.619 3.458 7.223 2.175 3.903-1.905 4.766-6.73 4.907-10.655-3.784 3.153-10.712 2.923-13.245-1.686-2.248-4.565-.86-11.245 4.05-13.473zm4.622 1.355c-1.723.773-2.054 2.887-2.227 4.562-.115 2.254-.273 4.695.788 6.765 1.058 2.02 4.464 1.797 5.205-.385.964-2.635.784-5.586.223-8.29-.313-1.787-2.115-3.455-3.989-2.653zm50.772-2.455c2.295.241 4.604.237 6.899.004-.417 5.813-.414 11.644-.374 17.467 1.227-.086 2.457-.201 3.68-.359-.212 1.837-.209 3.692-.011 5.532-1.237-.133-2.471-.234-3.709-.306-.068 2.387.032 4.778.356 7.147-2.36-.216-4.73-.23-7.083-.004.205-2.362.367-4.731.353-7.103-3.842-.155-7.68.05-11.515.298.162-1.909-.284-3.911.227-5.759 3.799-5.586 7.601-11.18 11.177-16.917zm-8.126 17.424h8.191c-.011-4.073 0-8.149-.004-12.222-2.745 4.066-5.471 8.139-8.187 12.222zm-20.303-17.032c3.676-.744 8.079-.658 11.011 1.999 2.727 2.7 3.104 6.794 3.309 10.425.119 4.54.094 9.472-2.428 13.437-3.094 4.562-9.846 4.81-14.439 2.621-4.917-2.987-4.896-9.555-4.932-14.635-.036-5.338 1.442-12.391 7.479-13.847zm2.14 2.43c-1.651.963-1.827 3.113-2.083 4.817-.363 4.35-.288 8.728-.147 13.085.165 2.049.198 4.31 1.453 6.039 1.291 1.582 4.115.971 4.694-.981 1.36-3.926.899-8.182 1.014-12.266-.119-3.117.112-6.395-1.122-9.329-.572-1.467-2.439-2.067-3.809-1.366z" id="Shape" fill="#000" sketch:type="MSShapeGroup"/><path d="M120.339 92.618c90.75-.004 181.501-.007 272.251 0-.004 61.95 0 123.9 0 185.849-.029 7.298.173 14.617-.568 21.889-1.148 12.316-4.331 24.564-10.342 35.431-5.425 9.933-13.159 18.492-22.062 25.437-17.036 13.269-37.325 21.263-57.037 29.621-16.058 6.841-32.494 13.671-46.131 24.812-9.004-7.456-19.439-12.92-30.004-17.798-19.716-9.041-40.361-16.188-59.138-27.177-11.277-6.607-21.828-14.807-29.781-25.268-9.813-12.704-15.033-28.471-16.547-44.335-.845-7.75-.615-15.551-.647-23.33.004-61.709-.007-123.422.007-185.13zm115.053 28.867c3.317.92 6.81.068 10.133.945 3.989.963 7.856 2.405 11.874 3.25 1.453 1.301 2.91 2.603 4.446 3.807-2.201.14-5.518-.561-6.417 2.135 2.648 2.214 5.669 3.897 8.579 5.727-1.022.536-1.939 1.24-2.673 2.128 1.928 1.456 4.14 2.455 6.191 3.724-.586.679-1.108 1.409-1.543 2.189 2.579 2.229 6.184 1.172 9.101 2.516.939.471 1.975.359 2.939.04-.493-.949-1.101-1.83-1.806-2.631.083-1.208.32-2.649-.734-3.534-1.428-1.172-1.029-3.228-2.083-4.663-.13-2.966-1.817-5.73-4.363-7.247-1.55-.654-3.313-.629-4.813-1.449.601-1.132.856-2.394 1.342-3.57.953-.715 2.237-.439 3.349-.489 3.453.137 6.971.176 10.284-.953-.626-.913-1.32-1.779-2.05-2.61-10.133.446-20.123-1.618-30.191-2.355-3.975-.065-8.615-.086-11.565 3.038zm-6.626.413c-10.281 2.642-20.047 7.301-28.601 13.574l.759 1.449c5.345.582 8.533-5.115 13.669-5.461 1.604.029 2.385-1.765 3.964-1.801 3.464-.59 7.216-.151 10.407-1.869 1.989-1.258 2.514-3.749 3.385-5.777-1.169-.37-2.403-.525-3.583-.115zm52.012.194c.288 1.193.59 2.387.842 3.595 2.853 1.269 5.892 2.081 8.694 3.476l-1.101.899c1.162 3.872 5.309 6.69 4.385 11.104 2.104-.036 4.619-.198 6.072 1.646-1.662 1.143-3.237 2.567-5.22 3.11-1.752-.859-3.568-1.575-5.385-2.29-2.273-1.427-4.5-3.034-7.166-3.649.072 1.37.234 2.736.388 4.098-1.511.467-3.032.924-4.457 1.621 1.601 1.172 3.543 1.779 5.104 2.998.935 1.578 1.666 3.304 2.237 5.051-1.871-.6-3.943-1.19-5.025-2.984-1.648-2.671-5.097-.647-7.061.59-.241 2.261-1.522 4.159-2.597 6.093-1.068 1.841-1.137 4.015-1.424 6.068-1.353-1.557-2.493-3.67-4.622-4.217-1.863-.029-3.892.475-5.194 1.887.669 1.136 1.691 2.078 2.144 3.329-.108 2.757-2.45 4.842-4.705 6.111-3.536 2.049-7.004-1.334-10.338-2.337-.752-1.197-1.737-2.254-2.95-2.991-2.374-2.736-5.54.043-8.169.759-1.493.791-2.809-1.176-4.32-.28-5.036 2.369-5.151 9.882-10.828 11.5-.212 1.352.234 3.332-1.514 3.775-3.396 1.682-6.594-.884-9.799-1.697-2.284-.119-4.612.719-6.439 2.085 4.392 2.218 9.594 2.125 13.853 4.67l-.975 1.398c-2.889-.126-5.885.424-8.669-.575-2.148-.906-4.493-.492-6.63.212-.41 1.625-1.594 2.926-3.266 3.264-.212-.852-.396-1.708-.59-2.56-1.644 2.063-3.64 3.994-4.576 6.499-.385 1.596 1.374 1.449 2.428 1.625-1.032 1.596-2.741 2.491-4.202 3.624-.457-1.082-1.011-2.121-1.73-3.048-1.389.593-2.964.715-4.291 1.424-2.263 2.711-4.306 5.63-6.058 8.7.504.859 1.446.945 2.349.924 1.371-1.571 1.781-4.652 4.255-4.742-.615 1.646-2.086 2.739-2.899 4.278-1.007 2.132-3.155 3.602-5.583 3.131-.097-1.492.079-2.994.824-4.314 1.263-2.211-.014-5.022 1.59-7.114.288.963.54 1.938.813 2.908 2.619-1.197 3.849-3.811 5.238-6.136.921-1.722 3.184-.532 4.511-1.575.809-.812.183-1.952-.277-2.761 1.068-.18 2.317-.047 3.202-.791 1.205-1.046.914-2.98 2.086-4.026 2.083-1.01 4.781-.453 6.586-2.085.889-.82.522-2.074.273-3.084-1.644.054-3.288.137-4.935.133.784-2.991 3.166-5.234 5.018-7.617.565 1.154.77 3.12 2.41 3.142 2.281-.471 3.863-2.542 6.115-3.113 1.428.234 2.863 1.801 4.281.694 1.518-1.237 3.381-1.747 5.194-2.344 1.5-1.287 2.763-2.977 3.428-4.846-.097-2.035-1.13-3.897-1.719-5.824-1.417.532-2.471 1.639-2.755 3.145-.327 1.815-3.079 2.574-2.471 4.605.752.262 1.561.302 2.345.428l-1.094 1.355c-3.759.122-7.91-.766-11.047 1.88.486-.881.996-1.747 1.493-2.621-.662-.212-1.32-.417-1.982-.618 1.054-1.431 2.162-2.858 2.842-4.515.514-1.172-.198-2.484.291-3.66.547-1.542 1.525-3.128.906-4.806-1.914 1.801-3.594 3.846-5.173 5.946-2.263 2.818-2.266 6.945-5.212 9.293-.345-2.804 1.13-5.252 3.032-7.157 2.176-2.387 2.025-6.014 4.212-8.383 1.115-1.244 2.921-1.301 4.248-2.196 1.004-1.208 1.763-2.739 1.892-4.317-.022-1.168-1.345-1.219-2.212-1.269-.644.766-1.331 1.499-2.122 2.117.543-2.01 2.18-3.933 1.313-6.1-2.018.55-4.094 1.319-5.554 2.883-1.094 1.186-.889 2.987-1.781 4.281-.817 1.025-2.068 1.6-2.86 2.642-.691 1.05 1.335 1.6.924 2.642-.737 1.805-2.101 3.275-3.489 4.605.083-1.186.212-2.373.378-3.552l-.838-.309c-.741.406-1.554.611-2.389.694.752-1.33 1.741-2.513 2.475-3.854.813-1.42-.306-3.437 1.255-4.494 1.219-.917 1.712-2.315 1.586-3.811-.701-.122-1.558-.737-2.09.036-3.094 3.113-5.234 7.053-7.033 11.018-.921 1.715.475 3.408.896 5.051-.971.266-2.166.546-2.989-.226-.795-.981-.813-2.437-1.773-3.3-1.367-.895-3.047-.237-4.475.14-1.478.51-3.18.683-4.367 1.79l.144-.435-1.302.618.514-1.743c-.493 0-.982.004-1.471.011-.442 2.204-2.212 3.591-3.597 5.195-2.68 4.619-3.72 10.188-2.791 15.458.784 4.612.406 10.425-3.63 13.484-3.669-2.387-7.015-6.327-11.705-6.291 2.996 2.38 6.525 4.019 9.399 6.561.705.665 1.471 1.409 1.633 2.412-.371 1.348-1.612 2.462-2.971 2.757-2.881-1.434-4.971-4.048-7.543-5.946l-.471.931c.353.737.665 1.495.924 2.276-5.385 1.104-10.817-1.179-16.234-.604-3.097.543-6.191 1.129-9.227 1.956 9.015-.719 18.432-.974 26.957 2.516-1.734.14-3.838-.201-4.896 1.549 2.464.173 4.95-.137 7.403.155 2.176.669 1.935 3.465.993 5.065-3.435-1.395-6.896-2.721-10.36-4.044.356-.507.709-1.021 1.04-1.546-2.791-1.007-5.561.942-8.396.288-3.777-.349-8.331-1.772-11.454 1.179 2.73-.032 5.464-.273 8.191-.025-.777.403-1.568.776-2.345 1.183 3.446.262 6.917-1.176 10.31-.133 3.881 1.035 7.669 2.434 11.299 4.152.82.467 2.014.816 2.058 1.941.831 4.63 1.59 9.275 2.259 13.934.252 1.38-.209 2.772-1.011 3.893-2.252 3.232-5.662 5.374-8.23 8.318-2.086 2.606-3.137 5.852-4.162 8.983 3.734-4.806 6.777-10.299 11.608-14.142 1.155-.87 3.072-1.898 4.299-.626.953 1.215-.698 2.301-1.371 3.21-1.716 2.308-4.993 3.954-5.018 7.125l1.547-.004c2.137-2.117 4.27-4.246 6.547-6.219l.95 1.406c-2.13 3.221-4.173 6.561-5.475 10.213-.486 1.179-.381 2.459.004 3.652.651-.011 1.302-.018 1.957-.025 1.511-3.426 2.043-7.265 4.115-10.439.986-1.56 2.561-2.57 3.907-3.785l-.147.421 1.396 1.837.173-.054c1.13 1.251 2.443 2.308 3.773 3.332.32 6.352 7.155 11.13 13.205 10.051-.651-2.534-1.712-4.932-2.525-7.413-.277-1.003-.532-2.319.198-3.174 1.112-.37 2.367-.011 3.453-.46.651-.622 1.122-1.402 1.683-2.103-.234 1.035-.532 2.056-.853 3.074 1.392 1.186 3.41 2.049 3.842 4.005 1 4.31 2.133 8.757 1.176 13.189.018 1.506-1.313 2.351-2.367 3.163-.058-.377-.169-.737-.335-1.078-.583-.05-1.162-.097-1.741-.183l2.09-.122.04-1.47c-1.155-1.183-2.968-2.941-4.648-1.582-1.986 1.974-1.284 5.184-.266 7.474 1.09 2.718 3.547 4.67 4.464 7.452-.097 2.585-2.719 4.817-1.579 7.499 1.989-.385 2.702-2.254 2.964-4.033.676 1.104 2.086 2.567.809 3.785-1.158 1.129-.478 2.905 1.216 2.506.507-.464 1.022-.92 1.547-1.362.683.762 1.313 1.575 1.892 2.419 1.737.043 3.457.295 5.14.726.478 2.164 2.583 2.984 4.489 3.516-1.324 1.132-1.101 2.905-1.09 4.468.946.273 2.565.852 2.971-.471.36-1.758-.291-4.066 1.637-5.09 1.946 1.844 4.608 2.592 7.169 3.11 1.648.431 2.745-1.654 4.446-1.043 1.583-.133 1.345 2.222 2.903 2.265 3.122.385 5.209 3.767 8.558 3.142 4.104.212 8.011-3.354 8.13-7.431-1.115-.51-2.277-.209-3.338.273.766-1.765 1.331-3.609 1.791-5.475.727.848 1.579 1.578 2.514 2.193.691-1.28 1.432-2.657 1.32-4.159-.165-1.495-1.148-2.998-.482-4.501.899-2.225 2.64-3.962 3.687-6.108-.745-.579-1.471-1.176-2.158-1.815 1.155-1.093 2.518-1.984 3.496-3.253.504-1.19-.137-2.75.914-3.731.863-.852 1.371-1.93 1.291-3.16l-2.076-.223c.885-.597 2.248-.863 2.496-2.067.576-1.923 1.493-3.749 1.871-5.727-.151-1.596-1.676-2.703-1.903-4.289.169-1.172 1.209-2.423.453-3.573-1.018-.985-2.414-1.438-3.579-2.207.658-1.1 1.025-2.34 1.45-3.541l-.396.201.601-.313c.205-1.316.442-2.624.795-3.908.59.029 1.18.065 1.773.104-.313 2.236.291 4.371 1.094 6.431.205 3.57-.27 7.165.137 10.738l1.784.036c.514-.51 1.029-1.025 1.554-1.528.723 2.089 1.367 4.4.608 6.575-.496 1.632-1.957 2.678-2.712 4.163-.385 1.075 1.496 1.61.96 2.707-.705 2.182-2.176 4.073-2.626 6.341.701 1.14 1.96 1.74 3.029 2.48 1.04 2.962.371 7.582-3.14 8.362-.158-1.485-.737-3.663-2.619-3.555-2.871 2.854-4.511 6.701-6.407 10.227-.698 1.564-1.874 3.239-1.148 5.011.525.004 1.054.011 1.583.022.91-2.214 1.489-4.698 3.202-6.464.637-.762 1.644-.485 2.482-.334.669 3.163-1.64 7.607 1.626 9.724.525-.963 1.022-1.941 1.565-2.89 2 3.555 1.648 7.779 1.579 11.705.691-.004 1.385 0 2.083.004-.245-3.426 1.234-6.6 2.378-9.735.831 1.197 1.874 2.391 2.043 3.893-.41 1.747-2.299 3.296-1.209 5.205.522 2.078 3.04.841 4.104-.108 1.144 2.718 1.493 5.906 3.734 8.031.18-1.111.23-2.236.414-3.34.662-.536 1.658-.284 2.457-.428.27-3.124-.14-6.251-.014-9.375-.061-.633.561-.953.921-1.352.363.636.773 1.291.777 2.056.255 3.8.234 7.621.568 11.421-.942.719-1.986 1.524-2.219 2.764-.371 1.546.863 3.749 2.684 3.135.676-.798.356-2.049.558-3.03 1.331.838 3.881 2.66 4.806.435.428-3.207-1.414-6.269-.986-9.508 1.126 2.398 1.755 5.004 1.978 7.643 3.335.313 3.493 5.209 1.237 6.924-1.169.809-1.284 2.272-1.374 3.566 2.349-.183 4.648-.78 6.835-1.646.277-.784.572-1.56.896-2.326.766.09 1.54.18 2.313.266 1.115-.931 2.396-1.618 3.612-2.398 1.076-3.023.18-6.244-.079-9.332-.698-5.601.191-11.507-2.104-16.827-.683.014-1.36.029-2.036.047-1.162 2.833-2.072 5.838-2.263 8.901.363 2.994 1.849 6.604-.46 9.188-.317-3.243-.094-6.503-.014-9.753-1.234-.262-2.702-.802-2.878-2.25-.421-1.398-.162-3.854-2.047-4.091-1.263 1.754-2.032 3.803-3.043 5.705l-.647-.683c.144-2.57 1.403-5.993-.993-7.883-.626.467-1.176 1.021-1.748 1.546-.486-2.391-1.791-4.544-2.043-6.981 1.248.331 2.799 1.319 3.975.295 1.795-1.708 2.144-4.296 3.108-6.474 1.453 2.829.741 8.405 5.234 8.221-.18 1.905-.277 3.829-.054 5.741.64-.004 1.284-.004 1.928-.004.331-1.028.644-2.06.939-3.099 1.518-.755 2.939-1.776 4.651-2.067.198 2.153-.331 4.299-.104 6.442.198 1.542 1.608 2.444 2.317 3.724.187 2.743-.716 5.439-.637 8.185.191 1.596 1.281 3.02 1.061 4.677-.255 2.693-.583 5.381-.637 8.088l1.335.399c.435-.284.874-.568 1.313-.845.162-2.556.338-5.184 1.421-7.542 1.899-3.311-2.443-6.798-.36-10.094 1.083.194 1.637 1.625 2.407 2.401 1.414 1.467-1.349 2.865-.511 4.458 1.162 2.79-.058 5.824-.924 8.531-.029 1.309 1.338 2.024 2.201 2.79.493-2.153.342-4.853 2.903-5.615 2.932-6.194 6.957-11.956 9.705-18.305.86-2.103 1.996-4.224 2.025-6.539-.151-1.068-1.662-.751-2.097-.025-3.91 4.102-5.82 9.566-8.27 14.566-1.122-1.981-2.407-3.904-3.094-6.097-1.32-4.019-.986-8.3-1.327-12.46-.259-2.563.122-5.13.615-7.639.068 1.571.122 3.145.054 4.72.647-.022 1.295-.036 1.95-.043 1.856-2.049.237-6.108 3.407-6.992.518-1.431.946-2.887 1.371-4.343 1.011-.439 2.313-.755 2.583-1.999.604-2.11 2.425-3.89 1.917-6.219 3.612-1.535 6.216-5.852 5.482-9.792.381 1.046.73 2.103 1.108 3.153 1.921-.331 2.684-2.29 2.996-3.987-.076-.971-.946-1.812-.651-2.822.662-2.772 1.727-5.432 2.73-8.096.817 1.65 1.867 3.199 3.363 4.31-.209-2.333.072-4.763 1.939-6.395.975 2.739.532 5.82.23 8.664-.205 2.232-1.878 4.921-.004 6.827 1.101-.82 2.097-1.769 3-2.8 1.514 2.333-.115 6.273 3.18 7.431.04 2.93-.068 5.863.032 8.793-.054.647.597.945.986 1.344.486 2.682.403 6.068 3.18 7.542-.601-3.469-1.471-7.024-.712-10.544.993-5.741-.126-11.608.763-17.363.223-9.12-2.273-18.075-5.302-26.605-.187-1.021-1.13-1.438-1.993-1.783-.151 1.539-1.043 3.358.162 4.684 1.101 1.14-.345 2.391-.536 3.588.076 2.214.565 4.465.09 6.668-.209.963-1.396.762-2.119.935.043-1.873-.565-4.03.755-5.604.993-1.165-.734-2.117-1.5-2.804-1.619 2.491-1.612 5.507-1.993 8.34-.878.007-1.752.014-2.622.032-1.076-1.201-1.54-2.761-1.442-4.357-.004-4.907-.683-9.835-.176-14.724.126-2.671 4.22-2.678 4.14-5.385-.608-2.383-1.939-4.508-2.961-6.726-2.252 1.74-.748 4.921-1.752 7.244-1.227-2.2-1.579-4.731-2.41-7.082-1.586.374-3.219.302-4.464-.863-1.327 1.693-2.705 3.534-2.914 5.745-.255 2.139 1.223 3.951 1.493 6.007-.086 1.488-1.23 2.757-1.101 4.285.266 2.897.867 5.755 1.108 8.656.162.784-.435 1.352-.867 1.916-2.058-2.516-.558-5.914-.68-8.822-1.345-.022-3.655-1.326-4.227.449.475 3.656 1.648 7.779-.604 11.108-3.777-.007-3.612 4.551-4.403 7.186-1.022.018-2.04.029-3.058.043l-.615-.622c-.061-.575-.119-1.15-.173-1.722 1.73-.658 2.878-2.599 2.36-4.422-.396-1.276-.748-2.581-.615-3.933.338.439.665.884.989 1.334 1.18.025 2.389-.723 2.493-1.977.007-2.002-1.173-3.832-1.094-5.838.486-2.355 1.745-4.537 1.809-6.981.086-2.311-.198-4.839 1.291-6.798 1.266.629 2.684.942 4.047.388-.741-1.269-1.407-2.879-2.982-3.271-1.637-.431-3.158-1.891-4.925-1.366-.928 1.37-1.989 2.667-2.802 4.109-.072 2.002 1.097 3.846 1.079 5.86-.054 2.164-.259 4.325-.583 6.464-1.414-3.181-1.543-6.658-1.054-10.055.421-2.164-1.565-3.739-1.777-5.709 1.234-2.276 3.986-5.5 6.806-3.631 2.421.802 4.72 2.941 7.403 2.2-1.025-2.804-3.795-4.141-6.191-5.561-1.741-.971-2.335-3.034-2.198-4.907 1.989 1.992 3.338 6.021 6.745 5.493-.083-.827-.004-1.733-.54-2.427-1.737-2.531-3.234-5.213-4.752-7.873-.946-1.83-3.23-1.833-4.925-2.495.928-.446 1.867-.866 2.784-1.344-1.615-1.283-3.385-2.444-4.651-4.102-1.115-1.452.029-3.275.216-4.857-1.345-.694-2.583-.072-3.583.888l-.32-1.265c1.036-.399 2.05-.859 3.025-1.391 1.597 2.488 3.169 4.99 4.971 7.337.77-.597 1.54-1.197 2.291-1.823-.471-.73-.942-1.456-1.407-2.189l1.036-1.183c-1.317-3.613-3.32-6.92-5.086-10.321-.572-1.305-2.032-1.697-3.18-2.311 1.712-.097 3.425-.007 5.14.032 1.568-2.081 4.356-2.178 6.687-1.643 1.748.913 3.014 2.919 5.155 2.941 2.507-.072 4.025 2.502 6.468 2.66 2.295.115 4.648-.672 6.885.18 1.054 1.355 1.324 3.609 3.273 4.008 2.018.51 4.187.981 5.601 2.657-1.148.223-2.302.385-3.453.579 2.309 1.355 4.68 2.613 7.072 3.818-1.824.525-2.748 2.243-3.349 3.9-2.831.327-5.36 4.975-2.518 6.927 1.403 1.06 2.543 2.89 4.522 2.75-.101-1.143-.77-2.484.086-3.487.874-1.043 1.996-1.837 3.018-2.728.752 1.474 1.424 3.052 1.317 4.749-.126 4.954 1.216 10.091-.586 14.886-1.076-1.697-1.191-3.778-2.158-5.529-.788.151-1.572.302-2.356.446.773 2.538 2.191 4.885 2.439 7.567-1.579-2.031-4.18-.194-5.076 1.567-.946 2.631-1.281 5.457-1.338 8.239 4.45 2.595 3.896 8.229 5.633 12.413l.719-.561c-.486-2.078-.878-4.929 1.86-5.507l.831.701c-.986 2.667-2.317 5.673-.773 8.416.327-.212.658-.421.993-.626.471 1.517 1.011 3.027 1.255 4.601.273 1.877-.518 3.807.097 5.647.59 1.355 1.878 2.261 3.13 2.969 1.543 1.01 3.313-.492 4.068-1.805.536-1.589.216-3.311.259-4.954-1.198.014-2.23.59-3.166 1.28-2.079-3.818-.835-8.433-.924-12.589 1.313.054 2.475-.557 3.583-1.19 1.183 2.153.842 4.695 1.669 6.945.525 1.427 2.004 2.056 3.335 2.524-.439-3.156-1.155-6.262-1.917-9.35-.745-2.851 1.097-6.061-.831-8.638l1.065-1.291c.978 1.251 2.378 1.859 3.971 1.578-.82-2.254-2.054-4.637-4.353-5.665l-.871 1.118c-1.723-.841-2.795-2.473-3.878-3.979.424-.169.856-.331 1.291-.489.878.877 1.849 2.984 3.342 2.081 1.543-1.118 3.496-.899 5.263-1.323-1.288-2.236-2.943-4.231-4.741-6.068.835-.597 1.651-1.219 2.425-1.902-.662-.608-1.338-1.19-2-1.783.781-.068 1.572-.108 2.363-.165-.482-.884-.971-1.761-1.504-2.61.381-.586.763-1.172 1.133-1.765-2.191-1.582-4.543-2.994-6.374-5.015 1.842.342 3.705 1.28 5.59.6-.665-.992-1.378-1.956-2.076-2.923 1.241.32 2.586.705 3.763-.043-1.385-1.33-2.478-2.948-2.378-4.954-1.964-1.147-4.076-1.999-6.101-3.023 1.022-1.208 2.061-2.405 3.022-3.66 2.709.737 5.385 1.621 7.91 2.861l-2.324.643c.144 3.124 3.892 4.235 5.917 6.122-1.119.92-2.349 1.7-3.651 2.337.173 1.761 1.392 3.088 2.371 4.468 1.576 1.92 3.079 4.929 6.058 4.328-.496-1.312-1.165-2.549-1.968-3.699l.594-.579c2.345 1.715 4.479 3.731 7.015 5.177 1.518.83 3.443 1.557 5.083.618-1.824-1.316-3.673-2.621-5.209-4.285.525-.428 1.05-.856 1.572-1.291-1.604-2.053-3.443-3.926-5.493-5.536.378-.417.759-.834 1.14-1.247-1.309-1.531-2.781-2.912-4.309-4.213 2.478-.04 1.55-3.221.871-4.695-2.878-4.763-7.115-8.487-10.691-12.701-.414-.518-.892-1.082-.802-1.794.072-4.08.291-8.157.345-12.237-.094-3.767-1.212-7.905-4.335-10.296-2.428-1.891-5.723-1.945-8.623-1.391-9.141 1.7-17.788 5.302-26.846 7.337-4.133 1.025-7.256-2.667-9.317-5.705 2.702.712 5.317 1.758 8.054 2.326 1.302.273 2.212-.913 3.05-1.693-3.23-1.585-6.518-3.045-9.784-4.547-1.683-.816-3.687-.489-5.331-1.416-2.065-1.075-3.982-2.444-6.198-3.21-6.738-2.502-13.601-4.929-20.759-5.849zm-41.638 3.02c-.993.345-1.737 1.161-2.712 1.546-.845-.032-1.543-.82-2.381-.679-1.586.741-2.453 2.707-4.342 2.872-2.885.223-5.626 1.542-7.579 3.67-2.939.234-5.932-.291-8.835.395.04 1.797-1.076 3.138-2.356 4.242-1.295 1.068-.414 3.832 1.442 3.207 3.795-1.154 7.086-3.483 10.626-5.213 2.518-1.053 5.565-.453 7.792-2.268 1.889-1.618 4.525.475 6.457-1.082 3.072-2.279 7.813-1.147 10.151-4.587-1.478-1.147-3.284-.949-4.921-.295-1.543.669-2.011-1.661-3.342-1.808zm33.353.83c-.162.629-.324 1.258-.482 1.887.536.927 1.18 1.812 2.119 2.376 3.432 2.193 4.881 6.187 7.41 9.21 2.597-.809 4.572 1.283 6.813 2.114 1.597.467 2.68-1.107 3.029-2.448-3.568-1.201-4.896-4.914-6.957-7.679-1.176-1.776-3.356-2.178-5.14-3.066-.18-.805-.363-1.607-.554-2.405-2.079.004-4.158-.004-6.238.011zm-32.033 10.508c-2.752.892-5.554 1.855-7.838 3.688.842 2.617 3.694 1.226 5.644 1.873-.845.949-1.698 1.894-2.432 2.933l1.068.572c2.719-.791 5.515-2.509 8.41-1.628 3.835 1.204 5.799 5.169 9.331 6.841 1.576.82 3.162-.187 4.493-.992.529-2.092-1.637-2.524-3.097-3.131.583-1.761.133-3.717-1.54-4.688-.04-1.506.5-3.785-1.299-4.479-1.957-.388-3.968.029-5.939.079l.806-2.581c-2.63-.129-5.13.769-7.608 1.513zm-38.814 7.082c1.306-.41 2.594-.866 3.921-1.197.683.5 1.324 1.664 2.302 1.1 2.054-.712 1.594-3.181 2.007-4.864l-.953-.956c-3.04.935-6.166 2.761-7.277 5.917zm-12.626-2.067c-2.64 2.703-4.813 5.816-7.367 8.595 2.389 1.585 5.094 4.774 8.155 2.617-.014-2.214-.662-4.601.514-6.643.64-1.69 2.45-3.268 1.666-5.205-.996.104-2.263-.28-2.968.636zm22.09 4.677c-.183 1.039 1.115.935 1.791 1.032 1.874-1.668 4.115-3.286 4.59-5.924-3.273-.945-5.709 2.056-6.381 4.893zm13.191 1.089c-1.648.108-1.986 1.977-2.82 3.077-2.086-.845-4.004-3.239-6.417-2.002l.032 1.675c.478.518 1.529 1.089.953 1.912-1.295 1.941-3.137 3.437-4.612 5.23.996 1.894 3.493.892 5.205 1.226-.525 1.646-2.719 3.987-.683 5.363 1.133-.762 2.166-1.661 3.133-2.624.899-1.025 2.59-.841 3.309-2.078 2.705-3.965 5.338-8.031 7.385-12.377.644-1.147-.302-2.168-1.144-2.84-1.432 1.19-2.23 3.358-4.342 3.437zm12.094-.115c-1.698 2.98-2.986 6.197-4.313 9.361-.662 1.37-.536 2.912-.511 4.386 2.845.528 4.115-2.398 5.155-4.465 1.324-2.84 4.907-2.782 7.497-3.631 3.043-.446 2.993-5.353.245-6.244-2.565-.906-5.748-.924-8.072.593zm23.037 1.007c1.964.219 3.939.374 5.907.572.331-.618.651-1.24.968-1.866-2.115-2.045-4.892.137-6.874 1.294zm-13.335 9.372c-1.176.615-2.719 1.258-2.396 2.879 3.389 1.722 6.68 3.692 10.248 5.033 1.554.661 3.133-.755 3.108-2.326.209-2.157 0-5.428-2.554-6.061-2.788-.183-5.867-1.168-8.407.475zm60.937 6.305c1.522 1.686 2.766 3.591 4 5.493 1.363.111 3.425-.439 4.166 1.086.536 1.675-1.068 2.664-2.378 3.189-1.324.424-1.068 1.902-.914 2.973-1.45 1.927.68 3.71 1.36 5.464 1.46 3.807 1.709 7.934 2.169 11.949.273 1.945 2.27 3.767 4.234 2.631.388-2.017-1.266-3.163-2.45-4.458 2.255.421 3.428 2.506 4.148 4.479.59 1.747 2.781 2.297 4.378 1.726.392-2.516 1.284-5.525-.633-7.653-1.46-1.751-2.705-4.497-5.36-4.382l-.705 1.679c-2.468-.564-2.036-3.214-2.36-5.137.96-.083 1.921-.187 2.878-.324.065-1.686.155-3.368.367-5.04-1.025.075-2.047.122-3.068.115 1.144-1.887 2.353-3.746 3.295-5.745 1.065-2.074.468-4.472.63-6.701-.741-.464-1.489-.909-2.248-1.337-.835.841-1.022 1.977-1.054 3.113-1.345-1.718-3.662.147-5.108-1.283-.514-.352-.54-1.028-.737-1.564.96-.194 1.921-.399 2.881-.611-1.234-1.708-2.759-3.196-4.583-4.26-.978 1.524-1.917 3.077-2.907 4.598zm-97.085 3.404c2.417-.37 3.169-2.711 2.684-4.853-1.842.938-3.187 2.685-2.684 4.853zm120.614 5.112c-.129 1.603.619 3.541 2.378 3.839 2.076-.075 3.45-1.905 3.925-3.767-2.09-.241-4.468-1.787-6.302-.072zm-4.712 6.87c-1.899 2.542.748 5.115 2.137 7.168l1.892-.061c1.14-2.977-.935-6.507-4.029-7.107zm-197.393 4.529c1.648 1.539 3.979 1.69 6.115 1.751-1.248-2.268-3.939-1.905-6.115-1.751zm9.04 1.93c1.41 1.722 3.619 2.301 5.536 3.243 3.029 1.427 5.932 3.11 9.033 4.382-3.694-4.199-9.069-6.834-14.569-7.625zm199.951 3.034c-.209 1.287-.388 2.577-.576 3.868 1.076 1.179 2.166 2.829 3.932 2.865 1 .004.996-1.352.626-1.984-1.266-1.632-2.583-3.228-3.982-4.749zm25.019 2.423c-.205 1.618.076 3.25 1.468 4.263 2.381 2.657 6.781 5.701 10.022 2.599-3.478-2.085-7.482-3.573-10.069-6.859l-1.421-.004zm-27.468 6.517c-.788 2.836 1.086 5.101 3.403 6.428-.241-2.427-.694-5.572-3.403-6.428zm30.544 2.434c-.047 3.685 4.986 5.353 7.982 4.346-2.353-1.869-4.684-4.634-7.982-4.346zm-236.635 7.452c1.755.151 3.421-.658 4.104-2.315-1.777-.237-2.993 1.168-4.104 2.315zm7.72 10.26c-2.032 1.05-4.381 2.286-4.957 4.709 6.367-2.912 12.507-6.442 19.295-8.34.77-.133 1.209-.798 1.673-1.352-5.612.521-10.975 2.531-16.011 4.982zm9.874 12.596c1.687.41 2.838-.87 2.968-2.444-1.219.489-2.273 1.319-2.968 2.444zm-7.777 8.638c2.935-.083 3.892-3.685 5.644-5.579-2.666.191-5.766 2.707-5.644 5.579zm191.163 1.923c-.752 2.419-.86 5.054-2.054 7.323-1.122 1.873-3.928 3.038-3.439 5.594 1.291.036 2.583.043 3.878.043.004 1.851.007 3.706.004 5.565-.889.971-2.13 1.837-2.381 3.203.201 1.488 1.644 2.347 2.687 3.261-.698.697-1.399 1.395-2.104 2.085-.424-1.521-.755-3.059-1.112-4.591-.853-.399-1.716-.766-2.586-1.111-.493-2.326 1.529-5.32-.91-6.945-1.568 1.47-3.597 2.488-4.878 4.238-.237 1.38-.083 2.8-.061 4.195 1.27-.658 2.237-1.715 3.076-2.854.946 2.135-.18 4.389.259 6.593.558.086 1.126.176 1.691.273.709 3.828 2.338 7.704.885 11.583 1.514-.838 2.925-1.844 4.374-2.782 1.281 1.758 2.799 4.386 5.407 3.397-1.82-4.476.403-8.987 1.993-13.154.874-2.283 2.964-3.71 4.331-5.662l-1.018-1.053-2.18.28c-.083-3.232.227-6.464.047-9.692-1.198-.129-2.403-.119-3.601-.018-.072-2.603.061-5.209-.047-7.812-.101-1.158-1.403-1.492-2.259-1.959zm-187.148 14.451l1.324.489c.964-1.61 2.079-3.289 1.791-5.27-1.626 1.136-2.453 2.98-3.115 4.781zm175.044 8.973c-.619 2.031-1.032 4.12-1.403 6.212-.957 4.019.694 8.311 3.471 11.241.802-4.12 2.73-8.358 1.673-12.575l-1.453.183c-.417-1.812-.777-3.807-2.288-5.062zm-7.205 9.8c.122 1.172.939 2.25.637 3.462-.77 3.904-2 7.722-2.608 11.654-.335 1.697.662 3.171 1.781 4.325 1.183-2.538 1.709-5.306 2.245-8.034.586-.173 1.173-.345 1.763-.514.327-2.157.23-4.339.194-6.51.392-.377.784-.751 1.18-1.125-.324-2.57-1.151-5.033-1.806-7.528-1.586.945-3.079 2.369-3.385 4.271zm-116.028 11.198c.921 1.111 1.849 2.225 2.943 3.178 1.004-.974 1.986-1.966 2.971-2.962.011-.64.029-1.28.05-1.916-2.162-.029-5.162-1.215-5.964 1.7zm5.72 3.077c1.439 1.736 3.529.216 4.266-1.366-.917-2.779-4.288-.769-4.266 1.366zm5.011.395c-1.259 2.096-2.543 4.246-3.173 6.622-.446 1.377 1.648 2.844 2.489 1.438 1.338-1.938 2.385-4.202 2.608-6.564.14-1.132-1.18-1.165-1.925-1.495zm-14.256 2.75c-1.043 1.733-2.737 4.12-1.41 6.093.906 1.276 2.137-.05 2.943-.715-.122.708-.234 1.424-.338 2.143.773.032 1.543.072 2.317.119.356-1.578 1.212-4.08-1.349-3.997.734-1.398 1.532-3.142.723-4.673-1.097-.536-2.381-.083-2.885 1.032zm8.842-1.287c-.709 1.204-1.781 2.398-1.691 3.882.313.985 1.435 1.291 2.241 1.765.745-1.391 1.831-2.822 1.633-4.486-.417-.809-1.435-.845-2.184-1.161zm41.58 8.437c2.13-2.301 4.687-5.248 4.482-8.534-2.917 1.74-5.238 4.993-4.482 8.534zm-24.749-7.869c.018 1.761.112 3.541-.23 5.284-.795 2.854 1.723 5.108 3.137 7.301.928-.744 2.252-1.578 1.982-2.966-.867-3.304 1.928-6.356.586-9.656-1.817.273-3.658.302-5.475.036zm8.328 5.252c.748.974 2.036.403 2.989.137-.022-1.251-.025-2.502-.025-3.749l-.928-1.003c-2.5-.075-3.291 2.826-2.036 4.616zm-15.392-3.76c-1.205 3.128-2.745 6.122-3.845 9.289-1.036 2.488 3.95 3.616 4.169.938.619-3.383 1.964-6.686 1.892-10.159-.741-.032-1.478-.054-2.216-.068zm3.935 5.173c-1.363 1.388-2.414 3.354-1.907 5.346 1.104.04 2.205.054 3.313.065.511-1.664.558-3.408-.068-5.047-.442-.137-.874-.345-1.338-.363zm22.317 8.117c1.277-.036 2.835.421 3.86-.582 1.446-1.449 2.011-3.534 2.101-5.529l-.626-.525c-1.989 1.945-5.511 3.401-5.335 6.636zm-42.854.144c2.748 1.1 2.932-2.103 3.532-3.911l-2.594-.514c-.906 1.294-1.763 2.861-.939 4.425zm4.288-2.509c-1.424 1.743-.989 5.594 1.802 5.579 2.59-.219 3.101-3.429 2.978-5.525-1.442-.78-3.425-1.255-4.781-.054zm35.425.895c-.507 1.377-.835 2.811-1.09 4.256-.586-.539-1.165-1.086-1.752-1.621-.748.399-1.496.809-2.237 1.222-.011 1.844-.014 3.688-.004 5.532 1.173.27 2.781.848 3.615-.385.82-1.219 1.964-2.121 3.428-2.401.014-2.211.007-4.418-.047-6.629-.64.007-1.277.014-1.914.025zm-30.637 6.187c.27 1.294 1.576 1.715 2.752 1.675 1.212-1.862.615-4.148.734-6.23l-1.097-.532c-1.169 1.449-2.486 3.124-2.389 5.087zm21.569-1.578c-.788 1.402-.975 3.16-.558 4.706.471 1.154 1.889.83 2.831.575.086-1.776.734-3.491.773-5.256-.766-.82-2.41-1.179-3.047-.025zm-13.31.654c-.906.492-1.971 1.614-1.446 2.711.878 1.24 2.982 2.013 4.176.784 1.299-1.654-.799-4.458-2.73-3.494zm4.396 4.781c1.435 2.466 4.378.741 5.831-.776-.842-1.301-1.277-3.135-2.759-3.843-1.889.482-3.259 2.746-3.072 4.619zm8.687 19.43c-4.158 2.193-8.45 4.134-12.896 5.658.626.978 1.259 1.952 1.899 2.926 1.687-.956 3.414-1.841 5.194-2.606.219 8.067.158 16.148-.299 24.204 2.608-.226 5.23-.23 7.838.004-.676-9.871-.112-19.764-.194-29.639.133-.931-.989-.999-1.543-.546zm15.749 1.797c-4.91 2.229-6.299 8.908-4.05 13.473 2.532 4.609 9.461 4.839 13.245 1.686-.14 3.926-1.004 8.75-4.907 10.655-2.604 1.283-5.522-.083-7.223-2.175-.158 1.488-.371 2.977-.633 4.454 4.939 1.794 10.914 1.143 14.939-2.383 4.353-3.778 5.788-9.882 5.464-15.436-.147-3.85-1.622-8.088-5.198-10.026-3.554-1.837-8-1.869-11.637-.248zm55.393-1.1c-3.576 5.737-7.378 11.331-11.177 16.917-.511 1.848-.065 3.85-.227 5.759 3.835-.248 7.673-.453 11.515-.298.014 2.373-.147 4.742-.353 7.103 2.353-.226 4.723-.212 7.083.004-.324-2.369-.424-4.76-.356-7.147 1.237.072 2.471.173 3.709.306-.198-1.841-.201-3.695.011-5.532-1.223.158-2.453.273-3.68.359-.04-5.824-.043-11.654.374-17.467-2.295.234-4.604.237-6.899-.004zm-28.429.392c-6.036 1.456-7.515 8.509-7.479 13.847.036 5.08.014 11.647 4.932 14.635 4.594 2.189 11.346 1.941 14.439-2.621 2.522-3.965 2.547-8.897 2.428-13.437-.205-3.631-.583-7.725-3.309-10.425-2.932-2.657-7.335-2.743-11.011-1.999zm28.983-205.67c1.748.575 3.511 1.14 5.194 1.898 1.277.503 1.41 2.153 2.532 2.854 1.14.744 2.496 1.283 3.234 2.506 3.378 4.903 8.015 9.469 14.008 10.806 3.338.805 6.666-.334 9.935-.917-2.608 1.485-5.104 3.257-7.968 4.22-2.594.963-4.914-1.219-7.453-1.341-1.126.119-1.133 1.359-1.112 2.222-.824-.241-1.651-.46-2.486-.654-.608.931-1.209 1.866-1.838 2.782-2.745-.158-5.417-.816-8.119-1.258-.126-.784-.248-1.567-.36-2.347 1.95.417 4.068 1.176 6.018.381.964-.356 1.96-1.679 1.043-2.581-.86-.755-.669-1.959-1.068-2.926-.842-.726-1.881-1.168-2.845-1.711l1.568-.845c-1.68-5.723-9.295-7.028-10.284-13.089zm-3.949 22.831c2.104-1.273 4.457.237 6.475.963-.842.723-1.921 1.294-2.96.572-1.651-1.237-4.5.963-2.702 2.671-.849 1.007-2.234 1.905-2.234 3.343.435.59 1.018 1.039 1.561 1.524.025 1.664.014 3.325.004 4.99-1.486 1.664-3.698 1.014-5.594.654.795-.909 1.802-1.697 2.273-2.833.273-1.294-.824-2.25-1.507-3.192.662-.927 1.73-1.704 1.86-2.905.004-2.261 1.64-4.015 2.824-5.788zm-21.076 12.772c.978.776 1.806 1.715 2.522 2.732-.507 1.093-1.561 1.208-2.637 1.007-.072-1.247-.025-2.498.115-3.739zm4.528 4.454c2.166-1.06 4.684-.892 6.968-1.596-.295.809-.601 1.61-.91 2.412-2.018-.273-4.079-.295-6.058-.816zm14.299 3.685c.777-1.287 1.363-3.645 3.302-3.278 1.374.687 2.943 1.948 2.978 3.591-.845 1.664-2.597 2.585-4.151 3.48-.011-1.585-.831-2.933-2.13-3.793zm-18.831-2.384c2.27-.611 4.428.877 6.054 2.294.694 1.938 1.065 4.263-.637 5.802l1.086 1.161c-.935 1.309-2.137 2.401-3.047 3.735.338.755 1.338 1.65.568 2.455-1.597 1.51.122 3.771-1.032 5.497-.673.971.342 1.708.939 2.358-.773.403-1.55.802-2.324 1.197.507.629 1.025 1.251 1.543 1.873-2.173 1.657-4.612 2.703-7.407 2.193-.14 2.606 3.022 3.199 4.669 4.547-1.058.022-2.115.029-3.169.111-.41 3.149 3.471 3.965 5.853 3.757 3.097-.679 6.047-1.905 9.029-2.962l-.036-.931c-1.295-.669-2.669-1.974-1.457-3.419-.396-.528-.799-1.046-1.198-1.567 1.227-.327 2.572-.356 3.702-.974.986-.902 1.389-2.24 2.061-3.361-.935-.816-1.982-1.492-3.094-2.045.004-.564.007-1.125.018-1.682 1.907-1.1 1.651-3.185-.05-4.346 1.058-.715 2.079-1.499 2.925-2.459-.324-.51-.651-1.017-.978-1.521 2.712-2.682 7.241-2.894 10.691-1.618.507 1.7 1.295 3.609.439 5.331-.594 1.28-1.183 2.631-.939 4.077-1.112.643-3.241.87-2.903 2.606.374 2.851 1.133 5.68 2.317 8.3 1.363 2.398 4.36 2.861 6.63 4.051 0 2.178-.068 4.494 1.112 6.428-.126.46-.252.92-.367 1.388-2.245 1.309-3.597-1.229-4.687-2.757-2.572 1.877.809 4.77-.928 7.089-.637-1.114-1.367-2.175-2.23-3.12-.522 1.902-1.302 3.724-1.773 5.64-.442 1.427 1.223 2.826.403 4.184-1.417 1.172-3.637.288-5.043 1.51-.838.931-.63 2.29-.723 3.444-1.468.554-2.45 1.758-3.025 3.174-1.112-2.613-.403-5.637-1.856-8.124-.662-.989.496-1.549 1.104-2.132-1.327-2.624-3.399-4.788-5.5-6.809-1.885-1.61-4.579-.374-6.676-1.186-1.777-1.402 1.68-3.005.327-4.677-1.655-2.329-4.907-1.233-7.284-1.172-2.05-.554-3.943-1.905-6.166-1.636-3.522.284-7.051.618-10.587.324.032 2.779 2.867 4.019 5.068 4.9 5.407 1.92 10.63 4.997 14.022 9.731 1.14 1.495 1.604 3.552 3.281 4.594 3.572 2.193 7.371 4.278 10.094 7.546 2.068 2.401.302 5.68.82 8.484-1.047-.723-2.734-1.607-3.252.14-.011 3.275.565 6.539.669 9.821-1.968 1.754-2.198 4.58-2.295 7.046-.007 3.951-.022 7.909-.284 11.856-1.032-4.015-1.579-8.423-4.363-11.698-2-2.2-1.658-5.335-1.741-8.074-.047-2.488-.076-5.324 1.781-7.24 2.126-2.02 2.435-5.097 3.471-7.7.745-1.431-.428-3.796-2.216-2.93-2.086 1.244-2.371 4.008-4.076 5.63-1.626 1.801-5.086 1.715-6.266-.543-1.896-3.433-1.986-7.941-5.216-10.572-2.572-2.434-6.982-.895-9.252-3.749-1.14-2.833 1.914-5.881 4.799-5.054.277-.234.558-.467.842-.697-1.522-2.196-3.583-3.908-5.601-5.622-3.842-3.947-5.083-9.454-7.453-14.254 4.356-.025 8.716.011 13.072-.007 1.216.09 2.09-.938 3.223-1.143 2.396.471 4.514 3.16 7.079 1.992.838-1.819-.748-3.577-2.273-4.379-.137-.906-.396-1.779-.752-2.617 1.637.288 4.14 1.553 5.238-.352-.849-1.359-1.986-2.513-2.77-3.915 1.543-.302 4.119-.022 4.083-2.279l-.917-.784c.403-.406.802-.816 1.209-1.219-.662-.816-1.353-1.603-2.036-2.394 2.133-1.229 4.795-1.56 6.486-3.494-.856-.888-1.845-1.625-2.91-2.247.259-.485.522-.967.788-1.445-1.993-2.153-5.09-.331-7.576-.568 2.824-1.305 5.86-2.063 8.874-2.79zm20.9 25.074c-1.011.791-1.766 1.844-2.525 2.861l2.281.568c.504-.942 1.719-2.955.245-3.429zm-48.879 5.579l.935.992c2.302-.935 4.763-.881 6.925.388 3.561 1.104 7.425-.255 11.004.874 1.345.457 2.788.363 4.09-.187-4.112-3.793-10.047-3.465-15.234-4.091-2.619-.086-6.281-.812-7.72 2.024zm41.641 2.196c.842 1.513 3.478 4.77 4.586 1.812-1.338-1.007-2.878-1.779-4.586-1.812zm5.09 3.926c.579 1.334 1.568 2.664 3.227 2.365-.13-.679-.27-1.355-.417-2.027-.935-.137-1.871-.248-2.809-.338zm-2.291 3.512c.809 1.772 1.712 3.8 3.576 4.68.73-.065.903-1.057 1.155-1.625-1.054-1.628-2.939-2.495-4.73-3.056zm-33.443 8.656c2.047 2.513 4.101 5.087 6.637 7.121.781.809 1.507-.173 1.849-.856-2.014-2.15-3.961-4.396-6.234-6.284-.647-.69-1.522-.23-2.252.018zm6.77-.475c-.13.615-.626 1.301-.158 1.891 1.248 1.869 3.259 3.552 5.655 3.286-1.13-2.247-2.36-5.68-5.497-5.177zm-75.758-27.398c.687-3.875.752-8.833 4.975-10.677-.683 1.197-1.788 2.696-.428 3.872-1.648 2.182-2.784 4.706-4.547 6.805zm-15.291 1.254c.82-1.927 2.058-3.634 3.295-5.31.129 2.193-.439 5.435-3.295 5.31zm10.417.823c.273-1.945.935-3.872 2.277-5.349.252 2.002-.094 4.573-2.277 5.349zm158.752 44.346c2.597-2.214 1.317-5.701 1.856-8.62.647 4.127.583 8.333.025 12.467-.644-1.276-1.223-2.581-1.881-3.846zm-38.749-5.342l2.079 3.872c1.547-.787 2.809.248 3.705 1.452-1.806 2.563-1.183 5.712-.845 8.599-1.378-.726-2.669-1.607-3.82-2.653-1.471 1.761-1.119 3.9-.388 5.874-.669 3.685-4.525 5.331-7.27 7.298-.817 1.104-.806 2.592-1.079 3.897-3.795.252-7.543.92-11.328 1.226-.007-.492-.011-.981-.007-1.467 3.989-.367 4.939-4.788 5.331-8.042.529 1.761.802 3.627 1.763 5.23 3.723-3.89-.464-9.519 1.978-13.898.982.162 1.96.331 2.95.482.914-1.837.09-4.303 1.921-5.651.633 1.344 1.187 2.725 1.777 4.095 1.126-1.107 1.478-2.639 1.518-4.163l.906-.27c.295-1.959.302-3.958.809-5.881zm-18.86 13.704c1.518 2.621 2.112 5.795 1.755 8.789-.579 1.377-2.255 1.761-3.471 2.401-.014-.748-.022-1.495-.025-2.243.96-1.003 2.259-1.97 2.32-3.483.101-1.841-.464-3.634-.579-5.464zm32.231 5.439c2.263 1.402.324 4.166-.022 6.136-.547-2.017-.489-4.123.022-6.136zm-45.019 15.54c-1.09-1.503-3.849-3.059-2.691-5.169 2.349.435 2.439 3.289 2.691 5.169zm-4.58.317c1.55 1.995 2.874 4.195 3.777 6.561.694 1.557-1.478 2.736-.878 4.335.647 2.646 1.525 5.443 3.453 7.448 1.313 1.42 3.428-.611 2.853-2.146-.302-1.578-1.853-3.401-.381-4.817.957 2.926 1.457 5.975 2.13 8.973-.752.198-1.504.388-2.255.579-.338 3.243-.273 6.507-.64 9.746-3.014-6.55-5.227-13.43-7.453-20.275-.813-2.013.36-4.152-.266-6.183-.428-1.37-.439-2.808-.338-4.22zm-19.23 69.226c1.874-.802 3.676.866 3.989 2.653.561 2.703.741 5.655-.223 8.29-.741 2.182-4.148 2.405-5.205.385-1.061-2.071-.903-4.512-.788-6.765.173-1.675.504-3.789 2.227-4.562zm24.482.366c1.371-.701 3.237-.101 3.809 1.366 1.234 2.933 1.004 6.212 1.122 9.329-.115 4.084.345 8.34-1.014 12.266-.579 1.952-3.403 2.563-4.694.981-1.255-1.729-1.288-3.99-1.453-6.039-.14-4.357-.216-8.735.147-13.085.255-1.704.432-3.854 2.083-4.817zm18.163 14.602c2.716-4.084 5.443-8.157 8.187-12.222.004 4.073-.007 8.149.004 12.222h-8.191z" id="Shape" fill="#F5A12D" sketch:type="MSShapeGroup"/><path d="M344.3 138.708c3.558-2.588 9.194-1.477 11.238 2.502 2.302 4.041 2.464 8.908 1.748 13.402-.727 4.806-.835 9.958-3.522 14.192-2.845 4.673-7.45 9.688-13.45 9.07.601-1.657 1.525-3.376 3.349-3.9-2.392-1.204-4.763-2.462-7.072-3.818 1.151-.194 2.306-.356 3.453-.579-1.414-1.675-3.583-2.146-5.601-2.657-1.95-.399-2.219-2.653-3.273-4.008.874.198 1.849.525 2.709.068.914-1.287.827-3.347 2.518-3.997 1.788-.769 2.698-2.588 4.18-3.746 1.612-1.377 4.155-.345 5.59-2.067-2.755-1.614-6.309-1.15-8.917.536-2.975 1.801-5.622 4.756-9.353 4.749-2.399.036-2.302-3.027-3.378-4.526 1.795-.345 3.676-.403 5.381-1.114 1.331-.514 1.583-2.063 2.119-3.214 2.95-.431 3.874-3.717 6.525-4.659 2.727-1.136 5.946-1.916 7.504-4.698-.583-.518-1.169-1.025-1.748-1.535zm-7.741 23.694c-.392.888-.712 1.805-.906 2.757 1.766.291 3.554-.115 4.507-1.754-.795-1.291-2.324-.981-3.601-1.003zm-160.95-1.341l1.302-.618-.144.435c-.698 1.176.108 2.757 1.504 2.79 1.237-.388 1.982-1.675 3.223-2.002 2.166.399 4.191 1.672 5.392 3.534-.727.528-1.471 1.035-2.227 1.524-1.079-1.111-1.903-2.696-3.453-3.189-4.813 1.905-2.025 10.892 3.058 9.85 2.169-.496 2.712-3.063 4.54-4.084 1.788-1.021 2.313-3.149 3.554-4.666-.63 2.858-1.914 5.795-4.604 7.265.004 2.818-2.687 3.286-4.763 4.145l-.327 1.693c-2.201 1.413-3.471 3.749-5.281 5.565.802-1.783 2.414-3.232 2.41-5.31-3.065-.909-4.759-3.882-5.792-6.694-1.453-3.462.842-6.895 1.608-10.238zm4.022 14.401c-.299-2.484-.651-5.008-1.691-7.305-.669 2.538-1.496 6.147 1.691 7.305zm59.401-5.914c-.209-1.894 1.299-3.243 2.396-4.562.655.101 1.313.194 1.971.316 1.212.737 2.198 1.794 2.95 2.991-1.036-.475-2.18-.421-3.273-.234-.054 1.729-.004 3.782-1.824 4.659-1.068-.755-2.367-1.679-2.219-3.171zm-8.968 1.107c.471 0 .946.004 1.424.011.644 2.797 2.716 5.281 5.604 5.885 2.64.852 5.27-.237 7.86-.701-1.507 1.38-3.277 2.419-5.083 3.35l.691.834c4.09.259 6.705-3.437 10.133-4.957 1.698-.575 3.011 1.014 4.155 2.006-1.784 4.957-7.065 7.28-11.889 8.178-2.094.683-4.205-.133-6.284-.431-4.353-.748-8.687-1.661-13.051-2.315-1.615.514-3.054 1.715-4.853 1.452 1.942-1.758 4.464-2.905 6.989-3.516 3.076.475 6.194 1.815 9.281.525-2.119-1.582-4.881-2.337-6.558-4.458-1.367-2.017.601-4.145 1.579-5.863zm-22.677 21.339c2.648-.014 5.288-1.6 7.889-.5 1.493.661 3.061.014 4.514-.424.863 2.128-1.856 3.771-.781 5.658 3.327.737 5.694-2.624 7.547-4.889 2.309.176 4.921-.593 6.939.888 2.327 1.305 4.09 3.336 5.806 5.324 2.371 4.799 3.612 10.306 7.453 14.254-1.64-.187-3.475-.241-4.676-1.546-.752-.744-2.27-1.92-3.011-.539-.507 1.815 1.572 2.452 2.935 2.714 2.446.349 4.389 1.977 6.137 3.598-2.396-.295-4.536-1.682-6.939-1.826-2.482.428-2.684 3.491-3.838 5.27-1.216-2.143-3.381-3.437-5.522-4.504l-.554.482c.759 2.232.691 5.665 3.809 5.867-.004.446-.004.895 0 1.344-1.95 1.628-3.572 3.67-5.82 4.918-2.133 1.211-4.399 2.211-6.36 3.706l.014 1.431c1.414.036 2.82-.18 4.234-.14 1.32 1.237-.068 3.394-1.475 3.994-4.295 2.042-9.259 1.639-13.828.953-10.04-1.564-19.99-3.692-29.839-6.18-.011-.471-.014-.942-.018-1.413 5.068-2.329 9.22-6.78 10.921-12.118 1-2.75-.176-5.658.576-8.459 1.572.741 3.259 2.531 5.115 1.682-.104-4.033 1.867-8.556 5.853-10.04 3.446-.909 7.047-1.01 10.533-1.736-1.335-.701-1.331-2.207-1.622-3.494-1.871-.065-3.651.931-5.594.658-3.511 1.215-7.033 2.57-10.252 4.45-2.403 1.388-4.389 3.71-4.626 6.564-1.389-.284-2.845-.945-4.238-.342 1.007 1.341 3.543 2.948 1.842 4.756-3.09 2.883-7.515 3.713-11.525 4.573-2.126.59-4.014-.82-4.874-2.671 2.439-.151 4.914.209 7.328-.226 2.662-.834 5.63-3.102 5.166-6.226 1.968-.237 2.36-2.657 4.173-3.124 2.209-.838 2.989-3.286 4.281-5.047.752-1.334 2.82-1.291 3.223-2.894.586-1.639 1.223-3.451 2.914-4.253l.144 2.071c2.489.367 3.597-2.797 6.047-2.563zm10.151 9.663c-2.842 1.104-5.881 1.966-8.317 3.872-1.043.651-.637 2.063-1.363 2.915-.835 1.05-1.612 2.146-2.331 3.278.55.762 1.097 1.88 2.227 1.729 1.63-.137 2.284-1.869 3.194-2.973 1.108-1.614 3.453-1.38 4.648-2.901 1.378-1.56 3.349-3.156 2.971-5.486l-1.029-.435zm9.022.004c-1.295 2.362-3.115 4.407-4.32 6.816-.432.812.245 1.481.845 1.93 1.486-.906 3.223-1.028 4.82-.338-1.342 1.035-3.899 2.452-2.698 4.472 1.903.151 3.943 1.578 5.752.403l-1-.827c.137-1.129.464-2.222.809-3.304 1.651.489 2.978-.532 3.943-1.751l-.004-1.51c-2.353-1.373-4.953 1.427-7.166-.28 2.389-3.394 7.248.101 9.658-2.955-1.342-2.894-4.817-.744-7.133-.679-1.363.388-2.194-.733-2.209-1.963l-1.299-.014zm-22.324 11.281c-.942.992-2.518 2.488-1.407 3.911.514.101 1.04.133 1.561.183 1.378-1.122 1.788-3.336-.155-4.095zm15.4 4.716c1.705 1.992 4.903.23 4.554-2.214-1.925-1.28-3.741.55-4.554 2.214zm-19.5 3.005c1.658-.597 3.464-2.653 1.482-4.066-1.63.482-2.439 2.628-1.482 4.066zm13.277-1.966c-1.165.536-1.201 1.866-1.144 2.973 1.309.672 3.047 1.309 4.302.173 1.083-.766.942-2.186.608-3.3-1.248.032-2.558-.216-3.766.155zm11.446 6.118c1.435-.176 3.338.572 4.378-.762.752-.766.187-1.855.007-2.725-2.32-.676-4.997.805-4.385 3.487zm-19.727-.068c1.719 1.168 5.738-.014 4.579-2.527-1.907-1.682-3.874.863-4.579 2.527zm-4.971-.715c-.162.528-.317 1.057-.471 1.589 1.295 1.567 4.45.086 2.389-1.614-.64.007-1.281.014-1.917.025zm18.004.848c-1.043.665-1.255 1.977-1.579 3.074 2.5.568 5.029-.457 5.684-3.084-1.327-.284-2.885-.892-4.104.011zm-8.223 3.038c-.867.755-1.331 2.556.061 3.005 1.648.762 2.914-.945 3.961-1.948l-.978-1.035-3.043-.022zm-7.971 1.283c-.187 2.452 3.475 3.239 4.425 1.06-.442-1.963-3.072-2.506-4.425-1.06zm14.677 5.069c-.004.528-.004 1.057.004 1.589 1.05-.093 2.101-.226 3.144-.413.068-1.111.112-2.301-1.241-2.527-.64.446-1.273.899-1.907 1.352zm-52.165-30.754c.374-1.33-.162-2.854.345-4.224.889 1.395 1.831 2.969 3.705 2.973-2.554 2.563-1.957 6.453-2.561 9.728-.565 1.999 1.68 2.973 2.155 4.68.824 2.506.63 5.346 2.108 7.625.608.931 1.619 1.995 2.853 1.628.799-1.384 1.64-2.919 3.493-2.865.558 2.225-1.853 2.772-2.935 4.202 1.763 2.135 4.396 4.019 4.799 6.924-.665 2.48-3.849 2.52-5.86 3.307l-.173.054-1.396-1.837.147-.421c.313-.784.424-1.729-.036-2.48-1.205-.546-2.745-.701-3.453-1.981-1.536-2.024-.23-4.609-.683-6.87-.637-.733-1.504-1.229-2.112-1.988-.23-1.057.683-2.002.64-3.059-.723-1.503-2.252-2.588-2.464-4.343-.77-3.645-1.389-8.106 1.428-11.054zm16.709 21.687c-.928-1.114.054-2.534.594-3.584.964 1.578 2.241 2.926 3.425 4.339-1.331-.129-3.076.507-4.018-.755zm64.433 15.645c1.691-2.603 3.658-5.27 6.705-6.356l.396-.201c-.424 1.201-.791 2.441-1.45 3.541-3.155 4.339-5.881 8.994-7.968 13.937-1.489 3.458-1.748 7.305-3.313 10.738-2.414 5.626-5.511 11.299-10.576 14.962-3.806 2.685-9.169 4.256-13.464 1.761.723-.643 1.428-1.301 2.086-2.01-7.846-.881-15.522-3.678-21.932-8.322-2.871-2.117-5.41-5.335-5.004-9.113l.989.111c.579.086 1.158.133 1.741.183.165.342.277.701.335 1.078 1.403 4.267 8.846 2.7 8.943 7.927 2.241.09 3.511 1.912 5.119 3.145 2.932.316 5.903.007 8.853.129 1.058 1.064 2.335 2.365 3.979 1.747-1.115-2.933-3.594-6.205-2.277-9.39 2.356 1.992 5.637 4.871 8.846 3.012-.072-1.201-.14-2.401-.155-3.602 2.939-.284 6.227-.64 8.421-2.836 1.302-1.269 1.342-3.21.932-4.864 3.957-2.311 5.586-6.827 7.694-10.644.978-1.485.755-3.286 1.101-4.936zm-18.432 33.324c-1.763.974-3.903.431-5.82.827-.036.945-.047 1.891-.047 2.844 3.392 1.028 7.349-.093 9.763-2.664 1.464-1.582.626-3.818.32-5.665-1.554 1.416-2.684 3.228-4.216 4.659zm-26.428-35.168c4.59 1.114 9.141 2.567 13.892 2.829-1.773 3.225-2.676 6.87-2.425 10.558-3.809-2.027-5.151-6.543-6.083-10.454-1.338-1.797-4.507-.457-5.385-2.933zm-21.879 1.114c1.518.144 3.723-.604 4.579 1.114.687 2.268 1.212 4.587 2.076 6.805-2.975-1.715-7.486-3.735-6.655-7.919z" id="Shape" fill="#fff" sketch:type="MSShapeGroup"/><path d="M295.094 165.669c1.122-.431 2.324-.507 3.514-.413-.95 1.15-2.306 1.233-3.514.413z" id="Shape" fill="#E19429" sketch:type="MSShapeGroup"/><path d="M191.534 177.5c.734-1.582 2.158-2.7 3.475-3.782-.594 1.862-1.507 3.667-2.853 5.101-.853.421-.759-.816-.622-1.319zm-22.9 24.52c1.259-2.628 1.486-6.539 4.773-7.484-1.23 2.311-3.162 4.745-2.047 7.513-.91-.014-1.82-.018-2.727-.029zm137.665 36.535c.45.011.903.025 1.36.043.176 7.661.615 15.314.968 22.967-.406 2.577-2.363 4.587-3.04 7.1-.025-2.243-.514-4.907 1.173-6.701 1.342-1.625.978-3.85.781-5.777-.374-5.881-.971-11.748-1.241-17.633z" id="Shape" fill="#F4A12D" sketch:type="MSShapeGroup"/><path d="M128.458 183.715c2.176-.155 4.867-.518 6.115 1.751-2.137-.061-4.468-.212-6.115-1.751zm155.324 19.545c1.709.032 3.248.805 4.586 1.812-1.108 2.959-3.745-.298-4.586-1.812zm5.09 3.926c.939.09 1.874.201 2.809.338.147.672.288 1.348.417 2.027-1.658.298-2.648-1.032-3.227-2.365zm-88.711 16.845c.637-.011 1.277-.018 1.917-.025 2.061 1.7-1.094 3.181-2.389 1.614.155-.532.309-1.06.471-1.589zm10.205 85.392c1.932-.963 4.029 1.841 2.73 3.494-1.194 1.229-3.299.457-4.176-.784-.525-1.096.54-2.218 1.446-2.711z" fill="#010000" sketch:type="MSShapeGroup"/><path d="M137.498 185.645c5.5.791 10.874 3.426 14.569 7.625-3.101-1.273-6.004-2.955-9.033-4.382-1.917-.942-4.126-1.521-5.536-3.243zm9.003 44.716c.694-1.125 1.748-1.956 2.968-2.444-.129 1.575-1.281 2.854-2.968 2.444zm89.384 75.269c-.176-3.235 3.345-4.691 5.335-6.636l.626.525c-.09 1.995-.655 4.08-2.101 5.529-1.025 1.003-2.583.546-3.86.582z" fill="#010100" sketch:type="MSShapeGroup"/><path d="M175.372 198.148c.345-1.287.874-2.577 2.022-3.354-.014 1.431-.896 2.563-2.022 3.354z" fill="#DE9229" sketch:type="MSShapeGroup"/><path d="M322.002 242.702c-.011-3.9-.126-7.923 1.014-11.694.763 3.39.525 6.891.558 10.339-.522.457-1.043.909-1.572 1.355zm-64.753 37.703c.583 1.344 1.169 3.056-.061 4.242-.191-1.409-.198-2.844.061-4.242zm4.698.579c.849 2.29 1.263 4.72 1.716 7.114-1.683-1.93-2.151-4.645-1.716-7.114zm40.371 10.396c-1.086-.892-1.669-2.462-.493-3.555.385 1.143.55 2.347.493 3.555z" fill="#F3A02D" sketch:type="MSShapeGroup"/><path d="M237.917 286.434c1.054-.061 2.108-.144 3.166-.237-.932 1.136-2.144 2.196-3.73 1.869.18-.55.371-1.089.565-1.632z" fill="#F4A02D" sketch:type="MSShapeGroup"/><path d="M241.446 298.717c-.755-3.541 1.565-6.794 4.482-8.534.205 3.286-2.353 6.233-4.482 8.534z" fill="#020100" sketch:type="MSShapeGroup"/></g></svg>