<svg width="512" height="512" viewBox="0 0 512 512" xmlns="http://www.w3.org/2000/svg" xmlns:xlink="http://www.w3.org/1999/xlink" xmlns:sketch="http://www.bohemiancoding.com/sketch/ns"><title>manchester-united</title><desc>Created with Sketch.</desc><defs><radialGradient cy="48.697%" fx="50%" fy="48.697%" id="a"><stop stop-color="#FFE500" offset="0%"/><stop stop-color="#FFE500" offset="50%"/><stop stop-color="#E15007" offset="100%"/></radialGradient><radialGradient fx="50%" fy="50%" id="b"><stop stop-color="#FFE500" offset="0%"/><stop stop-color="#FFE500" offset="50%"/><stop stop-color="#E15007" offset="100%"/></radialGradient><path id="c" d="M.7 8.359v141.58l67.76 43.497 67.755-43.497.101-141.363c-2.17-1.912-6.677-6.102-10.207-8.296h-115.61c-2.926 2.053-8.787 6.993-9.799 8.08z"/><linearGradient x1="49.839%" y1="-.333%" x2="49.839%" y2="51.584%" id="e"><stop stop-color="#8F0904" offset="0%"/><stop stop-color="#B40509" offset="24.96%"/><stop stop-color="#DA020E" offset="100%"/></linearGradient><radialGradient cx="42.496%" cy="54.382%" fx="42.496%" fy="54.382%" id="f"><stop stop-color="#FFE500" offset="0%"/><stop stop-color="#FFE500" offset="50%"/><stop stop-color="#E15007" offset="100%"/></radialGradient><radialGradient cx="28.016%" cy="56.075%" fx="28.016%" fy="56.075%" id="g"><stop stop-color="#FFE500" offset="0%"/><stop stop-color="#FFE500" offset="50%"/><stop stop-color="#E15007" offset="100%"/></radialGradient><linearGradient x1="59.854%" y1="25.434%" x2="82.543%" y2="47.767%" id="h"><stop stop-color="#FFE500" offset="0%"/><stop stop-color="#FFE500" offset="50%"/><stop stop-color="#E15007" offset="100%"/></linearGradient><linearGradient x1="6.29%" y1="5.78%" x2="32.908%" y2="44.663%" id="i"><stop stop-color="#740703" offset="0%"/><stop stop-color="#DA020E" stop-opacity="0" offset="100%"/></linearGradient><linearGradient x1="93.71%" y1="5.78%" x2="67.092%" y2="44.663%" id="j"><stop stop-color="#740703" offset="0%"/><stop stop-color="#DA020E" stop-opacity="0" offset="100%"/></linearGradient><linearGradient x1="85.008%" y1="90.049%" x2="50.996%" y2="63.895%" id="k"><stop stop-color="#740703" offset="0%"/><stop stop-color="#DA020E" stop-opacity="0" offset="100%"/></linearGradient><linearGradient x1="14.992%" y1="90.049%" x2="51.005%" y2="58.991%" id="l"><stop stop-color="#740703" offset="0%"/><stop stop-color="#DA020E" stop-opacity="0" offset="100%"/></linearGradient><radialGradient cx="57.504%" cy="54.382%" fx="57.504%" fy="54.382%" id="m"><stop stop-color="#FFE500" offset="0%"/><stop stop-color="#FFE500" offset="50%"/><stop stop-color="#E15007" offset="100%"/></radialGradient><radialGradient cx="48.708%" cy="59.759%" fx="48.708%" fy="59.759%" id="n"><stop stop-color="#FFE500" offset="0%"/><stop stop-color="#FFE500" offset="50%"/><stop stop-color="#E15007" offset="100%"/></radialGradient><radialGradient cx="71.984%" cy="56.075%" fx="71.984%" fy="56.075%" id="o"><stop stop-color="#FFE500" offset="0%"/><stop stop-color="#FFE500" offset="50%"/><stop stop-color="#E15007" offset="100%"/></radialGradient><linearGradient x1="40.146%" y1="25.434%" x2="17.457%" y2="47.767%" id="p"><stop stop-color="#FFE500" offset="0%"/><stop stop-color="#FFE500" offset="50%"/><stop stop-color="#E15007" offset="100%"/></linearGradient><radialGradient fx="50%" fy="50%" id="q"><stop stop-color="#FFE500" offset="0%"/><stop stop-color="#FFE500" offset="50%"/><stop stop-color="#E15007" offset="100%"/></radialGradient><radialGradient fx="50%" fy="50%" r="48.047%" id="r"><stop stop-color="#DA030E" stop-opacity="0" offset="0%"/><stop stop-color="#DA020E" stop-opacity="0" offset="87.5%"/><stop stop-color="#DA020E" offset="100%"/></radialGradient></defs><g sketch:type="MSLayerGroup" fill="none"><path d="M272.178 422.183c-1.435 4.216-6.008 14.554-17.076 14.554-12.589 0-16.955-13.609-17.167-14.182l-.373-1.288s10.842.901 16.814.901c5.957 0 16.165-.589 17.816-.901l-.015.916zm33.034-6.709l2.583.327c-3.082 8.044-8.616 17.06-19.463 17.06-10.58 0-15.797-6.118-17.982-10.208l-1.848-1.127s18.224-.589 36.71-6.052m-99.838 0l-2.583.327c3.067 8.044 8.626 17.06 19.508 17.06 10.52 0 16.19-6.44 18.526-10.208l1.254-1.127s-18.194-.589-36.705-6.052" fill="#000" sketch:type="MSShapeGroup"/><path d="M263.934 423.041c-1.717 2.455-2.87 2.329-4.9 2.329-1.052 0-2.563.845-2.548 2.405.045 1.228 1.047 2.224 2.694 2.224 3.747 0 6.612-5.187 7.372-7.395 0 0 2.196-.091 2.835-.156 0 0-3.928 11.732-14.15 11.732-10.238 0-14.412-11.591-14.412-11.591s8.631.523 13.551.523c4.935 0 8.077-.045 9.558-.07" fill="url(#a)" sketch:type="MSShapeGroup"/><path d="M206.764 417.87c6.652 1.761 11.406 3.25 22.61 4.608 0 0-.358 1.132-2.795 1.041-.932-.06-1.057-.292-1.38-.347-.72-.131-1.763.599-1.657 1.811.111.855.826 1.917 3.313 1.917 2.488 0 5.383-2.022 6.849-3.914 0 0 1.486.347 3.031.423 0 0-4.789 6.681-14.196 6.681-10.328 0-14.175-9.262-15.777-12.22" fill="url(#b)" sketch:type="MSShapeGroup"/><path d="M254.251 362.883c35.673 0 75.193-21.874 102.94-53.408 3.021-3.411 8.082-9.891 20.133-9.891 12.071 0 28.114 10.993 26.236 30.995-1.4 14.57-22.243 47.441-57.931 67.661-35.678 20.3-68.546 24.641-91.378 24.641-22.852 0-55.69-4.342-91.388-24.641-35.683-20.219-56.521-53.091-57.911-67.661-1.878-20.003 14.17-30.995 26.216-30.995 12.081 0 17.162 6.48 20.173 9.891 27.706 31.534 67.247 53.408 102.91 53.408z" stroke="#000" stroke-width="2.098" fill="#FFE500" sketch:type="MSShapeGroup"/><path d="M253.949 367.732c-35.894 0-76.739-21.16-106.822-55.39-3.062-3.476-6.959-7.949-16.235-7.949-5.418 0-11.562 2.898-15.636 7.38-3.067 3.33-6.506 9.202-5.68 18.202 1.193 12.296 20.697 44.116 55.458 63.877 28.019 15.923 57.936 23.967 88.915 23.967 31.01 0 60.927-8.044 88.946-23.967 34.751-19.761 54.285-51.582 55.433-63.877.861-9-2.603-14.871-5.63-18.202-4.094-4.483-10.253-7.38-15.646-7.38-9.316 0-13.209 4.472-16.243 7.949-30.066 34.23-70.961 55.39-106.86 55.39z" fill="#DA020E" sketch:type="MSShapeGroup"/><path d="M408.358 189.223l.126-8.311c2.563 1.957 7.382 1.987 10.202-1.016 1.284-1.368 2.014-3.486 1.909-5.665-.121-2.46-1.239-5.016-3.077-6.817-10.414-10.167-19.664-20.32-19.664-20.32-.957-1.509-2.452-2.601-3.319-2.973-1.274-.609-5.806-2.676-9.261 2.566-3.117 4.749-2.654 11.445-2.055 13.89l9.764 13.297c3.344 4.236 12.765 13.246 15.374 15.349" fill="#000" sketch:type="MSShapeGroup"/><path d="M199.654 103.038c12.292-4.125 23.532-7.536 38.679-8.875l2.296-1.288c-8.455-6.666-16.854-11.214-25.219-11.214-5.252 0-15.938 3.567-18.32 22.403l2.563-1.026zm109.219 0c-12.297-4.125-23.527-7.536-38.659-8.875l-2.326-1.288c8.49-6.666 16.87-11.214 25.244-11.214 5.257 0 15.898 3.567 18.33 22.403l-2.588-1.026zm-68.511-9.499c6.184-11.878 11.839-16.174 15.001-16.174 3.908 0 8.51 6.208 12.126 14.242l.76 1.821-3.178-.247c-2.085-.392-8.022-.468-10.288-.468-2.326 0-7.342 0-10.363.282l-4.059.543z" fill="#000" sketch:type="MSShapeGroup"/><path d="M191.602 361.22l-8.953 16.169c-2.704 4.86-5.489 7.944-10.056 5.328-4.497-2.541-3.454-6.223-.695-11.244l8.979-16.189-7.241-4.015-9.487 17.11c-5.222 9.418 1.35 15.259 6.496 18.091 5.494 3.039 13.491 5.298 18.667-4.05l9.553-17.186-7.261-4.015zm115.136 33.313l-3.016-9.277 8.984-2.898-1.244-3.859-8.994 2.913-2.558-7.929 9.195-3.014-1.239-3.818-16.834 5.469 9.356 28.737 18.557-6.012-1.224-3.834-10.983 3.522zm19.231-37.188l-10.248 5.901 15.173 26.286 10.207-5.896c10.55-6.077 11.552-15.284 7.397-22.669-5-8.764-13.254-8.965-22.53-3.622zm15.485 7.999c3.842 6.726 3.062 11.631-2.855 15.017l-2.82 1.64-11.139-19.228 3.031-1.756c7.105-4.08 11.139-.448 13.783 4.327zm-81.976 12.317l.549 3.939 8.47-1.197 3.661 25.98 7.876-1.092-3.651-25.965 8.344-1.157-.574-3.995-24.675 3.486zm-7.171.246l-7.931-.433-1.586 30.185 7.936.423 1.581-30.175zm-24.081-3.69l-5.524 20.627-10.338-24.878-6.431-1.726-7.836 29.204 7.005 1.856 5.569-20.798 10.494 25.089 6.29 1.695 7.805-29.214-7.035-1.856zm-41.736-190.584v141.58l67.76 43.497 67.755-43.497.101-141.363c-2.17-1.912-6.677-6.102-10.207-8.296h-115.61c-2.926 2.053-8.787 6.993-9.799 8.08z" fill="#FFE500" sketch:type="MSShapeGroup"/><g transform="translate(185.79 175.274)"><mask id="d" sketch:name="path41118"><use xlink:href="#c"/></mask><path d="M.7-49.148v199.087l67.76 43.497 67.755-43.497.101-198.871" stroke="#B54005" stroke-width="10" sketch:type="MSShapeGroup" mask="url(#d)"/></g><path d="M281.333 285.213v-5.262s-1.4-2.163-4.87-2.163c-3.46 0-5.529 1.041-5.529 1.912 0 1.424 3.097 5.514 10.399 5.514zm-27.324-46.581l5.237-9.136 4.104 9.136h6.798c-4.089 3.834-5.761 9.634-5.761 13.503v4.216c0 1.791-.901 4.754-.901 4.754s5.902 4.493 6.808 5.272c.378.297.791.478.519 1.258-.468 1.313-4.477 3.119-4.885 3.461-.906.805-1.143 1.288-.906 2.083.287.765 1.037.906 2.573.362 1.551-.498 4.764-2.183 7.458-3.335 2.684-1.167 6.28-.87 6.28-.87v-5.157h-10.152v-16.386l-1.793-2.888 4.477-7.969 4.502 8.019-1.773 2.837v8.558h5.172v-8.558l-1.783-2.837 4.492-7.959 4.472 7.959-1.768 2.837v8.558h5.207v-8.558l-1.843-2.837 4.507-7.959 4.492 7.959-1.793 2.837.086 16.361h-10.233v7.566c2.321 2.178 4.512 7.109 4.512 10.012 0 2.973-1.939 4.231-1.939 4.231.65 2.334.524 3.305.247 5.418-.247 2.148-2.931 5.499-2.931 5.499v39.105c0 2.656-6.159 2.395-6.159.126v-38.351c-3.485-3.808-12.972-6.802-12.972-6.802-3.48 3.476-5.62 9.513-5.62 9.513 1.511 1.056 3.862 0 4.749-1.026.871-1.026 2.659-1.293 3.691-.644 1.012.644 1.264.89.916 2.4-.398 1.59-1.032 4.13-1.032 5.906 0 1.821 2.05 1.414 3.58 1.55 3.092.272 3.601 3.723 3.344 5.65-.252 1.937-1.158 6.047-1.158 8.603 0 2.531.136 5.086.388 6.535.267 1.399.77 2.943.629 4.749-.156 2.43-1.652 2.817-3.203 1.258-1.531-1.534-22.968-24.365-22.968-24.365-1.425 4.644 4.507 12.562 6.421 15.007 1.929 2.445 1.803 4.241.116 5.916-1.652 1.655-4.87 2.541-5.499 4.1-.655 1.509 1.536 6.158 6.043 11.923 4.492 5.755-5.157 9.619-10.912 10.771-5.796 1.137-5.796-2.837-5.393-5.016.383-2.158.383-3.471.242-5.368-.126-1.932-1.898-4.608-4.361-7.813-2.432-3.22-2.432-6.148-1.42-13.609 1.022-7.441.781-12.19.781-12.19s-2.568.106-6.295 0c-3.706-.141-6.783-2.289-7.045-11.274-.257-8.96-.468-30.357-1.078-32.6-.594-2.219-2.996-2.626-4.008-2.923-1.052-.262-1.103-1.776-.086-2.319 2.679-1.303 5.892-4.588 4.703-6.631-1.204-2.048-5.922-1.625-9.079-.08-3.167 1.529-6.506 4.89-7.367 5.806-.831.906-1.551.906-1.46-.07.106-1.046-.584-5.942-.992-7.637-.453-1.711-1.984-4.945-2.503-5.801-.509-.86 0-1.192.866-.86.831.342 2.734 1.132 4.522 1.605 1.803.543 3.52-.342 4.341-2.022.856-1.736 2.528-5.393 3.384-7.028.841-1.615 2.201-1.253 3.319-1.006 1.108.262 2.135.946 3.157 1.353 1.017.423 1.868.342 2.231-.176.347-.493.77-.679 1.385-1.957.599-1.278 1.345-.669 1.44-.161 3.062 18.393 11.038 19.238 11.038 19.238-1.198 3.064-4.008 7.949-4.673 9.181-.72 1.152-.987 2.792-1.163 4.065-.136 1.268.443 13.417 1.294 17.87.866 4.457 3.59 2.722 4.477 1.358.821-1.358 3.495-7.013 3.495-7.013s.66-1.539.66-2.817c0-1.288-2.216-4.08-2.724-4.95-.529-.885-2.397-2.581-2.397-6.862 0-4.266 3.847-7.224 5.232-8.346 1.37-1.122 1.37-2.676 1.183-3.612-.599-3.3-4.109-10.243-5.796-12.904-1.727-2.651-5.061-7.687-5.061-7.687h6.929l4.462-9.257 4.854 9.297 5.071.045zm-1.123 28.042c2.261-3.733 3.208-7.612 3.208-7.612h-6.536s1.047 3.969 3.329 7.612zm-6.808-18.821c.262 1.912 1.687 2.641 2.77 2.083 1.078-.594.891-2.143.091-3.381-.765-1.212-2.357-2.566-2.845-2.365-.499.206-.186 2.536-.015 3.663zm12.957-3.663c-.468-.201-2.145 1.152-2.941 2.365-.765 1.238-.962 2.787.126 3.381 1.063.558 2.432-.186 2.775-2.083.186-1.127.554-3.456.04-3.663z" fill="url(#e)" sketch:type="MSShapeGroup"/><path d="M191.806 218.928v8.523h125.015v-8.523h-9.219v1.376h-106.577v-1.376h-9.219zm.007-38.299h124.991v33.959h-124.991v-33.959z" fill="#DA020E" sketch:type="MSShapeGroup"/><path d="M213.29 204.729l9.573 2.349 5.167-14.383v-3.642l-14.739 15.676zm78.894 8.479v-4.43h-9.034v-3.723h7.382v-16.421h-6.803l-2.326-4.518-2.271 4.518h-6.823v16.421h7.413v3.723h-17.771v-3.723h7.392v-16.421h-6.813l-2.301-4.518-2.326 4.518h-6.793v16.421h7.428v3.723h-18.139v-3.723h7.408v-16.421h-6.823l-2.281-4.518-2.342 4.518h-6.798v16.421h7.433v3.723l-14.352.045-14.276-3.33 2.86 7.715h80.959z" fill="#FFE500" sketch:type="MSShapeGroup"/><path d="M200.364 101.7c12.066-4.035 21.185-7.179 36.046-8.497-6.849-4.749-12.927-8.769-19.916-8.769-3.676 0-6.818 1.404-7.543 3.969-.675 2.334 1.168 3.351 1.823 3.195.685-.176 1.173-.377 1.007-1.011-.176-.669.342-2.37 2.679-2.37 2.377 0 3.273 2.199 3.273 3.708 0 1.509-2.397 4.03-6.803 4.03-4.321 0-6.536-2.878-6.37-5.539-2.085 3.049-3.298 6.133-4.195 11.284" fill="url(#f)" sketch:type="MSShapeGroup"/><path d="M116.288 173.871l9.799-13.297c.564-2.445 1.012-9.136-2.12-13.885-3.424-5.247-7.936-3.174-9.261-2.566-.836.372-2.357 1.459-3.293 2.973 0 0-9.422 10.364-19.79 20.561-1.465 1.454-3.077 4.11-3.213 6.57-.126 2.183.755 4.377 2.024 5.745 2.835 3.019 7.79 2.898 10.323.936l.176 8.311c2.608-2.098 12.015-11.113 15.354-15.349" fill="#000" sketch:type="MSShapeGroup"/><path d="M254.251 154.521c55.796 0 87.541 52.321 94.47 61.508 12.307 16.411 27.374 29.733 44.833 25.331 25.647-6.555 24.312-44.508 24.312-44.508-6.189-4.452-16.734-10.057-35.96-37.284-18.828-26.689-61.436-66.227-127.655-66.227-66.235 0-108.832 39.538-127.615 66.227-19.246 27.227-29.826 32.832-35.955 37.284 0 0-1.385 37.953 24.282 44.508 17.449 4.402 32.505-8.92 44.833-25.331 6.904-9.186 38.669-61.508 94.455-61.508z" stroke="#000" stroke-width="2.098" fill="#FFE500" sketch:type="MSShapeGroup"/><path d="M254.251 149.554c53.791 0 85.783 45.585 97.353 62.034 15.311 20.418 28.273 28.125 40.726 24.961 17.998-4.578 20.233-29.325 20.475-36.816v-.297l-.201-.156c-6.345-4.392-16.96-11.672-34.746-36.861-10.61-15.042-50.891-64.159-123.606-64.159-72.69 0-113.006 49.117-123.611 64.159-17.64 25.029-28.734 32.661-34.676 36.736l-.252.206.03.262c.242 7.506 2.483 32.384 20.435 36.927 12.468 3.164 25.455-4.543 40.726-24.961 11.559-16.449 43.581-62.034 97.348-62.034" fill="#DA020E" sketch:type="MSShapeGroup"/><path d="M225.029 111.473c-9.87 2.088-16.371 9.357-14.241 19.213 1.239 5.323 5.992 15.118 21.029 11.923 4.175-.795 6.431-2.455 8.616-4.543l-2.739-3.144c-1.032 1.147-2.573 2.817-6.033 3.537-7.277 1.534-11.602-4.347-12.68-9.423-1.601-7.521 2.785-12.703 7.74-13.775 3.54-.78 5.685.181 7.045.709h.045l.922-3.854c-2.387-.956-5.252-1.59-9.704-.644zm82.545 43.358c5.645 3.396 11.804 2.817 14.684-1.947 2.095-3.33 2.115-6.097-.403-11.053-.65-1.404-1.501-2.41-2.07-3.688-1.113-2.073-2.14-3.768-1.183-5.373 1.057-1.741 3.505-1.882 5.721-.528 2.321 1.404 3.283 3.723 3.772 5.308l3.641-1.57c-1.118-2.988-2.775-5.67-6.562-7.909-6.471-3.894-11.733-2.868-13.924.78-2.221 3.668-1.591 6.721.081 9.851 0 0 1.037 1.776 1.637 2.988 1.465 2.445 3.172 5.529 1.974 7.456-1.45 2.43-3.948 2.958-6.38 1.449-3.117-1.962-3.847-4.246-4.497-6.475l-4.003 1.71c.881 3.069 2.951 6.248 7.513 9zm-43.096-44.945l-.227 12.316-11.854-.171.176-12.361-7.946-.146-.529 30.221 7.961.171.252-13.855 11.874.216-.227 13.83 7.951.121.519-30.221-7.951-.121zm113.842 95.963c.055.075 4.663 2.349 9.784-2.244 4.28-3.844 2.845-9.111-1.627-14.056l-8.243-9.151-22.474 20.234 5.313 5.886 8.948-8.019 2.583 2.913-5.665 12.768 6.783 5.413 4.598-13.744zm4.013-14.886c2.105 2.334 2.14 5.106-.307 7.26-2.382 2.193-5.423 1.69-7.735-.845l-1.345-1.504 7.609-6.867 1.778 1.957zm-35.074-7.72l7.528-6.243 6.038 7.179 3.122-2.601-6.073-7.209 6.37-5.358 6.219 7.4 3.087-2.571-11.361-13.528-23.159 19.429 12.509 14.917 3.122-2.591-7.402-8.824zm-8.682-45.411l-2.699 2.958 6.345 5.73-17.585 19.49 5.932 5.328 17.559-19.495 6.264 5.635 2.689-2.958-18.506-16.688zm-51.782 1.916l3.203-9.217 8.908 3.069 1.324-3.834-8.923-3.064 2.714-7.893 9.18 3.144 1.289-3.813-16.724-5.75-9.83 28.621 18.431 6.304 1.309-3.813-10.882-3.753zm-95.774-14.806l11.361 18.091-25.294-9.433-5.63 3.532 16.039 25.673 6.108-3.844-11.436-18.277 25.556 9.478 5.519-3.456-16.069-25.658-6.154 3.894zm-35.381 27.337l-5.172 5.544 14.498 28.802 3.54-3.783-3.938-7.662 7-7.521 7.936 3.361 5.831-6.238-29.696-12.502zm12.227 13.714l-5.252 5.635-5.398-10.364 10.651 4.729zm-29.313 4.563l-5.63 6.696 10.52 21.734-22.56-7.38-4.854 5.745 23.179 19.444 3.52-4.176-16.381-13.775 21.956 7.144 2.311-2.737-10.469-20.959 16.452 13.78 5.136-6.072-23.179-19.444z" fill="#FFE500" sketch:type="MSShapeGroup"/><path d="M103.145 185.955l-.025-6.666c11.386-10.444 16.754-20.939 16.754-20.939s-4.185-1.575-6.058-3.954c-.927-1.323-1.284-3.129-1.128-4.342.363-2.274 2.135-3.426 2.739-3.688 1.309-.563 3.742-1.841 6.451 1.882 2.885 4.03 2.125 11.677 1.727 13.438 0 0-5.308 9.232-20.46 24.269" fill="url(#g)" sketch:type="MSShapeGroup"/><path d="M115.744 159.566c-1.536 2.676-5.408 9.136-15.203 18.307-1.627 1.524-5.685 2.817-7.987.236-.861-1.001-1.43-2.405-1.345-4.035.111-1.887 1.244-4.08 2.382-5.046 1.974-1.665 10.389-10.152 16.371-16.828.166 1.217 1.214 3.255 1.214 3.255.826 1.137 1.833 2.772 4.567 4.11" fill="url(#h)" sketch:type="MSShapeGroup"/><path d="M253.949 367.732c-35.894 0-76.739-21.16-106.822-55.39-3.062-3.476-6.959-7.949-16.235-7.949-5.418 0-11.562 2.898-15.636 7.38-3.067 3.33-6.506 9.202-5.68 18.202 1.193 12.296 20.697 44.116 55.458 63.877 28.019 15.923 57.936 23.967 88.915 23.967" fill="url(#i)" sketch:type="MSShapeGroup"/><path d="M253.949 367.732c35.894 0 76.739-21.16 106.822-55.39 3.062-3.476 6.959-7.949 16.235-7.949 5.418 0 11.562 2.898 15.636 7.38 3.067 3.33 6.506 9.202 5.68 18.202-1.193 12.296-20.697 44.116-55.458 63.877-28.019 15.923-57.936 23.967-88.915 23.967" fill="url(#j)" sketch:type="MSShapeGroup"/><path d="M351.603 211.587c15.311 20.418 28.273 28.125 40.726 24.961 17.998-4.578 20.233-29.325 20.475-36.816v-.297l-.201-.156c-6.345-4.392-16.96-11.672-34.746-36.861" fill="url(#k)" sketch:type="MSShapeGroup"/><path d="M156.948 211.587c-15.311 20.418-28.273 28.125-40.726 24.961-17.998-4.578-20.233-29.325-20.475-36.816v-.297l.201-.156c6.345-4.392 16.96-11.672 34.746-36.861" fill="url(#l)" sketch:type="MSShapeGroup"/><path d="M308.188 101.7c-12.066-4.035-21.185-7.179-36.046-8.497 6.849-4.749 12.927-8.769 19.916-8.769 3.676 0 6.818 1.404 7.543 3.969.675 2.334-1.168 3.351-1.823 3.195-.685-.176-1.173-.377-1.007-1.011.176-.669-.342-2.37-2.679-2.37-2.377 0-3.273 2.199-3.273 3.708 0 1.509 2.397 4.03 6.803 4.03 4.321 0 6.536-2.878 6.37-5.539 2.085 3.049 3.298 6.133 4.195 11.284" fill="url(#m)" sketch:type="MSShapeGroup"/><path d="M254.817 85.877c-.378 2.304-3.031 4.513-5.716 4.513-2.689 0-3.495-.433-3.495-.433-.408.634-.765 1.122-1.188 1.806 2.437-.096 8.092-.252 10.358-.252 2.261 0 8.53.327 9.88.423-2.18-5.106-6.385-12.175-9.291-12.175l-.383-.01c-.68 0-3.035 2.04-4.296 3.831-1.657 2.353 4.13 2.296 4.13 2.296z" fill="url(#n)" sketch:type="MSShapeGroup"/><path d="M405.407 185.955l.025-6.666c-11.386-10.444-16.754-20.939-16.754-20.939s4.185-1.575 6.058-3.954c.927-1.323 1.284-3.129 1.128-4.342-.363-2.274-2.135-3.426-2.739-3.688-1.309-.563-3.742-1.841-6.451 1.882-2.885 4.03-2.125 11.677-1.727 13.438 0 0 5.308 9.232 20.46 24.269" fill="url(#o)" sketch:type="MSShapeGroup"/><path d="M392.808 159.566c1.536 2.676 5.408 9.136 15.203 18.307 1.627 1.524 5.685 2.817 7.987.236.861-1.001 1.43-2.405 1.345-4.035-.111-1.887-1.244-4.08-2.382-5.046-1.974-1.665-10.389-10.152-16.371-16.828-.166 1.217-1.214 3.255-1.214 3.255-.826 1.137-1.833 2.772-4.567 4.11" fill="url(#p)" sketch:type="MSShapeGroup"/><path d="M186.49 183.633v141.58l67.76 43.497 67.755-43.497.101-141.363c-2.17-1.912-6.677-6.102-10.207-8.296h-115.61c-2.926 2.053-8.787 6.993-9.799 8.08z" stroke="#000" stroke-width="2.098" sketch:type="MSShapeGroup"/><path d="M303.93 417.87c-6.652 1.761-11.406 3.25-22.61 4.608 0 0 .358 1.132 2.795 1.041.932-.06 1.057-.292 1.38-.347.72-.131 1.763.599 1.657 1.811-.111.855-.826 1.917-3.313 1.917-2.488 0-5.383-2.022-6.849-3.914 0 0-1.486.347-3.031.423 0 0 4.789 6.681 14.196 6.681 10.328 0 14.175-9.262 15.777-12.22" fill="url(#q)" sketch:type="MSShapeGroup"/><path d="M78.303 272.543c0-17.08 13.873-30.97 30.99-30.97 17.121 0 30.985 13.89 30.985 30.97 0 17.11-13.863 30.97-30.985 30.97-17.116 0-30.99-13.86-30.99-30.97z" stroke="#000" stroke-width="2.098" fill="#FFE500" sketch:type="MSShapeGroup"/><path d="M85.398 271.392c0-12.95 10.697-23.481 23.895-23.481 13.202 0 23.891 10.531 23.891 23.481 0 12.973-10.689 23.481-23.891 23.481-13.198 0-23.895-10.508-23.895-23.481z" fill="url(#r)" sketch:type="MSShapeGroup"/><path d="M115.875 293.828c-1.36.433-1.949-.518-2.568-1.202-2.412-2.772-3.031-10.152-3.031-11.128 0-.981.363-2.058 1.052-2.083 5.816-.111 9.971-1.796 13.783-4.96 3.807-3.109 5.459-6.676 5.796-7.31.332-.704 1.123-.579 1.269.397.161.815.468 2.279.468 3.864 0 10.635-7.176 19.324-16.769 22.423m-6.139.961l-.509.02c-4.285 0-9.004-1.635-11.799-3.225-2.896-1.575-3.983-9-3.983-12.753 0-12.22 5.016-19.495 5.831-20.924.796-1.449 2.588-1.6 3.903-1.248l3.409 1.092c.816.267 2.473.604 3.716.825 1.244.297 2.583.558 1.778 2.878-.796 2.324-3.505 7.909-3.777 14.529-.262 5.992.534 11.943 1.888 15.601.891 2.365.891 3.25-.458 3.205m-17.706-27.896c-1.143-.604-2.518-3.552-2.981-4.412-.312-.619-.312-2.39.136-3.144 1.914-3.346 4.628-6.445 8.123-8.06.428-.186 1.027-.221 1.027.805 0 .548.297 1.404.307 1.947 0 .548.232 1.67-.463 2.556-.73.89-3.857 6.429-4.658 9.534-.131.694-.342 1.424-1.491.775m-.645 19.61c-3.243-3.2-5.554-8.995-5.554-15.098 0-2.37.353-4.638.982-6.792 0 0 .579-.966 1.083-.146.388.604.922 1.212 1.355 2.017.483.805 2.991 2.712 2.78 4.266-.876 5.71-.091 13.297.181 14.575.242 1.263-.106 1.801-.826 1.177m10.238-37.219c2.402-.795 4.965-1.243 7.604-1.243 4.013 0 7.911.729 11.164 2.802.836.543 1.073 1.177 1.073 2.118 0 3.064-4.794 4.09-7.966 4.09-3.193 0-7.12-1.263-9.9-2.143-2.77-.865-3.374-2.465-3.374-3.195 0-.699.539-2.148 1.4-2.43m21.643 3.406l1.561 1.263c2.236 2.038 4.255 4.362 5.428 7.149 1.465 3.512-3.082 8.829-4.416 10.057-6.023 5.65-9.794 5.544-11.93 5.851-2.135.312-3.52-1.026-3.465-2.631.136-4.699 3.485-12.799 4.447-14.323.614-.981 1.682-1.59 1.682-1.59 2.236-.619 4.406-1.55 5.529-2.827 1.098-1.298 1.163-2.948 1.163-2.948m-13.808-6.173c-14.397 0-26.055 11.652-26.055 26.025 0 14.383 11.658 26.03 26.055 26.03 14.387 0 26.07-11.647 26.07-26.03 0-14.373-11.683-26.025-26.07-26.025" fill="#DA020E" sketch:type="MSShapeGroup"/><path d="M368.873 272.483c0-17.08 13.873-30.92 30.99-30.92 17.126 0 30.99 13.84 30.99 30.92 0 17.11-13.863 30.975-30.99 30.975-17.116 0-30.99-13.865-30.99-30.975z" stroke="#000" stroke-width="2.098" fill="#FFE500" sketch:type="MSShapeGroup"/><path d="M418.012 286.396c-.68.669-1.063.085-.776-1.167.237-1.243 1.027-8.854.146-14.564-.217-1.55 2.306-3.451 2.77-4.266.463-.8.992-1.424 1.365-2.007.519-.845 1.068.101 1.068.101.665 2.178.987 4.457.987 6.817 0 6.123-2.342 11.898-5.559 15.088m-2.1-20.36c-.806-3.094-3.953-8.658-4.663-9.544-.715-.855-.488-1.992-.478-2.541 0-.543.312-1.414.312-1.977 0-.981.594-.961 1.017-.775 3.515 1.615 6.214 4.669 8.148 8.044.428.77.438 2.531.121 3.129-.453.865-1.818 3.813-2.986 4.437-1.168.639-1.339-.106-1.47-.775m-3.913 25.461c-2.8 1.565-7.518 3.215-11.824 3.215h-.499c-1.324.035-1.355-.885-.448-3.24 1.314-3.627 2.135-9.604 1.863-15.581-.272-6.651-2.946-12.175-3.777-14.514-.806-2.319.539-2.601 1.798-2.863 1.249-.247 2.901-.609 3.721-.87 1.541-.468 2.039-.704 3.399-1.092 1.324-.342 3.107-.171 3.918 1.243.796 1.449 5.821 8.769 5.821 20.959 0 3.733-1.098 11.148-3.973 12.743m-18.446 2.234c-9.618-3.114-16.779-11.797-16.779-22.423 0-1.565.307-3.014.433-3.859.186-.976.922-1.137 1.289-.418.337.654 2.009 4.216 5.796 7.335 3.837 3.139 7.951 4.855 13.803 4.976.71.035 1.042 1.077 1.042 2.078 0 .991-.599 8.356-3.001 11.108-.64.704-1.254 1.67-2.583 1.202m-14.372-32.711c1.143-2.787 3.172-5.152 5.408-7.144 0 0 1.108-.936 1.536-1.263 0 0 .091 1.665 1.204 2.913 1.108 1.258 3.258 2.244 5.494 2.832 0 0 1.052.639 1.682 1.62.992 1.479 4.316 9.569 4.462 14.303.04 1.61-1.329 2.948-3.47 2.641-2.145-.287-5.907-.221-11.925-5.841-1.329-1.233-5.877-6.54-4.391-10.062m9.83-10.263c3.298-2.083 7.146-2.812 11.164-2.812 2.659 0 5.187.453 7.609 1.248.891.277 1.415 1.711 1.415 2.43 0 .709-.589 2.329-3.379 3.2-2.78.855-6.692 2.133-9.88 2.133-3.208 0-7.987-1.041-7.987-4.09 0-.921.232-1.59 1.057-2.108m10.917-4.306c-14.382 0-26.045 11.657-26.045 25.995 0 14.419 11.663 26.03 26.045 26.03 14.407 0 26.07-11.611 26.07-26.03 0-14.338-11.663-25.995-26.07-25.995" fill="#DA020E" sketch:type="MSShapeGroup"/><path d="M376.322 271.277c0-12.95 10.697-23.481 23.895-23.481 13.202 0 23.891 10.531 23.891 23.481 0 12.973-10.689 23.481-23.891 23.481-13.198 0-23.895-10.508-23.895-23.481z" fill="url(#r)" sketch:type="MSShapeGroup"/></g></svg>