<svg width="512" height="512" viewBox="0 0 512 512" xmlns="http://www.w3.org/2000/svg" xmlns:sketch="http://www.bohemiancoding.com/sketch/ns"><title>swansea-city</title><desc>Created with Sketch.</desc><g sketch:type="MSShapeGroup" fill="none"><path d="M361.459 324.753s70.333-24.509 50.926-82.736c-7.746-23.241-51.429-43.993-74.386-58.818-22.965-14.83-68.8-29.62-51.378-66.324 6.075-12.799 23.772-15.718 43.406-8.11 18.993 7.36 29.322 23.692 55.363 38.342 1.876 1.056 1.745-4.906 1.408-7.031-.811-5.099-7.905-9.865-8.446-14.999-.493-4.688 7.006-10.89 4.692-14.999-5.938-10.544-25.49-18.011-42.811-23.557-35.58-11.393-69.586 6.349-79.184 25.431-18.817 37.411 7.628 73.75 59.12 100.306 41.902 21.611 79.33 32.019 73.9 71.011-2.13 15.294-32.61 41.482-32.61 41.482z" fill="#000"/><path d="M270.737 103.421s8.226-11.267 15.485-15.119c8.878-4.711 21.774-7.864 26.386-7.549 3.709.253 6.944-.579 10.609-.303 4.125.311 8.998 1.103 12.968 2.235 6.997 1.995 19.023 6.36 25.01 9.339 5.07 2.523 17.29 10.522 18.572 14.01.462 1.258-7.327-.828-9.227-1.959-6.615-3.937-8.026-5.611-14.546-8.773-7.176-3.48-20.139-9.828-29.544-10.472-5.722-.392-11.896-.55-18.587-.06-3.028.222-13.524 3.189-20.892 7.137-9.058 4.854-16.235 11.514-16.235 11.514zm6.542 30.345s18.947 27.244 30.078 34.526c17.124 11.203 36.144 20.219 52.535 30.767 13.671 8.797 35.192 18.636 43.132 32.812 5.595 9.989 7.631 37.121 7.631 37.121s-1.659-16.958-8.857-30.702c-3.031-5.788-9.735-11.671-14.174-14.979-8.324-6.204-19.974-12.393-29.079-18.308-10.316-6.702-17.072-11.264-30.021-18.046-10.27-5.379-25.148-15.601-36.429-26.756-6.581-6.508-14.816-26.434-14.816-26.434z" fill="#fff"/><path d="M91.304 294.011s47.867 12.408 72.024 8.671c41.832-6.47 63.598-57.168 92.2-76.402 6.828-4.591 26.51-7.5 26.51-7.5s-22.825-21.784-49.032-17.811c-42.089 6.38-58.877 52.793-97.126 78.745-22.502 15.268-44.575 14.296-44.575 14.296z" fill="#000"/><path d="M115.45 292.923s10.29-.167 15.515-2.305c5.965-2.44 11.886-6.167 17.061-10.7 10.973-9.611 22.349-22.374 33.112-34.633 11.295-12.864 26.288-27.708 39.202-33.938 5.171-2.494 13.197-1.851 18.939-1.821 10.113.053 33.086 4.635 33.086 4.635s-17.473-9.431-26.342-11.017c-6.794-1.215-16.451 1.027-22.641 4.077-30.626 15.087-55.408 58.179-84.214 76.497-2.604 1.656-6.622 2.835-9.495 3.963-4.233 1.663-14.224 5.242-14.224 5.242z" fill="#fff"/><path d="M140.739 322.846s47.867 12.408 72.024 8.671c41.832-6.47 63.598-57.168 92.2-76.402 6.828-4.591 26.51-7.5 26.51-7.5s-22.825-21.784-49.032-17.811c-42.089 6.38-58.877 52.793-97.126 78.745-22.502 15.268-44.575 14.296-44.575 14.296z" fill="#000"/><path d="M164.885 321.758s10.29-.167 15.515-2.305c5.965-2.44 11.886-6.167 17.061-10.7 10.973-9.611 22.349-22.374 33.112-34.633 11.295-12.864 26.288-27.708 39.202-33.938 5.171-2.494 13.197-1.851 18.939-1.821 10.113.053 33.086 4.635 33.086 4.635s-17.473-9.431-26.342-11.017c-6.794-1.215-16.451 1.027-22.641 4.077-30.626 15.087-55.408 58.179-84.214 76.497-2.604 1.656-6.622 2.835-9.495 3.963-4.233 1.663-14.224 5.242-14.224 5.242z" fill="#fff"/><path d="M188.848 351.018s47.867 12.408 72.024 8.671c41.832-6.47 63.598-57.168 92.2-76.402 6.828-4.591 26.51-7.5 26.51-7.5s-22.825-21.784-49.032-17.811c-42.089 6.38-58.877 52.793-97.126 78.745-22.502 15.268-44.575 14.296-44.575 14.296z" fill="#000"/><path d="M212.994 349.93s10.29-.167 15.515-2.305c5.965-2.44 11.886-6.167 17.061-10.7 10.973-9.611 22.349-22.374 33.112-34.633 11.295-12.864 26.288-27.708 39.202-33.938 5.171-2.494 13.197-1.851 18.939-1.821 10.113.053 33.086 4.635 33.086 4.635s-17.473-9.431-26.342-11.017c-6.794-1.215-16.451 1.027-22.641 4.077-30.626 15.087-55.408 58.179-84.214 76.497-2.604 1.656-6.622 2.835-9.495 3.963-4.233 1.663-14.224 5.242-14.224 5.242z" fill="#fff"/><path d="M72.275 334.338l3.146-2.295c.484 2.396.941 4.07 1.374 5.021.432.951.906 1.779 1.421 2.484.935 1.279 2.023 2.034 3.265 2.263 1.242.229 2.352-.013 3.33-.726.736-.537 1.277-1.225 1.622-2.063.328-.841.365-2.366.111-4.575l-.234-2.192c-.332-2.908-.272-5.068.181-6.479.453-1.411 1.269-2.547 2.449-3.407 1.059-.772 2.256-1.217 3.593-1.335 1.336-.118 2.611.103 3.823.663 1.213.559 2.342 1.554 3.387 2.985 1.259 1.723 2.3 3.75 3.124 6.083l-2.904 2.118c-.559-2.14-.997-3.57-1.314-4.288-.317-.719-.7-1.385-1.149-2-.942-1.289-1.978-1.997-3.106-2.124s-2.045.067-2.751.582c-.484.353-.869.858-1.154 1.514-.286.656-.427 1.362-.424 2.116.003.755.074 1.745.213 2.972l.263 2.264c.337 2.936.27 5.108-.2 6.516-.48 1.416-1.361 2.591-2.641 3.525-1.745 1.272-3.741 1.713-5.99 1.323-2.249-.391-4.315-1.875-6.2-4.454-.582-.796-1.092-1.605-1.531-2.428-.439-.823-1.007-2.176-1.705-4.061zm20.589 26.944l14.552-24.62 2.675 2.672-11.467 19.474 19.174-11.775 2.675 2.672-11.771 18.746 19.585-10.942 2.265 2.262-25.094 14.091-2.768-2.765 11.652-18.548-18.724 11.484-2.755-2.751zm22.878 21.79l25.161-15.984 3.155 2.282-7.49 28.768-3.443-2.491 2.062-7.979-9.51-6.88-6.976 4.424-2.958-2.14zm12.573-3.978l7.66 5.541 3.186-12.432-10.846 6.891zm16.122 23.712l12.824-24.546 3.42 1.783 2.465 25.406 9.904-18.957 2.988 1.558-12.824 24.546-3.404-1.774-2.481-25.414-9.904 18.957-2.988-1.558zm28.293 13.263l1.339-3.654c1.735 1.724 3.047 2.861 3.935 3.411.888.551 1.743.976 2.564 1.276 1.489.545 2.813.567 3.974.068 1.16-.499 1.948-1.316 2.365-2.452.313-.855.38-1.727.201-2.616-.195-.882-1.013-2.17-2.453-3.865l-1.414-1.693c-1.894-2.233-3.045-4.062-3.454-5.487-.409-1.424-.362-2.822.14-4.192.451-1.23 1.199-2.264 2.244-3.104 1.046-.84 2.228-1.363 3.547-1.572 1.319-.208 2.811-.008 4.476.601 2.005.733 3.999 1.841 5.982 3.323l-1.236 3.373c-1.656-1.469-2.815-2.414-3.478-2.836-.663-.422-1.352-.763-2.067-1.025-1.501-.549-2.755-.563-3.764-.042-1.009.521-1.663 1.191-1.964 2.011-.206.562-.245 1.195-.118 1.899.128.704.402 1.369.824 1.995.422.626 1.032 1.41 1.83 2.353l1.478 1.736c1.913 2.254 3.066 4.096 3.459 5.528.388 1.444.31 2.909-.235 4.397-.743 2.026-2.157 3.501-4.244 4.425-2.087.924-4.631.837-7.632-.261-.926-.339-1.801-.728-2.623-1.168-.823-.44-2.048-1.25-3.676-2.43zm25.118 9.066l6.577-26.897 15.045 3.671-.698 2.853-11.225-2.739-2.111 8.633 9.406 2.295-.689 2.817-9.406-2.295-2.382 9.741 12.007 2.93-.698 2.853-15.828-3.862zm23.541 5.44l13.856-26.375 3.874.41 7.841 28.674-4.228-.448-2.188-7.945-11.677-1.237-3.846 7.306-3.632-.385zm8.921-9.703l9.405.997-3.433-12.367-5.972 11.37zm60.899 8.683c-1.072.696-2.038 1.228-2.899 1.597-.86.368-1.762.665-2.706.891-.944.226-1.974.395-3.092.507-4.646.465-8.184-.567-10.615-3.094-2.43-2.527-3.853-5.863-4.268-10.008-.424-4.232.346-7.815 2.311-10.751 1.964-2.935 5.257-4.634 9.879-5.096 2.46-.246 5.389-.131 8.786.344l.367 3.667c-2.879-.677-4.851-1.05-5.919-1.119-1.067-.069-2.073-.056-3.017.038-3.305.33-5.587 1.69-6.847 4.078-1.26 2.389-1.727 5.208-1.401 8.46.339 3.388 1.468 6.042 3.386 7.962 1.918 1.92 4.442 2.724 7.572 2.411.87-.087 1.728-.251 2.576-.493.848-.241 1.685-.557 2.512-.947.827-.39 1.839-.989 3.038-1.799l.336 3.351zm12.621-1.103l-5.931-27.047 3.842-.841 5.931 27.047-3.842.841zm20.751-5.403l-7.607-23.556-9.357 3.016-.903-2.795 22.457-7.237.903 2.795-9.357 3.016 7.607 23.556-3.743 1.206zm28.587-11.146l-5.052-10.402-15.371-10.475 4.044-1.96 11.931 8.108 1.515-14.625 3.286-1.593-1.899 18.762 5.085 10.469-3.538 1.715zm30.374-16.901l-8.08-28.672 3.096-2.361 25.423 15.447-3.379 2.577-7.056-4.269-9.334 7.118 2.233 7.947-2.903 2.214zm-.195-13.173l7.517-5.733-11.001-6.627 3.484 12.359zm26.956-8.396l-19.452-19.725 11.033-10.858 2.063 2.092-8.232 8.101 6.519 6.61 6.911-6.801 2.037 2.066-6.911 6.801 8.832 8.956-2.802 2.757zm30.173-36.518c-.232 1.256-.511 2.323-.836 3.199-.325.877-.73 1.735-1.216 2.574-.485.839-1.072 1.702-1.761 2.589-2.861 3.686-6.046 5.54-9.554 5.561-3.508.021-6.91-1.244-10.205-3.797-3.365-2.606-5.436-5.631-6.215-9.075-.779-3.444.255-6.999 3.1-10.666 1.515-1.952 3.614-3.995 6.298-6.13l2.916 2.258c-2.473 1.619-4.102 2.792-4.887 3.518-.785.726-1.468 1.463-2.049 2.212-2.035 2.622-2.619 5.211-1.752 7.769.867 2.557 2.593 4.837 5.178 6.839 2.694 2.086 5.398 3.096 8.112 3.028 2.714-.068 5.036-1.343 6.963-3.827.536-.69 1.007-1.425 1.416-2.206.408-.781.756-1.605 1.042-2.472.286-.867.548-2.014.786-3.44l2.664 2.063z" stroke="#000" fill="#000"/></g></svg>