<?xml version="1.0" encoding="UTF-8" standalone="no"?>
<svg width="512px" height="512px" viewBox="0 0 512 512" version="1.1" xmlns="http://www.w3.org/2000/svg" xmlns:xlink="http://www.w3.org/1999/xlink" xmlns:sketch="http://www.bohemiancoding.com/sketch/ns">
    <!-- Generator: Sketch 3.3.1 (12002) - http://www.bohemiancoding.com/sketch -->
    <title>mlb</title>
    <desc>Created with Sketch.</desc>
    <defs></defs>
    <g id="Leagues" stroke="none" stroke-width="1" fill="none" fill-rule="evenodd" sketch:type="MSPage">
        <g id="mlb" sketch:type="MSArtboardGroup">
            <g sketch:type="MSLayerGroup" transform="translate(53.000000, 133.000000)">
                <path d="M70.2039621,11.8405174 C57.8919894,11.8405174 47.9802012,21.7699903 47.9802012,34.1038923 L47.9802012,180.751956 C47.9802012,193.085896 57.8919894,203.015369 70.2039621,203.015369 L328.841803,203.015369 L382.42561,181.243685 L367.061871,11.9394917 L70.2039621,11.8404797 L70.2039621,11.8405174 Z" id="path2475" fill="#FFFFFF" sketch:type="MSShapeGroup"></path>
                <path d="M364.313713,11.8405174 C376.625667,11.8405174 386.537456,21.7699903 386.537456,34.1038923 L386.537456,180.751956 C386.537456,193.085896 376.625667,203.015369 364.313713,203.015369 L323.731211,203.015369 L324.317122,186.660074 C347.089515,187.805338 362.172681,184.956352 370.537504,175.722373 C370.586546,171.779079 373.614675,165.134432 367.578935,153.936966 C364.272751,147.803361 360.275976,140.30371 346.858905,131.133693 C346.154203,120.956578 340.679872,116.068472 336.745631,111.255999 C332.344193,105.872005 329.262531,101.069773 324.73971,98.8428123 L271.614023,11.9394917 L364.313713,11.8404797 L364.313713,11.8405174 Z" id="rect2470" fill="#FA012D" sketch:type="MSShapeGroup"></path>
                <path d="M41.7278501,11.8405174 C29.4158963,11.8405174 19.5040892,21.7699903 19.5040892,34.1038923 L19.5040892,180.751956 C19.5040892,193.085896 29.4158963,203.015369 41.7278501,203.015369 L172.65471,203.015369 C171.200455,198.008204 167.147723,187.219021 163.545689,187.198541 C160.66386,186.952348 149.710783,188.318713 147.80893,186.226812 C156.097634,125.142733 166.757191,129.649022 177.52449,121.705944 C179.486321,120.258712 176.182561,118.460383 177.487285,116.622299 C179.107025,114.340317 175.714952,112.088095 176.943332,109.874349 C178.821285,106.489927 163.956853,110.372308 165.132302,107.015274 C167.434309,100.440783 170.126134,96.1570272 171.763555,90.5067926 C173.121042,85.8226404 171.619435,87.9783537 171.627515,85.8666123 C171.638789,82.7066236 147.814135,87.5848281 148.542587,84.5790986 C149.881622,79.0542479 169.341067,73.5495196 169.077837,68.0884056 C167.889723,43.438352 188.389779,30.5839028 202.98027,31.0490334 C228.582332,30.6050605 235.746958,33.4040695 244.991099,50.2515446 C251.083603,62.4325616 258.349358,82.6551788 245.344633,88.2949662 C246.146893,94.2244861 247.509623,99.311764 250.869227,101.398395 C255.415724,101.232559 257.171128,101.63241 261.003884,101.621981 C288.089758,101.548193 300.699027,103.701327 307.145705,108.122401 L308.856369,96.8928595 L244.096955,11.9394917 L41.7279065,11.8404797 L41.7278501,11.8405174 Z" id="path2473" fill="#092668" sketch:type="MSShapeGroup"></path>
                <path d="M19.4625444,234.660846 L19.4625444,209.195261 L25.7747043,209.195261 L28.7858096,222.761995 C28.949283,223.495662 29.101783,224.378318 29.2430466,225.410001 C29.3843478,226.441702 29.5218345,227.656801 29.6556761,229.055318 C29.7449288,227.714119 29.8601306,226.527669 30.0013942,225.495968 C30.1426953,224.464304 30.3173676,223.564425 30.5255614,222.796385 L33.8489009,209.195261 L39.915719,209.195261 L39.915719,234.660846 L35.8340132,234.660846 C35.8043249,233.892788 35.7857227,233.070311 35.7782067,232.193377 C35.7706907,231.316443 35.7669327,230.035423 35.7669327,228.350318 C35.7669139,225.037463 35.8264971,221.979649 35.9454381,219.176875 C36.0643791,216.374121 36.2502503,213.797776 36.5030516,211.447803 L30.7931129,234.660846 L28.3619248,234.660846 L23.1203844,211.447803 C23.2690137,214.737768 23.380589,218.302822 23.4549412,222.142981 C23.5293498,225.983179 23.5663662,230.155781 23.5665541,234.660846 L19.4625257,234.660846 L19.4625444,234.660846 Z M49.6181673,226.132186 L53.5883543,226.132186 L51.7816911,211.344631 L51.5363494,211.344631 L49.6181673,226.132186 L49.6181673,226.132186 Z M43.5959568,234.660846 L48.436029,209.195261 L54.7927964,209.195261 L59.8559065,234.660846 L54.8820115,234.660846 L54.0567526,229.519582 L49.1720728,229.519582 L48.3914214,234.660846 L43.5959568,234.660846 L43.5959568,234.660846 Z M60.7480768,234.832705 L60.7480768,231.32497 C61.0454857,231.405158 61.3391554,231.465394 61.6291046,231.505488 C61.9190726,231.545582 62.1978794,231.565724 62.4655248,231.565724 C63.4766737,231.565724 64.1866933,231.284895 64.5956023,230.72318 C65.0045114,230.161485 65.2089847,229.112598 65.2089847,227.576519 L65.2089847,209.195224 L70.0490569,209.195224 L70.0490569,228.075174 C70.0490381,230.597081 69.5360322,232.396822 68.5100392,233.47434 C67.4840274,234.551895 65.7889019,235.090664 63.4246253,235.090664 C62.9933937,235.090664 62.5547588,235.067699 62.1086642,235.021958 C61.6625885,234.976028 61.2090531,234.912969 60.7480768,234.832818 L60.7480768,234.832818 L60.7480768,234.832705 Z M80.3760113,215.780802 L80.3760113,228.075136 C80.3760113,229.416335 80.6139121,230.390718 81.0897513,230.998249 C81.5655717,231.605799 82.3164972,231.909574 83.342509,231.909574 C84.368502,231.909574 85.1194087,231.605799 85.5952667,230.998249 C86.0710683,230.390718 86.3089879,229.416335 86.3090067,228.075136 L86.3090067,215.780802 C86.3089879,214.439641 86.0710683,213.465257 85.5952667,212.857708 C85.1194087,212.250158 84.368502,211.946383 83.342509,211.946364 C82.3164972,211.946383 81.5655717,212.250158 81.0897513,212.857708 C80.6139121,213.465257 80.3760113,214.439641 80.3760113,215.780802 L80.3760113,215.780802 L80.3760113,215.780802 Z M75.4021163,217.792609 C75.4021163,214.571462 76.0229207,212.253038 77.2645483,210.837298 C78.5061384,209.421615 80.5321378,208.713754 83.342509,208.713735 C86.1379797,208.713754 88.1602587,209.424476 89.4093083,210.8459 C90.658358,212.267363 91.2828829,214.582926 91.2829017,217.792609 L91.2829017,226.063348 C91.2828829,229.284495 90.658358,231.605799 89.4093083,233.027242 C88.1602587,234.448686 86.1379797,235.159407 83.342509,235.159407 C80.5321378,235.159407 78.5061384,234.448686 77.2645483,233.027242 C76.0229207,231.605799 75.4021163,229.284495 75.4021163,226.063348 L75.4021163,217.792609 L75.4021163,217.792609 Z M101.431426,220.68135 L102.613564,220.68135 C104.278945,220.681368 105.427618,220.377594 106.059584,219.770025 C106.69155,219.162475 107.007504,218.044826 107.007523,216.41702 C107.007504,214.938296 106.710133,213.906614 106.115353,213.321953 C105.520554,212.73735 104.494542,212.445038 103.037336,212.445001 L101.431426,212.445001 L101.431426,220.68135 L101.431426,220.68135 Z M96.5467459,234.660771 L96.5467459,209.195186 L101.944432,209.195186 C105.780777,209.195224 108.41268,209.731112 109.840198,210.802907 C111.267659,211.874741 111.981399,213.814886 111.981418,216.623364 C111.981399,218.342859 111.672867,219.727051 111.055783,220.775919 C110.43868,221.824825 109.468437,222.612912 108.145073,223.140217 L112.494424,234.660771 L107.453618,234.660771 L103.572646,223.948369 L101.431426,223.948369 L101.431426,234.660771 L96.5467459,234.660771 L96.5467459,234.660771 Z M125.453319,234.660771 L125.453319,209.195186 L130.33798,209.195186 L130.33798,231.135812 L139.282081,231.135812 L139.282081,234.660771 L125.453319,234.660771 L125.453319,234.660771 Z M141.958611,234.660771 L141.958611,209.195186 L155.029025,209.195186 L155.029025,212.616973 L146.84329,212.616973 L146.84329,219.666853 L153.244665,219.666853 L153.244665,223.140217 L146.84329,223.140217 L146.84329,231.238984 L155.787372,231.238984 L155.787372,234.660771 L141.958611,234.660771 L141.958611,234.660771 Z M163.014025,226.132111 L166.984212,226.132111 L165.177568,211.344556 L164.932207,211.344556 L163.014025,226.132111 L163.014025,226.132111 Z M156.991814,234.660771 L161.831887,209.195186 L168.188654,209.195186 L173.251764,234.660771 L168.277888,234.660771 L167.45261,229.519507 L162.56793,229.519507 L161.787279,234.660771 L156.991814,234.660771 L156.991814,234.660771 Z M192.009832,234.660771 L189.690163,234.660771 L188.508025,232.786526 C187.838873,233.497229 187.047061,234.033136 186.132606,234.394229 C185.218113,234.75534 184.210684,234.935877 183.110339,234.935877 C180.686573,234.935877 178.917095,234.228017 177.801887,232.812315 C176.68666,231.396613 176.129047,229.146951 176.129047,226.063348 L176.129047,217.792609 C176.129047,214.571462 176.749851,212.253038 177.991479,210.837298 C179.233069,209.421615 181.259068,208.713754 184.069439,208.713735 C186.671617,208.713754 188.645549,209.378622 189.991274,210.708338 C191.33696,212.038092 192.009813,213.975376 192.009832,216.520192 L192.009832,217.448702 L187.035937,217.448702 L187.035937,215.780802 C187.035918,214.439641 186.797999,213.465257 186.322197,212.857708 C185.846339,212.250158 185.095432,211.946383 184.069439,211.946364 C183.043428,211.946383 182.292502,212.250158 181.816682,212.857708 C181.340843,213.465257 181.102942,214.439641 181.102942,215.780802 L181.102942,227.937574 C181.102942,229.278791 181.340843,230.253156 181.816682,230.860705 C182.292502,231.468236 183.043428,231.77203 184.069439,231.77203 C185.095432,231.77203 185.846339,231.468236 186.322197,230.860705 C186.797999,230.253156 187.035918,229.278791 187.035937,227.937574 L187.035937,224.980052 L184.4263,224.980052 L184.4263,221.798999 L192.009832,221.798999 L192.009832,234.660771 L192.009832,234.660771 Z M197.095227,226.699547 L197.095227,209.195186 L201.979907,209.195186 L201.979907,227.731249 C201.979907,229.129746 202.195504,230.129918 202.626736,230.731726 C203.057949,231.333554 203.756807,231.634467 204.723348,231.634467 C205.689871,231.634467 206.388748,231.333554 206.819979,230.731726 C207.251192,230.129918 207.466789,229.129746 207.466808,227.731249 L207.466808,209.195186 L212.306861,209.195186 L212.306861,226.699547 C212.306843,229.760223 211.723224,231.92964 210.555967,233.207798 C209.388692,234.485937 207.444485,235.125017 204.723348,235.125017 C201.987329,235.125017 200.03198,234.485937 198.857264,233.207798 C197.682585,231.92964 197.095227,229.760223 197.095227,226.699547 L197.095227,226.699547 L197.095227,226.699547 Z M217.882996,234.660771 L217.882996,209.195186 L230.95341,209.195186 L230.95341,212.616973 L222.767676,212.616973 L222.767676,219.666853 L229.169051,219.666853 L229.169051,223.140217 L222.767676,223.140217 L222.767676,231.238984 L231.711758,231.238984 L231.711758,234.660771 L217.882996,234.660771 L217.882996,234.660771 Z M248.81927,219.838806 L250.291358,219.838806 C251.822916,219.838825 252.897256,219.560839 253.51434,219.004847 C254.131443,218.448893 254.439994,217.460203 254.439994,216.038741 C254.439994,214.674634 254.138865,213.728919 253.536662,213.201577 C252.934423,212.674309 251.882387,212.410648 250.380573,212.410629 L248.81927,212.410629 L248.81927,219.838806 L248.81927,219.838806 Z M248.81927,231.393733 L250.559022,231.393733 C252.164933,231.393733 253.287582,231.075633 253.926988,230.439415 C254.566357,229.803216 254.886051,228.6655 254.88607,227.026249 C254.886051,225.593342 254.570078,224.593189 253.938149,224.025753 C253.306165,223.458335 252.179795,223.174607 250.559022,223.174607 L248.81927,223.174607 L248.81927,231.393733 L248.81927,231.393733 Z M243.934609,234.660771 L243.934609,209.195186 L250.046016,209.195186 C253.584972,209.195224 256.031041,209.682397 257.384169,210.656742 C258.737297,211.631145 259.41387,213.350641 259.413889,215.815211 C259.41387,217.385681 259.157367,218.60366 258.64438,219.469111 C258.131355,220.334601 257.294954,220.962197 256.13512,221.351958 C257.428758,221.7417 258.376716,222.41517 258.978956,223.372349 C259.581158,224.329528 259.88225,225.639197 259.882269,227.301356 C259.88225,229.903527 259.131343,231.780632 257.62953,232.932691 C256.127679,234.084732 253.681609,234.660771 250.291358,234.660771 L243.934609,234.660771 L243.934609,234.660771 Z M268.291041,226.132111 L272.261247,226.132111 L270.454602,211.344556 L270.209223,211.344556 L268.291041,226.132111 L268.291041,226.132111 Z M262.268849,234.660771 L267.108921,209.195186 L273.465689,209.195186 L278.528799,234.660771 L273.554904,234.660771 L272.729626,229.519507 L267.844965,229.519507 L267.064314,234.660771 L262.268849,234.660771 L262.268849,234.660771 Z M279.978601,228.040746 L284.640225,227.5077 L284.640225,227.731249 C284.640225,229.106819 284.870703,230.141381 285.331661,230.834898 C285.792637,231.528434 286.491495,231.875202 287.428292,231.875202 C288.24611,231.875202 288.878057,231.631606 289.32417,231.144414 C289.770246,230.657223 289.993284,229.960844 289.993303,229.055242 C289.993284,228.436229 289.840915,227.825818 289.536066,227.223991 C289.231216,226.622164 288.759097,225.977362 288.119728,225.289568 C287.510066,224.659091 286.469191,223.66466 284.997104,222.306257 C283.524998,220.947873 282.536171,219.913329 282.030606,219.202588 C281.465552,218.400177 281.04178,217.629276 280.759253,216.889887 C280.476726,216.150534 280.335462,215.442655 280.335481,214.766324 C280.335462,212.897821 280.960006,211.416217 282.209055,210.321438 C283.458105,209.226734 285.138349,208.679364 287.249862,208.679345 C289.405926,208.679364 291.108511,209.235337 292.357579,210.347245 C293.60661,211.45921 294.275724,213.02392 294.364977,215.041449 L289.948695,215.471304 C289.874287,214.256224 289.621542,213.370706 289.190348,212.814715 C288.759097,212.25876 288.112287,211.980793 287.249862,211.980755 C286.610436,211.980793 286.082567,212.201442 285.666236,212.642742 C285.249886,213.084118 285.041693,213.648693 285.041693,214.33645 C285.041693,214.944018 285.246166,215.614627 285.655075,216.348257 C286.063984,217.081906 286.640181,217.809813 287.383684,218.531999 C287.666193,218.807124 288.089984,219.208348 288.655038,219.735634 C290.662416,221.638528 292.015563,223.008395 292.71444,223.845197 C293.383554,224.636164 293.881697,225.461521 294.20885,226.321269 C294.535966,227.180998 294.699533,228.092322 294.699552,229.055242 C294.699533,230.854964 294.02296,232.322262 292.669832,233.457116 C291.316686,234.59199 289.569512,235.159407 287.428292,235.159407 C285.212701,235.159407 283.461807,234.546116 282.17559,233.319554 C280.889355,232.093009 280.157032,230.333401 279.978601,228.040746 L279.978601,228.040746 L279.978601,228.040746 Z M298.268252,234.660771 L298.268252,209.195186 L311.338648,209.195186 L311.338648,212.616973 L303.152913,212.616973 L303.152913,219.666853 L309.554288,219.666853 L309.554288,223.140217 L303.152913,223.140217 L303.152913,231.238984 L312.097014,231.238984 L312.097014,234.660771 L298.268252,234.660771 L298.268252,234.660771 Z M320.104318,219.838806 L321.576424,219.838806 C323.107982,219.838825 324.182303,219.560839 324.799406,219.004847 C325.416471,218.448893 325.725023,217.460203 325.725042,216.038741 C325.725023,214.674634 325.423912,213.728919 324.82171,213.201577 C324.219489,212.674309 323.167453,212.410648 321.66564,212.410629 L320.104318,212.410629 L320.104318,219.838806 L320.104318,219.838806 Z M320.104318,231.393733 L321.84407,231.393733 C323.44998,231.393733 324.572648,231.075633 325.212036,230.439415 C325.851423,229.803216 326.171136,228.6655 326.171136,227.026249 C326.171136,225.593342 325.855144,224.593189 325.223197,224.025753 C324.591231,223.458335 323.464843,223.174607 321.84407,223.174607 L320.104318,223.174607 L320.104318,231.393733 L320.104318,231.393733 Z M315.219638,234.660771 L315.219638,209.195186 L321.331064,209.195186 C324.870019,209.195224 327.31607,209.682397 328.669236,210.656742 C330.022345,211.631145 330.698918,213.350641 330.698937,215.815211 C330.698918,217.385681 330.442434,218.60366 329.929447,219.469111 C329.416422,220.334601 328.580002,220.962197 327.420186,221.351958 C328.713824,221.7417 329.661763,222.41517 330.264003,223.372349 C330.866206,224.329528 331.167316,225.639197 331.167335,227.301356 C331.167316,229.903527 330.416391,231.780632 328.914577,232.932691 C327.412745,234.084732 324.966675,234.660771 321.576424,234.660771 L315.219638,234.660771 L315.219638,234.660771 Z M339.576088,226.132111 L343.546275,226.132111 L341.739631,211.344556 L341.49427,211.344556 L339.576088,226.132111 L339.576088,226.132111 Z M333.553878,234.660771 L338.39395,209.195186 L344.750717,209.195186 L349.813828,234.660771 L344.839933,234.660771 L344.014674,229.519507 L339.129994,229.519507 L338.349342,234.660771 L333.553878,234.660771 L333.553878,234.660771 Z M353.048008,234.660771 L353.048008,209.195186 L357.932688,209.195186 L357.932688,231.135812 L366.87677,231.135812 L366.87677,234.660771 L353.048008,234.660771 L353.048008,234.660771 Z M369.553281,234.660771 L369.553281,209.195186 L374.43798,209.195186 L374.43798,231.135812 L383.382061,231.135812 L383.382061,234.660771 L369.553281,234.660771 L369.553281,234.660771 Z" id="text2477" fill="#FA012D" sketch:type="MSShapeGroup"></path>
                <path d="M78.6360716,157.309492 C78.6360716,165.435223 72.0605971,172.02243 63.9493383,172.02243 C55.8380796,172.02243 49.2626051,165.435223 49.2626051,157.309492 C49.2626051,149.18376 55.8380796,142.596554 63.9493383,142.596554 C72.0605971,142.596554 78.6360716,149.18376 78.6360716,157.309492 L78.6360716,157.309492 Z" id="path2529" fill="#FFFFFF" sketch:type="MSShapeGroup"></path>
            </g>
        </g>
    </g>
</svg>