<svg width="512" height="512" viewBox="0 0 512 512" xmlns="http://www.w3.org/2000/svg"><title>oklahoma-city-thunder</title><g fill="none" fill-rule="evenodd"><path d="M137.072 228.823l10.085-4.91-42.563-86.928 10.088-4.892-4.918-10.058-30.26 14.708 4.916 10.05 10.098-4.898 42.554 86.928zm22.385-10.92l10.673-3.46-15-45.987 10.675-3.46 15 45.994 10.677-3.452-33.47-102.623-10.67 3.455 14.998 45.995-10.674 3.456-15-45.99-10.68 3.46 33.47 102.62zM215.86 94l-11.095 1.746 15.19 95.524-11.09 1.745-15.18-95.523-11.092 1.76 14.452 90.894c1.45 9.106 10.127 15.383 19.265 13.938 9.137-1.438 15.438-10.085 13.998-19.19L215.86 94zm23.644 105.82l11.226.19.545-31.272c.167-9.52-.403-28.72-.857-37.806l.303.01c2.92 24.083 8.29 46.545 11.84 69.275l10.61.19 1.9-107.887-11.22-.188-.54 31.267c-.162 9.52.408 28.73.846 37.8l-.295-.01c-2.92-24.08-8.29-46.54-11.83-69.27l-10.62-.2-1.89 107.887zm41.904.803l22.184 3.496c6.14.97 11.86-3.18 12.838-9.3l13.433-84.48c.965-6.13-3.186-11.83-9.336-12.8l-22.164-3.5-16.955 106.57zm26.28-93.778l11.088 1.75-13.424 84.48-11.095-1.757 13.432-84.473zm78.964 8.674l-21.346-6.91c-5.91-1.92-12.224 1.28-14.147 7.18l-26.54 81.34c-1.92 5.89 1.3 12.18 7.2 14.09l21.35 6.91 3.463-10.63-21.35-6.92 11.534-35.356 16.02 5.184 3.46-10.624-16.01-5.19 11.52-35.356 21.367 6.91 3.462-10.64zm-28.43 104.9l47.613-97.25 20.213 9.834c5.615 2.724 7.92 9.406 5.19 14.99L413.7 183.84c-2.273 4.63-6.202 6.6-10.63 4.444l-12.04 48.083-10.116-4.915 12.047-48.096-3.28-1.595-21.34 43.58-10.11-4.91zm52.78-82.25l-16.397 33.5 10.12 4.92 16.4-33.51-10.125-4.9z" fill="#002D62"/><path d="M145.546 378.396c-1.142-.09-2.247-.286-3.344-.57-11.306-4.895-5.443-16.576-2.07-24.19 4.365-9.774 8.845-19.502 13.456-29.173-24.458 7.626-48.277 15.63-71.337 23.98-5.78 2.444-9.29-1.413-2.62-5.336 23.43-14.853 49.32-28.407 77.21-40.285-6.81-14.19-12.29-29.354-16.33-45.564l-3.19-12.822c40.504-20.778 74.738-32.26 120.738-32.26 45.99.004 80.227 11.486 120.735 32.264-.755 3.08-1.543 6.153-2.362 9.22 20.148-.7 39.77-.295 58.648 1.17 4.52.308 4.52 5.487.185 5.94-20.995 2.955-42.37 6.383-64.03 10.298-1.35 4.14-2.784 8.19-4.29 12.165 23.1-4.888 45.743-8.185 67.66-9.917 5.64-.512 5.71 4.866 1.127 5.84-25.634 7.832-51.746 16.502-78.177 26-22.49 46.35-55.502 77.362-99.495 103.635-19.55-11.69-37.373-24.66-53.73-40.49-36.124 16.81-70.715 34.4-103.47 52.45-4.95 3.12-9.412.418-3.44-4.86 14.784-12.992 30.88-25.55 48.15-37.48" fill="#FFF"/><path d="M99.386 418.138c20.794-18.314 44.224-35.73 69.9-51.76 4.827-2.443 9.664-4.85 14.51-7.248 2.002-.983 5.92-2.878 10.846-5.232 3.303 3.702 6.732 7.3 10.283 10.798-36.873 17.14-72.16 35.03-105.54 53.442m262.74-130.808c24.847-5.5 49.196-9.168 72.702-11.032-26.05 7.955-52.59 16.785-79.477 26.467 2.403-4.985 4.642-10.134 6.774-15.435" fill="#007DC3"/><path d="M81.227 345.634c24.126-15.282 50.85-29.196 79.7-41.28.956 1.924 1.95 3.838 2.958 5.725-1.553 3.16-3.094 6.31-4.625 9.49-26.82 8.24-52.86 16.94-78.033 26.06m291.196-88.83c21.474-.91 42.348-.55 62.404 1.01-21.594 3.04-43.596 6.58-65.916 10.63 1.23-3.81 2.4-7.68 3.52-11.64" fill="#F05133"/><path d="M258.04 222.596c40.667 0 72.556 9.476 108.557 27.353-17.617 66.13-49.847 110.56-108.55 146.65-22.047-13.59-40.795-28.75-56.46-46.01 6.962-3.3 14.818-7.02 21.72-10.27 2.798.25 5.47.392 7.965.45-.153 3.812-1.358 6.61-3.287 8.612 1.124 1.283 2.266 2.556 3.41 3.813 3.04-2.71 4.998-6.717 5.155-12.4 7.14-.12 14.032-.84 20.434-2.206-.363 10.43-1.82 18.1-4.797 21.14-.105.093-.164.176-.21.27-.746.79-1.413 1.44-1.984 1.944 2.876-.53 5.703-1.19 8.495-1.975 3.586-7.4 3.64-20.373 3.692-22.624 6.662-1.667 12.59-3.347 17.927-5.163.21 6.086 2.65 11.902 7.318 14.045 2.102-1.47 4.14-3.04 6.115-4.668-1.18.175-8.575.686-8.46-11.143 15.622-5.87 25.79-12.948 34.74-23.505 2.362-5.32 4.268-10.9 5.623-16.673-10.713 16.82-20.573 26.65-39.833 34.35.558-3.39 1.55-7.457 3.13-12.306 5.62-2.35 11.486-5.142 15.01-6.593l8.424-8.81c2.12-8.147 4.22-16.293 6.323-24.437l-6.584 2.042 7.74-8.11c1.62-6.375 3.224-12.757 4.82-19.134-3.88.566-7.764 1.14-11.64 1.74.647-3.185 1.106-6.345 1.356-9.5-1.87-.47-3.75-.914-5.63-1.337-.4 3.543-1.09 7.47-2.14 11.847l-.54.09c-3.64.606-7.37 1.792-10.6 4.517l1.03-3.14c-6.24 1.124-12.46 2.265-18.68 3.47l-6.198 6.483.206-.525 2.01-5.184c-6.154 1.253-12.3 2.548-18.44 3.88-1.285-8.265-2.564-15.736-3.685-21.78-1.74.205-3.48.438-5.214.688 1.124 6.126 2.44 13.77 3.736 22.237l-4.348.97-5.537 5.804c-3.875-4.08-11.743-1.513-16.7-.265-5.37 1.353-10.75 2.75-16.103 4.192-1.606.44-3.2.925-4.76 1.46-4.024-5.78-7.798-11.73-10.915-18.14l-.57-1.19c-1.62.665-3.238 1.34-4.84 2.044l.69 1.424c3.033 6.265 6.693 12.13 10.64 17.81-5.786 2.564-11.13 6.126-15.76 11.21 0 0-7.527 7.85-8.405 8.81-1.956 2.24-3.642 4.615-5.125 7.042-7.9-15.845-14.166-33.08-18.86-51.953 36.003-17.88 67.902-27.375 108.585-27.366zm3.98 100.113c3.74-1.65 7.477-3.27 11.202-4.9l1.756-1.82c.74.12 1.586.15 2.537.05 1.45-.24 3.23-.74 5.167-1.41-1.257 4.57-2.014 8.51-2.366 11.95-5.32 1.88-11.29 3.64-18.082 5.35-.01-2.96-.08-6.04-.213-9.23zm-25.898 11.62l3.51-1.63 9.012-7.22 2.007-5.527c1.31 2.627 2.02 3.66 3.31 6.31l2.96-1.305c.11 2.85.16 5.612.16 8.256-6.51 1.48-13.53 2.276-20.782 2.39l-.162-1.285z" fill="#FFF"/><path d="M279.95 236.132c8.6 0 17.067.45 25.437 1.348 6.353 1.326 12.658 2.93 18.905 4.81 2.384 8.312 3.668 17.092 3.668 26.165 0 7.503-.867 14.79-2.517 21.797-10.712 16.824-20.573 26.653-39.832 34.353.56-3.39 1.55-7.458 3.13-12.307 5.62-2.35 11.49-5.143 15.01-6.594l8.43-8.81c2.12-8.146 4.22-16.292 6.326-24.437l-6.584 2.044 7.74-8.11c1.62-6.37 3.224-12.75 4.82-19.13-3.88.57-7.764 1.14-11.64 1.74.647-3.18 1.106-6.34 1.356-9.5-1.865-.47-3.742-.91-5.63-1.34-.4 3.55-1.09 7.48-2.14 11.85l-.54.09c-3.64.61-7.36 1.8-10.6 4.52l1.038-3.14c-6.237 1.13-12.457 2.27-18.682 3.47l-6.192 6.49.208-.52 2.01-5.187c-6.154 1.25-12.3 2.546-18.44 3.878-1.285-8.262-2.564-15.733-3.685-21.775 9.324-1.123 18.79-1.686 28.424-1.686zm39.87 70.794c-6 13.493-15.05 25.323-26.28 34.65-1.18.17-8.575.682-8.46-11.147 15.622-5.88 25.79-12.95 34.74-23.51zm-32.395 39.317c-8.7 6.106-18.448 10.79-28.936 13.738 3.58-7.4 3.63-20.37 3.69-22.62 6.66-1.66 12.59-3.34 17.93-5.16.2 6.09 2.64 11.91 7.31 14.05zm-37.43 15.712c-2.93.538-5.918.943-8.93 1.213-3.33-3.226-6.555-6.555-9.668-9.956 3.04-2.71 4.998-6.717 5.155-12.403 7.14-.12 14.03-.85 20.434-2.21-.363 10.43-1.82 18.1-4.798 21.14-.104.09-.163.17-.21.27-.747.79-1.413 1.43-1.983 1.94zm-22.01-12.557c-2.306-2.644-4.563-5.343-6.755-8.088l2.08-.978c2.797.256 5.47.398 7.963.455-.153 3.812-1.358 6.61-3.288 8.61zm-41.34-67.882c-2.913-7.35-5.485-14.89-7.694-22.59 2.43-1.147 4.88-2.244 7.33-3.302l.69 1.424c3.04 6.266 6.7 12.127 10.64 17.81-3.873 1.72-7.55 3.886-10.95 6.658zm4.47-27.938c17.93-7.313 36.268-12.35 55.196-15.07 1.13 6.122 2.44 13.77 3.74 22.234l-4.35.97-5.53 5.807c-3.87-4.09-11.74-1.52-16.7-.27-5.37 1.36-10.742 2.75-16.1 4.19-1.602.44-3.2.922-4.76 1.46-4.02-5.78-7.794-11.73-10.91-18.14l-.57-1.196zm70.906 69.13c3.74-1.647 7.48-3.264 11.21-4.896l1.76-1.82c.74.123 1.588.15 2.54.052 1.45-.242 3.23-.74 5.166-1.41-1.257 4.57-2.014 8.515-2.366 11.954-5.32 1.882-11.29 3.64-18.08 5.35-.01-2.953-.08-6.036-.215-9.23zm-25.89 11.625l3.51-1.623 9.01-7.22 2.01-5.522c1.3 2.627 2.017 3.66 3.31 6.308l2.96-1.304c.103 2.848.154 5.612.154 8.256-6.51 1.48-13.534 2.276-20.785 2.39l-.164-1.285z" fill="#F05133"/><path d="M259.8 385.604c-17.27-11.657-32.68-25.39-45.996-40.797l7.426-3.496c2.192 2.75 4.45 5.45 6.754 8.09 1.123 1.29 2.265 2.56 3.413 3.82 9.862 10.79 20.78 20.68 32.682 29.55-1.42.96-2.84 1.91-4.28 2.848zm-81.414-95.922c-5.06-11-9.307-22.457-12.696-34.302 30.133-14.17 61.33-21.815 94.45-22.704 15.486.133 30.534 1.745 45.247 4.804-8.37-.9-16.838-1.353-25.434-1.353-9.636 0-19.104.564-28.427 1.688-1.74.203-3.484.44-5.21.69-18.937 2.72-37.272 7.76-55.194 15.07-1.626.667-3.245 1.343-4.85 2.046-2.447 1.06-4.89 2.16-7.32 3.31 2.206 7.7 4.782 15.24 7.692 22.59-1.67 1.36-3.275 2.88-4.796 4.55l-3.462 3.62z" fill="#FDBB30"/><path d="M140.785 246.018c38.95-19.975 73.123-30.845 117.255-30.845 44.135 0 78.313 10.87 117.237 30.845-18.082 72.606-52.617 120.69-117.237 159.28-24.38-14.555-45.685-31.605-63.4-51.394-4.924 2.35-8.837 4.24-10.846 5.232-6.097 3.015-12.195 6.06-18.265 9.142-6.86 3.473-14.46 8.75-22.35 6.704-8.62-3.73-2.94-14.18-.3-20.126 6.7-15.047 13.7-29.984 20.99-44.773-8.764-16.393-15.656-34.208-20.48-53.547l-2.618-10.518zm117.255-23.422c-40.683-.01-72.582 9.485-108.588 27.367 4.696 18.867 10.962 36.128 18.862 51.955 1.482-2.428 3.167-4.804 5.126-7.043.88-.962 8.403-8.812 8.403-8.812 4.63-5.08 9.975-8.644 15.757-11.208-3.94-5.683-7.603-11.544-10.638-17.81l-.69-1.424c1.605-.7 3.22-1.38 4.843-2.04l.567 1.19c3.117 6.42 6.89 12.36 10.914 18.14 1.563-.53 3.157-1.02 4.76-1.46 5.356-1.44 10.733-2.84 16.102-4.19 4.96-1.243 12.826-3.812 16.703.27l5.54-5.806 4.35-.972c-1.3-8.46-2.61-16.11-3.73-22.23 1.738-.252 3.48-.484 5.217-.687 1.12 6.04 2.4 13.512 3.684 21.78 6.14-1.335 12.287-2.63 18.44-3.88l-2.007 5.185-.21.526 6.194-6.482c6.224-1.2 12.445-2.343 18.684-3.47l-1.035 3.14c3.24-2.723 6.96-3.91 10.6-4.516l.54-.09c1.056-4.375 1.746-8.302 2.14-11.85 1.89.428 3.766.87 5.63 1.34-.25 3.156-.71 6.316-1.352 9.5 3.876-.6 7.76-1.174 11.64-1.74-1.598 6.38-3.2 12.76-4.82 19.13l-7.743 8.11 6.583-2.04c-2.1 8.145-4.2 16.29-6.32 24.437l-8.424 8.81c-3.525 1.45-9.39 4.246-15.01 6.595-1.576 4.85-2.57 8.917-3.12 12.306 19.255-7.7 29.12-17.53 39.83-34.353-1.357 5.778-3.26 11.358-5.625 16.677-8.95 10.555-19.118 17.63-34.74 23.5-.114 11.83 7.28 11.32 8.46 11.146-1.973 1.624-4.01 3.194-6.115 4.67-4.664-2.146-7.105-7.96-7.314-14.05-5.336 1.815-11.265 3.493-17.93 5.16-.052 2.25-.105 15.225-3.69 22.625-2.793.784-5.62 1.45-8.495 1.978.57-.51 1.237-1.156 1.985-1.945.046-.092.107-.175.21-.268 2.98-3.047 4.437-10.71 4.8-21.14-6.404 1.36-13.295 2.08-20.435 2.2-.157 5.687-2.115 9.695-5.155 12.404-1.145-1.258-2.286-2.53-3.41-3.814 1.93-2 3.136-4.8 3.287-8.61-2.49-.057-5.165-.2-7.96-.455-6.903 3.25-14.76 6.97-21.723 10.265 15.665 17.266 34.412 32.425 56.46 46.01 58.7-36.095 90.93-80.52 108.55-146.656-36-17.88-67.89-27.356-108.558-27.356zm3.98 100.113c.134 3.19.205 6.27.214 9.23 6.79-1.72 12.763-3.47 18.082-5.36.352-3.44 1.11-7.38 2.366-11.96-1.938.67-3.717 1.166-5.167 1.41-.95.097-1.797.07-2.537-.05l-1.756 1.82c-3.723 1.63-7.462 3.25-11.2 4.896zm-25.898 11.62l.16 1.28c7.25-.12 14.274-.91 20.784-2.39 0-2.65-.052-5.41-.156-8.26l-2.958 1.3c-1.292-2.65-2.003-3.68-3.304-6.307l-2.007 5.522-9.01 7.22-3.5 1.62z" fill="#002D62"/><path d="M208.035 274.493c-9.156 2.48-17.335 6.383-23.876 13.59-3.76 4.29-6.44 9.198-8.93 14.232-7.33 14.828-14.35 29.783-21.07 44.874-1.76 3.93-7.14 13.5-1.41 15.98 6.34 1.64 14.27-3.67 19.87-6.51 6.08-3.08 12.18-6.13 18.293-9.16 10.41-5.14 19.743-11.388 26.073-21.42 2.522-4.236 4.396-8.78 6.245-13.31 3.974-9.747 8.024-19.49 12.156-29.197 1.547-3.637 4.248-8.226 3.39-12.198-1.74-5.33-10.784-2.08-14.715-1.1-5.343 1.36-10.7 2.75-16.04 4.2m-11.57 55.68c-4.842 2.15-9.665 4.32-14.49 6.532 6.998-16.166 14.257-32.22 21.836-48.148 4.236-1.337 8.49-2.655 12.76-3.95-6.94 15.095-13.63 30.283-20.105 45.56m82.85-72.376c-6.71 8.726-13.33 17.527-19.88 26.38 3.07-8.104 6.16-16.2 9.28-24.265-6.946 1.42-13.876 2.923-20.8 4.492-1.797 4.165-3.58 8.342-5.344 12.525 1.484-.412 2.99-.827 4.48-1.232-5.45 13.13-10.76 26.32-15.964 39.523-2.14 5.374-4.258 10.75-6.38 16.12 6.95-3.266 13.906-6.51 20.878-9.705 3.16-8.687 6.346-17.36 9.57-26.018 2.96 5.904 5.89 11.82 8.81 17.76 4.49-2 9-3.97 13.508-5.928-2.742-6.23-5.53-12.457-8.335-18.67 4.99-7.54 10.02-15.06 15.11-22.557 1.43-.335 2.86-.674 4.288-1.005l3.22-9.747c-4.148.75-8.29 1.52-12.42 2.323m26.915-4.59c-3.74.624-7.12 1.808-9.9 4.603-2.29 2.455-3.5 5.375-4.51 8.487-2.98 9.305-5.97 18.617-8.96 27.935-1.17 3.677-3.085 10.38 2.844 9.884 2.015-.33 3.92-1.16 5.81-1.96 5.99-2.546 11.99-5.055 18.004-7.53 1.537-5.843 3.06-11.7 4.568-17.56-3.17.99-6.31 1.99-9.48 3.005-.74 2.63-1.48 5.28-2.204 7.91-2.202.81-4.387 1.604-6.583 2.41 2.77-9.448 5.55-18.888 8.3-28.335 1.943-.422 3.89-.83 5.84-1.23-.468 1.655-.915 3.315-1.378 4.97 2.837-.675 5.677-1.353 8.513-2 1.084-4.25 2.162-8.51 3.224-12.764-4.7.687-9.406 1.41-14.095 2.18" fill="#FFF"/><path d="M331.5 244.568c2.85.93 5.514 1.878 8.17 2.88 6.677 2.467 12.587 4.992 17.472 7.32-15.078 51.547-45.96 94.777-89.52 125.54l-3.55 2.45c-12.758-9.514-20.29-16.988-20.29-16.988l6.007-.982c18.22-3.032 35.77-11.244 50.29-24.74 24.74-22.996 34.79-55.828 29.69-86.768-.13-.7-.27-1.402-.39-2.102l-.05-.3-.06-.326-.08-.343-.07-.33-.07-.36-.07-.33-.085-.38-.085-.36-.07-.33-.05-.286-.1-.397-.08-.37-.075-.277-.05-.28-.07-.27c-.28-1.11-.528-2.053-.783-2.966 1.34.427 2.657.855 3.96 1.282m.476.6c2.664.91 5.41 1.863 8.025 2.85-2.66-1.01-5.34-1.95-8.024-2.85" fill="#007DC3"/></g></svg>