<svg width="512" height="512" viewBox="0 0 512 512" version="1.1" xmlns="http://www.w3.org/2000/svg" xmlns:sketch="http://www.bohemiancoding.com/sketch/ns"><title>montreal-impact</title><desc>Created with Sketch.</desc><defs><radialGradient cx="50.001%" cy="49.999%" fx="50.001%" fy="49.999%" r="3.318%" id="a"><stop stop-color="#065CAB" offset="0%"/><stop stop-color="#065CAB" offset="67.059%"/><stop stop-color="#003A74" offset="100%"/></radialGradient><linearGradient x1=".001%" y1="49.993%" x2="100.003%" y2="49.993%" id="b"><stop stop-color="#BCBEC0" offset="0%"/><stop stop-color="#E5E6E7" offset="47.093%"/><stop stop-color="#E5E6E7" offset="47.093%"/><stop stop-color="#BCBEC0" offset="87.791%"/><stop stop-color="#BCBEC0" offset="100%"/></linearGradient><linearGradient x1=".003%" y1="49.999%" x2="100.006%" y2="49.999%" id="c"><stop stop-color="#BCBEC0" offset="0%"/><stop stop-color="#F7F7F8" offset="47.093%"/><stop stop-color="#F7F7F8" offset="47.093%"/><stop stop-color="#BCBEC0" offset="87.791%"/><stop stop-color="#BCBEC0" offset="87.791%"/><stop stop-color="#BCBEC0" offset="100%"/></linearGradient><linearGradient x1="-.001%" y1="50%" x2="99.996%" y2="50%" id="d"><stop stop-color="#8D9092" offset="0%"/><stop stop-color="#E5E6E7" offset="54.617%"/><stop stop-color="#E5E6E7" offset="54.617%"/><stop stop-color="#8D9092" offset="86.627%"/><stop stop-color="#8D9092" offset="100%"/></linearGradient><linearGradient x1="-.002%" y1="50%" x2="99.995%" y2="50%" id="e"><stop stop-color="#8D9092" offset="0%"/><stop stop-color="#E5E6E7" offset="42.317%"/><stop stop-color="#E5E6E7" offset="42.317%"/><stop stop-color="#8D9092" offset="86.627%"/><stop stop-color="#8D9092" offset="100%"/></linearGradient></defs><g sketch:type="MSShapeGroup" stroke="none" stroke-width="1" fill="none"><path d="M243.829 100.872h-.513l-2.156.009c-69.889 0-129.156 23.194-129.156 23.194-.91 11.526-1.44 25.145-1.343 36.662.521 59.697 13.891 116.129 38.687 163.223 23.877 45.364 57.42 78.893 94.481 94.506 37.061-15.613 70.605-49.142 94.481-94.506 24.796-47.094 38.165-103.526 38.678-163.223.097-11.518-.433-25.136-1.343-36.662 0 0-59.267-23.194-129.147-23.194l-2.165-.009h-.504z" fill="url(#a)"/><path d="M302.288 110.018l2.43 7.599h8.006l-6.521 4.625 2.536 7.59-6.451-4.748-6.433 4.748 2.527-7.59-6.521-4.625h8.024l2.404-7.599zm29.931 15.069l2.421 7.608 8.024-.009-6.521 4.634 2.527 7.581-6.433-4.748-6.46 4.757 2.536-7.59-6.521-4.625h8.015l2.412-7.608zm10.142 30.337l2.412 7.608 8.024-.009-6.521 4.634 2.536 7.581-6.451-4.748-6.451 4.748 2.545-7.581-6.521-4.625h8.006l2.421-7.608zm-15.224 29.09l2.412 7.599h8.024l-6.521 4.625 2.536 7.59-6.442-4.748-6.46 4.748 2.545-7.581-6.521-4.634h8.006l2.421-7.599z" fill="#BAC1C6"/><path d="M240.921 74.095c-46.596.397-92.723 8.667-133.398 23.909l-7.838 2.939 10.498 21.588c1.29-.494 61.07-23.635 130.959-23.635l2.165-.009h1.034l2.174.009c69.88 0 129.669 23.141 130.959 23.635l10.498-21.588-7.838-2.939c-40.684-15.242-86.811-23.512-133.407-23.909-.963-.018-1.926-.018-2.89-.018-.981 0-1.944 0-2.916.018" fill="url(#b)"/><path d="M129.743 102.331v7.97l-2.377.794v-7.978l-4.206 1.412v-1.871l10.772-3.583v1.862l-4.189 1.394zm9.978 3.003l7.273-2.048v-6.231l-7.273 2.039v6.24zm-2.2-5.039c0-.918.168-1.58.486-1.995.345-.406.954-.741 1.856-.997l6.981-1.968c.91-.256 1.529-.265 1.856-.044.336.229.504.794.504 1.712v5.181c0 .918-.168 1.58-.504 1.995-.327.406-.946.741-1.856.997l-6.981 1.959c-.901.256-1.511.274-1.856.053-.318-.229-.486-.794-.486-1.712v-5.181zm18.969-7.409v7.987l6.354-1.465v-7.987l2.236-.512v7.511c0 .909-.168 1.562-.495 1.959-.336.397-.963.697-1.882.909l-6.062 1.394c-.919.212-1.546.203-1.882-.035-.336-.247-.504-.83-.504-1.739v-7.511l2.236-.512zm22.262-2.885l-6.362 1.165v2.118l6.071-1.112c.919-.168 1.564-.132 1.9.124.345.256.521.838.521 1.756v1.35c0 .909-.177 1.571-.521 1.942-.336.38-.972.662-1.9.83l-5.991 1.094c-.919.177-1.555.132-1.9-.124-.353-.256-.521-.838-.521-1.756l.044-.468 1.953-.362v.944l6.857-1.262v-2.251l-6.053 1.112c-.919.168-1.564.132-1.891-.124-.336-.256-.513-.847-.513-1.756v-1.086c0-.918.177-1.571.513-1.942.327-.38.972-.662 1.891-.83l5.505-1.006c.884-.168 1.502-.124 1.865.115.353.238.53.768.53 1.597v.3l-1.997.362v-.733zm25.685-3.605l-5.134.574v3.01l5.134-.574.733-.194.292-.715v-1.421l-.292-.644-.733-.035zm-7.37 8.976v-9.832l8.395-.936c1.467-.159 2.183.397 2.183 1.659v2.551c0 1.28-.716 1.986-2.183 2.153l-6.159.688v3.477l-2.236.238zm16.557-3.523l7.538-.521v-6.24l-7.538.53v6.231zm-2.28-5.498c0-.909.168-1.545.513-1.88.336-.344.981-.547 1.918-.618l7.237-.503c.937-.071 1.582.044 1.926.344.327.291.513.891.513 1.809v5.181c0 .918-.186 1.545-.513 1.889-.345.335-.99.547-1.926.609l-7.237.512c-.937.062-1.582-.053-1.918-.344-.345-.3-.513-.9-.513-1.809v-5.19zm19.588-3.474v7.987l6.521-.168v-7.996l2.289-.053v7.511c0 .909-.177 1.527-.513 1.862-.345.327-.99.494-1.926.521l-6.221.168c-.937.026-1.573-.115-1.926-.424-.345-.309-.521-.918-.521-1.836v-7.511l2.298-.062zm21.638 1.532l-5.152-.079v2.762l5.152.079.751-.106.283-.662v-1.191l-.283-.68-.751-.124zm-7.405 8.049v-9.841l8.439.132c1.476.018 2.218.662 2.218 1.933v2.304c0 1.28-.742 1.898-2.218 1.88l-1.299-.018 4.533 3.786-3.27-.053-3.968-3.777-2.183-.035v3.724l-2.253-.035zm34.748-6.438l-7.14-.591v6.231l7.14.591v-2.039l-3.729-.309v-1.677l5.956.494v3.239c0 .909-.177 1.518-.513 1.809-.345.291-.981.388-1.918.309l-6.778-.556c-.937-.079-1.582-.291-1.918-.635-.345-.344-.513-.98-.513-1.889v-5.181c0-.927.168-1.527.513-1.818.336-.282.981-.388 1.918-.318l6.778.565c.91.079 1.546.282 1.891.627.362.335.539.944.539 1.809v.512l-2.227-.212v-.962zm9.904 5.208l4.286.538-2.112-4.272-2.174 3.733zm-4.374 3.38l5.523-9.143 2.2.274 5.602 10.538-2.554-.318-1.166-2.304-6.194-.777-1.14 2.012-2.271-.282zm26.331-4.273l-7.052-1.2v6.231l7.052 1.209v-1.959l-3.685-.627v-1.677l5.885.997v3.16c0 .909-.168 1.5-.504 1.756-.345.265-.963.318-1.9.159l-6.698-1.139c-.937-.159-1.555-.424-1.909-.794-.336-.38-.504-1.024-.504-1.942v-5.181c0-.918.168-1.5.504-1.765.353-.256.972-.309 1.909-.15l6.698 1.139c.91.15 1.52.415 1.873.777.353.38.53.997.53 1.862v.556l-2.2-.406v-1.006zm8.059 9.602v-9.841l1.529.344 6.76 7.281 1.105 1.306c-.071-.918-.097-1.5-.097-1.712v-5.172l2.015.45v9.832l-1.529-.335-7.06-7.634-.804-.98c.062.653.088 1.174.088 1.58v5.322l-2.006-.441zm17.308 3.993v-9.832l9.72 2.639v1.677l-7.502-2.039v2.189l4.383 1.191v1.677l-4.383-1.191v2.445l7.608 2.065v1.845l-9.826-2.665zm22.03-1.663l-4.913-1.589v2.762l4.913 1.589.698.115.274-.582v-1.191l-.274-.75-.698-.353zm-7.052 5.878v-9.841l8.024 2.604c1.405.459 2.112 1.324 2.112 2.586v2.312c0 1.271-.707 1.677-2.112 1.227l-1.228-.406 3.738 4.934-3.119-1.015-3.199-4.748-2.077-.68v3.716l-2.138-.688z" fill="#6D6E71"/><path d="M112.006 124.077s59.267-23.194 129.147-23.194l2.165-.009h1.017l2.165.009c69.88 0 129.147 23.194 129.147 23.194.91 11.526 1.44 25.136 1.343 36.662-.513 59.688-13.882 116.129-38.678 163.223-23.877 45.355-57.42 78.893-94.481 94.506-37.061-15.613-70.614-49.151-94.481-94.506-24.796-47.094-38.174-103.535-38.687-163.223-.097-11.526.433-25.136 1.343-36.662m35.576 200.812c12.009 22.797 26.289 42.584 42.46 58.797 16.427 16.469 34.392 28.843 53.4 36.777l.38.159h.009l.38-.159c19.008-7.934 36.972-20.308 53.4-36.777 16.171-16.213 30.451-36 42.46-58.797 24.946-47.377 38.404-104.126 38.908-164.123.106-12.153-.38-24.077-1.511-38.233-1.29-.503-61.07-23.635-130.95-23.635l-2.174-.009h-1.034l-2.165.009c-69.889 0-129.669 23.132-130.959 23.635-1.131 14.156-1.617 26.08-1.511 38.233.504 59.997 13.962 116.747 38.908 164.123" fill="#A7AEB3"/><path d="M383.801 282.251h-.937v-4.13h-1.847v-.891h4.63v.891h-1.847v4.13zm2.992-5.021h.751l1.9 3.036 1.856-3.036h.751v5.022h-.866v-3.107l.035-.538-.239.53-1.511 2.515h-.194l-1.511-2.524-.239-.521.018.538v3.107h-.751v-5.022z" fill="#000"/><path d="M162.974 109.584c-2.015 6.293-2.669 13.265-1.219 20.952.353 1.845.804 3.724 1.396 5.64 4.33 13.786 16.277 42.708 19.237 54.269 2.978 11.562 4.259 19.69 4.259 19.69s-6.857.009-11.267 0c-2.457-12.241-5.169-22.073-12.221-37.315-12.946-27.969-30.301-42.637-48.557-39.972-1.096.159-2.174.388-3.234.671-.504 9.091-.778 18.719-.707 27.219.097 12.056.742 23.971 1.882 35.7 3.623-7.625 8.854-12.038 15.738-13.044 9.058-1.297 17.903.891 24.177 6.125 9.72 8.137 9.764 20.617 9.764 20.617h-22.366l4.984 19.064s33.385-.009 39.261 0c-1.538 8.243-13.635 15.013-26.183 16.363.362.838.848 1.765 1.909 2.683 1.997 1.765 6.999 4.395 18.31 2.383l4.648-.83s-.486 2.833 0 6.69l12.044-3.672v-148.767c-11.461 1.527-22.171 3.469-31.856 5.534" fill="url(#c)"/><path d="M98.704 109.266c-1.988 16.972-2.925 34.341-2.775 51.604.336 39.928 6.248 78.505 17.329 114.037l-.009-.018c-9.199 4.881-14.059 13.186-14.121 24.368-.08 13.397 0 53.775 0 54.181l.009 2.93 57.226 6.999c23.072 32.09 51.438 56.026 82.163 68.85l5.311 2.215v-13.803h-.018l-.371-.159c-19.008-7.934-36.981-20.317-53.409-36.777-16.171-16.213-30.442-36-42.46-58.806-24.937-47.377-38.404-104.126-38.908-164.123-.097-12.153.389-24.077 1.511-38.233l-10.498-21.588-.981 8.323z" fill="url(#d)"/><path d="M377.474 122.531c1.122 14.156 1.608 26.08 1.502 38.233-.504 59.997-13.962 116.747-38.899 164.123-12.018 22.806-26.298 42.593-42.46 58.806-16.436 16.46-34.401 28.843-53.409 36.777l-.371.159v13.803l5.293-2.215c40.375-16.857 76.676-52.875 102.231-101.408 9.376-17.81 17.178-36.874 23.346-56.9l18.424-5.622c13.449-4.095 20.598-13.45 20.678-27.033.08-13.397 0-53.775 0-54.181v-1.845l-22.304-13.892c.115-3.477.194-6.964.221-10.467.133-17.263-.786-34.632-2.775-51.604l-.981-8.323-10.498 21.588z" fill="url(#e)"/><path d="M223.827 243.974c-9.331-2.745-17.046-8.305-18.256-14.774 5.868-.018 39.27 0 39.27 0l4.966-19.072h-22.366s.053-12.471 9.782-20.608c6.274-5.234 15.111-7.431 24.177-6.125 10.144 1.465 16.728 10.388 19.812 26.089 8.722-2.851 19.069-11.765 22.268-28.463 4.728-24.694-9.924-45.453-28.401-48.18-18.265-2.665-35.62 12.012-48.566 39.981-7.052 15.233-9.756 25.065-12.221 37.306-4.401.018-11.258 0-11.258 0s1.272-8.12 4.233-19.69c2.978-11.562 14.925-40.484 19.246-54.269.592-1.906 1.06-3.786 1.396-5.631 2.13-11.2-.212-20.917-4.781-29.151-9.791.538-19.264 1.474-28.295 2.665v148.767l28.993-8.843z" fill="#fff"/><path d="M102.453 353.428l51.323 6.266c-4.056-5.86-7.953-11.994-11.647-18.366l-39.677 12.1zm288.896-178.263c-.256 6.072-.627 12.109-1.158 18.093l20.28-6.178-19.122-11.915z" fill="#636466"/><path d="M410.474 187.077l-289.7 88.319c-10.118 3.08-18.239 9.964-18.318 23.874-.079 13.548 0 54.155 0 54.155l54.169-16.504c6.627 11.067 13.838 21.305 21.561 30.634v-37.209l16.648-5.084v60.227c6.919 6.619 14.121 12.541 21.553 17.731v-84.533l16.657-5.066v99.74c3.561 1.871 7.149 3.574 10.781 5.101 3.641-1.527 7.228-3.23 10.79-5.101v-106.315l15.871-4.837v101.54c7.44-5.11 14.642-10.988 21.57-17.537v-90.587l15.871-4.837v78.611c7.697-9.091 14.925-19.108 21.561-29.937v-55.249l15.871-4.837v30.263c5.081-11.032 9.561-22.514 13.449-34.367l33.349-10.158c10.118-3.089 18.239-9.964 18.318-23.882.08-13.539 0-54.155 0-54.155" fill="#000"/><path d="M227.289 261.139c-.018-4.634 4.295-9.294 9.72-10.953 4.295-1.315 7.184-.318 7.184 1.527 0 1.121-.866 2.162-2.015 2.515-1.255.388-2.138 0-2.156-1.006l.212-.856c-.548-.185-1.626-.212-3.305.3-3.614 1.103-6.362 4.245-6.336 7.449 0 3.08 2.616 4.748 6.521 3.548 2.165-.662 3.941-2.003 5.32-3.654l2.112 1.174c-1.785 2.215-4.454 4.033-7.423 4.942-5.717 1.739-9.809-.194-9.835-4.987m30.443-3.952l2.306-.706-.044-10.732-3.437 1.05.018 2.427-3.022.918-.018-4.713 16.083-4.907.018 4.713-3.022.927v-2.436l-3.446 1.05.053 10.732 2.315-.706v2.365l-7.794 2.383-.009-2.365zm-125.865 27.737l2.245-3.045-7.873 2.392.027 2.365 2.43-.741.035 10.661-2.465.75.018 2.365 8.236-2.515v-2.365l-2.598.785-.053-10.653zm32.518-9.924l2.298-3.063-5.046 1.536-5.647 10.291-5.717-6.813-5.081 1.545 2.324 1.659-.548 10.838-2.2.671.018 2.356 7.555-2.304-.018-2.356-2.227.68.336-8.04 5.328 6.099.415-.124 5.258-9.329.406 7.811-2.218.68v2.356l7.6-2.321-.009-2.365-2.191.68-.636-10.485zm24.35-4.763c.009 1.827-1.405 3.38-3.791 4.113-1.29.388-1.75.503-2.077.582l-.027-5.56 1.988-.609c2.28-.697 3.897-.132 3.906 1.474m-3.738-3.892l-7.476 2.277 2.13 1.721.053 10.653-2.112.644.009 2.365 7.608-2.312-.018-2.374-2.306.715-.009-2.762c.389-.097.919-.265 1.803-.53 4.365-1.333 7.37-3.98 7.352-7.511-.027-3.133-3.066-4.095-7.034-2.886" fill="#BAC1C6"/><path d="M207.038 267.953l2.554-6.849 2.624 5.26-5.178 1.589zm10.498 1.5l-4.666-9.267 2.024-.627-.018-2.339-10.463 3.204 2.024 1.721-4.569 12.082-1.591.494.018 2.356 7.113-2.171-.009-2.339-2.262.688 1.034-2.842 6.928-2.109 1.052 2.198-2.138.662.018 2.33 7.122-2.171-.018-2.365-1.599.494z" fill="#BAC1C6"/><path d="M190.97 300.007c-.027-5.172-4.268-7.625-10.047-5.86-5.823 1.774-10.03 6.769-10.003 11.977.018 5.172 4.259 7.625 10.083 5.843 5.77-1.756 9.985-6.752 9.968-11.959m-25.379 7.749c-.044-7.29 6.309-14.818 15.402-17.599 9.058-2.762 15.261.971 15.305 8.226.027 7.281-6.309 14.818-15.402 17.599-9.066 2.754-15.27-.98-15.305-8.226m80.723-16.022l3.729-1.139-.08-17.325-5.558 1.695.027 3.927-4.878 1.483-.018-7.634 25.962-7.926.035 7.625-4.869 1.492-.018-3.927-5.558 1.695.08 17.334 3.747-1.139.009 3.804-12.592 3.848-.018-3.813zm-24.989-13.438l.018 3.822 3.738-1.147.062 12.612-16.471-11.421-7.14 2.18 3.42 2.771.08 17.219-3.411 1.041.018 3.804 11.921-3.627-.027-3.822-3.72 1.147-.071-13.565 17.47 12.065 2.801-.856-.08-21.023 3.261-.997-.009-3.822-11.859 3.619zm68.511-13.229c.009 2.604-2.722 5.022-6.583 6.204-1.626.494-2.368.688-2.907.812l-.044-7.97 2.792-.847c4.127-1.262 6.734-.803 6.742 1.8m5.311-1.783c-.027-5.048-4.949-6.01-11.806-3.901l-11.603 3.539 3.437 2.762.071 17.219-3.411 1.033.027 3.822 12.274-3.751-.009-3.813-3.747 1.139-.027-5.587c.645-.15 1.511-.415 2.465-.706.592-.185 1.423-.53 2.059-.759l6.124 7.634 6.592-2.021-.009-3.804-3.42 1.033-4.622-5.348c3.278-2.092 5.62-5.278 5.602-8.49" fill="#fff"/><path d="M326.374 253.344l-.035-7.096-22.33 6.822 3.429 2.762h.009l.08 17.228-3.42 1.041.027 3.804 22.374-6.831-.035-7.096-4.913 1.5.018 3.318-8.916 2.727-.027-7.025 9.04-2.754-.018-3.636-9.04 2.762-.035-6.646 8.863-2.71.027 3.327 4.904-1.5zm18.759.628l4.136-11.059 4.233 8.508-8.368 2.551zm16.966 2.427l-7.546-14.986 3.287-.997-.027-3.769-16.913 5.163 3.278 2.771h.009l-7.379 19.54-2.81.847.027 3.822 11.488-3.513-.018-3.733-3.411.997 1.652-4.589 11.196-3.416 1.705 3.566-3.19.997.018 3.76 11.249-3.442-.027-3.813-2.589.794zm26.145-11.461l.009 3.513-8.245 2.515-.071-17.263 3.959-1.209-.018-3.804-12.495 3.813 3.42 2.771.08 17.219-3.411 1.041.018 3.813 21.738-6.628-.035-7.299-4.949 1.518zm-231.063 56.763l3.711-4.942v-.009l-8.139 2.48-9.128 16.628-9.261-11.015-8.165 2.498 3.738 2.674-.884 17.51-3.552 1.077.027 3.804 12.186-3.716-.018-3.804-3.588 1.094.53-12.983 8.607 9.858.68-.221 8.501-15.057.645 12.612-3.588 1.103.018 3.804 12.283-3.751-.027-3.804-3.543 1.077-1.034-16.919z" fill="#fff"/><path d="M321.465 242.642l-.018-4.183-14.386 9.055 14.404-4.872z" fill="#BAC1C6"/></g></svg>