<?xml version="1.0" encoding="UTF-8" standalone="no"?>
<svg width="512px" height="512px" viewBox="0 0 512 512" version="1.1" xmlns="http://www.w3.org/2000/svg" xmlns:xlink="http://www.w3.org/1999/xlink" xmlns:sketch="http://www.bohemiancoding.com/sketch/ns">
    <!-- Generator: Sketch 3.2.2 (9983) - http://www.bohemiancoding.com/sketch -->
    <title>arizona-diamondbacks</title>
    <desc>Created with Sketch.</desc>
    <defs></defs>
    <g id="MLB" stroke="none" stroke-width="1" fill="none" fill-rule="evenodd" sketch:type="MSPage">
        <g id="arizona-diamondbacks" sketch:type="MSArtboardGroup">
            <g sketch:type="MSLayerGroup" transform="translate(84.000000, 110.000000)">
                <path d="M239.002121,251.360947 L206.831111,295.628402 L345.267808,295.628402 L279.124141,0 L186.979798,0 L0,295.576036 L147.534051,295.576036 L126.407081,251.151479 L171.96899,174.76568 C173.192222,179.496154 175.533838,188.765089 175.900808,190.19645 C173.576667,194.246154 138.232242,255.25355 138.232242,255.25355 C138.232242,255.25355 190.334949,212.242899 192.72899,210.237249 C193.583505,211.300296 231.29401,256.981657 231.29401,256.981657 C231.29401,256.981657 213.558889,197.878669 212.333909,193.86213 C213.242596,192.413314 219.149061,183.041391 222.907879,177.019201 L239.000374,251.310325 L239.000374,251.360947 L239.002121,251.360947 Z M173.594141,172.042604 L202.656394,123.355385 L211.25397,123.355385 L221.824444,172.042604 L173.594141,172.042604 L173.594141,172.042604 Z" id="path30" fill="#EFE4BC" sketch:type="MSShapeGroup"></path>
                <path d="M90.8686869,184.593195 L148.783495,148.315178 L128.87801,112.677781 L184.900303,85.6948817 L166.831414,53.885503 L209.906667,34.7209763 L190.509697,6.29449704 L10.6613434,289.660325 L109.052909,227.813314 L90.8686869,184.593195 L90.8686869,184.593195 Z" id="path34" fill="#1D0B09" sketch:type="MSShapeGroup"></path>
                <path d="M205.782626,192.989349 C207.302929,190.61713 215.203263,178.082249 215.203263,178.082249 L179.013061,178.082249 C179.013061,178.082249 181.774071,188.747633 182.385687,191.139053 C180.708111,194.001775 160.227707,229.331953 160.227707,229.331953 C160.227707,229.331953 189.42801,205.22574 193.517101,201.804438 C196.400434,205.276361 216.968212,230.204734 216.968212,230.204734 C216.968212,230.204734 206.780434,196.236095 205.766899,192.989349" id="path46" fill="#B91134" sketch:type="MSShapeGroup"></path>
                <path d="M330.082253,283.950592 L269.338283,11.6202071 L200.749899,11.6202071 L217.64798,37.548787 L175.079495,56.6592012 L193.410505,88.4109763 L137.456364,115.17568 L156.196283,149.870473 L98.227303,186.321302 L116.105717,230.047633 L29.2352525,283.810947 L126.98899,283.810947 L111.247737,251.46568 L195.666495,112.791243 L221.824444,112.791243 L253.418788,254.173047 L231.400606,283.952337 L330.082253,283.952337 L330.082253,283.950592 Z" id="path50" fill="#B91134" sketch:type="MSShapeGroup"></path>
                <path d="M337.734444,289.763314 L274.440909,5.59976331 L196.818081,5.59976331 L200.749899,11.6463905 L269.338283,11.6463905 L330.082253,283.968047 L231.400606,283.968047 L253.434515,254.206213 L221.822697,112.817426 L195.664747,112.817426 L111.24599,251.483136 L127.015202,283.845858 L29.2352525,283.845858 L19.6573434,289.81568 L137.568202,289.81568 L118.936626,251.360947 L198.95,118.03142 L216.389798,118.03142 L246.584414,252.739941 L219.447879,289.81568 L337.732697,289.81568 L337.732697,289.763314 L337.734444,289.763314 Z" id="path54" fill="#1D0B09" sketch:type="MSShapeGroup"></path>
            </g>
        </g>
    </g>
</svg>