<?xml version="1.0" encoding="iso-8859-1"?>
<!-- Generator: Adobe Illustrator 14.0.0, SVG Export Plug-In . SVG Version: 6.00 Build 43363)  -->
<!DOCTYPE svg PUBLIC "-//W3C//DTD SVG 1.1//EN" "http://www.w3.org/Graphics/SVG/1.1/DTD/svg11.dtd">
<svg version="1.1" id="Layer_1" xmlns="http://www.w3.org/2000/svg" xmlns:xlink="http://www.w3.org/1999/xlink" x="0px" y="0px"
	 width="250px" height="250px" viewBox="0 0 250 250" style="enable-background:new 0 0 250 250;" xml:space="preserve">
<g>
	<polyline style="fill:#231F20;" points="208.157,166.648 210.158,166.648 210.158,172.093 211.503,172.093 211.503,166.648 
		213.495,166.648 213.495,165.469 208.157,165.469 	"/>
	<polyline style="fill:#231F20;" points="218.63,169.791 218.596,169.791 217.054,165.469 214.708,165.469 214.708,172.093 
		216.063,172.093 216.063,166.822 216.096,166.822 217.948,172.093 219.258,172.093 221.168,166.822 221.202,166.822 
		221.202,172.093 222.556,172.093 222.556,165.469 220.225,165.469 	"/>
	<path style="fill:#FFFFFF;" d="M245.28,130.579c-0.377-5.899-3.355-11.14-8.22-14.563c-0.822-3.636-2.466-7.282-3.819-10.27
		c-0.349-0.764-0.677-1.489-0.934-2.099l7.876-14.012l-25.654,4.535l-50.922-50.922c4.342-1.063,16.815-3.984,16.815-3.984
		s-6.952-6.489-17.657-10.763c-0.643-2.06-2.181-4.245-5.357-5.686c-4.506-2.031-7.9-2.766-14.979-1.412
		c-0.184,0.029-0.357,0.078-0.551,0.116l-12.306-12.3l-50.27,50.265c-1.083,0.416-2.33,0.793-3.239,1.074l-0.747,0.232l-0.759,0.242
		c-3.008,0.938-6.122,1.905-8.781,2.05c-0.251,0.01-0.527,0.039-0.909,0.068c-0.387,0.048-1.402,0.145-1.741,0.126l-3.462-0.136
		c-0.01,0-0.058,0.174-0.145,0.455c-3.201,0.193-6.532,0.319-9.496,0.435c-3.616,0.136-6.75,0.261-8.78,0.445l-1.136,0.097
		c-2.809,0.232-4.762,0.396-6.948,2.466c-0.759,0.396-1.605,1.035-2.408,2.041c-0.943,0.416-2.094,1.103-2.829,2.244
		c-2.974,0.967-5.686,2.524-5.621,5.831c0.082,3.994,4.098,5.067,6.699,5.589c1.18,0.696,2.891,1.209,5.381,1.238
		c1.011,0.31,2.094,0.396,3.061,0.368c2.108,1.393,5.86,2.263,12.557,0.996l0.111-0.01l0.106-0.029
		c1.378-0.339,2.785-0.639,4.197-0.929l-8.809,8.81c-2.186,0.551-4.274,1.354-6.199,2.417c-3.297,1.818-6.198,4.4-8.413,7.465
		c-3.114,2.911-5.483,6.653-6.769,10.618c-0.863,0.948-1.666,1.876-2.389,2.746c-1.245,1.315-2.473,2.727-3.653,4.207l-0.036,0.029
		l-0.029,0.039l-2.625,3.5l-0.029,0.039l-0.029,0.048c-4.925,7.059-8.174,14.766-9.402,22.29
		c-2.011,12.281,0.305,24.301,6.187,32.172c3.097,4.139,7.085,7.098,11.715,8.742l-1.601,1.547l15.129,15.134l3.529-0.358
		c11.614-1.15,21.898,6.576,25.78,9.961l5.154,4.496l4.929-4.738c3.394-3.269,8.094-6.382,14.679-9.737l38.037,38.041l77.563-77.563
		c11.154-3.385,17.149-5.222,18.755-5.841c4.681-1.799,8.636-4.845,11.498-8.8C242.698,144.717,245.725,137.444,245.28,130.579
		 M233.564,145.906c-2.088,3.094-5.178,5.821-9.467,7.465c-1.527,0.59-8.93,2.853-19.654,6.102l-74.87,74.875l-36.93-37.074
		c-7.301,3.48-14.34,7.445-19.454,12.358l-1.436,1.383l-1.489-1.306c-4.409-3.839-16.139-12.619-29.817-11.246l-1.02,0.106
		l-8.48-8.481l0.135-0.038l3.186-3.588l-0.063-0.067l3.423-1.063c2.466-0.774,15.849-4.217,34.261-8.896L61.194,165.71
		c-1.199,1.576-2.466,3.104-3.844,4.487c-6.842,8.597-16.25,14.641-27.27,13.258c-5.546-0.687-10.26-3.452-13.647-7.988
		c-3.81-5.086-5.85-12.349-5.85-20.287c0-2.563,0.208-5.203,0.641-7.862c1.566-9.573,6.711-19.146,14.548-27.414
		c1.025-1.257,2.108-2.476,3.24-3.675c0.967-3.791,3.104-7.281,6.121-9.94c1.736-2.505,4.042-4.661,6.822-6.199
		c2.181-1.199,4.501-1.982,6.89-2.35l20.708-20.781c0,0,0,0-0.005,0c-3.83,1.005-12.522,2.195-20.355,4.071
		c-9.341,1.76-10.018-1.238-10.018-1.238c-3.447,0.455-3.844-0.222-3.844-0.222c-3.805,0.184-4.478-0.938-4.478-0.938
		c-1.943-0.387-9.092-1.46,1.519-3.945c-2.152-1.064,0.633-1.76,1.213-1.973c1.035-1.866,2.069-1.953,2.069-1.953
		c1.523-1.721,2.108-1.566,5.976-1.915c5.251-0.464,19.118-0.561,27.241-1.654l-0.106,0.058c2.601-0.483,5.25-1.334,7.714-2.108
		c2.63-0.813,5.995-1.75,7.692-3.278c0.517-0.464,1.107-0.899,1.726-1.315l42.77-42.925l0.904-0.909l10.125,10.125
		c1.02-0.387,2.137-0.725,3.418-0.967c6.344-1.209,8.814-0.483,12.349,1.112c3.888,1.75,3.104,4.845,3.104,4.845
		s1.842,0.687,3.839,1.441c4.303,1.634,6.672,2.186,8.954,4.032c0,0-3.481,0.648-5.023,0.929c-4.366,0.812-7.722,2.05-7.722,2.05
		c-0.518,1.702-1.024,2.979-1.499,3.975l56.275,56.279c0.208-0.232,0.411-0.512,0.633-0.706l0.465-0.396l15.685-2.775l-2.253,4.003
		c-0.678,1.199-0.929,2.098-0.929,2.872c0,0.551,0.126,1.035,0.319,1.509l1.208,2.756c1.605,3.539,3.491,7.823,3.771,11.43
		c4.613,2.427,7.494,6.518,7.818,11.565c0.02,0.319,0.029,0.657,0.029,0.986C240.141,136.439,238.066,141.922,233.564,145.906z"/>
	<path style="fill:#FFFFFF;" d="M30.753,143.518l-0.16,0.561c-0.59,2.069-1.32,5.309-1.32,8.646c0,4.951,1.596,10.144,7.62,12.116
		c0.338,0.087,5.086,1.083,10.473-3.801c1.156-1.585,2.311-3.5,3.418-5.782l-17.923-17.986
		C31.957,139.485,31.285,141.651,30.753,143.518 M35.24,147.502l9.022,9.031c-0.223,0.377-0.464,0.726-0.696,1.073
		c-2.534,2.128-4.545,2.244-5.203,2.205C33.799,158.052,34.206,151.988,35.24,147.502z"/>
	<path style="fill:#FFEDB8;" d="M155.571,59.05c0.131,1.75,0.049,3.249-0.116,4.497l23.208,23.208
		c2.446-0.677,4.671-0.367,6.286,0.919c1.566,1.238,2.417,3.22,2.417,5.618c0,0.232-0.015,0.474-0.029,0.706
		c-0.028,0.416-0.115,0.841-0.164,1.267l7.615,7.62c4.686-0.532,8.046,1.828,9.056,6.518c0.16,0.706,0.232,1.45,0.232,2.224
		c0,0.174-0.029,0.338-0.034,0.512l1.117,1.112c1.934-4.419,3.549-7.91,5.618-9.728l0.455-0.396l0.313-0.058
		c0.102-0.174,0.203-0.3,0.305-0.464c-16.53-16.526-38.825-38.815-56.062-56.057c-0.75,1.064-1.252,1.519-1.267,2.369
		C154.444,53.993,155.068,51.914,155.571,59.05"/>
	<path style="fill:#FFEDB8;" d="M226.598,133.199c0-0.328-0.251-0.6-0.416-0.89c-2.717,4.052-7.185,7.397-12.716,7.03
		c-3.075-0.203-5.299-1.237-6.803-2.862l-7.886,7.9c12.401-3.172,20.8-5.348,22.135-5.792c0.449-0.155,0.865-0.319,1.276-0.474
		c1.566-1.576,3.017-3.027,4.342-4.342c0.015-0.155,0.058-0.319,0.067-0.475C226.598,133.268,226.598,133.229,226.598,133.199"/>
	<path style="fill:#FFEDB8;" d="M117.428,46.682c4.917-1.557,3.68-1.528,8.147-4.941c4.68-3.568,5.371-10.105,11.652-13.751
		c-4.535-4.545-7.369-7.378-7.654-7.659c-0.701,0.706-17.111,17.174-36.731,36.872c2.302-0.861,4.236-1.422,4.85-1.702
		C97.691,55.501,100.481,52.059,117.428,46.682"/>
	<path style="fill:#FFEDB8;" d="M174.67,168.495l-42.916,42.944h5.367h2.939v8.79c13.722-13.722,38.438-38.438,59.19-59.181
		c-0.929,0.281-1.866,0.562-2.824,0.852C189.735,163.921,182.299,166.175,174.67,168.495"/>
	<path style="fill:#FFEDB8;" d="M50.78,144.668c-3.791-0.231-8.017-2.107-11.792-4.883c3.795,3.819,8.186,8.219,12.934,12.986
		c0.928-2.195,1.818-4.68,2.649-7.523c-0.329-0.048-0.89-0.135-0.89-0.135"/>
	<path style="fill:#FFEDB8;" d="M85.57,169.607c-0.624,0.435-1.257,0.86-1.886,1.218c-3.249,1.876-7.04,2.002-9.89,0.339
		c-2.679-1.566-4.148-4.478-4.148-8.21c0-0.038,0-0.077,0-0.116c0.02-2.146,0.638-4.796,1.605-7.648l-2.582-2.602
		c-1.557,3.801-3.54,7.563-5.938,11.033c3.926,3.945,7.973,8.007,12.039,12.078c4.272-1.073,8.778-2.224,13.468-3.403"/>
	<path style="fill:#FFEDB8;" d="M65.338,102.149l13.976-13.982c-9.784,0.406-8.971-0.88-8.023-2.417
		c3.046-4.98,10.219-6.866,10.219-6.866c-2.379-0.803-5.067-1.673-7.656-2.611c-7.349,7.378-14.597,14.65-21.187,21.265
		c2.621,0.087,5.28,0.628,7.881,1.702C62.345,99.983,63.912,100.979,65.338,102.149"/>
	<path style="fill:#FFEDB8;" d="M127.132,211.439l-20.346-20.48l-2.553,1.121c-2.979,1.286-6.054,2.631-9.129,4.042
		c9.288,9.322,17.735,17.803,23.934,24.021l-0.01-8.703"/>
	<path style="fill:#FFEDB8;" d="M50.664,114.092c-1.45-0.658-2.896-0.638-4.226-0.029c-0.358,0.89-0.638,1.847-0.716,2.882
		c-0.009,0.165-0.014,0.329-0.014,0.503c0,1.122,0.266,2.359,0.725,3.607l5.725-5.734C51.66,114.749,51.152,114.314,50.664,114.092"
		/>
	<path style="fill:#006F53;" d="M87.683,87.625c-1.688,0.135-3.157,0.242-4.54,0.329c-5.561,5.56-11.002,11.004-15.958,15.965
		c3.206,3.5,5.188,8.422,5.933,14.824l30.178-30.18C95.347,88.263,87.683,87.625,87.683,87.625"/>
	<path style="fill:#006F53;" d="M87.137,154.725c0,0,0.01,0.126,0.01,0.203c0.135-0.028,0.271-0.067,0.483-0.145
		c0.938-0.339,2.853-1.557,4.883-3.239c0.029-0.078,0.063-0.175,0.092-0.262l-3.583-3.606
		C87.988,150.151,87.301,152.559,87.137,154.725"/>
	<path style="fill:#006F53;" d="M167.325,95.709c2.693-3.433,5.682-6.295,8.756-7.91c-7.228-7.233-14.611-14.621-21.322-21.322
		c-1.673,4.68-3.113,9.235-8.451,13.142l18.673,18.673C165.744,97.372,166.527,96.502,167.325,95.709"/>
	<path style="fill:#006F53;" d="M47.608,123.491c1.741,3.007,4.487,5.773,7.552,6.953c0.203-1.314,0.314-2.582,0.314-3.771
		c0-3.781-0.817-6.904-1.91-9.138C51.031,120.077,49.01,122.099,47.608,123.491"/>
	<path style="fill:#006F53;" d="M193.918,145.616c4.298-4.304,8.156-8.162,11.318-11.334c-0.067-0.154-0.174-0.271-0.231-0.435
		c-0.585,0.677-1.171,1.306-1.774,1.905c-0.015,0.028-0.034,0.058-0.054,0.087c-5.759,7.484-12.832,11.353-19.407,10.607
		c-3.559-0.406-6.586-1.982-8.737-4.409l-3.196,3.2c-0.783,0.842-1.609,1.674-2.48,2.485l-5.497,5.503
		C174.863,150.441,185.171,147.83,193.918,145.616"/>
	<path style="fill:#006F53;" d="M198.791,124.032c-0.556,0.629-1.136,1.17-1.716,1.712c-0.483,0.677-0.986,1.344-1.547,1.982
		c-1.296,1.489-2.703,2.679-4.14,3.713c0.029,0,0.044,0.01,0.068,0.01c1.557,0.223,3.336-0.58,5.265-2.33
		c0.963-1.286,1.949-2.756,2.94-4.439c1.658-2.804,3.099-5.957,4.395-8.916c-0.174-0.165-0.328-0.319-0.498-0.493
		C202.79,118.25,201.151,121.344,198.791,124.032"/>
	<path style="fill:#006F53;" d="M99.195,167.982c-2.379-0.154-5.038-1.702-6.682-4.303c-1.431,1.46-3.104,2.988-4.864,4.38
		c1.161,1.171,2.321,2.341,3.477,3.501c5.575-1.402,11.377-2.872,17.29-4.361l-1.363-1.373
		C104.301,167.267,101.593,168.147,99.195,167.982"/>
	<path style="fill:#006F53;" d="M169.467,170.081c-11.304,3.452-22.743,6.981-32.549,10.096l-7.833,7.842l-3.979-4.013
		c-6.571,2.186-11.541,3.945-13.876,4.999l-1.929,0.852c11.237,11.313,19.586,19.727,20.143,20.277
		C130.284,209.283,149.547,190.011,169.467,170.081"/>
	<path style="fill:#006F53;" d="M79.725,138.315l-1.223-1.238c-0.078-0.01-0.165-0.01-0.242-0.02
		c-0.329,0.339-0.658,0.668-0.982,0.968c-1.984,2.688-3.909,4.438-5.766,5.637c-0.455,2.061-1.083,4.178-1.837,6.306
		c0.851,0.851,1.697,1.701,2.563,2.581C74.123,147.85,76.829,142.792,79.725,138.315"/>
	<path style="fill:#006F53;" d="M179.389,112.689l0.319,0.319c0.367-0.396,0.725-0.793,1.116-1.151
		c2.936-3.994,6.755-6.972,10.99-8.335c-1.692-1.692-3.428-3.423-5.212-5.212C185.433,103.01,182.938,107.961,179.389,112.689"/>
	<path style="fill:#FFEDB8;" d="M174.844,118.037c-2.146,2.659-4.589,5.231-7.335,7.601c0,0-0.314,0.261-0.759,0.619
		c-1.683,6.256-1.963,8.8-1.963,9.621c0,0.097,0.01,0.184,0.015,0.242c0.028,0.416,0.13,0.619,0.179,0.647
		c0.164,0.097,0.996,0.223,2.62-0.454c1.161-0.493,2.641-1.722,4.129-3.211c0.01-1.024,0.029-2.446,0.029-2.446
		c0.773-6.943,3.742-13.209,7.949-17.647l-0.319-0.319C178.016,114.517,176.507,116.316,174.844,118.037"/>
	<path style="fill:#FFEDB8;" d="M111.786,106.626c0.048-0.348,0.217-0.726,0.628-1.131c0.087-0.097,0.271-0.261,0.445-0.474
		c0.039-0.522,0.121-1.015,0.271-1.431c-0.039-0.077-0.068-0.145-0.136-0.212c-0.455-0.522-8.316-8.433-8.316-8.433
		s-1.131-0.87-1.431-2.06c-0.261-0.715-0.261-1.557,0.45-2.427c0.314-0.377,0.43-0.706,0.469-1.015
		c-0.092-0.368-0.338-0.658-0.609-0.871c-0.087,0-0.169,0-0.261-0.009l-30.178,30.18c0.203,1.76,0.353,3.588,0.377,5.57
		c0.58-0.726,1.325-1.199,2.224-1.431l0.094-0.581c1.088-3.007,3.549-3.964,7.325-2.843c3.999,1.189,6.977,0.938,9.36-0.803
		c1.185-0.86,2.5-1.17,3.718-0.88c1.112,0.261,2.021,0.986,2.572,2.06c0.396,0.783,1.944,2.775,2.746,3.694
		c0.619,0.706,0.919,1.595,1.016,2.504c0.74-1.673,1.431-3.182,2.031-4.4l0.372-0.928l1.765-0.377
		c0.396-0.87,0.774-1.683,1.117-2.388l0.237-0.571c-0.058-0.125-0.135-0.242-0.184-0.367c-0.29-0.813-0.426-1.664-0.426-2.543
		c0-1.702,0.522-3.462,1.538-4.96C109.745,108.386,110.712,107.419,111.786,106.626"/>
	<path style="fill:#FFEDB8;" d="M121.465,125.463c0.005-0.329,0.019-0.648,0.019-0.648c0.223-3.365,1.939-6.43,4.777-8.606
		c1.049-1.809,2.582-3.385,4.555-4.574c4.09-2.476,9.196-2.881,13.335-1.044c4.424,1.954,7.232,6.663,7.745,12.33
		c0.522-1.528,1.088-3.104,1.722-4.806c2.224-5.87,6.372-13.867,11.362-19.823l-18.673-18.673
		c-4.971,3.626-13.315,6.682-28.396,8.751c-0.576,0.078-1.238,0.146-1.944,0.194c-0.846,0.986-1.291,2.118-0.691,3.268l2.364,2.959
		c0,0,2.287,2.505,2.848,2.63c0,0,1.77,1.219,2.181,2.466c0.353,1.044,1.204,0.735,2.108,2.379c0.15,0.078,0.285,0.165,0.43,0.29
		c0.715,0.464,1.421,1.373,1.6,1.789c0,0,0.866,1.363,0.054,2.708c0,0,0.135,2.843-0.483,3.22c-0.029,0.02-0.049-0.039-0.073-0.039
		c-0.305,0.918-0.71,1.808-1.271,2.563c-0.309,0.416-0.628,0.783-0.962,1.141l-1.746,3.597c-3.597,7.446-10.443,26.39-12.232,32.134
		c-0.135,0.415-0.165,0.705-0.165,0.86c0,0.039,0.005,0.048,0.005,0.067c0.073,0.039,0.247,0.116,0.663,0.146
		c0.725,0.048,2.388-0.522,4.303-1.809c-0.087-1.016-0.155-2.117-0.155-3.298c0-1.701,0.102-3.461,0.338-5.057
		C115.837,135.472,118.226,129.902,121.465,125.463"/>
	<path style="fill:#FFEDB8;" d="M108.14,92.808c-0.02,0.532,0.106,1.073,0.479,1.625l3.66,5.047c0,0,0.619,0.967,1.586,1.519
		c0.242,0.087,0.464,0.184,0.735,0.193c0,0,0.745,0.048,1.223-0.116c0.111-0.039,0.218-0.039,0.324-0.067
		c0.029-0.048,0.058-0.087,0.087-0.136c0.387-0.58,0.735-1.18,0.957-1.479c0.092-0.135,0.174-0.232,0.228-0.261
		c0.072-0.048,0.159-0.116,0.222-0.203c0.203-0.338,0.237-0.88-0.392-1.586c-0.188-0.213-1.668-1.896-2.118-2.408l0,0l-0.155-0.146
		h-0.02l-2.698-2.611c-0.077-0.058-0.165-0.135-0.271-0.242c-0.261-0.212-1.325-1.17-1.489-2.408
		C109.407,90.207,108.275,91.28,108.14,92.808"/>
	<path style="fill:#FFEDB8;" d="M80.373,137.29c-0.663-0.029-1.281-0.106-1.871-0.213l1.223,1.238
		C79.942,137.977,80.15,137.619,80.373,137.29"/>
	<path style="fill:#FFEDB8;" d="M129.878,142.561c0,2.146,0.455,3.674,1.055,3.964c0.048-0.009,0.115-0.067,0.174-0.097
		c1.131-1.808,2.282-4.139,3.123-6.749c-1.378-0.097-2.669-0.426-3.896-0.89C130.043,140.133,129.878,141.438,129.878,142.561"/>
	<path style="fill:#FFEDB8;" d="M136.589,123.472c-0.188-0.106-0.353-0.174-0.513-0.223c0,0.029,0,0.068,0,0.097
		c0,0.986,0.329,1.915,0.968,2.659c0.067,0.077,0.174,0.126,0.251,0.193c0-0.106,0.01-0.232,0.01-0.329
		C137.305,124.032,136.763,123.568,136.589,123.472"/>
	<path style="fill:#FFEDB8;" d="M174.834,141.845c-0.208,0.223-0.406,0.444-0.619,0.657c-0.725,0.899-1.532,1.818-2.379,2.736
		l3.196-3.2C174.975,141.971,174.896,141.912,174.834,141.845"/>
	<path style="fill:#FFEDB8;" d="M97.938,133.702c-0.29,0.28-0.57,0.609-0.86,0.909c-3.245,3.994-6.218,8.646-8.055,13.064
		l3.583,3.606c1.852-5.473,5.033-13.673,7.925-20.567c-0.6,0.618-1.199,1.228-1.799,1.904
		C98.513,133.006,98.267,133.383,97.938,133.702"/>
	<path style="fill:#FFEDB8;" d="M136.918,180.177c-4.313,1.373-8.287,2.659-11.812,3.829l3.979,4.013"/>
	<path style="fill:#FFEDB8;" d="M140.588,153.12c-4.134,5.521-9.642,9.438-15.777,8.597c-3.094-0.426-5.425-1.741-7.083-3.965
		c-3.225,3.152-6.986,6.141-10.675,8.074l1.363,1.373c7.528-1.896,15.24-3.839,22.904-5.772c10.994-2.775,22.076-5.561,32.539-8.2
		l5.497-5.503c-3.814,3.53-8.427,6.46-13.378,6.489c-2.485,0.019-4.743-0.919-6.368-2.65c-1.619-1.711-2.509-4.109-2.509-6.682
		c0-0.223,0.01-0.444,0.02-0.677C145.369,147.54,143.155,150.664,140.588,153.12"/>
	<polyline style="fill:#FFFFFF;" points="121.987,222.096 129.573,229.687 137.121,222.096 137.121,214.389 121.978,214.389 	"/>
	<path style="fill:#231F20;" d="M232.293,119.227c-0.28-3.607-2.166-7.891-3.771-11.43l-1.208-2.756
		c-0.193-0.474-0.319-0.958-0.319-1.509c0-0.773,0.251-1.673,0.929-2.872l2.253-4.003l-15.685,2.775l-0.465,0.396
		c-0.222,0.194-0.425,0.474-0.633,0.706l-56.275-56.279c0.475-0.996,0.981-2.272,1.499-3.975c0,0,3.355-1.238,7.722-2.05
		c1.542-0.281,5.023-0.929,5.023-0.929c-2.282-1.847-4.651-2.398-8.954-4.032c-1.997-0.754-3.839-1.441-3.839-1.441
		s0.783-3.094-3.104-4.845c-3.534-1.595-6.005-2.321-12.349-1.112c-1.281,0.242-2.398,0.58-3.418,0.967l-10.125-10.125l-0.904,0.909
		l-42.77,42.925c-0.619,0.416-1.209,0.851-1.726,1.315c-1.697,1.528-5.063,2.466-7.692,3.278c-2.464,0.773-5.113,1.625-7.714,2.108
		l0.106-0.058c-8.123,1.093-21.99,1.189-27.241,1.654c-3.868,0.348-4.453,0.193-5.976,1.915c0,0-1.035,0.087-2.069,1.953
		c-0.58,0.213-3.365,0.909-1.213,1.973c-10.61,2.485-3.462,3.558-1.519,3.945c0,0,0.672,1.122,4.478,0.938
		c0,0,0.396,0.677,3.844,0.222c0,0,0.677,2.998,10.018,1.238c7.833-1.876,16.526-3.065,20.355-4.071c0.005,0,0.005,0,0.005,0
		L48.846,97.74c-2.388,0.367-4.709,1.15-6.89,2.35c-2.78,1.538-5.086,3.694-6.822,6.199c-3.017,2.659-5.154,6.15-6.121,9.94
		c-1.131,1.199-2.214,2.417-3.24,3.675c-7.837,8.268-12.982,17.841-14.548,27.414c-0.433,2.659-0.641,5.3-0.641,7.862
		c0,7.938,2.041,15.201,5.85,20.287c3.387,4.536,8.101,7.302,13.647,7.988c11.019,1.383,20.428-4.661,27.27-13.258
		c1.378-1.383,2.645-2.911,3.844-4.487l10.695,10.725c-18.412,4.68-31.795,8.122-34.261,8.896l-3.423,1.063l0.063,0.067
		l-3.186,3.588l-0.135,0.038l8.48,8.481l1.02-0.106c13.678-1.373,25.408,7.407,29.817,11.246l1.489,1.306l1.436-1.383
		c5.113-4.913,12.153-8.878,19.454-12.358l36.93,37.074l74.87-74.875c10.725-3.249,18.127-5.512,19.654-6.102
		c4.289-1.644,7.379-4.371,9.467-7.465c4.502-3.984,6.576-9.467,6.576-14.128c0-0.329-0.01-0.667-0.029-0.986
		C239.787,125.744,236.906,121.653,232.293,119.227 M211.851,102.604c-0.102,0.165-0.203,0.29-0.305,0.464l-0.313,0.058
		l-0.455,0.396c-2.069,1.818-3.685,5.309-5.618,9.728l-1.117-1.112c0.005-0.174,0.034-0.338,0.034-0.512
		c0-0.774-0.072-1.519-0.232-2.224c-1.01-4.69-4.37-7.05-9.056-6.518l-7.615-7.62c0.049-0.426,0.136-0.851,0.164-1.267
		c0.015-0.232,0.029-0.474,0.029-0.706c0-2.398-0.851-4.38-2.417-5.618c-1.615-1.286-3.84-1.596-6.286-0.919l-23.208-23.208
		c0.165-1.248,0.247-2.746,0.116-4.497c-0.503-7.136-1.127-5.057-1.049-10.134c0.015-0.851,0.517-1.305,1.267-2.369
		C173.025,63.788,195.32,86.078,211.851,102.604z M204.057,115.765c-1.296,2.959-2.736,6.111-4.395,8.916
		c-0.991,1.683-1.978,3.153-2.94,4.439c-1.929,1.75-3.708,2.553-5.265,2.33c-0.024,0-0.039-0.01-0.068-0.01
		c1.437-1.034,2.844-2.224,4.14-3.713c0.561-0.639,1.063-1.306,1.547-1.982c0.58-0.542,1.16-1.083,1.716-1.712
		c2.36-2.688,3.999-5.783,4.768-8.761C203.729,115.445,203.883,115.6,204.057,115.765z M191.814,103.522
		c-4.235,1.363-8.055,4.342-10.99,8.335c-0.392,0.358-0.749,0.754-1.116,1.151c-4.207,4.438-7.176,10.705-7.949,17.647
		c0,0-0.02,1.422-0.029,2.446c-1.488,1.489-2.968,2.718-4.129,3.211c-1.624,0.677-2.456,0.551-2.62,0.454
		c-0.049-0.028-0.15-0.231-0.179-0.647c-0.005-0.059-0.015-0.146-0.015-0.242c0-0.821,0.28-3.365,1.963-9.621
		c0.444-0.358,0.759-0.619,0.759-0.619c2.746-2.369,5.188-4.941,7.335-7.601c1.663-1.721,3.172-3.52,4.545-5.348
		c3.549-4.729,6.044-9.68,7.214-14.379C188.387,100.099,190.122,101.83,191.814,103.522z M114.899,148.933
		c-1.915,1.286-3.578,1.856-4.303,1.809c-0.416-0.029-0.59-0.106-0.663-0.146c0-0.02-0.005-0.028-0.005-0.067
		c0-0.155,0.029-0.445,0.165-0.86c1.789-5.744,8.635-24.688,12.232-32.134l1.746-3.597c0.333-0.358,0.653-0.726,0.962-1.141
		c0.561-0.754,0.967-1.644,1.271-2.563c0.024,0,0.044,0.058,0.073,0.039c0.618-0.377,0.483-3.22,0.483-3.22
		c0.813-1.344-0.054-2.708-0.054-2.708c-0.179-0.416-0.885-1.325-1.6-1.789c-0.145-0.125-0.28-0.212-0.43-0.29
		c-0.904-1.644-1.755-1.334-2.108-2.379c-0.411-1.247-2.181-2.466-2.181-2.466c-0.561-0.125-2.848-2.63-2.848-2.63l-2.364-2.959
		c-0.6-1.15-0.155-2.282,0.691-3.268c0.706-0.048,1.368-0.116,1.944-0.194c15.081-2.069,23.425-5.125,28.396-8.751
		c5.338-3.907,6.778-8.461,8.451-13.142c6.711,6.701,14.095,14.089,21.322,21.322c-3.074,1.615-6.063,4.477-8.756,7.91
		c-0.798,0.793-1.581,1.663-2.345,2.582c-4.99,5.957-9.139,13.954-11.362,19.823c-0.634,1.702-1.199,3.278-1.722,4.806
		c-0.513-5.667-3.321-10.376-7.745-12.33c-4.139-1.837-9.245-1.431-13.335,1.044c-1.973,1.189-3.506,2.766-4.555,4.574
		c-2.838,2.176-4.555,5.241-4.777,8.606c0,0-0.014,0.319-0.019,0.648c-3.24,4.439-5.628,10.008-6.382,15.115
		c-0.237,1.596-0.338,3.355-0.338,5.057C114.745,146.815,114.812,147.917,114.899,148.933z M107.889,117.002
		c0.048,0.125,0.125,0.242,0.184,0.367l-0.237,0.571c-0.343,0.706-0.721,1.518-1.117,2.388l-1.765,0.377l-0.372,0.928
		c-0.6,1.218-1.291,2.727-2.031,4.4c-0.097-0.909-0.396-1.799-1.016-2.504c-0.802-0.919-2.35-2.911-2.746-3.694
		c-0.551-1.073-1.46-1.798-2.572-2.06c-1.218-0.29-2.534,0.02-3.718,0.88c-2.383,1.741-5.362,1.992-9.36,0.803
		c-3.776-1.122-6.237-0.165-7.325,2.843l-0.094,0.581c-0.899,0.232-1.644,0.706-2.224,1.431c-0.024-1.982-0.174-3.81-0.377-5.57
		c-0.745-6.401-2.727-11.323-5.933-14.824c4.956-4.961,10.397-10.405,15.958-15.965c1.383-0.087,2.853-0.193,4.54-0.329
		c0,0,7.664,0.638,15.612,0.938c0.092,0.009,0.174,0.009,0.261,0.009c0.271,0.213,0.518,0.503,0.609,0.871
		c-0.039,0.309-0.155,0.638-0.469,1.015c-0.711,0.871-0.711,1.712-0.45,2.427c0.3,1.189,1.431,2.06,1.431,2.06
		s7.861,7.91,8.316,8.433c0.068,0.067,0.097,0.135,0.136,0.212c-0.15,0.416-0.232,0.909-0.271,1.431
		c-0.174,0.213-0.358,0.377-0.445,0.474c-0.411,0.406-0.58,0.783-0.628,1.131c-1.074,0.793-2.041,1.76-2.785,2.872
		c-1.015,1.499-1.538,3.259-1.538,4.96C107.463,115.339,107.599,116.19,107.889,117.002z M113.947,75.963
		c0,0-3.767,2.669-20.056,5.85c-7.896,1.547-11.174,0.783-11.174,0.783s1.194-1.412,2.708-1.876c0,0-1.344,0.813-1.295,1.296
		C84.129,82.016,94.346,83.302,113.947,75.963z M109.707,74.967c-19.311,5.009-23.078,3.897-23.75,3.839
		c0.271-1.16,2.176-2.427,2.176-2.427C84.207,80.682,109.707,74.967,109.707,74.967z M91.624,74.329
		c2.679,1.393,15.119-1.228,15.119-1.228c-13.108,3.52-16.86,1.798-16.86,1.798c0.793-1.238,2.398-2.06,2.398-2.06
		C91.135,73.864,91.624,74.329,91.624,74.329z M108.324,69.068l-2.132,1.867c0,0,4.511,0.841,13.862-2.205
		c0,0-6.155,3.617-15.603,2.756c0,0,0.977-0.947,2.249-1.692C98.857,70.896,95.1,70.199,95.1,70.199
		c1.059-1.789,4.23-2.814,4.23-2.814c-1.615,0.996-2.099,1.934-2.099,1.934C99.137,70.722,108.324,69.068,108.324,69.068z
		 M114.87,65.819c-8.171,2.988-12.121,1.344-12.121,1.344c1.818-2.389,6.875-3.249,6.875-3.249
		c-4.182,1.354-5.227,2.862-5.227,2.862C107.057,67.888,114.87,65.819,114.87,65.819z M118.419,74.638
		c3.999-0.125,6.962-3.606,6.962-3.606C123.399,75.054,118.419,74.638,118.419,74.638z M128.814,71.814
		c-2.592,4.371-6.063,3.694-6.063,3.694C125.729,75.044,128.814,71.814,128.814,71.814z M112.675,73.468c0.092,0,0.135,0,0.164,0
		c0.024,0,0.029,0,0,0C112.786,73.468,112.675,73.468,112.675,73.468c6.155-0.503,9.844-3.694,9.844-3.694
		C121.378,73.188,112.675,73.468,112.675,73.468z M114.841,92.499c0.019,0.029,0.754,0.948,1.393,1.741c-0.406,0-0.663,0-0.827,0
		c-0.343-0.329-2.543-2.457-2.543-2.457c-0.373-0.29-1.204-1.083-1.306-1.943c-0.005-0.058-0.009-0.116-0.009-0.174
		c0-0.28,0.111-0.542,0.275-0.812c0.135-0.058,0.251-0.106,0.353-0.145c1.04-0.01,1.997-0.048,2.906-0.097
		c-0.295,0.416-0.551,0.851-0.677,1.315c-0.078,0.28-0.116,0.551-0.116,0.832C114.29,91.367,114.474,91.957,114.841,92.499z
		 M111.989,91.938c0.106,0.106,0.193,0.184,0.271,0.242l2.698,2.611h0.02l0.155,0.146l0,0c0.45,0.512,1.929,2.195,2.118,2.408
		c0.628,0.706,0.595,1.248,0.392,1.586c-0.063,0.087-0.15,0.155-0.222,0.203c-0.053,0.029-0.136,0.125-0.228,0.261
		c-0.222,0.3-0.57,0.899-0.957,1.479c-0.029,0.048-0.058,0.087-0.087,0.136c-0.106,0.029-0.212,0.029-0.324,0.067
		c-0.479,0.165-1.223,0.116-1.223,0.116c-0.271-0.01-0.493-0.106-0.735-0.193c-0.967-0.551-1.586-1.519-1.586-1.519l-3.66-5.047
		c-0.373-0.551-0.498-1.093-0.479-1.625c0.135-1.528,1.267-2.602,2.359-3.278C110.664,90.768,111.728,91.725,111.989,91.938z
		 M113.217,110.62c0-0.01,0.01-0.029,0.01-0.039c1.711-0.213,2.195-2.727,2.461-3.046c0.885-1.015,0.624-1.76,0.735-2.224
		c0.628-0.135,1.122-0.338,1.465-0.532c0.368,0.01,0.716,0.078,1.044,0.193c1.325,0.822,2.094,2.263,2.094,2.263
		c0.053-0.203,0.102-0.377,0.15-0.551c0.464,0.58,0.72,1.054,0.72,1.054c0.368-1.508,0.875-2.06,0.305-3.026
		c0.696-0.087,1.267,0.222,1.736,0.735c0.024,0.029,0.043,0.067,0.072,0.106c0.102,0.251,0.232,0.483,0.29,0.783
		c0.281,1.566-0.232,3.616-1.247,4.98c-1.625,2.186-4.453,4.197-7.495,3.288c-0.957-0.29-1.702-1.044-2.088-2.127
		c-0.121-0.348-0.184-0.715-0.232-1.093C113.347,110.93,113.26,110.678,113.217,110.62z M155.436,39.574l0.798-1.721l-2.548-0.377
		c6.663-0.628,14.012-0.396,14.012-0.396C159.681,37.728,155.436,39.574,155.436,39.574z M156.635,33.917l-0.338-2.679
		c0.193,0.068,1.527,1.286,1.527,1.286s0.981,0.696,1.446,0.793c3.636,0.783,7.673,2.514,8.572,3.143
		c0.401,0.28,0.483,0.416,0.483,0.416c-7.422-1.17-14.713-0.31-14.713-0.31C155.311,34.769,156.635,33.917,156.635,33.917z
		 M148.885,30.542c1.45,0.474,2.645,2.408,2.645,2.408c0.411,0.435,0.092,0.619-0.174,0.532c-0.262-0.087-1.05-0.155-1.05-0.155
		c-0.459-1.499-1.185-1.953-1.185-1.953c-1.102-0.89-3.104-0.735-3.539,1.315c-0.213,1.025,0.319,2.118,1.383,2.301
		c0.822,0.155,1.982,0.078,2.669-0.551c0.252-0.242,0.392-0.039,0.106,0.251c-0.377,0.387-1.522,1.344-3.041,0.977
		c-0.855-0.203-2.094-1.267-2.171-3.25C144.528,32.418,146.018,29.334,148.885,30.542z M147.618,31.625
		c1.552,0.261,1.401,1.625,1.401,1.625l-0.672-0.165C148.531,31.925,147.618,31.625,147.618,31.625z M145.747,53.867
		c-1.112,0.213-2.862,0.561-2.862,0.561c4.457,2.088,7.232,4.864,7.232,4.864c-1.489-0.435-3.554-0.251-3.554-0.251
		c1.32,0.677,2.22,1.547,2.853,2.447c0.373-0.31,0.624-0.522,0.624-0.522l-0.744-0.387c4.893-3.974,3.49-6.74,3.49-6.74
		c0.271,0.251,0.46,0.532,0.6,0.832v-0.01v0.01c1.417,2.717,1.847,6.624-0.773,13.963c-0.266,0.735-0.565,1.325-0.875,1.847
		c-2.19,5.154-7.05,9.254-15.603,12.716c-4.507,1.818-9.637,2.911-14.534,3.568c-0.967,0.165-1.953,0.31-2.969,0.416
		c-1.547,0.164-3.032,0.29-4.458,0.377c-0.416,0.02-0.827,0.048-1.228,0.068c-0.803,0.145-1.393,0.367-1.813,0.551
		c-1.271,0.784-3.283,2.272-3.776,4.11c-0.077,0.3-0.116,0.58-0.116,0.861c0,0.638,0.193,1.247,0.595,1.847
		c0.014,0.01,1.668,2.292,2.693,3.704c-0.542,0-0.875,0-1.073,0c-0.377-0.367-4.284-4.245-4.284-4.245
		c-0.382-0.29-1.214-1.093-1.311-1.953c-0.01-0.058-0.015-0.106-0.015-0.165c0-0.367,0.146-0.715,0.426-1.073
		c0.493-0.59,0.638-1.131,0.638-1.557c0-0.174-0.029-0.338-0.063-0.474c-0.227-0.832-0.967-1.325-1.417-1.557
		c-1.016-0.048-1.856-0.097-2.495-0.145c-0.097,0-0.169-0.01-0.251-0.02v0.02c-0.861-0.039-1.542-0.078-1.673-0.078
		c-0.377-0.039-0.532-0.368-0.348-0.551c0.078-0.097,0.59-0.251,1.402-0.474l0.01-0.02l0.764-0.203l2.041-0.522l2.862-0.735
		l0.165-0.02c0.474-0.116,0.952-0.242,1.45-0.367c8.64-2.466,21.506-6.663,22.541-10.105c0,0,4.772-1.238,5.86-5.212
		c-1.412,0.174-2.471-0.368-2.775-0.88c0.038,0.019,0.067,0.029,0.106,0.048c-0.049-0.039-0.097-0.078-0.146-0.116
		c-3.191,1.905-4.506-0.938-4.506-0.938c0.038,0.048,0.087,0.077,0.125,0.125c-0.043-0.048-0.082-0.106-0.125-0.164
		c-2.302,1.005-3.559-1.006-3.54-1.325c0.02,0.029,0.048,0.048,0.073,0.077c-0.024-0.039-0.053-0.068-0.073-0.116
		c-2.045,0.726-2.911-1.083-2.891-1.392c0.019,0.029,0.039,0.048,0.058,0.087c-0.01-0.048-0.02-0.097-0.034-0.145
		c-2.016,0.754-2.693-0.89-2.722-1.306c0,0,0,0,0-0.01c0-0.019-0.009-0.039-0.009-0.048c0,0,0.009,0,0.009,0.01
		c-0.009-0.165,0-0.338,0.063-0.542c0.706-2.127,4.821-3.723,4.821-3.723l-0.88,1.035c4.149-1.954,7.088-2.418,7.088-2.418
		l-1.006,1.344c4.941-1.924,8.723-0.773,10.569,0.078c-2.108-1.992-7.818-3.162-7.818-3.162l0.895,0.986
		c-2.446-1.17-5.202-1.257-5.202-1.257l0.803,0.793c-2.94-0.909-5.212-0.203-5.212-0.203l0.74,0.803
		c-0.44-0.106-5.454-0.377-5.454-0.377s1.615-2.534,10.245-2.427l-1.557-1.006c0,0,3.955,0.193,7.021,1.199l-2.804-1.625
		c0,0,7.001,1.199,8.862,2.746c0,0-0.141-0.628-2.307-2.591c-0.614-0.551-2.258-1.721-2.258-1.721s-0.991-1.605,0.266-4.11
		c0,0-0.493,1.392,1.954,3.81C141.714,53.083,144.47,53.306,145.747,53.867z M129.573,20.331c0.285,0.28,3.119,3.114,7.654,7.659
		c-6.281,3.646-6.973,10.183-11.652,13.751c-4.468,3.414-3.23,3.384-8.147,4.941c-16.946,5.376-19.736,8.819-19.736,8.819
		c-0.614,0.28-2.548,0.841-4.85,1.702C112.462,37.505,128.872,21.037,129.573,20.331z M74.916,67.666
		c4.775-1.586,8.647-2.63,10.872-4.4c0,0,8.321-5.686,18.523-7.562c0,0-1.334,1.499-1.393,1.847c0,0,4.661,0.165,5.981,1.528
		c0,0-13.233,3.181-18.668,10.337c0,0-3.8,2.127-4.39,4.303c0,0-2.93,2.379-3.641,3.791c0,0-6.675-2.794-7.216-2.591
		c0,0,4.649-0.88,4.963-0.986c0,0-5.611-1.025-9.256-0.938c0,0,5.038-0.426,5.413-0.628c0,0-8.362-1.334-9.377-1.18
		c0,0,4.671-0.58,5.058-0.687c0,0-4.429-0.338-6.663-0.338l4.579-0.493l-2.867-0.59C66.832,69.078,73.292,68.208,74.916,67.666z
		 M44.272,69.358c4.071-0.29,21.003-0.647,21.003-0.647s-21.39,0.86-25.239,1.373C40.037,70.083,40.196,69.658,44.272,69.358z
		 M43.406,70.519c5.498-0.396,20.418-1.103,20.418-1.103s-24.069,1.644-27.308,2.369C36.517,71.785,35.434,71.099,43.406,70.519z
		 M35.375,72.984c4.366-0.996,27.937-2.775,27.937-2.775s-26.95,2.94-28.797,3.472C34.515,73.681,34.109,73.274,35.375,72.984z
		 M28.413,76.891c7.929-0.58,39.212-3.858,39.212-3.858c-10.661,1.547-31.553,3.907-34.367,4.235
		C30.439,77.606,28.413,76.891,28.413,76.891z M34.244,78.554c7.252-0.677,32.013-4.052,35.885-4.574
		c0.329-0.048,0.561-0.087,0.561-0.087c-0.169,0.039-0.358,0.077-0.522,0.106c-11.609,2.282-28.178,4.197-29.986,4.506
		C37.948,78.883,34.244,78.554,34.244,78.554z M68.988,76.127c-3.887,0.745-7.281,1.334-10.245,1.809
		c-3.332,0.57-7.397,1.247-12.315,2.05c0,0-4.729,0.861-5.599-0.077c0,0,4.448,0.203,17.914-1.973
		C63.588,77.113,66.871,76.523,68.988,76.127c1.044-0.193,2.089-0.396,3.21-0.609C72.199,75.518,71.266,75.711,68.988,76.127z
		 M73.853,76.272c2.589,0.938,5.277,1.809,7.656,2.611c0,0-7.173,1.885-10.219,6.866c-0.948,1.537-1.76,2.823,8.023,2.417
		l-13.976,13.982c-1.426-1.17-2.993-2.166-4.792-2.911c-2.601-1.073-5.26-1.615-7.881-1.702
		C59.255,90.922,66.503,83.65,73.853,76.272z M62.732,163.621c2.398-3.471,4.38-7.232,5.938-11.033l2.582,2.602
		c-0.967,2.853-1.585,5.502-1.605,7.648c0,0.039,0,0.078,0,0.116c0,3.732,1.47,6.644,4.148,8.21c2.85,1.663,6.641,1.537,9.89-0.339
		c0.628-0.357,1.262-0.783,1.886-1.218l2.669,2.688c-4.69,1.18-9.196,2.33-13.468,3.403
		C70.705,171.628,66.658,167.566,62.732,163.621z M69.675,149.968c0.754-2.128,1.383-4.245,1.837-6.306
		c1.857-1.198,3.781-2.949,5.766-5.637c0.324-0.3,0.653-0.629,0.982-0.968c0.077,0.01,0.164,0.01,0.242,0.02
		c0.59,0.106,1.208,0.184,1.871,0.213c-0.223,0.329-0.43,0.687-0.648,1.025c-2.896,4.477-5.602,9.534-7.487,14.233
		C71.372,151.669,70.526,150.818,69.675,149.968z M149.609,151.563c1.625,1.731,3.883,2.669,6.368,2.65
		c4.951-0.029,9.563-2.959,13.378-6.489c0.871-0.812,1.697-1.644,2.48-2.485c0.847-0.918,1.654-1.837,2.379-2.736
		c0.213-0.213,0.411-0.435,0.619-0.657c0.063,0.067,0.141,0.126,0.198,0.193c2.151,2.427,5.179,4.003,8.737,4.409
		c6.575,0.745,13.648-3.123,19.407-10.607c0.02-0.029,0.039-0.059,0.054-0.087c0.604-0.6,1.189-1.229,1.774-1.905
		c0.058,0.164,0.164,0.28,0.231,0.435c-3.162,3.172-7.021,7.03-11.318,11.334c-8.747,2.214-19.055,4.825-30.06,7.61
		c-10.463,2.64-21.545,5.425-32.539,8.2c-7.664,1.934-15.375,3.877-22.904,5.772c-5.913,1.489-11.715,2.959-17.29,4.361
		c-1.156-1.16-2.316-2.33-3.477-3.501c1.76-1.392,3.433-2.92,4.864-4.38c1.644,2.601,4.303,4.148,6.682,4.303
		c2.398,0.165,5.105-0.716,7.857-2.156c3.689-1.934,7.451-4.922,10.675-8.074c1.659,2.224,3.989,3.539,7.083,3.965
		c6.135,0.841,11.643-3.075,15.777-8.597c2.567-2.456,4.781-5.58,6.532-8.916c-0.01,0.232-0.02,0.454-0.02,0.677
		C147.101,147.453,147.99,149.852,149.609,151.563z M222.188,138.112c-0.411,0.154-0.827,0.318-1.276,0.474
		c-1.335,0.444-9.733,2.62-22.135,5.792l7.886-7.9c1.504,1.625,3.728,2.659,6.803,2.862c5.531,0.367,9.999-2.979,12.716-7.03
		c0.165,0.29,0.416,0.562,0.416,0.89c0,0.029,0,0.068,0,0.097c-0.01,0.155-0.053,0.319-0.067,0.475
		C225.205,135.085,223.755,136.536,222.188,138.112z M95.104,196.122c3.075-1.411,6.15-2.756,9.129-4.042l2.553-1.121l20.346,20.48
		h-8.104l0.01,8.703C112.839,213.925,104.393,205.444,95.104,196.122z M109.3,189.856l1.929-0.852
		c2.335-1.054,7.306-2.813,13.876-4.999c3.525-1.17,7.5-2.456,11.812-3.829c9.806-3.114,21.245-6.644,32.549-10.096
		c-19.92,19.93-39.183,39.202-40.023,40.053C128.887,209.583,120.537,201.17,109.3,189.856z M137.121,222.096l-7.548,7.591
		l-7.586-7.591l-0.01-7.707h15.144V222.096z M140.061,220.229v-8.79h-2.939h-5.367l42.916-42.944
		c7.629-2.32,15.065-4.574,21.757-6.595c0.958-0.29,1.896-0.57,2.824-0.852C178.499,181.791,153.782,206.508,140.061,220.229z
		 M226.472,147.376c-1.799,0.696-13.151,4.129-27.521,8.48c-30.471,9.216-76.519,23.15-85.483,27.211l-6.953,3.065
		c-10.99,4.738-23.42,10.135-31.565,17.871c-4.753-4.11-16.933-13.064-31.346-11.691c-0.164-0.174-4.163-4.168-4.767-4.768
		c6.305-1.856,50.349-12.958,93.082-23.73c44.481-11.207,86.498-21.796,89.776-22.889c6.895-2.32,10.27-5.86,10.617-11.159
		c0.01-0.087,0.01-0.184,0.01-0.271c0-1.702-1.063-3.317-3.104-4.7l-0.29-0.203l-0.145,0.329c-1.925,4.381-6.354,8.626-11.904,8.259
		c-2.514-0.165-4.356-0.89-5.463-2.147c-1.04-1.18-1.47-2.833-1.325-5.038c0.203-3.075,4.245-7.388,11.053-7.156l0.455,0.02
		l-1.576-3.704c-0.948-2.06-1.848-4.013-1.809-5.521l0.01-0.59l-0.483,0.338c-1.566,1.122-3.637,4.913-6.015,9.303
		c-2.195,4.032-4.676,8.616-7.243,11.952c-5.222,6.789-11.479,10.309-17.174,9.66c-4.042-0.454-7.268-2.678-8.849-6.121
		l-0.222-0.464l-0.29,0.416c-6.219,8.81-13.045,13.886-18.731,13.925c-1.813,0.01-3.394-0.639-4.555-1.866
		c-1.296-1.383-1.963-3.414-1.817-5.58c0.203-3.143,0.687-6.362,1.479-9.834l0.12-0.532l-5.681,2.156l-0.077,0.3l-0.02,0.136
		c-1.968,10.396-10.622,24.078-20.259,22.754c-3.317-0.455-5.435-2.108-6.672-5.222l-0.179-0.436l-0.314,0.348
		c-5.173,5.551-13.156,11.914-18.625,11.556c-2.427-0.164-5.285-2.397-5.845-5.879l-0.102-0.629l-0.416,0.483
		c-2.553,3.027-6.803,7.04-10.545,9.187c-2.442,1.412-5.353,1.548-7.412,0.349c-1.354-0.793-2.966-2.505-2.928-6.18
		c0.053-6.643,6.515-19.281,12.733-27.675l0.377-0.503l-1.557,0.087c-2.001,0.136-5.019,0.329-6.286-0.59l-0.261-0.184l-0.165,0.271
		c-3.704,6.073-7.125,7.939-10.267,9.051l-0.165,0.059l-0.029,0.174c-1.963,13.935-14.95,40.102-36.108,37.462
		c-4.932-0.619-8.959-2.969-11.983-7.011c-4.642-6.208-6.414-16.033-4.738-26.273c1.699-10.425,7.845-20.917,17.283-29.533
		c0.962-5.144,4.264-9.66,8.935-12.242c5.023-2.775,10.869-3.036,16.468-0.735c9.022,3.713,12.658,13.741,11.097,30.683
		l-0.034,0.406l1.402-0.318c1.117-0.165,2.514-0.378,4.726-3.201c0.841-1.063,0.914-2.369,0.986-3.636l0.353-2.331
		c0.609-1.692,1.774-2.05,4.289-1.296c4.738,1.402,8.505,1.015,11.522-1.17c0.59-0.436,1.194-0.609,1.697-0.484
		c0.401,0.097,0.73,0.368,0.947,0.784c0.561,1.092,2.277,3.278,3.085,4.197c0.648,0.745,0.72,2.176-0.223,3.104
		c-6.663,6.605-14.142,17.648-14.78,26.283c-0.092,1.258,0.169,2.128,0.778,2.582c0.648,0.493,1.663,0.483,3.027-0.02
		c1.968-0.725,5.995-3.559,9.061-6.865c2.485-7.678,9.051-24.098,12.45-31.089c0.256-0.048,8.94-1.934,9.868-2.137
		c-3.699,7.823-10.352,26.245-12.126,31.921c-0.184,0.58-0.276,1.122-0.276,1.596c0,0.59,0.141,1.093,0.421,1.499
		c0.483,0.706,1.344,1.093,2.553,1.18c2.002,0.126,6.518-1.683,10.279-6.121l0.087-0.106l-0.024-0.126
		c-0.401-2.92-0.401-6.875,0-9.612c0.74-4.941,3.109-10.404,6.329-14.601c0.068-0.184,0.102-1.364,0.102-1.364
		c0.198-3.027,1.978-5.773,4.884-7.533c3.418-2.06,7.653-2.408,11.067-0.899c4.845,2.146,7.33,8.529,6.044,15.51l-0.088,0.493
		l0.484-0.164c1.6-0.541,3.896-1.576,5.85-2.61c1.073-3.346,2.244-6.818,3.742-10.783c3.308-8.751,11.634-23.585,19.906-26.109
		c1.784-0.551,3.283-0.406,4.327,0.416c1.059,0.841,1.576,2.35,1.45,4.235c-0.541,8.297-6.565,18.354-15.713,26.235L165,123.51
		c-1.373,4.623-2.844,10.434-2.659,12.793c0.092,1.219,0.551,2.069,1.354,2.572c1.121,0.677,2.804,0.58,4.864-0.29
		c2.746-1.16,6.353-4.98,8.809-8.19c0.063-0.203,0.106-3.172,0.106-3.172c1.199-10.821,8.442-20.21,16.846-21.806
		c3.8-0.735,6.334,0.871,7.117,4.497c0.773,3.597-0.996,8.5-4.502,12.494c-2.766,3.162-6.329,5.425-11.541,7.339l-0.31,0.106
		l0.141,0.29c0.972,2.069,2.954,3.337,5.884,3.752c4.304,0.609,8.993-3.307,13.935-11.652c2.021-3.414,3.704-7.282,5.193-10.686
		c1.938-4.438,3.606-8.287,5.415-9.863c0.028,0.019,7.784-1.344,9.883-1.712c-0.629,1.257-1.006,2.427-1.006,3.549
		c0,0.822,0.174,1.625,0.508,2.447l1.237,2.833c1.64,3.607,3.65,8.055,3.65,11.256c0,0.145,0,0.29-0.01,0.425l-0.01,0.203
		l0.194,0.087c4.506,1.915,7.262,5.618,7.547,10.163c0.024,0.28,0.034,0.561,0.034,0.852
		C237.68,137.377,234.271,144.378,226.472,147.376z M100.53,130.715c-2.892,6.895-6.073,15.095-7.925,20.567
		c-0.029,0.087-0.063,0.184-0.092,0.262c-2.031,1.683-3.945,2.9-4.883,3.239c-0.213,0.077-0.348,0.116-0.483,0.145
		c0-0.077-0.01-0.203-0.01-0.203c0.164-2.166,0.851-4.573,1.886-7.049c1.837-4.419,4.811-9.07,8.055-13.064
		c0.29-0.3,0.57-0.629,0.86-0.909c0.329-0.319,0.575-0.696,0.793-1.083C99.331,131.942,99.93,131.333,100.53,130.715z"/>
	<path style="fill:#231F20;" d="M54.184,138.509c-6.029-0.358-13.605-5.29-17.609-11.479l-0.208-0.319l-0.256,0.28
		c-4.627,4.951-6.421,11.256-7.731,15.85l-0.16,0.561c-1.296,4.545-4.56,19.698,8.017,23.817c0.184,0.048,4.284,1.16,9.447-1.799
		c6.702-3.829,11.836-12.436,15.25-25.558l0.087-0.319l-3.675-0.551 M47.366,161.039c-5.386,4.884-10.134,3.888-10.473,3.801
		c-6.024-1.973-7.62-7.165-7.62-12.116c0-3.337,0.73-6.576,1.32-8.646l0.16-0.561c0.532-1.866,1.204-4.032,2.108-6.247
		l17.923,17.986C49.677,157.539,48.522,159.454,47.366,161.039z M51.921,152.771c-4.748-4.768-9.138-9.167-12.934-12.986
		c3.776,2.775,8.002,4.651,11.792,4.883l2.901,0.445c0,0,0.561,0.087,0.89,0.135C53.739,148.092,52.849,150.576,51.921,152.771z"/>
	<path style="fill:#231F20;" d="M180.811,97.469c0.222-1.363-0.068-2.359-0.798-2.736c-0.783-0.406-1.881-0.02-2.926,1.025
		c-2.35,2.331-6.305,9.264-9.457,18.973l-1.16,3.626l0.821-0.754C174.698,110.794,179.882,103.078,180.811,97.469"/>
	<path style="fill:#231F20;" d="M197.723,113.686c0.349-1.393,0.131-2.514-0.6-3.143c-0.764-0.647-1.982-0.696-3.336-0.125
		c-2.307,0.967-7.519,6.256-8.848,12.484l-0.46,3.25l0.44-0.146C191.708,124.062,196.253,119.69,197.723,113.686"/>
	<path style="fill:#231F20;" d="M141.062,117.631c-1.437-0.813-2.887-0.89-4.202-0.203c-1.711,0.89-3.002,2.998-3.22,5.261
		c-0.184,1.818,0.367,3.559,1.528,4.922c1.218,1.422,2.959,2.263,4.902,2.379c0.01,0,1.489,0.058,1.489,0.058l0.053-0.222
		C143.682,122.891,143.503,119.014,141.062,117.631 M137.295,126.198c-0.077-0.067-0.184-0.116-0.251-0.193
		c-0.639-0.745-0.968-1.673-0.968-2.659c0-0.029,0-0.067,0-0.097c0.16,0.048,0.324,0.116,0.513,0.223
		c0.174,0.097,0.716,0.561,0.716,2.398C137.305,125.966,137.295,126.092,137.295,126.198z"/>
	<path style="fill:#231F20;" d="M54.938,108.145c-2.369-1.063-4.864-0.948-7.011,0.329c-2.659,1.586-4.4,4.681-4.661,8.288
		c-0.474,6.575,6.169,15.849,13.881,16.7l2.209,0.164l0.058-0.223C63.631,120.909,59.647,110.272,54.938,108.145 M45.708,117.447
		c0-0.174,0.005-0.338,0.014-0.503c0.078-1.035,0.358-1.992,0.716-2.882c1.33-0.609,2.775-0.628,4.226,0.029
		c0.488,0.222,0.996,0.657,1.494,1.228l-5.725,5.734C45.974,119.807,45.708,118.569,45.708,117.447z M55.16,130.443
		c-3.065-1.18-5.812-3.945-7.552-6.953c1.402-1.392,3.423-3.414,5.957-5.957c1.092,2.234,1.91,5.357,1.91,9.138
		C55.475,127.861,55.363,129.129,55.16,130.443z"/>
	<path style="fill:#231F20;" d="M130.816,130.976l-0.29-0.242l-0.165,0.339c-0.928,1.973-1.678,4.062-2.272,6.372
		c-1.024,3.927-1.314,10.521,2.253,11.518c0.619,0.174,1.33,0.028,2.108-0.436c3.075-1.837,6.798-8.51,8.138-14.572l0.082-0.349
		l-3.008-0.077C135.042,133.345,132.614,132.445,130.816,130.976 M131.106,146.428c-0.059,0.029-0.126,0.088-0.174,0.097
		c-0.6-0.29-1.055-1.817-1.055-3.964c0-1.122,0.165-2.428,0.455-3.771c1.228,0.464,2.519,0.793,3.896,0.89
		C133.389,142.289,132.237,144.62,131.106,146.428z"/>
	<path style="fill:#231F20;" d="M221.627,122.137c-2.843-0.29-5.72,0.406-7.33,1.76c-0.875,0.735-1.349,1.634-1.421,2.66
		c-0.121,1.895,1.683,2.881,3.413,3.007c1.654,0.116,2.983-0.3,3.955-1.218c1.263-1.189,1.886-3.172,1.848-5.89l-0.005-0.261"/>
	<path style="fill:#F37937;" d="M230.099,120.783l-0.194-0.087l0.01-0.203c0.01-0.135,0.01-0.28,0.01-0.425
		c0-3.201-2.011-7.649-3.65-11.256l-1.237-2.833c-0.334-0.822-0.508-1.625-0.508-2.447c0-1.122,0.377-2.292,1.006-3.549
		c-2.099,0.368-9.854,1.731-9.883,1.712c-1.809,1.576-3.477,5.425-5.415,9.863c-1.489,3.404-3.172,7.272-5.193,10.686
		c-4.941,8.345-9.631,12.261-13.935,11.652c-2.93-0.415-4.912-1.683-5.884-3.752l-0.141-0.29l0.31-0.106
		c5.212-1.914,8.775-4.177,11.541-7.339c3.506-3.994,5.275-8.896,4.502-12.494c-0.783-3.626-3.317-5.231-7.117-4.497
		c-8.403,1.596-15.646,10.985-16.846,21.806c0,0-0.043,2.969-0.106,3.172c-2.456,3.21-6.063,7.03-8.809,8.19
		c-2.061,0.87-3.743,0.967-4.864,0.29c-0.803-0.503-1.262-1.354-1.354-2.572c-0.185-2.359,1.286-8.171,2.659-12.793l4.158-3.442
		c9.147-7.881,15.172-17.938,15.713-26.235c0.126-1.886-0.392-3.394-1.45-4.235c-1.044-0.822-2.543-0.967-4.327-0.416
		c-8.272,2.524-16.599,17.358-19.906,26.109c-1.498,3.965-2.669,7.437-3.742,10.783c-1.953,1.034-4.25,2.069-5.85,2.61l-0.484,0.164
		l0.088-0.493c1.286-6.981-1.199-13.364-6.044-15.51c-3.414-1.509-7.649-1.161-11.067,0.899c-2.906,1.76-4.686,4.506-4.884,7.533
		c0,0-0.033,1.18-0.102,1.364c-3.22,4.197-5.589,9.66-6.329,14.601c-0.401,2.737-0.401,6.692,0,9.612l0.024,0.126l-0.087,0.106
		c-3.762,4.438-8.277,6.247-10.279,6.121c-1.208-0.087-2.069-0.474-2.553-1.18c-0.28-0.406-0.421-0.909-0.421-1.499
		c0-0.474,0.092-1.016,0.276-1.596c1.774-5.676,8.427-24.098,12.126-31.921c-0.928,0.203-9.612,2.089-9.868,2.137
		c-3.399,6.992-9.965,23.412-12.45,31.089c-3.065,3.307-7.093,6.141-9.061,6.865c-1.364,0.503-2.379,0.513-3.027,0.02
		c-0.609-0.454-0.87-1.324-0.778-2.582c0.638-8.635,8.118-19.678,14.78-26.283c0.943-0.928,0.871-2.359,0.223-3.104
		c-0.808-0.919-2.524-3.104-3.085-4.197c-0.217-0.416-0.546-0.687-0.947-0.784c-0.503-0.125-1.107,0.048-1.697,0.484
		c-3.017,2.185-6.784,2.572-11.522,1.17c-2.514-0.754-3.679-0.396-4.289,1.296l-0.353,2.331c-0.072,1.267-0.145,2.572-0.986,3.636
		c-2.212,2.823-3.609,3.036-4.726,3.201l-1.402,0.318l0.034-0.406c1.562-16.941-2.074-26.969-11.097-30.683
		c-5.599-2.301-11.444-2.041-16.468,0.735c-4.671,2.582-7.973,7.098-8.935,12.242c-9.438,8.616-15.583,19.108-17.283,29.533
		c-1.676,10.24,0.097,20.065,4.738,26.273c3.024,4.042,7.052,6.392,11.983,7.011c21.158,2.64,34.145-23.527,36.108-37.462
		l0.029-0.174l0.165-0.059c3.143-1.111,6.563-2.978,10.267-9.051l0.165-0.271l0.261,0.184c1.267,0.919,4.284,0.726,6.286,0.59
		l1.557-0.087l-0.377,0.503c-6.218,8.394-12.68,21.032-12.733,27.675c-0.039,3.675,1.574,5.387,2.928,6.18
		c2.06,1.199,4.97,1.063,7.412-0.349c3.742-2.146,7.992-6.159,10.545-9.187l0.416-0.483l0.102,0.629
		c0.561,3.481,3.418,5.715,5.845,5.879c5.469,0.358,13.451-6.005,18.625-11.556l0.314-0.348l0.179,0.436
		c1.238,3.113,3.355,4.767,6.672,5.222c9.637,1.324,18.291-12.358,20.259-22.754l0.02-0.136l0.077-0.3l5.681-2.156l-0.12,0.532
		c-0.793,3.472-1.276,6.691-1.479,9.834c-0.146,2.166,0.521,4.197,1.817,5.58c1.161,1.228,2.742,1.876,4.555,1.866
		c5.687-0.039,12.513-5.115,18.731-13.925l0.29-0.416l0.222,0.464c1.581,3.443,4.807,5.667,8.849,6.121
		c5.695,0.648,11.952-2.871,17.174-9.66c2.567-3.336,5.048-7.919,7.243-11.952c2.378-4.39,4.448-8.181,6.015-9.303l0.483-0.338
		l-0.01,0.59c-0.039,1.508,0.86,3.462,1.809,5.521l1.576,3.704l-0.455-0.02c-6.808-0.232-10.85,4.081-11.053,7.156
		c-0.145,2.205,0.285,3.858,1.325,5.038c1.106,1.258,2.949,1.982,5.463,2.147c5.551,0.367,9.979-3.878,11.904-8.259l0.145-0.329
		l0.29,0.203c2.041,1.382,3.104,2.998,3.104,4.7c0,0.087,0,0.184-0.01,0.271c-0.348,5.299-3.723,8.839-10.617,11.159
		c-3.278,1.093-45.295,11.682-89.776,22.889c-42.732,10.772-86.777,21.874-93.082,23.73c0.604,0.6,4.603,4.594,4.767,4.768
		c14.413-1.373,26.593,7.581,31.346,11.691c8.145-7.736,20.575-13.133,31.565-17.871l6.953-3.065
		c8.964-4.061,55.012-17.995,85.483-27.211c14.369-4.352,25.722-7.784,27.521-8.48c7.799-2.998,11.208-9.999,11.208-15.578
		c0-0.291-0.01-0.571-0.034-0.852C237.36,126.401,234.604,122.698,230.099,120.783 M167.63,114.73
		c3.152-9.709,7.107-16.642,9.457-18.973c1.045-1.044,2.143-1.431,2.926-1.025c0.729,0.377,1.02,1.373,0.798,2.736
		c-0.929,5.609-6.112,13.325-13.52,20.133l-0.821,0.754L167.63,114.73z M60.933,139.862c-3.413,13.122-8.548,21.729-15.25,25.558
		c-5.164,2.959-9.264,1.847-9.447,1.799c-12.576-4.119-9.313-19.272-8.017-23.817l0.16-0.561c1.31-4.594,3.104-10.898,7.731-15.85
		l0.256-0.28l0.208,0.319c4.003,6.188,11.58,11.12,17.609,11.479l3.162,0.483l3.675,0.551L60.933,139.862z M59.415,133.402
		l-0.058,0.223l-2.209-0.164c-7.712-0.852-14.355-10.125-13.881-16.7c0.261-3.607,2.002-6.702,4.661-8.288
		c2.146-1.276,4.642-1.392,7.011-0.329C59.647,110.272,63.631,120.909,59.415,133.402z M140.588,133.954
		c-1.34,6.063-5.063,12.735-8.138,14.572c-0.778,0.464-1.489,0.609-2.108,0.436c-3.567-0.996-3.277-7.591-2.253-11.518
		c0.595-2.311,1.345-4.399,2.272-6.372l0.165-0.339l0.29,0.242c1.798,1.47,4.226,2.369,6.846,2.553l3.008,0.077L140.588,133.954z
		 M141.612,129.825l-0.053,0.222c0,0-1.479-0.058-1.489-0.058c-1.943-0.116-3.685-0.957-4.902-2.379
		c-1.161-1.363-1.712-3.104-1.528-4.922c0.218-2.263,1.509-4.371,3.22-5.261c1.315-0.687,2.766-0.609,4.202,0.203
		C143.503,119.014,143.682,122.891,141.612,129.825z M184.479,126.15l0.46-3.25c1.329-6.228,6.541-11.517,8.848-12.484
		c1.354-0.57,2.572-0.522,3.336,0.125c0.73,0.629,0.948,1.75,0.6,3.143c-1.47,6.005-6.015,10.376-12.803,12.319L184.479,126.15z
		 M220.244,128.346c-0.972,0.918-2.301,1.334-3.955,1.218c-1.73-0.126-3.534-1.112-3.413-3.007c0.072-1.025,0.546-1.925,1.421-2.66
		c1.61-1.354,4.487-2.05,7.33-1.76l0.46,0.058l0.005,0.261C222.13,125.173,221.507,127.156,220.244,128.346z"/>
	<path style="fill:#F37937;" d="M113.468,112.477c0.387,1.083,1.131,1.837,2.088,2.127c3.042,0.909,5.87-1.102,7.495-3.288
		c1.015-1.364,1.528-3.414,1.247-4.98c-0.058-0.3-0.188-0.532-0.29-0.783c-0.029-0.039-0.048-0.078-0.072-0.106
		c-0.469-0.513-1.04-0.822-1.736-0.735c0.57,0.967,0.063,1.518-0.305,3.026c0,0-0.256-0.474-0.72-1.054
		c-0.048,0.174-0.097,0.348-0.15,0.551c0,0-0.769-1.44-2.094-2.263c-0.329-0.116-0.677-0.184-1.044-0.193
		c-0.343,0.193-0.836,0.396-1.465,0.532c-0.111,0.464,0.15,1.209-0.735,2.224c-0.266,0.319-0.75,2.833-2.461,3.046
		c0,0.009-0.01,0.029-0.01,0.039c0.043,0.058,0.13,0.31,0.019,0.764C113.284,111.761,113.347,112.128,113.468,112.477"/>
	<path style="fill:#F37937;" d="M115.083,88.611c-0.909,0.048-1.866,0.087-2.906,0.097c-0.102,0.039-0.218,0.087-0.353,0.145
		c-0.165,0.271-0.275,0.532-0.275,0.812c0,0.058,0.004,0.116,0.009,0.174c0.102,0.86,0.933,1.653,1.306,1.943
		c0,0,2.2,2.127,2.543,2.457c0.165,0,0.421,0,0.827,0c-0.638-0.793-1.374-1.712-1.393-1.741c-0.368-0.542-0.551-1.131-0.551-1.741
		c0-0.28,0.039-0.551,0.116-0.832C114.532,89.462,114.788,89.027,115.083,88.611"/>
	<path style="fill:#F37937;" d="M65.121,70.161c2.233,0,6.663,0.338,6.663,0.338c-0.387,0.106-5.058,0.687-5.058,0.687
		c1.016-0.154,9.377,1.18,9.377,1.18c-0.375,0.203-5.413,0.628-5.413,0.628c3.646-0.087,9.256,0.938,9.256,0.938
		c-0.314,0.106-4.963,0.986-4.963,0.986c0.542-0.203,7.216,2.591,7.216,2.591c0.71-1.412,3.641-3.791,3.641-3.791
		c0.59-2.176,4.39-4.303,4.39-4.303c5.435-7.156,18.668-10.337,18.668-10.337c-1.32-1.364-5.981-1.528-5.981-1.528
		c0.058-0.348,1.393-1.847,1.393-1.847c-10.202,1.876-18.523,7.562-18.523,7.562c-2.224,1.77-6.097,2.814-10.872,4.4
		c-1.625,0.542-8.084,1.412-8.084,1.412l2.867,0.59"/>
	<path style="fill:#FFEDB8;" d="M131.865,55.259l0.28,0.503c0,0,5.71,1.17,7.818,3.162c0.783,0.367,1.247,0.677,1.247,0.677
		C138.91,56.11,131.865,55.259,131.865,55.259"/>
	<path style="fill:#FFEDB8;" d="M118.714,56.507c0,0,5.014,0.271,5.454,0.377l-0.74-0.803
		C122.983,55.975,118.714,56.507,118.714,56.507"/>
	<path style="fill:#FFEDB8;" d="M127.427,54.931l0.411,0.561c0,0,2.756,0.087,5.202,1.257l-0.895-0.986
		C129.694,54.592,127.427,54.931,127.427,54.931"/>
	<path style="fill:#FFEDB8;" d="M148.739,73.188l-0.875-2.688c-0.348,2.108-1.276,4.323-1.963,5.725
		c0.174-0.677,0.353-1.779,0.28-3.268c0,0-0.682,2.03-3.22,5.086c0.328-0.687,0.561-1.509,0.42-2.292c0,0-1.609,2.563-4.665,5.348
		c-0.571,0.29-1.209,0.58-1.843,0.86c-0.188,0.097-0.42,0.203-0.71,0.338c-2.36,1.083-7.862,3.346-14.563,4.468
		c4.897-0.658,10.027-1.75,14.534-3.568c8.553-3.462,13.412-7.562,15.603-12.716C150.359,72.791,148.739,73.188,148.739,73.188"/>
	<path style="fill:#FFEDB8;" d="M123.032,55.656l0.396,0.425c0,0,2.272-0.706,5.212,0.203l-0.803-0.793
		C124.898,54.573,123.032,55.656,123.032,55.656"/>
	<path style="fill:#FFEDB8;" d="M130.874,75.18c0,0,4.096-1.083,6.092-6.257c0.426-0.174,0.871-0.387,1.325-0.715
		c2.49-1.779,4.399-5.851,4.399-5.851s-5.521,8.52-9.602,6.054c-0.039-0.02-0.068-0.029-0.106-0.048
		c0.305,0.512,1.363,1.054,2.775,0.88c-1.088,3.974-5.86,5.212-5.86,5.212c-1.035,3.443-13.901,7.64-22.541,10.105
		C116.563,82.2,129.883,78.496,130.874,75.18"/>
	<path style="fill:#FFFFFF;" d="M149.02,33.25c0,0,0.15-1.364-1.401-1.625c0,0,0.913,0.3,0.729,1.46"/>
	<path style="fill:#FFEDB8;" d="M146.699,35.668c1.519,0.367,2.664-0.59,3.041-0.977c0.285-0.29,0.146-0.493-0.106-0.251
		c-0.687,0.629-1.847,0.706-2.669,0.551c-1.063-0.184-1.596-1.276-1.383-2.301c0.436-2.05,2.438-2.205,3.539-1.315
		c0,0,0.726,0.454,1.185,1.953c0,0,0.788,0.068,1.05,0.155c0.266,0.087,0.585-0.097,0.174-0.532c0,0-1.194-1.934-2.645-2.408
		c-2.867-1.208-4.356,1.876-4.356,1.876C144.605,34.401,145.844,35.465,146.699,35.668"/>
	<path style="fill:#FFFFFF;" d="M109.624,63.914c0,0-5.057,0.86-6.875,3.249c0,0,3.95,1.644,12.121-1.344
		c0,0-7.813,2.069-10.473,0.958C104.397,66.776,105.442,65.268,109.624,63.914"/>
	<path style="fill:#FFFFFF;" d="M99.331,67.385c0,0-3.172,1.025-4.23,2.814c0,0,3.757,0.696,11.599-0.406
		c-1.272,0.745-2.249,1.692-2.249,1.692c9.448,0.861,15.603-2.756,15.603-2.756c-9.351,3.046-13.862,2.205-13.862,2.205l2.132-1.867
		c0,0-9.187,1.654-11.092,0.251C97.232,69.319,97.716,68.381,99.331,67.385"/>
	<path style="fill:#FFFFFF;" d="M112.675,73.468c0,0,0.111,0,0.164,0C112.811,73.468,112.767,73.468,112.675,73.468"/>
	<path style="fill:#FFFFFF;" d="M112.839,73.468C112.869,73.468,112.864,73.468,112.839,73.468"/>
	<path style="fill:#FFFFFF;" d="M122.519,69.774c0,0-3.689,3.191-9.844,3.694C112.675,73.468,121.378,73.188,122.519,69.774"/>
	<path style="fill:#FFFFFF;" d="M118.419,74.638c0,0,4.98,0.416,6.962-3.606C125.381,71.031,122.417,74.512,118.419,74.638"/>
	<path style="fill:#FFFFFF;" d="M128.814,71.814c0,0-3.085,3.229-6.063,3.694C122.751,75.508,126.223,76.185,128.814,71.814"/>
	<path style="fill:#FFEDB8;" d="M85.425,80.72c-1.513,0.464-2.708,1.876-2.708,1.876s3.278,0.764,11.174-0.783
		c16.289-3.181,20.056-5.85,20.056-5.85c-19.601,7.339-29.817,6.053-29.817,6.053C84.081,81.533,85.425,80.72,85.425,80.72"/>
	<path style="fill:#FFEDB8;" d="M92.281,72.839c0,0-1.605,0.822-2.398,2.06c0,0,3.752,1.721,16.86-1.798
		c0,0-12.44,2.621-15.119,1.228C91.624,74.329,91.135,73.864,92.281,72.839"/>
	<path style="fill:#FFEDB8;" d="M85.957,78.806c0.672,0.058,4.438,1.17,23.75-3.839c0,0-25.5,5.715-21.574,1.412
		C88.133,76.378,86.228,77.646,85.957,78.806"/>
	<path style="fill:#F37937;" d="M70.69,73.894c0,0-0.232,0.039-0.561,0.087c-3.873,0.522-28.633,3.897-35.885,4.574
		c0,0,3.704,0.329,5.938-0.048c1.808-0.31,18.377-2.224,29.986-4.506C70.333,73.971,70.521,73.932,70.69,73.894"/>
	<path style="fill:#F37937;" d="M68.988,76.127c-2.118,0.396-5.4,0.986-10.245,1.809C61.707,77.461,65.101,76.872,68.988,76.127"/>
	<path style="fill:#F37937;" d="M40.829,79.908c0.871,0.938,5.599,0.077,5.599,0.077c4.917-0.803,8.983-1.479,12.315-2.05
		C45.277,80.111,40.829,79.908,40.829,79.908"/>
	<path style="fill:#F37937;" d="M68.988,76.127c2.277-0.416,3.21-0.609,3.21-0.609C71.077,75.73,70.033,75.934,68.988,76.127"/>
	<path style="fill:#F37937;" d="M28.413,76.891c0,0,2.026,0.715,4.845,0.377c2.814-0.329,23.706-2.688,34.367-4.235
		C67.625,73.033,36.342,76.311,28.413,76.891"/>
	<path style="fill:#F37937;" d="M63.312,70.209c0,0-23.57,1.779-27.937,2.775c-1.267,0.29-0.861,0.696-0.861,0.696
		C36.362,73.149,63.312,70.209,63.312,70.209"/>
	<path style="fill:#F37937;" d="M44.272,69.358c-4.076,0.3-4.235,0.726-4.235,0.726c3.849-0.513,25.239-1.373,25.239-1.373
		S48.343,69.068,44.272,69.358"/>
	<path style="fill:#F37937;" d="M36.517,71.785c3.239-0.725,27.308-2.369,27.308-2.369s-14.921,0.706-20.418,1.103
		C35.434,71.099,36.517,71.785,36.517,71.785"/>
	<path style="fill:#FFEDB8;" d="M142.014,53.741l-0.86,0.309c0,0,5.928,3.752,6.465,3.984l-3.283,0.338
		c1.547,1.044,2.944,2.427,3.993,3.994c0.445,0.658,0.822,1.344,1.122,2.069c0.015,0.039,0.039,0.068,0.058,0.116
		c0.305-0.251,0.59-0.483,0.847-0.696c0.305-0.251,0.57-0.464,0.739-0.609c0,0,0.01-0.01,0.02-0.01
		c0.136-0.116,0.232-0.193,0.232-0.193l-0.242-0.174l-1.063-0.774c0.783-0.406,1.344-0.938,1.818-1.489
		c0.31-0.368,0.57-0.745,0.769-1.131c0.783-1.499,0.89-3.085,0.836-4.033c-0.019-0.377-0.058-0.648-0.077-0.773
		c-0.14-0.3-0.328-0.58-0.6-0.832c0,0,1.402,2.766-3.49,6.74l0.744,0.387c0,0-0.251,0.213-0.624,0.522
		c-0.633-0.899-1.532-1.77-2.853-2.447c0,0,2.064-0.184,3.554,0.251c0,0-2.775-2.775-7.232-4.864c0,0,1.75-0.348,2.862-0.561
		c-1.277-0.561-4.033-0.783-7.61-3.084C139.007,51.643,140.234,52.629,142.014,53.741"/>
	<path style="fill:#F37937;" d="M152.627,59.476c-0.198,0.387-0.459,0.764-0.769,1.131c-0.475,0.551-1.035,1.083-1.818,1.489
		l1.063,0.774l0.242,0.174c0,0-0.097,0.078-0.232,0.193c-0.01,0-0.02,0.01-0.02,0.01c-0.169,0.145-0.435,0.358-0.739,0.609
		c-0.257,0.213-0.542,0.445-0.847,0.696c-0.019-0.048-0.043-0.078-0.058-0.116c-0.3-0.725-0.677-1.412-1.122-2.069
		c-1.049-1.566-2.446-2.949-3.993-3.994l3.283-0.338c-0.537-0.232-6.465-3.984-6.465-3.984l0.86-0.309
		c-1.779-1.112-3.007-2.099-3.877-2.959c-2.447-2.418-1.954-3.81-1.954-3.81c-1.257,2.504-0.266,4.11-0.266,4.11
		s1.644,1.17,2.258,1.721c2.166,1.963,2.307,2.591,2.307,2.591c-1.861-1.547-8.862-2.746-8.862-2.746l2.804,1.625
		c-3.065-1.006-7.021-1.199-7.021-1.199l1.557,1.006c-8.63-0.106-10.245,2.427-10.245,2.427s4.27-0.532,4.714-0.426l-0.396-0.425
		c0,0,1.866-1.083,4.806-0.165l-0.411-0.561c0,0,2.268-0.339,4.719,0.832l-0.28-0.503c0,0,7.045,0.851,9.346,4.342
		c0,0-0.464-0.31-1.247-0.677c-1.847-0.851-5.628-2.002-10.569-0.078l1.006-1.344c0,0-2.939,0.464-7.088,2.418l0.88-1.035
		c0,0-4.115,1.596-4.821,3.723c-0.063,0.203-0.072,0.377-0.063,0.542c1.896,3.23,7.35-2.098,7.35-2.098s-1.238,1.547-3.849,3.094
		c-0.281,0.165-0.532,0.271-0.779,0.358c0.015,0.048,0.024,0.097,0.034,0.145c1.924,3.133,7.924-3.085,7.924-3.085
		s-1.62,2.34-4.187,3.955c-0.324,0.203-0.624,0.348-0.904,0.435c0.02,0.048,0.048,0.078,0.073,0.116
		c2.519,3.336,9.375-4.013,9.375-4.013s-2.736,3.355-5.304,4.971c-0.218,0.135-0.411,0.203-0.604,0.29
		c0.043,0.058,0.082,0.116,0.125,0.164c0.106,0.126,0.223,0.242,0.339,0.339c0.097,0.087,0.198,0.145,0.3,0.203
		c3.085,1.789,8.684-5.367,8.684-5.367s-0.914,2.504-4.013,5.028c-0.339,0.271-0.629,0.426-0.929,0.609
		c0.049,0.039,0.097,0.077,0.146,0.116c4.08,2.466,9.602-6.054,9.602-6.054s-1.909,4.071-4.399,5.851
		c-0.454,0.329-0.899,0.542-1.325,0.715c-1.996,5.173-6.092,6.257-6.092,6.257c-0.991,3.316-14.312,7.02-23.518,9.38
		c-0.498,0.125-0.977,0.251-1.45,0.367l-0.165,0.02l-2.862,0.735l-2.041,0.522l-0.764,0.203l-0.01,0.02
		c-0.813,0.222-1.325,0.377-1.402,0.474c-0.184,0.184-0.029,0.513,0.348,0.551c0.131,0,0.813,0.039,1.673,0.078v-0.02
		c0.082,0.01,0.154,0.02,0.251,0.02c0.639,0.048,1.479,0.097,2.495,0.145c0.45,0.232,1.189,0.725,1.417,1.557
		c0.034,0.135,0.063,0.3,0.063,0.474c0,0.426-0.145,0.967-0.638,1.557c-0.28,0.358-0.426,0.706-0.426,1.073
		c0,0.058,0.005,0.106,0.015,0.165c0.097,0.86,0.928,1.663,1.311,1.953c0,0,3.907,3.878,4.284,4.245c0.198,0,0.532,0,1.073,0
		c-1.025-1.412-2.679-3.694-2.693-3.704c-0.401-0.6-0.595-1.208-0.595-1.847c0-0.281,0.039-0.561,0.116-0.861
		c0.493-1.837,2.505-3.326,3.776-4.11c0.42-0.184,1.01-0.406,1.813-0.551c0.401-0.02,0.813-0.048,1.228-0.068
		c1.426-0.087,2.911-0.213,4.458-0.377c1.016-0.106,2.002-0.251,2.969-0.416c6.701-1.122,12.203-3.384,14.563-4.468
		c0.29-0.135,0.521-0.242,0.71-0.338c0.634-0.28,1.271-0.57,1.843-0.86c3.056-2.785,4.665-5.348,4.665-5.348
		c0.141,0.783-0.092,1.605-0.42,2.292c2.538-3.056,3.22-5.086,3.22-5.086c0.072,1.489-0.106,2.591-0.28,3.268
		c0.687-1.402,1.615-3.616,1.963-5.725l0.875,2.688c0,0,1.62-0.396,2.998-2.708c0.31-0.522,0.609-1.112,0.875-1.847
		c2.62-7.339,2.19-11.246,0.773-13.963c0.02,0.125,0.059,0.396,0.077,0.773C153.517,56.391,153.41,57.977,152.627,59.476"/>
	<path style="fill:#FFEDB8;" d="M137.885,62.657c0,0-5.599,7.156-8.684,5.367c-0.102-0.058-0.203-0.116-0.3-0.203
		c-0.116-0.097-0.232-0.213-0.339-0.339c-0.038-0.048-0.087-0.077-0.125-0.125c0,0,1.314,2.843,4.506,0.938
		c0.3-0.184,0.59-0.338,0.929-0.609C136.971,65.161,137.885,62.657,137.885,62.657"/>
	<path style="fill:#FFEDB8;" d="M126.658,61.052c0,0-5.454,5.328-7.35,2.098c0-0.01-0.009-0.01-0.009-0.01
		c0,0.01,0.009,0.029,0.009,0.048c0,0.01,0,0.01,0,0.01c0.029,0.416,0.706,2.06,2.722,1.306c0.247-0.087,0.498-0.193,0.779-0.358
		C125.42,62.599,126.658,61.052,126.658,61.052"/>
	<path style="fill:#FFEDB8;" d="M129.989,61.564c0,0-6,6.218-7.924,3.085c-0.02-0.039-0.039-0.058-0.058-0.087
		c-0.02,0.309,0.846,2.118,2.891,1.392c0.281-0.087,0.58-0.232,0.904-0.435C128.369,63.904,129.989,61.564,129.989,61.564"/>
	<path style="fill:#FFEDB8;" d="M134.346,62.057c0,0-6.856,7.349-9.375,4.013c-0.024-0.029-0.053-0.048-0.073-0.077
		c-0.019,0.319,1.238,2.33,3.54,1.325c0.193-0.087,0.387-0.155,0.604-0.29C131.609,65.413,134.346,62.057,134.346,62.057"/>
	<path style="fill:#FFEDB8;" d="M168.326,36.876c0,0-0.082-0.135-0.483-0.416c-0.899-0.629-4.937-2.36-8.572-3.143
		c-0.465-0.097-1.446-0.793-1.446-0.793s-1.334-1.218-1.527-1.286l0.338,2.679c0,0-1.324,0.851-3.021,2.649
		C153.613,36.567,160.904,35.707,168.326,36.876 M158.201,33.801c1.548,0.396,2.084,0.6,2.084,0.6l-3.321,0.213
		C156.964,34.614,156.645,33.415,158.201,33.801z"/>
	<path style="fill:#FFEDB8;" d="M153.686,37.476l2.548,0.377l-0.798,1.721c0,0,4.245-1.847,12.262-2.495
		C167.697,37.08,160.349,36.848,153.686,37.476"/>
	<path style="fill:#231F20;" d="M158.201,33.801c-1.557-0.387-1.237,0.813-1.237,0.813l3.321-0.213
		C160.285,34.401,159.749,34.198,158.201,33.801"/>
</g>
</svg>
