<?xml version="1.0" encoding="utf-8"?>
<!-- Generator: Adobe Illustrator 16.0.0, SVG Export Plug-In . SVG Version: 6.00 Build 0)  -->
<!DOCTYPE svg PUBLIC "-//W3C//DTD SVG 1.1//EN" "http://www.w3.org/Graphics/SVG/1.1/DTD/svg11.dtd">
<svg version="1.1" id="Layer_1" xmlns="http://www.w3.org/2000/svg" xmlns:xlink="http://www.w3.org/1999/xlink" x="0px" y="0px"
	 width="700px" height="700px" viewBox="0 0 700 700" enable-background="new 0 0 700 700" xml:space="preserve">
<path fill="#100A07" d="M397.229,72.897c6.349-0.986,13.009-1.897,19.282,0.047c6.13,2.097,11.083,6.471,15.542,10.988
	c11.215,2.676,24.139,0.456,33.924,7.639c-10.307,4.44-21.237,7.638-30.754,13.71c-0.996,10.572-9.858,17.698-15.628,25.858
	c-2.638,3.074-2.107,7.334-2.485,11.101c0.132,7.914,1.252,15.875,0.237,23.789c-0.721,6.984-3.104,13.636-5.265,20.277
	c-3.968,11.842-10.506,22.963-19.862,31.342c-15.467,13.776-35.82,20.373-55.831,24.167c-9.612,1.917-19.376,2.79-29.101,3.872
	c-5.049,0.397-10.163,3.188-12.659,7.657c-0.826,2.97,2.211,4.298,4.26,5.56c11.577,6.575,24.007,12.013,34.15,20.819
	c2.125,2.135,5,4.307,5.115,7.582c0.066,2.24,0.873,4.413,0.797,6.651c-2.239,4.84-5.941,9.204-10.969,11.235
	c-1.842,3.605-3.655,7.231-5.286,10.941l2.571,1.329c-8.892,22.394-16.757,45.167-24.557,67.948
	c-4.735,14.281-9.526,28.543-13.579,43.033c-0.75,2.902-1.802,6.035-0.741,9.005c3.093,2.837,7.81,0.293,10.731-1.718
	c5.115-4.108,9.916-8.881,13.351-14.509c-1.898-18.257,0.806-37.091,8.377-53.876c2.45-5.219,4.109-10.779,6.767-15.903
	c1.471-3.036,3.444-5.931,3.843-9.365c0.882-6.737,3.719-12.952,6.718-18.968c8.531-21.142,36.352-32.434,56.876-21.881
	c9.167,4.098,15.638,12.479,19.197,21.682c3.037,6.889,4.772,14.282,5.721,21.729c2.239-1.66,5.57-2.828,5.957-5.978
	c3.682-14.604,8.097-29.073,14.264-42.841c8.196-20.809,18.387-41.077,32.404-58.622c7.714-9.404,16.936-18.655,28.96-22.052
	c5.919-0.769,12.828-1.385,17.723,2.752c6.653,5.522,9.433,14.594,8.863,23.029c-0.693,17.83-7.089,34.776-14.025,51.012
	c-7.61,17.707-18.684,33.856-32.109,47.653c-6.063,6.622-13.075,12.278-19.719,18.283c-1.461,6.423-2.105,13.161-1.261,19.719
	c0.255,2.648,2.551,5.494,5.475,4.47c7.894-2.136,13.835-8.228,19.243-14.033c3.712-4.337,7.648-8.551,10.75-13.362
	c0.475-8.985,1.812-17.951,4.632-26.52c2.25-7.411,5.787-14.318,8.503-21.55c6.563-15.978,16.88-31.322,32.233-39.966
	c6.557-3.474,14.186-6.338,21.681-4.583c9.698,1.794,17.896,9.441,20.961,18.722c2.259,6.3,1.7,13.151,1.254,19.698
	c-3.16,15.174-9.215,30.023-19.471,41.828c-5.154,6.328-11.805,11.101-18.134,16.14c8.112,0.493,14.574-5.304,19.262-11.244
	c7.364-9.309,12.573-20.041,18.047-30.507c4.955-9.869,9.956-19.708,14.53-29.766c4.761-10.561,9.251-21.35,15.655-31.057
	c1.821-2.467,3.624-5.646,6.992-6.053c11.169-2.439,22.118-5.912,33.381-7.905c-1.631,7.24-5.066,15.04-1.688,22.327
	c7.344,15.106,16.605,29.729,19.689,46.485c9.802,3.711,19.148,10.296,23.627,20.051c3.976,8.482,3.075,18.304,0.871,27.148
	c-3.292,17.079-15.666,30.848-29.576,40.508c-7.724,5.427-16.33,9.404-25.069,12.895c-39.064,16.037-78.339,31.58-117.472,47.456
	c-76.166,30.949-152.229,62.15-228.054,93.938c-16.093,6.651-32.024,13.683-47.708,21.266c-31.2,14.897-63.575,30.118-87.364,55.982
	c-7.961-5.646-16.283-10.94-25.496-14.29c-19.101-7.135-39.672-8.748-59.846-10.058c-2.895-0.456-6.909,0.834-8.436-2.477
	c-2.362-3.823-5.741-7.155-7.525-11.227c1.091-3.623,2.791-7.05,4.185-10.562c0.521-2.059,2.875-2.287,4.516-3.017
	c175.865-63.185,352.062-125.46,527.89-188.751c14.063-5.142,28.259-9.962,42.132-15.636c10.209-4.243,20.058-9.729,28.143-17.355
	c4.27-3.435-0.522-8.682-3.368-11.368c-5.398,13.958-17.544,25.268-32.291,28.542c-9.717,2.8-20.808,0.749-28.505-5.94
	c-4.525-3.719-6.699-9.316-8.406-14.745c-7.373,13.539-16.416,26.503-28.391,36.37c-8.862,7.297-20.098,12.308-31.76,11.719
	c-11.443,0.114-22.697-4.974-29.975-13.825c-9.791,14.042-22.156,26.351-36.513,35.707c-8.492,5.294-18.134,10.114-28.429,9.309
	c-9.905-0.38-18.37-7.667-22.079-16.558c-4.355-10.398-1.821-21.919-1.927-32.821c-2.125,8.758-4.679,17.449-8.616,25.581
	c-3.246,8.881-7.309,17.489-12.545,25.383c-8.756,14.348-23.484,25.373-40.192,28.276c-7.192,0.902-14.861,0.76-21.464-2.581
	c-4.623-2.116-8.341-5.665-11.728-9.356c-9.85,14.12-22.527,26.665-38.06,34.387c-9.317,4.519-20.543,7.021-30.46,2.942
	c-3.88-1.498-6.614-4.745-9.089-7.943c-7.165,8.864-15.675,16.597-24.945,23.211c-5.807,4.175-12.677,7.297-19.936,7.393
	c-4.735,0.095-9.811,0.418-14.091-2.021c-6.612-3.216-10.893-9.896-12.505-16.918c-2.647-10.456-1.149-21.378,1.328-31.711
	c2.638-11.207,6.69-22.017,11.321-32.527c4.061-10.647,9.1-20.896,14.888-30.697c-2.172-0.218-4.327-0.474-6.48-0.76
	c-6.357,9.744-15.743,17.175-25.952,22.556c-0.872,0.549-2.23,0.977-2.192,2.249c-2.847,18.02-8.169,35.61-15.58,52.273
	c-8.607,22.273-20.363,44.005-38.135,60.315c-12.071,11.053-27.851,18.862-44.464,18.73c-17.63,0.549-34.966-8.493-45.252-22.697
	c-10.562-14.633-15.779-32.472-17.649-50.252c-2.609-25.84,0.531-52.351,9.801-76.659c1.699-4.791,3.977-9.357,5.779-14.102
	c6.737-17.252,16.339-33.4,28.608-47.284c2.192-4.517,3.474-9.488,5.874-13.958c4.07-12.99,12.117-24.937,23.617-32.442
	c13.957-9.612,32.518-11.083,48.298-5.427c13.274,4.317,23.551,15.049,29.539,27.414c9.926,20.126,11.879,43.06,11.879,65.188
	c2.619-1.337,5.4-2.988,6.785-5.674c2.372-7.979,4.669-16.026,7.658-23.798c1.423-3.823,5.36-6.129,9.327-6.271
	c5.807-0.389,11.31,1.935,17.05,2.277c8.406,0.987,17.431-0.816,24.083-6.271c2.8-2.278,6.357-4.355,10.096-3.379
	c4.469,0.854,6.035,5.581,8.788,8.588c2.942,4.06,7.391,7.031,9.479,11.661c2.457,8.388-1.737,17.08-6.975,23.494
	c-11.539,12.042-20.524,26.284-28.201,41.03c-3.359,6.424-5.379,13.465-6.794,20.554c-0.938,5.058-1.699,10.304-0.474,15.381
	c4.82-0.132,8.237-3.986,11.823-6.708c5.864-5.514,11.889-11.148,15.922-18.19c10.466-29.166,19.651-58.811,30.811-87.741
	c1.936-5.277,4.517-10.315,6.281-15.656c-1.214-4.203-2.989-8.435-2.165-12.943c0.312-6.595,4.925-11.747,6.424-17.981
	c2.467-7.383,7.838-13.808,14.747-17.431c1.823-0.939,3.416-2.229,4.933-3.596c-0.673-1.186-1.185-2.59-2.514-3.179
	c-9.271-5.314-18.901-9.992-27.945-15.694c-2.666-1.669-5.237-4.023-5.92-7.222c-0.76-3.207,0.113-6.462,0.958-9.555
	c-15.125-1.755-30.193-3.958-45.224-6.367c-12.63,0.873-25.345,0.93-38.012,0.588c-3.899-0.35-8.056-0.617-11.311-3.046
	c1.062-4.621,4.669-7.962,8.046-11.018c6.48-5.303,14.252-8.966,22.346-11.025c-6.034-3.056-12.591-4.84-18.788-7.524
	c-2.552-0.902-5-2.534-7.81-2.307c-18.084,0.826-36.076,3.017-54.142,4.128c-8.17,0.969-16.444,0.91-24.653,0.617
	c-7.629-0.56-15.477-2.372-21.53-7.296c-3.188-0.569-6.48-0.797-9.498-2.098c-3.653-1.508-7.923-1.452-11.14-3.948
	c-3.738-3.093-9.089-3.491-12.412-7.173l0.105-1.727c4.534-2.8,10.057-2.382,15.163-2.942c0.047-1.281,0.095-2.562,0.162-3.833
	c1.831-0.436,3.682-0.796,5.437-1.489c2.107-1.309,3.843-3.208,6.187-4.147c3.037-1.357,5.922-3.644,9.442-3.245
	c24.784,1.84,49.246,6.737,74.021,8.73c9.043,1.632,18.163-0.522,26.939-2.609c8.065-2.144,16.254-3.966,24.027-7.05
	c6.833-2.659,12.876-6.899,19.451-10.087c8.501-4.394,17.393-7.991,26.303-11.454c17.66-7.914,35.527-15.582,54.144-20.998
	c6.28-1.897,13.284-2.583,18.493-6.964c6.195-5.229,13.142-9.527,18.931-15.249c7.848-7.657,14.879-16.415,24.453-22.052
	C378.28,76.56,387.873,74.586,397.229,72.897L397.229,72.897z"/>
<path fill="#FDFDFD" d="M425.154,83.714c3.332,1.376,6.454,3.663,10.23,3.531c8.443,0.237,16.823,1.366,25.098,3.027
	c-13.046,1.944-26.057,4.497-38.497,8.996c1.765-2.836,3.946-5.38,5.655-8.246C427.632,88.383,425.943,86.153,425.154,83.714
	L425.154,83.714z M394.231,93.26c1.414-3.103,4.202-6.338,7.979-5.836c4.548-0.627,8.067,2.562,11.331,5.18l-3.332-0.094
	c-2.219-2.998-5.73-5.465-9.64-4.326c-5.646,0.873-6.339,9.394-1.728,12.061c3.01,1.85,6.396-0.371,9.317-1.395
	c-2.362,1.708-5.181,3.834-8.274,2.836C396.632,100.405,393.329,97.017,394.231,93.26z"/>
<path fill="#100A07" d="M428.229,89.892c3.096-1.66,6.718-1.015,10.068-0.873c-2.79,2.477-6.662,2.836-10.125,3.7
	C428.183,92.008,428.211,90.603,428.229,89.892z"/>
<path fill="#FDFDFD" d="M403.482,91.257c1.623-1.09,3.617,2.411,1.708,3.132C403.814,94.294,402.979,92.435,403.482,91.257z
	 M423.95,101.923c10.578-2.562,20.95-5.979,31.511-8.645c-9.232,3.226-18.408,7.012-26.407,12.733
	c0.124-1.452,0.237-2.903,0.351-4.356C427.583,101.733,425.763,101.837,423.95,101.923L423.95,101.923z"/>
<path fill="#ED4C09" d="M367.35,140.088c-3.075-2.468-1.918-6.937-1.044-10.22c1.716,2.923,2.979,6.244,5.58,8.53
	c5.814,4.631,13.047,6.756,19.927,9.243c-2.003,0.57-4.034,1.063-6.036,1.613c6.227,4.356,12.772,8.293,18.295,13.579
	c-2.562-0.076-5.125-0.142-7.667,0.075c2.05,1.993,4.734,3.293,7.562,3.729c5.922-3.625,9.555-10.181,10.326-17.003
	c2.637,8.094,1.696,16.832-0.599,24.879c-2.895,9.688-6.14,19.49-12.127,27.765c-9.726,14.668-24.652,25.629-41.408,30.887
	c-14.832,4.688-30.28,7.059-45.678,8.956c-9.073,1.017-18.77,1.755-26.616,6.889c-2.989,1.822-3.873,5.304-4.583,8.483
	c-2.458,0.114-5.371,1.614-7.506-0.199c-2.182-1.623-3.711-4.156-3.985-6.879c0-3.076,1.271-5.95,2.163-8.843
	c-6.376-0.759-12.705-1.89-18.959-3.351l-0.673-1.423c9.745-2.524,19.699-4.109,29.453-6.584
	c17.402-3.738,34.937-7.496,51.505-14.186c4.364-1.736,8.605-3.947,12.061-7.192c3.872-3.576,9.185-5.134,12.772-9.062
	c3.776-3.558,5.238-9.119,9.868-11.833c5.913-3.873,10.325-9.546,13.95-15.524c-5.875,5.532-11.273,12.079-19.007,15.059
	c-2.572,1.149-5.438,0.78-8.144,0.646c4.613-5.599,10.705-9.935,14.312-16.368c-7.774,6.196-15.449,15.305-26.371,14.47
	c-2.353-1.451-5.153-1.243-7.724-1.888c2.771,0.076,5.797,0.522,8.235-1.149c5.893-3.415,10.865-8.198,15.505-13.141
	c-6.111,4.279-11.957,9.414-19.282,11.471c-2.572,0.816-5.2,0-7.589-0.967c5.343-3.881,10.863-7.629,15.105-12.773
	c-5.39,3.721-10.656,8.038-17.138,9.688c-2.058,0.712-4.052-0.512-5.996-1.033c4.677-3.388,9.868-6.169,13.814-10.485
	c-4.335,2.582-8.491,5.703-13.444,7.003c-2.914,0.749-5.873-0.161-8.721-0.777c1.65-5.067,6.301-8.54,11.207-10.125
	c6.879-0.218,12.999-3.891,19.812-4.668c-0.151,0.921-0.294,1.85-0.436,2.771c9.459-2.533,19.641-2.239,28.638,1.793
	c-4.214-4.241-9.927-6.386-15.457-8.313c-2.961-1.215-6.206-0.313-9.224-1.158c-2.685-0.616-5.38-1.68-8.178-1.222
	c-3.605,0.625-7.241-0.153-10.855,0.094c-1.709,0.427-3.151,1.538-4.839,1.984c-3.568,0.218-7.116-0.427-10.626-0.988
	c7.733-5.342,17.574-5.048,26.559-5.085L344,144.369c5.494,0.883,10.92,2.106,16.273,3.615c-0.987-1.11-1.964-2.22-2.913-3.35
	c7.43,1.092,14.347,4.09,21.198,6.993C375.643,147.042,371.41,143.588,367.35,140.088L367.35,140.088z M227.894,161.464
	c13.009-7.381,27.575-11.793,42.368-13.768c0.2,2.144,0.379,4.279,0.532,6.423c5.418,0.987,11.435,1.129,15.941,4.716
	c-15.96,4.364-32.176,9.613-45.46,19.812c-3.644,2.658-6.328,6.424-10.153,8.843c-3.207,2.069-6.462,4.251-8.748,7.373
	c-3.445,5.086-8.711,8.473-12.791,12.999c-6.044-2.571-12.136-5.057-18.067-7.884c4.175-0.408,8.331-0.988,12.487-1.642
	c-6.14-2.505-12.942-2.107-19.234-4.014c2.173-0.333,4.365-0.579,6.538-0.949c-6.548-2.932-13.987-2.429-20.734-4.735
	c2.088-0.228,4.185-0.38,6.281-0.532l-0.02-1.413c-3.027-0.162-6.063-0.323-9.09-0.437c1.755-0.503,3.501-1.005,5.237-1.576
	c-2.524-1.404-5.305-2.229-7.989-3.255c7.468-1.147,15.106-1.318,22.412-3.425c7.989-2.334,16.149-4.242,23.854-7.458
	C217.113,168.126,222.38,164.548,227.894,161.464L227.894,161.464z"/>
<path fill="#FDFDFD" d="M326.207,172.947c4.953-1.3,9.108-4.421,13.445-7.003c-3.947,4.317-9.138,7.098-13.815,10.485
	c1.944,0.521,3.938,1.747,5.996,1.035c6.48-1.652,11.748-5.968,17.137-9.688c-4.242,5.143-9.764,8.892-15.105,12.772
	c2.391,0.968,5.02,1.784,7.59,0.968c7.326-2.059,13.17-7.192,19.282-11.472c-4.64,4.943-9.612,9.726-15.505,13.142
	c-2.438,1.67-5.466,1.224-8.236,1.148c-1.622-0.683-2.41-2.515-3.738-3.616c-1.727-0.54-3.548-0.721-5.267-1.262
	c-1.224-0.893-1.983-2.249-2.856-3.444c-3.264,0.456-5.977-1.082-7.648-3.843C320.332,172.785,323.293,173.696,326.207,172.947
	L326.207,172.947z M344.719,186.222c10.921,0.835,18.597-8.275,26.37-14.47c-3.605,6.433-9.697,10.77-14.312,16.368
	c2.705,0.133,5.571,0.503,8.144-0.646c7.731-2.98,13.132-9.527,19.007-15.059c-3.626,5.979-8.039,11.652-13.949,15.524
	c-4.631,2.713-6.091,8.273-9.869,11.832c-3.587,3.928-8.9,5.485-12.772,9.062c-3.455,3.245-7.696,5.456-12.061,7.192
	c-16.568,6.688-34.104,10.447-51.505,14.186c15.646-3.786,31.161-8.606,45.897-15.163c5.351-2.609,11.073-5.199,14.812-10.02
	c1.195-1.897,3.53-2.23,5.427-3.103c5.219-2.069,9.793-5.921,12.127-11.112c-3.199-0.73-6.054-3.738-9.471-2.277
	C349.739,189.741,346.38,188.888,344.719,186.222L344.719,186.222z M270.308,181.041c4.042-4.878,10.485-6.102,16.226-7.847
	c-3.767,1.736-7.468,3.663-10.712,6.281c3.178,1.992,7.06,1.319,10.618,1.394c4.022-0.236,8.37,0.342,12.031-1.755
	c0.997-0.807,2.258-0.38,2.932,0.598c-4.564-0.039-8.711,2.229-13.227,2.657C282.187,182.217,276.095,183.08,270.308,181.041
	L270.308,181.041z"/>
<path fill="#ED4C09" d="M70.72,179.522c7.421-1.651,15.048,0.067,22.545,0.237c12.829,1.376,25.829,1.309,38.543,3.711
	c-5.371-0.769-10.78-1.035-16.197-1.062c-7.25-0.882-14.575-0.588-21.844-1.357C86.102,180.375,78.321,180.927,70.72,179.522
	L70.72,179.522z M269.521,180.851l0.788,0.19c5.788,2.04,11.879,1.176,17.868,1.328
	C282.017,183.137,275.365,183.223,269.521,180.851z"/>
<path fill="#FDFDFD" d="M248.142,188.925c2.334-4.003,6.984-5.351,10.874-7.315c-1.347,1.452-2.657,2.932-3.89,4.487
	c5.371,2.335,11.377,2.078,17.099,1.832c4.631-0.655,9.356-0.417,13.92-1.518c-1.936,1.651-3.853,3.34-5.418,5.352
	c12.202,1.11,24.509-0.949,36.247-4.213c-12.99,6.404-27.935,7.164-42.14,6.024c1.538-1.68,3.302-3.13,5.076-4.554
	c-5.096,0.266-10.211,0.285-15.277,0.855C259.12,190.036,253.646,189.126,248.142,188.925L248.142,188.925z"/>
<path fill="#ED4C09" d="M52.966,186.477c23.713,2.04,47.454,3.976,71.185,5.618c6.861,0.132,13.626,1.736,20.516,1.101l-0.02,0.598
	c-7.173,0.285-14.261-1.253-21.435-0.846c-12.943-0.768-25.895-1.555-38.838-2.267C73.927,189.418,62.731,191.089,52.966,186.477z"
	/>
<path fill="#FDFDFD" d="M303.766,199.505c7.866-1.3,15.011-5.086,21.681-9.299C320.779,197.41,311.585,198.642,303.766,199.505z"/>
<path fill="#ED4C09" d="M70.987,194.145c18.17,0.825,36.333,2.258,54.522,2.79c11.216,1.518,22.563,0.456,33.827,1.206
	c-17.033,1.413-34.159-0.275-51.22-0.665C95.781,196.118,82.97,197.958,70.987,194.145L70.987,194.145z"/>
<path fill="#FDFDFD" d="M232.855,201.365c1.821-1.984,3.899-3.729,6.234-5.086c0.01,1.12,0.029,2.25,0.067,3.369
	c12.411,2.713,25.24,0.265,37.736-0.711C262.461,201.508,247.354,205.607,232.855,201.365L232.855,201.365z M326.529,207.353
	c5.73-2.449,10.759-6.13,15.655-9.916c-2.173,2.401-4.223,5-6.965,6.794C332.612,205.949,329.489,206.517,326.529,207.353z"/>
<path fill="#ED4C09" d="M89.821,200.797c5.731-0.304,11.482,0.057,17.213,0.161c12.033,1.035,24.159-0.009,36.171,1.148
	c-13.597,0.664-27.233,0.541-40.848,0.56C98.143,202.58,93.674,202.836,89.821,200.797L89.821,200.797z"/>
<path fill="#FDFDFD" d="M230.673,209.061c18.352,1.271,36.551-2.164,54.694-4.441c-15.401,2.771-30.687,6.47-46.342,7.458
	c-6.035,0.55-12.195,1.309-18.144-0.276c1.576-2.146,3.51-3.976,5.532-5.694C227.59,207.363,228.765,209.023,230.673,209.061z
	 M217.55,220.296c27.346,1.366,54.218-5.324,80.437-12.298c-5.314,2.496-10.931,4.279-16.604,5.742
	c-14.243,3.701-28.752,6.3-43.298,8.416c-8.624,0.769-17.479,2.173-26.028,0.124c1.708-1.68,3.673-3.064,5.552-4.546
	C217.597,218.369,217.57,219.65,217.55,220.296z"/>
<path fill="#ED4C09" d="M494.689,223.36c4.574-2.6,10.04-3.576,15.21-2.619c5.323,1.518,8.352,6.917,9.651,11.956
	c1.802,8.018-0.076,16.235-1.559,24.148c-6.337,29.728-24.479,55.765-46.844,75.816c-4.11,3.823-8.483,7.334-12.868,10.826
	c-2.012,1.309-2.096,3.862-2.617,5.969c-1.709,9.432-3.854,19.044-2.572,28.665c0.475,3.682,2.438,7.315,5.806,9.071
	c2.742,1.634,6.131,1.036,8.996,0.068c5.418-1.985,10.268-5.324,14.405-9.316c8.302-7.916,15.399-17.005,22.003-26.36
	c2.27-2.885,1.035-6.738,1.368-10.087c0.597-17.062,6.442-33.724,15.363-48.185c6.612-10.239,15.619-19.575,27.186-24.035
	c6.253-2.581,13.919-2.334,19.585,1.585c6.747,4.355,10.57,12.422,10.485,20.362c0.711,14.669-6.673,28.572-16.872,38.687
	c-8.759,9.072-19.861,15.391-31.343,20.373c2.592,5.723,6.51,11.748,12.933,13.512c7.088,1.746,14.679-0.949,20.07-5.654
	c8.51-7.354,14.109-17.319,19.527-27.026c9.659-18.189,18.664-36.74,26.985-55.585c3.55-6.652,6.29-14.138,11.805-19.433
	c7.819-2.666,16.035-4.222,24.073-6.187c-0.816,5.588-1.062,11.539,1.433,16.767c3.312,7.012,7.287,13.702,10.541,20.741
	c4.005,8.701,8.351,17.601,8.845,27.346c8.721,3.255,17.772,7.8,22.669,16.093c4.744,7.695,4.166,17.383,1.632,25.734
	c-3.18,10.427-11.264,18.567-20.247,24.338c-9.784,6.321-20.62,10.675-31.354,15.068c-37.794,15.438-75.729,30.525-113.561,45.88
	c-74.116,30.128-148.15,60.491-221.962,91.357c-15.041,6.32-30.108,12.553-44.797,19.661c-20.572,9.679-41.238,19.318-60.52,31.427
	c-11.681,7.296-22.755,15.676-32.366,25.562c-5.418-3.026-10.496-6.671-16.217-9.138c-22.137-10.217-46.922-11.717-70.881-13.465
	c-2.524,0.058-3.236-2.847-4.422-4.545c76.926-27.945,154.107-55.216,231.175-82.771c94.149-33.62,188.343-67.107,282.406-100.942
	c15.761-5.721,31.578-11.292,47.263-17.222c13.143-5.144,26.313-11.416,36.354-21.598c4.811-4.982,8.548-11.624,8.312-18.722
	c-0.902-8.198-7.694-14.443-14.783-17.83c-2.172,9.546-6.86,18.807-14.84,24.767c-6.321,4.887-14.102,7.934-22.082,8.407
	c-7.382,0.199-15.238-2.874-19.489-9.129c-3.759-5.741-4.658-13.483-1.557-19.708c3.702-7.459,10.886-12.829,18.779-15.191
	c5.845-1.851,12.032-2.135,18.133-2.002c-7.04-11.767-13.465-24.234-15.969-37.832c-4.203,4.337-7.03,9.736-9.821,15.03
	c-9.964,19.301-17.497,39.834-28.818,58.441c-6.747,10.608-14.632,20.799-24.804,28.344c-7.393,5.428-16.491,8.787-25.734,8.35
	c-7.913-0.21-15.997-2.819-21.747-8.427c-3.245-2.989-5.505-6.813-7.81-10.522c-6.102,10.001-13.274,19.356-21.797,27.432
	c-8.614,8.142-18.151,15.6-29.166,20.201c-5.847,2.4-12.592,3.616-18.694,1.452c-7.686-2.876-12.763-10.676-13.758-18.627
	c-0.988-12.126,0.588-24.29,2.884-36.188c-4.669,2.873-8.938,6.348-13.664,9.129c-1.593,1.167-4.032,2.049-4.051,4.374
	c-1.784,12.657-5.096,25.211-11.064,36.568c-4.251,8.009-8.891,16.065-15.676,22.232c-8.984,8.302-20.846,14.224-33.295,13.873
	c-6.414,0.011-12.82-2.43-17.449-6.897c-3.293-3.046-5.286-7.126-7.392-11.018c-1.215,1.651-2.373,3.359-3.464,5.097
	c-6.784,10.884-15.656,20.458-25.875,28.182c-8.825,6.281-19.073,12.137-30.289,11.35c-3.977,0.104-8.123-1.1-10.884-4.081
	c-3.255-3.312-4.014-8.085-5.2-12.384c-9.157,12.649-20.146,24.12-33.249,32.737c-5.078,3.179-11.064,4.792-17.022,5.075
	c-6.215,0.17-12.393-3.158-15.353-8.672c-3.72-6.965-3.834-15.172-3.246-22.867c1.177-10.816,4.422-21.293,8.133-31.484
	c5.949-15.703,13.787-30.81,24.167-44.066c2.429-3.168,5.228-6.033,7.629-9.223c-8.795,1.289-18.19,3.568-26.654-0.444
	c-1.946,4.163-4.45,8.093-7.791,11.3c-6.652,6.936-14.717,12.562-23.665,16.111c-1.299,0.654-3.293,0.931-3.217,2.819
	c-1.68,22.271-7.753,44.096-16.806,64.467c-8.215,18.04-19.032,35.413-34.337,48.271c-10.334,8.644-23.333,14.687-36.979,14.772
	c-16.861,0.731-33.562-8.283-42.624-22.431c-11.576-17.516-15.675-38.951-15.761-59.666c-0.914-40.757,14.279-82.042,42.678-111.494
	c1.546-1.604,1.367-4.013,1.851-6.044c3.122-21.065,20.809-39.853,42.312-42.188c13.891-1.394,28.94,2.506,38.904,12.668
	c8.596,8.644,13.493,20.22,16.586,31.844c4.8,18.028,5.209,36.826,4.886,55.367c7.61-3.159,14.917-7.875,19.842-14.595
	c4.907-6.556,3.236-15.276,5.902-22.621c0.559-1.699,2.314-2.704,4.042-2.771c4.857-0.343,9.499,1.499,14.29,1.991
	c10.124,1.396,21.103-0.18,29.396-6.49c1.974-1.206,3.862-3.52,6.415-2.979c2.932,2.885,4.963,6.566,7.847,9.518
	c1.944,2.277,4.375,4.203,5.826,6.869c1.168,2.401-0.162,5.002-1.877,6.729c-10.458,11.12-18.836,24.025-26.077,37.415
	c-7.581,14.594-14.138,30.239-15.353,46.808c-0.152,4.385-0.265,9.953,3.844,12.686c3.625,2.354,7.942,0.086,11.178-1.889
	c8.018-5.397,14.934-12.335,20.885-19.935c2.381-3.095,4.744-6.301,6.063-10.013c11.471-31.748,21.491-64.02,33.476-95.589
	c0.674-3.312,4.346-3.502,6.975-4.432c7.335-2.012,14.405-4.925,21.854-6.547c-11.709,32.917-23.703,65.766-33.505,99.319
	c-1.491,5.067-3.179,11.063-0.094,15.885c2.381,3.672,7.401,3.891,11.273,3.038c5.921-1.558,10.627-5.799,14.802-10.068
	c4.916-5.313,9.336-11.112,13.048-17.327c2.133-2.913,0.379-6.537,0.379-9.782c-0.465-10.447-0.495-21.056,2.002-31.285
	c2.864-12.488,8.056-24.52,15.627-34.891c1.357-1.679,0.967-3.938,1.12-5.94c-0.293-8.321,4.156-16.159,10.181-21.625
	c8.189-7.098,19.301-11.254,30.186-9.803c8.909,1.281,17.421,6.234,22.326,13.872c6.907,11.113,9.735,24.31,9.793,37.301
	c5.427-2.012,9.933-5.713,14.564-9.062c1.954-1.527,4.432-2.97,4.754-5.683c4.309-18.684,9.364-37.33,17.288-54.845
	c6.774-14.973,14.67-29.577,24.841-42.547C479.781,235.059,486.396,228.009,494.689,223.36L494.689,223.36z"/>
<path fill="#100A07" d="M499.832,237.09c2.287-1.281,6.1-1.404,7.039,1.614c2.457,6.376-0.018,13.216-2.153,19.309
	c-7.164,19.5-17.223,38.003-30.222,54.23c-4.394,5.237-8.919,10.522-14.555,14.46c3.435-16.349,9.47-32.052,15.589-47.566
	c4.337-10.552,8.853-21.065,14.538-30.981C492.554,243.912,495.429,239.558,499.832,237.09L499.832,237.09z"/>
<path fill="#ED4C09" d="M287.064,256.808c0.039-4.707,4.014-7.506,7.886-9.223c-1.442,2.552-2.609,5.248-3.664,7.98
	C290.005,256.324,288.479,256.447,287.064,256.808z"/>
<path fill="#FDFDFD" d="M489.081,265.187c2.107-3.71,4.232-7.629,7.772-10.172c0.123,7.477-3.168,14.452-6.376,21.036
	c-5.277,10.068-10.816,20.145-18.095,28.912C476.527,291.167,482.278,277.874,489.081,265.187L489.081,265.187z"/>
<path fill="#ED4C09" d="M289.702,259.589c2.192,0.398,4.328,1.091,6.301,2.125c9.09,4.601,18.133,9.421,26.445,15.363
	c2.886,2.105,5.751,4.307,8.057,7.079c3.586,3.89,3.055,10.817-1.3,13.948c-0.4-3.501-0.352-7.059-0.959-10.532
	c-0.978-3.152-3.681-5.314-6.081-7.392c-8.474-6.841-18.333-11.577-27.85-16.757C292.512,262.502,290.946,261.193,289.702,259.589
	L289.702,259.589z M308.623,285.996c3.966-0.883,8.663-0.351,11.433,2.922c4.167,4.659,3.52,11.738,1.035,17.051
	c-3.682,8.027-12.003,15.2-21.331,13.882c-5.531-0.675-8.863-6.338-8.691-11.558C291.505,298.245,298.821,288.586,308.623,285.996
	L308.623,285.996z"/>
<path fill="#100A07" d="M544.544,294.062c3.615-4.783,8.805-9.44,15.199-9.109c5.446,0.75,6.918,7.354,6.188,11.956
	c-1.063,9.459-5.258,18.722-12.326,25.202c-6.898,6.69-15.61,11.16-24.463,14.689C529.654,321.399,535.271,306.311,544.544,294.062
	L544.544,294.062z"/>
<path fill="#FDFDFD" d="M620.378,299.005c1.177,2.714,2.314,5.447,3.415,8.189c-3.281,1.205-6.489,2.609-9.639,4.109
	C616.23,307.204,618.251,303.077,620.378,299.005z M546.403,307.28c1.955-2.449,4.839-3.796,7.818-4.545
	c1.813,3.995,1.092,9.09-1.982,12.269c-4.367,5.171-10.05,9.034-16.046,12.071C536.943,319.425,541.468,312.886,546.403,307.28
	L546.403,307.28z"/>
<path fill="#100A07" d="M100.05,316.341c8.407-3.834,19.68-1.595,24.984,6.291c5.94,8.721,7.753,19.462,8.909,29.748
	c0.874,14.356,0.607,28.799-0.901,43.107c-10.513,1.453-21.605-1.604-29.852-8.312c-16.007-12.63-24.964-35.658-17.08-55.224
	C88.759,325.383,93.493,319.33,100.05,316.341z M365.442,319.918c4.088-3.455,10.153-4.564,15.06-2.201
	c4.886,2.106,7.799,7.088,8.957,12.088c2.942,10.723,1.205,21.984-1.405,32.575c-5.531,1.651-11.736,1.69-16.852-1.271
	c-6.082-3.521-11.368-9.043-13.368-15.913C355.479,336.257,358.278,325.925,365.442,319.918z M619.58,325.459
	c6.889-6.082,16.795-6.425,25.498-5.569c1.28,7.791-0.097,16.567-5.846,22.365c-5.335,5.703-15.914,7.05-21.408,0.892
	C613.204,338.108,614.59,329.749,619.58,325.459L619.58,325.459z"/>
<path fill="#FDFDFD" d="M89.907,340.273c3.966-5.864,11.813-9.461,18.712-6.852c6.301,1.861,9.194,8.493,11.064,14.224
	c4.015,13.568,4.308,27.889,3.814,41.921c-10.191-1.139-19.092-7.562-25.022-15.693C91.349,364.394,87.572,352.065,89.907,340.273z
	 M362.852,337.682c2.43-2.04,5.551-3.872,8.845-2.79c4.137,0.873,6.12,5.085,7.107,8.787c1.329,4.564,1.178,9.347,1.102,14.043
	C370.472,356.316,362.435,347.359,362.852,337.682L362.852,337.682z M623.034,339.247c3.853-1.186,7.903-1.784,11.928-1.262
	C632.21,341.108,625.862,342.976,623.034,339.247z"/>
<path fill="#100A07" d="M348.04,365.351c6.168,3.577,12.277,7.449,19.318,9.089c5.883,1.707,12.061,1.85,18.133,1.463
	c-0.778,5.949-2.591,11.7-4.375,17.412c-3.206,9.394-7.078,18.816-13.474,26.521c-3.141,3.738-7.59,7.25-12.762,6.765
	c-5.571-0.606-9.451-5.571-11.226-10.524c-3.454-9.497-3.197-19.963-1.3-29.766C343.809,379.224,344.737,371.888,348.04,365.351
	L348.04,365.351z M51.392,404.425c3.794-8.55,8.237-17.05,14.622-23.968c6.47,8.445,13.986,16.425,23.666,21.178
	c12.743,6.709,27.592,7.43,41.656,6.054c-1.319,14.603-4.972,28.902-9.185,42.919c-4.85,14.877-11.035,29.528-20.163,42.318
	C96,501.021,88.01,508.754,77.715,510.52c-8.53,0.769-17.374-2.933-22.659-9.727c-7.619-9.765-10.457-22.243-11.898-34.302
	C41.02,445.578,42.814,423.821,51.392,404.425L51.392,404.425z"/>
<path fill="#FDFDFD" d="M347.879,387.753c3.444,0.911,6.584,2.667,9.982,3.72c4.989,1.65,10.219,2.535,15.477,2.789
	c-1.937,6.945-4.062,14.005-8.645,19.746c-2.485,2.999-5.446,7.202-9.87,6.596c-5.579-2.582-6.708-9.47-7.466-14.927
	C346.074,399.719,347.404,393.712,347.879,387.753L347.879,387.753z M60.843,402.215c7.192,7.8,15.514,14.841,25.458,18.854
	c10.399,4.395,21.833,5.646,33.04,5.238c-0.958,10.553-3.909,20.818-6.737,31c-2.05,7.212-4.602,14.311-8.35,20.828
	c-5.04,9.015-10.97,18.161-19.945,23.694c-5.619,3.69-13.276,3.444-18.998,0.144c-5.627-3.285-8.967-9.225-11.358-15.068
	c-4.44-11.852-5.694-24.653-5.504-37.225c-0.114-10.694,1.224-21.426,4.308-31.664C54.419,412.272,57.712,407.233,60.843,402.215
	L60.843,402.215z"/>
<path fill="#100A07" d="M633.965,429.153c3.227-0.02,6.464-0.027,9.697,0.019c0.028,0.513,0.085,1.527,0.105,2.039l-3.702,0.37
	c-0.038,3.085-0.027,6.188-0.048,9.28l-2.258,0.039c-0.057-3.037-0.047-6.074-0.076-9.109c-1.271-0.219-2.523-0.428-3.786-0.618
	L633.965,429.153L633.965,429.153z M645.532,429.163l4.138-0.028c0.872,2.345,1.706,4.696,2.551,7.051
	c0.949-2.344,1.849-4.696,2.779-7.042l4.146-0.028c0.067,3.92,0.048,7.838,0.01,11.758l-2.419,0.038
	c-0.047-2.457-0.047-4.936-0.274-7.382c-1.234,2.361-2.078,4.887-3.027,7.354c-0.58,0-1.717,0-2.286-0.011
	c-1.055-2.779-2.136-5.551-3.294-8.283c-0.046,2.8-0.027,5.597-0.122,8.406l-2.212-0.228
	C645.522,436.896,645.514,433.025,645.532,429.163z"/>
</svg>
