<?xml version="1.0" encoding="utf-8"?>
<!-- Generator: Adobe Illustrator 12.0.0, SVG Export Plug-In . SVG Version: 6.00 Build 51448)  -->
<!DOCTYPE svg PUBLIC "-//W3C//DTD SVG 1.1//EN" "http://www.w3.org/Graphics/SVG/1.1/DTD/svg11.dtd" [
	<!ENTITY ns_svg "http://www.w3.org/2000/svg">
	<!ENTITY ns_xlink "http://www.w3.org/1999/xlink">
]>
<svg  version="1.1" id="CLEVELAND_INDIANS" xmlns="&ns_svg;" xmlns:xlink="&ns_xlink;" width="200.262" height="259.438"
	 viewBox="0 0 200.262 259.438" overflow="visible" enable-background="new 0 0 200.262 259.438" xml:space="preserve">
<g>
	<g>
		<g>
			<g>
				<g>
					<path fill="#FFFFFF" stroke="#FFFFFF" stroke-width="0.262" d="M141.558,21.409c0.324-0.322,4.697-4.68,9.644-7.994
						c5.785-3.883,25.137-13.25,25.137-13.25l21.739,28.674c0,0,2.78,3.497,1.872,7.627c-1.308,5.89-10.382,43.569-10.382,43.569
						s-2.216,13.729-7.093,22.052c-9.18,15.654-17.531,29.448-17.531,29.448l0.265,3.47c0,0,3.095-2.79,5.366-4.733
						c2.266-1.944,5.346,1.152,11.496,5.362c6.154,4.208,10.367,15.219,10.691,17.161c0.325,1.947-0.325,9.718-1.947,14.575
						c-1.617,4.857-7.193,14.651-7.193,14.651s5.511,6.798,2.271,16.841c-3.239,10.038-11.67,17.156-12.319,17.805
						c-0.644,0.649-10.887,5.781-15.793,5.336c-2.046-0.184-9.479,8.027-12.628,11.311c-3.989,4.144-14.032,11.78-17.276,14.67
						c-6.12,5.46-22.916,11.745-36.866,11.301c-10.405-0.334-20.096-1.937-23.985-2.91c-3.888-0.969-13.606-4.857-18.137-9.714
						c-4.534-4.856-16.514-19.751-19.429-24.938c-2.918-5.182-11.086-12.02-11.68-12.659c-3.804-4.138-10.03-10.348-10.03-10.348
						c-6.903-8.001-7.618-15.789-7.618-23.326c0-3.903,1.61-6.125,9.507-14.021c3.479-3.479,8.264-5.581,11.156-8.161
						c4.003-3.564,5.72-7.343,7.313-10.632c3.706-7.647,6.474-13.938,11.333-31.426c0,0,6.556-17.445,10.437-22.626
						c3.889-5.182,19.098-15.217,38.847-17.161c19.755-1.941,26.888-2.591,30.766-1.62c3.889,0.974,4.144,1.063,4.144,1.063
						l0.813,0.314l4.138,2.094L141.558,21.409z"/>
				</g>
			</g>
			<g>
				<path fill="#091336" d="M145.936,28.708c0.289-0.294,2.621-6.501,7.357-9.117c4.787-2.641,21.798-11.778,21.798-11.778
					l16.771,24.135c0,0,2.007,2.298,1.178,6.052c-1.193,5.355-12.783,51.213-12.783,51.213s-2.89,11.693-7.752,18.963
					c-9.154,13.667-16.562,23.283-16.562,23.283l0.589,21.091c0,0,7.068-11.076,9.125-12.849c2.067-1.767,5.007-5.001,10.602-1.178
					c5.595,3.829,9.424,13.841,9.713,15.608c0.3,1.762-0.289,8.83-1.762,13.243c-1.477,4.423-7.067,15.608-7.067,15.608
					s5.001,6.18,2.062,15.31c-2.945,9.129-12.364,14.725-12.954,15.309c-0.594,0.589-5.854,2.48-10.317,2.082
					c-1.857-0.17-12.654,10.771-15.524,13.751c-3.629,3.769-12.753,10.712-15.704,13.342c-5.565,4.961-20.834,10.677-33.517,10.273
					c-9.459-0.304-18.271-1.762-21.803-2.645c-3.537-0.884-12.364-4.418-16.489-8.831c-4.123-4.418-15.017-17.959-17.663-22.671
					c-2.653-4.712-10.08-10.932-10.614-11.51c-3.464-3.764-9.125-9.405-9.125-9.405c-6.27-7.278-10.629-14.255-9.104-21.189
					c0.764-3.459,0.874-8.231,10.295-12.943c9.424-4.712,14.266-11.865,16.797-17.081c3.367-6.948,5.887-12.673,10.3-28.57
					c0,0,7.365-20.605,10.894-25.318c3.537-4.711,17.356-13.834,35.318-15.601c17.96-1.767,24.435-2.356,27.974-1.47
					c3.529,0.883,12.064,5.888,12.064,5.888l0.699,0.461l2.356,1.378L145.936,28.708z"/>
			</g>
			<g>
				<path fill="#ED1D33" d="M157.71,152.655c0,0,8.831-11.48,12.37-13.248c0,0,1.323-0.884,2.795,0.738
					c1.467,1.618,6.773,8.536,7.946,12.07c1.178,3.534,3.095,5.006,0.884,11.78c-2.207,6.769-5.875,13.997-6.479,14.72
					c-1.263,1.502-1.842,2.376-4.128,0.429c0,0,4.867,6.339,4.867,13.997c0,7.651-4.268,11.48-5.885,12.953
					c-1.622,1.473-6.12,4.403-9.574,5.151c-2.63,0.574-6.179,0.589-6.179,0.589s-19.582,19.138-24.144,22.522
					c-4.562,3.389-12.364,10.163-20.605,12.519c-8.245,2.355-17.668,3.529-29.446,2.056c-6.417-0.803-18.646-3.614-23.653-8.351
					c-3.234-3.064-10.939-11.081-16.384-19.472c-5.446-8.391-8.396-10.447-11.925-14.57c-3.536-4.128-10.894-9.864-13.103-13.103
					c-2.206-3.239-6.626-10.452-6.33-14.87c0.587-8.815,6.769-11.48,8.241-12.364c1.472-0.883,7.957-4.123,10.313-6.773
					c2.354-2.65,7.357-8.246,8.383-11.335c1.034-3.09,3.24-6.769,5.446-13.986c2.021-6.583,7.6-25.608,14.431-37.093
					c0,0,2.646-4.121,7.357-4.121s17.373-0.883,17.373-0.883s6.622-9.719,10.817-12.292c0,0,2.356-1.767,3.386-1.325
					c1.033,0.439-1.62,2.87-1.62,2.87s-6.479,6.696-7.654,9.494c0,0-0.586,1.326,1.175,1.326c1.77,0,17.891-0.367,22.014-0.22
					c4.119,0.147,6.474,1.915,7.947,3.384c0,0,19.376,24.828,26.35,32.093c7.068,7.361,13.876,21.008,13.876,21.008
					C156.498,149.231,156.677,153.883,157.71,152.655z"/>
			</g>
			<g>
				<g>
					<path fill="#FFFFFF" d="M155.943,155.311c0,0,1.852-4.253,0.628-6.963c-1.861-4.093-5.899-10.867-10.596-17.142
						c-1.128-1.51-15.035-17.693-15.035-17.693l-13.796-17.255c0,0-2.346-4.205-8.746-4.395c-3.933-0.117-20.526,0.172-20.526,0.172
						s-3.753,0.455-2.398-1.674c1.528-2.404,3.13-4.368,5.261-6.716c1.355-1.495,6.754-6.464,2.381-5.134
						c-2.859,0.871-7.597,5.873-12.835,13.5l-15.556,0.753c0,0-5.995-0.918-9.394,4.585c-4.475,7.262-8.583,19.022-8.583,19.022
						l10.769-16.946l2.618,10.701l40.625,0.22l5.462-9.938c0,0,4.587-0.33,9.724,14.196c1.627,4.617,1.861,3.175,12.114,12.559
						C138.328,136.558,155.943,155.311,155.943,155.311z"/>
					<path fill="#091336" d="M44.711,120.364l12.217-22.817c0,0,1.417-2.446,2.153,0.203c0.734,2.65,5.593,24.289,5.743,25.761
						c0,0,0.586,4.857-1.331,0.442c-1.909-4.415-5.588-14.278-6.182-18.106c0,0-0.736-4.271-1.909-0.295
						c0,0-8.243,17.077-10.01,19.579c-1.767,2.504-3.24,5.005-2.653,2.209C43.328,124.541,44.711,120.364,44.711,120.364z"/>
				</g>
				<g>
					<path fill="#091336" d="M94.117,120.715c2.514-4.248,4.562-11.335,11.333-22.818c1.058-1.792,1.691-2.309,3.389-0.147
						c6.474,8.244,14.495,30.545,14.275,32.532c0,0,0.3,3.975-1.323,1.913c-2.975-3.782-10.158-26.054-12.953-29.294
						c0,0-1.622-1.028-3.679,3.24c0,0-8.248,16.487-10.011,18.99c-1.767,2.504-3.24,5.005-2.651,2.209
						C93.083,124.541,93.66,121.484,94.117,120.715z"/>
				</g>
				<g>
					<polygon fill="#091336" points="60.848,111.733 60.551,109.674 101.479,108.791 100.002,111.145 					"/>
				</g>
			</g>
			<g>
				<path fill="#091336" d="M50.246,154.422c2.948-0.29,0.884,1.772,0.884,1.772c-3.532,2.645-4.728,10.597-5.002,14.42
					c-0.287,3.978-0.466,9.269-0.466,9.269s-6.841-1.837-13.101-4.847c-1.517-0.729-5.732-1.019-8.023,1.073
					c-1.565,1.438-3.14,5.99-2.256,12.764c0.878,6.769,3.536,1.463,3.536,1.463c4.712,7.362,15.891,25.032,22.957,35.045
					c6.319,8.95,13.622,10.432,16.198,11.774c5.266,2.746,20.018,4.418,29.442,3.24c7.597-0.954,12.951-3.24,15.302-5.596
					c2.356-2.356,21.499-12.958,26.795-21.199c5.301-8.241,2.945-15.898,1.178-22.372c-1.762-6.479-8.541-6.184-8.541-6.184
					c-9.714,0.289-34.148-3.24-34.148-3.24c-0.297-1.178-2.059-5.301-6.479-8.24c-4.415-2.95-1.762,2.645-1.762,2.645
					c-0.296,0,3.826,6.773,3.826,6.773s-5.006,3.534-6.182,3.824c-1.181,0.299-4.42-0.584-10.016,2.356
					c-5.588,2.945-10.008,2.355-14.126,2.945c-4.125,0.593-7.687,0.279-9.444-2.945c-1.198-2.211-3.714-3.858-2.63-16.192
					c0.878-10.038,1.332-10.882,2.361-12.948c1.076-2.176,4.101-4.707,10.002-8.541c7.198-4.677,10.895-11.191,10.895-11.191
					c-0.884,1.183-6.474,5.595-6.474,5.595l-3.832-12.659l-5.887-17.666c-2.356,1.178-5.298,5.299-6.769,10.305
					c-1.472,5.002-5.078,16.066-7.654,22.964c-1.982,5.701-2.95,6.869-3.239,7.208C39.33,155.405,46.72,154.607,50.246,154.422z"/>
			</g>
			<g>
				<path fill="#091336" d="M88.521,156.778c0,0,9.421-15.304,10.602-19.133c1.176-3.829,5.002-16.785,8.537-20.022
					c0,0,2.356-1.767,3.828-0.294c1.468,1.47,8.536,11.777,11.775,22.962c3.239,11.191,5.316,24.758,9.729,32.41
					c0,0-18.004-9.804-23.57-11.656C100.062,157.926,88.521,156.778,88.521,156.778z"/>
			</g>
			<g>
				<path fill="#FFFFFF" d="M59.964,135.878c-0.878-3.169-5.595-17.08-5.595-17.08c-2.645,2.945-12.948,32.968-13.54,34.73
					l11.431-1.308c-0.037-1.852,0.644-8.734,2.631-10.307l4.19,0.279l-1.193-4.412C58.328,136.892,59.301,136.118,59.964,135.878z"
					/>
			</g>
			<path fill="#FFFFFF" d="M120.164,139.677c-2.196-10.012-10.447-20.287-10.447-20.287c-4.707,3.531-8.831,20.312-9.417,22.084
				c-0.586,1.762-7.665,13.826-7.665,13.826s4.572,0.449,8.251,1.173c3.47,0.684,10.897,3.24,10.897,3.24
				c-1.019-2.271-0.24-10.896,2.151-13.303l5.336,0.489l-2.925-4.173C116.68,142.128,117.239,140.621,120.164,139.677z"/>
			<g>
				<path fill="#FFFFFF" d="M122.38,190.346c0,0,8.536-0.299,9.424-0.593c0,0,4.123-0.879,4.412,2.65
					c0.295,3.534,1.193,12.948-0.569,16.482c0,0,2.042,2.361-14.151,14.435c-16.192,12.069-17.66,14.426-29.438,15.015
					c-11.778,0.584-24.439-2.061-26.795-3.239c0,0-9.544-4.737-15.606-12.369c-7.949-10.008-11.777-18.249-23.258-35.62
					c-1.341-2.026-0.188-6.889,0.883-7.657c1.291-0.928,3.954,0.095,6.184,1.178c1.872,0.908,12.661,4.418,12.661,4.707
					c0,0.3,1.762,5.596,4.709,7.657c2.945,2.061,11.187,6.479,24.434,1.767c0,0,5.298-4.118,12.367-5.006
					c0.943-0.415,3.843-1.732,5.595-3.929C94.626,188.849,112.223,190.446,122.38,190.346z"/>
			</g>
			<g>
				<path fill="#091336" d="M38.177,203.149c0,3.964-2.795-15.604-1.62-19.137c0,0,1.18,4.417,1.472,9.424
					C38.327,198.442,38.177,202.266,38.177,203.149z"/>
			</g>
			<g>
				<g>
					<path fill="#091336" d="M52.013,220.669c0,3.963-4.709-16.931-2.943-24.144c0,0,1.176,4.417,1.473,9.423
						C50.837,210.951,52.013,219.787,52.013,220.669z"/>
				</g>
			</g>
			<g>
				<g>
					<g>
						<path fill="#091336" d="M67.07,226.79c0.303,4.407-3.965-15.903-2.093-27.908c0,0,1.023,8.136,1.138,13.147
							C66.234,217.041,67.008,225.911,67.07,226.79z"/>
					</g>
				</g>
			</g>
			<g>
				<g>
					<g>
						<path fill="#091336" d="M86.463,231.117c0,3.963-4.563-20.605-2.796-27.818c0,0,1.175,4.417,1.473,9.419
							C85.429,217.725,86.463,230.238,86.463,231.117z"/>
					</g>
				</g>
			</g>
			<g>
				<path fill="#091336" d="M122.23,203.444c0,3.963-2.496-6.329-1.323-9.863c0,0,0.883-4.857,1.178,0.15
					C122.38,198.732,122.23,202.56,122.23,203.444z"/>
			</g>
			<path fill="#091336" d="M73.802,194.464c0,0,19.282,2.945,24.877,2.651c0,0,1.181-0.589,1.473,2.356
				c0.294,2.94,2.502,18.993,3.091,21.049c0.593,2.062-1.155-19.901-1.622-21.344c-0.641-1.992,1.332-2.211,1.332-2.356
				c0,0,17.071-2.65,20.016-3.973c2.945-1.328,7.507-3.684,8.247-3.973l-6.035,0.879c0,0-17.371,5.241-24.585,5.366
				c-8.55,0.15-19.135-1.153-24.653-2.65L73.802,194.464z"/>
			<path d="M120.613,122.627"/>
			<path fill="#091336" d="M119.141,121.744c0,0,18.549,15.018,26.206,26.205c0,0,6.473,18.548,8.83,21.783c0,0,1.767,4.422,2.067,0
				c0.289-4.412-0.3-14.42-0.3-14.42s-38.275-42.105-40.631-42.694L119.141,121.744z"/>
			<g>
				<path fill="#091336" d="M160.655,163.552c0.704-5.755,7.951-11.48,10.892-12.954c0,0,4.128-2.061,2.062,2.356
					c-2.062,4.413-2.356,3.534-2.356,3.534s4.712,11.187,4.422,13.836c-0.299,2.646-2.356,7.652-7.662,1.762
					c0,0,2.651,1.767,4.423-0.289c1.762-2.067-2.656-10.163-2.656-12.664c0-0.295-3.823,3.239-4.711,8.541
					C165.068,167.675,159.183,175.626,160.655,163.552z"/>
			</g>
			<g>
				<path fill="#ED1D33" d="M149.464,29.887c0,0,1.527-6.174,6.195-8.618c4.592-2.406,4.626-2.496,4.626-2.496l4.783,7.286
					l-2.721-8.316l2.87-1.473l2.945,3.901l-1.103-4.782l7.582-4.051l9.858,14.573l-6.459,4.735c0,0,6.02-2.526,7.792-2.673
					l1.547,2.133l-7.432,5.095c0,0,7.283-2.382,9.049-2.666l1.303,1.952l-2.266,8.8l-9.854,6.639l9.114-3.329l-2.196,9.566
					l-9.874,7.729c0,0,9.274-5.001,9.274-4.711c0,0.292-9.419,8.39-9.419,8.39l8.471-5.006l-1.318,5.448l-4.797,4.859l3.914-1.403
					l-3.235,13.617c0,0-15.104,10.459-15.104,10.749c0,0.292,3.829-1.47,4.857-2.059c0,0-1.468,2.204-1.468,1.911
					c0-0.289,5.885-1.911,5.885-1.911s-9.125,6.766-9.125,6.476c0-0.292,12.214-6.037,12.214-6.037s-1.727,5.323-3.05,7.972
					c-1.303,2.595-5.83,9.14-5.83,9.14l-9.229,3.793l6.699-0.295l-1.104,1.62l-5.445,1.767l4.492-0.589l-7.003,9.414
					c0,0-5.73-9.561-5.291-11.771c0,0,1.917-7.949,1.323-10.894c0,0-1.323,5.596-3.09,6.918l-12.803-23.994L149.464,29.887z"/>
			</g>
			<line x1="169.93" y1="30.328" x2="169.046" y2="29.887"/>
			<g>
				<g>
					<path fill="#091336" d="M143.729,78.023c0,0,0,5.595,3.379,8.39C147.108,86.413,145.641,79.053,143.729,78.023z"/>
				</g>
				<g>
					<path fill="#091336" d="M145.347,70.516c0,0,1.178,7.212,4.562,10.011C149.909,80.526,147.258,71.546,145.347,70.516z"/>
				</g>
			</g>
			<g>
				<g>
					<path fill="#091336" d="M150.792,44.166c0,0,3.534,13.544,6.918,16.339C157.71,60.505,152.704,45.196,150.792,44.166z"/>
				</g>
			</g>
			<g>
				<g>
					<path fill="#091336" d="M161.688,24.588c0,0-0.444,3.385,2.057,5.74C163.745,30.328,163.011,25.764,161.688,24.588z"/>
				</g>
			</g>
			<g>
				<path fill="#091336" d="M169.046,29.442c-0.3,0.592-13.542,52.998-15.02,62.713c0,0,14.58-53.142,15.903-61.828L169.046,29.442z
					"/>
			</g>
			<path fill="#091336" d="M151.97,100.4c0,0,0.15-3.092,1.178-4.417C153.148,95.982,153.148,98.486,151.97,100.4z"/>
			<g>
				<path fill="#091336" d="M159.333,87.739c-3.963,0.901,15.009-9.716,18.249-9.568C177.582,78.17,162.567,87.002,159.333,87.739z"
					/>
			</g>
			<g>
				<path fill="#091336" d="M168.247,46.06c-3.963,0.901,15.015-9.716,18.255-9.569C186.502,36.491,171.487,45.323,168.247,46.06z"
					/>
			</g>
			<g>
				<path fill="#091336" d="M170.743,61.55c-1.977,0.449,7.512-4.856,9.125-4.784C179.868,56.766,172.36,61.184,170.743,61.55z"/>
			</g>
			<g>
				<path fill="#091336" d="M122.34,209.324c0.295,0,1.748,3.489,1.748,4.362c0,0.874-1.164,3.2-1.164,3.2l-0.873-2.91
					L122.34,209.324z"/>
			</g>
			<path fill="#ED1D33" d="M78.056,192.907c0,0,4.882-2.615,8.681-3.09c3.119-0.389,6.566-4.093,6.566-4.093
				s-0.188,1.987,10.843,3.409c11.031,1.418,19.027,1.178,19.027,1.178s-13.497,4.438-23.336,4.902
				C90.558,195.652,79.369,193.341,78.056,192.907z"/>
		</g>
	</g>
</g>
</svg>
