<?xml version="1.0" encoding="UTF-8" standalone="no"?>
<svg width="512px" height="512px" viewBox="0 0 512 512" version="1.1" xmlns="http://www.w3.org/2000/svg" xmlns:xlink="http://www.w3.org/1999/xlink" xmlns:sketch="http://www.bohemiancoding.com/sketch/ns">
    <!-- Generator: Sketch 3.2.2 (9983) - http://www.bohemiancoding.com/sketch -->
    <title>cleveland-indians</title>
    <desc>Created with Sketch.</desc>
    <defs></defs>
    <g id="MLB" stroke="none" stroke-width="1" fill="none" fill-rule="evenodd" sketch:type="MSPage">
        <g id="cleveland-indians" sketch:type="MSArtboardGroup" fill="#D30335">
            <g sketch:type="MSLayerGroup" transform="translate(149.000000, 103.000000)" id="Shape">
                <path d="M51.102607,0.24968741 C85.4721029,0.215921852 119.848743,0.228806078 154.224936,0.242578871 C158.129597,4.22291606 162.040955,8.21747033 166.116179,12.0334226 C166.163955,8.09440376 166.116179,4.1620492 166.143416,0.228806078 C183.064504,0.228806078 199.985146,0.235914616 216.905788,0.22169754 C216.919183,36.6329638 216.912486,73.0504501 216.912486,109.461716 C199.985593,109.454608 183.064504,109.454608 166.136718,109.461716 C166.12377,97.2541346 166.15815,85.0465528 166.12377,72.8389711 C158.884185,65.7726397 151.720953,58.63078 144.605942,51.4347178 C120.76184,51.4213893 96.9110391,51.4076165 73.0669362,51.4422706 C65.972465,58.6383329 58.808786,65.7726397 51.5696481,72.8189783 C51.5218724,126.598625 51.5424115,180.379161 51.5558066,234.158808 C59.0146235,241.450835 66.4180741,248.810394 73.7465123,256.239705 C97.1445597,256.259698 120.541714,256.266362 143.947352,256.231708 C151.2682,248.809949 158.665846,241.457499 166.124216,234.165916 C166.158597,222.182698 166.124216,210.201256 166.137165,198.218926 L216.912932,198.218926 C216.899984,217.936679 216.940615,237.661096 216.892393,257.379292 C210.12744,263.905819 203.539749,270.624276 196.849362,277.233884 C195.964842,277.977615 194.880288,278.45522 194.07078,279.288252 C184.958119,288.492032 175.654356,297.51099 166.58322,306.7552 C127.863008,306.788965 89.1360988,306.788965 50.4167798,306.7552 C33.7225144,289.993711 16.9460926,273.30775 0.107606996,256.68932 C0.0803703704,188.120803 0.0803703704,119.552731 0.107606996,50.9846585 C17.1791667,34.1480854 34.174821,17.2297641 51.102607,0.24968741 L51.102607,0.24968741 L51.102607,0.24968741 Z" sketch:type="MSShapeGroup"></path>
            </g>
        </g>
    </g>
</svg>