<?xml version="1.0" encoding="utf-8"?>
<!-- Generator: Adobe Illustrator 14.0.0, SVG Export Plug-In . SVG Version: 6.00 Build 43363)  -->
<!DOCTYPE svg PUBLIC "-//W3C//DTD SVG 1.1//EN" "http://www.w3.org/Graphics/SVG/1.1/DTD/svg11.dtd">
<svg version="1.1" id="Layer_1" xmlns="http://www.w3.org/2000/svg" xmlns:xlink="http://www.w3.org/1999/xlink" x="0px" y="0px"
	 width="250px" height="250px" viewBox="0 0 250 250" enable-background="new 0 0 250 250" xml:space="preserve">
<path fill="#021540" d="M181.694,46.417c-9.393-5.837-23.635-6.044-33.907-1.166v35.943c11.693-5.551,23.093-5.551,33.907,1.17
	V46.417 M147.787,139.348c11.693,5.551,23.093,5.551,33.907-1.17V99.604c-10.814-6.721-22.214-6.721-33.907-1.17V139.348z
	 M147.787,204.516l13.453,6.43c5.847-3.507,14.606-7.6,20.454-9.349V156c-10.814,6.727-22.214,6.727-33.907,1.176V204.516z
	 M115.65,54.6v142.024l11.106,1.758V42.037C121.493,42.615,115.65,46.126,115.65,54.6z M58.956,6.964h112.22
	c27.468,0,46.175,18.707,46.175,44.422c0,24.544-7.023,121.567,2.33,161.896c-25.708-1.753-51.429,9.94-68.97,32.149
	c-18.114-9.937-29.801-11.107-50.257-11.107c-16.366,0-39.75,5.261-57.864,12.272c-6.899,2.672-4.676-0.879-0.587-6.716
	c10.519-15.032,31.562-33.611,53.77-42.383V46.708c-8.178,8.188-11.684,16.949-11.684,33.315v89.423
	c0,15.777-5.848,26.884-14.613,34.485c-8.771,7.596-19.873,9.936-25.715,11.105c-5.847,1.166-8.183,0-3.511-5.846
	c4.677-5.847,9.354-10.521,9.354-31.563v-42.662c-4.676,1.747-10.351,6.537-13.442,11.102c-3.072,4.527-5.843,3.233-5.843-1.755
	c0-14.029,8.761-27.464,19.285-32.724v-10.524c-4.676,1.753-9.936,6.43-13.442,11.102c-3.26,4.347-5.843,3.447-5.843-1.752
	c0-14.026,8.761-27.468,19.285-32.728c0-21.625,8.766-29.226,22.796-36.821C52.235,37.38,34.116,14.001,32.017,2.5
	C38.496,5.818,50.186,6.944,58.956,6.964z"/>
</svg>
