<?xml version="1.0" encoding="utf-8"?>
<!-- Generator: Adobe Illustrator 14.0.0, SVG Export Plug-In . SVG Version: 6.00 Build 43363)  -->
<!DOCTYPE svg PUBLIC "-//W3C//DTD SVG 1.1//EN" "http://www.w3.org/Graphics/SVG/1.1/DTD/svg11.dtd">
<svg version="1.1" id="Layer_1" xmlns="http://www.w3.org/2000/svg" xmlns:xlink="http://www.w3.org/1999/xlink" x="0px" y="0px"
	 width="250px" height="250px" viewBox="0 0 250 250" enable-background="new 0 0 250 250" xml:space="preserve">
<g>
	<path fill="#004684" d="M78.778,219.898c4.134-2.071,5.303-5.063,5.888-8.094c0.221-1.144-0.461-1.205-1.226-0.349
		c-4.37,4.071-12.94,4.944-18.495-5.949c-2.873-5.637-5.683-10.108-9.17-12.884c8.909-3.236,14.986-10.837,14.515-18.92
		c-0.585-9.803-10.581-17.182-23.547-16.311c-26.865,1.77-34.62,25.987-25.89,28.086c6.642,1.601,10.001-4.679,10.535-9.196
		c-1.667,1.555-5.396,2.708-4.734-2.632c0.626-5.071,9.191-11.596,20.075-12.422c7.601-0.539,13.771,6.037,14.14,13.545
		c0.313,6.611-3.918,12.716-10.088,15.274c-2.672-0.729-5.739-0.678-9.391,0.322c-0.195-13.863,1.39-21.603,5.56-26.075
		c-2.416,0.821-5.062,2.293-7.298,4.898c-7.883,9.447-5.18,36.861-7.104,46.072c-0.867,4.971-6.318,7.596-8.857,3.194
		c-5.59,8.272,3.785,15.197,11.161,11.272c3.508-1.86,8.581-6.806,7.642-18.76c-0.534-6.699-0.888-12.5-1.042-17.572
		c2.251-0.519,5.95-0.396,8.652,4.637C53.16,203.749,60.735,228.904,78.778,219.898"/>
	<path fill="#004684" d="M216.001,165.559c0.697-2.979,0.579-6.262-0.303-9.481c-3.031-11.002-0.759-14.808,1.317-16.681
		c-24.537-3.209-24.619,33.929-35.969,37.806c-1.924,0.657-3.785-0.979-3.97-3.446c15.915-19.013,13.176-45.432-0.774-46.775
		c-3.457-0.338-6.949,2.944-6.889,8.951c0,0-0.016,31.373,0.006,34.42c0.016,3.045,0,4.133,0.087,4.801
		c0.058,0.439,0.154,0.83,0.241,1.229c-0.656,0.615-1.318,1.231-2.012,1.815c-4.948,4.164-5.77,2.697-6.215-1.057l0.015-23.517
		l-8.017,2.058c0,0-0.047,0.743-0.035,1.743c-1.058-1-3.118-1.231-4.693-1.194c-9.463,0.24-16.689,16.021-14.119,28.086
		c-1.656,1.888-4.001,4.047-6.637,6.41l0.025-27.881l-8.125,2.262l-0.077,21.09c-0.01,0.375-0.021,1.187-0.036,2.304
		c-1.067,4.001-4.278,6.181-5.97,5.935c-1.718-0.257-2.216-3.211-2.175-4.574l0.005-22.536l-7.709,1.959
		c0.19,8.995-3.38,12.879-7.432,14.336c-1.303-5.095-4.349-9.146-9.186-9.925c-2.385-0.381-4.416,0.257-5.873,1.451
		c-10.658,3.457-12.714,20.992-8.196,28.28c2.672,4.441,6.124,5.41,8.016,5.591c11.12,1.076,16.515-10.592,15.93-20.839
		c2.795-0.903,5.119-2.528,6.493-4.632l-0.154,6.678c0.021,4.463,0.605,10.991,5.693,11.002c3.867,0.01,7.591-2.812,10.694-6.34
		c0,1.036-0.005,2.129-0.005,3.236c-5.319,5.119-10.309,10.816-12.366,16.775c-0.128,0.391-0.246,0.791-0.354,1.195
		c-8.96,2.422-16.5,4.375-21.095,5.4c-27.912,6.263-35.893,13.951-37.18,23.506c9.74-10.904,21.162-6.668,24.393-4.725
		c0.774-1.688,4.821-7.508,14.622-11.272c5.939-2.287,12.15-4.522,18.474-6.729c-0.025,8.088,3.642,16.459,11.34,15.146
		c5.929-1.006,10.299-4.965,10.222-20.721l0.006-0.889c33.139-10.725,66.192-19.879,89.135-27.813
		C229.049,183.885,226.546,169.703,216.001,165.559 M87.318,178.422c1.99,0.766,3.457,3.083,4.318,5.971
		c-2.893-0.031-5.339-0.789-6.032-1.189C81.409,180.802,84.184,177.223,87.318,178.422 M85.815,201.691
		c-7.637,0.021-7.529-13.053-5.252-17.53c0.677,0.894,1.595,1.733,2.831,2.44c2.959,1.703,6.108,2.416,9.058,2.371
		C92.888,195.146,90.903,201.682,85.815,201.691 M203.805,166.831c0.025-0.005,0.057-0.005,0.077-0.005
		c0.404-0.047,0.795-0.077,1.175-0.094c0.021-0.004,0.041-0.004,0.062-0.004c0.385-0.017,0.754-0.021,1.144,0
		c0.016,0,0.031,0,0.047,0.004c0.391,0.017,0.784,0.058,1.2,0.119c0.015,0.004,0.025,0.01,0.046,0.01
		c0.047,0.006,0.098,0.021,0.154,0.031c-0.621,2.811-2.195,4.918-5.34,5.56c-6.965,1.426-6.708-4.585-1.359-5.272
		C202.076,167.052,202.969,166.918,203.805,166.831 M207.682,144.741c-2.983,2.888-0.057,11.114,0.318,17.868
		c0.01,0.216,0.005,0.427,0.01,0.637c-2.363-0.35-4.888-0.375-8.293,0.041c-2.729,0.333-4.693,1.268-5.996,2.482
		C197.004,157.563,202.051,145.659,207.682,144.741 M183.33,139.063c2.298,8.166-0.031,18.891-6.104,28.307
		c0.004-9.083,0.03-28.711,0-31.092C177.17,132.018,181.516,132.627,183.33,139.063 M145.096,163.682
		c2.814-5.437,8.066-3.707,8.801-0.609c0.03,5.627-0.119,10.848-0.107,12.58c0.029,4.597-3.354,10.172-7.018,9.955
		C141.417,185.3,141.089,171.391,145.096,163.682 M119.938,203.303c-0.005,3.164-0.01,6.252-0.016,8.785
		c-2.569,0.708-5.093,1.4-7.555,2.066c0.041-0.103,0.072-0.204,0.118-0.313C114.085,210.206,116.773,206.684,119.938,203.303
		 M116.763,232.02c-3.457,0.902-5.575-4.754-5.626-10.586c2.918-0.996,5.842-1.99,8.781-2.959
		C119.896,228.355,119.491,231.301,116.763,232.02 M215.939,184.618c-16.658,4.979-54.813,16.026-87.92,25.229l0.01-14.254
		c2.92-2.574,5.843-5.031,8.443-7.354c0.969,2.742,10.995,8.145,17.35-3.51c2.93,9.084,13.207-1.773,15.593-3.609
		c0.585-0.451,1.146-0.918,1.698-1.391c3.349,4.889,10.703,3.586,14.914-0.467c2.195-2.113,4.375-5.688,5.836-8.945
		c0.354,3.482,4.248,6.781,11.254,6.018c5.697-0.631,9.458-3.35,11.494-7.063c0.385,0.174,0.795,0.354,1.221,0.549
		C224.15,173.652,222.188,182.751,215.939,184.618"/>
	<path fill="#004684" d="M224.191,143.956h-1.853v5.03h-1.251v-5.03h-1.847v-1.099h4.948v1.099H224.191z M232.566,148.986h-1.252
		v-4.871h-0.029l-1.773,4.871h-1.207l-1.707-4.871h-0.041v4.871h-1.242v-6.129h2.17l1.416,4.007h0.031l1.481-4.007h2.153V148.986
		L232.566,148.986z"/>
	<path fill="#004684" d="M224.191,143.956h-1.853v5.03h-1.251v-5.03h-1.847v-1.099h4.948v1.099H224.191z M232.566,148.986h-1.252
		v-4.871h-0.029l-1.773,4.871h-1.207l-1.707-4.871h-0.041v4.871h-1.242v-6.129h2.17l1.416,4.007h0.031l1.481-4.007h2.153V148.986
		L232.566,148.986z"/>
	<path fill="#004684" d="M224.191,143.956h-1.853v5.03h-1.251v-5.03h-1.847v-1.099h4.948v1.099H224.191z M232.566,148.986h-1.252
		v-4.871h-0.029l-1.773,4.871h-1.207l-1.707-4.871h-0.041v4.871h-1.242v-6.129h2.17l1.416,4.007h0.031l1.481-4.007h2.153V148.986
		L232.566,148.986z"/>
	<polygon fill="#004684" points="72.526,45.543 72.526,128.65 116.414,154.332 160.302,128.65 160.302,45.543 	"/>
	<path fill="#8E6C22" d="M158.66,15.427c2.877,0,5.211-2.338,5.211-5.216S161.537,5,158.66,5c-2.872,0-5.211,2.333-5.211,5.211
		S155.788,15.427,158.66,15.427"/>
	<path fill="#8E6C22" d="M158.137,18.833h-1.076c0,6.862-5.555,12.438-12.412,12.438c-6.856,0-12.371-5.58-12.371-12.442h-3.309
		c0,6.862-5.559,12.442-12.411,12.442c-6.853,0-12.371-5.611-12.371-12.463l-3.333,0.031c0,6.862-5.555,12.432-12.412,12.432
		S76.05,25.669,76.05,18.817l-3.59-0.041v24.418h87.877V18.833h-3.276"/>
	<path fill="#8E6C22" d="M74.306,15.427c2.883,0,5.211-2.338,5.211-5.216S77.188,5,74.306,5c-2.877,0-5.211,2.333-5.211,5.211
		S71.429,15.427,74.306,15.427"/>
	<path fill="#8E6C22" d="M102.653,15.427c2.883,0,5.216-2.338,5.216-5.216S105.536,5,102.653,5c-2.877,0-5.206,2.333-5.206,5.211
		S99.776,15.427,102.653,15.427"/>
	<path fill="#8E6C22" d="M130.684,15.427c2.877,0,5.211-2.338,5.211-5.216S133.561,5,130.684,5c-2.884,0-5.217,2.333-5.217,5.211
		S127.8,15.427,130.684,15.427"/>
	<path fill="#231F20" d="M88.749,69.654c0-4.759-3.2-6.283-6.067-6.252l-0.944-0.031v-2.457h10.796h7.898v2.508
		c-2.672,0.2-5.416,1.836-5.416,6.231l-0.005,14.792l1.303-0.723c2.692-3.795,9.765-13.869,11.227-16.777
		c1.815-3.564-0.949-3.564-3.601-3.564v-2.482h16.566v2.482h-1.175c-1.795,0-4.031,0-7.011,3.672
		c-3.8,4.708-11.365,16.104-11.365,16.104c11.581,0.867,15.935,16.761,18.915,18.916c-1.703-11.351,6.692-25.511,19.013-24.962
		c1.374,0.057,3.077-0.113,7.006,0.964c3.938,1.087,4.293-0.862,4.821-3.021h2.935v18.7h-2.535
		c-0.215-3.241-1.824-13.95-12.195-14.269c-10.551-0.323-12.523,11.884-12.68,20.213c-0.522,30.81,20.932,29.823,24.865,19.89
		c0.563-1.457,0.323-1.856-0.328-2.169c-4.668-2.262,0.748-8.319,3.754-3.021c1.369,2.426-1.092,13.945-13.944,13.945
		c-19.972,0-25.819-27.891-33.24-36.969c-5.795-7.067-10.524-3.893-12.299-2.164l-0.072,4.862l0.041,8.647
		c0,4.765,3.206,6.283,6.072,6.252l0.938,0.031v2.467h-10.14H81.737v-2.467l0.944-0.031c2.867,0.031,6.067-1.487,6.067-6.252
		L88.749,69.654"/>
	<path fill="#FFFFFF" d="M86.995,67.9c0-4.76-3.195-6.278-6.063-6.252l-0.949-0.026v-2.467h10.801h7.898v2.513
		c-2.682,0.2-5.416,1.831-5.416,6.231l-0.005,14.802l1.297-0.733c2.698-3.8,9.766-13.874,11.232-16.771
		c1.811-3.569-0.949-3.569-3.605-3.569v-2.482h16.566v2.482h-1.169c-1.795,0-4.031,0-7.006,3.683
		c-3.811,4.698-11.371,16.099-11.371,16.099c11.581,0.862,15.935,16.756,18.905,18.916c-1.692-11.35,6.698-25.511,19.018-24.967
		c1.38,0.056,3.078-0.108,7.013,0.969c3.928,1.082,4.286-0.867,4.814-3.026h2.936v18.7h-2.539
		c-0.211-3.242-1.822-13.945-12.188-14.269c-10.555-0.323-12.535,11.889-12.678,20.213c-0.528,30.809,20.925,29.83,24.86,19.89
		c0.574-1.452,0.317-1.852-0.318-2.165c-4.672-2.272,0.738-8.324,3.744-3.026c1.375,2.431-1.092,13.951-13.944,13.951
		c-19.972,0-25.814-27.896-33.24-36.969c-5.791-7.078-10.52-3.893-12.294-2.17l-0.077,4.868l0.046,8.652
		c0,4.749,3.2,6.272,6.067,6.242l0.944,0.031v2.467H90.128H79.983v-2.467l0.949-0.031c2.867,0.031,6.063-1.493,6.063-6.242V67.9"/>
</g>
</svg>
