<?xml version="1.0" encoding="UTF-8" standalone="no"?>
<svg width="512px" height="512px" viewBox="0 0 512 512" version="1.1" xmlns="http://www.w3.org/2000/svg" xmlns:xlink="http://www.w3.org/1999/xlink" xmlns:sketch="http://www.bohemiancoding.com/sketch/ns">
    <!-- Generator: Sketch 3.2.2 (9983) - http://www.bohemiancoding.com/sketch -->
    <title>los-angeles-dodgers</title>
    <desc>Created with Sketch.</desc>
    <defs></defs>
    <g id="MLB" stroke="none" stroke-width="1" fill="none" fill-rule="evenodd" sketch:type="MSPage">
        <g id="los-angeles-dodgers" sketch:type="MSArtboardGroup">
            <g sketch:type="MSLayerGroup" transform="translate(64.000000, 60.000000)">
                <path d="M331.027163,103.55108 C330.355837,108.83068 325.514388,110.84796 327.180857,116.98648 C334.652327,125.78844 341.894755,129.57872 341.894755,143.89668 C345.559408,140.43736 359.996878,138.30188 363.81949,149.13688 C373.257551,175.93676 331.548429,196.81088 302.420755,209.30068 C271.057959,222.73608 241.029918,234.28028 224.246755,241.4826 C221.616735,253.78328 216.182939,285.12992 196.477531,286.61136 C185.546755,287.43876 184.267286,267.8018 190.656735,254.86284 C164.593469,263.5466 146.830959,279.346 143.932408,287.21812 C120.641327,289.7082 116.905592,286.5562 116.818714,286.39072 C134.778673,259.5672 178.288531,243.52352 200.631857,235.44652 C200.631857,235.44652 211.586327,219.3004 218.038959,211.56224 L219.192061,203.94228 C216.704204,210.58512 206.049857,219.90716 198.965388,208.67816 C197.472673,212.9964 194.976918,223.17736 186.992082,223.50832 C183.501184,223.66592 181.337143,220.6794 179.512714,218.37056 C178.051592,223.004 172.823143,234.16208 163.503551,232.84612 C154.784204,231.5932 152.446408,217.16492 153.488939,209.44252 C153.488939,209.77348 151.23802,213.3904 148.900224,214.91124 C148.710673,242.77492 133.538694,258.04636 117.640102,247.4714 L104.45051,259.44112 C102.562898,259.61448 100.849041,258.92892 99.9881633,257.38444 L112.901327,238.92948 C108.367898,215.0058 122.378878,189.6322 139.572735,194.84876 C144.761694,196.409 147.075796,201.06608 148.276286,206.10928 C150.227082,205.14004 152.470102,203.31188 154.144469,201.65708 C154.413,193.35944 166.83649,170.58624 180.618429,179.75856 C180.792184,179.71916 188.990265,140.72104 188.990265,140.72104 C188.990265,140.72104 196.485429,136.77316 199.541939,137.32476 C196.485429,152.82472 187.458061,195.5028 188.318939,209.98624 C188.500592,212.9176 194.961122,210.03352 196.319571,199.33248 C195.435,159.63304 220.613694,152.0052 226.008,160.14524 L227.295367,154.90504 C227.295367,154.90504 232.958204,151.27236 237.396857,151.1384 C236.275347,159.75124 233.724306,176.88236 231.726122,189.66372 L240.540245,175.39304 C241.551184,144.73984 259.827061,132.91196 268.696469,139.5548 C277.155184,145.87456 265.387224,170.57048 252.450367,172.35136 C251.960694,187.15 267.88298,180.31016 273.901224,163.72276 C279.113878,149.38904 280.448633,145.08656 282.115102,134.46432 C279.895776,130.09092 279.72202,120.95012 284.160673,118.42852 C289.736633,115.26864 287.343551,124.65372 290.708082,124.51188 C295.983918,124.29124 302.065347,122.54188 305.287714,125.83572 C310.816286,131.5172 301.844204,142.73044 300.177735,148.95564 C298.519163,155.17296 298.677122,160.40528 301.923184,159.93248 C307.554429,159.12872 318.358837,127.97908 320.35702,117.82176 C315.610347,96.0178 332.385612,92.89732 331.027163,103.55108 M216.088163,229.85172 C216.088163,229.85172 217.257061,224.6194 217.565082,222.36572 C216.791082,223.62652 213.631898,228.73276 211.689,231.61684 C213.079041,231.12828 216.088163,229.85172 216.088163,229.85172 M324.621918,125.47324 C321.802347,134.95288 312.056265,178.39532 296.307735,173.82492 C280.472327,169.21512 292.390347,142.21824 293.946245,137.16716 C292.421939,137.21444 290.313184,136.93076 288.702,136.59192 C285.384857,152.19432 276.00998,192.1538 254.669694,192.7054 C247.940633,192.87876 244.860429,187.83556 242.870143,184.51808 C238.384102,191.15304 234.332449,198.78876 229.672653,205.25824 C228.535347,211.70408 227.319061,220.45876 226.481878,226.32936 C312.727592,195.03788 342.360735,183.61976 353.157245,167.30816 C355.739878,163.40756 359.996878,153.53392 354.089204,149.42056 C350.132327,146.6862 343.774469,150.55528 342.100102,152.28888 C336.65051,157.9546 331.240408,163.5494 323.097612,162.16252 C317.387388,161.19328 314.631,154.645 318.769531,150.72076 C321.541714,148.08884 324.400776,151.87912 326.904429,150.64196 C331.777469,148.19916 334.170551,136.53676 324.621918,125.47324 M261.872633,148.12824 C258.895102,146.34736 252.347694,157.6394 252.521449,165.77156 C260.324633,163.38392 264.652714,149.78304 261.872633,148.12824 M218.876143,166.3468 C205.955082,167.8834 203.111816,201.8068 211.846959,200.16776 C216.435673,199.30096 219.199959,192.79996 220.842735,187.63068 C222.398633,182.75296 222.303857,176.92176 222.825122,174.16376 C223.76498,169.19148 221.340306,166.04736 218.876143,166.3468 M176.156082,186.40928 C163.187633,185.06968 159.546673,218.56756 167.484122,218.85912 C172.096531,219.03248 175.405776,214.38328 177.056449,207.81136 C177.403959,206.40084 178.944061,193.5328 179.165204,192.06712 C179.394245,190.55416 178.399102,186.64568 176.156082,186.40928 M130.450592,206.13292 C132.27502,209.49768 140.939082,210.32508 140.251959,208.44176 C140.654755,199.19852 129.984612,198.0244 130.450592,206.13292 M125.474878,211.97988 C120.096367,219.33192 120.728204,236.88068 127.251918,238.14148 C135.236755,239.70172 141.065449,225.69108 140.433612,218.0002 C135.979163,218.17356 128.381327,217.27524 125.474878,211.97988 M213.900429,245.19408 C213.900429,245.19408 208.995796,247.53444 203.182898,249.74872 C198.744245,256.65948 196.193204,272.45888 201.524327,270.1264 C208.040143,267.27384 210.883408,259.47264 213.900429,245.19408" id="Fill-1" fill="#263667" sketch:type="MSShapeGroup"></path>
                <path d="M98.4401633,253.67296 C81.6254082,284.23948 54.0378367,276.67468 45.3895714,276.85592 C33.479449,296.03584 13.0790204,303.183 9.20112245,300.67716 C4.09114286,297.39908 12.3129184,274.3422 38.0760612,270.53616 C46.3926122,260.58372 35.3670612,199.57676 70.5050816,181.77584 C71.3343673,181.77584 72.4953673,182.1068 71.9977959,183.27304 C52.8768367,200.0338 60.2930204,226.08508 55.2936122,249.796 C53.0742857,260.30792 50.9418367,267.16352 49.7176531,269.93728 C55.2620204,270.15792 57.5919184,270.81984 63.6891429,269.70876 C79.8957551,266.7774 87.0355102,250.91496 90.4632245,235.87204 C95.0519388,215.68348 94.3648163,189.711 78.8216327,180.95632 C49.8440204,164.6132 -0.774,209.54496 15.1324898,228.6776 C18.3943469,232.6176 34.1586735,229.84384 41.401102,206.83424 C42.577898,208.82788 42.577898,211.6962 41.1799592,215.84896 C32.5711837,241.60868 16.9095306,243.6496 10.0856939,240.13512 C3.14338776,236.54184 2.80377551,225.38376 4.16222449,218.44936 C10.9939592,183.2888 68.8386122,153.25812 95.1704082,179.01784 C113.422592,196.85816 109.836918,232.94856 98.4401633,253.67296 M20.9532857,288.1322 C25.8342245,289.18024 32.0973061,283.15992 34.9247755,278.17188 C27.9350816,279.3854 21.672,282.5374 20.9532857,288.1322" id="Fill-2" fill="#263667" sketch:type="MSShapeGroup"></path>
                <path d="M211.602122,38.26528 C211.602122,19.2272 227.066327,3.79816 246.147796,3.79816 C265.221367,3.79816 280.685571,19.2272 280.685571,38.26528 C280.685571,57.29548 265.221367,72.72452 246.147796,72.72452 C227.066327,72.72452 211.602122,57.29548 211.602122,38.26528 M234.893204,35.25512 C239.363449,20.74804 231.655041,11.29204 230.683592,10.18096 C220.747959,15.62604 214.018898,26.15372 214.018898,38.26528 C214.018898,43.7734 215.424735,48.95056 217.865204,53.47368 C219.863388,52.90632 230.588816,49.25 234.893204,35.25512 M257.149653,42.07132 C252.853163,56.01892 259.613816,65.0494 260.980163,66.68056 C271.239612,61.32216 278.268796,50.62112 278.268796,38.26528 C278.268796,33.00932 276.973531,28.06068 274.722612,23.68728 C273.229898,24.08128 261.604102,27.6194 257.149653,42.07132 M254.764469,41.33848 C259.566429,25.73608 271.421265,21.04748 272.890286,20.5274 C267.132673,11.90668 257.307612,6.21732 246.147796,6.21732 C241.83551,6.21732 237.752265,7.07624 234.000735,8.60496 C234.916898,9.87364 242.080347,20.38556 237.278388,35.98008 C232.705469,50.85752 222.043224,55.70372 219.808102,56.5784 C225.613102,64.86816 235.232816,70.31324 246.147796,70.31324 C250.199449,70.31324 254.061551,69.52524 257.639327,68.162 C256.265082,66.17624 250.191551,56.19228 254.764469,41.33848" id="Fill-3" fill="#D92A2F" sketch:type="MSShapeGroup"></path>
                <path d="M80.8277143,278.97564 L61.4224286,315.34184 C61.0986122,315.95648 61.335551,316.6972 61.9515918,317.02028 C62.5597347,317.35124 63.3100408,317.12272 63.6338571,316.50808 L83.0391429,280.14976 C83.3550612,279.543 83.1181224,278.78652 82.5257755,278.47132 C81.9097347,278.14824 81.1436327,278.37676 80.8277143,278.97564" id="Fill-4" fill="#D92A2F" sketch:type="MSShapeGroup"></path>
                <path d="M124.037449,291.9146 L110.168633,322.74904 C109.892204,323.36368 110.168633,324.11228 110.800469,324.39596 C111.424408,324.67176 112.174714,324.39596 112.443245,323.77344 L126.304163,292.93112 C126.580592,292.3086 126.312061,291.57576 125.680224,291.29208 C125.056286,291.0084 124.30598,291.29208 124.037449,291.9146" id="Fill-5" fill="#D92A2F" sketch:type="MSShapeGroup"></path>
                <path d="M174.078918,272.1358 L168.953143,288.2504 C168.739898,288.90444 169.103204,289.59788 169.758735,289.81064 C170.414265,290.01552 171.117184,289.66092 171.322531,288.999 L176.448306,272.89228 C176.661551,272.23824 176.298245,271.53692 175.642714,271.33204 C174.987184,271.1114 174.284265,271.48964 174.078918,272.1358" id="Fill-6" fill="#D92A2F" sketch:type="MSShapeGroup"></path>
                <path d="M165.343776,300.13344 L137.977347,386.34064 C137.764102,386.99468 138.127408,387.68812 138.790837,387.90876 C139.438469,388.11364 140.141388,387.75116 140.346735,387.09712 L167.713163,300.88992 C167.934306,300.23588 167.571,299.54244 166.915469,299.3218 C166.259939,299.11692 165.55702,299.48728 165.343776,300.13344" id="Fill-7" fill="#D92A2F" sketch:type="MSShapeGroup"></path>
                <path d="M202.306224,290.2992 L195.529776,321.96104 C195.379714,322.63084 195.814102,323.29276 196.485429,323.4346 C197.164653,323.58432 197.828082,323.15092 197.962347,322.48112 L204.754592,290.8114 C204.888857,290.1416 204.470265,289.47968 203.806837,289.34572 C203.119714,289.196 202.464184,289.62152 202.306224,290.2992" id="Fill-8" fill="#D92A2F" sketch:type="MSShapeGroup"></path>
                <path d="M171.891184,113.45624 L137.448184,174.84932 C137.116469,175.4482 137.337612,176.1968 137.929959,176.53564 C138.530204,176.87448 139.296306,176.66172 139.635918,176.06284 L174.063122,114.66976 C174.394837,114.07088 174.18949,113.32228 173.581347,112.98344 C172.981102,112.6446 172.230796,112.85736 171.891184,113.45624" id="Fill-9" fill="#D92A2F" sketch:type="MSShapeGroup"></path>
                <path d="M267.875082,72.30688 L256.446735,125.59932 C256.288776,126.34004 256.762653,127.065 257.497163,127.2226 C258.247469,127.3802 258.966184,126.91528 259.132041,126.17456 L270.560388,72.87424 C270.702551,72.13352 270.244469,71.40068 269.502061,71.24308 C268.767551,71.10124 268.033041,71.55828 267.875082,72.30688" id="Fill-10" fill="#D92A2F" sketch:type="MSShapeGroup"></path>
                <path d="M247.308796,83.8826 L235.035367,135.52024 C234.861612,136.26884 235.319694,137.00956 236.07,137.17504 C236.796612,137.35628 237.531122,136.89924 237.712776,136.15064 L249.970408,84.52088 C250.144163,83.78804 249.69398,83.0552 248.959469,82.87396 C248.217061,82.69272 247.474653,83.14976 247.308796,83.8826" id="Fill-11" fill="#D92A2F" sketch:type="MSShapeGroup"></path>
                <path d="M234.656265,82.53512 L214.074184,145.78788 C213.845143,146.50496 214.232143,147.2772 214.958755,147.5136 C215.677469,147.75 216.451469,147.356 216.68051,146.63104 L237.27049,83.37828 C237.491633,82.6612 237.112531,81.89684 236.37802,81.65256 C235.659306,81.42404 234.893204,81.81016 234.656265,82.53512" id="Fill-12" fill="#D92A2F" sketch:type="MSShapeGroup"></path>
                <path d="M205.599673,53.72584 L178.849286,100.3912 C178.478082,101.04524 178.707122,101.88052 179.362653,102.25876 C180.018184,102.62912 180.855367,102.4006 181.234469,101.74656 L207.984857,55.0812 C208.356061,54.42716 208.12702,53.59188 207.47149,53.22152 C206.808061,52.84328 205.978776,53.0718 205.599673,53.72584" id="Fill-13" fill="#D92A2F" sketch:type="MSShapeGroup"></path>
                <path d="M221.206041,75.74256 L201.66649,117.64052 C201.342673,118.32608 201.642796,119.12984 202.329918,119.45292 C203.017041,119.776 203.838429,119.46868 204.162245,118.78312 L223.686,76.90092 C224.009816,76.21536 223.709694,75.39584 223.030469,75.07276 C222.335449,74.76544 221.521959,75.057 221.206041,75.74256" id="Fill-14" fill="#D92A2F" sketch:type="MSShapeGroup"></path>
                <path d="M231.196959,266.69072 L224.831204,301.04752 C224.696939,301.7252 225.147122,302.37136 225.826347,302.49744 C226.497673,302.61564 227.153204,302.18224 227.279571,301.50456 L233.653224,267.13988 C233.78749,266.4622 233.329408,265.81604 232.650184,265.68996 C231.970959,265.56388 231.323327,266.01304 231.196959,266.69072" id="Fill-15" fill="#D92A2F" sketch:type="MSShapeGroup"></path>
                <path d="M373.486592,173.5176 L371.741143,173.5176 L371.741143,178.22984 L370.580143,178.22984 L370.580143,173.5176 L368.842592,173.5176 L368.842592,172.4932 L373.486592,172.4932 L373.486592,173.5176 L373.486592,173.5176 Z M381.368755,178.22984 L380.191959,178.22984 L380.191959,173.66732 L380.168265,173.66732 L378.493898,178.22984 L377.348694,178.22984 L375.745408,173.66732 L375.721714,173.66732 L375.721714,178.22984 L374.544918,178.22984 L374.544918,172.4932 L376.582592,172.4932 L377.925245,176.2362 L377.941041,176.2362 L379.346878,172.4932 L381.368755,172.4932 L381.368755,178.22984 L381.368755,178.22984 Z" id="Fill-16" fill="#263667" sketch:type="MSShapeGroup"></path>
            </g>
        </g>
    </g>
</svg>