<?xml version="1.0" encoding="utf-8"?>
<!-- Generator: Adobe Illustrator 11.0, SVG Export Plug-In  -->
<!DOCTYPE svg PUBLIC "-//W3C//DTD SVG 1.0//EN"    "http://www.w3.org/TR/2001/REC-SVG-20010904/DTD/svg10.dtd" [
	<!ENTITY ns_flows "http://ns.adobe.com/Flows/1.0/">
	<!ENTITY ns_svg "http://www.w3.org/2000/svg">
	<!ENTITY ns_xlink "http://www.w3.org/1999/xlink">
]>
<svg  xmlns="&ns_svg;" xmlns:xlink="&ns_xlink;" xmlns:a="http://ns.adobe.com/AdobeSVGViewerExtensions/3.0/"
	 width="300" height="333" viewBox="-0.806 -0.924 300 333" xml:space="preserve">
	<style type="text/css">
	<![CDATA[
	]]>
	</style>
	<defs>
	</defs>
	<g>
		<path fill="#FFFFFF" stroke="#FFFFFF" stroke-width="0.5877" d="M107.837,292.778c-2.438,4.811-9.872,18.5-9.485,20.523
			c0.48,2.512,2.054,4.428,1.979,6.964c-0.05,1.573-1.985,5.44-3.489,6.527c-1.259,0.907-5.062,8.043-20.085,0.963l-2.007-1.058
			c-14.53-8.039-10.976-15.296-10.976-16.85c0-1.853,1.998-5.687,3.246-6.646c2.011-1.546,4.485-1.396,6.804-2.473
			c1.867-0.874,7.51-12.212,9.984-17.005l0.04-0.108c-49.488-24.303-83.552-75.2-83.552-134.059
			c0-82.434,66.83-149.264,149.265-149.264c82.435,0,149.265,66.83,149.265,149.264c0,82.436-66.83,149.266-149.265,149.266
			c-14.543,0-28.597-2.079-41.889-5.959L107.837,292.778z"/>
		<path fill="#FC1921" d="M199.405,93.283c2.516,1.566,5.26,3.033,7.346,4.909l23.969-30.517c4.914,4.281,8.824,8.417,12.651,14.432
			l-27.979,24.561c2.26,2.576,5.167,7.668,6.988,11.215l28.75-19.906c0.55,1.073,2.117,7.636,1.867,9.558l-28.22,18.234
			c0.456,2.036,0.772,2.482,1.107,5.184c0,0,32.471-18.421,32.487-18.653c-3.542-34.866-33.861-63.302-69.663-63.302
			c-14.872,0-28.646,4.697-39.925,12.686c-0.19,0.135,1.869,32.675,1.869,32.675c2.29-1.431,5.125-2.765,6.269-3.146l-0.571-29.678
			c2.769-2.195,6.537-4.008,9.448-5.06l-0.67,32.158c4.008-0.952,11.163-1.528,13.456-1.047l5.821-35.024
			c7.063-0.667,14.12,0.099,20.325,2.104l-13.551,35.209c2.684,0.821,5.578,2.053,8.222,3.407"/>
		<path fill="none" stroke="#FFFFFF" stroke-width="2.2041" d="M175.66,188.708c28.023,0,50.739-22.721,50.739-50.739
			c0-28.025-22.716-50.742-50.739-50.742s-50.743,22.717-50.743,50.742C124.917,165.987,147.637,188.708,175.66,188.708z"/>
		<path fill="#FC1921" d="M133.924,202.953c-1.412,2.329-12.27,8.79-14.616,5.149c-3.909-6.072,8.042-15.715,5.782-18.412
			c-1.359-1.616-6.973,2.602-11.557,7.881c0,0-2.546,4.879-6.015,11.028l-8.157,0.072c-0.5-0.377,10.377-16.298,8.266-18.152
			c-3-2.62-20.595,25.82-28.863,19.781c-0.696-0.512-2.563-2.624-0.076-7.939c-3.702,4.886-12.698,8.841-16.485,5.559
			c-8.127-7.044,13.936-30.667,22.833-22.48c0.696,0.637,0.949,1.259,0.896,1.754l1.196-1.886l8.045-0.072
			c-3.656,9.843-11.236,18.749-9.291,20.148c3.383,2.434,22.839-27.389,29.462-20.891c2.056,2.021,1.915,4.664,1.379,6.104
			c4.691-4.892,14.597-9.605,17.799-6.281c3.896,4.037-7.96,15.966-5.349,17.631c1.481,0.947,6.042-2.536,6.042-2.536
			 M68.284,202.91c4.359,4.835,17.543-10.474,14.856-14.8C79.572,183.622,64.384,198.583,68.284,202.91z"/>
		<path fill="#FC1921" d="M156.668,193.846c7.392,0.592,15.95-3.896,14.373-7.41c-0.93-2.073-6.518-1.259-9.81,0.094
			L156.668,193.846z M180.758,200.019c-8.088,7.346-16.791,10.089-19.658,7.898c-4.781-3.653-0.424-8.401-2.852-10.448
			c-0.664-0.554-1.775-0.699-3.591-0.57l9.399-14.584c5.046-2.584,13.289-3.978,14.672,0.743
			c1.932,6.597-7.273,12.304-13.657,13.358c4.859,0.89,0.053,6.299,5.026,6.949c2.214,0.293,8.667-4.321,12.04-8.986"/>
		<path fill="#FC1921" d="M214.467,197.388c-12.592,9.047-29.176,11.873-32.701,4.162c-5.814-12.713,26.437-28.647,30.25-18.912
			c2.708,6.916-10.131,13.102-20.712,13.199c-0.444,0.004-0.292-0.108-0.332,0.004c-0.923,2.68,0.384,5.616,5.345,5.574
			c4.96-0.042,12.326-2.099,19.323-8.338 M191.721,193.297c6.387-0.83,12.789-6.155,11.718-8.593
			C201.931,181.286,193.097,187.442,191.721,193.297z"/>
		<path fill="#FC1921" d="M259.137,187.489c-4.15,4.228-10.093,7.24-10.843,7.819c-11.747,9.047-29.152,12.368-33.028,4.829
			c-6.587-12.819,26.274-27.527,28.82-18.568c1.854,6.525-9.589,12.103-19.283,12.852c-0.441,0.039-0.293-0.108-0.329,0.007
			c-0.926,2.677,0.382,5.621,5.342,5.571c4.96-0.046,10.332-2.386,17.684-6.888c1.643-1.009,8.555-4.824,11.929-9.479
			 M225.108,191.666c7.273-0.286,13.812-6.092,11.935-8.708C234.707,179.689,225.617,187.142,225.108,191.666z"/>
		<path fill="#FC1921" d="M253.875,191.067c0.549,5.673-5.071,5.831-5.351,5.562c-0.867,0.95-0.2,5.04,4.13,5.253
			c7.2,0.362,7.092-9.106,6.14-12.625c-0.65-2.408-0.175-5.043,0.206-7.358c0.953-5.798,8.464-11.841,11.125-9.948
			c1.819,1.301,0.819,5.618-4.097,9.855c-0.923,0.894-1.523,1.042-0.189,3.784c1.446,2.977,3.925,10.139-0.117,15.605
			c-3.156,4.271-8.561,4.849-13.051,4.087c-2.872-0.489-6.085-2.396-7.411-4.548C239.501,191.421,251.396,185.029,253.875,191.067z"
			/>
		<path fill="#0C2D82" d="M176.803,163.384c1.081-1.507,2.096-2.905,3.091-4.229c0.24-0.319,0.877-1.403,1.196-2.216
			c1.734-4.449-2.631-11.25-8.762-14.141c-6.094-2.873-12.63-2.272-14.586,0.633c-0.489,0.724-1.081,1.649-1.196,2.027
			c-0.68,2.227-1.445,4.422-2.273,6.811c-9.665-6.455-15.342-13.384-12.714-18.395c4.872-9.294,20.089-7.728,35.982,0.079
			c15.894,7.803,26.643,19.652,22.151,28.181C197.029,167.196,187.917,167.092,176.803,163.384z"/>
		<path fill="#0C2D82" d="M195.857,182.292c-0.812,0.296-2.829,1.376-4.39,2.363c-3.15-3.582-14.222-11.253-20.144-13.309
			c-0.09-0.03,1.501-2.116,1.501-2.116c6.106,2.48,20.646,10.917,22.936,13.016"/>
		<g>
			<path fill="#0C2D82" d="M224.685,183.471c1.317-0.936,4.901-2.397,5.003-2.532c0.118-0.49,0.188-1.462,0.188-1.462
				c3.817-17.94-3.962-32.54-10.066-38.266c-5.959-5.589-3.124-1.413-1.146,1.146c1.406,1.816,2.08,2.881,2.671,4.004
				c3.104,5.891,1.633,5.161-2.48,0.956c-8.111-8.288-22.234-18.798-35.21-25.285c-17.717-8.86-39.412-13.075-51.433-12.694
				c4.961-2.29,7.684-2.536,12.783-3.052c4.521-0.457,2.75-1.354,0-1.146c-9.658,0.739-31.18,1.077-34.54,17.94
				c-2.855,14.319,8.778,26.527,20.036,30.916c9.787,3.814,20.138,8.361,20.138,8.361l1.048-3.207
				c-5.726-3.055-15.707-6.34-20.992-8.396c-6.873-2.671-19.172-12.136-17.56-25.003c2.674-21.354,42.809-14.324,69.468-0.953
				c11.551,5.795,27.014,17.03,34.613,24.363c8.709,8.403,10.236,11.219,10.808,20.108
				C228.039,174.703,226.527,179.595,224.685,183.471"/>
			<text transform="matrix(1 0 0 1 -13616.8574 -13294.916)"><tspan x="0" y="0" fill="#0C2D82" font-family="'Helvetica'" font-size="9"> </tspan></text>
		</g>
		<path fill="none" stroke="#FC1921" stroke-width="1.0213" stroke-linecap="round" stroke-linejoin="round" d="M228.202,62.013
			c2.675-3.439,9.508-12.236,12.024-14.127"/>
		<polyline fill="none" stroke="#FC1921" stroke-width="1.0213" stroke-linecap="round" stroke-linejoin="round" points="
			228.968,46.36 234.313,53.993 244.234,57.43 "/>
		<polyline fill="none" stroke="#FC1921" stroke-width="1.0213" stroke-linecap="round" stroke-linejoin="round" points="
			223.242,51.702 230.496,58.957 238.512,62.771 "/>
		<path fill="#FC1921" d="M292.1,149.04c0-78.821-63.897-142.721-142.715-142.721c-70.221,0-128.598,50.72-140.5,117.52
			l13.847-14.667c17.165-53.467,67.293-92.163,126.462-92.163c73.335,0,132.791,59.451,132.791,132.79l0.079,0.105
			c-0.863,24.806-5.723,35.442-14.613,41.854l-0.791,6.517c3.902-3.002,15.723-15.502,23.051-30.601
			c1.991-4.11,2.543-14.719,2.478-18.398L292.1,149.04z"/>
		<path fill="#FC1921" d="M274.871,193.728c-18.028,51.948-67.404,87.316-125.486,87.82
			c-69.363,0.601-132.198-57.98-132.198-131.319l0,0c-1.035-14.822,3.249-24.316,6.748-30.752
			c3.597-6.623,11.257-15.361,18.045-14.031c10.522,2.066,3.755,15.802-5.181,31.38C28.067,152.055,17.485,168.049,26,177.253
			c6.892,7.451,21.002,5.756,29.632-2.81l-26.623,49.981l11.817,0.088l51.41-97.046l-11.906,0.33l-21.021,39.114
			c-6.774,6.347-17.78,12.174-24.071,7.827c-12.484-8.622,36.409-55.318,18.417-70.502c-14.37-12.125-29.98,5.979-34.928,14.564
			c-4.053,7.035-11.701,17.858-11.879,31.191l0.01-0.574c0,78.817,63.899,142.714,142.717,142.714
			c67.201,0,123.556-46.448,138.706-108.992c0.575-2.294,1.187-5.098,1.187-5.098C285.459,184.345,274.871,193.728,274.871,193.728z
			"/>
		
			<line fill="none" stroke="#FC1921" stroke-width="1.0213" stroke-linecap="round" stroke-linejoin="round" x1="73.234" y1="76.133" x2="85.258" y2="74.414"/>
		<path fill="none" stroke="#FC1921" stroke-width="1.0213" stroke-linecap="round" stroke-linejoin="round" d="M52.626,55.156
			c28.673,22.901,47.043,58.158,47.043,97.707c0,10.7-1.219,19.829-3.715,29.771"/>
		<path fill="none" stroke="#FC1921" stroke-width="1.0213" stroke-linecap="round" stroke-linejoin="round" d="M84.812,212.406
			c-6.367,11.812-14.619,22.438-24.425,31.432c-4.58,4.197-3.174,1.78-3.174,1.78"/>
		<polyline fill="none" stroke="#FC1921" stroke-width="1.0213" stroke-linecap="round" stroke-linejoin="round" points="
			66.375,54.384 56.066,58.201 52.633,68.697 "/>
		
			<line fill="none" stroke="#FC1921" stroke-width="1.0213" stroke-linecap="round" stroke-linejoin="round" x1="62.173" y1="63.166" x2="71.336" y2="59.729"/>
		
			<line fill="none" stroke="#FC1921" stroke-width="1.0213" stroke-linecap="round" stroke-linejoin="round" x1="65.229" y1="66.599" x2="74.772" y2="63.543"/>
		
			<line fill="none" stroke="#FC1921" stroke-width="1.0213" stroke-linecap="round" stroke-linejoin="round" x1="69.046" y1="71.183" x2="81.26" y2="69.272"/>
		
			<line fill="none" stroke="#FC1921" stroke-width="1.0213" stroke-linecap="round" stroke-linejoin="round" x1="79.732" y1="84.348" x2="92.903" y2="83.202"/>
		<polyline fill="none" stroke="#FC1921" stroke-width="1.0213" stroke-linecap="round" stroke-linejoin="round" points="
			76.486,101.522 84.505,93.127 97.864,92.745 "/>
		<polyline fill="none" stroke="#FC1921" stroke-width="1.0213" stroke-linecap="round" stroke-linejoin="round" points="
			80.114,109.733 88.514,101.522 101.3,102.289 "/>
		
			<line fill="none" stroke="#FC1921" stroke-width="1.0213" stroke-linecap="round" stroke-linejoin="round" x1="57.022" y1="73.086" x2="61.221" y2="63.166"/>
		
			<line fill="none" stroke="#FC1921" stroke-width="1.0213" stroke-linecap="round" stroke-linejoin="round" x1="61.983" y1="78.051" x2="66.181" y2="67.746"/>
		
			<line fill="none" stroke="#FC1921" stroke-width="1.0213" stroke-linecap="round" stroke-linejoin="round" x1="64.658" y1="82.249" x2="70.002" y2="72.135"/>
		
			<line fill="none" stroke="#FC1921" stroke-width="1.0213" stroke-linecap="round" stroke-linejoin="round" x1="68.28" y1="87.02" x2="74.388" y2="77.86"/>
		
			<line fill="none" stroke="#FC1921" stroke-width="1.0213" stroke-linecap="round" stroke-linejoin="round" x1="71.908" y1="92.555" x2="78.78" y2="85.11"/>
		<polyline fill="none" stroke="#FC1921" stroke-width="1.0213" stroke-linecap="round" stroke-linejoin="round" points="
			83.74,120.61 92.519,111.831 106.26,112.975 "/>
		
			<line fill="none" stroke="#FC1921" stroke-width="1.0213" stroke-linecap="round" stroke-linejoin="round" x1="95.955" y1="122.327" x2="108.36" y2="125.57"/>
		
			<line fill="none" stroke="#FC1921" stroke-width="1.0213" stroke-linecap="round" stroke-linejoin="round" x1="95.764" y1="121.946" x2="92.137" y2="125.57"/>
		
			<line fill="none" stroke="#FC1921" stroke-width="1.0213" stroke-linecap="round" stroke-linejoin="round" x1="98.435" y1="134.352" x2="109.888" y2="138.355"/>
		
			<line fill="none" stroke="#FC1921" stroke-width="1.0213" stroke-linecap="round" stroke-linejoin="round" x1="89.273" y1="142.363" x2="98.244" y2="133.396"/>
		<polyline fill="none" stroke="#FC1921" stroke-width="1.0213" stroke-linecap="round" stroke-linejoin="round" points="
			111.986,153.629 99.391,148.284 89.273,156.297 "/>
		<polyline fill="none" stroke="#FC1921" stroke-width="1.0213" stroke-linecap="round" stroke-linejoin="round" points="
			89.466,168.13 99.201,161.642 111.03,166.415 "/>
		<polyline fill="none" stroke="#FC1921" stroke-width="1.0213" stroke-linecap="round" stroke-linejoin="round" points="
			86.605,179.01 97.864,174.428 109.697,179.388 "/>
		
			<line fill="none" stroke="#FC1921" stroke-width="1.0213" stroke-linecap="round" stroke-linejoin="round" x1="95.955" y1="182.634" x2="101.872" y2="187.602"/>
		
			<line fill="none" stroke="#FC1921" stroke-width="1.0213" stroke-linecap="round" stroke-linejoin="round" x1="93.091" y1="194.087" x2="95.193" y2="195.804"/>
		
			<line fill="none" stroke="#FC1921" stroke-width="1.0213" stroke-linecap="round" stroke-linejoin="round" x1="100.035" y1="199.238" x2="101.937" y2="200.452"/>
		
			<line fill="none" stroke="#FC1921" stroke-width="1.0213" stroke-linecap="round" stroke-linejoin="round" x1="93.475" y1="206.682" x2="97.482" y2="210.309"/>
		
			<line fill="none" stroke="#FC1921" stroke-width="1.0213" stroke-linecap="round" stroke-linejoin="round" x1="84.315" y1="213.173" x2="91.565" y2="219.849"/>
		
			<line fill="none" stroke="#FC1921" stroke-width="1.0213" stroke-linecap="round" stroke-linejoin="round" x1="83.36" y1="214.125" x2="75.154" y2="213.359"/>
		<polyline fill="none" stroke="#FC1921" stroke-width="1.0213" stroke-linecap="round" stroke-linejoin="round" points="
			86.22,228.824 79.732,220.611 70.002,219.471 "/>
		<polyline fill="none" stroke="#FC1921" stroke-width="1.0213" stroke-linecap="round" stroke-linejoin="round" points="
			64.837,225.948 74,226.901 80.107,235.493 "/>
		<polyline fill="none" stroke="#FC1921" stroke-width="1.0213" stroke-linecap="round" stroke-linejoin="round" points="
			59.493,231.293 68.274,233.964 74.763,240.834 "/>
		<polyline fill="none" stroke="#FC1921" stroke-width="1.0213" stroke-linecap="round" stroke-linejoin="round" points="
			56.25,236.255 64.076,238.544 69.802,245.033 "/>
		<polyline fill="none" stroke="#FC1921" stroke-width="1.0213" stroke-linecap="round" stroke-linejoin="round" points="
			62.928,249.424 59.112,243.317 54.15,241.409 "/>
		<path fill="none" stroke="#FC1921" stroke-width="1.0213" stroke-linecap="round" stroke-linejoin="round" d="M216.373,204.001
			c4.198,7.635,22.521,30.152,32.44,35.118"/>
		
			<line fill="none" stroke="#FC1921" stroke-width="1.0213" stroke-linecap="round" stroke-linejoin="round" x1="209.5" y1="203.238" x2="213.317" y2="202.857"/>
		<polyline fill="none" stroke="#FC1921" stroke-width="1.0213" stroke-linecap="round" stroke-linejoin="round" points="
			222.096,205.909 219.044,208.961 210.646,210.491 "/>
		
			<line fill="none" stroke="#FC1921" stroke-width="1.0213" stroke-linecap="round" stroke-linejoin="round" x1="214.083" y1="217.357" x2="225.532" y2="216.976"/>
		<polyline fill="none" stroke="#FC1921" stroke-width="1.0213" stroke-linecap="round" stroke-linejoin="round" points="
			235.457,215.452 229.349,222.703 220.19,225.381 "/>
		<polyline fill="none" stroke="#FC1921" stroke-width="1.0213" stroke-linecap="round" stroke-linejoin="round" points="
			240.036,220.413 234.503,227.285 224.389,231.864 "/>
		
			<line fill="none" stroke="#FC1921" stroke-width="1.0213" stroke-linecap="round" stroke-linejoin="round" x1="228.968" y1="236.444" x2="237.365" y2="231.483"/>
		<polyline fill="none" stroke="#FC1921" stroke-width="1.0213" stroke-linecap="round" stroke-linejoin="round" points="
			247.29,228.433 241.944,234.918 233.929,240.263 "/>
		
			<line fill="none" stroke="#FC1921" stroke-width="1.0213" stroke-linecap="round" stroke-linejoin="round" x1="245" y1="223.469" x2="238.893" y2="231.864"/>
		
			<line fill="none" stroke="#FC1921" stroke-width="1.0213" stroke-linecap="round" stroke-linejoin="round" x1="230.496" y1="209.346" x2="224.769" y2="215.836"/>
		<polyline fill="none" stroke="#FC1921" stroke-width="1.0213" stroke-linecap="round" stroke-linejoin="round" points="
			250.723,232.63 248.051,237.976 240.801,242.933 "/>
		<path fill="#FC1921" d="M127.567,241.524c-7.989,13.948-28.169,51.954-34.954,67.639c-1.773,4.096-2.191,5.948-0.431,8.015
			c0.338,0.4,0.884,1.397,0.976,1.758c0.368,1.403-1.232,3.227-2.073,3.778c-1.745,1.136-5.502,1.425-12.251-1.665
			c-6.747-3.09-8.442-6.847-8.544-8.931c-0.049-1.004,0.483-3.366,1.836-3.899c0.345-0.134,1.472-0.279,1.994-0.238
			c2.704,0.21,4.182-1.545,6.456-5.388c9.304-15.73,29.176-52.354,36.118-66.473c4.066-8.279,26.606-52.015,37.573-83.677
			c0.824-2.385,1.587-4.697,2.267-6.929c0.114-0.378,0.706-1.304,1.195-2.026c1.955-2.905,8.493-3.506,14.589-0.635
			c6.126,2.888,10.493,9.692,8.755,14.137c-0.315,0.814-0.952,1.901-1.192,2.221c-0.999,1.32-2.043,2.746-3.124,4.248
			C160.837,185.597,136.645,225.676,127.567,241.524z M76.881,309.245c0.115,0.324,0.533,0.744,1.66,0.479
			c0.453-0.113,0.808-0.533,1.376-1.162c0.949-1.056,2.103-2.676,2.431-4.335c0.213-0.716-0.223-0.377-0.384-0.046
			c-0.165,0.331-3.173,4.148-4.757,4.56C76.989,308.801,76.877,308.688,76.881,309.245z M102.828,271.96
			c-2.057,4.104-14.537,28.124-20.148,35.379c-0.152,0.193-0.296,0.375-0.441,0.545c-0.147,0.208-0.525,0.392-0.67,0.545
			c-0.177,0.188-0.115,0.336-0.227,0.438c-0.095,0.111,0.052,0.214-0.02,0.318c-0.085,0.133-0.388,0.261-0.496,0.385
			c-0.253,0.272-0.164,0.516-0.375,0.716c-0.371,0.364-0.965,0.585-0.965,0.585c-0.658,0.119-0.431,1,0.121,1.213
			c0.306,0.118,0.612,0.315,0.92,0.496c0.247,0.147,0.496,0.245,0.746,0.591c0.197,0.272-0.128,0.674-0.147,1.049
			c-0.021,0.292,0.098,0.574-0.115,0.784c-0.296,0.287-0.943,0.437-1.482,0.28c-0.64-0.191-1.468-0.688-2.23-1.053
			c-0.947-0.456-1.788-0.761-2.031-0.729c-0.22,0.03-0.713,0.155-0.864,0.383c-0.105,0.15-0.151,0.351,0.132,0.591
			c0.128,0.104,0.522,0.335,0.746,0.459c0.348,0.198,0.654,0.521,1.094,0.743c0.174,0.085,0.332-0.06,0.49,0.01
			c0.213,0.093,0.427,0.41,0.67,0.532c0.289,0.146,0.681,0.39,0.95,0.51c0.18,0.079,0.355,0.416,0.522,0.528
			c0.102,0.065,0.197-0.088,0.292-0.043c0.322,0.16,0.598,0.214,0.806,0.374c0.354,0.289,0.778,0.586,1.186,0.74
			c0.667,0.249,1.301-0.004,1.563-1.206c0.425-1.931,0.953-4.143,1.38-5.631c0.088-0.319,0.319-0.982,0.641-1.886
			c0.062-0.17-0.092-0.352-0.023-0.538c1.282-3.536,3.913-9.788,5.576-13.4c2.214-4.816,12.296-23.045,12.404-23.378
			C102.939,271.957,103.695,270.46,102.828,271.96z M117.309,243.711c1.679-3.238,51.807-88.62,56.344-96.432
			c0,0,1.331,0.759,1.12,1.862c-4.566,6.876-33.22,54.988-35.605,59.643c-2.381,4.652-19.631,34.137-30.463,55.185
			c0,0,43.841-74.712,45.579-77.817c1.708-3.058,20.681-33.698,21.827-35.448c0,0,1.196-1.972,1.14-1.86
			c-2.986-4.087-8.548-6.367-13.616-6.212c-0.421,1.987-18.693,46.695-24.324,57.549
			C133.948,210.515,119.477,239.727,117.309,243.711L117.309,243.711z M98.675,287.872c3.013-5.646,42.914-77.853,68.482-116.757
			c0.704-1.07,11.893-17.722,11.948-18.485c0.063-0.861-0.571-1.868-0.904-2.144c-0.558,0.895-6.81,10.991-12.253,19.447
			c-23.433,38.008-64.513,110.736-66.902,116.337c-0.088,0.214-0.607,1.659-0.696,1.856c-0.128,0.275,0.063,0.088-0.147,0.368
			c-0.565,0.742-1.068,2.069-1.564,2.852c-0.125,0.196-0.259,0.382-0.387,0.58c-0.05,0.087,0.013,0.226-0.03,0.317
			c-0.118,0.268-0.298,0.51-0.404,0.788c-0.04,0.096,0.022,0.233-0.027,0.312c-0.334,0.546-0.43,1.091-0.831,1.58
			c-0.056,0.065,0.014,0.217-0.033,0.307c-0.03,0.059-0.171,0.071-0.185,0.124c-0.21,0.749-0.749,1.234-1.087,1.888
			c-0.049,0.087-0.017,0.211-0.014,0.323c-0.108-0.03-0.19,0.026-0.21,0.114c-0.059,0.272-0.167,0.513-0.256,0.756
			c-0.076,0.203-0.303,0.402-0.348,0.585c-0.105,0.414-0.512,0.657-0.487,1.096c-0.325,0.111-0.22,0.222-0.229,0.327
			c-0.01,0.103-0.099,0.19-0.165,0.264c-0.276,0.295-0.407,0.702-0.529,1.088c-0.101,0.324-0.361,0.561-0.475,0.873
			c-0.027,0.065,0.016,0.154-0.021,0.203c-0.102,0.164,0.099,0.328,0.066,0.468c-0.045,0.17-0.444,0.456-0.516,0.605
			c-0.039,0.086-0.082,0.051-0.125,0.126c-0.417,0.679-0.322,1.353-0.687,2.033c-0.062,0.119-0.298,0.316-0.371,0.415
			c-0.493,0.626-0.365,1.425-0.838,2.009c0.079,0.333-0.194,0.569-0.233,0.881c-0.01,0.082,0.056,0.146,0.042,0.228
			c-0.029,0.285-0.131,0.519-0.184,0.781c-0.184,0.976-0.351,1.883-0.624,2.917c-0.2,0.767-0.717,1.106-0.815,1.936
			c-0.026,0.243,0.194,0.249,0.21,0.331c0.022,0.125,0.045,0.244,0.138,0.315c0.083,0.066,0.174-0.017,0.2-0.103
			c0.208-0.626,0.223-1.069,0.506-1.675c0.115-0.246-0.243-0.581-0.162-0.852c0.256-0.814,1.147-1.522,1.383-2.338
			c0.388-0.154,0.063-0.582,0.213-0.883c0.046-0.083,0.129-0.099,0.211-0.136c0.145-0.065-0.145-0.282-0.082-0.403
			c0.2-0.388,0.621-0.742,0.874-1.104c0.17-0.243,0.377-0.469,0.476-0.707c0.174-0.418,0.42-0.684,0.42-1.087
			c0.003-0.473,0.522-0.861,0.5-1.328c-0.006-0.124,0.142-0.231,0.168-0.337c0.134-0.616,0.2-1.19,0.43-1.775
			c0.075-0.191,0.02-0.427,0.02-0.649c0.289,0.028-0.039-0.34,0.217-0.333c-0.079-0.272,0.069-0.545,0.158-0.744
			c0.368-0.797,0.654-1.649,0.828-2.566c0.039-0.208,0.217-0.363,0.289-0.563c0.036-0.098-0.03-0.252,0.026-0.312
			c0.145-0.154,0.217-0.343,0.407-0.48c0.036-0.02-0.006-0.131,0.019-0.196c0.089-0.253,0.408-0.365,0.447-0.667
			c0.01-0.049,0.158-0.064,0.181-0.122c0.292-0.748,0.627-1.351,0.817-2.109c0.105-0.424,0.665-0.734,0.628-1.205
			c-0.003-0.032,0.158-0.059,0.174-0.118c0.151-0.489,0.131-0.904,0.43-1.33c0.052-0.083-0.003-0.217,0.026-0.319
			c0.02-0.089,0.378-0.107,0.397-0.139c0.252-0.394,0.049-1.021,0.191-1.427c0.075-0.225,0.499-0.333,0.634-0.511
			c0.092-0.119,0.069-0.272,0.177-0.363c0.026-0.021-0.026-0.073-0.023-0.08c0.063-0.148,0.073-0.23,0.198-0.349
			c0.059-0.052,0.095-0.163,0.066-0.265c0.082,0.067,0.029-0.119,0.111-0.054c-0.003-0.059-0.003-0.107-0.003-0.164
			 M131.264,212.052c3.506-4.822,20.674-40.86,29.251-66.747l-1.1,0.229C158.504,148.911,149.624,177.118,131.264,212.052z"/>
		<path fill="#0C2D82" d="M150.554,94.014c8.686-6.01,29.685-11.18,48.476-1.049c13.844,7.465,23.857,19.754,26.718,37.691
			l-10.496,6.016c-9.921-11.263-18.893-17.941-25.766-21.378c-6.869-3.433-22.9-10.305-38.167-11.066L150.554,94.014z
			 M206.238,102.391l-5.164,2.357l-5.138-2.976l0.598,5.622l-4.491,3.879l5.762,1.098l2.221,5.558l3.051-5.062l5.71-0.292
			l-3.722-4.423L206.238,102.391z M220.975,125.166l-3.42-0.026l-2.049-2.93l-1.104,3.22l-3.44,0.972l2.868,2.066l-0.208,3.604
			l2.96-1.987l3.189,1.294l-0.907-3.363L220.975,125.166z M178.771,92.068l-2.474,4.156l-5.039,0.407l3.144,3.643l-1.265,4.896
			l4.566-2.026l4.248,2.814l-0.315-5.022l3.856-2.975l-4.748-1.291L178.771,92.068z M158.722,93.501l-0.986,3.039l-3.187,0.994
			l2.556,1.894l-0.102,3.334l2.648-1.968l3.147,1.191l-0.936-3.188l2.049-2.48l-3.245-0.135L158.722,93.501z"/>
		<path fill="#0C2D82" d="M247.277,212.26h-2.269v6.175h-1.534v-6.175h-2.263v-1.34h6.065V212.26z M257.553,218.435h-1.535v-5.978
			h-0.035l-2.175,5.978h-1.482l-2.105-5.978h-0.032v5.978h-1.538v-7.515h2.662l1.747,4.907h0.035l1.82-4.907h2.639V218.435z"/>
	</g>
</svg>
