<?xml version="1.0" encoding="UTF-8" standalone="no"?>
<svg width="512px" height="512px" viewBox="0 0 512 512" version="1.1" xmlns="http://www.w3.org/2000/svg" xmlns:xlink="http://www.w3.org/1999/xlink" xmlns:sketch="http://www.bohemiancoding.com/sketch/ns">
    <!-- Generator: Sketch 3.2.2 (9983) - http://www.bohemiancoding.com/sketch -->
    <title>oakland-athletics</title>
    <desc>Created with Sketch.</desc>
    <defs></defs>
    <g id="MLB" stroke="none" stroke-width="1" fill="none" fill-rule="evenodd" sketch:type="MSPage">
        <g id="oakland-athletics" sketch:type="MSArtboardGroup">
            <g sketch:type="MSLayerGroup" transform="translate(82.000000, 82.000000)" id="Group">
                <g sketch:type="MSShapeGroup">
                    <path d="M175.682573,349.744398 C271.926763,349.744398 349.956432,271.720539 349.956432,175.470539 C349.956432,79.2278008 271.926763,1.1966805 175.682573,1.1966805 C79.439834,1.1966805 1.40871369,79.2278008 1.40871369,175.470539 C1.40871369,271.721992 79.439834,349.744398 175.682573,349.744398" id="Shape" fill="#FFFFFF"></path>
                    <path d="M175.682573,12.8977178 C86.0390041,12.8977178 13.1010373,85.8342324 13.1010373,175.470539 C13.1010373,265.121369 86.0390041,338.050622 175.682573,338.050622 C265.327593,338.050622 338.255394,265.121369 338.255394,175.470539 C338.255394,85.8356846 265.326141,12.8977178 175.682573,12.8977178 L175.682573,12.8977178 Z M175.682573,275.005602 C120.797925,275.005602 76.1475104,230.3639 76.1475104,175.470539 C76.1475104,120.593154 120.796473,75.9441909 175.682573,75.9441909 C230.559959,75.9441909 275.217635,120.594606 275.217635,175.470539 C275.217635,230.3639 230.559959,275.005602 175.682573,275.005602 L175.682573,275.005602 Z" id="Shape" fill="#00483A"></path>
                    <path d="M175.682573,7.95705394 C83.3159751,7.95705394 8.16037344,83.1039419 8.16037344,175.470539 C8.16037344,267.844398 83.3159751,343 175.682573,343 C268.050622,343 343.19751,267.844398 343.19751,175.470539 C343.196058,83.1039419 268.04917,7.95705394 175.682573,7.95705394 L175.682573,7.95705394 Z M175.682573,338.050622 C86.0390041,338.050622 13.1010373,265.121369 13.1010373,175.470539 C13.1010373,85.8342324 86.0390041,12.8977178 175.682573,12.8977178 C265.327593,12.8977178 338.255394,85.8342324 338.255394,175.470539 C338.255394,265.122822 265.326141,338.050622 175.682573,338.050622 L175.682573,338.050622 Z" id="Shape" fill="#FDC157"></path>
                    <path d="M175.682573,80.5900415 C123.361203,80.5900415 80.8006224,123.157884 80.8006224,175.471992 C80.8006224,227.793361 123.359751,270.361203 175.682573,270.361203 C228.005394,270.361203 270.564523,227.793361 270.564523,175.471992 C270.564523,123.156432 228.003942,80.5900415 175.682573,80.5900415" id="Shape" fill="#FFFFFF"></path>
                    <path d="M175.682573,75.9441909 C120.797925,75.9441909 76.1475104,120.594606 76.1475104,175.470539 C76.1475104,230.3639 120.796473,275.005602 175.682573,275.005602 C230.559959,275.005602 275.217635,230.3639 275.217635,175.470539 C275.217635,120.594606 230.559959,75.9441909 175.682573,75.9441909 L175.682573,75.9441909 Z M175.682573,270.359751 C123.361203,270.359751 80.8006224,227.791909 80.8006224,175.470539 C80.8006224,123.156432 123.359751,80.5885892 175.682573,80.5885892 C228.005394,80.5885892 270.564523,123.156432 270.564523,175.470539 C270.564523,227.793361 228.003942,270.359751 175.682573,270.359751 L175.682573,270.359751 Z" id="Shape" fill="#FDC157"></path>
                    <path d="M228.724274,213.216805 C226.105809,215.106224 223.038589,216.379876 220.139834,215.83527 C217.792946,215.419917 214.645851,213.696058 212.866805,207.859336 C212.866805,207.859336 193.629876,128.194398 193.605187,128.01722 C192.139834,118.334855 187.006017,113.009336 182.945436,110.254357 C177.739004,106.722407 171.228423,105.409544 165.55,106.73112 C156.676556,108.796266 153.391494,113.402905 152.16722,117.01473 C155.890871,115.157261 159.807676,115.989419 162.282365,117.591286 C163.868257,118.559959 167.568672,120.85166 165.125934,127.402905 L161.707261,136.389627 L159.864315,135.86971 C157.806432,135.277178 155.651245,135.165353 153.472822,135.53278 C149.724481,136.173237 147.090041,137.647303 145.656639,139.905602 C144.751867,141.323029 144.478838,142.860996 144.407676,144.221784 C147.531535,142.467427 150.687344,142.972822 152.952905,144.438174 C154.554772,145.479461 155.972199,146.857676 155.972199,149.683817 C155.972199,150.588589 155.821162,151.661826 155.484232,152.919502 L135.053527,221.316183 L134.028216,221.660373 C123.584855,225.158921 120.78195,230.925934 120.077593,234.619087 C123.249378,232.792116 128.390456,230.453942 135.590871,229.740871 C138.569502,229.446058 142.165353,230.366805 145.649378,231.246888 C148.468257,231.951245 151.375726,232.696266 153.490249,232.641079 C156.165353,232.577178 158.191286,231.807469 159.520124,230.35083 C160.905602,228.844813 161.281743,226.890041 161.322407,225.232988 C160.137344,224.576556 158.030083,223.398755 156.115975,222.318257 C155.659959,222.990664 155.083402,223.551245 154.402282,223.943361 C153.265145,224.583817 151.278423,225.112448 148.323029,223.952075 L146.545436,223.262241 L154.609959,195.16639 L184.338174,195.16639 L185.956017,195.127178 L191.298963,216.022614 C194.870124,230.575934 205.45,234.058506 213.411411,232.625104 C220.99668,231.259959 226.434025,223.892531 228.724274,213.216805 L228.724274,213.216805 Z M158.478838,183.744191 L169.844398,144.420747 L172.086722,136.68444 L182.86556,183.744191 L158.478838,183.744191 L158.478838,183.744191 Z" id="Shape" fill="#00483A"></path>
                    <path d="M169.844398,144.420747 L158.478838,183.744191 L182.86556,183.744191 L172.086722,136.68444 L169.844398,144.420747 Z M164.020747,179.570332 C165.046058,176.03112 169.090664,162.039834 171.620539,153.301452 C173.639212,162.126971 176.857469,176.167635 177.643154,179.570332 C174.408921,179.570332 167.408921,179.570332 164.020747,179.570332 L164.020747,179.570332 Z" id="Shape" fill="#FDC157"></path>
                    <path d="M229.430083,206.897925 C227.341701,209.612241 223.641286,212.240871 220.876141,211.735477 C219.147925,211.423237 217.792946,209.748755 216.888174,206.761411 C216.912863,206.864523 197.690456,127.217012 197.690456,127.217012 C196.416805,118.679046 191.996058,111.366805 185.285062,106.810996 C179.134647,102.637137 171.405602,101.084647 164.606017,102.669087 C145.624689,107.098548 147.29917,122.218257 147.323859,122.379461 L147.98029,127.58444 L151.070747,123.340871 C154.226556,119.015975 158.086722,119.848133 159.695851,120.889419 C160.896888,121.63444 161.76971,122.170332 161.76971,123.555809 C161.76971,124.157054 161.609959,124.91805 161.225104,125.934647 C161.225104,125.934647 159.807676,129.682988 159.078631,131.58112 C157.004772,131.228216 154.913485,131.05249 152.768465,131.421369 C147.787137,132.270954 144.198548,134.385477 142.1,137.717012 C138.920954,142.786929 140.570747,148.704979 140.634647,148.95332 L141.748548,152.790249 L144.262448,149.691079 C147.010166,146.31888 149.467427,147.145228 150.693154,147.936722 C151.679253,148.577178 152.23112,148.937344 151.470124,151.773651 C151.4861,151.725726 134.026763,210.206224 131.655187,218.144398 C117.358921,223.406017 115.693154,233.072407 115.693154,237.076349 C115.693154,238.174274 115.813693,238.84668 115.813693,238.869917 L116.478838,242.313278 L119.194606,240.079668 C119.258506,240.031743 125.561411,234.929876 135.988797,233.888589 C138.255809,233.672199 141.48278,234.488382 144.6139,235.281328 C147.705809,236.067012 150.90083,236.884647 153.600622,236.80332 C157.380913,236.707469 160.496058,235.449793 162.594606,233.166805 C164.725104,230.851867 165.725726,227.649585 165.509336,223.901245 L165.438174,222.755394 L153.577386,216.124274 L153.06473,219.015768 C153.008091,219.384647 152.825104,220.032365 152.35166,220.305394 C152.183195,220.401245 151.943568,220.434647 151.679253,220.450622 C152.647925,217.110373 157.052697,201.749585 157.749793,199.338797 L182.729046,199.338797 C183.394191,201.925311 187.254357,217.023237 187.254357,217.023237 C191.235062,233.26556 203.631743,238.614315 214.14917,236.724896 C225.1139,234.755602 232.729668,223.485892 234.012033,207.316183 L234.187759,205.073859 L231.936722,205.073859 C230.838797,205.072407 230.342116,205.720124 229.430083,206.897925 L229.430083,206.897925 Z M191.300415,216.01971 L185.957469,195.124274 L184.339627,195.163485 L154.611411,195.163485 L146.546888,223.259336 L148.324481,223.94917 C151.279876,225.109544 153.266598,224.582365 154.403734,223.940456 C155.084855,223.546888 155.661411,222.987759 156.117427,222.315353 C158.031535,223.395851 160.138797,224.573651 161.323859,225.230083 C161.283195,226.888589 160.907054,228.841909 159.521577,230.347925 C158.192739,231.804564 156.165353,232.574274 153.491701,232.638174 C151.377178,232.693361 148.46971,231.94834 145.65083,231.243983 C142.166805,230.3639 138.570954,229.443154 135.592324,229.737967 C128.391909,230.451037 123.249378,232.790664 120.079046,234.616183 C120.783402,230.923029 123.587759,225.156017 134.029668,221.657469 L135.054979,221.313278 L155.485685,152.916598 C155.822614,151.658921 155.973651,150.585685 155.973651,149.680913 C155.973651,146.85332 154.556224,145.476556 152.954357,144.43527 C150.687344,142.969917 147.532988,142.465975 144.409129,144.21888 C144.481743,142.856639 144.75332,141.320124 145.658091,139.902697 C147.091494,137.644398 149.727386,136.170332 153.474274,135.529876 C155.652697,135.162448 157.807884,135.274274 159.865768,135.866805 L161.708714,136.386722 L165.127386,127.4 C167.570124,120.848755 163.86971,118.558506 162.283817,117.588382 C159.809129,115.986515 155.892324,115.154357 152.168672,117.011826 C153.394398,113.4 156.678008,108.794813 165.551452,106.728216 C171.229876,105.406639 177.740456,106.719502 182.946888,110.251452 C187.007469,113.006432 192.141286,118.33195 193.606639,128.014315 C193.631328,128.191494 212.868257,207.856432 212.868257,207.856432 C214.647303,213.694606 217.794398,215.417012 220.141286,215.832365 C223.040041,216.376971 226.107261,215.10332 228.725726,213.2139 C226.435477,223.889627 220.998133,231.257054 213.412863,232.617842 C205.451452,234.055602 194.871577,230.573029 191.300415,216.01971 L191.300415,216.01971 Z" id="Shape" fill="#FDC157"></path>
                    <path d="M237.054564,153.56722 C237.054564,153.56722 234.603112,152.830913 234.5639,152.822199 C232.697718,152.213693 229.213693,151.083817 229.213693,147.776971 C229.213693,144.844813 232.112448,143.09917 234.916805,143.09917 C236.8861,143.09917 238.823444,143.844191 240.627178,144.924689 C241.34751,143.514523 242.14917,141.95332 242.901452,140.511203 C240.033195,139.173651 236.58112,138.236929 233.547303,138.236929 C226.866805,138.236929 222.398133,142.585062 222.398133,149.040456 C222.398133,154.862656 224.945436,156.176971 231.544606,158.050415 C233.88278,158.699585 238.225104,159.932573 238.225104,163.705602 C238.225104,166.829461 235.653112,169.015145 231.977386,169.015145 C229.318257,169.015145 226.691079,167.821369 224.03195,165.884025 C223.223029,167.406017 222.254357,169.240249 221.493361,170.673651 C224.842324,172.71556 228.589212,173.973237 232.312863,173.973237 C236.053942,173.973237 239.417427,172.876763 241.773029,170.874066 C243.934025,169.032573 245.040664,166.093154 245.040664,162.128423 C245.040664,157.778838 242.660373,155.21556 237.054564,153.56722" id="Shape" fill="#00483A"></path>
                    <path d="M237.966598,150.515975 L235.515145,149.778216 C234.362033,149.402075 232.392739,148.76888 232.392739,147.776971 C232.392739,146.84751 233.858091,146.279668 234.915353,146.279668 C236.749585,146.279668 238.646266,147.015975 240.26556,148.362241 L241.787552,149.628631 L247.224896,139.06473 L245.896058,138.310996 C242.419295,136.332988 237.56722,135.059336 233.545851,135.059336 C225.096473,135.059336 219.210373,140.817635 219.210373,149.041909 C219.210373,157.844191 225.137137,159.534647 230.366805,161.015975 C232.201037,161.535892 235.035892,162.346266 235.035892,163.707054 C235.035892,165.780913 232.288174,165.837552 231.977386,165.837552 C229.575311,165.837552 227.132573,164.71639 224.489419,162.410166 L222.984855,161.079876 L217.273029,171.844191 L218.41888,172.653112 C222.559336,175.560581 227.492739,177.155187 232.312863,177.155187 C236.814938,177.155187 240.907469,175.792946 243.838174,173.295021 C246.754357,170.827593 248.21971,167.071992 248.21971,162.129876 C248.218257,154.431328 242.372822,151.812863 237.966598,150.515975 L237.966598,150.515975 Z M241.773029,170.874066 C239.417427,172.876763 236.053942,173.973237 232.312863,173.973237 C228.589212,173.973237 224.840871,172.71556 221.493361,170.673651 C222.254357,169.240249 223.223029,167.406017 224.03195,165.884025 C226.691079,167.821369 229.318257,169.015145 231.977386,169.015145 C235.653112,169.015145 238.225104,166.829461 238.225104,163.705602 C238.225104,159.932573 233.884232,158.699585 231.544606,158.050415 C224.945436,156.175519 222.398133,154.862656 222.398133,149.040456 C222.398133,142.585062 226.866805,138.236929 233.547303,138.236929 C236.582573,138.236929 240.034647,139.173651 242.901452,140.511203 C242.147718,141.95332 241.34751,143.514523 240.627178,144.924689 C238.824896,143.844191 236.887552,143.09917 234.916805,143.09917 C232.112448,143.09917 229.213693,144.844813 229.213693,147.776971 C229.213693,151.083817 232.696266,152.213693 234.5639,152.822199 C234.603112,152.830913 237.054564,153.56722 237.054564,153.56722 C242.660373,155.217012 245.040664,157.778838 245.040664,162.128423 C245.040664,166.093154 243.934025,169.032573 241.773029,170.874066 L241.773029,170.874066 Z" id="Shape" fill="#FDC157"></path>
                    <path d="M209.663071,139.943361 C210.624481,139.886722 212.066598,139.799585 212.900207,140.961411 C213.235685,141.426141 213.356224,141.954772 213.356224,142.483402 C213.356224,143.25166 213.09917,144.021369 212.85083,144.629876 C212.29751,145.992116 211.793568,146.728423 211.264938,147.377593 C211.905394,147.001452 212.554564,146.600622 212.874066,146.320332 C214.404772,145.007469 215.788797,142.756432 215.788797,140.056639 C215.788797,139.015353 215.588382,137.910166 215.107676,136.749793 C214.451245,135.220539 212.994606,134.780498 212.192946,134.651245 C210.774066,134.442116 209.260788,134.85166 208.604357,135.628631 C207.587759,136.829668 207.554357,138.263071 207.979876,139.09668 C208.270332,139.702282 208.782988,139.991286 209.663071,139.943361" id="Shape" fill="#00483A"></path>
                    <path d="M209.655809,143.13112 C209.710996,143.123859 209.870747,143.115145 210,143.115145 C209.952075,143.258921 209.895436,143.427386 209.895436,143.427386 C208.999378,145.66971 208.621784,145.838174 207.6139,146.302905 L205.884232,147.088589 L206.574066,148.834232 L208.647925,151.837552 L209.697925,151.596473 C211.267842,151.243568 214.030083,149.5139 214.952282,148.736929 C218.115353,145.997925 220.285062,140.856846 218.035477,135.515353 C217.130705,133.352905 215.16722,131.894813 212.678008,131.511411 C210.130705,131.117842 207.583402,131.919502 206.18195,133.569295 C204.484232,135.571992 204.051452,138.358921 205.124689,140.512656 C205.996058,142.258299 207.693776,143.242946 209.655809,143.13112 L209.655809,143.13112 Z M208.607261,135.627178 C209.263693,134.850207 210.776971,134.442116 212.195851,134.649793 C212.99751,134.777593 214.454149,135.219087 215.110581,136.74834 C215.591286,137.910166 215.791701,139.015353 215.791701,140.055187 C215.791701,142.754979 214.407676,145.004564 212.876971,146.31888 C212.556017,146.59917 211.908299,147 211.267842,147.376141 C211.796473,146.726971 212.300415,145.990664 212.853734,144.628423 C213.102075,144.019917 213.359129,143.25166 213.359129,142.48195 C213.359129,141.95332 213.238589,141.424689 212.903112,140.959959 C212.070954,139.798133 210.628838,139.886722 209.665975,139.941909 C208.785892,139.989834 208.273237,139.70083 207.985685,139.093776 C207.557261,138.261618 207.589212,136.828216 208.607261,135.627178 L208.607261,135.627178 Z" id="Shape" fill="#FDC157"></path>
                    <path d="M87.4085062,244.378423 L63.9512448,272.891079 L59.1209544,266.171369 L63.1423237,261.470332 L58.553112,255.094813 L52.8427386,257.46639 L48.3421162,251.209959 L82.6363071,237.740041 L87.4085062,244.378423 Z M73.5682573,250.114938 L77.4284232,246.237344 L77.3717842,246.157469 L72.5022822,248.640871 L63.8045643,252.837967 L67.0010373,257.283402 L73.5682573,250.114938 L73.5682573,250.114938 Z" id="Shape" fill="#FFFFFF"></path>
                    <path d="M110.658091,267.157469 L106.356432,272.195436 L101.680083,268.206017 L82.8033195,290.318465 L76.8997925,285.28195 L95.7780083,263.16805 L91.1394191,259.219295 L95.4410788,254.175519" id="Shape" fill="#FFFFFF"></path>
                    <path d="M125.449585,275.557469 L119.660788,288.260581 L126.811826,291.528216 L132.602075,278.817842 L139.665975,282.044813 L124.858506,314.513485 L117.793154,311.293776 L124.056846,297.559544 L116.904357,294.291909 L110.642116,308.042116 L103.585477,304.815145 L118.387137,272.337759" id="Shape" fill="#FFFFFF"></path>
                    <path d="M160.68195,322.450207 C160.793776,321.905602 161.746473,315.994813 161.746473,315.994813 L161.721784,315.994813 L161.714523,315.994813 C161.482158,315.930913 153.7139,314.665975 153.7139,314.665975 C153.729876,314.665975 158.382988,286.002282 158.382988,286.002282 L158.382988,285.977593 L150.710581,284.728631 L150.70332,284.75332 L150.671369,284.994398 C150.215353,287.6361 144.96971,319.985685 144.96971,319.985685 C144.985685,320.016183 160.667427,322.556224 160.667427,322.556224 L160.674689,322.540249 L160.68195,322.450207 Z M161.721784,316.012241 L161.714523,316.058714 L161.721784,316.012241 L161.721784,316.012241 Z M153.729876,314.696473 L153.7139,314.689212 L153.729876,314.696473 L153.729876,314.696473 Z" id="Shape" fill="#FFFFFF"></path>
                    <path d="M189.081328,286.715353 L189.425519,293.330498 L181.568672,293.738589 L181.969502,301.499585 L188.888174,301.130705 L189.225104,307.753112 L182.313693,308.106017 L182.729046,316.154564 L190.691909,315.739212 L191.034647,322.363071 L175.329668,323.170539 L173.472199,287.51556" id="Shape" fill="#FFFFFF"></path>
                    <path d="M217.129253,279.538174 L219.050622,285.881743 L213.171784,287.66805 L221.644398,315.482158 L214.221784,317.740456 L205.756432,289.935062 L199.925519,291.703942 L197.995436,285.369087" id="Shape" fill="#FFFFFF"></path>
                    <path d="M232.866183,271.242739 L250.252905,302.411618 L243.476556,306.191909 L226.082573,275.021577" id="Shape" fill="#FFFFFF"></path>
                    <path d="M232.850207,271.21805 L226.073859,274.99834 C226.073859,275.046266 243.462033,306.200622 243.462033,306.200622 C243.486722,306.209336 250.261618,302.436307 250.261618,302.436307 C250.261618,302.379668 232.882158,271.225311 232.882158,271.225311 L232.866183,271.209336" id="Shape" fill="#FFFFFF"></path>
                    <path d="M261.384647,257.322614 C260.479876,257.794606 259.686929,258.308714 258.94917,258.965145 C253.840041,263.489004 255.346058,269.672822 258.98112,273.781328 C262.497095,277.75332 269.04834,280.684025 274.118257,276.208091 C274.856017,275.542946 275.455809,274.710788 276.000415,273.836515 L280.421162,278.842531 C279.851867,279.914315 279.076349,280.85249 278.139627,281.684647 C269.754149,289.1 259.030498,286.330498 252.81473,279.305809 C246.951867,272.674689 245.765353,261.582158 253.68029,254.589419 C254.688174,253.684647 255.826763,252.996266 257.08444,252.45166" id="Shape" fill="#FFFFFF"></path>
                    <path d="M277.843361,237.298548 C275.945228,237.899793 273.991909,238.893154 272.790871,240.662033 C271.444606,242.640041 271.676971,244.634025 273.486515,245.859751 C278.331328,249.166598 285.267427,239.604772 293.243361,245.042116 C298.48029,248.61473 300.172199,254.621369 296.054979,260.651245 C294.821992,262.453527 292.787344,264.342946 290.809336,265.135892 L285.260166,261.34834 C287.229461,260.484232 288.857469,259.450207 290.145643,257.553527 C291.555809,255.494191 291.426556,252.996266 289.464523,251.665975 C287.19751,250.113485 284.987137,251.506224 282.585062,252.51556 C277.786722,254.669295 274.047095,255.453527 269.738174,252.51556 C265.093776,249.336515 263.082365,243.617427 266.84668,238.11473 C268.256846,236.056846 270.025726,234.543568 272.173651,233.429668" id="Shape" fill="#FFFFFF"></path>
                    <path d="M83.763278,83.0560166 C94.1354772,91.5373444 93.6707469,100.034647 89.2819502,105.40083 C84.9004149,110.758299 76.660166,112.904772 66.2879668,104.423444 C55.9157676,95.9508299 56.3804979,87.4448133 60.7692946,82.0873444 C65.1508299,76.7211618 73.3925311,74.5819502 83.763278,83.0560166 L83.763278,83.0560166 Z M84.2280083,101.260373 C87.4956432,97.2709544 80.7207469,91.2657676 78.5263485,89.4707469 C76.0676349,87.4607884 69.0923237,82.2311203 65.8246888,86.2190871 C62.5643154,90.2085062 69.08361,96.0060166 71.5350622,98.0174274 C73.736722,99.8109959 80.9690871,105.257054 84.2280083,101.260373 L84.2280083,101.260373 Z" id="Shape" fill="#FFFFFF"></path>
                    <path d="M96.0495851,51.4369295 L123.831743,75.7684647 L116.960996,80.3983402 L112.387759,76.233195 L105.868465,80.6219917 L108.062863,86.3962656 L101.678631,90.7124481 L89.2732365,56.0029046 L96.0495851,51.4369295 Z M101.351867,65.4441909 L97.603527,61.4721992 L97.5076763,61.5288382 L99.8458506,66.4622407 L103.785892,75.296473 L108.318465,72.2379668 L101.351867,65.4441909 L101.351867,65.4441909 Z" id="Shape" fill="#FFFFFF"></path>
                    <path d="M129.838382,35.5707469 L134.484232,50.8356846 L134.580083,50.796473 L136.11805,33.656639 L143.694606,31.3591286 L141.556846,49.226556 L154.962863,65.2437759 L147.153942,67.6153527 L135.028838,52.3024896 L134.941701,52.3257261 L140.219295,69.7298755 L132.80249,71.9881743 L122.415768,37.8217842" id="Shape" fill="#FFFFFF"></path>
                    <path d="M172.230498,28.4109959 L172.998755,57.4755187 L181.128631,57.2591286 L181.297095,63.8829876 L165.414938,64.3070539 L164.478216,28.6114108" id="Shape" fill="#FFFFFF"></path>
                    <path d="M215.01473,33.7931535 L215.454772,70.7058091 L207.430913,68.6871369 L207.478838,62.5033195 L199.854357,60.5892116 L197.019502,66.0759336 L189.538797,64.1937759 L207.086722,31.7977178 L215.01473,33.7931535 Z M208.133817,47.0960581 L208.573859,41.6412863 L208.48527,41.6165975 L206.354772,46.6458506 L202.41473,55.480083 L207.724274,56.8089212 L208.133817,47.0960581 L208.133817,47.0960581 Z" id="Shape" fill="#FFFFFF"></path>
                    <path d="M249.532573,48.3537344 L246.344813,71.7558091 L246.490041,71.7311203 C246.986722,70.0334025 247.834855,68.3923237 248.819502,66.8224066 L257.324066,53.2072614 L263.898548,57.3157676 L244.989834,87.5900415 L238.75083,83.7051867 L242.03444,60.359751 L241.897925,60.3844398 L240.312033,63.6273859 L239.567012,64.8995851 L230.892531,78.7950207 L224.300622,74.6865145 L243.21805,44.4122407" id="Shape" fill="#FFFFFF"></path>
                    <path d="M253.89668,95.5659751 L281.238797,72.6286307 L285.020539,77.1307054 C285.8861,78.1719917 297.713485,89.4634855 282.441286,102.271162 C274.649793,108.813693 266.214938,110.248548 258.35083,100.878423 L253.89668,95.5659751 Z M277.49917,96.2950207 C280.975934,93.3802905 285.476556,87.5493776 281.36805,82.6479253 L263.738797,97.4321577 C267.536515,102.406224 274.080498,99.1618257 277.49917,96.2950207 L277.49917,96.2950207 Z" id="Shape" fill="#FFFFFF"></path>
                    <path d="M308.829253,313.615975 L305.417842,313.615975 L305.417842,322.890249 L303.110166,322.890249 L303.110166,313.615975 L299.698755,313.615975 L299.698755,311.597303 L308.827801,311.597303 L308.829253,313.615975 Z M324.271369,322.890249 L321.956432,322.890249 L321.956432,313.903527 L321.908506,313.903527 L318.640871,322.890249 L316.414523,322.890249 L313.242739,313.903527 L313.1861,313.903527 L313.1861,322.890249 L310.888589,322.890249 L310.888589,311.598755 L314.876556,311.598755 L317.510996,318.974896 L317.558921,318.974896 L320.297925,311.598755 L324.269917,311.598755 L324.269917,322.890249 L324.271369,322.890249 Z" id="Shape" fill="#00483A"></path>
                </g>
            </g>
        </g>
    </g>
</svg>