<?xml version="1.0" encoding="iso-8859-1"?>
<!-- Generator: Adobe Illustrator 14.0.0, SVG Export Plug-In . SVG Version: 6.00 Build 43363)  -->
<!DOCTYPE svg PUBLIC "-//W3C//DTD SVG 1.1//EN" "http://www.w3.org/Graphics/SVG/1.1/DTD/svg11.dtd">
<svg version="1.1" id="Layer_1" xmlns="http://www.w3.org/2000/svg" xmlns:xlink="http://www.w3.org/1999/xlink" x="0px" y="0px"
	 width="250px" height="233px" viewBox="0 0 250 233" style="enable-background:new 0 0 250 233;" xml:space="preserve">
<g>
	<path style="fill:#FFFFFF;" d="M125.079,4.694C78.701,5.036,19.436,32.345,5.028,108.18L5,108.328L125.079,228.31L245,108.443
		C230.569,25.702,160.245,4.421,125.079,4.694"/>
	<path style="fill:#CD1141;" d="M125.125,10.454c32.802-0.254,98.415,19.604,111.958,96.557
		c-0.028,0-111.991,111.907-111.991,111.907c0-0.06-111.602-111.565-111.967-111.925C26.582,36.253,81.865,10.773,125.125,10.454"/>
	<path style="fill:#FFFFFF;" d="M125.116,20.838c-56.744,0.517-94.035,43.638-100.317,83.951l-0.102,0.656L125.125,205.48
		l99.939-100.035l-0.102-0.647c-6.126-40.322-43.19-83.443-99.823-83.96h-0.014"/>
	<path style="fill:#00529B;" d="M125.125,23.434c54.901,0.508,90.894,42.054,97.149,81.129
		c-0.961,0.961-95.361,95.458-97.149,97.246c-1.797-1.788-96.667-96.275-97.638-97.246C33.889,65.488,70.109,23.942,125.125,23.434"
		/>
	<path style="fill:#FFFFFF;" d="M205.053,88.963h-2.116v5.756h-1.423v-5.756h-2.115v-1.251h5.654 M214.633,94.719h-1.423v-5.576
		h-0.037l-2.032,5.576h-1.377l-1.968-5.576h-0.027v5.576h-1.432v-7.007h2.476l1.635,4.573h0.028l1.69-4.573h2.467V94.719z"/>
	<path style="fill:#FFFFFF;" d="M67.504,70.962l-0.989,0.064v13.862l1.266-0.24c4.712-0.896,7.368-3.954,6.938-7.978
		C74.271,72.598,71.841,70.681,67.504,70.962"/>
	<path style="fill:#FFFFFF;" d="M173.263,97.034c0-0.157-0.01-0.3-0.019-0.435c0,0-0.25-0.679-0.25-0.702
		c-0.462-0.291-1.191-0.337-2.022-0.129c-1.451,0.36-2.809,1.368-3.475,2.56l-0.027,0.032c-1.46,1.737-2.144,3.931-1.958,4.966
		c0.046,0.254,0.138,0.425,0.342,0.54l0.868,0.296c1.386-0.019,3.603-1.289,4.942-2.836
		C172.745,100.055,173.263,98.271,173.263,97.034"/>
	<path style="fill:#FFFFFF;" d="M191.979,91.148c0,0-0.582-0.434-0.979-0.716c-0.212-0.365-1.801-2.998-1.801-2.998l-7.724,5.516
		l0.083,1.298c0.027,0.43,0.037,0.845,0.037,1.261c0,3.035-0.758,5.603-2.162,7.626c1.174-2.111,1.599-4.038,1.599-5.557
		c0-1.418-0.305-2.504-0.536-3.123c-1.607-4.314-6.347-6.938-11.253-6.231c-1.709,0.25-6.005,1.464-8.952,6.643
		c-0.674-2.804-1.912-7.908-1.968-8.167c0.167-0.171,2.587-2.61,4.231-4.273l10.967-0.028V66.805c0,0-3.104,0-3.631,0
		c0-0.624,0-24.112,0-24.112c-0.056-0.171-3.631-5.955-3.631-5.955l-0.093-0.152L155.1,36.535c-0.12,0.023-8.556,3.206-8.556,3.206
		l-21.664-0.018c0,0-20.796,0-20.801,0c0-0.019-8.324-3.165-8.324-3.165c-0.116-0.023-11.008,0.028-11.008,0.028h-0.176
		l-3.672,5.936c0,0-0.046,23.66-0.046,24.284c-0.088,0-0.259,0-0.458,0c-1.372-1.446-3.09-2.674-5.15-3.622
		c-9.054-4.162-21.845-2.263-28.52,4.241c-4.319,4.222-6.425,9.382-5.636,13.789c0.48,2.716,2.065,4.855,4.352,5.88
		c3.118,1.4,5.479,0.813,6.911,0.083c0.979-0.508,1.788-1.219,2.458-2.004c0,8.943,0,17.83,0,18.625
		c-2.388,2.794-3.807,5.663-3.807,8.231c0,0.785,0.116,1.538,0.351,2.254c0.739,2.245,2.61,3.784,5.127,4.227
		c2.809,0.499,5.88-0.384,8.227-2.352c2.273-1.908,3.575-4.633,3.575-7.488c0,0,0-11.945,0-14.542
		c4.763-1.806,9.308-4.005,12.315-7.626c0,10.5,0,25.933,0,25.942c-0.023,0.189-0.042,0.388-0.042,0.578
		c0,1.806,0.804,3.376,2.277,4.384c1.926,1.316,4.744,1.404,6.855,0.226c1.83-1.03,2.85-2.794,2.85-4.873
		c0-0.111-0.004-0.222-0.009-0.328c0,0,0.004-11.627,0.004-12.223c0.06-0.028,0.092-0.051,0.143-0.065
		c0.014,0.046,0.019,0.056,0.037,0.097c0,0.67,0,11.47,0,11.47c0.042,3.072,1.792,5.386,4.684,6.379
		c-0.051,0.236-0.106,0.485-0.157,0.721H59.193l-0.147,0.023c-2.786,0.355-4.675,2.435-4.675,5.091c0,0.097,0,0.188,0.014,0.281
		c0.125,2.734,2.25,4.854,4.934,4.934c0,0,14.93,0,34.28,0c-3.335,6.181-6.537,9.405-9.008,11.853
		c-2.965,2.934-5.007,4.952-5.007,9.932c0,0.426,0.019,0.864,0.042,1.335l0.019,0.291c0,0,32.363,0,39.777,0
		c0.06-1.681-0.167-2.97-0.374-4.106c0,0-0.282-2.929-0.282-2.942c0.092-1.017-0.37-1.653-0.952-2.462
		c-0.508-0.707-1.085-1.511-1.293-2.675l-0.596-0.859c0,0-0.832-1.64-0.832-1.662c0.055-0.564-0.199-0.942-0.642-1.562
		c0,0-0.966-1.898-0.97-1.931c-0.231-1.34,0.083-2.199,0.351-2.962c0.24-0.669,0.448-1.247,0.287-2.18c0,0-0.005-0.056-0.005-0.069
		c0.471,0,0.938,0,1.404,0c0.037,0.249,0.064,0.489,0.064,0.707c0,0.826-0.222,1.45-0.429,2.019
		c-0.185,0.517-0.356,0.979-0.356,1.589c0,0.189,0.019,0.397,0.06,0.619l0.734,1.381c0.435,0.605,0.91,1.275,0.91,2.222
		c0,0.088,0,0.181-0.014,0.277l0.448,0.577c0,0,0.97,1.636,0.97,1.612c0.148,0.827,0.582,1.432,1.048,2.074
		c0.633,0.878,1.344,1.871,1.215,3.396l0.263,2.582c0.222,1.191,0.453,2.555,0.388,4.355c0.046,0,0.097,0,0.111,0
		c0,0.443,0,1.668,0,1.89c-0.407,0.31-2.596,2.115-2.795,4.984c-0.009,0.134-0.019,0.268-0.019,0.401
		c0,1.936,0.975,3.862,2.91,5.737l-0.097,4.333v0.318h8.873v-4.882c1.848-1.654,2.818-3.571,2.818-5.507c0-0.134,0-0.268-0.01-0.401
		c-0.203-2.869-2.401-4.675-2.809-4.984c0-0.222,0-1.446,0-1.89c0.638,0,41.288,0,41.288,0l0.018-0.291
		c0.037-0.471,0.047-0.914,0.047-1.339c0-4.976-2.042-6.994-5.008-9.928c-2.467-2.443-5.663-5.663-8.998-11.853
		c13.091,0,22.312,0,22.911,0c2.015,2.587,4.656,4,7.483,3.807c2.837-0.199,5.313-1.945,6.468-4.551l0.083-0.189l0.046-0.198
		c0.804-3.313-0.129-5.386-1.053-6.531c-2.015-2.499-5.387-2.693-6.754-2.661h-11.363c1.081-0.166,2.144-0.443,3.178-0.868
		c1.922-0.79,3.529-2.005,4.971-3.345c5.46,4.786,9.82,4.624,12.527,3.612c4.056-1.51,6.707-5.89,7.15-9.238
		c0.111-0.79,0.167-1.548,0.167-2.268C202.965,99.131,197.153,94.909,191.979,91.148 M159.479,96.479
		c-0.721,1.603-1.312,3.511-1.7,5.797c0-2.268,0-4.596,0-4.596c-0.102-1.247-0.397-2.268-0.813-3.113
		C157.945,95.315,158.859,96.008,159.479,96.479z M159.783,82.811c0,0-3.963,3.488-4.028,3.414c0,0.014,1.765,5.742,1.765,5.742
		c0.01,0.018,0.01,0.037,0.01,0.055c0,0.06-0.028,0.12-0.083,0.157c-0.065,0.046-0.157,0.046-0.222-0.005
		c0,0-4.278-3.307-4.278-3.478c-0.018,0.014-4.489,3.478-4.489,3.478c-0.064,0.051-0.157,0.051-0.222,0.005
		c-0.056-0.037-0.083-0.097-0.083-0.157c0-0.019,0.009-0.037,0.009-0.055c0,0,1.719-5.548,1.829-5.553
		c-0.009-0.004-4.093-3.603-4.093-3.603c-0.037-0.032-0.064-0.087-0.064-0.143c0-0.023,0-0.042,0.019-0.064
		c0.027-0.074,0.093-0.12,0.176-0.12l4.545,0.125l2.088-5.954c0.028-0.079,0.102-0.129,0.176-0.129c0.083,0,0.157,0.051,0.185,0.129
		c0,0,1.922,5.474,1.922,5.811c0,0.014,0,0.014-0.01,0.019c0.019,0,4.722,0,4.722,0c0.083,0,0.147,0.046,0.175,0.12
		C159.857,82.677,159.839,82.76,159.783,82.811z M138.101,66.361c0.601,0,12.722,0,13.202,0c0.046,0.189,0.545,2.67,1.146,5.622
		c-0.555,1.404-2.375,5.913-3.077,7.677c-1.894-5.871-6.282-10.047-11.271-10.231C138.101,69.055,138.101,66.851,138.101,66.361z
		 M116.912,82.483c0.42,0,0.707,0,0.707,0c0.074,0,0.144,0.046,0.18,0.12c0.023,0.074,0,0.157-0.055,0.208
		c0,0-0.36,0.314-0.845,0.739c-1.164,1.016-3.137,2.726-3.188,2.675c0.004,0.014,1.769,5.742,1.769,5.742
		c0.009,0.018,0.009,0.037,0.009,0.055c0,0.06-0.028,0.12-0.083,0.157c-0.069,0.046-0.157,0.046-0.217-0.005
		c0,0-4.277-3.307-4.282-3.478c-0.014,0.014-4.485,3.478-4.485,3.478c-0.069,0.051-0.162,0.051-0.231,0.005
		c-0.051-0.037-0.074-0.097-0.074-0.157c0-0.019,0-0.037,0.005-0.055c0,0,1.709-5.548,1.82-5.553
		c-0.004-0.004-4.083-3.603-4.083-3.603c-0.037-0.032-0.06-0.087-0.06-0.143c0-0.023,0-0.042,0.014-0.064
		c0.023-0.074,0.092-0.12,0.171-0.12l4.55,0.125l2.088-5.954c0.028-0.079,0.097-0.129,0.18-0.129c0.074,0,0.152,0.051,0.176,0.129
		c0,0,1.926,5.474,1.926,5.811c0,0.014-0.004,0.014-0.004,0.014C112.907,82.483,115.6,82.483,116.912,82.483z M96.148,82.455
		c0,0,3.188-15.6,3.284-16.094c0.49,0,12.611,0,13.207,0c0,0.49,0,2.693,0,3.067c-6.208,0.226-11.548,6.596-12.213,14.786
		L100.277,89c-0.416-0.319-0.85-0.61-1.326-0.832c-2.18-1.035-4.462-0.776-6.319-0.24c0-1.589,0-3.612,0-5.483L96.148,82.455z
		 M80.6,82.667c-2.564,5.266-8.218,7.779-14.283,9.862v16.14c0,2.222-0.998,4.287-2.822,5.82c-1.889,1.589-4.439,2.333-6.643,1.945
		c-1.654-0.287-2.809-1.215-3.271-2.596c-0.152-0.462-0.226-0.96-0.226-1.487c0-2.314,1.446-5.165,4.056-7.848
		c0,0,0-31.152,0-31.864c-2.48,1.159-4.31,3.501-4.31,4.961c0,0.106,0.009,0.212,0.028,0.305c0.18,0.836,1.1,0.989,1.843,0.97
		l0.25-0.004l-0.037,0.254c-0.032,0.185-0.776,4.601-3.728,6.19c-1.459,0.785-3.187,0.734-5.155-0.143
		c-1.663-0.744-2.771-2.282-3.141-4.324c-0.656-3.723,1.224-8.181,5.04-11.918c5.991-5.843,17.974-7.599,26.168-3.834
		c1.067,0.49,1.995,1.076,2.859,1.714c2.217,1.654,3.709,3.765,4.384,6.241c0.351,1.275,0.499,2.642,0.411,4.093
		C81.888,79.286,81.366,81.088,80.6,82.667z M153.445,118.61c0.555,0.11,1.1,0.176,1.636,0.203h-1.589
		C153.482,118.749,153.464,118.675,153.445,118.61z M186.391,121.133c2.115-0.051,6.873,0.684,5.497,6.328
		c-1.617,3.677-7.206,4.998-10.698-0.638H59.388c-3.285-0.097-3.871-5.201-0.046-5.69H186.391z M156.227,118.813
		c2.032-0.097,3.944-0.688,5.487-1.547c0.545-0.305,0.832-0.647,1.238-0.965c2.596,1.335,5.1,2.171,7.502,2.513H156.227z
		 M200.691,108.697c-0.313,2.342-2.318,6.222-5.792,7.525c-2.171,0.813-5.765,0.892-10.551-3.589
		c0.093-0.162,2.31-3.996,3.964-4.453c1.736,1.755,3.288,2.435,4.388,1.917c0.878-0.416,1.404-1.593,1.404-3.09
		c0-0.235-0.009-0.476-0.037-0.725c-0.24-2.287-1.718-5.206-5.025-6.102c-0.342,1.266-3.548,12.44-11.705,15.803
		c-4.333,1.783-9.331,0.984-14.828-2.227c-0.194,0.513-0.942,1.155-1.829,1.654c-3.243,1.806-8.01,2.272-11.761-1.672
		c-0.601,0.458-8.832,6.513-15.706-0.471c-0.48,0.439-4.074,3.524-8.319,3.354c-2.102-0.087-3.968-1.025-5.589-2.716
		c-0.406,0.416-2.836,2.767-6.24,2.804c-2.111,0.023-4.121-0.928-5.964-2.753c-1.358,1.958-5.479,3.09-8.569,2.277
		c-2.342-0.615-3.649-2.217-3.69-4.522l0.004-11.774c-0.476-2.171-2.102-2.005-2.578-1.903c-1.099,0.231-2.005,1.113-1.857,1.862
		v12.643c0.069,1.409-0.554,2.559-1.76,3.238c-1.414,0.79-3.349,0.734-4.619-0.125c-1.035-0.711-1.497-1.857-1.308-3.201V77.009
		c-0.194-1.645,0.443-3.063,1.751-3.898c1.349-0.864,3.104-0.915,4.375-0.134c1.104,0.679,1.695,1.875,1.695,3.4
		c0,0.208-0.009,0.43-0.037,0.651c0,0,0,13.359,0,14.057c0.956-0.555,4.527-2.412,7.539-0.993c2.097,0.988,3.391,3.367,3.839,7.1
		v10.14c0.12,1.45,1.51,2.171,2.822,2.139c1.187-0.028,2.402-0.698,2.443-2.125l0.005-9.4c-0.129-1.797,0.499-3.266,1.718-4.023
		c1.012-0.642,2.291-0.665,3.326-0.069c1.238,0.716,1.912,2.181,1.852,4.028v8.749c-0.079,1.016,0.305,1.852,1.072,2.347
		c0.785,0.503,1.811,0.54,2.61,0.102c0.845-0.471,1.303-1.395,1.289-2.61V82.972c-0.115-2.961,0.42-5.03,1.631-6.31
		c0.933-0.989,2.268-1.483,4.074-1.515c2.061-0.056,3.723,0.767,4.795,2.374c0.993,1.483,1.474,3.566,1.474,6.116
		c0,4.619-1.594,10.768-4.68,17.664c-0.277,1.459-0.388,2.545-0.388,3.381c0,1.543,0.374,2.259,0.748,3.002
		c0,0,0.157,0.305,0.162,0.337c1.183,1.012,2.499,1.372,3.603,0.984c0.952-0.333,2.199-1.367,2.753-4.356l0.01-22.159
		c-0.213-2.679,0.249-4.647,1.376-5.844c1.303-1.376,3.243-1.529,4.971-1.501c1.599,0.051,3.039,1.039,4.074,2.785
		c0.388,0.666,0.702,1.501,0.961,2.407c0.388,1.344,0.591,2.942,0.582,4.781c-0.037,4.204-1.266,9.608-4.582,16.052
		c-1.257,4.661,0.11,6.781,1.025,7.631c1.09,1.002,2.679,1.289,4.157,0.757c1.607-0.582,2.697-1.986,2.938-3.737v-8.121
		c-0.193-2.217,1.57-3.88,3.354-4.037c1.553-0.129,3.308,0.845,3.594,4.014l-0.009,10.172c0.425,1.048,1.349,1.626,2.227,1.409
		c0.859-0.208,1.783-1.284,1.58-3.645c0.914-12.957,7.963-14.971,10.098-15.281c3.926-0.568,7.687,1.478,8.961,4.869
		c1.626,4.393-1.386,9.581-8,13.766c-0.019,0.088-0.037,0.199,0.119,0.314c0.685,0.55,3.317,0.444,6.052-0.97
		c2.854-1.479,7.558-5.285,7.086-14.385l4.804-3.423l0.12,0.194c0,0,0.684,1.141,0.684,1.173l1.358,0.993
		c5.183,3.77,10.098,7.35,10.098,13.84C200.83,107.339,200.784,108.004,200.691,108.697z"/>
	<path style="fill:#FFFFFF;" d="M124.94,80.413c-0.259-0.157-0.545-0.175-0.832-0.051l-0.125,0.065V94.4l0.245-0.042
		c1.155-0.175,1.866-2.989,2.227-8.846C126.391,83.929,125.979,81.051,124.94,80.413"/>
	<path style="fill:#FFFFFF;" d="M139.116,80.413c-0.259-0.157-0.545-0.175-0.831-0.051l-0.129,0.065V94.4l0.249-0.042
		c1.146-0.175,1.875-3.076,2.227-8.864C140.576,83.929,140.151,81.051,139.116,80.413"/>
	<path style="fill:#CD1141;" d="M59.388,126.823h121.802c3.492,5.636,9.081,4.314,10.698,0.638c1.376-5.645-3.382-6.379-5.497-6.328
		H59.341C55.517,121.622,56.103,126.727,59.388,126.823"/>
	<path style="fill:#CD1141;" d="M77.227,66.81c-0.864-0.638-1.792-1.224-2.859-1.714c-8.195-3.765-20.177-2.009-26.168,3.834
		c-3.815,3.737-5.696,8.195-5.04,11.918c0.37,2.042,1.478,3.58,3.141,4.324c1.968,0.877,3.695,0.928,5.155,0.143
		c2.952-1.589,3.696-6.005,3.728-6.19l0.037-0.254l-0.25,0.004c-0.744,0.019-1.663-0.134-1.843-0.97
		c-0.019-0.092-0.028-0.198-0.028-0.305c0-1.459,1.83-3.802,4.31-4.961c0,0.711,0,31.864,0,31.864
		c-2.61,2.684-4.056,5.534-4.056,7.848c0,0.527,0.074,1.025,0.226,1.487c0.462,1.381,1.617,2.31,3.271,2.596
		c2.204,0.388,4.753-0.355,6.643-1.945c1.825-1.534,2.822-3.598,2.822-5.82V92.53c6.065-2.083,11.719-4.596,14.283-9.862
		c0.767-1.58,1.289-3.381,1.422-5.524c0.088-1.451-0.06-2.818-0.411-4.093C80.937,70.574,79.444,68.463,77.227,66.81 M67.781,84.649
		l-1.266,0.24V71.027l0.989-0.064c4.337-0.282,6.767,1.635,7.215,5.709C75.148,80.695,72.493,83.753,67.781,84.649z"/>
	<path style="fill:#CD1141;" d="M190.732,92.867l-1.358-0.993c0-0.032-0.684-1.173-0.684-1.173l-0.12-0.194l-4.804,3.423
		c0.472,9.1-4.231,12.906-7.086,14.385c-2.734,1.414-5.367,1.52-6.052,0.97c-0.156-0.115-0.138-0.226-0.119-0.314
		c6.614-4.185,9.626-9.373,8-13.766c-1.274-3.391-5.035-5.437-8.961-4.869c-2.135,0.31-9.184,2.324-10.098,15.281
		c0.203,2.36-0.721,3.437-1.58,3.645c-0.878,0.217-1.802-0.36-2.227-1.409l0.009-10.172c-0.286-3.169-2.041-4.144-3.594-4.014
		c-1.783,0.157-3.547,1.82-3.354,4.037v8.121c-0.24,1.75-1.33,3.155-2.938,3.737c-1.479,0.531-3.067,0.245-4.157-0.757
		c-0.915-0.85-2.282-2.97-1.025-7.631c3.316-6.444,4.545-11.849,4.582-16.052c0.009-1.838-0.194-3.437-0.582-4.781
		c-0.259-0.905-0.573-1.741-0.961-2.407c-1.035-1.746-2.476-2.734-4.074-2.785c-1.728-0.028-3.668,0.125-4.971,1.501
		c-1.127,1.196-1.589,3.165-1.376,5.844l-0.01,22.159c-0.554,2.989-1.801,4.023-2.753,4.356c-1.104,0.388-2.42,0.028-3.603-0.984
		c-0.005-0.033-0.162-0.337-0.162-0.337c-0.374-0.744-0.748-1.459-0.748-3.002c0-0.836,0.11-1.922,0.388-3.381
		c3.086-6.896,4.68-13.045,4.68-17.664c0-2.55-0.48-4.633-1.474-6.116c-1.072-1.607-2.734-2.43-4.795-2.374
		c-1.806,0.032-3.141,0.526-4.074,1.515c-1.21,1.279-1.746,3.349-1.631,6.31v23.494c0.014,1.215-0.443,2.139-1.289,2.61
		c-0.799,0.438-1.825,0.402-2.61-0.102c-0.767-0.495-1.15-1.331-1.072-2.347v-8.749c0.06-1.848-0.614-3.312-1.852-4.028
		c-1.035-0.596-2.314-0.573-3.326,0.069c-1.219,0.758-1.848,2.227-1.718,4.023l-0.005,9.4c-0.042,1.427-1.256,2.097-2.443,2.125
		c-1.312,0.032-2.702-0.688-2.822-2.139V97.19c-0.448-3.732-1.742-6.111-3.839-7.1c-3.012-1.418-6.583,0.438-7.539,0.993
		c0-0.698,0-14.057,0-14.057c0.028-0.222,0.037-0.443,0.037-0.651c0-1.524-0.591-2.721-1.695-3.4
		c-1.271-0.78-3.026-0.729-4.375,0.134c-1.308,0.836-1.945,2.254-1.751,3.898v35.439c-0.189,1.344,0.272,2.49,1.308,3.201
		c1.27,0.859,3.206,0.915,4.619,0.125c1.206-0.679,1.829-1.829,1.76-3.238V99.893c-0.148-0.749,0.758-1.631,1.857-1.862
		c0.476-0.102,2.102-0.268,2.578,1.903l-0.004,11.774c0.042,2.305,1.349,3.908,3.69,4.522c3.09,0.813,7.211-0.319,8.569-2.277
		c1.843,1.825,3.853,2.776,5.964,2.753c3.404-0.037,5.834-2.388,6.24-2.804c1.622,1.69,3.488,2.628,5.589,2.716
		c4.245,0.171,7.839-2.915,8.319-3.354c6.874,6.984,15.105,0.929,15.706,0.471c3.751,3.945,8.518,3.479,11.761,1.672
		c0.887-0.499,1.635-1.141,1.829-1.654c5.497,3.21,10.495,4.009,14.828,2.227c8.157-3.363,11.363-14.537,11.705-15.803
		c3.308,0.896,4.785,3.815,5.025,6.102c0.028,0.25,0.037,0.49,0.037,0.725c0,1.497-0.526,2.675-1.404,3.09
		c-1.1,0.518-2.651-0.162-4.388-1.917c-1.654,0.458-3.871,4.292-3.964,4.453c4.786,4.481,8.38,4.402,10.551,3.589
		c3.474-1.303,5.479-5.183,5.792-7.525c0.093-0.693,0.139-1.358,0.139-1.991C200.83,100.216,195.915,96.636,190.732,92.867
		 M124.229,94.359l-0.245,0.042V80.427l0.125-0.065c0.287-0.125,0.573-0.106,0.832,0.051c1.04,0.638,1.451,3.516,1.515,5.1
		C126.095,91.37,125.383,94.184,124.229,94.359z M138.405,94.359l-0.249,0.042V80.427l0.129-0.065
		c0.286-0.125,0.572-0.106,0.831,0.051c1.035,0.638,1.46,3.516,1.516,5.082C140.28,91.283,139.551,94.184,138.405,94.359z
		 M165.854,103.865c-0.204-0.115-0.296-0.286-0.342-0.54c-0.186-1.035,0.498-3.229,1.958-4.966l0.027-0.032
		c0.666-1.192,2.023-2.199,3.475-2.56c0.831-0.208,1.561-0.162,2.022,0.129c0,0.023,0.25,0.702,0.25,0.702
		c0.009,0.134,0.019,0.277,0.019,0.435c0,1.238-0.518,3.021-1.599,4.291c-1.34,1.547-3.557,2.818-4.942,2.836L165.854,103.865z"/>
	<path style="fill:#00529B;" d="M110.976,76.653c-0.023-0.079-0.102-0.129-0.176-0.129c-0.083,0-0.152,0.051-0.18,0.129
		l-2.088,5.954l-4.55-0.125c-0.079,0-0.148,0.046-0.171,0.12c-0.014,0.023-0.014,0.042-0.014,0.064c0,0.056,0.023,0.111,0.06,0.143
		c0,0,4.079,3.599,4.083,3.603c-0.111,0.005-1.82,5.553-1.82,5.553c-0.005,0.018-0.005,0.037-0.005,0.055
		c0,0.06,0.023,0.12,0.074,0.157c0.069,0.046,0.162,0.046,0.231-0.005c0,0,4.471-3.464,4.485-3.478
		c0.004,0.171,4.282,3.478,4.282,3.478c0.06,0.051,0.148,0.051,0.217,0.005c0.055-0.037,0.083-0.097,0.083-0.157
		c0-0.019,0-0.037-0.009-0.055c0,0-1.765-5.728-1.769-5.742c0.051,0.051,2.023-1.659,3.188-2.675
		c0.485-0.425,0.845-0.739,0.845-0.739c0.055-0.051,0.079-0.134,0.055-0.208c-0.037-0.074-0.106-0.12-0.18-0.12c0,0-0.286,0-0.707,0
		c-1.312,0-4.005,0-4.014,0c0,0,0.004-0.005,0.004-0.019C112.902,82.127,110.976,76.653,110.976,76.653"/>
	<path style="fill:#00529B;" d="M154.933,82.483c0.01-0.005,0.01-0.005,0.01-0.019c0-0.337-1.922-5.811-1.922-5.811
		c-0.027-0.079-0.102-0.129-0.185-0.129c-0.074,0-0.147,0.051-0.176,0.129l-2.088,5.954l-4.545-0.125
		c-0.083,0-0.148,0.046-0.176,0.12c-0.019,0.023-0.019,0.042-0.019,0.064c0,0.056,0.027,0.111,0.064,0.143
		c0,0,4.084,3.599,4.093,3.603c-0.11,0.005-1.829,5.553-1.829,5.553c0,0.018-0.009,0.037-0.009,0.055c0,0.06,0.027,0.12,0.083,0.157
		c0.064,0.046,0.157,0.046,0.222-0.005c0,0,4.472-3.464,4.489-3.478c0,0.171,4.278,3.478,4.278,3.478
		c0.064,0.051,0.156,0.051,0.222,0.005c0.055-0.037,0.083-0.097,0.083-0.157c0-0.019,0-0.037-0.01-0.055
		c0,0-1.765-5.728-1.765-5.742c0.065,0.074,4.028-3.414,4.028-3.414c0.056-0.051,0.074-0.134,0.046-0.208
		c-0.027-0.074-0.092-0.12-0.175-0.12C159.654,82.483,154.951,82.483,154.933,82.483"/>
</g>
</svg>
