<?xml version="1.0" encoding="UTF-8" standalone="no"?>
<!-- Created with Inkscape (http://www.inkscape.org/) -->
<svg
   xmlns:svg="http://www.w3.org/2000/svg"
   xmlns="http://www.w3.org/2000/svg"
   version="1.0"
   width="202.46437"
   height="206.47188"
   id="svg3060">
  <defs
     id="defs3062" />
  <g
     transform="translate(-273.76782,-429.12625)"
     id="layer1">
    <g
       transform="matrix(1.25,0,0,1.25,286.0365,441.38881)"
       id="g8"
       style="fill:#004565;fill-rule:evenodd;stroke:none;stroke-width:1;stroke-linecap:butt;stroke-linejoin:miter;stroke-dasharray:none">
      <path
         d="M 71.2627,145.373 C 110.384,145.373 142.342,112.885 142.342,72.6865 C 142.342,32.4892 110.384,0 71.2627,0 C 31.958,0 0,32.4892 0,72.6865 C 0,112.885 31.958,145.373 71.2627,145.373 z"
         id="path10" />
    </g>
    <g
       transform="matrix(1.25,0,0,1.25,403.1255,583.64206)"
       id="g12"
       style="fill:#ffffff;fill-rule:evenodd;stroke:none;stroke-width:1;stroke-linecap:butt;stroke-linejoin:miter;stroke-dasharray:none">
      <path
         d="M 4.958,0 C 4.958,0 6.06,1.835 6.06,1.835 C 6.06,1.835 3.489,3.487 3.489,3.487 C 3.489,3.487 5.509,6.975 5.509,6.975 C 5.509,6.975 8.081,5.507 8.081,5.507 C 8.081,5.507 9.182,7.342 9.182,7.342 C 9.182,7.342 6.427,8.811 6.427,8.811 C 6.427,8.811 9.366,13.767 9.366,13.767 C 9.366,13.767 11.937,12.298 11.937,12.298 C 11.937,12.298 13.04,14.134 13.04,14.134 C 13.04,14.134 8.081,17.07 8.081,17.07 C 8.081,17.07 0,2.937 0,2.937 C 0,2.937 4.958,0 4.958,0 z"
         id="path14" />
    </g>
    <g
       transform="matrix(1.25,0,0,1.25,315.193,574.69331)"
       id="g16"
       style="fill:#ffffff;fill-rule:evenodd;stroke:none;stroke-width:1;stroke-linecap:butt;stroke-linejoin:miter;stroke-dasharray:none">
      <path
         d="M 15.7959,3.305 C 15.7959,3.305 5.8779,16.337 5.8779,16.337 C 5.8779,16.337 4.041,14.317 4.041,14.317 C 4.041,14.317 6.0615,11.564 6.0615,11.564 C 6.0615,11.564 4.4082,9.912 4.4082,9.912 C 4.4082,9.912 1.8369,12.115 1.8369,12.115 C 1.8369,12.115 0,10.096 0,10.096 C 0,10.096 12.4902,0 12.4902,0 C 12.4902,0 15.7959,3.305 15.7959,3.305 z M 6.0615,8.444 C 6.0615,8.444 7.5303,9.912 7.5303,9.912 C 7.5303,9.912 12.1221,4.039 12.1221,4.039 C 12.1221,4.039 11.7549,3.855 11.7549,3.855 C 11.7549,3.855 6.0615,8.444 6.0615,8.444 z"
         id="path18" />
    </g>
    <g
       transform="matrix(1.25,0,0,1.25,429.7555,550.60206)"
       id="g20"
       style="fill:#ffffff;fill-rule:evenodd;stroke:none;stroke-width:1;stroke-linecap:butt;stroke-linejoin:miter;stroke-dasharray:none">
      <path
         d="M 7.347,1.653 C 7.347,1.653 6.429,4.222 6.429,4.222 C 6.429,4.222 4.225,3.304 4.225,3.304 C 3.857,3.121 3.674,3.121 3.491,3.304 C 3.491,3.304 2.939,4.773 2.939,4.957 C 2.939,5.14 3.122,5.324 3.491,5.507 C 3.491,5.507 5.694,6.424 5.694,6.424 C 6.246,6.608 6.429,6.608 6.98,6.242 C 6.98,6.242 8.817,4.039 8.817,4.039 C 9.735,3.304 10.653,2.938 11.572,3.304 C 11.572,3.304 14.694,4.589 14.694,4.589 C 17.081,5.691 17.449,6.058 16.531,8.627 C 16.531,8.627 15.98,10.096 15.98,10.28 C 14.877,12.849 14.327,13.033 11.939,11.931 C 11.939,11.931 9.551,11.013 9.551,11.013 C 9.551,11.013 10.653,8.444 10.653,8.444 C 10.653,8.444 13.225,9.545 13.225,9.545 C 13.592,9.729 13.959,9.729 13.959,9.362 C 14.143,9.362 14.51,7.893 14.51,7.709 C 14.51,7.526 14.327,7.526 13.959,7.342 C 13.959,7.342 10.837,6.058 10.837,6.058 C 10.469,5.874 9.735,7.159 9.184,7.709 C 9.184,7.709 7.714,8.995 7.714,8.995 C 6.796,9.729 5.877,9.545 4.959,9.178 C 4.959,9.178 2.755,8.26 2.755,8.26 C 0.368,7.159 0,6.608 1.103,4.039 C 1.103,4.039 1.654,2.57 1.654,2.387 C 2.572,0 3.306,0 5.694,0.918 C 5.694,0.918 7.347,1.653 7.347,1.653 z"
         id="path22" />
    </g>
    <g
       transform="matrix(1.25,0,0,1.25,363.86488,593.73706)"
       id="g24"
       style="fill:#ffffff;fill-rule:evenodd;stroke:none;stroke-width:1;stroke-linecap:butt;stroke-linejoin:miter;stroke-dasharray:none">
      <path
         d="M 4.5918,0.367 C 4.5918,0.367 2.7559,16.52 2.7559,16.52 C 2.7559,16.52 0,16.153 0,16.153 C 0,16.153 1.8369,0 1.8369,0 C 1.8369,0 4.5918,0.367 4.5918,0.367 z"
         id="path26" />
    </g>
    <g
       transform="matrix(1.25,0,0,1.25,299.35188,552.43831)"
       id="g28"
       style="fill:#ffffff;fill-rule:evenodd;stroke:none;stroke-width:1;stroke-linecap:butt;stroke-linejoin:miter;stroke-dasharray:none">
      <path
         d="M 15.7959,2.937 C 15.7959,2.937 9.7344,8.076 9.7344,8.076 C 9.7344,8.076 9.7344,8.26 9.7344,8.26 C 9.7344,8.26 17.2647,6.424 17.2647,6.424 C 17.2647,6.424 18.7344,9.728 18.7344,9.728 C 18.7344,9.728 4.4082,16.52 4.4082,16.52 C 4.4082,16.52 3.3067,14.317 3.3067,14.317 C 3.3067,14.317 11.9385,10.279 11.9385,10.279 C 11.9385,10.279 11.7549,9.912 11.7549,9.912 C 11.7549,9.912 2.5713,12.298 2.5713,12.298 C 2.5713,12.298 1.837,11.013 1.837,11.013 C 1.837,11.013 9.5508,5.139 9.5508,5.139 C 9.5508,5.139 9.5508,4.955 9.5508,4.955 C 9.5508,4.955 1.1026,8.994 1.1026,8.994 C 1.1026,8.994 0,6.791 0,6.791 C 0,6.791 14.3262,0 14.3262,0 C 14.3262,0 15.7959,2.937 15.7959,2.937 z"
         id="path30" />
    </g>
    <g
       transform="matrix(1.25,0,0,1.25,337.234,586.85331)"
       id="g32"
       style="fill:#ffffff;fill-rule:evenodd;stroke:none;stroke-width:1;stroke-linecap:butt;stroke-linejoin:miter;stroke-dasharray:none">
      <path
         d="M 11.0195,2.02 C 13.4072,3.122 13.4072,4.04 12.4893,6.425 C 12.4893,6.425 11.5703,8.26 11.5703,8.26 C 11.0195,9.545 10.4688,10.28 9.3672,10.28 C 10.1016,11.014 9.918,11.932 9.3672,13.033 C 9.3672,13.033 7.1631,18.172 7.1631,18.172 C 7.1631,18.172 4.5918,16.887 4.5918,16.887 C 4.5918,16.887 7.1631,11.565 7.1631,11.565 C 7.3467,11.198 7.3467,11.014 7.1631,10.831 C 7.1631,10.647 5.5098,9.913 5.3262,9.729 C 5.3262,9.729 2.5713,15.969 2.5713,15.969 C 2.5713,15.969 0,14.685 0,14.685 C 0,14.685 6.7959,0 6.7959,0 C 6.7959,0 11.0195,2.02 11.0195,2.02 z M 6.2441,7.526 C 6.4277,7.709 7.8975,8.444 8.0811,8.444 C 8.4482,8.444 8.6318,8.26 8.8154,7.894 C 8.8154,7.894 10.1016,4.956 10.1016,4.956 C 10.2852,4.406 10.4688,4.222 10.1016,4.04 C 9.918,3.855 8.4482,3.122 8.2647,3.122 C 8.2647,3.122 6.2441,7.526 6.2441,7.526 z"
         id="path34" />
    </g>
    <g
       transform="matrix(1.25,0,0,1.25,382.46175,592.13081)"
       id="g36"
       style="fill:#ffffff;fill-rule:evenodd;stroke:none;stroke-width:1;stroke-linecap:butt;stroke-linejoin:miter;stroke-dasharray:none">
      <path
         d="M 2.387,0.918 C 2.387,0.918 6.428,8.443 6.428,8.443 C 6.428,8.443 4.959,0.367 4.959,0.367 C 4.959,0.367 7.164,0 7.164,0 C 7.164,0 10.286,15.97 10.286,15.97 C 10.286,15.97 7.898,16.337 7.898,16.337 C 7.898,16.337 3.857,8.811 3.857,8.811 C 3.857,8.811 5.51,16.888 5.51,16.888 C 5.51,16.888 3.122,17.438 3.122,17.438 C 3.122,17.438 0,1.469 0,1.469 C 0,1.469 2.387,0.918 2.387,0.918 z"
         id="path38" />
    </g>
    <g
       transform="matrix(1.25,0,0,1.25,417.588,569.64706)"
       id="g40"
       style="fill:#ffffff;fill-rule:evenodd;stroke:none;stroke-width:1;stroke-linecap:butt;stroke-linejoin:miter;stroke-dasharray:none">
      <path
         d="M 2.938,2.202 C 4.592,0.182 5.694,0 7.53,1.835 C 7.53,1.835 9,3.12 9,3.12 C 10.102,4.037 10.653,4.772 10.285,5.873 C 11.388,5.322 11.938,5.689 13.04,6.607 C 13.04,6.607 17.081,10.278 17.081,10.278 C 17.081,10.278 15.244,12.298 15.244,12.298 C 15.244,12.298 10.837,8.443 10.837,8.443 C 10.653,8.076 10.469,8.076 10.285,8.076 C 10.102,8.259 9,9.36 8.816,9.544 C 8.816,9.544 13.775,13.949 13.775,13.949 C 13.775,13.949 12.122,16.152 12.122,16.152 C 12.122,16.152 0,5.506 0,5.506 C 0,5.506 2.938,2.202 2.938,2.202 z M 6.98,8.076 C 7.163,7.892 8.266,6.607 8.266,6.607 C 8.448,6.24 8.266,6.056 7.897,5.689 C 7.897,5.689 5.694,3.671 5.694,3.671 C 5.143,3.304 4.959,3.12 4.592,3.304 C 4.592,3.486 3.489,4.588 3.306,4.772 C 3.306,4.772 6.98,8.076 6.98,8.076 z"
         id="path42" />
    </g>
    <g
       transform="matrix(1.25,0,0,1.25,371.21225,450.33768)"
       id="g44"
       style="fill:#ffffff;fill-rule:evenodd;stroke:none;stroke-width:1;stroke-linecap:butt;stroke-linejoin:miter;stroke-dasharray:none">
      <path
         d="M 6.9796,0 C 6.9796,0 6.9796,2.2022 6.9796,2.2022 C 6.9796,2.2022 4.7754,2.2022 4.7754,2.2022 C 4.7754,2.2022 4.7754,16.336 4.7754,16.336 C 4.7754,16.336 2.0205,16.336 2.0205,16.336 C 2.0205,16.336 2.2041,2.2022 2.2041,2.2022 C 2.2041,2.2022 0,2.2022 0,2.2022 C 0,2.2022 0,0 0,0 C 0,0 6.9796,0 6.9796,0 z"
         id="path46" />
    </g>
    <g
       transform="matrix(1.25,0,0,1.25,300.04163,494.16093)"
       id="g48"
       style="fill:#ffffff;fill-rule:evenodd;stroke:none;stroke-width:1;stroke-linecap:butt;stroke-linejoin:miter;stroke-dasharray:none">
      <path
         d="M 7.7139,1.835 C 7.7139,1.835 6.6113,4.4053 6.6113,4.4053 C 6.6113,4.4053 4.4072,3.4873 4.4072,3.4873 C 4.04,3.3038 3.8564,3.3038 3.6729,3.3038 C 3.6729,3.4873 3.1221,4.7715 3.1221,4.7715 C 2.9385,5.1387 3.1221,5.3223 3.4893,5.5059 C 3.4893,5.5059 5.877,6.6075 5.877,6.6075 C 6.2441,6.7911 6.6113,6.4239 7.1621,6.0567 C 7.1621,6.0567 8.999,3.8545 8.999,3.8545 C 10.1016,3.1202 10.8359,3.3038 11.7549,3.6709 C 11.7549,3.6709 14.877,5.1387 14.877,5.1387 C 17.2646,6.2403 17.6318,6.7911 16.5293,9.1768 C 16.5293,9.1768 15.9785,10.6455 15.7949,10.6455 C 14.6924,13.2159 14.1416,13.3985 11.7549,12.2979 C 11.7549,12.2979 8.999,11.1963 8.999,11.1963 C 8.999,11.1963 10.2852,8.627 10.2852,8.627 C 10.2852,8.627 13.2236,9.9112 13.2236,9.9112 C 13.5908,10.0948 13.7744,10.0948 13.958,9.7276 C 13.958,9.7276 14.5088,8.2598 14.5088,8.2598 C 14.5088,8.0762 14.3262,7.8926 13.958,7.8926 C 13.958,7.8926 11.0195,6.4239 11.0195,6.4239 C 10.4687,6.2403 9.918,7.1582 9.3662,7.5254 C 9.3662,7.5254 7.7139,8.627 7.7139,8.627 C 6.7949,9.3614 5.877,9.544 4.7744,9.1768 C 4.7744,9.1768 2.7549,8.2598 2.7549,8.2598 C 0.3672,7.1582 0,6.4239 1.1016,3.8545 C 1.2852,3.8545 1.8359,2.3858 1.8359,2.3858 C 2.9385,0 3.4893,0 5.877,1.1016 C 5.877,1.1016 7.7139,1.835 7.7139,1.835 z"
         id="path50" />
    </g>
    <g
       transform="matrix(1.25,0,0,1.25,317.48913,470.06918)"
       id="g52"
       style="fill:#ffffff;fill-rule:evenodd;stroke:none;stroke-width:1;stroke-linecap:butt;stroke-linejoin:miter;stroke-dasharray:none">
      <path
         d="M 4.2246,0 C 4.2246,0 5.6934,1.4688 5.6934,1.4688 C 5.6934,1.4688 3.4902,3.6709 3.4902,3.6709 C 3.4902,3.6709 6.2451,6.6074 6.2451,6.6074 C 6.2451,6.6074 8.4492,4.5889 8.4492,4.5889 C 8.4492,4.5889 9.918,6.0576 9.918,6.0576 C 9.918,6.0576 7.7139,8.2598 7.7139,8.2598 C 7.7139,8.2598 11.5713,12.2979 11.5713,12.2979 C 11.5713,12.2979 13.7754,10.0957 13.7754,10.0957 C 13.7754,10.0957 15.2451,11.7481 15.2451,11.7481 C 15.2451,11.7481 11.0205,15.7852 11.0205,15.7852 C 11.0205,15.7852 0,4.0381 0,4.0381 C 0,4.0381 4.2246,0 4.2246,0 z"
         id="path54" />
    </g>
    <g
       transform="matrix(1.25,0,0,1.25,343.66225,454.69693)"
       id="g56"
       style="fill:#ffffff;fill-rule:evenodd;stroke:none;stroke-width:1;stroke-linecap:butt;stroke-linejoin:miter;stroke-dasharray:none">
      <path
         d="M 4.2246,0 C 4.2246,0 11.9385,14.3173 11.9385,14.3173 C 11.9385,14.3173 9.5508,15.4179 9.5508,15.4179 C 9.5508,15.4179 7.8974,12.2978 7.8974,12.2978 C 7.8974,12.2978 5.6933,13.2158 5.6933,13.2158 C 5.6933,13.2158 6.6123,16.5195 6.6123,16.5195 C 6.6123,16.5195 4.041,17.621 4.041,17.621 C 4.041,17.621 0,1.6523 0,1.6523 C 0,1.6523 4.2246,0 4.2246,0 z M 5.1426,11.1962 C 5.1426,11.1962 6.7959,10.4619 6.7959,10.4619 C 6.7959,10.4619 3.4892,3.8544 3.4892,3.8544 C 3.4892,3.8544 3.1221,4.038 3.1221,4.038 C 3.1221,4.038 5.1426,11.1962 5.1426,11.1962 z"
         id="path58" />
    </g>
    <g
       transform="matrix(1.25,0,0,1.25,395.778,454.46743)"
       id="g60"
       style="fill:#ffffff;fill-rule:evenodd;stroke:none;stroke-width:1;stroke-linecap:butt;stroke-linejoin:miter;stroke-dasharray:none">
      <path
         d="M 10.285,2.5693 C 10.285,2.5693 9.551,4.5888 9.551,4.5888 C 9.551,4.5888 7.714,3.8545 7.714,3.8545 C 7.714,3.8545 2.571,16.8867 2.571,16.8867 C 2.571,16.8867 0,15.9687 0,15.9687 C 0,15.9687 5.142,2.7539 5.142,2.7539 C 5.142,2.7539 3.122,2.0185 3.122,2.0185 C 3.122,2.0185 3.857,0 3.857,0 C 3.857,0 10.285,2.5693 10.285,2.5693 z"
         id="path62" />
    </g>
    <g
       transform="matrix(1.25,0,0,1.25,414.37425,470.06918)"
       id="g64"
       style="fill:#ffffff;fill-rule:evenodd;stroke:none;stroke-width:1;stroke-linecap:butt;stroke-linejoin:miter;stroke-dasharray:none">
      <path
         d="M 12.673,1.8359 C 12.673,1.8359 3.305,12.4814 3.305,12.4814 C 3.305,12.4814 5.509,14.501 5.509,14.501 C 5.509,14.501 4.224,16.1523 4.224,16.1523 C 4.224,16.1523 0,12.1143 0,12.1143 C 0,12.1143 10.653,0 10.653,0 C 10.653,0 12.673,1.8359 12.673,1.8359 z"
         id="path66" />
    </g>
    <g
       transform="matrix(1.25,0,0,1.25,428.148,493.47256)"
       id="g68"
       style="fill:#ffffff;fill-rule:evenodd;stroke:none;stroke-width:1;stroke-linecap:butt;stroke-linejoin:miter;stroke-dasharray:none">
      <path
         d="M 16.898,5.1386 C 16.898,5.1386 15.062,6.0566 15.062,6.0566 C 15.062,6.0566 13.592,3.3037 13.592,3.3037 C 13.592,3.3037 9.919,5.1386 9.919,5.1386 C 9.919,5.1386 11.388,7.8925 11.388,7.8925 C 11.388,7.8925 9.551,8.9941 9.551,8.9941 C 9.551,8.9941 8.082,6.2402 8.082,6.2402 C 8.082,6.2402 3.123,8.8105 3.123,8.8105 C 3.123,8.8105 4.592,11.5634 4.592,11.5634 C 4.592,11.5634 2.572,12.4814 2.572,12.4814 C 2.572,12.4814 0,7.1582 0,7.1582 C 0,7.1582 14.326,0 14.326,0 C 14.326,0 16.898,5.1386 16.898,5.1386 z"
         id="path70" />
    </g>
    <g
       transform="matrix(1.25,0,0,1.25,322.08138,478.10018)"
       id="g72"
       style="fill:#ffffff;fill-rule:evenodd;stroke:none;stroke-width:1;stroke-linecap:butt;stroke-linejoin:miter;stroke-dasharray:none">
      <path
         d="M 42.4268,86.6365 C 65.7533,86.6365 84.6713,67.3635 84.6713,43.3174 C 84.6713,19.4561 65.7533,0 42.4268,0 C 18.918,0 0,19.4561 0,43.3174 C 0,67.3635 18.918,86.6365 42.4268,86.6365 z"
         id="path74" />
    </g>
    <g
       transform="matrix(1.25,0,0,1.25,322.08138,478.10018)"
       id="g76"
       style="fill:none;stroke:#006f61;stroke-width:2.81994009;stroke-linecap:butt;stroke-linejoin:miter;stroke-dasharray:none">
      <path
         d="M 42.4268,86.6365 C 65.7533,86.6365 84.6713,67.3635 84.6713,43.3174 C 84.6713,19.4561 65.7533,0 42.4268,0 C 18.918,0 0,19.4561 0,43.3174 C 0,67.3635 18.918,86.6365 42.4268,86.6365 z"
         id="path78" />
    </g>
    <g
       transform="matrix(1.25,0,0,1.25,340.90713,492.55456)"
       id="g80"
       style="fill:#bcccd3;fill-rule:evenodd;stroke:none;stroke-width:1;stroke-linecap:butt;stroke-linejoin:miter;stroke-dasharray:none">
      <path
         d="M 7.1631,17.9883 C 5.5097,14.1338 0,0.1836 0.1836,0 C 0.1836,0 14.1426,7.5254 16.8974,9.3613 C 13.5908,10.2783 7.8974,15.9687 7.1631,17.9883 z"
         id="path82" />
    </g>
    <g
       transform="matrix(1.25,0,0,1.25,340.90713,492.55456)"
       id="g84"
       style="fill:#006f61;fill-rule:evenodd;stroke:none;stroke-width:1;stroke-linecap:butt;stroke-linejoin:miter;stroke-dasharray:none">
      <path
         d="M 11.2041,13.0322 C 9.3672,15.0508 7.5303,17.0703 7.1631,17.9883 C 5.5097,14.1338 0,0.1836 0.1836,0 C 0.1836,0 11.2041,13.0322 11.2041,13.0322 z"
         id="path86" />
    </g>
    <g
       transform="matrix(1.25,0,0,1.25,387.97175,492.78406)"
       id="g88"
       style="fill:#bcccd3;fill-rule:evenodd;stroke:none;stroke-width:1;stroke-linecap:butt;stroke-linejoin:miter;stroke-dasharray:none">
      <path
         d="M 9.734,17.9883 C 11.387,13.9502 16.897,0 16.714,0 C 16.714,0 2.756,7.5254 0,9.3613 C 3.306,10.0947 9,15.7851 9.734,17.9883 z"
         id="path90" />
    </g>
    <g
       transform="matrix(1.25,0,0,1.25,388.20175,492.55456)"
       id="g92"
       style="fill:#006f61;fill-rule:evenodd;stroke:none;stroke-width:1;stroke-linecap:butt;stroke-linejoin:miter;stroke-dasharray:none">
      <path
         d="M 5.325,12.8486 C 3.306,11.1963 1.102,9.7285 0,9.5449 C 3.489,7.3418 16.53,0 16.53,0 C 16.53,0 5.325,12.8486 5.325,12.8486 z"
         id="path94" />
    </g>
    <g
       transform="matrix(1.25,0,0,1.25,340.90713,549.22581)"
       id="g96"
       style="fill:#bcccd3;fill-rule:evenodd;stroke:none;stroke-width:1;stroke-linecap:butt;stroke-linejoin:miter;stroke-dasharray:none">
      <path
         d="M 7.1631,0 C 5.5097,3.854 0,17.988 0.1836,18.172 C 0.1836,18.172 14.1426,10.463 16.8974,8.627 C 13.5908,7.709 7.8974,2.019 7.1631,0 z"
         id="path98" />
    </g>
    <g
       transform="matrix(1.25,0,0,1.25,340.90713,555.65081)"
       id="g100"
       style="fill:#006f61;fill-rule:evenodd;stroke:none;stroke-width:1;stroke-linecap:butt;stroke-linejoin:miter;stroke-dasharray:none">
      <path
         d="M 11.3877,0 C 13.5908,1.835 15.7949,3.303 16.8974,3.487 C 13.2236,5.69 0.1836,13.032 0,12.848 C 0,12.848 11.3877,0 11.3877,0 z"
         id="path102" />
    </g>
    <g
       transform="matrix(1.25,0,0,1.25,388.4305,549.22581)"
       id="g104"
       style="fill:#bcccd3;fill-rule:evenodd;stroke:none;stroke-width:1;stroke-linecap:butt;stroke-linejoin:miter;stroke-dasharray:none">
      <path
         d="M 9.551,0 C 11.204,3.854 16.347,18.172 16.163,18.355 C 16.163,18.355 2.756,10.463 0,8.627 C 3.123,7.709 8.816,2.019 9.551,0 z"
         id="path106" />
    </g>
    <g
       transform="matrix(1.25,0,0,1.25,395.31925,549.22581)"
       id="g108"
       style="fill:#006f61;fill-rule:evenodd;stroke:none;stroke-width:1;stroke-linecap:butt;stroke-linejoin:miter;stroke-dasharray:none">
      <path
         d="M 0,4.956 C 2.02,3.121 3.673,1.101 4.04,0 C 5.693,3.854 10.836,18.172 10.652,18.355 C 10.652,18.355 0,4.956 0,4.956 z"
         id="path110" />
    </g>
    <g
       transform="matrix(1.25,0,0,1.25,352.38663,510.68081)"
       id="g112"
       style="fill:#e63047;fill-rule:evenodd;stroke:none;stroke-width:1;stroke-linecap:butt;stroke-linejoin:miter;stroke-dasharray:none">
      <path
         d="M 2.2041,0.1826 C 2.2041,0.1826 1.8359,0 1.8359,0 C 1.8359,0 0,0.5498 0,0.5498 C 0,0.5498 0.3672,0.917 0.3672,0.917 C 0.3672,0.917 2.2041,0.1826 2.2041,0.1826 z"
         id="path114" />
    </g>
    <g
       transform="matrix(1.25,0,0,1.25,352.38663,510.68081)"
       id="g116"
       style="fill:none;stroke:#e63047;stroke-width:0.28263101;stroke-linecap:butt;stroke-linejoin:miter;stroke-dasharray:none">
      <path
         d="M 2.2041,0.1826 C 2.2041,0.1826 1.8359,0 1.8359,0 C 1.8359,0 0,0.5498 0,0.5498 C 0,0.5498 0.3672,0.917 0.3672,0.917 C 0.3672,0.917 2.2041,0.1826 2.2041,0.1826 z"
         id="path118" />
    </g>
    <g
       transform="matrix(1.25,0,0,1.25,355.14175,509.07431)"
       id="g120"
       style="fill:#e63047;fill-rule:evenodd;stroke:none;stroke-width:1;stroke-linecap:butt;stroke-linejoin:miter;stroke-dasharray:none">
      <path
         d="M 0.5508,0 C 0.5508,0 0.9179,0.1836 0.9179,0.1836 C 0.9179,0.1836 0.3672,1.835 0.3672,1.835 C 0.3672,1.835 0,1.4678 0,1.4678 C 0,1.4678 0.5508,0 0.5508,0 z"
         id="path122" />
    </g>
    <g
       transform="matrix(1.25,0,0,1.25,355.14175,509.07431)"
       id="g124"
       style="fill:none;stroke:#e63047;stroke-width:0.28263101;stroke-linecap:butt;stroke-linejoin:miter;stroke-dasharray:none">
      <path
         d="M 0.5508,0 C 0.5508,0 0.9179,0.1836 0.9179,0.1836 C 0.9179,0.1836 0.3672,1.835 0.3672,1.835 C 0.3672,1.835 0,1.4678 0,1.4678 C 0,1.4678 0.5508,0 0.5508,0 z"
         id="path126" />
    </g>
    <g
       transform="matrix(1.25,0,0,1.25,354.2225,512.05644)"
       id="g128"
       style="fill:#e63047;fill-rule:evenodd;stroke:none;stroke-width:1;stroke-linecap:butt;stroke-linejoin:miter;stroke-dasharray:none">
      <path
         d="M 2.3877,0.3672 C 2.3877,0.3672 1.8369,0 1.8369,0 C 1.8369,0 0,0.5508 0,0.5508 C 0,0.5508 0.3672,0.918 0.3672,0.918 C 0.3672,0.918 2.3877,0.3672 2.3877,0.3672 z"
         id="path130" />
    </g>
    <g
       transform="matrix(1.25,0,0,1.25,354.2225,512.05644)"
       id="g132"
       style="fill:none;stroke:#e63047;stroke-width:0.28263101;stroke-linecap:butt;stroke-linejoin:miter;stroke-dasharray:none">
      <path
         d="M 2.3877,0.3672 C 2.3877,0.3672 1.8369,0 1.8369,0 C 1.8369,0 0,0.5508 0,0.5508 C 0,0.5508 0.3672,0.918 0.3672,0.918 C 0.3672,0.918 2.3877,0.3672 2.3877,0.3672 z"
         id="path134" />
    </g>
    <g
       transform="matrix(1.25,0,0,1.25,357.20713,510.45006)"
       id="g136"
       style="fill:#e63047;fill-rule:evenodd;stroke:none;stroke-width:1;stroke-linecap:butt;stroke-linejoin:miter;stroke-dasharray:none">
      <path
         d="M 0.3682,0 C 0.3682,0 0.919,0.1846 0.919,0.1846 C 0.919,0.1846 0.3682,1.8359 0.3682,1.8359 C 0.3682,1.8359 0,1.6523 0,1.6523 C 0,1.6523 0.3682,0 0.3682,0 z"
         id="path138" />
    </g>
    <g
       transform="matrix(1.25,0,0,1.25,357.20713,510.45006)"
       id="g140"
       style="fill:none;stroke:#e63047;stroke-width:0.28263101;stroke-linecap:butt;stroke-linejoin:miter;stroke-dasharray:none">
      <path
         d="M 0.3682,0 C 0.3682,0 0.919,0.1846 0.919,0.1846 C 0.919,0.1846 0.3682,1.8359 0.3682,1.8359 C 0.3682,1.8359 0,1.6523 0,1.6523 C 0,1.6523 0.3682,0 0.3682,0 z"
         id="path142" />
    </g>
    <g
       transform="matrix(1.25,0,0,1.25,356.51863,513.43343)"
       id="g144"
       style="fill:#e63047;fill-rule:evenodd;stroke:none;stroke-width:1;stroke-linecap:butt;stroke-linejoin:miter;stroke-dasharray:none">
      <path
         d="M 2.3877,0.3672 C 2.3877,0.3672 1.837,0 1.837,0 C 1.837,0 0,0.7344 0,0.7344 C 0,0.7344 0.5508,0.918 0.5508,0.918 C 0.5508,0.918 2.3877,0.3672 2.3877,0.3672 z"
         id="path146" />
    </g>
    <g
       transform="matrix(1.25,0,0,1.25,356.51863,513.43343)"
       id="g148"
       style="fill:none;stroke:#e63047;stroke-width:0.28263101;stroke-linecap:butt;stroke-linejoin:miter;stroke-dasharray:none">
      <path
         d="M 2.3877,0.3672 C 2.3877,0.3672 1.837,0 1.837,0 C 1.837,0 0,0.7344 0,0.7344 C 0,0.7344 0.5508,0.918 0.5508,0.918 C 0.5508,0.918 2.3877,0.3672 2.3877,0.3672 z"
         id="path150" />
    </g>
    <g
       transform="matrix(1.25,0,0,1.25,359.50325,511.82706)"
       id="g152"
       style="fill:#e63047;fill-rule:evenodd;stroke:none;stroke-width:1;stroke-linecap:butt;stroke-linejoin:miter;stroke-dasharray:none">
      <path
         d="M 0.3672,0 C 0.3672,0 0.918,0.1835 0.918,0.1835 C 0.918,0.1835 0.5508,1.8359 0.5508,1.8359 C 0.5508,1.8359 0,1.6523 0,1.6523 C 0,1.6523 0.3672,0 0.3672,0 z"
         id="path154" />
    </g>
    <g
       transform="matrix(1.25,0,0,1.25,359.50325,511.82706)"
       id="g156"
       style="fill:none;stroke:#e63047;stroke-width:0.28263101;stroke-linecap:butt;stroke-linejoin:miter;stroke-dasharray:none">
      <path
         d="M 0.3672,0 C 0.3672,0 0.918,0.1835 0.918,0.1835 C 0.918,0.1835 0.5508,1.8359 0.5508,1.8359 C 0.5508,1.8359 0,1.6523 0,1.6523 C 0,1.6523 0.3672,0 0.3672,0 z"
         id="path158" />
    </g>
    <g
       transform="matrix(1.25,0,0,1.25,359.27375,514.81043)"
       id="g160"
       style="fill:#e63047;fill-rule:evenodd;stroke:none;stroke-width:1;stroke-linecap:butt;stroke-linejoin:miter;stroke-dasharray:none">
      <path
         d="M 2.3877,0.1836 C 2.3877,0.1836 1.837,0 1.837,0 C 1.837,0 0,0.7343 0,0.7343 C 0,0.7343 0.5508,1.1006 0.5508,1.1006 C 0.5508,1.1006 2.3877,0.1836 2.3877,0.1836 z"
         id="path162" />
    </g>
    <g
       transform="matrix(1.25,0,0,1.25,359.27375,514.81043)"
       id="g164"
       style="fill:none;stroke:#e63047;stroke-width:0.28263101;stroke-linecap:butt;stroke-linejoin:miter;stroke-dasharray:none">
      <path
         d="M 2.3877,0.1836 C 2.3877,0.1836 1.837,0 1.837,0 C 1.837,0 0,0.7343 0,0.7343 C 0,0.7343 0.5508,1.1006 0.5508,1.1006 C 0.5508,1.1006 2.3877,0.1836 2.3877,0.1836 z"
         id="path166" />
    </g>
    <g
       transform="matrix(1.25,0,0,1.25,362.25837,512.97443)"
       id="g168"
       style="fill:#e63047;fill-rule:evenodd;stroke:none;stroke-width:1;stroke-linecap:butt;stroke-linejoin:miter;stroke-dasharray:none">
      <path
         d="M 0.1836,0 C 0.1836,0 0.7344,0.1836 0.7344,0.1836 C 0.7344,0.1836 0.5508,2.0196 0.5508,2.0196 C 0.5508,2.0196 0,1.6524 0,1.6524 C 0,1.6524 0.1836,0 0.1836,0 z"
         id="path170" />
    </g>
    <g
       transform="matrix(1.25,0,0,1.25,362.25837,512.97443)"
       id="g172"
       style="fill:none;stroke:#e63047;stroke-width:0.28263101;stroke-linecap:butt;stroke-linejoin:miter;stroke-dasharray:none">
      <path
         d="M 0.1836,0 C 0.1836,0 0.7344,0.1836 0.7344,0.1836 C 0.7344,0.1836 0.5508,2.0196 0.5508,2.0196 C 0.5508,2.0196 0,1.6524 0,1.6524 C 0,1.6524 0.1836,0 0.1836,0 z"
         id="path174" />
    </g>
    <g
       transform="matrix(1.25,0,0,1.25,362.02887,515.95669)"
       id="g176"
       style="fill:#e63047;fill-rule:evenodd;stroke:none;stroke-width:1;stroke-linecap:butt;stroke-linejoin:miter;stroke-dasharray:none">
      <path
         d="M 2.3877,0.1836 C 2.3877,0.1836 1.6534,0 1.6534,0 C 1.6534,0 0,0.9179 0,0.9179 C 0,0.9179 0.7344,1.1015 0.7344,1.1015 C 0.7344,1.1015 2.3877,0.1836 2.3877,0.1836 z"
         id="path178" />
    </g>
    <g
       transform="matrix(1.25,0,0,1.25,362.02887,515.95669)"
       id="g180"
       style="fill:none;stroke:#e63047;stroke-width:0.28263101;stroke-linecap:butt;stroke-linejoin:miter;stroke-dasharray:none">
      <path
         d="M 2.3877,0.1836 C 2.3877,0.1836 1.6534,0 1.6534,0 C 1.6534,0 0,0.918 0,0.918 C 0,0.918 0.7344,1.1015 0.7344,1.1015 C 0.7344,1.1015 2.3877,0.1836 2.3877,0.1836 z"
         id="path182" />
    </g>
    <g
       transform="matrix(1.25,0,0,1.25,364.784,513.89244)"
       id="g184"
       style="fill:#e63047;fill-rule:evenodd;stroke:none;stroke-width:1;stroke-linecap:butt;stroke-linejoin:miter;stroke-dasharray:none">
      <path
         d="M 0,0 C 0,0 0.5508,0.1836 0.5508,0.1836 C 0.5508,0.1836 0.7344,2.0186 0.7344,2.0186 C 0.7344,2.0186 0.1836,1.835 0.1836,1.835 C 0.1836,1.835 0,0 0,0 z"
         id="path186" />
    </g>
    <g
       transform="matrix(1.25,0,0,1.25,364.784,513.89244)"
       id="g188"
       style="fill:none;stroke:#e63047;stroke-width:0.28263101;stroke-linecap:butt;stroke-linejoin:miter;stroke-dasharray:none">
      <path
         d="M 0,0 C 0,0 0.5508,0.1836 0.5508,0.1836 C 0.5508,0.1836 0.7344,2.0186 0.7344,2.0186 C 0.7344,2.0186 0.1836,1.835 0.1836,1.835 C 0.1836,1.835 0,0 0,0 z"
         id="path190" />
    </g>
    <g
       transform="matrix(1.25,0,0,1.25,365.4725,516.87456)"
       id="g192"
       style="fill:#e63047;fill-rule:evenodd;stroke:none;stroke-width:1;stroke-linecap:butt;stroke-linejoin:miter;stroke-dasharray:none">
      <path
         d="M 2.2041,0 C 2.2041,0 1.6533,0 1.6533,0 C 1.6533,0 0,0.918 0,0.918 C 0,0.918 0.7344,1.1016 0.7344,1.1016 C 0.7344,1.1016 2.2041,0 2.2041,0 z"
         id="path194" />
    </g>
    <g
       transform="matrix(1.25,0,0,1.25,365.4725,516.87456)"
       id="g196"
       style="fill:none;stroke:#e63047;stroke-width:0.28263101;stroke-linecap:butt;stroke-linejoin:miter;stroke-dasharray:none">
      <path
         d="M 2.2041,0 C 2.2041,0 1.6533,0 1.6533,0 C 1.6533,0 0,0.918 0,0.918 C 0,0.918 0.7344,1.1016 0.7344,1.1016 C 0.7344,1.1016 2.2041,0 2.2041,0 z"
         id="path198" />
    </g>
    <g
       transform="matrix(1.25,0,0,1.25,367.76863,514.81043)"
       id="g200"
       style="fill:#e63047;fill-rule:evenodd;stroke:none;stroke-width:1;stroke-linecap:butt;stroke-linejoin:miter;stroke-dasharray:none">
      <path
         d="M 0,0 C 0,0 0.7344,0.1836 0.7344,0.1836 C 0.7344,0.1836 1.1016,1.8349 1.1016,1.8349 C 1.1016,1.8349 0.5508,1.6513 0.5508,1.6513 C 0.5508,1.6513 0,0 0,0 z"
         id="path202" />
    </g>
    <g
       transform="matrix(1.25,0,0,1.25,367.76863,514.81043)"
       id="g204"
       style="fill:none;stroke:#e63047;stroke-width:0.28263101;stroke-linecap:butt;stroke-linejoin:miter;stroke-dasharray:none">
      <path
         d="M 0,0 C 0,0 0.7344,0.1836 0.7344,0.1836 C 0.7344,0.1836 1.1016,1.835 1.1016,1.835 C 1.1016,1.835 0.5508,1.6513 0.5508,1.6513 C 0.5508,1.6513 0,0 0,0 z"
         id="path206" />
    </g>
    <g
       transform="matrix(1.25,0,0,1.25,368.91612,517.33356)"
       id="g208"
       style="fill:#e63047;fill-rule:evenodd;stroke:none;stroke-width:1;stroke-linecap:butt;stroke-linejoin:miter;stroke-dasharray:none">
      <path
         d="M 2.0205,0 C 2.0205,0 1.2861,0 1.2861,0 C 1.2861,0 0,1.2852 0,1.2852 C 0,1.2852 0.7354,1.2852 0.7354,1.2852 C 0.7354,1.2852 2.0205,0 2.0205,0 z"
         id="path210" />
    </g>
    <g
       transform="matrix(1.25,0,0,1.25,368.91612,517.33356)"
       id="g212"
       style="fill:none;stroke:#e63047;stroke-width:0.28263101;stroke-linecap:butt;stroke-linejoin:miter;stroke-dasharray:none">
      <path
         d="M 2.0205,0 C 2.0205,0 1.2861,0 1.2861,0 C 1.2861,0 0,1.2852 0,1.2852 C 0,1.2852 0.7354,1.2852 0.7354,1.2852 C 0.7354,1.2852 2.0205,0 2.0205,0 z"
         id="path214" />
    </g>
    <g
       transform="matrix(1.25,0,0,1.25,370.29313,515.26943)"
       id="g216"
       style="fill:#e63047;fill-rule:evenodd;stroke:none;stroke-width:1;stroke-linecap:butt;stroke-linejoin:miter;stroke-dasharray:none">
      <path
         d="M 0,0 C 0,0 0.7353,0.1836 0.7353,0.1836 C 0.7353,0.1836 1.4697,1.6513 1.4697,1.6513 C 1.4697,1.6513 0.9189,1.6513 0.9189,1.6513 C 0.9189,1.6513 0,0 0,0 z"
         id="path218" />
    </g>
    <g
       transform="matrix(1.25,0,0,1.25,370.29313,515.26943)"
       id="g220"
       style="fill:none;stroke:#e63047;stroke-width:0.28263101;stroke-linecap:butt;stroke-linejoin:miter;stroke-dasharray:none">
      <path
         d="M 0,0 C 0,0 0.7353,0.1836 0.7353,0.1836 C 0.7353,0.1836 1.4697,1.6513 1.4697,1.6513 C 1.4697,1.6513 0.9189,1.6513 0.9189,1.6513 C 0.9189,1.6513 0,0 0,0 z"
         id="path222" />
    </g>
    <g
       transform="matrix(1.25,0,0,1.25,372.13025,517.56306)"
       id="g224"
       style="fill:#e63047;fill-rule:evenodd;stroke:none;stroke-width:1;stroke-linecap:butt;stroke-linejoin:miter;stroke-dasharray:none">
      <path
         d="M 1.8369,0 C 1.8369,0 1.1025,0 1.1025,0 C 1.1025,0 0,1.2852 0,1.2852 C 0,1.2852 0.7353,1.2852 0.7353,1.2852 C 0.7353,1.2852 1.8369,0 1.8369,0 z"
         id="path226" />
    </g>
    <g
       transform="matrix(1.25,0,0,1.25,372.13025,517.56306)"
       id="g228"
       style="fill:none;stroke:#e63047;stroke-width:0.28263101;stroke-linecap:butt;stroke-linejoin:miter;stroke-dasharray:none">
      <path
         d="M 1.8369,0 C 1.8369,0 1.1025,0 1.1025,0 C 1.1025,0 0,1.2852 0,1.2852 C 0,1.2852 0.7353,1.2852 0.7353,1.2852 C 0.7353,1.2852 1.8369,0 1.8369,0 z"
         id="path230" />
    </g>
    <g
       transform="matrix(1.25,0,0,1.25,373.27775,515.72831)"
       id="g232"
       style="fill:#e63047;fill-rule:evenodd;stroke:none;stroke-width:1;stroke-linecap:butt;stroke-linejoin:miter;stroke-dasharray:none">
      <path
         d="M 0,0 C 0,0 0.7353,0 0.7353,0 C 0.7353,0 1.6533,1.4678 1.6533,1.4678 C 1.6533,1.4678 0.9189,1.4678 0.9189,1.4678 C 0.9189,1.4678 0,0 0,0 z"
         id="path234" />
    </g>
    <g
       transform="matrix(1.25,0,0,1.25,373.27775,515.72831)"
       id="g236"
       style="fill:none;stroke:#e63047;stroke-width:0.28263101;stroke-linecap:butt;stroke-linejoin:miter;stroke-dasharray:none">
      <path
         d="M 0,0 C 0,0 0.7353,0 0.7353,0 C 0.7353,0 1.6533,1.4678 1.6533,1.4678 C 1.6533,1.4678 0.9189,1.4678 0.9189,1.4678 C 0.9189,1.4678 0,0 0,0 z"
         id="path238" />
    </g>
    <g
       transform="matrix(1.25,0,0,1.25,375.80338,517.56306)"
       id="g240"
       style="fill:#e63047;fill-rule:evenodd;stroke:none;stroke-width:1;stroke-linecap:butt;stroke-linejoin:miter;stroke-dasharray:none">
      <path
         d="M 1.4697,0 C 1.4697,0 0.7353,0 0.7353,0 C 0.7353,0 0,1.4688 0,1.4688 C 0,1.4688 0.7353,1.2852 0.7353,1.2852 C 0.7353,1.2852 1.4697,0 1.4697,0 z"
         id="path242" />
    </g>
    <g
       transform="matrix(1.25,0,0,1.25,375.80325,517.56306)"
       id="g244"
       style="fill:none;stroke:#e63047;stroke-width:0.28263101;stroke-linecap:butt;stroke-linejoin:miter;stroke-dasharray:none">
      <path
         d="M 1.4698,0 C 1.4698,0 0.7354,0 0.7354,0 C 0.7354,0 0,1.4687 0,1.4687 C 0,1.4687 0.7354,1.2852 0.7354,1.2852 C 0.7354,1.2852 1.4698,0 1.4698,0 z"
         id="path246" />
    </g>
    <g
       transform="matrix(1.25,0,0,1.25,376.2635,515.72831)"
       id="g248"
       style="fill:#e63047;fill-rule:evenodd;stroke:none;stroke-width:1;stroke-linecap:butt;stroke-linejoin:miter;stroke-dasharray:none">
      <path
         d="M 0,0 C 0,0 0.5508,0 0.5508,0 C 0.5508,0 1.836,1.4678 1.836,1.4678 C 1.836,1.4678 1.1016,1.4678 1.1016,1.4678 C 1.1016,1.4678 0,0 0,0 z"
         id="path250" />
    </g>
    <g
       transform="matrix(1.25,0,0,1.25,376.2635,515.72831)"
       id="g252"
       style="fill:none;stroke:#e63047;stroke-width:0.28263101;stroke-linecap:butt;stroke-linejoin:miter;stroke-dasharray:none">
      <path
         d="M 0,0 C 0,0 0.5508,0 0.5508,0 C 0.5508,0 1.836,1.4678 1.836,1.4678 C 1.836,1.4678 1.1016,1.4678 1.1016,1.4678 C 1.1016,1.4678 0,0 0,0 z"
         id="path254" />
    </g>
    <g
       transform="matrix(1.25,0,0,1.25,379.70675,517.10406)"
       id="g256"
       style="fill:#e63047;fill-rule:evenodd;stroke:none;stroke-width:1;stroke-linecap:butt;stroke-linejoin:miter;stroke-dasharray:none">
      <path
         d="M 1.285,0 C 1.285,0 0.551,0 0.551,0 C 0.551,0 0,1.4688 0,1.4688 C 0,1.4688 0.551,1.4688 0.551,1.4688 C 0.551,1.4688 1.285,0 1.285,0 z"
         id="path258" />
    </g>
    <g
       transform="matrix(1.25,0,0,1.25,379.70675,517.10418)"
       id="g260"
       style="fill:none;stroke:#e63047;stroke-width:0.28263101;stroke-linecap:butt;stroke-linejoin:miter;stroke-dasharray:none">
      <path
         d="M 1.285,0 C 1.285,0 0.551,0 0.551,0 C 0.551,0 0,1.4687 0,1.4687 C 0,1.4687 0.551,1.4687 0.551,1.4687 C 0.551,1.4687 1.285,0 1.285,0 z"
         id="path262" />
    </g>
    <g
       transform="matrix(1.25,0,0,1.25,379.70675,515.26943)"
       id="g264"
       style="fill:#e63047;fill-rule:evenodd;stroke:none;stroke-width:1;stroke-linecap:butt;stroke-linejoin:miter;stroke-dasharray:none">
      <path
         d="M 0,0 C 0,0 0.551,0 0.551,0 C 0.551,0 1.836,1.2841 1.836,1.2841 C 1.836,1.2841 1.285,1.4677 1.285,1.4677 C 1.285,1.4677 0,0 0,0 z"
         id="path266" />
    </g>
    <g
       transform="matrix(1.25,0,0,1.25,379.70675,515.26943)"
       id="g268"
       style="fill:none;stroke:#e63047;stroke-width:0.28263101;stroke-linecap:butt;stroke-linejoin:miter;stroke-dasharray:none">
      <path
         d="M 0,0 C 0,0 0.551,0 0.551,0 C 0.551,0 1.836,1.2841 1.836,1.2841 C 1.836,1.2841 1.285,1.4678 1.285,1.4678 C 1.285,1.4678 0,0 0,0 z"
         id="path270" />
    </g>
    <g
       transform="matrix(1.25,0,0,1.25,383.1505,516.41569)"
       id="g272"
       style="fill:#e63047;fill-rule:evenodd;stroke:none;stroke-width:1;stroke-linecap:butt;stroke-linejoin:miter;stroke-dasharray:none">
      <path
         d="M 0.918,0 C 0.918,0 0.184,0.1835 0.184,0.1835 C 0.184,0.1835 0,1.6523 0,1.6523 C 0,1.6523 0.735,1.4687 0.735,1.4687 C 0.735,1.4687 0.918,0 0.918,0 z"
         id="path274" />
    </g>
    <g
       transform="matrix(1.25,0,0,1.25,383.1505,516.41569)"
       id="g276"
       style="fill:none;stroke:#e63047;stroke-width:0.28263101;stroke-linecap:butt;stroke-linejoin:miter;stroke-dasharray:none">
      <path
         d="M 0.918,0 C 0.918,0 0.184,0.1835 0.184,0.1835 C 0.184,0.1835 0,1.6523 0,1.6523 C 0,1.6523 0.735,1.4687 0.735,1.4687 C 0.735,1.4687 0.918,0 0.918,0 z"
         id="path278" />
    </g>
    <g
       transform="matrix(1.25,0,0,1.25,382.46175,514.58094)"
       id="g280"
       style="fill:#e63047;fill-rule:evenodd;stroke:none;stroke-width:1;stroke-linecap:butt;stroke-linejoin:miter;stroke-dasharray:none">
      <path
         d="M 0,0.1836 C 0,0.1836 0.551,0 0.551,0 C 0.551,0 2.205,1.2842 2.205,1.2842 C 2.205,1.2842 1.469,1.4678 1.469,1.4678 C 1.469,1.4678 0,0.1836 0,0.1836 z"
         id="path282" />
    </g>
    <g
       transform="matrix(1.25,0,0,1.25,382.46175,514.58094)"
       id="g284"
       style="fill:none;stroke:#e63047;stroke-width:0.28263101;stroke-linecap:butt;stroke-linejoin:miter;stroke-dasharray:none">
      <path
         d="M 0,0.1836 C 0,0.1836 0.551,0 0.551,0 C 0.551,0 2.205,1.2842 2.205,1.2842 C 2.205,1.2842 1.469,1.4678 1.469,1.4678 C 1.469,1.4678 0,0.1836 0,0.1836 z"
         id="path286" />
    </g>
    <g
       transform="matrix(1.25,0,0,1.25,386.36425,515.26943)"
       id="g288"
       style="fill:#e63047;fill-rule:evenodd;stroke:none;stroke-width:1;stroke-linecap:butt;stroke-linejoin:miter;stroke-dasharray:none">
      <path
         d="M 0.918,0 C 0.918,0 0.368,0.1836 0.368,0.1836 C 0.368,0.1836 0,1.6513 0,1.6513 C 0,1.6513 0.735,1.4677 0.735,1.4677 C 0.735,1.4677 0.918,0 0.918,0 z"
         id="path290" />
    </g>
    <g
       transform="matrix(1.25,0,0,1.25,386.36425,515.26943)"
       id="g292"
       style="fill:none;stroke:#e63047;stroke-width:0.28263101;stroke-linecap:butt;stroke-linejoin:miter;stroke-dasharray:none">
      <path
         d="M 0.918,0 C 0.918,0 0.368,0.1836 0.368,0.1836 C 0.368,0.1836 0,1.6513 0,1.6513 C 0,1.6513 0.735,1.4678 0.735,1.4678 C 0.735,1.4678 0.918,0 0.918,0 z"
         id="path294" />
    </g>
    <g
       transform="matrix(1.25,0,0,1.25,385.4455,513.66293)"
       id="g296"
       style="fill:#e63047;fill-rule:evenodd;stroke:none;stroke-width:1;stroke-linecap:butt;stroke-linejoin:miter;stroke-dasharray:none">
      <path
         d="M 0,0.1836 C 0,0.1836 0.552,0 0.552,0 C 0.552,0 2.205,1.1016 2.205,1.1016 C 2.205,1.1016 1.653,1.2852 1.653,1.2852 C 1.653,1.2852 0,0.1836 0,0.1836 z"
         id="path298" />
    </g>
    <g
       transform="matrix(1.25,0,0,1.25,385.4455,513.66293)"
       id="g300"
       style="fill:none;stroke:#e63047;stroke-width:0.28263101;stroke-linecap:butt;stroke-linejoin:miter;stroke-dasharray:none">
      <path
         d="M 0,0.1836 C 0,0.1836 0.552,0 0.552,0 C 0.552,0 2.205,1.1016 2.205,1.1016 C 2.205,1.1016 1.653,1.2852 1.653,1.2852 C 1.653,1.2852 0,0.1836 0,0.1836 z"
         id="path302" />
    </g>
    <g
       transform="matrix(1.25,0,0,1.25,389.1205,514.12194)"
       id="g304"
       style="fill:#e63047;fill-rule:evenodd;stroke:none;stroke-width:1;stroke-linecap:butt;stroke-linejoin:miter;stroke-dasharray:none">
      <path
         d="M 0.55,0 C 0.55,0 0,0.3672 0,0.3672 C 0,0.3672 0,1.835 0,1.835 C 0,1.835 0.55,1.4678 0.55,1.4678 C 0.55,1.4678 0.55,0 0.55,0 z"
         id="path306" />
    </g>
    <g
       transform="matrix(1.25,0,0,1.25,389.1205,514.12194)"
       id="g308"
       style="fill:none;stroke:#e63047;stroke-width:0.28263101;stroke-linecap:butt;stroke-linejoin:miter;stroke-dasharray:none">
      <path
         d="M 0.55,0 C 0.55,0 0,0.3672 0,0.3672 C 0,0.3672 0,1.835 0,1.835 C 0,1.835 0.55,1.4678 0.55,1.4678 C 0.55,1.4678 0.55,0 0.55,0 z"
         id="path310" />
    </g>
    <g
       transform="matrix(1.25,0,0,1.25,387.74175,512.51544)"
       id="g312"
       style="fill:#e63047;fill-rule:evenodd;stroke:none;stroke-width:1;stroke-linecap:butt;stroke-linejoin:miter;stroke-dasharray:none">
      <path
         d="M 0,0.3672 C 0,0.3672 0.368,0 0.368,0 C 0.368,0 2.204,1.1016 2.204,1.1016 C 2.204,1.1016 1.653,1.2852 1.653,1.2852 C 1.653,1.2852 0,0.3672 0,0.3672 z"
         id="path314" />
    </g>
    <g
       transform="matrix(1.25,0,0,1.25,387.74175,512.51544)"
       id="g316"
       style="fill:none;stroke:#e63047;stroke-width:0.28263101;stroke-linecap:butt;stroke-linejoin:miter;stroke-dasharray:none">
      <path
         d="M 0,0.3672 C 0,0.3672 0.368,0 0.368,0 C 0.368,0 2.204,1.1016 2.204,1.1016 C 2.204,1.1016 1.653,1.2852 1.653,1.2852 C 1.653,1.2852 0,0.3672 0,0.3672 z"
         id="path318" />
    </g>
    <g
       transform="matrix(1.25,0,0,1.25,391.41675,512.97443)"
       id="g320"
       style="fill:#e63047;fill-rule:evenodd;stroke:none;stroke-width:1;stroke-linecap:butt;stroke-linejoin:miter;stroke-dasharray:none">
      <path
         d="M 0.55,0 C 0.55,0 0,0.3672 0,0.3672 C 0,0.3672 0.182,1.836 0.182,1.836 C 0.182,1.836 0.55,1.4688 0.55,1.4688 C 0.55,1.4688 0.55,0 0.55,0 z"
         id="path322" />
    </g>
    <g
       transform="matrix(1.25,0,0,1.25,391.41675,512.97443)"
       id="g324"
       style="fill:none;stroke:#e63047;stroke-width:0.28263101;stroke-linecap:butt;stroke-linejoin:miter;stroke-dasharray:none">
      <path
         d="M 0.55,0 C 0.55,0 0,0.3672 0,0.3672 C 0,0.3672 0.182,1.836 0.182,1.836 C 0.182,1.836 0.55,1.4688 0.55,1.4688 C 0.55,1.4688 0.55,0 0.55,0 z"
         id="path326" />
    </g>
    <g
       transform="matrix(1.25,0,0,1.25,389.808,511.59756)"
       id="g328"
       style="fill:#e63047;fill-rule:evenodd;stroke:none;stroke-width:1;stroke-linecap:butt;stroke-linejoin:miter;stroke-dasharray:none">
      <path
         d="M 0,0.1836 C 0,0.1836 0.551,0 0.551,0 C 0.551,0 2.204,0.9179 2.204,0.9179 C 2.204,0.9179 1.837,1.1015 1.837,1.1015 C 1.837,1.1015 0,0.1836 0,0.1836 z"
         id="path330" />
    </g>
    <g
       transform="matrix(1.25,0,0,1.25,389.808,511.59756)"
       id="g332"
       style="fill:none;stroke:#e63047;stroke-width:0.28263101;stroke-linecap:butt;stroke-linejoin:miter;stroke-dasharray:none">
      <path
         d="M 0,0.1836 C 0,0.1836 0.551,0 0.551,0 C 0.551,0 2.204,0.9179 2.204,0.9179 C 2.204,0.9179 1.837,1.1015 1.837,1.1015 C 1.837,1.1015 0,0.1836 0,0.1836 z"
         id="path334" />
    </g>
    <g
       transform="matrix(1.25,0,0,1.25,393.48175,511.59756)"
       id="g336"
       style="fill:#e63047;fill-rule:evenodd;stroke:none;stroke-width:1;stroke-linecap:butt;stroke-linejoin:miter;stroke-dasharray:none">
      <path
         d="M 0.367,0 C 0.367,0 0,0.3671 0,0.3671 C 0,0.3671 0.551,1.6523 0.551,1.6523 C 0.551,1.6523 0.919,1.2851 0.919,1.2851 C 0.919,1.2851 0.367,0 0.367,0 z"
         id="path338" />
    </g>
    <g
       transform="matrix(1.25,0,0,1.25,393.48175,511.59756)"
       id="g340"
       style="fill:none;stroke:#e63047;stroke-width:0.28263101;stroke-linecap:butt;stroke-linejoin:miter;stroke-dasharray:none">
      <path
         d="M 0.367,0 C 0.367,0 0,0.3671 0,0.3671 C 0,0.3671 0.551,1.6523 0.551,1.6523 C 0.551,1.6523 0.919,1.2851 0.919,1.2851 C 0.919,1.2851 0.367,0 0.367,0 z"
         id="path342" />
    </g>
    <g
       transform="matrix(1.25,0,0,1.25,391.8755,510.22181)"
       id="g344"
       style="fill:#e63047;fill-rule:evenodd;stroke:none;stroke-width:1;stroke-linecap:butt;stroke-linejoin:miter;stroke-dasharray:none">
      <path
         d="M 0,0.3672 C 0,0.3672 0.367,0 0.367,0 C 0.367,0 2.204,0.7334 2.204,0.7334 C 2.204,0.7334 1.836,1.1006 1.836,1.1006 C 1.836,1.1006 0,0.3672 0,0.3672 z"
         id="path346" />
    </g>
    <g
       transform="matrix(1.25,0,0,1.25,391.8755,510.22181)"
       id="g348"
       style="fill:none;stroke:#e63047;stroke-width:0.28263101;stroke-linecap:butt;stroke-linejoin:miter;stroke-dasharray:none">
      <path
         d="M 0,0.3672 C 0,0.3672 0.367,0 0.367,0 C 0.367,0 2.204,0.7333 2.204,0.7333 C 2.204,0.7333 1.836,1.1006 1.836,1.1006 C 1.836,1.1006 0,0.3672 0,0.3672 z"
         id="path350" />
    </g>
    <g
       transform="matrix(1.25,0,0,1.25,395.31925,509.99231)"
       id="g352"
       style="fill:#e63047;fill-rule:evenodd;stroke:none;stroke-width:1;stroke-linecap:butt;stroke-linejoin:miter;stroke-dasharray:none">
      <path
         d="M 0.55,0 C 0.55,0 0,0.3662 0,0.3662 C 0,0.3662 0.55,1.6513 0.55,1.6513 C 0.55,1.6513 0.918,1.2842 0.918,1.2842 C 0.918,1.2842 0.55,0 0.55,0 z"
         id="path354" />
    </g>
    <g
       transform="matrix(1.25,0,0,1.25,395.31925,509.99231)"
       id="g356"
       style="fill:none;stroke:#e63047;stroke-width:0.28263101;stroke-linecap:butt;stroke-linejoin:miter;stroke-dasharray:none">
      <path
         d="M 0.55,0 C 0.55,0 0,0.3662 0,0.3662 C 0,0.3662 0.55,1.6513 0.55,1.6513 C 0.55,1.6513 0.918,1.2842 0.918,1.2842 C 0.918,1.2842 0.55,0 0.55,0 z"
         id="path358" />
    </g>
    <g
       transform="matrix(1.25,0,0,1.25,393.7105,508.61531)"
       id="g360"
       style="fill:#e63047;fill-rule:evenodd;stroke:none;stroke-width:1;stroke-linecap:butt;stroke-linejoin:miter;stroke-dasharray:none">
      <path
         d="M 0,0.3672 C 0,0.3672 0.368,0 0.368,0 C 0.368,0 1.103,0.3672 1.103,0.3672 C 1.103,0.3672 1.654,0.918 1.654,0.918 C 1.654,0.918 1.837,1.1016 1.837,1.1016 C 1.837,1.1016 0,0.3672 0,0.3672 z"
         id="path362" />
    </g>
    <g
       transform="matrix(1.25,0,0,1.25,393.7105,508.61531)"
       id="g364"
       style="fill:none;stroke:#e63047;stroke-width:0.28263101;stroke-linecap:butt;stroke-linejoin:miter;stroke-dasharray:none">
      <path
         d="M 0,0.3672 C 0,0.3672 0.368,0 0.368,0 C 0.368,0 1.103,0.3672 1.103,0.3672 C 1.103,0.3672 1.654,0.918 1.654,0.918 C 1.654,0.918 1.837,1.1016 1.837,1.1016 C 1.837,1.1016 0,0.3672 0,0.3672 z"
         id="path366" />
    </g>
    <g
       transform="matrix(1.25,0,0,1.25,395.08925,552.89706)"
       id="g368"
       style="fill:#e63047;fill-rule:evenodd;stroke:none;stroke-width:1;stroke-linecap:butt;stroke-linejoin:miter;stroke-dasharray:none">
      <path
         d="M 0,0.551 C 0,0.551 0.367,0.917 0.367,0.917 C 0.367,0.917 2.204,0.368 2.204,0.368 C 2.204,0.368 1.836,0 1.836,0 C 1.836,0 0,0.551 0,0.551 z"
         id="path370" />
    </g>
    <g
       transform="matrix(1.25,0,0,1.25,395.08925,552.89706)"
       id="g372"
       style="fill:none;stroke:#e63047;stroke-width:0.28263101;stroke-linecap:butt;stroke-linejoin:miter;stroke-dasharray:none">
      <path
         d="M 0,0.551 C 0,0.551 0.367,0.917 0.367,0.917 C 0.367,0.917 2.204,0.368 2.204,0.368 C 2.204,0.368 1.836,0 1.836,0 C 1.836,0 0,0.551 0,0.551 z"
         id="path374" />
    </g>
    <g
       transform="matrix(1.25,0,0,1.25,393.9405,553.12706)"
       id="g376"
       style="fill:#e63047;fill-rule:evenodd;stroke:none;stroke-width:1;stroke-linecap:butt;stroke-linejoin:miter;stroke-dasharray:none">
      <path
         d="M 0.368,2.019 C 0.368,2.019 0,1.651 0,1.651 C 0,1.651 0.552,0 0.552,0 C 0.552,0 0.919,0.367 0.919,0.367 C 0.919,0.367 0.368,2.019 0.368,2.019 z"
         id="path378" />
    </g>
    <g
       transform="matrix(1.25,0,0,1.25,393.9405,553.12706)"
       id="g380"
       style="fill:none;stroke:#e63047;stroke-width:0.28263101;stroke-linecap:butt;stroke-linejoin:miter;stroke-dasharray:none">
      <path
         d="M 0.368,2.019 C 0.368,2.019 0,1.651 0,1.651 C 0,1.651 0.552,0 0.552,0 C 0.552,0 0.919,0.367 0.919,0.367 C 0.919,0.367 0.368,2.019 0.368,2.019 z"
         id="path382" />
    </g>
    <g
       transform="matrix(1.25,0,0,1.25,393.023,551.52081)"
       id="g384"
       style="fill:#e63047;fill-rule:evenodd;stroke:none;stroke-width:1;stroke-linecap:butt;stroke-linejoin:miter;stroke-dasharray:none">
      <path
         d="M 0,0.551 C 0,0.551 0.55,0.734 0.55,0.734 C 0.55,0.734 2.387,0.183 2.387,0.183 C 2.387,0.183 2.02,0 2.02,0 C 2.02,0 0,0.551 0,0.551 z"
         id="path386" />
    </g>
    <g
       transform="matrix(1.25,0,0,1.25,393.023,551.52081)"
       id="g388"
       style="fill:none;stroke:#e63047;stroke-width:0.28263101;stroke-linecap:butt;stroke-linejoin:miter;stroke-dasharray:none">
      <path
         d="M 0,0.551 C 0,0.551 0.55,0.734 0.55,0.734 C 0.55,0.734 2.387,0.183 2.387,0.183 C 2.387,0.183 2.02,0 2.02,0 C 2.02,0 0,0.551 0,0.551 z"
         id="path390" />
    </g>
    <g
       transform="matrix(1.25,0,0,1.25,391.8755,551.74956)"
       id="g392"
       style="fill:#e63047;fill-rule:evenodd;stroke:none;stroke-width:1;stroke-linecap:butt;stroke-linejoin:miter;stroke-dasharray:none">
      <path
         d="M 0.55,2.02 C 0.55,2.02 0,1.652 0,1.652 C 0,1.652 0.55,0 0.55,0 C 0.55,0 0.918,0.368 0.918,0.368 C 0.918,0.368 0.55,2.02 0.55,2.02 z"
         id="path394" />
    </g>
    <g
       transform="matrix(1.25,0,0,1.25,391.8755,551.74956)"
       id="g396"
       style="fill:none;stroke:#e63047;stroke-width:0.28263101;stroke-linecap:butt;stroke-linejoin:miter;stroke-dasharray:none">
      <path
         d="M 0.55,2.02 C 0.55,2.02 0,1.652 0,1.652 C 0,1.652 0.55,0 0.55,0 C 0.55,0 0.918,0.368 0.918,0.368 C 0.918,0.368 0.55,2.02 0.55,2.02 z"
         id="path398" />
    </g>
    <g
       transform="matrix(1.25,0,0,1.25,390.72675,549.91456)"
       id="g400"
       style="fill:#e63047;fill-rule:evenodd;stroke:none;stroke-width:1;stroke-linecap:butt;stroke-linejoin:miter;stroke-dasharray:none">
      <path
         d="M 0,0.734 C 0,0.734 0.552,0.918 0.552,0.918 C 0.552,0.918 2.387,0.183 2.387,0.183 C 2.387,0.183 1.837,0 1.837,0 C 1.837,0 0,0.734 0,0.734 z"
         id="path402" />
    </g>
    <g
       transform="matrix(1.25,0,0,1.25,390.72675,549.91456)"
       id="g404"
       style="fill:none;stroke:#e63047;stroke-width:0.28263101;stroke-linecap:butt;stroke-linejoin:miter;stroke-dasharray:none">
      <path
         d="M 0,0.734 C 0,0.734 0.552,0.918 0.552,0.918 C 0.552,0.918 2.387,0.183 2.387,0.183 C 2.387,0.183 1.837,0 1.837,0 C 1.837,0 0,0.734 0,0.734 z"
         id="path406" />
    </g>
    <g
       transform="matrix(1.25,0,0,1.25,389.57925,550.37331)"
       id="g408"
       style="fill:#e63047;fill-rule:evenodd;stroke:none;stroke-width:1;stroke-linecap:butt;stroke-linejoin:miter;stroke-dasharray:none">
      <path
         d="M 0.551,2.019 C 0.551,2.019 0,1.836 0,1.836 C 0,1.836 0.367,0 0.367,0 C 0.367,0 0.918,0.367 0.918,0.367 C 0.918,0.367 0.551,2.019 0.551,2.019 z"
         id="path410" />
    </g>
    <g
       transform="matrix(1.25,0,0,1.25,389.57925,550.37331)"
       id="g412"
       style="fill:none;stroke:#e63047;stroke-width:0.28263101;stroke-linecap:butt;stroke-linejoin:miter;stroke-dasharray:none">
      <path
         d="M 0.551,2.019 C 0.551,2.019 0,1.836 0,1.836 C 0,1.836 0.367,0 0.367,0 C 0.367,0 0.918,0.367 0.918,0.367 C 0.918,0.367 0.551,2.019 0.551,2.019 z"
         id="path414" />
    </g>
    <g
       transform="matrix(1.25,0,0,1.25,387.97175,548.53706)"
       id="g416"
       style="fill:#e63047;fill-rule:evenodd;stroke:none;stroke-width:1;stroke-linecap:butt;stroke-linejoin:miter;stroke-dasharray:none">
      <path
         d="M 0,0.734 C 0,0.734 0.551,0.918 0.551,0.918 C 0.551,0.918 2.387,0.184 2.387,0.184 C 2.387,0.184 1.837,0 1.837,0 C 1.837,0 0,0.734 0,0.734 z"
         id="path418" />
    </g>
    <g
       transform="matrix(1.25,0,0,1.25,387.97175,548.53706)"
       id="g420"
       style="fill:none;stroke:#e63047;stroke-width:0.28263101;stroke-linecap:butt;stroke-linejoin:miter;stroke-dasharray:none">
      <path
         d="M 0,0.734 C 0,0.734 0.551,0.918 0.551,0.918 C 0.551,0.918 2.387,0.184 2.387,0.184 C 2.387,0.184 1.837,0 1.837,0 C 1.837,0 0,0.734 0,0.734 z"
         id="path422" />
    </g>
    <g
       transform="matrix(1.25,0,0,1.25,387.053,549.22581)"
       id="g424"
       style="fill:#e63047;fill-rule:evenodd;stroke:none;stroke-width:1;stroke-linecap:butt;stroke-linejoin:miter;stroke-dasharray:none">
      <path
         d="M 0.551,1.836 C 0.551,1.836 0,1.652 0,1.652 C 0,1.652 0.184,0 0.184,0 C 0.184,0 0.735,0.183 0.735,0.183 C 0.735,0.183 0.551,1.836 0.551,1.836 z"
         id="path426" />
    </g>
    <g
       transform="matrix(1.25,0,0,1.25,387.053,549.22581)"
       id="g428"
       style="fill:none;stroke:#e63047;stroke-width:0.28263101;stroke-linecap:butt;stroke-linejoin:miter;stroke-dasharray:none">
      <path
         d="M 0.551,1.836 C 0.551,1.836 0,1.652 0,1.652 C 0,1.652 0.184,0 0.184,0 C 0.184,0 0.735,0.183 0.735,0.183 C 0.735,0.183 0.551,1.836 0.551,1.836 z"
         id="path430" />
    </g>
    <g
       transform="matrix(1.25,0,0,1.25,385.218,547.16206)"
       id="g432"
       style="fill:#e63047;fill-rule:evenodd;stroke:none;stroke-width:1;stroke-linecap:butt;stroke-linejoin:miter;stroke-dasharray:none">
      <path
         d="M 0,1.1 C 0,1.1 0.734,1.284 0.734,1.284 C 0.734,1.284 2.387,0.183 2.387,0.183 C 2.387,0.183 1.652,0 1.652,0 C 1.652,0 0,1.1 0,1.1 z"
         id="path434" />
    </g>
    <g
       transform="matrix(1.25,0,0,1.25,385.218,547.16206)"
       id="g436"
       style="fill:none;stroke:#e63047;stroke-width:0.28263101;stroke-linecap:butt;stroke-linejoin:miter;stroke-dasharray:none">
      <path
         d="M 0,1.1 C 0,1.1 0.734,1.284 0.734,1.284 C 0.734,1.284 2.387,0.183 2.387,0.183 C 2.387,0.183 1.652,0 1.652,0 C 1.652,0 0,1.1 0,1.1 z"
         id="path438" />
    </g>
    <g
       transform="matrix(1.25,0,0,1.25,384.528,548.30956)"
       id="g440"
       style="fill:#e63047;fill-rule:evenodd;stroke:none;stroke-width:1;stroke-linecap:butt;stroke-linejoin:miter;stroke-dasharray:none">
      <path
         d="M 0.734,1.834 C 0.734,1.834 0.183,1.651 0.183,1.651 C 0.183,1.651 0,0 0,0 C 0,0 0.552,0.182 0.552,0.182 C 0.552,0.182 0.734,1.834 0.734,1.834 z"
         id="path442" />
    </g>
    <g
       transform="matrix(1.25,0,0,1.25,384.528,548.30956)"
       id="g444"
       style="fill:none;stroke:#e63047;stroke-width:0.28263101;stroke-linecap:butt;stroke-linejoin:miter;stroke-dasharray:none">
      <path
         d="M 0.734,1.834 C 0.734,1.834 0.183,1.651 0.183,1.651 C 0.183,1.651 0,0 0,0 C 0,0 0.552,0.182 0.552,0.182 C 0.552,0.182 0.734,1.834 0.734,1.834 z"
         id="path446" />
    </g>
    <g
       transform="matrix(1.25,0,0,1.25,382.00175,546.24331)"
       id="g448"
       style="fill:#e63047;fill-rule:evenodd;stroke:none;stroke-width:1;stroke-linecap:butt;stroke-linejoin:miter;stroke-dasharray:none">
      <path
         d="M 0,1.102 C 0,1.102 0.551,1.284 0.551,1.284 C 0.551,1.284 2.204,0.184 2.204,0.184 C 2.204,0.184 1.47,0 1.47,0 C 1.47,0 0,1.102 0,1.102 z"
         id="path450" />
    </g>
    <g
       transform="matrix(1.25,0,0,1.25,382.00175,546.24331)"
       id="g452"
       style="fill:none;stroke:#e63047;stroke-width:0.28263101;stroke-linecap:butt;stroke-linejoin:miter;stroke-dasharray:none">
      <path
         d="M 0,1.102 C 0,1.102 0.551,1.284 0.551,1.284 C 0.551,1.284 2.204,0.184 2.204,0.184 C 2.204,0.184 1.47,0 1.47,0 C 1.47,0 0,1.102 0,1.102 z"
         id="path454" />
    </g>
    <g
       transform="matrix(1.25,0,0,1.25,381.08425,547.39081)"
       id="g456"
       style="fill:#e63047;fill-rule:evenodd;stroke:none;stroke-width:1;stroke-linecap:butt;stroke-linejoin:miter;stroke-dasharray:none">
      <path
         d="M 1.102,1.835 C 1.102,1.835 0.367,1.835 0.367,1.835 C 0.367,1.835 0,0 0,0 C 0,0 0.551,0.184 0.551,0.184 C 0.551,0.184 1.102,1.835 1.102,1.835 z"
         id="path458" />
    </g>
    <g
       transform="matrix(1.25,0,0,1.25,381.08425,547.39081)"
       id="g460"
       style="fill:none;stroke:#e63047;stroke-width:0.28263101;stroke-linecap:butt;stroke-linejoin:miter;stroke-dasharray:none">
      <path
         d="M 1.102,1.835 C 1.102,1.835 0.367,1.835 0.367,1.835 C 0.367,1.835 0,0 0,0 C 0,0 0.551,0.184 0.551,0.184 C 0.551,0.184 1.102,1.835 1.102,1.835 z"
         id="path462" />
    </g>
    <g
       transform="matrix(1.25,0,0,1.25,378.788,545.55456)"
       id="g464"
       style="fill:#e63047;fill-rule:evenodd;stroke:none;stroke-width:1;stroke-linecap:butt;stroke-linejoin:miter;stroke-dasharray:none">
      <path
         d="M 0,1.286 C 0,1.286 0.735,1.286 0.735,1.286 C 0.735,1.286 1.837,0 1.837,0 C 1.837,0 1.286,0 1.286,0 C 1.286,0 0,1.286 0,1.286 z"
         id="path466" />
    </g>
    <g
       transform="matrix(1.25,0,0,1.25,378.788,545.55456)"
       id="g468"
       style="fill:none;stroke:#e63047;stroke-width:0.28263101;stroke-linecap:butt;stroke-linejoin:miter;stroke-dasharray:none">
      <path
         d="M 0,1.286 C 0,1.286 0.735,1.286 0.735,1.286 C 0.735,1.286 1.837,0 1.837,0 C 1.837,0 1.286,0 1.286,0 C 1.286,0 0,1.286 0,1.286 z"
         id="path470" />
    </g>
    <g
       transform="matrix(1.25,0,0,1.25,378.0995,547.16206)"
       id="g472"
       style="fill:#e63047;fill-rule:evenodd;stroke:none;stroke-width:1;stroke-linecap:butt;stroke-linejoin:miter;stroke-dasharray:none">
      <path
         d="M 1.4698,1.651 C 1.4698,1.651 0.7344,1.651 0.7344,1.651 C 0.7344,1.651 0,0 0,0 C 0,0 0.5508,0 0.5508,0 C 0.5508,0 1.4698,1.651 1.4698,1.651 z"
         id="path474" />
    </g>
    <g
       transform="matrix(1.25,0,0,1.25,378.0995,547.16206)"
       id="g476"
       style="fill:none;stroke:#e63047;stroke-width:0.28263101;stroke-linecap:butt;stroke-linejoin:miter;stroke-dasharray:none">
      <path
         d="M 1.4698,1.651 C 1.4698,1.651 0.7344,1.651 0.7344,1.651 C 0.7344,1.651 0,0 0,0 C 0,0 0.5508,0 0.5508,0 C 0.5508,0 1.4698,1.651 1.4698,1.651 z"
         id="path478" />
    </g>
    <g
       transform="matrix(1.25,0,0,1.25,375.80338,545.32581)"
       id="g480"
       style="fill:#e63047;fill-rule:evenodd;stroke:none;stroke-width:1;stroke-linecap:butt;stroke-linejoin:miter;stroke-dasharray:none">
      <path
         d="M 0,1.285 C 0,1.285 0.7353,1.285 0.7353,1.285 C 0.7353,1.285 1.8369,0 1.8369,0 C 1.8369,0 1.1025,0 1.1025,0 C 1.1025,0 0,1.285 0,1.285 z"
         id="path482" />
    </g>
    <g
       transform="matrix(1.25,0,0,1.25,375.80325,545.32581)"
       id="g484"
       style="fill:none;stroke:#e63047;stroke-width:0.28263101;stroke-linecap:butt;stroke-linejoin:miter;stroke-dasharray:none">
      <path
         d="M 0,1.285 C 0,1.285 0.7354,1.285 0.7354,1.285 C 0.7354,1.285 1.837,0 1.837,0 C 1.837,0 1.1026,0 1.1026,0 C 1.1026,0 0,1.285 0,1.285 z"
         id="path486" />
    </g>
    <g
       transform="matrix(1.25,0,0,1.25,374.88538,546.93206)"
       id="g488"
       style="fill:#e63047;fill-rule:evenodd;stroke:none;stroke-width:1;stroke-linecap:butt;stroke-linejoin:miter;stroke-dasharray:none">
      <path
         d="M 1.6533,1.651 C 1.6533,1.651 0.9189,1.651 0.9189,1.651 C 0.9189,1.651 0,0 0,0 C 0,0 0.7344,0 0.7344,0 C 0.7344,0 1.6533,1.651 1.6533,1.651 z"
         id="path490" />
    </g>
    <g
       transform="matrix(1.25,0,0,1.25,374.88538,546.93206)"
       id="g492"
       style="fill:none;stroke:#e63047;stroke-width:0.28263101;stroke-linecap:butt;stroke-linejoin:miter;stroke-dasharray:none">
      <path
         d="M 1.6533,1.651 C 1.6533,1.651 0.919,1.651 0.919,1.651 C 0.919,1.651 0,0 0,0 C 0,0 0.7343,0 0.7343,0 C 0.7343,0 1.6533,1.651 1.6533,1.651 z"
         id="path494" />
    </g>
    <g
       transform="matrix(1.25,0,0,1.25,372.58925,545.32581)"
       id="g496"
       style="fill:#e63047;fill-rule:evenodd;stroke:none;stroke-width:1;stroke-linecap:butt;stroke-linejoin:miter;stroke-dasharray:none">
      <path
         d="M 0,1.469 C 0,1.469 0.7353,1.285 0.7353,1.285 C 0.7353,1.285 1.4697,0 1.4697,0 C 1.4697,0 0.7353,0 0.7353,0 C 0.7353,0 0,1.469 0,1.469 z"
         id="path498" />
    </g>
    <g
       transform="matrix(1.25,0,0,1.25,372.58925,545.32581)"
       id="g500"
       style="fill:none;stroke:#e63047;stroke-width:0.28263101;stroke-linecap:butt;stroke-linejoin:miter;stroke-dasharray:none">
      <path
         d="M 0,1.469 C 0,1.469 0.7353,1.285 0.7353,1.285 C 0.7353,1.285 1.4697,0 1.4697,0 C 1.4697,0 0.7353,0 0.7353,0 C 0.7353,0 0,1.469 0,1.469 z"
         id="path502" />
    </g>
    <g
       transform="matrix(1.25,0,0,1.25,371.67125,546.93206)"
       id="g504"
       style="fill:#e63047;fill-rule:evenodd;stroke:none;stroke-width:1;stroke-linecap:butt;stroke-linejoin:miter;stroke-dasharray:none">
      <path
         d="M 1.8369,1.468 C 1.8369,1.468 1.2852,1.651 1.2852,1.651 C 1.2852,1.651 0,0.184 0,0.184 C 0,0.184 0.7344,0 0.7344,0 C 0.7344,0 1.8369,1.468 1.8369,1.468 z"
         id="path506" />
    </g>
    <g
       transform="matrix(1.25,0,0,1.25,371.67125,546.93206)"
       id="g508"
       style="fill:none;stroke:#e63047;stroke-width:0.28263101;stroke-linecap:butt;stroke-linejoin:miter;stroke-dasharray:none">
      <path
         d="M 1.8369,1.468 C 1.8369,1.468 1.2852,1.651 1.2852,1.651 C 1.2852,1.651 0,0.184 0,0.184 C 0,0.184 0.7344,0 0.7344,0 C 0.7344,0 1.8369,1.468 1.8369,1.468 z"
         id="path510" />
    </g>
    <g
       transform="matrix(1.25,0,0,1.25,368.91612,545.55456)"
       id="g512"
       style="fill:#e63047;fill-rule:evenodd;stroke:none;stroke-width:1;stroke-linecap:butt;stroke-linejoin:miter;stroke-dasharray:none">
      <path
         d="M 0,1.653 C 0,1.653 0.7354,1.469 0.7354,1.469 C 0.7354,1.469 1.2861,0 1.2861,0 C 1.2861,0 0.7354,0.184 0.7354,0.184 C 0.7354,0.184 0,1.653 0,1.653 z"
         id="path514" />
    </g>
    <g
       transform="matrix(1.25,0,0,1.25,368.91612,545.55456)"
       id="g516"
       style="fill:none;stroke:#e63047;stroke-width:0.28263101;stroke-linecap:butt;stroke-linejoin:miter;stroke-dasharray:none">
      <path
         d="M 0,1.653 C 0,1.653 0.7354,1.469 0.7354,1.469 C 0.7354,1.469 1.2861,0 1.2861,0 C 1.2861,0 0.7354,0.184 0.7354,0.184 C 0.7354,0.184 0,1.653 0,1.653 z"
         id="path518" />
    </g>
    <g
       transform="matrix(1.25,0,0,1.25,368.22763,547.62081)"
       id="g520"
       style="fill:#e63047;fill-rule:evenodd;stroke:none;stroke-width:1;stroke-linecap:butt;stroke-linejoin:miter;stroke-dasharray:none">
      <path
         d="M 1.8369,1.284 C 1.8369,1.284 1.2862,1.467 1.2862,1.467 C 1.2862,1.467 0,0 0,0 C 0,0 0.5508,0 0.5508,0 C 0.5508,0 1.8369,1.284 1.8369,1.284 z"
         id="path522" />
    </g>
    <g
       transform="matrix(1.25,0,0,1.25,368.22763,547.62081)"
       id="g524"
       style="fill:none;stroke:#e63047;stroke-width:0.28263101;stroke-linecap:butt;stroke-linejoin:miter;stroke-dasharray:none">
      <path
         d="M 1.8369,1.284 C 1.8369,1.284 1.2862,1.467 1.2862,1.467 C 1.2862,1.467 0,0 0,0 C 0,0 0.5508,0 0.5508,0 C 0.5508,0 1.8369,1.284 1.8369,1.284 z"
         id="path526" />
    </g>
    <g
       transform="matrix(1.25,0,0,1.25,365.9315,546.24331)"
       id="g528"
       style="fill:#e63047;fill-rule:evenodd;stroke:none;stroke-width:1;stroke-linecap:butt;stroke-linejoin:miter;stroke-dasharray:none">
      <path
         d="M 0,1.653 C 0,1.653 0.7344,1.469 0.7344,1.469 C 0.7344,1.469 0.918,0 0.918,0 C 0.918,0 0.1836,0.184 0.1836,0.184 C 0.1836,0.184 0,1.653 0,1.653 z"
         id="path530" />
    </g>
    <g
       transform="matrix(1.25,0,0,1.25,365.9315,546.24331)"
       id="g532"
       style="fill:none;stroke:#e63047;stroke-width:0.28263101;stroke-linecap:butt;stroke-linejoin:miter;stroke-dasharray:none">
      <path
         d="M 0,1.653 C 0,1.653 0.7344,1.469 0.7344,1.469 C 0.7344,1.469 0.918,0 0.918,0 C 0.918,0 0.1836,0.184 0.1836,0.184 C 0.1836,0.184 0,1.653 0,1.653 z"
         id="path534" />
    </g>
    <g
       transform="matrix(1.25,0,0,1.25,365.0135,548.30956)"
       id="g536"
       style="fill:#e63047;fill-rule:evenodd;stroke:none;stroke-width:1;stroke-linecap:butt;stroke-linejoin:miter;stroke-dasharray:none">
      <path
         d="M 2.2041,1.1 C 2.2041,1.1 1.6524,1.284 1.6524,1.284 C 1.6524,1.284 0,0.182 0,0.182 C 0,0.182 0.7344,0 0.7344,0 C 0.7344,0 2.2041,1.1 2.2041,1.1 z"
         id="path538" />
    </g>
    <g
       transform="matrix(1.25,0,0,1.25,365.0135,548.30956)"
       id="g540"
       style="fill:none;stroke:#e63047;stroke-width:0.28263101;stroke-linecap:butt;stroke-linejoin:miter;stroke-dasharray:none">
      <path
         d="M 2.2041,1.1 C 2.2041,1.1 1.6524,1.284 1.6524,1.284 C 1.6524,1.284 0,0.182 0,0.182 C 0,0.182 0.7344,0 0.7344,0 C 0.7344,0 2.2041,1.1 2.2041,1.1 z"
         id="path542" />
    </g>
    <g
       transform="matrix(1.25,0,0,1.25,362.71738,547.16206)"
       id="g544"
       style="fill:#e63047;fill-rule:evenodd;stroke:none;stroke-width:1;stroke-linecap:butt;stroke-linejoin:miter;stroke-dasharray:none">
      <path
         d="M 0,1.651 C 0,1.651 0.5508,1.467 0.5508,1.467 C 0.5508,1.467 0.918,0 0.918,0 C 0.918,0 0.1836,0.183 0.1836,0.183 C 0.1836,0.183 0,1.651 0,1.651 z"
         id="path546" />
    </g>
    <g
       transform="matrix(1.25,0,0,1.25,362.71738,547.16206)"
       id="g548"
       style="fill:none;stroke:#e63047;stroke-width:0.28263101;stroke-linecap:butt;stroke-linejoin:miter;stroke-dasharray:none">
      <path
         d="M 0,1.651 C 0,1.651 0.5508,1.467 0.5508,1.467 C 0.5508,1.467 0.918,0 0.918,0 C 0.918,0 0.1836,0.183 0.1836,0.183 C 0.1836,0.183 0,1.651 0,1.651 z"
         id="path550" />
    </g>
    <g
       transform="matrix(1.25,0,0,1.25,362.02887,549.22581)"
       id="g552"
       style="fill:#e63047;fill-rule:evenodd;stroke:none;stroke-width:1;stroke-linecap:butt;stroke-linejoin:miter;stroke-dasharray:none">
      <path
         d="M 2.2041,1.101 C 2.2041,1.101 1.6534,1.469 1.6534,1.469 C 1.6534,1.469 0,0.367 0,0.367 C 0,0.367 0.5508,0 0.5508,0 C 0.5508,0 2.2041,1.101 2.2041,1.101 z"
         id="path554" />
    </g>
    <g
       transform="matrix(1.25,0,0,1.25,362.02887,549.22581)"
       id="g556"
       style="fill:none;stroke:#e63047;stroke-width:0.28263101;stroke-linecap:butt;stroke-linejoin:miter;stroke-dasharray:none">
      <path
         d="M 2.2041,1.101 C 2.2041,1.101 1.6534,1.469 1.6534,1.469 C 1.6534,1.469 0,0.367 0,0.367 C 0,0.367 0.5508,0 0.5508,0 C 0.5508,0 2.2041,1.101 2.2041,1.101 z"
         id="path558" />
    </g>
    <g
       transform="matrix(1.25,0,0,1.25,360.42125,548.30956)"
       id="g560"
       style="fill:#e63047;fill-rule:evenodd;stroke:none;stroke-width:1;stroke-linecap:butt;stroke-linejoin:miter;stroke-dasharray:none">
      <path
         d="M 0,1.651 C 0,1.651 0.5518,1.284 0.5518,1.284 C 0.5518,1.284 0.5518,0 0.5518,0 C 0.5518,0 0,0.182 0,0.182 C 0,0.182 0,1.651 0,1.651 z"
         id="path562" />
    </g>
    <g
       transform="matrix(1.25,0,0,1.25,360.42125,548.30956)"
       id="g564"
       style="fill:none;stroke:#e63047;stroke-width:0.28263101;stroke-linecap:butt;stroke-linejoin:miter;stroke-dasharray:none">
      <path
         d="M 0,1.651 C 0,1.651 0.5518,1.284 0.5518,1.284 C 0.5518,1.284 0.5518,0 0.5518,0 C 0.5518,0 0,0.182 0,0.182 C 0,0.182 0,1.651 0,1.651 z"
         id="path566" />
    </g>
    <g
       transform="matrix(1.25,0,0,1.25,359.73275,550.37331)"
       id="g568"
       style="fill:#e63047;fill-rule:evenodd;stroke:none;stroke-width:1;stroke-linecap:butt;stroke-linejoin:miter;stroke-dasharray:none">
      <path
         d="M 2.2041,1.101 C 2.2041,1.101 1.8369,1.285 1.8369,1.285 C 1.8369,1.285 0,0.183 0,0.183 C 0,0.183 0.5508,0 0.5508,0 C 0.5508,0 2.2041,1.101 2.2041,1.101 z"
         id="path570" />
    </g>
    <g
       transform="matrix(1.25,0,0,1.25,359.73275,550.37331)"
       id="g572"
       style="fill:none;stroke:#e63047;stroke-width:0.28263101;stroke-linecap:butt;stroke-linejoin:miter;stroke-dasharray:none">
      <path
         d="M 2.2041,1.101 C 2.2041,1.101 1.8369,1.285 1.8369,1.285 C 1.8369,1.285 0,0.183 0,0.183 C 0,0.183 0.5508,0 0.5508,0 C 0.5508,0 2.2041,1.101 2.2041,1.101 z"
         id="path574" />
    </g>
    <g
       transform="matrix(1.25,0,0,1.25,358.12637,549.45456)"
       id="g576"
       style="fill:#e63047;fill-rule:evenodd;stroke:none;stroke-width:1;stroke-linecap:butt;stroke-linejoin:miter;stroke-dasharray:none">
      <path
         d="M 0,1.653 C 0,1.653 0.5508,1.469 0.5508,1.469 C 0.5508,1.469 0.3672,0 0.3672,0 C 0.3672,0 0,0.184 0,0.184 C 0,0.184 0,1.653 0,1.653 z"
         id="path578" />
    </g>
    <g
       transform="matrix(1.25,0,0,1.25,358.12637,549.45456)"
       id="g580"
       style="fill:none;stroke:#e63047;stroke-width:0.28263101;stroke-linecap:butt;stroke-linejoin:miter;stroke-dasharray:none">
      <path
         d="M 0,1.653 C 0,1.653 0.5508,1.469 0.5508,1.469 C 0.5508,1.469 0.3672,0 0.3672,0 C 0.3672,0 0,0.184 0,0.184 C 0,0.184 0,1.653 0,1.653 z"
         id="path582" />
    </g>
    <g
       transform="matrix(1.25,0,0,1.25,357.66738,551.52081)"
       id="g584"
       style="fill:#e63047;fill-rule:evenodd;stroke:none;stroke-width:1;stroke-linecap:butt;stroke-linejoin:miter;stroke-dasharray:none">
      <path
         d="M 2.2031,0.918 C 2.2031,0.918 1.6523,1.285 1.6523,1.285 C 1.6523,1.285 0,0.367 0,0.367 C 0,0.367 0.3672,0 0.3672,0 C 0.3672,0 2.2031,0.918 2.2031,0.918 z"
         id="path586" />
    </g>
    <g
       transform="matrix(1.25,0,0,1.25,357.66738,551.52081)"
       id="g588"
       style="fill:none;stroke:#e63047;stroke-width:0.28263101;stroke-linecap:butt;stroke-linejoin:miter;stroke-dasharray:none">
      <path
         d="M 2.2031,0.918 C 2.2031,0.918 1.6523,1.285 1.6523,1.285 C 1.6523,1.285 0,0.367 0,0.367 C 0,0.367 0.3672,0 0.3672,0 C 0.3672,0 2.2031,0.918 2.2031,0.918 z"
         id="path590" />
    </g>
    <g
       transform="matrix(1.25,0,0,1.25,355.60075,550.83206)"
       id="g592"
       style="fill:#e63047;fill-rule:evenodd;stroke:none;stroke-width:1;stroke-linecap:butt;stroke-linejoin:miter;stroke-dasharray:none">
      <path
         d="M 0.5507,1.652 C 0.5507,1.652 0.9179,1.469 0.9179,1.469 C 0.9179,1.469 0.3672,0 0.3672,0 C 0.3672,0 0,0.367 0,0.367 C 0,0.367 0.5507,1.652 0.5507,1.652 z"
         id="path594" />
    </g>
    <g
       transform="matrix(1.25,0,0,1.25,355.60075,550.83206)"
       id="g596"
       style="fill:none;stroke:#e63047;stroke-width:0.28263101;stroke-linecap:butt;stroke-linejoin:miter;stroke-dasharray:none">
      <path
         d="M 0.5507,1.652 C 0.5507,1.652 0.9179,1.469 0.9179,1.469 C 0.9179,1.469 0.3672,0 0.3672,0 C 0.3672,0 0,0.367 0,0.367 C 0,0.367 0.5507,1.652 0.5507,1.652 z"
         id="path598" />
    </g>
    <g
       transform="matrix(1.25,0,0,1.25,355.60075,553.12706)"
       id="g600"
       style="fill:#e63047;fill-rule:evenodd;stroke:none;stroke-width:1;stroke-linecap:butt;stroke-linejoin:miter;stroke-dasharray:none">
      <path
         d="M 2.2041,0.55 C 2.2041,0.55 1.8359,0.918 1.8359,0.918 C 1.8359,0.918 0,0.184 0,0.184 C 0,0.184 0.3672,0 0.3672,0 C 0.3672,0 2.2041,0.55 2.2041,0.55 z"
         id="path602" />
    </g>
    <g
       transform="matrix(1.25,0,0,1.25,355.60075,553.12706)"
       id="g604"
       style="fill:none;stroke:#e63047;stroke-width:0.28263101;stroke-linecap:butt;stroke-linejoin:miter;stroke-dasharray:none">
      <path
         d="M 2.2041,0.55 C 2.2041,0.55 1.8359,0.918 1.8359,0.918 C 1.8359,0.918 0,0.184 0,0.184 C 0,0.184 0.3672,0 0.3672,0 C 0.3672,0 2.2041,0.55 2.2041,0.55 z"
         id="path606" />
    </g>
    <g
       transform="matrix(1.25,0,0,1.25,353.7635,552.43831)"
       id="g608"
       style="fill:#e63047;fill-rule:evenodd;stroke:none;stroke-width:1;stroke-linecap:butt;stroke-linejoin:miter;stroke-dasharray:none">
      <path
         d="M 0.3672,1.652 C 0.3672,1.652 0.919,1.284 0.919,1.284 C 0.919,1.284 0.3672,0 0.3672,0 C 0.3672,0 0,0.367 0,0.367 C 0,0.367 0.3672,1.652 0.3672,1.652 z"
         id="path610" />
    </g>
    <g
       transform="matrix(1.25,0,0,1.25,353.7635,552.43831)"
       id="g612"
       style="fill:none;stroke:#e63047;stroke-width:0.28263101;stroke-linecap:butt;stroke-linejoin:miter;stroke-dasharray:none">
      <path
         d="M 0.3672,1.652 C 0.3672,1.652 0.919,1.284 0.919,1.284 C 0.919,1.284 0.3672,0 0.3672,0 C 0.3672,0 0,0.367 0,0.367 C 0,0.367 0.3672,1.652 0.3672,1.652 z"
         id="path614" />
    </g>
    <g
       transform="matrix(1.25,0,0,1.25,354.2225,554.50331)"
       id="g616"
       style="fill:#e63047;fill-rule:evenodd;stroke:none;stroke-width:1;stroke-linecap:butt;stroke-linejoin:miter;stroke-dasharray:none">
      <path
         d="M 1.8369,0.734 C 1.8369,0.734 1.4698,1.101 1.4698,1.101 C 1.4698,1.101 0.7354,0.734 0.7354,0.734 C 0.7354,0.734 0.1836,0.367 0.1836,0.367 C 0.1836,0.367 0,0 0,0 C 0,0 1.8369,0.734 1.8369,0.734 z"
         id="path618" />
    </g>
    <g
       transform="matrix(1.25,0,0,1.25,354.2225,554.50331)"
       id="g620"
       style="fill:none;stroke:#e63047;stroke-width:0.28263101;stroke-linecap:butt;stroke-linejoin:miter;stroke-dasharray:none">
      <path
         d="M 1.8369,0.734 C 1.8369,0.734 1.4698,1.101 1.4698,1.101 C 1.4698,1.101 0.7354,0.734 0.7354,0.734 C 0.7354,0.734 0.1836,0.367 0.1836,0.367 C 0.1836,0.367 0,0 0,0 C 0,0 1.8369,0.734 1.8369,0.734 z"
         id="path622" />
    </g>
    <g
       transform="matrix(1.25,0,0,1.25,344.80975,501.27281)"
       id="g624"
       style="fill:none;stroke:#006f61;stroke-width:1.09878004;stroke-linecap:butt;stroke-linejoin:miter;stroke-dasharray:none">
      <path
         d="M 24.2441,0 C 10.8369,0 0,11.1973 0,24.7793 C 0,38.5454 10.8369,49.5594 24.2441,49.5594 C 37.6526,49.5594 48.4886,38.5454 48.4886,24.7793 C 48.4886,11.1973 37.6526,0 24.2441,0 z"
         id="path626" />
    </g>
    <g
       transform="matrix(1.25,0,0,1.25,364.784,471.44618)"
       id="g628"
       style="fill:#bcccd3;fill-rule:evenodd;stroke:none;stroke-width:1;stroke-linecap:butt;stroke-linejoin:miter;stroke-dasharray:none">
      <path
         d="M 8.2647,48.6406 C 7.3467,48.0898 2.0206,42.584 0,40.5644 C 0.3672,36.3427 7.8975,0 8.2647,0 C 8.4483,0 15.9782,36.3427 16.3472,40.5644 C 14.5102,42.584 9,48.0898 8.2647,48.6406 z"
         id="path630" />
    </g>
    <g
       transform="matrix(1.25,0,0,1.25,364.784,471.44618)"
       id="g632"
       style="fill:#006f61;fill-rule:evenodd;stroke:none;stroke-width:1;stroke-linecap:butt;stroke-linejoin:miter;stroke-dasharray:none">
      <path
         d="M 8.2647,48.6406 C 7.3467,48.0898 2.0206,42.584 0,40.5644 C 0.3672,36.3427 7.8975,0 8.2647,0 C 8.2647,0 8.2647,48.6406 8.2647,48.6406 z"
         id="path634" />
    </g>
    <g
       transform="matrix(1.25,0,0,1.25,364.784,532.24694)"
       id="g636"
       style="fill:#bcccd3;fill-rule:evenodd;stroke:none;stroke-width:1;stroke-linecap:butt;stroke-linejoin:miter;stroke-dasharray:none">
      <path
         d="M 8.2647,0 C 7.3467,0.7344 2.0206,6.0581 0,8.0761 C 0.3672,12.2991 7.8975,48.6411 8.2647,48.6411 C 8.4483,48.8251 15.9782,12.2991 16.3472,8.0761 C 14.5102,6.0581 9,0.7344 8.2647,0 z"
         id="path638" />
    </g>
    <g
       transform="matrix(1.25,0,0,1.25,375.11488,532.24694)"
       id="g640"
       style="fill:#006f61;fill-rule:evenodd;stroke:none;stroke-width:1;stroke-linecap:butt;stroke-linejoin:miter;stroke-dasharray:none">
      <path
         d="M 0,0 C 0.7353,0.7344 6.2455,6.0581 8.0825,8.0761 C 7.7135,12.2991 0.1836,48.6411 0,48.6411 C 0,48.6411 0,0 0,0 z"
         id="path642" />
    </g>
    <g
       transform="matrix(1.25,0,0,1.25,287.184,521.92219)"
       id="g644"
       style="fill:#bcccd3;fill-rule:evenodd;stroke:none;stroke-width:1;stroke-linecap:butt;stroke-linejoin:miter;stroke-dasharray:none">
      <path
         d="M 70.3447,8.2598 C 69.6103,8.9942 64.2841,14.6849 62.2636,16.5209 C 58.2226,16.1529 0.1836,8.4444 0.1836,8.2598 C 0,7.8936 58.2226,0.3672 62.2636,0 C 64.2841,1.836 69.6103,7.5264 70.3447,8.2598 z"
         id="path646" />
    </g>
    <g
       transform="matrix(1.25,0,0,1.25,287.4135,532.24694)"
       id="g648"
       style="fill:#006f61;fill-rule:evenodd;stroke:none;stroke-width:1;stroke-linecap:butt;stroke-linejoin:miter;stroke-dasharray:none">
      <path
         d="M 70.1611,0 C 69.4267,0.7344 64.1005,6.4251 62.08,8.2611 C 58.039,7.8931 0,0.1846 0,0 C 0,0 70.1611,0 70.1611,0 z"
         id="path650" />
    </g>
    <g
       transform="matrix(1.25,0,0,1.25,375.11488,521.92219)"
       id="g652"
       style="fill:#bcccd3;fill-rule:evenodd;stroke:none;stroke-width:1;stroke-linecap:butt;stroke-linejoin:miter;stroke-dasharray:none">
      <path
         d="M 0,8.2598 C 0.5508,8.9942 5.8775,14.6849 7.8975,16.5209 C 11.9385,16.1529 70.3445,8.4444 70.3445,8.2598 C 70.5285,7.8936 11.9385,0.3672 7.8975,0 C 5.8775,1.836 0.5508,7.5264 0,8.2598 z"
         id="path654" />
    </g>
    <g
       transform="matrix(1.25,0,0,1.25,375.11488,521.92219)"
       id="g656"
       style="fill:#006f61;fill-rule:evenodd;stroke:none;stroke-width:1;stroke-linecap:butt;stroke-linejoin:miter;stroke-dasharray:none">
      <path
         d="M 0,8.2598 C 0.5508,7.5264 5.8775,1.836 7.8975,0 C 11.9385,0.3672 70.3445,7.8936 70.3445,8.0772 C 70.3445,8.0772 0,8.2598 0,8.2598 z"
         id="path658" />
    </g>
    <g
       transform="matrix(1.25,0,0,1.25,445.82675,616.91081)"
       id="g660"
       style="fill:#004565;fill-rule:evenodd;stroke:none;stroke-width:1;stroke-linecap:butt;stroke-linejoin:miter;stroke-dasharray:none">
      <path
         d="M 4.224,1.101 C 4.224,1.101 2.571,1.101 2.571,1.101 C 2.571,1.101 2.571,5.506 2.571,5.506 C 2.571,5.506 1.47,5.506 1.47,5.506 C 1.47,5.506 1.47,1.101 1.47,1.101 C 1.47,1.101 0,1.101 0,1.101 C 0,1.101 0,0 0,0 C 0,0 4.224,0 4.224,0 C 4.224,0 4.224,1.101 4.224,1.101 z M 11.388,5.506 C 11.388,5.506 10.47,5.506 10.47,5.506 C 10.47,5.506 10.47,1.101 10.47,1.101 C 10.47,1.101 10.286,1.101 10.286,1.101 C 10.286,1.101 8.816,5.506 8.816,5.506 C 8.816,5.506 7.715,5.506 7.715,5.506 C 7.715,5.506 6.245,1.101 6.245,1.101 C 6.245,1.101 6.245,5.506 6.245,5.506 C 6.245,5.506 5.142,5.506 5.142,5.506 C 5.142,5.506 5.142,0 5.142,0 C 5.142,0 6.979,0 6.979,0 C 6.979,0 8.265,3.671 8.265,3.671 C 8.265,3.671 9.551,0 9.551,0 C 9.551,0 11.388,0 11.388,0 C 11.388,0 11.388,5.506 11.388,5.506 z"
         id="path662" />
    </g>
    <g
       transform="matrix(1.25,0,0,1.25,276.85313,432.21156)"
       id="g664"
       style="fill:#ffffff;fill-rule:evenodd;stroke:none;stroke-width:1;stroke-linecap:butt;stroke-linejoin:miter;stroke-dasharray:none">
      <path
         d="M 78.6094,160.241 C 121.772,160.241 157.035,124.264 157.035,80.0283 C 157.035,35.7929 121.772,0 78.6094,0 C 35.2637,0 0,35.7929 0,80.0283 C 0,124.264 35.2637,160.241 78.6094,160.241 z M 78.6094,152.714 C 117.731,152.714 149.689,120.226 149.689,80.0283 C 149.689,39.831 117.731,7.3418 78.6094,7.3418 C 39.3047,7.3418 7.3467,39.831 7.3467,80.0283 C 7.3467,120.226 39.3047,152.714 78.6094,152.714 z"
         id="path666" />
    </g>
    <g
       transform="matrix(1.25,0,0,1.25,276.85313,432.21156)"
       id="g668"
       style="fill:none;stroke:#bcccd3;stroke-width:4.93650007;stroke-linecap:butt;stroke-linejoin:miter;stroke-dasharray:none">
      <path
         d="M 78.6094,160.241 C 121.772,160.241 157.035,124.264 157.035,80.0283 C 157.035,35.7929 121.772,0 78.6094,0 C 35.2637,0 0,35.7929 0,80.0283 C 0,124.264 35.2637,160.241 78.6094,160.241 z M 78.6094,152.714 C 117.731,152.714 149.689,120.226 149.689,80.0283 C 149.689,39.831 117.731,7.3418 78.6094,7.3418 C 39.3047,7.3418 7.3467,39.831 7.3467,80.0283 C 7.3467,120.226 39.3047,152.714 78.6094,152.714 z"
         id="path670" />
    </g>
  </g>
</svg>
