<svg width="512" height="512" viewBox="0 0 512 512" xmlns="http://www.w3.org/2000/svg"><title>epl</title><g fill="none" fill-rule="evenodd"><path d="M201.396 79.28l-1.16-9.084-10.263 10.25L180.776 69l-9.186 11.446-10.26-10.25-1.167 9.083s-5.315-5.442-6.894-7.392c2.548 5.767 5.514 14.156 6.726 20.11 6.268-1.984 14.094-2.553 20.78-2.553 6.694 0 14.523.568 20.792 2.554 1.21-5.955 4.173-14.344 6.723-20.112-1.575 1.95-6.894 7.39-6.894 7.39m-37.62 8.933l.18-6.492 6.35 5.38c-2.46.27-4.7.674-6.53 1.113m17-1.623c-1.94 0-3.82.05-5.62.153l5.62-6.48 5.64 6.48c-1.806-.102-3.69-.153-5.64-.153m10.482.512l6.348-5.382.18 6.493c-1.828-.438-4.065-.843-6.528-1.11" id="Shape" fill="#00235D"/><path d="M345.82 310.124c-1.296-1.696-4.29-3.365-6.076-8.91-3.04-9.443-2.56-16.4-3.917-23.752-.797-4.37-2.617-5.212-4.43-9.99-.827-2.118-1.617-13.488-1.42-21.197.18-6.55.186-19.31-4.228-27.904 13.627-3.576 21.882-12.106 21.392-21.44-.772-14.488-19.893-18.435-39.612-17.896-5.913.16-27.537 1.174-26.918-6.813.254-3.47 5.744-5.93 8.047-6.062 1.925 1.458 4.92 3.804 9.86 2.948 10.447-1.806 11.31-12.885 22.136-13.774-4.35-3.586-16.408-5.02-22.968-.884 0-1.27.462-2.445.987-3.278-8.765 1.204-10.577 6.437-11.762 8.807-9.452 3.156-13.476 8.17-13.29 13.277.48 13.668 24.877 13.064 33.458 13.037 8.954-.036 28.59 1.08 30.35 10.406 1.19 6.292-7.32 12.044-16.612 12.543-12.932-14.477-34.455-7.52-54.585-21.825-23.302-16.544-35.507-17.94-44.196-31.457 2.1.898 6.524 1.5 9.158 0-4.57-3.45-6.506-6.902-8.485-11.983-2.412-6.14-4.202-8.835-7.585-11.842 2.034-.082 4.198.852 5.544 1.36-.022-7.367-5.178-12.535-7.222-15.336-1.75-2.415-3.51-6.046-.942-9.566-2.685-2.946-5.18-1.18-6.244-.27-.905.792-1.643.647-1.1-1.144.55-1.89 2.43-4.486 4.707-4.383 2.038.09 3.065 1.84 3.487 2.48.45-4.323-1.168-7.466-4.05-8.02-1.71-.324-3.31.21-4.532 1.03-1.022-1.677-1.878-2.908-4.91-3.948-1.278-.435-5.77-1.446-9.253-1.822-2.44 1.893-5.075 4.713-7.247 8.124-.24-1.624.237-5.22 1.244-8.566-8.696-.296-21.858.528-28.025 4.556 1.237 1.17 1.964 2.74 2.067 3.72.127 1.344-.383 1.12-.914.577-.567-.553-2.237-2.588-4.918-2.787-5.63-.424-6.508 6.472-5.24 8.735.53-1.662 1.664-3.02 3.44-3.108 2.774-.126 4.73 3.346 5.056 5.163.254 1.308-.404 1.408-1.277.603-1.148-1.075-2.315-1.443-3.78-1.178-5.247.94-7.172 10.005-8.98 17.88-1.713 7.504-5.776 12.673-10.725 14.76 1.09 1.544 5.722 3.43 10.565 2.934-10.594 9.26-8.78 25.578-7.37 30.363.545-1.93 3.344-9.42 8.378-11.654-6.875 13.955-2.132 30.687.597 35.155.44-1.955 1.558-4.185 2.768-5.472 2.62 4.213 2.656 16.206-2.97 20.978 3.393.156 8.43-1.033 11.4-7.094 3.343 12.86-2.857 25.454-7.073 29.653 1.208.652 8.804 1.904 13.2-3.707 1.178 20.425 6.275 26.555 7.864 29.727 1.587 3.183 1.703 5.405 1.83 8.096.91 19.6 7.59 27.458 5.904 34.002-.56 2.17-2.878 2.294-4.158 2.432-2.97.32-3.78-.176-6.93.8-5.97 1.84-7.266 9.064-7.03 11.06.15 1.27.797 1.65 1.786 1.65h27.552c2.012 0 2.667-1.09 3.304-3.604-6.152-6.512-10.05-15.276-10.05-24.93 0-13.537 7.408-25.528 18.395-31.797 0 0 .673 1.798 4.678 1.66 1.652-.054 1.798-1.05 2.79-.954 1.49.13.776 1.448 3.27 1.902 1.468.26 2.865.33 4.534.32 1.946-.024 2.622-.706 3.056-1.242.654-.807 1.68-.684 2.164.01.39.554.87 1.048 1.83 1.338 1.51.442 7.233.472 9.463-.04 1.633-.372 2.15-1.357 2.718-2.542.317-.674.54-1.436 1.742-1.428 3.766.045 7.485-.713 9.642-1.185 3.044-.658 3.86.603 4.41 2.23 4.267 12.764 18.58 22.248 24.85 26.918 1.85 1.374 2.26 3.01 1.76 5.366-.31 1.547-2.152 8.043-4.692 11.276-2.226 2.836-3.274 3.55-6.952 3.893-1.778.166-6.693.092-9.055 2.11-3.837 3.267-4.33 8.406-4.264 9.182 0 0 .082 1.567 1.79 1.567h19.94c1.867 0 2.792-.332 3.504-1.213.492-.62 1.382-1.73 2.347-2.856.942-1.126 3.264-2.36 4.61-4.335 1.018-1.49 1.462-3.848 2.38-5.973 1.593-3.68 5.682-8.91 9.284-13.92 2.346-3.28 2.626-5.88.06-10.13-1.85-3.074-14.635-15-7.96-25.894 1.366-2.227 3.7-3.664 5.64-1.798 2.056 1.976 2.72 6.408 21.96 25.612 2.426 2.41 3.17 3.626 4.004 5.206 2.595 4.94 5.785 11.948 6.716 14.186 1.303 3.106 1.082 5.27.678 6.54-.604 1.893-1.652 3.156-2.642 5-1.265 2.36-1.287 5.83-.6 7.92.532 1.606 1.8 1.65 4.05 1.65h18.77c1.803 0 1.864-.94 2.087-1.946.413-1.754-.008-5.297-2.017-7.89m-186.126-195.57c.534-.35 2.008-1.226 4.027-1.925 2.656-.937 2.944-1.707 2.48-4.435-.21-1.24.642-1.765 2.024-2.275.965-.35 4.042-1.2 6.1-1.64.99.62 4.534 5.36 6.477 8.122 1.94-2.762 5.48-7.5 6.47-8.12 2.94.587 5.88 1.467 8.316 2.3 2.242.77 3.235 1.657 4.31 4.578.824 2.27 1.132 4.888 1.132 4.888s-1.487.315-3.667.063c-2.49-.286-3.888-1.08-5.128-.812-2.125.423-4.762 3.096-5.017 4.185-.447 2.274.37 4.097.53 4.686.682-2.484 2.002-4.19 3.64-4.294.684-.045 1.582.43 2.848.583.735.09 1.48.055 2.15-.39 1.547-1.044 2.547-2.286 3.562-2.817 0 0 1.45 2.624 2.153 4.93.484 1.645-.312 2.95-3.074 4.276-1.593.758-3.772 2.095-5.137 3.312-1.357 1.208-1.062 2.674-.378 3.78 1.26 2.05 2.346 4.895 2.498 7.21.073 1.068-.33 1.862-1.14 2.323-1.046.603-2.8 1.02-5.038.912-2.408-.11-5.46-3.05-7.905-3.835l.484-3.825s3.754-2.35 5.944-4.314c.51-.454.284-1.394.218-2.01-1.96-.65-5.145-1.128-7.73-1.125-2.008.012-4.384.344-6.254.735.553-2.54 1.156-7.342.25-10.183-.33-1.085-3.936-3.746-6.057-4.19-1.243-.24-2.65.547-5.143.83-2.165.242-4.177-.305-4.177-.305s.077-1.124.234-1.22m19.965 39.75c.156.83.282 3.792-.826 5.458-.212.324-.452.367-.823 0-.807-.787-2.575-2.62-4.8-3.45-.995-.383-5.018-.872-3.75-6.852.11-.58.318-1.017 1.282-1.29 1.2-.337 2.805-1.16 4.882-3.348.528-.553 1.612-.964 2.794-.592.932.29 1.587.465 2.387.465.804 0 1.455-.174 2.375-.465 1.197-.372 2.278.038 2.798.592 2.077 2.19 3.686 2.947 5.09 3.412.877.294.97 1.078.67 1.61-.317.585-.804 1.734-1.023 2.685-.2.955-.516 2.658-2.31 3.94-.753.538-2.904 1.626-4.48 3.366-.315.338-.668.438-.7-.073-.05-.518-.154-4.252-2.627-6.1-.656-.49-1.106-.23-.94.643m-12.936-11.238c-.808-.46-1.204-1.26-1.13-2.323.21-3.067 2.036-7.058 3.757-8.905.258-.27 2.62-.97 3.79.078 2.22 1.978 6.05 4.393 6.05 4.393l.48 3.828c-2.434.79-5.504 3.724-7.904 3.837-2.24.107-3.997-.308-5.044-.907m-7.495-17.743c-1.005-.677-1.72-2.978.783-8.385 1.018.528 3.077 2.05 4.62 3.09.677.443 1.415.47 2.146.39 1.263-.154 2.176-.637 2.856-.59 1.888.124 1.917 4.305 1.94 4.82.028.526-.212.547-.558.258-.852-.692-1.63-.677-2.226-.677-.83.004-2.806.796-3.642 1.02-.832.224-4.175 1.256-5.92.075m6.903 72.25c-7.154-14.06 8.315-17.312 13.623-23.736-.978 7.033-11.56 10.234-13.624 23.736m20.706 24.516c1.773-3.342 6.25-12.456 2.186-24.73-4.28 2.33-8.428 8.647-9.917 14.973-4.66-18.086 9.258-24.38 12.442-40.117 4.096 7.246-5.73 17.006 2.044 25.478 4.888-20.038 23.802-12.883 22.736-37.375 8.55 19.722-3.926 25.01-6.66 39.884-2.573-4.46-2.784-10.002-.324-16.18-12.442 6.02-5.665 32.117-22.506 38.068m136.563 19.43c-.56 2.537-2.806 3.2-4.014 1.515-2.194-3.075-3.118-18.988-20.388-27.102-2.623-1.22-3.46.238-2.786 1.76 2.714 5.997 3.863 11.635 3.073 17.26-.25 1.83-1.448 2.752-2.51.783-.95-1.773-2.95-5.163-4.545-6.678-2.964-2.847-6.93-2.822-10.427-2.36-3.484.46-18.175 4.924-21.402.935-1.97-2.45-4.793-7.586-3.215-13.814.42-1.645-1.05-2.2-2.775-1.04-5.227 3.552-3.198 15.8-2.845 18.1.408 2.65.56 4.794-1.786 7.035-3.584 3.426-9.362 9.622-11.697 11.24-2.332 1.627-4.737 1.31-6.345 2.88-1.23 1.204-1.182 4.374-3.25 4.974-1.017.303-3.287.436-4.925.202-1.62-.218-2.42-.438-2.637-3.033-.084-.967-.743-1.305-1.587-.044-.663.96-1.28 1.983-2.718 2.363-1.64.448-3.857.623-5.85.19-1.445-.305-2.063-.715-2.063-2.095 0-.607.035-1.15-.016-1.533-.048-.492-.484-.535-1.05-.16-.976.65-1.387 2.24-3.417 2.314-1.16.04-4.414.038-3.45-3.6.554-2.037 1.878-7.918 9.02-9.318 2.823-.542 10.542.3 13.104-.174 2.82-.528 4.934-2.2 4.934-4.056 0-1.854-5.803-1.42-6.148-3.16-.67-3.28 9.673-5.775 9.15-9.12-.412-2.552-3.282-2.604-3.745-4.456-.47-1.858 3.17-6.905 3.17-11.132 0-5.628-3.17-8.827-4.05-13.213-.85-4.203.1-9.836 1.963-12.673 1.313-2.01 2.26-2.6 5.23-2.922 10.318-1.117 23.397 9.415 26.88 11.57 11.415 7.066 17.796 8.5 32.01 11.057 8.51 1.55 18.063 2.37 25.237 12.418 3.733 5.264 7.52 17.672 5.87 25.084" id="Shape" fill="#00235D"/><path d="M228.955 271.998c-5.218-.286-11.914 1-15.734 3.248-.02 5.393-.574 10.886-1.6 15.625 3.543 2.6 10.907 5.7 15.087 6.59 3.27-2.38 7.458-7.303 9.706-11.058-1.32-5.362-3.86-10.972-7.458-14.404m-2.637 5.85c-4.286-1.116-10.875-1.134-10.875-1.134 3.686-1.255 8.32-2.3 12.428-2.207 2.57 2.784 4.31 6.626 5.858 11 0 0-3.784-4.868-7.41-7.66" id="Shape" fill="#ED1A3A"/><path d="M234.12 263.728c-.02-.022-.796 1.297-4.478 1.474.444.564 1.147 1.835 1.35 2.582 0 0 4.308.3 7.104 1.014 3.043 2.71 5.324 5.898 6.943 9.81-.01.02-1.88 3.938-4.116 7.788 1.87 3.83 3.998 8.72 4.35 13.175-2.1 5.387-5.807 9.984-10.536 13.178.644-1.536 1.357-3.62 1.805-5.805-2.674-.226-7.342-1.187-9.76-1.978-2.868 3.542-6.35 5.954-10.77 8.146.64 1.437 1.987 3.484 2.904 4.473-7.218 0-13.814-2.706-18.81-7.15 0 0 3.6.486 6.82-.12-.754-3.992-1.035-10.917-.693-14.466-5.045-1.43-9.62-3.38-13.246-5.65-.683 1.323-1.433 3.124-1.884 4.213-1.147-6.483-.135-13.143 3.26-19.008.458.73.934 1.502 1.298 2.152 3.376-2.308 8-4.687 12.945-6.267.22-1.995.723-4.872 1.142-6.734 0 0-1.864-.174-2.664-1-.404-.405-.873-.372-1.222-.21-1.7.79-4.17.266-4.66.035-9.496 5.597-16.055 16.056-16.055 27.868 0 17.778 14.438 32.18 32.25 32.18 17.822 0 32.258-14.402 32.258-32.18 0-11.673-6.224-21.88-15.537-27.518m-2.637 51.617c-.19-1.68-.455-3.716-.55-4.812-1.494-1.327-2.833-2.498-3.946-3.39 1.826.543 4.94 1.264 7.003 1.684-.32 1.446-1.823 5.355-2.507 6.518m12.77-29.595l1.705-3.788s2.463 8.136.116 14.942c0 0 0-5.702-1.822-11.154" id="Shape" fill="#ED1A3A"/><path d="M138.694 331.796H124c1.778 1.05 2.678 4.642 2.678 7.156v35.88c0 3.21-1.488 6.316-2.594 7.245h12.26v-17.39s1.042.048 1.94.048c12.172 0 19.594-7.723 19.594-17.42 0-9.78-6.866-15.31-19.184-15.52m-.854 24.85c-.892 0-1.495-.035-1.495-.035v-16.947s.898.023 2.084.023c6.537 0 9.43 3.19 9.43 8.22 0 5.404-4.087 8.665-10.02 8.738" id="Shape" fill="#00235D"/><path d="M187.56 362.766c-1.327-2.368-2.535-2.996-2.535-2.996 4.963-1.602 9.27-6.546 9.27-13.952 0-10.22-7.12-14.072-18.187-14.072l-15.87.007c1.795 1.053 2.683 4.643 2.683 7.154v35.88c0 3.222-1.47 6.322-2.586 7.247h12.27v-20.6l1.3.007c2.39 0 2.83 1.703 3.27 2.51l8.51 18.084h11.96m-22.798-27.6h-2.256V339.57h2.557c6.2 0 9.056 2.395 9.056 7.218 0 4.664-3.566 7.645-9.357 7.645" id="Shape" fill="#00235D"/><path d="M377.934 362.766c-1.332-2.368-2.536-2.996-2.536-2.996 4.96-1.602 9.266-6.546 9.266-13.952 0-10.22-7.13-14.072-18.19-14.072l-15.86.007c1.772 1.053 2.67 4.643 2.67 7.154v35.88c0 3.222-1.48 6.322-2.58 7.247h12.262v-20.6l1.3.007c2.397 0 2.833 1.703 3.28 2.51l8.505 18.084H388m-22.786-27.6h-2.255V339.57h2.548c6.2 0 9.06 2.395 9.06 7.218 0 4.664-3.57 7.645-9.354 7.645" id="Shape" fill="#00235D"/><path d="M248.85 331.765l11.185 19.16c1.47 2.5 2.325 3.962 2.95 5.646h.07c.658-1.73 1.57-3.122 3.106-5.67l11.203-19.112h9.612v50.29h-9.72s.014-33.804 0-33.767h-.114c-.642 2.115-1.978 4.338-2.728 5.595L265.34 368.7h-4.574l-9.096-14.795c-.625-.948-1.695-3.07-2.524-5.594l-.175.013v33.705h-12.168c1.106-.925 2.584-4.024 2.584-7.246v-35.88c0-2.513-.902-6.08-2.67-7.137" id="Shape" fill="#00235D"/><path d="M307.023 382.028h-12.26c1.103-.925 2.58-4.024 2.58-7.246v-35.88c0-2.513-.89-6.095-2.67-7.155l12.344-.007" id="Shape" fill="#00235D"/><path d="M201.687 382.036c1.11-.925 2.587-4.024 2.587-7.246v-35.88c0-2.513-.893-6.103-2.678-7.155l28.733.034v8.164h-16.354v12.132H228.4v8.057h-14.424v13.67h17.528l-3.438 8.265" id="Shape" fill="#00235D"/><path d="M315.74 382.036c1.1-.925 2.587-4.024 2.587-7.246v-35.88c0-2.513-.9-6.103-2.685-7.155l28.733.034v8.164h-16.35v12.132h14.426v8.057h-14.424v13.67h17.525l-3.434 8.265" id="Shape" fill="#00235D"/><path d="M169.104 442.275c1.1-.922 2.58-4.03 2.58-7.243v-35.888c0-2.505-.9-6.094-2.677-7.147l28.733.026v8.166h-16.353v12.14h14.422v8.055h-14.423v13.67h17.52l-3.437 8.265" id="Shape" fill="#00235D"/><path d="M345.264 442.275c1.114-.922 2.59-4.03 2.59-7.243v-35.888c0-2.505-.892-6.094-2.677-7.147l28.74.026v8.166h-16.36v12.14h14.424v8.055h-14.424v13.67h17.525l-3.44 8.265" id="Shape" fill="#00235D"/><path d="M137.363 442.275c1.117-.922 2.594-4.03 2.594-7.243v-35.888c0-2.505-.896-6.094-2.678-7.147l12.383-.015v42.073h16.757l-3.438 8.265" id="Shape" fill="#00235D"/><path d="M281.033 433.41v-8.714c0-3.214-1.445-6.345-2.557-7.274h12.097l.058 21.453c-4.205 2.332-11.143 4.063-17.15 4.063-15.887 0-25.128-10.19-25.128-25.44 0-15.706 10.114-26.036 27.864-26.036 4.685 0 9.153 1.08 12.05 2.304l.014 9.53c-2.95-1.732-7.964-3.245-12.645-3.245-9.87 0-16.815 5.717-16.815 17.41 0 10.59 5.602 16.806 15.774 16.806 2.38 0 4.842-.315 6.44-.857" id="Shape" fill="#00235D"/><path d="M244.22 435.238c-.688-1.893-14.684-43.127-14.684-43.127h-9.855s-13.998 41.256-14.683 43.15c-1.12 3.068-2.475 6.046-3.897 7.036h11.43l3.243-10.222h17.597l3.315 10.204h11.427c-1.426-.994-2.778-3.97-3.893-7.04zm-26.16-10.787l4.2-12.74c.898-2.888 1.663-5.407 2.217-8.36h.057c.59 2.953 1.244 5.465 2.144 8.202l4.343 12.9h-12.96z" id="Shape" fill="#00235D"/><path d="M299.065 399.35c0-3.217-1.445-6.346-2.548-7.275l11.99.03v32.062c0 6.584 2.35 10.74 10.206 10.74 7.295 0 10.358-4.135 10.358-10.683v-32.12h9.406v32.57c0 10.295-6.017 18.23-20.413 18.23-14.967 0-19.027-8.042-19.027-18.14" fill="#00235D"/></g></svg>