<svg width="512" height="512" viewBox="0 0 512 512" xmlns="http://www.w3.org/2000/svg"><title>epl</title><g fill="none" fill-rule="evenodd"><path d="M201.396 79.28l-1.16-9.084-10.263 10.25L180.776 69l-9.186 11.446-10.26-10.25-1.167 9.083s-5.315-5.45-6.894-7.4c2.54 5.76 5.51 14.15 6.72 20.11 6.27-1.99 14.09-2.56 20.78-2.56 6.69 0 14.52.57 20.79 2.55 1.21-5.957 4.17-14.346 6.72-20.11-1.58 1.95-6.9 7.39-6.9 7.39m-37.62 8.93l.18-6.49 6.35 5.38c-2.46.27-4.7.67-6.53 1.11m17-1.62c-1.94 0-3.82.05-5.62.15l5.62-6.48 5.64 6.48c-1.81-.1-3.69-.155-5.64-.155m10.48.51l6.344-5.38.18 6.49c-1.826-.436-4.063-.84-6.526-1.11m154.566 223.03c-1.295-1.695-4.29-3.364-6.075-8.91-3.04-9.442-2.56-16.4-3.917-23.75-.798-4.37-2.618-5.21-4.43-9.99-.828-2.115-1.618-13.485-1.42-21.194.18-6.55.185-19.31-4.23-27.903 13.624-3.57 21.88-12.1 21.39-21.44-.77-14.483-19.894-18.43-39.61-17.89-5.916.16-27.54 1.173-26.92-6.814.253-3.47 5.743-5.93 8.046-6.064 1.93 1.46 4.92 3.804 9.86 2.95 10.45-1.808 11.31-12.887 22.14-13.776-4.35-3.59-16.41-5.02-22.97-.884 0-1.27.462-2.443.987-3.276-8.765 1.203-10.577 6.436-11.76 8.806-9.45 3.155-13.477 8.17-13.29 13.276.48 13.67 24.876 13.064 33.46 13.037 8.95-.034 28.59 1.08 30.35 10.408 1.19 6.29-7.32 12.045-16.615 12.54-12.933-14.473-34.456-7.52-54.586-21.82-23.3-16.547-35.507-17.94-44.196-31.46 2.1.9 6.527 1.5 9.16 0-4.57-3.45-6.503-6.9-8.482-11.98-2.415-6.14-4.205-8.837-7.59-11.844 2.037-.08 4.2.852 5.547 1.36-.022-7.367-5.178-12.535-7.222-15.336-1.75-2.416-3.51-6.05-.94-9.57-2.683-2.94-5.18-1.18-6.242-.27-.904.796-1.642.65-1.1-1.14.55-1.89 2.43-4.49 4.708-4.385 2.04.09 3.064 1.84 3.49 2.48.45-4.325-1.17-7.468-4.05-8.02-1.71-.326-3.31.21-4.536 1.03-1.02-1.68-1.875-2.91-4.91-3.95-1.275-.436-5.77-1.447-9.25-1.823-2.44 1.893-5.076 4.713-7.25 8.124-.24-1.625.24-5.22 1.246-8.57-8.695-.29-21.857.53-28.024 4.56 1.24 1.17 1.967 2.74 2.07 3.72.13 1.345-.38 1.12-.912.578-.568-.553-2.238-2.59-4.92-2.79-5.63-.42-6.507 6.47-5.24 8.738.53-1.66 1.665-3.02 3.44-3.106 2.775-.124 4.73 3.348 5.057 5.165.257 1.31-.4 1.41-1.274.604-1.145-1.075-2.312-1.443-3.78-1.178-5.244.94-7.17 10.003-8.98 17.88-1.71 7.502-5.773 12.67-10.722 14.76 1.09 1.542 5.72 3.43 10.56 2.932-10.593 9.26-8.78 25.577-7.37 30.36.546-1.93 3.345-9.42 8.38-11.652-6.876 13.957-2.133 30.69.596 35.157.44-1.955 1.556-4.185 2.766-5.472 2.62 4.217 2.656 16.21-2.97 20.98 3.393.158 8.43-1.03 11.4-7.092 3.343 12.86-2.857 25.458-7.073 29.657 1.21.652 8.803 1.904 13.2-3.707 1.18 20.425 6.274 26.555 7.863 29.727 1.587 3.185 1.7 5.407 1.83 8.098.91 19.6 7.59 27.46 5.904 34.003-.56 2.17-2.878 2.296-4.158 2.434-2.97.32-3.78-.178-6.93.8-5.97 1.84-7.27 9.062-7.03 11.06.15 1.27.794 1.65 1.783 1.65h27.55c2.014 0 2.67-1.09 3.306-3.606-6.15-6.51-10.05-15.277-10.05-24.93 0-13.538 7.41-25.53 18.396-31.798 0 0 .68 1.8 4.68 1.66 1.65-.054 1.8-1.05 2.79-.954 1.49.13.78 1.45 3.27 1.9 1.47.26 2.87.33 4.538.32 1.947-.024 2.623-.706 3.057-1.242.655-.8 1.68-.68 2.165.01.39.56.87 1.05 1.83 1.34 1.51.447 7.233.477 9.463-.04 1.632-.37 2.15-1.352 2.717-2.54.316-.67.54-1.433 1.74-1.43 3.766.05 7.485-.71 9.64-1.18 3.045-.66 3.86.6 4.41 2.23 4.268 12.764 18.58 22.248 24.85 26.918 1.85 1.374 2.26 3.01 1.76 5.366-.31 1.544-2.15 8.04-4.69 11.273-2.226 2.836-3.274 3.55-6.95 3.893-1.78.165-6.695.09-9.057 2.11-3.836 3.266-4.33 8.405-4.263 9.18 0 0 .08 1.57 1.79 1.57h19.94c1.867 0 2.79-.334 3.504-1.215.49-.62 1.38-1.73 2.35-2.858.94-1.127 3.26-2.36 4.61-4.336 1.02-1.49 1.46-3.84 2.38-5.97 1.59-3.68 5.68-8.91 9.28-13.92 2.347-3.28 2.627-5.88.06-10.13-1.85-3.07-14.634-15-7.96-25.89 1.367-2.23 3.7-3.66 5.64-1.8 2.057 1.98 2.72 6.41 21.96 25.61 2.427 2.41 3.17 3.63 4.005 5.21 2.597 4.94 5.787 11.95 6.718 14.188 1.304 3.106 1.083 5.27.68 6.54-.605 1.893-1.653 3.156-2.643 5-1.267 2.36-1.29 5.83-.6 7.92.53 1.606 1.8 1.65 4.05 1.65h18.77c1.8 0 1.862-.94 2.085-1.946.41-1.753-.01-5.296-2.02-7.89M159.69 114.56c.536-.35 2.01-1.228 4.03-1.927 2.655-.937 2.943-1.707 2.48-4.435-.21-1.24.64-1.765 2.023-2.275.965-.35 4.042-1.2 6.1-1.64.99.62 4.534 5.36 6.477 8.122 1.94-2.762 5.48-7.5 6.47-8.12 2.94.587 5.88 1.467 8.31 2.3 2.24.77 3.23 1.657 4.31 4.578.82 2.27 1.13 4.888 1.13 4.888s-1.49.32-3.67.07c-2.49-.286-3.89-1.08-5.13-.812-2.127.43-4.76 3.1-5.02 4.19-.446 2.28.37 4.1.53 4.69.683-2.48 2.003-4.19 3.64-4.29.685-.044 1.583.43 2.85.584.734.09 1.48.056 2.15-.39 1.546-1.043 2.546-2.285 3.56-2.816 0 0 1.45 2.625 2.154 4.93.484 1.646-.31 2.95-3.074 4.277-1.592.756-3.77 2.093-5.136 3.31-1.358 1.21-1.063 2.674-.38 3.78 1.26 2.05 2.346 4.895 2.498 7.21.07 1.07-.33 1.86-1.14 2.323-1.048.603-2.8 1.02-5.04.912-2.41-.11-5.46-3.05-7.906-3.838l.48-3.827s3.755-2.35 5.945-4.317c.51-.454.29-1.394.22-2.01-1.96-.65-5.14-1.13-7.73-1.125-2 .013-4.38.345-6.25.736.558-2.54 1.16-7.34.25-10.18-.33-1.086-3.93-3.747-6.052-4.19-1.24-.24-2.65.546-5.14.83-2.168.24-4.18-.306-4.18-.306s.076-1.125.233-1.22m19.965 39.75c.16.83.286 3.79-.822 5.457-.21.327-.45.37-.82 0-.81-.784-2.578-2.62-4.8-3.45-.998-.38-5.02-.87-3.75-6.85.11-.58.315-1.013 1.28-1.29 1.2-.333 2.804-1.16 4.88-3.344.53-.554 1.613-.965 2.795-.593.93.29 1.587.467 2.387.467.806 0 1.457-.174 2.377-.465 1.197-.37 2.278.04 2.798.593 2.074 2.19 3.683 2.944 5.09 3.41.874.292.97 1.076.67 1.61-.32.583-.807 1.732-1.026 2.683-.2.954-.516 2.657-2.31 3.94-.753.537-2.904 1.625-4.48 3.365-.315.34-.67.44-.7-.07-.05-.518-.154-4.25-2.627-6.1-.66-.49-1.11-.23-.94.643m-12.94-11.24c-.807-.46-1.203-1.26-1.13-2.323.21-3.064 2.037-7.055 3.76-8.902.26-.27 2.62-.97 3.79.08 2.22 1.98 6.05 4.39 6.05 4.39l.48 3.83c-2.435.79-5.505 3.723-7.905 3.836-2.24.105-3.994-.31-5.04-.91m-7.496-17.743c-1.007-.674-1.72-2.975.78-8.382 1.017.53 3.076 2.05 4.62 3.09.676.446 1.414.47 2.145.39 1.26-.15 2.175-.634 2.855-.59 1.89.127 1.917 4.308 1.94 4.82.03.53-.21.55-.558.26-.85-.69-1.63-.676-2.225-.676-.83.006-2.806.798-3.64 1.02-.834.226-4.177 1.258-5.92.077m6.9 72.25c-7.153-14.06 8.316-17.31 13.624-23.735-.976 7.034-11.56 10.235-13.62 23.737m20.7 24.508c1.775-3.34 6.25-12.454 2.188-24.73-4.28 2.33-8.43 8.65-9.92 14.975-4.66-18.085 9.26-24.38 12.445-40.116 4.097 7.246-5.73 17.006 2.045 25.48 4.89-20.037 23.8-12.88 22.736-37.374 8.55 19.72-3.927 25.01-6.66 39.887-2.574-4.46-2.785-10.004-.325-16.18-12.442 6.02-5.665 32.115-22.506 38.066m136.562 19.43c-.56 2.54-2.806 3.2-4.014 1.517-2.194-3.074-3.118-18.99-20.388-27.1-2.625-1.22-3.46.24-2.788 1.76 2.712 6 3.86 11.64 3.07 17.26-.25 1.83-1.446 2.755-2.51.786-.95-1.772-2.95-5.162-4.543-6.677-2.96-2.85-6.93-2.825-10.426-2.36-3.484.46-18.175 4.92-21.402.932-1.97-2.45-4.79-7.585-3.212-13.813.42-1.647-1.05-2.2-2.776-1.04-5.224 3.55-3.195 15.8-2.842 18.1.41 2.65.56 4.792-1.785 7.033-3.582 3.427-9.36 9.623-11.695 11.24-2.333 1.628-4.74 1.31-6.346 2.88-1.23 1.205-1.184 4.375-3.25 4.975-1.02.304-3.29.437-4.927.203-1.62-.22-2.42-.44-2.64-3.034-.087-.967-.746-1.305-1.59-.044-.665.96-1.28 1.982-2.72 2.362-1.64.45-3.858.624-5.85.19-1.446-.304-2.064-.714-2.064-2.094 0-.605.035-1.15-.016-1.53-.048-.493-.484-.536-1.05-.16-.976.65-1.387 2.24-3.417 2.313-1.16.04-4.412.04-3.45-3.6.556-2.037 1.88-7.918 9.02-9.318 2.825-.542 10.544.3 13.106-.174 2.82-.53 4.932-2.2 4.932-4.06 0-1.852-5.8-1.42-6.15-3.16-.67-3.28 9.676-5.773 9.15-9.12-.41-2.55-3.28-2.602-3.74-4.454-.47-1.86 3.17-6.906 3.17-11.133 0-5.63-3.17-8.827-4.05-13.213-.85-4.204.1-9.837 1.96-12.674 1.31-2.01 2.26-2.6 5.23-2.92 10.316-1.12 23.395 9.41 26.88 11.57 11.413 7.062 17.794 8.5 32.01 11.053 8.51 1.55 18.06 2.37 25.235 12.417 3.735 5.265 7.52 17.67 5.87 25.085" fill="#00235D"/><path d="M228.955 271.998c-5.218-.286-11.914 1-15.734 3.248-.02 5.393-.57 10.886-1.6 15.625 3.55 2.6 10.91 5.7 15.09 6.59 3.27-2.38 7.46-7.3 9.71-11.05-1.32-5.36-3.86-10.97-7.46-14.4m-2.63 5.85c-4.28-1.11-10.87-1.13-10.87-1.13 3.69-1.25 8.32-2.3 12.43-2.202 2.57 2.784 4.31 6.626 5.86 11 0 0-3.783-4.87-7.41-7.66m7.8-14.12c-.02-.022-.795 1.297-4.48 1.474.446.564 1.15 1.835 1.35 2.58 0 0 4.31.3 7.106 1.015 3.044 2.71 5.325 5.897 6.944 9.81-.01.02-1.88 3.937-4.12 7.787 1.87 3.83 3.996 8.72 4.35 13.176-2.1 5.39-5.81 9.986-10.54 13.18.64-1.536 1.357-3.62 1.805-5.805-2.67-.23-7.34-1.19-9.76-1.98-2.864 3.54-6.35 5.95-10.77 8.143.64 1.437 1.99 3.484 2.908 4.473-7.22 0-13.813-2.704-18.81-7.15 0 0 3.6.488 6.82-.12-.753-3.99-1.034-10.915-.692-14.464-5.043-1.43-9.62-3.38-13.244-5.65-.68 1.326-1.43 3.127-1.882 4.216-1.148-6.482-.136-13.142 3.26-19.01.457.73.933 1.505 1.297 2.155 3.38-2.31 8-4.69 12.946-6.27.22-1.998.725-4.875 1.144-6.737 0 0-1.866-.173-2.666-1-.406-.404-.875-.37-1.224-.21-1.7.79-4.17.267-4.66.036-9.494 5.594-16.053 16.053-16.053 27.865 0 17.776 14.44 32.18 32.25 32.18 17.823 0 32.26-14.404 32.26-32.18 0-11.675-6.225-21.88-15.54-27.52m-2.637 51.61c-.19-1.68-.453-3.717-.55-4.81-1.492-1.33-2.83-2.5-3.944-3.39 1.825.54 4.94 1.26 7 1.68-.32 1.446-1.82 5.355-2.505 6.52m12.77-29.6l1.71-3.79s2.463 8.138.116 14.94c0 0 0-5.7-1.82-11.15" fill="#ED1A3A"/><path d="M138.694 331.796H124c1.778 1.05 2.678 4.642 2.678 7.156v35.88c0 3.21-1.488 6.316-2.594 7.245h12.26v-17.39s1.042.048 1.94.048c12.172 0 19.594-7.723 19.594-17.42 0-9.78-6.866-15.31-19.184-15.52m-.854 24.85c-.892 0-1.495-.035-1.495-.035v-16.947s.898.023 2.084.023c6.53 0 9.43 3.19 9.43 8.22 0 5.404-4.09 8.665-10.02 8.738m49.72 6.122c-1.33-2.368-2.54-2.996-2.54-2.996 4.96-1.602 9.27-6.546 9.27-13.952 0-10.22-7.12-14.072-18.19-14.072l-15.87.007c1.79 1.053 2.68 4.643 2.68 7.154v35.88c0 3.222-1.47 6.322-2.59 7.247h12.27v-20.6l1.3.007c2.39 0 2.83 1.71 3.27 2.51l8.51 18.09h11.96m-22.8-27.6h-2.26v-14.87h2.56c6.2 0 9.055 2.4 9.055 7.22 0 4.67-3.566 7.65-9.357 7.65m203.086 8.34c-1.33-2.37-2.535-2.994-2.535-2.994 4.96-1.6 9.264-6.545 9.264-13.95 0-10.22-7.13-14.073-18.19-14.073l-15.86.007c1.77 1.053 2.67 4.643 2.67 7.154v35.88c0 3.224-1.48 6.324-2.58 7.25h12.26v-20.6l1.3.006c2.4 0 2.834 1.707 3.28 2.51l8.506 18.09H388m-22.786-27.6h-2.255v-14.87h2.54c6.2 0 9.06 2.394 9.06 7.217 0 4.664-3.57 7.645-9.36 7.645m-116.36-22.67l11.18 19.16c1.47 2.5 2.324 3.96 2.95 5.642h.07c.66-1.73 1.57-3.12 3.105-5.67l11.207-19.11h9.612v50.29h-9.72s.01-33.8 0-33.767h-.117c-.64 2.113-1.98 4.336-2.73 5.593l-9.08 14.79h-4.572l-9.097-14.794c-.623-.947-1.693-3.07-2.52-5.593l-.175.017v33.704H236.8c1.107-.93 2.585-4.03 2.585-7.25v-35.88c0-2.51-.9-6.08-2.67-7.136m70.308 50.26h-12.26c1.103-.924 2.58-4.023 2.58-7.245v-35.88c0-2.514-.89-6.096-2.67-7.156l12.344-.008M201.69 382.04c1.11-.926 2.586-4.025 2.586-7.247v-35.88c0-2.512-.893-6.102-2.678-7.154l28.733.03v8.16h-16.35v12.13h14.42v8.05h-14.42v13.67h17.53l-3.44 8.264m87.68-.04c1.1-.926 2.59-4.025 2.59-7.247V338.9c0-2.51-.9-6.1-2.68-7.153l28.732.034v8.168h-16.35v12.134h14.427v8.056h-14.42v13.67h17.525l-3.434 8.265m-173.014 60.2c1.1-.922 2.58-4.03 2.58-7.243v-35.88c0-2.505-.9-6.094-2.676-7.147l28.732.03v8.16H181.4v12.14h14.42v8.05h-14.43v13.67h17.52l-3.436 8.262m149.8-.046c1.113-.92 2.59-4.03 2.59-7.245v-35.89c0-2.506-.893-6.095-2.678-7.148l28.74.025v8.16h-16.36v12.14h14.424v8.05h-14.43v13.67h17.52l-3.44 8.265m-234.28-.046c1.12-.92 2.593-4.03 2.593-7.242v-35.88c0-2.504-.897-6.093-2.68-7.146l12.38-.012v42.07h16.76l-3.44 8.26m118.052-8.91v-8.715c0-3.214-1.444-6.345-2.556-7.274h12.092l.06 21.453c-4.205 2.33-11.143 4.06-17.15 4.06-15.887 0-25.128-10.19-25.128-25.44 0-15.706 10.113-26.036 27.863-26.036 4.69 0 9.16 1.08 12.05 2.3l.02 9.53c-2.95-1.732-7.963-3.245-12.644-3.245-9.87 0-16.815 5.72-16.815 17.41 0 10.59 5.603 16.81 15.775 16.81 2.38 0 4.84-.314 6.44-.856m-36.814 1.83c-.69-1.896-14.686-43.13-14.686-43.13h-9.854s-14 41.28-14.686 43.17c-1.12 3.07-2.478 6.046-3.9 7.036h11.43l3.244-10.222h17.596l3.317 10.204h11.428c-1.427-1-2.78-3.97-3.894-7.04zm-26.16-10.79l4.2-12.74c.9-2.887 1.66-5.406 2.215-8.36h.06c.59 2.954 1.242 5.466 2.142 8.203l4.34 12.9h-12.96z" fill="#00235D"/><path d="M299.065 399.35c0-3.217-1.445-6.346-2.548-7.275l11.99.03v32.062c0 6.584 2.35 10.74 10.206 10.74 7.295 0 10.358-4.135 10.358-10.683v-32.12h9.41v32.57c0 10.295-6.01 18.23-20.41 18.23-14.96 0-19.02-8.042-19.02-18.14" fill="#00235D"/></g></svg>