<svg width="512" height="512" viewBox="0 0 512 512" xmlns="http://www.w3.org/2000/svg"><title>mlb</title><g fill="none" fill-rule="evenodd"><path d="M123.204 144.84c-12.312 0-22.224 9.93-22.224 22.264v146.648c0 12.334 9.912 22.263 22.224 22.263h258.638l53.584-21.77-15.364-169.306-296.858-.1z" fill="#FFF"/><path d="M417.314 144.84c12.312 0 22.223 9.93 22.223 22.264v146.648c0 12.334-9.91 22.263-22.223 22.263H376.73l.587-16.355c22.773 1.145 37.856-1.704 46.22-10.938.05-3.943 3.078-10.588-2.958-21.785-3.307-6.134-7.304-13.633-20.72-22.803-.706-10.177-6.18-15.066-10.114-19.878-4.402-5.384-7.483-10.186-12.006-12.413l-53.126-86.904 92.7-.1z" fill="#FA012D"/><path d="M94.728 144.84c-12.312 0-22.224 9.93-22.224 22.264v146.648c0 12.334 9.912 22.263 22.224 22.263h130.927c-1.455-5.007-5.507-15.796-9.11-15.816-2.88-.248-13.834 1.12-15.736-.973 8.288-61.084 18.947-56.578 29.714-64.52 1.962-1.448-1.34-3.247-.037-5.085 1.62-2.282-1.772-4.534-.544-6.748 1.878-3.384-12.986.498-11.81-2.86 2.3-6.573 4.993-10.857 6.63-16.507 1.358-4.684-.144-2.53-.135-4.64.01-3.16-23.814 1.718-23.085-1.288 1.34-5.526 20.798-11.03 20.535-16.492-1.188-24.65 19.312-37.504 33.902-37.04 25.602-.443 32.767 2.356 42.01 19.204 6.094 12.18 13.36 32.403.355 38.043.802 5.93 2.165 11.017 5.524 13.103 4.546-.165 6.3.234 10.134.224 27.086-.074 39.695 2.08 46.142 6.5l1.71-11.23-64.76-84.953-202.368-.1z" fill="#092668"/><path d="M72.463 367.66v-25.465h6.312l3.01 13.567c.164.734.317 1.616.458 2.648.14 1.032.28 2.247.413 3.645.09-1.34.204-2.527.345-3.56.143-1.03.317-1.93.526-2.7l3.323-13.6h6.066v25.466h-4.082c-.03-.767-.048-1.59-.056-2.467-.007-.877-.01-2.158-.01-3.843 0-3.313.058-6.37.177-9.173.12-2.803.305-5.38.558-7.73l-5.71 23.214h-2.43L76.12 344.45c.15 3.29.26 6.855.335 10.695.074 3.84.11 8.013.112 12.518h-4.104zm30.155-8.528h3.97l-1.806-14.787h-.246l-1.918 14.787zm-6.022 8.53l4.84-25.467h6.357l5.063 25.466h-4.974l-.825-5.14h-4.885l-.78 5.14h-4.796zm17.152.17v-3.507c.297.08.59.14.88.18.29.04.57.06.838.06 1.01 0 1.72-.28 2.13-.842.41-.562.613-1.61.613-3.146v-18.382h4.84v18.88c0 2.522-.514 4.322-1.54 5.4-1.026 1.077-2.72 1.616-5.085 1.616-.432 0-.87-.022-1.316-.068-.447-.046-.9-.11-1.362-.19zm19.628-19.05v12.293c0 1.34.238 2.316.714 2.923.476.608 1.226.912 2.253.912 1.026 0 1.776-.304 2.252-.912.476-.607.714-1.582.714-2.923V348.78c0-1.34-.24-2.315-.715-2.922-.476-.608-1.226-.912-2.252-.912-1.027 0-1.777.304-2.253.912-.476.607-.714 1.582-.714 2.923zm-4.974 2.01c0-3.22.62-5.54 1.863-6.955 1.24-1.415 3.267-2.123 6.078-2.123 2.795 0 4.817.71 6.066 2.132 1.248 1.42 1.873 3.737 1.873 6.947v8.27c0 3.22-.625 5.543-1.874 6.964-1.25 1.422-3.272 2.132-6.067 2.132-2.81 0-4.837-.71-6.078-2.133-1.242-1.42-1.863-3.743-1.863-6.964v-8.27zm26.03 2.89h1.182c1.665 0 2.814-.304 3.446-.912.632-.608.948-1.725.948-3.353 0-1.48-.298-2.51-.893-3.095-.594-.585-1.62-.877-3.078-.877h-1.606v8.236zm-4.885 13.98v-25.467h5.397c3.837 0 6.47.536 7.896 1.608 1.428 1.072 2.14 3.012 2.14 5.82 0 1.72-.307 3.104-.924 4.153-.617 1.05-1.588 1.837-2.91 2.364l4.348 11.52h-5.04l-3.88-10.712h-2.143v10.713h-4.883zm28.906 0v-25.467h4.885v21.94h8.944v3.526h-13.83zm16.506 0v-25.467h13.07v3.422h-8.187v7.05h6.402v3.473h-6.402v8.1h8.944v3.42H194.96zm21.054-8.53h3.97l-1.806-14.787h-.246l-1.918 14.787zm-6.022 8.53l4.84-25.467h6.357l5.062 25.466h-4.974l-.825-5.14h-4.885l-.78 5.14h-4.796zm35.018 0h-2.32l-1.182-1.875c-.67.71-1.46 1.246-2.375 1.607-.915.36-1.922.542-3.023.542-2.423 0-4.193-.708-5.308-2.124-1.115-1.415-1.673-3.665-1.673-6.75v-8.27c0-3.22.62-5.54 1.86-6.955 1.243-1.415 3.27-2.123 6.08-2.123 2.602 0 4.576.665 5.92 1.994 1.347 1.33 2.02 3.267 2.02 5.812v.93h-4.974v-1.67c0-1.34-.238-2.315-.714-2.922-.476-.608-1.227-.912-2.253-.912-1.027 0-1.777.304-2.253.912-.476.607-.714 1.582-.714 2.923v12.158c0 1.34.238 2.315.714 2.923.476.608 1.226.912 2.252.912 1.025 0 1.776-.304 2.252-.91.476-.61.714-1.583.714-2.924v-2.958h-2.61v-3.18h7.584v12.86zm5.085-7.962v-17.505h4.885v18.536c0 1.4.216 2.4.647 3.002.43.602 1.13.902 2.096.902.967 0 1.666-.3 2.097-.902.43-.602.647-1.602.647-3v-18.537h4.84V359.7c0 3.06-.584 5.23-1.75 6.508-1.168 1.278-3.113 1.917-5.834 1.917-2.736 0-4.69-.64-5.866-1.917-1.174-1.278-1.762-3.448-1.762-6.508zm20.788 7.96v-25.465h13.07v3.422h-8.185v7.05h6.4v3.473h-6.4v8.1h8.944v3.42h-13.83zm30.936-14.82h1.47c1.533 0 2.607-.28 3.224-.835.617-.556.926-1.545.926-2.966 0-1.365-.3-2.31-.903-2.838s-1.655-.79-3.156-.79h-1.56v7.427zm0 11.554h1.74c1.605 0 2.728-.318 3.367-.955.64-.637.96-1.774.96-3.414 0-1.433-.317-2.433-.95-3-.63-.568-1.757-.85-3.378-.85h-1.74v8.218zm-4.885 3.267v-25.465h6.11c3.54 0 5.986.487 7.34 1.462 1.352.974 2.03 2.694 2.03 5.158 0 1.57-.258 2.79-.77 3.654-.514.865-1.35 1.492-2.51 1.882 1.294.39 2.242 1.063 2.844 2.02.6.958.902 2.267.902 3.93 0 2.602-.75 4.48-2.252 5.63-1.502 1.153-3.948 1.73-7.34 1.73h-6.355zm24.356-8.528h3.97l-1.805-14.787h-.246l-1.92 14.787zm-6.02 8.53l4.84-25.467h6.356l5.063 25.466h-4.975l-.825-5.14h-4.885l-.78 5.14h-4.796zm17.71-6.62l4.66-.534v.223c0 1.377.23 2.41.692 3.105.46.693 1.16 1.04 2.096 1.04.818 0 1.45-.243 1.896-.73.446-.488.67-1.184.67-2.09 0-.62-.153-1.23-.458-1.83-.305-.603-.777-1.248-1.416-1.935-.61-.63-1.65-1.625-3.123-2.984-1.472-1.358-2.46-2.393-2.966-3.103-.564-.803-.988-1.574-1.27-2.313-.283-.74-.425-1.447-.425-2.124 0-1.868.625-3.35 1.874-4.445 1.248-1.093 2.928-1.64 5.04-1.64 2.156 0 3.86.555 5.108 1.667 1.25 1.112 1.918 2.677 2.007 4.694l-4.416.43c-.076-1.214-.328-2.1-.76-2.655-.43-.556-1.078-.834-1.94-.834-.64 0-1.167.22-1.584.663-.416.44-.624 1.006-.624 1.693 0 .608.204 1.28.613 2.012.41.734.985 1.462 1.73 2.184.28.275.705.676 1.27 1.204 2.007 1.903 3.36 3.272 4.06 4.11.67.79 1.167 1.616 1.494 2.475.326.86.49 1.772.49 2.735 0 1.8-.677 3.267-2.03 4.402-1.353 1.135-3.1 1.702-5.242 1.702-2.215 0-3.966-.614-5.252-1.84-1.287-1.227-2.02-2.987-2.197-5.28zm18.288 6.62v-25.467h13.07v3.422h-8.185v7.05h6.4v3.473h-6.4v8.1h8.944v3.42h-13.83zm21.836-14.823h1.472c1.532 0 2.606-.28 3.223-.835.616-.556.925-1.545.925-2.966 0-1.365-.3-2.31-.903-2.838s-1.655-.79-3.156-.79h-1.562v7.427zm0 11.554h1.74c1.606 0 2.73-.318 3.368-.955.64-.637.96-1.774.96-3.414 0-1.433-.317-2.433-.95-3-.63-.568-1.757-.85-3.378-.85h-1.74v8.218zm-4.884 3.267v-25.465h6.11c3.54 0 5.986.487 7.34 1.462 1.352.974 2.03 2.694 2.03 5.158 0 1.57-.258 2.79-.77 3.654-.514.865-1.35 1.492-2.51 1.882 1.294.39 2.242 1.063 2.844 2.02.602.958.903 2.267.903 3.93 0 2.602-.75 4.48-2.252 5.63-1.502 1.153-3.948 1.73-7.34 1.73h-6.355zm24.356-8.528h3.97l-1.806-14.787h-.246l-1.918 14.787zm-6.022 8.53l4.84-25.467h6.357l5.064 25.466h-4.974l-.825-5.14h-4.885l-.78 5.14h-4.796zm19.494 0v-25.467h4.885v21.94h8.944v3.526h-13.83zm16.505 0v-25.467h4.885v21.94h8.944v3.526h-13.83z" fill="#FA012D"/><path d="M131.636 290.31c0 8.125-6.575 14.712-14.687 14.712-8.112 0-14.687-6.587-14.687-14.713s6.575-14.713 14.686-14.713c8.11 0 14.686 6.587 14.686 14.712z" fill="#FFF"/></g></svg>