<svg width="512" height="512" viewBox="0 0 512 512" xmlns="http://www.w3.org/2000/svg"><title>mls</title><g fill="none" fill-rule="evenodd"><path d="M386.86 131.883H129.183c-14.48 0-26.208 11.668-26.208 26.072v196.088c0 14.396 11.728 26.063 26.208 26.063H386.86c14.44 0 26.187-11.667 26.187-26.063V157.955c-.002-14.403-11.748-26.072-26.187-26.072zM231.293 359.04H204.89v-37.255l-15.702 37.255H161.99l-15.666-37.255v37.255h-26.417V311.7h45.312l10.387 25.823 10.388-25.822h45.297v47.34zm-97-57.403c-7.377 0-13.33-5.934-13.33-13.245v-121.2c0-7.32 5.953-13.26 13.33-13.26h25.5c3.566 12.27 10.826 13.685 31.463 11.317 13.26-1.56 18.102-2.81 19.83-3.576 1.55-.674 5.224-2.313 9.004-.863 2.648 1.01 4.72 3.224 6.342 6.77 1.186 2.72 1.222 5.764 1.095 8.455 1.208.828 2.504 2.18 3.44 4.475 2.453 5.933 5.17 12.255 7.515 18.142 1.562 4.158 12.063 20.562 19.03 31.375l9.37 12.98s2.752 3.072 18.726 20.32c4.686 5.52 12.425 14.74 3.065 27.613-1.916 2.215-4.97 4.907-8.772 7.04 3.044-.855 5.637-2.205 7.87-3.798 2.236-1.593 4.073-3.412 5.62-5.248 8.97-12.262 2.365-21.21-2.343-26.81 10.144 4.095 22.64 6.255 22.64 6.255l3.26-4.567c-4.504-.658-18.66-3.142-29.59-9.012-.56.478-1.136.966-1.71 1.415-1.766-1.9-3.315-3.583-4.68-5.033-1.372-1.476-2.56-2.783-3.55-3.862.055-.035.123-.09.195-.125 0 0-2.082-15.19.15-28.17 2.518-1.685 5.782-1.55 5.782-1.55-3.046-2.69-12.336-7.076-18.193-9.877-4.16 1.063-8.5 3.836-11.973 6.483-1.584-2.5-3.1-4.967-4.467-7.227-.183-.243-.323-.505-.473-.74-1.744-2.915-3.224-5.463-4.174-7.3-.49-.9-.833-1.63-1.008-2.16-2.38-5.87-5.097-12.218-7.53-18.115-.94-2.323-2.235-3.655-3.462-4.503.15-2.673.113-5.698-1.11-8.435-1.556-3.55-4.834-7.177-7.476-8.204-1.893-.72-3.925-1.08-5.673-1.17l-.47-2.294h164.174c7.383 0 13.344 5.942 13.344 13.26v121.2c0 7.31-5.96 13.245-13.344 13.245h-39.784c-9.076 4.286-18.945 6.788-29.103 7.257-4.34-.144-6.25-3.342-6.25-3.342s-1.474 3.197-5.76 2.863c-8.896-1.044-18.007-3.926-26.04-8.148-2.45.846-5.08 1.368-7.815 1.368H134.293v.002zm179.63 57.403h-68.298V311.7h30.654v33.43h37.64v13.91zm40.213 1.88c-16.862 0-31.826-2.366-31.826-2.366v-14.422s12.72 3.42 28.422 3.42c3.404 0 12.733-.35 12.733-2.42 0-4.476-42.033.242-42.033-18.835 0-9.41 11.416-16.504 42.033-16.504 10.21 0 27.463 1.91 27.463 1.91v14.313s-12.032-2.62-24.67-2.62c-8.572 0-12.122.883-12.122 2.098 0 4.322 41.98-.333 41.98 18.637 0 14.19-23.252 16.79-41.98 16.79zm54.95-181.843l-8.325 2.622 8.327 2.6v1.745h-10.232v-1.08h8.714l-8.715-2.737v-1.08l8.714-2.738h-8.715v-1.08h10.232v1.745zm0-3.195h-1.105v-3.17h-9.125v-1.08h9.127v-3.035h1.106v7.285z" id="Shape" fill="#FFF"/><path d="M321.735 185.865c-2.304-4.213-8.772-11.667-17.866-17.366-10.48.916-20.065 4.32-28.168 9.57-3.815 12.405-6.446 23.803-6.446 23.803l4.464-2s6.52 2.224 13.33 6.735c0 0 13.002-8.104 26.72-8.842 0 0 2.668-9.498 3.514-12.182 1.7-1.044 4.45.28 4.45.28m19.664 42.956l2.938-4.502s8.99.63 16.102.81c0 0 3.332-6.6 4.988-17.836 0 0-3.277-9.823-13.307-20.022l1.06-3.566c-11.184.342-20.46 2.007-24.207 3.9l-5.006 16.086c3.336 2.883 10.876 11.265 17.43 25.13m-8.513 49.742c-1.552-8.292-3.925-15.287-3.925-15.287 4.95-4.025 13.41-15.8 15.863-21.6 6.047.09 15.413.46 15.413.46 1.172-.99 2.72-4.834 2.72-4.834l-21.446-1.15c-.112.475-8.88 16.87-17.812 25.136 3.06 8.472 4.952 19.15 4.952 19.15l4.234-1.873z" id="Shape" fill="#FFF"/><path d="M317.285 185.586c-.847 2.684-3.512 12.182-3.512 12.182-13.72.74-26.72 8.84-26.72 8.84-6.813-4.51-13.33-6.734-13.33-6.734l-4.465 2c8.375 3.915 18.51 10.308 18.51 10.308 4.146-2.35 14.95-7.815 28.924-9.894l5.042-16.42c0-.003-2.75-1.326-4.45-.282m53.148 22.472c-3.6-9.517-9.655-17.807-17.25-24.353l-1.065 3.566c10.03 10.203 13.308 20.024 13.308 20.024-1.657 11.236-4.99 17.835-4.99 17.835-7.11-.18-16.1-.81-16.1-.81l-2.938 4.5 21.434 1.505c5.354-6.655 7.603-22.266 7.603-22.266m-92.673 10.964c-2.232 12.982-.15 28.17-.15 28.17-.072.035-.14.09-.195.127.99 1.08 2.177 2.388 3.548 3.864.86-.685 1.694-1.387 2.413-2.08-.647-4.59-2.106-17.555.163-31.628 0 0-3.265-.134-5.78 1.55m35.927 49.354s-12.497-2.16-22.64-6.257c4.706 5.6 11.31 14.548 2.344 26.81-1.547 1.837-3.384 3.656-5.62 5.25 4.956 1.73 10.16 2.845 15.023 3.673 0 0 12.89-4.124 18.804-14.656.03-7.815-4.65-19.385-4.65-19.385l-3.26 4.564zm46.553-26.245s-9.367-.37-15.415-.46c-2.453 5.8-10.913 17.575-15.865 21.6 0 0 2.372 6.995 3.925 15.287l-4.232 1.872c11.452 4.772 23.538 1.9 23.538 1.9 8.43-6.67 14.483-15.36 17.85-24.867 0 0-1.154-12.83-7.08-20.166 0 0-1.55 3.847-2.72 4.836" id="Shape" fill="#A7B1B7"/><path d="M285.608 263.328c-15.974-17.25-18.726-20.32-18.726-20.32l-9.37-12.98c-6.967-10.815-17.468-27.218-19.03-31.376-2.344-5.89-5.06-12.21-7.515-18.14-.936-2.298-2.23-3.648-3.44-4.476.127-2.69.09-5.734-1.095-8.454-1.62-3.547-3.694-5.762-6.342-6.77-3.78-1.45-7.457.19-9.004.863-1.728.766-6.57 2.02-19.83 3.574-20.637 2.366-27.897.954-31.464-11.32h-3.418c.865 3.87 2.558 9.498 5.672 12.93 5.06 5.635 21.484 4.293 29.77 3.35 8.462-1 17.578-2.315 21.308-3.97 3.436-1.54 6.283-2.02 8.696 3.357 1.135 2.528.682 6.085.49 8.976-.128 1.738 2.502.01 3.937 3.763 2.49 6.267 5.732 13.19 7.55 18.015 1.784 4.79 12.013 20.69 19.972 33.14.7 1 9.975 13.65 9.975 13.65s12.897 13.26 17.63 18.87c4.808 5.707 10.643 12.054 3.102 22.192-.35.513-.7 1.063-1.137 1.584 4.537-9.715-13.492-19.78-18.693-23.183-6.125-3.988-27.137-16.278-39.658-25.533-13.835-10.27-58.53-32.5-79.17-40.46-17.07-6.58-22.097-1.6-24.857 1.992v9.58c1.806 2.474 3.825 4.897 6.6 7.274l-.76 6.283s-.706 2.727 5.635 3.806c4.667.793 6.246-1.08 6.703-3.06 1.31.602 2.753 1.205 4.3 1.782 20.946 8.102 36.56 11.342 49.78 21.102 7.33 5.43 17.867 21.643 26.26 31.07 0 .207-.036.333-.036.333l-.865 8.05s-.755 2.737 5.66 3.798c2.48.443 6.12-.072 7.18-2.816 5.512 3.15 10.7 5.34 14.067 6.725l-.2 5.106h2.293l.774-6.04c.34-1.468 2.142-1.928 3.44-2.028 2.915-.225 5.56 1.945 5.56 1.945-1.386-.234-2.32 3.88-2.717 6.122h12.322c2.732 0 5.362-.524 7.81-1.37 1.82-.602 3.55-1.395 5.134-2.287 3.802-2.132 6.858-4.825 8.772-7.04 9.356-12.874 1.617-22.093-3.07-27.612m-149.33-37.787c-4.02-2.737-6.882-.91-6.882-.91l.834-6.58c.352-1.486 2.122-1.91 3.44-2 2.928-.25 5.558 1.91 5.558 1.91-1.942-.28-2.952 7.58-2.952 7.58m11.56-10.57c-4.033-2.744-6.84-.917-6.84-.917l.787-6.608c.4-1.46 2.178-1.9 3.478-1.99 2.902-.26 5.53 1.918 5.53 1.918-1.98-.296-2.954 7.598-2.954 7.598m21.29 19.15s22.976 1.568 25.715 3.476c6.016 4.168 7.49 13.27 7.49 13.27-4.39-4.006-16.782-12.775-33.206-16.746m58.815 54.758c-3.998-2.745-6.876-.91-6.876-.91l.863-6.58c.358-1.485 2.123-1.908 3.423-2.043 2.916-.235 5.545 1.963 5.545 1.963-1.91-.29-2.955 7.57-2.955 7.57m16.138-15.016c-4.034-2.745-6.877-.9-6.877-.9l.83-6.6c.376-1.476 2.123-1.91 3.44-2.018 2.956-.243 5.564 1.945 5.564 1.945-1.91-.298-2.955 7.57-2.955 7.57m24.19 16.06c-4.003-2.71-6.86-.87-6.86-.87l.825-6.627c.398-1.467 2.14-1.89 3.423-1.98 2.955-.262 5.585 1.925 5.585 1.925-1.947-.316-2.975 7.552-2.975 7.552M167.76 196.67c-15.202-15.666-36.17-15.278-36.17-15.278s-2.16-10.938 14.373-27.46h-2.553c-13.38 7.104-19.595 21.545-22.448 30.278v6.716c16.52-11.407 46.797 5.743 46.797 5.743" id="Shape" fill="#A7B1B7"/><path d="M224.237 292.625c-6.415-1.063-5.658-3.8-5.658-3.8l.862-8.05s.036-.125.036-.332c-8.394-9.427-18.93-25.64-26.26-31.07-13.218-9.76-28.835-13-49.78-21.103-1.548-.576-2.992-1.18-4.3-1.783-.457 1.98-2.036 3.853-6.704 3.06-6.342-1.08-5.635-3.806-5.635-3.806l.76-6.28c-2.775-2.378-4.794-4.8-6.6-7.277v76.21c0 7.31 5.953 13.245 13.33 13.245h110.993l.2-5.106c-3.37-1.385-8.557-3.572-14.07-6.724-1.057 2.746-4.696 3.26-7.177 2.82M333.3 233.033c-.668 1.495-10.917 23.057-33.392 18.546 0 0 10.127 4.364 17.726 4.87 0 0 9.736-9.57 15.667-23.418m41.242-19.582c2.63 16.135-1.95 25.796-1.95 25.796l1.82 7.894c6.324-17.024.13-33.69.13-33.69m-35.587 76.662c-5.442 4.547-14.697 6.84-22.728 7.167-2.468 2.45-6.192 4.13-6.192 4.13 21.46.46 36.085-10.695 36.085-10.695s-2.88.243-7.165-.604" id="Shape" fill="#009A66"/><path d="M120.962 167.193v17.017c2.853-8.733 9.068-23.174 22.448-30.278h-9.117c-7.38 0-13.33 5.942-13.33 13.26m260.745-13.26H217.533l.47 2.296c1.75.09 3.78.45 5.674 1.17 2.644 1.026 5.92 4.656 7.477 8.203 1.223 2.74 1.26 5.765 1.11 8.438 1.226.847 2.52 2.18 3.462 4.502 2.43 5.896 5.148 12.244 7.53 18.113.175.532.52 1.26 1.007 2.162 5.002-9.428 11.814-17.458 19.84-23.84 2.69-2.072 6.057-.702 6.057-.702s-.362-3.025 2.16-5.006c8.142-4.88 17.14-8.228 26.562-9.814 4.685-.342 7.365 2.494 7.365 2.494s2.055-3.322 5.872-3.53c8.14.074 16.424 1.46 24.51 4.377 5.33 1.91 10.29 4.385 14.86 7.292 3.424 2.872 2.486 6.284 2.486 6.284s4.25-1.1 6.99.89c7.92 7.12 14.208 15.855 18.44 25.48 1.045 4.132-1.045 6.708-1.045 6.708s3.85 1.278 5.025 4.68c3.01 11.785 3.224 24.47.122 36.896-1.15 4.114-4.55 5.067-4.55 5.067s2.033 2.694.88 6.017c-4.09 9.714-9.907 18.167-17.053 25.145-3.042 2.71-6.903 1.964-6.903 1.964s.223 3.637-2.732 5.978c-3.57 2.476-7.335 4.61-11.222 6.447h39.784c7.383 0 13.344-5.933 13.344-13.244V167.193c-.004-7.32-5.965-13.26-13.348-13.26m-90.766 92.245c4.5-29.027 26.834-34.526 26.834-34.526-14.892.126-26.31 7.715-26.31 7.715-1.515 14.792-.524 26.81-.524 26.81m-42.504-40.064c.15.234.29.496.47.74 9.35-14.956 17.65-19.214 17.65-19.214l1.82-6.763c-10.158 5.745-16.893 18.358-19.94 25.235" id="Shape" fill="#006BB6"/><path d="M312.175 167.12l5.165 4.37c10.936-2.054 31.198 7.66 31.198 7.66-18.52-13.243-36.363-12.03-36.363-12.03m-81.89 60.017c-12.014-9.986-27.052-17.926-38.074-23.922-11.02-5.96-33.065-11.956-17.032-1.98 0 0 33.05 18.924 45.094 26.92 12.032 7.95 33.063 23.885 38.052 24.866 5.03 1-19.862-19.113-28.037-25.882" id="Shape" fill="#006BB6"/><path d="M386.86 120H129.183C108.106 120 91 137.023 91 157.955v196.123c0 20.915 17.106 37.92 38.182 37.92H386.86c20.992 0 38.14-17.005 38.14-37.92V157.955C425 137.023 407.854 120 386.86 120zm26.185 234.043c0 14.396-11.746 26.063-26.186 26.063H129.18c-14.48 0-26.208-11.667-26.208-26.063V157.955c0-14.404 11.728-26.072 26.208-26.072H386.86c14.44 0 26.187 11.668 26.187 26.072v196.088h-.002z" id="Shape" fill="#000"/><path d="M175.608 337.523l-10.39-25.822h-45.31v47.34h26.417v-37.254l15.666 37.255h27.2l15.7-37.254v37.255h26.404V311.7h-45.297l-10.388 25.823zM276.28 311.7h-30.655v47.34h68.297v-13.91H276.28V311.7zm77.856 13.794c0-1.215 3.548-2.098 12.123-2.098 12.635 0 24.667 2.62 24.667 2.62v-14.314s-17.256-1.91-27.463-1.91c-30.617 0-42.033 7.096-42.033 16.505 0 19.076 42.034 14.36 42.034 18.834 0 2.073-9.33 2.424-12.733 2.424-15.7 0-28.42-3.42-28.42-3.42v14.42s14.963 2.368 31.825 2.368c18.727 0 41.98-2.6 41.98-16.79 0-18.97-41.98-14.314-41.98-18.636m44.72-152.784h9.126v3.17h1.107v-7.285h-1.105v3.035h-9.126v1.08zm0 5.7h8.714l-8.717 2.735v1.082l8.715 2.733h-8.716v1.082h10.232V184.3l-8.325-2.603 8.325-2.62v-1.747h-10.232v1.082zm-130.48 2.466l-1.82 6.76s-8.3 4.26-17.648 19.214c1.367 2.26 2.883 4.727 4.468 7.23 3.472-2.648 7.813-5.42 11.973-6.484 5.857 2.8 15.146 7.184 18.192 9.877-2.268 14.073-.81 27.037-.163 31.63-.72.69-1.552 1.394-2.412 2.078 1.366 1.45 2.915 3.132 4.68 5.033.575-.45 1.15-.937 1.71-1.414 10.933 5.87 25.087 8.354 29.59 9.012 0 0 4.68 11.57 4.65 19.384-5.912 10.534-18.804 14.656-18.804 14.656-4.86-.828-10.065-1.944-15.022-3.673-2.23 1.595-4.825 2.946-7.867 3.8-1.584.89-3.313 1.685-5.132 2.288 8.035 4.222 17.146 7.104 26.04 8.148 4.287.334 5.763-2.863 5.763-2.863s1.91 3.197 6.25 3.342c10.16-.47 20.028-2.97 29.105-7.257 3.887-1.838 7.653-3.97 11.22-6.448 2.956-2.342 2.734-5.978 2.734-5.978s3.86.748 6.902-1.964c7.15-6.978 12.966-15.43 17.053-25.145 1.154-3.323-.878-6.015-.878-6.015s3.4-.954 4.55-5.067c3.1-12.423 2.887-25.107-.123-36.893-1.17-3.404-5.024-4.68-5.024-4.68s2.09-2.576 1.046-6.71c-4.233-9.623-10.52-18.356-18.442-25.477-2.74-1.992-6.99-.893-6.99-.893s.94-3.412-2.484-6.284c-4.572-2.907-9.528-5.384-14.862-7.29-8.084-2.92-16.367-4.305-24.51-4.378-3.817.207-5.873 3.53-5.873 3.53s-2.68-2.836-7.365-2.495c-9.42 1.585-18.42 4.934-26.563 9.814-2.52 1.98-2.16 5.007-2.16 5.007s-3.367-1.367-6.055.703c-8.025 6.384-14.837 14.414-19.84 23.84.95 1.837 2.43 4.385 4.173 7.3 3.05-6.876 9.785-19.49 19.942-25.234m23.09 38.487s11.417-7.59 26.31-7.715c0 0-22.335 5.5-26.835 34.527 0 0-.99-12.02.525-26.81m26.17 37.082c-7.6-.505-17.727-4.87-17.727-4.87 22.474 4.51 32.722-17.052 33.393-18.547-5.93 13.847-15.666 23.417-15.666 23.417m-7.6 44.96s3.725-1.682 6.193-4.13c8.03-.325 17.286-2.62 22.728-7.168 4.286.847 7.165.604 7.165.604s-14.625 11.155-36.085 10.695m42.154-19.075s-12.086 2.87-23.538-1.9c0 0-1.893-10.678-4.953-19.15 8.93-8.266 17.7-24.66 17.813-25.136l21.447 1.15c5.924 7.337 7.078 20.167 7.078 20.167-3.368 9.507-9.42 18.195-17.85 24.867m22.354-68.884s6.192 16.666-.13 33.69l-1.82-7.894s4.58-9.663 1.95-25.796m-21.36-29.745c7.596 6.545 13.653 14.835 17.252 24.352 0 0-2.25 15.61-7.6 22.265L341.4 228.82c-6.555-13.866-14.096-22.247-17.432-25.13l5.006-16.086c3.747-1.892 13.023-3.556 24.208-3.9m-4.644-4.553s-20.262-9.713-31.198-7.66l-5.165-4.37s17.843-1.212 36.363 12.03m-72.835-1.08c8.103-5.25 17.686-8.652 28.166-9.57 9.092 5.7 15.56 13.153 17.864 17.366l-5.042 16.422c-13.973 2.08-24.78 7.545-28.924 9.894 0 0-10.136-6.392-18.51-10.308-.002.002 2.63-11.396 6.443-23.803m-129.883 22.543c20.642 7.958 65.337 30.188 79.17 40.46 12.52 9.255 33.534 21.544 39.658 25.533 5.2 3.403 23.23 13.47 18.695 23.182.435-.522.788-1.072 1.137-1.583 7.542-10.14 1.706-16.486-3.1-22.193-4.736-5.61-17.632-18.87-17.632-18.87s-9.275-12.65-9.977-13.648c-7.96-12.45-18.19-28.35-19.972-33.14-1.82-4.826-5.06-11.75-7.55-18.016-1.435-3.753-4.064-2.025-3.94-3.763.196-2.89.648-6.447-.488-8.976-2.412-5.377-5.26-4.9-8.696-3.36-3.73 1.656-12.847 2.97-21.306 3.97-8.29.945-24.71 2.287-29.772-3.35-3.114-3.43-4.806-9.057-5.67-12.927h-10.41c-16.533 16.52-14.374 27.458-14.374 27.458s20.968-.387 36.167 15.278c0 0-30.274-17.15-46.796-5.744V202.6c2.765-3.592 7.788-8.57 24.858-1.99m46.394 2.603c11.023 5.996 26.06 13.936 38.075 23.922 8.175 6.77 33.066 26.88 28.037 25.882-4.99-.98-26.02-16.916-38.05-24.867-12.046-7.995-45.095-26.92-45.095-26.92-16.034-9.974 6.01-3.98 17.033 1.982m-23.088 30.908c16.422 3.97 28.816 12.74 33.207 16.747 0 0-1.475-9.104-7.49-13.27-2.74-1.908-25.717-3.476-25.717-3.476m93.107 48.304l-.824 6.626s2.857-1.838 6.858.872c0 0 1.027-7.87 2.974-7.554 0 0-2.63-2.187-5.586-1.926-1.28.09-3.022.514-3.422 1.982m-15.2-16.134s-2.607-2.188-5.562-1.946c-1.318.11-3.065.54-3.44 2.018l-.83 6.6s2.844-1.846 6.878.9c0 0 1.044-7.87 2.955-7.573m-105.25-58.844l-.786 6.608s2.807-1.827 6.84.918c0 0 .974-7.894 2.956-7.598 0 0-2.63-2.18-5.53-1.917-1.3.09-3.08.53-3.48 1.99m-11.555 10.605l-.834 6.582s2.862-1.828 6.88.91c0 0 1.01-7.86 2.952-7.58 0 0-2.63-2.163-5.56-1.91-1.314.09-3.086.513-3.438 1.998m91.7 63.338l-.864 6.58s2.88-1.837 6.875.91c0 0 1.044-7.86 2.953-7.572 0 0-2.63-2.196-5.545-1.963-1.3.135-3.064.557-3.422 2.044" fill="#000"/><path d="M248.35 295.596l-.773 6.04h7.056c.398-2.242 1.33-6.355 2.716-6.12 0 0-2.646-2.17-5.56-1.947-1.3.1-3.1.56-3.44 2.025" fill="#000"/></g></svg>