<svg width="512" height="512" viewBox="0 0 512 512" xmlns="http://www.w3.org/2000/svg"><title>nba</title><g transform="translate(164 47)" fill="none" fill-rule="evenodd"><rect fill="#FFF" width="185" height="420" rx="46"/><path d="M117.31 76.987l.138 1.42c2.975 1.76 4.53 3.18 7.572 5.142 7.978 5.07 17.784 14.07 16.566 44.98 2.298 6.76 3.313 19.95 5.342 24.15 4.125 8.32 6.964 13.73 8.18 21.51 0 0 1.22 12.18 2.773 13.05 8.25 1.895 5.89 2.707 7.04 4.195 1.29 1.624 6.09 1.556 6.09 6.02 1.69 2.234 2.98 4.466 3.858 6.902V43.56c0-18.4-14.874-33.285-33.2-33.285h-31.72c5.07 1.827 7.98 3.99 9.67 7.374 4.057.34 8.86 9.47 1.35 23.07 3.315 2.3.746 5.68-1.62 9.54-.745 1.212-1.488 3.45-3.72 3.31-2.975 6.153-6.424 11.97-9.06 12.31-.75.946-1.29 3.585-.14 4.802 3.854 1.76 8.52 4.06 10.89 6.29zm29.616 332.3l-.337.068c14.53-8.862 5.54-25.638 2.77-35.516l.54-1.7c.74-1.36-.81-4.53-.81-4.53-1.83-1.49-2.23-9.74-3.18-13.53-1.56-6.16 2.77-16.92 2.77-20.57 0-3.66-2.78-8.66-7.78-15.02-1.22-1.42-4.87-32.61-8.12-40.52-4.53-10.9-5.887-9.14-11.29-22.19-4.13-9.14-.88-22.6-10.21-53.85l2.09-1.96s-7.44-27.2-9.873-34.64c-2.367-7.45-6.76-7.92-6.76-7.92l.27-3.86c.34-1.15 9.06-23.81 9.804-24.556.07-.473 12.58-9.065 12.78-7.78 1.014 5.55 5.88 33.76 7.978 38.223 2.097 4.532 9.334 18.333 12.646 26.925-12.914 3.18-22.584 14.882-22.584 28.75 0 16.373 13.25 29.7 29.613 29.7 12.503 0 23.323-7.78 27.65-18.74l-.068 150.39c0 16.64-11.966 30.372-27.92 32.81z" fill="#D71E54"/><path d="M99.527 10.283c-10.818 4.194-12.306 8.862-12.71 23.88-1.826.204-5.613-1.555-4.328 7.578 0 0 .67 6.09 3.11 5.08-1.9 13.26-.39 16.58-9.2 17.52-1.9.21-4.2.34-7.03.48l-.88 1.22c-12.04 1.15-18 .38-25.76 10.628-2.98 3.92-6.16 9.47-10.08 17.385 0 0-3.59 8.86-4.67 12.515-3.45 7.24-11.9 23.27-14.4 33.553-.81 3.518-2.37 4.6-.14 9.674 3.31 7.306-2.167 9.2 16.63 8.66v4.328s-5.005 4.33-6.087 6.9c-1.013 2.64-3.92 15.56-3.784 21.72.34 16.033 13.39 29.427 17.24 45.394l8.73 1.21c4.73 10.89 25.42 40.25 30.222 44.986l.2.204c1.08 2.77 6.42 6.22 9.53 9.67 1.894 1.83 10.617 11.3 22.246 20.3 4.27 3.304 8.86 6.56 13.656 9.34-.135-.07 2.84 5.883 4.33 10.753-5.95 4.8 5.613 13.6 9.13 28.143.202 1.96-3.38 3.92 1.96 8.725-.338 21.985-7.03 33.49 4.192 39.575H42.73c-17.983-.405-32.52-15.152-32.52-33.216V43.567c0-18.2 14.54-32.88 32.523-33.285H99.53z" fill="#006AB7"/><path d="M46.315 386.693H57.54v-49.79H47.6v29.36h-.136l-.337-2.03-7.91-27.33H27.99v49.79h9.94v-30.78h.136l.203 1.757 8.04 29.023zm15.08 0v-49.79H77.69c8.315 0 12.372 3.18 12.372 11.703 0 5.275-.743 9.877-6.287 11.77v.067c5.544 1.014 7.573 5.21 7.573 11.433 0 8.388-3.11 14.817-13.32 14.817H61.393z" fill="#FFF"/><path d="M73.226 356.588v-11.23h3.584c2.84 0 3.516 1.962 3.516 5.412 0 3.11-.338 5.818-3.922 5.818h-3.178zm3.38 21.65c3.855 0 4.26-1.895 4.26-6.833 0-3.384-.405-6.698-3.99-6.698h-3.65v13.53h3.38z" fill="#006AB7"/><path d="M115.96 336.9l9.33 49.79h-12.035v.003l-1.08-10.892h-7.98l-1.218 10.9h-11.36l9.13-49.79h15.212z" fill="#FFF"/><path d="M108.452 344.41v1.22l2.64 22.324h-5.75l2.91-22.325v-1.22h.2z" fill="#006AB7"/></g></svg>