<svg width="512" height="512" viewBox="0 0 512 512" xmlns="http://www.w3.org/2000/svg"><title>nfl</title><g fill="none" fill-rule="evenodd"><path d="M129.826 341.638l.625-222.11c43.758 38.043 110.55-.392 126.727-31.18 31.5 55.987 109.607 53.576 126.103 30.557l.624 229.492c-.312 50.434-97.02 26.354-127.02 75.36-30.447-53.324-125.148-22.95-127.058-82.12z" stroke="#000" fill="#003A73"/><path d="M140.95 335.986l.57-111.287 230.692-.06.57 117.29c.154 46.093-88.525 23.18-115.9 66.28-27.78-46.898-115.507-18.83-115.932-72.224z" stroke="#000" fill="#FFF"/><path d="M227.088 212.066c2.967-14.537 7.137-27.473 12.414-38.934l-4.908-2.595 1.732-3.173c12.013 2.833 11.113 4.48 14.724 6.634l-2.31 4.037-5.774-2.596c-7.64 11.997-10.037 24.742-12.414 37.49 31.476-1.637 74.905-26.377 54.275-81.038-4.67 2.11-9.088 4.72-12.99 8.363l4.04 3.75-2.886 2.595c-2.918-3.14-6.17-5.947-12.124-6.056l3.753-2.596 4.906.577c2.376-2.884 6.48-5.768 12.703-8.652-46.203-.322-67.642 32.43-55.142 82.193z" stroke="#000" fill="#FFF"/><path d="M168.08 175.273l-10.478-7.425-10.412 7.517 3.83-12.25-10.373-7.567 12.846-.146 4-12.195 4.107 12.16 12.847.03-10.307 7.66 3.94 12.216z" stroke="#025" stroke-width=".5" fill="#FFF"/><path d="M212.298 175.273l-10.478-7.425-10.41 7.517 3.83-12.25-10.375-7.567 12.846-.146 4-12.195 4.11 12.16 12.845.03-10.307 7.66 3.94 12.216z" stroke="#025" stroke-width=".5" fill="#FFF"/><path d="M168.08 214.292l-10.478-7.425-10.412 7.517 3.83-12.25-10.373-7.567 12.846-.146 4-12.194 4.107 12.16 12.847.03-10.307 7.66 3.94 12.216z" stroke="#025" stroke-width=".5" fill="#FFF"/><path d="M212.298 214.292l-10.478-7.425-10.41 7.517 3.83-12.25-10.375-7.567 12.846-.146 4-12.194 4.11 12.16 12.845.03-10.307 7.66 3.94 12.216z" stroke="#025" stroke-width=".5" fill="#FFF"/><path d="M322.844 175.273l-10.478-7.425-10.412 7.517 3.83-12.25-10.373-7.567 12.847-.146 4-12.195 4.108 12.16 12.846.03-10.306 7.66 3.94 12.216z" stroke="#025" stroke-width=".5" fill="#FFF"/><path d="M367.062 175.273l-10.478-7.425-10.41 7.517 3.83-12.25-10.374-7.567 12.845-.146 4-12.195 4.108 12.16 12.846.03-10.307 7.66 3.94 12.216z" stroke="#025" stroke-width=".5" fill="#FFF"/><path d="M322.844 214.292l-10.478-7.425-10.412 7.517 3.83-12.25-10.373-7.567 12.847-.146 4-12.194 4.108 12.16 12.846.03-10.306 7.66 3.94 12.216z" stroke="#025" stroke-width=".5" fill="#FFF"/><path d="M367.062 214.292l-10.478-7.425-10.41 7.517 3.83-12.25-10.374-7.567 12.845-.146 4-12.194 4.108 12.16 12.846.03-10.307 7.66 3.94 12.216z" stroke="#025" stroke-width=".5" fill="#FFF"/><path d="M239.79 161.885c7.042 2.208 10.6 5.11 13.858 8.075l2.887-4.038c-3.516-3.985-9.236-5.77-15.012-7.498l-1.732 3.46z" stroke="#000" fill="#003A73"/><path d="M245.565 154.675c7.04 2.208 10.6 5.11 13.857 8.075l2.887-4.037c-3.517-3.986-9.237-5.77-15.013-7.5l-1.732 3.462z" stroke="#000" fill="#003A73"/><path d="M253.36 146.312c7.04 2.207 10.6 5.11 13.857 8.075l2.887-4.038c-3.516-3.987-9.237-5.77-15.012-7.5l-1.733 3.462z" stroke="#000" fill="#003A73"/><path d="M154.914 235.426l.29 16.15 8.66 3.75.577 77.866-9.526 3.75v12.11l34.355 8.653-.29-14.708-6.64-6.92-.288-41.242 23.095 66.33 17.61 5.48.867-111.32 5.774-4.614v-15.284h-32.623v15.285l7.506 4.327.29 51.045-23.096-70.945-26.56.29z" stroke="#000" fill="#DA2127"/><path d="M236.038 357.417l.288 12.4 33.49 12.402V367.8l-7.218-7.788v-55.66l10.68.29 5.198 6.632 8.66-.29.29-30.57-9.816-.287-4.042 6.633-10.682.288v-33.165l13.28.577 4.908 11.247 12.992-.288.288-29.418h-59.182L235.46 251l7.506 4.902.866 97.766-7.794 3.75z" stroke="#000" fill="#DA2127"/><path d="M300.128 235.714v15.573l6.063 3.46.867 88.538-6.93 8.075.58 13.267 58.026-16.44-.577-36.625-14.146-.288-2.02 21.918-14.147 4.614.29-82.193 7.216-5.768-.29-14.42-34.932.29z" stroke="#000" fill="#DA2127"/></g></svg>