<svg xmlns="http://www.w3.org/2000/svg" width="512" height="512" viewBox="0 0 512 512"><g><g><path fill="#1A191A" d="M40.2 131.1s6.6 22.9 32.2 40.8l-14.9-1.6s15.7 22.1 44 36l-15.5-1.4s20.7 33 62.8 49.3c0 0 4.2 27 40.6 51.3 0 0 34.6 19.9 38.6 38.2 0 0 66.6-4.4 139.5 44.5 0 0 17.2-70.4 106.4-78.9 0 0 .1-38.2-50.5-63.6 0 0-20.7-79.3-146.2-87.9l-105.8.2s-80.7-5.3-131.2-26.9z"/><path fill="#84161C" d="M70.6 151.7s21.6 28.3 82.8 42.6l-55.2-5s20.6 19.8 81.8 34.8l-55.4-4.8s31.1 29.6 79.4 37.6l-29.6 4.7s2.7 15 53.6 47.9c0 0 16.8 14.1 13.3 17.6 0 0 27.6.3 75.9 23 0 0 46.2-23.6-18.3-92.5 0 0-29.6-32.6-62.9-53.9 0 0 50.2-12 112.8 24 0 0 31.9 24 61.2 12 0 0-12-60.6-124.8-70.2h-122.4c0-.2-51.9-4.2-92.2-17.8z"/><path fill="none" stroke="#000" d="M70.6 151.7s21.6 28.3 82.8 42.6l-55.2-5s20.6 19.8 81.8 34.8l-55.4-4.8s31.1 29.6 79.4 37.6l-29.6 4.7s2.7 15 53.6 47.9c0 0 16.8 14.1 13.3 17.6 0 0 27.6.3 75.9 23 0 0 46.2-23.6-18.3-92.5 0 0-29.6-32.6-62.9-53.9 0 0 50.2-12 112.8 24 0 0 31.9 24 61.2 12 0 0-12-60.6-124.8-70.2h-122.4c0-.2-51.9-4.2-92.2-17.8z"/><path fill="#fff" d="M308.8 224.2s6.7 52.2 57.9 49.6c0 0 18-4.3 21.6-23h-7s-6 19-24 15.3c0 0-10.8-.2-21.3-16l17-2.3c.1.1-29.8-9.3-44.2-23.6z"/><path fill="none" stroke="#000" d="M308.8 224.2s6.7 52.2 57.9 49.6c0 0 18-4.3 21.6-23h-7s-6 19-24 15.3c0 0-10.8-.2-21.3-16l17-2.3c.1.1-29.8-9.3-44.2-23.6z"/><path fill="#FDBD12" d="M377.5 297.3s52-9.5 87.1 7.7c0 0-44.5 1.8-74.2 27 0 0 2.7-19-12.9-34.7z"/><path fill="none" stroke="#000" d="M377.5 297.3s52-9.5 87.1 7.7c0 0-44.5 1.8-74.2 27 0 0 2.7-19-12.9-34.7z"/><path fill="#FDBD12" d="M378.2 284.7s57-2.5 86.7 16.3c-7-27.7-54.9-49.3-51-47.4 0 0-9.5 22.3-35.7 31.1z"/><path fill="none" stroke="#000" d="M378.2 284.7s57-2.5 86.7 16.3c-7-27.7-54.9-49.3-51-47.4 0 0-9.5 22.3-35.7 31.1z"/></g></g></svg>