<svg xmlns="http://www.w3.org/2000/svg" width="512" height="512" viewBox="0 0 512 512"><g><g><path fill="#D1B336" d="M354.8 194.7c0 7.9-3.2 12.8-3.2 12.8-3.5-12.9-21.7-30-21.7-30 3.2 4 2.2 12.1 2.2 12.1-1.2-1-10.1-6.9-10.1-6.9-17.7-12.6-46.8-25.8-91.5-25.8-112.9 0-160.6 72.6-162.6 75.7 0 0-11 15.8-13.9 24.6l24.1-14.4c.2-.1 20-12.2 50.7-12.2 2.4 0 8.1.3 9.3 2.9 3 6.2-6.4 25.1-17.1 38.8l-23 29.5 32.5-18.6c.1-.1 13.1-7.4 34.7-7.4 4.3 0 6.2.7 6.8 1-.1 1.2-1.2 3.7-2.4 5.4l-15.9 21.5 24.7-10.3c.2-.1 15.3-6.3 37-6.3 12.7 0 21.5 2.5 23.9 6.8 2.3 4-.5 10.5-1.7 12.5l-5.1 8.5 9.6 2.4c1.1.3 2.5.6 8-.5 0 .8-.1 1.6-.1 2.3 0 12.5 6 22 6.4 22.6l9.6 15.3 3.7-17.5c3.3-15.5 15.7-22.2 23.4-25l2.2 8.3 7.7-3.1c6.9-2.8 18.3-11.1 22.5-14.2 3.4-.6 12.2-2 23-2 6.4 0 13.8.6 21.7 1.2 9.9.8 21.2 1.7 33.3 1.7 17.3 0 33.2-3 39.8-4.4 1.6 1.1 14.1 9.4 14.1 9.4l.6-13c.1-1.1.1-2.2.1-3.3 0-27.2-16.8-44.5-35.1-54.4l1.1-.1-19.7-12.3c-2.7-1.7-8.1-3-13.4-4l1-2-8.8-2.3c-8.6-2.3-16-2.6-21.6-2.2 2.8-13.8-6.8-23.1-6.8-23.1z"/><path d="M74.2 236.7s46.2-72.3 156.4-72.3c81.1 0 108.2 45.2 108.2 45.2s1.5-6.9-.5-10.3c0 0 9.3 9.8 9.8 21.6 0 0 5.4-5.4 5.4-7.4 0 0 2.5 8.4 0 13.3 0 0 11.3-3.9 28 .5l-1.5 3s16.7 2 20.7 4.4c0 0-9.3.5-9.3 3 0 0 62 9.3 59.5 60.5l-5.9-3.9s-19.7 4.9-41.3 4.9c-21.6 0-40.3-2.9-55.1-2.9l-26.1 2.5s-14.8 11.3-22.1 14.3l-2-7.4s-30 4.4-35.9 32.5c0 0-9.8-15.2-2.5-31 0 0-14.3 3.9-16.2 3.4 0 0 18.7-30.5-28.5-30.5-23.6 0-39.8 6.9-39.8 6.9s13.8-18.2-10.3-18.2l-38.4 8.4s41.8-53.6 2-53.6c-33.5-.2-54.6 13.1-54.6 13.1z"/><path fill="#fff" d="M321 242.6s-32.4-5.9-46.5 2.2c0 0 36.1 0 50.2 8.1 0 0-64.2-8.9-90.7 12.5 0 0 39.1-9.6 69.3-6.6 0 0-11.1 4.4.7 11.8 11.8 7.4 19.2 8.8 16.2 21.4l6.1-9.1 6.9 6.9s17.7-1.5 30 0 29 3 38.4 3c9.3 0 34.9-3.4 34.9-3.4s-53.6-21.1-101.8-21.1c-5.4 0-11.3 1-7.9 6.9 0 0-16.7-8.2-16.7-12.7l12.8-2.1c5.9 0 112.1 10.8 122.9 30 0 0 0-43.8-88-52.6l9.8 8.4-15.7-1.5 9.3 8.4c.1-.2-24.5-8.6-40.2-10.5z"/><path fill="#2D2062" d="M99 220.4s48.7-48.7 131.3-48.7c72.3 0 103.3 40.6 103.3 40.6s13.3 19.9 5.9 27.3-8.8-18.4-27.3-24.3l15.5 5.2s-17-22.1-45.7-17c0 0 16.2 3.7 20.6 8.8 0 0-36.1 3.7-37.6 6.6 0 0 28 5.9 29.5 10.3 0 0-26.5.7-33.9 7.4 0 0 49.4 2.2 60.5 5.9 0 0-32.5-5.9-46.5 2.2 0 0 36.1 0 50.1 8.1 0 0-64.2-8.9-90.7 12.5 0 0 39.1-9.6 69.3-6.6 0 0-11.1 4.4.7 11.8s19.2 8.8 16.2 21.4c0 0-5.9 8.9-14.8 12.5l-.7-10.3s-28 2.2-40.6 28c0 0 2.2-21.4 8.1-26.5l-16.2 5.2s16.2-26.5-24.3-28.8l-42.8 4.4s5.2-19.9-40.6-11.8c.1.1 43.6-71.5-49.3-44.2z"/><path fill="#fff" d="M264.7 189.6c-4.5-6.6-15.5-9.7-33.7-9.7-51.4 0-80.5 14.6-81.7 15.2l-19.7 10.9 22.8-2.6c.4-.1 32.3-7.1 57.6-7.7-34.1 4.3-46.2 60.5-46.7 63l-1.2 5.6 52.8-2.6 1.3-1.7c2.2-2.4 17.5-9.5 30.5-14.7l1.6-.7 4.7-10.3.1-.6c.1-.5.1-1.1.1-1.6 0-2.8-1-5.3-2.9-7.5-2.4-2.7-6.1-4.6-10.1-6 19.9-4.9 25.6-18.6 25.8-19.2.3-.7 1.9-5.1-1.3-9.8zm-66.4 60c2.7-7.3 8.4-20.1 9.8-23.9 2.8 0 17.1-.8 17.1 7.6 0 3.8-6.5 16.4-26.9 16.3zm14.4-34.7c2.6-5.2 7.3-17.4 8.4-19.5 3.4.5 16.4 1.8 15.6 7.4-1 6.9-8.1 12.2-9.8 13l-14.2-.9z"/><path fill="#D1B336" d="M219.9 219.7l-13.2-.7 8-19.2c-34.7-.7-47.2 59.7-47.2 59.7l45-2.2c2.9-4.4 32.4-16.2 32.4-16.2l3.7-8.1c1.8-12.8-28.7-13.3-28.7-13.3zm9.6 15.5c-7.1 19.1-33.2 19.2-37.6 19.2l14.2-33.1c0-.1 29-1.3 23.4 13.9zm1.5-50.9c-50.9 0-79.7 14.8-79.7 14.8s46.5-10.3 73-7.4c34.6 3.8 8.9 23.6 8.9 23.6 22.9-3 28.8-17.7 28.8-17.7s5.1-13.3-31-13.3z"/><ellipse fill="#C6332C" cx="309.2" cy="227.5" rx="8.4" ry="7.7"/><ellipse fill="#fff" cx="310.9" cy="228.8" rx="7.6" ry="7.9"/><ellipse fill="#C6332C" cx="312.4" cy="229.3" rx="6.1" ry="5.9"/><ellipse cx="313.8" cy="229" rx="5.2" ry="5.7"/></g></g></svg>