<svg xmlns="http://www.w3.org/2000/svg" width="512" height="512" viewBox="0 0 512 512"><g><g><path fill="#fff" d="M475.3 148c-6.5-12-30.8-16.4-48.2-15.1-11.3-15.6-26.1-29.4-45.2-37.9-.4 1.1-1.1 2.8-1.5 4.1-5.5-1.6-18.2-4.7-28.6-4.8l-.1 3.6c-11.3 1.5-27.1 3.5-32.4 4.6.8 2.7 1 4 1.7 5.7-38.3 10.6-73.3 30.8-104.7 57.9 1.4.4 2.3 1 2.8 1.1-34.2 12.9-59.3 33-81.1 53.4-25.8 4-72.1 10-72.1 10l-34 67.4 90-19c-7.5 21.3-28 40.2-46.9 53-2.5 13.1-9.3 25.4-21.3 33.3 5.6 6.3-1.3 14.2-2.3 20.8 7.6 9.9 23.2 28.8 23.2 28.8l9.6-40 19.3-19.7c-1.2 3.3-.8 7.1-.4 8.5-1.7 3.6-6.5 8-6.9 14.2 7.3 9.5 21.3 26.7 21.3 26.7s10.1-27 14.7-40.7l77.9-72c5.9-.9 20.3-.7 30.7-.4l4.4-4.3 22-1.7c1.8 2.9 2.8 4.8 4 7.1-4 2.3-7.4 4.1-11.2 5.9l-9.9 35.4s19-10.2 28.8-15.4c3.5.6 11.8.3 16.1-.6-2.1 10-5.7 30.8-5.7 30.8s16.9-9.1 24.8-13.2c21.6.1 43.3-8.6 49.2-11.6 16.6-6.6 11.7-47.6 11.7-47.6 3.3-.4 7.5-1.4 10.7-.4 9.4 2.4 3.2 37.6 3.2 37.6l21.7-20.7 2.3 3s13.1-16.3 18.9-24.9c15.9.1 19.7-9.9 21.7-16.8 8-27.5 17.2-25.6 20.7-40.6 2.2-5.9 9.6-51.1 1.1-65.5zm-432.2 141.3l26.4-53.2 356.3-52.1c-11 5.8-12 18.3-6.7 24.9-93.8 20.4-376 80.4-376 80.4zm86.7 69.6c-5 11.4-13.5 35.3-13.5 35.3s-9.8-11.4-13.9-16.9c-.1-4.2 4.4-8.5 6.7-12.6-.4-1.2-.6-2.9-.3-4 7.9-5.8 12.9-14.2 14.6-23.3 26.9-42.3 77.7-44.3 77.7-44.3l-71.3 65.8zm230.3-39.7c-21.9 10.9-47.7 11-47.7 11l-15.3 8.1s3-14.3 4.2-20.9c16.9-2.8 40.7-7.3 49.6-20.7 2.9-4.4 4.9-11.8 6.9-17.4 3.9-.6 7.2-1.1 11.3-1.7-.1 0 4.4 34.9-9 41.6zm112.9-135.7c-1 13.9-2.9 31.1-10.2 39.4-7 8-12.4 19.8-16.5 31.9-2.1 7.2-4.9 10.5-17.9 11.1-4.9 7.1-9.6 14.6-15.4 21l-1.7-2.4c-5.7 5.4-8.6 8.5-14.8 14.1.7-7.1 1-16.8-1.3-21.9-3.5-5.7-9.3-7.1-15.2-6.2l-27.2 4.2c-1.7 5.7-3.5 13.7-7.7 19.6-6.2 14.6-57.1 19.7-66.2 18.4-6.4 3.2-12.6 7.2-19.3 10.3 1.8-6.8 6-21.2 6-21.2s8.9-4.5 13.2-6.9c-.6-1.4-.9-2-1.9-4.2 7.9-1.9 16.9-5.8 23.1-11.8 0 0-39.4 2.6-57.9 3.9-1.1 1.4-2.2 2.8-3.6 3.6-42.1-1.8-82 3.9-111.4 33.6-9.4 9.4-19.7 19.7-25.8 30.5-7.5 7.8-14 14.4-21.8 22.3l-8.3 30.2-13.1-17.2c-1.8-2.4 6.2-13.2 2.1-18.8 9.4-6.8 17.1-20.1 19.3-31.2 19.1-12.9 42.7-35.5 49.7-58.4 0 0 292.2-63.4 296.4-64.3-1.9 5.6-.8 13.2 5.4 16.1 3.1.7 6.4-.3 9-2.1-1.4-1.3-4-3.1-4.7-5.7-1.3-3.3.6-6.3 2.6-8.6-3.8-8.3-.7-17.9 4.3-24.7 3.5-4.6 9-9.8 12.9-14l-307.4 44.7s40.2-37.6 84.9-51c-1.3-.6-4.6-1.9-7.1-2.8 31.8-26 67.4-45.1 102.4-53.4-.5-1.8-1-3.1-1.6-5.1 1.1-.1 29.9-4.4 29.9-4.4l-.2-2.3c7 0 21.7 3.8 27.3 5.7l1.1-2.5c21.5 9.6 39.1 35.3 39.1 35.3 14.2-1.5 29 .2 40.4 6.2 10.6 5.5 10 25.3 9.1 39z"/><path fill="#BF2026" d="M425.8 183.9l-356.3 52.2-26.4 53.2s282.3-60 376-80.4c-5.3-6.7-4.3-19.2 6.7-25z"/><path fill="#194787" d="M464 144.5c-11.4-6-26.2-7.7-40.4-6.2 0 0-17.6-25.8-39.1-35.3l-1.1 2.5c-5.6-1.9-20.3-5.7-27.3-5.7l.2 2.3s-28.8 4.3-29.9 4.4c.6 2 1.1 3.3 1.6 5.1-35 8.3-70.7 27.5-102.4 53.4 2.4.9 5.7 2.3 7.1 2.8-44.6 13.4-84.9 51-84.9 51l307.4-44.7c-3.9 4.2-9.4 9.4-12.9 14-5 6.8-8.1 16.4-4.3 24.7-2.1 2.4-3.9 5.3-2.6 8.6.7 2.6 3.4 4.4 4.7 5.7-2.6 1.8-6 2.8-9 2.1-6.3-2.9-7.4-10.6-5.4-16.1-4.2.8-296.4 64.3-296.4 64.3-7 22.9-30.7 45.5-49.7 58.4-2.2 11.1-9.9 24.3-19.3 31.2 4.1 5.5-3.9 16.3-2.1 18.8l13.1 17.2 8.3-30.2c7.8-7.9 14.3-14.5 21.8-22.3 6.1-10.8 16.4-21 25.8-30.5 29.5-29.7 69.3-35.4 111.4-33.6 1.4-.8 2.5-2.2 3.6-3.6 18.5-1.3 57.9-3.9 57.9-3.9-6.3 6-15.2 9.8-23.1 11.8.9 2.2 1.2 2.8 1.9 4.2-4.3 2.4-13.2 6.9-13.2 6.9s-4.2 14.4-6 21.2c6.7-3.1 12.9-7.1 19.3-10.3 9.1 1.4 60-3.8 66.3-18.4 4.2-5.8 5.9-13.9 7.7-19.6l27.2-4.2c5.8-.8 11.7.5 15.2 6.2 2.3 5.1 2 14.8 1.3 21.9 6.1-5.5 9.1-8.7 14.8-14.1l1.7 2.4c5.9-6.4 10.6-13.9 15.4-21 13-.6 15.8-3.9 17.9-11.1 4-12.2 9.4-23.9 16.5-31.9 7.3-8.3 9.2-25.4 10.2-39.4.7-13.7 1.3-33.5-9.2-39zm-106.2 134.7c-2 5.7-4 13.1-6.9 17.4-9 13.5-32.7 17.9-49.6 20.7-1.3 6.7-4.2 20.9-4.2 20.9l15.3-8.1s25.8-.2 47.7-11c13.5-6.7 9-41.7 9-41.7-4.1.7-7.4 1.3-11.3 1.8zm-234.4 58c-1.7 9.2-6.7 17.5-14.6 23.3-.3 1.1-.1 2.8.3 4-2.2 4.2-6.7 8.5-6.7 12.6 4 5.6 13.9 16.9 13.9 16.9s8.5-23.9 13.5-35.3l71.4-66c-.1.2-50.9 2.2-77.8 44.5z"/></g></g></svg>