<?xml version="1.0" encoding="utf-8"?>
<!-- Generator: Adobe Illustrator 12.0.0, SVG Export Plug-In . SVG Version: 6.00 Build 51448)  -->
<!DOCTYPE svg PUBLIC "-//W3C//DTD SVG 1.1//EN" "http://www.w3.org/Graphics/SVG/1.1/DTD/svg11.dtd" [
	<!ENTITY ns_svg "http://www.w3.org/2000/svg">
	<!ENTITY ns_xlink "http://www.w3.org/1999/xlink">
]>
<svg  version="1.1" id="BUFFALO_BILLS" xmlns="&ns_svg;" xmlns:xlink="&ns_xlink;" width="279.007" height="200"
	 viewBox="0 0 279.007 200" overflow="visible" enable-background="new 0 0 279.007 200" xml:space="preserve">
<g>
	<path fill="#FFFFFF" d="M276.509,33.534c-4.065-7.479-19.201-10.212-30.034-9.43c-7.021-9.707-16.25-18.339-28.219-23.614
		c-0.27,0.675-0.691,1.725-0.913,2.535C213.887,2.009,206.017,0.087,199.524,0l-0.043,2.242c-7.021,0.906-16.904,2.182-20.208,2.853
		c0.494,1.682,0.643,2.469,1.055,3.558c-23.905,6.584-45.703,19.199-65.295,36.114c0.855,0.261,1.448,0.639,1.75,0.673
		c-21.356,8.06-36.979,20.576-50.589,33.326c-16.092,2.491-44.978,6.239-44.978,6.239L0,127.034l56.114-11.836
		c-4.681,13.26-17.479,25.097-29.265,33.072c-1.561,8.144-5.807,15.856-13.26,20.795c3.484,3.903-0.805,8.831-1.414,12.99
		c4.768,6.154,14.5,17.945,14.5,17.945l5.98-24.955l12.038-12.267c-0.769,2.063-0.485,4.406-0.25,5.308
		c-1.077,2.233-4.072,4.982-4.298,8.851c4.557,5.918,13.308,16.655,13.308,16.655s6.326-16.817,9.186-25.392l48.61-44.909
		c3.679-0.54,12.661-0.43,19.163-0.247l2.772-2.686l13.69-1.039c1.13,1.839,1.771,3.001,2.517,4.42
		c-2.48,1.423-4.63,2.539-6.996,3.71l-6.181,22.082c0,0,11.846-6.392,17.94-9.586c2.21,0.348,7.357,0.21,10.021-0.366
		c-1.304,6.241-3.569,19.196-3.569,19.196s10.524-5.648,15.463-8.252c13.463,0.06,27.004-5.337,30.704-7.206
		c10.325-4.109,7.28-29.709,7.28-29.709c2.077-0.266,4.665-0.888,6.662-0.27c5.84,1.492,2.004,23.472,2.004,23.472l13.516-12.88
		l1.459,1.896c0,0,8.149-10.155,11.784-15.536c9.94,0.094,12.269-6.202,13.507-10.473c4.976-17.135,10.752-15.941,12.919-25.3
		C277.216,70.714,281.817,42.562,276.509,33.534z M6.916,121.663l16.447-33.177l222.265-32.514
		c-6.891,3.596-7.495,11.393-4.203,15.511C182.97,84.267,6.916,121.663,6.916,121.663z M60.991,165.08
		c-3.118,7.106-8.43,22.004-8.43,22.004s-6.129-7.099-8.641-10.565c-0.045-2.608,2.773-5.285,4.159-7.888
		c-0.258-0.778-0.345-1.821-0.171-2.512c4.939-3.64,8.06-8.84,9.098-14.559c16.806-26.396,48.491-27.65,48.491-27.65L60.991,165.08z
		 M204.63,140.354c-13.653,6.776-29.754,6.877-29.754,6.877l-9.559,5.061c0,0,1.862-8.895,2.643-13.054
		c10.549-1.766,25.364-4.548,30.953-12.939c1.826-2.741,3.065-7.349,4.29-10.883c2.425-0.346,4.507-0.707,7.021-1.053
		C210.224,114.362,213.031,136.153,204.63,140.354z M275.043,55.705c-0.604,8.689-1.814,19.379-6.347,24.545
		c-4.395,5.015-7.75,12.322-10.265,19.921c-1.324,4.502-3.063,6.566-11.191,6.928c-3.034,4.422-5.969,9.11-9.62,13.088l-1.039-1.476
		c-3.555,3.37-5.39,5.326-9.201,8.771c0.407-4.425,0.618-10.469-0.837-13.64c-2.169-3.555-5.82-4.404-9.462-3.88l-16.982,2.594
		c-1.075,3.553-2.18,8.574-4.784,12.212c-3.887,9.105-35.643,12.308-41.324,11.453c-3.987,1.99-7.886,4.507-12.045,6.413
		c1.142-4.258,3.761-13.244,3.761-13.244s5.568-2.832,8.236-4.319c-0.403-0.885-0.581-1.263-1.165-2.631
		c4.939-1.212,10.517-3.619,14.42-7.348c0,0-24.559,1.629-36.085,2.411c-0.702,0.879-1.389,1.734-2.253,2.251
		c-26.259-1.125-51.131,2.425-69.504,20.974c-5.893,5.893-12.306,12.26-16.119,19.02c-4.695,4.875-8.714,9.009-13.605,13.91
		l-5.2,18.847l-8.156-10.698c-1.098-1.514,3.839-8.245,1.309-11.704c5.893-4.244,10.661-12.525,12.052-19.432
		c11.906-8.025,26.652-22.168,31.027-36.425c0,0,182.247-39.564,184.846-40.077c-1.212,3.468-0.521,8.233,3.379,10.052
		c1.906,0.435,3.988-0.174,5.633-1.297c-0.854-0.798-2.515-1.906-2.944-3.553c-0.783-2.082,0.345-3.9,1.647-5.376
		c-2.343-5.2-0.435-11.178,2.686-15.424c2.164-2.86,5.623-6.136,8.05-8.735L72.229,77.724c0,0,25.094-23.454,52.925-31.825
		c-0.837-0.355-2.896-1.215-4.402-1.759c19.814-16.19,42.049-28.121,63.899-33.319c-0.323-1.094-0.634-1.922-1.014-3.162
		c0.664-0.082,18.623-2.733,18.623-2.733c-0.053-0.556-0.042-0.634-0.107-1.455c4.354-0.021,13.537,2.372,17.009,3.534
		c0.233-0.549,0.517-1.169,0.668-1.533c13.429,5.985,24.396,22.049,24.396,22.049c8.838-0.965,18.096,0.11,25.2,3.839
		C276.024,34.804,275.64,47.142,275.043,55.705z"/>
	<path fill="#BF2026" d="M245.627,55.972L23.362,88.486L6.916,121.663c0,0,176.054-37.396,234.509-50.179
		C238.132,67.365,238.736,59.568,245.627,55.972z"/>
	<g>
		<path fill="#194787" d="M269.426,31.36c-7.104-3.729-16.362-4.804-25.2-3.839c0,0-10.967-16.064-24.396-22.049
			c-0.151,0.364-0.435,0.984-0.668,1.533c-3.473-1.162-12.656-3.555-17.009-3.534c0.066,0.821,0.055,0.899,0.107,1.455
			c0,0-17.959,2.651-18.623,2.733c0.38,1.24,0.691,2.068,1.014,3.162c-21.851,5.198-44.085,17.128-63.899,33.319
			c1.505,0.544,3.564,1.404,4.402,1.759C97.323,54.27,72.229,77.724,72.229,77.724l191.729-27.888
			c-2.427,2.599-5.886,5.875-8.05,8.735c-3.121,4.246-5.029,10.224-2.686,15.424c-1.302,1.476-2.43,3.294-1.647,5.376
			c0.43,1.647,2.091,2.755,2.944,3.553c-1.645,1.123-3.727,1.732-5.633,1.297c-3.9-1.819-4.591-6.584-3.379-10.052
			c-2.599,0.513-184.846,40.077-184.846,40.077c-4.375,14.257-19.121,28.4-31.027,36.425c-1.391,6.907-6.159,15.188-12.052,19.432
			c2.53,3.459-2.407,10.19-1.309,11.704l8.156,10.698l5.2-18.847c4.891-4.9,8.911-9.034,13.605-13.91
			c3.813-6.76,10.226-13.127,16.119-19.02c18.373-18.549,43.246-22.1,69.504-20.974c0.865-0.517,1.551-1.373,2.253-2.251
			c11.526-0.782,36.085-2.411,36.085-2.411c-3.903,3.729-9.48,6.136-14.42,7.348c0.583,1.368,0.762,1.746,1.165,2.631
			c-2.667,1.487-8.236,4.319-8.236,4.319s-2.62,8.986-3.761,13.244c4.159-1.906,8.058-4.422,12.045-6.413
			c5.681,0.855,37.437-2.347,41.324-11.453c2.604-3.638,3.708-8.659,4.784-12.212l16.982-2.594c3.642-0.524,7.293,0.325,9.462,3.88
			c1.455,3.171,1.245,9.215,0.837,13.64c3.811-3.445,5.646-5.401,9.201-8.771l1.039,1.476c3.651-3.978,6.586-8.666,9.62-13.088
			c8.128-0.362,9.867-2.425,11.191-6.928c2.515-7.6,5.871-14.907,10.265-19.921c4.532-5.166,5.743-15.856,6.347-24.545
			C275.64,47.142,276.024,34.804,269.426,31.36z"/>
		<path fill="#194787" d="M203.203,115.415c-1.224,3.534-2.464,8.142-4.29,10.883c-5.589,8.392-20.404,11.173-30.953,12.939
			c-0.78,4.159-2.643,13.054-2.643,13.054l9.559-5.061c0,0,16.101-0.101,29.754-6.877c8.4-4.2,5.593-25.991,5.593-25.991
			C207.709,114.708,205.628,115.069,203.203,115.415z"/>
		<path fill="#194787" d="M57.006,151.559c-1.039,5.719-4.159,10.919-9.098,14.559c-0.174,0.691-0.087,1.734,0.171,2.512
			c-1.386,2.604-4.205,5.28-4.159,7.888c2.512,3.466,8.641,10.565,8.641,10.565s5.312-14.898,8.43-22.004l44.506-41.17
			C105.497,123.909,73.812,125.163,57.006,151.559z"/>
	</g>
</g>
</svg>
