<svg xmlns="http://www.w3.org/2000/svg" width="512" height="512" viewBox="0 0 512 512"><path d="M451.963 153.983c.103-.253.19-.487.265-.71l.159-.566-.012-.03c-.682-1.954-2.044-2.096-4.906-1.873-4.18.797-8.047 1.301-11.293 1.629l-.525.052-.38.033c-.485.048-.951.089-1.405.126l-.199.017c-4.191.34-6.837.355-6.837.355 10.701 8.094 11.953 20.627 11.953 20.627l.546-.467c8.216-5.966 12.634-19.193 12.634-19.193"/><path fill="#D1D3D4" d="M340.751 220.542c5.31 15.638-3.629 36.585-3.629 36.585 11.729-10.052 20.94-30.716 20.94-30.716 19.271-3.911 29.889 0 29.889 0 2.513 15.08-3.081 27.363-3.081 27.363 11.176-8.934 16.205-32.674 16.205-32.674s-4.47-4.186-24.292-5.583c-19.836-1.398-36.032 5.025-36.032 5.025M355.206 280.354s-5.829 16.208-11.809 22.193c0 0 7.729 4.236 21.196 2.99 13.459-1.242 16.704-6.229 17.956-11.219 1.244-4.986 0-11.969-2.248-17.204 0 0 .999 13.215-8.229 19.949 0 0-9.943 2.079-16.426.087 0-.001 2.55-5.322-.44-16.796"/><path fill="#D1D3D4" d="M323.467 154.377l.412.086-.412-.086c-8.126-1.543-11.551 4.591-11.551 4.591-2.575 3.812-1.596 5.636-1.596 5.636 25.044-.438 38.546 3.604 38.546 3.604s-9.325-10.197-24.371-13.619l-1.028-.212zM423.535 167.238c-3.297-3.07-10.324-7.029-18.014-5.492-7.687 1.544-8.132 9.886-8.132 9.886 8.348-7.686 26.146-4.394 26.146-4.394"/><path fill="#0099D8" d="M237.141 183.681s41.271-7.902 88.476 3.249c1.698-1.523 3.651-3.072 5.915-4.646-.001 0-43.286-12.009-94.391 1.397M237.363 199.8s36.175-9.018 80.281-2.935c.838-1.672 1.974-3.434 3.464-5.258-15.916-1.825-48.225-3.253-83.745 8.193M238.282 215.406s34.183-10.557 77.286-7.577c-.207-1.541-.227-3.387.171-5.472-17.282-.466-46.375 1.104-77.457 13.049M137.471 323.042h.017l.205.025c.749.065 3.159.288 3.293.303.329.029 4.464.464 4.5.469 5.877.657 11.83 1.486 17.828 2.504v-.003c13.524-49.496 51.572-75.951 51.572-75.951-51.464 24.889-73.104 65.411-77.415 72.653M380.137 254.482c-3.217-14.932 5.29-25.155 5.29-25.155-19.334 16.957-7.627 33.931-1.78 47.101 5.857 13.171 3.518 22.837-2.337 29.567-5.853 6.736-21.955 7.317-32.784 5.271-10.824-2.05-16.39-13.47-19.319-26.932-2.925-13.459 2.345-37.176 2.345-37.176-7.902 12.007-7.902 36.591-1.76 56.495 6.149 19.901 22.246 24.876 33.953 24.876 11.713 0 32.787-9.95 29.533-33.65-3.246-23.693-9.919-25.472-13.141-40.397M254.249 266.582c-20.196-20.446-20.808-43.575-20.808-43.575s-6.931 26.967 9.528 47.16c16.46 20.201 56.539 22.402 56.539 22.402s-25.064-5.539-45.259-25.987M356.388 178.092c23.74 9.22 23.459 23.463 23.459 23.463 3.629-13.685 20.391-20.944 20.391-20.944s-8.66-4.189-20.668-5.027c-12.009-.841-23.182 2.508-23.182 2.508M323.467 154.377c-14.299-2.843-28.028 2.889-28.718 3.182l-.018.005-.011.003v.003c13.175.225 17.192 1.396 17.192 1.396s3.429-6.134 11.555-4.589"/><path fill="#0099D8" d="M369.954 340.124l-.003.009c-.153.051-8.549 3.013-18.944 1.142 0 0 13.749 13.304 27.713 42.407l.021.045.539-.04c-1.346-13.263-7.008-35.479-8.312-39.584l-1.014-3.979z"/><path d="M430.821 200.758c-.278-1.594-.725-2.949-1.278-4.127-.006 0-.454-1.125-1.8-2.884-1.159-1.471-2.451-2.625-3.626-3.736-2.573-2.425-7.198-3.867-7.198-3.867l-.006-.003c3.217 2.45 5.685 5.963 5.938 11.022.747 15.567-15.316 21.851-15.316 21.851 3.766-2.519 10.543-11.053 8.786-22.108-1.758-11.049-16.08-16.297-16.08-16.297s-16.765 7.261-20.394 20.946c0 0 .281-14.243-23.459-23.462 0 0 11.17-3.354 23.182-2.514 12.011.837 20.671 5.029 20.671 5.029s2.218-5.853 14.004-7.855c11.786-1.999 24.538.884 24.538.884-2.356-4.297-5.068-10.561-16.914-15.404-11.849-4.84-22.475-.458-22.475-.458s-.774-5.719-9.381-11.292c-13.996-9.052-51.005-14.447-58.141-14.828-7.133-.38 5.344 4.213 10.347 7.064 5.682 3.238 12.048 8.738 12.59 13.956.14 1.398-.189 2.625-.82 3.64-.5-1.461-1.553-3.32-3.407-5.696-10.131-13.024-35.859-18.653-55.153-17.365-19.297 1.284-34.624 8.586-34.624 8.586.216 1.78-7.123 8.006-27.355 10.233-19.284 2.115-32.888-1.41-37.786-2.131-.126-.033-.252-.061-.372-.071-1.986-.252-3.473-.155-4.095 1.271l-.069.198-.041.259c-.085.995.523 2.37.523 2.37l-.282-.54c1.376 2.639 9.582 17.755 20.386 25.521 0 0 6.46-1.368 14.126-2.189 0 0-118.445 57.64-166.432 147.708 20.912-2.447 48.419-4.03 78.287-1.399l-.205-.021h-.019c4.312-7.247 25.952-47.77 77.419-72.658 0 0-38.053 26.451-51.576 75.949 17.204 2.926 34.777 7.454 51.983 14.147 55.316 21.561 101.943 44.097 154.501 43.633l8.939-.394-.021-.045c-13.958-29.099-27.707-42.407-27.707-42.407 10.393 1.871 18.786-1.091 18.939-1.142.792-.287 1.468-.568 2.03-.825 17.184-9.27 20.061-24.951 21.469-36.193 1.618-12.994-.688-21.311-.688-21.311s29.752-39.06 37.311-69.799c.004.001 1.747-5.557.751-11.246m-25.3-39.009c7.692-1.537 14.717 2.418 18.014 5.492 0 0-17.798-3.296-26.141 4.394-.002-.001.441-8.348 8.127-9.886m-110.8-4.176l.011-.003.018-.006c.71-.301 15.077-6.311 29.743-2.973 15.046 3.425 24.377 13.623 24.377 13.623s-13.505-4.045-38.549-3.607c0 0-.979-1.826 1.596-5.633 0 0-4.012-1.17-17.195-1.396v-.005h-.001zm36.813 24.711c-2.267 1.573-4.226 3.123-5.921 4.645-47.202-11.149-88.473-3.248-88.473-3.248 51.106-13.406 94.394-1.397 94.394-1.397m-88.567 87.892c-16.457-20.198-9.53-47.167-9.53-47.167s.614 23.128 20.808 43.577c20.199 20.445 45.265 25.987 45.265 25.987s-40.084-2.203-56.543-22.397m72.6-62.344c-43.103-2.983-77.286 7.574-77.286 7.574 31.083-11.947 60.178-13.517 77.451-13.05-.391 2.084-.375 3.929-.165 5.476m2.071-10.97c-44.1-6.079-80.275 2.939-80.275 2.939 35.52-11.446 67.83-10.02 83.745-8.194-1.489 1.827-2.625 3.584-3.47 5.255m75.642 98.018c3.249 23.7-17.823 33.649-29.53 33.649-11.71 0-27.812-4.975-33.954-24.875-6.147-19.906-6.147-44.488 1.755-56.497 0 0-5.267 23.715-2.34 37.177 2.928 13.462 8.487 24.879 19.317 26.931 10.832 2.046 26.926 1.464 32.787-5.271 5.849-6.731 8.188-16.396 2.337-29.567-5.853-13.172-17.56-30.144 1.78-47.102 0 0-8.516 10.223-5.29 25.155 3.217 14.927 9.89 16.706 13.138 40.4m-21.208 2.182c9.226-6.733 8.229-19.954 8.229-19.954 2.248 5.24 3.492 12.223 2.248 17.213-1.252 4.982-4.497 9.971-17.956 11.216-13.468 1.242-21.196-2.987-21.196-2.987 5.985-5.988 11.806-22.194 11.806-22.194 2.993 11.476.44 16.792.44 16.792 6.486 1.99 16.429-.086 16.429-.086m12.798-43.287s5.594-12.286 3.081-27.367c0 0-10.617-3.906-29.889 0 0 0-9.211 20.664-20.943 30.719 0 0 8.938-20.946 3.635-36.585 0 0 16.193-6.421 36.021-5.027 19.831 1.396 24.301 5.585 24.301 5.585s-5.03 23.743-16.206 32.675"/><path fill="#0099D8" d="M490.342 220.475c-17.395-9.492-37.123-12.441-52.249-13.027h-.088.088c.57-1.918 1.261-4.355 1.928-6.984l.573-.038c30.326-.995 46.357 7.029 46.357 7.029l-1.525-1.175c-14.779-6.85-30.396-9.346-43.917-9.731h-.548c.471-2.102 1.07-6.368 1.195-6.36l.312.01c23.334.244 36.058 5.776 36.058 5.776l-1.53-1.205c-11.571-4.937-23.408-7.173-34.488-7.91.068-4.315-.658-7.871-2.291-10.941 8.555-7.425 11.718-18.735 12.17-23.2v-.019c.037-.147.113-.554.128-.64l.028-.254c.02-.156.025-.302.025-.442l-.003-.23-.037-.386-.031-.198-.103-.337-.06-.167-.139-.292-.085-.144-.174-.253-.099-.118-.208-.208-.113-.096-.23-.176-.107-.076-.241-.139-.11-.065-.25-.106-.105-.046-.235-.086-.097-.03-.228-.061-.076-.021-.202-.045-.065-.014-.158-.023-.04-.005-.185-.022c-14.771.165-26.915-4.855-26.915-4.855l-.991-.358c-32.861-12.021-66.963-15.465-97.333-14.913l-.009-.029c-13.559.122-23.468 1.234-23.468 1.234-43.595 3.685-74.85 14.126-74.85 14.126s-11.866 3.351-27.668 2.564c0 0-5.866-.101-7.026 3.627-.994 2.378-1.127 5.212 1.11 11.409 2.575 7.143 12.88 20.569 12.959 20.676-31.182 12.66-112.39 58.212-185.147 149.798 0 0 15.374-3.998 39.555-6.831 47.989-90.069 166.431-147.709 166.431-147.709-7.663.82-14.123 2.188-14.123 2.188-10.807-7.765-19.012-22.879-20.385-25.515l.282.538s-.61-1.378-.524-2.373l.041-.26.069-.197c.62-1.427 2.112-1.523 4.098-1.27.115.01.242.036.371.071 4.898.723 18.504 4.249 37.788 2.131 20.232-2.229 27.571-8.45 27.355-10.236 0 0 15.324-7.298 34.621-8.582 19.294-1.291 45.022 4.339 55.153 17.363 1.859 2.378 2.91 4.241 3.41 5.697.631-1.01.96-2.237.82-3.64-.542-5.216-6.908-10.718-12.59-13.958-5.003-2.85-17.479-7.444-10.341-7.061 7.13.381 44.139 5.774 58.132 14.828 8.614 5.571 9.384 11.29 9.384 11.29s10.626-4.376 22.466.459c11.854 4.844 14.566 11.106 16.923 15.405 0 0-1.249-12.533-11.953-20.628 0 0 2.648-.013 6.84-.354l.198-.018 1.409-.126.374-.035.534-.05h-.009c3.246-.327 7.11-.832 11.293-1.628 2.862-.227 4.225-.084 4.903 1.873l.015.03-.159.566c-.077.227-.159.463-.267.717 0 0-4.416 13.227-12.63 19.187l-.546.466s-12.752-2.885-24.535-.887c-11.789 2.006-14.013 7.858-14.013 7.858s14.325 5.251 16.083 16.3c1.757 11.05-5.023 19.589-8.786 22.102 0 0 16.066-6.284 15.311-21.85-.247-5.058-2.715-8.572-5.932-11.017l.006.003s4.623 1.437 7.198 3.861c1.178 1.111 2.47 2.265 3.626 3.736 1.349 1.763 1.794 2.889 1.8 2.889.554 1.173 1 2.529 1.278 4.123.996 5.692-.744 11.245-.744 11.245-7.567 30.74-37.316 69.8-37.316 69.8l.012-.014c22.494-19.189 37.483-53.136 44.048-70.238 35.462.384 54.836 10.257 54.836 10.257l-1.317-1.33z"/></svg>