<svg width="512" height="512" viewBox="0 0 512 512" xmlns="http://www.w3.org/2000/svg" xmlns:sketch="http://www.bohemiancoding.com/sketch/ns"><title>chicago-bears</title><desc>Created with Sketch.</desc><g sketch:type="MSLayerGroup" fill="none"><path d="M367.91 264.443h65.714c-18.364 122.815-257.2 152.872-328.084 26.186-11.894-21.253-26.294-30.643-38.044-36.071 13.012-5.104 32.22-22.718 38.535-39.525 43.215-115.019 259.291-113.405 318.695-10.377h-78.064c-63.069-50.409-189.244-27.169-189.244 49.902 0 54.011 149.901 115.403 210.492 9.885zm51.878 9.882h-44.472c-60.584 105.517-229.258 49.508-229.258-19.762 0-85.477 140.496-110.689 203.57-60.285h54.348c-61.382-71.894-235.756-89.011-289.543 26.191-4.613 12.68-13.174 24.047-25.694 34.089 11.754 5.428 20.191 15.833 26.682 29.155 70.052 127.801 286.003 78.841 304.367-9.388z" fill="#fff" sketch:type="MSShapeGroup"/><path d="M375.316 274.325h44.472c-18.364 88.229-234.315 137.189-304.367 9.388-6.491-13.322-14.928-23.727-26.682-29.155 12.52-10.042 21.081-21.409 25.694-34.089 53.787-115.202 228.161-98.085 289.543-26.191h-54.348c-63.074-50.404-203.57-25.192-203.57 60.285 0 69.27 168.674 125.279 229.258 19.762" fill="#DF6107" sketch:type="MSShapeGroup"/><path d="M424.731 204.656h-.005.005zm-.005 0c-59.404-103.028-275.48-104.642-318.695 10.377-6.315 16.807-25.523 34.421-38.535 39.525 11.75 5.428 26.15 14.818 38.044 36.071 70.884 126.686 309.72 96.629 328.084-26.186h-65.714c-60.591 105.518-210.492 44.126-210.492-9.885 0-77.071 126.175-100.311 189.244-49.902h78.064z" stroke="#03182F" stroke-width="11.34" stroke-linecap="square" stroke-linejoin="round" sketch:type="MSShapeGroup"/></g></svg>