<svg xmlns="http://www.w3.org/2000/svg" width="512" height="512" viewBox="0 0 512 512"><g><g><path fill="#fff" d="M400.5 273.7h80.6c-22.5 150.6-315.5 187.5-402.4 32.1-14.6-26.1-32.3-37.6-46.7-44.2 16-6.3 39.5-27.9 47.3-48.5 53-141.1 318-139.1 390.9-12.7h-95.8c-77.4-61.8-232.1-33.3-232.1 61.2 0 66.2 183.9 141.5 258.2 12.1zm63.6 12.1h-54.5c-74.3 129.4-281.2 60.7-281.2-24.2 0-104.8 172.3-135.8 249.7-73.9h66.7c-75.4-88.3-289.2-109.3-355.2 32-5.7 15.6-16.2 29.5-31.5 41.8 14.4 6.7 24.8 19.4 32.7 35.8 85.9 156.8 350.8 96.7 373.3-11.5z"/><path fill="#DF6108" d="M409.6 285.8h54.5c-22.5 108.2-287.4 168.3-373.3 11.5-8-16.3-18.3-29.1-32.7-35.8 15.4-12.3 25.9-26.3 31.5-41.8 66-141.3 279.9-120.3 355.1-32.1h-66.7c-77.4-61.8-249.7-30.9-249.7 73.9.1 85 207 153.7 281.3 24.3z"/><g fill="none" stroke="#03182F" stroke-width="11.34" stroke-linecap="square" stroke-linejoin="round"><path d="M470.2 200.3"/><path d="M470.2 200.3c-72.9-126.3-337.9-128.3-390.9 12.8-7.8 20.6-31.3 42.2-47.3 48.5 14.4 6.7 32.1 18.2 46.7 44.2 86.9 155.4 379.9 118.5 402.4-32.1h-80.6c-74.3 129.4-258.2 54.1-258.2-12.1 0-94.5 154.8-123 232.1-61.2h95.8z"/></g></g></g></svg>