<svg width="512" height="512" viewBox="0 0 512 512" xmlns="http://www.w3.org/2000/svg" xmlns:sketch="http://www.bohemiancoding.com/sketch/ns"><title>cleveland-browns</title><desc>Created with Sketch.</desc><g sketch:type="MSLayerGroup" fill="none"><path d="M102.881 336.486c-1.353 7.695.439 15.996 3.743 22.127 1.972 3.658 3.409 6.885 3.484 10.541.427 20.81 45.117 4.249 47.981-2.7" fill="#fff" sketch:type="MSShapeGroup"/><path d="M101.886 336.311c-.32 1.822-.47 3.671-.47 5.516.003 6.221 1.69 12.382 4.319 17.265 1.957 3.628 3.296 6.692 3.362 10.083.042 2.001.47 3.738 1.246 5.196 1.163 2.194 3.094 3.704 5.415 4.625 2.325.926 5.053 1.304 7.991 1.306 6.968-.006 15.17-2.136 21.93-4.822 3.379-1.345 6.391-2.831 8.711-4.288 1.16-.729 2.147-1.45 2.931-2.162.78-.716 1.371-1.408 1.702-2.192l-1.868-.769c-.128.328-.532.871-1.193 1.466-1.153 1.051-3.045 2.287-5.39 3.506-7.04 3.676-18.209 7.253-26.824 7.239-3.688.005-6.878-.657-9.061-2.095-1.095-.719-1.953-1.62-2.562-2.763-.607-1.144-.972-2.546-1.008-4.289-.083-3.922-1.62-7.312-3.604-11-2.469-4.575-4.081-10.454-4.078-16.306 0-1.735.141-3.468.44-5.165l-1.989-.35" fill="#000" sketch:type="MSShapeGroup"/><path d="M332.908 189.968c1.484 2.819-7.836 2.331-15.344 1.844-3.43-.224-6.479-.446-7.949-.353-2.325.147-7.591.687-4.243 8.825 2.77 6.738 3.076 9.986 5.153 14.581 5.619 12.44 1.198 17.555-6.76 18.346-41.576 4.113-58.315 32.417-41.104 78.437 35.067 93.526-73.171 76.512-95.391 56.342-8.592-7.8-18.908-11.8-30.782-7.445-8.862 3.252-13.07 1.386-16.404-4.06-127.647-208.403 142.282-300.503 212.826-166.517" fill="#DE6107" sketch:type="MSShapeGroup"/><path d="M332.908 189.968l-1.787.942.731-.386h-.805c0 .241.07.376.075.386l.731-.386h-.805 1.216l-1.017-.671c-.112.16-.205.445-.199.671h1.216l-1.017-.671.665.439-.464-.659c-.021.015-.105.076-.202.22l.665.439-.464-.659.074.105-.068-.11-.006.005.074.105-.068-.11c-.002.006-.175.091-.459.164-.429.115-1.101.218-1.908.281-.809.064-1.757.094-2.786.093-2.613.001-5.733-.183-8.605-.37-2.882-.185-5.49-.376-7.261-.377-.339 0-.652.006-.948.025h.003c-.473.03-1.115.077-1.831.21-1.066.205-2.357.588-3.494 1.583-.561.495-1.061 1.151-1.393 1.932-.335.781-.501 1.668-.501 2.623.003 1.524.401 3.227 1.235 5.261 1.352 3.29 2.092 5.692 2.774 7.917.68 2.221 1.308 4.298 2.406 6.727 1.676 3.7 2.352 6.615 2.347 8.745-.001 1.181-.197 2.118-.52 2.88-.489 1.134-1.246 1.942-2.393 2.601-1.144.651-2.696 1.096-4.553 1.278-15.627 1.546-28.045 6.466-36.592 14.637-4.269 4.08-7.545 8.966-9.734 14.553-2.191 5.588-3.299 11.871-3.298 18.769 0 9.837 2.243 20.932 6.828 33.196 4.761 12.693 6.807 23.236 6.805 31.876-.001 7.191-1.406 13.057-3.828 17.85-1.818 3.595-4.213 6.597-7.08 9.109-4.299 3.764-9.685 6.419-15.733 8.13-6.045 1.71-12.74 2.47-19.576 2.469-10.759.002-21.862-1.88-31.328-4.759-4.732-1.439-9.054-3.126-12.711-4.933-3.657-1.805-6.646-3.742-8.694-5.604-3.205-2.908-6.676-5.343-10.426-7.059-3.746-1.715-7.779-2.704-12.033-2.702-3.344-.001-6.818.61-10.376 1.917-2.823 1.038-5.051 1.482-6.777 1.478-1.725-.008-2.939-.398-4.054-1.132-1.109-.738-2.141-1.905-3.156-3.566-23.684-38.67-33.508-73.161-33.507-102.795.001-19.523 4.258-36.953 11.666-52.156 11.114-22.799 29.35-40.607 51.083-52.73 21.728-12.122 46.942-18.534 71.876-18.532 21.723-.001 43.224 4.863 62.052 14.996 18.829 10.138 34.998 25.525 46.148 46.697l3.573-1.883c-11.522-21.892-28.324-37.89-47.809-48.372-19.485-10.486-41.643-15.478-63.964-15.479-34.163.006-68.752 11.68-94.895 33.461-13.067 10.892-24.016 24.32-31.694 40.07-7.678 15.748-12.076 33.815-12.075 53.926.001 30.539 10.124 65.758 34.104 104.906 1.202 1.963 2.583 3.627 4.358 4.815 1.77 1.191 3.912 1.822 6.295 1.812 2.403-.002 5.061-.588 8.168-1.726 3.147-1.154 6.131-1.669 8.986-1.67 3.629.001 7.062.833 10.354 2.337 3.289 1.503 6.43 3.689 9.39 6.376 2.453 2.223 5.725 4.306 9.62 6.233 5.84 2.885 13.081 5.4 20.975 7.209 7.893 1.806 16.433 2.902 24.853 2.902 6.341 0 12.614-.622 18.49-2.048 8.806-2.139 16.765-6.107 22.537-12.581 2.884-3.232 5.204-7.083 6.789-11.573 1.585-4.488 2.439-9.609 2.437-15.396 0-9.277-2.179-20.271-7.061-33.293-4.46-11.918-6.573-22.56-6.572-31.779 0-6.469 1.036-12.235 3.02-17.294 2.982-7.587 8.068-13.622 15.242-18.121 7.17-4.492 16.46-7.411 27.723-8.524 2.998-.303 5.735-1.161 7.824-2.963 1.037-.898 1.882-2.035 2.441-3.36.562-1.326.842-2.824.841-4.456-.005-2.957-.882-6.366-2.704-10.408-.978-2.165-1.541-4.009-2.226-6.245-.683-2.232-1.481-4.823-2.899-8.272-.705-1.705-.936-2.938-.932-3.724.004-.665.138-1 .276-1.229.108-.173.237-.304.428-.436.282-.195.719-.365 1.219-.469.498-.108 1.036-.154 1.511-.184h.003c.171-.01.407-.018.688-.018 1.494-.001 4.118.182 7 .37 2.894.187 6.074.378 8.867.379 1.988-.004 3.76-.087 5.235-.392.742-.163 1.422-.359 2.107-.79.339-.219.69-.516.978-.948.287-.427.472-1.004.466-1.551-.001-.579-.173-1.084-.39-1.497l-1.787.941" fill="#000" sketch:type="MSShapeGroup"/><path d="M309.845 191.503l12.386.197c-21.186-40.356-64.876-67.494-125.277-61.405 50.542-.52 91.051 22.805 112.891 61.209v-.001" fill="#312821" sketch:type="MSShapeGroup"/><path d="M336.157 193.084c1.316-.718 11.241-4.786 11.241-4.786l13.037 24.167c8.573 15.897-11.227 17.737-14.35 8.854l-9.926-28.236h-.001" fill="#7F8180" sketch:type="MSShapeGroup"/><path d="M336.157 193.084l.483.887c.112-.062.407-.204.793-.378 1.366-.619 3.963-1.713 6.206-2.647 1.122-.467 2.158-.896 2.913-1.207l1.227-.505-.381-.935-.888.479 13.036 24.167c1.45 2.687 2.016 4.89 2.014 6.61-.011 2.128-.811 3.543-2.048 4.543-1.242.992-2.994 1.514-4.822 1.513-1.642.001-3.327-.421-4.7-1.215-1.378-.797-2.434-1.938-2.954-3.412l-10.163-28.91h-.716v1.011l.483.887-.483-.887v1.01h.001v-1.01l-.952.335 9.926 28.236c.698 1.994 2.133 3.505 3.848 4.491 1.719.99 3.728 1.484 5.709 1.486 2.198-.002 4.387-.611 6.079-1.953 1.695-1.332 2.824-3.451 2.812-6.124-.002-2.164-.697-4.674-2.256-7.569l-13.468-24.968-.841.345c-.001 0-2.485 1.018-5.134 2.126-1.325.554-2.692 1.131-3.813 1.617-.561.242-1.062.462-1.466.646-.409.185-.712.328-.928.445l.483 1.896v-1.01" fill="#000" sketch:type="MSShapeGroup"/><path d="M265.077 363.933c28.817 3.047 72.395-4.062 54.576-72.024-3.819-14.603-6.274-41.564 15.069-48.815 11.03-3.747 15.915-8.313 10.524-23.928l-9.019-26.123-25.664-1.634c-5.104-.324-6.935 3.042-5.263 7.658l7.894 21.774c2.634 7.269-2.383 12.055-7.894 12.682-50.004 5.69-56.011 39.327-42.376 77.527 7.476 20.88 9.81 37.972 2.152 52.883" fill="#000" sketch:type="MSShapeGroup"/><path d="M265.077 363.933l-.106 1.003c3.383.359 6.967.578 10.638.578 11.398-.004 23.647-2.102 33.141-8.862 4.742-3.379 8.779-7.934 11.607-13.922 2.83-5.988 4.456-13.393 4.455-22.482 0-8.114-1.293-17.572-4.183-28.594-1.343-5.134-2.515-11.834-2.514-18.606-.002-6.122.959-12.294 3.549-17.442 2.596-5.147 6.759-9.296 13.383-11.555 4.033-1.374 7.34-2.863 9.716-5.08 1.185-1.108 2.122-2.407 2.751-3.925.628-1.518.945-3.244.945-5.205-.002-3.019-.739-6.602-2.258-11.006l-9.238-26.757-26.335-1.678c-.247-.016-.489-.024-.727-.024-1.89-.002-3.469.508-4.575 1.529-1.109 1.018-1.642 2.489-1.635 4.08 0 1.077.228 2.226.662 3.426l7.894 21.774c.46 1.275.661 2.44.661 3.496-.005 2.264-.901 4.056-2.317 5.404-1.414 1.343-3.371 2.204-5.403 2.434-17.807 2.024-30.228 7.586-38.2 15.754-7.975 8.169-11.394 18.883-11.387 30.898.002 9.996 2.343 20.923 6.373 32.217 4.261 11.897 6.817 22.506 6.815 32.097-.001 7.165-1.415 13.762-4.609 19.986l-.672 1.31 1.464.155.106-1.003.899.461c3.353-6.526 4.834-13.477 4.832-20.908-.002-9.953-2.635-20.767-6.932-32.777-3.977-11.138-6.255-21.857-6.254-31.537.005-11.652 3.272-21.752 10.813-29.487 7.543-7.733 19.467-13.164 36.982-15.159 2.438-.279 4.789-1.294 6.564-2.973 1.775-1.672 2.953-4.047 2.947-6.871 0-1.312-.249-2.715-.783-4.185l-7.893-21.775c-.371-1.022-.543-1.949-.543-2.736.007-1.177.355-2.007.986-2.595.635-.586 1.658-.991 3.205-.994.192 0 .392.007.6.021l24.994 1.592 8.8 25.487c1.477 4.273 2.148 7.661 2.146 10.346 0 1.747-.277 3.192-.791 4.432-.77 1.853-2.072 3.29-3.959 4.553-1.882 1.259-4.344 2.312-7.292 3.312-7.116 2.407-11.761 7.012-14.538 12.56-2.784 5.55-3.762 12.021-3.764 18.348.002 7.004 1.203 13.846 2.583 19.118 2.855 10.893 4.116 20.184 4.116 28.083 0 8.851-1.58 15.946-4.261 21.619-4.026 8.505-10.526 13.87-18.161 17.166-7.631 3.291-16.396 4.462-24.762 4.461-3.59 0-7.107-.215-10.425-.567l-.107 1.005.899.461-.899-.461" fill="#000" sketch:type="MSShapeGroup"/><path d="M319.894 190.499l12.299.018c-18.97-39.85-71.08-72.012-134.152-60.33 55.639-5.328 104.071 19.881 121.853 60.312" fill="#fff" sketch:type="MSShapeGroup"/><path d="M334.723 243.093c11.03-3.747 15.915-8.312 10.524-23.927l-9.019-26.123-25.664-1.634c-5.104-.324-6.935 3.041-5.263 7.657l7.894 21.775c2.634 7.269-2.383 12.054-7.894 12.682-4.227.48-8.138 1.161-11.75 2.027 8.452 4.75 56.887-3.961 41.172 7.543" fill="#fff" sketch:type="MSShapeGroup"/><path d="M334.723 243.093l.324.957c4.033-1.374 7.34-2.862 9.716-5.08 1.185-1.108 2.122-2.406 2.751-3.924.628-1.518.945-3.244.945-5.205-.002-3.019-.739-6.602-2.258-11.006l-9.238-26.757-26.335-1.678c-.247-.016-.491-.024-.729-.024-1.89-.002-3.468.508-4.574 1.529-1.109 1.018-1.642 2.488-1.635 4.079 0 1.077.228 2.226.662 3.426l7.894 21.775c.46 1.275.661 2.44.661 3.495-.005 2.264-.901 4.056-2.317 5.405-1.414 1.342-3.371 2.203-5.404 2.434-4.263.483-8.214 1.172-11.872 2.048l-2.506.6 2.247 1.263c1.357.75 3.239 1.126 5.559 1.376 2.314.241 5.053.321 8 .321 6.133-.001 13.174-.346 18.989-.345 3.452-.002 6.48.125 8.549.495 1.031.18 1.821.434 2.248.684.215.123.333.237.378.303l.048.134c0 .049-.012.149-.088.312-.11.243-.366.61-.797 1.047-.431.439-1.034.949-1.816 1.522l.921 1.771-.324-.957.597.815c1.124-.824 1.959-1.562 2.55-2.273.295-.357.531-.709.702-1.077.17-.366.275-.756.276-1.16.003-.477-.163-.953-.432-1.319-.481-.646-1.166-1.008-1.963-1.3-1.202-.424-2.747-.663-4.587-.815-1.838-.15-3.962-.203-6.261-.203-5.887.001-12.928.346-18.989.346-2.91 0-5.593-.08-7.79-.311-2.193-.221-3.915-.629-4.781-1.128l-.494.882.235.981c3.57-.855 7.44-1.529 11.629-2.006 2.438-.28 4.789-1.295 6.564-2.975 1.775-1.672 2.953-4.047 2.947-6.871 0-1.312-.249-2.714-.783-4.184l-7.893-21.776c-.371-1.022-.543-1.949-.543-2.736.007-1.177.355-2.006.986-2.595.635-.585 1.657-.99 3.204-.993.193 0 .393.007.601.021l24.994 1.591 8.8 25.488c1.477 4.273 2.148 7.661 2.146 10.346 0 1.747-.277 3.192-.791 4.431-.77 1.854-2.071 3.29-3.959 4.553-1.882 1.259-4.344 2.312-7.292 3.312l.325.955.597.815-.597-.815" fill="#000" sketch:type="MSShapeGroup"/><path d="M334.723 243.093c11.03-3.747 15.915-8.312 10.524-23.927l-9.019-26.123-22.464-1.431c-5.104-.324-6.935 3.042-5.262 7.657l7.893 21.774c2.635 7.271-2.213 14.255-7.724 14.883-4.226.481-11.677.619-15.12-.376 8.452 4.75 56.887-3.961 41.172 7.543" fill="#fff" sketch:type="MSShapeGroup"/><path d="M334.723 243.093l.324.957c4.033-1.374 7.34-2.862 9.716-5.08 1.185-1.108 2.122-2.406 2.751-3.924.628-1.518.945-3.244.945-5.205-.002-3.019-.739-6.602-2.258-11.006l-9.238-26.757-23.134-1.474c-.248-.016-.491-.024-.729-.024-1.89-.002-3.468.508-4.575 1.529-1.108 1.018-1.642 2.488-1.635 4.08 0 1.076.229 2.225.662 3.425l7.894 21.774c.468 1.294.678 2.568.678 3.792.002 2.553-.919 4.895-2.338 6.645-1.419 1.753-3.32 2.885-5.23 3.099-1.887.215-4.478.363-7.036.362-1.51 0-3.012-.051-4.348-.166-1.335-.114-2.514-.299-3.341-.54l-.774 1.852c1.357.75 3.239 1.126 5.559 1.376 2.314.241 5.053.321 8 .321 6.133-.001 13.174-.346 18.989-.345 3.452-.002 6.48.125 8.549.495 1.031.18 1.821.434 2.248.684.215.123.333.237.378.303l.048.134c0 .049-.012.149-.088.312-.11.243-.366.61-.797 1.047-.431.439-1.034.949-1.816 1.522l.921 1.771-.324-.957.597.815c1.124-.824 1.959-1.562 2.55-2.273.295-.357.531-.709.702-1.077.17-.366.275-.756.276-1.16.003-.477-.163-.953-.432-1.319-.481-.646-1.166-1.008-1.963-1.3-1.202-.424-2.747-.663-4.587-.815-1.838-.15-3.962-.203-6.261-.203-5.887.001-12.928.346-18.989.346-2.91 0-5.593-.08-7.79-.311-2.193-.221-3.915-.629-4.781-1.128l-.494.882-.281.97c1.037.298 2.311.487 3.727.611 1.415.122 2.967.174 4.523.175 2.637-.001 5.278-.15 7.266-.376 2.538-.293 4.869-1.737 6.568-3.833 1.701-2.098 2.788-4.877 2.789-7.917 0-1.455-.249-2.966-.799-4.48l-7.893-21.774c-.371-1.022-.543-1.949-.543-2.736.007-1.178.355-2.007.986-2.595.635-.586 1.658-.991 3.205-.993.192 0 .392.005.6.019l21.794 1.388 8.8 25.488c1.477 4.273 2.148 7.661 2.146 10.346 0 1.747-.277 3.192-.791 4.431-.77 1.854-2.071 3.29-3.959 4.553-1.882 1.259-4.344 2.312-7.292 3.312l.325.955.597.815-.597-.815" fill="#000" sketch:type="MSShapeGroup"/><path d="M280.419 241.935c-33.611 18.8-23.728 51.221-10.318 85.107-11.045-37.811-18.35-65.054 10.318-85.107" fill="#D6D6D6" sketch:type="MSShapeGroup"/><path d="M176.7 355.943c.555 3.4-1.668 6.155-4.963 6.155-3.297 0-6.414-2.755-6.964-6.155-.557-3.399 1.666-6.153 4.961-6.153 3.296 0 6.415 2.755 6.965 6.153" fill="#fff" sketch:type="MSShapeGroup"/><path d="M176.7 355.943l-1.265.207c.045.284.068.557.068.821-.003 1.148-.404 2.09-1.053 2.759-.654.666-1.557 1.08-2.713 1.085-1.286.002-2.609-.548-3.662-1.482-1.056-.932-1.817-2.223-2.036-3.596v-.002c-.047-.285-.07-.56-.07-.824.003-1.147.404-2.088 1.053-2.756.653-.665 1.557-1.078 2.713-1.083 1.286-.003 2.609.548 3.662 1.482 1.057.932 1.818 2.222 2.038 3.595l1.265-.206 1.266-.205c-.329-2.025-1.404-3.811-2.87-5.108-1.465-1.293-3.351-2.12-5.361-2.123-1.798-.005-3.418.689-4.551 1.858-1.136 1.165-1.781 2.785-1.779 4.547 0 .407.034.82.103 1.239v-.002c.329 2.025 1.404 3.811 2.869 5.108 1.465 1.293 3.35 2.121 5.361 2.124 1.798.005 3.419-.69 4.551-1.861 1.136-1.165 1.781-2.786 1.779-4.549 0-.404-.033-.817-.102-1.234l-1.266.206" fill="#000" sketch:type="MSShapeGroup"/><path d="M335.472 213.003c1.05-.911 17.713.409 19.367 1.015 4.818 1.769 4.252 8.682-.509 7.614-6.425-1.441-12.416-1.439-18.773-1.861l-.084-6.768v.001" fill="#7F8180" sketch:type="MSShapeGroup"/><path d="M335.472 213.003l.661.763-.352-.408.2.506.153-.099-.352-.408.2.506.011-.003c.082-.03.424-.087.874-.114.453-.031 1.035-.047 1.701-.046 2.534-.001 6.277.214 9.521.488 1.622.136 3.122.287 4.283.429.581.073 1.077.142 1.453.206.368.06.649.131.667.141.942.347 1.598.909 2.039 1.557.439.648.649 1.39.647 2.058.001.648-.195 1.204-.502 1.563-.313.356-.706.579-1.395.59-.214 0-.457-.026-.731-.087-6.559-1.469-12.616-1.462-18.927-1.883l-.067 1.007 1.009-.012-.084-6.768-2.019.012v2.215l1.671-1.45-.661-.763 1.009-.001h-1.009l-1.01.012.097 7.703.93.061c6.403.422 12.33.425 18.62 1.838.404.09.796.136 1.172.136 1.211.009 2.272-.502 2.938-1.305.671-.8.978-1.825.979-2.867-.001-1.08-.328-2.201-.995-3.19-.666-.988-1.684-1.834-3.017-2.322-.295-.104-.596-.161-1.026-.237-1.466-.247-4.191-.529-7.155-.757-2.959-.227-6.129-.394-8.438-.394-.85 0-1.582.022-2.17.077-.294.028-.553.062-.793.117-.245.069-.462.099-.794.364l.662.763h1.009-1.009" fill="#000" sketch:type="MSShapeGroup"/><path d="M271.624 330.935c.301 9.527.771 19.011-3.89 29.779 29.475 4.084 69.275-15.073 45.835-72.079-6.737-16.381-30.317-14.35-27.063 9.306 2.726 19.808-6.57 27.105-14.883 32.994h.001" fill="#fff" sketch:type="MSShapeGroup"/><path d="M183.198 294.427c-8.071.043-14.445 6.357-14.503 14.777-.059 8.98 7.06 16.987 15.896 17.854 1.855.183 3.635.014 5.298-.415l10.774-15.694c-.645-8.434-7.471-15.612-15.835-16.432-.552-.054-1.089-.093-1.63-.09" fill="#000" sketch:type="MSShapeGroup"/><path d="M150.067 353.644c9.862 4.002 21.14 12.481 30.837 16.321 63.703 25.22 100.551-15.552 75.364-61.307 19.011 62.201-28.48 77.919-75.375 59.434-10.68-4.21-18.785-11.487-30.825-14.448h-.001" fill="#000" sketch:type="MSShapeGroup"/><path d="M163.82 335.218c12.451 17.706 37.783 17.408 47.601 4.307-15.283 10.368-31.919 9.076-47.601-4.307" fill="#000" sketch:type="MSShapeGroup"/><path d="M137.103 365.408c4.947-.763 8.747-.565 13.933 1.219.776.269 2.012.785-1.394 2.441-8.498 4.134-17.155 7.265-25.427 6.621-1.539-.121-2.886-1.853.174-3.137 3.64-1.526 5.434-3.871 5.051-7.666l6.095-1.916c-.411 1.059-.982 2.831 1.568 2.439v-.001" fill="#000" sketch:type="MSShapeGroup"/><path d="M108.855 356.002c1.161 1.212 2.085 2.312 2.741 3.569.655 1.259 1.067 2.691 1.16 4.664.109 2.49.91 4.347 2.201 5.537 1.288 1.193 2.961 1.648 4.6 1.646 2.141-.006 4.299-.736 5.998-1.785.85-.527 1.585-1.137 2.14-1.826.548-.685.945-1.473.95-2.366 0-.155-.014-.31-.038-.464l-1.991.339.01.125c.006.242-.132.641-.504 1.1-.547.687-1.56 1.437-2.753 1.973-1.193.544-2.563.886-3.811.883-1.289-.002-2.406-.345-3.229-1.107-.82-.763-1.451-2.016-1.555-4.147-.099-2.212-.591-3.987-1.387-5.506-.794-1.521-1.864-2.771-3.073-4.032l-1.457 1.397" fill="#000" sketch:type="MSShapeGroup"/><path d="M322.403 249.196c1.771-2.102-.612-2.837-1.794-1.676-11.355 11.186-9.477 22.949-6.696 32.424 1.053 3.587 2.167 2.202 1.673-.239-2.546-12.607.999-23.6 6.817-30.508" fill="#fff" sketch:type="MSShapeGroup"/><path d="M332.908 189.968l-1.787.942.731-.386h-.805c0 .241.07.376.075.386l.731-.386h-.805 1.216l-1.017-.671c-.112.16-.205.445-.199.671h1.216l-1.017-.671.665.439-.464-.659c-.021.015-.105.076-.202.22l.665.439-.464-.659.074.105-.068-.11-.006.005.074.105-.068-.11c-.002.006-.175.091-.459.164-.429.115-1.101.218-1.908.281-.809.064-1.757.094-2.786.093-2.613.001-5.733-.183-8.605-.37-2.882-.185-5.49-.376-7.261-.377-.339 0-.652.006-.948.025h.003c-.473.03-1.115.077-1.831.21-1.066.205-2.357.588-3.494 1.583-.561.495-1.061 1.151-1.393 1.932-.335.781-.501 1.668-.501 2.623.003 1.524.401 3.227 1.235 5.261 1.352 3.29 2.092 5.692 2.774 7.917.68 2.221 1.308 4.298 2.406 6.727 1.676 3.7 2.352 6.615 2.347 8.745-.001 1.181-.197 2.118-.52 2.88-.489 1.134-1.246 1.942-2.393 2.601-1.144.651-2.696 1.096-4.553 1.278-15.627 1.546-28.045 6.466-36.592 14.637-4.269 4.08-7.545 8.966-9.734 14.553-2.191 5.588-3.299 11.871-3.298 18.769 0 9.837 2.243 20.932 6.828 33.196 4.761 12.693 6.807 23.236 6.805 31.876-.001 7.191-1.406 13.057-3.828 17.85-1.818 3.595-4.213 6.597-7.08 9.109-4.299 3.764-9.685 6.419-15.733 8.13-6.045 1.71-12.74 2.47-19.576 2.469-10.759.002-21.862-1.88-31.328-4.759-4.732-1.439-9.054-3.126-12.711-4.933-3.657-1.805-6.646-3.742-8.694-5.604-3.205-2.908-6.676-5.343-10.426-7.059-3.746-1.715-7.779-2.704-12.033-2.702-3.344-.001-6.818.61-10.376 1.917-2.823 1.038-5.051 1.482-6.777 1.478-1.725-.008-2.939-.398-4.054-1.132-1.109-.738-2.141-1.905-3.156-3.566-23.684-38.67-33.508-73.161-33.507-102.795.001-19.523 4.258-36.953 11.666-52.156 11.114-22.799 29.35-40.607 51.083-52.73 21.728-12.122 46.942-18.534 71.876-18.532 21.723-.001 43.224 4.863 62.052 14.996 18.829 10.138 34.998 25.525 46.148 46.697l3.573-1.883c-11.522-21.892-28.324-37.89-47.809-48.372-19.485-10.486-41.643-15.478-63.964-15.479-34.163.006-68.752 11.68-94.895 33.461-13.067 10.892-24.016 24.32-31.694 40.07-7.678 15.748-12.076 33.815-12.075 53.926.001 30.539 10.124 65.758 34.104 104.906 1.202 1.963 2.583 3.627 4.358 4.815 1.77 1.191 3.912 1.822 6.295 1.812 2.403-.002 5.061-.588 8.168-1.726 3.147-1.154 6.131-1.669 8.986-1.67 3.629.001 7.062.833 10.354 2.337 3.289 1.503 6.43 3.689 9.39 6.376 2.453 2.223 5.725 4.306 9.62 6.233 5.84 2.885 13.081 5.4 20.975 7.209 7.893 1.806 16.433 2.902 24.853 2.902 6.341 0 12.614-.622 18.49-2.048 8.806-2.139 16.765-6.107 22.537-12.581 2.884-3.232 5.204-7.083 6.789-11.573 1.585-4.488 2.439-9.609 2.437-15.396 0-9.277-2.179-20.271-7.061-33.293-4.46-11.918-6.573-22.56-6.572-31.779 0-6.469 1.036-12.235 3.02-17.294 2.982-7.587 8.068-13.622 15.242-18.121 7.17-4.492 16.46-7.411 27.723-8.524 2.998-.303 5.735-1.161 7.824-2.963 1.037-.898 1.882-2.035 2.441-3.36.562-1.326.842-2.824.841-4.456-.005-2.957-.882-6.366-2.704-10.408-.978-2.165-1.541-4.009-2.226-6.245-.683-2.232-1.481-4.823-2.899-8.272-.705-1.705-.936-2.938-.932-3.724.004-.665.138-1 .276-1.229.108-.173.237-.304.428-.436.282-.195.719-.365 1.219-.469.498-.108 1.036-.154 1.511-.184h.003c.171-.01.407-.018.688-.018 1.494-.001 4.118.182 7 .37 2.894.187 6.074.378 8.867.379 1.988-.004 3.76-.087 5.235-.392.742-.163 1.422-.359 2.107-.79.339-.219.69-.516.978-.948.287-.427.472-1.004.466-1.551-.001-.579-.173-1.084-.39-1.497l-1.787.941" fill="#000" sketch:type="MSShapeGroup"/><path d="M318.389 261.478c13.45 20.693 28.472 34.107 82.285 26.48 5.628-.797 9.418.786 11.163 5.922 8.331 24.524 13.094 46.156 14.713 71.232.413 6.334-7.523 8.627-8.625-.168-3.039-24.259-7.693-45.83-15.561-69.033-52.962 12.372-76.534-9.469-85.243-22.081.035-4.117.13-8.233 1.269-12.351" fill="#7F8180" sketch:type="MSShapeGroup"/><path d="M318.389 261.478l-.846.55c5.451 8.387 11.231 15.701 19.802 20.893 8.569 5.194 19.852 8.212 36.178 8.21 7.837-.001 16.842-.693 27.291-2.174.868-.124 1.679-.185 2.435-.185 1.97.001 3.524.417 4.754 1.263 1.225.849 2.191 2.161 2.877 4.168 8.31 24.466 13.047 45.987 14.662 70.973l.012.407c-.001 1.337-.436 2.376-1.049 3.077-.615.704-1.395 1.057-2.133 1.056-.677-.005-1.353-.27-1.996-1.006-.637-.736-1.213-1.987-1.451-3.894-3.045-24.312-7.715-45.963-15.607-69.231l-.294-.867-.892.208c-10.969 2.562-20.651 3.644-29.182 3.644-16.203-.002-28.245-3.897-37.1-8.997-8.853-5.102-14.522-11.425-17.902-16.318l-.83.574 1.01.008c.032-4.109.135-8.128 1.233-12.092l-.974-.268-.846.55.846-.55-.973-.269c-1.181 4.273-1.269 8.486-1.305 12.612l-.003.319.182.264c3.515 5.09 9.397 11.641 18.554 16.92 9.156 5.278 21.583 9.269 38.108 9.267 8.701 0 18.539-1.103 29.641-3.697l-.23-.984-.956.324c7.845 23.137 12.483 44.627 15.515 68.833.274 2.187.952 3.829 1.925 4.962.968 1.133 2.258 1.714 3.526 1.708 1.388-.001 2.703-.659 3.654-1.749.953-1.091 1.549-2.623 1.547-4.406l-.018-.538c-1.624-25.167-6.413-46.909-14.765-71.492-.779-2.303-1.997-4.049-3.644-5.181-1.644-1.135-3.65-1.623-5.899-1.622-.866 0-1.771.072-2.719.206-10.375 1.471-19.29 2.154-27.008 2.154-16.09-.003-26.95-2.962-35.133-7.918-8.182-4.957-13.759-11.965-19.155-20.267l-1.222-1.88-.598 2.161.973.269" fill="#000" sketch:type="MSShapeGroup"/><path d="M313.06 200.736c-1.345-3.972-1.583-7.425 2.03-9.053l6.767-3.044c2.774-1.25 6.725-2.396 8.288 1.183l9.64 22.081c2.159 4.944 3.522 14.88-6.005 14.636l-6.596-.169c-4.907-.125-5.952-1.535-7.526-6.176l-6.597-19.458" fill="#7F8180" sketch:type="MSShapeGroup"/><path d="M313.06 200.736l.956-.324c-.528-1.551-.856-2.986-.853-4.156.001-.864.168-1.567.518-2.148.351-.579.896-1.082 1.824-1.503l6.767-3.044c1.32-.601 2.902-1.138 4.165-1.131.64.001 1.179.126 1.623.388.443.265.833.672 1.159 1.409l9.641 22.082c.793 1.808 1.483 4.405 1.479 6.763.002 1.813-.401 3.446-1.313 4.564-.458.565-1.042 1.023-1.833 1.359-.79.334-1.795.539-3.072.539l-.318-.003-6.593-.169c-1.18-.029-2.09-.138-2.784-.33-1.042-.298-1.602-.699-2.17-1.466-.561-.771-1.063-1.979-1.642-3.695l-6.597-19.458-.956.324-.956.324 6.597 19.458c.4 1.177.771 2.174 1.205 3.036.325.645.687 1.216 1.129 1.712.66.744 1.507 1.287 2.516 1.61 1.011.326 2.175.465 3.608.502l6.594.169.368.005c1.491 0 2.774-.241 3.858-.699 1.63-.682 2.775-1.874 3.448-3.259.68-1.388.93-2.954.932-4.525-.005-2.739-.758-5.522-1.648-7.572l-9.641-22.081c-.458-1.059-1.154-1.855-1.984-2.34-.829-.49-1.75-.669-2.649-.669-1.785.008-3.551.664-4.995 1.309l-6.766 3.044c-1.224.547-2.147 1.337-2.726 2.305-.582.966-.808 2.066-.806 3.189.002 1.531.399 3.142.96 4.804l.956-.324" fill="#000" sketch:type="MSShapeGroup"/><path d="M319.413 188.647c-1.398.628-2.553 1.49-3.354 2.629-.802 1.137-1.214 2.532-1.211 4.088 0 1.144.213 2.381.631 3.726l.008.024 6.775 18.383 1.894-.699-6.766-18.358-.947.349.964-.3c-.372-1.194-.541-2.234-.54-3.125.003-1.217.299-2.147.844-2.927.546-.778 1.374-1.427 2.529-1.948l-.827-1.842" fill="#000" sketch:type="MSShapeGroup"/><path d="M210.292 306.593c-2.701-1.724-2.931-4.256-1.353-6.768l6.533-9.667c1.692-2.503 3.243-2.141 5.92-.509l21.65 13.2c10.102 6.157-3.063 26.864-12.685 20.471l-20.062-16.726h-.002" fill="#7F8180" sketch:type="MSShapeGroup"/><path d="M210.292 306.593l.544-.851c-.697-.446-1.16-.922-1.451-1.4-.288-.48-.418-.965-.42-1.501-.001-.731.262-1.576.828-2.478l-.854-.538.836.566 6.534-9.667c.383-.568.729-.918 1.013-1.108.289-.189.502-.248.791-.253.277-.001.642.078 1.105.27.464.191 1.014.491 1.648.879l21.65 13.199c1.133.692 1.898 1.557 2.404 2.562.505 1.002.746 2.159.746 3.413.009 3.025-1.45 6.576-3.655 9.291-1.1 1.359-2.377 2.511-3.708 3.307-1.334.798-2.713 1.238-4.038 1.237-1.134-.002-2.243-.31-3.351-1.042l-.558.841.646-.777-20.344-16.96h-.367v1.011l.544-.851-.544.851v1.01h.002v-1.01l-.647.776 20.105 16.762.047.03c1.417.945 2.955 1.383 4.467 1.38 1.775-.001 3.499-.582 5.074-1.524 2.361-1.417 4.419-3.647 5.915-6.188 1.492-2.543 2.428-5.404 2.432-8.143 0-1.51-.291-2.989-.961-4.321-.667-1.333-1.719-2.506-3.156-3.379l-21.65-13.199c-.681-.415-1.308-.763-1.926-1.02-.617-.255-1.236-.424-1.879-.424-.666-.004-1.343.202-1.921.598-.581.394-1.08.947-1.557 1.652l-6.543 9.682-.008.014c-.714 1.137-1.136 2.339-1.138 3.553-.002.883.235 1.763.713 2.548.478.788 1.184 1.477 2.091 2.056l.248.158h.294v-1.01" fill="#000" sketch:type="MSShapeGroup"/><path d="M209.92 300.966l9.68 4.017-14.997 23.774c-4.071 6.455-12.846.008-9.087-5.743l14.404-22.049" fill="#7F8180" sketch:type="MSShapeGroup"/><path d="M209.92 300.966l-.387.933 8.573 3.558-14.357 22.762c-.53.838-1.117 1.383-1.716 1.728-.599.344-1.216.494-1.844.495-1.124.004-2.295-.512-3.164-1.354-.872-.842-1.419-1.972-1.417-3.15.002-.753.212-1.544.75-2.37l14.405-22.049-.846-.552-.387.933.387-.933-.845-.553-14.405 22.049c-.739 1.126-1.082 2.329-1.08 3.476.002 1.808.824 3.435 2.034 4.604 1.213 1.168 2.839 1.916 4.567 1.92.958.001 1.942-.239 2.852-.764.91-.523 1.737-1.324 2.414-2.402l15.636-24.786-11.559-4.798-.458.702.845.553" fill="#000" sketch:type="MSShapeGroup"/><path d="M210.382 310.07c-3.686-2.446-4.026-6.424-2.25-9.051l5.28-7.811c1.691-2.501.405-.649 2.006-2.948l25.562 15.638c10.103 6.159-1.001 23.816-10.625 17.423l-19.973-13.25v-.001" fill="#7F8180" sketch:type="MSShapeGroup"/><path d="M210.382 310.07l.559-.841c-2.039-1.365-2.831-3.129-2.84-4.806 0-1.02.309-2.012.868-2.837l5.278-7.812c.845-1.249.959-1.431 1.044-1.56l.954-1.377-.828-.577-.527.861 25.562 15.639c1.274.779 2.134 1.725 2.695 2.78.559 1.053.818 2.228.819 3.461.006 2.507-1.107 5.239-2.857 7.291-.872 1.026-1.896 1.883-2.99 2.473-1.095.591-2.254.918-3.428.918-1.229-.002-2.49-.351-3.779-1.204l-19.972-13.251-.559.842 1.01-.001v-.542l-.451-.299-.559.841-1.009.001v.542l20.424 13.55c1.588 1.056 3.27 1.543 4.895 1.541 1.553.001 3.043-.435 4.387-1.161 2.017-1.093 3.725-2.832 4.946-4.862 1.219-2.032 1.958-4.363 1.96-6.68.001-1.516-.322-3.03-1.053-4.409-.732-1.378-1.869-2.609-3.426-3.556l-26.373-16.134-.544.78c-.8 1.15-.876 1.258-.984 1.42-.095.143-.183.287-1.03 1.54l-5.278 7.811c-.785 1.16-1.214 2.542-1.214 3.97-.01 2.35 1.195 4.812 3.741 6.49l.558-.842h-1.009 1.009" fill="#000" sketch:type="MSShapeGroup"/><path d="M213.555 294.895l-1.471 2.078-3.116 4.612c-.559.826-.868 1.817-.868 2.837.009 1.677.801 3.441 2.84 4.806l.451.299v.001l19.521 12.95c1.289.853 2.549 1.202 3.779 1.204 1.173 0 2.332-.328 3.428-.918 1.094-.591 2.118-1.447 2.99-2.473l.034-.042c.48-.959.748-2.032.747-3.121-.001-1.141-.287-2.301-.933-3.407-.646-1.106-1.658-2.167-3.151-3.079l-19.88-12.174c-.849-.522-1.714-1.039-2.492-1.621-.736-.554-1.408-1.169-1.879-1.955" fill="#7F8180" sketch:type="MSShapeGroup"/><path d="M241.144 320.25l-.034.042c-.872 1.026-1.896 1.883-2.99 2.473-1.095.591-2.254.918-3.428.918-1.229-.002-2.49-.351-3.779-1.204 1.604 1.063 3.105 1.484 4.452 1.485 1.853-.001 3.463-.802 4.641-2.069.453-.488.837-1.043 1.137-1.645m-29.059-23.277l-.018.026-3.098 4.586c-.559.826-.868 1.817-.868 2.837 0-1.02.309-2.012.868-2.837l3.116-4.612" fill="#7B7D7C" sketch:type="MSShapeGroup"/><path d="M215.417 288.767l-.152.215.122.075.03-.29" fill="#000" sketch:type="MSShapeGroup"/><path d="M208.082 299.289l-.786 1.163c-.785 1.16-1.214 2.542-1.214 3.97v.028-.028c0-1.427.429-2.809 1.214-3.97l.783-1.158.003-.005m2.323-3.438l-.003.004-.27.4.273-.404" fill="#070300" sketch:type="MSShapeGroup"/><path d="M210.424 295.824l-.019.027-2.323 3.438-.003.005 2.345-3.47" fill="#000" sketch:type="MSShapeGroup"/><path d="M242.838 321.371c-1.056 1.298-2.329 2.398-3.759 3.171-1.344.727-2.834 1.162-4.387 1.161h-.011c-1.608 0-3.272-.478-4.843-1.515 1.868 1.233 3.758 1.797 5.523 1.797h.01c2.451 0 4.606-1.082 6.116-2.716.529-.571.983-1.21 1.351-1.898" fill="#070300" sketch:type="MSShapeGroup"/><path d="M215.008 292.644l-.761 1.129-2.163 3.2 1.471-2.078c.471.786 1.143 1.4 1.879 1.955.778.582 1.643 1.099 2.492 1.621l19.88 12.174c1.493.912 2.505 1.972 3.151 3.079.646 1.106.932 2.267.933 3.407.001 1.09-.267 2.163-.747 3.121 1.223-1.447 2.131-3.227 2.555-5.026-.192-.857-.521-1.707-.997-2.521-.828-1.419-2.099-2.722-3.843-3.783l-19.877-12.173c-1.145-.7-2.22-1.352-2.937-2.007-.361-.326-.628-.646-.796-.952-.168-.309-.249-.598-.252-.945l.011-.2" fill="#040404" sketch:type="MSShapeGroup"/><path d="M215.266 288.982l-4.842 6.842-3.127 4.629c-.785 1.16-1.214 2.542-1.214 3.97v.028c0 2.197 1.062 4.49 3.29 6.146v.017l20.424 13.55.041.026c1.571 1.037 3.235 1.515 4.843 1.515h.011c1.553.001 3.043-.435 4.387-1.161 1.43-.774 2.703-1.874 3.759-3.171.687-1.284 1.07-2.74 1.073-4.242 0-.63-.069-1.269-.212-1.905-.424 1.799-1.331 3.579-2.555 5.026-.3.602-.684 1.157-1.137 1.645-1.179 1.267-2.788 2.068-4.641 2.069-1.347-.001-2.849-.422-4.452-1.485l-19.521-12.95v-.001l-.451-.299-.559.841h-1.009 1.009l.559-.841-.559.841h-1.009 1.009l.559-.841c-2.039-1.365-2.831-3.129-2.84-4.806 0-1.02.309-2.012.868-2.837l3.098-4.586.018-.026 2.163-3.2.761-1.129.001-.025.378-3.562-.122-.075" fill="#000" sketch:type="MSShapeGroup"/><path d="M224.916 296.409c-2.08 2.081-10.249-3.128-8.953-5.375l27.389-41.241c9.94-15.214 22.252-22.468 36.596-26.8 13.712-4.141 27.464-5.999 41.14-8.614 5.91-1.13 8.413 6.101.478 7.895-14.89 3.373-29.959 6.257-44.01 11.247-12.453 4.423-21.239 13.253-29.181 25.842l-23.459 37.044v.001" fill="#7F8180" sketch:type="MSShapeGroup"/><path d="M224.916 296.409l-.715-.714c-.044.043-.1.083-.213.121-.111.037-.275.064-.485.064-.499.003-1.229-.164-1.999-.476-1.159-.463-2.414-1.236-3.324-2.03-.454-.396-.823-.797-1.052-1.136-.237-.339-.303-.605-.296-.67l.002-.026.001-.001-.873-.506.841.558 27.39-41.24.004-.006c9.818-15.006 21.84-22.084 36.042-26.386 13.612-4.113 27.324-5.968 41.038-8.589.364-.07.707-.102 1.028-.102 1.073.002 1.889.348 2.436.832.548.488.824 1.104.825 1.734-.002.586-.231 1.219-.869 1.85-.64.627-1.715 1.234-3.356 1.605-14.868 3.369-29.975 6.256-44.124 11.28-6.356 2.257-11.793 5.651-16.625 10.065-4.834 4.414-9.069 9.844-13.071 16.19l-23.615 37.29v.294h1.01l-.715-.714.715.714 1.01-.001h-1.01l.852.541 23.459-37.044c3.94-6.245 8.07-11.525 12.727-15.778 4.66-4.253 9.843-7.487 15.939-9.653 13.951-4.956 28.983-7.837 43.896-11.213 1.91-.434 3.341-1.175 4.32-2.131.978-.951 1.482-2.138 1.478-3.294.001-1.243-.563-2.415-1.506-3.247-.943-.836-2.26-1.34-3.776-1.339-.453 0-.924.045-1.408.138-13.638 2.61-27.429 4.469-41.242 8.639-14.486 4.363-27.088 11.791-37.149 27.215l.003-.006-27.407 41.266-.015.027c-.189.323-.276.693-.275 1.04.002.458.134.871.32 1.252.33.664.839 1.261 1.452 1.835.922.856 2.088 1.641 3.297 2.235 1.213.589 2.45 1.003 3.621 1.011.377 0 .751-.046 1.116-.165.364-.12.72-.32 1.011-.611l.296-.296v-.418h-1.01" fill="#000" sketch:type="MSShapeGroup"/><path d="M236.537 318.584c-.866 1.864-3.331 2.595-5.643 1.625-2.413-1.011-3.754-3.488-2.995-5.529.302-.813.893-1.436 1.647-1.825" fill="#7F8180" sketch:type="MSShapeGroup"/><path d="M236.066 318.364c-.504 1.089-1.682 1.75-3.095 1.754-.604 0-1.244-.124-1.876-.389-1.787-.744-2.897-2.376-2.888-3.855 0-.347.058-.686.18-1.014.256-.684.746-1.206 1.398-1.544l-.477-.924c-.855.441-1.546 1.164-1.896 2.106-.166.446-.244.912-.244 1.376.008 1.986 1.4 3.919 3.525 4.814.757.317 1.533.47 2.278.47 1.73.003 3.33-.835 4.038-2.355l-.943-.439" fill="#000" sketch:type="MSShapeGroup"/><path d="M238.177 316.803c-.761 2.041-3.333 2.877-5.746 1.866-2.411-1.012-3.753-3.487-2.994-5.529.76-2.039 3.334-2.877 5.746-1.865 2.412 1.011 3.753 3.487 2.994 5.528" fill="#7F8180" sketch:type="MSShapeGroup"/><path d="M238.177 316.803l-.487-.182c-.229.613-.644 1.092-1.196 1.431-.551.338-1.239.527-1.985.527-.604 0-1.244-.125-1.876-.39-1.785-.743-2.896-2.375-2.888-3.854 0-.347.058-.686.18-1.014.229-.611.644-1.091 1.195-1.43.552-.337 1.24-.526 1.986-.526.604 0 1.244.124 1.876.389 1.785.743 2.895 2.375 2.888 3.854 0 .346-.058.686-.18 1.014l.487.181.486.181c.165-.447.245-.912.245-1.376-.008-1.987-1.4-3.919-3.525-4.813-.757-.318-1.533-.47-2.278-.47-.921 0-1.797.233-2.528.679-.731.446-1.316 1.115-1.628 1.955-.166.446-.245.912-.245 1.375.008 1.987 1.401 3.919 3.525 4.814.757.317 1.533.47 2.278.47.921 0 1.796-.233 2.528-.68.731-.446 1.316-1.113 1.628-1.955l-.486-.181" fill="#000" sketch:type="MSShapeGroup"/><path d="M229.16 313.117c-.806 2.156-3.546 3.253-6.112 2.187-2.566-1.068-3.78-3.616-3.184-5.839.322-1.207 2.171-3.17 2.312-3.17" fill="#7F8180" sketch:type="MSShapeGroup"/><path d="M228.672 312.934c-.501 1.353-1.93 2.261-3.594 2.262-.594 0-1.217-.117-1.832-.372-1.951-.813-3.012-2.541-3.013-4.219 0-.339.044-.676.131-1.004.11-.448.627-1.237 1.127-1.845.249-.309.497-.581.681-.77l.217-.21.029-.023.007-.006-.141-.198.112.215.029-.018-.141-.198.112.215-.22-.42v.472c.16-.007.191-.043.22-.052l-.22-.42v.472-1.04c-.152.005-.202.041-.246.059l-.156.1c-.141.114-.312.284-.53.518-.322.348-.719.821-1.074 1.326-.352.507-.665 1.03-.81 1.553-.111.418-.166.846-.166 1.274 0 2.118 1.337 4.216 3.654 5.179.74.308 1.5.452 2.23.452 2.032.002 3.882-1.117 4.569-2.937l-.975-.365" fill="#000" sketch:type="MSShapeGroup"/><path d="M230.484 311.486c-.809 2.155-3.547 3.037-6.112 1.97-2.565-1.069-3.993-3.684-3.184-5.839.806-2.155 3.545-3.036 6.112-1.97 2.565 1.067 3.993 3.684 3.184 5.839" fill="#7F8180" sketch:type="MSShapeGroup"/><path d="M230.484 311.486l-.485-.183c-.247.653-.694 1.164-1.287 1.525-.591.36-1.33.561-2.131.561-.647 0-1.333-.132-2.009-.414-1.91-.79-3.101-2.523-3.092-4.096 0-.369.062-.731.193-1.079.245-.653.692-1.164 1.284-1.525.591-.36 1.33-.561 2.132-.561.647 0 1.333.131 2.01.414 1.91.789 3.1 2.522 3.092 4.096-.001.369-.062.731-.192 1.079l.485.183.486.182c.177-.469.26-.957.26-1.444-.009-2.086-1.483-4.117-3.731-5.057-.801-.333-1.622-.493-2.41-.493-.974 0-1.898.243-2.67.712-.772.467-1.388 1.167-1.718 2.049-.177.468-.26.958-.26 1.444.008 2.086 1.483 4.116 3.731 5.057.801.333 1.622.493 2.409.493.973-.001 1.898-.244 2.67-.712.771-.467 1.39-1.167 1.719-2.048l-.486-.183" fill="#000" sketch:type="MSShapeGroup"/><path d="M225.67 305.343l.394 8.446" fill="#7F8180" sketch:type="MSShapeGroup"/><path d="M224.891 305.38l.394 8.446 1.557-.073-.394-8.446" fill="#000" sketch:type="MSShapeGroup"/><path d="M252.851 239.059l49.386 108.287c25.435 55.772 93.327 32.468 113.318 27.071 12.416-3.35 13.733-10.505-2.199-13.874-19.987-4.227-35.866-14.809-43.468-33.332l-34.501-84.092c-1.008-2.457-10.024.874-8.459 4.567l33.49 79.016c8.565 20.207 23.597 37.68 40.93 39.254 4.34.395 18.005-1.256-9.978 4.399-33.026 6.675-66.133 4.882-79.664-24.534l-51.754-112.517c-.974-2.117-8.649 2.364-7.103 5.753l.001.001" fill="#7F8180" sketch:type="MSShapeGroup"/><path d="M252.851 239.059l-.919.419 49.386 108.287c6.639 14.569 16.205 23.892 27.054 29.513 10.849 5.626 22.945 7.573 34.709 7.574 11.046-.001 21.812-1.718 31.032-3.756 9.215-2.04 16.895-4.405 21.705-5.704 3.138-.848 5.62-1.932 7.388-3.208.881-.64 1.59-1.332 2.094-2.094.504-.759.799-1.607.798-2.48.002-.901-.317-1.789-.884-2.577-.856-1.188-2.239-2.206-4.159-3.119-1.923-.909-4.4-1.705-7.49-2.359-9.88-2.09-18.709-5.742-25.987-11.129-7.279-5.389-13.021-12.503-16.756-21.598l-34.501-84.092c-.231-.575-.713-.979-1.205-1.185-.498-.213-1.024-.283-1.57-.285-1.549.01-3.346.58-4.884 1.494-.765.461-1.462 1.012-2.001 1.676-.534.66-.924 1.467-.925 2.38 0 .421.086.854.263 1.265l33.489 79.016c4.325 10.202 10.279 19.723 17.388 26.93 7.104 7.201 15.396 12.116 24.381 12.936.685.062 1.518.075 2.389.076l2.647-.017c.621 0 1.164.01 1.502.041l.203.023.073.012.001.001.17-.585-.347.494.177.091.17-.585-.347.494.513-.732-.746.489c.085.129.173.2.233.243l.513-.732-.746.489.792-.518h-.946c-.003.193.069.392.154.518l.792-.518h-.946.93l-.809-.463c-.058.1-.123.263-.122.463h.93l-.809-.463.629.36-.414-.605c-.019.02-.095.05-.215.245l.629.36-.414-.605.111.163-.103-.168-.008.005.111.163-.103-.168-.298.126c-.667.248-2.211.666-4.839 1.266-2.635.602-6.379 1.396-11.547 2.441-9.707 1.962-19.408 3.185-28.582 3.185-10.944.001-21.126-1.74-29.704-5.993-8.577-4.256-15.579-10.994-20.26-21.159l-51.755-112.517c-.179-.402-.521-.729-.887-.902-.366-.176-.742-.232-1.107-.233-.743.005-1.492.226-2.263.561-1.15.509-2.328 1.303-3.275 2.276-.472.489-.884 1.023-1.193 1.608-.306.585-.51 1.231-.511 1.918-.001.455.095.925.296 1.365l.076.166.13.13.714-.714-.919.419.919-.419.713-.714-.001-.001-.713.714.918-.419c-.079-.177-.112-.341-.113-.527-.003-.366.158-.844.507-1.356.513-.766 1.415-1.558 2.347-2.117.465-.281.935-.506 1.355-.655.418-.151.789-.218 1.013-.216l.222.03.051-.105-.081.081.03.024.051-.105-.081.081.115-.115-.149.069.033.047.115-.115-.149.069 51.755 112.518c4.851 10.561 12.243 17.693 21.198 22.124 8.955 4.435 19.446 6.201 30.599 6.202 9.352-.001 19.179-1.243 28.982-3.225 6.62-1.338 10.913-2.267 13.574-2.917 1.332-.326 2.252-.579 2.88-.792.317-.109.556-.202.778-.32.113-.062.223-.126.361-.252.068-.064.145-.148.22-.278.074-.127.145-.317.145-.541.002-.22-.078-.446-.18-.594-.199-.282-.383-.358-.511-.421-.228-.097-.385-.12-.564-.148-.514-.072-1.181-.08-1.979-.082l-2.647.016c-.845.001-1.645-.015-2.207-.067-8.348-.755-16.241-5.363-23.127-12.343-6.881-6.973-12.726-16.294-16.965-26.299l-33.489-79.016c-.075-.177-.102-.326-.103-.477-.001-.315.137-.688.477-1.11.5-.629 1.428-1.273 2.44-1.717 1.008-.45 2.109-.707 2.873-.704.356-.001.631.057.767.12l.14.099 34.502 84.092c3.866 9.429 9.865 16.866 17.421 22.455 7.559 5.592 16.664 9.344 26.771 11.481 3.97.837 6.807 1.918 8.568 3.039.882.558 1.49 1.123 1.857 1.637.368.52.505.969.506 1.403 0 .42-.133.865-.462 1.366-.491.75-1.443 1.586-2.848 2.361-1.403.779-3.246 1.503-5.476 2.104-4.87 1.315-12.485 3.661-21.615 5.682-9.129 2.019-19.759 3.709-30.596 3.709-11.545 0-23.313-1.917-33.78-7.347-10.465-5.434-19.666-14.361-26.146-28.558l-49.462-108.453-.13-.129-.713.714" fill="#000" sketch:type="MSShapeGroup"/><path d="M227.803 274.681l21.527 21.535c11.658 11.659 28.596 19.107 61.95 15.313 39.133-4.45 67.23-9.848 90.894-14.118 3.972-.717 4.855-10.01-2.87-8.614-29.827 5.385-59.752 10.29-89.935 13.399-30.308 3.11-44.876-2.185-53.82-11.724l-21.647-23.09c-1.836-1.961-8.886 4.507-6.098 7.299" fill="#7F8180" sketch:type="MSShapeGroup"/><path d="M227.803 274.681l-.714.714 21.525 21.535c4.866 4.868 10.672 9.039 18.15 11.972 7.478 2.935 16.611 4.635 28.143 4.634 5.019 0 10.493-.321 16.487-1.003 39.168-4.454 67.302-9.859 90.958-14.127 1.256-.229 2.224-1.059 2.849-2.061.629-1.01.962-2.222.965-3.447 0-1.265-.368-2.574-1.271-3.597-.9-1.026-2.327-1.667-4.101-1.656-.524 0-1.081.052-1.672.159-29.815 5.382-59.715 10.284-89.858 13.389-5.86.601-11.121.885-15.856.885-9.816.001-17.362-1.223-23.31-3.365-5.948-2.145-10.308-5.196-13.813-8.93l-21.647-23.09c-.222-.238-.5-.42-.791-.53-.29-.11-.589-.154-.877-.154-.799.008-1.545.3-2.283.715-1.104.631-2.184 1.586-3.036 2.684-.841 1.101-1.488 2.34-1.503 3.682-.008.809.294 1.669.941 2.305l1.429-1.427c-.257-.267-.341-.501-.349-.877-.004-.407.16-.968.488-1.556.487-.887 1.321-1.817 2.18-2.483.428-.334.863-.602 1.244-.776.382-.178.71-.25.889-.246l.158.022.036.023 21.647 23.091c3.701 3.95 8.372 7.207 14.603 9.449 6.231 2.244 14.013 3.485 23.994 3.486 4.815 0 10.144-.29 16.062-.897 30.223-3.113 60.175-8.023 90.012-13.41.485-.088.922-.127 1.313-.127 1.329.009 2.084.418 2.59.976.503.564.764 1.377.763 2.257.003.845-.248 1.726-.657 2.374-.414.656-.938 1.047-1.497 1.146-23.673 4.271-51.732 9.663-90.827 14.108-5.928.674-11.327.991-16.259.991-11.336-.001-20.205-1.669-27.406-4.496-7.2-2.828-12.749-6.813-17.458-11.52l-21.527-21.535-.714.714" fill="#000" sketch:type="MSShapeGroup"/><path d="M367.013 320.29c14.663 1.092 25.394-.74 38.748-3.018 12.578-2.145 12.746 10.146 5.023 11.726-28.632 5.858-56.384 11.888-87.303 14.836-10.081.96-19.982 3.067-29.899 1.434l-90.475-14.894c1.187-.871 3.534-4.722 5.801-8.375l82.042 14.177c10.631 1.836 21.389.343 32.53-1.196 29.529-4.083 57.641-8.388 84.434-14.836-13.344 3.119-25.89 6.253-38.276 7.155m-8.88.232c-3.413-.082-6.826-.374-10.25-.926l-26.702-4.293-.254-8.614 30.544 5.011c1.113.182 2.205.353 3.275.508" fill="#7F8180" sketch:type="MSShapeGroup"/><path d="M366.938 321.297c3.02.226 5.877.326 8.627.326 10.707 0 19.744-1.545 30.366-3.357.954-.162 1.823-.236 2.607-.236 2.391.003 3.989.671 4.995 1.575 1.004.908 1.465 2.088 1.47 3.318.001 1.1-.387 2.227-1.13 3.147-.744.918-1.831 1.636-3.289 1.937-28.641 5.861-56.352 11.879-87.197 14.82-7.479.715-14.775 2.034-21.958 2.032-2.573 0-5.131-.167-7.682-.587l-90.474-14.894-.164.996.599.814c.443-.332.831-.78 1.286-1.355 1.332-1.709 3.071-4.56 4.774-7.302l-.857-.532-.171.996 82.042 14.176c3.566.617 7.139.863 10.721.863 7.302 0 14.645-1.022 22.118-2.053 29.538-4.084 57.682-8.392 84.533-14.854l-.466-1.966c-13.354 3.123-25.855 6.239-38.121 7.13l.147 2.016c12.507-.913 25.1-4.063 38.432-7.179l-.466-1.965c-26.735 6.435-54.816 10.736-84.335 14.817-7.474 1.033-14.731 2.036-21.842 2.035-3.49 0-6.944-.241-10.378-.834l-82.714-14.293-.359.578c-1.135 1.829-2.285 3.699-3.288 5.204-.5.752-.965 1.412-1.361 1.92-.391.506-.741.867-.891.97l-1.934 1.421 92.843 15.284c2.679.441 5.349.614 8.01.614 7.428-.003 14.783-1.341 22.149-2.04 30.993-2.956 58.787-8.996 87.41-14.852 1.902-.387 3.428-1.369 4.456-2.648 1.031-1.279 1.577-2.846 1.579-4.416.003-1.749-.694-3.521-2.139-4.819-1.443-1.302-3.581-2.097-6.346-2.094-.91 0-1.891.085-2.946.265-10.63 1.813-19.522 3.328-30.026 3.328-2.7 0-5.505-.1-8.476-.32l-.151 2.014zm-6.156 5.223c-3.371-.081-6.738-.37-10.113-.914l-25.879-4.161-.192-6.554 29.335 4.813c1.118.184 2.217.357 3.295.512l.289-1.999c-1.062-.153-2.147-.323-3.256-.505l-31.753-5.209.315 10.672 27.526 4.426c3.473.559 6.931.856 10.385.939l.049-2.019z" fill="#000" sketch:type="MSShapeGroup"/><path d="M396.143 384.206c1.63 1.588 8.036.909 8.121-2.072 1.04-36.499-7.41-64.449-19.332-88.683-1.161-2.357-7.27-1.425-7.969 1.096-.697 2.522-.031.551 3.225 8.678 3.259 8.126 5.932 16.199 8.089 24.058 2.156 7.86-.906-4.753 2.244 8.883 3.15 13.635 4.76 26.557 5.171 37.55" fill="#7F8180" sketch:type="MSShapeGroup"/><path d="M395.438 384.93c.473.453 1.052.705 1.674.876.626.166 1.307.242 2.013.242 1.313-.003 2.701-.257 3.874-.829.586-.289 1.123-.662 1.546-1.17.421-.502.709-1.163.726-1.887.058-2.047.087-4.066.087-6.059.003-33.742-8.214-60.12-19.522-83.099-.371-.751-1.032-1.239-1.73-1.522-.708-.286-1.484-.399-2.278-.4-1.19.002-2.422.259-3.484.755-.531.25-1.023.561-1.437.959-.414.396-.756.89-.92 1.481-.158.591-.279.978-.286 1.481-.006.419.135.83.3 1.143.248.482.571.951 1.093 1.939.52.979 1.226 2.447 2.154 4.762 3.244 8.09 5.904 16.127 8.052 23.95.308 1.121.509 1.829.642 2.269l.158.493.076.185.095.167.168.189.221.149c.105.051.257.104.449.104.174.002.369-.052.513-.14.26-.159.355-.343.407-.451.074-.171.077-.251.087-.312l.007-.127-.015-.191-.081-.449-.041-.183-.018-.071-.012-.048-.022-.068-.05-.113-.111-.174-.196-.187c-.104-.074-.294-.188-.592-.191-.266 0-.526.107-.714.296-.187.188-.295.448-.295.713 0 .266.108.526.295.714.188.188.448.296.714.296v-1.011l-.446.907c.156.078.322.105.446.104v-1.011l-.446.907.446-.907-.8.617c.081.107.207.219.354.29l.446-.907-.8.617.8-.617-.995.171c.018.089.043.24.194.446l.8-.617-.995.171.995-.171-1.007-.061.012.232.995-.171-1.007-.061 1.007.061-1.005-.089-.002.028 1.007.061-1.005-.089-.004.09.007.126.016.094c.027.142.114.547.345 1.575.23 1.024.602 2.653 1.187 5.188 3.137 13.572 4.738 26.435 5.146 37.361.021.557.489.992 1.047.971.557-.021.993-.49.972-1.047-.416-11.062-2.033-24.042-5.197-37.74-.634-2.744-1.015-4.424-1.239-5.419l-.226-1.025-.045-.211-.007-.035-.459.084.461-.073-.002-.011-.459.084.461-.073-.878.139.882-.109-.004-.03-.878.139.882-.109-.985.122h.993l-.007-.122-.985.122h.993-1.006l1.004.07.002-.07h-1.006l1.004.07-.994-.069.991.088.002-.02-.994-.069.991.088.002-.157c-.011-.075-.003-.201-.137-.446-.07-.119-.195-.265-.368-.363-.17-.1-.363-.136-.503-.134-.266 0-.526.107-.714.296-.187.188-.295.448-.295.713 0 .266.108.526.295.714.188.188.448.296.714.296v-1.011l-.635.785c.1.078.292.218.635.226v-1.011l-.635.785.635-.784-.881.492c.036.052.051.122.246.292l.635-.784-.881.492.876-.49-.943.344.067.146.876-.49-.943.344.835-.305-.859.226.025.079.835-.305-.859.226v.002l.061.284.028.15.004.031.585-.07h-.588l.003.07.585-.07h-.588.945l-.918-.218-.027.218h.945l-.918-.218.971.231-.809-.585c-.122.176-.142.282-.162.355l.971.231-.809-.585.815.589-.51-.866c-.147.086-.243.191-.305.277l.815.589-.51-.866.511.868v-1.008c-.173-.002-.368.052-.511.14l.511.868v-1.008 1.006l.445-.902c-.103-.051-.254-.103-.445-.104v1.006l.445-.902-.441.894.76-.645c-.051-.055-.116-.145-.319-.25l-.441.894.76-.645-.703.597.822-.42-.12-.177-.703.597.822-.42-.514.263.532-.225-.018-.038-.514.263.532-.225-.002-.006c-.023-.058-.101-.298-.224-.717-.124-.424-.298-1.042-.537-1.915-2.166-7.894-4.851-16.004-8.126-24.167-1.263-3.158-2.161-4.847-2.736-5.85-.287-.498-.491-.827-.584-1.014l-.081-.228c-.008-.064.048-.363.213-.941.045-.165.157-.357.371-.562.317-.309.861-.617 1.497-.824.636-.211 1.361-.327 2.027-.326.591-.002 1.133.093 1.514.252.39.161.588.352.681.543 11.207 22.783 19.312 48.794 19.315 82.207 0 1.974-.027 3.975-.085 6.001-.01.246-.084.433-.265.657-.265.331-.823.68-1.535.909-.708.234-1.551.359-2.329.358-.556.001-1.081-.063-1.489-.174-.411-.107-.693-.271-.79-.372-.399-.389-1.039-.381-1.428.019s-.38 1.04.02 1.429" fill="#000" sketch:type="MSShapeGroup"/><path d="M331.646 219.337h9.376l.032.031v2.91l-.032.031h-9.376l-.028-.031v-2.91l.028-.031" fill="#000" sketch:type="MSShapeGroup"/><path d="M326.186 192.867c-.183.002-.358.034-.531.088-1.417.443-1.901 2.52-1.066 4.619.833 2.099 2.669 3.433 4.085 2.99 1.413-.442 1.899-2.519 1.065-4.618l-.059-.089c-.748-1.794-2.209-3.009-3.494-2.99zm-.236.652c.92-.014 1.951.905 2.486 2.309l.029.088c.598 1.643.272 3.267-.74 3.613-1.011.346-2.334-.727-2.931-2.369-.597-1.642-.241-3.237.77-3.583.126-.043.255-.057.386-.059v.001z" fill="#000" sketch:type="MSShapeGroup"/><path d="M329.294 200.27c-.183.002-.358.034-.532.088-1.414.442-1.9 2.52-1.065 4.619.832 2.099 2.671 3.434 4.084 2.99 1.414-.442 1.899-2.52 1.065-4.618l-.058-.088c-.748-1.797-2.208-3.009-3.493-2.991h-.001zm-.237.8c.921-.014 1.981.906 2.517 2.309l.029.088c.596 1.643.243 3.267-.768 3.613-1.014.346-2.306-.726-2.901-2.369-.597-1.642-.273-3.237.74-3.583.124-.043.254-.056.383-.058h-.001z" fill="#000" sketch:type="MSShapeGroup"/><path d="M339.41 191.677l8.971 21.536 1.863-.777-8.971-21.536" fill="#000" sketch:type="MSShapeGroup"/><path d="M173.852 356.436c.353 2.195-1.061 3.974-3.156 3.974-2.096 0-4.08-1.779-4.43-3.974-.353-2.196 1.062-3.975 3.156-3.975 2.097 0 4.08 1.779 4.43 3.975" fill="#fff" sketch:type="MSShapeGroup"/><path d="M173.852 356.436l-.997.16c.027.175.041.343.041.504-.001.702-.242 1.265-.619 1.66-.381.392-.898.635-1.581.638-.759.003-1.555-.33-2.195-.906-.641-.574-1.106-1.372-1.239-2.217-.028-.177-.042-.345-.042-.505.002-.702.243-1.265.62-1.661.381-.392.899-.635 1.581-.638.76-.002 1.556.33 2.197.906.64.574 1.104 1.372 1.237 2.218l.997-.159.997-.159c-.217-1.351-.921-2.539-1.882-3.404-.962-.862-2.206-1.419-3.545-1.421-1.196-.004-2.284.469-3.038 1.261-.759.789-1.184 1.881-1.182 3.059 0 .271.022.547.067.824.217 1.35.921 2.537 1.883 3.402.962.862 2.206 1.419 3.544 1.422 1.196.003 2.284-.47 3.039-1.262.758-.789 1.183-1.88 1.181-3.058 0-.271-.022-.547-.067-.824l-.997.16" fill="#000" sketch:type="MSShapeGroup"/><path d="M172.044 358.714c.352 2.196-1.062 3.974-3.156 3.974-2.097 0-4.08-1.778-4.43-3.974-.354-2.193 1.061-3.973 3.156-3.973 2.096 0 4.079 1.78 4.43 3.973" fill="#fff" sketch:type="MSShapeGroup"/><path d="M172.044 358.714l-.997.16c.027.174.041.342.041.503-.002.702-.243 1.265-.62 1.661-.38.393-.898.635-1.58.639-.76.002-1.555-.33-2.197-.907-.641-.573-1.104-1.371-1.237-2.217-.028-.177-.042-.345-.042-.506.002-.7.242-1.263.62-1.658.38-.392.898-.635 1.581-.638.759-.003 1.554.33 2.195.906.642.574 1.106 1.372 1.239 2.217l.997-.16.997-.16c-.218-1.35-.922-2.536-1.884-3.401-.961-.862-2.205-1.419-3.543-1.421-1.196-.004-2.284.469-3.039 1.26-.758.789-1.183 1.88-1.182 3.057 0 .271.022.548.068.827.217 1.348.921 2.537 1.882 3.401.962.863 2.207 1.419 3.545 1.422 1.196.003 2.284-.47 3.039-1.262.758-.79 1.182-1.881 1.181-3.059 0-.27-.022-.546-.067-.823l-.997.16" fill="#000" sketch:type="MSShapeGroup"/><path d="M238.09 344.371c0 3.735-3.027 6.759-6.757 6.759-3.732 0-6.756-3.024-6.756-6.759 0-3.735 3.024-6.76 6.756-6.76 3.73 0 6.757 3.025 6.757 6.76" fill="#fff" sketch:type="MSShapeGroup"/><path d="M238.09 344.371h-1.01c0 1.592-.641 3.022-1.684 4.065-1.043 1.042-2.473 1.683-4.064 1.683-1.591 0-3.021-.641-4.064-1.683-1.042-1.043-1.684-2.473-1.684-4.065 0-1.592.641-3.022 1.684-4.066 1.042-1.042 2.472-1.683 4.064-1.684 1.589.001 3.02.643 4.064 1.684 1.042 1.044 1.684 2.474 1.684 4.066h2.019c-.001-4.293-3.477-7.77-7.767-7.771-4.29 0-7.765 3.479-7.767 7.771.001 4.293 3.476 7.769 7.767 7.77 4.288-.001 7.765-3.477 7.767-7.77h-1.009" fill="#000" sketch:type="MSShapeGroup"/><path d="M236.861 345.688h-1.01c0 1.25-.504 2.374-1.323 3.195-.821.82-1.946 1.324-3.196 1.324-1.25 0-2.373-.503-3.195-1.324-.819-.821-1.323-1.944-1.323-3.195 0-1.252.504-2.376 1.323-3.197.822-.819 1.944-1.324 3.195-1.324 1.25 0 2.375.504 3.196 1.324.819.821 1.323 1.945 1.323 3.197h2.02c-.001-3.613-2.929-6.54-6.539-6.541-3.61.001-6.536 2.928-6.537 6.541.001 3.611 2.927 6.539 6.537 6.54 3.61-.001 6.538-2.928 6.539-6.54h-1.01" fill="#000" sketch:type="MSShapeGroup"/><path d="M235.538 347.01h-1.01c-.003 1.764-1.431 3.194-3.195 3.197-1.765-.003-3.194-1.433-3.196-3.197.002-1.765 1.431-3.194 3.196-3.197 1.764.003 3.192 1.431 3.195 3.197h2.019c-.001-2.882-2.334-5.216-5.214-5.217-2.881.001-5.215 2.335-5.216 5.217.001 2.882 2.335 5.217 5.216 5.218 2.88-.001 5.213-2.337 5.214-5.218h-1.009" fill="#000" sketch:type="MSShapeGroup"/><path d="M324.222 186.815c-1.484.39-2.613 1.008-3.371 1.903-.76.892-1.063 2.009-1.057 3.123.011 1.887.75 3.896 1.638 6.066l.008.02 7.702 16.85c1.002 2.184 1.557 4.049 1.553 5.585-.003 1.004-.219 1.872-.705 2.71-.486.837-1.265 1.656-2.445 2.464l1.138 1.668c1.364-.931 2.381-1.96 3.053-3.115.672-1.154.98-2.42.978-3.727-.005-2.012-.682-4.112-1.736-6.424l-7.696-16.837-.919.42.933-.386c-.875-2.1-1.496-3.973-1.484-5.294.006-.791.183-1.342.58-1.818.4-.475 1.109-.928 2.343-1.254l-.513-1.953v-.001" fill="#000" sketch:type="MSShapeGroup"/><path d="M369.891 327.212l-6.369-15.521m-8.634 1.963l5.531 13.05c.355.839.721 1.673 1.099 2.501" fill="#f0f" sketch:type="MSShapeGroup"/><path d="M370.824 326.828l-6.369-15.521-1.868.767 6.369 15.521 1.868-.767zm-16.865-12.781l5.53 13.051c.359.846.729 1.688 1.11 2.525l1.837-.839c-.373-.819-.737-1.645-1.088-2.474l-5.53-13.051-1.859.789v-.001z" fill="#000" sketch:type="MSShapeGroup"/><path d="M387.479 328.04l2.447-.509 1.253 8.119-1.685.306-2.016-7.915" fill="#7F8180" sketch:type="MSShapeGroup"/><path d="M376.093 295.064l2.002-.316 2.732 8.046-1.545.252-3.484-7.394.295-.587" fill="#7F8180" sketch:type="MSShapeGroup"/><path d="M235.104 346.067c0 1.842-1.71 3.336-3.815 3.336s-3.811-1.494-3.811-3.336c0-1.842 1.706-3.337 3.811-3.337 2.106 0 3.815 1.495 3.815 3.337" fill="#000" sketch:type="MSShapeGroup"/><path d="M166.013 355.477c-1.67 2.61 4.566 6.012 5.66 4.531.318-2.877-1.904-6.004-5.66-4.531" fill="#000" sketch:type="MSShapeGroup"/><path d="M207.143 325.012v5.922l-3.764-.592 3.764-5.33" fill="#000" sketch:type="MSShapeGroup"/><path d="M292.026 312.487c-2.194 1.016-3.643 2.555-3.588 5.144l-2.274-5.504 5.862.36" fill="#000" sketch:type="MSShapeGroup"/><path d="M308.218 345.76c-2.195 1.016-4.108 3.019-4.053 5.611l-2.274-5.504 6.327-.107" fill="#000" sketch:type="MSShapeGroup"/></g></svg>