<svg xmlns="http://www.w3.org/2000/svg" width="512" height="512" viewBox="0 0 512 512"><g><g><path fill="#0D254C" d="M338.8 304.1l132.6-96.4h-163.9l-50.7-155.8-50.7 155.9h-164l132.7 96.4-50.7 156 132.7-96.4 132.7 96.4-50.7-156.1z"/><path fill="#fff" d="M325.1 299.8l110.5-80.3h-136.6l-42.2-129.9-42.2 129.9h-136.6l110.5 80.3-42.2 129.9 110.5-80.3 110.5 80.3-42.2-129.9z"/><path fill="#0D254C" d="M314.5 296.4l93.3-67.8h-115.4l-35.6-109.7-35.6 109.7h-115.4l93.3 67.8-35.6 109.6 93.3-67.7 93.3 67.7-35.6-109.6z"/></g></g></svg>