<?xml version="1.0" encoding="utf-8"?>
<!-- Generator: Adobe Illustrator 12.0.0, SVG Export Plug-In . SVG Version: 6.00 Build 51448)  -->
<!DOCTYPE svg PUBLIC "-//W3C//DTD SVG 1.1//EN" "http://www.w3.org/Graphics/SVG/1.1/DTD/svg11.dtd" [
	<!ENTITY ns_svg "http://www.w3.org/2000/svg">
	<!ENTITY ns_xlink "http://www.w3.org/1999/xlink">
]>
<svg  version="1.1" id="DENVER_BRONCOS" xmlns="&ns_svg;" xmlns:xlink="&ns_xlink;" width="343.573" height="200"
	 viewBox="0 0 343.573 200" overflow="visible" enable-background="new 0 0 343.573 200" xml:space="preserve">
<g>
	<g>
		<path fill="#13264B" d="M0.013,53.873c0,0-1.803,33.656,37.487,55.053c0,0,15.819,8.43,53.049,15.278
			c32.702,6.022,50.264,18.751,57.233,26.75c8.911,10.225,17.652,28.759,21.584,45.009c0,0,0,4.221,3.029,4.031
			c0,0,2.652,0.189,2.462-3.598c0,0-0.948-25.559,6.435-37.864c5.654-10.107,15.792-18.846,32.566-24.994
			c0,0,11.172,8.522,27.075,8.522c11.547,0,21.773-4.925,21.773-4.925s20.257,7.006,22.532,17.984c0,0,0.19,2.654-0.568,4.546
			l25.369,1.327l13.822-12.497c0,0-25.748-1.894-26.316-9.279c0,0-0.4-3.426,6.55-3.426c0,0,16.02-0.266,30.937,22.042l8.543-22.441
			c0,0-6.552-3.275-6.419-9.292c0,0-0.133-3.674,2.745-11.023l-10.622-4.825c0,0-5.755-5.399-40.233-26.908l4.469-2.875
			l-38.15-16.512c0,0-12.217-19.252-46.293-19.386c0,0-26.601-43.639-69.049-43.639c0,0-15.666-0.93-33.591,8.498
			c0,0-7.173,3.275-14.12,7.216c0,0-14.562,10.089-31.203-11.908c0,0-6.063,25.979,12.172,37.092c0,0-17.438,3.672-23.59-11.285
			c0,0-5.622-11.42-4.071-30.542c0,0-13.366,12.084-13.366,35.275c0,0-0.133,14.783,9.691,24.875c0,0-4.956-0.754-12.835,4.205
			C29.105,64.354,15.342,74.314,0.013,53.873z"/>
		<path fill="#DE6226" d="M65.037,16.248c0,0,2.56,22.913,22.064,22.913c0,0,7.665,0,14.668-2.654
			c7.006-2.654,17.23-7.866,30.862-7.866c0,0,17.794-1.697,27.734,17.998c0,0,22.724-1.241,44.021,2.745
			c0,0-24.233-42.7-66.354-42.039c0,0-12.312-0.661-28.693,7.57l-6.626,3.124c-4.821,2.277-6.721,3.408-6.721,3.408
			s-6.816,4.083-13.337,3.882C82.655,25.328,74.131,26,65.037,16.248z M40.917,17.013c0,0-11.285,31.124,13.42,45.037
			c4.6,2.993,11.944,5.767,20.237,5.979c0,0,33.765-16.09,70.513-20.342c0,0-4.25-9.064-20.868-9.064c0,0-10.152-0.598-28.565,4.496
			c0,0-4.988,1.264-10.84,3.266c-8.364,2.049-22.315,4.11-31.32-1.578C53.493,44.806,41.232,38.726,40.917,17.013z M9.188,69.398
			c0,0,3.058,16.616,22.137,16.616c0,0,13.35,0.318,32.18-11.172c0,0-6.5-2.528-9.8-4.672c0,0-6.922-5.236-14.264-3.196
			c0,0-1.266,0.244-7.976,3.092c0,0-4.708,3.056-11.418,3.056C20.046,73.123,13.229,73.017,9.188,69.398z"/>
		<path fill="#FFFFFF" d="M112.297,123.079c0,0,38.008-40.202,92.885-26.224c0,0,2.713,31.474,36.623,33.388
			c0,0,11.547,0.695,22.461-6.992l21.32,7.967l-22.362-14.086c0,0-7.162,6.988-20.099,6.988c-12.938,0-28.653-13.111-27.263-31.718
			c0,0-23.509-11.786-49.731-17.907l7.859,12.416c0,0-50.945-3.234-92.711,29.176c0,0-39.852-8.834-44.651-16.517
			c0,0,82.042-66.688,187.052-39.638c0,0,1.228-1.801-1.824-4.315c0,0-3.94-2.952-9.789-4.706c0,0,25.687-1.372,39.089,18.108
			l29.526,12.414l-3.101,2.185c0,0,45.14,28.066,48.16,31.991l6.297,2.632c0,0-4.478,13.113,4.708,20.187l-3.408,9.023
			c0,0-15.095-16.262-30.154-16.909c0,0-11.131-0.262-11.131,8.667c0,0-1.332,9.538,20.837,12.296l-4.578,4.225l-16.909-1.074
			c0,0,0.39-13.761-29.116-24.504c0,0-24.218,14.404-47.16-3.365c0,0-41.807,10.044-45.581,48.53c0,0-4.595-14.544-14.817-26.953
			c0,0,5.505-19.627,35.266-29.488c0,0-26.718-1.37-45.492,19.993C144.504,138.867,132.059,128.735,112.297,123.079z"/>
	</g>
	<path fill="#13264B" d="M248.893,77.564c0,0,20.83,3.105,56.64,32.352l-33.851-18.49c0,0-2.189,1.12-3.562,2.338
		C268.121,93.765,260.465,84.916,248.893,77.564z"/>
	<path fill="#DE6226" d="M265.868,83.762c0,0-1.742,1.44-1.038,3.954c0,0,0.853,2.37,3.539,2.424c0,0,3.036,0.041,3.568-3.275
		l-1.438-0.774l-3.742,2.799l1.052-4.183L265.868,83.762z"/>
	<path fill="#13264B" d="M326.031,119.147c0,0-2.873,1.067-2.873,3.643c0,0-0.693,2.681,5.083,8.455c0,0-8.583-6.277-10.19-10.057
		c0,0-1.48-2.772,2.7-2.772C320.75,118.416,323.291,118.416,326.031,119.147z"/>
	<path fill="#13264B" d="M228.519,61.896c0,0,5.293,0.077,5.905-1.219c0,0,1.295-1.35-5.828-4.681c0,0,10.987,2.244,15.973,11.118
		C244.569,67.114,237.448,63.857,228.519,61.896z"/>
</g>
</svg>
