<?xml version="1.0" encoding="utf-8"?>
<!-- Generator: Adobe Illustrator 13.0.2, SVG Export Plug-In  -->
<!DOCTYPE svg PUBLIC "-//W3C//DTD SVG 1.1//EN" "http://www.w3.org/Graphics/SVG/1.1/DTD/svg11.dtd" [
	<!ENTITY ns_flows "http://ns.adobe.com/Flows/1.0/">
]>
<svg version="1.1"
	 xmlns="http://www.w3.org/2000/svg" xmlns:xlink="http://www.w3.org/1999/xlink" xmlns:a="http://ns.adobe.com/AdobeSVGViewerExtensions/3.0/"
	 x="0px" y="0px" width="489px" height="372px" viewBox="-0.99 -0.14 489 372" enable-background="new -0.99 -0.14 489 372"
	 xml:space="preserve">
<defs>
</defs>
<path fill="#010101" d="M319.37,0c8.62,5.59,17.18,11.31,26.199,16.25c9.671,5.73,20.69,8.41,31.28,11.85
	c7.24,2.17,13.811,7.09,16.86,14.14c4.01,1.83,8.109,3.6,11.67,6.25c3.89,3.03,6.18,7.55,7.939,12.05
	c6.601,2.77,13.051,5.94,19.171,9.67c8.42,5.25,15.64,12.17,22.649,19.13c-5.57,3.02-10.51,7.31-14.01,12.6
	c-2.061,5.05-3.76,10.36-7.17,14.73c7.09-5.65,17.85-5.28,24.649,0.65c9.12-0.82,18.301,2.83,24.631,9.38
	c4.39,4.64,5.76,11.83,3.529,17.79c-1.609,3.44-0.42,7.51-2.39,10.84c-1.561,3.53-4.8,5.771-7.311,8.54
	c-2.55,4.58-6.38,8.64-11.439,10.36c-5.42,1.82-11.2,0.64-16.561-0.7c-7.319,1.31-14.939,1.2-21.899-1.67
	c-2.01,3.03-4.08,6.01-6.23,8.94c5.011,4.11,10.71,7.5,17.04,9.1c6.99,1.95,14.9,3.479,19.24,9.96c13.17-2.26,26.17,7.41,29.6,19.93
	c1.101,4.061,1.011,8.49-0.55,12.42c-1.319,3.71-4.819,6.091-6.02,9.87c-2.07,5.45-6.96,9.49-12.79,10.181
	c-6.16,5.699-15.86,6.75-23.07,2.46c-6.59-0.771-13.729-0.891-19.47-4.73c-3.49-2.11-5.99-5.36-8.72-8.29
	c-6.99-3.26-14.921-2.5-22.36-3.729c-11.25-1.801-22.55-4.311-32.84-9.33c-7.33,2.34-15.05,2.92-22.67,3.46
	c-1.721-4.28-3.98-8.391-7.32-11.63c-12.77,6.81-25.41,15.06-40.1,16.79c-1.03,5.479-2.23,10.979-4.32,16.17
	c-3,7.449-9.64,12.899-16.93,15.899c8.35,3.28,15.229,10.561,16.63,19.601c1.39,6.72-2.351,13.439-7.69,17.33
	c-2.2,4.949-6.67,8.869-12.02,9.989c-5.12,1.54-10.65-0.569-15.62,1.61c-7.81,2.83-16.12-0.02-22.71-4.43
	c-9.79,0.64-19.61,1.979-29.42,1.199c-7.11-0.63-13.15-5.56-15.85-12.06c-4.02,2.95-8.37,5.43-12.92,7.45
	c-7.38,3.63-14.67,7.52-21.43,12.229c0.38,1.45-0.42,3.73,1.36,4.431c5.55,2.76,10.23,7.859,11.13,14.16
	c0.49,4.72,0.22,9.77-2.21,13.979c-1.57,2.96-4.64,4.68-6.41,7.49c-2.25,3.38-5.53,6.25-9.55,7.2c-3.41,1.119-7.07,0-10.47,1.08
	c-5.57,1.609-11.82,1.43-16.95-1.48c-7.08-4.08-11.83-12.11-11.51-20.34c0.73-9.97,1.06-20,1.08-29.98
	c-3.34-5.699-5.5-12.819-2.47-19.13c2.72-7.02,10.46-10.03,13.75-16.63c2.92-5.24,3.2-11.38,3.63-17.22
	c0.36-6.95,1.17-13.87,1.52-20.82c-9.61-3.04-19.12-7.17-26.81-13.82c-6.81-6.479-12.48-14.369-15.64-23.27
	c-3.55-9.59-4.04-20.13-8.59-29.37c-1.94-4.1-5.13-7.44-8.79-10.06c-8.86,1.8-18.25-1.21-24.46-7.74
	c-4.71-3.98-7.27-10.37-13.18-12.87c-7.52-3.53-15.86-4.81-24.06-5.67c12.56-12.89,28.89-22.9,47.06-24.84
	c7.56-0.97,15.56,1.1,21.33,6.16c4.31,3.56,7.1,8.58,8.84,13.83c15.99,7.18,28.08,21.81,32.9,38.57c2.01,7.06,3.34,14.7,8.21,20.49
	c4.71,5.89,11.96,9.02,19.15,10.63c7.6-7.04,14.53-15.67,24.69-19.06c4.6-1.73,9.5-2.67,13.99-4.71c3.93-2.77,7.42-6.11,11.18-9.1
	c1.87-1.45,3.5-3.21,4.56-5.34c3.88-6.95,7.79-13.98,13.38-19.73c-3.49-7.3-5.63-15.3-5.63-23.43c1.84,0.61,3.69,1.2,5.55,1.75
	c0.33-12.57,8.86-22.58,17.45-30.85c0.17-7.51,2.28-14.92,6.15-21.37c-2.41-4.2-4.64-8.59-5.48-13.41
	c7.4-0.76,14.86-1.99,21.72-4.96c4.03-1.68,6.52-5.44,9.32-8.57c5.14-5.62,10.79-11.02,17.77-14.29c8.75-4.05,18.47-6.09,28.12-5.67
	c-3.1-2.33-6.47-4.31-10.07-5.76c8.17-5,17.61-7.59,27.08-8.61C317.59,9.24,317.92,4.5,319.37,0L319.37,0z"/>
<path fill="#FFFFFF" d="M324.069,10.2c8.5,4.99,16.15,11.53,25.29,15.44c8.11,3.36,16.471,6.05,24.811,8.8
	c6.39,1.7,12.43,6.18,13.99,12.89c5.51,2.59,12.01,4.23,15.689,9.49c2.67,2.93,2.3,8.16,6.4,9.78c6.8,3.03,13.609,6.13,19.79,10.33
	c5.17,3.85,10.01,8.14,14.609,12.67c-3.319,2.98-7.159,5.53-9.75,9.22c-2.6,6.52-4.93,13.7-10.609,18.28
	c-1.88,1.65-4.601,2.45-5.771,4.81c5.28,0.13,10.351,1.53,15.271,3.37c3.34-2.05,6.22-5.16,10.29-5.74
	c4.39-1.02,8.689,1.34,11.529,4.57c8.37-0.78,17.83,0.9,23.16,8.05c3.311,3.68,2.721,9.3-0.13,13.07
	c0.021,2.77,0.65,5.85-0.899,8.34c-1.2,2.19-3.49,3.33-5.49,4.64c-1.86,3.81-4.141,7.94-8.32,9.55c-4.78,1.94-10.01,0.31-14.61-1.38
	c-4.67,0.8-9.439,1.74-14.18,1.02c-3.43-0.71-6.41-2.64-9.31-4.5c-5.12,6.03-9.15,12.89-14.29,18.91
	c5.89,5.19,12.189,10.189,19.67,12.85c4.21,1.67,8.609,2.76,12.99,3.851c4.409,1.159,7.5,4.819,9.369,8.8
	c5.671-1.19,12.2-1.92,17.15,1.8c4.61,3.44,9.54,7.78,10.36,13.82c0.87,4.67-1.59,9.18-5.44,11.729c-0.64,2.7-1.18,5.59-3.12,7.72
	c-2.04,2.341-5.24,3.03-8.21,3.11c-2.59,3.45-6.93,5.771-11.3,4.98c-3.93-0.38-6.92-3.931-11.04-3.12
	c-8.38,0.58-17.01-3.471-20.84-11.141c-7.68-3.05-15.93-4.42-24.17-4.51c-12.28-1.41-24.65-4.49-35.47-10.6
	c-5.98,2.439-12.221,4.34-18.69,4.83c-2.33-5.57-6.521-10.17-11.6-13.38c-7.9,4.329-15.801,8.63-23.801,12.75
	c-7.22,3.68-15.359,4.84-23.319,5.67c0.68,6.04-1.19,11.96-3.13,17.6c-1.08,2.74-2.04,5.64-3.971,7.91
	c-2.239,2.27-4.989,3.93-7.729,5.49c-6.521,3.68-14.24,4.52-20.641,8.43c-3.28,2.04-6.26,4.49-9.169,7.01
	c3.55,0.65,7.41,2.41,10.919,0.67c3.11-1.26,6.15-2.979,9.58-3.16c9.17-1.149,17.69,6.381,19.74,14.96
	c1.12,5.051-2.47,9.391-6.63,11.66c-1.15,2.721-2.4,5.74-5.2,7.16c-4.56,2.38-9.84,1.101-14.71,1.04
	c-3.79,1.49-7.87,3.43-12.02,2.21c-4.38-0.78-7.78-4.1-12.03-5.08c-9.34,0.2-18.65,1.5-28,1.48c-4.23-0.12-8.35-2.28-10.65-5.87
	c-3.16-4.271-1.51-10.08,0.83-14.33c2.17-4.11,6.17-7.05,8.02-11.3c-1.07-2.29-3.84-2.87-5.81-4.181
	c-5.41,9.45-8.74,21.141-18.53,27.16c-10.97,6.431-23.32,10.71-32.95,19.3c-0.02,4.091-0.06,8.19,0.29,12.28
	c4.94,0.79,10.03,3.431,11.56,8.55c1.21,5.54,0.55,13.03-5.39,15.58c-1.29,3-3.08,6.261-6.42,7.301
	c-3.35,1.329-7.01-0.561-10.32,0.869c-3.75,1.221-7.94,1.61-11.67,0.12c-5.41-2.29-9.35-8.01-9.05-13.95
	c-0.09-10.369,0.72-20.72,0.93-31.079c-0.67-5.15-5.34-9.521-3.96-15.011c2.64-8.06,12.32-10.76,15.15-18.68
	c5.65-14.53,3.09-30.39,5.62-45.48c-8.58-2.199-17.05-5.239-24.61-9.93c-7.6-4.64-13.09-12.06-16.98-19.93
	c-5.44-11.34-5.53-24.45-11.3-35.65c-2.85-5.6-7.6-10.03-13.07-13.03c-6.82,2.26-14.79,1-20.18-3.88
	c-4.63-3.71-7.45-9.15-11.98-12.94c-5.6-3.52-12.39-4.28-18.8-5.25c12.73-8.6,27.39-17.06,43.37-14.87
	c8.87,1.08,14.69,9.51,15.88,17.85c6.91,3.3,13.63,7.24,19.08,12.67c6.97,7.21,11.62,16.45,13.97,26.15
	c2.33,9.05,6.18,18.23,13.31,24.55c6.5,5.021,14.47,7.931,22.56,9.09c5.06-5.449,10.38-10.67,15.98-15.56
	c6.83-5.85,16.31-6.14,24.12-9.94c4.58-3.75,8.96-7.75,13.58-11.45c2.94-2.21,4.25-5.77,6.18-8.78c3.93-7.17,8.7-13.82,13.8-20.21
	c-3.15-4.11-5.06-9.05-5.36-14.23c1.69,0.15,3.38,0.3,5.08,0.44c-1.72-4.62-2.01-9.88,0.06-14.44c3.55-8.12,9.5-14.95,16.04-20.81
	c-0.16-8.6,2.11-17.31,7.36-24.22c-2.05-2.83-3.78-5.9-4.86-9.24c6.72-1.08,13.79-1.87,19.62-5.69c4.05-2.17,6.33-6.28,9.49-9.42
	c5.399-5.55,11.689-10.6,19.17-12.95c7.89-2.48,16.24-3.24,24.47-2.73c2.87-1.87,5.87-3.54,8.91-5.13c-2.8-2.85-5.87-5.45-9.33-7.46
	c6.24-1.59,12.65-2.59,19.1-2.28C323.51,16.96,324.34,13.59,324.069,10.2L324.069,10.2z"/>
<path fill="#006DB0" d="M329.79,21.3c5.01,3.64,10.029,7.35,15.649,10.03c9.761,5.1,20.83,6.78,30.83,11.271
	c3.73,1.44,5.471,5.45,5.25,9.25c4.87,2.28,10.04,4.01,14.61,6.87c4.56,3.17,4.189,10.01,8.91,12.98c5.17,2.58,10.63,4.6,15.67,7.47
	c5.41,2.85,10.22,6.7,14.81,10.71c-3.18,2.15-6.95,4.27-7.779,8.38c-2,7.12-6.221,14.14-13.45,16.89c1.51-3.49,1.95-7.31,1.05-11.03
	c-7.36-0.18-14.83,1.08-21.37,4.58c0.021,3.99-0.36,8.52,2.35,11.81c1.54,1.98,4.471,2.45,6.671,1.35c3.47-1.57,5.77-4.75,7.84-7.8
	c0.08,3.04-0.88,6.56,1.27,9.14c0.87,2.35,0.15,4.96,0.13,7.41c6.61-3.22,14.021-1.21,20.32,1.71c6.04,1.12,9.29-7.7,15.51-5.76
	c1.641,1,2.32,3.01,3.891,4.07c5.42,1.24,11.369-1.03,16.409,1.88c2.7,1.42,6.601,3.64,5.761,7.26c-1.021,1.23-2.271,2.23-3.44,3.29
	c0.67,2.21,1.73,4.46,1.27,6.83c-1.02,1.86-3.35,2.16-5.1,2.99c-1.22,2.98-2.229,6.34-5,8.27c-4.18,0.91-8.32-0.7-12.25-1.93
	c-6.26,1.61-14.03,3.26-19.29-1.63c-2.97-3.39-8.229-1.13-10.689,1.79c-5.65,6.78-9.78,14.78-16.051,21.06
	c-9.479,9.55-19.689,18.41-30.67,26.2c-7.779,5.79-16.72,9.989-26.26,11.83c-3.66-5.7-8.67-10.94-15.24-13.15
	c-17.56-6.08-36.529-5.41-54.68-2.85c15.33,0.29,31.54,0,45.54,7.199c-6.74,3.83-13.55,7.58-20.63,10.73
	c-8.19,3.59-17.271,3.69-26.021,4.46c1.061,4.49,2.641,9.17,1.24,13.78c-1.359,5.1-2.42,10.859-6.43,14.62
	c-8.47,6.159-19.65,6.75-28.17,12.84c-5.89,4.02-11.021,9.33-13.98,15.88c5.87,1.25,11.73,2.58,17.65,3.55
	c6.51,1.46,11.57-5.36,18.06-3.7c4.5,1.311,8.34,5.38,9.021,10.07c-0.391,3.08-3.88,3.65-6.24,4.62c-0.35,1.99-0.8,3.96-1.33,5.899
	c-4.52,1.58-9.29,0.75-13.84-0.189c-2.23,1.66-4.74,3.26-7.64,3.16c-5.27,0.08-8.68-5.24-13.86-5.5c-9.69-0.3-19.32,1.92-29.01,1.3
	c-2.4-0.14-5.25-1.58-5.37-4.271c-0.21-4.609,3.56-7.869,6.05-11.29c2.44-3.25,6.19-6.949,4.66-11.399
	c-1.87-4.311-6.58-6.061-10.48-8.04c7.24-8.33,15.72-15.64,25.35-21.08c12.39-7.41,25.18-14.38,38.94-18.91
	c-21.08,3.58-41.01,13.17-57.5,26.72c4-7.81,10.83-13.56,16.97-19.619c-13.16,6.619-23.44,18.119-29.87,31.25
	c-3.81,8.05-7.87,16-12.39,23.67c-2.57,4.59-7.64,6.729-12.12,8.979c-8.46,3.88-16.6,8.47-24.26,13.76
	c-2.57,1.94-5.87,4.08-5.91,7.7c-0.43,6.25,0.23,12.55,1.03,18.75c3.3,0.5,6.8,0.71,9.75,2.42c2.05,2.12,2.23,5.55,1.24,8.21
	c-1.08,1.44-3.16,1.24-4.72,1.78c-0.46,2.17-0.32,4.91-2.42,6.271c-2.53,0.729-5.11-0.12-7.6-0.591c-1.95,1.24-4.03,2.62-6.46,2.41
	c-4.45,0.391-8.44-3.72-8.12-8.13c0.14-11,1.27-21.99,0.83-32.99c-0.08-4.3-4.33-7.46-3.83-11.8c2.23-3.75,6.12-6.05,9.09-9.149
	c3.91-3.61,5.91-8.721,7.42-13.7c4.51-15.511,1.24-32.101,5.66-47.62c-8.5-1.69-16.86-4.23-24.67-7.99
	c-7.84-3.71-14.14-10.22-18.35-17.72c-3.77-6.75-4.28-14.601-6.47-21.89c-1.76-6.09-3.97-12.081-6.84-17.73
	c-3.66-7.37-11-11.78-17.83-15.81c-3.58,1.82-7.83,2.8-11.69,1.24c-5.55-2.29-10.39-6.24-13.62-11.32
	c-2.14-3.76-6.44-5.09-10.32-6.26c5.7-1.96,11.85-3.28,17.84-1.98c3.32,0.66,6.24,2.44,9.26,3.86c-3.15-5.49-9.71-6.18-15.32-7.18
	c6.37-2.5,14.18-2.86,19.95,1.28c4.01,3.26,5.18,8.59,6.45,13.35c6.55,3.64,13.31,7.12,19.01,12.04
	c7.31,6.96,11.56,16.56,13.75,26.29c2.53,10.55,8.05,20.601,16.72,27.311c8.02,6.13,18.21,8.72,28.14,9.439
	c4.8-6.03,10.49-11.28,16.3-16.33c6.96-6.43,17.47-5.729,25.13-10.85c5.51-4.83,11.54-9.12,16.62-14.41
	c4.74-7.01,8.41-14.73,13.48-21.55c3.59-4.8,7.57-9.3,11.6-13.74c-3.78-0.36-7.59-1.25-10.52-3.81c3.91-2.51,9.33-4.83,10.18-9.93
	c0.11-4.37-5.35-2.82-7.96-1.99c2.98-12.58,12.78-21.85,22.47-29.67c3.72-2.77,8.31-6.15,8.081-11.33
	c-2.33-4.68-8.181-1.67-10.88,1.05c2.15-5.47,4.89-10.86,9.39-14.79c-2.37-1.07-4.44-2.65-5.98-4.75c4.33-0.36,8.87-0.64,12.7-2.93
	c6.89-3.91,13.67-8.06,21.09-10.92c-3.229-0.33-6.479-0.09-9.63,0.74c6.41-6.62,14.46-12.07,23.71-13.52
	c11.07-2.22,22.37,1.27,33.4-0.86c-2.76-2.17-6.12-3.18-9.54-3.64c4.06-2.03,8.229-3.89,12.689-4.86c-3-2.62-6.27-4.9-9.77-6.79
	c5.54,0.41,11.13,0.71,16.49,2.28C330.85,26.49,330.109,23.93,329.79,21.3L329.79,21.3z"/>
<path fill="#FFFFFF" d="M378.25,73c4.06-0.55,8.38-2.63,12.35-0.68c2.08,0.81,4.18,1.59,6.3,2.28c-1.29,1.91-2.47,3.89-3.359,6.01
	C389.279,76.61,384.1,73.75,378.25,73L378.25,73z"/>
<path fill="#FFFFFF" d="M278.97,103.6c7.34-5.34,15.88-9.31,25.05-9.85c15.92-0.94,31.86,7.11,41.08,20.04
	c-11.32-8.28-24.76-15-39.1-14.7C296.79,98.92,287.75,101.04,278.97,103.6L278.97,103.6z"/>
<path fill="#FFFFFF" d="M267.88,128.72c11.02-4.76,20.85-12.67,32.99-14.47c8.96-1.58,18.08-0.15,26.77,2.2
	c-11.1-0.75-22.45,0.6-32.53,5.53c-9.34,4.44-17.39,11.4-27.34,14.6c-10.3,3.9-21.84,3.81-32.21,0.19
	C246.74,136.25,257.819,133.67,267.88,128.72L267.88,128.72z"/>
<path fill="#FFFFFF" d="M301.55,135.8c13.47-6.16,29.13-8.46,43.46-3.98c5.28,1.75,10.96,4.15,13.89,9.18
	c1.591,2.49,1.811,5.49,2.051,8.35c4.239-1.09,8.399-2.49,12.34-4.41c0.64-3.53,1.37-7.19,3.569-10.12
	c1.78-2.6,5.051-4.32,8.23-3.77c5.72,0.7,11.03,3.15,16.189,5.6c-14.069,10.41-30.529,17.08-47.199,22.1
	c1.85-4.86,2.17-10.61-0.971-15.03c-4.649-6.98-13.479-9.12-21.279-10.28C321.68,131.88,311.45,133.53,301.55,135.8L301.55,135.8z"
	/>
<path fill="#006DB0" d="M367.979,216.99c14.37-8.149,27.3-18.57,38.75-30.44c4.55,4.05,9.25,8.041,14.601,11.01
	c6.479,3.42,13.51,5.68,20.609,7.42c4.94,1.08,5.181,7.97,10.17,9.04c4.53,0.7,9.301-2.23,13.641,0.06c3.1,1.761,5.66,4.44,7.5,7.48
	c0.76,1.56,1.81,3.55,0.75,5.229c-0.931,2.011-3.38,2.29-5.181,3.13c-0.21,2.71,0.311,5.9-1.699,8.08
	c-2.15,1.301-4.74,0.16-7.03-0.08c-0.93,2.091-1.6,5.021-4.22,5.551c-3.11,0.779-5.79-1.431-8.181-3.051
	c-5.34,0.28-11.21,0.7-15.92-2.319c-2.729-1.61-4.359-4.42-5.63-7.23c-6.99-2.97-14.37-5.1-21.979-5.569
	C391.8,224.25,379.3,222.28,367.979,216.99L367.979,216.99z"/>
</svg>
