<?xml version="1.0" encoding="UTF-8" standalone="no"?>
<!-- Created with Inkscape (http://www.inkscape.org/) -->
<svg xmlns:svg="http://www.w3.org/2000/svg" xmlns="http://www.w3.org/2000/svg" version="1.0" width="300" height="197" id="svg2079">
  <defs id="defs2082"/>
  <g style="display: inline;" id="layer3">
    <path d="M 299.94164,98.761276 A 150.49336,98.761276 0 1 1 299.03858,87.958206" style="opacity: 1; fill: rgb(242, 200, 0); fill-opacity: 1; fill-rule: nonzero; stroke: none; stroke-width: 2.8; stroke-linecap: round; stroke-linejoin: round; stroke-miterlimit: 4; stroke-dasharray: none; stroke-opacity: 1;" id="path4755"/>
  </g>
  <g style="opacity: 1; display: inline;" id="layer2">
    <path d="M 287.28098,62.764724 A 147.35808,93.274536 0 1 1 287.02884,62.369002" transform="matrix(0.985819, 0, 0, 1.0168, 1.08916, -0.0698808)" style="opacity: 1; fill: rgb(49, 63, 54); fill-opacity: 1; fill-rule: nonzero; stroke: none; stroke-width: 2.8; stroke-linecap: round; stroke-linejoin: round; stroke-miterlimit: 4; stroke-dasharray: none; stroke-opacity: 1;" id="path5649"/>
  </g>
  <g style="display: inline;" id="layer4">
    <path d="M 21.424403,98.238727 C 21.351913,54.987832 85.14725,17.372797 154.67374,18.811671 C 226.70143,18.649483 262.56205,57.838181 270.67905,73.156499 L 213.19894,73.156499 C 200.49784,52.019541 183.71848,43.143423 146.83554,43.371353 C 95.38347,46.149091 72.036908,75.428012 73.156499,97.71618 C 73.49553,110.42502 78.366521,145.34622 144.22281,146.313 C 173.36586,145.21581 208.19073,143.71074 214.95181,115.80782 L 126.97878,116.00531 L 126.97878,93.535809 L 276.9496,94.580902 C 278.70991,135.55643 237.1983,178.23199 144.40626,179.64035 C 65.659025,179.08621 20.041974,133.03727 21.424403,98.238727 z " style="fill: white; fill-opacity: 1; fill-rule: evenodd; stroke: none; stroke-width: 1px; stroke-linecap: butt; stroke-linejoin: miter; stroke-opacity: 1;" id="path8343"/>
  </g>
</svg>