<svg width="512" height="512" viewBox="0 0 512 512" xmlns="http://www.w3.org/2000/svg" xmlns:sketch="http://www.bohemiancoding.com/sketch/ns"><title>indianapolis-colts</title><desc>Created with Sketch.</desc><g sketch:type="MSLayerGroup" fill="none"><path d="M345.359 155.277c-4.98-6.975-2.995-10.675.477-11.166 2.409-.342 5.287.02 6.785.02 2.644 0 7.698.323 7.273-4.847-.488-5.813-1.695-11.389-3.154-18.173-1.45-6.784-1.938-6.3-11.143-6.3 0 0-1.691-.241-15.743.726-14.05.971-25.191 2.907-25.682 21.806-.481 18.903 3.883 25.203 11.634 37.319 7.745 12.119 31.006 49.433 31.006 83.362 0 62.355-54.75 89.172-91.568 89.172-36.824 0-91.575-26.817-91.575-89.172 0-33.929 23.258-71.243 31.013-83.362 7.752-12.116 12.111-18.416 11.632-37.319-.491-18.9-11.634-20.837-25.682-21.807-14.054-.968-15.75-.727-15.75-.727-9.209 0-9.688-.484-11.147 6.3-1.451 6.784-2.661 12.36-3.145 18.173-.429 5.171 4.632 4.847 7.269 4.847 1.498 0 4.38-.361 6.785-.02 3.468.493 5.454 4.192.475 11.166-20.019 28.046-41.177 62.748-41.177 104.197 0 68.337 58.623 136.185 131.298 136.185 72.678 0 131.293-67.847 131.293-136.185 0-41.449-21.15-76.152-41.173-104.196zm-19.626 4.912c-2.177 0-3.941-1.765-3.941-3.944 0-2.174 1.764-3.94 3.941-3.94 2.171 0 3.941 1.764 3.941 3.94 0 2.179-1.769 3.944-3.941 3.944zm-140.988-7.883c2.174 0 3.939 1.764 3.939 3.94 0 2.177-1.765 3.944-3.939 3.944-2.172 0-3.939-1.765-3.939-3.944 0-2.176 1.767-3.94 3.939-3.94zm-39.246 100.45c-2.169 0-3.938-1.765-3.938-3.941 0-2.178 1.769-3.943 3.938-3.943 2.182 0 3.94 1.765 3.94 3.943 0 2.174-1.758 3.941-3.94 3.941zm19.383 78.027c-2.173 0-3.941-1.769-3.941-3.943 0-2.173 1.765-3.94 3.941-3.94 2.177 0 3.937 1.767 3.937 3.94s-1.76 3.943-3.937 3.943zm90.358 44.586c-2.177 0-3.937-1.764-3.937-3.942 0-2.174 1.761-3.941 3.937-3.941 2.174 0 3.935 1.764 3.935 3.941.002 2.177-1.762 3.942-3.935 3.942zm90.355-44.586c-2.177 0-3.938-1.769-3.938-3.943 0-2.173 1.761-3.94 3.938-3.94 2.174 0 3.939 1.767 3.939 3.94s-1.762 3.943-3.939 3.943zm19.386-78.027c-2.181 0-3.946-1.765-3.946-3.941 0-2.178 1.765-3.943 3.946-3.943 2.166 0 3.939 1.765 3.939 3.943 0 2.174-1.773 3.941-3.939 3.941z" fill="#023A79" sketch:type="MSShapeGroup"/><path d="M325.734 152.306c2.175 0 3.939 1.763 3.939 3.94s-1.764 3.941-3.939 3.941c-2.177 0-3.94-1.764-3.94-3.941 0-2.177 1.763-3.94 3.94-3.94" fill="#fff" sketch:type="MSShapeGroup"/><path d="M184.744 152.304c2.177 0 3.941 1.764 3.941 3.942 0 2.177-1.764 3.943-3.941 3.943-2.176 0-3.941-1.765-3.941-3.943 0-2.177 1.765-3.942 3.941-3.942" fill="#fff" sketch:type="MSShapeGroup"/><path d="M141.56 248.812c0-2.174 1.769-3.939 3.938-3.939 2.182 0 3.94 1.764 3.94 3.939 0 2.179-1.758 3.944-3.94 3.944-2.169 0-3.938-1.767-3.938-3.944" fill="#fff" sketch:type="MSShapeGroup"/><path d="M164.881 322.903c2.177 0 3.939 1.764 3.939 3.939 0 2.177-1.762 3.94-3.939 3.94-2.176 0-3.937-1.764-3.937-3.94s1.762-3.939 3.937-3.939" fill="#fff" sketch:type="MSShapeGroup"/><path d="M255.239 367.489c2.177 0 3.941 1.764 3.941 3.94 0 2.177-1.765 3.939-3.941 3.939-2.174 0-3.939-1.763-3.939-3.939 0-2.177 1.765-3.94 3.939-3.94" fill="#fff" sketch:type="MSShapeGroup"/><path d="M345.594 322.9c2.177 0 3.939 1.764 3.939 3.94 0 2.175-1.762 3.938-3.939 3.938-2.175 0-3.938-1.763-3.938-3.938 0-2.177 1.763-3.94 3.938-3.94" fill="#fff" sketch:type="MSShapeGroup"/><path d="M361.035 248.812c0-2.174 1.765-3.939 3.947-3.939 2.171 0 3.938 1.764 3.938 3.939 0 2.179-1.767 3.944-3.938 3.944-2.182 0-3.947-1.767-3.947-3.944" fill="#fff" sketch:type="MSShapeGroup"/></g></svg>