<svg xmlns="http://www.w3.org/2000/svg" width="512" height="512" viewBox="0 0 512 512"><g><g><path fill="#fff" d="M453.3 248.1c-7.8-6.7-17.8-7.1-23.6-18.7-4.4-8.8-14.3-12.2-23.4-13.6-7.1-1.7-11.2-8.5-16-13.6-6.2-10.8-18.8-10.9-29.9-12.2-12 .4-19.5-14.1-32-17.4-4.6-1.2-17-.3-25.1-6.2-7.3-5.4-16.5-10.8-35-8.4-13.9-2.3-23.8-14.2-37.9-16-9.6-3-18.3 1.4-27.7 1-6.7-1.8-12.2-6.5-19-7.9-10.2-1.8-12.8 2.2-38.6-3.3-12.2-2.6-27.4-6.5-19.5 18.8 3.4 11.1 11.4 38.7-14.6 41.4-9.4.9-18-7.6-26.5-.7-2.9 2.1-8.3-2.6-11.9-1.6-11.3 3.3-6.8 16.4-7.8 25.5-.3 10.2-7.2 17.7-10.6 26.6-8.1 16.3-4.7 38.5 1 54.8 1.6 8.5-.9 17.3.8 25.6.5 1.5 2.3 3.4 4.5 2.3 17.2-8.4 21.5 2 27.4-.4 16.1-7.1 27.2-3.9 30.7 4.3 5.9 17.1-6.8 32-3.4 48.8 3.2 11.3 24.6 1.4 34.7 1 14-1.1 27.6 3 40.9.4 11.6-5.9 24.5-9.2 38.5-8.9 9.3.1 16.6-4.7 24.1-9.1 13.7-9.6 34.5-2.5 47.8-13.3 7.2-5.7 17.8-3.4 25.6-7.8 11.9-10.6 26-16.3 41.5-18.5 8.1-3.1 14.3-11.5 21.9-15.4 6.8-4.2 14.9-5.1 21.4-9.9 10.3-13.6 24.1-24.8 40.5-27.6 15.6-6 10-14.8 1.2-20zm-100.6 60.5c-12.5 11.7-36.2 20.2-58.6 22.5-26.9 2.8-53.6-1.1-75-15.1-12.7-9.3-20.8-23.8-19.2-39.9.9-15.7 10.7-29.2 23.2-38.5-1-1.1-1.8-1.9-2.9-3.2l-30.8 18.6v5.4c3.2 0 4 0 7.8-.1v17.3l-5.8 6.5h-56.7l-.1-13.4 7-10.3c1.2 0 1.7 0 2.2-.1v-59.2h-9.2v-12l7.7-8.5h54.7l.1 12.8-7.7 9.1v23c29.6-16.7 53-29.9 53-29.9v-10.2l4.7-4.8h56.3v13l-7 7.6h-16.6c-9.7 6-11.3 6.9-21.1 12.8 1.1 1.4 2 2.4 4.4 5 26.5-6.4 58.6-5.8 82.5 5.5l8.4-6.4h15.7v39.5l-7.4 8.5-14.2.1c-12.5-20.9-35.9-30.8-60.4-26.8-1.5.4-3.1.6-4.5 1.3 8.8 9.6 9.9 10.7 18.5 19.9h3.7v16.4l-5.7 7.3h-57.3v-13.9l3.7-6.4c-.5-.6-.9-.9-1.6-1.6-5.1 3.8-7.4 10-6.2 16.3 2.7 14.1 16.8 21.7 29.3 24.6 20.7 4.5 44.6 2.7 62.8-5.5 16.3-9.5 17.5-18.1 18.1-18.8h21.7c-.6 10.1-6.8 21.6-17.5 31.6z"/><path d="M436.7 220.8c-10.2-6.5-7.6-19.6-31.4-22.6-12.4-1.8-12.7-19.8-40.6-25.1-13.2-2.5-21.9-15.6-35.7-16.7-12.5.3-25-.1-34.4-7.8-9.3-8.9-23.8-4.1-35.8-6.8-9.8-3.4-14.7-10-24.9-13-11.3-3.6-20.4.5-29.3-1.9-11.5-1.3-20.2-9.8-32.8-7.8-12.3 3.4-25.9.3-38.2-.7-7.4-.8-29.2-5.6-25.3 15.7 2.4 10.1 4.7 20.1 7.2 30 4.8 15.9-.3 17.1-7.8 17.7-7.2.6-8.9-8.9-15.4-9.6-5.3-.8-13.1 4.8-19.4 6.9-6.4 2-9.1-4.7-14.6-5.1-11.7-.1-12.3 15.4-10.2 18 4 7.8 4.8 18.4 1.8 27-4.2 7.5-8.1 15.1-10.3 23.6-4.5 21.2-3.1 45.7 4.5 65.1 2.5 10.8-6.8 23.2 2.8 31.4 8.8 5.8 15.7-2.6 23.9-4.5 6-1.4 16.1 2.8 21.1 0 11.6-5.8 18.4-.9 17 6.9-3.1 12.9-5.9 25.9-10.1 38.4-2.5 9.1 8.7 17.4 14.4 16.4 7.8-1.4 15.6-2.8 23.2-4.2 17.8-2.7 34.2 6.7 51.1.4 11.3-5.5 22.6-11.1 37.1-9.2 9.8 1.3 17.3-3.3 24.6-7.8 9.1-5.4 26-7.6 31.5-7.5 10.1.4 16.4-6.8 25.1-9.5 6.7-2.2 18.3-2.3 20.8-4.1 6.1-5 13.8-12.3 19.3-13.2 16.1-3.1 29.8-10.3 42.5-21.8 1.7-1.8 15.2-4.4 19.3-5.9 8.3-3.3 14-11.5 18.4-18.8 4.4-5.9 10.8-9.8 17.4-11.7 11.5-1.8 22.9-11.7 27.9-21.9 4.5-9.3 2.6-10.9 1.4-12.5-10.9-10.5-23.5-20-36.1-27.8zm15.3 47.4c-16.4 2.8-30.2 14-40.5 27.6-6.5 4.8-14.6 5.7-21.4 9.9-7.6 4-13.9 12.3-21.9 15.4-15.4 2.3-29.6 7.9-41.5 18.5-7.8 4.4-18.4 2.1-25.6 7.8-13.3 10.8-34.1 3.7-47.8 13.3-7.5 4.4-14.7 9.2-24.1 9.1-14-.3-26.9 3-38.5 8.9-13.3 2.5-26.9-1.5-40.9-.4-10 .4-31.4 10.3-34.7-1-3.4-16.8 9.3-31.7 3.4-48.8-3.4-8.2-14.6-11.4-30.7-4.3-5.8 2.4-10.2-8-27.4.4-2.3 1.1-4.1-.8-4.5-2.3-1.7-8.4.7-17.1-.8-25.6-5.7-16.3-9.1-38.5-1-54.8 3.4-8.9 10.3-16.4 10.6-26.6 1-9.1-3.5-22.2 7.8-25.5 3.5-1.1 9 3.6 11.9 1.6 8.5-6.9 17.1 1.6 26.5.7 26-2.7 18-30.3 14.6-41.4-7.8-25.3 7.4-21.4 19.5-18.8 25.8 5.5 28.4 1.5 38.6 3.3 6.8 1.4 12.3 6.1 19 7.9 9.5.4 18.1-4 27.7-1 14.2 1.8 24.1 13.7 37.9 16 18.5-2.4 27.7 3 35 8.4 8 5.9 20.5 5 25.1 6.2 12.5 3.3 20 17.8 32 17.4 11 1.3 23.6 1.4 29.9 12.2 4.8 5.1 8.9 11.9 16 13.6 9.1 1.4 18.9 4.8 23.4 13.6 5.9 11.6 15.9 12 23.6 18.7 8.9 5.1 14.5 13.9-1.2 20zm-121.7 27.4c-18.3 8.2-42.2 10.1-62.8 5.5-12.5-3-26.6-10.5-29.3-24.6-1.1-6.2 1.1-12.5 6.2-16.3.8.8 1.1 1 1.6 1.6l-3.7 6.4v13.9h57.3l5.7-7.3v-16.4h-3.7c-8.6-9.1-9.7-10.3-18.5-19.9 1.4-.7 3-.8 4.5-1.3 24.5-4 47.9 5.9 60.4 26.8l14.2-.1 7.4-8.5v-39.5h-15.7l-8.4 6.4c-23.9-11.3-56-11.9-82.5-5.5-2.4-2.6-3.3-3.5-4.4-5 9.8-5.9 11.4-6.8 21.1-12.8h16.6l7-7.6v-13h-56.3l-4.7 4.8v10.2s-23.4 13.2-53 29.9v-23l7.7-9.1-.1-12.8h-54.7l-7.7 8.5v12h9.2v59.2c-.5 0-1 0-2.2.1l-7 10.3.1 13.4h56.7l5.8-6.5v-17.3c-3.8 0-4.5 0-7.8.1v-5.4l30.7-18.8c1.2 1.3 2 2.2 2.9 3.2-12.6 9.3-22.4 22.8-23.2 38.5-1.6 16.1 6.5 30.6 19.2 39.9 21.4 14 48.1 17.9 75 15.1 22.4-2.3 46.1-10.7 58.6-22.5 10.7-10 17-21.5 17.4-31.9h-21.7c-.4 1.2-1.6 9.8-17.9 19.3zm4.1-74.1s8.9 3 11.8 4.7l8.3-6.7h11.5v35.1h-11.6c-17.8-22.2-47.8-26.6-75.3-20.5l-13-14c21.2-6.5 48.2-6.1 68.3 1.4zm-148.9 29.9v11.3h8.1l-.1 10.2c-22.9 0-25 0-48.8.1v-10.3h9v-72.4h-9v-8.3h48.8c0 3.6 0 4.2.1 8.4-3.1 0-3.1 0-8.1-.1l.1 39.6 70.9-39.6h-7.7v-8.3l51-.1v8.3h-12.4c-14.1 8.5-34.8 21-34.8 21l47.9 51.4h1.3v10.3h-51.2v-10.3h7.4c-20.6-22.6-32.5-35.5-32.5-35.5-13.1 7.9-16.9 10.1-40 24.3zm180.5 29.6c-7.2 27.4-36.9 39.5-62.4 43-23.9 3.3-48.4.3-68.9-8.5-14.3-5.5-26.8-19.4-28-35.1-1.2-16.2 6.2-30.9 19.5-39.7l15.4 16.2c-5 5.7-7.9 12.5-6.5 20.2 2.4 15 18.5 25.3 32.1 28.2 24.5 4 51.8 2.4 72.2-9.8 10.1-7.2 14.1-14.6 14.1-14.6 5.4.1 7.1.1 12.5.1z"/><path fill="#B21E35" d="M257.9 262.7h-7.4v10.3h51.2v-10.3h-1.3l-47.9-51.4s20.7-12.5 34.8-21h12.4v-8.3l-51 .1v8.3h7.7l-70.9 39.6-.1-39.6c5 0 5 0 8.1.1 0-4.2 0-4.7-.1-8.4h-48.8v8.3h9v72.4h-9v10.3c23.8 0 25.9 0 48.8-.1l.1-10.2h-8.1v-11.3c23.2-14.2 26.9-16.5 39.9-24.3.1 0 12 12.9 32.6 35.5zm96.5-8h11.6v-35.1h-11.5l-8.3 6.7c-2.9-1.6-11.8-4.7-11.8-4.7-20.1-7.5-47.1-7.9-68.4-1.5l13 14c27.6-6.1 57.5-1.7 75.4 20.6zm-15.2 40.9c-20.4 12.2-47.7 13.7-72.2 9.8-13.6-2.8-29.7-13.2-32.1-28.2-1.4-7.8 1.6-14.6 6.5-20.2l-15.4-16.2c-13.3 8.8-20.7 23.5-19.5 39.7 1.2 15.7 13.7 29.6 28 35.1 20.5 8.8 45 11.8 68.9 8.5 25.6-3.5 55.2-15.7 62.4-43h-12.6c.2-.1-3.9 7.3-14 14.5z"/></g></g></svg>