<?xml version="1.0" encoding="UTF-8" standalone="no"?>
<svg width="512px" height="512px" viewBox="0 0 512 512" version="1.1" xmlns="http://www.w3.org/2000/svg" xmlns:xlink="http://www.w3.org/1999/xlink" xmlns:sketch="http://www.bohemiancoding.com/sketch/ns">
    <!-- Generator: Sketch 3.1 (8751) - http://www.bohemiancoding.com/sketch -->
    <title>kansas-city-chiefs</title>
    <desc>Created with Sketch.</desc>
    <defs></defs>
    <g id="Page-1" stroke="none" stroke-width="1" fill="none" fill-rule="evenodd" sketch:type="MSPage">
        <g id="kansas-city-chiefs" sketch:type="MSArtboardGroup">
            <g id="svg" sketch:type="MSLayerGroup" transform="translate(62.000000, 132.000000)">
                <path d="M368.92,116.148 C362.021,110.247 353.149,109.854 347.961,99.582 C344.018,91.757 335.289,88.79 327.255,87.534 C320.98,86.028 317.34,80.005 313.075,75.486 C307.55,65.948 296.382,65.822 286.594,64.693 C275.927,65.073 269.282,52.198 258.216,49.258 C254.122,48.171 243.099,48.978 235.964,43.764 C229.468,39.013 221.319,34.229 204.894,36.332 C192.594,34.325 183.809,23.783 171.259,22.148 C162.725,19.513 155.069,23.404 146.663,23.029 C140.764,21.396 135.865,17.255 129.846,15.997 C120.805,14.41 118.507,17.955 95.6,13.055 C84.82,10.735 71.339,7.284 78.265,29.744 C81.305,39.59 88.388,64.079 65.335,66.453 C57.031,67.269 49.398,59.675 41.868,65.823 C39.317,67.665 34.47,63.491 31.326,64.444 C21.283,67.328 25.299,78.999 24.424,87.035 C24.175,96.068 18.023,102.72 15.012,110.63 C7.858,125.06 10.875,144.761 15.891,159.196 C17.271,166.722 15.136,174.506 16.642,181.913 C17.067,183.206 18.651,184.927 20.659,183.919 C35.89,176.493 39.737,185.71 44.914,183.588 C59.2,177.324 69.064,180.133 72.115,187.436 C77.386,202.62 66.091,215.8 69.102,230.733 C71.97,240.776 90.944,232.002 99.852,231.623 C112.275,230.69 124.318,234.247 136.115,231.987 C146.367,226.767 157.829,223.834 170.257,224.084 C178.533,224.213 184.939,219.939 191.586,216.05 C203.764,207.513 222.212,213.792 234.005,204.248 C240.408,199.231 249.821,201.239 256.721,197.343 C267.268,187.937 279.815,182.917 293.5,180.91 C300.645,178.151 306.167,170.738 312.947,167.224 C318.971,163.461 326.125,162.711 331.9,158.437 C341.056,146.395 353.234,136.48 367.791,133.965 C381.7,128.535 376.695,120.686 368.92,116.148 L368.92,116.148 L368.92,116.148 Z M279.682,169.777 C268.568,180.178 247.592,187.645 227.732,189.695 C203.859,192.141 180.167,188.687 161.215,176.263 C149.923,167.978 142.771,155.178 144.148,140.872 C144.902,126.939 153.592,114.989 164.763,106.703 C163.901,105.763 163.196,104.979 162.156,103.834 L134.89,120.481 C134.877,121.92 134.864,123.849 134.864,125.231 C137.704,125.214 138.406,125.214 141.738,125.181 L141.738,140.496 L136.623,146.272 L86.343,146.23 L86.295,134.343 L92.52,125.23 C93.54,125.212 94.014,125.212 94.453,125.179 L94.453,72.647 L86.295,72.678 L86.325,62.028 L93.121,54.482 L141.669,54.482 L141.72,65.792 L134.89,73.855 L134.877,94.218 C161.155,79.409 181.874,67.724 181.874,67.724 L181.874,58.717 L186.08,54.466 L236.002,54.466 C235.985,59.643 235.985,60.977 236.002,65.964 L229.804,72.666 L215.055,72.679 C206.493,77.999 205.079,78.782 196.359,84.021 C197.312,85.294 198.096,86.157 200.25,88.417 C223.714,82.766 252.207,83.269 273.414,93.309 L280.818,87.663 L294.765,87.628 C294.733,98.864 294.733,104.745 294.748,122.678 L288.225,130.207 L275.622,130.254 C264.579,111.679 243.798,102.972 222.083,106.485 C220.71,106.864 219.326,106.989 218.07,107.618 C225.866,116.116 226.882,117.143 234.481,125.25 C235.985,125.217 236.455,125.217 237.73,125.217 L237.696,139.744 L232.661,146.254 L181.861,146.254 L181.861,133.941 L185.133,128.255 C184.688,127.73 184.37,127.497 183.678,126.817 C179.165,130.21 177.157,135.727 178.161,141.251 C180.548,153.795 193.097,160.456 204.138,163.089 C222.461,167.105 243.67,165.467 259.86,158.191 C274.344,149.765 275.361,142.157 275.927,141.5 L295.147,141.5 C294.733,150.708 289.163,160.906 279.682,169.777 L279.682,169.777 Z" id="Fill-1" fill="#FFFFFF" sketch:type="MSShapeGroup"></path>
                <path d="M354.236,91.926 C345.228,86.13 347.453,74.583 326.375,71.873 C315.379,70.301 315.111,54.337 290.357,49.631 C278.654,47.409 270.904,35.826 258.729,34.823 C247.687,35.074 236.52,34.699 228.238,27.92 C219.951,20.014 207.152,24.281 196.482,21.896 C187.8,18.846 183.458,13.01 174.419,10.376 C164.415,7.211 156.32,10.853 148.414,8.718 C138.252,7.591 130.473,0.061 119.299,1.817 C108.38,4.829 96.335,2.068 85.418,1.19 C78.886,0.438 59.527,-3.787 62.95,15.12 C65.085,24.033 67.093,32.942 69.352,41.727 C73.605,55.793 69.073,56.849 62.447,57.415 C56.046,57.917 54.542,49.508 48.767,48.883 C44.102,48.14 37.162,53.163 31.573,55.031 C25.922,56.789 23.542,50.887 18.648,50.514 C8.259,50.414 7.728,64.193 9.612,66.451 C13.129,73.351 13.881,82.766 11.245,90.42 C7.482,97.071 4.09,103.85 2.082,111.381 C-1.935,130.205 -0.678,151.917 6.098,169.11 C8.356,178.648 0.073,189.694 8.607,196.972 C16.391,202.117 22.523,194.625 29.821,192.955 C35.171,191.731 44.074,195.464 48.504,192.991 C58.809,187.886 64.781,192.228 63.578,199.102 C60.817,210.526 58.31,222.071 54.665,233.108 C52.487,241.217 62.387,248.497 67.474,247.67 C74.37,246.422 81.275,245.159 88.054,243.908 C103.867,241.524 118.422,249.808 133.358,244.286 C143.398,239.39 153.427,234.421 166.242,236.124 C174.901,237.255 181.552,233.238 188.076,229.221 C196.11,224.453 211.141,222.457 215.986,222.574 C224.899,222.944 230.496,216.545 238.277,214.168 C244.203,212.193 254.542,212.108 256.721,210.526 C262.122,206.133 268.957,199.582 273.851,198.84 C288.159,196.079 300.273,189.694 311.565,179.527 C313.103,177.972 325.072,175.622 328.637,174.261 C336.037,171.367 341.056,164.089 344.948,157.564 C348.843,152.29 354.489,148.906 360.389,147.151 C370.552,145.515 380.716,136.794 385.106,127.697 C389.114,119.419 387.448,118.001 386.369,116.654 C376.577,107.237 365.406,98.829 354.236,91.926 L354.236,91.926 Z M367.791,133.965 C353.234,136.48 341.056,146.392 331.9,158.437 C326.125,162.711 318.971,163.461 312.947,167.224 C306.167,170.738 300.645,178.151 293.5,180.91 C279.815,182.917 267.268,187.937 256.721,197.343 C249.821,201.239 240.408,199.231 234.005,204.248 C222.212,213.79 203.764,207.512 191.586,216.05 C184.939,219.939 178.536,224.212 170.257,224.085 C157.83,223.834 146.367,226.767 136.115,231.987 C124.318,234.247 112.275,230.69 99.852,231.623 C90.944,232.002 71.97,240.776 69.102,230.733 C66.089,215.8 77.386,202.62 72.115,187.436 C69.064,180.133 59.2,177.324 44.914,183.588 C39.737,185.71 35.89,176.493 20.659,183.919 C18.651,184.927 17.067,183.206 16.642,181.913 C15.136,174.506 17.271,166.722 15.891,159.196 C10.874,144.762 7.858,125.06 15.012,110.63 C18.023,102.72 24.175,96.068 24.424,87.035 C25.301,78.999 21.283,67.328 31.326,64.444 C34.47,63.49 39.317,67.665 41.868,65.823 C49.398,59.675 57.031,67.269 65.335,66.453 C88.388,64.079 81.305,39.59 78.265,29.744 C71.339,7.284 84.82,10.735 95.6,13.055 C118.507,17.953 120.805,14.409 129.846,15.996 C135.865,17.254 140.764,21.395 146.663,23.028 C155.069,23.403 162.725,19.512 171.259,22.147 C183.809,23.781 192.594,34.324 204.894,36.33 C221.319,34.228 229.468,39.013 235.964,43.763 C243.099,48.978 254.122,48.169 258.216,49.257 C269.282,52.196 275.927,65.071 286.594,64.692 C296.382,65.822 307.55,65.947 313.075,75.485 C317.34,80.003 320.98,86.027 327.255,87.533 C335.289,88.789 344.018,91.756 347.961,99.581 C353.149,109.852 362.021,110.247 368.92,116.148 C376.695,120.686 381.7,128.535 367.791,133.965 L367.791,133.965 Z M259.86,158.188 C243.67,165.463 222.461,167.103 204.138,163.085 C193.097,160.451 180.548,153.791 178.161,141.247 C177.157,135.723 179.167,130.205 183.678,126.814 C184.37,127.493 184.686,127.728 185.133,128.25 L181.861,133.937 L181.861,146.252 L232.661,146.252 L237.696,139.739 L237.73,125.214 C236.455,125.214 235.985,125.214 234.481,125.247 C226.882,117.139 225.866,116.113 218.07,107.615 C219.326,106.987 220.71,106.861 222.083,106.482 C243.798,102.969 264.579,111.676 275.622,130.25 L288.225,130.202 L294.748,122.673 C294.733,104.741 294.733,98.861 294.765,87.625 C288.852,87.644 287.046,87.644 280.818,87.659 L273.414,93.305 C252.207,83.265 223.714,82.762 200.25,88.413 C198.096,86.151 197.31,85.29 196.359,84.018 C205.079,78.779 206.491,77.995 215.055,72.675 L229.804,72.662 L236.002,65.96 C235.985,60.973 235.985,59.639 236.002,54.463 L186.08,54.463 L181.874,58.713 L181.874,67.721 C181.874,67.721 161.155,79.406 134.877,94.215 L134.89,73.852 L141.72,65.788 L141.669,54.479 L93.121,54.479 L86.325,62.024 L86.295,72.675 L94.453,72.644 L94.453,125.178 C94.014,125.212 93.54,125.212 92.52,125.229 L86.295,134.34 L86.343,146.229 L136.623,146.272 L141.738,140.496 L141.738,125.181 C138.406,125.214 137.704,125.214 134.864,125.231 C134.864,123.848 134.878,121.918 134.89,120.481 L162.156,103.834 C163.196,104.979 163.901,105.763 164.763,106.703 C153.592,114.989 144.902,126.939 144.148,140.872 C142.771,155.178 149.923,167.978 161.215,176.263 C180.167,188.687 203.857,192.141 227.732,189.695 C247.592,187.645 268.568,180.178 279.682,169.777 C289.163,160.906 294.733,150.709 295.147,141.499 L275.927,141.499 C275.361,142.153 274.344,149.761 259.86,158.188 L259.86,158.188 Z M263.502,92.552 C263.502,92.552 271.361,95.251 273.947,96.709 L281.319,90.796 C285.632,90.779 287.52,90.779 291.489,90.779 L291.489,121.932 C287.439,121.918 286.338,121.918 281.197,121.918 C265.387,102.215 238.809,98.309 214.412,103.706 L202.85,91.266 C221.707,85.527 245.678,85.902 263.502,92.552 L263.502,92.552 Z M131.442,119.066 L131.412,129.076 L138.582,129.048 L138.532,138.137 C118.248,138.151 116.368,138.151 95.302,138.187 L95.283,129.059 L103.236,129.059 L103.236,64.817 L95.283,64.817 L95.283,57.443 C115.421,57.443 119.972,57.443 138.53,57.431 C138.562,60.662 138.562,61.131 138.582,64.85 C135.819,64.817 135.819,64.817 131.393,64.801 L131.442,99.894 L194.318,64.816 C194.318,64.816 189.703,64.816 187.477,64.787 C187.505,61.758 187.505,60.894 187.494,57.46 L232.69,57.414 L232.704,64.817 L221.705,64.817 C209.232,72.348 190.866,83.47 190.866,83.47 L233.359,129.059 L234.51,129.048 C234.51,132.429 234.489,134.552 234.51,138.187 L189.094,138.151 L189.076,129.048 L195.681,129.031 C177.393,108.978 166.863,97.558 166.863,97.558 C155.318,104.461 151.98,106.47 131.442,119.066 L131.442,119.066 Z M291.489,145.278 C285.087,169.533 258.807,180.279 236.14,183.415 C214.921,186.353 193.222,183.668 175.024,175.884 C162.344,170.992 151.234,158.681 150.173,144.761 C149.078,130.387 155.63,117.343 167.431,109.561 L181.047,123.927 C176.652,128.948 174.017,134.973 175.273,141.878 C177.404,155.179 191.714,164.341 203.763,166.854 C225.473,170.366 249.696,168.984 267.769,158.188 C276.694,151.805 280.301,145.266 280.301,145.266 C285.17,145.297 286.729,145.297 291.489,145.278 L291.489,145.278 Z" id="Fill-2" fill="#000000" sketch:type="MSShapeGroup"></path>
                <path d="M195.683,129.031 L189.08,129.048 L189.097,138.151 L234.512,138.187 C234.491,134.552 234.512,132.431 234.512,129.048 L233.361,129.059 L190.869,83.47 C190.869,83.47 209.234,72.348 221.707,64.817 L232.707,64.817 L232.692,57.414 L187.497,57.46 C187.508,60.894 187.508,61.758 187.481,64.787 C189.705,64.816 194.32,64.816 194.32,64.816 L131.442,99.896 L131.396,64.802 C135.821,64.818 135.821,64.818 138.582,64.851 C138.566,61.132 138.566,60.663 138.532,57.432 C119.972,57.445 115.423,57.445 95.285,57.445 L95.285,64.818 L103.238,64.818 L103.238,129.059 L95.285,129.059 L95.302,138.187 C116.369,138.151 118.248,138.151 138.533,138.137 L138.584,129.048 L131.414,129.076 C131.431,124.433 131.431,123.022 131.444,119.066 C151.98,106.47 155.321,104.461 166.866,97.559 C166.866,97.559 177.396,108.979 195.683,129.031 L195.683,129.031 Z M281.197,121.918 C286.339,121.918 287.437,121.918 291.489,121.934 L291.489,90.781 C287.52,90.781 285.632,90.781 281.319,90.798 L273.947,96.71 C271.361,95.251 263.502,92.554 263.502,92.554 C245.679,85.903 221.707,85.529 202.85,91.267 L214.414,103.709 C238.809,98.311 265.387,102.216 281.197,121.918 L281.197,121.918 Z M267.769,158.188 C249.696,168.984 225.474,170.366 203.763,166.852 C191.714,164.341 177.404,155.177 175.273,141.876 C174.015,134.971 176.652,128.947 181.047,123.925 L167.431,109.56 C155.63,117.343 149.078,130.387 150.173,144.758 C151.234,158.679 162.344,170.989 175.024,175.884 C193.222,183.665 214.921,186.351 236.14,183.415 C258.809,180.277 285.087,169.533 291.489,145.276 C286.728,145.297 285.17,145.297 280.301,145.264 C280.301,145.264 276.694,151.804 267.769,158.188 L267.769,158.188 Z" id="Fill-3" fill="#B21E35" sketch:type="MSShapeGroup"></path>
            </g>
        </g>
    </g>
</svg>