<?xml version="1.0" encoding="utf-8"?>
<!-- Generator: Adobe Illustrator 16.0.0, SVG Export Plug-In . SVG Version: 6.00 Build 0)  -->
<!DOCTYPE svg PUBLIC "-//W3C//DTD SVG 1.1//EN" "http://www.w3.org/Graphics/SVG/1.1/DTD/svg11.dtd">
<svg version="1.1" id="MINNESOTA_VIKINGS" xmlns="http://www.w3.org/2000/svg" xmlns:xlink="http://www.w3.org/1999/xlink" x="0px"
	 y="0px" width="149.838px" height="200px" viewBox="0 0 149.838 200" enable-background="new 0 0 149.838 200"
	 xml:space="preserve">
<path fill="#FFFFFF" d="M126.02,72.812l-1.36-1.983c-2.446-3.411-5.469-6.884-9.169-10.219c-14.237-12.83-37.76-15.21-38.754-15.307
	l-2.206-0.209c0,0-0.045,3.309-0.253,4.246l-0.021,0.105c-0.077,0.459-0.169,0.892-0.272,1.288c-2.681-1.673-4.55-3.369-5.457-4.973
	c-1.673-2.958-2.213-5.667-2.733-8.287c-0.371-1.86-0.721-3.618-1.445-5.323c-1.903-4.472-4.641-8.285-8.138-11.329
	c-0.63-0.548-1.278-1.116-2.271-1.116c-0.393,0-0.988,0.103-1.584,0.583c-0.426,0.347-1.703,1.64-0.276,3.748
	c0.023,0.037,2.348,4.287,3.218,10.38c0.072,0.501,0.128,1.03,0.176,1.584l0.039,0.613l-0.255-0.241l-0.024-0.353v-0.004
	L55.06,34.45c-0.647-4.536-2.112-8.052-2.807-9.529l-0.373-0.75l-0.005-0.013l-0.435-0.793c-0.749-1.785,0.357-2.934,0.764-3.263
	c0.646-0.522,1.303-0.636,1.736-0.636c0.82,0,1.426,0.354,1.938,0.761l0.488,0.413h0.001l1.285,1.187
	c2.916,2.854,5.239,6.288,6.915,10.228c0.737,1.735,1.09,3.512,1.46,5.372c0.455,2.292,0.922,4.629,2.139,7.133l0.569,1.083
	l0.373,0.586c0.73,1.035,1.869,2.119,3.376,3.21l1.337,0.898l0.197-0.932V49.4l0.022-0.108l0.001-0.005
	c0.17-0.766,0.232-3.411,0.245-4.055c0.001-0.092,0.003-0.141,0.003-0.141l0.264-0.236l2.205,0.211l1.373,0.157
	c5.38,0.694,24.991,3.92,37.518,15.208c3.713,3.346,6.746,6.834,9.204,10.256l0.003,0.006l1.289,1.878L126.02,72.812z"/>
<path fill="#000002" d="M138.191,127.375c-0.728-0.161-2.584-0.645-2.584-0.645c1.371-3.875,1.371-6.3,1.371-6.3
	c1.213-0.645,3.635-1.614,3.635-1.614c-0.808-4.281-3.714-7.588-3.714-7.588c0.242-0.889,0.807-2.421,0.807-2.988
	s-1.049-1.533-2.179-2.26s-1.292-2.019-1.292-3.557c0-1.531-0.647-3.47-0.89-3.549c-0.24-0.082,2.881-1.07,3.852-3.814
	c0.97-2.747,0.994-4.976,0.994-4.976c-1.292,1.882-6.34,2.653-6.34,2.653c-0.404-4.279-3.834-18.086-17.722-30.601
	c-13.888-12.516-37.546-14.776-37.546-14.776c0.036,0.698-0.057,1.526-0.258,2.436c-0.199,1.173-0.541,2.567-1.139,3.688
	c-0.035,0.069-0.085,0.149-0.127,0.226c-3.268-1.769-6.697-4.147-8.27-6.929c-3.044-5.378-2.665-10.011-4.279-13.808
	c-2.645-6.213-6.458-9.587-7.592-10.576c-0.653-0.568-0.871-0.758-1.21-0.482c-0.327,0.266-0.109,0.647,0.163,1.047
	c0.253,0.381,2.629,4.968,3.516,11.186c0.89,6.218-0.288,16.026,2.619,22.326c1.809,3.918,4.805,7.021,6.811,8.808
	c0.069,0.063,0.139,0.124,0.206,0.182l0.651,0.65c-4.156,0.386-8.014,0.237-12.12-2.063c-6.601-3.328-11.66-11.057-12.588-19.232
	l-0.114-0.98c-0.261-2.246-0.155-4.482-0.254-6.733c-0.089-2.041-0.314-4.074-0.669-6.086c-0.155-0.884-0.338-1.763-0.552-2.636
	c-0.001-0.009-0.002-0.02-0.004-0.029c-0.089-0.533-0.242-1.06-0.395-1.577c-0.102-0.347-0.214-0.691-0.329-1.036
	c-0.254-0.764-0.594-1.498-1.023-2.192c-0.521-0.843-1.094-1.657-1.767-2.39c-0.397-0.429-0.822-0.831-1.302-1.173
	c0,0-0.437-0.28-0.745-0.118c0,0-0.392,0.275,0.029,1.143c0,0,0.105,0.173,0.23,0.465c0.071,0.166,0.148,0.376,0.218,0.609
	c0.063,0.211,0.119,0.444,0.158,0.695c0.332,1.771,0.567,5.59-0.833,12.882l-0.011,0.028c-0.124,1.051-0.262,2.115-0.443,3.164
	c-0.582,3.414-1.142,7.287-1.236,11.311c-0.004,0.177,0.019,0.694,0.018,0.803c-0.041,3.576,0.644,27.029,24.896,34.418
	c-0.115,0.5-0.218,0.986-0.3,1.455c-1.636,10.339-1.03,14.699-1.03,14.699s0.004,0.044,0.009,0.105
	c-4.958,1.865-10.574,4.389-16.488,7.773c-6.616,3.625-13.797,8.555-20.818,15.289c-1.32,1.267-2.556,2.518-3.724,3.753
	c-0.289,0.302-0.571,0.604-0.852,0.902c-0.018,0.021-0.035,0.041-0.053,0.058c-3.708,3.99-6.506,7.67-8.538,10.665
	c10.961-7.915,28.078-10.283,33.312-10.59c5.492-0.323,11.047-1.263,11.047-1.263s2.17,1.157,4.762,1.728
	c2.941,0.649,6.015-0.282,6.015-0.282c1.104,5.686,5.1,9.341,6.146,10.162c-0.271,1.713,0.006,7.353,1.929,10.485
	c2.073,3.38,5.492,5.653,5.492,5.653s-0.24,3.061,0.564,5.248c0.807,2.187,2.675,4.176,2.675,4.176s-0.854,1.433-0.968,3.232
	c-0.113,1.795,0.968,2.796,0.968,2.796s-0.976,1.251-1.142,2.229c-0.161,0.981,0.442,2.454,0.442,2.454s-0.592,1.075-0.767,1.907
	c-0.17,0.831,0.324,1.856,0.324,1.856c-0.397,0.771-1.574,4.408,0.157,5.868c1.729,1.463,3.882-1.267,3.882-1.267
	c0.658-0.191,1.907-1.012,2.503-1.938c0.726-1.129,0.726-2.18,0.726-2.18s0.925-0.605,1.731-2.14c0.661-1.248,0.57-2.069,0.57-2.069
	s3.753-3.945,4.535-8.871c0.664-4.198-0.322-8.074-0.322-8.074s2.821-4.293,2.691-9.202c1.921-1.339,6.557-4.353,12.328-6.598
	c0.166,3.312,0.689,6.182-0.347,11.499c-1.295,6.623-7.19,11.466-7.19,11.466c8.237-0.887,13.73-8.151,15.91-13.399
	c1.777-4.284,3.396-10.342,4.151-13.084c8.031-1.562,15.376-1.975,17.808-2.342c3.232-0.484,4.039-1.209,4.119-2.421
	s-0.242-3.391-0.484-4.845C140.371,128.828,138.919,127.535,138.191,127.375"/>
<path fill="#FFFFFF" d="M42.586,43.521l-0.11-1.354c-0.086-1.693-0.043-3.374-0.117-5.053c-0.089-2.029-0.313-4.053-0.666-6.054
	c-0.155-0.879-0.336-1.753-0.548-2.62l-0.005-0.023l-0.003-0.023c-0.086-0.516-0.235-1.032-0.388-1.548l-0.328-1.028l-0.434-1.098
	l-0.564-1.046l0,0l-0.816-1.22l-0.923-1.133l-0.604-0.604l-0.65-0.527l-0.011-0.006l-0.194-0.08l-0.288-0.025l-0.006,0.009
	c-0.036,0.053-0.078,0.173-0.028,0.398l0.147,0.399l0.006,0.021l0.236,0.474l0.227,0.636h0.002l0.163,0.72v0.009l0.21,1.755
	c0.143,2.189,0.009,5.726-1.043,11.208l-0.014,0.044l-0.44,3.146c-0.579,3.407-1.138,7.269-1.23,11.274l0.018,0.802
	c-0.041,3.558,0.641,26.849,24.725,34.185l0.163,0.282l-0.295,1.439l-0.001,0.003l-0.486,3.381
	c-0.94,7.333-0.599,10.769-0.548,11.198c0.004,0.033,0.006,0.047,0.006,0.047l0.001,0.01c0,0.001,0.004,0.046,0.008,0.112
	l-0.154,0.24c-4.947,1.861-10.552,4.382-16.454,7.758l-0.004,0.002c-5.772,3.162-11.979,7.325-18.134,12.814l-2.634,2.437
	l-1.914,1.885c-0.619,0.624-1.218,1.245-1.801,1.86l-0.001,0.002l-0.844,0.891l-0.007,0.01l-0.053,0.059l-0.005,0.005l-1.979,2.197
	c-1.892,2.164-3.505,4.211-4.865,6.07l-0.924,1.312l1.056-0.708c10.993-6.824,26.371-8.918,31.302-9.207
	c4.105-0.242,8.256-0.829,10.071-1.107c0.605-0.091,0.95-0.151,0.95-0.151l0.154,0.025c0,0,0.031,0.018,0.093,0.049
	c0.441,0.223,2.373,1.165,4.607,1.656c2.508,0.552,5.151-0.078,5.763-0.243c0.088-0.022,0.133-0.036,0.133-0.036l0.305,0.186
	c1.086,5.598,5.037,9.218,6.058,10.02l0.09,0.226c-0.263,1.656,0.024,7.273,1.896,10.32c1.784,2.909,4.604,5.006,5.272,5.479
	c0.096,0.066,0.146,0.099,0.146,0.099l0.106,0.218c0,0-0.003,0.047-0.007,0.133c-0.034,0.604-0.124,3.165,0.558,5.017
	c0.687,1.859,2.187,3.608,2.547,4.011c0.053,0.056,0.079,0.086,0.079,0.086l0.031,0.286c0,0-0.013,0.017-0.034,0.058
	c-0.116,0.213-0.511,0.979-0.741,1.986l-0.161,1.078l0.005,0.562c0.107,1.24,0.798,1.959,0.879,2.039
	c0.009,0.005,0.009,0.008,0.009,0.008l0.026,0.322c0,0-0.059,0.075-0.147,0.204c-0.205,0.292-0.572,0.852-0.791,1.395l-0.154,0.522
	H78.08l-0.011,0.538c0.044,0.575,0.239,1.211,0.353,1.548c0.053,0.148,0.087,0.239,0.087,0.239l-0.013,0.204
	c0,0-0.008,0.014-0.023,0.047c-0.084,0.157-0.364,0.705-0.561,1.257l-0.155,0.537l-0.026,0.424c0.022,0.438,0.174,0.887,0.264,1.118
	c0.039,0.103,0.067,0.16,0.067,0.16l-0.003,0.215c-0.405,0.782-1.471,4.251,0.098,5.576c0.753,0.637,1.627,0.347,2.314-0.11
	c0.688-0.46,1.196-1.086,1.225-1.121l0.121-0.082c0.588-0.172,1.814-0.976,2.369-1.838c0.645-1.006,0.685-1.948,0.688-2.045
	c0-0.006,0-0.006,0-0.006l0.107-0.201c0,0,0,0,0.006-0.002c0.08-0.058,0.912-0.652,1.646-2.047c0.614-1.165,0.546-1.923,0.544-1.938
	l0.064-0.187c0,0,0.055-0.061,0.157-0.177c0.626-0.705,2.946-3.498,3.968-7.017l0.348-1.551l0.16-1.345
	c0.252-3.088-0.284-5.779-0.438-6.463c-0.028-0.113-0.042-0.168-0.042-0.168l0.033-0.193c0,0,0.042-0.063,0.115-0.188
	c0.527-0.873,2.648-4.658,2.538-8.876l0.103-0.201c1.931-1.347,6.581-4.369,12.377-6.626l0.328,0.213
	c0.165,3.289,0.691,6.207-0.353,11.557c-0.986,5.047-4.575,9.045-6.317,10.733l-0.355,0.325l0.711-0.113
	c7.284-1.523,12.199-8.138,14.224-13.02c1.772-4.262,3.39-10.312,4.144-13.053l0.186-0.174c8.047-1.564,15.41-1.979,17.818-2.342
	c2.826-0.424,3.65-1,3.859-1.83l0.056-0.369l-0.009-1.035c-0.068-1.172-0.292-2.67-0.474-3.755c-0.168-1.011-1-1.956-1.664-2.422
	l-0.573-0.291l-2.59-0.646l-0.168-0.314c1.276-3.604,1.354-5.934,1.358-6.193c0-0.016,0-0.024,0-0.024l0.127-0.211
	c0.617-0.329,1.532-0.734,2.289-1.059l1.177-0.486l-0.284-1.157c-0.909-3.043-2.722-5.393-3.206-5.986
	c-0.08-0.098-0.124-0.145-0.124-0.145l-0.05-0.223c0.245-0.901,0.799-2.454,0.799-2.924c0-0.391-0.914-1.315-2.069-2.059
	c-1.247-0.804-1.401-2.22-1.401-3.758c0-1.578-0.705-3.314-0.725-3.322l-0.078-0.039l-0.011-0.012l-0.083-0.125
	c-0.082-0.319,0.973-0.728,1.662-1.212c0.623-0.441,1.303-1.047,1.793-1.856l0.416-0.877l0.399-1.287
	c0.331-1.227,0.474-2.267,0.535-2.91l0.005-0.048l-0.1,0.104c-1.608,1.34-4.837,1.956-5.702,2.102
	c-0.141,0.022-0.218,0.033-0.218,0.033l-0.275-0.213c-0.399-4.223-3.811-17.979-17.646-30.446
	C101.887,51.428,82.301,48.326,77.598,47.72l-0.783-0.091l-0.031,0.896l-0.224,1.311l-0.003,0.013l-0.418,1.879
	c-0.096,0.322-0.203,0.646-0.326,0.961l-0.413,0.91l-0.129,0.229l-0.324,0.095c-2.869-1.552-5.886-3.578-7.676-5.971l-0.688-1.05
	l-0.893-1.758c-1.83-4.035-1.985-7.612-2.888-10.637l-0.511-1.437l-1.032-2.182c-2.497-4.784-5.514-7.451-6.498-8.309
	c-0.705-0.615-0.733-0.615-0.901-0.479c-0.134,0.109-0.093,0.281,0.21,0.729c0.249,0.373,2.099,3.937,3.156,9.018l0.398,2.268
	l0.252,2.502c0.418,6.16-0.159,14.325,2.347,19.756c1.787,3.873,4.76,6.956,6.753,8.73c0.068,0.062,0.137,0.123,0.201,0.179
	l0.015,0.014l0.652,0.647l-0.148,0.408c-3.652,0.341-7.112,0.27-10.709-1.317l-1.542-0.771l-0.009-0.005l-1.149-0.633
	c-5.704-3.404-10.064-10.052-11.336-17.24l-0.224-1.54l0,0l-0.114-0.98L42.586,43.521z M141.048,133.603l0.042,0.46
	c0.021,0.396,0.027,0.761,0.008,1.063c-0.08,1.212-0.887,1.937-4.119,2.421c-2.432,0.367-9.776,0.78-17.808,2.342
	c-0.755,2.742-2.374,8.8-4.151,13.084c-2.18,5.248-7.673,12.513-15.907,13.399c0,0,5.893-4.843,7.188-11.466
	c1.036-5.317,0.513-8.188,0.347-11.499c-5.768,2.245-10.407,5.259-12.328,6.598c0.13,4.909-2.691,9.202-2.691,9.202
	s0.986,3.876,0.322,8.074c-0.782,4.926-4.535,8.871-4.535,8.871s0.091,0.821-0.57,2.069c-0.806,1.534-1.731,2.14-1.731,2.14
	s0,1.051-0.726,2.18c-0.596,0.926-1.843,1.746-2.503,1.938c0,0-2.153,2.729-3.882,1.267c-1.731-1.46-0.555-5.097-0.156-5.868
	c0,0-0.495-1.025-0.323-1.856c0.173-0.832,0.765-1.907,0.765-1.907s-0.604-1.473-0.441-2.454c0.166-0.978,1.141-2.229,1.141-2.229
	s-1.079-1.001-0.967-2.796c0.113-1.8,0.967-3.232,0.967-3.232s-1.868-1.989-2.675-4.176c-0.805-2.188-0.564-5.248-0.564-5.248
	s-3.419-2.273-5.491-5.653c-1.924-3.133-2.199-8.772-1.929-10.485c-1.047-0.821-5.043-4.477-6.146-10.162
	c0,0-3.075,0.932-6.016,0.282c-2.591-0.57-4.762-1.728-4.762-1.728s-5.555,0.939-11.047,1.263
	c-5.233,0.307-22.35,2.675-33.311,10.59c2.033-2.995,4.831-6.675,8.538-10.665c0.019-0.017,0.035-0.037,0.054-0.058
	c0.281-0.298,0.562-0.601,0.852-0.902c1.168-1.235,2.404-2.486,3.725-3.753c7.021-6.734,14.202-11.664,20.817-15.289
	c5.914-3.385,11.53-5.906,16.488-7.773c-0.004-0.062-0.008-0.105-0.008-0.105s-0.606-4.36,1.03-14.699
	c0.082-0.469,0.185-0.955,0.299-1.455c-24.251-7.389-24.936-30.842-24.895-34.416c0.001-0.11-0.023-0.628-0.019-0.805
	c0.095-4.023,0.655-7.896,1.236-11.311c0.181-1.049,0.319-2.113,0.443-3.164l0.011-0.028c1.401-7.292,1.166-11.111,0.833-12.882
	c-0.039-0.251-0.094-0.484-0.158-0.695c-0.071-0.233-0.146-0.443-0.219-0.609c-0.125-0.292-0.229-0.465-0.229-0.465
	c-0.421-0.867-0.028-1.143-0.028-1.143c0.308-0.162,0.745,0.118,0.745,0.118c0.479,0.342,0.906,0.744,1.302,1.173
	c0.673,0.732,1.246,1.547,1.767,2.39c0.43,0.694,0.77,1.429,1.023,2.192c0.114,0.345,0.227,0.689,0.329,1.036
	c0.153,0.518,0.307,1.044,0.396,1.577c0.001,0.01,0.003,0.021,0.004,0.029c0.213,0.873,0.396,1.752,0.552,2.636
	c0.354,2.012,0.58,4.045,0.669,6.086c0.098,2.251-0.008,4.487,0.253,6.733l0.114,0.98c0.929,8.176,5.988,15.904,12.588,19.232
	c4.106,2.301,7.964,2.449,12.121,2.063l-0.652-0.65c-0.067-0.058-0.137-0.118-0.205-0.182c-2.007-1.787-5.003-4.89-6.811-8.808
	c-2.907-6.3-1.729-16.108-2.619-22.326c-0.887-6.218-3.263-10.805-3.517-11.186c-0.271-0.399-0.489-0.781-0.162-1.047
	c0.338-0.275,0.557-0.086,1.21,0.482c1.134,0.989,4.947,4.363,7.592,10.576c1.615,3.797,1.235,8.43,4.279,13.808
	c1.572,2.781,5.002,5.16,8.27,6.929c0.043-0.076,0.092-0.156,0.127-0.226c0.598-1.121,0.939-2.516,1.139-3.688
	c0.201-0.909,0.294-1.737,0.258-2.436c0,0,23.658,2.261,37.546,14.776c13.888,12.515,17.32,26.321,17.725,30.601
	c0,0,5.048-0.771,6.337-2.653c0,0-0.024,2.229-0.994,4.976c-0.939,2.658-3.898,3.67-3.863,3.805c0,0.004,0.003,0.007,0.012,0.01
	c0.242,0.079,0.89,2.018,0.89,3.549c0,1.538,0.162,2.83,1.292,3.557s2.179,1.692,2.179,2.26s-0.564,2.1-0.807,2.988
	c0,0,2.906,3.307,3.714,7.588c0,0-2.422,0.97-3.635,1.614c0,0,0,2.425-1.369,6.3c0,0,1.854,0.483,2.582,0.645
	c0.728,0.16,2.182,1.453,2.422,2.906c0.121,0.727,0.262,1.635,0.363,2.514L141.048,133.603z"/>
<path fill="#FFC52F" d="M74.24,140.715l-0.003,0.072c0.011,0.322,0.034,0.601,0.052,0.885l-0.376,0.212
	c-2.565-1.791-9.125-5.16-10.213-13.276l-0.143-1.689l-0.031-2.737c0.04-2.662,0.291-5.076,0.743-7.062l0.021-0.078l-1.507,1.68
	c-8.804,9.081-18.661,8.486-27.593,9.404c-1.384,0.144-6.714,1.217-8.103,1.519l-0.226-0.399c3.42-3.659,9.318-9.019,13.194-11.666
	c7.477-5.106,20.415-10.401,20.42-10.404l0.173,0.418l0.035,0.015c-3.81,2.097-7.151,5.059-8.998,6.845l-0.089,0.09l2.355-1.481
	c5.116-3.108,12.261-7.235,12.263-7.237l0.285,0.382c-2.55,2.432-8.621,7.83-13.927,11.984l-2.318,1.763l2.407-1.32
	c4.952-2.845,9.033-5.932,11.51-8.275c4.188-3.959,10.44-7.749,13.284-9.221l0.277,0.043c1.358,1.338,3.344,2.576,5.107,3.302
	l0.047,0.419c-4.213,2.969-7.128,4.777-8.688,8.18l-0.124,0.33l1.528-1.605c1.142-1.112,2.641-2.42,4.396-3.59l1.839-1.114
	c0.942-0.516,1.965-1.15,3.018-1.872l0.19-0.036c0.55,0.13,1.443,0.251,2.347,0.34l2.32,0.143l0.092,0.005l-0.006-0.017l0.212-0.089
	l0.237,0.413l-0.887,0.574l0,0l-3.147,2.174c-7.215,4.731-13.378,7.463-15.425,16.222l-0.198,1.076l0.616-1.675
	c1.092-2.607,2.907-5.674,5.871-8.02l1.342-0.959l3.703-2.208c4.139-2.393,9.317-5.368,13.081-9.211l0.071-0.05
	c3.336-1.523,5.582-3.986,6.926-7.369l0.518-1.493l0.006-0.014l0.02-0.103l0.215-0.198c1.245-0.121,2.493-0.281,3.808-0.399
	l0.262,0.263c-0.116,1.153-0.331,2.616-0.749,4.178l-0.485,1.582l-0.003,0.005l-0.81,2.196c-0.945,2.255-2.317,4.664-4.348,7.146
	c-4.256,5.204-9.248,8.676-14.486,14.74l-2.256,2.771l-1.014,1.38c-4.827,6.901-6.143,13.555-6.292,14.392
	c-0.012,0.062-0.015,0.089-0.015,0.089l-0.477-0.006c-0.854-6.204,0.672-10.998,1.942-13.729l0.151-0.293l-0.588,0.848
	c-0.972,1.49-1.999,3.454-2.547,5.611c-0.507,1.983-0.717,3.242-0.79,4.146L74.24,140.715z M72.606,140.715l1.443,0.971
	c-0.07-1.133-0.239-2.26,0.771-6.24c1.115-4.383,4.136-7.938,4.849-8.502c0,0-4.689,6.257-3.334,16.095
	c0,0,1.293-8.062,7.367-15.971c6.076-7.909,11.913-11.609,16.748-17.517c2.686-3.286,4.21-6.436,5.116-9.269
	c0.743-2.117,1.071-4.187,1.223-5.709c-1.309,0.115-2.557,0.275-3.807,0.399c-0.009,0.047-0.02,0.095-0.027,0.129
	c-1.263,4.221-3.703,7.254-7.577,9.025c-5.063,5.164-12.615,8.754-16.828,11.454c-7.435,4.765-8.658,14.165-8.658,14.165
	c0.818-14.426,9.663-16.288,19.33-23.379c0.2-0.148,0.686-0.426,0.884-0.574l-0.3,0.125c-1.209,0-3.677-0.226-4.814-0.493
	c-1.058,0.724-2.086,1.364-3.037,1.884c-5.058,2.758-8.569,7.262-8.569,7.262c1.369-4.565,4.569-6.49,9.364-9.869
	c-1.792-0.736-3.796-1.987-5.184-3.353c-2.824,1.46-9.07,5.249-13.229,9.181c-3.326,3.146-9.495,7.604-16.789,11.042
	c5.732-3.791,15.396-12.309,18.787-15.54c0,0-12.707,7.342-16.347,9.805c0,0,4.729-5.221,10.579-8.44c0,0-12.935,5.3-20.376,10.38
	c-3.85,2.629-9.747,7.989-13.155,11.634c1.399-0.304,6.714-1.376,8.131-1.521c9.564-0.985,20.018-0.24,29.18-11.27
	c0.15-0.176,0.305-0.359,0.434-0.518c-0.797,2.727-1.139,6.55-0.984,10.809c0.25,6.907,4.335,10.679,7.529,12.945L72.606,140.715z"
	/>
<path fill="#FFC52F" d="M53.449,126.936l1.252-0.409c2.964-1.189,5.615-3.697,6.85-4.989c0.471-0.492,0.734-0.807,0.734-0.807
	l0.414,0.221c-0.414,1.433-0.193,5.664-0.131,6.693c0.008,0.147,0.014,0.228,0.014,0.228l-0.152,0.239
	c-0.014,0.006-1.882,0.746-4.181,0.746c-2.336,0-5.062-1.443-5.073-1.447l0.087-0.45l0.152-0.017L53.449,126.936z M53.474,127.18
	l-0.186,0.018c0,0,2.712,1.418,4.961,1.418c2.248,0,4.093-0.727,4.093-0.727s-0.372-5.275,0.127-7.003
	C62.469,120.886,58.199,125.996,53.474,127.18z"/>
<path fill="#FFFFFF" d="M39.882,41.003l0.215-1.353l0.034-0.686l0.001-0.002l-0.01-0.311l0.03-0.079l0.011-0.021l0.197-0.118
	c0.357-0.014,0.489,0.969,0.567,1.815v0.009c0.072,1.261,0.126,2.558,0.269,3.775l0.113,0.973
	c1.008,8.852,6.315,16.912,13.458,20.512l0.011,0.006c5.754,3.228,11.12,2.544,16.888,1.803l3.304-0.396l2.678-0.198
	c0.839-0.033,1.63-0.03,2.394,0.005l1.486,0.122h0.005l1.582,0.189c2.731,0.411,5.194,1.18,6.743,1.794l1.206,0.537l0.015,0.006
	l1.584,0.843c3.604,2.235,6.306,6.159,6.937,10.271v0.03l0.003,0.08v0.044h0.003l0.204,1.26c0.047,0.442,0.071,0.892,0.071,1.348
	h-0.113l-0.038,0.656c-0.121,1.115-0.396,2.184-0.802,3.188l-0.221-0.089l-0.198-0.079l-0.03,0.005
	c0.21-0.646,0.351-1.347,0.387-2.107l-0.004-0.229L98.82,84.84c-0.19,0.812-0.46,1.592-0.805,2.33l-0.217-0.099l-0.193-0.09
	L97.569,87c0.395-1.271,0.557-2.637,0.428-4.042c-0.16-1.78-0.764-3.413-1.687-4.811l-0.024,0.009l0.311,0.785
	c0.447,1.281,0.711,2.667,0.832,3.997c0.502,5.579-3.36,9.448-7.958,10.935l-0.502,0.144l1.071-0.066
	c0.408-0.054,0.835-0.141,1.259-0.275l0.056-0.011c0.573-0.042,1.284-0.146,2.033-0.405l0.758-0.312l0.636-0.344
	c0.231-0.139,0.482-0.298,0.741-0.479l0.138,0.198l0.121,0.174l0.042,0.002c-2.245,2.072-5.237,3.351-8.532,3.351
	c-4.354,0-8.181-2.216-10.437-5.572l0.229-0.372c1.545,0.193,3.07,0.442,4.213,0.645l0.798,0.15l-0.044-0.031
	c-2.34-1.479-5.356-2.479-6.149-2.729l-0.187-0.056l-0.02,0.011c-3.103-0.939-7.245-1.807-11.368-2.82l-4.077-1.069h-0.001
	l-1.982-0.607c-9.109-3.04-15.615-8.773-19.348-17.062l-0.71-1.692v-0.001l-0.645-1.795c-1.361-4.138-1.76-7.855-1.866-10.079
	l-0.029-1.827v-0.005l-0.009-0.701c0.042-3.383,0.395-6.577,0.785-9.228l0.39-2.455v-0.001l0.06-0.363l0.031,0.005l0.415,0.067
	l0.002-0.039l0.028,0.002l0.009,0.643v0.002c-0.009,1.55,0.04,3.006,0.1,4.183l0.028,0.405l0.144-0.938
	c0.103-0.688,0.195-1.377,0.264-2.068c0.14-1.405,0.451-3.061,0.512-4.432c0.024-0.534,0.045-1.066,0.032-1.594l0.364-0.212
	c0.298,0.182,0.344,0.854,0.358,0.915c0.134,0.639,0.392,5.165,0.471,6.735l0.017,0.595l0.093-0.699l0.001-0.006L39.882,41.003z
	 M40.78,41.876l-0.09-1.603c-0.095-1.01-0.269-1.603-0.319-1.6c-0.005,0-0.01,0.007-0.011,0.021
	c-0.015,0.081,0.011,0.185,0.012,0.267c0.006,0.949-0.227,1.896-0.372,2.828l-0.415,3.14h-0.001
	c-0.019-0.088-0.046-0.177-0.057-0.259c-0.05-0.308-0.06-0.613-0.062-0.924c-0.009-0.623-0.02-1.247-0.051-1.87
	c-0.079-1.561-0.344-6.118-0.467-6.697c-0.032-0.148-0.094-0.667-0.249-0.76c0.015,0.536-0.008,1.075-0.033,1.61
	c-0.061,1.395-0.373,3.053-0.512,4.443c-0.138,1.395-0.375,2.77-0.584,4.156l-0.137,0.939l-0.022-0.003
	c-0.075-0.852-0.289-3.59-0.272-6.698l-0.008-0.642c-0.021,0.122-0.04,0.245-0.06,0.366c-0.51,2.992-1.114,7.152-1.172,11.646
	c-0.001,0.13,0.01,0.504,0.008,0.704c-0.029,1.396,0.027,7.205,2.525,13.613c3.798,9.75,11.161,16.216,21.882,19.219
	c5.311,1.508,11.29,2.634,15.451,3.891l0,0c0.001-0.003,0.003-0.015,0.003-0.015s4.604,1.348,7.38,3.491
	c0,0-3.018-0.615-6.095-0.998c2.213,3.295,5.966,5.467,10.236,5.467c3.231,0,6.168-1.254,8.369-3.287
	c-0.529,0.369-1.021,0.651-1.41,0.84c-1.056,0.51-2.094,0.685-2.877,0.741c-1.76,0.56-3.529,0.317-3.983,0.237
	c0.036-0.01,0.073-0.022,0.109-0.027c5.302-0.915,10.247-4.968,9.69-11.152c-0.24-2.637-1.044-5.459-2.711-7.237
	c2.08,1.769,3.493,4.3,3.758,7.212c0.133,1.438-0.033,2.836-0.438,4.136c0.672-1.452,1.066-3.056,1.091-4.758
	c0.388,1.815,0.248,3.372-0.183,4.702c0.526-1.313,0.832-2.738,0.852-4.234l0.077,0.479h0.006c0-0.895-0.094-1.762-0.275-2.603
	l-0.003-0.124c-0.705-4.613-4.086-9.003-8.395-10.937c-1.289-0.671-5.216-2.116-9.461-2.5c-1.926-0.22-3.99-0.194-6.512,0.071
	c-1.128,0.118-2.223,0.26-3.299,0.398c-5.762,0.738-11.205,1.435-17.035-1.835c-7.227-3.643-12.574-11.773-13.588-20.698
	l-0.113-0.971c-0.073-0.616-0.123-1.25-0.163-1.887L40.78,41.876z"/>
<path fill="#FFC52F" d="M84.428,150.763c-1.062,2.849-1.796,5.496-2.067,6.521l-0.354,0.146c-3.156-1.893-8.056-4.422-9.896-7.293
	c-2.44-3.804-2.407-8.727-2.407-8.743l0.398-0.177c1.144,1.008,4.182,2.717,6.961,4.257c2.298,1.275,5.998,4.038,7.287,5.017
	L84.428,150.763z M84.205,150.681c-1.284-0.976-4.99-3.736-7.26-4.998c-2.779-1.54-5.816-3.239-7.003-4.286
	c0,0-0.022,4.882,2.369,8.611c1.782,2.779,6.647,5.314,9.817,7.215C82.403,156.192,83.137,153.539,84.205,150.681z"/>
<path fill="#FFC52F" d="M78.667,140.715l0.039-0.176c0.424-1.678,1.078-3.664,2.046-5.868c2.183-4.964,7.699-10.985,7.707-10.991
	l0.35-0.005c1.865,1.935,4.317,5.889,3.342,11.046c-0.97,5.13-3.421,6.906-5.852,11.7c-0.422,0.829-0.818,1.714-1.188,2.604
	l-0.371,0.097c-1.514-1.201-4.296-2.939-6.597-4.369l-0.112-0.219c0.024-0.477,0.088-1.057,0.198-1.727L78.667,140.715z
	 M81.56,133.603l-0.589,1.168c-1.925,4.378-2.598,7.903-2.701,9.777c2.301,1.433,5.084,3.168,6.618,4.386
	c0.372-0.896,0.771-1.785,1.196-2.62c2.46-4.851,4.873-6.581,5.83-11.637c0.959-5.056-1.446-8.936-3.279-10.835
	c0,0-4.215,4.608-6.715,9.05L81.56,133.603z"/>
<path fill="#FFC52F" d="M67.694,87.259l0.127,0.034l-0.022,0.469l-0.172,0.025L67.62,87.79l-3.735,0.758
	c-1.231,0.276-2.424,0.57-3.517,0.855l-0.299-0.261c0.099-0.87,0.215-1.748,0.355-2.609l0.001-0.005
	c0.044-0.239,0.095-0.481,0.147-0.725l0.291-0.182c0.956,0.231,1.93,0.454,2.906,0.682l2.631,0.631h0.002L67.694,87.259
	L67.694,87.259z M67.637,87.492c-0.428-0.107-0.857-0.217-1.294-0.324c-0.868-0.221-1.75-0.425-2.629-0.63
	c-0.975-0.228-1.949-0.45-2.907-0.685c-0.052,0.242-0.102,0.482-0.146,0.719c-0.14,0.856-0.255,1.729-0.354,2.598
	c2.19-0.567,4.782-1.176,7.277-1.617c0.058-0.008,0.115-0.019,0.175-0.028C67.717,87.514,67.678,87.501,67.637,87.492z"/>
<path fill="#FFFFFF" d="M70.199,61.408l-1.356,1.926l-0.341,0.054c-1.773-1.331-4.594-3.81-6.322-7.188l-0.667-1.504l-0.682-2.076
	c-1.346-4.807-1.096-9.281-1.228-12.316l-0.106-1.364l-0.461-3.409l0.03-0.003l0.417-0.062l-0.008-0.032l0.028-0.005l0.706,2.526
	l-0.028-0.392c-0.119-1.205-0.285-2.494-0.517-3.534l0.441-0.1l0.018-0.034c0.003,0.007,0.885,2.467,1.459,4.772l0.029,0.127
	l0.007-0.226c0.002-0.8-0.022-1.741-0.107-2.701l0.469-0.091c0.15,0.502,0.291,1.016,0.419,1.541l0.343,1.624
	c1.225,6.8,3.196,11.473,11.276,16.464l0.076,0.336c-0.726,1.113-1.621,2.424-2.544,3.752L70.199,61.408z M63.632,58.099
	l0.438,0.624c1.536,2.007,3.319,3.531,4.576,4.475c1.665-2.348,3.8-5.367,5.244-7.588c-8.133-5.023-10.156-9.792-11.387-16.626
	c-0.196-1.101-0.459-2.146-0.755-3.138c0.228,2.587,0.023,5.011,0.023,5.011c-0.312-2.503-1.875-6.882-1.875-6.882
	c0.626,2.816,0.781,7.351,0.781,7.351c-0.186-1.595-0.88-4.09-1.407-5.83c0.189,1.26,0.342,2.444,0.463,3.414
	c0.415,3.368-0.386,9.389,2.001,15.7c0.386,1.021,0.884,1.976,1.449,2.852L63.632,58.099z"/>
<path fill="#582E90" d="M101.363,93.447l-0.188,0.822c-1.537,5.551-6.62,9.629-12.662,9.629c-4.519,0-8.496-2.278-10.86-5.75
	l-0.818-1.396l-4.006,0.785l-3.534,0.777l-0.004,0.001l-1.177,0.306c-1.623,0.426-4.571,1.214-6.565,1.824l-1.497,0.5l-0.094,0.031
	l-0.008-0.021l-0.107,0.039c-0.085-0.002-0.178-0.041-0.242-0.155c-0.074-0.128-0.109-0.304-0.144-0.686s-0.059-0.974-0.054-1.902
	l0.122-3.918v-0.001l0.292-3.338l0.177-0.209c1.149-0.301,2.431-0.617,3.766-0.922l4.098-0.834l4.21-0.625l0.093,0.006
	c0.78,0.209,1.537,0.416,2.246,0.623l0.151,0.129c2.278,4.906,7.281,8.144,12.733,8.144l0.717-0.017h0.003l0.217-0.017h0.003
	l0.487-0.041h0.008c0.096-0.009,0.191-0.021,0.294-0.034h0.003l0.398-0.053l0,0l0.328-0.058c0.124-0.021,0.245-0.04,0.358-0.064
	h0.003c0.107-0.022,0.218-0.05,0.333-0.077l0.339-0.078h0.003l0.35-0.102l0.312-0.086l0.006-0.002l0.357-0.121
	c0.105-0.036,0.201-0.064,0.284-0.097l0.005-0.003l0.369-0.142l0.009-0.003l0.254-0.102h0.003l0.389-0.177l0.229-0.104h0.002
	l0.389-0.199l0.006-0.002c0.074-0.038,0.14-0.069,0.203-0.105l0.003-0.003l0.399-0.228h0.003l0.182-0.104
	c0.138-0.083,0.275-0.174,0.413-0.263l0.003-0.003c0.056-0.034,0.104-0.064,0.146-0.093l0.003-0.003l0.421-0.297l0,0l0.13-0.091
	c0.138-0.103,0.278-0.215,0.422-0.329c0.041-0.032,0.074-0.06,0.102-0.08v-0.002l0.424-0.363l0,0l0.086-0.072l0.006-0.005
	l0.418-0.396l0.003-0.003c0.024-0.021,0.044-0.039,0.052-0.049l0.006-0.006l0.419-0.435v-0.001l0.036-0.036l0.008-0.011l0.405-0.457
	l0.027-0.035l0.006-0.008c0.138-0.166,0.272-0.332,0.399-0.502l0.019-0.02l0.378-0.527l0.006-0.006l0.002-0.005l0.006-0.011
	c0.127-0.182,0.248-0.367,0.366-0.56c1.063-1.716,1.764-3.678,2-5.779l0.059-0.68l0.003-0.028c0.014-0.228,0.024-0.455,0.027-0.688
	v-0.035l0.212-0.223c0.986-0.11,4.967-0.523,9.221-0.708l4.251-0.09l4.298,0.146c4.005,0.236,7.042,0.705,8.201,0.921l0.179,0.147
	c0.168,0.43,0.328,0.852,0.477,1.259c0.018,0.046,0.031,0.083,0.047,0.127v0.003l0.292,0.826v0.003l0.069,0.206v0.003l0.234,0.7
	v0.003c0.024,0.082,0.049,0.159,0.074,0.236l0.003,0.002c0.066,0.214,0.132,0.424,0.192,0.627l0.003,0.003l0.072,0.246v0.001
	l0.165,0.565l0,0l0.068,0.239c0.053,0.179,0.1,0.358,0.146,0.523v0.003l0.058,0.219l0.003,0.01l0.121,0.465v0.006l0.053,0.208
	l0.102,0.432l0.047,0.192l0.002,0.003l0.086,0.376l0.003,0.004l0.033,0.161v0.002l0.074,0.339l0.003,0.006
	c0.006,0.038,0.017,0.085,0.024,0.13l0.003,0.003c0.02,0.098,0.039,0.194,0.055,0.287c0.006,0.028,0.116,0.526,0.125,0.568
	l0.002,0.017c0,0.017,0.003,0.027,0.003,0.033c0.003,0.009,0.003,0.009,0.003,0.009l-0.268,0.276
	c-7.457-0.993-13.367-1.084-23.99-0.085l-4.688,0.477L101.363,93.447z M97.625,93.109l-0.287,0.295
	c-0.019,0.021-0.041,0.041-0.062,0.061c-0.141,0.137-0.281,0.273-0.431,0.405c-0.027,0.026-0.058,0.049-0.085,0.074
	c-0.141,0.124-0.284,0.25-0.43,0.369c-0.036,0.028-0.072,0.056-0.107,0.083c-0.144,0.114-0.283,0.229-0.43,0.336
	c-0.042,0.033-0.086,0.061-0.13,0.092c-0.141,0.104-0.284,0.204-0.427,0.303c-0.053,0.035-0.105,0.066-0.154,0.099
	c-0.139,0.091-0.278,0.182-0.422,0.269c-0.061,0.037-0.124,0.069-0.185,0.106c-0.135,0.079-0.272,0.159-0.41,0.231
	c-0.069,0.041-0.141,0.074-0.212,0.11c-0.133,0.069-0.265,0.14-0.399,0.205c-0.077,0.037-0.157,0.068-0.231,0.104
	c-0.136,0.061-0.265,0.121-0.397,0.18c-0.088,0.037-0.176,0.066-0.264,0.103c-0.13,0.05-0.254,0.103-0.384,0.149
	c-0.096,0.037-0.192,0.066-0.292,0.099c-0.121,0.041-0.242,0.085-0.366,0.126c-0.107,0.031-0.212,0.059-0.319,0.089
	c-0.118,0.033-0.237,0.069-0.358,0.102c-0.113,0.029-0.229,0.053-0.344,0.08c-0.113,0.026-0.229,0.056-0.342,0.077
	c-0.121,0.025-0.245,0.045-0.367,0.066c-0.109,0.02-0.223,0.043-0.333,0.059c-0.132,0.021-0.27,0.035-0.405,0.053
	c-0.102,0.014-0.203,0.029-0.308,0.037c-0.163,0.019-0.335,0.029-0.5,0.04c-0.074,0.004-0.147,0.013-0.222,0.016
	c-0.241,0.013-0.486,0.019-0.731,0.019c-5.546,0-10.631-3.29-12.951-8.282c-0.708-0.205-1.46-0.412-2.242-0.621
	c-1.317,0.161-2.723,0.363-4.198,0.624c-2.73,0.48-5.551,1.152-7.845,1.75c-0.109,1.213-0.284,3.16-0.291,3.329
	c-0.163,3.442-0.136,5.045-0.069,5.788c0.068,0.741,0.176,0.62,0.176,0.62c1.999-0.782,9.366-2.671,9.366-2.671
	c2.157-0.503,4.72-1.042,7.72-1.597c2.11,4.253,6.489,7.175,11.558,7.175c6.326,0,11.585-4.555,12.685-10.563
	c13.829-1.501,20.364-1.543,28.904-0.407c0,0-0.003-0.017-0.008-0.053c-0.006-0.031-0.116-0.531-0.121-0.569
	c-0.017-0.089-0.039-0.183-0.058-0.284c-0.009-0.042-0.02-0.091-0.027-0.135c-0.023-0.108-0.048-0.22-0.075-0.338
	c-0.011-0.053-0.022-0.108-0.032-0.163c-0.028-0.122-0.059-0.247-0.089-0.379c-0.014-0.062-0.03-0.129-0.047-0.193
	c-0.033-0.137-0.065-0.28-0.102-0.426c-0.02-0.066-0.033-0.138-0.053-0.209c-0.038-0.154-0.083-0.312-0.124-0.478
	c-0.02-0.073-0.038-0.144-0.058-0.22c-0.047-0.168-0.094-0.345-0.146-0.523c-0.023-0.077-0.045-0.156-0.066-0.237
	c-0.053-0.185-0.11-0.372-0.169-0.564c-0.021-0.083-0.049-0.164-0.071-0.248c-0.061-0.201-0.127-0.412-0.192-0.622
	c-0.028-0.08-0.053-0.16-0.077-0.24c-0.075-0.229-0.151-0.465-0.234-0.701c-0.021-0.068-0.045-0.138-0.069-0.208
	c-0.091-0.269-0.187-0.543-0.289-0.823c-0.017-0.045-0.03-0.085-0.044-0.127c-0.148-0.408-0.309-0.826-0.477-1.254
	c-1.532-0.287-6.405-1.021-12.458-1.062c-5.499-0.038-12.133,0.649-13.441,0.794c0,0.009,0,0.017,0,0.023
	c-0.003,0.236-0.011,0.469-0.027,0.7v0.014c-0.014,0.238-0.036,0.473-0.063,0.707c-0.24,2.138-0.953,4.132-2.033,5.878
	c-0.118,0.193-0.245,0.385-0.375,0.571c0,0.004-0.003,0.008-0.006,0.011c-0.126,0.185-0.256,0.363-0.388,0.543
	c-0.009,0.006-0.014,0.014-0.02,0.022c-0.132,0.173-0.267,0.341-0.407,0.509c-0.009,0.012-0.02,0.023-0.027,0.035
	c-0.136,0.161-0.275,0.32-0.42,0.475c-0.013,0.017-0.029,0.03-0.044,0.047L97.625,93.109z"/>
<path fill="#F8CADE" d="M109.658,93.833c-0.021,0.021-0.053,0.06-0.068,0.127l0.129-0.106L109.658,93.833z M107.914,133.603
	l-0.109,0.118c0,0-4.356,0.873-7.034-2.189l-0.512-0.664l-0.838-1.439c-1.691-3.379-1.606-6.85-1.43-8.512l0.083-0.577l-0.824,0.269
	c-0.534,0.143-1.19,0.253-1.838,0.208l-0.642-0.104l0,0l-0.433-0.162c-0.396-0.207-0.699-0.526-0.92-0.871l0.041-0.309
	c2.609-2.321,5.367-4.485,8.097-7.61l0.235-0.076c0.716,0.158,1.391,0.324,1.978,0.477l1.44,0.4l0.598,0.221
	c1.396,0.603,2.725,1.789,3.127,3.117c0.227,0.74,0.389,2.301,0.493,3.676l0.058,0.956l0.148-0.62
	c0.406-1.908,0.496-3.014,0.557-3.718c0.075-0.79,0.006-2.641-1.162-4.141l-0.57-0.618l-0.416-0.306
	c-1.141-0.717-3.363-1.425-4.358-1.976l-0.077-0.354c3.604-4.964,4.938-12.296,5.213-14.044l0.053-0.35l0.002-0.033l-0.002-0.215
	l0.214-0.243c0.207-0.021,0.38-0.044,0.493-0.065l0.08-0.017l0.072,0.012l0.079-0.065c0.755-0.043,3.477-0.376,4.262-0.39
	l0.231,0.316c0,0-0.065,0.204-0.154,0.553c-0.23,0.91-0.6,2.797-0.217,4.447l0.129,0.42l0.204-0.117
	c0.909-0.484,3.061-1.414,5.843-1.216c3.687,0.264,9.47,1.982,11.816,1.054l0.306,0.127c0.006,0.008,0.854,1.922,1.028,3.67
	l0.029,0.735c-0.035,1.326,0.271,2.312,0.673,2.909l0.424,0.471l0.702,0.408c0.232,0.104,0.455,0.188,0.664,0.289l0.395,0.234
	l0.188,0.188c0.369,0.503,0.292,1.403,0.109,2.084c-0.25,0.934-1.008,1.066-1.691,0.898c-0.531-0.136-3.554-0.546-6.799,0.052
	l-0.272-0.168c-0.174-0.601-0.546-2.102,0.233-2.924c0.361-0.379,0.832-0.597,1.317-0.715l0.413-0.077l-0.206-0.05
	c-0.248-0.047-0.508-0.077-0.752-0.077c-0.813,0-1.524,0.421-1.96,0.973l-0.336,0.581l0,0l-0.09,0.544
	c-0.031,0.647,0.099,1.533,0.195,2.026l-0.168,0.275c-3.529,1.041-8.615,3.809-12.786,9.164c-3.95,5.073-5.234,11.275-5.49,12.735
	c-0.039,0.206-0.053,0.316-0.053,0.316L107.914,133.603z M106.104,133.588c0.978,0.028,1.653-0.104,1.653-0.104
	s1.033-7.31,5.595-13.167c4.204-5.399,9.328-8.191,12.907-9.247c-0.129-0.662-0.348-2.034-0.097-2.7
	c0.345-0.895,1.325-1.709,2.521-1.709c1.195,0,2.562,0.642,2.562,0.642c-0.639-0.127-2.306-0.214-3.16,0.682
	c-0.655,0.691-0.353,2.082-0.179,2.693c3.292-0.607,6.322-0.196,6.901-0.052c0.622,0.155,1.192,0.052,1.402-0.726
	c0.206-0.775,0.206-1.71-0.21-2.02c-0.416-0.312-1.088-0.418-1.763-0.933c-0.675-0.521-1.243-1.764-1.19-3.577
	c0.052-1.814-1.036-4.303-1.036-4.303c-2.487,0.984-8.292-0.776-11.921-1.037c-3.628-0.259-6.168,1.452-6.168,1.452
	c-0.986-2.489,0.154-5.855,0.154-5.855c-0.758,0.014-3.484,0.346-4.253,0.39c-0.012,0.046-0.29,0.09-0.714,0.135
	c0,0.084,0,0.167,0.003,0.25c0,0-1.144,8.796-5.314,14.539c1.091,0.605,3.846,1.429,4.818,2.315c1.802,1.645,1.9,4.02,1.812,4.956
	c-0.082,0.942-0.221,2.62-1.086,5.947c0,0-0.215-4.784-0.639-6.192c-0.427-1.407-2.03-2.708-3.567-3.177
	c-0.697-0.215-1.978-0.558-3.399-0.873c-2.747,3.144-5.519,5.317-8.122,7.631c0.275,0.428,0.667,0.79,1.215,0.932
	c1.564,0.408,3.54-0.523,3.54-0.523s-1.254,5.815,2.086,10.774C102.014,133.044,104.477,133.542,106.104,133.588z"/>
<path fill="#FFC52F" d="M135.461,95.477l-0.204,0.292c-0.708,0.849-1.76,1.62-3.325,1.923l-0.881,0.116l-1.634,0.062
	c-3.419,0.003-4.355-0.943-7.422-1.345l-0.094-0.444c0.011-0.006,0.286-0.171,0.808-0.383l0.856-0.307l-0.593-0.043
	c-0.876-0.025-1.928-0.005-2.92,0.15l-0.829,0.168l-0.835,0.243c-1.793,0.598-2.562,1.363-2.593,1.399h-0.003l-0.41-0.14
	c0,0-0.003-0.008-0.003-0.026c-0.032-0.276-0.272-2.71,1.089-3.617c1.066-0.707,3.867-0.664,5.829-0.523l1.59,0.144l1.687,0.21
	c1.881,0.226,4.608,0.501,6.465,0.297l0.736-0.118l1.421-0.35c1.229-0.333,1.896-0.604,2.069-0.681
	c0.033-0.014,0.047-0.021,0.047-0.021l0.336,0.253c0,0.003-0.135,1.038-0.793,2.177L135.461,95.477z M125.015,95.265
	c-1.921,0.382-2.989,1.021-2.989,1.021c3.587,0.47,4.226,1.623,9.009,1.281c4.779-0.34,5.378-4.865,5.378-4.865
	s-1.111,0.513-3.585,1.066c-2.477,0.554-7.472-0.212-8.967-0.384c-1.493-0.17-5.976-0.512-7.26,0.34
	c-1.278,0.854-0.978,3.416-0.978,3.416s1.021-1.066,3.54-1.708C121.684,94.793,125.015,95.265,125.015,95.265z"/>
<path fill="#FFC52F" d="M71.576,62.031l0.863-1.256l2.354-3.25c0.767-1.034,1.352-2.061,1.802-3.015
	c1.189-2.517,1.42-4.521,1.443-4.747c0-0.014,0.003-0.022,0.003-0.022l0.247-0.218c11.931,0.547,26.204,5.777,37.752,16.719
	c5.119,4.853,8.502,10.573,10.687,15.447l-0.256,0.336c-2.104-0.343-6.505-0.862-11.455-0.894
	c-5.552-0.039-12.227,0.713-13.491,0.864l-0.259-0.182l-0.003-0.006l-0.005-0.032l-0.075-0.573V81.2l-0.024-0.165v-0.004
	c-0.02-0.143-0.053-0.291-0.08-0.445l0.006-0.016c-0.7-5.362-4.684-10.511-9.722-12.643l-0.009-0.002
	c-1.812-0.845-5.671-2.126-9.676-2.486h-0.006c-2.024-0.232-4.201-0.209-6.852,0.071c-1.14,0.12-2.245,0.262-3.335,0.402
	c-0.792,0.102-1.568,0.2-2.335,0.289l-0.217-0.387c0,0,0.024-0.029,0.061-0.079c0.112-0.143,0.343-0.44,0.383-0.501L71.576,62.031z
	 M76.879,54.462l-0.066,0.153c-0.457,0.966-1.049,2.006-1.826,3.053c-1.115,1.501-3.353,4.589-5.408,7.699
	c-0.07,0.105-0.455,0.596-0.455,0.596c0.764-0.088,1.541-0.185,2.332-0.287c1.089-0.141,2.198-0.283,3.34-0.404
	c2.666-0.281,4.858-0.303,6.905-0.072c4.042,0.363,7.916,1.65,9.756,2.509c5.119,2.165,9.155,7.379,9.868,12.831l-0.008,0.003
	c0.027,0.151,0.059,0.303,0.08,0.453c0.011,0.058,0.016,0.115,0.024,0.171c0.03,0.194,0.056,0.39,0.077,0.586
	c0,0.002,0,0.003,0,0.005c1.27-0.148,7.948-0.903,13.519-0.865c4.967,0.032,9.375,0.553,11.494,0.897
	c-2.177-4.854-5.546-10.548-10.635-15.372C104.371,55.518,90.15,50.308,78.278,49.764c0,0-0.138,1.628-1.036,3.859L76.879,54.462z"
	/>
<path fill="#FFC52F" d="M84.051,167.381c-0.014-0.009-2.743-1.425-4.666-4.196c-1.522-2.201-1.648-4.867-1.638-5.923l0.361-0.204
	c1.89,1.089,4.063,2.169,5.355,2.97c1.405,0.871,2.551,1.736,3.399,2.461l0.055,0.3c-1.342,2.375-2.547,4.496-2.547,4.496
	L84.051,167.381z M84.163,167.166c0,0,1.205-2.121,2.546-4.496c-0.84-0.717-1.977-1.573-3.372-2.441
	c-1.272-0.787-3.449-1.87-5.351-2.964c-0.01,1.033,0.122,3.653,1.596,5.782C81.467,165.767,84.163,167.166,84.163,167.166z"/>
<path fill="#FFC52F" d="M15.257,133.603l-0.079,0.032l-0.274-0.38c4.294-4.721,12.972-13.163,20.076-17.938
	c21.394-14.377,39.104-16.71,40.412-16.974l0.205,0.054l0.39,0.338l0.047,0.051c0.171,0.269,0.355,0.529,0.546,0.786l-0.13,0.374
	c-8.908,2.43-27.96,10.497-39.061,18.273c-4.782,3.35-10.023,8.659-13.217,11.939l-0.102,0.061c-1.556,0.479-3.32,1.134-4.925,1.77
	L15.257,133.603z M76.387,99.713c-0.192-0.26-0.379-0.524-0.557-0.797l-0.389-0.338c-1.316,0.266-18.973,2.584-40.329,16.938
	c-7.072,4.754-15.749,13.192-20.031,17.899c1.835-0.802,5.789-2.46,8.917-3.425c3.196-3.282,8.442-8.598,13.251-11.967
	C48.389,110.22,67.442,102.152,76.387,99.713z"/>
<path fill="#FFC52F" d="M120.171,133.603l-0.096,0.188c-0.413,0.862-0.632,1.396-0.632,1.396l-0.459-0.124
	c0.893-6.053,3.649-10.955,5.598-13.785l1.02-1.403l-0.314,0.23c-3.694,2.891-6.438,8.013-7.994,18.019l-0.403,2.372
	c-2.099,11.392-5.416,15.853-5.438,15.88l-0.425-0.21l0.389-1.312l0.006-0.019l0.507-2.472c1.021-5.482,0.967-8.962,2.088-16.452
	c0.808-5.367,2.584-9.431,3.808-11.726l0.51-0.899l-0.529,0.492c-3.576,3.621-5.609,10.053-6.383,18.979
	c-0.984,11.304-3.694,15.334-3.72,15.373l-0.427-0.201c1.625-5.573,0.932-11.797,1.189-16.018c0.257-4.179,0.438-9.904,2.809-15.335
	c2.082-4.767,6.543-9.363,11.496-12.198l2.146-1.103l1.072-0.451c5.28-2.03,9.35-0.891,9.374-0.884l0.103,0.056
	c3.071,2.885,3.272,5.931,3.275,5.964l-0.182,0.248c0,0-0.069,0.018-0.209,0.058c-0.849,0.242-4.19,1.281-8.224,3.65l-1.766,1.1
	l-0.747,0.531c-2.761,2.115-4.968,5.457-6.389,8.017L120.171,133.603z M119.49,133.603l-0.27,1.493c0,0,3.499-8.652,9.006-12.281
	c5.51-3.626,10.273-4.838,10.273-4.838s-0.188-2.977-3.201-5.805c0,0-4.565-1.284-10.284,1.322
	c-5.722,2.604-11.175,7.799-13.524,13.178c-2.344,5.379-2.529,11.068-2.785,15.256c-0.256,4.182,0.441,10.436-1.201,16.066
	c0,0,2.697-3.988,3.678-15.257c0.888-10.218,3.416-17.248,8.111-20.535c0,0-3.758,5.21-5.039,13.747
	c-1.279,8.538-1.025,11.869-2.604,18.954l-0.392,1.331c0,0,3.758-5.033,5.797-18.146c1.782-11.465,5.138-16.61,9.749-19.302
	c0,0-5.421,5.896-7.265,14.544L119.49,133.603z"/>
<path fill="#F8CADE" d="M100.135,133.603l0.416,0.35c1.292,0.97,2.854,1.59,4.826,1.59c0.535,0,1.171-0.009,1.865-0.025l0.242,0.275
	c-0.303,1.912-0.454,3.981-0.529,5.483l-0.162,0.215c-0.802,0.267-1.516,0.523-2.077,0.76c-1.793,0.75-4.369,2.014-6.496,3.092
	l-3.799,1.961l-0.006,0.006l-0.215,0.126l-0.363-0.168c-0.479-3.322-1.493-6.136-1.736-6.78c-0.032-0.091-0.052-0.137-0.052-0.137
	v-0.174c0,0,0.146-0.392,0.355-1.033c0.548-1.689,1.512-5.127,1.309-7.838l-0.166-1.109l-0.44-1.668
	c-1.077-3.662-2.443-5.712-2.622-5.97c-0.014-0.019-0.022-0.027-0.022-0.027l0.022-0.305c0.215-0.229,0.43-0.444,0.642-0.661
	l0.363,0.026c1.047,1.421,2.749,1.642,3.149,1.677c0.055,0.004,0.085,0.004,0.085,0.004l0.229,0.185c0,0,0.017,0.077,0.053,0.22
	c0.22,0.871,1.091,4.149,2.289,6.397l0.532,0.893l0.663,0.915c0.405,0.518,0.841,1.005,1.317,1.445L100.135,133.603z
	 M106.755,140.715l0.14-2.049c0.086-0.948,0.199-1.947,0.354-2.91c-0.694,0.018-1.334,0.025-1.871,0.025
	c-3.714,0-6.027-2.151-7.752-4.682c-1.719-2.528-2.906-7.589-2.906-7.589s-2.152-0.05-3.422-1.778
	c-0.213,0.217-0.428,0.43-0.64,0.657c0,0,1.937,2.688,3.121,7.751c0.901,3.854-1.507,10.117-1.507,10.117s1.248,3.146,1.803,6.973
	c0.074-0.047,0.153-0.096,0.229-0.135c0,0,6.713-3.562,10.319-5.068c0.571-0.24,1.29-0.499,2.094-0.767L106.755,140.715z"/>
<path fill="#F8CADE" d="M134.492,135.462c1.36,0.041,2.645-0.024,3.201-0.061c0.184-0.011,0.283-0.02,0.283-0.02l0.17,0.427
	c-0.657,0.527-2.159,0.436-2.917,0.535c-0.84,0.112-5.812,0.27-11.893,1.185c-1.094,0.165-2.295,0.377-3.538,0.622l-0.27-0.316
	c0.389-1.055,0.755-1.824,1.215-2.543l0.201-0.11H121C125.475,135.181,132.659,135.41,134.492,135.462z M134.483,135.701
	c-1.829-0.053-9.015-0.281-13.483-0.281h-0.055c-0.446,0.703-0.805,1.449-1.193,2.497c1.248-0.245,2.449-0.461,3.552-0.626
	c6.083-0.915,11.089-1.077,11.896-1.185c0.808-0.107,2.262-0.055,2.799-0.485C137.998,135.621,136.315,135.756,134.483,135.701z"/>
<path fill="#F8CADE" d="M139.323,133.603l-0.173,0.43c-0.091,0.146-0.201,0.267-0.331,0.36c-0.496,0.375-1.124,0.322-1.481,0.301
	c-0.535-0.03-1.863-0.047-3.869-0.215l-2.223-0.229c-1.614-0.19-3.871-0.325-5.723-0.408c-1.851-0.085-3.3-0.124-3.3-0.124
	l-0.218-0.322c2.815-7.794,12.558-11.968,12.561-11.97l0.336,0.202c0.135,1.743-0.782,4.458-1.248,5.71l-0.135,0.343l0.908-0.003
	c0.72,0.031,1.606,0.133,2.29,0.405c1.33,0.534,2.144,1.114,2.622,3.809c0.119,0.678,0.119,1.206,0.022,1.614L139.323,133.603z
	 M125.565,133.603l2.926,0.165c1,0.068,1.97,0.148,2.782,0.245c3.243,0.386,5.354,0.399,6.08,0.44
	c0.361,0.022,0.915,0.053,1.322-0.25c0.405-0.306,0.662-0.945,0.428-2.271c-0.469-2.647-1.196-3.113-2.477-3.628
	c-1.278-0.512-3.458-0.385-3.458-0.385s1.667-4.055,1.493-6.273c0,0-9.658,4.165-12.43,11.832c0,0,1.448,0.038,3.303,0.124H125.565z
	"/>
<path fill="#FFC52F" d="M84.711,159.115l-1.002-0.652l-0.104-0.259c1.275-5.105,4.235-11.565,5.479-13.246
	c0.369-0.501,1.022-1.515,1.43-2.165l0.414,0.014c0.391,0.735,1.46,2.628,1.763,5.02c0.443,3.484-0.92,7.265-2.675,10.452
	c-0.507,0.92-1.691,2.005-2.271,3.038l-0.388,0.042c-0.226-0.254-0.543-0.573-0.976-0.95L84.711,159.115L84.711,159.115z
	 M90.715,142.92c-0.407,0.655-1.058,1.666-1.438,2.182c-1.205,1.625-4.175,8.091-5.44,13.16c0.379,0.236,0.722,0.457,1.013,0.658
	c1.391,0.973,2.219,1.758,2.686,2.279c0.607-1.08,1.797-2.177,2.271-3.037c1.743-3.165,3.079-6.9,2.646-10.306
	C92.156,145.518,91.106,143.655,90.715,142.92z"/>
<path fill="#FFC52F" d="M85.717,166.645c1.559-2.801,3.764-5.773,3.767-5.776l0.422,0.068c0.003,0.009,1.058,3.249,0.543,6.469
	l-0.322,1.37l-0.499,1.308c-1.303,2.984-3.444,5.358-3.451,5.366l-0.373-0.019c0,0-0.02-0.027-0.057-0.077
	c-0.194-0.265-0.863-1.146-1.535-1.807l-0.654-0.557l-0.275-0.168l-0.107-0.29C83.659,171.163,84.629,168.606,85.717,166.645z
	 M85.928,166.761c-1.076,1.939-2.044,4.488-2.527,5.852c0.102,0.058,0.201,0.118,0.29,0.179c1.012,0.684,2.306,2.499,2.306,2.499
	s2.776-3.088,3.9-6.59c1.13-3.502-0.22-7.692-0.22-7.692S87.475,163.979,85.928,166.761z"/>
<path fill="#FFC52F" d="M74.821,135.445c1.115-4.383,4.136-7.938,4.849-8.502c0,0-4.689,6.257-3.335,16.095
	c0,0,1.292-8.062,7.368-15.971s11.913-11.609,16.748-17.517c2.684-3.286,4.21-6.436,5.116-9.269
	c0.741-2.117,1.071-4.187,1.223-5.709c-1.309,0.116-2.557,0.275-3.807,0.399c-0.009,0.047-0.02,0.095-0.027,0.131
	c-1.263,4.219-3.703,7.252-7.579,9.023c-5.062,5.164-12.613,8.755-16.826,11.454c-7.435,4.765-8.658,14.165-8.658,14.165
	c0.818-14.426,9.663-16.288,19.33-23.379c0.2-0.148,0.686-0.426,0.884-0.574l-0.3,0.125c-1.211,0-3.677-0.226-4.814-0.493
	c-1.058,0.726-2.086,1.364-3.038,1.884c-5.059,2.758-8.568,7.262-8.568,7.262c1.368-4.564,4.567-6.49,9.364-9.869
	c-1.793-0.736-3.796-1.987-5.184-3.353c-2.824,1.46-9.071,5.249-13.229,9.181c-3.326,3.146-9.495,7.604-16.789,11.042
	c5.732-3.791,15.396-12.309,18.787-15.54c0,0-12.708,7.342-16.347,9.805c0,0,4.729-5.22,10.579-8.44c0,0-12.935,5.3-20.377,10.38
	c-3.849,2.631-9.746,7.989-13.154,11.634c1.399-0.303,6.714-1.376,8.13-1.521c9.565-0.985,20.019-0.24,29.18-11.27
	c0.151-0.176,0.306-0.358,0.435-0.518c-0.797,2.727-1.14,6.55-0.984,10.809c0.333,9.21,7.484,12.847,10.253,14.775
	C73.979,140.553,73.809,139.426,74.821,135.445"/>
<path fill="#FFC52F" d="M53.474,127.18l-0.186,0.018c0,0,2.712,1.418,4.961,1.418c2.248,0,4.093-0.727,4.093-0.727
	s-0.372-5.275,0.127-7.003C62.469,120.886,58.199,125.996,53.474,127.18"/>
<path fill="#FFFFFF" d="M75.767,87.664c0,0.005,0.003-0.016,0.003-0.016s4.601,1.349,7.379,3.492c0,0-3.019-0.615-6.096-0.998
	c2.214,3.295,5.968,5.467,10.237,5.467c3.232,0,6.169-1.254,8.37-3.287c-0.529,0.369-1.021,0.651-1.413,0.84
	c-1.053,0.51-2.091,0.684-2.874,0.741c-1.762,0.56-3.529,0.317-3.984,0.237c0.037-0.012,0.072-0.022,0.11-0.029
	c5.302-0.913,10.247-4.966,9.69-11.15c-0.24-2.637-1.047-5.461-2.711-7.237c2.077,1.769,3.493,4.3,3.758,7.212
	c0.129,1.438-0.036,2.836-0.438,4.136c0.672-1.452,1.066-3.056,1.088-4.758c0.391,1.815,0.251,3.372-0.18,4.702
	c0.526-1.313,0.83-2.738,0.849-4.234c0.038,0.174,0.056,0.34,0.086,0.51v-0.033c0-0.893-0.097-1.76-0.278-2.601l-0.003-0.124
	c-0.705-4.614-4.083-9.003-8.392-10.937c-1.289-0.673-5.216-2.117-9.463-2.502c-1.924-0.218-3.988-0.194-6.511,0.073
	c-1.127,0.118-2.224,0.259-3.298,0.398c-5.762,0.736-11.205,1.435-17.036-1.835c-7.226-3.643-12.574-11.773-13.588-20.698
	l-0.113-0.973c-0.146-1.229-0.198-2.531-0.271-3.789c-0.103-1.113-0.304-1.718-0.33-1.577c-0.014,0.079,0.011,0.185,0.013,0.267
	c0.006,0.949-0.227,1.896-0.372,2.828c-0.171,1.109-0.401,3.211-0.416,3.14c-0.019-0.088-0.045-0.177-0.057-0.259
	c-0.049-0.308-0.059-0.614-0.062-0.924c-0.008-0.625-0.02-1.247-0.05-1.87c-0.079-1.561-0.344-6.118-0.467-6.697
	c-0.033-0.148-0.094-0.668-0.249-0.76c0.015,0.536-0.009,1.075-0.033,1.61c-0.061,1.395-0.374,3.053-0.512,4.441
	c-0.138,1.396-0.375,2.771-0.584,4.156c-0.056,0.383-0.143,1.146-0.154,1.021c-0.001-0.024-0.004-0.052-0.005-0.082
	c-0.075-0.852-0.289-3.59-0.273-6.698l-0.008-0.642c-0.02,0.122-0.039,0.245-0.06,0.366c-0.51,2.992-1.114,7.152-1.172,11.646
	c-0.001,0.13,0.01,0.504,0.008,0.703c-0.03,1.396,0.027,7.206,2.525,13.614c3.798,9.748,11.16,16.215,21.882,19.219
	C65.625,85.281,71.605,86.407,75.767,87.664"/>
<path fill="#FFC52F" d="M84.205,150.681c-1.284-0.976-4.99-3.736-7.26-4.998c-2.779-1.54-5.816-3.239-7.003-4.286
	c0,0-0.022,4.882,2.369,8.611c1.782,2.779,6.647,5.314,9.817,7.215C82.403,156.192,83.137,153.539,84.205,150.681"/>
<path fill="#FFC52F" d="M78.271,144.548c2.3,1.43,5.084,3.168,6.618,4.383c0.371-0.893,0.771-1.782,1.195-2.617
	c2.46-4.851,4.876-6.581,5.833-11.637c0.956-5.056-1.449-8.937-3.281-10.837c0,0-5.507,6.021-7.665,10.928
	C79.047,139.148,78.373,142.674,78.271,144.548"/>
<path fill="#FFC52F" d="M67.637,87.492c-0.428-0.107-0.857-0.217-1.294-0.324c-0.868-0.221-1.75-0.425-2.629-0.63
	c-0.975-0.228-1.949-0.45-2.907-0.685c-0.052,0.242-0.102,0.482-0.146,0.719c-0.14,0.856-0.255,1.729-0.354,2.598
	c2.19-0.567,4.782-1.176,7.277-1.617c0.058-0.008,0.115-0.019,0.175-0.028C67.717,87.514,67.678,87.501,67.637,87.492"/>
<path fill="#FFFFFF" d="M73.891,55.609c-8.133-5.023-10.155-9.792-11.386-16.626c-0.197-1.101-0.46-2.146-0.756-3.138
	c0.229,2.587,0.024,5.011,0.024,5.011c-0.313-2.503-1.876-6.882-1.876-6.882c0.626,2.816,0.782,7.351,0.782,7.351
	c-0.187-1.595-0.88-4.09-1.406-5.83c0.188,1.26,0.341,2.444,0.462,3.414c0.415,3.368-0.386,9.389,2.002,15.7
	c1.543,4.083,4.898,7.078,6.91,8.588C70.312,60.85,72.446,57.83,73.891,55.609"/>
<path fill="#4F2682" d="M101.575,83.428c0,0.007,0,0.015,0,0.023c-0.003,0.234-0.011,0.468-0.027,0.698v0.015
	c-0.014,0.237-0.036,0.472-0.063,0.706c-0.24,2.138-0.953,4.132-2.033,5.879c-0.118,0.194-0.245,0.384-0.375,0.57
	c0,0.005-0.003,0.008-0.006,0.011c-0.126,0.185-0.256,0.363-0.388,0.543c-0.009,0.006-0.014,0.016-0.02,0.022
	c-0.132,0.173-0.267,0.343-0.407,0.509c-0.009,0.012-0.02,0.023-0.027,0.035c-0.136,0.161-0.275,0.32-0.42,0.475
	c-0.013,0.017-0.029,0.032-0.044,0.047c-0.138,0.151-0.28,0.299-0.427,0.443c-0.019,0.021-0.041,0.042-0.062,0.061
	c-0.141,0.137-0.281,0.273-0.431,0.405c-0.027,0.026-0.058,0.05-0.085,0.074c-0.141,0.126-0.284,0.25-0.43,0.369
	c-0.036,0.028-0.072,0.056-0.107,0.083c-0.144,0.115-0.283,0.229-0.43,0.336c-0.042,0.033-0.086,0.061-0.13,0.092
	c-0.141,0.104-0.284,0.206-0.427,0.303c-0.053,0.035-0.105,0.066-0.154,0.099c-0.139,0.091-0.278,0.184-0.422,0.269
	c-0.061,0.037-0.124,0.07-0.185,0.106c-0.135,0.08-0.272,0.159-0.41,0.232c-0.069,0.04-0.141,0.073-0.212,0.11
	c-0.133,0.068-0.265,0.139-0.399,0.205c-0.077,0.036-0.157,0.069-0.231,0.104c-0.136,0.061-0.265,0.121-0.397,0.18
	c-0.088,0.037-0.176,0.066-0.264,0.104c-0.13,0.049-0.254,0.101-0.384,0.147c-0.096,0.037-0.192,0.066-0.292,0.099
	c-0.121,0.043-0.242,0.085-0.366,0.127c-0.107,0.03-0.212,0.058-0.319,0.088c-0.118,0.033-0.237,0.07-0.358,0.102
	c-0.113,0.029-0.229,0.053-0.344,0.08c-0.113,0.028-0.229,0.056-0.342,0.077c-0.121,0.025-0.245,0.046-0.367,0.066
	c-0.109,0.02-0.223,0.043-0.333,0.061c-0.132,0.02-0.27,0.034-0.405,0.051c-0.102,0.016-0.203,0.029-0.308,0.037
	c-0.163,0.019-0.335,0.031-0.5,0.041c-0.074,0.003-0.147,0.012-0.222,0.016c-0.241,0.012-0.486,0.018-0.731,0.018
	c-5.546,0-10.631-3.29-12.951-8.282c-0.708-0.205-1.46-0.412-2.242-0.621c-1.317,0.162-2.723,0.363-4.198,0.624
	c-2.73,0.48-5.551,1.154-7.845,1.75c-0.109,1.213-0.284,3.162-0.291,3.329c-0.326,6.888,0.107,6.407,0.107,6.407
	c1.999-0.782,9.366-2.671,9.366-2.671c2.157-0.503,4.72-1.042,7.72-1.597c2.11,4.254,6.489,7.175,11.558,7.175
	c6.326,0,11.585-4.555,12.685-10.563c13.829-1.5,20.364-1.543,28.904-0.407c0,0-0.003-0.017-0.008-0.05v-0.003
	c-0.006-0.031-0.116-0.531-0.121-0.568c-0.017-0.09-0.039-0.184-0.058-0.285c-0.009-0.042-0.02-0.091-0.027-0.134
	c-0.023-0.107-0.048-0.221-0.075-0.339c-0.011-0.053-0.022-0.108-0.032-0.161c-0.028-0.124-0.059-0.249-0.089-0.381
	c-0.014-0.062-0.03-0.129-0.047-0.192c-0.033-0.138-0.065-0.279-0.102-0.427c-0.02-0.066-0.033-0.138-0.053-0.209
	c-0.038-0.154-0.083-0.312-0.124-0.478c-0.02-0.071-0.038-0.144-0.058-0.22c-0.047-0.167-0.094-0.345-0.146-0.522
	c-0.023-0.078-0.045-0.155-0.066-0.238c-0.053-0.183-0.11-0.372-0.169-0.564c-0.021-0.083-0.049-0.163-0.071-0.248
	c-0.061-0.201-0.127-0.412-0.192-0.622c-0.028-0.08-0.053-0.159-0.077-0.24c-0.075-0.229-0.151-0.463-0.234-0.699
	c-0.021-0.069-0.045-0.14-0.069-0.209c-0.091-0.268-0.187-0.544-0.289-0.823c-0.017-0.046-0.03-0.084-0.044-0.128
	c-0.148-0.406-0.309-0.826-0.477-1.254c-1.532-0.287-6.405-1.021-12.458-1.061C109.518,82.594,102.884,83.283,101.575,83.428"/>
<path fill="#EDBCA2" d="M123.543,100.479c0.428,0.513,1.195,1.622,1.237,2.007c0.006,0.048,0.003,0.152-0.009,0.293
	c0,0-0.002,0.042-0.008,0.103c0,0.007,0,0.011,0,0.017c-0.055,0.59-0.339,3.336-0.973,4.104c-0.094,0.152-0.198,0.299-0.33,0.432
	c-0.728,0.68-2,1.327-4.4,2.991c-2.647,1.837-4.738,5.594-4.738,5.594s0.752-3.548,2.389-5.577c2.027-2.513,4.67-4.171,6.301-5.041
	l0.732-3.273c-0.562-0.375-1.268-0.758-1.95-0.88c-1.419-0.25-3.808-0.218-5.271-0.696c0.009-0.01,0.02-0.027,0.02-0.027
	c1.752-0.215,2.774-0.728,5.377-1.154c2.606-0.427,4.612,0.342,4.612,0.342C124.78,99.796,123.543,100.479,123.543,100.479
	 M132.012,99.068c-2.487,0.984-8.292-0.776-11.921-1.037c-3.628-0.26-6.168,1.452-6.168,1.452c-0.986-2.489,0.154-5.855,0.154-5.855
	c-0.758,0.014-3.484,0.346-4.253,0.39c-0.012,0.046-0.29,0.09-0.714,0.135c0,0.084,0,0.167,0.003,0.25c0,0-1.144,8.796-5.314,14.539
	c1.091,0.605,3.846,1.429,4.818,2.315c1.802,1.645,1.9,4.02,1.812,4.956c-0.082,0.942-0.221,2.62-1.086,5.945
	c0,0-0.212-4.782-0.639-6.19c-0.427-1.407-2.03-2.71-3.567-3.178c-0.697-0.214-1.978-0.557-3.399-0.872
	c-2.747,3.144-5.519,5.317-8.119,7.631c0.272,0.428,0.664,0.788,1.212,0.932c1.564,0.408,3.543-0.525,3.543-0.525
	s-1.257,5.817,2.083,10.776c2.49,3.7,7.301,2.753,7.301,2.753s1.033-7.31,5.595-13.167c4.204-5.399,9.328-8.191,12.907-9.247
	c-0.129-0.662-0.348-2.034-0.097-2.7c0.345-0.895,1.325-1.709,2.521-1.709c1.198,0,2.562,0.642,2.562,0.642
	c-0.639-0.129-2.306-0.214-3.16,0.682c-0.655,0.689-0.353,2.082-0.179,2.693c3.292-0.607,6.325-0.196,6.903-0.052
	c0.62,0.155,1.19,0.052,1.4-0.726c0.206-0.775,0.206-1.71-0.21-2.021c-0.413-0.311-1.088-0.416-1.763-0.931
	c-0.675-0.521-1.24-1.764-1.19-3.577C133.1,101.557,132.012,99.068,132.012,99.068"/>
<path fill="#FFC52F" d="M116.601,93.725c-1.278,0.854-0.978,3.416-0.978,3.416s1.021-1.066,3.54-1.708
	c2.521-0.64,5.852-0.168,5.852-0.168c-1.921,0.382-2.989,1.021-2.989,1.021c3.587,0.47,4.226,1.623,9.009,1.281
	c4.779-0.34,5.378-4.865,5.378-4.865s-1.111,0.513-3.585,1.066c-2.477,0.554-7.472-0.212-8.967-0.384
	C122.367,93.215,117.885,92.873,116.601,93.725"/>
<path fill="#FFC52F" d="M69.123,65.963c0.764-0.088,1.541-0.187,2.332-0.287c1.088-0.141,2.198-0.283,3.34-0.404
	c2.666-0.281,4.858-0.303,6.905-0.072c4.04,0.363,7.916,1.65,9.756,2.509c5.119,2.165,9.152,7.379,9.868,12.831l-0.011,0.003
	c0.03,0.151,0.062,0.303,0.083,0.453c0.011,0.058,0.016,0.115,0.024,0.171c0.03,0.194,0.056,0.39,0.077,0.586
	c0,0.002,0,0.003,0,0.005c1.27-0.148,7.948-0.903,13.519-0.865c4.967,0.032,9.375,0.553,11.494,0.896
	c-2.177-4.853-5.546-10.547-10.635-15.37c-11.507-10.901-25.729-16.109-37.598-16.653c0,0-0.18,2.128-1.466,4.852
	c-0.457,0.964-1.049,2.006-1.826,3.053c-1.115,1.501-3.353,4.589-5.409,7.698C69.508,65.473,69.123,65.963,69.123,65.963"/>
<path fill="#FFC52F" d="M84.163,167.166c0,0,1.205-2.121,2.546-4.496c-0.84-0.717-1.977-1.573-3.372-2.441
	c-1.272-0.787-3.449-1.87-5.351-2.964c-0.01,1.033,0.122,3.653,1.596,5.782C81.467,165.767,84.163,167.166,84.163,167.166"/>
<path fill="#FFC52F" d="M76.387,99.713c-0.192-0.26-0.379-0.524-0.557-0.797l-0.389-0.338c-1.316,0.266-18.973,2.584-40.329,16.938
	c-7.072,4.754-15.749,13.192-20.031,17.899c1.835-0.802,5.789-2.46,8.917-3.425c3.196-3.282,8.442-8.598,13.251-11.967
	C48.389,110.22,67.442,102.152,76.387,99.713"/>
<path fill="#FFC52F" d="M128.227,122.814c5.51-3.628,10.273-4.838,10.273-4.838s-0.188-2.977-3.201-5.805
	c0,0-4.565-1.284-10.284,1.322c-5.722,2.604-11.172,7.798-13.521,13.177c-2.347,5.38-2.532,11.069-2.788,15.254
	s0.443,10.438-1.201,16.069c0,0,2.7-3.988,3.678-15.257c0.888-10.219,3.416-17.248,8.111-20.535c0,0-3.758,5.208-5.037,13.747
	c-1.281,8.538-1.027,11.869-2.605,18.954l-0.392,1.331c0,0,3.761-5.033,5.797-18.146c1.782-11.467,5.141-16.611,9.749-19.302
	c0,0-6.17,6.708-7.584,16.31C119.221,135.096,122.723,126.441,128.227,122.814"/>
<path fill="#EDBCA2" d="M97.627,131.101c-1.721-2.529-2.908-7.59-2.908-7.59s-2.149-0.05-3.422-1.778
	c-0.213,0.217-0.425,0.432-0.64,0.657c0,0,1.937,2.69,3.121,7.751c0.904,3.854-1.507,10.12-1.507,10.12s1.251,3.144,1.803,6.97
	c0.074-0.044,0.156-0.094,0.229-0.135c0,0,6.713-3.562,10.322-5.066c0.568-0.239,1.287-0.501,2.091-0.769
	c0.077-1.507,0.227-3.581,0.532-5.505c-0.694,0.018-1.331,0.025-1.871,0.025C101.663,135.781,99.35,133.63,97.627,131.101"/>
<path fill="#EDBCA2" d="M134.483,135.701c-1.829-0.053-9.015-0.281-13.483-0.281h-0.055c-0.446,0.703-0.805,1.449-1.193,2.497
	c1.248-0.245,2.449-0.461,3.552-0.626c6.083-0.915,11.089-1.077,11.896-1.185c0.808-0.107,2.262-0.055,2.799-0.485
	C137.998,135.621,136.315,135.756,134.483,135.701"/>
<path fill="#FFC52F" d="M80.149,169.803c0.347,1.168,1.215,1.768,2.071,2.215c0.553-1.752,1.268-3.689,1.268-3.689
	c-1.307-0.666-2.57-1.779-2.57-1.779C80.435,167.174,79.585,167.898,80.149,169.803"/>
<path fill="#EDBCA2" d="M136.627,128.306c-1.281-0.513-3.458-0.384-3.458-0.384s1.664-4.056,1.493-6.275
	c0,0-9.661,4.165-12.43,11.832c0,0,5.796,0.151,9.041,0.534c3.243,0.386,5.354,0.399,6.078,0.44c0.727,0.042,2.22,0.127,1.752-2.521
	C138.632,129.285,137.907,128.819,136.627,128.306"/>
<path fill="#FFC52F" d="M79.4,180.813c-0.764,0.942-1.107,2.847-0.626,3.411c0.482,0.567,1.155,0.498,1.571,0.025
	c0.418-0.472,0.543-1.221-0.039-2.006C79.837,181.604,79.4,180.813,79.4,180.813"/>
<path fill="#FFC52F" d="M90.715,142.92c-0.407,0.655-1.058,1.666-1.438,2.182c-1.205,1.625-4.175,8.091-5.44,13.16
	c0.379,0.236,0.722,0.457,1.013,0.658c1.391,0.973,2.219,1.758,2.686,2.279c0.607-1.08,1.797-2.177,2.271-3.037
	c1.743-3.165,3.079-6.9,2.646-10.306C92.156,145.518,91.106,143.655,90.715,142.92"/>
<path fill="#FFC52F" d="M81.392,177.855c-1.012-0.684-1.664-1.446-1.664-1.446c-1.349,2.319-0.695,2.858,1.166,4.236
	c1.271,0.942,1.027,2.174,1.027,2.174s1.747-0.884,1.631-2.008C83.475,180.067,82.403,178.538,81.392,177.855"/>
<path fill="#FFC52F" d="M85.928,166.761c-1.076,1.939-2.044,4.488-2.527,5.852c0.102,0.058,0.201,0.118,0.29,0.179
	c1.012,0.684,2.306,2.499,2.306,2.499s2.776-3.088,3.9-6.59c1.13-3.502-0.22-7.692-0.22-7.692S87.475,163.979,85.928,166.761"/>
<path fill="#FFC52F" d="M82.324,173.62c-1.385-0.661-2.113-1.583-2.113-1.583s-0.828,1.115-0.521,2.44
	c0.305,1.322,1.537,1.896,2.846,2.56c1.309,0.666,1.802,1.994,1.802,1.994c0.93-0.652,1.392-1.653,0.876-2.738
	C84.697,175.205,83.709,174.281,82.324,173.62"/>
<path fill="#000002" d="M121.92,99.369c-2.603,0.427-3.627,0.939-5.377,1.154c0,0-0.011,0.017-0.02,0.029
	c1.463,0.477,3.852,0.444,5.271,0.692c0.683,0.124,1.389,0.507,1.95,0.882l-0.732,3.273c-1.631,0.869-4.273,2.528-6.301,5.041
	c-1.637,2.027-2.389,5.578-2.389,5.578s2.091-3.758,4.738-5.594c2.4-1.665,3.673-2.312,4.4-2.992c0.132-0.133,0.236-0.28,0.33-0.433
	c0.634-0.767,0.918-3.513,0.971-4.103c0-0.006,0.002-0.012,0.002-0.017c0.006-0.061,0.008-0.103,0.008-0.103
	c0.012-0.141,0.015-0.245,0.009-0.294c-0.042-0.385-0.808-1.493-1.237-2.006c0,0,1.237-0.684,2.986-0.769
	C126.529,99.711,124.523,98.942,121.92,99.369"/>
<path fill="#F8CADE" d="M117.805,100.587l1.391,0.155c0.954,0.082,1.91,0.14,2.641,0.27l0,0c0.737,0.132,1.468,0.531,2.041,0.916
	l0.102,0.252l-0.732,3.272l-0.121,0.16c-1.414,0.752-3.593,2.104-5.452,4.091l-0.774,0.89l-0.49,0.691
	c-0.537,0.86-0.956,1.865-1.257,2.733L115,114.5l0.195-0.301c0.678-0.973,1.634-2.193,2.744-3.186l0.986-0.784l2.832-1.874
	c0.354-0.226,0.653-0.422,0.906-0.598l0.625-0.496l0.006-0.004l0.293-0.381l0.019-0.028c0.54-0.652,0.862-3.383,0.917-3.973v-0.018
	c0.006-0.058,0.009-0.095,0.009-0.095c0.011-0.137,0.011-0.245,0.011-0.25v-0.001c-0.027-0.247-0.766-1.38-1.182-1.879l0.066-0.364
	c0.008-0.004,0.33-0.182,0.876-0.369l0.942-0.259l-0.237-0.049c-0.793-0.122-1.859-0.183-3.047,0.013
	c-1.937,0.317-2.989,0.684-4.154,0.939L117.805,100.587z M124.78,102.485l-0.009,0.294c0,0-0.002,0.042-0.008,0.103
	c0,0.005-0.002,0.011-0.002,0.017c-0.053,0.59-0.337,3.336-0.971,4.103c-0.094,0.152-0.198,0.3-0.33,0.433
	c-0.728,0.68-2,1.327-4.4,2.992c-2.647,1.836-4.738,5.594-4.738,5.594s0.752-3.551,2.389-5.578c2.027-2.513,4.67-4.172,6.301-5.041
	l0.732-3.273c-0.562-0.375-1.268-0.758-1.95-0.882c-1.419-0.248-3.808-0.216-5.271-0.692c0.009-0.013,0.02-0.029,0.02-0.029
	c1.75-0.215,2.774-0.728,5.377-1.154c2.604-0.427,4.612,0.342,4.612,0.342c-1.752,0.085-2.989,0.769-2.989,0.769
	C123.973,100.992,124.738,102.101,124.78,102.485z"/>
</svg>
