<?xml version="1.0" encoding="utf-8"?>
<!-- Generator: Adobe Illustrator 12.0.0, SVG Export Plug-In . SVG Version: 6.00 Build 51448)  -->
<!DOCTYPE svg PUBLIC "-//W3C//DTD SVG 1.1//EN" "http://www.w3.org/Graphics/SVG/1.1/DTD/svg11.dtd" [
	<!ENTITY ns_svg "http://www.w3.org/2000/svg">
	<!ENTITY ns_xlink "http://www.w3.org/1999/xlink">
]>
<svg  version="1.1" id="MINNESOTA_VIKINGS" xmlns="&ns_svg;" xmlns:xlink="&ns_xlink;" width="149.838" height="200"
	 viewBox="0 0 149.838 200" overflow="visible" enable-background="new 0 0 149.838 200" xml:space="preserve">
<g>
	<path d="M139.71,112.463c0.389-2.1,1.555-4.432,0.544-6.686c1.115-0.615,2.367-1.249,3.574-1.865
		c0.09-1.412-0.396-5.566-5.05-8.545c0,0,2.062-0.715,1.087-4.896c-5.672,0.466-4.196-5.905-5.75-9.091
		c4.774-2.727,5.947-8.278,4.507-11.811c-1.428,2.515-3.342,4.662-5.983,5.051c-13-33.705-46.146-42.168-65.818-41.088
		c0,0-0.614,4.881-1.702,6.824C50.825,36.626,51.213,21.01,44.454,11.22c-1.597-2.225-5.871-7.644-10.751-8.547
		c-0.954-0.134-1.293,0.543-1.216,0.932c10.101,6.839,11.152,18.425,12.121,29.603c0.817,9.41,6.737,14.749,12.877,19.34
		c-0.338,0.318-0.861,1.342-1.145,1.949c-7.925,2.254-17.47,0.946-24.073-3.483c-13.365-8.761-10.065-25.451-13.766-38.628
		c-1.095-3.426-2.846-8.108-6.357-9.939c-1.108-0.607-2.168,0.042-1.645,0.77c2.563,3.652,4.429,7.693,4.66,12.277
		c0.078,11.817-2.806,24.355,1.741,35.451c6.754,15.055,19.228,25.92,34.39,29.116c-0.492,5.327,0.028,9.906,0.932,14.918
		c-16.274,8.812-28.884,18.053-49.769,50.361c-0.642,1.307-0.021,2.548,1.732,0.918c20.476-19.027,54.234-28.45,75.428,3.242
		c10.191,16.069,9.304,27.382,8.661,37.939c-0.006,3.667-2.229,8.774,1.081,10.183c3.547,1.528,7.085-7.456,7.092-8.706
		c0.774-0.78,1.148-2.38,1.202-3.547c0.739-0.556,1.127-3.113,0.957-4.489c2.132-2.521,4.022-8.826,1.665-12.498
		c0.794-2.117,0.887-7.605-0.429-10.557c0.732-3.212,1.483-10.491-1.156-13.82c3.821-4.306,8.808-7.812,13.804-9.938
		c1.241,9.399,3.1,21.383-5.138,27.831c-0.549,0.368-0.458,1.002,0.553,0.724c13.249-4.438,16.057-29.665,16.974-32.808
		c4.407-2.294,16.961-5.685,20.724-7.064c3.942-1.498,1.214-6.815-0.325-8.7C144.507,113.07,142.282,112.588,139.71,112.463z
		 M137.662,91.426l0.186,1.454c-2.72,0.665-6.781,3.312-7.665,1.526c-0.783-1.574,2.77-1.837,3.392-2.613
		c0.338-0.438,0.042-1.166-0.778-1.321c-1.942,0.028-3.018,0.07-3.807,0.304c-1.652,1.377-1.525,4.768-0.792,5.869
		c-3.584,1.635-7.132,5.247-9.154,7.423c-0.93-4.661,2.487-8,5.907-10.411c0.777-0.742,0.311-5.438-0.311-7.848
		c-0.643-0.275-1.738,0.008-1.831-0.543c-0.009-0.527,4.265-0.627,6.043-0.704c-0.462-2.947,3.077-3.442,4.151-1.74
		C134.321,85.696,133.39,90.959,137.662,91.426z M137.458,73.689c-0.233,2.253-1.71,4.273-3.729,5.438
		c-5.673,2.486-13.209-1.166-18.415,2.409c0.076-1.942,1.072-4.648,4.021-4.849C126.782,76.375,132.087,78.802,137.458,73.689z
		 M129.611,74.621c-10.18-0.544-21.325,1.003-30.57,3.8c-1.399,14.307-18.282,19.677-28.17,8.71c0,0-3.745,0.826-15.073,5.982
		c-1.399-1.865-2.584-6.427-0.425-7.445c2.936-1.592,5.171-2.919,8.217-3.637c2.547-0.582,6.63,0.717,8.618,1.265
		c11.234,6.762,22.7,6.932,25.574-13.089c0,0,14.517-3.581,28.29-2.657C126.072,67.55,128.219,70.518,129.611,74.621z
		 M54.476,83.246v-2.487l4.274,0.622C57.429,81.776,55.952,82.518,54.476,83.246z M68.694,35.461
		c43.413,1.109,55.943,29.836,55.943,29.836c-8.322-0.699-19.015,0.84-27.427,2.641c-4.492-11.405-11.293-16.09-37.295-13.83
		C63.482,47.604,67.798,43.33,68.694,35.461z M50.591,42.376c-2.213-4.14-3.717-9.361-4.293-14.49
		c0.034-0.196,0.162-0.21,0.249-0.135c0.515,2.776,0.988,5.037,2.179,7.012c0.23,0.228,0.636,0.137,0.544-0.277
		c-0.898-2.57-1.833-5.573-2.3-8.914c0.107-0.145,0.214-0.333,0.32-0.06c0.82,2.104,2.105,5.71,3.067,6.763
		c0.139,0.183,0.622,0.138,0.577-0.23c-0.386-1.123-1.231-3.315-1.503-4.415c-0.158-0.365,0.149-0.227,0.269-0.126
		c2.394,6.583,6.019,10.054,10.603,12.853c1.653,1.129,1.098,5.743-2.642,6.524C54.476,47.427,52.067,44.785,50.591,42.376z
		 M55.204,72.784c-0.919-1.179-5.01,2.027-5.544,1.449c-0.331-0.266,1.843-1.094,1.32-1.476c-1.399-0.933-3.781,0.932-4.118,0.544
		c-0.24-0.373,0.883-0.544,0.544-1.088c-0.987-1.005-4.515,0.972-4.818,0.389c-0.217-0.422,2.587-0.939,2.021-1.71
		c-0.925-0.894-3.807,1.02-8.009-0.893c-15.609-8.214-19.746-24.601-20.223-31.42c0.046-0.23,0.059-0.292,0.198-0.108
		c1.229,5.982,3.591,14.27,8.998,18.436c0.276,0.183,0.572-0.206,0.389-0.389c-5.75-4.524-7.925-14.735-8.211-23.542
		c-0.02-0.337,0.089-0.368,0.208-0.078c0.389,6.678,2.254,14.685,7.614,19.734c0.23,0.185,0.619-0.112,0.389-0.388
		c-5.191-6.223-6.694-14.124-6.666-21.745c0.048-0.305,0.248-0.202,0.231-0.106c0.311,9.091,4.415,16.801,11.874,22.628
		c13.906,10.457,37.125-0.596,50.319,3.852c19.701,5.784,13.548,23.119,7.644,26.14c-1.346-1.407-2.246,0.539-2.796,0.233
		c-0.596-0.377,0.682-0.965-0.096-1.432c-0.734-0.306-1.64,0.805-2.314,0.5c-0.389-0.173,0.679-0.944,0.144-1.289
		c-1.167-0.776-2.575,1.662-3.173,1.289c-0.472-0.311,1.998-1.517,1.014-2.342c-1.286-0.967-3.025,1.612-3.579,1.175
		c-0.852-0.609,3.555-2.553,1.865-3.341c-0.93-0.472-3.87,2.595-4.506,2.021c-0.5-0.459,3.603-2.149,2.437-2.985
		c-0.969-0.541-5.969,3.015-6.709,2.442c-0.552-0.429,4.421-2.844,3.257-3.764c-1.447-0.984-6.232,4.101-7.143,3.22
		c-0.692-0.57,4.08-2.448,2.92-3.607c-1.112-1.08-5.959,3.776-7.271,2.83c-0.61-0.402,4.882-2.582,3.423-3.68
		c-1.434-0.826-7.174,3.866-7.696,3.137c-0.456-0.604,4.842-2.567,4.117-3.497c-1.469-1.408-6.786,3.238-7.458,2.564
		c-0.639-0.629,4.184-2.246,3.301-2.931c-1.469-1.041-6.386,2.795-6.875,2C51.771,74.837,56.313,74.238,55.204,72.784z
		 M19.199,132.53c-4.172,2.82-7.434,5.189-11.497,9.223c-0.368,0.275-0.543-0.185-0.176-0.646
		c24.728-36.906,54.212-48.74,61.384-50.565c1.402-0.274,1.264,0.502,0.702,0.863c-13.54,5.219-36.045,18.639-45.671,34.887
		C22.476,128.762,21.301,131.104,19.199,132.53z M37.842,126.932c-5.181,1.486-9.521,2.623-14.025,4.229
		c-0.405,0.173-1.08,0.087-0.83-0.439c10.588-19.116,30.069-30.587,48.795-38.745c0.551-0.277,0.953,0.36,0.495,0.544
		c-13.874,6.746-23.907,20.199-32.253,32.826C39.815,125.664,38.599,126.71,37.842,126.932z M42.843,126.474
		c-0.734-0.278-0.671-1.047-0.488-1.504c8.936-10.952,15.915-24.87,29.512-30.464c1.074-0.304,2.498-1.072,3.641-0.608
		c2.644,1.1,7.11,2.769,12.661,1.286c10.989-3.412,12.383-14.036,12.383-14.036c2.72-0.699,5.44-1.552,8.392-1.864
		c-3.185,18.414-28.827,26.029-29.836,45.298c-7.613,1.495-17.108-4.465-18.556-13.365c-1.909,3.78-4.428,8.257-8.873,12.121
		C49.143,125.343,45.42,127.293,42.843,126.474z M92.704,149.445c-1.666-1.358-3.185-2.955-5.207-3.574
		c-0.233-7.15,4.684-15.264,6.316-17.758c0.628-0.99,1.285-0.341,1.645,0.963C99.039,139.965,93.587,144.52,92.704,149.445z
		 M97.366,145.327c1.765,1.109,0.847,10.069-1.087,14.684c-1.364-1.962-2.991-3.61-3.858-4.501
		C93.616,152.573,96.541,144.959,97.366,145.327z M94.414,109.664c-0.284,0.134-1.083-0.918-1.506-0.7
		c-0.489,0.296,1.272,2.799,1.272,2.799c0.063,14.858-7.826,17.968-7.77,27.036c-1.591-1.256-3.667-3.071-5.688-3.849
		c-3.58-14.029,13.716-32.595,14.687-31.784C95.826,103.61,94.767,109.353,94.414,109.664z M50.845,126.22
		c4.118-2.563,7.213-7.019,8.836-10.342c0.467,1.167,1.181,2.461,1.626,3.583c-2.099,2.572-5.171,6.101-8.261,7.24
		C51.923,126.898,50.116,126.932,50.845,126.22z M71.217,136.065c-4.818-4.115-9.981-6.747-15.809-8.455
		c2.253-1.639,5.283-4.423,7.07-6.759c0.296,0.275,0.728,0.753,0.961,0.99c-0.233,5.904,2.755,10.5,7.96,13.222
		C72.227,135.428,71.676,136.525,71.217,136.065z M65.509,123.645c4.146,2.793,8.546,4.046,13.208,3.735v6.756
		C65.752,132.611,65.509,123.645,65.509,123.645z M78.924,143.793c-1.377-0.826-6.887-5.984-4.869-7.635
		c2.162-2.24,11.734,4.118,11.734,4.118c-0.078,1.555-0.466,3.029-0.311,4.662C85.478,144.938,80.391,144.804,78.924,143.793z
		 M82.991,150.919c-0.7-1.319-2.077-2.916-1.293-3.933c1.274-1.151,7.092,0.832,10.073,4.091c-0.317,1.459-0.733,2.485-1.087,3.962
		C87.73,154.571,84.545,154.027,82.991,150.919z M88.041,160.944c-0.613-1.11-1.531-3.61-0.544-4.429
		c1.217-0.67,6.343,1.821,8.054,4.928c0.275,0.736-1.13,3.392-1.681,3.484C93.354,165.188,88.911,162.966,88.041,160.944z
		 M96.044,171.591c0,1.085-0.897,2.503-1.334,2.456c-0.544,0.158-4.74-2.276-5.051-4.692c-0.233-1.241-0.374-3.502,0.248-3.748
		C91.064,165.281,95.112,169.025,96.044,171.591z M89.751,196.219c-1.286-0.742-0.529-3.625,0.389-5.207
		c0.776,0.544,1.412,1.468,2.138,2.231C91.998,193.979,91.015,196.727,89.751,196.219z M93.021,191.733
		c-1.087-1.146-1.482-2.121-2.88-2.973c-0.461-0.458-0.057-1.57,0.31-1.475c1.099,0.512,2.759,2.285,3.183,3.852
		C93.741,191.526,93.42,192.005,93.021,191.733z M94.202,188.937c-1.024-1.328-2.401-2.712-3.688-3.801
		c-0.601-0.353,0.057-1.462,0.721-1.304c1.562,0.542,2.817,2.715,3.517,4.426C94.845,188.808,94.384,189.119,94.202,188.937z
		 M95.247,185.955c-0.531-1.292-3.258-4.008-4.775-5.347c-0.827-0.643,0.592-2.019,1.144-1.562
		C93.946,180.835,96.751,184.744,95.247,185.955z M96.158,182.734c-1.087-2.563-2.988-4.928-5.317-6.483
		c-0.827-0.458-0.736-2.438,0-2.252c2.718,0.93,5.452,4.265,6.072,6.983C97.189,181.989,96.617,183.56,96.158,182.734z
		 M99.323,170.682c0.896,0.658,0.204,5.491-1.413,7.665l-2.021-2.793C96.977,173.84,98.694,170.293,99.323,170.682z M96.977,170.269
		c-0.368-1.618-1.349-2.491-1.821-3.986c0.366-0.547,2.98-6.224,3.53-6.042C99.639,160.726,98.652,167.589,96.977,170.269z
		 M98.531,141.595c1.476-6.137-0.932-11.577-3.185-16.625c0.806-3.984,0.974-7.309,1.476-11.302
		c0.297-0.849,1.349-1.017,1.709-0.434c1.081,8.891,4.727,12.01,12.666,11.58l0.542,5.981
		C106.691,132.895,102.417,137.246,98.531,141.595z M111.308,122.06c-7.343,2.201-11.556-2.3-10.913-12.396
		c-0.876-1.406-3.263,1.785-3.574,0.774c-0.07-10.632,4.584-11.153,6.351-13.715c1.723,0.227,3.644,0.867,4.568,2.118
		c2.847,4.443,2.136,9.812,3.843,14.785c0.417,0.888,1.244,0,1.244,0c-1.866-6.839,0.155-16.551-8.159-19.425
		c3.341-4.584,4.647-9.578,6.047-14.94c0.542-0.621,1.723-0.755,2.345-0.522c-0.233,2.097-1.087,3.962-0.778,6.371
		c0.184,1.434,2.917-1.731,4.507-2.487c2.232-1.151,5.848-0.868,8.957-0.401c0.642,0.091,0.55,0.727-0.093,0.818
		c-3.029,0.311-7.683,0.912-7.931,2.226c-0.015,0.975,3.495,1.942,5.594,2.02c0.303,1.124,0.614,2.551,0.431,3.872
		c-3.887,1.865-8.821,6.791-6.047,14.912C114.67,110.65,112.672,116.419,111.308,122.06z M124.638,124.581
		c-3.357,10.174-4.878,23.698-9.193,29.574c-0.082,0.114-0.315,0.108-0.218-0.134c5.096-10.159,4.163-19.275,7.158-29.051
		c0.161-0.368-0.25-0.85-0.573-0.299c-3.406,4.489-3.997,22.319-6.867,27.816c-0.097,0.209-0.416,0.254-0.311-0.167
		c3.413-12.902,0.727-25.304,6.041-35.197c0.204-0.356-0.407-0.918-0.933-0.311c-2.33,4.196-5.056,12.788-4.3,22.98
		c0.043,0.562-0.417,0.649-0.495,0.021c-1.476-11.891-2.648-23.764,5.729-34.035c3.529-4.325,8.816-8.333,12.347-9.253
		c8.326-1.758,9.486,6.068,9.486,6.068C132.718,105.39,127.479,115.968,124.638,124.581z M127.386,125.421
		c-0.495-0.296-0.446-1.301,0.027-1.478c2.889-0.795,11.104-2.677,11.521-1.773C139.088,122.421,127.987,125.738,127.386,125.421z
		 M145.306,120.307c-6.14-0.311-12.041,0.326-17.328,1.475c1.005-6.038,9.047-15.197,10.646-14.313
		c1.518,0.84-1.773,5.126,0.085,6.427c1.413,0.823,3.06,0.275,4.238,0.712C145.551,115.8,146.173,120.047,145.306,120.307z"/>
	<path fill="#3C1E5E" d="M97.782,70.207c-2.874,20.021-14.34,19.851-25.574,13.089c-1.988-0.547-6.071-1.846-8.618-1.265
		c-3.046,0.717-5.281,2.044-8.217,3.637c-2.16,1.019-0.974,5.581,0.425,7.445c11.328-5.156,15.073-5.982,15.073-5.982
		c9.889,10.967,26.771,5.596,28.17-8.71c9.246-2.797,20.39-4.344,30.57-3.8c-1.392-4.104-3.539-7.071-3.539-7.071
		C112.298,66.626,97.782,70.207,97.782,70.207z"/>
	<g>
		<path fill="#FFFFFF" d="M146.984,112.657c-0.823-1.047-2.318-1.752-4.522-2.126c0.275-1.101,0.497-2.327,0.353-3.62
			c0.64-0.333,2.013-1.033,2.013-1.033c0.695-0.353,1.151-1.047,1.201-1.823c0.16-2.512-0.891-6.166-4.146-9.083
			c0.46-1.129,0.658-2.738,0.13-5c-0.247-1.064-1.237-1.786-2.325-1.696c-1.61,0.131-1.975-0.156-2.536-3.772
			c-0.117-0.743-0.236-1.499-0.413-2.234c4.514-3.526,5.572-8.951,3.925-13.531c-0.708-1.967-3.172-1.54-3.955-0.255
			c-0.947,1.55-1.842,2.691-2.826,3.337c-6.095-14.447-16.658-25.747-30.663-32.758c-11.133-5.576-24.443-8.392-36.516-7.73
			c-1.063,0.058-1.933,0.869-2.066,1.925c-0.154,1.223-0.47,2.989-0.841,4.357c-7.044-2.728-9.542-9.33-12.17-16.293
			c-1.471-3.895-2.991-7.923-5.36-11.354c-2.242-3.126-6.77-8.463-12.162-9.461c-4.315-0.367-4.412,4.004-2.852,4.922
			c9.282,6.281,10.237,17.308,11.162,27.97c0.811,9.354,6.201,14.982,11.739,19.368c-7.011,1.499-15.12,0.132-20.66-3.584
			c-0.006-0.002-0.011-0.005-0.016-0.009c-0.001-0.001-0.002-0.001-0.002-0.001c-8.542-5.6-9.811-14.653-10.725-24.694
			c-0.593-6.521-2.143-12.74-2.151-12.765C19.209,7.362,17.24,2.629,13.18,0.502C11.64-0.33,9.862-0.111,8.846,1.035
			C7.979,2.014,7.914,3.414,8.709,4.502c4.313,5.898,4.581,11.175,4.207,17.01c-1.829,15.961-0.957,24.062,2.942,32.704
			c9.099,17.529,22.836,25.043,33.104,27.559c-0.226,4.456,0.217,8.399,0.82,12.024c-14.722,8.089-27.993,17.568-49.18,50.343
			c-1.744,2.297,0.401,7.495,5.082,3.727c12.952-12.031,28.991-18.243,42.906-16.619c11.63,1.361,21.448,7.904,29.177,19.451
			c9.618,15.178,9.146,27.284,7.961,39.779c-0.302,3.188-1.178,7.491,2.764,9.172c1.396,0.598,2.949,0.421,4.363-0.502
			c2.881-1.887,5.066-6.885,5.644-9.265c0.852-1.193,1.169-2.707,1.289-3.676c0.851-1.36,1.047-3.364,1.05-4.621
			c2.27-3.26,3.786-9.229,1.797-13.464c0.658-2.811,0.589-7.417-0.502-10.5c0.407-2.153,1.415-8.825-0.706-13.326
			c2.673-2.751,5.868-5.138,9.272-6.938c0.684,8.392,2.262,16.808-4.704,22.804c-1.745,1.375-1.614,5.652,2.609,4.552
			c12.827-4.148,16.915-25.648,18.186-33.373c3.152-1.409,18.285-6.053,19.568-6.522c2.168-0.826,2.981-2.36,3.287-3.5
			C150.507,118.103,148.282,114.245,146.984,112.657z M145.602,122.75c-3.762,1.379-16.317,4.77-20.724,7.064
			c-0.917,3.143-3.725,28.369-16.974,32.808c-1.011,0.278-1.102-0.356-0.553-0.724c8.238-6.448,6.379-18.431,5.138-27.831
			c-4.996,2.126-9.983,5.631-13.804,9.938c2.64,3.329,1.889,10.608,1.156,13.82c1.316,2.952,1.223,8.44,0.429,10.557
			c2.358,3.672,0.468,9.977-1.665,12.498c0.17,1.375-0.218,3.933-0.957,4.489c-0.054,1.167-0.428,2.767-1.202,3.547
			c-0.007,1.25-3.545,10.234-7.092,8.706c-3.311-1.409-1.087-6.517-1.081-10.183c0.643-10.557,1.53-21.871-8.661-37.939
			c-21.194-31.692-54.952-22.269-75.428-3.242c-1.753,1.63-2.374,0.389-1.732-0.918c20.885-32.308,33.495-41.549,49.769-50.361
			c-0.904-5.012-1.423-9.591-0.932-14.918c-15.163-3.196-27.636-14.062-34.39-29.116c-4.547-11.096-1.664-23.634-1.741-35.451
			c-0.231-4.584-2.097-8.625-4.66-12.277c-0.523-0.728,0.537-1.377,1.645-0.77c3.511,1.831,5.262,6.514,6.357,9.939
			c3.7,13.177,0.4,29.868,13.766,38.628c6.603,4.429,16.148,5.737,24.073,3.483c0.283-0.607,0.807-1.631,1.145-1.949
			c-6.14-4.591-12.06-9.93-12.877-19.34c-0.969-11.178-2.021-22.764-12.121-29.603c-0.078-0.389,0.262-1.066,1.216-0.932
			c4.88,0.904,9.154,6.322,10.751,8.547c6.76,9.791,6.372,25.406,20.667,29.137c1.088-1.943,1.702-6.824,1.702-6.824
			c19.672-1.08,52.818,7.384,65.818,41.088c2.641-0.389,4.555-2.536,5.983-5.051c1.44,3.533,0.268,9.084-4.507,11.811
			c1.553,3.186,0.078,9.557,5.75,9.091c0.975,4.181-1.087,4.896-1.087,4.896c4.653,2.979,5.14,7.133,5.05,8.545
			c-1.207,0.616-2.458,1.25-3.574,1.865c1.011,2.253-0.156,4.586-0.544,6.686c2.572,0.125,4.797,0.607,5.567,1.588
			C146.816,115.935,149.544,121.252,145.602,122.75z"/>
		<path fill="#FFFFFF" d="M60.304,40.357c-4.584-2.799-8.209-6.27-10.603-12.853c-0.12-0.1-0.427-0.238-0.269,0.126
			c0.271,1.1,1.117,3.292,1.503,4.415c0.045,0.368-0.438,0.413-0.577,0.23c-0.961-1.053-2.247-4.659-3.067-6.763
			c-0.106-0.273-0.213-0.085-0.32,0.06c0.467,3.341,1.402,6.343,2.3,8.914c0.092,0.414-0.314,0.505-0.544,0.277
			c-1.19-1.975-1.664-4.235-2.179-7.012c-0.087-0.075-0.215-0.061-0.249,0.135c0.576,5.128,2.08,10.35,4.293,14.49
			c1.476,2.409,3.885,5.051,7.071,4.505C61.402,46.1,61.957,41.486,60.304,40.357z"/>
		<path fill="#FFFFFF" d="M59.098,73.554c0.883,0.685-3.939,2.302-3.301,2.931c0.673,0.674,5.989-3.972,7.458-2.564
			c0.725,0.93-4.573,2.894-4.117,3.497c0.522,0.729,6.262-3.963,7.696-3.137c1.459,1.099-4.034,3.278-3.423,3.68
			c1.312,0.946,6.159-3.91,7.271-2.83c1.16,1.159-3.612,3.037-2.92,3.607c0.911,0.88,5.696-4.205,7.143-3.22
			c1.164,0.92-3.809,3.335-3.257,3.764c0.74,0.573,5.74-2.982,6.709-2.442c1.166,0.836-2.938,2.526-2.437,2.985
			c0.637,0.575,3.576-2.493,4.506-2.021c1.69,0.788-2.717,2.731-1.865,3.341c0.553,0.437,2.292-2.142,3.579-1.175
			c0.984,0.825-1.486,2.031-1.014,2.342c0.598,0.374,2.007-2.064,3.173-1.289c0.535,0.344-0.532,1.116-0.144,1.289
			c0.674,0.306,1.581-0.806,2.314-0.5c0.778,0.466-0.5,1.054,0.096,1.432c0.55,0.306,1.451-1.641,2.796-0.233
			c5.904-3.021,12.057-20.356-7.644-26.14c-13.194-4.448-36.414,6.605-50.319-3.852c-7.458-5.827-11.563-13.537-11.874-22.628
			c0.017-0.096-0.183-0.198-0.231,0.106c-0.028,7.621,1.475,15.522,6.666,21.745c0.23,0.276-0.159,0.573-0.389,0.388
			c-5.36-5.05-7.226-13.057-7.614-19.734c-0.119-0.29-0.228-0.259-0.208,0.078c0.286,8.807,2.46,19.018,8.211,23.542
			c0.184,0.183-0.113,0.572-0.389,0.389c-5.407-4.166-7.769-12.454-8.998-18.436c-0.139-0.184-0.152-0.122-0.198,0.108
			c0.477,6.819,4.613,23.206,20.223,31.42c4.202,1.913,7.084-0.001,8.009,0.893c0.566,0.771-2.238,1.288-2.021,1.71
			c0.303,0.583,3.831-1.394,4.818-0.389c0.338,0.544-0.785,0.715-0.544,1.088c0.337,0.388,2.719-1.477,4.118-0.544
			c0.522,0.382-1.651,1.209-1.32,1.476c0.535,0.579,4.625-2.627,5.544-1.449c1.109,1.454-3.433,2.054-2.981,2.77
			C52.712,76.349,57.629,72.514,59.098,73.554z"/>
	</g>
	<g>
		<path fill="#EEC6A5" d="M123.748,91.157c0.184-1.321-0.127-2.748-0.431-3.872c-2.1-0.077-5.609-1.044-5.594-2.02
			c0.248-1.313,4.902-1.915,7.931-2.226c0.643-0.091,0.734-0.727,0.093-0.818c-3.109-0.467-6.725-0.75-8.957,0.401
			c-1.589,0.756-4.323,3.921-4.507,2.487c-0.31-2.409,0.544-4.274,0.778-6.371c-0.622-0.233-1.802-0.099-2.345,0.522
			c-1.4,5.362-2.707,10.356-6.047,14.94c8.314,2.874,6.292,12.585,8.159,19.425c0,0-0.827,0.888-1.244,0
			c-1.708-4.973-0.996-10.341-3.843-14.785c-0.924-1.251-2.845-1.892-4.568-2.118c-1.766,2.562-6.421,3.083-6.351,13.715
			c0.311,1.011,2.697-2.18,3.574-0.774c-0.643,10.096,3.569,14.597,10.913,12.396c1.364-5.64,3.362-11.409,6.393-15.991
			C114.927,97.948,119.861,93.022,123.748,91.157z"/>
		<path fill="#EEC6A5" d="M128.85,84.562c-1.778,0.077-6.052,0.177-6.043,0.704c0.093,0.551,1.188,0.269,1.831,0.543
			c0.622,2.409,1.088,7.105,0.311,7.848c-3.42,2.411-6.837,5.75-5.907,10.411c2.022-2.176,5.57-5.788,9.154-7.423
			c-0.732-1.101-0.86-4.492,0.792-5.869c0.79-0.234,1.865-0.276,3.807-0.304c0.82,0.156,1.116,0.883,0.778,1.321
			c-0.622,0.776-4.175,1.039-3.392,2.613c0.884,1.786,4.945-0.861,7.665-1.526l-0.186-1.454c-4.272-0.466-3.34-5.729-4.661-8.604
			C131.927,81.119,128.388,81.614,128.85,84.562z"/>
		<path fill="#EEC6A5" d="M142.946,114.607c-1.178-0.437-2.825,0.111-4.238-0.712c-1.858-1.301,1.433-5.586-0.085-6.427
			c-1.599-0.884-9.641,8.275-10.646,14.313c5.288-1.148,11.188-1.786,17.328-1.475C146.173,120.047,145.551,115.8,142.946,114.607z"
			/>
		<path fill="#EEC6A5" d="M98.531,113.234c-0.36-0.583-1.412-0.416-1.709,0.434c-0.502,3.993-0.67,7.318-1.476,11.302
			c2.253,5.048,4.661,10.488,3.185,16.625c3.886-4.349,8.16-8.7,13.208-10.799l-0.542-5.981
			C103.257,125.245,99.612,122.125,98.531,113.234z"/>
		<path fill="#EEC6A5" d="M127.413,123.944c-0.473,0.176-0.522,1.181-0.027,1.478c0.601,0.317,11.702-3,11.548-3.251
			C138.517,121.267,130.302,123.148,127.413,123.944z"/>
	</g>
	<g>
		<path fill="#EEBF1B" d="M54.476,80.759v2.487c1.476-0.728,2.953-1.47,4.274-1.865L54.476,80.759z"/>
		<path fill="#EEBF1B" d="M97.21,67.938c8.413-1.801,19.105-3.34,27.427-2.641c0,0-12.531-28.728-55.943-29.836
			c-0.896,7.869-5.212,12.143-8.779,18.647C85.917,51.848,92.718,56.533,97.21,67.938z"/>
		<path fill="#EEBF1B" d="M119.335,76.688c-2.949,0.2-3.944,2.907-4.021,4.849c5.205-3.575,12.742,0.077,18.415-2.409
			c2.019-1.166,3.496-3.185,3.729-5.438C132.087,78.802,126.782,76.375,119.335,76.688z"/>
		<path fill="#EEBF1B" d="M60.551,111.216c1.448,8.9,10.943,14.86,18.556,13.365c1.009-19.269,26.651-26.884,29.836-45.298
			c-2.952,0.312-5.672,1.165-8.392,1.864c0,0-1.394,10.624-12.383,14.036c-5.55,1.483-10.017-0.186-12.661-1.286
			c-1.143-0.464-2.567,0.304-3.641,0.608C58.27,100.1,51.291,114.018,42.355,124.97c-0.183,0.458-0.247,1.226,0.488,1.504
			c2.578,0.819,6.3-1.131,8.835-3.137C56.123,119.473,58.642,114.996,60.551,111.216z"/>
		<path fill="#EEBF1B" d="M69.612,91.405c0.562-0.361,0.7-1.137-0.702-0.863c-7.172,1.826-36.656,13.66-61.384,50.565
			c-0.367,0.461-0.191,0.921,0.176,0.646c4.063-4.034,7.325-6.403,11.497-9.223c2.102-1.426,3.277-3.768,4.742-6.238
			C33.566,110.043,56.072,96.624,69.612,91.405z"/>
		<path fill="#EEBF1B" d="M72.276,92.521c0.458-0.184,0.056-0.821-0.495-0.544c-18.726,8.158-38.207,19.628-48.795,38.745
			c-0.25,0.526,0.425,0.613,0.83,0.439c4.504-1.606,8.845-2.742,14.025-4.229c0.756-0.222,1.973-1.268,2.181-1.585
			C48.369,112.72,58.402,99.267,72.276,92.521z"/>
		<path fill="#EEBF1B" d="M142.508,102.592c0,0-1.161-7.826-9.486-6.068c-3.531,0.92-8.818,4.929-12.347,9.253
			c-8.376,10.271-7.204,22.144-5.729,34.035c0.078,0.628,0.539,0.542,0.495-0.021c-0.755-10.192,1.971-18.785,4.3-22.98
			c0.526-0.607,1.137-0.045,0.933,0.311c-5.314,9.893-2.628,22.295-6.041,35.197c-0.104,0.421,0.214,0.376,0.311,0.167
			c2.87-5.497,3.46-23.327,6.867-27.816c0.323-0.55,0.734-0.069,0.573,0.299c-2.995,9.776-2.062,18.892-7.158,29.051
			c-0.097,0.242,0.136,0.248,0.218,0.134c4.315-5.876,5.836-19.4,9.193-29.574C127.479,115.968,132.718,105.39,142.508,102.592z"/>
		<path fill="#EEBF1B" d="M95.41,103.165c-0.971-0.811-18.267,17.755-14.687,31.784c2.021,0.778,4.097,2.593,5.688,3.849
			c-0.057-9.067,7.833-12.178,7.77-27.036c0,0-1.761-2.503-1.272-2.799c0.423-0.218,1.222,0.834,1.506,0.7
			C94.767,109.353,95.826,103.61,95.41,103.165z"/>
		<path fill="#EEBF1B" d="M61.307,119.461c-0.445-1.122-1.159-2.417-1.626-3.583c-1.623,3.323-4.718,7.779-8.836,10.342
			c-0.729,0.712,1.078,0.679,2.201,0.481C56.135,125.562,59.208,122.033,61.307,119.461z"/>
		<path fill="#EEBF1B" d="M71.4,135.063c-5.206-2.721-8.194-7.318-7.96-13.222c-0.233-0.236-0.665-0.715-0.961-0.99
			c-1.788,2.335-4.817,5.12-7.07,6.759c5.827,1.708,10.991,4.339,15.809,8.455C71.676,136.525,72.227,135.428,71.4,135.063z"/>
		<path fill="#EEBF1B" d="M78.718,127.38c-4.663,0.311-9.063-0.942-13.208-3.735c0,0,0.243,8.966,13.208,10.491V127.38z"/>
		<path fill="#EEBF1B" d="M93.813,128.113c-1.633,2.494-6.549,10.608-6.316,17.758c2.022,0.619,3.541,2.216,5.207,3.574
			c0.884-4.926,6.335-9.48,2.754-20.37C95.098,127.772,94.441,127.123,93.813,128.113z"/>
		<path fill="#EEBF1B" d="M85.789,140.276c0,0-9.572-6.358-11.734-4.118c-2.019,1.651,3.492,6.81,4.869,7.635
			c1.467,1.011,6.554,1.145,6.554,1.145C85.323,143.305,85.711,141.831,85.789,140.276z"/>
		<path fill="#EEBF1B" d="M96.279,160.011c1.934-4.615,2.852-13.575,1.087-14.684c-0.825-0.368-3.75,7.246-4.945,10.183
			C93.288,156.401,94.915,158.049,96.279,160.011z"/>
		<path fill="#EEBF1B" d="M91.771,151.078c-2.98-3.26-8.799-5.243-10.073-4.091c-0.783,1.017,0.594,2.614,1.293,3.933
			c1.554,3.107,4.739,3.652,7.692,4.121C91.038,153.563,91.453,152.538,91.771,151.078z"/>
		<path fill="#EEBF1B" d="M93.87,164.928c0.55-0.093,1.956-2.749,1.681-3.484c-1.71-3.107-6.836-5.598-8.054-4.928
			c-0.987,0.819-0.069,3.319,0.544,4.429C88.911,162.966,93.354,165.188,93.87,164.928z"/>
		<path fill="#EEBF1B" d="M95.156,166.283c0.473,1.495,1.454,2.368,1.821,3.986c1.675-2.68,2.662-9.543,1.709-10.028
			C98.136,160.059,95.522,165.735,95.156,166.283z"/>
		<path fill="#EEBF1B" d="M89.907,165.606c-0.622,0.246-0.481,2.506-0.248,3.748c0.311,2.417,4.507,4.851,5.051,4.692
			c0.437,0.048,1.334-1.37,1.334-2.456C95.112,169.025,91.064,165.281,89.907,165.606z"/>
		<path fill="#EEBF1B" d="M95.889,175.554l2.021,2.793c1.617-2.174,2.309-7.007,1.413-7.665
			C98.694,170.293,96.977,173.84,95.889,175.554z"/>
		<path fill="#EEBF1B" d="M90.84,173.999c-0.736-0.186-0.827,1.794,0,2.252c2.33,1.555,4.23,3.92,5.317,6.483
			c0.459,0.826,1.032-0.745,0.755-1.752C96.292,178.263,93.559,174.928,90.84,173.999z"/>
		<path fill="#EEBF1B" d="M91.616,179.046c-0.552-0.458-1.971,0.918-1.144,1.562c1.517,1.339,4.244,4.055,4.775,5.347
			C96.751,184.744,93.946,180.835,91.616,179.046z"/>
		<path fill="#EEBF1B" d="M91.235,183.832c-0.664-0.158-1.322,0.951-0.721,1.304c1.286,1.088,2.663,2.473,3.688,3.801
			c0.183,0.183,0.643-0.128,0.55-0.679C94.052,186.547,92.796,184.373,91.235,183.832z"/>
		<path fill="#EEBF1B" d="M90.45,187.286c-0.367-0.096-0.771,1.017-0.31,1.475c1.398,0.852,1.792,1.827,2.88,2.973
			c0.399,0.272,0.721-0.207,0.613-0.595C93.209,189.571,91.549,187.797,90.45,187.286z"/>
		<path fill="#EEBF1B" d="M90.141,191.012c-0.918,1.582-1.675,4.465-0.389,5.207c1.264,0.508,2.246-2.24,2.527-2.976
			C91.552,192.48,90.917,191.557,90.141,191.012z"/>
	</g>
</g>
</svg>
