<?xml version="1.0" encoding="UTF-8" standalone="no"?>
<svg width="512px" height="512px" viewBox="0 0 512 512" version="1.1" xmlns="http://www.w3.org/2000/svg" xmlns:xlink="http://www.w3.org/1999/xlink" xmlns:sketch="http://www.bohemiancoding.com/sketch/ns">
    <!-- Generator: Sketch 3.1 (8751) - http://www.bohemiancoding.com/sketch -->
    <title>san-diego-chargers</title>
    <desc>Created with Sketch.</desc>
    <defs></defs>
    <g id="Page-1" stroke="none" stroke-width="1" fill="none" fill-rule="evenodd" sketch:type="MSPage">
        <g id="san-diego-chargers" sketch:type="MSArtboardGroup">
            <g id="svg" sketch:type="MSLayerGroup" transform="translate(46.000000, 142.000000)">
                <path d="M191.422881,-0.443571429 C196.032022,4.26424107 204.960109,16.4891518 204.960109,16.4891518 C88.3423729,11.1940179 27.2020581,90.2287946 27.2020581,90.2287946 L45.5758475,91.9034821 C-14.1896489,171.328438 1.84303874,228.07067 1.84303874,228.07067 C45.9174939,168.144375 74.8154358,131.310491 150.367676,102.798705 C150.367676,102.798705 143.074758,91.4629911 138.587046,86.4142857 C246.279782,76.6279911 347.594431,141.565 347.594431,141.565 C347.594431,141.565 337.753571,117.981786 335.322942,112.681518 C383.695763,153.849464 422.913075,228.39 422.913075,228.39 C427.271126,160.732009 392.424213,6.8065625 191.422881,-0.443571429" id="Fill-1" fill="#12274B" sketch:type="MSShapeGroup"></path>
                <path d="M415.129298,200.363884 C405.926453,98.3907143 337.164952,18.3928125 207.844552,7.76455357 C207.842494,7.75941964 220.38977,24.5884375 220.38977,24.5884375 C98.1235472,15.5937946 44.5550242,84.2580357 44.5550242,84.2580357 C44.5550242,84.2580357 52.8234867,85.1 59.9589588,85.6565179 C4.02669492,151.657277 7.50696126,207.14375 7.50696126,207.14375 C49.7713075,151.080223 81.2871671,123.870402 138.89885,99.2131696 C138.89885,99.2131696 132.100908,89.0777679 122.804419,80.7628571 C231.029177,64.7665625 332.551695,125.074821 332.551695,125.074821 C332.551695,125.074821 322.447397,100.849866 313.582082,87.9986161 C370.913862,121.605312 415.129298,200.363884 415.129298,200.363884" id="Fill-2" fill="#3997D3" sketch:type="MSShapeGroup"></path>
                <path d="M220.556477,15.0752679 C223.892676,19.5530804 227.355448,24.1458929 232.67155,31.3487946 C200.425061,28.5128125 117.978148,23.301875 57.9831719,79.6395536 C57.9831719,79.6395536 71.8815981,80.8983929 71.8075061,80.9979911 C51.1327482,102.962991 20.9371671,149.27308 14.5096852,188.956295 C60.1935835,127.924152 103.191646,108.650357 129.833898,96.8608036 C124.693765,90.0439732 116.037349,81.9641964 109.408172,77.3857589 C175.218341,62.6862946 260.608354,80.3367411 320.19891,111.939152 C314.158354,98.6340625 304.598426,85.0558482 297.388862,73.2529464 C355.706477,98.1340179 394.31253,157.462723 406.510956,176.26625 C399.978511,143.451205 369.931114,32.1979464 220.556477,15.0752679" id="Fill-3" fill="#F0C818" sketch:type="MSShapeGroup"></path>
            </g>
        </g>
    </g>
</svg>