<?xml version="1.0" encoding="UTF-8" standalone="no"?>
<svg width="512px" height="512px" viewBox="0 0 512 512" version="1.1" xmlns="http://www.w3.org/2000/svg" xmlns:xlink="http://www.w3.org/1999/xlink" xmlns:sketch="http://www.bohemiancoding.com/sketch/ns">
    <!-- Generator: Sketch 3.1 (8751) - http://www.bohemiancoding.com/sketch -->
    <title>seattle-seahawks</title>
    <desc>Created with Sketch.</desc>
    <defs></defs>
    <g id="Page-1" stroke="none" stroke-width="1" fill="none" fill-rule="evenodd" sketch:type="MSPage">
        <g id="seattle-seahawks" sketch:type="MSArtboardGroup">
            <g id="svg" sketch:type="MSLayerGroup" transform="translate(35.000000, 157.000000)">
                <path d="M372.36902,160.648714 C352.130245,156.609297 325.554583,155.538791 314.333603,155.538791 L47.2616176,155.593187 C30.6461029,155.593187 13.46125,155.593187 4.64305147,142.048681 C-4.30057598,128.304 0.560612745,114.776901 15.6437132,87.714 C16.7671201,85.7057143 62.5126838,-0.0783296703 62.5126838,-0.0783296703 C62.5126838,-0.0783296703 67.1862745,5.71371429 71.8936765,9.39847253 C76.5465441,13.0342747 81.3292034,14.9729341 94.0738725,14.9729341 C116.707794,14.9729341 262.734326,14.6552637 264.223113,14.6487363 C293.862512,14.6487363 323.805123,17.7057692 343.205159,38.9298462 C353.277647,40.0014396 385.789914,44.2856374 412.577169,57.0686044 C428.260147,64.5414725 438.605306,75.7034505 442.514326,89.3339011 C443.695539,93.4581758 444.28451,97.7902418 444.28451,102.286582 C444.28451,115.224033 439.423321,129.557275 429.90163,144.454055 C409.78174,175.931703 391.220441,186.93267 390.389338,187.525582 C378.956765,195.547846 367.885208,195.925352 367.885208,195.925352 C367.885208,195.925352 377.857353,184.611066 381.22212,173.295692 C384.587978,161.98467 372.366838,160.647626 372.366838,160.647626 L372.36902,160.648714" id="Fill-1" fill="#FFFFFF" sketch:type="MSShapeGroup"></path>
                <path d="M409.283297,63.9692308 C378.738627,49.4020879 339.50337,46.2536703 339.50337,46.2536703 C322.38723,25.3886044 293.460049,22.2956703 264.226385,22.2956703 C264.226385,22.2956703 116.980466,22.6187802 94.0749632,22.6187802 C67.4142279,22.6187802 64.7365931,12.0703846 64.7365931,12.0703846 L28.9958946,78.8246703 L121.810025,78.8246703 C151.019694,78.8246703 152.485576,75.9047143 171.858346,61.6944066 C192.438505,46.592011 208.86315,41.1328681 228.308995,41.1328681 C247.743934,41.1328681 260.609669,45.5008352 282.242341,55.0624945 C303.884828,64.6176264 315.380662,69.2640989 328.258395,63.8006044 C328.258395,63.8006044 318.123738,77.4560769 287.45364,64.6165385 C256.785723,51.7824396 248.577218,49.0517802 229.947206,49.0517802 C211.572414,49.0517802 190.529804,57.8453736 164.179914,84.0727582 L195.580772,109.27533 C195.580772,109.27533 188.316801,120.468857 183.533051,127.61644 C178.765662,134.762934 179.211752,139.536692 181.753051,143.024538 C184.304167,146.522176 187.515147,148.104 199.138591,148.104 C210.759853,148.104 303.914277,147.892945 314.333603,147.892945 C323.397206,147.892945 351.737598,148.736077 373.866532,153.142121 C403.247439,159.004879 384.294583,183.721154 384.294583,183.721154 C384.294583,183.721154 403.969473,170.802198 423.443676,140.346099 C445.167966,106.366253 439.812696,78.532022 409.283297,63.9681429 L409.283297,63.9692308" id="Fill-2" fill="#00295E" sketch:type="MSShapeGroup"></path>
                <path d="M355.319412,69.4436044 C341.430613,66.1287363 353.304914,58.101033 353.304914,58.101033 C333.315907,62.1317473 325.875245,78.396033 324.159596,82.9445934 C323.842206,83.5614396 323.508456,84.1913407 323.173615,84.8604066 C312.114056,107.058165 302.151728,105.869077 283.269767,105.869077 L250.928738,105.869077 C224.732635,105.869077 212.532218,118.818495 199.976238,140.873736 L214.771397,140.873736 C228.291544,120.789791 238.499277,115.374165 265.241814,113.871758 C326.355147,113.905484 375.075012,131.395846 400.816299,144.759758 C437.431728,83.4287143 383.092647,73.2763187 355.31614,69.4425165 L355.319412,69.4436044" id="Fill-3" fill="#FFFFFF" sketch:type="MSShapeGroup"></path>
                <path d="M241.577194,140.635484 C248.407071,130.334044 262.307868,126.830967 284.710564,128.116879 C340.006176,131.312077 371.796409,142.051945 396.499363,151.233923 C366.040858,133.447648 311.761765,120.629868 274.038199,120.749538 C255.597966,120.80611 239.498346,124.019802 230.041005,140.635484 L241.577194,140.635484" id="Fill-4" fill="#FFFFFF" sketch:type="MSShapeGroup"></path>
                <path d="M300.918162,79.794 C293.713088,89.8212857 284.220846,93.2471209 257.302708,91.4118132 C225.984743,89.2892967 234.064547,76.1277363 237.712892,69.647044 L237.607096,69.6394286 C238.600711,67.8052088 240.310907,64.6905165 242.038554,61.5595055 C218.041275,60.081033 200.517218,78.5059121 200.517218,78.5059121 C218.403382,96.1594615 230.336581,98.0012967 246.520184,98.0012967 L276.778002,98.0012967 C304.911164,98.0012967 311.70614,85.3739011 314.282341,79.7591868 C309.429877,80.3673297 305.057316,80.3183736 300.918162,79.7961758 L300.918162,79.794" id="Fill-5" fill="#FFFFFF" sketch:type="MSShapeGroup"></path>
                <path d="M287.261679,76.8065934 L285.505674,76.0950989 C282.746238,78.9911209 277.989755,80.6741209 273.379424,80.0822967 C267.311936,79.3066154 263.816287,74.9092747 265.539571,70.2693297 C265.788248,69.5904725 266.148174,68.9486044 266.576814,68.3382857 C263.468358,67.1230879 260.343542,65.9546703 257.297255,64.8961319 C251.066164,74.9506154 247.413456,81.6173407 269.041765,83.4352418 C282.515012,84.5840769 286.168811,82.280967 288.999142,77.4517253 C288.421078,77.2352308 287.856103,77.0437582 287.261679,76.8055055 L287.261679,76.8065934" id="Fill-6" fill="#4DBD38" sketch:type="MSShapeGroup"></path>
                <path d="M178.629326,115.018418 C167.472696,134.335385 163.042328,138.77733 170.881091,147.944077 L47.2616176,147.944077 C29.0264338,147.944077 17.1761275,147.254341 11.0748284,137.879802 C5.14694853,128.777242 6.36742647,120.091352 22.3459804,91.4292198 L127.453235,91.4292198 C145.548811,91.4292198 150.20277,92.4572967 160.021127,100.060714 C169.841667,107.667396 178.628235,115.01733 178.628235,115.01733 L178.629326,115.018418" id="Fill-7" fill="#B2B7BB" sketch:type="MSShapeGroup"></path>
            </g>
        </g>
    </g>
</svg>