<?xml version="1.0" encoding="UTF-8" standalone="no"?>
<!-- Created with Inkscape (http://www.inkscape.org/) -->

<svg
   xmlns:dc="http://purl.org/dc/elements/1.1/"
   xmlns:cc="http://creativecommons.org/ns#"
   xmlns:rdf="http://www.w3.org/1999/02/22-rdf-syntax-ns#"
   xmlns:svg="http://www.w3.org/2000/svg"
   xmlns="http://www.w3.org/2000/svg"
   xmlns:sodipodi="http://sodipodi.sourceforge.net/DTD/sodipodi-0.dtd"
   xmlns:inkscape="http://www.inkscape.org/namespaces/inkscape"
   width="325.50064"
   height="144.02084"
   id="svg4591"
   version="1.1"
   inkscape:version="0.48.4 r9939"
   sodipodi:docname="Seattle_Seahawks_Vector_Logo.svg">
  <defs
     id="defs4593" />
  <sodipodi:namedview
     id="base"
     pagecolor="#ffffff"
     bordercolor="#666666"
     borderopacity="1.0"
     inkscape:pageopacity="0.0"
     inkscape:pageshadow="2"
     inkscape:zoom="2.8"
     inkscape:cx="158.45586"
     inkscape:cy="72.010415"
     inkscape:document-units="px"
     inkscape:current-layer="layer1"
     showgrid="false"
     showguides="true"
     inkscape:guide-bbox="true"
     fit-margin-top="0"
     fit-margin-left="0"
     fit-margin-right="0"
     fit-margin-bottom="0"
     inkscape:window-width="1180"
     inkscape:window-height="928"
     inkscape:window-x="700"
     inkscape:window-y="107"
     inkscape:window-maximized="0" />
  <metadata
     id="metadata4596">
    <rdf:RDF>
      <cc:Work
         rdf:about="">
        <dc:format>image/svg+xml</dc:format>
        <dc:type
           rdf:resource="http://purl.org/dc/dcmitype/StillImage" />
        <dc:title></dc:title>
      </cc:Work>
    </rdf:RDF>
  </metadata>
  <g
     inkscape:label="Layer 1"
     inkscape:groupmode="layer"
     id="layer1"
     transform="translate(-212.24968,-460.35175)">
    <g
       id="g5932"
       transform="matrix(1.25,0,0,1.25,-93.750001,-133.09055)">
      <path
         id="path3582"
         style="fill:#ffffff;fill-opacity:1;fill-rule:nonzero;stroke:none"
         d="m 463.0329,569.23257 c -11.86707,-2.37366 -27.44813,-3.00294 -34.02772,-3.00294 l -156.59301,0.033 c -9.74244,0 -19.81813,0 -24.9878,-7.96326 -5.24414,-8.07922 -2.39442,-16.03027 6.44958,-31.93848 0.65858,-1.18041 27.48108,-51.60705 27.48108,-51.60705 0,0 2.73987,3.40515 5.5011,5.57129 2.72705,2.13745 5.53162,3.27636 13.00415,3.27636 13.27149,0 98.89039,-0.18615 99.76442,-0.19042 17.37853,0 34.93468,1.79748 46.3092,14.27367 5.90698,0.62989 24.96887,3.1482 40.67626,10.66224 9.19556,4.3927 15.26001,10.95398 17.5525,18.96668 0.69152,2.4237 1.0376,4.9707 1.0376,7.61352 0,7.60498 -2.84974,16.03028 -8.43324,24.78699 -11.79687,18.50281 -22.67882,24.9707 -23.16711,25.3186 -6.70226,4.71618 -13.19519,4.93775 -13.19519,4.93775 0,0 5.84656,-6.65039 7.82044,-13.30262 1.97387,-6.64794 -5.19226,-7.43529 -5.19226,-7.43529 z"
         inkscape:connector-curvature="0" />
      <path
         id="path3584"
         style="fill:#00295e;fill-opacity:1;fill-rule:nonzero;stroke:none"
         d="M 484.67596,512.40212 C 466.76702,503.8401 443.76348,501.9883 443.76348,501.9883 433.72686,489.72389 416.76702,487.90504 399.6247,487.90504 c 0,0 -86.33363,0.19044 -99.76442,0.19044 -15.63233,0 -17.20275,-6.20056 -17.20275,-6.20056 l -20.9552,39.23888 c 0,0 37.29614,0 54.42016,0 17.12585,0 17.98523,-1.71508 29.34509,-10.06957 12.06604,-8.87695 21.69678,-12.0868 33.09815,-12.0868 11.39527,0 18.93982,2.56775 31.62354,8.18909 12.6892,5.61646 19.43054,8.3484 26.97998,5.13611 0,0 -5.94178,8.02735 -23.92518,0.48035 -17.98095,-7.54456 -22.79419,-9.14979 -33.71765,-9.14979 -10.77331,0 -23.11279,5.16908 -38.5614,20.58655 l 18.41186,14.81445 c 0,0 -4.26025,6.5796 -7.0642,10.78186 -2.79602,4.20044 -2.5354,7.00684 -1.0437,9.05702 1.49535,2.05688 3.37768,2.98645 10.19348,2.98645 6.81396,0 61.4325,-0.12388 67.54272,-0.12388 5.31434,0 21.93238,0.49499 34.90602,3.08594 17.22716,3.44604 6.11388,17.97485 6.11388,17.97485 0,0 11.53564,-7.5946 22.95593,-25.49744 12.73682,-19.97375 9.59717,-36.33484 -8.30505,-44.89685 z"
         inkscape:connector-curvature="0" />
      <path
         id="path3586"
         style="fill:#ffffff;fill-opacity:1;fill-rule:nonzero;stroke:none"
         d="m 453.03595,515.6205 c -8.14393,-1.94885 -1.18043,-6.66687 -1.18043,-6.66687 -11.72057,2.36939 -16.08215,11.92932 -17.08861,14.60327 -0.18678,0.36255 -0.38148,0.73303 -0.57801,1.12672 -6.48438,13.04809 -12.32483,12.34985 -23.39722,12.34985 -4.50866,0 -11.27502,0 -18.9624,0 -15.3595,0 -22.51282,7.61109 -29.87548,20.57617 l 8.67553,0 c 7.92785,-11.80542 13.91358,-14.98841 29.59168,-15.87281 35.83374,0.0207 64.39819,10.30153 79.4928,18.15735 21.4685,-36.05164 -10.39308,-42.02026 -26.67786,-44.27367 z"
         inkscape:connector-curvature="0" />
      <path
         id="path3588"
         style="fill:#ffffff;fill-opacity:1;fill-rule:nonzero;stroke:none"
         d="m 386.34466,557.46864 c 4.00574,-6.05529 12.15515,-8.11401 25.29236,-7.3584 32.42065,1.87866 51.06018,8.19154 65.54383,13.58826 -17.8595,-10.45471 -49.68384,-17.9895 -71.80298,-17.9187 -10.81116,0.033 -20.25086,1.922 -25.79712,11.68884 l 6.76391,0 z"
         inkscape:connector-curvature="0" />
      <path
         id="path3590"
         style="fill:#ffffff;fill-opacity:1;fill-rule:nonzero;stroke:none"
         d="m 421.13897,521.70509 c -4.22485,5.89478 -9.79004,7.90773 -25.57372,6.82862 -18.36243,-1.24694 -13.62367,-8.98438 -11.48622,-12.79297 0,0 -0.0457,0 -0.0623,-0.006 0.5841,-1.07727 1.5863,-2.90772 2.59949,-4.74915 -14.07105,-0.86975 -24.3457,9.96155 -24.3457,9.96155 10.48766,10.37659 17.48413,11.45935 26.97388,11.45935 3.29895,0 7.98583,0 17.74047,0 16.49414,0 20.47913,-7.42249 21.99096,-10.72205 -2.84545,0.35645 -5.40953,0.32777 -7.83691,0.0208 z"
         inkscape:connector-curvature="0" />
      <path
         id="path3592"
         style="fill:#4dbd38;fill-opacity:1;fill-rule:nonzero;stroke:none"
         d="m 413.13238,519.94912 c -0.3357,-0.13673 -0.6836,-0.27772 -1.02966,-0.41809 -1.61744,1.70226 -4.40735,2.69225 -7.10999,2.34435 -3.55835,-0.45593 -5.60852,-3.04076 -4.59777,-5.76843 0.14526,-0.39917 0.35644,-0.77637 0.60912,-1.13465 -1.82251,-0.71471 -3.65538,-1.40197 -5.44067,-2.02331 -3.65356,5.91065 -5.79529,9.8291 6.88599,10.89783 7.89917,0.67505 10.04272,-0.67932 11.70166,-3.51684 -0.33935,-0.12818 -0.67078,-0.23988 -1.01868,-0.38086 z"
         inkscape:connector-curvature="0" />
      <path
         id="path3594"
         style="fill:#b2b7bb;fill-opacity:1;fill-rule:nonzero;stroke:none"
         d="m 349.43792,542.41005 c -6.54235,11.35559 -9.1394,13.96545 -4.54406,19.35425 0,0 -59.25966,0 -72.48169,0 -10.69093,0 -17.63978,-0.40406 -21.21644,-5.91492 -3.47718,-5.35156 -2.76061,-10.45715 6.60889,-27.3053 0,0 51.02112,0 61.6272,0 10.61035,0 13.33801,0.60486 19.09546,5.07386 5.75805,4.47204 10.91064,8.79211 10.91064,8.79211 z"
         inkscape:connector-curvature="0" />
    </g>
  </g>
</svg>
