<svg xmlns="http://www.w3.org/2000/svg" width="512" height="512" viewBox="0 0 512 512"><g><g><path fill="#fff" d="M395.4 314.7c-18.6-3.7-42.9-4.7-53.2-4.7h-244.9c-15.2 0-31 0-39.1-12.5-8.2-12.6-3.7-25.1 10.1-49.9 1-1.8 43-80.7 43-80.7s4.3 5.3 8.6 8.7c4.3 3.3 8.7 5.1 20.3 5.1 20.8 0 154.6-.3 156-.3 27.2 0 54.6 2.8 72.4 22.3 9.2 1 39 4.9 63.6 16.7 14.4 6.9 23.9 17.1 27.4 29.7 1.1 3.8 1.6 7.8 1.6 11.9 0 11.9-4.5 25.1-13.2 38.8-18.4 28.9-35.5 39-36.2 39.6-10.5 7.4-20.6 7.7-20.6 7.7s9.1-10.4 12.2-20.8c3.2-10.4-8-11.6-8-11.6z"/><path fill="#00295E" d="M429.3 225.8c-28-13.4-64-16.3-64-16.3-15.7-19.2-42.2-22-69-22 0 0-135 .3-156 .3-24.4 0-26.9-9.7-26.9-9.7l-32.8 61.4h85.1c26.8 0 28.1-2.7 45.9-15.7 18.9-13.9 33.9-18.9 51.8-18.9 17.8 0 29.6 4 49.4 12.8 19.8 8.8 30.4 13.1 42.2 8 0 0-9.3 12.6-37.4.8-28.1-11.8-35.6-14.3-52.7-14.3-16.8 0-36.1 8.1-60.3 32.2l28.8 23.2s-6.7 10.3-11 16.9c-4.4 6.6-4 11-1.6 14.2 2.3 3.2 5.3 4.7 15.9 4.7 10.7 0 96.1-.2 105.6-.2 8.3 0 34.3.8 54.6 4.8 26.9 5.4 9.6 28.1 9.6 28.1s18-11.9 35.9-39.9c19.8-31.4 14.8-57-13.1-70.4z"/><path fill="#fff" d="M379.8 230.8c-12.7-3-1.8-10.4-1.8-10.4-18.3 3.7-25.1 18.7-26.7 22.8-.3.6-.6 1.1-.9 1.8-10.1 20.4-19.3 19.3-36.6 19.3h-29.7c-24 0-35.2 11.9-46.7 32.2h13.6c12.4-18.5 21.8-23.4 46.3-24.8 56 0 100.7 16.1 124.3 28.4 33.5-56.4-16.4-65.7-41.8-69.3zM275.5 296.3c6.3-9.5 19-12.7 39.5-11.5 50.7 2.9 79.8 12.8 102.5 21.2-27.9-16.3-77.7-28.1-112.3-28-16.9.1-31.7 3-40.3 18.3h10.6zM329.9 240.3c-6.6 9.2-15.3 12.4-40 10.7-28.7-2-21.3-14-18-20h-.1c.9-1.7 2.5-4.5 4.1-7.4-22-1.4-38.1 15.6-38.1 15.6 16.4 16.2 27.3 17.9 42.2 17.9h27.7c25.8 0 32-11.6 34.4-16.8-4.4.6-8.4.5-12.2 0z"/><path fill="#4DBD38" d="M317.4 237.6l-1.6-.7c-2.5 2.7-6.9 4.2-11.1 3.7-5.6-.7-8.8-4.8-7.2-9 .2-.6.6-1.2 1-1.8-2.8-1.1-5.7-2.2-8.5-3.2-5.7 9.2-9.1 15.4 10.8 17 12.4 1.1 15.7-1.1 18.3-5.5-.7-.1-1.2-.3-1.7-.5z"/><path fill="#B2B7BB" d="M217.8 272.7c-10.2 17.8-14.3 21.8-7.1 30.3h-113.4c-16.7 0-27.6-.6-33.2-9.3-5.4-8.4-4.3-16.4 10.3-42.7h96.4c16.6 0 20.9.9 29.9 7.9 9 7.1 17.1 13.8 17.1 13.8z"/></g></g></svg>