<svg width="512" height="512" viewBox="0 0 512 512" xmlns="http://www.w3.org/2000/svg" xmlns:sketch="http://www.bohemiancoding.com/sketch/ns"><title>st-louis-rams</title><desc>Created with Sketch.</desc><g sketch:type="MSLayerGroup" fill="none"><path d="M351.024 397.63c.126-.028 9.742-2.487 9.742-2.487 11.947-2.98 19.549-4.946 24.01-7.071 0-.01 3.902-1.892 3.902-1.892l2.239-3.715c.649-1.08 15.555-26.258 22.92-61.295 2.084-1.89 9.887-8.993 9.887-8.993l.22-2.35.298-3.209c.273-2.886.403-5.802.403-8.702 0-5.227-.432-10.666-1.27-16.192 17.237-9.59 24.702-23.465 29.271-34.732 3.731-9.192 5.6-19.516 5.6-30.233 0-10.577-1.828-21.539-5.451-32.142-5.879-17.163-19.219-41.368-49.423-59.198-18.813-11.11-45.311-15.814-70.935-12.6-29.75 3.726-55.363 17.784-72.117 39.561-1.303 1.701-2.546 3.508-3.738 5.37l-.58.103c-95.001 14.796-170.321 76.656-173.476 79.277l-27.267 22.637 35.321 2.842c62.253 5.009 106.321 26.786 132.322 44.173 28.483 19.053 42.192 37.142 42.327 37.328l9.19 12.517 11.82-10.14c2.005-1.729 3.816-3.696 5.457-5.871l.406.362 2.668 2.228c1.763 1.422 3.2 2.638 5.029 4.696.443 1.004.712 2.125.712 3.403 0 3.184-.389 4.093-1.236 6.074l-.418.956c-1.012 2.423-2.92 5.924-2.953 5.966l-2.89 5.295 52.59 29.545" fill="#fff" sketch:type="MSShapeGroup"/><path d="M297.596 326.6l.615.542-.026-.178-.588-.364zm89.05-86.689l-.876.881.522-.506.354-.375z" fill="#13264B" sketch:type="MSShapeGroup"/><path d="M400.253 130.677c-33.672-19.886-100.11-20.048-135.093 25.432-1.748 2.288-3.37 4.68-4.863 7.154-1.511.3-2.655.512-3.321.625-93.277 14.527-167.437 75.367-170.549 77.95l-15.706 13.04 20.347 1.636c123.308 9.919 178.513 83.201 179.053 83.953l5.323 7.222 6.798-5.845c3.722-3.203 6.279-6.967 8.081-10.633 1.664 1.52 3.54 3.182 5.806 5.18 3.099 2.702 5.442 4.088 8.896 8.201 1.165 2.174 1.596 4.509 1.596 6.711 0 5.013-.965 6.626-2.122 9.383-1.147 2.759-3.221 6.546-3.221 6.546l45.122 25.332 3.044-.844 9.805-2.517c11.267-2.794 18.956-4.79 22.876-6.656l2.259-1.093 1.292-2.139c.643-1.094 15.621-26.478 22.57-61.33 2.467-2.255 9.615-8.746 9.615-8.746l.304-3.196c.242-2.745.364-5.452.364-8.132 0-6.779-.745-13.4-1.926-19.569 17.89-8.459 25.48-21.57 30.381-33.655 12.998-32.07 2.628-84.862-46.732-114.011" fill="#C9AF74" sketch:type="MSShapeGroup"/><path d="M435.311 181.997c-28.532-68.982-106.912-55.208-106.912-55.208l.619-.058c4.014-.323 27.24-1.664 50.511 7.942 20.434 8.435 43.259 29.443 48.78 57.203 1.312 6.595 1.823 12.703 1.823 18.229l-.006 1.397c-.257 17.003-5.371 28.432-7.104 32.014-2.323 4.823-8.055 11.91-11.927 14.733-3.249 2.385-6.249 3.385-8.538 3.385-.443 0-.848-.045-1.226-.119h-.024c-.386-.062-.758-.178-1.087-.324-2.161-.986-2.902-3.576-7.848-10.515-3.273-4.619-7.433-9.073-7.433-9.073.41-.355.782-.746 1.163-1.12l.545-.587c.452-.482.872-1.032 1.301-1.6 1.197-1.633 2.216-3.535 3.026-5.686l.085-.245c.265-.69.481-1.4.698-2.119 4.01-14.294-.419-36.424-18.413-50.821-19.124-15.313-39.799-16.58-56.546-9.866-28.188 11.301-45.241 45.223-25.112 72.965 9.758 13.457 25.623 14.322 35.479 6.775 9.228-7.083 15.424-28.741-7.29-40.343 18.248-1.545 40.392 20.22 29.494 48.316-.801 2.054-1.743 3.97-2.788 5.763-15.802 26.637-58.932 23.683-79.664-1.089-20.196-24.129-23.628-56.479-13.93-83.407.705-1.953 1.489-3.905 2.338-5.804-83.314 18.007-137.218 68.394-137.218 68.394 116.487 24.174 158.719 94.42 158.719 94.42 4.317-3.71 6.661-8.689 7.975-12.789-8.08-13.231-4.541-25.629-4.541-25.629 1.767 8.91 5.022 15.442 8.27 20.124 1.395 1.945 7.812 8.242 9.065 9.342l.588.363.025.179c5.839 5.163 12.77 10.986 14.002 13.203 6.27 11.272-.277 24.068-.277 24.068l35.257 19.316c7.861-2.218 26.262-6.244 31.338-8.677 0 0 15.63-26.131 22.117-61.391l9.24-8.4c3.419-9.686-2.625-30.858-2.625-30.858.746-.191 1.516-.413 2.286-.68 1.835-.61 3.67-1.428 5.506-2.44 19.968-11.063 38.326-45.663 20.259-89.283" fill="#13264B" sketch:type="MSShapeGroup"/><path d="M430.13 210.106c0-5.528-.51-11.635-1.823-18.228-5.521-27.761-28.345-48.77-48.78-57.203-23.272-9.607-46.497-8.264-50.511-7.943-.946.119-1.907.236-2.846.365-31.711 4.489-50.987 27.14-50.987 27.14 28.698-22.435 71.787-25.083 100.297-13.396 28.484 11.694 49.194 35.404 54.642 70.664l.008-.317.001-1.081zm-92.582 138.451c.3-1.422 4.395-1.708 4.395-1.708 2.905 10.282-1.601 16.882-1.873 17.864-.219-4.675.61-13.326-2.522-16.157zm-70.632-86.608c-20.196-24.127-23.628-56.479-13.93-83.405-5.794 8.918-19.093 35.382-2.636 71.829 19.963 44.194 74.599 45.942 92.976 18.28 1.243-1.874 2.319-3.755 3.255-5.612-15.803 26.636-58.933 23.681-79.665-1.092zm104.839 40.227c0-3.642 2.943-6.601 6.592-6.601l.348.02c-.778-3.654-2.405-7.645-5.474-11.567 0 0 .245 3.909-.594 7.256-3.365 1.784-5.664 5.295-5.664 9.381 0 5.841 4.755 10.583 10.605 10.583 0 0 .388-.907.805-2.473h-.026c-3.648.003-6.591-2.955-6.591-6.599z" fill="#fff" sketch:type="MSShapeGroup"/><path d="M379.09 305.059l-.217.507c-1.334.545-3.596.061-4.472-2.051 2.463 1.448 4.354-.099 4.861-.566l.15-.137s.103 1.033-.322 2.248" fill="#13264B" sketch:type="MSShapeGroup"/><path d="M379.414 302.813l-.152.135c-.505.468-2.397 2.017-4.861.569.877 2.112 3.14 2.595 4.474 2.05l.218-.507c.422-1.217.322-2.248.322-2.248zm20.4-1.751c.82-33.492-27.145-55.774-27.145-55.774s20.499 25.556 18.116 55.606l-5.578 5.199c.09 8.158-.294 23.642-8.193 40.995-8.184-14.798-26.236-24.598-33.674-26.36-5.061 2.848-16.29 9.026-22.838 16.289 1.146 1.573 2.751 5.83 2.996 7.216 1.487 8.232.367 14.205-.913 18.519.018.016 12.502 6.986 12.325 6.641 3.418-11.828-1.129-17.161-4.597-23.233 3.372-2.05 11.215-6.443 14.873-7.968 3.699 5.094 5.601 13.525 1.626 25.524-1.197 3.593-2.926 7.252-3.967 9.781.014.131 4.874 2.725 4.846 2.569 6.315-1.27 12.09-5.59 14.323-11.649.668-1.801.371-3.191.154-4.607-.622.793-1.471 2.05-2.495 2.748-1.619-3.752-1.641-6.741.41-8.992 1.057-1.163 2.244-1.589 3.662-1.636 2.097-.072 3.785 1.284 4.45 2.885 3.137 7.707-4.136 15.811-4.136 15.811s6.959-.32 8.964-1.3c4.1-8.279 16.783-35.265 20.382-62.506l6.408-5.758z" fill="#fff" sketch:type="MSShapeGroup"/></g></svg>