<?xml version="1.0" encoding="utf-8"?>
<!-- Generator: Adobe Illustrator 12.0.0, SVG Export Plug-In . SVG Version: 6.00 Build 51448)  -->
<!DOCTYPE svg PUBLIC "-//W3C//DTD SVG 1.1//EN" "http://www.w3.org/Graphics/SVG/1.1/DTD/svg11.dtd" [
	<!ENTITY ns_svg "http://www.w3.org/2000/svg">
	<!ENTITY ns_xlink "http://www.w3.org/1999/xlink">
]>
<svg  version="1.1" id="TAMPA_BAY_BUCCANEERS" xmlns="&ns_svg;" xmlns:xlink="&ns_xlink;" width="218.295" height="200"
	 viewBox="0 0 218.295 200" overflow="visible" enable-background="new 0 0 218.295 200" xml:space="preserve">
<g>
	<g>
		<g>
			<g id="XMLID_2_">
				<g>
					<path d="M214.367,0c0,0,3.931,11.28,3.931,27.46s-4.46,26.36-5.551,30.35c0,0-1.279,2.08-3.3,3.41l2.32,1.9
						c0,0-4.91,14.84-9.19,23.94c-4.689,9.94-15.63,29.47-24.18,36.17l-27.5,44.579c0,0-6.19,0.931-10.29-2.369
						c-4.11-3.29-3.88-6.471-3.88-6.471l16.65-24.8c0,0-5.49,0.93-12.66,0.93s-24.221-0.649-46.19-10.59
						c-21.96-9.93-32.89-15.43-48.84-15.43c-14.57,0-31.03,11.15-35.77,30.28c0,0-9.92-11.86-9.92-26.73s14.1-25.43,19.65-28.32
						c5.73-2.99,7.56-5.66,7.56-9.74c0-5-4.83-12.08-11.58-18.24l16.08-5.5l-3.16-4.42c0,0,10.74,1.92,19.74-9.08
						c0,0-6.16-0.58-27.9,9.41c0.17-0.51,6.13-16.72,33.39-29.97C81.467,3.3,104.237,7,128.928,17c24.68,10,31.38,13.18,47.46,13.18
						c16.069,0,27.859-5.78,33.41-9.54C209.798,20.64,213.037,10.4,214.367,0z"/>
					<path d="M153.928,166.98c0,0,3.72,6.47-0.261,16.729c-3.979,10.271-15.229,20.71-30.1,14.34c0,0-0.92,1.86-2.89,1.82
						c-1.971-0.04-3.03-1.73-3.11-2.561c-0.08-0.829,0.08-1.89,0.67-2.399c0,0-4.21-3.97-4.52-5.74c-0.32-1.77,0.31-2.28,0.63-2.479
						c0.31-0.19,1.3-0.19,2.24,0.79c0.939,0.979,1.319,1.449,1.319,1.449l13.01-20.18c0,0-4.35-5.13-4.17-11.24
						c0,0,3.811-3.27,9.74-1.24c0,0-3.71,2.12-0.53,7.351c3.19,5.22,10.271,6.37,11.69,6.46
						C149.058,170.17,153.397,169.9,153.928,166.98z M144.588,189.81c4.319-7.06,2.329-13.22,2.329-13.22
						c-1.649,0.22-3.689-0.27-3.689-0.27l-13.43,19.6C132.027,196.55,140.268,196.86,144.588,189.81z"/>
					<path fill="#FFFFFF" d="M146.917,176.59c0,0,1.99,6.16-2.329,13.22c-4.32,7.051-12.561,6.74-14.79,6.11l13.43-19.6
						C143.228,176.32,145.268,176.81,146.917,176.59z"/>
				</g>
				<g>
				</g>
			</g>
			<path fill="#BFC0C0" d="M145.289,161.614c0,0-2.399,0.054-3.377-2.773l17.813-26.038l5.772-1.691L145.289,161.614z"/>
			<path fill="#B21E35" d="M7.878,123.518c0,0-8.319-11.679,5.842-26.817c0,0,7.165-3.572,14.969-2.128
				c0,0-12.775,2.368-15.606,12.949c0,0,6.706-11.501,28.15-10.463c0,0-6.011-7.396-19.999-6.011c0,0,3.061-3.698,15.26-5.32
				c0,0-6.012-1.04-10.637,0.175c0,0,6.532-4.278,6.532-13.121c0-8.845-8.67-14.854-8.67-14.854s6.011-2.779,13.642-4.398
				c0,0-1.214-3.235-3.18-4.448c0,0,13.934,0.692,21.562-16.304c0,0-1.802-0.894-3.94-0.894c-3.64,0-10.916,1.647-19.414,5.691
				c0,0,5.182-6.232,19.753-13.515c14.564-7.283,24.613-7.417,24.613-7.417s3.644-0.072,5.603,0.941c0,0-6.813,0.205-17.806,5.396
				c0,0,7.854-1.348,14.903-1.348c5.395,0,11.63,1.69,15.257,3.107c0,0-2.3-4.25-9.293-5.49c0,0,1.063-0.973,4.957-0.973
				c4.425,0,11.152,3.543,11.152,3.543s-2.654-3.81-8.939-5.843c0,0,14.278-1.355,38.77,8.673
				c22.483,9.208,31.16,10.623,44.436,10.623c14.693,0,31.333-6.2,38.236-10.799c0,0,0.515,3.769-0.225,8.015
				c-0.804,4.619-4.113,7.856-21.033,8.017c0,0,9.444,4.379,18.766,2.431c0,0-1.627,9.041-6.641,22.635
				c-3.871,10.509-10.496,25.328-19.223,39.202c-2.916,4.64-5.216,8.254-9.173,12.891c0,0-7.437,3.295-15.401,5.773
				c0,0,3.717-4.25,3.896-7.082c0,0-6.906,6.903-13.632,9.736c0,0-6.551,2.301-18.234,2.301c-36.647,0-59.5-24.781-90.835-24.781
				C16.8,103.605,7.878,123.518,7.878,123.518z M127.543,194.254c0,0-3.517,0.816-6.708-3.507c0,0-0.463-0.39,0.178-1.384
				l12.014-18.621c0,0,2.889,2.576,8.143,4.771c0,0-3.516,0.715-6.796-1.533c0,0-0.447,2.885,2.831,4.811
				c0,0-3.604,0.08-5.484-1.266c0,0-0.507,2.791,3.188,4.863c0,0-3.515,0.952-5.62-0.631c0,0-0.539,2.063,2.697,4.444
				c0,0-3.516,0.271-5.664-0.627c0,0,0.133,2.788,3.013,4.682c0,0-3.694,0.324-5.623-0.851
				C123.711,189.406,123.547,191.777,127.543,194.254z"/>
		</g>
		<path d="M85.861,103.584l-0.313,0.439l-2.583,1.457l-3.821,1.196l-6.767,0.238l-2.292-1.187l-1.287-0.235l-0.44-0.306l-0.68,0.203
			c0,0-3.272-2.339-5.595-3.338l-1.749-2.394l-0.07-0.274l-0.371-0.104c0,0,0.203-0.559-0.068-1.406s-0.677-2.087-0.677-2.087
			l-0.394-0.033l-0.95-1.289l0.782-3.239l3.002-3.104l0.9-1.514l0.339-0.065v-0.339l2.355-1.557l3.005,0.065l1.253,0.544
			l0.237,1.049l0.576,1.24l0.325,0.169l3.646,0.07l2.087,0.472l1.492-0.306l1.443-1.375c0,0-1.581-2.473-3.872-4.358
			c0,0-2.288-4.412-3.033-5.122l-0.612-0.948L69.1,70.82l1.816-1.276c0,0-1.139-0.303-2.291-0.303l-1.476-3.746l-0.204-3.139
			l0.103-5.53c0,0,0.223-2.851,0.627-4.14c0.406-1.285,1.154-3.033,1.256-5.665l1.849-3.069l0.643-2.631
			c0,0,0.069-0.301,0.374-0.676c0,0,2.326-2.913,2.764-4.225l2.188-2.39c0,0,0.273-0.476,3.815-2.628l-0.878,3.001
			c0,0,0.033,3.477-0.44,5.495c-0.311,1.312-0.798,2.069-0.798,2.069l0.064,3.291c0,0-0.249,5.021,1.142,8.974
			c0,0,1.504,3.257,1.897,4.85c0,0,1.936,4.545,3.461,8.175c0,0,0.76,1.965,4.46,5.834l3.562,3.767c0,0,3.071,1.849,3.951,2.694
			c0,0-0.372-0.629-0.44-1.106c-0.068-0.473-0.101-2.231-0.101-2.231s-0.87-0.833-0.87-1.784l2.697-8.056c0,0-2.9-3.477-2.37-8.464
			l0.983-0.032c0,0,0.271,0,0.201-0.202l-1.118-1.426l0.443-8.058l1.285,0.476c0,0,0.624-1.085,0.813-3.037
			c0.19-1.948,0.394-4.208,3.799-7.683c0.545-0.551,3.784-5.544,9.042-6.917c5.26-1.377,8.022-2.462,8.022-2.462l2.294,0.342
			c0,0,2.473-1.211,6.919-1.211c4.442,0,6.531,1.121,8.086,2.26c1.562,1.139,8.363,6.498,8.536,6.937c0.166,0.44,0,0.78,0,0.78
			s0.404,0.811,3.27,3.442c0,0,0.731,0.745,1.409,2.662c0.681,1.921,0.646,2.561,0.646,2.561s-0.1,0.833-0.307,1.544
			c0,0,0.307,0.68,0.307,1.051c0,0.375-0.928,4.589-3.172,7.651c-0.592,0.813-1.44,1.335-1.541,2.035l2.015,0.271
			c0,0-2.374,3.438-5.19,6.82c-1.197,1.95-2.959,3.558-4.207,4.517c0,0-0.525-0.314-1.502-0.09l0.047,1.197
			c0,0-3.233,2.08-3.94,2.345c0,0-2.213,5.312-3.718,7.921l-1.99,0.93c0,0-1.02,0.663-1.775,1.813l-2.609,1.463
			c0,0,10.181-2.26,12.481-3.01c2.3-0.753,2.345-1.285,3.718-1.683c1.373-0.396,3.453-0.799,3.453-0.799s2.434-1.591,2.655-1.634
			c0.216-0.043,1.546,0.31,1.947,0.53l0.131-1.945c0,0,2.303-1.373,3.542-2.126c1.236-0.753,2.923-2.566,4.16-3.452
			c1.24-0.883,2.742-1.681,3.232-2.082c0.483-0.398,5.865-5.188,8.362-9.159c0.753-1.197,1.417-2.965,1.417-2.965l2.566-1.907
			c0,0,0.043-1.103,0.619-1.99c0.574-0.887,1.947-2.7,1.947-2.7s0.223,0.177,0.4,1.108c0.177,0.928,0.486,1.285,0.486,1.285
			s0.043,2.119,0.262,3.271l-0.485,2.125l-0.133,2.918c0,0-0.838,1.685-1.283,2.835c-0.442,1.15-0.707,3.41-0.707,3.41l-1.989,3.275
			c0,0-1.242,3.495-3.363,6.194c-2.127,2.702-4.25,5.312-4.25,5.312l-1.946,2.038l-3.233,2.167c0,0-0.354,0.213-1.106,0.753
			c-0.418,0.301-1.196,0.89-1.546,1.146c-0.186,0.137-0.486,0.202-1.196,0.581c-2.556,1.344-8.228,4.257-13.278,6.993
			c0,0-0.884,0.396-1.813,0.573c-0.931,0.18-2.749,0.31-2.704,0.973c0.047,0.667,0.357,1.73,0.357,1.73s0.178,0.62,1.24,1.015
			c0,0,0.663-0.133,1.637,0.177c0.973,0.312,1.815,0.972,1.815,0.972s1.24,0.224,1.856,0.534c0,0,0.443-0.269,0.973-0.574
			c0.534-0.311,1.152-0.799,1.287-1.108l1.723-0.045c0,0,1.594,0.665,2.48,0.888c0,0,0.572,1.637,0.93,2.256l-0.088,0.443
			l0.175,0.176l-0.263,1.729c0,0,0.352,2.832,0.263,3.803c0,0-0.973,2.082-1.413,2.966c0,0-1.463,0.621-1.727,0.797l-0.268-0.135
			c0,0-3.053,1.727-3.23,2.702l-0.441-0.088c0,0,0.133,0.176-0.09,0.22c-0.218,0.047-3.273,1.461-3.273,1.461
			s-3.762,0.047-7.039,0.713l-0.577-0.4l-1.06,0.043c0,0-0.268-0.443-3.584-0.043c0,0-4.692-2.395-5.355-2.613l-2.48-2.52
			l-0.484-0.668l-0.4-0.84l-0.354-0.8c0,0-0.133-0.173-0.664-0.04c-0.53,0.131-2.168,0.354-4.25,1.104c0,0-3.186-0.131-5.353,0.443
			c0,0-2.259-0.443-4.781-0.308c0,0-2.302-0.312-2.657-0.312c0,0-3.981-1.685-6.24-2.123c0,0-0.971-0.357-1.283-0.579
			c-0.309-0.22-1.374-1.197-3.406-2.345C89.269,106.48,87.497,104.65,85.861,103.584z"/>
		<path fill="#DB6126" d="M93.769,93.169c0,0,3.743-0.373,4.921-0.322l0.692-0.746l0.214-1.28l2.673-0.108
			c0,0-0.434,1.441-0.858,1.816c0,0-0.182,0.234,0.188,0.234c0.365,0,2.362,0.032,2.362,0.032s0.286-0.061,0.346-0.277
			c0.064-0.214,0.245-1.319,0.677-1.503c0.428-0.186,1.102-0.123,1.102-0.123l1.116,0.214l0.154,0.121l-0.217,0.705l-0.683,0.802
			c0,0-0.094,0.209,0.153,0.209c0.246,0,1.88,0.352,2.372,0.566c0,0,0.433,0.216,0.554-0.031c0.123-0.245,0.274-0.683,0.274-0.683
			l-0.029-0.892c0,0,0.008-0.214,0.375-0.214c0.371,0,1.63,0.429,1.875,0.646c0,0,0.15,0.173,0.031,0.551
			c-0.125,0.375-0.401,1.114-0.584,1.388l2.094,1.045c0,0,0.396-0.582,0.767-0.829l0.187-1.103c0,0-0.032-0.31,0.334-0.153
			c0.371,0.153,1.76,0.889,1.76,0.889s0.123,0.123,0.033,0.337c-0.094,0.216-0.373,1.137-0.373,1.137s-0.06,0.134-0.273,0.224
			c-0.212,0.09-0.309,0.492-0.123,0.642l3.141,1.781l-3.078-1.074c0,0-0.215-0.027-0.274,0.094l-0.595,1.105
			c0,0-1.114,0.092-2.408-0.092c0,0,0.076-0.728,0.66-1.934l-2.094-0.745l-0.832,0.898l-0.276,1.409c0,0-0.713,0.216-1.422,0.216
			c-0.705,0-1.165-0.305-1.165-0.305l0.52-1.537c0,0,0.216-0.928,0.645-1.298c0,0-0.059-0.429-2.462-0.644
			c0,0-0.798,1.137-1.258,3.016c0,0-1.115,0.194-2.311-0.765l0.335-1.085l0.645-0.796v-0.674c0,0-1.386-0.281-2.369-0.244
			c0,0-0.618,0.294-0.859,1.501l-0.187,0.836l-1.196-0.184l-1.116-0.808c0,0,0.287-1.013,0.715-1.319c0,0,0.146-0.216-0.099-0.245
			C98.293,93.539,93.769,93.169,93.769,93.169z M94.36,102.734c0,0,6.73,3.957,9.569,4.588c3.352,0.742,2.171-2.997,2.171-2.997
			s4.131,1.938,9.045,1.938c4.918,0,9.246-1.979,10.691-3.154c1.439-1.176,0,0,0,0s-0.107-1.766-0.377-2.351
			c-0.268-0.588-1.443-2.351-1.761-3.207c-0.321-0.854-1.82-2.298-1.82-2.298s-4.646-3.637-6.038-4.326
			c-1.392-0.699-3.046-1.393-3.688-1.766c-0.643-0.375-1.709-0.589-1.709-0.589l-1.393-0.319c0,0-1.174-0.108-1.815-0.267
			c0,0-2.459-0.108-3.367-0.321c0,0-0.641,0.054-0.909,0.054c0,0-1.659,0.481-4.704,0.534c0,0-5.236,1.658-7.162,2.138
			c0,0-0.536,0.106-1.604,0.8c0,0-2.352,1.229-3.313,1.496c0,0-0.691,0.269-0.907,0.856l-1.017,0.962l0.107,2.031
			c0,0,1.816,2.35,2.243,3.473c0,0,4.387,4.277,5.291,5.398c0,0,2.086,0.91,2.513,1.279c0,0,0.859-0.106,0.859-1.065
			C95.268,104.659,94.36,102.734,94.36,102.734z"/>
		<path fill="#FFFFFF" d="M100.583,77.244c0,0,0.274-1.84,0.992-3.152c0.723-1.312,0.8-5.825,0.8-5.825s0.566,1.042,1.28,3.99
			c0,0,0.399,2.678,0.282,3.435l0.157,0.238l1.753-1.838l2.355,1.159c0,0,0.158,0.047,0.078,0.597
			c-0.078,0.559-0.359,2.354-0.359,2.354l2.271-2.311l2.633,0.955c0,0,0.16,0.08,0.119,0.599s-0.041,2.392-0.041,2.392l2.201-2.475
			l2.916,0.162c0,0,0.078,0.161,0.119,0.402c0.037,0.238,0.237,2.356,0.237,2.356l1.554-2.397l0.197-0.16l2.913-0.081l0.204,1.193
			c0,0-2.321,5.072-12.333,4.275c0,0,1.2,1.045,6.026,1.357c0,0-0.912,0.914-4.228,0.914c-3.312,0-7.738-2.112-9.257-4.387
			C101.935,78.724,100.583,77.244,100.583,77.244z M105.567,65.315c0,0,0.041,1.593-0.121,2.271l1.442,0.84l0.433-1.072
			c0,0-1.393-1.801-1.633-2.122L105.567,65.315z M108.681,67.829l-0.556,1.357c0,0-0.045,0.359,0.235,0.479
			c0.278,0.119,1.833,0.912,1.833,0.912l0.763-1.871l-0.806-1.201L108.681,67.829z M111.755,70.74c0,0-0.201,0.281,0.077,0.36
			c0.278,0.078,2.114,0.681,2.235,0.642c0.117-0.04,0.24,0,0.358-0.245c0.119-0.238,0.679-1.589,0.679-1.589l-0.959-1.603
			l-1.551,0.561c0,0-0.162,0.121-0.283,0.398C112.194,69.545,111.755,70.74,111.755,70.74z M115.856,71.859
			c0,0-0.039,0.359,0.363,0.359c0.397,0,2.352,0.162,2.352,0.162l0.8-1.959l-1.116-1.235l-1.4,0.599c0,0-0.356,0.277-0.559,0.793
			C116.099,71.1,115.856,71.859,115.856,71.859z M121.325,70.379l-0.678,1.802c0,0-0.151,0.277,0.244,0.277h1.67l0.602-1.521
			c0,0,0.04-0.159-0.043-0.24c-0.079-0.077-1.038-0.672-1.038-0.672L121.325,70.379z M99.404,52.96l-0.334,5.284
			c0,0,0,0.687,0.381,1.355c0.381,0.665,1.812,1.333,1.812,1.333s3.662,1.047,4.089,3.26l3.451,2.217l1.93-0.193l1.477,1.546
			l2.211-0.451l1.688,1.498l2.455-0.571l1.763,1.191l2.312-0.811l1.637,1.051c0,0,1.172-0.287,2.336-0.24
			c0,0,1.261-1.096,1.639-1.719l-1.352-2.972c0,0,1.164,0.524,3.711,0.524s5.901-0.62,8.354-3.405c0,0-0.686-1.786-0.686-3.999
			c0-2.213,2.352-5.547,4.949-6.997l-0.047-2.071c0,0-0.429-2.449-0.813-3.12c-0.381-0.667-1.643-2.242-4.711-3.641
			c-3.071-1.404-8.451-3.14-8.451-3.14s5.046-0.955,9.426-0.716c0,0-2.386-2.812-11.329-3.978c0,0,3.525-0.952,7.378-0.094
			c0,0-1.193-1.402-4.119-1.544c0,0-0.381-0.715-3.121-0.715c-2.735,0-3.09,0.285-3.852,0.33c-0.271,0.02-2.008,0.355-4.404,0.813
			c-1.144,0.22-2.513,0.319-3.807,0.694c-3.634,1.06-7.425,2.82-8.977,5.708c0,0,1.288-0.595,2.402-0.782
			c0,0-4.135,3.662-4.662,4.614c-0.521,0.955-1.287,2.927-1.717,3.5c-0.427,0.569-0.287,1.975,0,2.786c0,0,1.834-4.502,5.998-6.093
			c0,0-4.662,4.134-5.475,10.898L99.404,52.96z M107.994,46.96l6-0.378c0,0,1.069,3.26,7.306,5.09c0,0-1.64,0.337-2.068,1.002
			c-0.43,0.667-2.566,3.951-6.594,3.951c-2.785,0-5.709-3.569-5.709-3.569s0.189-2.289,4.901-4.502L107.994,46.96z M123.733,52.245
			l0.498-0.094c0,0-0.098,0.189,2.83,0.189c2.929,0,6.332-1.714,6.332-1.714l5.043,2.523l-4.664-0.189c0,0,1.574,2.28,1.574,3.757
			c0,1.478-0.289,1.763-0.476,1.954c-0.19,0.191-2.86,1.213-4.787,1.213c-1.929,0-3.331-0.406-4.095-1.26
			c-0.758-0.86-1.615-2.999-1.33-5.169L123.733,52.245z M114.567,61.552c0,0,3.293-1.615,6.268-6.023l0.32-0.396
			c0,0,0.217-0.169,0.217,0.062c0,0.227-0.571,4.859,1.045,7.804c0,0,0.13,0.155-0.177,0.357l-3.832,2.033
			c0,0,0.047-0.418,0.423-1.482c0.377-1.063,0.73-3.033,0.665-4.048c0,0-1.815,2.146-2.833,5.176c0,0-0.155-0.043-0.289-0.287
			C116.243,64.504,114.567,61.552,114.567,61.552z M121.621,92.054l-2.39-1.77l1.017-0.31l0.487-0.088l0.355-0.088l1.903-0.356
			l0.707-0.045c0,0,3.409-1.503,6.993-2.074c3.582-0.577,2.789-0.49,3.453-0.753c0.664-0.263,3.494-1.418,3.494-1.418
			s2.657-1.191,2.922-1.328c0.266-0.133,2.347-1.463,4.472-1.946c2.125-0.485,4.47-2.345,4.868-2.523
			c0.277-0.125,2.613-2.098,5-3.763c1.016-0.708,2.168-1.188,2.965-1.723c2.699-1.816,5.09-4.956,5.09-4.956s1.857-1.64,2.3-1.993
			c0.445-0.354,4.606-6.106,5.623-8.009c0,0,0.486,1.417-2.657,8.274l-1.149,2.965c0,0-1.24,1.68-1.64,2.568
			c-0.394,0.885-1.683,1.858-3.718,5.665c0,0-3.629,3.497-4.556,4.47c0,0-4.16,2.347-8.5,5.399l-6.063,3.275
			c0,0-6.017,1.548-10.137,3.408c0,0-3.984,0.53-6.549,1.326L123.92,94c0,0,11.198-3.276,12.169-3.803l0.891-0.71l6.24-2.3
			c0,0,1.803-1.374,3.582-2.347c0.639-0.35,1.268-0.478,1.817-0.708c2.08-0.885,4.599-3.186,5.575-4.691l-3.715,1.948
			c0,0-2.838,1.5-4.344,2.388c-1.5,0.887-5.838,2.657-5.838,2.657l-5.18,1.946c0,0-1.325,0.35-3.188,1.195
			c-1.857,0.842-4.688,1.772-6.375,1.902C123.877,91.61,121.621,92.054,121.621,92.054z M121.146,109.441l0.058-0.205
			c0,0,1.771-0.969,4.104-1.767c0.61-0.206,1.778-0.95,2.576-1.741c0.903-0.9,1.398-1.844,1.398-1.844v-2.078l-0.416-1.588
			c0,0,0.416-2.024-0.52-3.352c0,0,2.545-0.676,3.51-0.833c0,0,0.985,2.682,0.154,5.512c0,0-0.236,0.622,0.467,0.78
			c0,0,1.426-0.128,2.26,0.57c0.313,0.26,2.005,0.569,2.005,0.569s0.849-0.065,1.688,0.828c0.416,0.445,1.508,0.396,1.508,0.396
			s1.324,0.049,2.104,0.884c0.779,0.829,2.211,0.206,2.211,0.206l0.568-1.637c0,0,0.365-0.834,1.142-0.469
			c0.78,0.364,0.521,0.756,0.521,0.756l-0.828,2.936c0,0,0.074,0.26,0.621,0.312c0.549,0.048,1.223,1.56,0.156,2.316
			c0,0-0.262,0.071-0.309-0.238l-0.107-0.676c0,0-0.102-0.204-0.257,0.209c-0.157,0.415-0.624,1.17-0.624,1.17
			s-0.599,0.05-0.988-0.208c0,0-1.846,2.574-2.209,2.835c-0.363,0.256-4.596,2.304-9.317,2.442l-1.263-0.359
			C131.36,115.169,124.931,115.757,121.146,109.441z M86.17,88.335c0,0-1.592-1.461-2.61-2.078c0,0-2.745,1.99-4.203,5.09
			l-0.576,0.13c0,0-0.976-0.53-1.685-0.53c-0.708,0-0.662,0.177-1.237,0.177c-0.578,0-1.639-0.44-2.127-0.44
			c-0.484,0-1.857,0.263-2.211,0.263c-0.352,0-0.973-0.486-2.167-0.486c-1.197,0-1.33,0.223-1.727,0.223
			c-0.399,0-0.975-0.223-1.549-0.71l0.664-1.638c0,0,0.198-0.597-0.553-0.816c-0.751-0.224-1.174,0.663-1.174,0.663
			s-0.772,1.635-1.103,2.542l-0.179,0.202c0,0-0.334-0.133-0.663-0.133c-0.332,0-1.792,0.224-1.792,1.617c0,0,0.02,0.333,0.13,0.438
			c0,0,0.49-0.638,1.132-0.77c0,0-0.4,0.948-0.4,1.415c0,0.287,0.774,0.287,0.774,0.287s0.202,0.023,0.157,0.402
			c-0.045,0.375-0.09,0.795-0.09,1.943c0,1.152,0.135,1.152,0.135,1.152s1.504,3.033,6.019,5.246c0,0,0.439,0.175,0.664,0.175
			c0.218,0,1.373,0.204,2.369,0.753c0.995,0.555,3.185,0.421,3.185,0.421s3.828,0.177,8.542-2.345c0,0-3.099-4.271-3.475-7.479
			l1.903-2.058l0.572-0.289C82.893,91.7,83.647,89.575,86.17,88.335z M88.774,88.817c0,0-2.424-2.264-4.125-3.322
			c-1.703-1.054-2.269-2.345-2.269-2.345s-3.161-3.727-4.534-4.455l-3.013-4.975c0,0-2.713-7.22-3.624-8.011
			c0,0-0.566-4.147-0.85-5.3c-0.284-1.153,0.183-2.104,0.183-2.104s0.667-4.471,0.791-7.366l2.651-7.646
			c0,0,0.527-2.006,2.042-3.745c0,0-1.073,5.667-0.891,8.435c0,0,0.548,2.59,0.668,3.503c0.122,0.912,0.147,3.161,0.524,4.102
			c0.122,0.31,0.364,1.5,0.364,1.5s1.095,1.921,1.276,2.53c0.18,0.605,1.8,5.724,1.8,5.724s1.275,2.41,1.398,2.651l2.104,2.125
			c0,0,2.247,3.864,3.619,5.241c0.831,0.829,1.255,1.856,1.255,1.856l5.361,4.172c0,0,1.478,1.8,1.883,2.228
			c0.405,0.423,2.854,1.919,3.196,2.467c0,0-1.861,0.202-2.834,0.849c0,0-3.277-2.41-4.652-2.893c0,0-1.678-1.881-2.104-2.123
			c0,0-0.743-1.186-1.923-2.621c-0.956-1.171-2.257-2.505-3.256-3.511c0,0-1.941-2.386-3.741-5.201
			c-0.576-0.897-1.161-2.185-1.681-3.075c-1.363-2.329-2.399-3.998-2.467-4.208l0.159,2.956l0.974,2.651
			c0,0,1.982,2.404,2.526,4.754l3.927,4.837c0,0,0.364,0.645,0.423,1.009c0,0,5.241,5.663,8.195,8.189L88.774,88.817z"/>
		<path d="M125.049,109.391c0,0,4.495-1.742,6.339-5.662c0,0,1.196,1.658,0.363,3.35c0,0,1.532-0.155,2.467-0.828
			c0,0,0.417,1.116,0.055,1.793c0,0,1.377,0.13,2.416-0.831c0,0,0.625,0.647,0.262,1.819c0,0,1.479,0.205,2.415-0.782
			c0,0,0.519,0.757,0.206,1.795c0,0,1.453,0.021,3.092-1.226c0,0-1.271,4.055-4.52,4.732c0,0-1.432-0.13-3.043-0.912
			c-1.61-0.777-4.492-2.181-9.43-1.399C125.672,111.239,124.788,110.979,125.049,109.391z"/>
		<path d="M80.085,100.285c0,0-1.748-2.475-1.748-4.558c0-1.283,0.352-2.656,0.352-2.656s-1.79,0.531-2.612,2.548
			c0,0-0.108,0.241-0.286,0.088c-0.178-0.157-0.996-0.797-1.24-1.574c0,0-0.663,0.067-1.283,1.348c0,0-0.2,0.29-0.529,0.068
			c-0.334-0.222-0.932-1.128-1.041-1.55c0,0-0.709,0.133-1.573,1.438c0,0-1.196-0.11-1.462-1.568c0,0-0.996,0.242-1.458,1.525
			c0,0-0.266,0.043-0.464-0.175c-0.199-0.222-1.175-1.02-1.242-1.97c0,0-0.795,0.241-0.795,2.784c0,2.215,1.285,2.9,1.285,2.9
			s1.481,0.465,4.535,0.335c3.056-0.137,6.018,1.171,7.415,2.033c0.313,0.195,0.728,0.42,1.171,0.069L80.085,100.285z"/>
	</g>
	<path d="M149.379,125.866c0,0,11.427-16.429,24.172-44.278c0,0-1.323,14.731-11.708,29.46
		C160.669,112.719,156.747,120.863,149.379,125.866z"/>
</g>
</svg>
