<svg xmlns="http://www.w3.org/2000/svg" width="512" height="512" viewBox="0 0 512 512"><g><g><path d="M433.7 86.2s6.6 19 6.6 46.3-7.5 44.5-9.4 51.2c0 0-2.2 3.5-5.6 5.8l3.9 3.2s-8.3 25-15.5 40.4c-7.9 16.8-26.4 49.7-40.8 61l-46.4 75.2s-10.4 1.6-17.4-4c-6.9-5.6-6.5-10.9-6.5-10.9l28.1-41.9s-9.3 1.6-21.4 1.6c-12.1 0-40.9-1.1-78-17.9-37.1-16.8-55.5-26-82.4-26-24.6 0-52.4 18.8-60.4 51.1 0 0-16.7-20-16.7-45.1s23.8-42.9 33.2-47.8c9.7-5 12.8-9.6 12.8-16.4 0-8.4-8.2-20.4-19.5-30.8l27.1-9.3-5.3-7.5s18.1 3.2 33.3-15.3c0 0-10.4-1-47.1 15.9.3-.9 10.3-28.2 56.4-50.6 46.7-22.7 85.2-16.5 126.8.4 41.7 16.9 53 22.2 80.1 22.2 27.1 0 47-9.8 56.4-16.1 0 .2 5.5-17.1 7.7-34.7zm-102 281.8s6.3 10.9-.4 28.2c-6.7 17.3-25.7 35-50.8 24.2 0 0-1.6 3.1-4.9 3.1-3.3-.1-5.1-2.9-5.2-4.3-.1-1.4.1-3.2 1.1-4 0 0-7.1-6.7-7.6-9.7-.5-3 .5-3.8 1.1-4.2.5-.3 2.2-.3 3.8 1.3 1.6 1.7 2.2 2.4 2.2 2.4l22-34.1s-7.3-8.7-7-19c0 0 6.4-5.5 16.4-2.1 0 0-6.3 3.6-.9 12.4 5.4 8.8 17.3 10.8 19.7 10.9 2.3.3 9.6-.1 10.5-5.1zm-15.7 38.6c7.3-11.9 3.9-22.3 3.9-22.3-2.8.4-6.2-.5-6.2-.5l-22.7 33.1c3.8 1.1 17.7 1.6 25-10.3z"/><path fill="#fff" d="M319.9 384.3s3.4 10.4-3.9 22.3-21.2 11.4-25 10.3l22.7-33.1s3.4.8 6.2.5z"/><path fill="#BFC0C0" d="M317.1 359s-4 .1-5.7-4.7l30.1-43.9 9.7-2.9-34.1 51.5z"/><path fill="#B21E35" d="M85.2 294.7s-14-19.7 9.9-45.3c0 0 12.1-6 25.3-3.6 0 0-21.6 4-26.3 21.9 0 0 11.3-19.4 47.5-17.7 0 0-10.1-12.5-33.8-10.1 0 0 5.2-6.2 25.8-9 0 0-10.1-1.8-18 .3 0 0 11-7.2 11-22.1 0-14.9-14.6-25.1-14.6-25.1s10.1-4.7 23-7.4c0 0-2.1-5.5-5.4-7.5 0 0 23.5 1.2 36.4-27.5 0 0-3-1.5-6.7-1.5-6.1 0-18.4 2.8-32.8 9.6 0 0 8.7-10.5 33.3-22.8 24.6-12.3 41.5-12.5 41.5-12.5s6.1-.1 9.5 1.6c0 0-11.5.3-30.1 9.1 0 0 13.3-2.3 25.2-2.3 9.1 0 19.6 2.9 25.8 5.2 0 0-3.9-7.2-15.7-9.3 0 0 1.8-1.6 8.4-1.6 7.5 0 18.8 6 18.8 6s-4.5-6.4-15.1-9.9c0 0 24.1-2.3 65.4 14.6 37.9 15.5 52.6 17.9 75 17.9 24.8 0 52.9-10.5 64.5-18.2 0 0 .9 6.4-.4 13.5-1.4 7.8-6.9 13.3-35.5 13.5 0 0 15.9 7.4 31.7 4.1 0 0-2.7 15.3-11.2 38.2-6.5 17.7-17.7 42.7-32.4 66.2-4.9 7.8-8.8 13.9-15.5 21.8 0 0-12.6 5.6-26 9.7 0 0 6.3-7.2 6.6-12 0 0-11.7 11.7-23 16.4 0 0-11.1 3.9-30.8 3.9-61.9 0-100.4-41.8-153.3-41.8-42.9.1-58 33.7-58 33.7zm202 119.4s-5.9 1.4-11.3-5.9c0 0-.8-.7.3-2.3l20.3-31.4s4.9 4.3 13.7 8.1c0 0-5.9 1.2-11.5-2.6 0 0-.8 4.9 4.8 8.1 0 0-6.1.1-9.3-2.1 0 0-.9 4.7 5.4 8.2 0 0-5.9 1.6-9.5-1.1 0 0-.9 3.5 4.5 7.5 0 0-5.9.5-9.6-1.1 0 0 .2 4.7 5.1 7.9 0 0-6.2.5-9.5-1.4.1-.1-.1 3.9 6.6 8.1z"/><path d="M216.8 261.1l-.5.7-4.4 2.5-6.4 2-11.4.4-3.9-2-2.2-.4-.7-.5-1.1.3s-5.5-3.9-9.4-5.6l-3-4-.1-.5-.6-.2s.3-.9-.1-2.4l-1.1-3.5-.7-.1-1.6-2.2 1.3-5.5 5.1-5.2 1.5-2.6.6-.1v-.6l4-2.6 5.1.1 2.1.9.4 1.8 1 2.1.5.3 6.2.1 3.5.8 2.5-.5 2.4-2.3s-2.7-4.2-6.5-7.4c0 0-3.9-7.4-5.1-8.6l-1-1.6-4.4-9 3.1-2.2s-1.9-.5-3.9-.5l-2.5-6.3-.3-5.3.2-9.3s.4-4.8 1.1-7c.7-2.2 1.9-5.1 2.1-9.6l3.1-5.2 1.1-4.4s.1-.5.6-1.1c0 0 3.9-4.9 4.7-7.1l3.7-4s.5-.8 6.4-4.4l-1.5 5.1s.1 5.9-.7 9.3c-.5 2.2-1.3 3.5-1.3 3.5l.1 5.6s-.4 8.5 1.9 15.1c0 0 2.5 5.5 3.2 8.2 0 0 3.3 7.7 5.8 13.8 0 0 1.3 3.3 7.5 9.8l6 6.4s5.2 3.1 6.7 4.5c0 0-.6-1.1-.7-1.9-.1-.8-.2-3.8-.2-3.8s-1.5-1.4-1.5-3l4.6-13.6s-4.9-5.9-4-14.3l1.7-.1s.5 0 .3-.3l-1.9-2.4.7-13.6 2.2.8s1.1-1.8 1.4-5.1c.3-3.3.7-7.1 6.4-13 .9-.9 6.4-9.4 15.3-11.7 8.9-2.3 13.5-4.2 13.5-4.2l3.9.6s4.2-2 11.7-2c7.5 0 11 1.9 13.6 3.8 2.6 1.9 14.1 11 14.4 11.7.3.7 0 1.3 0 1.3s.7 1.4 5.5 5.8c0 0 1.2 1.3 2.4 4.5 1.1 3.2 1.1 4.3 1.1 4.3s-.2 1.4-.5 2.6c0 0 .5 1.1.5 1.8 0 .6-1.6 7.7-5.4 12.9-1 1.4-2.4 2.3-2.6 3.4l3.4.5s-4 5.8-8.8 11.5c-2 3.3-5 6-7.1 7.6 0 0-.9-.5-2.5-.2l.1 2s-5.5 3.5-6.7 4c0 0-3.7 9-6.3 13.4l-3.4 1.6s-1.7 1.1-3 3.1l-4.4 2.5s17.2-3.8 21.1-5.1c3.9-1.3 4-2.2 6.3-2.8 2.3-.7 5.8-1.3 5.8-1.3s4.1-2.7 4.5-2.8c.4-.1 2.6.5 3.3.9l.2-3.3s3.9-2.3 6-3.6c2.1-1.3 4.9-4.3 7-5.8 2.1-1.5 4.6-2.8 5.5-3.5.8-.7 9.9-8.8 14.1-15.5 1.3-2 2.4-5 2.4-5l4.3-3.2s.1-1.9 1-3.4c1-1.5 3.3-4.6 3.3-4.6s.4.3.7 1.9c.3 1.6.8 2.2.8 2.2s.1 3.6.4 5.5l-.8 3.6-.2 4.9s-1.4 2.8-2.2 4.8c-.7 1.9-1.2 5.8-1.2 5.8l-3.4 5.5s-2.1 5.9-5.7 10.5-7.2 9-7.2 9l-3.3 3.4-5.5 3.7s-.6.4-1.9 1.3c-.7.5-2 1.5-2.6 1.9-.3.2-.8.3-2 1-4.3 2.3-13.9 7.2-22.4 11.8 0 0-1.5.7-3.1 1-1.6.3-4.6.5-4.6 1.6.1 1.1.6 2.9.6 2.9s.3 1 2.1 1.7c0 0 1.1-.2 2.8.3 1.6.5 3.1 1.6 3.1 1.6s2.1.4 3.1.9c0 0 .7-.5 1.6-1 .9-.5 1.9-1.3 2.2-1.9l2.9-.1s2.7 1.1 4.2 1.5c0 0 1 2.8 1.6 3.8l-.1.7.3.3-.4 2.9s.6 4.8.4 6.4c0 0-1.6 3.5-2.4 5 0 0-2.5 1-2.9 1.3l-.5-.2s-5.2 2.9-5.5 4.6l-.7-.1s.2.3-.2.4c-.4.1-5.5 2.5-5.5 2.5s-6.3.1-11.9 1.2l-1-.7-1.8.1s-.5-.7-6-.1c0 0-7.9-4-9-4.4l-4.2-4.3-.8-1.1-.7-1.4-.6-1.4s-.2-.3-1.1-.1c-.9.2-3.7.6-7.2 1.9 0 0-5.4-.2-9 .7 0 0-3.8-.7-8.1-.5 0 0-3.9-.5-4.5-.5 0 0-6.7-2.8-10.5-3.6 0 0-1.6-.6-2.2-1-.5-.4-2.3-2-5.7-4 0 .1-3-2.9-5.8-4.7z"/><path fill="#DB6126" d="M230.2 243.5s6.3-.6 8.3-.5l1.2-1.3.4-2.2 4.5-.2s-.7 2.4-1.4 3.1c0 0-.3.4.3.4s4 .1 4 .1.5-.1.6-.5c.1-.4.4-2.2 1.1-2.5.7-.3 1.9-.2 1.9-.2l1.9.4.3.2-.4 1.2-1.2 1.4s-.2.4.3.4c.4 0 3.2.6 4 1 0 0 .7.4.9-.1.2-.4.5-1.2.5-1.2v-1.5s0-.4.6-.4 2.8.7 3.2 1.1c0 0 .3.3.1.9-.2.6-.7 1.9-1 2.3l3.5 1.8s.7-1 1.3-1.4l.3-1.9s-.1-.5.6-.3l3 1.5s.2.2.1.6c-.2.4-.6 1.9-.6 1.9s-.1.2-.5.4-.5.8-.2 1.1l5.3 3-5.2-1.8s-.4 0-.5.2l-1 1.9s-1.9.2-4.1-.2c0 0 .1-1.2 1.1-3.3l-3.5-1.3-1.4 1.5-.5 2.4s-1.2.4-2.4.4-2-.5-2-.5l.9-2.6s.4-1.6 1.1-2.2c0 0-.1-.7-4.2-1.1 0 0-1.3 1.9-2.1 5.1 0 0-1.9.3-3.9-1.3l.6-1.8 1.1-1.3v-1.1s-2.3-.5-4-.4c0 0-1 .5-1.5 2.5l-.3 1.4-2-.3-1.9-1.4s.5-1.7 1.2-2.2c0 0 .2-.4-.2-.4-.6-.2-8.2-.8-8.2-.8zm1 16.1s11.4 6.7 16.2 7.7c5.7 1.3 3.7-5.1 3.7-5.1s7 3.3 15.3 3.3 15.6-3.3 18-5.3c2.4-2-.2-3-.6-4-.5-1-2.4-4-3-5.4-.5-1.4-3.1-3.9-3.1-3.9s-7.8-6.1-10.2-7.3c-2.3-1.2-5.1-2.3-6.2-3-1.1-.6-2.9-1-2.9-1l-2.4-.5s-2-.2-3.1-.5c0 0-4.2-.2-5.7-.5 0 0-1.1.1-1.5.1 0 0-2.8.8-7.9.9 0 0-8.8 2.8-12.1 3.6 0 0-.9.2-2.7 1.3 0 0-4 2.1-5.6 2.5 0 0-1.2.5-1.5 1.4l-1.7 1.6.2 3.4s3.1 4 3.8 5.9c0 0 7.4 7.2 8.9 9.1 0 0 3.5 1.5 4.2 2.2 0 0 1.5-.2 1.5-1.8-.1-1.4-1.6-4.7-1.6-4.7z"/><path fill="#fff" d="M241.7 216.6s.5-3.1 1.7-5.3c1.2-2.2 1.4-9.8 1.4-9.8s1 1.8 2.2 6.7c0 0 .7 4.5.5 5.8l.3.4 3-3.1 4 2s.3.1.1 1c-.1.9-.6 4-.6 4l3.8-3.9 4.4 1.6s.3.1.2 1l-.1 4 3.7-4.2 4.9.3s.1.3.2.7c.1.4.4 4 .4 4l2.6-4 .3-.3 4.9-.1.3 2s-3.9 8.6-20.8 7.2c0 0 2 1.8 10.2 2.3 0 0-1.5 1.5-7.1 1.5s-13.1-3.6-15.6-7.4c-2.6-3.9-4.9-6.4-4.9-6.4zm8.4-20.1s.1 2.7-.2 3.8l2.4 1.4.7-1.8s-2.4-3-2.8-3.6l-.1.2zm5.3 4.2l-.9 2.3s-.1.6.4.8c.5.2 3.1 1.5 3.1 1.5l1.3-3.2-1.4-2-2.5.6zm5.1 4.9s-.3.5.1.6c.5.1 3.6 1.2 3.8 1.1.2-.1.4 0 .6-.4.2-.4 1.1-2.7 1.1-2.7l-1.6-2.7-2.6.9s-.3.2-.5.7c-.1.5-.9 2.5-.9 2.5zm7 1.9s-.1.6.6.6 4 .3 4 .3l1.3-3.3-1.9-2.1-2.4 1s-.6.5-.9 1.3c-.3.9-.7 2.2-.7 2.2zm9.2-2.5l-1.1 3s-.3.5.4.5h2.8l1-2.6s.1-.3-.1-.4c-.1-.1-1.8-1.1-1.8-1.1l-1.2.6zm-37-29.4l-.6 8.9s0 1.2.6 2.3c.6 1.1 3.1 2.2 3.1 2.2s6.2 1.8 6.9 5.5l5.8 3.7 3.3-.3 2.5 2.6 3.7-.8 2.8 2.5 4.1-1 3 2 3.9-1.4 2.8 1.8s2-.5 3.9-.4c0 0 2.1-1.8 2.8-2.9l-2.3-5s2 .9 6.3.9 10-1 14.1-5.7c0 0-1.2-3-1.2-6.8 0-3.7 4-9.4 8.4-11.8l-.1-3.5s-.7-4.1-1.4-5.3c-.6-1.1-2.8-3.8-8-6.1-5.2-2.4-14.3-5.3-14.3-5.3s8.5-1.6 15.9-1.2c0 0-4-4.7-19.1-6.7 0 0 6-1.6 12.5-.2 0 0-2-2.4-7-2.6 0 0-.6-1.2-5.3-1.2-4.6 0-5.2.5-6.5.6-.5 0-3.4.6-7.4 1.4-1.9.4-4.2.5-6.4 1.2-6.1 1.8-12.5 4.8-15.2 9.6 0 0 2.2-1 4.1-1.3 0 0-7 6.2-7.9 7.8-.9 1.6-2.2 4.9-2.9 5.9-.7 1-.5 3.3 0 4.7 0 0 3.1-7.6 10.1-10.3 0 0-7.9 7-9.2 18.4l-5.8-2.2zm14.5-10.1l10.1-.6s1.8 5.5 12.3 8.6c0 0-2.8.6-3.5 1.7-.7 1.1-4.3 6.7-11.1 6.7-4.7 0-9.6-6-9.6-6s.3-3.9 8.3-7.6l-6.5-2.8zm26.6 8.9l.8-.2s-.2.3 4.8.3c4.9 0 10.7-2.9 10.7-2.9l8.5 4.3-7.9-.3s2.7 3.8 2.7 6.3-.5 3-.8 3.3c-.3.3-4.8 2-8.1 2s-5.6-.7-6.9-2.1c-1.3-1.5-2.7-5.1-2.2-8.7l-1.6-2zm-15.5 15.7s5.6-2.7 10.6-10.2l.5-.7s.4-.3.4.1-1 8.2 1.8 13.2c0 0 .2.3-.3.6l-6.5 3.4s.1-.7.7-2.5 1.2-5.1 1.1-6.8c0 0-3.1 3.6-4.8 8.7 0 0-.3-.1-.5-.5-.2-.3-3-5.3-3-5.3zm11.9 51.5l-4-3 1.7-.5.8-.1.6-.1 3.2-.6 1.2-.1s5.8-2.5 11.8-3.5c6-1 4.7-.8 5.8-1.3 1.1-.4 5.9-2.4 5.9-2.4s4.5-2 4.9-2.2c.4-.2 4-2.5 7.5-3.3 3.6-.8 7.5-4 8.2-4.3.5-.2 4.4-3.5 8.4-6.4 1.7-1.2 3.7-2 5-2.9 4.6-3.1 8.6-8.4 8.6-8.4s3.1-2.8 3.9-3.4c.8-.6 7.8-10.3 9.5-13.5 0 0 .8 2.4-4.5 14l-1.9 5s-2.1 2.8-2.8 4.3c-.7 1.5-2.8 3.1-6.3 9.6 0 0-6.1 5.9-7.7 7.5 0 0-7 4-14.3 9.1l-10.2 5.5s-10.2 2.6-17.1 5.8c0 0-6.7.9-11.1 2.2l-3.4-3.8s18.9-5.5 20.5-6.4l1.5-1.2 10.5-3.9s3-2.3 6-4c1.1-.6 2.1-.8 3.1-1.2 3.5-1.5 7.8-5.4 9.4-7.9l-6.3 3.3s-4.8 2.5-7.3 4-9.9 4.5-9.9 4.5l-8.7 3.3s-2.2.6-5.4 2c-3.1 1.4-7.9 3-10.8 3.2-2.5.3-6.3 1.1-6.3 1.1zm-.8 29.3l.1-.3s3-1.6 6.9-3c1-.3 3-1.6 4.3-2.9 1.5-1.5 2.4-3.1 2.4-3.1v-3.5l-.7-2.7s.7-3.4-.9-5.7c0 0 4.3-1.1 5.9-1.4 0 0 1.7 4.5.3 9.3 0 0-.4 1.1.8 1.3 0 0 2.4-.2 3.8 1 .5.4 3.4 1 3.4 1s1.4-.1 2.9 1.4c.7.8 2.5.7 2.5.7s2.2.1 3.6 1.5c1.3 1.4 3.7.3 3.7.3l1-2.8s.6-1.4 1.9-.8c1.3.6.9 1.3.9 1.3l-1.4 5s.1.4 1 .5c.9.1 2.1 2.6.3 3.9 0 0-.4.1-.5-.4l-.2-1.1s-.2-.3-.4.4c-.3.7-1.1 2-1.1 2s-1 .1-1.7-.4c0 0-3.1 4.3-3.7 4.8-.6.4-7.8 3.9-15.7 4.1l-2.1-.6c-.1-.1-10.9.9-17.3-9.8zm-59-35.6s-2.7-2.5-4.4-3.5c0 0-4.6 3.4-7.1 8.6l-1 .2s-1.6-.9-2.8-.9c-1.2 0-1.1.3-2.1.3s-2.8-.7-3.6-.7c-.8 0-3.1.4-3.7.4-.6 0-1.6-.8-3.7-.8-2 0-2.2.4-2.9.4-.7 0-1.6-.4-2.6-1.2l1.1-2.8s.3-1-.9-1.4c-1.3-.4-2 1.1-2 1.1s-1.3 2.8-1.9 4.3l-.3.3s-.6-.2-1.1-.2c-.6 0-3 .4-3 2.7 0 0 0 .6.2.7 0 0 .8-1.1 1.9-1.3 0 0-.7 1.6-.7 2.4 0 .5 1.3.5 1.3.5s.3 0 .3.7c-.1.6-.2 1.3-.2 3.3 0 1.9.2 1.9.2 1.9s2.5 5.1 10.2 8.9c0 0 .7.3 1.1.3.4 0 2.3.3 4 1.3 1.7.9 5.4.7 5.4.7s6.5.3 14.4-4c0 0-5.2-7.2-5.9-12.6l3.2-3.5 1-.5c0 .1 1.3-3.5 5.6-5.6zm4.4.8s-4.1-3.8-7-5.6c-2.9-1.8-3.8-4-3.8-4s-5.3-6.3-7.7-7.5l-5.1-8.4s-4.6-12.2-6.1-13.5c0 0-1-7-1.4-8.9-.5-1.9.3-3.6.3-3.6s1.1-7.5 1.3-12.4l4.5-12.9s.9-3.4 3.4-6.3c0 0-1.8 9.6-1.5 14.2 0 0 .9 4.4 1.1 5.9.2 1.5.2 5.3.9 6.9.2.5.6 2.5.6 2.5s1.8 3.2 2.2 4.3c.3 1 3 9.7 3 9.7s2.2 4.1 2.4 4.5l3.6 3.6s3.8 6.5 6.1 8.8c1.4 1.4 2.1 3.1 2.1 3.1l9 7s2.5 3 3.2 3.8c.7.7 4.8 3.2 5.4 4.2 0 0-3.1.3-4.8 1.4 0 0-5.5-4.1-7.9-4.9 0 0-2.8-3.2-3.6-3.6 0 0-1.3-2-3.2-4.4-1.6-2-3.8-4.2-5.5-5.9 0 0-3.3-4-6.3-8.8-1-1.5-2-3.7-2.8-5.2-2.3-3.9-4-6.7-4.2-7.1l.3 5 1.6 4.5s3.3 4.1 4.3 8l6.6 8.2s.6 1.1.7 1.7c0 0 8.8 9.6 13.8 13.8l-5.5 1.9z"/><path d="M283 270.9s7.6-2.9 10.7-9.6c0 0 2 2.8.6 5.7 0 0 2.6-.3 4.2-1.4 0 0 .7 1.9.1 3 0 0 2.3.2 4.1-1.4 0 0 1.1 1.1.4 3.1 0 0 2.5.3 4.1-1.3 0 0 .9 1.3.3 3 0 0 2.5 0 5.2-2.1 0 0-2.1 6.8-7.6 8 0 0-2.4-.2-5.1-1.5-2.7-1.3-7.6-3.7-15.9-2.4-.1 0-1.6-.5-1.1-3.1zm-75.9-15.4s-3-4.2-3-7.7c0-2.2.6-4.5.6-4.5s-3 .9-4.4 4.3c0 0-.2.4-.5.1-.3-.3-1.7-1.3-2.1-2.7 0 0-1.1.1-2.2 2.3 0 0-.3.5-.9.1-.6-.4-1.6-1.9-1.8-2.6 0 0-1.2.2-2.7 2.4 0 0-2-.2-2.5-2.6 0 0-1.7.4-2.5 2.6 0 0-.4.1-.8-.3-.3-.4-2-1.7-2.1-3.3 0 0-1.3.4-1.3 4.7 0 3.7 2.2 4.9 2.2 4.9s2.5.8 7.7.6c5.2-.2 10.2 2 12.5 3.4.5.3 1.2.7 2 .1l1.8-1.8zm116.9 43.2s19.3-27.7 40.8-74.7c0 0-2.2 24.9-19.8 49.7-1.9 2.8-8.5 16.5-21 25z"/></g></g></svg>