<?xml version="1.0" encoding="UTF-8" standalone="no"?>
<svg width="512px" height="512px" viewBox="0 0 512 512" version="1.1" xmlns="http://www.w3.org/2000/svg" xmlns:xlink="http://www.w3.org/1999/xlink" xmlns:sketch="http://www.bohemiancoding.com/sketch/ns">
    <!-- Generator: Sketch 3.1 (8751) - http://www.bohemiancoding.com/sketch -->
    <title>tennessee-titans</title>
    <desc>Created with Sketch.</desc>
    <defs></defs>
    <g id="Page-1" stroke="none" stroke-width="1" fill="none" fill-rule="evenodd" sketch:type="MSPage">
        <g id="tennessee-titans" sketch:type="MSArtboardGroup">
            <g id="svg" sketch:type="MSLayerGroup" transform="translate(58.000000, 115.000000)">
                <path d="M127.953204,163.377529 C128.342948,168.023272 129.996251,177.289875 135.361452,187.617088 C141.966371,200.384846 155.833384,217.394007 184.409091,227.023478 C188.946086,234.157456 194.285373,240.807265 200.326407,246.824647 C222.054642,268.49614 250.917475,280.398199 281.602569,280.360875 C312.276261,280.315257 341.104888,268.321963 362.777149,246.594485 C384.423496,224.85975 396.343862,195.995184 396.29929,165.297618 C396.248499,134.608346 384.257648,105.781103 362.528376,84.1137574 C345.316405,66.9521912 323.726031,55.9002794 299.968225,52.0673603 C267.814334,22.9394559 230.255854,33.3786397 228.659561,33.8493309 L226.294146,34.5294485 C214.744867,38.3779191 208.778465,33.9716691 204.905901,30.9380956 C200.610423,27.5789779 195.936603,24.1618015 191.420339,21.6144706 C176.077274,12.9865147 154.273371,12.6765221 135.909789,20.074875 C123.815282,24.2126029 117.724493,18.8774118 114.105885,16.3860662 C90.1573525,-0.146183824 60.6995379,-4.09107353 29.4474491,2.79304412 C8.40748564,7.42116176 0,11.7144044 0,11.7144044 C0,11.7144044 14.4101671,13.800375 29.466107,20.0893897 C41.831154,25.2649191 51.6690836,31.8971029 59.1094648,43.7970882 C59.1094648,43.7970882 63.7884674,50.6895 60.7451462,52.7184485 C57.3483603,54.99 53.7826162,49.4277574 53.7826162,49.4277574 C53.6696319,53.4193015 53.6799974,57.4129191 53.9349896,60.4278309 C55.6743264,92.1953382 62.1496762,111.286324 77.4751201,125.861162 C84.4386867,132.502676 96.1973499,138.948243 114.377462,146.094662 C122.670927,149.415419 127.145728,153.65786 127.953204,163.377529" id="Fill-1" fill="#FFFFFF" sketch:type="MSShapeGroup"></path>
                <path d="M357.362193,89.3048382 C340.694413,72.6855 319.539392,62.1996618 296.631559,58.9773971 C266.794366,30.4145294 230.686023,40.8910368 230.686023,40.8910368 C238.339935,42.0242206 243.420084,46.5849485 241.464107,51.6298456 C240.15805,54.9765221 234.602123,55.1527721 232.072932,55.1776544 C224.00129,55.2637059 217.048089,50.3214485 211.491125,45.8011544 C205.70923,41.0973529 196.275556,32.7607279 187.827645,28.0071618 C172.104164,19.1490441 147.120115,20.2594191 129.059206,31.8027574 C139.86424,32.5398971 152.863658,35.6450074 160.617078,42.0677647 C164.951945,45.6580809 170.473666,52.8687794 165.960512,56.2517426 C161.983256,59.2034118 152.23758,57.6679632 147.288037,54.8002721 C139.396755,50.2364338 132.304655,43.3274338 128.042347,38.3115662 C99.4407258,4.60530882 58.9063003,2.72980147 25.4743394,10.9772647 C47.4161044,17.1387574 62.0553499,29.6411029 71.0951332,51.1809265 C80.1421723,72.7300809 87.1720783,81.8981912 102.068389,87.7424338 C111.395298,91.3970294 113.916196,92.0709265 113.190608,96.2055441 C112.111556,102.26336 101.066042,99.3490147 92.6388616,96.0624706 C82.371799,92.0574485 68.8406292,80.9765074 60.780389,60.2152941 C62.2440026,87.0903088 67.3697598,106.146044 82.5127702,120.560184 C88.9435483,126.673985 100.765441,133.010691 119.25652,140.131191 C131.069084,144.666 140.406358,147.411353 149.200478,155.299059 C159.457175,164.486868 155.081883,170.559199 148.286238,169.40839 C140.586718,168.111397 135.092984,160.245463 135.092984,160.245463 C135.092984,160.245463 135.104386,204.025963 189.21559,220.877537 C193.716305,228.34639 199.16754,235.319669 205.496736,241.643934 C225.845319,261.919941 252.866196,273.083824 281.584948,273.027838 C310.317175,272.987404 337.300736,261.757169 357.574687,241.417919 C377.868332,221.073485 389.011282,194.053324 388.965674,165.317316 C388.915919,136.579235 377.704556,109.58914 357.362193,89.3048382" id="Fill-2" fill="#002D65" sketch:type="MSShapeGroup"></path>
                <path d="M351.638345,94.7540735 C335.492987,78.6157941 314.791977,68.719875 292.419005,66.2679265 C273.183681,47.0908897 253.987747,47.9835441 253.987747,47.9835441 C262.407671,53.2710441 258.075914,65.0341765 239.33088,67.6281618 C220.767243,70.1837868 197.192906,63.9009926 185.719295,50.5256912 C173.887037,36.7387941 164.958164,36.1053309 164.958164,36.1053309 C175.210715,42.5239412 175.948742,50.2219191 182.177392,61.9435809 C188.406042,73.6693897 201.226136,77.8828015 212.403292,78.6199412 C224.175431,79.3871471 224.450117,84.7171544 214.969799,90.3488603 C204.617739,96.4844338 195.454606,90.6785515 188.798896,84.1251618 C178.284097,73.7554412 167.81076,71.7555221 153.33529,71.9431765 C138.871222,72.1308309 119.733334,74.0291471 103.596269,67.9899926 C87.4509112,61.9435809 76.7868486,40.6867941 76.7868486,40.6867941 C84.7900783,68.9075294 102.522399,82.2828309 118.989089,85.5113162 C140.74842,89.7848603 155.778446,94.9583162 164.988225,102.411618 C173.968924,109.70111 178.747436,116.976088 182.13593,126.999529 C184.737679,134.727574 185.209311,145.001912 182.631402,145.62086 C179.638872,146.337265 179.01383,142.196426 175.479183,134.992985 C171.577595,127.029596 166.905849,120.793456 157.517783,115.765147 C144.769211,108.968118 132.304655,109.364162 119.589253,109.537301 C109.516026,109.684522 103.610781,108.528529 103.610781,108.528529 C103.610781,108.528529 104.033695,109.882544 120.44441,113.566169 C138.734397,117.677978 156.408671,127.985493 168.189102,153.111485 C178.19599,174.482316 172.96554,189.529919 150.778112,182.728743 C150.778112,182.728743 161.149867,205.765654 194.991266,213.972684 C199.356193,221.653037 204.789807,228.784941 211.208146,235.207699 C229.970802,253.962772 254.899914,264.302426 281.420136,264.302426 C307.94554,264.302426 332.881909,253.964846 351.637308,235.207699 C370.393744,216.450551 380.716781,191.512213 380.716781,164.980368 C380.718854,138.448522 370.396854,113.512257 351.638345,94.7540735" id="Fill-3" fill="#648FCC" sketch:type="MSShapeGroup"></path>
                <path d="M281.420136,70.5217721 C306.649849,70.5217721 330.369303,80.3471912 348.203206,98.1878382 C366.041256,116.025375 375.863637,139.750699 375.863637,164.983478 C375.863637,217.075721 333.488292,259.450368 281.420136,259.450368 C256.207008,259.450368 232.481334,249.614581 214.639138,231.773934 C196.806272,213.934324 186.978708,190.216257 186.978708,164.983478 C186.978708,139.750699 196.806272,116.025375 214.639138,98.1878382 C232.483407,80.3471912 256.207008,70.5217721 281.420136,70.5217721" id="Fill-4" fill="#FFFFFF" sketch:type="MSShapeGroup"></path>
                <path d="M281.551778,251.301397 C233.89312,251.371897 195.193394,212.779368 195.131201,165.117221 C195.061752,117.439522 233.631909,78.7433162 281.300932,78.6707426 C328.952334,78.6002426 367.644804,117.193809 367.71529,164.851809 C367.785775,212.528471 329.201107,251.227787 281.551778,251.301397" id="Fill-5" fill="#002D65" sketch:type="MSShapeGroup"></path>
                <path d="M260.310723,147.523324 L234.75346,147.523324 L226.32317,162.551228 L214.988457,130.405301 L347.619627,130.405301 L336.299426,162.551228 L327.941695,147.523324 L302.801125,147.523324 L281.508243,240.693221 L260.310723,147.523324" id="Fill-6" fill="#FFFFFF" sketch:type="MSShapeGroup"></path>
                <path d="M347.619627,130.404265 L214.988457,130.404265 L217.135159,136.489037 L280.373217,136.489037 L260.310723,147.523324 L281.508243,240.684926 L281.508243,136.489037 L345.472924,136.489037 L347.619627,130.404265" id="Fill-7" fill="#C5C9D1" sketch:type="MSShapeGroup"></path>
                <path d="M216.30488,55.8567353 C197.069556,55.3020662 189.232175,47.6828824 177.295225,38.0824412 C162.666345,26.3390074 146.455684,29.6027426 146.455684,29.6027426 C156.165081,24.0508676 175.25736,23.8186324 189.015535,35.8834632 C201.299731,46.6595956 207.336619,52.5038382 216.30488,55.8567353 L216.30488,55.8567353 Z M52.1376057,13.4820882 C52.1376057,13.4820882 70.134248,13.0507941 85.8691305,41.2798235 C99.0841514,65.0041103 124.301426,69.7514559 142.762444,64.5292721 C142.762444,64.5292721 118.4563,63.9009926 105.142807,40.3187426 C91.5566997,16.2139632 73.5787154,9.52372059 52.1376057,13.4820882 L52.1376057,13.4820882 Z M154.023561,150.165 C154.023561,150.165 151.47053,123.927596 114.083081,116.323963 C76.4613708,108.662272 71.6082272,89.0757132 71.6082272,89.0757132 C71.6082272,89.0757132 71.8580366,117.332735 104.246188,126.010456 C126.862749,132.066199 143.447606,135.551801 154.023561,150.165 L154.023561,150.165 Z" id="Fill-8" fill="#C0001D" sketch:type="MSShapeGroup"></path>
                <path d="M294.385347,122.104963 L289.303125,106.977529 L302.157426,97.5232721 L286.201757,97.6787868 L281.190021,82.5192132 L276.403217,97.7565441 L260.446512,97.8436324 L273.459405,107.099868 L268.604188,122.306096 L281.420136,112.794816 L294.385347,122.104963 L294.385347,122.104963 Z M237.43917,175.608243 L226.877726,187.577691 L212.266467,181.158044 L220.384755,194.89414 L209.768373,206.825228 L225.346736,203.352066 L233.406977,217.131706 L234.908943,201.24536 L250.508037,197.836478 L235.868791,191.485257 L237.43917,175.608243 L237.43917,175.608243 Z M312.22547,198.187941 L327.874319,201.335559 L329.629204,217.20739 L337.469695,203.302301 L353.106104,206.538044 L342.309363,194.787353 L350.213084,180.915441 L335.696151,187.550735 L324.95953,175.744059 L326.773499,191.599301 L312.22547,198.187941 L312.22547,198.187941 Z" id="Fill-9" fill="#C0001D" sketch:type="MSShapeGroup"></path>
            </g>
        </g>
    </g>
</svg>