<?xml version="1.0" encoding="UTF-8" standalone="no"?>
<svg width="512px" height="512px" viewBox="0 0 512 512" version="1.1" xmlns="http://www.w3.org/2000/svg" xmlns:xlink="http://www.w3.org/1999/xlink" xmlns:sketch="http://www.bohemiancoding.com/sketch/ns">
    <!-- Generator: Sketch 3.1 (8751) - http://www.bohemiancoding.com/sketch -->
    <title>washington-redskins</title>
    <desc>Created with Sketch.</desc>
    <defs></defs>
    <g id="Page-1" stroke="none" stroke-width="1" fill="none" fill-rule="evenodd" sketch:type="MSPage">
        <g id="washington-redskins" sketch:type="MSArtboardGroup">
            <g id="Imported-Layers" sketch:type="MSLayerGroup" transform="translate(93.000000, 93.000000)">
                <path d="M100.095851,245.648644 C98.9595294,245.993907 96.6290031,245.415084 96.6290031,245.415084 C97.4099071,251.086539 98.2700186,253.02509 98.2700186,253.02509 L96.9113065,254.554402 L98.5401362,255.715096 C96.7884334,266.93818 101.95418,274.66192 104.342588,282.18561 C102.458873,282.765449 100.306056,282.663901 98.6873808,281.854563 C99.3251022,288.223653 98.7412012,300.481511 93.1641858,305.804656 C92.1019938,305.176074 91.3292136,304.996334 90.9159133,304.41548 C90.0882972,306.20374 89.4495604,306.905437 87.7638638,311.473065 C86.8194675,314.532706 86.0009907,318.820062 85.5643344,323.444557 C80.9733498,321.270415 75.9660186,318.992693 71.453226,311.977759 C70.4489164,310.314402 69.7451889,308.978031 67.2917895,306.756161 C66.7241362,307.807183 66.6286811,308.116904 65.4964211,309.093796 C64.2981548,310.133647 61.1948483,311.406043 61.1725077,311.302464 C60.5429102,308.478415 59.7904396,305.863554 57.9737461,302.683071 C56.2321981,299.158341 50.2520372,294.468854 45.365548,283.017288 C43.3620062,278.623307 42.3587121,274.705585 41.5239876,270.184669 C41.150291,270.352223 40.8913437,270.465957 40.644582,270.519777 C38.8278885,270.989944 37.5219814,270.871133 36.8964458,269.605845 C35.3600248,273.419988 33.4478762,275.552495 31.8170155,276.587269 C31.0675913,278.786799 31.1864025,279.368669 29.5565573,281.15896 C28.0627864,283.233585 27.5530155,283.764681 26.5091022,287.694588 C24.8193437,291.685424 22.2897833,293.656471 21.9059319,294.688198 C21.2753189,293.42291 21.0295728,293.659517 20.4030217,292.72426 C14.2573375,300.246935 13.5028359,302.209858 -0.416346749,304.879554 C3.09010526,298.505387 5.47445201,287.868235 5.22565944,285.674799 C3.46583282,270.746229 1.8370031,267.624644 0.951504644,256.053251 C0.430563467,250.266031 -1.04695975,236.038142 0.335108359,217.075071 C1.83294118,194.172954 8.85803096,174.385313 14.884904,159.457759 C22.6604334,138.640421 40.4668731,105.094043 53.4599381,84.596582 L53.5117276,65.9960372 L58.5302291,65.9960372 L63.8026006,54.8897337 L66.179839,56.5134861 L75.2084706,34.2988483 L81.6039628,51.0735604 L92.5437276,44.7065015 C96.9143529,41.0121858 128.015455,-0.402130031 193.881511,-0.316829721 C257.71356,-0.402130031 323.443542,45.6397276 323.443542,119.21226 C323.443542,186.068409 264.229895,237.663926 195.896223,237.663926 C142.940978,237.661895 108.835071,212.789746 90.7473437,190.001362 C91.8999133,201.455975 89.491195,224.248421 100.097882,245.647628 L100.095851,245.648644" id="Fill-1" fill="#FFFFFF" sketch:type="MSShapeGroup"></path>
                <path d="M100.054217,245.648644 L99.032644,245.758316 L97.8932755,245.661845 L96.9671579,245.498353 L96.5873684,245.417115 L97.1722848,248.996681 L97.6983034,251.351579 L98.0780929,252.63413 L98.2253375,253.027121 L96.8676409,254.55948 L98.4944396,255.718142 L98.3228235,263.531245 L99.8419814,270.342068 L102.13595,276.458303 L104.297907,282.189672 L101.370279,282.543059 L98.6457461,281.855579 L98.8346254,287.537189 L98.2121362,294.221077 L96.4259071,300.715071 L93.124582,305.805672 L91.7567307,305.09382 L90.8773251,304.417511 L90.2710836,305.632025 L89.6242229,306.903406 L88.8128545,308.695728 L87.7293375,311.475096 L86.4386625,316.86831 L85.5308235,323.442526 L82.025387,321.720272 L78.4498824,319.521759 L74.8875789,316.421498 L71.4268235,311.976743 L70.695678,310.771368 L69.8883715,309.573102 L68.8119628,308.272272 L67.2694489,306.75413 L66.581969,307.950365 L65.475096,309.09278 L64.2940929,309.889932 L62.8724211,310.626155 L61.6650155,311.145065 L61.1532136,311.301449 L59.996582,307.123765 L57.9554675,302.683071 L55.9387245,299.72904 L52.8344025,295.817412 L49.1380557,290.427245 L45.3523467,283.017288 L42.9903406,276.644136 L41.5138328,270.180607 L40.6344272,270.515715 L38.3140557,270.709672 L36.8873065,269.602799 L34.3780557,274.135901 L31.8027988,276.587269 L31.3620805,277.979492 L31.0015851,279.025437 L30.480644,280.001313 L29.5443715,281.15896 L28.5816966,282.503455 L27.8505511,283.726093 L27.2057214,285.303133 L26.4999628,287.695604 L25.1209412,290.325697 L23.7094241,292.300805 L22.5416223,293.71943 L21.90187,294.688198 L21.1483839,293.578279 L20.4009907,292.72426 L18.3111331,295.29444 L16.5127183,297.417808 L14.783356,299.169511 L12.9057337,300.618601 L10.6666006,301.843269 L7.846613,302.91257 L4.22439628,303.899616 L-0.40720743,304.883616 L1.98627864,299.502588 L3.81921981,293.713337 L4.94234056,288.708037 L5.22972136,285.679876 L3.9410774,276.375034 L2.76312074,269.602799 L1.74256347,263.463207 L0.953535604,256.053251 L0.440718266,250.18987 L-0.0690526316,241.507517 L-0.222390093,230.353486 L0.339170279,217.080149 L2.39551703,200.510563 L5.91009288,185.275319 L10.2756409,171.538923 L14.8828731,159.46182 L18.2359876,151.110514 L22.3608669,141.865585 L27.0706625,132.032693 L32.2069598,121.909375 L37.5818947,111.806365 L43.0319752,102.017139 L48.3784768,92.849387 L53.4457214,84.6036904 L53.4975108,66.004161 L58.5129659,66.004161 L63.782291,54.8968421 L66.1574985,56.5216099 L75.1851146,34.3059567 L81.5775604,51.0796533 L92.5122477,44.7125944 L93.6445077,43.5935356 L95.4134737,41.7098204 L97.8353932,39.1731517 L100.916359,36.1013251 L104.673635,32.6121362 L109.114328,28.8172879 L114.253672,24.8325449 L120.103851,20.7797647 L126.672991,16.7665882 L133.970229,12.9148731 L142.016892,9.33936842 L150.81704,6.15990093 L160.383876,3.48614241 L170.729585,1.4379195 L181.866353,0.132012384 L193.80535,-0.314798762 L205.77278,0.201065015 L217.687406,1.77505882 L229.444632,4.37570279 L240.95408,7.97760991 L252.110142,12.5482848 L262.815331,18.0664025 L272.973176,24.498452 L282.480099,31.8231084 L291.241659,40.0119381 L299.153263,49.0344768 L306.117424,58.8683839 L312.038687,69.4811641 L316.821598,80.8494613 L320.357498,92.9438266 L322.54992,105.736842 L323.305437,119.207183 L322.619988,131.553387 L320.626601,143.488322 L317.393313,154.96426 L312.989176,165.920272 L307.492384,176.30457 L300.975034,186.065362 L293.508211,195.151876 L285.171121,203.50826 L276.033833,211.075616 L266.166415,217.811294 L255.645028,223.655381 L244.545833,228.558118 L232.935851,232.460607 L220.898353,235.316136 L208.497313,237.068854 L195.810923,237.667988 L176.836681,236.555022 L159.596879,233.425313 L144.056991,228.59569 L130.183505,222.381969 L117.94291,215.104025 L107.305759,207.068533 L98.2395542,198.595368 L90.7026625,190.00644 L91.0001981,194.805598 L91.1575975,200.519703 L91.3708483,206.99948 L91.8359381,214.094638 L92.7407307,221.654885 L94.2801981,229.532978 L96.6523591,237.580656 L100.054217,245.648644" id="Stroke-2" stroke="#FFFFFF" stroke-width="2.584" sketch:type="MSShapeGroup"></path>
                <path d="M194.030786,232.126514 C261.985684,232.126514 317.075467,181.326118 317.075467,118.651715 C317.075467,55.9783282 261.985684,5.17285449 194.030786,5.17285449 C126.075889,5.17285449 70.9921981,55.9773127 70.9921981,118.651715 C70.9921981,181.328149 126.075889,232.126514 194.030786,232.126514" id="Fill-3" fill="#F1C817" sketch:type="MSShapeGroup"></path>
                <path d="M194.030786,216.290105 C252.491963,216.290105 299.89761,172.576743 299.89761,118.651715 C299.89761,64.7266873 252.491963,21.015356 194.030786,21.015356 C135.566563,21.015356 88.1700557,64.7307492 88.1700557,118.651715 C88.1649783,172.576743 135.566563,216.290105 194.030786,216.290105" id="Fill-4" fill="#FFFFFF" sketch:type="MSShapeGroup"></path>
                <path d="M127.381796,109.397647 C127.381796,109.397647 118.730923,128.720198 119.104619,143.988954 C119.104619,143.988954 121.796656,138.269771 122.747146,139.247678 C122.747146,139.247678 114.969585,163.308458 120.862415,177.07735 C120.862415,177.07735 122.117548,173.256099 124.245994,170.939789 C124.245994,170.939789 127.5067,166.197498 128.770972,162.379294 C128.770972,162.379294 129.390415,163.998985 129.76208,166.891071 C129.76208,166.891071 132.652136,163.537957 133.271579,161.219616 C133.760025,159.412062 135.029375,157.409536 135.909796,155.091195 L136.908012,155.561362 C136.908012,155.561362 142.80795,148.962774 145.062316,142.941994 C145.062316,142.941994 146.81605,142.717573 145.944768,147.459864 C145.944768,147.459864 150.834303,143.062836 150.962254,136.234749 L151.957424,137.282724 C156.09652,142.025015 156.09652,149.313115 155.97974,153.821845 C154.977461,168.280248 146.941969,176.029375 136.911059,184.475121 L137.797573,185.169709 C152.717003,182.629994 162.545833,181.140285 177.685622,185.169709 C183.44644,186.711207 197.369684,192.574588 204.138873,196.511604 C204.138873,196.511604 219.1893,202.523245 229.723889,202.523245 C229.723889,202.523245 230.226551,202.750712 230.226551,202.233833 C230.226551,202.233833 229.094291,198.649189 230.099616,185.170724 C230.099616,185.170724 231.232892,178.930601 232.112297,174.645276 C232.112297,174.645276 233.23948,171.757251 233.36743,165.857313 C233.379616,165.370898 232.857659,161.803517 235.493845,162.151827 C241.20592,162.89922 244.397573,161.690799 248.790539,160.996211 C248.790539,160.996211 253.43839,159.728892 255.326167,159.605003 C255.326167,159.605003 259.729288,160.255926 261.086985,159.835517 C262.584817,159.374489 264.218724,158.210749 266.231406,156.481387 C266.231406,156.481387 268.481709,154.279827 266.975752,149.308037 C266.975752,149.308037 265.474873,144.794229 266.345139,143.406068 C266.345139,143.406068 267.674402,140.338303 269.609907,138.540904 C269.609907,138.540904 270.989944,136.46831 269.109276,135.427443 C269.109276,135.427443 268.110043,134.380483 269.794724,133.976322 C269.794724,133.976322 271.05595,134.08904 271.861226,133.685895 C271.861226,133.685895 272.297882,133.517325 272.363889,132.64909 C272.44208,131.714848 272.872644,127.211195 269.609907,123.273164 C269.609907,123.273164 270.552272,123.509771 271.243814,123.743331 C271.243814,123.743331 275.252929,124.086563 277.329585,123.160446 C279.146279,122.234328 281.779418,121.080743 281.408768,115.523022 C280.385164,110.901573 278.389746,108.119158 276.379096,102.916854 C274.000842,97.365226 273.629176,94.5848421 268.614737,90.7788235 C265.600793,89.5013498 264.218724,87.4216471 266.476136,85.3358514 C268.22987,82.9007307 267.601288,78.5138576 264.478687,75.5029598 C261.463728,72.7246068 259.208347,68.4453746 258.068978,66.2448297 C256.571146,63.9335975 254.936223,61.384743 253.43839,59.8818328 C251.922279,58.1463777 249.672991,57.1126192 245.668954,52.708483 C245.668954,52.708483 243.268359,50.7435294 242.898724,48.6678885 C239.509053,43.8098328 230.099616,36.9786997 219.31522,36.2861424 C216.169263,35.9347864 216.169263,35.9347864 213.912867,35.7042724 C210.159653,34.4328916 198.366885,34.0805201 190.336471,36.1683467 C187.744966,36.6801486 182.561957,37.5534613 182.561957,37.5534613 C179.807975,38.3638142 175.919703,39.0644954 171.655703,41.4864149 C168.521932,42.9883096 163.885251,46.573969 160.370675,48.8872322 C156.600198,52.3632198 148.20218,57.4548359 143.560421,60.3438762 C134.530774,66.4702663 126.752198,74.5717647 122.23839,79.6654118 C122.23839,79.6654118 110.83252,92.847356 105.187467,115.638786 C104.81174,119.108681 103.813523,122.462811 104.42992,126.282031 C104.42992,126.282031 109.45756,116.218625 114.098303,113.086885 C114.098303,113.086885 113.460582,114.946229 113.090947,117.945957 C113.090947,117.945957 115.468186,113.902316 116.466402,113.204681 C116.466402,113.204681 118.224198,111.469226 120.738526,108.700012 C120.738526,108.700012 126.012929,102.333969 127.511777,101.639381 C125.573226,104.995542 125.130477,107.192025 124.943628,110.658873 C125.759059,109.969362 126.25969,109.442328 126.512545,109.040198 C126.512545,109.040198 127.002006,108.113065 127.511777,108.342563 C127.768693,108.943728 127.385858,109.397647 127.385858,109.397647 L127.381796,109.397647" id="Fill-5" fill="#010101" sketch:type="MSShapeGroup"></path>
                <path d="M278.693375,119.522997 C280.004359,116.976173 279.758613,114.487232 277.876929,111.482427 C276.744669,109.746972 275.998291,107.782019 275.115839,105.356037 C274.744173,104.368991 273.991703,102.34717 273.11839,100.614762 C273.060508,99.915096 271.482452,96.681808 270.479158,95.4033189 C267.961783,92.0502043 265.901375,91.7597771 264.523368,90.3706006 L264.001412,90.3604458 C262.543183,91.25813 262.519827,93.2362848 261.277895,94.7402105 C261.151975,94.9037028 260.734613,95.1027368 260.447232,94.9829102 C260.054241,94.7970774 259.893796,94.4792322 259.438861,93.886192 C259.026576,93.3205697 258.69756,93.7247307 258.245672,94.1918514 C257.957276,94.1918514 257.744025,94.4030712 257.517573,94.614291 C257.128644,94.9900186 257.433288,95.1860062 257.744025,95.6084458 C258.058824,96.0440867 257.744025,96.0440867 257.942043,96.2674923 C257.883146,96.4472322 257.82831,96.5162848 257.767381,96.5975232 C257.601858,96.8280372 257.198712,96.7721858 256.902192,96.7224272 C256.071529,96.5975232 256.260409,96.6533746 255.518093,96.3263901 C254.606192,95.9273065 254.170551,94.8255108 253.465808,94.4853251 C253.257635,94.3726068 252.542737,94.2517647 251.997424,94.5838266 C251.595294,94.8336347 251.41657,95.3779319 251.759802,95.6693746 C252.350811,96.1649288 252.812854,96.7478142 253.441437,97.1865015 C254.296471,97.7764954 255.230712,98.2121362 255.34343,99.0387368 C255.494737,100.091789 253.805994,100.47361 253.010873,99.9191579 C252.597573,99.633808 252.113189,99.3129164 251.67044,98.8813375 C251.599356,98.8214241 251.529288,98.4680372 251.434848,98.4040619 C251.077399,98.1552693 250.661053,97.8567183 250.463034,97.5967554 C250.105585,97.1012012 249.635418,96.5782291 248.990588,96.3456842 C248.837251,96.2949102 248.715393,96.0958762 248.602675,95.9212136 C248.308186,95.4439381 248.627046,94.8894861 248.413796,94.4467368 C248.235071,94.0862415 248.149771,93.5003096 247.598365,93.7277771 C247.086563,94.1938824 247.154601,94.1938824 246.578824,94.1481858 C245.845647,94.0882724 246.430563,92.8392322 246.430563,93.0057709 C246.441734,93.0748235 246.401115,92.9813994 246.64483,92.5711455 C246.143183,92.42187 245.387666,92.0481734 245.964458,91.3627245 C246.460012,90.7859319 246.946427,91.6328421 247.134291,91.2865635 C247.200297,91.1545511 247.627814,90.428483 247.789276,90.3279505 C248.351851,90.024322 248.515344,90.4355913 248.594551,90.5483096 C248.351851,91.1809536 249.069796,91.6013622 249.763368,91.2571146 L249.876087,90.6193932 C250.515839,89.5917276 251.507963,89.0514923 252.51735,88.3426873 L252.927604,88.1497461 C253.232248,87.5912322 253.581573,86.7839257 252.939789,86.5280248 C252.404632,86.3198514 251.302836,86.5107616 251.531319,85.635418 C251.634898,85.2251641 252.215752,85.0677647 252.544768,84.9327059 C253.73491,84.4178576 254.969734,83.9070712 256.208619,83.4592446 C256.506155,83.3485573 257.015926,82.9281486 257.392669,82.9037771 C258.955492,82.7890279 258.58992,82.8215232 260.502068,83.1302291 C260.840223,83.1810031 261.494192,83.5110341 261.825238,83.616644 C262.838687,83.9476904 264.286762,83.841065 264.953932,82.8276161 C265.618056,81.8375232 265.431207,80.1599505 264.756929,78.995195 C263.963839,77.5846935 262.743232,76.3661176 261.686118,75.3993808 C260.341622,74.153387 258.59195,73.5166811 258.243641,71.806613 C257.812062,69.7147245 256.055282,66.9455108 255.060111,65.2882477 C254.013152,63.579195 253.089065,62.4388111 251.764879,60.8536471 C251.453127,60.4870588 249.516607,58.6663034 249.18556,58.3667368 C246.974861,56.3794427 246.022341,55.7203963 243.667443,54.9374613 C242.459022,54.5393932 237.75735,54.7942786 235.308012,54.5079133 C234.538279,54.4134737 232.175257,54.3616842 231.531443,53.2060681 C230.952619,52.1580929 230.220458,50.6592446 229.002898,49.9473932 C228.56218,49.6955542 227.891963,49.4305139 227.430935,49.2121858 C225.224297,48.190613 222.943529,46.4785139 220.560198,46.5648297 C219.682824,46.5932632 220.523641,47.4675913 220.750093,47.5660929 C221.829548,48.0900805 222.317994,48.6770279 222.91205,49.3106873 C223.526415,49.9768421 224.866848,50.0012136 226.018402,50.4409164 C227.112074,50.8562477 228.019913,51.5031084 229.040471,51.9986625 C230.005176,52.4657833 231.297882,54.0093127 230.230613,54.6419567 C229.264892,55.2126563 228.24535,54.5190836 226.965845,54.8166192 C226.708929,54.8785635 226.322031,55.0359628 224.837399,55.0359628 C222.86026,55.2857709 222.173796,54.4094118 220.651591,53.4122105 C219.129387,52.4079009 218.170774,50.8714799 216.703406,49.9169288 C214.90296,48.7430341 213.078142,47.7671579 211.015703,47.0989721 C210.561783,46.9507121 209.961635,47.1842724 209.557474,46.9872693 C208.849684,46.6206811 208.305387,45.8346997 207.409734,45.7686935 C205.884483,45.6712074 205.884483,45.5554427 204.363294,45.7686935 C204.150043,45.8103282 203.589498,46.3972755 203.405697,46.3952446 C202.504966,46.3617337 201.463084,46.1322353 201.007133,46.5892012 C200.31356,47.3244087 201.168594,47.2421548 202.061201,47.6432693 C202.564879,47.8544892 203.621994,48.3845697 204.225189,48.3713684 C206.762873,48.3266873 208.389672,48.3084087 210.376966,49.301548 C210.589201,49.4142663 211.479777,50.2225882 211.529536,50.5252012 C209.644805,50.4937214 206.665387,49.8062415 204.484136,49.9697337 C208.151034,49.6955542 200.744124,50.0621424 199.128495,50.0042601 C198.643096,49.9890279 198.643096,50.9039752 199.397598,51.4117152 C199.597647,51.5396656 200.719752,51.3518019 200.865981,51.6828483 C201.522997,51.3609412 203.403666,51.5152941 203.947963,51.7082353 C204.890328,52.0179567 204.357201,51.8849288 205.182786,52.2840124 C205.684433,52.530774 206.165771,52.8648669 206.755765,52.8008916 C207.521437,52.7186378 207.569164,51.6747245 208.338898,52.0098328 C208.602923,52.126613 209.190885,52.4576594 209.31782,52.4495356 C213.667121,52.3743901 213.767653,53.6305387 215.795567,53.6021053 C216.32057,53.6021053 217.100458,53.4081486 217.471108,53.639678 C218.284508,54.1636656 219.05018,54.2266254 220.305313,53.7605201 C220.305313,53.7605201 223.197399,60.929808 222.439851,74.003096 C221.688396,79.5547245 221.315715,80.6016842 219.930601,85.1134613 C219.930601,85.1134613 217.933152,92.2807183 218.673437,97.2525077 C219.437077,114.028235 213.906774,127.911876 207.897164,137.16696 C205.636706,139.708706 204.376495,141.094836 206.642031,142.938947 C211.408693,146.992743 215.300012,147.91683 222.061077,149.311084 C224.45761,150.00161 225.956458,150.232124 228.206762,150.232124 C231.71626,150.232124 237.24961,151.617238 239.750737,153.357771 C242.125944,154.51948 248.528545,156.714947 252.412755,156.132062 C255.796334,156.365622 256.805721,156.598167 258.446737,157.175975 C259.567827,157.631926 260.70618,157.631926 261.959282,157.289709 L263.895802,155.957399 C264.143579,155.3867 265.964334,154.633214 265.591653,152.313858 C265.465734,150.582464 264.711232,148.78405 264.346675,147.169437 C263.262142,145.740656 263.33018,144.680495 263.706923,143.180632 C264.840198,141.091789 266.15626,140.054985 266.850848,139.014118 C268.348681,137.449263 267.480446,136.357622 265.402774,135.827542 C264.401511,135.427443 262.46296,135.598043 260.450279,135.427443 C259.38504,135.427443 258.505635,135.021251 257.00374,135.307616 C257.00374,135.307616 255.987245,135.946353 255.436854,136.414489 L254.674229,136.005251 C254.674229,136.005251 255.37491,134.153015 256.801659,133.053251 C258.245672,133.283765 260.35787,133.439133 261.452557,133.174093 C262.751356,132.627765 264.243096,132.405375 265.337783,132.009337 C267.227591,131.841783 268.104966,131.952471 270.359331,132.072297 C270.359331,132.072297 271.486514,127.56052 267.537313,124.144446 C266.596978,123.343232 265.831307,122.296272 264.47361,122.241437 C259.685622,122.765424 257.065684,120.96904 256.304074,120.50395 C255.123071,120.446068 254.754452,120.913189 254.113684,121.610824 C252.475715,124.146477 250.540211,125.016743 250.540211,125.016743 L249.537932,124.899963 C249.537932,124.899963 250.417337,123.515864 252.413771,121.197523 C253.31044,119.344272 254.552372,117.036087 255.68057,115.875393 C256.366019,114.777659 256.563022,112.291765 258.250749,111.598192 C259.070241,111.598192 259.203269,111.421498 259.812557,111.771839 C258.573672,112.866526 255.05605,116.800495 258.699591,119.226477 C260.196409,120.388186 262.46296,120.388186 263.015381,119.170625 C263.290576,118.503455 263.895802,118.073907 264.209585,117.8373 C266.0933,117.491022 267.664248,118.359257 268.28369,118.825362 C269.789647,120.446068 270.671084,121.195492 271.412384,121.538724 C272.236954,122.12161 273.749003,122.000768 274.492334,122.000768 C276.940656,121.609808 278.253672,120.328272 278.693375,119.51995 L278.693375,119.522997" id="Fill-6" fill="#57211B" sketch:type="MSShapeGroup"></path>
                <path d="M252.473684,92.3832817 C253.231232,92.7366687 253.539938,92.6269969 255.07839,92.8280619 C255.07839,92.8280619 256.426947,93.027096 257.643492,92.0461424 C257.840495,91.8867121 258.863084,91.412483 258.829573,91.0306625 C258.699591,89.268805 258.990019,92.1761238 258.614291,89.5287678 C258.527975,88.9672074 258.55844,88.4564211 258.312693,87.8593189 C258.19896,87.5495975 257.668879,87.0113932 256.888991,87.2601858 C256.744793,87.3109598 255.503876,88.2441858 255.48052,88.2898824 C254.796087,89.5013498 253.728817,89.6414861 253.253573,90.4630093 L252.370105,91.8054737 C252.28582,92.0146625 252.172087,92.2309598 252.473684,92.3832817" id="Fill-7" fill="#57211B" sketch:type="MSShapeGroup"></path>
                <path d="M264.016644,109.807901 C266.168446,109.157994 267.212359,110.08208 269.587567,111.577882 C270.002898,111.837845 270.345115,112.514155 269.744966,112.883789 C269.548978,113.007678 269.099121,112.985337 268.963046,112.865511 C266.878266,111.026477 266.205003,111.010229 263.927282,110.635517 C263.814563,110.627393 263.459146,109.976471 264.016644,109.808916 L264.016644,109.807901" id="Fill-8" fill="#0C130F" sketch:type="MSShapeGroup"></path>
                <path d="M251.220582,130.149994 C250.892582,131.054786 250.565598,131.860062 250.146204,132.72322 C249.718687,133.622935 249.920768,134.732854 249.257659,135.541176 C248.967232,135.900656 248.161957,135.76052 248.041115,135.33808 C247.612582,133.757994 247.824817,132.091591 248.642279,130.643517 C249.07995,129.896124 250.163467,129.523443 251.095678,129.807777 L251.222613,130.274898 L251.222613,130.147963 L251.220582,130.149994" id="Fill-9" fill="#0C130F" sketch:type="MSShapeGroup"></path>
                <path d="M229.648743,119.512842 C228.936892,119.295529 228.552025,118.684211 228.649511,118.009932 C228.891195,118.071876 228.689115,117.754031 228.90135,117.773325 C230.397152,117.859641 231.796483,118.416124 233.2933,118.448619 C234.998291,118.480099 236.709375,118.183579 238.269152,117.502192 C240.204656,116.649189 241.878167,115.739319 243.739542,114.596904 C244.570204,114.089164 245.764409,113.786551 246.794105,113.58244 C248.419889,113.242254 248.315294,112.399406 249.523715,111.736297 C251.295728,110.786824 251.1627,110.08208 252.153808,110.445622 C252.43408,110.549201 251.865412,111.128025 251.562799,111.385957 C250.894613,111.937362 250.015207,112.489783 249.409981,113.469721 C249.272892,113.666724 248.344743,114.583703 248.165003,114.719777 C246.133028,116.103876 245.679108,117.309251 244.167059,119.009164 C243.312025,119.979963 243.033783,121.244235 242.468161,122.366341 C242.128991,123.029449 241.917771,123.716929 241.476037,124.325201 C241.29122,124.578056 240.610848,124.454167 240.379319,124.670464 C239.126217,125.776322 237.928966,126.838514 237.001833,128.281511 C236.84748,128.515071 236.322477,128.505932 236.246316,128.378997 C235.442056,126.95631 234.321981,125.881932 232.41491,125.830142 C232.076755,125.818972 231.710167,125.114229 231.731492,124.490724 C231.743678,124.352619 231.583232,124.094687 231.401461,124.05813 C231.104941,124.013449 230.969882,123.757548 230.659146,123.743331 C230.333176,123.727084 230.075245,123.264025 230.016347,123.068037 C229.629449,121.944916 229.770601,120.695876 229.520793,119.515889 L229.647728,119.515889 L229.648743,119.512842" id="Fill-10" fill="#0C130F" sketch:type="MSShapeGroup"></path>
                <path d="M201.849981,151.6213 C201.533152,150.463653 199.510316,150.566217 198.062241,150.701276 C195.860681,150.919604 193.854093,151.266898 191.719554,152.303703 C193.125994,150.342811 194.856372,150.222985 198.139418,149.058229 C198.88478,148.794204 198.704025,147.581721 198.227765,146.872916 C197.675344,146.059517 196.955368,146.017882 196.676111,145.968124 C193.966811,145.481709 193.096545,146.059517 191.661672,146.399703 C186.695975,147.57969 181.810502,151.040446 179.086985,154.352941 C178.295926,155.320693 178.55792,156.340235 178.722427,156.552471 C179.228136,157.179022 180.016149,158.928693 180.23143,158.716458 C182.245127,156.706824 184.688372,154.854588 187.327604,155.436458 C186.201437,155.771567 182.245127,157.621771 180.988978,160.299591 C180.911802,160.470192 181.498749,161.446068 182.245127,161.964978 C183.254514,163.526786 183.62618,164.160446 184.194848,164.450873 C184.545189,164.419393 185.284458,163.742068 185.487554,163.454687 C188.253721,160.056892 191.020904,157.974142 198.669498,157.051071 C200.865981,156.706824 202.118068,156.123938 202.312025,154.273734 C202.312025,154.273734 202.742588,153.351678 201.870291,151.497412" id="Fill-11" fill="#FFFFFF" sketch:type="MSShapeGroup"></path>
                <path d="M192.712693,162.367108 C192.841659,164.10561 192.568495,164.886514 193.093498,166.019789 C193.611393,167.08909 194.678663,168.016223 195.078762,169.124111 C195.39356,169.965944 196.470985,171.041337 196.470985,171.626254 C196.987864,172.081189 197.0427,172.493474 197.0427,172.493474 C197.705808,173.303827 199.694118,174.275641 198.992421,174.746824 C198.169882,175.332755 195.727653,174.920471 194.259269,174.694019 C192.364384,174.406638 193.459071,175.992817 193.865263,176.154279 C195.787567,176.88644 199.823084,177.134217 201.143207,177.806464 C201.943406,178.212656 202.991381,178.828037 203.329536,179.55309 C203.581375,180.096372 204.030217,180.567554 204.424223,181.036706 C205.693573,182.613746 206.148508,183.296149 207.46457,184.291319 C208.117523,184.787889 208.874056,185.632768 208.645573,186.393362 C208.369362,187.282923 207.758043,187.470786 206.839034,187.355022 C206.548607,187.313387 205.630613,187.061548 204.752223,186.711207 C203.00052,186.205498 202.625808,185.608396 201.366613,186.205498 C200.689288,186.527406 201.681412,187.588582 202.45013,187.974464 C205.599133,189.516978 209.40109,189.551505 212.460731,191.187443 C215.07356,192.58982 216.667864,194.294811 216.526712,197.902811 C216.526712,197.968817 217.469077,198.445077 217.524929,198.36587 C218.421598,197.070118 220.685102,198.678638 221.786898,198.36587 C221.889461,198.333375 221.915864,197.789077 221.767604,197.564656 L219.64322,196.096272 C219.137511,195.348879 219.86561,194.545635 219.615802,193.889635 C219.352793,193.230588 218.134217,194.37808 217.679282,193.941424 C215.670663,192.019121 214.360693,189.734291 211.656471,188.622341 C212.787715,185.736347 213.280223,182.496966 213.026353,180.988978 C212.280991,180.414217 211.969238,181.338303 211.78239,181.453053 C211.161932,181.998365 211.406663,183.188508 210.685672,184.095331 C210.558737,184.247653 209.587938,184.067913 209.314774,183.845523 C207.468632,182.392372 205.745362,180.669102 204.882204,178.605647 C204.854786,178.530502 204.484136,178.108062 204.404929,178.006514 C203.050279,176.25278 203.131517,173.804458 204.705511,172.044632 C204.871034,171.852706 205.129981,170.773251 204.969536,170.651393 C204.685201,170.446266 204.056619,170.861598 203.799703,171.097189 C202.941622,171.908557 202.202353,173.527232 200.753263,173.383034 C199.109201,173.221573 198.488743,171.694291 197.48748,170.696074 C197.171666,169.714105 196.576594,169.085523 196.729932,168.956557 C195.351926,167.108384 195.232099,165.602427 193.952594,163.294241 C193.669276,162.7733 193.272223,162.525523 192.714724,162.367108 L192.712693,162.367108" id="Fill-12" fill="#FFFFFF" sketch:type="MSShapeGroup"></path>
                <path d="M202.251096,193.6053 C203.88805,194.375034 202.003319,192.618254 202.003319,192.618254 C201.374737,192.215108 199.901276,190.11408 199.612879,189.617511 C198.910167,188.491344 198.404458,187.621077 197.983034,186.725424 C197.366638,185.33117 196.139938,184.34717 194.117102,182.545709 C193.103653,181.641932 191.536768,180.042551 190.900062,178.875765 C189.909969,177.064149 189.345362,173.815628 186.963046,172.295455 C185.127059,171.116483 185.566762,169.77605 183.984644,167.49122 C183.375356,166.627046 182.133424,166.51839 181.220508,165.66031 C178.925523,163.527802 180.37969,162.705263 178.37818,160.745387 C177.484557,159.890353 177.105783,159.716706 176.342142,158.404706 C175.34291,156.723071 176.096396,154.517449 174.403591,153.744669 C172.902712,153.052111 171.73491,152.806365 170.717399,152.493598 C169.133251,152.014291 166.618923,150.822118 165.196235,149.800545 C163.701449,148.724136 160.637746,146.368223 157.359777,143.746254 C159.361288,157.973127 156.594105,170.121313 141.300978,182.848322 C169.646068,177.98722 182.058279,184.118687 202.249065,193.604285 L202.251096,193.6053" id="Fill-13" fill="#57211B" sketch:type="MSShapeGroup"></path>
                <path d="M212.961362,175.446489 C213.046663,176.610229 213.479257,176.400025 214.178923,177.99839 C214.529263,178.800619 215.513263,180.204012 216.02608,180.60208 C218.929337,182.848322 220.932879,186.31517 220.729783,189.888644 C220.868904,191.634254 220.968421,191.525598 222.820656,192.73808 C223.135455,192.953362 223.324334,192.970625 224.314427,193.828706 L227.771121,197.072149 C227.705115,196.025189 227.883839,194.264347 227.858452,193.712941 C227.692929,188.255752 228.834328,182.617808 226.822663,177.846068 C225.320768,174.27361 221.936173,170.253325 220.604879,166.517375 L219.937709,164.47626 C219.242105,161.57605 219.175084,158.55195 219.175084,158.55195 L214.980136,156.703777 C211.67678,155.485201 207.959108,154.366142 204.634427,153.234898 C204.634427,154.854588 204.877127,156.003096 203.568173,157.625833 C204.448594,159.596879 205.187864,163.936025 206.194204,164.978923 C208.387641,166.882947 210.144421,168.384842 211.590464,172.956533 C211.917449,174.046142 212.90348,174.635121 212.961362,175.44852 L212.961362,175.446489" id="Fill-14" fill="#57211B" sketch:type="MSShapeGroup"></path>
                <path d="M161.997474,52.253548 C161.997474,52.253548 159.495331,52.0260805 153.593362,56.1865015 C147.080074,59.8879257 138.425139,65.2100557 132.145412,72.2656099 C127.575752,76.4849288 121.111207,82.907839 118.730923,87.4216471 C118.730923,87.4216471 114.837573,93.0900557 112.330353,102.343108 C112.330353,102.343108 113.216867,105.351975 115.720025,101.416991 C120.098774,94.5411765 136.786155,71.3922972 160.616421,54.5119752 L161.754774,54.4520619 C149.955913,63.8147864 134.660755,76.4331393 119.793115,97.8932755 C119.239678,98.6883963 118.52478,100.104991 118.455728,100.213647 C117.788557,101.360124 119.493548,101.536817 118.624297,101.341845 C119.980978,101.647505 120.48161,99.9100186 121.353907,99.5647554 C121.889065,99.3474427 122.120594,100.83309 122.974613,100.451269 C126.011913,99.0945882 128.258155,96.2025015 129.503133,94.4670464 C129.57117,94.9636161 130.270836,96.4360619 130.270836,96.4360619 C131.642749,96.787418 135.914873,91.3505387 138.167207,87.6470836 C138.800867,88.3355789 138.017932,90.0324458 138.846563,89.3063777 C141.424867,87.0631827 143.725944,84.6595418 145.094811,82.4650898 C146.695207,79.8979567 148.45808,78.7423406 149.083616,74.2336099 C150.084879,74.8104025 150.06457,75.0581796 150.339765,75.2693994 C150.969362,74.5768421 151.008966,73.8467121 152.010229,72.8119381 C153.091715,71.6827245 153.309028,70.8033189 154.632198,70.0051517 C155.106427,69.7147245 156.146279,67.9061548 156.356483,66.9637895 C156.552471,66.0671207 158.70935,63.1598019 158.864718,62.1961115 C160.616421,59.1862291 163.634427,57.5685697 165.760842,55.256322 C167.768446,53.6437399 166.261474,50.7486068 161.998489,52.2525325 L161.997474,52.253548" id="Fill-15" fill="#FFFFFF" sketch:type="MSShapeGroup"></path>
                <path d="M139.923988,142.596731 C140.804409,143.523864 141.548755,142.306303 141.548755,142.306303 C142.999876,140.284483 143.311628,139.760495 144.314923,137.044087 C144.945536,135.249734 145.693944,134.613028 146.320495,127.101523 C148.079307,129.527505 148.327084,134.153015 148.327084,134.153015 L148.830762,134.039282 C148.830762,134.039282 150.463653,129.757003 153.21865,128.370873 C153.21865,128.370873 153.468458,125.478786 156.225486,122.591777 C155.855851,120.853276 155.594873,119.462068 155.230316,116.685746 C154.09704,112.062266 153.468458,104.313139 154.598687,98.9910093 C156.851022,110.090204 158.173176,111.717003 158.173176,111.717003 L158.674824,111.885573 C159.618204,110.559356 159.872074,108.248124 160.132037,106.163344 C161.245003,101.768347 163.255653,102.232421 163.255653,101.302241 C162.62504,97.718613 161.627839,92.0502043 162.248297,87.1891022 C163.507492,92.5102167 164.133028,92.1669845 165.001263,94.138031 C166.131492,96.5609659 166.258427,93.5510836 166.258427,93.5510836 C166.013697,90.4315294 168.397028,87.3038514 166.131492,80.0147368 C165.259195,75.0439628 162.748929,64.3997028 163.754254,61.966613 C164.384867,58.963839 163.252607,60.000644 163.252607,60.000644 C163.252607,60.000644 159.985808,60.6952322 155.102365,73.4242724 C147.956433,94.5919505 141.807703,117.146774 135.15631,135.427443 C137.156805,125.825065 147.819344,91.9313932 150.962254,79.6755666 C150.962254,79.6755666 150.521536,78.8012384 149.836087,79.7832074 C149.013548,80.6534737 148.20218,81.748161 147.760446,82.4996161 C147.821375,82.454935 147.385734,82.5615604 146.889164,82.7991827 L145.310093,84.9916037 C145.310093,84.9916037 142.186477,89.0362601 133.59044,97.2535232 C132.14135,99.3433808 131.520892,100.296916 129.954006,103.61652 C129.387368,104.83205 130.264743,105.007728 131.207108,104.31517 C133.521387,102.232421 133.648322,102.232421 136.85013,99.9729783 C136.991282,99.8744768 139.56857,99.0184272 139.56857,98.9767926 C139.161362,99.4550836 138.617065,99.7688669 138.419046,99.9546997 C137.530502,100.72748 135.35839,102.979814 134.769412,103.936396 C133.30509,106.26083 131.71891,109.14987 129.621944,112.65226 C126.992867,117.039133 124.993387,122.127703 124.993387,122.127703 C123.61335,125.714378 123.989077,126.060656 123.989077,126.060656 C125.865684,126.754229 124.843096,127.631604 124.843096,127.631604 C123.989077,129.071554 123.610303,130.221077 125.058378,129.704198 C126.004805,129.527505 126.504421,129.086786 126.891319,128.63896 C127.63465,127.796111 128.256124,127.215257 128.769957,126.631356 C129.610774,125.663604 129.447282,125.369115 130.355121,124.416594 C131.522923,123.16857 132.264223,122.125672 133.462489,121.61387 C131.385833,124.210452 131.264991,126.060656 131.264991,126.060656 L131.7707,126.634402 L132.133226,126.869994 C132.133226,126.869994 130.005796,129.296991 129.011641,134.804954 C128.525226,137.42083 128.624743,137.746799 128.188087,139.19792 C128.399307,139.012087 129.636161,139.19792 130.738972,138.163146 C130.260681,139.771666 130.164211,140.582019 130.164211,140.582019 C129.951975,141.909251 129.951975,141.679752 129.951975,143.18774 C129.951975,144.578947 129.951975,143.988954 130.451591,145.610675 C132.705957,144.685573 133.204557,144.802353 135.333003,142.492136 C136.340359,141.62187 137.112124,139.508656 137.418799,139.652854 C137.976297,139.890477 137.502068,141.066402 137.250229,141.584297 C136.909028,142.312396 136.602353,142.855678 136.478464,143.37865 C136.409412,143.647752 136.122031,144.038712 136.580012,144.401238 C136.778031,144.564731 136.63891,144.539344 137.282724,144.524111 C137.663529,144.514972 138.019963,143.975752 138.019963,143.975752 C138.019963,143.975752 138.222043,143.932087 138.421077,143.529957 C138.56426,143.190786 138.850625,142.999876 139.100433,142.836384 C139.104495,142.833337 139.481238,142.486043 139.921957,142.597746 L139.923988,142.596731" id="Fill-16" fill="#FFFFFF" sketch:type="MSShapeGroup"></path>
                <path d="M81.8588483,71.3425387 L79.2277399,71.3425387 L87.8826749,53.1786502 L77.2201362,60.8709102 L74.7707988,49.3634923 L69.1958142,65.0414861 L66.4946378,63.1354303 L62.4245944,71.5720372 L59.4076037,71.5720372 L59.4076037,80.7093251 L77.8456718,80.7093251 L81.8588483,71.3435542 L81.8588483,71.3425387" id="Fill-17" fill="#0C130F" sketch:type="MSShapeGroup"></path>
                <path d="M66.1879628,80.2462663 L75.9660186,86.2579071 L76.9682972,83.5943034 L71.1983406,80.131517 L66.1879628,80.2442353 L66.1879628,80.2462663" id="Fill-18" fill="#0C130F" sketch:type="MSShapeGroup"></path>
                <path d="M68.9490526,78.9748854 L74.2122848,83.9487059 C74.2122848,83.9487059 70.0772508,100.024768 70.8276904,108.822885 C78.4844087,115.64691 84.1264149,122.240421 83.2480248,137.044087 C83.2480248,137.044087 83.7476409,137.38935 80.4909969,136.46831 C82.1228731,138.089015 82.6184272,139.360396 83.9994799,142.133672 C84.6250155,146.645449 85.0119133,150.696198 84.6250155,154.860681 C84.6250155,154.860681 85.0119133,165.15257 85.381548,168.390935 C86.8905511,168.852978 86.01013,172.557449 86.1380805,177.418551 C86.1380805,177.418551 86.01013,180.424372 85.4993437,182.740681 C82.3726811,180.424372 82.6184272,180.545214 81.7440991,180.775728 C82.4925077,183.07782 82.9961858,183.07782 84.5092508,184.933102 C84.5092508,198.703009 85.0088669,212.929882 86.0080991,219.179146 C86.5087307,223.688892 87.3871207,228.888149 87.7638638,230.513932 C88.5153189,232.592619 88.5153189,234.436731 90.7737461,238.838836 C90.0233065,238.838836 87.9202477,238.895703 86.5066997,237.224223 C88.5153189,240.690056 88.5153189,240.000545 89.7714675,241.155146 L91.5221548,253.185536 L89.520644,255.262192 L92.2857957,256.880867 C92.2857957,256.880867 91.6561981,262.320793 92.4086687,267.290551 C92.7783034,269.606861 93.5368669,271.922155 95.3007554,275.158489 C91.6561981,275.282378 91.0306625,272.50504 91.0306625,272.50504 C90.0283839,271.457065 88.2716037,269.13974 87.7679257,269.13974 C87.5181176,272.50504 89.5247059,273.777437 90.401065,275.74239 C92.9560124,281.39252 93.2951827,286.849709 91.0306625,297.367034 C88.5214118,295.173598 88.3965077,293.20052 86.5117771,292.164731 C86.266031,298.171294 86.014192,300.02556 84.7610898,302.679009 C82.1289659,307.423331 81.371418,309.868607 81.2485449,314.493102 C76.8576099,311.128817 75.7294118,306.506353 72.7174985,303.846811 C70.5839752,301.882873 66.3250526,298.176372 64.817065,295.749375 C64.5642105,298.633337 64.817065,299.687406 63.5609164,302.453573 C62.5555913,299.24161 62.4357647,298.293152 60.0504025,295.637672 C56.9166316,291.583876 49.8874799,282.564384 48.2627121,272.963022 C47.8798762,271.340285 46.880644,266.599009 45.7544768,260.117201 C44.8720248,262.323839 43.374192,264.055232 41.8672198,264.403542 C41.1086563,264.756929 41.1086563,263.829796 41.1086563,263.829796 C41.7362229,261.739938 41.9890774,259.431752 41.7362229,257.697313 C41.3655728,255.143381 40.6110712,249.483096 39.2269721,248.09392 L38.5953437,248.09392 C38.7212632,251.908062 37.089387,253.645548 36.0881238,254.916929 C35.9642353,251.908062 36.0881238,249.599876 35.3376842,248.09392 C34.9609412,247.043913 34.0835666,246.128966 33.8296966,247.166786 C33.2051765,250.176669 32.9533375,250.754477 32.9533375,253.528768 C32.7055604,257.697313 32.7055604,259.090551 32.1957895,262.555368 C31.9500433,265.102192 31.0696223,268.221746 28.5664644,271.340285 C28.0648173,268.574118 26.1821176,266.372557 26.1821176,266.372557 C26.1821176,269.725672 26.9376347,274.697461 24.6812384,277.363096 C21.9150712,280.829944 21.5373127,282.565399 20.6629845,285.114254 C20.2842105,282.101325 19.2839628,283.029474 18.7863777,281.407752 C16.7736966,289.267567 10.496,295.2853 8.24366563,296.669399 C9.74962229,293.442204 11.0078019,289.733672 11.2576099,287.418378 C11.2576099,287.418378 10.8808669,278.859913 9.49473684,274.00592 C6.06343034,258.860037 4.40312074,223.885895 6.99564087,210.604433 C13.2591207,162.948978 40.1043467,119.218353 62.6784644,79.8898328 L68.9490526,78.9789474 L68.9490526,78.9748854" id="Fill-19" fill="#0C130F" sketch:type="MSShapeGroup"></path>
                <path d="M71.5811765,83.71413 C71.5811765,83.71413 67.6878266,99.0986502 68.4453746,109.860706 C73.7177461,114.024173 79.3587368,119.692582 79.6105759,131.373647 C79.1718885,131.551356 79.1099443,131.434576 78.7271084,131.141102 C77.230291,129.358935 73.2140681,128.768941 70.2041858,124.264272 C70.644904,127.099492 79.4937957,138.437325 80.1162848,140.629746 C80.2371269,147.690378 81.3653251,157.92743 80.7347121,159.948235 L77.7258452,158.096 C79.3587368,161.970056 80.7347121,165.385115 82.681387,168.219319 C82.681387,168.219319 82.8722972,178.221796 82.4894613,176.833635 L81.9878142,176.833635 C80.2340805,175.671926 78.4793313,174.287827 77.1663158,173.132211 C76.3447926,172.729065 76.222935,171.749127 74.7129164,170.407678 C72.4615975,168.502638 71.2024025,166.882947 70.2620681,166.533622 C67.8746749,164.978923 66.2478762,164.45595 64.86987,164.05382 C64.4342291,164.05382 63.5527926,163.936025 63.5527926,163.936025 C63.5527926,163.936025 68.0686316,167.463802 70.9525944,171.454638 C74.405226,175.272842 75.8451765,177.524161 77.029226,179.831331 C78.3503653,182.15678 80.233065,184.46395 81.7359752,186.427889 C81.7359752,189.61548 81.4841362,200.192718 81.672,201.987071 L80.7286192,201.350365 C78.4762848,200.078985 76.0289783,197.237672 73.9553684,193.54031 C72.8292012,198.867517 78.9728545,205.107641 81.7958885,207.193437 C82.7362229,217.086241 82.7362229,221.703628 84.497065,232.114328 L84.37013,232.926712 C81.8547864,231.311084 79.2277399,228.759183 76.0899071,224.603839 C75.8400991,228.64748 80.2290031,233.968594 84.8727926,239.05818 C85.4820805,239.739567 85.3185882,240.629127 85.6496347,241.400892 C86.1990093,242.679381 86.7504149,244.266576 87.4389102,245.131765 C88.003517,247.382068 88.2543406,250.396012 88.1284211,251.667393 L86.2477523,255.023554 L88.7539567,257.802923 C89.0017337,260.808743 88.3802601,261.613003 88.7539567,264.971195 C88.7539567,264.971195 85.8750712,264.742712 84.6118142,261.726737 C82.3594799,267.52005 84.8687307,273.998811 86.8732879,277.35091 C88.3782291,281.283864 89.2545882,283.709845 89.0017337,287.990093 L88.4990712,289.256396 C87.0002229,286.484136 84.8677152,284.174935 82.73013,282.669994 L81.8588483,282.446588 C83.9690155,294.616099 83.2419319,298.634353 79.2318019,306.395666 L78.5961115,305.813796 C76.3417461,301.757969 72.0807926,298.634353 69.0739567,295.75039 C68.5682477,295.638687 63.3050155,289.501127 62.9201486,284.526291 L62.2976594,284.647133 C62.0458204,286.382588 61.2892879,290.086043 61.7960124,290.77657 L61.2923344,290.546056 C58.2865139,289.268582 52.8272941,279.445845 51.8910217,273.779467 C51.8910217,273.779467 51.6919876,272.672594 51.2604087,270.417214 C51.0694985,268.221746 49.8204582,261.51044 49.5645573,260.582291 C49.12587,258.096396 47.9793932,254.954502 47.5011022,253.298254 C47.5660929,252.717399 47.1274056,252.544768 46.8115913,253.010873 C46.1190341,253.923789 45.5615356,254.800149 45.1786997,254.223356 C44.8639009,253.647579 45.1198019,252.721461 45.3706254,251.45008 C44.8679628,251.793313 43.7417957,251.938526 43.6118142,251.102786 C42.2297461,245.433362 41.480322,238.376793 41.480322,232.590588 C42.110935,231.09174 43.8616223,228.320495 45.2467368,225.301474 L45.1228483,224.612978 C43.6138452,225.301474 41.1035789,227.618799 40.6049783,228.884087 L39.9743653,228.080842 C39.4747492,225.757424 38.9751331,221.249709 38.9751331,216.512495 C38.7232941,215.642229 39.0949598,215.128396 39.4777957,214.4267 C40.4760124,212.233263 41.6133498,209.777833 42.4846316,207.37013 C43.2411641,204.935009 47.4422043,197.429598 48.7003839,195.686019 L47.8727678,196.378576 C45.5635666,197.137139 39.6006687,203.786502 38.8502291,204.250576 L38.2846068,204.302365 C38.5953437,197.649957 40.6029474,182.848322 41.9809536,173.759777 C43.3640372,170.350811 54.1504644,159.943158 51.6361362,161.791331 C46.751678,163.413053 45.1218328,165.031728 44.1114303,165.494786 L42.6085201,165.958861 C44.1063529,159.500409 47.2238762,136.159604 50.514031,129.866675 C52.8922848,126.048471 55.2806935,125.008619 57.0334118,120.844136 L55.7752322,121.417882 C54.900904,122.234328 51.0075542,124.89387 48.6303158,127.903752 L47.8676904,128.016471 C48.9958885,125.01065 49.375678,121.774316 51.6330898,117.607802 C52.2555789,115.866254 53.2649659,115.174712 54.0225139,113.673833 C55.8970898,111.471257 56.6526068,110.66192 58.4104025,109.853598 C59.2816842,109.513412 60.9166068,108.932557 60.9166068,108.932557 C55.910291,127.876334 54.143356,143.277102 52.6363839,164.337139 C51.1294118,197.886563 54.1809288,238.481387 66.4408173,263.590142 C56.6526068,234.211294 52.8892384,202.284607 54.143356,169.89283 C55.1456347,142.127579 59.6553808,119.915988 69.4476533,82.4407183 L71.57813,83.7070217 L71.5811765,83.71413" id="Fill-20" fill="#FFFFFF" sketch:type="MSShapeGroup"></path>
                <path d="M64.9338452,80.8220433 C61.8010898,84.7590588 40.2241734,122.23839 38.0947121,129.067492 C19.0392322,164.345263 7.7410031,199.5093 8.49550464,234.104669 C8.49550464,249.254613 10.2583777,259.669375 12.2558266,270.770601 C13.1382786,275.046786 14.3883344,280.831975 14.1375108,284.530353 L14.7711703,284.18509 C15.6454985,282.680149 18.0257833,277.942935 18.7863777,274.010997 C19.0392322,272.508087 19.9145759,274.010997 19.9145759,274.010997 C20.2821796,275.046786 21.040743,275.514923 21.1666625,276.550712 C21.1666625,277.480892 21.6591703,277.369189 21.9160867,276.66343 C23.2951084,274.125746 23.6728669,272.613697 23.1671579,269.957201 C22.6685573,267.761734 22.2968916,258.62343 23.4200124,255.266254 C23.4200124,254.336074 24.2963715,255.266254 24.2963715,255.266254 C24.9290155,256.657461 25.9312941,259.203269 28.1815975,261.286019 C28.1815975,261.286019 29.1249783,261.859765 29.1889536,261.286019 C28.9482848,258.856991 28.6933994,243.007381 32.7035294,241.266848 C34.2054241,241.611096 34.3343901,242.544322 35.4615728,243.583158 C36.7227988,242.308731 37.2234303,236.874898 36.8446563,232.708384 C36.9695604,226.233684 35.9622043,219.750861 35.3376842,215.709251 C34.8116656,214.432793 35.3376842,214.199232 36.0891393,213.964656 C36.2739567,213.839752 39.1000372,210.611542 39.1000372,208.881164 C36.7258452,210.383059 36.0891393,210.732384 33.8317276,212.125622 C33.5819195,207.142663 31.1975728,199.279802 28.5684954,193.139195 C31.3285697,195.465659 33.0762105,198.118093 33.9586625,200.319653 C34.9609412,195.232099 35.3376842,192.215108 35.4646192,189.78608 C34.0896594,185.273288 31.4565201,175.44852 31.7042972,168.155344 C33.3341424,173.477474 34.8360372,179.261647 36.4709598,182.734588 C37.2234303,180.181672 37.8479505,175.671926 38.8522601,171.853721 C40.2262043,170.928619 41.8611269,170.002502 42.360743,169.200272 C41.859096,168.383827 39.7204954,169.894861 39.3518762,170.002502 C39.6006687,166.417858 40.2262043,159.478068 37.5971269,148.141251 L37.9677771,147.792941 C39.0949598,148.260062 40.4739814,150.339765 40.976644,152.542341 C43.2371022,150.112297 44.7430588,138.083938 45.3675789,133.342663 C42.9852632,133.342663 41.859096,135.768644 40.2241734,135.533053 C40.4739814,134.028111 40.5999009,134.729808 41.226452,133.342663 C41.857065,131.717895 43.3640372,130.093127 43.9895728,127.900706 C45.3675789,126.048471 45.3675789,123.850972 45.4965449,121.770254 C45.4965449,119.803269 45.2467368,116.913214 46.9974241,114.36639 C47.3802601,115.398118 47.1274056,116.102861 47.9976718,118.297313 C47.9976718,118.297313 51.5152941,111.240743 53.3979938,109.62613 C55.8970898,99.559678 61.9209164,88.2218452 67.5710464,80.8139195" id="Fill-21" fill="#FFFFFF" sketch:type="MSShapeGroup"></path>
                <path d="M66.0600124,87.1830093 C61.9188854,92.6280124 58.9079876,101.18343 57.4,107.314898 C59.2816842,106.387765 59.4076037,106.498452 61.1653994,105.926737 C61.7960124,103.030588 66.7403839,86.2924334 66.0600124,87.1830093" id="Fill-22" fill="#FFFFFF" sketch:type="MSShapeGroup"></path>
                <path d="M24.5756285,219.27257 C24.650774,219.608693 25.2336594,219.399505 24.9269845,219.734613 C25.6784396,219.734613 26.4623901,219.869672 27.1579938,219.672669 C27.5113808,219.578229 27.7510341,219.069474 27.8129783,218.792248 C28.0181053,217.824495 28.5349845,216.590687 27.5926192,215.912347 C26.7639876,215.291889 26.9071703,214.312966 26.3232693,213.837721 C26.0531517,213.619393 25.4773746,213.472149 25.0874303,213.110638 C24.7970031,212.836458 24.269969,213.448793 24.272,213.723988 C24.2872322,214.481536 24.8305139,215.251269 24.8183282,216.065684 C24.8000495,217.307616 24.1745139,217.655926 24.5776594,219.278663 L24.5756285,219.27257" id="Fill-23" fill="#F1C817" sketch:type="MSShapeGroup"></path>
                <path d="M15.5216099,208.641511 C15.4363096,207.301077 14.9580186,205.410254 17.1220062,205.942365 C17.8023777,206.102811 17.9587616,207.032991 17.9750093,207.483864 C18.0105511,208.697362 18.3101176,209.663084 18.8676161,210.726291 C19.1864768,211.327455 18.6482724,211.849412 18.3202724,212.277944 C17.4814861,213.423406 15.7551703,214.070266 14.7701548,212.942068 C14.1669598,212.256619 13.4347988,211.229969 13.9801115,210.292681 C14.4076285,209.556458 14.7478142,209.156359 15.3946749,208.514576" id="Fill-24" fill="#F1C817" sketch:type="MSShapeGroup"></path>
                <path d="M17.6937214,222.412433 C16.5553684,220.902415 17.0884954,219.495975 18.420805,218.600322 C19.2616223,218.036731 20.2821796,218.415505 20.5238638,219.079628 L22.0420062,223.017659 C22.5192817,224.427146 20.5827616,225.79195 19.2199876,225.17657 C18.2491889,224.720619 18.3162105,223.241065 17.6937214,222.412433" id="Fill-25" fill="#F1C817" sketch:type="MSShapeGroup"></path>
                <path d="M18.8594923,227.893994 C18.3162105,227.736594 18.2644211,228.170204 17.9953189,228.392594 C17.4296966,228.839406 17.4276656,229.777709 16.9341424,230.394105 C16.0141176,231.534489 16.2923591,233.148087 16.65387,234.236681 C16.8965697,234.984074 18.1080372,236.072669 19.1377337,235.989399 C20.765548,235.865511 21.9699071,233.072941 20.7279752,232.409833 C19.1133622,231.526365 19.6810155,229.304495 19.0859443,228.098105 C19.0422786,228.010774 18.6553808,228.06561 18.4015108,228.06561" id="Fill-26" fill="#F1C817" sketch:type="MSShapeGroup"></path>
                <path d="M29.2092632,225.040495 C28.7929164,224.528693 28.7756533,223.839183 29.2529288,223.511183 C29.6916161,223.215678 30.453226,223.357845 30.8969907,223.711232 L31.6179814,224.185461 C32.9645077,225.172508 33.7900929,226.495678 33.0609783,228.008743 C32.8629598,228.434229 32.0607307,228.836359 31.5012012,228.449461 C31.0665759,228.149895 30.4623653,228.129585 30.1607678,227.616768 C29.6773994,226.781028 29.873387,225.835616 29.2092632,225.040495" id="Fill-27" fill="#F1C817" sketch:type="MSShapeGroup"></path>
                <path d="M14.3852879,215.689957 C14.1436037,214.951703 13.4652632,215.314229 13.0895356,215.851418 C12.2020062,217.120768 11.757226,218.349498 11.630291,220.201734 C11.8800991,221.237523 13.498774,221.436557 14.2878019,220.974514 C16.0852012,219.936693 14.7996037,215.953981 14.7122724,216.503356 C14.7671084,216.146923 14.3842724,215.61278 14.3842724,215.691988 L14.3852879,215.689957" id="Fill-28" fill="#F1C817" sketch:type="MSShapeGroup"></path>
                <path d="M49.2649907,227.139492 C48.899418,226.883591 48.2931765,227.139492 48.2586502,227.554824 C48.1215604,228.74192 48.1022663,230.993238 50.0580805,230.62665 C50.7536842,230.501746 51.2147121,229.840669 51.0502043,229.169437 C50.812582,228.208793 50.0428483,227.671604 49.2639752,227.138477 L49.2649907,227.139492" id="Fill-29" fill="#F1C817" sketch:type="MSShapeGroup"></path>
                <path d="M53.9534613,231.35678 C53.4772012,230.920124 52.6363839,230.990192 52.2840124,231.236954 C51.5680991,231.748755 51.3010279,232.830241 51.5559133,233.647703 C51.8351703,234.536248 52.1641858,235.485721 52.8780681,236.174217 C53.3380805,236.61595 54.2906006,237.127752 54.5444706,236.808892 C55.1304025,236.04322 55.6767307,235.021647 55.4167678,233.918836 C55.17813,232.937882 54.6906997,232.062539 53.9534613,231.35678" id="Fill-30" fill="#F1C817" sketch:type="MSShapeGroup"></path>
                <path d="M71.8898824,229.97065 C71.5405573,229.999084 71.097808,230.043765 70.9546254,230.241783 C70.2549598,231.256248 71.0226625,232.436235 71.9528421,232.85969 C72.9277028,233.321734 74.1574489,231.803591 73.4344272,230.966836 C72.9744149,230.420508 72.2473313,229.952372 71.3912817,229.97065" id="Fill-31" fill="#F1C817" sketch:type="MSShapeGroup"></path>
                <path d="M63.2816594,240.612879 C62.9201486,240.442279 62.3514799,239.371963 62.6297214,238.655034 C62.8856223,238.013251 63.6776966,237.754303 64.3529907,237.86296 C65.1298328,237.998019 65.627418,238.502712 66.0661053,239.033808 C67.2156285,240.395567 67.5395666,242.524012 66.0488421,243.663381 C65.4426006,244.13761 64.3529907,244.024892 63.9244582,243.357721 C63.37813,242.524012 63.782291,241.854811 63.3639133,240.962204 L63.2816594,240.613895 L63.2816594,240.612879" id="Fill-32" fill="#F1C817" sketch:type="MSShapeGroup"></path>
                <path d="M73.6994675,241.359257 C72.6768793,240.622019 73.1013498,239.139418 71.9721362,238.475294 C71.3415232,238.094489 70.5067988,238.003096 69.9228978,238.452954 C69.3085325,238.945461 69.3115789,239.652235 69.1541796,240.391505 C69.0688793,240.801759 69.3562601,241.164285 69.5512322,241.519703 C70.3758019,243.074402 72.3773127,243.126192 73.9401362,244.003567 C74.1483096,244.120347 74.5545015,243.723294 74.707839,243.473486 C75.1912074,242.696644 74.4113189,241.87309 73.6994675,241.359257" id="Fill-33" fill="#F1C817" sketch:type="MSShapeGroup"></path>
                <path d="M57.1034799,239.903059 C56.5733994,239.31408 55.6625139,239.507022 55.1182167,239.848223 C54.9313684,239.962972 54.7465511,240.268632 54.7465511,240.49813 C54.7343653,242.002056 54.1910836,243.560817 54.7861548,244.98452 C55.1456347,245.843616 55.9742663,246.884483 57.0476285,246.445796 C57.8153313,246.130997 58.2926068,245.272916 58.0346749,244.447331 C57.5584149,242.919034 58.2641734,241.195765 57.1014489,239.903059 L57.1034799,239.903059" id="Fill-34" fill="#F1C817" sketch:type="MSShapeGroup"></path>
                <path d="M85.4891889,240.362056 C85.1622043,239.307988 83.1068731,240.378303 82.3696347,239.703009 C81.722774,239.109969 80.9439009,238.578873 80.8271207,237.644632 C80.3041486,238.743381 80.7204954,239.882749 81.2739319,240.853548 C81.5887307,241.409015 82.3178452,241.706551 82.7869969,242.198043 C83.3231703,242.729139 83.5110341,243.463331 83.8126316,244.133548 C84.1954675,245.008892 83.2652879,245.51257 82.681387,245.61818 C80.8453994,245.929932 80.7925944,243.499889 80.2147864,242.327009 C79.8085944,241.485176 78.6387616,241.15413 78.0172879,240.378303 C77.8669969,240.20161 77.5968793,240.008669 77.4557276,239.78831 C76.9378328,238.933276 75.8837647,238.327034 75.4247678,237.424272 C75.3425139,237.818279 75.4867121,238.211269 75.6136471,238.56161 C76.4879752,241.117573 77.8954303,243.371938 79.1058824,245.781672 C79.4470836,246.450873 79.8217957,247.110935 80.0289536,247.843096 C80.2147864,248.466601 80.1142539,249.215009 79.7212632,249.601907 C79.3343653,250.002006 78.4123096,249.138848 78.2234303,249.42826 C77.5572755,250.509746 78.5961115,251.800421 79.1901672,252.858551 C79.6146378,253.608991 80.3640619,254.356384 80.0116904,255.218526 C79.9446687,255.385065 79.6918142,255.613548 79.4348978,255.678539 C78.544322,255.898898 77.7654489,255.369833 77.2932508,254.90982 C75.4430464,253.124607 73.8304644,251.330254 72.3651269,249.184545 C71.7995046,248.364037 72.107195,247.294737 71.4826749,246.486415 C71.1242105,246.022341 70.4387616,245.271901 69.8162724,245.783703 C69.614192,245.960396 69.3714923,246.195988 69.3268111,246.45595 C69.1308235,247.509003 68.9003096,248.49605 68.2057214,249.274923 C68.0077028,249.496297 67.6228359,249.855777 67.5456594,249.988805 C66.5972012,251.600372 66.3849659,253.4587 66.0813375,255.347492 C66.004161,255.79735 65.8833189,256.359926 65.3796409,256.591455 C64.8536223,256.851418 64.4971889,256.329461 64.209808,255.994353 C63.4481981,255.129164 63.1384768,254.097437 62.6124582,253.108359 C62.2976594,252.490947 62.2844582,251.73543 61.8610031,251.085523 L61.6345511,251.069276 C61.7066502,251.245969 61.5340186,251.404384 61.4548111,251.515071 C60.9521486,252.314254 60.1296099,252.680842 59.2309102,252.99361 C58.737387,253.170303 58.1778576,252.835195 58.0712322,252.442204 C57.4649907,250.196978 55.7884334,248.600644 55.1080619,246.448842 C54.0702415,246.45392 53.0486687,246.672248 52.3682972,245.736991 C50.8714799,243.695876 51.1710464,241.402923 50.9740433,239.161759 C50.638935,239.42883 50.2317276,239.615678 49.9890279,239.980235 C47.6077276,243.511059 46.6937957,247.190142 45.6752693,251.18504 C45.4742043,251.986254 45.3472693,252.283789 45.0741053,253.033214 C44.5125449,254.604161 45.388904,254.828582 46.2703406,253.7867 C47.809808,251.956805 47.4879009,253.466824 47.6463158,253.90348 C48.0281362,256.575207 49.530031,259.22561 50.1474427,263.737387 C50.6602601,268.128322 51.6584768,272.526365 52.1580929,274.724879 C53.4934489,281.947988 58.6815356,289.303108 61.8173375,291.125895 C61.4446563,288.120074 62.569808,286.984768 62.3210155,284.667443 L62.9556904,284.550663 C63.0724706,288.604458 66.3352074,293.809808 70.0945139,296.704941 C73.1043963,299.938229 74.7393189,300.629771 77.2759876,303.986947 C78.0274427,305.141548 78.6265759,305.673659 79.2551579,306.598762 C80.6331641,303.986947 83.1444458,299.364483 83.1444458,294.272867 C83.1444458,290.366316 83.0134489,285.945932 81.8893127,282.467913 C84.1487554,283.402155 86.6600372,286.752223 88.5407059,289.651418 C89.6678885,287.442749 89.040322,281.317375 87.2876037,278.311554 C85.5308235,274.607084 82.6448297,269.518514 84.651418,261.999901 C85.9024892,264.655381 86.7839257,264.540632 88.7925449,265.002675 C89.1703034,262.226353 88.6645944,258.296446 88.7925449,257.832372 C88.030935,256.57013 86.2883715,255.047926 86.2883715,255.047926 L88.1649783,251.70395 C89.0453994,248.34982 87.2936966,245.685201 87.4785139,245.169337 C86.5300557,243.260235 85.8862415,241.626328 85.4902043,240.359009 L85.4891889,240.362056" id="Fill-35" fill="#F1C817" sketch:type="MSShapeGroup"></path>
                <path d="M63.7965077,221.777759 C63.5233437,221.061845 62.7597028,220.531765 63.1658947,219.819913 C63.278613,219.620879 63.6939443,219.670638 63.9975728,219.604632 C64.8891641,219.385288 65.9462786,219.514254 66.5362724,220.097139 C67.0003467,220.558167 67.3151455,221.102464 67.7020433,221.67418 C68.0909721,222.265189 68.1975975,222.970947 68.4534985,223.624916 C68.7408793,224.342861 68.4240495,225.141028 67.8147616,225.482229 C67.1069721,225.877251 66.8053746,226.216421 65.7665387,225.786873 C65.3765944,225.626427 65.1369412,224.852632 64.9511084,224.55408 C64.7124706,224.153981 64.7287183,223.020706 64.4098576,222.64904 C64.1194303,222.329164 63.9630464,222.217461 63.7944768,221.777759 L63.7965077,221.777759" id="Fill-36" fill="#F1C817" sketch:type="MSShapeGroup"></path>
                <path d="M63.1212136,225.685325 C62.8165697,225.416223 62.4144396,225.43044 62.0965944,225.408099 C61.9442724,225.400991 61.5025387,225.432471 61.5198019,225.690402 C61.6233808,227.09278 59.8625387,227.750811 59.3283963,228.855653 C58.7912074,230.00213 59.8930031,231.085647 60.8018576,231.858427 C61.5299567,232.476854 62.6825263,232.057461 63.5649783,231.807653 C65.022192,231.404508 65.2080248,229.522824 64.86987,228.254489 C64.6078762,227.296892 63.9518762,226.439827 63.1212136,225.685325" id="Fill-37" fill="#F1C817" sketch:type="MSShapeGroup"></path>
                <path d="M79.7872693,74.2366563 L62.5454365,74.2366563 L62.5454365,77.937065 L78.2863901,77.937065 L79.7872693,74.2366563" id="Fill-38" fill="#FFFFFF" sketch:type="MSShapeGroup"></path>
                <path d="M77.8426254,63.883839 L78.4712074,66.6032941 L81.7359752,60.75413 L77.8426254,63.883839" id="Fill-39" fill="#FFFFFF" sketch:type="MSShapeGroup"></path>
                <path d="M65.9330774,71.3963591 L67.6847802,67.4085697 L72.7083591,71.3963591 L65.9330774,71.3963591" id="Fill-40" fill="#FFFFFF" sketch:type="MSShapeGroup"></path>
                <path d="M71.6999876,67.0023777 L74.0234056,59.368 L75.6451269,70.1229474 L71.6999876,67.0023777" id="Fill-41" fill="#FFFFFF" sketch:type="MSShapeGroup"></path>
                <path d="M8.86920124,220.371319 C8.99816718,221.408124 8.97887307,220.77548 9.52418576,221.6427 C10.0268483,222.420557 9.74657585,223.469548 10.1314427,224.364186 C10.4523344,223.978303 11.0707616,223.80161 11.126613,223.213647 C11.6028731,225.003938 10.195418,226.728223 10.8808669,228.528669 C11.6465387,227.893994 12.7818452,227.749796 13.3880867,226.902885 C13.3362972,227.622861 13.12,228.310341 13.0113437,229.007975 C12.8163715,230.212334 13.3444211,231.422786 13.498774,232.682997 C13.6825759,234.268161 15.8211765,235.464396 15.2118885,237.025189 C14.2207802,239.56592 13.6937461,242.256941 14.5893994,244.655505 C14.7792941,245.160198 15.0555046,246.002031 15.6871331,246.27418 C16.1664396,246.47626 16.8925077,246.48743 17.3616594,246.27418 C17.6185759,246.153337 17.8358885,245.773548 17.8836161,245.415084 C18.0806192,244.299071 17.5424149,243.257189 17.760743,242.19195 C18.0308607,240.80582 18.2959009,239.423752 19.2494365,238.312817 C19.4444087,238.086365 20.1765697,238.15948 20.3431084,238.506774 C20.9737214,239.809635 20.7198514,241.364334 21.5555913,242.562601 C21.8409412,242.967777 22.8300186,243.255158 23.3540062,242.807331 C24.5228235,241.799975 24.0983529,240.228012 24.2496594,238.919059 C24.498452,236.749994 23.3956409,235.587269 23.0818576,233.37657 C22.7924458,231.304991 23.2087926,230.998316 23.9236904,230.145313 C24.6771765,232.084879 24.6832693,234.195046 26.2014118,235.914254 C26.5273808,236.277796 27.1204211,236.289981 27.374291,236.098056 C28.4720248,235.223728 28.2506502,233.321734 27.450452,232.084879 C26.2339071,230.206241 25.2397523,227.240025 27.4362353,225.516755 C27.2971146,226.467245 27.3113313,227.540607 27.8414118,228.249412 C28.5695108,229.223257 29.9211146,231.223752 30.1120248,233.144025 C30.1881858,233.827443 31.2493622,234.101622 31.9002848,233.564433 C32.0150341,233.464916 31.8728669,233.008966 32.2160991,232.971393 C33.2691517,232.836334 33.7647059,233.982811 33.7129164,234.77387 C34.1292632,234.77387 34.6847307,234.907913 34.8979814,234.709895 C35.9104149,233.753313 35.6636533,231.475591 35.728644,230.153437 C35.8373003,227.712223 36.4709598,228.643418 36.9045697,228.405796 C36.9045697,228.405796 37.0924334,229.570551 36.8446563,232.919604 C37.2213994,237.09018 36.7227988,242.52909 35.4615728,243.793362 C34.3343901,242.759604 34.2094861,241.829424 32.7075913,241.478068 C28.6954303,243.218601 28.9482848,259.072272 29.1909845,261.494192 C29.1331022,262.075046 28.1856594,261.494192 28.1856594,261.494192 C25.9343406,259.41652 24.9320619,256.86665 24.3004334,255.485598 C24.3004334,255.485598 23.4230588,254.555418 23.4230588,255.485598 C22.2989226,258.838712 22.6716037,267.974985 23.1722353,270.179591 C23.6728669,272.83304 23.2981548,274.33595 21.9201486,276.878712 C21.6672941,277.580409 21.1717399,277.696173 21.1717399,276.765994 C21.0437895,275.732235 20.2842105,275.271207 19.9186378,274.220186 C19.9186378,274.220186 19.0432941,272.725399 18.7914551,274.220186 C18.0328916,278.150093 15.6505759,282.898477 14.7752322,284.402402 L14.1436037,284.748681 C14.3923963,281.050303 13.143356,275.267146 12.260904,270.982836 C10.2604087,259.875517 8.24874303,249.467864 8.24874303,234.314873 C8.24874303,227.484755 8.65290402,220.146898 8.65290402,220.146898 L8.8712322,220.371319 L8.86920124,220.371319" id="Fill-42" fill="#F1C817" sketch:type="MSShapeGroup"></path>
                <path d="M60.8912198,248.643294 C62.6723715,253.857783 64.9257214,260.911307 66.4387864,263.571864 C66.0579814,260.565028 61.6711084,248.643294 61.7939814,247.843096 C61.9188854,247.028681 60.8912198,248.643294 60.8912198,248.643294" id="Fill-43" fill="#F1C817" sketch:type="MSShapeGroup"></path>
                <path d="M199.154898,52.7917523 C198.780186,52.4048545 197.427567,52.606935 197.19096,52.075839 C197.030514,51.7163591 196.830464,51.3000124 196.590811,51.1202724 C196.180557,50.814613 195.595641,51.2340062 195.025957,51.3193065 C194.252161,51.4299938 193.426576,51.2786873 192.642625,51.0400495 C191.29813,52.4678142 187.711455,51.521387 186.017635,51.6361362 C185.805399,51.6442601 187.083889,52.3134613 187.310341,52.4942167 C188.497437,53.4315046 190.457313,53.3482353 191.904372,53.3939319 C192.141994,53.4040867 192.612161,53.1674799 192.795963,53.1481858 C194.353709,52.9542291 195.902316,53.4497833 197.544347,53.7066997 C198.05818,53.7889536 199.672793,53.2933994 199.154898,52.7947988 L199.154898,52.7917523" id="Fill-44" fill="#FFFFFF" sketch:type="MSShapeGroup"></path>
                <path d="M223.534539,54.7963096 L219.81382,52.8323715 C219.587368,52.4952322 219.299988,52.0849783 218.942539,51.7793189 C218.105783,51.0776223 217.66405,50.236805 216.698328,49.6762601 C215.424916,48.9187121 214.367802,47.9448669 212.961362,47.4716533 L212.475963,47.4462663 C212.370353,47.4239257 212.304347,47.3365944 212.33278,47.2218452 C212.214985,47.2218452 212.051492,47.2655108 211.975331,47.2055975 C211.787467,47.003517 211.489932,46.8907988 211.308161,46.8369783 C210.581077,46.6156037 209.748384,47.0136718 209.105585,46.4917152 C208.743059,46.1911331 208.316557,46.0124087 207.905288,45.7778328 C206.797399,45.1157399 205.525003,45.5168545 204.334861,45.6905015 C204.095207,45.7229969 203.744867,46.0124087 203.494043,46.2144892 C203.042155,46.5770155 202.300854,45.9281238 201.701721,46.1129412 C201.177734,46.271356 200.596879,46.8369783 201.098526,47.2929288 C201.642824,47.7925449 202.34452,48.1388235 203.083789,48.3063777 C205.238638,48.8070093 207.503158,48.315517 209.53818,49.1451641 C210.126142,49.3807554 210.847133,49.6559505 211.086786,50.3495232 C210.882675,50.387096 210.659269,50.560743 210.480545,50.43787 C209.978898,50.1068235 209.438663,50.1119009 208.945139,50.0783901 C205.513833,49.8184272 202.093697,49.5564334 198.663406,49.9981672 C198.663406,50.8034427 199.008669,51.6544149 199.807851,51.7559628 C200.874105,51.8849288 202.01652,51.5792693 203.038093,51.6544149 C204.158167,51.7285449 205.351356,52.3936842 206.469399,52.9765697 C206.620706,53.0547616 206.883715,53.0496842 207.060409,52.9765697 C207.562056,52.7887059 208.001759,52.1225511 208.556211,52.3591579 C208.894365,52.5175728 209.251814,52.6526316 209.609263,52.7094985 C210.39626,52.8323715 210.959851,52.6993437 211.706229,52.8008916 C213.290378,53.0192198 214.645028,53.9971269 216.206836,53.7869226 C217.385808,53.6285077 217.927059,53.9879876 218.504867,54.4774489 C218.165697,54.2022539 220.666824,55.8453003 220.880074,55.4391084 C220.970452,55.2878019 223.507121,55.152743 223.532508,54.7963096 L223.534539,54.7963096" id="Fill-45" fill="#FFFFFF" sketch:type="MSShapeGroup"></path>
                <path d="M232.610898,54.0875046 C231.598464,53.5005573 231.485746,52.3408793 230.944495,51.4817833 C230.532211,50.8257833 229.978774,50.2957028 229.319728,49.982935 C226.371789,48.5724334 222.933375,46.121065 220.740954,46.3079133 C220.049412,46.3698576 219.769139,47.0593684 220.164161,47.4137709 C220.918663,48.0870341 222.248941,48.3165325 222.362675,49.4213746 C225.299443,50.7739938 230.462142,51.6808173 230.218427,54.6358638 C230.200149,54.9222291 232.110266,54.0265759 232.608867,54.0864892 L232.610898,54.0875046" id="Fill-46" fill="#FFFFFF" sketch:type="MSShapeGroup"></path>
                <path d="M62.546452,74.2366563 L81.041387,74.2082229 C80.0309845,76.0574118 79.4298204,77.9543282 79.4298204,77.9543282 L62.5505139,77.9340186 L62.5505139,74.2376718 L62.546452,74.2366563" id="Fill-47" fill="#F1C817" sketch:type="MSShapeGroup"></path>
            </g>
        </g>
    </g>
</svg>