<svg width="512" height="512" viewBox="0 0 512 512" xmlns="http://www.w3.org/2000/svg" xmlns:sketch="http://www.bohemiancoding.com/sketch/ns"><title>washington-redskins</title><desc>Created with Sketch.</desc><g sketch:type="MSLayerGroup" fill="none"><path d="M193.096 338.649c-1.136.345-3.467-.234-3.467-.234.781 5.671 1.641 7.61 1.641 7.61l-1.359 1.529 1.629 1.161c-1.752 11.223 3.414 18.947 5.802 26.471-1.884.58-4.037.478-5.655-.331.638 6.369.054 18.627-5.523 23.95-1.062-.629-1.835-.808-2.248-1.389-.828 1.788-1.466 2.49-3.152 7.058-.944 3.06-1.763 7.347-2.2 11.971-4.591-2.174-9.598-4.452-14.111-11.467-1.004-1.663-1.708-3-4.161-5.222-.568 1.051-.663 1.361-1.795 2.338-1.198 1.04-4.302 2.312-4.324 2.209-.63-2.824-1.382-5.439-3.199-8.619-1.742-3.525-7.722-8.214-12.608-19.666-2.004-4.394-3.007-8.312-3.842-12.833-.374.168-.633.281-.879.335-1.817.47-3.123.351-3.748-.914-1.536 3.814-3.449 5.947-5.079 6.981-.749 2.2-.631 2.781-2.26 4.572-1.494 2.075-2.004 2.606-3.047 6.536-1.69 3.991-4.219 5.962-4.603 6.994-.631-1.265-.876-1.029-1.503-1.964-6.146 7.523-6.9 9.486-20.819 12.155 3.506-6.374 5.891-17.011 5.642-19.205-1.76-14.929-3.389-18.05-4.274-29.622-.521-5.787-1.998-20.015-.616-38.978 1.498-22.902 8.523-42.69 14.55-57.617 7.776-20.817 25.582-54.364 38.575-74.861l.052-18.601h5.019l5.272-11.106 2.377 1.624 9.029-22.215 6.395 16.775 10.94-6.367c4.371-3.694 35.472-45.109 101.338-45.023 63.832-.085 129.562 45.957 129.562 119.529 0 66.856-59.214 118.452-127.547 118.452-52.955-.002-87.061-24.874-105.149-47.663 1.153 11.455-1.256 34.247 9.351 55.646l-.002.001" fill="#fff" sketch:type="MSShapeGroup"/><path d="M193.054 338.649l-1.022.11-1.139-.096-.926-.163-.38-.081.585 3.58.526 2.355.38 1.283.147.393-1.358 1.532 1.627 1.159-.172 7.813 1.519 6.811 2.294 6.116 2.162 5.731-2.928.353-2.725-.687.189 5.682-.622 6.684-1.786 6.494-3.301 5.091-1.368-.712-.879-.676-.606 1.215-.647 1.271-.811 1.792-1.084 2.779-1.291 5.393-.908 6.574-3.505-1.722-3.576-2.199-3.562-3.1-3.461-4.445-.731-1.205-.807-1.198-1.076-1.301-1.543-1.518-.687 1.196-1.107 1.142-1.181.797-1.422.736-1.207.519-.512.156-1.157-4.178-2.041-4.441-2.017-2.954-3.104-3.912-3.696-5.39-3.786-7.41-2.362-6.373-1.477-6.464-.879.335-2.32.194-1.427-1.107-2.509 4.533-2.575 2.451-.441 1.392-.36 1.046-.521.976-.936 1.158-.963 1.344-.731 1.223-.645 1.577-.706 2.392-1.379 2.63-1.412 1.975-1.168 1.419-.64.969-.753-1.11-.747-.854-2.09 2.57-1.798 2.123-1.729 1.752-1.878 1.449-2.239 1.225-2.82 1.069-3.622.987-4.632.984 2.393-5.381 1.833-5.789 1.123-5.005.287-3.028-1.289-9.305-1.178-6.772-1.021-6.14-.789-7.41-.513-5.863-.51-8.682-.153-11.154.562-13.273 2.056-16.57 3.515-15.235 4.366-13.736 4.607-12.077 3.353-8.351 4.125-9.245 4.71-9.833 5.136-10.123 5.375-10.103 5.45-9.789 5.347-9.168 5.067-8.246.052-18.6h5.015l5.269-11.107 2.375 1.625 9.028-22.216 6.392 16.774 10.935-6.367 1.132-1.119 1.769-1.884 2.422-2.537 3.081-3.072 3.757-3.489 4.441-3.795 5.139-3.985 5.85-4.053 6.569-4.013 7.297-3.852 8.047-3.576 8.8-3.179 9.567-2.674 10.346-2.048 11.137-1.306 11.939-.447 11.967.516 11.915 1.574 11.757 2.601 11.509 3.602 11.156 4.571 10.705 5.518 10.158 6.432 9.507 7.325 8.762 8.189 7.912 9.023 6.964 9.834 5.921 10.613 4.783 11.368 3.536 12.094 2.192 12.793.756 13.47-.685 12.346-1.993 11.935-3.233 11.476-4.404 10.956-5.497 10.384-6.517 9.761-7.467 9.087-8.337 8.356-9.137 7.567-9.867 6.736-10.521 5.844-11.099 4.903-11.61 3.902-12.037 2.856-12.401 1.753-12.686.599-18.974-1.113-17.24-3.13-15.54-4.83-13.873-6.214-12.241-7.278-10.637-8.035-9.066-8.473-7.537-8.589.298 4.799.157 5.714.213 6.48.465 7.095.905 7.56 1.539 7.878 2.372 8.048 3.402 8.068" stroke="#fff" stroke-width="2.584" sketch:type="MSShapeGroup"/><path d="M287.031 325.127c67.955 0 123.045-50.8 123.045-113.475 0-62.673-55.09-113.479-123.045-113.479s-123.039 50.804-123.039 113.479c0 62.676 55.084 113.475 123.039 113.475" fill="#F1C817" sketch:type="MSShapeGroup"/><path d="M287.031 309.29c58.461 0 105.867-43.713 105.867-97.638 0-53.925-47.406-97.636-105.867-97.636-58.464 0-105.861 43.715-105.861 97.636-.005 53.925 47.397 97.638 105.861 97.638" fill="#fff" sketch:type="MSShapeGroup"/><path d="M220.382 202.398s-8.651 19.323-8.277 34.591c0 0 2.692-5.719 3.643-4.741 0 0-7.778 24.061-1.885 37.83 0 0 1.255-3.821 3.384-6.138 0 0 3.261-4.742 4.525-8.56 0 0 .619 1.62.991 4.512 0 0 2.89-3.353 3.509-5.671.488-1.808 1.758-3.81 2.638-6.128l.998.47s5.9-6.599 8.154-12.619c0 0 1.754-.224.882 4.518 0 0 4.89-4.397 5.017-11.225l.995 1.048c4.139 4.742 4.139 12.03 4.022 16.539-1.002 14.458-9.038 22.208-19.069 30.653l.887.695c14.919-2.54 24.748-4.029 39.888 0 5.761 1.541 19.684 7.405 26.453 11.342 0 0 15.05 6.012 25.585 6.012 0 0 .503.227.503-.289 0 0-1.132-3.585-.127-17.063 0 0 1.133-6.24 2.013-10.525 0 0 1.127-2.888 1.255-8.788.012-.486-.51-4.054 2.126-3.705 5.712.747 8.904-.461 13.297-1.156 0 0 4.648-1.267 6.536-1.391 0 0 4.403.651 5.761.231 1.498-.461 3.132-1.625 5.144-3.354 0 0 2.25-2.202.744-7.173 0 0-1.501-4.514-.631-5.902 0 0 1.329-3.068 3.265-4.865 0 0 1.38-2.073-.501-3.113 0 0-.999-1.047.685-1.451 0 0 1.261.113 2.067-.29 0 0 .437-.169.503-1.037.078-.934.509-5.438-2.754-9.376 0 0 .942.237 1.634.47 0 0 4.009.343 6.086-.583 1.817-.926 4.45-2.08 4.079-7.637-1.024-4.621-3.019-7.404-5.03-12.606-2.378-5.552-2.75-8.332-7.764-12.138-3.014-1.277-4.396-3.357-2.139-5.443 1.754-2.435 1.125-6.822-1.997-9.833-3.015-2.778-5.27-7.058-6.41-9.258-1.498-2.311-3.133-4.86-4.631-6.363-1.516-1.735-3.765-2.769-7.769-7.173 0 0-2.401-1.965-2.77-4.041-3.39-4.858-12.799-11.689-23.584-12.382-3.146-.351-3.146-.351-5.402-.582-3.753-1.271-15.546-1.624-23.576.464-2.592.512-7.775 1.385-7.775 1.385-2.754.81-6.642 1.511-10.906 3.933-3.134 1.502-7.77 5.088-11.285 7.401-3.77 3.476-12.168 8.568-16.81 11.457-9.03 6.126-16.808 14.228-21.322 19.322 0 0-11.406 13.182-17.051 35.973-.376 3.47-1.374 6.824-.758 10.643 0 0 5.028-10.063 9.668-13.195 0 0-.638 1.859-1.007 4.859 0 0 2.377-4.044 3.375-4.741 0 0 1.758-1.735 4.272-4.505 0 0 5.274-6.366 6.773-7.061-1.939 3.356-2.381 5.553-2.568 9.019.815-.69 1.316-1.217 1.569-1.619 0 0 .489-.927.999-.698.257.601-.126 1.055-.126 1.055h-.004" fill="#010101" sketch:type="MSShapeGroup"/><path d="M371.693 212.523c1.311-2.547 1.065-5.036-.816-8.041-1.132-1.735-1.879-3.7-2.761-6.126-.372-.987-1.124-3.009-1.997-4.741-.058-.7-1.636-3.933-2.639-5.211-2.517-3.353-4.578-3.644-5.956-5.033l-.522-.01c-1.458.898-1.482 2.876-2.724 4.38-.126.163-.543.363-.831.243-.393-.186-.553-.504-1.008-1.097-.412-.566-.741-.161-1.193.306-.288 0-.502.211-.728.422-.389.376-.084.572.226.994.315.436 0 .436.198.659-.059.18-.114.249-.175.33-.166.231-.569.175-.865.125-.831-.125-.642-.069-1.384-.396-.912-.399-1.348-1.501-2.052-1.841-.208-.113-.923-.234-1.468.099-.402.25-.581.794-.238 1.086.591.496 1.053 1.078 1.682 1.517.855.59 1.789 1.026 1.902 1.852.151 1.053-1.537 1.435-2.333.88-.413-.285-.898-.606-1.34-1.038-.071-.06-.141-.413-.236-.477-.357-.249-.774-.547-.972-.807-.357-.496-.828-1.019-1.472-1.251-.153-.051-.275-.25-.388-.424-.294-.477.024-1.032-.189-1.474-.179-.36-.264-.946-.815-.719-.512.466-.444.466-1.02.42-.733-.06-.148-1.309-.148-1.142.011.069-.029-.024.214-.435-.502-.149-1.257-.523-.68-1.208.496-.577.982.27 1.17-.076.066-.132.494-.858.655-.959.563-.304.726.108.805.22-.243.633.475 1.053 1.169.709l.113-.638c.64-1.028 1.632-1.568 2.641-2.277l.41-.193c.305-.559.654-1.366.012-1.622-.535-.208-1.637-.017-1.408-.893.104-.41.684-.568 1.013-.703 1.19-.515 2.425-1.026 3.664-1.473.298-.111.807-.531 1.184-.555 1.563-.115 1.197-.082 3.109.226.338.051.992.381 1.323.486 1.013.331 2.462.224 3.129-.789.664-.99.477-2.668-.197-3.832-.793-1.411-2.014-2.629-3.071-3.596-1.344-1.246-3.094-1.883-3.442-3.593-.432-2.092-2.188-4.861-3.184-6.518-1.047-1.709-1.971-2.849-3.295-4.435-.312-.367-2.248-2.187-2.579-2.487-2.211-1.987-3.163-2.646-5.518-3.429-1.208-.398-5.91-.143-8.359-.43-.77-.094-3.133-.146-3.777-1.302-.579-1.048-1.311-2.547-2.529-3.259-.441-.252-1.111-.517-1.572-.735-2.207-1.022-4.487-2.734-6.871-2.647-.877.028-.037.903.19 1.001 1.079.524 1.568 1.111 2.162 1.745.614.666 1.955.691 3.106 1.13 1.094.415 2.002 1.062 3.022 1.558.965.467 2.257 2.011 1.19 2.643-.966.571-1.985-.123-3.265.175-.257.062-.644.219-2.128.219-1.977.25-2.664-.627-4.186-1.624-1.522-1.004-2.481-2.541-3.948-3.495-1.8-1.174-3.625-2.15-5.688-2.818-.454-.148-1.054.085-1.458-.112-.708-.367-1.252-1.153-2.148-1.219-1.525-.097-1.525-.213-3.046 0-.213.042-.774.629-.958.627-.901-.034-1.943-.263-2.399.194-.694.735.161.653 1.054 1.054.504.211 1.561.741 2.164.728 2.538-.045 4.164-.063 6.152.93.212.113 1.103.921 1.153 1.224-1.885-.031-4.864-.719-7.045-.555 3.667-.274-3.74.092-5.356.035-.485-.015-.485.9.269 1.407.2.128 1.322-.06 1.468.271.657-.322 2.538-.168 3.082.025.942.31.409.177 1.235.576.502.247.983.581 1.573.517.766-.082.813-1.126 1.583-.791.264.117.852.448.979.44 4.349-.075 4.45 1.181 6.478 1.153.525 0 1.305-.194 1.676.038.813.524 1.579.587 2.834.121 0 0 2.892 7.169 2.135 20.243-.751 5.552-1.124 6.599-2.509 11.11 0 0-1.997 7.167-1.257 12.139.764 16.776-4.767 30.659-10.776 39.914-2.26 2.542-3.521 3.928-1.255 5.772 4.767 4.054 8.658 4.978 15.419 6.372 2.397.691 3.895.921 6.146.921 3.509 0 9.043 1.385 11.544 3.126 2.375 1.162 8.778 3.357 12.662 2.774 3.384.234 4.393.466 6.034 1.044 1.121.456 2.259.456 3.513.114l1.937-1.332c.248-.571 2.069-1.324 1.696-3.644-.126-1.731-.88-3.53-1.245-5.144-1.085-1.429-1.016-2.489-.64-3.989 1.133-2.089 2.449-3.126 3.144-4.167 1.498-1.565.63-2.656-1.448-3.187-1.001-.4-2.94-.229-4.952-.4-1.065 0-1.945-.406-3.447-.12 0 0-1.016.639-1.567 1.107l-.763-.409s.701-1.852 2.127-2.952c1.444.231 3.556.386 4.651.121 1.299-.546 2.791-.769 3.885-1.165 1.89-.168 2.767-.057 5.022.063 0 0 1.127-4.512-2.822-7.928-.94-.801-1.706-1.848-3.064-1.903-4.788.524-7.408-1.272-8.17-1.737-1.181-.058-1.55.409-2.19 1.107-1.638 2.536-3.573 3.406-3.573 3.406l-1.002-.117s.879-1.384 2.876-3.702c.897-1.853 2.139-4.161 3.267-5.322.685-1.098.882-3.584 2.57-4.277.819 0 .953-.177 1.562.174-1.239 1.095-4.757 5.029-1.113 7.455 1.497 1.162 3.763 1.162 4.316-.056.275-.667.88-1.097 1.194-1.333 1.884-.346 3.455.522 4.074.988 1.506 1.621 2.387 2.37 3.129 2.713.825.583 2.337.462 3.08.462 2.448-.391 3.761-1.672 4.201-2.481v.003" fill="#57211B" sketch:type="MSShapeGroup"/><path d="M345.474 185.383c.758.353 1.066.244 2.605.445 0 0 1.349.199 2.565-.782.197-.159 1.22-.634 1.186-1.015-.13-1.762.16 1.145-.215-1.502-.086-.562-.056-1.072-.302-1.669-.114-.31-.644-.848-1.424-.599-.144.051-1.385.984-1.408 1.03-.684 1.211-1.752 1.352-2.227 2.173l-.883 1.342c-.084.209-.198.425.104.578" fill="#57211B" sketch:type="MSShapeGroup"/><path d="M357.017 202.808c2.152-.65 3.196.274 5.571 1.77.415.26.758.936.157 1.306-.196.124-.646.102-.782-.018-2.085-1.839-2.758-1.855-5.036-2.23-.113-.008-.468-.659.089-.827v-.001" fill="#0C130F" sketch:type="MSShapeGroup"/><path d="M344.221 223.15c-.328.905-.655 1.71-1.074 2.573-.428.9-.225 2.01-.889 2.818-.29.359-1.096.219-1.217-.203-.429-1.58-.216-3.246.601-4.695.438-.747 1.521-1.12 2.453-.836l.127.467v-.127l-.002.002" fill="#0C130F" sketch:type="MSShapeGroup"/><path d="M322.649 212.513c-.712-.217-1.097-.829-.999-1.503.242.062.04-.256.252-.237 1.496.086 2.895.643 4.392.675 1.705.031 3.416-.265 4.976-.946 1.936-.853 3.609-1.763 5.47-2.905.831-.508 2.025-.81 3.055-1.014 1.626-.34 1.521-1.183 2.73-1.846 1.772-.949 1.639-1.654 2.63-1.291.28.104-.288.682-.591.94-.668.551-1.548 1.104-2.153 2.084-.137.197-1.065 1.114-1.245 1.25-2.032 1.384-2.486 2.589-3.998 4.289-.855.971-1.133 2.235-1.699 3.357-.339.663-.55 1.351-.992 1.959-.185.253-.865.129-1.097.345-1.253 1.106-2.45 2.168-3.377 3.611-.154.234-.679.224-.756.097-.804-1.423-1.924-2.497-3.831-2.549-.338-.011-.705-.716-.683-1.339.012-.138-.148-.396-.33-.433-.297-.045-.432-.301-.742-.315-.326-.016-.584-.479-.643-.675-.387-1.123-.246-2.372-.496-3.552h.127l.001-.003" fill="#0C130F" sketch:type="MSShapeGroup"/><path d="M294.85 244.621c-.317-1.158-2.34-1.055-3.788-.92-2.202.218-4.208.566-6.343 1.602 1.406-1.961 3.137-2.081 6.42-3.245.745-.264.565-1.477.088-2.185-.552-.813-1.272-.855-1.552-.905-2.709-.486-3.58.091-5.014.432-4.966 1.18-9.851 4.641-12.575 7.953-.791.968-.529 1.987-.365 2.2.506.627 1.294 2.376 1.509 2.164 2.014-2.01 4.457-3.862 7.096-3.28-1.126.335-5.082 2.185-6.339 4.863-.077.171.51 1.146 1.256 1.665 1.009 1.562 1.381 2.195 1.95 2.486.35-.031 1.09-.709 1.293-.996 2.766-3.398 5.533-5.481 13.182-6.404 2.196-.344 3.449-.927 3.643-2.777 0 0 .431-.922-.442-2.776" fill="#fff" sketch:type="MSShapeGroup"/><path d="M285.713 255.367c.129 1.739-.144 2.519.381 3.653.518 1.069 1.585 1.996 1.985 3.104.315.842 1.392 1.917 1.392 2.502.517.455.572.867.572.867.663.81 2.651 1.782 1.95 2.253-.823.586-3.265.174-4.733-.053-1.895-.287-.8 1.299-.394 1.46 1.922.732 5.958.98 7.278 1.652.8.406 1.848 1.022 2.186 1.747.252.543.701 1.014 1.095 1.484 1.269 1.577 1.724 2.259 3.04 3.255.653.497 1.409 1.341 1.181 2.102-.276.89-.888 1.077-1.807.962-.29-.042-1.208-.293-2.087-.644-1.752-.506-2.126-1.103-3.386-.506-.677.322.315 1.383 1.084 1.769 3.149 1.543 6.951 1.577 10.011 3.213 2.613 1.402 4.207 3.107 4.066 6.715 0 .066.942.542.998.463.897-1.296 3.16.313 4.262 0 .103-.032.129-.577-.019-.801l-2.124-1.468c-.506-.747.222-1.551-.027-2.207-.263-.659-1.482.488-1.937.052-2.009-1.922-3.319-4.207-6.023-5.319 1.131-2.886 1.624-6.125 1.37-7.633-.745-.575-1.057.349-1.244.464-.62.545-.376 1.735-1.097 2.642-.127.152-1.098-.027-1.371-.25-1.846-1.453-3.569-3.176-4.433-5.24-.027-.075-.398-.498-.477-.599-1.355-1.754-1.273-4.202.301-5.962.166-.192.424-1.271.264-1.393-.284-.205-.913.21-1.17.446-.858.811-1.597 2.43-3.046 2.286-1.644-.161-2.265-1.689-3.266-2.687-.316-.982-.911-1.611-.758-1.74-1.378-1.848-1.498-3.354-2.777-5.662-.283-.521-.68-.769-1.238-.927h-.002" fill="#fff" sketch:type="MSShapeGroup"/><path d="M295.251 286.605c1.637.77-.248-.987-.248-.987-.629-.403-2.102-2.504-2.39-3.001-.703-1.126-1.208-1.996-1.63-2.892-.616-1.394-1.843-2.378-3.866-4.18-1.013-.904-2.58-2.503-3.217-3.67-.99-1.812-1.555-5.06-3.937-6.58-1.836-1.179-1.396-2.519-2.978-4.804-.609-.864-1.851-.973-2.764-1.831-2.295-2.133-.841-2.955-2.842-4.915-.894-.855-1.272-1.029-2.036-2.341-.999-1.682-.246-3.887-1.939-4.66-1.501-.693-2.669-.938-3.686-1.251-1.584-.479-4.098-1.671-5.521-2.693-1.495-1.076-4.558-3.432-7.836-6.054 2.002 14.227-.766 26.375-16.059 39.102 28.345-4.861 40.757 1.27 60.948 10.756l.002.001" fill="#57211B" sketch:type="MSShapeGroup"/><path d="M305.961 268.446c.085 1.164.518.954 1.218 2.552.35.802 1.334 2.206 1.847 2.604 2.903 2.246 4.907 5.713 4.704 9.287.139 1.746.239 1.637 2.091 2.849.315.215.504.233 1.494 1.091l3.457 3.243c-.066-1.047.113-2.808.087-3.359-.166-5.457.976-11.095-1.036-15.867-1.502-3.572-4.886-7.593-6.218-11.329l-.667-2.041c-.696-2.9-.763-5.924-.763-5.924l-4.195-1.848c-3.303-1.219-7.021-2.338-10.346-3.469 0 1.62.243 2.768-1.066 4.391.88 1.971 1.62 6.31 2.626 7.353 2.193 1.904 3.95 3.406 5.396 7.978.327 1.09 1.313 1.679 1.371 2.492v-.002" fill="#57211B" sketch:type="MSShapeGroup"/><path d="M254.997 145.254s-2.502-.227-8.404 3.933c-6.513 3.701-15.168 9.024-21.448 16.079-4.57 4.219-11.034 10.642-13.414 15.156 0 0-3.893 5.668-6.401 14.921 0 0 .887 3.009 3.39-.926 4.379-6.876 21.066-30.025 44.896-46.905l1.138-.06c-11.799 9.363-27.094 21.981-41.962 43.441-.553.795-1.268 2.212-1.337 2.32-.667 1.146 1.038 1.323.169 1.128 1.357.306 1.857-1.432 2.73-1.777.535-.217.767 1.268 1.621.887 3.037-1.357 5.284-4.249 6.529-5.984.068.497.768 1.969.768 1.969 1.372.351 5.644-5.086 7.896-8.789.634.688-.149 2.385.679 1.659 2.578-2.243 4.879-4.647 6.248-6.841 1.6-2.567 3.363-3.723 3.989-8.231 1.001.577.981.825 1.256 1.036.63-.693.669-1.423 1.67-2.457 1.081-1.129 1.299-2.009 2.622-2.807.474-.29 1.514-2.099 1.724-3.041.196-.897 2.353-3.804 2.508-4.768 1.752-3.01 4.77-4.628 6.896-6.94 2.008-1.613.501-4.508-3.762-3.004l-.001.001" fill="#fff" sketch:type="MSShapeGroup"/><path d="M232.924 235.597c.88.927 1.625-.29 1.625-.29 1.451-2.022 1.763-2.546 2.766-5.262.631-1.794 1.379-2.431 2.006-9.943 1.759 2.426 2.007 7.051 2.007 7.051l.504-.114s1.633-4.282 4.388-5.668c0 0 .25-2.892 3.007-5.779-.37-1.739-.631-3.13-.995-5.906-1.133-4.623-1.762-12.373-.632-17.695 2.252 11.099 3.574 12.726 3.574 12.726l.502.169c.943-1.326 1.197-3.637 1.457-5.722 1.113-4.395 3.124-3.931 3.124-4.861-.631-3.584-1.628-9.252-1.007-14.113 1.259 5.321 1.885 4.978 2.753 6.949 1.13 2.423 1.257-.587 1.257-.587-.245-3.12 2.139-6.247-.127-13.536-.872-4.971-3.383-15.615-2.377-18.048.631-3.003-.502-1.966-.502-1.966s-3.267.695-8.15 13.424c-7.146 21.168-13.295 43.723-19.946 62.003 2-9.602 12.663-43.496 15.806-55.752 0 0-.441-.874-1.126.108-.823.87-1.634 1.965-2.076 2.716.061-.045-.375.062-.871.3l-1.579 2.192s-3.124 4.045-11.72 12.262c-1.449 2.09-2.07 3.043-3.636 6.363-.567 1.216.311 1.391 1.253.699 2.314-2.083 2.441-2.083 5.643-4.342.141-.099 2.718-.955 2.718-.996-.407.478-.952.792-1.15.978-.889.773-3.061 3.025-3.65 3.982-1.464 2.324-3.051 5.213-5.147 8.716-2.629 4.387-4.629 9.475-4.629 9.475-1.38 3.587-1.004 3.933-1.004 3.933 1.877.694.854 1.571.854 1.571-.854 1.44-1.233 2.589.215 2.073.946-.177 1.446-.617 1.833-1.065.743-.843 1.365-1.424 1.879-2.008.841-.968.677-1.262 1.585-2.215 1.168-1.248 1.909-2.291 3.107-2.803-2.077 2.597-2.197 4.447-2.197 4.447l.506.574.363.236s-2.127 2.427-3.122 7.935c-.486 2.616-.387 2.942-.824 4.393.211-.186 1.448 0 2.551-1.035-.478 1.609-.575 2.419-.575 2.419-.212 1.327-.212 1.098-.212 2.606 0 1.391 0 .801.5 2.423 2.254-.925 2.753-.808 4.881-3.119 1.007-.87 1.779-2.983 2.086-2.839.557.238.083 1.414-.169 1.931-.341.728-.648 1.271-.772 1.794-.069.269-.356.66.102 1.023.198.163.059.138.703.123.381-.009.737-.548.737-.548s.202-.044.401-.446c.143-.339.43-.53.679-.694.004-.003.381-.35.822-.239l.002-.001" fill="#fff" sketch:type="MSShapeGroup"/><path d="M174.859 164.343h-2.631l8.655-18.164-10.663 7.692-2.449-11.507-5.575 15.678-2.701-1.906-4.07 8.437h-3.017v9.137h18.438l4.013-9.366v-.001" fill="#0C130F" sketch:type="MSShapeGroup"/><path d="M159.188 173.246l9.778 6.012 1.002-2.664-5.77-3.463-5.01.113v.002" fill="#0C130F" sketch:type="MSShapeGroup"/><path d="M161.949 171.975l5.263 4.974s-4.135 16.076-3.385 24.874c7.657 6.824 13.299 13.418 12.42 28.221 0 0 .5.345-2.757-.576 1.632 1.621 2.127 2.892 3.508 5.665.626 4.512 1.012 8.563.626 12.727 0 0 .387 10.292.757 13.53 1.509.462.629 4.167.757 9.028 0 0-.128 3.006-.639 5.322-3.127-2.316-2.881-2.195-3.755-1.965.748 2.302 1.252 2.302 2.765 4.157 0 13.77.5 27.997 1.499 34.246.501 4.51 1.379 9.709 1.756 11.335.751 2.079.751 3.923 3.01 8.325-.75 0-2.853.057-4.267-1.615 2.009 3.466 2.009 2.776 3.265 3.931l1.751 12.03-2.002 2.077 2.765 1.619s-.63 5.44.123 10.41c.37 2.316 1.128 4.632 2.892 7.868-3.645.124-4.27-2.653-4.27-2.653-1.002-1.048-2.759-3.365-3.263-3.365-.25 3.365 1.757 4.638 2.633 6.603 2.555 5.65 2.894 11.107.63 21.625-2.509-2.193-2.634-4.167-4.519-5.202-.246 6.007-.498 7.861-1.751 10.514-2.632 4.744-3.39 7.19-3.513 11.814-4.391-3.364-5.519-7.987-8.531-10.646-2.134-1.964-6.392-5.67-7.9-8.097-.253 2.884 0 3.938-1.256 6.704-1.005-3.212-1.125-4.16-3.511-6.816-3.134-4.054-10.163-13.073-11.788-22.675-.383-1.623-1.382-6.364-2.508-12.846-.882 2.207-2.38 3.938-3.887 4.286-.759.353-.759-.574-.759-.574.628-2.09.88-4.398.628-6.132-.371-2.554-1.125-8.214-2.509-9.603h-.632c.126 3.814-1.506 5.552-2.507 6.823-.124-3.009 0-5.317-.75-6.823-.377-1.05-1.254-1.965-1.508-.927-.625 3.01-.876 3.588-.876 6.362-.248 4.169-.248 5.562-.758 9.027-.246 2.547-1.126 5.666-3.629 8.785-.502-2.766-2.384-4.968-2.384-4.968 0 3.353.756 8.325-1.501 10.991-2.766 3.467-3.144 5.202-4.018 7.751-.379-3.013-1.379-2.085-1.877-3.707-2.013 7.86-8.29 13.878-10.543 15.262 1.506-3.227 2.764-6.936 3.014-9.251 0 0-.377-8.558-1.763-13.412-3.431-15.146-5.092-50.12-2.499-63.401 6.263-47.655 33.109-91.386 55.683-130.715l6.271-.911v-.004" fill="#0C130F" sketch:type="MSShapeGroup"/><path d="M164.581 176.714s-3.893 15.385-3.136 26.147c5.272 4.163 10.913 9.832 11.165 21.513-.439.178-.501.061-.883-.233-1.497-1.782-5.513-2.372-8.523-6.877.441 2.835 9.29 14.173 9.912 16.365.121 7.061 1.249 17.298.618 19.318l-3.009-1.852c1.633 3.874 3.009 7.289 4.956 10.123 0 0 .191 10.002-.192 8.614h-.502c-1.754-1.162-3.508-2.546-4.821-3.701-.822-.403-.943-1.383-2.453-2.725-2.251-1.905-3.511-3.525-4.451-3.874-2.387-1.555-4.014-2.078-5.392-2.48-.436 0-1.317-.118-1.317-.118s4.516 3.528 7.4 7.519c3.453 3.818 4.893 6.07 6.077 8.377 1.321 2.325 3.204 4.633 4.707 6.597 0 3.188-.252 13.765-.064 15.559l-.943-.637c-2.252-1.271-4.7-4.113-6.773-7.81-1.126 5.327 5.017 11.567 7.841 13.653.94 9.893.94 14.51 2.701 24.921l-.127.812c-2.515-1.616-5.142-4.168-8.28-8.323-.25 4.044 4.139 9.365 8.783 14.454.609.681.446 1.571.777 2.343.549 1.278 1.101 2.866 1.789 3.731.565 2.25.815 5.264.69 6.536l-1.881 3.356 2.506 2.779c.248 3.006-.374 3.81 0 7.168 0 0-2.879-.228-4.142-3.244-2.252 5.793.257 12.272 2.261 15.624 1.505 3.933 2.381 6.359 2.128 10.639l-.503 1.266c-1.499-2.772-3.631-5.081-5.769-6.586l-.871-.223c2.11 12.17 1.383 16.188-2.627 23.949l-.636-.582c-2.254-4.056-6.515-7.179-9.522-10.063-.506-.112-5.769-6.249-6.154-11.224l-.622.121c-.252 1.735-1.008 5.439-.502 6.129l-.504-.231c-3.006-1.277-8.465-11.1-9.401-16.767 0 0-.199-1.107-.631-3.362-.191-2.195-1.44-8.907-1.696-9.835-.439-2.486-1.585-5.628-2.063-7.284.065-.581-.374-.753-.69-.287-.693.913-1.25 1.789-1.633 1.212-.315-.576-.059-1.502.192-2.773-.503.343-1.629.488-1.759-.347-1.382-5.669-2.131-12.726-2.131-18.512.631-1.499 2.381-4.27 3.766-7.289l-.124-.688c-1.509.688-4.019 3.006-4.518 4.271l-.631-.803c-.5-2.323-.999-6.831-.999-11.568-.252-.87.12-1.384.503-2.086.998-2.193 2.136-4.649 3.007-7.057.757-2.435 4.958-9.941 6.216-11.684l-.828.693c-2.309.759-8.272 7.408-9.023 7.872l-.566.052c.311-6.652 2.318-21.454 3.696-30.543 1.383-3.409 12.17-13.817 9.655-11.968-4.884 1.622-6.514 3.24-7.525 3.703l-1.503.464c1.498-6.458 4.615-29.799 7.906-36.092 2.378-3.818 4.767-4.858 6.519-9.023l-1.258.574c-.874.816-4.768 3.476-7.145 6.486l-.763.113c1.128-3.006 1.508-6.242 3.765-10.409.622-1.742 1.632-2.433 2.389-3.934 1.875-2.203 2.63-3.012 4.388-3.82.871-.34 2.506-.921 2.506-.921-5.006 18.944-6.773 34.345-8.28 55.405-1.507 33.549 1.545 74.144 13.804 99.253-9.788-29.379-13.552-61.306-12.297-93.697 1.002-27.765 5.512-49.977 15.304-87.452l2.13 1.266.003.007" fill="#fff" sketch:type="MSShapeGroup"/><path d="M157.934 173.822c-3.133 3.937-24.71 41.416-26.839 48.245-19.055 35.278-30.354 70.442-29.599 105.037 0 15.15 1.763 25.565 3.76 36.666.882 4.276 2.133 10.061 1.882 13.76l.634-.345c.874-1.505 3.255-6.242 4.015-10.174.253-1.503 1.128 0 1.128 0 .368 1.036 1.126 1.504 1.252 2.54 0 .93.493.818.749.113 1.379-2.538 1.757-4.05 1.251-6.706-.499-2.195-.87-11.334.253-14.691 0-.93.876 0 .876 0 .633 1.391 1.635 3.937 3.885 6.02 0 0 .943.574 1.007 0-.241-2.429-.496-18.279 3.515-20.019 1.502.344 1.631 1.277 2.758 2.316 1.261-1.274 1.762-6.708 1.383-10.875.125-6.475-.882-12.958-1.507-16.999-.526-1.276 0-1.51.751-1.745.185-.125 3.011-3.353 3.011-5.083-2.374 1.502-3.011 1.851-5.268 3.244-.25-4.983-2.634-12.846-5.263-18.986 2.76 2.326 4.508 4.979 5.39 7.18 1.002-5.088 1.379-8.105 1.506-10.534-1.375-4.513-4.008-14.338-3.76-21.631 1.63 5.322 3.132 11.106 4.767 14.579.752-2.553 1.377-7.063 2.381-10.881 1.374-.925 3.009-1.851 3.508-2.653-.502-.816-2.64.695-3.009.802.249-3.585.874-10.524-1.755-21.861l.371-.348c1.127.467 2.506 2.547 3.009 4.749 2.26-2.43 3.766-14.458 4.391-19.2-2.382 0-3.508 2.426-5.143 2.19.25-1.505.376-.803 1.002-2.19.631-1.625 2.138-3.25 2.763-5.442 1.378-1.852 1.378-4.05 1.507-6.13 0-1.967-.25-4.857 1.501-7.404.383 1.032.13 1.736 1 3.931 0 0 3.518-7.057 5.4-8.671 2.499-10.066 8.523-21.404 14.173-28.812" fill="#fff" sketch:type="MSShapeGroup"/><path d="M159.06 180.183c-4.141 5.445-7.152 14-8.66 20.132 1.882-.927 2.008-.816 3.765-1.388.631-2.896 5.575-19.634 4.895-18.744" fill="#fff" sketch:type="MSShapeGroup"/><path d="M117.576 312.273c.075.336.658.127.351.462.751 0 1.535.135 2.231-.062.353-.094.593-.603.655-.88.205-.968.722-2.202-.22-2.88-.829-.62-.685-1.599-1.269-2.075-.27-.218-.846-.366-1.236-.727-.29-.274-.817.338-.815.613.015.758.559 1.527.546 2.342-.018 1.242-.644 1.59-.241 3.213l-.002-.006" fill="#F1C817" sketch:type="MSShapeGroup"/><path d="M108.522 301.642c-.085-1.34-.564-3.231 1.6-2.699.68.16.837 1.091.853 1.541.036 1.213.335 2.179.893 3.242.319.601-.219 1.123-.547 1.552-.839 1.145-2.565 1.792-3.55.664-.603-.685-1.335-1.712-.79-2.649.428-.736.768-1.136 1.415-1.778" fill="#F1C817" sketch:type="MSShapeGroup"/><path d="M110.694 315.412c-1.138-1.51-.605-2.916.727-3.812.841-.564 1.861-.185 2.103.479l1.518 3.938c.477 1.409-1.459 2.774-2.822 2.159-.971-.456-.904-1.936-1.526-2.764" fill="#F1C817" sketch:type="MSShapeGroup"/><path d="M111.859 320.894c-.543-.157-.595.276-.864.499-.566.447-.568 1.385-1.061 2.002-.92 1.14-.642 2.754-.28 3.843.243.747 1.454 1.836 2.484 1.753 1.628-.124 2.832-2.916 1.59-3.58-1.615-.883-1.047-3.105-1.642-4.312-.044-.087-.431-.032-.684-.032" fill="#F1C817" sketch:type="MSShapeGroup"/><path d="M122.209 318.04c-.416-.512-.434-1.201.044-1.529.439-.296 1.2-.153 1.644.2l.721.474c1.347.987 2.172 2.31 1.443 3.823-.198.425-1 .828-1.56.441-.435-.3-1.039-.32-1.34-.833-.483-.836-.287-1.781-.952-2.576" fill="#F1C817" sketch:type="MSShapeGroup"/><path d="M107.385 308.69c-.242-.738-.92-.376-1.296.161-.888 1.269-1.332 2.498-1.459 4.35.25 1.036 1.868 1.235 2.658.773 1.797-1.038.512-5.021.424-4.471.055-.356-.328-.891-.328-.811l.001-.002" fill="#F1C817" sketch:type="MSShapeGroup"/><path d="M142.265 320.139c-.366-.256-.972 0-1.006.415-.137 1.187-.156 3.438 1.799 3.072.696-.125 1.157-.786.992-1.457-.238-.961-1.007-1.498-1.786-2.031l.001.001" fill="#F1C817" sketch:type="MSShapeGroup"/><path d="M146.953 324.357c-.476-.437-1.317-.367-1.669-.12-.716.512-.983 1.593-.728 2.411.279.889.608 1.838 1.322 2.527.46.442 1.413.954 1.666.635.586-.766 1.132-1.787.872-2.89-.239-.981-.726-1.856-1.463-2.562" fill="#F1C817" sketch:type="MSShapeGroup"/><path d="M164.89 322.971c-.349.028-.792.073-.935.271-.7 1.014.068 2.194.998 2.618.975.462 2.205-1.056 1.482-1.893-.46-.546-1.187-1.014-2.043-.996" fill="#F1C817" sketch:type="MSShapeGroup"/><path d="M156.282 333.613c-.362-.171-.93-1.241-.652-1.958.256-.642 1.048-.901 1.723-.792.777.135 1.274.64 1.713 1.171 1.15 1.362 1.473 3.49-.017 4.63-.606.474-1.696.362-2.124-.306-.546-.834-.142-1.503-.561-2.396l-.082-.348v-.001" fill="#F1C817" sketch:type="MSShapeGroup"/><path d="M166.699 334.359c-1.023-.737-.598-2.22-1.727-2.884-.631-.381-1.465-.472-2.049-.022-.614.493-.611 1.199-.769 1.939-.085.41.202.773.397 1.128.825 1.555 2.826 1.606 4.389 2.484.208.117.614-.28.768-.53.483-.777-.297-1.6-1.008-2.114" fill="#F1C817" sketch:type="MSShapeGroup"/><path d="M150.103 332.903c-.53-.589-1.441-.396-1.985-.055-.187.115-.372.42-.372.65-.012 1.504-.555 3.063.04 4.486.359.859 1.188 1.9 2.261 1.461.768-.315 1.245-1.173.987-1.998-.476-1.528.229-3.252-.933-4.544h.002" fill="#F1C817" sketch:type="MSShapeGroup"/><path d="M178.489 333.362c-.327-1.054-2.382.016-3.12-.659-.647-.593-1.426-1.124-1.543-2.058-.523 1.099-.107 2.238.447 3.209.315.555 1.044.853 1.513 1.344.536.531.724 1.265 1.026 1.936.383.875-.547 1.379-1.131 1.485-1.836.312-1.889-2.118-2.467-3.291-.406-.842-1.576-1.173-2.197-1.949-.15-.177-.42-.37-.562-.59-.518-.855-1.572-1.461-2.031-2.364-.082.394.062.787.189 1.137.874 2.556 2.282 4.81 3.492 7.22.341.669.716 1.329.923 2.061.186.624.085 1.372-.308 1.759-.387.4-1.309-.463-1.498-.174-.666 1.081.373 2.372.967 3.43.424.75 1.174 1.498.822 2.36-.067.167-.32.395-.577.46-.891.22-1.669-.309-2.142-.769-1.85-1.785-3.463-3.58-4.928-5.725-.566-.821-.258-1.89-.882-2.698-.358-.464-1.044-1.215-1.666-.703-.202.177-.445.412-.489.672-.196 1.053-.427 2.04-1.121 2.819-.198.221-.583.581-.66.714-.948 1.612-1.161 3.47-1.464 5.359-.077.45-.198 1.012-.702 1.244-.526.26-.882-.262-1.17-.597-.762-.865-1.071-1.897-1.597-2.886-.315-.617-.328-1.373-.751-2.023l-.226-.016c.072.177-.101.335-.18.446-.503.799-1.325 1.166-2.224 1.479-.494.177-1.053-.158-1.16-.551-.606-2.245-2.283-3.842-2.963-5.993-1.038.005-2.059.223-2.74-.712-1.497-2.041-1.197-4.334-1.394-6.575-.335.267-.742.454-.985.818-2.381 3.531-3.295 7.21-4.314 11.205-.201.801-.328 1.099-.601 1.848-.562 1.571.315 1.795 1.196.753 1.539-1.83 1.218-.32 1.376.117.382 2.672 1.884 5.322 2.501 9.834.513 4.391 1.511 8.789 2.011 10.987 1.335 7.223 6.523 14.578 9.659 16.401-.373-3.006.752-4.141.504-6.458l.635-.117c.117 4.054 3.38 9.259 7.139 12.154 3.01 3.233 4.645 3.925 7.181 7.282.751 1.155 1.351 1.687 1.979 2.612 1.378-2.612 3.889-7.234 3.889-12.326 0-3.907-.131-8.327-1.255-11.805 2.259.934 4.771 4.284 6.651 7.184 1.127-2.209.5-8.334-1.253-11.34-1.757-3.704-4.643-8.793-2.636-16.312 1.251 2.655 2.133 2.541 4.141 3.003.378-2.776-.128-6.706 0-7.17-.762-1.262-2.504-2.784-2.504-2.784l1.877-3.344c.88-3.354-.871-6.019-.686-6.535-.948-1.909-1.592-3.543-1.988-4.81l-.001.003" fill="#F1C817" sketch:type="MSShapeGroup"/><path d="M156.797 314.778c-.273-.716-1.037-1.246-.631-1.958.113-.199.528-.149.832-.215.892-.219 1.949-.09 2.539.493.464.461.779 1.005 1.166 1.577.389.591.496 1.297.751 1.951.287.718-.029 1.516-.639 1.857-.708.395-1.009.734-2.048.305-.39-.16-.63-.934-.815-1.233-.239-.4-.222-1.533-.541-1.905-.29-.32-.447-.432-.615-.871h.002" fill="#F1C817" sketch:type="MSShapeGroup"/><path d="M156.121 318.685c-.305-.269-.707-.255-1.025-.277-.152-.007-.594.024-.577.282.104 1.402-1.657 2.06-2.191 3.165-.537 1.146.565 2.23 1.473 3.003.728.618 1.881.199 2.763-.051 1.457-.403 1.643-2.285 1.305-3.553-.262-.958-.918-1.815-1.749-2.569" fill="#F1C817" sketch:type="MSShapeGroup"/><path d="M172.787 167.237h-17.242v3.7h15.741l1.501-3.7" fill="#fff" sketch:type="MSShapeGroup"/><path d="M170.843 156.884l.629 2.719 3.265-5.849-3.893 3.13" fill="#fff" sketch:type="MSShapeGroup"/><path d="M158.933 164.396l1.752-3.988 5.024 3.988h-6.775" fill="#fff" sketch:type="MSShapeGroup"/><path d="M164.7 160.002l2.323-7.634 1.622 10.755-3.945-3.121" fill="#fff" sketch:type="MSShapeGroup"/><path d="M101.869 313.371c.129 1.037.11.404.655 1.271.503.778.222 1.827.607 2.721.321-.386.939-.563.995-1.151.476 1.79-.931 3.515-.246 5.315.766-.635 1.901-.779 2.507-1.626-.052.72-.268 1.407-.377 2.105-.195 1.204.333 2.415.487 3.675.184 1.585 2.322 2.781 1.713 4.342-.991 2.541-1.518 5.232-.622 7.63.19.505.466 1.347 1.098 1.619.479.202 1.205.213 1.675 0 .257-.121.474-.501.522-.859.197-1.116-.341-2.158-.123-3.223.27-1.386.535-2.768 1.489-3.879.195-.226.927-.153 1.094.194.631 1.303.377 2.858 1.212 4.056.285.405 1.274.693 1.798.245 1.169-1.007.744-2.579.896-3.888.249-2.169-.854-3.332-1.168-5.542-.289-2.072.127-2.378.842-3.231.753 1.94.76 4.05 2.278 5.769.326.364.919.376 1.173.184 1.098-.874.876-2.776.076-4.013-1.217-1.879-2.211-4.845-.014-6.568-.139.95-.125 2.024.405 2.733.728.974 2.08 2.974 2.271 4.895.076.683 1.137.958 1.788.42.115-.1-.027-.555.316-.593 1.053-.135 1.549 1.011 1.497 1.802.416 0 .972.134 1.185-.064 1.012-.957.766-3.234.831-4.556.109-2.441.742-1.51 1.176-1.748 0 0 .188 1.165-.06 4.514.377 4.171-.122 9.609-1.383 10.874-1.127-1.034-1.252-1.964-2.754-2.315-4.012 1.741-3.759 17.594-3.517 20.016-.058.581-1.005 0-1.005 0-2.251-2.078-3.254-4.628-3.885-6.009 0 0-.877-.93-.877 0-1.124 3.353-.751 12.489-.251 14.694.501 2.653.126 4.156-1.252 6.699-.253.702-.748.817-.748-.113-.128-1.034-.888-1.495-1.253-2.546 0 0-.875-1.495-1.127 0-.759 3.93-3.141 8.678-4.016 10.182l-.632.346c.249-3.698-1-9.482-1.883-13.766-2-11.107-4.012-21.515-4.012-36.668 0-6.83.404-14.168.404-14.168l.218.224h-.002" fill="#F1C817" sketch:type="MSShapeGroup"/><path d="M153.891 341.643c1.781 5.214 4.035 12.268 5.548 14.929-.381-3.007-4.768-14.929-4.645-15.729.125-.814-.903.8-.903.8" fill="#F1C817" sketch:type="MSShapeGroup"/><path d="M292.155 145.792c-.375-.387-1.727-.185-1.964-.716-.16-.359-.36-.776-.6-.956-.41-.306-.995.114-1.565.199-.774.111-1.599-.041-2.383-.279-1.344 1.428-4.931.481-6.625.596-.212.008 1.066.677 1.293.858 1.187.937 3.147.854 4.594.9.238.01.708-.226.892-.246 1.558-.194 3.106.302 4.748.559.514.082 2.128-.413 1.611-.912v-.003" fill="#fff" sketch:type="MSShapeGroup"/><path d="M316.535 147.796l-3.721-1.964c-.226-.337-.514-.747-.871-1.053-.837-.702-1.278-1.543-2.244-2.103-1.273-.758-2.331-1.731-3.737-2.205l-.485-.025c-.106-.022-.172-.11-.143-.224-.118 0-.281.044-.357-.016-.188-.202-.485-.315-.667-.369-.727-.221-1.56.177-2.203-.345-.363-.301-.789-.479-1.2-.714-1.108-.662-2.38-.261-3.57-.087-.24.032-.59.322-.841.524-.452.363-1.193-.286-1.792-.102-.524.158-1.105.724-.603 1.18.544.5 1.246.846 1.985 1.013 2.155.501 4.419.009 6.454.839.588.236 1.309.511 1.549 1.204-.204.038-.428.211-.606.088-.502-.331-1.042-.326-1.535-.359-3.431-.26-6.851-.522-10.282-.08 0 .805.345 1.656 1.144 1.758 1.066.129 2.209-.177 3.23-.102 1.12.074 2.313.739 3.431 1.322.151.078.414.073.591 0 .502-.188.941-.854 1.496-.617.338.158.696.293 1.053.35.787.123 1.351-.01 2.097.091 1.584.218 2.939 1.196 4.501.986 1.179-.158 1.72.201 2.298.691-.339-.275 2.162 1.368 2.375.962.09-.151 2.627-.286 2.652-.643h.002" fill="#fff" sketch:type="MSShapeGroup"/><path d="M325.611 147.088c-1.012-.587-1.125-1.747-1.666-2.606-.412-.656-.966-1.186-1.625-1.499-2.948-1.411-6.386-3.862-8.579-3.675-.692.062-.972.751-.577 1.106.755.673 2.085.903 2.199 2.008 2.937 1.353 8.099 2.259 7.856 5.214-.018.286 1.892-.609 2.39-.549l.002.001" fill="#fff" sketch:type="MSShapeGroup"/><path d="M155.546 167.237l18.495-.028c-1.01 1.849-1.612 3.746-1.612 3.746l-16.879-.02v-3.696l-.004-.001" fill="#F1C817" sketch:type="MSShapeGroup"/></g></svg>