<?xml version="1.0" encoding="utf-8"?>
<!-- Generator: Adobe Illustrator 12.0.0, SVG Export Plug-In . SVG Version: 6.00 Build 51448)  -->
<!DOCTYPE svg PUBLIC "-//W3C//DTD SVG 1.1//EN" "http://www.w3.org/Graphics/SVG/1.1/DTD/svg11.dtd" [
	<!ENTITY ns_svg "http://www.w3.org/2000/svg">
	<!ENTITY ns_xlink "http://www.w3.org/1999/xlink">
]>
<svg  version="1.1" id="Layer_1" xmlns="&ns_svg;" xmlns:xlink="&ns_xlink;" width="247.119" height="246.789"
	 viewBox="0 0 247.119 246.789" overflow="visible" enable-background="new 0 0 247.119 246.789" xml:space="preserve">
<g id="layer1" transform="translate(-54.2778, -308.693)">
	<g id="g2570" transform="matrix(1.22269, 0, 0, 1.22269, 118.498, 369.274)">
		<g id="g4" transform="matrix(2.10434, 0, 0, 1.94088, -50.3012, -46.9893)">
			<path id="path6" fill="#FFFFFF" d="M29.188,77.197c-0.332,0.109-1.014-0.074-1.014-0.074c0.229,1.798,0.48,2.412,0.48,2.412
				l-0.397,0.485l0.476,0.368c-0.512,3.558,0.998,6.006,1.696,8.391c-0.551,0.184-1.18,0.152-1.653-0.105
				c0.186,2.019,0.016,5.905-1.615,7.592c-0.31-0.199-0.536-0.256-0.657-0.44c-0.242,0.567-0.429,0.789-0.922,2.237
				c-0.276,0.97-0.515,2.329-0.643,3.795c-1.342-0.689-2.806-1.411-4.125-3.635c-0.294-0.527-0.5-0.951-1.217-1.655
				c-0.166,0.333-0.194,0.431-0.525,0.741c-0.35,0.33-1.258,0.733-1.264,0.7c-0.184-0.895-0.404-1.724-0.935-2.732
				c-0.509-1.118-2.257-2.604-3.686-6.234c-0.586-1.393-0.879-2.635-1.123-4.068c-0.109,0.053-0.185,0.089-0.257,0.106
				c-0.531,0.149-0.913,0.111-1.096-0.29C10.262,86,9.703,86.676,9.226,87.004c-0.219,0.697-0.184,0.882-0.661,1.449
				c-0.437,0.658-0.586,0.826-0.891,2.072c-0.494,1.265-1.234,1.89-1.346,2.217c-0.184-0.401-0.256-0.326-0.439-0.623
				c-1.797,2.385-2.018,3.007-6.087,3.854c1.025-2.021,1.722-5.393,1.649-6.088c-0.514-4.732-0.991-5.722-1.25-9.39
				c-0.152-1.834-0.584-6.344-0.18-12.356c0.438-7.26,2.492-13.532,4.254-18.264c2.273-6.599,7.479-17.233,11.278-23.731
				l0.015-5.896h1.467l1.541-3.521l0.695,0.515l2.64-7.042l1.87,5.317l3.198-2.018C28.257,12.328,37.35-0.8,56.607-0.773
				C75.269-0.8,94.486,13.795,94.486,37.117c0,21.193-17.312,37.549-37.29,37.549c-15.483-0.001-25.454-7.885-30.742-15.109
				C26.791,63.188,26.087,70.413,29.188,77.197z"/>
		</g>
		<g id="g8" transform="matrix(2.10434, 0, 0, 1.94088, -49.9128, -46.9362)">
			<path id="path10" fill="none" stroke="#FFFFFF" stroke-width="2.584" d="M29.003,77.17l-0.299,0.034l-0.333-0.03l-0.271-0.052
				l-0.111-0.026l0.171,1.135l0.154,0.746l0.111,0.407l0.043,0.125l-0.397,0.485l0.476,0.368l-0.05,2.476l0.444,2.159l0.671,1.939
				l0.632,1.817l-0.856,0.112l-0.797-0.218l0.055,1.801l-0.182,2.119l-0.522,2.058l-0.966,1.614l-0.4-0.226l-0.257-0.214
				l-0.178,0.385l-0.189,0.403l-0.237,0.568l-0.317,0.881l-0.377,1.71l-0.266,2.084l-1.025-0.546l-1.046-0.697l-1.042-0.983
				l-1.012-1.409l-0.214-0.382l-0.236-0.38l-0.315-0.412l-0.451-0.481l-0.201,0.379l-0.324,0.362l-0.345,0.253l-0.416,0.233
				l-0.353,0.165l-0.15,0.049l-0.338-1.324l-0.597-1.408l-0.59-0.936l-0.908-1.24l-1.081-1.709l-1.107-2.349l-0.691-2.02
				l-0.432-2.049l-0.257,0.106l-0.679,0.062l-0.417-0.351L9.794,86.2l-0.753,0.777l-0.129,0.441L8.807,87.75l-0.153,0.309
				L8.38,88.426l-0.281,0.426l-0.214,0.388l-0.189,0.5l-0.206,0.758l-0.403,0.834l-0.413,0.626l-0.342,0.45l-0.187,0.307
				l-0.22-0.352l-0.219-0.271l-0.611,0.815l-0.526,0.673l-0.506,0.556l-0.549,0.459l-0.655,0.388l-0.825,0.339l-1.059,0.313
				l-1.355,0.312l0.7-1.706l0.536-1.835l0.329-1.587l0.084-0.96L0.892,86.91l-0.345-2.147l-0.298-1.946l-0.231-2.349l-0.15-1.859
				l-0.149-2.752l-0.045-3.536l0.164-4.208l0.602-5.252l1.028-4.829l1.277-4.355l1.347-3.828l0.981-2.648l1.206-2.93l1.378-3.117
				l1.502-3.209l1.572-3.203l1.594-3.103l1.564-2.906l1.482-2.614l0.015-5.896h1.467l1.541-3.521l0.695,0.515l2.64-7.042l1.87,5.317
				l3.198-2.018l0.331-0.355l0.518-0.597l0.708-0.804l0.901-0.974l1.099-1.106l1.299-1.203l1.503-1.263l1.711-1.285l1.921-1.272
				l2.135-1.221l2.353-1.133l2.574-1.008l2.798-0.848l3.026-0.649l3.257-0.414L56.423-0.8l3.5,0.164l3.485,0.499l3.439,0.824
				l3.366,1.142l3.263,1.449l3.131,1.749l2.971,2.039l2.781,2.322l2.562,2.596l2.314,2.86l2.037,3.117l1.732,3.364l1.399,3.604
				l1.034,3.834l0.641,4.055l0.221,4.27l-0.2,3.914l-0.583,3.783l-0.946,3.638l-1.288,3.473l-1.608,3.292l-1.906,3.094l-2.184,2.88
				l-2.438,2.649l-2.673,2.399l-2.886,2.135l-3.077,1.853l-3.246,1.554l-3.396,1.237l-3.521,0.905l-3.627,0.556l-3.71,0.19
				l-5.55-0.353l-5.042-0.992l-4.545-1.531l-4.058-1.97l-3.58-2.307l-3.111-2.547l-2.652-2.686l-2.204-2.723l0.087,1.522
				l0.046,1.811l0.062,2.054l0.136,2.249l0.265,2.397l0.45,2.497l0.694,2.551L29.003,77.17"/>
		</g>
		<g id="g12" transform="matrix(2.10434, 0, 0, 1.94088, -5.97446, -43.5586)">
			<path id="path14" fill="#F1C817" d="M35.59,71.143c19.868,0,35.974-16.103,35.974-35.971C71.564,15.305,55.458-0.8,35.59-0.8
				C15.723-0.8-0.382,15.305-0.382,35.172C-0.382,55.04,15.723,71.143,35.59,71.143z"/>
		</g>
		<g id="g16" transform="matrix(2.10434, 0, 0, 1.94088, 4.59248, -33.8106)">
			<path id="path18" fill="#FFFFFF" d="M30.569,61.101c17.092,0,30.952-13.857,30.952-30.951c0-17.094-13.86-30.95-30.952-30.95
				c-17.093,0-30.95,13.857-30.95,30.95C-0.382,47.244,13.476,61.101,30.569,61.101z"/>
		</g>
		<g id="g20" transform="matrix(2.10434, 0, 0, 1.94088, 14.2184, -25.7647)">
			<path id="path22" fill="#010101" d="M6.51,23.072c0,0-2.529,6.125-2.42,10.965c0,0,0.787-1.813,1.065-1.503
				c0,0-2.274,7.627-0.551,11.992c0,0,0.367-1.211,0.989-1.946c0,0,0.953-1.503,1.323-2.713c0,0,0.181,0.513,0.29,1.43
				c0,0,0.845-1.063,1.026-1.798c0.143-0.573,0.514-1.208,0.771-1.943l0.292,0.149c0,0,1.725-2.092,2.384-4
				c0,0,0.513-0.071,0.258,1.432c0,0,1.43-1.394,1.467-3.558l0.291,0.332c1.21,1.503,1.21,3.814,1.176,5.243
				c-0.293,4.583-2.642,7.039-5.575,9.717l0.259,0.22c4.362-0.805,7.236-1.277,11.662,0c1.684,0.489,5.755,2.347,7.734,3.595
				c0,0,4.4,1.906,7.48,1.906c0,0,0.147,0.072,0.147-0.092c0,0-0.331-1.136-0.037-5.409c0,0,0.331-1.978,0.588-3.336
				c0,0,0.33-0.916,0.367-2.786c0.004-0.154-0.149-1.285,0.622-1.175c1.67,0.237,2.603-0.146,3.887-0.366
				c0,0,1.359-0.402,1.911-0.441c0,0,1.287,0.206,1.684,0.073c0.438-0.146,0.916-0.515,1.504-1.063c0,0,0.658-0.698,0.218-2.274
				c0,0-0.439-1.431-0.184-1.871c0,0,0.388-0.972,0.954-1.542c0,0,0.404-0.657-0.146-0.987c0,0-0.292-0.332,0.2-0.46
				c0,0,0.369,0.036,0.604-0.092c0,0,0.128-0.054,0.147-0.329c0.023-0.296,0.149-1.724-0.805-2.972c0,0,0.276,0.075,0.478,0.149
				c0,0,1.172,0.109,1.779-0.185c0.531-0.293,1.301-0.659,1.193-2.421c-0.299-1.465-0.883-2.347-1.471-3.996
				c-0.695-1.76-0.804-2.641-2.27-3.848c-0.881-0.405-1.285-1.064-0.625-1.725c0.513-0.772,0.329-2.163-0.584-3.117
				c-0.882-0.881-1.541-2.237-1.874-2.935c-0.438-0.732-0.916-1.54-1.354-2.017c-0.443-0.55-1.101-0.878-2.271-2.274
				c0,0-0.702-0.623-0.81-1.281c-0.991-1.54-3.742-3.705-6.895-3.925c-0.92-0.111-0.92-0.111-1.579-0.184
				c-1.098-0.403-4.546-0.515-6.893,0.147c-0.758,0.162-2.273,0.439-2.273,0.439c-0.805,0.257-1.942,0.479-3.189,1.247
				c-0.916,0.476-2.272,1.613-3.299,2.346c-1.103,1.102-3.558,2.716-4.915,3.632c-2.64,1.942-4.914,4.51-6.234,6.125
				c0,0-3.335,4.178-4.985,11.403c-0.11,1.1-0.402,2.163-0.222,3.374c0,0,1.47-3.19,2.827-4.183c0,0-0.187,0.589-0.295,1.54
				c0,0,0.695-1.282,0.987-1.503c0,0,0.514-0.55,1.249-1.428c0,0,1.542-2.018,1.98-2.238c-0.567,1.064-0.696,1.76-0.751,2.859
				c0.238-0.218,0.385-0.386,0.459-0.513c0,0,0.143-0.294,0.292-0.221C6.622,22.928,6.51,23.072,6.51,23.072z"/>
		</g>
		<g id="g24" transform="matrix(2.10434, 0, 0, 1.94088, 72.5705, -18.7139)">
			<path id="path26" fill="#57211B" d="M23.023,22.649c0.383-0.807,0.311-1.596-0.239-2.549c-0.331-0.55-0.549-1.173-0.807-1.942
				c-0.109-0.313-0.329-0.954-0.584-1.503c-0.017-0.222-0.479-1.247-0.772-1.652c-0.736-1.063-1.338-1.155-1.741-1.595
				c0,0.002-0.146-0.01-0.153-0.004c-0.426,0.285-0.433,0.912-0.796,1.389c-0.037,0.052-0.159,0.115-0.243,0.077
				c-0.115-0.059-0.162-0.16-0.295-0.348c-0.121-0.179-0.217-0.051-0.349,0.097c-0.084,0-0.147,0.067-0.213,0.134
				c-0.114,0.119-0.025,0.181,0.066,0.315c0.092,0.138,0,0.138,0.058,0.209c-0.017,0.057-0.033,0.079-0.051,0.105
				c-0.048,0.073-0.166,0.055-0.253,0.039c-0.243-0.039-0.188-0.022-0.405-0.125c-0.266-0.127-0.394-0.476-0.6-0.584
				c-0.061-0.036-0.27-0.074-0.429,0.031c-0.118,0.079-0.17,0.252-0.07,0.344c0.173,0.157,0.308,0.342,0.492,0.481
				c0.25,0.187,0.523,0.325,0.556,0.587c0.044,0.334-0.449,0.455-0.682,0.279c-0.121-0.09-0.263-0.192-0.392-0.329
				c-0.021-0.019-0.041-0.131-0.069-0.151c-0.104-0.079-0.226-0.174-0.284-0.256c-0.104-0.157-0.242-0.323-0.43-0.397
				c-0.045-0.016-0.081-0.079-0.114-0.135c-0.086-0.151,0.007-0.327-0.055-0.467c-0.052-0.114-0.077-0.3-0.238-0.228
				c-0.15,0.148-0.13,0.148-0.298,0.133c-0.215-0.019-0.044-0.415-0.044-0.362c0.004,0.022-0.009-0.008,0.063-0.138
				c-0.147-0.047-0.368-0.166-0.199-0.383c0.145-0.183,0.287,0.086,0.342-0.024c0.019-0.042,0.144-0.272,0.191-0.304
				c0.165-0.096,0.213,0.034,0.236,0.07c-0.071,0.201,0.139,0.334,0.342,0.225c0.02-0.011,0.013-0.165,0.033-0.202
				c0.187-0.326,0.477-0.497,0.772-0.722c0.028-0.021,0.109-0.043,0.12-0.061c0.089-0.177,0.191-0.433,0.004-0.514
				c-0.157-0.066-0.479-0.006-0.412-0.283c0.03-0.13,0.2-0.18,0.296-0.223c0.348-0.163,0.709-0.325,1.071-0.467
				c0.087-0.035,0.236-0.168,0.346-0.176c0.457-0.036,0.35-0.026,0.909,0.072c0.099,0.016,0.29,0.121,0.387,0.154
				c0.296,0.105,0.72,0.071,0.915-0.25c0.194-0.314,0.139-0.846-0.058-1.215c-0.232-0.447-0.589-0.833-0.898-1.14
				c-0.393-0.395-0.904-0.597-1.007-1.139c-0.126-0.663-0.639-1.541-0.93-2.066c-0.306-0.542-0.576-0.903-0.964-1.406
				c-0.091-0.116-0.657-0.693-0.754-0.788c-0.646-0.63-0.925-0.839-1.613-1.087c-0.353-0.126-1.728-0.045-2.444-0.136
				c-0.225-0.03-0.916-0.046-1.104-0.413C9.064,1.294,8.85,0.819,8.494,0.593c-0.129-0.08-0.325-0.164-0.46-0.233
				C7.389,0.036,6.722-0.507,6.026-0.479C5.769-0.47,6.015-0.193,6.081-0.162C6.397,0.004,6.539,0.19,6.713,0.391
				c0.18,0.211,0.571,0.219,0.908,0.358c0.32,0.132,0.585,0.337,0.884,0.494c0.282,0.148,0.66,0.637,0.348,0.838
				C8.57,2.262,8.272,2.042,7.898,2.136C7.823,2.156,7.71,2.206,7.276,2.206C6.698,2.285,6.497,2.007,6.052,1.691
				C5.607,1.373,5.327,0.886,4.898,0.583C4.371,0.211,3.838-0.098,3.235-0.31C3.102-0.357,2.927-0.283,2.809-0.346
				C2.602-0.462,2.443-0.711,2.181-0.732c-0.446-0.031-0.446-0.068-0.891,0C1.228-0.719,1.064-0.533,1.01-0.534
				c-0.263-0.01-0.568-0.083-0.701,0.062C0.106-0.239,0.356-0.265,0.617-0.138C0.764-0.071,1.073,0.097,1.25,0.093
				c0.742-0.014,1.217-0.02,1.798,0.295C3.11,0.424,3.371,0.68,3.385,0.776C2.834,0.766,1.963,0.548,1.326,0.6
				C2.398,0.513,0.232,0.629-0.24,0.611c-0.142-0.005-0.142,0.285,0.079,0.446c0.058,0.041,0.386-0.019,0.429,0.086
				C0.46,1.041,1.01,1.09,1.169,1.151c0.276,0.098,0.12,0.056,0.361,0.183C1.677,1.412,1.818,1.518,1.99,1.498
				c0.224-0.026,0.238-0.357,0.463-0.251c0.077,0.037,0.249,0.142,0.286,0.14C4.011,1.363,4.04,1.761,4.633,1.752
				c0.154,0,0.382-0.062,0.49,0.012C5.361,1.93,5.585,1.95,5.952,1.802c0,0,0.845,2.273,0.624,6.417
				c-0.22,1.76-0.329,2.092-0.734,3.522c0,0-0.584,2.272-0.367,3.848c0.223,5.318-1.394,9.719-3.151,12.653
				c-0.661,0.806-1.029,1.245-0.367,1.83c1.394,1.285,2.532,1.578,4.508,2.02c0.701,0.219,1.139,0.292,1.797,0.292
				c1.026,0,2.644,0.439,3.375,0.991c0.695,0.368,2.567,1.064,3.702,0.879c0.989,0.074,1.284,0.148,1.764,0.331
				c0.328,0.144,0.661,0.144,1.027,0.036c0.309-0.22,0.164-0.129,0.566-0.422c0.073-0.181,0.605-0.42,0.496-1.155
				c-0.037-0.549-0.257-1.119-0.364-1.631c-0.317-0.453-0.297-0.789-0.187-1.264c0.331-0.662,0.716-0.991,0.919-1.321
				c0.438-0.496,0.184-0.842-0.423-1.01c-0.293-0.127-0.86-0.073-1.448-0.127c-0.312,0-0.569-0.129-1.008-0.038
				c0,0-0.297,0.202-0.458,0.351L16,27.874c0,0,0.205-0.587,0.622-0.935c0.422,0.073,1.04,0.122,1.36,0.038
				c0.379-0.173,0.816-0.244,1.136-0.369c0.552-0.053,0.809-0.018,1.468,0.02c0,0,0.329-1.43-0.825-2.513
				c-0.275-0.254-0.499-0.586-0.896-0.603c-1.4,0.166-2.166-0.403-2.389-0.551c-0.345-0.018-0.453,0.13-0.64,0.351
				c-0.479,0.804-1.045,1.08-1.045,1.08l-0.293-0.037c0,0,0.257-0.439,0.841-1.174c0.262-0.587,0.625-1.319,0.955-1.687
				c0.2-0.348,0.258-1.136,0.751-1.356c0.24,0,0.279-0.056,0.457,0.055c-0.362,0.347-1.391,1.594-0.325,2.363
				c0.438,0.368,1.1,0.368,1.262-0.018c0.08-0.211,0.257-0.347,0.349-0.422c0.551-0.11,1.01,0.165,1.191,0.313
				c0.44,0.514,0.698,0.751,0.915,0.86c0.241,0.185,0.683,0.146,0.9,0.146C22.51,23.311,22.894,22.905,23.023,22.649z"/>
		</g>
		<g id="g28" transform="matrix(2.10434, 0, 0, 1.94088, 105.512, 6.79825)">
			<path id="path30" fill="#57211B" d="M-0.294,0.903c0.221,0.112,0.311,0.077,0.761,0.141c0,0,0.394,0.063,0.75-0.248
				c0.058-0.05,0.357-0.201,0.347-0.322C1.526-0.084,1.611,0.837,1.501-0.002c-0.025-0.178-0.016-0.34-0.088-0.529
				C1.38-0.629,1.225-0.8,0.997-0.721C0.955-0.705,0.592-0.409,0.585-0.395c-0.2,0.384-0.512,0.429-0.651,0.689
				C-0.186,0.52-0.258,0.577-0.324,0.72C-0.349,0.786-0.382,0.855-0.294,0.903z"/>
		</g>
		<g id="g32" transform="matrix(2.10434, 0, 0, 1.94088, 112.456, 20.4262)">
			<path id="path34" fill="#0C130F" d="M-0.219-0.594C0.41-0.8,0.715-0.507,1.41-0.033c0.121,0.082,0.221,0.297,0.046,0.414
				C1.398,0.42,1.267,0.413,1.227,0.375C0.618-0.208,0.421-0.213-0.245-0.332C-0.278-0.335-0.382-0.541-0.219-0.594z"/>
		</g>
		<g id="g36" transform="matrix(2.10434, 0, 0, 1.94088, 102.705, 32.9584)">
			<path id="path38" fill="#0C130F" d="M0.673-0.602C0.577-0.315,0.482-0.06,0.359,0.214c-0.125,0.285-0.066,0.637-0.26,0.893
				c-0.085,0.114-0.32,0.07-0.356-0.064c-0.125-0.501-0.063-1.029,0.176-1.488C0.047-0.682,0.364-0.8,0.636-0.71
				C0.609-0.652,0.693-0.622,0.673-0.562C0.673-0.577,0.673-0.588,0.673-0.602z"/>
		</g>
		<g id="g40" transform="matrix(2.10434, 0, 0, 1.94088, 90.9752, 20.9946)">
			<path id="path42" fill="#0C130F" d="M-0.061,2.19c-0.208-0.069-0.32-0.263-0.292-0.477c0.071,0.02,0.012-0.081,0.074-0.075
				c0.437,0.028,0.846,0.204,1.284,0.214c0.499,0.01,0.999-0.084,1.455-0.3c0.566-0.27,1.055-0.559,1.599-0.921
				C4.302,0.47,4.651,0.374,4.952,0.309C5.427,0.201,5.397-0.066,5.75-0.276C6.268-0.577,6.229-0.8,6.519-0.685
				c0.082,0.033-0.084,0.216-0.173,0.298c-0.195,0.175-0.452,0.35-0.629,0.661c-0.04,0.062-0.312,0.353-0.364,0.396
				C4.759,1.109,4.626,1.491,4.184,2.03c-0.25,0.307-0.331,0.708-0.497,1.064c-0.099,0.21-0.161,0.428-0.29,0.621
				C3.343,3.795,3.144,3.756,3.076,3.824C2.71,4.175,2.36,4.512,2.089,4.969C2.044,5.043,1.89,5.04,1.868,5
				c-0.235-0.451-0.562-0.792-1.12-0.808c-0.099-0.004-0.206-0.227-0.2-0.425c0.004-0.044-0.043-0.125-0.096-0.137
				C0.365,3.616,0.326,3.535,0.235,3.53C0.14,3.525,0.064,3.378,0.047,3.316C-0.066,2.96-0.025,2.564-0.098,2.19
				C-0.087,2.19-0.073,2.19-0.061,2.19z"/>
		</g>
		<g id="g44" transform="matrix(2.10434, 0, 0, 1.94088, 60.0513, 42.7766)">
			<path id="path46" fill="#FFFFFF" d="M6.505,1.146C6.412,0.779,5.821,0.812,5.397,0.855c-0.643,0.069-1.23,0.179-1.854,0.508
				C3.954,0.741,4.46,0.703,5.42,0.334C5.638,0.25,5.585-0.134,5.446-0.359C5.284-0.617,5.074-0.63,4.992-0.646
				C4.2-0.8,3.946-0.617,3.526-0.509c-1.452,0.374-2.88,1.471-3.676,2.521c-0.232,0.307-0.155,0.63-0.107,0.697
				c0.148,0.199,0.378,0.753,0.441,0.686c0.589-0.637,1.303-1.224,2.075-1.04C1.93,2.461,0.773,3.048,0.406,3.897
				C0.383,3.951,0.555,4.26,0.773,4.425c0.295,0.495,0.404,0.696,0.57,0.788c0.103-0.01,0.319-0.225,0.378-0.316
				C2.53,3.82,3.339,3.16,5.575,2.867c0.642-0.109,1.008-0.294,1.065-0.881c0,0,0.126-0.292-0.129-0.88"/>
		</g>
		<g id="g48" transform="matrix(2.10434, 0, 0, 1.94088, 68.7092, 53.1671)">
			<path id="path50" fill="#FFFFFF" d="M-0.28-0.8c0.038,0.551-0.042,0.799,0.112,1.158c0.151,0.339,0.463,0.633,0.58,0.984
				c0.092,0.267,0.407,0.608,0.407,0.793C0.97,2.279,0.986,2.41,0.986,2.41c0.194,0.257,0.775,0.565,0.57,0.714
				c-0.24,0.186-0.954,0.055-1.384-0.016C-0.382,3.016-0.062,3.519,0.057,3.57c0.562,0.232,1.742,0.311,2.128,0.524
				c0.234,0.129,0.54,0.324,0.639,0.554c0.074,0.172,0.205,0.322,0.32,0.47c0.371,0.5,0.504,0.716,0.889,1.032
				c0.191,0.157,0.412,0.425,0.345,0.666C4.298,7.098,4.119,7.158,3.85,7.121C3.765,7.108,3.497,7.028,3.24,6.917
				C2.728,6.756,2.618,6.567,2.25,6.756C2.052,6.858,2.342,7.195,2.567,7.317c0.92,0.489,2.032,0.5,2.926,1.019
				c0.764,0.444,1.23,0.985,1.189,2.128c0,0.021,0.276,0.172,0.292,0.147c0.262-0.411,0.924,0.099,1.246,0
				c0.03-0.01,0.038-0.183-0.006-0.254c-0.152-0.233-0.482-0.24-0.621-0.465c-0.148-0.237,0.065-0.492-0.008-0.7
				C7.508,8.983,7.152,9.347,7.019,9.209c-0.587-0.61-0.97-1.334-1.761-1.686c0.331-0.915,0.475-1.942,0.401-2.42
				C5.441,4.921,5.35,5.214,5.295,5.25C5.114,5.423,5.185,5.8,4.974,6.088c-0.037,0.048-0.321-0.009-0.4-0.079
				c-0.54-0.461-1.044-1.007-1.296-1.661c-0.008-0.024-0.116-0.158-0.14-0.19c-0.396-0.556-0.372-1.332,0.088-1.89
				c0.048-0.061,0.124-0.403,0.077-0.442C3.22,1.761,3.036,1.893,2.961,1.968C2.71,2.225,2.494,2.738,2.07,2.692
				C1.59,2.641,1.408,2.157,1.115,1.84C1.023,1.529,0.849,1.33,0.894,1.289C0.491,0.703,0.456,0.226,0.082-0.506
				C-0.001-0.671-0.117-0.75-0.28-0.8z"/>
		</g>
		<g id="g52" transform="matrix(2.10434, 0, 0, 1.94088, 37.2878, 41.7095)">
			<path id="path54" fill="#57211B" d="M17.438,15.005c0.479,0.244-0.072-0.313-0.072-0.313c-0.184-0.128-0.615-0.794-0.699-0.951
				c-0.206-0.357-0.354-0.633-0.477-0.917c-0.18-0.442-0.538-0.754-1.13-1.325c-0.296-0.286-0.754-0.793-0.94-1.163
				c-0.29-0.574-0.455-1.604-1.151-2.086c-0.537-0.374-0.408-0.799-0.871-1.523c-0.178-0.274-0.541-0.308-0.808-0.58
				c-0.671-0.676-0.246-0.937-0.831-1.558c-0.261-0.271-0.372-0.326-0.595-0.742C9.572,3.314,9.792,2.615,9.297,2.37
				c-0.439-0.22-0.78-0.298-1.078-0.397C7.756,1.821,7.021,1.443,6.605,1.119C6.168,0.778,5.272,0.031,4.314-0.8
				c0.585,4.51-0.224,8.361-4.695,12.395C7.906,10.054,11.535,11.998,17.438,15.005z"/>
		</g>
		<g id="g56" transform="matrix(2.10434, 0, 0, 1.94088, 75.6018, 47.5453)">
			<path id="path58" fill="#57211B" d="M2.365,6.242c0.025,0.369,0.151,0.302,0.356,0.809c0.102,0.254,0.39,0.699,0.54,0.825
				C4.11,8.588,4.695,9.687,4.636,10.82c0.041,0.553,0.07,0.519,0.612,0.903c0.092,0.068,0.147,0.074,0.436,0.346
				c0.111,0.093,0.902,0.937,1.011,1.028c-0.019-0.332,0.033-0.89,0.026-1.065c-0.049-1.73,0.285-3.517-0.303-5.03
				C5.979,5.87,4.989,4.596,4.6,3.411L4.405,2.764C4.202,1.845,4.182,0.886,4.182,0.886L2.956,0.3C1.99-0.086,0.903-0.441-0.069-0.8
				c0,0.514,0.071,0.878-0.312,1.392c0.258,0.625,0.474,2.001,0.768,2.331c0.641,0.603,1.155,1.08,1.578,2.529
				C2.06,5.797,2.349,5.984,2.365,6.242z"/>
		</g>
		<g id="g60" transform="matrix(2.10434, 0, 0, 1.94088, 19.4607, -15.5143)">
			<path id="path62" fill="#FFFFFF" d="M14.14-0.323c0,0-0.732-0.072-2.457,1.247c-1.905,1.173-4.435,2.86-6.271,5.097
				C4.076,7.358,2.186,9.394,1.49,10.825c0,0-1.138,1.797-1.871,4.73c0,0,0.259,0.954,0.991-0.293
				c1.28-2.18,6.159-9.518,13.126-14.869l0.333-0.019c-3.45,2.968-7.921,6.968-12.268,13.771C1.639,14.397,1.43,14.846,1.41,14.88
				c-0.195,0.364,0.303,0.42,0.049,0.358c0.397,0.097,0.543-0.454,0.798-0.563c0.157-0.069,0.224,0.402,0.474,0.281
				c0.888-0.43,1.545-1.347,1.909-1.897c0.02,0.157,0.224,0.624,0.224,0.624c0.401,0.111,1.65-1.612,2.309-2.786
				c0.185,0.218-0.044,0.756,0.198,0.526c0.754-0.711,1.427-1.473,1.827-2.169c0.468-0.814,0.983-1.18,1.166-2.609
				c0.293,0.183,0.287,0.261,0.367,0.328c0.184-0.22,0.196-0.451,0.489-0.779c0.316-0.358,0.379-0.637,0.766-0.89
				c0.139-0.092,0.442-0.665,0.504-0.964c0.058-0.284,0.688-1.205,0.734-1.511c0.512-0.954,1.394-1.467,2.016-2.2
				C15.827,0.118,15.386-0.8,14.14-0.323z"/>
		</g>
		<g id="g64" transform="matrix(2.10434, 0, 0, 1.94088, 26.4046, -10.4593)">
			<path id="path66" fill="#FFFFFF" d="M4.387,25.711c0.257,0.294,0.475-0.092,0.475-0.092c0.424-0.641,0.515-0.807,0.809-1.668
				c0.184-0.569,0.403-0.771,0.586-3.152c0.514,0.769,0.587,2.235,0.587,2.235l0.147-0.036c0,0,0.478-1.357,1.283-1.797
				c0,0,0.073-0.916,0.879-1.832c-0.108-0.551-0.184-0.992-0.291-1.872c-0.331-1.466-0.515-3.922-0.185-5.609
				c0.659,3.518,1.045,4.034,1.045,4.034l0.147,0.053c0.276-0.42,0.35-1.153,0.426-1.814c0.325-1.393,0.913-1.246,0.913-1.541
				c-0.184-1.136-0.476-2.933-0.294-4.474c0.368,1.687,0.551,1.578,0.805,2.203c0.33,0.768,0.367-0.186,0.367-0.186
				c-0.071-0.989,0.625-1.98-0.037-4.291c-0.255-1.576-0.989-4.95-0.695-5.721c0.184-0.952-0.147-0.623-0.147-0.623
				s-0.955,0.22-2.383,4.255c-2.089,6.71-3.886,13.86-5.831,19.655C3.578,20.394,6.695,9.65,7.614,5.765
				c0,0-0.129-0.277-0.329,0.034C7.044,6.075,6.807,6.422,6.678,6.66c0.018-0.014-0.11,0.02-0.255,0.095L5.961,7.45
				c0,0-0.913,1.282-3.426,3.887c-0.424,0.662-0.605,0.964-1.063,2.017c-0.166,0.385,0.091,0.441,0.366,0.221
				c0.677-0.66,0.714-0.66,1.65-1.376c0.041-0.031,0.795-0.303,0.795-0.316c-0.119,0.152-0.278,0.251-0.336,0.31
				c-0.26,0.245-0.895,0.959-1.067,1.262c-0.428,0.737-0.892,1.653-1.505,2.763c-0.769,1.391-1.353,3.004-1.353,3.004
				c-0.404,1.137-0.294,1.247-0.294,1.247c0.549,0.22,0.25,0.498,0.25,0.498c-0.25,0.456-0.36,0.821,0.063,0.657
				c0.277-0.056,0.423-0.196,0.536-0.338c0.217-0.267,0.399-0.451,0.549-0.636c0.246-0.307,0.198-0.4,0.464-0.702
				c0.341-0.396,0.558-0.726,0.908-0.889c-0.607,0.823-0.642,1.41-0.642,1.41l0.148,0.182l0.106,0.074c0,0-0.622,0.77-0.913,2.516
				c-0.142,0.829-0.113,0.932-0.241,1.392c0.062-0.059,0.424,0,0.746-0.328c-0.14,0.51-0.168,0.767-0.168,0.767
				c-0.062,0.421-0.062,0.348-0.062,0.826c0,0.441,0,0.254,0.146,0.768c0.659-0.293,0.805-0.256,1.427-0.988
				c0.295-0.276,0.52-0.946,0.61-0.9c0.163,0.075,0.025,0.448-0.049,0.612c-0.1,0.231-0.19,0.403-0.226,0.569
				c-0.02,0.085-0.104,0.209,0.03,0.324c0.058,0.052,0.017,0.044,0.205,0.039c0.112-0.003,0.216-0.174,0.216-0.174
				s0.059-0.014,0.117-0.141c0.042-0.108,0.126-0.168,0.199-0.22C4.148,25.786,4.258,25.676,4.387,25.711z"/>
		</g>
		<g id="g68" transform="matrix(2.10434, 0, 0, 1.94088, -13.1031, -16.3691)">
			<path id="path70" fill="#0C130F" d="M6.182,6.168H5.413l2.53-5.758L4.826,2.848L4.11-0.8l-1.63,4.97L1.69,3.566L0.5,6.24h-0.882
				v2.897h5.391L6.182,6.168z"/>
		</g>
		<g id="g72" transform="matrix(2.10434, 0, 0, 1.94088, -8.93148, 2.56577)">
			<path id="path74" fill="#0C130F" d="M-0.382-0.764l2.859,1.906L2.77,0.298L1.083-0.8L-0.382-0.764z"/>
		</g>
		<g id="g76" transform="matrix(2.10434, 0, 0, 1.94088, -46.9494, 1.85308)">
			<path id="path78" fill="#0C130F" d="M18.489-0.8l1.539,1.577c0,0-1.209,5.096-0.989,7.885c2.238,2.163,3.888,4.253,3.631,8.946
				c0,0,0.146,0.109-0.806-0.183c0.477,0.514,0.622,0.917,1.026,1.796c0.183,1.43,0.296,2.714,0.183,4.034
				c0,0,0.113,3.263,0.221,4.289c0.441,0.147,0.184,1.321,0.221,2.862c0,0-0.037,0.953-0.187,1.687
				c-0.914-0.734-0.842-0.696-1.098-0.623c0.219,0.73,0.366,0.73,0.808,1.318c0,4.365,0.147,8.875,0.439,10.856
				c0.146,1.43,0.403,3.078,0.513,3.593c0.22,0.659,0.22,1.244,0.88,2.639c-0.219,0-0.834,0.018-1.247-0.512
				c0.587,1.098,0.587,0.88,0.954,1.246l0.512,3.814l-0.585,0.658l0.808,0.513c0,0-0.184,1.725,0.036,3.3
				c0.108,0.734,0.33,1.468,0.845,2.494c-1.065,0.039-1.248-0.841-1.248-0.841c-0.293-0.332-0.807-1.067-0.954-1.067
				c-0.073,1.067,0.514,1.47,0.77,2.093c0.747,1.791,0.846,3.521,0.184,6.855c-0.734-0.695-0.77-1.321-1.321-1.649
				c-0.072,1.904-0.146,2.492-0.512,3.333c-0.77,1.504-0.991,2.279-1.027,3.745c-1.284-1.067-1.614-2.532-2.494-3.375
				c-0.624-0.623-1.869-1.798-2.31-2.567c-0.074,0.914,0,1.248-0.367,2.125c-0.294-1.018-0.329-1.319-1.027-2.161
				c-0.916-1.285-2.971-4.144-3.446-7.188c-0.112-0.514-0.404-2.017-0.733-4.071c-0.258,0.699-0.696,1.248-1.137,1.358
				c-0.221,0.112-0.221-0.182-0.221-0.182c0.183-0.662,0.257-1.394,0.183-1.944c-0.108-0.809-0.329-2.604-0.733-3.044H9.615
				c0.037,1.209-0.44,1.76-0.733,2.163c-0.036-0.954,0-1.686-0.22-2.163c-0.11-0.333-0.366-0.623-0.44-0.294
				c-0.183,0.954-0.256,1.137-0.256,2.017c-0.073,1.321-0.073,1.763-0.222,2.861c-0.072,0.807-0.329,1.796-1.061,2.785
				c-0.147-0.877-0.697-1.575-0.697-1.575c0,1.063,0.221,2.639-0.439,3.484c-0.809,1.099-0.919,1.649-1.175,2.457
				c-0.111-0.955-0.403-0.661-0.549-1.175c-0.588,2.491-2.423,4.399-3.082,4.838c0.44-1.023,0.808-2.199,0.881-2.932
				c0,0-0.11-2.713-0.515-4.252c-1.003-4.801-1.489-15.888-0.731-20.098c1.831-15.107,9.68-28.969,16.28-41.436L18.489-0.8z"/>
		</g>
		<g id="g80" transform="matrix(2.10434, 0, 0, 1.94088, -26.1033, 3.98921)">
			<path id="path82" fill="#FFFFFF" d="M9.354-0.398c0,0-1.138,4.877-0.917,8.288c1.541,1.32,3.191,3.117,3.264,6.82
				c-0.128,0.056-0.146,0.019-0.258-0.074c-0.438-0.565-1.612-0.752-2.492-2.18c0.129,0.899,2.716,4.493,2.898,5.188
				c0.035,2.238,0.365,5.483,0.181,6.124c-0.624-0.311-0.95-1.026-0.88-0.587c0.478,1.228,0.88,2.311,1.449,3.209
				c0,0,0.056,3.171-0.056,2.731h-0.147c-0.513-0.368-1.026-0.807-1.41-1.173c-0.24-0.128-0.276-0.439-0.717-0.864
				c-0.658-0.604-1.026-1.117-1.301-1.228c-0.698-0.493-1.174-0.659-1.577-0.786c-0.127,0-0.385-0.037-0.385-0.037
				s1.321,1.118,2.164,2.383c1.009,1.21,1.43,1.924,1.776,2.655c0.387,0.737,0.937,1.469,1.377,2.092
				c0,1.01-0.074,4.363-0.019,4.932l-0.276-0.202c-0.658-0.403-1.374-1.304-1.98-2.476c-0.329,1.689,1.467,3.667,2.292,4.328
				c0.275,3.136,0.275,4.6,0.79,7.9l-0.037,0.257c-0.735-0.512-1.504-1.321-2.421-2.638c-0.073,1.282,1.21,2.969,2.568,4.582
				c0.178,0.216,0.13,0.498,0.227,0.742c0.161,0.406,0.322,0.909,0.523,1.183c0.166,0.714,0.239,1.669,0.202,2.072l-0.55,1.064
				l0.733,0.881c0.072,0.953-0.109,1.208,0,2.272c0,0-0.842-0.072-1.211-1.028c-0.659,1.836,0.075,3.89,0.661,4.953
				c0.44,1.246,0.696,2.015,0.622,3.372l-0.146,0.402c-0.439-0.879-1.062-1.611-1.687-2.088L12.359,62.6
				c0.617,3.858,0.404,5.132-0.768,7.592l-0.186-0.184c-0.659-1.286-1.905-2.276-2.784-3.19c-0.148-0.036-1.687-1.981-1.799-3.558
				l-0.182,0.038c-0.074,0.55-0.295,1.725-0.147,1.943l-0.147-0.073c-0.879-0.405-2.475-3.519-2.749-5.315
				c0,0-0.058-0.351-0.184-1.066c-0.056-0.696-0.421-2.823-0.496-3.117c-0.128-0.788-0.463-1.784-0.603-2.309
				c0.019-0.184-0.109-0.239-0.202-0.091c-0.202,0.289-0.365,0.567-0.477,0.384c-0.092-0.182-0.017-0.476,0.056-0.879
				c-0.147,0.109-0.476,0.155-0.514-0.11c-0.404-1.797-0.623-4.034-0.623-5.868c0.184-0.475,0.696-1.354,1.101-2.311l-0.036-0.218
				c-0.441,0.218-1.175,0.953-1.321,1.354l-0.184-0.255c-0.146-0.736-0.292-2.165-0.292-3.667c-0.074-0.276,0.035-0.439,0.147-0.661
				c0.292-0.695,0.624-1.474,0.879-2.237c0.221-0.772,1.449-3.151,1.817-3.704l-0.242,0.22c-0.675,0.24-2.418,2.348-2.638,2.495
				l-0.165,0.017c0.091-2.109,0.678-6.801,1.081-9.682c0.404-1.081,3.558-4.38,2.823-3.794c-1.428,0.514-1.905,1.027-2.2,1.174
				l-0.439,0.147c0.438-2.047,1.349-9.446,2.311-11.441c0.695-1.21,1.393-1.54,1.906-2.86l-0.368,0.182
				c-0.256,0.259-1.394,1.102-2.089,2.056l-0.223,0.036c0.33-0.953,0.441-1.979,1.101-3.3C3.705,9.796,4,9.577,4.221,9.101
				C4.769,8.403,4.99,8.146,5.504,7.89c0.255-0.108,0.733-0.292,0.733-0.292c-1.464,6.005-1.98,10.887-2.421,17.563
				c-0.44,10.635,0.452,23.503,4.036,31.463C4.99,47.311,3.89,37.19,4.257,26.922C4.55,18.121,5.868,11.08,8.731-0.8L9.354-0.398z"
				/>
		</g>
		<g id="g84" transform="matrix(2.10434, 0, 0, 1.94088, -44.8944, 2.99043)">
			<path id="path86" fill="#FFFFFF" d="M16.339-0.8c-0.916,1.248-7.224,13.129-7.847,15.293c-5.571,11.183-8.874,22.33-8.654,33.297
				c0,4.802,0.515,8.103,1.1,11.622c0.258,1.356,0.623,3.19,0.55,4.362l0.185-0.109c0.256-0.477,0.952-1.979,1.174-3.225
				c0.074-0.477,0.33,0,0.33,0c0.107,0.328,0.329,0.476,0.366,0.805c0,0.295,0.144,0.259,0.219,0.036
				c0.403-0.805,0.514-1.284,0.366-2.126c-0.146-0.696-0.255-3.593,0.074-4.657c0-0.295,0.256,0,0.256,0
				c0.185,0.441,0.478,1.248,1.136,1.908c0,0,0.276,0.182,0.294,0c-0.07-0.77-0.145-5.794,1.028-6.346
				c0.439,0.109,0.477,0.405,0.806,0.734c0.369-0.404,0.515-2.127,0.405-3.447c0.036-2.053-0.258-4.108-0.441-5.389
				c-0.154-0.405,0-0.479,0.22-0.553c0.054-0.039,0.88-1.063,0.88-1.611c-0.694,0.476-0.88,0.586-1.54,1.028
				c-0.073-1.579-0.77-4.071-1.539-6.018c0.807,0.737,1.318,1.578,1.576,2.276c0.293-1.613,0.403-2.569,0.44-3.339
				c-0.402-1.43-1.172-4.545-1.1-6.857c0.477,1.688,0.916,3.521,1.394,4.622c0.22-0.809,0.403-2.239,0.696-3.449
				c0.402-0.293,0.88-0.587,1.026-0.841c-0.147-0.259-0.772,0.22-0.88,0.254c0.073-1.136,0.256-3.336-0.513-6.93l0.108-0.11
				c0.33,0.148,0.733,0.807,0.88,1.505c0.661-0.77,1.101-4.583,1.284-6.086c-0.697,0-1.026,0.769-1.504,0.694
				c0.073-0.477,0.11-0.255,0.293-0.694c0.184-0.515,0.625-1.03,0.808-1.725c0.403-0.587,0.403-1.284,0.44-1.943
				c0-0.624-0.073-1.54,0.439-2.347c0.112,0.327,0.038,0.55,0.292,1.246c0,0,1.029-2.237,1.579-2.749
				c0.731-3.191,2.492-6.785,4.144-9.133"/>
		</g>
		<g id="g88" transform="matrix(2.10434, 0, 0, 1.94088, -14.3384, 6.35651)">
			<path id="path90" fill="#FFFFFF" d="M2.15-0.518C0.939,1.208,0.059,3.92-0.382,5.864c0.55-0.294,0.587-0.259,1.101-0.44
				C0.903,4.506,2.349-0.8,2.15-0.518z"/>
		</g>
		<g id="g92" transform="matrix(2.10434, 0, 0, 1.94088, -34.7837, 84.2212)">
			<path id="path94" fill="#F1C817" d="M-0.264,1.241c0.022,0.106,0.192,0.04,0.102,0.146c0.22,0,0.449,0.043,0.653-0.02
				c0.103-0.03,0.173-0.191,0.191-0.279c0.06-0.307,0.211-0.698-0.065-0.913c-0.242-0.197-0.2-0.507-0.371-0.658
				c-0.079-0.069-0.247-0.116-0.361-0.23C-0.2-0.8-0.354-0.606-0.353-0.519c0.004,0.24,0.163,0.484,0.159,0.742
				C-0.199,0.617-0.382,0.727-0.264,1.241z"/>
		</g>
		<g id="g96" transform="matrix(2.10434, 0, 0, 1.94088, -41.3906, 79.6534)">
			<path id="path98" fill="#F1C817" d="M0.228,0.224C0.203-0.201,0.063-0.8,0.696-0.632c0.199,0.051,0.244,0.346,0.249,0.489
				c0.01,0.384,0.098,0.691,0.261,1.028c0.093,0.191-0.064,0.356-0.16,0.492C0.801,1.74,0.296,1.945,0.008,1.587
				c-0.176-0.217-0.39-0.543-0.231-0.84c0.125-0.233,0.225-0.36,0.414-0.563"/>
		</g>
		<g id="g100" transform="matrix(2.10434, 0, 0, 1.94088, -39.4712, 87.4225)">
			<path id="path102" fill="#F1C817" d="M-0.049,0.587c-0.333-0.479-0.177-0.925,0.212-1.209C0.409-0.8,0.707-0.68,0.778-0.47
				c0.136,0.441,0.308,0.809,0.444,1.248c0.139,0.447-0.427,0.88-0.825,0.685C0.113,1.318,0.133,0.849-0.049,0.587z"/>
		</g>
		<g id="g104" transform="matrix(2.10434, 0, 0, 1.94088, -39.8041, 93.3911)">
			<path id="path106" fill="#F1C817" d="M0.45-0.75C0.291-0.8,0.276-0.663,0.197-0.592c-0.165,0.141-0.166,0.439-0.31,0.634
				C-0.382,0.404-0.301,0.915-0.195,1.26c0.071,0.237,0.425,0.582,0.726,0.556c0.476-0.04,0.828-0.925,0.465-1.135
				c-0.472-0.28-0.306-0.985-0.48-1.367c-0.013-0.028-0.126-0.01-0.2-0.01"/>
		</g>
		<g id="g108" transform="matrix(2.10434, 0, 0, 1.94088, -31.9519, 90.6087)">
			<path id="path110" fill="#F1C817" d="M-0.255-0.221c-0.122-0.162-0.127-0.381,0.013-0.485C-0.114-0.8,0.109-0.755,0.238-0.643
				C0.277-0.61,0.41-0.523,0.449-0.492C0.843-0.179,1.084,0.24,0.871,0.72C0.813,0.855,0.579,0.982,0.415,0.86
				C0.288,0.765,0.111,0.759,0.023,0.596C-0.118,0.331-0.061,0.031-0.255-0.221z"/>
		</g>
		<g id="g112" transform="matrix(2.10434, 0, 0, 1.94088, -42.5003, 85.5253)">
			<path id="path114" fill="#F1C817" d="M0.423-0.566C0.352-0.8,0.154-0.685,0.044-0.515c-0.259,0.402-0.389,0.792-0.426,1.379
				c0.073,0.328,0.546,0.391,0.777,0.245C0.92,0.78,0.544-0.483,0.519-0.309C0.535-0.422,0.423-0.591,0.423-0.566z"/>
		</g>
		<g id="g116" transform="matrix(2.10434, 0, 0, 1.94088, -20.0594, 92.8661)">
			<path id="path118" fill="#F1C817" d="M-0.042-0.719c-0.107-0.081-0.284,0-0.294,0.132c-0.04,0.376-0.046,1.09,0.526,0.974
				C0.393,0.348,0.528,0.138,0.48-0.075C0.411-0.379,0.186-0.55-0.042-0.719z"/>
		</g>
		<g id="g120" transform="matrix(2.10434, 0, 0, 1.94088, -18.0908, 95.351)">
			<path id="path122" fill="#F1C817" d="M0.393-0.662C0.254-0.8,0.008-0.778-0.095-0.7c-0.209,0.162-0.287,0.505-0.213,0.764
				c0.082,0.282,0.178,0.583,0.387,0.801c0.134,0.14,0.413,0.302,0.487,0.201c0.171-0.242,0.331-0.566,0.255-0.916
				C0.751-0.161,0.609-0.438,0.393-0.662z"/>
		</g>
		<g id="g124" transform="matrix(2.10434, 0, 0, 1.94088, -6.43048, 94.754)">
			<path id="path126" fill="#F1C817" d="M0.097-0.794c-0.102,0.009-0.232,0.023-0.273,0.086c-0.205,0.322,0.019,0.696,0.291,0.83
				C0.4,0.268,0.76-0.213,0.548-0.478C0.414-0.651,0.201-0.8-0.049-0.794"/>
		</g>
		<g id="g128" transform="matrix(2.10434, 0, 0, 1.94088, -11.2907, 99.555)">
			<path id="path130" fill="#F1C817" d="M-0.11,0.106c-0.106-0.054-0.272-0.394-0.191-0.621C-0.226-0.718,0.006-0.8,0.203-0.766
				C0.43-0.723,0.576-0.563,0.704-0.395C1.04,0.037,1.135,0.712,0.699,1.073c-0.177,0.15-0.496,0.114-0.621-0.097
				c-0.16-0.264-0.042-0.477-0.164-0.76C-0.062,0.217-0.138,0.106-0.11,0.106z"/>
		</g>
		<g id="g132" transform="matrix(2.10434, 0, 0, 1.94088, -7.15816, 99.7085)">
			<path id="path134" fill="#F1C817" d="M0.972,0.264C0.673,0.03,0.797-0.44,0.467-0.65C0.283-0.771,0.038-0.8-0.132-0.657
				c-0.18,0.156-0.179,0.38-0.225,0.614c-0.025,0.13,0.059,0.245,0.116,0.358c0.241,0.493,0.826,0.509,1.283,0.787
				c0.061,0.037,0.18-0.089,0.225-0.168C1.408,0.688,1.18,0.427,0.972,0.264z"/>
		</g>
		<g id="g136" transform="matrix(2.10434, 0, 0, 1.94088, -16.3112, 100.516)">
			<path id="path138" fill="#F1C817" d="M0.469-0.614C0.314-0.8,0.048-0.739-0.111-0.631C-0.166-0.595-0.22-0.498-0.22-0.425
				c-0.003,0.477-0.162,0.97,0.012,1.422c0.105,0.272,0.347,0.602,0.661,0.463c0.224-0.1,0.364-0.372,0.289-0.633
				C0.602,0.342,0.809-0.204,0.469-0.614z"/>
		</g>
		<g id="g140" transform="matrix(2.10434, 0, 0, 1.94088, -22.2686, 99.3521)">
			<path id="path142" fill="#F1C817" d="M11.598,0.131c-0.095-0.334-0.696,0.005-0.912-0.209c-0.189-0.188-0.417-0.356-0.451-0.652
				c-0.153,0.348-0.031,0.709,0.131,1.017c0.092,0.176,0.305,0.27,0.442,0.426c0.157,0.169,0.212,0.402,0.3,0.614
				c0.112,0.277-0.16,0.437-0.331,0.47c-0.536,0.099-0.552-0.671-0.721-1.043C9.937,0.487,9.595,0.382,9.414,0.136
				C9.37,0.08,9.291,0.019,9.25-0.051C9.098-0.322,8.79-0.514,8.656-0.8C8.632-0.675,8.674-0.551,8.711-0.44
				c0.256,0.81,0.667,1.525,1.021,2.289c0.1,0.212,0.209,0.421,0.27,0.653C10.056,2.7,10.027,2.937,9.912,3.06
				C9.799,3.187,9.529,2.913,9.474,3.005C9.279,3.348,9.583,3.757,9.757,4.092C9.881,4.33,10.1,4.567,9.997,4.84
				c-0.02,0.053-0.094,0.125-0.169,0.146c-0.26,0.07-0.488-0.098-0.626-0.244C8.661,4.176,8.19,3.607,7.761,2.927
				c-0.165-0.26-0.075-0.599-0.258-0.855C7.398,1.925,7.198,1.687,7.016,1.849C6.957,1.905,6.886,1.98,6.873,2.062
				C6.816,2.396,6.748,2.709,6.545,2.956c-0.058,0.07-0.17,0.184-0.193,0.226c-0.277,0.511-0.339,1.1-0.428,1.699
				C5.902,5.023,5.866,5.202,5.719,5.275C5.565,5.357,5.461,5.192,5.377,5.086C5.154,4.812,5.064,4.485,4.91,4.171
				C4.818,3.975,4.814,3.736,4.69,3.53C4.685,3.518,4.648,3.525,4.624,3.525c0.021,0.056-0.029,0.106-0.053,0.141
				c-0.147,0.253-0.387,0.37-0.65,0.469C3.777,4.191,3.613,4.085,3.582,3.96c-0.177-0.712-0.667-1.218-0.866-1.9
				C2.412,2.062,2.114,2.131,1.915,1.835C1.477,1.187,1.565,0.461,1.507-0.25C1.409-0.165,1.29-0.106,1.219,0.01
				C0.523,1.129,0.256,2.295-0.042,3.562C-0.101,3.816-0.138,3.91-0.218,4.148c-0.164,0.498,0.092,0.569,0.35,0.239
				c0.45-0.58,0.356-0.102,0.402,0.037c0.112,0.847,0.551,1.687,0.731,3.117c0.15,1.392,0.442,2.786,0.588,3.483
				c0.39,2.29,1.907,4.621,2.824,5.199c-0.109-0.953,0.22-1.312,0.147-2.047l0.186-0.037c0.034,1.285,0.988,2.935,2.087,3.853
				c0.88,1.025,1.358,1.244,2.099,2.308c0.22,0.367,0.395,0.535,0.579,0.828c0.403-0.828,1.137-2.293,1.137-3.907c0,0,0,0.293,0,0
				c0-1.239-0.038-2.64-0.367-3.742c0.661,0.296,1.395,1.358,1.945,2.277c0.33-0.7,0.146-2.642-0.366-3.595
				c-0.514-1.174-1.358-2.787-0.771-5.17c0.366,0.841,0.624,0.805,1.211,0.952c0.11-0.881-0.038-2.126,0-2.273
				c-0.223-0.4-0.732-0.883-0.732-0.883l0.548-1.06c0.257-1.063-0.255-1.908-0.201-2.072C11.902,1.05,11.714,0.532,11.598,0.131z"/>
		</g>
		<g id="g144" transform="matrix(2.10434, 0, 0, 1.94088, -11.04, 88.2509)">
			<path id="path146" fill="#F1C817" d="M-0.079-0.041c-0.08-0.227-0.303-0.395-0.184-0.621c0.033-0.063,0.154-0.047,0.243-0.068
				C0.241-0.8,0.55-0.759,0.722-0.574c0.136,0.146,0.228,0.319,0.341,0.5c0.114,0.187,0.145,0.411,0.22,0.618
				c0.084,0.228-0.009,0.481-0.187,0.589C0.889,1.258,0.801,1.366,0.497,1.23C0.383,1.179,0.313,0.934,0.259,0.839
				c-0.07-0.127-0.065-0.486-0.158-0.604C0.016,0.134-0.03,0.098-0.079-0.041z"/>
		</g>
		<g id="g148" transform="matrix(2.10434, 0, 0, 1.94088, -13.4813, 91.9545)">
			<path id="path150" fill="#F1C817" d="M0.884-0.71C0.795-0.795,0.677-0.791,0.585-0.798C0.54-0.8,0.411-0.79,0.416-0.708
				c0.03,0.444-0.485,0.653-0.641,1.003C-0.382,0.658-0.06,1.002,0.206,1.247c0.213,0.196,0.55,0.063,0.808-0.016
				c0.426-0.128,0.48-0.725,0.381-1.127C1.319-0.199,1.127-0.471,0.884-0.71z"/>
		</g>
		<g id="g152" transform="matrix(2.10434, 0, 0, 1.94088, -11.1716, -1.06194)">
			<path id="path154" fill="#FFFFFF" d="M4.659-0.8h-5.041v1.173H4.22L4.659-0.8z"/>
		</g>
		<g id="g156" transform="matrix(2.10434, 0, 0, 1.94088, -1.75947, -9.35804)">
			<path id="path158" fill="#FFFFFF" d="M-0.382,0.192l0.184,0.862L0.756-0.8L-0.382,0.192z"/>
		</g>
		<g id="g160" transform="matrix(2.10434, 0, 0, 1.94088, -9.08763, -5.26414)">
			<path id="path162" fill="#FFFFFF" d="M-0.382,0.464L0.13-0.8l1.468,1.264H-0.382z"/>
		</g>
		<g id="g164" transform="matrix(2.10434, 0, 0, 1.94088, -5.53866, -10.2111)">
			<path id="path166" fill="#FFFFFF" d="M-0.382,1.62L0.297-0.8l0.474,3.409L-0.382,1.62z"/>
		</g>
		<g id="g168" transform="matrix(2.10434, 0, 0, 1.94088, -44.5861, 88.719)">
			<path id="path170" fill="#F1C817" d="M-0.199-0.728C-0.161-0.399-0.167-0.6-0.007-0.325C0.14-0.078,0.058,0.254,0.17,0.538
				c0.094-0.123,0.275-0.179,0.291-0.365C0.6,0.741,0.189,1.287,0.389,1.858c0.224-0.201,0.556-0.247,0.733-0.515
				C1.107,1.571,1.044,1.789,1.012,2.01C0.955,2.392,1.109,2.776,1.154,3.175c0.054,0.503,0.679,0.882,0.501,1.376
				C1.365,5.357,1.211,6.21,1.473,6.97c0.055,0.16,0.136,0.427,0.321,0.513c0.14,0.064,0.352,0.068,0.489,0
				c0.075-0.038,0.139-0.159,0.153-0.272C2.493,6.857,2.336,6.527,2.4,6.189c0.079-0.439,0.156-0.878,0.435-1.23
				c0.057-0.071,0.271-0.048,0.32,0.062c0.184,0.413,0.11,0.906,0.354,1.286c0.084,0.128,0.373,0.219,0.526,0.077
				c0.342-0.319,0.218-0.817,0.262-1.232c0.073-0.688-0.25-1.057-0.341-1.758C3.871,2.738,3.993,2.641,4.202,2.37
				c0.22,0.615,0.222,1.284,0.666,1.829c0.095,0.115,0.269,0.119,0.343,0.058C5.532,3.98,5.467,3.377,5.233,2.985
				C4.877,2.39,4.587,1.449,5.229,0.903C5.188,1.204,5.192,1.545,5.347,1.769C5.56,2.078,5.955,2.712,6.011,3.321
				c0.022,0.217,0.332,0.304,0.523,0.133c0.033-0.031-0.008-0.176,0.092-0.188c0.308-0.043,0.453,0.321,0.438,0.572
				c0.122,0,0.284,0.042,0.346-0.021c0.296-0.303,0.224-1.025,0.243-1.444C7.685,1.599,7.87,1.894,7.997,1.819
				c0,0,0.055,0.369-0.017,1.431C8.09,4.572,7.944,6.296,7.575,6.697C7.246,6.369,7.209,6.074,6.77,5.963
				c-1.173,0.552-1.099,5.577-1.028,6.345c-0.017,0.184-0.294,0-0.294,0c-0.658-0.659-0.951-1.467-1.136-1.905
				c0,0-0.256-0.295-0.256,0c-0.329,1.063-0.22,3.959-0.074,4.658c0.147,0.841,0.037,1.318-0.366,2.124
				c-0.074,0.222-0.219,0.259-0.219-0.036c-0.037-0.328-0.259-0.474-0.366-0.807c0,0-0.256-0.474-0.33,0
				c-0.222,1.246-0.918,2.751-1.174,3.228l-0.185,0.11c0.073-1.173-0.292-3.006-0.55-4.364c-0.585-3.521-1.173-6.82-1.173-11.624
				c0-2.165,0.118-4.491,0.118-4.491L-0.199-0.728z"/>
		</g>
		<g id="g172" transform="matrix(2.10434, 0, 0, 1.94088, -12.1909, 105.262)">
			<path id="path174" fill="#F1C817" d="M-0.382-0.288c0.521,1.653,1.18,3.889,1.622,4.732C1.129,3.491-0.154-0.288-0.118-0.542
				C-0.082-0.8-0.382-0.288-0.382-0.288z"/>
		</g>
		<g id="g176" transform="matrix(2.10434, 0, 0, 1.94088, 64.671, -15.4745)">
			<path id="path178" fill="#FFFFFF" d="M3.522-0.173c-0.11-0.123-0.505-0.059-0.574-0.227C2.901-0.514,2.842-0.646,2.772-0.703
				C2.652-0.8,2.481-0.667,2.314-0.64C2.088-0.605,1.847-0.653,1.618-0.729C1.225-0.276,0.176-0.576-0.319-0.54
				c-0.062,0.003,0.312,0.215,0.378,0.272c0.347,0.297,0.92,0.271,1.343,0.285C1.471,0.02,1.609-0.055,1.663-0.061
				c0.455-0.062,0.908,0.095,1.388,0.177C3.201,0.142,3.673-0.015,3.522-0.173z"/>
		</g>
		<g id="g180" transform="matrix(2.10434, 0, 0, 1.94088, 72.5871, -18.9792)">
			<path id="path182" fill="#FFFFFF" d="M6.889,2.268L5.801,1.646c-0.066-0.107-0.15-0.237-0.254-0.334
				C5.302,1.089,5.173,0.823,4.89,0.645c-0.372-0.24-0.681-0.549-1.092-0.699C3.753-0.069,3.705-0.052,3.656-0.062
				c-0.031-0.007-0.05-0.035-0.042-0.071c-0.034,0-0.082,0.014-0.104-0.005c-0.055-0.064-0.142-0.1-0.195-0.117
				c-0.213-0.07-0.456,0.056-0.644-0.109C2.565-0.459,2.44-0.516,2.32-0.59C1.996-0.8,1.624-0.673,1.276-0.618
				c-0.07,0.01-0.173,0.102-0.246,0.166C0.898-0.337,0.681-0.543,0.506-0.484C0.353-0.434,0.183-0.255,0.33-0.11
				c0.159,0.158,0.364,0.268,0.58,0.321c0.63,0.159,1.292,0.003,1.887,0.266C2.969,0.552,3.18,0.639,3.25,0.859
				C3.19,0.871,3.125,0.926,3.073,0.887C2.926,0.782,2.768,0.784,2.624,0.773C1.621,0.691,0.621,0.608-0.382,0.748
				c0,0.255,0.101,0.525,0.334,0.557c0.312,0.041,0.646-0.056,0.945-0.032C1.224,1.296,1.573,1.507,1.9,1.692
				c0.044,0.025,0.121,0.023,0.173,0C2.22,1.632,2.348,1.421,2.51,1.496c0.099,0.05,0.204,0.093,0.308,0.111
				c0.23,0.039,0.395-0.003,0.613,0.029c0.463,0.069,0.859,0.379,1.316,0.312c0.345-0.05,0.503,0.064,0.672,0.219
				C5.319,2.08,6.051,2.601,6.113,2.472C6.14,2.424,6.881,2.381,6.889,2.268z"/>
		</g>
		<g id="g184" transform="matrix(2.10434, 0, 0, 1.94088, 85.5728, -18.3612)">
			<path id="path186" fill="#FFFFFF" d="M3.372,1.725C3.076,1.539,3.043,1.171,2.885,0.899C2.764,0.691,2.602,0.523,2.41,0.424
				C1.548-0.023,0.543-0.8-0.098-0.741C-0.3-0.721-0.382-0.503-0.267-0.39c0.221,0.213,0.61,0.286,0.643,0.636
				c0.859,0.429,2.368,0.716,2.297,1.653C2.668,1.99,3.226,1.706,3.372,1.725z"/>
		</g>
		<g id="g188" transform="matrix(2.10434, 0, 0, 1.94088, -11.1716, -1.07902)">
			<path id="path190" fill="#F1C817" d="M-0.382-0.791L5.025-0.8C4.73-0.214,4.554,0.387,4.554,0.387l-4.935-0.006V-0.791z"/>
		</g>
	</g>
</g>
</svg>
