<svg xmlns="http://www.w3.org/2000/svg" width="512" height="512" viewBox="0 0 512 512"><g fill="none" fill-rule="evenodd"><path fill="#FFB81C" d="M257.483 113.15c79.71 0 144.333 64.62 144.333 144.333 0 79.708-64.624 144.332-144.333 144.332-79.713 0-144.332-64.626-144.332-144.332 0-79.713 64.62-144.332 144.334-144.332zm0-32.15c-23.81 0-46.926 4.67-68.704 13.882-21.02 8.89-39.893 21.61-56.09 37.808-16.198 16.198-28.92 35.07-37.81 56.09C85.67 210.556 81 233.67 81 257.482c0 23.81 4.67 46.927 13.882 68.703 8.89 21.02 21.61 39.89 37.808 56.086 16.198 16.2 35.07 28.92 56.087 37.81 21.78 9.213 44.895 13.885 68.706 13.885 23.81 0 46.927-4.672 68.704-13.884 21.02-8.89 39.89-21.61 56.087-37.807 16.2-16.198 28.92-35.068 37.808-56.087 9.212-21.777 13.884-44.894 13.884-68.704 0-23.81-4.672-46.927-13.884-68.706-8.89-21.02-21.61-39.89-37.808-56.087-16.198-16.198-35.068-28.92-56.087-37.81C304.412 85.67 281.293 81 257.483 81z"/><path fill="#FFB81C" d="M270.94 194.863l-26.974-.01v-95.99h26.974z"/><path fill="#010101" d="M274.96 94.845v104.038l-35.014-.01V94.843h35.013zm-8.038 8.038h-18.937v87.954l18.937.007v-87.96z"/><path fill="#FFB81C" d="M270.94 416.355h-26.975v-95.772h26.975z"/><path fill="#010101" d="M274.96 316.563v103.81h-35.014v-103.81h35.013zm-8.038 8.038h-18.937v87.736h18.937V324.6z"/><path fill="#FFB81C" d="M360.165 379.397l-66.04-66.04 5.44-5.44 1.18-1.18-.002-1.666-.023-23.266 78.52 78.518-19.075 19.077zm-205.425 0l-19.075-19.076 82.366-82.362 5.75-5.748v38.144l-69.04 69.043zm261.456-108.3h-124.25l-3.867-3.865-1.18-1.178h-1.662l-57.44-.017h-4.018v5.06H98.708V244.12h125.148v5.275h63.12l1.178-1.177 4.098-4.098H416.2v26.977zm-192.34-28.01l-5.827-5.826-82.366-82.362 19.075-19.075 69.115 69.117v38.146zm76.963-9.77l-.026-22.97-.002-1.662-1.177-1.176-5.57-5.57 66.12-66.12 19.075 19.076-78.42 78.42z"/><path fill="#010101" d="M360.165 130.14l24.76 24.757-85.208 85.205h120.5v35.012h-120.5l85.207 85.207-24.76 24.76-71.72-71.723 8.283-8.282-.027-23.536-11.464-11.466-57.436-.017v41.962l-73.06 73.06-24.76-24.758 85.208-85.206h-120.5v-35.012H215.19L129.98 154.9l24.76-24.76 73.134 73.134v42.105h57.437l11.49-11.49-.023-23.537-8.413-8.41 71.802-71.803zm0 11.365l-60.433 60.434 2.728 2.726 2.35 2.35.004 3.326.014 13.283 68.727-68.73-13.39-13.39zm-205.425 0l-13.39 13.392 78.486 78.487v-26.78l-65.096-65.098zM412.178 248.14H293.915l-2.92 2.92-2.353 2.355h-68.806v-5.275h-117.11v18.938h117.037v-5.064l8.04.003 57.436.02h3.326l2.354 2.353 2.69 2.69h118.57v-18.94h-.002zm-192.416 33.768L141.35 360.32l13.39 13.392 65.022-65.022v-26.782zm84.987 9.606l.012 13.552.005 3.336-2.358 2.36-2.6 2.596 60.354 60.357 13.39-13.39-68.806-68.81z"/><path fill="#010101" d="M299.054 173.598l25.863 25.27V242.5l-15.806 15.19 15.808 15.233v43.64l-25.863 25.253H190.007v-17.798l12.632-12.038V203.46l-12.634-12.052v-17.81h109.047zm-71.18 71.78h57.437l11.49-11.49-.023-23.536-11.465-11.464-57.436-.02v46.51zm-.074 71.185h57.436l11.49-11.49-.026-23.536-11.464-11.466-57.436-.015v46.51zm76.87-156.743H176.23v37.485l4.265 4.07 8.364 7.983v96.72l-8.36 7.967-4.27 4.07v37.482h128.436l4.013-3.92 25.863-25.254 4.152-4.054v-55.304l-4.217-4.063-5.495-5.295 5.48-5.27 4.23-4.065v-55.305l-4.148-4.055-25.864-25.27-4.012-3.923zm-63.016 71.78v-18.95l37.948.01 3.4 3.402.014 12.12-3.41 3.413h-37.952v.002zm-.075 71.184v-18.946l37.945.01 3.4 3.404.015 12.12-3.41 3.41h-37.95v.002z"/><path fill="#010101" d="M300.34 344.974H186.848V322.67l.977-.933 11.652-11.108V204.812l-11.655-11.12-.976-.934v-22.32H300.34l.923.897 25.862 25.272.952.927v46.31l-.972.93-13.438 12.917 13.442 12.953.966.93v46.317l-.954.928-25.862 25.253-.92.9zm-69.382-31.566h52.973l9.64-9.637-.026-20.923-9.613-9.615-52.972-.016v40.194zm.075-71.19h52.97l9.638-9.636-.02-20.922-9.618-9.617-52.967-.015v40.19z"/><path fill="#FFB81C" d="M299.054 173.598l25.863 25.27V242.5l-15.806 15.19 15.808 15.233v43.64l-25.863 25.253H190.007v-17.798l12.632-12.038V203.46l-12.634-12.052v-17.81h109.047zm-71.18 71.78h57.437l11.49-11.49-.023-23.536-11.465-11.464-57.436-.02v46.51zm-.074 71.185h57.436l11.49-11.49-.026-23.536-11.464-11.466-57.436-.015v46.51zm73.828-149.28H183.692v26.828l1.955 1.868 10.675 10.187v103.112L185.65 319.45l-1.958 1.865v26.817h117.935l1.84-1.796 25.863-25.252 1.905-1.86V270.24l-1.934-1.862-11.075-10.675 11.07-10.644 1.94-1.864V196.21l-1.902-1.858-25.863-25.27-1.842-1.8zm-67.437 71.78v-33.877l48.506.016 7.768 7.77.02 18.303-7.788 7.788H234.19zm-.074 71.186v-33.877l48.504.015 7.768 7.768.02 18.305-7.79 7.79h-48.503z"/><path fill="#010101" d="M257.483 113.15c79.71 0 144.333 64.62 144.333 144.333 0 79.708-64.624 144.332-144.333 144.332-79.713 0-144.332-64.626-144.332-144.332 0-79.713 64.62-144.332 144.334-144.332zm0-25.26c-22.883 0-45.097 4.487-66.022 13.338-20.197 8.544-38.33 20.768-53.9 36.336-15.566 15.566-27.79 33.7-36.334 53.9-8.848 20.922-13.336 43.135-13.336 66.02 0 22.882 4.487 45.094 13.337 66.02 8.543 20.195 20.768 38.33 36.335 53.896 15.567 15.57 33.702 27.794 53.9 36.337 20.926 8.852 43.138 13.338 66.02 13.338 22.885 0 45.098-4.486 66.023-13.338 20.195-8.543 38.33-20.767 53.898-36.335 15.568-15.568 27.794-33.703 36.336-53.9 8.85-20.924 13.336-43.136 13.336-66.02 0-22.883-4.487-45.096-13.338-66.02-8.543-20.198-20.77-38.333-36.337-53.9-15.566-15.567-33.702-27.792-53.9-36.335-20.922-8.85-43.133-13.337-66.02-13.337z"/></g></svg>