<svg xmlns="http://www.w3.org/2000/svg" width="512" height="512" viewBox="0 0 512 512"><g fill="none" fill-rule="evenodd"><path fill="#FFF" d="M388.422 190.434c-.24-1.666-1.47-.405-1.47-.405s-49.907 55.415-130.717 116.31C175.44 245.446 125.53 190.03 125.53 190.03s-1.23-1.262-1.47.404c0 0-1.815 9.16 5.344 16.607 0 0 49.537 54.94 117.543 106.24a1060.43 1060.43 0 0 1-19.604 14.08l2.14 11.43a686.626 686.626 0 0 0 26.75-18.62A687.563 687.563 0 0 0 283 338.79l2.14-11.43c-6.72-4.693-13.234-9.4-19.605-14.08 68.005-51.3 117.53-106.24 117.53-106.24 7.173-7.444 5.357-16.606 5.357-16.606"/><path fill="#FFF" d="M152.846 198.89c10.173 8.124 13.246 13.335 15.588 15.683 1.997 1.982 3.97 2.18 6.12 4.33 3.228 3.212 4.208 7.08 7.28 7.08 3.144 0 6.61-6.872 13.4-6.872 4.543 0-2.808 3.06-2.808 6.016 0 2.532 5.583-.938 6.802-.938 2.03 0 9.91 3.53 14.56-2.73-2.093-2.1-8.31-1.247-8.31-9.44 0-2.264 1.937-6.755 6.875-6.755 3.957 0 6.98 3.487 5.726 7.466-.408 1.24 1.72 2.71 1.72 4.997 0 6.885-4.746 7.656-4.746 10.677 0 6.068 4.302 5.6 6.68 5.46 5.548 0 14.12 4.61 17.024 4.61 3.55 0 6.357-1.54 6.357-3.29 0-1.763-4.147-9.556-6.466-9.556-1.303 0-2.713 2.484-4.72 2.484-2.238 0-3.504-1.396-2.69-2.776.44-.783-.84-2.055-.84-4.12 0-2.51 3.467-7.914 10.21-7.914 5.583 0 11.416 4.843 11.416 12.65 0 6.48-1.757 10.223-1.757 11.507 0 2.394 4.565 5.195 7.494 5.195 2.916 0 13.843-4.073 17.358-4.073 3.502 0 7.567.256 7.567-2.986 0-3.237-2.225-9.43-4.59-9.43-2.346 0-7.748 7.608-14.68 7.608-.814 0-1.746-.167-1.746-1.33 0-1.165 1.852-3.806 2.82-4.38.957-.56 6.038-2.74 6.038-4.573 0-1.04-4.638-2.334-4.638-4.39 0-2.095 4.65-.417 4.65-2.436 0-1.82-4.243-3.523-4.243-8.39 0-3.512 2.415-7.143 6.957-7.143 8.8 0 14.31 6.57 22.57 6.57 7.004 0 14.703-3.71 18.073-3.71 10.245 0 9.982 11.563 20.155 11.563 4.734 0 6.42-1.787 6.42-7.327 0-3.034-1.47-2.74-3.253-2.74-1.768 0-2.02-1.356-4.65-1.356-3.85 0-8.104-1.996-8.104-3.955 0-2.007 14.393-6.606 16.496-6.606 7.365 0 8.057 14.677 19.892 14.677 2.99 0 5.2-.645 5.2-5.858 0-5.21-.837-4.736-1.794-4.61-.932.135-5.725 1.47-5.725-.026 0-1.505 2.27-2.998-.466-3.44-12.55-2.077-8.89-13.818-13.78-13.818-2.332 0-10.45 4.4-10.45-.657 0-2.79 1.938-6.595 1.938-12.603 0-6.64-3.802-10.575-.143-10.575 7.996 0 21.982 4.073 21.982 6.014 0 1.397-7.865.59-7.865 4.11 0 2.072 4.52 4.585 11.37 4.585 6.874 0 9.636-2.113 6.217-2.113-3.41 0-8.68-.096-8.68-2.472 0-2.37 6.083-1.322 6.083-3.817 0-3.678-6.204-3.4-17.572-6.64-56.6-16.083-76.302-37.067-111.83-37.067-43.726 0-36.733 29.794-63.306 36.518-21.015 5.332-22.964 16.046-22.964 28.825 0 7.184 2.437 13.21 3.776 14.286m20.083 11.083c-2.333 0-1.735-1.63-1.735-1.63 3.024-4.122 1.47-13.88 5.248-13.88 2.128 0-.92 2.174-.92 4.694 0 2.842 4.207 2.007 4.207 5.333 0 2.134-3.44 5.484-6.8 5.484m9.048 13.878s-1.747-1.26-1.747-2.174c0-2.078 3.53-2.68 3.53-2.03 0 1.76-1.78 4.204-1.78 4.204m2.845-37.79c0 1.446-2.965 4.903-4.842 4.903-1.422 0-3.693-5.53-3.693-6.014 0-.475.656-1.395 2.736-1.395 2.09 0 5.798 1.05 5.798 2.508m-17.036-21.976c8.393 0 12.73 4.94 12.73 10.355 0 5.423-4.554 9.347-9.597 9.347-3.214 0-4.17-2.687-4.17-4.05 0-1.858 2.784-3.51 2.784-5.708 0-2.754-3.36-4.647-6.707-4.647-5.678 0-9.502 4.867-9.502 2.467 0-2.86 5.74-7.764 14.464-7.764m101.572 90.197c-14.368 5.32-20.248 7.537-19.435 9.723.454 1.214 3.42 4.723 22.95-2.478 19.45-7.207 57.762-24.747 56.434-28.318-.644-1.756-27.73 9.16-59.95 21.073m31.393-126.177c23.73 6.515 37.392 12.536 38.003 10.356.598-2.187-18.266-8.988-35.683-13.772-17.418-4.778-35.49-7.153-34.907-6.604 1.83 1.727 8.847 3.5 32.587 10.02"/><path fill="#A2AAAD" d="M256.235 87.295C162.362 87.295 86 163.595 86 257.39c0 93.8 76.362 170.093 170.235 170.093 93.887 0 170.25-76.296 170.25-170.093 0-93.794-76.363-170.095-170.25-170.095m0 338.05c-92.69 0-168.107-75.325-168.107-167.955 0-92.616 75.418-167.97 168.107-167.97 92.703 0 168.108 75.354 168.108 167.97 0 92.63-75.405 167.956-168.108 167.956"/><path fill="#A2AAAD" d="M256.235 105.622c-83.748 0-151.886 68.085-151.886 151.76 0 83.702 68.136 151.77 151.884 151.77 83.762 0 151.898-68.068 151.898-151.77 0-83.675-68.137-151.76-151.898-151.76m41.386 230.696c1.268.228 2.248 1.207 2.81 2.687 0 0 2.403-.906 3.74 2.58 0 0 2.513-.812 3.72 2.556 0 0 2.474-.81 3.73 2.583 0 0 2.353-.886 3.716 2.556 0 0 2.512-.8 3.717 2.58 0 0 2.404-.813 3.718 2.577 0 0 2.5-.812 3.744 2.556 0 0 2.39-.835 3.694 2.56.31-.05.597-.145.896-.097 2.475.43 3.826 3.653 3.157 7.486-.024.206-.072.408-.12.61 4.018-4.166 7.47-7.45 11.99-4.62 3.86 2.436 4.615 7.75 1.806 12.218-3.587 5.686-8.2 2.726-10.412.982-4.59 3.474-16.412 17.51-38.192 3.772-28.51-17.96-8.905-49.22-12.622-53.936-.98-1.242-3.454-2.974-2.2-4.993 1.04-1.647 4.22-2.198 7.112-.383 5.512 3.487 4.974 9.364 3.598 16.268.752-.48 1.565-.68 2.403-.54m-10.71-9.685l-2.75 14.857c-8.845-5.817-19.52-13.21-27.925-19.336-8.414 6.126-19.077 13.52-27.91 19.336l-2.75-14.857a1191.103 1191.103 0 0 0 18.67-13.39c-66.534-50.54-115.45-104.487-116.023-105.12-7.663-7.962-5.822-17.588-5.76-17.917.238-2.096 2.473-3.146 4.266-1.26.55.62 50.303 55.49 129.51 115.364C335.45 244.437 385.2 189.57 385.76 188.948c1.795-1.886 4.018-.837 4.257 1.26.072.33 1.914 9.956-5.75 17.916-.563.633-49.503 54.582-116.05 105.12a1286.68 1286.68 0 0 0 18.696 13.39m-122.36 48.515c-2.81-4.467-2.057-9.783 1.804-12.22 4.508-2.83 7.974.456 11.978 4.622-.035-.202-.083-.405-.12-.61-.657-3.833.693-7.056 3.156-7.486.313-.048.6.048.897.095 1.316-3.392 3.706-2.56 3.706-2.56 1.23-3.366 3.742-2.554 3.742-2.554 1.315-3.39 3.717-2.578 3.717-2.578 1.195-3.38 3.717-2.58 3.717-2.58 1.36-3.44 3.716-2.556 3.716-2.556 1.256-3.392 3.73-2.58 3.73-2.58 1.207-3.368 3.717-2.556 3.717-2.556 1.328-3.486 3.743-2.58 3.743-2.58.563-1.48 1.53-2.46 2.81-2.687.825-.14 1.648.06 2.403.54-1.387-6.907-1.926-12.783 3.597-16.27 2.892-1.816 6.073-1.266 7.11.383 1.256 2.02-1.217 3.75-2.198 4.994-3.718 4.716 15.886 35.974-12.648 53.936-21.77 13.737-33.58-.298-38.17-3.773-2.21 1.744-6.824 4.704-10.41-.98m107.61-158.49c0 1.98-1.46 2.61-4.222 2.865 1.494 1.26 4.208 1.966 4.208 3.96 0 2.287-2.774 3.966-6.827 5.97-.5.318-1.59 1.87-1.9 2.7 6.36 0 11.32-7.607 14.69-7.607 3.85 0 6.194 7.686 6.194 11.048 0 3.78-3.158 4.597-8.465 4.597-4.973 0-14.345 4.074-18.074 4.074-3.43 0-9.108-3.196-9.108-6.814 0-1.432 1.77-5.465 1.77-11.51 0-6.813-5.094-11.028-9.827-11.028-5.905 0-8.594 4.826-8.594 6.305 0 2.03 1.697 3.136.585 4.885.06.108.49.4 1.34.4 1.17 0 2.714-2.484 4.733-2.484 3.657 0 8.057 8.977 8.057 11.156 0 2.79-3.407 4.903-7.962 4.903-3.575 0-11.978-4.613-16.927-4.613-3.096.28-8.39.127-8.39-7.07 0-3.96 4.733-4.39 4.733-10.67 0-1.702-2.307-3.28-1.64-5.495 1.054-3.512-1.935-5.358-4.195-5.358-4.004 0-5.235 3.77-5.235 5.137 0 7.046 4.674 5.38 7.83 8.306.562.56.657 1.48.155 2.09-2.62 3.194-6.06 5.906-15.767 3.385-4.326 2.055-8.5 2.975-8.5-.67 0-1.604 1.1-2.947 2.273-4.082-4.985 1.368-7.603 6.55-11.272 6.55-4.147 0-5.367-4.52-8.402-7.553-1.46-1.457-4.913-2.963-6.11-4.33-6.658-8.18-10.267-11.108-15.478-15.556-2.058-1.656-4.364-8.648-4.364-15.547 0-12.785 1.84-24.716 24.17-30.383 25.26-6.41 19.558-36.567 63.69-36.567 36.318 0 59.27 22.562 112.273 37.132 11.856 3.25 18.754 2.992 18.754 8.18 0 3.082-3.717 3.178-5.774 3.95.623.327 2.272.722 6.767.722 4.315 0 5.618 5.345-6.216 5.345-7.29 0-12.99-2.73-12.99-6.2 0-3.278 3.586-4.138 6.06-4.586-3.885-1.653-12.455-3.893-18.47-3.916 0 0 1.65 4.77 1.65 8.963 0 6.313-1.936 10.153-1.936 12.6 0 2.325 6.456-.954 8.846-.954 6.895 0 2.234 12.01 14.045 13.83 2.844.567 3.192 2.202 2.246 4.06 0 0 1.723-.214 3.61-.62 2.51-.396 3.47 1.174 3.47 6.22 0 6.58-3.43 7.477-6.816 7.477-12.61 0-13.95-14.678-19.88-14.678-1.91 0-12.37 3.522-14.63 5.236.68.794 3.228 2.103 6.25 2.103 2.644 0 3.778 1.342 4.652 1.342 2.307 0 4.84.126 4.84 4.353 0 6.347-2.318 8.94-8.02 8.94-11.105 0-10.998-11.556-20.155-11.556-2.94 0-10.82 3.707-18.062 3.707-8.643 0-14.37-6.57-22.593-6.57-3.502 0-5.332 2.79-5.332 5.532.003 4.313 4.247 5.55 4.247 8.385m-24.232 16.614c-1.183-3.816-4.95-10.864-9.265-10.864-2.247 0-4.194 1.994-4.194 1.994-.087-1.222-.84-2.31-.84-3.182.047-.817 2.043-4.693 6.97-4.693 3.943 0 8.2 3.595 8.2 9.418 0 3.128-.44 5.524-.873 7.327m-31.547-13.64c-2.867-3.853-7.673-1.32-7.673-7.62 0-.867.837-3.525 3.634-3.525 1.426 0 2.8.897 2.8 2.425 0 .563-.347 1.25-.347 2.078 0 2.898 2.617 4.002 1.59 6.642m39.853-111.87c56.866 0 106.45 31.837 131.792 78.608-1.147-.066-2.403.39-3.467 1.505-.19.19-5.522 6.085-15.336 15.98.036-.465.073-.955.073-1.47 0-7.995-2.762-8.3-6.73-7.553 0 0 .12-2.927-3.957-3.697-10.617-1.284-5.75-13.855-14.32-13.855-1.985 0-4.568 1.237-7.103 1.685.49-3.285 1.805-5.955 1.805-11.717 0-3.003-.633-5.392-1.17-7.238 3.682.293 7.972 1.2 11.404 2.19-1.518.902-2.702 2.312-2.702 4.588 0 4.52 6.144 7.81 14.61 7.81 14.917 0 12.443-9.046 5.497-8.58.756-.735 1.34-1.644 1.34-3.048 0-6.336-7.77-6.616-19.927-9.734-34.678-9.906-54.95-21.32-73.636-28.855 6.013 1.897 14.716 3.88 25.485 6.836 26.897 7.386 40.06 15.03 41.972 8.097 1.614-5.858-15.78-11.644-37.942-17.736-36.662-10.073-38.24-6.397-38.778-4.45-.55 2.055.73 3.632 3.574 5.064-10.45-3.78-20.8-6.15-33.388-6.15-44.67 0-40.13 30.577-64.084 36.614-23.443 5.95-25.39 19.044-25.39 31.95 0 6.956 2.283 14.65 4.972 16.804 9.718 7.775 12.455 12.558 15.325 15.43 1.686 1.88 4.902 3.105 6.122 4.33 3.036 2.872 4.35 8.037 9.55 8.037 3.18 0 5.524-2.753 7.412-4.174-.012 1.876 1.256 6.84 10.22 2.425 0 0 7.28 2.31 12.564-.453-.106.44-.19.877-.19 1.39 0 8.54 6.515 9.017 10.1 8.69 4.664 0 12.67 4.61 16.83 4.61 3.803 0 6.84-1.422 8.417-3.487.645 4.293 6.6 7.668 10.59 7.668 3.982 0 13.665-4.073 18.064-4.073 4.747 0 10.09-.538 10.09-6.21 0-3.488-2.414-12.66-7.807-12.66-1.685 0-3.13.967-4.805 2.275.24-.55.442-1.1.442-1.727 0-1.61-.92-2.615-2.008-3.385 1.517-.908 2.03-2.24 2.03-3.44 0-3.738-4.242-4.926-4.242-8.384 0-1.35.788-3.917 3.717-3.917 7.7 0 13.495 6.568 22.593 6.568 7.137 0 15.612-3.707 18.063-3.707 8.046 0 8.346 11.562 20.155 11.562 8.656 0 9.636-6.018 9.636-10.558 0-4.532-2.76-6.324-6.43-5.965-2.858-1.833-5.116-.99-7.532-1.81 3.658-1.592 9.706-3.522 11.32-3.66 4.004 0 6.944 14.692 19.795 14.692.264 0 .503-.024.754-.024-21.862 21.487-58.37 55.246-105.362 90.843-78.5-59.485-127.763-113.81-128.313-114.418-1.075-1.117-2.317-1.572-3.466-1.506 25.343-46.774 74.905-78.61 131.78-78.61m10.425 9.847c-.036-1.25 9.802-1.9 36.842 5.524 19.783 5.435 37.904 11.73 36.806 15.755-1.255 4.56-14.678-2.276-39.998-9.233-23.238-6.383-33.567-8.217-33.65-12.045M106.477 257.383c0-22.65 5.08-44.15 14.142-63.413.117 3.863 1.276 9.906 6.404 15.228.563.638 48.736 53.764 114.53 104.01a984.48 984.48 0 0 1-11.654 8.396 3.866 3.866 0 0 0-.572-1.505c-1.47-2.33-5.57-3.238-9.324-.874-5.798 3.655-5.976 9.15-4.89 15.443-.167.012-.335.023-.526.06-1.494.26-2.654 1.217-3.467 2.604 0 0-1.945-.215-3.727 2.565 0 0-2.056-.178-3.717 2.567 0 0-1.96-.263-3.706 2.567 0 0-2.044-.154-3.73 2.58 0 0-2.056-.2-3.73 2.568 0 0-1.997-.204-3.717 2.578 0 0-2.022-.2-3.73 2.56 0 0-1.925-.215-3.705 2.578-.083 0-.167-.048-.25-.024-2.535.43-4.233 2.698-4.59 5.804-3.372-3.082-6.696-4.837-11.022-2.102-3.025 1.91-5.655 6.498-3.55 11.955-33.82-27.452-55.47-69.315-55.47-116.146m149.76 149.63c-31.846 0-61.406-9.996-85.71-26.994 1.71-.26 3.252-1.1 4.352-1.864 4.363 3.547 17.513 16.732 39.125 3.117 17.633-11.12 17.643-26.645 15.624-38.662 8.32-5.564 19.222-13.09 26.608-18.462 7.388 5.374 18.302 12.9 26.622 18.464-2.02 12.017-2.01 27.543 15.624 38.663 21.614 13.615 34.764.43 39.115-3.117 1.1.764 2.655 1.6 4.363 1.863-24.3 16.998-53.865 26.995-85.722 26.995m94.305-33.48c2.105-5.48-.525-10.044-3.55-11.955-4.326-2.735-7.65-.98-11.02 2.102-.36-3.107-2.057-5.374-4.59-5.804-.083-.026-.17.024-.252.024-1.78-2.793-3.717-2.578-3.717-2.578-1.696-2.76-3.73-2.56-3.73-2.56-1.72-2.78-3.715-2.577-3.715-2.577-1.674-2.77-3.718-2.567-3.718-2.567-1.687-2.735-3.73-2.58-3.73-2.58-1.757-2.833-3.717-2.57-3.717-2.57-1.65-2.744-3.72-2.566-3.72-2.566-1.768-2.78-3.716-2.565-3.716-2.565-.813-1.388-1.972-2.346-3.467-2.61-.19-.034-.358-.044-.538-.057 1.1-6.294.92-11.788-4.88-15.443-3.753-2.363-7.854-1.456-9.323.873a3.673 3.673 0 0 0-.573 1.505 999.545 999.545 0 0 1-11.655-8.396c65.78-50.246 113.967-103.372 114.542-104.01 5.115-5.32 6.276-11.364 6.395-15.228 9.062 19.264 14.142 40.764 14.142 63.413-.004 46.827-21.665 88.69-55.47 116.148"/><path fill="#A2AAAD" d="M293.113 348.346c-.932 8.598.55 17.558 12.11 24.842 10.95 6.905 17.955 4.192 23.394-.286-1.184-.276-2.104-1.243-2.63-2.652 0 0-2.427.908-3.765-2.568 0 0-2.498.8-3.717-2.567 0 0-2.462.812-3.706-2.578 0 0-2.38.883-3.73-2.568 0 0-2.51.82-3.73-2.57 0 0-2.39.813-3.718-2.567 0 0-2.5.8-3.717-2.568 0 0-2.415.837-3.718-2.556-.298.034-.597.143-.885.082-.9-.146-1.64-.66-2.19-1.447m1.375 2.915c.168.046.358.094.54.12.08.01.154-.026.262-.013 1.767 2.783 3.703 2.556 3.703 2.556 1.7 2.76 3.717 2.568 3.717 2.568 1.748 2.785 3.732 2.58 3.732 2.58 1.673 2.773 3.717 2.58 3.717 2.58 1.683 2.735 3.715 2.56 3.715 2.56 1.77 2.84 3.717 2.577 3.717 2.577 1.674 2.76 3.73 2.556 3.73 2.556 1.758 2.795 3.706 2.58 3.706 2.58.238.406.513.765.824 1.1-4.865 3.2-10.95 4.345-19.772-1.196-9.633-6.09-11.857-13.315-11.594-20.565M207.26 373.19c11.547-7.284 13.054-16.244 12.11-24.842-.55.787-1.303 1.29-2.19 1.458-.297.048-.596-.048-.884-.096-1.315 3.393-3.73 2.556-3.73 2.556-1.218 3.368-3.717 2.556-3.717 2.556-1.328 3.393-3.72 2.58-3.72 2.58-1.207 3.39-3.73 2.578-3.73 2.578-1.35 3.44-3.716 2.568-3.716 2.568-1.244 3.38-3.718 2.567-3.718 2.567-1.208 3.37-3.717 2.568-3.717 2.568-1.327 3.478-3.756 2.57-3.756 2.57-.525 1.408-1.446 2.364-2.63 2.65 5.428 4.493 12.434 7.18 23.395.288m-19.82-1.265s1.95.215 3.705-2.567c0 0 2.068.18 3.73-2.568 0 0 1.948.263 3.716-2.578 0 0 2.046.166 3.73-2.568 0 0 2.045.202 3.72-2.568 0 0 1.983.215 3.73-2.568 0 0 2.02.18 3.716-2.567 0 0 1.936.238 3.705-2.57.097-.01.18.037.264.026.18-.035.358-.083.526-.13.263 7.25-1.947 14.486-11.594 20.552-8.81 5.567-14.907 4.408-19.747 1.208.286-.325.574-.697.8-1.103m86.546-107.385c36.783-13.585 60.62-26.33 58.36-32.445-2.296-6.204-19.39 2.64-64.11 19.164-21.527 7.962-22.796 9.956-21.337 13.866 1.16 3.125 5.054 7.56 27.086-.585m-5.188-11.764c38.466-14.224 60.557-24.107 62.04-20.118 1.782 4.842-29.3 19.987-57.414 30.378-20.764 7.68-24.206 3.697-25.008 1.54-1.135-3.057 2.426-5.16 20.38-11.8"/><path fill="#FFB81C" d="M256.235 91.56c-91.66 0-165.967 74.235-165.967 165.83 0 91.59 74.306 165.83 165.967 165.83 91.663 0 165.982-74.24 165.982-165.83 0-91.595-74.32-165.83-165.982-165.83m0 319.727c-85.05 0-154.025-68.91-154.025-153.897 0-84.99 68.974-153.892 154.025-153.892 85.065 0 154.027 68.902 154.027 153.892 0 84.986-68.962 153.897-154.027 153.897"/><path fill="#FFB81C" d="M295.565 348.203c.61.12 1.207-.168 1.768-.704.48 4.18 2.87 3.58 3.73 2.566.478 4.18 2.857 3.583 3.718 2.565.48 4.184 2.883 3.587 3.72 2.568.476 4.18 2.88 3.583 3.73 2.58.476 4.18 2.867 3.583 3.717 2.567.477 4.193 2.88 3.584 3.728 2.568.466 4.18 2.87 3.583 3.718 2.568.465 4.19 2.87 3.593 3.73 2.566.143 1.794.873 3.106 1.936 3.297 1.505.263 3.12-1.84 3.62-4.68.48-2.844-.346-5.365-1.853-5.615-.597-.094-1.207.167-1.768.706-.467-4.17-2.87-3.584-3.73-2.568-.467-4.18-2.845-3.583-3.72-2.568-.464-4.192-2.867-3.583-3.703-2.567-.48-4.18-2.882-3.582-3.742-2.567-.455-4.192-2.858-3.595-3.717-2.59-.467-4.18-2.858-3.584-3.718-2.557-.467-4.18-2.87-3.583-3.72-2.58-.465-4.18-2.867-3.583-3.728-2.556-.143-1.78-.86-3.104-1.95-3.297-1.482-.263-3.118 1.84-3.61 4.683-.49 2.844.35 5.363 1.843 5.615m-112.14 23.146c1.063-.177 1.793-1.515 1.95-3.296.847 1.027 3.237 1.624 3.716-2.556.863 1.004 3.254 1.614 3.72-2.578.86 1.027 3.25 1.61 3.73-2.556.847 1 3.25 1.598 3.717-2.58.848 1 3.252 1.598 3.717-2.58.86 1.026 3.24 1.623 3.717-2.557.86 1.004 3.253 1.6 3.73-2.578.85 1 3.25 1.598 3.72-2.58.56.548 1.17.824 1.767.716 1.506-.262 2.332-2.77 1.842-5.61-.49-2.844-2.106-4.946-3.61-4.683-1.077.18-1.807 1.505-1.95 3.284-.85-1.014-3.24-1.61-3.717 2.58-.86-1.026-3.24-1.61-3.717 2.57-.86-1.016-3.265-1.615-3.73 2.566-.85-1.017-3.253-1.6-3.718 2.568-.86-1.004-3.24-1.614-3.717 2.578-.86-1.014-3.264-1.612-3.73 2.567-.85-1.015-3.25-1.61-3.717 2.567-.86-1.014-3.252-1.612-3.73 2.58-.55-.55-1.17-.836-1.77-.718-1.504.262-2.317 2.77-1.827 5.613.49 2.845 2.103 4.947 3.61 4.684"/><path fill="#FFB81C" d="M345.27 364.302c-9.36-5.9-15.684 26.135-40.908 10.248-27.804-17.532-.525-44.346-13.615-52.6-2.236-1.396-4.4-.86-4.865-.12-.48.754.955 1.708 2.08 3.13 4.853 6.115-15.767 35.94 12.24 53.58 23.956 15.097 35.624-5.435 37.595-4.206 1.6 1.028 5.5 5.114 8.775-.045 2.904-4.615.956-8.58-1.303-9.99m-120.76-39.34c1.147-1.433 2.58-2.364 2.103-3.142-.48-.73-2.654-1.278-4.89.13-13.078 8.243 14.214 35.068-13.616 52.6-25.21 15.887-31.546-16.148-40.894-10.248-2.26 1.423-4.208 5.365-1.29 9.987 3.25 5.158 7.16 1.06 8.762.057 1.972-1.252 13.65 19.29 37.583 4.193 28.007-17.64 7.386-47.465 12.24-53.58"/><path fill="#E31837" d="M175.63 203.535c-.573 0-1.123.95-1.123 1.297 0 .364.896 1.6 1.566 1.6.394 0 .885-.174.885-.526-.002-1.372-.06-2.37-1.327-2.37"/><path fill="#041E42" d="M256.235 89.42c-92.69 0-168.107 75.348-168.107 167.97 0 92.617 75.418 167.956 168.107 167.956 92.703 0 168.108-75.34 168.108-167.956 0-92.622-75.405-167.97-168.108-167.97m0 333.8c-91.66 0-165.967-74.24-165.967-165.83 0-91.595 74.306-165.83 165.967-165.83 91.663 0 165.982 74.235 165.982 165.83 0 91.59-74.32 165.83-165.982 165.83"/><path fill="#041E42" d="M256.235 103.49c-85.05 0-154.025 68.91-154.025 153.893 0 85.003 68.974 153.894 154.025 153.894 85.065 0 154.027-68.892 154.027-153.894 0-84.984-68.962-153.892-154.027-153.892m0 305.663c-83.748 0-151.886-68.067-151.886-151.77 0-83.675 68.136-151.758 151.884-151.758 83.762 0 151.898 68.085 151.898 151.76 0 83.7-68.137 151.768-151.898 151.768"/><path fill="#041E42" d="M391.864 193.97c-.12 3.863-1.267 9.906-6.395 15.24-.588.62-48.76 53.752-114.557 103.998a973.35 973.35 0 0 0 11.667 8.396c.073-.49.24-.992.563-1.505 1.482-2.33 5.583-3.238 9.336-.874 5.806 3.655 5.974 9.15 4.875 15.432.168.025.358.025.54.07 1.48.252 2.653 1.22 3.477 2.606 0 0 1.95-.215 3.706 2.565 0 0 2.067-.177 3.716 2.57 0 0 1.96-.265 3.73 2.58 0 0 2.044-.17 3.718 2.566 0 0 2.043-.202 3.717 2.568 0 0 1.995-.192 3.717 2.578 0 0 2.02-.19 3.73 2.567 0 0 1.948-.226 3.717 2.555.083.013.168-.035.263-.023 2.535.443 4.207 2.71 4.578 5.816 3.36-3.083 6.706-4.838 11.01-2.103 3.036 1.9 5.665 6.485 3.56 11.956 33.807-27.457 55.467-69.32 55.467-116.15.004-22.647-5.076-44.147-14.14-63.41m-151.25 22.547c-4.94 0-6.935 3.876-6.982 4.7 0 .867.74 1.954.85 3.19 0 0 1.935-2.007 4.183-2.007 4.315 0 8.08 7.047 9.265 10.865.43-1.798.886-4.186.886-7.316 0-5.825-4.27-9.433-8.202-9.433m57.87 164.756c-17.62-11.107-17.634-26.645-15.612-38.674-8.333-5.54-19.235-13.08-26.635-18.454-7.386 5.374-18.3 12.91-26.62 18.453 2.03 12.027 2.01 27.565-15.612 38.673-21.612 13.628-34.762.43-39.125-3.117-1.088.79-2.643 1.612-4.363 1.863 24.302 16.997 53.877 26.994 85.72 26.994 31.87 0 61.42-9.997 85.722-26.995-1.72-.25-3.264-1.073-4.35-1.864-4.365 3.547-17.514 16.745-39.126 3.117M212.34 208.48c-2.784 0-3.634 2.658-3.634 3.537 0 6.288 4.818 3.768 7.674 7.608 1.017-2.627-1.59-3.732-1.59-6.63 0-.84.348-1.528.348-2.09 0-1.517-1.375-2.424-2.798-2.424m-46.846 153.1c4.327-2.734 7.65-.98 11.02 2.103.36-3.107 2.058-5.374 4.59-5.817.086-.013.17.035.253.024 1.78-2.78 3.704-2.557 3.704-2.557 1.71-2.758 3.73-2.568 3.73-2.568 1.723-2.77 3.72-2.578 3.72-2.578 1.674-2.77 3.73-2.567 3.73-2.567 1.685-2.735 3.73-2.568 3.73-2.568 1.745-2.843 3.705-2.58 3.705-2.58 1.66-2.746 3.717-2.568 3.717-2.568 1.782-2.78 3.73-2.565 3.73-2.565.813-1.388 1.972-2.355 3.467-2.61.19-.044.36-.044.537-.07-1.1-6.283-.92-11.775 4.878-15.43 3.755-2.365 7.854-1.46 9.323.87.323.514.502 1.016.573 1.506a999.533 999.533 0 0 0 11.655-8.396c-65.795-50.246-113.968-103.376-114.53-103.997-5.128-5.333-6.29-11.376-6.407-15.24-9.06 19.264-14.14 40.763-14.14 63.413 0 46.83 21.648 88.693 55.465 116.152-2.103-5.474.528-10.058 3.552-11.96"/><path fill="#041E42" d="M256.248 302.292c46.978-35.61 83.474-69.363 105.338-90.85-.24.014-.49.025-.73.025-12.863 0-15.802-14.678-19.807-14.678-1.615.135-7.664 2.064-11.32 3.642 2.413.835 4.684-.013 7.53 1.82 3.67-.35 6.443 1.433 6.443 5.972 0 4.526-1.004 10.54-9.658 10.54-11.787 0-12.097-11.543-20.143-11.543-2.45 0-10.938 3.71-18.074 3.71-9.073 0-14.883-6.57-22.57-6.57-2.95 0-3.716 2.557-3.716 3.913 0 3.463 4.232 4.646 4.232 8.39 0 1.202-.514 2.532-2.032 3.44 1.076.77 2.02 1.774 2.02 3.385 0 .62-.214 1.17-.454 1.713 1.674-1.294 3.12-2.262 4.805-2.262 5.403 0 7.807 9.173 7.807 12.655 0 5.68-5.356 6.204-10.09 6.204-4.398 0-14.08 4.072-18.06 4.072-3.994 0-9.936-3.38-10.593-7.656-1.567 2.066-4.616 3.47-8.416 3.47-4.17 0-12.17-4.61-16.83-4.61-3.6.34-10.1-.133-10.1-8.672 0-.513.083-.967.19-1.39-5.283 2.758-12.575.454-12.575.454-8.953 4.41-10.234-.557-10.22-2.425-1.877 1.42-4.22 4.168-7.4 4.168-5.2 0-6.515-5.158-9.55-8.03-1.22-1.224-4.437-2.46-6.122-4.33-2.87-2.88-5.607-7.657-15.325-15.437-2.688-2.16-4.984-9.86-4.984-16.805 0-12.9 1.96-26 25.403-31.943 23.954-6.044 19.412-36.62 64.083-36.62 12.576 0 22.94 2.377 33.39 6.15-2.846-1.437-4.126-3.01-3.564-5.063.525-1.94 2.09-5.626 38.777 4.454 22.15 6.077 39.544 11.87 37.93 17.733-1.9 6.922-15.074-.722-41.982-8.11-10.76-2.95-19.46-4.943-25.473-6.836 18.686 7.543 38.96 18.943 73.65 28.86 12.145 3.107 19.915 3.406 19.915 9.736 0 1.398-.585 2.31-1.338 3.047 6.944-.466 9.43 8.574-5.512 8.574-8.45 0-14.596-3.278-14.596-7.804 0-2.288 1.183-3.68 2.7-4.6-3.44-.972-7.72-1.88-11.403-2.173.538 1.845 1.17 4.228 1.17 7.225 0 5.775-1.325 8.438-1.816 11.73 2.536-.466 5.13-1.702 7.114-1.702 8.583 0 3.705 12.576 14.31 13.86 4.076.782 3.97 3.702 3.97 3.702 3.97-.746 6.72-.436 6.72 7.56 0 .514-.04.993-.075 1.47 9.838-9.896 15.157-15.79 15.337-15.986 1.063-1.124 2.33-1.566 3.48-1.506-25.356-46.765-74.928-78.613-131.78-78.613-56.878 0-106.452 31.85-131.805 78.615 1.16-.06 2.414.383 3.48 1.506.542.606 49.804 54.938 128.318 114.417m11.99-51.03c44.72-16.523 61.8-25.38 64.108-19.163 2.26 6.115-21.576 18.846-58.36 32.443-22.03 8.146-25.927 3.698-27.087.586-1.447-3.925-.192-5.907 21.338-13.868m53.087 118.093s-2.055.18-3.716-2.568c0 0-1.962.263-3.73-2.578 0 0-2.032.166-3.718-2.568 0 0-2.043.202-3.717-2.568 0 0-1.998.202-3.73-2.568 0 0-2.03.18-3.72-2.567 0 0-1.934.228-3.703-2.58-.095 0-.19.047-.262.034a7.107 7.107 0 0 1-.538-.13c-.263 7.237 1.96 14.487 11.595 20.566 8.822 5.553 14.907 4.395 19.772 1.193a6.968 6.968 0 0 1-.825-1.098c0-.003-1.95.212-3.708-2.57m-107.836-15.42c-1.7 2.76-3.72 2.557-3.72 2.557-1.745 2.783-3.74 2.58-3.74 2.58-1.663 2.772-3.706 2.557-3.706 2.557-1.686 2.745-3.718 2.58-3.718 2.58-1.768 2.84-3.74 2.576-3.74 2.576-1.65 2.76-3.707 2.556-3.707 2.556-1.758 2.796-3.718 2.58-3.718 2.58a6.3 6.3 0 0 1-.813 1.1c4.865 3.2 10.948 4.345 19.77-1.195 9.636-6.09 11.86-13.305 11.596-20.566-.19.047-.358.095-.54.12-.082.024-.177-.025-.262 0-1.77 2.78-3.705 2.555-3.705 2.555"/><path fill="#041E42" d="M179.026 183.555c-2.08 0-2.737.92-2.737 1.397 0 .49 2.27 6.015 3.69 6.015 1.878 0 4.843-3.458 4.843-4.904 0-1.452-3.72-2.508-5.798-2.508m1.207 38.123c0 .913 1.746 2.174 1.746 2.174s1.78-2.443 1.78-4.204c-.002-.65-3.527-.053-3.527 2.03m.3-47.23c0-5.417-4.35-10.362-12.73-10.362-8.726 0-14.49 4.89-14.49 7.77 0 2.394 3.85-2.473 9.53-2.473 3.334 0 6.68 1.888 6.68 4.634 0 2.204-2.773 3.86-2.773 5.727 0 1.344.956 4.05 4.184 4.05 5.035 0 9.6-3.93 9.6-9.347"/><path fill="#041E42" d="M273.247 202.74c8.235 0 13.95 6.57 22.592 6.57 7.242 0 15.12-3.707 18.05-3.707 9.17 0 9.06 11.56 20.165 11.56 5.702 0 8.022-2.597 8.022-8.938 0-4.245-2.533-4.36-4.84-4.36-.874 0-2.008-1.343-4.65-1.343-3.025 0-5.57-1.308-6.252-2.102 2.26-1.714 12.72-5.238 14.63-5.238 5.93 0 7.268 14.68 19.88 14.68 3.383 0 6.826-.896 6.826-7.472 0-5.052-.967-6.616-3.477-6.228-1.89.405-3.61.625-3.61.625.945-1.863.598-3.5-2.247-4.06-11.81-1.82-7.15-13.848-14.046-13.848-2.39 0-8.844 3.29-8.844.964 0-2.442 1.936-6.283 1.936-12.594 0-4.198-1.65-8.962-1.65-8.962 6.014.01 14.596 2.256 18.47 3.91-2.475.455-6.06 1.31-6.06 4.588 0 3.476 5.7 6.2 12.992 6.2 11.834 0 10.53-5.346 6.216-5.346-4.496 0-6.144-.39-6.766-.718 2.056-.776 5.774-.872 5.774-3.954 0-5.183-6.898-4.926-18.757-8.18-53.002-14.565-75.952-37.132-112.27-37.132-44.12 0-38.43 30.157-63.69 36.57-22.33 5.662-24.17 17.6-24.17 30.378 0 6.898 2.306 13.89 4.362 15.545 5.224 4.435 8.823 7.373 15.47 15.554 1.208 1.368 4.662 2.873 6.12 4.33 3.037 3.034 4.256 7.56 8.404 7.56 3.67 0 6.298-5.19 11.272-6.557-1.172 1.135-2.272 2.472-2.272 4.085 0 3.643 4.16 2.728 8.51.668 9.707 2.51 13.138-.19 15.756-3.384.502-.61.406-1.53-.156-2.102-3.156-2.91-7.83-1.248-7.83-8.294 0-1.368 1.232-5.148 5.236-5.148 2.26 0 5.248 1.863 4.196 5.368-.67 2.216 1.638 3.793 1.638 5.494 0 6.29-4.733 6.7-4.733 10.678 0 7.178 5.31 7.35 8.393 7.064 4.948 0 13.353 4.6 16.927 4.6 4.555 0 7.96-2.103 7.96-4.892 0-2.174-4.398-11.15-8.056-11.15-2.02 0-3.56 2.48-4.732 2.48-.85 0-1.28-.293-1.34-.4 1.1-1.75-.573-2.856-.573-4.897 0-1.463 2.677-6.294 8.583-6.294 4.732 0 9.825 4.216 9.825 11.03 0 6.043-1.768 10.08-1.768 11.51 0 3.617 5.677 6.813 9.108 6.813 3.73 0 13.1-4.075 18.073-4.075 5.31 0 8.465-.83 8.465-4.595 0-3.375-2.344-11.043-6.192-11.043-3.37 0-8.332 7.61-14.692 7.61.312-.837 1.4-2.39 1.902-2.705 4.053-2.007 6.826-3.686 6.826-5.966 0-1.994-2.713-2.72-4.207-3.965 2.763-.27 4.22-.885 4.22-2.86 0-2.85-4.242-4.075-4.242-8.39-.003-2.755 1.838-5.533 5.33-5.533m-6.935 5.533c0 4.867 4.232 6.568 4.232 8.39 0 2.03-4.663.34-4.663 2.442 0 2.043 4.65 3.34 4.65 4.384 0 1.833-5.08 4.008-6.048 4.568-.958.58-2.8 3.22-2.8 4.397 0 1.158.92 1.32 1.735 1.32 6.934 0 12.325-7.608 14.69-7.608 2.356 0 4.58 6.198 4.58 9.43 0 3.242-4.052 2.985-7.567 2.985-3.527 0-14.43 4.074-17.358 4.074-2.93 0-7.495-2.8-7.495-5.2 0-1.285 1.77-5.03 1.77-11.51 0-7.804-5.846-12.642-11.44-12.642-6.742 0-10.21 5.404-10.21 7.907 0 2.073 1.292 3.344.838 4.138-.813 1.38.48 2.766 2.702 2.766 1.996 0 3.42-2.485 4.733-2.485 2.307 0 6.444 7.787 6.444 9.55 0 1.75-2.797 3.29-6.348 3.29-2.918 0-11.477-4.61-17.036-4.61-2.367.147-6.67.625-6.67-5.455 0-3.02 4.745-3.792 4.745-10.677 0-2.288-2.13-3.756-1.734-5.004 1.265-3.97-1.748-7.46-5.728-7.46-4.94 0-6.85 4.492-6.85 6.75 0 8.21 6.204 7.338 8.307 9.446-4.65 6.27-12.54 2.724-14.57 2.724-1.21 0-6.79 3.475-6.79.944 0-2.963 7.34-6.02 2.796-6.02-6.802 0-10.257 6.875-13.413 6.875-3.06 0-4.052-3.863-7.266-7.077-2.14-2.156-4.125-2.34-6.108-4.336-2.37-2.347-5.43-7.554-15.6-15.676-1.328-1.063-3.767-7.107-3.767-14.285 0-12.78 1.95-23.495 22.964-28.827 26.55-6.73 19.557-36.523 63.284-36.523 35.55 0 55.24 20.99 111.83 37.073 11.38 3.242 17.597 2.963 17.597 6.64 0 2.497-6.085 1.446-6.085 3.817 0 2.37 5.248 2.47 8.677 2.47 3.42 0 .645 2.116-6.217 2.116-6.873 0-11.39-2.51-11.39-4.586 0-3.512 7.876-2.718 7.876-4.11 0-1.947-13.987-6.008-21.97-6.008-3.67 0 .12 3.93.12 10.583 0 6.002-1.926 9.805-1.926 12.594 0 5.05 8.106.65 10.45.65 4.89 0 1.22 11.74 13.794 13.82 2.715.44.467 1.945.467 3.43 0 1.507 4.783.163 5.727.043.955-.136 1.78-.616 1.78 4.6 0 5.206-2.222 5.857-5.212 5.857-11.81 0-12.504-14.678-19.89-14.678-2.092 0-16.486 4.6-16.486 6.616 0 1.96 4.255 3.954 8.116 3.954 2.63 0 2.87 1.343 4.65 1.343 1.77 0 3.24-.293 3.24 2.74 0 5.537-1.686 7.322-6.42 7.322-10.173 0-9.92-11.556-20.166-11.556-3.347 0-11.057 3.71-18.05 3.71-8.26 0-13.77-6.57-22.593-6.57-4.52 0-6.933 3.63-6.933 7.144"/><path fill="#041E42" d="M175.535 199.153c0-2.52 3.037-4.68.91-4.68-3.78 0-2.213 9.757-5.25 13.865 0 0-.597 1.63 1.734 1.63 3.37 0 6.787-3.343 6.787-5.47 0-3.327-4.183-2.497-4.183-5.345m.538 7.28c-.657 0-1.566-1.236-1.566-1.6 0-.347.55-1.302 1.124-1.302 1.28 0 1.316 1.005 1.316 2.378 0 .353-.49.526-.873.526M346.13 362.94c-4.508-2.853-7.973.457-11.99 4.588.047-.167.083-.382.12-.574.67-3.856-.694-7.07-3.157-7.49-.287-.057-.598.05-.896.087-1.29-3.39-3.705-2.557-3.705-2.557-1.22-3.368-3.717-2.567-3.717-2.567-1.326-3.378-3.717-2.565-3.717-2.565-1.22-3.392-3.73-2.567-3.73-2.567-1.352-3.454-3.718-2.568-3.718-2.568-1.268-3.392-3.717-2.58-3.717-2.58-1.22-3.368-3.742-2.568-3.742-2.568-1.314-3.474-3.74-2.567-3.74-2.567-.55-1.47-1.53-2.473-2.797-2.698-.837-.133-1.662.07-2.392.55 1.365-6.906 1.915-12.782-3.61-16.27-2.89-1.814-6.072-1.265-7.1.384-1.28 2.007 1.208 3.75 2.177 4.993 3.717 4.727-15.887 35.972 12.647 53.947 21.78 13.724 33.602-.298 38.18-3.785 2.212 1.743 6.827 4.693 10.4-.982 2.82-4.457 2.067-9.772-1.793-12.21m-48.784-25.032c1.064.18 1.78 1.505 1.95 3.284.836-1.015 3.24-1.612 3.716 2.567.862-1.016 3.24-1.6 3.72 2.58.86-1.016 3.25-1.615 3.728 2.566.848-1.017 3.24-1.614 3.718 2.568.86-1.017 3.24-1.614 3.717 2.565.86-1 3.252-1.6 3.73 2.592.848-1.027 3.24-1.624 3.718 2.556.86-1.005 3.24-1.612 3.718 2.58.564-.552 1.17-.825 1.78-.72 1.508.264 2.32 2.772 1.83 5.615-.49 2.84-2.103 4.944-3.61 4.68-1.075-.177-1.792-1.515-1.95-3.283-.846 1.014-3.25 1.61-3.715-2.568-.86 1.004-3.24 1.6-3.718-2.578-.86 1.028-3.263 1.612-3.728-2.58-.85 1.027-3.253 1.624-3.72-2.556-.86 1-3.25 1.598-3.73-2.58-.847 1.027-3.226 1.624-3.705-2.557-.86 1.005-3.263 1.603-3.73-2.577-.848 1.002-3.25 1.6-3.73-2.58-.55.55-1.16.825-1.767.716-1.494-.263-2.32-2.77-1.83-5.61.49-2.857 2.104-4.948 3.61-4.683m31.26 34.98c-5.416 4.492-12.433 7.205-23.382.3-11.548-7.286-13.053-16.245-12.11-24.843.562.786 1.29 1.29 2.188 1.457.3.05.587-.046.897-.094 1.293 3.392 3.707 2.556 3.707 2.556 1.22 3.368 3.717 2.567 3.717 2.567 1.327 3.38 3.73 2.567 3.73 2.567 1.208 3.39 3.718 2.567 3.718 2.567 1.362 3.45 3.717 2.578 3.717 2.578 1.266 3.38 3.716 2.568 3.716 2.568 1.22 3.37 3.73 2.568 3.73 2.568 1.326 3.477 3.754 2.568 3.754 2.568.527 1.413 1.447 2.37 2.618 2.643m17.956 1.4c-3.264 5.157-7.16 1.06-8.775.056-1.973-1.252-13.63 19.29-37.584 4.193-28.008-17.655-7.374-47.453-12.23-53.58-1.146-1.433-2.57-2.364-2.103-3.13.477-.74 2.653-1.29 4.888.12 13.078 8.242-14.213 35.067 13.604 52.6 25.21 15.886 31.548-16.15 40.908-10.25 2.248 1.423 4.208 5.365 1.292 9.988m-133.43 5.623c28.535-17.974 8.93-49.22 12.648-53.95.98-1.24 3.454-2.985 2.2-5.003-1.04-1.637-4.22-2.188-7.113-.37-5.525 3.486-4.986 9.362-3.6 16.267-.752-.478-1.577-.68-2.402-.526-1.28.203-2.247 1.208-2.81 2.675 0 0-2.414-.906-3.74 2.558 0 0-2.513-.79-3.72 2.59 0 0-2.472-.823-3.73 2.57 0 0-2.353-.886-3.716 2.567 0 0-2.522-.813-3.717 2.567 0 0-2.403-.812-3.717 2.578 0 0-2.51-.812-3.742 2.556 0 0-2.39-.835-3.693 2.56-.31-.038-.597-.144-.91-.086-2.46.42-3.81 3.634-3.154 7.49.034.19.082.394.12.596-4.006-4.154-7.473-7.464-11.98-4.61-3.86 2.436-4.614 7.752-1.805 12.205 3.586 5.686 8.2 2.726 10.41.982 4.59 3.488 16.414 17.51 38.17 3.786m-31.487-18.86c.598-.12 1.22.17 1.77.72.477-4.192 2.88-3.594 3.73-2.58.465-4.18 2.856-3.583 3.716-2.57.478-4.18 2.87-3.58 3.717-2.565.48-4.192 2.883-3.583 3.718-2.578.478-4.17 2.882-3.587 3.73-2.57.48-4.182 2.87-3.582 3.718-2.566.478-4.18 2.88-3.594 3.717-2.567.477-4.192 2.88-3.595 3.74-2.58.143-1.78.862-3.104 1.938-3.285 1.495-.26 3.13 1.84 3.61 4.685.49 2.84-.335 5.348-1.83 5.61-.61.11-1.23-.166-1.78-.715-.48 4.18-2.87 3.583-3.716 2.58-.478 4.18-2.882 3.584-3.718 2.58-.477 4.18-2.868 3.582-3.717 2.555-.478 4.18-2.87 3.583-3.73 2.58-.48 4.18-2.858 3.583-3.718 2.58-.478 4.168-2.882 3.584-3.717 2.557-.477 4.192-2.88 3.583-3.73 2.577-.478 4.18-2.868 3.583-3.716 2.555-.157 1.782-.887 3.12-1.95 3.297-1.518.262-3.133-1.84-3.623-4.68-.49-2.85.346-5.357 1.84-5.62m37.728-12.707c.945 8.598-.55 17.558-12.11 24.842-10.96 6.892-17.955 4.205-23.394-.286 1.184-.288 2.105-1.244 2.63-2.653 0 0 2.427.908 3.755-2.568 0 0 2.51.8 3.717-2.568 0 0 2.474.812 3.718-2.568 0 0 2.366.873 3.73-2.567 0 0 2.51.812 3.73-2.578 0 0 2.39.81 3.716-2.58 0 0 2.488.81 3.707-2.558 0 0 2.414.837 3.73-2.556.287.047.596.143.884.095.887-.167 1.64-.67 2.19-1.46m-44.684 26c-1.6 1.006-5.512 5.104-8.762-.056-2.917-4.613-.97-8.564 1.28-9.987 9.37-5.9 15.694 26.136 40.92 10.248 27.802-17.53.536-44.356 13.6-52.598 2.247-1.41 4.41-.86 4.878-.12.492.765-.955 1.72-2.08 3.13-4.865 6.127 15.768 35.925-12.24 53.59-23.954 15.087-35.622-5.455-37.594-4.204"/><path fill="#041E42" d="M244.26 313.232c-5.81 4.276-12.6 9.125-18.686 13.413l2.75 14.845c8.834-5.827 19.508-13.21 27.91-19.336 8.418 6.126 19.092 13.51 27.914 19.336l2.762-14.845c-6.097-4.288-12.887-9.137-18.684-13.413C334.76 262.704 383.7 208.766 384.262 208.116c7.663-7.962 5.834-17.587 5.75-17.915-.24-2.076-2.45-3.14-4.267-1.247-.55.616-50.302 55.478-129.51 115.358-79.206-59.88-128.958-114.74-129.508-115.357-1.793-1.892-4.03-.83-4.267 1.25-.06.327-1.902 9.953 5.75 17.914.573.652 49.5 54.588 116.05 105.116m-120.2-122.798c.25-1.666 1.47-.405 1.47-.405s49.91 55.416 130.705 116.31c80.81-60.894 130.706-116.31 130.706-116.31s1.245-1.262 1.484.404c0 0 1.806 9.16-5.355 16.607 0 0-49.526 54.94-117.53 106.24a1018.15 1018.15 0 0 0 19.602 14.08l-2.126 11.43a676.902 676.902 0 0 1-26.777-18.62c-8.68 6.344-17.61 12.59-26.766 18.62l-2.116-11.43c6.707-4.692 13.22-9.4 19.592-14.08-67.994-51.3-117.53-106.24-117.53-106.24-7.173-7.443-5.357-16.605-5.357-16.605"/><path fill="#041E42" d="M273.426 263.033c28.116-10.396 59.196-25.54 57.402-30.385-1.47-3.982-23.562 5.907-62.03 20.12-17.942 6.64-21.504 8.748-20.38 11.805.79 2.15 4.23 6.14 25.008-1.54m-4.065-8.75c32.22-11.913 59.306-22.83 59.95-21.074 1.327 3.57-36.985 21.11-56.433 28.315-19.532 7.203-22.498 3.692-22.95 2.48-.814-2.184 5.066-4.4 19.435-9.723m70.948-115.397c1.1-4.025-17.023-10.32-36.806-15.754-27.04-7.42-36.867-6.772-36.842-5.523.083 3.828 10.4 5.66 33.662 12.045 25.306 6.957 38.73 13.795 39.986 9.233m-37.236-14.196c17.405 4.777 36.28 11.59 35.683 13.77-.61 2.186-14.274-3.845-38.003-10.36-23.74-6.52-30.77-8.295-32.587-10.014-.584-.556 17.502 1.82 34.907 6.603"/></g></svg>