<svg xmlns="http://www.w3.org/2000/svg" width="512" height="512" viewBox="0 0 512 512"><g fill="none" fill-rule="evenodd"><path fill="#006341" d="M272.613 67.11c.767 4.744 1.014 9.56 1.57 14.343 3.586 35.282 7.04 70.583 10.71 105.86 17.783 1.71 35.857 8.202 48.347 21.446 45.68-.038 91.366.004 137.052-.026 5.228-.314 10.468-.163 15.708-.133v.17c-48.415 25.9-96.787 51.91-145.19 77.83-9.278 19.653-23.09 37.38-40.965 49.87 3.43 33.783 6.79 67.567 10.208 101.345-31.783-25.51-63.44-51.18-95.193-76.73-4.697.434-9.472.06-14.126.664-52.122 27.86-104.146 55.924-156.292 83.74 16.813-28.016 33.776-55.95 50.588-83.965-12.526-.012-25.058.024-37.585-.018 17.072-28.7 34.2-57.364 51.32-86.04-27.577-22.232-55.14-44.49-82.717-66.72 40.833-.007 81.67.005 122.51-.007 4.413-7.343 8.783-14.705 13.166-22.062 12.937.018 25.874 0 38.81.006 24.002-39.87 48.1-79.687 72.08-119.575zm-6.598 26.28c-20.223 33.712-40.676 67.284-60.838 101.03-12.99.352-26.013-.09-39.01.22-3.99 6.842-8.125 13.6-12.14 20.43-.446.66-.833 1.753-1.853 1.53-34.584-.037-69.17.048-103.754-.043 23.296 18.914 46.695 37.7 70.04 56.554.928.564-.092 1.507-.345 2.16-15.61 26.034-31.084 52.16-46.713 78.18 12.533.183 25.07-.023 37.603.098-1.11 2.32-2.644 4.4-3.9 6.637-11.8 19.62-23.664 39.206-35.46 58.827-1.11 1.9-2.426 3.682-3.247 5.737 44.316-23.64 88.493-47.554 132.832-71.135 5.62-.15 11.265-.15 16.89-.52 1.686-.386 2.772 1.12 3.967 2 18.696 15.12 37.434 30.188 56.124 45.306 8.025 6.323 15.81 12.96 23.938 19.144-.024-.484-.067-1.445-.09-1.93-2.856-28.397-5.754-56.788-8.537-85.186 19.114-12.017 33.63-30.453 42.88-50.902.556-1.1 1.9-1.402 2.88-2.02 38.7-20.738 77.39-41.502 116.086-62.247.157-.17.477-.51.634-.678-41.45 0-82.89.062-124.334-.03-4.89-5.603-10.81-10.31-17.488-13.612-10.66-5.464-22.662-7.586-34.518-8.3-3.562-34.284-6.9-68.594-10.408-102.885-.446.52-.887 1.052-1.237 1.638z"/><path fill="#010101" d="M266.015 93.39c.35-.585.79-1.117 1.237-1.637 3.508 34.29 6.846 68.6 10.408 102.886 11.856.71 23.857 2.833 34.518 8.297 6.677 3.3 12.6 8.01 17.488 13.613 41.443.092 82.885.03 124.333.03l-.636.678c-38.695 20.745-77.385 41.51-116.086 62.248-.98.617-2.325.92-2.88 2.02-9.25 20.448-23.767 38.884-42.88 50.9 2.783 28.4 5.68 56.79 8.536 85.188.024.484.067 1.445.09 1.93-8.125-6.185-15.912-12.822-23.935-19.145-18.69-15.12-37.428-30.19-56.124-45.307-1.195-.882-2.28-2.387-3.966-2-5.625.368-11.27.368-16.89.52-44.34 23.58-88.516 47.492-132.832 71.133.82-2.055 2.137-3.838 3.248-5.736 11.795-19.62 23.658-39.205 35.46-58.826 1.255-2.237 2.788-4.316 3.9-6.637-12.533-.12-25.07.085-37.604-.097 15.63-26.022 31.102-52.147 46.713-78.18.253-.654 1.273-1.597.344-2.16-23.346-18.853-46.745-37.64-70.04-56.553 34.584.09 69.17.006 103.753.042 1.02.222 1.407-.87 1.853-1.53 4.015-6.83 8.15-13.59 12.14-20.43 12.997-.31 26.02.13 39.01-.22 20.162-33.747 40.615-67.32 60.838-101.03zm-13.897 53.774c-12.737 21.084-25.408 42.204-38.188 63.264-12.895-.03-25.79-.025-38.684-.006-4.376 7.344-8.783 14.67-13.136 22.038-22.45.085-44.907-.102-67.358.09a70.512 70.512 0 0 0-1.086-.253c.598 1.27 1.95 1.91 2.952 2.823 14.39 11.624 28.825 23.2 43.18 34.872-8.843 14.458-17.39 29.11-26.138 43.642-4.655 7.955-9.58 15.76-14.06 23.804l-.332.18c20.247.068 40.494.013 60.742.032 1.37.06 2.83-.28 4.117.35-2.487.544-4.896 1.384-7.39 1.886l-.114.14c-8.3 2.14-16.553 4.478-24.847 6.654-3.75 6.214-7.504 12.422-11.235 18.648-3.53 5.996-7.4 11.817-10.66 17.965.66-.387 1.31-.792 2.018-1.076 1.732-.64 3.29-1.644 4.926-2.48 21.352-11.47 42.722-22.902 64.074-34.374 4.914-2.497 9.653-5.423 14.663-7.683 9.038.018 18.093-.11 27.106-.925 18.817 15.3 37.724 30.483 56.6 45.704l-.03.197c.477.332.978.665 1.46 1.003-1.725-16.355-3.252-32.742-5.166-49.075-6.72.858-13.505.816-20.266.822-5.446-.042-10.89-.308-16.324-.647 14.748-2.533 29.387-6.86 42.288-14.61 11.258-6.65 20.838-15.97 28.245-26.723 6.92-10.077 12.798-21.156 15.22-33.24 1.382-6.395 1.164-12.972.102-19.39 1.762 2.217 3.296 4.61 4.66 7.095 2.51 4.854 3.966 10.192 4.636 15.608 18.257-9.84 36.476-19.754 54.72-29.613.235-.218.706-.647.94-.864.224-.025.67-.085.895-.11l-.375-.416c-22.946-.03-45.898-.06-68.85.012l-.06-.13c-4.528-8.25-12.508-14.12-21.2-17.38-11.712-4.53-24.468-4.797-36.856-4.53-2.408-22.644-4.388-45.348-6.99-67.967-.054-.593-.11-1.19-.157-1.783-1.527 2.032-2.656 4.317-4.04 6.444z"/><path fill="#010101" d="M187.15 244.79c20.133-.18 40.272-.023 60.41-.077 6.744.29 13.88.768 19.813 4.316 3.09 1.78 5.186 4.967 5.928 8.43 1.13 5.954-.83 12.017-3.62 17.233-6.387 11.467-17.5 20.226-30.147 23.708-7.003 1.97-14.3 2.594-21.55 2.817-14.713.06-29.425-.066-44.13.067.507-1.336 1.352-2.497 2.1-3.7 8.398-13.83 16.916-27.587 25.29-41.43-4.668-3.832-9.382-7.592-14.09-11.364z"/><path d="M255.548 143.018a48.8 48.8 0 0 0 .766-.514c2.602 22.62 4.582 45.323 6.99 67.966-7.87.218-15.755.012-23.627.11.332-2.594 1.11-5.103 1.666-7.654 4.745-19.965 9.418-39.96 14.205-59.908zm-67.37 89.388c.99-1.692 1.943-3.415 3.12-4.98 23.375.132 46.743.018 70.117.054 8.73.15 17.82 1.18 25.524 5.615 4.46 2.527 7.966 6.523 10.164 11.14a2306.834 2306.834 0 0 0 24.255-11.853l.06.127c1.322 2.676 2.22 5.53 3.374 8.285 1.063 6.42 1.28 12.996-.102 19.39-2.42 12.085-8.3 23.165-15.22 33.24-7.406 10.755-16.986 20.075-28.245 26.724-12.9 7.75-27.54 12.077-42.287 14.61-5.42.713-10.853 1.323-16.274 1.994-9.013.816-18.068.943-27.105.925-5.01 2.26-9.75 5.185-14.662 7.682-21.352 11.473-42.722 22.903-64.074 34.376-1.636.833-3.193 1.836-4.926 2.477-.193-.725.278-1.257.797-1.68 13.172-12.017 26.302-24.076 39.456-36.117 1.535-1.42 3.19-2.732 4.475-4.395l.114-.14c2.492-.5 4.9-1.34 7.39-1.885-1.288-.628-2.748-.29-4.12-.35-20.246-.018-40.493.036-60.74-.03l.33-.182c12.208-6.014 24.486-11.932 36.638-18.043 6.146-9.823 11.887-19.91 17.893-29.824 11.344-19.06 22.706-38.106 34.05-57.165zm-1.027 12.386c4.71 3.772 9.426 7.53 14.09 11.364-8.37 13.842-16.89 27.6-25.286 41.43-.748 1.203-1.593 2.363-2.1 3.7-12.23 6.08-24.6 11.89-36.758 18.09 24.322-.035 48.644-.005 72.966-.017 15.78.215 31.82-2.02 46.393-8.3 17.217-7.285 31.735-21.267 38.587-38.796 3.447-8.686 5.125-18.636 1.926-27.655-7.957 3.79-15.835 7.75-23.785 11.563l.122 1.287c-.743-3.462-2.838-6.648-5.928-8.43-5.934-3.55-13.07-4.027-19.813-4.317-20.138.055-40.276-.103-60.41.08zm-93.483-12.495c.272.06.815.188 1.087.254.47.214 1.42.63 1.895.836 18.285 5.767 36.624 11.358 54.892 17.18-3.947 6.455-7.624 13.08-11.74 19.427-14.356-11.672-28.79-23.248-43.182-34.872-1.002-.91-2.354-1.552-2.952-2.822zm288.128 2.46c2.644-.604 5.234-1.504 7.957-1.734-.235.217-.706.647-.94.864-18.244 9.86-36.463 19.772-54.718 29.613-.67-5.416-2.125-10.753-4.636-15.607 17.428-4.443 34.892-8.747 52.338-13.135zm-126.53 100.65c6.76-.006 13.546.036 20.265-.822 1.913 16.333 3.44 32.72 5.167 49.077-.483-.34-.984-.67-1.46-1.004l.03-.2a2.1 2.1 0 0 0-.206-1.782c-7.937-15.088-16.002-30.11-23.795-45.27z" fill="#8A8D8F"/><path d="M100.706 335.86c.312-.513 2.3-3.898 4.42-7.524 3.552-6.08 30.724-51.44 41.802-69.786 2.617-4.333 4.666-7.963 4.554-8.068-.112-.104-12.44-4.01-27.396-8.677-14.956-4.67-27.45-8.606-27.765-8.75-.357-.166 4.554-.287 13.17-.324 7.555-.032 22.55-.137 33.315-.233l19.577-.174 6.465-10.82 6.463-10.82h38.666l19.58-32.457c22.794-37.782 22.445-37.218 22.586-36.483.057.3-.08.685-.31.853-.42.31-16.235 66.222-16.247 67.71-.002.256 5.103.368 20.964.46 22.264.128 22.696.152 30.024 1.646 13.2 2.693 23.84 9.323 29.635 18.468.5.79.886 1.455.86 1.48-.13.102-23.745 11.572-23.83 11.572-.054 0-.554-.78-1.11-1.735-5.243-8.953-14.776-13.625-29.79-14.6-2.38-.153-20.03-.28-39.696-.282l-35.407-.006-.833 1.217c-.46.67-11.397 18.952-24.308 40.626-12.91 21.676-24.94 41.822-26.73 44.77l-3.257 5.362-13.453 6.656c-14.48 7.164-22.076 10.854-22.347 10.854-.093 0 .086-.418.398-.93zm228.02-89.566c-.432-.748-1.46-2.328-2.283-3.51-1.236-1.775-2.673-4.807-4.45-9.387l-.25-.645 33.984.043c18.69.024 33.596.097 33.124.163-.47.066-13.957 3.4-29.97 7.41-16.012 4.008-29.17 7.288-29.24 7.288-.07 0-.48-.613-.913-1.362z"/><path d="M143.836 316.248c3.306-1.675 11.407-5.682 18.002-8.904l11.99-5.857 23.646-.127c27.31-.146 31.472-.374 39.244-2.147 16.972-3.874 30.87-15.962 35.97-31.284.72-2.168.788-2.748.817-7.058l.03-4.695 11.662-5.676c7.277-3.54 11.704-5.55 11.774-5.335 1.948 5.9 1.996 12.73.144 20.07-4.446 17.628-17.764 33.886-35.24 43.02-10.26 5.362-22.087 8.724-36.505 10.377-3.773.432-8.93.497-45.897.575l-41.647.087 6.01-3.047zm107.234 43.22c-15.327-12.382-27.74-22.555-27.583-22.608.156-.052 3.745-.514 7.974-1.026 6.537-.79 8.187-.9 10.984-.727 1.81.11 4.852.214 6.758.227 1.908.013 4.046.103 4.752.2l1.284.176 4.66 8.924a7977.91 7977.91 0 0 0 11.947 22.737c4.007 7.6 7.243 13.995 7.19 14.213-.058.242-10.97-8.39-27.963-22.115zm-139.553 21.246c.592-1.064 4.315-7.287 8.272-13.83 3.955-6.54 8.27-13.7 9.582-15.906a986.032 986.032 0 0 1 2.44-4.084c.126-.183 23.714-6.392 23.964-6.308.157.052-.276.598-.962 1.212-11.302 10.126-42.927 39.36-43.068 39.81-.19.612-.62 1.028-1.067 1.036-.133.002.244-.866.836-1.93z"/><path fill="#FFF" d="M269.105 374.148c-5.51-4.457-18.102-14.637-27.98-22.624-9.88-7.987-17.964-14.57-17.964-14.628 0-.058 3.623-.543 8.048-1.076l8.045-.97 3.946.217c2.17.12 5.764.282 7.985.36l4.038.147 5.132 9.83a6174.727 6174.727 0 0 0 11.915 22.658c5.71 10.804 7.43 14.326 6.93 14.207-.04-.01-4.584-3.667-10.095-8.123z"/><path fill="#FFF" d="M256.338 363.68a19464.04 19464.04 0 0 1-27.774-22.47l-5.32-4.326 7.427-.915c6.58-.81 8.4-.88 15.95-.62l8.526.298 2.584 4.913c17.108 32.528 21.285 40.59 21.182 40.9-.066.2-10.225-7.803-22.574-17.78zm-144.5 17.038c0-.172.48-1.15 1.068-2.172 1.052-1.833 18.788-31.33 18.986-31.576.263-.327 23.676-6.4 23.576-6.113-.063.18-8.13 7.657-17.926 16.618a19278.49 19278.49 0 0 0-21.757 19.925c-2.17 1.997-3.947 3.49-3.947 3.318zm-11.334-44.215c0-.367 11.36-19.49 28.74-48.38 22.347-37.148 22.43-37.29 22.016-37.678-.198-.185-12.473-4.117-27.278-8.736-14.806-4.62-27.192-8.557-27.526-8.747-.34-.194 14.053-.352 32.643-.36l33.25-.01 6.435-10.843 6.437-10.842 19.417-.105 19.416-.105 20.434-33.854c11.24-18.62 20.49-33.69 20.555-33.49.067.2-3.268 14.662-7.41 32.135-4.143 17.472-7.68 32.544-7.858 33.492l-.324 1.723 18.264.006c19.43.008 25.51.314 32.094 1.616 4.433.876 11.186 3.086 14.487 4.74 5.858 2.934 12.62 8.68 15.39 13.074 1.156 1.833 1.246 2.276.52 2.574-.28.114-5.546 2.67-11.707 5.68l-11.2 5.474-1.655-2.56c-4.5-6.967-11.48-11.025-22.473-13.065-3.236-.6-8.278-.696-42.932-.814-37.34-.13-39.287-.1-39.71.59-.245.396-11.475 19.235-24.956 41.862-32.86 55.153-28.93 48.973-32.19 50.63-8.356 4.245-32.88 16.172-32.88 15.99z"/><path fill="#FFF" d="M100.504 336.51c0-.365 5.307-9.3 28.448-47.904 12.65-21.1 22.512-37.963 22.31-38.144-.2-.18-12.475-4.112-27.28-8.74-14.806-4.63-27.192-8.57-27.526-8.76-.337-.19 14.21-.35 32.64-.357l33.25-.012 6.433-10.842 6.43-10.84 19.42-.106 19.417-.106 20.44-33.852c11.24-18.62 20.49-33.69 20.556-33.493.066.198-3.168 14.25-7.188 31.226s-7.555 32.05-7.858 33.496l-.55 2.63 18.266.007c24.776.01 30.98.605 40.374 3.88 7.76 2.704 13.243 6.132 18.037 11.28 2.97 3.187 4.97 6.07 4.52 6.517-.286.286-22.593 11.154-23.113 11.26-.24.05-.895-.73-1.453-1.734-1.608-2.894-6.73-7.726-9.976-9.41-3.71-1.927-8.074-3.372-12.784-4.232-3.39-.62-8.126-.713-42.892-.847-37.298-.143-39.108-.117-39.715.583-.35.403-11.658 19.246-25.13 41.873-13.47 22.627-25.613 42.964-26.984 45.194l-2.494 4.053-3.53 1.788c-9.186 4.65-32.07 15.777-32.07 15.593zm226.82-92.463c-1.882-2.79-5.398-10.12-5.398-11.254 0-.11 15.347-.183 34.104-.162 29.357.035 33.738.115 31.473.575-2.218.45-55.18 13.625-57.122 14.21-.463.14-1.34-.826-3.054-3.367z"/><path fill="#FFF" d="M155.758 310.41l17.81-8.852 22.51-.03c27.94-.037 35.024-.54 44.08-3.13 18.556-5.305 34.293-23.372 33.505-38.466l-.19-3.668 11.53-5.58c6.34-3.07 11.673-5.43 11.85-5.25.174.183.605 1.738.956 3.456 3.36 16.445-7.767 39.172-25.877 52.85-10.886 8.222-24.863 13.685-41.326 16.15-7.763 1.165-18.305 1.43-55.42 1.4l-37.24-.03 17.81-8.85zm102.604 54.902a33769.668 33769.668 0 0 0-27.78-22.43c-4.04-3.254-7.32-5.947-7.285-5.983.034-.038 3.34-.467 7.348-.956 6.383-.777 8.353-.852 15.89-.598l8.604.29 2.18 4.108c9.93 18.698 21.69 41.418 21.59 41.714-.064.198-9.312-7.068-20.55-16.148zm-146.524 15.406c0-.172.48-1.15 1.07-2.172 1.15-2 18.8-31.364 18.98-31.576.28-.334 23.68-6.396 23.58-6.11-.095.273-11.847 11.1-40.088 36.93-1.948 1.782-3.542 3.1-3.542 2.928z"/></g></svg>