<?xml version="1.0" encoding="utf-8"?>
<!-- Generator: Adobe Illustrator 20.1.0, SVG Export Plug-In . SVG Version: 6.00 Build 0)  -->
<svg version="1.1" id="Layer_1" xmlns="http://www.w3.org/2000/svg" xmlns:xlink="http://www.w3.org/1999/xlink" x="0px" y="0px"
	 width="512px" height="512px" viewBox="0 0 512 512" style="enable-background:new 0 0 512 512;" xml:space="preserve">
<style type="text/css">
	.st0{fill:#041E42;}
	.st1{fill:none;}
	.st2{fill:#B9975B;}
	.st3{fill:#FFFFFF;}
	.st4{fill:#C8102E;}
</style>
<title>florida-panthers</title>
<g id="XMLID_1014_">
	<path class="st0" d="M298,415.3v6.4h-1.6v-6.4h-1.9v-1.6h5.3v1.6H298z M306.7,421.7V417l-1.4,2.9h-1.4l-1.4-2.9v4.7H301v-8h1.6
		l2.1,4.3l2.1-4.3h1.6v8H306.7z"/>
	<path id="XMLID_1111_" class="st1" d="M409,117.1c-43.8-22.8-96.7-34.9-153-34.9c-56.3,0-109.2,12.1-153,34.9l-2.4,1.2v66.7
		c0,17.8,2.5,64.6,26,115.5C153,357.7,191.1,396,254,428.7l2,1l2-1c62.9-32.7,101-71,127.3-128.1c23.5-50.9,26-97.7,26-115.5v-66.7
		L409,117.1z"/>
	<path id="XMLID_1109_" class="st0" d="M105,121v64.1c0,17.5,2.5,63.5,25.6,113.7c28.2,61.1,69.7,97.1,125.4,126
		c55.2-28.7,97-64.5,125.4-126c23.1-50.1,25.6-96.2,25.6-113.7V121c-46.7-24.3-100.1-34.4-151-34.4C205.5,86.7,152,96.6,105,121z"/>
	<path id="XMLID_1104_" class="st2" d="M113.2,126v59.1c0,16.9,2.4,61.6,24.9,110.2c26.2,56.8,66,93.3,117.9,120.2
		c52.1-27.1,91.8-63.6,117.9-120.2c22.4-48.6,24.9-93.3,24.9-110.2V126c-41.3-21.5-95.5-31.2-142.8-31.2
		C208.5,94.8,154.5,104.5,113.2,126z"/>
	<g id="XMLID_1078_">
		<path id="XMLID_1099_" class="st0" d="M317.5,245.8c6.7-3.8,15.8-12.2,15.8-12.2c4.8-14.3,9-33.5,9-33.5c0-1.9-2.3-5-2.3-5
			c-2.3-1.2-7.6-2-7.6-2c-7.8,1.3-18,8.9-26.1,15.3c4.2,0,11.6-1.4,11.6-1.4c-1.5,3.8-6.7,13.7-6.7,13.7c3.4,0.2,9.9-1.3,9.9-1.3
			c-2.5,7.8-7.4,17.3-7.4,17.3L317.5,245.8z"/>
		<path id="XMLID_1097_" class="st0" d="M261.2,219.1c-1.1-0.4-2.1-0.9-3.2-1.3c-3.1-1.2-5.8-2.2-5.8-2.2s-0.6,0-1.9,0.1
			c-0.3,0-0.7,0.1-1.1,0.1c-0.8,0.1-1.7,0.3-2.8,0.5c-5,1-13,3.2-24.1,8.2h0h0l-1-2L220,220l-12.7,17.5h0h0l0,0
			c4.3,0.8,8.8,1.1,12.9,1c9,0,16.3-1.5,16.3-1.5c4.7-4,8.9-8.3,11.8-11.4c1-1,1.8-2,2.4-2.7c0.8-1,1.4-1.6,1.5-1.8
			C255.2,220.3,257.5,219.9,261.2,219.1z"/>
		<path id="XMLID_1096_" class="st0" d="M280.6,230.7c-7.2-5.7-11.8-7.2-11.8-7.2s0.4,8.1-0.2,10.7c-7,9.6-15.3,18.5-15.3,18.5
			l24.9-11.4C279.6,236,280.6,230.7,280.6,230.7z"/>
		<path id="XMLID_1081_" class="st0" d="M256,168.5c-77.2,0-128.4,25-132.5,27.1c2.4,48.2,22.4,135.1,104.7,192
			c11-5.9,18.3-15.8,22.7-23.5c8.7,10.5,9.6,25.1,9.6,25.1l0,0c-0.6,7.2-4.4,15.1-4.4,15.1l0,0c7.4-3.8,14.3-7.9,20.9-12.1
			c11-7.1,20.9-14.7,29.9-22.7l0,0c0.3-0.2,0.5-0.5,0.8-0.7c29-30,29.8-75,29.8-75c-6.3-26.2-17.4-35.3-17.4-35.3
			c2.2,12,3.6,25.2,3.6,25.2c-7.1,15.6-19.7,26-19.7,26c-11.4,1.3-20.4,0.1-36.2-5.2c-13.7-4.6-23.9-11.9-23.9-11.9
			s-5.2-0.3-11.2,0.3c-5.1,0.5-11.2,1.9-11.2,1.9c6.8-12,10.8-24.2,11.6-29.8c-4.6-4.9-9.6-9.6-14.7-13.2C207,252.3,198,253,198,253
			l3.8-15.4c0,0-2.6,2.2-5.5,5c-3.1,3.1-6.5,7-6.5,7c-6.7,2.7-16.2,4.2-16.2,4.2c-4.8-1.3-9.5-4.4-9.5-4.4
			c11.4-16.9,29.9-23.6,29.9-23.6c-3.4-4-3.2-7.2-3.2-7.2c4.7-3.1,9-5.7,12.9-7.8c-0.9,2.5-1.1,4.2-1.1,4.2s6.5-5.2,10.4-7.6
			c4.4-2.7,8.7-4.9,8.7-4.9c2.9-9.2,7.8-16.7,9-17.8c0,0,2.6-0.4,3.9-0.3c0.3,3,3.7,7.8,5.1,9.7c-7.2,2.3-13.4,7-13.4,7
			s15.7-4.2,29.7-4.7c18.9-0.6,30.5,3.6,30.5,3.6c-2.8,4.1-6.7,8.4-6.7,8.4c31.2-10.6,34.5-18.7,51.4-22.3c6.2,1,11.7,3,11.7,3
			c4,4.2,5,8.5,5,8.5c-2.3,18-9.6,38.3-9.6,38.3c-5.7,7-15.5,13.3-15.5,13.3c9.8-1.3,24.3-5.7,24.3-5.7c9,6.6,20.9,20.9,25.8,27.1
			c10.3-28.4,14.3-55.1,15.3-75.1C384.4,193.5,333.2,168.5,256,168.5z"/>
	</g>
	<g id="XMLID_1039_">
		<path id="XMLID_1076_" class="st3" d="M169.4,289.7c0,0,4.1-6.5,7.2-9.5l-4.4-12.3c-1.6-1.5-3.1-3.1-4.4-4.8
			c-1.2-1.6-2.3-3.2-3.1-4.5l-4.3,11.3C160.3,269.8,164.3,281,169.4,289.7z"/>
		<path id="XMLID_1075_" class="st3" d="M175.3,296.2c0,0,2.5,8.7,10.1,14.8c0,0,11.4-4.7,27.8-6.3c0,0-21.1-8.6-34.8-18.3
			C178.4,286.3,175.5,290.1,175.3,296.2z"/>
		<path id="XMLID_1074_" class="st3" d="M236.5,237.1c0,0-7.3,1.4-16.3,1.5c-4.1,0-8.6-0.2-12.9-1l9.3,4.3
			c6.7,0.3,14.5,0.2,22.6-1.7c3.8-3.6,9.9-10.1,13-15.6c0,0,0.1-1.5,0-3.4c-0.1,0.2-0.7,0.8-1.5,1.8c-0.6,0.7-1.4,1.6-2.4,2.7
			C245.4,228.8,241.2,233.1,236.5,237.1z"/>
		<path id="XMLID_1073_" class="st3" d="M209.8,292.2c0,0,0.8-1.2,1.8-3.2c-4-3.7-8.4-6.5-8.4-6.5c4.9-0.1,9,0.6,10.9,1
			c0.3-0.8,0.6-1.6,0.9-2.4c-4.8-3.8-10.6-6.5-10.6-6.5c5.3-0.8,10.5-0.4,12.3-0.2c0.1-0.7,0.2-1.5,0.3-2.3c-5.7-3.9-14-6.2-14-6.2
			c3.7-1.2,7.2-1.8,9.4-2l-4.2-4.9c0,0-4.7-0.2-9.7,0.2c-6.5,0.4-12.5,1.3-12.5,1.3c-1,0.7-2.5,1.9-3.6,2.8c-2,1.8-2.8,2.8-4.1,4.5
			l0.2,12C182.4,281.6,197.6,288.5,209.8,292.2z"/>
		<path id="XMLID_1072_" class="st3" d="M274.3,326.7c0,0,2.2,5.2,3.6,12.6c1.2,6.4,0.6,10.3,0.6,10.3
			c-20.2-23.2-49.6-37.5-49.6-37.5s40.7,33.5,31.4,76.9l0,0c-0.6,7.2-4.4,15.1-4.4,15.1l0,0c7.4-3.8,14.3-7.9,20.9-12.1
			c11-7.1,20.9-14.7,29.9-22.7l0,0C295.5,343.9,274.3,326.7,274.3,326.7z"/>
		<path id="XMLID_1070_" class="st3" d="M222.2,224.5L222.2,224.5c11.1-5,19.2-7.2,24.1-8.2c1.1-0.2,2-0.4,2.8-0.5
			c0.4-0.1,0.8-0.1,1.1-0.1c1.3-0.1,1.9-0.1,1.9-0.1h0C237.4,213,220,220,220,220l0,0l1.3,2.6L222.2,224.5z"/>
	</g>
	<g>
		<path id="XMLID_1038_" class="st4" d="M227.9,231.7c-2.2,0.9-5.1-0.3-6.1-1.4c-0.8,1.3-1.7,2.9-1.7,2.9s6.1,2.8,13.3-0.6
			c4.4-2.1,5.5-6,5.5-6c-2.7,0.2-5.3,0.5-7.7,1C230.8,228.6,230,230.8,227.9,231.7z"/>
		<path id="XMLID_1035_" class="st4" d="M123.2,184.8c39.8-18.1,89-26.3,132.8-26.3c43.6,0,93,8.2,132.8,26.3v-52.8
			c0,0-52.3-27.2-132.8-27.2c-80.5,0-132.8,27.2-132.8,27.2L123.2,184.8L123.2,184.8z"/>
	</g>
	<g id="XMLID_1015_">
		<path id="XMLID_1034_" class="st3" d="M194.6,147.6c-3.8,0.7-7.5,1.5-11.3,2.3v-27.5c-2.3,0.5-4.6,1.1-6.9,1.6v34.5
			c6-1.5,12.1-2.8,18.2-3.9V147.6z"/>
		<path id="XMLID_1030_" class="st3" d="M256.3,135.1c0.6,0,1.1,0,1.7,0c1.9,4.6,3.7,9.2,5.6,13.8c2.5,0.1,5,0.1,7.5,0.3
			c-1.9-4.7-3.7-9.3-5.6-14c0.8,0,1.5,0,2.3,0.1c1.1-1.9,2.2-3.9,3.3-5.8v-8.8c-1.1-2-2.2-4.1-3.3-6.1c-6.2-0.2-12.4-0.3-18.5-0.1
			c0,11.5,0,23,0,34.5c2.4,0,4.7-0.1,7.1-0.1L256.3,135.1L256.3,135.1z M256.3,121.4c2.6,0,5.1,0,7.7,0.1v6.8
			c-2.6-0.1-5.1-0.1-7.7-0.1V121.4z"/>
		<path id="XMLID_1028_" class="st3" d="M149.2,152.6c2.6-0.9,5.3-1.7,7.9-2.5v-7c-2.6,0.8-5.3,1.7-7.9,2.5v-6.8
			c3.7-1.2,7.4-2.4,11.1-3.5v-7c-6,1.8-11.9,3.7-17.8,5.9c0,11.5,0,23,0,34.5c2.2-0.8,4.5-1.6,6.8-2.4V152.6z"/>
		<path id="XMLID_1025_" class="st3" d="M355.4,150.2c2.5,0.8,5,1.6,7.4,2.4v13.7c2.3,0.8,4.5,1.5,6.8,2.4c0-9.5,0-19,0-28.5
			c-1-2.4-2.1-4.7-3.1-7.1c-4.9-1.7-9.8-3.3-14.7-4.7c-1.1,1.7-2.1,3.3-3.2,5v28.5c2.3,0.7,4.6,1.3,6.8,2L355.4,150.2L355.4,150.2z
			 M355.4,136.5c2.5,0.8,5,1.6,7.4,2.4v6.8c-2.5-0.8-4.9-1.6-7.4-2.4V136.5z"/>
		<path id="XMLID_1021_" class="st3" d="M229.4,149.9c1.1-2.1,2.2-4.1,3.3-6.2v-22.5c-1.1-1.9-2.2-3.8-3.3-5.7
			c-5.1,0.4-10.1,0.9-15.2,1.6c-1.1,2.1-2.2,4.2-3.3,6.4V146c1.1,1.8,2.2,3.7,3.3,5.5C219.3,150.9,224.3,150.3,229.4,149.9z
			 M218,123.6c2.6-0.3,5.1-0.6,7.7-0.8c0,6.8,0,13.7,0,20.5c-2.6,0.2-5.1,0.5-7.7,0.8V123.6z"/>
		<path id="XMLID_1020_" class="st3" d="M294.5,116.7c-2.3-0.3-4.7-0.5-7-0.7v34.5c2.3,0.2,4.7,0.5,7,0.7L294.5,116.7L294.5,116.7z"
			/>
		<path id="XMLID_1016_" class="st3" d="M332.4,151.8c0-7.5,0-15,0-22.5c-1.1-2.2-2.1-4.5-3.2-6.7c-6.1-1.4-12.2-2.5-18.3-3.6v34.5
			c6.1,1,12.2,2.2,18.3,3.6C330.3,155.2,331.4,153.5,332.4,151.8z M325.5,149.2c-2.5-0.5-5.1-1-7.6-1.5v-20.5c2.5,0.5,5.1,1,7.6,1.5
			V149.2z"/>
	</g>
</g>
</svg>
