<svg xmlns="http://www.w3.org/2000/svg" width="512" height="512" viewBox="0 0 512 512" xmlns:xlink="http://www.w3.org/1999/xlink"><defs><path id="a" d="M0 309.172h473.79V0H0z"/></defs><g fill="none" fill-rule="evenodd" transform="matrix(1 0 0 -1 19.067 411.586)"><mask id="b" fill="#fff"><use xlink:href="#a"/></mask><g transform="translate(2 3.06)" mask="url(#b)"><path fill="#DDCBA4" d="M267.61.576l127.64 125.516-27.054.088L468.7 233.335s-23.392 6.98-31.016 8.276l16.066 12.76c-26.71 6.9-82.02 15.69-140.715 11.81 0 0-12.54 36.296-60.893 36.296-55.227 0-68.452-42.586-68.452-42.586s-66.297-13.796-126.952-53.15l13.095-9.914S42.523 182.82 1.09 149.962c4.49-18.588 22.563-42.616 24.394-44.774 7.14-4.88 31.77-17.976 50.79-24.505 3.49.84 10.34 3.72 10.34 3.72 2.195-.897 12.49-3.675 15.335-4.042-2.027-12.22 6.99-19.12 6.99-19.12l-6.24-3.423s8.487-19.138 50.06-29.008C246.8 49.713 267.61.575 267.61.575"/><path fill="#154734" d="M10.73 146.785c4.393-11.726 12.49-24.915 20.246-35.518 2.39-2.135 26.537-14.743 45.533-21.94 2.023.28 8.292 3.124 9.39 3.835 1.1 0 15.035-6.206 33.04-6.206 6.377 0 11.288.647 11.288 1.985 0 1.096-2.657 2.473-3.878 3.015-3.673 1.634-8.53 3.028-8.53 6.996 0 3.966 7.238 9.245 40.064 9.245 20.677 0 34.29-1.15 34.29-1.15v-2.33c-10.582 0-21.55-1.562-28.873-3.363-4.65-1.143-11.922-3.285-11.922-5.6 0-4.258 18.913-4.29 18.913-12.76 0-6.88-7.03-14.397-33.127-14.397-14.11 0-25.482 4.59-26.45 4.59-.97 0-1.164-.32-1.164-.645 0-.478.803-2.08 2.262-4.056 2.043-2.77 5.582-6.277 11.857-8.52l-8.43-4.785c9.56-9.777 32.736-16.5 37.54-17.847 0 0 79.545 20.834 116.443-24.275l100.997 104.93-23.907.132 95.89 109.093s-18.35 6.64-36.872 10.26l12.623 9.83s-63.757 13.317-115.58 9.114c0 0-9.69 36.49-54.97 36.49-43.853 0-57.983-40.348-57.983-40.348s-52.082-8.494-117.95-46.553l14.043-10.776S55.24 181.126 10.73 146.786"/><path fill="#A6192E" d="M61.26 118.464s8.744-2.715 32.04-1.216l26.72 16.433 20.462-6.637 6.225 8.727h-6.72l13.633 22.047 11.57-22.048h-5.236l3.488-7.63 14.605 2.65 6.075 7.76h-5.43l8.143 12.477h-6.333l12.858 21.984 11.18-22.5h-5.105l7.884-13.32h-6.14l12.103-21.873L225 132.127h-8.01l12.234 18.534h-7.756l17.75 30.866 15.422-30.864h-6.374l10.337-18.533h-7.236l10.165-22.414 17.405 28.106h-9.562l14.042 23.188h-8.787l19.126 38.275 19.73-40.344h-6.98l12.668-21.21h-8.703l9.997-20.685 15.766 24.222h-8.445l18.525 26.81h-9.993l29.722 40.864 15.94-28.276 32.996 40.817s-57.55 24.184-142.503 24.184c-112.78 0-176.71-39.654-176.71-39.654s74.01 25.838 155.3 25.838c59.32 0 94.557-13.513 94.557-13.513s-75.926.358-197.988-32.672c19.814 0 31.704-5.734 31.704-5.734s-49.54-8.838-118.896-38.537l8.874-13.144-8.056-9.787z"/><path fill="#EAAA00" d="M218.597 202.457a42.984 42.984 0 0 1 28.186-10.48c15.89 0 29.77 8.59 37.265 21.377-18.25-2.35-40.223-5.806-65.45-10.897m-14.652 38.088a43.624 43.624 0 0 1 .082-11.35c15.044 1.634 30.898 2.652 47.037 2.652 14.31 0 27.214-.788 38.565-1.98a43.4 43.4 0 0 1 .323 5.307c0 3.512-.42 6.925-1.21 10.194-5.302.192-10.725.295-16.27.295-25.37 0-48.272-2.008-68.527-5.118"/><path fill="#EAAA00" d="M284.59 256.036c-7.353 13.315-21.525 22.333-37.807 22.333-22.023 0-40.194-16.506-42.837-37.826 19.21 7.113 51.186 13.197 80.645 15.49"/><path fill="#FFF" d="M250.87 219.257c-18.287-.586-51.887-2.214-106.34-15.752-.012-.004-.026-.004-.04-.006-.64 4.224-1.208 7.53-1.208 7.53s-2.204-3.61-4.987-8.65c-13.777-4.96-30.875-12.19-42.206-18.26 6.954 2.42 20.752 6.985 38.92 12.11-1.878-3.652-3.745-7.55-5.19-11.15l9.477 8.535s6.526-3.774 6.87-3.644c-.16 2.268-.5 5.16-.892 8.074 29.29 7.886 66.938 16.692 105.595 21.212"/></g></g></svg>