<svg xmlns="http://www.w3.org/2000/svg" width="512" height="512" viewBox="0 0 512 512" xmlns:xlink="http://www.w3.org/1999/xlink"><defs><path id="a" d="M0 341.987h342.49V0H0z"/></defs><g fill="none" fill-rule="evenodd" transform="matrix(1 0 0 -1 84 427.04)"><mask id="b" fill="#fff"><use xlink:href="#a"/></mask><g transform="translate(1 7.533)" mask="url(#b)"><path fill="#0033A0" d="M319.187 325.718h-65.02l-3.524-3.41-8.253-7.987-9.513 8.886-3.494 3.263H111.32l-3.494-3.264-9.513-8.884-8.253 7.987-3.524 3.41H.506l25.68-45.275.105-219.654c0-2.11.25-5.423 1.203-9.295 1.426-5.79 4.45-12.87 10.71-18.535 6.255-5.678 15.697-9.744 29.252-9.726h66.74c6.88 0 12.473-1.782 16.94-4.104 4.46-2.32 7.766-5.196 9.934-7.36a63.786 63.786 0 0 0 5.123-5.787 50.72 50.72 0 0 0 1.344-1.802c.15-.21.26-.372.335-.477.035-.053.062-.092.08-.116a.23.23 0 0 1 .017-.03l2.034-3.102 2.254 2.95s.306.4.804 1.04c.746.963 1.92 2.458 3.087 3.892 1.16 1.425 2.355 2.828 2.987 3.453.895.898 4.074 3.817 8.847 6.447 4.783 2.64 11.14 5 18.522 4.997h66.742c6.787.002 12.747.874 17.898 2.52 7.717 2.456 13.62 6.705 17.512 12.213 3.9 5.503 5.757 12.185 5.753 19.354v223.37l15.31 26.965 10.26 18.064h-20.795z"/><path fill="#FFF" d="M228.347 323.843H112.36l-2.737-2.554-11.34-10.596-10.053 9.726-2.76 2.672H5.02l23.795-41.956.106-220.345c0-7.615 3.737-34.93 38.537-34.93h66.74c14.682 0 24.152-7.66 28.734-12.232 4.583-4.575 7.24-8.63 7.24-8.63s5.02 6.563 7.11 8.65c2.09 2.085 13.326 12.214 29.23 12.214h66.74c26.253 0 38.536 13.52 38.536 31.462v224.06l15.654 27.568 8.03 14.142h-80.237l-2.76-2.67-10.05-9.727-11.34 10.594-2.736 2.554zm-3.743-9.472l17.935-16.752 16.535 16.004h60.11L302.3 283.88V57.322c0-14.77-11.208-21.99-29.05-21.99h-66.742c-24.73 0-36.155-16.706-36.155-16.706s-11.426 16.706-36.156 16.706h-66.74c-17.844 0-29.05 7.22-29.05 21.99V283.88l-16.89 29.74H81.63l16.536-16.003 17.936 16.754h108.502z"/><path fill="#FFF" d="M45.512 175.657V59.712c0-9.92 7.216-17.223 23.3-17.223h63.503c26.33 0 38.033-15.083 38.033-15.083s12.067 15.08 35.596 15.08h24.818l-185.25 133.17zm249.524 56.225H45.512v-5.928h249.524zm0-139.496v6.1L128.71 216.88h-8.48zm-249.524 101.6v-6.082l201.91-145.417h8.6z"/><path fill="#C8102E" d="M295.036 110.752V216.88H145.943z"/><path fill="#FFF" d="M74.6 239.256h-6.957l-12.427 28.97v-28.97h-6.984v44.93h7.17l12.213-28.268v28.27H74.6zm27.92 37.72H91.622v-11.36h10.848v-7.057H91.622v-12h10.898v-7.118H84.415v44.712h18.105zm31.253-37.72l-4.18 23.805-4.13-23.803h-8.454l-7.3 44.995h6.846l4.772-28.222 4.625 28.2h7.185l4.813-27.92 4.46 27.91h7.217l-7.533-44.962zm51.33.124h-7.39v18.57l-9.673 26.26h7.263l6.154-16.53 6.003 16.522h7.404l-9.762-26.44zm21.053 14.97c0-3.272-.02-4.48.517-5.776.643-1.36 2.16-2.064 3.715-2.064 1.552 0 3.014.728 3.657 2.086.59 1.296.574 2.42.574 5.753v14.75c0 3.332.07 4.397-.517 5.693-.643 1.36-2.164 2.145-3.716 2.145-1.554 0-3.037-.777-3.68-2.134-.536-1.235-.552-2.435-.552-5.705v-14.75zm15.557-.503c0-6.15-.026-7.45-1.713-9.93-1.48-2.17-5.552-4.566-9.66-4.566-3.997 0-7.64 1.605-9.513 4.348-1.687 2.48-1.86 5.254-1.86 10.15v15.865c0 5.16.12 7.687 2.07 10.557 2.07 3.027 5.07 3.937 9.303 3.937 4 0 7.63-1.26 9.503-4.002 2.252-3.31 1.87-4.784 1.87-10.493v-15.865zm17.824 14.248c3.424 0 5.498-.19 6.743.515 1.323.75 1.424 2.355 1.424 3.988 0 1.59.038 3.076-1.282 3.827-1.246.706-3.46.632-6.885.632h-2.955v-8.962h2.955zm-2.896-28.72h-7.222v44.852h11.64c6.385 0 8.028-.247 10.34-2.13 2.686-2.123 3.465-4.44 3.47-6.962l.006-5.298c0-2.26-1.19-4.853-2.63-6.12-1.8-1.582-3.94-2.11-4.084-2.18l7.935-22.163h-7.315l-7.696 22.113h-4.443v-22.113zm34.665 29.555l9.487 15.273h7.278l-8.827-14.39 13.663-30.433h-7.277l-10.71 23.775-3.616-5.58V239.38h-7.128v44.823h7.128zm-30.86-171.186c2.758-2.02 4.295-3.43 5.798-3.484 1.596-.057 2.815 1.432 3.974 3.006 1.126 1.532 2.21 2.944 1.676 4.447-.502 1.415-2.34 2.653-5.098 4.672l-2.38 1.746-6.35-8.64 2.38-1.745zm-18.205-19.98l-5.825 4.266 26.572 36.163 9.383-6.872c5.15-3.77 6.328-4.94 7.078-7.826.907-3.297.16-5.627-1.328-7.66l-4.406-5.78c-1.338-1.82-3.833-3.21-5.745-3.38-2.39-.214-4.43.624-4.587.654l-5.46-21.054-5.897 4.32 5.58 20.626-3.583 2.623-11.784-16.08zm-84.992 101.98l-14.07-11.878 7.105-5.033 6.965 16.91zM118.158 164l-7.784-5.95-5.752 4.194 36.618 29.22 5.54-4.406-16.223-43.697-5.815 4.25 3.194 9.128L118.16 164zm38.884-39.643l-5.7 4.074 6.742 30.907-16.93-23.626-5.726 4.09 26.26 36.64 5.88-4.2-6.513-30.204 16.52 23.053 5.725-4.093zm12.748-3.503c0 3.926 3.53 8.12 5.25 10.385l7.145 9.867-12.396-20.254zm29.245 2.496l-13.938-18.813-3.262 2.344.163 1.91c-2.536.11-3.59.303-7.232 2.922-3.51 2.523-5.173 6.923-4.977 9.144.473 4.56 3.53 8.12 5.25 10.385l7.144 9.87c4.96 6.88 5.96 8.436 10.12 9.47 3.365.912 5.895-.255 9.648-2.95 4.614-3.32 5.682-6.334 5.682-9.24 0-4.002-1.972-5.752-5.705-10.91l-5.784 4.22c2.63 3.625 5.697 6.69 1.91 9.72-1.598 1.28-2.192 1.72-3.287 1.72-1.747 0-2.396-.357-4.573-3.375l-8.858-12.127c-1.92-2.66-4.195-5.653-4.195-6.69 0-2.032 1.13-2.76 3.16-4.22 3.323-2.387 4.81-.323 8.448 4.724l1.068 1.482-5.76 4.08 3.195 4.658 11.78-8.32zm30.905-4.962l-8.732 6.51-6.808-9.103 8.692-6.48-4.227-5.654-8.692 6.48-7.188-9.61 8.733-6.51-4.265-5.703-14.51 10.817 26.79 35.826 14.51-10.818zM103.772 195.88c2.757-2.02 4.294-3.43 5.797-3.484 1.594-.057 2.813 1.432 3.972 3.006 1.126 1.532 2.21 2.942 1.676 4.446-.503 1.416-2.34 2.654-5.1 4.673l-2.38 1.747-6.348-8.642 2.38-1.744zM85.564 175.9l-5.823 4.266 26.574 36.163 9.383-6.876c5.15-3.772 6.328-4.94 7.078-7.825.907-3.3.16-5.628-1.33-7.663l-4.404-5.78c-1.335-1.82-3.832-3.21-5.742-3.38-2.39-.213-4.43.625-4.587.655l-5.46-21.054-5.896 4.32 5.58 20.625-3.582 2.624-11.786-16.08zM275.72 78.795c4.134 3.89 3.46 7.78.753 9.565-2.482 1.638-5.58 2.267-8.03-.844-.952-1.212-1.344-2.954-.972-4.72.31-1.723-.094-2.17 2.243-8.034 1.785-4.696 1.925-7.094 1.925-9.47 0-.562-.148-5.5-2.207-7.643-5.59-5.817-11.2-6.744-18.922-.517-11.693 9.423-.172 19.098.33 20.067l4.74-3.422c-2.394-3.658-6.706-8.548.446-12.516 1.95-1.08 5.434-2.2 7.678.654 1.42 1.806 1.673 4.44-.844 11.018-2.968 7.797-2.84 8.34-3.125 11.087-.26 2.654.517 5.26 2.216 7.423 4.557 5.795 12.652 7.72 19.692 1.56 8.73-7.643 2.957-13.737-.096-18.57l-5.823 4.363z"/></g></g></svg>