<svg xmlns="http://www.w3.org/2000/svg" width="512" height="512" viewBox="0 0 512 512"><g fill="none" fill-rule="evenodd"><path fill="#FFF" d="M197.356 377.47h-44.98c-12.055 0-34.628-2.66-50.364-20.472-16.5-18.68-17.117-43.18-17.32-51.23l-.007-.302-.05-1.965h17.183c-.023-.02-.045-.042-.068-.065-2.45-2.42-5.3-5.39-8.108-10.018a49.348 49.348 0 0 1-3.51-6.98c-.492-1.212-.882-2.397-1.295-3.65-.177-.54-.357-1.085-.548-1.64-2.776-8.078-4.18-19.138-4.18-32.875v-1.914h17.653c-5.54-6.35-9.676-12.533-12.66-21.215-2.934-8.535-4.342-19.48-4.07-31.647.005-.26.01-.447.01-.555v-1.913h1.916l17.107-.02c-5.172-5.217-9.21-10.82-12.034-16.705-7.365-15.348-7.005-30.878-6.87-36.724l.043-1.87h1.873c2.06-.003 206.53-.177 233.647-.177 30.247 0 58.42 11.57 79.33 32.58 10.022 10.07 17.885 21.784 23.37 34.82a107.55 107.55 0 0 1 8.464 41.927c0 14.85-2.91 29.233-8.646 42.745-5.537 13.04-13.47 24.74-23.574 34.772a109.346 109.346 0 0 1-34.95 23.37c-13.542 5.675-27.935 8.552-42.777 8.552-13.37 0-26.33-2.317-38.527-6.886-9.754-3.655-19.038-8.75-27.594-15.14-10.657-7.962-17.44-15.855-20.44-19.703l-37.47 63.958-.556.948z"/><path fill="#010101" d="M87.08 133.79l-3.747.002-.087 3.74c-.138 5.97-.505 21.833 7.058 37.595 2.335 4.867 5.47 9.54 9.357 13.966l-12.7.014-3.834.004v3.83c-.285 12.903 1.158 24.077 4.165 32.824 2.584 7.516 5.988 13.197 10.37 18.678H82.19v3.832c0 13.948 1.442 25.217 4.284 33.494.186.54.366 1.088.54 1.616.405 1.23.823 2.5 1.338 3.772a51.34 51.34 0 0 0 3.65 7.255 49.046 49.046 0 0 0 5.317 7.177H82.665l.1 3.93c.215 8.523.846 33.547 17.807 52.75 7.105 8.042 16.287 13.903 27.292 17.42 9.57 3.06 18.61 3.7 24.51 3.7h46.08l1.11-1.896 36.07-61.564c3.622 4.332 9.957 11.093 19.037 17.876 8.702 6.502 18.145 11.683 28.07 15.4 12.41 4.65 25.6 7.01 39.2 7.01 15.098 0 29.74-2.928 43.52-8.7a111.95 111.95 0 0 0 19.002-10.223 111.746 111.746 0 0 0 30.223-30.014 110.87 110.87 0 0 0 10.323-18.924c5.84-13.75 8.8-28.384 8.8-43.494a109.45 109.45 0 0 0-8.614-42.67 111.45 111.45 0 0 0-10.187-18.87 112.248 112.248 0 0 0-13.593-16.558 112.308 112.308 0 0 0-16.613-13.75 112.25 112.25 0 0 0-19.25-10.444c-14.08-5.94-29.163-8.95-44.827-8.95-27.12 0-231.587.173-233.65.175zm342.893 111.066c0 59.725-48.402 107.522-108.03 107.522-57.597 0-86.746-43.29-86.746-43.29l-38.94 66.468h-43.882c-12.07 0-33.86-2.774-48.924-19.825-16.25-18.395-16.654-42.8-16.847-50.312h19.823s-1.063-1.11-3.326-3.344c-2.076-2.05-5.006-5.02-7.818-9.65a47.397 47.397 0 0 1-3.372-6.704c-.678-1.675-1.183-3.38-1.807-5.196-2.855-8.316-4.076-19.452-4.076-32.252h20.046c-7.343-7.912-11.918-14.336-15.155-23.753-4.733-13.773-3.956-30.05-3.956-31.583l21.908-.024c-6.864-6.117-11.887-12.733-15.106-19.442-6.812-14.195-6.856-28.35-6.682-35.85 0 0 206.214-.176 233.646-.176 62.256 0 109.245 49.565 109.245 107.41z"/><path fill="#010101" d="M96.593 145.08c0 17.475 8.797 32.726 14.347 38.268 7.124 7.114 17.806 12.886 33.562 12.886l85.875.056c.587 0 2.026 1.317 2.026 2.3 0 .98-1.307 2.477-2.026 2.477H97.537c0 2.163-.222 24.157 13.715 38.074 13.864 13.846 27.944 12.537 34.385 13.826h51.074c.578 0 2.41 1.883 2.41 2.555 0 .957-1.736 2.234-2.41 2.234l-100.61-.05c0 2.895.637 19.8 9.807 33.235 9.687 14.19 26.28 18.722 35.944 18.722 0 0 19.398.024 20.453.024 1.055 0 2.782 1.652 2.782 2.538 0 .91-1.583 2.394-2.758 2.394l-65.64-.025c0 2.913-.01 19.82 13.895 35.1 14.736 16.198 29.708 17.24 36.64 17.24l44.728.033 87.642-147.454c8.66-14.293 24.412-23.854 42.408-23.854 27.33 0 49.484 22.047 49.484 49.244 0 27.196-22.155 49.244-49.484 49.244-27.118 0-49.138-21.71-49.475-48.62l-33.154 56.3c9.81 13.44 35.083 42.936 83.708 42.936 54.502 0 99.295-44.6 99.295-100.156 0-49.884-39.458-99.533-102.676-99.533l-223.103.004z"/><path fill="#FA4616" d="M350.493 244.92c0 15.674-12.767 28.38-28.515 28.38-15.748 0-28.514-12.706-28.514-28.38 0-15.675 12.766-28.382 28.514-28.382s28.515 12.707 28.515 28.38"/></g></svg>