<?xml version="1.0" encoding="utf-8"?>
<!-- Generator: Adobe Illustrator 20.1.0, SVG Export Plug-In . SVG Version: 6.00 Build 0)  -->
<svg version="1.1" id="Layer_1" xmlns="http://www.w3.org/2000/svg" xmlns:xlink="http://www.w3.org/1999/xlink" x="0px" y="0px"
	 width="512px" height="512px" viewBox="0 0 512 512" enable-background="new 0 0 512 512" xml:space="preserve">
<title>winnipeg-jets</title>
<g>
	<path fill="#010101" d="M315.688,422.782v6.962h-1.741v-6.962h-2.015v-1.73h5.771v1.73H315.688z M325.122,429.744v-5.13
		l-1.466,3.196h-1.538l-1.466-3.196v5.13h-1.74v-8.692h1.74l2.235,4.642l2.235-4.642h1.741v8.692H325.122z"/>
	<path fill="#FFFFFF" d="M277.969,88.212C274.19,84.663,256,67.587,256,67.587s-18.19,17.077-21.969,20.626H116.795v257.475
		c43.766,48.516,80.509,71.689,139.205,98.726c58.582-26.984,95.367-50.13,139.205-98.726V88.212H277.969z"/>
	<path fill="#B4975A" d="M276.048,93.06C275.845,92.859,256,74.235,256,74.235s-19.844,18.625-20.048,18.825h-114.31v250.765
		C162.65,389.295,199.21,412.913,256,439.076c56.669-26.108,93.221-49.639,134.358-95.252V93.06H276.048z M165.269,200.616v132.64
		c-1.651-1.632-3.27-3.266-4.847-4.901V200.616c0-54.082,31.109-91.361,75.521-107.547c0.537,0.376,1.494,2.728,1.728,3.341
		c0.688,1.797,1.251,3.832,1.69,5.723c0,0-2.426-2.029-4.846-3.19C187.091,118.756,165.269,155.263,165.269,200.616z
		 M252.817,311.108l-21.438-69.337l7.205-7.205l-1.711,8.566L256,304.994L252.817,311.108z M278.257,379.047l-8.529,9.8
		l63.468-183.009l6.156-2.959L278.257,379.047z"/>
	<path fill="#010101" d="M380.663,102.754v237.344C343.212,381.627,303.97,406.3,256,428.402
		c-47.969-22.102-87.212-46.775-124.663-88.304V102.754h83.849c-33.046,19.225-54.764,52.677-54.764,97.862v127.739
		c22.534,23.354,52.992,46.856,81.851,60.492l-63.471-183.009l59.782,28.728l-7.205,7.205l21.438,69.337h6.367l21.438-69.337
		l-7.205-7.205l59.78-28.728l-63.468,183.009c28.663-13.544,59.137-36.952,81.851-60.492V200.616
		c0-45.185-21.718-78.637-54.765-97.862C296.814,102.754,380.663,102.754,380.663,102.754z"/>
	<g>
		<path fill="#333F42" d="M272.639,102.132c1.702-7.326,3.418-9.063,3.418-9.063c0.007,0.001-17.697-16.618-19.842-18.632
			c-0.138-0.13-0.215-0.202-0.215-0.202v183.065l13.303-42.813l70.88-34.11C333.853,143.726,309.975,115.739,272.639,102.132z"/>
		<path fill="#333F42" d="M346.731,218.917l-52.739,152.631l9.14-11.805c0,0,24.035-18.399,38.752-35.342v-77.989L346.731,218.917z"
			/>
		<path fill="#333F42" d="M165.269,218.917L209.16,345.94l-24.4-57.498l-14.644-42.03L165.269,218.917z M237.886,206.43
			l-56.447-21.423l61.259,29.48v-89.702L237.886,206.43z"/>
	</g>
</g>
</svg>
