<svg xmlns="http://www.w3.org/2000/svg" width="512" height="512" viewBox="0 0 512 512" xmlns:xlink="http://www.w3.org/1999/xlink"><defs><path id="a" d="M0 0h439.9v254.705H0z"/><path id="c" d="M0 0h439.9v254.705H0z"/><path id="e" d="M0 0h439.9v254.705H0z"/><path id="g" d="M0 0h439.9v254.705H0z"/><path id="i" d="M0 0h439.9v254.705H0z"/><path id="k" d="M0 0h439.9v254.705H0z"/><path id="m" d="M0 0h439.9v254.705H0z"/><path id="o" d="M0 0h439.9v254.705H0z"/><path id="q" d="M0 0h439.9v254.41H0z"/><path id="s" d="M0 0h439.9v254.41H0z"/><path id="u" d="M0 0h439.9v254.705H0z"/><path id="w" d="M0 0h439.9v254.705H0z"/><path id="y" d="M0 0h439.9v254.705H0z"/><path id="A" d="M0 0h439.9v254.705H0z"/><path id="C" d="M0 0h439.9v254.705H0z"/><path id="E" d="M0 0h439.9v254.705H0z"/><path id="G" d="M0 0h439.9v254.705H0z"/><path id="I" d="M0 0h439.9v254.705H0z"/><path id="K" d="M0 0h439.9v254.705H0z"/><path id="M" d="M0 0h439.9v254.705H0z"/></defs><g fill="none" fill-rule="evenodd"><g transform="translate(37.003 129.003)"><mask id="b" fill="#fff"><use xlink:href="#a"/></mask><path fill="#FFF" d="M139.384 64.058s-17.02 6.89-28.715 24.522a513.923 513.923 0 0 1 17.54-4.438c5.205-12.072 11.173-20.084 11.173-20.084" mask="url(#b)"/><mask id="d" fill="#fff"><use xlink:href="#c"/></mask><path fill="#FFF" d="M380.93 100.798c10.602 2.905 18.902 6.675 18.902 6.675s14.378 9.09 20.802-2.56l-21.96-10.332c-6.142 3.558-12.168 5.42-17.744 6.22" mask="url(#d)"/><mask id="f" fill="#fff"><use xlink:href="#e"/></mask><path fill="#FFF" d="M83.305 63.542l77.96-17.433s3.083 10.013 16.38 18.05l-.23 2.46c-6.174 1.248-15.86 5.217-25.1 12.46a535.856 535.856 0 0 1 45.985-6.524l3.944-9.22c-24.454 3.585-35.478-17.204-35.478-17.204l-1.87-6.35L22.97 71.516c15.312 1.06 32.194 5.928 47.57 13.764 3.67-12.243 12.763-21.738 12.763-21.738" mask="url(#f)"/><mask id="h" fill="#fff"><use xlink:href="#g"/></mask><path fill="#FFF" d="M320.946 102.434c-6.523 3.255-12.172 7.704-18.56 13.144l7.37-13.837s-19.436-.784-38.04-.43l-12.15 13.354a53.395 53.395 0 0 0-14.275-2.252c-.283-6.753 2.368-14.44 8.314-21.815-7.87 5.933-12.63 13.542-13.622 21.974-3.46.268-6.84.87-10.1 1.774-1.703-5.618-1.514-12.533 1.08-20.053-4.583 6.987-6.475 14.39-5.527 21.485a53.66 53.66 0 0 0-9.32 4.592c-2.866-4.36-4.62-10.175-4.752-17.11-1.655 7.104-1.195 13.728 1.316 19.424-10.388 7.735-15.07 17.094-15.07 17.094-32.986-5.94-52.957 21.645-53.66 41.003-2.092-13.432 2.21-37.188 28.777-48.495l8.818-20.597a13.63 13.63 0 0 1 2.14-3.5c-29.63 5.524-48 17.255-48 17.255s-7.98 14.28-4.567 28.872c0 0-5.208-7.078-8.283-19.126a65.796 65.796 0 0 0-3.328 3.372 53.624 53.624 0 0 1 1.662 13.21c0 21.58-9.028 35.164-9.028 35.164l30.217 6.128s11.426 16.616 35.96 16.616c7.76 0 17.96-.858 17.96-5.805 0-3.735-9.186-8.81-9.186-19.63 0-17.574 22.087-35.808 45.785-43.614 27.694-9.115 69.995-19.736 91.28-19.736 60.36 0 58.37 39.823 58.37 39.823l2.927-.135c13.436-7.547 25.33-8.983 28.8-9.247 5.818-21.637-5.226-41.153-93.31-48.895" mask="url(#h)"/><mask id="j" fill="#fff"><use xlink:href="#i"/></mask><path fill="#FFF" d="M247.117 60.186c-12.777.535-22.804 5.157-30.433 10.912 10-.61 20.345-.94 30.953-.916 5.197-6.86 8.29-14.364 8.29-22.217 0-13.54-6.937-21.473-6.937-21.473l33.585-7.44 10.445 5.118s-24.68 9.48-24.68 36.214c0 3.803.562 7.253 1.444 10.37 17.757.892 36.11 2.85 54.76 6.226 0 0 6.023 14.626 22.627 14.626 8.04 0 14.18-4.45 14.18-4.45 17.997 13.596 34.486 6.093 34.486 6.093l-6.17-5.12-5.897 3.132 3.665-5.493-2.253-2.56-7.96 4.104 4.985-7.554-1.73-1.992-6.72 2.955 3.853-6.553-2.71-4.157c-2.526 11.074-12.41 12.397-20.9 11.733l-.442-4.898a11.953 11.953 0 0 1-6.354 1.82c-6.63 0-12-5.37-12-11.986 0-3.79-18.693-20.504-18.693-20.504l24.19 7.47c20.278 6.26 19.39 16.31 19.623 21.763 3.414 1.506 11.103 2.607 14.578-5.395l-2.557-13.307-16.106-7.807-11.06-10.34-61.956-25.03-60.98 13.52C236.61 30.502 248.5 38 248.5 38s4.566 10.497-1.382 22.187zm121.37 2.035l-3.01 11.645c0-8.813-5.216-13.87-20.653-22.945l23.664 11.3z" mask="url(#j)"/><mask id="l" fill="#fff"><use xlink:href="#k"/></mask><path fill="#FFF" d="M78.782 89.852a122.277 122.277 0 0 1 8.638 5.724 391.51 391.51 0 0 1 8.93-2.853c5.246-20.046 15.99-33.343 15.99-33.343-22.273 8.318-31.714 26.485-33.558 30.472" mask="url(#l)"/><mask id="n" fill="#fff"><use xlink:href="#m"/></mask><path fill="#FFF" d="M171.166 44.103s8.902 15.142 24.77 15.142l16.48-1.135 13.54-14.138 18.485-2.844c-6.85-4.148-14.577-7.137-22.46-9.262L206.526 53.44l9.822-22.945a141.074 141.074 0 0 0-8.567-1.59l-13.318 18.55 8.244-19.247a173.13 173.13 0 0 0-10.092-.928l-10.188 14.196 6.162-14.406c-14.384-.604-24.89.56-24.89.56l3.543 3.053 3.927 13.42z" mask="url(#n)"/><g><mask id="p" fill="#fff"><use xlink:href="#o"/></mask><path fill="#FFF" d="M191.992 186.255c1.946 8.79 7.824 11.27 8.388 14.554 0 0 15.273-3.143 25.416-18.226-19.754 9.934-33.804 3.67-33.804 3.67" mask="url(#p)"/></g></g><g transform="translate(37.003 129.003)"><mask id="r" fill="#fff"><use xlink:href="#q"/></mask><path fill="#FFF" d="M370.742 149.835c0-8.605-14.252-16.858-20.97-16.858-27.66 0-27.284 58.73-124.812 108.483 83.063-11.992 145.782-68.455 145.782-91.625" mask="url(#r)"/><mask id="t" fill="#fff"><use xlink:href="#s"/></mask><path fill="#FFB81C" d="M424.84 97.12l-23.12-11.157-7.13-5.48-10.384-12.87-3.422-15.347a5.413 5.413 0 0 0-2.612-3.535l-16.25-9.224-10.22-10.257a5.314 5.314 0 0 0-1.682-1.148L286.407.45a5.452 5.452 0 0 0-3.224-.347L196.49 17.41c-23.603-1.842-44.287 1.116-45.163 1.24-5.317.884-5.346 6.627-3.496 8.472L18.077 53.03a5.415 5.415 0 0 0-3.252 2.028l-13.73 18.04c-2.44 3.21-.6 8.104 3.618 8.656.954.125 94.807 12.966 94.807 69.856 0 20.95-14.39 41.553-14.538 41.76-2.08 2.945-.816 7.687 3.465 8.458l53.012 9.567c4.013 3.204 17.504 12.675 37.136 12.675 23.242 0 29.822-8.785 31.33-15.983 11.523-4.902 26.01-16.52 26.01-25.884 0-5.84-5.256-9.755-10.16-9.755-.562 0-1.063.2-1.596.288 0 0-2.477-4.575-8.463-4.575-2.558 0-5.34 1.287-7.51 2.208 5.314-6.103 14.097-13.376 28.144-18.025 21.663-7.18 49.91-13.263 64.053-16.112-21.5 62.454-95.144 95.26-95.922 95.595-4.38 1.906-3.587 7.456-1.784 8.605l-8.053 3.603c-5.727 2.522-3.288 10.856 2.647 10.35 77.72-6.6 134.88-33.792 174.686-82.948h16.01a5.5 5.5 0 0 0 2.647-.682c15.66-8.74 26.178-8.386 26.278-8.383 2.158.1 4.206-1.085 5.154-3.014 7.76-15.767 16.117-24.123 16.2-24.198 1.152-1.16 2.268-3.332 1.217-5.913l-11.977-29.297a5.432 5.432 0 0 0-2.662-2.827zm-36.853 68.895h-14.674l-2.702-1.46c-39.65 51.13-96.15 77.834-173.78 84.435 0 0 26.34-11.594 40.614-19.12l-30.8 6.93s83.466-36.185 101.706-107.645c0 0-43.06 7.9-73.708 18.043-30.33 10.038-38.6 32.052-38.6 32.052 10.804-1.002 16.38-5.667 19.674-5.667 3.927 0 5.412 4.056 4.38 6.357 1.81-.774 4.033-2.074 5.678-2.074 1.984 0 4.74 1.686 4.74 4.336 0 6.602-14.723 18.542-25.6 22.05 0 4.035-1.59 14.4-26.32 14.4-21.26 0-34.788-12.348-34.788-12.348l-54.4-9.81s15.53-21.87 15.53-44.884c0-62.4-99.53-75.233-99.53-75.233l13.73-18.037 140.33-28.014-7.348-6.316s21.15-3.103 44.755-1.153l87.372-17.44 63.626 27.65 10.733 10.783 16.894 9.587 3.687 16.59 11.59 14.36 8.08 6.212 23.63 11.4 11.977 29.296s-8.93 8.737-17.26 25.668c0 0-11.684-.716-29.212 9.05z" mask="url(#t)"/></g><g transform="translate(37.003 129.003)"><mask id="v" fill="#fff"><use xlink:href="#u"/></mask><path fill="#FFB81C" d="M380.93 100.8c-16.468 2.36-29.003-4.548-29.003-4.548-13.656 0-22.975 2.193-30.98 6.18 88.084 7.743 99.128 27.257 93.31 48.898a24.75 24.75 0 0 1 1.018-.062s5.956-11.11 12.868-19.167c0 0-8.968-18.79-40.44-20.352l12.13-4.272s-8.3-3.774-18.902-6.674z" mask="url(#v)"/><mask id="x" fill="#fff"><use xlink:href="#w"/></mask><path fill="#FFB81C" d="M110.67 88.58a63.475 63.475 0 0 0-8.69 19.674c8.433 8.917 14.703 19.138 17.53 30.31a62.788 62.788 0 0 1 3.327-3.378 70.87 70.87 0 0 1-2.21-17.59c0-12.365 3.564-24.125 7.586-33.45a514.29 514.29 0 0 0-17.543 4.434z" mask="url(#x)"/><mask id="z" fill="#fff"><use xlink:href="#y"/></mask><path fill="#FFB81C" d="M269.78 70.755c3.507 12.433 12.242 19.225 12.242 19.225l-10.307 11.33c18.607-.355 38.037.432 38.037.432l-7.366 13.835 19.18-21.083 2.975-17.514c-18.65-3.382-37-5.34-54.76-6.225z" mask="url(#z)"/><mask id="B" fill="#fff"><use xlink:href="#A"/></mask><path fill="#FFB81C" d="M187.388 98.088l10.915-25.532a534.044 534.044 0 0 0-45.986 6.526c-13.138 10.292-25.383 27.2-25.383 52.322 0 12.594 4.184 22.905 4.184 22.905-3.414-14.595 4.567-28.874 4.567-28.874s18.37-11.727 48-17.25c2.075-2.478 5.1-4.212 9.478-5.347 21.267-5.52 43-17.505 54.48-32.66a493.2 493.2 0 0 0-30.957.913c-13.937 10.512-19.86 24.79-19.86 24.79l-9.438 2.204z" mask="url(#B)"/><mask id="D" fill="#fff"><use xlink:href="#C"/></mask><path fill="#FFB81C" d="M96.35 92.72a416.433 416.433 0 0 0-8.926 2.856 111.48 111.48 0 0 1 7.14 5.632 89.254 89.254 0 0 1 1.786-8.488z" mask="url(#D)"/><mask id="F" fill="#fff"><use xlink:href="#E"/></mask><path fill="#FFB81C" d="M353.24 73.782a31.11 31.11 0 0 0-.58-2.547c-.617.39-1.493.776-2.534.776-2.727 0-4.412-2.092-4.412-4.403 0-1.964 1.348-3.74 3.275-4.242-2.414-3.41-4.83-4.848-4.83-4.848s-4.21 2.355-4.21 7.542c0 5.192 4.36 8.91 8.903 8.91 2.523 0 4.387-1.187 4.387-1.187z" mask="url(#F)"/><mask id="H" fill="#fff"><use xlink:href="#G"/></mask><path fill="#041E42" d="M398.855 90.6l-8.083-6.213-11.59-14.36-3.69-16.587-16.892-9.59-10.73-10.782-63.62-27.652-87.378 17.44c-23.6-1.95-44.75 1.16-44.75 1.16l7.344 6.31-140.328 28.01-13.73 18.042s99.528 12.834 99.528 75.23c0 23.014-15.533 44.886-15.533 44.886l54.4 9.81s13.532 12.342 34.788 12.342c24.733 0 26.32-10.358 26.32-14.394 10.88-3.51 25.607-15.447 25.607-22.054 0-2.648-2.76-4.333-4.743-4.333-1.645 0-3.87 1.298-5.68 2.08 1.034-2.307-.45-6.363-4.38-6.363-3.292 0-8.866 4.664-19.673 5.67 0 0 8.27-22.015 38.6-32.056 30.65-10.147 73.706-18.042 73.706-18.042C290.108 200.612 206.642 236.8 206.642 236.8l30.802-6.934c-14.28 7.534-40.618 19.12-40.618 19.12 77.633-6.6 134.134-33.303 173.786-84.43l2.695 1.455h14.68c17.524-9.762 29.216-9.045 29.216-9.045 8.325-16.93 17.254-25.668 17.254-25.668L422.483 102l-23.628-11.4zM188.59 27.066l-6.165 14.41 10.187-14.197c3.235.2 6.62.5 10.093.922l-8.246 19.25L207.775 28.9c2.837.443 5.696.97 8.57 1.592l-9.822 22.947 15.455-21.576c7.88 2.123 15.61 5.112 22.466 9.263l-18.494 2.843-13.536 14.136-16.48 1.14c-15.868 0-24.772-15.143-24.772-15.143l-3.92-13.425-3.54-3.048c-.002 0 10.498-1.164 24.885-.563zm-94.028 74.14a112.27 112.27 0 0 0-7.14-5.63 125.058 125.058 0 0 0-8.64-5.726c1.847-3.986 11.29-22.153 33.555-30.47 0 0-10.743 13.296-15.987 33.342a88.945 88.945 0 0 0-1.788 8.486zm131.232 81.378c-10.145 15.083-25.416 18.222-25.416 18.222-.565-3.286-6.442-5.76-8.386-14.552 0 0 14.05 6.264 33.802-3.67zm-.837 58.874c97.53-49.755 97.15-108.49 124.816-108.49 6.715 0 20.97 8.265 20.97 16.862 0 23.173-62.718 79.636-145.786 91.627zM428.14 132.1c-6.91 8.058-12.864 19.17-12.864 19.17s-.358.01-1.02.06c-3.467.27-15.362 1.705-28.8 9.252l-2.926.13s1.988-39.823-58.372-39.823c-21.28 0-63.59 10.62-91.28 19.73-23.7 7.81-45.785 26.047-45.785 43.618 0 10.815 9.182 15.895 9.182 19.628 0 4.946-10.196 5.804-17.957 5.804-24.536 0-35.96-16.61-35.96-16.61l-30.217-6.133s9.03-13.58 9.03-35.164c0-4.53-.58-8.937-1.663-13.21-2.826-11.168-9.096-21.384-17.53-30.3a63.443 63.443 0 0 1 8.695-19.676c11.698-17.634 28.713-24.52 28.713-24.52s-5.967 8.01-11.173 20.086c-4.02 9.328-7.582 21.082-7.582 33.448 0 6.636.917 12.548 2.206 17.595 3.074 12.043 8.282 19.12 8.282 19.12s-4.18-10.304-4.18-22.902c0-25.127 12.24-42.034 25.378-52.324 9.24-7.246 18.928-11.215 25.098-12.463l.232-2.464c-13.297-8.03-16.38-18.05-16.38-18.05L83.306 63.54s-9.093 9.495-12.76 21.736c-15.378-7.837-32.26-12.705-47.572-13.76L164.9 39.778l1.867 6.35s11.024 20.785 35.475 17.204L198.3 72.55l-10.912 25.535 9.44-2.206s5.92-14.278 19.856-24.787c7.63-5.753 17.656-10.375 30.43-10.914C253.064 48.497 248.5 38 248.5 38s-11.89-7.498-26.257-10.953l60.976-13.52 61.956 25.03 11.06 10.345 16.107 7.81 2.56 13.3 2.71 4.156-3.856 6.553 6.722-2.95 1.73 1.99-4.987 7.556 7.962-4.106 2.255 2.562-3.668 5.49 5.896-3.127 6.172 5.117s-16.494 7.5-34.49-6.093c0 0-6.14 4.445-14.176 4.445-16.604 0-22.628-14.623-22.628-14.623l-2.976 17.51-19.18 21.085c6.388-5.44 12.035-9.888 18.56-13.144 7.998-3.99 17.323-6.18 30.977-6.18 0 0 12.536 6.907 29.006 4.544 5.574-.8 11.6-2.662 17.745-6.214l21.96 10.33c-6.43 11.653-20.802 2.562-20.802 2.562l-12.13 4.273c31.47 1.56 40.438 20.35 40.438 20.35z" mask="url(#H)"/><mask id="J" fill="#fff"><use xlink:href="#I"/></mask><path fill="#041E42" d="M360.322 75.413c-.232-5.454.652-15.507-19.62-21.768l-24.2-7.47s18.703 16.712 18.703 20.504c0 6.617 5.367 11.986 11.997 11.986 2.333 0 4.516-.668 6.354-1.82l.44 4.9c8.496.663 18.377-.66 20.9-11.733-3.468 8.002-11.156 6.898-14.574 5.4m-11.468-.446c-4.54 0-8.902-3.717-8.902-8.91 0-5.186 4.21-7.54 4.21-7.54s2.414 1.437 4.827 4.847c-1.93.5-3.277 2.278-3.277 4.242 0 2.31 1.685 4.405 4.412 4.405 1.04 0 1.917-.385 2.533-.775.22.81.417 1.656.58 2.547.002 0-1.863 1.185-4.386 1.185" mask="url(#J)"/><mask id="L" fill="#fff"><use xlink:href="#K"/></mask><path fill="#041E42" d="M365.474 73.864l3.014-11.64-23.66-11.307c15.433 9.08 20.646 14.138 20.646 22.947" mask="url(#L)"/><g><mask id="N" fill="#fff"><use xlink:href="#M"/></mask><path fill="#041E42" d="M282.572 19.05l-33.582 7.443s6.943 7.932 6.943 21.473c0 7.85-3.1 15.36-8.29 22.215-11.482 15.158-33.215 27.14-54.482 32.66-4.375 1.134-7.4 2.866-9.476 5.344a13.536 13.536 0 0 0-2.14 3.5l-8.82 20.6c-26.566 11.306-30.865 35.062-28.776 48.497.702-19.36 20.675-46.946 53.66-41.005 0 0 4.68-9.36 15.07-17.098-2.512-5.692-2.97-12.315-1.314-19.417.13 6.93 1.884 12.742 4.75 17.106a53.583 53.583 0 0 1 9.32-4.592c-.947-7.094.945-14.5 5.526-21.483-2.59 7.52-2.778 14.437-1.077 20.054a53.39 53.39 0 0 1 10.098-1.77c1-8.433 5.753-16.043 13.626-21.974-5.946 7.374-8.598 15.055-8.31 21.813 4.96.114 9.744.88 14.272 2.25l12.153-13.356 10.305-11.32s-8.733-6.798-12.24-19.232a38.21 38.21 0 0 1-1.44-10.37C268.343 33.65 293.02 24.17 293.02 24.17l-10.447-5.12z" mask="url(#N)"/></g></g></g></svg>