<svg xmlns="http://www.w3.org/2000/svg" width="512" height="512" viewBox="0 0 512 512"><g fill="none" fill-rule="evenodd"><path fill="#010101" d="M280.3 381.2c-4.3 0-7.7 3.5-7.7 7.7 0 4.3 3.5 7.7 7.7 7.7 4.3 0 7.7-3.5 7.7-7.7 0-4.3-3.5-7.7-7.7-7.7zm0 13.8c-3.4 0-6.1-2.7-6.1-6.1 0-3.3 2.7-6.1 6.1-6.1 3.3 0 6.1 2.7 6.1 6.1-.1 3.4-2.8 6.1-6.1 6.1zm3.2-7.9c0-1.4-1.2-2.6-2.6-2.6h-3.7v8.8h1.7v-3.6h1.2l1.7 3.6h1.8l-1.7-3.7c.8-.4 1.6-1.4 1.6-2.5zm-2.7 1h-2.1v-1.9h2.1c.5 0 1 .4 1 1 0 .4-.4.9-1 .9z"/><path fill="#FFF" d="M405.3 140.4H383c-.9-2.6-2.4-5.1-4.7-7.4-6.5-6.5-15.2-7.5-20.2-2.5-1.1 1.1-1.9 2.4-2.4 3.8-1.5-1.1-3.4-2.1-5.6-3-3.1-6.6-7.6-15.9-17.5-15.9-3.6 0-6.7 1.1-9.2 2.3-7.3-5.8-23.2-16.7-39.5-16.7-17.8 0-42.4 16.3-49.7 16.3-5.3 0-17.1-26.1-35.4-26.1-9.9 0-19.8 6.7-31.7 13.9-11.3 6.8-14.4 15-17.7 23.7-1.1 2.8-6.1 8-9.5 11.5H83l97 168.6h-66.4L92.4 347h97.4c3.3 0 7-1.1 10.4-2.9l44 76.5 42.8-74.4h35.6v-20.9h-2.4c0-7.2-5.5-15.2-8.3-18.6l-.5-3 8.2-14.2 47.7-17.6c7.7-2.9 11.3-9.8 13-15.2 0 0 5.3-.1 10.1-5.6 3.4.9 7.6 1.8 10.9 1.8 7.2 0 14.8-4.1 16.7-11.8 0 0 7.6-4.7 11-19.1l-59.3-19.6 35.6-62z"/><path fill="#010101" d="M359.1 213.4l7.4 2.5v4.8c-4-.2-7.1-.9-7.1 10.7 0 8.7 1.7 11.5 1.7 13.9 0 4.1-.4 5.1-13.4 5.1 0 0-2-2.5-9.2-5.2 0 0-.1-.7-.4-1.9l55.1-95.9h-16.7c1.2-2.4 0-6.3-3.1-9.4-3.5-3.5-8.1-4.6-10.3-2.5-1 1-1.3 2.5-1 4.1l-6.9 7.2c.2-1.1.6-6.8-10.2-9.9-3.2-6.4-6-14.5-12.4-14.5-5.3 0-9.8 4-9.8 4s-19.7-18.3-38.8-18.3c-16.6 0-39.6 16.3-49.7 16.3-10.8 0-20.3-26.1-35.4-26.1-8.1 0-17.7 6.5-28.1 12.8-10.3 6.3-12.3 14-14.8 20.3-1.7 4.2-7 9.8-13.1 15.9H95.2L192 315.8c-.7.1-1.5.2-2.1.2h-72.2l-13.3 24h85.4c3.6 0 8.6-2.2 11.1-4.9l1.4-1.5 41.9 72.9 38.7-67.3h32.7v-6.8h-7.9l-1.4-4.4h1.2l5.7-2.6c0-6.5-7.9-15.7-7.9-15.7l-1.3-7.3 10.7-18.7 50.1-18.5c8.9-3.3 9.9-16.2 9.9-16.2s8.1 3.8 12.6-6.1c0 0 9 2.9 13.9 2.9 4.3 0 10.2-2.3 10.2-8.7 0 0 6.6-3.9 8.7-10.7l-59-19.5-2 6.5zm4.9-71.1c2.1 0 3.2.8 3.2 1.9 0 1.1-4.2 6.6-9.4 6.6-1.1 0-1.4-.6-1.4-1 0-1.6 5.5-7.5 7.6-7.5zm-4.5 11.3c4.9 5.9 5 12.3 5 12.3l-6.4-11.3c0-1.1 1.4-1 1.4-1zm-3 3.9s7.1 7.9 7.1 12.3c0 2.4-1.9 1.5-1.9 1.5l-6.9-10.3 1.7-3.5zm1.2 19c-3.4 0-6.6-9.2-6.6-9.2s.3-1.9 2.1-1.9c5.8 5 4.5 11.1 4.5 11.1zm-11.5-4.8c5.7 0 8 10.4 7.5 12.3-5.6 0-7.5-12.3-7.5-12.3zm2 18.7c-8.1 0-12.2-14.6-12.2-14.6s.2-2 5.9-1.6c0 0 8.2 8.3 6.3 16.2zm5.4-36.6c0 7.3-8.5 16.4-12.7 16.4-2.2 0-2.6-1.8-2.6-1.8s5.3-11.2 13-16.2c.1 0 2.3 0 2.3 1.6zm-7.5-11.4c3.5-2 8.7 4.5 3.8 7-7.3 3.6-15.2 18.8-15.2 18.8-3.5.6-4.9-1.6-4.9-1.6s1.5-14.6 16.3-24.2zm-89.4 127.2c-2.7 3.1-10.4-2.2-7.5-5.3l80.2-84.2c3-3 6.9.7 4.1 3.9l-76.8 85.6zm5.4 9.8l-.7 2.3-2.7-.4.4-4c1.6-.5 2.3 1.7 3 2.1zm-8.2-3.9c2.8 0 2.6 4 2.6 10.5 0 4.4-1.7 6.1-2.8 6.1-2.1 0-2-3.2-2.6-4.3 0 0 .9-1.1.9-3.3 0-2.3-1.2-9 1.9-9zm-37.5-7.9c-1.8 1.8-5 1.6-5 1.6s-8.8-7.7-3.4-15.2c5.6 3.5 8.4 13.6 8.4 13.6zm-4.2-16.1c0-3.3 7.1-5.7 7.1.6 0 7.9 1.5 7.8 1.5 8.9 0 1.5-2.9.4-2.9.4.1-2.5-5.7-6.6-5.7-9.9zm14.9 15.2c3.4 0 2.2 4.4 2.2 4.4-6.2-1.5-15.3 7.3-15.3 7.3s-.6-1.4-.6-2.9c0-3 6.7-8.8 13.7-8.8zm-4.9-15.8c0-4.5 4.3-6.7 4.3 5.9-1.5 1.5-4.3-.9-4.3-5.9zm-3.1 27.9c5.7 18.4 10.9 28.3 10.9 28.3l-2 1.1s-10.4-7.4-11.9-24.6l3-4.8zm4.2-2.3c10.1-5.5 14 11.3 14 11.3 0 16.1-1.6 18.8-1.6 18.8-2.3-.6-7.8-11.5-12.4-30.1zm10.5-13.9c-1.1.6-3.6.8-3.6-2.9 0-3.5-1.2-8.7.4-12.1 5.6 2.6 1.8 12.2 3.2 15zm-.6 7.9c0-1.2 1.5-3.2 4.4-3.2 2.9 0 5.5.5 5.5 3.5 0 3.7-4.5 6.2-5.3 6.2-1.4.1-4.6-3.3-4.6-6.5zm3-21.1s4.4-.5 4.4 4.9c0 2.1 0 5.7.2 7.2-1 1.5-3.9.3-3.9.3s-1.4-7.9-.7-12.4zm5.2 34.1s5.9-5.9 5.9 8.3c0 12-8.1 18.1-8.1 13.3-.1-2.8 3-2.5 2.2-21.6zm2.8-29.9s2.8-1.3 2.8 4.6c0 5.9-.6 5.6-1.5 6.1 0-.1-2.4-3.7-1.3-10.7zm2.8 26.2c-.9 0-2.4-.9-2.4-2.1 0-3.7 1-5.8 2.8-5.8 1.1 0 1.5 1.2 1.5 2.5.1 4.1-1.3 5.4-1.9 5.4zm80.9-107.3s2.8-1.2 4.4 3.8c-2.5-.1-4.1 1-4.1 1s-1.5-3.1-.3-4.8zm7.9-46.6l3.1 6.7c-3.3 0-5.6-5-5.6-6 0-1.3 2.2-1.4 2.5-.7zm-6.9.4l9.9 13.5s-.8 1.6-2.1.1l-10.8-11.5s.5-2.1 3-2.1zm-5 5l11.8 13.5c.6.6-1.5 2.3-2.7 1.2l-13.3-13c-.1-.2 2.6-3.5 4.2-1.7zm-7.1 4.5c2 0 14.6 9.8 14.6 12.7 0 .3-.9 1.6-1.5 1.3l-16-11.5c.1 0 1-2.5 2.9-2.5zm-5.5 6.3c6.2 2.8 11.7 6.3 17.3 10 .9.6-.5 3.5-1.4 3l-16.9-9.2c0 .1-.5-1.7 1-3.8zm-1.9 7.6c3.4 1 14.7 7.2 16.2 8.2 1.3.8-.5 2.7-1.1 2.4l-15.9-7.4c-.1 0-1.1-1.2.8-3.2zm-3 6.5c6.3 1.8 14.3 6 14.3 6-11.3.6-14.8-4.7-14.8-4.7l.5-1.3zm-71.3-1.6c24 0 50.6 22.8 68.8 48.1L254.1 255c-27.8-14.7-54.8-38-54.8-68 0-16.7 14.4-32.4 35.8-32.4zm-64.9-35.9c4-1.9 6.8 1.9 6.8 1.9-.5 1.5-4.9 4.6-4.9 7.7 0 1.7 8.2 1.8 8.2 8.2 0 2.8-1.4 4.2-1.4 4.2l-3.3.3s1.4-1.4 1.4-4c0-2.2-2.3-4.2-3.8-4.2-4.7 0-3.6 6.8-6.8 4.1.9-5.4 3.2-9.5 3.8-18.2zm-15.8 22.6c8.7 8.7 12.7 18.3 12.7 18.3-1.8 4.4-20.9 13.1-20.9 13.1l11.3-20.9-28.4 24.4s.4-11.3 3.9-15.3c3.5-3.9 21.4-19.6 21.4-19.6zM121.1 337h-11.6l10-18h11.6l-10 18zm77.6-3.9c-1.9 2.1-6 3.9-8.9 3.9h-8.5l8.2-18h.4c4.4 0 10.3-2.4 13.4-5.6l13.8-13.9 5.4 7.7-23.8 25.9zm90.6-5.1h9l-1.3 4.4h-10.3l2.6-4.4zm-28.1-4.1c-.7-.9.1-2.8 1.7-4.1 1.7-1.3 3.7-1.7 4.4-.7.7.9 0 2.8-1.7 4.1-1.7 1.3-3.7 1.6-4.4.7zm44.8 10.8h7.2v2.2h-57.3c.9-4.8 3.7-8.2 4.3-8.9h2l3.8 6.7h6.2l2.1-6.7h3.5l2.4 6.7h18.5l1.9-6.7h3.2l2.2 6.7zm2.4-62c-8.1 0-23.6-3.8-40.4-11.1l43.2-48.2c9.3 15.2 15.1 30.2 15.1 40.9-.1 16.3-10.4 18.4-17.9 18.4zm65.8-49.9l2.4-3.6L391 224l.1 4.4-16.9-5.6zm27.6 19.2c-2.1.5-4 0-4.3-1.2-.3-1.2 1.2-2.5 3.3-3 2.1-.5 4 0 4.3 1.2.3 1.2-1.2 2.5-3.3 3zm-2.6-10.9l2.6-3.5 3.1 1 .9 4.7-6.6-2.2zm-36.5-21.3l54.5 18c-1.9 3.7-5.2 6.2-6.4 7l-2.4-.8-1.4-7.3-5.9-2-4 5.5-3.5-1.1-.2-6.9-17.6-5.8-3.8 5.5-3.2-1.1.1-6.8-6.9-2.3.7-1.9z"/><g fill="#FFB81C"><path d="M212.4 282.2c-3.1-7.5-1.7-9.1-1.7-9.1s-9.9-8.2-7-18.3c0 0-25.6-37.1-25.6-59 0-11.4 5.5-10.3 5.5-19.6 0-7.6-5.2-13.3-9-13.3-4.3 0-17.7 8.8-37.3 20.4l7.4-17-17.9 18.3s-3.5-17.9 6.1-27.5c1.6-1.6 3.2-3.1 4.7-4.7h-34.1l93.1 161.9c1.7-.8 3.3-1.8 4.4-2.9l14.7-14.8c-2.2-5.6-3.3-11.3-3.3-14.4zm112.1-113.4l-1.7-3.9c-9 1.5-17.1-3.1-19.4-4.2-2.3-1.2.2-6.2.2-6.2s-.6-1.1-2-2.1h-9.4c-1.8 1.6-2.2 4.1-.7 5.6 10 10.4 18 21.5 24.5 32.3l10.5-11-2-10.5zm38.3-15c5.5 6.5 3.2 13.1 3.2 13.1 0 5-2.6 4.9-2.6 4.9 0 11.6-6.1 9.6-6.1 9.6 0 15.3-16.9 9.1-16.9 9.1-2.8-.4-5-1.1-6.9-2L322 201.3c7.4 14.4 11.9 27.3 14.2 35.2l48.4-84.2h-20.5l-1.3 1.5zm-78.4 122.3c0-1-15.4-5.1-21.4-7.4-5.5 2.2 1.6 3.3 1.6 10.4 0 4.2-2.1 9.2-2.1 9.2l-3.1.9s-6.1 11.3-10 9.6c-5.6 9.8-7.9 12.1-16.8 12.1-2.9 0-5.4-.8-7.6-2.2l-19.4 21.2 38.4 66.8 33-57.5h-23.7c0-6.1 3.9-11.2 3.9-11.2 0-9.7 6-11.8 10.5-12.2 9.5-.8 13.4 0 13.4-4.6 0-3.3-.3-7.1-.3-7.1h3.5c0-12.8-3.6-15.9-3.6-22.4.1-2.6 3.7-3.6 3.7-5.6zm-2.8 55.4l2-3.5h-3.3z"/><path d="M267.3 332.4h3.3l1.3-4.4h-7zm32.3-32.2l7.4-12.9-8.3 4.1z"/></g></g></svg>