<svg xmlns="http://www.w3.org/2000/svg" width="512" height="512" viewBox="0 0 512 512"><g fill="none" fill-rule="evenodd"><path fill="#97999B" d="M332.912 259.736c53.33 14.93 69.153 35.128 69.153 35.128l30.548-34.47c1.685-1.755 6.74-7.976 6.74-19.32 0-12.294-12.82-21.734-21.758-28.174-15.164-39.812-99.26-51.375-105.488-65.206-2.125-4.757-14.43-46.25-14.43-46.25C290.35 80 268.737 80 260.607 80c-8.205 0-25.713 2.78-25.713 2.78 0 29.86-4.03 66.304-8.278 72.964 0 0-15.164 7.977-33.038 14.344l-42.49-28.615 11.21 38.568C90.508 219.415 73 288.06 73 288.06s18.46 144.61 199.915 144.61c95.965 0 151.347-46.326 151.347-46.326l-30.914-69.084s-47.177 24.516-107.54 24.516c-55.6 0-77.358-25.907-85.343-40.982 47.104 1.463 54.502-2.27 54.502-2.27l77.945-38.786z"/><path fill="#97999B" d="M146.988 254.687l47.03-31.615-3.516 25.102zm57.946-35.933l-8.79-21.15 33.99-19.027zm11.866-2.414l20.146 16.83-40.583-5.488z"/><path fill="#003E7E" d="M411.002 218.315c-14.797-40.03-96.55-47.35-105.635-66.157-3.59-7.61-8.278-25.687-15.017-47.715-5.42-15.954-21.39-15.954-29.376-15.954-7.618 0-17.508 1.61-17.508 1.61 0 16.245-3.077 63.594-10.622 71.863-1.905 2.342-15.823 7.977-30.987 13.832l4.542 3.074-4.617 4.61c15.09-7.905 27.69-10.685 35.236-16.98 10.987-11.27 148.415 67.548 140.577 67.548-3.443 0-16.117 4.903-26.666 9.074 35.238 11.563 53.258 24.004 55.676 25.76l-5.2 5.855s-20.88-16.906-69.74-29.86c-21.025 10.54-82.707 1.17-82.707 1.17-33.99 6.954-66.444 39.227-68.055 40.837 4.615 22.687 26.81 69.524 105.195 69.524 56.628 0 100.435-19.76 100.435-19.76l20.292 45.374s-53.184 36.81-133.62 36.81c-164.458 0-185.336-129.166-185.336-129.166 22.71-60.595 60.877-87.16 85.125-98.357l-7.618-.878-.66-2.27c-64.1 35.42-83 100.846-83 100.846s19.487 135.9 191.565 135.9c88.055 0 141.312-40.763 141.312-40.763l-24.907-55.62s-46.518 21.81-103.51 21.81c-84.904 0-97.43-57.888-97.43-57.888s48.348 2.926 63.805-1.245l79.922-39.885c54.136 15.222 69.74 31.762 69.74 31.762l24.76-27.884s4.542-4.246 4.542-13.832c0-8.93-13.406-17.93-20.512-23.053"/><path fill="#00205B" d="M390.857 221.096c-33.918-2.708-47.104-13.832-47.104-22.613 0-4.172 3.81-4.977 6.447-4.977 13.845 0 35.236 10.978 38.752 20.272-6.08-6.514-16.702-12.222-24.76-12.222-1.758 0-3.516.513-3.516 2.635 0 5.49 9.743 14.053 45.272 18.005-13.626-39.226-88.713-42.007-105.562-66.596-4.688-6.807-12.453-50.644-20.292-56.57-8.57-6.588-30.62-3.587-30.62-3.587 0 6.074-1.466 59.79-12.6 70.987-7.473 6.292-20.146 9.073-35.237 16.977l-8.717 8.782-9.597 30.003-12.453-6.514 4.468 11.05-22.27 3.732 12.6 4.318-36.334 27.81 9.816.732-12.893 23.346c18.68-8.416 24.32-10.1 24.32-10.1l-5.347-5.488 37.58-15.15s-2.857 7.54-2.857 22.102c0 2.122.293 5.123 1.026 8.71 1.61-3.075 31.205-57.523 94.57-61.255l-79.115 61.18s43.367 1.83 53.99-1.17c33.477-15.515 60.29-30.078 81.313-40.617 20.145-10.1 35.09-16.466 45.345-16.466 12.673 0 30.4 12.295 45.418 22.687 0 0 .954-.803 1.76-2.413 3.66-13.173-15.24-23.272-33.405-27.59"/><path fill="#FFF" d="M180.98 286.814c1.61-1.537 34.063-33.81 68.054-40.763l26.518-20.49c-63.366 3.733-92.96 58.18-94.573 61.255m244.526-43.836c0-8.05-10.622-13.467-19.633-20.71-35.602-3.954-45.272-12.516-45.272-18.005 0-2.122 1.833-2.635 3.518-2.635 8.057 0 18.752 5.708 24.76 12.22-3.517-9.293-24.908-20.27-38.753-20.27-2.638 0-6.447.804-6.447 4.976 0 8.782 13.186 19.832 47.104 22.613 18.167 4.316 37.067 14.415 33.404 27.515.733-1.39 1.32-3.293 1.32-5.708m-66.664-.074l13.186 4.684c2.418-1.024 5.055-2.342 5.275-2.634.146-.366.146-.66-.367-1.17-.366-.367-6.3-2.563-9.962-3.88l-8.132 3zm11.135-4.17c3.515 1.39 8.35 3.365 8.79 3.44.586.072 1.465.145 2.05 0 .44-.148 3.297-1.61 5.422-2.636-2.05-1.025-6.155-2.927-8.938-2.927-2.638-.072-7.326 2.123-7.326 2.123m13.04 4.537c-.148.293 0 .44.438.805.513.366 7.4 3.952 7.912 3.952.512.073 1.025.073 1.538-.073.366-.073 2.784-1.61 4.395-2.708l-9.158-4.903c-2.344 1.244-4.908 2.635-5.127 2.927m6.518 7.245c.147-.366.22-.585.147-.878-.44-.512-7.253-4.025-7.985-4.098-.806-.075-1.245-.075-1.905.22-.586.29-4.03 2.193-5.274 2.852l10.623 4.83c2.05-1.244 4.174-2.635 4.394-2.928m13.04 3.733c.22.073.952-.147 1.685-.366.365-.146 1.977-1.39 3.002-2.27l-8.204-5.194c-1.978 1.244-4.03 2.635-4.25 2.927 0 .074 0 .293.44.88l7.326 4.024zm3.37.805c-.22.44-.293.658-.147.805.294.22 4.543 3.073 7.4 4.976l3.296-3.293-7.545-4.902c-1.39 1.024-2.856 2.195-3.002 2.415m-4.69 1.39c.148-.22.074-.658-.22-.95-.438-.44-6.958-3.953-7.47-4.026-.587-.147-1.54 0-2.125.22-.292.072-2.197 1.39-3.955 2.707l10.036 4.684c1.686-1.098 3.59-2.342 3.737-2.635m1.757 1.317c-.293.074-2.197 1.537-3.59 2.635l9.085 5.635 3.37-3.732c-2.785-1.903-6.74-4.61-7.107-4.757-.367-.07-1.32.075-1.76.22"/><path fill="#AEB0B2" d="M214.237 220.803l15.53 9.002-26.445-3.22 10.915-5.782zm2.564-4.464l-20.363 11.34 40.51 5.49-20.145-16.832zm-29.52 29.42l-28.863 4.462 31.867-21.59-3.004 17.126zm3.223 2.413l3.59-25.102-47.104 31.616 43.513-6.513zm10.77-49.4l21.536-12.147L204.2 211.8l-2.93-13.026zm28.862-20.197l-34.064 19.027 8.865 21.15 25.2-40.177z"/><path fill="#003E7E" d="M383.238 345.14c-14.21 5.49-51.28 17.857-96.99 17.857-90.178 0-112.888-61.693-112.888-84.965 0-5.123.367-9.514.806-13.026l-20.73 6.88 2.71 5.853-16.19 5.853-13.92 9.148 28.35 5.27-5.86 20.198 12.16-3.587 11.65 29.64 13.99-1.83 4.616 20.858s26.3 18.222 70.765 22.174c58.75 5.27 111.422-14.783 111.422-14.783s-62.78 24.59-119.775 18.515c-43.587-4.61-71.937-22.32-71.937-22.32l-.368-18.808-17.215.22-8.13-28.76-15.312 7.17 6.74-25.76-29.376-3.586 6.006-18.002 6.96-14.052-9.377.22 39.264-29.2-17.142-6.66 27.91-5.342-9.742-19.54 17.215 9.807 6.813-21.37c-20.658 7.173-65.124 30.006-90.837 97.115 3.15 15.368 30.035 121.922 178.45 121.922 64.1 0 110.91-24.298 125.27-32.787l-15.312-34.323zM191.015 192.043l8.498-11.417-41.39-28.614 11.868 34.835z"/><path fill="#FFF" d="M289.03 163.282s-11.5-4.83-14.577-8.782c-3.076-3.88-6.74-42.958-6.74-42.958s-.658 39.81-2.93 43.397c-2.344 3.51-13.77 10.097-13.77 10.097s12.672-4.17 18.9-4.464c4.614-.293 19.118 2.708 19.118 2.708"/><path fill="#FFF" d="M269.985 160.574c-6.227.366-18.9 4.464-18.9 4.464s11.428-6.586 13.7-10.1c2.27-3.512 2.93-43.396 2.93-43.396s3.662 39.006 6.738 42.958c3.15 3.952 14.652 8.782 14.652 8.782s-14.578-3-19.12-2.708m61.754 84.306c48.86 12.954 69.74 29.86 69.74 29.86l5.2-5.856c-2.418-1.756-20.44-14.197-55.675-25.76 10.475-4.17 23.222-9.075 26.665-9.075 7.766 0 23.81 10.17 41.024 21.37l3.956-4.393c-15.018-10.392-32.672-22.687-45.42-22.687-10.4 0-25.272 6.368-45.49 16.54"/><path fill="#003E7E" d="M229.767 229.805l-15.53-9.002-10.988 5.782zm-28.497-31.03l2.93 12.954 18.608-25.104zm-10.987 29.932l-31.867 21.59 28.863-4.538z"/></g></svg>