<?xml version="1.0" encoding="utf-8"?>
<!-- Generator: Adobe Illustrator 16.0.4, SVG Export Plug-In . SVG Version: 6.00 Build 0)  -->
<!DOCTYPE svg PUBLIC "-//W3C//DTD SVG 1.1//EN" "http://www.w3.org/Graphics/SVG/1.1/DTD/svg11.dtd">
<svg version="1.1" xmlns="http://www.w3.org/2000/svg" xmlns:xlink="http://www.w3.org/1999/xlink" x="0px" y="0px" width="512px"
	 height="512px" viewBox="0 0 512 512" enable-background="new 0 0 512 512" xml:space="preserve">
<g id="grids" display="none">
	<g id="svgGrid" display="inline">
		<line fill="none" stroke="#B35047" x1="32" y1="0" x2="32" y2="512"/>
		<line fill="none" stroke="#B35047" x1="64" y1="0" x2="64" y2="512"/>
		<line fill="none" stroke="#B35047" x1="96" y1="0" x2="96" y2="512"/>
		<line fill="none" stroke="#B35047" x1="128" y1="0" x2="128" y2="512"/>
		<line fill="none" stroke="#B35047" x1="160" y1="0" x2="160" y2="512"/>
		<line fill="none" stroke="#B35047" x1="192" y1="0" x2="192" y2="512"/>
		<line fill="none" stroke="#B35047" x1="224" y1="0" x2="224" y2="512"/>
		<line fill="none" stroke="#B35047" x1="256" y1="0" x2="256" y2="512"/>
		<line fill="none" stroke="#B35047" x1="288" y1="0" x2="288" y2="512"/>
		<line fill="none" stroke="#B35047" x1="320" y1="0" x2="320" y2="512"/>
		<line fill="none" stroke="#B35047" x1="352" y1="0" x2="352" y2="512"/>
		<line fill="none" stroke="#B35047" x1="384" y1="0" x2="384" y2="512"/>
		<line fill="none" stroke="#B35047" x1="416" y1="0" x2="416" y2="512"/>
		<line fill="none" stroke="#B35047" x1="448" y1="0" x2="448" y2="512"/>
		<line fill="none" stroke="#B35047" x1="480" y1="0" x2="480" y2="512"/>
		<line fill="none" stroke="#B35047" x1="0" y1="32" x2="512" y2="32"/>
		<line fill="none" stroke="#B35047" x1="0" y1="64" x2="512" y2="64"/>
		<line fill="none" stroke="#B35047" x1="0" y1="96" x2="512" y2="96"/>
		<line fill="none" stroke="#B35047" x1="0" y1="128" x2="512" y2="128"/>
		<line fill="none" stroke="#B35047" x1="0" y1="160" x2="512" y2="160"/>
		<line fill="none" stroke="#B35047" x1="0" y1="192" x2="512" y2="192"/>
		<line fill="none" stroke="#B35047" x1="0" y1="224" x2="512" y2="224"/>
		<line fill="none" stroke="#B35047" x1="0" y1="256" x2="512" y2="256"/>
		<line fill="none" stroke="#B35047" x1="0" y1="288" x2="512" y2="288"/>
		<line fill="none" stroke="#B35047" x1="0" y1="320" x2="512" y2="320"/>
		<line fill="none" stroke="#B35047" x1="0" y1="352" x2="512" y2="352"/>
		<line fill="none" stroke="#B35047" x1="0" y1="384" x2="512" y2="384"/>
		<line fill="none" stroke="#B35047" x1="0" y1="416" x2="512" y2="416"/>
		<line fill="none" stroke="#B35047" x1="0" y1="448" x2="512" y2="448"/>
		<line fill="none" stroke="#B35047" x1="0" y1="480" x2="512" y2="480"/>
		<rect fill="none" stroke="#B35047" width="512" height="512"/>
	</g>
</g>
<g id="b_x26_w" display="none">
	<g id="Layer_9" display="inline">
		<g>
			<path fill="#1A191A" d="M40.2,131.1c0,0,6.7,23,32.3,41l-14.9-1.6c0,0,15.7,22.2,44.2,36.1l-15.5-1.4c0,0,20.8,33.1,63,49.4
				c0,0,4.2,27,40.8,51.5c0,0,34.7,20,38.7,38.3c0,0,66.8-4.4,140,44.6c0,0,17.3-70.6,106.8-79.2c0,0,0.1-38.4-50.7-63.8
				c0,0-20.8-79.6-146.7-88.2l-106.1,0.3C171.9,158.1,90.9,152.8,40.2,131.1z"/>
			<path fill="#FFFFFF" d="M70.7,151.8c0,0,21.7,28.4,83.1,42.7l-55.4-5c0,0,20.7,19.9,82.1,34.9l-55.6-4.8c0,0,31.2,29.7,79.6,37.7
				l-29.7,4.7c0,0,2.7,15,53.7,48.1c0,0,16.9,14.2,13.4,17.7c0,0,27.7,0.3,76.1,23c0,0,46.4-23.7-18.4-92.8c0,0-29.7-32.7-63.1-54.1
				c0,0,50.4-12,113.2,24c0,0,32,24,61.4,12c0,0-12-60.7-125.2-70.4H163.2C163.2,169.5,111.1,165.5,70.7,151.8z"/>
			<path fill="none" stroke="#000000" d="M70.7,151.8c0,0,21.7,28.4,83.1,42.7l-55.4-5c0,0,20.7,19.9,82.1,34.9l-55.6-4.8
				c0,0,31.2,29.7,79.6,37.7l-29.7,4.7c0,0,2.7,15,53.7,48.1c0,0,16.9,14.2,13.4,17.7c0,0,27.7,0.3,76.1,23c0,0,46.4-23.7-18.4-92.8
				c0,0-29.7-32.7-63.1-54.1c0,0,50.4-12,113.2,24c0,0,32,24,61.4,12c0,0-12-60.7-125.2-70.4H163.2
				C163.2,169.5,111.1,165.5,70.7,151.8z"/>
			<path fill="#FFFFFF" d="M309.7,224.5c0,0,6.7,52.4,58.1,49.7c0,0,18-4.3,21.7-23h-7c0,0-6,19-24,15.4c0,0-10.8-0.2-21.4-16
				l17-2.3C354.1,248.2,324.1,238.9,309.7,224.5z"/>
			<path fill="none" stroke="#000000" d="M309.7,224.5c0,0,6.7,52.4,58.1,49.7c0,0,18-4.3,21.7-23h-7c0,0-6,19-24,15.4
				c0,0-10.8-0.2-21.4-16l17-2.3C354.1,248.2,324.1,238.9,309.7,224.5z"/>
			<path fill="#FFFFFF" d="M378.6,297.9c0,0,52.2-9.6,87.4,7.7c0,0-44.6,1.8-74.5,27.1C391.5,332.6,394.2,313.5,378.6,297.9z"/>
			<path fill="none" stroke="#000000" d="M378.6,297.9c0,0,52.2-9.6,87.4,7.7c0,0-44.6,1.8-74.5,27.1
				C391.5,332.6,394.2,313.5,378.6,297.9z"/>
			<path fill="#FFFFFF" d="M379.3,285.2c0,0,57.2-2.5,87,16.3c-7-27.8-55-49.5-51.1-47.6C415.1,254,405.5,276.3,379.3,285.2z"/>
			<path fill="none" stroke="#000000" d="M379.3,285.2c0,0,57.2-2.5,87,16.3c-7-27.8-55-49.5-51.1-47.6
				C415.1,254,405.5,276.3,379.3,285.2z"/>
		</g>
	</g>
	<g id="Layer_6_copy" display="inline">
	</g>
	<g id="Layer_7_copy" display="inline">
	</g>
	<g id="Layer_11_copy" display="inline">
	</g>
	<g id="Layer_13_copy" display="inline">
	</g>
	<g id="Layer_15_copy" display="inline">
	</g>
	<g id="Layer_17_copy" display="inline">
	</g>
	<g id="Layer_19_copy" display="inline">
	</g>
	<g id="Layer_21_copy" display="inline">
	</g>
	<g id="Layer_23_copy" display="inline">
	</g>
	<g id="Layer_25_copy" display="inline">
	</g>
	<g id="Layer_27" display="inline">
	</g>
	<g id="Layer_29_copy_2" display="inline">
	</g>
	<g id="Layer_31" display="inline">
	</g>
	<g id="Layer_33_copy" display="inline">
	</g>
	<g id="Layer_35_copy" display="inline">
	</g>
	<g id="Layer_37_copy" display="inline">
	</g>
	<g id="Layer_39_copy" display="inline">
	</g>
	<g id="Layer_41_copy" display="inline">
	</g>
	<g id="Layer_43_copy" display="inline">
	</g>
	<g id="Layer_48" display="inline">
	</g>
	<g id="Layer_45_copy" display="inline">
	</g>
	<g id="Layer_49_copy_2" display="inline">
	</g>
	<g id="Layer_51" display="inline">
	</g>
	<g id="Layer_53_copy" display="inline">
	</g>
	<g id="Layer_55_copy" display="inline">
	</g>
	<g id="Layer_57_copy" display="inline">
	</g>
	<g id="Layer_59_copy" display="inline">
	</g>
	<g id="Layer_61_copy" display="inline">
	</g>
	<g id="Layer_63_copy" display="inline">
	</g>
	<g id="Layer_64_copy" display="inline">
	</g>
	<g id="Layer_66_copy_2" display="inline">
	</g>
</g>
<g id="color">
	<g id="Layer_5">
		<path fill="#1A191A" d="M40.2,131.1c0,0,6.6,22.9,32.2,40.8l-14.9-1.6c0,0,15.7,22.1,44,36L86,204.9c0,0,20.7,33,62.8,49.3
			c0,0,4.2,27,40.6,51.3c0,0,34.6,19.9,38.6,38.2c0,0,66.6-4.4,139.5,44.5c0,0,17.2-70.4,106.4-78.9c0,0,0.1-38.2-50.5-63.6
			c0,0-20.7-79.3-146.2-87.9L171.4,158C171.4,158,90.7,152.7,40.2,131.1z"/>
		<path fill="#84161C" d="M70.6,151.7c0,0,21.6,28.3,82.8,42.6l-55.2-5c0,0,20.6,19.8,81.8,34.8l-55.4-4.8c0,0,31.1,29.6,79.4,37.6
			l-29.6,4.7c0,0,2.7,15,53.6,47.9c0,0,16.8,14.1,13.3,17.6c0,0,27.6,0.3,75.9,23c0,0,46.2-23.6-18.3-92.5c0,0-29.6-32.6-62.9-53.9
			c0,0,50.2-12,112.8,24c0,0,31.9,24,61.2,12c0,0-12-60.6-124.8-70.2H162.8C162.8,169.3,110.9,165.3,70.6,151.7L70.6,151.7z"/>
		<path fill="none" stroke="#000000" d="M70.6,151.7c0,0,21.6,28.3,82.8,42.6l-55.2-5c0,0,20.6,19.8,81.8,34.8l-55.4-4.8
			c0,0,31.1,29.6,79.4,37.6l-29.6,4.7c0,0,2.7,15,53.6,47.9c0,0,16.8,14.1,13.3,17.6c0,0,27.6,0.3,75.9,23c0,0,46.2-23.6-18.3-92.5
			c0,0-29.6-32.6-62.9-53.9c0,0,50.2-12,112.8,24c0,0,31.9,24,61.2,12c0,0-12-60.6-124.8-70.2H162.8
			C162.8,169.3,110.9,165.3,70.6,151.7L70.6,151.7z"/>
		<path fill="#FFFFFF" d="M308.8,224.2c0,0,6.7,52.2,57.9,49.6c0,0,18-4.3,21.6-23h-7c0,0-6,19-24,15.3c0,0-10.8-0.2-21.3-16l17-2.3
			C353.1,247.9,323.2,238.5,308.8,224.2z"/>
		<path fill="none" stroke="#000000" d="M308.8,224.2c0,0,6.7,52.2,57.9,49.6c0,0,18-4.3,21.6-23h-7c0,0-6,19-24,15.3
			c0,0-10.8-0.2-21.3-16l17-2.3C353.1,247.9,323.2,238.5,308.8,224.2z"/>
		<path fill="#FDBD12" d="M377.5,297.3c0,0,52-9.5,87.1,7.7c0,0-44.5,1.8-74.2,27C390.4,332,393.1,313,377.5,297.3z"/>
		<path fill="none" stroke="#000000" d="M377.5,297.3c0,0,52-9.5,87.1,7.7c0,0-44.5,1.8-74.2,27C390.4,332,393.1,313,377.5,297.3z"
			/>
		<path fill="#FDBD12" d="M378.2,284.7c0,0,57-2.5,86.7,16.3c-7-27.7-54.9-49.3-51-47.4C413.9,253.6,404.4,275.9,378.2,284.7z"/>
		<path fill="none" stroke="#000000" d="M378.2,284.7c0,0,57-2.5,86.7,16.3c-7-27.7-54.9-49.3-51-47.4
			C413.9,253.6,404.4,275.9,378.2,284.7z"/>
	</g>
	<g id="Layer_6">
	</g>
	<g id="Layer_7">
	</g>
	<g id="Layer_11">
	</g>
	<g id="Layer_13">
	</g>
	<g id="Layer_15">
	</g>
	<g id="Layer_17">
	</g>
	<g id="Layer_19">
	</g>
	<g id="Layer_21">
	</g>
	<g id="Layer_23">
	</g>
	<g id="Layer_25">
	</g>
	<g id="Layer_27_copy">
	</g>
	<g id="Layer_31_copy_2">
	</g>
	<g id="Layer_29">
	</g>
	<g id="Layer_33">
	</g>
	<g id="Layer_35">
	</g>
	<g id="Layer_37">
	</g>
	<g id="Layer_39">
	</g>
	<g id="Layer_41">
	</g>
	<g id="Layer_43">
	</g>
	<g id="Layer_46">
	</g>
	<g id="Layer_45">
	</g>
	<g id="Layer_49">
	</g>
	<g id="Layer_51_copy">
	</g>
	<g id="Layer_53">
	</g>
	<g id="Layer_55">
	</g>
	<g id="Layer_57">
	</g>
	<g id="Layer_59">
	</g>
	<g id="Layer_61">
	</g>
	<g id="Layer_63">
	</g>
	<g id="Layer_64">
	</g>
	<g id="Layer_66_copy">
	</g>
</g>
</svg>
