<?xml version="1.0" encoding="utf-8"?>
<!-- Generator: Adobe Illustrator 16.0.4, SVG Export Plug-In . SVG Version: 6.00 Build 0)  -->
<!DOCTYPE svg PUBLIC "-//W3C//DTD SVG 1.1//EN" "http://www.w3.org/Graphics/SVG/1.1/DTD/svg11.dtd">
<svg version="1.1" xmlns="http://www.w3.org/2000/svg" xmlns:xlink="http://www.w3.org/1999/xlink" x="0px" y="0px" width="512px"
	 height="512px" viewBox="0 0 512 512" enable-background="new 0 0 512 512" xml:space="preserve">
<g id="grids" display="none">
	<g id="svgGrid_2_" display="inline">
		<line fill="none" stroke="#B35047" x1="32" y1="0" x2="32" y2="512"/>
		<line fill="none" stroke="#B35047" x1="64" y1="0" x2="64" y2="512"/>
		<line fill="none" stroke="#B35047" x1="96" y1="0" x2="96" y2="512"/>
		<line fill="none" stroke="#B35047" x1="128" y1="0" x2="128" y2="512"/>
		<line fill="none" stroke="#B35047" x1="160" y1="0" x2="160" y2="512"/>
		<line fill="none" stroke="#B35047" x1="192" y1="0" x2="192" y2="512"/>
		<line fill="none" stroke="#B35047" x1="224" y1="0" x2="224" y2="512"/>
		<line fill="none" stroke="#B35047" x1="256" y1="0" x2="256" y2="512"/>
		<line fill="none" stroke="#B35047" x1="288" y1="0" x2="288" y2="512"/>
		<line fill="none" stroke="#B35047" x1="320" y1="0" x2="320" y2="512"/>
		<line fill="none" stroke="#B35047" x1="352" y1="0" x2="352" y2="512"/>
		<line fill="none" stroke="#B35047" x1="384" y1="0" x2="384" y2="512"/>
		<line fill="none" stroke="#B35047" x1="416" y1="0" x2="416" y2="512"/>
		<line fill="none" stroke="#B35047" x1="448" y1="0" x2="448" y2="512"/>
		<line fill="none" stroke="#B35047" x1="480" y1="0" x2="480" y2="512"/>
		<line fill="none" stroke="#B35047" x1="0" y1="32" x2="512" y2="32"/>
		<line fill="none" stroke="#B35047" x1="0" y1="64" x2="512" y2="64"/>
		<line fill="none" stroke="#B35047" x1="0" y1="96" x2="512" y2="96"/>
		<line fill="none" stroke="#B35047" x1="0" y1="128" x2="512" y2="128"/>
		<line fill="none" stroke="#B35047" x1="0" y1="160" x2="512" y2="160"/>
		<line fill="none" stroke="#B35047" x1="0" y1="192" x2="512" y2="192"/>
		<line fill="none" stroke="#B35047" x1="0" y1="224" x2="512" y2="224"/>
		<line fill="none" stroke="#B35047" x1="0" y1="256" x2="512" y2="256"/>
		<line fill="none" stroke="#B35047" x1="0" y1="288" x2="512" y2="288"/>
		<line fill="none" stroke="#B35047" x1="0" y1="320" x2="512" y2="320"/>
		<line fill="none" stroke="#B35047" x1="0" y1="352" x2="512" y2="352"/>
		<line fill="none" stroke="#B35047" x1="0" y1="384" x2="512" y2="384"/>
		<line fill="none" stroke="#B35047" x1="0" y1="416" x2="512" y2="416"/>
		<line fill="none" stroke="#B35047" x1="0" y1="448" x2="512" y2="448"/>
		<line fill="none" stroke="#B35047" x1="0" y1="480" x2="512" y2="480"/>
		<rect fill="none" stroke="#B35047" width="512" height="512"/>
	</g>
</g>
<g id="b_x26_w" display="none">
	<g id="Layer_9" display="inline">
	</g>
	<g id="Layer_6_copy" display="inline">
		<path d="M440.8,212.1c0,0,25.4-3.9,30.1-27.8c4.6-23.9-11.6-43-40.9-56.3c-42.4-19.3-93.3-37.8-200.4-61.7c-57.9-12.9-74-17-74-17
			L41.4,171.2l97.9-3.1c0,0-32.4,49.3-27,130.3c5.4,80.9,39.8,121.4,67.1,139.5c18.5,12.3,43.9,17.7,43.9,17.7s-13.1-18.5-9.3-41.6
			c3.9-23.1,13.1-35.5,20-47.8c6.9-12.3,51.7-100.2,51.7-100.2s16.2,0,23.1,0.8c6.9,0.8,11.6,3.9,11.6,7.7c0,3.9-4.6,9.2-4.6,9.2
			s23.1,1.5,53.2-10c30.1-11.6,40.1-30.8,40.1-30.8s-13.1-16.2-28.5-28.5c-15.4-12.3-27.8-20-27.8-20h67.8c0,0,13.1,0,17.7,3.9
			C443.1,202.1,440.8,212.1,440.8,212.1L440.8,212.1z"/>
		<path fill="#FFFFFF" d="M448.1,202.5c0,0,14.6-4.6,16.6-19.7c1.9-15-6.6-25.8-11.2-30.5c-4.6-4.6-25.1-19.3-60.9-32
			c-29.5-10.5-74.4-22.4-155-40.5c-52.3-11.8-74.4-13.5-74.4-13.5l-84,90.6l86.7-0.4c0,0-35.9,44-38.9,131.1
			c-4.6,131.1,84,158.8,84,158.8s-8.5-15.4-6.2-33.1c2.3-17.7,10-31.6,18.5-47c8.5-15.4,54.7-107.2,54.7-107.2h32.4
			c5.8,0,13.9,3.1,17,7.3c3.1,4.2,1.5,7.7,1.5,7.7s22.4,1.6,37.4-5c22-9.6,33.5-24.3,33.5-24.3s-15.4-18.5-38.2-32.8
			c-22.7-14.3-42-23.9-42-23.9h107.5c0,0,13.1,0,17,3.5C448.1,195.1,448.1,202.5,448.1,202.5L448.1,202.5z"/>
		<path fill="#161413" d="M452.7,192.8c0,0,6.9-3.8,6.9-15.4c0-8.9-8.5-19.3-15.4-24.3c-6.9-5-22-14.3-46.6-22.4
			c-24.7-8.1-76.7-20.8-121.4-30.1c-44.7-9.3-117.6-21.2-117.6-21.2l6.6,9.6L117,140.8l171.1,13.5l-1.5,1.9H172.1l8.5,8.5
			l-18.5,32.8l96.4-20l-2.7,2.7l-112.6,38.2l9.6,6.2c0,0-3.5,6.6-5.8,20.4c-2.3,13.9-3.9,27-3.9,27l96.4-59l-0.4,2.3L132.8,300
			l10,2.7c0,0,0.4,18.1,2.3,28.9c1.9,10.8,5,23.1,5,23.1l87.1-102.5v3.5l-86,126.4h8.5c0,0,4.6,13.5,15.4,27.4
			c10.8,13.9,26.6,25.1,26.6,25.1s-5.9-12.1-3.5-32.4c1.5-13.1,14.6-34.7,20.8-47c6.2-12.3,84.8-167.7,84.8-167.7l-15-8.1H435
			c0,0,8.9,1.2,13.1,4.6C452.3,187.4,452.7,192.8,452.7,192.8L452.7,192.8z"/>
		<path fill="#FFFFFF" d="M453.9,183.2c0,0,1.9-7.3-1.5-13.5c-3.5-6.2-11.2-10.4-11.2-10.4l1.5,7.7l-40.1,5l-1.5,2.3H440
			c0,0,4,0.2,8.5,2.9C452.2,179.5,453.9,183.2,453.9,183.2L453.9,183.2z"/>
		<path fill="#FFFFFF" d="M435,162.8c0,0-4.2-5.8-11.2-10c-6.9-4.2-19.3-10-19.3-10s8.5,7.1,12.7,12.1c4.2,5,5.4,7.5,5.4,7.5
			L435,162.8z"/>
		<path fill="#161413" d="M309.3,190.5c0,0,34.1,16.8,52.4,29.1c18.3,12.3,30.8,25.6,30.8,25.6s-3.9,5.8-13.1,11.8
			c-9.2,6-18.9,7.5-18.9,7.5s7.3-6.5,7.9-9.8c0.6-3.3-0.8-4-2.7-4h-21.2c0,0-3.5,2.5-3.3,7.7c0.2,5.2,2.7,8.5,2.7,8.5
			s-6.7-1-11.6-6.6c-4.8-5.6-4.8-9.6-4.8-9.6h-43.9l27.6-54.2L309.3,190.5L309.3,190.5z"/>
		<g>
			<path fill="#FFFFFF" d="M389.1,150c0,0-51.4-13.9-111-25.4c-59.7-11.6-103.7-18.5-103.7-18.5l-13.5,15.8l227.8,30.8L389.1,150
				L389.1,150z"/>
			<path fill="#FFFFFF" d="M250.7,167.4l-61.7,1.2l-7.9,13.9l68.8-13.1L250.7,167.4z"/>
			<path fill="#FFFFFF" d="M229.7,203.4l-66.9,24.1l-4.4,17.7l70.2-39.1L229.7,203.4L229.7,203.4z"/>
			<path fill="#FFFFFF" d="M220.3,248.5l-65,54.9c0,0,0.2,7.1,0.8,10.6c0.6,3.5,1.5,7.7,1.5,7.7l62.8-70.2L220.3,248.5L220.3,248.5z
				"/>
			<path fill="#FFFFFF" d="M232,292.7c0,0-18.7,27.6-31.4,47c-12.7,19.5-25.2,38.2-25.2,38.2s2.9,5.8,4.8,8.9c1.9,3.1,5,6.9,5,6.9
				l48.2-99.3L232,292.7z"/>
			<path fill="#FFFFFF" d="M304.7,233.5l49.1,7.5l-1.2,2.3h-53.4L304.7,233.5L304.7,233.5z"/>
		</g>
	</g>
	<g id="Layer_7_copy" display="inline">
	</g>
	<g id="Layer_11_copy" display="inline">
	</g>
	<g id="Layer_13_copy" display="inline">
	</g>
	<g id="Layer_15_copy" display="inline">
	</g>
	<g id="Layer_17_copy" display="inline">
	</g>
	<g id="Layer_19_copy" display="inline">
	</g>
	<g id="Layer_21_copy" display="inline">
	</g>
	<g id="Layer_23_copy" display="inline">
	</g>
	<g id="Layer_25_copy" display="inline">
	</g>
	<g id="Layer_27" display="inline">
	</g>
	<g id="Layer_29_copy_2" display="inline">
	</g>
	<g id="Layer_31" display="inline">
	</g>
	<g id="Layer_33_copy" display="inline">
	</g>
	<g id="Layer_35_copy" display="inline">
	</g>
	<g id="Layer_37_copy" display="inline">
	</g>
	<g id="Layer_39_copy" display="inline">
	</g>
	<g id="Layer_41_copy" display="inline">
	</g>
	<g id="Layer_43_copy" display="inline">
	</g>
	<g id="Layer_48" display="inline">
	</g>
	<g id="Layer_45_copy" display="inline">
	</g>
	<g id="Layer_49_copy_2" display="inline">
	</g>
	<g id="Layer_51" display="inline">
	</g>
	<g id="Layer_53_copy" display="inline">
	</g>
	<g id="Layer_55_copy" display="inline">
	</g>
	<g id="Layer_57_copy" display="inline">
	</g>
	<g id="Layer_59_copy" display="inline">
	</g>
	<g id="Layer_61_copy" display="inline">
	</g>
	<g id="Layer_63_copy" display="inline">
	</g>
	<g id="Layer_64_copy" display="inline">
	</g>
	<g id="Layer_66_copy_2" display="inline">
	</g>
</g>
<g id="color">
	<g id="Layer_5">
	</g>
	<g id="Layer_6">
		<g>
			<path fill="#DCE0E5" d="M440.8,212.1c0,0,25.4-3.9,30.1-27.8c4.6-23.9-11.6-43-40.9-56.3c-42.4-19.3-93.3-37.8-200.4-61.7
				c-57.9-12.9-74-17-74-17L41.4,171.2l97.9-3.1c0,0-32.4,49.3-27,130.3c5.4,80.9,39.8,121.4,67.1,139.5
				c18.5,12.3,43.9,17.7,43.9,17.7s-13.1-18.5-9.3-41.6c3.9-23.1,13.1-35.5,20-47.8c6.9-12.3,51.7-100.2,51.7-100.2s16.2,0,23.1,0.8
				c6.9,0.8,11.6,3.9,11.6,7.7c0,3.9-4.6,9.2-4.6,9.2s23.1,1.5,53.2-10c30.1-11.6,40.1-30.8,40.1-30.8s-13.1-16.2-28.5-28.5
				c-15.4-12.3-27.8-20-27.8-20h67.8c0,0,13.1,0,17.7,3.9C443.1,202.1,440.8,212.1,440.8,212.1L440.8,212.1z"/>
			<path fill="#FFFFFF" d="M448.1,202.5c0,0,14.6-4.6,16.6-19.7c1.9-15-6.6-25.8-11.2-30.5c-4.6-4.6-25.1-19.3-60.9-32
				c-29.5-10.5-74.4-22.4-155-40.5c-52.3-11.8-74.4-13.5-74.4-13.5l-84,90.6l86.7-0.4c0,0-35.9,44-38.9,131.1
				c-4.6,131.1,84,158.8,84,158.8s-8.5-15.4-6.2-33.1c2.3-17.7,10-31.6,18.5-47c8.5-15.4,54.7-107.2,54.7-107.2h32.4
				c5.8,0,13.9,3.1,17,7.3c3.1,4.2,1.5,7.7,1.5,7.7s22.4,1.6,37.4-5c22-9.6,33.5-24.3,33.5-24.3s-15.4-18.5-38.2-32.8
				c-22.7-14.3-42-23.9-42-23.9h107.5c0,0,13.1,0,17,3.5C448.1,195.1,448.1,202.5,448.1,202.5L448.1,202.5z"/>
			<path fill="#161413" d="M452.7,192.8c0,0,6.9-3.8,6.9-15.4c0-8.9-8.5-19.3-15.4-24.3c-6.9-5-22-14.3-46.6-22.4
				c-24.7-8.1-76.7-20.8-121.4-30.1c-44.7-9.3-117.6-21.2-117.6-21.2l6.6,9.6L117,140.8l171.1,13.5l-1.5,1.9H172.1l8.5,8.5
				l-18.5,32.8l96.4-20l-2.7,2.7l-112.6,38.2l9.6,6.2c0,0-3.5,6.6-5.8,20.4c-2.3,13.9-3.9,27-3.9,27l96.4-59l-0.4,2.3L132.8,300
				l10,2.7c0,0,0.4,18.1,2.3,28.9c1.9,10.8,5,23.1,5,23.1l87.1-102.5v3.5l-86,126.4h8.5c0,0,4.6,13.5,15.4,27.4
				c10.8,13.9,26.6,25.1,26.6,25.1s-5.9-12.1-3.5-32.4c1.5-13.1,14.6-34.7,20.8-47c6.2-12.3,84.8-167.7,84.8-167.7l-15-8.1H435
				c0,0,8.9,1.2,13.1,4.6C452.3,187.4,452.7,192.8,452.7,192.8L452.7,192.8z"/>
			<path fill="#FFFFFF" d="M453.9,183.2c0,0,1.9-7.3-1.5-13.5c-3.5-6.2-11.2-10.4-11.2-10.4l1.5,7.7l-40.1,5l-1.5,2.3H440
				c0,0,4,0.2,8.5,2.9C452.2,179.5,453.9,183.2,453.9,183.2L453.9,183.2z"/>
			<path fill="#FFFFFF" d="M435,162.8c0,0-4.2-5.8-11.2-10c-6.9-4.2-19.3-10-19.3-10s8.5,7.1,12.7,12.1c4.2,5,5.4,7.5,5.4,7.5
				L435,162.8z"/>
			<path fill="#B01742" d="M389.1,150c0,0-51.4-13.9-111-25.4c-59.7-11.6-103.7-18.5-103.7-18.5l-13.5,15.8l227.8,30.8L389.1,150
				L389.1,150z"/>
			<path fill="#B01742" d="M250.7,167.4l-61.7,1.2l-7.9,13.9l68.8-13.1L250.7,167.4z"/>
			<path fill="#B01742" d="M229.7,203.4l-66.9,24.1l-4.4,17.7l70.2-39.1L229.7,203.4L229.7,203.4z"/>
			<path fill="#B01742" d="M220.3,248.5l-65,54.9c0,0,0.2,7.1,0.8,10.6c0.6,3.5,1.5,7.7,1.5,7.7l62.8-70.2L220.3,248.5L220.3,248.5z
				"/>
			<path fill="#B01742" d="M232,292.7c0,0-18.7,27.6-31.4,47c-12.7,19.5-25.2,38.2-25.2,38.2s2.9,5.8,4.8,8.9c1.9,3.1,5,6.9,5,6.9
				l48.2-99.3L232,292.7z"/>
			<path fill="#161413" d="M309.3,190.5c0,0,34.1,16.8,52.4,29.1c18.3,12.3,30.8,25.6,30.8,25.6s-3.9,5.8-13.1,11.8
				c-9.2,6-18.9,7.5-18.9,7.5s7.3-6.5,7.9-9.8c0.6-3.3-0.8-4-2.7-4h-21.2c0,0-3.5,2.5-3.3,7.7c0.2,5.2,2.7,8.5,2.7,8.5
				s-6.7-1-11.6-6.6c-4.8-5.6-4.8-9.6-4.8-9.6h-43.9l27.6-54.2L309.3,190.5L309.3,190.5z"/>
			<path fill="#B01742" d="M304.7,233.5l49.1,7.5l-1.2,2.3h-53.4L304.7,233.5L304.7,233.5z"/>
		</g>
	</g>
	<g id="Layer_7">
	</g>
	<g id="Layer_11">
	</g>
	<g id="Layer_13">
	</g>
	<g id="Layer_15">
	</g>
	<g id="Layer_17">
	</g>
	<g id="Layer_19">
	</g>
	<g id="Layer_21">
	</g>
	<g id="Layer_23">
	</g>
	<g id="Layer_25">
	</g>
	<g id="Layer_27_copy">
	</g>
	<g id="Layer_31_copy_2">
	</g>
	<g id="Layer_29">
	</g>
	<g id="Layer_33">
	</g>
	<g id="Layer_35">
	</g>
	<g id="Layer_37">
	</g>
	<g id="Layer_39">
	</g>
	<g id="Layer_41">
	</g>
	<g id="Layer_43">
	</g>
	<g id="Layer_46">
	</g>
	<g id="Layer_45">
	</g>
	<g id="Layer_49">
	</g>
	<g id="Layer_51_copy">
	</g>
	<g id="Layer_53">
	</g>
	<g id="Layer_55">
	</g>
	<g id="Layer_57">
	</g>
	<g id="Layer_59">
	</g>
	<g id="Layer_61">
	</g>
	<g id="Layer_63">
	</g>
	<g id="Layer_64">
	</g>
	<g id="Layer_66_copy">
	</g>
</g>
</svg>
