<?xml version="1.0" encoding="utf-8"?>
<!-- Generator: Adobe Illustrator 16.0.4, SVG Export Plug-In . SVG Version: 6.00 Build 0)  -->
<!DOCTYPE svg PUBLIC "-//W3C//DTD SVG 1.1//EN" "http://www.w3.org/Graphics/SVG/1.1/DTD/svg11.dtd">
<svg version="1.1" xmlns="http://www.w3.org/2000/svg" xmlns:xlink="http://www.w3.org/1999/xlink" x="0px" y="0px" width="512px"
	 height="512px" viewBox="0 0 512 512" enable-background="new 0 0 512 512" xml:space="preserve">
<g id="grids" display="none">
	<g id="svgGrid_29_" display="inline">
		<line fill="none" stroke="#B35047" x1="32" y1="0" x2="32" y2="512"/>
		<line fill="none" stroke="#B35047" x1="64" y1="0" x2="64" y2="512"/>
		<line fill="none" stroke="#B35047" x1="96" y1="0" x2="96" y2="512"/>
		<line fill="none" stroke="#B35047" x1="128" y1="0" x2="128" y2="512"/>
		<line fill="none" stroke="#B35047" x1="160" y1="0" x2="160" y2="512"/>
		<line fill="none" stroke="#B35047" x1="192" y1="0" x2="192" y2="512"/>
		<line fill="none" stroke="#B35047" x1="224" y1="0" x2="224" y2="512"/>
		<line fill="none" stroke="#B35047" x1="256" y1="0" x2="256" y2="512"/>
		<line fill="none" stroke="#B35047" x1="288" y1="0" x2="288" y2="512"/>
		<line fill="none" stroke="#B35047" x1="320" y1="0" x2="320" y2="512"/>
		<line fill="none" stroke="#B35047" x1="352" y1="0" x2="352" y2="512"/>
		<line fill="none" stroke="#B35047" x1="384" y1="0" x2="384" y2="512"/>
		<line fill="none" stroke="#B35047" x1="416" y1="0" x2="416" y2="512"/>
		<line fill="none" stroke="#B35047" x1="448" y1="0" x2="448" y2="512"/>
		<line fill="none" stroke="#B35047" x1="480" y1="0" x2="480" y2="512"/>
		<line fill="none" stroke="#B35047" x1="0" y1="32" x2="512" y2="32"/>
		<line fill="none" stroke="#B35047" x1="0" y1="64" x2="512" y2="64"/>
		<line fill="none" stroke="#B35047" x1="0" y1="96" x2="512" y2="96"/>
		<line fill="none" stroke="#B35047" x1="0" y1="128" x2="512" y2="128"/>
		<line fill="none" stroke="#B35047" x1="0" y1="160" x2="512" y2="160"/>
		<line fill="none" stroke="#B35047" x1="0" y1="192" x2="512" y2="192"/>
		<line fill="none" stroke="#B35047" x1="0" y1="224" x2="512" y2="224"/>
		<line fill="none" stroke="#B35047" x1="0" y1="256" x2="512" y2="256"/>
		<line fill="none" stroke="#B35047" x1="0" y1="288" x2="512" y2="288"/>
		<line fill="none" stroke="#B35047" x1="0" y1="320" x2="512" y2="320"/>
		<line fill="none" stroke="#B35047" x1="0" y1="352" x2="512" y2="352"/>
		<line fill="none" stroke="#B35047" x1="0" y1="384" x2="512" y2="384"/>
		<line fill="none" stroke="#B35047" x1="0" y1="416" x2="512" y2="416"/>
		<line fill="none" stroke="#B35047" x1="0" y1="448" x2="512" y2="448"/>
		<line fill="none" stroke="#B35047" x1="0" y1="480" x2="512" y2="480"/>
		<rect fill="none" stroke="#B35047" width="512" height="512"/>
	</g>
</g>
<g id="b_x26_w" display="none">
	<g id="Layer_9" display="inline">
	</g>
	<g id="Layer_6_copy" display="inline">
	</g>
	<g id="Layer_7_copy" display="inline">
	</g>
	<g id="Layer_11_copy" display="inline">
	</g>
	<g id="Layer_13_copy" display="inline">
	</g>
	<g id="Layer_15_copy" display="inline">
	</g>
	<g id="Layer_17_copy" display="inline">
	</g>
	<g id="Layer_19_copy" display="inline">
	</g>
	<g id="Layer_21_copy" display="inline">
	</g>
	<g id="Layer_23_copy" display="inline">
	</g>
	<g id="Layer_25_copy" display="inline">
	</g>
	<g id="Layer_27" display="inline">
	</g>
	<g id="Layer_29_copy_2" display="inline">
	</g>
	<g id="Layer_31" display="inline">
	</g>
	<g id="Layer_33_copy" display="inline">
	</g>
	<g id="Layer_35_copy" display="inline">
	</g>
	<g id="Layer_37_copy" display="inline">
	</g>
	<g id="Layer_39_copy" display="inline">
	</g>
	<g id="Layer_41_copy" display="inline">
	</g>
	<g id="Layer_43_copy" display="inline">
	</g>
	<g id="Layer_48" display="inline">
	</g>
	<g id="Layer_45_copy" display="inline">
	</g>
	<g id="Layer_49_copy_2" display="inline">
	</g>
	<g id="Layer_51" display="inline">
	</g>
	<g id="Layer_53_copy" display="inline">
	</g>
	<g id="Layer_55_copy" display="inline">
	</g>
	<g id="Layer_57_copy" display="inline">
	</g>
	<g id="Layer_59_copy" display="inline">
	</g>
	<g id="Layer_61_copy" display="inline">
		<path fill="#FFFFFF" d="M354.8,194.7c0,7.9-3.2,12.8-3.2,12.8c-3.5-12.9-21.7-30-21.7-30c3.2,4,2.2,12.1,2.2,12.1
			c-1.2-1-10.1-6.9-10.1-6.9c-17.7-12.6-46.8-25.8-91.5-25.8c-112.9,0-160.6,72.6-162.6,75.7c0,0-11,15.8-13.9,24.6l24.1-14.4
			c0.2-0.1,20-12.2,50.7-12.2c2.4,0,8.1,0.3,9.3,2.9c3,6.2-6.4,25.1-17.1,38.8l-23,29.5l32.5-18.6c0.1-0.1,13.1-7.4,34.7-7.4
			c4.3,0,6.2,0.7,6.8,1c-0.1,1.2-1.2,3.7-2.4,5.4l-15.9,21.5l24.7-10.3c0.2-0.1,15.3-6.3,37-6.3c12.7,0,21.5,2.5,23.9,6.8
			c2.3,4-0.5,10.5-1.7,12.5l-5.1,8.5l9.6,2.4c1.1,0.3,2.5,0.6,8-0.5c0,0.8-0.1,1.6-0.1,2.3c0,12.5,6,22,6.4,22.6L266,357l3.7-17.5
			c3.3-15.5,15.7-22.2,23.4-25l2.2,8.3l7.7-3.1c6.9-2.8,18.3-11.1,22.5-14.2c3.4-0.6,12.2-2,23-2c6.4,0,13.8,0.6,21.7,1.2
			c9.9,0.8,21.2,1.7,33.3,1.7c17.3,0,33.2-3,39.8-4.4c1.6,1.1,14.1,9.4,14.1,9.4l0.6-13c0.1-1.1,0.1-2.2,0.1-3.3
			c0-27.2-16.8-44.5-35.1-54.4l1.1-0.1l-19.7-12.3c-2.7-1.7-8.1-3-13.4-4l1-2l-8.8-2.3c-8.6-2.3-16-2.6-21.6-2.2
			C364.4,204,354.8,194.7,354.8,194.7L354.8,194.7z"/>
		<path d="M74.2,236.7c0,0,46.2-72.3,156.4-72.3c81.1,0,108.2,45.2,108.2,45.2s1.5-6.9-0.5-10.3c0,0,9.3,9.8,9.8,21.6
			c0,0,5.4-5.4,5.4-7.4c0,0,2.5,8.4,0,13.3c0,0,11.3-3.9,28,0.5l-1.5,3c0,0,16.7,2,20.7,4.4c0,0-9.3,0.5-9.3,3c0,0,62,9.3,59.5,60.5
			l-5.9-3.9c0,0-19.7,4.9-41.3,4.9c-21.6,0-40.3-2.9-55.1-2.9s-26.1,2.5-26.1,2.5s-14.8,11.3-22.1,14.3l-2-7.4c0,0-30,4.4-35.9,32.5
			c0,0-9.8-15.2-2.5-31c0,0-14.3,3.9-16.2,3.4c0,0,18.7-30.5-28.5-30.5c-23.6,0-39.8,6.9-39.8,6.9s13.8-18.2-10.3-18.2l-38.4,8.4
			c0,0,41.8-53.6,2-53.6C95.3,223.4,74.2,236.7,74.2,236.7z"/>
		<path fill="#FFFFFF" d="M321,242.6c0,0-32.4-5.9-46.5,2.2c0,0,36.1,0,50.2,8.1c0,0-64.2-8.9-90.7,12.5c0,0,39.1-9.6,69.3-6.6
			c0,0-11.1,4.4,0.7,11.8c11.8,7.4,19.2,8.8,16.2,21.4l6.1-9.1l6.9,6.9c0,0,17.7-1.5,30,0c12.3,1.5,29,3,38.4,3
			c9.3,0,34.9-3.4,34.9-3.4s-53.6-21.1-101.8-21.1c-5.4,0-11.3,1-7.9,6.9c0,0-16.7-8.2-16.7-12.7s12.8-2.1,12.8-2.1
			c5.9,0,112.1,10.8,122.9,30c0,0,0-43.8-88-52.6l9.8,8.4l-15.7-1.5l9.3,8.4C361.3,252.9,336.7,244.5,321,242.6L321,242.6z"/>
		<path d="M99,220.4c0,0,48.7-48.7,131.3-48.7c72.3,0,103.3,40.6,103.3,40.6s13.3,19.9,5.9,27.3s-8.8-18.4-27.3-24.3l15.5,5.2
			c0,0-17-22.1-45.7-17c0,0,16.2,3.7,20.6,8.8c0,0-36.1,3.7-37.6,6.6c0,0,28,5.9,29.5,10.3c0,0-26.5,0.7-33.9,7.4
			c0,0,49.4,2.2,60.5,5.9c0,0-32.5-5.9-46.5,2.2c0,0,36.1,0,50.1,8.1c0,0-64.2-8.9-90.7,12.5c0,0,39.1-9.6,69.3-6.6
			c0,0-11.1,4.4,0.7,11.8s19.2,8.8,16.2,21.4c0,0-5.9,8.9-14.8,12.5l-0.7-10.3c0,0-28,2.2-40.6,28c0,0,2.2-21.4,8.1-26.5l-16.2,5.2
			c0,0,16.2-26.5-24.3-28.8l-42.8,4.4c0,0,5.2-19.9-40.6-11.8C148.4,264.7,191.9,193.1,99,220.4L99,220.4z"/>
		<path fill="#FFFFFF" d="M264.7,189.6c-4.5-6.6-15.5-9.7-33.7-9.7c-51.4,0-80.5,14.6-81.7,15.2L129.6,206l22.8-2.6
			c0.4-0.1,32.3-7.1,57.6-7.7c-34.1,4.3-46.2,60.5-46.7,63l-1.2,5.6l52.8-2.6l1.3-1.7c2.2-2.4,17.5-9.5,30.5-14.7l1.6-0.7l4.7-10.3
			l0.1-0.6c0.1-0.5,0.1-1.1,0.1-1.6c0-2.8-1-5.3-2.9-7.5c-2.4-2.7-6.1-4.6-10.1-6c19.9-4.9,25.6-18.6,25.8-19.2
			C266.3,198.7,267.9,194.3,264.7,189.6L264.7,189.6z M198.3,249.6c2.7-7.3,8.4-20.1,9.8-23.9c2.8,0,17.1-0.8,17.1,7.6
			C225.2,237.1,218.7,249.7,198.3,249.6z M212.7,214.9c2.6-5.2,7.3-17.4,8.4-19.5c3.4,0.5,16.4,1.8,15.6,7.4c-1,6.9-8.1,12.2-9.8,13
			L212.7,214.9z"/>
		<path d="M219.9,219.7l-13.2-0.7l8-19.2c-34.7-0.7-47.2,59.7-47.2,59.7l45-2.2c2.9-4.4,32.4-16.2,32.4-16.2l3.7-8.1
			C250.4,220.2,219.9,219.7,219.9,219.7z M229.5,235.2c-7.1,19.1-33.2,19.2-37.6,19.2l14.2-33.1C206.1,221.2,235.1,220,229.5,235.2
			L229.5,235.2z M231,184.3c-50.9,0-79.7,14.8-79.7,14.8s46.5-10.3,73-7.4c34.6,3.8,8.9,23.6,8.9,23.6c22.9-3,28.8-17.7,28.8-17.7
			S267.1,184.3,231,184.3z"/>
		<ellipse fill="#FFFFFF" cx="309.2" cy="227.5" rx="8.4" ry="7.7"/>
		<ellipse fill="#FFFFFF" cx="310.9" cy="228.8" rx="7.6" ry="7.9"/>
		<ellipse fill="#FFFFFF" stroke="#000000" cx="312.4" cy="229.3" rx="6.1" ry="5.9"/>
		<ellipse cx="313.8" cy="229" rx="5.2" ry="5.7"/>
	</g>
	<g id="Layer_63_copy" display="inline">
	</g>
	<g id="Layer_64_copy" display="inline">
	</g>
	<g id="Layer_66_copy_2" display="inline">
	</g>
</g>
<g id="color">
	<g id="Layer_5">
	</g>
	<g id="Layer_6">
	</g>
	<g id="Layer_7">
	</g>
	<g id="Layer_11">
	</g>
	<g id="Layer_13">
	</g>
	<g id="Layer_15">
	</g>
	<g id="Layer_17">
	</g>
	<g id="Layer_19">
	</g>
	<g id="Layer_21">
	</g>
	<g id="Layer_23">
	</g>
	<g id="Layer_25">
	</g>
	<g id="Layer_27_copy">
	</g>
	<g id="Layer_31_copy_2">
	</g>
	<g id="Layer_29">
	</g>
	<g id="Layer_33">
	</g>
	<g id="Layer_35">
	</g>
	<g id="Layer_37">
	</g>
	<g id="Layer_39">
	</g>
	<g id="Layer_41">
	</g>
	<g id="Layer_43">
	</g>
	<g id="Layer_46">
	</g>
	<g id="Layer_45">
	</g>
	<g id="Layer_49">
	</g>
	<g id="Layer_51_copy">
	</g>
	<g id="Layer_53">
	</g>
	<g id="Layer_55">
	</g>
	<g id="Layer_57">
	</g>
	<g id="Layer_59">
	</g>
	<g id="Layer_61">
		<path fill="#D1B336" d="M354.8,194.7c0,7.9-3.2,12.8-3.2,12.8c-3.5-12.9-21.7-30-21.7-30c3.2,4,2.2,12.1,2.2,12.1
			c-1.2-1-10.1-6.9-10.1-6.9c-17.7-12.6-46.8-25.8-91.5-25.8c-112.9,0-160.6,72.6-162.6,75.7c0,0-11,15.8-13.9,24.6l24.1-14.4
			c0.2-0.1,20-12.2,50.7-12.2c2.4,0,8.1,0.3,9.3,2.9c3,6.2-6.4,25.1-17.1,38.8l-23,29.5l32.5-18.6c0.1-0.1,13.1-7.4,34.7-7.4
			c4.3,0,6.2,0.7,6.8,1c-0.1,1.2-1.2,3.7-2.4,5.4l-15.9,21.5l24.7-10.3c0.2-0.1,15.3-6.3,37-6.3c12.7,0,21.5,2.5,23.9,6.8
			c2.3,4-0.5,10.5-1.7,12.5l-5.1,8.5l9.6,2.4c1.1,0.3,2.5,0.6,8-0.5c0,0.8-0.1,1.6-0.1,2.3c0,12.5,6,22,6.4,22.6L266,357l3.7-17.5
			c3.3-15.5,15.7-22.2,23.4-25l2.2,8.3l7.7-3.1c6.9-2.8,18.3-11.1,22.5-14.2c3.4-0.6,12.2-2,23-2c6.4,0,13.8,0.6,21.7,1.2
			c9.9,0.8,21.2,1.7,33.3,1.7c17.3,0,33.2-3,39.8-4.4c1.6,1.1,14.1,9.4,14.1,9.4l0.6-13c0.1-1.1,0.1-2.2,0.1-3.3
			c0-27.2-16.8-44.5-35.1-54.4l1.1-0.1l-19.7-12.3c-2.7-1.7-8.1-3-13.4-4l1-2l-8.8-2.3c-8.6-2.3-16-2.6-21.6-2.2
			C364.4,204,354.8,194.7,354.8,194.7L354.8,194.7z"/>
		<path d="M74.2,236.7c0,0,46.2-72.3,156.4-72.3c81.1,0,108.2,45.2,108.2,45.2s1.5-6.9-0.5-10.3c0,0,9.3,9.8,9.8,21.6
			c0,0,5.4-5.4,5.4-7.4c0,0,2.5,8.4,0,13.3c0,0,11.3-3.9,28,0.5l-1.5,3c0,0,16.7,2,20.7,4.4c0,0-9.3,0.5-9.3,3c0,0,62,9.3,59.5,60.5
			l-5.9-3.9c0,0-19.7,4.9-41.3,4.9c-21.6,0-40.3-2.9-55.1-2.9s-26.1,2.5-26.1,2.5s-14.8,11.3-22.1,14.3l-2-7.4c0,0-30,4.4-35.9,32.5
			c0,0-9.8-15.2-2.5-31c0,0-14.3,3.9-16.2,3.4c0,0,18.7-30.5-28.5-30.5c-23.6,0-39.8,6.9-39.8,6.9s13.8-18.2-10.3-18.2l-38.4,8.4
			c0,0,41.8-53.6,2-53.6C95.3,223.4,74.2,236.7,74.2,236.7z"/>
		<path fill="#FFFFFF" d="M321,242.6c0,0-32.4-5.9-46.5,2.2c0,0,36.1,0,50.2,8.1c0,0-64.2-8.9-90.7,12.5c0,0,39.1-9.6,69.3-6.6
			c0,0-11.1,4.4,0.7,11.8c11.8,7.4,19.2,8.8,16.2,21.4l6.1-9.1l6.9,6.9c0,0,17.7-1.5,30,0c12.3,1.5,29,3,38.4,3
			c9.3,0,34.9-3.4,34.9-3.4s-53.6-21.1-101.8-21.1c-5.4,0-11.3,1-7.9,6.9c0,0-16.7-8.2-16.7-12.7s12.8-2.1,12.8-2.1
			c5.9,0,112.1,10.8,122.9,30c0,0,0-43.8-88-52.6l9.8,8.4l-15.7-1.5l9.3,8.4C361.3,252.9,336.7,244.5,321,242.6L321,242.6z"/>
		<path fill="#2D2062" d="M99,220.4c0,0,48.7-48.7,131.3-48.7c72.3,0,103.3,40.6,103.3,40.6s13.3,19.9,5.9,27.3s-8.8-18.4-27.3-24.3
			l15.5,5.2c0,0-17-22.1-45.7-17c0,0,16.2,3.7,20.6,8.8c0,0-36.1,3.7-37.6,6.6c0,0,28,5.9,29.5,10.3c0,0-26.5,0.7-33.9,7.4
			c0,0,49.4,2.2,60.5,5.9c0,0-32.5-5.9-46.5,2.2c0,0,36.1,0,50.1,8.1c0,0-64.2-8.9-90.7,12.5c0,0,39.1-9.6,69.3-6.6
			c0,0-11.1,4.4,0.7,11.8s19.2,8.8,16.2,21.4c0,0-5.9,8.9-14.8,12.5l-0.7-10.3c0,0-28,2.2-40.6,28c0,0,2.2-21.4,8.1-26.5l-16.2,5.2
			c0,0,16.2-26.5-24.3-28.8l-42.8,4.4c0,0,5.2-19.9-40.6-11.8C148.4,264.7,191.9,193.1,99,220.4L99,220.4z"/>
		<path fill="#FFFFFF" d="M264.7,189.6c-4.5-6.6-15.5-9.7-33.7-9.7c-51.4,0-80.5,14.6-81.7,15.2L129.6,206l22.8-2.6
			c0.4-0.1,32.3-7.1,57.6-7.7c-34.1,4.3-46.2,60.5-46.7,63l-1.2,5.6l52.8-2.6l1.3-1.7c2.2-2.4,17.5-9.5,30.5-14.7l1.6-0.7l4.7-10.3
			l0.1-0.6c0.1-0.5,0.1-1.1,0.1-1.6c0-2.8-1-5.3-2.9-7.5c-2.4-2.7-6.1-4.6-10.1-6c19.9-4.9,25.6-18.6,25.8-19.2
			C266.3,198.7,267.9,194.3,264.7,189.6L264.7,189.6z M198.3,249.6c2.7-7.3,8.4-20.1,9.8-23.9c2.8,0,17.1-0.8,17.1,7.6
			C225.2,237.1,218.7,249.7,198.3,249.6z M212.7,214.9c2.6-5.2,7.3-17.4,8.4-19.5c3.4,0.5,16.4,1.8,15.6,7.4c-1,6.9-8.1,12.2-9.8,13
			L212.7,214.9z"/>
		<path fill="#D1B336" d="M219.9,219.7l-13.2-0.7l8-19.2c-34.7-0.7-47.2,59.7-47.2,59.7l45-2.2c2.9-4.4,32.4-16.2,32.4-16.2l3.7-8.1
			C250.4,220.2,219.9,219.7,219.9,219.7z M229.5,235.2c-7.1,19.1-33.2,19.2-37.6,19.2l14.2-33.1C206.1,221.2,235.1,220,229.5,235.2
			L229.5,235.2z M231,184.3c-50.9,0-79.7,14.8-79.7,14.8s46.5-10.3,73-7.4c34.6,3.8,8.9,23.6,8.9,23.6c22.9-3,28.8-17.7,28.8-17.7
			S267.1,184.3,231,184.3z"/>
		<ellipse fill="#C6332C" cx="309.2" cy="227.5" rx="8.4" ry="7.7"/>
		<ellipse fill="#FFFFFF" cx="310.9" cy="228.8" rx="7.6" ry="7.9"/>
		<ellipse fill="#C6332C" cx="312.4" cy="229.3" rx="6.1" ry="5.9"/>
		<ellipse cx="313.8" cy="229" rx="5.2" ry="5.7"/>
	</g>
	<g id="Layer_63">
	</g>
	<g id="Layer_64">
	</g>
	<g id="Layer_66_copy">
	</g>
</g>
</svg>
