<?xml version="1.0" encoding="utf-8"?>
<!-- Generator: Adobe Illustrator 16.0.4, SVG Export Plug-In . SVG Version: 6.00 Build 0)  -->
<!DOCTYPE svg PUBLIC "-//W3C//DTD SVG 1.1//EN" "http://www.w3.org/Graphics/SVG/1.1/DTD/svg11.dtd">
<svg version="1.1" xmlns="http://www.w3.org/2000/svg" xmlns:xlink="http://www.w3.org/1999/xlink" x="0px" y="0px" width="512px"
	 height="512px" viewBox="0 0 512 512" enable-background="new 0 0 512 512" xml:space="preserve">
<g id="grids" display="none">
	<g id="svgGrid_30_" display="inline">
		<line fill="none" stroke="#B35047" x1="32" y1="0" x2="32" y2="512"/>
		<line fill="none" stroke="#B35047" x1="64" y1="0" x2="64" y2="512"/>
		<line fill="none" stroke="#B35047" x1="96" y1="0" x2="96" y2="512"/>
		<line fill="none" stroke="#B35047" x1="128" y1="0" x2="128" y2="512"/>
		<line fill="none" stroke="#B35047" x1="160" y1="0" x2="160" y2="512"/>
		<line fill="none" stroke="#B35047" x1="192" y1="0" x2="192" y2="512"/>
		<line fill="none" stroke="#B35047" x1="224" y1="0" x2="224" y2="512"/>
		<line fill="none" stroke="#B35047" x1="256" y1="0" x2="256" y2="512"/>
		<line fill="none" stroke="#B35047" x1="288" y1="0" x2="288" y2="512"/>
		<line fill="none" stroke="#B35047" x1="320" y1="0" x2="320" y2="512"/>
		<line fill="none" stroke="#B35047" x1="352" y1="0" x2="352" y2="512"/>
		<line fill="none" stroke="#B35047" x1="384" y1="0" x2="384" y2="512"/>
		<line fill="none" stroke="#B35047" x1="416" y1="0" x2="416" y2="512"/>
		<line fill="none" stroke="#B35047" x1="448" y1="0" x2="448" y2="512"/>
		<line fill="none" stroke="#B35047" x1="480" y1="0" x2="480" y2="512"/>
		<line fill="none" stroke="#B35047" x1="0" y1="32" x2="512" y2="32"/>
		<line fill="none" stroke="#B35047" x1="0" y1="64" x2="512" y2="64"/>
		<line fill="none" stroke="#B35047" x1="0" y1="96" x2="512" y2="96"/>
		<line fill="none" stroke="#B35047" x1="0" y1="128" x2="512" y2="128"/>
		<line fill="none" stroke="#B35047" x1="0" y1="160" x2="512" y2="160"/>
		<line fill="none" stroke="#B35047" x1="0" y1="192" x2="512" y2="192"/>
		<line fill="none" stroke="#B35047" x1="0" y1="224" x2="512" y2="224"/>
		<line fill="none" stroke="#B35047" x1="0" y1="256" x2="512" y2="256"/>
		<line fill="none" stroke="#B35047" x1="0" y1="288" x2="512" y2="288"/>
		<line fill="none" stroke="#B35047" x1="0" y1="320" x2="512" y2="320"/>
		<line fill="none" stroke="#B35047" x1="0" y1="352" x2="512" y2="352"/>
		<line fill="none" stroke="#B35047" x1="0" y1="384" x2="512" y2="384"/>
		<line fill="none" stroke="#B35047" x1="0" y1="416" x2="512" y2="416"/>
		<line fill="none" stroke="#B35047" x1="0" y1="448" x2="512" y2="448"/>
		<line fill="none" stroke="#B35047" x1="0" y1="480" x2="512" y2="480"/>
		<rect fill="none" stroke="#B35047" width="512" height="512"/>
	</g>
</g>
<g id="b_x26_w" display="none">
	<g id="Layer_9" display="inline">
	</g>
	<g id="Layer_6_copy" display="inline">
	</g>
	<g id="Layer_7_copy" display="inline">
	</g>
	<g id="Layer_11_copy" display="inline">
	</g>
	<g id="Layer_13_copy" display="inline">
	</g>
	<g id="Layer_15_copy" display="inline">
	</g>
	<g id="Layer_17_copy" display="inline">
	</g>
	<g id="Layer_19_copy" display="inline">
	</g>
	<g id="Layer_21_copy" display="inline">
	</g>
	<g id="Layer_23_copy" display="inline">
	</g>
	<g id="Layer_25_copy" display="inline">
	</g>
	<g id="Layer_27" display="inline">
	</g>
	<g id="Layer_29_copy_2" display="inline">
	</g>
	<g id="Layer_31" display="inline">
	</g>
	<g id="Layer_33_copy" display="inline">
	</g>
	<g id="Layer_35_copy" display="inline">
	</g>
	<g id="Layer_37_copy" display="inline">
	</g>
	<g id="Layer_39_copy" display="inline">
	</g>
	<g id="Layer_41_copy" display="inline">
	</g>
	<g id="Layer_43_copy" display="inline">
	</g>
	<g id="Layer_48" display="inline">
	</g>
	<g id="Layer_45_copy" display="inline">
	</g>
	<g id="Layer_49_copy_2" display="inline">
	</g>
	<g id="Layer_51" display="inline">
	</g>
	<g id="Layer_53_copy" display="inline">
	</g>
	<g id="Layer_55_copy" display="inline">
	</g>
	<g id="Layer_57_copy" display="inline">
	</g>
	<g id="Layer_59_copy" display="inline">
	</g>
	<g id="Layer_61_copy" display="inline">
	</g>
	<g id="Layer_63_copy" display="inline">
	</g>
	<g id="Layer_64_copy" display="inline">
		<path d="M441.8,158.7c0.1-0.2,0.2-0.5,0.3-0.7c0.1-0.2,0.1-0.4,0.2-0.5c0,0,0,0,0,0c-0.6-1.9-1.9-2-4.7-1.8
			c-4,0.8-7.7,1.2-10.8,1.6l0,0c-0.2,0-0.3,0-0.5,0.1c-0.1,0-0.2,0-0.4,0c-0.5,0-0.9,0.1-1.3,0.1c-0.1,0-0.1,0-0.2,0
			c-4,0.3-6.5,0.3-6.5,0.3c10.2,7.7,11.4,19.7,11.4,19.7l0.5-0.4C437.6,171.3,441.8,158.7,441.8,158.7"/>
		<path fill="#FFFFFF" d="M335.8,222.2c5.1,14.9-3.5,34.9-3.5,34.9c11.2-9.6,20-29.3,20-29.3c18.4-3.7,28.5,0,28.5,0
			c2.4,14.4-2.9,26.1-2.9,26.1c10.6-8.5,15.4-31.1,15.4-31.1s-4.3-4-23.1-5.3C351.2,216,335.8,222.2,335.8,222.2"/>
		<path fill="#FFFFFF" d="M349.6,279.1c0,0-5.6,15.4-11.3,21.1c0,0,7.4,4,20.2,2.8c12.8-1.2,15.9-5.9,17.1-10.7
			c1.2-4.8,0-11.4-2.1-16.4c0,0,1,12.6-7.8,19c0,0-9.5,2-15.7,0.1C350,295.2,352.4,290.1,349.6,279.1"/>
		<path fill="#FFFFFF" d="M319.3,159.1c0.1,0,0.3,0.1,0.4,0.1C319.6,159.2,319.5,159.1,319.3,159.1c-7.7-1.5-11,4.4-11,4.4
			c-2.5,3.6-1.5,5.4-1.5,5.4c23.9-0.4,36.7,3.4,36.7,3.4s-8.9-9.7-23.2-13L319.3,159.1z"/>
		<path fill="#FFFFFF" d="M414.7,171.4c-3.1-2.9-9.8-6.7-17.2-5.2c-7.3,1.5-7.7,9.4-7.7,9.4C397.7,168.2,414.7,171.4,414.7,171.4"/>
		<path fill="#FFFFFF" d="M237.1,187c0,0,39.3-7.5,84.3,3.1c1.6-1.5,3.5-2.9,5.6-4.4C327,185.7,285.8,174.3,237.1,187"/>
		<path fill="#FFFFFF" d="M237.3,202.4c0,0,34.5-8.6,76.5-2.8c0.8-1.6,1.9-3.3,3.3-5C301.9,192.8,271.1,191.5,237.3,202.4"/>
		<path fill="#FFFFFF" d="M238.2,217.3c0,0,32.6-10.1,73.6-7.2c-0.2-1.5-0.2-3.2,0.2-5.2C295.5,204.4,267.8,205.9,238.2,217.3"/>
		<path fill="#FFFFFF" d="M142.1,319.8L142.1,319.8c0,0,0.1,0,0.2,0c0.7,0.1,3,0.3,3.1,0.3c0.3,0,4.3,0.4,4.3,0.4
			c5.6,0.6,11.3,1.4,17,2.4v0c12.9-47.2,49.1-72.4,49.1-72.4C166.8,274.3,146.2,312.9,142.1,319.8"/>
		<path fill="#FFFFFF" d="M373.3,254.5c-3.1-14.2,5-24,5-24c-18.4,16.2-7.3,32.3-1.7,44.9c5.6,12.5,3.4,21.8-2.2,28.2
			c-5.6,6.4-20.9,7-31.2,5c-10.3-2-15.6-12.8-18.4-25.7c-2.8-12.8,2.2-35.4,2.2-35.4c-7.5,11.4-7.5,34.9-1.7,53.8
			c5.9,19,21.2,23.7,32.4,23.7c11.2,0,31.2-9.5,28.1-32.1C382.8,270.4,376.4,268.7,373.3,254.5"/>
		<path fill="#FFFFFF" d="M253.4,266c-19.2-19.5-19.8-41.5-19.8-41.5s-6.6,25.7,9.1,44.9c15.7,19.2,53.9,21.3,53.9,21.3
			S272.6,285.5,253.4,266"/>
		<path fill="#FFFFFF" d="M350.7,181.7c22.6,8.8,22.4,22.4,22.4,22.4c3.5-13,19.4-20,19.4-20s-8.3-4-19.7-4.8
			C361.3,178.5,350.7,181.7,350.7,181.7"/>
		<path fill="#FFFFFF" d="M319.3,159.1c-13.6-2.7-26.7,2.8-27.4,3c0,0,0,0,0,0c0,0,0,0,0,0v0c12.6,0.2,16.4,1.3,16.4,1.3
			S311.6,157.6,319.3,159.1"/>
		<path fill="#FFFFFF" stroke="#000000" stroke-miterlimit="10" d="M363.6,336.1L363.6,336.1c-0.1,0.1-8.2,2.9-18.1,1.1
			c0,0,13.1,12.7,26.4,40.4c0,0,0,0,0,0l0.5,0c-1.3-12.6-6.7-33.8-7.9-37.7L363.6,336.1z"/>
		<path d="M421.6,203.3c-0.3-1.5-0.7-2.8-1.2-3.9c0,0-0.4-1.1-1.7-2.7c-1.1-1.4-2.3-2.5-3.5-3.6c-2.5-2.3-6.9-3.7-6.9-3.7s0,0,0,0
			c3.1,2.3,5.4,5.7,5.7,10.5c0.7,14.8-14.6,20.8-14.6,20.8c3.6-2.4,10-10.5,8.4-21.1c-1.7-10.5-15.3-15.5-15.3-15.5s-16,6.9-19.4,20
			c0,0,0.3-13.6-22.4-22.4c0,0,10.6-3.2,22.1-2.4c11.4,0.8,19.7,4.8,19.7,4.8s2.1-5.6,13.3-7.5c11.2-1.9,23.4,0.8,23.4,0.8
			c-2.2-4.1-4.8-10.1-16.1-14.7c-11.3-4.6-21.4-0.4-21.4-0.4s-0.7-5.4-8.9-10.8c-13.3-8.6-48.6-13.8-55.4-14.1
			c-6.8-0.4,5.1,4,9.9,6.7c5.4,3.1,11.5,8.3,12,13.3c0.1,1.3-0.2,2.5-0.8,3.5c-0.5-1.4-1.5-3.2-3.2-5.4
			c-9.7-12.4-34.2-17.8-52.6-16.5c-18.4,1.2-33,8.2-33,8.2c0.2,1.7-6.8,7.6-26.1,9.8c-18.4,2-31.3-1.3-36-2c-0.1,0-0.2-0.1-0.4-0.1
			c-1.9-0.2-3.3-0.1-3.9,1.2c0,0.1,0,0.1-0.1,0.2c0,0.1,0,0.2,0,0.2c-0.1,0.9,0.5,2.3,0.5,2.3c-0.1-0.2-0.2-0.4-0.3-0.5
			c1.3,2.5,9.1,16.9,19.4,24.3c0,0,6.2-1.3,13.5-2.1c0,0-112.9,54.9-158.6,140.7c19.9-2.3,46.1-3.8,74.6-1.3c-0.1,0-0.2,0-0.2,0h0
			c4.1-6.9,24.7-45.5,73.8-69.2c0,0-36.3,25.2-49.1,72.4c16.4,2.8,33.1,7.1,49.5,13.5c52.7,20.5,97.1,42,147.2,41.6l8.5-0.4
			c0,0,0,0,0,0c-13.3-27.7-26.4-40.4-26.4-40.4c9.9,1.8,17.9-1,18-1.1c0.8-0.3,1.4-0.5,1.9-0.8c16.4-8.8,19.1-23.8,20.5-34.5
			c1.5-12.4-0.7-20.3-0.7-20.3s28.3-37.2,35.6-66.5C420.9,214,422.6,208.7,421.6,203.3 M397.5,166.1c7.3-1.5,14,2.3,17.2,5.2
			c0,0-17-3.1-24.9,4.2C389.8,175.6,390.2,167.6,397.5,166.1 M291.9,162.2C291.9,162.2,291.9,162.2,291.9,162.2
			C292,162.2,292,162.2,291.9,162.2c0.7-0.3,14.4-6,28.4-2.8c14.3,3.3,23.2,13,23.2,13s-12.9-3.9-36.7-3.4c0,0-0.9-1.7,1.5-5.4
			C308.3,163.5,304.5,162.4,291.9,162.2L291.9,162.2L291.9,162.2z M327,185.7c-2.2,1.5-4,3-5.6,4.4c-45-10.6-84.3-3.1-84.3-3.1
			C285.8,174.3,327,185.7,327,185.7 M242.6,269.4c-15.7-19.2-9.1-44.9-9.1-44.9s0.6,22,19.8,41.5c19.2,19.5,43.1,24.8,43.1,24.8
			S258.3,288.7,242.6,269.4 M311.8,210c-41.1-2.8-73.6,7.2-73.6,7.2c29.6-11.4,57.3-12.9,73.8-12.4
			C311.6,206.8,311.6,208.6,311.8,210 M313.8,199.6c-42-5.8-76.5,2.8-76.5,2.8c33.8-10.9,64.6-9.5,79.8-7.8
			C315.7,196.3,314.6,198,313.8,199.6 M385.8,293c3.1,22.6-17,32.1-28.1,32.1c-11.2,0-26.5-4.7-32.4-23.7c-5.9-19-5.9-42.4,1.7-53.8
			c0,0-5,22.6-2.2,35.4c2.8,12.8,8.1,23.7,18.4,25.7c10.3,1.9,25.7,1.4,31.2-5c5.6-6.4,7.8-15.6,2.2-28.2
			c-5.6-12.6-16.7-28.7,1.7-44.9c0,0-8.1,9.7-5,24C376.4,268.7,382.8,270.4,385.8,293 M365.6,295.1c8.8-6.4,7.8-19,7.8-19
			c2.1,5,3.3,11.6,2.1,16.4c-1.2,4.7-4.3,9.5-17.1,10.7c-12.8,1.2-20.2-2.8-20.2-2.8c5.7-5.7,11.2-21.1,11.2-21.1
			c2.9,10.9,0.4,16,0.4,16C356.2,297,365.6,295.1,365.6,295.1 M377.8,253.8c0,0,5.3-11.7,2.9-26.1c0,0-10.1-3.7-28.5,0
			c0,0-8.8,19.7-20,29.3c0,0,8.5-20,3.5-34.9c0,0,15.4-6.1,34.3-4.8c18.9,1.3,23.2,5.3,23.2,5.3S388.5,245.3,377.8,253.8"/>
		<path fill="#FFFFFF" stroke="#000000" stroke-miterlimit="10" d="M478.3,222.1c-16.6-9-35.4-11.9-49.8-12.4h-0.1h0.1
			c0.5-1.8,1.2-4.1,1.8-6.7c0.3,0,0.5,0,0.5,0c28.9-0.9,44.2,6.7,44.2,6.7l-1.5-1.1c-14.1-6.5-29-8.9-41.8-9.3h-0.5
			c0.4-2,1-6.1,1.1-6.1l0.3,0c22.2,0.2,34.4,5.5,34.4,5.5l-1.5-1.1c-11-4.7-22.3-6.8-32.9-7.5c0.1-4.1-0.6-7.5-2.2-10.4
			c8.2-7.1,11.2-17.9,11.6-22.1v0c0,0,0,0,0,0c0-0.1,0.1-0.5,0.1-0.6c0-0.1,0-0.2,0-0.2c0-0.1,0-0.3,0-0.4c0-0.1,0-0.2,0-0.2
			c0-0.1,0-0.2,0-0.4c0-0.1,0-0.1,0-0.2c0-0.1-0.1-0.2-0.1-0.3c0-0.1,0-0.1-0.1-0.2c0-0.1-0.1-0.2-0.1-0.3c0,0-0.1-0.1-0.1-0.1
			c-0.1-0.1-0.1-0.2-0.2-0.2c0,0-0.1-0.1-0.1-0.1c-0.1-0.1-0.1-0.1-0.2-0.2c0,0-0.1-0.1-0.1-0.1c-0.1-0.1-0.1-0.1-0.2-0.2
			c0,0-0.1,0-0.1-0.1c-0.1,0-0.2-0.1-0.2-0.1c0,0-0.1,0-0.1-0.1c-0.1,0-0.2-0.1-0.2-0.1c0,0-0.1,0-0.1,0c-0.1,0-0.1-0.1-0.2-0.1
			c0,0-0.1,0-0.1,0c-0.1,0-0.1,0-0.2-0.1c0,0-0.1,0-0.1,0c-0.1,0-0.1,0-0.2,0c0,0,0,0-0.1,0c-0.1,0-0.1,0-0.2,0c0,0,0,0,0,0
			c-0.1,0-0.2,0-0.2,0c-14.1,0.2-25.6-4.6-25.6-4.6c-0.3-0.1-0.6-0.2-0.9-0.3c-31.3-11.5-63.8-14.7-92.7-14.2l0,0
			c-12.9,0.1-22.4,1.2-22.4,1.2c-41.5,3.5-71.3,13.5-71.3,13.5s-11.3,3.2-26.4,2.4c0,0-5.6-0.1-6.7,3.5c-0.9,2.3-1.1,5,1.1,10.9
			c2.5,6.8,12.3,19.6,12.3,19.7C176.7,197,99.4,240.4,30,327.7c0,0,14.7-3.8,37.7-6.5l0,0c45.7-85.8,158.6-140.7,158.6-140.7
			c-7.3,0.8-13.5,2.1-13.5,2.1c-10.3-7.4-18.1-21.8-19.4-24.3c0.1,0.1,0.2,0.3,0.3,0.5c0,0-0.6-1.3-0.5-2.3c0-0.1,0-0.2,0-0.2
			c0-0.1,0-0.1,0.1-0.2c0.6-1.4,2-1.5,3.9-1.2c0.1,0,0.2,0,0.4,0.1c4.7,0.7,17.6,4,36,2c19.3-2.1,26.3-8.1,26.1-9.8
			c0,0,14.6-7,33-8.2c18.4-1.2,42.9,4.1,52.6,16.5c1.8,2.3,2.8,4,3.2,5.4c0.6-1,0.9-2.1,0.8-3.5c-0.5-5-6.6-10.2-12-13.3
			c-4.8-2.7-16.7-7.1-9.9-6.7c6.8,0.4,42.1,5.5,55.4,14.1c8.2,5.3,8.9,10.8,8.9,10.8s10.1-4.2,21.4,0.4
			c11.3,4.6,13.9,10.6,16.1,14.7c0,0-1.2-11.9-11.4-19.7c0,0,2.5,0,6.5-0.3c0.1,0,0.1,0,0.2,0c0.4,0,0.9-0.1,1.3-0.1
			c0.1,0,0.2,0,0.4,0c0.2,0,0.3,0,0.5,0h0c3.1-0.3,6.8-0.8,10.8-1.6c2.7-0.2,4-0.1,4.7,1.8c0,0,0,0,0,0c0,0.2-0.1,0.4-0.2,0.5
			c-0.1,0.2-0.2,0.4-0.3,0.7c0,0-4.2,12.6-12,18.3l-0.5,0.4c0,0-12.2-2.7-23.4-0.8c-11.2,1.9-13.4,7.5-13.4,7.5s13.6,5,15.3,15.5
			c1.7,10.5-4.8,18.7-8.4,21.1c0,0,15.3-6,14.6-20.8c-0.2-4.8-2.6-8.2-5.7-10.5c0,0,0,0,0,0s4.4,1.4,6.9,3.7
			c1.1,1.1,2.4,2.2,3.5,3.6c1.3,1.7,1.7,2.8,1.7,2.8c0.5,1.1,1,2.4,1.2,3.9c1,5.4-0.7,10.7-0.7,10.7c-7.2,29.3-35.6,66.5-35.6,66.5
			c0,0,0,0,0,0c21.4-18.3,35.7-50.6,42-66.9c33.8,0.4,52.2,9.8,52.2,9.8L478.3,222.1z"/>
	</g>
	<g id="Layer_66_copy_2" display="inline">
	</g>
</g>
<g id="color">
	<g id="Layer_5">
	</g>
	<g id="Layer_6">
	</g>
	<g id="Layer_7">
	</g>
	<g id="Layer_11">
	</g>
	<g id="Layer_13">
	</g>
	<g id="Layer_15">
	</g>
	<g id="Layer_17">
	</g>
	<g id="Layer_19">
	</g>
	<g id="Layer_21">
	</g>
	<g id="Layer_23">
	</g>
	<g id="Layer_25">
	</g>
	<g id="Layer_27_copy">
	</g>
	<g id="Layer_31_copy_2">
	</g>
	<g id="Layer_29">
	</g>
	<g id="Layer_33">
	</g>
	<g id="Layer_35">
	</g>
	<g id="Layer_37">
	</g>
	<g id="Layer_39">
	</g>
	<g id="Layer_41">
	</g>
	<g id="Layer_43">
	</g>
	<g id="Layer_46">
	</g>
	<g id="Layer_45">
	</g>
	<g id="Layer_49">
	</g>
	<g id="Layer_51_copy">
	</g>
	<g id="Layer_53">
	</g>
	<g id="Layer_55">
	</g>
	<g id="Layer_57">
	</g>
	<g id="Layer_59">
	</g>
	<g id="Layer_61">
	</g>
	<g id="Layer_63">
	</g>
	<g id="Layer_64">
		<path d="M441.8,158.7c0.1-0.2,0.2-0.5,0.3-0.7c0.1-0.2,0.1-0.4,0.2-0.5c0,0,0,0,0,0c-0.6-1.9-1.9-2-4.7-1.8
			c-4,0.8-7.7,1.2-10.8,1.6l0,0c-0.2,0-0.3,0-0.5,0.1c-0.1,0-0.2,0-0.4,0c-0.5,0-0.9,0.1-1.3,0.1c-0.1,0-0.1,0-0.2,0
			c-4,0.3-6.5,0.3-6.5,0.3c10.2,7.7,11.4,19.7,11.4,19.7l0.5-0.4C437.6,171.3,441.8,158.7,441.8,158.7"/>
		<path fill="#D1D3D4" d="M335.8,222.2c5.1,14.9-3.5,34.9-3.5,34.9c11.2-9.6,20-29.3,20-29.3c18.4-3.7,28.5,0,28.5,0
			c2.4,14.4-2.9,26.1-2.9,26.1c10.6-8.5,15.4-31.1,15.4-31.1s-4.3-4-23.1-5.3C351.2,216,335.8,222.2,335.8,222.2"/>
		<path fill="#D1D3D4" d="M349.6,279.1c0,0-5.6,15.4-11.3,21.1c0,0,7.4,4,20.2,2.8c12.8-1.2,15.9-5.9,17.1-10.7
			c1.2-4.8,0-11.4-2.1-16.4c0,0,1,12.6-7.8,19c0,0-9.5,2-15.7,0.1C350,295.2,352.4,290.1,349.6,279.1"/>
		<path fill="#D1D3D4" d="M319.3,159.1c0.1,0,0.3,0.1,0.4,0.1C319.6,159.2,319.5,159.1,319.3,159.1c-7.7-1.5-11,4.4-11,4.4
			c-2.5,3.6-1.5,5.4-1.5,5.4c23.9-0.4,36.7,3.4,36.7,3.4s-8.9-9.7-23.2-13L319.3,159.1z"/>
		<path fill="#D1D3D4" d="M414.7,171.4c-3.1-2.9-9.8-6.7-17.2-5.2c-7.3,1.5-7.7,9.4-7.7,9.4C397.7,168.2,414.7,171.4,414.7,171.4"/>
		<path fill="#0099D8" d="M237.1,187c0,0,39.3-7.5,84.3,3.1c1.6-1.5,3.5-2.9,5.6-4.4C327,185.7,285.8,174.3,237.1,187"/>
		<path fill="#0099D8" d="M237.3,202.4c0,0,34.5-8.6,76.5-2.8c0.8-1.6,1.9-3.3,3.3-5C301.9,192.8,271.1,191.5,237.3,202.4"/>
		<path fill="#0099D8" d="M238.2,217.3c0,0,32.6-10.1,73.6-7.2c-0.2-1.5-0.2-3.2,0.2-5.2C295.5,204.4,267.8,205.9,238.2,217.3"/>
		<path fill="#0099D8" d="M142.1,319.8L142.1,319.8c0,0,0.1,0,0.2,0c0.7,0.1,3,0.3,3.1,0.3c0.3,0,4.3,0.4,4.3,0.4
			c5.6,0.6,11.3,1.4,17,2.4v0c12.9-47.2,49.1-72.4,49.1-72.4C166.8,274.3,146.2,312.9,142.1,319.8"/>
		<path fill="#0099D8" d="M373.3,254.5c-3.1-14.2,5-24,5-24c-18.4,16.2-7.3,32.3-1.7,44.9c5.6,12.5,3.4,21.8-2.2,28.2
			c-5.6,6.4-20.9,7-31.2,5c-10.3-2-15.6-12.8-18.4-25.7c-2.8-12.8,2.2-35.4,2.2-35.4c-7.5,11.4-7.5,34.9-1.7,53.8
			c5.9,19,21.2,23.7,32.4,23.7c11.2,0,31.2-9.5,28.1-32.1C382.8,270.4,376.4,268.7,373.3,254.5"/>
		<path fill="#0099D8" d="M253.4,266c-19.2-19.5-19.8-41.5-19.8-41.5s-6.6,25.7,9.1,44.9c15.7,19.2,53.9,21.3,53.9,21.3
			S272.6,285.5,253.4,266"/>
		<path fill="#0099D8" d="M350.7,181.7c22.6,8.8,22.4,22.4,22.4,22.4c3.5-13,19.4-20,19.4-20s-8.3-4-19.7-4.8
			C361.3,178.5,350.7,181.7,350.7,181.7"/>
		<path fill="#0099D8" d="M319.3,159.1c-13.6-2.7-26.7,2.8-27.4,3c0,0,0,0,0,0c0,0,0,0,0,0v0c12.6,0.2,16.4,1.3,16.4,1.3
			S311.6,157.6,319.3,159.1"/>
		<path fill="#0099D8" d="M363.6,336.1L363.6,336.1c-0.1,0.1-8.2,2.9-18.1,1.1c0,0,13.1,12.7,26.4,40.4c0,0,0,0,0,0l0.5,0
			c-1.3-12.6-6.7-33.8-7.9-37.7L363.6,336.1z"/>
		<path d="M421.6,203.3c-0.3-1.5-0.7-2.8-1.2-3.9c0,0-0.4-1.1-1.7-2.7c-1.1-1.4-2.3-2.5-3.5-3.6c-2.5-2.3-6.9-3.7-6.9-3.7s0,0,0,0
			c3.1,2.3,5.4,5.7,5.7,10.5c0.7,14.8-14.6,20.8-14.6,20.8c3.6-2.4,10-10.5,8.4-21.1c-1.7-10.5-15.3-15.5-15.3-15.5s-16,6.9-19.4,20
			c0,0,0.3-13.6-22.4-22.4c0,0,10.6-3.2,22.1-2.4c11.4,0.8,19.7,4.8,19.7,4.8s2.1-5.6,13.3-7.5c11.2-1.9,23.4,0.8,23.4,0.8
			c-2.2-4.1-4.8-10.1-16.1-14.7c-11.3-4.6-21.4-0.4-21.4-0.4s-0.7-5.4-8.9-10.8c-13.3-8.6-48.6-13.8-55.4-14.1
			c-6.8-0.4,5.1,4,9.9,6.7c5.4,3.1,11.5,8.3,12,13.3c0.1,1.3-0.2,2.5-0.8,3.5c-0.5-1.4-1.5-3.2-3.2-5.4
			c-9.7-12.4-34.2-17.8-52.6-16.5c-18.4,1.2-33,8.2-33,8.2c0.2,1.7-6.8,7.6-26.1,9.8c-18.4,2-31.3-1.3-36-2c-0.1,0-0.2-0.1-0.4-0.1
			c-1.9-0.2-3.3-0.1-3.9,1.2c0,0.1,0,0.1-0.1,0.2c0,0.1,0,0.2,0,0.2c-0.1,0.9,0.5,2.3,0.5,2.3c-0.1-0.2-0.2-0.4-0.3-0.5
			c1.3,2.5,9.1,16.9,19.4,24.3c0,0,6.2-1.3,13.5-2.1c0,0-112.9,54.9-158.6,140.7c19.9-2.3,46.1-3.8,74.6-1.3c-0.1,0-0.2,0-0.2,0h0
			c4.1-6.9,24.7-45.5,73.8-69.2c0,0-36.3,25.2-49.1,72.4c16.4,2.8,33.1,7.1,49.5,13.5c52.7,20.5,97.1,42,147.2,41.6l8.5-0.4
			c0,0,0,0,0,0c-13.3-27.7-26.4-40.4-26.4-40.4c9.9,1.8,17.9-1,18-1.1c0.8-0.3,1.4-0.5,1.9-0.8c16.4-8.8,19.1-23.8,20.5-34.5
			c1.5-12.4-0.7-20.3-0.7-20.3s28.3-37.2,35.6-66.5C420.9,214,422.6,208.7,421.6,203.3 M397.5,166.1c7.3-1.5,14,2.3,17.2,5.2
			c0,0-17-3.1-24.9,4.2C389.8,175.6,390.2,167.6,397.5,166.1 M291.9,162.2C291.9,162.2,291.9,162.2,291.9,162.2
			C292,162.2,292,162.2,291.9,162.2c0.7-0.3,14.4-6,28.4-2.8c14.3,3.3,23.2,13,23.2,13s-12.9-3.9-36.7-3.4c0,0-0.9-1.7,1.5-5.4
			C308.3,163.5,304.5,162.4,291.9,162.2L291.9,162.2L291.9,162.2z M327,185.7c-2.2,1.5-4,3-5.6,4.4c-45-10.6-84.3-3.1-84.3-3.1
			C285.8,174.3,327,185.7,327,185.7 M242.6,269.4c-15.7-19.2-9.1-44.9-9.1-44.9s0.6,22,19.8,41.5c19.2,19.5,43.1,24.8,43.1,24.8
			S258.3,288.7,242.6,269.4 M311.8,210c-41.1-2.8-73.6,7.2-73.6,7.2c29.6-11.4,57.3-12.9,73.8-12.4
			C311.6,206.8,311.6,208.6,311.8,210 M313.8,199.6c-42-5.8-76.5,2.8-76.5,2.8c33.8-10.9,64.6-9.5,79.8-7.8
			C315.7,196.3,314.6,198,313.8,199.6 M385.8,293c3.1,22.6-17,32.1-28.1,32.1c-11.2,0-26.5-4.7-32.4-23.7c-5.9-19-5.9-42.4,1.7-53.8
			c0,0-5,22.6-2.2,35.4c2.8,12.8,8.1,23.7,18.4,25.7c10.3,1.9,25.7,1.4,31.2-5c5.6-6.4,7.8-15.6,2.2-28.2
			c-5.6-12.6-16.7-28.7,1.7-44.9c0,0-8.1,9.7-5,24C376.4,268.7,382.8,270.4,385.8,293 M365.6,295.1c8.8-6.4,7.8-19,7.8-19
			c2.1,5,3.3,11.6,2.1,16.4c-1.2,4.7-4.3,9.5-17.1,10.7c-12.8,1.2-20.2-2.8-20.2-2.8c5.7-5.7,11.2-21.1,11.2-21.1
			c2.9,10.9,0.4,16,0.4,16C356.2,297,365.6,295.1,365.6,295.1 M377.8,253.8c0,0,5.3-11.7,2.9-26.1c0,0-10.1-3.7-28.5,0
			c0,0-8.8,19.7-20,29.3c0,0,8.5-20,3.5-34.9c0,0,15.4-6.1,34.3-4.8c18.9,1.3,23.2,5.3,23.2,5.3S388.5,245.3,377.8,253.8"/>
		<path fill="#0099D8" d="M478.3,222.1c-16.6-9-35.4-11.9-49.8-12.4h-0.1h0.1c0.5-1.8,1.2-4.1,1.8-6.7c0.3,0,0.5,0,0.5,0
			c28.9-0.9,44.2,6.7,44.2,6.7l-1.5-1.1c-14.1-6.5-29-8.9-41.8-9.3h-0.5c0.4-2,1-6.1,1.1-6.1l0.3,0c22.2,0.2,34.4,5.5,34.4,5.5
			l-1.5-1.1c-11-4.7-22.3-6.8-32.9-7.5c0.1-4.1-0.6-7.5-2.2-10.4c8.2-7.1,11.2-17.9,11.6-22.1v0c0,0,0,0,0,0c0-0.1,0.1-0.5,0.1-0.6
			c0-0.1,0-0.2,0-0.2c0-0.1,0-0.3,0-0.4c0-0.1,0-0.2,0-0.2c0-0.1,0-0.2,0-0.4c0-0.1,0-0.1,0-0.2c0-0.1-0.1-0.2-0.1-0.3
			c0-0.1,0-0.1-0.1-0.2c0-0.1-0.1-0.2-0.1-0.3c0,0-0.1-0.1-0.1-0.1c-0.1-0.1-0.1-0.2-0.2-0.2c0,0-0.1-0.1-0.1-0.1
			c-0.1-0.1-0.1-0.1-0.2-0.2c0,0-0.1-0.1-0.1-0.1c-0.1-0.1-0.1-0.1-0.2-0.2c0,0-0.1,0-0.1-0.1c-0.1,0-0.2-0.1-0.2-0.1
			c0,0-0.1,0-0.1-0.1c-0.1,0-0.2-0.1-0.2-0.1c0,0-0.1,0-0.1,0c-0.1,0-0.1-0.1-0.2-0.1c0,0-0.1,0-0.1,0c-0.1,0-0.1,0-0.2-0.1
			c0,0-0.1,0-0.1,0c-0.1,0-0.1,0-0.2,0c0,0,0,0-0.1,0c-0.1,0-0.1,0-0.2,0c0,0,0,0,0,0c-0.1,0-0.2,0-0.2,0
			c-14.1,0.2-25.6-4.6-25.6-4.6c-0.3-0.1-0.6-0.2-0.9-0.3c-31.3-11.5-63.8-14.7-92.7-14.2l0,0c-12.9,0.1-22.4,1.2-22.4,1.2
			c-41.5,3.5-71.3,13.5-71.3,13.5s-11.3,3.2-26.4,2.4c0,0-5.6-0.1-6.7,3.5c-0.9,2.3-1.1,5,1.1,10.9c2.5,6.8,12.3,19.6,12.3,19.7
			C176.7,197,99.4,240.4,30,327.7c0,0,14.7-3.8,37.7-6.5l0,0c45.7-85.8,158.6-140.7,158.6-140.7c-7.3,0.8-13.5,2.1-13.5,2.1
			c-10.3-7.4-18.1-21.8-19.4-24.3c0.1,0.1,0.2,0.3,0.3,0.5c0,0-0.6-1.3-0.5-2.3c0-0.1,0-0.2,0-0.2c0-0.1,0-0.1,0.1-0.2
			c0.6-1.4,2-1.5,3.9-1.2c0.1,0,0.2,0,0.4,0.1c4.7,0.7,17.6,4,36,2c19.3-2.1,26.3-8.1,26.1-9.8c0,0,14.6-7,33-8.2
			c18.4-1.2,42.9,4.1,52.6,16.5c1.8,2.3,2.8,4,3.2,5.4c0.6-1,0.9-2.1,0.8-3.5c-0.5-5-6.6-10.2-12-13.3c-4.8-2.7-16.7-7.1-9.9-6.7
			c6.8,0.4,42.1,5.5,55.4,14.1c8.2,5.3,8.9,10.8,8.9,10.8s10.1-4.2,21.4,0.4c11.3,4.6,13.9,10.6,16.1,14.7c0,0-1.2-11.9-11.4-19.7
			c0,0,2.5,0,6.5-0.3c0.1,0,0.1,0,0.2,0c0.4,0,0.9-0.1,1.3-0.1c0.1,0,0.2,0,0.4,0c0.2,0,0.3,0,0.5,0h0c3.1-0.3,6.8-0.8,10.8-1.6
			c2.7-0.2,4-0.1,4.7,1.8c0,0,0,0,0,0c0,0.2-0.1,0.4-0.2,0.5c-0.1,0.2-0.2,0.4-0.3,0.7c0,0-4.2,12.6-12,18.3l-0.5,0.4
			c0,0-12.2-2.7-23.4-0.8c-11.2,1.9-13.4,7.5-13.4,7.5s13.6,5,15.3,15.5c1.7,10.5-4.8,18.7-8.4,21.1c0,0,15.3-6,14.6-20.8
			c-0.2-4.8-2.6-8.2-5.7-10.5c0,0,0,0,0,0s4.4,1.4,6.9,3.7c1.1,1.1,2.4,2.2,3.5,3.6c1.3,1.7,1.7,2.8,1.7,2.8c0.5,1.1,1,2.4,1.2,3.9
			c1,5.4-0.7,10.7-0.7,10.7c-7.2,29.3-35.6,66.5-35.6,66.5c0,0,0,0,0,0c21.4-18.3,35.7-50.6,42-66.9c33.8,0.4,52.2,9.8,52.2,9.8
			L478.3,222.1z"/>
	</g>
	<g id="Layer_66_copy">
	</g>
</g>
</svg>
