<?xml version="1.0" encoding="utf-8"?>
<!-- Generator: Adobe Illustrator 16.0.4, SVG Export Plug-In . SVG Version: 6.00 Build 0)  -->
<!DOCTYPE svg PUBLIC "-//W3C//DTD SVG 1.1//EN" "http://www.w3.org/Graphics/SVG/1.1/DTD/svg11.dtd">
<svg version="1.1" xmlns="http://www.w3.org/2000/svg" xmlns:xlink="http://www.w3.org/1999/xlink" x="0px" y="0px" width="512px"
	 height="512px" viewBox="0 0 512 512" enable-background="new 0 0 512 512" xml:space="preserve">
<g id="grids" display="none">
	<g id="svgGrid_5_" display="inline">
		<line fill="none" stroke="#B35047" x1="32" y1="0" x2="32" y2="512"/>
		<line fill="none" stroke="#B35047" x1="64" y1="0" x2="64" y2="512"/>
		<line fill="none" stroke="#B35047" x1="96" y1="0" x2="96" y2="512"/>
		<line fill="none" stroke="#B35047" x1="128" y1="0" x2="128" y2="512"/>
		<line fill="none" stroke="#B35047" x1="160" y1="0" x2="160" y2="512"/>
		<line fill="none" stroke="#B35047" x1="192" y1="0" x2="192" y2="512"/>
		<line fill="none" stroke="#B35047" x1="224" y1="0" x2="224" y2="512"/>
		<line fill="none" stroke="#B35047" x1="256" y1="0" x2="256" y2="512"/>
		<line fill="none" stroke="#B35047" x1="288" y1="0" x2="288" y2="512"/>
		<line fill="none" stroke="#B35047" x1="320" y1="0" x2="320" y2="512"/>
		<line fill="none" stroke="#B35047" x1="352" y1="0" x2="352" y2="512"/>
		<line fill="none" stroke="#B35047" x1="384" y1="0" x2="384" y2="512"/>
		<line fill="none" stroke="#B35047" x1="416" y1="0" x2="416" y2="512"/>
		<line fill="none" stroke="#B35047" x1="448" y1="0" x2="448" y2="512"/>
		<line fill="none" stroke="#B35047" x1="480" y1="0" x2="480" y2="512"/>
		<line fill="none" stroke="#B35047" x1="0" y1="32" x2="512" y2="32"/>
		<line fill="none" stroke="#B35047" x1="0" y1="64" x2="512" y2="64"/>
		<line fill="none" stroke="#B35047" x1="0" y1="96" x2="512" y2="96"/>
		<line fill="none" stroke="#B35047" x1="0" y1="128" x2="512" y2="128"/>
		<line fill="none" stroke="#B35047" x1="0" y1="160" x2="512" y2="160"/>
		<line fill="none" stroke="#B35047" x1="0" y1="192" x2="512" y2="192"/>
		<line fill="none" stroke="#B35047" x1="0" y1="224" x2="512" y2="224"/>
		<line fill="none" stroke="#B35047" x1="0" y1="256" x2="512" y2="256"/>
		<line fill="none" stroke="#B35047" x1="0" y1="288" x2="512" y2="288"/>
		<line fill="none" stroke="#B35047" x1="0" y1="320" x2="512" y2="320"/>
		<line fill="none" stroke="#B35047" x1="0" y1="352" x2="512" y2="352"/>
		<line fill="none" stroke="#B35047" x1="0" y1="384" x2="512" y2="384"/>
		<line fill="none" stroke="#B35047" x1="0" y1="416" x2="512" y2="416"/>
		<line fill="none" stroke="#B35047" x1="0" y1="448" x2="512" y2="448"/>
		<line fill="none" stroke="#B35047" x1="0" y1="480" x2="512" y2="480"/>
		<rect fill="none" stroke="#B35047" width="512" height="512"/>
	</g>
</g>
<g id="b_x26_w" display="none">
	<g id="Layer_9" display="inline">
	</g>
	<g id="Layer_6_copy" display="inline">
	</g>
	<g id="Layer_7_copy" display="inline">
	</g>
	<g id="Layer_11_copy" display="inline">
	</g>
	<g id="Layer_13_copy" display="inline">
		<path fill="#FFFFFF" d="M396.3,273.2h78.3c-21.9,146.3-306.3,182-390.7,31.2c-14.2-25.3-31.3-36.5-45.3-43
			c15.5-6.1,38.4-27.1,45.9-47.1c51.5-137,308.8-135,379.5-12.4h-93c-75.1-60-225.4-32.4-225.4,59.4
			C145.6,325.7,324.2,398.8,396.3,273.2z M458.1,284.9h-53c-72.1,125.7-273,59-273-23.5c0-101.8,167.3-131.8,242.4-71.8h64.7
			c-73.1-85.6-280.8-106-344.8,31.2c-5.5,15.1-15.7,28.6-30.6,40.6c14,6.5,24,18.9,31.8,34.7C179.1,448.3,436.2,390,458.1,284.9z"/>
		<path d="M405.1,284.9h53c-21.9,105.1-279,163.4-362.5,11.2c-7.7-15.9-17.8-28.3-31.8-34.7c14.9-12,25.1-25.5,30.6-40.6
			C158.5,83.6,366.2,104,439.3,189.6h-64.7c-75.1-60-242.4-30-242.4,71.8C132.1,343.9,333,410.6,405.1,284.9z"/>
		<g>
			
				<line fill="none" stroke="#03182F" stroke-width="11.34" stroke-linecap="square" stroke-linejoin="round" x1="464" y1="202" x2="464" y2="202"/>
			<path fill="none" stroke="#03182F" stroke-width="11.34" stroke-linecap="square" stroke-linejoin="round" d="M464,202
				C393.2,79.3,135.9,77.4,84.4,214.3c-7.5,20-30.4,41-45.9,47.1c14,6.5,31.1,17.6,45.3,43c84.4,150.9,368.8,115.1,390.7-31.2h-78.3
				c-72.2,125.7-250.7,52.5-250.7-11.8c0-91.8,150.3-119.5,225.4-59.4H464z"/>
		</g>
	</g>
	<g id="Layer_15_copy" display="inline">
	</g>
	<g id="Layer_17_copy" display="inline">
	</g>
	<g id="Layer_19_copy" display="inline">
	</g>
	<g id="Layer_21_copy" display="inline">
	</g>
	<g id="Layer_23_copy" display="inline">
	</g>
	<g id="Layer_25_copy" display="inline">
	</g>
	<g id="Layer_27" display="inline">
	</g>
	<g id="Layer_29_copy_2" display="inline">
	</g>
	<g id="Layer_31" display="inline">
	</g>
	<g id="Layer_33_copy" display="inline">
	</g>
	<g id="Layer_35_copy" display="inline">
	</g>
	<g id="Layer_37_copy" display="inline">
	</g>
	<g id="Layer_39_copy" display="inline">
	</g>
	<g id="Layer_41_copy" display="inline">
	</g>
	<g id="Layer_43_copy" display="inline">
	</g>
	<g id="Layer_48" display="inline">
	</g>
	<g id="Layer_45_copy" display="inline">
	</g>
	<g id="Layer_49_copy_2" display="inline">
	</g>
	<g id="Layer_51" display="inline">
	</g>
	<g id="Layer_53_copy" display="inline">
	</g>
	<g id="Layer_55_copy" display="inline">
	</g>
	<g id="Layer_57_copy" display="inline">
	</g>
	<g id="Layer_59_copy" display="inline">
	</g>
	<g id="Layer_61_copy" display="inline">
	</g>
	<g id="Layer_63_copy" display="inline">
	</g>
	<g id="Layer_64_copy" display="inline">
	</g>
	<g id="Layer_66_copy_2" display="inline">
	</g>
</g>
<g id="color">
	<g id="Layer_5">
	</g>
	<g id="Layer_6">
	</g>
	<g id="Layer_7">
	</g>
	<g id="Layer_11">
	</g>
	<g id="Layer_13">
		<g>
			<g id="XMLID_1_">
				<g>
					<path fill="#FFFFFF" d="M400.5,273.7h80.6c-22.5,150.6-315.5,187.5-402.4,32.1c-14.6-26.1-32.3-37.6-46.7-44.2
						c16-6.3,39.5-27.9,47.3-48.5c53-141.1,318-139.1,390.9-12.7h-95.8c-77.4-61.8-232.1-33.3-232.1,61.2
						C142.3,327.8,326.2,403.1,400.5,273.7z M464.1,285.8h-54.5c-74.3,129.4-281.2,60.7-281.2-24.2c0-104.8,172.3-135.8,249.7-73.9
						h66.7C369.4,99.4,155.6,78.4,89.6,219.7c-5.7,15.6-16.2,29.5-31.5,41.8c14.4,6.7,24.8,19.4,32.7,35.8
						C176.7,454.1,441.6,394,464.1,285.8z"/>
					<path fill="#DF6108" d="M409.6,285.8h54.5C441.6,394,176.7,454.1,90.8,297.3c-8-16.3-18.3-29.1-32.7-35.8
						c15.4-12.3,25.9-26.3,31.5-41.8c66-141.3,279.9-120.3,355.1-32.1h-66.7c-77.4-61.8-249.7-30.9-249.7,73.9
						C128.4,346.5,335.3,415.2,409.6,285.8z"/>
				</g>
				<g>
					
						<line fill="none" stroke="#03182F" stroke-width="11.34" stroke-linecap="square" stroke-linejoin="round" x1="470.2" y1="200.3" x2="470.2" y2="200.3"/>
					<path fill="none" stroke="#03182F" stroke-width="11.34" stroke-linecap="square" stroke-linejoin="round" d="M470.2,200.3
						C397.3,74,132.3,72,79.3,213.1C71.5,233.7,48,255.3,32,261.6c14.4,6.7,32.1,18.2,46.7,44.2c86.9,155.4,379.9,118.5,402.4-32.1
						h-80.6c-74.3,129.4-258.2,54.1-258.2-12.1c0-94.5,154.8-123,232.1-61.2H470.2z"/>
				</g>
			</g>
		</g>
	</g>
	<g id="Layer_15">
	</g>
	<g id="Layer_17">
	</g>
	<g id="Layer_19">
	</g>
	<g id="Layer_21">
	</g>
	<g id="Layer_23">
	</g>
	<g id="Layer_25">
	</g>
	<g id="Layer_27_copy">
	</g>
	<g id="Layer_31_copy_2">
	</g>
	<g id="Layer_29">
	</g>
	<g id="Layer_33">
	</g>
	<g id="Layer_35">
	</g>
	<g id="Layer_37">
	</g>
	<g id="Layer_39">
	</g>
	<g id="Layer_41">
	</g>
	<g id="Layer_43">
	</g>
	<g id="Layer_46">
	</g>
	<g id="Layer_45">
	</g>
	<g id="Layer_49">
	</g>
	<g id="Layer_51_copy">
	</g>
	<g id="Layer_53">
	</g>
	<g id="Layer_55">
	</g>
	<g id="Layer_57">
	</g>
	<g id="Layer_59">
	</g>
	<g id="Layer_61">
	</g>
	<g id="Layer_63">
	</g>
	<g id="Layer_64">
	</g>
	<g id="Layer_66_copy">
	</g>
</g>
</svg>
