<?xml version="1.0" encoding="utf-8"?>
<!-- Generator: Adobe Illustrator 16.0.4, SVG Export Plug-In . SVG Version: 6.00 Build 0)  -->
<!DOCTYPE svg PUBLIC "-//W3C//DTD SVG 1.1//EN" "http://www.w3.org/Graphics/SVG/1.1/DTD/svg11.dtd">
<svg version="1.1" xmlns="http://www.w3.org/2000/svg" xmlns:xlink="http://www.w3.org/1999/xlink" x="0px" y="0px" width="512px"
	 height="512px" viewBox="0 0 512 512" enable-background="new 0 0 512 512" xml:space="preserve">
<g id="grids" display="none">
	<g id="svgGrid_6_" display="inline">
		<line fill="none" stroke="#B35047" x1="32" y1="0" x2="32" y2="512"/>
		<line fill="none" stroke="#B35047" x1="64" y1="0" x2="64" y2="512"/>
		<line fill="none" stroke="#B35047" x1="96" y1="0" x2="96" y2="512"/>
		<line fill="none" stroke="#B35047" x1="128" y1="0" x2="128" y2="512"/>
		<line fill="none" stroke="#B35047" x1="160" y1="0" x2="160" y2="512"/>
		<line fill="none" stroke="#B35047" x1="192" y1="0" x2="192" y2="512"/>
		<line fill="none" stroke="#B35047" x1="224" y1="0" x2="224" y2="512"/>
		<line fill="none" stroke="#B35047" x1="256" y1="0" x2="256" y2="512"/>
		<line fill="none" stroke="#B35047" x1="288" y1="0" x2="288" y2="512"/>
		<line fill="none" stroke="#B35047" x1="320" y1="0" x2="320" y2="512"/>
		<line fill="none" stroke="#B35047" x1="352" y1="0" x2="352" y2="512"/>
		<line fill="none" stroke="#B35047" x1="384" y1="0" x2="384" y2="512"/>
		<line fill="none" stroke="#B35047" x1="416" y1="0" x2="416" y2="512"/>
		<line fill="none" stroke="#B35047" x1="448" y1="0" x2="448" y2="512"/>
		<line fill="none" stroke="#B35047" x1="480" y1="0" x2="480" y2="512"/>
		<line fill="none" stroke="#B35047" x1="0" y1="32" x2="512" y2="32"/>
		<line fill="none" stroke="#B35047" x1="0" y1="64" x2="512" y2="64"/>
		<line fill="none" stroke="#B35047" x1="0" y1="96" x2="512" y2="96"/>
		<line fill="none" stroke="#B35047" x1="0" y1="128" x2="512" y2="128"/>
		<line fill="none" stroke="#B35047" x1="0" y1="160" x2="512" y2="160"/>
		<line fill="none" stroke="#B35047" x1="0" y1="192" x2="512" y2="192"/>
		<line fill="none" stroke="#B35047" x1="0" y1="224" x2="512" y2="224"/>
		<line fill="none" stroke="#B35047" x1="0" y1="256" x2="512" y2="256"/>
		<line fill="none" stroke="#B35047" x1="0" y1="288" x2="512" y2="288"/>
		<line fill="none" stroke="#B35047" x1="0" y1="320" x2="512" y2="320"/>
		<line fill="none" stroke="#B35047" x1="0" y1="352" x2="512" y2="352"/>
		<line fill="none" stroke="#B35047" x1="0" y1="384" x2="512" y2="384"/>
		<line fill="none" stroke="#B35047" x1="0" y1="416" x2="512" y2="416"/>
		<line fill="none" stroke="#B35047" x1="0" y1="448" x2="512" y2="448"/>
		<line fill="none" stroke="#B35047" x1="0" y1="480" x2="512" y2="480"/>
		<rect fill="none" stroke="#B35047" width="512" height="512"/>
	</g>
</g>
<g id="b_x26_w" display="none">
	<g id="Layer_9" display="inline">
	</g>
	<g id="Layer_6_copy" display="inline">
	</g>
	<g id="Layer_7_copy" display="inline">
	</g>
	<g id="Layer_11_copy" display="inline">
	</g>
	<g id="Layer_13_copy" display="inline">
	</g>
	<g id="Layer_15_copy" display="inline">
		<path fill="#FFFFFF" stroke="#000000" stroke-width="3" stroke-miterlimit="10" d="M36.3,314.1l56.3,96.7l260,0
			c83.9,0,120.2-43.8,120.2-90.8c0-31.1-22.1-56.3-44.6-67.8c-2.3-1.2-2-3.3-0.4-4.5c19.7-14.6,32.9-33.2,32.9-62.1
			c0-34.1-24.4-82-119.8-82H95l-55.7,97.1h40.9c4.6,0,8.3,3.7,8.3,8.3v96.9c0,4.5-3.7,8.2-8.3,8.2H36.3"/>
		<path fill="#FFFFFF" stroke="#000000" stroke-width="3" stroke-miterlimit="10" d="M282.6,235.8h-40.4v-38.9
			c0-4.1,3.3-7.4,7.4-7.4h33c19.3,0,26.5,9.9,26.5,22.7C309.2,225.9,302,235.8,282.6,235.8 M282.6,325.3h-33c-4.1,0-7.4-3.3-7.4-7.4
			V279h40.4c19.3,0,26.5,9.5,26.5,22.8C309.2,315.4,302,325.3,282.6,325.3z M397.9,254.4c-3-0.7-2.5-4.3-0.3-5.2
			c26.7-10.1,42.2-28.1,42.2-59.7c0.4-42.5-37.2-71.7-98.2-71.7H110.3l-40.6,71.7h27.9c5.5,0,10,4.5,10,10v115.7c0,5.5-4.5,10-10,10
			H70.1l40.9,71.3l241.7,0c69,0,97.4-45.8,97.4-79.6C450.1,287.3,428.2,261.7,397.9,254.4z"/>
		<path d="M189,376.3c-42.9-80.6-54.2-173.3-38.2-258.4h-40.5l-40.6,71.7h27.9c5.5,0,10,4.5,10,10v88.8
			C128.5,322.1,158.6,354.5,189,376.3 M391.3,125.8c-49.1,72.8-75.7,165.6-63.8,250.1c14.6-71.1,52.8-136.8,112.2-184.3
			c0-0.7,0.1-1.4,0.1-2.1C440.1,160.3,422.4,137.3,391.3,125.8z M309,117.9c-7.7,20.1-15.8,44.5-22.6,71.8c-1.2-0.1-2.5-0.1-3.8-0.1
			h-33c-4.1,0-7.4,3.3-7.4,7.4v38.9h34.7c-2.3,14-4.2,28.4-5.4,43.2h-29.3v38.9c0,4.1,3.3,7.4,7.4,7.4h20.2
			c0.3,23.3,2.4,47.2,6.8,71.3h-30.1c-23.8-57.4-56.5-154.6-24-278.7L309,117.9L309,117.9z"/>
	</g>
	<g id="Layer_17_copy" display="inline">
	</g>
	<g id="Layer_19_copy" display="inline">
	</g>
	<g id="Layer_21_copy" display="inline">
	</g>
	<g id="Layer_23_copy" display="inline">
	</g>
	<g id="Layer_25_copy" display="inline">
	</g>
	<g id="Layer_27" display="inline">
	</g>
	<g id="Layer_29_copy" display="inline">
	</g>
	<g id="Layer_31_copy" display="inline">
	</g>
	<g id="Layer_33_copy" display="inline">
	</g>
	<g id="Layer_35_copy" display="inline">
	</g>
	<g id="Layer_37_copy" display="inline">
	</g>
	<g id="Layer_39_copy" display="inline">
	</g>
	<g id="Layer_41_copy" display="inline">
	</g>
	<g id="Layer_43_copy" display="inline">
	</g>
	<g id="Layer_48" display="inline">
	</g>
	<g id="Layer_45_copy" display="inline">
	</g>
	<g id="Layer_49_copy_2" display="inline">
	</g>
	<g id="Layer_51" display="inline">
	</g>
	<g id="Layer_53_copy" display="inline">
	</g>
	<g id="Layer_55_copy" display="inline">
	</g>
	<g id="Layer_57_copy" display="inline">
	</g>
	<g id="Layer_59_copy" display="inline">
	</g>
	<g id="Layer_61_copy" display="inline">
	</g>
	<g id="Layer_63_copy" display="inline">
	</g>
</g>
<g id="color">
	<g id="Layer_5">
	</g>
	<g id="Layer_6">
	</g>
	<g id="Layer_7">
	</g>
	<g id="Layer_11">
	</g>
	<g id="Layer_13">
	</g>
	<g id="Layer_15">
		<path fill="#FFFFFF" stroke="#000000" stroke-width="3" stroke-miterlimit="10" d="M36.3,314.1l56.3,96.7l260,0
			c83.9,0,120.2-43.8,120.2-90.8c0-31.1-22.1-56.3-44.6-67.8c-2.3-1.2-2-3.3-0.4-4.5c19.7-14.6,32.9-33.2,32.9-62.1
			c0-34.1-24.4-82-119.8-82H95l-55.7,97.1h40.9c4.6,0,8.3,3.7,8.3,8.3v96.9c0,4.5-3.7,8.2-8.3,8.2H36.3"/>
		<path fill="#F04E23" d="M282.6,235.8h-40.4v-38.9c0-4.1,3.3-7.4,7.4-7.4h33c19.3,0,26.5,9.9,26.5,22.7
			C309.2,225.9,302,235.8,282.6,235.8 M282.6,325.3h-33c-4.1,0-7.4-3.3-7.4-7.4V279h40.4c19.3,0,26.5,9.5,26.5,22.8
			C309.2,315.4,302,325.3,282.6,325.3z M397.9,254.4c-3-0.7-2.5-4.3-0.3-5.2c26.7-10.1,42.2-28.1,42.2-59.7
			c0.4-42.5-37.2-71.7-98.2-71.7H110.3l-40.6,71.7h27.9c5.5,0,10,4.5,10,10v115.7c0,5.5-4.5,10-10,10H70.1l40.9,71.3l241.7,0
			c69,0,97.4-45.8,97.4-79.6C450.1,287.3,428.2,261.7,397.9,254.4z"/>
		<path d="M189,376.3c-42.9-80.6-54.2-173.3-38.2-258.4h-40.5l-40.6,71.7h27.9c5.5,0,10,4.5,10,10v88.8
			C128.5,322.1,158.6,354.5,189,376.3 M391.3,125.8c-49.1,72.8-75.7,165.6-63.8,250.1c14.6-71.1,52.8-136.8,112.2-184.3
			c0-0.7,0.1-1.4,0.1-2.1C440.1,160.3,422.4,137.3,391.3,125.8z M309,117.9c-7.7,20.1-15.8,44.5-22.6,71.8c-1.2-0.1-2.5-0.1-3.8-0.1
			h-33c-4.1,0-7.4,3.3-7.4,7.4v38.9h34.7c-2.3,14-4.2,28.4-5.4,43.2h-29.3v38.9c0,4.1,3.3,7.4,7.4,7.4h20.2
			c0.3,23.3,2.4,47.2,6.8,71.3h-30.1c-23.8-57.4-56.5-154.6-24-278.7L309,117.9L309,117.9z"/>
	</g>
	<g id="Layer_17">
	</g>
	<g id="Layer_19">
	</g>
	<g id="Layer_21">
	</g>
	<g id="Layer_23">
	</g>
	<g id="Layer_25">
	</g>
	<g id="Layer_27_copy">
	</g>
	<g id="Layer_29">
	</g>
	<g id="Layer_31">
	</g>
	<g id="Layer_33">
	</g>
	<g id="Layer_35">
	</g>
	<g id="Layer_37">
	</g>
	<g id="Layer_39">
	</g>
	<g id="Layer_41">
	</g>
	<g id="Layer_43">
	</g>
	<g id="Layer_46">
	</g>
	<g id="Layer_45">
	</g>
	<g id="Layer_49">
	</g>
	<g id="Layer_51_copy">
	</g>
	<g id="Layer_53">
	</g>
	<g id="Layer_55">
	</g>
	<g id="Layer_57">
	</g>
	<g id="Layer_59">
	</g>
	<g id="Layer_61">
	</g>
	<g id="Layer_63">
	</g>
</g>
</svg>
