<?xml version="1.0" encoding="utf-8"?>
<!-- Generator: Adobe Illustrator 16.0.4, SVG Export Plug-In . SVG Version: 6.00 Build 0)  -->
<!DOCTYPE svg PUBLIC "-//W3C//DTD SVG 1.1//EN" "http://www.w3.org/Graphics/SVG/1.1/DTD/svg11.dtd">
<svg version="1.1" xmlns="http://www.w3.org/2000/svg" xmlns:xlink="http://www.w3.org/1999/xlink" x="0px" y="0px" width="512px"
	 height="512px" viewBox="0 0 512 512" enable-background="new 0 0 512 512" xml:space="preserve">
<g id="grids" display="none">
	<g id="svgGrid_10_" display="inline">
		<line fill="none" stroke="#B35047" x1="32" y1="0" x2="32" y2="512"/>
		<line fill="none" stroke="#B35047" x1="64" y1="0" x2="64" y2="512"/>
		<line fill="none" stroke="#B35047" x1="96" y1="0" x2="96" y2="512"/>
		<line fill="none" stroke="#B35047" x1="128" y1="0" x2="128" y2="512"/>
		<line fill="none" stroke="#B35047" x1="160" y1="0" x2="160" y2="512"/>
		<line fill="none" stroke="#B35047" x1="192" y1="0" x2="192" y2="512"/>
		<line fill="none" stroke="#B35047" x1="224" y1="0" x2="224" y2="512"/>
		<line fill="none" stroke="#B35047" x1="256" y1="0" x2="256" y2="512"/>
		<line fill="none" stroke="#B35047" x1="288" y1="0" x2="288" y2="512"/>
		<line fill="none" stroke="#B35047" x1="320" y1="0" x2="320" y2="512"/>
		<line fill="none" stroke="#B35047" x1="352" y1="0" x2="352" y2="512"/>
		<line fill="none" stroke="#B35047" x1="384" y1="0" x2="384" y2="512"/>
		<line fill="none" stroke="#B35047" x1="416" y1="0" x2="416" y2="512"/>
		<line fill="none" stroke="#B35047" x1="448" y1="0" x2="448" y2="512"/>
		<line fill="none" stroke="#B35047" x1="480" y1="0" x2="480" y2="512"/>
		<line fill="none" stroke="#B35047" x1="0" y1="32" x2="512" y2="32"/>
		<line fill="none" stroke="#B35047" x1="0" y1="64" x2="512" y2="64"/>
		<line fill="none" stroke="#B35047" x1="0" y1="96" x2="512" y2="96"/>
		<line fill="none" stroke="#B35047" x1="0" y1="128" x2="512" y2="128"/>
		<line fill="none" stroke="#B35047" x1="0" y1="160" x2="512" y2="160"/>
		<line fill="none" stroke="#B35047" x1="0" y1="192" x2="512" y2="192"/>
		<line fill="none" stroke="#B35047" x1="0" y1="224" x2="512" y2="224"/>
		<line fill="none" stroke="#B35047" x1="0" y1="256" x2="512" y2="256"/>
		<line fill="none" stroke="#B35047" x1="0" y1="288" x2="512" y2="288"/>
		<line fill="none" stroke="#B35047" x1="0" y1="320" x2="512" y2="320"/>
		<line fill="none" stroke="#B35047" x1="0" y1="352" x2="512" y2="352"/>
		<line fill="none" stroke="#B35047" x1="0" y1="384" x2="512" y2="384"/>
		<line fill="none" stroke="#B35047" x1="0" y1="416" x2="512" y2="416"/>
		<line fill="none" stroke="#B35047" x1="0" y1="448" x2="512" y2="448"/>
		<line fill="none" stroke="#B35047" x1="0" y1="480" x2="512" y2="480"/>
		<rect fill="none" stroke="#B35047" width="512" height="512"/>
	</g>
</g>
<g id="b_x26_w" display="none">
	<g id="Layer_9" display="inline">
	</g>
	<g id="Layer_6_copy" display="inline">
	</g>
	<g id="Layer_7_copy" display="inline">
	</g>
	<g id="Layer_11_copy" display="inline">
	</g>
	<g id="Layer_13_copy" display="inline">
	</g>
	<g id="Layer_15_copy" display="inline">
	</g>
	<g id="Layer_17_copy" display="inline">
	</g>
	<g id="Layer_19_copy" display="inline">
	</g>
	<g id="Layer_21_copy" display="inline">
	</g>
	<g id="Layer_23_copy" display="inline">
	</g>
	<g id="Layer_25_copy" display="inline">
		<path d="M371.2,128.7c-6.4-9-3.8-13.7,0.6-14.3c3.1-0.4,6.8,0,8.7,0c3.4,0,9.9,0.4,9.3-6.2c-0.6-7.5-2.2-14.6-4-23.3
			c-1.9-8.7-2.5-8.1-14.3-8.1c0,0-2.2-0.3-20.2,0.9c-18,1.2-32.3,3.7-33,28c-0.6,24.3,5,32.4,14.9,47.9c9.9,15.6,39.8,63.5,39.8,107
			c0,80-70.3,114.5-117.6,114.5c-47.3,0-117.6-34.4-117.6-114.5c0-43.6,29.9-91.5,39.8-107c10-15.6,15.6-23.6,14.9-47.9
			c-0.6-24.3-14.9-26.7-33-28c-18-1.2-20.2-0.9-20.2-0.9c-11.8,0-12.4-0.6-14.3,8.1c-1.9,8.7-3.4,15.9-4,23.3
			c-0.6,6.6,5.9,6.2,9.3,6.2c1.9,0,5.6-0.5,8.7,0c4.5,0.6,7,5.4,0.6,14.3c-25.7,36-52.9,80.5-52.9,133.8
			c0,87.7,75.3,174.8,168.6,174.8c93.3,0,168.6-87.1,168.6-174.8C424.1,209.2,397,164.7,371.2,128.7z M346,135
			c-2.8,0-5.1-2.3-5.1-5.1c0-2.8,2.3-5.1,5.1-5.1c2.8,0,5.1,2.3,5.1,5.1C351.1,132.7,348.8,135,346,135z M165,124.9
			c2.8,0,5.1,2.3,5.1,5.1c0,2.8-2.3,5.1-5.1,5.1c-2.8,0-5.1-2.3-5.1-5.1C159.9,127.2,162.2,124.9,165,124.9z M114.6,253.8
			c-2.8,0-5.1-2.3-5.1-5.1c0-2.8,2.3-5.1,5.1-5.1c2.8,0,5.1,2.3,5.1,5.1C119.7,251.6,117.4,253.8,114.6,253.8z M139.5,354
			c-2.8,0-5.1-2.3-5.1-5.1s2.3-5.1,5.1-5.1c2.8,0,5.1,2.3,5.1,5.1S142.3,354,139.5,354z M255.5,411.2c-2.8,0-5.1-2.3-5.1-5.1
			c0-2.8,2.3-5.1,5.1-5.1c2.8,0,5.1,2.3,5.1,5.1C260.6,409,258.3,411.2,255.5,411.2z M371.5,354c-2.8,0-5.1-2.3-5.1-5.1
			s2.3-5.1,5.1-5.1c2.8,0,5.1,2.3,5.1,5.1S374.3,354,371.5,354z M396.4,253.8c-2.8,0-5.1-2.3-5.1-5.1c0-2.8,2.3-5.1,5.1-5.1
			c2.8,0,5.1,2.3,5.1,5.1C401.5,251.6,399.2,253.8,396.4,253.8z"/>
		<g>
			<circle fill="#FFFFFF" cx="346" cy="129.9" r="5.1"/>
			<path fill="#FFFFFF" d="M346,129.9"/>
			<circle fill="#FFFFFF" cx="165" cy="129.9" r="5.1"/>
			<path fill="#FFFFFF" d="M109.5,248.8c0-2.8,2.3-5.1,5.1-5.1c2.8,0,5.1,2.3,5.1,5.1c0,2.8-2.3,5.1-5.1,5.1
				C111.8,253.8,109.5,251.6,109.5,248.8z"/>
			<circle fill="#FFFFFF" cx="139.5" cy="348.9" r="5.1"/>
			<path fill="#FFFFFF" d="M255.5,401.1c2.8,0,5.1,2.3,5.1,5.1s-2.3,5.1-5.1,5.1c-2.8,0-5.1-2.3-5.1-5.1S252.7,401.1,255.5,401.1z"
				/>
			<circle fill="#FFFFFF" cx="371.5" cy="348.9" r="5.1"/>
			<path fill="#FFFFFF" d="M371.5,348.9"/>
			<path fill="#FFFFFF" d="M391.4,248.8c0-2.8,2.3-5.1,5.1-5.1c2.8,0,5.1,2.3,5.1,5.1c0,2.8-2.3,5.1-5.1,5.1
				C393.6,253.8,391.4,251.6,391.4,248.8z"/>
		</g>
	</g>
	<g id="Layer_27" display="inline">
	</g>
	<g id="Layer_29_copy_2" display="inline">
	</g>
	<g id="Layer_31" display="inline">
	</g>
	<g id="Layer_33_copy" display="inline">
	</g>
	<g id="Layer_35_copy" display="inline">
	</g>
	<g id="Layer_37_copy" display="inline">
	</g>
	<g id="Layer_39_copy" display="inline">
	</g>
	<g id="Layer_41_copy" display="inline">
	</g>
	<g id="Layer_43_copy" display="inline">
	</g>
	<g id="Layer_48" display="inline">
	</g>
	<g id="Layer_45_copy" display="inline">
	</g>
	<g id="Layer_49_copy_2" display="inline">
	</g>
	<g id="Layer_51" display="inline">
	</g>
	<g id="Layer_53_copy" display="inline">
	</g>
	<g id="Layer_55_copy" display="inline">
	</g>
	<g id="Layer_57_copy" display="inline">
	</g>
	<g id="Layer_59_copy" display="inline">
	</g>
	<g id="Layer_61_copy" display="inline">
	</g>
	<g id="Layer_63_copy" display="inline">
	</g>
	<g id="Layer_64_copy" display="inline">
	</g>
	<g id="Layer_66_copy_2" display="inline">
	</g>
</g>
<g id="color">
	<g id="Layer_5">
	</g>
	<g id="Layer_6">
	</g>
	<g id="Layer_7">
	</g>
	<g id="Layer_11">
	</g>
	<g id="Layer_13">
	</g>
	<g id="Layer_15">
	</g>
	<g id="Layer_17">
	</g>
	<g id="Layer_19">
	</g>
	<g id="Layer_21">
	</g>
	<g id="Layer_23">
	</g>
	<g id="Layer_25">
		<path fill="#023A79" d="M371.2,128.7c-6.4-9-3.8-13.7,0.6-14.3c3.1-0.4,6.8,0,8.7,0c3.4,0,9.9,0.4,9.3-6.2
			c-0.6-7.5-2.2-14.6-4-23.3c-1.9-8.7-2.5-8.1-14.3-8.1c0,0-2.2-0.3-20.2,0.9c-18,1.2-32.3,3.7-33,28c-0.6,24.3,5,32.4,14.9,47.9
			c9.9,15.6,39.8,63.5,39.8,107c0,80-70.3,114.5-117.6,114.5c-47.3,0-117.6-34.4-117.6-114.5c0-43.6,29.9-91.5,39.8-107
			c10-15.6,15.6-23.6,14.9-47.9c-0.6-24.3-14.9-26.7-33-28c-18-1.2-20.2-0.9-20.2-0.9c-11.8,0-12.4-0.6-14.3,8.1
			c-1.9,8.7-3.4,15.9-4,23.3c-0.6,6.6,5.9,6.2,9.3,6.2c1.9,0,5.6-0.5,8.7,0c4.5,0.6,7,5.4,0.6,14.3c-25.7,36-52.9,80.5-52.9,133.8
			c0,87.7,75.3,174.8,168.6,174.8c93.3,0,168.6-87.1,168.6-174.8C424.1,209.2,397,164.7,371.2,128.7z M346,135
			c-2.8,0-5.1-2.3-5.1-5.1c0-2.8,2.3-5.1,5.1-5.1c2.8,0,5.1,2.3,5.1,5.1C351.1,132.7,348.8,135,346,135z M165,124.9
			c2.8,0,5.1,2.3,5.1,5.1c0,2.8-2.3,5.1-5.1,5.1c-2.8,0-5.1-2.3-5.1-5.1C159.9,127.2,162.2,124.9,165,124.9z M114.6,253.8
			c-2.8,0-5.1-2.3-5.1-5.1c0-2.8,2.3-5.1,5.1-5.1c2.8,0,5.1,2.3,5.1,5.1C119.7,251.6,117.4,253.8,114.6,253.8z M139.5,354
			c-2.8,0-5.1-2.3-5.1-5.1s2.3-5.1,5.1-5.1c2.8,0,5.1,2.3,5.1,5.1S142.3,354,139.5,354z M255.5,411.2c-2.8,0-5.1-2.3-5.1-5.1
			c0-2.8,2.3-5.1,5.1-5.1c2.8,0,5.1,2.3,5.1,5.1C260.6,409,258.3,411.2,255.5,411.2z M371.5,354c-2.8,0-5.1-2.3-5.1-5.1
			s2.3-5.1,5.1-5.1c2.8,0,5.1,2.3,5.1,5.1S374.3,354,371.5,354z M396.4,253.8c-2.8,0-5.1-2.3-5.1-5.1c0-2.8,2.3-5.1,5.1-5.1
			c2.8,0,5.1,2.3,5.1,5.1C401.5,251.6,399.2,253.8,396.4,253.8z"/>
		<g>
			<circle fill="#FFFFFF" cx="346" cy="129.9" r="5.1"/>
			<path fill="#FFFFFF" d="M346,129.9"/>
			<circle fill="#FFFFFF" cx="165" cy="129.9" r="5.1"/>
			<path fill="#FFFFFF" d="M109.5,248.8c0-2.8,2.3-5.1,5.1-5.1c2.8,0,5.1,2.3,5.1,5.1c0,2.8-2.3,5.1-5.1,5.1
				C111.8,253.8,109.5,251.6,109.5,248.8z"/>
			<circle fill="#FFFFFF" cx="139.5" cy="348.9" r="5.1"/>
			<path fill="#FFFFFF" d="M255.5,401.1c2.8,0,5.1,2.3,5.1,5.1s-2.3,5.1-5.1,5.1c-2.8,0-5.1-2.3-5.1-5.1S252.7,401.1,255.5,401.1z"
				/>
			<circle fill="#FFFFFF" cx="371.5" cy="348.9" r="5.1"/>
			<path fill="#FFFFFF" d="M371.5,348.9"/>
			<path fill="#FFFFFF" d="M391.4,248.8c0-2.8,2.3-5.1,5.1-5.1c2.8,0,5.1,2.3,5.1,5.1c0,2.8-2.3,5.1-5.1,5.1
				C393.6,253.8,391.4,251.6,391.4,248.8z"/>
		</g>
	</g>
	<g id="Layer_27_copy">
	</g>
	<g id="Layer_31_copy_2">
	</g>
	<g id="Layer_29">
	</g>
	<g id="Layer_33">
	</g>
	<g id="Layer_35">
	</g>
	<g id="Layer_37">
	</g>
	<g id="Layer_39">
	</g>
	<g id="Layer_41">
	</g>
	<g id="Layer_43">
	</g>
	<g id="Layer_46">
	</g>
	<g id="Layer_45">
	</g>
	<g id="Layer_49">
	</g>
	<g id="Layer_51_copy">
	</g>
	<g id="Layer_53">
	</g>
	<g id="Layer_55">
	</g>
	<g id="Layer_57">
	</g>
	<g id="Layer_59">
	</g>
	<g id="Layer_61">
	</g>
	<g id="Layer_63">
	</g>
	<g id="Layer_64">
	</g>
	<g id="Layer_66_copy">
	</g>
</g>
</svg>
