<?xml version="1.0" encoding="utf-8"?>
<!-- Generator: Adobe Illustrator 16.0.4, SVG Export Plug-In . SVG Version: 6.00 Build 0)  -->
<!DOCTYPE svg PUBLIC "-//W3C//DTD SVG 1.1//EN" "http://www.w3.org/Graphics/SVG/1.1/DTD/svg11.dtd">
<svg version="1.1" xmlns="http://www.w3.org/2000/svg" xmlns:xlink="http://www.w3.org/1999/xlink" x="0px" y="0px" width="512px"
	 height="512px" viewBox="0 0 512 512" enable-background="new 0 0 512 512" xml:space="preserve">
<g id="grids" display="none">
	<g id="svgGrid_31_" display="inline">
		<line fill="none" stroke="#B35047" x1="32" y1="0" x2="32" y2="512"/>
		<line fill="none" stroke="#B35047" x1="64" y1="0" x2="64" y2="512"/>
		<line fill="none" stroke="#B35047" x1="96" y1="0" x2="96" y2="512"/>
		<line fill="none" stroke="#B35047" x1="128" y1="0" x2="128" y2="512"/>
		<line fill="none" stroke="#B35047" x1="160" y1="0" x2="160" y2="512"/>
		<line fill="none" stroke="#B35047" x1="192" y1="0" x2="192" y2="512"/>
		<line fill="none" stroke="#B35047" x1="224" y1="0" x2="224" y2="512"/>
		<line fill="none" stroke="#B35047" x1="256" y1="0" x2="256" y2="512"/>
		<line fill="none" stroke="#B35047" x1="288" y1="0" x2="288" y2="512"/>
		<line fill="none" stroke="#B35047" x1="320" y1="0" x2="320" y2="512"/>
		<line fill="none" stroke="#B35047" x1="352" y1="0" x2="352" y2="512"/>
		<line fill="none" stroke="#B35047" x1="384" y1="0" x2="384" y2="512"/>
		<line fill="none" stroke="#B35047" x1="416" y1="0" x2="416" y2="512"/>
		<line fill="none" stroke="#B35047" x1="448" y1="0" x2="448" y2="512"/>
		<line fill="none" stroke="#B35047" x1="480" y1="0" x2="480" y2="512"/>
		<line fill="none" stroke="#B35047" x1="0" y1="32" x2="512" y2="32"/>
		<line fill="none" stroke="#B35047" x1="0" y1="64" x2="512" y2="64"/>
		<line fill="none" stroke="#B35047" x1="0" y1="96" x2="512" y2="96"/>
		<line fill="none" stroke="#B35047" x1="0" y1="128" x2="512" y2="128"/>
		<line fill="none" stroke="#B35047" x1="0" y1="160" x2="512" y2="160"/>
		<line fill="none" stroke="#B35047" x1="0" y1="192" x2="512" y2="192"/>
		<line fill="none" stroke="#B35047" x1="0" y1="224" x2="512" y2="224"/>
		<line fill="none" stroke="#B35047" x1="0" y1="256" x2="512" y2="256"/>
		<line fill="none" stroke="#B35047" x1="0" y1="288" x2="512" y2="288"/>
		<line fill="none" stroke="#B35047" x1="0" y1="320" x2="512" y2="320"/>
		<line fill="none" stroke="#B35047" x1="0" y1="352" x2="512" y2="352"/>
		<line fill="none" stroke="#B35047" x1="0" y1="384" x2="512" y2="384"/>
		<line fill="none" stroke="#B35047" x1="0" y1="416" x2="512" y2="416"/>
		<line fill="none" stroke="#B35047" x1="0" y1="448" x2="512" y2="448"/>
		<line fill="none" stroke="#B35047" x1="0" y1="480" x2="512" y2="480"/>
		<rect fill="none" stroke="#B35047" width="512" height="512"/>
	</g>
</g>
<g id="b_x26_w" display="none">
	<g id="Layer_9" display="inline">
	</g>
	<g id="Layer_6_copy" display="inline">
	</g>
	<g id="Layer_7_copy" display="inline">
	</g>
	<g id="Layer_11_copy" display="inline">
	</g>
	<g id="Layer_13_copy" display="inline">
	</g>
	<g id="Layer_15_copy" display="inline">
	</g>
	<g id="Layer_17_copy" display="inline">
	</g>
	<g id="Layer_19_copy" display="inline">
	</g>
	<g id="Layer_21_copy" display="inline">
	</g>
	<g id="Layer_23_copy" display="inline">
	</g>
	<g id="Layer_25_copy" display="inline">
	</g>
	<g id="Layer_27" display="inline">
	</g>
	<g id="Layer_29_copy_2" display="inline">
	</g>
	<g id="Layer_31" display="inline">
	</g>
	<g id="Layer_33_copy" display="inline">
	</g>
	<g id="Layer_35_copy" display="inline">
	</g>
	<g id="Layer_37_copy" display="inline">
	</g>
	<g id="Layer_39_copy" display="inline">
	</g>
	<g id="Layer_41_copy" display="inline">
	</g>
	<g id="Layer_43_copy" display="inline">
	</g>
	<g id="Layer_48" display="inline">
	</g>
	<g id="Layer_45_copy" display="inline">
	</g>
	<g id="Layer_49_copy_2" display="inline">
	</g>
	<g id="Layer_51" display="inline">
	</g>
	<g id="Layer_53_copy" display="inline">
	</g>
	<g id="Layer_55_copy" display="inline">
	</g>
	<g id="Layer_57_copy" display="inline">
	</g>
	<g id="Layer_59_copy" display="inline">
	</g>
	<g id="Layer_61_copy" display="inline">
	</g>
	<g id="Layer_63_copy" display="inline">
	</g>
	<g id="Layer_64_copy" display="inline">
	</g>
	<g id="Layer_66_copy_2" display="inline">
		<path fill="#231F20" d="M397.3,313.4c0,0,31.1-8.7,46-33.5c17.4-3.6,35.9-22.9,35.9-40c0-21.4-16.1-30.9-16.1-30.9
			s-5.9-15.2-28.3-29.9c0,0,6.2-7.2,6.2-15.2c0-8.1-6.2-13.1-17.3-21.2c-11.1-8.1-21.9-12.1-35.6-20.6s-44-23.1-63.5-27.4
			S293,89,282,89c-22.5,0-31,3.6-31,3.6s-6.8-2.9-22.1-2.9c-15.2,0-24.5,1.2-56.9,10.1c-32.5,8.8-57.5,14.9-83.9,16.6
			c-26.4,1.7-38.5,3-46.7,3c-8.2,0-9.4,11.4-9.4,14.7c0,22.1,28.9,51.1,44.4,59.4c0,0-1.3,8.3-1.3,15.7c0,7.4,2.3,36.7,27,65
			c32.8,34.6,64.9,39.3,86.7,53.4c21.8,14.1,29.2,29.5,40.7,46.9c17.5,29.4,47.1,49.4,79.1,49.4c52.1,0,75.6-50.7,75.6-61.6
			c0-7.2-8.7-8.6-8.7-8.6s6.7-20.8,1.5-40c0,0-6.9,11.8-18.2,24.4c0,0-13.5-11.7-10.8-24.9c0,0,11-3.2,20.7-13.1
			c0,0,14.9-2.5,25.5-14.1c0,0,1.8,3.1,3.6,5l6.9-5.1l0.4,6.7l3.1-0.7C408.3,291.9,406.4,300.8,397.3,313.4z"/>
		<path fill="#FFFFFF" d="M345,348.3c0,0,2.1-7.2-7.4-12.8c0,0,1.1,5.2,0.6,8.6L345,348.3z"/>
		<path fill="#FFFFFF" d="M389.9,223.4c10.7-0.6,24.4,2.3,24.1,13c0,0,3.8,5.3,7,12.3c0,0,8.1-6.3,11.3-16.4
			C404.4,219.5,395.9,218.9,389.9,223.4z"/>
		<path fill="#FFFFFF" d="M371.6,221.1l21.6,17.7l-30,11.2c0,0,2.4-7.1,0.5-8.1c-21.6-12-58.6-22.7-95.9-29.8
			c-37.3-7.1-56.9-7.6-56.9-7.6l12.6,2.5l13,5.3l-44.4,3.2v9.3l-13.6,1.3c-3.1-6.7-6.5-4.5-10.6-7.2c-3.3-2-4.8-6.2-5.2-7.8
			s-2.4-1.5-6.2-2.6c-3.8-1.1-5.3-0.2-6.1,1.2s3.3,1.2,3.3,1.2c-1.4,1.5-7.6,2-7.6,2l-0.1,0.5l3.6,0.6c-1.1,1.2-1.9,5.2,0.5,7.4
			c2.4,2.2,5.4,0.1,5.4,0.1s-1.6,2.3-1.1,3.1c0.6,0.8-1.9,3.2-1.9,5.6c0,4.5,5.6,6.7,5.6,6.7l-24.6,9.9l-2.1,3.9c0,0,0.3,3.6-2.2,5
			c-2.5,1.4-2.6,2.5-3.4,3.4c-0.8,0.9-9,7-9,7c-6.3-6.4-7.6-9.5-7.6-9.5c4.9-4.3,4.7-9.6,4.7-9.6l-4.1-0.6c4.7-2.9,5.2-5.3,5.2-5.3
			c-0.9,1.2-2.7,0.4-2.7,0.4c-0.9-4.4-3.9-4.7-5-7.8c-1.1-3.1-5.4-2.1-5.4-2.1c0.9-1.4,3.3-3.1,3.3-3.1c1.3-5.7,2.9-6,2.9-8
			c0-4.2-7.9-5-8.2-4s1.6,2,1.6,2c-3.9,1.1-7,3.4-7,3.4c-3.3-25.3,1.2-30,1.2-30c21.7-0.8,32.2-11.9,32.2-11.9l-10.1,0.4l-8.1-4.2
			l17.9-6.1c28.5-0.7,49.1-20.1,49.1-20.1S159.8,160,141.7,160c-13.8,0-29.8-5.3-43.3-16.4l-0.5-2.2c3.3-0.5,2.6-2.3,3.9-3.9
			c1.3-1.6,3.7-0.7,3.6-1.3c-0.1-0.7-1.6-0.8-1.6-0.8l-0.1-1.2c0,0,4.8,0,4.8-2.1c0-2.1-3.4-0.3-7.9-2.5l-2.5-5.8
			c18.8-1.1,40.4-7,40.4-7c1.7,3.3,5.2,3.8,5.2,3.8l-2.9,1.7c0,0,2.6,0.5,4,0.3c1.4-0.2,2.2-0.8,4.3-0.7c2.1,0.1,5.1,0.4,4.6-1.3
			c-0.5-1.7-3.8-3-3.8-3l0.3-0.8l4.9,1.3c-1.3-2.5,0.1-5.1,0.1-5.1l41.2-9.3c0,0,2.5,6.1,7.1,5.9c7.2-1,6.3,1.6,10,1.9
			c-1.9-1.9-4.3-6.6-4.3-6.6l0.6-0.4l4.5,3.6c4.4-3.8,9.7-1.8,10-2.6c0.3-0.8-2.4-2.8-1.9-3.4c0.5-0.6,3.7,2.9,4.5,2.3
			c0.9-0.6-1.3-5.5-1.3-5.5c13.9-0.9,35.6,1.5,35.6,1.5l0.2,0.8c-4.1,0.9,0.7,5.4,0.7,5.4l-1.2,0.4c0,0-2.5-2.6-3.6-2.6
			c-1.1,0-2,1-2,2.7c0,1.7,3.7,3.8,6.2,3.8s4.5-1.3,4.5-1.3c0,1.1,6.4,0.6,6.2-1s-3.8-4.4-3.8-4.4l6.8,3.3l2.5-4.1
			c18.3,3.8,27.8,7.4,27.8,7.4s-2.8,0.3-4.7,1.7c-1.4,0.8,0,2.8,0,2.8c-1.3-0.7-1.9,0.5-1.9,0.5c1.7,3.7,5.7,3.2,5.7,3.2l-0.8-1.7
			c1.9,0,2.5,1.7,2.5,1.7s2.6-0.1,5.1-0.3c2.5-0.2,5,1.9,5,1.9l-0.5-1.6l1.8-2.3l1.3,1.6h3.4l3.5,3.1l0.5-2.8
			c0.4,1.2,1.8,1.6,1.8,1.6c0.4-0.8,2.3-1.9,2.3-1.9c-0.6-1.9,3.7-4.6,3.7-4.6c0.6-4.4-5.1-5-6.4-4.7c-1.3,0.3-0.3,1.9-1.2,2.1
			s-1-2.1-1.6-2c-0.7,0.1-0.4,1.9-0.4,1.9s-2.9-0.3-3.8,0.4c-0.9,0.7-3.1,4-3.1,4l-16.6-8.4l4.6-1.7l0.9,1.1c1.8-9-9-8.3-9.7-8.1
			c-0.7,0.2,1.3,4.4,0.4,4.7c-1,0.3-3-3.1-3.8-3.1c-0.8,0-4.6,2.5-4.6,2.5c-3.9-2.2-15.1-4-15.1-4s7.1-1.8,16.2-1.8
			c29.1,0,51.8,10.5,58.8,13.7c7,3.2,7.2,5.8,7.2,5.8c-1.3-0.8-3.1-1.2-3.1-1.2c-0.2,2,11.4,6.7,11.4,6.7c-2.7-3-1.9-4.3-1.9-4.3
			c3.3,3.8,5,2.4,6,2.9c1,0.5,35.9,19.2,39.6,21.4c3.8,2.1,4,4.4,3,4.9c-1.1,0.5-2.4-2.2-2.4-2.2c-1.5,1.4-1.5,4.9-0.5,5.2
			c1.1,0.3,0-1,1.4-0.8c1.4,0.2,1.1,1.3,3.5,1.9c2.4,0.6,5,2.2,5,2.2l0.2-2.6l3.9,4.9c5.5-0.4,9.2,4.5,9.2,9.9s-3.5,8.1-3.5,8.1
			c-21.4-15.4-37.9-20.3-37.9-20.3c11.7,6,32.1,23.4,38.3,30.5c6.2,7.1,7.3,9.2,7.3,12.6s-2.2,5.8-2.2,7.3s0.9,3.1,2.5,3.1
			c2.8,0,7.8-6.3,7.8-6.3s9.1,6.5,9.1,14.7s-10.3,5-18.6,12.1c0,0-20.8-8.8-45.4-11.5c-21.7-2.4-34.1-1-34.1-1L371.6,221.1z"/>
		<path fill="#FFFFFF" d="M101.1,145.7c12.9,9.7,27.8,14.3,40.7,14.3c18.1,0,34.8-10.3,34.8-10.3s-20.6,19.4-49.1,20.1l-17.9,6.1
			l8.1,4.2l10.1-0.4c0,0-10.5,11.2-32.2,11.9c0,0-4.4,4.7-1.2,30c0,0,3.1-2.3,7-3.4c0,0-1.9-1.1-1.6-2s8.2-0.2,8.2,4
			c0,2-1.5,2.3-2.9,8c0,0-2.4,1.6-3.3,3.1c0,0,4.3-1,5.4,2.1c1.1,3.1,4.1,3.4,5,7.8c0,0,1.8,0.8,2.7-0.4c0,0-0.5,2.4-5.2,5.3
			l4.1,0.6c0,0,0.2,5.3-4.7,9.6c0,0,1.3,3.1,7.6,9.5c0,0,8.3-6.2,9-7c0.8-0.9,0.9-1.9,3.4-3.4c2.5-1.4,2.2-5,2.2-5l2.1-3.9l24.6-9.9
			c0,0-5.6-2.2-5.6-6.7c0-2.4,2.5-4.8,1.9-5.6c-0.6-0.8,1.1-3.1,1.1-3.1s-3,2.1-5.4-0.1c-2.4-2.2-1.5-6.3-0.5-7.4l-3.6-0.6l0.1-0.5
			c0,0,6.2-0.5,7.6-2c0,0-4,0.2-3.3-1.2s2.3-2.2,6.1-1.2c3.8,1.1,5.8,1,6.2,2.6s1.9,5.8,5.2,7.8c4.1,2.7,7.5,0.5,10.6,7.2l13.6-1.3
			v-9.3l44.4-3.2l-13-5.3l-12.6-2.5c0,0,19.6,0.5,56.9,7.6c8,1.5,16,3.2,23.8,5.1c0,0-6.9-7.4-14.4-13.6c0,0-28.7-8.3-67.8-13.7
			c0,0,21.2,0.7,60.1,8.6c-13.5-11-24.8-14-24.8-19c0-3.2,6.3-8.2,6.3-8.2l9.1-7.2l20.3-7.8l-0.6-5.8l1.6-1.3c0,0-1.5-3.9,3-3.6
			l0.3-0.3c0,0-18.5-7-62-7.4l4.4,4.4c0,0-4.8,0.3-8.8-0.3c0,0-1.7,3.6,1,8.7l-4.6-0.3l6.3,3.1c0,0-3.8-0.3-4.1,3.8
			c0.1,3.4-5.3,3.6-5.3,3.6l0.6,2.2l-3.7-1.7l2.2,2.7c-10.1,0.6-13.2-1.7-11-4.7c0.9-1.1,0.1-2.5-1.8-4.2l0.1-1.9c0,0,4.8,0.8,6.3,1
			c0,0-1.7-1.6-6.3-3.1c0.6-2.7,2.8-1.4,4.3-5.1c0,0,2.9,0.7,5,1.6c0,0-1-2-6.6-3.6c0,0,3-0.3,5.1-0.5c2.1-0.2,2.1-2,2.1-2
			c-20.6,1.5-41.2,7.8-53.6,11l4.2-4.5c0,0-13.2,3.7-24.7,3.7S111.6,148.4,101.1,145.7z"/>
		<path fill="#FFFFFF" d="M393.2,215.7c-1.5-0.2-3-0.4-4.5-0.6c-16.5-1.8-27.7-1.4-32-1.1l-1.9-0.9c0,0-5.7-8.8-15.8-11.2
			c0,0,10-3.6,23.1-3.6c13.1,0,21.2,4.4,26.8,4.4c5,0,4.3-3.1,4.3-3.1c2.8,2.5,0.9,6.7-5.1,7.1C388.1,206.5,388.5,211,393.2,215.7z"
			/>
		<path fill="none" stroke="#231F20" stroke-width="0.1" d="M429.6,159c1,1.7,1.6,3.7,1.6,5.9c0,5.4-3.5,8.1-3.5,8.1
			c-5.8-4.2-11.2-7.5-16-10.3C422.2,163.6,426.7,163,429.6,159z"/>
		<path fill="#FFFFFF" d="M245.7,253.2c25.1,9.9,22,34.5,23.4,49.6c0.3,27.8,4.7,44.3,29.7,56.8c0,0,20.3-10.9,26.3-29.7
			c-13.4-8.9-12.6-24.3-12.6-32.3c0-21.2-4.8-37.5-28.4-41.6c16.4,11.2,16.9,47.9,16.9,52.9c0,16.9,5,24.6,5,24.6
			s-8.4-2.4-10.9-29.4C293.8,257.3,266.2,247.2,245.7,253.2z"/>
		<path fill="#231F20" d="M320.6,190c0,0,11.2-6.4,24.6-6.4c14.5,0,28.2,3.4,28.2,3.4s3.6-3.7,3.6-11.6c0-12.8-11.4-20.6-11.4-20.6
			s3.5,5.8,3.5,13.5c0,9.1-7.7,13.3-16.4,13.3c-13,0-23.7-7.1-23.7-7.1l-17.1-7l-3.4-6.4l0.4-5.8c0,0,1.3-2.1,3.2-2.6l-0.4-2.1
			l1.8,1.7c0,0,5.3-1.8,5.3-5.9c0-2.4-2.5-3.7-4.4-3.7s-2.3,0.8-3.7,0.8c-1.4,0-1-1.4-3.5-0.1c-2.5,1.3-10.2,3.8-10.2,3.8
			s-4.2,1.2-6.1-1.7c-1.9-2.9-4.5-3-5.9-3c-3.6,0.6-0.3,2.6-0.3,2.6l-0.3,0.3c0,0-3.8-0.6-3.2,3l-3.7,11.1l-19.9,5.2l-7.2,7.4
			l0.1,0.7c0,0,8.6-3,18.3-2.2l7.3,10L291,189l12.3,3.2l8.2,3c0,0,9.9,4.6,24.4,19C335.9,214.3,335.7,206.5,320.6,190z"/>
		<path fill="#FFFFFF" d="M311.5,153c-1.5,0.8-2.5,2.3-2.5,2.3l-0.4,5.8l3.4,6.4l17.1,7c0,0,10.7,7.1,23.7,7.1
			c4.9,0,9.5-1.3,12.5-4.1c0,0-3.2,1.5-8.3,1.5s-9.2-1.9-19.5-9.8S318.2,155.7,311.5,153z"/>
		<path fill="#FFFFFF" d="M372.6,162.1c2.3,3.4,4.4,7.9,4.4,13.3c0,7.9-3.6,11.6-3.6,11.6s-13.8-3.4-28.2-3.4
			c-13.3,0-24.6,6.4-24.6,6.4s12.9-0.5,16.3,12.4c0,0,19.6-13.5,49-12.1C385.3,179.8,378.9,169.5,372.6,162.1z"/>
		<path fill="#231F20" d="M393.2,199.5c0,0,0.7,3.1-4.3,3.1c-5.7,0-13.8-4.4-26.8-4.4c-13.1,0-23.1,3.6-23.1,3.6l-1-0.2
			c2.1-1.3,7.2-4.1,14.7-6.7C365.2,190.9,385.8,192.4,393.2,199.5z"/>
		<path fill="#231F20" d="M277.3,203.5c0,0-28.7-8.3-67.8-13.7c0,0,21.2,0.7,60.1,8.6c32.6,6.2,76.9,20.5,92.8,29.6
			c1.9,2.1,1.7,1.8,1.7,3.6s-1.9,2.5-3.3,2.5c-1.4,0-1.4,0.2-7.1-2.8C348.1,228.4,320,215.3,277.3,203.5z"/>
		<path fill="#231F20" d="M391,141.8c-0.2,0.4-0.5,0.4-0.8,0.6c-0.3,0.2-0.7,0.4-1.1,0.5c-0.7,0.1-1.7,0.1-2.1,0.9
			c0.3,0.1,0.4,0.7,0.5,0.9c0.2,0.3,0.4,0.7,0.7,0.9c0.6,0.6,1.4,1.1,1.8,1.8c-0.5,0.1-1.1-0.4-1.5-0.6c-0.4-0.2-1.1-0.2-1.4-0.5
			c0,1,0.7,1.7,1.3,2.3c0.9,0.9,2.1,1.5,3.3,1.8c0.3,0.1,0.6,0.2,0.9,0.3c0.4,0.1,0.8,0.1,1.2,0.2c0.6,0.2,1.1,0.6,1.6,0.8
			c0.3,0.1,0.6,0.1,0.9,0.2c0.2,0,0.8,0.3,1,0.2c0.2-0.1-0.2-0.9-0.3-1.1c-0.2-0.4-0.7-0.8-0.9-1.2c-0.5-0.9,0.2-0.7,0.8-0.4
			c0.6,0.3,1.1,0.7,1.6,1c0.4,0.3,1.4,0.9,1.9,0.9c0.1-0.8,0-1.8-0.4-2.5c-0.4-0.9-0.6-1.9-1.3-2.7c-0.6-0.7-1.4-1.2-2.2-1.7
			c-0.4-0.2-0.7-0.5-1.1-0.7c-0.2-0.1-0.7-0.3-0.8-0.3c-0.2,0-0.2,0.4-0.4,0.5c-0.7,0.3-1.2-0.3-1.6-0.8c-0.3-0.5-0.6-0.9-0.9-1.3
			L391,141.8z"/>
		<path fill="#231F20" d="M372.6,126.3c0,0.5,0.3,1.4-0.1,1.8c-0.6,0.5-1.5-0.1-2.1-0.4c-0.4-0.2-1.4-0.8-1.6-0.1
			c-0.1,0.4,0.6,1.2,0.8,1.7c0.5,0.2,0.7,1.1,0.6,1.6c-0.3,0.1-0.9,0-1.1-0.3c-0.6-0.1-1.2-0.6-1.6-1.1c-0.1,0.3,0.3,0.8,0.4,1
			c0.2,0.5,0.5,0.7,0.9,1c0.6,0.5,1.3,1,1.9,1.6c0.7,0.6,1.4,1.1,2.3,1.1c1.3,0,2.2,0.1,3.4,0.5c0.6,0.2,1.3,0.5,1.6,1.1
			c0.4,0.7,0.8,1.2,1.4,1.7c0.9,0.7,1.7,1.4,2.7,1.9c0.4,0.2,2.4,0.9,2.5,0.1c-0.2-0.2-0.6-0.7-0.6-1c-0.4-0.3-0.8-1.2-0.9-1.7
			c-0.1-0.5-0.1-0.6,0.4-0.6c0.5,0,0.6,0,0.9,0.3c0.4,0.5,0.6,1.1,1,1.6c0.3,0.4,1,0.8,1.5,0.9c0.4-0.5,0.1-0.7,0.1-1.3
			c0-0.5,0.1-1.1-0.1-1.5c-0.2-0.3-0.5-0.5-0.8-0.7c-0.1-0.1-0.7-0.2-0.8-0.3c-0.4-0.5,0.6-0.8,0.9-0.9c0-0.8-0.2-1.8-0.8-2.3
			c-0.5-0.4-1.3-1.1-1.5-1.8c-0.6-0.1-0.6,0.5-0.9,0.7c-0.5,0.2-0.9-0.2-1.2-0.5c-0.6-0.6-1.3-1-1.9-1.7c-0.4-0.5-0.7-0.9-1.3-1.1
			c-0.5-0.2-1.3-0.1-1.8-0.1c-0.6,0-1.1,0.2-1.6,0.4c-0.4,0.1-0.9,0.3-1.2-0.1c-0.2-0.3-0.2-0.9-0.5-1.2L372.6,126.3z"/>
		<path fill="#231F20" d="M358.1,137.8c0.2,0.2,0.7,0.5,1,0.7c0.2,0.2,0.6,0.6,0.9,0.6c0.7,0.7-0.9,1.4-1.2,1.7
			c-0.5,0.5-1.5,1.3-1.1,2.1c0.1,0.3,0.4,0.7,0.5,1.1c0.1,0.5,0,1,0.2,1.5c0.2,0.6,1.2,1.8,1.8,2c0.7,0.2,0.9-0.6,1.3-0.9
			c0.3-0.2,0.9-0.1,1.2,0c0.5,0.1,0.9,0.3,1.4,0.3c0.3,0,2.1,0.1,1.4,0.7c-0.5,0.5-1.6-0.2-2.1,0.2c0,0.4,0.7,0.5,0.9,0.6
			c0.3,0.2,0.7,0.4,1,0.7c0.5,0.4,0.8,0.6,1.5,0.7c0.4,0.1,0.8,0,1.2-0.1c0.4-0.1,0.7-0.3,1-0.4c0.4-0.1,0.9-0.1,1.4-0.1
			c0.6-0.1,0.9-0.1,1.4,0.1c0.5,0.2,1,0.5,1.5,0.7c-0.2-0.2-0.4-0.8-0.6-1.2c-0.2-0.3-0.4-1-0.3-1.3c0.2-0.5,0.9-0.3,1.1-0.9
			c0.1-0.5-0.2-0.8-0.4-1.2c-0.2-0.6-0.2-0.8-0.7-1.2c-0.3-0.3-0.7-0.5-0.9-0.8c-0.3-0.3-0.2-0.4-0.4-0.7c-0.4-0.9-1.1-1.6-1.8-2.2
			c-0.8-0.6-1.7-0.9-2.5-1.3c-0.5-0.2-0.8-0.6-1.4-0.6c-0.4,0-1.2-0.1-1.2,0.3c0,0.3,0.5,0.8,0.5,1.1c0.1,0.7-0.3,0.8-0.8,0.6
			c-0.8-0.3-1.3-0.8-1.9-1.3c-0.5-0.3-0.9-0.5-1.4-0.8c-0.5-0.3-0.9-0.7-1.4-1L358.1,137.8z"/>
		<path fill="#231F20" d="M349.2,148.3c0-0.1,0-0.2-0.2-0.2c0,0,0-0.1,0-0.1c-0.3,0.1-0.6-0.7-0.8-0.9c-0.2-0.4-0.4-0.7-0.8-1
			c-0.7-0.5-1.5-1-2.2-1.5c-0.8-0.5-1.6-1.2-2.1-1.9c-0.2-0.3-0.3-0.7-0.6-1c-0.2-0.3-0.7-0.5-1.1-0.6c-1.1-0.2-2.3,0.6-3,1.3
			c-0.5,0.4-1,1.4-1.7,1.3c-1-0.1-1.9-0.7-2.9-0.8c-0.1,1.6,1.8,1.4,2.4,2.5c0,0,0.1,0,0.1,0c0.2,0.4,0.4,0.8,0,1.2
			c-0.4,0.3-1-0.1-1.5-0.3c-0.2-0.1-0.4-0.3-0.6-0.4c-0.3-0.1-0.4-0.4-0.7-0.5c-0.4-0.2-1,0.2-1,0.7c0,0.2,0.2,0.4,0.3,0.7
			c0,0.2,0,0.5,0,0.7c0,0.4-0.1,0.7-0.4,1c-0.3,0.4-0.8,0.5-0.7,1.1c0.1,0.6,0.9,0.9,1.4,1.2c0.4,0.2,0.8,0.5,0.9,0.9
			c0.2,0,0.3,0.3,0.2,0.4c-0.5,0.3-1.1-0.2-1.7-0.3c-0.5-0.1-1-0.1-1.5-0.1c-0.5,0.9,1.3,1.9,2,2.1c1,0.4,2.1,0.3,3.2,0.3
			c0.7,0,1.4,0.2,2.1,0.2c0.6,0,1.2,0.1,1.9,0c0.6,0,1-0.2,1.6-0.5c0.6-0.3,0.8-0.6,1.2-1.1c0.6-0.8,1.3-1.5,1.9-2.2
			c0.5-0.6,1.5-1.4,0.8-2.2c-0.3-0.4-0.8-0.6-1.1-0.8c-0.3-0.2-0.8-0.9-0.4-1.3c0.2-0.2,1,0,1.2,0.1c0.4,0.2,0.8,0.5,1.3,0.8
			c0.3,0.2,0.6,0.3,0.8,0.5c0.2,0.2,1,0.4,1,0.5L349.2,148.3z"/>
		<path fill="#231F20" d="M333.6,127.9c0.2,0.2,0.4,0.3,0.6,0.4c0.3,0,0.7,0.6,0.9,0.7c0.3,0.3,0.5,0.6,0.8,0.8
			c0.3,0.2,0.5,0.4,0.8,0.6c0.3,0.2,0.7,0.3,0.9,0.7c0.4,0,1.3,0.4,1.7,0.6c0.5,0.2,1.1,0.4,1.6,0.6c1.4,0.5,3,0.8,4.5,0.7
			c0.1-0.6,0.1-1.2-0.3-1.7c-0.4-0.5-1-0.9-1-1.5c0.9-0.5,2.2,1,2.8,1.5c0.8,0.8,1.8,1.5,2.5,2.2c0.4,0.1,0.9,0.2,1.3,0.1
			c0.5-0.1,0.6-0.4,0.9-0.8c0.8-0.8,2-0.6,3-0.6c1.1,0,1.9-0.6,2.2-1.6c0.1-0.4,0.2-1,0.1-1.5c-0.1-0.4-0.4-0.8-0.6-1.1
			c-0.3-0.5-0.9-1-1.4-1.4c-0.6-0.4-1.8-0.7-2.1-1.4c-0.4-0.8,0.6-0.8,1.1-0.6c0.4,0.1,1.1,0.9,1.6,0.6c-0.1-0.3-0.6-0.5-0.9-0.7
			c-0.4-0.3-0.7-0.6-1-0.9c-0.7-0.7-1.3-1-2.3-1c-0.9,0-1.8,0.3-2.6,0.5c-0.6,0.1-2.3-0.1-2.6,0.4c0.4,0.5,2.5,1.6,2,2.5
			c-0.2,0.4-1.2,0.4-1.5,0.2c-0.3-0.1-0.5-0.5-0.8-0.6c-0.3-0.2-0.8-0.3-0.9-0.6c-0.4-0.1-0.8-0.5-1.2-0.8c-0.4-0.3-0.8-0.5-1.3-0.7
			c-0.9-0.3-2.2-0.5-3.2-0.3c-0.4,0.1-1.1,0.4-1.5,0.6c-0.4,0.3-0.7,0.7-1.2,1c-0.5,0.3-1.2,0.4-1.6,0.8c-0.5,0.4,0.1,0.8,0.5,1.2
			c0.3,0.3,0.7,0.5,0.9,0.9c0.2,0.3,0.1,0.7,0.3,1c-0.5,0.2-1.5-0.1-1.8-0.6L333.6,127.9z"/>
		<path fill="#231F20" d="M307.3,127.1c0.3-0.2,1.1,0.4,1.3,0.6c0.3,0.2,0.9,0.6,1,0.8c0.4,0.8-1.3,1.4-1.8,1.6
			c-0.6,0.4-1.6,0.7-1.9,1.4c-0.3,0.8,0.8,1.5,0.9,2.2c0,0.3,0,0.7-0.1,1c-0.7,0.2-1.5-0.4-2-0.7c-0.5-0.3-1.1-0.5-1.7-0.8
			c0,0.7,1,1.6,1.6,1.8c0.2,0.5,0.9,0.6,1.3,0.9c0.3,0.3,0.9,0.8,0.7,1.3c-0.2,0.7-0.9,0.3-1.4,0.1c-0.6-0.3-1-0.5-1.6-0.4
			c-0.1,0.5-0.5,0.7-0.3,1.3c0.1,0.4,0.5,0.7,0.8,1c0.4,0.5,0.6,0.8,1.3,0.9c0.6,0.1,1.3,0,1.9,0c1,0,2.1,0,3.1-0.1
			c0.5-0.1,0.9-0.1,1.4-0.2c0.5-0.1,1-0.5,1.5-0.6c0.5-0.2,0.6-0.1,0.5-0.6c-0.1-0.4-0.3-0.7-0.5-1.1c-0.3-0.4-1.2-1-1.2-1.5
			c0.8-0.2,1.1,0.3,1.7,0.6c0.5,0.3,1,0.6,1.6,0.7c1.2,0.4,2.5,0,3.6-0.4c1.1-0.4,1.9-1.3,2.8-2.1c0.8-0.6,2-0.4,2.8-1
			c0.8-0.6-0.2-1.3-0.4-2c-0.1-0.6,0.1-0.7,0.7-0.7c0.2,0,0.5,0,0.8,0c0.3,0.1,0.4,0.3,0.7,0.4c0.5,0.1,0.5-0.3,0.5-0.7
			c0-0.4,0.1-1,0-1.5c-0.2-1-1.5-1.4-2.3-1.8c-0.8-0.5-1.7-0.8-2.6-1.2c-0.8-0.3-2.4-0.5-3.2-0.2c0.3,0.2,0.4,0.5,0.7,0.8
			c0.1,0.1,0.5,0.3,0.5,0.4c0.1,0.5-0.9,0.4-1.2,0.3c-1.1-0.3-2-1.7-3.2-0.9c-0.5,0.3-0.7,0.6-1.1,0.9c-0.3,0.3-1.1,0.3-1.6,0.2
			c-0.5-0.1-1.1-0.2-1.5-0.3c-0.5-0.1-1.1-0.2-1.6-0.3c-0.4-0.1-0.7-0.3-1.1-0.2H307.3z"/>
		<path fill="#231F20" d="M283.7,136.9c0.1-0.4-0.3-0.8-0.6-0.9c-0.5-0.3-0.8-0.5-1.2-0.9c-0.4-0.4-1.6-1.7-0.9-2.3
			c0.2-0.2,0.7-0.2,0.9-0.3c0.2-0.1,0.4-0.3,0.7-0.4c0.4-0.2,0.7-0.4,1.1-0.7c0.8-0.5,1.1-1.2,1.7-1.9c0.4-0.5,0.7-0.7,0.9-1.3
			c0.2-0.5,0.6-0.8,1.1-1.1c1-0.6,2,0.6,2.9,0.7c-0.6-0.3-1.2-1.2-1-1.9c0.1-0.5,0.5-0.8,0.9-1c0.5-0.3,1-0.5,1.5-0.8
			c1.6-1,2.8-3.5,0.8-4.7c-0.6-0.4-1.8-0.8-2.6-0.5c-0.3,0.1-0.6,0.4-0.9,0.5c-0.4,0.2-0.9,0.2-1.3,0.3c-1.1,0.1-2.1-0.1-3.1-0.4
			c-0.6-0.2-1.2-0.2-1.8-0.5c-0.6-0.2-1.5-0.5-2.1-0.4c0.1,0.3,0.4,0.2,0.5,0.4c0.1,0.1,0.2,0.4,0.3,0.6c0.3,0.7,0,0.8-0.7,0.9
			c-1.1,0.1-2.2-0.3-2.6,0.9c-0.5,1.6-1.8,1.1-3.2,1.1c-0.5,0-1-0.1-1,0.5c0,0.5,0.5,0.8,0.9,1c1.2,0.8,2.3,1.3,2.8,2.7
			c0.4,1.1-0.4,0.7-1.2,0.3c-0.7-0.5-1.4-0.9-2.2-1.3c-1.2-0.5-2.3-1.2-3.5-1.6c-0.9-0.3-2.2,0-3,0.4c-0.7,0.4-1.7,0.9-2.1,1.6
			c-0.4,0.6-1,2-0.7,2.7c0.4,1,1.4,1.7,2.3,2.4c0.3,0.3,0.8,0.6,1.1,1c0.2,0.2,0.4,0.9,0.4,1.1c-0.6,0.1-1.1-0.1-1.7-0.2
			c-0.3-0.1-1.6-0.5-1.6,0c0.5,0.1,1.1,0.8,1.6,1c0.4,0.2,0.8,0.3,1.2,0.5c0.4,0.2,0.8,0.6,1.4,0.5c-0.5,0.9,2.7,0.8,3.2,0.8
			c1,0,1.8,0,2.7-0.4c0.4-0.2,0.8-0.1,0.9-0.6c0-0.4,0-0.6-0.2-1c-0.2-0.3-0.4-1,0-1.2c0.5-0.3,1.3,0.6,1.6,0.9
			c0.6,0.6,1.3,1.2,2,1.6c0.5,0.4,1.1,0.8,1.7,1L283.7,136.9z"/>
		<path fill="#231F20" d="M243.2,129.4c-0.1-0.5,0.2-1.1,0.2-1.6c0-0.5,0-1,0-1.5c0-0.2-0.1-0.5,0-0.7c0.1-0.1,0.5-0.3,0.7-0.4
			c0.5-0.3,0.9-0.6,1.4-0.9c0.7-0.5,1.2-1.5,1.6-2.4c0.4-0.9,0.9-2.2,0.7-3.2c-0.1-0.5-0.5-1-0.7-1.5c-0.2-0.4-0.4-0.7-0.8-1.1
			c-0.7-0.7-1.9-1-2.9-1c-1,0-2.2-0.2-3.1,0.2c-0.5,0.2-1,0.3-1.5,0.3c-0.7,0-1-0.4-1.4-0.9c-0.3-0.4-0.5-0.9-0.7-1.3
			c-0.2-0.4-0.3-0.8-0.4-1.2c-0.2-0.4-0.8-0.7-0.8-0.1c0,0.1,0.1,0.5,0.2,0.6c0.1,0.3,0.1,0.6,0.1,0.9c0.3,1.8,0.8,3.6,0.7,5.6
			c0,0.2,0,0.4-0.2,0.5c-0.4,0.2-0.6-0.4-0.8-0.7c-0.3-0.4-0.5-0.7-0.7-1.1c-0.6-0.9-1-1.8-2-2.2c-1-0.3-1.8,0.2-2.7,0.7
			c-0.7,0.4-1.4,0.8-1.9,1.4c-0.6,0.6-1,1.5-0.8,2.5c0.2,0.9,1.1,1.5,1.1,2.5c0.1,1.4-1.8,0-2.2-0.4c-0.7-0.6-1.3-1.2-1.7-1.9
			c-0.3,0.7-0.1,2.2,0.2,2.9c0.4,0.9,1,2.3,1.7,2.9c0.4,0.3,0.8,0.6,1.2,0.9c0.5,0.3,0.9,0.5,1.5,0.7c1.2,0.5,2.4,0.9,3.7,0.4
			c1.7-0.6,3.2-1.9,5-2.1c1-0.1,2-0.1,2.8,0.5c0.5,0.3,0.8,0.6,1.2,0.9c0.3,0.2,0.6,1,0.9,1.1L243.2,129.4z"/>
		<path fill="#231F20" d="M256.3,158.4c-0.6-0.7-1-1.3-1.8-1.7c-0.4-0.2-0.9-0.5-0.6-1c0.2-0.3,0.7-0.5,1-0.7
			c0.7-0.6,1.3-1.6,1.6-2.4c0.2-0.4,0.4-1,0.3-1.5c-0.1-0.4-0.5-0.8-0.7-1.1c-0.2-0.3-0.3-0.5-0.4-0.9c0.8-0.6,1.6,0.5,2.3,0.6
			c-0.2-0.3-0.3-0.6-0.5-0.9c-0.3-0.4-0.6-0.6-1.1-0.8c-0.4-0.2-0.9-0.4-0.7-1c0.1-0.5,0.7-0.4,1-0.7c0.2-0.2,0.2-0.4,0.2-0.7
			c0-0.2,0.1-0.6,0.1-0.8c-0.1-0.4-0.8-0.7-1.1-0.9c-0.4-0.2-0.9-0.5-1.3-0.8c-0.3-0.2-1-0.6-1.4-0.4c-1.2,0.4,0.6,2.8-1.5,1.5
			c-0.8-0.5-1.9-1.2-2.9-1.4c-1-0.3-2.1,0.1-2.9,0.6c-1,0.5-2.1,1.1-3.3,1.4c-0.5,0.1-1.1,0.3-1.4,0.7c-0.5,0.5-0.1,0.8,0.2,1.2
			c0.3,0.4,0.5,0.9,0.7,1.3c0.2,0.4,0.4,0.8,0.3,1.2c-0.8,0-1.7-0.6-2.5-0.9c-0.4-0.1-0.7-0.2-1.1-0.3c-0.5-0.2-0.8-0.2-1.1,0.3
			c-0.3,0.5-0.2,1-0.4,1.4c-0.2,0.5-0.8,0.7-1.2,0.8c-0.7,0.3-1.3,0.6-1.9,1c-0.4,0.2-1,0.5-1.3,0.9c-0.6,1,0.2,2.1,0.8,2.7
			c0.5,0.5,1.4,1.1,1.3,1.9c-0.5,0-1.8-0.2-2.1,0.3c0.3,0.1,0.4,0.4,0.6,0.5c0.5,0.3,1,0.6,1.4,0.9c0.6,0.4,1.4,0.7,2,1.2
			c0.3,0.3,0.7,0.6,0.2,0.8c-0.6,0.2-1.3-0.1-1.9,0c0.1,0.1,0.2,0.1,0.3,0.2c0.2,0.1,0.4,0.4,0.6,0.6c0.3,0.2,0.8,0.2,1.2,0.3
			c1.1,0.3,1.5,0.2,2.5,0.6c1.2,0.5,2.5,1,3.6,0.2c-0.6-0.2-2.3-0.8-1.9-1.7c0.2-0.5,1.1-0.2,1.4,0c0.5,0.3,1,0.7,1.5,0.9
			c2.3,1.1,4.1-1.6,5.4-3c0.6-0.6,1.2-1.4,2.1-1.6c0.7-0.2,2.4-0.2,2.8,0.7L256.3,158.4z"/>
		<path fill="#231F20" d="M131.5,201.9c-0.5,0-1.1,0.1-1.6,0c-0.5-0.1-1-0.5-1.5-0.5c-0.7-1-2.8-1.9-4.1-2.1c-1.2-0.2-3.2-0.7-4.5,0
			c-1.3,0.7-2.4,2.3-3.4,3.4c-0.6,0.6-1.1,1.3-1.5,2.1c-0.5,1-0.5,1.8-0.8,2.9c-0.4,2-2.3,1.4-3.8,2.2c1.2,0.1,2.4,0,3.5,0
			c0.8,0,2.7-0.1,3,0.6c-0.8,0.5-2.2,0.7-2.8,1.6c0.4,0.3,0.7,0.3,1,0.8c0.2,0.4,0.6,1.2,0.7,1.7c0.3,0.9,0.2,2,0.2,3
			c0,1.3,0,2.5,0.2,3.7c0.1,0.9-0.1,2.4,0.2,3.3c1.4-0.5,3.1,0,4.5,0.1c-0.2,0.5-1,0.8-1.5,1.1c-0.6,0.4-1.3,0.8-1.9,1.2
			c-1.4,0.8-1.9,2.5-1.1,4c0.7,1.5,1.4,2.6,2.9,3.3c1.4,0.7,3.2,1.3,4.8,1.1c3.2-0.4,5-4.4,7.1-6.4c1.3-1.3,3.3-1.7,4.4-3.3
			c1-1.5,1.6-4.1,1.4-5.8c-0.1-0.8-0.5-1.6-1.1-2.3c-0.5-0.7-1.3-1.1-2.2-1.4c-1-0.4-1.8-0.3-2.8,0.2c-0.8,0.4-1.6,0.4-2.4,0.6
			c0.5-0.7,1.3-1.2,2-1.7c0.3-0.2,1.3-0.6,1.5-0.9c0.2-0.3,0-1.4-0.1-1.9c-0.1-0.6-0.6-1.2-0.9-1.8c-0.7-1-1.2-2.5-1.6-3.8
			c-0.2-0.6-0.2-1.3-0.5-1.7c-0.4-0.5-1.3-1-1.8-0.6c0.4-0.8,2.9-1.2,3.7-1.6L131.5,201.9z"/>
		<path fill="#231F20" d="M149.2,185c0-0.5-1.4-1.1-1.7-1.4c-0.7-0.6-1.3-0.5-2.2-0.8c-0.5-0.1-1.4-0.5-2.1-0.5
			c-0.8,0-1,0.5-1.6,0.9c-1.4,0.9-3.1-0.1-4.5,0.6c-1.2,0.5-2.3,1.6-2.5,2.9c0.5-0.1,0.5,0.3,0.9,0.5c0.3,0.1,0.3,0.1,0.7,0.2
			c0.5,0.1,1.3,0.3,1.9,0.3c0.1,0.2,0.1,0.5,0,0.7c-0.4,0-1,0.2-1.4,0.3c-0.5,0-1.1,0.1-1.5,0c-0.7-0.1-2.2-0.9-2.6,0.1
			c0.9,0.8,0,1.5,0,2.4c0,1.1,0.9,2.2,1.3,3c0.1,0,0.1,0,0.2,0c0.3,1.3,1.9,2.4,3,2.8c1,0.4,2.2,0.5,3.3,0.6
			c0.7,0.1,1.5,0.2,2.2,0.2c0-0.8-0.7-1.1-1.3-1.4c-0.5-0.2-2-0.6-1.2-1.2c0.7-0.5,2.3,0.1,3,0.2c0.9,0.1,1.7,0.4,2.6,0.5
			c1.4,0.1,3.4,0.5,4.5-0.6c0.5-0.5,0.8-1.4,1.2-2c0.5-0.7,1.3-1,1.5-1.7c0.1-0.6,0.1-1.5,0.1-2.1c-0.1-0.9-0.5-1.2-0.9-1.9
			c-0.5-0.2-1.1-0.8-1.6-1.1c-0.6-0.3-1-0.4-1.7-0.5c-0.6,0-1.5,0.1-1.9-0.3c-0.5-0.6,0.1-0.9,0.5-1.1L149.2,185z"/>
		<path fill="#231F20" d="M184,167.8c-0.3-0.3-0.7,0-1.1-0.2c-0.5-0.1-0.8-0.4-1.2-0.6c-0.8-0.4-1.8-0.9-2.8-1
			c-0.2-0.8-0.5-1.1,0-1.9c0.4-0.6,0.8-1,1-1.8c0.3-1.3,0-2.9-1-3.8c-2-1.9-5.7-1.9-8.4-1.8c0.3,0.4,0.7,0.5,1,0.8
			c0.4,0.4,0.5,0.8,1.2,0.8c0.2,0.2,0.3,0.5,0.3,0.8c0.1,0,0.1,0,0.2,0c0.5,1.2-4,0.4-4.7,0.4c-0.5,0-0.9,0-1.4,0.3
			c-0.4,0.3-0.5,0.9-0.9,1.2c-0.7,0.4-1.6,0.6-2.3,1.1c-1.3,0.9-2.5,1.9-4,2.3c-0.7,0.2-1.6,0.3-1.2,1.3c0.2,0.6,1.1,1.1,1.4,1.5
			c0.1,0.1,0.3,0.1,0.4,0.1c0.1,0.4-0.1,0.8-0.5,0.9c-0.6,0.3-1.2-0.2-1.7-0.5c-0.8-0.5-1.6-0.9-2.3-1.4c-0.3,0.7,0,1.8,0.2,2.5
			c0.1,0.4,0.4,0.8,0.4,1.2c0,0.6-0.4,0.7-0.7,1.1c-1.5,2,2.8,2.2,3.8,3.3c-1,0.7-2.7,0.1-3.7-0.3c-1-0.3-2.3-0.3-3.3,0.1
			c1.5,1,3.8,1.7,5.7,2.2c1.1,0.3,2.2,0.5,3.4,0.6c1.1,0.1,1.9,0.6,3.1,0.6c0.9,0,1.8-0.1,2.7-0.2c1.1-0.1,1.3-0.3,2.1-0.9
			c0.7-0.6,1.1-0.8,2.1-0.8c0.8,0,1.7,0.1,2.4-0.1c1-0.3,3-1.2,2.8-2.4c-0.2-1.2-1.5-2-0.6-3.4c0.3-0.5,0.7-0.6,1.2-0.9
			c0.5-0.3,0.8-0.7,1.2-0.9c1.2-0.7,2.2-0.4,3.3-0.2L184,167.8z"/>
		<path fill="#231F20" d="M203.2,192.7c-0.7-0.1-1.3,0.6-1.9,0.8c-0.7,0.1-1.7,0.2-2.4,0.1c-1.4-0.3-2.9-1.1-3.9-2.2
			c-1.8-2.2-2.7-5-4.7-7.1c-0.5-0.6-1.4-1-1.7-1.7c-1.2-0.4-2.6-0.3-3.9-0.4c-0.5-0.1-3-0.6-2.9,0.4c0.8,0,4.4,1,3.2,2.5
			c-0.9,1-4,0.1-5.2,0.2c-1.1,0.2-1.1,1-1.4,1.8c-0.3,0.7-0.7,1.5-1.1,2.2c-0.4,0.9-1.5,3.5-1,4.5c0.3,0.6,1.6,0.4,2.3,0.6
			c0.4,0.1,1.8,0.5,2,0.7c-0.9,0.8-2,1-3,1.4c-1,2.2,3,4.4,4.3,5.6c0.7,0.6,1.9,1.2,2.3,2.1c0.6,1.4-0.9,1.8-1.9,2.3
			c-0.2,0.7,1.3,1.1,1.8,1.2c0.6,0.2,1,0.4,1.7,0.4c0.7,0.1,0.9,0.2,1.6,0.4c1.6,0.5,3.9,0.2,5.5-0.6c0.8-0.4,1.4-0.8,2.4-0.8
			c0.9,0,1.9,0.1,2.8-0.1c1.3-0.2,3.1-0.8,4.3-1.4c0.7-0.4,1.2-0.7,1.1-1.5c-0.1-0.7-0.5-1.5-0.9-2c-0.6-0.7-1.2-1.4-1.9-2.1
			c-0.4-0.5-1.1-0.9-1.6-1.4c-0.3-0.4-0.7-1-0.9-1.4c-0.2-0.9-0.1-1.2,0.7-1.5c1.2-0.5,2.3-1.3,3.6-1.8L203.2,192.7z"/>
		<path fill="#231F20" d="M233.4,183.4c-1.3-0.2-2.2-0.9-3.5-1.1c-0.1-0.1-0.2-0.5-0.2-0.6c0.9-0.4,1.7-0.6,2.7-0.3
			c1,0.3,1.5,0.8,2.7,0.8c-0.5,0.2-1.2-1-1.5-1.3c-0.5-0.5-1.2-0.6-1.8-1c-1.1-0.7-1.6-2-2.9-2.7c-0.5-0.3-4.6-1-3.9-2.1
			c0.3-0.4,2,0.1,1.6-0.6c-0.2-0.3-1.9-1-2.3-1.1c-0.7-0.2-1.6-0.2-2.3-0.2c-0.8,0-1.9-0.3-2.7-0.1c-0.6,0.2-0.3,0-0.6,0.5
			c-0.2,0.3-0.3,0.9-0.6,1.2c-0.7,0.8-1.5,0.3-2.4,0.5c-0.4,0.1-1.9,0.3-1.9,0.8c0,0.6,1.8,0.9,2.3,1.1c0.4,0.2,1.9,0.6,1.3,1.4
			c-0.4,0.5-1.8,0-2.2-0.1c-0.9-0.3-2.1-1-3-0.7c0.1,1,2.6,1.9,3.4,2.3c0.4,0.2,1.3,0.4,0.9,1.1c-0.3,0.5-1.3,0.3-1.8,0.2
			c0.8-0.1,1.5,0.5,2.2,1c0.8,0.5,1.7,0.9,2.3,1.5c0.7,0.7,0.3,1.3,0.7,2.2c0.3,0.7,1,1.2,1.6,1.5c1.1,0.6,2.9,0.5,3.9-0.1
			c0.6-0.3,1.3-0.7,1.9-1.1c0.6-0.4,0.8-1,1.4-1.5c0.6-0.5,1.4-1.2,2.3-1.1L233.4,183.4z"/>
		<path fill="#231F20" d="M145.8,130.8c-1.6,0-2.8,0.7-4.5,0.8c-1.9,0.1-3.3-0.8-5.1-1c-1.8-0.2-3.2-0.4-4.5,1
			c-1.2,1.3-2.2,2.4-3.6,3.4c-0.8,0.6-0.6,1-1.2,1.7c-0.4,0.4-1.1,0.5-1.7,0.6c-0.6,0.1-1.3,0.4-2,0.6c-0.6,0.2-1.6,0.2-2.1,0.6
			c0.4,0.2,1.1,0.1,1.6,0.1c0.9,0,1.3,0.3,2.2,0.5c1.3,0.3,2,0.8,0.9,2.1c-0.6,0.8-1,1.6-0.2,2.4c0.3,0.4,0.9,0.6,1.3,0.8
			c0.3,0.2,0.8,0.3,1.2,0.5c0.3,0.2,0.3,0.5,0.8,0.5c0,0.1,0,0.4,0,0.5c-1.2,0.4-3.5-0.7-4.2,0.6c1.2,1.2,2.2,1.4,4.1,1.4
			c1.7,0,3.4-0.3,4.8-1.3c0.8-0.5,1.2-0.6,2.2-0.6c0.5,0,1.2,0.1,1.7,0c0.5-0.1,0.5-0.3,0.9-0.6c0.8-0.8,1.2-0.9,2.4-1
			c0.9-0.1,1.2-0.3,1.8-0.9c1.1-1,1.5-1.7,1-3.3c-0.2-0.5-0.4-0.9-0.4-1.5c-0.1-0.8,0.4-1.2,0.6-1.9c0.1-0.6,0-1.3-0.3-1.8
			c-0.2-0.4-0.6-0.9-0.6-1.4c0-1.3,1.4-1.1,2.1-1.5L145.8,130.8z"/>
		<path fill="#231F20" d="M194.2,117.5c-1.6,0-2.8,1.5-4.3,0.4c-0.8-0.5-1-0.6-2-0.6c-1,0-1.4,0-2.1,0.5c-1.3,0.9-2.9,1.4-4.1,2.3
			c-1,0.7-1.3,1.2-2.5,1.2c-0.8,0-1.6,0-2.4,0.1c-1.8,0.3-3.3,1.6-4.6,2.9c-0.9,0.8-2.6,3.4-2.1,4.6c1.2,0.3,1.6,0.6,2.9,0.1
			c0.2-0.1,1-0.5,1.3-0.3c0.6,0.5-0.1,1.3-0.5,1.5c-1,0.7-2,1.3-3,2c-1,0.7-1.9,0.8-2.3,1.9c0.9,0,1.9,0,2.9-0.2
			c0.8-0.1,1.6-0.6,2.5-0.5c0.1,0.4,0.7,0.6,1.1,0.9c0.5,0.4,0.7,0.9,1.2,1.2c0.6,0.5,1.3,0.7,2.1,1c1.8,0.5,3.8,0.3,5.7,0.3
			c1.6,0,3.3,0.1,4.9-0.1c0.7-0.1,1.6-0.1,2.3-0.4c0.6-0.3,1.8-1,2.1-1.7c-0.4-0.5-2.4-0.1-3.1-0.2c-0.5-1.1,0.8-1.4,1.6-1.6
			c1-0.2,1.5-0.5,2.2-1.1c1.2-1,1.6-2.4,2.5-3.6c0.5-0.6,1.1-0.8,1.7-1.1c0.7-0.4,1.4-1.1,2.1-1.6c1.1-1,1.6-3.4,0.8-4.7
			c-0.4-0.6-2.4-1.8-3.1-1.8c-1,0-2.7,0.7-3.5,1.3c-0.4,0.2-3.3,1.6-2.8,0.1c0.3-1,2.3-1.1,2.8-2L194.2,117.5z"/>
		<path fill="#231F20" d="M218.4,141.8c0,0-1.7,3.6,1,8.7l-4.6-0.3l6.3,3.1c0,0-3.8-0.3-4.1,3.8c0.1,3.4-5.3,3.6-5.3,3.6l0.6,2.2
			l-3.7-1.7l2.2,2.7c-10.1,0.6-13.2-1.7-11-4.7c0.9-1.1,0.1-2.5-1.8-4.2l0.1-1.9c0,0,4.8,0.8,6.3,1c0,0-1.7-1.6-6.3-3.1
			c0.6-2.7,2.8-1.4,4.3-5.1c0,0,2.9,0.7,5,1.6c0,0-1-2-6.6-3.6c0,0,3-0.3,5.1-0.5c2.1-0.2,2.1-2,2.1-2c1.5-0.2,2.1-1.2,4.4-1.2
			S216.9,140.4,218.4,141.8z"/>
		<path fill="#FFFFFF" d="M352.4,281.1c0,0,2.2,13.2-11.7,28.1c0,0,24.2-3.8,36.9-31.2c0,0,1.3,3.9,0.8,12.7c0,0,6.6-1.8,17.2-16.8
			c0,0,0.6,4.8,4.2,8.8l9.2-7.8c0,0,1.1,2.8,1.6,8.4c0,0,3-1.2,8.2-5c0,0,0.1,5.4-9.6,24c13.6-7.1,27-22.4,27-28.9
			c0-3.1-3.2-6-7.1-6c-3.8,0-7,3-7,3s-2.2-2.6-5.9-2.6c-3.7,0-6.7,3.4-6.7,3.4s0.4-2.8-3.2-2.8S386.4,279.2,352.4,281.1z"/>
		<path fill="#FFFFFF" d="M372.7,327.1c0,0-7.4,13-18.8,25.4c0,0-1.7-4.3-3.6-5.2c0,0-6.4,5-8.3,7.5c0,0-2.5-4.6-4.5-6.3
			c0,0-4.7,3.7-5.9,5.5c0,0,5.9-10.2,0.2-27.7c0,0-7.4,22.9-27,36c-0.9,0.8-1.2,5.5,6.1,5.5c11.5,0,18.3-9,18.3-9s11.7-2,23.2-0.5
			c0,0,3.9,3.7,6.8,3.7C362.2,361.9,373.6,349.8,372.7,327.1z"/>
		<path fill="#FFFFFF" d="M109.2,125.8h-5.5v-2.4c0,0,5.5,0.2-49.8,1.6c0,0,21.9,6.5,33.8,13.1c0,0,2.9-1.7,4.9-1.8
			c2-0.1,2.2-0.9,4.6-1c2.4-0.1,2.2-1.6,2.2-1.6h3.6c0,0-0.8-2.1-3.8-2.9C99.1,130.8,103.9,127.7,109.2,125.8z"/>
		<path fill="#FFFFFF" d="M39.6,134.2c0,0,5.9,2.3,8.9,6.4c0.1,10.3,8.6,19,19.7,28.1H61c0,0,6.4,4.3,18,7.7c0,0-1.8,1.3-7.8,2
			c0,0,9.5,6.3,31.8,6.3c18.7,0,26.8-5.7,26.8-5.7l-15.1-2.1c0,0,26.7-2.6,40.3-13.8c0,0-8.4,5.5-37.1,5.5
			c-28.7,0-41.4-8.3-41.4-8.3s16.8,3.1,27.5,1C79.9,144.6,68.4,133.8,39.6,134.2z"/>
		<path fill="#FFFFFF" d="M417.7,258.2c0,0,14.2,0,23.9,10.7c0,0,16.1-2.9,23.8-13.1c-7.5,0.4-9.6-1.1-9.6-2.6
			c0-1.5,1.7-1.8,6.3-1.8c4.5,0,6,0,6,0s3.4-1.2,3.9-11.6c-5.9,5.4-12.9,6.9-14,4.4c-1.4-3.1,10.4-4.4,13.9-9.8c0,0,0.6-2.6-1.7-8.2
			c-4.3,7.3-6.9,8.5-8.8,7.2c-3-1.9,5.7-5.2,6.9-10.6l-4.1-5C451.9,242.4,431.3,237.4,417.7,258.2z"/>
		<path fill="#FFFFFF" d="M131.2,251.8c0,0,1.7-1.9,3.8-3.3l-0.8,3.1h0.5c0,0,3-3.4,5.9-3.6c0,0-1.5,1.6,0.7,2.4
			c4.2,1.6,9.2,0.7,14.7,1.5c1.6,0.6,2.5,0.9,5.8-0.3c3.3-1.2,5.7-1.2,5.7-1.2s-4.8,2-5.7,3.5c0,0,3.2,2.1,3.2,5.6s-1.2,6.1-4.8,8.3
			c-4.8,2.8-5.3,6-5.3,6l3.1-2c0,0-0.8,7.2-7.7,7.2c-3.9,0-5-2.2-6.3-2.2c-0.8,0-3.4,2.9-3.4,2.9s0.2-2.8,4.9-7.6c0,0-3.1,1.2-4.5,3
			c-6.6-3.9-14.1-4.4-14.1-10.4c0-2.6,2.1-6,2.1-6s-1.7,0.1-2.4,1.9l-0.3-3.2l-10.2,8.4c0,0,5.9,6.5,16.4,14.6s28.6,19.1,46.1,26.3
			c17.4,7.3,32.2,15.7,40.4,24.6c8.2,8.9,15.3,22,22.8,33c7.5,11,24.9,30.3,42.6,34.9l-3.6,4.5c0,0,13.2,2.3,30.4-0.3l-5.5,6.1
			c28.4-2.9,51.7-15.8,64.6-40.4c0,0-4.9-4.3-18.5-4.3c-20,0-38.4,12.9-56.1,12.9c-17.1,0-30.2-15.7-39.8-30.6
			c-9.6-14.9-26.6-48.9-26.6-73.6c0-40.2,28.4-43.8,28.4-43.8s-36.5-8.1-59.5-9.9c56.1,2.5,118.5,18.6,148.3,33.4
			c0.8,0.7,1.5,4.9-2.6,4.9c-2.7,0-11.1-5.7-32.4-12.9c5.2,10.2,17.7,28,41.9,28c22.7,0,31.8-14.9,61.5-15.8
			c0.8-17.1-7.4-21-26.2-30.3c-18.9-9.3-33.2-13-33.2-13l-0.8,0.1c0,0,9.1,4.6,18.4,12l-2.2,1.3c0,0,5.3,3.4,13,12.8
			c0,0-12.2,5-19.8,4.5c0,0-0.2,2.3-2.9,2.3c-1.9,0-8.9-3.7-26-11.1c-17.1-7.4-62.9-23.4-124.4-31.6c0,0,9.9,3,13.7,4.8
			c0,0-5.1-1.4-9.4-0.8l4.4,2.8c0,0-29.5-1.2-47.1,2.5c0,0,11.4,3.3,16,9.1c0,0-7.1,0.1-11.5,0.8c0,0,1.1,2.3,1.1,3.3
			c0,1-3.7,3.6-3.7,3.6h2.8v7.1c0,0-3.9,5.6-14.9,2.8l0.4-1.8l-6.5,0.6c0,0,4.6-2.2,6.7-3.9c0,0-6.7,2.8-8.1-0.8
			c0,0-22.2,5.5-32.9,14.2C121.7,248.8,127.9,249.8,131.2,251.8"/>
		<path fill="#FFFFFF" d="M278.9,153.5c0,0-19.8,3.3-29.5,19.2l1.6-0.4c0,0,8.5-9.6,31.6-9.6c26.8,0,44.1,15.2,59.4,17.2
			c0,0-10.3-2.4-14.6-11.1c0,0-0.8,2.4,0.2,4.3c-11.1-6.2-17.5-8.6-18.3-18.1c0,0-2.4,1.9-2.6,6.4l-1.8-1.4c0,0-0.4,1.8,2.5,3.4
			c1,0.5-0.5,1.9-0.5,1.9s-3.3-0.5-6.3-2.2c0,0,2.3-0.2,1.5-1c-0.8-0.9-3.1-3-3.7-4.2c-1.4-1.7,2.4-0.9,2.4-0.9s-1.1-1.8-4.5-2.4
			c0,0,0.8-1.1,2.4-0.9s-0.3-1.7,1.7-2.3s5.2-2.7,6.9-5.8c1.4-2.2,3.9,0.6,3.9,0.6s-0.7-3.7-6.3-3.7c-6.4,0-11.2,3.7-11.2,3.7l3.9,2
			c0,0-1.7,0.3-3.7-0.6c-2.1-0.9-3.5,1.7-3.5,4.5c0,3.8,4.4,4.7,4.4,6.8s-0.3,3.8-2,1.7l0.2,1.9c-4.3-3.1-8-3-10.6-7.5l3,1.2
			c0,0-0.3-1.1-3.7-2.9c0,0-0.5-1.4,0.4-1.4l0.1-3.8h-7.8v0.8L278.9,153.5z"/>
		<path stroke="#FFFFFF" stroke-miterlimit="10" d="M328,181.6v-0.7l-11.8-3.7l-0.3,1c0,0,0.7,0.5,0.7,2c0,1.5-1.1,3.7-4.4,3.7
			s-4.5-2.7-4.3-4.5c0,0,3.2,0.1,3.2-2c0-3-12.7-6.3-29.4-5.7c14.4,11.1,22.7,15.4,28.8,15.4C318,187.2,328,181.6,328,181.6z"/>
		<path fill="#FFFFFF" d="M308,179.5c0,0,3.2,0.1,3.2-2c0-2-5.2-4-13.3-5C298,172.4,303.3,175.8,308,179.5z"/>
		<path fill="#FFFFFF" d="M269.2,170.6c0,0-1.9-0.3-7.8,0.2c0,0,1.4,3.7,5.4,7.7c0,0-3.7-0.3-5.3-0.6c11.2,11.1,21.5,15.1,37.8,14.8
			l-2.4,1.3c0,0,10,0.3,19,4C291.5,181.9,293,188.7,269.2,170.6z"/>
		<path fill="#231F20" d="M215,251.4c0,0-2.8,0.1-5.7,1.2c0,0-3.7-7.7-9-7.7s-13.7,5.3-13.7,5.3l0.4-2c-9.1,0-11.5,0.5-11.5,3.9
			c0,3.4,3.6,3.8,7.7,7.6c0,0,1.6-1.7,3.8-1.8l-5,4.7c0,0,3.1-2.2,6.6,0.2c3.5,2.4,11.7-0.3,14.9-2.2c0,0-1,2.3-3.1,3.4
			c0,0,7.5,2.3,10.8-1.9c2-3.1-1.1-7.5-1.1-7.5S212.5,252.3,215,251.4z"/>
		<path fill="#231F20" d="M197.7,276.8c-7.6,2.3-15.9,0.3-24.8,0.1l1.2-1.7c0,0-2.8,0.4-5.1,1.7s-7.5,1.7-7.5,6.1c0,3.7,3.1,6,3.1,6
			l2.9-3.2c0,0,0.4,2.1-0.7,3.4c10.5,6.7,22.2,2.8,26.9,7.6l5.5-3.7c0,0,0.2,1.1-2.6,5.6c3.4,3.3,5.8,4.4,9.1,4.4
			c3.3,0,5.4-0.6,5.8-5.2l1.3-1.6l-2.1,0.1c0,0,0.5-2-0.7-4.1c0,0,0.8-0.9,3.3,0.8c0,0,0.9,0,2.1-1.3s1.1-1.3,1.1-1.3l-1.2,0.1
			c-0.8-6.3-5.8-9.4-9.3-8.1c0,0-0.6-4.3-5.3-4.3c-1.8,0-5.2,2.1-7.8,2.1L197.7,276.8z"/>
	</g>
</g>
<g id="color">
	<g id="Layer_5">
	</g>
	<g id="Layer_6">
	</g>
	<g id="Layer_7">
	</g>
	<g id="Layer_11">
	</g>
	<g id="Layer_13">
	</g>
	<g id="Layer_15">
	</g>
	<g id="Layer_17">
	</g>
	<g id="Layer_19">
	</g>
	<g id="Layer_21">
	</g>
	<g id="Layer_23">
	</g>
	<g id="Layer_25">
	</g>
	<g id="Layer_27_copy">
	</g>
	<g id="Layer_31_copy_2">
	</g>
	<g id="Layer_29">
	</g>
	<g id="Layer_33">
	</g>
	<g id="Layer_35">
	</g>
	<g id="Layer_37">
	</g>
	<g id="Layer_39">
	</g>
	<g id="Layer_41">
	</g>
	<g id="Layer_43">
	</g>
	<g id="Layer_46">
	</g>
	<g id="Layer_45">
	</g>
	<g id="Layer_49">
	</g>
	<g id="Layer_51_copy">
	</g>
	<g id="Layer_53">
	</g>
	<g id="Layer_55">
	</g>
	<g id="Layer_57">
	</g>
	<g id="Layer_59">
	</g>
	<g id="Layer_61">
	</g>
	<g id="Layer_63">
	</g>
	<g id="Layer_64">
	</g>
	<g id="Layer_66_copy">
		<path fill="#231F20" d="M397.3,313.4c0,0,31.1-8.7,46-33.5c17.4-3.6,35.9-22.9,35.9-40c0-21.4-16.1-30.9-16.1-30.9
			s-5.9-15.2-28.3-29.9c0,0,6.2-7.2,6.2-15.2c0-8.1-6.2-13.1-17.3-21.2c-11.1-8.1-21.9-12.1-35.6-20.6s-44-23.1-63.5-27.4
			S293,89,282,89c-22.5,0-31,3.6-31,3.6s-6.8-2.9-22.1-2.9c-15.2,0-24.5,1.2-56.9,10.1c-32.5,8.8-57.5,14.9-83.9,16.6
			c-26.4,1.7-38.5,3-46.7,3c-8.2,0-9.4,11.4-9.4,14.7c0,22.1,28.9,51.1,44.4,59.4c0,0-1.3,8.3-1.3,15.7c0,7.4,2.3,36.7,27,65
			c32.8,34.6,64.9,39.3,86.7,53.4c21.8,14.1,29.2,29.5,40.7,46.9c17.5,29.4,47.1,49.4,79.1,49.4c52.1,0,75.6-50.7,75.6-61.6
			c0-7.2-8.7-8.6-8.7-8.6s6.7-20.8,1.5-40c0,0-6.9,11.8-18.2,24.4c0,0-13.5-11.7-10.8-24.9c0,0,11-3.2,20.7-13.1
			c0,0,14.9-2.5,25.5-14.1c0,0,1.8,3.1,3.6,5l6.9-5.1l0.4,6.7l3.1-0.7C408.3,291.9,406.4,300.8,397.3,313.4z"/>
		<path fill="#185465" d="M345,348.3c0,0,2.1-7.2-7.4-12.8c0,0,1.1,5.2,0.6,8.6L345,348.3z"/>
		<path fill="#185465" d="M389.9,223.4c10.7-0.6,24.4,2.3,24.1,13c0,0,3.8,5.3,7,12.3c0,0,8.1-6.3,11.3-16.4
			C404.4,219.5,395.9,218.9,389.9,223.4z"/>
		<path fill="#C8932B" d="M371.6,221.1l21.6,17.7l-30,11.2c0,0,2.4-7.1,0.5-8.1c-21.6-12-58.6-22.7-95.9-29.8
			c-37.3-7.1-56.9-7.6-56.9-7.6l12.6,2.5l13,5.3l-44.4,3.2v9.3l-13.6,1.3c-3.1-6.7-6.5-4.5-10.6-7.2c-3.3-2-4.8-6.2-5.2-7.8
			s-2.4-1.5-6.2-2.6c-3.8-1.1-5.3-0.2-6.1,1.2s3.3,1.2,3.3,1.2c-1.4,1.5-7.6,2-7.6,2l-0.1,0.5l3.6,0.6c-1.1,1.2-1.9,5.2,0.5,7.4
			c2.4,2.2,5.4,0.1,5.4,0.1s-1.6,2.3-1.1,3.1c0.6,0.8-1.9,3.2-1.9,5.6c0,4.5,5.6,6.7,5.6,6.7l-24.6,9.9l-2.1,3.9c0,0,0.3,3.6-2.2,5
			c-2.5,1.4-2.6,2.5-3.4,3.4c-0.8,0.9-9,7-9,7c-6.3-6.4-7.6-9.5-7.6-9.5c4.9-4.3,4.7-9.6,4.7-9.6l-4.1-0.6c4.7-2.9,5.2-5.3,5.2-5.3
			c-0.9,1.2-2.7,0.4-2.7,0.4c-0.9-4.4-3.9-4.7-5-7.8c-1.1-3.1-5.4-2.1-5.4-2.1c0.9-1.4,3.3-3.1,3.3-3.1c1.3-5.7,2.9-6,2.9-8
			c0-4.2-7.9-5-8.2-4s1.6,2,1.6,2c-3.9,1.1-7,3.4-7,3.4c-3.3-25.3,1.2-30,1.2-30c21.7-0.8,32.2-11.9,32.2-11.9l-10.1,0.4l-8.1-4.2
			l17.9-6.1c28.5-0.7,49.1-20.1,49.1-20.1S159.8,160,141.7,160c-13.8,0-29.8-5.3-43.3-16.4l-0.5-2.2c3.3-0.5,2.6-2.3,3.9-3.9
			c1.3-1.6,3.7-0.7,3.6-1.3c-0.1-0.7-1.6-0.8-1.6-0.8l-0.1-1.2c0,0,4.8,0,4.8-2.1c0-2.1-3.4-0.3-7.9-2.5l-2.5-5.8
			c18.8-1.1,40.4-7,40.4-7c1.7,3.3,5.2,3.8,5.2,3.8l-2.9,1.7c0,0,2.6,0.5,4,0.3c1.4-0.2,2.2-0.8,4.3-0.7c2.1,0.1,5.1,0.4,4.6-1.3
			c-0.5-1.7-3.8-3-3.8-3l0.3-0.8l4.9,1.3c-1.3-2.5,0.1-5.1,0.1-5.1l41.2-9.3c0,0,2.5,6.1,7.1,5.9c7.2-1,6.3,1.6,10,1.9
			c-1.9-1.9-4.3-6.6-4.3-6.6l0.6-0.4l4.5,3.6c4.4-3.8,9.7-1.8,10-2.6c0.3-0.8-2.4-2.8-1.9-3.4c0.5-0.6,3.7,2.9,4.5,2.3
			c0.9-0.6-1.3-5.5-1.3-5.5c13.9-0.9,35.6,1.5,35.6,1.5l0.2,0.8c-4.1,0.9,0.7,5.4,0.7,5.4l-1.2,0.4c0,0-2.5-2.6-3.6-2.6
			c-1.1,0-2,1-2,2.7c0,1.7,3.7,3.8,6.2,3.8s4.5-1.3,4.5-1.3c0,1.1,6.4,0.6,6.2-1s-3.8-4.4-3.8-4.4l6.8,3.3l2.5-4.1
			c18.3,3.8,27.8,7.4,27.8,7.4s-2.8,0.3-4.7,1.7c-1.4,0.8,0,2.8,0,2.8c-1.3-0.7-1.9,0.5-1.9,0.5c1.7,3.7,5.7,3.2,5.7,3.2l-0.8-1.7
			c1.9,0,2.5,1.7,2.5,1.7s2.6-0.1,5.1-0.3c2.5-0.2,5,1.9,5,1.9l-0.5-1.6l1.8-2.3l1.3,1.6h3.4l3.5,3.1l0.5-2.8
			c0.4,1.2,1.8,1.6,1.8,1.6c0.4-0.8,2.3-1.9,2.3-1.9c-0.6-1.9,3.7-4.6,3.7-4.6c0.6-4.4-5.1-5-6.4-4.7c-1.3,0.3-0.3,1.9-1.2,2.1
			s-1-2.1-1.6-2c-0.7,0.1-0.4,1.9-0.4,1.9s-2.9-0.3-3.8,0.4c-0.9,0.7-3.1,4-3.1,4l-16.6-8.4l4.6-1.7l0.9,1.1c1.8-9-9-8.3-9.7-8.1
			c-0.7,0.2,1.3,4.4,0.4,4.7c-1,0.3-3-3.1-3.8-3.1c-0.8,0-4.6,2.5-4.6,2.5c-3.9-2.2-15.1-4-15.1-4s7.1-1.8,16.2-1.8
			c29.1,0,51.8,10.5,58.8,13.7c7,3.2,7.2,5.8,7.2,5.8c-1.3-0.8-3.1-1.2-3.1-1.2c-0.2,2,11.4,6.7,11.4,6.7c-2.7-3-1.9-4.3-1.9-4.3
			c3.3,3.8,5,2.4,6,2.9c1,0.5,35.9,19.2,39.6,21.4c3.8,2.1,4,4.4,3,4.9c-1.1,0.5-2.4-2.2-2.4-2.2c-1.5,1.4-1.5,4.9-0.5,5.2
			c1.1,0.3,0-1,1.4-0.8c1.4,0.2,1.1,1.3,3.5,1.9c2.4,0.6,5,2.2,5,2.2l0.2-2.6l3.9,4.9c5.5-0.4,9.2,4.5,9.2,9.9s-3.5,8.1-3.5,8.1
			c-21.4-15.4-37.9-20.3-37.9-20.3c11.7,6,32.1,23.4,38.3,30.5c6.2,7.1,7.3,9.2,7.3,12.6s-2.2,5.8-2.2,7.3s0.9,3.1,2.5,3.1
			c2.8,0,7.8-6.3,7.8-6.3s9.1,6.5,9.1,14.7s-10.3,5-18.6,12.1c0,0-20.8-8.8-45.4-11.5c-21.7-2.4-34.1-1-34.1-1L371.6,221.1z"/>
		<path fill="#8A6728" d="M101.1,145.7c12.9,9.7,27.8,14.3,40.7,14.3c18.1,0,34.8-10.3,34.8-10.3s-20.6,19.4-49.1,20.1l-17.9,6.1
			l8.1,4.2l10.1-0.4c0,0-10.5,11.2-32.2,11.9c0,0-4.4,4.7-1.2,30c0,0,3.1-2.3,7-3.4c0,0-1.9-1.1-1.6-2s8.2-0.2,8.2,4
			c0,2-1.5,2.3-2.9,8c0,0-2.4,1.6-3.3,3.1c0,0,4.3-1,5.4,2.1c1.1,3.1,4.1,3.4,5,7.8c0,0,1.8,0.8,2.7-0.4c0,0-0.5,2.4-5.2,5.3
			l4.1,0.6c0,0,0.2,5.3-4.7,9.6c0,0,1.3,3.1,7.6,9.5c0,0,8.3-6.2,9-7c0.8-0.9,0.9-1.9,3.4-3.4c2.5-1.4,2.2-5,2.2-5l2.1-3.9l24.6-9.9
			c0,0-5.6-2.2-5.6-6.7c0-2.4,2.5-4.8,1.9-5.6c-0.6-0.8,1.1-3.1,1.1-3.1s-3,2.1-5.4-0.1c-2.4-2.2-1.5-6.3-0.5-7.4l-3.6-0.6l0.1-0.5
			c0,0,6.2-0.5,7.6-2c0,0-4,0.2-3.3-1.2s2.3-2.2,6.1-1.2c3.8,1.1,5.8,1,6.2,2.6s1.9,5.8,5.2,7.8c4.1,2.7,7.5,0.5,10.6,7.2l13.6-1.3
			v-9.3l44.4-3.2l-13-5.3l-12.6-2.5c0,0,19.6,0.5,56.9,7.6c8,1.5,16,3.2,23.8,5.1c0,0-6.9-7.4-14.4-13.6c0,0-28.7-8.3-67.8-13.7
			c0,0,21.2,0.7,60.1,8.6c-13.5-11-24.8-14-24.8-19c0-3.2,6.3-8.2,6.3-8.2l9.1-7.2l20.3-7.8l-0.6-5.8l1.6-1.3c0,0-1.5-3.9,3-3.6
			l0.3-0.3c0,0-18.5-7-62-7.4l4.4,4.4c0,0-4.8,0.3-8.8-0.3c0,0-1.7,3.6,1,8.7l-4.6-0.3l6.3,3.1c0,0-3.8-0.3-4.1,3.8
			c0.1,3.4-5.3,3.6-5.3,3.6l0.6,2.2l-3.7-1.7l2.2,2.7c-10.1,0.6-13.2-1.7-11-4.7c0.9-1.1,0.1-2.5-1.8-4.2l0.1-1.9c0,0,4.8,0.8,6.3,1
			c0,0-1.7-1.6-6.3-3.1c0.6-2.7,2.8-1.4,4.3-5.1c0,0,2.9,0.7,5,1.6c0,0-1-2-6.6-3.6c0,0,3-0.3,5.1-0.5c2.1-0.2,2.1-2,2.1-2
			c-20.6,1.5-41.2,7.8-53.6,11l4.2-4.5c0,0-13.2,3.7-24.7,3.7S111.6,148.4,101.1,145.7z"/>
		<path fill="#8A6728" d="M393.2,215.7c-1.5-0.2-3-0.4-4.5-0.6c-16.5-1.8-27.7-1.4-32-1.1l-1.9-0.9c0,0-5.7-8.8-15.8-11.2
			c0,0,10-3.6,23.1-3.6c13.1,0,21.2,4.4,26.8,4.4c5,0,4.3-3.1,4.3-3.1c2.8,2.5,0.9,6.7-5.1,7.1C388.1,206.5,388.5,211,393.2,215.7z"
			/>
		<path fill="none" stroke="#231F20" stroke-width="0.1" d="M429.6,159c1,1.7,1.6,3.7,1.6,5.9c0,5.4-3.5,8.1-3.5,8.1
			c-5.8-4.2-11.2-7.5-16-10.3C422.2,163.6,426.7,163,429.6,159z"/>
		<path fill="#185465" d="M245.7,253.2c25.1,9.9,22,34.5,23.4,49.6c0.3,27.8,4.7,44.3,29.7,56.8c0,0,20.3-10.9,26.3-29.7
			c-13.4-8.9-12.6-24.3-12.6-32.3c0-21.2-4.8-37.5-28.4-41.6c16.4,11.2,16.9,47.9,16.9,52.9c0,16.9,5,24.6,5,24.6
			s-8.4-2.4-10.9-29.4C293.8,257.3,266.2,247.2,245.7,253.2z"/>
		<path fill="#231F20" d="M320.6,190c0,0,11.2-6.4,24.6-6.4c14.5,0,28.2,3.4,28.2,3.4s3.6-3.7,3.6-11.6c0-12.8-11.4-20.6-11.4-20.6
			s3.5,5.8,3.5,13.5c0,9.1-7.7,13.3-16.4,13.3c-13,0-23.7-7.1-23.7-7.1l-17.1-7l-3.4-6.4l0.4-5.8c0,0,1.3-2.1,3.2-2.6l-0.4-2.1
			l1.8,1.7c0,0,5.3-1.8,5.3-5.9c0-2.4-2.5-3.7-4.4-3.7s-2.3,0.8-3.7,0.8c-1.4,0-1-1.4-3.5-0.1c-2.5,1.3-10.2,3.8-10.2,3.8
			s-4.2,1.2-6.1-1.7c-1.9-2.9-4.5-3-5.9-3c-3.6,0.6-0.3,2.6-0.3,2.6l-0.3,0.3c0,0-3.8-0.6-3.2,3l-3.7,11.1l-19.9,5.2l-7.2,7.4
			l0.1,0.7c0,0,8.6-3,18.3-2.2l7.3,10L291,189l12.3,3.2l8.2,3c0,0,9.9,4.6,24.4,19C335.9,214.3,335.7,206.5,320.6,190z"/>
		<path fill="#8A6728" d="M311.5,153c-1.5,0.8-2.5,2.3-2.5,2.3l-0.4,5.8l3.4,6.4l17.1,7c0,0,10.7,7.1,23.7,7.1
			c4.9,0,9.5-1.3,12.5-4.1c0,0-3.2,1.5-8.3,1.5s-9.2-1.9-19.5-9.8S318.2,155.7,311.5,153z"/>
		<path fill="#8A6728" d="M372.6,162.1c2.3,3.4,4.4,7.9,4.4,13.3c0,7.9-3.6,11.6-3.6,11.6s-13.8-3.4-28.2-3.4
			c-13.3,0-24.6,6.4-24.6,6.4s12.9-0.5,16.3,12.4c0,0,19.6-13.5,49-12.1C385.3,179.8,378.9,169.5,372.6,162.1z"/>
		<path fill="#231F20" d="M393.2,199.5c0,0,0.7,3.1-4.3,3.1c-5.7,0-13.8-4.4-26.8-4.4c-13.1,0-23.1,3.6-23.1,3.6l-1-0.2
			c2.1-1.3,7.2-4.1,14.7-6.7C365.2,190.9,385.8,192.4,393.2,199.5z"/>
		<path fill="#231F20" d="M277.3,203.5c0,0-28.7-8.3-67.8-13.7c0,0,21.2,0.7,60.1,8.6c32.6,6.2,76.9,20.5,92.8,29.6
			c1.9,2.1,1.7,1.8,1.7,3.6s-1.9,2.5-3.3,2.5c-1.4,0-1.4,0.2-7.1-2.8C348.1,228.4,320,215.3,277.3,203.5z"/>
		<path fill="#231F20" d="M391,141.8c-0.2,0.4-0.5,0.4-0.8,0.6c-0.3,0.2-0.7,0.4-1.1,0.5c-0.7,0.1-1.7,0.1-2.1,0.9
			c0.3,0.1,0.4,0.7,0.5,0.9c0.2,0.3,0.4,0.7,0.7,0.9c0.6,0.6,1.4,1.1,1.8,1.8c-0.5,0.1-1.1-0.4-1.5-0.6c-0.4-0.2-1.1-0.2-1.4-0.5
			c0,1,0.7,1.7,1.3,2.3c0.9,0.9,2.1,1.5,3.3,1.8c0.3,0.1,0.6,0.2,0.9,0.3c0.4,0.1,0.8,0.1,1.2,0.2c0.6,0.2,1.1,0.6,1.6,0.8
			c0.3,0.1,0.6,0.1,0.9,0.2c0.2,0,0.8,0.3,1,0.2c0.2-0.1-0.2-0.9-0.3-1.1c-0.2-0.4-0.7-0.8-0.9-1.2c-0.5-0.9,0.2-0.7,0.8-0.4
			c0.6,0.3,1.1,0.7,1.6,1c0.4,0.3,1.4,0.9,1.9,0.9c0.1-0.8,0-1.8-0.4-2.5c-0.4-0.9-0.6-1.9-1.3-2.7c-0.6-0.7-1.4-1.2-2.2-1.7
			c-0.4-0.2-0.7-0.5-1.1-0.7c-0.2-0.1-0.7-0.3-0.8-0.3c-0.2,0-0.2,0.4-0.4,0.5c-0.7,0.3-1.2-0.3-1.6-0.8c-0.3-0.5-0.6-0.9-0.9-1.3
			L391,141.8z"/>
		<path fill="#231F20" d="M372.6,126.3c0,0.5,0.3,1.4-0.1,1.8c-0.6,0.5-1.5-0.1-2.1-0.4c-0.4-0.2-1.4-0.8-1.6-0.1
			c-0.1,0.4,0.6,1.2,0.8,1.7c0.5,0.2,0.7,1.1,0.6,1.6c-0.3,0.1-0.9,0-1.1-0.3c-0.6-0.1-1.2-0.6-1.6-1.1c-0.1,0.3,0.3,0.8,0.4,1
			c0.2,0.5,0.5,0.7,0.9,1c0.6,0.5,1.3,1,1.9,1.6c0.7,0.6,1.4,1.1,2.3,1.1c1.3,0,2.2,0.1,3.4,0.5c0.6,0.2,1.3,0.5,1.6,1.1
			c0.4,0.7,0.8,1.2,1.4,1.7c0.9,0.7,1.7,1.4,2.7,1.9c0.4,0.2,2.4,0.9,2.5,0.1c-0.2-0.2-0.6-0.7-0.6-1c-0.4-0.3-0.8-1.2-0.9-1.7
			c-0.1-0.5-0.1-0.6,0.4-0.6c0.5,0,0.6,0,0.9,0.3c0.4,0.5,0.6,1.1,1,1.6c0.3,0.4,1,0.8,1.5,0.9c0.4-0.5,0.1-0.7,0.1-1.3
			c0-0.5,0.1-1.1-0.1-1.5c-0.2-0.3-0.5-0.5-0.8-0.7c-0.1-0.1-0.7-0.2-0.8-0.3c-0.4-0.5,0.6-0.8,0.9-0.9c0-0.8-0.2-1.8-0.8-2.3
			c-0.5-0.4-1.3-1.1-1.5-1.8c-0.6-0.1-0.6,0.5-0.9,0.7c-0.5,0.2-0.9-0.2-1.2-0.5c-0.6-0.6-1.3-1-1.9-1.7c-0.4-0.5-0.7-0.9-1.3-1.1
			c-0.5-0.2-1.3-0.1-1.8-0.1c-0.6,0-1.1,0.2-1.6,0.4c-0.4,0.1-0.9,0.3-1.2-0.1c-0.2-0.3-0.2-0.9-0.5-1.2L372.6,126.3z"/>
		<path fill="#231F20" d="M358.1,137.8c0.2,0.2,0.7,0.5,1,0.7c0.2,0.2,0.6,0.6,0.9,0.6c0.7,0.7-0.9,1.4-1.2,1.7
			c-0.5,0.5-1.5,1.3-1.1,2.1c0.1,0.3,0.4,0.7,0.5,1.1c0.1,0.5,0,1,0.2,1.5c0.2,0.6,1.2,1.8,1.8,2c0.7,0.2,0.9-0.6,1.3-0.9
			c0.3-0.2,0.9-0.1,1.2,0c0.5,0.1,0.9,0.3,1.4,0.3c0.3,0,2.1,0.1,1.4,0.7c-0.5,0.5-1.6-0.2-2.1,0.2c0,0.4,0.7,0.5,0.9,0.6
			c0.3,0.2,0.7,0.4,1,0.7c0.5,0.4,0.8,0.6,1.5,0.7c0.4,0.1,0.8,0,1.2-0.1c0.4-0.1,0.7-0.3,1-0.4c0.4-0.1,0.9-0.1,1.4-0.1
			c0.6-0.1,0.9-0.1,1.4,0.1c0.5,0.2,1,0.5,1.5,0.7c-0.2-0.2-0.4-0.8-0.6-1.2c-0.2-0.3-0.4-1-0.3-1.3c0.2-0.5,0.9-0.3,1.1-0.9
			c0.1-0.5-0.2-0.8-0.4-1.2c-0.2-0.6-0.2-0.8-0.7-1.2c-0.3-0.3-0.7-0.5-0.9-0.8c-0.3-0.3-0.2-0.4-0.4-0.7c-0.4-0.9-1.1-1.6-1.8-2.2
			c-0.8-0.6-1.7-0.9-2.5-1.3c-0.5-0.2-0.8-0.6-1.4-0.6c-0.4,0-1.2-0.1-1.2,0.3c0,0.3,0.5,0.8,0.5,1.1c0.1,0.7-0.3,0.8-0.8,0.6
			c-0.8-0.3-1.3-0.8-1.9-1.3c-0.5-0.3-0.9-0.5-1.4-0.8c-0.5-0.3-0.9-0.7-1.4-1L358.1,137.8z"/>
		<path fill="#231F20" d="M349.2,148.3c0-0.1,0-0.2-0.2-0.2c0,0,0-0.1,0-0.1c-0.3,0.1-0.6-0.7-0.8-0.9c-0.2-0.4-0.4-0.7-0.8-1
			c-0.7-0.5-1.5-1-2.2-1.5c-0.8-0.5-1.6-1.2-2.1-1.9c-0.2-0.3-0.3-0.7-0.6-1c-0.2-0.3-0.7-0.5-1.1-0.6c-1.1-0.2-2.3,0.6-3,1.3
			c-0.5,0.4-1,1.4-1.7,1.3c-1-0.1-1.9-0.7-2.9-0.8c-0.1,1.6,1.8,1.4,2.4,2.5c0,0,0.1,0,0.1,0c0.2,0.4,0.4,0.8,0,1.2
			c-0.4,0.3-1-0.1-1.5-0.3c-0.2-0.1-0.4-0.3-0.6-0.4c-0.3-0.1-0.4-0.4-0.7-0.5c-0.4-0.2-1,0.2-1,0.7c0,0.2,0.2,0.4,0.3,0.7
			c0,0.2,0,0.5,0,0.7c0,0.4-0.1,0.7-0.4,1c-0.3,0.4-0.8,0.5-0.7,1.1c0.1,0.6,0.9,0.9,1.4,1.2c0.4,0.2,0.8,0.5,0.9,0.9
			c0.2,0,0.3,0.3,0.2,0.4c-0.5,0.3-1.1-0.2-1.7-0.3c-0.5-0.1-1-0.1-1.5-0.1c-0.5,0.9,1.3,1.9,2,2.1c1,0.4,2.1,0.3,3.2,0.3
			c0.7,0,1.4,0.2,2.1,0.2c0.6,0,1.2,0.1,1.9,0c0.6,0,1-0.2,1.6-0.5c0.6-0.3,0.8-0.6,1.2-1.1c0.6-0.8,1.3-1.5,1.9-2.2
			c0.5-0.6,1.5-1.4,0.8-2.2c-0.3-0.4-0.8-0.6-1.1-0.8c-0.3-0.2-0.8-0.9-0.4-1.3c0.2-0.2,1,0,1.2,0.1c0.4,0.2,0.8,0.5,1.3,0.8
			c0.3,0.2,0.6,0.3,0.8,0.5c0.2,0.2,1,0.4,1,0.5L349.2,148.3z"/>
		<path fill="#231F20" d="M333.6,127.9c0.2,0.2,0.4,0.3,0.6,0.4c0.3,0,0.7,0.6,0.9,0.7c0.3,0.3,0.5,0.6,0.8,0.8
			c0.3,0.2,0.5,0.4,0.8,0.6c0.3,0.2,0.7,0.3,0.9,0.7c0.4,0,1.3,0.4,1.7,0.6c0.5,0.2,1.1,0.4,1.6,0.6c1.4,0.5,3,0.8,4.5,0.7
			c0.1-0.6,0.1-1.2-0.3-1.7c-0.4-0.5-1-0.9-1-1.5c0.9-0.5,2.2,1,2.8,1.5c0.8,0.8,1.8,1.5,2.5,2.2c0.4,0.1,0.9,0.2,1.3,0.1
			c0.5-0.1,0.6-0.4,0.9-0.8c0.8-0.8,2-0.6,3-0.6c1.1,0,1.9-0.6,2.2-1.6c0.1-0.4,0.2-1,0.1-1.5c-0.1-0.4-0.4-0.8-0.6-1.1
			c-0.3-0.5-0.9-1-1.4-1.4c-0.6-0.4-1.8-0.7-2.1-1.4c-0.4-0.8,0.6-0.8,1.1-0.6c0.4,0.1,1.1,0.9,1.6,0.6c-0.1-0.3-0.6-0.5-0.9-0.7
			c-0.4-0.3-0.7-0.6-1-0.9c-0.7-0.7-1.3-1-2.3-1c-0.9,0-1.8,0.3-2.6,0.5c-0.6,0.1-2.3-0.1-2.6,0.4c0.4,0.5,2.5,1.6,2,2.5
			c-0.2,0.4-1.2,0.4-1.5,0.2c-0.3-0.1-0.5-0.5-0.8-0.6c-0.3-0.2-0.8-0.3-0.9-0.6c-0.4-0.1-0.8-0.5-1.2-0.8c-0.4-0.3-0.8-0.5-1.3-0.7
			c-0.9-0.3-2.2-0.5-3.2-0.3c-0.4,0.1-1.1,0.4-1.5,0.6c-0.4,0.3-0.7,0.7-1.2,1c-0.5,0.3-1.2,0.4-1.6,0.8c-0.5,0.4,0.1,0.8,0.5,1.2
			c0.3,0.3,0.7,0.5,0.9,0.9c0.2,0.3,0.1,0.7,0.3,1c-0.5,0.2-1.5-0.1-1.8-0.6L333.6,127.9z"/>
		<path fill="#231F20" d="M307.3,127.1c0.3-0.2,1.1,0.4,1.3,0.6c0.3,0.2,0.9,0.6,1,0.8c0.4,0.8-1.3,1.4-1.8,1.6
			c-0.6,0.4-1.6,0.7-1.9,1.4c-0.3,0.8,0.8,1.5,0.9,2.2c0,0.3,0,0.7-0.1,1c-0.7,0.2-1.5-0.4-2-0.7c-0.5-0.3-1.1-0.5-1.7-0.8
			c0,0.7,1,1.6,1.6,1.8c0.2,0.5,0.9,0.6,1.3,0.9c0.3,0.3,0.9,0.8,0.7,1.3c-0.2,0.7-0.9,0.3-1.4,0.1c-0.6-0.3-1-0.5-1.6-0.4
			c-0.1,0.5-0.5,0.7-0.3,1.3c0.1,0.4,0.5,0.7,0.8,1c0.4,0.5,0.6,0.8,1.3,0.9c0.6,0.1,1.3,0,1.9,0c1,0,2.1,0,3.1-0.1
			c0.5-0.1,0.9-0.1,1.4-0.2c0.5-0.1,1-0.5,1.5-0.6c0.5-0.2,0.6-0.1,0.5-0.6c-0.1-0.4-0.3-0.7-0.5-1.1c-0.3-0.4-1.2-1-1.2-1.5
			c0.8-0.2,1.1,0.3,1.7,0.6c0.5,0.3,1,0.6,1.6,0.7c1.2,0.4,2.5,0,3.6-0.4c1.1-0.4,1.9-1.3,2.8-2.1c0.8-0.6,2-0.4,2.8-1
			c0.8-0.6-0.2-1.3-0.4-2c-0.1-0.6,0.1-0.7,0.7-0.7c0.2,0,0.5,0,0.8,0c0.3,0.1,0.4,0.3,0.7,0.4c0.5,0.1,0.5-0.3,0.5-0.7
			c0-0.4,0.1-1,0-1.5c-0.2-1-1.5-1.4-2.3-1.8c-0.8-0.5-1.7-0.8-2.6-1.2c-0.8-0.3-2.4-0.5-3.2-0.2c0.3,0.2,0.4,0.5,0.7,0.8
			c0.1,0.1,0.5,0.3,0.5,0.4c0.1,0.5-0.9,0.4-1.2,0.3c-1.1-0.3-2-1.7-3.2-0.9c-0.5,0.3-0.7,0.6-1.1,0.9c-0.3,0.3-1.1,0.3-1.6,0.2
			c-0.5-0.1-1.1-0.2-1.5-0.3c-0.5-0.1-1.1-0.2-1.6-0.3c-0.4-0.1-0.7-0.3-1.1-0.2H307.3z"/>
		<path fill="#231F20" d="M283.7,136.9c0.1-0.4-0.3-0.8-0.6-0.9c-0.5-0.3-0.8-0.5-1.2-0.9c-0.4-0.4-1.6-1.7-0.9-2.3
			c0.2-0.2,0.7-0.2,0.9-0.3c0.2-0.1,0.4-0.3,0.7-0.4c0.4-0.2,0.7-0.4,1.1-0.7c0.8-0.5,1.1-1.2,1.7-1.9c0.4-0.5,0.7-0.7,0.9-1.3
			c0.2-0.5,0.6-0.8,1.1-1.1c1-0.6,2,0.6,2.9,0.7c-0.6-0.3-1.2-1.2-1-1.9c0.1-0.5,0.5-0.8,0.9-1c0.5-0.3,1-0.5,1.5-0.8
			c1.6-1,2.8-3.5,0.8-4.7c-0.6-0.4-1.8-0.8-2.6-0.5c-0.3,0.1-0.6,0.4-0.9,0.5c-0.4,0.2-0.9,0.2-1.3,0.3c-1.1,0.1-2.1-0.1-3.1-0.4
			c-0.6-0.2-1.2-0.2-1.8-0.5c-0.6-0.2-1.5-0.5-2.1-0.4c0.1,0.3,0.4,0.2,0.5,0.4c0.1,0.1,0.2,0.4,0.3,0.6c0.3,0.7,0,0.8-0.7,0.9
			c-1.1,0.1-2.2-0.3-2.6,0.9c-0.5,1.6-1.8,1.1-3.2,1.1c-0.5,0-1-0.1-1,0.5c0,0.5,0.5,0.8,0.9,1c1.2,0.8,2.3,1.3,2.8,2.7
			c0.4,1.1-0.4,0.7-1.2,0.3c-0.7-0.5-1.4-0.9-2.2-1.3c-1.2-0.5-2.3-1.2-3.5-1.6c-0.9-0.3-2.2,0-3,0.4c-0.7,0.4-1.7,0.9-2.1,1.6
			c-0.4,0.6-1,2-0.7,2.7c0.4,1,1.4,1.7,2.3,2.4c0.3,0.3,0.8,0.6,1.1,1c0.2,0.2,0.4,0.9,0.4,1.1c-0.6,0.1-1.1-0.1-1.7-0.2
			c-0.3-0.1-1.6-0.5-1.6,0c0.5,0.1,1.1,0.8,1.6,1c0.4,0.2,0.8,0.3,1.2,0.5c0.4,0.2,0.8,0.6,1.4,0.5c-0.5,0.9,2.7,0.8,3.2,0.8
			c1,0,1.8,0,2.7-0.4c0.4-0.2,0.8-0.1,0.9-0.6c0-0.4,0-0.6-0.2-1c-0.2-0.3-0.4-1,0-1.2c0.5-0.3,1.3,0.6,1.6,0.9
			c0.6,0.6,1.3,1.2,2,1.6c0.5,0.4,1.1,0.8,1.7,1L283.7,136.9z"/>
		<path fill="#231F20" d="M243.2,129.4c-0.1-0.5,0.2-1.1,0.2-1.6c0-0.5,0-1,0-1.5c0-0.2-0.1-0.5,0-0.7c0.1-0.1,0.5-0.3,0.7-0.4
			c0.5-0.3,0.9-0.6,1.4-0.9c0.7-0.5,1.2-1.5,1.6-2.4c0.4-0.9,0.9-2.2,0.7-3.2c-0.1-0.5-0.5-1-0.7-1.5c-0.2-0.4-0.4-0.7-0.8-1.1
			c-0.7-0.7-1.9-1-2.9-1c-1,0-2.2-0.2-3.1,0.2c-0.5,0.2-1,0.3-1.5,0.3c-0.7,0-1-0.4-1.4-0.9c-0.3-0.4-0.5-0.9-0.7-1.3
			c-0.2-0.4-0.3-0.8-0.4-1.2c-0.2-0.4-0.8-0.7-0.8-0.1c0,0.1,0.1,0.5,0.2,0.6c0.1,0.3,0.1,0.6,0.1,0.9c0.3,1.8,0.8,3.6,0.7,5.6
			c0,0.2,0,0.4-0.2,0.5c-0.4,0.2-0.6-0.4-0.8-0.7c-0.3-0.4-0.5-0.7-0.7-1.1c-0.6-0.9-1-1.8-2-2.2c-1-0.3-1.8,0.2-2.7,0.7
			c-0.7,0.4-1.4,0.8-1.9,1.4c-0.6,0.6-1,1.5-0.8,2.5c0.2,0.9,1.1,1.5,1.1,2.5c0.1,1.4-1.8,0-2.2-0.4c-0.7-0.6-1.3-1.2-1.7-1.9
			c-0.3,0.7-0.1,2.2,0.2,2.9c0.4,0.9,1,2.3,1.7,2.9c0.4,0.3,0.8,0.6,1.2,0.9c0.5,0.3,0.9,0.5,1.5,0.7c1.2,0.5,2.4,0.9,3.7,0.4
			c1.7-0.6,3.2-1.9,5-2.1c1-0.1,2-0.1,2.8,0.5c0.5,0.3,0.8,0.6,1.2,0.9c0.3,0.2,0.6,1,0.9,1.1L243.2,129.4z"/>
		<path fill="#231F20" d="M256.3,158.4c-0.6-0.7-1-1.3-1.8-1.7c-0.4-0.2-0.9-0.5-0.6-1c0.2-0.3,0.7-0.5,1-0.7
			c0.7-0.6,1.3-1.6,1.6-2.4c0.2-0.4,0.4-1,0.3-1.5c-0.1-0.4-0.5-0.8-0.7-1.1c-0.2-0.3-0.3-0.5-0.4-0.9c0.8-0.6,1.6,0.5,2.3,0.6
			c-0.2-0.3-0.3-0.6-0.5-0.9c-0.3-0.4-0.6-0.6-1.1-0.8c-0.4-0.2-0.9-0.4-0.7-1c0.1-0.5,0.7-0.4,1-0.7c0.2-0.2,0.2-0.4,0.2-0.7
			c0-0.2,0.1-0.6,0.1-0.8c-0.1-0.4-0.8-0.7-1.1-0.9c-0.4-0.2-0.9-0.5-1.3-0.8c-0.3-0.2-1-0.6-1.4-0.4c-1.2,0.4,0.6,2.8-1.5,1.5
			c-0.8-0.5-1.9-1.2-2.9-1.4c-1-0.3-2.1,0.1-2.9,0.6c-1,0.5-2.1,1.1-3.3,1.4c-0.5,0.1-1.1,0.3-1.4,0.7c-0.5,0.5-0.1,0.8,0.2,1.2
			c0.3,0.4,0.5,0.9,0.7,1.3c0.2,0.4,0.4,0.8,0.3,1.2c-0.8,0-1.7-0.6-2.5-0.9c-0.4-0.1-0.7-0.2-1.1-0.3c-0.5-0.2-0.8-0.2-1.1,0.3
			c-0.3,0.5-0.2,1-0.4,1.4c-0.2,0.5-0.8,0.7-1.2,0.8c-0.7,0.3-1.3,0.6-1.9,1c-0.4,0.2-1,0.5-1.3,0.9c-0.6,1,0.2,2.1,0.8,2.7
			c0.5,0.5,1.4,1.1,1.3,1.9c-0.5,0-1.8-0.2-2.1,0.3c0.3,0.1,0.4,0.4,0.6,0.5c0.5,0.3,1,0.6,1.4,0.9c0.6,0.4,1.4,0.7,2,1.2
			c0.3,0.3,0.7,0.6,0.2,0.8c-0.6,0.2-1.3-0.1-1.9,0c0.1,0.1,0.2,0.1,0.3,0.2c0.2,0.1,0.4,0.4,0.6,0.6c0.3,0.2,0.8,0.2,1.2,0.3
			c1.1,0.3,1.5,0.2,2.5,0.6c1.2,0.5,2.5,1,3.6,0.2c-0.6-0.2-2.3-0.8-1.9-1.7c0.2-0.5,1.1-0.2,1.4,0c0.5,0.3,1,0.7,1.5,0.9
			c2.3,1.1,4.1-1.6,5.4-3c0.6-0.6,1.2-1.4,2.1-1.6c0.7-0.2,2.4-0.2,2.8,0.7L256.3,158.4z"/>
		<path fill="#231F20" d="M131.5,201.9c-0.5,0-1.1,0.1-1.6,0c-0.5-0.1-1-0.5-1.5-0.5c-0.7-1-2.8-1.9-4.1-2.1c-1.2-0.2-3.2-0.7-4.5,0
			c-1.3,0.7-2.4,2.3-3.4,3.4c-0.6,0.6-1.1,1.3-1.5,2.1c-0.5,1-0.5,1.8-0.8,2.9c-0.4,2-2.3,1.4-3.8,2.2c1.2,0.1,2.4,0,3.5,0
			c0.8,0,2.7-0.1,3,0.6c-0.8,0.5-2.2,0.7-2.8,1.6c0.4,0.3,0.7,0.3,1,0.8c0.2,0.4,0.6,1.2,0.7,1.7c0.3,0.9,0.2,2,0.2,3
			c0,1.3,0,2.5,0.2,3.7c0.1,0.9-0.1,2.4,0.2,3.3c1.4-0.5,3.1,0,4.5,0.1c-0.2,0.5-1,0.8-1.5,1.1c-0.6,0.4-1.3,0.8-1.9,1.2
			c-1.4,0.8-1.9,2.5-1.1,4c0.7,1.5,1.4,2.6,2.9,3.3c1.4,0.7,3.2,1.3,4.8,1.1c3.2-0.4,5-4.4,7.1-6.4c1.3-1.3,3.3-1.7,4.4-3.3
			c1-1.5,1.6-4.1,1.4-5.8c-0.1-0.8-0.5-1.6-1.1-2.3c-0.5-0.7-1.3-1.1-2.2-1.4c-1-0.4-1.8-0.3-2.8,0.2c-0.8,0.4-1.6,0.4-2.4,0.6
			c0.5-0.7,1.3-1.2,2-1.7c0.3-0.2,1.3-0.6,1.5-0.9c0.2-0.3,0-1.4-0.1-1.9c-0.1-0.6-0.6-1.2-0.9-1.8c-0.7-1-1.2-2.5-1.6-3.8
			c-0.2-0.6-0.2-1.3-0.5-1.7c-0.4-0.5-1.3-1-1.8-0.6c0.4-0.8,2.9-1.2,3.7-1.6L131.5,201.9z"/>
		<path fill="#231F20" d="M149.2,185c0-0.5-1.4-1.1-1.7-1.4c-0.7-0.6-1.3-0.5-2.2-0.8c-0.5-0.1-1.4-0.5-2.1-0.5
			c-0.8,0-1,0.5-1.6,0.9c-1.4,0.9-3.1-0.1-4.5,0.6c-1.2,0.5-2.3,1.6-2.5,2.9c0.5-0.1,0.5,0.3,0.9,0.5c0.3,0.1,0.3,0.1,0.7,0.2
			c0.5,0.1,1.3,0.3,1.9,0.3c0.1,0.2,0.1,0.5,0,0.7c-0.4,0-1,0.2-1.4,0.3c-0.5,0-1.1,0.1-1.5,0c-0.7-0.1-2.2-0.9-2.6,0.1
			c0.9,0.8,0,1.5,0,2.4c0,1.1,0.9,2.2,1.3,3c0.1,0,0.1,0,0.2,0c0.3,1.3,1.9,2.4,3,2.8c1,0.4,2.2,0.5,3.3,0.6
			c0.7,0.1,1.5,0.2,2.2,0.2c0-0.8-0.7-1.1-1.3-1.4c-0.5-0.2-2-0.6-1.2-1.2c0.7-0.5,2.3,0.1,3,0.2c0.9,0.1,1.7,0.4,2.6,0.5
			c1.4,0.1,3.4,0.5,4.5-0.6c0.5-0.5,0.8-1.4,1.2-2c0.5-0.7,1.3-1,1.5-1.7c0.1-0.6,0.1-1.5,0.1-2.1c-0.1-0.9-0.5-1.2-0.9-1.9
			c-0.5-0.2-1.1-0.8-1.6-1.1c-0.6-0.3-1-0.4-1.7-0.5c-0.6,0-1.5,0.1-1.9-0.3c-0.5-0.6,0.1-0.9,0.5-1.1L149.2,185z"/>
		<path fill="#231F20" d="M184,167.8c-0.3-0.3-0.7,0-1.1-0.2c-0.5-0.1-0.8-0.4-1.2-0.6c-0.8-0.4-1.8-0.9-2.8-1
			c-0.2-0.8-0.5-1.1,0-1.9c0.4-0.6,0.8-1,1-1.8c0.3-1.3,0-2.9-1-3.8c-2-1.9-5.7-1.9-8.4-1.8c0.3,0.4,0.7,0.5,1,0.8
			c0.4,0.4,0.5,0.8,1.2,0.8c0.2,0.2,0.3,0.5,0.3,0.8c0.1,0,0.1,0,0.2,0c0.5,1.2-4,0.4-4.7,0.4c-0.5,0-0.9,0-1.4,0.3
			c-0.4,0.3-0.5,0.9-0.9,1.2c-0.7,0.4-1.6,0.6-2.3,1.1c-1.3,0.9-2.5,1.9-4,2.3c-0.7,0.2-1.6,0.3-1.2,1.3c0.2,0.6,1.1,1.1,1.4,1.5
			c0.1,0.1,0.3,0.1,0.4,0.1c0.1,0.4-0.1,0.8-0.5,0.9c-0.6,0.3-1.2-0.2-1.7-0.5c-0.8-0.5-1.6-0.9-2.3-1.4c-0.3,0.7,0,1.8,0.2,2.5
			c0.1,0.4,0.4,0.8,0.4,1.2c0,0.6-0.4,0.7-0.7,1.1c-1.5,2,2.8,2.2,3.8,3.3c-1,0.7-2.7,0.1-3.7-0.3c-1-0.3-2.3-0.3-3.3,0.1
			c1.5,1,3.8,1.7,5.7,2.2c1.1,0.3,2.2,0.5,3.4,0.6c1.1,0.1,1.9,0.6,3.1,0.6c0.9,0,1.8-0.1,2.7-0.2c1.1-0.1,1.3-0.3,2.1-0.9
			c0.7-0.6,1.1-0.8,2.1-0.8c0.8,0,1.7,0.1,2.4-0.1c1-0.3,3-1.2,2.8-2.4c-0.2-1.2-1.5-2-0.6-3.4c0.3-0.5,0.7-0.6,1.2-0.9
			c0.5-0.3,0.8-0.7,1.2-0.9c1.2-0.7,2.2-0.4,3.3-0.2L184,167.8z"/>
		<path fill="#231F20" d="M203.2,192.7c-0.7-0.1-1.3,0.6-1.9,0.8c-0.7,0.1-1.7,0.2-2.4,0.1c-1.4-0.3-2.9-1.1-3.9-2.2
			c-1.8-2.2-2.7-5-4.7-7.1c-0.5-0.6-1.4-1-1.7-1.7c-1.2-0.4-2.6-0.3-3.9-0.4c-0.5-0.1-3-0.6-2.9,0.4c0.8,0,4.4,1,3.2,2.5
			c-0.9,1-4,0.1-5.2,0.2c-1.1,0.2-1.1,1-1.4,1.8c-0.3,0.7-0.7,1.5-1.1,2.2c-0.4,0.9-1.5,3.5-1,4.5c0.3,0.6,1.6,0.4,2.3,0.6
			c0.4,0.1,1.8,0.5,2,0.7c-0.9,0.8-2,1-3,1.4c-1,2.2,3,4.4,4.3,5.6c0.7,0.6,1.9,1.2,2.3,2.1c0.6,1.4-0.9,1.8-1.9,2.3
			c-0.2,0.7,1.3,1.1,1.8,1.2c0.6,0.2,1,0.4,1.7,0.4c0.7,0.1,0.9,0.2,1.6,0.4c1.6,0.5,3.9,0.2,5.5-0.6c0.8-0.4,1.4-0.8,2.4-0.8
			c0.9,0,1.9,0.1,2.8-0.1c1.3-0.2,3.1-0.8,4.3-1.4c0.7-0.4,1.2-0.7,1.1-1.5c-0.1-0.7-0.5-1.5-0.9-2c-0.6-0.7-1.2-1.4-1.9-2.1
			c-0.4-0.5-1.1-0.9-1.6-1.4c-0.3-0.4-0.7-1-0.9-1.4c-0.2-0.9-0.1-1.2,0.7-1.5c1.2-0.5,2.3-1.3,3.6-1.8L203.2,192.7z"/>
		<path fill="#231F20" d="M233.4,183.4c-1.3-0.2-2.2-0.9-3.5-1.1c-0.1-0.1-0.2-0.5-0.2-0.6c0.9-0.4,1.7-0.6,2.7-0.3
			c1,0.3,1.5,0.8,2.7,0.8c-0.5,0.2-1.2-1-1.5-1.3c-0.5-0.5-1.2-0.6-1.8-1c-1.1-0.7-1.6-2-2.9-2.7c-0.5-0.3-4.6-1-3.9-2.1
			c0.3-0.4,2,0.1,1.6-0.6c-0.2-0.3-1.9-1-2.3-1.1c-0.7-0.2-1.6-0.2-2.3-0.2c-0.8,0-1.9-0.3-2.7-0.1c-0.6,0.2-0.3,0-0.6,0.5
			c-0.2,0.3-0.3,0.9-0.6,1.2c-0.7,0.8-1.5,0.3-2.4,0.5c-0.4,0.1-1.9,0.3-1.9,0.8c0,0.6,1.8,0.9,2.3,1.1c0.4,0.2,1.9,0.6,1.3,1.4
			c-0.4,0.5-1.8,0-2.2-0.1c-0.9-0.3-2.1-1-3-0.7c0.1,1,2.6,1.9,3.4,2.3c0.4,0.2,1.3,0.4,0.9,1.1c-0.3,0.5-1.3,0.3-1.8,0.2
			c0.8-0.1,1.5,0.5,2.2,1c0.8,0.5,1.7,0.9,2.3,1.5c0.7,0.7,0.3,1.3,0.7,2.2c0.3,0.7,1,1.2,1.6,1.5c1.1,0.6,2.9,0.5,3.9-0.1
			c0.6-0.3,1.3-0.7,1.9-1.1c0.6-0.4,0.8-1,1.4-1.5c0.6-0.5,1.4-1.2,2.3-1.1L233.4,183.4z"/>
		<path fill="#231F20" d="M145.8,130.8c-1.6,0-2.8,0.7-4.5,0.8c-1.9,0.1-3.3-0.8-5.1-1c-1.8-0.2-3.2-0.4-4.5,1
			c-1.2,1.3-2.2,2.4-3.6,3.4c-0.8,0.6-0.6,1-1.2,1.7c-0.4,0.4-1.1,0.5-1.7,0.6c-0.6,0.1-1.3,0.4-2,0.6c-0.6,0.2-1.6,0.2-2.1,0.6
			c0.4,0.2,1.1,0.1,1.6,0.1c0.9,0,1.3,0.3,2.2,0.5c1.3,0.3,2,0.8,0.9,2.1c-0.6,0.8-1,1.6-0.2,2.4c0.3,0.4,0.9,0.6,1.3,0.8
			c0.3,0.2,0.8,0.3,1.2,0.5c0.3,0.2,0.3,0.5,0.8,0.5c0,0.1,0,0.4,0,0.5c-1.2,0.4-3.5-0.7-4.2,0.6c1.2,1.2,2.2,1.4,4.1,1.4
			c1.7,0,3.4-0.3,4.8-1.3c0.8-0.5,1.2-0.6,2.2-0.6c0.5,0,1.2,0.1,1.7,0c0.5-0.1,0.5-0.3,0.9-0.6c0.8-0.8,1.2-0.9,2.4-1
			c0.9-0.1,1.2-0.3,1.8-0.9c1.1-1,1.5-1.7,1-3.3c-0.2-0.5-0.4-0.9-0.4-1.5c-0.1-0.8,0.4-1.2,0.6-1.9c0.1-0.6,0-1.3-0.3-1.8
			c-0.2-0.4-0.6-0.9-0.6-1.4c0-1.3,1.4-1.1,2.1-1.5L145.8,130.8z"/>
		<path fill="#231F20" d="M194.2,117.5c-1.6,0-2.8,1.5-4.3,0.4c-0.8-0.5-1-0.6-2-0.6c-1,0-1.4,0-2.1,0.5c-1.3,0.9-2.9,1.4-4.1,2.3
			c-1,0.7-1.3,1.2-2.5,1.2c-0.8,0-1.6,0-2.4,0.1c-1.8,0.3-3.3,1.6-4.6,2.9c-0.9,0.8-2.6,3.4-2.1,4.6c1.2,0.3,1.6,0.6,2.9,0.1
			c0.2-0.1,1-0.5,1.3-0.3c0.6,0.5-0.1,1.3-0.5,1.5c-1,0.7-2,1.3-3,2c-1,0.7-1.9,0.8-2.3,1.9c0.9,0,1.9,0,2.9-0.2
			c0.8-0.1,1.6-0.6,2.5-0.5c0.1,0.4,0.7,0.6,1.1,0.9c0.5,0.4,0.7,0.9,1.2,1.2c0.6,0.5,1.3,0.7,2.1,1c1.8,0.5,3.8,0.3,5.7,0.3
			c1.6,0,3.3,0.1,4.9-0.1c0.7-0.1,1.6-0.1,2.3-0.4c0.6-0.3,1.8-1,2.1-1.7c-0.4-0.5-2.4-0.1-3.1-0.2c-0.5-1.1,0.8-1.4,1.6-1.6
			c1-0.2,1.5-0.5,2.2-1.1c1.2-1,1.6-2.4,2.5-3.6c0.5-0.6,1.1-0.8,1.7-1.1c0.7-0.4,1.4-1.1,2.1-1.6c1.1-1,1.6-3.4,0.8-4.7
			c-0.4-0.6-2.4-1.8-3.1-1.8c-1,0-2.7,0.7-3.5,1.3c-0.4,0.2-3.3,1.6-2.8,0.1c0.3-1,2.3-1.1,2.8-2L194.2,117.5z"/>
		<path fill="#231F20" d="M218.4,141.8c0,0-1.7,3.6,1,8.7l-4.6-0.3l6.3,3.1c0,0-3.8-0.3-4.1,3.8c0.1,3.4-5.3,3.6-5.3,3.6l0.6,2.2
			l-3.7-1.7l2.2,2.7c-10.1,0.6-13.2-1.7-11-4.7c0.9-1.1,0.1-2.5-1.8-4.2l0.1-1.9c0,0,4.8,0.8,6.3,1c0,0-1.7-1.6-6.3-3.1
			c0.6-2.7,2.8-1.4,4.3-5.1c0,0,2.9,0.7,5,1.6c0,0-1-2-6.6-3.6c0,0,3-0.3,5.1-0.5c2.1-0.2,2.1-2,2.1-2c1.5-0.2,2.1-1.2,4.4-1.2
			S216.9,140.4,218.4,141.8z"/>
		<path fill="#FFFFFF" d="M352.4,281.1c0,0,2.2,13.2-11.7,28.1c0,0,24.2-3.8,36.9-31.2c0,0,1.3,3.9,0.8,12.7c0,0,6.6-1.8,17.2-16.8
			c0,0,0.6,4.8,4.2,8.8l9.2-7.8c0,0,1.1,2.8,1.6,8.4c0,0,3-1.2,8.2-5c0,0,0.1,5.4-9.6,24c13.6-7.1,27-22.4,27-28.9
			c0-3.1-3.2-6-7.1-6c-3.8,0-7,3-7,3s-2.2-2.6-5.9-2.6c-3.7,0-6.7,3.4-6.7,3.4s0.4-2.8-3.2-2.8S386.4,279.2,352.4,281.1z"/>
		<path fill="#FFFFFF" d="M372.7,327.1c0,0-7.4,13-18.8,25.4c0,0-1.7-4.3-3.6-5.2c0,0-6.4,5-8.3,7.5c0,0-2.5-4.6-4.5-6.3
			c0,0-4.7,3.7-5.9,5.5c0,0,5.9-10.2,0.2-27.7c0,0-7.4,22.9-27,36c-0.9,0.8-1.2,5.5,6.1,5.5c11.5,0,18.3-9,18.3-9s11.7-2,23.2-0.5
			c0,0,3.9,3.7,6.8,3.7C362.2,361.9,373.6,349.8,372.7,327.1z"/>
		<path fill="#FFFFFF" d="M109.2,125.8h-5.5v-2.4c0,0,5.5,0.2-49.8,1.6c0,0,21.9,6.5,33.8,13.1c0,0,2.9-1.7,4.9-1.8
			c2-0.1,2.2-0.9,4.6-1c2.4-0.1,2.2-1.6,2.2-1.6h3.6c0,0-0.8-2.1-3.8-2.9C99.1,130.8,103.9,127.7,109.2,125.8z"/>
		<path fill="#FFFFFF" d="M39.6,134.2c0,0,5.9,2.3,8.9,6.4c0.1,10.3,8.6,19,19.7,28.1H61c0,0,6.4,4.3,18,7.7c0,0-1.8,1.3-7.8,2
			c0,0,9.5,6.3,31.8,6.3c18.7,0,26.8-5.7,26.8-5.7l-15.1-2.1c0,0,26.7-2.6,40.3-13.8c0,0-8.4,5.5-37.1,5.5
			c-28.7,0-41.4-8.3-41.4-8.3s16.8,3.1,27.5,1C79.9,144.6,68.4,133.8,39.6,134.2z"/>
		<path fill="#FFFFFF" d="M417.7,258.2c0,0,14.2,0,23.9,10.7c0,0,16.1-2.9,23.8-13.1c-7.5,0.4-9.6-1.1-9.6-2.6
			c0-1.5,1.7-1.8,6.3-1.8c4.5,0,6,0,6,0s3.4-1.2,3.9-11.6c-5.9,5.4-12.9,6.9-14,4.4c-1.4-3.1,10.4-4.4,13.9-9.8c0,0,0.6-2.6-1.7-8.2
			c-4.3,7.3-6.9,8.5-8.8,7.2c-3-1.9,5.7-5.2,6.9-10.6l-4.1-5C451.9,242.4,431.3,237.4,417.7,258.2z"/>
		<path fill="#FFFFFF" d="M131.2,251.8c0,0,1.7-1.9,3.8-3.3l-0.8,3.1h0.5c0,0,3-3.4,5.9-3.6c0,0-1.5,1.6,0.7,2.4
			c4.2,1.6,9.2,0.7,14.7,1.5c1.6,0.6,2.5,0.9,5.8-0.3c3.3-1.2,5.7-1.2,5.7-1.2s-4.8,2-5.7,3.5c0,0,3.2,2.1,3.2,5.6s-1.2,6.1-4.8,8.3
			c-4.8,2.8-5.3,6-5.3,6l3.1-2c0,0-0.8,7.2-7.7,7.2c-3.9,0-5-2.2-6.3-2.2c-0.8,0-3.4,2.9-3.4,2.9s0.2-2.8,4.9-7.6c0,0-3.1,1.2-4.5,3
			c-6.6-3.9-14.1-4.4-14.1-10.4c0-2.6,2.1-6,2.1-6s-1.7,0.1-2.4,1.9l-0.3-3.2l-10.2,8.4c0,0,5.9,6.5,16.4,14.6s28.6,19.1,46.1,26.3
			c17.4,7.3,32.2,15.7,40.4,24.6c8.2,8.9,15.3,22,22.8,33c7.5,11,24.9,30.3,42.6,34.9l-3.6,4.5c0,0,13.2,2.3,30.4-0.3l-5.5,6.1
			c28.4-2.9,51.7-15.8,64.6-40.4c0,0-4.9-4.3-18.5-4.3c-20,0-38.4,12.9-56.1,12.9c-17.1,0-30.2-15.7-39.8-30.6
			c-9.6-14.9-26.6-48.9-26.6-73.6c0-40.2,28.4-43.8,28.4-43.8s-36.5-8.1-59.5-9.9c56.1,2.5,118.5,18.6,148.3,33.4
			c0.8,0.7,1.5,4.9-2.6,4.9c-2.7,0-11.1-5.7-32.4-12.9c5.2,10.2,17.7,28,41.9,28c22.7,0,31.8-14.9,61.5-15.8
			c0.8-17.1-7.4-21-26.2-30.3c-18.9-9.3-33.2-13-33.2-13l-0.8,0.1c0,0,9.1,4.6,18.4,12l-2.2,1.3c0,0,5.3,3.4,13,12.8
			c0,0-12.2,5-19.8,4.5c0,0-0.2,2.3-2.9,2.3c-1.9,0-8.9-3.7-26-11.1c-17.1-7.4-62.9-23.4-124.4-31.6c0,0,9.9,3,13.7,4.8
			c0,0-5.1-1.4-9.4-0.8l4.4,2.8c0,0-29.5-1.2-47.1,2.5c0,0,11.4,3.3,16,9.1c0,0-7.1,0.1-11.5,0.8c0,0,1.1,2.3,1.1,3.3
			c0,1-3.7,3.6-3.7,3.6h2.8v7.1c0,0-3.9,5.6-14.9,2.8l0.4-1.8l-6.5,0.6c0,0,4.6-2.2,6.7-3.9c0,0-6.7,2.8-8.1-0.8
			c0,0-22.2,5.5-32.9,14.2C121.7,248.8,127.9,249.8,131.2,251.8"/>
		<path fill="#FFFFFF" d="M278.9,153.5c0,0-19.8,3.3-29.5,19.2l1.6-0.4c0,0,8.5-9.6,31.6-9.6c26.8,0,44.1,15.2,59.4,17.2
			c0,0-10.3-2.4-14.6-11.1c0,0-0.8,2.4,0.2,4.3c-11.1-6.2-17.5-8.6-18.3-18.1c0,0-2.4,1.9-2.6,6.4l-1.8-1.4c0,0-0.4,1.8,2.5,3.4
			c1,0.5-0.5,1.9-0.5,1.9s-3.3-0.5-6.3-2.2c0,0,2.3-0.2,1.5-1c-0.8-0.9-3.1-3-3.7-4.2c-1.4-1.7,2.4-0.9,2.4-0.9s-1.1-1.8-4.5-2.4
			c0,0,0.8-1.1,2.4-0.9s-0.3-1.7,1.7-2.3s5.2-2.7,6.9-5.8c1.4-2.2,3.9,0.6,3.9,0.6s-0.7-3.7-6.3-3.7c-6.4,0-11.2,3.7-11.2,3.7l3.9,2
			c0,0-1.7,0.3-3.7-0.6c-2.1-0.9-3.5,1.7-3.5,4.5c0,3.8,4.4,4.7,4.4,6.8s-0.3,3.8-2,1.7l0.2,1.9c-4.3-3.1-8-3-10.6-7.5l3,1.2
			c0,0-0.3-1.1-3.7-2.9c0,0-0.5-1.4,0.4-1.4l0.1-3.8h-7.8v0.8L278.9,153.5z"/>
		<path fill="#185465" d="M328,181.6v-0.7l-11.8-3.7l-0.3,1c0,0,0.7,0.5,0.7,2c0,1.5-1.1,3.7-4.4,3.7s-4.5-2.7-4.3-4.5
			c0,0,3.2,0.1,3.2-2c0-3-12.7-6.3-29.4-5.7c14.4,11.1,22.7,15.4,28.8,15.4C318,187.2,328,181.6,328,181.6z"/>
		<path fill="#FFFFFF" d="M308,179.5c0,0,3.2,0.1,3.2-2c0-2-5.2-4-13.3-5C298,172.4,303.3,175.8,308,179.5z"/>
		<path fill="#FFFFFF" d="M269.2,170.6c0,0-1.9-0.3-7.8,0.2c0,0,1.4,3.7,5.4,7.7c0,0-3.7-0.3-5.3-0.6c11.2,11.1,21.5,15.1,37.8,14.8
			l-2.4,1.3c0,0,10,0.3,19,4C291.5,181.9,293,188.7,269.2,170.6z"/>
		<path fill="#231F20" d="M215,251.4c0,0-2.8,0.1-5.7,1.2c0,0-3.7-7.7-9-7.7s-13.7,5.3-13.7,5.3l0.4-2c-9.1,0-11.5,0.5-11.5,3.9
			c0,3.4,3.6,3.8,7.7,7.6c0,0,1.6-1.7,3.8-1.8l-5,4.7c0,0,3.1-2.2,6.6,0.2c3.5,2.4,11.7-0.3,14.9-2.2c0,0-1,2.3-3.1,3.4
			c0,0,7.5,2.3,10.8-1.9c2-3.1-1.1-7.5-1.1-7.5S212.5,252.3,215,251.4z"/>
		<path fill="#231F20" d="M197.7,276.8c-7.6,2.3-15.9,0.3-24.8,0.1l1.2-1.7c0,0-2.8,0.4-5.1,1.7s-7.5,1.7-7.5,6.1c0,3.7,3.1,6,3.1,6
			l2.9-3.2c0,0,0.4,2.1-0.7,3.4c10.5,6.7,22.2,2.8,26.9,7.6l5.5-3.7c0,0,0.2,1.1-2.6,5.6c3.4,3.3,5.8,4.4,9.1,4.4
			c3.3,0,5.4-0.6,5.8-5.2l1.3-1.6l-2.1,0.1c0,0,0.5-2-0.7-4.1c0,0,0.8-0.9,3.3,0.8c0,0,0.9,0,2.1-1.3s1.1-1.3,1.1-1.3l-1.2,0.1
			c-0.8-6.3-5.8-9.4-9.3-8.1c0,0-0.6-4.3-5.3-4.3c-1.8,0-5.2,2.1-7.8,2.1L197.7,276.8z"/>
	</g>
</g>
</svg>
