<?xml version="1.0" encoding="utf-8"?>
<!-- Generator: Adobe Illustrator 16.0.4, SVG Export Plug-In . SVG Version: 6.00 Build 0)  -->
<!DOCTYPE svg PUBLIC "-//W3C//DTD SVG 1.1//EN" "http://www.w3.org/Graphics/SVG/1.1/DTD/svg11.dtd">
<svg version="1.1" xmlns="http://www.w3.org/2000/svg" xmlns:xlink="http://www.w3.org/1999/xlink" x="0px" y="0px" width="512px"
	 height="512px" viewBox="0 0 512 512" enable-background="new 0 0 512 512" xml:space="preserve">
<g id="grids" display="none">
	<g id="svgGrid_12_" display="inline">
		<line fill="none" stroke="#B35047" x1="32" y1="0" x2="32" y2="512"/>
		<line fill="none" stroke="#B35047" x1="64" y1="0" x2="64" y2="512"/>
		<line fill="none" stroke="#B35047" x1="96" y1="0" x2="96" y2="512"/>
		<line fill="none" stroke="#B35047" x1="128" y1="0" x2="128" y2="512"/>
		<line fill="none" stroke="#B35047" x1="160" y1="0" x2="160" y2="512"/>
		<line fill="none" stroke="#B35047" x1="192" y1="0" x2="192" y2="512"/>
		<line fill="none" stroke="#B35047" x1="224" y1="0" x2="224" y2="512"/>
		<line fill="none" stroke="#B35047" x1="256" y1="0" x2="256" y2="512"/>
		<line fill="none" stroke="#B35047" x1="288" y1="0" x2="288" y2="512"/>
		<line fill="none" stroke="#B35047" x1="320" y1="0" x2="320" y2="512"/>
		<line fill="none" stroke="#B35047" x1="352" y1="0" x2="352" y2="512"/>
		<line fill="none" stroke="#B35047" x1="384" y1="0" x2="384" y2="512"/>
		<line fill="none" stroke="#B35047" x1="416" y1="0" x2="416" y2="512"/>
		<line fill="none" stroke="#B35047" x1="448" y1="0" x2="448" y2="512"/>
		<line fill="none" stroke="#B35047" x1="480" y1="0" x2="480" y2="512"/>
		<line fill="none" stroke="#B35047" x1="0" y1="32" x2="512" y2="32"/>
		<line fill="none" stroke="#B35047" x1="0" y1="64" x2="512" y2="64"/>
		<line fill="none" stroke="#B35047" x1="0" y1="96" x2="512" y2="96"/>
		<line fill="none" stroke="#B35047" x1="0" y1="128" x2="512" y2="128"/>
		<line fill="none" stroke="#B35047" x1="0" y1="160" x2="512" y2="160"/>
		<line fill="none" stroke="#B35047" x1="0" y1="192" x2="512" y2="192"/>
		<line fill="none" stroke="#B35047" x1="0" y1="224" x2="512" y2="224"/>
		<line fill="none" stroke="#B35047" x1="0" y1="256" x2="512" y2="256"/>
		<line fill="none" stroke="#B35047" x1="0" y1="288" x2="512" y2="288"/>
		<line fill="none" stroke="#B35047" x1="0" y1="320" x2="512" y2="320"/>
		<line fill="none" stroke="#B35047" x1="0" y1="352" x2="512" y2="352"/>
		<line fill="none" stroke="#B35047" x1="0" y1="384" x2="512" y2="384"/>
		<line fill="none" stroke="#B35047" x1="0" y1="416" x2="512" y2="416"/>
		<line fill="none" stroke="#B35047" x1="0" y1="448" x2="512" y2="448"/>
		<line fill="none" stroke="#B35047" x1="0" y1="480" x2="512" y2="480"/>
		<rect fill="none" stroke="#B35047" width="512" height="512"/>
	</g>
</g>
<g id="b_x26_w" display="none">
	<g id="Layer_9" display="inline">
	</g>
	<g id="Layer_6_copy" display="inline">
	</g>
	<g id="Layer_7_copy" display="inline">
	</g>
	<g id="Layer_11_copy" display="inline">
	</g>
	<g id="Layer_13_copy" display="inline">
	</g>
	<g id="Layer_15_copy" display="inline">
	</g>
	<g id="Layer_17_copy" display="inline">
	</g>
	<g id="Layer_19_copy" display="inline">
	</g>
	<g id="Layer_21_copy" display="inline">
	</g>
	<g id="Layer_23_copy" display="inline">
	</g>
	<g id="Layer_25_copy" display="inline">
	</g>
	<g id="Layer_27" display="inline">
		<path fill="#FFFFFF" d="M453.3,248.1c-7.8-6.7-17.8-7.1-23.6-18.7c-4.4-8.8-14.3-12.2-23.4-13.6c-7.1-1.7-11.2-8.5-16-13.6
			c-6.2-10.8-18.8-10.9-29.9-12.2c-12,0.4-19.5-14.1-32-17.4c-4.6-1.2-17-0.3-25.1-6.2c-7.3-5.4-16.5-10.8-35-8.4
			c-13.9-2.3-23.8-14.2-37.9-16c-9.6-3-18.3,1.4-27.7,1c-6.7-1.8-12.2-6.5-19-7.9c-10.2-1.8-12.8,2.2-38.6-3.3
			c-12.2-2.6-27.4-6.5-19.5,18.8c3.4,11.1,11.4,38.7-14.6,41.4c-9.4,0.9-18-7.6-26.5-0.7c-2.9,2.1-8.3-2.6-11.9-1.6
			c-11.3,3.3-6.8,16.4-7.8,25.5c-0.3,10.2-7.2,17.7-10.6,26.6c-8.1,16.3-4.7,38.5,1,54.8c1.6,8.5-0.9,17.3,0.8,25.6
			c0.5,1.5,2.3,3.4,4.5,2.3c17.2-8.4,21.5,2,27.4-0.4c16.1-7.1,27.2-3.9,30.7,4.3c5.9,17.1-6.8,32-3.4,48.8
			c3.2,11.3,24.6,1.4,34.7,1c14-1.1,27.6,3,40.9,0.4c11.6-5.9,24.5-9.2,38.5-8.9c9.3,0.1,16.6-4.7,24.1-9.1
			c13.7-9.6,34.5-2.5,47.8-13.3c7.2-5.7,17.8-3.4,25.6-7.8c11.9-10.6,26-16.3,41.5-18.5c8.1-3.1,14.3-11.5,21.9-15.4
			c6.8-4.2,14.9-5.1,21.4-9.9c10.3-13.6,24.1-24.8,40.5-27.6C467.7,262.1,462.1,253.3,453.3,248.1L453.3,248.1z M352.7,308.6
			c-12.5,11.7-36.2,20.2-58.6,22.5c-26.9,2.8-53.6-1.1-75-15.1c-12.7-9.3-20.8-23.8-19.2-39.9c0.9-15.7,10.7-29.2,23.2-38.5
			c-1-1.1-1.8-1.9-2.9-3.2L189.4,253c0,1.6,0,3.8,0,5.4c3.2,0,4,0,7.8-0.1v17.3l-5.8,6.5l-56.7,0l-0.1-13.4l7-10.3
			c1.2,0,1.7,0,2.2-0.1v-59.2l-9.2,0l0-12l7.7-8.5H197l0.1,12.8l-7.7,9.1l0,23c29.6-16.7,53-29.9,53-29.9v-10.2l4.7-4.8h56.3
			c0,5.8,0,7.3,0,13l-7,7.6l-16.6,0c-9.7,6-11.3,6.9-21.1,12.8c1.1,1.4,2,2.4,4.4,5c26.5-6.4,58.6-5.8,82.5,5.5l8.4-6.4l15.7,0
			c0,12.7,0,19.3,0,39.5l-7.4,8.5l-14.2,0.1c-12.5-20.9-35.9-30.8-60.4-26.8c-1.5,0.4-3.1,0.6-4.5,1.3c8.8,9.6,9.9,10.7,18.5,19.9
			c1.7,0,2.2,0,3.7,0l0,16.4l-5.7,7.3h-57.3v-13.9l3.7-6.4c-0.5-0.6-0.9-0.9-1.6-1.6c-5.1,3.8-7.4,10-6.2,16.3
			c2.7,14.1,16.8,21.7,29.3,24.6c20.7,4.5,44.6,2.7,62.8-5.5c16.3-9.5,17.5-18.1,18.1-18.8h21.7
			C369.6,287.1,363.4,298.6,352.7,308.6L352.7,308.6z"/>
		<path d="M436.7,220.8c-10.2-6.5-7.6-19.6-31.4-22.6c-12.4-1.8-12.7-19.8-40.6-25.1c-13.2-2.5-21.9-15.6-35.7-16.7
			c-12.5,0.3-25-0.1-34.4-7.8c-9.3-8.9-23.8-4.1-35.8-6.8c-9.8-3.4-14.7-10-24.9-13c-11.3-3.6-20.4,0.5-29.3-1.9
			c-11.5-1.3-20.2-9.8-32.8-7.8c-12.3,3.4-25.9,0.3-38.2-0.7c-7.4-0.8-29.2-5.6-25.3,15.7c2.4,10.1,4.7,20.1,7.2,30
			c4.8,15.9-0.3,17.1-7.8,17.7c-7.2,0.6-8.9-8.9-15.4-9.6c-5.3-0.8-13.1,4.8-19.4,6.9c-6.4,2-9.1-4.7-14.6-5.1
			c-11.7-0.1-12.3,15.4-10.2,18c4,7.8,4.8,18.4,1.8,27c-4.2,7.5-8.1,15.1-10.3,23.6c-4.5,21.2-3.1,45.7,4.5,65.1
			c2.5,10.8-6.8,23.2,2.8,31.4c8.8,5.8,15.7-2.6,23.9-4.5c6-1.4,16.1,2.8,21.1,0c11.6-5.8,18.4-0.9,17,6.9
			c-3.1,12.9-5.9,25.9-10.1,38.4c-2.5,9.1,8.7,17.4,14.4,16.4c7.8-1.4,15.6-2.8,23.2-4.2c17.8-2.7,34.2,6.7,51.1,0.4
			c11.3-5.5,22.6-11.1,37.1-9.2c9.8,1.3,17.3-3.3,24.6-7.8c9.1-5.4,26-7.6,31.5-7.5c10.1,0.4,16.4-6.8,25.1-9.5
			c6.7-2.2,18.3-2.3,20.8-4.1c6.1-5,13.8-12.3,19.3-13.2c16.1-3.1,29.8-10.3,42.5-21.8c1.7-1.8,15.2-4.4,19.3-5.9
			c8.3-3.3,14-11.5,18.4-18.8c4.4-5.9,10.8-9.8,17.4-11.7c11.5-1.8,22.9-11.7,27.9-21.9c4.5-9.3,2.6-10.9,1.4-12.5
			C461.9,238.1,449.3,228.6,436.7,220.8z M452,268.2c-16.4,2.8-30.2,14-40.5,27.6c-6.5,4.8-14.6,5.7-21.4,9.9
			c-7.6,4-13.9,12.3-21.9,15.4c-15.4,2.3-29.6,7.9-41.5,18.5c-7.8,4.4-18.4,2.1-25.6,7.8c-13.3,10.8-34.1,3.7-47.8,13.3
			c-7.5,4.4-14.7,9.2-24.1,9.1c-14-0.3-26.9,3-38.5,8.9c-13.3,2.5-26.9-1.5-40.9-0.4c-10,0.4-31.4,10.3-34.7-1
			c-3.4-16.8,9.3-31.7,3.4-48.8c-3.4-8.2-14.6-11.4-30.7-4.3c-5.8,2.4-10.2-8-27.4,0.4c-2.3,1.1-4.1-0.8-4.5-2.3
			c-1.7-8.4,0.7-17.1-0.8-25.6c-5.7-16.3-9.1-38.5-1-54.8c3.4-8.9,10.3-16.4,10.6-26.6c1-9.1-3.5-22.2,7.8-25.5
			c3.5-1.1,9,3.6,11.9,1.6c8.5-6.9,17.1,1.6,26.5,0.7c26-2.7,18-30.3,14.6-41.4c-7.8-25.3,7.4-21.4,19.5-18.8
			c25.8,5.5,28.4,1.5,38.6,3.3c6.8,1.4,12.3,6.1,19,7.9c9.5,0.4,18.1-4,27.7-1c14.2,1.8,24.1,13.7,37.9,16c18.5-2.4,27.7,3,35,8.4
			c8,5.9,20.5,5,25.1,6.2c12.5,3.3,20,17.8,32,17.4c11,1.3,23.6,1.4,29.9,12.2c4.8,5.1,8.9,11.9,16,13.6c9.1,1.4,18.9,4.8,23.4,13.6
			c5.9,11.6,15.9,12,23.6,18.7C462.1,253.3,467.7,262.1,452,268.2L452,268.2z M330.3,295.6c-18.3,8.2-42.2,10.1-62.8,5.5
			c-12.5-3-26.6-10.5-29.3-24.6c-1.1-6.2,1.1-12.5,6.2-16.3c0.8,0.8,1.1,1,1.6,1.6l-3.7,6.4v13.9h57.3l5.7-7.3l0-16.4
			c-1.4,0-2,0-3.7,0c-8.6-9.1-9.7-10.3-18.5-19.9c1.4-0.7,3-0.8,4.5-1.3c24.5-4,47.9,5.9,60.4,26.8l14.2-0.1l7.4-8.5
			c0-20.2,0-26.9,0-39.5c-6.7,0-8.7,0-15.7,0l-8.4,6.4c-23.9-11.3-56-11.9-82.5-5.5c-2.4-2.6-3.3-3.5-4.4-5
			c9.8-5.9,11.4-6.8,21.1-12.8l16.6,0l7-7.6c0-5.6,0-7.1,0-13h-56.3l-4.7,4.8v10.2c0,0-23.4,13.2-53,29.9l0-23l7.7-9.1l-0.1-12.8
			h-54.7l-7.7,8.5l0,12l9.2,0v59.2c-0.5,0-1,0-2.2,0.1l-7,10.3l0.1,13.4l56.7,0l5.8-6.5v-17.3c-3.8,0-4.5,0-7.8,0.1
			c0-1.6,0-3.7,0-5.4l30.7-18.8c1.2,1.3,2,2.2,2.9,3.2c-12.6,9.3-22.4,22.8-23.2,38.5c-1.6,16.1,6.5,30.6,19.2,39.9
			c21.4,14,48.1,17.9,75,15.1c22.4-2.3,46.1-10.7,58.6-22.5c10.7-10,17-21.5,17.4-31.9h-21.7C347.8,277.5,346.6,286.1,330.3,295.6
			L330.3,295.6z M334.4,221.5c0,0,8.9,3,11.8,4.7l8.3-6.7c4.9,0,7,0,11.5,0v35.1c-4.6,0-5.8,0-11.6,0
			c-17.8-22.2-47.8-26.6-75.3-20.5l-13-14C287.3,213.6,314.3,214,334.4,221.5z M185.5,251.4l0,11.3l8.1,0l-0.1,10.2
			c-22.9,0-25,0-48.8,0.1l0-10.3h9v-72.4h-9v-8.3c22.7,0,27.8,0,48.8,0c0,3.6,0,4.2,0.1,8.4c-3.1,0-3.1,0-8.1-0.1l0.1,39.6
			l70.9-39.6c0,0-5.2,0-7.7,0c0-3.4,0-4.4,0-8.3l51-0.1l0,8.3h-12.4c-14.1,8.5-34.8,21-34.8,21l47.9,51.4l1.3,0c0,3.8,0,6.2,0,10.3
			l-51.2,0l0-10.3l7.4,0c-20.6-22.6-32.5-35.5-32.5-35.5C212.4,235,208.6,237.2,185.5,251.4L185.5,251.4z M366,281
			c-7.2,27.4-36.9,39.5-62.4,43c-23.9,3.3-48.4,0.3-68.9-8.5c-14.3-5.5-26.8-19.4-28-35.1c-1.2-16.2,6.2-30.9,19.5-39.7l15.4,16.2
			c-5,5.7-7.9,12.5-6.5,20.2c2.4,15,18.5,25.3,32.1,28.2c24.5,4,51.8,2.4,72.2-9.8c10.1-7.2,14.1-14.6,14.1-14.6
			C358.9,281,360.6,281,366,281z"/>
		<g>
			<path fill="#FFFFFF" d="M257.9,262.7l-7.4,0l0,10.3l51.2,0c0-4.1,0-6.5,0-10.3l-1.3,0l-47.9-51.4c0,0,20.7-12.5,34.8-21h12.4
				l0-8.3l-51,0.1c0,3.9,0,4.8,0,8.3c2.5,0,7.7,0,7.7,0l-70.9,39.6l-0.1-39.6c5,0,5,0,8.1,0.1c0-4.2,0-4.7-0.1-8.4
				c-20.9,0-26.1,0-48.8,0v8.3h9v72.4h-9l0,10.3c23.8,0,25.9,0,48.8-0.1l0.1-10.2l-8.1,0c0-5.2,0-6.8,0-11.3
				c23.2-14.2,26.9-16.5,39.9-24.3C225.4,227.2,237.3,240.1,257.9,262.7z M354.4,254.7c5.8,0,7,0,11.6,0v-35.1c-4.5,0-6.6,0-11.5,0
				l-8.3,6.7c-2.9-1.6-11.8-4.7-11.8-4.7c-20.1-7.5-47.1-7.9-68.4-1.5l13,14C306.6,228,336.5,232.4,354.4,254.7z M339.2,295.6
				c-20.4,12.2-47.7,13.7-72.2,9.8c-13.6-2.8-29.7-13.2-32.1-28.2c-1.4-7.8,1.6-14.6,6.5-20.2l-15.4-16.2
				c-13.3,8.8-20.7,23.5-19.5,39.7c1.2,15.7,13.7,29.6,28,35.1c20.5,8.8,45,11.8,68.9,8.5c25.6-3.5,55.2-15.7,62.4-43
				c-5.4,0-7.1,0-12.6,0C353.4,281,349.3,288.4,339.2,295.6z"/>
		</g>
	</g>
	<g id="Layer_29_copy_2" display="inline">
	</g>
	<g id="Layer_31" display="inline">
	</g>
	<g id="Layer_33_copy" display="inline">
	</g>
	<g id="Layer_35_copy" display="inline">
	</g>
	<g id="Layer_37_copy" display="inline">
	</g>
	<g id="Layer_39_copy" display="inline">
	</g>
	<g id="Layer_41_copy" display="inline">
	</g>
	<g id="Layer_43_copy" display="inline">
	</g>
	<g id="Layer_48" display="inline">
	</g>
	<g id="Layer_45_copy" display="inline">
	</g>
	<g id="Layer_49_copy_2" display="inline">
	</g>
	<g id="Layer_51" display="inline">
	</g>
	<g id="Layer_53_copy" display="inline">
	</g>
	<g id="Layer_55_copy" display="inline">
	</g>
	<g id="Layer_57_copy" display="inline">
	</g>
	<g id="Layer_59_copy" display="inline">
	</g>
	<g id="Layer_61_copy" display="inline">
	</g>
	<g id="Layer_63_copy" display="inline">
	</g>
	<g id="Layer_64_copy" display="inline">
	</g>
	<g id="Layer_66_copy_2" display="inline">
	</g>
</g>
<g id="color">
	<g id="Layer_5">
	</g>
	<g id="Layer_6">
	</g>
	<g id="Layer_7">
	</g>
	<g id="Layer_11">
	</g>
	<g id="Layer_13">
	</g>
	<g id="Layer_15">
	</g>
	<g id="Layer_17">
	</g>
	<g id="Layer_19">
	</g>
	<g id="Layer_21">
	</g>
	<g id="Layer_23">
	</g>
	<g id="Layer_25">
	</g>
	<g id="Layer_27_copy">
		<path fill="#FFFFFF" d="M453.3,248.1c-7.8-6.7-17.8-7.1-23.6-18.7c-4.4-8.8-14.3-12.2-23.4-13.6c-7.1-1.7-11.2-8.5-16-13.6
			c-6.2-10.8-18.8-10.9-29.9-12.2c-12,0.4-19.5-14.1-32-17.4c-4.6-1.2-17-0.3-25.1-6.2c-7.3-5.4-16.5-10.8-35-8.4
			c-13.9-2.3-23.8-14.2-37.9-16c-9.6-3-18.3,1.4-27.7,1c-6.7-1.8-12.2-6.5-19-7.9c-10.2-1.8-12.8,2.2-38.6-3.3
			c-12.2-2.6-27.4-6.5-19.5,18.8c3.4,11.1,11.4,38.7-14.6,41.4c-9.4,0.9-18-7.6-26.5-0.7c-2.9,2.1-8.3-2.6-11.9-1.6
			c-11.3,3.3-6.8,16.4-7.8,25.5c-0.3,10.2-7.2,17.7-10.6,26.6c-8.1,16.3-4.7,38.5,1,54.8c1.6,8.5-0.9,17.3,0.8,25.6
			c0.5,1.5,2.3,3.4,4.5,2.3c17.2-8.4,21.5,2,27.4-0.4c16.1-7.1,27.2-3.9,30.7,4.3c5.9,17.1-6.8,32-3.4,48.8
			c3.2,11.3,24.6,1.4,34.7,1c14-1.1,27.6,3,40.9,0.4c11.6-5.9,24.5-9.2,38.5-8.9c9.3,0.1,16.6-4.7,24.1-9.1
			c13.7-9.6,34.5-2.5,47.8-13.3c7.2-5.7,17.8-3.4,25.6-7.8c11.9-10.6,26-16.3,41.5-18.5c8.1-3.1,14.3-11.5,21.9-15.4
			c6.8-4.2,14.9-5.1,21.4-9.9c10.3-13.6,24.1-24.8,40.5-27.6C467.7,262.1,462.1,253.3,453.3,248.1L453.3,248.1z M352.7,308.6
			c-12.5,11.7-36.2,20.2-58.6,22.5c-26.9,2.8-53.6-1.1-75-15.1c-12.7-9.3-20.8-23.8-19.2-39.9c0.9-15.7,10.7-29.2,23.2-38.5
			c-1-1.1-1.8-1.9-2.9-3.2L189.4,253c0,1.6,0,3.8,0,5.4c3.2,0,4,0,7.8-0.1v17.3l-5.8,6.5l-56.7,0l-0.1-13.4l7-10.3
			c1.2,0,1.7,0,2.2-0.1v-59.2l-9.2,0l0-12l7.7-8.5H197l0.1,12.8l-7.7,9.1l0,23c29.6-16.7,53-29.9,53-29.9v-10.2l4.7-4.8h56.3
			c0,5.8,0,7.3,0,13l-7,7.6l-16.6,0c-9.7,6-11.3,6.9-21.1,12.8c1.1,1.4,2,2.4,4.4,5c26.5-6.4,58.6-5.8,82.5,5.5l8.4-6.4l15.7,0
			c0,12.7,0,19.3,0,39.5l-7.4,8.5l-14.2,0.1c-12.5-20.9-35.9-30.8-60.4-26.8c-1.5,0.4-3.1,0.6-4.5,1.3c8.8,9.6,9.9,10.7,18.5,19.9
			c1.7,0,2.2,0,3.7,0l0,16.4l-5.7,7.3h-57.3v-13.9l3.7-6.4c-0.5-0.6-0.9-0.9-1.6-1.6c-5.1,3.8-7.4,10-6.2,16.3
			c2.7,14.1,16.8,21.7,29.3,24.6c20.7,4.5,44.6,2.7,62.8-5.5c16.3-9.5,17.5-18.1,18.1-18.8h21.7
			C369.6,287.1,363.4,298.6,352.7,308.6L352.7,308.6z"/>
		<path d="M436.7,220.8c-10.2-6.5-7.6-19.6-31.4-22.6c-12.4-1.8-12.7-19.8-40.6-25.1c-13.2-2.5-21.9-15.6-35.7-16.7
			c-12.5,0.3-25-0.1-34.4-7.8c-9.3-8.9-23.8-4.1-35.8-6.8c-9.8-3.4-14.7-10-24.9-13c-11.3-3.6-20.4,0.5-29.3-1.9
			c-11.5-1.3-20.2-9.8-32.8-7.8c-12.3,3.4-25.9,0.3-38.2-0.7c-7.4-0.8-29.2-5.6-25.3,15.7c2.4,10.1,4.7,20.1,7.2,30
			c4.8,15.9-0.3,17.1-7.8,17.7c-7.2,0.6-8.9-8.9-15.4-9.6c-5.3-0.8-13.1,4.8-19.4,6.9c-6.4,2-9.1-4.7-14.6-5.1
			c-11.7-0.1-12.3,15.4-10.2,18c4,7.8,4.8,18.4,1.8,27c-4.2,7.5-8.1,15.1-10.3,23.6c-4.5,21.2-3.1,45.7,4.5,65.1
			c2.5,10.8-6.8,23.2,2.8,31.4c8.8,5.8,15.7-2.6,23.9-4.5c6-1.4,16.1,2.8,21.1,0c11.6-5.8,18.4-0.9,17,6.9
			c-3.1,12.9-5.9,25.9-10.1,38.4c-2.5,9.1,8.7,17.4,14.4,16.4c7.8-1.4,15.6-2.8,23.2-4.2c17.8-2.7,34.2,6.7,51.1,0.4
			c11.3-5.5,22.6-11.1,37.1-9.2c9.8,1.3,17.3-3.3,24.6-7.8c9.1-5.4,26-7.6,31.5-7.5c10.1,0.4,16.4-6.8,25.1-9.5
			c6.7-2.2,18.3-2.3,20.8-4.1c6.1-5,13.8-12.3,19.3-13.2c16.1-3.1,29.8-10.3,42.5-21.8c1.7-1.8,15.2-4.4,19.3-5.9
			c8.3-3.3,14-11.5,18.4-18.8c4.4-5.9,10.8-9.8,17.4-11.7c11.5-1.8,22.9-11.7,27.9-21.9c4.5-9.3,2.6-10.9,1.4-12.5
			C461.9,238.1,449.3,228.6,436.7,220.8z M452,268.2c-16.4,2.8-30.2,14-40.5,27.6c-6.5,4.8-14.6,5.7-21.4,9.9
			c-7.6,4-13.9,12.3-21.9,15.4c-15.4,2.3-29.6,7.9-41.5,18.5c-7.8,4.4-18.4,2.1-25.6,7.8c-13.3,10.8-34.1,3.7-47.8,13.3
			c-7.5,4.4-14.7,9.2-24.1,9.1c-14-0.3-26.9,3-38.5,8.9c-13.3,2.5-26.9-1.5-40.9-0.4c-10,0.4-31.4,10.3-34.7-1
			c-3.4-16.8,9.3-31.7,3.4-48.8c-3.4-8.2-14.6-11.4-30.7-4.3c-5.8,2.4-10.2-8-27.4,0.4c-2.3,1.1-4.1-0.8-4.5-2.3
			c-1.7-8.4,0.7-17.1-0.8-25.6c-5.7-16.3-9.1-38.5-1-54.8c3.4-8.9,10.3-16.4,10.6-26.6c1-9.1-3.5-22.2,7.8-25.5
			c3.5-1.1,9,3.6,11.9,1.6c8.5-6.9,17.1,1.6,26.5,0.7c26-2.7,18-30.3,14.6-41.4c-7.8-25.3,7.4-21.4,19.5-18.8
			c25.8,5.5,28.4,1.5,38.6,3.3c6.8,1.4,12.3,6.1,19,7.9c9.5,0.4,18.1-4,27.7-1c14.2,1.8,24.1,13.7,37.9,16c18.5-2.4,27.7,3,35,8.4
			c8,5.9,20.5,5,25.1,6.2c12.5,3.3,20,17.8,32,17.4c11,1.3,23.6,1.4,29.9,12.2c4.8,5.1,8.9,11.9,16,13.6c9.1,1.4,18.9,4.8,23.4,13.6
			c5.9,11.6,15.9,12,23.6,18.7C462.1,253.3,467.7,262.1,452,268.2L452,268.2z M330.3,295.6c-18.3,8.2-42.2,10.1-62.8,5.5
			c-12.5-3-26.6-10.5-29.3-24.6c-1.1-6.2,1.1-12.5,6.2-16.3c0.8,0.8,1.1,1,1.6,1.6l-3.7,6.4v13.9h57.3l5.7-7.3l0-16.4
			c-1.4,0-2,0-3.7,0c-8.6-9.1-9.7-10.3-18.5-19.9c1.4-0.7,3-0.8,4.5-1.3c24.5-4,47.9,5.9,60.4,26.8l14.2-0.1l7.4-8.5
			c0-20.2,0-26.9,0-39.5c-6.7,0-8.7,0-15.7,0l-8.4,6.4c-23.9-11.3-56-11.9-82.5-5.5c-2.4-2.6-3.3-3.5-4.4-5
			c9.8-5.9,11.4-6.8,21.1-12.8l16.6,0l7-7.6c0-5.6,0-7.1,0-13h-56.3l-4.7,4.8v10.2c0,0-23.4,13.2-53,29.9l0-23l7.7-9.1l-0.1-12.8
			h-54.7l-7.7,8.5l0,12l9.2,0v59.2c-0.5,0-1,0-2.2,0.1l-7,10.3l0.1,13.4l56.7,0l5.8-6.5v-17.3c-3.8,0-4.5,0-7.8,0.1
			c0-1.6,0-3.7,0-5.4l30.7-18.8c1.2,1.3,2,2.2,2.9,3.2c-12.6,9.3-22.4,22.8-23.2,38.5c-1.6,16.1,6.5,30.6,19.2,39.9
			c21.4,14,48.1,17.9,75,15.1c22.4-2.3,46.1-10.7,58.6-22.5c10.7-10,17-21.5,17.4-31.9h-21.7C347.8,277.5,346.6,286.1,330.3,295.6
			L330.3,295.6z M334.4,221.5c0,0,8.9,3,11.8,4.7l8.3-6.7c4.9,0,7,0,11.5,0v35.1c-4.6,0-5.8,0-11.6,0
			c-17.8-22.2-47.8-26.6-75.3-20.5l-13-14C287.3,213.6,314.3,214,334.4,221.5z M185.5,251.4l0,11.3l8.1,0l-0.1,10.2
			c-22.9,0-25,0-48.8,0.1l0-10.3h9v-72.4h-9v-8.3c22.7,0,27.8,0,48.8,0c0,3.6,0,4.2,0.1,8.4c-3.1,0-3.1,0-8.1-0.1l0.1,39.6
			l70.9-39.6c0,0-5.2,0-7.7,0c0-3.4,0-4.4,0-8.3l51-0.1l0,8.3h-12.4c-14.1,8.5-34.8,21-34.8,21l47.9,51.4l1.3,0c0,3.8,0,6.2,0,10.3
			l-51.2,0l0-10.3l7.4,0c-20.6-22.6-32.5-35.5-32.5-35.5C212.4,235,208.6,237.2,185.5,251.4L185.5,251.4z M366,281
			c-7.2,27.4-36.9,39.5-62.4,43c-23.9,3.3-48.4,0.3-68.9-8.5c-14.3-5.5-26.8-19.4-28-35.1c-1.2-16.2,6.2-30.9,19.5-39.7l15.4,16.2
			c-5,5.7-7.9,12.5-6.5,20.2c2.4,15,18.5,25.3,32.1,28.2c24.5,4,51.8,2.4,72.2-9.8c10.1-7.2,14.1-14.6,14.1-14.6
			C358.9,281,360.6,281,366,281z"/>
		<g>
			<path fill="#B21E35" d="M257.9,262.7l-7.4,0l0,10.3l51.2,0c0-4.1,0-6.5,0-10.3l-1.3,0l-47.9-51.4c0,0,20.7-12.5,34.8-21h12.4
				l0-8.3l-51,0.1c0,3.9,0,4.8,0,8.3c2.5,0,7.7,0,7.7,0l-70.9,39.6l-0.1-39.6c5,0,5,0,8.1,0.1c0-4.2,0-4.7-0.1-8.4
				c-20.9,0-26.1,0-48.8,0v8.3h9v72.4h-9l0,10.3c23.8,0,25.9,0,48.8-0.1l0.1-10.2l-8.1,0c0-5.2,0-6.8,0-11.3
				c23.2-14.2,26.9-16.5,39.9-24.3C225.4,227.2,237.3,240.1,257.9,262.7z M354.4,254.7c5.8,0,7,0,11.6,0v-35.1c-4.5,0-6.6,0-11.5,0
				l-8.3,6.7c-2.9-1.6-11.8-4.7-11.8-4.7c-20.1-7.5-47.1-7.9-68.4-1.5l13,14C306.6,228,336.5,232.4,354.4,254.7z M339.2,295.6
				c-20.4,12.2-47.7,13.7-72.2,9.8c-13.6-2.8-29.7-13.2-32.1-28.2c-1.4-7.8,1.6-14.6,6.5-20.2l-15.4-16.2
				c-13.3,8.8-20.7,23.5-19.5,39.7c1.2,15.7,13.7,29.6,28,35.1c20.5,8.8,45,11.8,68.9,8.5c25.6-3.5,55.2-15.7,62.4-43
				c-5.4,0-7.1,0-12.6,0C353.4,281,349.3,288.4,339.2,295.6z"/>
		</g>
	</g>
	<g id="Layer_31_copy_2">
	</g>
	<g id="Layer_29">
	</g>
	<g id="Layer_33">
	</g>
	<g id="Layer_35">
	</g>
	<g id="Layer_37">
	</g>
	<g id="Layer_39">
	</g>
	<g id="Layer_41">
	</g>
	<g id="Layer_43">
	</g>
	<g id="Layer_46">
	</g>
	<g id="Layer_45">
	</g>
	<g id="Layer_49">
	</g>
	<g id="Layer_51_copy">
	</g>
	<g id="Layer_53">
	</g>
	<g id="Layer_55">
	</g>
	<g id="Layer_57">
	</g>
	<g id="Layer_59">
	</g>
	<g id="Layer_61">
	</g>
	<g id="Layer_63">
	</g>
	<g id="Layer_64">
	</g>
	<g id="Layer_66_copy">
	</g>
</g>
</svg>
