<?xml version="1.0" encoding="utf-8"?>
<!-- Generator: Adobe Illustrator 16.0.4, SVG Export Plug-In . SVG Version: 6.00 Build 0)  -->
<!DOCTYPE svg PUBLIC "-//W3C//DTD SVG 1.1//EN" "http://www.w3.org/Graphics/SVG/1.1/DTD/svg11.dtd">
<svg version="1.1" xmlns="http://www.w3.org/2000/svg" xmlns:xlink="http://www.w3.org/1999/xlink" x="0px" y="0px" width="512px"
	 height="512px" viewBox="0 0 512 512" enable-background="new 0 0 512 512" xml:space="preserve">
<g id="grids" display="none">
	<g id="svgGrid_14_" display="inline">
		<line fill="none" stroke="#B35047" x1="32" y1="0" x2="32" y2="512"/>
		<line fill="none" stroke="#B35047" x1="64" y1="0" x2="64" y2="512"/>
		<line fill="none" stroke="#B35047" x1="96" y1="0" x2="96" y2="512"/>
		<line fill="none" stroke="#B35047" x1="128" y1="0" x2="128" y2="512"/>
		<line fill="none" stroke="#B35047" x1="160" y1="0" x2="160" y2="512"/>
		<line fill="none" stroke="#B35047" x1="192" y1="0" x2="192" y2="512"/>
		<line fill="none" stroke="#B35047" x1="224" y1="0" x2="224" y2="512"/>
		<line fill="none" stroke="#B35047" x1="256" y1="0" x2="256" y2="512"/>
		<line fill="none" stroke="#B35047" x1="288" y1="0" x2="288" y2="512"/>
		<line fill="none" stroke="#B35047" x1="320" y1="0" x2="320" y2="512"/>
		<line fill="none" stroke="#B35047" x1="352" y1="0" x2="352" y2="512"/>
		<line fill="none" stroke="#B35047" x1="384" y1="0" x2="384" y2="512"/>
		<line fill="none" stroke="#B35047" x1="416" y1="0" x2="416" y2="512"/>
		<line fill="none" stroke="#B35047" x1="448" y1="0" x2="448" y2="512"/>
		<line fill="none" stroke="#B35047" x1="480" y1="0" x2="480" y2="512"/>
		<line fill="none" stroke="#B35047" x1="0" y1="32" x2="512" y2="32"/>
		<line fill="none" stroke="#B35047" x1="0" y1="64" x2="512" y2="64"/>
		<line fill="none" stroke="#B35047" x1="0" y1="96" x2="512" y2="96"/>
		<line fill="none" stroke="#B35047" x1="0" y1="128" x2="512" y2="128"/>
		<line fill="none" stroke="#B35047" x1="0" y1="160" x2="512" y2="160"/>
		<line fill="none" stroke="#B35047" x1="0" y1="192" x2="512" y2="192"/>
		<line fill="none" stroke="#B35047" x1="0" y1="224" x2="512" y2="224"/>
		<line fill="none" stroke="#B35047" x1="0" y1="256" x2="512" y2="256"/>
		<line fill="none" stroke="#B35047" x1="0" y1="288" x2="512" y2="288"/>
		<line fill="none" stroke="#B35047" x1="0" y1="320" x2="512" y2="320"/>
		<line fill="none" stroke="#B35047" x1="0" y1="352" x2="512" y2="352"/>
		<line fill="none" stroke="#B35047" x1="0" y1="384" x2="512" y2="384"/>
		<line fill="none" stroke="#B35047" x1="0" y1="416" x2="512" y2="416"/>
		<line fill="none" stroke="#B35047" x1="0" y1="448" x2="512" y2="448"/>
		<line fill="none" stroke="#B35047" x1="0" y1="480" x2="512" y2="480"/>
		<rect fill="none" stroke="#B35047" width="512" height="512"/>
	</g>
</g>
<g id="b_x26_w" display="none">
	<g id="Layer_9" display="inline">
	</g>
	<g id="Layer_6_copy" display="inline">
	</g>
	<g id="Layer_7_copy" display="inline">
	</g>
	<g id="Layer_11_copy" display="inline">
	</g>
	<g id="Layer_13_copy" display="inline">
	</g>
	<g id="Layer_15_copy" display="inline">
	</g>
	<g id="Layer_17_copy" display="inline">
	</g>
	<g id="Layer_19_copy" display="inline">
	</g>
	<g id="Layer_21_copy" display="inline">
	</g>
	<g id="Layer_23_copy" display="inline">
	</g>
	<g id="Layer_25_copy" display="inline">
	</g>
	<g id="Layer_27" display="inline">
	</g>
	<g id="Layer_29_copy_2" display="inline">
	</g>
	<g id="Layer_31" display="inline">
		<path fill="#FFFFFF" d="M376,186.5l-3.1-4.6c-5.6-7.9-12.6-15.9-21.2-23.6c-32.8-29.6-87.1-35.1-89.4-35.3l-5.1-0.5
			c0,0-0.1,7.6-0.6,9.8l0,0.2c-0.2,1.1-0.4,2.1-0.6,3c-6.2-3.9-10.5-7.8-12.6-11.5c-3.9-6.8-5.1-13.1-6.3-19.1
			c-0.9-4.3-1.7-8.3-3.3-12.3C229.4,82.3,223,73.5,215,66.5c-1.5-1.3-2.9-2.6-5.2-2.6c-0.9,0-2.3,0.2-3.7,1.3
			c-1,0.8-3.9,3.8-0.6,8.6c0.1,0.1,5.4,9.9,7.4,23.9c0.2,1.2,0.3,2.4,0.4,3.7l0.1,1.4l-0.6-0.6l-0.1-0.8v0l-0.4-3.6
			c-1.5-10.5-4.9-18.6-6.5-22l-0.9-1.7l0,0l-1-1.8c-1.7-4.1,0.8-6.8,1.8-7.5c1.5-1.2,3-1.5,4-1.5c1.9,0,3.3,0.8,4.5,1.8l1.1,1h0
			l3,2.7c6.7,6.6,12.1,14.5,16,23.6c1.7,4,2.5,8.1,3.4,12.4c1,5.3,2.1,10.7,4.9,16.5l1.3,2.5l0.9,1.4c1.7,2.4,4.3,4.9,7.8,7.4
			l3.1,2.1l0.5-2.1v0l0.1-0.2l0,0c0.4-1.8,0.5-7.9,0.6-9.4c0-0.2,0-0.3,0-0.3l0.6-0.5l5.1,0.5l3.2,0.4c12.4,1.6,57.7,9,86.6,35.1
			c8.6,7.7,15.6,15.8,21.2,23.7l0,0l3,4.3L376,186.5z"/>
		<path fill="#000002" d="M404.1,312.3c-1.7-0.4-6-1.5-6-1.5c3.2-8.9,3.2-14.5,3.2-14.5c2.8-1.5,8.4-3.7,8.4-3.7
			c-1.9-9.9-8.6-17.5-8.6-17.5c0.6-2.1,1.9-5.6,1.9-6.9c0-1.3-2.4-3.5-5-5.2c-2.6-1.7-3-4.7-3-8.2c0-3.5-1.5-8-2.1-8.2
			c-0.6-0.2,6.6-2.5,8.9-8.8c2.2-6.3,2.3-11.5,2.3-11.5c-3,4.3-14.6,6.1-14.6,6.1c-0.9-9.9-8.8-41.7-40.9-70.6
			c-32-28.9-86.6-34.1-86.6-34.1c0.1,1.6-0.1,3.5-0.6,5.6c-0.5,2.7-1.2,5.9-2.6,8.5c-0.1,0.2-0.2,0.3-0.3,0.5
			c-7.5-4.1-15.5-9.6-19.1-16c-7-12.4-6.1-23.1-9.9-31.9c-6.1-14.3-14.9-22.1-17.5-24.4c-1.5-1.3-2-1.7-2.8-1.1
			c-0.8,0.6-0.3,1.5,0.4,2.4c0.6,0.9,6.1,11.5,8.1,25.8c2.1,14.3-0.7,37,6,51.5c4.2,9,11.1,16.2,15.7,20.3c0.2,0.1,0.3,0.3,0.5,0.4
			l1.5,1.5c-9.6,0.9-18.5,0.5-28-4.8c-15.2-7.7-26.9-25.5-29-44.4l-0.3-2.3c-0.6-5.2-0.4-10.3-0.6-15.5c-0.2-4.7-0.7-9.4-1.5-14
			c-0.4-2-0.8-4.1-1.3-6.1c0,0,0,0,0-0.1c-0.2-1.2-0.6-2.4-0.9-3.6c-0.2-0.8-0.5-1.6-0.8-2.4c-0.6-1.8-1.4-3.5-2.4-5.1
			c-1.2-1.9-2.5-3.8-4.1-5.5c-0.9-1-1.9-1.9-3-2.7c0,0-1-0.6-1.7-0.3c0,0-0.9,0.6,0.1,2.6c0,0,0.2,0.4,0.5,1.1
			c0.2,0.4,0.3,0.9,0.5,1.4c0.1,0.5,0.3,1,0.4,1.6c0.8,4.1,1.3,12.9-1.9,29.7l0,0.1c-0.3,2.4-0.6,4.9-1,7.3
			c-1.3,7.9-2.6,16.8-2.9,26.1c0,0.4,0,1.6,0,1.9c-0.1,8.2,1.5,62.4,57.4,79.4c-0.3,1.2-0.5,2.3-0.7,3.4
			c-3.8,23.9-2.4,33.9-2.4,33.9s0,0.1,0,0.2c-11.4,4.3-24.4,10.1-38,17.9c-15.3,8.4-31.8,19.7-48,35.3c-3,2.9-5.9,5.8-8.6,8.7
			c-0.7,0.7-1.3,1.4-2,2.1c0,0-0.1,0.1-0.1,0.1c-8.6,9.2-15,17.7-19.7,24.6c25.3-18.3,64.8-23.7,76.9-24.4
			c12.7-0.7,25.5-2.9,25.5-2.9s5,2.7,11,4c6.8,1.5,13.9-0.7,13.9-0.7c2.5,13.1,11.8,21.5,14.2,23.4c-0.6,4,0,17,4.5,24.2
			c4.8,7.8,12.7,13,12.7,13s-0.6,7.1,1.3,12.1c1.9,5,6.2,9.6,6.2,9.6s-2,3.3-2.2,7.5c-0.3,4.1,2.2,6.5,2.2,6.5s-2.3,2.9-2.6,5.1
			c-0.4,2.3,1,5.7,1,5.7s-1.4,2.5-1.8,4.4c-0.4,1.9,0.7,4.3,0.7,4.3c-0.9,1.8-3.6,10.2,0.4,13.5c4,3.4,9-2.9,9-2.9
			c1.5-0.4,4.4-2.3,5.8-4.5c1.7-2.6,1.7-5,1.7-5s2.1-1.4,4-4.9c1.5-2.9,1.3-4.8,1.3-4.8s8.7-9.1,10.5-20.5
			c1.5-9.7-0.7-18.6-0.7-18.6s6.5-9.9,6.2-21.2c4.4-3.1,15.1-10,28.4-15.2c0.4,7.6,1.6,14.3-0.8,26.5c-3,15.3-16.6,26.5-16.6,26.5
			c19-2,31.7-18.8,36.7-30.9c4.1-9.9,7.8-23.9,9.6-30.2c18.5-3.6,35.5-4.6,41.1-5.4c7.5-1.1,9.3-2.8,9.5-5.6s-0.6-7.8-1.1-11.2
			C409.1,315.7,405.8,312.7,404.1,312.3"/>
		<path fill="#FFFFFF" d="M183.5,118.9l-0.3-3.1c-0.2-3.9-0.1-7.8-0.3-11.7c-0.2-4.7-0.7-9.4-1.5-14c-0.4-2-0.8-4-1.3-6l0-0.1l0-0.1
			c-0.2-1.2-0.5-2.4-0.9-3.6l-0.8-2.4l-1-2.5l-1.3-2.4l0,0l-1.9-2.8l-2.1-2.6l-1.4-1.4l-1.5-1.2l0,0l-0.4-0.2l-0.7-0.1l0,0
			c-0.1,0.1-0.2,0.4-0.1,0.9l0.3,0.9l0,0.1l0.5,1.1l0.5,1.5h0l0.4,1.7v0l0.5,4c0.3,5.1,0,13.2-2.4,25.9l0,0.1l-1,7.3
			c-1.3,7.9-2.6,16.8-2.8,26l0,1.9c-0.1,8.2,1.5,61.9,57,78.9l0.4,0.7l-0.7,3.3l0,0l-1.1,7.8c-2.2,16.9-1.4,24.8-1.3,25.8
			c0,0.1,0,0.1,0,0.1l0,0c0,0,0,0.1,0,0.3l-0.4,0.6c-11.4,4.3-24.3,10.1-38,17.9l0,0c-13.3,7.3-27.6,16.9-41.8,29.6l-6.1,5.6
			l-4.4,4.4c-1.4,1.4-2.8,2.9-4.2,4.3l0,0l-1.9,2.1l0,0l-0.1,0.1l0,0l-4.6,5.1c-4.4,5-8.1,9.7-11.2,14l-2.1,3l2.4-1.6
			c25.4-15.7,60.8-20.6,72.2-21.2c9.5-0.6,19-1.9,23.2-2.6c1.4-0.2,2.2-0.3,2.2-0.3l0.4,0.1c0,0,0.1,0,0.2,0.1
			c1,0.5,5.5,2.7,10.6,3.8c5.8,1.3,11.9-0.2,13.3-0.6c0.2,0,0.3-0.1,0.3-0.1l0.7,0.4c2.5,12.9,11.6,21.3,14,23.1l0.2,0.5
			c-0.6,3.8,0.1,16.8,4.4,23.8c4.1,6.7,10.6,11.5,12.2,12.6c0.2,0.2,0.3,0.2,0.3,0.2l0.2,0.5c0,0,0,0.1,0,0.3
			c-0.1,1.4-0.3,7.3,1.3,11.6c1.6,4.3,5,8.3,5.9,9.3c0.1,0.1,0.2,0.2,0.2,0.2l0.1,0.7c0,0,0,0-0.1,0.1c-0.3,0.5-1.2,2.3-1.7,4.6
			l-0.4,2.5l0,1.3c0.2,2.9,1.8,4.5,2,4.7c0,0,0,0,0,0l0.1,0.7c0,0-0.1,0.2-0.3,0.5c-0.5,0.7-1.3,2-1.8,3.2l-0.4,1.2h0l0,1.2
			c0.1,1.3,0.5,2.8,0.8,3.6c0.1,0.3,0.2,0.6,0.2,0.6l0,0.5c0,0,0,0-0.1,0.1c-0.2,0.4-0.8,1.6-1.3,2.9l-0.4,1.2l-0.1,1
			c0,1,0.4,2,0.6,2.6c0.1,0.2,0.2,0.4,0.2,0.4l0,0.5c-0.9,1.8-3.4,9.8,0.2,12.9c1.7,1.5,3.8,0.8,5.3-0.3c1.6-1.1,2.8-2.5,2.8-2.6
			l0.3-0.2c1.4-0.4,4.2-2.3,5.5-4.2c1.5-2.3,1.6-4.5,1.6-4.7c0,0,0,0,0,0l0.2-0.5c0,0,0,0,0,0c0.2-0.1,2.1-1.5,3.8-4.7
			c1.4-2.7,1.3-4.4,1.3-4.5l0.1-0.4c0,0,0.1-0.1,0.4-0.4c1.4-1.6,6.8-8.1,9.2-16.2l0.8-3.6l0.4-3.1c0.6-7.1-0.7-13.3-1-14.9
			c-0.1-0.3-0.1-0.4-0.1-0.4l0.1-0.4c0,0,0.1-0.1,0.3-0.4c1.2-2,6.1-10.7,5.9-20.5l0.2-0.5c4.5-3.1,15.2-10.1,28.6-15.3l0.8,0.5
			c0.4,7.6,1.6,14.3-0.8,26.7c-2.3,11.6-10.6,20.9-14.6,24.8l-0.8,0.8l1.6-0.3c16.8-3.5,28.1-18.8,32.8-30
			c4.1-9.8,7.8-23.8,9.6-30.1l0.4-0.4c18.6-3.6,35.6-4.6,41.1-5.4c6.5-1,8.4-2.3,8.9-4.2l0.1-0.9l0-2.4c-0.2-2.7-0.7-6.2-1.1-8.7
			c-0.4-2.3-2.3-4.5-3.8-5.6l-1.3-0.7l-6-1.5l-0.4-0.7c2.9-8.3,3.1-13.7,3.1-14.3c0,0,0-0.1,0-0.1l0.3-0.5c1.4-0.8,3.5-1.7,5.3-2.4
			l2.7-1.1l-0.7-2.7c-2.1-7-6.3-12.4-7.4-13.8c-0.2-0.2-0.3-0.3-0.3-0.3l-0.1-0.5c0.6-2.1,1.8-5.7,1.8-6.7c0-0.9-2.1-3-4.8-4.8
			c-2.9-1.9-3.2-5.1-3.2-8.7c0-3.6-1.6-7.6-1.7-7.7l-0.2-0.1l0,0l-0.2-0.3c-0.2-0.7,2.2-1.7,3.8-2.8c1.4-1,3-2.4,4.1-4.3l1-2l0.9-3
			c0.8-2.8,1.1-5.2,1.2-6.7l0-0.1l-0.2,0.2c-3.7,3.1-11.2,4.5-13.2,4.8c-0.3,0.1-0.5,0.1-0.5,0.1l-0.6-0.5
			c-0.9-9.7-8.8-41.5-40.7-70.2c-27.9-25.1-73.1-32.3-83.9-33.7l-1.8-0.2l-0.1,2.1l-0.5,3l0,0l-1,4.3c-0.2,0.7-0.5,1.5-0.8,2.2
			l-1,2.1l-0.3,0.5l-0.7,0.2c-6.6-3.6-13.6-8.3-17.7-13.8l-1.6-2.4l-2.1-4.1c-4.2-9.3-4.6-17.6-6.7-24.5l-1.2-3.3l-2.4-5
			c-5.8-11-12.7-17.2-15-19.2c-1.6-1.4-1.7-1.4-2.1-1.1c-0.3,0.3-0.2,0.6,0.5,1.7c0.6,0.9,4.8,9.1,7.3,20.8l0.9,5.2l0.6,5.8
			c1,14.2-0.4,33,5.4,45.6c4.1,8.9,11,16,15.6,20.1c0.2,0.1,0.3,0.3,0.5,0.4l0,0l1.5,1.5l-0.3,0.9c-8.4,0.8-16.4,0.6-24.7-3
			l-3.6-1.8l0,0l-2.7-1.5c-13.2-7.9-23.2-23.2-26.2-39.8l-0.5-3.6l0,0l-0.3-2.3L183.5,118.9z M410.7,326.7l0.1,1.1
			c0,0.9,0.1,1.8,0,2.5c-0.2,2.8-2,4.5-9.5,5.6c-5.6,0.8-22.6,1.8-41.1,5.4c-1.7,6.3-5.5,20.3-9.6,30.2c-5,12.1-17.7,28.9-36.7,30.9
			c0,0,13.6-11.2,16.6-26.5c2.4-12.3,1.2-18.9,0.8-26.5c-13.3,5.2-24,12.1-28.4,15.2c0.3,11.3-6.2,21.2-6.2,21.2s2.3,8.9,0.7,18.6
			c-1.8,11.4-10.5,20.5-10.5,20.5s0.2,1.9-1.3,4.8c-1.9,3.5-4,4.9-4,4.9s0,2.4-1.7,5c-1.4,2.1-4.3,4-5.8,4.5c0,0-5,6.3-9,2.9
			c-4-3.4-1.3-11.8-0.4-13.5c0,0-1.1-2.4-0.7-4.3c0.4-1.9,1.8-4.4,1.8-4.4s-1.4-3.4-1-5.7c0.4-2.3,2.6-5.1,2.6-5.1s-2.5-2.3-2.2-6.4
			c0.3-4.2,2.2-7.5,2.2-7.5s-4.3-4.6-6.2-9.6c-1.9-5-1.3-12.1-1.3-12.1s-7.9-5.2-12.7-13c-4.4-7.2-5.1-20.2-4.4-24.2
			c-2.4-1.9-11.6-10.3-14.2-23.4c0,0-7.1,2.2-13.9,0.7c-6-1.3-11-4-11-4s-12.8,2.2-25.5,2.9c-12.1,0.7-51.6,6.2-76.9,24.4
			c4.7-6.9,11.1-15.4,19.7-24.6c0,0,0.1-0.1,0.1-0.1c0.6-0.7,1.3-1.4,2-2.1c2.7-2.9,5.5-5.7,8.6-8.7c16.2-15.5,32.8-26.9,48-35.3
			c13.6-7.8,26.6-13.6,38-17.9c0-0.1,0-0.2,0-0.2s-1.4-10.1,2.4-33.9c0.2-1.1,0.4-2.2,0.7-3.4c-56-17-57.5-71.2-57.4-79.4
			c0-0.3-0.1-1.5,0-1.9c0.2-9.3,1.5-18.2,2.9-26.1c0.4-2.4,0.7-4.9,1-7.3l0-0.1c3.2-16.8,2.7-25.6,1.9-29.7
			c-0.1-0.6-0.2-1.1-0.4-1.6c-0.2-0.5-0.3-1-0.5-1.4c-0.3-0.7-0.5-1.1-0.5-1.1c-1-2-0.1-2.6-0.1-2.6c0.7-0.4,1.7,0.3,1.7,0.3
			c1.1,0.8,2.1,1.7,3,2.7c1.6,1.7,2.9,3.6,4.1,5.5c1,1.6,1.8,3.3,2.4,5.1c0.3,0.8,0.5,1.6,0.8,2.4c0.4,1.2,0.7,2.4,0.9,3.6
			c0,0,0,0,0,0.1c0.5,2,0.9,4,1.3,6.1c0.8,4.6,1.3,9.3,1.5,14c0.2,5.2,0,10.4,0.6,15.5l0.3,2.3c2.1,18.9,13.8,36.7,29,44.4
			c9.5,5.3,18.4,5.7,28,4.8l-1.5-1.5c-0.2-0.1-0.3-0.3-0.5-0.4c-4.6-4.1-11.5-11.3-15.7-20.3c-6.7-14.5-4-37.2-6-51.5
			c-2-14.3-7.5-24.9-8.1-25.8c-0.6-0.9-1.1-1.8-0.4-2.4c0.8-0.6,1.3-0.2,2.8,1.1c2.6,2.3,11.4,10.1,17.5,24.4
			c3.7,8.8,2.8,19.4,9.9,31.9c3.6,6.4,11.5,11.9,19.1,16c0.1-0.2,0.2-0.4,0.3-0.5c1.4-2.6,2.2-5.8,2.6-8.5c0.5-2.1,0.7-4,0.6-5.6
			c0,0,54.6,5.2,86.6,34.1c32,28.9,40,60.7,40.9,70.6c0,0,11.6-1.8,14.6-6.1c0,0-0.1,5.1-2.3,11.5c-2.2,6.1-9,8.5-8.9,8.8
			c0,0,0,0,0,0c0.6,0.2,2.1,4.7,2.1,8.2c0,3.5,0.4,6.5,3,8.2c2.6,1.7,5,3.9,5,5.2c0,1.3-1.3,4.8-1.9,6.9c0,0,6.7,7.6,8.6,17.5
			c0,0-5.6,2.2-8.4,3.7c0,0,0,5.6-3.2,14.5c0,0,4.3,1.1,6,1.5c1.7,0.4,5,3.4,5.6,6.7c0.3,1.7,0.6,3.8,0.8,5.8L410.7,326.7z"/>
		<path fill="#FFFFFF" d="M256.6,343.1l0,0.2c0,0.7,0.1,1.4,0.1,2l-0.9,0.5c-5.9-4.1-21.1-11.9-23.6-30.6l-0.3-3.9l-0.1-6.3
			c0.1-6.1,0.7-11.7,1.7-16.3l0-0.2l-3.5,3.9c-20.3,20.9-43.1,19.6-63.7,21.7c-3.2,0.3-15.5,2.8-18.7,3.5l-0.5-0.9
			c7.9-8.4,21.5-20.8,30.4-26.9c17.3-11.8,47.1-24,47.1-24l0.4,1l0.1,0c-8.8,4.8-16.5,11.7-20.8,15.8l-0.2,0.2l5.4-3.4
			c11.8-7.2,28.3-16.7,28.3-16.7l0.7,0.9c-5.9,5.6-19.9,18.1-32.1,27.6l-5.3,4.1l5.6-3c11.4-6.6,20.8-13.7,26.6-19.1
			c9.7-9.1,24.1-17.9,30.6-21.3l0.6,0.1c3.1,3.1,7.7,5.9,11.8,7.6l0.1,1c-9.7,6.9-16.4,11-20,18.9l-0.3,0.8l3.5-3.7
			c2.6-2.6,6.1-5.6,10.1-8.3l4.2-2.6c2.2-1.2,4.5-2.7,7-4.3l0.4-0.1c1.3,0.3,3.3,0.6,5.4,0.8l5.4,0.3l0.2,0l0,0l0.5-0.2l0.5,1
			l-2,1.3l0,0l-7.3,5c-16.6,10.9-30.9,17.2-35.6,37.4l-0.5,2.5l1.4-3.9c2.5-6,6.7-13.1,13.5-18.5l3.1-2.2l8.5-5.1
			c9.5-5.5,21.5-12.4,30.2-21.3l0.2-0.1c7.7-3.5,12.9-9.2,16-17l1.2-3.4l0,0l0-0.2l0.5-0.5c2.9-0.3,5.8-0.6,8.8-0.9l0.6,0.6
			c-0.3,2.7-0.8,6-1.7,9.6l-1.1,3.6l0,0l-1.9,5.1c-2.2,5.2-5.3,10.8-10,16.5c-9.8,12-21.3,20-33.4,34l-5.2,6.4l-2.3,3.2
			c-11.1,15.9-14.2,31.3-14.5,33.2c0,0.1,0,0.2,0,0.2l-1.1,0c-2-14.3,1.5-25.4,4.5-31.7l0.3-0.7l-1.4,2c-2.2,3.4-4.6,8-5.9,12.9
			c-1.2,4.6-1.7,7.5-1.8,9.6L256.6,343.1z M252.8,343.1l3.3,2.2c-0.2-2.6-0.6-5.2,1.8-14.4c2.6-10.1,9.5-18.3,11.2-19.6
			c0,0-10.8,14.4-7.7,37.1c0,0,3-18.6,17-36.8c14-18.2,27.5-26.8,38.6-40.4c6.2-7.6,9.7-14.8,11.8-21.4c1.7-4.9,2.5-9.7,2.8-13.2
			c-3,0.3-5.9,0.6-8.8,0.9c0,0.1,0,0.2-0.1,0.3c-2.9,9.7-8.5,16.7-17.5,20.8c-11.7,11.9-29.1,20.2-38.8,26.4
			c-17.2,11-20,32.7-20,32.7c1.9-33.3,22.3-37.6,44.6-53.9c0.5-0.3,1.6-1,2-1.3l-0.7,0.3c-2.8,0-8.5-0.5-11.1-1.1
			c-2.4,1.7-4.8,3.1-7,4.3c-11.7,6.4-19.8,16.8-19.8,16.8c3.2-10.5,10.5-15,21.6-22.8c-4.1-1.7-8.8-4.6-12-7.7
			c-6.5,3.4-20.9,12.1-30.5,21.2c-7.7,7.3-21.9,17.5-38.7,25.5c13.2-8.7,35.5-28.4,43.3-35.9c0,0-29.3,16.9-37.7,22.6
			c0,0,10.9-12,24.4-19.5c0,0-29.8,12.2-47,23.9c-8.9,6.1-22.5,18.4-30.3,26.8c3.2-0.7,15.5-3.2,18.8-3.5c22.1-2.3,46.2-0.6,67.3-26
			c0.3-0.4,0.7-0.8,1-1.2c-1.8,6.3-2.6,15.1-2.3,24.9c0.6,15.9,10,24.6,17.4,29.9L252.8,343.1z"/>
		<path fill="#FFFFFF" d="M208.6,311.3l2.9-0.9c6.8-2.7,13-8.5,15.8-11.5c1.1-1.1,1.7-1.9,1.7-1.9l1,0.5c-1,3.3-0.4,13.1-0.3,15.4
			c0,0.3,0,0.5,0,0.5l-0.4,0.5c0,0-4.3,1.7-9.6,1.7c-5.4,0-11.7-3.3-11.7-3.3l0.2-1L208.6,311.3L208.6,311.3z M208.7,311.9l-0.4,0
			c0,0,6.3,3.3,11.4,3.3c5.2,0,9.4-1.7,9.4-1.7s-0.9-12.2,0.3-16.2C229.4,297.4,219.6,309.2,208.7,311.9z"/>
		<path fill="#FFFFFF" d="M177.3,113.1l0.5-3.1l0.1-1.6l0,0l0-0.7l0.1-0.2l0,0l0.5-0.3c0.8,0,1.1,2.2,1.3,4.2v0
			c0.2,2.9,0.3,5.9,0.6,8.7l0.3,2.2c2.3,20.4,14.6,39,31,47.3l0,0c13.3,7.4,25.7,5.9,39,4.2l7.6-0.9l6.2-0.5c1.9-0.1,3.8-0.1,5.5,0
			l3.4,0.3h0l3.7,0.4c6.3,0.9,12,2.7,15.6,4.1l2.8,1.2l0,0l3.7,1.9c8.3,5.2,14.6,14.2,16,23.7v0.1l0,0.2v0.1h0l0.5,2.9
			c0.1,1,0.2,2.1,0.2,3.1h-0.3l-0.1,1.5c-0.3,2.6-0.9,5-1.8,7.4l-0.5-0.2l-0.5-0.2l-0.1,0c0.5-1.5,0.8-3.1,0.9-4.9l0-0.5l-0.1,0.5
			c-0.4,1.9-1.1,3.7-1.9,5.4l-0.5-0.2l-0.4-0.2l-0.1,0c0.9-2.9,1.3-6.1,1-9.3c-0.4-4.1-1.8-7.9-3.9-11.1l-0.1,0l0.7,1.8
			c1,3,1.6,6.2,1.9,9.2c1.2,12.9-7.8,21.8-18.4,25.2l-1.2,0.3l2.5-0.2c0.9-0.1,1.9-0.3,2.9-0.6l0.1,0c1.3-0.1,3-0.3,4.7-0.9l1.7-0.7
			l1.5-0.8c0.5-0.3,1.1-0.7,1.7-1.1l0.3,0.5l0.3,0.4l0.1,0c-5.2,4.8-12.1,7.7-19.7,7.7c-10,0-18.9-5.1-24.1-12.9l0.5-0.9
			c3.6,0.4,7.1,1,9.7,1.5l1.8,0.3l-0.1-0.1c-5.4-3.4-12.4-5.7-14.2-6.3l-0.4-0.1l0,0c-7.2-2.2-16.7-4.2-26.2-6.5l-9.4-2.5h0
			l-4.6-1.4c-21-7-36-20.2-44.6-39.4l-1.6-3.9v0l-1.5-4.1c-3.1-9.5-4.1-18.1-4.3-23.3l-0.1-4.2v0l0-1.6c0.1-7.8,0.9-15.2,1.8-21.3
			l0.9-5.7l0,0l0.1-0.8l0.1,0l1,0.2l0-0.1l0.1,0l0,1.5v0c0,3.6,0.1,6.9,0.2,9.7l0.1,0.9l0.3-2.2c0.2-1.6,0.5-3.2,0.6-4.8
			c0.3-3.2,1-7.1,1.2-10.2c0.1-1.2,0.1-2.5,0.1-3.7l0.8-0.5c0.7,0.4,0.8,2,0.8,2.1c0.3,1.5,0.9,11.9,1.1,15.5l0,1.4l0.2-1.6l0,0
			L177.3,113.1z M179.4,115.1l-0.2-3.7c-0.2-2.3-0.6-3.7-0.7-3.7c0,0,0,0,0,0c0,0.2,0,0.4,0,0.6c0,2.2-0.5,4.4-0.9,6.5l-1,7.2h0
			c0-0.2-0.1-0.4-0.1-0.6c-0.1-0.7-0.1-1.4-0.1-2.1c0-1.4,0-2.9-0.1-4.3c-0.2-3.6-0.8-14.1-1.1-15.4c-0.1-0.3-0.2-1.5-0.6-1.8
			c0,1.2,0,2.5-0.1,3.7c-0.1,3.2-0.9,7-1.2,10.3c-0.3,3.2-0.9,6.4-1.3,9.6l-0.3,2.2l-0.1,0c-0.2-2-0.7-8.3-0.6-15.5l0-1.5
			c0,0.3-0.1,0.6-0.1,0.8c-1.2,6.9-2.6,16.5-2.7,26.9c0,0.3,0,1.2,0,1.6c-0.1,3.2,0.1,16.6,5.8,31.4c8.8,22.5,25.7,37.4,50.5,44.3
			c12.3,3.5,26,6.1,35.6,9l0,0c0,0,0,0,0,0s10.6,3.1,17,8.1c0,0-7-1.4-14.1-2.3c5.1,7.6,13.8,12.6,23.6,12.6
			c7.5,0,14.2-2.9,19.3-7.6c-1.2,0.9-2.4,1.5-3.3,1.9c-2.4,1.2-4.8,1.6-6.6,1.7c-4.1,1.3-8.1,0.7-9.2,0.5c0.1,0,0.2,0,0.2-0.1
			c12.2-2.1,23.6-11.5,22.4-25.7c-0.6-6.1-2.4-12.6-6.3-16.7c4.8,4.1,8.1,9.9,8.7,16.6c0.3,3.3-0.1,6.5-1,9.5c1.5-3.3,2.5-7,2.5-11
			c0.9,4.2,0.6,7.8-0.4,10.9c1.2-3,1.9-6.3,2-9.8l0.2,1.1h0c0-2.1-0.2-4.1-0.6-6l0-0.3c-1.6-10.6-9.4-20.8-19.4-25.2
			c-3-1.5-12-4.9-21.8-5.8c-4.4-0.5-9.2-0.4-15,0.2c-2.6,0.3-5.1,0.6-7.6,0.9c-13.3,1.7-25.9,3.3-39.3-4.2
			c-16.7-8.4-29-27.2-31.4-47.8l-0.3-2.2c-0.2-1.4-0.3-2.9-0.4-4.4L179.4,115.1z"/>
		<path fill="#FFFFFF" d="M280.1,366.3c-2.5,6.6-4.1,12.7-4.8,15l-0.8,0.3c-7.3-4.4-18.6-10.2-22.8-16.8c-5.6-8.8-5.6-20.1-5.6-20.2
			l0.9-0.4c2.6,2.3,9.6,6.3,16.1,9.8c5.3,2.9,13.8,9.3,16.8,11.6L280.1,366.3z M279.6,366.1c-3-2.3-11.5-8.6-16.8-11.5
			c-6.4-3.6-13.4-7.5-16.2-9.9c0,0-0.1,11.3,5.5,19.9c4.1,6.4,15.3,12.3,22.6,16.6C275.4,378.8,277.1,372.7,279.6,366.1z"/>
		<path fill="#FFFFFF" d="M266.8,343.1l0.1-0.4c1-3.9,2.5-8.5,4.7-13.5c5-11.5,17.8-25.3,17.8-25.4l0.8,0c4.3,4.5,10,13.6,7.7,25.5
			c-2.2,11.8-7.9,15.9-13.5,27c-1,1.9-1.9,4-2.7,6l-0.9,0.2c-3.5-2.8-9.9-6.8-15.2-10.1l-0.3-0.5c0.1-1.1,0.2-2.4,0.5-4L266.8,343.1
			z M273.5,326.7l-1.4,2.7c-4.4,10.1-6,18.2-6.2,22.6c5.3,3.3,11.7,7.3,15.3,10.1c0.9-2.1,1.8-4.1,2.8-6
			c5.7-11.2,11.2-15.2,13.5-26.9c2.2-11.7-3.3-20.6-7.6-25c0,0-9.7,10.6-15.5,20.9L273.5,326.7z"/>
		<path fill="#FFFFFF" d="M241.5,219.8l0.3,0.1l-0.1,1.1l-0.4,0.1l0,0l-8.6,1.7c-2.8,0.6-5.6,1.3-8.1,2l-0.7-0.6c0.2-2,0.5-4,0.8-6
			l0,0c0.1-0.5,0.2-1.1,0.3-1.7l0.7-0.4c2.2,0.5,4.5,1,6.7,1.6l6.1,1.5h0L241.5,219.8L241.5,219.8z M241.3,220.3c-1-0.2-2-0.5-3-0.7
			c-2-0.5-4-1-6.1-1.5c-2.2-0.5-4.5-1-6.7-1.6c-0.1,0.6-0.2,1.1-0.3,1.7c-0.3,2-0.6,4-0.8,6c5.1-1.3,11-2.7,16.8-3.7
			c0.1,0,0.3,0,0.4-0.1C241.5,220.4,241.4,220.3,241.3,220.3z"/>
		<path fill="#FFFFFF" d="M247.2,160.1l-3.1,4.4l-0.8,0.1c-4.1-3.1-10.6-8.8-14.6-16.6l-1.5-3.5l-1.6-4.8
			c-3.1-11.1-2.5-21.4-2.8-28.4l-0.2-3.1l-1.1-7.9l0.1,0l1-0.1l0-0.1l0.1,0l1.6,5.8l-0.1-0.9c-0.3-2.8-0.7-5.8-1.2-8.2l1-0.2l0-0.1
			c0,0,2,5.7,3.4,11l0.1,0.3l0-0.5c0-1.8-0.1-4-0.2-6.2l1.1-0.2c0.3,1.2,0.7,2.3,1,3.6l0.8,3.8c2.8,15.7,7.4,26.5,26,38l0.2,0.8
			c-1.7,2.6-3.7,5.6-5.9,8.7L247.2,160.1z M232.1,152.5l1,1.4c3.5,4.6,7.7,8.1,10.6,10.3c3.8-5.4,8.8-12.4,12.1-17.5
			c-18.8-11.6-23.4-22.6-26.3-38.4c-0.5-2.5-1.1-5-1.7-7.2c0.5,6,0.1,11.6,0.1,11.6c-0.7-5.8-4.3-15.9-4.3-15.9
			c1.4,6.5,1.8,17,1.8,17c-0.4-3.7-2-9.4-3.2-13.5c0.4,2.9,0.8,5.6,1.1,7.9c1,7.8-0.9,21.7,4.6,36.2c0.9,2.4,2,4.6,3.3,6.6
			L232.1,152.5z"/>
		<path d="M319.1,234.1l-0.4,1.9c-3.5,12.8-15.3,22.2-29.2,22.2c-10.4,0-19.6-5.3-25.1-13.3l-1.9-3.2l-9.2,1.8l-8.2,1.8h0l-2.7,0.7
			c-3.7,1-10.5,2.8-15.1,4.2l-3.5,1.2l-0.2,0.1l0,0l-0.2,0.1c-0.2,0-0.4-0.1-0.6-0.4c-0.2-0.3-0.3-0.7-0.3-1.6
			c-0.1-0.9-0.1-2.2-0.1-4.4l0.3-9v0l0.7-7.7l0.4-0.5c2.7-0.7,5.6-1.4,8.7-2.1l9.5-1.9l9.7-1.4l0.2,0c1.8,0.5,3.5,1,5.2,1.4l0.3,0.3
			c5.3,11.3,16.8,18.8,29.4,18.8l1.7,0h0l0.5,0h0l1.1-0.1h0c0.2,0,0.4,0,0.7-0.1h0l0.9-0.1l0,0l0.8-0.1c0.3,0,0.6-0.1,0.8-0.1h0
			c0.2-0.1,0.5-0.1,0.8-0.2l0.8-0.2h0l0.8-0.2l0.7-0.2l0,0l0.8-0.3c0.2-0.1,0.5-0.1,0.7-0.2l0,0l0.9-0.3l0,0l0.6-0.2h0l0.9-0.4
			l0.5-0.2h0l0.9-0.5l0,0c0.2-0.1,0.3-0.2,0.5-0.2l0,0l0.9-0.5h0l0.4-0.2c0.3-0.2,0.6-0.4,1-0.6l0,0c0.1-0.1,0.2-0.1,0.3-0.2l0,0
			l1-0.7l0,0l0.3-0.2c0.3-0.2,0.6-0.5,1-0.8c0.1-0.1,0.2-0.1,0.2-0.2v0l1-0.8l0,0l0.2-0.2l0,0l1-0.9l0,0c0.1,0,0.1-0.1,0.1-0.1l0,0
			l1-1v0l0.1-0.1l0,0l0.9-1.1l0.1-0.1l0,0c0.3-0.4,0.6-0.8,0.9-1.2l0,0l0.9-1.2l0,0l0,0l0,0c0.3-0.4,0.6-0.8,0.8-1.3
			c2.5-4,4.1-8.5,4.6-13.3l0.1-1.6l0-0.1c0-0.5,0.1-1.1,0.1-1.6v-0.1l0.5-0.5c2.3-0.3,11.5-1.2,21.3-1.6l9.8-0.2l9.9,0.3
			c9.2,0.5,16.2,1.6,18.9,2.1l0.4,0.3c0.4,1,0.8,2,1.1,2.9c0,0.1,0.1,0.2,0.1,0.3v0l0.7,1.9v0l0.2,0.5v0l0.5,1.6v0
			c0.1,0.2,0.1,0.4,0.2,0.5l0,0c0.2,0.5,0.3,1,0.4,1.4l0,0l0.2,0.6v0l0.4,1.3l0,0l0.2,0.6c0.1,0.4,0.2,0.8,0.3,1.2v0l0.1,0.5l0,0
			l0.3,1.1v0l0.1,0.5l0.2,1l0.1,0.4l0,0l0.2,0.9l0,0l0.1,0.4v0l0.2,0.8l0,0c0,0.1,0,0.2,0.1,0.3l0,0c0,0.2,0.1,0.4,0.1,0.7
			c0,0.1,0.3,1.2,0.3,1.3l0,0c0,0,0,0.1,0,0.1c0,0,0,0,0,0l-0.6,0.6c-17.2-2.3-30.8-2.5-55.3-0.2l-10.8,1.1L319.1,234.1z
			 M310.5,233.3l-0.7,0.7c0,0-0.1,0.1-0.1,0.1c-0.3,0.3-0.6,0.6-1,0.9c-0.1,0.1-0.1,0.1-0.2,0.2c-0.3,0.3-0.7,0.6-1,0.9
			c-0.1,0.1-0.2,0.1-0.2,0.2c-0.3,0.3-0.7,0.5-1,0.8c-0.1,0.1-0.2,0.1-0.3,0.2c-0.3,0.2-0.7,0.5-1,0.7c-0.1,0.1-0.2,0.2-0.4,0.2
			c-0.3,0.2-0.6,0.4-1,0.6c-0.1,0.1-0.3,0.2-0.4,0.2c-0.3,0.2-0.6,0.4-0.9,0.5c-0.2,0.1-0.3,0.2-0.5,0.3c-0.3,0.2-0.6,0.3-0.9,0.5
			c-0.2,0.1-0.4,0.2-0.5,0.2c-0.3,0.1-0.6,0.3-0.9,0.4c-0.2,0.1-0.4,0.2-0.6,0.2c-0.3,0.1-0.6,0.2-0.9,0.3c-0.2,0.1-0.4,0.2-0.7,0.2
			c-0.3,0.1-0.6,0.2-0.8,0.3c-0.2,0.1-0.5,0.1-0.7,0.2c-0.3,0.1-0.5,0.2-0.8,0.2c-0.3,0.1-0.5,0.1-0.8,0.2c-0.3,0.1-0.5,0.1-0.8,0.2
			c-0.3,0.1-0.6,0.1-0.8,0.2c-0.3,0-0.5,0.1-0.8,0.1c-0.3,0-0.6,0.1-0.9,0.1c-0.2,0-0.5,0.1-0.7,0.1c-0.4,0-0.8,0.1-1.2,0.1
			c-0.2,0-0.3,0-0.5,0c-0.6,0-1.1,0-1.7,0c-12.8,0-24.5-7.6-29.9-19.1c-1.6-0.5-3.4-1-5.2-1.4c-3,0.4-6.3,0.8-9.7,1.4
			c-6.3,1.1-12.8,2.7-18.1,4c-0.3,2.8-0.7,7.3-0.7,7.7c-0.4,7.9-0.3,11.6-0.2,13.4c0.2,1.7,0.4,1.4,0.4,1.4
			c4.6-1.8,21.6-6.2,21.6-6.2c5-1.2,10.9-2.4,17.8-3.7c4.9,9.8,15,16.6,26.7,16.6c14.6,0,26.7-10.5,29.3-24.4
			c31.9-3.5,47-3.6,66.7-0.9c0,0,0,0,0-0.1c0-0.1-0.3-1.2-0.3-1.3c0-0.2-0.1-0.4-0.1-0.7c0-0.1,0-0.2-0.1-0.3
			c-0.1-0.2-0.1-0.5-0.2-0.8c0-0.1-0.1-0.2-0.1-0.4c-0.1-0.3-0.1-0.6-0.2-0.9c0-0.1-0.1-0.3-0.1-0.4c-0.1-0.3-0.2-0.6-0.2-1
			c0-0.2-0.1-0.3-0.1-0.5c-0.1-0.4-0.2-0.7-0.3-1.1c0-0.2-0.1-0.3-0.1-0.5c-0.1-0.4-0.2-0.8-0.3-1.2c-0.1-0.2-0.1-0.4-0.2-0.5
			c-0.1-0.4-0.3-0.9-0.4-1.3c0-0.2-0.1-0.4-0.2-0.6c-0.1-0.5-0.3-1-0.4-1.4c-0.1-0.2-0.1-0.4-0.2-0.6c-0.2-0.5-0.3-1.1-0.5-1.6
			c0-0.2-0.1-0.3-0.2-0.5c-0.2-0.6-0.4-1.3-0.7-1.9c0-0.1-0.1-0.2-0.1-0.3c-0.3-0.9-0.7-1.9-1.1-2.9c-3.5-0.7-14.8-2.4-28.7-2.5
			c-12.7-0.1-28,1.5-31,1.8c0,0,0,0,0,0.1c0,0.5,0,1.1-0.1,1.6v0c0,0.5-0.1,1.1-0.1,1.6c-0.6,4.9-2.2,9.5-4.7,13.6
			c-0.3,0.4-0.6,0.9-0.9,1.3c0,0,0,0,0,0c-0.3,0.4-0.6,0.8-0.9,1.3c0,0,0,0,0,0.1c-0.3,0.4-0.6,0.8-0.9,1.2c0,0,0,0.1-0.1,0.1
			c-0.3,0.4-0.6,0.7-1,1.1c0,0-0.1,0.1-0.1,0.1L310.5,233.3z"/>
		<path fill="#FFFFFF" d="M338.3,235c0,0-0.1,0.1-0.2,0.3l0.3-0.2L338.3,235z M334.3,326.7L334,327c0,0-10.1,2-16.2-5l-1.2-1.5
			l-1.9-3.3c-3.9-7.8-3.7-15.8-3.3-19.6l0.2-1.3l-1.9,0.6c-1.2,0.3-2.7,0.6-4.2,0.5l-1.5-0.2l0,0l-1-0.4c-0.9-0.5-1.6-1.2-2.1-2
			l0.1-0.7c6-5.4,12.4-10.3,18.7-17.6l0.5-0.2c1.7,0.4,3.2,0.7,4.6,1.1l3.3,0.9l1.4,0.5c3.2,1.4,6.3,4.1,7.2,7.2
			c0.5,1.7,0.9,5.3,1.1,8.5l0.1,2.2l0.3-1.4c0.9-4.4,1.1-7,1.3-8.6c0.2-1.8,0-6.1-2.7-9.6l-1.3-1.4l-1-0.7
			c-2.6-1.7-7.8-3.3-10.1-4.6l-0.2-0.8c8.3-11.5,11.4-28.4,12-32.4l0.1-0.8l0-0.1l0-0.5l0.5-0.6c0.5,0,0.9-0.1,1.1-0.1l0.2,0l0.2,0
			l0.2-0.1c1.7-0.1,8-0.9,9.8-0.9l0.5,0.7c0,0-0.2,0.5-0.4,1.3c-0.5,2.1-1.4,6.5-0.5,10.3l0.3,1l0.5-0.3c2.1-1.1,7.1-3.3,13.5-2.8
			c8.5,0.6,21.8,4.6,27.3,2.4l0.7,0.3c0,0,2,4.4,2.4,8.5l0.1,1.7c-0.1,3.1,0.6,5.3,1.6,6.7l1,1.1l1.6,0.9c0.5,0.2,1,0.4,1.5,0.7
			l0.9,0.5l0.4,0.4c0.9,1.2,0.7,3.2,0.3,4.8c-0.6,2.2-2.3,2.5-3.9,2.1c-1.2-0.3-8.2-1.3-15.7,0.1l-0.6-0.4c-0.4-1.4-1.3-4.9,0.5-6.7
			c0.8-0.9,1.9-1.4,3-1.6l1-0.2l-0.5-0.1c-0.6-0.1-1.2-0.2-1.7-0.2c-1.9,0-3.5,1-4.5,2.2l-0.8,1.3l0,0l-0.2,1.3
			c-0.1,1.5,0.2,3.5,0.5,4.7l-0.4,0.6c-8.1,2.4-19.9,8.8-29.5,21.1c-9.1,11.7-12.1,26-12.7,29.4c-0.1,0.5-0.1,0.7-0.1,0.7
			L334.3,326.7z M330.1,326.7c2.3,0.1,3.8-0.2,3.8-0.2s2.4-16.9,12.9-30.4c9.7-12.5,21.5-18.9,29.8-21.3c-0.3-1.5-0.8-4.7-0.2-6.2
			c0.8-2.1,3.1-3.9,5.8-3.9c2.8,0,5.9,1.5,5.9,1.5c-1.5-0.3-5.3-0.5-7.3,1.6c-1.5,1.6-0.8,4.8-0.4,6.2c7.6-1.4,14.6-0.5,15.9-0.1
			c1.4,0.4,2.7,0.1,3.2-1.7c0.5-1.8,0.5-3.9-0.5-4.7c-1-0.7-2.5-1-4.1-2.2c-1.6-1.2-2.9-4.1-2.7-8.3c0.1-4.2-2.4-9.9-2.4-9.9
			c-5.7,2.3-19.1-1.8-27.5-2.4c-8.4-0.6-14.2,3.4-14.2,3.4c-2.3-5.7,0.4-13.5,0.4-13.5c-1.7,0-8,0.8-9.8,0.9c0,0.1-0.7,0.2-1.6,0.3
			c0,0.2,0,0.4,0,0.6c0,0-2.6,20.3-12.3,33.5c2.5,1.4,8.9,3.3,11.1,5.3c4.2,3.8,4.4,9.3,4.2,11.4c-0.2,2.2-0.5,6-2.5,13.7
			c0,0-0.5-11-1.5-14.3c-1-3.2-4.7-6.2-8.2-7.3c-1.6-0.5-4.6-1.3-7.8-2c-6.3,7.3-12.7,12.3-18.7,17.6c0.6,1,1.5,1.8,2.8,2.2
			c3.6,0.9,8.2-1.2,8.2-1.2s-2.9,13.4,4.8,24.9C320.6,325.4,326.3,326.6,330.1,326.7z"/>
		<path fill="#FFFFFF" d="M397.8,238.7l-0.5,0.7c-1.6,2-4.1,3.7-7.7,4.4l-2,0.3l-3.8,0.1c-7.9,0-10-2.2-17.1-3.1l-0.2-1
			c0,0,0.7-0.4,1.9-0.9l2-0.7l-1.4-0.1c-2-0.1-4.4,0-6.7,0.3l-1.9,0.4l-1.9,0.6c-4.1,1.4-5.9,3.1-6,3.2h0l-0.9-0.3c0,0,0,0,0-0.1
			c-0.1-0.6-0.6-6.3,2.5-8.3c2.5-1.6,8.9-1.5,13.4-1.2l3.7,0.3l3.9,0.5c4.3,0.5,10.6,1.2,14.9,0.7l1.7-0.3l3.3-0.8
			c2.8-0.8,4.4-1.4,4.8-1.6c0.1,0,0.1,0,0.1,0l0.8,0.6c0,0-0.3,2.4-1.8,5L397.8,238.7z M373.7,238.3c-4.4,0.9-6.9,2.4-6.9,2.4
			c8.3,1.1,9.7,3.7,20.8,3c11-0.8,12.4-11.2,12.4-11.2s-2.6,1.2-8.3,2.5c-5.7,1.3-17.2-0.5-20.7-0.9c-3.4-0.4-13.8-1.2-16.7,0.8
			c-2.9,2-2.3,7.9-2.3,7.9s2.4-2.5,8.2-3.9C366,237.2,373.7,238.3,373.7,238.3z"/>
		<path fill="#FFFFFF" d="M250.4,161.6l2-2.9l5.4-7.5c1.8-2.4,3.1-4.8,4.2-7c2.7-5.8,3.3-10.4,3.3-11c0,0,0-0.1,0-0.1l0.6-0.5
			c27.5,1.3,60.5,13.3,87.1,38.6c11.8,11.2,19.6,24.4,24.7,35.6l-0.6,0.8c-4.9-0.8-15-2-26.4-2.1c-12.8-0.1-28.2,1.6-31.1,2
			l-0.6-0.4l0,0l0-0.1l-0.2-1.3v0l-0.1-0.4v0c0-0.3-0.1-0.7-0.2-1l0,0c-1.6-12.4-10.8-24.3-22.4-29.2l0,0
			c-4.2-1.9-13.1-4.9-22.3-5.7h0c-4.7-0.5-9.7-0.5-15.8,0.2c-2.6,0.3-5.2,0.6-7.7,0.9c-1.8,0.2-3.6,0.5-5.4,0.7l-0.5-0.9
			c0,0,0.1-0.1,0.1-0.2c0.3-0.3,0.8-1,0.9-1.2L250.4,161.6z M262.7,144.1l-0.2,0.4c-1.1,2.2-2.4,4.6-4.2,7
			c-2.6,3.5-7.7,10.6-12.5,17.8c-0.2,0.2-1,1.4-1,1.4c1.8-0.2,3.6-0.4,5.4-0.7c2.5-0.3,5.1-0.7,7.7-0.9c6.2-0.6,11.2-0.7,15.9-0.2
			c9.3,0.8,18.3,3.8,22.5,5.8c11.8,5,21.1,17,22.8,29.6l0,0c0.1,0.3,0.1,0.7,0.2,1c0,0.1,0,0.3,0.1,0.4c0.1,0.4,0.1,0.9,0.2,1.4
			c0,0,0,0,0,0c2.9-0.3,18.3-2.1,31.2-2c11.5,0.1,21.6,1.3,26.5,2.1c-5-11.2-12.8-24.3-24.5-35.5c-26.5-25.1-59.4-37.2-86.7-38.4
			c0,0-0.3,3.8-2.4,8.9L262.7,144.1z"/>
		<path fill="#FFFFFF" d="M279.2,404.6c0,0-6.3-3.3-10.8-9.7c-3.5-5.1-3.8-11.2-3.8-13.7l0.8-0.5c4.4,2.5,9.4,5,12.4,6.9
			c3.2,2,5.9,4,7.8,5.7l0.1,0.7c-3.1,5.5-5.9,10.4-5.9,10.4L279.2,404.6z M279.5,404.1c0,0,2.8-4.9,5.9-10.4
			c-1.9-1.7-4.6-3.6-7.8-5.6c-2.9-1.8-8-4.3-12.3-6.8c0,2.4,0.3,8.4,3.7,13.3C273.2,400.9,279.5,404.1,279.5,404.1z"/>
		<path fill="#FFFFFF" d="M120.5,326.7l-0.2,0.1l-0.6-0.9c9.9-10.9,29.9-30.4,46.3-41.4c49.4-33.2,90.2-38.5,93.2-39.2l0.5,0.1
			l0.9,0.8l0.1,0.1c0.4,0.6,0.8,1.2,1.3,1.8l-0.3,0.9c-20.6,5.6-64.5,24.2-90.1,42.2c-11,7.7-23.1,20-30.5,27.5l-0.2,0.1
			c-3.6,1.1-7.7,2.6-11.4,4.1L120.5,326.7z M261.5,248.5c-0.4-0.6-0.9-1.2-1.3-1.8l-0.9-0.8c-3,0.6-43.8,6-93,39.1
			c-16.3,11-36.3,30.4-46.2,41.3c4.2-1.8,13.4-5.7,20.6-7.9c7.4-7.6,19.5-19.8,30.6-27.6C196.9,272.8,240.9,254.1,261.5,248.5z"/>
		<path fill="#FFFFFF" d="M362.5,326.7l-0.2,0.4c-1,2-1.5,3.2-1.5,3.2l-1.1-0.3c2.1-14,8.4-25.3,12.9-31.8l2.4-3.2l-0.7,0.5
			c-8.5,6.7-14.9,18.5-18.4,41.6l-0.9,5.5c-4.8,26.3-12.5,36.6-12.5,36.6l-1-0.5l0.9-3l0,0l1.2-5.7c2.4-12.6,2.2-20.7,4.8-38
			c1.9-12.4,6-21.8,8.8-27.1l1.2-2.1l-1.2,1.1c-8.3,8.4-12.9,23.2-14.7,43.8c-2.3,26.1-8.5,35.4-8.6,35.5l-1-0.5
			c3.7-12.9,2.2-27.2,2.7-37c0.6-9.6,1-22.9,6.5-35.4c4.8-11,15.1-21.6,26.5-28.1l5-2.5l2.5-1c12.2-4.7,21.6-2.1,21.6-2l0.2,0.1
			c7.1,6.7,7.5,13.7,7.6,13.8l-0.4,0.6c0,0-0.2,0-0.5,0.1c-2,0.6-9.7,3-19,8.4l-4.1,2.5l-1.7,1.2c-6.4,4.9-11.5,12.6-14.7,18.5
			L362.5,326.7z M361,326.7l-0.6,3.4c0,0,8.1-20,20.8-28.3c12.7-8.4,23.7-11.2,23.7-11.2s-0.4-6.9-7.4-13.4c0,0-10.5-3-23.7,3.1
			c-13.2,6-25.8,18-31.2,30.4c-5.4,12.4-5.8,25.5-6.4,35.2c-0.6,9.6,1,24.1-2.8,37.1c0,0,6.2-9.2,8.5-35.2
			c2-23.6,7.9-39.8,18.7-47.4c0,0-8.7,12-11.6,31.7c-2.9,19.7-2.4,27.4-6,43.7l-0.9,3.1c0,0,8.7-11.6,13.4-41.9
			c4.1-26.5,11.9-38.3,22.5-44.5c0,0-12.5,13.6-16.8,33.6L361,326.7z"/>
		<path fill="#FFFFFF" d="M316.3,326.7l1,0.8c3,2.2,6.6,3.7,11.1,3.7c1.2,0,2.7,0,4.3-0.1l0.6,0.6c-0.7,4.4-1,9.2-1.2,12.6l-0.4,0.5
			c-1.9,0.6-3.5,1.2-4.8,1.8c-4.1,1.7-10.1,4.6-15,7.1l-8.8,4.5l0,0l-0.5,0.3l-0.8-0.4c-1.1-7.7-3.4-14.2-4-15.6
			c-0.1-0.2-0.1-0.3-0.1-0.3v-0.4c0,0,0.3-0.9,0.8-2.4c1.3-3.9,3.5-11.8,3-18.1l-0.4-2.6l-1-3.8c-2.5-8.4-5.6-13.2-6-13.8
			c0,0-0.1-0.1-0.1-0.1l0.1-0.7c0.5-0.5,1-1,1.5-1.5l0.8,0.1c2.4,3.3,6.3,3.8,7.3,3.9c0.1,0,0.2,0,0.2,0l0.5,0.4c0,0,0,0.2,0.1,0.5
			c0.5,2,2.5,9.6,5.3,14.8l1.2,2.1l1.5,2.1c0.9,1.2,1.9,2.3,3,3.3L316.3,326.7z M331.6,343.1l0.3-4.7c0.2-2.2,0.5-4.5,0.8-6.7
			c-1.6,0-3.1,0.1-4.3,0.1c-8.6,0-13.9-5-17.9-10.8c-4-5.8-6.7-17.5-6.7-17.5s-5-0.1-7.9-4.1c-0.5,0.5-1,1-1.5,1.5
			c0,0,4.5,6.2,7.2,17.9c2.1,8.9-3.5,23.3-3.5,23.3s2.9,7.3,4.2,16.1c0.2-0.1,0.4-0.2,0.5-0.3c0,0,15.5-8.2,23.8-11.7
			c1.3-0.6,3-1.2,4.8-1.8L331.6,343.1z"/>
		<path fill="#FFFFFF" d="M395.6,331c3.1,0.1,6.1-0.1,7.4-0.1c0.4,0,0.7,0,0.7,0l0.4,1c-1.5,1.2-5,1-6.7,1.2
			c-1.9,0.3-13.4,0.6-27.4,2.7c-2.5,0.4-5.3,0.9-8.2,1.4l-0.6-0.7c0.9-2.4,1.7-4.2,2.8-5.9l0.5-0.3h0.1
			C374.8,330.4,391.3,330.9,395.6,331z M395.6,331.5c-4.2-0.1-20.8-0.6-31.1-0.6h-0.1c-1,1.6-1.9,3.3-2.8,5.8
			c2.9-0.6,5.7-1.1,8.2-1.4c14-2.1,25.6-2.5,27.4-2.7c1.9-0.2,5.2-0.1,6.5-1.1C403.7,331.4,399.8,331.7,395.6,331.5z"/>
		<path fill="#FFFFFF" d="M406.7,326.7l-0.4,1c-0.2,0.3-0.5,0.6-0.8,0.8c-1.1,0.9-2.6,0.7-3.4,0.7c-1.2-0.1-4.3-0.1-8.9-0.5
			l-5.1-0.5c-3.7-0.4-8.9-0.8-13.2-0.9c-4.3-0.2-7.6-0.3-7.6-0.3l-0.5-0.7c6.5-18,29-27.6,29-27.6l0.8,0.5c0.3,4-1.8,10.3-2.9,13.2
			l-0.3,0.8l2.1,0c1.7,0.1,3.7,0.3,5.3,0.9c3.1,1.2,4.9,2.6,6,8.8c0.3,1.6,0.3,2.8,0,3.7L406.7,326.7z M375,326.7l6.8,0.4
			c2.3,0.2,4.5,0.3,6.4,0.6c7.5,0.9,12.4,0.9,14,1c0.8,0,2.1,0.1,3.1-0.6c0.9-0.7,1.5-2.2,1-5.2c-1.1-6.1-2.8-7.2-5.7-8.4
			c-2.9-1.2-8-0.9-8-0.9s3.8-9.4,3.4-14.5c0,0-22.3,9.6-28.7,27.3C367.3,326.4,370.6,326.5,375,326.7L375,326.7L375,326.7z"/>
		<path fill="#FFFFFF" d="M280.7,385.6l-2.3-1.5l-0.2-0.6c2.9-11.8,9.8-26.7,12.6-30.6c0.9-1.2,2.4-3.5,3.3-5l1,0
			c0.9,1.7,3.4,6.1,4.1,11.6c1,8-2.1,16.8-6.2,24.1c-1.2,2.1-3.9,4.6-5.2,7l-0.9,0.1c-0.5-0.6-1.3-1.3-2.3-2.2L280.7,385.6
			L280.7,385.6z M294.6,348.2c-0.9,1.5-2.4,3.8-3.3,5c-2.8,3.8-9.6,18.7-12.5,30.4c0.9,0.5,1.7,1.1,2.3,1.5c3.2,2.2,5.1,4.1,6.2,5.3
			c1.4-2.5,4.1-5,5.2-7c4-7.3,7.1-15.9,6.1-23.8C297.9,354.2,295.5,349.9,294.6,348.2z"/>
		<path fill="#FFFFFF" d="M283,402.9c3.6-6.5,8.7-13.3,8.7-13.3l1,0.2c0,0,2.4,7.5,1.3,14.9l-0.7,3.2l-1.2,3c-3,6.9-7.9,12.4-8,12.4
			l-0.9,0c0,0,0-0.1-0.1-0.2c-0.4-0.6-2-2.6-3.5-4.2l-1.5-1.3l-0.6-0.4l-0.2-0.7C278.3,413.4,280.5,407.5,283,402.9z M283.5,403.2
			c-2.5,4.5-4.7,10.4-5.8,13.5c0.2,0.1,0.5,0.3,0.7,0.4c2.3,1.6,5.3,5.8,5.3,5.8s6.4-7.1,9-15.2c2.6-8.1-0.5-17.7-0.5-17.7
			S287.1,396.8,283.5,403.2z"/>
		<path d="M257.9,331c2.6-10.1,9.5-18.3,11.2-19.6c0,0-10.8,14.4-7.7,37.1c0,0,3-18.6,17-36.8c14-18.2,27.5-26.8,38.6-40.4
			c6.2-7.6,9.7-14.8,11.8-21.4c1.7-4.9,2.5-9.7,2.8-13.2c-3,0.3-5.9,0.6-8.8,0.9c0,0.1,0,0.2-0.1,0.3c-2.9,9.7-8.5,16.7-17.5,20.8
			c-11.7,11.9-29.1,20.2-38.8,26.4c-17.2,11-20,32.7-20,32.7c1.9-33.3,22.3-37.6,44.6-53.9c0.5-0.3,1.6-1,2-1.3l-0.7,0.3
			c-2.8,0-8.5-0.5-11.1-1.1c-2.4,1.7-4.8,3.1-7,4.3c-11.7,6.4-19.8,16.8-19.8,16.8c3.2-10.5,10.5-15,21.6-22.8
			c-4.1-1.7-8.8-4.6-12-7.7c-6.5,3.4-20.9,12.1-30.5,21.2c-7.7,7.3-21.9,17.5-38.7,25.5c13.2-8.7,35.5-28.4,43.3-35.9
			c0,0-29.3,16.9-37.7,22.6c0,0,10.9-12,24.4-19.5c0,0-29.8,12.2-47,24c-8.9,6.1-22.5,18.4-30.3,26.8c3.2-0.7,15.5-3.2,18.8-3.5
			c22.1-2.3,46.2-0.6,67.3-26c0.3-0.4,0.7-0.8,1-1.2c-1.8,6.3-2.6,15.1-2.3,24.9c0.8,21.2,17.3,29.6,23.7,34.1
			C256,342.7,255.6,340.1,257.9,331"/>
		<path fill="#FFFFFF" d="M260.1,220.7C260.1,220.7,260.1,220.7,260.1,220.7c0,0,10.6,3.1,17,8c0,0-7-1.4-14.1-2.3
			c5.1,7.6,13.8,12.6,23.6,12.6c7.5,0,14.2-2.9,19.3-7.6c-1.2,0.9-2.4,1.5-3.3,1.9c-2.4,1.2-4.8,1.6-6.6,1.7
			c-4.1,1.3-8.1,0.7-9.2,0.5c0.1,0,0.2-0.1,0.3-0.1c12.2-2.1,23.6-11.5,22.4-25.7c-0.6-6.1-2.4-12.6-6.3-16.7
			c4.8,4.1,8.1,9.9,8.7,16.6c0.3,3.3-0.1,6.5-1,9.5c1.6-3.4,2.5-7.1,2.5-11c0.9,4.2,0.6,7.8-0.4,10.8c1.2-3,1.9-6.3,2-9.8
			c0.1,0.4,0.1,0.8,0.2,1.2v-0.1c0-2.1-0.2-4.1-0.6-6l0-0.3c-1.6-10.6-9.4-20.8-19.4-25.2c-3-1.6-12-4.9-21.8-5.8
			c-4.4-0.5-9.2-0.4-15,0.2c-2.6,0.3-5.1,0.6-7.6,0.9c-13.3,1.7-25.9,3.3-39.3-4.2c-16.7-8.4-29-27.2-31.4-47.8l-0.3-2.2
			c-0.3-2.8-0.5-5.8-0.6-8.7c-0.2-2.6-0.7-4-0.8-3.6c0,0.2,0,0.4,0,0.6c0,2.2-0.5,4.4-0.9,6.5c-0.4,2.6-0.9,7.4-1,7.2
			c0-0.2-0.1-0.4-0.1-0.6c-0.1-0.7-0.1-1.4-0.1-2.1c0-1.4,0-2.9-0.1-4.3c-0.2-3.6-0.8-14.1-1.1-15.4c-0.1-0.3-0.2-1.5-0.6-1.8
			c0,1.2,0,2.5-0.1,3.7c-0.1,3.2-0.9,7-1.2,10.2c-0.3,3.2-0.9,6.4-1.3,9.6c-0.1,0.9-0.3,2.6-0.4,2.4c0-0.1,0-0.1,0-0.2
			c-0.2-2-0.7-8.3-0.6-15.5l0-1.5c0,0.3-0.1,0.6-0.1,0.8c-1.2,6.9-2.6,16.5-2.7,26.9c0,0.3,0,1.2,0,1.6c-0.1,3.2,0.1,16.6,5.8,31.4
			c8.8,22.5,25.7,37.4,50.5,44.3C236.7,215.2,250.5,217.8,260.1,220.7"/>
		<path d="M241.3,220.3c-1-0.2-2-0.5-3-0.7c-2-0.5-4-1-6.1-1.5c-2.2-0.5-4.5-1-6.7-1.6c-0.1,0.6-0.2,1.1-0.3,1.7c-0.3,2-0.6,4-0.8,6
			c5.1-1.3,11-2.7,16.8-3.7c0.1,0,0.3,0,0.4-0.1C241.5,220.4,241.4,220.3,241.3,220.3"/>
		<path fill="#FFFFFF" d="M255.8,146.8c-18.8-11.6-23.4-22.6-26.3-38.4c-0.5-2.5-1.1-5-1.7-7.2c0.5,6,0.1,11.6,0.1,11.6
			c-0.7-5.8-4.3-15.9-4.3-15.9c1.4,6.5,1.8,17,1.8,17c-0.4-3.7-2-9.4-3.2-13.5c0.4,2.9,0.8,5.6,1.1,7.9c1,7.8-0.9,21.7,4.6,36.2
			c3.6,9.4,11.3,16.3,15.9,19.8C247.5,158.9,252.4,151.9,255.8,146.8"/>
		<path fill="#FFFFFF" d="M319.6,210.9C319.6,211,319.6,211,319.6,210.9c0,0.6,0,1.1-0.1,1.7v0c0,0.5-0.1,1.1-0.1,1.6
			c-0.6,4.9-2.2,9.5-4.7,13.6c-0.3,0.4-0.6,0.9-0.9,1.3c0,0,0,0,0,0c-0.3,0.4-0.6,0.8-0.9,1.3c0,0,0,0,0,0c-0.3,0.4-0.6,0.8-0.9,1.2
			c0,0,0,0.1-0.1,0.1c-0.3,0.4-0.6,0.7-1,1.1c0,0-0.1,0.1-0.1,0.1c-0.3,0.3-0.6,0.7-1,1c0,0-0.1,0.1-0.1,0.1c-0.3,0.3-0.6,0.6-1,0.9
			c-0.1,0.1-0.1,0.1-0.2,0.2c-0.3,0.3-0.7,0.6-1,0.9c-0.1,0.1-0.2,0.1-0.2,0.2c-0.3,0.3-0.7,0.5-1,0.8c-0.1,0.1-0.2,0.1-0.3,0.2
			c-0.3,0.2-0.7,0.5-1,0.7c-0.1,0.1-0.2,0.2-0.4,0.2c-0.3,0.2-0.6,0.4-1,0.6c-0.1,0.1-0.3,0.2-0.4,0.2c-0.3,0.2-0.6,0.4-0.9,0.5
			c-0.2,0.1-0.3,0.2-0.5,0.3c-0.3,0.2-0.6,0.3-0.9,0.5c-0.2,0.1-0.4,0.2-0.5,0.2c-0.3,0.1-0.6,0.3-0.9,0.4c-0.2,0.1-0.4,0.2-0.6,0.2
			c-0.3,0.1-0.6,0.2-0.9,0.3c-0.2,0.1-0.4,0.2-0.7,0.2c-0.3,0.1-0.6,0.2-0.8,0.3c-0.2,0.1-0.5,0.1-0.7,0.2c-0.3,0.1-0.5,0.2-0.8,0.2
			c-0.3,0.1-0.5,0.1-0.8,0.2c-0.3,0.1-0.5,0.1-0.8,0.2c-0.3,0.1-0.6,0.1-0.8,0.2c-0.3,0-0.5,0.1-0.8,0.1c-0.3,0-0.6,0.1-0.9,0.1
			c-0.2,0-0.5,0.1-0.7,0.1c-0.4,0-0.8,0.1-1.2,0.1c-0.2,0-0.3,0-0.5,0c-0.6,0-1.1,0-1.7,0c-12.8,0-24.5-7.6-29.9-19.1
			c-1.6-0.5-3.4-1-5.2-1.4c-3,0.4-6.3,0.8-9.7,1.4c-6.3,1.1-12.8,2.7-18.1,4c-0.3,2.8-0.7,7.3-0.7,7.7c-0.8,15.9,0.2,14.8,0.2,14.8
			c4.6-1.8,21.6-6.2,21.6-6.2c5-1.2,10.9-2.4,17.8-3.7c4.9,9.8,15,16.6,26.7,16.6c14.6,0,26.7-10.5,29.3-24.4
			c31.9-3.5,47-3.6,66.7-0.9c0,0,0,0,0-0.1v0c0-0.1-0.3-1.2-0.3-1.3c0-0.2-0.1-0.4-0.1-0.7c0-0.1,0-0.2-0.1-0.3
			c-0.1-0.2-0.1-0.5-0.2-0.8c0-0.1-0.1-0.2-0.1-0.4c-0.1-0.3-0.1-0.6-0.2-0.9c0-0.1-0.1-0.3-0.1-0.4c-0.1-0.3-0.2-0.6-0.2-1
			c0-0.2-0.1-0.3-0.1-0.5c-0.1-0.4-0.2-0.7-0.3-1.1c0-0.2-0.1-0.3-0.1-0.5c-0.1-0.4-0.2-0.8-0.3-1.2c-0.1-0.2-0.1-0.4-0.2-0.5
			c-0.1-0.4-0.3-0.9-0.4-1.3c0-0.2-0.1-0.4-0.2-0.6c-0.1-0.5-0.3-1-0.4-1.4c-0.1-0.2-0.1-0.4-0.2-0.6c-0.2-0.5-0.3-1.1-0.5-1.6
			c0-0.2-0.1-0.3-0.2-0.5c-0.2-0.6-0.4-1.3-0.7-1.9c0-0.1-0.1-0.2-0.1-0.3c-0.3-0.9-0.7-1.9-1.1-2.9c-3.5-0.7-14.8-2.4-28.7-2.4
			C338,209,322.7,210.6,319.6,210.9"/>
		<path fill="#FFFFFF" d="M370.3,250.3c1,1.2,2.8,3.7,2.9,4.6c0,0.1,0,0.4,0,0.7c0,0,0,0.1,0,0.2c0,0,0,0,0,0
			c-0.1,1.4-0.8,7.7-2.2,9.5c-0.2,0.4-0.5,0.7-0.8,1c-1.7,1.6-4.6,3.1-10.2,6.9c-6.1,4.2-10.9,12.9-10.9,12.9s1.7-8.2,5.5-12.9
			c4.7-5.8,10.8-9.6,14.5-11.6l1.7-7.6c-1.3-0.9-2.9-1.7-4.5-2c-3.3-0.6-8.8-0.5-12.2-1.6c0,0,0-0.1,0-0.1c4-0.5,6.4-1.7,12.4-2.7
			c6-1,10.6,0.8,10.6,0.8C373.2,248.7,370.3,250.3,370.3,250.3 M389.9,247c-5.7,2.3-19.1-1.8-27.5-2.4c-8.4-0.6-14.2,3.3-14.2,3.3
			c-2.3-5.7,0.4-13.5,0.4-13.5c-1.7,0-8,0.8-9.8,0.9c0,0.1-0.7,0.2-1.6,0.3c0,0.2,0,0.4,0,0.6c0,0-2.6,20.3-12.3,33.5
			c2.5,1.4,8.9,3.3,11.1,5.3c4.2,3.8,4.4,9.3,4.2,11.4c-0.2,2.2-0.5,6-2.5,13.7c0,0-0.5-11-1.5-14.3c-1-3.2-4.7-6.3-8.2-7.3
			c-1.6-0.5-4.6-1.3-7.8-2c-6.3,7.3-12.7,12.3-18.7,17.6c0.6,1,1.5,1.8,2.8,2.2c3.6,0.9,8.2-1.2,8.2-1.2s-2.9,13.4,4.8,24.9
			c5.7,8.5,16.8,6.3,16.8,6.3s2.4-16.9,12.9-30.4c9.7-12.5,21.5-18.9,29.8-21.3c-0.3-1.5-0.8-4.7-0.2-6.2c0.8-2.1,3.1-3.9,5.8-3.9
			c2.8,0,5.9,1.5,5.9,1.5c-1.5-0.3-5.3-0.5-7.3,1.6c-1.5,1.6-0.8,4.8-0.4,6.2c7.6-1.4,14.6-0.5,15.9-0.1c1.4,0.4,2.7,0.1,3.2-1.7
			c0.5-1.8,0.5-3.9-0.5-4.7c-1-0.7-2.5-1-4.1-2.1c-1.6-1.2-2.9-4.1-2.7-8.3C392.4,252.8,389.9,247,389.9,247"/>
		<path fill="#FFFFFF" d="M354.3,234.7c-2.9,2-2.3,7.9-2.3,7.9s2.4-2.5,8.2-3.9c5.8-1.5,13.5-0.4,13.5-0.4c-4.4,0.9-6.9,2.4-6.9,2.4
			c8.3,1.1,9.7,3.7,20.8,3c11-0.8,12.4-11.2,12.4-11.2s-2.6,1.2-8.3,2.5c-5.7,1.3-17.2-0.5-20.7-0.9
			C367.6,233.5,357.3,232.7,354.3,234.7"/>
		<path d="M244.8,170.7c1.8-0.2,3.6-0.4,5.4-0.7c2.5-0.3,5.1-0.7,7.7-0.9c6.2-0.6,11.2-0.7,15.9-0.2c9.3,0.8,18.3,3.8,22.5,5.8
			c11.8,5,21.1,17,22.8,29.6l0,0c0.1,0.3,0.1,0.7,0.2,1c0,0.1,0,0.3,0.1,0.4c0.1,0.4,0.1,0.9,0.2,1.4c0,0,0,0,0,0
			c2.9-0.3,18.3-2.1,31.2-2c11.5,0.1,21.6,1.3,26.5,2.1c-5-11.2-12.8-24.3-24.5-35.5c-26.5-25.2-59.4-37.2-86.7-38.4
			c0,0-0.4,4.9-3.4,11.2c-1.1,2.2-2.4,4.6-4.2,7c-2.6,3.5-7.7,10.6-12.5,17.8C245.6,169.5,244.8,170.7,244.8,170.7"/>
		<path d="M261.5,248.5c-0.4-0.6-0.9-1.2-1.3-1.8l-0.9-0.8c-3,0.6-43.8,6-93,39.1c-16.3,11-36.3,30.4-46.2,41.3
			c4.2-1.8,13.4-5.7,20.6-7.9c7.4-7.6,19.5-19.8,30.6-27.6C196.9,272.8,240.9,254.1,261.5,248.5"/>
		<path d="M381.1,301.8c12.7-8.4,23.7-11.2,23.7-11.2s-0.4-6.9-7.4-13.4c0,0-10.5-3-23.7,3.1c-13.2,6-25.8,18-31.2,30.4
			c-5.4,12.4-5.8,25.5-6.4,35.2c-0.6,9.7,1,24.1-2.8,37.1c0,0,6.2-9.2,8.5-35.2c2-23.6,7.9-39.8,18.7-47.4c0,0-8.7,12-11.6,31.7
			c-3,19.7-2.4,27.4-6,43.7l-0.9,3.1c0,0,8.7-11.6,13.4-41.9c4.1-26.5,11.9-38.3,22.5-44.5c0,0-14.2,15.5-17.5,37.6
			C360.3,330.2,368.4,310.2,381.1,301.8"/>
		<path fill="#FFFFFF" d="M310.5,320.9c-4-5.8-6.7-17.5-6.7-17.5s-5-0.1-7.9-4.1c-0.5,0.5-1,1-1.5,1.5c0,0,4.5,6.2,7.2,17.9
			c2.1,8.9-3.5,23.3-3.5,23.3s2.9,7.3,4.2,16.1c0.2-0.1,0.4-0.2,0.5-0.3c0,0,15.5-8.2,23.8-11.7c1.3-0.6,3-1.2,4.8-1.8
			c0.2-3.5,0.5-8.3,1.2-12.7c-1.6,0-3.1,0.1-4.3,0.1C319.8,331.7,314.5,326.8,310.5,320.9"/>
		<path fill="#FFFFFF" d="M395.6,331.5c-4.2-0.1-20.8-0.6-31.1-0.6h-0.1c-1,1.6-1.9,3.3-2.8,5.8c2.9-0.6,5.7-1.1,8.2-1.4
			c14-2.1,25.6-2.5,27.4-2.7c1.9-0.2,5.2-0.1,6.5-1.1C403.7,331.4,399.8,331.7,395.6,331.5"/>
		<path fill="#FFFFFF" d="M400.5,314.5c-3-1.2-8-0.9-8-0.9s3.8-9.4,3.4-14.5c0,0-22.3,9.6-28.7,27.3c0,0,13.4,0.3,20.9,1.2
			c7.5,0.9,12.4,0.9,14,1c1.7,0.1,5.1,0.3,4-5.8C405.1,316.7,403.5,315.7,400.5,314.5"/>
		<g>
			<path d="M208.7,311.9l-0.4,0c0,0,6.3,3.3,11.4,3.3c5.2,0,9.4-1.7,9.4-1.7s-0.9-12.2,0.3-16.2
				C229.4,297.4,219.6,309.2,208.7,311.9"/>
			<path d="M279.6,366.1c-3-2.3-11.5-8.6-16.8-11.5c-6.4-3.6-13.4-7.5-16.2-9.9c0,0-0.1,11.3,5.5,19.9c4.1,6.4,15.3,12.3,22.6,16.6
				C275.4,378.8,277.1,372.7,279.6,366.1"/>
			<path d="M265.9,352c5.3,3.3,11.7,7.3,15.3,10.1c0.9-2.1,1.8-4.1,2.8-6c5.7-11.2,11.2-15.2,13.5-26.9c2.2-11.7-3.3-20.6-7.6-25
				c0,0-12.7,13.9-17.7,25.2C267.7,339.5,266.1,347.6,265.9,352"/>
			<path d="M279.5,404.1c0,0,2.8-4.9,5.9-10.4c-1.9-1.7-4.6-3.6-7.8-5.6c-2.9-1.8-8-4.3-12.3-6.8c0,2.4,0.3,8.4,3.7,13.3
				C273.2,400.9,279.5,404.1,279.5,404.1"/>
			<path d="M294.6,348.2c-0.9,1.5-2.4,3.8-3.3,5c-2.8,3.8-9.6,18.7-12.5,30.4c0.9,0.5,1.7,1.1,2.3,1.5c3.2,2.2,5.1,4.1,6.2,5.3
				c1.4-2.5,4.1-5,5.2-7c4-7.3,7.1-15.9,6.1-23.8C297.9,354.2,295.5,349.9,294.6,348.2"/>
			<path d="M283.5,403.2c-2.5,4.5-4.7,10.4-5.8,13.5c0.2,0.1,0.5,0.3,0.7,0.4c2.3,1.6,5.3,5.8,5.3,5.8s6.4-7.1,9-15.2
				c2.6-8.1-0.5-17.7-0.5-17.7S287.1,396.8,283.5,403.2"/>
		</g>
		<path fill="#000002" d="M366.6,247.7c-6,1-8.4,2.2-12.4,2.7c0,0,0,0,0,0.1c3.4,1.1,8.9,1,12.2,1.6c1.6,0.3,3.2,1.2,4.5,2l-1.7,7.5
			c-3.8,2-9.9,5.8-14.5,11.6c-3.8,4.7-5.5,12.9-5.5,12.9s4.8-8.7,10.9-12.9c5.5-3.8,8.5-5.3,10.2-6.9c0.3-0.3,0.5-0.6,0.8-1
			c1.5-1.8,2.1-8.1,2.2-9.5c0,0,0,0,0,0c0-0.1,0-0.2,0-0.2c0-0.3,0-0.6,0-0.7c-0.1-0.9-1.9-3.4-2.9-4.6c0,0,2.9-1.6,6.9-1.8
			C377.2,248.5,372.6,246.7,366.6,247.7"/>
		<path fill="#FFFFFF" d="M357.1,250.5l3.2,0.4c2.2,0.2,4.4,0.3,6.1,0.6l0,0c1.7,0.3,3.4,1.2,4.7,2.1l0.2,0.6l-1.7,7.5l-0.3,0.4
			c-3.3,1.7-8.3,4.9-12.6,9.4l-1.8,2.1l-1.1,1.6c-1.2,2-2.2,4.3-2.9,6.3l-0.4,1.1l0.4-0.7c1.6-2.2,3.8-5.1,6.3-7.3l2.3-1.8l6.5-4.3
			c0.8-0.5,1.5-1,2.1-1.4l1.4-1.1l0,0l0.7-0.9l0-0.1c1.2-1.5,2-7.8,2.1-9.2v0c0-0.1,0-0.2,0-0.2c0-0.3,0-0.6,0-0.6v0
			c-0.1-0.6-1.8-3.2-2.7-4.3l0.2-0.8c0,0,0.8-0.4,2-0.9l2.2-0.6l-0.5-0.1c-1.8-0.3-4.3-0.4-7,0c-4.5,0.7-6.9,1.6-9.6,2.2
			L357.1,250.5z M373.2,254.9l0,0.7c0,0,0,0.1,0,0.2c0,0,0,0,0,0c-0.1,1.4-0.8,7.7-2.2,9.5c-0.2,0.4-0.5,0.7-0.8,1
			c-1.7,1.6-4.6,3.1-10.2,6.9c-6.1,4.2-10.9,12.9-10.9,12.9s1.7-8.2,5.5-12.9c4.7-5.8,10.8-9.6,14.5-11.6l1.7-7.6
			c-1.3-0.9-2.9-1.7-4.5-2c-3.3-0.6-8.8-0.5-12.2-1.6c0,0,0-0.1,0-0.1c4-0.5,6.4-1.7,12.4-2.7c6-1,10.6,0.8,10.6,0.8
			c-4,0.2-6.9,1.8-6.9,1.8C371.3,251.5,373.1,254,373.2,254.9z"/>
	</g>
	<g id="Layer_33_copy" display="inline">
	</g>
	<g id="Layer_35_copy" display="inline">
	</g>
	<g id="Layer_37_copy" display="inline">
	</g>
	<g id="Layer_39_copy" display="inline">
	</g>
	<g id="Layer_41_copy" display="inline">
	</g>
	<g id="Layer_43_copy" display="inline">
	</g>
	<g id="Layer_48" display="inline">
	</g>
	<g id="Layer_45_copy" display="inline">
	</g>
	<g id="Layer_49_copy_2" display="inline">
	</g>
	<g id="Layer_51" display="inline">
	</g>
	<g id="Layer_53_copy" display="inline">
	</g>
	<g id="Layer_55_copy" display="inline">
	</g>
	<g id="Layer_57_copy" display="inline">
	</g>
	<g id="Layer_59_copy" display="inline">
	</g>
	<g id="Layer_61_copy" display="inline">
	</g>
	<g id="Layer_63_copy" display="inline">
	</g>
	<g id="Layer_64_copy" display="inline">
	</g>
	<g id="Layer_66_copy_2" display="inline">
	</g>
</g>
<g id="color">
	<g id="Layer_5">
	</g>
	<g id="Layer_6">
	</g>
	<g id="Layer_7">
	</g>
	<g id="Layer_11">
	</g>
	<g id="Layer_13">
	</g>
	<g id="Layer_15">
	</g>
	<g id="Layer_17">
	</g>
	<g id="Layer_19">
	</g>
	<g id="Layer_21">
	</g>
	<g id="Layer_23">
	</g>
	<g id="Layer_25">
	</g>
	<g id="Layer_27_copy">
	</g>
	<g id="Layer_31_copy_2">
		<g>
			<path fill="#FFFFFF" d="M376,186.5l-3.1-4.6c-5.6-7.9-12.6-15.9-21.2-23.6c-32.8-29.6-87.1-35.1-89.4-35.3l-5.1-0.5
				c0,0-0.1,7.6-0.6,9.8l0,0.2c-0.2,1.1-0.4,2.1-0.6,3c-6.2-3.9-10.5-7.8-12.6-11.5c-3.9-6.8-5.1-13.1-6.3-19.1
				c-0.9-4.3-1.7-8.3-3.3-12.3C229.4,82.3,223,73.5,215,66.5c-1.5-1.3-2.9-2.6-5.2-2.6c-0.9,0-2.3,0.2-3.7,1.3
				c-1,0.8-3.9,3.8-0.6,8.6c0.1,0.1,5.4,9.9,7.4,23.9c0.2,1.2,0.3,2.4,0.4,3.7l0.1,1.4l-0.6-0.6l-0.1-0.8v0l-0.4-3.6
				c-1.5-10.5-4.9-18.6-6.5-22l-0.9-1.7l0,0l-1-1.8c-1.7-4.1,0.8-6.8,1.8-7.5c1.5-1.2,3-1.5,4-1.5c1.9,0,3.3,0.8,4.5,1.8l1.1,1h0
				l3,2.7c6.7,6.6,12.1,14.5,16,23.6c1.7,4,2.5,8.1,3.4,12.4c1,5.3,2.1,10.7,4.9,16.5l1.3,2.5l0.9,1.4c1.7,2.4,4.3,4.9,7.8,7.4
				l3.1,2.1l0.5-2.1v0l0.1-0.2l0,0c0.4-1.8,0.5-7.9,0.6-9.4c0-0.2,0-0.3,0-0.3l0.6-0.5l5.1,0.5l3.2,0.4c12.4,1.6,57.7,9,86.6,35.1
				c8.6,7.7,15.6,15.8,21.2,23.7l0,0l3,4.3L376,186.5z"/>
			<path fill="#000002" d="M404.1,312.3c-1.7-0.4-6-1.5-6-1.5c3.2-8.9,3.2-14.5,3.2-14.5c2.8-1.5,8.4-3.7,8.4-3.7
				c-1.9-9.9-8.6-17.5-8.6-17.5c0.6-2.1,1.9-5.6,1.9-6.9c0-1.3-2.4-3.5-5-5.2c-2.6-1.7-3-4.7-3-8.2c0-3.5-1.5-8-2.1-8.2
				c-0.6-0.2,6.6-2.5,8.9-8.8c2.2-6.3,2.3-11.5,2.3-11.5c-3,4.3-14.6,6.1-14.6,6.1c-0.9-9.9-8.8-41.7-40.9-70.6
				c-32-28.9-86.6-34.1-86.6-34.1c0.1,1.6-0.1,3.5-0.6,5.6c-0.5,2.7-1.2,5.9-2.6,8.5c-0.1,0.2-0.2,0.3-0.3,0.5
				c-7.5-4.1-15.5-9.6-19.1-16c-7-12.4-6.1-23.1-9.9-31.9c-6.1-14.3-14.9-22.1-17.5-24.4c-1.5-1.3-2-1.7-2.8-1.1
				c-0.8,0.6-0.3,1.5,0.4,2.4c0.6,0.9,6.1,11.5,8.1,25.8c2.1,14.3-0.7,37,6,51.5c4.2,9,11.1,16.2,15.7,20.3c0.2,0.1,0.3,0.3,0.5,0.4
				l1.5,1.5c-9.6,0.9-18.5,0.5-28-4.8c-15.2-7.7-26.9-25.5-29-44.4l-0.3-2.3c-0.6-5.2-0.4-10.3-0.6-15.5c-0.2-4.7-0.7-9.4-1.5-14
				c-0.4-2-0.8-4.1-1.3-6.1c0,0,0,0,0-0.1c-0.2-1.2-0.6-2.4-0.9-3.6c-0.2-0.8-0.5-1.6-0.8-2.4c-0.6-1.8-1.4-3.5-2.4-5.1
				c-1.2-1.9-2.5-3.8-4.1-5.5c-0.9-1-1.9-1.9-3-2.7c0,0-1-0.6-1.7-0.3c0,0-0.9,0.6,0.1,2.6c0,0,0.2,0.4,0.5,1.1
				c0.2,0.4,0.3,0.9,0.5,1.4c0.1,0.5,0.3,1,0.4,1.6c0.8,4.1,1.3,12.9-1.9,29.7l0,0.1c-0.3,2.4-0.6,4.9-1,7.3
				c-1.3,7.9-2.6,16.8-2.9,26.1c0,0.4,0,1.6,0,1.9c-0.1,8.2,1.5,62.4,57.4,79.4c-0.3,1.2-0.5,2.3-0.7,3.4
				c-3.8,23.9-2.4,33.9-2.4,33.9s0,0.1,0,0.2c-11.4,4.3-24.4,10.1-38,17.9c-15.3,8.4-31.8,19.7-48,35.3c-3,2.9-5.9,5.8-8.6,8.7
				c-0.7,0.7-1.3,1.4-2,2.1c0,0-0.1,0.1-0.1,0.1c-8.6,9.2-15,17.7-19.7,24.6c25.3-18.3,64.8-23.7,76.9-24.4
				c12.7-0.7,25.5-2.9,25.5-2.9s5,2.7,11,4c6.8,1.5,13.9-0.7,13.9-0.7c2.5,13.1,11.8,21.5,14.2,23.4c-0.6,4,0,17,4.5,24.2
				c4.8,7.8,12.7,13,12.7,13s-0.6,7.1,1.3,12.1c1.9,5,6.2,9.6,6.2,9.6s-2,3.3-2.2,7.5c-0.3,4.1,2.2,6.5,2.2,6.5s-2.3,2.9-2.6,5.1
				c-0.4,2.3,1,5.7,1,5.7s-1.4,2.5-1.8,4.4c-0.4,1.9,0.7,4.3,0.7,4.3c-0.9,1.8-3.6,10.2,0.4,13.5c4,3.4,9-2.9,9-2.9
				c1.5-0.4,4.4-2.3,5.8-4.5c1.7-2.6,1.7-5,1.7-5s2.1-1.4,4-4.9c1.5-2.9,1.3-4.8,1.3-4.8s8.7-9.1,10.5-20.5
				c1.5-9.7-0.7-18.6-0.7-18.6s6.5-9.9,6.2-21.2c4.4-3.1,15.1-10,28.4-15.2c0.4,7.6,1.6,14.3-0.8,26.5c-3,15.3-16.6,26.5-16.6,26.5
				c19-2,31.7-18.8,36.7-30.9c4.1-9.9,7.8-23.9,9.6-30.2c18.5-3.6,35.5-4.6,41.1-5.4c7.5-1.1,9.3-2.8,9.5-5.6s-0.6-7.8-1.1-11.2
				C409.1,315.7,405.8,312.7,404.1,312.3"/>
			<path fill="#FFFFFF" d="M183.5,118.9l-0.3-3.1c-0.2-3.9-0.1-7.8-0.3-11.7c-0.2-4.7-0.7-9.4-1.5-14c-0.4-2-0.8-4-1.3-6l0-0.1
				l0-0.1c-0.2-1.2-0.5-2.4-0.9-3.6l-0.8-2.4l-1-2.5l-1.3-2.4l0,0l-1.9-2.8l-2.1-2.6l-1.4-1.4l-1.5-1.2l0,0l-0.4-0.2l-0.7-0.1l0,0
				c-0.1,0.1-0.2,0.4-0.1,0.9l0.3,0.9l0,0.1l0.5,1.1l0.5,1.5h0l0.4,1.7v0l0.5,4c0.3,5.1,0,13.2-2.4,25.9l0,0.1l-1,7.3
				c-1.3,7.9-2.6,16.8-2.8,26l0,1.9c-0.1,8.2,1.5,61.9,57,78.9l0.4,0.7l-0.7,3.3l0,0l-1.1,7.8c-2.2,16.9-1.4,24.8-1.3,25.8
				c0,0.1,0,0.1,0,0.1l0,0c0,0,0,0.1,0,0.3l-0.4,0.6c-11.4,4.3-24.3,10.1-38,17.9l0,0c-13.3,7.3-27.6,16.9-41.8,29.6l-6.1,5.6
				l-4.4,4.4c-1.4,1.4-2.8,2.9-4.2,4.3l0,0l-1.9,2.1l0,0l-0.1,0.1l0,0l-4.6,5.1c-4.4,5-8.1,9.7-11.2,14l-2.1,3l2.4-1.6
				c25.4-15.7,60.8-20.6,72.2-21.2c9.5-0.6,19-1.9,23.2-2.6c1.4-0.2,2.2-0.3,2.2-0.3l0.4,0.1c0,0,0.1,0,0.2,0.1
				c1,0.5,5.5,2.7,10.6,3.8c5.8,1.3,11.9-0.2,13.3-0.6c0.2,0,0.3-0.1,0.3-0.1l0.7,0.4c2.5,12.9,11.6,21.3,14,23.1l0.2,0.5
				c-0.6,3.8,0.1,16.8,4.4,23.8c4.1,6.7,10.6,11.5,12.2,12.6c0.2,0.2,0.3,0.2,0.3,0.2l0.2,0.5c0,0,0,0.1,0,0.3
				c-0.1,1.4-0.3,7.3,1.3,11.6c1.6,4.3,5,8.3,5.9,9.3c0.1,0.1,0.2,0.2,0.2,0.2l0.1,0.7c0,0,0,0-0.1,0.1c-0.3,0.5-1.2,2.3-1.7,4.6
				l-0.4,2.5l0,1.3c0.2,2.9,1.8,4.5,2,4.7c0,0,0,0,0,0l0.1,0.7c0,0-0.1,0.2-0.3,0.5c-0.5,0.7-1.3,2-1.8,3.2l-0.4,1.2h0l0,1.2
				c0.1,1.3,0.5,2.8,0.8,3.6c0.1,0.3,0.2,0.6,0.2,0.6l0,0.5c0,0,0,0-0.1,0.1c-0.2,0.4-0.8,1.6-1.3,2.9l-0.4,1.2l-0.1,1
				c0,1,0.4,2,0.6,2.6c0.1,0.2,0.2,0.4,0.2,0.4l0,0.5c-0.9,1.8-3.4,9.8,0.2,12.9c1.7,1.5,3.8,0.8,5.3-0.3c1.6-1.1,2.8-2.5,2.8-2.6
				l0.3-0.2c1.4-0.4,4.2-2.3,5.5-4.2c1.5-2.3,1.6-4.5,1.6-4.7c0,0,0,0,0,0l0.2-0.5c0,0,0,0,0,0c0.2-0.1,2.1-1.5,3.8-4.7
				c1.4-2.7,1.3-4.4,1.3-4.5l0.1-0.4c0,0,0.1-0.1,0.4-0.4c1.4-1.6,6.8-8.1,9.2-16.2l0.8-3.6l0.4-3.1c0.6-7.1-0.7-13.3-1-14.9
				c-0.1-0.3-0.1-0.4-0.1-0.4l0.1-0.4c0,0,0.1-0.1,0.3-0.4c1.2-2,6.1-10.7,5.9-20.5l0.2-0.5c4.5-3.1,15.2-10.1,28.6-15.3l0.8,0.5
				c0.4,7.6,1.6,14.3-0.8,26.7c-2.3,11.6-10.6,20.9-14.6,24.8l-0.8,0.8l1.6-0.3c16.8-3.5,28.1-18.8,32.8-30
				c4.1-9.8,7.8-23.8,9.6-30.1l0.4-0.4c18.6-3.6,35.6-4.6,41.1-5.4c6.5-1,8.4-2.3,8.9-4.2l0.1-0.9l0-2.4c-0.2-2.7-0.7-6.2-1.1-8.7
				c-0.4-2.3-2.3-4.5-3.8-5.6l-1.3-0.7l-6-1.5l-0.4-0.7c2.9-8.3,3.1-13.7,3.1-14.3c0,0,0-0.1,0-0.1l0.3-0.5c1.4-0.8,3.5-1.7,5.3-2.4
				l2.7-1.1l-0.7-2.7c-2.1-7-6.3-12.4-7.4-13.8c-0.2-0.2-0.3-0.3-0.3-0.3l-0.1-0.5c0.6-2.1,1.8-5.7,1.8-6.7c0-0.9-2.1-3-4.8-4.8
				c-2.9-1.9-3.2-5.1-3.2-8.7c0-3.6-1.6-7.6-1.7-7.7l-0.2-0.1l0,0l-0.2-0.3c-0.2-0.7,2.2-1.7,3.8-2.8c1.4-1,3-2.4,4.1-4.3l1-2l0.9-3
				c0.8-2.8,1.1-5.2,1.2-6.7l0-0.1l-0.2,0.2c-3.7,3.1-11.2,4.5-13.2,4.8c-0.3,0.1-0.5,0.1-0.5,0.1l-0.6-0.5
				c-0.9-9.7-8.8-41.5-40.7-70.2c-27.9-25.1-73.1-32.3-83.9-33.7l-1.8-0.2l-0.1,2.1l-0.5,3l0,0l-1,4.3c-0.2,0.7-0.5,1.5-0.8,2.2
				l-1,2.1l-0.3,0.5l-0.7,0.2c-6.6-3.6-13.6-8.3-17.7-13.8l-1.6-2.4l-2.1-4.1c-4.2-9.3-4.6-17.6-6.7-24.5l-1.2-3.3l-2.4-5
				c-5.8-11-12.7-17.2-15-19.2c-1.6-1.4-1.7-1.4-2.1-1.1c-0.3,0.3-0.2,0.6,0.5,1.7c0.6,0.9,4.8,9.1,7.3,20.8l0.9,5.2l0.6,5.8
				c1,14.2-0.4,33,5.4,45.6c4.1,8.9,11,16,15.6,20.1c0.2,0.1,0.3,0.3,0.5,0.4l0,0l1.5,1.5l-0.3,0.9c-8.4,0.8-16.4,0.6-24.7-3
				l-3.6-1.8l0,0l-2.7-1.5c-13.2-7.9-23.2-23.2-26.2-39.8l-0.5-3.6l0,0l-0.3-2.3L183.5,118.9z M410.7,326.7l0.1,1.1
				c0,0.9,0.1,1.8,0,2.5c-0.2,2.8-2,4.5-9.5,5.6c-5.6,0.8-22.6,1.8-41.1,5.4c-1.7,6.3-5.5,20.3-9.6,30.2
				c-5,12.1-17.7,28.9-36.7,30.9c0,0,13.6-11.2,16.6-26.5c2.4-12.3,1.2-18.9,0.8-26.5c-13.3,5.2-24,12.1-28.4,15.2
				c0.3,11.3-6.2,21.2-6.2,21.2s2.3,8.9,0.7,18.6c-1.8,11.4-10.5,20.5-10.5,20.5s0.2,1.9-1.3,4.8c-1.9,3.5-4,4.9-4,4.9s0,2.4-1.7,5
				c-1.4,2.1-4.3,4-5.8,4.5c0,0-5,6.3-9,2.9c-4-3.4-1.3-11.8-0.4-13.5c0,0-1.1-2.4-0.7-4.3c0.4-1.9,1.8-4.4,1.8-4.4s-1.4-3.4-1-5.7
				c0.4-2.3,2.6-5.1,2.6-5.1s-2.5-2.3-2.2-6.4c0.3-4.2,2.2-7.5,2.2-7.5s-4.3-4.6-6.2-9.6c-1.9-5-1.3-12.1-1.3-12.1s-7.9-5.2-12.7-13
				c-4.4-7.2-5.1-20.2-4.4-24.2c-2.4-1.9-11.6-10.3-14.2-23.4c0,0-7.1,2.2-13.9,0.7c-6-1.3-11-4-11-4s-12.8,2.2-25.5,2.9
				c-12.1,0.7-51.6,6.2-76.9,24.4c4.7-6.9,11.1-15.4,19.7-24.6c0,0,0.1-0.1,0.1-0.1c0.6-0.7,1.3-1.4,2-2.1c2.7-2.9,5.5-5.7,8.6-8.7
				c16.2-15.5,32.8-26.9,48-35.3c13.6-7.8,26.6-13.6,38-17.9c0-0.1,0-0.2,0-0.2s-1.4-10.1,2.4-33.9c0.2-1.1,0.4-2.2,0.7-3.4
				c-56-17-57.5-71.2-57.4-79.4c0-0.3-0.1-1.5,0-1.9c0.2-9.3,1.5-18.2,2.9-26.1c0.4-2.4,0.7-4.9,1-7.3l0-0.1
				c3.2-16.8,2.7-25.6,1.9-29.7c-0.1-0.6-0.2-1.1-0.4-1.6c-0.2-0.5-0.3-1-0.5-1.4c-0.3-0.7-0.5-1.1-0.5-1.1c-1-2-0.1-2.6-0.1-2.6
				c0.7-0.4,1.7,0.3,1.7,0.3c1.1,0.8,2.1,1.7,3,2.7c1.6,1.7,2.9,3.6,4.1,5.5c1,1.6,1.8,3.3,2.4,5.1c0.3,0.8,0.5,1.6,0.8,2.4
				c0.4,1.2,0.7,2.4,0.9,3.6c0,0,0,0,0,0.1c0.5,2,0.9,4,1.3,6.1c0.8,4.6,1.3,9.3,1.5,14c0.2,5.2,0,10.4,0.6,15.5l0.3,2.3
				c2.1,18.9,13.8,36.7,29,44.4c9.5,5.3,18.4,5.7,28,4.8l-1.5-1.5c-0.2-0.1-0.3-0.3-0.5-0.4c-4.6-4.1-11.5-11.3-15.7-20.3
				c-6.7-14.5-4-37.2-6-51.5c-2-14.3-7.5-24.9-8.1-25.8c-0.6-0.9-1.1-1.8-0.4-2.4c0.8-0.6,1.3-0.2,2.8,1.1
				c2.6,2.3,11.4,10.1,17.5,24.4c3.7,8.8,2.8,19.4,9.9,31.9c3.6,6.4,11.5,11.9,19.1,16c0.1-0.2,0.2-0.4,0.3-0.5
				c1.4-2.6,2.2-5.8,2.6-8.5c0.5-2.1,0.7-4,0.6-5.6c0,0,54.6,5.2,86.6,34.1c32,28.9,40,60.7,40.9,70.6c0,0,11.6-1.8,14.6-6.1
				c0,0-0.1,5.1-2.3,11.5c-2.2,6.1-9,8.5-8.9,8.8c0,0,0,0,0,0c0.6,0.2,2.1,4.7,2.1,8.2c0,3.5,0.4,6.5,3,8.2c2.6,1.7,5,3.9,5,5.2
				c0,1.3-1.3,4.8-1.9,6.9c0,0,6.7,7.6,8.6,17.5c0,0-5.6,2.2-8.4,3.7c0,0,0,5.6-3.2,14.5c0,0,4.3,1.1,6,1.5c1.7,0.4,5,3.4,5.6,6.7
				c0.3,1.7,0.6,3.8,0.8,5.8L410.7,326.7z"/>
			<path fill="#FFC52F" d="M256.6,343.1l0,0.2c0,0.7,0.1,1.4,0.1,2l-0.9,0.5c-5.9-4.1-21.1-11.9-23.6-30.6l-0.3-3.9l-0.1-6.3
				c0.1-6.1,0.7-11.7,1.7-16.3l0-0.2l-3.5,3.9c-20.3,20.9-43.1,19.6-63.7,21.7c-3.2,0.3-15.5,2.8-18.7,3.5l-0.5-0.9
				c7.9-8.4,21.5-20.8,30.4-26.9c17.3-11.8,47.1-24,47.1-24l0.4,1l0.1,0c-8.8,4.8-16.5,11.7-20.8,15.8l-0.2,0.2l5.4-3.4
				c11.8-7.2,28.3-16.7,28.3-16.7l0.7,0.9c-5.9,5.6-19.9,18.1-32.1,27.6l-5.3,4.1l5.6-3c11.4-6.6,20.8-13.7,26.6-19.1
				c9.7-9.1,24.1-17.9,30.6-21.3l0.6,0.1c3.1,3.1,7.7,5.9,11.8,7.6l0.1,1c-9.7,6.9-16.4,11-20,18.9l-0.3,0.8l3.5-3.7
				c2.6-2.6,6.1-5.6,10.1-8.3l4.2-2.6c2.2-1.2,4.5-2.7,7-4.3l0.4-0.1c1.3,0.3,3.3,0.6,5.4,0.8l5.4,0.3l0.2,0l0,0l0.5-0.2l0.5,1
				l-2,1.3l0,0l-7.3,5c-16.6,10.9-30.9,17.2-35.6,37.4l-0.5,2.5l1.4-3.9c2.5-6,6.7-13.1,13.5-18.5l3.1-2.2l8.5-5.1
				c9.5-5.5,21.5-12.4,30.2-21.3l0.2-0.1c7.7-3.5,12.9-9.2,16-17l1.2-3.4l0,0l0-0.2l0.5-0.5c2.9-0.3,5.8-0.6,8.8-0.9l0.6,0.6
				c-0.3,2.7-0.8,6-1.7,9.6l-1.1,3.6l0,0l-1.9,5.1c-2.2,5.2-5.3,10.8-10,16.5c-9.8,12-21.3,20-33.4,34l-5.2,6.4l-2.3,3.2
				c-11.1,15.9-14.2,31.3-14.5,33.2c0,0.1,0,0.2,0,0.2l-1.1,0c-2-14.3,1.5-25.4,4.5-31.7l0.3-0.7l-1.4,2c-2.2,3.4-4.6,8-5.9,12.9
				c-1.2,4.6-1.7,7.5-1.8,9.6L256.6,343.1z M252.8,343.1l3.3,2.2c-0.2-2.6-0.6-5.2,1.8-14.4c2.6-10.1,9.5-18.3,11.2-19.6
				c0,0-10.8,14.4-7.7,37.1c0,0,3-18.6,17-36.8c14-18.2,27.5-26.8,38.6-40.4c6.2-7.6,9.7-14.8,11.8-21.4c1.7-4.9,2.5-9.7,2.8-13.2
				c-3,0.3-5.9,0.6-8.8,0.9c0,0.1,0,0.2-0.1,0.3c-2.9,9.7-8.5,16.7-17.5,20.8c-11.7,11.9-29.1,20.2-38.8,26.4
				c-17.2,11-20,32.7-20,32.7c1.9-33.3,22.3-37.6,44.6-53.9c0.5-0.3,1.6-1,2-1.3l-0.7,0.3c-2.8,0-8.5-0.5-11.1-1.1
				c-2.4,1.7-4.8,3.1-7,4.3c-11.7,6.4-19.8,16.8-19.8,16.8c3.2-10.5,10.5-15,21.6-22.8c-4.1-1.7-8.8-4.6-12-7.7
				c-6.5,3.4-20.9,12.1-30.5,21.2c-7.7,7.3-21.9,17.5-38.7,25.5c13.2-8.7,35.5-28.4,43.3-35.9c0,0-29.3,16.9-37.7,22.6
				c0,0,10.9-12,24.4-19.5c0,0-29.8,12.2-47,23.9c-8.9,6.1-22.5,18.4-30.3,26.8c3.2-0.7,15.5-3.2,18.8-3.5
				c22.1-2.3,46.2-0.6,67.3-26c0.3-0.4,0.7-0.8,1-1.2c-1.8,6.3-2.6,15.1-2.3,24.9c0.6,15.9,10,24.6,17.4,29.9L252.8,343.1z"/>
			<path fill="#FFC52F" d="M208.6,311.3l2.9-0.9c6.8-2.7,13-8.5,15.8-11.5c1.1-1.1,1.7-1.9,1.7-1.9l1,0.5c-1,3.3-0.4,13.1-0.3,15.4
				c0,0.3,0,0.5,0,0.5l-0.4,0.5c0,0-4.3,1.7-9.6,1.7c-5.4,0-11.7-3.3-11.7-3.3l0.2-1L208.6,311.3L208.6,311.3z M208.7,311.9l-0.4,0
				c0,0,6.3,3.3,11.4,3.3c5.2,0,9.4-1.7,9.4-1.7s-0.9-12.2,0.3-16.2C229.4,297.4,219.6,309.2,208.7,311.9z"/>
			<path fill="#FFFFFF" d="M177.3,113.1l0.5-3.1l0.1-1.6l0,0l0-0.7l0.1-0.2l0,0l0.5-0.3c0.8,0,1.1,2.2,1.3,4.2v0
				c0.2,2.9,0.3,5.9,0.6,8.7l0.3,2.2c2.3,20.4,14.6,39,31,47.3l0,0c13.3,7.4,25.7,5.9,39,4.2l7.6-0.9l6.2-0.5c1.9-0.1,3.8-0.1,5.5,0
				l3.4,0.3h0l3.7,0.4c6.3,0.9,12,2.7,15.6,4.1l2.8,1.2l0,0l3.7,1.9c8.3,5.2,14.6,14.2,16,23.7v0.1l0,0.2v0.1h0l0.5,2.9
				c0.1,1,0.2,2.1,0.2,3.1h-0.3l-0.1,1.5c-0.3,2.6-0.9,5-1.8,7.4l-0.5-0.2l-0.5-0.2l-0.1,0c0.5-1.5,0.8-3.1,0.9-4.9l0-0.5l-0.1,0.5
				c-0.4,1.9-1.1,3.7-1.9,5.4l-0.5-0.2l-0.4-0.2l-0.1,0c0.9-2.9,1.3-6.1,1-9.3c-0.4-4.1-1.8-7.9-3.9-11.1l-0.1,0l0.7,1.8
				c1,3,1.6,6.2,1.9,9.2c1.2,12.9-7.8,21.8-18.4,25.2l-1.2,0.3l2.5-0.2c0.9-0.1,1.9-0.3,2.9-0.6l0.1,0c1.3-0.1,3-0.3,4.7-0.9
				l1.7-0.7l1.5-0.8c0.5-0.3,1.1-0.7,1.7-1.1l0.3,0.5l0.3,0.4l0.1,0c-5.2,4.8-12.1,7.7-19.7,7.7c-10,0-18.9-5.1-24.1-12.9l0.5-0.9
				c3.6,0.4,7.1,1,9.7,1.5l1.8,0.3l-0.1-0.1c-5.4-3.4-12.4-5.7-14.2-6.3l-0.4-0.1l0,0c-7.2-2.2-16.7-4.2-26.2-6.5l-9.4-2.5h0
				l-4.6-1.4c-21-7-36-20.2-44.6-39.4l-1.6-3.9v0l-1.5-4.1c-3.1-9.5-4.1-18.1-4.3-23.3l-0.1-4.2v0l0-1.6c0.1-7.8,0.9-15.2,1.8-21.3
				l0.9-5.7l0,0l0.1-0.8l0.1,0l1,0.2l0-0.1l0.1,0l0,1.5v0c0,3.6,0.1,6.9,0.2,9.7l0.1,0.9l0.3-2.2c0.2-1.6,0.5-3.2,0.6-4.8
				c0.3-3.2,1-7.1,1.2-10.2c0.1-1.2,0.1-2.5,0.1-3.7l0.8-0.5c0.7,0.4,0.8,2,0.8,2.1c0.3,1.5,0.9,11.9,1.1,15.5l0,1.4l0.2-1.6l0,0
				L177.3,113.1z M179.4,115.1l-0.2-3.7c-0.2-2.3-0.6-3.7-0.7-3.7c0,0,0,0,0,0c0,0.2,0,0.4,0,0.6c0,2.2-0.5,4.4-0.9,6.5l-1,7.2h0
				c0-0.2-0.1-0.4-0.1-0.6c-0.1-0.7-0.1-1.4-0.1-2.1c0-1.4,0-2.9-0.1-4.3c-0.2-3.6-0.8-14.1-1.1-15.4c-0.1-0.3-0.2-1.5-0.6-1.8
				c0,1.2,0,2.5-0.1,3.7c-0.1,3.2-0.9,7-1.2,10.3c-0.3,3.2-0.9,6.4-1.3,9.6l-0.3,2.2l-0.1,0c-0.2-2-0.7-8.3-0.6-15.5l0-1.5
				c0,0.3-0.1,0.6-0.1,0.8c-1.2,6.9-2.6,16.5-2.7,26.9c0,0.3,0,1.2,0,1.6c-0.1,3.2,0.1,16.6,5.8,31.4c8.8,22.5,25.7,37.4,50.5,44.3
				c12.3,3.5,26,6.1,35.6,9l0,0c0,0,0,0,0,0s10.6,3.1,17,8.1c0,0-7-1.4-14.1-2.3c5.1,7.6,13.8,12.6,23.6,12.6
				c7.5,0,14.2-2.9,19.3-7.6c-1.2,0.9-2.4,1.5-3.3,1.9c-2.4,1.2-4.8,1.6-6.6,1.7c-4.1,1.3-8.1,0.7-9.2,0.5c0.1,0,0.2,0,0.2-0.1
				c12.2-2.1,23.6-11.5,22.4-25.7c-0.6-6.1-2.4-12.6-6.3-16.7c4.8,4.1,8.1,9.9,8.7,16.6c0.3,3.3-0.1,6.5-1,9.5c1.5-3.3,2.5-7,2.5-11
				c0.9,4.2,0.6,7.8-0.4,10.9c1.2-3,1.9-6.3,2-9.8l0.2,1.1h0c0-2.1-0.2-4.1-0.6-6l0-0.3c-1.6-10.6-9.4-20.8-19.4-25.2
				c-3-1.5-12-4.9-21.8-5.8c-4.4-0.5-9.2-0.4-15,0.2c-2.6,0.3-5.1,0.6-7.6,0.9c-13.3,1.7-25.9,3.3-39.3-4.2
				c-16.7-8.4-29-27.2-31.4-47.8l-0.3-2.2c-0.2-1.4-0.3-2.9-0.4-4.4L179.4,115.1z"/>
			<path fill="#FFC52F" d="M280.1,366.3c-2.5,6.6-4.1,12.7-4.8,15l-0.8,0.3c-7.3-4.4-18.6-10.2-22.8-16.8
				c-5.6-8.8-5.6-20.1-5.6-20.2l0.9-0.4c2.6,2.3,9.6,6.3,16.1,9.8c5.3,2.9,13.8,9.3,16.8,11.6L280.1,366.3z M279.6,366.1
				c-3-2.3-11.5-8.6-16.8-11.5c-6.4-3.6-13.4-7.5-16.2-9.9c0,0-0.1,11.3,5.5,19.9c4.1,6.4,15.3,12.3,22.6,16.6
				C275.4,378.8,277.1,372.7,279.6,366.1z"/>
			<path fill="#FFC52F" d="M266.8,343.1l0.1-0.4c1-3.9,2.5-8.5,4.7-13.5c5-11.5,17.8-25.3,17.8-25.4l0.8,0c4.3,4.5,10,13.6,7.7,25.5
				c-2.2,11.8-7.9,15.9-13.5,27c-1,1.9-1.9,4-2.7,6l-0.9,0.2c-3.5-2.8-9.9-6.8-15.2-10.1l-0.3-0.5c0.1-1.1,0.2-2.4,0.5-4
				L266.8,343.1z M273.5,326.7l-1.4,2.7c-4.4,10.1-6,18.2-6.2,22.6c5.3,3.3,11.7,7.3,15.3,10.1c0.9-2.1,1.8-4.1,2.8-6
				c5.7-11.2,11.2-15.2,13.5-26.9c2.2-11.7-3.3-20.6-7.6-25c0,0-9.7,10.6-15.5,20.9L273.5,326.7z"/>
			<path fill="#FFC52F" d="M241.5,219.8l0.3,0.1l-0.1,1.1l-0.4,0.1l0,0l-8.6,1.7c-2.8,0.6-5.6,1.3-8.1,2l-0.7-0.6c0.2-2,0.5-4,0.8-6
				l0,0c0.1-0.5,0.2-1.1,0.3-1.7l0.7-0.4c2.2,0.5,4.5,1,6.7,1.6l6.1,1.5h0L241.5,219.8L241.5,219.8z M241.3,220.3
				c-1-0.2-2-0.5-3-0.7c-2-0.5-4-1-6.1-1.5c-2.2-0.5-4.5-1-6.7-1.6c-0.1,0.6-0.2,1.1-0.3,1.7c-0.3,2-0.6,4-0.8,6
				c5.1-1.3,11-2.7,16.8-3.7c0.1,0,0.3,0,0.4-0.1C241.5,220.4,241.4,220.3,241.3,220.3z"/>
			<path fill="#FFFFFF" d="M247.2,160.1l-3.1,4.4l-0.8,0.1c-4.1-3.1-10.6-8.8-14.6-16.6l-1.5-3.5l-1.6-4.8
				c-3.1-11.1-2.5-21.4-2.8-28.4l-0.2-3.1l-1.1-7.9l0.1,0l1-0.1l0-0.1l0.1,0l1.6,5.8l-0.1-0.9c-0.3-2.8-0.7-5.8-1.2-8.2l1-0.2l0-0.1
				c0,0,2,5.7,3.4,11l0.1,0.3l0-0.5c0-1.8-0.1-4-0.2-6.2l1.1-0.2c0.3,1.2,0.7,2.3,1,3.6l0.8,3.8c2.8,15.7,7.4,26.5,26,38l0.2,0.8
				c-1.7,2.6-3.7,5.6-5.9,8.7L247.2,160.1z M232.1,152.5l1,1.4c3.5,4.6,7.7,8.1,10.6,10.3c3.8-5.4,8.8-12.4,12.1-17.5
				c-18.8-11.6-23.4-22.6-26.3-38.4c-0.5-2.5-1.1-5-1.7-7.2c0.5,6,0.1,11.6,0.1,11.6c-0.7-5.8-4.3-15.9-4.3-15.9
				c1.4,6.5,1.8,17,1.8,17c-0.4-3.7-2-9.4-3.2-13.5c0.4,2.9,0.8,5.6,1.1,7.9c1,7.8-0.9,21.7,4.6,36.2c0.9,2.4,2,4.6,3.3,6.6
				L232.1,152.5z"/>
			<path fill="#582E90" d="M319.1,234.1l-0.4,1.9c-3.5,12.8-15.3,22.2-29.2,22.2c-10.4,0-19.6-5.3-25.1-13.3l-1.9-3.2l-9.2,1.8
				l-8.2,1.8h0l-2.7,0.7c-3.7,1-10.5,2.8-15.1,4.2l-3.5,1.2l-0.2,0.1l0,0l-0.2,0.1c-0.2,0-0.4-0.1-0.6-0.4c-0.2-0.3-0.3-0.7-0.3-1.6
				c-0.1-0.9-0.1-2.2-0.1-4.4l0.3-9v0l0.7-7.7l0.4-0.5c2.7-0.7,5.6-1.4,8.7-2.1l9.5-1.9l9.7-1.4l0.2,0c1.8,0.5,3.5,1,5.2,1.4
				l0.3,0.3c5.3,11.3,16.8,18.8,29.4,18.8l1.7,0h0l0.5,0h0l1.1-0.1h0c0.2,0,0.4,0,0.7-0.1h0l0.9-0.1l0,0l0.8-0.1
				c0.3,0,0.6-0.1,0.8-0.1h0c0.2-0.1,0.5-0.1,0.8-0.2l0.8-0.2h0l0.8-0.2l0.7-0.2l0,0l0.8-0.3c0.2-0.1,0.5-0.1,0.7-0.2l0,0l0.9-0.3
				l0,0l0.6-0.2h0l0.9-0.4l0.5-0.2h0l0.9-0.5l0,0c0.2-0.1,0.3-0.2,0.5-0.2l0,0l0.9-0.5h0l0.4-0.2c0.3-0.2,0.6-0.4,1-0.6l0,0
				c0.1-0.1,0.2-0.1,0.3-0.2l0,0l1-0.7l0,0l0.3-0.2c0.3-0.2,0.6-0.5,1-0.8c0.1-0.1,0.2-0.1,0.2-0.2v0l1-0.8l0,0l0.2-0.2l0,0l1-0.9
				l0,0c0.1,0,0.1-0.1,0.1-0.1l0,0l1-1v0l0.1-0.1l0,0l0.9-1.1l0.1-0.1l0,0c0.3-0.4,0.6-0.8,0.9-1.2l0,0l0.9-1.2l0,0l0,0l0,0
				c0.3-0.4,0.6-0.8,0.8-1.3c2.5-4,4.1-8.5,4.6-13.3l0.1-1.6l0-0.1c0-0.5,0.1-1.1,0.1-1.6v-0.1l0.5-0.5c2.3-0.3,11.5-1.2,21.3-1.6
				l9.8-0.2l9.9,0.3c9.2,0.5,16.2,1.6,18.9,2.1l0.4,0.3c0.4,1,0.8,2,1.1,2.9c0,0.1,0.1,0.2,0.1,0.3v0l0.7,1.9v0l0.2,0.5v0l0.5,1.6v0
				c0.1,0.2,0.1,0.4,0.2,0.5l0,0c0.2,0.5,0.3,1,0.4,1.4l0,0l0.2,0.6v0l0.4,1.3l0,0l0.2,0.6c0.1,0.4,0.2,0.8,0.3,1.2v0l0.1,0.5l0,0
				l0.3,1.1v0l0.1,0.5l0.2,1l0.1,0.4l0,0l0.2,0.9l0,0l0.1,0.4v0l0.2,0.8l0,0c0,0.1,0,0.2,0.1,0.3l0,0c0,0.2,0.1,0.4,0.1,0.7
				c0,0.1,0.3,1.2,0.3,1.3l0,0c0,0,0,0.1,0,0.1c0,0,0,0,0,0l-0.6,0.6c-17.2-2.3-30.8-2.5-55.3-0.2l-10.8,1.1L319.1,234.1z
				 M310.5,233.3l-0.7,0.7c0,0-0.1,0.1-0.1,0.1c-0.3,0.3-0.6,0.6-1,0.9c-0.1,0.1-0.1,0.1-0.2,0.2c-0.3,0.3-0.7,0.6-1,0.9
				c-0.1,0.1-0.2,0.1-0.2,0.2c-0.3,0.3-0.7,0.5-1,0.8c-0.1,0.1-0.2,0.1-0.3,0.2c-0.3,0.2-0.7,0.5-1,0.7c-0.1,0.1-0.2,0.2-0.4,0.2
				c-0.3,0.2-0.6,0.4-1,0.6c-0.1,0.1-0.3,0.2-0.4,0.2c-0.3,0.2-0.6,0.4-0.9,0.5c-0.2,0.1-0.3,0.2-0.5,0.3c-0.3,0.2-0.6,0.3-0.9,0.5
				c-0.2,0.1-0.4,0.2-0.5,0.2c-0.3,0.1-0.6,0.3-0.9,0.4c-0.2,0.1-0.4,0.2-0.6,0.2c-0.3,0.1-0.6,0.2-0.9,0.3
				c-0.2,0.1-0.4,0.2-0.7,0.2c-0.3,0.1-0.6,0.2-0.8,0.3c-0.2,0.1-0.5,0.1-0.7,0.2c-0.3,0.1-0.5,0.2-0.8,0.2
				c-0.3,0.1-0.5,0.1-0.8,0.2c-0.3,0.1-0.5,0.1-0.8,0.2c-0.3,0.1-0.6,0.1-0.8,0.2c-0.3,0-0.5,0.1-0.8,0.1c-0.3,0-0.6,0.1-0.9,0.1
				c-0.2,0-0.5,0.1-0.7,0.1c-0.4,0-0.8,0.1-1.2,0.1c-0.2,0-0.3,0-0.5,0c-0.6,0-1.1,0-1.7,0c-12.8,0-24.5-7.6-29.9-19.1
				c-1.6-0.5-3.4-1-5.2-1.4c-3,0.4-6.3,0.8-9.7,1.4c-6.3,1.1-12.8,2.7-18.1,4c-0.3,2.8-0.7,7.3-0.7,7.7c-0.4,7.9-0.3,11.6-0.2,13.4
				c0.2,1.7,0.4,1.4,0.4,1.4c4.6-1.8,21.6-6.2,21.6-6.2c5-1.2,10.9-2.4,17.8-3.7c4.9,9.8,15,16.6,26.7,16.6
				c14.6,0,26.7-10.5,29.3-24.4c31.9-3.5,47-3.6,66.7-0.9c0,0,0,0,0-0.1c0-0.1-0.3-1.2-0.3-1.3c0-0.2-0.1-0.4-0.1-0.7
				c0-0.1,0-0.2-0.1-0.3c-0.1-0.2-0.1-0.5-0.2-0.8c0-0.1-0.1-0.2-0.1-0.4c-0.1-0.3-0.1-0.6-0.2-0.9c0-0.1-0.1-0.3-0.1-0.4
				c-0.1-0.3-0.2-0.6-0.2-1c0-0.2-0.1-0.3-0.1-0.5c-0.1-0.4-0.2-0.7-0.3-1.1c0-0.2-0.1-0.3-0.1-0.5c-0.1-0.4-0.2-0.8-0.3-1.2
				c-0.1-0.2-0.1-0.4-0.2-0.5c-0.1-0.4-0.3-0.9-0.4-1.3c0-0.2-0.1-0.4-0.2-0.6c-0.1-0.5-0.3-1-0.4-1.4c-0.1-0.2-0.1-0.4-0.2-0.6
				c-0.2-0.5-0.3-1.1-0.5-1.6c0-0.2-0.1-0.3-0.2-0.5c-0.2-0.6-0.4-1.3-0.7-1.9c0-0.1-0.1-0.2-0.1-0.3c-0.3-0.9-0.7-1.9-1.1-2.9
				c-3.5-0.7-14.8-2.4-28.7-2.5c-12.7-0.1-28,1.5-31,1.8c0,0,0,0,0,0.1c0,0.5,0,1.1-0.1,1.6v0c0,0.5-0.1,1.1-0.1,1.6
				c-0.6,4.9-2.2,9.5-4.7,13.6c-0.3,0.4-0.6,0.9-0.9,1.3c0,0,0,0,0,0c-0.3,0.4-0.6,0.8-0.9,1.3c0,0,0,0,0,0.1
				c-0.3,0.4-0.6,0.8-0.9,1.2c0,0,0,0.1-0.1,0.1c-0.3,0.4-0.6,0.7-1,1.1c0,0-0.1,0.1-0.1,0.1L310.5,233.3z"/>
			<path fill="#F8CADE" d="M338.3,235c0,0-0.1,0.1-0.2,0.3l0.3-0.2L338.3,235z M334.3,326.7L334,327c0,0-10.1,2-16.2-5l-1.2-1.5
				l-1.9-3.3c-3.9-7.8-3.7-15.8-3.3-19.6l0.2-1.3l-1.9,0.6c-1.2,0.3-2.7,0.6-4.2,0.5l-1.5-0.2l0,0l-1-0.4c-0.9-0.5-1.6-1.2-2.1-2
				l0.1-0.7c6-5.4,12.4-10.3,18.7-17.6l0.5-0.2c1.7,0.4,3.2,0.7,4.6,1.1l3.3,0.9l1.4,0.5c3.2,1.4,6.3,4.1,7.2,7.2
				c0.5,1.7,0.9,5.3,1.1,8.5l0.1,2.2l0.3-1.4c0.9-4.4,1.1-7,1.3-8.6c0.2-1.8,0-6.1-2.7-9.6l-1.3-1.4l-1-0.7
				c-2.6-1.7-7.8-3.3-10.1-4.6l-0.2-0.8c8.3-11.5,11.4-28.4,12-32.4l0.1-0.8l0-0.1l0-0.5l0.5-0.6c0.5,0,0.9-0.1,1.1-0.1l0.2,0l0.2,0
				l0.2-0.1c1.7-0.1,8-0.9,9.8-0.9l0.5,0.7c0,0-0.2,0.5-0.4,1.3c-0.5,2.1-1.4,6.5-0.5,10.3l0.3,1l0.5-0.3c2.1-1.1,7.1-3.3,13.5-2.8
				c8.5,0.6,21.8,4.6,27.3,2.4l0.7,0.3c0,0,2,4.4,2.4,8.5l0.1,1.7c-0.1,3.1,0.6,5.3,1.6,6.7l1,1.1l1.6,0.9c0.5,0.2,1,0.4,1.5,0.7
				l0.9,0.5l0.4,0.4c0.9,1.2,0.7,3.2,0.3,4.8c-0.6,2.2-2.3,2.5-3.9,2.1c-1.2-0.3-8.2-1.3-15.7,0.1l-0.6-0.4
				c-0.4-1.4-1.3-4.9,0.5-6.7c0.8-0.9,1.9-1.4,3-1.6l1-0.2l-0.5-0.1c-0.6-0.1-1.2-0.2-1.7-0.2c-1.9,0-3.5,1-4.5,2.2l-0.8,1.3l0,0
				l-0.2,1.3c-0.1,1.5,0.2,3.5,0.5,4.7l-0.4,0.6c-8.1,2.4-19.9,8.8-29.5,21.1c-9.1,11.7-12.1,26-12.7,29.4c-0.1,0.5-0.1,0.7-0.1,0.7
				L334.3,326.7z M330.1,326.7c2.3,0.1,3.8-0.2,3.8-0.2s2.4-16.9,12.9-30.4c9.7-12.5,21.5-18.9,29.8-21.3c-0.3-1.5-0.8-4.7-0.2-6.2
				c0.8-2.1,3.1-3.9,5.8-3.9c2.8,0,5.9,1.5,5.9,1.5c-1.5-0.3-5.3-0.5-7.3,1.6c-1.5,1.6-0.8,4.8-0.4,6.2c7.6-1.4,14.6-0.5,15.9-0.1
				c1.4,0.4,2.7,0.1,3.2-1.7c0.5-1.8,0.5-3.9-0.5-4.7c-1-0.7-2.5-1-4.1-2.2c-1.6-1.2-2.9-4.1-2.7-8.3c0.1-4.2-2.4-9.9-2.4-9.9
				c-5.7,2.3-19.1-1.8-27.5-2.4c-8.4-0.6-14.2,3.4-14.2,3.4c-2.3-5.7,0.4-13.5,0.4-13.5c-1.7,0-8,0.8-9.8,0.9c0,0.1-0.7,0.2-1.6,0.3
				c0,0.2,0,0.4,0,0.6c0,0-2.6,20.3-12.3,33.5c2.5,1.4,8.9,3.3,11.1,5.3c4.2,3.8,4.4,9.3,4.2,11.4c-0.2,2.2-0.5,6-2.5,13.7
				c0,0-0.5-11-1.5-14.3c-1-3.2-4.7-6.2-8.2-7.3c-1.6-0.5-4.6-1.3-7.8-2c-6.3,7.3-12.7,12.3-18.7,17.6c0.6,1,1.5,1.8,2.8,2.2
				c3.6,0.9,8.2-1.2,8.2-1.2s-2.9,13.4,4.8,24.9C320.6,325.4,326.3,326.6,330.1,326.7z"/>
			<path fill="#FFC52F" d="M397.8,238.7l-0.5,0.7c-1.6,2-4.1,3.7-7.7,4.4l-2,0.3l-3.8,0.1c-7.9,0-10-2.2-17.1-3.1l-0.2-1
				c0,0,0.7-0.4,1.9-0.9l2-0.7l-1.4-0.1c-2-0.1-4.4,0-6.7,0.3l-1.9,0.4l-1.9,0.6c-4.1,1.4-5.9,3.1-6,3.2h0l-0.9-0.3c0,0,0,0,0-0.1
				c-0.1-0.6-0.6-6.3,2.5-8.3c2.5-1.6,8.9-1.5,13.4-1.2l3.7,0.3l3.9,0.5c4.3,0.5,10.6,1.2,14.9,0.7l1.7-0.3l3.3-0.8
				c2.8-0.8,4.4-1.4,4.8-1.6c0.1,0,0.1,0,0.1,0l0.8,0.6c0,0-0.3,2.4-1.8,5L397.8,238.7z M373.7,238.3c-4.4,0.9-6.9,2.4-6.9,2.4
				c8.3,1.1,9.7,3.7,20.8,3c11-0.8,12.4-11.2,12.4-11.2s-2.6,1.2-8.3,2.5c-5.7,1.3-17.2-0.5-20.7-0.9c-3.4-0.4-13.8-1.2-16.7,0.8
				c-2.9,2-2.3,7.9-2.3,7.9s2.4-2.5,8.2-3.9C366,237.2,373.7,238.3,373.7,238.3z"/>
			<path fill="#FFC52F" d="M250.4,161.6l2-2.9l5.4-7.5c1.8-2.4,3.1-4.8,4.2-7c2.7-5.8,3.3-10.4,3.3-11c0,0,0-0.1,0-0.1l0.6-0.5
				c27.5,1.3,60.5,13.3,87.1,38.6c11.8,11.2,19.6,24.4,24.7,35.6l-0.6,0.8c-4.9-0.8-15-2-26.4-2.1c-12.8-0.1-28.2,1.6-31.1,2
				l-0.6-0.4l0,0l0-0.1l-0.2-1.3v0l-0.1-0.4v0c0-0.3-0.1-0.7-0.2-1l0,0c-1.6-12.4-10.8-24.3-22.4-29.2l0,0
				c-4.2-1.9-13.1-4.9-22.3-5.7h0c-4.7-0.5-9.7-0.5-15.8,0.2c-2.6,0.3-5.2,0.6-7.7,0.9c-1.8,0.2-3.6,0.5-5.4,0.7l-0.5-0.9
				c0,0,0.1-0.1,0.1-0.2c0.3-0.3,0.8-1,0.9-1.2L250.4,161.6z M262.7,144.1l-0.2,0.4c-1.1,2.2-2.4,4.6-4.2,7
				c-2.6,3.5-7.7,10.6-12.5,17.8c-0.2,0.2-1,1.4-1,1.4c1.8-0.2,3.6-0.4,5.4-0.7c2.5-0.3,5.1-0.7,7.7-0.9c6.2-0.6,11.2-0.7,15.9-0.2
				c9.3,0.8,18.3,3.8,22.5,5.8c11.8,5,21.1,17,22.8,29.6l0,0c0.1,0.3,0.1,0.7,0.2,1c0,0.1,0,0.3,0.1,0.4c0.1,0.4,0.1,0.9,0.2,1.4
				c0,0,0,0,0,0c2.9-0.3,18.3-2.1,31.2-2c11.5,0.1,21.6,1.3,26.5,2.1c-5-11.2-12.8-24.3-24.5-35.5c-26.5-25.1-59.4-37.2-86.7-38.4
				c0,0-0.3,3.8-2.4,8.9L262.7,144.1z"/>
			<path fill="#FFC52F" d="M279.2,404.6c0,0-6.3-3.3-10.8-9.7c-3.5-5.1-3.8-11.2-3.8-13.7l0.8-0.5c4.4,2.5,9.4,5,12.4,6.9
				c3.2,2,5.9,4,7.8,5.7l0.1,0.7c-3.1,5.5-5.9,10.4-5.9,10.4L279.2,404.6z M279.5,404.1c0,0,2.8-4.9,5.9-10.4
				c-1.9-1.7-4.6-3.6-7.8-5.6c-2.9-1.8-8-4.3-12.3-6.8c0,2.4,0.3,8.4,3.7,13.3C273.2,400.9,279.5,404.1,279.5,404.1z"/>
			<path fill="#FFC52F" d="M120.5,326.7l-0.2,0.1l-0.6-0.9c9.9-10.9,29.9-30.4,46.3-41.4c49.4-33.2,90.2-38.5,93.2-39.2l0.5,0.1
				l0.9,0.8l0.1,0.1c0.4,0.6,0.8,1.2,1.3,1.8l-0.3,0.9c-20.6,5.6-64.5,24.2-90.1,42.2c-11,7.7-23.1,20-30.5,27.5l-0.2,0.1
				c-3.6,1.1-7.7,2.6-11.4,4.1L120.5,326.7z M261.5,248.5c-0.4-0.6-0.9-1.2-1.3-1.8l-0.9-0.8c-3,0.6-43.8,6-93,39.1
				c-16.3,11-36.3,30.4-46.2,41.3c4.2-1.8,13.4-5.7,20.6-7.9c7.4-7.6,19.5-19.8,30.6-27.6C196.9,272.8,240.9,254.1,261.5,248.5z"/>
			<path fill="#FFC52F" d="M362.5,326.7l-0.2,0.4c-1,2-1.5,3.2-1.5,3.2l-1.1-0.3c2.1-14,8.4-25.3,12.9-31.8l2.4-3.2l-0.7,0.5
				c-8.5,6.7-14.9,18.5-18.4,41.6l-0.9,5.5c-4.8,26.3-12.5,36.6-12.5,36.6l-1-0.5l0.9-3l0,0l1.2-5.7c2.4-12.6,2.2-20.7,4.8-38
				c1.9-12.4,6-21.8,8.8-27.1l1.2-2.1l-1.2,1.1c-8.3,8.4-12.9,23.2-14.7,43.8c-2.3,26.1-8.5,35.4-8.6,35.5l-1-0.5
				c3.7-12.9,2.2-27.2,2.7-37c0.6-9.6,1-22.9,6.5-35.4c4.8-11,15.1-21.6,26.5-28.1l5-2.5l2.5-1c12.2-4.7,21.6-2.1,21.6-2l0.2,0.1
				c7.1,6.7,7.5,13.7,7.6,13.8l-0.4,0.6c0,0-0.2,0-0.5,0.1c-2,0.6-9.7,3-19,8.4l-4.1,2.5l-1.7,1.2c-6.4,4.9-11.5,12.6-14.7,18.5
				L362.5,326.7z M361,326.7l-0.6,3.4c0,0,8.1-20,20.8-28.3c12.7-8.4,23.7-11.2,23.7-11.2s-0.4-6.9-7.4-13.4c0,0-10.5-3-23.7,3.1
				c-13.2,6-25.8,18-31.2,30.4c-5.4,12.4-5.8,25.5-6.4,35.2c-0.6,9.6,1,24.1-2.8,37.1c0,0,6.2-9.2,8.5-35.2
				c2-23.6,7.9-39.8,18.7-47.4c0,0-8.7,12-11.6,31.7c-2.9,19.7-2.4,27.4-6,43.7l-0.9,3.1c0,0,8.7-11.6,13.4-41.9
				c4.1-26.5,11.9-38.3,22.5-44.5c0,0-12.5,13.6-16.8,33.6L361,326.7z"/>
			<path fill="#F8CADE" d="M316.3,326.7l1,0.8c3,2.2,6.6,3.7,11.1,3.7c1.2,0,2.7,0,4.3-0.1l0.6,0.6c-0.7,4.4-1,9.2-1.2,12.6
				l-0.4,0.5c-1.9,0.6-3.5,1.2-4.8,1.8c-4.1,1.7-10.1,4.6-15,7.1l-8.8,4.5l0,0l-0.5,0.3l-0.8-0.4c-1.1-7.7-3.4-14.2-4-15.6
				c-0.1-0.2-0.1-0.3-0.1-0.3v-0.4c0,0,0.3-0.9,0.8-2.4c1.3-3.9,3.5-11.8,3-18.1l-0.4-2.6l-1-3.8c-2.5-8.4-5.6-13.2-6-13.8
				c0,0-0.1-0.1-0.1-0.1l0.1-0.7c0.5-0.5,1-1,1.5-1.5l0.8,0.1c2.4,3.3,6.3,3.8,7.3,3.9c0.1,0,0.2,0,0.2,0l0.5,0.4c0,0,0,0.2,0.1,0.5
				c0.5,2,2.5,9.6,5.3,14.8l1.2,2.1l1.5,2.1c0.9,1.2,1.9,2.3,3,3.3L316.3,326.7z M331.6,343.1l0.3-4.7c0.2-2.2,0.5-4.5,0.8-6.7
				c-1.6,0-3.1,0.1-4.3,0.1c-8.6,0-13.9-5-17.9-10.8c-4-5.8-6.7-17.5-6.7-17.5s-5-0.1-7.9-4.1c-0.5,0.5-1,1-1.5,1.5
				c0,0,4.5,6.2,7.2,17.9c2.1,8.9-3.5,23.3-3.5,23.3s2.9,7.3,4.2,16.1c0.2-0.1,0.4-0.2,0.5-0.3c0,0,15.5-8.2,23.8-11.7
				c1.3-0.6,3-1.2,4.8-1.8L331.6,343.1z"/>
			<path fill="#F8CADE" d="M395.6,331c3.1,0.1,6.1-0.1,7.4-0.1c0.4,0,0.7,0,0.7,0l0.4,1c-1.5,1.2-5,1-6.7,1.2
				c-1.9,0.3-13.4,0.6-27.4,2.7c-2.5,0.4-5.3,0.9-8.2,1.4l-0.6-0.7c0.9-2.4,1.7-4.2,2.8-5.9l0.5-0.3h0.1
				C374.8,330.4,391.3,330.9,395.6,331z M395.6,331.5c-4.2-0.1-20.8-0.6-31.1-0.6h-0.1c-1,1.6-1.9,3.3-2.8,5.8
				c2.9-0.6,5.7-1.1,8.2-1.4c14-2.1,25.6-2.5,27.4-2.7c1.9-0.2,5.2-0.1,6.5-1.1C403.7,331.4,399.8,331.7,395.6,331.5z"/>
			<path fill="#F8CADE" d="M406.7,326.7l-0.4,1c-0.2,0.3-0.5,0.6-0.8,0.8c-1.1,0.9-2.6,0.7-3.4,0.7c-1.2-0.1-4.3-0.1-8.9-0.5
				l-5.1-0.5c-3.7-0.4-8.9-0.8-13.2-0.9c-4.3-0.2-7.6-0.3-7.6-0.3l-0.5-0.7c6.5-18,29-27.6,29-27.6l0.8,0.5c0.3,4-1.8,10.3-2.9,13.2
				l-0.3,0.8l2.1,0c1.7,0.1,3.7,0.3,5.3,0.9c3.1,1.2,4.9,2.6,6,8.8c0.3,1.6,0.3,2.8,0,3.7L406.7,326.7z M375,326.7l6.8,0.4
				c2.3,0.2,4.5,0.3,6.4,0.6c7.5,0.9,12.4,0.9,14,1c0.8,0,2.1,0.1,3.1-0.6c0.9-0.7,1.5-2.2,1-5.2c-1.1-6.1-2.8-7.2-5.7-8.4
				c-2.9-1.2-8-0.9-8-0.9s3.8-9.4,3.4-14.5c0,0-22.3,9.6-28.7,27.3C367.3,326.4,370.6,326.5,375,326.7L375,326.7L375,326.7z"/>
			<path fill="#FFC52F" d="M280.7,385.6l-2.3-1.5l-0.2-0.6c2.9-11.8,9.8-26.7,12.6-30.6c0.9-1.2,2.4-3.5,3.3-5l1,0
				c0.9,1.7,3.4,6.1,4.1,11.6c1,8-2.1,16.8-6.2,24.1c-1.2,2.1-3.9,4.6-5.2,7l-0.9,0.1c-0.5-0.6-1.3-1.3-2.3-2.2L280.7,385.6
				L280.7,385.6z M294.6,348.2c-0.9,1.5-2.4,3.8-3.3,5c-2.8,3.8-9.6,18.7-12.5,30.4c0.9,0.5,1.7,1.1,2.3,1.5
				c3.2,2.2,5.1,4.1,6.2,5.3c1.4-2.5,4.1-5,5.2-7c4-7.3,7.1-15.9,6.1-23.8C297.9,354.2,295.5,349.9,294.6,348.2z"/>
			<path fill="#FFC52F" d="M283,402.9c3.6-6.5,8.7-13.3,8.7-13.3l1,0.2c0,0,2.4,7.5,1.3,14.9l-0.7,3.2l-1.2,3
				c-3,6.9-7.9,12.4-8,12.4l-0.9,0c0,0,0-0.1-0.1-0.2c-0.4-0.6-2-2.6-3.5-4.2l-1.5-1.3l-0.6-0.4l-0.2-0.7
				C278.3,413.4,280.5,407.5,283,402.9z M283.5,403.2c-2.5,4.5-4.7,10.4-5.8,13.5c0.2,0.1,0.5,0.3,0.7,0.4c2.3,1.6,5.3,5.8,5.3,5.8
				s6.4-7.1,9-15.2c2.6-8.1-0.5-17.7-0.5-17.7S287.1,396.8,283.5,403.2z"/>
			<path fill="#FFC52F" d="M257.9,331c2.6-10.1,9.5-18.3,11.2-19.6c0,0-10.8,14.4-7.7,37.1c0,0,3-18.6,17-36.8
				c14-18.2,27.5-26.8,38.6-40.4c6.2-7.6,9.7-14.8,11.8-21.4c1.7-4.9,2.5-9.7,2.8-13.2c-3,0.3-5.9,0.6-8.8,0.9c0,0.1,0,0.2-0.1,0.3
				c-2.9,9.7-8.5,16.7-17.5,20.8c-11.7,11.9-29.1,20.2-38.8,26.4c-17.2,11-20,32.7-20,32.7c1.9-33.3,22.3-37.6,44.6-53.9
				c0.5-0.3,1.6-1,2-1.3l-0.7,0.3c-2.8,0-8.5-0.5-11.1-1.1c-2.4,1.7-4.8,3.1-7,4.3c-11.7,6.4-19.8,16.8-19.8,16.8
				c3.2-10.5,10.5-15,21.6-22.8c-4.1-1.7-8.8-4.6-12-7.7c-6.5,3.4-20.9,12.1-30.5,21.2c-7.7,7.3-21.9,17.5-38.7,25.5
				c13.2-8.7,35.5-28.4,43.3-35.9c0,0-29.3,16.9-37.7,22.6c0,0,10.9-12,24.4-19.5c0,0-29.8,12.2-47,24c-8.9,6.1-22.5,18.4-30.3,26.8
				c3.2-0.7,15.5-3.2,18.8-3.5c22.1-2.3,46.2-0.6,67.3-26c0.3-0.4,0.7-0.8,1-1.2c-1.8,6.3-2.6,15.1-2.3,24.9
				c0.8,21.2,17.3,29.6,23.7,34.1C256,342.7,255.6,340.1,257.9,331"/>
			<path fill="#FFC52F" d="M208.7,311.9l-0.4,0c0,0,6.3,3.3,11.4,3.3c5.2,0,9.4-1.7,9.4-1.7s-0.9-12.2,0.3-16.2
				C229.4,297.4,219.6,309.2,208.7,311.9"/>
			<path fill="#FFFFFF" d="M260.1,220.7C260.1,220.7,260.1,220.7,260.1,220.7c0,0,10.6,3.1,17,8c0,0-7-1.4-14.1-2.3
				c5.1,7.6,13.8,12.6,23.6,12.6c7.5,0,14.2-2.9,19.3-7.6c-1.2,0.9-2.4,1.5-3.3,1.9c-2.4,1.2-4.8,1.6-6.6,1.7
				c-4.1,1.3-8.1,0.7-9.2,0.5c0.1,0,0.2-0.1,0.3-0.1c12.2-2.1,23.6-11.5,22.4-25.7c-0.6-6.1-2.4-12.6-6.3-16.7
				c4.8,4.1,8.1,9.9,8.7,16.6c0.3,3.3-0.1,6.5-1,9.5c1.6-3.4,2.5-7.1,2.5-11c0.9,4.2,0.6,7.8-0.4,10.8c1.2-3,1.9-6.3,2-9.8
				c0.1,0.4,0.1,0.8,0.2,1.2v-0.1c0-2.1-0.2-4.1-0.6-6l0-0.3c-1.6-10.6-9.4-20.8-19.4-25.2c-3-1.6-12-4.9-21.8-5.8
				c-4.4-0.5-9.2-0.4-15,0.2c-2.6,0.3-5.1,0.6-7.6,0.9c-13.3,1.7-25.9,3.3-39.3-4.2c-16.7-8.4-29-27.2-31.4-47.8l-0.3-2.2
				c-0.3-2.8-0.5-5.8-0.6-8.7c-0.2-2.6-0.7-4-0.8-3.6c0,0.2,0,0.4,0,0.6c0,2.2-0.5,4.4-0.9,6.5c-0.4,2.6-0.9,7.4-1,7.2
				c0-0.2-0.1-0.4-0.1-0.6c-0.1-0.7-0.1-1.4-0.1-2.1c0-1.4,0-2.9-0.1-4.3c-0.2-3.6-0.8-14.1-1.1-15.4c-0.1-0.3-0.2-1.5-0.6-1.8
				c0,1.2,0,2.5-0.1,3.7c-0.1,3.2-0.9,7-1.2,10.2c-0.3,3.2-0.9,6.4-1.3,9.6c-0.1,0.9-0.3,2.6-0.4,2.4c0-0.1,0-0.1,0-0.2
				c-0.2-2-0.7-8.3-0.6-15.5l0-1.5c0,0.3-0.1,0.6-0.1,0.8c-1.2,6.9-2.6,16.5-2.7,26.9c0,0.3,0,1.2,0,1.6c-0.1,3.2,0.1,16.6,5.8,31.4
				c8.8,22.5,25.7,37.4,50.5,44.3C236.7,215.2,250.5,217.8,260.1,220.7"/>
			<path fill="#FFC52F" d="M279.6,366.1c-3-2.3-11.5-8.6-16.8-11.5c-6.4-3.6-13.4-7.5-16.2-9.9c0,0-0.1,11.3,5.5,19.9
				c4.1,6.4,15.3,12.3,22.6,16.6C275.4,378.8,277.1,372.7,279.6,366.1"/>
			<path fill="#FFC52F" d="M265.9,352c5.3,3.3,11.7,7.3,15.3,10.1c0.9-2.1,1.8-4.1,2.8-6c5.7-11.2,11.2-15.2,13.5-26.9
				c2.2-11.7-3.3-20.6-7.6-25c0,0-12.7,13.9-17.7,25.2C267.7,339.5,266.1,347.6,265.9,352"/>
			<path fill="#FFC52F" d="M241.3,220.3c-1-0.2-2-0.5-3-0.7c-2-0.5-4-1-6.1-1.5c-2.2-0.5-4.5-1-6.7-1.6c-0.1,0.6-0.2,1.1-0.3,1.7
				c-0.3,2-0.6,4-0.8,6c5.1-1.3,11-2.7,16.8-3.7c0.1,0,0.3,0,0.4-0.1C241.5,220.4,241.4,220.3,241.3,220.3"/>
			<path fill="#FFFFFF" d="M255.8,146.8c-18.8-11.6-23.4-22.6-26.3-38.4c-0.5-2.5-1.1-5-1.7-7.2c0.5,6,0.1,11.6,0.1,11.6
				c-0.7-5.8-4.3-15.9-4.3-15.9c1.4,6.5,1.8,17,1.8,17c-0.4-3.7-2-9.4-3.2-13.5c0.4,2.9,0.8,5.6,1.1,7.9c1,7.8-0.9,21.7,4.6,36.2
				c3.6,9.4,11.3,16.3,15.9,19.8C247.5,158.9,252.4,151.9,255.8,146.8"/>
			<path fill="#4F2682" d="M319.6,210.9C319.6,211,319.6,211,319.6,210.9c0,0.6,0,1.1-0.1,1.7v0c0,0.5-0.1,1.1-0.1,1.6
				c-0.6,4.9-2.2,9.5-4.7,13.6c-0.3,0.4-0.6,0.9-0.9,1.3c0,0,0,0,0,0c-0.3,0.4-0.6,0.8-0.9,1.3c0,0,0,0,0,0
				c-0.3,0.4-0.6,0.8-0.9,1.2c0,0,0,0.1-0.1,0.1c-0.3,0.4-0.6,0.7-1,1.1c0,0-0.1,0.1-0.1,0.1c-0.3,0.3-0.6,0.7-1,1
				c0,0-0.1,0.1-0.1,0.1c-0.3,0.3-0.6,0.6-1,0.9c-0.1,0.1-0.1,0.1-0.2,0.2c-0.3,0.3-0.7,0.6-1,0.9c-0.1,0.1-0.2,0.1-0.2,0.2
				c-0.3,0.3-0.7,0.5-1,0.8c-0.1,0.1-0.2,0.1-0.3,0.2c-0.3,0.2-0.7,0.5-1,0.7c-0.1,0.1-0.2,0.2-0.4,0.2c-0.3,0.2-0.6,0.4-1,0.6
				c-0.1,0.1-0.3,0.2-0.4,0.2c-0.3,0.2-0.6,0.4-0.9,0.5c-0.2,0.1-0.3,0.2-0.5,0.3c-0.3,0.2-0.6,0.3-0.9,0.5
				c-0.2,0.1-0.4,0.2-0.5,0.2c-0.3,0.1-0.6,0.3-0.9,0.4c-0.2,0.1-0.4,0.2-0.6,0.2c-0.3,0.1-0.6,0.2-0.9,0.3
				c-0.2,0.1-0.4,0.2-0.7,0.2c-0.3,0.1-0.6,0.2-0.8,0.3c-0.2,0.1-0.5,0.1-0.7,0.2c-0.3,0.1-0.5,0.2-0.8,0.2
				c-0.3,0.1-0.5,0.1-0.8,0.2c-0.3,0.1-0.5,0.1-0.8,0.2c-0.3,0.1-0.6,0.1-0.8,0.2c-0.3,0-0.5,0.1-0.8,0.1c-0.3,0-0.6,0.1-0.9,0.1
				c-0.2,0-0.5,0.1-0.7,0.1c-0.4,0-0.8,0.1-1.2,0.1c-0.2,0-0.3,0-0.5,0c-0.6,0-1.1,0-1.7,0c-12.8,0-24.5-7.6-29.9-19.1
				c-1.6-0.5-3.4-1-5.2-1.4c-3,0.4-6.3,0.8-9.7,1.4c-6.3,1.1-12.8,2.7-18.1,4c-0.3,2.8-0.7,7.3-0.7,7.7c-0.8,15.9,0.2,14.8,0.2,14.8
				c4.6-1.8,21.6-6.2,21.6-6.2c5-1.2,10.9-2.4,17.8-3.7c4.9,9.8,15,16.6,26.7,16.6c14.6,0,26.7-10.5,29.3-24.4
				c31.9-3.5,47-3.6,66.7-0.9c0,0,0,0,0-0.1v0c0-0.1-0.3-1.2-0.3-1.3c0-0.2-0.1-0.4-0.1-0.7c0-0.1,0-0.2-0.1-0.3
				c-0.1-0.2-0.1-0.5-0.2-0.8c0-0.1-0.1-0.2-0.1-0.4c-0.1-0.3-0.1-0.6-0.2-0.9c0-0.1-0.1-0.3-0.1-0.4c-0.1-0.3-0.2-0.6-0.2-1
				c0-0.2-0.1-0.3-0.1-0.5c-0.1-0.4-0.2-0.7-0.3-1.1c0-0.2-0.1-0.3-0.1-0.5c-0.1-0.4-0.2-0.8-0.3-1.2c-0.1-0.2-0.1-0.4-0.2-0.5
				c-0.1-0.4-0.3-0.9-0.4-1.3c0-0.2-0.1-0.4-0.2-0.6c-0.1-0.5-0.3-1-0.4-1.4c-0.1-0.2-0.1-0.4-0.2-0.6c-0.2-0.5-0.3-1.1-0.5-1.6
				c0-0.2-0.1-0.3-0.2-0.5c-0.2-0.6-0.4-1.3-0.7-1.9c0-0.1-0.1-0.2-0.1-0.3c-0.3-0.9-0.7-1.9-1.1-2.9c-3.5-0.7-14.8-2.4-28.7-2.4
				C338,209,322.7,210.6,319.6,210.9"/>
			<path fill="#EDBCA2" d="M370.3,250.3c1,1.2,2.8,3.7,2.9,4.6c0,0.1,0,0.4,0,0.7c0,0,0,0.1,0,0.2c0,0,0,0,0,0
				c-0.1,1.4-0.8,7.7-2.2,9.5c-0.2,0.4-0.5,0.7-0.8,1c-1.7,1.6-4.6,3.1-10.2,6.9c-6.1,4.2-10.9,12.9-10.9,12.9s1.7-8.2,5.5-12.9
				c4.7-5.8,10.8-9.6,14.5-11.6l1.7-7.6c-1.3-0.9-2.9-1.7-4.5-2c-3.3-0.6-8.8-0.5-12.2-1.6c0,0,0-0.1,0-0.1c4-0.5,6.4-1.7,12.4-2.7
				c6-1,10.6,0.8,10.6,0.8C373.2,248.7,370.3,250.3,370.3,250.3 M389.9,247c-5.7,2.3-19.1-1.8-27.5-2.4c-8.4-0.6-14.2,3.3-14.2,3.3
				c-2.3-5.7,0.4-13.5,0.4-13.5c-1.7,0-8,0.8-9.8,0.9c0,0.1-0.7,0.2-1.6,0.3c0,0.2,0,0.4,0,0.6c0,0-2.6,20.3-12.3,33.5
				c2.5,1.4,8.9,3.3,11.1,5.3c4.2,3.8,4.4,9.3,4.2,11.4c-0.2,2.2-0.5,6-2.5,13.7c0,0-0.5-11-1.5-14.3c-1-3.2-4.7-6.3-8.2-7.3
				c-1.6-0.5-4.6-1.3-7.8-2c-6.3,7.3-12.7,12.3-18.7,17.6c0.6,1,1.5,1.8,2.8,2.2c3.6,0.9,8.2-1.2,8.2-1.2s-2.9,13.4,4.8,24.9
				c5.7,8.5,16.8,6.3,16.8,6.3s2.4-16.9,12.9-30.4c9.7-12.5,21.5-18.9,29.8-21.3c-0.3-1.5-0.8-4.7-0.2-6.2c0.8-2.1,3.1-3.9,5.8-3.9
				c2.8,0,5.9,1.5,5.9,1.5c-1.5-0.3-5.3-0.5-7.3,1.6c-1.5,1.6-0.8,4.8-0.4,6.2c7.6-1.4,14.6-0.5,15.9-0.1c1.4,0.4,2.7,0.1,3.2-1.7
				c0.5-1.8,0.5-3.9-0.5-4.7c-1-0.7-2.5-1-4.1-2.1c-1.6-1.2-2.9-4.1-2.7-8.3C392.4,252.8,389.9,247,389.9,247"/>
			<path fill="#FFC52F" d="M354.3,234.7c-2.9,2-2.3,7.9-2.3,7.9s2.4-2.5,8.2-3.9c5.8-1.5,13.5-0.4,13.5-0.4
				c-4.4,0.9-6.9,2.4-6.9,2.4c8.3,1.1,9.7,3.7,20.8,3c11-0.8,12.4-11.2,12.4-11.2s-2.6,1.2-8.3,2.5c-5.7,1.3-17.2-0.5-20.7-0.9
				C367.6,233.5,357.3,232.7,354.3,234.7"/>
			<path fill="#FFC52F" d="M244.8,170.7c1.8-0.2,3.6-0.4,5.4-0.7c2.5-0.3,5.1-0.7,7.7-0.9c6.2-0.6,11.2-0.7,15.9-0.2
				c9.3,0.8,18.3,3.8,22.5,5.8c11.8,5,21.1,17,22.8,29.6l0,0c0.1,0.3,0.1,0.7,0.2,1c0,0.1,0,0.3,0.1,0.4c0.1,0.4,0.1,0.9,0.2,1.4
				c0,0,0,0,0,0c2.9-0.3,18.3-2.1,31.2-2c11.5,0.1,21.6,1.3,26.5,2.1c-5-11.2-12.8-24.3-24.5-35.5c-26.5-25.2-59.4-37.2-86.7-38.4
				c0,0-0.4,4.9-3.4,11.2c-1.1,2.2-2.4,4.6-4.2,7c-2.6,3.5-7.7,10.6-12.5,17.8C245.6,169.5,244.8,170.7,244.8,170.7"/>
			<path fill="#FFC52F" d="M279.5,404.1c0,0,2.8-4.9,5.9-10.4c-1.9-1.7-4.6-3.6-7.8-5.6c-2.9-1.8-8-4.3-12.3-6.8
				c0,2.4,0.3,8.4,3.7,13.3C273.2,400.9,279.5,404.1,279.5,404.1"/>
			<path fill="#FFC52F" d="M261.5,248.5c-0.4-0.6-0.9-1.2-1.3-1.8l-0.9-0.8c-3,0.6-43.8,6-93,39.1c-16.3,11-36.3,30.4-46.2,41.3
				c4.2-1.8,13.4-5.7,20.6-7.9c7.4-7.6,19.5-19.8,30.6-27.6C196.9,272.8,240.9,254.1,261.5,248.5"/>
			<path fill="#FFC52F" d="M381.1,301.8c12.7-8.4,23.7-11.2,23.7-11.2s-0.4-6.9-7.4-13.4c0,0-10.5-3-23.7,3.1
				c-13.2,6-25.8,18-31.2,30.4c-5.4,12.4-5.8,25.5-6.4,35.2c-0.6,9.7,1,24.1-2.8,37.1c0,0,6.2-9.2,8.5-35.2
				c2-23.6,7.9-39.8,18.7-47.4c0,0-8.7,12-11.6,31.7c-3,19.7-2.4,27.4-6,43.7l-0.9,3.1c0,0,8.7-11.6,13.4-41.9
				c4.1-26.5,11.9-38.3,22.5-44.5c0,0-14.2,15.5-17.5,37.6C360.3,330.2,368.4,310.2,381.1,301.8"/>
			<path fill="#EDBCA2" d="M310.5,320.9c-4-5.8-6.7-17.5-6.7-17.5s-5-0.1-7.9-4.1c-0.5,0.5-1,1-1.5,1.5c0,0,4.5,6.2,7.2,17.9
				c2.1,8.9-3.5,23.3-3.5,23.3s2.9,7.3,4.2,16.1c0.2-0.1,0.4-0.2,0.5-0.3c0,0,15.5-8.2,23.8-11.7c1.3-0.6,3-1.2,4.8-1.8
				c0.2-3.5,0.5-8.3,1.2-12.7c-1.6,0-3.1,0.1-4.3,0.1C319.8,331.7,314.5,326.8,310.5,320.9"/>
			<path fill="#EDBCA2" d="M395.6,331.5c-4.2-0.1-20.8-0.6-31.1-0.6h-0.1c-1,1.6-1.9,3.3-2.8,5.8c2.9-0.6,5.7-1.1,8.2-1.4
				c14-2.1,25.6-2.5,27.4-2.7c1.9-0.2,5.2-0.1,6.5-1.1C403.7,331.4,399.8,331.7,395.6,331.5"/>
			<path fill="#EDBCA2" d="M400.5,314.5c-3-1.2-8-0.9-8-0.9s3.8-9.4,3.4-14.5c0,0-22.3,9.6-28.7,27.3c0,0,13.4,0.3,20.9,1.2
				c7.5,0.9,12.4,0.9,14,1c1.7,0.1,5.1,0.3,4-5.8C405.1,316.7,403.5,315.7,400.5,314.5"/>
			<path fill="#FFC52F" d="M294.6,348.2c-0.9,1.5-2.4,3.8-3.3,5c-2.8,3.8-9.6,18.7-12.5,30.4c0.9,0.5,1.7,1.1,2.3,1.5
				c3.2,2.2,5.1,4.1,6.2,5.3c1.4-2.5,4.1-5,5.2-7c4-7.3,7.1-15.9,6.1-23.8C297.9,354.2,295.5,349.9,294.6,348.2"/>
			<path fill="#FFC52F" d="M283.5,403.2c-2.5,4.5-4.7,10.4-5.8,13.5c0.2,0.1,0.5,0.3,0.7,0.4c2.3,1.6,5.3,5.8,5.3,5.8
				s6.4-7.1,9-15.2c2.6-8.1-0.5-17.7-0.5-17.7S287.1,396.8,283.5,403.2"/>
			<path fill="#000002" d="M366.6,247.7c-6,1-8.4,2.2-12.4,2.7c0,0,0,0,0,0.1c3.4,1.1,8.9,1,12.2,1.6c1.6,0.3,3.2,1.2,4.5,2
				l-1.7,7.5c-3.8,2-9.9,5.8-14.5,11.6c-3.8,4.7-5.5,12.9-5.5,12.9s4.8-8.7,10.9-12.9c5.5-3.8,8.5-5.3,10.2-6.9
				c0.3-0.3,0.5-0.6,0.8-1c1.5-1.8,2.1-8.1,2.2-9.5c0,0,0,0,0,0c0-0.1,0-0.2,0-0.2c0-0.3,0-0.6,0-0.7c-0.1-0.9-1.9-3.4-2.9-4.6
				c0,0,2.9-1.6,6.9-1.8C377.2,248.5,372.6,246.7,366.6,247.7"/>
			<path fill="#F8CADE" d="M357.1,250.5l3.2,0.4c2.2,0.2,4.4,0.3,6.1,0.6l0,0c1.7,0.3,3.4,1.2,4.7,2.1l0.2,0.6l-1.7,7.5l-0.3,0.4
				c-3.3,1.7-8.3,4.9-12.6,9.4l-1.8,2.1l-1.1,1.6c-1.2,2-2.2,4.3-2.9,6.3l-0.4,1.1l0.4-0.7c1.6-2.2,3.8-5.1,6.3-7.3l2.3-1.8l6.5-4.3
				c0.8-0.5,1.5-1,2.1-1.4l1.4-1.1l0,0l0.7-0.9l0-0.1c1.2-1.5,2-7.8,2.1-9.2v0c0-0.1,0-0.2,0-0.2c0-0.3,0-0.6,0-0.6v0
				c-0.1-0.6-1.8-3.2-2.7-4.3l0.2-0.8c0,0,0.8-0.4,2-0.9l2.2-0.6l-0.5-0.1c-1.8-0.3-4.3-0.4-7,0c-4.5,0.7-6.9,1.6-9.6,2.2
				L357.1,250.5z M373.2,254.9l0,0.7c0,0,0,0.1,0,0.2c0,0,0,0,0,0c-0.1,1.4-0.8,7.7-2.2,9.5c-0.2,0.4-0.5,0.7-0.8,1
				c-1.7,1.6-4.6,3.1-10.2,6.9c-6.1,4.2-10.9,12.9-10.9,12.9s1.7-8.2,5.5-12.9c4.7-5.8,10.8-9.6,14.5-11.6l1.7-7.6
				c-1.3-0.9-2.9-1.7-4.5-2c-3.3-0.6-8.8-0.5-12.2-1.6c0,0,0-0.1,0-0.1c4-0.5,6.4-1.7,12.4-2.7c6-1,10.6,0.8,10.6,0.8
				c-4,0.2-6.9,1.8-6.9,1.8C371.3,251.5,373.1,254,373.2,254.9z"/>
		</g>
	</g>
	<g id="Layer_29">
	</g>
	<g id="Layer_33">
	</g>
	<g id="Layer_35">
	</g>
	<g id="Layer_37">
	</g>
	<g id="Layer_39">
	</g>
	<g id="Layer_41">
	</g>
	<g id="Layer_43">
	</g>
	<g id="Layer_46">
	</g>
	<g id="Layer_45">
	</g>
	<g id="Layer_49">
	</g>
	<g id="Layer_51_copy">
	</g>
	<g id="Layer_53">
	</g>
	<g id="Layer_55">
	</g>
	<g id="Layer_57">
	</g>
	<g id="Layer_59">
	</g>
	<g id="Layer_61">
	</g>
	<g id="Layer_63">
	</g>
	<g id="Layer_64">
	</g>
	<g id="Layer_66_copy">
	</g>
</g>
</svg>
