<?xml version="1.0" encoding="utf-8"?>
<!-- Generator: Adobe Illustrator 16.0.4, SVG Export Plug-In . SVG Version: 6.00 Build 0)  -->
<!DOCTYPE svg PUBLIC "-//W3C//DTD SVG 1.1//EN" "http://www.w3.org/Graphics/SVG/1.1/DTD/svg11.dtd">
<svg version="1.1" xmlns="http://www.w3.org/2000/svg" xmlns:xlink="http://www.w3.org/1999/xlink" x="0px" y="0px" width="512px"
	 height="512px" viewBox="0 0 512 512" enable-background="new 0 0 512 512" xml:space="preserve">
<g id="grids" display="none">
	<g id="svgGrid_19_" display="inline">
		<line fill="none" stroke="#B35047" x1="32" y1="0" x2="32" y2="512"/>
		<line fill="none" stroke="#B35047" x1="64" y1="0" x2="64" y2="512"/>
		<line fill="none" stroke="#B35047" x1="96" y1="0" x2="96" y2="512"/>
		<line fill="none" stroke="#B35047" x1="128" y1="0" x2="128" y2="512"/>
		<line fill="none" stroke="#B35047" x1="160" y1="0" x2="160" y2="512"/>
		<line fill="none" stroke="#B35047" x1="192" y1="0" x2="192" y2="512"/>
		<line fill="none" stroke="#B35047" x1="224" y1="0" x2="224" y2="512"/>
		<line fill="none" stroke="#B35047" x1="256" y1="0" x2="256" y2="512"/>
		<line fill="none" stroke="#B35047" x1="288" y1="0" x2="288" y2="512"/>
		<line fill="none" stroke="#B35047" x1="320" y1="0" x2="320" y2="512"/>
		<line fill="none" stroke="#B35047" x1="352" y1="0" x2="352" y2="512"/>
		<line fill="none" stroke="#B35047" x1="384" y1="0" x2="384" y2="512"/>
		<line fill="none" stroke="#B35047" x1="416" y1="0" x2="416" y2="512"/>
		<line fill="none" stroke="#B35047" x1="448" y1="0" x2="448" y2="512"/>
		<line fill="none" stroke="#B35047" x1="480" y1="0" x2="480" y2="512"/>
		<line fill="none" stroke="#B35047" x1="0" y1="32" x2="512" y2="32"/>
		<line fill="none" stroke="#B35047" x1="0" y1="64" x2="512" y2="64"/>
		<line fill="none" stroke="#B35047" x1="0" y1="96" x2="512" y2="96"/>
		<line fill="none" stroke="#B35047" x1="0" y1="128" x2="512" y2="128"/>
		<line fill="none" stroke="#B35047" x1="0" y1="160" x2="512" y2="160"/>
		<line fill="none" stroke="#B35047" x1="0" y1="192" x2="512" y2="192"/>
		<line fill="none" stroke="#B35047" x1="0" y1="224" x2="512" y2="224"/>
		<line fill="none" stroke="#B35047" x1="0" y1="256" x2="512" y2="256"/>
		<line fill="none" stroke="#B35047" x1="0" y1="288" x2="512" y2="288"/>
		<line fill="none" stroke="#B35047" x1="0" y1="320" x2="512" y2="320"/>
		<line fill="none" stroke="#B35047" x1="0" y1="352" x2="512" y2="352"/>
		<line fill="none" stroke="#B35047" x1="0" y1="384" x2="512" y2="384"/>
		<line fill="none" stroke="#B35047" x1="0" y1="416" x2="512" y2="416"/>
		<line fill="none" stroke="#B35047" x1="0" y1="448" x2="512" y2="448"/>
		<line fill="none" stroke="#B35047" x1="0" y1="480" x2="512" y2="480"/>
		<rect fill="none" stroke="#B35047" width="512" height="512"/>
	</g>
</g>
<g id="b_x26_w" display="none">
	<g id="Layer_9" display="inline">
	</g>
	<g id="Layer_6_copy" display="inline">
	</g>
	<g id="Layer_7_copy" display="inline">
	</g>
	<g id="Layer_11_copy" display="inline">
	</g>
	<g id="Layer_13_copy" display="inline">
	</g>
	<g id="Layer_15_copy" display="inline">
	</g>
	<g id="Layer_17_copy" display="inline">
	</g>
	<g id="Layer_19_copy" display="inline">
	</g>
	<g id="Layer_21_copy" display="inline">
	</g>
	<g id="Layer_23_copy" display="inline">
	</g>
	<g id="Layer_25_copy" display="inline">
	</g>
	<g id="Layer_27" display="inline">
	</g>
	<g id="Layer_29_copy_2" display="inline">
	</g>
	<g id="Layer_31" display="inline">
	</g>
	<g id="Layer_33_copy" display="inline">
	</g>
	<g id="Layer_35_copy" display="inline">
	</g>
	<g id="Layer_37_copy" display="inline">
	</g>
	<g id="Layer_39_copy" display="inline">
		<path d="M463.1,257.1c0-56.1-92-116.2-207.1-116.2c-110.3,0-207.1,60.5-207.1,116.2S145.7,373.4,256,373.4
			C371.2,373.4,463.1,313.2,463.1,257.1z"/>
		<path fill="#FFFFFF" d="M336.1,196.7v12.2h19.5l0.1,0c1-0.1,2.8,0.2,3.1,0.8c0.3,0.6,0.2,2.7-2.5,6.9c0,0.1-18.7,31.2-25.7,42.8
			l-27.4-43.8c-2.3-3.5-2-4.9-1.7-5.4c0.5-0.9,1.3-1.2,2.8-1.3h14.2v-12.2l-105.5,0v12.2h13.3c2.7,0,4.6,0.5,5.7,1.7
			c1.9,1.9,2.2,5.8,2.2,11.1v44.8L181,196.7h-52.7v12.8h17.3c1.8,0,3.1,0.3,3.8,1c1.3,1.3,1.3,4.7,1.3,8v70.3
			c0,11.6-1.2,14.8-5.8,14.9h-16.8V315h56.5v-11.4h-15.9c-2.7,0-4.6-0.1-5.3-0.8c-1.5-1.5-1.6-8-1.6-14v-61.9l72.8,88.2H246
			c0,0,0.1-98.1,0-99.9c-0.1-2.7,0.6-5.7,5.4-6.3h11.3c5.2,0,8.7,6.3,12.2,12.3c0,0,27.3,46.3,30.9,52.5V296c0,7.6-3.4,7.6-4.8,7.6
			h-12.8V315h67v-11.5H343c-4.7-0.3-6.4-1.6-6.2-8.7v-23.1l32.7-54.9c4.7-7.3,5.2-8,11.6-7.9h11.1v-12.3H336.1L336.1,196.7z"/>
		<path d="M339.2,199.7v6.1h16.3c0,0,12-1,3.5,12.4l-28.2,47l-30-48c-7.8-12.4,3.8-11.3,3.8-11.3h11v-6.1l-99.4,0v6.1h10.3
			c9.9,0,11,6.4,11,15.9v53.8l-58-75.7h-48.1v6.7h14.3c9.1,0,8.1,7.1,8.2,14.1v68.3c0,9.5-0.4,17.9-8.8,17.9h-13.8v5.2h50.4v-5.3
			h-12.9c-8.6,0.1-10-1.2-10-17.8v-71.1L236,312h6.3V221c0-9.5,0.2-14.8,9-15.1h12.5c6.7,0.5,10.3,8.2,15,16.4l29.9,50.6V296
			c0,7.2-2.8,10.6-7.8,10.6h-9.7v5.3h60.9v-5.4h-9.3c-7.4-0.4-9.4-4.2-9.2-11.8v-23.8l30.8-52.1c6.9-10.3,7.3-13.1,16.6-13h8v-6.2
			H339.2L339.2,199.7z"/>
		<path d="M302.9,313.5c0-13.8-20.8-28.6-46.9-28.6c-25,0-46.9,14.9-46.9,28.6c0,13.7,21.9,28.6,46.9,28.6
			C282.1,342,302.9,327.3,302.9,313.5z"/>
		<path fill="#FFFFFF" d="M299.8,311.9c-1.5-11.8-20.4-23.9-43.8-23.9c-22.4,0-42.1,12.1-43.8,23.9H299.8z"/>
		<path fill="#FFFFFF" d="M212.2,315c1.6,11.7,21.4,23.9,43.8,23.9c23.4,0,42.3-12.1,43.8-23.9H212.2z"/>
		<path d="M240.2,323.7c-5.9,0-10.7-4.6-10.7-10.2c0-5.6,4.8-10.2,10.7-10.2h31.6c5.9,0,10.7,4.6,10.7,10.2
			c0,5.6-4.8,10.2-10.7,10.2H240.2z"/>
		<path fill="#FFFFFF" d="M273.5,308.9l-0.2-0.9h-3c0.1,0.3,0.2,0.6,0.3,1c0.2,1,0.4,1.9,0.5,3h-5.4c-0.1-0.9-0.2-1.9-0.4-2.7
			l-2.9,0c0.3,0.9,0.5,1.8,0.6,2.7h-5.4v-2.6h-3v2.6h-5.4c0.1-0.9,0.3-1.8,0.6-2.7l-2.9,0c-0.2,0.9-0.3,1.8-0.4,2.7H241
			c0.1-1,0.3-2,0.5-3l0.3-1h-3l-0.2,0.9c-0.3,1.5-0.5,3-0.5,4.6c0,1.9,0.2,3.7,0.7,5.4l3,0c-0.4-1.3-0.7-2.6-0.8-4h5.4
			c0.1,0.9,0.2,1.9,0.4,2.8l2.8,0c-0.3-0.9-0.4-1.8-0.5-2.8h5.4v2.6h3V315h5.4c-0.1,0.9-0.3,1.9-0.5,2.8l2.8,0
			c0.2-0.9,0.4-1.9,0.5-2.8h5.4c-0.1,1.4-0.4,2.7-0.8,4l3,0c0.5-1.7,0.7-3.5,0.7-5.4C274,312,273.8,310.4,273.5,308.9L273.5,308.9z"
			/>
		<path d="M392.5,236.9c-3.1-5.9-11.3-9.2-23.7-9.7c-9.1-0.3-16.3,0.2-21.9,1.6l-149.2,0.1c4.3-8.1,7.6-14.2,7.6-14.2h-36.8
			l-25.3,47.5c-2,3-2.3,3.2-4.4,3c-0.6-0.1-1-0.1-1.3-0.2c0.4-1.3,1.9-3.8,2.4-4.8c0,0,8.8-14.5,8.8-14.5h-34.3l-1,1.4
			c-9.4,13-12.2,23.4-8.3,31.1c3.8,7.3,13,11,27.5,10.9c14.6-0.1,23.8-0.8,31.2-5.6h74.4l19.2-35.8H274l-19.1,35.8h38l11.9-22.4
			h16.1l-0.8,2c-2.9,7.2-1.4,12,0.5,14.7c3.6,5.4,11.3,8.1,23,8.1c19.6,0,32.1-1.8,38.1-11c5-7.5,5.7-14.4,2.1-19.4
			c-1-1.4-2.6-2.6-4.4-3.7h10.8l1-1.6C394.9,244.3,394,239.7,392.5,236.9L392.5,236.9z"/>
		<path fill="#FFFFFF" d="M142.7,249.1h-26.4c-17.8,24.5-9,36.7,16.5,36.6c23.2-0.1,31.4-1.6,41.1-19.3l25.8-48.3h-29L146.2,264
			c-2.3,3.4-3.6,5-7.7,4.6c-6.6-0.7-4.8-4.5-1.5-10.1L142.7,249.1z"/>
		<path fill="#FFFFFF" d="M260.6,280.1h30.2l19-35.5h13.9l6.7-12.4h-61.1l-6.5,12.1h16.9L260.6,280.1z"/>
		<path fill="#FFFFFF" d="M323.2,264.4c-4.6,11.3,2.4,18.1,20.3,18.1c19.4,0,30.3-1.8,35.3-9.4c3.4-5.2,5.3-11.1,2.2-15.5
			c-2.2-3.1-10-5.8-17.4-7.2c-4.7-0.9-6.4-2-6-4.8c0.3-2.5,3.4-3.1,5.8-2.4c1.9,0.6,2.7,2.9,2.4,5.4h22.5c6.1-9.8-1-17.3-19.6-18
			c-23-0.8-31.8,3.5-36.5,15.2c-2.3,5.4-1.9,9.6,1.4,11.8c4.2,2.8,15.8,4.5,19.3,5.8c2.1,0.8,2.4,3.4,1.2,4.9
			c-1.4,1.8-4.7,2.6-6.8,1c-1.4-1.1-1.2-2.5-1.7-4.9H323.2z"/>
		<path fill="#FFFFFF" d="M178.4,280.1h57.8l6.5-12.1h-31.6l3-5.8h28.1l6.6-12.3h-26.4l2.7-5.6h28.6l6.4-12.1h-56L178.4,280.1z"/>
	</g>
	<g id="Layer_41_copy" display="inline">
	</g>
	<g id="Layer_43_copy" display="inline">
	</g>
	<g id="Layer_48" display="inline">
	</g>
	<g id="Layer_45_copy" display="inline">
	</g>
	<g id="Layer_49_copy_2" display="inline">
	</g>
	<g id="Layer_51" display="inline">
	</g>
	<g id="Layer_53_copy" display="inline">
	</g>
	<g id="Layer_55_copy" display="inline">
	</g>
	<g id="Layer_57_copy" display="inline">
	</g>
	<g id="Layer_59_copy" display="inline">
	</g>
	<g id="Layer_61_copy" display="inline">
	</g>
	<g id="Layer_63_copy" display="inline">
	</g>
	<g id="Layer_64_copy" display="inline">
	</g>
	<g id="Layer_66_copy_2" display="inline">
	</g>
</g>
<g id="color">
	<g id="Layer_5">
	</g>
	<g id="Layer_6">
	</g>
	<g id="Layer_7">
	</g>
	<g id="Layer_11">
	</g>
	<g id="Layer_13">
	</g>
	<g id="Layer_15">
	</g>
	<g id="Layer_17">
	</g>
	<g id="Layer_19">
	</g>
	<g id="Layer_21">
	</g>
	<g id="Layer_23">
	</g>
	<g id="Layer_25">
	</g>
	<g id="Layer_27_copy">
	</g>
	<g id="Layer_31_copy_2">
	</g>
	<g id="Layer_29">
	</g>
	<g id="Layer_33">
	</g>
	<g id="Layer_35">
	</g>
	<g id="Layer_37">
	</g>
	<g id="Layer_39">
		<g>
			<path fill="#0C371D" d="M463.1,257.1c0-56.1-92-116.2-207.1-116.2c-110.3,0-207.1,60.5-207.1,116.2S145.7,373.4,256,373.4
				C371.2,373.4,463.1,313.2,463.1,257.1z"/>
			<path fill="#FFFFFF" d="M336.1,196.7v12.2h19.5l0.1,0c1-0.1,2.8,0.2,3.1,0.8c0.3,0.6,0.2,2.7-2.5,6.9c0,0.1-18.7,31.2-25.7,42.8
				l-27.4-43.8c-2.3-3.5-2-4.9-1.7-5.4c0.5-0.9,1.3-1.2,2.8-1.3h14.2v-12.2l-105.5,0v12.2h13.3c2.7,0,4.6,0.5,5.7,1.7
				c1.9,1.9,2.2,5.8,2.2,11.1v44.8L181,196.7h-52.7v12.8h17.3c1.8,0,3.1,0.3,3.8,1c1.3,1.3,1.3,4.7,1.3,8v70.3
				c0,11.6-1.2,14.8-5.8,14.9h-16.8V315h56.5v-11.4h-15.9c-2.7,0-4.6-0.1-5.3-0.8c-1.5-1.5-1.6-8-1.6-14v-61.9l72.8,88.2H246
				c0,0,0.1-98.1,0-99.9c-0.1-2.7,0.6-5.7,5.4-6.3h11.3c5.2,0,8.7,6.3,12.2,12.3c0,0,27.3,46.3,30.9,52.5V296c0,7.6-3.4,7.6-4.8,7.6
				h-12.8V315h67v-11.5H343c-4.7-0.3-6.4-1.6-6.2-8.7v-23.1l32.7-54.9c4.7-7.3,5.2-8,11.6-7.9h11.1v-12.3H336.1L336.1,196.7z"/>
			<path fill="#0C371D" d="M339.2,199.7v6.1h16.3c0,0,12-1,3.5,12.4l-28.2,47l-30-48c-7.8-12.4,3.8-11.3,3.8-11.3h11v-6.1l-99.4,0
				v6.1h10.3c9.9,0,11,6.4,11,15.9v53.8l-58-75.7h-48.1v6.7h14.3c9.1,0,8.1,7.1,8.2,14.1v68.3c0,9.5-0.4,17.9-8.8,17.9h-13.8v5.2
				h50.4v-5.3h-12.9c-8.6,0.1-10-1.2-10-17.8v-71.1L236,312h6.3V221c0-9.5,0.2-14.8,9-15.1h12.5c6.7,0.5,10.3,8.2,15,16.4l29.9,50.6
				V296c0,7.2-2.8,10.6-7.8,10.6h-9.7v5.3h60.9v-5.4h-9.3c-7.4-0.4-9.4-4.2-9.2-11.8v-23.8l30.8-52.1c6.9-10.3,7.3-13.1,16.6-13h8
				v-6.2H339.2L339.2,199.7z"/>
			<path fill="#0C371D" d="M302.9,313.5c0-13.8-20.8-28.6-46.9-28.6c-25,0-46.9,14.9-46.9,28.6c0,13.7,21.9,28.6,46.9,28.6
				C282.1,342,302.9,327.3,302.9,313.5z"/>
			<path fill="#FFFFFF" d="M299.8,311.9c-1.5-11.8-20.4-23.9-43.8-23.9c-22.4,0-42.1,12.1-43.8,23.9H299.8z"/>
			<path fill="#FFFFFF" d="M212.2,315c1.6,11.7,21.4,23.9,43.8,23.9c23.4,0,42.3-12.1,43.8-23.9H212.2z"/>
			<path fill="#0C371D" d="M240.2,323.7c-5.9,0-10.7-4.6-10.7-10.2c0-5.6,4.8-10.2,10.7-10.2h31.6c5.9,0,10.7,4.6,10.7,10.2
				c0,5.6-4.8,10.2-10.7,10.2H240.2z"/>
			<path fill="#FFFFFF" d="M273.5,308.9l-0.2-0.9h-3c0.1,0.3,0.2,0.6,0.3,1c0.2,1,0.4,1.9,0.5,3h-5.4c-0.1-0.9-0.2-1.9-0.4-2.7
				l-2.9,0c0.3,0.9,0.5,1.8,0.6,2.7h-5.4v-2.6h-3v2.6h-5.4c0.1-0.9,0.3-1.8,0.6-2.7l-2.9,0c-0.2,0.9-0.3,1.8-0.4,2.7H241
				c0.1-1,0.3-2,0.5-3l0.3-1h-3l-0.2,0.9c-0.3,1.5-0.5,3-0.5,4.6c0,1.9,0.2,3.7,0.7,5.4l3,0c-0.4-1.3-0.7-2.6-0.8-4h5.4
				c0.1,0.9,0.2,1.9,0.4,2.8l2.8,0c-0.3-0.9-0.4-1.8-0.5-2.8h5.4v2.6h3V315h5.4c-0.1,0.9-0.3,1.9-0.5,2.8l2.8,0
				c0.2-0.9,0.4-1.9,0.5-2.8h5.4c-0.1,1.4-0.4,2.7-0.8,4l3,0c0.5-1.7,0.7-3.5,0.7-5.4C274,312,273.8,310.4,273.5,308.9L273.5,308.9z
				"/>
			<path fill="#0C371D" d="M392.5,236.9c-3.1-5.9-11.3-9.2-23.7-9.7c-9.1-0.3-16.3,0.2-21.9,1.6l-149.2,0.1
				c4.3-8.1,7.6-14.2,7.6-14.2h-36.8l-25.3,47.5c-2,3-2.3,3.2-4.4,3c-0.6-0.1-1-0.1-1.3-0.2c0.4-1.3,1.9-3.8,2.4-4.8
				c0,0,8.8-14.5,8.8-14.5h-34.3l-1,1.4c-9.4,13-12.2,23.4-8.3,31.1c3.8,7.3,13,11,27.5,10.9c14.6-0.1,23.8-0.8,31.2-5.6h74.4
				l19.2-35.8H274l-19.1,35.8h38l11.9-22.4h16.1l-0.8,2c-2.9,7.2-1.4,12,0.5,14.7c3.6,5.4,11.3,8.1,23,8.1c19.6,0,32.1-1.8,38.1-11
				c5-7.5,5.7-14.4,2.1-19.4c-1-1.4-2.6-2.6-4.4-3.7h10.8l1-1.6C394.9,244.3,394,239.7,392.5,236.9L392.5,236.9z"/>
			<path fill="#FFFFFF" d="M142.7,249.1h-26.4c-17.8,24.5-9,36.7,16.5,36.6c23.2-0.1,31.4-1.6,41.1-19.3l25.8-48.3h-29L146.2,264
				c-2.3,3.4-3.6,5-7.7,4.6c-6.6-0.7-4.8-4.5-1.5-10.1L142.7,249.1z"/>
			<path fill="#FFFFFF" d="M260.6,280.1h30.2l19-35.5h13.9l6.7-12.4h-61.1l-6.5,12.1h16.9L260.6,280.1z"/>
			<path fill="#FFFFFF" d="M323.2,264.4c-4.6,11.3,2.4,18.1,20.3,18.1c19.4,0,30.3-1.8,35.3-9.4c3.4-5.2,5.3-11.1,2.2-15.5
				c-2.2-3.1-10-5.8-17.4-7.2c-4.7-0.9-6.4-2-6-4.8c0.3-2.5,3.4-3.1,5.8-2.4c1.9,0.6,2.7,2.9,2.4,5.4h22.5c6.1-9.8-1-17.3-19.6-18
				c-23-0.8-31.8,3.5-36.5,15.2c-2.3,5.4-1.9,9.6,1.4,11.8c4.2,2.8,15.8,4.5,19.3,5.8c2.1,0.8,2.4,3.4,1.2,4.9
				c-1.4,1.8-4.7,2.6-6.8,1c-1.4-1.1-1.2-2.5-1.7-4.9H323.2z"/>
			<path fill="#FFFFFF" d="M178.4,280.1h57.8l6.5-12.1h-31.6l3-5.8h28.1l6.6-12.3h-26.4l2.7-5.6h28.6l6.4-12.1h-56L178.4,280.1z"/>
		</g>
	</g>
	<g id="Layer_41">
	</g>
	<g id="Layer_43">
	</g>
	<g id="Layer_46">
	</g>
	<g id="Layer_45">
	</g>
	<g id="Layer_49">
	</g>
	<g id="Layer_51_copy">
	</g>
	<g id="Layer_53">
	</g>
	<g id="Layer_55">
	</g>
	<g id="Layer_57">
	</g>
	<g id="Layer_59">
	</g>
	<g id="Layer_61">
	</g>
	<g id="Layer_63">
	</g>
	<g id="Layer_64">
	</g>
	<g id="Layer_66_copy">
	</g>
</g>
</svg>
