<?xml version="1.0" encoding="utf-8"?>
<!-- Generator: Adobe Illustrator 16.0.4, SVG Export Plug-In . SVG Version: 6.00 Build 0)  -->
<!DOCTYPE svg PUBLIC "-//W3C//DTD SVG 1.1//EN" "http://www.w3.org/Graphics/SVG/1.1/DTD/svg11.dtd">
<svg version="1.1" xmlns="http://www.w3.org/2000/svg" xmlns:xlink="http://www.w3.org/1999/xlink" x="0px" y="0px" width="512px"
	 height="512px" viewBox="0 0 512 512" enable-background="new 0 0 512 512" xml:space="preserve">
<g id="grids" display="none">
	<g id="svgGrid_22_" display="inline">
		<line fill="none" stroke="#B35047" x1="32" y1="0" x2="32" y2="512"/>
		<line fill="none" stroke="#B35047" x1="64" y1="0" x2="64" y2="512"/>
		<line fill="none" stroke="#B35047" x1="96" y1="0" x2="96" y2="512"/>
		<line fill="none" stroke="#B35047" x1="128" y1="0" x2="128" y2="512"/>
		<line fill="none" stroke="#B35047" x1="160" y1="0" x2="160" y2="512"/>
		<line fill="none" stroke="#B35047" x1="192" y1="0" x2="192" y2="512"/>
		<line fill="none" stroke="#B35047" x1="224" y1="0" x2="224" y2="512"/>
		<line fill="none" stroke="#B35047" x1="256" y1="0" x2="256" y2="512"/>
		<line fill="none" stroke="#B35047" x1="288" y1="0" x2="288" y2="512"/>
		<line fill="none" stroke="#B35047" x1="320" y1="0" x2="320" y2="512"/>
		<line fill="none" stroke="#B35047" x1="352" y1="0" x2="352" y2="512"/>
		<line fill="none" stroke="#B35047" x1="384" y1="0" x2="384" y2="512"/>
		<line fill="none" stroke="#B35047" x1="416" y1="0" x2="416" y2="512"/>
		<line fill="none" stroke="#B35047" x1="448" y1="0" x2="448" y2="512"/>
		<line fill="none" stroke="#B35047" x1="480" y1="0" x2="480" y2="512"/>
		<line fill="none" stroke="#B35047" x1="0" y1="32" x2="512" y2="32"/>
		<line fill="none" stroke="#B35047" x1="0" y1="64" x2="512" y2="64"/>
		<line fill="none" stroke="#B35047" x1="0" y1="96" x2="512" y2="96"/>
		<line fill="none" stroke="#B35047" x1="0" y1="128" x2="512" y2="128"/>
		<line fill="none" stroke="#B35047" x1="0" y1="160" x2="512" y2="160"/>
		<line fill="none" stroke="#B35047" x1="0" y1="192" x2="512" y2="192"/>
		<line fill="none" stroke="#B35047" x1="0" y1="224" x2="512" y2="224"/>
		<line fill="none" stroke="#B35047" x1="0" y1="256" x2="512" y2="256"/>
		<line fill="none" stroke="#B35047" x1="0" y1="288" x2="512" y2="288"/>
		<line fill="none" stroke="#B35047" x1="0" y1="320" x2="512" y2="320"/>
		<line fill="none" stroke="#B35047" x1="0" y1="352" x2="512" y2="352"/>
		<line fill="none" stroke="#B35047" x1="0" y1="384" x2="512" y2="384"/>
		<line fill="none" stroke="#B35047" x1="0" y1="416" x2="512" y2="416"/>
		<line fill="none" stroke="#B35047" x1="0" y1="448" x2="512" y2="448"/>
		<line fill="none" stroke="#B35047" x1="0" y1="480" x2="512" y2="480"/>
		<rect fill="none" stroke="#B35047" width="512" height="512"/>
	</g>
</g>
<g id="b_x26_w" display="none">
	<g id="Layer_9" display="inline">
	</g>
	<g id="Layer_6_copy" display="inline">
	</g>
	<g id="Layer_7_copy" display="inline">
	</g>
	<g id="Layer_11_copy" display="inline">
	</g>
	<g id="Layer_13_copy" display="inline">
	</g>
	<g id="Layer_15_copy" display="inline">
	</g>
	<g id="Layer_17_copy" display="inline">
	</g>
	<g id="Layer_19_copy" display="inline">
	</g>
	<g id="Layer_21_copy" display="inline">
	</g>
	<g id="Layer_23_copy" display="inline">
	</g>
	<g id="Layer_25_copy" display="inline">
	</g>
	<g id="Layer_27" display="inline">
	</g>
	<g id="Layer_29_copy_2" display="inline">
	</g>
	<g id="Layer_31" display="inline">
	</g>
	<g id="Layer_33_copy" display="inline">
	</g>
	<g id="Layer_35_copy" display="inline">
	</g>
	<g id="Layer_37_copy" display="inline">
	</g>
	<g id="Layer_39_copy" display="inline">
	</g>
	<g id="Layer_41_copy" display="inline">
	</g>
	<g id="Layer_43_copy" display="inline">
	</g>
	<g id="Layer_48" display="inline">
	</g>
	<g id="Layer_45_copy" display="inline">
		<path d="M236,145.6c4.5,4.6,13.2,16.5,13.2,16.5c-113.3-5.2-172.7,71.8-172.7,71.8l17.9,1.6c-58.1,77.4-42.5,132.6-42.5,132.6
			c42.8-58.4,70.9-94.2,144.3-122c0,0-7.1-11-11.4-16c104.7-9.5,203.1,53.7,203.1,53.7s-9.6-23-11.9-28.1
			c47,40.1,85.1,112.7,85.1,112.7C465.2,302.5,431.3,152.6,236,145.6z"/>
		<path fill="#FFFFFF" d="M453.4,341.1c-8.9-99.3-75.8-177.2-201.4-187.6c0,0,12.2,16.4,12.2,16.4c-118.8-8.8-170.9,58.1-170.9,58.1
			s8,0.8,15,1.4c-54.4,64.3-51,118.3-51,118.3C98.4,293.1,129,266.6,185,242.6c0,0-6.6-9.9-15.6-18
			c105.2-15.6,203.8,43.2,203.8,43.2s-9.8-23.6-18.4-36.1C410.4,264.4,453.4,341.1,453.4,341.1L453.4,341.1z"/>
		<path d="M264.3,160.7c3.2,4.4,6.6,8.8,11.8,15.8c-31.3-2.8-111.5-7.8-169.8,47c0,0,13.5,1.2,13.4,1.3
			C99.7,246.3,70.3,291.4,64.1,330c44.4-59.4,86.2-78.2,112.1-89.7c-5-6.6-13.4-14.5-19.8-19c64-14.3,146.9,2.9,204.8,33.7
			c-5.9-13-15.2-26.2-22.2-37.7c56.7,24.2,94.2,82,106,100.3C438.7,285.7,409.5,177.4,264.3,160.7L264.3,160.7z"/>
	</g>
	<g id="Layer_49_copy_2" display="inline">
	</g>
	<g id="Layer_51" display="inline">
	</g>
	<g id="Layer_53_copy" display="inline">
	</g>
	<g id="Layer_55_copy" display="inline">
	</g>
	<g id="Layer_57_copy" display="inline">
	</g>
	<g id="Layer_59_copy" display="inline">
	</g>
	<g id="Layer_61_copy" display="inline">
	</g>
	<g id="Layer_63_copy" display="inline">
	</g>
	<g id="Layer_64_copy" display="inline">
	</g>
	<g id="Layer_66_copy_2" display="inline">
	</g>
</g>
<g id="color">
	<g id="Layer_5">
	</g>
	<g id="Layer_6">
	</g>
	<g id="Layer_7">
	</g>
	<g id="Layer_11">
	</g>
	<g id="Layer_13">
	</g>
	<g id="Layer_15">
	</g>
	<g id="Layer_17">
	</g>
	<g id="Layer_19">
	</g>
	<g id="Layer_21">
	</g>
	<g id="Layer_23">
	</g>
	<g id="Layer_25">
	</g>
	<g id="Layer_27_copy">
	</g>
	<g id="Layer_31_copy_2">
	</g>
	<g id="Layer_29">
	</g>
	<g id="Layer_33">
	</g>
	<g id="Layer_35">
	</g>
	<g id="Layer_37">
	</g>
	<g id="Layer_39">
	</g>
	<g id="Layer_41">
	</g>
	<g id="Layer_43">
	</g>
	<g id="Layer_46">
	</g>
	<g id="Layer_45">
		<path fill="#12274B" d="M236,145.6c4.5,4.6,13.2,16.5,13.2,16.5c-113.3-5.2-172.7,71.8-172.7,71.8l17.9,1.6
			c-58.1,77.4-42.5,132.6-42.5,132.6c42.8-58.4,70.9-94.2,144.3-122c0,0-7.1-11-11.4-16c104.7-9.5,203.1,53.7,203.1,53.7
			s-9.6-23-11.9-28.1c47,40.1,85.1,112.7,85.1,112.7C465.2,302.5,431.3,152.6,236,145.6z"/>
		<path fill="#3997D3" d="M453.4,341.1c-8.9-99.3-75.8-177.2-201.4-187.6c0,0,12.2,16.4,12.2,16.4c-118.8-8.8-170.9,58.1-170.9,58.1
			s8,0.8,15,1.4c-54.4,64.3-51,118.3-51,118.3C98.4,293.1,129,266.6,185,242.6c0,0-6.6-9.9-15.6-18
			c105.2-15.6,203.8,43.2,203.8,43.2s-9.8-23.6-18.4-36.1C410.4,264.4,453.4,341.1,453.4,341.1L453.4,341.1z"/>
		<path fill="#F0C818" d="M264.3,160.7c3.2,4.4,6.6,8.8,11.8,15.8c-31.3-2.8-111.5-7.8-169.8,47c0,0,13.5,1.2,13.4,1.3
			C99.7,246.3,70.3,291.4,64.1,330c44.4-59.4,86.2-78.2,112.1-89.7c-5-6.6-13.4-14.5-19.8-19c64-14.3,146.9,2.9,204.8,33.7
			c-5.9-13-15.2-26.2-22.2-37.7c56.7,24.2,94.2,82,106,100.3C438.7,285.7,409.5,177.4,264.3,160.7L264.3,160.7z"/>
	</g>
	<g id="Layer_49">
	</g>
	<g id="Layer_51_copy">
	</g>
	<g id="Layer_53">
	</g>
	<g id="Layer_55">
	</g>
	<g id="Layer_57">
	</g>
	<g id="Layer_59">
	</g>
	<g id="Layer_61">
	</g>
	<g id="Layer_63">
	</g>
	<g id="Layer_64">
	</g>
	<g id="Layer_66_copy">
	</g>
</g>
</svg>
