<?xml version="1.0" encoding="utf-8"?>
<!-- Generator: Adobe Illustrator 16.0.4, SVG Export Plug-In . SVG Version: 6.00 Build 0)  -->
<!DOCTYPE svg PUBLIC "-//W3C//DTD SVG 1.1//EN" "http://www.w3.org/Graphics/SVG/1.1/DTD/svg11.dtd">
<svg version="1.1" xmlns="http://www.w3.org/2000/svg" xmlns:xlink="http://www.w3.org/1999/xlink" x="0px" y="0px" width="512px"
	 height="512px" viewBox="0 0 512 512" enable-background="new 0 0 512 512" xml:space="preserve">
<g id="grids" display="none">
	<g id="svgGrid_28_" display="inline">
		<line fill="none" stroke="#B35047" x1="32" y1="0" x2="32" y2="512"/>
		<line fill="none" stroke="#B35047" x1="64" y1="0" x2="64" y2="512"/>
		<line fill="none" stroke="#B35047" x1="96" y1="0" x2="96" y2="512"/>
		<line fill="none" stroke="#B35047" x1="128" y1="0" x2="128" y2="512"/>
		<line fill="none" stroke="#B35047" x1="160" y1="0" x2="160" y2="512"/>
		<line fill="none" stroke="#B35047" x1="192" y1="0" x2="192" y2="512"/>
		<line fill="none" stroke="#B35047" x1="224" y1="0" x2="224" y2="512"/>
		<line fill="none" stroke="#B35047" x1="256" y1="0" x2="256" y2="512"/>
		<line fill="none" stroke="#B35047" x1="288" y1="0" x2="288" y2="512"/>
		<line fill="none" stroke="#B35047" x1="320" y1="0" x2="320" y2="512"/>
		<line fill="none" stroke="#B35047" x1="352" y1="0" x2="352" y2="512"/>
		<line fill="none" stroke="#B35047" x1="384" y1="0" x2="384" y2="512"/>
		<line fill="none" stroke="#B35047" x1="416" y1="0" x2="416" y2="512"/>
		<line fill="none" stroke="#B35047" x1="448" y1="0" x2="448" y2="512"/>
		<line fill="none" stroke="#B35047" x1="480" y1="0" x2="480" y2="512"/>
		<line fill="none" stroke="#B35047" x1="0" y1="32" x2="512" y2="32"/>
		<line fill="none" stroke="#B35047" x1="0" y1="64" x2="512" y2="64"/>
		<line fill="none" stroke="#B35047" x1="0" y1="96" x2="512" y2="96"/>
		<line fill="none" stroke="#B35047" x1="0" y1="128" x2="512" y2="128"/>
		<line fill="none" stroke="#B35047" x1="0" y1="160" x2="512" y2="160"/>
		<line fill="none" stroke="#B35047" x1="0" y1="192" x2="512" y2="192"/>
		<line fill="none" stroke="#B35047" x1="0" y1="224" x2="512" y2="224"/>
		<line fill="none" stroke="#B35047" x1="0" y1="256" x2="512" y2="256"/>
		<line fill="none" stroke="#B35047" x1="0" y1="288" x2="512" y2="288"/>
		<line fill="none" stroke="#B35047" x1="0" y1="320" x2="512" y2="320"/>
		<line fill="none" stroke="#B35047" x1="0" y1="352" x2="512" y2="352"/>
		<line fill="none" stroke="#B35047" x1="0" y1="384" x2="512" y2="384"/>
		<line fill="none" stroke="#B35047" x1="0" y1="416" x2="512" y2="416"/>
		<line fill="none" stroke="#B35047" x1="0" y1="448" x2="512" y2="448"/>
		<line fill="none" stroke="#B35047" x1="0" y1="480" x2="512" y2="480"/>
		<rect fill="none" stroke="#B35047" width="512" height="512"/>
	</g>
</g>
<g id="b_x26_w" display="none">
	<g id="Layer_9" display="inline">
	</g>
	<g id="Layer_6_copy" display="inline">
	</g>
	<g id="Layer_7_copy" display="inline">
	</g>
	<g id="Layer_11_copy" display="inline">
	</g>
	<g id="Layer_13_copy" display="inline">
	</g>
	<g id="Layer_15_copy" display="inline">
	</g>
	<g id="Layer_17_copy" display="inline">
	</g>
	<g id="Layer_19_copy" display="inline">
	</g>
	<g id="Layer_21_copy" display="inline">
	</g>
	<g id="Layer_23_copy" display="inline">
	</g>
	<g id="Layer_25_copy" display="inline">
	</g>
	<g id="Layer_27" display="inline">
	</g>
	<g id="Layer_29_copy_2" display="inline">
	</g>
	<g id="Layer_31" display="inline">
	</g>
	<g id="Layer_33_copy" display="inline">
	</g>
	<g id="Layer_35_copy" display="inline">
	</g>
	<g id="Layer_37_copy" display="inline">
	</g>
	<g id="Layer_39_copy" display="inline">
	</g>
	<g id="Layer_41_copy" display="inline">
	</g>
	<g id="Layer_43_copy" display="inline">
	</g>
	<g id="Layer_48" display="inline">
	</g>
	<g id="Layer_45_copy" display="inline">
	</g>
	<g id="Layer_49_copy_2" display="inline">
	</g>
	<g id="Layer_51" display="inline">
	</g>
	<g id="Layer_53_copy" display="inline">
	</g>
	<g id="Layer_55_copy" display="inline">
	</g>
	<g id="Layer_57_copy" display="inline">
	</g>
	<g id="Layer_59_copy" display="inline">
		<path fill="#FFFFFF" d="M195.6,339.9c-1.1,0.3-3.4-0.2-3.4-0.2c0.8,5.6,1.6,7.5,1.6,7.5l-1.3,1.5l1.6,1.1
			c-1.7,11.1,3.4,18.7,5.7,26.1c-1.9,0.6-4,0.5-5.6-0.3c0.6,6.3,0.1,18.3-5.4,23.6c-1-0.6-1.8-0.8-2.2-1.4c-0.8,1.8-1.4,2.5-3.1,6.9
			c-0.9,3-1.7,7.2-2.2,11.8c-4.5-2.1-9.5-4.4-13.9-11.3c-1-1.6-1.7-3-4.1-5.1c-0.6,1-0.7,1.3-1.8,2.3c-1.2,1-4.2,2.3-4.3,2.2
			c-0.6-2.8-1.4-5.4-3.2-8.5c-1.7-3.5-7.6-8.1-12.4-19.4c-2-4.3-3-8.2-3.8-12.6c-0.4,0.2-0.6,0.3-0.9,0.3c-1.8,0.5-3.1,0.3-3.7-0.9
			c-1.5,3.8-3.4,5.9-5,6.9c-0.7,2.2-0.6,2.7-2.2,4.5c-1.5,2-2,2.6-3,6.4c-1.7,3.9-4.2,5.9-4.5,6.9c-0.6-1.2-0.9-1-1.5-1.9
			c-6.1,7.4-6.8,9.3-20.5,12c3.5-6.3,5.8-16.8,5.6-18.9c-1.7-14.7-3.3-17.8-4.2-29.2c-0.5-5.7-2-19.7-0.6-38.4
			c1.5-22.6,8.4-42,14.3-56.7c7.7-20.5,25.2-53.5,38-73.7l0.1-18.3h4.9l5.2-10.9l2.3,1.6l8.9-21.9l6.3,16.5l10.8-6.3
			c4.3-3.6,34.9-44.4,99.8-44.3c62.9-0.1,127.6,45.3,127.6,117.7c0,65.8-58.3,116.6-125.6,116.6c-52.1,0-85.7-24.5-103.5-46.9
			C187.5,296.4,185.1,318.8,195.6,339.9L195.6,339.9z"/>
		<path fill="none" stroke="#FFFFFF" stroke-width="2.584" d="M195.5,339.9l-1,0.1l-1.1-0.1l-0.9-0.2l-0.4-0.1l0.6,3.5l0.5,2.3
			l0.4,1.3l0.1,0.4l-1.3,1.5l1.6,1.1l-0.2,7.7l1.5,6.7l2.3,6l2.1,5.6l-2.9,0.3l-2.7-0.7l0.2,5.6l-0.6,6.6l-1.8,6.4l-3.3,5l-1.3-0.7
			l-0.9-0.7l-0.6,1.2l-0.6,1.3l-0.8,1.8l-1.1,2.7l-1.3,5.3l-0.9,6.5l-3.5-1.7l-3.5-2.2l-3.5-3.1l-3.4-4.4l-0.7-1.2l-0.8-1.2
			l-1.1-1.3l-1.5-1.5l-0.7,1.2l-1.1,1.1l-1.2,0.8l-1.4,0.7l-1.2,0.5l-0.5,0.2l-1.1-4.1l-2-4.4l-2-2.9l-3.1-3.9l-3.6-5.3l-3.7-7.3
			l-2.3-6.3l-1.5-6.4l-0.9,0.3l-2.3,0.2l-1.4-1.1l-2.5,4.5l-2.5,2.4l-0.4,1.4l-0.4,1l-0.5,1l-0.9,1.1l-0.9,1.3l-0.7,1.2l-0.6,1.6
			l-0.7,2.4l-1.4,2.6l-1.4,1.9l-1.1,1.4l-0.6,1l-0.7-1.1l-0.7-0.8l-2.1,2.5l-1.8,2.1l-1.7,1.7l-1.8,1.4l-2.2,1.2l-2.8,1.1l-3.6,1
			l-4.6,1l2.4-5.3l1.8-5.7l1.1-4.9l0.3-3l-1.3-9.2l-1.2-6.7l-1-6l-0.8-7.3l-0.5-5.8l-0.5-8.5l-0.2-11l0.6-13.1l2-16.3l3.5-15
			l4.3-13.5l4.5-11.9l3.3-8.2l4.1-9.1l4.6-9.7l5.1-10l5.3-9.9l5.4-9.6l5.3-9l5-8.1l0.1-18.3h4.9l5.2-10.9l2.3,1.6l8.9-21.9l6.3,16.5
			l10.8-6.3l1.1-1.1l1.7-1.9l2.4-2.5l3-3l3.7-3.4l4.4-3.7l5.1-3.9l5.8-4l6.5-4l7.2-3.8l7.9-3.5l8.7-3.1l9.4-2.6l10.2-2l11-1.3
			l11.8-0.4l11.8,0.5l11.7,1.5l11.6,2.6l11.3,3.5l11,4.5l10.5,5.4l10,6.3l9.4,7.2l8.6,8.1l7.8,8.9l6.9,9.7l5.8,10.5l4.7,11.2
			l3.5,11.9l2.2,12.6l0.7,13.3l-0.7,12.2l-2,11.8l-3.2,11.3l-4.3,10.8l-5.4,10.2l-6.4,9.6l-7.4,8.9l-8.2,8.2l-9,7.5l-9.7,6.6
			l-10.4,5.8l-10.9,4.8l-11.4,3.8l-11.9,2.8l-12.2,1.7l-12.5,0.6l-18.7-1.1l-17-3.1l-15.3-4.8l-13.7-6.1l-12.1-7.2l-10.5-7.9
			l-8.9-8.3l-7.4-8.5l0.3,4.7l0.2,5.6l0.2,6.4l0.5,7l0.9,7.4l1.5,7.8l2.3,7.9L195.5,339.9"/>
		<path d="M288.1,326.6c66.9,0,121.2-50,121.2-111.7c0-61.7-54.2-111.7-121.2-111.7s-121.2,50-121.2,111.7
			C166.9,276.6,221.2,326.6,288.1,326.6z"/>
		<path fill="#FFFFFF" d="M288.1,311c57.6,0,104.3-43,104.3-96.2c0-53.1-46.7-96.1-104.3-96.1c-57.6,0-104.2,43-104.2,96.1
			C183.8,267.9,230.5,311,288.1,311z"/>
		<path fill="#010101" d="M222.4,205.7c0,0-8.5,19-8.2,34.1c0,0,2.7-5.6,3.6-4.7c0,0-7.7,23.7-1.9,37.3c0,0,1.2-3.8,3.3-6
			c0,0,3.2-4.7,4.5-8.4c0,0,0.6,1.6,1,4.4c0,0,2.8-3.3,3.5-5.6c0.5-1.8,1.7-3.8,2.6-6l1,0.5c0,0,5.8-6.5,8-12.4c0,0,1.7-0.2,0.9,4.4
			c0,0,4.8-4.3,4.9-11.1l1,1c4.1,4.7,4.1,11.8,4,16.3c-1,14.2-8.9,21.9-18.8,30.2l0.9,0.7c14.7-2.5,24.4-4,39.3,0
			c5.7,1.5,19.4,7.3,26.1,11.2c0,0,14.8,5.9,25.2,5.9c0,0,0.5,0.2,0.5-0.3c0,0-1.1-3.5-0.1-16.8c0,0,1.1-6.1,2-10.4
			c0,0,1.1-2.8,1.2-8.7c0-0.5-0.5-4,2.1-3.6c5.6,0.7,8.8-0.5,13.1-1.1c0,0,4.6-1.2,6.4-1.4c0,0,4.3,0.6,5.7,0.2
			c1.5-0.5,3.1-1.6,5.1-3.3c0,0,2.2-2.2,0.7-7.1c0,0-1.5-4.4-0.6-5.8c0,0,1.3-3,3.2-4.8c0,0,1.4-2-0.5-3.1c0,0-1-1,0.7-1.4
			c0,0,1.2,0.1,2-0.3c0,0,0.4-0.2,0.5-1c0.1-0.9,0.5-5.4-2.7-9.2c0,0,0.9,0.2,1.6,0.5c0,0,3.9,0.3,6-0.6c1.8-0.9,4.4-2,4-7.5
			c-1-4.6-3-7.3-5-12.4c-2.3-5.5-2.7-8.2-7.6-12c-3-1.3-4.3-3.3-2.1-5.4c1.7-2.4,1.1-6.7-2-9.7c-3-2.7-5.2-6.9-6.3-9.1
			c-1.5-2.3-3.1-4.8-4.6-6.3c-1.5-1.7-3.7-2.7-7.7-7.1c0,0-2.4-1.9-2.7-4c-3.3-4.8-12.6-11.5-23.2-12.2c-3.1-0.3-3.1-0.3-5.3-0.6
			c-3.7-1.3-15.3-1.6-23.2,0.5c-2.6,0.5-7.7,1.4-7.7,1.4c-2.7,0.8-6.5,1.5-10.7,3.9c-3.1,1.5-7.7,5-11.1,7.3
			c-3.7,3.4-12,8.4-16.6,11.3c-8.9,6-16.6,14-21,19c0,0-11.2,13-16.8,35.4c-0.4,3.4-1.4,6.7-0.7,10.5c0,0,5-9.9,9.5-13
			c0,0-0.6,1.8-1,4.8c0,0,2.3-4,3.3-4.7c0,0,1.7-1.7,4.2-4.4c0,0,5.2-6.3,6.7-7c-1.9,3.3-2.3,5.5-2.5,8.9c0.8-0.7,1.3-1.2,1.5-1.6
			c0,0,0.5-0.9,1-0.7C222.8,205.3,222.4,205.7,222.4,205.7L222.4,205.7z"/>
		<path fill="#FFFFFF" d="M371.4,215.7c1.3-2.5,1-5-0.8-7.9c-1.1-1.7-1.8-3.6-2.7-6c-0.4-1-1.1-3-2-4.7c-0.1-0.7-1.6-3.9-2.6-5.1
			c-2.5-3.3-4.5-3.6-5.9-5l-0.5,0c-1.4,0.9-1.5,2.8-2.7,4.3c-0.1,0.2-0.5,0.4-0.8,0.2c-0.4-0.2-0.5-0.5-1-1.1
			c-0.4-0.6-0.7-0.2-1.2,0.3c-0.3,0-0.5,0.2-0.7,0.4c-0.4,0.4-0.1,0.6,0.2,1c0.3,0.4,0,0.4,0.2,0.6c-0.1,0.2-0.1,0.2-0.2,0.3
			c-0.2,0.2-0.6,0.2-0.9,0.1c-0.8-0.1-0.6-0.1-1.4-0.4c-0.9-0.4-1.3-1.5-2-1.8c-0.2-0.1-0.9-0.2-1.4,0.1c-0.4,0.2-0.6,0.8-0.2,1.1
			c0.6,0.5,1,1.1,1.7,1.5c0.8,0.6,1.8,1,1.9,1.8c0.1,1-1.5,1.4-2.3,0.9c-0.4-0.3-0.9-0.6-1.3-1c-0.1-0.1-0.1-0.4-0.2-0.5
			c-0.4-0.2-0.8-0.5-1-0.8c-0.4-0.5-0.8-1-1.4-1.2c-0.2,0-0.3-0.2-0.4-0.4c-0.3-0.5,0-1-0.2-1.5c-0.2-0.4-0.3-0.9-0.8-0.7
			c-0.5,0.5-0.4,0.5-1,0.4c-0.7-0.1-0.1-1.3-0.1-1.1c0,0.1,0,0,0.2-0.4c-0.5-0.1-1.2-0.5-0.7-1.2c0.5-0.6,1,0.3,1.2-0.1
			c0.1-0.1,0.5-0.8,0.6-0.9c0.6-0.3,0.7,0.1,0.8,0.2c-0.2,0.6,0.5,1,1.2,0.7l0.1-0.6c0.6-1,1.6-1.5,2.6-2.2l0.4-0.2
			c0.3-0.5,0.6-1.3,0-1.6c-0.5-0.2-1.6,0-1.4-0.9c0.1-0.4,0.7-0.6,1-0.7c1.2-0.5,2.4-1,3.6-1.5c0.3-0.1,0.8-0.5,1.2-0.5
			c1.5-0.1,1.2-0.1,3.1,0.2c0.3,0,1,0.4,1.3,0.5c1,0.3,2.4,0.2,3.1-0.8c0.7-1,0.5-2.6-0.2-3.8c-0.8-1.4-2-2.6-3-3.5
			c-1.3-1.2-3-1.9-3.4-3.5c-0.4-2.1-2.2-4.8-3.1-6.4c-1-1.7-1.9-2.8-3.2-4.4c-0.3-0.4-2.2-2.2-2.5-2.4c-2.2-2-3.1-2.6-5.4-3.4
			c-1.2-0.4-5.8-0.1-8.2-0.4c-0.8-0.1-3.1-0.1-3.7-1.3c-0.6-1-1.3-2.5-2.5-3.2c-0.4-0.2-1.1-0.5-1.5-0.7c-2.2-1-4.4-2.7-6.8-2.6
			c-0.9,0,0,0.9,0.2,1c1.1,0.5,1.5,1.1,2.1,1.7c0.6,0.7,1.9,0.7,3.1,1.1c1.1,0.4,2,1,3,1.5c1,0.5,2.2,2,1.2,2.6
			c-1,0.6-2-0.1-3.2,0.2c-0.3,0.1-0.6,0.2-2.1,0.2c-1.9,0.2-2.6-0.6-4.1-1.6c-1.5-1-2.4-2.5-3.9-3.4c-1.8-1.2-3.6-2.1-5.6-2.8
			c-0.4-0.1-1,0.1-1.4-0.1c-0.7-0.4-1.2-1.1-2.1-1.2c-1.5-0.1-1.5-0.2-3,0c-0.2,0-0.8,0.6-0.9,0.6c-0.9,0-1.9-0.3-2.4,0.2
			c-0.7,0.7,0.2,0.6,1,1c0.5,0.2,1.5,0.7,2.1,0.7c2.5,0,4.1-0.1,6.1,0.9c0.2,0.1,1.1,0.9,1.1,1.2c-1.9,0-4.8-0.7-6.9-0.5
			c3.6-0.3-3.7,0.1-5.3,0c-0.5,0-0.5,0.9,0.3,1.4c0.2,0.1,1.3-0.1,1.4,0.3c0.6-0.3,2.5-0.2,3,0c0.9,0.3,0.4,0.2,1.2,0.6
			c0.5,0.2,1,0.6,1.5,0.5c0.8-0.1,0.8-1.1,1.6-0.8c0.3,0.1,0.8,0.4,1,0.4c4.3-0.1,4.4,1.2,6.4,1.1c0.5,0,1.3-0.2,1.7,0
			c0.8,0.5,1.6,0.6,2.8,0.1c0,0,2.8,7.1,2.1,19.9c-0.7,5.5-1.1,6.5-2.5,10.9c0,0-2,7.1-1.2,12c0.8,16.5-4.7,30.2-10.6,39.3
			c-2.2,2.5-3.5,3.9-1.2,5.7c4.7,4,8.5,4.9,15.2,6.3c2.4,0.7,3.8,0.9,6.1,0.9c3.5,0,8.9,1.4,11.4,3.1c2.3,1.1,8.6,3.3,12.5,2.7
			c3.3,0.2,4.3,0.5,5.9,1c1.1,0.4,2.2,0.4,3.5,0.1l1.9-1.3c0.2-0.6,2-1.3,1.7-3.6c-0.1-1.7-0.9-3.5-1.2-5.1c-1.1-1.4-1-2.5-0.6-3.9
			c1.1-2.1,2.4-3.1,3.1-4.1c1.5-1.5,0.6-2.6-1.4-3.1c-1-0.4-2.9-0.2-4.9-0.4c-1,0-1.9-0.4-3.4-0.1c0,0-1,0.6-1.5,1.1l-0.8-0.4
			c0,0,0.7-1.8,2.1-2.9c1.4,0.2,3.5,0.4,4.6,0.1c1.3-0.5,2.7-0.8,3.8-1.1c1.9-0.2,2.7-0.1,4.9,0.1c0,0,1.1-4.4-2.8-7.8
			c-0.9-0.8-1.7-1.8-3-1.9c-4.7,0.5-7.3-1.3-8-1.7c-1.2-0.1-1.5,0.4-2.2,1.1c-1.6,2.5-3.5,3.4-3.5,3.4l-1-0.1c0,0,0.9-1.4,2.8-3.6
			c0.9-1.8,2.1-4.1,3.2-5.2c0.7-1.1,0.9-3.5,2.5-4.2c0.8,0,0.9-0.2,1.5,0.2c-1.2,1.1-4.7,5-1.1,7.3c1.5,1.1,3.7,1.1,4.2-0.1
			c0.3-0.7,0.9-1.1,1.2-1.3c1.9-0.3,3.4,0.5,4,1c1.5,1.6,2.4,2.3,3.1,2.7c0.8,0.6,2.3,0.5,3,0.5C369.7,217.8,371,216.5,371.4,215.7
			L371.4,215.7z"/>
		<path fill="#FFFFFF" d="M345.6,189c0.7,0.3,1,0.2,2.6,0.4c0,0,1.3,0.2,2.5-0.8c0.2-0.2,1.2-0.6,1.2-1c-0.1-1.7,0.2,1.1-0.2-1.5
			c-0.1-0.6-0.1-1.1-0.3-1.6c-0.1-0.3-0.6-0.8-1.4-0.6c-0.1,0.1-1.4,1-1.4,1c-0.7,1.2-1.7,1.3-2.2,2.1l-0.9,1.3
			C345.4,188.6,345.3,188.8,345.6,189L345.6,189z"/>
		<path fill="#0C130F" d="M357,206.1c2.1-0.6,3.1,0.3,5.5,1.7c0.4,0.3,0.7,0.9,0.2,1.3c-0.2,0.1-0.6,0.1-0.8,0
			c-2.1-1.8-2.7-1.8-5-2.2C356.8,206.9,356.4,206.3,357,206.1L357,206.1z"/>
		<path fill="#0C130F" d="M344.4,226.2c-0.3,0.9-0.6,1.7-1.1,2.5c-0.4,0.9-0.2,2-0.9,2.8c-0.3,0.4-1.1,0.2-1.2-0.2
			c-0.4-1.6-0.2-3.2,0.6-4.6c0.4-0.7,1.5-1.1,2.4-0.8l0.1,0.5L344.4,226.2L344.4,226.2z"/>
		<path fill="#0C130F" d="M323.1,215.7c-0.7-0.2-1.1-0.8-1-1.5c0.2,0.1,0-0.3,0.2-0.2c1.5,0.1,2.9,0.6,4.3,0.7
			c1.7,0,3.4-0.3,4.9-0.9c1.9-0.8,3.6-1.7,5.4-2.9c0.8-0.5,2-0.8,3-1c1.6-0.3,1.5-1.2,2.7-1.8c1.7-0.9,1.6-1.6,2.6-1.3
			c0.3,0.1-0.3,0.7-0.6,0.9c-0.7,0.5-1.5,1.1-2.1,2.1c-0.1,0.2-1,1.1-1.2,1.2c-2,1.4-2.4,2.5-3.9,4.2c-0.8,1-1.1,2.2-1.7,3.3
			c-0.3,0.7-0.5,1.3-1,1.9c-0.2,0.2-0.9,0.1-1.1,0.3c-1.2,1.1-2.4,2.1-3.3,3.6c-0.2,0.2-0.7,0.2-0.7,0.1c-0.8-1.4-1.9-2.5-3.8-2.5
			c-0.3,0-0.7-0.7-0.7-1.3c0-0.1-0.1-0.4-0.3-0.4c-0.3,0-0.4-0.3-0.7-0.3c-0.3,0-0.6-0.5-0.6-0.7c-0.4-1.1-0.2-2.3-0.5-3.5
			L323.1,215.7L323.1,215.7z"/>
		<path fill="#FFFFFF" d="M295.8,247.3c-0.3-1.1-2.3-1-3.7-0.9c-2.2,0.2-4.1,0.6-6.2,1.6c1.4-1.9,3.1-2,6.3-3.2
			c0.7-0.3,0.6-1.5,0.1-2.2c-0.5-0.8-1.3-0.8-1.5-0.9c-2.7-0.5-3.5,0.1-4.9,0.4c-4.9,1.2-9.7,4.6-12.4,7.8c-0.8,1-0.5,2-0.4,2.2
			c0.5,0.6,1.3,2.3,1.5,2.1c2-2,4.4-3.8,7-3.2c-1.1,0.3-5,2.2-6.2,4.8c-0.1,0.2,0.5,1.1,1.2,1.6c1,1.5,1.4,2.2,1.9,2.4
			c0.3,0,1.1-0.7,1.3-1c2.7-3.3,5.4-5.4,13-6.3c2.2-0.3,3.4-0.9,3.6-2.7c0,0,0.4-0.9-0.4-2.7"/>
		<path fill="#FFFFFF" d="M286.8,257.9c0.1,1.7-0.1,2.5,0.4,3.6c0.5,1.1,1.6,2,2,3.1c0.3,0.8,1.4,1.9,1.4,2.5
			c0.5,0.4,0.6,0.9,0.6,0.9c0.7,0.8,2.6,1.8,1.9,2.2c-0.8,0.6-3.2,0.2-4.7-0.1c-1.9-0.3-0.8,1.3-0.4,1.4c1.9,0.7,5.9,1,7.2,1.6
			c0.8,0.4,1.8,1,2.2,1.7c0.2,0.5,0.7,1,1.1,1.5c1.2,1.6,1.7,2.2,3,3.2c0.6,0.5,1.4,1.3,1.2,2.1c-0.3,0.9-0.9,1.1-1.8,0.9
			c-0.3,0-1.2-0.3-2.1-0.6c-1.7-0.5-2.1-1.1-3.3-0.5c-0.7,0.3,0.3,1.4,1.1,1.7c3.1,1.5,6.8,1.6,9.9,3.2c2.6,1.4,4.1,3.1,4,6.6
			c0,0.1,0.9,0.5,1,0.5c0.9-1.3,3.1,0.3,4.2,0c0.1,0,0.1-0.6,0-0.8l-2.1-1.4c-0.5-0.7,0.2-1.5,0-2.2c-0.3-0.6-1.5,0.5-1.9,0.1
			c-2-1.9-3.3-4.1-5.9-5.2c1.1-2.8,1.6-6,1.3-7.5c-0.7-0.6-1,0.3-1.2,0.5c-0.6,0.5-0.4,1.7-1.1,2.6c-0.1,0.1-1.1,0-1.3-0.2
			c-1.8-1.4-3.5-3.1-4.4-5.2c0-0.1-0.4-0.5-0.5-0.6c-1.3-1.7-1.3-4.1,0.3-5.9c0.2-0.2,0.4-1.3,0.3-1.4c-0.3-0.2-0.9,0.2-1.2,0.4
			c-0.8,0.8-1.6,2.4-3,2.3c-1.6-0.2-2.2-1.7-3.2-2.6c-0.3-1-0.9-1.6-0.7-1.7c-1.4-1.8-1.5-3.3-2.7-5.6
			C287.7,258.3,287.3,258,286.8,257.9L286.8,257.9z"/>
		<path fill="#FFFFFF" d="M296.2,288.7c1.6,0.8-0.2-1-0.2-1c-0.6-0.4-2.1-2.5-2.4-3c-0.7-1.1-1.2-2-1.6-2.8
			c-0.6-1.4-1.8-2.3-3.8-4.1c-1-0.9-2.5-2.5-3.2-3.6c-1-1.8-1.5-5-3.9-6.5c-1.8-1.2-1.4-2.5-2.9-4.7c-0.6-0.9-1.8-1-2.7-1.8
			c-2.3-2.1-0.8-2.9-2.8-4.8c-0.9-0.8-1.3-1-2-2.3c-1-1.7-0.2-3.8-1.9-4.6c-1.5-0.7-2.6-0.9-3.6-1.2c-1.6-0.5-4-1.6-5.4-2.7
			c-1.5-1.1-4.5-3.4-7.7-6c2,14-0.8,26-15.8,38.5C264.1,273.3,276.3,279.3,296.2,288.7L296.2,288.7z"/>
		<path fill="#FFFFFF" d="M306.7,270.8c0.1,1.1,0.5,0.9,1.2,2.5c0.3,0.8,1.3,2.2,1.8,2.6c2.9,2.2,4.8,5.6,4.6,9.1
			c0.1,1.7,0.2,1.6,2.1,2.8c0.3,0.2,0.5,0.2,1.5,1.1l3.4,3.2c-0.1-1,0.1-2.8,0.1-3.3c-0.2-5.4,1-10.9-1-15.6
			c-1.5-3.5-4.8-7.5-6.1-11.2l-0.7-2c-0.7-2.9-0.8-5.8-0.8-5.8l-4.1-1.8c-3.3-1.2-6.9-2.3-10.2-3.4c0,1.6,0.2,2.7-1,4.3
			c0.9,1.9,1.6,6.2,2.6,7.2c2.2,1.9,3.9,3.4,5.3,7.9C305.7,269.4,306.7,270,306.7,270.8L306.7,270.8z"/>
		<path fill="#FFFFFF" d="M256.5,149.5c0,0-2.5-0.2-8.3,3.9c-6.4,3.6-14.9,8.9-21.1,15.8c-4.5,4.2-10.9,10.5-13.2,14.9
			c0,0-3.8,5.6-6.3,14.7c0,0,0.9,3,3.3-0.9c4.3-6.8,20.7-29.6,44.2-46.2l1.1-0.1c-11.6,9.2-26.7,21.6-41.3,42.8
			c-0.5,0.8-1.2,2.2-1.3,2.3c-0.7,1.1,1,1.3,0.2,1.1c1.3,0.3,1.8-1.4,2.7-1.8c0.5-0.2,0.8,1.2,1.6,0.9c3-1.3,5.2-4.2,6.4-5.9
			c0.1,0.5,0.8,1.9,0.8,1.9c1.4,0.3,5.6-5,7.8-8.7c0.6,0.7-0.1,2.3,0.7,1.6c2.5-2.2,4.8-4.6,6.2-6.7c1.6-2.5,3.3-3.7,3.9-8.1
			c1,0.6,1,0.8,1.2,1c0.6-0.7,0.7-1.4,1.6-2.4c1.1-1.1,1.3-2,2.6-2.8c0.5-0.3,1.5-2.1,1.7-3c0.2-0.9,2.3-3.7,2.5-4.7
			c1.7-3,4.7-4.6,6.8-6.8C262.2,150.8,260.7,148,256.5,149.5L256.5,149.5z"/>
		<path fill="#FFFFFF" d="M234.8,238.4c0.9,0.9,1.6-0.3,1.6-0.3c1.4-2,1.7-2.5,2.7-5.2c0.6-1.8,1.4-2.4,2-9.8c1.7,2.4,2,6.9,2,6.9
			l0.5-0.1c0,0,1.6-4.2,4.3-5.6c0,0,0.2-2.8,3-5.7c-0.4-1.7-0.6-3.1-1-5.8c-1.1-4.6-1.7-12.2-0.6-17.4c2.2,10.9,3.5,12.5,3.5,12.5
			l0.5,0.2c0.9-1.3,1.2-3.6,1.4-5.6c1.1-4.3,3.1-3.9,3.1-4.8c-0.6-3.5-1.6-9.1-1-13.9c1.2,5.2,1.9,4.9,2.7,6.8
			c1.1,2.4,1.2-0.6,1.2-0.6c-0.2-3.1,2.1-6.2-0.1-13.3c-0.9-4.9-3.3-15.4-2.3-17.8c0.6-3-0.5-1.9-0.5-1.9s-3.2,0.7-8,13.2
			c-7,20.8-13.1,43.1-19.6,61.1c2-9.5,12.5-42.8,15.6-54.9c0,0-0.4-0.9-1.1,0.1c-0.8,0.9-1.6,1.9-2,2.7c0.1,0-0.4,0.1-0.9,0.3
			l-1.6,2.2c0,0-3.1,4-11.5,12.1c-1.4,2.1-2,3-3.6,6.3c-0.6,1.2,0.3,1.4,1.2,0.7c2.3-2.1,2.4-2.1,5.6-4.3c0.1-0.1,2.7-0.9,2.7-1
			c-0.4,0.5-0.9,0.8-1.1,1c-0.9,0.8-3,3-3.6,3.9c-1.4,2.3-3,5.1-5.1,8.6c-2.6,4.3-4.6,9.3-4.6,9.3c-1.4,3.5-1,3.9-1,3.9
			c1.8,0.7,0.8,1.5,0.8,1.5c-0.8,1.4-1.2,2.6,0.2,2c0.9-0.2,1.4-0.6,1.8-1c0.7-0.8,1.3-1.4,1.8-2c0.8-1,0.7-1.2,1.6-2.2
			c1.1-1.2,1.9-2.3,3.1-2.8c-2,2.6-2.2,4.4-2.2,4.4l0.5,0.6l0.4,0.2c0,0-2.1,2.4-3.1,7.8c-0.5,2.6-0.4,2.9-0.8,4.3
			c0.2-0.2,1.4,0,2.5-1c-0.5,1.6-0.6,2.4-0.6,2.4c-0.2,1.3-0.2,1.1-0.2,2.6c0,1.4,0,0.8,0.5,2.4c2.2-0.9,2.7-0.8,4.8-3.1
			c1-0.9,1.8-2.9,2.1-2.8c0.5,0.2,0.1,1.4-0.2,1.9c-0.3,0.7-0.6,1.3-0.8,1.8c-0.1,0.3-0.4,0.6,0.1,1c0.2,0.2,0.1,0.1,0.7,0.1
			c0.4,0,0.7-0.5,0.7-0.5s0.2,0,0.4-0.4c0.1-0.3,0.4-0.5,0.7-0.7C234,238.7,234.4,238.3,234.8,238.4L234.8,238.4z"/>
		<path fill="#0C130F" d="M177.6,168.3H175l8.5-17.9l-10.5,7.6l-2.4-11.3l-5.5,15.4l-2.7-1.9l-4,8.3h-3v9h18.2L177.6,168.3
			L177.6,168.3z"/>
		<path fill="#0C130F" d="M162.2,177l9.6,5.9l1-2.6l-5.7-3.4L162.2,177L162.2,177z"/>
		<path fill="#0C130F" d="M164.9,175.8l5.2,4.9c0,0-4.1,15.8-3.3,24.5c7.5,6.7,13.1,13.2,12.2,27.8c0,0,0.5,0.3-2.7-0.6
			c1.6,1.6,2.1,2.8,3.5,5.6c0.6,4.4,1,8.4,0.6,12.5c0,0,0.4,10.1,0.7,13.3c1.5,0.5,0.6,4.1,0.7,8.9c0,0-0.1,3-0.6,5.2
			c-3.1-2.3-2.8-2.2-3.7-1.9c0.7,2.3,1.2,2.3,2.7,4.1c0,13.6,0.5,27.6,1.5,33.7c0.5,4.4,1.4,9.6,1.7,11.2c0.7,2,0.7,3.9,3,8.2
			c-0.7,0-2.8,0.1-4.2-1.6c2,3.4,2,2.7,3.2,3.9l1.7,11.8l-2,2l2.7,1.6c0,0-0.6,5.4,0.1,10.3c0.4,2.3,1.1,4.6,2.8,7.7
			c-3.6,0.1-4.2-2.6-4.2-2.6c-1-1-2.7-3.3-3.2-3.3c-0.2,3.3,1.7,4.6,2.6,6.5c2.5,5.6,2.8,10.9,0.6,21.3c-2.5-2.2-2.6-4.1-4.4-5.1
			c-0.2,5.9-0.5,7.7-1.7,10.4c-2.6,4.7-3.3,7.1-3.5,11.6c-4.3-3.3-5.4-7.9-8.4-10.5c-2.1-1.9-6.3-5.6-7.8-8c-0.2,2.8,0,3.9-1.2,6.6
			c-1-3.2-1.1-4.1-3.5-6.7c-3.1-4-10-12.9-11.6-22.3c-0.4-1.6-1.4-6.3-2.5-12.6c-0.9,2.2-2.3,3.9-3.8,4.2c-0.7,0.3-0.7-0.6-0.7-0.6
			c0.6-2.1,0.9-4.3,0.6-6c-0.4-2.5-1.1-8.1-2.5-9.5H135c0.1,3.8-1.5,5.5-2.5,6.7c-0.1-3,0-5.2-0.7-6.7c-0.4-1-1.2-1.9-1.5-0.9
			c-0.6,3-0.9,3.5-0.9,6.3c-0.2,4.1-0.2,5.5-0.7,8.9c-0.2,2.5-1.1,5.6-3.6,8.7c-0.5-2.7-2.3-4.9-2.3-4.9c0,3.3,0.7,8.2-1.5,10.8
			c-2.7,3.4-3.1,5.1-4,7.6c-0.4-3-1.4-2.1-1.8-3.6c-2,7.7-8.2,13.7-10.4,15c1.5-3.2,2.7-6.8,3-9.1c0,0-0.4-8.4-1.7-13.2
			c-3.4-14.9-5-49.4-2.5-62.4c6.2-46.9,32.6-90,54.8-128.7L164.9,175.8L164.9,175.8z"/>
		<path fill="#FFFFFF" d="M167.5,180.4c0,0-3.8,15.2-3.1,25.7c5.2,4.1,10.7,9.7,11,21.2c-0.4,0.2-0.5,0.1-0.9-0.2
			c-1.5-1.8-5.4-2.3-8.4-6.8c0.4,2.8,9.1,14,9.8,16.1c0.1,7,1.2,17,0.6,19l-3-1.8c1.6,3.8,3,7.2,4.9,10c0,0,0.2,9.8-0.2,8.5h-0.5
			c-1.7-1.1-3.5-2.5-4.7-3.6c-0.8-0.4-0.9-1.4-2.4-2.7c-2.2-1.9-3.5-3.5-4.4-3.8c-2.4-1.5-4-2-5.3-2.4c-0.4,0-1.3-0.1-1.3-0.1
			s4.4,3.5,7.3,7.4c3.4,3.8,4.8,6,6,8.2c1.3,2.3,3.2,4.6,4.6,6.5c0,3.1-0.2,13.6-0.1,15.3l-0.9-0.6c-2.2-1.3-4.6-4.1-6.7-7.7
			c-1.1,5.2,4.9,11.4,7.7,13.4c0.9,9.7,0.9,14.3,2.7,24.5l-0.1,0.8c-2.5-1.6-5.1-4.1-8.2-8.2c-0.2,4,4.1,9.2,8.6,14.2
			c0.6,0.7,0.4,1.5,0.8,2.3c0.5,1.3,1.1,2.8,1.8,3.7c0.6,2.2,0.8,5.2,0.7,6.4l-1.9,3.3l2.5,2.7c0.2,3-0.4,3.8,0,7.1
			c0,0-2.8-0.2-4.1-3.2c-2.2,5.7,0.3,12.1,2.2,15.4c1.5,3.9,2.3,6.3,2.1,10.5l-0.5,1.2c-1.5-2.7-3.6-5-5.7-6.5l-0.9-0.2
			c2.1,12,1.4,15.9-2.6,23.6l-0.6-0.6c-2.2-4-6.4-7.1-9.4-9.9c-0.5-0.1-5.7-6.2-6.1-11.1l-0.6,0.1c-0.2,1.7-1,5.4-0.5,6l-0.5-0.2
			c-3-1.3-8.3-10.9-9.3-16.5c0,0-0.2-1.1-0.6-3.3c-0.2-2.2-1.4-8.8-1.7-9.7c-0.4-2.4-1.6-5.5-2-7.2c0.1-0.6-0.4-0.7-0.7-0.3
			c-0.7,0.9-1.2,1.8-1.6,1.2c-0.3-0.6-0.1-1.5,0.2-2.7c-0.5,0.3-1.6,0.5-1.7-0.3c-1.4-5.6-2.1-12.5-2.1-18.2
			c0.6-1.5,2.3-4.2,3.7-7.2l-0.1-0.7c-1.5,0.7-4,3-4.4,4.2l-0.6-0.8c-0.5-2.3-1-6.7-1-11.4c-0.2-0.9,0.1-1.4,0.5-2.1
			c1-2.2,2.1-4.6,3-6.9c0.7-2.4,4.9-9.8,6.1-11.5l-0.8,0.7c-2.3,0.7-8.1,7.3-8.9,7.8l-0.6,0.1c0.3-6.6,2.3-21.1,3.6-30.1
			c1.4-3.4,12-13.6,9.5-11.8c-4.8,1.6-6.4,3.2-7.4,3.6l-1.5,0.5c1.5-6.4,4.5-29.3,7.8-35.5c2.3-3.8,4.7-4.8,6.4-8.9l-1.2,0.6
			c-0.9,0.8-4.7,3.4-7,6.4l-0.8,0.1c1.1-3,1.5-6.1,3.7-10.3c0.6-1.7,1.6-2.4,2.4-3.9c1.8-2.2,2.6-3,4.3-3.8c0.9-0.3,2.5-0.9,2.5-0.9
			c-4.9,18.7-6.7,33.8-8.2,54.6c-1.5,33,1.5,73,13.6,97.7c-9.6-28.9-13.3-60.4-12.1-92.3c1-27.3,5.4-49.2,15.1-86.1L167.5,180.4
			L167.5,180.4z"/>
		<path fill="#FFFFFF" d="M160.9,177.6c-3.1,3.9-24.3,40.8-26.4,47.5c-18.8,34.7-29.9,69.4-29.1,103.4c0,14.9,1.7,25.2,3.7,36.1
			c0.9,4.2,2.1,9.9,1.9,13.6l0.6-0.3c0.9-1.5,3.2-6.1,4-10c0.2-1.5,1.1,0,1.1,0c0.4,1,1.1,1.5,1.2,2.5c0,0.9,0.5,0.8,0.7,0.1
			c1.4-2.5,1.7-4,1.2-6.6c-0.5-2.2-0.9-11.2,0.2-14.5c0-0.9,0.9,0,0.9,0c0.6,1.4,1.6,3.9,3.8,5.9c0,0,0.9,0.6,1,0
			c-0.2-2.4-0.5-18,3.5-19.7c1.5,0.3,1.6,1.3,2.7,2.3c1.2-1.3,1.7-6.6,1.4-10.7c0.1-6.4-0.9-12.8-1.5-16.7c-0.5-1.3,0-1.5,0.7-1.7
			c0.2-0.1,3-3.3,3-5c-2.3,1.5-3,1.8-5.2,3.2c-0.2-4.9-2.6-12.6-5.2-18.7c2.7,2.3,4.4,4.9,5.3,7.1c1-5,1.4-8,1.5-10.4
			c-1.4-4.4-3.9-14.1-3.7-21.3c1.6,5.2,3.1,10.9,4.7,14.4c0.7-2.5,1.4-7,2.3-10.7c1.4-0.9,3-1.8,3.5-2.6c-0.5-0.8-2.6,0.7-3,0.8
			c0.2-3.5,0.9-10.4-1.7-21.5l0.4-0.3c1.1,0.5,2.5,2.5,3,4.7c2.2-2.4,3.7-14.2,4.3-18.9c-2.3,0-3.5,2.4-5.1,2.2
			c0.2-1.5,0.4-0.8,1-2.2c0.6-1.6,2.1-3.2,2.7-5.4c1.4-1.8,1.4-4,1.5-6c0-1.9-0.2-4.8,1.5-7.3c0.4,1,0.1,1.7,1,3.9
			c0,0,3.5-6.9,5.3-8.5c2.5-9.9,8.4-21.1,14-28.4"/>
		<path fill="#FFFFFF" d="M162.1,183.9c-4.1,5.4-7,13.8-8.5,19.8c1.9-0.9,2-0.8,3.7-1.4C157.9,199.5,162.7,183,162.1,183.9z"/>
		<path d="M181.2,334.7c-0.3-1-2.3,0-3.1-0.6c-0.6-0.6-1.4-1.1-1.5-2c-0.5,1.1-0.1,2.2,0.4,3.2c0.3,0.5,1,0.8,1.5,1.3
			c0.5,0.5,0.7,1.2,1,1.9c0.4,0.9-0.5,1.4-1.1,1.5c-1.8,0.3-1.9-2.1-2.4-3.2c-0.4-0.8-1.6-1.2-2.2-1.9c-0.1-0.2-0.4-0.4-0.6-0.6
			c-0.5-0.8-1.5-1.4-2-2.3c-0.1,0.4,0.1,0.8,0.2,1.1c0.9,2.5,2.2,4.7,3.4,7.1c0.3,0.7,0.7,1.3,0.9,2c0.2,0.6,0.1,1.4-0.3,1.7
			c-0.4,0.4-1.3-0.5-1.5-0.2c-0.7,1.1,0.4,2.3,1,3.4c0.4,0.7,1.2,1.5,0.8,2.3c-0.1,0.2-0.3,0.4-0.6,0.5c-0.9,0.2-1.6-0.3-2.1-0.8
			c-1.8-1.8-3.4-3.5-4.9-5.6c-0.6-0.8-0.3-1.9-0.9-2.7c-0.4-0.5-1-1.2-1.6-0.7c-0.2,0.2-0.4,0.4-0.5,0.7c-0.2,1-0.4,2-1.1,2.8
			c-0.2,0.2-0.6,0.6-0.7,0.7c-0.9,1.6-1.1,3.4-1.4,5.3c-0.1,0.4-0.2,1-0.7,1.2c-0.5,0.3-0.9-0.3-1.2-0.6c-0.8-0.9-1.1-1.9-1.6-2.8
			c-0.3-0.6-0.3-1.4-0.7-2l-0.2,0c0.1,0.2-0.1,0.3-0.2,0.4c-0.5,0.8-1.3,1.1-2.2,1.5c-0.5,0.2-1-0.2-1.1-0.5
			c-0.6-2.2-2.2-3.8-2.9-5.9c-1,0-2,0.2-2.7-0.7c-1.5-2-1.2-4.3-1.4-6.5c-0.3,0.3-0.7,0.4-1,0.8c-2.3,3.5-3.2,7.1-4.2,11
			c-0.2,0.8-0.3,1.1-0.6,1.8c-0.6,1.5,0.3,1.8,1.2,0.7c1.5-1.8,1.2-0.3,1.4,0.1c0.4,2.6,1.9,5.2,2.5,9.7c0.5,4.3,1.5,8.7,2,10.8
			c1.3,7.1,6.4,14.4,9.5,16.2c-0.4-3,0.7-4.1,0.5-6.4l0.6-0.1c0.1,4,3.3,9.1,7,12c3,3.2,4.6,3.9,7.1,7.2c0.7,1.1,1.3,1.7,1.9,2.6
			c1.4-2.6,3.8-7.1,3.8-12.1c0-3.8-0.1-8.2-1.2-11.6c2.2,0.9,4.7,4.2,6.6,7.1c1.1-2.2,0.5-8.2-1.2-11.2c-1.7-3.6-4.6-8.7-2.6-16.1
			c1.2,2.6,2.1,2.5,4.1,3c0.4-2.7-0.1-6.6,0-7.1c-0.8-1.2-2.5-2.7-2.5-2.7l1.8-3.3c0.9-3.3-0.9-5.9-0.7-6.4
			C182.2,337.6,181.6,335.9,181.2,334.7L181.2,334.7z"/>
		<g>
			<path d="M121.2,313.9c0.1,0.3,0.6,0.1,0.3,0.5c0.7,0,1.5,0.1,2.2-0.1c0.3-0.1,0.6-0.6,0.6-0.9c0.2-1,0.7-2.2-0.2-2.8
				c-0.8-0.6-0.7-1.6-1.2-2c-0.3-0.2-0.8-0.4-1.2-0.7c-0.3-0.3-0.8,0.3-0.8,0.6c0,0.7,0.5,1.5,0.5,2.3
				C121.4,312,120.8,312.3,121.2,313.9L121.2,313.9z"/>
			<path d="M112.3,303.5c-0.1-1.3-0.6-3.2,1.6-2.7c0.7,0.2,0.8,1.1,0.8,1.5c0,1.2,0.3,2.1,0.9,3.2c0.3,0.6-0.2,1.1-0.5,1.5
				c-0.8,1.1-2.5,1.8-3.5,0.7c-0.6-0.7-1.3-1.7-0.8-2.6c0.4-0.7,0.8-1.1,1.4-1.8"/>
			<path d="M114.4,317c-1.1-1.5-0.6-2.9,0.7-3.8c0.8-0.6,1.8-0.2,2.1,0.5l1.5,3.9c0.5,1.4-1.4,2.7-2.8,2.1
				C115,319.3,115,317.8,114.4,317z"/>
			<path d="M115.6,322.4c-0.5-0.2-0.6,0.3-0.9,0.5c-0.6,0.4-0.6,1.4-1,2c-0.9,1.1-0.6,2.7-0.3,3.8c0.2,0.7,1.4,1.8,2.4,1.7
				c1.6-0.1,2.8-2.9,1.6-3.5c-1.6-0.9-1-3.1-1.6-4.2c0-0.1-0.4,0-0.7,0"/>
			<path d="M125.8,319.6c-0.4-0.5-0.4-1.2,0-1.5c0.4-0.3,1.2-0.2,1.6,0.2l0.7,0.5c1.3,1,2.1,2.3,1.4,3.8c-0.2,0.4-1,0.8-1.5,0.4
				c-0.4-0.3-1-0.3-1.3-0.8C126.2,321.3,126.4,320.4,125.8,319.6L125.8,319.6z"/>
			<path d="M111.2,310.4c-0.2-0.7-0.9-0.4-1.3,0.2c-0.9,1.2-1.3,2.5-1.4,4.3c0.2,1,1.8,1.2,2.6,0.8c1.8-1,0.5-4.9,0.4-4.4
				C111.5,310.9,111.2,310.3,111.2,310.4L111.2,310.4z"/>
			<path d="M145.5,321.7c-0.4-0.3-1,0-1,0.4c-0.1,1.2-0.2,3.4,1.8,3c0.7-0.1,1.1-0.8,1-1.4C147,322.7,146.3,322.2,145.5,321.7
				L145.5,321.7z"/>
			<path d="M150.1,325.8c-0.5-0.4-1.3-0.4-1.6-0.1c-0.7,0.5-1,1.6-0.7,2.4c0.3,0.9,0.6,1.8,1.3,2.5c0.5,0.4,1.4,0.9,1.6,0.6
				c0.6-0.8,1.1-1.8,0.9-2.8C151.3,327.4,150.9,326.5,150.1,325.8z"/>
			<path d="M167.8,324.5c-0.3,0-0.8,0.1-0.9,0.3c-0.7,1,0.1,2.2,1,2.6c1,0.5,2.2-1,1.5-1.9c-0.5-0.5-1.2-1-2-1"/>
			<path d="M159.3,334.9c-0.4-0.2-0.9-1.2-0.6-1.9c0.3-0.6,1-0.9,1.7-0.8c0.8,0.1,1.3,0.6,1.7,1.2c1.1,1.3,1.5,3.4,0,4.6
				c-0.6,0.5-1.7,0.4-2.1-0.3c-0.5-0.8-0.1-1.5-0.6-2.4L159.3,334.9L159.3,334.9z"/>
			<path d="M169.6,335.7c-1-0.7-0.6-2.2-1.7-2.8c-0.6-0.4-1.4-0.5-2,0c-0.6,0.5-0.6,1.2-0.8,1.9c-0.1,0.4,0.2,0.8,0.4,1.1
				c0.8,1.5,2.8,1.6,4.3,2.4c0.2,0.1,0.6-0.3,0.8-0.5C171,337,170.3,336.2,169.6,335.7L169.6,335.7z"/>
			<path d="M153.2,334.2c-0.5-0.6-1.4-0.4-2-0.1c-0.2,0.1-0.4,0.4-0.4,0.6c0,1.5-0.5,3,0,4.4c0.4,0.8,1.2,1.9,2.2,1.4
				c0.8-0.3,1.2-1.2,1-2C153.7,337.2,154.4,335.5,153.2,334.2L153.2,334.2z"/>
			<path d="M159.8,316.4c-0.3-0.7-1-1.2-0.6-1.9c0.1-0.2,0.5-0.1,0.8-0.2c0.9-0.2,1.9-0.1,2.5,0.5c0.5,0.5,0.8,1,1.1,1.6
				c0.4,0.6,0.5,1.3,0.7,1.9c0.3,0.7,0,1.5-0.6,1.8c-0.7,0.4-1,0.7-2,0.3c-0.4-0.2-0.6-0.9-0.8-1.2c-0.2-0.4-0.2-1.5-0.5-1.9
				C160.1,316.9,160,316.8,159.8,316.4L159.8,316.4z"/>
			<path d="M159.2,320.2c-0.3-0.3-0.7-0.3-1-0.3c-0.2,0-0.6,0-0.6,0.3c0.1,1.4-1.6,2-2.2,3.1c-0.5,1.1,0.6,2.2,1.5,3
				c0.7,0.6,1.9,0.2,2.7,0c1.4-0.4,1.6-2.3,1.3-3.5C160.6,321.8,160,321,159.2,320.2L159.2,320.2z"/>
		</g>
		<path fill="#FFFFFF" d="M175.6,171.1h-17v3.6h15.5L175.6,171.1z"/>
		<path fill="#FFFFFF" d="M173.7,160.9l0.6,2.7l3.2-5.8L173.7,160.9L173.7,160.9z"/>
		<path fill="#FFFFFF" d="M161.9,168.3l1.7-3.9l4.9,3.9H161.9z"/>
		<path fill="#FFFFFF" d="M167.6,164l2.3-7.5l1.6,10.6L167.6,164z"/>
		<path d="M105.7,315c0.1,1,0.1,0.4,0.6,1.3c0.5,0.8,0.2,1.8,0.6,2.7c0.3-0.4,0.9-0.6,1-1.1c0.5,1.8-0.9,3.5-0.2,5.2
			c0.8-0.6,1.9-0.8,2.5-1.6c-0.1,0.7-0.3,1.4-0.4,2.1c-0.2,1.2,0.3,2.4,0.5,3.6c0.2,1.6,2.3,2.7,1.7,4.3c-1,2.5-1.5,5.2-0.6,7.5
			c0.2,0.5,0.5,1.3,1.1,1.6c0.5,0.2,1.2,0.2,1.6,0c0.3-0.1,0.5-0.5,0.5-0.8c0.2-1.1-0.3-2.1-0.1-3.2c0.3-1.4,0.5-2.7,1.5-3.8
			c0.2-0.2,0.9-0.2,1.1,0.2c0.6,1.3,0.4,2.8,1.2,4c0.3,0.4,1.3,0.7,1.8,0.2c1.2-1,0.7-2.5,0.9-3.8c0.2-2.1-0.8-3.3-1.1-5.5
			c-0.3-2,0.1-2.3,0.8-3.2c0.7,1.9,0.7,4,2.2,5.7c0.3,0.4,0.9,0.4,1.2,0.2c1.1-0.9,0.9-2.7,0.1-4c-1.2-1.8-2.2-4.8,0-6.5
			c-0.1,0.9-0.1,2,0.4,2.7c0.7,1,2,2.9,2.2,4.8c0.1,0.7,1.1,0.9,1.8,0.4c0.1-0.1,0-0.5,0.3-0.6c1-0.1,1.5,1,1.5,1.8
			c0.4,0,1,0.1,1.2-0.1c1-0.9,0.8-3.2,0.8-4.5c0.1-2.4,0.7-1.5,1.2-1.7c0,0,0.2,1.1-0.1,4.4c0.4,4.1-0.1,9.5-1.4,10.7
			c-1.1-1-1.2-1.9-2.7-2.3c-4,1.7-3.7,17.3-3.5,19.7c-0.1,0.6-1,0-1,0c-2.2-2-3.2-4.6-3.8-5.9c0,0-0.9-0.9-0.9,0
			c-1.1,3.3-0.7,12.3-0.2,14.5c0.5,2.6,0.1,4.1-1.2,6.6c-0.2,0.7-0.7,0.8-0.7-0.1c-0.1-1-0.9-1.5-1.2-2.5c0,0-0.9-1.5-1.1,0
			c-0.7,3.9-3.1,8.5-4,10l-0.6,0.3c0.2-3.6-1-9.3-1.9-13.6c-2-10.9-4-21.2-4-36.1c0-6.7,0.4-14,0.4-14L105.7,315L105.7,315z"/>
		<path fill="#F1C817" d="M157,342.9c1.8,5.1,4,12.1,5.5,14.7c-0.4-3-4.7-14.7-4.6-15.5C158,341.3,157,342.9,157,342.9L157,342.9z"
			/>
		<path fill="#FFFFFF" d="M293.1,150c-0.4-0.4-1.7-0.2-1.9-0.7c-0.2-0.4-0.4-0.8-0.6-0.9c-0.4-0.3-1,0.1-1.5,0.2
			c-0.8,0.1-1.6,0-2.3-0.3c-1.3,1.4-4.9,0.5-6.5,0.6c-0.2,0,1.1,0.7,1.3,0.8c1.2,0.9,3.1,0.8,4.5,0.9c0.2,0,0.7-0.2,0.9-0.2
			c1.5-0.2,3.1,0.3,4.7,0.5C292,151,293.6,150.5,293.1,150L293.1,150z"/>
		<path fill="#FFFFFF" d="M317.1,152l-3.7-1.9c-0.2-0.3-0.5-0.7-0.9-1c-0.8-0.7-1.3-1.5-2.2-2.1c-1.3-0.7-2.3-1.7-3.7-2.2l-0.5,0
			c-0.1,0-0.2-0.1-0.1-0.2c-0.1,0-0.3,0-0.4,0c-0.2-0.2-0.5-0.3-0.7-0.4c-0.7-0.2-1.5,0.2-2.2-0.3c-0.4-0.3-0.8-0.5-1.2-0.7
			c-1.1-0.7-2.3-0.3-3.5-0.1c-0.2,0-0.6,0.3-0.8,0.5c-0.4,0.4-1.2-0.3-1.8-0.1c-0.5,0.2-1.1,0.7-0.6,1.2c0.5,0.5,1.2,0.8,2,1
			c2.1,0.5,4.4,0,6.4,0.8c0.6,0.2,1.3,0.5,1.5,1.2c-0.2,0-0.4,0.2-0.6,0.1c-0.5-0.3-1-0.3-1.5-0.4c-3.4-0.3-6.7-0.5-10.1-0.1
			c0,0.8,0.3,1.6,1.1,1.7c1,0.1,2.2-0.2,3.2-0.1c1.1,0.1,2.3,0.7,3.4,1.3c0.1,0.1,0.4,0.1,0.6,0c0.5-0.2,0.9-0.8,1.5-0.6
			c0.3,0.2,0.7,0.3,1,0.3c0.8,0.1,1.3,0,2.1,0.1c1.6,0.2,2.9,1.2,4.4,1c1.2-0.2,1.7,0.2,2.3,0.7c-0.3-0.3,2.1,1.3,2.3,0.9
			C314.6,152.4,317.1,152.3,317.1,152L317.1,152z"/>
		<path fill="#FFFFFF" d="M326.1,151.3c-1-0.6-1.1-1.7-1.6-2.6c-0.4-0.6-1-1.2-1.6-1.5c-2.9-1.4-6.3-3.8-8.4-3.6
			c-0.7,0.1-1,0.7-0.6,1.1c0.7,0.7,2.1,0.9,2.2,2c2.9,1.3,8,2.2,7.7,5.1C323.7,152.1,325.6,151.2,326.1,151.3L326.1,151.3z"/>
		<path fill="#FFFFFF" d="M158.6,171.1l18.2,0c-1,1.8-1.6,3.7-1.6,3.7l-16.6,0L158.6,171.1L158.6,171.1z"/>
	</g>
	<g id="Layer_61_copy" display="inline">
	</g>
	<g id="Layer_63_copy" display="inline">
	</g>
	<g id="Layer_64_copy" display="inline">
	</g>
	<g id="Layer_66_copy_2" display="inline">
	</g>
</g>
<g id="color">
	<g id="Layer_5">
	</g>
	<g id="Layer_6">
	</g>
	<g id="Layer_7">
	</g>
	<g id="Layer_11">
	</g>
	<g id="Layer_13">
	</g>
	<g id="Layer_15">
	</g>
	<g id="Layer_17">
	</g>
	<g id="Layer_19">
	</g>
	<g id="Layer_21">
	</g>
	<g id="Layer_23">
	</g>
	<g id="Layer_25">
	</g>
	<g id="Layer_27_copy">
	</g>
	<g id="Layer_31_copy_2">
	</g>
	<g id="Layer_29">
	</g>
	<g id="Layer_33">
	</g>
	<g id="Layer_35">
	</g>
	<g id="Layer_37">
	</g>
	<g id="Layer_39">
	</g>
	<g id="Layer_41">
	</g>
	<g id="Layer_43">
	</g>
	<g id="Layer_46">
	</g>
	<g id="Layer_45">
	</g>
	<g id="Layer_49">
	</g>
	<g id="Layer_51_copy">
	</g>
	<g id="Layer_53">
	</g>
	<g id="Layer_55">
	</g>
	<g id="Layer_57">
	</g>
	<g id="Layer_59">
		<g>
			<path fill="#FFFFFF" d="M195.6,339.9c-1.1,0.3-3.4-0.2-3.4-0.2c0.8,5.6,1.6,7.5,1.6,7.5l-1.3,1.5l1.6,1.1
				c-1.7,11.1,3.4,18.7,5.7,26.1c-1.9,0.6-4,0.5-5.6-0.3c0.6,6.3,0.1,18.3-5.4,23.6c-1-0.6-1.8-0.8-2.2-1.4
				c-0.8,1.8-1.4,2.5-3.1,6.9c-0.9,3-1.7,7.2-2.2,11.8c-4.5-2.1-9.5-4.4-13.9-11.3c-1-1.6-1.7-3-4.1-5.1c-0.6,1-0.7,1.3-1.8,2.3
				c-1.2,1-4.2,2.3-4.3,2.2c-0.6-2.8-1.4-5.4-3.2-8.5c-1.7-3.5-7.6-8.1-12.4-19.4c-2-4.3-3-8.2-3.8-12.6c-0.4,0.2-0.6,0.3-0.9,0.3
				c-1.8,0.5-3.1,0.3-3.7-0.9c-1.5,3.8-3.4,5.9-5,6.9c-0.7,2.2-0.6,2.7-2.2,4.5c-1.5,2-2,2.6-3,6.4c-1.7,3.9-4.2,5.9-4.5,6.9
				c-0.6-1.2-0.9-1-1.5-1.9c-6.1,7.4-6.8,9.3-20.5,12c3.5-6.3,5.8-16.8,5.6-18.9c-1.7-14.7-3.3-17.8-4.2-29.2
				c-0.5-5.7-2-19.7-0.6-38.4c1.5-22.6,8.4-42,14.3-56.7c7.7-20.5,25.2-53.5,38-73.7l0.1-18.3h4.9l5.2-10.9l2.3,1.6l8.9-21.9
				l6.3,16.5l10.8-6.3c4.3-3.6,34.9-44.4,99.8-44.3c62.9-0.1,127.6,45.3,127.6,117.7c0,65.8-58.3,116.6-125.6,116.6
				c-52.1,0-85.7-24.5-103.5-46.9C187.5,296.4,185.1,318.8,195.6,339.9L195.6,339.9z"/>
			<path fill="none" stroke="#FFFFFF" stroke-width="2.584" d="M195.5,339.9l-1,0.1l-1.1-0.1l-0.9-0.2l-0.4-0.1l0.6,3.5l0.5,2.3
				l0.4,1.3l0.1,0.4l-1.3,1.5l1.6,1.1l-0.2,7.7l1.5,6.7l2.3,6l2.1,5.6l-2.9,0.3l-2.7-0.7l0.2,5.6l-0.6,6.6l-1.8,6.4l-3.3,5l-1.3-0.7
				l-0.9-0.7l-0.6,1.2l-0.6,1.3l-0.8,1.8l-1.1,2.7l-1.3,5.3l-0.9,6.5l-3.5-1.7l-3.5-2.2l-3.5-3.1l-3.4-4.4l-0.7-1.2l-0.8-1.2
				l-1.1-1.3l-1.5-1.5l-0.7,1.2l-1.1,1.1l-1.2,0.8l-1.4,0.7l-1.2,0.5l-0.5,0.2l-1.1-4.1l-2-4.4l-2-2.9l-3.1-3.9l-3.6-5.3l-3.7-7.3
				l-2.3-6.3l-1.5-6.4l-0.9,0.3l-2.3,0.2l-1.4-1.1l-2.5,4.5l-2.5,2.4l-0.4,1.4l-0.4,1l-0.5,1l-0.9,1.1l-0.9,1.3l-0.7,1.2l-0.6,1.6
				l-0.7,2.4l-1.4,2.6l-1.4,1.9l-1.1,1.4l-0.6,1l-0.7-1.1l-0.7-0.8l-2.1,2.5l-1.8,2.1l-1.7,1.7l-1.8,1.4l-2.2,1.2l-2.8,1.1l-3.6,1
				l-4.6,1l2.4-5.3l1.8-5.7l1.1-4.9l0.3-3l-1.3-9.2l-1.2-6.7l-1-6l-0.8-7.3l-0.5-5.8l-0.5-8.5l-0.2-11l0.6-13.1l2-16.3l3.5-15
				l4.3-13.5l4.5-11.9l3.3-8.2l4.1-9.1l4.6-9.7l5.1-10l5.3-9.9l5.4-9.6l5.3-9l5-8.1l0.1-18.3h4.9l5.2-10.9l2.3,1.6l8.9-21.9
				l6.3,16.5l10.8-6.3l1.1-1.1l1.7-1.9l2.4-2.5l3-3l3.7-3.4l4.4-3.7l5.1-3.9l5.8-4l6.5-4l7.2-3.8l7.9-3.5l8.7-3.1l9.4-2.6l10.2-2
				l11-1.3l11.8-0.4l11.8,0.5l11.7,1.5l11.6,2.6l11.3,3.5l11,4.5l10.5,5.4l10,6.3l9.4,7.2l8.6,8.1l7.8,8.9l6.9,9.7l5.8,10.5
				l4.7,11.2l3.5,11.9l2.2,12.6l0.7,13.3l-0.7,12.2l-2,11.8l-3.2,11.3l-4.3,10.8l-5.4,10.2l-6.4,9.6l-7.4,8.9l-8.2,8.2l-9,7.5
				l-9.7,6.6l-10.4,5.8l-10.9,4.8l-11.4,3.8l-11.9,2.8l-12.2,1.7l-12.5,0.6l-18.7-1.1l-17-3.1l-15.3-4.8l-13.7-6.1l-12.1-7.2
				l-10.5-7.9l-8.9-8.3l-7.4-8.5l0.3,4.7l0.2,5.6l0.2,6.4l0.5,7l0.9,7.4l1.5,7.8l2.3,7.9L195.5,339.9"/>
			<path fill="#F1C817" d="M288.1,326.6c66.9,0,121.2-50,121.2-111.7c0-61.7-54.2-111.7-121.2-111.7s-121.2,50-121.2,111.7
				C166.9,276.6,221.2,326.6,288.1,326.6z"/>
			<path fill="#FFFFFF" d="M288.1,311c57.6,0,104.3-43,104.3-96.2c0-53.1-46.7-96.1-104.3-96.1c-57.6,0-104.2,43-104.2,96.1
				C183.8,267.9,230.5,311,288.1,311z"/>
			<path fill="#010101" d="M222.4,205.7c0,0-8.5,19-8.2,34.1c0,0,2.7-5.6,3.6-4.7c0,0-7.7,23.7-1.9,37.3c0,0,1.2-3.8,3.3-6
				c0,0,3.2-4.7,4.5-8.4c0,0,0.6,1.6,1,4.4c0,0,2.8-3.3,3.5-5.6c0.5-1.8,1.7-3.8,2.6-6l1,0.5c0,0,5.8-6.5,8-12.4
				c0,0,1.7-0.2,0.9,4.4c0,0,4.8-4.3,4.9-11.1l1,1c4.1,4.7,4.1,11.8,4,16.3c-1,14.2-8.9,21.9-18.8,30.2l0.9,0.7
				c14.7-2.5,24.4-4,39.3,0c5.7,1.5,19.4,7.3,26.1,11.2c0,0,14.8,5.9,25.2,5.9c0,0,0.5,0.2,0.5-0.3c0,0-1.1-3.5-0.1-16.8
				c0,0,1.1-6.1,2-10.4c0,0,1.1-2.8,1.2-8.7c0-0.5-0.5-4,2.1-3.6c5.6,0.7,8.8-0.5,13.1-1.1c0,0,4.6-1.2,6.4-1.4c0,0,4.3,0.6,5.7,0.2
				c1.5-0.5,3.1-1.6,5.1-3.3c0,0,2.2-2.2,0.7-7.1c0,0-1.5-4.4-0.6-5.8c0,0,1.3-3,3.2-4.8c0,0,1.4-2-0.5-3.1c0,0-1-1,0.7-1.4
				c0,0,1.2,0.1,2-0.3c0,0,0.4-0.2,0.5-1c0.1-0.9,0.5-5.4-2.7-9.2c0,0,0.9,0.2,1.6,0.5c0,0,3.9,0.3,6-0.6c1.8-0.9,4.4-2,4-7.5
				c-1-4.6-3-7.3-5-12.4c-2.3-5.5-2.7-8.2-7.6-12c-3-1.3-4.3-3.3-2.1-5.4c1.7-2.4,1.1-6.7-2-9.7c-3-2.7-5.2-6.9-6.3-9.1
				c-1.5-2.3-3.1-4.8-4.6-6.3c-1.5-1.7-3.7-2.7-7.7-7.1c0,0-2.4-1.9-2.7-4c-3.3-4.8-12.6-11.5-23.2-12.2c-3.1-0.3-3.1-0.3-5.3-0.6
				c-3.7-1.3-15.3-1.6-23.2,0.5c-2.6,0.5-7.7,1.4-7.7,1.4c-2.7,0.8-6.5,1.5-10.7,3.9c-3.1,1.5-7.7,5-11.1,7.3
				c-3.7,3.4-12,8.4-16.6,11.3c-8.9,6-16.6,14-21,19c0,0-11.2,13-16.8,35.4c-0.4,3.4-1.4,6.7-0.7,10.5c0,0,5-9.9,9.5-13
				c0,0-0.6,1.8-1,4.8c0,0,2.3-4,3.3-4.7c0,0,1.7-1.7,4.2-4.4c0,0,5.2-6.3,6.7-7c-1.9,3.3-2.3,5.5-2.5,8.9c0.8-0.7,1.3-1.2,1.5-1.6
				c0,0,0.5-0.9,1-0.7C222.8,205.3,222.4,205.7,222.4,205.7L222.4,205.7z"/>
			<path fill="#57211B" d="M371.4,215.7c1.3-2.5,1-5-0.8-7.9c-1.1-1.7-1.8-3.6-2.7-6c-0.4-1-1.1-3-2-4.7c-0.1-0.7-1.6-3.9-2.6-5.1
				c-2.5-3.3-4.5-3.6-5.9-5l-0.5,0c-1.4,0.9-1.5,2.8-2.7,4.3c-0.1,0.2-0.5,0.4-0.8,0.2c-0.4-0.2-0.5-0.5-1-1.1
				c-0.4-0.6-0.7-0.2-1.2,0.3c-0.3,0-0.5,0.2-0.7,0.4c-0.4,0.4-0.1,0.6,0.2,1c0.3,0.4,0,0.4,0.2,0.6c-0.1,0.2-0.1,0.2-0.2,0.3
				c-0.2,0.2-0.6,0.2-0.9,0.1c-0.8-0.1-0.6-0.1-1.4-0.4c-0.9-0.4-1.3-1.5-2-1.8c-0.2-0.1-0.9-0.2-1.4,0.1c-0.4,0.2-0.6,0.8-0.2,1.1
				c0.6,0.5,1,1.1,1.7,1.5c0.8,0.6,1.8,1,1.9,1.8c0.1,1-1.5,1.4-2.3,0.9c-0.4-0.3-0.9-0.6-1.3-1c-0.1-0.1-0.1-0.4-0.2-0.5
				c-0.4-0.2-0.8-0.5-1-0.8c-0.4-0.5-0.8-1-1.4-1.2c-0.2,0-0.3-0.2-0.4-0.4c-0.3-0.5,0-1-0.2-1.5c-0.2-0.4-0.3-0.9-0.8-0.7
				c-0.5,0.5-0.4,0.5-1,0.4c-0.7-0.1-0.1-1.3-0.1-1.1c0,0.1,0,0,0.2-0.4c-0.5-0.1-1.2-0.5-0.7-1.2c0.5-0.6,1,0.3,1.2-0.1
				c0.1-0.1,0.5-0.8,0.6-0.9c0.6-0.3,0.7,0.1,0.8,0.2c-0.2,0.6,0.5,1,1.2,0.7l0.1-0.6c0.6-1,1.6-1.5,2.6-2.2l0.4-0.2
				c0.3-0.5,0.6-1.3,0-1.6c-0.5-0.2-1.6,0-1.4-0.9c0.1-0.4,0.7-0.6,1-0.7c1.2-0.5,2.4-1,3.6-1.5c0.3-0.1,0.8-0.5,1.2-0.5
				c1.5-0.1,1.2-0.1,3.1,0.2c0.3,0,1,0.4,1.3,0.5c1,0.3,2.4,0.2,3.1-0.8c0.7-1,0.5-2.6-0.2-3.8c-0.8-1.4-2-2.6-3-3.5
				c-1.3-1.2-3-1.9-3.4-3.5c-0.4-2.1-2.2-4.8-3.1-6.4c-1-1.7-1.9-2.8-3.2-4.4c-0.3-0.4-2.2-2.2-2.5-2.4c-2.2-2-3.1-2.6-5.4-3.4
				c-1.2-0.4-5.8-0.1-8.2-0.4c-0.8-0.1-3.1-0.1-3.7-1.3c-0.6-1-1.3-2.5-2.5-3.2c-0.4-0.2-1.1-0.5-1.5-0.7c-2.2-1-4.4-2.7-6.8-2.6
				c-0.9,0,0,0.9,0.2,1c1.1,0.5,1.5,1.1,2.1,1.7c0.6,0.7,1.9,0.7,3.1,1.1c1.1,0.4,2,1,3,1.5c1,0.5,2.2,2,1.2,2.6
				c-1,0.6-2-0.1-3.2,0.2c-0.3,0.1-0.6,0.2-2.1,0.2c-1.9,0.2-2.6-0.6-4.1-1.6c-1.5-1-2.4-2.5-3.9-3.4c-1.8-1.2-3.6-2.1-5.6-2.8
				c-0.4-0.1-1,0.1-1.4-0.1c-0.7-0.4-1.2-1.1-2.1-1.2c-1.5-0.1-1.5-0.2-3,0c-0.2,0-0.8,0.6-0.9,0.6c-0.9,0-1.9-0.3-2.4,0.2
				c-0.7,0.7,0.2,0.6,1,1c0.5,0.2,1.5,0.7,2.1,0.7c2.5,0,4.1-0.1,6.1,0.9c0.2,0.1,1.1,0.9,1.1,1.2c-1.9,0-4.8-0.7-6.9-0.5
				c3.6-0.3-3.7,0.1-5.3,0c-0.5,0-0.5,0.9,0.3,1.4c0.2,0.1,1.3-0.1,1.4,0.3c0.6-0.3,2.5-0.2,3,0c0.9,0.3,0.4,0.2,1.2,0.6
				c0.5,0.2,1,0.6,1.5,0.5c0.8-0.1,0.8-1.1,1.6-0.8c0.3,0.1,0.8,0.4,1,0.4c4.3-0.1,4.4,1.2,6.4,1.1c0.5,0,1.3-0.2,1.7,0
				c0.8,0.5,1.6,0.6,2.8,0.1c0,0,2.8,7.1,2.1,19.9c-0.7,5.5-1.1,6.5-2.5,10.9c0,0-2,7.1-1.2,12c0.8,16.5-4.7,30.2-10.6,39.3
				c-2.2,2.5-3.5,3.9-1.2,5.7c4.7,4,8.5,4.9,15.2,6.3c2.4,0.7,3.8,0.9,6.1,0.9c3.5,0,8.9,1.4,11.4,3.1c2.3,1.1,8.6,3.3,12.5,2.7
				c3.3,0.2,4.3,0.5,5.9,1c1.1,0.4,2.2,0.4,3.5,0.1l1.9-1.3c0.2-0.6,2-1.3,1.7-3.6c-0.1-1.7-0.9-3.5-1.2-5.1c-1.1-1.4-1-2.5-0.6-3.9
				c1.1-2.1,2.4-3.1,3.1-4.1c1.5-1.5,0.6-2.6-1.4-3.1c-1-0.4-2.9-0.2-4.9-0.4c-1,0-1.9-0.4-3.4-0.1c0,0-1,0.6-1.5,1.1l-0.8-0.4
				c0,0,0.7-1.8,2.1-2.9c1.4,0.2,3.5,0.4,4.6,0.1c1.3-0.5,2.7-0.8,3.8-1.1c1.9-0.2,2.7-0.1,4.9,0.1c0,0,1.1-4.4-2.8-7.8
				c-0.9-0.8-1.7-1.8-3-1.9c-4.7,0.5-7.3-1.3-8-1.7c-1.2-0.1-1.5,0.4-2.2,1.1c-1.6,2.5-3.5,3.4-3.5,3.4l-1-0.1c0,0,0.9-1.4,2.8-3.6
				c0.9-1.8,2.1-4.1,3.2-5.2c0.7-1.1,0.9-3.5,2.5-4.2c0.8,0,0.9-0.2,1.5,0.2c-1.2,1.1-4.7,5-1.1,7.3c1.5,1.1,3.7,1.1,4.2-0.1
				c0.3-0.7,0.9-1.1,1.2-1.3c1.9-0.3,3.4,0.5,4,1c1.5,1.6,2.4,2.3,3.1,2.7c0.8,0.6,2.3,0.5,3,0.5C369.7,217.8,371,216.5,371.4,215.7
				L371.4,215.7z"/>
			<path fill="#57211B" d="M345.6,189c0.7,0.3,1,0.2,2.6,0.4c0,0,1.3,0.2,2.5-0.8c0.2-0.2,1.2-0.6,1.2-1c-0.1-1.7,0.2,1.1-0.2-1.5
				c-0.1-0.6-0.1-1.1-0.3-1.6c-0.1-0.3-0.6-0.8-1.4-0.6c-0.1,0.1-1.4,1-1.4,1c-0.7,1.2-1.7,1.3-2.2,2.1l-0.9,1.3
				C345.4,188.6,345.3,188.8,345.6,189L345.6,189z"/>
			<path fill="#0C130F" d="M357,206.1c2.1-0.6,3.1,0.3,5.5,1.7c0.4,0.3,0.7,0.9,0.2,1.3c-0.2,0.1-0.6,0.1-0.8,0
				c-2.1-1.8-2.7-1.8-5-2.2C356.8,206.9,356.4,206.3,357,206.1L357,206.1z"/>
			<path fill="#0C130F" d="M344.4,226.2c-0.3,0.9-0.6,1.7-1.1,2.5c-0.4,0.9-0.2,2-0.9,2.8c-0.3,0.4-1.1,0.2-1.2-0.2
				c-0.4-1.6-0.2-3.2,0.6-4.6c0.4-0.7,1.5-1.1,2.4-0.8l0.1,0.5L344.4,226.2L344.4,226.2z"/>
			<path fill="#0C130F" d="M323.1,215.7c-0.7-0.2-1.1-0.8-1-1.5c0.2,0.1,0-0.3,0.2-0.2c1.5,0.1,2.9,0.6,4.3,0.7
				c1.7,0,3.4-0.3,4.9-0.9c1.9-0.8,3.6-1.7,5.4-2.9c0.8-0.5,2-0.8,3-1c1.6-0.3,1.5-1.2,2.7-1.8c1.7-0.9,1.6-1.6,2.6-1.3
				c0.3,0.1-0.3,0.7-0.6,0.9c-0.7,0.5-1.5,1.1-2.1,2.1c-0.1,0.2-1,1.1-1.2,1.2c-2,1.4-2.4,2.5-3.9,4.2c-0.8,1-1.1,2.2-1.7,3.3
				c-0.3,0.7-0.5,1.3-1,1.9c-0.2,0.2-0.9,0.1-1.1,0.3c-1.2,1.1-2.4,2.1-3.3,3.6c-0.2,0.2-0.7,0.2-0.7,0.1c-0.8-1.4-1.9-2.5-3.8-2.5
				c-0.3,0-0.7-0.7-0.7-1.3c0-0.1-0.1-0.4-0.3-0.4c-0.3,0-0.4-0.3-0.7-0.3c-0.3,0-0.6-0.5-0.6-0.7c-0.4-1.1-0.2-2.3-0.5-3.5
				L323.1,215.7L323.1,215.7z"/>
			<path fill="#FFFFFF" d="M295.8,247.3c-0.3-1.1-2.3-1-3.7-0.9c-2.2,0.2-4.1,0.6-6.2,1.6c1.4-1.9,3.1-2,6.3-3.2
				c0.7-0.3,0.6-1.5,0.1-2.2c-0.5-0.8-1.3-0.8-1.5-0.9c-2.7-0.5-3.5,0.1-4.9,0.4c-4.9,1.2-9.7,4.6-12.4,7.8c-0.8,1-0.5,2-0.4,2.2
				c0.5,0.6,1.3,2.3,1.5,2.1c2-2,4.4-3.8,7-3.2c-1.1,0.3-5,2.2-6.2,4.8c-0.1,0.2,0.5,1.1,1.2,1.6c1,1.5,1.4,2.2,1.9,2.4
				c0.3,0,1.1-0.7,1.3-1c2.7-3.3,5.4-5.4,13-6.3c2.2-0.3,3.4-0.9,3.6-2.7c0,0,0.4-0.9-0.4-2.7"/>
			<path fill="#FFFFFF" d="M286.8,257.9c0.1,1.7-0.1,2.5,0.4,3.6c0.5,1.1,1.6,2,2,3.1c0.3,0.8,1.4,1.9,1.4,2.5
				c0.5,0.4,0.6,0.9,0.6,0.9c0.7,0.8,2.6,1.8,1.9,2.2c-0.8,0.6-3.2,0.2-4.7-0.1c-1.9-0.3-0.8,1.3-0.4,1.4c1.9,0.7,5.9,1,7.2,1.6
				c0.8,0.4,1.8,1,2.2,1.7c0.2,0.5,0.7,1,1.1,1.5c1.2,1.6,1.7,2.2,3,3.2c0.6,0.5,1.4,1.3,1.2,2.1c-0.3,0.9-0.9,1.1-1.8,0.9
				c-0.3,0-1.2-0.3-2.1-0.6c-1.7-0.5-2.1-1.1-3.3-0.5c-0.7,0.3,0.3,1.4,1.1,1.7c3.1,1.5,6.8,1.6,9.9,3.2c2.6,1.4,4.1,3.1,4,6.6
				c0,0.1,0.9,0.5,1,0.5c0.9-1.3,3.1,0.3,4.2,0c0.1,0,0.1-0.6,0-0.8l-2.1-1.4c-0.5-0.7,0.2-1.5,0-2.2c-0.3-0.6-1.5,0.5-1.9,0.1
				c-2-1.9-3.3-4.1-5.9-5.2c1.1-2.8,1.6-6,1.3-7.5c-0.7-0.6-1,0.3-1.2,0.5c-0.6,0.5-0.4,1.7-1.1,2.6c-0.1,0.1-1.1,0-1.3-0.2
				c-1.8-1.4-3.5-3.1-4.4-5.2c0-0.1-0.4-0.5-0.5-0.6c-1.3-1.7-1.3-4.1,0.3-5.9c0.2-0.2,0.4-1.3,0.3-1.4c-0.3-0.2-0.9,0.2-1.2,0.4
				c-0.8,0.8-1.6,2.4-3,2.3c-1.6-0.2-2.2-1.7-3.2-2.6c-0.3-1-0.9-1.6-0.7-1.7c-1.4-1.8-1.5-3.3-2.7-5.6
				C287.7,258.3,287.3,258,286.8,257.9L286.8,257.9z"/>
			<path fill="#57211B" d="M296.2,288.7c1.6,0.8-0.2-1-0.2-1c-0.6-0.4-2.1-2.5-2.4-3c-0.7-1.1-1.2-2-1.6-2.8
				c-0.6-1.4-1.8-2.3-3.8-4.1c-1-0.9-2.5-2.5-3.2-3.6c-1-1.8-1.5-5-3.9-6.5c-1.8-1.2-1.4-2.5-2.9-4.7c-0.6-0.9-1.8-1-2.7-1.8
				c-2.3-2.1-0.8-2.9-2.8-4.8c-0.9-0.8-1.3-1-2-2.3c-1-1.7-0.2-3.8-1.9-4.6c-1.5-0.7-2.6-0.9-3.6-1.2c-1.6-0.5-4-1.6-5.4-2.7
				c-1.5-1.1-4.5-3.4-7.7-6c2,14-0.8,26-15.8,38.5C264.1,273.3,276.3,279.3,296.2,288.7L296.2,288.7z"/>
			<path fill="#57211B" d="M306.7,270.8c0.1,1.1,0.5,0.9,1.2,2.5c0.3,0.8,1.3,2.2,1.8,2.6c2.9,2.2,4.8,5.6,4.6,9.1
				c0.1,1.7,0.2,1.6,2.1,2.8c0.3,0.2,0.5,0.2,1.5,1.1l3.4,3.2c-0.1-1,0.1-2.8,0.1-3.3c-0.2-5.4,1-10.9-1-15.6
				c-1.5-3.5-4.8-7.5-6.1-11.2l-0.7-2c-0.7-2.9-0.8-5.8-0.8-5.8l-4.1-1.8c-3.3-1.2-6.9-2.3-10.2-3.4c0,1.6,0.2,2.7-1,4.3
				c0.9,1.9,1.6,6.2,2.6,7.2c2.2,1.9,3.9,3.4,5.3,7.9C305.7,269.4,306.7,270,306.7,270.8L306.7,270.8z"/>
			<path fill="#FFFFFF" d="M256.5,149.5c0,0-2.5-0.2-8.3,3.9c-6.4,3.6-14.9,8.9-21.1,15.8c-4.5,4.2-10.9,10.5-13.2,14.9
				c0,0-3.8,5.6-6.3,14.7c0,0,0.9,3,3.3-0.9c4.3-6.8,20.7-29.6,44.2-46.2l1.1-0.1c-11.6,9.2-26.7,21.6-41.3,42.8
				c-0.5,0.8-1.2,2.2-1.3,2.3c-0.7,1.1,1,1.3,0.2,1.1c1.3,0.3,1.8-1.4,2.7-1.8c0.5-0.2,0.8,1.2,1.6,0.9c3-1.3,5.2-4.2,6.4-5.9
				c0.1,0.5,0.8,1.9,0.8,1.9c1.4,0.3,5.6-5,7.8-8.7c0.6,0.7-0.1,2.3,0.7,1.6c2.5-2.2,4.8-4.6,6.2-6.7c1.6-2.5,3.3-3.7,3.9-8.1
				c1,0.6,1,0.8,1.2,1c0.6-0.7,0.7-1.4,1.6-2.4c1.1-1.1,1.3-2,2.6-2.8c0.5-0.3,1.5-2.1,1.7-3c0.2-0.9,2.3-3.7,2.5-4.7
				c1.7-3,4.7-4.6,6.8-6.8C262.2,150.8,260.7,148,256.5,149.5L256.5,149.5z"/>
			<path fill="#FFFFFF" d="M234.8,238.4c0.9,0.9,1.6-0.3,1.6-0.3c1.4-2,1.7-2.5,2.7-5.2c0.6-1.8,1.4-2.4,2-9.8c1.7,2.4,2,6.9,2,6.9
				l0.5-0.1c0,0,1.6-4.2,4.3-5.6c0,0,0.2-2.8,3-5.7c-0.4-1.7-0.6-3.1-1-5.8c-1.1-4.6-1.7-12.2-0.6-17.4c2.2,10.9,3.5,12.5,3.5,12.5
				l0.5,0.2c0.9-1.3,1.2-3.6,1.4-5.6c1.1-4.3,3.1-3.9,3.1-4.8c-0.6-3.5-1.6-9.1-1-13.9c1.2,5.2,1.9,4.9,2.7,6.8
				c1.1,2.4,1.2-0.6,1.2-0.6c-0.2-3.1,2.1-6.2-0.1-13.3c-0.9-4.9-3.3-15.4-2.3-17.8c0.6-3-0.5-1.9-0.5-1.9s-3.2,0.7-8,13.2
				c-7,20.8-13.1,43.1-19.6,61.1c2-9.5,12.5-42.8,15.6-54.9c0,0-0.4-0.9-1.1,0.1c-0.8,0.9-1.6,1.9-2,2.7c0.1,0-0.4,0.1-0.9,0.3
				l-1.6,2.2c0,0-3.1,4-11.5,12.1c-1.4,2.1-2,3-3.6,6.3c-0.6,1.2,0.3,1.4,1.2,0.7c2.3-2.1,2.4-2.1,5.6-4.3c0.1-0.1,2.7-0.9,2.7-1
				c-0.4,0.5-0.9,0.8-1.1,1c-0.9,0.8-3,3-3.6,3.9c-1.4,2.3-3,5.1-5.1,8.6c-2.6,4.3-4.6,9.3-4.6,9.3c-1.4,3.5-1,3.9-1,3.9
				c1.8,0.7,0.8,1.5,0.8,1.5c-0.8,1.4-1.2,2.6,0.2,2c0.9-0.2,1.4-0.6,1.8-1c0.7-0.8,1.3-1.4,1.8-2c0.8-1,0.7-1.2,1.6-2.2
				c1.1-1.2,1.9-2.3,3.1-2.8c-2,2.6-2.2,4.4-2.2,4.4l0.5,0.6l0.4,0.2c0,0-2.1,2.4-3.1,7.8c-0.5,2.6-0.4,2.9-0.8,4.3
				c0.2-0.2,1.4,0,2.5-1c-0.5,1.6-0.6,2.4-0.6,2.4c-0.2,1.3-0.2,1.1-0.2,2.6c0,1.4,0,0.8,0.5,2.4c2.2-0.9,2.7-0.8,4.8-3.1
				c1-0.9,1.8-2.9,2.1-2.8c0.5,0.2,0.1,1.4-0.2,1.9c-0.3,0.7-0.6,1.3-0.8,1.8c-0.1,0.3-0.4,0.6,0.1,1c0.2,0.2,0.1,0.1,0.7,0.1
				c0.4,0,0.7-0.5,0.7-0.5s0.2,0,0.4-0.4c0.1-0.3,0.4-0.5,0.7-0.7C234,238.7,234.4,238.3,234.8,238.4L234.8,238.4z"/>
			<path fill="#0C130F" d="M177.6,168.3H175l8.5-17.9l-10.5,7.6l-2.4-11.3l-5.5,15.4l-2.7-1.9l-4,8.3h-3v9h18.2L177.6,168.3
				L177.6,168.3z"/>
			<path fill="#0C130F" d="M162.2,177l9.6,5.9l1-2.6l-5.7-3.4L162.2,177L162.2,177z"/>
			<path fill="#0C130F" d="M164.9,175.8l5.2,4.9c0,0-4.1,15.8-3.3,24.5c7.5,6.7,13.1,13.2,12.2,27.8c0,0,0.5,0.3-2.7-0.6
				c1.6,1.6,2.1,2.8,3.5,5.6c0.6,4.4,1,8.4,0.6,12.5c0,0,0.4,10.1,0.7,13.3c1.5,0.5,0.6,4.1,0.7,8.9c0,0-0.1,3-0.6,5.2
				c-3.1-2.3-2.8-2.2-3.7-1.9c0.7,2.3,1.2,2.3,2.7,4.1c0,13.6,0.5,27.6,1.5,33.7c0.5,4.4,1.4,9.6,1.7,11.2c0.7,2,0.7,3.9,3,8.2
				c-0.7,0-2.8,0.1-4.2-1.6c2,3.4,2,2.7,3.2,3.9l1.7,11.8l-2,2l2.7,1.6c0,0-0.6,5.4,0.1,10.3c0.4,2.3,1.1,4.6,2.8,7.7
				c-3.6,0.1-4.2-2.6-4.2-2.6c-1-1-2.7-3.3-3.2-3.3c-0.2,3.3,1.7,4.6,2.6,6.5c2.5,5.6,2.8,10.9,0.6,21.3c-2.5-2.2-2.6-4.1-4.4-5.1
				c-0.2,5.9-0.5,7.7-1.7,10.4c-2.6,4.7-3.3,7.1-3.5,11.6c-4.3-3.3-5.4-7.9-8.4-10.5c-2.1-1.9-6.3-5.6-7.8-8c-0.2,2.8,0,3.9-1.2,6.6
				c-1-3.2-1.1-4.1-3.5-6.7c-3.1-4-10-12.9-11.6-22.3c-0.4-1.6-1.4-6.3-2.5-12.6c-0.9,2.2-2.3,3.9-3.8,4.2c-0.7,0.3-0.7-0.6-0.7-0.6
				c0.6-2.1,0.9-4.3,0.6-6c-0.4-2.5-1.1-8.1-2.5-9.5H135c0.1,3.8-1.5,5.5-2.5,6.7c-0.1-3,0-5.2-0.7-6.7c-0.4-1-1.2-1.9-1.5-0.9
				c-0.6,3-0.9,3.5-0.9,6.3c-0.2,4.1-0.2,5.5-0.7,8.9c-0.2,2.5-1.1,5.6-3.6,8.7c-0.5-2.7-2.3-4.9-2.3-4.9c0,3.3,0.7,8.2-1.5,10.8
				c-2.7,3.4-3.1,5.1-4,7.6c-0.4-3-1.4-2.1-1.8-3.6c-2,7.7-8.2,13.7-10.4,15c1.5-3.2,2.7-6.8,3-9.1c0,0-0.4-8.4-1.7-13.2
				c-3.4-14.9-5-49.4-2.5-62.4c6.2-46.9,32.6-90,54.8-128.7L164.9,175.8L164.9,175.8z"/>
			<path fill="#FFFFFF" d="M167.5,180.4c0,0-3.8,15.2-3.1,25.7c5.2,4.1,10.7,9.7,11,21.2c-0.4,0.2-0.5,0.1-0.9-0.2
				c-1.5-1.8-5.4-2.3-8.4-6.8c0.4,2.8,9.1,14,9.8,16.1c0.1,7,1.2,17,0.6,19l-3-1.8c1.6,3.8,3,7.2,4.9,10c0,0,0.2,9.8-0.2,8.5h-0.5
				c-1.7-1.1-3.5-2.5-4.7-3.6c-0.8-0.4-0.9-1.4-2.4-2.7c-2.2-1.9-3.5-3.5-4.4-3.8c-2.4-1.5-4-2-5.3-2.4c-0.4,0-1.3-0.1-1.3-0.1
				s4.4,3.5,7.3,7.4c3.4,3.8,4.8,6,6,8.2c1.3,2.3,3.2,4.6,4.6,6.5c0,3.1-0.2,13.6-0.1,15.3l-0.9-0.6c-2.2-1.3-4.6-4.1-6.7-7.7
				c-1.1,5.2,4.9,11.4,7.7,13.4c0.9,9.7,0.9,14.3,2.7,24.5l-0.1,0.8c-2.5-1.6-5.1-4.1-8.2-8.2c-0.2,4,4.1,9.2,8.6,14.2
				c0.6,0.7,0.4,1.5,0.8,2.3c0.5,1.3,1.1,2.8,1.8,3.7c0.6,2.2,0.8,5.2,0.7,6.4l-1.9,3.3l2.5,2.7c0.2,3-0.4,3.8,0,7.1
				c0,0-2.8-0.2-4.1-3.2c-2.2,5.7,0.3,12.1,2.2,15.4c1.5,3.9,2.3,6.3,2.1,10.5l-0.5,1.2c-1.5-2.7-3.6-5-5.7-6.5l-0.9-0.2
				c2.1,12,1.4,15.9-2.6,23.6l-0.6-0.6c-2.2-4-6.4-7.1-9.4-9.9c-0.5-0.1-5.7-6.2-6.1-11.1l-0.6,0.1c-0.2,1.7-1,5.4-0.5,6l-0.5-0.2
				c-3-1.3-8.3-10.9-9.3-16.5c0,0-0.2-1.1-0.6-3.3c-0.2-2.2-1.4-8.8-1.7-9.7c-0.4-2.4-1.6-5.5-2-7.2c0.1-0.6-0.4-0.7-0.7-0.3
				c-0.7,0.9-1.2,1.8-1.6,1.2c-0.3-0.6-0.1-1.5,0.2-2.7c-0.5,0.3-1.6,0.5-1.7-0.3c-1.4-5.6-2.1-12.5-2.1-18.2
				c0.6-1.5,2.3-4.2,3.7-7.2l-0.1-0.7c-1.5,0.7-4,3-4.4,4.2l-0.6-0.8c-0.5-2.3-1-6.7-1-11.4c-0.2-0.9,0.1-1.4,0.5-2.1
				c1-2.2,2.1-4.6,3-6.9c0.7-2.4,4.9-9.8,6.1-11.5l-0.8,0.7c-2.3,0.7-8.1,7.3-8.9,7.8l-0.6,0.1c0.3-6.6,2.3-21.1,3.6-30.1
				c1.4-3.4,12-13.6,9.5-11.8c-4.8,1.6-6.4,3.2-7.4,3.6l-1.5,0.5c1.5-6.4,4.5-29.3,7.8-35.5c2.3-3.8,4.7-4.8,6.4-8.9l-1.2,0.6
				c-0.9,0.8-4.7,3.4-7,6.4l-0.8,0.1c1.1-3,1.5-6.1,3.7-10.3c0.6-1.7,1.6-2.4,2.4-3.9c1.8-2.2,2.6-3,4.3-3.8
				c0.9-0.3,2.5-0.9,2.5-0.9c-4.9,18.7-6.7,33.8-8.2,54.6c-1.5,33,1.5,73,13.6,97.7c-9.6-28.9-13.3-60.4-12.1-92.3
				c1-27.3,5.4-49.2,15.1-86.1L167.5,180.4L167.5,180.4z"/>
			<path fill="#FFFFFF" d="M160.9,177.6c-3.1,3.9-24.3,40.8-26.4,47.5c-18.8,34.7-29.9,69.4-29.1,103.4c0,14.9,1.7,25.2,3.7,36.1
				c0.9,4.2,2.1,9.9,1.9,13.6l0.6-0.3c0.9-1.5,3.2-6.1,4-10c0.2-1.5,1.1,0,1.1,0c0.4,1,1.1,1.5,1.2,2.5c0,0.9,0.5,0.8,0.7,0.1
				c1.4-2.5,1.7-4,1.2-6.6c-0.5-2.2-0.9-11.2,0.2-14.5c0-0.9,0.9,0,0.9,0c0.6,1.4,1.6,3.9,3.8,5.9c0,0,0.9,0.6,1,0
				c-0.2-2.4-0.5-18,3.5-19.7c1.5,0.3,1.6,1.3,2.7,2.3c1.2-1.3,1.7-6.6,1.4-10.7c0.1-6.4-0.9-12.8-1.5-16.7c-0.5-1.3,0-1.5,0.7-1.7
				c0.2-0.1,3-3.3,3-5c-2.3,1.5-3,1.8-5.2,3.2c-0.2-4.9-2.6-12.6-5.2-18.7c2.7,2.3,4.4,4.9,5.3,7.1c1-5,1.4-8,1.5-10.4
				c-1.4-4.4-3.9-14.1-3.7-21.3c1.6,5.2,3.1,10.9,4.7,14.4c0.7-2.5,1.4-7,2.3-10.7c1.4-0.9,3-1.8,3.5-2.6c-0.5-0.8-2.6,0.7-3,0.8
				c0.2-3.5,0.9-10.4-1.7-21.5l0.4-0.3c1.1,0.5,2.5,2.5,3,4.7c2.2-2.4,3.7-14.2,4.3-18.9c-2.3,0-3.5,2.4-5.1,2.2
				c0.2-1.5,0.4-0.8,1-2.2c0.6-1.6,2.1-3.2,2.7-5.4c1.4-1.8,1.4-4,1.5-6c0-1.9-0.2-4.8,1.5-7.3c0.4,1,0.1,1.7,1,3.9
				c0,0,3.5-6.9,5.3-8.5c2.5-9.9,8.4-21.1,14-28.4"/>
			<path fill="#FFFFFF" d="M162.1,183.9c-4.1,5.4-7,13.8-8.5,19.8c1.9-0.9,2-0.8,3.7-1.4C157.9,199.5,162.7,183,162.1,183.9z"/>
			<path fill="#F1C817" d="M121.2,313.9c0.1,0.3,0.6,0.1,0.3,0.5c0.7,0,1.5,0.1,2.2-0.1c0.3-0.1,0.6-0.6,0.6-0.9
				c0.2-1,0.7-2.2-0.2-2.8c-0.8-0.6-0.7-1.6-1.2-2c-0.3-0.2-0.8-0.4-1.2-0.7c-0.3-0.3-0.8,0.3-0.8,0.6c0,0.7,0.5,1.5,0.5,2.3
				C121.4,312,120.8,312.3,121.2,313.9L121.2,313.9z"/>
			<path fill="#F1C817" d="M112.3,303.5c-0.1-1.3-0.6-3.2,1.6-2.7c0.7,0.2,0.8,1.1,0.8,1.5c0,1.2,0.3,2.1,0.9,3.2
				c0.3,0.6-0.2,1.1-0.5,1.5c-0.8,1.1-2.5,1.8-3.5,0.7c-0.6-0.7-1.3-1.7-0.8-2.6c0.4-0.7,0.8-1.1,1.4-1.8"/>
			<path fill="#F1C817" d="M114.4,317c-1.1-1.5-0.6-2.9,0.7-3.8c0.8-0.6,1.8-0.2,2.1,0.5l1.5,3.9c0.5,1.4-1.4,2.7-2.8,2.1
				C115,319.3,115,317.8,114.4,317z"/>
			<path fill="#F1C817" d="M115.6,322.4c-0.5-0.2-0.6,0.3-0.9,0.5c-0.6,0.4-0.6,1.4-1,2c-0.9,1.1-0.6,2.7-0.3,3.8
				c0.2,0.7,1.4,1.8,2.4,1.7c1.6-0.1,2.8-2.9,1.6-3.5c-1.6-0.9-1-3.1-1.6-4.2c0-0.1-0.4,0-0.7,0"/>
			<path fill="#F1C817" d="M125.8,319.6c-0.4-0.5-0.4-1.2,0-1.5c0.4-0.3,1.2-0.2,1.6,0.2l0.7,0.5c1.3,1,2.1,2.3,1.4,3.8
				c-0.2,0.4-1,0.8-1.5,0.4c-0.4-0.3-1-0.3-1.3-0.8C126.2,321.3,126.4,320.4,125.8,319.6L125.8,319.6z"/>
			<path fill="#F1C817" d="M111.2,310.4c-0.2-0.7-0.9-0.4-1.3,0.2c-0.9,1.2-1.3,2.5-1.4,4.3c0.2,1,1.8,1.2,2.6,0.8
				c1.8-1,0.5-4.9,0.4-4.4C111.5,310.9,111.2,310.3,111.2,310.4L111.2,310.4z"/>
			<path fill="#F1C817" d="M145.5,321.7c-0.4-0.3-1,0-1,0.4c-0.1,1.2-0.2,3.4,1.8,3c0.7-0.1,1.1-0.8,1-1.4
				C147,322.7,146.3,322.2,145.5,321.7L145.5,321.7z"/>
			<path fill="#F1C817" d="M150.1,325.8c-0.5-0.4-1.3-0.4-1.6-0.1c-0.7,0.5-1,1.6-0.7,2.4c0.3,0.9,0.6,1.8,1.3,2.5
				c0.5,0.4,1.4,0.9,1.6,0.6c0.6-0.8,1.1-1.8,0.9-2.8C151.3,327.4,150.9,326.5,150.1,325.8z"/>
			<path fill="#F1C817" d="M167.8,324.5c-0.3,0-0.8,0.1-0.9,0.3c-0.7,1,0.1,2.2,1,2.6c1,0.5,2.2-1,1.5-1.9c-0.5-0.5-1.2-1-2-1"/>
			<path fill="#F1C817" d="M159.3,334.9c-0.4-0.2-0.9-1.2-0.6-1.9c0.3-0.6,1-0.9,1.7-0.8c0.8,0.1,1.3,0.6,1.7,1.2
				c1.1,1.3,1.5,3.4,0,4.6c-0.6,0.5-1.7,0.4-2.1-0.3c-0.5-0.8-0.1-1.5-0.6-2.4L159.3,334.9L159.3,334.9z"/>
			<path fill="#F1C817" d="M169.6,335.7c-1-0.7-0.6-2.2-1.7-2.8c-0.6-0.4-1.4-0.5-2,0c-0.6,0.5-0.6,1.2-0.8,1.9
				c-0.1,0.4,0.2,0.8,0.4,1.1c0.8,1.5,2.8,1.6,4.3,2.4c0.2,0.1,0.6-0.3,0.8-0.5C171,337,170.3,336.2,169.6,335.7L169.6,335.7z"/>
			<path fill="#F1C817" d="M153.2,334.2c-0.5-0.6-1.4-0.4-2-0.1c-0.2,0.1-0.4,0.4-0.4,0.6c0,1.5-0.5,3,0,4.4
				c0.4,0.8,1.2,1.9,2.2,1.4c0.8-0.3,1.2-1.2,1-2C153.7,337.2,154.4,335.5,153.2,334.2L153.2,334.2z"/>
			<path fill="#F1C817" d="M181.2,334.7c-0.3-1-2.3,0-3.1-0.6c-0.6-0.6-1.4-1.1-1.5-2c-0.5,1.1-0.1,2.2,0.4,3.2
				c0.3,0.5,1,0.8,1.5,1.3c0.5,0.5,0.7,1.2,1,1.9c0.4,0.9-0.5,1.4-1.1,1.5c-1.8,0.3-1.9-2.1-2.4-3.2c-0.4-0.8-1.6-1.2-2.2-1.9
				c-0.1-0.2-0.4-0.4-0.6-0.6c-0.5-0.8-1.5-1.4-2-2.3c-0.1,0.4,0.1,0.8,0.2,1.1c0.9,2.5,2.2,4.7,3.4,7.1c0.3,0.7,0.7,1.3,0.9,2
				c0.2,0.6,0.1,1.4-0.3,1.7c-0.4,0.4-1.3-0.5-1.5-0.2c-0.7,1.1,0.4,2.3,1,3.4c0.4,0.7,1.2,1.5,0.8,2.3c-0.1,0.2-0.3,0.4-0.6,0.5
				c-0.9,0.2-1.6-0.3-2.1-0.8c-1.8-1.8-3.4-3.5-4.9-5.6c-0.6-0.8-0.3-1.9-0.9-2.7c-0.4-0.5-1-1.2-1.6-0.7c-0.2,0.2-0.4,0.4-0.5,0.7
				c-0.2,1-0.4,2-1.1,2.8c-0.2,0.2-0.6,0.6-0.7,0.7c-0.9,1.6-1.1,3.4-1.4,5.3c-0.1,0.4-0.2,1-0.7,1.2c-0.5,0.3-0.9-0.3-1.2-0.6
				c-0.8-0.9-1.1-1.9-1.6-2.8c-0.3-0.6-0.3-1.4-0.7-2l-0.2,0c0.1,0.2-0.1,0.3-0.2,0.4c-0.5,0.8-1.3,1.1-2.2,1.5
				c-0.5,0.2-1-0.2-1.1-0.5c-0.6-2.2-2.2-3.8-2.9-5.9c-1,0-2,0.2-2.7-0.7c-1.5-2-1.2-4.3-1.4-6.5c-0.3,0.3-0.7,0.4-1,0.8
				c-2.3,3.5-3.2,7.1-4.2,11c-0.2,0.8-0.3,1.1-0.6,1.8c-0.6,1.5,0.3,1.8,1.2,0.7c1.5-1.8,1.2-0.3,1.4,0.1c0.4,2.6,1.9,5.2,2.5,9.7
				c0.5,4.3,1.5,8.7,2,10.8c1.3,7.1,6.4,14.4,9.5,16.2c-0.4-3,0.7-4.1,0.5-6.4l0.6-0.1c0.1,4,3.3,9.1,7,12c3,3.2,4.6,3.9,7.1,7.2
				c0.7,1.1,1.3,1.7,1.9,2.6c1.4-2.6,3.8-7.1,3.8-12.1c0-3.8-0.1-8.2-1.2-11.6c2.2,0.9,4.7,4.2,6.6,7.1c1.1-2.2,0.5-8.2-1.2-11.2
				c-1.7-3.6-4.6-8.7-2.6-16.1c1.2,2.6,2.1,2.5,4.1,3c0.4-2.7-0.1-6.6,0-7.1c-0.8-1.2-2.5-2.7-2.5-2.7l1.8-3.3
				c0.9-3.3-0.9-5.9-0.7-6.4C182.2,337.6,181.6,335.9,181.2,334.7L181.2,334.7z"/>
			<path fill="#F1C817" d="M159.8,316.4c-0.3-0.7-1-1.2-0.6-1.9c0.1-0.2,0.5-0.1,0.8-0.2c0.9-0.2,1.9-0.1,2.5,0.5
				c0.5,0.5,0.8,1,1.1,1.6c0.4,0.6,0.5,1.3,0.7,1.9c0.3,0.7,0,1.5-0.6,1.8c-0.7,0.4-1,0.7-2,0.3c-0.4-0.2-0.6-0.9-0.8-1.2
				c-0.2-0.4-0.2-1.5-0.5-1.9C160.1,316.9,160,316.8,159.8,316.4L159.8,316.4z"/>
			<path fill="#F1C817" d="M159.2,320.2c-0.3-0.3-0.7-0.3-1-0.3c-0.2,0-0.6,0-0.6,0.3c0.1,1.4-1.6,2-2.2,3.1c-0.5,1.1,0.6,2.2,1.5,3
				c0.7,0.6,1.9,0.2,2.7,0c1.4-0.4,1.6-2.3,1.3-3.5C160.6,321.8,160,321,159.2,320.2L159.2,320.2z"/>
			<path fill="#FFFFFF" d="M175.6,171.1h-17v3.6h15.5L175.6,171.1z"/>
			<path fill="#FFFFFF" d="M173.7,160.9l0.6,2.7l3.2-5.8L173.7,160.9L173.7,160.9z"/>
			<path fill="#FFFFFF" d="M161.9,168.3l1.7-3.9l4.9,3.9H161.9z"/>
			<path fill="#FFFFFF" d="M167.6,164l2.3-7.5l1.6,10.6L167.6,164z"/>
			<path fill="#F1C817" d="M105.7,315c0.1,1,0.1,0.4,0.6,1.3c0.5,0.8,0.2,1.8,0.6,2.7c0.3-0.4,0.9-0.6,1-1.1
				c0.5,1.8-0.9,3.5-0.2,5.2c0.8-0.6,1.9-0.8,2.5-1.6c-0.1,0.7-0.3,1.4-0.4,2.1c-0.2,1.2,0.3,2.4,0.5,3.6c0.2,1.6,2.3,2.7,1.7,4.3
				c-1,2.5-1.5,5.2-0.6,7.5c0.2,0.5,0.5,1.3,1.1,1.6c0.5,0.2,1.2,0.2,1.6,0c0.3-0.1,0.5-0.5,0.5-0.8c0.2-1.1-0.3-2.1-0.1-3.2
				c0.3-1.4,0.5-2.7,1.5-3.8c0.2-0.2,0.9-0.2,1.1,0.2c0.6,1.3,0.4,2.8,1.2,4c0.3,0.4,1.3,0.7,1.8,0.2c1.2-1,0.7-2.5,0.9-3.8
				c0.2-2.1-0.8-3.3-1.1-5.5c-0.3-2,0.1-2.3,0.8-3.2c0.7,1.9,0.7,4,2.2,5.7c0.3,0.4,0.9,0.4,1.2,0.2c1.1-0.9,0.9-2.7,0.1-4
				c-1.2-1.8-2.2-4.8,0-6.5c-0.1,0.9-0.1,2,0.4,2.7c0.7,1,2,2.9,2.2,4.8c0.1,0.7,1.1,0.9,1.8,0.4c0.1-0.1,0-0.5,0.3-0.6
				c1-0.1,1.5,1,1.5,1.8c0.4,0,1,0.1,1.2-0.1c1-0.9,0.8-3.2,0.8-4.5c0.1-2.4,0.7-1.5,1.2-1.7c0,0,0.2,1.1-0.1,4.4
				c0.4,4.1-0.1,9.5-1.4,10.7c-1.1-1-1.2-1.9-2.7-2.3c-4,1.7-3.7,17.3-3.5,19.7c-0.1,0.6-1,0-1,0c-2.2-2-3.2-4.6-3.8-5.9
				c0,0-0.9-0.9-0.9,0c-1.1,3.3-0.7,12.3-0.2,14.5c0.5,2.6,0.1,4.1-1.2,6.6c-0.2,0.7-0.7,0.8-0.7-0.1c-0.1-1-0.9-1.5-1.2-2.5
				c0,0-0.9-1.5-1.1,0c-0.7,3.9-3.1,8.5-4,10l-0.6,0.3c0.2-3.6-1-9.3-1.9-13.6c-2-10.9-4-21.2-4-36.1c0-6.7,0.4-14,0.4-14L105.7,315
				L105.7,315z"/>
			<path fill="#F1C817" d="M157,342.9c1.8,5.1,4,12.1,5.5,14.7c-0.4-3-4.7-14.7-4.6-15.5C158,341.3,157,342.9,157,342.9L157,342.9z"
				/>
			<path fill="#FFFFFF" d="M293.1,150c-0.4-0.4-1.7-0.2-1.9-0.7c-0.2-0.4-0.4-0.8-0.6-0.9c-0.4-0.3-1,0.1-1.5,0.2
				c-0.8,0.1-1.6,0-2.3-0.3c-1.3,1.4-4.9,0.5-6.5,0.6c-0.2,0,1.1,0.7,1.3,0.8c1.2,0.9,3.1,0.8,4.5,0.9c0.2,0,0.7-0.2,0.9-0.2
				c1.5-0.2,3.1,0.3,4.7,0.5C292,151,293.6,150.5,293.1,150L293.1,150z"/>
			<path fill="#FFFFFF" d="M317.1,152l-3.7-1.9c-0.2-0.3-0.5-0.7-0.9-1c-0.8-0.7-1.3-1.5-2.2-2.1c-1.3-0.7-2.3-1.7-3.7-2.2l-0.5,0
				c-0.1,0-0.2-0.1-0.1-0.2c-0.1,0-0.3,0-0.4,0c-0.2-0.2-0.5-0.3-0.7-0.4c-0.7-0.2-1.5,0.2-2.2-0.3c-0.4-0.3-0.8-0.5-1.2-0.7
				c-1.1-0.7-2.3-0.3-3.5-0.1c-0.2,0-0.6,0.3-0.8,0.5c-0.4,0.4-1.2-0.3-1.8-0.1c-0.5,0.2-1.1,0.7-0.6,1.2c0.5,0.5,1.2,0.8,2,1
				c2.1,0.5,4.4,0,6.4,0.8c0.6,0.2,1.3,0.5,1.5,1.2c-0.2,0-0.4,0.2-0.6,0.1c-0.5-0.3-1-0.3-1.5-0.4c-3.4-0.3-6.7-0.5-10.1-0.1
				c0,0.8,0.3,1.6,1.1,1.7c1,0.1,2.2-0.2,3.2-0.1c1.1,0.1,2.3,0.7,3.4,1.3c0.1,0.1,0.4,0.1,0.6,0c0.5-0.2,0.9-0.8,1.5-0.6
				c0.3,0.2,0.7,0.3,1,0.3c0.8,0.1,1.3,0,2.1,0.1c1.6,0.2,2.9,1.2,4.4,1c1.2-0.2,1.7,0.2,2.3,0.7c-0.3-0.3,2.1,1.3,2.3,0.9
				C314.6,152.4,317.1,152.3,317.1,152L317.1,152z"/>
			<path fill="#FFFFFF" d="M326.1,151.3c-1-0.6-1.1-1.7-1.6-2.6c-0.4-0.6-1-1.2-1.6-1.5c-2.9-1.4-6.3-3.8-8.4-3.6
				c-0.7,0.1-1,0.7-0.6,1.1c0.7,0.7,2.1,0.9,2.2,2c2.9,1.3,8,2.2,7.7,5.1C323.7,152.1,325.6,151.2,326.1,151.3L326.1,151.3z"/>
			<path fill="#F1C817" d="M158.6,171.1l18.2,0c-1,1.8-1.6,3.7-1.6,3.7l-16.6,0L158.6,171.1L158.6,171.1z"/>
		</g>
	</g>
	<g id="Layer_61">
	</g>
	<g id="Layer_63">
	</g>
	<g id="Layer_64">
	</g>
	<g id="Layer_66_copy">
	</g>
</g>
</svg>
