<?xml version="1.0" encoding="UTF-8" standalone="no"?>
<svg width="512px" height="512px" viewBox="0 0 512 512" version="1.1" xmlns="http://www.w3.org/2000/svg" xmlns:xlink="http://www.w3.org/1999/xlink" xmlns:sketch="http://www.bohemiancoding.com/sketch/ns">
    <!-- Generator: Sketch 3.3.1 (12002) - http://www.bohemiancoding.com/sketch -->
    <title>miami-heat</title>
    <desc>Created with Sketch.</desc>
    <defs></defs>
    <g id="NBA" stroke="none" stroke-width="1" fill="none" fill-rule="evenodd" sketch:type="MSPage">
        <g id="miami-heat" sketch:type="MSArtboardGroup">
            <g sketch:type="MSLayerGroup" transform="translate(113.000000, 58.000000)" id="layer1">
                <g transform="translate(0.223112, -0.897711)" sketch:type="MSShapeGroup">
                    <g id="g3261">
                        <path d="M281.776144,95.9711795 C270.916824,84.198975 247.341756,74.59489 216.628232,68.7077032 C216.628232,65.300708 218.798157,63.7519295 222.832519,61.2741588 C224.694532,59.7231916 226.864457,58.1743937 229.347141,56.0062935 C238.962695,46.7142808 227.485128,32.461904 226.864457,31.8423306 L220.66017,24.0966947 L222.209423,34.0104501 C223.14043,40.8270939 220.66017,43.3048646 213.214541,48.2630787 C212.285959,49.1923033 211.665287,49.8116249 210.731856,50.4311789 C211.044616,46.0925381 211.354952,40.8270939 209.80085,34.6300041 C208.251596,28.1256843 205.14824,25.6454926 205.14824,25.6454926 L204.527569,34.9396746 C204.217234,34.9396746 203.598987,42.0659889 193.981009,50.7408494 C194.912016,49.8116249 195.840598,48.8799792 196.461269,47.9509871 C201.116303,41.1367644 199.872536,33.3911285 198.012947,24.4087863 L197.705036,22.5481485 C196.150933,13.2537341 198.636042,7.3687165 200.185296,6.43949199 C202.047309,4.58129476 205.14824,1.17404782 205.14824,1.17404782 C205.14824,1.17404782 203.288652,0.552305097 198.636042,1.17404782 C192.739667,2.10327233 182.811353,5.51051927 183.121688,13.5658063 C183.121688,17.2827044 184.363031,20.6896995 185.294037,23.7870435 C186.532955,26.8867893 187.463962,29.9841333 186.532955,31.5326795 C185.914709,32.7715551 183.74236,33.7007796 180.020757,34.320353 C166.060506,36.8005448 155.20361,43.614535 149.927653,52.9089495 C148.066609,56.0062935 146.826004,59.1060393 146.205566,62.822705 C111.459871,62.822705 78.265118,67.159157 52.8268143,75.2144634 C24.28467,83.8893239 8.4638596,95.9711795 7.22323497,109.911717 C6.29271315,117.34745 9.70446483,127.87859 28.3190324,138.101996 L28.0065051,138.101996 L33.2817249,140.582188 L36.0732903,142.130967 C44.4501784,145.847632 54.3777551,148.944957 65.5459564,151.73263 C61.5140185,153.903171 58.0998423,156.380942 54.6878579,159.478266 C37.0038121,174.038144 26.7683244,195.724085 26.7683244,218.958823 C26.7683244,239.405152 34.5223495,258.61429 49.1049598,273.174885 C63.685165,287.733059 83.2278105,295.788113 103.703422,295.788113 C139.999824,295.788113 171.644121,270.075856 179.089751,234.449127 C185.294037,215.862215 184.673366,196.036176 184.363031,188.290521 C183.74236,171.250471 192.118996,161.958458 197.392276,157.619817 C221.901512,154.522493 243.304969,149.25486 259.439257,142.130967 L261.919517,140.892091 L267.505557,138.101996 C280.224467,130.978103 287.667671,122.303243 288.288342,113.318712 C288.909013,107.433713 286.739089,101.546527 281.776144,95.9711795 L281.776144,95.9711795 Z M256.646237,111.150612 C258.818586,113.318712 258.818586,114.867258 258.818586,115.486831 C258.50825,118.276674 255.094559,121.683921 249.200607,124.781246 C236.792771,130.978103 215.697225,135.933877 190.877653,138.411647 C191.80866,137.792326 193.050002,137.172772 194.291344,136.55345 L194.912016,136.55345 C202.047309,133.456106 210.11361,130.358781 210.423945,118.276674 C210.731856,116.418477 210.731856,110.840709 211.665287,108.672589 C213.214541,105.885167 216.628232,101.856178 219.418828,100.617302 C219.729163,100.617302 214.455883,99.6880775 214.455883,99.6880775 L213.835212,99.6880775 C215.38689,98.4491825 216.628232,96.900404 217.556814,95.3494367 C237.723777,99.6880775 251.683292,105.263173 256.646237,111.150612 L256.646237,111.150612 Z M36.6937287,113.938033 C37.6239984,104.024297 72.9923227,91.3228682 130.384755,89.1547681 C125.109535,93.1837383 118.59371,99.9977286 117.043002,111.150612 L116.422564,115.486831 C116.11248,118.276674 115.802378,120.754696 114.56152,123.542118 C112.390393,129.119654 106.184884,134.075428 99.6712316,137.482423 C76.7144099,134.695001 57.1693205,129.739208 46.0008864,123.852021 C39.7975693,120.444794 36.3833932,116.725707 36.6937287,113.938033 L36.6937287,113.938033 Z" id="path3095" fill="#1C2524"></path>
                        <path d="M213.835212,68.398052 C214.455883,61.58381 220.97293,60.0352638 227.174792,54.1478445 C235.551428,46.4022086 225.004868,33.7007796 225.004868,33.7007796 C226.243786,42.37564 222.209423,45.4729841 214.766219,50.7408494 C212.596294,52.2893955 210.731856,54.4577474 210.731856,57.2451692 C210.423945,60.6545854 210.11361,64.0618324 209.490514,67.4688275 C211.044616,67.7784786 212.596294,68.0881491 213.835212,68.398052 L213.835212,68.398052 Z" id="path3097" fill="#F59814"></path>
                        <path d="M191.498324,56.3159447 C189.638735,57.8647426 187.776722,59.4132887 186.225044,60.6545854 C184.983702,61.8934804 183.74236,63.1326079 182.501017,64.3714835 C189.638735,64.9908051 196.771605,65.6103785 203.288652,66.539603 C207.630925,58.7939671 209.80085,50.121276 207.010254,34.9396746 C207.010254,34.9396746 206.389583,45.1633136 191.498324,56.3159447 L191.498324,56.3159447 Z" id="path3099" fill="#F59814"></path>
                        <path d="M151.788464,62.822705 C159.856219,62.822705 167.922519,63.1326079 175.676059,63.7519295 C175.988819,63.442259 176.299155,63.1326079 176.607066,62.822705 C181.572435,57.2451692 189.949071,52.5992984 193.981009,46.4022086 C198.323282,39.8978694 196.771605,32.1522335 195.219927,22.857819 C192.429331,6.7493949 199.256714,3.96172136 199.256714,3.96172136 C199.256714,3.96172136 185.604373,5.82017039 185.914709,13.5658063 C186.225044,24.0966947 197.08194,34.0104501 180.641428,37.1101959 C162.646814,40.2075399 151.478361,50.121276 148.997131,62.822705 L151.788464,62.822705 L151.788464,62.822705 Z" id="path3101" fill="#F59814"></path>
                        <path d="M76.7144099,348.454661 L86.3319032,308.181809 L70.1985655,308.181809 L60.2709888,348.454661 L76.7144099,348.454661 L76.7144099,348.454661 Z" id="path3103" fill="#1C2524"></path>
                        <path d="M112.08029,318.09386 L113.010812,334.516293 L104.633943,334.516293 L113.320915,348.454661 L127.901101,348.454661 L125.729974,308.181809 L101.222192,308.181809 L81.3667668,348.454661 L96.8774938,348.454661 L112.08029,318.09386 L112.08029,318.09386 Z" id="path3105" fill="#1C2524"></path>
                        <path d="M74.5432635,385.321002 L71.1290873,398.951888 L86.3319032,398.951888 L96.2594799,358.988939 L81.0566834,358.988939 L77.3345962,374.476821 L65.856292,374.476821 L69.5781465,358.988939 L54.3777551,358.988939 L44.4501784,398.951888 L59.6505504,398.951888 L63.0647266,385.321002 L74.5432635,385.321002 L74.5432635,385.321002 Z" id="path3107" fill="#1C2524"></path>
                        <path d="M110.839685,389.967124 L112.08029,384.391293 L130.694858,384.391293 L133.176321,375.716432 L114.251437,375.716432 L115.492042,369.828277 L134.416945,369.828277 L137.518594,358.988939 L103.083235,358.988939 L93.1554066,398.951888 L127.280682,398.951888 L129.764336,389.967124 L110.839685,389.967124 L110.839685,389.967124 Z" id="path3109" fill="#1C2524"></path>
                        <path d="M208.869843,348.454661 L218.798157,308.181809 L202.357645,308.181809 L192.429331,348.454661 L208.869843,348.454661 L208.869843,348.454661 Z" id="path3111" fill="#1C2524"></path>
                        <path d="M235.861764,339.159994 C238.034113,342.259023 240.204037,348.144758 230.275724,352.79088 C218.487821,358.056809 230.275724,371.380213 214.455883,371.380213 L207.630925,371.380213 L201.116303,398.951888 L184.983702,398.951888 L191.498324,371.380213 L180.641428,371.380213 L184.052695,358.988939 L212.285959,358.988939 C229.036806,358.988939 217.246479,347.21747 225.625539,345.665534 C231.517066,344.735826 235.241093,343.496214 235.861764,339.159994 L235.861764,339.159994 Z" id="path3113" fill="#1C2524"></path>
                        <path d="M32.3512031,328.93804 L29.5598898,308.181809 L9.70446483,308.181809 L-0.223111879,348.454661 L14.6671767,348.454661 L19.9423965,327.388526 L20.2524799,327.388526 L23.0440454,348.454661 L31.7310168,348.454661 L43.82974,327.388526 L44.1398428,327.388526 L39.1773831,348.454661 L53.1371499,348.454661 L63.0647266,308.181809 L43.82974,308.181809 L32.3512031,328.93804 L32.3512031,328.93804 Z" id="path3115" fill="#1C2524"></path>
                        <path d="M164.816739,328.93804 L162.026143,308.181809 L142.173395,308.181809 L132.245799,348.454661 L147.136087,348.454661 L152.408165,327.388526 L152.718501,327.388526 L155.513945,348.454661 L164.198492,348.454661 L176.299155,327.388526 L176.607066,327.388526 L171.644121,348.454661 L185.604373,348.454661 L195.530262,308.181809 L176.299155,308.181809 L164.816739,328.93804 L164.816739,328.93804 Z" id="path3117" fill="#1C2524"></path>
                        <path d="M162.336479,368.593508 L163.267485,385.011099 L154.893274,385.011099 L163.267485,398.951888 L178.158744,398.951888 L175.988819,358.988939 L151.478361,358.988939 C151.478361,358.988939 131.315277,398.951888 131.62538,398.951888 L147.136087,398.951888 L162.336479,368.593508 L162.336479,368.593508 Z" id="path3119" fill="#1C2524"></path>
                        <path d="M29.5598898,224.227173 C31.7310168,234.449127 37.313915,246.532919 48.7924519,254.585553 C52.5167115,257.064776 56.2387987,258.924193 60.2709888,260.471287 C57.7895068,256.44497 54.9981935,252.106329 51.8965252,247.77011 C46.3109699,239.715055 40.7280911,231.040195 37.0038121,222.057852 C33.2817249,212.763186 32.3512031,203.16007 33.9021633,193.246314 C31.1105979,201.301621 29.2495542,209.666578 29.2495542,218.958823 C29.2495542,220.508338 29.5598898,222.367755 29.5598898,224.227173 L29.5598898,224.227173 Z" id="path3121" fill="#BF2F38"></path>
                        <path d="M41.9686964,220.200856 C45.3807002,228.563392 50.9660034,236.92835 56.2387987,244.673502 C60.5834967,250.869139 64.6156868,256.754873 67.4070001,262.640607 C70.8187517,263.570316 74.5432635,264.190122 77.9550152,264.190122 C74.2329279,258.924193 71.1290873,253.036038 68.3375219,246.223016 C57.7895068,219.578629 59.340467,186.741975 72.3721364,167.843476 C79.1956398,157.92972 87.5725085,151.425149 98.1205236,145.537962 C107.117598,140.582188 112.700729,139.340872 118.59371,135.933877 C124.799452,131.907328 128.211204,125.710238 124.179013,111.769933 C122.938408,107.743365 122.628305,104.333948 122.938408,101.856178 C121.3877,104.643851 120.457178,108.053267 119.83674,111.769933 C119.214129,115.486831 118.906218,119.825472 117.353086,124.471343 C111.770207,139.031221 84.780943,147.086508 81.3667668,148.015732 C71.1290873,151.115497 63.0647266,155.76162 56.5489015,161.336715 C38.2468613,177.757212 34.8326851,202.230845 41.9686964,220.200856 L41.9686964,220.200856 Z" id="path3123" fill="#BF2F38"></path>
                        <path d="M153.962267,88.8450976 C154.270178,89.7743221 154.582938,90.7035466 154.582938,91.6325387 C155.513945,96.5907335 153.962267,100.926953 147.756274,101.856178 C141.242873,102.785402 139.069302,97.2103069 138.449116,92.8716661 C138.449116,91.0132171 138.759219,89.7743221 138.759219,88.8450976 C137.828697,88.8450976 136.588072,89.1547681 135.65755,89.1547681 C133.486423,90.0839926 130.694858,91.9424416 128.211204,94.7322845 C126.970579,97.519958 125.419871,101.236624 127.901101,110.221387 C131.935715,125.710238 130.072247,135.314323 117.663188,140.582188 C101.532275,147.706081 91.2945957,151.73263 77.3345962,169.082351 C70.8187517,177.13789 67.0969166,190.768292 66.7868138,204.708616 C66.1663948,218.029115 68.9579603,232.279806 73.6103172,244.053696 C76.7144099,251.796426 80.436245,258.61429 84.780943,264.500025 C89.1234687,264.190122 93.4657421,263.570316 97.8104401,262.640607 C92.8453038,257.064776 90.0537383,250.249333 89.7436549,242.506602 C88.1929468,217.099406 101.842378,206.567065 122.938408,189.529416 L132.245799,181.47411 C170.092443,149.56453 158.925212,117.035377 163.267485,89.1547681 C160.166554,89.1547681 157.063199,89.1547681 153.962267,88.8450976 L153.962267,88.8450976 Z" id="path3125" fill="#BF2F38"></path>
                        <path d="M169.161437,89.4644192 C167.922519,95.0421874 167.612183,100.926953 167.301848,106.814392 C165.75017,130.978103 166.370841,158.549042 135.65755,185.810329 L126.35016,193.246314 C105.874549,209.666578 94.0859284,219.888532 95.0164502,242.194278 C95.3265336,249.629527 98.4306264,256.135067 103.703422,261.091093 C109.288725,259.543999 114.871856,257.064776 120.457178,253.968168 C147.136087,238.785346 163.888157,216.172118 170.402779,187.051645 C174.434717,168.7727 174.434717,153.903171 174.124381,141.821064 C174.124381,135.933877 175.055388,123.852021 175.055388,123.852021 C175.988819,116.418477 177.230162,105.885167 185.914709,92.2520927 C186.225044,91.6325387 186.225044,91.3228682 186.532955,90.7035466 C181.2621,90.3936437 175.368148,89.7743221 169.161437,89.4644192 L169.161437,89.4644192 Z" id="path3127" fill="#BF2F38"></path>
                        <path d="M178.158744,167.223902 L178.158744,167.223902 C177.230162,171.870025 177.230162,176.518336 176.607066,181.47411 C176.299155,183.332326 175.988819,185.193196 175.988819,186.741975 C175.676059,187.361297 175.676059,187.98087 175.676059,188.290521 C168.853526,218.958823 151.478361,242.506602 123.248492,258.61429 C118.59371,261.400996 113.630998,263.570316 108.668539,265.117409 C117.043002,270.695662 126.660496,272.245176 133.176321,271.315468 C158.304541,267.599054 170.713115,251.179042 176.607066,233.521839 C182.501017,215.552312 181.882771,196.343658 181.572435,188.600192 C180.641428,161.958458 201.116303,152.044722 201.116303,152.044722 C185.294037,151.115497 180.020757,158.239391 178.158744,167.223902 L178.158744,167.223902 Z" id="path3129" fill="#BF2F38"></path>
                        <path d="M161.405472,265.427312 C151.168277,274.102173 139.999824,275.96159 135.037131,276.581396 C125.109535,278.130911 113.320915,275.96159 102.7729,267.599054 L102.462797,267.289151 C97.8104401,268.528763 93.4657421,269.146147 89.1234687,269.45605 C99.3611482,280.610134 112.700729,286.495868 130.694858,287.733059 L130.694858,287.733059 C143.103917,283.086936 153.651932,275.031882 161.715808,265.117409 L161.405472,265.427312 L161.405472,265.427312 Z" id="path3131" fill="#BF2F38"></path>
                        <path d="M67.7171029,283.706742 C67.7171029,278.130911 66.1663948,272.555079 63.685165,266.976827 C57.4794234,265.427312 51.5861897,262.640607 45.6907836,259.234096 C42.2790319,257.064776 39.4874665,253.968168 37.0038121,251.179042 L37.0038121,251.179042 C43.5196566,265.117409 54.3777551,276.271493 67.7171029,283.706742 L67.7171029,283.706742 L67.7171029,283.706742 Z" id="path3133" fill="#BF2F38"></path>
                        <path d="M118.906218,291.451894 C108.978641,288.975091 100.29167,285.566159 92.8453038,279.680425 C89.1234687,276.891299 85.4013814,273.484788 82.2972887,269.765953 C78.265118,269.765953 74.2329279,269.45605 70.1985655,268.528763 C72.3721364,274.412076 73.6103172,280.300231 72.6797954,286.185965 L72.6797954,286.185965 C82.2972887,290.524606 92.5352203,293.001408 103.703422,293.001408 C108.978641,293.001408 114.251437,292.381602 119.214129,291.451894 C119.214129,291.451894 119.214129,291.451894 118.906218,291.451894 L118.906218,291.451894 Z" id="path3135" fill="#BF2F38"></path>
                        <path d="M205.458576,109.292162 C203.598987,114.867258 198.012947,114.247936 196.150933,111.150612 C193.670673,106.192397 194.60168,102.475751 197.392276,99.6880775 C200.185296,97.2103069 204.527569,95.661509 208.869843,93.8008906 L208.869843,93.8008906 C203.906898,92.8716661 198.636042,92.2520927 193.050002,91.6325387 L192.739667,91.6325387 C192.118996,92.2520927 191.80866,92.8716661 191.187989,93.4909877 C182.190682,106.814392 181.2621,117.035377 180.331093,124.471343 L180.020757,126.949365 C179.400086,130.978103 179.400086,135.933877 179.710422,141.821064 L179.710422,144.299086 C179.400086,146.467186 179.400086,148.325635 179.400086,150.495924 L179.400086,150.495924 C179.400086,149.56453 179.710422,149.25486 179.710422,149.874181 C182.190682,141.821064 186.845715,136.863101 193.360338,134.075428 C200.495631,131.288006 207.320589,128.497911 207.630925,118.276674 C207.941261,113.938033 208.251596,109.601814 209.180178,107.433713 C211.044616,103.404976 214.145548,102.475751 214.145548,102.475751 C210.731856,102.165848 207.010254,103.714627 205.458576,109.292162 L205.458576,109.292162 Z" id="path3137" fill="#BF2F38"></path>
                        <path d="M151.788464,66.8492541 C76.4043071,66.2299325 13.4265521,85.7477729 11.255425,110.221387 C10.3249032,120.135123 19.3219581,129.427136 35.1427685,136.863101 C44.7602618,141.511412 57.1693205,145.537962 71.4416146,148.635306 C74.5432635,147.396411 77.3345962,146.467186 80.436245,145.537962 C82.917727,144.608737 87.5725085,143.060191 92.8453038,140.892091 C71.7492736,137.792326 54.6878579,133.146203 44.1398428,127.568687 C36.3833932,123.232467 32.0411197,118.586577 32.6615387,113.628382 C33.9021633,96.900404 86.6419866,84.198975 150.237756,84.8185484 C213.835212,85.4381024 264.402454,99.378407 262.850776,115.796482 C262.54044,120.444794 258.198167,124.781246 251.063358,128.497911 C237.723777,135.314323 214.455883,140.892091 185.914709,143.369862 C184.983702,144.608737 184.052695,146.157535 183.121688,147.706081 C196.150933,142.750288 211.044616,150.183852 211.044616,150.183852 C211.044616,150.183852 212.285959,150.495924 212.904205,151.115497 C231.827402,147.706081 247.960002,142.750288 260.06018,137.172772 C274.638678,130.048878 283.32565,121.993572 284.256657,113.008809 C286.429006,88.2255435 226.864457,67.7784786 151.788464,66.8492541 L151.788464,66.8492541 Z" id="path3139" fill="#FFFFFF"></path>
                    </g>
                </g>
            </g>
        </g>
    </g>
</svg>