<?xml version="1.0" encoding="UTF-8" standalone="no"?>
<svg width="512px" height="512px" viewBox="0 0 512 512" version="1.1" xmlns="http://www.w3.org/2000/svg" xmlns:xlink="http://www.w3.org/1999/xlink" xmlns:sketch="http://www.bohemiancoding.com/sketch/ns">
    <!-- Generator: Sketch 3.3.1 (12002) - http://www.bohemiancoding.com/sketch -->
    <title>portland-trail-blazers</title>
    <desc>Created with Sketch.</desc>
    <defs>
        <path id="path-1" d="M8.73953333,0.546 L10.8583128,4.36106667 L-0.2696,46.1170667 L11.4355333,46.1170667 L12.5260308,42.0142667 L6.55681026,42.0142667 L17.6432462,0.546 L8.73953333,0.546 Z"></path>
        <linearGradient x1="50.3738368%" y1="1.17082296%" x2="50.3738368%" y2="98.9761321%" id="linearGradient-3">
            <stop stop-color="#FFFFFF" offset="0%"></stop>
            <stop stop-color="#FFFFFF" offset="14.61%"></stop>
            <stop stop-color="#FAFBFB" offset="28.18%"></stop>
            <stop stop-color="#ECEFF1" offset="44.23%"></stop>
            <stop stop-color="#D4DBE0" offset="61.48%"></stop>
            <stop stop-color="#C4CED4" offset="70.79%"></stop>
            <stop stop-color="#C4CED4" offset="100%"></stop>
        </linearGradient>
        <path d="M18.8478051,8.44653333 L14.3631128,30.3645333 L10.9533641,30.3645333 L18.8478051,8.44653333 L18.8478051,8.44653333 Z M15.173641,4.23106667 L-0.437235897,46.1014667 L5.37126154,46.1170667 L9.41353333,34.5470667 L13.5681385,34.5470667 L11.0812513,46.1170667 L17.0660256,46.1170667 L25.4253538,0.546 L13.2795282,0.546 L15.173641,4.23106667 L15.173641,4.23106667 Z" id="path-4"></path>
        <linearGradient x1="48.065873%" y1="1.19037078%" x2="48.065873%" y2="98.9941933%" id="linearGradient-6">
            <stop stop-color="#FFFFFF" offset="0%"></stop>
            <stop stop-color="#FFFFFF" offset="14.61%"></stop>
            <stop stop-color="#FAFBFB" offset="28.18%"></stop>
            <stop stop-color="#ECEFF1" offset="44.23%"></stop>
            <stop stop-color="#D4DBE0" offset="61.48%"></stop>
            <stop stop-color="#C4CED4" offset="70.79%"></stop>
            <stop stop-color="#C4CED4" offset="100%"></stop>
        </linearGradient>
        <path id="path-7" d="M10.8012821,0.546 L13.0479487,4.48933333 L18.9843333,4.48933333 L-0.124430769,46.1170667 L15.0855026,46.1170667 L16.176,42.0142667 L7.97739487,42.0142667 L27.0550513,0.546 L10.8012821,0.546 Z"></path>
        <linearGradient x1="48.6972452%" y1="1.16028163%" x2="48.6972452%" y2="98.9643757%" id="linearGradient-9">
            <stop stop-color="#FFFFFF" offset="0%"></stop>
            <stop stop-color="#FFFFFF" offset="14.61%"></stop>
            <stop stop-color="#FAFBFB" offset="28.18%"></stop>
            <stop stop-color="#ECEFF1" offset="44.23%"></stop>
            <stop stop-color="#D4DBE0" offset="61.48%"></stop>
            <stop stop-color="#C4CED4" offset="70.79%"></stop>
            <stop stop-color="#C4CED4" offset="100%"></stop>
        </linearGradient>
        <path id="path-10" d="M8.92272308,0.546 L11.121,4.35933333 L-0.00518461539,46.1170667 L12.4206103,46.1170667 L13.5197487,41.9969333 L6.82122564,41.9969333 C6.82122564,41.9969333 11.121,25.8734667 11.6498308,23.9269333 L17.650159,23.9269333 L18.7579385,19.8224 L12.7420564,19.8224 L16.8327179,4.53613333 L23.4914923,4.53613333 L24.542241,0.546 L8.92272308,0.546 L8.92272308,0.546 Z"></path>
        <linearGradient x1="50.7382631%" y1="1.16028163%" x2="50.7382631%" y2="98.9643757%" id="linearGradient-12">
            <stop stop-color="#FFFFFF" offset="0%"></stop>
            <stop stop-color="#FFFFFF" offset="14.61%"></stop>
            <stop stop-color="#FAFBFB" offset="28.18%"></stop>
            <stop stop-color="#ECEFF1" offset="44.23%"></stop>
            <stop stop-color="#D4DBE0" offset="61.48%"></stop>
            <stop stop-color="#C4CED4" offset="70.79%"></stop>
            <stop stop-color="#C4CED4" offset="100%"></stop>
        </linearGradient>
        <path d="M17.0936769,4.264 C17.0936769,4.264 19.1623385,4.1184 19.8674462,4.39226667 C20.4792308,4.6176 20.5016974,5.1792 20.2044462,6.3388 L17.3892,16.9121333 C16.9640615,18.5206667 16.6426154,18.7616 16.3384513,19.0510667 C15.9686154,19.3890667 15.1753692,19.8224 13.4108718,19.8224 L12.9390718,19.8224 L17.0936769,4.264 L17.0936769,4.264 Z M19.2349231,0.546 L9.11109744,0.546 L11.3162872,4.35933333 L0.165907692,46.1482667 L5.91046154,46.1482667 C5.91046154,46.1482667 11.2609846,26.0173333 11.8468462,23.9269333 L12.3203744,23.9269333 C13.4195128,23.9269333 14.1730103,24.0378667 14.6050615,24.4088 C14.9904513,24.7450667 15.1356205,25.3586667 14.8470103,26.5009333 L9.56043077,46.1482667 L15.3188103,46.1482667 L20.4463949,27.0157333 C20.9112821,25.2616 21.3035846,23.6028 20.093841,22.4605333 C19.6600615,22.074 19.0983949,21.8989333 19.0983949,21.8989333 C19.0983949,21.8989333 19.6427795,21.7377333 20.4152872,21.32 C20.9112821,21.0461333 21.4591231,20.6752 21.8911744,20.1448 C22.2057077,19.6924 22.5167846,19.2417333 22.8053949,18.1636 L25.805559,6.93333333 C25.805559,6.93333333 25.9161641,6.5624 25.9334462,6.5156 C26.3413026,4.92093333 26.7750821,3.02293333 24.9708359,1.7524 C23.3100308,0.546 21.1515026,0.546 19.2487487,0.546 L19.2349231,0.546 L19.2349231,0.546 Z" id="path-13"></path>
        <linearGradient x1="51.951301%" y1="1.16840237%" x2="51.951301%" y2="98.9480667%" id="linearGradient-15">
            <stop stop-color="#FFFFFF" offset="0%"></stop>
            <stop stop-color="#FFFFFF" offset="14.61%"></stop>
            <stop stop-color="#FAFBFB" offset="28.18%"></stop>
            <stop stop-color="#ECEFF1" offset="44.23%"></stop>
            <stop stop-color="#D4DBE0" offset="61.48%"></stop>
            <stop stop-color="#C4CED4" offset="70.79%"></stop>
            <stop stop-color="#C4CED4" offset="100%"></stop>
        </linearGradient>
        <path id="path-16" d="M16.3989385,0.546 L8.94691795,0.546 L10.0132205,2.444 L10.8963333,4.05426667 C10.4072513,4.87586667 10.118641,5.77546667 9.86805128,6.6612 L9.29083077,8.76893333 C8.81038974,10.6201333 8.44055385,12.5025333 8.3921641,14.0157333 C8.33513333,15.5445333 8.79137949,17.4096 9.29083077,18.746 C9.77127179,20.0824 12.595159,27.0504 12.8042718,28.0470667 C12.9822769,29.0454667 13.1741077,29.7041333 12.4983795,32.2642667 L10.0443282,41.4041333 C9.77127179,42.4649333 9.60190769,43.0438667 7.81494359,43.0438667 C6.0331641,43.0438667 6.09710769,42.3037333 6.32177436,41.4041333 L9.436,29.8826667 L3.64305641,29.8982667 L0.94705641,39.988 C0.513276923,41.6294667 0.257502564,43.2865333 1.20283077,44.59 C2.11705128,45.8293333 4.0094359,46.4082667 7.00095897,46.4082667 C13.556041,46.3926667 15.2721487,43.3350667 16.1552615,40.0521333 C16.1552615,40.0521333 17.919759,33.4862667 18.3690923,31.8292 C19.1243179,28.9657333 18.930759,27.6466667 18.6404205,26.1161333 C18.3518103,24.5717333 17.734841,23.2041333 17.2941487,22.0774667 L15.1909231,16.6556 C14.5981487,15.1268 14.3250923,14.0486667 14.3337333,12.6966667 C14.3337333,11.2961333 14.7675128,9.80026667 15.2721487,7.88666667 L15.9772564,5.31266667 C16.2019231,4.39573333 16.3937538,3.7024 18.3189744,3.6712 C19.0413641,3.6712 19.5131641,3.79946667 19.6998103,4.05773333 C19.8760872,4.26746667 19.8760872,4.6696 19.6669744,5.3144 L17.2111949,14.5184 L22.9713026,14.5184 L25.0572462,6.74786667 C25.4581897,5.18613333 25.8124718,3.432 24.8481333,2.12853333 C23.9425538,0.8736 22.1054718,0.310266667 19.1692513,0.310266667 C18.1098615,0.305066667 17.2181077,0.4004 16.3989385,0.546"></path>
        <linearGradient x1="50.2472809%" y1="1.09563885%" x2="50.2472809%" y2="98.9884634%" id="linearGradient-18">
            <stop stop-color="#FFFFFF" offset="0%"></stop>
            <stop stop-color="#FFFFFF" offset="14.61%"></stop>
            <stop stop-color="#FAFBFB" offset="28.18%"></stop>
            <stop stop-color="#ECEFF1" offset="44.23%"></stop>
            <stop stop-color="#D4DBE0" offset="61.48%"></stop>
            <stop stop-color="#C4CED4" offset="70.79%"></stop>
            <stop stop-color="#C4CED4" offset="100%"></stop>
        </linearGradient>
        <path d="M11.6256359,23.9286667 L12.0905231,23.9286667 C13.1810205,23.9286667 13.9518,24.0396 14.3682974,24.4105333 C14.769241,24.7468 14.9144103,25.3604 14.6085179,26.5026667 L10.7580769,40.9049333 C10.5420513,41.6450667 10.3415795,42.0298667 9.9078,42.2725333 C9.48957436,42.4978667 8.88124615,42.5793333 7.69396923,42.5793333 L6.60347179,42.5793333 L11.6256359,23.9286667 L11.6256359,23.9286667 Z M16.8811077,4.264 C16.8811077,4.264 18.9273026,4.1184 19.6168564,4.39226667 C20.2597487,4.6176 20.2839436,5.1792 19.9866923,6.3388 L17.1455231,16.9121333 C16.7290256,18.5206667 16.4248615,18.7616 16.1276103,19.0510667 C15.7335795,19.3890667 14.9334205,19.8224 13.1671949,19.8224 L12.7178615,19.8224 L16.8811077,4.264 L16.8811077,4.264 Z M19.4786,0.546 L9.04196923,0.546 L11.0950769,4.39226667 L-0.0553025641,46.1170667 L6.74691282,46.1170667 C8.65657949,46.1170667 11.1763026,46.3268 13.5577692,44.9592 C16.0377436,43.5586667 16.454241,41.2741333 16.8379026,39.8424 L20.2562923,27.0174667 C20.7367333,25.2633333 21.1394051,23.6045333 19.9348462,22.4622667 C19.5010667,22.0757333 18.9394,21.9006667 18.9394,21.9006667 C18.9394,21.9006667 19.4613179,21.7394667 20.2545641,21.3217333 C20.7522872,21.0478667 21.2655641,20.6769333 21.6976154,20.1465333 C22.0501692,19.6941333 22.3474205,19.2434667 22.6360308,18.1653333 L25.7243333,6.54853333 C25.7571692,6.43586667 25.8038308,6.29026667 25.8539487,6.1776 C26.2393385,4.69733333 26.5435026,2.9744 24.8671436,1.7524 C23.2547282,0.5928 21.0737333,0.546 19.8052308,0.546 L19.4786,0.546 L19.4786,0.546 Z" id="path-19"></path>
        <linearGradient x1="50.9489651%" y1="1.20043141%" x2="50.9489651%" y2="99.0218824%" id="linearGradient-21">
            <stop stop-color="#FFFFFF" offset="0%"></stop>
            <stop stop-color="#FFFFFF" offset="14.61%"></stop>
            <stop stop-color="#FAFBFB" offset="28.18%"></stop>
            <stop stop-color="#ECEFF1" offset="44.23%"></stop>
            <stop stop-color="#D4DBE0" offset="61.48%"></stop>
            <stop stop-color="#C4CED4" offset="70.79%"></stop>
            <stop stop-color="#C4CED4" offset="100%"></stop>
        </linearGradient>
        <path id="path-22" d="M10.3675026,3.41813333 L-0.774235897,45.1758667 L10.9291692,45.1758667 L12.0196667,41.0886667 L6.05217436,41.0886667 L17.1386103,-0.3796 L8.23489744,-0.4108 L10.3675026,3.41813333 Z"></path>
        <linearGradient x1="47.3695126%" y1="-1.05277735%" x2="47.3695126%" y2="100.09953%" id="linearGradient-24">
            <stop stop-color="#FFFFFF" offset="0%"></stop>
            <stop stop-color="#FFFFFF" offset="14.61%"></stop>
            <stop stop-color="#FAFBFB" offset="28.18%"></stop>
            <stop stop-color="#ECEFF1" offset="44.23%"></stop>
            <stop stop-color="#D4DBE0" offset="61.48%"></stop>
            <stop stop-color="#C4CED4" offset="70.79%"></stop>
            <stop stop-color="#C4CED4" offset="100%"></stop>
        </linearGradient>
        <path d="M19.874359,7.52093333 L15.4069487,29.4389333 L12.005841,29.4389333 L19.874359,7.52093333 L19.874359,7.52093333 Z M16.2330308,3.28813333 L0.613512821,45.1585333 L6.42201026,45.1758667 L10.4487282,33.6041333 L14.6206154,33.5885333 C14.1712821,35.8418667 12.1008923,45.1758667 12.1008923,45.1758667 L18.1012205,45.1758667 L26.4761026,-0.3796 L14.3302769,-0.3796 L16.2330308,3.28813333 L16.2330308,3.28813333 Z" id="path-25"></path>
        <linearGradient x1="52.4345475%" y1="-1.02240404%" x2="52.4345475%" y2="100.062103%" id="linearGradient-27">
            <stop stop-color="#FFFFFF" offset="0%"></stop>
            <stop stop-color="#FFFFFF" offset="14.61%"></stop>
            <stop stop-color="#FAFBFB" offset="28.18%"></stop>
            <stop stop-color="#ECEFF1" offset="44.23%"></stop>
            <stop stop-color="#D4DBE0" offset="61.48%"></stop>
            <stop stop-color="#C4CED4" offset="70.79%"></stop>
            <stop stop-color="#C4CED4" offset="100%"></stop>
        </linearGradient>
        <path d="M17.6708974,3.30546667 C17.6708974,3.30546667 19.7240051,3.1928 20.413559,3.44933333 C21.0564513,3.692 21.0720051,4.238 20.7747538,5.3976 L17.9422256,15.9848 C17.5257282,17.5933333 17.2284769,17.8342667 16.9156718,18.1237333 C16.5302821,18.4617333 15.7283949,18.8950667 13.9638974,18.8950667 L13.5145641,18.8950667 L17.6708974,3.30546667 L17.6708974,3.30546667 Z M19.7896769,-0.3796 L9.69868718,-0.3796 L11.8969641,3.4164 L0.729302564,45.2070667 L6.44966154,45.2070667 L12.4171538,22.9684 L12.8906821,22.9684 C13.9898205,22.9684 14.7761538,23.0793333 15.1684564,23.4658667 C15.5538462,23.7882667 15.7145692,24.4157333 15.3844821,25.5424 L10.1462923,45.2070667 L15.897759,45.2070667 L20.9994205,26.0572 C21.4885026,24.3186667 21.8738923,22.6616 20.6710615,21.5366667 C20.2372821,21.1345333 19.6756154,20.9404 19.6756154,20.9404 C19.6756154,20.9404 20.1975333,20.8121333 20.9752256,20.3770667 C21.4885026,20.0876 22.0017795,19.7496 22.435559,19.2018667 C22.7881128,18.7512 23.0784513,18.2849333 23.3670615,17.2224 L26.3672256,5.9904 C26.3672256,5.9904 26.479559,5.6212 26.4951128,5.55706667 C26.9133385,3.97973333 27.3298359,2.09733333 25.5325026,0.809466667 C23.9200872,-0.365733333 21.8583385,-0.381333333 19.9970615,-0.381333333 C19.9262051,-0.3796 19.8536205,-0.3796 19.7896769,-0.3796 L19.7896769,-0.3796 Z" id="path-28"></path>
        <linearGradient x1="50.7654746%" y1="-1.02666388%" x2="50.7654746%" y2="99.9791329%" id="linearGradient-30">
            <stop stop-color="#FFFFFF" offset="0%"></stop>
            <stop stop-color="#FFFFFF" offset="14.61%"></stop>
            <stop stop-color="#FAFBFB" offset="28.18%"></stop>
            <stop stop-color="#ECEFF1" offset="44.23%"></stop>
            <stop stop-color="#D4DBE0" offset="61.48%"></stop>
            <stop stop-color="#C4CED4" offset="70.79%"></stop>
            <stop stop-color="#C4CED4" offset="100%"></stop>
        </linearGradient>
        <path id="path-31" d="M11.197041,3.41813333 L0.0639435897,45.1758667 L5.82232308,45.1758667 L17.9750615,-0.3796 L9.07998974,-0.4108 L11.197041,3.41813333 Z"></path>
        <linearGradient x1="52.2184044%" y1="-1.05277735%" x2="52.2184044%" y2="100.09953%" id="linearGradient-33">
            <stop stop-color="#FFFFFF" offset="0%"></stop>
            <stop stop-color="#FFFFFF" offset="14.61%"></stop>
            <stop stop-color="#FAFBFB" offset="28.18%"></stop>
            <stop stop-color="#ECEFF1" offset="44.23%"></stop>
            <stop stop-color="#D4DBE0" offset="61.48%"></stop>
            <stop stop-color="#C4CED4" offset="70.79%"></stop>
            <stop stop-color="#C4CED4" offset="100%"></stop>
        </linearGradient>
        <path id="path-34" d="M5.63913333,-0.3796 L7.91690769,3.59493333 L10.5489641,3.59493333 L-0.554753846,45.1758667 L5.18807179,45.1758667 L16.3004308,3.59493333 L20.6710615,3.59493333 L22.5167846,-0.3796 L5.63913333,-0.3796 Z"></path>
        <linearGradient x1="48.966512%" y1="-1.01169108%" x2="48.966512%" y2="100.073968%" id="linearGradient-36">
            <stop stop-color="#FFFFFF" offset="0%"></stop>
            <stop stop-color="#FFFFFF" offset="14.61%"></stop>
            <stop stop-color="#FAFBFB" offset="28.18%"></stop>
            <stop stop-color="#ECEFF1" offset="44.23%"></stop>
            <stop stop-color="#D4DBE0" offset="61.48%"></stop>
            <stop stop-color="#C4CED4" offset="70.79%"></stop>
            <stop stop-color="#C4CED4" offset="100%"></stop>
        </linearGradient>
    </defs>
    <g id="NBA" stroke="none" stroke-width="1" fill="none" fill-rule="evenodd" sketch:type="MSPage">
        <g id="portland-trail-blazers" sketch:type="MSArtboardGroup">
            <g sketch:type="MSLayerGroup" transform="translate(87.000000, 49.000000)" id="Group">
                <g>
                    <path d="M110.878185,0 L-0.710292308,416 L226.154651,416 L337.708564,0 L110.878185,0 Z" id="Shape" fill="#C4CED4" sketch:type="MSShapeGroup"></path>
                    <path d="M219.70499,407.551733 L10.3450359,407.551733 L117.327846,8.45173333 L326.703354,8.45173333 L219.70499,407.551733 Z" id="Shape" fill="#231F20" sketch:type="MSShapeGroup"></path>
                    <path d="M167.272974,202.7168 L174.251467,195.6968 C166.277528,193.235467 161.768641,187.754667 161.768641,180.734667 C161.768641,177.073867 163.292918,173.787467 165.764251,171.466533 L256.686851,80.2342667 L251.600744,80.2342667 L166.052862,157.584267 L158.721815,164.2108 C154.373651,168.3708 151.662097,174.245067 151.662097,180.7364 C151.662097,182.246133 151.805538,183.7264 152.078595,185.146 C153.682369,193.3308 160.470759,200.278 167.272974,202.7168" id="Shape" fill="#C4CED4" sketch:type="MSShapeGroup"></path>
                    <path d="M156.684262,213.328267 L163.565974,206.417467 C152.897764,200.9696 146.961379,191.899067 146.961379,180.734667 C146.961379,173.236267 149.94599,166.4572 154.79879,161.4808 L235.734092,80.2377333 L231.048928,80.2377333 L155.320708,147.3368 C154.276872,148.180933 147.811656,154.098533 146.961379,155.129867 C140.687995,161.820533 136.853108,170.823467 136.853108,180.734667 C136.853108,182.497467 136.996549,184.203067 137.254051,185.8844 C138.971887,197.8808 146.448103,208.026 156.684262,213.328267" id="Shape" fill="#C4CED4" sketch:type="MSShapeGroup"></path>
                    <path d="M145.90199,224.139067 L152.897764,217.139867 C139.886108,209.121467 132.136836,196.062533 132.136836,180.732933 C132.136836,169.3952 136.597333,159.1044 143.833328,151.502 L214.796887,80.236 L210.512667,80.236 L144.586826,137.106667 C142.485328,138.796667 136.901497,143.986267 135.168108,146.045467 C127.017892,155.273733 122.044118,167.4348 122.044118,180.7312 C122.044118,182.7176 122.172005,184.678 122.412226,186.603733 C124.257949,202.427333 133.211779,216.072133 145.90199,224.139067" id="Shape" fill="#C4CED4" sketch:type="MSShapeGroup"></path>
                    <path d="M135.104164,234.968933 L142.212272,227.841467 C126.938395,217.268133 117.3434,200.222533 117.3434,180.7364 C117.3434,165.554133 123.248677,151.760267 132.859226,141.537067 L193.875236,80.2394667 L189.943569,80.2394667 L133.852944,126.8592 C130.709338,129.405467 125.991338,133.870533 123.392118,136.976667 C113.332236,148.7356 107.235128,164.042667 107.235128,180.734667 C107.235128,182.960267 107.363015,185.159867 107.587682,187.343867 C109.561292,206.977333 119.973728,224.106133 135.104164,234.968933" id="Shape" fill="#C4CED4" sketch:type="MSShapeGroup"></path>
                    <path d="M92.7320308,188.064933 C94.8335282,211.518667 106.737405,232.152267 124.308067,245.7988 L131.526779,238.572533 C113.942292,225.4096 102.551692,204.377333 102.551692,180.7312 C102.551692,161.726933 109.900021,144.423067 121.917959,131.5392 L172.922477,80.2342667 L169.393482,80.2342667 L123.119062,116.601333 C118.931621,119.976133 115.081179,123.758267 111.631682,127.890533 C99.6638615,142.1992 92.4278667,160.636667 92.4278667,180.7312 C92.4261385,183.213333 92.5229179,185.659067 92.7320308,188.064933" id="Shape" fill="#C4CED4" sketch:type="MSShapeGroup"></path>
                    <path d="M183.493908,160.161733 L176.498133,167.173067 C184.487626,169.643067 189.012067,175.1152 189.012067,182.133467 C189.012067,185.782133 187.4394,189.0772 184.985349,191.403333 L94.0783026,282.647733 L99.1488564,282.647733 L184.729574,205.294267 L192.045067,198.667733 C196.393231,194.5008 199.104785,188.6196 199.104785,182.133467 C199.104785,180.6168 198.959615,179.1452 198.671005,177.7256 C197.065503,169.523467 190.296123,162.5832 183.493908,160.161733" id="Shape" fill="#E13A3E" sketch:type="MSShapeGroup"></path>
                    <path d="M194.067067,149.532933 L187.183626,156.4524 C197.884672,161.9072 203.789949,170.9708 203.789949,182.133467 C203.789949,189.616267 200.820892,196.410933 195.976733,201.371733 L115.017236,282.647733 L119.717954,282.647733 L195.446174,215.54 C196.49001,214.680267 202.955226,208.766133 203.822785,207.736533 C210.078887,201.051067 213.913774,192.0308 213.913774,182.133467 C213.913774,180.388 213.785887,178.658133 213.514559,176.9924 C211.779441,164.973467 204.318779,154.856 194.067067,149.532933" id="Shape" fill="#E13A3E" sketch:type="MSShapeGroup"></path>
                    <path d="M204.863164,138.718667 L197.884672,145.738667 C210.847938,153.772667 218.614492,166.814267 218.614492,182.138667 C218.614492,193.459067 214.185103,203.758533 206.902446,211.373067 L135.971723,282.647733 L140.271497,282.647733 L206.180056,225.7632 C208.266,224.059333 213.849831,218.874933 215.581492,216.833067 C223.762815,207.592667 228.722764,195.455867 228.722764,182.138667 C228.722764,180.147067 228.594877,178.1676 228.337374,176.273067 C226.507205,160.447733 217.539549,146.792533 204.863164,138.718667" id="Shape" fill="#E13A3E" sketch:type="MSShapeGroup"></path>
                    <path d="M215.645436,127.890533 L208.552882,135.035333 C223.844041,145.603467 233.421754,162.652533 233.421754,182.1352 C233.421754,197.310533 227.500923,211.116533 217.892103,221.339733 L156.9072,282.649467 L160.806031,282.649467 L216.91221,236.015867 C220.055815,233.473067 224.773815,228.999333 227.357482,225.910533 C237.415636,214.127333 243.528297,198.8272 243.528297,182.136933 C243.528297,179.9044 243.417692,177.680533 243.175744,175.5312 C241.219415,155.892533 230.791426,138.755067 215.645436,127.890533" id="Shape" fill="#E13A3E" sketch:type="MSShapeGroup"></path>
                    <path d="M258.019297,174.798 C255.948908,151.359867 244.027749,130.7176 226.458815,117.076267 L219.238374,124.293867 C236.822862,137.468933 248.230744,158.4856 248.230744,182.1404 C248.230744,201.1412 240.849579,218.443333 228.864477,231.349733 L177.846133,282.6512 L181.357846,282.6512 L227.661646,246.2512 C231.816251,242.888533 235.668421,239.1064 239.133472,234.986267 C251.103021,220.681067 258.339015,202.228 258.339015,182.142133 C258.339015,179.6652 258.226682,177.2108 258.019297,174.798" id="Shape" fill="#E13A3E" sketch:type="MSShapeGroup"></path>
                    <g id="Clipped" transform="translate(60.487179, 348.400000)">
                        <mask id="mask-2" sketch:name="SVGID_1_" fill="white">
                            <use xlink:href="#path-1"></use>
                        </mask>
                        <g id="SVGID_1_"></g>
                        <rect id="Rectangle-path" fill="url(#linearGradient-3)" sketch:type="MSShapeGroup" mask="url(#mask-2)" x="0" y="0" width="17.9128462" height="45.5710667"></rect>
                    </g>
                    <g id="Clipped" transform="translate(84.682051, 348.400000)">
                        <mask id="mask-5" sketch:name="SVGID_4_" fill="white">
                            <use xlink:href="#path-4"></use>
                        </mask>
                        <g id="SVGID_4_"></g>
                        <rect id="Rectangle-path" fill="url(#linearGradient-6)" sketch:type="MSShapeGroup" mask="url(#mask-5)" x="0" y="0" width="25.8625897" height="45.5710667"></rect>
                    </g>
                    <g id="Clipped" transform="translate(112.333333, 348.400000)">
                        <mask id="mask-8" sketch:name="SVGID_7_" fill="white">
                            <use xlink:href="#path-7"></use>
                        </mask>
                        <g id="SVGID_7_"></g>
                        <rect id="Rectangle-path" fill="url(#linearGradient-9)" sketch:type="MSShapeGroup" mask="url(#mask-8)" x="0" y="0" width="27.1863949" height="45.5710667"></rect>
                    </g>
                    <g id="Clipped" transform="translate(141.712821, 348.400000)">
                        <mask id="mask-11" sketch:name="SVGID_10_" fill="white">
                            <use xlink:href="#path-10"></use>
                        </mask>
                        <g id="SVGID_10_"></g>
                        <rect id="Rectangle-path" fill="url(#linearGradient-12)" sketch:type="MSShapeGroup" mask="url(#mask-11)" x="0" y="0" width="24.5474256" height="45.5710667"></rect>
                    </g>
                    <g id="Clipped" transform="translate(167.635897, 348.400000)">
                        <mask id="mask-14" sketch:name="SVGID_13_" fill="white">
                            <use xlink:href="#path-13"></use>
                        </mask>
                        <g id="SVGID_13_"></g>
                        <rect id="Rectangle-path" fill="url(#linearGradient-15)" sketch:type="MSShapeGroup" mask="url(#mask-14)" x="0" y="0" width="26.6091744" height="45.604"></rect>
                    </g>
                    <g id="Clipped" transform="translate(197.015385, 348.400000)">
                        <mask id="mask-17" sketch:name="SVGID_16_" fill="white">
                            <use xlink:href="#path-16"></use>
                        </mask>
                        <g id="SVGID_16_"></g>
                        <rect id="Rectangle-path" fill="url(#linearGradient-18)" sketch:type="MSShapeGroup" mask="url(#mask-17)" x="0" y="0" width="25.5584256" height="46.1032"></rect>
                    </g>
                    <g id="Clipped" transform="translate(29.379487, 348.400000)">
                        <mask id="mask-20" sketch:name="SVGID_19_" fill="white">
                            <use xlink:href="#path-19"></use>
                        </mask>
                        <g id="SVGID_19_"></g>
                        <rect id="Rectangle-path" fill="url(#linearGradient-21)" sketch:type="MSShapeGroup" mask="url(#mask-20)" x="0" y="0" width="26.6005333" height="45.7808"></rect>
                    </g>
                    <g id="Clipped" transform="translate(184.917949, 296.400000)">
                        <mask id="mask-23" sketch:name="SVGID_22_" fill="white">
                            <use xlink:href="#path-22"></use>
                        </mask>
                        <g id="SVGID_22_"></g>
                        <rect id="Rectangle-path" fill="url(#linearGradient-24)" sketch:type="MSShapeGroup" mask="url(#mask-23)" x="0" y="0" width="17.9128462" height="45.5884"></rect>
                    </g>
                    <g id="Clipped" transform="translate(124.430769, 296.400000)">
                        <mask id="mask-26" sketch:name="SVGID_25_" fill="white">
                            <use xlink:href="#path-25"></use>
                        </mask>
                        <g id="SVGID_25_"></g>
                        <rect id="Rectangle-path" fill="url(#linearGradient-27)" sketch:type="MSShapeGroup" mask="url(#mask-26)" x="0" y="0" width="25.8625897" height="45.5554667"></rect>
                    </g>
                    <g id="Clipped" transform="translate(95.051282, 296.400000)">
                        <mask id="mask-29" sketch:name="SVGID_28_" fill="white">
                            <use xlink:href="#path-28"></use>
                        </mask>
                        <g id="SVGID_28_"></g>
                        <rect id="Rectangle-path" fill="url(#linearGradient-30)" sketch:type="MSShapeGroup" mask="url(#mask-29)" x="0" y="0" width="26.6022615" height="45.5884"></rect>
                    </g>
                    <g id="Clipped" transform="translate(158.994872, 296.400000)">
                        <mask id="mask-32" sketch:name="SVGID_31_" fill="white">
                            <use xlink:href="#path-31"></use>
                        </mask>
                        <g id="SVGID_31_"></g>
                        <rect id="Rectangle-path" fill="url(#linearGradient-33)" sketch:type="MSShapeGroup" mask="url(#mask-32)" x="0" y="0" width="17.9128462" height="45.5884"></rect>
                    </g>
                    <g id="Clipped" transform="translate(70.856410, 296.400000)">
                        <mask id="mask-35" sketch:name="SVGID_34_" fill="white">
                            <use xlink:href="#path-34"></use>
                        </mask>
                        <g id="SVGID_34_"></g>
                        <rect id="Rectangle-path" fill="url(#linearGradient-36)" sketch:type="MSShapeGroup" mask="url(#mask-35)" x="0" y="0" width="23.0628974" height="45.5554667"></rect>
                    </g>
                    <path d="M111.968682,314.525467 C112.272846,314.236 112.578738,313.993333 112.995236,312.386533 L115.836405,301.799333 C116.125015,300.639733 116.109462,300.093733 115.459656,299.851067 C114.770103,299.594533 112.716995,299.689867 112.716995,299.689867 C112.716995,299.689867 112.708354,299.7072 112.708354,299.754 C112.933021,299.771333 113.109297,299.786933 113.270021,299.851067 C113.911185,300.093733 113.944021,300.639733 113.622574,301.799333 L110.783133,312.386533 C110.364908,313.995067 110.060744,314.236 109.739297,314.525467 C109.547467,314.704 108.60041,315.0888 108.60041,315.0888 L108.567574,315.2968 L109.016908,315.2968 C110.781405,315.2968 111.583292,314.863467 111.968682,314.525467 L111.968682,314.525467 Z M68.0878256,341.575867 L70.3016564,341.575867 L81.4036462,299.9776 L79.2053692,299.9776 L68.0878256,341.575867 L68.0878256,341.575867 Z M96.8382462,378.764533 L99.0520769,378.764533 L103.528128,356.846533 L98.3936308,371.089333 L96.8382462,378.764533 L96.8382462,378.764533 Z M125.037369,341.560267 L140.656887,299.689867 L138.762774,296.0048 L136.53339,296.0048 L138.441328,299.689867 L122.814897,341.560267 L125.037369,341.560267 L125.037369,341.560267 Z M78.7733179,299.9776 L76.4955436,296.003067 L74.2817128,296.003067 L76.5594872,299.9776 L78.7733179,299.9776 L78.7733179,299.9776 Z M95.7788564,341.591467 L106.946518,299.8164 L104.748241,296.003067 L102.549964,296.003067 L104.732687,299.8164 L93.5408308,341.591467 L95.7788564,341.591467 L95.7788564,341.591467 Z M110.219738,319.852 C109.818795,319.4984 109.048015,319.370133 107.941964,319.370133 L107.459795,319.370133 C107.459795,319.370133 107.411405,319.514 107.411405,319.562533 C107.651626,319.642267 107.860738,319.723733 108.037015,319.852 C108.391297,320.2056 108.550292,320.817467 108.230574,321.9268 L102.983744,341.591467 L105.190662,341.591467 L110.444405,321.9268 C110.765851,320.817467 110.605128,320.2056 110.219738,319.852 L110.219738,319.852 Z M206.307944,367.144267 C205.803308,365.807867 205.345333,363.9428 205.409277,362.414 C205.455938,360.883467 205.817133,359.001067 206.307944,357.1672 L206.885164,355.059467 C207.127113,354.173733 207.415723,353.274133 207.913446,352.469867 L205.970944,348.946 L203.7502,348.946 L205.699615,352.469867 C205.219174,353.274133 204.897728,354.173733 204.671333,355.0768 L204.102754,357.184533 C203.613672,359.020133 203.261118,360.902533 203.211,362.4296 C203.147056,363.9584 203.611944,365.8252 204.094113,367.175467 C204.574554,368.496267 207.415723,375.462533 207.607554,376.460933 C207.785559,377.442 207.992944,378.118 207.286108,380.6764 L204.863164,389.816267 C204.655779,390.573733 204.51061,391.072933 203.764026,391.296533 C204.045723,391.3936 204.398277,391.4404 204.832056,391.4404 C206.627662,391.4248 206.788385,390.861467 207.061441,389.814533 L209.515492,380.659067 C210.191221,378.098933 209.997662,377.442 209.821385,376.4592 C209.612272,375.464267 206.788385,368.4824 206.307944,367.144267 L206.307944,367.144267 Z M134.333385,341.575867 L136.547215,341.575867 L139.049656,329.988533 L136.835826,329.988533 L134.333385,341.575867 L134.333385,341.575867 Z M159.058815,341.575867 L170.193641,299.8164 L168.074862,295.987467 L165.861031,295.987467 L167.995364,299.8164 L156.844985,341.575867 L159.058815,341.575867 L159.058815,341.575867 Z M215.132159,348.7536 C214.762323,348.720667 214.370021,348.720667 213.97599,348.720667 C212.990913,348.720667 212.099159,348.817733 211.312826,348.946 L213.414323,348.946 C213.944882,348.850667 214.522103,348.786533 215.132159,348.7536 L215.132159,348.7536 Z M193.144205,295.9892 L190.939015,295.9892 L193.057795,299.818133 L181.922969,341.5776 L184.1368,341.5776 L195.287179,299.818133 L193.144205,295.9892 L193.144205,295.9892 Z M187.503344,352.792267 C186.798236,352.5184 184.729574,352.646667 184.729574,352.646667 L184.729574,352.6952 C184.954241,352.728133 185.146072,352.759333 185.267046,352.806133 C185.916851,353.031467 185.9566,353.5948 185.661077,354.752667 L182.806082,365.326 C182.389585,366.936267 182.083692,367.1928 181.779528,367.466667 C181.554862,367.659067 181.217862,367.8844 180.607805,368.028267 C180.607805,368.109733 180.574969,368.220667 180.574969,368.220667 L181.039856,368.220667 C182.804354,368.220667 183.606241,367.787333 183.976077,367.449333 C184.281969,367.175467 184.593046,366.9172 185.033738,365.3104 L187.842072,354.737067 C188.146236,353.5792 188.115128,353.0176 187.503344,352.792267 L187.503344,352.792267 Z M137.622159,325.8372 L136.434882,325.8372 L139.83599,325.8372 L144.312041,303.9192 L139.177544,318.2088 L137.622159,325.8372 L137.622159,325.8372 Z M48.9946154,352.792267 C48.3050615,352.5184 46.2519538,352.646667 46.2519538,352.646667 L46.2191179,352.6952 C46.2191179,352.6952 46.6442564,352.759333 46.7963385,352.806133 C47.4219487,353.031467 47.4703385,353.5948 47.1644462,354.752667 L44.3250051,365.326 C43.8912256,366.936267 43.6026154,367.1928 43.2811692,367.466667 C43.0565026,367.659067 42.1422821,368.028267 42.1422821,368.028267 L42.0938923,368.220667 L42.5345846,368.220667 C44.3077231,368.220667 45.1096103,367.787333 45.495,367.449333 C45.7991641,367.175467 46.1050564,366.9172 46.5215538,365.3104 L49.3627231,354.737067 C49.6530615,353.5792 49.6375077,353.0176 48.9946154,352.792267 L48.9946154,352.792267 Z M214.233492,362.9132 L216.689272,353.7092 C216.896656,353.0644 216.896656,352.662267 216.722108,352.469867 C216.544103,352.196 216.063662,352.067733 215.341272,352.067733 C214.827995,352.083333 214.458159,352.131867 214.138441,352.2116 C214.316446,352.275733 214.444333,352.3572 214.523831,352.469867 C214.684554,352.677867 214.651718,353.0956 214.490995,353.7404 L212.052497,362.911467 L214.233492,362.911467 L214.233492,362.9132 Z M179.963185,372.328667 L179.482744,372.328667 L179.436082,372.505467 C179.436082,372.505467 179.868133,372.684 180.028856,372.812267 C180.415974,373.148533 180.574969,373.762133 180.270805,374.9044 L174.991138,394.551733 L177.204969,394.551733 L182.484636,374.887067 C182.773246,373.762133 182.628077,373.148533 182.242687,372.794933 C181.808908,372.424 181.05541,372.328667 179.963185,372.328667 L179.963185,372.328667 Z M150.651097,348.946 L148.452821,348.946 L150.635544,352.774933 L139.46961,394.5344 L151.935154,394.5344 L151.935154,394.517067 L141.698995,394.517067 L152.833821,352.759333 L150.651097,348.946 L150.651097,348.946 Z M198.221672,392.99 C197.274615,391.686533 197.532118,390.012133 197.965897,388.388 L200.661897,378.282667 L198.463621,378.282667 L195.767621,388.405333 C195.351123,390.013867 195.062513,391.702133 196.009569,392.991733 C196.915149,394.246667 198.817903,394.827333 201.802513,394.81 C202.201728,394.81 202.588846,394.81 202.956954,394.7944 C200.580672,394.662667 199.023559,394.068133 198.221672,392.99 L198.221672,392.99 Z M178.952185,352.761067 L176.755636,348.947733 L174.559087,348.947733 L176.74181,352.776667 L165.589703,394.551733 L167.803533,394.551733 L178.952185,352.761067 L178.952185,352.761067 Z M125.372641,352.889333 L123.134615,348.947733 L120.920785,348.947733 L123.183005,352.904933 L125.372641,352.889333 L125.372641,352.889333 Z M129.103836,352.904933 L110.026179,394.536133 L112.208903,394.5188 L131.317667,352.889333 L129.103836,352.904933 L129.103836,352.904933 Z M29.3259128,394.517067 L40.4762923,352.807867 L38.4231846,348.946 L36.2093538,348.946 L38.2624615,352.839067 L27.1120821,394.517067 L29.3259128,394.517067 L29.3259128,394.517067 Z M41.4700103,372.328667 L41.0051231,372.328667 L40.9411795,372.505467 C40.9411795,372.505467 41.3905128,372.684 41.5512359,372.812267 C41.9366256,373.148533 42.0973487,373.762133 41.7759026,374.9044 L37.9081795,389.306667 C37.7163487,390.064133 37.5227897,390.4316 37.0907385,390.674267 C36.8349641,390.819867 36.000241,390.948133 36.000241,390.948133 L35.9846872,390.963733 L37.0665436,390.963733 C38.2624615,390.963733 38.8707897,390.916933 39.2890154,390.674267 C39.7210667,390.4316 39.9301795,390.0312 40.1392923,389.306667 L43.9897333,374.8888 C44.2956256,373.763867 44.1504564,373.150267 43.7495128,372.796667 C43.3312872,372.424 42.5535949,372.328667 41.4700103,372.328667 L41.4700103,372.328667 Z M69.2353538,348.946 L67.0301641,348.946 L69.1489436,352.774933 L57.9985641,394.5344 L60.2123949,394.517067 L71.3472205,352.759333 L69.2353538,348.946 L69.2353538,348.946 Z M84.2448154,394.5032 L99.8556923,352.6328 L97.9615795,348.947733 L95.7477487,348.947733 L97.6418615,352.6328 L82.0309846,394.5188 L84.2448154,394.5032 L84.2448154,394.5032 Z M95.7633026,394.517067 L98.2501897,382.947067 L96.036359,382.962667 L93.5408308,394.5344 L95.7633026,394.517067 L95.7633026,394.517067 Z" id="Shape" fill="#E13A3E" sketch:type="MSShapeGroup"></path>
                    <path d="M214.940328,21.1050667 L213.189656,27.0313333 L207.624836,27.0313333 L196.007841,66.4750667 L189.573733,66.4750667 L201.190728,27.0313333 L197.981451,27.0313333 L195.349395,21.1050667 L214.940328,21.1050667 Z" id="Shape" fill="#FFFFFF" sketch:type="MSShapeGroup"></path>
                    <path d="M136.419328,21.0998667 L125.156615,21.0998667 L128.044446,26.6118667 L116.299564,66.4716 L122.749226,66.4716 L127.850887,49.0793333 L130.546887,49.0793333 C135.520662,49.0793333 139.130882,46.0130667 140.974877,39.7782667 L143.855795,29.9658667 C145.820764,23.3324 143.093656,21.0998667 136.419328,21.0998667 M137.174554,30.8654667 L133.980831,41.6346667 C133.40361,43.6505333 131.333221,43.6505333 129.465031,43.6505333 L134.51139,26.5165333 L135.665831,26.5165333 C137.848554,26.5148 138.088774,27.7264 137.174554,30.8654667" id="Shape" fill="#FFFFFF" sketch:type="MSShapeGroup"></path>
                    <path d="M161.834313,20.228 C160.358426,20.228 158.803041,20.462 157.164703,21.1449333 L148.871046,21.1449333 L151.710487,26.5477333 C151.518656,26.9498667 151.373487,27.3884 151.228318,27.8754667 L141.842436,59.7410667 C140.109046,65.6829333 144.040713,67.3885333 147.970651,67.3885333 C151.981815,67.3885333 156.9072,65.6829333 158.656144,59.7410667 L168.042026,27.8754667 C169.775415,21.9578667 165.843749,20.228 161.834313,20.228 M161.433369,28.4509333 L152.384487,59.1656 C151.710487,61.4622667 150.9086,61.9736 149.641826,61.9736 C148.278272,61.9736 147.764995,61.464 148.454549,59.1656 L157.487877,28.4509333 C158.144595,26.1525333 158.979318,25.6498667 160.327318,25.6498667 C161.592364,25.6498667 162.105641,26.1525333 161.433369,28.4509333" id="Shape" fill="#FFFFFF" sketch:type="MSShapeGroup"></path>
                    <path d="M185.370738,21.1050667 L172.504251,21.1050667 L175.312585,26.4766667 L163.550421,66.4768 L169.984528,66.4768 L176.33741,44.7928 C179.344487,44.668 180.011574,45.7548 179.192405,48.4986667 C176.465297,57.6870667 173.866077,66.4768 173.866077,66.4768 L180.300185,66.4768 C180.300185,66.4768 182.113072,60.164 185.899569,47.0426667 C187.05401,42.9398667 184.824626,42.3453333 184.824626,42.3453333 C188.001067,41.0782667 188.128954,39.5928 189.108846,36.218 L191.258733,28.8773333 C193.007677,23.0152 190.553626,21.1050667 185.370738,21.1050667 M185.000903,28.756 L182.427605,37.4209333 C181.938523,39.0624 181.070964,40.3416 178.841579,40.3416 L177.638749,40.3416 L181.746692,26.5148 L183.253687,26.5148 C184.696738,26.5148 185.529733,27.0261333 185.000903,28.756" id="Shape" fill="#FFFFFF" sketch:type="MSShapeGroup"></path>
                    <path d="M229.267149,21.1050667 L218.372544,21.1050667 L221.246549,26.5425333 L209.484385,66.4750667 L224.101544,66.4750667 L225.850487,60.5453333 L217.667436,60.5453333 L229.267149,21.1050667 Z" id="Shape" fill="#FFFFFF" sketch:type="MSShapeGroup"></path>
                    <path d="M242.327195,21.1362667 L245.168364,26.5269333 L229.108154,66.4733333 L234.914923,66.4733333 L239.937087,54.184 L244.477082,54.184 L242.055867,66.4733333 L248.569472,66.4733333 L256.992744,21.1033333 L242.327195,21.1362667 L242.327195,21.1362667 Z M245.615969,48.2508 L242.278805,48.2508 L249.402467,29.3834667 L249.834518,29.3834667 L245.615969,48.2508 L245.615969,48.2508 Z" id="Shape" fill="#FFFFFF" sketch:type="MSShapeGroup"></path>
                    <path d="M282.533887,21.1050667 L271.302282,59.8624 L271.077615,59.8624 L277.608503,21.1050667 L263.537456,21.1050667 L266.376897,26.5113333 L254.616462,66.4750667 L259.878846,66.4750667 L271.110451,27.7316 L271.366226,27.7316 L264.933846,66.4750667 L274.447615,66.4750667 L287.811826,21.1050667 L282.533887,21.1050667 Z" id="Shape" fill="#FFFFFF" sketch:type="MSShapeGroup"></path>
                    <path d="M303.118538,21.1085333 L290.844826,21.1085333 L293.749938,26.6361333 L282.005056,66.4716 L291.150718,66.4716 C296.140046,66.4716 299.942097,62.5976 301.241708,58.2556 L309.167256,31.3629333 C311.493421,23.3896 309.486974,21.1085333 303.118538,21.1085333 M303.149646,29.9069333 L294.983877,57.6818667 C294.100764,60.6216 293.202097,61.0688 291.565487,61.0688 L290.04121,61.0688 L300.196144,26.5113333 L301.704867,26.5113333 C303.358759,26.5113333 304.017205,26.9741333 303.149646,29.9069333" id="Shape" fill="#FFFFFF" sketch:type="MSShapeGroup"></path>
                </g>
            </g>
        </g>
    </g>
</svg>