<?xml version="1.0" encoding="UTF-8" standalone="no"?>
<svg width="512px" height="512px" viewBox="0 0 512 512" version="1.1" xmlns="http://www.w3.org/2000/svg" xmlns:xlink="http://www.w3.org/1999/xlink" xmlns:sketch="http://www.bohemiancoding.com/sketch/ns">
    <!-- Generator: Sketch 3.3.1 (12002) - http://www.bohemiancoding.com/sketch -->
    <title>utah-jazz</title>
    <desc>Created with Sketch.</desc>
    <defs></defs>
    <g id="NBA" stroke="none" stroke-width="1" fill="none" fill-rule="evenodd" sketch:type="MSPage">
        <g id="utah-jazz" sketch:type="MSArtboardGroup">
            <g sketch:type="MSLayerGroup" transform="translate(17.250000, 83.496711)">
                <path d="M89.3621956,172.816437 C89.3621956,185.874399 91.0046934,198.854548 93.9342702,211.517134 C88.6744917,210.309972 80.4956518,208.423518 80.4956518,208.423518 L0.646283333,226.480478 L8.12269781,234.266044 C13.6054018,239.967467 17.0123754,248.417603 17.3530728,250.327191 C17.3173206,249.889752 15.2815487,261.805748 15.2815487,261.805748 C12.2783645,274.882638 8.15003772,292.783972 22.1964434,306.840893 C44.9705904,328.538268 81.7280509,331.856912 106.329766,323.987224 C109.488577,322.986162 124.767382,316.218483 151.133573,304.178406 C182.336825,330.317465 221.620073,344.950627 262.558437,344.950627 C349.310082,344.950627 421.941713,281.389537 433.746246,196.551687 C438.623266,195.260402 453.119729,191.451741 453.119729,191.451741 L454.400498,189.119437 L477.624702,146.063281 C477.624702,146.063281 450.884165,141.611081 447.147009,140.994882 C454.200707,129.90329 472.865454,100.561255 472.865454,100.561255 L443.016579,89.7977414 C443.016579,89.7977414 421.971156,92.6221647 415.968994,93.4192283 C385.979213,36.2052042 327.740994,0.699070395 262.558437,0.699070395 C167.062226,0.699070395 89.3621956,77.9111888 89.3621956,172.816437" id="Fill-1452" fill="#B6B7B6" sketch:type="MSShapeGroup"></path>
                <path d="M468.206523,150.675734 L443.876104,146.629427 L438.20833,149.512737 L436.433339,146.499037 L463.644964,103.709971 L442.355584,96.0400743 L412.769593,99.9938463 C385.610545,44.8050787 328.56056,6.78998224 262.557806,6.78998224 C170.27088,6.78998224 95.454159,81.1272037 95.454159,172.816857 C95.454159,186.690811 97.1807796,200.171491 100.40058,213.054899 L98.2512423,218.764734 L80.4824024,214.674263 L12.5195866,230.0435 C19.5396349,237.351669 23.5270559,248.134109 23.4071809,249.890173 C23.4071809,263.320379 10.2566831,286.27539 26.5113125,302.534226 C46.8248673,321.88878 80.9640055,325.70375 104.472124,318.181068 C108.840201,316.788835 140.22642,302.462721 151.826955,297.160881 C181.307793,323.104355 220.073685,338.860557 262.557806,338.860557 C348.457707,338.860557 419.196576,274.456136 428.59099,191.607789 C435.871819,189.660346 442.723622,187.86853 449.037038,186.230239 L468.206523,150.675734 Z" id="Fill-1454" fill="#002344" sketch:type="MSShapeGroup"></path>
                <path d="M288.639451,55.7643877 C284.532155,54.8116969 280.344943,54.0735193 276.092535,53.556164 L282.664629,63.2323899 L288.639451,55.7643877 Z M320.755436,71.9601311 L332.238199,86.4376662 L337.798717,79.9433855 C325.870103,70.1409754 312.017179,62.5951596 296.904517,57.9515807 L313.981447,80.0064776 L320.755436,71.9601311 Z M362.099693,110.198153 L362.982982,108.393719 C357.437186,99.6933175 350.806206,91.7458154 343.289833,84.7510039 L351.685289,96.4188373 C351.685289,96.4188373 356.240539,101.775357 362.099693,110.198153 L362.099693,110.198153 Z M216.428434,61.4342649 L224.697706,71.9601311 L236.826111,55.2070741 C229.780826,56.6813263 222.962673,58.7864996 216.428434,61.4342649 L216.428434,61.4342649 Z M166.141923,99.7522035 L171.321785,99.0434689 L188.40923,79.5290807 L192.972892,85.0559491 L208.218048,65.1125346 C191.675298,73.3271268 177.296607,85.232607 166.141923,99.7522035 L166.141923,99.7522035 Z" id="Fill-1456" fill="#ED992D" sketch:type="MSShapeGroup"></path>
                <path d="M353.577842,182.882151 L332.940414,189.117754 L338.963607,174.625498 L347.699761,168.166969 L344.597732,162.063859 L365.781958,119.84052 L291.066184,131.300149 L274.687473,161.123787 L294.48157,154.339283 L314.471252,151.081627 L305.72248,165.750541 L298.012625,170.778982 L298.828616,179.182851 L272.233191,230.302177 C270.472921,228.461991 267.776785,225.374684 267.776785,223.40621 L270.317294,187.227094 L276.31525,178.890524 L270.737908,171.552912 L270.618033,150.923897 L279.577112,133.060419 L207.136859,144.408585 L209.498607,157.495991 L196.79396,182.406857 L187.736037,191.447956 L189.189259,199.307129 L156.961811,273.930368 L205.605824,254.550577 L213.145331,234.487287 L231.599772,228.382074 L228.70805,247.698774 L272.153274,232.340052 L354.976384,206.339796 L373.210002,174.570818 L353.577842,182.882151 M233.414721,205.231478 L223.13912,208.59639 L234.855324,183.241776 L233.414721,205.231478 M166.686408,207.675245 L174.951473,198.270316 L172.976691,189.630903 L194.263967,128.027772 L210.852984,109.94978 L141.268702,118.198022 L152.87134,131.855359 L126.709147,195.250307 L117.426195,205.15787 L121.150732,212.712098 L97.4827805,281.818984 C92.971695,283.392081 85.5247235,285.259607 83.7034647,283.812695 C81.6319406,282.178609 80.2586357,281.108147 83.5562498,271.389859 C83.5562498,271.389859 91.953809,247.400138 91.9369844,247.400138 C92.252445,246.666166 105.684754,226.973017 105.684754,226.973017 L43.3182081,242.310708 C43.3182081,242.310708 48.7946029,249.930131 48.590605,253.208818 L42.026923,276.0755 C38.7398243,290.687631 45.1289515,298.811791 51.8188178,304.841294 C59.0407607,311.329265 80.1261423,320.677412 108.300973,309.510109 C112.86043,307.716191 145.67253,292.420561 145.67253,292.420561 C145.67253,292.420561 142.564193,287.362677 141.441153,281.865252 L166.686408,207.675245 M441.425186,161.44766 C437.637557,162.316228 424.886642,165.048116 420.175765,166.03025 L425.948693,156.606392 L433.206388,151.420221 L430.451366,145.72721 L455.383263,105.516509 L381.803147,117.398855 L365.085842,145.148866 L383.763208,138.869098 L399.60143,136.366445 L392.186004,148.15205 L381.178535,154.326664 L383.296327,163.41403 L359.668333,204.928636 L445.648151,180.690752 L460.70403,153.83034 C460.70403,153.83034 441.887862,161.313063 441.425186,161.44766" id="Fill-1458" fill="#ED992D" sketch:type="MSShapeGroup"></path>
                <path d="M151.920331,122.21762 L199.786209,116.013563 L189.756667,125.654036 L167.121323,189.940686 L168.765923,196.666304 L162.538733,203.961854 L135.876009,281.108778 C135.876009,281.108778 136.679382,288.395916 137.985388,289.809179 C131.017917,292.936444 114.136573,301.367653 106.308945,304.478093 C80.1446493,314.854642 61.2653884,306.049087 55.4419871,300.814545 C48.2642086,294.347604 44.8950901,287.958477 47.2988993,277.237025 C48.3567436,272.473571 48.7668423,271.598694 50.0875704,267.022414 C51.3599279,262.685883 52.5544717,258.559659 53.7363971,254.843534 C54.8278906,251.514374 52.9246121,247.644725 51.8015726,245.802436 L94.5065156,235.306012 C93.2867349,237.379639 87.9617612,242.416493 86.8387217,245.571098 L78.4411625,269.623911 C74.6829761,280.633484 75.7029651,284.421113 80.3549564,288.086764 C87.1646976,293.443284 101.867261,285.769181 101.867261,285.769181 L126.952682,212.456155 L124.081991,205.902988 L131.219812,198.540139 L158.807886,130.04735 L151.920331,122.21762 Z" id="Fill-1460" fill="#FFFFFF" sketch:type="MSShapeGroup"></path>
                <path d="M292.506577,148.792435 L324.845487,143.759788 L310.5383,169.093371 L303.772724,173.347882 L304.55086,179.236479 L282.085864,222.698527 L351.720621,201.106306 L360.694421,185.846429 L353.091822,189.35435 L323.297627,197.665683 L334.250417,171.863115 L340.889809,166.910385 L338.124272,162.20792 L355.514559,127.004628 C355.514559,127.004628 302.502469,134.333828 295.082838,135.690308 L286.119553,151.107915 L292.506577,148.792435 Z" id="Fill-1462" fill="#FFFFFF" sketch:type="MSShapeGroup"></path>
                <path d="M265.205782,150.180672 L270.667455,139.574889 L213.615367,148.489803 L215.131681,158.370027 L200.082111,186.68997 L193.343874,192.666895 L194.664602,199.464018 L167.061806,264.082952 L201.352365,250.421409 L208.978097,230.130988 L238.12665,220.528369 L235.668161,238.728338 L264.280431,229.462211 C264.280431,229.462211 262.322472,227.117288 262.539089,224.896446 L264.801992,184.723599 L269.422437,179.089474 L265.331966,174.159878 L265.205782,150.180672 L265.205782,150.180672 Z M238.040424,209.405231 L213.792025,217.129808 L240.820683,159.78329 L238.040424,209.405231 Z" id="Fill-1464" fill="#FFFFFF" sketch:type="MSShapeGroup"></path>
                <path d="M442.666629,166.726997 C433.821115,168.72912 408.706251,173.995207 408.706251,173.995207 L421.093335,154.461892 L426.641234,150.154804 L424.580225,145.639512 L444.904295,112.865267 L385.145556,122.343804 L376.869975,135.980111 C377.313723,135.839205 381.217021,134.108379 381.656563,133.996916 C385.139247,133.216677 411.812486,128.939032 411.812486,128.939032 L395.55996,152.625911 L388.136122,157.22112 L389.263368,162.705927 L371.237953,195.015394 C371.237953,195.015394 428.632841,178.712394 442.107212,175.944754 L449.589936,163.835275 C449.589936,163.835275 444.319642,166.350547 442.666629,166.726997" id="Fill-1466" fill="#FFFFFF" sketch:type="MSShapeGroup"></path>
                <path d="M187.493763,97.4293625 L221.805353,108.361121 L202.545437,127.255104 L215.409917,125.34131 C225.874794,115.16245 237.004241,104.207558 237.004241,104.207558 L242.684634,110.375862 L253.483899,103.704924 L262.508173,82.8046125 C262.508173,82.8046125 275.69863,100.220137 285.389577,116.449529 L290.222432,115.818608 L278.510434,96.8699458 L282.457897,68.4469524 L291.938537,56.6045643 C292.062619,59.7339327 291.858621,64.9432375 292.239277,67.5552507 L289.7892,71.1073362 C293.149906,75.9422945 296.516921,79.8603143 299.900761,84.8172507 L287.402215,98.2811059 L292.451687,107.191814 L302.760937,98.2811059 L319.596013,112.085659 L349.386002,108.279102 L361.034908,112.325409 L362.099062,110.197102 C356.239908,101.776409 351.684658,96.4177857 351.684658,96.4177857 L338.889579,78.6762857 L332.237568,86.4387178 L320.754805,71.9611827 L313.980816,80.0054261 L291.96798,51.5950511 L282.663998,63.2334414 L257.647978,26.4234042 L224.697075,71.9611827 L213.704327,57.9526322 L192.972261,85.0548976 L188.410702,79.5280292 L171.321154,99.0424173 L175.828033,98.432527 L188.330785,84.2998954 L187.493763,97.4293625 Z" id="Fill-1468" fill="#FFFFFF" sketch:type="MSShapeGroup"></path>
                <path d="M338.633425,83.7152419 L338.850041,92.0139568 L342.967853,97.9656454 C342.00675,98.6827923 341.392653,100.668091 340.017245,101.002479 C335.874197,95.8078954 333.804776,93.1096564 332.286359,91.1327704 L338.633425,83.7152419 Z" id="Fill-1470" fill="#013D1F" sketch:type="MSShapeGroup"></path>
                <path d="M316.912706,87.7108649 C316.050447,86.6235776 315.173467,85.5131566 314.319621,84.4195601 L320.685614,76.8695382 C323.6215,90.2450645 324.685654,97.5385118 327.261914,111.033913 L313.31225,99.7530447 L316.912706,87.7108649 Z" id="Fill-1472" fill="#013D1F" sketch:type="MSShapeGroup"></path>
                <path d="M282.458528,68.4475833 L291.939168,56.6051952 C292.06325,59.7324605 291.859252,64.9417654 292.239907,67.5558816 L289.789831,71.1079671 C293.148434,75.9429254 296.517552,79.8609452 299.899289,84.8178816 L287.402846,98.2817368 L292.450214,107.190342 L302.761568,98.2817368 L319.596644,112.086289 L290.22096,115.819239 L278.511065,96.8705768 L282.458528,68.4475833 Z" id="Fill-1474" fill="#013D1F" sketch:type="MSShapeGroup"></path>
                <path d="M257.55334,31.8184101 C255.160046,45.212864 253.921338,63.1247127 251.513323,75.7557522 L256.270467,82.3551864 L239.593121,95.0303904 L224.955752,76.8935132 L257.55334,31.8184101 Z" id="Fill-1476" fill="#013D1F" sketch:type="MSShapeGroup"></path>
                <path d="M237.004241,104.207978 L242.684634,110.376283 L253.483899,103.705345 L262.508173,82.8050331 C262.508173,82.8050331 275.69863,100.220557 285.389577,116.44995 L270.45147,118.353228 L268.529263,122.607739 L257.305178,119.131364 L215.409917,125.34173 C225.874794,115.162871 237.004241,104.207978 237.004241,104.207978" id="Fill-1478" fill="#013D1F" sketch:type="MSShapeGroup"></path>
                <path d="M213.742182,63.0008419 C213.397279,66.9861599 213.796862,73.2133507 213.963005,77.9557739 C214.961963,80.2291928 217.323711,81.524684 217.828448,83.6550941 L204.375108,102.603756 L193.075312,90.0000568 L213.742182,63.0008419 Z" id="Fill-1480" fill="#013D1F" sketch:type="MSShapeGroup"></path>
                <path d="M188.330785,84.2996851 L187.493763,97.4291522 L186.210891,97.0190535 L175.828033,98.4323167 L188.330785,84.2996851 Z" id="Fill-1482" fill="#013D1F" sketch:type="MSShapeGroup"></path>
                <path d="M190.880548,268.028733 L209.709335,260.344114 L215.894464,246.043237 C215.894464,246.043237 227.850418,254.886647 227.934541,254.842483 C269.840317,239.077869 319.828192,223.359522 319.828192,223.359522 C319.828192,223.359522 320.107901,232.188211 319.275085,237.843366 C303.855374,237.794996 288.486137,247.042195 272.586927,256.592237 C251.047282,269.536634 228.786284,282.901645 202.914315,276.663939 C198.638773,274.09609 190.880548,268.028733 190.880548,268.028733" id="Fill-1484" fill="#013D1F" sketch:type="MSShapeGroup"></path>
                <path d="M286.805364,290.133472 C270.344634,293.828567 252.828162,293.876937 235.307484,289.637148 C228.194901,287.904218 221.599673,285.710716 215.429265,283.058744 C237.604037,283.277464 257.332938,271.441385 275.087057,260.749376 C290.414232,251.544238 304.527936,243.054143 318.389272,242.835424 C316.536467,251.649391 309.161,278.501391 286.805364,290.133472" id="Fill-1486" fill="#013D1F" sketch:type="MSShapeGroup"></path>
                <path d="M300.739255,286.073285 C311.610025,275.949105 319.683711,260.867989 323.248415,243.326281 C323.252621,243.254776 323.282064,243.185375 323.296786,243.124386 C330.93724,244.146478 338.541942,247.974066 346.262312,255.885816 C333.597624,269.477958 317.967606,279.837682 300.739255,286.073285" id="Fill-1488" fill="#013D1F" sketch:type="MSShapeGroup"></path>
                <path d="M349.5145,252.261805 C340.971829,243.544579 332.538518,239.353161 324.140958,238.183854 C324.992702,232.173279 325.118886,226.585421 324.555263,221.859823 C333.114759,219.174202 370.206607,207.97325 373.891186,206.900685 C373.91432,206.900685 373.933248,206.890169 373.954279,206.888066 C368.953178,224.14586 360.484114,239.477242 349.5145,252.261805" id="Fill-1490" fill="#013D1F" sketch:type="MSShapeGroup"></path>
                <path d="M300.739255,286.073285 C311.610025,275.949105 319.683711,260.867989 323.248415,243.326281 C323.252621,243.254776 323.282064,243.185375 323.296786,243.124386 C330.93724,244.146478 338.541942,247.974066 346.262312,255.885816 C333.597624,269.477958 317.967606,279.837682 300.739255,286.073285 M286.806415,290.134314 C270.343582,293.829408 252.829214,293.875675 235.308536,289.635886 C228.195953,287.905059 221.600725,285.711557 215.428214,283.057482 C237.605089,283.278305 257.331887,271.440123 275.086005,260.750217 C290.413181,251.545079 304.528988,243.054985 318.390323,242.834162 C316.537518,251.648129 309.159948,278.502232 286.806415,290.134314 M373.953437,206.888487 C368.952336,224.146281 360.485376,239.494487 349.513659,252.262226 C340.970988,243.545 332.539779,239.353581 324.140117,238.184274 C324.993964,232.1737 325.120148,226.583739 324.556525,221.860243 C322.989738,222.354465 321.416641,222.865511 319.828823,223.359732 C319.828823,223.372351 320.108532,232.192627 319.273613,237.843577 C303.856005,237.795206 288.486768,247.042406 272.585455,256.590344 C251.047913,269.536844 228.786915,282.901855 202.912843,276.664149 C198.710909,274.125743 191.156681,268.241353 190.906415,268.047871 C187.983148,269.238208 185.901108,270.079436 185.873768,270.052096 C199.699352,281.364511 216.071753,289.808338 234.355845,294.2353 C298.812843,309.835875 363.06374,270.117292 380.578108,204.962075 C378.393018,205.584583 376.16797,206.232329 373.953437,206.888487" id="Fill-1492" fill="#FFFFFF" sketch:type="MSShapeGroup"></path>
                <path d="M170.436182,53.9807739 C169.0103,51.7199735 167.567594,49.608491 166.114373,47.6505327 C166.947188,47.29932 167.719015,46.939695 168.425647,46.5695546 C169.132278,46.2036204 169.86625,45.7851094 170.625458,45.3182279 C171.363636,44.8681708 172.070267,44.4075985 172.74325,43.9302015 C173.418335,43.4549077 174.074493,42.9396555 174.718033,42.386548 C174.968298,43.0006445 175.302686,43.7177914 175.731713,44.5506072 C176.162842,45.3792169 176.621311,46.2414757 177.123945,47.1436928 C177.626579,48.0374976 178.135522,48.9355086 178.65498,49.8377257 C179.172335,50.7378397 179.658145,51.5580371 180.106098,52.2962147 L181.523568,54.6095919 C182.299601,55.8735371 183.044088,57.0344318 183.763338,58.0796577 C184.482588,59.1290897 185.252311,59.9576993 186.066199,60.5633836 C186.882191,61.1732739 187.79282,61.4929406 188.800191,61.5076621 C189.807561,61.5223836 190.966353,61.1312125 192.278669,60.3278397 C193.109381,59.8231029 193.807601,59.137502 194.36912,58.268934 C194.93064,57.4045721 195.176699,56.4729121 195.105195,55.4697476 C195.046309,54.6516533 194.861239,53.9092695 194.549984,53.2446993 C194.236627,52.5822322 193.858074,51.8503638 193.399605,51.0533002 C193.172473,50.626377 192.924311,50.2015568 192.676149,49.7851489 C192.42378,49.3729471 192.167206,48.9586423 191.914838,48.5443375 L190.394318,46.0564055 C189.504719,44.6052871 188.549925,43.0994888 187.521524,41.54532 C186.493123,39.9911511 185.344846,38.3633748 184.085107,36.6661971 C184.587741,36.4558901 185.077756,36.2497893 185.561463,36.0521007 C186.038859,35.8544121 186.509947,35.612559 186.972623,35.3307476 C187.412164,35.0636577 187.805438,34.7839493 188.165063,34.4853134 C188.520482,34.1908836 188.867489,33.87332 189.201877,33.5431379 C189.778118,34.6451467 190.419555,35.8375875 191.12198,37.1141511 C191.824405,38.3928178 192.512109,39.6336292 193.182989,40.8386884 C193.858074,42.0416445 194.486892,43.1520656 195.075752,44.1678485 C195.664612,45.1836314 196.148318,45.9891072 196.510046,46.5884822 C197.140967,47.6252958 197.689868,48.5758836 198.152544,49.42973 C198.613116,50.2898857 198.97905,51.1205985 199.24614,51.9197651 C199.511127,52.7231379 199.685682,53.5202015 199.757186,54.313059 C199.832897,55.1059164 199.799248,55.9576599 199.656239,56.8661862 C199.338675,58.6706204 198.579467,60.2962936 197.389129,61.7368967 C196.196688,63.1817059 194.69089,64.4540634 192.869631,65.5686906 C189.138785,67.8505217 185.841171,68.7169866 182.980995,68.1743945 C180.114511,67.6296993 177.534044,65.4782586 175.239594,61.7221752 C173.464603,58.8220414 171.86627,56.2415743 170.436182,53.9807739" id="Fill-1494" fill="#FFFFFF" sketch:type="MSShapeGroup"></path>
                <path d="M222.701682,24.9165544 C221.505035,25.2572518 220.3168,25.6315982 219.134875,26.0374908 C219.132772,25.2909009 219.04234,24.5232803 218.861476,23.7346289 C218.783662,23.3897254 218.678509,23.0490281 218.541809,22.7041246 C218.413522,22.3592211 218.26841,21.9722561 218.112783,21.5348175 C220.133833,21.2908614 222.129647,20.9627825 224.09812,20.5463746 C226.066594,20.1299667 228.037171,19.6988373 230.011954,19.2508833 C231.90682,18.8197539 233.839541,18.3675939 235.805912,17.8859908 C237.776489,17.4106969 239.776509,16.8365588 241.81228,16.155164 C241.831208,16.4853461 241.860651,16.8533833 241.896403,17.2592759 C241.932155,17.6672715 242.005763,18.1194316 242.119329,18.6199623 C242.209761,19.0153395 242.323327,19.391789 242.462129,19.7472079 C242.594623,20.1047298 242.720807,20.4075719 242.83227,20.6599404 C241.591458,20.8029491 240.359059,20.979607 239.132969,21.187811 C237.904776,21.398118 236.661862,21.6441772 235.395813,21.9301947 C235.538822,22.8113811 235.734408,23.8145456 235.976261,24.935482 C236.216011,26.0606246 236.464173,27.1857671 236.720748,28.3172189 L237.204454,30.449732 C237.553563,31.978664 237.885848,33.4108548 238.201309,34.7526136 C238.518873,36.0880632 238.828024,37.3919667 239.128763,38.6517057 C239.429502,39.9114447 239.742859,41.1438439 240.070938,42.3425939 C240.40112,43.5413439 240.75023,44.7758461 241.12037,46.0503066 C239.721829,46.2269645 238.626129,46.3825917 237.837478,46.5045697 C237.05093,46.6286509 236.472585,46.7317013 236.102445,46.8137211 C234.99623,47.0660895 234.079291,47.322664 233.349526,47.5855478 C232.619761,47.8463285 232.035107,48.0545325 231.599772,48.2122627 C231.511443,47.4551575 231.389465,46.6097232 231.233838,45.6801662 C231.07821,44.7421969 230.901552,43.7579601 230.70807,42.7232496 C230.516691,41.688539 230.306384,40.6433132 230.081355,39.5875719 C229.85212,38.5276246 229.631298,37.5139447 229.408373,36.5381202 L228.613412,33.0238899 L228.226447,31.3267123 C227.999316,30.3256509 227.725916,29.1752715 227.402044,27.8797803 C227.080274,26.5800829 226.743783,25.2803855 226.39257,23.9743789 C225.128625,24.2624996 223.896226,24.575857 222.701682,24.9165544" id="Fill-1496" fill="#FFFFFF" sketch:type="MSShapeGroup"></path>
                <path d="M282.214151,36.4218204 C282.498066,36.5101493 282.784083,36.5837568 283.078513,36.6426428 C283.366634,36.7057349 283.656857,36.7667239 283.949184,36.8277129 L285.692629,37.189441 L287.436075,37.5574783 C287.728401,37.6184673 288.014419,37.6773533 288.306746,37.7383423 C288.601175,37.7993314 288.891399,37.847702 289.187932,37.8813511 L287.711577,27.9317261 L282.214151,36.4218204 Z M277.345544,45.0444081 C276.918621,44.8467195 276.495904,44.6658555 276.073186,44.5102283 C275.648366,44.352498 275.202515,44.2221077 274.725118,44.1253664 C274.277164,44.0286252 273.825004,43.9718423 273.374947,43.9445024 C272.92489,43.9192656 272.504276,43.9213686 272.115208,43.9487086 L275.555831,39.166327 C276.092114,38.4512831 276.693592,37.6205704 277.362368,36.6699827 C278.026939,35.719395 278.729364,34.701509 279.469645,33.6142217 C280.205719,32.5248314 280.97334,31.3891735 281.772507,30.207248 C282.571673,29.0211164 283.372943,27.839191 284.174213,26.6509564 C284.617961,25.9758708 285.126904,25.1914257 285.701042,24.3060331 C286.270974,23.4164344 286.826184,22.5394542 287.368776,21.6750923 C287.905059,20.8065243 288.401384,20.0283884 288.849338,19.3343752 C289.297292,18.6424651 289.619061,18.1545529 289.818853,17.8643292 C290.247879,18.0641208 290.691627,18.2470879 291.1522,18.4090243 C291.612772,18.57727 292.071241,18.7055572 292.517092,18.8001954 C292.994489,18.8990397 293.478195,18.9663379 293.966107,18.9999871 C294.458226,19.0336362 294.935623,19.0441515 295.408814,19.0315331 C295.499246,20.0431099 295.638048,21.2397568 295.816809,22.6151647 C295.997673,23.9905726 296.199568,25.4395879 296.418287,26.9601077 C296.634904,28.4806274 296.870447,30.0074564 297.11861,31.5342853 C297.364669,33.0611143 297.596007,34.4806866 297.818932,35.7951055 C298.079713,37.3156252 298.315257,38.657384 298.523461,39.8351033 C298.733768,41.0107195 298.935662,42.1211406 299.129145,43.1684695 C299.322627,44.2179015 299.53714,45.2736428 299.768478,46.3420024 C300.001919,47.4103621 300.271112,48.6006998 300.576057,49.9046033 C299.842086,49.5870397 299.005064,49.3073314 298.062888,49.0675814 C297.11861,48.8278314 296.250042,48.6259366 295.457184,48.4640002 C294.61175,48.2852393 293.751594,48.1401274 292.87882,48.0244586 C292.006046,47.9108928 291.137478,47.8204607 290.271013,47.7489564 C290.21423,46.689009 290.146932,45.6669169 290.062809,44.68268 C289.976583,43.7005463 289.860914,42.7121033 289.711596,41.715248 C288.838822,41.5322809 287.968151,41.3451077 287.09748,41.1474191 C286.228912,40.9518336 285.358241,40.7625572 284.485467,40.5816932 C283.799866,40.4365814 283.105853,40.2977787 282.403428,40.1652853 C281.696796,40.0327919 281.002783,39.8918862 280.317182,39.7509805 C279.753559,40.5985178 279.238307,41.4670857 278.775632,42.3671998 C278.310853,43.2610046 277.837662,44.1548094 277.345544,45.0444081 L277.345544,45.0444081 Z" id="Fill-1498" fill="#FFFFFF" sketch:type="MSShapeGroup"></path>
                <path d="M323.753783,42.5760346 C324.163882,41.8315478 324.60132,41.0513088 325.072408,40.2290083 C325.554011,39.3856772 325.999862,38.5949228 326.401548,37.8630544 C326.807441,37.1290829 327.089252,36.6243461 327.249086,36.3404316 C327.705452,35.543368 328.184952,34.6516662 328.687586,33.6653263 C329.188116,32.6789864 329.711781,31.5727715 330.25227,30.3593 C330.845336,30.7925325 331.514112,31.2678263 332.256496,31.7872846 C333.003086,32.3088461 333.716027,32.7631092 334.395318,33.1500741 C335.049373,33.5265237 335.802272,33.9155917 336.6435,34.3193811 C337.482625,34.7231706 338.237627,35.0533526 338.897991,35.3057211 C338.359605,36.0880632 337.812807,36.9082605 337.257597,37.7705193 C336.702386,38.6369842 336.153485,39.499243 335.612996,40.3572956 C335.07461,41.2153482 334.569873,42.0439579 334.094579,42.8473307 C333.617182,43.6486004 333.190259,44.3909842 332.801191,45.0702759 C333.326959,45.4004579 333.913715,45.7600829 334.563564,46.1470478 C335.211309,46.5340127 335.890601,46.9293899 336.593027,47.3310763 C337.202917,47.6843921 337.852766,48.039811 338.550985,48.401539 C339.236586,48.7695763 339.913774,49.1397167 340.572035,49.5140632 C340.973722,48.8095346 341.406954,48.039811 341.867527,47.200686 C342.330202,46.361561 342.79498,45.4993022 343.261862,44.6118066 C343.722434,43.7285171 344.178801,42.8284031 344.633064,41.9240829 C345.091533,41.0176596 345.507941,40.1448855 345.892803,39.3099667 C346.490075,39.7410961 347.158851,40.2226991 347.922266,40.7463636 C348.675165,41.2742342 349.381796,41.7242912 350.037954,42.1007408 C350.694112,42.4750873 351.444908,42.8662583 352.284033,43.2700478 C353.127364,43.6717342 353.882366,44.0019162 354.54273,44.2563877 C353.558494,45.6528263 352.584772,47.1207693 351.627875,48.6581136 C350.670978,50.1933548 349.596309,52.0040982 348.405972,54.0924469 C347.505858,55.6592342 346.698279,57.1019404 345.979029,58.4184623 C345.25347,59.728675 344.572075,60.988414 343.932741,62.1934732 C343.291305,63.3964294 342.660384,64.5783548 342.046287,65.7329404 C341.430088,66.8896289 340.786548,68.1136158 340.107257,69.409107 C338.727643,68.3386443 337.251287,67.3544075 335.682397,66.4563965 C335.005209,66.0673285 334.311195,65.7140127 333.615079,65.3880368 C332.910551,65.0662671 332.191301,64.7529096 331.459432,64.4584798 C331.997818,63.7392298 332.605605,62.8517342 333.287,61.795993 C333.966292,60.7402518 334.639274,59.6613768 335.303845,58.5614711 C335.960002,57.4615654 336.582511,56.4184425 337.167165,55.4299996 C337.743406,54.4394535 338.210287,53.6381838 338.559397,53.0282934 C337.926373,52.6665654 337.28704,52.2880127 336.647706,51.8905325 C336.002064,51.4888461 335.354318,51.1018811 334.69816,50.7275346 C334.08827,50.378425 333.440524,50.0166969 332.757027,49.6402474 C332.065116,49.2616947 331.413165,48.9125851 330.790656,48.5845061 C330.426825,49.2175303 329.970459,50.0356246 329.408939,51.036686 C328.851625,52.0398504 328.264869,53.1040039 327.654978,54.2312496 C327.038779,55.3563921 326.445713,56.4731224 325.879987,57.5814404 C325.307952,58.6855522 324.838967,59.6424491 324.462518,60.4584404 C323.804257,59.9242605 323.124965,59.4258329 322.424643,58.9652605 C321.728527,58.5025851 321.000864,58.0567342 320.250068,57.6256048 C319.36047,57.1187649 318.569715,56.7044601 317.882011,56.3868965 C317.190101,56.071436 316.517119,55.7854184 315.852548,55.5309469 L316.998722,53.8526969 C317.337316,53.3647846 317.751621,52.7380697 318.239533,51.9746553 C318.719033,51.2070346 319.227976,50.3763219 319.755847,49.480414 C320.283717,48.5845061 320.82,47.6738768 321.371005,46.7422167 C321.9157,45.8126596 322.418334,44.9461947 322.876803,44.1491311 C323.051358,43.846289 323.341581,43.3205215 323.753783,42.5760346" id="Fill-1500" fill="#FFFFFF" sketch:type="MSShapeGroup"></path>
            </g>
        </g>
    </g>
</svg>