<?xml version="1.0" encoding="utf-8"?>
<!-- Generator: Adobe Illustrator 14.0.0, SVG Export Plug-In . SVG Version: 6.00 Build 43363)  -->
<!DOCTYPE svg PUBLIC "-//W3C//DTD SVG 1.1//EN" "http://www.w3.org/Graphics/SVG/1.1/DTD/svg11.dtd">
<svg version="1.1" id="Layer_1" xmlns="http://www.w3.org/2000/svg" xmlns:xlink="http://www.w3.org/1999/xlink" x="0px" y="0px"
	 width="250px" height="250px" viewBox="0 0 250 250" enable-background="new 0 0 250 250" xml:space="preserve">
<g>
	<path fill="#231F20" d="M232.947,117.848c0-28.832-11.229-55.94-31.617-76.328c-17.609-17.61-40.23-28.379-64.645-30.99
		c-0.566-0.562-1.202-1.081-1.921-1.542c-8.645-5.558-15.855-1.428-20.855,1.001c-0.36,0.174-0.786,0.382-1.255,0.623
		c-9.411,1.076-18.459,3.373-26.982,6.719c-1.008-1.511-2.171-2.93-3.483-4.244C76.974,7.873,70.037,5,62.661,5
		C47.432,5,35.044,17.388,35.044,32.617c0,6.382,2.155,12.431,6.113,17.327c-15.065,18.558-24.104,42.193-24.104,67.904
		c0,28.834,11.229,55.944,31.616,76.331c9.959,9.958,21.523,17.726,34.107,23.072c-0.706,5.705,0.225,9.576,1.263,11.163
		c-1.585,1.333-2.253,2.167-2.502,3.67c-2.503,3.42,3.586,7.758,6.09,9.679c5.141,3.941,7.842,3.252,11.848,3.085
		c4.944-0.205,9.593-6.005,12.264-9.758c5.339-0.753,6.341,0.08,6.509,0.75c1.667-0.25,4.004-0.67,7.174-2.005
		c7.211-3.033,5.173-6.759,4.422-7.424c-0.193-0.172-0.354-0.414-0.504-0.707c17.11-0.671,33.517-5.312,48.152-13.481
		c0.517,0.578,1.054,1.237,1.575,2.007c1.585,2.337,2.421,9.927,2.754,13.849c0.332,3.922,1,6.593,2.921,12.768
		c1.917,6.172,2.669,1.667,2.755,0c0.08-1.672,0.413-7.679,0.163-12.016c-0.249-4.338-0.333-10.597,0.504-13.266
		c0.832-2.67-0.667-3.336-1.087-3.838c-0.418-0.5,0-0.667-1.084-4.088c-0.063-0.191-0.109-0.391-0.152-0.593
		c5.494-3.765,10.679-8.057,15.489-12.867C221.718,173.792,232.947,146.683,232.947,117.848"/>
	<path fill="#061922" d="M232.947,117.848c0-28.832-11.229-55.94-31.617-76.328c-17.609-17.61-40.23-28.379-64.645-30.99
		c-0.566-0.562-1.202-1.081-1.921-1.542c-8.645-5.558-15.855-1.428-20.855,1.001c-0.36,0.174-0.786,0.382-1.255,0.623
		c-9.411,1.076-18.459,3.373-26.982,6.719c-1.008-1.511-2.171-2.93-3.483-4.244C76.974,7.873,70.037,5,62.661,5
		C47.432,5,35.044,17.388,35.044,32.617c0,6.382,2.155,12.431,6.113,17.327c-15.065,18.558-24.104,42.193-24.104,67.904
		c0,28.834,11.229,55.944,31.616,76.331c9.959,9.958,21.523,17.726,34.107,23.072c-0.706,5.705,0.225,9.576,1.263,11.163
		c-1.585,1.333-2.253,2.167-2.502,3.67c-2.503,3.42,3.586,7.758,6.09,9.679c5.141,3.941,7.842,3.252,11.848,3.085
		c4.944-0.205,9.593-6.005,12.264-9.758c5.339-0.753,6.341,0.08,6.509,0.75c1.667-0.25,4.004-0.67,7.174-2.005
		c7.211-3.033,5.173-6.759,4.422-7.424c-0.193-0.172-0.354-0.414-0.504-0.707c17.11-0.671,33.517-5.312,48.152-13.481
		c0.517,0.578,1.054,1.237,1.575,2.007c1.585,2.337,2.421,9.927,2.754,13.849c0.332,3.922,1,6.593,2.921,12.768
		c1.917,6.172,2.669,1.667,2.755,0c0.08-1.672,0.413-7.679,0.163-12.016c-0.249-4.338-0.333-10.597,0.504-13.266
		c0.832-2.67-0.667-3.336-1.087-3.838c-0.418-0.5,0-0.667-1.084-4.088c-0.063-0.191-0.109-0.391-0.152-0.593
		c5.494-3.765,10.679-8.057,15.489-12.867C221.718,173.792,232.947,146.683,232.947,117.848"/>
	<path fill="#008248" d="M99.475,218.569c4.004-0.168,9.593-1.42,12.137-2.505c0.337,0.084,0.879,0.418,1.714,0.752
		c0.332-2.671-1.377-8.219-2.34-10.763c-0.637-1.69-1.25-2.839-2.001-4.588c-2.253-0.417-5.047-1.63-7.05-2.463
		c0,1.587,0.292,5.716,0.628,8.468c-0.836,0.084-2.003,0.168-3.422,0.168C99.307,210.644,99.643,216.064,99.475,218.569"/>
	<path fill="none" stroke="#008248" stroke-width="0.3058" d="M99.475,218.569c4.004-0.168,9.593-1.42,12.137-2.505
		c0.337,0.084,0.879,0.418,1.714,0.752c0.332-2.671-1.377-8.219-2.34-10.763c-0.637-1.69-1.25-2.839-2.001-4.588
		c-2.253-0.417-5.047-1.63-7.05-2.463c0,1.587,0.292,5.716,0.628,8.468c-0.836,0.084-2.003,0.168-3.422,0.168
		C99.307,210.644,99.643,216.064,99.475,218.569z"/>
	<path fill="#008248" d="M174.979,209.726c-0.75-0.751,0.917-3.086,1.669-7.428c0.752-4.338,0.834-11.596-2.337-15.684
		c-1.542-1.991-2.292-3.245-2.55-4.139c-9.884,7.188-21.206,11.959-33.241,14.005c-0.145,0.256-0.285,0.477-0.418,0.645
		c-1.753,2.252-5.173,5.509-7.676,6.84c-2.502,1.335-5.423,2.339-7.008,2.839c-0.334,2.67-0.768,8.624-0.082,10.68
		c0.25,0.75,3.336,2.585,4.42,4.588c0.113,0.209,0.215,0.414,0.312,0.615c17.025-0.492,33.047-5.061,47.122-12.762
		C175.116,209.856,175.04,209.782,174.979,209.726"/>
	<path fill="none" stroke="#008248" stroke-width="0.3058" d="M174.979,209.726c-0.75-0.751,0.917-3.086,1.669-7.428
		c0.752-4.338,0.834-11.596-2.337-15.684c-1.542-1.991-2.292-3.245-2.55-4.139c-9.884,7.188-21.206,11.959-33.241,14.005
		c-0.145,0.256-0.285,0.477-0.418,0.645c-1.753,2.252-5.173,5.509-7.676,6.84c-2.502,1.335-5.423,2.339-7.008,2.839
		c-0.334,2.67-0.768,8.624-0.082,10.68c0.25,0.75,3.336,2.585,4.42,4.588c0.113,0.209,0.215,0.414,0.312,0.615
		c17.025-0.492,33.047-5.061,47.122-12.762C175.116,209.856,175.04,209.782,174.979,209.726z"/>
	<path fill="#008248" d="M199.167,43.685c-16.451-16.448-37.399-26.753-60.072-29.779c1.815,3.592,2.101,7.724,2.261,10.351
		c3.256-1.419,5.759-2.169,7.094-4.338c1.336-2.17,3.171-1.753,4.338-0.167c1.167,1.585,1.167,3.588-1.917,5.505
		c-3.088,1.921-5.341,2.838-6.009,3.172c-0.668,0.332-0.082,0.916,0.668,2.169c0.749,1.251,2.662,4.342,3.002,10.847
		c0.004,0.06,0.008,0.126,0.008,0.19c12.268,3.773,23.506,10.504,32.84,19.838c15.063,15.063,23.359,35.09,23.359,56.394
		c0,12.236-2.741,24.046-7.926,34.743c0.691,0.357,1.624,2.778,1.944,5.972c0.168,1.669,0.086,3.504-0.418,4.672
		c-0.5,1.169-4.436,7.076-6.423,8.843c-0.749,0.668-2.502,0.586-3.252-0.5c-0.754-1.083-0.836-0.501-1.417,0.082
		c-0.588,0.586-2.591,3.507-3.091,4.256c-0.502,0.752-2.169,1.501-1.083,4.506c1.083,3.004,2.335,5.257,1.917,6.928
		c-0.416,1.668-0.582,2.167,1.669,4.084c2.255,1.921,2.169,4.256,1.169,5.76c-0.626,0.938-1.612,3.449-1.995,6.033
		c26.646-19.035,44.051-50.221,44.051-85.395C229.884,89.834,218.976,63.495,199.167,43.685"/>
	<path fill="none" stroke="#008248" stroke-width="0.3058" d="M199.167,43.685c-16.451-16.448-37.399-26.753-60.072-29.779
		c1.815,3.592,2.101,7.724,2.261,10.351c3.256-1.419,5.759-2.169,7.094-4.338c1.336-2.17,3.171-1.753,4.338-0.167
		c1.167,1.585,1.167,3.588-1.917,5.505c-3.088,1.921-5.341,2.838-6.009,3.172c-0.668,0.332-0.082,0.916,0.668,2.169
		c0.749,1.251,2.662,4.342,3.002,10.847c0.004,0.06,0.008,0.126,0.008,0.19c12.268,3.773,23.506,10.504,32.84,19.838
		c15.063,15.063,23.359,35.09,23.359,56.394c0,12.236-2.741,24.046-7.926,34.743c0.691,0.357,1.624,2.778,1.944,5.972
		c0.168,1.669,0.086,3.504-0.418,4.672c-0.5,1.169-4.436,7.076-6.423,8.843c-0.749,0.668-2.502,0.586-3.252-0.5
		c-0.754-1.083-0.836-0.501-1.417,0.082c-0.588,0.586-2.591,3.507-3.091,4.256c-0.502,0.752-2.169,1.501-1.083,4.506
		c1.083,3.004,2.335,5.257,1.917,6.928c-0.416,1.668-0.582,2.167,1.669,4.084c2.255,1.921,2.169,4.256,1.169,5.76
		c-0.626,0.938-1.612,3.449-1.995,6.033c26.646-19.035,44.051-50.221,44.051-85.395C229.884,89.834,218.976,63.495,199.167,43.685z"
		/>
	<path fill="#008248" d="M78.699,195.289c-0.296-2.822-0.724-7.936,1.255-11.58c-4.027-2.766-7.834-5.919-11.363-9.448
		c-15.065-15.064-23.361-35.092-23.361-56.394c0-22.811,9.629-43.414,25.032-57.962c0.144-0.308,0.328-0.605,0.553-0.891
		c-2.607,0.801-5.348,1.221-8.154,1.221c-7.348,0-14.259-2.852-19.468-8.032c-14.951,18.559-23.077,41.476-23.077,65.646
		c0,28.016,10.908,54.355,30.719,74.166c9.497,9.497,20.496,16.941,32.46,22.126c0.463-2.233,1.155-4.678,2.162-7.336
		c0.918-2.421-0.5-8.008-2.836-10.929C81.369,195.543,79.784,195.375,78.699,195.289"/>
	<path fill="none" stroke="#008248" stroke-width="0.3058" d="M78.699,195.289c-0.296-2.822-0.724-7.936,1.255-11.58
		c-4.027-2.766-7.834-5.919-11.363-9.448c-15.065-15.064-23.361-35.092-23.361-56.394c0-22.811,9.629-43.414,25.032-57.962
		c0.144-0.308,0.328-0.605,0.553-0.891c-2.607,0.801-5.348,1.221-8.154,1.221c-7.348,0-14.259-2.852-19.468-8.032
		c-14.951,18.559-23.077,41.476-23.077,65.646c0,28.016,10.908,54.355,30.719,74.166c9.497,9.497,20.496,16.941,32.46,22.126
		c0.463-2.233,1.155-4.678,2.162-7.336c0.918-2.421-0.5-8.008-2.836-10.929C81.369,195.543,79.784,195.375,78.699,195.289z"/>
	<path fill="#008248" d="M106.511,14.583c-6.623,1.171-13.08,2.972-19.3,5.369c2.001,3.868,3.068,8.184,3.068,12.664
		c0,5.941-1.867,11.594-5.315,16.293c5.771-3.362,11.998-6.027,18.568-7.864c0.426-0.416,0.854-0.817,1.281-1.187
		c-2.418-4.007-5.673-10.431-2.836-19.107C102.776,18.303,104.535,16.25,106.511,14.583"/>
	<path fill="none" stroke="#008248" stroke-width="0.3058" d="M106.511,14.583c-6.623,1.171-13.08,2.972-19.3,5.369
		c2.001,3.868,3.068,8.184,3.068,12.664c0,5.941-1.867,11.594-5.315,16.293c5.771-3.362,11.998-6.027,18.568-7.864
		c0.426-0.416,0.854-0.817,1.281-1.187c-2.418-4.007-5.673-10.431-2.836-19.107C102.776,18.303,104.535,16.25,106.511,14.583z"/>
	<path fill="#FFFFFF" d="M148.449,46.198c2.335,1.169,4.947,3.708,3.92,8.425c-0.418,1.921-2.019,3.767-2.167,4.509
		c-0.254,1.251-2.879,3.378-3.715,5.045c-0.827,1.654-0.954,3.062-0.712,3.777c0,0.007,0,0.015,0.004,0.019
		c1.335,1.251,4.337,2.92,6.005,3.506c1.306,0.456,1.214,0.806,0.671,1.667c0.918,0.084,1.389,0.65,2.249,1.669
		c0.922,1.085,3.338,0.418,4.842-0.334c1.499-0.751,3.42-1.001,4.923,0.834c1.501,1.837,3.752,5.257,4.84,8.427
		c1.083,3.171,2.251,5.758,2.584,6.258c0.334,0.5-1.167,9.677-1.585,13.349c-0.418,3.67-0.751,5.256-0.833,5.84
		c-0.084,0.583,2.334-2.086,2.418,1.085c0.066,2.528,1.25,10.639,2.614,16.646c0.344,1.526,0.703,2.916,1.059,4.045
		c0.999,0.166,1.835,2.169,2.418,5.255c0.584,3.089,1.835,5.006,1.919,6.509c0.082,1.503,0.5,1.753,1,2.003
		c0.502,0.25,0.336,0.999-1.168,2.753c0.334,0.249,0.834,0.749,1.168,1.085c0.42-0.418,1.587-1.753,1.587-1.753
		s4.588,1.835,5.589,2.171c1.004,0.332,2.19-2.14,5.174-0.836c0.812,0.355,1.718,1.487,2.357,2.597
		c4.676-9.995,7.29-21.138,7.29-32.882c0-20.812-8.104-40.379-22.821-55.095c-8.979-8.98-19.766-15.492-31.539-19.21
		C148.51,44.706,148.449,45.792,148.449,46.198"/>
	<path fill="#FFFFFF" d="M172.561,177.435c-1.167-0.583-1.929,0.264-2.503-4.337c-0.168-1.334-1.251-3.087-2.087-3.92
		c-0.833-0.834-0.933-2.397-0.499-3.754c0.667-2.087,0.835-4.006,0.749-5.676c-0.082-1.667,0.252-3.756,2.587-4.755
		c-0.834-0.918-1.251-2.085-1.499-3.003c-3.423-1.128-4.105-1.224-4.801-2.879c-1.163-2.778-1.882-6.837-2.229-9.049
		c-0.176-1.089-0.287-2.101-0.313-3.006c-1.097-2.073-3.529-6.677-5.409-10.136c-0.697-1.298-1.317-2.426-1.767-3.215
		c-1.671-2.918,0-6.756,0.836-9.009c0.831-2.253,1.499-4.254,0.749-6.509c-0.749-2.251-0.749-2.753-0.917-3.67
		s-0.918-2.087-1.921,1.085c-1,3.171-2.921,7.843-4.002,12.68c-0.619,2.751-1.045,5.744-0.902,8.639
		c0.109,2.204,0.547,4.354,1.483,6.296c2.171,4.507,4.756,8.677,4.424,11.18c-0.336,2.503-0.882,2.589-0.917,3.003
		c-0.418,4.841-2.503,14.102-3.589,16.772c-1.085,2.669-5.341,12.346-6.258,16.436c-0.703,3.131-2.63,9.835-4.281,13.815
		c12.485-2.362,23.932-7.707,33.556-15.273C173.334,178.448,173.285,177.798,172.561,177.435"/>
	<path fill="#FFFFFF" d="M79.834,67.955c0.923,1.2,2.129,2.302,3.706,3.107c4.087,2.085,4.922,3.586,4.922,7.174
		c0,3.586,0.667,10.931,1.835,12.18c0.75-0.75,1.585-1.835,1.751-2.167c1.167,2.167,3.52,6.182,7.258,8.675
		c0.252,0.166,0.138,1.087,0.751,1.251c1.251,0.333,9.346,1.585,9.596,3.254c1.669-1.669,4.338-5.841,4.84-7.258
		c0.5-1.417,3.42-5.923,5.589-8.426c0-1.001,0-1.588,0.084-1.838c-0.586,0.5-1.503,1.754-2.838,2.338
		c-1.333,0.583-6.005,2.586-9.344,4.253c-1.167,0.584-3.252,1.251-4.088-4.837c-0.833-6.092,0-9.262,0.584-10.679
		c0.585-1.419,1.669-2.67,3.754-2.087c2.088,0.583,5.424,1.835,6.341,1.835c0.166-0.667,0.752-1.919-1.501-2.169
		c-1.604-0.177-5.783-1.369-8.152-4.608c-0.958-1.297-1.621-2.94-1.691-4.987c-4.757,0.751-15.688,2.171-18.107,2.754
		c-2.418,0.584-4.469,1.08-5.255-4.421c-0.333-2.337-0.917-5.59,0.75-4.422c1.335-1.002,3.185-2.182,6.425-1.668
		c0.592,0.093,1.333,0.59,1.565,1.052c0.181,0.809-0.168,2.135-0.563,3.368c-0.72,2.236-2.127,3.838,2.419,2.795
		c4.761-1.092,10.804-2.003,12.389-2.335c0.21-1.627,1.543-4.131,3.128-5.968c1.594-1.843,1.837-3.336,1.919-3.92
		c0.084-0.584-0.465-0.715-1.251,0c-0.917,0.833-3.67,2.502-6.256,1.833c-1-0.256-2.253-2.169-2.918-3.252
		c0.547-1.145,1.931-3.125,3.63-5.12c-8.883,2.85-17.198,7.292-24.589,13.19c-0.048,0.925,0.074,3.079,0.683,5.446
		C77.607,63.889,78.365,66.046,79.834,67.955"/>
	<path fill="#FFFFFF" d="M85.626,181.94c3.42-1.333,6.116-1.271,8.759,2.253c0.751,1.004,1.335,3.924,7.76,1.335
		c-3.42-4.088-5.473-8.933-7.342-15.434c-2.955-10.269-9.635-21.942-7.176-27.283c-1.417-1.335-3.087-6.509-4.839-5.923
		c-1.177,0.393-2.836,0.418-1.503-3.504c0.602-1.764,1.592-3.898,3.462-6.464c2.287-3.129,5.896-6.893,11.723-11.391
		c0.501-0.417,0.585-0.75,0.251-1.083c-0.583-0.585-1.169-1.251-1.753-1.585c-0.583-0.334-1.167-0.168-1.669,0.334
		c-0.5,0.5-1.333,1.085-1.835,1.417c-0.5,0.334-4.504-3.586-6.592-6.424c-2.085-2.838-4.255-3.755-4.921-4.089
		c0.833-0.917,2.72-2.908,2.001-2.669c-1.251,0.416-3.443,0.696-5.673-1.669c-2.752-2.92-1.669-4.421-2.253-4.837
		c-0.583-0.418-3.586,0.248-5.839-3.256c-2.253-3.502-3.155-5.026-1.335-7.509c0.918-1.251,1.253-1.835,1.001-3.42
		c-0.25-1.585,0-2.586,2.085-4.589c2.087-2.001,3.338-3.836,4.256-3.67c0.728,0.134-1.381-2.518-2.659-4.524
		c-0.332-0.538-0.607-1.019-0.761-1.399c-0.33-0.808-0.856-2.197-0.976-3.692c-14.658,14.705-22.732,34.233-22.732,55.003
		c0,20.812,8.105,40.378,22.821,55.094c3.453,3.451,7.174,6.535,11.115,9.241C82.711,180.342,84.743,181.063,85.626,181.94"/>
	<path fill="#A63732" d="M41.289,17.392c6.842,1.753,11.964,7.283,14.217,10.369c0.574,0.786,1.167,0.668,1.417,0.082
		c0.532-1.237,1.503-5.255,1.503-8.341c0-7.008,0.959-9.779,2.713-13.034C52.957,6.917,45.775,11.123,41.289,17.392"/>
	<path fill="none" stroke="#A63732" stroke-width="0.3058" d="M41.289,17.392c6.842,1.753,11.964,7.283,14.217,10.369
		c0.574,0.786,1.167,0.668,1.417,0.082c0.532-1.237,1.503-5.255,1.503-8.341c0-7.008,0.959-9.779,2.713-13.034
		C52.957,6.917,45.775,11.123,41.289,17.392z"/>
	<path fill="#A63732" d="M37.159,38.859c12.847,1.169,16.845-6.01,17.679-7.095c0.833-1.083-0.166-1.751-0.584-2.336
		c-2.221-3.108-7.195-8.611-14.035-10.362c-2.4,3.955-3.804,8.58-3.804,13.545C36.416,34.765,36.667,36.856,37.159,38.859"/>
	<path fill="none" stroke="#A63732" stroke-width="0.3058" d="M37.159,38.859c12.847,1.169,16.845-6.01,17.679-7.095
		c0.833-1.083-0.166-1.751-0.584-2.336c-2.221-3.108-7.195-8.611-14.035-10.362c-2.4,3.955-3.804,8.58-3.804,13.545
		C36.416,34.765,36.667,36.856,37.159,38.859z"/>
	<path fill="#A63732" d="M88.138,38.358c-5.423-2.253-11.858-0.17-16.446,3.836c-4.588,4.004-6.922,7.081-8.51,16.591
		c-0.194,0.004-0.388,0.006-0.583,0.006c-6.799,0-12.972-2.588-17.626-6.836c7.843-2.003,14.453-5.589,21.88-12.597
		c7.426-7.009,11.096-15.185,12.098-19.023s-0.417-1.585-1.167,0.166c-1.163,2.71-5.005,10.013-12.597,17.106
		c-7.595,7.09-13.43,10.59-21.355,13.259c-2.647-2.718-4.683-6.011-5.951-9.671c2.668,0.166,11.078-0.803,15.29-4.256
		c5.536-4.54,6.173-9.93,6.927-17.605c0.75-7.674,1.874-9.957,3.71-12.877c13.898,0.631,24.973,12.1,24.973,26.155
		C88.779,34.587,88.552,36.508,88.138,38.358"/>
	<path fill="none" stroke="#A63732" stroke-width="0.3058" d="M88.138,38.358c-5.423-2.253-11.858-0.17-16.446,3.836
		c-4.588,4.004-6.922,7.081-8.51,16.591c-0.194,0.004-0.388,0.006-0.583,0.006c-6.799,0-12.972-2.588-17.626-6.836
		c7.843-2.003,14.453-5.589,21.88-12.597c7.426-7.009,11.096-15.185,12.098-19.023s-0.417-1.585-1.167,0.166
		c-1.163,2.71-5.005,10.013-12.597,17.106c-7.595,7.09-13.43,10.59-21.355,13.259c-2.647-2.718-4.683-6.011-5.951-9.671
		c2.668,0.166,11.078-0.803,15.29-4.256c5.536-4.54,6.173-9.93,6.927-17.605c0.75-7.674,1.874-9.957,3.71-12.877
		c13.898,0.631,24.973,12.1,24.973,26.155C88.779,34.587,88.552,36.508,88.138,38.358z"/>
	<path fill="#A63732" d="M87.412,40.982c-1.251-1.751-5.713-2.593-12.801,1.837c-0.666,0.416-1.127,0.708-0.332,1.501
		c1.501,1.503,3.758,4.343,5.343,8.182C83.164,49.466,85.889,45.5,87.412,40.982"/>
	<path fill="none" stroke="#A63732" stroke-width="0.3058" d="M87.412,40.982c-1.251-1.751-5.713-2.593-12.801,1.837
		c-0.666,0.416-1.127,0.708-0.332,1.501c1.501,1.503,3.758,4.343,5.343,8.182C83.164,49.466,85.889,45.5,87.412,40.982z"/>
	<path fill="#A63732" d="M77.529,54.122c-1.501-3.67-2.75-6.339-4.168-8.174c-0.765-0.99-0.919-1.417-2.337-0.166
		c-3.944,3.478-5.465,8.754-6.298,12.925C69.461,58.326,73.841,56.688,77.529,54.122"/>
	<path fill="none" stroke="#A63732" stroke-width="0.3058" d="M77.529,54.122c-1.501-3.67-2.75-6.339-4.168-8.174
		c-0.765-0.99-0.919-1.417-2.337-0.166c-3.944,3.478-5.465,8.754-6.298,12.925C69.461,58.326,73.841,56.688,77.529,54.122z"/>
	<path fill="#BA9653" d="M109.695,218.233c0.543-0.25,1.292-0.584,1.628-0.334c0.332,0.252,2.334,1.671,3.586,2.755
		c1.251,1.085,1.669,1.417,0.667,2.001c-1.001,0.585-1.919,1.169-1.751,0.667c0.166-0.499,0.416-1.251-0.252-1.917
		c-0.666-0.667-2.303-1.933-3.002-2.504C110.111,218.528,109.695,218.233,109.695,218.233"/>
	<path fill="none" stroke="#BA9653" stroke-width="0.3058" d="M109.695,218.233c0.543-0.25,1.292-0.584,1.628-0.334
		c0.332,0.252,2.334,1.671,3.586,2.755c1.251,1.085,1.669,1.417,0.667,2.001c-1.001,0.585-1.919,1.169-1.751,0.667
		c0.166-0.499,0.416-1.251-0.252-1.917c-0.666-0.667-2.303-1.933-3.002-2.504C110.111,218.528,109.695,218.233,109.695,218.233z"/>
	<path fill="#BA9653" d="M104.979,219.609c-0.416,0.377-0.5,1.004,0,1.503c0.502,0.5,3.296,2.835,3.756,3.296
		c0.46,0.461,1.125,0.625,1.877,0.461c0.75-0.168-0.875,0.917-1.501,1.04c-0.627,0.127-1.335,0.127-2.003-0.5
		c-0.667-0.626-4.422-4.172-5.173-4.882c-0.75-0.709,0.21-0.709,0.875-0.791C103.479,219.654,104.062,219.695,104.979,219.609"/>
	<path fill="none" stroke="#BA9653" stroke-width="0.3058" d="M104.979,219.609c-0.416,0.377-0.5,1.004,0,1.503
		c0.502,0.5,3.296,2.835,3.756,3.296c0.46,0.461,1.125,0.625,1.877,0.461c0.75-0.168-0.875,0.917-1.501,1.04
		c-0.627,0.127-1.335,0.127-2.003-0.5c-0.667-0.626-4.422-4.172-5.173-4.882c-0.75-0.709,0.21-0.709,0.875-0.791
		C103.479,219.654,104.062,219.695,104.979,219.609z"/>
	<path fill="#BA9653" d="M100.308,198.253c0.254,0.764,0.333,1.46-0.833,1.292c-1.169-0.168-6.089-0.626-7.508-0.626
		c-0.333,0-0.208-0.834-0.709-0.5c-0.5,0.336-0.292,1.085-0.292,1.919s-0.07,1.335-0.042,1.919c0.042,0.877,0.586,2.087,2.836,2.212
		c2.253,0.123,4.38-0.125,5.047-0.586c0.668-0.457-0.042-1.208-0.667-1.208c-0.624,0-4.38,0.291-5.173,0
		c-0.792-0.291-1.306-1.205-0.75-1.585c0.667-0.459,1.961,0.127,3.252,0.127c1.293,0,2.67-0.336,3.004-0.127
		c0.333,0.208,0.793,0.127,0.793,1.708c0,0.336,0.792,0.46,1.167,0.46c0.375,0,0.542,0.625,0.501,1.461
		c-0.044,0.831,0.04,0.999-1.461,0.999c-1.501,0-7.966-0.082-8.927-0.082c-0.376,0-0.418-0.293-0.458-1.044
		c-0.042-0.75-0.292-5.964-0.376-6.382c-0.083-0.418,1.001-0.459,1.877-0.291c0.875,0.166,1.961,0.334,3.378,0.418
		c1.419,0.082,3.588,0.291,3.588,0.291s1.085,0.127,1.209-0.209C99.892,198.085,100.224,198.003,100.308,198.253"/>
	<path fill="none" stroke="#BA9653" stroke-width="0.3058" d="M100.308,198.253c0.254,0.764,0.333,1.46-0.833,1.292
		c-1.169-0.168-6.089-0.626-7.508-0.626c-0.333,0-0.208-0.834-0.709-0.5c-0.5,0.336-0.292,1.085-0.292,1.919
		s-0.07,1.335-0.042,1.919c0.042,0.877,0.586,2.087,2.836,2.212c2.253,0.123,4.38-0.125,5.047-0.586
		c0.668-0.457-0.042-1.208-0.667-1.208c-0.624,0-4.38,0.291-5.173,0c-0.792-0.291-1.306-1.205-0.75-1.585
		c0.667-0.459,1.961,0.127,3.252,0.127c1.293,0,2.67-0.336,3.004-0.127c0.333,0.208,0.793,0.127,0.793,1.708
		c0,0.336,0.792,0.46,1.167,0.46c0.375,0,0.542,0.625,0.501,1.461c-0.044,0.831,0.04,0.999-1.461,0.999
		c-1.501,0-7.966-0.082-8.927-0.082c-0.376,0-0.418-0.293-0.458-1.044c-0.042-0.75-0.292-5.964-0.376-6.382
		c-0.083-0.418,1.001-0.459,1.877-0.291c0.875,0.166,1.961,0.334,3.378,0.418c1.419,0.082,3.588,0.291,3.588,0.291
		s1.085,0.127,1.209-0.209C99.892,198.085,100.224,198.003,100.308,198.253z"/>
	<path fill="#F9B282" d="M70.357,83.409c-1.085-0.334-1.919,0.917-2.421,1.919c-0.5,1-1.083,2.085,0.502,4.338
		c1.585,2.253,2.573,3.594,5.339,3.42c1.335-0.082,2.502-1.083,2.92-1.669c0.417-0.583,0.5,0.42-0.168,1.419
		c-0.666,1.001-1.166,3.336,0.084,4.923c1.253,1.583,3.838,2.918,7.258,0.917c3.421-2.003,4.84-4.421,5.424-5.507
		c0.583-1.085,0.583-1.585,0-2.253c-0.584-0.667-2.503-3.843-2.921-10.096c-0.25-3.754,0.418-6.175-1.919-7.508
		c-2.335-1.335-7.678-4.496-8.342-10.681c-0.25-2.334-0.084-5.924-2.42-4.005c-2.335,1.92-2.335,3.255-2.585,4.673
		c-0.252,1.419,0.917,3.338,1.919,4.671c1,1.335,2.167,4.256,3.086,5.007c0.917,0.75,1.501,1.335,2.253,1.417
		c0.75,0.083,3.754,0.083,4.503,0.333c0.752,0.252,1.169,1.169-0.667,1.169c-1.835,0-4.669,0.5-5.923,0.666
		c-1.251,0.168-2.419,0.252-3.002,2.755c-0.585,2.5-1.419,5.423-1.503,6.34c-0.082,0.918-0.582,1.42-0.582,1.92
		c0,0.5,1,2.918,3.252,0.5c2.253-2.42,3.17-4.84,3.588-6.008c0.418-1.167,0.917-1.001,0.5,0.833
		c-0.416,1.837-0.542,6.426,0.333,8.011c0.942,1.703,2.846,3.458,5.257,2.253c0.5-0.25,1.333-0.668,2.001-0.586
		c0.668,0.086-0.125,1.253-0.708,1.753c-0.584,0.502-2.504,2.625-5.882-0.416c-0.835-0.751-1.993-2.423-2.253-4.506
		c-0.084-0.667-1.001-0.919-1.417-0.333c-0.417,0.583-2.67,2.668-4.255,1.167c-1.585-1.501-2.241-2.333-1.333-5.506
		C70.441,84.159,70.763,83.536,70.357,83.409"/>
	<path fill="none" stroke="#F9B282" stroke-width="0.3058" stroke-linecap="round" d="M70.357,83.409
		c-1.085-0.334-1.919,0.917-2.421,1.919c-0.5,1-1.083,2.085,0.502,4.338c1.585,2.253,2.573,3.594,5.339,3.42
		c1.335-0.082,2.502-1.083,2.92-1.669c0.417-0.583,0.5,0.42-0.168,1.419c-0.666,1.001-1.166,3.336,0.084,4.923
		c1.253,1.583,3.838,2.918,7.258,0.917c3.421-2.003,4.84-4.421,5.424-5.507c0.583-1.085,0.583-1.585,0-2.253
		c-0.584-0.667-2.503-3.843-2.921-10.096c-0.25-3.754,0.418-6.175-1.919-7.508c-2.335-1.335-7.678-4.496-8.342-10.681
		c-0.25-2.334-0.084-5.924-2.42-4.005c-2.335,1.92-2.335,3.255-2.585,4.673c-0.252,1.419,0.917,3.338,1.919,4.671
		c1,1.335,2.167,4.256,3.086,5.007c0.917,0.75,1.501,1.335,2.253,1.417c0.75,0.083,3.754,0.083,4.503,0.333
		c0.752,0.252,1.169,1.169-0.667,1.169c-1.835,0-4.669,0.5-5.923,0.666c-1.251,0.168-2.419,0.252-3.002,2.755
		c-0.585,2.5-1.419,5.423-1.503,6.34c-0.082,0.918-0.582,1.42-0.582,1.92c0,0.5,1,2.918,3.252,0.5c2.253-2.42,3.17-4.84,3.588-6.008
		c0.418-1.167,0.917-1.001,0.5,0.833c-0.416,1.837-0.542,6.426,0.333,8.011c0.942,1.703,2.846,3.458,5.257,2.253
		c0.5-0.25,1.333-0.668,2.001-0.586c0.668,0.086-0.125,1.253-0.708,1.753c-0.584,0.502-2.504,2.625-5.882-0.416
		c-0.835-0.751-1.993-2.423-2.253-4.506c-0.084-0.667-1.001-0.919-1.417-0.333c-0.417,0.583-2.67,2.668-4.255,1.167
		c-1.585-1.501-2.241-2.333-1.333-5.506C70.441,84.159,70.763,83.536,70.357,83.409z"/>
	<path fill="#F9B282" d="M72.026,78.737c-0.36,1.076-0.667,2.503-0.833,3.002c-0.168,0.502-0.917,1.585-1.587,0.168
		c-0.666-1.419-0.634-2.538,0.417-3.588c0.334-0.334,0.833-1.001,1.169-0.668C71.524,77.986,72.108,78.485,72.026,78.737"/>
	<path fill="none" stroke="#F9B282" stroke-width="0.3058" stroke-linecap="round" d="M72.026,78.737
		c-0.36,1.076-0.667,2.503-0.833,3.002c-0.168,0.502-0.917,1.585-1.587,0.168c-0.666-1.419-0.634-2.538,0.417-3.588
		c0.334-0.334,0.833-1.001,1.169-0.668C71.524,77.986,72.108,78.485,72.026,78.737z"/>
	<path fill="#F9B282" d="M75.78,74.899c-0.688,0.344-2.153,0.34-2.671,1.501c-0.332,0.751-1.669-0.084-1.001-1.001
		c0.67-0.918,1.169-0.834,1.585-1.083c0.417-0.252,0.585-1.001,1.419-0.586C75.946,74.148,76.114,74.731,75.78,74.899"/>
	<path fill="none" stroke="#F9B282" stroke-width="0.3058" stroke-linecap="round" d="M75.78,74.899
		c-0.688,0.344-2.153,0.34-2.671,1.501c-0.332,0.751-1.669-0.084-1.001-1.001c0.67-0.918,1.169-0.834,1.585-1.083
		c0.417-0.252,0.585-1.001,1.419-0.586C75.946,74.148,76.114,74.731,75.78,74.899z"/>
	<path fill="#F9B282" d="M130.761,33.6c-2.335,0.251-4.504,1.669-6.674,3.171c-2.169,1.501-10.011,8.094-11.848,9.427
		c1.921,1.001,2.42,3.004,1.753,6.341c-0.148,0.742,0,1.001,0.502,0.501c0.5-0.501,2.834-3.004,2.752-5.005
		c-0.084-2.003-1.001-3.17-1.169-3.42c-0.166-0.251,0.667-1.253,1.585,0.834c0.917,2.085,0.668,5.005-2.085,8.259
		c-2.752,3.252-4.921,3.17-6.088,3.754c-1.17,0.583-2.338,1.502-1.254,3.253c1.086,1.753,3.171,1.085,4.005,0.502
		c0.835-0.586,2.003-1.251,4.673-1.001c2.668,0.25,3.558-1.448,1.751-3.255c-0.583-0.583-2.085-1.919-0.25-1.919
		c1.085,0,2.418,2.421,3.17,3.089c0.752,0.667,2.419,0.917,4.673,1.083c2.251,0.168,5.755,1.001,5.755,3.17
		c0,1.335-0.718,1.723-1.667,0.667c-0.374-0.418-0.911,0.241-1.335,0.667c-1.419,1.419-5.049,5.257-7.636,5.923
		c-2.585,0.668-3.544-0.082-6.964-1.919c-3.422-1.835-6.592-3.67-7.509-4.253c-0.919-0.586-2.838-1.919-1.921,0.751
		c0.919,2.668,3.172,5.421,7.677,6.922c4.506,1.503,5.173,2.003,6.175,2.502c1,0.502,0.416,1.001-0.917,0.835
		c-1.162-0.145-2.418-1.167-1.419,1.083c1.001,2.255,2.502,4.674,7.092,4.09c4.587-0.583,4.72-1.555,7.592-6.34
		c0.5-0.836,1.001-0.252,0.668,1.919c2.252-1.085,3.504-1.419,4.837-1.753c1.337-0.333,4.807-1.511,7.093-5.757
		c1.167-2.169,1.8-2.913,1.585-5.171c-0.078-0.839,1.167-2.502,2.421-3.672c1.249-1.168,4.673-5.59,2.92-8.76
		s-4.674-1.585-6.091,0.751c-1.417,2.337-3.002,4.921-3.088,8.926c-1-0.332-2.022,0.035-2.503,0.833
		c-0.25,0.42-3.922-0.082-5.173,0.252c-1.25,0.334-1.668-0.417-0.332-2.169c1.333-1.754,6.036-8.103,5.755-12.85
		c-0.082-1.417,0.109-1.679,0.336-2.752c0.291-1.377,0.417-1.398-1.295-2.337c-1.114-0.61-1.181-2.347-1.376-3.67
		c-0.209-1.418-0.48-1.424-2.087-1.086C133.662,36.271,131.679,35.101,130.761,33.6"/>
	<path fill="none" stroke="#F9B282" stroke-width="0.3058" d="M130.761,33.6c-2.335,0.251-4.504,1.669-6.674,3.171
		c-2.169,1.501-10.011,8.094-11.848,9.427c1.921,1.001,2.42,3.004,1.753,6.341c-0.148,0.742,0,1.001,0.502,0.501
		c0.5-0.501,2.834-3.004,2.752-5.005c-0.084-2.003-1.001-3.17-1.169-3.42c-0.166-0.251,0.667-1.253,1.585,0.834
		c0.917,2.085,0.668,5.005-2.085,8.259c-2.752,3.252-4.921,3.17-6.088,3.754c-1.17,0.583-2.338,1.502-1.254,3.253
		c1.086,1.753,3.171,1.085,4.005,0.502c0.835-0.586,2.003-1.251,4.673-1.001c2.668,0.25,3.558-1.448,1.751-3.255
		c-0.583-0.583-2.085-1.919-0.25-1.919c1.085,0,2.418,2.421,3.17,3.089c0.752,0.667,2.419,0.917,4.673,1.083
		c2.251,0.168,5.755,1.001,5.755,3.17c0,1.335-0.718,1.723-1.667,0.667c-0.374-0.418-0.911,0.241-1.335,0.667
		c-1.419,1.419-5.049,5.257-7.636,5.923c-2.585,0.668-3.544-0.082-6.964-1.919c-3.422-1.835-6.592-3.67-7.509-4.253
		c-0.919-0.586-2.838-1.919-1.921,0.751c0.919,2.668,3.172,5.421,7.677,6.922c4.506,1.503,5.173,2.003,6.175,2.502
		c1,0.502,0.416,1.001-0.917,0.835c-1.162-0.145-2.418-1.167-1.419,1.083c1.001,2.255,2.502,4.674,7.092,4.09
		c4.587-0.583,4.72-1.555,7.592-6.34c0.5-0.836,1.001-0.252,0.668,1.919c2.252-1.085,3.504-1.419,4.837-1.753
		c1.337-0.333,4.807-1.511,7.093-5.757c1.167-2.169,1.8-2.913,1.585-5.171c-0.078-0.839,1.167-2.502,2.421-3.672
		c1.249-1.168,4.673-5.59,2.92-8.76s-4.674-1.585-6.091,0.751c-1.417,2.337-3.002,4.921-3.088,8.926
		c-1-0.332-2.022,0.035-2.503,0.833c-0.25,0.42-3.922-0.082-5.173,0.252c-1.25,0.334-1.668-0.417-0.332-2.169
		c1.333-1.754,6.036-8.103,5.755-12.85c-0.082-1.417,0.109-1.679,0.336-2.752c0.291-1.377,0.417-1.398-1.295-2.337
		c-1.114-0.61-1.181-2.347-1.376-3.67c-0.209-1.418-0.48-1.424-2.087-1.086C133.662,36.271,131.679,35.101,130.761,33.6z"/>
	<path fill="#F9B282" d="M121,59.715c-0.46,1.042-1.719,2.043-4.629,1.709c-1.461-0.166-2.889-0.187-3.128,0.959
		c-0.168,0.793-0.832,0.75-1.753,0.709c-0.96-0.042-2.001-0.294-2.046,0.042c-0.04,0.334,4.089,2.794,5.466,3.42
		c1.377,0.626,3.384,2.117,5.005,1.961c2.171-0.208,4.058-1.283,7.26-4.673c1.319-1.397,2.378-2.127,1.124-2.71
		c-0.847-0.396-1.71-0.502-2.834-0.502C124.336,60.631,121.917,60.465,121,59.715"/>
	<path fill="none" stroke="#F9B282" stroke-width="0.3058" d="M121,59.715c-0.46,1.042-1.719,2.043-4.629,1.709
		c-1.461-0.166-2.889-0.187-3.128,0.959c-0.168,0.793-0.832,0.75-1.753,0.709c-0.96-0.042-2.001-0.294-2.046,0.042
		c-0.04,0.334,4.089,2.794,5.466,3.42c1.377,0.626,3.384,2.117,5.005,1.961c2.171-0.208,4.058-1.283,7.26-4.673
		c1.319-1.397,2.378-2.127,1.124-2.71c-0.847-0.396-1.71-0.502-2.834-0.502C124.336,60.631,121.917,60.465,121,59.715z"/>
	<path fill="#F9B282" d="M105.439,59.756c-1.125-0.041-1.251-0.876-0.5-2.128c0.751-1.252,1.459-2.417,2.461-3.171
		c0.166,0.543,0.5,1.209,1.001,1.503c-0.668,0.708-1.549,1.598-1.381,3.349"/>
	<path fill="none" stroke="#F9B282" stroke-width="0.3058" d="M105.439,59.756c-1.125-0.041-1.251-0.876-0.5-2.128
		c0.751-1.252,1.459-2.417,2.461-3.171c0.166,0.543,0.5,1.209,1.001,1.503c-0.668,0.708-1.549,1.598-1.381,3.349L105.439,59.756z"/>
	<path fill="#061922" d="M124.17,47.451c0.208-1.169,0.042-2.129-1.669-0.752c-1.585-1.167-3.002-2.586-3.504-2.92
		c-0.5-0.333-0.75-0.833-0.166-1.417c0.584-0.586,1.625,0.442,1.375-1.295c-0.082-0.583,1.293-0.208,1.627-0.374
		c0.334-0.167-0.152-0.978,1.419-0.583c0.5,0.124,0.292-0.835,1.293-0.667c1,0.166,1.5,0.542,1.711-0.252
		c0.207-0.792,0.438-1.288,1.711-0.5c0.874,0.542,1.208,0.208,1.292-0.209c0.084-0.416,0.874-0.166,1.585,0.251
		c0.711,0.418,2.474,1.293,4.549,3.714c0.5,0.582,0.749,1.207,0.416,1.291c-0.332,0.084-0.711,0-0.793,0.668
		c-0.084,0.667-0.418,1.251-0.795,0.5c-0.374-0.75-0.458,0.126-0.749-0.666c-0.291-0.793-0.668,0.292-0.875-0.25
		c-0.271-0.704-0.527,0.118-0.792-0.501c-0.127-0.292-0.918,0.374-1.172-0.084c-0.25-0.458-0.79,0.501-1.208-0.042
		c-0.416-0.542-0.416,0.585-1.084,0.333c-0.667-0.25-0.374,0.626-1.042,0.334s-0.461,0.835-1.086,0.667
		c-0.626-0.166-0.582,0.126-0.708,0.836c-0.126,0.708-0.417,3.46-0.376,4.127c0.043,0.67,1.417,0.502,3.506,0.208
		c2.085-0.29,5.81-1.445,7.676-3.002c0.75-0.625,1.418-0.583,1.543-0.375c0.126,0.209-0.207,0.877-0.752,1.335
		c-0.541,0.46-1.962,1.919-5.171,2.545c-3.214,0.625-5.885,1.127-6.425,1.001c-0.543-0.126,0.209,0.793,1.167,0.583
		c0.506-0.109,1.585,1.877,3.336,1.877c1.42,0,3.546-1.585,4.131-2.043c0.582-0.459,2.712-1.419,1.293,0
		c-1.418,1.419-2.921,2.962-4.42,3.002c-1.503,0.042-3.799-0.458-5.38-1.543c-1.588-1.083-2.171-1.667-1.88-3.336
		C124.044,48.243,124.088,47.909,124.17,47.451"/>
	<path fill="none" stroke="#F9B282" stroke-width="0.3058" d="M124.17,47.451c0.208-1.169,0.042-2.129-1.669-0.752
		c-1.585-1.167-3.002-2.586-3.504-2.92c-0.5-0.333-0.75-0.833-0.166-1.417c0.584-0.586,1.625,0.442,1.375-1.295
		c-0.082-0.583,1.293-0.208,1.627-0.374c0.334-0.167-0.152-0.978,1.419-0.583c0.5,0.124,0.292-0.835,1.293-0.667
		c1,0.166,1.5,0.542,1.711-0.252c0.207-0.792,0.438-1.288,1.711-0.5c0.874,0.542,1.208,0.208,1.292-0.209
		c0.084-0.416,0.874-0.166,1.585,0.251c0.711,0.418,2.474,1.293,4.549,3.714c0.5,0.582,0.749,1.207,0.416,1.291
		c-0.332,0.084-0.711,0-0.793,0.668c-0.084,0.667-0.418,1.251-0.795,0.5c-0.374-0.75-0.458,0.126-0.749-0.666
		c-0.291-0.793-0.668,0.292-0.875-0.25c-0.271-0.704-0.527,0.118-0.792-0.501c-0.127-0.292-0.918,0.374-1.172-0.084
		c-0.25-0.458-0.79,0.501-1.208-0.042c-0.416-0.542-0.416,0.585-1.084,0.333c-0.667-0.25-0.374,0.626-1.042,0.334
		s-0.461,0.835-1.086,0.667c-0.626-0.166-0.582,0.126-0.708,0.836c-0.126,0.708-0.417,3.46-0.376,4.127
		c0.043,0.67,1.417,0.502,3.506,0.208c2.085-0.29,5.81-1.445,7.676-3.002c0.75-0.625,1.418-0.583,1.543-0.375
		c0.126,0.209-0.207,0.877-0.752,1.335c-0.541,0.46-1.962,1.919-5.171,2.545c-3.214,0.625-5.885,1.127-6.425,1.001
		c-0.543-0.126,0.209,0.793,1.167,0.583c0.506-0.109,1.585,1.877,3.336,1.877c1.42,0,3.546-1.585,4.131-2.043
		c0.582-0.459,2.712-1.419,1.293,0c-1.418,1.419-2.921,2.962-4.42,3.002c-1.503,0.042-3.799-0.458-5.38-1.543
		c-1.588-1.083-2.171-1.667-1.88-3.336C124.044,48.243,124.088,47.909,124.17,47.451z"/>
	<path fill="#061922" d="M148.449,52.706c-0.968,0.685-1.503,0.917-1.585,2.085c-0.082,1.17-0.316,3.161-0.75,3.339
		c-0.569,0.231-0.491-1.082-0.667-0.667c-0.25,0.583-0.961,0.333-1.168-0.211c-0.09-0.231-2.171-0.207-0.503-2.629
		c1.511-2.19,2.67-3.336,3.756-3.836C148.617,50.286,150.452,51.287,148.449,52.706"/>
	<path fill="none" stroke="#F9B282" stroke-width="0.3058" d="M148.449,52.706c-0.968,0.685-1.503,0.917-1.585,2.085
		c-0.082,1.17-0.316,3.161-0.75,3.339c-0.569,0.231-0.491-1.082-0.667-0.667c-0.25,0.583-0.961,0.333-1.168-0.211
		c-0.09-0.231-2.171-0.207-0.503-2.629c1.511-2.19,2.67-3.336,3.756-3.836C148.617,50.286,150.452,51.287,148.449,52.706z"/>
	<path fill="#F9B282" d="M189.289,151.863c-0.389-0.978,0.293-2.625,2.377-1.458c2.085,1.167,3.671,2.171,2.167,6.759
		c-1.499,4.587-2.584,7.258-3.166,9.177c-0.586,1.919-2.839,4.338-2.089,1.083c0.754-3.252,1.151-7.184,0.836-9.177
		c-0.586-3.672,0.593-3.455,0.209-5.132C189.504,152.6,189.43,152.221,189.289,151.863"/>
	<path fill="none" stroke="#F9B282" stroke-width="0.3058" stroke-linecap="round" d="M189.289,151.863
		c-0.389-0.978,0.293-2.625,2.377-1.458c2.085,1.167,3.671,2.171,2.167,6.759c-1.499,4.587-2.584,7.258-3.166,9.177
		c-0.586,1.919-2.839,4.338-2.089,1.083c0.754-3.252,1.151-7.184,0.836-9.177c-0.586-3.672,0.593-3.455,0.209-5.132
		C189.504,152.6,189.43,152.221,189.289,151.863z"/>
	<path fill="#F9B282" d="M197.172,155.828c0.601,1.804,1.253,5.923,0.25,7.593c-1,1.667-4.088,6.256-5.256,7.424
		c-1.167,1.169-2.085,0.667-1.335-0.584c0.754-1.251,1.753-2.918,1.753-3.504c0-0.584-0.082-1.252,0.918-3.169
		c1.003-1.919,2.752-8.345,2.92-8.845S197.008,155.329,197.172,155.828"/>
	<path fill="none" stroke="#F9B282" stroke-width="0.3058" stroke-linecap="round" d="M197.172,155.828
		c0.601,1.804,1.253,5.923,0.25,7.593c-1,1.667-4.088,6.256-5.256,7.424c-1.167,1.169-2.085,0.667-1.335-0.584
		c0.754-1.251,1.753-2.918,1.753-3.504c0-0.584-0.082-1.252,0.918-3.169c1.003-1.919,2.752-8.345,2.92-8.845
		S197.008,155.329,197.172,155.828z"/>
	<path fill="#F9B282" d="M175.647,171.263c-0.5-1.502-0.75-3.671-1.586-4.922c0.668-1.835,2.866-6.772,6.591-8.26
		c0.418-0.168,0.67-0.586,0.502-0.917c-0.168-0.336,0.502-0.586,0.833,0.581c0.334,1.17,0.918,4.506,0.918,4.506
		c0.168,0.752-0.166,1.337-0.334,2.337c-0.168,1.001-0.584,3.254-0.334,4.422c0.252,1.167,0.668,2.003,3.005,1.503
		c1.167-0.252,1.085-0.586,1.417-1.587c0.336-1,1.251-3.838,1.587-5.424c0.332-1.583,0.041-5.464-0.293-6.463
		c-0.331-1.004,0.125-4.381-0.125-5.049c-0.251-0.667-0.417-1.667-2.502-2.339c-2.087-0.663-2.671-0.831-4.088,0.586
		c-1.42,1.417-1.921,2.003-2.587,2.671c-0.668,0.667-2.337,0.082-0.918-1.254c1.42-1.331,2.753-2.666,3.169-3.084l-0.416-1.085
		h-0.752c-2.252,2.252-5.255,3.588-7.258,4.002c-0.754,0.159-2.169,0.253-1.167,1.589c0.25,0.332,0.334,1.249,0.917,0.917
		c0.584-0.336,1.502-1.839,2.337-1.167c0.834,0.664-0.168,2.253-1.169,3.002c-1,0.75-2.085,1.5-2.835,1.917
		c-0.752,0.42-1.169,0.836-1.085,2.171c0.082,1.336,0.166,3.756-0.584,5.589c-0.752,1.838-0.336,2.337,0.332,3.587
		c0.667,1.253,1.753,2.338,2.087,4.339c0.334,2.003,0.499,2.503,1.835,2.337c1.335-0.168,1.835-0.751,2.337-1.585"/>
	<path fill="none" stroke="#F9B282" stroke-width="0.3058" stroke-linecap="round" d="M175.647,171.263
		c-0.5-1.502-0.75-3.671-1.586-4.922c0.668-1.835,2.866-6.772,6.591-8.26c0.418-0.168,0.67-0.586,0.502-0.917
		c-0.168-0.336,0.502-0.586,0.833,0.581c0.334,1.17,0.918,4.506,0.918,4.506c0.168,0.752-0.166,1.337-0.334,2.337
		c-0.168,1.001-0.584,3.254-0.334,4.422c0.252,1.167,0.668,2.003,3.005,1.503c1.167-0.252,1.085-0.586,1.417-1.587
		c0.336-1,1.251-3.838,1.587-5.424c0.332-1.583,0.041-5.464-0.293-6.463c-0.331-1.004,0.125-4.381-0.125-5.049
		c-0.251-0.667-0.417-1.667-2.502-2.339c-2.087-0.663-2.671-0.831-4.088,0.586c-1.42,1.417-1.921,2.003-2.587,2.671
		c-0.668,0.667-2.337,0.082-0.918-1.254c1.42-1.331,2.753-2.666,3.169-3.084l-0.416-1.085h-0.752
		c-2.252,2.252-5.255,3.588-7.258,4.002c-0.754,0.159-2.169,0.253-1.167,1.589c0.25,0.332,0.334,1.249,0.917,0.917
		c0.584-0.336,1.502-1.839,2.337-1.167c0.834,0.664-0.168,2.253-1.169,3.002c-1,0.75-2.085,1.5-2.835,1.917
		c-0.752,0.42-1.169,0.836-1.085,2.171c0.082,1.336,0.166,3.756-0.584,5.589c-0.752,1.838-0.336,2.337,0.332,3.587
		c0.667,1.253,1.753,2.338,2.087,4.339c0.334,2.003,0.499,2.503,1.835,2.337c1.335-0.168,1.835-0.751,2.337-1.585L175.647,171.263z"
		/>
	<path fill="#A63732" d="M176.148,175.101c-0.583,1.001-1.585,2.584-1.585,4.006c0,1.417-1.419,2.918-1.251,3.586
		c0.166,0.667,2.001,2.419,3.086,4.258c1.084,1.835,2.503,4.587,2.503,9.175s-1.501,10.847-1.669,11.682
		c-0.166,0.834-0.584,1.501,0.667,2.669c1.254,1.169,3.255,3.338,4.004,8.26c0.752,4.921,1.254,7.508,1.586,7.76
		c0.335,0.248,0.249,0.665,0.249,1.583s0.836,6.175,1.42,7.176c0.585,1.004,0.502-5.673,0.418-7.592s0.084-11.096,0.417-12.432
		c0.334-1.335,0.666-2.836-0.501-4.503c-1.168-1.669-3.171-4.592-1.668-9.43c1.502-4.841,3.92-4.755,3.171-6.676
		c-0.752-1.917-2.089-3.253-3.089-4.338c-1.001-1.085-0.203-3.666-0.252-4.756c-0.081-2.003-1.667-2.334-1.833-4.589
		c-0.165-2.253-0.333-4.088,1.336-6.341c1.667-2.251-0.586-2.167-1.336-3.586c-0.751-1.418-1.155-3.315-0.499-6.257
		c0.334-1.503,0.166-1.919-0.252-2.087c-0.418-0.166-2.169-0.5-2.169-0.5l-2.587,5.174c0.418,1.001,0.584,2.502,0.584,3.502"/>
	<path fill="none" stroke="#A63732" stroke-width="0.3058" d="M176.148,175.101c-0.583,1.001-1.585,2.584-1.585,4.006
		c0,1.417-1.419,2.918-1.251,3.586c0.166,0.667,2.001,2.419,3.086,4.258c1.084,1.835,2.503,4.587,2.503,9.175
		s-1.501,10.847-1.669,11.682c-0.166,0.834-0.584,1.501,0.667,2.669c1.254,1.169,3.255,3.338,4.004,8.26
		c0.752,4.921,1.254,7.508,1.586,7.76c0.335,0.248,0.249,0.665,0.249,1.583s0.836,6.175,1.42,7.176
		c0.585,1.004,0.502-5.673,0.418-7.592s0.084-11.096,0.417-12.432c0.334-1.335,0.666-2.836-0.501-4.503
		c-1.168-1.669-3.171-4.592-1.668-9.43c1.502-4.841,3.92-4.755,3.171-6.676c-0.752-1.917-2.089-3.253-3.089-4.338
		c-1.001-1.085-0.203-3.666-0.252-4.756c-0.081-2.003-1.667-2.334-1.833-4.589c-0.165-2.253-0.333-4.088,1.336-6.341
		c1.667-2.251-0.586-2.167-1.336-3.586c-0.751-1.418-1.155-3.315-0.499-6.257c0.334-1.503,0.166-1.919-0.252-2.087
		c-0.418-0.166-2.169-0.5-2.169-0.5l-2.587,5.174c0.418,1.001,0.584,2.502,0.584,3.502L176.148,175.101z"/>
	<path fill="#FFFFFF" d="M152.037,73.564c-2.056,2.741-5.255,9.677-6.758,14.018c-1.503,4.338-4.924,14.683-2.503,21.526
		c2.421,6.84,7.172,2.5,8.258-0.084c1.085-2.588,2.753-7.009,3.252-8.177c0.504-1.169,0.754-1.837,1.671,0.917
		c0.918,2.752,2.253,9.344,2.253,9.928c0,0.585-0.917,2.253-1.917,4.839c-1.003,2.587-1.589,4.422-0.585,6.007
		c0.999,1.587,4.923,8.344,6.174,11.262c0.752,1.754,1.418,2.087,3.421,1.588c2.003-0.5,6.84-2.171,8.26-2.837
		c1.417-0.668,0.749-1.837,0.331-3.254c-0.632-2.157-3.168-14.185-3.168-15.768c0-1.585,0.426-3.664-1.669-1.335
		c-0.75,0.833-1.751,0-1.501-1.167c0.249-1.169,2.752-17.438,2.92-19.441c-1.419-3.088-5.589-12.848-6.758-14.601
		c-1.168-1.751-1.586-1.835-3.339-0.917c-1.751,0.917-5.665,2.325-7.092-1.001c-0.25-0.584-0.668-1.919,0.336-2.085l-0.75-0.252
		C152.873,72.729,152.287,73.23,152.037,73.564"/>
	<path fill="#FFFFFF" d="M173.894,133.551c-1.554,0.89-6.838,3.17-9.007,3.506c-2.229,0.34-1.671,0.917-1.253,2.584
		c0.417,1.668,1.669,6.677,2.336,8.426c0.668,1.753,1.586,1.724,3.339,1.671c2.668-0.086,7.174-1.253,10.426-4.255
		c-0.917-1.086-2.523-6.284-3.002-8.512C176.23,134.636,176.23,132.217,173.894,133.551"/>
	<path fill="#FFFFFF" d="M126.089,85.41c-0.167,0.337-0.749,1.336-2.086,1.336c-1.333,0-2.419-0.417-3.252,0.751
		c-0.835,1.167-5.423,6.759-6.424,10.179c1.001,2.085,2.336,5.839,3.336,8.51c3.254-2.753,13.64-12.891,15.602-14.85
		c0.751-0.752,0.835-1.419-0.248-2.169c-1.085-0.752-5.091-3.254-5.759-3.672C126.589,85.079,126.257,85.079,126.089,85.41"/>
	<path fill="#FFFFFF" d="M99.808,100.095c-0.643,2.573-1.919,7.091-4.006,10.597c0.836,1.333,1.503,2.503,2.503,2.918
		c2.336-1.667,6.76-5.757,8.01-7.259c1.251-1.501,2.836-3.752,2.836-4.253c0-0.502-0.583-0.668-1.333-0.502
		c-0.751,0.168-3.842-1.067-6.842-1.667C100.142,99.761,99.892,99.761,99.808,100.095"/>
	<path fill="#FFFFFF" d="M97.973,97.592c-0.916-0.182-4.088-3.588-5.173-5.423c-1.083-1.835-1.251-1.669-1.669-0.332
		c-0.416,1.333-2.001,4.254-3.086,5.671c-1.083,1.419-3.921,5.091-4.672,5.925s0,1.167,0.667,1.833
		c0.668,0.669,4.089,4.84,4.84,5.76c0.75,0.917,1.583,2.584,3.586,0.75s4.423-5.171,5.507-8.594c1.085-3.42,1.167-5.213,2.085-5.005
		l0.042-0.71l-0.25-0.416l-0.501-0.418c0.126,0.292,0.126,0.542-0.082,0.875C99.059,97.844,98.389,97.676,97.973,97.592"/>
	<path fill="#FFFFFF" d="M149.031,20.836c-2.245,2.657-6.755,5.005-14.349,6.924c-7.592,1.919-14.852,7.258-17.938,9.846
		c-3.086,2.584-10.867,8.956-14.599,10.51c-1.001,0.418-3.13,1.831-0.418,2.169c2.001,0.252,3.42-0.916,7.76-4.088
		c4.338-3.17,7.704-5.458,11.013-8.675c3.086-3.005,8.675-5.84,14.682-7.509c6.009-1.669,13.897-4.293,16.188-6.758
		c1.085-1.167,1.167-1.753,0.164-2.754C150.534,19.501,149.948,19.751,149.031,20.836"/>
	<path fill="#FFFFFF" d="M110.739,47.075c-0.656,0.358-0.917,0.75-1.672,3.17c-0.75,2.418-0.666,3.836-0.04,4.421
		c0.454,0.422,1.124,0.458,1.46,0.458c0.251,0,0.5,0.086,0.458-0.625c-0.041-0.71-0.09-3.734,2.17-5.089
		c0.416-0.25-0.057-1.999-1.543-1.751C111.071,47.741,111.573,46.617,110.739,47.075"/>
	<path fill="#FFFFFF" d="M84.957,56.626c1.167,0,1.92,0,1.836,1.336c-0.082,1.335-0.668,3.17-0.75,4.422
		c-0.087,1.251-0.087,1.753,0.668,1.753c0.75,0-1.086,0.75-2.088,0.917c-1.001,0.166-2.543,0.742-3.338-3.504
		c-0.25-1.335-0.166-3.42-0.332-3.922C82.037,57.129,83.53,56.626,84.957,56.626"/>
	<path fill="#FFFFFF" d="M107.135,60.191c0.306,1.683,0.765,1.651,0.432,1.901c-0.332,0.25-0.684-0.636-2.043-0.419
		c-1.293,0.211-11.806,1.84-12.558,1.922c-2.334,0.248-2.46-0.125-0.292-0.585c2.168-0.458,10.106-1.903,12.473-2.379"/>
	<path fill="#FFFFFF" d="M94.469,187.781c1.083,0.668,3.67,1.418,8.094-0.414c4.419-1.839,9.344-0.585,10.093,2.585
		c0.752,3.171,0.781,7.255-0.583,9.012c-1.167,1.499-2.251,1.335-3.589,0.917c-2.417-0.757-8.008-3.338-9.593-4.088
		c-1.585-0.753-4.255-1.585-6.175-1.585c-0.75-1.589-0.667-4.342-0.166-5.341c0.5-1,0.5-2.003,0.917-1.753
		C93.885,187.367,94.469,187.781,94.469,187.781"/>
	<path fill="#FFFFFF" d="M111.991,202.548c1.083,0,3.048,0.455,3.67,2.421c0.5,1.585,3.754,2.003,5.171,1.921
		c1.419-0.086,1.169,0.663,1.085,1.501c-0.084,0.833-0.334,3.336-0.334,4.338c0,1.001,0.25,4.505,0.418,5.171
		c0.166,0.67-0.418,1.002-1.169,1.335c-0.75,0.336-3.504,1.17-5.255-0.082c-0.923-0.661-2.003-1.585-0.917-1.669
		c1.083-0.084-1.333-9.513-2.003-11.18C111.991,204.633,110.069,202.548,111.991,202.548"/>
	<path fill="#FFFFFF" d="M83.288,182.858c0.45,0.15,0.667,0.585,1.001,1.169c0.334,0.582,0.448,1.088-0.084,1.669
		c-0.917,1-2.003,5.587-1.835,8.844c-0.584-0.168-1.835-0.418-2.503-0.25c-0.25-1.835-0.084-7.594,0.75-9.429
		C81.453,183.026,82.287,182.526,83.288,182.858"/>
	<path fill="#FFFFFF" d="M83.454,233.753c2.079,2.337,6.008,5.925,8.928,7.175c2.92,1.253,4.839,1.667,7.426,1.417
		c2.091-0.201,1.669,0.667,0,0.917c-1.669,0.25-5.505,0.25-8.008-1.081c-2.504-1.335-6.477-3.803-9.012-7.428
		C82.203,233.919,82.788,233.002,83.454,233.753"/>
	<path fill="#FFFFFF" d="M126.923,227.912c-1.7,0.771-4.837,2.337-7.842,3.087c0.334,1.503,0.418,2.168,0.418,2.586
		c1.835,0,5.371-1.28,8.258-3.086c0.669-0.418,0.919-0.918,0.669-1.503C128.174,228.414,127.841,227.496,126.923,227.912"/>
	<path fill="#FFFFFF" d="M107.15,221.07c-0.418-0.416,1.961-0.918,2.46-0.918c0.584,0.375,1.648,1.315,2.044,1.71
		c0.252,0.25,0.128,0.418-0.124,0.586c-0.253,0.168-1.709,0.541-2.38,0.582C108.402,222.362,107.358,221.28,107.15,221.07"/>
	<path fill="#FFFFFF" d="M111.573,186.362c-0.668-0.5-0.587-0.75-0.25-1.251c0.332-0.502,0.667-0.834,1-1.002
		c0.333-0.166,0.835-0.25,1.419,0.586c0.584,0.833,3.754,6.093,4.422,7.51s1.501,0.5,1.167-0.336
		c-0.334-0.831-1.001-2.253-1.251-2.67c0.917-2.837,1.835-7.175,1.835-10.011c0-2.837-0.667-5.674-1.167-6.675
		c2.253,0.084,7.174,0,9.094-0.584c1.919-0.583,0.333-0.751-0.416-0.667c-0.752,0.084-6.146,0.066-10.097-0.418
		c-6.841-0.834-13.558-4.684-15.685-7.343c-0.333-0.415-2.336-0.249-0.667,1.086s5.927,5.321,12.183,6.425
		c1.417,0.25,3.67,0.665,4.004,5.839c0.334,5.173-0.168,8.511-0.168,9.011s-0.332,0.67-0.75,0.082
		c-0.418-0.582-1.835-2.501-2.587-2.918c-0.75-0.416-1.251-0.334-1.919,0.168c-0.667,0.499-1.67,1.501-2.086,2.001"/>
	<path fill="#FFFFFF" d="M98.139,202.675c-0.624,0-4.38,0.291-5.173,0c-0.792-0.291-1.306-1.205-0.75-1.585
		c0.667-0.459,1.961,0.127,3.252,0.127c1.293,0,2.67-0.336,3.004-0.127c0.333,0.208,0.793,0.127,0.793,1.708"/>
	<path fill="#FFFFFF" d="M89.046,225.575c-1.085-0.665-2.341-3.758-2.586-9.927c-0.085-2.087,0.751-5.591,1.419-7.258
		c0.666-1.669-0.417-1.006-0.667-0.418c-0.25,0.584-1.086,2.921-1.336,4.672c-0.25,1.753-0.667,4.34,0,8.094
		c0.669,3.754,1.002,4.921,1.168,5.589"/>
	<path fill="#BA9653" d="M123.211,20.668c0.156-0.406,0.292-0.85,0.463-1.209c-0.614,0.322-1.195,0.635-1.749,0.942
		C122.293,20.922,122.797,21.744,123.211,20.668"/>
	<path fill="none" stroke="#BA9653" stroke-width="0.3058" d="M123.211,20.668c0.156-0.406,0.292-0.85,0.463-1.209
		c-0.614,0.322-1.195,0.635-1.749,0.942C122.293,20.922,122.797,21.744,123.211,20.668z"/>
	<path fill="#BA9653" d="M138.271,21.502c-0.25-0.875-1.044,0.501-2.087,1.753c-1.042,1.251-2.543,0.501-2.711-0.126
		c-0.168-0.625-0.457-1.333-1.377-2.544c-0.917-1.209,0.877-2.876,1.627-3.086c0.753-0.208,1.71-0.376,1.962-0.584
		c0.211-0.173-0.166-1.405-0.367-2.355c-3.001,0.854-6.661,2.42-9.888,4.013c0.983,0.375,0.69,2.286,0.575,2.554
		c-0.126,0.294-0.458,1.961,0.291,0.961c0.75-1.001,1.045-1.377,1.835-1.627c0.795-0.252,1.672-0.21,1.713,0.959
		c0.041,1.167-0.5,1.083-0.668,1.835c-0.166,0.751,0,0.709,0.377,0.875c0.375,0.166,0.624,0.667,0.332,1.461
		c-0.291,0.792-1.543,0.875-2.671,0.75c-1.125-0.124-1.25,0.042-0.875,0.417c0.307,0.307,0.715,0.972,0.859,1.669
		c2.72-1.313,6.001-2.413,11.088-3.457C138.425,24.01,138.478,22.229,138.271,21.502"/>
	<path fill="none" stroke="#BA9653" stroke-width="0.3058" d="M138.271,21.502c-0.25-0.875-1.044,0.501-2.087,1.753
		c-1.042,1.251-2.543,0.501-2.711-0.126c-0.168-0.625-0.457-1.333-1.377-2.544c-0.917-1.209,0.877-2.876,1.627-3.086
		c0.753-0.208,1.71-0.376,1.962-0.584c0.211-0.173-0.166-1.405-0.367-2.355c-3.001,0.854-6.661,2.42-9.888,4.013
		c0.983,0.375,0.69,2.286,0.575,2.554c-0.126,0.294-0.458,1.961,0.291,0.961c0.75-1.001,1.045-1.377,1.835-1.627
		c0.795-0.252,1.672-0.21,1.713,0.959c0.041,1.167-0.5,1.083-0.668,1.835c-0.166,0.751,0,0.709,0.377,0.875
		c0.375,0.166,0.624,0.667,0.332,1.461c-0.291,0.792-1.543,0.875-2.671,0.75c-1.125-0.124-1.25,0.042-0.875,0.417
		c0.307,0.307,0.715,0.972,0.859,1.669c2.72-1.313,6.001-2.413,11.088-3.457C138.425,24.01,138.478,22.229,138.271,21.502z"/>
	<path fill="#BA9653" d="M111.907,37.98c-0.375-0.75-0.919-0.875-1.125-0.292c-0.209,0.584-0.627,2.545-1.92,3.086
		c-0.416,0.176-0.745,0.28-0.979,0.348c0.446,0.484,0.946,0.917,1.522,1.324c1.021-1.08,1.975-2.063,2.892-2.976
		C112.26,39.001,112.165,38.498,111.907,37.98"/>
	<path fill="none" stroke="#BA9653" stroke-width="0.3058" d="M111.907,37.98c-0.375-0.75-0.919-0.875-1.125-0.292
		c-0.209,0.584-0.627,2.545-1.92,3.086c-0.416,0.176-0.745,0.28-0.979,0.348c0.446,0.484,0.946,0.917,1.522,1.324
		c1.021-1.08,1.975-2.063,2.892-2.976C112.26,39.001,112.165,38.498,111.907,37.98z"/>
	<path fill="#BA9653" d="M124.378,28.01c-0.458-0.168-0.834,0.542-1.125,1.042c-0.292,0.502-0.917,1.337-2.003,1.211
		c-1.083-0.126-1.335-0.502-1.625-1.419c-0.293-0.917-0.961-1.209-1.753-1.209c-0.793,0-1.335-0.959-0.501-1.959
		c0.835-1.001,1.671-0.544,2.336-0.544c0.668,0,1.001-0.709,0.46-1.085c-0.432-0.297-1.19-1.151-1.322-1.805
		c-2.378,1.564-5.789,3.986-8.767,6.668c0.542,0.046,1.166,0.224,1.454,0.352c0.375,0.166,1.041,0.667,0.959,1.419
		c-0.084,0.75,0.166,0.917,0.625,0.416c0.458-0.5-0.084-2.001,1.459-2.586c1.543-0.584,1.753,0.585,1.669,1.375
		c-0.084,0.796,0,1.545,0.793,1.879c0.792,0.334,1.709,1.628-0.044,2.38c-1.751,0.75-2.71,0.916-3.42,1.125
		c-0.708,0.208-0.542,0.917,0.042,1.375c0.355,0.279,0.611,0.553,0.819,0.761c2.207-2.047,4.29-3.723,6.649-5.308
		c1.288-0.865,2.468-1.648,3.692-2.368C124.976,28.98,125.047,28.252,124.378,28.01"/>
	<path fill="none" stroke="#BA9653" stroke-width="0.3058" d="M124.378,28.01c-0.458-0.168-0.834,0.542-1.125,1.042
		c-0.292,0.502-0.917,1.337-2.003,1.211c-1.083-0.126-1.335-0.502-1.625-1.419c-0.293-0.917-0.961-1.209-1.753-1.209
		c-0.793,0-1.335-0.959-0.501-1.959c0.835-1.001,1.671-0.544,2.336-0.544c0.668,0,1.001-0.709,0.46-1.085
		c-0.432-0.297-1.19-1.151-1.322-1.805c-2.378,1.564-5.789,3.986-8.767,6.668c0.542,0.046,1.166,0.224,1.454,0.352
		c0.375,0.166,1.041,0.667,0.959,1.419c-0.084,0.75,0.166,0.917,0.625,0.416c0.458-0.5-0.084-2.001,1.459-2.586
		c1.543-0.584,1.753,0.585,1.669,1.375c-0.084,0.796,0,1.545,0.793,1.879c0.792,0.334,1.709,1.628-0.044,2.38
		c-1.751,0.75-2.71,0.916-3.42,1.125c-0.708,0.208-0.542,0.917,0.042,1.375c0.355,0.279,0.611,0.553,0.819,0.761
		c2.207-2.047,4.29-3.723,6.649-5.308c1.288-0.865,2.468-1.648,3.692-2.368C124.976,28.98,125.047,28.252,124.378,28.01z"/>
	<path fill="#BA9653" d="M108.026,35.811c0.042-0.833-0.583-1.126-1.001-1.251c-0.306-0.093-0.877-0.685-1.129-1.194
		c-0.412,0.555-0.782,1.108-1.082,1.652c0.185,0.563,0.364,1.082,0.544,1.57C106.403,36.565,107.991,36.51,108.026,35.811"/>
	<path fill="none" stroke="#BA9653" stroke-width="0.3058" d="M108.026,35.811c0.042-0.833-0.583-1.126-1.001-1.251
		c-0.306-0.093-0.877-0.685-1.129-1.194c-0.412,0.555-0.782,1.108-1.082,1.652c0.185,0.563,0.364,1.082,0.544,1.57
		C106.403,36.565,107.991,36.51,108.026,35.811z"/>
	<path fill="#BA9653" d="M143.276,74.731c-2.729-0.174-5.981,0.382-9.09,1.578c0.543,0.324,1.121,1.062,2.247,0.675
		c1.587-0.542,2.13,1.127,1.379,1.585c-0.752,0.46-1.002,1.627,0.415,0.752c1.42-0.876,2.671,0.375,2.087,1.291
		c-0.583,0.92-1.335,0.21-1.169,1.504c0.168,1.292-0.125,2.46-1.292,2.668c-1.17,0.21-1.42-1.544-1.96-1.417
		c-0.543,0.125,0.122,3.086-0.127,3.128c-0.814,0.136-1.594,0.844-2.013,1.269c0.031,0.022,0.063,0.042,0.094,0.066
		c4.595,3.296,5.759,1.501,6.426-0.084c0.668-1.585,2.147-6.283,2.585-8.76C143.108,77.568,143.444,76.067,143.276,74.731"/>
	<path fill="none" stroke="#BA9653" stroke-width="0.3058" d="M143.276,74.731c-2.729-0.174-5.981,0.382-9.09,1.578
		c0.543,0.324,1.121,1.062,2.247,0.675c1.587-0.542,2.13,1.127,1.379,1.585c-0.752,0.46-1.002,1.627,0.415,0.752
		c1.42-0.876,2.671,0.375,2.087,1.291c-0.583,0.92-1.335,0.21-1.169,1.504c0.168,1.292-0.125,2.46-1.292,2.668
		c-1.17,0.21-1.42-1.544-1.96-1.417c-0.543,0.125,0.122,3.086-0.127,3.128c-0.814,0.136-1.594,0.844-2.013,1.269
		c0.031,0.022,0.063,0.042,0.094,0.066c4.595,3.296,5.759,1.501,6.426-0.084c0.668-1.585,2.147-6.283,2.585-8.76
		C143.108,77.568,143.444,76.067,143.276,74.731z"/>
	<path fill="#BA9653" d="M133.307,83.825c0.25-0.623-0.416-1.167-1.127-0.709c-0.71,0.459-1.753,1.127-2.463-0.082
		c-0.707-1.211,0.794-1.335,0.878-1.919c0.082-0.584-0.5-0.668-0.211-1.627c0.293-0.959,1.328-0.673,2.089-0.166
		c0.875,0.583,0.619-0.8,0.5-1.335c-0.09-0.408-0.16-0.815-0.078-1.135c-0.906,0.408-1.788,0.868-2.634,1.385
		c-4.285,2.623-4.423,4.839-3.422,5.673c0.896,0.748,2.729,1.098,5.853,3.131C132.725,85.958,133.113,84.309,133.307,83.825"/>
	<path fill="none" stroke="#BA9653" stroke-width="0.3058" d="M133.307,83.825c0.25-0.623-0.416-1.167-1.127-0.709
		c-0.71,0.459-1.753,1.127-2.463-0.082c-0.707-1.211,0.794-1.335,0.878-1.919c0.082-0.584-0.5-0.668-0.211-1.627
		c0.293-0.959,1.328-0.673,2.089-0.166c0.875,0.583,0.619-0.8,0.5-1.335c-0.09-0.408-0.16-0.815-0.078-1.135
		c-0.906,0.408-1.788,0.868-2.634,1.385c-4.285,2.623-4.423,4.839-3.422,5.673c0.896,0.748,2.729,1.098,5.853,3.131
		C132.725,85.958,133.113,84.309,133.307,83.825z"/>
	<path fill="#BA9653" d="M119.665,81.322c-1.773-0.886-3.504-2.837-4.671-5.087c0,0,0.082-0.334-0.418-0.334
		c-0.5,0-2.336-0.168-5.424-1.253c-3.086-1.083-3.502-0.416-3.92,0.917c-0.418,1.337-0.751,3.756-0.835,7.76
		c-0.082,4.005,1.669,6.509,2.754,6.091c0.528-0.204,1.892-0.883,3.351-1.594c0.021-0.795,0.067-2.175,0.154-2.828
		c0.126-0.959-0.876-0.587-1.294-0.084c-0.418,0.5-1.209,1.335-1.961,1.209c-0.752-0.126-1.251-1.459-1.125-2.711
		c0.124-1.251-1.335-1.753-0.418-3.42c0.917-1.669,1.667,0.416,2.461,0.25c0.793-0.168,0.375-0.584,0-1.877
		c-0.376-1.293,1.178-1.677,2.17-0.752c0.625,0.584,0.917-0.708,1.835-0.542c0.919,0.166,1.459,0.793,0.919,1.709
		c-0.42,0.709-0.709,2.379,0.084,1.503c0.79-0.877,1.583-1.419,2.334-0.836c0.752,0.584,0.25,1.795,0.042,2.42
		c-0.208,0.626,1.335,1.376,0.25,2.129c-1.083,0.751-2.295-0.542-2.92-0.376c-0.625,0.168-0.75,0.917,0.084,1.501
		c0.543,0.381,1.117,0.679,1.534,0.849c1.736-0.591,3.773-1.731,4.431-2.144l1.085,0.084
		C120.25,82.491,120.167,81.572,119.665,81.322"/>
	<path fill="none" stroke="#BA9653" stroke-width="0.3058" d="M119.665,81.322c-1.773-0.886-3.504-2.837-4.671-5.087
		c0,0,0.082-0.334-0.418-0.334c-0.5,0-2.336-0.168-5.424-1.253c-3.086-1.083-3.502-0.416-3.92,0.917
		c-0.418,1.337-0.751,3.756-0.835,7.76c-0.082,4.005,1.669,6.509,2.754,6.091c0.528-0.204,1.892-0.883,3.351-1.594
		c0.021-0.795,0.067-2.175,0.154-2.828c0.126-0.959-0.876-0.587-1.294-0.084c-0.418,0.5-1.209,1.335-1.961,1.209
		c-0.752-0.126-1.251-1.459-1.125-2.711c0.124-1.251-1.335-1.753-0.418-3.42c0.917-1.669,1.667,0.416,2.461,0.25
		c0.793-0.168,0.375-0.584,0-1.877c-0.376-1.293,1.178-1.677,2.17-0.752c0.625,0.584,0.917-0.708,1.835-0.542
		c0.919,0.166,1.459,0.793,0.919,1.709c-0.42,0.709-0.709,2.379,0.084,1.503c0.79-0.877,1.583-1.419,2.334-0.836
		c0.752,0.584,0.25,1.795,0.042,2.42c-0.208,0.626,1.335,1.376,0.25,2.129c-1.083,0.751-2.295-0.542-2.92-0.376
		c-0.625,0.168-0.75,0.917,0.084,1.501c0.543,0.381,1.117,0.679,1.534,0.849c1.736-0.591,3.773-1.731,4.431-2.144l1.085,0.084
		C120.25,82.491,120.167,81.572,119.665,81.322z"/>
	<path fill="#BA9653" d="M113.492,99.677c-0.668-1.501-0.9-0.348-2.753,2.587c-0.94,1.485-3.307,4.234-6.267,7.345
		c2.051,0.414,6.475,1.503,3.846,3.67c-2.836,2.335-1.585,2.167-0.334,2.001c1.251-0.167,3.339,0.584,1.754,3.42
		c-1.586,2.838-2.671,4.839-4.172,5.757c-1.503,0.917-3.672,0.835-4.172-1.335c-0.502-2.169-1.919,0-2.003,1.419
		c-0.084,1.417-0.25,3.838-0.084,4.672l-3.168-0.168c-0.084-1.334-0.084-4.004,0.166-5.255c0.252-1.251,0.166-2.752-1.751-2.169
		c-1.255,0.382-2.113,0.058-2.562-0.194c-3.726,3.315-5.61,5.608-6.876,7.63c0.958,0.847,2.478,1.485,4.099,0.823
		c1.833-0.751,4.837,0.168,3.002,3.005c-1.835,2.834-1.753,4.254,0.084,2.503c1.835-1.754,4.784-4.764,5.673-1.588
		c0.584,2.087-1.335,2.757-1.251,4.424c0.082,1.667,1.751,3.339-0.583,5.341c-2.337,1.999-3.338-1.421-4.923-0.917
		c-0.958,0.301-1.15,1.179-1.096,1.962c2.075,2.938,5.1,7.092,6.186,8.881c1.669,2.756,1.669,6.092,2.337,5.593
		c0.666-0.502,2.25-2.005,2.752-2.423c0.5-0.414,1.001-0.918,0.751-1.835c-0.252-0.918-1.209-5.837-0.917-9.262
		c0.332-3.92,2.169-8.216,3.504-10.676c1.282-2.366,5.172-9.931,6.09-11.934c0.917-2.001,2.587-4.336,3.004-6.173
		c0.416-1.835,2.001-6.089,2.669-8.092C116.329,107.02,115.253,103.643,113.492,99.677"/>
	<path fill="none" stroke="#BA9653" stroke-width="0.3058" d="M113.492,99.677c-0.668-1.501-0.9-0.348-2.753,2.587
		c-0.94,1.485-3.307,4.234-6.267,7.345c2.051,0.414,6.475,1.503,3.846,3.67c-2.836,2.335-1.585,2.167-0.334,2.001
		c1.251-0.167,3.339,0.584,1.754,3.42c-1.586,2.838-2.671,4.839-4.172,5.757c-1.503,0.917-3.672,0.835-4.172-1.335
		c-0.502-2.169-1.919,0-2.003,1.419c-0.084,1.417-0.25,3.838-0.084,4.672l-3.168-0.168c-0.084-1.334-0.084-4.004,0.166-5.255
		c0.252-1.251,0.166-2.752-1.751-2.169c-1.255,0.382-2.113,0.058-2.562-0.194c-3.726,3.315-5.61,5.608-6.876,7.63
		c0.958,0.847,2.478,1.485,4.099,0.823c1.833-0.751,4.837,0.168,3.002,3.005c-1.835,2.834-1.753,4.254,0.084,2.503
		c1.835-1.754,4.784-4.764,5.673-1.588c0.584,2.087-1.335,2.757-1.251,4.424c0.082,1.667,1.751,3.339-0.583,5.341
		c-2.337,1.999-3.338-1.421-4.923-0.917c-0.958,0.301-1.15,1.179-1.096,1.962c2.075,2.938,5.1,7.092,6.186,8.881
		c1.669,2.756,1.669,6.092,2.337,5.593c0.666-0.502,2.25-2.005,2.752-2.423c0.5-0.414,1.001-0.918,0.751-1.835
		c-0.252-0.918-1.209-5.837-0.917-9.262c0.332-3.92,2.169-8.216,3.504-10.676c1.282-2.366,5.172-9.931,6.09-11.934
		c0.917-2.001,2.587-4.336,3.004-6.173c0.416-1.835,2.001-6.089,2.669-8.092C116.329,107.02,115.253,103.643,113.492,99.677z"/>
	<path fill="#BA9653" d="M149.867,136.721c-2.167-3.586-2.585-5.006-2.921-8.676c-0.211-2.315-0.021-5.329,0.314-8.221
		c-0.643-0.052-1.513,0.07-1.563,1.045c-0.086,1.585-0.836,3.838-1.336,5.007c-0.499,1.167-2.171,1.083-3.17,1.167
		c-1.004,0.084-1.004-0.586-0.336-2.087c0.668-1.501,0.922-2.169,0.754-3.502c-0.168-1.335-0.836-0.168-1.422,1
		c-0.581,1.169-2.252,3.504-4.172,3.254c-1.917-0.25-1.417-3.17-1.251-4.17c0.168-1.003-0.416-1.169-1.167-1.335
		c-0.75-0.167-2.253-0.501-1.418-2.92c0.836-2.42,1.752-2.17,2.919-1.753c1.167,0.418,1.335-0.332,0.252-0.75
		c-1.086-0.418-2.253-1.335-2.169-2.503c0.219-3.09,2.169-2.836,3.67-2.504c1.306,0.289,2.96-0.494,4.072-1.691
		c-0.021-0.076-0.049-0.152-0.068-0.228c-2.226-8.496,2.003-18.939,3.17-21.859c1.172-2.919,5.674-11.137,7.218-13.598
		c-0.834-0.418-3.044-1.543-4.254-2.171c-1.21-0.624-1.878-0.917-2.21-0.458c-0.336,0.458-0.754,0.708-1.335,1.543
		c-1.172,1.673-0.168,1.417,0.168,1.417c0.331,0,1.749,1.837,1.999,2.255c0.254,0.416,0,0.75-0.582,2.085
		c-0.766,1.745-1.253,5.757-1.921,8.177c-2.021,7.325-5.173,6.592-6.591,5.673c-1.419-0.917-1.835,0.5-3.254,2.502
		c-0.338,0.478-1.189,1.387-2.31,2.515c1.354,0.61,3.197,2.357,0.977,4.078c-2.587,2.001-3.089,3.084-1.836,2.834
		c1.25-0.248,2.503-2.169,3.92-0.833c1.418,1.335-0.499,2.836-1.251,3.252c-0.752,0.417-2.253,1.169-1.835,2.755
		c0.416,1.585,0.666,3.754-1.419,4.255c-2.085,0.5-2.921-0.419-3.505-1.503c-0.583-1.083-1.167-0.332-1.417,1.001
		c-0.251,1.335-0.417,2.337-0.417,2.836c0,0.5-1.501-0.25-2.169-0.917s-1.501,1.167-2.253,0.25
		c-0.751-0.917,0.917-3.754,1.501-4.755c0.551-0.944,0.322-2.251-2.995-0.719c-1.074,1.795-1.925,4.404-3.262,8.479
		c-1.835,5.589-5.993,13.204-7.719,15.979c-4.494,7.221-5.297,14.058-4.63,18.313c0.664,4.231,1.251,3.92,2.169,3.92
		s3.17,2.836,4.674,4.587c1.499,1.753,2.086,1.002,2.835,0.418c2.41-1.876,7.258-5.005,14.1-8.262
		c2.917-1.386,6.806-2.863,10.595-4.076c0.059-1.569,0.441-3.469,0.584-4.182c0.168-0.835-0.666-1.085-1.502,0
		c-0.833,1.086-3.084,3.753-4.587,3.089c-1.504-0.668-2.753-2.339-1.919-3.756c0.833-1.417-0.334-1.835-0.918-2.585
		c-0.586-0.754-0.586-3.674,1.252-3.924c1.835-0.25,2.418,1.335,3.67,1.753c1.251,0.418,2.253,0.332,0.667-1.417
		c-1.585-1.755-3.504-1.086-2.502-3.506c1.001-2.419,2.418-2.253,4.088-1.753c1.669,0.501,2.502-0.416,3.588-1.168
		c1.085-0.749,3.252-1.753,4.755,0c1.504,1.753-1.085,3.336-1.667,3.922c-1.128,1.129-1.335,3.255-0.086,2.001
		c1.254-1.251,3.39-5.774,4.842-2.001c0.831,2.169-0.754,3.005-0.5,4.34c0.25,1.335,2.503,3.17,0.664,4.838
		c-1.835,1.671-4.42,0.249-5.506-0.75c-1.085-1-2.252-1.503-1.753,0.336c0.371,1.347,0.557,2.771,0.563,3.646
		c3.646-1.008,6.831-1.622,8.449-1.479c2.38,0.213,4.174,0.917,4.088-1.254C153.205,141.812,152.037,140.309,149.867,136.721
		 M120.25,151.654c-2.003,0.586-2.337-0.331-3.672-0.831c-1.335-0.5-1.419,0.664-0.501,2.085c0.917,1.417,1.921,2.752,0.835,2.752
		s-1.919,0.168-2.087,1c-0.166,0.837-1.917-0.164-2.334-1.917c-0.418-1.753-0.836-5.092-1.751-3.42
		c-0.918,1.667-1.754,4.419-4.091,3.17c-2.334-1.253-0.75-2.921-1.917-4.088c-1.169-1.167-2.252-2.671-1.085-4.756
		c1.167-2.085,2.169-0.335,3.254-0.335c1.083,0,1.251-1,0.25-1.75c-1.001-0.753-2.253-4.341,2.337-4.091
		c1.768,0.097,3.671-0.5,5.172-1.586c1.501-1.081,5.423-0.499,3.838,2.257c-1.585,2.753-1.083,3.335-0.168,2.335
		c0.917-1.003,2.087-2.839,3.838-2.335c1.753,0.5,1.001,1.831-0.082,3.335c-1.085,1.503-0.418,2.502,0.416,3.088
		C123.337,147.149,124.872,150.308,120.25,151.654 M128.76,131.965c-1.503,0.084-3.338-0.334-3.338-0.334
		c-0.168,1.586-1.708,3.856-3.254,6.175c-0.166,0.25-1.083,0.25-1.501-0.082c-0.416-0.335-1.585-0.917-0.667-1.921
		c0.917-1.001,2.421-3.086,2.169-4.004c-0.25-0.917-0.917-1.751-1.917-0.501c-1.003,1.253-2.589,3.838-4.34,3.924
		c-1.751,0.082-3.504-1.506-2.668-3.089c0.833-1.585,1.083-2.419-0.084-3.838s-0.732-3.233,1.751-4.339
		c0.751-0.332,2.085,0,3.004,0.751c0.917,0.751,1.417,0,0.166-0.751c-1.251-0.75-2.253-1.667-2.419-3.336
		c-0.158-1.585,0.834-3.252,3.002-2.337c2.169,0.92,3.504,0.168,4.422-0.583c0.917-0.75,4.83-1.686,4.256,1.753
		c-0.418,2.503-1.585,2.587-1.919,3.92c-0.334,1.335,0.667,0.502,1.251-0.5s1.919-5.099,4.672-2.003
		c0.667,0.751,0.418,2.003-0.416,3.42c-0.834,1.419-0.168,2.253,0.334,3.005C131.763,128.045,132.928,131.734,128.76,131.965"/>
	<path fill="none" stroke="#BA9653" stroke-width="0.3058" d="M128.76,131.965c-1.503,0.084-3.338-0.334-3.338-0.334
		c-0.168,1.586-1.708,3.856-3.254,6.175c-0.166,0.25-1.083,0.25-1.501-0.082c-0.416-0.335-1.585-0.917-0.667-1.921
		c0.917-1.001,2.421-3.086,2.169-4.004c-0.25-0.917-0.917-1.751-1.917-0.501c-1.003,1.253-2.589,3.838-4.34,3.924
		c-1.751,0.082-3.504-1.506-2.668-3.089c0.833-1.585,1.083-2.419-0.084-3.838s-0.732-3.233,1.751-4.339
		c0.751-0.332,2.085,0,3.004,0.751c0.917,0.751,1.417,0,0.166-0.751c-1.251-0.75-2.253-1.667-2.419-3.336
		c-0.158-1.585,0.834-3.252,3.002-2.337c2.169,0.92,3.504,0.168,4.422-0.583c0.917-0.75,4.83-1.686,4.256,1.753
		c-0.418,2.503-1.585,2.587-1.919,3.92c-0.334,1.335,0.667,0.502,1.251-0.5s1.919-5.099,4.672-2.003
		c0.667,0.751,0.418,2.003-0.416,3.42c-0.834,1.419-0.168,2.253,0.334,3.005C131.763,128.045,132.928,131.734,128.76,131.965z"/>
	<path fill="none" stroke="#BA9653" stroke-width="0.3058" d="M120.25,151.654c-2.003,0.586-2.337-0.331-3.672-0.831
		c-1.335-0.5-1.419,0.664-0.501,2.085c0.917,1.417,1.921,2.752,0.835,2.752s-1.919,0.168-2.087,1
		c-0.166,0.837-1.917-0.164-2.334-1.917c-0.418-1.753-0.836-5.092-1.751-3.42c-0.917,1.667-1.754,4.419-4.091,3.17
		c-2.334-1.253-0.75-2.921-1.917-4.088c-1.169-1.167-2.252-2.671-1.085-4.756c1.167-2.085,2.169-0.335,3.254-0.335
		c1.083,0,1.251-1,0.25-1.75c-1.001-0.753-2.253-4.341,2.338-4.091c1.767,0.097,3.67-0.5,5.171-1.586
		c1.501-1.081,5.423-0.499,3.838,2.257c-1.585,2.753-1.083,3.335-0.168,2.335c0.917-1.003,2.087-2.839,3.838-2.335
		c1.753,0.5,1.001,1.831-0.082,3.335c-1.085,1.503-0.418,2.502,0.416,3.088C123.337,147.149,124.872,150.308,120.25,151.654z"/>
	<path fill="none" stroke="#BA9653" stroke-width="0.3058" d="M149.867,136.721c-2.167-3.586-2.585-5.006-2.921-8.676
		c-0.211-2.315-0.021-5.329,0.314-8.221c-0.643-0.052-1.513,0.069-1.563,1.045c-0.086,1.585-0.836,3.838-1.336,5.007
		c-0.499,1.167-2.171,1.083-3.17,1.167c-1.004,0.084-1.004-0.586-0.336-2.087c0.668-1.501,0.922-2.169,0.754-3.502
		c-0.168-1.335-0.836-0.168-1.422,1c-0.581,1.169-2.252,3.504-4.172,3.254c-1.917-0.25-1.417-3.17-1.251-4.17
		c0.168-1.003-0.416-1.169-1.167-1.335c-0.75-0.167-2.253-0.501-1.418-2.92c0.836-2.42,1.752-2.17,2.919-1.753
		c1.167,0.418,1.335-0.332,0.252-0.75c-1.086-0.418-2.253-1.335-2.169-2.503c0.219-3.091,2.169-2.836,3.67-2.504
		c1.306,0.289,2.96-0.494,4.072-1.691c-0.021-0.076-0.049-0.152-0.068-0.229c-2.226-8.496,2.003-18.938,3.17-21.859
		c1.172-2.918,5.674-11.136,7.218-13.597c-0.834-0.418-3.044-1.543-4.254-2.171c-1.21-0.624-1.878-0.917-2.21-0.458
		c-0.336,0.458-0.754,0.708-1.335,1.543c-1.172,1.673-0.168,1.417,0.168,1.417c0.331,0,1.749,1.837,1.999,2.255
		c0.254,0.416,0,0.75-0.582,2.085c-0.766,1.745-1.253,5.757-1.921,8.176c-2.021,7.326-5.173,6.593-6.591,5.674
		c-1.419-0.917-1.835,0.5-3.254,2.502c-0.338,0.478-1.189,1.387-2.31,2.515c1.356,0.61,3.197,2.357,0.977,4.078
		c-2.587,2.001-3.089,3.084-1.836,2.834c1.25-0.248,2.503-2.169,3.92-0.833c1.418,1.335-0.499,2.836-1.251,3.252
		c-0.752,0.417-2.253,1.169-1.835,2.754c0.416,1.586,0.666,3.755-1.419,4.256c-2.085,0.5-2.921-0.419-3.505-1.503
		c-0.583-1.083-1.167-0.332-1.417,1.001c-0.251,1.335-0.417,2.337-0.417,2.836c0,0.5-1.501-0.25-2.169-0.917
		s-1.501,1.167-2.253,0.25c-0.751-0.917,0.917-3.754,1.501-4.755c0.551-0.944,0.322-2.252-2.995-0.719
		c-1.074,1.795-1.925,4.404-3.262,8.479c-1.835,5.589-5.993,13.204-7.719,15.979c-4.494,7.221-5.297,14.058-4.63,18.313
		c0.664,4.231,1.251,3.92,2.169,3.92s3.17,2.834,4.675,4.587c1.499,1.753,2.085,1.002,2.834,0.418
		c2.41-1.876,7.258-5.005,14.1-8.262c2.917-1.386,6.806-2.863,10.595-4.076c0.059-1.569,0.441-3.469,0.584-4.182
		c0.17-0.835-0.666-1.085-1.502,0c-0.833,1.086-3.084,3.753-4.587,3.089c-1.504-0.668-2.753-2.339-1.919-3.756
		c0.833-1.417-0.334-1.835-0.918-2.585c-0.586-0.754-0.586-3.674,1.252-3.924c1.835-0.25,2.418,1.335,3.67,1.753
		c1.251,0.418,2.253,0.332,0.667-1.417c-1.585-1.755-3.504-1.088-2.502-3.506c1.001-2.419,2.418-2.253,4.088-1.753
		c1.671,0.501,2.502-0.416,3.588-1.168c1.085-0.749,3.252-1.753,4.755,0c1.504,1.753-1.085,3.336-1.667,3.922
		c-1.128,1.129-1.335,3.255-0.086,2.001c1.254-1.251,3.39-5.774,4.842-2.001c0.831,2.169-0.754,3.005-0.5,4.34
		c0.25,1.335,2.503,3.17,0.664,4.838c-1.835,1.671-4.42,0.249-5.506-0.75c-1.085-1-2.252-1.503-1.753,0.336
		c0.371,1.347,0.557,2.771,0.563,3.646c3.646-1.008,6.831-1.622,8.449-1.479c2.38,0.213,4.174,0.917,4.088-1.254
		C153.205,141.812,152.037,140.309,149.867,136.721z"/>
	<path fill="#008248" d="M127.214,26.341c1.128,0.126,2.38,0.042,2.671-0.75c0.292-0.794,0.043-1.295-0.332-1.461
		c-0.377-0.166-0.543-0.124-0.377-0.875c0.168-0.751,0.709-0.667,0.668-1.835c-0.041-1.169-0.918-1.211-1.713-0.959
		c-0.79,0.25-1.085,0.625-1.835,1.627c-0.75,1-0.417-0.667-0.291-0.961c0.119-0.272,0.418-2.193-0.606-2.539
		c-0.585,0.29-1.156,0.578-1.704,0.864c-0.184,0.366-0.322,0.795-0.484,1.217c-0.418,1.085-0.925,0.269-1.293-0.25
		c-0.002-0.004-0.006-0.006-0.01-0.008c-1.112,0.615-2.085,1.191-2.827,1.677c-0.08,0.052-0.168,0.11-0.25,0.164
		c0.1,0.66,0.893,1.49,1.335,1.795c0.542,0.376,0.208,1.085-0.46,1.085c-0.666,0-1.501-0.458-2.336,0.544
		c-0.833,1-0.292,1.959,0.501,1.959c0.792,0,1.459,0.292,1.753,1.209c0.29,0.917,0.542,1.293,1.625,1.419
		c1.085,0.126,1.711-0.709,2.003-1.211c0.292-0.5,0.667-1.209,1.125-1.042c0.68,0.248,0.595,0.963,0.387,1.726
		c0.785-0.461,1.583-0.896,2.44-1.31c-0.139-0.709-0.557-1.357-0.867-1.667C125.964,26.383,126.089,26.217,127.214,26.341"/>
	<path fill="none" stroke="#00A55C" stroke-width="0.3058" d="M127.214,26.341c1.128,0.126,2.38,0.042,2.671-0.75
		c0.292-0.794,0.043-1.295-0.332-1.461c-0.377-0.166-0.543-0.124-0.377-0.875c0.168-0.751,0.709-0.667,0.668-1.835
		c-0.041-1.169-0.918-1.211-1.713-0.959c-0.79,0.25-1.085,0.625-1.835,1.627c-0.75,1-0.417-0.667-0.291-0.961
		c0.119-0.272,0.418-2.193-0.606-2.539c-0.585,0.29-1.156,0.578-1.704,0.864c-0.184,0.366-0.322,0.795-0.484,1.217
		c-0.418,1.085-0.925,0.269-1.293-0.25c-0.002-0.004-0.006-0.006-0.01-0.008c-1.112,0.615-2.085,1.191-2.827,1.677
		c-0.08,0.052-0.168,0.11-0.25,0.164c0.1,0.66,0.893,1.49,1.335,1.795c0.542,0.376,0.208,1.085-0.46,1.085
		c-0.666,0-1.501-0.458-2.336,0.544c-0.833,1-0.292,1.959,0.501,1.959c0.792,0,1.459,0.292,1.753,1.209
		c0.29,0.917,0.542,1.293,1.625,1.419c1.085,0.126,1.711-0.709,2.003-1.211c0.292-0.5,0.667-1.209,1.125-1.042
		c0.68,0.248,0.595,0.963,0.387,1.726c0.785-0.461,1.583-0.896,2.44-1.31c-0.139-0.709-0.557-1.357-0.867-1.667
		C125.964,26.383,126.089,26.217,127.214,26.341z"/>
	<path fill="#008248" d="M136.518,14.244c-0.387,0.09-0.79,0.197-1.206,0.315c0.199,0.956,0.586,2.18,0.373,2.355
		c-0.252,0.208-1.209,0.376-1.96,0.584c-0.752,0.21-2.546,1.877-1.629,3.086c0.92,1.211,1.209,1.919,1.379,2.544
		c0.166,0.627,1.667,1.377,2.709,0.126c1.043-1.251,1.837-2.628,2.087-1.753c0.209,0.736,0.154,2.516,0.012,3.472
		c0.215-0.046,0.43-0.09,0.656-0.134C139.356,20.167,138.188,16.83,136.518,14.244"/>
	<path fill="none" stroke="#00A55C" stroke-width="0.3058" d="M136.518,14.244c-0.387,0.09-0.79,0.197-1.206,0.315
		c0.199,0.956,0.586,2.18,0.373,2.355c-0.252,0.208-1.209,0.376-1.96,0.584c-0.752,0.21-2.546,1.877-1.629,3.086
		c0.92,1.211,1.209,1.919,1.379,2.544c0.166,0.627,1.667,1.377,2.709,0.126c1.043-1.251,1.837-2.628,2.087-1.753
		c0.209,0.736,0.154,2.516,0.012,3.472c0.215-0.046,0.43-0.09,0.656-0.134C139.356,20.167,138.188,16.83,136.518,14.244z"/>
	<path fill="#008248" d="M113.616,36.645c-0.583-0.458-0.75-1.167-0.042-1.376c0.71-0.209,1.669-0.375,3.42-1.125
		c1.753-0.751,0.835-2.046,0.044-2.38c-0.793-0.333-0.877-1.083-0.793-1.879c0.084-0.79-0.126-1.959-1.669-1.375
		c-1.543,0.585-1.001,2.087-1.459,2.586c-0.46,0.502-0.709,0.334-0.625-0.416c0.082-0.752-0.584-1.253-0.96-1.419
		c-0.291-0.13-0.936-0.283-1.481-0.326c-1.597,1.44-3.058,2.951-4.164,4.444c0.248,0.512,0.832,1.087,1.139,1.18
		c0.418,0.125,1.043,0.417,1.001,1.251c-0.035,0.705-1.625,0.756-2.668,0.779c0.738,1.993,1.485,3.408,2.531,4.54
		c0.236-0.067,0.546-0.176,0.973-0.355c1.292-0.542,1.71-2.502,1.919-3.086c0.207-0.583,0.75-0.458,1.126,0.292
		c0.264,0.527,0.357,1.011,0.394,1.485c0.738-0.735,1.451-1.423,2.151-2.072C114.242,37.18,113.981,36.932,113.616,36.645"/>
	<path fill="none" stroke="#00A55C" stroke-width="0.3058" d="M113.616,36.645c-0.583-0.458-0.75-1.167-0.042-1.376
		c0.71-0.209,1.669-0.375,3.42-1.125c1.753-0.751,0.835-2.046,0.044-2.38c-0.793-0.333-0.877-1.083-0.793-1.879
		c0.084-0.79-0.126-1.959-1.669-1.375c-1.543,0.585-1.001,2.087-1.459,2.586c-0.46,0.502-0.709,0.334-0.625-0.416
		c0.082-0.752-0.584-1.253-0.96-1.419c-0.291-0.13-0.936-0.283-1.481-0.326c-1.597,1.44-3.058,2.951-4.164,4.444
		c0.248,0.512,0.832,1.087,1.139,1.18c0.418,0.125,1.043,0.417,1.001,1.251c-0.035,0.705-1.625,0.756-2.668,0.779
		c0.738,1.993,1.485,3.408,2.531,4.54c0.236-0.067,0.546-0.176,0.973-0.355c1.292-0.542,1.71-2.502,1.919-3.086
		c0.207-0.583,0.75-0.458,1.126,0.292c0.264,0.527,0.357,1.011,0.394,1.485c0.738-0.735,1.451-1.423,2.151-2.072
		C114.242,37.18,113.981,36.932,113.616,36.645z"/>
	<path fill="#008248" d="M135.767,86.495c0.249-0.041-0.416-3.002,0.127-3.127c0.54-0.127,0.79,1.626,1.96,1.417
		c1.167-0.209,1.46-1.376,1.292-2.669c-0.166-1.293,0.586-0.584,1.169-1.503c0.584-0.916-0.667-2.167-2.087-1.291
		c-1.417,0.875-1.167-0.292-0.415-0.752c0.751-0.458,0.206-2.127-1.379-1.585c-1.146,0.395-1.724-0.35-2.276-0.664
		c-0.421,0.164-0.843,0.339-1.259,0.528c-0.094,0.324-0.02,0.717,0.074,1.137c0.119,0.536,0.375,1.919-0.5,1.335
		c-0.761-0.508-1.796-0.794-2.089,0.166c-0.289,0.959,0.293,1.043,0.211,1.627c-0.084,0.583-1.585,0.708-0.878,1.919
		c0.71,1.209,1.753,0.542,2.463,0.082c0.711-0.458,1.375,0.087,1.125,0.709c-0.195,0.488-0.59,2.132-0.619,3.213
		c0.336,0.22,0.686,0.455,1.051,0.715C134.151,87.33,134.94,86.634,135.767,86.495"/>
	<path fill="none" stroke="#00A55C" stroke-width="0.3058" d="M135.767,86.495c0.249-0.041-0.416-3.002,0.127-3.127
		c0.54-0.127,0.79,1.626,1.96,1.417c1.167-0.209,1.46-1.376,1.292-2.669c-0.166-1.293,0.586-0.584,1.169-1.503
		c0.584-0.916-0.667-2.167-2.087-1.291c-1.417,0.875-1.167-0.292-0.415-0.752c0.751-0.458,0.206-2.127-1.379-1.585
		c-1.146,0.395-1.724-0.35-2.276-0.664c-0.421,0.164-0.843,0.339-1.259,0.528c-0.094,0.324-0.02,0.717,0.074,1.137
		c0.119,0.536,0.375,1.919-0.5,1.335c-0.761-0.508-1.796-0.794-2.089,0.166c-0.289,0.959,0.293,1.043,0.211,1.627
		c-0.084,0.583-1.585,0.708-0.878,1.919c0.71,1.209,1.753,0.542,2.463,0.082c0.711-0.458,1.375,0.087,1.125,0.709
		c-0.195,0.488-0.59,2.132-0.619,3.213c0.336,0.22,0.686,0.455,1.051,0.715C134.151,87.33,134.94,86.634,135.767,86.495z"/>
	<path fill="#008248" d="M113.032,83.617c0.625-0.165,1.837,1.127,2.92,0.376c1.085-0.751-0.458-1.501-0.25-2.129
		c0.208-0.624,0.71-1.835-0.042-2.419c-0.751-0.583-1.545-0.042-2.334,0.836c-0.793,0.875-0.504-0.794-0.084-1.503
		c0.54-0.916,0-1.543-0.919-1.709c-0.917-0.166-1.21,1.125-1.835,0.542c-0.992-0.925-2.546-0.542-2.17,0.752
		c0.375,1.293,0.793,1.709,0,1.877c-0.793,0.166-1.543-1.919-2.461-0.25c-0.917,1.667,0.542,2.169,0.418,3.42
		c-0.126,1.251,0.374,2.584,1.125,2.711c0.751,0.125,1.543-0.711,1.961-1.21c0.417-0.502,1.42-0.875,1.294,0.084
		c-0.086,0.662-0.134,2.037-0.154,2.829c1.533-0.748,3.176-1.528,4.074-1.829c0.038-0.012,0.076-0.027,0.113-0.039
		c-0.421-0.166-1.013-0.444-1.572-0.835C112.283,84.535,112.407,83.786,113.032,83.617"/>
	<path fill="none" stroke="#00A55C" stroke-width="0.3058" d="M113.032,83.617c0.625-0.165,1.837,1.127,2.92,0.376
		c1.085-0.751-0.458-1.501-0.25-2.129c0.208-0.624,0.71-1.835-0.042-2.419c-0.751-0.583-1.545-0.042-2.334,0.836
		c-0.793,0.875-0.504-0.794-0.084-1.503c0.54-0.916,0-1.543-0.919-1.709c-0.917-0.166-1.21,1.125-1.835,0.542
		c-0.992-0.925-2.546-0.542-2.17,0.752c0.375,1.293,0.793,1.709,0,1.877c-0.793,0.166-1.543-1.919-2.461-0.25
		c-0.917,1.667,0.542,2.169,0.418,3.42c-0.126,1.251,0.374,2.584,1.125,2.711c0.751,0.125,1.543-0.711,1.961-1.21
		c0.417-0.502,1.42-0.875,1.294,0.084c-0.086,0.662-0.134,2.037-0.154,2.829c1.533-0.748,3.176-1.528,4.074-1.829
		c0.038-0.012,0.076-0.027,0.113-0.039c-0.421-0.166-1.013-0.444-1.572-0.835C112.283,84.535,112.407,83.786,113.032,83.617z"/>
	<path fill="#008248" d="M94.553,121.621c1.917-0.583,2.003,0.917,1.751,2.169c-0.25,1.251-0.25,3.921-0.166,5.255l3.168,0.168
		c-0.166-0.834,0-3.254,0.084-4.672c0.084-1.419,1.501-3.588,2.003-1.419c0.5,2.17,2.668,2.252,4.172,1.335
		c1.501-0.917,2.586-2.918,4.172-5.757c1.585-2.836-0.502-3.588-1.754-3.42c-1.251,0.166-2.502,0.334,0.334-2.001
		c2.641-2.176-1.801-3.267-3.842-3.674c-3.363,3.53-7.495,7.53-11.176,10.68c-0.468,0.402-0.908,0.786-1.328,1.162
		C92.415,121.699,93.279,122.008,94.553,121.621"/>
	<path fill="none" stroke="#00A55C" stroke-width="0.3058" d="M94.553,121.621c1.917-0.583,2.003,0.917,1.751,2.169
		c-0.25,1.251-0.25,3.921-0.166,5.255l3.168,0.168c-0.166-0.834,0-3.254,0.084-4.672c0.084-1.419,1.501-3.588,2.003-1.419
		c0.5,2.17,2.668,2.252,4.172,1.335c1.501-0.917,2.586-2.918,4.172-5.757c1.585-2.836-0.502-3.588-1.754-3.42
		c-1.251,0.166-2.502,0.334,0.334-2.001c2.641-2.176-1.801-3.267-3.842-3.674c-3.363,3.53-7.495,7.53-11.176,10.68
		c-0.468,0.402-0.908,0.786-1.328,1.162C92.415,121.699,93.279,122.008,94.553,121.621z"/>
	<path fill="#008248" d="M91.215,142.647c1.585-0.504,2.586,2.916,4.923,0.917c2.335-2.002,0.666-3.674,0.583-5.341
		c-0.083-1.667,1.835-2.335,1.251-4.424c-0.889-3.176-3.838-0.166-5.673,1.59c-1.837,1.749-1.919,0.331-0.084-2.505
		c1.835-2.837-1.169-3.756-3.002-3.005c-1.634,0.668-3.13,0.016-4.089-0.839c-0.705,1.128-1.223,2.171-1.753,3.26
		c-1.585,3.253-0.502,3.338,0.667,3.338c1.167,0,3.671,4.92,4.005,5.838c0.117,0.323,0.975,1.577,2.106,3.178
		C90.085,143.863,90.239,142.954,91.215,142.647"/>
	<path fill="none" stroke="#00A55C" stroke-width="0.3058" d="M91.215,142.647c1.585-0.504,2.586,2.916,4.923,0.917
		c2.335-2.002,0.666-3.674,0.583-5.341c-0.083-1.667,1.835-2.335,1.251-4.424c-0.889-3.176-3.838-0.166-5.673,1.59
		c-1.837,1.749-1.919,0.331-0.084-2.505c1.835-2.837-1.169-3.756-3.002-3.005c-1.634,0.668-3.13,0.016-4.089-0.839
		c-0.705,1.128-1.223,2.171-1.753,3.26c-1.585,3.253-0.502,3.338,0.667,3.338c1.167,0,3.671,4.92,4.005,5.838
		c0.117,0.323,0.975,1.577,2.106,3.178C90.085,143.863,90.239,142.954,91.215,142.647z"/>
	<path fill="#008248" d="M115.661,120.619c-0.158-1.585,0.834-3.252,3.002-2.337c2.169,0.92,3.504,0.168,4.422-0.583
		c0.917-0.75,4.83-1.686,4.256,1.753c-0.418,2.503-1.585,2.587-1.919,3.92c-0.334,1.335,0.667,0.502,1.251-0.5
		s1.919-5.099,4.672-2.003c0.667,0.751,0.418,2.003-0.416,3.42c-0.834,1.419-0.168,2.253,0.334,3.005
		c0.5,0.751,1.665,4.44-2.503,4.671c-1.503,0.084-3.338-0.334-3.338-0.334c-0.168,1.586-1.708,3.856-3.254,6.175
		c-0.166,0.25-1.083,0.25-1.501-0.082c-0.416-0.335-1.585-0.917-0.667-1.921c0.917-1.001,2.421-3.086,2.169-4.004
		c-0.25-0.917-0.917-1.751-1.917-0.501c-1.003,1.253-2.589,3.838-4.34,3.922s-3.504-1.504-2.668-3.087
		c0.833-1.585,1.083-2.419-0.084-3.838s-0.732-3.233,1.751-4.339c0.751-0.332,2.085,0,3.004,0.751c0.917,0.751,1.417,0,0.166-0.751
		C116.828,123.206,115.827,122.288,115.661,120.619"/>
	<path fill="none" stroke="#00A55C" stroke-width="0.3058" d="M115.661,120.619c-0.158-1.585,0.834-3.252,3.002-2.337
		c2.169,0.92,3.504,0.168,4.422-0.583c0.917-0.75,4.83-1.686,4.256,1.753c-0.418,2.503-1.585,2.587-1.919,3.92
		c-0.334,1.335,0.667,0.502,1.251-0.5s1.919-5.099,4.672-2.003c0.667,0.751,0.418,2.003-0.416,3.42
		c-0.834,1.419-0.168,2.253,0.334,3.005c0.5,0.751,1.665,4.44-2.503,4.671c-1.503,0.084-3.338-0.334-3.338-0.334
		c-0.168,1.586-1.708,3.856-3.254,6.175c-0.166,0.25-1.083,0.25-1.501-0.082c-0.416-0.335-1.585-0.917-0.667-1.921
		c0.917-1.001,2.421-3.086,2.169-4.004c-0.25-0.917-0.917-1.751-1.917-0.501c-1.003,1.253-2.589,3.838-4.34,3.922
		s-3.504-1.504-2.668-3.087c0.833-1.585,1.083-2.419-0.084-3.838s-0.732-3.233,1.751-4.339c0.751-0.332,2.085,0,3.004,0.751
		c0.917,0.751,1.417,0,0.166-0.751C116.828,123.206,115.827,122.288,115.661,120.619z"/>
	<path fill="#008248" d="M136.854,109.773c-1.503-0.332-3.453-0.585-3.672,2.504c-0.084,1.167,1.083,2.085,2.169,2.503
		c1.083,0.418,0.915,1.167-0.252,0.75c-1.167-0.417-2.083-0.667-2.919,1.753c-0.835,2.419,0.668,2.753,1.418,2.92
		c0.751,0.166,1.335,0.332,1.167,1.335c-0.166,1-0.666,3.92,1.251,4.17c1.92,0.25,3.591-2.085,4.172-3.254
		c0.586-1.167,1.254-2.334,1.422-1c0.168,1.333-0.086,2.001-0.754,3.502c-0.668,1.501-0.668,2.171,0.336,2.087
		c0.999-0.084,2.671,0,3.17-1.167c0.5-1.169,1.25-3.422,1.336-5.007c0.051-0.992,0.921-1.101,1.562-1.045
		c0.195-1.693,0.445-3.347,0.69-4.793c-3.273,0.492-6.061-3.51-7.033-6.973C139.802,109.269,138.167,110.065,136.854,109.773"/>
	<path fill="none" stroke="#00A55C" stroke-width="0.3058" d="M136.854,109.773c-1.503-0.332-3.453-0.585-3.672,2.504
		c-0.084,1.167,1.083,2.085,2.169,2.503c1.083,0.418,0.915,1.167-0.252,0.75c-1.167-0.417-2.083-0.667-2.919,1.753
		c-0.835,2.419,0.668,2.753,1.418,2.92c0.751,0.166,1.335,0.332,1.167,1.335c-0.166,1-0.666,3.92,1.251,4.17
		c1.92,0.25,3.591-2.085,4.172-3.254c0.586-1.167,1.254-2.334,1.422-1c0.168,1.333-0.086,2.001-0.754,3.502
		c-0.668,1.501-0.668,2.171,0.336,2.087c0.999-0.084,2.671,0,3.17-1.167c0.5-1.169,1.25-3.422,1.336-5.007
		c0.051-0.992,0.921-1.101,1.562-1.045c0.195-1.693,0.445-3.347,0.69-4.793c-3.273,0.492-6.061-3.51-7.033-6.973
		C139.802,109.269,138.167,110.065,136.854,109.773z"/>
	<path fill="#008248" d="M121.25,109.189c-0.584,1.001-2.253,3.838-1.501,4.755c0.752,0.917,1.585-0.917,2.253-0.25
		s2.169,1.417,2.169,0.917c0-0.5,0.166-1.501,0.417-2.836c0.25-1.333,0.834-2.085,1.417-1.001c0.584,1.083,1.42,2.003,3.505,1.503
		c2.085-0.501,1.835-2.67,1.419-4.255c-0.418-1.585,1.083-2.338,1.835-2.755c0.752-0.416,2.669-1.917,1.251-3.252
		c-1.417-1.335-2.67,0.585-3.92,0.833c-1.253,0.25-0.751-0.833,1.836-2.834c2.23-1.729,0.362-3.457-0.998-4.058
		c-3.592,3.616-9.955,9.481-11.352,10.815c-0.501,0.479-0.934,1.042-1.335,1.719C121.601,106.924,121.803,108.241,121.25,109.189"/>
	<path fill="none" stroke="#00A55C" stroke-width="0.3058" d="M121.25,109.189c-0.584,1.001-2.253,3.838-1.501,4.755
		c0.752,0.917,1.585-0.917,2.253-0.25s2.169,1.417,2.169,0.917c0-0.5,0.166-1.501,0.417-2.836c0.25-1.333,0.834-2.085,1.417-1.001
		c0.584,1.083,1.42,2.003,3.505,1.503c2.085-0.501,1.835-2.67,1.419-4.255c-0.418-1.585,1.083-2.338,1.835-2.755
		c0.752-0.416,2.669-1.917,1.251-3.252c-1.417-1.335-2.67,0.585-3.92,0.833c-1.253,0.25-0.751-0.833,1.836-2.834
		c2.23-1.729,0.362-3.457-0.998-4.058c-3.592,3.616-9.955,9.481-11.352,10.815c-0.501,0.479-0.934,1.042-1.335,1.719
		C121.601,106.924,121.803,108.241,121.25,109.189z"/>
	<path fill="#008248" d="M141.94,142.729c1.086,0.999,3.671,2.421,5.506,0.75c1.839-1.668-0.414-3.503-0.664-4.838
		c-0.254-1.335,1.331-2.171,0.5-4.338c-1.452-3.775-3.588,0.75-4.842,1.999c-1.249,1.254-1.042-0.872,0.086-1.999
		c0.582-0.588,3.171-2.171,1.667-3.924c-1.503-1.753-3.67-0.749-4.755,0c-1.086,0.752-1.919,1.669-3.588,1.168
		c-1.67-0.5-3.087-0.666-4.088,1.753c-1.002,2.42,0.917,1.753,2.502,3.506c1.586,1.749,0.584,1.835-0.667,1.417
		c-1.252-0.418-1.835-2.003-3.67-1.753c-1.838,0.25-1.838,3.17-1.252,3.924c0.584,0.75,1.751,1.168,0.918,2.585
		c-0.834,1.417,0.415,3.088,1.919,3.756c1.503,0.664,3.754-2.003,4.587-3.089c0.836-1.085,1.67-0.835,1.502,0
		c-0.143,0.717-0.531,2.606-0.586,4.182c1.271-0.405,2.528-0.78,3.736-1.116c-0.004-0.873-0.191-2.282-0.564-3.646
		C139.688,141.227,140.855,141.729,141.94,142.729"/>
	<path fill="none" stroke="#00A55C" stroke-width="0.3058" d="M141.94,142.729c1.086,0.999,3.671,2.421,5.506,0.75
		c1.839-1.668-0.414-3.503-0.664-4.838c-0.254-1.335,1.331-2.171,0.5-4.338c-1.452-3.775-3.588,0.75-4.842,1.999
		c-1.249,1.254-1.042-0.872,0.086-1.999c0.582-0.588,3.171-2.171,1.667-3.924c-1.503-1.753-3.67-0.749-4.755,0
		c-1.086,0.752-1.919,1.669-3.588,1.168c-1.67-0.5-3.087-0.666-4.088,1.753c-1.002,2.42,0.917,1.753,2.502,3.506
		c1.586,1.749,0.584,1.835-0.667,1.417c-1.252-0.418-1.835-2.003-3.67-1.753c-1.838,0.25-1.838,3.17-1.252,3.924
		c0.584,0.75,1.751,1.168,0.918,2.585c-0.834,1.417,0.415,3.088,1.919,3.756c1.503,0.664,3.754-2.003,4.587-3.089
		c0.836-1.085,1.67-0.835,1.502,0c-0.143,0.717-0.531,2.606-0.586,4.182c1.271-0.405,2.528-0.78,3.736-1.116
		c-0.004-0.873-0.191-2.282-0.564-3.646C139.688,141.227,140.855,141.729,141.94,142.729z"/>
	<path fill="#008248" d="M109.488,139.474c1.767,0.097,3.67-0.5,5.171-1.586c1.501-1.081,5.423-0.499,3.838,2.257
		c-1.585,2.753-1.083,3.335-0.168,2.335c0.917-1.003,2.087-2.839,3.838-2.335c1.753,0.5,1.001,1.831-0.082,3.335
		c-1.085,1.503-0.418,2.502,0.416,3.088c0.835,0.582,2.371,3.74-2.251,5.087c-2.003,0.586-2.337-0.331-3.672-0.831
		c-1.335-0.5-1.419,0.664-0.501,2.085c0.917,1.417,1.921,2.752,0.835,2.752s-1.919,0.168-2.087,1
		c-0.166,0.837-1.917-0.164-2.334-1.917c-0.418-1.753-0.836-5.092-1.751-3.42c-0.917,1.667-1.754,4.419-4.091,3.17
		c-2.334-1.253-0.75-2.921-1.917-4.088c-1.169-1.167-2.252-2.671-1.085-4.756c1.167-2.085,2.169-0.335,3.254-0.335
		c1.083,0,1.251-1,0.25-1.75C106.149,142.812,104.897,139.224,109.488,139.474"/>
	<path fill="none" stroke="#00A55C" stroke-width="0.3058" d="M109.488,139.474c1.767,0.097,3.67-0.5,5.171-1.586
		c1.501-1.081,5.423-0.499,3.838,2.257c-1.585,2.753-1.083,3.335-0.168,2.335c0.917-1.003,2.087-2.839,3.838-2.335
		c1.753,0.5,1.001,1.831-0.082,3.335c-1.085,1.503-0.418,2.502,0.416,3.088c0.835,0.582,2.371,3.74-2.251,5.087
		c-2.003,0.586-2.337-0.331-3.672-0.831c-1.335-0.5-1.419,0.664-0.501,2.085c0.917,1.417,1.921,2.752,0.835,2.752
		s-1.919,0.168-2.087,1c-0.166,0.837-1.917-0.164-2.334-1.917c-0.418-1.753-0.836-5.092-1.751-3.42
		c-0.917,1.667-1.754,4.419-4.091,3.17c-2.334-1.253-0.75-2.921-1.917-4.088c-1.169-1.167-2.252-2.671-1.085-4.756
		c1.167-2.085,2.169-0.335,3.254-0.335c1.083,0,1.251-1,0.25-1.75C106.149,142.812,104.897,139.224,109.488,139.474z"/>
	<path fill="#BA9653" d="M126.005,81.072c-0.5,1.335-1.167,3.005-1.501,3.839c-0.333,0.835-1.871,0.511-1.753-0.084
		c0.25-1.252-1.533-0.423-1.333-1.418c0.166-0.836-0.168-2.169,0.75-2.169S124.838,81.072,126.005,81.072"/>
	<path fill="none" stroke="#BA9653" stroke-width="0.3058" d="M126.005,81.072c-0.5,1.335-1.167,3.005-1.501,3.839
		c-0.333,0.835-1.871,0.511-1.753-0.084c0.25-1.252-1.533-0.423-1.333-1.418c0.166-0.836-0.168-2.169,0.75-2.169
		S124.838,81.072,126.005,81.072z"/>
	<path fill="#BA9653" d="M123.211,20.668c0.156-0.406,0.292-0.85,0.463-1.209c-0.614,0.322-1.195,0.635-1.749,0.942
		C122.293,20.922,122.797,21.744,123.211,20.668"/>
	<path fill="#BA9653" d="M138.271,21.502c-0.25-0.875-1.044,0.501-2.087,1.753c-1.042,1.251-2.543,0.501-2.711-0.126
		c-0.168-0.625-0.457-1.333-1.377-2.544c-0.917-1.209,0.877-2.876,1.627-3.086c0.753-0.208,1.71-0.376,1.962-0.584
		c0.211-0.173-0.166-1.405-0.367-2.355c-3.001,0.854-6.661,2.42-9.888,4.013c0.983,0.375,0.69,2.286,0.575,2.554
		c-0.126,0.294-0.458,1.961,0.291,0.961c0.75-1.001,1.045-1.377,1.835-1.627c0.795-0.252,1.672-0.21,1.713,0.959
		c0.041,1.167-0.5,1.083-0.668,1.835c-0.166,0.751,0,0.709,0.377,0.875c0.375,0.166,0.624,0.667,0.332,1.461
		c-0.291,0.792-1.543,0.875-2.671,0.75c-1.125-0.124-1.25,0.042-0.875,0.417c0.307,0.307,0.715,0.972,0.859,1.669
		c2.72-1.313,6.001-2.413,11.088-3.457C138.425,24.01,138.478,22.229,138.271,21.502"/>
	<path fill="#BA9653" d="M111.907,37.98c-0.375-0.75-0.919-0.875-1.125-0.292c-0.209,0.584-0.627,2.545-1.92,3.086
		c-0.416,0.176-0.745,0.28-0.979,0.348c0.446,0.484,0.946,0.917,1.522,1.324c1.021-1.08,1.975-2.063,2.892-2.976
		C112.26,39.001,112.165,38.498,111.907,37.98"/>
	<path fill="#BA9653" d="M124.378,28.01c-0.458-0.168-0.834,0.542-1.125,1.042c-0.292,0.502-0.917,1.337-2.003,1.211
		c-1.083-0.126-1.335-0.502-1.625-1.419c-0.293-0.917-0.961-1.209-1.753-1.209c-0.793,0-1.335-0.959-0.501-1.959
		c0.835-1.001,1.671-0.544,2.336-0.544c0.668,0,1.001-0.709,0.46-1.085c-0.432-0.297-1.19-1.151-1.322-1.805
		c-2.378,1.564-5.789,3.986-8.767,6.668c0.542,0.046,1.166,0.224,1.454,0.352c0.375,0.166,1.041,0.667,0.959,1.419
		c-0.084,0.75,0.166,0.917,0.625,0.416c0.458-0.5-0.084-2.001,1.459-2.586c1.543-0.584,1.753,0.585,1.669,1.375
		c-0.084,0.796,0,1.545,0.793,1.879c0.792,0.334,1.709,1.628-0.044,2.38c-1.751,0.75-2.71,0.916-3.42,1.125
		c-0.708,0.208-0.542,0.917,0.042,1.375c0.355,0.279,0.611,0.553,0.819,0.761c2.207-2.047,4.29-3.723,6.649-5.308
		c1.288-0.865,2.468-1.648,3.692-2.368C124.976,28.98,125.047,28.252,124.378,28.01"/>
	<path fill="#BA9653" d="M108.026,35.811c0.042-0.833-0.583-1.126-1.001-1.251c-0.306-0.093-0.877-0.685-1.129-1.194
		c-0.412,0.555-0.782,1.108-1.082,1.652c0.185,0.563,0.364,1.082,0.544,1.57C106.403,36.565,107.991,36.51,108.026,35.811"/>
	<path fill="#BA9653" d="M143.276,74.731c-2.729-0.174-5.981,0.382-9.09,1.578c0.543,0.324,1.121,1.062,2.247,0.675
		c1.587-0.542,2.13,1.127,1.379,1.585c-0.752,0.46-1.002,1.627,0.415,0.752c1.42-0.876,2.671,0.375,2.087,1.291
		c-0.583,0.92-1.335,0.21-1.169,1.504c0.168,1.292-0.125,2.46-1.292,2.668c-1.17,0.21-1.42-1.544-1.96-1.417
		c-0.543,0.125,0.122,3.086-0.127,3.128c-0.814,0.136-1.594,0.844-2.013,1.269c0.031,0.022,0.063,0.042,0.094,0.066
		c4.595,3.296,5.759,1.501,6.426-0.084c0.668-1.585,2.147-6.283,2.585-8.76C143.108,77.568,143.444,76.067,143.276,74.731"/>
	<path fill="#BA9653" d="M133.307,83.825c0.25-0.623-0.416-1.167-1.127-0.709c-0.71,0.459-1.753,1.127-2.463-0.082
		c-0.707-1.211,0.794-1.335,0.878-1.919c0.082-0.584-0.5-0.668-0.211-1.627c0.293-0.959,1.328-0.673,2.089-0.166
		c0.875,0.583,0.619-0.8,0.5-1.335c-0.09-0.408-0.16-0.815-0.078-1.135c-0.906,0.408-1.788,0.868-2.634,1.385
		c-4.285,2.623-4.423,4.839-3.422,5.673c0.896,0.748,2.729,1.098,5.853,3.131C132.725,85.958,133.113,84.309,133.307,83.825"/>
	<path fill="#BA9653" d="M119.665,81.322c-1.773-0.886-3.504-2.837-4.671-5.087c0,0,0.082-0.334-0.418-0.334
		c-0.5,0-2.336-0.168-5.424-1.253c-3.086-1.083-3.502-0.416-3.92,0.917c-0.418,1.337-0.751,3.756-0.835,7.76
		c-0.082,4.005,1.669,6.509,2.754,6.091c0.528-0.204,1.892-0.883,3.351-1.594c0.021-0.795,0.067-2.175,0.154-2.828
		c0.126-0.959-0.876-0.587-1.294-0.084c-0.418,0.5-1.209,1.335-1.961,1.209c-0.752-0.126-1.251-1.459-1.125-2.711
		c0.124-1.251-1.335-1.753-0.418-3.42c0.917-1.669,1.667,0.416,2.461,0.25c0.793-0.168,0.375-0.584,0-1.877
		c-0.376-1.293,1.178-1.677,2.17-0.752c0.625,0.584,0.917-0.708,1.835-0.542c0.919,0.166,1.459,0.793,0.919,1.709
		c-0.42,0.709-0.709,2.379,0.084,1.503c0.79-0.877,1.583-1.419,2.334-0.836c0.752,0.584,0.25,1.795,0.042,2.42
		c-0.208,0.626,1.335,1.376,0.25,2.129c-1.083,0.751-2.295-0.542-2.92-0.376c-0.625,0.168-0.75,0.917,0.084,1.501
		c0.543,0.381,1.117,0.679,1.534,0.849c1.736-0.591,3.773-1.731,4.431-2.144l1.085,0.084
		C120.25,82.491,120.167,81.572,119.665,81.322"/>
	<path fill="#BA9653" d="M113.492,99.677c-0.668-1.501-0.9-0.348-2.753,2.587c-0.94,1.485-3.307,4.234-6.267,7.345
		c2.051,0.414,6.475,1.503,3.846,3.67c-2.836,2.335-1.585,2.167-0.334,2.001c1.251-0.167,3.339,0.584,1.754,3.42
		c-1.586,2.838-2.671,4.839-4.172,5.757c-1.503,0.917-3.672,0.835-4.172-1.335c-0.502-2.169-1.919,0-2.003,1.419
		c-0.084,1.417-0.25,3.838-0.084,4.672l-3.168-0.168c-0.084-1.334-0.084-4.004,0.166-5.255c0.252-1.251,0.166-2.752-1.751-2.169
		c-1.255,0.382-2.113,0.058-2.562-0.194c-3.726,3.315-5.61,5.608-6.876,7.63c0.958,0.847,2.478,1.485,4.099,0.823
		c1.833-0.751,4.837,0.168,3.002,3.005c-1.835,2.834-1.753,4.254,0.084,2.503c1.835-1.754,4.784-4.764,5.673-1.588
		c0.584,2.087-1.335,2.757-1.251,4.424c0.082,1.667,1.751,3.339-0.583,5.341c-2.337,1.999-3.338-1.421-4.923-0.917
		c-0.958,0.301-1.15,1.179-1.096,1.962c2.075,2.938,5.1,7.092,6.186,8.881c1.669,2.756,1.669,6.092,2.337,5.593
		c0.666-0.502,2.25-2.005,2.752-2.423c0.5-0.414,1.001-0.918,0.751-1.835c-0.252-0.918-1.209-5.837-0.917-9.262
		c0.332-3.92,2.169-8.216,3.504-10.676c1.282-2.366,5.172-9.931,6.09-11.934c0.917-2.001,2.587-4.336,3.004-6.173
		c0.416-1.835,2.001-6.089,2.669-8.092C116.329,107.02,115.253,103.643,113.492,99.677"/>
	<path fill="#BA9653" d="M149.867,136.721c-2.167-3.586-2.585-5.006-2.921-8.676c-0.211-2.315-0.021-5.329,0.314-8.221
		c-0.643-0.052-1.513,0.07-1.563,1.045c-0.086,1.585-0.836,3.838-1.336,5.007c-0.499,1.167-2.171,1.083-3.17,1.167
		c-1.004,0.084-1.004-0.586-0.336-2.087c0.668-1.501,0.922-2.169,0.754-3.502c-0.168-1.335-0.836-0.168-1.422,1
		c-0.581,1.169-2.252,3.504-4.172,3.254c-1.917-0.25-1.417-3.17-1.251-4.17c0.168-1.003-0.416-1.169-1.167-1.335
		c-0.75-0.167-2.253-0.501-1.418-2.92c0.836-2.42,1.752-2.17,2.919-1.753c1.167,0.418,1.335-0.332,0.252-0.75
		c-1.086-0.418-2.253-1.335-2.169-2.503c0.219-3.09,2.169-2.836,3.67-2.504c1.306,0.289,2.96-0.494,4.072-1.691
		c-0.021-0.076-0.049-0.152-0.068-0.228c-2.226-8.496,2.003-18.939,3.17-21.859c1.172-2.919,5.674-11.137,7.218-13.598
		c-0.834-0.418-3.044-1.543-4.254-2.171c-1.21-0.624-1.878-0.917-2.21-0.458c-0.336,0.458-0.754,0.708-1.335,1.543
		c-1.172,1.673-0.168,1.417,0.168,1.417c0.331,0,1.749,1.837,1.999,2.255c0.254,0.416,0,0.75-0.582,2.085
		c-0.766,1.745-1.253,5.757-1.921,8.177c-2.021,7.325-5.173,6.592-6.591,5.673c-1.419-0.917-1.835,0.5-3.254,2.502
		c-0.338,0.478-1.189,1.387-2.31,2.515c1.354,0.61,3.197,2.357,0.977,4.078c-2.587,2.001-3.089,3.084-1.836,2.834
		c1.25-0.248,2.503-2.169,3.92-0.833c1.418,1.335-0.499,2.836-1.251,3.252c-0.752,0.417-2.253,1.169-1.835,2.755
		c0.416,1.585,0.666,3.754-1.419,4.255c-2.085,0.5-2.921-0.419-3.505-1.503c-0.583-1.083-1.167-0.332-1.417,1.001
		c-0.251,1.335-0.417,2.337-0.417,2.836c0,0.5-1.501-0.25-2.169-0.917s-1.501,1.167-2.253,0.25
		c-0.751-0.917,0.917-3.754,1.501-4.755c0.551-0.944,0.322-2.251-2.995-0.719c-1.074,1.795-1.925,4.404-3.262,8.479
		c-1.835,5.589-5.993,13.204-7.719,15.979c-4.494,7.221-5.297,14.058-4.63,18.313c0.664,4.231,1.251,3.92,2.169,3.92
		s3.17,2.836,4.674,4.587c1.499,1.753,2.086,1.002,2.835,0.418c2.41-1.876,7.258-5.005,14.1-8.262
		c2.917-1.386,6.806-2.863,10.595-4.076c0.059-1.569,0.441-3.469,0.584-4.182c0.168-0.835-0.666-1.085-1.502,0
		c-0.833,1.086-3.084,3.753-4.587,3.089c-1.504-0.668-2.753-2.339-1.919-3.756c0.833-1.417-0.334-1.835-0.918-2.585
		c-0.586-0.754-0.586-3.674,1.252-3.924c1.835-0.25,2.418,1.335,3.67,1.753c1.251,0.418,2.253,0.332,0.667-1.417
		c-1.585-1.755-3.504-1.086-2.502-3.506c1.001-2.419,2.418-2.253,4.088-1.753c1.669,0.501,2.502-0.416,3.588-1.168
		c1.085-0.749,3.252-1.753,4.755,0c1.504,1.753-1.085,3.336-1.667,3.922c-1.128,1.129-1.335,3.255-0.086,2.001
		c1.254-1.251,3.39-5.774,4.842-2.001c0.831,2.169-0.754,3.005-0.5,4.34c0.25,1.335,2.503,3.17,0.664,4.838
		c-1.835,1.671-4.42,0.249-5.506-0.75c-1.085-1-2.252-1.503-1.753,0.336c0.371,1.347,0.557,2.771,0.563,3.646
		c3.646-1.008,6.831-1.622,8.449-1.479c2.38,0.213,4.174,0.917,4.088-1.254C153.205,141.812,152.037,140.309,149.867,136.721
		 M120.25,151.654c-2.003,0.586-2.337-0.331-3.672-0.831c-1.335-0.5-1.419,0.664-0.501,2.085c0.917,1.417,1.921,2.752,0.835,2.752
		s-1.919,0.168-2.087,1c-0.166,0.837-1.917-0.164-2.334-1.917c-0.418-1.753-0.836-5.092-1.751-3.42
		c-0.918,1.667-1.754,4.419-4.091,3.17c-2.334-1.253-0.75-2.921-1.917-4.088c-1.169-1.167-2.252-2.671-1.085-4.756
		c1.167-2.085,2.169-0.335,3.254-0.335c1.083,0,1.251-1,0.25-1.75c-1.001-0.753-2.253-4.341,2.337-4.091
		c1.768,0.097,3.671-0.5,5.172-1.586c1.501-1.081,5.423-0.499,3.838,2.257c-1.585,2.753-1.083,3.335-0.168,2.335
		c0.917-1.003,2.087-2.839,3.838-2.335c1.753,0.5,1.001,1.831-0.082,3.335c-1.085,1.503-0.418,2.502,0.416,3.088
		C123.337,147.149,124.872,150.308,120.25,151.654 M128.76,131.965c-1.503,0.084-3.338-0.334-3.338-0.334
		c-0.168,1.586-1.708,3.856-3.254,6.175c-0.166,0.25-1.083,0.25-1.501-0.082c-0.416-0.335-1.585-0.917-0.667-1.921
		c0.917-1.001,2.421-3.086,2.169-4.004c-0.25-0.917-0.917-1.751-1.917-0.501c-1.003,1.253-2.589,3.838-4.34,3.924
		c-1.751,0.082-3.504-1.506-2.668-3.089c0.833-1.585,1.083-2.419-0.084-3.838s-0.732-3.233,1.751-4.339
		c0.751-0.332,2.085,0,3.004,0.751c0.917,0.751,1.417,0,0.166-0.751c-1.251-0.75-2.253-1.667-2.419-3.336
		c-0.158-1.585,0.834-3.252,3.002-2.337c2.169,0.92,3.504,0.168,4.422-0.583c0.917-0.75,4.83-1.686,4.256,1.753
		c-0.418,2.503-1.585,2.587-1.919,3.92c-0.334,1.335,0.667,0.502,1.251-0.5s1.919-5.099,4.672-2.003
		c0.667,0.751,0.418,2.003-0.416,3.42c-0.834,1.419-0.168,2.253,0.334,3.005C131.763,128.045,132.928,131.734,128.76,131.965"/>
	<polyline fill="#FFFFFF" points="205.547,60.424 203.075,62.176 208.76,70.21 205.508,72.517 199.986,64.315 197.438,66.12 
		202.489,73.77 199.235,76.077 191.085,64.483 205.866,54.007 214.853,66.604 211.598,68.91 	"/>
	<polyline fill="#FFFFFF" points="209.628,85.133 212.957,92.365 208.121,94.602 202.901,82.838 218.894,75.883 220.949,80.412 	"/>
	<polyline fill="#FFFFFF" points="211.508,106.71 211.005,102.25 221.737,100.988 221.32,94.502 226.128,94.144 227.465,109.747 
		222.659,110.102 222.241,105.449 	"/>
	<polyline fill="#FFFFFF" points="211.611,122.786 211.543,117.468 227.325,117.42 227.39,122.738 	"/>
	<path fill="#FFFFFF" d="M219.938,144.367c1.492-0.888,2.136-2.021,2.351-3.326c0.539-3.276-1.171-6.028-4.174-6.472
		c-2.828-0.414-5.144,0.867-5.987,3.723c-0.436,1.476-0.27,2.935,0.135,3.896l-4.17,1.396c-0.574-1.981-0.839-4.247-0.512-5.976
		c0.52-2.719,1.441-4.224,3.409-5.718c2.19-1.663,5.321-2.099,7.965-1.591c2.431,0.465,4.724,1.685,6.077,4.061
		c1.392,2.438,2.104,4.51,1.528,7.512c-0.344,1.782-1.938,4.32-4.039,5.605"/>
	<path fill="#FFFFFF" d="M211.68,158.188c-2.406,2.267-6.582,4.98-8.239,5.133c-2.157,0.198-2.825-1.016-3.188-2.929
		c-0.283-1.478-0.012-3.809,0.664-5.798c0.582-1.724,1.995-3.436,3.264-4.498l2.61,1.16c-1.411,0.95-2.315,2.422-2.907,4.178
		c-0.405,1.202-0.772,3.037,0.432,3.447c1.345,0.453,4.262-2.487,5.098-3.29c1.444-1.392,4.446-3.811,6.648-3.244
		c1.452,0.373,4.139,3.395,3.108,8.361c-0.43,2.058-1.184,4.26-2.642,5.72l-3.563-2.392c1.001-0.712,1.604-2.637,2.026-3.891
		c0.318-0.944,0.377-2.444-0.504-2.932C213.942,156.914,212.898,157.039,211.68,158.188"/>
	<path fill="#FFFFFF" d="M192.182,48.309c-0.195-1.728-0.63-2.905-1.729-3.639c-2.769-1.839-5.874-1.313-7.658,1.144
		c-1.431,1.969-1.323,5.043,0.929,6.989c1.166,1.003,2.565,1.453,3.61,1.479l-0.445,4.374c-2.042-0.292-4.217-0.979-5.655-1.991
		c-2.269-1.595-3.261-3.048-3.809-5.457c-0.617-2.68,0.273-5.715,1.821-7.916c1.427-2.022,3.949-3.766,6.658-4.12
		c2.673-0.346,5.189,0.148,7.312,1.991c1.372,1.19,2.723,4,3.031,6.445"/>
	<path fill="#FFFFFF" d="M31.078,137.264c0.082-4.658,2.389-6.974,3.686-7.247c2.121-0.448,3.218-0.113,4.676,1.182
		c1.513,1.345,2.167,2.793,2.602,4.845c0.378,1.778,0.548,3.859-0.002,5.424l-3.362,0.349c0.73-1.536,0.22-2.945-0.164-4.755
		c-0.264-1.246-1.085-2.454-2.331-2.19c-1.293,0.273-1.225,2.456-1.339,3.646c-0.372,3.824-1.624,6.313-4.006,6.575
		c-2.229,0.242-4.973-1.238-5.936-5.771c-0.434-2.052-0.235-4.854,0.272-6.854l3.521,0.018c-0.498,1.123-0.872,3.969-0.597,5.267
		c0.204,0.973,0.952,2.173,1.959,2.12C30.852,139.832,31.062,138.142,31.078,137.264"/>
	<polyline fill="#FFFFFF" points="40.208,115.335 40.267,119.25 27.81,119.404 27.86,125.047 23.872,125.091 23.712,110.224 
		27.7,110.18 27.75,115.492 	"/>
	<polyline fill="#FFFFFF" points="49.139,71.163 38.428,64.439 40.799,60.748 56.496,69.798 53.457,74.489 40.721,74.701 
		40.694,74.749 50.311,80.295 47.94,84.486 32.494,75.519 34.531,71.579 	"/>
	<path fill="#FFFFFF" d="M25.087,94.422c0-5.325,4.318-9.644,9.645-9.644c5.325,0,9.644,4.318,9.644,9.644
		c0,5.326-4.318,9.643-9.644,9.643C29.405,104.065,25.087,99.748,25.087,94.422 M34.732,99.446c2.773,0,5.022-2.249,5.022-5.024
		c0-2.775-2.249-5.024-5.022-5.024c-2.774,0-5.023,2.249-5.023,5.024C29.709,97.197,31.958,99.446,34.732,99.446"/>
	<path fill="#FFFFFF" d="M31.304,157.87c0-5.325,4.316-9.644,9.644-9.644c5.327,0,9.643,4.318,9.643,9.644
		c0,5.328-4.315,9.646-9.643,9.646C35.62,167.516,31.304,163.198,31.304,157.87 M40.948,162.896c2.772,0,5.022-2.249,5.022-5.025
		c0-2.771-2.25-5.021-5.022-5.021c-2.775,0-5.024,2.249-5.024,5.021C35.924,160.646,38.172,162.896,40.948,162.896"/>
	<path fill="#FFFFFF" d="M51.752,175.428c-1.395-2.111-0.682-5.231,0.799-6.539c2.993-2.651,8.021,3.439,9.84,5.726l5.185,6.03
		l-12.807,10.591l-4.818-4.758c-3.456-3.451-7.666-7.809-4.196-10.823C47.162,174.433,50.231,174.688,51.752,175.428
		 M61.705,178.204l-0.416-0.5c-0.963-1.159-4.378-5.497-5.733-4.221c-1.485,1.398,2.109,5.199,3.173,6.478l0.332,0.398
		L61.705,178.204z M55.515,183.426c-0.473-0.567-4.282-5.21-5.825-3.758c-1.625,1.529,2.175,4.512,3.445,6.04L55.515,183.426z"/>
</g>
</svg>
