<?xml version="1.0" encoding="UTF-8" standalone="no"?>
<!-- Created with Inkscape (http://www.inkscape.org/) -->
<svg
   xmlns:svg="http://www.w3.org/2000/svg"
   xmlns="http://www.w3.org/2000/svg"
   version="1.0"
   width="204.07651"
   height="205.51212"
   id="svg2506">
  <defs
     id="defs2508" />
  <g
     transform="translate(-275.10461,-346.74898)"
     id="layer1">
    <g
       transform="matrix(1.25,0,0,1.25,282.28236,392.0761)"
       id="g8"
       style="fill:#1c2524;fill-rule:evenodd;stroke:none;stroke-width:1;stroke-linecap:butt;stroke-linejoin:miter;stroke-dasharray:none">
      <path
         d="M 143.079,27.0732 C 142.587,17.2285 138.157,8.2041 135.531,2.9531 C 135.531,2.9531 134.055,0 134.055,0 C 134.055,0 134.219,2.625 134.219,2.625 C 134.547,6.0713 135.367,18.2129 131.758,25.1045 C 127.163,34.457 114.037,33.6367 109.606,33.3086 C 109.606,33.3086 109.278,33.3086 109.278,33.3086 C 102.223,32.8164 79.0869,31.9961 71.8682,31.9961 C 62.5146,31.9961 52.1777,32.8164 43.8096,33.4727 C 39.708,33.8008 36.2627,33.9648 33.8008,34.1289 C 33.6367,34.1289 33.3086,34.1289 32.9805,34.1289 C 21.3311,35.2773 13.9473,31.832 10.9941,23.9561 C 9.1885,19.0332 9.3525,9.5166 9.3525,4.9229 C 9.3525,4.9229 9.3525,1.6406 9.3525,1.6406 C 9.3525,1.6406 8.3682,3.2813 8.3682,3.2813 C 6.2354,7.3838 2.1328,14.9316 0.8203,27.4014 C 0,42.333 7.7119,47.584 13.4551,50.2087 C 19.5264,53.1617 25.9248,53.4907 27.8945,53.6547 C 27.8945,53.6547 28.0576,53.6547 28.0576,53.6547 C 28.3857,53.6547 28.8789,53.6547 29.3711,53.8187 C 30.0273,53.8187 30.6836,53.8187 31.3398,53.9827 C 30.3555,54.1467 28.8789,54.4757 27.5654,54.6397 C 26.2529,54.8027 24.9404,55.1307 24.2842,55.2957 C 22.8076,55.4597 17.0645,56.9367 13.7832,57.9207 C 11.1582,58.9057 8.2041,60.2177 8.2041,60.2177 C 8.2041,60.2177 7.7119,60.5457 7.7119,60.5457 C 7.7119,60.5457 8.04,61.0377 8.04,61.0377 C 8.04,61.0377 9.0244,62.3507 10.0088,63.3347 C 12.1426,65.4687 17.8848,69.0777 24.7764,68.2577 C 30.3555,67.4377 33.3086,66.2887 34.457,65.6327 C 34.9492,66.7817 35.7695,69.5707 36.5898,71.7027 C 39.0518,77.9387 44.7939,89.9167 46.9277,94.0187 C 48.7324,97.3007 50.373,100.254 51.5215,102.223 C 51.5215,102.223 52.0137,102.879 52.0137,102.879 C 51.6855,104.192 50.7012,105.012 50.0449,105.669 C 49.8809,105.832 49.7168,105.832 49.5527,105.996 C 49.5527,105.996 49.3887,106.16 49.3887,106.16 C 49.3887,106.16 49.3887,106.326 49.3887,106.326 C 49.3887,107.474 49.0605,117.811 56.1162,125.359 C 56.1162,125.359 56.2803,125.523 56.2803,125.523 C 59.8896,126.835 64.3203,128.148 71.7041,128.148 C 79.251,128.148 85.486,126.507 87.783,125.359 C 87.783,125.359 87.783,125.195 87.783,125.195 C 87.783,125.195 87.948,125.195 87.948,125.195 C 92.87,119.451 95.003,110.755 95.167,107.474 C 95.167,107.474 95.167,107.31 95.167,107.31 C 95.167,107.31 95.003,107.146 95.003,107.146 C 94.839,106.982 94.675,106.982 94.511,106.818 C 93.854,105.996 92.87,105.176 92.378,103.043 C 92.87,102.059 94.019,99.5977 95.003,97.6277 C 95.659,96.4797 95.987,95.4947 96.316,95.0027 C 98.285,90.9017 104.355,77.9387 106.817,71.8667 C 108.294,67.9297 109.114,65.9607 109.606,65.3047 C 110.591,65.7967 113.544,67.1097 118.959,67.6017 C 125.851,68.4217 132.578,63.6637 134.383,61.0377 C 134.711,60.7097 135.367,60.0537 135.367,60.0537 C 135.367,60.0537 135.695,59.5617 135.695,59.5617 C 135.695,59.5617 135.203,59.2337 135.203,59.2337 C 135.039,59.2337 134.875,59.2337 133.891,58.7417 C 133.891,58.7417 126.015,56.2807 126.015,56.2807 C 125.03,55.7877 120.271,54.8027 116.826,54.1467 C 116.826,54.1467 114.201,53.4907 114.201,53.4907 C 114.201,53.4907 115.021,53.3257 115.021,53.3257 C 123.062,52.0137 144.392,48.2402 143.079,27.0732 z"
         id="path10" />
    </g>
    <g
       transform="matrix(1.25,0,0,1.25,285.56486,399.2551)"
       id="g12"
       style="fill:#d2153a;fill-rule:evenodd;stroke:none;stroke-width:1;stroke-linecap:butt;stroke-linejoin:miter;stroke-dasharray:none">
      <path
         d="M 5.7422,0 C 5.5781,5.5781 5.5781,11.4853 6.8906,16.7363 C 5.7422,15.7519 4.4297,14.4394 3.2812,13.4541 C 2.1328,14.6035 1.1484,15.916 0,17.0644 C 1.1484,11.1572 3.1172,5.414 5.7422,0 z"
         id="path14" />
    </g>
    <g
       transform="matrix(1.25,0,0,1.25,450.67111,398.84485)"
       id="g16"
       style="fill:#d2153a;fill-rule:evenodd;stroke:none;stroke-width:1;stroke-linecap:butt;stroke-linejoin:miter;stroke-dasharray:none">
      <path
         d="M 6.235,14.9317 C 6.235,14.9317 6.563,16.4082 6.563,16.4082 C 6.563,16.4082 3.773,14.4385 3.773,14.4385 C 2.461,14.9317 1.312,15.752 0,16.4082 C 0.984,11.1573 1.148,5.5782 0.82,0 C 3.281,4.7579 4.758,9.8448 6.235,14.9317 z"
         id="path18" />
    </g>
    <g
       transform="matrix(1.25,0,0,1.25,348.94011,482.52698)"
       id="g20"
       style="fill:#d2153a;fill-rule:evenodd;stroke:none;stroke-width:1;stroke-linecap:butt;stroke-linejoin:miter;stroke-dasharray:none">
      <path
         d="M 18.706,0 C 21.6592,4.593 27.2378,5.906 32.1598,4.593 C 34.1288,4.265 35.9348,3.445 37.5748,2.789 C 36.0988,7.547 34.9498,12.962 35.1128,18.377 C 35.1128,23.134 35.9348,27.729 37.2468,31.995 C 36.5908,31.667 35.9348,31.174 35.1128,30.846 C 24.9404,25.76 10.8301,25.924 0.8203,31.174 C 1.3134,29.534 1.8056,27.893 2.1338,26.253 C 3.7744,18.541 2.6259,10.501 0,3.609 C 5.415,5.906 13.1269,6.398 17.5566,1.312 C 18.0498,0.984 18.2138,0.492 18.706,0 z"
         id="path22" />
    </g>
    <g
       transform="matrix(1.25,0,0,1.25,332.73773,487.24323)"
       id="g24"
       style="fill:#d2153a;fill-rule:evenodd;stroke:none;stroke-width:1;stroke-linecap:butt;stroke-linejoin:miter;stroke-dasharray:none">
      <path
         d="M 9.1884,0 C 8.8603,2.297 8.2041,4.595 5.9072,5.415 C 4.1025,5.907 2.2968,4.922 1.1484,3.61 C 0.6562,2.953 0.164,2.297 0,1.477 C 2.789,3.281 6.5634,1.805 9.0244,0 C 9.0244,0 9.1884,0 9.1884,0 z"
         id="path26" />
    </g>
    <g
       transform="matrix(1.25,0,0,1.25,400.62611,487.65323)"
       id="g28"
       style="fill:#d2153a;fill-rule:evenodd;stroke:none;stroke-width:1;stroke-linecap:butt;stroke-linejoin:miter;stroke-dasharray:none">
      <path
         d="M 9.024,0 C 8.368,1.969 6.727,3.939 4.595,4.267 C 3.118,4.594 1.805,3.774 0.821,2.461 C 0.328,1.805 0.164,0.985 0,0.164 C 2.462,2.133 6.399,1.641 9.024,0 z"
         id="path30" />
    </g>
    <g
       transform="matrix(1.25,0,0,1.25,395.08861,489.90948)"
       id="g32"
       style="fill:#d2153a;fill-rule:evenodd;stroke:none;stroke-width:1;stroke-linecap:butt;stroke-linejoin:miter;stroke-dasharray:none">
      <path
         d="M 7.876,3.774 C 8.86,3.938 10.009,3.774 10.993,3.446 C 8.204,10.502 4.758,17.392 1.149,24.284 C 0,20.839 0.164,17.064 0.492,13.291 C 0.984,8.696 2.133,4.267 3.445,0 C 4.266,1.805 5.906,3.446 7.876,3.774 z"
         id="path34" />
    </g>
    <g
       transform="matrix(1.25,0,0,1.25,335.19861,489.70448)"
       id="g36"
       style="fill:#d2153a;fill-rule:evenodd;stroke:none;stroke-width:1;stroke-linecap:butt;stroke-linejoin:miter;stroke-dasharray:none">
      <path
         d="M 10.8291,24.448 C 6.5635,17.885 3.2822,10.994 0,3.938 C 1.4766,4.595 3.7744,5.251 5.251,4.102 C 6.7275,3.118 7.5479,1.641 8.04,0 C 11.6504,7.056 12.4707,16.408 10.8291,24.448 z"
         id="path38" />
    </g>
    <g
       transform="matrix(1.25,0,0,1.25,345.45373,515.34323)"
       id="g40"
       style="fill:#d2153a;fill-rule:evenodd;stroke:none;stroke-width:1;stroke-linecap:butt;stroke-linejoin:miter;stroke-dasharray:none">
      <path
         d="M 43.1529,9.516 C 42.3329,15.587 40.1999,21.002 36.2619,25.76 C 27.4014,29.37 15.2598,29.698 6.3994,25.924 C 1.9688,21.002 0.3281,14.93 0,8.368 C 9.5166,1.476 24.4483,0 35.2769,4.921 C 38.0669,6.234 40.6919,7.546 43.1529,9.516 z"
         id="path42" />
    </g>
    <g
       transform="matrix(1.25,0,0,1.25,293.97298,433.50673)"
       id="g44"
       style="fill:#d2153a;fill-rule:evenodd;stroke:none;stroke-width:1;stroke-linecap:butt;stroke-linejoin:miter;stroke-dasharray:none">
      <path
         d="M 121.091,25.5972 C 113.71,22.6432 104.028,21.0022 95.9885,20.8382 C 95.1675,11.6495 94.1825,6.0713 92.3775,0.9844 C 88.2765,0.6563 69.5713,0 62.5157,0 C 55.2959,0 37.083,1.1485 32.8164,1.3125 C 31.1758,6.2354 29.2071,12.3057 28.3868,21.3312 C 20.1827,21.8222 9.0245,24.1202 1.6416,26.9092 C 0.4922,27.4012 0,27.7292 0,27.7292 C 1.1485,29.0422 5.251,33.9652 12.9629,34.1292 C 15.4239,34.1292 20.0186,33.8012 23.1358,32.4882 C 23.9561,31.9962 25.5967,31.3402 25.5967,31.3402 C 25.5967,31.3402 26.0889,32.3242 26.417,33.1442 C 27.2373,35.4412 28.2227,38.7222 28.8789,40.2002 C 30.0274,42.3332 31.668,43.9732 34.6211,44.1382 C 37.083,44.1382 38.8877,42.0052 39.2159,41.6772 C 31.9961,41.1842 29.043,37.4102 28.5508,31.5042 C 26.7461,31.1762 26.253,31.0122 26.0889,30.1902 C 25.9248,29.2062 26.253,28.2222 26.9102,27.0732 C 27.7305,26.0892 29.043,24.9402 32.4883,26.0892 C 34.7852,26.7452 36.5909,28.2222 37.7393,29.3702 C 39.3799,30.6832 43.6465,35.1132 46.2715,36.7542 C 49.0606,38.3942 54.3116,39.8722 57.7569,36.4262 C 61.2032,33.1442 61.5303,30.3542 62.0235,28.7142 C 56.1163,28.5502 50.7012,27.8932 45.6153,27.2372 C 44.1377,27.0732 44.794,25.5972 45.9434,25.9252 C 45.9434,25.9252 55.46,27.2372 62.1875,27.2372 C 62.1875,26.4172 62.1875,25.1042 62.1875,23.6282 C 58.2491,23.4642 51.6856,23.1362 45.4512,21.8222 C 44.1377,21.4952 44.3028,20.0172 45.6153,20.3462 C 46.4356,20.6742 56.7725,22.1512 62.3516,22.1512 C 62.3516,20.8382 62.3516,19.1972 62.3516,17.5562 C 58.7413,17.7212 53.3272,17.2282 45.7793,16.0802 C 44.4668,15.9162 44.6309,14.7676 45.7793,14.7676 C 45.7793,14.7676 55.2959,16.2442 62.3516,16.0802 C 62.3516,15.0957 62.3516,13.7832 62.3516,12.4698 C 62.3516,11.1573 63.5,10.9932 63.5,12.4698 C 63.5,12.9629 63.6641,14.2754 63.6641,16.0802 C 70.3915,15.9162 76.4615,15.0957 79.2515,14.6036 C 80.8925,14.2754 80.7285,15.5879 79.9085,15.7522 C 78.9235,15.9162 71.0475,17.3922 63.5,17.5562 C 63.5,18.8692 63.6641,20.6742 63.6641,21.9862 C 68.75,21.8222 74.4935,21.6582 79.5805,20.5102 C 81.3845,20.1812 81.5485,21.6582 79.9085,21.8222 C 74.9855,22.6432 67.9297,23.4642 63.6641,23.6282 C 63.6641,24.7762 63.6641,26.2532 63.8282,27.2372 C 71.8685,27.0732 79.4165,25.9252 80.7285,25.7612 C 82.0415,25.4322 82.3695,26.9092 80.8925,27.0732 C 79.5805,27.2372 70.0625,28.5502 63.9922,28.5502 C 64.6485,30.6832 64.6485,33.6372 67.6016,36.0972 C 70.5555,38.5582 75.3135,38.3942 78.7595,36.4262 C 81.3845,34.9492 85.4865,30.3542 86.9635,29.0422 C 88.2765,27.8932 91.2295,25.2682 95.1675,25.2682 C 98.9415,25.2682 99.1055,27.4012 99.2695,27.8932 C 99.4335,28.5502 99.5975,29.6992 98.7775,30.1902 C 98.1215,30.6832 97.4645,30.5192 96.8085,30.8472 C 96.3165,33.9652 95.3325,37.5742 92.7065,39.5442 C 90.0815,41.5132 85.8145,41.8412 85.8145,41.8412 C 85.8145,41.8412 86.4705,42.4972 86.6345,42.6612 C 86.9635,42.9892 88.4405,43.8092 90.4095,43.6452 C 92.0495,43.4812 94.1825,42.1692 95.0025,41.1842 C 96.3165,39.5442 97.4645,35.9332 98.4495,33.6372 C 98.7775,32.8162 99.5975,31.3402 99.7615,30.6832 C 100.583,31.0122 100.911,31.1762 102.387,31.8322 C 105.505,32.9802 109.442,33.4722 111.904,33.4722 C 115.841,33.3082 120.436,30.8472 123.226,28.3862 C 123.718,27.8932 124.538,26.7452 124.538,26.7452 C 124.538,26.7452 121.913,25.7612 121.091,25.5972 z"
         id="path46" />
    </g>
    <g
       transform="matrix(1.25,0,0,1.25,375.80898,524.36573)"
       id="g48"
       style="fill:#1c2524;fill-rule:evenodd;stroke:none;stroke-width:1;stroke-linecap:butt;stroke-linejoin:miter;stroke-dasharray:none">
      <path
         d="M 12.4707,3.119 C 13.1267,4.595 12.6337,6.236 11.8137,7.384 C 10.1727,9.19 7.8757,10.01 5.5787,9.353 C 4.2656,9.026 2.9531,8.205 2.1328,6.728 C 1.6406,7.876 2.625,8.862 2.4609,9.846 C 2.2969,10.174 1.9687,10.174 1.8047,10.01 C 0.4922,8.205 0,5.579 1.1484,3.611 C 2.625,1.15 5.2497,0 8.2037,0.328 C 9.8447,0.658 11.6497,1.478 12.4707,3.119 z"
         id="path50" />
    </g>
    <g
       transform="matrix(1.25,0,0,1.25,352.01748,524.77573)"
       id="g52"
       style="fill:#1c2524;fill-rule:evenodd;stroke:none;stroke-width:1;stroke-linecap:butt;stroke-linejoin:miter;stroke-dasharray:none">
      <path
         d="M 11.6494,3.775 C 12.7978,5.58 12.3057,8.205 11.1572,9.846 C 10.9932,10.174 10.8291,10.502 10.501,10.174 C 10.0088,9.682 10.665,9.19 10.665,8.534 C 10.8291,8.041 10.9932,7.548 10.8291,7.056 C 9.1885,9.19 6.8916,10.174 4.4297,9.682 C 2.625,9.354 0.9844,8.041 0.3281,6.236 C 0,5.087 0.164,3.775 0.8203,2.791 C 2.4609,0.658 5.5781,0 8.2041,0.986 C 9.5166,1.314 10.9932,2.462 11.6494,3.775 z"
         id="path54" />
    </g>
    <g
       transform="matrix(1.25,0,0,1.25,353.24798,539.54448)"
       id="g56"
       style="fill:#1c2524;fill-rule:evenodd;stroke:none;stroke-width:1;stroke-linecap:butt;stroke-linejoin:miter;stroke-dasharray:none">
      <path
         d="M 30.3555,4.431 C 30.1905,4.758 30.0265,4.758 29.6985,5.251 C 28.8775,4.922 27.8935,4.594 26.9095,4.266 C 18.705,0.984 8.2041,1.969 0.4921,5.251 C 0.3281,4.922 0.164,4.758 0,4.431 C 9.0244,0.492 21.33,0 30.3555,4.431 z"
         id="path58" />
    </g>
    <g
       transform="matrix(1.25,0,0,1.25,353.04286,490.11448)"
       id="g60"
       style="fill:#1c2524;fill-rule:evenodd;stroke:none;stroke-width:1;stroke-linecap:butt;stroke-linejoin:miter;stroke-dasharray:none">
      <path
         d="M 31.9956,0.328 C 30.5196,6.892 26.4166,14.275 19.6895,16.08 C 14.2744,17.557 8.04,16.408 4.4297,11.978 C 1.8047,8.696 0.4922,4.759 0,0.492 C 0.3281,0.328 0.6562,0.328 0.9844,0.328 C 1.4766,6.399 4.7578,13.291 10.8291,15.26 C 16.0801,16.9 22.4785,15.26 26.2526,10.666 C 28.7136,7.548 30.3546,3.774 31.1746,0 C 31.5036,0 31.6676,0 31.9956,0.328 z"
         id="path62" />
    </g>
    <g
       transform="matrix(1.25,0,0,1.25,275.10461,346.74898)"
       id="g64"
       style="fill:#1c2524;fill-rule:evenodd;stroke:none;stroke-width:1;stroke-linecap:butt;stroke-linejoin:miter;stroke-dasharray:none">
      <path
         d="M 13.6182,1.8047 C 12.4697,0.6562 10.6651,0 8.8594,0 C 7.0547,0.164 0,2.4609 0,12.9619 C 0,23.2998 6.3985,26.7451 10.1729,26.7451 C 13.9463,26.7451 17.7207,23.792 19.0332,18.7051 C 19.1973,18.0488 19.0332,17.8848 18.377,17.5566 C 18.377,17.5566 15.916,16.5723 15.916,16.5723 C 15.2588,16.4082 15.2588,16.4082 14.9307,17.3926 C 14.6026,18.0488 13.6182,21.166 10.9932,21.166 C 8.5322,21.166 7.3828,17.3926 7.3828,13.4541 C 7.3828,9.5166 8.0391,5.9062 11.1572,5.9062 C 14.4385,5.9062 14.9307,9.1885 15.2588,10.501 C 15.2588,10.9932 15.4229,10.9932 15.916,10.9932 C 15.916,10.9932 18.2129,10.9932 18.2129,10.9932 C 18.7051,10.9932 18.7051,10.9932 18.7051,9.8447 C 18.7051,9.8447 18.7051,1.4765 18.7051,1.4765 C 18.7051,0.8203 18.7051,0.8203 17.7207,0.8203 C 17.7207,0.8203 15.751,0.8203 15.751,0.8203 C 15.2588,0.8203 15.2588,0.9844 14.9307,1.4765 C 14.7666,1.9687 14.2744,2.2969 13.6182,1.8047 z"
         id="path66" />
    </g>
    <g
       transform="matrix(1.25,0,0,1.25,388.11486,347.77435)"
       id="g68"
       style="fill:#1c2524;fill-rule:evenodd;stroke:none;stroke-width:1;stroke-linecap:butt;stroke-linejoin:miter;stroke-dasharray:none">
      <path
         d="M 16.9,5.0859 C 16.9,5.0859 21.659,20.1816 21.659,20.1816 C 21.823,20.8379 21.823,20.8379 22.151,20.8379 C 22.151,20.8379 22.972,20.8379 22.972,20.8379 C 23.792,20.8379 23.792,20.8379 23.792,21.4951 C 23.792,21.4951 23.792,24.4482 23.792,24.4482 C 23.792,25.2686 23.792,25.4326 23.136,25.4326 C 23.136,25.4326 13.783,25.4326 13.783,25.4326 C 12.963,25.4326 12.963,25.2686 12.963,24.7764 C 12.963,24.7764 12.963,21.8223 12.963,21.8223 C 12.963,20.8379 13.127,20.8379 13.619,20.8379 C 13.619,20.8379 14.604,20.8379 14.604,20.8379 C 15.096,20.8379 15.096,20.8379 14.932,20.1816 C 14.932,20.1816 14.111,17.8848 14.111,17.8848 C 13.947,17.3926 13.783,17.3926 13.291,17.3926 C 13.291,17.3926 7.548,17.3926 7.548,17.3926 C 7.548,17.3926 8.696,13.9473 8.696,13.9473 C 8.696,13.9473 12.142,13.9473 12.307,13.9473 C 12.799,13.9473 12.963,13.9473 12.799,13.4541 C 12.799,13.4541 10.665,6.8916 10.665,6.8916 C 10.501,6.3994 10.337,6.3994 10.173,6.8916 C 10.173,6.8916 8.04,13.4541 8.04,13.4541 C 8.04,13.9473 8.04,13.9473 8.696,13.9473 C 8.696,13.9473 7.548,17.3926 7.548,17.3926 C 6.892,17.3926 6.892,17.3926 6.728,17.8848 C 6.728,17.8848 5.907,20.1816 5.907,20.1816 C 5.743,20.8379 5.743,20.8379 6.235,20.8379 C 6.235,20.8379 7.22,20.8379 7.22,20.8379 C 7.876,20.8379 7.876,21.002 7.876,21.8223 C 7.876,21.8223 7.876,24.7764 7.876,24.7764 C 7.876,25.2686 7.876,25.4326 7.056,25.4326 C 7.056,25.4326 0.492,25.4326 0.492,25.4326 C 0,25.4326 0,25.2686 0,24.4482 C 0,24.4482 0,21.4951 0,21.4951 C 0,20.8379 0,20.8379 0.82,20.8379 C 0.82,20.8379 1.477,20.8379 1.477,20.8379 C 1.805,20.8379 1.969,20.6738 2.133,20.3457 C 2.133,20.3457 6.892,5.0859 6.892,5.0859 C 7.056,4.7588 7.056,4.5947 6.399,4.5947 C 6.399,4.5947 5.415,4.5947 5.415,4.5947 C 4.759,4.5947 4.595,4.5947 4.595,3.9375 C 4.595,3.9375 4.595,0.9844 4.595,0.9844 C 4.595,0 4.759,0 5.743,0 C 5.743,0 18.377,0 18.377,0 C 19.033,0 19.033,0.1641 19.033,0.9844 C 19.033,0.9844 19.033,3.7734 19.033,3.7734 C 19.033,4.4297 19.033,4.4297 18.049,4.4297 C 18.049,4.4297 17.064,4.4297 17.064,4.4297 C 16.736,4.4297 16.736,4.5947 16.9,5.0859 z"
         id="path70" />
    </g>
    <g
       transform="matrix(1.25,0,0,1.25,422.16111,346.74898)"
       id="g72"
       style="fill:#1c2524;fill-rule:evenodd;stroke:none;stroke-width:1;stroke-linecap:butt;stroke-linejoin:miter;stroke-dasharray:none">
      <path
         d="M 12.307,17.2285 C 12.307,17.2285 13.948,17.2285 13.948,17.2285 C 14.768,17.2285 14.768,17.3926 14.768,17.8848 C 14.768,19.1973 13.619,21.166 10.994,21.166 C 8.368,21.166 7.384,17.3926 7.384,13.4541 C 7.384,9.5166 8.04,5.9062 11.159,5.9062 C 13.784,5.9062 14.768,7.7119 15.096,9.0244 C 15.26,9.5166 15.26,9.5166 15.916,9.5166 C 15.916,9.5166 18.213,9.5166 18.213,9.5166 C 18.706,9.5166 18.706,9.5166 18.706,8.3682 C 18.706,8.3682 18.706,1.4765 18.706,1.4765 C 18.706,0.8203 18.541,0.8203 17.557,0.8203 C 17.557,0.8203 15.588,0.8203 15.588,0.8203 C 15.096,0.8203 15.096,0.9844 14.932,1.4765 C 14.768,1.9687 14.112,2.2969 13.455,1.8047 C 12.307,0.6562 10.502,0 8.861,0 C 6.892,0.164 0,2.4609 0,12.9619 C 0,23.2998 6.236,26.7451 10.009,26.7451 C 15.752,26.7451 20.183,22.3154 20.183,14.1103 C 20.183,13.29 20.183,13.29 19.035,13.29 C 19.035,13.29 12.143,13.29 12.143,13.29 C 11.487,13.29 11.487,13.29 11.487,13.9473 C 11.487,13.9473 11.487,16.7363 11.487,16.7363 C 11.487,17.2285 11.487,17.2285 12.307,17.2285 z"
         id="path74" />
    </g>
    <g
       transform="matrix(1.25,0,0,1.25,451.08111,347.77435)"
       id="g76"
       style="fill:#1c2524;fill-rule:evenodd;stroke:none;stroke-width:1;stroke-linecap:butt;stroke-linejoin:miter;stroke-dasharray:none">
      <path
         d="M 11.321,0 C 5.087,0 0,5.7432 0,12.9629 C 0,20.1816 5.087,25.9248 11.321,25.9248 C 17.393,25.9248 22.48,20.1816 22.48,12.9629 C 22.48,5.7432 17.393,0 11.321,0 C 11.321,0 11.157,4.5947 11.157,4.5947 C 13.455,4.5947 15.424,8.3682 15.424,12.9629 C 15.424,17.5566 13.455,21.3311 11.157,21.3311 C 8.86,21.3311 7.056,17.5566 7.056,12.9629 C 7.056,8.3682 8.86,4.5947 11.157,4.5947 C 11.157,4.5947 11.321,0 11.321,0 z"
         id="path78" />
    </g>
    <g
       transform="matrix(1.25,0,0,1.25,305.04848,347.77435)"
       id="g80"
       style="fill:#1c2524;fill-rule:evenodd;stroke:none;stroke-width:1;stroke-linecap:butt;stroke-linejoin:miter;stroke-dasharray:none">
      <path
         d="M 2.1338,20.3457 C 2.1338,20.3457 2.1338,5.25 2.1338,5.25 C 2.1338,4.7588 1.9697,4.5947 1.4775,4.5947 C 1.4775,4.5947 0.8203,4.5947 0.8203,4.5947 C 0,4.5947 0,4.5947 0,4.1016 C 0,4.1016 0,0.6562 0,0.6562 C 0,0.1641 0,0 0.8203,0 C 0.8203,0 9.6816,0 9.6816,0 C 10.3379,0 10.5019,0.1641 10.5019,0.8203 C 10.5019,0.8203 10.5019,3.7734 10.5019,3.7734 C 10.5019,4.4297 10.5019,4.4297 9.6816,4.4297 C 9.6816,4.4297 9.1885,4.4297 9.1885,4.4297 C 8.8603,4.4297 8.8603,4.4297 8.8603,5.0859 C 8.8603,5.0859 8.8603,9.3525 8.8603,9.3525 C 8.8603,10.501 8.8603,10.501 9.6816,10.501 C 9.6816,10.501 14.4394,10.501 14.4394,10.501 C 15.4238,10.501 15.4238,10.501 15.4238,9.3525 C 15.4238,9.3525 15.4238,5.0859 15.4238,5.0859 C 15.4238,4.4297 15.2598,4.4297 14.9316,4.4297 C 14.9316,4.4297 14.4394,4.4297 14.4394,4.4297 C 13.6191,4.4297 13.6191,4.4297 13.6191,3.7734 C 13.6191,3.7734 13.6191,0.8203 13.6191,0.8203 C 13.6191,0.1641 13.7832,0 14.4394,0 C 14.4394,0 23.2998,0 23.2998,0 C 24.2842,0 24.2842,0.1641 24.2842,0.6562 C 24.2842,0.6562 24.2842,4.1016 24.2842,4.1016 C 24.2842,4.5947 24.1201,4.5947 23.4639,4.5947 C 23.4639,4.5947 22.6435,4.5947 22.6435,4.5947 C 22.1514,4.5947 22.1514,4.5947 22.1514,5.25 C 22.1514,5.25 22.1514,20.3457 22.1514,20.3457 C 22.1514,20.8379 22.1514,20.8379 22.8076,20.8379 C 22.8076,20.8379 23.6279,20.8379 23.6279,20.8379 C 24.2842,20.8379 24.2842,20.8379 24.2842,21.8223 C 24.2842,21.8223 24.2842,24.7764 24.2842,24.7764 C 24.2842,25.2686 24.2842,25.4326 23.4639,25.4326 C 23.4639,25.4326 14.1113,25.4326 14.1113,25.4326 C 13.4551,25.4326 13.4551,25.4326 13.4551,24.4482 C 13.4551,24.4482 13.4551,21.4951 13.4551,21.4951 C 13.4551,20.8379 13.4551,20.8379 14.2754,20.8379 C 14.2754,20.8379 14.7676,20.8379 14.7676,20.8379 C 15.2598,20.8379 15.2598,20.8379 15.2598,20.1816 C 15.2598,20.1816 15.2598,15.5879 15.2598,15.5879 C 15.2598,14.4395 15.2598,14.4395 14.4394,14.4395 C 14.4394,14.4395 9.6816,14.4395 9.6816,14.4395 C 9.0244,14.4395 8.8603,14.6035 8.8603,15.5879 C 8.8603,15.5879 8.8603,20.1816 8.8603,20.1816 C 8.8603,20.8379 8.8603,20.8379 9.5176,20.8379 C 9.5176,20.8379 9.8447,20.8379 9.8447,20.8379 C 10.666,20.8379 10.666,20.8379 10.666,21.4951 C 10.666,21.4951 10.666,24.4482 10.666,24.4482 C 10.666,25.2686 10.666,25.4326 10.0088,25.4326 C 10.0088,25.4326 0.8203,25.4326 0.8203,25.4326 C 0,25.4326 0,25.4326 0,24.7764 C 0,24.7764 0,21.8223 0,21.8223 C 0,20.8379 0,20.8379 0.6562,20.8379 C 0.6562,20.8379 1.3135,20.8379 1.3135,20.8379 C 2.1338,20.8379 2.1338,20.8379 2.1338,20.3457 z"
         id="path82" />
    </g>
    <g
       transform="matrix(1.25,0,0,1.25,340.94198,347.77435)"
       id="g84"
       style="fill:#1c2524;fill-rule:evenodd;stroke:none;stroke-width:1;stroke-linecap:butt;stroke-linejoin:miter;stroke-dasharray:none">
      <path
         d="M 2.1328,5.0859 C 2.1328,4.4297 2.1328,4.4297 1.8047,4.4297 C 1.8047,4.4297 0.8203,4.4297 0.8203,4.4297 C 0.1641,4.4297 0,4.4297 0,3.7734 C 0,3.7734 0,0.8203 0,0.8203 C 0,0.1641 0.1641,0 0.8203,0 C 0.8203,0 9.6807,0 9.6807,0 C 10.6651,0 10.6651,0.1641 10.6651,0.6562 C 10.6651,0.6562 10.6651,4.1016 10.6651,4.1016 C 10.6651,4.5947 10.6651,4.5947 9.8448,4.5947 C 9.8448,4.5947 9.5166,4.5947 9.5166,4.5947 C 8.8604,4.5947 8.8604,4.5947 8.8604,5.25 C 8.8604,5.25 8.8604,20.3457 8.8604,20.3457 C 8.8604,20.8379 8.8604,20.8379 9.5166,20.8379 C 9.5166,20.8379 10.1729,20.8379 10.1729,20.8379 C 10.8291,20.8379 10.8291,20.8379 10.8291,21.8223 C 10.8291,21.8223 10.8291,24.7764 10.8291,24.7764 C 10.8291,25.2686 10.8291,25.4326 10.0088,25.4326 C 10.0088,25.4326 0.6563,25.4326 0.6563,25.4326 C 0.1641,25.4326 0,25.4326 0,24.4482 C 0,24.4482 0,21.4951 0,21.4951 C 0,20.8379 0,20.8379 0.8203,20.8379 C 0.8203,20.8379 1.6407,20.8379 1.6407,20.8379 C 2.1328,20.8379 2.1328,20.8379 2.1328,20.1816 C 2.1328,20.1816 2.1328,5.0859 2.1328,5.0859 z"
         id="path86" />
    </g>
    <g
       transform="matrix(1.25,0,0,1.25,358.78624,346.74898)"
       id="g88"
       style="fill:#1c2524;fill-rule:evenodd;stroke:none;stroke-width:1;stroke-linecap:butt;stroke-linejoin:miter;stroke-dasharray:none">
      <path
         d="M 13.4541,1.8047 C 12.3057,0.6562 10.6651,0 8.8594,0 C 7.0547,0.164 0,2.4609 0,12.9619 C 0,23.2998 6.2344,26.7451 10.0088,26.7451 C 13.9463,26.7451 17.7207,23.792 18.8679,18.7051 C 19.1969,18.0488 19.0329,17.8848 18.2119,17.5566 C 18.2119,17.5566 15.751,16.5723 15.751,16.5723 C 15.2588,16.4082 15.2588,16.4082 14.7666,17.3926 C 14.6026,18.0488 13.4541,21.166 10.9932,21.166 C 8.3682,21.166 7.3828,17.3926 7.3828,13.4541 C 7.3828,9.5166 8.0391,5.9062 11.1573,5.9062 C 14.2744,5.9062 14.9307,9.1885 15.0948,10.501 C 15.2588,10.9932 15.2588,10.9932 15.9151,10.9932 C 15.9151,10.9932 18.2119,10.9932 18.2119,10.9932 C 18.7049,10.9932 18.7049,10.9932 18.7049,9.8447 C 18.7049,9.8447 18.7049,1.4765 18.7049,1.4765 C 18.7049,0.8203 18.5409,0.8203 17.7207,0.8203 C 17.7207,0.8203 15.5869,0.8203 15.5869,0.8203 C 15.2588,0.8203 15.2588,0.9844 14.9307,1.4765 C 14.7666,1.9687 14.2744,2.2969 13.4541,1.8047 z"
         id="path90" />
    </g>
    <g
       transform="matrix(1.25,0,0,1.25,303.20273,387.76948)"
       id="g92"
       style="fill:#1c2524;fill-rule:evenodd;stroke:none;stroke-width:1;stroke-linecap:butt;stroke-linejoin:miter;stroke-dasharray:none">
      <path
         d="M 2.1328,5.25 C 2.1328,5.25 2.1328,20.1816 2.1328,20.1816 C 2.1328,20.6738 1.9688,20.8379 1.4766,20.8379 C 1.4766,20.8379 0.6563,20.8379 0.6563,20.8379 C 0.1641,20.8379 0,20.8379 0,21.4941 C 0,21.4941 0,24.6123 0,24.6123 C 0,25.2685 0.1641,25.2685 0.8203,25.2685 C 0.8203,25.2685 14.6035,25.2685 14.6035,25.2685 C 14.6035,25.2685 9.8448,20.5098 9.8448,20.5098 C 9.0244,20.5098 8.8604,20.5098 8.8604,19.5254 C 8.8604,19.5254 8.8604,15.2598 8.8604,15.2598 C 8.8604,14.4385 9.0244,14.2744 9.8448,14.2744 C 9.8448,14.2744 9.8448,10.501 9.8448,10.501 C 8.8604,10.501 8.8604,10.3369 8.8604,9.5166 C 8.8604,9.5166 8.8604,5.25 8.8604,5.25 C 8.8604,4.2656 8.8604,4.2656 9.8448,4.2656 C 10.6651,4.2656 14.2754,4.4297 14.2754,7.5469 C 14.2754,10.501 10.9942,10.501 9.8448,10.501 C 9.8448,10.501 9.8448,14.2744 9.8448,14.2744 C 10.8291,14.2744 14.2754,14.4385 14.2754,17.5566 C 14.2754,20.6738 10.9942,20.5098 9.8448,20.5098 C 9.8448,20.5098 14.6035,25.2685 14.6035,25.2685 C 18.0489,25.2685 20.5108,22.1504 20.5108,18.7051 C 20.5108,15.0947 18.377,13.7822 16.5723,12.4697 C 17.7207,11.3213 20.0186,10.0088 20.0186,6.3984 C 20.0186,2.4609 16.0801,0 13.7832,0 C 13.7832,0 1.1485,0 1.1485,0 C 0.1641,0 0,0 0,0.8203 C 0,0.8203 0,3.9375 0,3.9375 C 0,4.4297 0,4.5937 0.8203,4.5937 C 0.8203,4.5937 1.6407,4.5937 1.6407,4.5937 C 2.1328,4.5937 2.1328,4.5937 2.1328,5.25 z"
         id="path94" />
    </g>
    <g
       transform="matrix(1.25,0,0,1.25,333.35286,387.76948)"
       id="g96"
       style="fill:#1c2524;fill-rule:evenodd;stroke:none;stroke-width:1;stroke-linecap:butt;stroke-linejoin:miter;stroke-dasharray:none">
      <path
         d="M 19.8536,5.0859 C 19.8536,5.0859 19.8536,18.0488 19.8536,18.0488 C 19.8536,21.3301 18.2129,26.0889 11.6495,26.0889 C 5.251,26.0889 2.1329,21.3301 2.1329,18.0488 C 2.1329,18.0488 2.1329,5.0859 2.1329,5.0859 C 2.1329,4.5937 1.9688,4.5937 1.4766,4.5937 C 1.4766,4.5937 0.6563,4.5937 0.6563,4.5937 C 0,4.5937 0,4.4297 0,3.7734 C 0,3.7734 0,0.9844 0,0.9844 C 0,0 0,0 0.9844,0 C 0.9844,0 9.6807,0 9.6807,0 C 10.337,0 10.501,0 10.501,0.8203 C 10.501,0.8203 10.501,3.7734 10.501,3.7734 C 10.501,4.4297 10.501,4.4297 9.5166,4.4297 C 9.5166,4.4297 8.8604,4.4297 8.8604,4.4297 C 8.3682,4.4297 8.3682,4.4297 8.3682,4.9219 C 8.3682,4.9219 8.3682,17.5566 8.3682,17.5566 C 8.3682,18.8691 9.5166,21.166 12.1426,21.166 C 15.4239,21.166 16.0801,18.7051 16.0801,17.5566 C 16.0801,17.5566 16.0801,5.0859 16.0801,5.0859 C 16.0801,4.4297 15.9161,4.4297 15.4239,4.4297 C 15.4239,4.4297 14.7676,4.4297 14.7676,4.4297 C 13.9473,4.4297 13.9473,4.4297 13.9473,3.7734 C 13.9473,3.7734 13.9473,0.8203 13.9473,0.8203 C 13.9473,0 13.9473,0 14.6036,0 C 14.6036,0 21.167,0 21.167,0 C 22.3155,0 22.3155,0 22.3155,0.8203 C 22.3155,0.8203 22.3155,3.7734 22.3155,3.7734 C 22.3155,4.4297 22.3155,4.5937 21.4952,4.5937 C 21.4952,4.5937 20.5098,4.5937 20.5098,4.5937 C 20.0176,4.5937 19.8536,4.5937 19.8536,5.0859 z"
         id="path98" />
    </g>
    <g
       transform="matrix(1.25,0,0,1.25,394.67861,387.76948)"
       id="g100"
       style="fill:#1c2524;fill-rule:evenodd;stroke:none;stroke-width:1;stroke-linecap:butt;stroke-linejoin:miter;stroke-dasharray:none">
      <path
         d="M 1.477,20.8379 C 1.477,20.8379 0.656,20.8379 0.656,20.8379 C 0,20.8379 0,20.8379 0,21.6582 C 0,21.6582 0,24.6123 0,24.6123 C 0,25.2685 0,25.2685 0.656,25.2685 C 0.656,25.2685 16.9,25.2685 16.9,25.2685 C 17.557,25.2685 17.721,25.2685 17.721,24.2832 C 17.721,24.2832 17.721,17.0644 17.721,17.0644 C 17.721,16.4082 17.721,16.2441 16.9,16.2441 C 16.9,16.2441 14.603,16.2441 14.603,16.2441 C 13.782,16.2441 13.782,16.4082 13.782,17.2285 C 13.782,17.2285 13.782,19.8535 13.782,19.8535 C 13.782,20.8379 13.782,20.8379 12.962,20.8379 C 12.962,20.8379 9.517,20.8379 9.517,20.8379 C 8.368,20.8379 8.368,20.6738 8.368,20.0176 C 8.368,20.0176 8.368,5.4141 8.368,5.4141 C 8.368,4.4297 8.368,4.4297 8.86,4.4297 C 8.86,4.4297 9.845,4.4297 9.845,4.4297 C 10.501,4.4297 10.501,4.2656 10.501,3.7734 C 10.501,3.7734 10.501,0.8203 10.501,0.8203 C 10.501,0 10.501,0 9.681,0 C 9.681,0 0.984,0 0.984,0 C 0,0 0,0 0,0.8203 C 0,0.8203 0,3.7734 0,3.7734 C 0,4.4297 0,4.5937 0.656,4.5937 C 0.656,4.5937 1.477,4.5937 1.477,4.5937 C 1.969,4.5937 2.133,4.5937 2.133,5.4141 C 2.133,5.4141 2.133,20.0176 2.133,20.0176 C 2.133,20.6738 1.969,20.8379 1.477,20.8379 z"
         id="path102" />
    </g>
    <g
       transform="matrix(1.25,0,0,1.25,422.57236,386.9491)"
       id="g104"
       style="fill:#1c2524;fill-rule:evenodd;stroke:none;stroke-width:1;stroke-linecap:butt;stroke-linejoin:miter;stroke-dasharray:none">
      <path
         d="M 16.736,18.8692 C 16.736,24.2842 11.65,26.5811 9.516,26.5811 C 7.875,26.5811 6.071,25.9248 4.922,24.9395 C 4.102,24.2842 3.446,24.9395 3.282,25.2686 C 2.789,25.9248 2.789,25.9248 2.461,25.9248 C 2.461,25.9248 1.477,25.9248 1.477,25.9248 C 0.328,25.9248 0.328,25.9248 0.328,25.4327 C 0.328,25.4327 0.328,18.377 0.328,18.377 C 0.328,17.3926 0.492,17.3926 0.821,17.3926 C 0.821,17.3926 2.461,17.3926 2.461,17.3926 C 3.118,17.3926 3.118,17.3926 3.282,17.8848 C 3.61,19.3614 5.25,21.3301 7.711,21.3301 C 9.024,21.3301 10.009,21.002 10.009,19.8536 C 10.009,17.5567 8.696,17.0645 6.235,15.751 C 3.774,14.4385 0,12.962 0,7.5479 C 0,2.2969 4.922,0 7.055,0 C 8.696,0 10.337,0.6563 11.486,1.6407 C 12.306,2.2969 12.962,1.6407 13.126,1.3125 C 13.455,0.4922 13.455,0.4922 13.783,0.4922 C 13.783,0.4922 14.931,0.4922 14.931,0.4922 C 15.915,0.4922 15.915,0.4922 15.915,1.1485 C 15.915,1.1485 15.915,8.0391 15.915,8.0391 C 15.915,9.1885 15.915,9.1885 15.423,9.1885 C 15.423,9.1885 13.947,9.1885 13.947,9.1885 C 13.29,9.1885 13.29,9.1885 13.126,8.6963 C 12.634,7.2188 10.994,5.25 8.368,5.25 C 7.219,5.25 6.563,5.9063 6.563,6.8907 C 6.563,8.3682 8.204,9.6807 11.158,10.9932 C 13.947,12.3057 16.736,14.4385 16.736,18.8692 z"
         id="path106" />
    </g>
    <g
       transform="matrix(1.25,0,0,1.25,366.57924,387.76948)"
       id="g108"
       style="fill:#1c2524;fill-rule:evenodd;stroke:none;stroke-width:1;stroke-linecap:butt;stroke-linejoin:miter;stroke-dasharray:none">
      <path
         d="M 1.4766,20.8379 C 1.4766,20.8379 0.6563,20.8379 0.6563,20.8379 C 0,20.8379 0,20.8379 0,21.6582 C 0,21.6582 0,24.6123 0,24.6123 C 0,25.2685 0,25.2685 0.6563,25.2685 C 0.6563,25.2685 16.9005,25.2685 16.9005,25.2685 C 17.5565,25.2685 17.7205,25.2685 17.7205,24.2832 C 17.7205,24.2832 17.7205,17.0644 17.7205,17.0644 C 17.7205,16.4082 17.7205,16.2441 16.9005,16.2441 C 16.9005,16.2441 14.6035,16.2441 14.6035,16.2441 C 13.7835,16.2441 13.7835,16.4082 13.7835,17.2285 C 13.7835,17.2285 13.7835,19.8535 13.7835,19.8535 C 13.7835,20.8379 13.7835,20.8379 12.9625,20.8379 C 12.9625,20.8379 9.5166,20.8379 9.5166,20.8379 C 8.3682,20.8379 8.3682,20.6738 8.3682,20.0176 C 8.3682,20.0176 8.3682,5.4141 8.3682,5.4141 C 8.3682,4.4297 8.3682,4.4297 8.8604,4.4297 C 8.8604,4.4297 9.8447,4.4297 9.8447,4.4297 C 10.501,4.4297 10.501,4.2656 10.501,3.7734 C 10.501,3.7734 10.501,0.8203 10.501,0.8203 C 10.501,0 10.501,0 9.6807,0 C 9.6807,0 0.9844,0 0.9844,0 C 0,0 0,0 0,0.8203 C 0,0.8203 0,3.7734 0,3.7734 C 0,4.4297 0,4.5937 0.6563,4.5937 C 0.6563,4.5937 1.4766,4.5937 1.4766,4.5937 C 1.9688,4.5937 2.1338,4.5937 2.1338,5.4141 C 2.1338,5.4141 2.1338,20.0176 2.1338,20.0176 C 2.1338,20.6738 1.9688,20.8379 1.4766,20.8379 z"
         id="path110" />
    </g>
    <g
       transform="matrix(1.25,0,0,1.25,283.51286,418.32973)"
       id="g112"
       style="fill:#ffffff;fill-rule:evenodd;stroke:none;stroke-width:1;stroke-linecap:butt;stroke-linejoin:miter;stroke-dasharray:none">
      <path
         d="M 10.0097,5.7422 C 13.4551,12.4698 20.6748,14.7666 27.8945,14.4385 C 31.9961,14.4385 35.9345,13.9463 39.872,13.6182 C 39.872,13.6182 39.872,13.9463 39.872,13.9463 C 37.9033,19.6895 36.4267,25.5957 35.6054,31.6668 C 25.1045,31.9948 14.4394,31.1748 6.5635,24.1192 C 1.3125,18.8692 0,11.4854 1.1484,4.2657 C 2.4619,2.7891 3.7744,1.4766 4.9228,0 C 6.7275,1.8047 9.5166,3.2813 10.0097,5.7422 z"
         id="path114" />
    </g>
    <g
       transform="matrix(1.25,0,0,1.25,411.08611,418.94498)"
       id="g116"
       style="fill:#ffffff;fill-rule:evenodd;stroke:none;stroke-width:1;stroke-linecap:butt;stroke-linejoin:miter;stroke-dasharray:none">
      <path
         d="M 38.56,2.1328 C 38.888,3.2813 38.888,4.2656 39.052,5.25 C 39.544,13.4541 36.099,20.8379 29.043,24.9405 C 21.495,29.5346 12.799,31.1746 3.61,31.3386 C 3.446,30.5186 3.282,29.3706 3.282,28.5496 C 2.462,23.1348 1.477,17.7207 0,12.6338 C 9.845,12.6338 21.987,15.2588 28.551,6.0703 C 29.371,4.7578 30.191,3.6094 31.012,2.2969 C 32.488,1.6406 33.965,0.6563 35.277,0 C 36.426,0.4922 37.411,1.4766 38.56,2.1328 z"
         id="path118" />
    </g>
    <g
       transform="matrix(1.25,0,0,1.25,402.06111,472.88698)"
       id="g120"
       style="fill:#ffffff;fill-rule:evenodd;stroke:none;stroke-width:1;stroke-linecap:butt;stroke-linejoin:miter;stroke-dasharray:none">
      <path
         d="M 8.204,0 C 8.204,3.117 7.22,6.234 4.431,7.712 C 3.118,8.368 1.642,8.696 0.164,8.696 C 0,8.368 0,8.04 0.164,7.712 C 2.298,7.712 4.595,6.89 5.743,5.086 C 6.564,3.773 6.892,2.133 6.892,0.492 C 7.22,0.164 7.712,0 8.204,0 z"
         id="path122" />
    </g>
    <g
       transform="matrix(1.25,0,0,1.25,331.30211,473.29698)"
       id="g124"
       style="fill:#ffffff;fill-rule:evenodd;stroke:none;stroke-width:1;stroke-linecap:butt;stroke-linejoin:miter;stroke-dasharray:none">
      <path
         d="M 8.8604,8.04 C 8.3682,8.04 8.2041,8.204 7.3838,8.04 C 3.7735,8.04 0,5.086 0.1641,0.164 C 0.6563,0 1.1485,0 1.4766,0.164 C 1.4766,2.953 2.625,6.89 8.6963,6.89 C 9.0244,7.547 8.6963,7.547 8.8604,8.04 z"
         id="path126" />
    </g>
  </g>
</svg>
