<svg width="512" height="512" viewBox="0 0 512 512" xmlns="http://www.w3.org/2000/svg" xmlns:sketch="http://www.bohemiancoding.com/sketch/ns"><title>chicago-bulls</title><desc>Created with Sketch.</desc><g sketch:type="MSShapeGroup" fill="none"><path d="M398.692 218.235c-1.037-20.71-10.375-39.694-15.91-50.74l-3.111-6.212.346 5.522c.691 7.25 2.42 32.792-5.187 47.289-9.686 19.674-37.353 17.949-46.693 17.259h-.691c-14.871-1.035-63.638-2.761-78.854-2.761-19.716 0-41.504 1.726-59.143 3.106-8.646.69-15.908 1.035-21.097 1.38h-1.729c-24.555 2.416-40.119-4.832-46.344-21.4-3.806-10.356-3.46-30.376-3.46-40.039v-6.905l-2.075 3.451c-4.496 8.63-13.143 24.508-15.91 50.74-1.729 31.411 14.526 42.457 26.632 47.979 12.797 6.212 26.284 6.904 30.436 7.249h.344c.692 0 1.731 0 2.769.345 1.383 0 2.767 0 4.15.345-2.075.345-5.187 1.037-7.956 1.382-2.767.343-5.533 1.033-6.916 1.38-3.112.345-15.218 3.452-22.134 5.522-5.533 2.072-11.76 4.832-11.76 4.832l-1.037.69.692 1.035s2.075 2.762 4.15 4.832c4.498 4.489 16.601 12.081 31.128 10.356 11.76-1.725 17.985-4.142 20.405-5.522 1.037 2.417 2.767 8.284 4.496 12.769 5.19 13.118 17.293 38.316 21.791 46.945 3.804 6.904 7.262 13.117 9.683 17.259l1.037 1.38c-.692 2.762-2.767 4.487-4.15 5.869l-1.037.688-.346.345v.349c0 2.415-.692 24.161 14.181 40.039l.346.345c7.608 2.76 16.947 5.522 32.511 5.522 15.908 0 29.05-3.452 33.892-5.867v-.345h.348c10.375-12.083 14.871-30.377 15.217-37.279v-.345l-.346-.345-1.037-.69c-1.385-1.729-3.459-3.454-4.496-7.941 1.037-2.07 3.459-7.248 5.533-11.392 1.383-2.415 2.074-4.487 2.768-5.522 4.15-8.627 16.945-35.897 22.134-48.67 3.113-8.282 4.842-12.424 5.879-13.804 2.076 1.035 8.301 3.797 19.715 4.832 14.527 1.725 28.707-8.284 32.511-13.808l2.074-2.07.691-1.035-1.037-.69c-.346 0-.691 0-2.765-1.035l-16.601-5.177c-2.076-1.037-12.107-3.109-19.369-4.489l-5.533-1.38 1.728-.347c16.949-2.76 61.909-10.698 59.142-55.226z" fill="#1C2524"/><path d="M114.743 173.364c-.346 11.734-.346 24.161 2.421 35.207-2.421-2.071-5.187-4.832-7.608-6.905l-6.916 7.595c2.421-12.427 6.571-24.508 12.104-35.898zM394.196 204.084l.691 3.106-5.881-4.144c-2.765 1.038-5.187 2.763-7.953 4.144 2.074-11.046 2.42-22.783 1.728-34.517 5.187 10.009 8.301 20.71 11.414 31.411zM248.936 313.504c6.225 9.662 17.984 12.424 28.358 9.662 4.15-.69 7.957-2.415 11.414-3.795-3.111 10.009-5.533 21.401-5.19 32.792 0 10.007 1.733 19.673 4.498 28.648-1.383-.69-2.765-1.727-4.498-2.417-21.442-10.699-51.184-10.354-72.283.69 1.039-3.45 2.077-6.902 2.769-10.352 3.458-16.223 1.037-33.137-4.498-47.635 11.414 4.832 27.669 5.867 37.007-4.832 1.04-.69 1.385-1.725 2.423-2.76zM201.554 321.441c-.692 4.832-2.075 9.666-6.916 11.391-3.804 1.035-7.61-1.037-10.031-3.797-1.037-1.382-2.075-2.762-2.421-4.487 5.879 3.795 13.835.69 19.022-3.107h.346zM315.685 322.131c-1.383 4.142-4.842 8.286-9.336 8.976-3.113.688-5.881-1.037-7.955-3.799-1.039-1.38-1.385-3.105-1.731-4.832 5.19 4.142 13.488 3.107 19.021-.345zM303.927 333.867c2.074.345 4.496 0 6.57-.69-5.879 14.843-13.142 29.338-20.75 43.836-2.422-7.247-2.076-15.188-1.385-23.126 1.037-9.666 3.459-18.983 6.224-27.96 1.731 3.797 5.187 7.249 9.34 7.939zM209.161 377.013c-8.991-13.806-15.908-28.303-22.826-43.146 3.112 1.382 7.956 2.762 11.068.345 3.112-2.07 4.842-5.177 5.879-8.629 7.61 14.843 9.339 34.517 5.879 51.43zM294.588 388.75c-1.728 12.771-6.224 24.163-14.525 34.172-18.677 7.594-44.269 8.284-62.945.345-9.339-10.354-12.797-23.128-13.489-36.932 20.059-14.498 51.533-17.603 74.358-7.251 5.881 2.762 11.414 5.522 16.601 9.666zM372.059 284.854c-15.558-6.214-35.966-9.666-52.912-10.011-1.731-19.33-3.807-31.065-7.611-41.766-8.644-.69-48.072-2.071-62.944-2.071-15.218 0-53.608 2.416-62.601 2.761-3.458 10.356-7.608 23.126-9.337 42.113-17.293 1.033-40.813 5.867-56.375 11.734-2.423 1.035-3.46 1.725-3.46 1.725 2.421 2.762 11.068 13.118 27.324 13.463 5.187 0 14.872-.69 21.443-3.452 1.729-1.035 5.187-2.415 5.187-2.415s1.037 2.07 1.729 3.795c1.729 4.832 3.806 11.734 5.189 14.843 2.421 4.487 5.879 7.937 12.104 8.284 5.189 0 8.993-4.487 9.685-5.177-15.218-1.037-21.443-8.976-22.48-21.401-3.804-.69-4.843-1.035-5.189-2.764-.346-2.07.346-4.14 1.731-6.557 1.729-2.07 4.496-4.487 11.758-2.07 4.842 1.38 8.648 4.487 11.068 6.902 3.458 2.762 12.451 12.081 17.985 15.533 5.879 3.45 16.947 6.559 24.209-.69 7.264-6.904 7.954-12.773 8.993-16.223-12.451-.345-23.866-1.727-34.586-3.107-3.115-.345-1.731-3.45.692-2.76 0 0 20.059 2.76 34.24 2.76v-7.592c-8.302-.345-22.136-1.035-35.277-3.799-2.769-.688-2.421-3.797.346-3.105 1.729.69 23.518 3.797 35.277 3.797v-9.666c-7.61.347-19.022-.69-34.932-3.105-2.767-.345-2.421-2.761 0-2.761 0 0 20.059 3.106 34.932 2.761v-7.595c0-2.761 2.421-3.106 2.421 0 0 1.037.346 3.798.346 7.595 14.18-.345 26.975-2.071 32.856-3.106 3.459-.69 3.113 2.071 1.385 2.416-2.076.345-18.678 3.45-34.587 3.795l.346 9.319c10.72-.345 22.827-.69 33.549-3.105 3.803-.692 4.148 2.415.691 2.76-10.377 1.727-25.249 3.454-34.241 3.799 0 2.415 0 5.522.346 7.592 16.948-.345 32.858-2.76 35.623-3.105 2.768-.692 3.459 2.415.346 2.76-2.765.345-22.828 3.107-35.623 3.107 1.383 4.487 1.383 10.701 7.608 15.876 6.226 5.177 16.255 4.832 23.519.692 5.533-3.107 14.179-12.773 17.293-15.533 2.768-2.417 8.992-7.939 17.293-7.939 7.955 0 8.301 4.487 8.646 5.522.346 1.382.691 3.799-1.037 4.832-1.383 1.037-2.768.692-4.15 1.382-1.037 6.559-3.111 14.151-8.646 18.296-5.533 4.142-14.527 4.832-14.527 4.832l1.728 1.725c.693.69 3.807 2.415 7.957 2.07 3.457-.345 7.953-3.105 9.681-5.177 2.77-3.45 5.19-11.046 7.266-15.876.691-1.727 2.42-4.832 2.765-6.214 1.732.692 2.423 1.037 5.534 2.417 6.572 2.415 14.871 3.45 20.06 3.45 8.299-.345 17.984-5.522 23.865-10.699 1.037-1.037 2.765-3.452 2.765-3.452s-5.533-2.07-7.266-2.415z" fill="#D2153A"/><path d="M281.101 390.477c1.383 3.105.344 6.557-1.385 8.972-3.459 3.799-8.301 5.524-13.142 4.142-2.768-.688-5.534-2.415-7.263-5.522-1.037 2.415 1.037 4.489.692 6.559-.346.69-1.037.69-1.383.345-2.767-3.797-3.804-9.321-1.383-13.461 3.112-5.177 8.645-7.596 14.871-6.906 3.459.694 7.264 2.419 8.994 5.871zM239.252 392.547c2.421 3.797 1.383 9.319-1.037 12.771-.346.69-.692 1.38-1.383.69-1.037-1.035.346-2.07.346-3.45.346-1.037.692-2.074.346-3.109-3.458 4.489-8.3 6.559-13.489 5.524-3.804-.69-7.262-3.452-8.646-7.249-.692-2.417-.346-5.177 1.037-7.247 3.458-4.487 10.029-5.871 15.564-3.797 2.767.69 5.879 3.105 7.262 5.867zM280.757 418.782c-.348.688-.693.688-1.385 1.725-1.731-.692-3.805-1.382-5.879-2.072-17.294-6.904-39.428-4.832-55.684 2.072l-1.037-1.725c19.022-8.286 44.96-9.321 63.985 0zM283.868 326.963c-3.111 13.808-11.76 29.34-25.939 33.137-11.414 3.107-24.555.69-32.165-8.629-5.533-6.904-8.3-15.186-9.337-24.163.692-.345 1.383-.345 2.075-.345 1.037 12.771 7.954 27.27 20.751 31.412 11.068 3.45 24.555 0 32.51-9.664 5.187-6.559 8.646-14.498 10.375-22.438.693 0 1.039 0 1.731.69zM113.705 88.796c-2.421-2.416-6.225-3.796-10.031-3.796-3.804.345-18.674 5.177-18.674 27.267 0 21.747 13.487 28.995 21.443 28.995 7.954 0 15.91-6.212 18.676-16.913.346-1.381 0-1.726-1.383-2.416l-5.187-2.071c-1.385-.345-1.385-.345-2.077 1.726-.692 1.38-2.767 7.938-8.3 7.938-5.187 0-7.61-7.938-7.61-16.223 0-8.283 1.383-15.878 7.956-15.878 6.916 0 7.954 6.905 8.646 9.666 0 1.035.346 1.035 1.385 1.035h4.842c1.037 0 1.037 0 1.037-2.416v-17.604c0-1.38 0-1.38-2.075-1.38h-4.152c-1.037 0-1.037.345-1.729 1.38-.346 1.035-1.383 1.726-2.767.69zM311.19 97.424l10.031 31.756c.346 1.381.346 1.381 1.037 1.381h1.731c1.728 0 1.728 0 1.728 1.383v6.212c0 1.726 0 2.071-1.383 2.071h-19.715c-1.728 0-1.728-.345-1.728-1.38v-6.214c0-2.071.346-2.071 1.383-2.071h2.076c1.037 0 1.037 0 .691-1.381l-1.731-4.832c-.346-1.035-.691-1.035-1.728-1.035h-12.105l2.42-7.248h7.611c1.037 0 1.383 0 1.037-1.038l-4.498-13.805c-.346-1.035-.691-1.035-1.037 0l-4.496 13.805c0 1.038 0 1.038 1.383 1.038l-2.42 7.248c-1.383 0-1.383 0-1.728 1.035l-1.731 4.832c-.346 1.381-.346 1.381.691 1.381h2.076c1.383 0 1.383.345 1.383 2.071v6.214c0 1.035 0 1.38-1.728 1.38h-13.836c-1.037 0-1.037-.345-1.037-2.071v-6.212c0-1.383 0-1.383 1.728-1.383h1.385c.691 0 1.037-.345 1.383-1.035l10.031-32.101c.346-.688.346-1.033-1.039-1.033h-2.074c-1.383 0-1.728 0-1.728-1.383v-6.212c0-2.071.346-2.071 2.42-2.071h26.63c1.383 0 1.383.345 1.383 2.071v5.867c0 1.381 0 1.381-2.074 1.381h-2.076c-.691 0-.691.347-.346 1.38zM358.919 121.243h3.459c1.728 0 1.728.345 1.728 1.381 0 2.761-2.422 6.903-7.955 6.903-5.535 0-7.609-7.938-7.609-16.223 0-8.283 1.383-15.878 7.957-15.878 5.533 0 7.607 3.799 8.299 6.56.346 1.035.346 1.035 1.728 1.035h4.842c1.039 0 1.039 0 1.039-2.416v-14.498c0-1.38-.348-1.38-2.422-1.38h-4.15c-1.037 0-1.037.345-1.383 1.38-.346 1.035-1.728 1.726-3.113.69-2.42-2.416-6.224-3.796-9.683-3.796-4.15.345-18.678 5.177-18.678 27.267 0 21.747 13.145 28.995 21.097 28.995 12.105 0 21.445-9.319 21.445-26.579 0-1.726 0-1.726-2.42-1.726h-14.527c-1.383 0-1.383 0-1.383 1.383v5.867c0 1.035 0 1.035 1.728 1.035zM405.608 86.725c-13.14 0-23.863 12.082-23.863 27.27 0 15.186 10.723 27.267 23.863 27.267 12.799 0 23.521-12.082 23.521-27.267 0-15.188-10.723-27.27-23.521-27.27l-.346 9.666c4.844 0 8.994 7.938 8.994 17.604 0 9.664-4.15 17.604-8.994 17.604-4.842 0-8.644-7.94-8.644-17.604 0-9.666 3.803-17.604 8.644-17.604l.346-9.666zM139.992 129.525v-31.756c0-1.033-.346-1.379-1.383-1.379h-1.385c-1.729 0-1.729 0-1.729-1.037v-7.248c0-1.035 0-1.38 1.729-1.38h18.678c1.383 0 1.729.345 1.729 1.726v6.212c0 1.381 0 1.381-1.729 1.381h-1.039c-.692 0-.692 0-.692 1.38v8.975c0 2.416 0 2.416 1.731 2.416h10.029c2.075 0 2.075 0 2.075-2.416v-8.975c0-1.38-.346-1.38-1.037-1.38h-1.037c-1.729 0-1.729 0-1.729-1.381v-6.212c0-1.38.346-1.726 1.729-1.726h18.676c2.075 0 2.075.345 2.075 1.38v7.248c0 1.037-.346 1.037-1.729 1.037h-1.729c-1.037 0-1.037 0-1.037 1.379v31.756c0 1.035 0 1.035 1.383 1.035h1.729c1.383 0 1.383 0 1.383 2.071v6.214c0 1.035 0 1.38-1.729 1.38h-19.714c-1.383 0-1.383 0-1.383-2.071v-6.212c0-1.383 0-1.383 1.729-1.383h1.037c1.037 0 1.037 0 1.037-1.381v-9.664c0-2.416 0-2.416-1.729-2.416h-10.029c-1.385 0-1.731.345-1.731 2.416v9.664c0 1.381 0 1.381 1.385 1.381h.689c1.731 0 1.731 0 1.731 1.383v6.212c0 1.726 0 2.071-1.385 2.071h-19.368c-1.729 0-1.729 0-1.729-1.38v-6.214c0-2.071 0-2.071 1.383-2.071h1.385c1.729 0 1.729 0 1.729-1.035zM200.516 97.424c0-1.38 0-1.38-.692-1.38h-2.075c-1.383 0-1.729 0-1.729-1.381v-6.212c0-1.38.346-1.726 1.729-1.726h18.676c2.075 0 2.075.345 2.075 1.38v7.248c0 1.037 0 1.037-1.729 1.037h-.692c-1.383 0-1.383 0-1.383 1.379v31.756c0 1.035 0 1.035 1.383 1.035h1.383c1.383 0 1.383 0 1.383 2.071v6.214c0 1.035 0 1.38-1.729 1.38h-19.714c-1.037 0-1.383 0-1.383-2.071v-6.212c0-1.383 0-1.383 1.729-1.383h1.729c1.037 0 1.037 0 1.037-1.381v-31.756zM254.47 88.796c-2.421-2.416-5.879-3.796-9.685-3.796-3.804.345-18.674 5.177-18.674 27.267 0 21.747 13.141 28.995 21.097 28.995 8.3 0 16.255-6.212 18.674-16.913.693-1.381.348-1.726-1.383-2.416l-5.187-2.071c-1.037-.345-1.037-.345-2.075 1.726-.346 1.38-2.767 7.938-7.954 7.938-5.533 0-7.61-7.938-7.61-16.223 0-8.283 1.383-15.878 7.956-15.878 6.57 0 7.954 6.905 8.3 9.666.346 1.035.346 1.035 1.729 1.035h4.841c1.039 0 1.039 0 1.039-2.416v-17.604c0-1.38-.346-1.38-2.075-1.38h-4.498c-.692 0-.692.345-1.383 1.38-.346 1.035-1.383 1.726-3.112.69zM136.878 165.078v31.411c0 1.035-.346 1.381-1.383 1.381h-1.729c-1.037 0-1.383 0-1.383 1.38v6.56c0 1.38.346 1.38 1.729 1.38h29.053l-10.031-10.011c-1.729 0-2.075 0-2.075-2.071v-8.973c0-1.728.346-2.073 2.075-2.073v-7.938c-2.075 0-2.075-.345-2.075-2.071v-8.975c0-2.071 0-2.071 2.075-2.071 1.729 0 9.339.345 9.339 6.903 0 6.214-6.916 6.214-9.339 6.214v7.938c2.075 0 9.339.345 9.339 6.905 0 6.558-6.916 6.213-9.339 6.213l10.031 10.011c7.262 0 12.452-6.559 12.452-13.807 0-7.595-4.498-10.356-8.302-13.117 2.421-2.416 7.264-5.177 7.264-12.772 0-8.283-8.302-13.46-13.143-13.46h-26.632c-2.075 0-2.421 0-2.421 1.726v6.558c0 1.035 0 1.38 1.729 1.38h1.729c1.037 0 1.037 0 1.037 1.381zM225.071 164.733v27.27c0 6.903-3.458 16.914-17.293 16.914-13.487 0-20.059-10.011-20.059-16.914v-27.27c0-1.035-.346-1.035-1.383-1.035h-1.729c-1.383 0-1.383-.345-1.383-1.726v-5.867c0-2.071 0-2.071 2.075-2.071h18.33c1.383 0 1.729 0 1.729 1.726v6.212c0 1.381 0 1.381-2.075 1.381h-1.383c-1.037 0-1.037 0-1.037 1.035v26.579c0 2.761 2.421 7.593 7.956 7.593 6.916 0 8.3-5.177 8.3-7.593v-26.234c0-1.38-.346-1.38-1.383-1.38h-1.383c-1.729 0-1.729 0-1.729-1.381v-6.212c0-1.726 0-1.726 1.383-1.726h13.835c2.421 0 2.421 0 2.421 1.726v6.212c0 1.381 0 1.726-1.729 1.726h-2.077c-1.037 0-1.383 0-1.383 1.035zM289.748 197.87h-1.731c-1.383 0-1.383 0-1.383 1.726v6.214c0 1.38 0 1.38 1.383 1.38h34.24c1.385 0 1.731 0 1.731-2.073v-15.186c0-1.38 0-1.726-1.731-1.726h-4.842c-1.731 0-1.731.345-1.731 2.071v5.522c0 2.071 0 2.071-1.728 2.071h-7.262c-2.422 0-2.422-.345-2.422-1.726v-30.721c0-2.071 0-2.071 1.037-2.071h2.076c1.383 0 1.383-.345 1.383-1.381v-6.212c0-1.726 0-1.726-1.728-1.726h-18.332c-2.074 0-2.074 0-2.074 1.726v6.212c0 1.381 0 1.726 1.383 1.726h1.731c1.037 0 1.383 0 1.383 1.726v30.721c0 1.38-.346 1.726-1.383 1.726zM368.949 192.347c0 11.391-10.72 16.223-15.219 16.223-3.459 0-7.262-1.381-9.683-3.453-1.728-1.379-3.111 0-3.457.692-1.039 1.38-1.039 1.38-1.731 1.38h-2.074c-2.422 0-2.422 0-2.422-1.035v-14.843c0-2.071.346-2.071 1.039-2.071h3.457c1.385 0 1.385 0 1.731 1.035.691 3.106 4.148 7.248 9.336 7.248 2.768 0 4.844-.69 4.844-3.106 0-4.832-2.768-5.867-7.955-8.63-5.187-2.761-13.142-5.867-13.142-17.257 0-11.046 10.375-15.878 14.871-15.878 3.459 0 6.918 1.381 9.34 3.451 1.728 1.38 3.111 0 3.457-.69.693-1.726.693-1.726 1.385-1.726h2.42c2.074 0 2.074 0 2.074 1.381v14.495c0 2.418 0 2.418-1.037 2.418h-3.111c-1.385 0-1.385 0-1.731-1.035-1.037-3.108-4.494-7.25-10.029-7.25-2.422 0-3.805 1.381-3.805 3.451 0 3.108 3.459 5.869 9.686 8.63 5.879 2.761 11.758 7.248 11.758 16.568zM242.364 197.87h-1.729c-1.383 0-1.383 0-1.383 1.726v6.214c0 1.38 0 1.38 1.383 1.38h34.24c1.383 0 1.728 0 1.728-2.073v-15.186c0-1.38 0-1.726-1.728-1.726h-4.842c-1.728 0-1.728.345-1.728 2.071v5.522c0 2.071 0 2.071-1.731 2.071h-7.263c-2.421 0-2.421-.345-2.421-1.726v-30.721c0-2.071 0-2.071 1.037-2.071h2.075c1.383 0 1.383-.345 1.383-1.381v-6.212c0-1.726 0-1.726-1.729-1.726h-18.33c-2.075 0-2.075 0-2.075 1.726v6.212c0 1.381 0 1.726 1.383 1.726h1.729c1.037 0 1.385 0 1.385 1.726v30.721c0 1.38-.348 1.726-1.385 1.726z" fill="#1C2524"/><path d="M120.278 217.545c7.262 14.153 22.48 18.984 37.698 18.294 8.646 0 16.947-1.035 25.247-1.726v.69c-4.15 12.082-7.262 24.506-8.993 37.278-22.134.69-44.615-1.035-61.216-15.878-11.068-11.044-13.835-26.577-11.414-41.765 2.769-3.106 5.535-5.867 7.956-8.974 3.804 3.796 9.683 6.903 10.722 12.08zM395.581 210.987c.691 2.416.691 4.487 1.037 6.558 1.037 17.259-6.224 32.792-21.097 41.422-15.91 9.664-34.24 13.114-53.609 13.459-.346-1.725-.691-4.14-.691-5.867-1.728-11.391-3.805-22.78-6.918-33.481 20.752 0 46.345 5.522 60.181-13.807 1.728-2.761 3.457-5.177 5.187-7.938 3.111-1.381 6.224-3.451 8.99-4.832 2.422 1.035 4.498 3.106 6.92 4.487zM316.377 297.281c0 6.557-2.074 13.114-7.953 16.223-2.768 1.38-5.879 2.07-8.994 2.07-.346-.69-.346-1.38 0-2.07 4.498 0 9.34-1.729 11.76-5.524 1.731-2.762 2.422-6.212 2.422-9.664.691-.69 1.728-1.035 2.765-1.035zM198.441 314.884c-1.037 0-1.383.345-3.112 0-7.61 0-15.564-6.214-15.218-16.568 1.037-.345 2.075-.345 2.767 0 0 5.867 2.421 14.149 15.218 14.149.692 1.382 0 1.382.346 2.419z" fill="#fff"/></g></svg>