<?xml version="1.0" encoding="utf-8"?>
<!-- Generator: Adobe Illustrator 12.0.0, SVG Export Plug-In . SVG Version: 6.00 Build 51448)  -->
<!DOCTYPE svg PUBLIC "-//W3C//DTD SVG 1.1//EN" "http://www.w3.org/Graphics/SVG/1.1/DTD/svg11.dtd" [
	<!ENTITY ns_svg "http://www.w3.org/2000/svg">
	<!ENTITY ns_xlink "http://www.w3.org/1999/xlink">
]>
<svg  version="1.1" id="Layer_1" xmlns="&ns_svg;" xmlns:xlink="&ns_xlink;" width="242.646" height="242.147"
	 viewBox="0 0 242.646 242.147" overflow="visible" enable-background="new 0 0 242.646 242.147" xml:space="preserve">
<g>
	<path fill-rule="evenodd" clip-rule="evenodd" d="M18.765,18.214c0,0,5.499,66.48,29.991,117.463c0,0-17.994-4.996-39.989-17.493
		l40.989,104.97c0,0,20.993-12.998,39.987-14.496c0,0,20.495,26.993,30.491,33.489c9.996-6.496,28.991-33.99,28.991-33.99
		c18.994,1.5,38.488,13.997,38.488,13.997l42.488-103.97c-21.994,12.497-36.489,17.493-36.489,17.493
		c21.993-50.982,29.489-117.963,29.489-117.963l-43.985,12.997H61.251L18.765,18.214L18.765,18.214z"/>
	<path fill-rule="evenodd" clip-rule="evenodd" fill="#FFFFFF" d="M61.251,33.785h118.41c0,0,32.63-9.64,39.898-11.789
		c-2.143,15.954-10.406,70.126-28.672,112.466l-3.675,8.714c0,0,37.811-12.573,55.433-21.993
		c-5.41,13.239-38.606,90.77-40.938,96.472c-6.497-2-37.071-11.364-52.241-12.563l-1.765-0.139l-1.006,1.456
		c-4.843,7.008-18.368,25.396-26.478,31.938c-9.942-7.799-27.837-31.298-28.027-31.549l-1.016-1.338l-1.674,0.135
		c-14.254,0.063-49.743,9.561-53.743,14.06C31.527,208.814,3.115,130.163,0,122.185c18.518,9.595,54.287,19.736,54.287,19.736
		l-3.108-7.598C30.836,91.98,24.018,38.149,22.285,22.455c7.055,2.075,38.525,11.33,38.525,11.33H61.251L61.251,33.785z"/>
	<path fill-rule="evenodd" clip-rule="evenodd" fill="#C4CED4" d="M26.263,27.712l29.991,8.996h127.96l29.492-9.497
		c0,0-2.5,45.486-26.993,105.466c-24.491,59.984-66.979,99.473-66.979,99.473s-49.485-53.984-68.979-108.47
		C31.261,69.199,26.263,27.712,26.263,27.712L26.263,27.712z"/>
	<path fill-rule="evenodd" clip-rule="evenodd" fill="#1061AC" d="M7.269,129.181c0,0,41.487,18.494,81.475,22.994
		c39.989,4.497,65.48,0.499,65.48,0.499s40.488-5.498,78.477-23.493l-35.489,82.975c0,0-25.992-7.998-45.487-9.997
		c-19.493-1.997-50.484-1.997-65.479,0c-14.996,1.999-47.486,10.996-47.486,10.996L7.269,129.181L7.269,129.181z"/>
	<path fill-rule="evenodd" clip-rule="evenodd" fill="#FFFFFF" d="M193.052,71.934c0-38.596-32.48-69.884-72.548-69.884
		c-40.067,0-72.548,31.288-72.548,69.884c0,38.595,32.481,69.882,72.548,69.882C160.572,141.816,193.052,110.529,193.052,71.934
		L193.052,71.934z"/>
	<path fill-rule="evenodd" clip-rule="evenodd" d="M45.906,71.934c0,39.664,33.465,71.932,74.598,71.932
		s74.598-32.268,74.598-71.932S161.637,0,120.504,0S45.906,32.27,45.906,71.934L45.906,71.934z M50.005,71.934
		c0-37.404,31.626-67.834,70.499-67.834c38.874,0,70.5,30.431,70.5,67.834s-31.626,67.833-70.5,67.833
		C81.631,139.767,50.005,109.337,50.005,71.934L50.005,71.934z"/>
	<path fill-rule="evenodd" clip-rule="evenodd" fill="#1061AC" d="M188.337,91.864c0,36.474-29.565,66.04-66.041,66.04
		c-36.473,0-66.041-29.565-66.041-66.04s29.568-66.043,66.041-66.043C158.772,25.821,188.337,55.39,188.337,91.864L188.337,91.864z"
		/>
	<path d="M190.797,91.864c0,37.832-30.668,68.5-68.5,68.5c-18.916,0-36.041-7.668-48.438-20.062
		c-12.395-12.398-20.063-29.523-20.063-48.438c0-18.916,7.668-36.041,20.063-48.438c12.397-12.396,29.523-20.064,48.438-20.064
		c18.917,0,36.041,7.667,48.438,20.064C183.13,55.823,190.797,72.948,190.797,91.864L190.797,91.864z M185.877,91.864
		c0-17.558-7.115-33.455-18.619-44.96c-11.508-11.505-27.402-18.623-44.961-18.623c-17.557,0-33.454,7.118-44.958,18.623
		c-11.507,11.505-18.623,27.402-18.623,44.96s7.116,33.455,18.623,44.959c11.505,11.506,27.401,18.622,44.958,18.622
		C157.412,155.446,185.877,126.98,185.877,91.864L185.877,91.864z"/>
	<path fill-rule="evenodd" clip-rule="evenodd" d="M116.609,19.682c0,0-3.05,3.051-3.05,5.162c0,0,12.908,6.806,15.723,11.734
		c0,0,5.164-1.643,8.684-1.408c3.521,0.234,9.152,2.582,9.152,2.582s-5.631,3.05-6.807,4.225c-1.172,1.173-3.988,5.163-3.988,5.163
		s8.918,6.103,19.479,7.041c10.56,0.938,16.429-2.346,16.429-2.346l2.11,0.938l-0.704,1.408c0,0-3.987,1.644-7.51,2.347
		c-3.521,0.704-7.274,1.408-10.325,1.408s-11.5-1.642-14.081-2.582l0.704,3.521c0,0-3.286-3.521-7.041-3.521v1.643
		c0,0,9.153,3.755,17.367,10.092c8.213,6.335,15.488,15.02,15.488,15.02s5.321,5.167,8.918,15.958
		c2.112,6.337,2.348,14.316,2.348,14.316l2.111,1.173l-4.459,9.622l-0.704-3.519c0,0-0.234-8.683-2.816-16.664
		c-2.58-7.979-7.275-13.142-11.5-18.305c-4.223-5.164-17.365-13.846-20.182-15.255c0,0,4.457,8.684,4.692,11.734
		c0,0-3.753-3.755-7.274-4.458c0,0,3.286,2.582,10.327,14.316c7.04,11.734,6.337,27.458,6.337,27.458s-0.704,12.201-1.88,17.366
		c-1.173,5.164-2.58,6.336-2.58,6.336l-1.173-5.867c0,0,2.58-9.387,1.173-20.651c-1.408-11.265-3.991-23.235-12.438-30.744
		c0,0,1.878,6.806,1.409,11.5c-0.472,4.694-3.756,10.795-3.756,10.795s-1.174-11.029-4.46-11.265c0,0,0,3.051-0.234,5.164
		c-0.234,2.111-2.347,6.101-0.938,9.387s3.521,11.969,3.756,12.908c0.234,0.938,0.704,3.521,0.704,3.521s0.469,0.939-0.939,2.111
		c-1.41,1.173-6.337,5.399-6.337,5.399s-3.755,2.111-1.406,2.815c2.345,0.702,15.723,0.702,15.723,0.702s15.021-1.173,24.172-8.448
		c9.153-7.274,16.428-18.069,16.428-18.069l-3.05,13.375c0,0-4.694,13.613-17.368,21.595c-12.672,7.979-36.608,22.057-70.169,7.507
		c-33.56-14.551-39.897-46.231-39.897-46.231s-2.816-9.623-2.346-13.847c0.469-4.224-1.878-9.388,2.581-9.388
		c0,0,0-7.041,2.347-9.387l1.173-4.929c0,0,1.643-11.969,9.857-18.775c0,0,4.458-5.397,5.397-6.101
		c0.94-0.704,1.409-3.286,1.409-3.286l5.632-5.398l3.051-0.469c0,0,8.213-5.397,9.857-5.632
		C93.375,30.243,98.304,19.212,116.609,19.682L116.609,19.682z"/>
	<path fill-rule="evenodd" clip-rule="evenodd" fill="#FFFFFF" d="M122.711,142.421c-8.917-1.407-10.561-2.347-16.193-6.103
		c-5.633-3.753-7.979-8.447-7.979-8.447c4.693,2.345,10.325,0.938,11.264,0.704c0.939-0.235,6.571-3.521,7.979-4.931
		c1.407-1.407,1.173-2.58,0.938-3.988c-0.234-1.409-0.704-6.337-0.704-8.919c0-2.581-0.938-6.101-0.938-6.101l-2.112,4.693
		c0,0,0,0-0.704-1.642c-0.704-1.644-1.173-4.224-1.408-6.102c-0.234-1.878-1.409-5.868-1.878-8.214
		c-0.469-2.347-1.408-8.215-1.408-8.215s-3.051-11.5-3.286-12.204c-0.234-0.704,0.47-2.111,0.47-2.111s1.173,3.286,3.989,5.163
		c2.816,1.877,5.867,2.113,5.867,2.113s-7.275-7.275-9.622-11.265c-2.347-3.989-3.755-11.266-4.458-13.846
		c-0.705-2.582,0.469-3.521,0.469-3.521l1.408,2.582l3.99,0.704c-4.694-15.489-2.581-20.653-2.112-22.529
		c0.469-1.878,5.163-7.745,5.163-7.745l-2.113,0.234c-4.458,0.938-10.325,5.632-10.325,5.632s-5.398,3.755-5.633,8.214
		c-0.234,4.458-3.989,7.041-5.867,9.388c-1.877,2.347-5.164,8.683-7.041,13.377c-1.877,4.693-2.112,12.907-0.703,17.835
		c1.408,4.929,5.163,9.857,6.805,11.5c1.643,1.642,0.703,1.877-1.408,1.173c-2.111-0.704-5.868-2.582-7.745-4.694
		c-1.878-2.112-1.878-0.704-1.878,0.471c0,1.172,4.226,10.09,5.164,11.734c0.939,1.642-0.703,0.938-2.347-0.469
		c-1.642-1.409-4.928-5.398-4.928-5.398s0.704,2.347,2.582,6.571c1.876,4.224,11.029,16.428,11.029,16.428s8.685,5.398-0.233,3.051
		c-8.919-2.346-13.612-5.632-13.612-5.632l3.051,5.632c0,0,13.377,18.306,25.58,23.705c12.205,5.396,23.939,4.928,29.101,4.928
		c5.164,0,15.021-2.583,15.021-2.583S131.628,143.83,122.711,142.421L122.711,142.421z M107.457,113.79
		c2.112-4.224,4.693-1.173,5.164,2.347c0.49,3.678,0.704,6.571,0.704,6.571c-4.459-11.733-3.991-2.111-3.991-2.111
		C103.702,119.657,107.457,113.79,107.457,113.79L107.457,113.79z M99.478,31.885c0.234-0.939,3.286-4.225,3.286-4.225
		s4.928-3.286,4.224-2.347c-0.704,0.94-4.693,9.388-4.693,9.388h-1.174l-3.755,3.521C97.365,38.222,99.243,32.823,99.478,31.885
		L99.478,31.885z M96.896,52.537c0.469-1.408,1.878-2.582,1.878-2.582s-0.47,3.52,0.469,7.744c0.938,4.225,4.224,9.153,4.224,9.153
		s-1.878,0.469-3.989-0.939c-2.113-1.408-3.755-3.755-3.755-5.867C95.723,57.935,96.426,53.945,96.896,52.537L96.896,52.537z
		 M90.091,58.875c0.233-3.051,2.581-6.337,2.581-6.337s-1.877,4.694-0.704,8.683c1.173,3.99,4.458,9.152,5.163,9.387
		c0.705,0.236,1.644-0.234,1.644-0.234l2.581,2.113l2.113,7.744c0,0-5.163-2.816-8.917-7.509
		C90.794,68.026,89.855,61.924,90.091,58.875L90.091,58.875z M90.56,105.341c-2.816-4.693-6.572-11.499-6.572-11.499l7.275,1.642
		c0,0,8.917,20.184,9.622,20.653s0.234,2.111,0.234,2.111l-1.407-0.938C99.712,117.31,93.375,110.035,90.56,105.341L90.56,105.341z"
		/>
	<path fill-rule="evenodd" clip-rule="evenodd" fill="#C4CED4" d="M78.825,43.15c0,0-2.112,3.52-0.939,4.928
		c0,0,7.041-8.448,11.265-9.856c0,0-9.152,9.152-12.673,18.54c-3.52,9.389-4.459,21.592-3.754,29.336c0,0-4.93-12.908-2.113-22.295
		c0,0-6.102,5.632-4.224,19.948c1.876,14.316,12.907,27.224,12.907,27.224s-6.336-3.286-9.152-6.103
		c-2.816-2.816-5.164-7.744-5.164-7.744s0.705,17.132,13.847,32.855c13.143,15.726,28.866,20.183,39.896,21.824
		c11.03,1.644,29.803-0.938,46.468-11.966c0,0-17.134,14.784-39.896,15.254c-22.766,0.469-41.775-11.268-50.225-20.888
		c-8.448-9.621-20.417-29.336-18.071-45.294c0,0,0.939,12.438,6.103,18.07c0,0-4.929-20.886-4.459-29.335
		c0.469-8.448,4.693-17.132,7.275-19.009c0,0-3.99,8.684-2.347,12.673c0,0,3.989-12.203,7.04-14.785
		c3.052-2.582,2.817-4.458,3.287-5.868C74.366,49.251,75.305,45.731,78.825,43.15L78.825,43.15z"/>
	<path fill-rule="evenodd" clip-rule="evenodd" fill="#C4CED4" d="M104.875,106.045l-0.469-11.265c0,0,0.235-3.286-0.469-5.632
		c-0.704-2.347,0-6.806,0-6.806l1.409,3.52c0,0,0.469,2.112,0.469,3.051c0,0.938,0.469,3.755,1.643,6.102
		c1.173,2.347,3.285,12.203,3.285,12.203S107.691,104.637,104.875,106.045L104.875,106.045z"/>
	<path fill-rule="evenodd" clip-rule="evenodd" fill="#C4CED4" d="M106.049,116.372c0,0,0.469-4.694,1.173-5.397
		c0.704-0.705,3.521-3.053,5.164,0.234c1.642,3.285,2.111,6.57,1.173,10.561C113.559,121.769,112.621,105.576,106.049,116.372
		L106.049,116.372z"/>
	<path fill-rule="evenodd" clip-rule="evenodd" fill="#C4CED4" d="M130.221,38.69l2.581,3.99c0,0,0.237-2.582,3.521-3.99
		c3.285-1.408,7.511-1.173,7.511-1.173s-4.694-1.409-7.511-0.939C133.508,37.048,130.221,38.69,130.221,38.69L130.221,38.69z"/>
	<path fill-rule="evenodd" clip-rule="evenodd" fill="#C4CED4" d="M125.057,53.71c0,0,3.521-5.398,3.521-7.04l1.173-3.52l0.47,3.286
		c0.703,3.754,0.469,11.968,0.469,11.968s-0.234,7.746-1.643,11.734c-1.407,3.99-3.753,6.806-3.753,6.806s1.643-3.286,2.814-13.376
		c1.173-10.092,0.47-10.092,0.47-10.092s-2.346,6.103-4.226,7.979c0,0-0.703-4.459-2.111-7.51c-1.408-3.051-4.693-5.397-4.693-5.397
		s1.876,5.397,3.285,11.265c1.408,5.866,0.938,16.427,0.938,16.427s-2.347-9.387-5.398-20.417
		c-3.05-11.031-7.275-18.306-7.275-18.306s7.51,5.163,9.857,7.745C121.304,47.843,125.057,53.71,125.057,53.71L125.057,53.71z"/>
	<path fill-rule="evenodd" clip-rule="evenodd" fill="#C4CED4" d="M103.232,50.19c0,0,5.398,8.685,3.286-9.856
		c0,0,4.693,16.897,4.928,17.366c0.235,0.47,0.94,3.286-0.938,1.644C108.63,57.7,103.232,50.19,103.232,50.19L103.232,50.19z"/>
	<path fill-rule="evenodd" clip-rule="evenodd" fill="#C4CED4" d="M134.211,64.271c0,0-0.472-3.755,0.234-2.112
		c0.704,1.643,1.408,7.275,0.704,10.561c-0.704,3.285-5.633,7.744-5.633,7.744s-0.235,0.234,0.704-1.877
		c0.938-2.113,1.643-3.755,2.347-6.806C133.27,68.73,134.211,64.271,134.211,64.271L134.211,64.271z"/>
	<path fill-rule="evenodd" clip-rule="evenodd" fill="#C4CED4" d="M122.242,135.379l10.091-7.743c0,0,0.47-0.939,0.235-2.346
		c-0.235-1.41-4.693-16.664-4.693-16.664s-0.938-1.643-0.234-2.347c0.703-0.704,0.938-3.286,0.703-4.459
		c-0.234-1.173,0.235-3.755,0.704-4.458c0.47-0.704,1.174-3.755,1.174-6.102s-0.47-6.337-0.47-6.337s-1.407,5.398-1.643,7.509
		c-0.234,2.113-1.406,3.521-1.172,7.041c0.233,3.52-1.174,5.164-1.174,5.164s-1.175,2.112-0.234,3.755
		c0.938,1.643,4.457,15.722,4.457,15.722s0.938,1.646-0.469,3.054C128.109,128.576,122.242,135.379,122.242,135.379L122.242,135.379
		z"/>
	<path fill-rule="evenodd" clip-rule="evenodd" d="M76.181,26.591l2.811-2.306c0.554-0.455,1.043-0.772,1.467-0.951
		c0.422-0.18,0.823-0.268,1.199-0.262c0.377,0.005,0.719,0.092,1.023,0.258c0.304,0.167,0.571,0.39,0.799,0.668
		c0.356,0.435,0.558,0.833,0.607,1.196c0.048,0.363,0.008,0.734-0.123,1.114c-0.131,0.38-0.326,0.721-0.586,1.023
		c-0.356,0.412-0.703,0.757-1.04,1.033l-2.811,2.307L76.181,26.591L76.181,26.591z M78.835,25.971l1.828,2.228l0.464-0.38
		c0.395-0.324,0.652-0.584,0.771-0.779c0.119-0.195,0.166-0.405,0.142-0.629c-0.025-0.224-0.171-0.498-0.438-0.824
		c-0.356-0.434-0.705-0.644-1.046-0.627c-0.342,0.015-0.757,0.223-1.248,0.625L78.835,25.971L78.835,25.971z"/>
	<path fill-rule="evenodd" clip-rule="evenodd" d="M97.783,18.399l-2.554,1.059l-0.034,0.957l-2.31,0.958l0.727-6.013l2.481-1.029
		l4.755,3.741l-2.367,0.981L97.783,18.399L97.783,18.399z M96.869,17.543l-1.522-1.42l-0.074,2.082L96.869,17.543L96.869,17.543z"/>
	<polygon fill-rule="evenodd" clip-rule="evenodd" points="109.802,10.566 112.233,10.283 112.694,14.239 116.485,13.798 
		116.635,15.083 110.414,15.808 109.802,10.566 	"/>
	<polygon fill-rule="evenodd" clip-rule="evenodd" points="127.606,10.058 130.028,10.406 129.46,14.349 133.24,14.893 
		133.054,16.173 126.854,15.281 127.606,10.058 	"/>
	<path fill-rule="evenodd" clip-rule="evenodd" d="M147.635,20.17l-2.522-1.131l-0.72,0.632l-2.281-1.023l4.873-3.599l2.451,1.099
		l0.541,6.026l-2.337-1.047L147.635,20.17L147.635,20.17z M147.63,18.917l-0.011-2.082l-1.566,1.376L147.63,18.917L147.63,18.917z"
		/>
	<path fill-rule="evenodd" clip-rule="evenodd" d="M158.939,25.963l1.817,1.464c-0.129,0.223-0.178,0.434-0.149,0.636
		c0.047,0.326,0.248,0.643,0.599,0.951c0.263,0.229,0.5,0.366,0.714,0.409c0.213,0.042,0.364,0.01,0.46-0.098
		c0.09-0.103,0.104-0.254,0.04-0.453c-0.062-0.199-0.309-0.551-0.737-1.056c-0.701-0.83-1.137-1.496-1.304-1.998
		c-0.171-0.505-0.121-0.912,0.147-1.22c0.183-0.208,0.439-0.322,0.777-0.349c0.336-0.025,0.729,0.066,1.175,0.276
		c0.447,0.21,0.981,0.586,1.602,1.13c0.761,0.668,1.26,1.272,1.494,1.811s0.21,1.048-0.076,1.526l-1.792-1.452
		c0.109-0.218,0.126-0.432,0.049-0.644c-0.077-0.209-0.245-0.43-0.506-0.657c-0.214-0.188-0.402-0.301-0.564-0.336
		c-0.16-0.035-0.277-0.009-0.354,0.077c-0.058,0.065-0.062,0.161-0.018,0.288c0.039,0.128,0.203,0.358,0.489,0.686
		c0.703,0.821,1.178,1.444,1.423,1.868c0.244,0.422,0.369,0.792,0.372,1.106c0.006,0.316-0.089,0.582-0.277,0.798
		c-0.224,0.255-0.535,0.397-0.935,0.426s-0.837-0.067-1.312-0.291c-0.476-0.222-1.003-0.586-1.579-1.091
		c-1.014-0.888-1.601-1.632-1.762-2.234C158.569,26.934,158.638,26.41,158.939,25.963L158.939,25.963z"/>
	<path fill-rule="evenodd" clip-rule="evenodd" fill="#FFFFFF" d="M20.111,145.012l22.492,60.465c0,0,8.771-2.586,9.047-2.667
		l0.001,0.009c0,0,8.404-2.264,8.77-2.362c0.013,0.043,0.061,0.21,0.061,0.21l10.812-2.237l-0.585-2.109
		c-0.316-1.143-7.783-28.05-9.887-34.365c-2.379-7.137-10.207-10.489-10.539-10.628l-0.103-0.045l-0.107-0.03
		c-2.416-0.716-6.542-1.967-7.333-2.284c-1.417-0.567-2.563-0.377-3.325,0.066c-1.186-0.765-2.749-1.68-2.974-1.811l-0.168-0.101
		l-17.685-6.205L20.111,145.012L20.111,145.012z"/>
	<path fill-rule="evenodd" clip-rule="evenodd" fill="#FFFFFF" d="M59.47,156.296l10.547,42.188c0,0,8.25-1.317,8.771-1.404
		c0.008,0.04,0.045,0.211,0.045,0.211l8.971-1.58l-0.396-2.048c-0.182-0.939-4.477-23.085-5.641-28.441
		c-1.409-6.48-8.807-8.927-9.121-9.027l-0.091-0.03l-13.889-3.085L59.47,156.296L59.47,156.296z M64.251,158.517
		c3.064,0.682,7.056,1.569,7.209,1.605c0.655,0.231,5.455,2.077,6.3,5.968c0.95,4.368,4.108,20.559,5.226,26.305
		c-0.487,0.087-0.527,0.093-1.004,0.18c-0.642-2.885-3.135-14.082-3.135-14.082l-8.131-0.511c0,0,3.288,12.38,4.137,15.578
		c-0.835,0.133-1.005,0.161-1.772,0.281C72.32,190.794,65.547,163.701,64.251,158.517L64.251,158.517z"/>
	<path fill-rule="evenodd" clip-rule="evenodd" fill="#FFFFFF" d="M69.518,159.163c-2.326,0.74-2.177,3.735-2.128,4.717l0.01,0.195
		l3.717,15.13h7.703l-0.31-2.321c-0.245-1.839-1.559-11.151-3.354-13.972C73.818,160.808,71.753,158.449,69.518,159.163
		L69.518,159.163z M72.07,165.905c0.504,1.324,1.042,3.673,1.504,6.125C72.894,169.256,72.544,167.832,72.07,165.905L72.07,165.905z
		"/>
	<path fill-rule="evenodd" clip-rule="evenodd" fill="#FFFFFF" d="M79.933,160.436l-0.009-0.024
		c0.451,1.524,5.267,27.211,5.791,30.877c0.272,1.905,1.006,3.223,2.183,3.919c0.847,0.503,1.743,0.557,2.436,0.424
		c1.185-0.01,6.52-0.106,9.512-1.029c3.177-0.978,4.078-4.443,4.078-7.37c0-1.175-0.144-2.261-0.345-3.063l0.006,0.024
		c-0.286-1.446-0.415-14.044-0.415-22.526v-1.989c0,0-10.459-0.325-11.192-0.35c-0.004-0.032-0.019-0.169-0.019-0.169l-13.029-1.862
		L79.933,160.436L79.933,160.436z M89.772,190.711c-0.314-2.204-3.731-20.896-5.266-28.478c1.702,0.243,2.562,0.364,3.717,0.529
		c0.585,5.461,2.486,23.095,2.892,25.731c0.222,1.438,0.828,2.382,1.556,2.963c-1.074,0.055-2.019,0.075-2.581,0.075
		c0,0-0.068,0-0.122,0C89.906,191.374,89.83,191.114,89.772,190.711L89.772,190.711z M94.228,179.983
		c0.197,1.581,0.357,2.982,0.471,4.138C94.56,182.912,94.399,181.503,94.228,179.983L94.228,179.983z M98.917,188.052
		c0.039-0.227,0.055-0.543,0.055-0.937c0-4.146-1.916-16.946-2.95-23.56c1.348,0.044,1.865,0.058,3.051,0.096
		c0.011,6.406,0.089,19.752,0.529,21.511c0.136,0.543,0.214,1.283,0.214,2.043c0,1.563-0.33,3.221-1.176,3.478
		c-0.323,0.101-0.706,0.188-1.115,0.266C98.217,190.215,98.724,189.215,98.917,188.052L98.917,188.052z"/>
	<path fill-rule="evenodd" clip-rule="evenodd" fill="#FFFFFF" d="M102.357,168.236l0,0.059l0.761,26.633h1.991
		c0.243,0,5.979-0.004,9.3-0.239c4.404-0.313,6.868-5.776,7.135-6.4l0.143-0.336l0.368-6.981c0,0-0.352,0-0.58,0
		c0-0.593,0-4.144,0-4.349c0.145,0,0.43,0,0.43,0l0.313-15.979l-1.999-0.086c-0.054-0.003-5.502-0.238-10.65-0.238
		C104.277,160.319,102.357,165.052,102.357,168.236L102.357,168.236z M109.569,164.42c0.251,0,0.504,0,0.757,0
		c-0.275,0.146-0.547,0.308-0.8,0.521c-0.702,0.587-1.537,1.677-1.537,3.527c0,0,0,8.911,0,8.983c-0.048,0-0.235,0-0.235,0
		s0,13.027,0,13.355c-0.229,0.004-0.445,0.006-0.653,0.006c-0.096-3.371-0.642-22.483-0.645-22.582
		C106.466,167.567,106.669,164.42,109.569,164.42L109.569,164.42z M116.078,165.889c0,0,0-0.93,0-1.372
		c0.73,0.021,1.398,0.04,1.963,0.061c-0.043,2.225-0.112,5.727-0.156,7.947c-0.814,0-0.987,0-1.808,0
		C116.078,170.133,116.078,165.889,116.078,165.889L116.078,165.889z M112.842,181.551c-0.063,0.535-0.615,5.22-0.615,5.22
		c-0.054,0.463-0.182,0.799-0.342,0.901c-0.009,0.004-0.023,0.006-0.032,0.012c0-1.882,0-4.149,0-6.133
		C112.185,181.551,112.414,181.551,112.842,181.551L112.842,181.551z M117.735,185.07c-0.05,0.947-0.083,1.581-0.1,1.895
		c-0.541,1.122-1.499,2.521-2.49,3.212c0.533-0.655,0.994-1.591,1.152-2.924c0,0,0.129-1.101,0.256-2.183
		C117.094,185.07,117.16,185.07,117.735,185.07L117.735,185.07z"/>
	<path fill-rule="evenodd" clip-rule="evenodd" fill="#FFFFFF" d="M135.542,159.853l-14.35,0.543l-1.064,33.526
		c0,0,8.004,0.259,8.55,0.277l-0.002,0.021c0,0,0.423,0,0.771,0c0.013,0.005,0.124,0.007,0.124,0.007v-0.007c0.647,0,8.16,0,8.16,0
		l0.356-1.603c0.061-0.268,1.458-6.602,1.458-10.536c0-1.802-0.335-3.081-0.788-3.996c1.411-1.68,2.039-3.832,2.126-4.16
		l0.036-0.135l0.019-0.139c0.024-0.203,0.531-4.296,0.531-7.361c0-0.543-0.018-1.059-0.055-1.513c-0.3-3.616-3.834-4.802-5.66-4.924
		l-0.106-0.009L135.542,159.853L135.542,159.853z M135.553,163.954c0.357,0.043,1.702,0.266,1.778,1.169
		c0.028,0.338,0.04,0.736,0.04,1.169c0,2.202-0.315,5.326-0.48,6.686c-0.321,1.086-1.114,2.673-1.869,3.009
		c0,0-4.259,1.894-4.832,2.146c-0.547-0.123-1.142-0.211-1.847-0.211h-1.934c0,0-0.538,9.295-0.701,12.08
		c-0.632-0.02-0.715-0.021-1.354-0.044c0.105-3.299,0.717-22.516,0.814-25.613C127.868,164.244,135.318,163.962,135.553,163.954
		L135.553,163.954z M133.904,182.274l0.01-0.097v-0.095c0-0.881-0.447-2.236-1.792-3.16c1.393,0.4,2.57,0.734,2.871,0.821
		c0.157,0.205,0.454,0.875,0.454,2.339c0,2.38-0.628,5.98-1.03,8.042c-0.544,0-0.632,0-1.243,0
		C133.425,187.413,133.904,182.274,133.904,182.274L133.904,182.274z"/>
	<path fill-rule="evenodd" clip-rule="evenodd" fill="#FFFFFF" d="M128.366,163.252l-1.308,0.46l-0.609,14.352l1.926,0.191
		c1.774,0.179,4.274,0.213,5.514-1.499c0.415-0.575,0.569-1.207,0.569-1.782c0-0.156-0.026-0.3-0.048-0.446
		c0.165-1.16,0.676-4.984,0.676-7.699c0-1.885-0.976-2.856-1.557-3.267C131.617,162.208,128.893,163.067,128.366,163.252
		L128.366,163.252z"/>
	<path fill-rule="evenodd" clip-rule="evenodd" fill="#FFFFFF" d="M150.277,159.151l-9.214,0.575l-4.222,35.028l9.882,0.497
		l6.133-36.262L150.277,159.151L150.277,159.151z M147.953,163.401c-0.685,4.053-4.169,24.646-4.664,27.574
		c-0.792-0.04-0.982-0.05-1.851-0.095c0.426-3.554,2.949-24.473,3.286-27.276C145.856,163.534,146.497,163.494,147.953,163.401
		L147.953,163.401z"/>
	<path fill-rule="evenodd" clip-rule="evenodd" fill="#FFFFFF" d="M171.841,155.429l-13.542,2.611l-0.153,0.059
		c-0.224,0.082-5.48,2.075-6.907,7.504c-1.178,4.481-4.808,23.96-4.963,24.789c-0.398,1.993,0.25,4.481,2.626,5.161
		c1.786,0.511,6.771,0.738,7.753,0.782l0.091,0.002l0.094-0.004c0.256-0.012,6.332-0.368,8.407-6.298
		c1.65-4.717,2.815-9.121,2.863-9.311l0.599-2.162c0,0-10.513,0.154-10.684,0.167c0.2-0.905-0.106,0.507,0.097-0.417
		c0.711-0.021,10.719-0.355,10.719-0.355l6.241-23.153L171.841,155.429L171.841,155.429z M159.683,161.951
		c-0.848,0.845-1.875,2.261-3.115,4.63l-0.128,0.246l-0.059,0.27c-1.737,7.953-4.411,20.1-4.653,20.961l0.018-0.051
		c-0.099,0.3-0.147,0.623-0.147,0.959c0,1.036,0.448,2.177,1.209,2.939c0.033,0.034,0.07,0.056,0.105,0.086
		c-1.107-0.095-2.066-0.205-2.624-0.323c-0.006-0.057-0.01-0.115-0.01-0.182c0-0.116,0.009-0.239,0.027-0.34
		c0.038-0.207,3.754-20.164,4.896-24.499c0.792-3.013,3.664-4.398,4.245-4.652C159.455,161.993,159.67,161.953,159.683,161.951
		L159.683,161.951z M169.378,160.078c-1.005,3.651-2.663,9.669-3.184,11.56c-0.943,0.03-1.471,0.049-2.801,0.091
		c0.686-2.673,1.697-6.611,1.697-6.611l0.014-0.11c0.03-0.212,0.046-0.425,0.046-0.64c0-1.256-0.533-2.511-1.637-3.156
		C166.064,160.719,167.225,160.495,169.378,160.078L169.378,160.078z M163.365,182.455c-0.491,1.68-1.185,3.933-1.989,6.226
		c-0.875,2.508-3.079,3.252-4.147,3.47c1.507-1.126,2.335-3.291,2.645-4.301l0.016-0.054c0,0,0.858-3.428,1.297-5.182
		C161.947,182.559,162.29,182.536,163.365,182.455L163.365,182.455z"/>
	<path fill-rule="evenodd" clip-rule="evenodd" fill="#FFFFFF" d="M192.758,150.788c0,0-7.869,2.383-7.912,2.396
		c0.003-0.017,0.051-0.159,0.051-0.159l-11.008,2.444l-12.095,41.396c0,0,7.817,1.103,8.29,1.169
		c-0.003,0.014-0.038,0.13-0.038,0.13l9.146,1.748l0.596-1.639c0.154-0.423,3.778-10.394,4.946-13.899
		c0.325-0.974,0.457-1.9,0.457-2.76c0-1.177-0.249-2.223-0.599-3.091c1.601-1.384,3.013-3.434,3.686-4.498l0.132-0.207l8.155-24.188
		L192.758,150.788L192.758,150.788z M178.807,158.574c-1.498,4.66-6.047,18.809-6.047,18.809s0.074,0.006,0.078,0.006
		c-0.059,0.191-4.064,13.496-4.881,16.206c-0.409-0.059-0.452-0.063-0.9-0.127c1.135-3.888,9.484-32.472,10.086-34.523
		C177.646,158.831,177.983,158.758,178.807,158.574L178.807,158.574z M190.139,155.862c-1.656,4.91-5.317,15.766-5.45,16.162
		c-1.176,1.81-2.746,3.618-3.366,3.855c-0.025,0.008-0.626,0.186-1.22,0.36c0.812-0.585,1.53-1.398,1.996-2.521
		c1.034-2.48,4.179-13.479,5.174-16.99C187.957,156.524,188.707,156.296,190.139,155.862L190.139,155.862z M178.58,177.042
		c0.358,0.448,1.728,2.164,1.728,2.164c0.04,0.048,0.784,0.955,0.784,2.405c0,0.44-0.068,0.934-0.245,1.465
		c-0.871,2.614-3.211,9.102-4.315,12.154c-0.572-0.108-0.666-0.126-1.299-0.249c0.874-3.023,3.234-11.201,3.354-11.609
		c0.318-0.563,0.566-1.282,0.566-2.052c0-0.451-0.085-0.918-0.284-1.372c-0.59-1.33-1.948-2.136-4-2.428
		c0.16,0.012,0.51,0.036,0.51,0.036C176.223,177.614,177.408,177.491,178.58,177.042L178.58,177.042z"/>
	<path fill-rule="evenodd" clip-rule="evenodd" fill="#FFFFFF" d="M216.327,142.852l-13.828,5.244l-0.191,0.129
		c-1.275,0.849-7.693,5.287-9.022,9.272c-1.148,3.441-7.886,21.337-7.954,21.516l-1.013,2.693c0,0,0.324,0.01,0.435,0.012
		c-0.051,0.146-4.807,13.222-4.821,13.256c-0.163,0.386-0.511,1.306-0.511,2.377c0,0.63,0.125,1.304,0.485,1.932
		c0.335,0.579,1.163,1.576,2.933,1.739c2.646,0.239,5.241,0.241,5.35,0.241h0.134l0.132-0.016c0.262-0.034,6.435-0.896,9.488-6.169
		c2.638-4.554,8.352-19.845,8.595-20.492l1.064-2.854c0,0-0.139,0.006-0.155,0.006c0.098-0.221,13.449-30.617,13.449-30.617
		L216.327,142.852L216.327,142.852z M213.215,148.417c-2.506,5.696-7.787,17.723-8.551,19.461c-0.627,0.024-0.97,0.038-1.941,0.072
		c1.26-3.244,3.398-8.762,3.398-8.762l0.035-0.173c0.109-0.549,0.165-1.054,0.165-1.511c0-1.052-0.291-1.858-0.867-2.41
		c-0.598-0.57-1.448-0.788-2.274-0.581c-1.381,0.346-2.694,1.577-3.064,1.947l-0.269,0.268l-0.155,0.35
		c-1.729,3.895-5.781,13.163-6.027,15.128c-0.185,1.482,0.128,2.595,0.931,3.309c0.75,0.664,1.682,0.732,2.304,0.577l-0.438,0.061
		c0,0,2.744-0.08,5.153-0.148c-1.803,4.7-5.405,13.887-7.221,17.021c-1.851,3.198-5.688,4.017-6.367,4.14
		c-0.543-0.004-2.466-0.034-4.449-0.195c0.035-0.146,0.088-0.304,0.142-0.429l0.028-0.064l0.03-0.08c0,0,3.418-9.396,4.205-11.56
		c0.161,0,0.208,0,0.393,0c-1.084,2.555-2.522,5.992-2.834,6.923c-0.216,0.65-0.323,1.247-0.323,1.797
		c0,0.742,0.197,1.392,0.59,1.938c0.432,0.598,1.276,1.312,2.851,1.312c2.607,0,3.974-2.773,4.219-3.331l0.021-0.044L198.899,178
		c0,0-6.147-0.165-8.719-0.235c1.947-5.189,6.085-16.248,6.993-18.97c0.642-1.923,4.552-5.22,7.233-7.038
		C204.706,151.642,209.285,149.909,213.215,148.417L213.215,148.417z"/>
	<polygon fill-rule="evenodd" clip-rule="evenodd" fill="#FFFFFF" points="74.601,172.227 71.315,172.227 71.315,165.185 
		74.601,165.185 74.601,172.227 	"/>
	<polygon fill-rule="evenodd" clip-rule="evenodd" fill="#FFFFFF" points="113.089,188.418 111.446,188.418 111.446,180.674 
		113.089,180.674 113.089,188.418 	"/>
	<polygon fill-rule="evenodd" clip-rule="evenodd" fill="#FFFFFF" points="186.077,180.207 184.435,180.207 184.435,177.39 
		186.077,177.39 186.077,180.207 	"/>
	<polygon fill-rule="evenodd" clip-rule="evenodd" fill="#FFFFFF" points="168.708,179.502 157.679,179.502 157.679,177.625 
		168.708,177.625 168.708,179.502 	"/>
	<path fill-rule="evenodd" clip-rule="evenodd" d="M43.857,202.969l-21.826-58.671l13.376,4.694c0,0,2.629,1.211,3.756,2.346
		c0.827,0.835,1.174,1.644,1.174,1.644v-2.112c0,0,0.469-0.469,1.642,0c1.174,0.469,7.51,2.346,7.51,2.346s7.275,3.053,9.388,9.389
		c2.113,6.338,9.857,34.263,9.857,34.263l-6.806,1.408l-10.092-35.202c0,0-2.582-5.865-3.989-5.396s0,3.99,0,3.99l11.265,37.019
		l-6.102,1.644c0,0-13.142-41.244-14.315-42.652c0,0-1.742-3.836-3.756-3.757c-1.426,0.056-0.469,1.172,0,2.817
		c0.469,1.644,15.49,44.295,15.49,44.295L43.857,202.969L43.857,202.969z"/>
	<path fill-rule="evenodd" clip-rule="evenodd" d="M80.409,194.932l4.987-0.88c0,0-4.459-23-5.632-28.398
		c-1.174-5.395-7.746-7.509-7.746-7.509l-10.56-2.348l10.09,40.365l5.868-0.938l-3.989-15.019l3.755,0.233L80.409,194.932
		L80.409,194.932z M72.724,177.155l-3.286-13.378c-0.234-4.692,2.346-2.346,3.99,0.235c1.642,2.581,3.051,13.143,3.051,13.143
		H72.724L72.724,177.155z"/>
	<path fill-rule="evenodd" clip-rule="evenodd" d="M81.876,159.787l8.215,1.177c0,0,2.581,24.171,3.05,27.22
		c0.469,3.054,3.285,2.35,3.754-0.469c0.469-2.815-3.286-26.283-3.286-26.283l7.51,0.235c0,0,0,21.12,0.47,22.999
		c0.47,1.877,0.705,7.04-2.346,7.979c-3.051,0.937-9.152,0.937-9.152,0.937s-1.878,0.704-2.348-2.58
		C87.273,187.714,82.346,161.194,81.876,159.787L81.876,159.787z"/>
	<path fill-rule="evenodd" clip-rule="evenodd" d="M120.13,162.604l-0.236,11.968h-5.866v-8.683c0,0-3.99-0.704-3.99,2.58
		c0,3.287,0,8.686,0,8.686h9.387v2.348h-9.622v10.089c0,0,3.99,1.41,4.459-2.581c0.469-3.99,0.469-3.99,0.469-3.99h5.163
		l-0.235,4.461c0,0-2.111,4.929-5.397,5.164c-3.286,0.233-9.153,0.233-9.153,0.233l-0.704-24.643c0,0,0-5.867,5.164-5.867
		C114.732,162.369,120.13,162.604,120.13,162.604L120.13,162.604z"/>
	<path fill-rule="evenodd" clip-rule="evenodd" d="M138.904,173.4c0,0,0.704-5.635,0.47-8.45c-0.234-2.814-3.754-3.05-3.754-3.05
		l-12.439,0.469l-0.938,29.572l5.398,0.175l0.703-12.145c3.521,0,3.521,2.111,3.521,2.111l-0.939,10.092h5.164
		c0,0,1.408-6.336,1.408-10.092c0-3.755-1.643-4.224-1.643-4.224C137.965,176.921,138.904,173.4,138.904,173.4L138.904,173.4z
		 M128.579,176.217l0.469-11.032c0,0,3.989-1.408,3.989,1.644c0,3.051-0.704,7.743-0.704,7.743S133.27,176.686,128.579,176.217
		L128.579,176.217z"/>
	<polygon fill-rule="evenodd" clip-rule="evenodd" points="142.894,161.667 150.405,161.194 145.006,193.114 139.139,192.82 
		142.894,161.667 	"/>
	<path fill-rule="evenodd" clip-rule="evenodd" d="M160.729,173.868l7.041-0.234l4.461-16.192l-13.378,2.581
		c0,0-4.461,1.645-5.634,6.103c-1.172,4.459-4.929,24.64-4.929,24.64s-0.47,2.35,1.175,2.817c1.644,0.471,7.275,0.704,7.275,0.704
		s4.928-0.233,6.572-4.928c1.643-4.692,2.814-9.151,2.814-9.151l-6.571,0.468l-1.642,6.571c0,0-0.939,3.05-2.347,3.519
		c-1.41,0.473-2.113-1.406-1.879-2.11s4.694-21.121,4.694-21.121s2.581-4.929,3.754-4.693c1.176,0.233,0.938,1.877,0.938,1.877
		L160.729,173.868L160.729,173.868z"/>
	<path fill-rule="evenodd" clip-rule="evenodd" d="M175.515,157.206l6.337-1.408l-6.337,19.716c0,0,3.521,0.231,4.694-2.584
		c1.173-2.814,5.397-17.838,5.397-17.838l7.745-2.345l-6.807,20.183c0,0-2.816,4.461-4.693,4.93c0,0,2.111,2.348,0.938,5.865
		c-1.174,3.521-4.927,13.847-4.927,13.847l-5.224-0.998l4.048-14.021c0,0,1.88-2.58-2.347-3.049l-4.929,16.366l-4.986-0.704
		L175.515,157.206L175.515,157.206z"/>
	<path fill-rule="evenodd" clip-rule="evenodd" d="M199.689,170.115l6.334-0.235l11.032-25.112l-13.612,5.163
		c0,0-7.04,4.695-8.214,8.215c-1.173,3.521-7.979,21.591-7.979,21.591l8.684,0.235l-4.929,12.674c0,0-0.938,2.111-2.347,2.111
		s-1.643-0.939-1.174-2.347c0.47-1.408,3.988-9.623,3.988-9.623h-4.927l-4.693,12.907c0,0-1.408,3.05,1.173,3.287
		c2.582,0.235,5.163,0.235,5.163,0.235s5.398-0.704,7.979-5.164c2.58-4.461,8.448-20.185,8.448-20.185l-8.213,0.236
		c0,0-0.939,0.232-0.704-1.644c0.234-1.877,5.867-14.551,5.867-14.551s1.174-1.173,2.112-1.408c0.938-0.233,0.469,2.112,0.469,2.112
		L199.689,170.115L199.689,170.115z"/>
	<path fill-rule="evenodd" clip-rule="evenodd" fill="#FFFFFF" d="M119.708,212.668l-7.87,5.69l3.314-8.488
		c-1.864-3.105-10.25-5.178-10.25-5.178c2.071-0.621,12.321-1.657,12.321-1.657c0.414-1.657,2.485-7.352,2.485-7.352
		s2.071,5.694,2.485,7.352c0,0,10.25,1.036,12.321,1.657c0,0-8.386,2.072-10.251,5.178l3.313,8.488L119.708,212.668L119.708,212.668
		z"/>
	<path fill-rule="evenodd" clip-rule="evenodd" d="M118.937,195.407c-0.077,0.211-1.735,4.776-2.353,6.87
		c-2.189,0.229-10.056,1.072-11.918,1.63l-2.871,0.86l2.91,0.721c2.142,0.528,7.813,2.327,9.521,4.499
		c-0.293,0.753-4.163,10.669-4.163,10.669s8.798-6.362,9.645-6.976c0.846,0.613,9.645,6.976,9.645,6.976s-3.87-9.916-4.162-10.669
		c1.707-2.172,7.378-3.971,9.52-4.499l2.911-0.721l-2.872-0.86c-1.861-0.558-9.727-1.4-11.917-1.63
		c-0.618-2.094-2.277-6.659-2.353-6.87l-0.771-2.12L118.937,195.407L118.937,195.407z M117.305,203.85l0.572-0.055l0.141-0.561
		c0.238-0.953,1.06-3.335,1.689-5.117c0.629,1.782,1.451,4.164,1.689,5.117l0.141,0.561l0.573,0.055
		c1.88,0.191,5.907,0.632,8.882,1.046c-2.694,0.941-6.2,2.498-7.432,4.55l-0.207,0.346c0,0,1.47,3.77,2.446,6.272
		c-2.295-1.66-6.092-4.405-6.092-4.405s-3.797,2.745-6.094,4.405c0.977-2.503,2.448-6.272,2.448-6.272l-0.207-0.346
		c-1.231-2.052-4.736-3.608-7.431-4.55C111.397,204.482,115.424,204.042,117.305,203.85L117.305,203.85z"/>
</g>
</svg>
