<?xml version="1.0" encoding="UTF-8" standalone="no"?>
<!-- Created with Inkscape (http://www.inkscape.org/) -->

<svg
   xmlns:dc="http://purl.org/dc/elements/1.1/"
   xmlns:cc="http://creativecommons.org/ns#"
   xmlns:rdf="http://www.w3.org/1999/02/22-rdf-syntax-ns#"
   xmlns:svg="http://www.w3.org/2000/svg"
   xmlns="http://www.w3.org/2000/svg"
   version="1.1"
   width="361.41733"
   height="441.14172"
   id="svg5004">
  <defs
     id="defs5006" />
  <metadata
     id="metadata5009">
    <rdf:RDF>
      <cc:Work
         rdf:about="">
        <dc:format>image/svg+xml</dc:format>
        <dc:type
           rdf:resource="http://purl.org/dc/dcmitype/StillImage" />
        <dc:title></dc:title>
      </cc:Work>
    </rdf:RDF>
  </metadata>
  <g
     transform="translate(-179.36809,-292.71165)"
     id="layer1">
    <g
       transform="matrix(6.0666086,0,0,6.0666086,-1529.2385,-2404.3535)"
       id="g5225">
      <g
         transform="matrix(1.25,0,0,-1.25,289.3163,503.47936)"
         id="g3199">
        <path
           d="M 0,0 -3.15,-1.584 C -3.319,-1.656 -3.421,-1.709 -3.445,-1.742 -3.53,-1.84 -3.51,-1.973 -3.394,-2.146 l -0.09,-0.103 -1.364,1.218 0.09,0.102 c 0.161,-0.1 0.293,-0.093 0.393,0.022 0.031,0.032 0.08,0.151 0.162,0.354 l 1.575,4.21 c 0.082,0.209 0.116,0.359 0.116,0.461 0,0.095 -0.034,0.195 -0.114,0.297 L -2.534,4.513 -1.063,3.198 -1.151,3.102 C -1.308,3.186 -1.425,3.186 -1.512,3.091 -1.552,3.045 -1.595,2.961 -1.643,2.844 L -2.805,-0.145 0.113,1.298 C 0.237,1.36 0.316,1.406 0.341,1.436 0.429,1.533 0.414,1.656 0.294,1.807 L 0.388,1.906 1.923,0.53 1.837,0.43 C 1.661,0.521 1.53,0.513 1.449,0.42 1.415,0.384 1.38,0.307 1.331,0.185 l -1.139,-3.011 2.805,1.454 c 0.141,0.072 0.238,0.138 0.283,0.19 0.082,0.092 0.06,0.218 -0.059,0.377 L 3.306,-0.703 4.762,-2.006 4.675,-2.103 C 4.543,-2.044 4.442,-2.015 4.361,-2.028 4.28,-2.032 4.136,-2.091 3.926,-2.199 l -4.007,-2.039 c -0.192,-0.097 -0.306,-0.168 -0.35,-0.221 -0.093,-0.099 -0.076,-0.229 0.049,-0.384 l -0.085,-0.099 -1.383,1.233 0.089,0.1 c 0.166,-0.109 0.299,-0.107 0.407,0.013 0.029,0.039 0.082,0.16 0.149,0.363 L 0,0"
           id="path3201"
           style="fill:#1a64b7;fill-opacity:1;fill-rule:nonzero;stroke:none" />
      </g>
      <g
         transform="matrix(1.25,0,0,-1.25,287.08205,508.11061)"
         id="g3203">
        <path
           d="m 0,0 1.314,-1.173 0.036,0.038 c -0.062,0.083 -0.093,0.164 -0.093,0.241 0,0.063 0.022,0.124 0.066,0.173 0.055,0.058 0.171,0.131 0.364,0.229 l 4.006,2.035 c 0.213,0.109 0.355,0.17 0.443,0.181 0.019,0.002 0.033,0.002 0.048,0.002 0.075,0 0.164,-0.023 0.267,-0.074 L 6.487,1.696 5.1,2.939 5.062,2.9 C 5.126,2.809 5.162,2.728 5.162,2.652 5.162,2.593 5.139,2.538 5.104,2.494 5.048,2.428 4.948,2.368 4.806,2.297 L 1.898,0.786 3.075,3.907 c 0.048,0.121 0.088,0.199 0.123,0.245 0.051,0.063 0.125,0.094 0.205,0.093 0.065,0 0.136,-0.019 0.208,-0.052 L 3.646,4.232 2.179,5.546 2.141,5.508 C 2.196,5.43 2.226,5.355 2.226,5.282 2.231,5.217 2.204,5.162 2.162,5.115 2.123,5.072 2.047,5.028 1.919,4.963 L -1.103,3.471 0.103,6.563 c 0.047,0.122 0.092,0.209 0.145,0.26 0.045,0.063 0.114,0.092 0.187,0.092 0.058,0 0.124,-0.018 0.189,-0.053 L 0.661,6.903 -0.745,8.156 -0.78,8.116 C -0.713,8.019 -0.677,7.922 -0.677,7.822 -0.68,7.709 -0.719,7.554 -0.795,7.345 L -2.375,3.139 C -2.456,2.93 -2.504,2.814 -2.544,2.767 -2.603,2.702 -2.679,2.661 -2.766,2.661 c -0.067,0 -0.125,0.021 -0.197,0.057 l -0.036,-0.04 1.3,-1.158 0.03,0.04 c -0.054,0.095 -0.089,0.181 -0.089,0.264 0,0.062 0.028,0.123 0.066,0.17 0.046,0.047 0.141,0.093 0.309,0.171 L 1.768,3.743 1.871,3.796 0.624,0.459 C 0.554,0.254 0.506,0.134 0.463,0.08 0.401,0.017 0.325,-0.026 0.248,-0.026 c -0.072,0 -0.14,0.022 -0.211,0.064 L 0,0 z m -0.123,-0.009 0.028,0.035 0.111,0.13 0.034,-0.022 c 0.074,-0.05 0.142,-0.07 0.198,-0.07 0.054,0 0.1,0.022 0.146,0.074 0.029,0.023 0.081,0.15 0.146,0.35 L 1.707,3.612 -1.343,2.081 C -1.511,2.011 -1.61,1.952 -1.627,1.932 -1.656,1.901 -1.669,1.865 -1.669,1.824 c 0,-0.065 0.028,-0.14 0.098,-0.244 l 0.02,-0.027 -0.023,-0.025 -0.122,-0.13 -1.423,1.275 0.028,0.031 0.11,0.126 0.033,-0.016 c 0.068,-0.042 0.13,-0.062 0.182,-0.062 0.057,0 0.104,0.024 0.156,0.076 0.013,0.016 0.077,0.139 0.151,0.341 l 1.58,4.206 c 0.074,0.207 0.111,0.361 0.111,0.447 0,0.086 -0.031,0.176 -0.105,0.271 L -0.894,8.124 -0.872,8.148 -0.754,8.284 0.786,6.908 0.758,6.876 0.649,6.75 0.614,6.767 C 0.547,6.807 0.483,6.823 0.435,6.823 0.382,6.823 0.346,6.809 0.312,6.767 0.276,6.728 0.231,6.649 0.185,6.534 L -0.939,3.651 1.88,5.043 c 0.123,0.058 0.201,0.108 0.214,0.13 0.035,0.032 0.044,0.068 0.044,0.109 0,0.051 -0.027,0.119 -0.091,0.205 L 2.027,5.512 2.052,5.544 2.167,5.674 3.777,4.24 3.742,4.209 3.631,4.08 3.605,4.099 C 3.526,4.139 3.459,4.158 3.403,4.158 3.344,4.157 3.304,4.137 3.269,4.096 3.246,4.07 3.207,3.996 3.163,3.874 L 2.064,0.972 4.766,2.376 c 0.139,0.07 0.229,0.133 0.271,0.176 0.025,0.029 0.031,0.059 0.035,0.1 0,0.052 -0.031,0.13 -0.1,0.218 L 4.948,2.903 4.972,2.933 5.09,3.062 6.612,1.705 6.583,1.669 6.472,1.548 6.444,1.56 C 6.335,1.616 6.246,1.639 6.184,1.639 6.175,1.639 6.162,1.639 6.151,1.636 6.084,1.629 5.94,1.573 5.729,1.469 l -4,-2.041 C 1.539,-0.666 1.422,-0.743 1.389,-0.779 1.356,-0.817 1.343,-0.848 1.342,-0.894 c 0,-0.055 0.029,-0.128 0.101,-0.217 l 0.024,-0.027 -0.028,-0.03 -0.116,-0.134 -1.446,1.293"
           id="path3205"
           style="fill:#1a64b7;fill-opacity:1;fill-rule:nonzero;stroke:none" />
      </g>
      <g
         transform="matrix(1.25,0,0,-1.25,296.54031,510.81149)"
         id="g3207">
        <path
           d="M 0,0 0.06,2.221 -1.667,0.814 0,0 z M -0.023,-0.855 -2.339,0.278 -3.038,-0.27 c -0.094,-0.073 -0.156,-0.142 -0.186,-0.2 -0.049,-0.109 -0.006,-0.226 0.142,-0.35 l -0.063,-0.121 -1.682,0.828 0.056,0.116 c 0.11,-0.028 0.207,-0.032 0.281,-0.003 0.075,0.019 0.18,0.089 0.319,0.201 l 3.797,3 c 0.12,0.096 0.197,0.183 0.233,0.254 0.055,0.117 0.026,0.234 -0.093,0.354 L -0.177,3.928 1.632,3.044 1.569,2.923 C 1.407,2.954 1.297,2.914 1.247,2.811 1.209,2.738 1.194,2.646 1.194,2.531 l 0.015,-4.882 c 0,-0.208 0.021,-0.356 0.052,-0.446 0.029,-0.091 0.098,-0.177 0.194,-0.245 l -0.061,-0.119 -1.876,0.918 0.057,0.121 c 0.179,-0.054 0.298,-0.016 0.361,0.111 0.028,0.049 0.038,0.139 0.038,0.269 l 0.003,0.887"
           id="path3209"
           style="fill:#1a64b7;fill-opacity:1;fill-rule:nonzero;stroke:none" />
      </g>
      <g
         transform="matrix(1.25,0,0,-1.25,294.55531,509.77724)"
         id="g3211">
        <path
           d="M 0,0 1.542,-0.759 1.602,1.302 0,0 z m 1.588,-0.827 0.017,0.04 -0.017,-0.04 z M -0.16,-0.021 1.692,1.489 1.633,-0.828 1.629,-0.897 -0.16,-0.021 z M 1.166,-3.047 2.96,-3.928 2.982,-3.883 C 2.899,-3.814 2.84,-3.73 2.807,-3.641 2.77,-3.54 2.757,-3.388 2.757,-3.178 L 2.738,1.69 c -0.006,0.009 0,0.014 0,0.014 0,0.123 0.012,0.221 0.056,0.301 0.043,0.098 0.144,0.146 0.267,0.146 0.032,0 0.067,-0.003 0.056,-0.035 L 3.157,2.197 1.433,3.044 1.406,2.988 C 1.479,2.912 1.515,2.824 1.515,2.739 1.515,2.694 1.506,2.651 1.489,2.611 1.445,2.523 1.367,2.436 1.241,2.34 l -3.797,-2.998 c -0.14,-0.116 -0.245,-0.182 -0.333,-0.213 -0.041,-0.013 -0.086,-0.018 -0.13,-0.018 -0.041,0 -0.093,0.005 -0.138,0.018 l -0.027,-0.049 1.609,-0.788 0.021,0.052 c -0.092,0.086 -0.144,0.174 -0.148,0.267 0,0.043 0.01,0.075 0.026,0.113 0.034,0.065 0.101,0.136 0.201,0.216 l 0.741,0.552 2.317,-1.134 -0.018,-0.041 0.043,0 -0.003,-0.886 c 0,-0.134 -0.01,-0.227 -0.043,-0.29 -0.049,-0.102 -0.144,-0.16 -0.258,-0.157 -0.036,0 -0.075,0.004 -0.119,0.015 L 1.166,-3.047 z m -0.118,-0.041 0.016,0.037 0.078,0.153 0.028,-0.011 c 0.057,-0.014 0.098,-0.021 0.134,-0.021 0.09,0.005 0.141,0.036 0.182,0.109 0.016,0.04 0.029,0.126 0.029,0.252 l 0,0.861 -2.242,1.125 -0.693,-0.549 c -0.094,-0.074 -0.149,-0.139 -0.175,-0.184 -0.013,-0.025 -0.017,-0.047 -0.017,-0.073 0,-0.061 0.043,-0.14 0.145,-0.223 l 0.028,-0.022 -0.015,-0.032 -0.081,-0.161 -1.768,0.867 0.021,0.04 0.077,0.15 0.038,-0.009 c 0.05,-0.013 0.1,-0.023 0.148,-0.023 0.037,0 0.076,0.006 0.104,0.015 0.067,0.02 0.168,0.086 0.307,0.198 L 1.185,2.41 c 0.117,0.091 0.187,0.176 0.223,0.238 0.016,0.033 0.023,0.062 0.023,0.091 0,0.067 -0.035,0.136 -0.11,0.21 L 1.299,2.976 1.313,3.002 1.387,3.161 3.279,2.237 3.262,2.197 3.151,2.055 C 3.117,2.059 3.084,2.065 3.061,2.065 2.955,2.059 2.902,2.03 2.869,1.966 2.84,1.906 2.824,1.818 2.824,1.704 l -0.026,0 0.026,-0.002 0.019,-4.88 c 0,-0.205 0.02,-0.351 0.048,-0.434 0.03,-0.08 0.084,-0.156 0.176,-0.221 L 3.093,-3.854 3.078,-3.89 3.001,-4.05 1.048,-3.088"
           id="path3213"
           style="fill:#1a64b7;fill-opacity:1;fill-rule:nonzero;stroke:none" />
      </g>
      <g
         transform="matrix(1.25,0,0,-1.25,301.83181,511.38924)"
         id="g3215">
        <path
           d="m 0,0 1.873,-0.389 c 0.276,-0.058 0.47,-0.09 0.591,-0.095 0.116,-0.01 0.229,0 0.333,0.037 0.23,0.066 0.377,0.246 0.439,0.534 C 3.295,0.381 3.234,0.599 3.05,0.753 2.961,0.828 2.865,0.885 2.759,0.923 2.652,0.961 2.462,1.011 2.177,1.067 L 0.303,1.462 0,0 z M -0.195,-0.913 -0.576,-2.76 c -0.022,-0.078 -0.01,-0.145 0.018,-0.196 0.028,-0.055 0.09,-0.103 0.179,-0.15 l -0.029,-0.128 -1.733,0.366 0.028,0.128 c 0.106,0.005 0.176,0.027 0.225,0.061 0.047,0.037 0.082,0.094 0.101,0.176 l 0.98,4.708 c 0.019,0.077 0.012,0.151 -0.019,0.202 -0.025,0.049 -0.086,0.098 -0.179,0.149 L -0.979,2.683 2.495,1.957 C 2.917,1.87 3.25,1.775 3.489,1.674 3.727,1.571 3.926,1.444 4.086,1.282 4.27,1.097 4.391,0.867 4.445,0.605 4.498,0.351 4.498,0.091 4.438,-0.175 4.253,-1.079 3.637,-1.506 2.598,-1.45 L 3.356,-3.211 C 3.489,-3.516 3.589,-3.72 3.663,-3.814 3.736,-3.911 3.836,-3.977 3.965,-4.009 L 3.932,-4.14 1.926,-3.723 1.952,-3.592 c 0.144,-0.009 0.225,0.027 0.239,0.103 0.01,0.051 -0.032,0.18 -0.118,0.396 L 1.29,-1.22 -0.195,-0.913"
           id="path3217"
           style="fill:#1a64b7;fill-opacity:1;fill-rule:nonzero;stroke:none" />
      </g>
      <g
         transform="matrix(1.25,0,0,-1.25,304.18143,511.81936)"
         id="g3219">
        <path
           d="m 0,0 c 0.274,-0.058 0.471,-0.092 0.585,-0.101 0.023,0 0.043,-0.002 0.067,-0.002 0.087,0 0.172,0.017 0.25,0.04 C 1.117,0 1.248,0.163 1.313,0.442 1.324,0.506 1.33,0.577 1.33,0.634 1.33,0.82 1.267,0.96 1.141,1.06 1.053,1.135 0.963,1.188 0.866,1.228 0.764,1.264 0.57,1.315 0.285,1.367 L -1.542,1.751 -1.83,0.381 0,0 z m 0.583,-0.185 c -0.127,0.008 -0.324,0.04 -0.603,0.099 l -1.869,0.39 -0.044,0.009 0.32,1.546 1.919,-0.403 C 0.589,1.398 0.786,1.348 0.894,1.31 1.005,1.271 1.108,1.21 1.197,1.131 1.343,1.009 1.417,0.84 1.417,0.634 1.417,0.569 1.415,0.499 1.398,0.422 1.334,0.125 1.177,-0.075 0.933,-0.15 0.842,-0.174 0.746,-0.185 0.652,-0.185 c -0.024,0 -0.047,0 -0.069,0 m -2.661,-0.427 0.005,0.043 -0.005,-0.043 z M 0.1,-3.343 2.021,-3.741 2.027,-3.697 C 1.916,-3.66 1.821,-3.591 1.752,-3.498 1.67,-3.394 1.569,-3.189 1.437,-2.882 l -0.785,1.825 0.067,-0.004 c 0.062,-0.002 0.118,-0.004 0.175,-0.004 0.921,0.004 1.444,0.408 1.625,1.246 0.027,0.136 0.039,0.27 0.039,0.4 0,0.122 -0.009,0.242 -0.037,0.359 C 2.466,1.195 2.352,1.415 2.177,1.596 2.021,1.751 1.829,1.877 1.594,1.977 1.359,2.076 1.033,2.171 0.611,2.261 L -2.84,2.984 -2.863,2.94 c 0.096,-0.051 0.163,-0.105 0.198,-0.164 0.02,-0.048 0.03,-0.088 0.03,-0.142 0,-0.033 -0.003,-0.063 -0.004,-0.097 l -0.987,-4.706 c -0.019,-0.087 -0.056,-0.154 -0.116,-0.201 -0.057,-0.046 -0.14,-0.066 -0.206,-0.035 l -0.019,-0.087 1.661,-0.35 0.026,0.043 c -0.091,0.048 -0.16,0.097 -0.2,0.165 -0.021,0.04 -0.032,0.09 -0.032,0.14 0,0.027 0.007,0.061 0.011,0.09 l 0.385,1.843 0.013,0.041 1.555,-0.343 0.782,-1.871 c 0.077,-0.191 0.122,-0.318 0.122,-0.393 l 0,-0.027 C 0.33,-3.254 0.234,-3.294 0.108,-3.291 L 0.1,-3.343 z m -0.108,-0.07 0.008,0.044 0.073,0.166 0.034,0 c 0.115,10e-4 0.152,0.028 0.161,0.062 l 0,0.014 c 0.003,0.046 -0.038,0.169 -0.117,0.359 l -0.749,1.846 -1.437,0.301 -0.38,-1.806 c -0.005,-0.024 -0.008,-0.046 -0.008,-0.067 0,-0.039 0.008,-0.069 0.021,-0.1 0.026,-0.038 0.077,-0.083 0.186,-0.174 l -0.038,-0.175 -1.817,0.385 0.008,0.039 0.069,0.167 c 0.099,0.004 0.164,0.026 0.2,0.05 0.037,0.029 0.061,0.08 0.082,0.151 l 0.982,4.706 c 0.003,0.029 0.005,0.059 0.005,0.079 0,0.04 -0.005,0.073 -0.02,0.094 -0.017,0.041 -0.072,0.085 -0.187,0.181 L -2.889,3.08 0.628,2.346 C 1.052,2.254 1.382,2.161 1.627,2.063 1.871,1.954 2.075,1.823 2.236,1.655 2.427,1.464 2.551,1.229 2.609,0.96 2.633,0.836 2.646,0.71 2.646,0.581 2.646,0.445 2.63,0.304 2.602,0.163 2.425,-0.711 1.836,-1.157 0.894,-1.151 c -0.033,0 -0.07,0 -0.108,0 l 0.73,-1.697 c 0.132,-0.303 0.236,-0.507 0.305,-0.596 0.065,-0.092 0.154,-0.147 0.269,-0.18 l 0.043,-0.01 -0.009,-0.041 -0.038,-0.171 -2.094,0.433"
           id="path3221"
           style="fill:#1a64b7;fill-opacity:1;fill-rule:nonzero;stroke:none" />
      </g>
      <g
         transform="matrix(1.25,0,0,-1.25,310.15693,512.57524)"
         id="g3223">
        <path
           d="M 0,0 1.911,0.077 C 2.194,0.086 2.394,0.105 2.505,0.125 2.626,0.148 2.731,0.185 2.823,0.241 3.03,0.365 3.129,0.573 3.117,0.871 3.103,1.165 2.995,1.369 2.779,1.475 2.673,1.523 2.569,1.553 2.453,1.564 c -0.111,0.012 -0.312,0.012 -0.6,0 L -0.058,1.491 0,0 z m 0.036,-0.931 0.078,-1.884 c 0,-0.085 0.026,-0.146 0.066,-0.192 0.041,-0.044 0.114,-0.074 0.208,-0.096 l 0.005,-0.137 -1.768,-0.067 -0.007,0.135 c 0.1,0.033 0.169,0.069 0.207,0.115 0.035,0.044 0.054,0.107 0.049,0.193 l -0.19,4.802 c -0.003,0.087 -0.025,0.149 -0.066,0.194 -0.04,0.042 -0.112,0.077 -0.212,0.102 L -1.598,2.363 1.949,2.504 C 2.383,2.523 2.726,2.515 2.981,2.471 3.234,2.431 3.457,2.354 3.653,2.237 3.877,2.101 4.051,1.911 4.168,1.667 4.279,1.434 4.339,1.182 4.354,0.909 4.389,-0.013 3.896,-0.577 2.875,-0.773 L 4.04,-2.299 c 0.2,-0.267 0.349,-0.437 0.446,-0.513 0.089,-0.078 0.204,-0.115 0.336,-0.12 l 0,-0.128 -2.043,-0.079 -0.008,0.127 c 0.137,0.031 0.206,0.08 0.206,0.159 0,0.05 -0.075,0.166 -0.211,0.353 L 1.551,-0.874 0.036,-0.931"
           id="path3225"
           style="fill:#1a64b7;fill-opacity:1;fill-rule:nonzero;stroke:none" />
      </g>
      <g
         transform="matrix(1.25,0,0,-1.25,312.4768,510.67649)"
         id="g3227">
        <path
           d="m 0,0 -1.871,-0.027 0.06,-1.446 1.865,0.076 c 0.284,0.012 0.481,0.028 0.592,0.048 0.107,0.019 0.21,0.056 0.302,0.109 0.177,0.11 0.267,0.281 0.267,0.545 0,0.011 0,0.032 0,0.044 C 1.202,-0.365 1.094,-0.182 0.901,-0.087 0.802,-0.04 0.698,-0.008 0.594,0 0.541,0.008 0.466,0.012 0.368,0.012 0.262,0.012 0.144,0.008 0,0 m -1.856,-1.519 -0.044,0 -0.016,1.533 1.909,0.079 C 0.14,0.1 0.262,0.1 0.368,0.1 0.466,0.1 0.543,0.096 0.601,0.093 0.716,0.08 0.834,0.045 0.94,-0.007 1.17,-0.117 1.294,-0.34 1.306,-0.651 l 0,-0.044 C 1.306,-0.977 1.2,-1.191 0.99,-1.313 0.893,-1.375 0.78,-1.417 0.661,-1.437 0.541,-1.456 0.341,-1.473 0.062,-1.487 l -1.918,-0.072 0,0.04 z m 2.93,-2.851 0,-0.002 0,0.002 m -4.308,-0.412 1.73,0.025 0.028,0.092 c -0.104,0.018 -0.177,0.054 -0.229,0.109 -0.056,0.056 -0.081,0.131 -0.085,0.222 l -0.071,1.881 0.041,0.003 0,0.044 1.55,0.037 1.212,-1.621 C 1.074,-4.163 1.14,-4.269 1.143,-4.375 l 0.019,0 c 0,-0.11 -0.097,-0.172 -0.201,-0.155 L 0.919,-4.618 2.923,-4.58 2.966,-4.491 C 2.821,-4.487 2.702,-4.446 2.598,-4.366 2.501,-4.283 2.354,-4.11 2.144,-3.844 l -1.204,1.579 0.07,0.012 c 0.973,0.198 1.438,0.699 1.443,1.551 0,0.029 0,0.06 -0.005,0.092 C 2.437,-0.344 2.38,-0.094 2.269,0.131 2.157,0.367 1.988,0.546 1.776,0.679 1.588,0.792 1.366,0.87 1.121,0.909 0.94,0.937 0.716,0.952 0.449,0.952 0.338,0.952 0.22,0.945 0.095,0.942 L -3.413,0.847 -3.439,0.755 C -3.334,0.732 -3.262,0.695 -3.205,0.647 -3.157,0.592 -3.13,0.514 -3.13,0.421 l 0.191,-4.809 0,-0.013 c 0,-0.079 -0.017,-0.15 -0.06,-0.204 -0.044,-0.053 -0.121,-0.098 -0.196,-0.086 l -0.039,-0.091 z m -0.017,0.132 c 0.094,0.031 0.157,0.07 0.181,0.101 0.031,0.031 0.046,0.08 0.046,0.148 0,0.002 -0.003,0.011 0,0.017 L -3.216,0.418 C -3.218,0.497 -3.239,0.552 -3.268,0.581 -3.301,0.617 -3.366,0.65 -3.492,0.712 l 0.038,0.176 3.547,0.145 C 0.216,1.037 0.338,1.038 0.449,1.038 0.716,1.038 0.942,1.027 1.128,0.999 1.391,0.958 1.618,0.878 1.821,0.754 2.053,0.617 2.229,0.418 2.354,0.17 2.465,-0.071 2.526,-0.33 2.537,-0.609 2.54,-0.641 2.54,-0.673 2.54,-0.702 2.543,-1.569 2.049,-2.122 1.091,-2.322 L 2.214,-3.79 c 0.205,-0.267 0.357,-0.435 0.44,-0.503 0.087,-0.073 0.185,-0.108 0.354,-0.153 l -0.04,-0.181 -2.093,-0.036 0.027,0.176 c 0.136,0.028 0.172,0.07 0.172,0.112 0.004,0 0.004,0.003 0,0.005 0,0.028 -0.067,0.148 -0.199,0.326 l -1.179,1.605 -1.468,-0.058 0.07,-1.836 c 0.004,-0.077 0.026,-0.128 0.06,-0.163 0.031,-0.034 0.088,-0.066 0.219,-0.122 l -0.033,-0.184 -1.822,-0.025 0.027,0.177"
           id="path3229"
           style="fill:#1a64b7;fill-opacity:1;fill-rule:nonzero;stroke:none" />
      </g>
      <g
         transform="matrix(1.25,0,0,-1.25,317.74005,515.35886)"
         id="g3231">
        <path
           d="m 0,0 -1.034,4.694 c -0.019,0.081 -0.052,0.14 -0.098,0.172 -0.045,0.036 -0.122,0.058 -0.23,0.063 L -1.386,5.059 0.343,5.44 0.373,5.312 C 0.282,5.265 0.218,5.216 0.19,5.164 0.163,5.108 0.16,5.041 0.177,4.959 L 1.214,0.268 C 1.228,0.181 1.266,0.124 1.316,0.087 1.363,0.049 1.439,0.031 1.536,0.027 l 0.031,-0.13 -1.732,-0.381 -0.029,0.131 c 0.092,0.044 0.155,0.098 0.184,0.151 C 0.016,-0.15 0.022,-0.084 0,0"
           id="path3233"
           style="fill:#1a64b7;fill-opacity:1;fill-rule:nonzero;stroke:none" />
      </g>
      <g
         transform="matrix(1.25,0,0,-1.25,317.80743,515.47299)"
         id="g3235">
        <path
           d="m 0,0 c 0,-0.049 -0.008,-0.096 -0.028,-0.133 -0.037,-0.064 -0.102,-0.12 -0.174,-0.12 l 0.017,-0.085 1.66,0.366 0.007,0.047 C 1.377,0.079 1.294,0.097 1.233,0.14 1.171,0.185 1.131,0.26 1.114,0.348 L 0.083,5.042 c -0.012,0.037 -0.018,0.073 -0.018,0.1 0,0.049 0.014,0.096 0.031,0.134 0.037,0.068 0.105,0.117 0.18,0.117 L 0.255,5.477 -1.404,5.115 -1.409,5.065 C -1.3,5.059 -1.215,5.042 -1.16,4.995 -1.098,4.949 -1.062,4.881 -1.044,4.8 L -0.009,0.102 -0.054,0.091 -0.009,0.102 C -0.002,0.067 0,0.033 0,0 m -0.262,-0.404 -0.006,0.182 c 0.089,0.042 0.14,0.093 0.163,0.13 0.012,0.025 0.018,0.057 0.018,0.092 0,0.024 -0.003,0.054 -0.006,0.08 l -1.038,4.7 C -1.146,4.851 -1.177,4.899 -1.211,4.923 -1.25,4.949 -1.315,4.971 -1.458,5.011 L -1.493,5.186 0.323,5.586 0.335,5.544 0.336,5.363 C 0.253,5.321 0.199,5.272 0.175,5.233 0.161,5.209 0.156,5.177 0.156,5.142 0.156,5.121 0.158,5.093 0.164,5.065 L 1.201,0.369 C 1.219,0.292 1.248,0.242 1.288,0.216 1.325,0.185 1.391,0.164 1.526,0.128 l 0.041,-0.172 -1.817,-0.402 -0.012,0.042"
           id="path3237"
           style="fill:#1a64b7;fill-opacity:1;fill-rule:nonzero;stroke:none" />
      </g>
      <g
         transform="matrix(1.25,0,0,-1.25,322.74581,508.11511)"
         id="g3239">
        <path
           d="m 0,0 c -0.501,-0.211 -0.851,-0.536 -1.056,-0.974 -0.242,-0.517 -0.242,-1.06 -0.007,-1.626 0.244,-0.566 0.634,-0.936 1.177,-1.118 0.457,-0.153 0.936,-0.121 1.439,0.094 0.504,0.211 0.86,0.535 1.061,0.974 0.121,0.26 0.181,0.54 0.175,0.839 C 2.786,-1.548 2.731,-1.294 2.628,-1.049 2.377,-0.461 1.982,-0.08 1.446,0.095 0.982,0.239 0.506,0.211 0,0 M -0.382,0.886 C 0.525,1.274 1.353,1.335 2.102,1.072 2.881,0.796 3.448,0.254 3.796,-0.562 4.011,-1.064 4.072,-1.587 3.987,-2.14 3.819,-3.211 3.131,-4.004 1.93,-4.517 1.028,-4.902 0.2,-4.957 -0.539,-4.696 c -0.401,0.139 -0.749,0.363 -1.051,0.663 -0.271,0.274 -0.48,0.587 -0.635,0.943 -0.223,0.521 -0.292,1.056 -0.208,1.606 0.159,1.045 0.843,1.837 2.051,2.37"
           id="path3241"
           style="fill:#1a64b7;fill-opacity:1;fill-rule:nonzero;stroke:none" />
      </g>
      <g
         transform="matrix(1.25,0,0,-1.25,321.47255,509.35762)"
         id="g3243">
        <path
           d="m 0,0 c -0.122,-0.252 -0.176,-0.512 -0.176,-0.778 0,-0.261 0.054,-0.529 0.174,-0.811 0.235,-0.552 0.62,-0.913 1.146,-1.093 0.191,-0.064 0.38,-0.095 0.574,-0.095 0.27,0 0.547,0.066 0.839,0.186 0.495,0.212 0.839,0.528 1.035,0.955 0.119,0.246 0.173,0.509 0.173,0.796 l 0,0.024 C 3.761,-0.558 3.711,-0.31 3.604,-0.073 3.354,0.507 2.974,0.875 2.451,1.045 2.263,1.105 2.073,1.135 1.885,1.135 1.608,1.135 1.323,1.074 1.033,0.954 0.545,0.742 0.202,0.429 0,0 m 1.117,-2.764 c -0.553,0.183 -0.956,0.568 -1.201,1.141 -0.125,0.287 -0.183,0.568 -0.183,0.845 0,0.28 0.062,0.551 0.191,0.818 0.208,0.445 0.569,0.78 1.072,0.996 L 1.017,0.995 0.996,1.036 c 0.3,0.128 0.598,0.187 0.889,0.187 0.197,0 0.397,-0.033 0.588,-0.093 0.552,-0.176 0.958,-0.569 1.214,-1.168 0.106,-0.247 0.162,-0.506 0.164,-0.79 l 0,-0.012 C 3.851,-1.137 3.793,-1.419 3.674,-1.673 3.469,-2.121 3.105,-2.456 2.594,-2.672 2.292,-2.799 2,-2.863 1.718,-2.863 c -0.207,0 -0.408,0.035 -0.601,0.099 M 0.656,1.84 C -0.546,1.307 -1.215,0.533 -1.369,-0.495 -1.398,-0.639 -1.406,-0.79 -1.406,-0.93 c 0,-0.393 0.081,-0.773 0.24,-1.148 0.149,-0.35 0.356,-0.663 0.624,-0.928 0.3,-0.295 0.645,-0.517 1.035,-0.65 0.297,-0.107 0.609,-0.161 0.936,-0.161 0.471,0 0.973,0.111 1.5,0.335 1.199,0.512 1.866,1.29 2.029,2.346 0.026,0.159 0.037,0.313 0.037,0.464 0,0.375 -0.073,0.737 -0.221,1.087 C 4.43,1.221 3.873,1.751 3.099,2.023 2.801,2.132 2.494,2.184 2.171,2.184 1.695,2.184 1.191,2.066 0.656,1.843 l 0,-0.003 z M 0.465,-3.742 c -0.404,0.14 -0.761,0.367 -1.071,0.677 -0.27,0.272 -0.487,0.588 -0.641,0.949 -0.163,0.388 -0.248,0.78 -0.248,1.186 0,0.146 0.013,0.295 0.038,0.447 0.157,1.063 0.857,1.868 2.075,2.406 0.546,0.233 1.064,0.35 1.553,0.35 0.332,0 0.656,-0.054 0.957,-0.164 C 3.924,1.831 4.503,1.273 4.856,0.45 5.005,0.089 5.087,-0.285 5.087,-0.672 5.087,-0.828 5.072,-0.985 5.049,-1.15 4.88,-2.237 4.181,-3.045 2.968,-3.561 2.424,-3.793 1.911,-3.909 1.429,-3.909 c -0.337,0 -0.659,0.057 -0.964,0.167"
           id="path3245"
           style="fill:#1a64b7;fill-opacity:1;fill-rule:nonzero;stroke:none" />
      </g>
      <g
         transform="matrix(1.25,0,0,-1.25,329.29168,506.78086)"
         id="g3247">
        <path
           d="M 0,0 1.511,1.167 C 1.738,1.339 1.89,1.469 1.973,1.553 2.052,1.64 2.119,1.731 2.161,1.834 2.259,2.052 2.215,2.278 2.037,2.515 1.854,2.749 1.646,2.846 1.409,2.808 1.296,2.791 1.19,2.753 1.09,2.696 0.996,2.637 0.833,2.523 0.603,2.346 L -0.91,1.18 0,0 z m 0.567,-0.74 1.155,-1.494 c 0.045,-0.062 0.105,-0.103 0.161,-0.115 0.062,-0.012 0.136,0.003 0.23,0.042 L 2.194,-2.412 0.791,-3.493 0.709,-3.392 c 0.062,0.089 0.095,0.158 0.098,0.216 0.008,0.058 -0.02,0.121 -0.067,0.19 L -2.2,0.815 C -2.25,0.885 -2.305,0.924 -2.363,0.938 -2.422,0.943 -2.501,0.933 -2.594,0.896 L -2.676,1 0.135,3.169 C 0.481,3.435 0.769,3.625 0.996,3.74 1.229,3.853 1.455,3.922 1.682,3.937 1.945,3.955 2.194,3.901 2.428,3.774 2.654,3.649 2.854,3.475 3.022,3.262 3.582,2.527 3.509,1.782 2.788,1.031 L 4.622,0.461 C 4.943,0.367 5.162,0.31 5.281,0.302 5.399,0.297 5.515,0.329 5.622,0.4 L 5.703,0.297 4.082,-0.958 4.002,-0.85 c 0.098,0.1 0.122,0.185 0.074,0.246 -0.03,0.042 -0.159,0.096 -0.377,0.165 L 1.765,0.184 0.567,-0.74"
           id="path3249"
           style="fill:#1a64b7;fill-opacity:1;fill-rule:nonzero;stroke:none" />
      </g>
      <g
         transform="matrix(1.25,0,0,-1.25,331.05855,503.32849)"
         id="g3251">
        <path
           d="M 0,0 C -0.104,-0.016 -0.205,-0.047 -0.296,-0.102 -0.392,-0.158 -0.56,-0.274 -0.782,-0.45 l -1.481,-1.136 0.854,-1.111 1.483,1.14 c 0.222,0.169 0.373,0.299 0.45,0.383 0.081,0.08 0.139,0.168 0.184,0.265 0.026,0.072 0.045,0.14 0.045,0.215 0,0.131 -0.053,0.272 -0.164,0.419 C 0.436,-0.083 0.275,0.009 0.088,0.009 0.062,0.009 0.031,0.009 0,0 m -1.415,-2.759 0.033,0.023 -0.033,-0.023 z m -0.972,1.184 1.547,1.2 c 0.231,0.171 0.396,0.292 0.494,0.346 0.105,0.064 0.218,0.1 0.334,0.115 0.037,0.011 0.072,0.013 0.1,0.013 0.22,0 0.408,-0.108 0.57,-0.32 0.118,-0.159 0.185,-0.315 0.185,-0.473 0,-0.09 -0.018,-0.175 -0.055,-0.252 C 0.74,-1.054 0.673,-1.152 0.589,-1.24 0.504,-1.324 0.351,-1.456 0.125,-1.629 l -1.513,-1.17 -0.039,-0.026 -0.96,1.25 z m 1.774,-4.616 1.334,1.026 -0.036,0.045 C 0.619,-5.144 0.564,-5.155 0.511,-5.155 c -0.015,0 -0.029,0 -0.05,0.004 -0.073,0.012 -0.132,0.057 -0.186,0.128 l -1.153,1.495 -0.031,0.037 1.277,0.955 1.933,-0.618 c 0.222,-0.077 0.344,-0.124 0.394,-0.183 0.024,-0.028 0.034,-0.059 0.034,-0.093 0,-0.061 -0.034,-0.121 -0.085,-0.183 L 2.673,-3.656 4.227,-2.46 4.195,-2.42 C 4.101,-2.471 4,-2.5 3.897,-2.5 c -0.008,0 -0.019,-10e-4 -0.033,0 -0.128,0.006 -0.345,0.057 -0.672,0.159 l -1.9,0.591 0.05,0.048 c 0.397,0.421 0.59,0.826 0.59,1.225 0,0.315 -0.12,0.629 -0.361,0.944 C 1.404,0.68 1.209,0.849 1,0.972 0.795,1.086 0.589,1.136 0.368,1.136 c -0.033,0 -0.06,0 -0.093,0 C 0.051,1.115 -0.168,1.053 -0.395,0.936 -0.626,0.825 -0.909,0.64 -1.252,0.375 l -2.775,-2.145 0.033,-0.042 c 0.066,0.025 0.12,0.034 0.174,0.034 0.019,0 0.036,-0.003 0.051,-0.004 0.076,-0.014 0.135,-0.063 0.196,-0.136 l 2.935,-3.807 C -0.59,-5.789 -0.56,-5.86 -0.56,-5.929 l 0,-0.01 c -0.003,-0.07 -0.038,-0.134 -0.088,-0.212 l 0.035,-0.04 z m -0.043,-0.096 -0.102,0.135 0.017,0.029 c 0.062,0.079 0.088,0.145 0.093,0.186 l 0,0.008 c 0,0.043 -0.019,0.096 -0.065,0.151 l -2.93,3.805 c -0.05,0.065 -0.101,0.098 -0.144,0.107 -0.009,0 -0.018,0.003 -0.033,0.003 -0.045,0 -0.104,-0.012 -0.174,-0.043 l -0.031,-0.012 -0.017,0.024 -0.108,0.139 2.846,2.197 C -0.96,0.708 -0.674,0.9 -0.436,1.017 -0.2,1.136 0.035,1.206 0.264,1.22 0.299,1.222 0.335,1.222 0.368,1.222 0.601,1.225 0.825,1.168 1.036,1.05 1.266,0.921 1.472,0.745 1.64,0.525 1.891,0.2 2.02,-0.138 2.02,-0.477 2.02,-0.888 1.829,-1.302 1.457,-1.707 L 3.222,-2.258 C 3.54,-2.353 3.759,-2.407 3.867,-2.414 l 0.03,0 c 0.102,0.001 0.197,0.027 0.285,0.091 l 0.04,0.021 0.023,-0.03 0.111,-0.139 -1.698,-1.309 -0.025,0.034 -0.106,0.141 0.025,0.025 c 0.064,0.064 0.092,0.117 0.092,0.15 0,0.013 -0.011,0.024 -0.015,0.036 -0.011,0.019 -0.139,0.087 -0.354,0.151 l -1.894,0.632 -1.163,-0.9 1.122,-1.456 c 0.048,-0.061 0.092,-0.09 0.142,-0.102 0.002,-0.001 0.014,-0.001 0.029,-0.001 0.043,0 0.103,0.013 0.172,0.042 l 0.031,0.015 0.02,-0.029 0.109,-0.142 -1.472,-1.135 -0.027,0.032"
           id="path3253"
           style="fill:#1a64b7;fill-opacity:1;fill-rule:nonzero;stroke:none" />
      </g>
      <g
         transform="matrix(1.25,0,0,-1.25,336.47155,496.12749)"
         id="g3255">
        <path
           d="M 0,0 0.608,-1.371 0.486,-1.42 c -0.023,0.02 -0.038,0.036 -0.046,0.046 -0.075,0.06 -0.206,0.061 -0.393,0.003 -0.578,-0.164 -1.076,-0.508 -1.494,-1.023 -0.184,-0.232 -0.32,-0.453 -0.401,-0.674 -0.067,-0.163 -0.082,-0.32 -0.062,-0.469 0.024,-0.146 0.083,-0.262 0.188,-0.343 0.165,-0.137 0.356,-0.123 0.58,0.026 0.113,0.078 0.333,0.276 0.636,0.589 l 0.466,0.467 c 0.276,0.275 0.515,0.481 0.721,0.621 0.209,0.141 0.42,0.245 0.636,0.305 0.229,0.062 0.462,0.064 0.704,0.009 0.242,-0.05 0.457,-0.16 0.652,-0.317 C 2.988,-2.428 3.178,-2.754 3.261,-3.151 3.332,-3.509 3.265,-3.92 3.061,-4.388 2.911,-4.738 2.703,-5.072 2.44,-5.398 1.969,-5.982 1.362,-6.444 0.622,-6.79 0.465,-6.862 0.38,-6.916 0.361,-6.935 0.34,-6.966 0.326,-7.03 0.326,-7.126 l -0.125,-0.058 -0.695,1.354 0.119,0.06 c 0.019,-0.014 0.035,-0.026 0.041,-0.034 0.1,-0.081 0.228,-0.103 0.384,-0.081 0.24,0.042 0.519,0.171 0.848,0.395 0.329,0.218 0.599,0.453 0.811,0.718 0.229,0.289 0.381,0.573 0.45,0.857 0.037,0.155 0.041,0.3 0.002,0.439 C 2.124,-3.34 2.059,-3.231 1.963,-3.151 1.816,-3.034 1.647,-3.03 1.461,-3.133 1.326,-3.207 1.106,-3.395 0.8,-3.705 L 0.345,-4.159 C 0.038,-4.461 -0.182,-4.672 -0.322,-4.788 -0.469,-4.899 -0.629,-4.997 -0.809,-5.08 -1.067,-5.197 -1.34,-5.235 -1.625,-5.186 c -0.254,0.038 -0.496,0.149 -0.723,0.333 -0.373,0.302 -0.578,0.68 -0.611,1.136 -0.048,0.597 0.2,1.229 0.744,1.904 0.227,0.28 0.466,0.518 0.721,0.714 0.258,0.201 0.606,0.419 1.058,0.657 0.145,0.088 0.235,0.142 0.254,0.17 0.037,0.044 0.058,0.12 0.058,0.218 L 0,0"
           id="path3257"
           style="fill:#1a64b7;fill-opacity:1;fill-rule:nonzero;stroke:none" />
      </g>
      <g
         transform="matrix(1.25,0,0,-1.25,335.92693,503.43812)"
         id="g3259">
        <path
           d="m 0,0 0.661,-1.286 0.056,0.008 c 0.002,0.103 0.011,0.17 0.048,0.22 0.032,0.038 0.11,0.08 0.273,0.155 0.735,0.345 1.333,0.801 1.803,1.38 0.261,0.323 0.468,0.655 0.616,1 0.148,0.341 0.218,0.65 0.218,0.929 0,0.097 -0.004,0.192 -0.024,0.286 C 3.569,3.075 3.383,3.39 3.083,3.636 2.892,3.788 2.678,3.89 2.442,3.946 2.331,3.969 2.223,3.984 2.12,3.984 2,3.984 1.882,3.967 1.769,3.936 1.559,3.873 1.344,3.772 1.144,3.636 0.939,3.497 0.696,3.29 0.423,3.015 L -0.036,2.551 C -0.348,2.239 -0.558,2.042 -0.68,1.957 -0.804,1.875 -0.921,1.831 -1.036,1.831 c -0.1,0 -0.196,0.033 -0.278,0.104 -0.113,0.088 -0.181,0.216 -0.201,0.372 -0.01,0.045 -0.013,0.085 -0.013,0.13 0,0.114 0.025,0.237 0.071,0.358 0.085,0.223 0.225,0.453 0.412,0.686 0.424,0.524 0.928,0.87 1.518,1.039 0.09,0.03 0.17,0.043 0.244,0.043 C 0.791,4.565 0.852,4.549 0.899,4.509 0.917,4.497 0.932,4.48 0.902,4.472 L 0.986,4.506 0.406,5.801 0.354,5.794 C 0.354,5.692 0.337,5.61 0.291,5.547 0.254,5.506 0.171,5.459 0.018,5.369 -0.431,5.128 -0.779,4.911 -1.033,4.722 -1.279,4.52 -1.518,4.288 -1.748,4.005 -2.244,3.395 -2.49,2.819 -2.49,2.277 c 0,-0.041 0.005,-0.094 0.008,-0.141 0.038,-0.448 0.236,-0.806 0.6,-1.105 0.218,-0.18 0.453,-0.284 0.702,-0.327 0.075,-0.01 0.155,-0.016 0.227,-0.016 0.194,0 0.38,0.042 0.558,0.122 0.18,0.081 0.337,0.178 0.48,0.29 0.136,0.108 0.361,0.316 0.665,0.62 L 1.206,2.178 C 1.511,2.483 1.732,2.674 1.873,2.753 1.966,2.807 2.061,2.835 2.154,2.835 2.252,2.837 2.343,2.8 2.425,2.731 2.53,2.648 2.603,2.53 2.641,2.382 2.657,2.311 2.663,2.24 2.663,2.165 2.663,2.088 2.657,2.007 2.637,1.921 2.57,1.629 2.415,1.341 2.183,1.051 1.963,0.781 1.687,0.541 1.359,0.322 1.028,0.096 0.741,-0.036 0.493,-0.077 0.449,-0.083 0.41,-0.087 0.373,-0.087 0.254,-0.087 0.157,-0.054 0.076,0.008 0.069,0.014 0.058,0.027 0.075,0.035 L 0,0 z M -0.119,0.043 -0.078,0.06 0.091,0.117 C 0.107,0.096 0.124,0.086 0.133,0.081 0.199,0.027 0.274,0 0.373,0 0.406,0 0.443,0.007 0.481,0.008 0.706,0.047 0.983,0.174 1.308,0.394 1.632,0.609 1.902,0.844 2.114,1.105 2.338,1.388 2.486,1.666 2.552,1.94 2.57,2.018 2.577,2.093 2.577,2.165 2.577,2.236 2.57,2.3 2.556,2.363 2.522,2.494 2.457,2.59 2.371,2.662 2.298,2.72 2.229,2.747 2.154,2.747 2.082,2.747 2.001,2.727 1.919,2.677 1.795,2.606 1.571,2.417 1.271,2.114 L 0.811,1.659 C 0.506,1.35 0.283,1.145 0.141,1.028 -0.006,0.913 -0.171,0.811 -0.357,0.731 -0.549,0.64 -0.744,0.599 -0.953,0.599 c -0.083,0 -0.161,0.007 -0.238,0.018 -0.266,0.044 -0.516,0.158 -0.747,0.346 -0.383,0.307 -0.596,0.699 -0.631,1.164 -0.002,0.051 -0.009,0.102 -0.009,0.15 0,0.568 0.257,1.164 0.761,1.785 0.231,0.285 0.474,0.529 0.732,0.725 0.26,0.199 0.609,0.418 1.064,0.662 0.145,0.081 0.237,0.142 0.242,0.156 0.029,0.031 0.045,0.092 0.07,0.232 L 0.417,5.888 0.457,5.905 1.101,4.459 1.062,4.441 0.892,4.394 C 0.865,4.42 0.856,4.431 0.846,4.441 0.817,4.462 0.775,4.477 0.717,4.477 0.655,4.477 0.579,4.464 0.499,4.439 -0.071,4.271 -0.563,3.936 -0.975,3.423 -1.158,3.201 -1.293,2.978 -1.38,2.764 -1.417,2.65 -1.44,2.539 -1.44,2.437 c 0,-0.041 0.003,-0.079 0.011,-0.118 0.02,-0.14 0.08,-0.238 0.166,-0.312 0.074,-0.059 0.149,-0.086 0.227,-0.086 0.088,0 0.192,0.036 0.302,0.111 0.113,0.075 0.326,0.268 0.63,0.584 L 0.361,3.08 C 0.636,3.357 0.883,3.565 1.092,3.709 1.306,3.852 1.521,3.956 1.743,4.023 1.867,4.055 1.991,4.072 2.12,4.072 2.234,4.072 2.346,4.061 2.463,4.034 2.711,3.98 2.935,3.866 3.135,3.704 3.457,3.447 3.655,3.112 3.734,2.71 3.757,2.612 3.764,2.509 3.764,2.406 3.764,2.108 3.688,1.792 3.538,1.44 3.387,1.092 3.178,0.75 2.909,0.422 2.434,-0.166 1.82,-0.635 1.074,-0.98 0.923,-1.054 0.831,-1.112 0.829,-1.115 0.817,-1.121 0.806,-1.186 0.779,-1.32 L 0.614,-1.391 -0.119,0.043"
           id="path3261"
           style="fill:#1a64b7;fill-opacity:1;fill-rule:nonzero;stroke:none" />
      </g>
      <g
         transform="matrix(1.25,0,0,-1.25,339.27543,479.16411)"
         id="g3263">
        <path
           d="m 0,0 c 0,-12.566 -10.185,-22.754 -22.752,-22.754 -12.571,0 -22.756,10.188 -22.756,22.754 0,12.566 10.185,22.757 22.756,22.757 C -10.185,22.757 0,12.566 0,0"
           id="path3265"
           style="fill:#1a64b7;fill-opacity:1;fill-rule:nonzero;stroke:none" />
      </g>
      <g
         transform="matrix(1.25,0,0,-1.25,310.82255,502.77949)"
         id="g3267">
        <path
           d="m 0,0 c -10.833,0 -19.615,8.782 -19.615,19.618 0,10.834 8.782,19.618 19.615,19.618 10.835,0 19.616,-8.785 19.616,-19.618 C 19.616,8.782 10.835,0 0,0 m -0.002,40.547 c -11.562,0 -20.936,-9.369 -20.936,-20.935 0,-11.563 9.374,-20.934 20.936,-20.934 11.563,0 20.937,9.371 20.937,20.934 0,11.566 -9.374,20.935 -20.937,20.935"
           id="path3269"
           style="fill:#fbbf16;fill-opacity:1;fill-rule:nonzero;stroke:none" />
      </g>
      <g
         transform="matrix(1.25,0,0,-1.25,296.43518,465.86611)"
         id="g3271">
        <path
           d="m 0,0 c 0,0 11.664,-15.586 30.212,-19.133 l -3.346,-0.959 c 0,0 -11.593,2.683 -26.776,19.635"
           id="path3273"
           style="fill:#fbbf16;fill-opacity:1;fill-rule:nonzero;stroke:none" />
      </g>
      <g
         transform="matrix(1.25,0,0,-1.25,289.55893,493.29811)"
         id="g3275">
        <path
           d="m 0,0 c 0,0 15.092,2.487 31.729,2.082 l 3.332,0.715 -1.798,-3.926 c 0,0 -17.556,0.601 -30.558,-0.762 -2.317,0.318 -2.013,1.166 -2.013,1.166 L 0,0"
           id="path3277"
           style="fill:#fbbf16;fill-opacity:1;fill-rule:nonzero;stroke:none" />
      </g>
      <g
         transform="matrix(1.25,0,0,-1.25,292.35243,495.97162)"
         id="g3279">
        <path
           d="m 0,0 c 0,0 19.672,0.857 29.656,-0.469 0.264,-0.035 0.81,0.899 0.81,0.899 0,0 -7.246,1.001 -29.426,0.228 C -2.557,0.532 0,0 0,0"
           id="path3281"
           style="fill:#fbbf16;fill-opacity:1;fill-rule:nonzero;stroke:none" />
      </g>
      <g
         transform="matrix(1.25,0,0,-1.25,295.2408,467.97112)"
         id="g3283">
        <path
           d="m 0,0 c -3.589,-8.498 -7.825,-11.889 -7.825,-11.889 l 0.244,-1.713 c 0,0 4.672,6.058 7.581,12.83 C 1.607,2.966 0,0 0,0"
           id="path3285"
           style="fill:#fbbf16;fill-opacity:1;fill-rule:nonzero;stroke:none" />
      </g>
      <g
         transform="matrix(1.25,0,0,-1.25,295.63756,465.05449)"
         id="g3287">
        <path
           d="m 0,0 -0.507,-0.125 c 0,0 -0.495,-24.239 -0.173,-26.938 0.03,-0.239 1.206,-0.022 1.206,-0.022 0,0 0.401,-1.643 1.174,-0.959 -0.68,8.59 -0.844,28.546 -0.844,28.546 l -0.843,0 L 0,0"
           id="path3289"
           style="fill:#fbbf16;fill-opacity:1;fill-rule:nonzero;stroke:none" />
      </g>
      <g
         transform="matrix(1.25,0,0,-1.25,297.09631,465.59424)"
         id="g3291">
        <path
           d="M 0,0 0.57,0.493 1.179,0.219 c 0,0 0.608,-22.848 1.702,-29.255 l -0.593,0.047 c 0,0 -1.19,0.069 -1.271,0.817 C 0.539,-23.894 0,0 0,0"
           id="path3293"
           style="fill:#fbbf16;fill-opacity:1;fill-rule:nonzero;stroke:none" />
      </g>
      <g
         transform="matrix(1.25,0,0,-1.25,293.05531,493.92261)"
         id="g3295">
        <path
           d="M 0,0 -0.411,0.072 1.28,9.608 1.689,9.535 0,0 z"
           id="path3297"
           style="fill:#fbbf16;fill-opacity:1;fill-rule:nonzero;stroke:none" />
      </g>
      <g
         transform="matrix(1.25,0,0,-1.25,291.17468,493.69637)"
         id="g3299">
        <path
           d="M 0,0 -0.405,0.076 3.001,19.295 3.412,19.225 0,0 z"
           id="path3301"
           style="fill:#fbbf16;fill-opacity:1;fill-rule:nonzero;stroke:none" />
      </g>
      <g
         transform="matrix(1.25,0,0,-1.25,289.65543,492.12261)"
         id="g3303">
        <path
           d="M 0,0 -0.315,0.407 2.044,13.888 2.628,14.805 0,0 z"
           id="path3305"
           style="fill:#fbbf16;fill-opacity:1;fill-rule:nonzero;stroke:none" />
      </g>
      <g
         transform="matrix(1.25,0,0,-1.25,302.03218,492.61112)"
         id="g3307">
        <path
           d="M 0,0 0.395,0.123 -3.374,12.102 -3.05,9.594 0,0 z"
           id="path3309"
           style="fill:#fbbf16;fill-opacity:1;fill-rule:nonzero;stroke:none" />
      </g>
      <g
         transform="matrix(1.25,0,0,-1.25,303.86156,492.14887)"
         id="g3311">
        <path
           d="M 0,0 0.396,0.124 -4.693,16.495 -4.658,14.848 0,0 z"
           id="path3313"
           style="fill:#fbbf16;fill-opacity:1;fill-rule:nonzero;stroke:none" />
      </g>
      <g
         transform="matrix(1.25,0,0,-1.25,305.98943,491.75949)"
         id="g3315">
        <path
           d="M 0,0 0.396,0.122 -5.106,17.688 -5.786,18.405 0,0 z"
           id="path3317"
           style="fill:#fbbf16;fill-opacity:1;fill-rule:nonzero;stroke:none" />
      </g>
      <g
         transform="matrix(1.25,0,0,-1.25,301.75593,471.93237)"
         id="g3319">
        <path
           d="m 0,0 5.043,-15.821 0.396,0.128 -4.723,15.013 -0.25,0.25"
           id="path3321"
           style="fill:#fbbf16;fill-opacity:1;fill-rule:nonzero;stroke:none" />
      </g>
      <g
         transform="matrix(1.25,0,0,-1.25,304.86143,474.86824)"
         id="g3323">
        <path
           d="M 0,0 4.274,-13.481 4.67,-13.356 0.62,-0.534 0.064,0"
           id="path3325"
           style="fill:#fbbf16;fill-opacity:1;fill-rule:nonzero;stroke:none" />
      </g>
      <g
         transform="matrix(1.25,0,0,-1.25,312.14043,491.36562)"
         id="g3327">
        <path
           d="M 0,0 0.396,0.125 -3.006,10.786 -3.56,11.213 0,0 z"
           id="path3329"
           style="fill:#fbbf16;fill-opacity:1;fill-rule:nonzero;stroke:none" />
      </g>
      <g
         transform="matrix(1.25,0,0,-1.25,314.3393,491.27037)"
         id="g3331">
        <path
           d="M 0,0 0.397,0.126 -2.332,8.768 -2.971,9.344 0,0 z"
           id="path3333"
           style="fill:#fbbf16;fill-opacity:1;fill-rule:nonzero;stroke:none" />
      </g>
      <g
         transform="matrix(1.25,0,0,-1.25,313.37205,481.69837)"
         id="g3335">
        <path
           d="M 0,0 2.433,-7.614 2.828,-7.491 0.62,-0.469 0.235,-0.246"
           id="path3337"
           style="fill:#fbbf16;fill-opacity:1;fill-rule:nonzero;stroke:none" />
      </g>
      <g
         transform="matrix(1.25,0,0,-1.25,316.22718,483.85949)"
         id="g3339">
        <path
           d="m 0,0 1.863,-5.897 0.394,0.123 -1.723,5.432 -0.475,0.146"
           id="path3341"
           style="fill:#fbbf16;fill-opacity:1;fill-rule:nonzero;stroke:none" />
      </g>
      <g
         transform="matrix(1.25,0,0,-1.25,321.53843,493.74011)"
         id="g3343">
        <path
           d="M 0,0 0.397,0.124 -1.467,6.149 -2.163,6.982 0,0 z"
           id="path3345"
           style="fill:#fbbf16;fill-opacity:1;fill-rule:nonzero;stroke:none" />
      </g>
      <g
         transform="matrix(1.25,0,0,-1.25,321.41005,486.60049)"
         id="g3347">
        <path
           d="M 0,0 1.654,-5.281 2.049,-5.153 0.63,-0.616 0,0 z"
           id="path3349"
           style="fill:#fbbf16;fill-opacity:1;fill-rule:nonzero;stroke:none" />
      </g>
      <g
         transform="matrix(1.25,0,0,-1.25,324.06468,488.23286)"
         id="g3351">
        <path
           d="M 0,0 1.21,-3.813 1.608,-3.688 0.598,-0.516 0,0 z"
           id="path3353"
           style="fill:#fbbf16;fill-opacity:1;fill-rule:nonzero;stroke:none" />
      </g>
      <g
         transform="matrix(1.25,0,0,-1.25,287.13143,487.46049)"
         id="g3355">
        <path
           d="M 0,0 -0.492,0.386 0.785,5.371 1.193,5.324 0,0 z"
           id="path3357"
           style="fill:#fbbf16;fill-opacity:1;fill-rule:nonzero;stroke:none" />
      </g>
      <g
         transform="matrix(1.25,0,0,-1.25,288.49305,489.21049)"
         id="g3359">
        <path
           d="M 0,0 -0.316,0.409 1.154,8.745 1.684,9.512 0,0 z"
           id="path3361"
           style="fill:#fbbf16;fill-opacity:1;fill-rule:nonzero;stroke:none" />
      </g>
      <g
         transform="matrix(1.25,0,0,-1.25,284.94493,458.84499)"
         id="g3363">
        <path
           d="m 0,0 -0.107,-0.083 c -0.016,0.023 -0.036,0.042 -0.056,0.057 -0.052,0.039 -0.123,0.04 -0.213,0.007 -0.089,-0.034 -0.186,-0.09 -0.287,-0.168 -0.102,-0.078 -0.203,-0.17 -0.303,-0.276 -0.1,-0.108 -0.187,-0.213 -0.265,-0.318 -0.095,-0.129 -0.171,-0.272 -0.226,-0.426 -0.057,-0.154 -0.084,-0.309 -0.08,-0.465 0.004,-0.156 0.045,-0.309 0.122,-0.459 0.077,-0.151 0.205,-0.29 0.379,-0.418 0.171,-0.125 0.34,-0.203 0.51,-0.232 0.167,-0.03 0.327,-0.023 0.477,0.019 0.15,0.044 0.29,0.116 0.419,0.217 0.13,0.101 0.242,0.215 0.337,0.345 0.146,0.198 0.261,0.389 0.344,0.573 0.082,0.183 0.146,0.345 0.19,0.486 L 0.791,-0.812 0.299,-1.484 C 0.263,-1.532 0.247,-1.577 0.251,-1.617 0.253,-1.656 0.287,-1.705 0.352,-1.763 l -0.07,-0.094 -0.67,0.491 0.069,0.093 c 0.066,-0.035 0.114,-0.047 0.147,-0.034 0.034,0.013 0.069,0.043 0.104,0.093 L 0.891,0.095 0.985,0.026 c -0.04,-0.078 -0.06,-0.13 -0.058,-0.158 0,-0.027 0.023,-0.057 0.069,-0.092 l 0.592,-0.433 c 0.035,-0.025 0.066,-0.032 0.092,-0.018 0.025,0.013 0.056,0.028 0.089,0.046 L 1.854,-0.69 C 1.849,-0.863 1.827,-1.034 1.786,-1.2 1.745,-1.365 1.692,-1.525 1.626,-1.677 1.559,-1.831 1.482,-1.975 1.393,-2.11 1.303,-2.246 1.214,-2.378 1.121,-2.503 0.943,-2.748 0.749,-2.949 0.54,-3.105 0.331,-3.261 0.115,-3.366 -0.11,-3.421 c -0.225,-0.054 -0.453,-0.058 -0.683,-0.01 -0.231,0.048 -0.456,0.152 -0.675,0.313 -0.221,0.161 -0.389,0.344 -0.504,0.55 -0.115,0.205 -0.181,0.424 -0.199,0.655 -0.018,0.233 0.015,0.475 0.097,0.723 0.082,0.246 0.214,0.494 0.393,0.738 0.112,0.154 0.231,0.292 0.353,0.418 0.124,0.124 0.238,0.23 0.343,0.32 0.106,0.088 0.196,0.16 0.271,0.215 0.075,0.054 0.119,0.092 0.133,0.108 0.022,0.032 0.032,0.062 0.031,0.089 -0.001,0.028 0,0.056 0.003,0.081 L -0.465,0.815 0,0"
           id="path3365"
           style="fill:#1a64b7;fill-opacity:1;fill-rule:nonzero;stroke:none" />
      </g>
      <g
         transform="matrix(1.25,0,0,-1.25,287.61755,455.25286)"
         id="g3367">
        <path
           d="m 0,0 c -0.086,-0.149 -0.145,-0.304 -0.178,-0.465 -0.031,-0.161 -0.03,-0.322 0.006,-0.483 0.035,-0.161 0.114,-0.308 0.237,-0.443 0.122,-0.134 0.261,-0.227 0.419,-0.277 0.158,-0.05 0.316,-0.067 0.481,-0.049 0.162,0.016 0.322,0.062 0.479,0.134 0.156,0.071 0.296,0.163 0.417,0.275 0.122,0.11 0.226,0.241 0.313,0.39 0.085,0.148 0.144,0.304 0.176,0.465 0.032,0.161 0.03,0.322 -0.005,0.482 C 2.311,0.19 2.231,0.339 2.108,0.472 1.986,0.605 1.846,0.7 1.689,0.75 1.532,0.8 1.372,0.815 1.209,0.799 1.046,0.783 0.886,0.738 0.729,0.665 0.571,0.592 0.434,0.501 0.312,0.39 0.192,0.279 0.087,0.149 0,0 M 0.52,1.242 C 0.75,1.355 0.989,1.428 1.236,1.459 1.481,1.491 1.726,1.47 1.97,1.395 2.213,1.322 2.435,1.174 2.636,0.954 2.837,0.733 2.964,0.498 3.015,0.25 3.067,0 3.065,-0.245 3.011,-0.488 2.957,-0.73 2.861,-0.96 2.721,-1.173 2.583,-1.388 2.426,-1.576 2.251,-1.736 2.074,-1.896 1.872,-2.034 1.647,-2.154 1.421,-2.272 1.185,-2.346 0.939,-2.378 0.691,-2.409 0.446,-2.388 0.203,-2.314 c -0.243,0.073 -0.465,0.221 -0.666,0.442 -0.202,0.221 -0.327,0.455 -0.379,0.704 -0.052,0.249 -0.049,0.495 0.005,0.737 0.054,0.244 0.147,0.473 0.282,0.693 0.134,0.22 0.289,0.409 0.465,0.57 0.176,0.159 0.379,0.297 0.61,0.41"
           id="path3369"
           style="fill:#1a64b7;fill-opacity:1;fill-rule:nonzero;stroke:none" />
      </g>
      <g
         transform="matrix(1.25,0,0,-1.25,296.70943,452.90824)"
         id="g3371">
        <path
           d="m 0,0 c -0.04,-0.015 -0.087,-0.039 -0.142,-0.073 l -2.626,-1.629 -0.062,0.1 c 0.109,0.069 0.145,0.135 0.104,0.202 L -4.28,1.104 C -4.32,1.171 -4.397,1.169 -4.507,1.101 l -0.061,0.1 0.948,0.587 0.063,-0.099 C -3.661,1.625 -3.692,1.56 -3.65,1.494 l 1.362,-2.196 1.832,1.136 c 0.054,0.035 0.091,0.076 0.11,0.123 0.019,0.048 0.014,0.093 -0.013,0.138 l 0.1,0.061 L 0.21,0 0.11,-0.061 C 0.076,-0.007 0.038,0.015 0,0"
           id="path3373"
           style="fill:#1a64b7;fill-opacity:1;fill-rule:nonzero;stroke:none" />
      </g>
      <g
         transform="matrix(1.25,0,0,-1.25,299.51643,450.90862)"
         id="g3375">
        <path
           d="M 0,0 C 0.188,0.075 0.347,0.156 0.476,0.245 0.604,0.333 0.698,0.437 0.758,0.556 0.817,0.675 0.843,0.813 0.835,0.967 0.828,1.122 0.781,1.304 0.698,1.514 0.615,1.723 0.523,1.886 0.423,2.005 0.322,2.123 0.209,2.206 0.084,2.252 -0.042,2.297 -0.181,2.307 -0.335,2.283 -0.488,2.26 -0.659,2.21 -0.849,2.135 L -1.784,1.764 -0.934,-0.372 0,0 z m -0.813,2.75 c 0.221,0.088 0.44,0.138 0.657,0.15 C 0.059,2.911 0.264,2.879 0.458,2.805 0.65,2.73 0.827,2.609 0.986,2.443 1.145,2.275 1.279,2.057 1.386,1.788 1.492,1.517 1.546,1.267 1.543,1.036 1.542,0.805 1.498,0.596 1.409,0.409 1.321,0.223 1.193,0.06 1.029,-0.081 0.862,-0.221 0.669,-0.335 0.448,-0.423 l -2.003,-0.796 -0.043,0.108 c 0.092,0.037 0.124,0.091 0.096,0.163 L -2.59,1.793 c -0.03,0.07 -0.092,0.089 -0.183,0.052 l -0.044,0.11 2.004,0.795"
           id="path3377"
           style="fill:#1a64b7;fill-opacity:1;fill-rule:nonzero;stroke:none" />
      </g>
      <g
         transform="matrix(1.25,0,0,-1.25,306.45468,446.27311)"
         id="g3379">
        <path
           d="M 0,0 C -0.01,0.046 -0.035,0.079 -0.075,0.094 -0.115,0.111 -0.18,0.111 -0.27,0.092 l -2.063,-0.402 0.154,-0.791 1.248,0.245 c 0.085,0.016 0.149,0.041 0.192,0.073 0.041,0.034 0.052,0.098 0.034,0.197 l 0.115,0.021 0.192,-0.994 -0.114,-0.023 c -0.018,0.098 -0.053,0.156 -0.107,0.175 -0.052,0.019 -0.12,0.019 -0.205,0.003 l -1.248,-0.244 0.17,-0.879 2.129,0.415 c 0.064,0.012 0.112,0.037 0.147,0.075 0.036,0.038 0.047,0.082 0.038,0.134 l 0.113,0.02 0.171,-0.872 -0.115,-0.022 C 0.569,-2.714 0.542,-2.682 0.5,-2.681 0.458,-2.679 0.404,-2.686 0.341,-2.698 l -2.968,-0.58 -0.023,0.115 c 0.029,0.006 0.054,0.02 0.075,0.044 0.018,0.025 0.024,0.055 0.016,0.093 l -0.564,2.892 c -0.007,0.039 -0.025,0.066 -0.051,0.08 -0.027,0.014 -0.056,0.019 -0.085,0.013 l -0.023,0.115 2.906,0.567 c 0.089,0.017 0.149,0.043 0.18,0.078 0.031,0.035 0.041,0.075 0.033,0.122 L -0.049,0.864 0.115,0.022 0,0"
           id="path3381"
           style="fill:#1a64b7;fill-opacity:1;fill-rule:nonzero;stroke:none" />
      </g>
      <g
         transform="matrix(1.25,0,0,-1.25,308.52556,449.27949)"
         id="g3383">
        <path
           d="m 0,0 c 0.082,0 0.123,0.039 0.124,0.116 l 0,2.948 c 0,0.078 -0.042,0.117 -0.123,0.116 L 0,3.298 l 1.11,0 0,-0.117 C 1.075,3.18 1.059,3.16 1.059,3.116 1.059,3.08 1.102,3.02 1.19,2.934 l 1.862,-1.935 0,2.064 c 0,0.078 -0.056,0.117 -0.17,0.117 l 0,0.117 0.981,0 0,-0.117 C 3.781,3.18 3.74,3.141 3.74,3.064 L 3.739,0.116 c 0,-0.079 0.042,-0.117 0.123,-0.117 l 0,-0.116 -1.051,0 0,0.116 C 2.867,0 2.896,0.019 2.896,0.058 2.895,0.089 2.861,0.139 2.793,0.207 L 0.812,2.273 0.813,0.117 C 0.812,0.038 0.861,0 0.961,-0.001 l 0,-0.116 -0.962,0 L 0,0"
           id="path3385"
           style="fill:#1a64b7;fill-opacity:1;fill-rule:nonzero;stroke:none" />
      </g>
      <g
         transform="matrix(1.25,0,0,-1.25,317.92755,448.81424)"
         id="g3387">
        <path
           d="M 0,0 0.053,-0.048 C 0.043,-0.086 0.041,-0.122 0.05,-0.156 0.065,-0.214 0.109,-0.279 0.182,-0.351 0.254,-0.422 0.339,-0.493 0.439,-0.56 0.54,-0.629 0.646,-0.691 0.761,-0.748 c 0.115,-0.057 0.22,-0.098 0.316,-0.125 0.071,-0.021 0.165,-0.04 0.28,-0.06 0.114,-0.023 0.232,-0.031 0.348,-0.028 0.12,0.003 0.225,0.023 0.32,0.06 0.097,0.035 0.157,0.101 0.184,0.199 0.027,0.094 0.01,0.176 -0.05,0.242 -0.06,0.066 -0.148,0.126 -0.26,0.179 C 1.786,-0.226 1.654,-0.174 1.504,-0.126 1.354,-0.077 1.201,-0.025 1.046,0.032 0.891,0.089 0.741,0.153 0.598,0.225 0.454,0.295 0.331,0.382 0.231,0.484 0.133,0.587 0.063,0.707 0.023,0.846 -0.017,0.985 -0.01,1.151 0.044,1.343 0.08,1.473 0.145,1.59 0.24,1.699 0.336,1.807 0.459,1.891 0.611,1.953 0.762,2.013 0.942,2.048 1.152,2.055 1.361,2.062 1.594,2.029 1.852,1.957 2.073,1.895 2.261,1.825 2.414,1.747 2.567,1.669 2.698,1.594 2.807,1.522 2.914,1.452 3.004,1.389 3.076,1.333 3.149,1.277 3.211,1.242 3.266,1.226 3.324,1.209 3.369,1.211 3.401,1.228 L 3.462,1.159 2.813,0.497 2.757,0.54 C 2.765,0.599 2.763,0.653 2.748,0.697 2.728,0.755 2.687,0.82 2.623,0.89 2.56,0.96 2.481,1.028 2.387,1.094 2.294,1.161 2.189,1.222 2.075,1.279 1.96,1.335 1.843,1.38 1.721,1.415 1.629,1.439 1.532,1.459 1.431,1.471 1.329,1.484 1.232,1.487 1.146,1.48 1.059,1.473 0.982,1.452 0.918,1.419 0.851,1.386 0.809,1.334 0.789,1.262 0.761,1.163 0.777,1.078 0.835,1.007 0.894,0.936 0.981,0.873 1.092,0.814 1.205,0.756 1.335,0.701 1.484,0.651 1.634,0.6 1.786,0.547 1.943,0.49 2.096,0.433 2.247,0.368 2.39,0.294 2.533,0.22 2.655,0.133 2.754,0.031 2.854,-0.071 2.924,-0.19 2.965,-0.328 3.004,-0.465 2.998,-0.627 2.946,-0.814 2.887,-1.032 2.78,-1.193 2.625,-1.297 2.473,-1.403 2.301,-1.473 2.108,-1.504 1.915,-1.536 1.715,-1.538 1.509,-1.509 c -0.204,0.028 -0.393,0.066 -0.564,0.113 -0.239,0.067 -0.434,0.135 -0.587,0.208 -0.153,0.071 -0.275,0.141 -0.371,0.211 -0.096,0.069 -0.17,0.129 -0.224,0.178 -0.055,0.048 -0.104,0.079 -0.149,0.09 -0.03,0.009 -0.062,-0.001 -0.096,-0.026 L -0.556,-0.661 0,0"
           id="path3389"
           style="fill:#1a64b7;fill-opacity:1;fill-rule:nonzero;stroke:none" />
      </g>
      <g
         transform="matrix(1.25,0,0,-1.25,324.69318,452.51211)"
         id="g3391">
        <path
           d="m 0,0 -0.051,-0.106 -0.902,0.43 0.049,0.105 c 0.027,-0.014 0.056,-0.016 0.087,-0.008 0.03,0.006 0.052,0.028 0.071,0.062 L 0.359,2.819 -0.608,3.278 C -0.645,3.294 -0.683,3.301 -0.726,3.298 -0.768,3.293 -0.802,3.264 -0.829,3.21 l -0.105,0.05 0.39,0.821 0.105,-0.051 C -0.464,3.976 -0.465,3.93 -0.442,3.895 -0.418,3.859 -0.388,3.833 -0.354,3.818 L 2.252,2.583 C 2.287,2.565 2.325,2.56 2.368,2.563 2.409,2.567 2.445,2.597 2.471,2.651 L 2.577,2.601 2.188,1.78 2.082,1.831 C 2.107,1.885 2.107,1.93 2.084,1.965 2.06,2 2.031,2.026 1.996,2.044 L 1.027,2.501 -0.079,0.167 C -0.112,0.098 -0.086,0.041 0,0"
           id="path3393"
           style="fill:#1a64b7;fill-opacity:1;fill-rule:nonzero;stroke:none" />
      </g>
      <g
         transform="matrix(1.25,0,0,-1.25,329.38343,453.55424)"
         id="g3395">
        <path
           d="M 0,0 0.224,1.305 -0.958,0.647 0,0 z m -2.704,0.368 c 0.051,-0.024 0.103,-0.026 0.157,-0.005 0.053,0.022 0.11,0.05 0.169,0.083 L 0.031,1.867 C 0.087,1.896 0.138,1.924 0.185,1.951 0.231,1.977 0.265,2.005 0.284,2.032 0.308,2.069 0.312,2.103 0.298,2.133 0.282,2.166 0.261,2.194 0.237,2.22 L 0.304,2.317 1.213,1.704 1.148,1.607 C 1.116,1.617 1.085,1.624 1.052,1.628 1.019,1.632 0.988,1.614 0.962,1.576 0.943,1.546 0.929,1.513 0.922,1.477 0.916,1.439 0.909,1.389 0.903,1.325 L 0.543,-1.621 C 0.535,-1.672 0.54,-1.717 0.558,-1.756 0.577,-1.794 0.599,-1.836 0.627,-1.88 l -0.067,-0.097 -0.946,0.639 0.066,0.097 c 0.014,-0.01 0.035,-0.017 0.064,-0.02 0.029,-0.004 0.05,0.006 0.064,0.026 0.024,0.036 0.043,0.092 0.053,0.17 L -0.075,-0.53 -1.388,0.356 -1.84,0.105 c -0.087,-0.05 -0.14,-0.092 -0.162,-0.124 -0.026,-0.04 -0.006,-0.083 0.062,-0.129 l -0.065,-0.097 -0.764,0.516 0.065,0.097"
           id="path3397"
           style="fill:#1a64b7;fill-opacity:1;fill-rule:nonzero;stroke:none" />
      </g>
      <g
         transform="matrix(1.25,0,0,-1.25,332.18493,457.80087)"
         id="g3399">
        <path
           d="m 0,0 -0.079,-0.087 -0.736,0.678 0.08,0.086 c 0.022,-0.019 0.049,-0.031 0.079,-0.033 0.031,-0.002 0.059,0.012 0.086,0.04 L 1.181,2.584 0.394,3.31 C 0.364,3.337 0.33,3.355 0.288,3.363 0.245,3.372 0.205,3.354 0.164,3.31 L 0.077,3.389 0.693,4.057 0.779,3.979 C 0.738,3.934 0.724,3.892 0.737,3.85 0.748,3.81 0.769,3.776 0.798,3.75 L 2.917,1.796 C 2.946,1.769 2.981,1.751 3.023,1.742 3.065,1.733 3.106,1.751 3.148,1.796 L 3.233,1.717 2.618,1.048 2.531,1.127 C 2.573,1.172 2.587,1.214 2.574,1.255 2.563,1.297 2.541,1.33 2.513,1.357 L 1.725,2.083 -0.026,0.182 C -0.078,0.125 -0.07,0.064 0,0"
           id="path3401"
           style="fill:#1a64b7;fill-opacity:1;fill-rule:nonzero;stroke:none" />
      </g>
      <g
         transform="matrix(1.25,0,0,-1.25,339.03243,460.82212)"
         id="g3403">
        <path
           d="M 0,0 C 0.037,0.029 0.054,0.066 0.051,0.109 0.048,0.154 0.017,0.21 -0.038,0.283 l -1.283,1.665 -0.637,-0.49 0.775,-1.009 c 0.053,-0.068 0.104,-0.114 0.152,-0.137 0.048,-0.024 0.112,-0.005 0.189,0.056 l 0.073,-0.092 -0.804,-0.619 -0.071,0.093 c 0.079,0.06 0.116,0.118 0.11,0.174 -0.008,0.054 -0.038,0.117 -0.091,0.186 l -0.777,1.007 -0.709,-0.546 1.323,-1.718 c 0.04,-0.052 0.083,-0.085 0.133,-0.099 0.049,-0.015 0.094,-0.005 0.136,0.026 l 0.071,-0.093 -0.704,-0.542 -0.073,0.092 c 0.052,0.04 0.069,0.079 0.051,0.116 -0.018,0.039 -0.046,0.083 -0.087,0.135 l -1.846,2.396 0.093,0.072 c 0.018,-0.023 0.042,-0.04 0.072,-0.046 0.029,-0.008 0.062,0.001 0.092,0.024 l 2.333,1.798 c 0.033,0.024 0.049,0.052 0.049,0.082 0,0.032 -0.008,0.059 -0.026,0.084 l 0.092,0.07 1.806,-2.345 C 0.46,0.55 0.51,0.509 0.555,0.496 0.6,0.485 0.641,0.494 0.678,0.523 L 0.75,0.43 0.07,-0.094 0,0"
           id="path3405"
           style="fill:#1a64b7;fill-opacity:1;fill-rule:nonzero;stroke:none" />
      </g>
    </g>
  </g>
</svg>
