<?xml version="1.0" encoding="UTF-8" standalone="no"?>
<svg width="512px" height="512px" viewBox="0 0 512 512" version="1.1" xmlns="http://www.w3.org/2000/svg" xmlns:xlink="http://www.w3.org/1999/xlink" xmlns:sketch="http://www.bohemiancoding.com/sketch/ns">
    <!-- Generator: Sketch 3.2.2 (9983) - http://www.bohemiancoding.com/sketch -->
    <title>golden-state-warriors</title>
    <desc>Created with Sketch.</desc>
    <defs></defs>
    <g id="NBA" stroke="none" stroke-width="1" fill="none" fill-rule="evenodd" sketch:type="MSPage">
        <g id="golden-state-warriors" sketch:type="MSArtboardGroup">
            <g id="svg" sketch:type="MSLayerGroup" transform="translate(117.000000, 86.000000)">
                <g id="layer1" transform="translate(-0.286636, 0.225005)" sketch:type="MSShapeGroup">
                    <g id="g5225" transform="translate(-0.354216, 0.224207)">
                        <g id="g3199" transform="translate(34.563209, 276.835340) scale(1, -1) translate(-34.563209, -276.835340) translate(5.037348, 247.248476)" fill="#1A64B7">
                            <path d="M29.5258612,29.586864 L10.9245686,20.2137455 C9.92659453,19.7876947 9.32426696,19.4740739 9.18254283,19.2788006 C8.68060319,18.6988981 8.79870663,17.9118875 9.48370661,16.888182 L8.95224111,16.2786926 L0.89758618,23.4860527 L1.42905168,24.0896247 C2.37978441,23.4978874 3.15926715,23.539309 3.74978437,24.2198069 C3.93284471,24.4091628 4.22219815,25.1133302 4.70642227,26.3145569 L14.0070685,51.2266964 C14.4912927,52.4634273 14.6920685,53.3510332 14.6920685,53.9546052 C14.6920685,54.5167557 14.4912927,55.1084929 14.0188789,55.712065 L14.5621547,56.2919675 L23.2486631,48.5106223 L22.7290079,47.9425545 C21.8018959,48.4396138 21.1109907,48.4396138 20.5972408,47.8774634 C20.3610339,47.6052642 20.1071115,47.1082049 19.8236632,46.4158723 L12.9618531,28.728845 L30.1931456,37.2676139 C30.925387,37.634491 31.3918956,37.9066902 31.5395249,38.0842114 C32.0591801,38.6581965 31.9706025,39.3860334 31.2619818,40.2795567 L31.817068,40.8653766 L40.8815074,32.7230716 L40.3736626,32.1313343 C39.3343523,32.6698153 38.5607747,32.6224763 38.0824558,32.0721606 C37.8816799,31.8591352 37.6749989,31.4034975 37.3856454,30.681578 L30.6596543,12.8643685 L47.2236624,21.4682285 C48.0562917,21.8942794 48.6290934,22.284826 48.8948261,22.5925294 C49.3790502,23.1369277 49.2491365,23.8825166 48.546421,24.8233789 L49.0483606,25.4269509 L57.6462914,17.7166142 L57.1325414,17.142629 C56.3530587,17.491754 55.7566363,17.6633578 55.2783173,17.586432 C54.7999984,17.5627625 53.9496536,17.2136375 52.7095674,16.5745612 L29.0475422,4.50903808 C27.9137492,3.93505292 27.2405595,3.51491945 26.9807319,3.20129869 C26.4315509,2.61547878 26.5319389,1.84622032 27.2700854,0.92902753 L26.7681457,0.343207623 L18.6012925,7.63932829 L19.1268529,8.23106557 C20.1071115,7.58607194 20.8924994,7.59790668 21.530258,8.30799142 C21.701508,8.53876896 22.0144821,9.25477107 22.4101286,10.4559977 L29.5258612,29.586864" id="path3201"></path>
                        </g>
                        <g id="g3203" transform="translate(35.818649, 278.048401) scale(1, -1) translate(-35.818649, -278.048401) translate(6.292788, 251.420223)" fill="#1A64B7">
                            <path d="M17.7155167,5.9173728 L25.474913,-1.0237055 L25.6874992,-0.798845329 C25.3213786,-0.307703386 25.1383182,0.171603811 25.1383182,0.627241517 C25.1383182,1.000036 25.268232,1.36099575 25.5280596,1.65094701 C25.8528441,1.99415464 26.537844,2.42612285 27.6775423,3.00602538 L51.3336623,15.047879 C52.5914639,15.6928727 53.4299984,16.0538324 53.9496536,16.1189235 C54.0618518,16.1307583 54.1445242,16.1307583 54.2331018,16.1307583 C54.6759897,16.1307583 55.2015501,15.9946587 55.8097828,15.6928727 L56.022369,15.9532371 L47.8318951,23.3085315 L47.6074986,23.0777539 C47.9854296,22.539273 48.1980158,22.0599658 48.1980158,21.6102455 C48.1980158,21.2611205 48.0621968,20.935665 47.8555158,20.6753006 C47.5248262,20.284754 46.9343089,19.9297116 46.0957745,19.5095781 L28.9235336,10.5684278 L35.8739213,29.0365484 C36.1573696,29.7525505 36.3935765,30.2141055 36.6002575,30.4863047 C36.9014213,30.8590992 37.3384041,31.0425377 37.8108178,31.0366204 C38.194654,31.0366204 38.6139213,30.9241903 39.0390937,30.728917 L39.2457747,30.9596945 L30.582887,38.7351224 L30.3584905,38.5102622 C30.6832749,38.0487071 30.8604301,37.6049042 30.8604301,37.172936 C30.889956,36.7883067 30.7305163,36.4628512 30.4824991,36.1847347 C30.2521974,35.9302877 29.8034043,35.6699233 29.0475422,35.285294 L11.2021117,26.4565738 L18.3237495,44.7530905 C18.6012925,45.47501 18.8670253,45.9898214 19.1799994,46.2916075 C19.4457322,46.6644019 19.8531891,46.8360058 20.2842666,46.8360058 C20.6267666,46.8360058 21.016508,46.729493 21.4003442,46.522385 L21.6188356,46.7649973 L13.3161634,54.1794654 L13.1094824,53.9427705 C13.5051289,53.3687853 13.7177151,52.7948002 13.7177151,52.2030629 C13.6999996,51.5343998 13.4696979,50.617207 13.0209048,49.3804761 L3.69073265,24.492006 C3.2124137,23.2552751 2.92896543,22.5688599 2.69275854,22.2907434 C2.34435338,21.9061141 1.89556029,21.6635018 1.3818103,21.6635018 C0.986163764,21.6635018 0.643663774,21.7877667 0.218491373,22.0007921 L0.00590517224,21.7640972 L7.68262908,14.9117795 L7.85978425,15.1484744 C7.54090495,15.7106248 7.33422392,16.2195189 7.33422392,16.7106608 C7.33422392,17.0775379 7.49956874,17.4384977 7.72396529,17.7166142 C7.99560321,17.9947307 8.55659457,18.2669298 9.54866351,18.7284849 L28.1558612,28.0660992 L28.764094,28.37972 L21.4003442,8.63344692 C20.9869821,7.4203855 20.7035339,6.71030076 20.4496115,6.39076263 C20.0834908,6.01796814 19.6346977,5.76352111 19.1799994,5.76352111 C18.754827,5.76352111 18.3532753,5.89370331 17.9340081,6.14223297 L17.7155167,5.9173728 L17.7155167,5.9173728 Z M16.9891805,5.86411645 L17.1545253,6.0712245 L17.8099995,6.84048296 L18.0107753,6.71030076 C18.4477581,6.41443212 18.8493098,6.29608466 19.1799994,6.29608466 C19.4988787,6.29608466 19.7705166,6.42626687 20.0421546,6.73397025 C20.2134046,6.87006983 20.5204735,7.62157617 20.9043097,8.80505073 L27.7956457,27.2909234 L9.7848704,18.2314256 C8.79280146,17.8172095 8.20818941,17.4680845 8.10780148,17.3497371 C7.93655149,17.1662985 7.85978425,16.9532731 7.85978425,16.7106608 C7.85978425,16.3260316 8.02512907,15.8822286 8.43849113,15.2668218 L8.55659457,15.1070528 L8.42077561,14.9591185 L7.7003446,14.18986 L-0.702715496,21.7345103 L-0.537370674,21.9179489 L0.112198272,22.6635378 L0.307068956,22.5688599 C0.708620668,22.3203302 1.07474135,22.2019828 1.3818103,22.2019828 C1.71840512,22.2019828 1.99594822,22.3439997 2.30301717,22.6517031 C2.37978441,22.7463811 2.75771543,23.4742179 3.19469818,24.6695272 L12.5248703,49.5579972 C12.9618531,50.7828934 13.1803444,51.6941688 13.1803444,52.2030629 C13.1803444,52.7119569 12.9972841,53.2445205 12.5603013,53.8066709 L12.4362927,53.9901095 L12.5662065,54.1321264 L13.2630168,54.9368891 L22.3569821,46.7945841 L22.1916373,46.6052282 L21.5479735,45.8596392 L21.3412925,45.9602346 C20.9456459,46.1969295 20.5677149,46.2916075 20.2842666,46.2916075 C19.9712925,46.2916075 19.7587063,46.2087642 19.5579304,45.9602346 C19.3453442,45.729457 19.0796115,45.2619846 18.8079736,44.5814867 L12.17056,27.5217009 L28.8172405,35.7586839 C29.5435767,36.1018915 30.0041801,36.3977601 30.0809474,36.5279423 C30.2876284,36.7172983 30.340775,36.9303237 30.340775,37.172936 C30.340775,37.474722 30.1813353,37.8771033 29.8034043,38.3859974 L29.6853008,38.5339317 L29.8329301,38.7232876 L30.5120249,39.4925461 L40.0193522,31.0070335 L39.8126712,30.8235949 L39.1571971,30.0602538 L39.0036626,30.1726839 C38.537154,30.4093788 38.1415075,30.5218089 37.8108178,30.5218089 C37.4624127,30.5158916 37.2262058,30.3975441 37.0195248,30.1549318 C36.8837058,30.0010801 36.6534041,29.5631945 36.3935765,28.8412751 L29.9037922,11.6690592 L45.8595676,19.9770506 C46.6803865,20.3912667 47.211852,20.7640612 47.4598693,21.0185082 C47.6074986,21.190112 47.6429296,21.3676332 47.6665503,21.6102455 C47.6665503,21.9179489 47.48349,22.3795039 47.0760331,22.9002328 L46.9343089,23.0955061 L47.0760331,23.2730272 L47.7728434,24.0363683 L56.7605155,16.0064934 L56.5892655,15.793468 L55.9337914,15.0774659 L55.7684466,15.1484744 C55.1247828,15.4798473 54.5992225,15.6159468 54.2331018,15.6159468 C54.1799553,15.6159468 54.103188,15.6159468 54.0382311,15.5981947 C53.6425846,15.5567731 52.7922398,15.2254002 51.5462485,14.6099935 L27.9255595,2.53263556 C26.8035768,1.97640252 26.1126716,1.52076481 25.9178009,1.30773939 C25.7229303,1.08287922 25.646163,0.899440666 25.6402579,0.627241517 C25.6402579,0.301786013 25.8115078,-0.130182202 26.2366802,-0.656828381 L26.3784044,-0.816597447 L26.2130596,-0.994118631 L25.5280596,-1.78704659 L16.9891805,5.86411645 L16.9891805,5.86411645 Z" id="path3205"></path>
                        </g>
                        <g id="g3207" transform="translate(59.832670, 308.586211) scale(1, -1) translate(-59.832670, -308.586211) translate(39.164567, 287.875406)" fill="#1A64B7">
                            <path d="M29.5258612,17.7521184 L29.8801715,30.8946034 L19.6819391,22.5688599 L29.5258612,17.7521184 L29.5258612,17.7521184 Z M29.3900422,12.6927647 L15.7136633,19.3971481 L11.5859479,16.1544278 C11.0308617,15.7224595 10.6647411,15.3141608 10.4875859,14.9709532 C10.1982325,14.3259596 10.4521549,13.6336269 11.3261203,12.8998727 L10.9540945,12.1838706 L1.0215948,17.0834553 L1.35228444,17.7698705 C2.00185339,17.6041841 2.5746551,17.5805146 3.01163784,17.7521184 C3.45452576,17.8645485 4.07456884,18.2787646 4.89538778,18.9415103 L27.3173268,36.6936288 C28.0259474,37.2616966 28.4806457,37.776508 28.6932319,38.1966415 C29.0180164,38.8889741 28.8467664,39.5813067 28.1440509,40.2913914 L28.4806457,40.9955588 L39.1631023,35.7646012 L38.7910764,35.0485991 C37.8344385,35.2320377 37.1848696,34.9953428 36.889611,34.3858534 C36.6652144,33.9538852 36.5766368,33.4094869 36.5766368,32.728989 L36.6652144,3.84037495 C36.6652144,2.60956141 36.789223,1.73379023 36.9722834,1.20122668 C37.1435334,0.662745754 37.5509903,0.153851693 38.1178868,-0.248529658 L37.7576713,-0.952697022 L26.6795682,4.47945121 L27.016163,5.19545332 C28.0731888,4.87591519 28.7759043,5.10077536 29.1479302,5.8522817 C29.313275,6.14223297 29.3723267,6.67479652 29.3723267,7.44405499 L29.3900422,12.6927647 L29.3900422,12.6927647 Z" id="path3209"></path>
                        </g>
                        <g id="g3211" transform="translate(59.313014, 309.607549) scale(1, -1) translate(-59.313014, -309.607549) translate(41.597498, 288.896744)" fill="#1A64B7">
                            <path d="M17.7155167,23.6694912 L26.8212923,19.1782053 L27.1756026,31.3739106 L17.7155167,23.6694912 L17.7155167,23.6694912 Z M27.0929302,18.7758239 L27.1933181,19.0125188 L27.0929302,18.7758239 L27.0929302,18.7758239 Z M16.7706892,23.5452264 L27.7070681,32.4804593 L27.358663,18.7699065 L27.3350423,18.3616078 L16.7706892,23.5452264 L16.7706892,23.5452264 Z M24.6009475,5.63925628 L35.1948265,0.426050842 L35.3247403,0.692332618 C34.834611,1.10063134 34.4862059,1.59769066 34.2913352,2.12433684 C34.0728438,2.72199149 33.9960766,3.62143216 33.9960766,4.86408045 L33.8838783,33.6698513 C33.8484473,33.7231076 33.8838783,33.7526945 33.8838783,33.7526945 C33.8838783,34.4805313 33.9547404,35.0604339 34.2145679,35.5338237 C34.4684903,36.1137262 35.0649127,36.3977601 35.7912489,36.3977601 C35.9802144,36.3977601 36.1868955,36.380008 36.1219386,36.1906521 L36.3581455,36.6699593 L26.1776285,41.681974 L26.0181889,41.3506012 C26.4492664,40.9008808 26.6618526,40.380152 26.6618526,39.8771753 C26.6618526,39.6108936 26.6087061,39.3564465 26.5083182,39.1197516 C26.2484906,38.5990228 25.7878872,38.0842114 25.0438355,37.5161436 L2.62189647,19.7758599 C1.79517236,19.0894447 1.17512928,18.6988981 0.655474118,18.5154595 C0.413362057,18.4385337 0.147629306,18.4089468 -0.112198272,18.4089468 C-0.354310334,18.4089468 -0.661379291,18.4385337 -0.927112041,18.5154595 L-1.08655169,18.2255082 L8.41487044,13.5626185 L8.53887905,13.8703219 C7.99560321,14.3792159 7.68853425,14.8999447 7.66491356,15.4502604 C7.66491356,15.7047074 7.72396529,15.8940634 7.81844804,16.1189235 C8.0192239,16.5035528 8.41487044,16.9236862 9.00538766,17.397076 L13.3811203,20.6634658 L27.0634044,13.9531651 L26.9571113,13.7105528 L27.2110337,13.7105528 L27.1933181,8.46776048 C27.1933181,7.67483253 27.1342664,7.12451686 26.9393957,6.75172237 C26.6500423,6.14815034 26.0890509,5.80494272 25.4158613,5.82269484 C25.2032751,5.82269484 24.9729734,5.84636433 24.7131458,5.91145543 L24.6009475,5.63925628 L24.6009475,5.63925628 Z M23.9041372,5.396644 L23.99862,5.61558679 L24.4592234,6.52094483 L24.6245682,6.45585373 C24.961163,6.37301051 25.2032751,6.3315889 25.4158613,6.3315889 C25.9473268,6.36117577 26.2484906,6.54461432 26.4906027,6.97658254 C26.5850854,7.21327745 26.6618526,7.72217151 26.6618526,8.46776048 L26.6618526,13.5626185 L13.4224565,20.2196629 L9.33017213,16.9710252 C8.77508594,16.5331396 8.45030147,16.1485104 8.29676699,15.8822286 C8.21999975,15.7342943 8.19637906,15.6041121 8.19637906,15.4502604 C8.19637906,15.0893007 8.45030147,14.6218282 9.05262904,14.1306863 L9.21797386,14.0005041 L9.12939628,13.8111481 L8.65107733,12.8584511 L-1.78926719,17.9888133 L-1.66525857,18.2255082 L-1.21056031,19.1131142 L-0.986163764,19.0598578 C-0.690905152,18.982932 -0.39564654,18.9237582 -0.112198272,18.9237582 C0.1062931,18.9237582 0.336594817,18.9592625 0.50193964,19.0125188 C0.89758618,19.1308663 1.49400858,19.5214129 2.31482752,20.1841586 L24.7131458,37.9303597 C25.404051,38.4688406 25.817413,38.9718173 26.0299992,39.3386944 C26.124482,39.5339677 26.1658182,39.7055715 26.1658182,39.8771753 C26.1658182,40.2736393 25.9591372,40.681938 25.5162492,41.1198236 L25.3863354,41.2795927 L25.4690079,41.4334444 L25.9059906,42.3743067 L37.0785765,36.9066542 L36.9781885,36.6699593 L36.3227144,35.8296923 C36.1219386,35.8533618 35.9270679,35.8888661 35.7912489,35.8888661 C35.1653007,35.8533618 34.8523265,35.681758 34.6574559,35.3030462 C34.4862059,34.9480038 34.3917231,34.427275 34.3917231,33.7526945 L34.2381886,33.7526945 L34.3917231,33.7408597 L34.5039214,4.86408045 C34.5039214,3.65101902 34.6220248,2.78708259 34.7873696,2.29594065 C34.9645248,1.82255082 35.2834041,1.37283049 35.82668,0.988201258 L35.9802144,0.86393643 L35.8916369,0.650911009 L35.4369386,-0.29586864 L23.9041372,5.396644 L23.9041372,5.396644 Z" id="path3213"></path>
                        </g>
                        <g id="g3215" transform="translate(99.593375, 317.238593) scale(1, -1) translate(-99.593375, -317.238593) translate(81.877859, 296.527788)" fill="#1A64B7">
                            <path d="M11.8103445,23.6694912 L22.8707321,21.3676332 C24.5005596,21.0244256 25.646163,20.8350696 26.3606889,20.8054828 C27.0456888,20.7463091 27.7129733,20.8054828 28.3271112,21.0244256 C29.6853008,21.4149722 30.5533612,22.4800993 30.9194818,24.1843027 C31.267887,25.9240103 30.9076715,27.2139975 29.8211198,28.1252729 C29.2955595,28.5690759 28.7286629,28.9063662 28.1027147,29.1312263 C27.4708612,29.3560865 26.3488785,29.6519551 24.6659044,29.983328 L13.5996117,32.3206903 L11.8103445,23.6694912 L11.8103445,23.6694912 Z M10.6588359,18.2669298 L8.40896527,7.33754228 C8.27905148,6.8759872 8.34991354,6.47952322 8.51525837,6.17773721 C8.68060319,5.8522817 9.04672387,5.56824781 9.5722842,5.29013129 L9.4010342,4.53270757 L-0.832629285,6.69846602 L-0.667284463,7.45588973 C-0.0413362057,7.4854766 0.372025851,7.6156588 0.661379291,7.81684948 C0.938922386,8.03579227 1.14560341,8.37308252 1.25780169,8.85830709 L7.04487048,36.7172983 C7.15706875,37.172936 7.11573255,37.6108215 6.93267221,37.9126076 C6.7850429,38.2025588 6.42482739,38.4925101 5.87564638,38.7942961 L6.02918085,39.5458025 L26.5437492,35.2497898 C29.0357319,34.7349784 31.0021542,34.1728279 32.4134904,33.5751733 C33.8189214,32.9656839 34.9940507,32.2141775 35.9388782,31.2555632 C37.0254299,30.1608492 37.7399558,28.7998534 38.0588351,27.2495018 C38.3718092,25.7464891 38.3718092,24.2079721 38.0174989,22.633951 C36.925042,17.284646 33.2874559,14.7579278 27.1519819,15.0893007 L31.6281025,4.66880714 C32.4134904,2.86400844 33.0040076,1.65686439 33.4409904,1.10063134 C33.8720679,0.52664618 34.4625852,0.136099575 35.2243524,-0.0532563552 L35.0294817,-0.828432193 L23.1837062,1.63911227 L23.3372407,2.4142881 C24.1875855,2.36103175 24.6659044,2.57405717 24.7485768,3.0237775 C24.8076286,3.32556352 24.5596113,4.08890461 24.0517665,5.36705713 L19.4280167,16.4502964 L10.6588359,18.2669298 L10.6588359,18.2669298 Z" id="path3217"></path>
                        </g>
                        <g id="g3219" transform="translate(101.835546, 319.274737) scale(1, -1) translate(-101.835546, -319.274737) translate(81.167443, 298.563933)" fill="#1A64B7">
                            <path d="M23.6206889,23.6694912 C25.2387061,23.3262836 26.4020251,23.1250929 27.0752147,23.0718366 C27.2110337,23.0718366 27.3291371,23.0600018 27.4708612,23.0600018 C27.9846112,23.0600018 28.4865509,23.1605972 28.9471543,23.2966967 C30.2167663,23.6694912 30.9903439,24.634023 31.3741801,26.28497 C31.439137,26.6636819 31.474568,27.0838153 31.474568,27.4211056 C31.474568,28.5217369 31.1025422,29.3501691 30.3584905,29.9419064 C29.8388353,30.3857094 29.3073698,30.6993301 28.7345681,30.936025 C28.1322405,31.1490504 26.9866371,31.4508365 25.303663,31.7585398 L14.5149134,34.030811 L12.8142238,25.9240103 L23.6206889,23.6694912 L23.6206889,23.6694912 Z M27.0634044,22.5747773 C26.3134475,22.6221162 25.1501286,22.8114722 23.5025855,23.1605972 L12.4658186,25.4683726 L12.205991,25.5216289 L14.0956461,34.6698873 L25.4276717,32.285186 C27.0988354,31.9419784 28.2621543,31.6461098 28.8999129,31.4212496 C29.555387,31.1904721 30.1636198,30.8295123 30.6891801,30.3620399 C31.5513353,29.6401204 31.988318,28.6400844 31.988318,27.4211056 C31.988318,27.0364763 31.9765077,26.6222602 31.8761197,26.1666225 C31.4981887,24.4091628 30.5710767,23.2256883 29.1302146,22.7818853 C28.592844,22.6398684 28.0259474,22.5747773 27.4708612,22.5747773 L27.0634044,22.5747773 L27.0634044,22.5747773 Z M11.349741,20.0480591 L11.3792669,20.3025061 L11.349741,20.0480591 L11.349741,20.0480591 Z M24.2112062,3.88771393 L35.555042,1.53259956 L35.5904731,1.79296396 C34.934999,2.01190675 34.3740076,2.42020548 33.9665507,2.97052115 C33.4823266,3.58592792 32.8859042,4.79898934 32.1064215,6.6156228 L27.4708612,17.4148282 L27.8665078,17.3911587 C28.2326285,17.3793239 28.5633181,17.3674892 28.8999129,17.3674892 C34.3385766,17.3911587 37.4269816,19.7817773 38.4958178,24.7405357 C38.6552575,25.5452984 38.7261195,26.3382264 38.7261195,27.1074848 C38.7261195,27.8294043 38.672973,28.539489 38.5076282,29.2318217 C38.1828437,30.7407517 37.509654,32.0425737 36.4762489,33.1136182 C35.555042,34.030811 34.421249,34.7764 33.0335335,35.3681373 C31.645818,35.9539572 29.7207319,36.5161076 27.2287492,37.0486711 L6.84999979,41.3269317 L6.71418083,41.0665673 C7.28107737,40.7647813 7.67672391,40.4452431 7.88340494,40.0961181 C8.00150838,39.8120842 8.0605601,39.5753893 8.0605601,39.2558512 C8.0605601,39.0605779 8.04284459,38.8830567 8.03693941,38.681866 L2.20853442,10.8347096 C2.09633614,10.3198982 1.87784477,9.92343419 1.52353444,9.64531767 C1.18693962,9.37311852 0.696810324,9.25477107 0.307068956,9.43820962 L0.194870684,8.92339819 L10.0033618,6.85231771 L10.1568962,7.10676474 C9.61952557,7.39079863 9.21206869,7.6807499 8.9758618,8.08313125 C8.85185318,8.31982616 8.78689629,8.6156948 8.78689629,8.91156344 C8.78689629,9.07133251 8.82823249,9.27252319 8.85185318,9.444127 L11.1253445,20.3498451 L11.2021117,20.5924574 L20.3846546,18.5627985 L25.0024993,7.49139397 C25.4571975,6.36117577 25.7229303,5.60966942 25.7229303,5.16586646 L25.7229303,5.00609739 C25.5693958,4.41436011 25.0024993,4.1776652 24.2584475,4.19541732 L24.2112062,3.88771393 L24.2112062,3.88771393 Z M23.5734476,3.47349784 L23.6206889,3.73386224 L24.0517665,4.71614613 L24.2525424,4.71614613 C24.9316372,4.7220635 25.1501286,4.88183256 25.2032751,5.08302324 L25.2032751,5.16586646 C25.2209906,5.43806561 24.9788786,6.16590246 24.51237,7.2902033 L20.0893959,18.2136735 L11.6036634,19.9948027 L9.359698,9.30802742 C9.33017213,9.16601047 9.31245662,9.03582827 9.31245662,8.91156344 C9.31245662,8.6807859 9.359698,8.50326472 9.43646523,8.31982616 C9.58999971,8.094966 9.8911635,7.82868422 10.5348273,7.2902033 L10.3104307,6.25466305 L-0.419267229,8.53285158 L-0.372025851,8.76362912 L0.0354310334,9.75183038 C0.620043085,9.77549987 1.00387928,9.90568208 1.21646548,10.047699 C1.43495685,10.2193028 1.57668099,10.5210888 1.7006896,10.9412223 L7.49956874,38.7883787 C7.51728426,38.9599825 7.5290946,39.1375037 7.5290946,39.2558512 C7.5290946,39.4925461 7.49956874,39.6878194 7.41099116,39.8120842 C7.31060323,40.0546965 6.98581876,40.3150609 6.30672395,40.8831287 L6.56064635,41.8949995 L27.3291371,37.5516478 C29.8329301,37.0072495 31.781637,36.4569339 33.2284042,35.8770313 C34.6692662,35.2320377 35.8739213,34.4568618 36.8246541,33.4627432 C37.952542,32.332525 38.6847833,30.9419424 39.0272833,29.3501691 C39.1690074,28.6164149 39.2457747,27.8708259 39.2457747,27.1074848 C39.2457747,26.3027221 39.1512919,25.4683726 38.9859471,24.634023 C37.9407316,19.4622392 34.4625852,16.8230909 28.8999129,16.8585951 L28.2621543,16.8585951 L32.5729301,6.81681347 C33.3524128,5.02384951 33.9665507,3.81670546 34.3740076,3.29005928 C34.7578438,2.74566098 35.2834041,2.42020548 35.9624989,2.22493217 L36.2164213,2.16575845 L36.1632748,1.92314616 L35.9388782,0.911275412 L23.5734476,3.47349784 L23.5734476,3.47349784 Z" id="path3221"></path>
                        </g>
                        <g id="g3223" transform="translate(141.874975, 319.894310) scale(1, -1) translate(-141.874975, -319.894310) translate(121.206873, 302.142192)" fill="#1A64B7">
                            <path d="M11.8103445,17.7521184 L23.0951286,18.2077561 C24.7662924,18.2610125 25.9473268,18.3734426 26.6028009,18.49179 C27.3173268,18.6278896 27.9373699,18.8468324 28.4806457,19.1782053 C29.7030164,19.9119595 30.2876284,21.142773 30.2167663,22.9061501 C30.1340939,24.6458577 29.4963353,25.8530018 28.2208181,26.4802433 C27.5948699,26.7642772 26.9807319,26.9417984 26.295732,27.0068895 C25.6402579,27.077898 24.4533182,27.077898 22.7526286,27.0068895 L11.4678445,26.5749213 L11.8103445,17.7521184 L11.8103445,17.7521184 Z M12.0229307,12.2430443 L12.4835341,1.09471397 C12.4835341,0.59173728 12.6370686,0.230777539 12.8732755,-0.0414216096 C13.1153875,-0.301786013 13.5464651,-0.479307197 14.1015513,-0.609489399 L14.1310772,-1.42016947 L3.69073265,-1.81663345 L3.64939644,-1.01778812 C4.23991367,-0.82251482 4.64737055,-0.609489399 4.8717671,-0.33729025 C5.07844812,-0.0769258465 5.1906464,0.29586864 5.16112053,0.804762701 L4.03913781,29.2199869 C4.02142229,29.7347983 3.8915085,30.1016755 3.64939644,30.3679572 C3.41318955,30.6164869 2.98801715,30.8235949 2.39749993,30.9715293 L2.37387924,31.7348704 L23.3195252,32.5692199 C25.8823699,32.68165 27.907844,32.634311 29.4136629,32.3739466 C30.9076715,32.1372517 32.2245249,31.681614 33.3819387,30.9892814 C34.7046972,30.1845187 35.7321972,29.0602178 36.4231024,27.6163789 C37.0785765,26.237631 37.4328868,24.7464531 37.5214644,23.1310103 C37.7281454,17.6751926 34.8168955,14.3377943 28.7877147,13.1779892 L35.6672403,4.14807834 C36.8482748,2.5681398 37.7281454,1.56218642 38.3009471,1.11246609 C38.8265075,0.650911009 39.5056023,0.431968215 40.285085,0.402381351 L40.285085,-0.355042368 L28.2208181,-0.82251482 L28.1735767,-0.0710084737 C28.9825853,0.112430083 29.3900422,0.402381351 29.3900422,0.869853802 C29.3900422,1.16572244 28.9471543,1.85213769 28.1440509,2.9586864 L20.9692666,12.5803346 L12.0229307,12.2430443 L12.0229307,12.2430443 Z" id="path3225"></path>
                        </g>
                        <g id="g3227" transform="translate(143.976603, 322.740566) scale(1, -1) translate(-143.976603, -322.740566) translate(126.261086, 304.988448)" fill="#1A64B7">
                            <path d="M17.7155167,29.586864 L6.66693946,29.427095 L7.02124979,20.8705739 L18.034396,21.3202942 C19.7114649,21.3913027 20.8747839,21.4859807 21.530258,21.6043281 C22.1621114,21.7167582 22.7703441,21.935701 23.31362,22.2493217 C24.3588355,22.9002328 24.890301,23.9121035 24.890301,25.4742899 L24.890301,25.7346543 C24.8135337,27.427023 24.1757751,28.5099022 23.0360769,29.0720526 C22.4514648,29.3501691 21.8373269,29.539525 21.223189,29.586864 C20.9102149,29.634203 20.467327,29.6578725 19.8886201,29.6578725 C19.2626718,29.6578725 18.5658615,29.634203 17.7155167,29.586864 L17.7155167,29.586864 Z M6.75551704,20.5983747 L6.49568946,20.5983747 L6.4012067,29.6697072 L17.6741805,30.1371797 C18.5422408,30.1786013 19.2626718,30.1786013 19.8886201,30.1786013 C20.467327,30.1786013 20.9220252,30.1549318 21.2645252,30.1371797 C21.94362,30.0602538 22.6404304,29.8531458 23.2663786,29.5454424 C24.6245682,28.8945314 25.3568096,27.5749573 25.4276717,25.7346543 L25.4276717,25.4742899 C25.4276717,23.8055908 24.8017234,22.539273 23.5616372,21.8173535 C22.9888355,21.4504764 22.3215511,21.2019468 21.6188356,21.0835993 C20.9102149,20.9711692 19.7291804,20.8705739 18.0816374,20.7877307 L6.75551704,20.3616798 L6.75551704,20.5983747 L6.75551704,20.5983747 Z M24.0576717,3.72794487 L24.0576717,3.71611012 L24.0576717,3.72794487 L24.0576717,3.72794487 Z M-1.3818103,1.28998727 L8.83413767,1.43792159 L8.99948249,1.98231989 C8.38534458,2.0888326 7.954267,2.30185802 7.64719805,2.62731353 C7.3165084,2.9586864 7.1688791,3.40248936 7.14525841,3.94097029 L6.72599118,15.0715485 L6.96810324,15.0893007 L6.96810324,15.3496651 L16.1211202,15.5686078 L23.278189,5.97654653 C24.0576717,4.95284104 24.4474131,4.32559952 24.4651286,3.698358 L24.5773268,3.698358 C24.5773268,3.04744699 24.0045251,2.68056988 23.3903872,2.78116522 L23.14237,2.26043641 L34.9763352,2.48529658 L35.2302576,3.01194276 C34.3740076,3.03561225 33.6712921,3.27822453 33.0571542,3.75161436 C32.4843525,4.2427563 31.6162922,5.2664618 30.376206,6.84048296 L23.2663786,16.1840146 L23.6797407,16.2550231 C29.4254733,17.4266629 32.1713783,20.3912667 32.2009042,25.4328683 C32.2009042,25.6044721 32.2009042,25.7879107 32.1713783,25.9772666 C32.1064215,27.5512878 31.7698266,29.030631 31.1143525,30.3620399 C30.4529732,31.7585398 29.4549991,32.8177496 28.2031026,33.6047602 C27.0929302,34.2734233 25.781982,34.7349784 24.3352148,34.9657559 C23.2663786,35.1314423 21.94362,35.2202029 20.366939,35.2202029 C19.7114649,35.2202029 19.0146546,35.1787813 18.2765081,35.1610292 L-2.43883613,34.5988788 L-2.59237061,34.0544805 C-1.97232753,33.9183809 -1.54715513,33.6994381 -1.21056031,33.4154042 C-0.927112041,33.0899487 -0.767672391,32.6283936 -0.767672391,32.078078 L0.360215506,3.62143216 L0.360215506,3.54450631 C0.360215506,3.07703386 0.259827578,2.65690039 0.00590517224,2.33736226 C-0.253922406,2.0237415 -0.708620668,1.75745972 -1.15150859,1.8284682 L-1.3818103,1.28998727 L-1.3818103,1.28998727 Z M-1.48219823,2.07108048 C-0.927112041,2.25451904 -0.55508619,2.48529658 -0.413362057,2.66873514 C-0.230301717,2.85217369 -0.141724134,3.14212496 -0.141724134,3.54450631 C-0.141724134,3.55634106 -0.15943965,3.60959741 -0.141724134,3.64510165 L-1.2755172,32.0603259 C-1.28732755,32.5277983 -1.41133616,32.8532538 -1.58258616,33.0248576 C-1.77745684,33.237883 -2.16129304,33.4331563 -2.90534474,33.8000335 L-2.6809482,34.8414911 L18.2646977,35.6995101 C18.9910339,35.7231796 19.7114649,35.729097 20.366939,35.729097 C21.94362,35.729097 23.278189,35.6640059 24.376551,35.4983195 C25.9296113,35.2557072 27.2700854,34.7823173 28.4688354,34.0485631 C29.8388353,33.237883 30.8781456,32.0603259 31.6162922,30.5928174 C32.2717663,29.1667306 32.6319818,27.634131 32.6969387,25.983184 C32.7146542,25.7938281 32.7146542,25.6044721 32.7146542,25.4328683 C32.7323697,20.3025061 29.8152146,17.0301989 24.1580596,15.8467244 L30.789568,7.16002109 C32.0001284,5.58008256 32.8977145,4.58596392 33.3878438,4.18358257 C33.9015938,3.75161436 34.4803007,3.54450631 35.4782748,3.27822453 L35.2420679,2.20718006 L22.8825424,1.99415464 L23.0419821,3.03561225 C23.8450855,3.20129869 24.0576717,3.44982835 24.0576717,3.698358 C24.0812924,3.698358 24.0812924,3.71611012 24.0576717,3.72794487 C24.0576717,3.89363131 23.6620252,4.60371604 22.8825424,5.6570084 L15.9203444,15.1543918 L7.25155151,14.8111841 L7.66491356,3.94688766 C7.68853425,3.49124995 7.81844804,3.18946394 8.0192239,2.98235589 C8.20228424,2.78116522 8.53887905,2.59180929 9.31245662,2.26043641 L9.11758593,1.17163982 L-1.64163788,1.0237055 L-1.48219823,2.07108048 L-1.48219823,2.07108048 Z" id="path3229"></path>
                        </g>
                        <g id="g3231" transform="translate(171.793507, 318.278252) scale(1, -1) translate(-171.793507, -318.278252) translate(162.935749, 303.484820)" fill="#1A64B7">
                            <path d="M5.90517224,2.32258657e-13 L-0.200775856,27.7761479 C-0.312974129,28.2554551 -0.507844812,28.6045801 -0.779482735,28.7939361 C-1.04521549,29.0069615 -1.49991375,29.1371437 -2.13767235,29.1667306 L-2.27939648,29.935989 L7.93064631,32.1905081 L8.10780148,31.4330843 C7.57043081,31.1549678 7.19249978,30.8650166 7.02715496,30.5573132 C6.86771531,30.2259403 6.84999979,29.8294763 6.95038772,29.3442517 L13.0740513,1.58585591 C13.1567237,1.07104448 13.3811203,0.733754228 13.6763789,0.514811434 C13.953922,0.289951267 14.4027151,0.183438557 14.9755168,0.159769066 L15.1585771,-0.609489399 L4.93081882,-2.86400844 L4.75956882,-2.0888326 C5.30284467,-1.8284682 5.67487052,-1.50893007 5.84612051,-1.19530931 C5.99965499,-0.887605921 6.03508603,-0.497059316 5.90517224,2.32258657e-13" id="path3233"></path>
                        </g>
                        <g id="g3235" transform="translate(172.111819, 315.859845) scale(1, -1) translate(-172.111819, -315.859845) translate(163.254061, 298.107727)" fill="#1A64B7">
                            <path d="M5.90517224,-2.8688163e-13 C5.90517224,-0.289951267 5.85793086,-0.568067789 5.73982741,-0.787010583 C5.52133604,-1.16572244 5.13749985,-1.49709532 4.71232744,-1.49709532 L4.81271537,-2.00007201 L14.6153013,0.165686439 L14.6566375,0.44380296 C14.0365944,0.467472452 13.5464651,0.573985162 13.1862496,0.828432193 C12.8201289,1.09471397 12.583922,1.53851693 12.4835341,2.05924574 L6.39530153,29.8353937 C6.32443947,30.0543365 6.28900843,30.2673619 6.28900843,30.427131 C6.28900843,30.7170822 6.37168084,30.9951988 6.47206877,31.2200589 C6.69056014,31.6224403 7.09211186,31.9123915 7.53499977,31.9123915 L7.41099116,32.4094509 L-2.38568958,30.2673619 L-2.41521544,29.9714933 C-1.77155167,29.935989 -1.26961203,29.8353937 -0.944827558,29.5572772 C-0.578706879,29.285078 -0.366120679,28.8826967 -0.259827578,28.4033895 L5.85202569,0.603572026 L5.58629294,0.538480925 L5.85202569,0.603572026 C5.89336189,0.396463978 5.90517224,0.195273303 5.90517224,-2.8688163e-13 M4.35801711,-2.39061861 L4.32258608,-1.31365676 C4.84814641,-1.0651271 5.14931019,-0.763341092 5.28512915,-0.544398298 C5.35599122,-0.396463978 5.39142225,-0.207108048 5.39142225,-3.12638804e-13 C5.39142225,0.142016947 5.37370674,0.319538131 5.35599122,0.473389824 L-0.773577563,28.285042 C-0.862155147,28.7051755 -1.04521549,28.9892094 -1.24599134,29.1312263 C-1.47629306,29.285078 -1.86012925,29.4152602 -2.70456888,29.6519551 L-2.91124991,30.6874954 L7.81254287,33.0544445 L7.88340494,32.8059148 L7.88931011,31.7348704 C7.39918081,31.4863407 7.08030151,31.1963894 6.93857738,30.9656119 C6.85590497,30.8235949 6.82637911,30.634239 6.82637911,30.427131 C6.82637911,30.3028661 6.83818945,30.1371797 6.87362048,29.9714933 L12.9972841,2.18351057 C13.1035772,1.72787286 13.2748272,1.43200422 13.5110341,1.27815253 C13.7295255,1.09471397 14.1192668,0.97044914 14.9164651,0.757423719 L15.1585771,-0.260364403 L4.42887918,-2.63914827 L4.35801711,-2.39061861" id="path3237"></path>
                        </g>
                        <g id="g3239" transform="translate(198.393993, 310.615254) scale(1, -1) translate(-198.393993, -310.615254) translate(180.678476, 292.863136)" fill="#1A64B7">
                            <path d="M11.8103445,29.586864 C8.85185318,28.3382984 6.7850429,26.4151522 5.57448259,23.8233429 C4.14543091,20.7640612 4.14543091,17.5509277 5.53314639,14.2016947 C6.97400841,10.8524617 9.27702558,8.66303379 12.4835341,7.58607194 C15.1821978,6.6807139 18.0107753,6.87006983 20.981077,8.14230498 C23.9572838,9.39087064 26.0595251,11.3080994 27.2464647,13.9058261 C27.9609905,15.444343 28.3153009,17.1012074 28.2798698,18.8705019 C28.2621543,20.4267709 27.9373699,21.9297836 27.3291371,23.37954 C25.8469389,26.8589552 23.5143958,29.1134742 20.3492235,30.1490144 C17.6092236,31.0011161 14.7983616,30.8354297 11.8103445,29.586864 M9.55456868,34.8296563 C14.9105599,37.125597 19.8000425,37.4865567 24.2230165,35.9302877 C28.8231457,34.2970928 32.1713783,31.0898767 34.2263783,26.2613005 C35.4959903,23.2907794 35.8562058,20.1959934 35.3542662,16.9236862 C34.3621972,10.5861799 30.2994387,5.89370331 23.2073269,2.85809106 C17.8808615,0.579902535 12.9913789,0.254447031 8.62745664,1.79888133 C6.25948257,2.62139615 4.20448263,3.94688766 2.42112062,5.7220995 C0.820818941,7.34345965 -0.413362057,9.19559734 -1.32866375,11.3021821 C-2.64551716,14.3851333 -3.05297405,17.5509277 -2.55693958,20.8054828 C-1.61801719,26.9891374 2.42112062,31.6756966 9.55456868,34.8296563" id="path3241"></path>
                        </g>
                        <g id="g3243" transform="translate(198.284110, 310.579797) scale(1, -1) translate(-198.284110, -310.579797) translate(180.568593, 292.827679)" fill="#1A64B7">
                            <path d="M5.90517224,23.6694912 C5.18474122,22.1783133 4.86586192,20.6397963 4.86586192,19.0657752 C4.86586192,17.5213409 5.18474122,15.935485 5.89336189,14.2667858 C7.28107737,11.000396 9.55456868,8.86422446 12.6606893,7.79909736 C13.7885772,7.4203855 14.9046547,7.23694694 16.0502581,7.23694694 C17.6446546,7.23694694 19.2803874,7.62749355 21.0046976,8.33757828 C23.9277579,9.59206132 25.9591372,11.4619511 27.1165509,13.9886693 C27.8192664,15.444343 28.1381457,17.0006121 28.1381457,18.6988981 L28.1381457,18.840915 C28.114525,20.3675972 27.8192664,21.8351057 27.187413,23.237523 C25.7111199,26.6695992 23.4671545,28.8471924 20.3787494,29.8531458 C19.268577,30.2081882 18.1465943,30.3857094 17.0364219,30.3857094 C15.4006892,30.3857094 13.7177151,30.0247496 12.0052152,29.3146649 C9.12349111,28.0601818 7.09801703,26.2080442 5.90517224,23.6694912 L5.90517224,23.6694912 Z M12.5012496,7.31387279 C9.23568938,8.39675201 6.85590497,10.6749405 5.40913777,14.0655952 C4.67099124,15.7638812 4.32849125,17.4266629 4.32849125,19.0657752 C4.32849125,20.7226396 4.69461193,22.3262476 5.45637915,23.9061861 C6.68465497,26.539417 8.81642215,28.5217369 11.7867238,29.7998894 L11.9107324,29.5572772 L11.7867238,29.7998894 C13.5582755,30.5573132 15.3180168,30.9064382 17.0364219,30.9064382 C18.1997408,30.9064382 19.3807753,30.7111649 20.5086632,30.3561225 C23.7683183,29.3146649 26.1658182,26.9891374 27.6775423,23.4446311 C28.3034905,21.98304 28.6341802,20.4504404 28.6459905,18.7699065 L28.6459905,18.6988981 C28.6459905,16.9414383 28.3034905,15.2727392 27.600775,13.7697265 C26.3902147,11.1187435 24.240732,9.13642361 21.223189,7.85827108 C19.439827,7.10676474 17.7155167,6.72805288 16.0502581,6.72805288 C14.8278875,6.72805288 13.6409479,6.93516093 12.5012496,7.31387279 L12.5012496,7.31387279 Z M9.77896522,34.5574572 C2.6809482,31.4034975 -1.26961203,26.8234509 -2.17900856,20.7403917 C-2.35025855,19.88829 -2.39749993,18.9947667 -2.39749993,18.1663345 C-2.39749993,15.840807 -1.91918098,13.5922053 -0.980258591,11.3731905 C-0.100387928,9.30211005 1.12198272,7.44997236 2.70456888,5.88186857 C4.47612056,4.13624359 6.51340498,2.82258683 8.81642215,2.03557624 C10.5702583,1.40241735 12.412672,1.08287922 14.3436634,1.08287922 C17.1249995,1.08287922 20.0893959,1.7397076 23.2014217,3.06519911 C30.2817232,6.09489399 34.2204731,10.69861 35.1830162,16.9473557 C35.3365507,17.888218 35.4015076,18.7994934 35.4015076,19.6930167 C35.4015076,21.9120315 34.97043,24.0541205 34.0964645,26.1252009 C32.0650852,30.8946034 28.7759043,34.030811 24.205301,35.6403364 C22.4455597,36.28533 20.6326718,36.5930334 18.7253012,36.5930334 C15.9144392,36.5930334 12.9382324,35.8947834 9.77896522,34.5752093 L9.77896522,34.5574572 L9.77896522,34.5574572 Z M8.65107733,1.52668218 C6.26538774,2.35511438 4.15724125,3.698358 2.32663786,5.53274357 C0.732241357,7.14226898 -0.549181018,9.01215878 -1.45857754,11.1483304 C-2.42112062,13.444271 -2.92306026,15.7638812 -2.92306026,18.1663345 C-2.92306026,19.0302709 -2.84629302,19.9119595 -2.69866371,20.8114002 C-1.77155167,27.1015674 2.36206889,31.8650526 9.55456868,35.0485991 C12.7787927,36.427347 15.8376719,37.1196796 18.7253012,37.1196796 C20.6858183,37.1196796 22.5990941,36.8001415 24.376551,36.1492305 C29.0770681,34.5042008 32.4961628,31.2023068 34.5806886,26.332309 C35.4605593,24.1961374 35.9447834,21.98304 35.9447834,19.6930167 C35.9447834,18.7699065 35.8562058,17.840879 35.7203869,16.8645125 C34.7224128,10.4323283 30.5946974,5.65109103 23.4317234,2.59772666 C20.2193097,1.22489617 17.1899564,0.538480925 14.3436634,0.538480925 C12.3536203,0.538480925 10.4521549,0.875771175 8.65107733,1.52668218 L8.65107733,1.52668218 Z" id="path3245"></path>
                        </g>
                        <g id="g3247" transform="translate(232.270171, 289.505618) scale(1, -1) translate(-232.270171, -289.505618) translate(205.696896, 268.794813)" fill="#1A64B7">
                            <path d="M17.7155167,17.7521184 L26.638232,24.6576925 C27.9787061,25.6754806 28.8762922,26.4447391 29.3664215,26.9417984 C29.8329301,27.4566098 30.2285767,27.9950907 30.4765939,28.6045801 C31.0553008,29.8945674 30.7954732,31.2318937 29.7443526,32.634311 C28.663706,34.0189763 27.4354302,34.5929614 26.0359044,34.3681013 C25.3686199,34.2675059 24.7426717,34.0426457 24.1521544,33.7053555 C23.5970683,33.3562305 22.6345252,32.68165 21.2763356,31.634275 L12.34181,24.7346183 L17.7155167,17.7521184 L17.7155167,17.7521184 Z M21.0637494,13.3732625 L27.8842233,4.53270757 C28.1499561,4.16583045 28.5042664,3.92321817 28.834956,3.8522097 C29.2010767,3.78120122 29.6380595,3.86996181 30.1931456,4.10073935 L30.6714646,3.47941521 L22.3865079,-2.91726479 L21.9022838,-2.31961014 C22.2684045,-1.79296396 22.4632752,-1.38466524 22.4809907,-1.04145761 C22.5282321,-0.698249991 22.3628873,-0.325455504 22.0853442,0.0828432193 L4.72413779,22.5747773 C4.42887918,22.9889933 4.1040947,23.2197709 3.76159471,23.3026141 C3.41318955,23.332201 2.94668095,23.2730272 2.39749993,23.0540844 L1.9132758,23.6694912 L18.512715,36.5042728 C20.5559046,38.078294 22.2565942,39.2025948 23.5970683,39.8830927 C24.9729734,40.5517558 26.3075423,40.9600546 27.6480164,41.0488151 C29.2010767,41.1553279 30.6714646,40.8357897 32.0532749,40.0842834 C33.3878438,39.3446118 34.5688783,38.3149889 35.5609472,37.0545885 C38.8678437,32.7053195 38.4367661,28.2968768 34.1791369,23.8529298 L45.0092228,20.4800273 C46.9047831,19.9237942 48.1980158,19.586504 48.9007313,19.539165 C49.5975416,19.5095781 50.2825416,19.6989341 50.914395,20.1190675 L51.392714,19.5095781 L41.8204298,12.0832753 L41.348016,12.7223515 C41.9267229,13.3140888 42.068447,13.8170655 41.7849987,14.1780252 C41.6078436,14.4265549 40.8460764,14.746093 39.5587488,15.1543918 L28.1381457,18.840915 L21.0637494,13.3732625 L21.0637494,13.3732625 Z" id="path3249"></path>
                        </g>
                        <g id="g3251" transform="translate(231.759350, 290.914568) scale(1, -1) translate(-231.759350, -290.914568) translate(208.138661, 270.203764)" fill="#1A64B7">
                            <path d="M23.6206889,35.5042368 C23.006551,35.4095589 22.4101286,35.2261203 21.872758,34.9006648 C21.3058614,34.5692919 20.3137925,33.8828767 19.0028443,32.8414191 L10.2572842,26.1192836 L15.3003013,19.5450824 L24.0576717,26.2908874 C25.3686199,27.2909234 26.2603009,28.0601818 26.7149992,28.5572412 C27.1933181,29.030631 27.5358181,29.5513598 27.8015509,30.1253449 C27.9550854,30.5513958 28.0672836,30.9537771 28.0672836,31.3975801 C28.0672836,32.1727559 27.7543095,33.0071055 27.0988354,33.8769593 C26.195344,35.0130949 25.2446113,35.5574932 24.1403441,35.5574932 C23.9868096,35.5574932 23.8037493,35.5574932 23.6206889,35.5042368 L23.6206889,35.5042368 Z M15.2648702,19.1782053 L15.4597409,19.3143048 L15.2648702,19.1782053 L15.2648702,19.1782053 Z M9.52504282,26.1843747 L18.6603443,33.285222 C20.0244391,34.2970928 20.9987925,35.0130949 21.5774994,35.332633 C22.1975424,35.7113449 22.8648269,35.9243703 23.5498269,36.0131309 C23.7683183,36.078222 23.9749993,36.0900567 24.1403441,36.0900567 C25.439482,36.0900567 26.5496544,35.4509805 27.5062923,34.1964974 C28.2031026,33.2556352 28.5987491,32.332525 28.5987491,31.3975801 C28.5987491,30.8650166 28.492456,30.3620399 28.2739647,29.9064022 C27.9905164,29.2673259 27.5948699,28.6874234 27.0988354,28.1666946 C26.5968958,27.6696352 25.6934044,26.888542 24.3588355,25.8648365 L15.4243099,18.9415103 L15.1940082,18.7876587 L9.52504282,26.1843747 L9.52504282,26.1843747 Z M20.0008184,-1.13021821 L27.8783181,4.94100629 L27.6657319,5.20728807 C27.2759906,5.06527112 26.9512061,5.00018002 26.638232,5.00018002 C26.5496544,5.00018002 26.466982,5.00018002 26.3429733,5.02384951 C25.9118958,5.09485799 25.5634906,5.36113976 25.2446113,5.78127323 L18.4359477,14.6277456 L18.2528874,14.8466884 L25.7937923,20.4977794 L37.2084903,16.840843 C38.5194385,16.3852053 39.2398695,16.1070888 39.5351281,15.7579638 C39.6768523,15.5922773 39.735904,15.4088388 39.735904,15.2076481 C39.735904,14.8466884 39.5351281,14.491646 39.2339643,14.1247689 L39.4052143,13.8703219 L48.581852,20.9474997 L48.3928865,21.1841946 C47.8378003,20.8824086 47.2413779,20.7108048 46.6331452,20.7108048 C46.5859038,20.7108048 46.5209469,20.7048874 46.4382745,20.7108048 C45.6824124,20.7463091 44.40099,21.0480951 42.4699987,21.6516671 L31.2501715,25.1488344 L31.5454301,25.4328683 C33.8897835,27.9240823 35.0294817,30.3206183 35.0294817,32.68165 C35.0294817,34.5456224 34.320861,36.4036775 32.8977145,38.2676499 C31.9115508,39.5280503 30.7600422,40.5280863 29.5258612,41.2559232 C28.3153009,41.9305037 27.0988354,42.2263723 25.7937923,42.2263723 L25.2446113,42.2263723 C23.9218527,42.1021075 22.62862,41.7352304 21.2881459,41.0428978 C19.9240511,40.3860694 18.2528874,39.2913554 16.2274133,37.7232516 L-0.15943965,25.030487 L0.0354310334,24.7819573 C0.425172401,24.9298916 0.744051702,24.983148 1.062931,24.983148 C1.17512928,24.983148 1.2755172,24.9653959 1.36409479,24.9594785 C1.81288788,24.8766353 2.16129304,24.586684 2.52150855,24.1547158 L19.8531891,1.62727752 C20.1366373,1.24856566 20.3137925,0.828432193 20.3137925,0.420133469 L20.3137925,0.360959741 C20.296077,-0.0532563552 20.0893959,-0.431968215 19.7941373,-0.893523294 L20.0008184,-1.13021821 L20.0008184,-1.13021821 Z M19.746896,-1.698286 L19.1445684,-0.899440666 L19.2449563,-0.727836855 C19.611077,-0.260364403 19.7646115,0.130182202 19.7941373,0.372794487 L19.7941373,0.420133469 C19.7941373,0.6745805 19.6819391,0.988201258 19.4103011,1.31365676 L2.10814649,23.8292603 C1.81288788,24.2138895 1.51172409,24.4091628 1.25780169,24.4624192 C1.20465514,24.4624192 1.15150859,24.4801713 1.062931,24.4801713 C0.797198252,24.4801713 0.44879309,24.4091628 0.0354310334,24.2257243 L-0.147629306,24.1547158 L-0.248017234,24.2967327 L-0.885775836,25.1192476 L15.9203444,38.1197156 C17.9517236,39.6937368 19.6406029,40.8298724 21.0460339,41.522205 C22.4396545,42.2263723 23.82737,42.6405884 25.1796544,42.7234317 C25.3863354,42.7352664 25.5989216,42.7352664 25.7937923,42.7352664 C27.1696975,42.7530185 28.492456,42.4157283 29.7384474,41.7174783 C31.096637,40.9541372 32.3131025,39.9126796 33.3051714,38.6108576 C34.7873696,36.6877114 35.5491369,34.6876394 35.5491369,32.68165 C35.5491369,30.2496098 34.421249,27.7998174 32.2245249,25.4032815 L42.6471539,22.142809 C44.5249987,21.5806586 45.8182314,21.2611205 46.45599,21.2196989 L46.6331452,21.2196989 C47.2354727,21.2256163 47.7964641,21.3794679 48.3161192,21.7581798 L48.5523261,21.8824446 L48.6881451,21.7049234 L49.3436192,20.8824086 L39.3166368,13.1365676 L39.1690074,13.3377583 L38.5430592,14.1721079 L38.6906885,14.3200422 C39.0686195,14.698754 39.2339643,15.0123748 39.2339643,15.2076481 C39.2339643,15.284574 39.1690074,15.3496651 39.1453868,15.4206735 C39.0804299,15.5331036 38.3245678,15.935485 37.0549558,16.3141968 L25.8705596,20.0539764 L19.0028443,14.7283409 L25.6284475,6.11264611 C25.9118958,5.75168637 26.1717234,5.58008256 26.466982,5.50907408 C26.4787923,5.50315671 26.5496544,5.50315671 26.638232,5.50315671 C26.8921544,5.50315671 27.2464647,5.58008256 27.6539216,5.75168637 L27.8369819,5.84044696 L27.9550854,5.66884315 L28.5987491,4.82857621 L19.9063356,-1.88764192 L19.746896,-1.698286 L19.746896,-1.698286 Z" id="path3253"></path>
                        </g>
                        <g id="g3255" transform="translate(257.331108, 262.743140) scale(1, -1) translate(-257.331108, -262.743140) translate(239.615591, 242.032335)" fill="#1A64B7">
                            <path d="M17.7155167,41.4216096 L21.3058614,33.3088915 L20.5854304,33.0189403 C20.4496115,33.1372877 20.3610339,33.2319657 20.3137925,33.2911394 C19.8709046,33.6461818 19.097327,33.6520991 17.9930598,33.3088915 C14.5798703,32.3384424 11.6390945,30.3028661 9.17073248,27.2554191 C8.08418079,25.8825886 7.28107737,24.5748493 6.80275842,23.2671099 C6.40711188,22.3025781 6.31853429,21.3735506 6.43663774,20.491862 C6.57836187,19.6279256 6.92676703,18.9415103 7.54681012,18.4622032 C8.52116354,17.6515231 9.64905143,17.7343663 10.97181,18.6160548 C11.6390945,19.0776099 12.9382324,20.2492497 14.7274996,22.1013874 L17.4793098,24.8648005 C19.1091374,26.492078 20.5204735,27.7110568 21.736939,28.539489 C22.97112,29.3738386 24.2171113,29.9892454 25.4926285,30.3442877 C26.844913,30.7111649 28.2208181,30.7229996 29.6498698,30.3975441 C31.0789215,30.1016755 32.3485335,29.4507645 33.5000421,28.5217369 C35.3601714,27.0542285 36.4821541,25.1251649 36.9722834,22.7759679 C37.3915506,20.6575485 36.9959041,18.2255082 35.7912489,15.4561778 C34.9054731,13.3850973 33.6771973,11.4086948 32.124137,9.47963123 C29.3428008,6.02388552 25.7583613,3.29005928 21.3885338,1.24264829 C20.4614218,0.816597447 19.9594822,0.497059316 19.8472839,0.384629232 C19.7232753,0.201190675 19.6406029,-0.177521184 19.6406029,-0.745588973 L18.9024563,-1.0887966 L14.7983616,6.92332618 L15.5010771,7.27836855 C15.6132754,7.19552533 15.7077581,7.12451686 15.7431892,7.07717787 C16.3337064,6.59787068 17.0895685,6.46768848 18.0107753,6.59787068 C19.4280167,6.84640034 21.0755597,7.60974143 23.0183614,8.93523294 C24.961163,10.2252202 26.5555595,11.6158028 27.8074561,13.1839066 C29.1597405,14.8940273 30.0573267,16.5745612 30.4647836,18.2550951 C30.6832749,19.1722879 30.7068956,20.0303069 30.4765939,20.8528218 C30.2581025,21.6575845 29.8742663,22.3025781 29.3073698,22.7759679 C28.4393095,23.4683005 27.4413354,23.49197 26.3429733,22.8824806 C25.5457751,22.444595 24.2466372,21.332129 22.4396545,19.4977434 L19.7528011,16.8112561 C17.9399133,15.0242096 16.6407754,13.7756439 15.8140512,13.0892286 C14.9459909,12.4324003 14.0011634,11.8524977 12.9382324,11.3613558 C11.4146979,10.6690232 9.80258591,10.444163 8.11961183,10.7341143 C6.61969808,10.9589744 5.1906464,11.6158028 3.8501723,12.7045994 C1.64754305,14.491646 0.436982746,16.7284129 0.242112062,19.4267349 C-0.0413362057,22.9594065 1.42314651,26.6991861 4.63556021,30.6934127 C5.9760343,32.3502771 7.38737047,33.7586119 8.89318939,34.9184169 C10.4167238,36.1078089 12.4717238,37.3977961 15.1408616,38.8061309 C15.9971116,39.3268597 16.5285771,39.6463978 16.6407754,39.8120842 C16.8592667,40.0724486 16.9832754,40.522169 16.9832754,41.1020715 L17.7155167,41.4216096" id="path3257"></path>
                        </g>
                        <g id="g3259" transform="translate(257.710834, 261.846682) scale(1, -1) translate(-257.710834, -261.846682) translate(237.042731, 241.135877)" fill="#1A64B7">
                            <path d="M17.7155167,5.9173728 L21.6188356,-1.69236862 L21.9495252,-1.64502964 C21.9613355,-1.03554024 22.0144821,-0.639076263 22.2329735,-0.343207623 C22.421939,-0.118347456 22.8825424,0.130182202 23.8450855,0.573985162 C28.1853871,2.61547878 31.7166801,5.31380078 34.492111,8.73995963 C36.033361,10.651271 37.2557316,12.6158388 38.1296971,14.6573324 C39.0036626,16.6751566 39.4170247,18.5036248 39.4170247,20.1545718 C39.4170247,20.7285569 39.393404,21.2907074 39.2753005,21.8469404 C38.7910764,24.1132942 37.6927144,25.9772666 35.9211627,27.4329403 C34.7932748,28.332381 33.529568,28.935953 32.1359473,29.2673259 C31.4804732,29.4034255 30.8427146,29.4921861 30.2344819,29.4921861 C29.5258612,29.4921861 28.8290509,29.3915907 28.1617664,29.2081522 C26.9216802,28.8353577 25.6520682,28.237703 24.4710337,27.4329403 C23.2604734,26.6104255 21.8255166,25.3855293 20.2134046,23.7582518 L17.5029305,21.0125908 C15.6605168,19.1663705 14.4204306,18.0006481 13.6999996,17.4976714 C12.9677582,17.0124468 12.2768531,16.7520824 11.5977583,16.7520824 C11.007241,16.7520824 10.4403445,16.9473557 9.95612039,17.3674892 C9.28883593,17.888218 8.88728422,18.6456417 8.76918077,19.5687519 C8.71012905,19.8350336 8.69241353,20.0717286 8.69241353,20.3380103 C8.69241353,21.0125908 8.84004284,21.7404277 9.11168076,22.4564298 C9.6136204,23.7760039 10.4403445,25.1369997 11.5446117,26.5157475 C14.0484048,29.6164509 17.0246116,31.6638619 20.5086632,32.6638979 C21.0401287,32.8414191 21.5125425,32.9183449 21.9495252,32.9183449 C22.3865079,32.9301797 22.7467235,32.8355017 23.0242666,32.5988068 C23.1305597,32.5277983 23.2191372,32.427203 23.0419821,32.379864 L23.5380165,32.5810547 L20.1130166,40.2440524 L19.8059477,40.2026308 C19.8059477,39.5990588 19.7055598,39.1138342 19.4339218,38.7410398 C19.2154305,38.4984275 18.7253012,38.2203109 17.8218098,37.6877474 C15.1703875,36.2616605 13.1153875,34.9775906 11.6154738,33.8592072 C10.1628014,32.6638979 8.75146525,31.2910674 7.39327564,29.6164509 C4.46431021,26.0068535 3.01163784,22.5984467 3.01163784,19.3912307 C3.01163784,19.1486184 3.0411637,18.8349976 3.05887922,18.5568811 C3.28327576,15.9058981 4.45249987,13.7874786 6.60198256,12.0181842 C7.88931011,10.9530571 9.27702558,10.3376503 10.7474135,10.0832033 C11.1903014,10.0240295 11.6627152,9.98852529 12.0878876,9.98852529 C13.233491,9.98852529 14.331853,10.237055 15.3829737,10.7104448 C16.4459047,11.189752 17.3730167,11.7637371 18.2174564,12.4264829 C19.0205598,13.0655592 20.3492235,14.2963727 22.1443959,16.095254 L24.8371544,18.8054108 C26.638232,20.6102095 27.943275,21.7404277 28.7759043,22.2079001 C29.3250853,22.5274383 29.8860767,22.6931247 30.4352577,22.6931247 C31.0139646,22.7049595 31.5513353,22.4860167 32.0355594,22.0777179 C32.6556025,21.586576 33.08668,20.888326 33.3110766,20.0125548 C33.4055593,19.5924214 33.4409904,19.1722879 33.4409904,18.7284849 C33.4409904,18.2728472 33.4055593,17.79354 33.2874559,17.284646 C32.8918094,15.5567731 31.9765077,13.8525697 30.6065077,12.1365316 C29.3073698,10.538841 27.6775423,9.11867149 25.7406458,7.82276685 C23.7860338,6.48544059 22.0912493,5.70434738 20.6267666,5.4617351 C20.366939,5.42623086 20.1366373,5.40256137 19.918146,5.40256137 C19.2154305,5.40256137 18.6426288,5.59783467 18.1643098,5.96471179 C18.1229736,6.00021602 18.0580167,6.07714187 18.1584046,6.12448085 L17.7155167,5.9173728 L17.7155167,5.9173728 Z M17.0128012,6.17181984 L17.2549133,6.27241517 L18.2528874,6.60970542 C18.3473701,6.48544059 18.4477581,6.42626687 18.5009046,6.39668 C18.890646,6.07714187 19.3335339,5.9173728 19.918146,5.9173728 C20.1130166,5.9173728 20.331508,5.95879441 20.5559046,5.96471179 C21.8845683,6.19548933 23.520301,6.94699567 25.439482,8.24881769 C27.3527578,9.52105284 28.9471543,10.9116355 30.1990508,12.4560698 C31.5218094,14.1306863 32.3957749,15.7757159 32.7855163,17.397076 C32.8918094,17.8586311 32.9331456,18.3024341 32.9331456,18.7284849 C32.9331456,19.1486184 32.8918094,19.5273303 32.8091369,19.9001247 C32.6083611,20.6753006 32.2245249,21.2433684 31.7166801,21.6694192 C31.2856025,22.0126268 30.8781456,22.1723959 30.4352577,22.1723959 C30.0100853,22.1723959 29.5317664,22.0540484 29.0475422,21.7581798 C28.3153009,21.3380463 26.9925423,20.2196629 25.2209906,18.4266989 L22.5046114,15.7342943 C20.7035339,13.9058261 19.3866805,12.6927647 18.548146,12.000432 C17.6800857,11.3199342 16.7057323,10.7163621 15.6073702,10.2429723 C14.4735772,9.7044914 13.3220686,9.46187912 12.0878876,9.46187912 C11.5977583,9.46187912 11.1371548,9.50330072 10.6824566,9.56839183 C9.11168076,9.82875623 7.6353877,10.5033367 6.27129292,11.6158028 C4.00961195,13.4324363 2.75181026,15.7520464 2.54512923,18.5036248 C2.53331889,18.8054108 2.49198268,19.1071968 2.49198268,19.3912307 C2.49198268,22.7522984 4.00961195,26.2790526 6.98581876,29.9537411 C8.34991354,31.6401924 9.7848704,33.0840314 11.3084048,34.2438364 C12.8437496,35.4213936 14.9046547,36.7172983 17.5915081,38.1611372 C18.4477581,38.6404444 18.9910339,39.0014042 19.0205598,39.0842474 C19.1918098,39.2676859 19.2862925,39.6286457 19.4339218,40.4570779 L20.1779735,40.7588639 L20.4141804,40.8594592 L24.2171113,32.3029381 L23.9868096,32.1964254 L22.9829303,31.9183089 C22.8234907,32.0721606 22.7703441,32.1372517 22.7112924,32.1964254 C22.5400424,32.3206903 22.2920252,32.4094509 21.9495252,32.4094509 C21.5834045,32.4094509 21.1346114,32.332525 20.6621977,32.1845907 C17.2962495,31.1904721 14.3909047,29.2081522 11.9579738,26.1725399 C10.8773273,24.8588832 10.080129,23.539309 9.56637902,22.2729912 C9.34788765,21.5984107 9.21206869,20.9415824 9.21206869,20.3380103 C9.21206869,20.095398 9.22978421,19.8705379 9.27702558,19.6397603 C9.39512903,18.8113281 9.74943936,18.2314256 10.2572842,17.79354 C10.6942669,17.444415 11.1371548,17.284646 11.5977583,17.284646 C12.1174134,17.284646 12.7315513,17.4976714 13.3811203,17.9414743 C14.0484048,18.3852773 15.3062064,19.5273303 17.1013788,21.3972201 L19.8472839,24.142881 C21.4712063,25.7819933 22.9297838,27.0128069 24.1639648,27.8649085 C25.4276717,28.7110928 26.6972837,29.3264996 28.0082319,29.7229636 C28.7404733,29.9123195 29.4727146,30.0129149 30.2344819,30.0129149 C30.9076715,30.0129149 31.5690508,29.9478238 32.2599559,29.7880547 C33.7244386,29.4685166 35.0471972,28.7939361 36.2282317,27.8353217 C38.1296971,26.3145569 39.2989212,24.332237 39.7654298,21.9534531 C39.9012488,21.3735506 39.942585,20.7640612 39.942585,20.1545718 C39.942585,18.3911947 39.4937919,16.5213049 38.6080161,14.4383896 C37.7163351,12.3791439 36.4821541,10.3554024 34.8936627,8.41450413 C32.0887059,4.93508892 28.4629302,2.15984107 24.0576717,0.118347456 C23.1659907,-0.319538131 22.6227148,-0.662745754 22.6109045,-0.680497873 C22.5400424,-0.716002109 22.4750855,-1.10063134 22.3156459,-1.8935593 L21.3412925,-2.31369277 L17.0128012,6.17181984 L17.0128012,6.17181984 Z" id="path3261"></path>
                        </g>
                        <g id="g3263" transform="translate(134.758062, 161.729420) scale(1, -1) translate(-134.758062, -161.729420) translate(-1.060900, 25.629846)" fill="#1A64B7">
                            <path d="M271.637923,136.099575 C271.637923,61.7418678 211.493744,1.45567371 137.283444,1.45567371 C63.049524,1.45567371 2.90534474,61.7418678 2.90534474,136.099575 C2.90534474,210.457281 63.049524,270.761227 137.283444,270.761227 C211.493744,270.761227 271.637923,210.457281 271.637923,136.099575" id="path3265"></path>
                        </g>
                        <g id="g3267" transform="translate(136.161698, 155.174770) scale(1, -1) translate(-136.161698, -155.174770) translate(12.153081, 30.909941)" fill="#FBBF16">
                            <path d="M124.008617,5.9173728 C60.0378861,5.9173728 8.17866355,57.8837408 8.17866355,122.004392 C8.17866355,186.113209 60.0378861,238.091412 124.008617,238.091412 C187.991158,238.091412 239.844476,186.107292 239.844476,122.004392 C239.844476,57.8837408 187.991158,5.9173728 124.008617,5.9173728 M123.996807,245.849088 C55.7212052,245.849088 0.366120679,190.409222 0.366120679,121.968888 C0.366120679,53.5463065 55.7212052,-1.90539404 123.996807,-1.90539404 C192.278313,-1.90539404 247.633398,53.5463065 247.633398,121.968888 C247.633398,190.409222 192.278313,245.849088 123.996807,245.849088" id="path3269"></path>
                        </g>
                        <g id="g3271" transform="translate(156.771363, 157.951770) scale(1, -1) translate(-156.771363, -157.951770) translate(68.193779, 98.778041)" fill="#FBBF16">
                            <path d="M0,118.347456 C0,118.347456 68.877929,26.1192836 178.407064,5.13036222 L158.648357,-0.544398298 C158.648357,-0.544398298 90.1896956,15.3319129 0.531465501,115.643217" id="path3273"></path>
                        </g>
                        <g id="g3275" transform="translate(139.049941, 225.679652) scale(1, -1) translate(-139.049941, -225.679652) translate(35.709427, 210.886220)" fill="#FBBF16">
                            <path d="M0,11.8347456 C0,11.8347456 89.1208594,26.5512518 187.36521,24.1547158 L207.041244,28.3856373 L196.423744,5.15403171 C196.423744,5.15403171 92.7525403,8.71037277 15.9734909,0.644993636 C2.29120683,2.52671819 4.08637919,7.54465033 4.08637919,7.54465033 L0,11.8347456" id="path3277"></path>
                        </g>
                        <g id="g3279" transform="translate(134.531303, 238.335776) scale(1, -1) translate(-134.531303, -238.335776) translate(43.001134, 235.377090)" fill="#FBBF16">
                            <path d="M5.90517224,2.82440737e-13 C5.90517224,2.82440737e-13 122.07172,5.07118849 181.02896,-2.77524785 C182.587926,-2.98235589 185.81215,2.54447031 185.81215,2.54447031 C185.81215,2.54447031 143.023272,8.46776048 12.0465514,3.89363131 C-9.19435317,3.14804233 5.90517224,2.82440737e-13 5.90517224,2.82440737e-13" id="path3281"></path>
                        </g>
                        <g id="g3283" transform="translate(41.883261, 147.205868) scale(1, -1) translate(-41.883261, -147.205868) translate(15.309986, 102.825572)" fill="#FBBF16">
                            <path d="M47.2413779,82.8432193 C26.0477147,32.5573852 1.03340514,12.491574 1.03340514,12.491574 L2.47426717,2.35511438 C2.47426717,2.35511438 30.0632319,38.2025588 47.2413779,78.2750075 C56.7309897,100.394147 47.2413779,82.8432193 47.2413779,82.8432193" id="path3285"></path>
                        </g>
                        <g id="g3287" transform="translate(67.378299, 174.820448) scale(1, -1) translate(-67.378299, -174.820448) translate(58.520540, 89.018542)" fill="#FBBF16">
                            <path d="M5.90517224,165.686439 L2.91124991,164.946767 C2.91124991,164.946767 -0.0118103445,21.5155675 1.88965512,5.54457832 C2.06681028,4.13032622 9.01129283,5.41439612 9.01129283,5.41439612 C9.01129283,5.41439612 11.3792669,-4.3078474 15.943965,-0.260364403 C11.9284479,50.569868 10.9599997,168.65696 10.9599997,168.65696 L5.98193948,168.65696 L5.90517224,165.686439" id="path3289"></path>
                        </g>
                        <g id="g3291" transform="translate(80.174807, 183.292942) scale(1, -1) translate(-80.174807, -183.292942) translate(71.317049, 97.491037)" fill="#FBBF16">
                            <path d="M0,171.603811 L3.36594817,174.521076 L6.96219807,172.899716 C6.96219807,172.899716 10.5525428,37.6995821 17.0128012,-0.213025421 L13.5110341,0.0650911009 C13.5110341,0.0650911009 6.48387912,0.473389824 6.00556016,4.89958468 C3.18288784,30.2141055 0,171.603811 0,171.603811" id="path3293"></path>
                        </g>
                        <g id="g3295" transform="translate(58.131980, 202.007794) scale(1, -1) translate(-58.131980, -202.007794) translate(52.226808, 172.420930)" fill="#FBBF16">
                            <path d="M-6.87450097e-13,0 L-2.42702579,0.426050842 L7.55862046,56.8541179 L9.97383591,56.4221497 L-6.87450097e-13,0 L-6.87450097e-13,0 Z" id="path3297"></path>
                        </g>
                        <g id="g3299" transform="translate(52.200211, 174.308619) scale(1, -1) translate(-52.200211, -174.308619) translate(43.342452, 118.093577)" fill="#FBBF16">
                            <path d="M-2.3625546e-12,0 L-2.39159476,0.449720333 L17.7214219,114.175708 L20.1484477,113.761492 L-2.3625546e-12,0 L-2.3625546e-12,0 Z" id="path3301"></path>
                        </g>
                        <g id="g3303" transform="translate(45.023065, 178.693345) scale(1, -1) translate(-45.023065, -178.693345) translate(36.165306, 134.313049)" fill="#FBBF16">
                            <path d="M-6.44817533e-13,0 L-1.86012925,2.40837073 L12.0701721,82.1804735 L15.5187926,87.6067044 L-6.44817533e-13,0 L-6.44817533e-13,0 Z" id="path3305"></path>
                        </g>
                        <g id="g3307" transform="translate(85.777020, 189.881961) scale(1, -1) translate(-85.777020, -189.881961) translate(76.919262, 154.377724)" fill="#FBBF16">
                            <path d="M17.7155167,0 L20.0480597,0.727836855 L-2.20853442,71.6120457 L-0.295258612,56.7712747 L17.7155167,0 L17.7155167,0 Z" id="path3309"></path>
                        </g>
                        <g id="g3311" transform="translate(88.514091, 175.858970) scale(1, -1) translate(-88.514091, -175.858970) translate(73.751161, 128.519988)" fill="#FBBF16">
                            <path d="M29.5258612,0 L31.8643094,0.733754228 L1.81288788,97.6070644 L2.0195689,87.8611514 L29.5258612,0 L29.5258612,0 Z" id="path3313"></path>
                        </g>
                        <g id="g3315" transform="translate(95.613856, 168.098312) scale(1, -1) translate(-95.613856, -168.098312) translate(77.898339, 114.841957)" fill="#FBBF16">
                            <path d="M35.4310334,0 L37.7694816,0.721919482 L5.27922398,104.66649 L1.26370686,108.909246 L35.4310334,0 L35.4310334,0 Z" id="path3317"></path>
                        </g>
                        <g id="g3319" transform="translate(108.092666, 174.834081) scale(1, -1) translate(-108.092666, -174.834081) translate(93.329735, 127.495099)" fill="#FBBF16">
                            <path d="M0,94.6779649 L29.7797836,1.05920973 L32.1182318,1.81663345 L4.22810332,90.6541514 L2.75181026,92.1334946" id="path3321"></path>
                        </g>
                        <g id="g3323" transform="translate(122.763476, 179.856132) scale(1, -1) translate(-122.763476, -179.856132) translate(108.000545, 141.393209)" fill="#FBBF16">
                            <path d="M0,76.9258465 L25.2387061,-2.84625632 L27.5771543,-2.10658472 L3.66120679,73.7659694 L0.377931023,76.9258465" id="path3325"></path>
                        </g>
                        <g id="g3327" transform="translate(130.577200, 186.944577) scale(1, -1) translate(-130.577200, -186.944577) translate(118.766855, 154.399026)" fill="#FBBF16">
                            <path d="M23.6206889,0 L25.9591372,0.739671601 L5.8697412,63.8247831 L2.59827578,66.3515013 L23.6206889,0 L23.6206889,0 Z" id="path3329"></path>
                        </g>
                        <g id="g3331" transform="translate(143.917551, 192.411046) scale(1, -1) translate(-143.917551, -192.411046) translate(135.059793, 165.782868)" fill="#FBBF16">
                            <path d="M17.7155167,0 L20.0598701,0.745588973 L3.94465505,51.8835248 L0.171249995,55.2919315 L17.7155167,0 L17.7155167,0 Z" id="path3333"></path>
                        </g>
                        <g id="g3335" transform="translate(157.063645, 197.395841) scale(1, -1) translate(-157.063645, -197.395841) translate(148.205887, 173.726349)" fill="#FBBF16">
                            <path d="M0,47.3389824 L14.3672841,2.2841059 L16.6998271,3.01194276 L3.66120679,44.5637346 L1.38771548,45.8833087" id="path3337"></path>
                        </g>
                        <g id="g3339" transform="translate(167.599087, 201.708990) scale(1, -1) translate(-167.599087, -201.708990) translate(161.693914, 183.956871)" fill="#FBBF16">
                            <path d="M0,35.5042368 L11.0013359,0.609489399 L13.3279737,1.33732625 L3.15336197,33.4804953 L0.348405162,34.3444318" id="path3341"></path>
                        </g>
                        <g id="g3343" transform="translate(180.879819, 210.019916) scale(1, -1) translate(-180.879819, -210.019916) translate(174.974647, 189.309112)" fill="#FBBF16">
                            <path d="M11.8103445,0 L14.1546979,0.733754228 L3.1474568,36.3859254 L-0.962543075,41.3150969 L11.8103445,0 L11.8103445,0 Z" id="path3345"></path>
                        </g>
                        <g id="g3347" transform="translate(192.083679, 211.725919) scale(1, -1) translate(-192.083679, -211.725919) translate(186.178506, 196.932487)" fill="#FBBF16">
                            <path d="M0,29.586864 L9.76715488,-1.66278176 L12.0996979,-0.905358039 L3.72025851,25.9417624 L0,29.586864 L0,29.586864 Z" id="path3349"></path>
                        </g>
                        <g id="g3351" transform="translate(204.624517, 216.494706) scale(1, -1) translate(-204.624517, -216.494706) translate(198.719344, 204.659960)" fill="#FBBF16">
                            <path d="M0,23.6694912 L7.14525841,1.10654871 L9.49551696,1.84622032 L3.531293,20.6161269 L0,23.6694912 L0,23.6694912 Z" id="path3353"></path>
                        </g>
                        <g id="g3355" transform="translate(27.194168, 186.210207) scale(1, -1) translate(-27.194168, -186.210207) translate(24.241582, 171.416775)" fill="#FBBF16">
                            <path d="M-2.23421281e-12,0 L-2.90534474,2.2841059 L4.63556021,31.7822093 L7.04487048,31.5040928 L-2.23421281e-12,0 L-2.23421281e-12,0 Z" id="path3357"></path>
                        </g>
                        <g id="g3359" transform="translate(36.579235, 179.701097) scale(1, -1) translate(-36.579235, -179.701097) translate(30.674063, 150.114233)" fill="#FBBF16">
                            <path d="M2.32036612e-12,0 L-1.86603443,2.42020548 L6.81456876,51.7474252 L9.94431005,56.2860501 L2.32036612e-12,0 L2.32036612e-12,0 Z" id="path3361"></path>
                        </g>
                        <g id="g3363" transform="translate(13.912255, 71.458147) scale(1, -1) translate(-13.912255, -71.458147) translate(2.101911, 59.623401)" fill="#1A64B7">
                            <path d="M11.8103445,17.7521184 L11.178491,17.2609765 C11.0840083,17.397076 10.9659048,17.5095061 10.8478014,17.5982667 C10.5407324,17.8290443 10.1214652,17.8349616 9.58999971,17.6396883 C9.06443938,17.4384977 8.49163768,17.1071248 7.89521528,16.6455697 C7.29288771,16.1840146 6.69646532,15.6396163 6.10594809,15.0123748 C5.51543087,14.3732985 5.00168088,13.7519744 4.54107745,13.1306503 C3.98008609,12.3673092 3.531293,11.5211249 3.20650852,10.6098494 C2.86991371,9.69857403 2.71047406,8.78138124 2.73409475,7.85827108 C2.75771543,6.93516093 2.9998275,6.02980289 3.45452576,5.14219697 C3.90922402,4.24867367 4.66508607,3.42615885 5.69258604,2.66873514 C6.70237049,1.92906353 7.7003446,1.46750846 8.70422388,1.29590464 C9.69038764,1.11838346 10.6352152,1.15980507 11.520991,1.40833473 C12.4067669,1.66869913 13.233491,2.09474997 13.9952582,2.69240463 C14.7629306,3.29005928 15.4243099,3.96463978 15.9853012,4.73389824 C16.8474564,5.90553806 17.5265512,7.03575627 18.0166805,8.12455286 C18.5009046,9.20743208 18.8788356,10.1660465 19.1386632,11.000396 L16.4813357,12.9472117 L13.575991,8.97073717 C13.3634048,8.68670328 13.268922,8.4204215 13.2925427,8.18372659 C13.304353,7.95294905 13.5051289,7.66299778 13.8889651,7.31979016 L13.475603,6.76355712 L9.51913765,9.66898716 L9.92659453,10.2193028 C10.3163359,10.0121948 10.5997842,9.94118631 10.7946548,10.0181122 C10.9954307,10.095038 11.2021117,10.2725592 11.4087928,10.5684278 L17.0718529,18.3142688 L17.6269391,17.9059701 C17.3907322,17.444415 17.2726288,17.1367116 17.2844391,16.9710252 C17.2844391,16.8112561 17.4202581,16.633735 17.691896,16.4266269 L21.187758,13.8644045 C21.394439,13.7164702 21.5774994,13.6750486 21.7310338,13.7578918 C21.8786631,13.8348176 22.0617235,13.9235782 22.2565942,14.0300909 L22.7585338,13.6691312 C22.7290079,12.6454257 22.5990941,11.6335549 22.3569821,10.651271 C22.11487,9.67490454 21.8018959,8.72812489 21.4121545,7.82868422 C21.016508,6.91740881 20.5618097,6.06530713 20.0362494,5.2664618 C19.5047839,4.46169909 18.9792236,3.68060588 18.4300426,2.94093428 C17.3789219,1.49117795 16.2333185,0.301786013 14.9991375,-0.621324145 C13.7649565,-1.5444343 12.4894393,-2.16575845 11.1607755,-2.49121395 C9.83211177,-2.81075208 8.4857325,-2.83442157 7.12754289,-2.55038768 C5.7634481,-2.26635378 4.43478435,-1.65094701 3.14155163,-0.698249991 C1.83650857,0.254447031 0.84443963,1.33732625 0.165344823,2.55630505 C-0.513749985,3.76936648 -0.903491352,5.06527112 -1.00978445,6.43218424 C-1.11607755,7.8109321 -0.921206869,9.24293632 -0.436982746,10.7104448 C0.0472413779,12.1661185 0.826724113,13.6336269 1.88374994,15.0774659 C2.54512923,15.9887413 3.24784473,16.8053388 3.96827574,17.5509277 C4.7005171,18.284682 5.37370674,18.9119235 5.99374982,19.444487 C6.61969808,19.9652158 7.15116358,20.3912667 7.5940515,20.7167222 C8.03693941,21.0362603 8.29676699,21.2611205 8.3794394,21.3557985 C8.50935319,21.5451544 8.56840492,21.7226756 8.56249974,21.8824446 C8.55659457,22.0481311 8.56249974,22.2138175 8.58021526,22.3617518 L9.06443938,22.5747773 L11.8103445,17.7521184" id="path3365"></path>
                        </g>
                        <g id="g3367" transform="translate(32.443252, 51.494682) scale(1, -1) translate(-32.443252, -51.494682) translate(20.632908, 42.618623)" fill="#1A64B7">
                            <path d="M5.90517224,11.8347456 C5.39732742,10.9530571 5.04892226,10.0358643 4.85405158,9.08316726 C4.67099124,8.13047023 4.67689641,7.17777321 4.88948261,6.22507619 C5.09616364,5.27237917 5.56267225,4.40252537 6.28900843,3.60368004 C7.00943944,2.81075208 7.83025839,2.26043641 8.7632756,1.96456777 C9.69629281,1.66869913 10.62931,1.56810379 11.6036634,1.6746165 C12.5603013,1.76929447 13.5051289,2.04149362 14.4322409,2.46754446 C15.3534478,2.88767793 16.1801719,3.43207623 16.8946978,4.09482198 C17.6151288,4.74573299 18.2292667,5.52090883 18.7430167,6.40259737 C19.2449563,7.27836855 19.5933615,8.20147871 19.782327,9.15417573 C19.9712925,10.1068728 19.9594822,11.0595698 19.7528011,12.0063494 C19.5520253,12.9590464 19.0796115,13.840735 18.3532753,14.6277456 C17.6328443,15.4147562 16.8061202,15.9769066 15.8790081,16.2727752 C14.9518961,16.5686439 14.0070685,16.6574044 13.0445255,16.5627265 C12.0819824,16.4680485 11.1371548,16.2017667 10.2100428,15.7697985 C9.27702558,15.3378303 8.46801699,14.7993494 7.74758597,14.142521 C7.03896531,13.4856926 6.41892222,12.7164342 5.90517224,11.8347456 M8.9758618,19.1841226 C10.3340514,19.8527858 11.7453876,20.284754 13.2039651,20.4681925 C14.6507323,20.6575485 16.0974995,20.5332836 17.5383615,20.0894807 C18.9733184,19.6575125 20.2842666,18.7817413 21.4712063,17.4799193 C22.6581459,16.1721799 23.4081027,14.7815973 23.7092665,13.3140888 C24.0163355,11.8347456 24.0045251,10.3849893 23.6856458,8.94706768 C23.3667665,7.51506346 22.79987,6.15406772 21.9731459,4.89366731 C21.1582321,3.62143216 20.2311201,2.50896607 19.1977149,1.56218642 C18.1524995,0.615406772 16.9596547,-0.201190675 15.6309909,-0.911275412 C14.296422,-1.6095254 12.9028013,-2.04741099 11.450129,-2.23676692 C9.98564625,-2.42020548 8.53887905,-2.29594065 7.1039222,-1.85805506 C5.66896535,-1.42608685 4.35801711,-0.550315671 3.17107749,0.757423719 C1.9782327,2.06516311 1.24008617,3.44982835 0.933017213,4.92325417 C0.625948257,6.39668 0.643663774,7.85235371 0.962543075,9.28435793 C1.28142238,10.7281969 1.83060339,12.0832753 2.62780165,13.3850973 C3.41909473,14.6869193 4.33439642,15.8053028 5.37370674,16.7579998 C6.41301705,17.6988621 7.61176701,18.5154595 8.9758618,19.1841226" id="path3369"></path>
                        </g>
                        <g id="g3371" transform="translate(54.726444, 37.436803) scale(1, -1) translate(-54.726444, -37.436803) translate(39.963513, 25.602058)" fill="#1A64B7">
                            <path d="M29.5258612,11.8347456 C29.2896543,11.745985 29.0121112,11.6039681 28.6873267,11.4027774 L13.1803444,1.7633771 L12.8142238,2.35511438 C13.4578875,2.7634131 13.6704737,3.15395971 13.4283617,3.55042368 L4.25172401,18.3675252 C4.01551712,18.7639892 3.56081886,18.7521544 2.91124991,18.3497731 L2.55103441,18.9415103 L8.14913769,22.4150082 L8.52116354,21.8291883 C7.90702562,21.4504764 7.72396529,21.0658472 7.97198252,20.6753006 L16.0148271,7.6807499 L26.8331026,14.4028854 C27.1519819,14.6099935 27.3704733,14.8526057 27.4826716,15.1307223 C27.5948699,15.4147562 27.565344,15.6810379 27.4059044,15.9473197 L27.9964216,16.3082795 L30.7659474,11.8347456 L30.1754301,11.4737859 C29.9746543,11.793324 29.7502577,11.9235062 29.5258612,11.8347456" id="path3373"></path>
                        </g>
                        <g id="g3375" transform="translate(79.797443, 22.053433) scale(1, -1) translate(-79.797443, -22.053433) translate(65.034512, 10.218687)" fill="#1A64B7">
                            <path d="M17.7155167,5.9173728 C18.8256891,6.36117577 19.7646115,6.84048296 20.5263787,7.36712914 C21.2822407,7.88785795 21.8373269,8.50326472 22.1916373,9.20743208 C22.5400424,9.91159945 22.6935769,10.7281969 22.6463355,11.6394723 C22.6049993,12.5566651 22.3274562,13.6336269 21.8373269,14.8762752 C21.3471976,16.1130061 20.8039218,17.0775379 20.2134046,17.7817053 C19.6169822,18.4799553 18.9496977,18.9710972 18.2115512,19.2432964 C17.4674995,19.5095781 16.6466805,19.5687519 15.737284,19.4267349 C14.8337927,19.2906353 13.8240082,18.9947667 12.7020255,18.5509637 L7.18068944,16.3556184 L12.2000858,3.71611012 L17.7155167,5.9173728 L17.7155167,5.9173728 Z M12.9146117,22.190148 C14.2196547,22.7108768 15.5128875,23.0067455 16.7943098,23.0777539 C18.0639219,23.142845 19.2744822,22.9534891 20.4200856,22.5156035 C21.5538787,22.0718006 22.5990941,21.3557985 23.5380165,20.3735146 C24.4769389,19.3793959 25.268232,18.0894087 25.9000854,16.4976354 C26.5260337,14.8940273 26.844913,13.4146841 26.8271975,12.047771 C26.8212923,10.6808579 26.5614647,9.444127 26.0359044,8.33757828 C25.5162492,7.23694694 24.7603872,6.27241517 23.7919389,5.43806561 C22.8057752,4.60963342 21.6660769,3.93505292 20.3610339,3.41432411 L8.53297388,-1.29590464 L8.27905148,-0.656828381 C8.82232732,-0.437885588 9.01129283,-0.118347456 8.84594801,0.307703386 L2.42112062,16.5272222 C2.24396545,16.9414383 1.87784477,17.0538684 1.3404741,16.8349256 L1.08064652,17.4858366 L12.9146117,22.190148 L12.9146117,22.190148 Z" id="path3377"></path>
                        </g>
                        <g id="g3379" transform="translate(109.622106, 11.944146) scale(1, -1) translate(-109.622106, -11.944146) translate(97.811761, 0.109400)" fill="#1A64B7">
                            <path d="M17.7155167,17.7521184 C17.656465,18.0243176 17.5088357,18.2195909 17.2726288,18.3083515 C17.0364219,18.4089468 16.6525857,18.4089468 16.1211202,18.2965167 L3.93874988,15.9177328 L4.84814641,11.237091 L12.2178014,12.6868473 C12.719741,12.7815253 13.097672,12.9294596 13.3515944,13.1188155 C13.5937065,13.3200062 13.6586634,13.698718 13.5523703,14.284538 L14.2314651,14.4088028 L15.3652582,8.52693421 L14.6920685,8.39083464 C14.5857754,8.97073717 14.3790944,9.31394479 14.0602151,9.42637488 C13.7531461,9.53880496 13.3515944,9.53880496 12.8496548,9.444127 L5.47999984,8.00028803 L6.48387912,2.79891734 L19.0559908,5.25462705 C19.4339218,5.32563552 19.7173701,5.47356984 19.9240511,5.69843001 C20.1366373,5.92329018 20.2015942,6.18365458 20.1484477,6.49135797 L20.8157321,6.60970542 L21.8255166,1.44975634 L21.1464218,1.31957414 C21.0755597,1.69236862 20.9161201,1.88172455 20.6681028,1.88764192 C20.4200856,1.89947667 20.1012063,1.85805506 19.7291804,1.78704659 L2.20262924,-1.64502964 L2.06681028,-0.964531767 C2.23806028,-0.92902753 2.38568958,-0.846184311 2.5096982,-0.704167364 C2.6159913,-0.556233044 2.65142233,-0.37871186 2.60418096,-0.153851693 L-0.726336185,16.9591905 C-0.767672391,17.189968 -0.873965491,17.3497371 -1.02749997,17.4325803 C-1.18693962,17.5154235 -1.35818961,17.5450104 -1.52943961,17.5095061 L-1.66525857,18.190004 L15.4951719,21.5451544 C16.0207323,21.6457497 16.3750426,21.7996014 16.558103,22.0067095 C16.7411633,22.2138175 16.800215,22.4505124 16.7529736,22.7286289 L17.4261633,22.8647285 L18.3946115,17.8823006 L17.7155167,17.7521184" id="path3381"></path>
                        </g>
                        <g id="g3383" transform="translate(137.120745, 11.382611) scale(1, -1) translate(-137.120745, -11.382611) translate(125.310400, 2.506552)" fill="#1A64B7">
                            <path d="M-2.40679178e-12,-2.2082336e-13 C0.484224123,-2.2082336e-13 0.726336185,0.230777539 0.732241357,0.686415245 L0.732241357,18.1308303 C0.732241357,18.5923854 0.484224123,18.8231629 0.00590517223,18.8172455 L-2.40679178e-12,19.5154955 L6.55474118,19.5154955 L6.55474118,18.8231629 C6.34806015,18.8172455 6.2535774,18.6988981 6.2535774,18.4385337 C6.2535774,18.2255082 6.5074998,17.8704659 7.02715496,17.3615718 L18.0225857,5.91145543 L18.0225857,18.1249129 C18.0225857,18.586468 17.691896,18.8172455 17.0187064,18.8172455 L17.0187064,19.5095781 L22.8116804,19.5095781 L22.8116804,18.8172455 C22.3274562,18.8172455 22.0853442,18.586468 22.0853442,18.1308303 L22.079439,0.686415245 C22.079439,0.218942794 22.3274562,-0.00591737281 22.8057752,-0.00591737281 L22.8057752,-0.692332618 L16.5994392,-0.692332618 L16.5994392,-0.00591737281 C16.9301288,-2.2082336e-13 17.1013788,0.112430083 17.1013788,0.343207623 C17.0954736,0.52664618 16.8946978,0.82251482 16.4931461,1.22489617 L4.79499986,13.4501884 L4.80090503,0.692332618 C4.79499986,0.224860167 5.0843533,-2.2082336e-13 5.67487052,-0.00591737281 L5.67487052,-0.692332618 L-0.00590517224,-0.692332618 L-2.40679178e-12,-2.2082336e-13" id="path3385"></path>
                        </g>
                        <g id="g3387" transform="translate(175.631869, 18.056224) scale(1, -1) translate(-175.631869, -18.056224) translate(163.821524, 6.221478)" fill="#1A64B7">
                            <path d="M5.90517224,11.8347456 L6.21814637,11.5507117 C6.15909464,11.3258515 6.1472843,11.1128261 6.20043085,10.9116355 C6.28900843,10.5684278 6.54883601,10.1837986 6.97991358,9.75774776 C7.40508598,9.33761429 7.90702562,8.91748082 8.49754285,8.52101684 C9.09396524,8.11271812 9.7199135,7.745841 10.3990083,7.40855075 C11.0781031,7.0712605 11.6981462,6.82864822 12.2650427,6.66887915 C12.68431,6.54461432 13.2393962,6.43218424 13.918491,6.31383678 C14.5916806,6.17773721 15.2884909,6.13039823 15.9734909,6.14815034 C16.6821116,6.16590246 17.3021547,6.28424992 17.863146,6.50319271 C18.4359477,6.71030076 18.7902581,7.10084737 18.9496977,7.6807499 C19.1091374,8.23698294 19.0087494,8.72220751 18.6544391,9.11275412 C18.3001288,9.50330072 17.7804736,9.85834309 17.1190943,10.1719639 C16.4518099,10.4974194 15.6723271,10.8051227 14.7865513,11.0891566 C13.9007754,11.3791079 12.9972841,11.6868113 12.0819824,12.0241015 C11.1666807,12.3613918 10.2809049,12.7401036 9.43646523,13.1661545 C8.58612043,13.5803706 7.85978425,14.095182 7.26926702,14.698754 C6.69056014,15.3082434 6.27719809,16.0183282 6.0409912,16.840843 C5.80478431,17.6633578 5.84612051,18.6456417 6.16499982,19.7817773 C6.37758602,20.5510358 6.76142221,21.2433684 7.32241357,21.888362 C7.88931011,22.5274383 8.61564629,23.0244976 9.51323247,23.3913747 C10.4049135,23.7464171 11.4678445,23.9535251 12.7079307,23.9949467 C13.9421117,24.0363683 15.3180168,23.841095 16.8415512,23.4150442 C18.1465943,23.0481671 19.2567667,22.633951 20.160258,22.1723959 C21.0637494,21.7108408 21.8373269,21.2670379 22.4809907,20.840987 C23.1128441,20.4267709 23.6443096,20.0539764 24.069482,19.7226036 C24.5005596,19.3912307 24.8666803,19.1841226 25.1914648,19.0894447 C25.5339648,18.9888493 25.7996975,19.0006841 25.988663,19.1012794 L26.3488785,18.6929807 L22.5164217,14.7756799 L22.1857321,15.0301269 C22.2329735,15.3792519 22.2211631,15.6987901 22.1325855,15.9591545 C22.0144821,16.3023621 21.77237,16.6869913 21.394439,17.1012074 C21.0224132,17.5154235 20.5559046,17.9178049 20.0008184,18.3083515 C19.4516373,18.7048154 18.8315943,19.0657752 18.1584046,19.4030654 C17.4793098,19.7344383 16.7884047,20.0007201 16.0679737,20.2078281 C15.5246978,20.3498451 14.9518961,20.4681925 14.3554737,20.539201 C13.7531461,20.6161269 13.1803444,20.633879 12.6724996,20.5924574 C12.1587496,20.5510358 11.7040514,20.4267709 11.3261203,20.2314976 C10.9304738,20.0362243 10.6824566,19.7285209 10.5643531,19.3024701 C10.3990083,18.7166502 10.4934911,18.2136735 10.8359911,17.79354 C11.1843962,17.3734066 11.6981462,17.0006121 12.3536203,16.6514871 C13.0209048,16.3082795 13.7885772,15.9828239 14.6684478,15.6869553 C15.5542237,15.3851693 16.4518099,15.0715485 17.3789219,14.7342583 C18.2824132,14.396968 19.1740943,14.0123388 20.0185339,13.5744532 C20.8629735,13.1365676 21.5834045,12.6217562 22.1680166,12.0181842 C22.7585338,11.4146121 23.1718959,10.7104448 23.4140079,9.89384733 C23.6443096,9.08316726 23.6088786,8.12455286 23.3018096,7.01800415 C22.9534045,5.72801688 22.3215511,4.77531985 21.4062494,4.15991308 C20.5086632,3.53267156 19.4929736,3.11845547 18.3532753,2.93501691 C17.2135771,2.74566098 16.0325426,2.73382624 14.8160771,2.90543005 C13.611422,3.07111649 12.4953445,3.29597665 11.48556,3.57409317 C10.0742238,3.97055715 8.92271525,4.3729385 8.0192239,4.80490672 C7.11573255,5.22504019 6.39530153,5.63925628 5.828405,6.05347238 C5.26150846,6.4617711 4.82452572,6.81681347 4.50564642,7.10676474 C4.18086194,7.39079863 3.8915085,7.57423719 3.62577575,7.63932829 C3.44862059,7.69258465 3.25965507,7.63341092 3.05887922,7.4854766 L2.62189647,7.92336219 L5.90517224,11.8347456" id="path3389"></path>
                        </g>
                        <g id="g3391" transform="translate(207.593637, 23.726819) scale(1, -1) translate(-207.593637, -23.726819) translate(195.783293, 11.892073)" fill="#1A64B7">
                            <path d="M5.90517224,6.47260023e-14 L5.60400845,-0.627241517 L0.277543095,1.91722879 L0.566896535,2.53855293 C0.726336185,2.45570971 0.89758618,2.44387497 1.08064652,2.49121395 C1.25780169,2.52671819 1.38771548,2.65690039 1.49991375,2.85809106 L8.02512907,16.6810739 L2.31482752,19.3971481 C2.09633614,19.491826 1.8719396,19.5332476 1.61801719,19.5154955 C1.36999996,19.4859086 1.1692241,19.3143048 1.00978445,18.9947667 L0.389741368,19.2906353 L2.69275854,24.1487984 L3.31280162,23.8470124 C3.16517232,23.5274743 3.15926715,23.2552751 3.29508611,23.0481671 C3.43681024,22.8351417 3.61396541,22.68129 3.81474126,22.5925294 L19.2036201,15.284574 C19.4103011,15.1780612 19.6346977,15.1484744 19.8886201,15.1662265 C20.1307322,15.189896 20.3433184,15.3674172 20.4968528,15.6869553 L21.1228011,15.3910867 L18.8256891,10.5329236 L18.1997408,10.8347096 C18.3473701,11.1542477 18.3473701,11.4205295 18.2115512,11.6276376 C18.069827,11.8347456 17.898577,11.9885973 17.691896,12.09511 L11.9697841,14.7993494 L5.43866363,0.988201258 C5.24379295,0.579902535 5.39732742,0.242612285 5.90517224,6.47260023e-14" id="path3393"></path>
                        </g>
                        <g id="g3395" transform="translate(217.940680, 40.494902) scale(1, -1) translate(-217.940680, -40.494902) translate(206.130336, 28.660156)" fill="#1A64B7">
                            <path d="M17.7155167,11.8347456 L19.0382753,19.5569171 L12.0583617,15.6632858 L17.7155167,11.8347456 L17.7155167,11.8347456 Z M1.74793098,14.0123388 C2.04909477,13.8703219 2.35616372,13.8584871 2.67504302,13.9827519 C2.98801715,14.1129341 3.32461197,14.2786206 3.67301713,14.4738939 L17.898577,22.8824806 C18.2292667,23.0540844 18.5304305,23.2197709 18.8079736,23.37954 C19.0796115,23.5333916 19.2803874,23.6990781 19.3925856,23.8588471 C19.5343098,24.0777899 19.5579304,24.2789806 19.475258,24.4565018 C19.3807753,24.6517751 19.2567667,24.8174615 19.1150425,24.9713132 L19.5106891,25.5452984 L24.8784906,21.9179489 L24.4946544,21.3439637 C24.3056889,21.4031374 24.1226286,21.444559 23.9277579,21.4682285 C23.7328872,21.491898 23.5498269,21.3853853 23.3962924,21.1605252 C23.2840941,20.983004 23.2014217,20.7877307 23.1600855,20.5747052 C23.1246545,20.3498451 23.0833183,20.0539764 23.0478872,19.6752646 L20.9220252,2.24268429 C20.8747839,1.94089828 20.9043097,1.6746165 21.0106028,1.44383896 C21.1228011,1.2189788 21.2527149,0.97044914 21.4180597,0.710084737 L21.0224132,0.136099575 L15.4361202,3.9173008 L15.8258616,4.49128596 C15.908534,4.43211223 16.0325426,4.39069062 16.2037926,4.3729385 C16.3750426,4.34926901 16.4990512,4.40844274 16.5817236,4.5267902 C16.7234478,4.73981562 16.835646,5.07118849 16.8946978,5.53274357 L17.2726288,8.69853802 L9.51913765,13.9413303 L6.84999979,12.4560698 C6.33624981,12.1602011 6.02327568,11.9116715 5.89336189,11.7223155 C5.73982741,11.4856206 5.85793086,11.2311736 6.25948257,10.9589744 L5.87564638,10.3849893 L1.36409479,13.4383536 L1.74793098,14.0123388 L1.74793098,14.0123388 Z" id="path3397"></path>
                        </g>
                        <g id="g3399" transform="translate(242.985697, 48.763270) scale(1, -1) translate(-242.985697, -48.763270) translate(231.175352, 36.928525)" fill="#1A64B7">
                            <path d="M5.90517224,1.28896893e-13 L5.43866363,-0.514811434 L1.09245686,3.49716733 L1.56487064,4.00606139 C1.69478443,3.89363131 1.85422408,3.82262283 2.03137925,3.81078809 C2.21443959,3.79895334 2.37978441,3.88179656 2.53922406,4.047483 L12.8791806,15.2904913 L8.2318101,19.586504 C8.05465493,19.7462731 7.85387907,19.8527858 7.60586184,19.9001247 C7.35193943,19.9533811 7.11573255,19.8468684 6.87362048,19.586504 L6.3598705,20.0539764 L9.9974566,24.0067815 L10.5053014,23.5452264 C10.2631893,23.2789446 10.1805169,23.030415 10.2572842,22.7818853 C10.3222411,22.5451904 10.4462497,22.3439997 10.6174997,22.190148 L23.1305597,10.6276016 C23.3018096,10.4678325 23.5084907,10.3613198 23.7565079,10.3080634 C24.0045251,10.2548071 24.2466372,10.3613198 24.4946544,10.6276016 L24.9965941,10.1601291 L21.3649132,6.2014067 L20.8511632,6.66887915 C21.0991804,6.93516093 21.1818528,7.18369059 21.1050856,7.42630287 C21.0401287,7.67483253 20.9102149,7.87010583 20.7448701,8.0298749 L16.0915943,12.3258876 L5.75163776,1.07696185 C5.4445688,0.739671601 5.49181018,0.37871186 5.90517224,1.28896893e-13" id="path3401"></path>
                        </g>
                        <g id="g3403" transform="translate(260.571299, 71.941620) scale(1, -1) translate(-260.571299, -71.941620) translate(245.808369, 57.148188)" fill="#1A64B7">
                            <path d="M23.6206889,11.8347456 C23.8391803,12.0063494 23.9395682,12.2252922 23.9218527,12.4797392 C23.9041372,12.746021 23.7210769,13.0773939 23.3962924,13.5093621 L15.8199564,23.3617878 L12.0583617,20.4622752 L16.6348702,14.491646 C16.9478443,14.0892646 17.2490081,13.8170655 17.5324564,13.6809659 C17.8159046,13.538949 18.1938357,13.6513791 18.6485339,14.0123388 L19.0796115,13.4679405 L14.331853,9.80508674 L13.9125858,10.3554024 C14.3790944,10.7104448 14.5975858,11.0536524 14.5621547,11.3850253 C14.5149134,11.7045634 14.3377582,12.0773579 14.0247841,12.4856566 L9.43646523,18.444451 L5.24969812,15.2135655 L13.062241,5.047519 C13.2984479,4.73981562 13.5523703,4.54454231 13.8476289,4.46169909 C14.1369823,4.3729385 14.4027151,4.43211223 14.6507323,4.61555079 L15.0699995,4.06523512 L10.9127583,0.858019057 L10.4816807,1.40241735 C10.7887497,1.63911227 10.8891376,1.86988981 10.7828445,2.0888326 C10.6765514,2.31961014 10.5112066,2.57997454 10.2690945,2.88767793 L-0.631853429,17.0657032 L-0.0826724113,17.491754 C0.0236206889,17.3556544 0.165344823,17.2550591 0.34249999,17.2195549 C0.513749985,17.1722159 0.708620668,17.2254722 0.885775836,17.3615718 L14.6625427,28.0010081 C14.8574133,28.1430251 14.9518961,28.3087115 14.9518961,28.4862327 C14.9518961,28.6755886 14.9046547,28.8353577 14.7983616,28.983292 L15.3416375,29.3975081 L26.0063785,15.5212689 C26.3370682,15.0893007 26.6323268,14.8466884 26.8980595,14.7697625 C27.1637923,14.7046714 27.4059044,14.7579278 27.6243957,14.9295316 L28.0495681,14.3792159 L24.034051,11.2785126 L23.6206889,11.8347456" id="path3405"></path>
                        </g>
                    </g>
                </g>
            </g>
        </g>
    </g>
</svg>