<?xml version="1.0" encoding="utf-8"?>
<!-- Generator: Adobe Illustrator 14.0.0, SVG Export Plug-In . SVG Version: 6.00 Build 43363)  -->
<!DOCTYPE svg PUBLIC "-//W3C//DTD SVG 1.1//EN" "http://www.w3.org/Graphics/SVG/1.1/DTD/svg11.dtd">
<svg version="1.1" id="Layer_1" xmlns="http://www.w3.org/2000/svg" xmlns:xlink="http://www.w3.org/1999/xlink" x="0px" y="0px"
	 width="250px" height="217px" viewBox="0 0 250 217" enable-background="new 0 0 250 217" xml:space="preserve">
<g>
	<path display="none" fill="#FFFFFF" d="M50.188,7.069l-0.459,2.017L5.026,212.339l90.17,0.044c0,0,10.577-44.09,11.445-47.674
		c3.612,0.021,34.799,0.021,34.799,0.021c28.257,0.199,51.535-9.459,67.29-27.979c28.633-31.175,23.543-76.695,2.047-102.634
		c-15.468-18.665-37.706-28.951-62.61-29.009L50.625,5.047L50.188,7.069"/>
	<path fill="#BEC0C2" d="M206.805,37.397c-14.46-17.447-35.282-27.095-58.638-27.134l-93.398-0.058L11.427,207.183l79.737,0.044
		l11.434-47.662c10.715,0,38.876,0.021,38.843,0.021c26.708,0.188,48.625-8.862,63.373-26.177
		C231.61,104.245,226.908,61.641,206.805,37.397"/>
	<path display="none" fill="none" stroke="#002D62" stroke-width="0.1926" d="M206.805,37.397
		c-14.46-17.447-35.282-27.095-58.638-27.134l-93.398-0.058L11.427,207.183l79.737,0.044l11.434-47.662
		c10.715,0,38.876,0.021,38.843,0.021c26.708,0.188,48.625-8.862,63.373-26.177C231.61,104.245,226.908,61.641,206.805,37.397z"/>
	<path fill="#002D62" d="M98.521,154.375l-11.44,47.663l-69.21-0.044L58.94,15.389l89.216,0.058
		c22.205,0.055,41.234,9.05,54.666,25.264c19.771,23.87,21.718,63.55-1.947,89.334c-14.527,17.038-35.813,24.506-59.391,24.34
		L98.521,154.375"/>
	<g>
		<path fill="#FFC526" d="M49.741,56.867l39.105,0.017c4.492,0,9.277,3.772,7.202,9.481c-1.283,3.524-2.262,7.626-2.71,11.459
			c-0.365,3.004,2.982,4.896,4.907,4.896l79.685,0.055c1.505,0,2.29-0.423,2.29-1.148c0-0.703-0.066-3.344-0.354-5.203
			c-0.276-1.754-0.563-2.072-1.991-2.072c-9.924,0-13.974-4.426-24.396-11.149c-10.411-6.705-25.682-10.574-38.804-10.58
			l-63.976-0.042L49.741,56.867"/>
		<path fill="#FFC526" d="M98.023,108.466c-1.377-2.962-2.661-6.475-3.441-9.692c-0.979-4.146-4.481-7.501-10.466-7.507
			l-41.932-0.033l1.034-4.702l135.927,0.091c1.35,0,1.063,0.573,0.984,2.077c-0.066,1.491-0.42,4.279-0.642,5.911
			c-0.199,1.64-1.56,1.25-2.854,1.278c-3.064,0.069-8.751,0.805-12.06,3.275c-5.631,4.243-17.646,11.67-24.406,13.832
			c-7.236,2.313-34.301,10.594-42.233-4.671"/>
		<path fill="#FFC526" d="M34.655,125.482l70.979,0.05c3.137,0,5.831,0.741,7.927,2.494c5.991,4.93,13.769,8.53,22.014,10.915
			c3.718,1.073,10.079-0.31,15.788-3.535c14.206-8.032,23.334-23.319,26.343-33.155c0.786-2.578-0.719-2.362-2.71-2.213
			c-5.975,0.417-12.271,5.839-20.546,11.108c-8.287,5.269-25.129,10.264-41.11,10.236l-77.773-0.033L34.655,125.482"/>
		<path fill="#FFC526" d="M138.773,30.43c1.007-0.188,4.603-0.409,6.595,0.379c13.476,5.319,26.243,19.356,31.575,34.276
			c1.029,2.863,1.284,4.702,0,4.843c-6.185,0.692-9.061-2.373-16.341-7.288c-7.258-4.918-13.963-8.284-23.168-11.21
			c-9.08-2.89-25.615-3.308-27.75-3.377c-2.135-0.069-1.864-0.968-0.935-1.892C116.671,38.247,127.314,32.513,138.773,30.43"/>
		<path fill="#FFC526" d="M203.464,81.57c0.044,0.583-0.564,1.223-1.272,1.223c-0.077,0-15.556-0.011-15.556-0.011
			c-1.991,0-2.036-0.929-2.091-2.077c-0.078-1.14-0.398-3.416-0.476-4.777c-0.066-1.314-0.543-2.821,1.205-3.557
			c4.338-1.842,8.431-6.071,10.301-9.692c0.62-1.236,1.549-3.252,2.622-1.535C201.882,67.029,203.021,74.284,203.464,81.57"/>
		<path fill="#FFC526" d="M197.91,109.515c-0.266,0.53-1.262,0.912-1.594,0.055c-2.268-6.077-7.645-10.234-11.362-12.319
			c-1.129-0.623-1.217-1.344-1.073-2.454c0.155-1.114,0.619-4.638,0.675-6.129c0.066-1.179,0.542-2.039,1.438-2.039h16.197
			c0.564,0.005,1.272,0.525,1.272,0.962C203.464,95.311,201.129,102.942,197.91,109.515"/>
		<path fill="#FFC526" d="M155.768,139.909c-1.14,0.166-3.618-0.216,0.299-2.506c11.771-6.849,22.261-22.913,25.06-32.126
			c1.063-3.513,1.184-3.692,2.533-3.319c1.793,0.531,4.636,2.974,6.815,5.969c2.169,2.987,3.12,8.837,1.859,10.513
			C183.858,129.791,170.428,137.769,155.768,139.909"/>
		<path fill="#FFC526" d="M185.718,67.229c-2.744,1.466-3.275,1.2-3.851-0.863c-5.122-17.945-20.202-31.228-26.376-35.155
			c-1.173-0.747-0.863-1.233-0.011-1.12c14.77,1.964,29.23,10.016,36.51,21.043C196.15,57.439,188.361,65.812,185.718,67.229"/>
	</g>
	<g>
		<path fill="#002D62" d="M123.603,174.854c-0.188,0.729-2.932,12.347-3.087,12.955c-0.559,0-6.417,0-7.296,0
			c0.221-0.929,2.932-12.357,3.07-12.955C116.854,174.854,122.717,174.854,123.603,174.854 M111.565,169.61l-8.851,37.263h5.98
			c0,0,3.125-13.21,3.281-13.819c0.614,0,9.542,0,9.542,0c2.307,0,4.06-1.394,4.602-3.64l3.801-16.009
			c0.089-0.365,0.127-0.687,0.127-1.019c0-0.642-0.177-1.217-0.531-1.659c-0.575-0.741-1.57-1.117-2.859-1.117H111.565z"/>
		<path fill="#002D62" d="M123.603,174.854c-0.188,0.729-2.932,12.347-3.087,12.955c-0.559,0-6.417,0-7.296,0
			c0.221-0.929,2.932-12.357,3.07-12.955C116.854,174.854,122.717,174.854,123.603,174.854z M111.565,169.61l-8.851,37.263h5.98
			c0,0,3.125-13.21,3.281-13.819c0.614,0,9.542,0,9.542,0c2.307,0,4.06-1.394,4.602-3.64l3.801-16.009
			c0.089-0.365,0.127-0.687,0.127-1.019c0-0.642-0.177-1.217-0.531-1.659c-0.575-0.741-1.57-1.117-2.859-1.117H111.565z"/>
		<path fill="#002D62" d="M143.288,193.651c-0.188,0.819-1.814,7.7-1.959,8.254c-0.553,0-5.72,0-6.594,0
			c0.199-0.808,1.848-7.7,1.97-8.254C137.27,193.651,142.414,193.651,143.288,193.651 M138.541,176.879
			c-2.278,0-3.772,1.173-4.304,3.407l-1.56,6.595h5.83c0,0,1.029-4.382,1.162-4.945c0.564,0,5.532,0,6.406,0
			c-0.211,0.852-1.449,6.063-1.582,6.615c-0.609,0-8.486,0-8.486,0c-2.578,0-4.271,1.428-4.901,4.149l-2.581,10.81
			c-0.065,0.276-0.099,0.563-0.099,0.829c0,0.609,0.182,1.206,0.559,1.671c0.559,0.708,1.493,1.096,2.63,1.096
			c0.022,0,0.155-0.012,0.155-0.012c2.091-0.144,6.693-0.497,8.485-0.686c-0.021,0.1-0.11,0.465-0.11,0.465h5.831l6.272-26.388
			c0.266-1.15,0.166-2.058-0.331-2.677c-0.487-0.598-1.306-0.93-2.424-0.93H138.541z"/>
		<path fill="#002D62" d="M143.288,193.651c-0.188,0.819-1.814,7.7-1.959,8.254c-0.553,0-5.72,0-6.594,0
			c0.199-0.808,1.848-7.7,1.97-8.254C137.27,193.651,142.414,193.651,143.288,193.651z M138.541,176.879
			c-2.278,0-3.772,1.173-4.304,3.407l-1.56,6.595h5.83c0,0,1.029-4.382,1.162-4.945c0.564,0,5.532,0,6.406,0
			c-0.211,0.852-1.449,6.063-1.582,6.615c-0.609,0-8.486,0-8.486,0c-2.578,0-4.271,1.428-4.901,4.149l-2.581,10.81
			c-0.065,0.276-0.099,0.563-0.099,0.829c0,0.609,0.182,1.206,0.559,1.671c0.559,0.708,1.493,1.096,2.63,1.096
			c0.022,0,0.155-0.012,0.155-0.012c2.091-0.144,6.693-0.497,8.485-0.686c-0.021,0.1-0.11,0.465-0.11,0.465h5.831l6.272-26.388
			c0.266-1.15,0.166-2.058-0.331-2.677c-0.487-0.598-1.306-0.93-2.424-0.93H138.541z"/>
		<path fill="#002D62" d="M162.981,176.879c-2.235,0-3.695,1.173-4.204,3.407l-5.466,22.991c-0.276,1.161-0.188,2.058,0.321,2.688
			c0.464,0.598,1.294,0.907,2.423,0.907h10.765c2.257,0,3.673-1.15,4.216-3.396l2.124-8.951h-5.742c0,0-1.594,6.716-1.726,7.291
			c-0.564,0-5.345,0-6.219,0c0.232-0.94,4.581-19.272,4.725-19.881c0.564,0,5.354,0,6.207,0c-0.199,0.874-1.162,4.879-1.162,4.879
			h5.742l1.516-6.329c0.277-1.194,0.178-2.068-0.31-2.722c-0.476-0.563-1.294-0.885-2.445-0.885H162.981"/>
		<path fill="#002D62" d="M162.981,176.879c-2.235,0-3.695,1.173-4.204,3.407l-5.466,22.991c-0.276,1.161-0.188,2.058,0.321,2.688
			c0.464,0.598,1.294,0.907,2.423,0.907h10.765c2.257,0,3.673-1.15,4.216-3.396l2.124-8.951h-5.742c0,0-1.594,6.716-1.726,7.291
			c-0.564,0-5.345,0-6.219,0c0.232-0.94,4.581-19.272,4.725-19.881c0.564,0,5.354,0,6.207,0c-0.199,0.874-1.162,4.879-1.162,4.879
			h5.742l1.516-6.329c0.277-1.194,0.178-2.068-0.31-2.722c-0.476-0.563-1.294-0.885-2.445-0.885H162.981z"/>
		<path fill="#002D62" d="M194.037,181.936c-0.177,0.774-1.46,6.129-1.582,6.66c-0.553,0-5.311,0-6.174,0
			c0.188-0.764,1.472-6.118,1.594-6.66C188.428,181.936,193.175,181.936,194.037,181.936 M186.646,176.879
			c-2.224,0-3.684,1.173-4.215,3.407l-5.455,22.991c-0.276,1.161-0.177,2.058,0.321,2.688c0.465,0.598,1.283,0.907,2.423,0.907
			h10.82c1.084,0.011,2.003-0.255,2.722-0.83c0.72-0.564,1.206-1.416,1.482-2.566l2.003-8.397h-5.831c0,0-1.471,6.162-1.615,6.737
			c-0.553,0-5.288,0-6.151,0c0.21-0.885,1.848-7.789,1.98-8.353c0.62,0,10.621,0,10.621,0l1.693-1.361l2.766-11.617
			c0.11-0.42,0.133-0.818,0.133-1.161c0-0.62-0.133-1.129-0.453-1.549c-0.487-0.575-1.295-0.896-2.435-0.896H186.646z"/>
		<path fill="#002D62" d="M194.037,181.936c-0.177,0.774-1.46,6.129-1.582,6.66c-0.553,0-5.311,0-6.174,0
			c0.188-0.764,1.472-6.118,1.594-6.66C188.428,181.936,193.175,181.936,194.037,181.936z M186.646,176.879
			c-2.224,0-3.684,1.173-4.215,3.407l-5.455,22.991c-0.276,1.161-0.177,2.058,0.321,2.688c0.465,0.598,1.283,0.907,2.423,0.907
			h10.82c1.084,0.011,2.003-0.255,2.722-0.83c0.72-0.564,1.206-1.416,1.482-2.566l2.003-8.397h-5.831c0,0-1.471,6.162-1.615,6.737
			c-0.553,0-5.288,0-6.151,0c0.21-0.885,1.848-7.789,1.98-8.353c0.62,0,10.621,0,10.621,0l1.693-1.361l2.766-11.617
			c0.11-0.42,0.133-0.818,0.133-1.161c0-0.62-0.133-1.129-0.453-1.549c-0.487-0.575-1.295-0.896-2.435-0.896H186.646z"/>
		<path fill="#002D62" d="M220.712,176.624c-2.346,0.266-6.118,0.72-7.744,0.963c0.021-0.066,0.177-0.697,0.177-0.697l-5.831-0.011
			l-7.125,29.994h5.82c0,0,5.687-23.887,5.83-24.507c0.554,0,4.935,0,5.798,0c-0.222,0.874-0.963,4.448-0.963,4.448h5.875
			l1.46-6.562c0.266-1.15,0.145-2.035-0.331-2.666c-0.521-0.664-1.438-0.984-2.744-0.984
			C220.878,176.613,220.712,176.624,220.712,176.624"/>
		<path fill="#002D62" d="M220.712,176.624c-2.346,0.266-6.118,0.72-7.744,0.963c0.021-0.066,0.177-0.697,0.177-0.697l-5.831-0.011
			l-7.125,29.994h5.82c0,0,5.687-23.887,5.83-24.507c0.554,0,4.935,0,5.798,0c-0.222,0.874-0.963,4.448-0.963,4.448h5.875
			l1.46-6.562c0.266-1.15,0.145-2.035-0.331-2.666c-0.521-0.664-1.438-0.984-2.744-0.984
			C220.878,176.613,220.712,176.624,220.712,176.624z"/>
		<path fill="#002D62" d="M231.322,176.879c-1.161,0-3.22,0.442-3.916,3.407l-1.704,7.147c-0.066,0.266-0.155,0.708-0.155,1.162
			c0,0.52,0.122,1.04,0.454,1.438c0.021,0.011,0.021,0.044,0.033,0.077c0.021,0.011,0.021,0.011,0.021,0.022v-0.012
			c0.056,0.045,0.133,0.111,0.299,0.222c6.672,4.547,8.431,5.83,8.896,6.195c-0.1,0.442-1.206,5.078-1.25,5.277
			c-0.554,0-4.912,0-5.753,0c0.221-0.885,1.582-6.594,1.582-6.594h-5.842l-1.903,8.055c-0.299,1.184-0.177,2.113,0.321,2.732
			c0.453,0.564,1.173,0.863,2.146,0.863h10.941c2.059,0,3.396-1.184,3.928-3.396l1.87-7.855c0.044-0.21,0.144-0.62,0.144-1.084
			c0-0.642-0.154-1.417-0.797-2.08l-0.033-0.033l-0.055-0.033c-3.087-2.003-7.955-5.223-8.807-5.875
			c0.11-0.442,1.007-4.204,1.095-4.58c0.542,0,5.023,0,5.875,0c-0.199,0.874-1.14,4.956-1.14,4.956h5.831l1.472-6.406
			c0.287-1.14,0.154-2.068-0.332-2.722c-0.321-0.398-0.963-0.885-2.213-0.885H231.322"/>
		<path fill="#002D62" d="M231.322,176.879c-1.161,0-3.22,0.442-3.916,3.407l-1.704,7.147c-0.066,0.266-0.155,0.708-0.155,1.162
			c0,0.52,0.122,1.04,0.454,1.438c0.021,0.011,0.021,0.044,0.033,0.077c0.021,0.011,0.021,0.011,0.021,0.022v-0.012
			c0.056,0.045,0.133,0.111,0.299,0.222c6.672,4.547,8.431,5.83,8.896,6.195c-0.1,0.442-1.206,5.078-1.25,5.277
			c-0.554,0-4.912,0-5.753,0c0.221-0.885,1.582-6.594,1.582-6.594h-5.842l-1.903,8.055c-0.299,1.184-0.177,2.113,0.321,2.732
			c0.453,0.564,1.173,0.863,2.146,0.863h10.941c2.059,0,3.396-1.184,3.928-3.396l1.87-7.855c0.044-0.21,0.144-0.62,0.144-1.084
			c0-0.642-0.154-1.417-0.797-2.08l-0.033-0.033l-0.055-0.033c-3.087-2.003-7.955-5.223-8.807-5.875
			c0.11-0.442,1.007-4.204,1.095-4.58c0.542,0,5.023,0,5.875,0c-0.199,0.874-1.14,4.956-1.14,4.956h5.831l1.472-6.406
			c0.287-1.14,0.154-2.068-0.332-2.722c-0.321-0.398-0.963-0.885-2.213-0.885H231.322z"/>
	</g>
</g>
</svg>
