<?xml version="1.0" encoding="UTF-8" standalone="no"?>
<svg width="512px" height="512px" viewBox="0 0 512 512" version="1.1" xmlns="http://www.w3.org/2000/svg" xmlns:xlink="http://www.w3.org/1999/xlink" xmlns:sketch="http://www.bohemiancoding.com/sketch/ns">
    <!-- Generator: Sketch 3.2.2 (9983) - http://www.bohemiancoding.com/sketch -->
    <title>indiana-pacers</title>
    <desc>Created with Sketch.</desc>
    <defs></defs>
    <g id="NBA" stroke="none" stroke-width="1" fill="none" fill-rule="evenodd" sketch:type="MSPage">
        <g id="indiana-pacers" sketch:type="MSArtboardGroup">
            <g id="svg" sketch:type="MSLayerGroup" transform="translate(114.000000, 134.000000)">
                <g id="Group" sketch:type="MSShapeGroup">
                    <path d="M238.802583,38.3442754 C221.691583,17.6944444 197.052217,6.27531401 169.414283,6.22915459 L58.8933167,6.16050725 L7.60528333,239.29872 L101.960733,239.350797 L115.490967,182.939251 C128.170383,182.939251 161.494233,182.964106 161.455183,182.964106 C193.05965,183.186618 218.994767,172.475266 236.446567,151.981667 C268.155167,117.463889 262.591133,67.0388647 238.802583,38.3442754" id="Shape" fill="#BEC0C2"></path>
                    <path d="M110.666517,176.796498 L97.1291833,233.209227 L15.2306833,233.15715 L63.829,12.2961594 L169.401267,12.3648068 C195.677183,12.4299034 218.194833,23.0761594 234.089367,42.2666425 C257.48505,70.5185749 259.789,117.482826 231.785417,148.000121 C214.595133,168.16587 189.4067,177.004807 161.506067,176.808333 L110.666517,176.796498" id="Shape" fill="#002D62"></path>
                    <g transform="translate(35.500000, 29.589372)" id="Shape" fill="#FFC526">
                        <path d="M17.4435167,31.7991063 L63.7177667,31.8192271 C69.0333,31.8192271 74.69555,36.2836715 72.2401333,43.0407005 C70.7219167,47.2116184 69.5634333,52.0666425 69.0333,56.603285 C68.6013833,60.158744 72.562,62.3980676 74.8399167,62.3980676 L169.133833,62.4631643 C170.91475,62.4631643 171.843667,61.9625121 171.843667,61.1044203 C171.843667,60.2723671 171.765567,57.1465459 171.424767,54.9462802 C171.098167,52.8702899 170.75855,52.493913 169.06875,52.493913 C157.32535,52.493913 152.53285,47.2554106 140.20015,39.2982367 C127.880467,31.3623671 109.809783,26.7831159 94.2820833,26.7760145 L18.57715,26.7263043 L17.4435167,31.7991063"></path>
                        <path d="M74.5772167,92.8703865 C72.9477667,89.3646377 71.4283667,85.2067391 70.5053667,81.3991787 C69.3468833,76.4920773 65.20285,72.5211836 58.1206,72.5140821 L8.50106667,72.4750242 L9.72463333,66.9098551 L170.571583,67.0175604 C172.169083,67.0175604 171.829467,67.6957488 171.735983,69.4758454 C171.657883,71.2405556 171.238983,74.5403623 170.976283,76.4719565 C170.7408,78.4130193 169.130283,77.9514251 167.59905,77.9845652 C163.973317,78.0662319 157.2437,78.937343 153.32805,81.8607729 C146.6647,86.8826812 132.44695,95.6730918 124.447617,98.2319807 C115.885017,100.969589 83.8581,110.770773 74.4719,92.7035024"></path>
                        <path d="M-0.40825,113.010097 L83.5835667,113.069275 C87.2956833,113.069275 90.4835833,113.946304 92.96385,116.021111 C100.0532,121.856135 109.257167,126.117005 119.01375,128.939831 C123.413383,130.209807 130.940567,128.572923 137.696217,124.755894 C154.50665,115.24942 165.308117,97.1561111 168.868767,85.5144686 C169.798867,82.4632126 168.01795,82.7188647 165.661933,82.8952174 C158.591517,83.3887681 151.14125,89.8061111 141.349167,96.0423671 C131.542883,102.278623 111.613183,108.19058 92.7023333,108.15744 L0.67095,108.118382 L-0.40825,113.010097"></path>
                        <path d="M122.79805,0.508937198 C123.989667,0.286425121 128.244933,0.0248550725 130.602133,0.957512077 C146.548733,7.25294686 161.65635,23.8667874 167.965883,41.5257246 C169.183533,44.9142995 169.485283,47.0908937 167.965883,47.2577778 C160.646967,48.0768116 157.2437,44.4491546 148.629033,38.6318841 C140.0404,32.8110628 132.10615,28.8271498 121.213567,25.3640097 C110.4689,21.9434783 90.9024833,21.448744 88.3760667,21.3670773 C85.84965,21.2854106 86.1703333,20.2213768 87.26965,19.1277536 C96.6440167,9.76094203 109.238233,2.97432367 122.79805,0.508937198"></path>
                        <path d="M199.349067,61.0369565 C199.401133,61.7269807 198.681667,62.4844686 197.843867,62.4844686 C197.75275,62.4844686 179.435933,62.4714493 179.435933,62.4714493 C177.079917,62.4714493 177.026667,61.3719082 176.961583,60.0131643 C176.869283,58.6638889 176.490617,55.9700725 176.398317,54.3592271 C176.320217,52.8040097 175.755767,51.0203623 177.824233,50.1492512 C182.957533,47.9691063 187.800917,42.9637681 190.01375,38.6780435 C190.747417,37.2151449 191.846733,34.829058 193.11645,36.861256 C197.477033,43.8265942 198.82485,52.41343 199.349067,61.0369565"></path>
                        <path d="M192.776833,94.1119565 C192.462067,94.7392512 191.283467,95.1913768 190.8906,94.1770531 C188.2068,86.9844686 181.844017,82.0643478 177.445567,79.5965942 C176.109583,78.8592271 176.00545,78.0058696 176.17585,76.6921014 C176.359267,75.373599 176.908333,71.2026812 176.9746,69.437971 C177.0527,68.0425362 177.615967,67.0246618 178.676233,67.0246618 L197.842683,67.0246618 C198.510083,67.0305797 199.347883,67.6460386 199.347883,68.1632609 C199.349067,77.3004589 196.585983,86.3323188 192.776833,94.1119565"></path>
                        <path d="M142.9088,130.085531 C141.5598,130.282005 138.6275,129.829879 143.262617,127.119493 C157.191633,119.013188 169.6048,100.000242 172.91695,89.0959662 C174.174833,84.9380676 174.318017,84.7262077 175.914333,85.1676812 C178.03605,85.7961594 181.400267,88.6876329 183.97875,92.2324396 C186.5454,95.7677778 187.67075,102.691691 186.178567,104.675362 C176.148633,118.110121 160.256467,127.552681 142.9088,130.085531"></path>
                        <path d="M178.349633,44.0633092 C175.102567,45.79843 174.474217,45.483599 173.792617,43.0418841 C167.731583,21.8026329 149.886917,6.08120773 142.581017,1.43330918 C141.192967,0.549178744 141.5598,-0.0260386473 142.568,0.107705314 C160.045833,2.43224638 177.156833,11.9623913 185.7715,25.0136715 C190.694167,32.4761111 181.477183,42.3861836 178.349633,44.0633092"></path>
                    </g>
                    <g transform="translate(115.966667, 195.289855)" id="Shape" fill="#002D62">
                        <path d="M24.3802167,5.74507246 C24.15775,6.60789855 20.9106833,20.3586715 20.7272667,21.078285 L12.0936667,21.078285 C12.3551833,19.978744 15.5632,6.45285024 15.7265,5.74507246 L24.3802167,5.74507246 L24.3802167,5.74507246 Z M10.13525,-0.461594203 L-0.338433333,43.6419565 L6.7379,43.6419565 C6.7379,43.6419565 10.4358167,28.0069324 10.6204167,27.2861353 L21.9117833,27.2861353 C24.6417333,27.2861353 26.7161167,25.6362319 27.3574833,22.9779227 L31.8553333,4.03007246 C31.96065,3.59806763 32.0056167,3.21695652 32.0056167,2.82400966 C32.0056167,2.06415459 31.7961667,1.38359903 31.3772667,0.860458937 C30.69685,-0.0165700483 29.5194333,-0.461594203 27.9941167,-0.461594203 L10.13525,-0.461594203 L10.13525,-0.461594203 Z"></path>
                        <path d="M24.3802167,5.74507246 C24.15775,6.60789855 20.9106833,20.3586715 20.7272667,21.078285 L12.0936667,21.078285 C12.3551833,19.978744 15.5632,6.45285024 15.7265,5.74507246 L24.3802167,5.74507246 L24.3802167,5.74507246 Z M10.13525,-0.461594203 L-0.338433333,43.6419565 L6.7379,43.6419565 C6.7379,43.6419565 10.4358167,28.0069324 10.6204167,27.2861353 L21.9117833,27.2861353 C24.6417333,27.2861353 26.7161167,25.6362319 27.3574833,22.9779227 L31.8553333,4.03007246 C31.96065,3.59806763 32.0056167,3.21695652 32.0056167,2.82400966 C32.0056167,2.06415459 31.7961667,1.38359903 31.3772667,0.860458937 C30.69685,-0.0165700483 29.5194333,-0.461594203 27.9941167,-0.461594203 L10.13525,-0.461594203 L10.13525,-0.461594203 Z"></path>
                        <path d="M47.6741333,27.9927295 C47.4516667,28.9620773 45.5275667,37.106256 45.3559833,37.7619565 L37.5530833,37.7619565 C37.7885667,36.805628 39.7398833,28.64843 39.88425,27.9927295 L47.6741333,27.9927295 L47.6741333,27.9927295 Z M42.05685,8.14181159 C39.3612167,8.14181159 37.5933167,9.53014493 36.9637833,12.1742512 L35.1177833,19.9799275 L42.0166167,19.9799275 C42.0166167,19.9799275 43.2342667,14.7935024 43.39165,14.1271498 L50.9720833,14.1271498 C50.7224,15.1355556 49.2574333,21.3031643 49.10005,21.9564976 L39.0582833,21.9564976 C36.00765,21.9564976 34.0042667,23.6466425 33.2587667,26.8671498 L30.2045833,39.6615942 C30.1276667,39.9882609 30.0874333,40.3279469 30.0874333,40.6427778 C30.0874333,41.3635749 30.3028,42.0701691 30.7489167,42.6205314 C31.4104,43.4585024 32.5156333,43.9177295 33.8610833,43.9177295 C33.8871167,43.9177295 34.0445,43.9035266 34.0445,43.9035266 C36.51885,43.7330918 41.96455,43.3152899 44.0850833,43.0915942 C44.0602333,43.2099517 43.9549167,43.6419565 43.9549167,43.6419565 L50.8549333,43.6419565 L58.2768,12.4097826 C58.5915667,11.0486715 58.4732333,9.97398551 57.8851167,9.24135266 C57.3088333,8.53357488 56.3396833,8.14062802 55.0167167,8.14062802 L42.05685,8.14062802 L42.05685,8.14181159 Z"></path>
                        <path d="M47.6741333,27.9927295 C47.4516667,28.9620773 45.5275667,37.106256 45.3559833,37.7619565 L37.5530833,37.7619565 C37.7885667,36.805628 39.7398833,28.64843 39.88425,27.9927295 L47.6741333,27.9927295 L47.6741333,27.9927295 Z M42.05685,8.14181159 C39.3612167,8.14181159 37.5933167,9.53014493 36.9637833,12.1742512 L35.1177833,19.9799275 L42.0166167,19.9799275 C42.0166167,19.9799275 43.2342667,14.7935024 43.39165,14.1271498 L50.9720833,14.1271498 C50.7224,15.1355556 49.2574333,21.3031643 49.10005,21.9564976 L39.0582833,21.9564976 C36.00765,21.9564976 34.0042667,23.6466425 33.2587667,26.8671498 L30.2045833,39.6615942 C30.1276667,39.9882609 30.0874333,40.3279469 30.0874333,40.6427778 C30.0874333,41.3635749 30.3028,42.0701691 30.7489167,42.6205314 C31.4104,43.4585024 32.5156333,43.9177295 33.8610833,43.9177295 C33.8871167,43.9177295 34.0445,43.9035266 34.0445,43.9035266 C36.51885,43.7330918 41.96455,43.3152899 44.0850833,43.0915942 C44.0602333,43.2099517 43.9549167,43.6419565 43.9549167,43.6419565 L50.8549333,43.6419565 L58.2768,12.4097826 C58.5915667,11.0486715 58.4732333,9.97398551 57.8851167,9.24135266 C57.3088333,8.53357488 56.3396833,8.14062802 55.0167167,8.14062802 L42.05685,8.14062802 L42.05685,8.14181159 Z"></path>
                        <path d="M70.9775167,8.14181159 C68.3327667,8.14181159 66.6051,9.53014493 66.0027833,12.1742512 L59.5346833,39.3858213 C59.2080833,40.7599517 59.3122167,41.8216184 59.9145333,42.5672705 C60.4636,43.2750483 61.4457667,43.6407729 62.78175,43.6407729 L75.5203333,43.6407729 C78.1911167,43.6407729 79.8667167,42.2796618 80.5092667,39.6213527 L83.0226667,29.0271739 L76.2279667,29.0271739 C76.2279667,29.0271739 74.3417333,36.9760628 74.1855333,37.6566184 L66.8263833,37.6566184 C67.1009167,36.544058 72.2472333,14.8467633 72.4176333,14.1259662 L79.7625833,14.1259662 C79.5271,15.1604106 78.38755,19.900628 78.38755,19.900628 L85.18225,19.900628 L86.9761833,12.4097826 C87.3039667,10.9965942 87.1868167,9.96214976 86.60935,9.18809179 C86.0460833,8.52173913 85.0781167,8.14062802 83.7161,8.14062802 L70.9775167,8.14062802"></path>
                        <path d="M70.9775167,8.14181159 C68.3327667,8.14181159 66.6051,9.53014493 66.0027833,12.1742512 L59.5346833,39.3858213 C59.2080833,40.7599517 59.3122167,41.8216184 59.9145333,42.5672705 C60.4636,43.2750483 61.4457667,43.6407729 62.78175,43.6407729 L75.5203333,43.6407729 C78.1911167,43.6407729 79.8667167,42.2796618 80.5092667,39.6213527 L83.0226667,29.0271739 L76.2279667,29.0271739 C76.2279667,29.0271739 74.3417333,36.9760628 74.1855333,37.6566184 L66.8263833,37.6566184 C67.1009167,36.544058 72.2472333,14.8467633 72.4176333,14.1259662 L79.7625833,14.1259662 C79.5271,15.1604106 78.38755,19.900628 78.38755,19.900628 L85.18225,19.900628 L86.9761833,12.4097826 C87.3039667,10.9965942 87.1868167,9.96214976 86.60935,9.18809179 C86.0460833,8.52173913 85.0781167,8.14062802 83.7161,8.14062802 L70.9775167,8.14062802 L70.9775167,8.14181159 Z"></path>
                        <path d="M107.727117,14.1271498 C107.517667,15.0432367 105.99945,21.3812802 105.855083,22.0097585 L98.5491833,22.0097585 C98.77165,21.1055072 100.29105,14.7686473 100.435417,14.1271498 L107.727117,14.1271498 L107.727117,14.1271498 Z M98.9811,8.14181159 C96.3493667,8.14181159 94.6217,9.53014493 93.99335,12.1742512 L87.5382667,39.3858213 C87.2116667,40.7599517 87.3288167,41.8216184 87.9181167,42.5672705 C88.4683667,43.2750483 89.4363333,43.6407729 90.7853333,43.6407729 L103.589,43.6407729 C104.871733,43.6537923 105.959217,43.3389614 106.810033,42.6584058 C107.662033,41.9908696 108.237133,40.9824638 108.563733,39.6213527 L110.93395,29.6828744 L104.033933,29.6828744 C104.033933,29.6828744 102.29325,36.9760628 102.12285,37.6566184 L94.8441667,37.6566184 C95.0926667,36.6091546 97.0309667,28.4377536 97.1871667,27.7702174 L109.75535,27.7702174 L111.758733,26.159372 L115.031833,12.4097826 C115.162,11.9126812 115.189217,11.4416184 115.189217,11.0356522 C115.189217,10.3018357 115.031833,9.69939614 114.653167,9.20229469 C114.076883,8.52173913 113.12075,8.14181159 111.77175,8.14181159 L98.9811,8.14181159 L98.9811,8.14181159 Z"></path>
                        <path d="M107.727117,14.1271498 C107.517667,15.0432367 105.99945,21.3812802 105.855083,22.0097585 L98.5491833,22.0097585 C98.77165,21.1055072 100.29105,14.7686473 100.435417,14.1271498 L107.727117,14.1271498 L107.727117,14.1271498 Z M98.9811,8.14181159 C96.3493667,8.14181159 94.6217,9.53014493 93.99335,12.1742512 L87.5382667,39.3858213 C87.2116667,40.7599517 87.3288167,41.8216184 87.9181167,42.5672705 C88.4683667,43.2750483 89.4363333,43.6407729 90.7853333,43.6407729 L103.589,43.6407729 C104.871733,43.6537923 105.959217,43.3389614 106.810033,42.6584058 C107.662033,41.9908696 108.237133,40.9824638 108.563733,39.6213527 L110.93395,29.6828744 L104.033933,29.6828744 C104.033933,29.6828744 102.29325,36.9760628 102.12285,37.6566184 L94.8441667,37.6566184 C95.0926667,36.6091546 97.0309667,28.4377536 97.1871667,27.7702174 L109.75535,27.7702174 L111.758733,26.159372 L115.031833,12.4097826 C115.162,11.9126812 115.189217,11.4416184 115.189217,11.0356522 C115.189217,10.3018357 115.031833,9.69939614 114.653167,9.20229469 C114.076883,8.52173913 113.12075,8.14181159 111.77175,8.14181159 L98.9811,8.14181159 L98.9811,8.14181159 Z"></path>
                        <path d="M139.292533,7.84 C136.516433,8.15483092 132.0529,8.69217391 130.1288,8.97978261 C130.15365,8.90166667 130.33825,8.15483092 130.33825,8.15483092 L123.438233,8.14181159 L115.006983,43.6419565 L121.893983,43.6419565 C121.893983,43.6419565 128.6236,15.3699034 128.792817,14.636087 L135.653783,14.636087 C135.391083,15.6705314 134.514233,19.900628 134.514233,19.900628 L141.466317,19.900628 L143.193983,12.1340097 C143.50875,10.7728986 143.365567,9.72543478 142.8023,8.97859903 C142.185783,8.19270531 141.100667,7.81396135 139.555233,7.81396135 C139.488967,7.82698068 139.292533,7.84 139.292533,7.84"></path>
                        <path d="M139.292533,7.84 C136.516433,8.15483092 132.0529,8.69217391 130.1288,8.97978261 C130.15365,8.90166667 130.33825,8.15483092 130.33825,8.15483092 L123.438233,8.14181159 L115.006983,43.6419565 L121.893983,43.6419565 C121.893983,43.6419565 128.6236,15.3699034 128.792817,14.636087 L135.653783,14.636087 C135.391083,15.6705314 134.514233,19.900628 134.514233,19.900628 L141.466317,19.900628 L143.193983,12.1340097 C143.50875,10.7728986 143.365567,9.72543478 142.8023,8.97859903 C142.185783,8.19270531 141.100667,7.81396135 139.555233,7.81396135 C139.488967,7.82698068 139.292533,7.84 139.292533,7.84 L139.292533,7.84 Z"></path>
                        <path d="M151.8477,8.14181159 C150.47385,8.14181159 148.037367,8.66495169 147.213767,12.1742512 L145.197367,20.6332609 C145.119267,20.9480918 145.01395,21.4712319 145.01395,22.0085749 C145.01395,22.6240338 145.158317,23.2394928 145.551183,23.7105556 C145.576033,23.7235749 145.576033,23.7626329 145.590233,23.8016908 C145.615083,23.8147101 145.615083,23.8147101 145.615083,23.8277295 L145.615083,23.8135266 C145.68135,23.8667874 145.772467,23.9449034 145.9689,24.0762802 C153.8641,29.4579952 155.945583,30.9765217 156.495833,31.4085266 C156.3775,31.9316667 155.068733,37.4187198 155.016667,37.6542512 L148.20895,37.6542512 C148.470467,36.6067874 150.080983,29.8497585 150.080983,29.8497585 L143.16795,29.8497585 L140.916067,39.3834541 C140.56225,40.7848068 140.706617,41.8843478 141.295917,42.6169807 C141.831967,43.2845169 142.683967,43.6384058 143.83535,43.6384058 L156.7822,43.6384058 C159.218683,43.6384058 160.8008,42.2370531 161.430333,39.6189855 L163.643167,30.3220048 C163.695233,30.0734541 163.813567,29.5881884 163.813567,29.0390097 C163.813567,28.2791546 163.631333,27.3618841 162.87045,26.5771739 L162.8314,26.5381159 L162.766317,26.499058 C159.113367,24.1283575 153.3529,20.3172464 152.3447,19.5455556 C152.474867,19.0224155 153.536317,14.5698068 153.64045,14.1247826 L160.592533,14.1247826 C160.35705,15.1592271 159.243533,19.9905797 159.243533,19.9905797 L166.14355,19.9905797 L167.885417,12.408599 C168.225033,11.0593237 168.06765,9.96096618 167.49255,9.18690821 C167.1127,8.71584541 166.353,8.13944444 164.873833,8.13944444 L151.8477,8.13944444"></path>
                        <path d="M151.8477,8.14181159 C150.47385,8.14181159 148.037367,8.66495169 147.213767,12.1742512 L145.197367,20.6332609 C145.119267,20.9480918 145.01395,21.4712319 145.01395,22.0085749 C145.01395,22.6240338 145.158317,23.2394928 145.551183,23.7105556 C145.576033,23.7235749 145.576033,23.7626329 145.590233,23.8016908 C145.615083,23.8147101 145.615083,23.8147101 145.615083,23.8277295 L145.615083,23.8135266 C145.68135,23.8667874 145.772467,23.9449034 145.9689,24.0762802 C153.8641,29.4579952 155.945583,30.9765217 156.495833,31.4085266 C156.3775,31.9316667 155.068733,37.4187198 155.016667,37.6542512 L148.20895,37.6542512 C148.470467,36.6067874 150.080983,29.8497585 150.080983,29.8497585 L143.16795,29.8497585 L140.916067,39.3834541 C140.56225,40.7848068 140.706617,41.8843478 141.295917,42.6169807 C141.831967,43.2845169 142.683967,43.6384058 143.83535,43.6384058 L156.7822,43.6384058 C159.218683,43.6384058 160.8008,42.2370531 161.430333,39.6189855 L163.643167,30.3220048 C163.695233,30.0734541 163.813567,29.5881884 163.813567,29.0390097 C163.813567,28.2791546 163.631333,27.3618841 162.87045,26.5771739 L162.8314,26.5381159 L162.766317,26.499058 C159.113367,24.1283575 153.3529,20.3172464 152.3447,19.5455556 C152.474867,19.0224155 153.536317,14.5698068 153.64045,14.1247826 L160.592533,14.1247826 C160.35705,15.1592271 159.243533,19.9905797 159.243533,19.9905797 L166.14355,19.9905797 L167.885417,12.408599 C168.225033,11.0593237 168.06765,9.96096618 167.49255,9.18690821 C167.1127,8.71584541 166.353,8.13944444 164.873833,8.13944444 L151.8477,8.13944444 L151.8477,8.14181159 Z"></path>
                    </g>
                </g>
            </g>
        </g>
    </g>
</svg>