<?xml version="1.0" encoding="UTF-8" standalone="no"?>
<!-- Generator: Adobe Illustrator 13.0.0, SVG Export Plug-In . SVG Version: 6.00 Build 14948)  -->

<svg
   xmlns:dc="http://purl.org/dc/elements/1.1/"
   xmlns:cc="http://creativecommons.org/ns#"
   xmlns:rdf="http://www.w3.org/1999/02/22-rdf-syntax-ns#"
   xmlns:svg="http://www.w3.org/2000/svg"
   xmlns="http://www.w3.org/2000/svg"
   xmlns:xlink="http://www.w3.org/1999/xlink"
   xmlns:sodipodi="http://sodipodi.sourceforge.net/DTD/sodipodi-0.dtd"
   xmlns:inkscape="http://www.inkscape.org/namespaces/inkscape"
   version="1.1"
   id="Layer_1"
   x="0px"
   y="0px"
   width="360"
   height="230"
   viewBox="0 0 360 230"
   enable-background="new 0 0 300 200"
   xml:space="preserve"
   inkscape:version="0.48.1 "
   sodipodi:docname="LosAngeles_Lakers_logo.svg"><metadata
   id="metadata3121"><rdf:RDF><cc:Work
       rdf:about=""><dc:format>image/svg+xml</dc:format><dc:type
         rdf:resource="http://purl.org/dc/dcmitype/StillImage" /></cc:Work></rdf:RDF></metadata><defs
   id="defs3119" /><sodipodi:namedview
   pagecolor="#ffffff"
   bordercolor="#666666"
   borderopacity="1"
   objecttolerance="10"
   gridtolerance="10"
   guidetolerance="10"
   inkscape:pageopacity="0"
   inkscape:pageshadow="2"
   inkscape:window-width="1366"
   inkscape:window-height="706"
   id="namedview3117"
   showgrid="false"
   inkscape:zoom="1.455"
   inkscape:cx="150"
   inkscape:cy="100"
   inkscape:window-x="-8"
   inkscape:window-y="-8"
   inkscape:window-maximized="1"
   inkscape:current-layer="Layer_1" />















<g
   id="g3123"
   transform="matrix(1.1605805,0,0,1.1605805,5.3482036,-0.704871)"><path
     id="path3055"
     d="m 142.341,189.061 c 48.536,0 87.881,-39.938 87.881,-89.208 0,-49.262 -39.345,-89.205 -87.881,-89.205 -48.525,0 -87.87,39.942 -87.87,89.205 0,49.269 39.345,89.208 87.87,89.208"
     inkscape:connector-curvature="0"
     style="fill:#fdb827" /><path
     id="path3057"
     d="m 182.4,108.981 c -8.207,9.959 -12.863,13.368 -21.201,13.368 -2.838,0 -4.316,-0.639 -3.518,-2.013 l 9.888,-19.889 h 3.771 c 4.212,0 3.629,3.549 2.483,8.351 -0.202,0.672 0.306,0.709 0.806,0.127 l 9.402,-16.523 c 0.46,-1.043 -0.728,-1.245 -1.307,-0.458 -4.709,6.393 -9.667,5.918 -11.755,5.918 h -1.706 L 179.83,77.704 h 4.257 c 5.361,0.332 7.859,4.886 6.307,15.864 h 2.232 l 7.763,-15.306 c 0.628,-1.292 -0.694,-2.478 -2.158,-2.478 l -52.703,0.015 c -3.051,0 -3.189,2.343 -0.26,2.343 2.369,0 2.244,3.4 0.114,5.045 l -22.372,17.765 4.52,20.974 c 0.329,1.583 1.35,2.337 3.097,2.337 h 43.579 c 1.797,0 2.539,-0.731 3.118,-1.479 l 7.89,-13.629 c 1.093,-1.962 -1.44,-1.835 -2.814,-0.174 m -30.356,-9.577 -3.837,-0.022 c -0.265,0 -0.484,0.211 -0.484,0.481 0,0.267 0.219,0.485 0.484,0.485 l 3.889,-0.037 c 1.318,0 2.524,0.168 2.188,0.752 l -10.078,19.243 c -1.249,2.293 -3.9,1.707 -4.32,-0.127 L 134.895,94.39 152.446,80.782 c 1.74,-1.497 5.098,-3.938 6.812,-3.911 l 3.823,-0.022 c 2.326,-0.015 3.159,1.075 2.606,2.485 l -0.676,1.301 c -0.438,0.73 -1.812,0.818 -2.983,0.818 l -2.207,0.011 c -0.272,0 -0.489,0.214 -0.489,0.489 0,0.272 0.217,0.485 0.489,0.485 h 2.177 c 0.941,0 2.121,0.024 1.688,0.73 l -8.14,15.52 c -0.377,0.606 -2.068,0.716 -3.502,0.716"
     inkscape:connector-curvature="0"
     style="fill:#552582" /><path
     id="path3059"
     d="m 115.867,121.92 c -1.186,-0.041 -1.947,-0.848 -2.207,-1.632 -0.375,-1.12 -0.34,-3.11 0.11,-3.991 l 20.335,-36.056 c 0.329,-0.667 1.154,-2.057 2.164,-2.057 1.796,0.003 2.572,-2.36 -0.471,-2.36 h -16.286 c -3.043,0 -3.073,2.317 -0.157,2.317 1.189,0 1.663,1.167 1.324,1.878 l -4.496,8.155 c -0.563,0.894 -1.809,0.963 -3.122,0.963 l -3.879,-0.015 c -0.269,0 -0.485,0.222 -0.485,0.489 0,0.269 0.216,0.495 0.485,0.495 h 3.846 c 1.04,0 1.869,0.314 1.27,1.521 l -15.008,27.34 c -1.081,1.505 -3.234,1.841 -3.112,-1.042 l 5.337,-40.04 c 0.211,-1.251 -0.118,-2.099 -1.456,-2.099 l -8.045,0.015 c -0.963,0 -1.555,0.467 -2.018,1.09 l -2.875,3.616 c -0.379,0.375 -1.186,0.372 -2.08,0.372 l -6.76,-0.011 c -0.269,0 -0.485,0.217 -0.485,0.485 0,0.274 0.216,0.493 0.485,0.493 h 5.517 c 0.979,0 2.123,0.226 1.708,0.687 l -7.742,9.74 c -0.233,0.267 -0.982,0.34 -1.445,0.34 L 74.133,92.61 c -0.273,0 -0.491,0.218 -0.491,0.485 0,0.267 0.218,0.485 0.491,0.485 l 1.824,0.007 c 0.566,0 0.57,0.276 0.344,0.532 l -7.281,9.144 c -0.374,0.352 -1.1,0.426 -1.807,0.426 l -6.428,-0.007 c -0.263,0 -0.481,0.216 -0.481,0.489 0,0.265 0.218,0.485 0.481,0.485 H 66.3 c 0.838,0 1.484,0.149 1.043,0.713 l -10.345,12.976 c -1.944,2.476 -11.307,3.737 -13.131,3.737 L 78.85,56.626 c 0.333,-0.752 1.635,-1.901 2.974,-1.901 h 7.429 c 3.506,0 3.403,-2.332 0.36,-2.332 H 52.268 c -3.04,0 -3.163,2.332 0.336,2.332 h 6.917 c 1.962,0 2.593,1.186 2.091,2.157 l -0.993,1.801 c -0.325,0.584 -0.792,0.818 -2.688,0.818 l -12.22,-0.007 c -0.269,0 -0.485,0.214 -0.485,0.485 0,0.269 0.217,0.487 0.485,0.487 L 57.9,60.47 c 0.661,0 1.652,0.172 1.029,1.361 l -1.714,3.172 c -0.289,0.482 -1.036,0.711 -1.897,0.711 l -5.536,-0.011 c -0.274,0 -0.489,0.222 -0.489,0.485 0,0.276 0.214,0.491 0.489,0.491 l 5.51,0.007 c 0.788,0 0.81,0.515 0.353,1.245 l -3.936,7.315 c -0.336,0.624 -0.975,0.708 -2.225,0.708 l -2.205,-0.011 c -0.272,0 -0.491,0.217 -0.491,0.489 0,0.267 0.219,0.485 0.491,0.485 l 2.175,0.004 c 0.829,0 1.048,0.463 0.676,1.254 l -3.23,6.006 c -0.482,0.853 -1.167,1.193 -3.316,1.193 L 31.365,85.363 c -0.273,0 -0.489,0.222 -0.489,0.489 0,0.269 0.216,0.489 0.489,0.489 l 12.186,0.003 c 1.376,0.021 1.884,0.624 1.346,1.611 l -6.311,11.852 c -0.373,0.525 -1.402,0.605 -3.157,0.605 l -12.218,-0.015 c -0.271,0 -0.485,0.222 -0.485,0.493 0,0.267 0.215,0.481 0.485,0.481 l 12.189,0.004 c 1.458,0 2.349,0.062 1.904,0.83 l -3.627,6.837 c -0.67,1.042 -2.543,1.042 -3.273,1.042 l -3.877,-0.011 c -0.267,0 -0.485,0.216 -0.485,0.489 0,0.269 0.218,0.485 0.485,0.485 l 3.842,0.003 c 1.361,0 2.076,0.235 1.721,0.964 l -4.856,9.126 c -0.437,0.813 -2.335,0.852 -3.797,0.852 L 4.548,121.976 c -0.263,0 -0.489,0.221 -0.489,0.493 0,0.262 0.226,0.485 0.489,0.485 l 18.862,0.004 c 1.251,0 2.829,0.153 2.241,1.153 l -3.09,5.825 c -0.293,0.481 -1.35,0.522 -2.875,0.522 l -3.872,-0.007 c -0.272,0 -0.491,0.217 -0.491,0.485 0,0.272 0.219,0.485 0.491,0.485 h 3.846 c 0.933,0 2.08,0.108 1.678,0.821 l -1.938,3.719 c -0.624,0.927 -1.247,1.748 -2.746,1.748 H 7.176 c -3.506,0 -3.383,2.334 -0.34,2.334 l 55.661,0.033 c 1.628,0 1.679,-0.217 2.446,-1.419 l 8.256,-14.391 42.19,0.004 c 3.047,0.006 2.263,-2.291 0.478,-2.35 m -33.095,-4.286 c -0.413,2.374 -2.802,3.942 -5.808,4.742 l -3.097,0.769 2.546,-4.585 c 0.67,-1.247 -0.799,-1.982 -2.401,-0.127 -10.771,12.554 -14.211,18.558 -30.826,18.603 l -4.466,0.008 c -1.35,0 -2.833,-0.527 -1.916,-1.818 l 5.877,-10.952 22.329,0.004 c 3.047,0 2.265,-2.297 0.475,-2.356 -1.182,-0.041 -2.474,-0.717 -3.387,-2.162 -0.258,-0.399 -0.813,-1.99 0.056,-3.215 l 8.551,-11.366 H 84.92 l -2.148,12.455 z m 3.216,-14.369 H 72.124 l 17.54,-23.135 -3.676,23.135 z"
     inkscape:connector-curvature="0"
     style="fill:#552582" /><path
     id="path3061"
     d="m 296.978,110.419 c -0.228,-1.143 -0.639,-0.447 -1.393,0.993 -0.231,0.434 -0.963,0.448 -1.695,0.448 l -2.226,0.008 c -0.272,0 -0.492,0.217 -0.492,0.493 0,0.261 0.22,0.478 0.492,0.478 h 2.196 c 0.828,0 0.847,0.557 0.455,1.393 -1.538,3.271 -3.118,5.463 -5.22,8.092 -0.329,0.411 -1.173,0.77 -1.841,0.77 l -2.244,0.015 c -0.27,0 -0.485,0.217 -0.485,0.489 0,0.265 0.216,0.485 0.485,0.485 h 2.195 c 1.105,0 -0.015,0.676 -0.202,0.926 -3.891,5.194 -6.575,7.513 -9.432,9.839 -0.336,0.27 -1.949,0.172 -3.08,0.165 l -2.211,0.007 c -0.265,0 -0.485,0.221 -0.485,0.497 0,0.265 0.221,0.489 0.485,0.489 h 2.185 c 1.665,0 0.41,0.956 0.164,1.161 -6.071,5.056 -15.101,6.68 -19.237,6.165 -13.416,-1.681 -16.184,-11.867 -17.177,-15.938 -0.201,-0.851 -0.848,-2.599 -1.061,-3.674 -0.414,-2.128 5.639,-2.733 7.312,-1.613 2.531,1.695 8.446,3.436 13.099,3.45 4.302,0.016 13.11,-3.11 15.657,-10.5 2.609,-7.561 -3.939,-15.955 -6.845,-18.849 -3.689,-3.697 -7.185,-9.578 -5.709,-13.895 1.108,-3.258 2.961,-4.734 6.934,-4.734 5.134,0 8.864,3.301 8.864,7.983 0,0.422 -0.25,0.915 -0.59,0.915 l -1.814,0.007 c -0.269,0 -0.489,0.226 -0.489,0.493 0,0.269 0.221,0.489 0.489,0.489 l 1.702,-0.004 c 0.482,0 0.784,0.364 0.657,0.952 -0.328,1.564 -0.44,2.666 -0.78,4.238 -0.205,0.909 1.132,1.54 1.595,0.877 l 8.069,-14.406 c 0.586,-1.087 -0.714,-1.378 -1.669,-1.04 -2.211,0.76 -5.803,1.296 -7.076,0.377 -3.018,-2.164 -5.77,-3.551 -9.974,-3.551 -7.177,0 -12.199,1.762 -15.421,7.666 -0.251,0.463 -0.956,0.456 -1.558,0.456 h -1.378 c -0.269,0 -0.485,0.209 -0.485,0.485 0,0.267 0.217,0.485 0.485,0.485 l 1.173,-0.011 c 0.5,0 0.836,0.142 0.586,0.726 -0.22,0.532 -0.422,1.087 -0.608,1.667 -0.814,2.558 -0.549,6.144 0.731,9.337 0.082,0.214 -0.193,0.313 -0.687,0.313 h -2.192 c -0.272,0 -0.489,0.222 -0.489,0.493 0,0.269 0.217,0.485 0.489,0.485 h 2.192 c 0.993,0.004 1.232,0.108 1.643,0.686 1.136,1.594 2.293,2.776 3.749,4.632 0.463,0.578 -1.497,0.742 -2.539,0.735 l -8.692,-0.004 c -0.276,0 -0.485,0.224 -0.485,0.489 0,0.269 0.209,0.489 0.485,0.489 l 8.801,-0.012 c 1.415,0 3.842,-0.019 4.115,0.291 2.124,2.461 4.7,6.244 5.142,9.429 0.123,0.922 -0.221,1.307 -1.353,1.307 h -1.18 c -0.269,0 -0.485,0.213 -0.485,0.485 0,0.27 0.217,0.485 0.485,0.485 h 1.042 c 0.899,0 1.386,0.149 1.176,0.822 -1.143,3.644 -2.853,6.284 -9.82,6.247 -7.304,-0.042 -8.789,-7.203 -6.653,-14.675 0.418,-1.482 -0.019,-2.125 -0.688,-0.952 l -5.086,7.986 c -0.123,0.19 -0.612,0.646 -1.389,0.646 l -0.717,-0.004 c -0.276,0 -0.485,0.221 -0.485,0.489 0,0.268 0.22,0.485 0.485,0.485 0.643,0 0.896,0.344 0.643,0.702 l -1.856,2.905 c -3.08,-7.027 -8.226,-15.683 -10.97,-18.833 l 0.048,-0.152 c 6.777,-0.413 16.766,-6.757 18.409,-12.431 2.838,-9.841 -6.722,-13.478 -11.935,-13.478 l -22.9,0.004 c -3.043,0 -3.267,2.31 -0.347,2.31 1.579,0 2.957,1.379 2.263,2.776 l -5.071,9.141 c -0.418,0.75 -1.997,0.704 -4.04,0.704 h -2.222 c -0.265,0 -0.485,0.218 -0.485,0.495 0,0.267 0.221,0.486 0.485,0.486 h 2.185 c 1.46,0 3.069,0.084 2.524,1.131 l -5.997,10.825 c -0.287,0.504 -1.067,0.545 -3.106,0.545 l -2.211,0.004 c -0.272,0 -0.492,0.231 -0.492,0.5 0,0.258 0.22,0.485 0.492,0.485 h 2.158 c 1.613,0 2.211,0.213 1.748,1.042 l -8.01,14.492 c -0.956,1.037 -2.095,1.235 -4.051,1.235 -2.921,0 -2.891,2.315 0.156,2.315 h 19.611 c 3.047,0 2.273,-2.356 0.47,-2.356 -1.049,0 -2.169,-1.941 -1.463,-3.103 l 10.011,-18.965 h 1.019 c 4.451,0 5.53,7.307 6.363,15.28 0.063,0.575 -1.023,0.598 -3.245,0.598 l -5.563,0.019 c -0.272,0 -0.489,0.216 -0.489,0.485 0,0.265 0.217,0.489 0.489,0.489 h 5.5 c 1.468,0 3.51,0.015 3.563,0.478 0.381,3.503 0.668,6.583 1.344,9.391 0.206,0.874 -1.355,0.736 -3.024,0.736 l -7.091,0.007 c -0.272,0 -0.489,0.225 -0.489,0.485 0,0.276 0.217,0.493 0.489,0.493 l 7.084,0.008 c 2.225,0 3.375,0 3.502,0.455 3.047,11.188 16.131,19.996 28.849,19.51 10.918,-0.414 20.142,-6.354 24.854,-10.138 6.288,-5.04 15.507,-15.593 19.268,-23.263 0.678,-1.405 1.79,-3.209 1.533,-4.46 M 223.602,95.528 c -1.531,1.249 -3.939,2.7 -4.406,2.24 -0.653,-0.646 -2.681,-2.046 -3.768,-2.546 l 9.092,-16.614 c 0.374,-0.584 0.807,-0.902 1.808,-0.902 3.536,0 4.693,3.835 3.032,8.614 -1.166,3.349 -3.055,6.979 -5.758,9.208"
     inkscape:connector-curvature="0"
     style="fill:#552582" /><path
     id="path3063"
     d="m 113.16,61.022 c -1.845,2.379 -4.283,2.987 -7.018,2.987 h -0.771 l 4.824,-9.552 c 0.23,-0.44 0.739,-0.784 1.371,-0.784 0.603,0 0.526,-1.205 -0.262,-1.205 h -7.608 c -0.646,0 -0.872,1.205 -0.269,1.205 0.648,0 0.765,0.719 0.456,1.327 l -4.32,8.512 c -0.295,0.459 -0.773,0.581 -1.299,0.723 -0.643,0.164 -1.083,1.311 -0.357,1.311 h 12.141 c 0.939,0 1.158,-0.344 1.406,-0.68 l 2.444,-3.783 c 0.35,-0.453 -0.387,-0.518 -0.738,-0.061"
     inkscape:connector-curvature="0"
     style="fill:#552582" /><path
     id="path3065"
     d="m 149.732,52.806 c -0.371,0.207 -1.239,0.31 -1.619,-0.008 -0.967,-0.803 -2.871,-1.422 -3.868,-1.422 -2.86,0 -4.933,0.565 -6.18,3.265 -1.059,2.306 0.028,4.234 2.55,5.399 1.094,0.508 2.543,1.17 1.988,2.481 -0.405,0.967 -1.525,1.064 -2.535,1.06 -1.354,-0.017 -3.395,-1.036 -3.708,-2.948 -0.108,-0.624 -0.834,-0.478 -1.043,-0.146 l -1.729,3.444 c -0.271,0.456 0.444,0.963 0.726,0.665 0.581,-0.625 1.85,-0.778 2.474,-0.358 0.865,0.573 3.083,1.58 4.393,1.566 2.903,-0.022 4.819,-0.764 6.41,-3.256 1.449,-2.269 0.558,-4.52 -2.091,-5.771 -1.4,-0.653 -2.597,-1.82 -1.973,-3.104 0.413,-0.833 1.652,-0.654 2.27,-0.551 1.186,0.203 2.7,1.316 2.875,2.294 0.076,0.416 0.604,0.5 0.842,0.127 l 0.909,-2.126 c 0.209,-0.411 -0.461,-0.732 -0.691,-0.611"
     inkscape:connector-curvature="0"
     style="fill:#552582" /><path
     id="path3067"
     d="m 233.975,56.228 1.061,-1.945 c 0.463,-0.857 -0.292,-1.832 -1.505,-1.832 h -14.175 c -1.019,0 -0.728,1.063 -0.31,1.063 0.911,0 1.18,1.113 0.627,2.054 l -4.26,7.837 c -0.635,0.754 -1.042,1.076 -1.953,1.076 -0.731,0 -0.993,1.066 0.03,1.066 h 14.368 c 0.582,0 0.844,-0.206 1.049,-0.5 l 1.953,-2.593 c 0.474,-0.622 -0.553,-0.622 -0.866,-0.313 -2.476,2.479 -5.131,2.414 -7.058,2.414 h -1.673 l 1.961,-4.397 h 0.426 c 1.258,0 2.714,-0.017 3.103,0.948 0.101,0.228 0.717,0.413 0.971,0 l 1.677,-3.358 c 0.272,-0.497 -0.481,-0.584 -0.69,-0.226 -0.657,1.182 -3.574,0.865 -4.332,0.865 h -0.426 l 2.453,-4.832 h 2.729 c 1.695,0 3.155,1.197 3.638,2.507 0.115,0.312 1.022,0.564 1.202,0.166"
     inkscape:connector-curvature="0"
     style="fill:#552582" /><path
     id="path3069"
     d="m 197.706,52.451 h -5.044 c -1.023,0 -0.718,1.063 -0.307,1.063 1.083,0 2.062,1.266 1.472,2.437 l -2.092,3.823 -4.607,-6.745 c -0.307,-0.413 -1.03,-0.616 -1.658,-0.616 h -4.962 c -1.02,0 -0.784,1.061 -0.37,1.061 1.053,0 0.784,0.788 0.523,1.35 l -3.958,7.615 c -0.254,0.609 -1.326,0.693 -1.666,-0.08 l -3.055,-9.975 c -0.127,-0.394 -1.919,-0.372 -2.374,0 l -7.67,6.327 h -3.98 c -0.784,0 -1.098,0.331 -1.098,0.747 0,0.42 0.299,0.803 1.128,0.803 l 2.076,-0.007 -2.076,1.716 c -1.15,0.853 -2.33,2.042 -3.126,2.042 h -0.474 c -0.755,0 -1.181,0.123 -1.181,0.726 0,0.605 0.321,0.811 1.031,0.811 h 6.187 c 1.169,0 0.938,-1.521 0.355,-1.521 -0.643,0 -1.703,-0.814 -0.717,-1.96 l 1.889,-1.806 h 3.723 c 2.207,0 3.753,2.558 2.435,3.354 l -1.016,0.562 c -0.481,0.249 -0.69,1.373 0,1.373 h 12.087 c 0.904,0 0.718,-1.182 0.299,-1.182 -1.232,0 -0.649,-1.785 -0.41,-2.259 l 3.174,-6.019 4.466,8.649 c 0.287,0.543 0.553,0.811 1.075,0.811 h 1.71 c 0.538,0 0.725,-0.314 0.971,-0.73 l 5.078,-9.18 c 0.822,-1.641 1.449,-2.111 2.479,-2.111 0.418,-0.005 0.71,-1.079 -0.317,-1.079 m -33.818,6.258 4.728,-3.857 0.022,3.857 h -4.75 z"
     inkscape:connector-curvature="0"
     style="fill:#552582" /><path
     id="path3071"
     d="m 126.083,51.878 c -4.253,0 -8.631,2.095 -9.51,6.557 -0.76,3.885 1.928,7.91 6.68,7.91 4.517,0 8.691,-2.959 9.529,-7.242 0.84,-4.305 -2.364,-7.225 -6.699,-7.225 m 1.208,8.181 c -1.354,2.685 -3.609,4.291 -5.05,3.568 -1.434,-0.723 -1.503,-3.487 -0.153,-6.178 1.342,-2.688 3.601,-4.291 5.042,-3.568 1.434,0.723 1.503,3.488 0.161,6.178"
     inkscape:connector-curvature="0"
     style="fill:#552582" /><path
     id="path3073"
     d="m 212.082,58.388 h -5.459 c -1.02,0 -0.721,1.068 -0.31,1.068 0.433,0 0.836,0.226 0.836,0.917 0,2.207 -0.934,3.056 -2.838,3.056 -2.076,0 -2.83,-2.524 -1.426,-5.618 0.892,-1.978 3.26,-3.828 6.063,-3.828 1.726,0 3.174,0.372 3.387,1.985 0.053,0.397 0.653,0.397 0.852,0.022 l 1.303,-2.325 c 0.146,-0.248 -0.082,-0.543 -0.478,-0.569 -0.332,-0.022 -1.083,0.409 -1.568,0.047 -1.098,-0.813 -3.473,-1.604 -5.272,-1.604 -2.938,0 -7.035,0.663 -9.798,5.469 -2.498,4.344 1.143,8.935 4.525,8.939 1.875,0.007 4.056,-1.383 5.303,-1.912 l 1.396,0.952 c 0.201,0.244 0.642,0.558 1.057,0.558 h 0.519 c 0.485,0 0.672,-0.653 0.859,-1.07 l 2.14,-5.192 c 0.276,-0.519 0.123,-0.895 -1.091,-0.895"
     inkscape:connector-curvature="0"
     style="fill:#552582" /><path
     id="path3075"
     d="m 286.93,52.806 c -0.366,0.207 -1.239,0.31 -1.613,-0.008 -0.967,-0.803 -2.871,-1.422 -3.868,-1.422 -2.86,0 -4.937,0.565 -6.18,3.265 -1.068,2.306 0.026,4.234 2.55,5.399 1.099,0.508 2.551,1.17 1.994,2.481 -0.41,0.967 -1.538,1.064 -2.547,1.06 -1.348,-0.017 -3.39,-1.036 -3.707,-2.948 -0.102,-0.624 -0.829,-0.478 -1.034,-0.146 l -1.733,3.444 c -0.272,0.456 0.441,0.963 0.725,0.665 0.586,-0.625 1.855,-0.778 2.483,-0.358 0.858,0.573 3.065,1.58 4.395,1.566 2.891,-0.022 4.81,-0.764 6.393,-3.256 1.456,-2.269 0.561,-4.52 -2.083,-5.771 -1.404,-0.653 -2.6,-1.82 -1.972,-3.104 0.403,-0.833 1.657,-0.654 2.277,-0.551 1.173,0.203 2.696,1.316 2.868,2.294 0.074,0.416 0.601,0.5 0.836,0.127 l 0.911,-2.126 c 0.201,-0.411 -0.464,-0.732 -0.695,-0.611"
     inkscape:connector-curvature="0"
     style="fill:#552582" /><path
     id="path3077"
     d="m 248.94,61.022 c -1.834,2.379 -4.279,2.987 -7.021,2.987 h -0.769 l 4.831,-9.552 c 0.232,-0.44 0.732,-0.784 1.367,-0.784 0.604,0 0.53,-1.205 -0.266,-1.205 h -7.605 c -0.646,0 -0.874,1.205 -0.27,1.205 0.65,0 0.77,0.719 0.456,1.327 l -4.32,8.512 c -0.295,0.459 -0.766,0.581 -1.3,0.723 -0.642,0.164 -1.079,1.311 -0.351,1.311 h 12.14 c 0.937,0 1.164,-0.344 1.411,-0.68 l 2.435,-3.783 c 0.36,-0.453 -0.383,-0.518 -0.738,-0.061"
     inkscape:connector-curvature="0"
     style="fill:#552582" /><path
     id="path3079"
     d="m 267.252,53.553 c 1.691,0 3.158,1.197 3.637,2.507 0.108,0.314 1.016,0.566 1.206,0.168 l 1.057,-1.945 c 0.455,-0.857 -0.299,-1.832 -1.509,-1.832 h -14.174 c -1.023,0 -0.725,1.063 -0.307,1.063 0.915,0 1.188,1.113 0.631,2.054 l -4.26,7.837 c -0.635,0.754 -1.05,1.076 -1.957,1.076 -0.731,0 -0.989,1.066 0.037,1.066 h 14.361 c 0.582,0 0.844,-0.206 1.049,-0.5 l 1.953,-2.593 c 0.479,-0.622 -0.553,-0.622 -0.866,-0.313 -2.479,2.479 -5.138,2.414 -7.058,2.414 h -1.676 l 1.968,-4.397 h 0.418 c 1.262,0 2.719,-0.017 3.1,0.948 0.104,0.228 0.724,0.413 0.978,0 l 1.673,-3.358 c 0.276,-0.497 -0.481,-0.584 -0.683,-0.226 -0.669,1.182 -3.574,0.865 -4.343,0.865 h -0.415 l 2.453,-4.832 h 2.727 z"
     inkscape:connector-curvature="0"
     style="fill:#552582" /><g
     id="g3081">
	<defs
   id="defs3083">
		<path
   d="m 142.341,189.061 c 48.536,0 87.881,-39.938 87.881,-89.208 0,-49.262 -39.345,-89.205 -87.881,-89.205 -48.525,0 -87.87,39.942 -87.87,89.205 0,49.269 39.345,89.208 87.87,89.208"
   id="SVGID_1_"
   inkscape:connector-curvature="0" />
	</defs>
	<clipPath
   id="SVGID_2_">
		<use
   id="use3087"
   overflow="visible"
   xlink:href="#SVGID_1_"
   style="overflow:visible"
   x="0"
   y="0"
   width="300"
   height="200" />
	</clipPath>
	<path
   id="path3089"
   d="m 182.4,108.981 c -8.207,9.959 -12.863,13.368 -21.201,13.368 -2.838,0 -4.316,-0.639 -3.518,-2.013 l 9.888,-19.889 h 3.771 c 4.212,0 3.629,3.549 2.483,8.351 -0.202,0.672 0.306,0.709 0.806,0.127 l 9.402,-16.523 c 0.46,-1.043 -0.728,-1.245 -1.307,-0.458 -4.709,6.393 -9.667,5.918 -11.755,5.918 h -1.706 L 179.83,77.704 h 4.257 c 5.361,0.332 7.859,4.886 6.307,15.864 h 2.232 l 7.763,-15.306 c 0.628,-1.292 -0.694,-2.478 -2.158,-2.478 l -52.703,0.015 c -3.051,0 -3.189,2.343 -0.26,2.343 2.369,0 2.244,3.4 0.114,5.045 l -22.372,17.765 4.52,20.974 c 0.329,1.583 1.35,2.337 3.097,2.337 h 43.579 c 1.797,0 2.539,-0.731 3.118,-1.479 l 7.89,-13.629 c 1.093,-1.962 -1.44,-1.835 -2.814,-0.174 m -30.356,-9.577 -3.837,-0.022 c -0.265,0 -0.484,0.211 -0.484,0.481 0,0.267 0.219,0.485 0.484,0.485 l 3.889,-0.037 c 1.318,0 2.524,0.168 2.188,0.752 l -10.078,19.243 c -1.249,2.293 -3.9,1.707 -4.32,-0.127 L 134.895,94.39 152.446,80.782 c 1.74,-1.497 5.098,-3.938 6.812,-3.911 l 3.823,-0.022 c 2.326,-0.015 3.159,1.075 2.606,2.485 l -0.676,1.301 c -0.438,0.73 -1.812,0.818 -2.983,0.818 l -2.207,0.011 c -0.272,0 -0.489,0.214 -0.489,0.489 0,0.272 0.217,0.485 0.489,0.485 h 2.177 c 0.941,0 2.121,0.024 1.688,0.73 l -8.14,15.52 c -0.377,0.606 -2.068,0.716 -3.502,0.716"
   clip-path="url(#SVGID_2_)"
   inkscape:connector-curvature="0"
   style="fill:#552582" />
	<path
   id="path3091"
   d="m 115.867,121.92 c -1.186,-0.041 -1.947,-0.848 -2.207,-1.632 -0.375,-1.12 -0.34,-3.11 0.11,-3.991 l 20.335,-36.056 c 0.329,-0.667 1.154,-2.057 2.164,-2.057 1.796,0.003 2.572,-2.36 -0.471,-2.36 h -16.286 c -3.043,0 -3.073,2.317 -0.157,2.317 1.189,0 1.663,1.167 1.324,1.878 l -4.496,8.155 c -0.563,0.894 -1.809,0.963 -3.122,0.963 l -3.879,-0.015 c -0.269,0 -0.485,0.222 -0.485,0.489 0,0.269 0.216,0.495 0.485,0.495 h 3.846 c 1.04,0 1.869,0.314 1.27,1.521 l -15.008,27.34 c -1.081,1.505 -3.234,1.841 -3.112,-1.042 l 5.337,-40.04 c 0.211,-1.251 -0.118,-2.099 -1.456,-2.099 l -8.045,0.015 c -0.963,0 -1.555,0.467 -2.018,1.09 l -2.875,3.616 c -0.379,0.375 -1.186,0.372 -2.08,0.372 l -6.76,-0.011 c -0.269,0 -0.485,0.217 -0.485,0.485 0,0.274 0.216,0.493 0.485,0.493 h 5.517 c 0.979,0 2.123,0.226 1.708,0.687 l -7.742,9.74 c -0.233,0.267 -0.982,0.34 -1.445,0.34 L 74.133,92.61 c -0.273,0 -0.491,0.218 -0.491,0.485 0,0.267 0.218,0.485 0.491,0.485 l 1.824,0.007 c 0.566,0 0.57,0.276 0.344,0.532 l -7.281,9.144 c -0.374,0.352 -1.1,0.426 -1.807,0.426 l -6.428,-0.007 c -0.263,0 -0.481,0.216 -0.481,0.489 0,0.265 0.218,0.485 0.481,0.485 H 66.3 c 0.838,0 1.484,0.149 1.043,0.713 l -10.345,12.976 c -1.944,2.476 -11.307,3.737 -13.131,3.737 L 78.85,56.626 c 0.333,-0.752 1.635,-1.901 2.974,-1.901 h 7.429 c 3.506,0 3.403,-2.332 0.36,-2.332 H 52.268 c -3.04,0 -3.163,2.332 0.336,2.332 h 6.917 c 1.962,0 2.593,1.186 2.091,2.157 l -0.993,1.801 c -0.325,0.584 -0.792,0.818 -2.688,0.818 l -12.22,-0.007 c -0.269,0 -0.485,0.214 -0.485,0.485 0,0.269 0.217,0.487 0.485,0.487 L 57.9,60.47 c 0.661,0 1.652,0.172 1.029,1.361 l -1.714,3.172 c -0.289,0.482 -1.036,0.711 -1.897,0.711 l -5.536,-0.011 c -0.274,0 -0.489,0.222 -0.489,0.485 0,0.276 0.214,0.491 0.489,0.491 l 5.51,0.007 c 0.788,0 0.81,0.515 0.353,1.245 l -3.936,7.315 c -0.336,0.624 -0.975,0.708 -2.225,0.708 l -2.205,-0.011 c -0.272,0 -0.491,0.217 -0.491,0.489 0,0.267 0.219,0.485 0.491,0.485 l 2.175,0.004 c 0.829,0 1.048,0.463 0.676,1.254 l -3.23,6.006 c -0.482,0.853 -1.167,1.193 -3.316,1.193 L 31.365,85.363 c -0.273,0 -0.489,0.222 -0.489,0.489 0,0.269 0.216,0.489 0.489,0.489 l 12.186,0.003 c 1.376,0.021 1.884,0.624 1.346,1.611 l -6.311,11.852 c -0.373,0.525 -1.402,0.605 -3.157,0.605 l -12.218,-0.015 c -0.271,0 -0.485,0.222 -0.485,0.493 0,0.267 0.215,0.481 0.485,0.481 l 12.189,0.004 c 1.458,0 2.349,0.062 1.904,0.83 l -3.627,6.837 c -0.67,1.042 -2.543,1.042 -3.273,1.042 l -3.877,-0.011 c -0.267,0 -0.485,0.216 -0.485,0.489 0,0.269 0.218,0.485 0.485,0.485 l 3.842,0.003 c 1.361,0 2.076,0.235 1.721,0.964 l -4.856,9.126 c -0.437,0.813 -2.335,0.852 -3.797,0.852 L 4.548,121.976 c -0.263,0 -0.489,0.221 -0.489,0.493 0,0.262 0.226,0.485 0.489,0.485 l 18.862,0.004 c 1.251,0 2.829,0.153 2.241,1.153 l -3.09,5.825 c -0.293,0.481 -1.35,0.522 -2.875,0.522 l -3.872,-0.007 c -0.272,0 -0.491,0.217 -0.491,0.485 0,0.272 0.219,0.485 0.491,0.485 h 3.846 c 0.933,0 2.08,0.108 1.678,0.821 l -1.938,3.719 c -0.624,0.927 -1.247,1.748 -2.746,1.748 H 7.176 c -3.506,0 -3.383,2.334 -0.34,2.334 l 55.661,0.033 c 1.628,0 1.679,-0.217 2.446,-1.419 l 8.256,-14.391 42.19,0.004 c 3.047,0.006 2.263,-2.291 0.478,-2.35 m -33.095,-4.286 c -0.413,2.374 -2.802,3.942 -5.808,4.742 l -3.097,0.769 2.546,-4.585 c 0.67,-1.247 -0.799,-1.982 -2.401,-0.127 -10.771,12.554 -14.211,18.558 -30.826,18.603 l -4.466,0.008 c -1.35,0 -2.833,-0.527 -1.916,-1.818 l 5.877,-10.952 22.329,0.004 c 3.047,0 2.265,-2.297 0.475,-2.356 -1.182,-0.041 -2.474,-0.717 -3.387,-2.162 -0.258,-0.399 -0.813,-1.99 0.056,-3.215 l 8.551,-11.366 H 84.92 l -2.148,12.455 z m 3.216,-14.369 H 72.124 l 17.54,-23.135 -3.676,23.135 z"
   clip-path="url(#SVGID_2_)"
   inkscape:connector-curvature="0"
   style="fill:#552582" />
	<path
   id="path3093"
   d="m 296.978,110.419 c -0.228,-1.143 -0.639,-0.447 -1.393,0.993 -0.231,0.434 -0.963,0.448 -1.695,0.448 l -2.226,0.008 c -0.272,0 -0.492,0.217 -0.492,0.493 0,0.261 0.22,0.478 0.492,0.478 h 2.196 c 0.828,0 0.847,0.557 0.455,1.393 -1.538,3.271 -3.118,5.463 -5.22,8.092 -0.329,0.411 -1.173,0.77 -1.841,0.77 l -2.244,0.015 c -0.27,0 -0.485,0.217 -0.485,0.489 0,0.265 0.216,0.485 0.485,0.485 h 2.195 c 1.105,0 -0.015,0.676 -0.202,0.926 -3.891,5.194 -6.575,7.513 -9.432,9.839 -0.336,0.27 -1.949,0.172 -3.08,0.165 l -2.211,0.007 c -0.265,0 -0.485,0.221 -0.485,0.497 0,0.265 0.221,0.489 0.485,0.489 h 2.185 c 1.665,0 0.41,0.956 0.164,1.161 -6.071,5.056 -15.101,6.68 -19.237,6.165 -13.416,-1.681 -16.184,-11.867 -17.177,-15.938 -0.201,-0.851 -0.848,-2.599 -1.061,-3.674 -0.414,-2.128 5.639,-2.733 7.312,-1.613 2.531,1.695 8.446,3.436 13.099,3.45 4.302,0.016 13.11,-3.11 15.657,-10.5 2.609,-7.561 -3.939,-15.955 -6.845,-18.849 -3.689,-3.697 -7.185,-9.578 -5.709,-13.895 1.108,-3.258 2.961,-4.734 6.934,-4.734 5.134,0 8.864,3.301 8.864,7.983 0,0.422 -0.25,0.915 -0.59,0.915 l -1.814,0.007 c -0.269,0 -0.489,0.226 -0.489,0.493 0,0.269 0.221,0.489 0.489,0.489 l 1.702,-0.004 c 0.482,0 0.784,0.364 0.657,0.952 -0.328,1.564 -0.44,2.666 -0.78,4.238 -0.205,0.909 1.132,1.54 1.595,0.877 l 8.069,-14.406 c 0.586,-1.087 -0.714,-1.378 -1.669,-1.04 -2.211,0.76 -5.803,1.296 -7.076,0.377 -3.018,-2.164 -5.77,-3.551 -9.974,-3.551 -7.177,0 -12.199,1.762 -15.421,7.666 -0.251,0.463 -0.956,0.456 -1.558,0.456 h -1.378 c -0.269,0 -0.485,0.209 -0.485,0.485 0,0.267 0.217,0.485 0.485,0.485 l 1.173,-0.011 c 0.5,0 0.836,0.142 0.586,0.726 -0.22,0.532 -0.422,1.087 -0.608,1.667 -0.814,2.558 -0.549,6.144 0.731,9.337 0.082,0.214 -0.193,0.313 -0.687,0.313 h -2.192 c -0.272,0 -0.489,0.222 -0.489,0.493 0,0.269 0.217,0.485 0.489,0.485 h 2.192 c 0.993,0.004 1.232,0.108 1.643,0.686 1.136,1.594 2.293,2.776 3.749,4.632 0.463,0.578 -1.497,0.742 -2.539,0.735 l -8.692,-0.004 c -0.276,0 -0.485,0.224 -0.485,0.489 0,0.269 0.209,0.489 0.485,0.489 l 8.801,-0.012 c 1.415,0 3.842,-0.019 4.115,0.291 2.124,2.461 4.7,6.244 5.142,9.429 0.123,0.922 -0.221,1.307 -1.353,1.307 h -1.18 c -0.269,0 -0.485,0.213 -0.485,0.485 0,0.27 0.217,0.485 0.485,0.485 h 1.042 c 0.899,0 1.386,0.149 1.176,0.822 -1.143,3.644 -2.853,6.284 -9.82,6.247 -7.304,-0.042 -8.789,-7.203 -6.653,-14.675 0.418,-1.482 -0.019,-2.125 -0.688,-0.952 l -5.086,7.986 c -0.123,0.19 -0.612,0.646 -1.389,0.646 l -0.717,-0.004 c -0.276,0 -0.485,0.221 -0.485,0.489 0,0.268 0.22,0.485 0.485,0.485 0.643,0 0.896,0.344 0.643,0.702 l -1.856,2.905 c -3.08,-7.027 -8.226,-15.683 -10.97,-18.833 l 0.048,-0.152 c 6.777,-0.413 16.766,-6.757 18.409,-12.431 2.838,-9.841 -6.722,-13.478 -11.935,-13.478 l -22.9,0.004 c -3.043,0 -3.267,2.31 -0.347,2.31 1.579,0 2.957,1.379 2.263,2.776 l -5.071,9.141 c -0.418,0.75 -1.997,0.704 -4.04,0.704 h -2.222 c -0.265,0 -0.485,0.218 -0.485,0.495 0,0.267 0.221,0.486 0.485,0.486 h 2.185 c 1.46,0 3.069,0.084 2.524,1.131 l -5.997,10.825 c -0.287,0.504 -1.067,0.545 -3.106,0.545 l -2.211,0.004 c -0.272,0 -0.492,0.231 -0.492,0.5 0,0.258 0.22,0.485 0.492,0.485 h 2.158 c 1.613,0 2.211,0.213 1.748,1.042 l -8.01,14.492 c -0.956,1.037 -2.095,1.235 -4.051,1.235 -2.921,0 -2.891,2.315 0.156,2.315 h 19.611 c 3.047,0 2.273,-2.356 0.47,-2.356 -1.049,0 -2.169,-1.941 -1.463,-3.103 l 10.011,-18.965 h 1.019 c 4.451,0 5.53,7.307 6.363,15.28 0.063,0.575 -1.023,0.598 -3.245,0.598 l -5.563,0.019 c -0.272,0 -0.489,0.216 -0.489,0.485 0,0.265 0.217,0.489 0.489,0.489 h 5.5 c 1.468,0 3.51,0.015 3.563,0.478 0.381,3.503 0.668,6.583 1.344,9.391 0.206,0.874 -1.355,0.736 -3.024,0.736 l -7.091,0.007 c -0.272,0 -0.489,0.225 -0.489,0.485 0,0.276 0.217,0.493 0.489,0.493 l 7.084,0.008 c 2.225,0 3.375,0 3.502,0.455 3.047,11.188 16.131,19.996 28.849,19.51 10.918,-0.414 20.142,-6.354 24.854,-10.138 6.288,-5.04 15.507,-15.593 19.268,-23.263 0.678,-1.405 1.79,-3.209 1.533,-4.46 M 223.602,95.528 c -1.531,1.249 -3.939,2.7 -4.406,2.24 -0.653,-0.646 -2.681,-2.046 -3.768,-2.546 l 9.092,-16.614 c 0.374,-0.584 0.807,-0.902 1.808,-0.902 3.536,0 4.693,3.835 3.032,8.614 -1.166,3.349 -3.055,6.979 -5.758,9.208"
   clip-path="url(#SVGID_2_)"
   inkscape:connector-curvature="0"
   style="fill:#552582" />
	<path
   id="path3095"
   d="m 113.16,61.022 c -1.845,2.379 -4.283,2.987 -7.018,2.987 h -0.771 l 4.824,-9.552 c 0.23,-0.44 0.739,-0.784 1.371,-0.784 0.603,0 0.526,-1.205 -0.262,-1.205 h -7.608 c -0.646,0 -0.872,1.205 -0.269,1.205 0.648,0 0.765,0.719 0.456,1.327 l -4.32,8.512 c -0.295,0.459 -0.773,0.581 -1.299,0.723 -0.643,0.164 -1.083,1.311 -0.357,1.311 h 12.141 c 0.939,0 1.158,-0.344 1.406,-0.68 l 2.444,-3.783 c 0.35,-0.453 -0.387,-0.518 -0.738,-0.061"
   clip-path="url(#SVGID_2_)"
   inkscape:connector-curvature="0"
   style="fill:#552582" />
	<path
   id="path3097"
   d="m 149.732,52.806 c -0.371,0.207 -1.239,0.31 -1.619,-0.008 -0.967,-0.803 -2.871,-1.422 -3.868,-1.422 -2.86,0 -4.933,0.565 -6.18,3.265 -1.059,2.306 0.028,4.234 2.55,5.399 1.094,0.508 2.543,1.17 1.988,2.481 -0.405,0.967 -1.525,1.064 -2.535,1.06 -1.354,-0.017 -3.395,-1.036 -3.708,-2.948 -0.108,-0.624 -0.834,-0.478 -1.043,-0.146 l -1.729,3.444 c -0.271,0.456 0.444,0.963 0.726,0.665 0.581,-0.625 1.85,-0.778 2.474,-0.358 0.865,0.573 3.083,1.58 4.393,1.566 2.903,-0.022 4.819,-0.764 6.41,-3.256 1.449,-2.269 0.558,-4.52 -2.091,-5.771 -1.4,-0.653 -2.597,-1.82 -1.973,-3.104 0.413,-0.833 1.652,-0.654 2.27,-0.551 1.186,0.203 2.7,1.316 2.875,2.294 0.076,0.416 0.604,0.5 0.842,0.127 l 0.909,-2.126 c 0.209,-0.411 -0.461,-0.732 -0.691,-0.611"
   clip-path="url(#SVGID_2_)"
   inkscape:connector-curvature="0"
   style="fill:#552582" />
	<path
   id="path3099"
   d="m 233.975,56.228 1.061,-1.945 c 0.463,-0.857 -0.292,-1.832 -1.505,-1.832 h -14.175 c -1.019,0 -0.728,1.063 -0.31,1.063 0.911,0 1.18,1.113 0.627,2.054 l -4.26,7.837 c -0.635,0.754 -1.042,1.076 -1.953,1.076 -0.731,0 -0.993,1.066 0.03,1.066 h 14.368 c 0.582,0 0.844,-0.206 1.049,-0.5 l 1.953,-2.593 c 0.474,-0.622 -0.553,-0.622 -0.866,-0.313 -2.476,2.479 -5.131,2.414 -7.058,2.414 h -1.673 l 1.961,-4.397 h 0.426 c 1.258,0 2.714,-0.017 3.103,0.948 0.101,0.228 0.717,0.413 0.971,0 l 1.677,-3.358 c 0.272,-0.497 -0.481,-0.584 -0.69,-0.226 -0.657,1.182 -3.574,0.865 -4.332,0.865 h -0.426 l 2.453,-4.832 h 2.729 c 1.695,0 3.155,1.197 3.638,2.507 0.115,0.312 1.022,0.564 1.202,0.166"
   clip-path="url(#SVGID_2_)"
   inkscape:connector-curvature="0"
   style="fill:#552582" />
	<path
   id="path3101"
   d="m 197.706,52.451 h -5.044 c -1.023,0 -0.718,1.063 -0.307,1.063 1.083,0 2.062,1.266 1.472,2.437 l -2.092,3.823 -4.607,-6.745 c -0.307,-0.413 -1.03,-0.616 -1.658,-0.616 h -4.962 c -1.02,0 -0.784,1.061 -0.37,1.061 1.053,0 0.784,0.788 0.523,1.35 l -3.958,7.615 c -0.254,0.609 -1.326,0.693 -1.666,-0.08 l -3.055,-9.975 c -0.127,-0.394 -1.919,-0.372 -2.374,0 l -7.67,6.327 h -3.98 c -0.784,0 -1.098,0.331 -1.098,0.747 0,0.42 0.299,0.803 1.128,0.803 l 2.076,-0.007 -2.076,1.716 c -1.15,0.853 -2.33,2.042 -3.126,2.042 h -0.474 c -0.755,0 -1.181,0.123 -1.181,0.726 0,0.605 0.321,0.811 1.031,0.811 h 6.187 c 1.169,0 0.938,-1.521 0.355,-1.521 -0.643,0 -1.703,-0.814 -0.717,-1.96 l 1.889,-1.806 h 3.723 c 2.207,0 3.753,2.558 2.435,3.354 l -1.016,0.562 c -0.481,0.249 -0.69,1.373 0,1.373 h 12.087 c 0.904,0 0.718,-1.182 0.299,-1.182 -1.232,0 -0.649,-1.785 -0.41,-2.259 l 3.174,-6.019 4.466,8.649 c 0.287,0.543 0.553,0.811 1.075,0.811 h 1.71 c 0.538,0 0.725,-0.314 0.971,-0.73 l 5.078,-9.18 c 0.822,-1.641 1.449,-2.111 2.479,-2.111 0.418,-0.005 0.71,-1.079 -0.317,-1.079 m -33.818,6.258 4.728,-3.857 0.022,3.857 h -4.75 z"
   clip-path="url(#SVGID_2_)"
   inkscape:connector-curvature="0"
   style="fill:#552582" />
	<path
   id="path3103"
   d="m 126.083,51.878 c -4.253,0 -8.631,2.095 -9.51,6.557 -0.76,3.885 1.928,7.91 6.68,7.91 4.517,0 8.691,-2.959 9.529,-7.242 0.84,-4.305 -2.364,-7.225 -6.699,-7.225 m 1.208,8.181 c -1.354,2.685 -3.609,4.291 -5.05,3.568 -1.434,-0.723 -1.503,-3.487 -0.153,-6.178 1.342,-2.688 3.601,-4.291 5.042,-3.568 1.434,0.723 1.503,3.488 0.161,6.178"
   clip-path="url(#SVGID_2_)"
   inkscape:connector-curvature="0"
   style="fill:#552582" />
	<path
   id="path3105"
   d="m 212.082,58.388 h -5.459 c -1.02,0 -0.721,1.068 -0.31,1.068 0.433,0 0.836,0.226 0.836,0.917 0,2.207 -0.934,3.056 -2.838,3.056 -2.076,0 -2.83,-2.524 -1.426,-5.618 0.892,-1.978 3.26,-3.828 6.063,-3.828 1.726,0 3.174,0.372 3.387,1.985 0.053,0.397 0.653,0.397 0.852,0.022 l 1.303,-2.325 c 0.146,-0.248 -0.082,-0.543 -0.478,-0.569 -0.332,-0.022 -1.083,0.409 -1.568,0.047 -1.098,-0.813 -3.473,-1.604 -5.272,-1.604 -2.938,0 -7.035,0.663 -9.798,5.469 -2.498,4.344 1.143,8.935 4.525,8.939 1.875,0.007 4.056,-1.383 5.303,-1.912 l 1.396,0.952 c 0.201,0.244 0.642,0.558 1.057,0.558 h 0.519 c 0.485,0 0.672,-0.653 0.859,-1.07 l 2.14,-5.192 c 0.276,-0.519 0.123,-0.895 -1.091,-0.895"
   clip-path="url(#SVGID_2_)"
   inkscape:connector-curvature="0"
   style="fill:#552582" />
	<path
   id="path3107"
   d="m 286.93,52.806 c -0.366,0.207 -1.239,0.31 -1.613,-0.008 -0.967,-0.803 -2.871,-1.422 -3.868,-1.422 -2.86,0 -4.937,0.565 -6.18,3.265 -1.068,2.306 0.026,4.234 2.55,5.399 1.099,0.508 2.551,1.17 1.994,2.481 -0.41,0.967 -1.538,1.064 -2.547,1.06 -1.348,-0.017 -3.39,-1.036 -3.707,-2.948 -0.102,-0.624 -0.829,-0.478 -1.034,-0.146 l -1.733,3.444 c -0.272,0.456 0.441,0.963 0.725,0.665 0.586,-0.625 1.855,-0.778 2.483,-0.358 0.858,0.573 3.065,1.58 4.395,1.566 2.891,-0.022 4.81,-0.764 6.393,-3.256 1.456,-2.269 0.561,-4.52 -2.083,-5.771 -1.404,-0.653 -2.6,-1.82 -1.972,-3.104 0.403,-0.833 1.657,-0.654 2.277,-0.551 1.173,0.203 2.696,1.316 2.868,2.294 0.074,0.416 0.601,0.5 0.836,0.127 l 0.911,-2.126 c 0.201,-0.411 -0.464,-0.732 -0.695,-0.611"
   clip-path="url(#SVGID_2_)"
   inkscape:connector-curvature="0"
   style="fill:#552582" />
	<path
   id="path3109"
   d="m 248.94,61.022 c -1.834,2.379 -4.279,2.987 -7.021,2.987 h -0.769 l 4.831,-9.552 c 0.232,-0.44 0.732,-0.784 1.367,-0.784 0.604,0 0.53,-1.205 -0.266,-1.205 h -7.605 c -0.646,0 -0.874,1.205 -0.27,1.205 0.65,0 0.77,0.719 0.456,1.327 l -4.32,8.512 c -0.295,0.459 -0.766,0.581 -1.3,0.723 -0.642,0.164 -1.079,1.311 -0.351,1.311 h 12.14 c 0.937,0 1.164,-0.344 1.411,-0.68 l 2.435,-3.783 c 0.36,-0.453 -0.383,-0.518 -0.738,-0.061"
   clip-path="url(#SVGID_2_)"
   inkscape:connector-curvature="0"
   style="fill:#552582" />
	<path
   id="path3111"
   d="m 267.252,53.553 c 1.691,0 3.158,1.197 3.637,2.507 0.108,0.314 1.016,0.566 1.206,0.168 l 1.057,-1.945 c 0.455,-0.857 -0.299,-1.832 -1.509,-1.832 h -14.174 c -1.023,0 -0.725,1.063 -0.307,1.063 0.915,0 1.188,1.113 0.631,2.054 l -4.26,7.837 c -0.635,0.754 -1.05,1.076 -1.957,1.076 -0.731,0 -0.989,1.066 0.037,1.066 h 14.361 c 0.582,0 0.844,-0.206 1.049,-0.5 l 1.953,-2.593 c 0.479,-0.622 -0.553,-0.622 -0.866,-0.313 -2.479,2.479 -5.138,2.414 -7.058,2.414 h -1.676 l 1.968,-4.397 h 0.418 c 1.262,0 2.719,-0.017 3.1,0.948 0.104,0.228 0.724,0.413 0.978,0 l 1.673,-3.358 c 0.276,-0.497 -0.481,-0.584 -0.683,-0.226 -0.669,1.182 -3.574,0.865 -4.343,0.865 h -0.415 l 2.453,-4.832 h 2.727 z"
   clip-path="url(#SVGID_2_)"
   inkscape:connector-curvature="0"
   style="fill:#552582" />
</g><path
     id="path3113"
     d="m 211.421,42.082 c -1.09,-1.258 -2.595,-3.928 -13.404,-13.349 -15.903,-13.857 -36.967,-20.18 -56.755,-20.18 -14.583,0 -27.354,3.276 -41.494,11.058 -18.013,9.917 -25.475,21.315 -27.318,23.636 -1.367,1.703 -1.561,2.7 -0.678,3.213 0.631,0.358 1.843,-0.967 2.978,-2.462 C 80.108,36.92 87.154,29.9 94.572,25.77 c 2.306,0.336 5.534,3.551 6.787,5.254 -4.74,2.587 -12.609,8.581 -15.587,10.888 -2.571,1.99 -3.461,3.11 -2.765,3.921 0.581,0.672 2.547,-0.65 4.195,-2 2.847,-2.341 11.314,-8.34 15.503,-10.595 2.853,3.338 1.932,9.504 0.926,10.843 -0.543,0.719 -0.624,1.482 0,1.835 0.581,0.332 1.223,-0.514 2.054,-1.714 1.938,-2.806 1.162,-9.6 -0.506,-12.048 5.11,-3.174 12.447,-5.295 16.893,-6.297 0.375,0.711 5.764,16.446 6.789,19.305 0.558,1.564 1.116,3.437 2.259,3.086 0.766,-0.229 0.26,-1.949 -0.375,-3.667 -0.788,-2.134 -4.864,-15.353 -6.116,-19.268 1.467,-0.795 10.315,-2.591 12.529,-2.5 -1.087,5.754 2.989,8.11 7.585,11.135 2.451,1.606 17.996,10.541 21.251,12.548 1.853,1.15 3.294,1.878 3.686,1.338 0.46,-0.62 -0.799,-1.919 -2.513,-2.922 -1.366,-0.799 -15.832,-9.191 -21.877,-13.011 -4.328,-2.733 -6.658,-5.663 -5.622,-9.509 1.427,-0.415 5.786,-0.448 10.317,-0.415 30.841,0.25 55.574,17.929 58.338,20.763 1.403,1.438 3.353,2.672 4.107,2.091 0.477,-0.367 -0.348,-1.993 -1.009,-2.749 M 103.879,29.9 c -0.829,-1.389 -4.75,-4.968 -6.871,-5.672 4.948,-3.67 16.43,-8.915 20.789,-9.841 0.749,1.251 2.765,6.592 3.433,8.844 -3.853,0.832 -14.082,4.499 -17.351,6.669 m 33.693,-9.927 c -4.018,0.256 -11.314,1.835 -13.911,2.589 -0.672,-1.748 -2.511,-7.177 -3.099,-8.924 7.397,-2.1 16.003,-2.83 22.631,-2.253 -1.847,1.415 -4.943,7.005 -5.621,8.588 m 20.035,-0.248 c -6.691,-0.47 -12.154,-0.661 -16.934,-0.164 1.387,-3.488 4.148,-6.749 6.294,-8.176 4.553,0.185 9.258,0.85 12.989,1.587 11.93,2.353 30.48,9.628 38.479,20.351 -10.658,-7.109 -28.357,-12.708 -40.828,-13.598"
     inkscape:connector-curvature="0"
     style="fill:#231f20" /><path
     id="path3115"
     d="m 218.098,147.685 c 1.143,-2.099 2.072,-3.294 1.09,-3.839 -0.896,-0.493 -1.762,1.449 -2.849,3.335 -3.604,6.262 -7.539,11.422 -16.43,19.518 -9.847,8.973 -21.164,14.182 -25.107,15.515 -3.349,-9.425 -16.131,-49.565 -16.471,-50.712 -0.5,-1.714 -0.93,-2.203 -1.508,-2.005 -0.65,0.235 -0.25,1.177 0.086,2.674 0.336,1.497 15.552,49.008 16.052,50.674 -3.024,1.497 -15.279,4.929 -23.849,5.205 -7.632,0.254 -16.598,0 -21.125,-1.042 -5.308,-4.283 -17.374,-21.324 -21.959,-30.402 -5.396,-10.687 -8.971,-20.518 -9.891,-24.696 -0.444,-1.997 -1.01,-3.438 -2.015,-3.241 -1.079,0.206 -0.459,1.781 0.172,3.925 1.621,5.496 4.27,13.285 9.891,24.391 5.958,11.762 16.594,25.559 19.695,29.318 -9.719,-2.046 -21.53,-6.586 -32.752,-14.966 -9.669,-7.198 -17.972,-16.381 -22.154,-23.068 -0.711,-1.149 -1.557,-2.771 -2.593,-2.083 -0.467,0.306 0.108,1.613 0.834,2.916 6.068,10.899 20.862,26.321 39.819,34.782 22.092,9.865 46.182,9.339 67.727,1 18.845,-7.298 35.237,-22.309 43.337,-37.199"
     inkscape:connector-curvature="0"
     style="fill:#231f20" /></g>
</svg>