<?xml version="1.0" encoding="UTF-8" standalone="no"?>
<svg width="512px" height="512px" viewBox="0 0 512 512" version="1.1" xmlns="http://www.w3.org/2000/svg" xmlns:xlink="http://www.w3.org/1999/xlink" xmlns:sketch="http://www.bohemiancoding.com/sketch/ns">
    <!-- Generator: Sketch 3.2.2 (9983) - http://www.bohemiancoding.com/sketch -->
    <title>los-angeles-clippers</title>
    <desc>Created with Sketch.</desc>
    <defs></defs>
    <g id="NBA" stroke="none" stroke-width="1" fill="none" fill-rule="evenodd" sketch:type="MSPage">
        <g id="los-angeles-clippers" sketch:type="MSArtboardGroup">
            <g id="svg" sketch:type="MSLayerGroup" transform="translate(60.000000, 116.000000)">
                <path d="M230.558711,1.7558011 C241.625374,-0.112154696 252.93186,-0.59558011 264.110699,0.444751381 C271.707667,1.08674033 279.207933,2.54088398 286.60376,4.35856354 C301.847982,7.89723757 316.492648,14.1044199 329.481762,22.8524862 C335.786781,27.1491713 341.948681,31.6972376 347.569045,36.8679558 C356.864114,45.2486188 364.685433,55.1259669 371.501043,65.5911602 C377.991732,75.8668508 383.306516,86.9469613 386.772343,98.6110497 C389.835886,109.594475 392.195433,120.821547 392.883957,132.222652 C393.77749,144.675691 392.547431,157.225414 389.739183,169.369061 C388.017874,177.142541 385.936831,184.854144 382.997067,192.260221 C379.61247,200.911602 375.280187,209.19558 370.081447,216.89558 C364.716378,224.866298 358.81751,232.51989 351.963219,239.272376 C345.108927,246.210497 337.34563,252.181768 329.245807,257.58453 C317.235325,265.578453 303.840059,271.456906 289.860709,274.999448 C283.787776,276.511602 277.687766,277.961878 271.483317,278.820442 C255.198573,281.156354 238.515413,280.332597 222.478228,276.716575 C207.3075,273.630387 192.600945,268.096133 179.391348,259.986188 C166.24751,251.907182 154.37628,241.666298 144.721476,229.619337 C133.871427,229.623204 123.021378,229.619337 112.171329,229.619337 C107.564409,234.743646 102.299911,239.264641 96.5905807,243.116575 C90.9276673,246.852486 84.8353937,250.112707 78.2015846,251.71768 C74.9910531,252.456354 71.792126,253.330387 68.5081004,253.674586 C62.6672539,254.235359 56.7838583,253.458011 51.1325492,251.965193 C44.8120571,250.661878 38.7120472,248.283425 33.2618799,244.818232 C27.2585728,240.912155 21.4796161,236.499448 16.9539272,230.899448 C12.5288091,225.341989 8.44021654,219.405525 5.83697835,212.753591 C3.7404626,207.718232 2.6071063,202.365746 1.41572835,197.067403 C-0.835511811,186.39337 -0.135383858,175.262983 2.58002953,164.743646 C4.54116142,155.647514 7.68593504,146.787293 12.1806791,138.630939 C15.3138484,132.80663 19.1858268,127.423204 23.2512106,122.21768 C28.3261713,115.875138 34.3256102,110.282873 40.9903642,105.641989 C36.8862992,105.638122 32.7783661,105.692265 28.6781693,105.618785 C26.8485531,105.228177 24.4967421,103.932597 24.8177953,101.724309 C24.9802559,100.625967 24.9261024,99.3497238 25.7151969,98.4718232 C41.1141437,80.0513812 56.5053543,61.6270718 71.9004331,43.2027624 C73.4670177,41.319337 75.0684154,39.4629834 76.5537697,37.5138122 C79.4316437,34.2265193 83.9844094,33.0508287 88.1890453,32.7491713 C112.968159,32.7066298 137.751142,32.7646409 162.530256,32.7220994 C169.89127,26.7276243 177.553996,21.0232044 185.940059,16.5331492 C193.664675,12.3756906 201.814783,8.99558011 210.224055,6.49337017 C216.915886,4.58287293 223.708287,2.98176796 230.558711,1.7558011 L230.558711,1.7558011 Z M206.069705,20.4740331 C191.765433,26.0237569 178.509419,34.241989 167.156516,44.5563536 C166.518278,45.1519337 165.702106,45.5928177 164.808573,45.538674 C141.33688,45.5425414 117.865187,45.5464088 94.3934941,45.5348066 C92.7224705,45.5464088 90.7961516,45.2950276 89.4655217,46.5403315 C88.3979232,47.3640884 88.0962106,48.7370166 88.1000787,50.0171271 C92.1035728,50.6359116 96.1650886,50.2530387 100.195659,50.3574586 C120.49937,50.3883978 140.803081,50.2878453 161.106791,50.4232044 C158.213445,53.1110497 155.745591,56.2049724 153.084331,59.1093923 C152.662707,59.7088398 151.87748,59.6237569 151.24311,59.681768 C126.854675,59.6430939 102.46624,59.6933702 78.0816732,59.6508287 C75.5016437,59.6353591 73.4012598,62.1414365 73.7455217,64.6823204 C77.6407087,65.1116022 81.5707087,64.8099448 85.4813681,64.898895 C106.543228,64.9220994 127.605089,64.8486188 148.666949,64.9414365 C146.396368,68.1436464 144.237963,71.4309392 142.249754,74.8187845 C116.619656,74.9077348 90.9895571,74.8033149 65.3633268,74.8690608 C63.1391634,74.8381215 61.1935039,77.1895028 62.1450591,79.3436464 C87.9724311,79.359116 113.795935,79.3320442 139.623307,79.359116 C138.068327,82.6734807 136.203898,85.8486188 134.942894,89.2944751 C130.32437,89.4878453 125.69811,89.340884 121.079587,89.4066298 C99.5535531,89.4839779 78.0275197,89.360221 56.5014862,89.4259669 C54.3082677,89.5110497 51.9139075,89.6889503 50.1345768,91.1198895 C49.0515059,91.9088398 49.125,93.3745856 48.9122539,94.5541436 C49.9953248,94.8055249 51.09,95.0646409 52.211752,95.0530387 C90.7613386,95.0375691 129.314793,95.0453039 167.868248,95.0491713 C170.846693,95.1071823 173.813533,94.6856354 176.795846,94.7281768 C239.830571,94.7475138 302.865295,94.8055249 365.90002,94.7243094 C367.857283,98.7116022 369.21499,102.954144 370.406368,107.223757 C373.485384,118.752486 374.908848,130.718232 374.649685,142.649171 C374.305423,155.597238 372.150886,168.576243 367.532362,180.708287 C365.629252,185.697238 363.772559,190.71326 361.575472,195.586188 C359.293287,200.702762 356.651368,205.726519 353.038553,210.042541 C348.980906,210.761878 344.884577,209.841436 340.811457,210.166298 C337.190906,210.398343 333.562618,210.158564 329.942067,210.28232 C325.315807,210.433149 320.689547,209.88011 316.067156,210.251381 C304.578868,210.305525 293.090581,210.201105 281.602293,210.274586 C272.70564,210.123757 263.805118,210.332597 254.904596,210.29779 C248.324941,210.320994 241.749154,209.829834 235.173366,210.232044 C230.941654,209.945856 226.717677,210.371271 222.485965,210.204972 C217.557992,210.100552 212.63002,210.135359 207.702047,210.262983 C203.450994,210.027072 199.199941,210.320994 194.948888,210.158564 C190.450276,210.525967 185.943927,209.922652 181.445315,210.247514 C170.866033,210.421547 160.286752,210.08895 149.703602,210.154696 C146.090787,210.143094 142.477972,210.355801 138.861289,210.270718 C134.993179,210.08895 131.125069,210.41768 127.260827,210.139227 C120.56126,210.572376 113.850089,209.934254 107.150522,210.278453 C102.628701,210.239779 98.1068799,210.367403 93.5889272,210.216575 C90.6298228,210.003867 87.6745866,210.270718 84.7154823,210.259116 C76.8322736,210.355801 68.9451969,210.170166 61.0658563,210.309392 C59.8783465,210.150829 59.2594488,211.388398 59.2014272,212.393923 C59.0931201,214.428177 60.9536811,216.350276 62.9999114,216.261326 C73.6913681,216.261326 84.3828248,216.265193 95.0704134,216.253591 C90.2236713,221.787845 84.3634843,226.645304 77.4705118,229.379558 C72.9100098,231.143094 67.7808957,231.738674 63.0385925,230.358011 C56.5556398,228.656354 51.3027461,223.856906 47.8407874,218.256906 C43.3537795,211.059669 41.5705807,202.50884 41.2959449,194.124309 C40.8820571,181.025414 43.5007677,167.972928 47.8407874,155.659116 C51.7127657,144.88453 56.9540551,134.539227 63.9166535,125.427624 C69.9276969,117.642541 78.5265059,111.578453 88.2741437,109.675691 C95.3875984,108.666298 103.050325,109.292818 109.351476,112.99779 C114.732018,116.083978 118.689094,121.274033 120.874577,127.017127 C121.926703,129.662431 122.290305,132.539779 123.562913,135.103867 C124.189547,135.049724 124.816181,135.003315 125.450551,134.956906 C126.552963,132.009945 127.137047,128.908287 127.933878,125.868508 C129.755758,118.698343 131.457726,111.497238 133.326024,104.342541 C133.689626,103.209392 133.399518,102.037569 133.136486,100.923757 C129.918219,100.370718 126.649665,100.637569 123.408189,100.59116 C113.741781,100.618232 104.079242,100.525414 94.4167028,100.633702 C90.8309646,100.966298 87.2220177,100.885083 83.6362795,101.213812 C72.8558563,102.579006 62.3732776,106.245304 53.0704724,111.860773 C42.2707087,118.365746 33.1922539,127.550829 26.3843799,138.135912 C20.0522835,147.993923 15.511122,159.039227 13.3179035,170.556354 C11.29875,181.145304 11.6584843,192.240884 14.8458071,202.566851 C17.1279921,209.965193 20.8375098,216.938122 25.8118996,222.878453 C33.4088681,231.90884 43.9417323,238.626519 55.5654035,240.970166 C61.9593898,242.2 68.6821654,242.285083 74.9601083,240.39779 C80.8589764,238.68453 86.3246161,235.671823 91.1945669,231.959116 C97.0547539,227.5 102.280571,222.205525 106.624459,216.257459 C110.79815,216.288398 114.967972,216.19558 119.141663,216.319337 C129.256772,216.477901 139.37188,216.207182 149.486988,216.450829 C150.531378,217.58011 151.451988,218.813812 152.360994,220.055249 C164.069764,235.122652 179.337195,247.401657 196.56189,255.61989 C221.604035,267.562431 250.514291,270.996685 277.726447,265.767956 C301.209744,261.250829 323.327598,249.930939 340.707018,233.50221 C358.527402,216.795028 371.423681,194.89779 377.283868,171.179006 C380.463455,158.362431 381.840502,145.050829 380.86187,131.862983 C379.887106,118.226519 377.125276,104.620994 371.775679,92.0055249 C367.594252,82.120442 362.395512,72.6414365 355.978317,64.0287293 C341.712726,44.741989 322.000837,29.4657459 299.616083,20.7718232 C269.908996,9.09226519 235.842549,8.94530387 206.069705,20.4740331 L206.069705,20.4740331 Z M171.910423,105.877901 C167.682579,106.427072 164.278642,109.749171 162.723661,113.59337 C161.443317,116.722099 161.04877,120.29558 161.965512,123.575138 C163.064055,126.127624 165.922589,127.601105 168.630266,127.59337 C171.407569,127.775138 174.289311,127.152486 176.556024,125.481768 C179.956093,123.029834 181.685138,118.883978 182.284695,114.846409 C182.62122,112.135359 181.994587,109.00663 179.743346,107.239227 C177.523051,105.556906 174.552343,105.510497 171.910423,105.877901 L171.910423,105.877901 Z M268.996122,105.901105 C265.189902,106.902762 261.805305,109.555801 260.21938,113.198895 C258.822992,116.48232 257.848228,120.403867 259.511516,123.78011 C260.285138,125.624862 262.161171,126.618785 264.00626,127.090608 C268.063907,128.119337 272.4194,127.651381 276.376476,126.409945 C277.157835,122.91768 277.877303,119.409945 278.647057,115.91768 C275.761447,115.90221 272.875837,115.909945 269.990226,115.898343 C269.734931,117.101105 269.518317,118.311602 269.32878,119.525967 C270.643937,119.537569 271.962963,119.549171 273.281988,119.560773 C272.918386,120.976243 272.58186,122.391713 272.245335,123.814917 C269.916732,124.259669 267.255472,124.557459 265.197638,123.126519 C263.723888,122.062983 263.51501,120.059669 263.669734,118.385083 C263.986919,114.827072 265.665679,110.955801 269.092825,109.404972 C270.949518,108.577348 273.510207,108.666298 274.821496,110.410497 C274.964616,111.141436 274.89499,111.89558 274.925935,112.641989 C276.523465,112.638122 278.124862,112.641989 279.72626,112.641989 C279.733996,111.040884 280.020236,109.188398 278.852067,107.88895 C277.69937,106.616575 276.039951,105.730939 274.307037,105.703867 C272.535443,105.634254 270.748376,105.61105 268.996122,105.901105 L268.996122,105.901105 Z M148.690157,105.943646 C147.448494,113.032597 145.549252,119.993923 144.400423,127.10221 C148.918376,127.113812 153.436329,127.109945 157.954281,127.10221 C158.209577,125.872376 158.4494,124.638674 158.67375,123.404972 C155.722382,123.401105 152.767146,123.412707 149.815778,123.389503 C150.87564,117.545856 152.515719,111.814365 153.312549,105.924309 C151.773041,105.924309 150.229665,105.932044 148.690157,105.943646 L148.690157,105.943646 Z M188.485276,109.196133 C187.119833,110.828177 186.752362,113.164088 187.282293,115.190608 C188.110069,116.888398 190.017047,117.611602 191.684203,118.222652 C193.18503,118.795028 194.937283,118.752486 196.264045,119.734807 C197.343248,120.651381 196.689537,122.287293 195.7844,123.072376 C194.264232,124.499448 191.982047,124.48011 190.094409,123.923204 C189.189272,122.871271 189.216348,121.506077 189.293711,120.202762 C187.734862,120.20663 186.176014,120.210497 184.617165,120.225967 C184.551407,121.618232 184.346398,123.041436 184.671319,124.418232 C185.239931,126.158564 187.046339,127.140884 188.759911,127.438674 C192.040069,127.895028 195.618071,127.558564 198.418583,125.651934 C200.066398,124.491713 201.520807,122.755249 201.656191,120.662983 C201.745157,119.359669 201.853465,117.746961 200.731713,116.826519 C198.542362,115.132597 195.664488,114.923757 193.165689,113.914365 C191.765433,113.469613 192.001388,111.609392 192.597077,110.6 C193.75751,108.759116 196.399429,108.735912 198.093661,109.803315 C198.492077,110.530387 198.542362,111.396685 198.755108,112.197238 C200.22499,112.201105 201.694872,112.189503 203.164754,112.177901 C203.141545,110.553591 203.400709,108.592818 202.02753,107.405525 C200.008376,105.533702 197.087953,105.727072 194.538868,105.874033 C192.245079,106.272376 189.959026,107.335912 188.485276,109.196133 L188.485276,109.196133 Z M340.401437,111.474033 C339.794144,113.156354 339.948868,115.345304 341.469035,116.501657 C343.898209,118.485635 347.205443,118.50884 349.944065,119.839227 C350.048504,121.359116 349.472156,122.987293 348.110581,123.791713 C346.458898,124.464641 344.606073,124.30221 342.927313,123.834254 C342.559843,122.654696 342.33936,121.440331 342.246526,120.210497 C340.78438,120.210497 339.326102,120.195028 337.867825,120.187293 C337.469409,122.074586 337.206378,124.356354 338.668524,125.88011 C340.548425,127.720994 343.387618,127.686188 345.84,127.558564 C349.398661,127.365193 353.181673,125.454696 354.523907,121.985635 C355.177618,120.334254 355.340079,118.122099 353.912746,116.822652 C351.762077,115.043646 348.826181,115.020442 346.346722,113.960773 C345.642726,113.651381 344.73372,113.075138 345.019961,112.166298 C345.313937,109.493923 348.899675,108.074586 351.027136,109.625414 C351.680846,110.309945 351.676978,111.350276 351.951614,112.216575 C353.394419,112.204972 354.841093,112.197238 356.287766,112.185635 C356.283898,110.565193 356.465699,108.650829 355.181486,107.420994 C352.961191,105.363536 349.665561,105.564641 346.899862,106.075138 C343.994911,106.597238 341.345256,108.635359 340.401437,111.474033 L340.401437,111.474033 Z M222.122362,106.249171 C218.316142,113.264641 214.142451,120.075138 210.301417,127.071271 C211.767431,127.098343 213.233445,127.109945 214.699459,127.109945 C215.51563,125.651934 216.343406,124.19779 217.155709,122.739779 C219.886594,122.70884 222.621348,122.720442 225.356102,122.724309 C225.503091,124.193923 225.704232,125.655801 225.955659,127.113812 C227.452618,127.113812 228.957313,127.10221 230.45814,127.08674 C229.711594,120.098343 228.671073,113.144751 227.692441,106.183425 C225.835748,106.175691 223.975187,106.19116 222.122362,106.249171 L222.122362,106.249171 Z M238.352953,106.20663 C236.832785,113.160221 235.417057,120.137017 233.873681,127.08674 C235.324222,127.10221 236.778632,127.109945 238.233041,127.113812 C239.161388,122.967956 240.054921,118.814365 240.902037,114.653039 C241.149596,113.369061 241.548012,112.123757 242.012185,110.905525 C243.594242,116.258011 244.715994,121.734254 246.212953,127.109945 C248.3056,127.106077 250.402116,127.106077 252.498632,127.113812 C254.003327,120.144751 255.477077,113.171823 256.954695,106.198895 C255.523494,106.19116 254.088425,106.195028 252.661093,106.20663 C251.442638,111.562983 250.436929,116.965746 249.12564,122.298895 C247.945866,116.888398 246.344469,111.578453 245.006102,106.20663 C242.785807,106.183425 240.56938,106.187293 238.352953,106.20663 L238.352953,106.20663 Z M281.77249,127.082873 C286.669518,127.10221 291.570413,127.183425 296.467441,127.032597 C296.598957,125.818232 296.742077,124.607735 296.892933,123.397238 C293.724951,123.404972 290.560837,123.412707 287.392854,123.389503 C287.601732,121.587293 287.942126,119.808287 288.328937,118.037017 C291.388612,118.009945 294.452156,118.067956 297.511831,117.975138 C297.627874,116.768508 297.751654,115.565746 297.883169,114.366851 C294.95501,114.38232 292.02685,114.393923 289.098691,114.343646 C289.454557,112.746409 289.849104,111.156906 290.301673,109.582873 C293.41937,109.598343 296.540935,109.58674 299.6625,109.598343 C299.902323,108.465193 300.146014,107.332044 300.405177,106.198895 C295.674478,106.19116 290.947648,106.167956 286.216949,106.218232 C284.766407,113.179558 283.288789,120.133149 281.77249,127.082873 L281.77249,127.082873 Z M305.197766,106.198895 C303.685335,113.156354 302.223189,120.121547 300.761043,127.090608 C305.340886,127.11768 309.924596,127.133149 314.504439,127.075138 C314.717185,125.849171 314.941535,124.623204 315.181358,123.401105 C312.199045,123.401105 309.212864,123.416575 306.230551,123.377901 C307.514764,117.665746 308.655856,111.918785 309.924596,106.202762 C308.346407,106.195028 306.772087,106.19116 305.197766,106.198895 L305.197766,106.198895 Z M318.395758,127.090608 C323.223159,127.133149 328.054429,127.094475 332.885699,127.109945 C333.125522,125.876243 333.357608,124.642541 333.574222,123.404972 C330.328878,123.397238 327.083533,123.420442 323.838189,123.381768 C324.221132,121.602762 324.607943,119.823757 324.979281,118.040884 C327.946122,118.013812 330.916831,118.029282 333.887539,118.029282 C334.127362,116.81105 334.367185,115.592818 334.599272,114.374586 C331.644035,114.370718 328.688799,114.393923 325.733563,114.351381 C326.073957,112.746409 326.449163,111.153039 326.9056,109.579006 C330.042638,109.598343 333.179675,109.598343 336.320581,109.58674 C336.533327,108.453591 336.757677,107.320442 336.989764,106.19116 C332.270669,106.202762 327.555443,106.164088 322.840217,106.214365 C321.389675,113.179558 319.88498,120.133149 318.395758,127.090608 L318.395758,127.090608 Z M329.477894,140.266851 C324.959941,142.092265 321.567608,146.377348 320.747569,151.169061 C319.931398,155.717127 320.646998,160.636464 323.184478,164.546409 C327.153159,170.656906 332.007638,176.283978 334.80815,183.082873 C335.864144,185.666298 336.30124,188.798895 334.854567,191.324309 C333.732815,193.118785 332.081132,194.654144 330.089055,195.416022 C327.58252,196.266851 324.751063,195.61326 322.623602,194.112707 C318.593031,191.362983 316.287638,186.606077 315.796388,181.833702 C315.486939,179.451381 316.040079,176.968508 315.162018,174.675138 C312.674823,180.128177 312.574252,186.385635 309.69251,191.687845 C309.027195,192.944751 307.920915,194.271271 306.350463,194.170718 C305.170689,194.28674 304.3081,193.246409 303.983179,192.225414 C302.791801,188.748619 303.081909,185.016575 302.718307,181.412155 C302.463012,178.913812 302.888504,176.264641 301.813169,173.91326 C300.977657,171.851934 298.401496,171.062983 297.979872,168.761878 C302.184508,167.160773 306.605758,165.687293 309.951673,162.539227 C312.713504,160.060221 314.844833,156.575691 314.82936,152.770166 C314.968612,149.061326 314.25688,144.903867 311.394478,142.285635 C307.978937,139.412155 303.290787,139.207182 299.035866,139.245856 C289.214734,139.327072 279.389734,139.153039 269.568602,139.330939 C269.580207,139.551381 269.607283,139.988398 269.622756,140.204972 C270.868287,141.137017 272.492894,142.022652 272.76753,143.70884 C273.672667,149.378453 271.761821,154.924309 270.593652,160.400552 C268.83753,167.841436 266.969232,175.255249 264.977156,182.634254 C263.928898,186.397238 262.94253,190.233702 261.008474,193.660221 C260.087864,195.439227 258.149941,196.247514 256.676191,197.473481 C265.56124,197.647514 274.450157,197.659116 283.339075,197.473481 C281.992972,196.216575 280.263927,195.373481 279.146043,193.88453 C277.730315,191.78453 278.070709,189.092818 278.60064,186.760773 C279.614085,182.576243 280.801594,178.441989 281.737677,174.241989 C282.03939,173.050829 282.368179,171.592818 283.609843,171.047514 C284.998494,170.8 286.116378,172.010497 286.592156,173.190055 C287.636545,175.816022 287.973071,178.650829 288.359882,181.431492 C288.855,184.88895 288.491398,188.381215 288.607441,191.858011 C288.576496,194.356354 290.027037,196.618785 291.787028,198.285635 C295.717028,202.040884 302.521033,202.141436 306.481978,198.374586 C307.905443,198.629834 309.40627,198.989503 310.829734,198.513812 C313.053898,197.782873 315.134941,196.409945 317.560246,196.475691 C320.91003,196.262983 323.563553,198.823204 326.812766,199.155801 C333.202884,199.855801 340.15001,197.724862 344.36625,192.712707 C347.746978,188.771823 349.042795,183.349724 348.462579,178.252486 C348.118317,174.590055 346.660039,171.155801 344.934862,167.949724 C341.832638,162.19116 337.651211,157.11326 334.27435,151.520994 C333.3344,149.943094 332.529833,148.121547 332.827677,146.241989 C333.098445,144.528729 334.60314,143.310497 336.15812,142.745856 C340.262185,141.353591 345.197894,143.18674 347.356299,146.957459 C348.853258,149.475138 348.617303,152.518785 348.899675,155.322652 C349.700374,153.887845 350.218701,152.325414 350.620984,150.739779 C351.518386,147.290055 352.907037,143.987293 353.665187,140.502762 C350.052372,139.137569 346.141713,139.164641 342.347096,138.835912 C338.034154,138.658011 333.539409,138.592265 329.477894,140.266851 L329.477894,140.266851 Z M64.1100591,139.752486 C65.0229331,141.326519 67.0536909,141.632044 68.1483661,143.047514 C69.7613681,144.81105 69.5563583,147.421547 68.9916142,149.571823 C65.792687,161.649724 62.6131004,173.731492 59.4219094,185.809392 C58.176378,190.496685 55.5924803,195.075691 51.3066142,197.59337 C52.4979921,197.852486 53.7009744,198.111602 54.9271654,198.092265 C64.2067618,198.069061 73.4863583,198.072928 82.7698228,198.080663 C85.4736319,198.057459 88.1967815,198.235359 90.8773819,197.759669 C93.0783366,191.912155 95.0162598,185.913812 95.8672441,179.702762 C94.9388976,180.337017 94.1730118,181.172376 93.654685,182.170166 C91.6432677,185.790055 89.0361614,189.158564 85.6438287,191.579558 C82.2824409,193.88453 78.0352559,194.920994 74.0008169,194.360221 C72.353002,193.958011 72.2330906,192.00884 72.705,190.670718 C76.1979035,177.583425 79.686939,164.496133 83.2997539,151.439779 C84.0888484,148.442541 85.6941142,145.708287 87.6939272,143.360773 C88.9471949,141.875691 90.7922835,141.094475 92.215748,139.798895 C89.9761122,139.58232 87.724872,139.640331 85.4775,139.644199 C78.3563091,139.709945 71.23125,139.50884 64.1100591,139.752486 L64.1100591,139.752486 Z M105.874045,139.690608 C105.881781,139.907182 105.901122,140.340331 105.908858,140.553039 C107.15439,141.601105 108.643612,142.629834 109.065236,144.300552 C109.722815,147.042541 108.674557,149.769061 107.99377,152.395028 C105.131368,162.98011 102.280571,173.569061 99.4297736,184.158011 C98.6252067,187.19779 97.8477165,190.28011 96.3817028,193.083978 C95.4610925,194.878453 93.793937,196.096685 92.5406693,197.639779 C93.9177165,197.887293 95.3063681,198.103867 96.706624,198.096133 C101.731299,198.072928 106.755974,198.069061 111.78065,198.096133 C113.300817,198.107735 114.813248,197.898895 116.310207,197.635912 C115.81122,196.324862 114.565689,195.50884 114.035758,194.217127 C112.894665,191.718785 113.095807,188.833702 113.869429,186.265746 C116.960049,174.756354 119.876604,163.20442 123.060059,151.722099 C123.779528,149.277901 124.468051,146.80663 125.543386,144.490055 C126.525886,142.38232 128.622402,141.19116 130.328238,139.744751 C122.17813,139.555249 114.024154,139.644199 105.874045,139.690608 L105.874045,139.690608 Z M135.182717,139.667403 C137.61189,141.38453 140.551654,144.068508 139.646516,147.359669 C138.687224,152.290608 137.298573,157.124862 135.991152,161.970718 C134.358809,168.31326 132.726467,174.655801 131.063179,180.990608 C129.991713,184.819337 129.415364,188.849171 127.434892,192.356906 C126.417579,194.360221 124.642116,195.798895 123.152894,197.427072 C124.096713,197.717127 125.0444,198.103867 126.053976,198.08453 C131.10186,198.08453 136.153612,198.072928 141.201496,198.080663 C143.777657,198.049724 146.404104,198.312707 148.918376,197.601105 C147.282165,196.189503 145.023189,195.191713 144.265039,193.010497 C143.251594,190.31105 144.002008,187.410497 144.613169,184.71105 C145.731053,180.120442 146.972717,175.545304 148.659213,171.124862 C152.376467,170.807735 156.144006,171.565746 159.830315,170.803867 C165.26501,169.674586 170.603002,167.296133 174.459508,163.212155 C177.735797,159.835912 180.16497,155.214365 179.693061,150.39558 C179.43003,147.336464 178.343091,144.072376 175.778533,142.185083 C173.480876,140.583978 170.707441,139.58232 167.88372,139.679006 C156.983386,139.61326 146.083051,139.640331 135.182717,139.667403 L135.182717,139.667403 Z M179.874862,139.698343 C181.483996,140.990055 183.344557,142.239227 184.07563,144.269613 C184.702264,145.743094 184.477913,147.38674 184.087234,148.89116 C180.849626,161.355801 177.557864,173.80884 174.386014,186.28895 C173.457667,190.403867 171.647392,194.661878 167.937874,197.001657 C167.964951,197.357459 167.992028,197.717127 168.022972,198.076796 C176.211762,198.080663 184.404419,198.080663 192.593209,198.076796 C192.597077,197.790608 192.604813,197.214365 192.608681,196.928177 C191.30126,196.085083 189.761752,195.303867 189.142854,193.783978 C187.963081,191.045856 188.43499,187.963536 189.158327,185.175138 C190.369045,180.460773 191.517874,175.711602 193.289469,171.163536 C197.060876,170.776796 200.882569,171.58895 204.623031,170.776796 C210.935787,169.469613 217.159577,166.356354 220.977402,161.007735 C222.942402,158.157459 224.756545,154.800552 224.354262,151.219337 C224.180197,148.492818 223.317608,145.708287 221.437707,143.662431 C219.109104,140.98232 215.519498,139.605525 212.007254,139.636464 C201.296457,139.68674 190.585659,139.570718 179.874862,139.698343 L179.874862,139.698343 Z M223.147411,139.814365 C224.671447,141.341989 227.046467,141.999448 228.040571,144.018232 C228.601447,145.982873 228.28813,148.082873 227.847165,150.043646 C224.648238,162.349724 221.561486,174.68674 218.389636,187.000552 C217.225335,191.351381 214.320384,195.330939 210.123484,197.167956 C211.225896,197.481215 212.366988,197.655249 213.515817,197.604972 C227.18185,197.492818 240.847884,197.717127 254.510049,197.496685 C255.132815,197.581768 255.403583,196.920442 255.701427,196.498895 C256.478917,195.056354 256.769026,193.420442 257.260276,191.869613 C258.320138,187.924862 259.925404,184.092265 260.254193,179.981215 C256.045689,184.107735 253.481132,189.812155 248.44872,193.103315 C244.147382,195.802762 238.836467,195.593923 233.954911,195.543646 C232.067274,195.624862 230.883632,193.532597 231.448376,191.846409 C233.185157,185.016575 235.076663,178.221547 236.848258,171.399448 C237.254409,170.185083 237.587067,168.657459 238.898356,168.108287 C241.076102,167.145304 243.594242,168.251381 245.064124,169.956906 C247.709911,172.729834 248.003888,176.775138 248.309469,180.398895 C248.526083,180.306077 248.951575,180.116575 249.168189,180.023757 C250.943652,173.186188 252.579862,166.313812 254.378533,159.487845 C254.800157,157.937017 255.090266,156.351381 255.221781,154.750276 C252.70751,156.834807 251.094508,159.847514 248.309469,161.626519 C245.845482,163.347514 242.75873,163.946961 239.799626,163.676243 C239.671978,161.966851 239.780285,160.245856 240.209646,158.58674 C241.12252,155.009392 242.147569,151.462983 243.002421,147.870166 C243.482067,145.917127 244.271161,144.025967 245.524429,142.440331 C249.883789,142.649171 254.862047,141.492818 258.610246,144.362431 C261.878799,147.116022 261.515197,151.787845 261.824646,155.639779 C262.652421,154.568508 263.170748,153.3 263.426043,151.973481 C264.315709,147.874033 265.626998,143.863536 266.156929,139.690608 C251.821713,139.79116 237.482628,139.551381 223.147411,139.814365 L223.147411,139.814365 Z" id="Shape" fill="#FEFFFE" sketch:type="MSShapeGroup"></path>
                <path d="M206.069705,20.4740331 C235.842549,8.94530387 269.908996,9.09226519 299.616083,20.7718232 C322.000837,29.4657459 341.712726,44.741989 355.978317,64.0287293 C362.395512,72.6414365 367.594252,82.120442 371.775679,92.0055249 C377.125276,104.620994 379.887106,118.226519 380.86187,131.862983 C381.840502,145.050829 380.463455,158.362431 377.283868,171.179006 C371.423681,194.89779 358.527402,216.795028 340.707018,233.50221 C323.327598,249.930939 301.209744,261.250829 277.726447,265.767956 C250.514291,270.996685 221.604035,267.562431 196.56189,255.61989 C179.337195,247.401657 164.069764,235.122652 152.360994,220.055249 C151.451988,218.813812 150.531378,217.58011 149.486988,216.450829 C139.37188,216.207182 129.256772,216.477901 119.141663,216.319337 C114.967972,216.19558 110.79815,216.288398 106.624459,216.257459 C102.771821,216.238122 98.9230512,216.241989 95.0704134,216.253591 C84.3828248,216.265193 73.6913681,216.261326 62.9999114,216.261326 C60.9536811,216.350276 59.0931201,214.428177 59.2014272,212.393923 C59.2594488,211.388398 59.8783465,210.150829 61.0658563,210.309392 C68.9451969,210.170166 76.8322736,210.355801 84.7154823,210.259116 C87.6745866,210.270718 90.6298228,210.003867 93.5889272,210.216575 C98.1068799,210.367403 102.628701,210.239779 107.150522,210.278453 C113.850089,209.934254 120.56126,210.572376 127.260827,210.139227 C131.125069,210.41768 134.993179,210.08895 138.861289,210.270718 C142.477972,210.355801 146.090787,210.143094 149.703602,210.154696 C160.286752,210.08895 170.866033,210.421547 181.445315,210.247514 C185.943927,209.922652 190.450276,210.525967 194.948888,210.158564 C199.199941,210.320994 203.450994,210.027072 207.702047,210.262983 C212.63002,210.135359 217.557992,210.100552 222.485965,210.204972 C226.717677,210.371271 230.941654,209.945856 235.173366,210.232044 C241.749154,209.829834 248.324941,210.320994 254.904596,210.29779 C263.805118,210.332597 272.70564,210.123757 281.602293,210.274586 C293.090581,210.201105 304.578868,210.305525 316.067156,210.251381 C320.689547,209.88011 325.315807,210.433149 329.942067,210.28232 C333.562618,210.158564 337.190906,210.398343 340.811457,210.166298 C344.884577,209.841436 348.980906,210.761878 353.038553,210.042541 C356.651368,205.726519 359.293287,200.702762 361.575472,195.586188 C363.772559,190.71326 365.629252,185.697238 367.532362,180.708287 C372.150886,168.576243 374.305423,155.597238 374.649685,142.649171 C374.908848,130.718232 373.485384,118.752486 370.406368,107.223757 C369.21499,102.954144 367.857283,98.7116022 365.90002,94.7243094 C302.865295,94.8055249 239.830571,94.7475138 176.795846,94.7281768 C173.813533,94.6856354 170.846693,95.1071823 167.868248,95.0491713 C129.314793,95.0453039 90.7613386,95.0375691 52.211752,95.0530387 C51.09,95.0646409 49.9953248,94.8055249 48.9122539,94.5541436 C49.125,93.3745856 49.0515059,91.9088398 50.1345768,91.1198895 C51.9139075,89.6889503 54.3082677,89.5110497 56.5014862,89.4259669 C78.0275197,89.360221 99.5535531,89.4839779 121.079587,89.4066298 C125.69811,89.340884 130.32437,89.4878453 134.942894,89.2944751 C136.203898,85.8486188 138.068327,82.6734807 139.623307,79.359116 C113.795935,79.3320442 87.9724311,79.359116 62.1450591,79.3436464 C61.1935039,77.1895028 63.1391634,74.8381215 65.3633268,74.8690608 C90.9895571,74.8033149 116.619656,74.9077348 142.249754,74.8187845 C144.237963,71.4309392 146.396368,68.1436464 148.666949,64.9414365 C127.605089,64.8486188 106.543228,64.9220994 85.4813681,64.898895 C81.5707087,64.8099448 77.6407087,65.1116022 73.7455217,64.6823204 C73.4012598,62.1414365 75.5016437,59.6353591 78.0816732,59.6508287 C102.46624,59.6933702 126.854675,59.6430939 151.24311,59.681768 C151.87748,59.6237569 152.662707,59.7088398 153.084331,59.1093923 C155.745591,56.2049724 158.213445,53.1110497 161.106791,50.4232044 C140.803081,50.2878453 120.49937,50.3883978 100.195659,50.3574586 C96.1650886,50.2530387 92.1035728,50.6359116 88.1000787,50.0171271 C88.0962106,48.7370166 88.3979232,47.3640884 89.4655217,46.5403315 C90.7961516,45.2950276 92.7224705,45.5464088 94.3934941,45.5348066 C117.865187,45.5464088 141.33688,45.5425414 164.808573,45.538674 C165.702106,45.5928177 166.518278,45.1519337 167.156516,44.5563536 C178.509419,34.241989 191.765433,26.0237569 206.069705,20.4740331 L206.069705,20.4740331 Z M216.06877,23.9585635 C203.327215,28.0541436 191.281919,34.2883978 180.524705,42.2475138 C182.091289,41.9071823 183.657874,41.5629834 185.216722,41.1801105 C203.58251,36.3651934 222.950138,35.2165746 241.718209,38.1790055 C254.997431,40.2132597 267.851161,44.5331492 279.958346,50.3071823 C281.85372,46.459116 283.180482,42.038674 282.109016,37.7535912 C280.944715,33.7430939 277.734183,30.7767956 274.481102,28.3635359 C269.038671,24.3066298 262.872904,21.3519337 256.618169,18.7762431 C254.606752,17.8867403 252.37872,18.2154696 250.25126,18.238674 C238.66627,18.5519337 227.108356,20.4005525 216.06877,23.9585635 L216.06877,23.9585635 Z M270.968858,19.5961326 C274.481102,21.6187845 277.919852,23.8309392 280.898297,26.6 C284.267421,29.7674033 287.199449,33.781768 287.868632,38.4651934 C288.595837,43.4618785 287.083406,48.4779006 284.882451,52.9176796 C292.127421,56.8856354 299.078415,61.398895 305.584577,66.4845304 C306.133848,66.921547 307.162766,67.640884 307.619203,66.6972376 C313.208622,58.1812155 318.61624,49.5375691 323.664124,40.6889503 C308.114321,29.601105 289.914862,22.179558 270.968858,19.5961326 L270.968858,19.5961326 Z M170.142697,51.7690608 C169.160197,52.1132597 168.278268,52.6972376 167.547195,53.4320442 C157.07622,63.8895028 148.264665,76.1259669 142.385138,89.7430939 C163.392844,89.8165746 184.396683,89.8475138 205.40439,89.8320442 C207.206929,89.781768 209.106171,90.079558 210.819744,89.3447514 C222.110758,84.5569061 233.633858,80.3530387 245.137618,76.118232 C252.340039,73.4651934 259.283297,70.0270718 265.534163,65.5524862 C269.731063,62.5165746 273.703612,59.078453 276.805837,54.9016575 C260.161358,46.8033149 241.718209,42.4099448 223.205433,42.1972376 C205.110413,41.9303867 187.065679,45.4651934 170.142697,51.7690608 L170.142697,51.7690608 Z M328.127923,43.9723757 C322.766722,53.1497238 317.134754,62.1685083 311.351929,71.0906077 C317.974134,76.578453 324.410669,82.3022099 330.429449,88.4513812 C333.891407,83.9574586 338.502195,80.0127072 344.1419,78.6823204 C349.317431,77.3364641 354.790807,78.6088398 359.506033,80.8983425 C351.750472,66.5812155 340.823061,54.1127072 328.127923,43.9723757 L328.127923,43.9723757 Z M281.791831,57.5779006 C274.566201,66.9524862 264.412411,73.6585635 253.713219,78.4734807 C246.862795,81.5016575 239.714528,83.779558 232.740325,86.4983425 C230.241526,87.4922652 227.611211,88.2038674 225.317421,89.638674 C247.620945,89.8745856 269.928337,89.6889503 292.235728,89.7585635 C296.239222,83.9149171 300.184695,78.0325967 304.072146,72.1116022 C297.036053,66.7088398 289.791083,61.4723757 281.791831,57.5779006 L281.791831,57.5779006 Z M299.070679,89.7353591 C307.39872,89.7895028 315.726762,89.7005525 324.054803,89.7856354 C321.745541,87.5889503 319.45562,85.3729282 317.099941,83.2265193 C314.206594,80.6933702 311.471841,77.920442 308.269045,75.7779006 C305.244183,80.4574586 301.983366,84.9823204 299.070679,89.7353591 L299.070679,89.7353591 Z M336.688051,89.6850829 C345.638858,89.8320442 354.593533,89.7160221 363.548209,89.7508287 C359.53311,86.6066298 354.817884,84.0734807 349.669429,83.5861878 C344.640886,83.1955801 339.817352,85.879558 336.688051,89.6850829 L336.688051,89.6850829 Z M158.600256,216.164641 C165.001978,224.011602 172.239213,231.228177 180.470551,237.160773 C186.218563,230.238122 191.939498,223.292265 197.598543,216.296133 C184.597825,216.141436 171.597106,216.381215 158.600256,216.164641 L158.600256,216.164641 Z M204.147254,216.841436 C197.730059,224.669061 191.390226,232.562431 184.868593,240.304972 C208.309341,256.625414 237.811417,263.606077 266.137589,260.659116 C268.58997,260.581768 270.485344,258.864641 272.574124,257.80884 C277.115285,255.322099 281.466909,252.433149 285.137746,248.759116 C294.386398,239.809945 300.509616,228.153591 304.86124,216.168508 C272.094478,216.098895 239.327717,216.18011 206.564823,216.125967 C205.721575,216.172376 204.673317,216.01768 204.147254,216.841436 L204.147254,216.841436 Z M310.636329,216.156906 C308.721614,221.536464 306.54,226.830939 303.913553,231.904972 C298.80378,241.724309 292.100344,251.009945 283.033494,257.530387 C287.969203,256.435912 292.800472,254.900552 297.49249,253.024862 C307.170502,249.234807 316.361132,244.214917 324.743327,238.065746 C333.47752,231.7 341.407146,224.266851 348.551545,216.168508 C335.914429,216.114365 323.273445,216.141436 310.636329,216.156906 L310.636329,216.156906 Z" id="Shape" fill="#D0103C" sketch:type="MSShapeGroup"></path>
                <path d="M216.06877,23.9585635 C227.108356,20.4005525 238.66627,18.5519337 250.25126,18.238674 C252.37872,18.2154696 254.606752,17.8867403 256.618169,18.7762431 C262.872904,21.3519337 269.038671,24.3066298 274.481102,28.3635359 C277.734183,30.7767956 280.944715,33.7430939 282.109016,37.7535912 C283.180482,42.038674 281.85372,46.459116 279.958346,50.3071823 C267.851161,44.5331492 254.997431,40.2132597 241.718209,38.1790055 C222.950138,35.2165746 203.58251,36.3651934 185.216722,41.1801105 C183.657874,41.5629834 182.091289,41.9071823 180.524705,42.2475138 C191.281919,34.2883978 203.327215,28.0541436 216.06877,23.9585635 L216.06877,23.9585635 Z" id="Shape" fill="#FEFFFE" sketch:type="MSShapeGroup"></path>
                <path d="M270.968858,19.5961326 C289.914862,22.179558 308.114321,29.601105 323.664124,40.6889503 C318.61624,49.5375691 313.208622,58.1812155 307.619203,66.6972376 C307.162766,67.640884 306.133848,66.921547 305.584577,66.4845304 C299.078415,61.398895 292.127421,56.8856354 284.882451,52.9176796 C287.083406,48.4779006 288.595837,43.4618785 287.868632,38.4651934 C287.199449,33.781768 284.267421,29.7674033 280.898297,26.6 C277.919852,23.8309392 274.481102,21.6187845 270.968858,19.5961326 L270.968858,19.5961326 Z" id="Shape" fill="#FEFFFE" sketch:type="MSShapeGroup"></path>
                <path d="M170.142697,51.7690608 C187.065679,45.4651934 205.110413,41.9303867 223.205433,42.1972376 C241.718209,42.4099448 260.161358,46.8033149 276.805837,54.9016575 C273.703612,59.078453 269.731063,62.5165746 265.534163,65.5524862 C259.283297,70.0270718 252.340039,73.4651934 245.137618,76.118232 C233.633858,80.3530387 222.110758,84.5569061 210.819744,89.3447514 C209.106171,90.079558 207.206929,89.781768 205.40439,89.8320442 C184.396683,89.8475138 163.392844,89.8165746 142.385138,89.7430939 C148.264665,76.1259669 157.07622,63.8895028 167.547195,53.4320442 C168.278268,52.6972376 169.160197,52.1132597 170.142697,51.7690608 L170.142697,51.7690608 Z" id="Shape" fill="#FEFFFE" sketch:type="MSShapeGroup"></path>
                <path d="M328.127923,43.9723757 C340.823061,54.1127072 351.750472,66.5812155 359.506033,80.8983425 C354.790807,78.6088398 349.317431,77.3364641 344.1419,78.6823204 C338.502195,80.0127072 333.891407,83.9574586 330.429449,88.4513812 C324.410669,82.3022099 317.974134,76.578453 311.351929,71.0906077 C317.134754,62.1685083 322.766722,53.1497238 328.127923,43.9723757 L328.127923,43.9723757 Z" id="Shape" fill="#FEFFFE" sketch:type="MSShapeGroup"></path>
                <path d="M281.791831,57.5779006 C289.791083,61.4723757 297.036053,66.7088398 304.072146,72.1116022 C300.184695,78.0325967 296.239222,83.9149171 292.235728,89.7585635 C269.928337,89.6889503 247.620945,89.8745856 225.317421,89.638674 C227.611211,88.2038674 230.241526,87.4922652 232.740325,86.4983425 C239.714528,83.779558 246.862795,81.5016575 253.713219,78.4734807 C264.412411,73.6585635 274.566201,66.9524862 281.791831,57.5779006 L281.791831,57.5779006 Z" id="Shape" fill="#FEFFFE" sketch:type="MSShapeGroup"></path>
                <path d="M299.070679,89.7353591 C301.983366,84.9823204 305.244183,80.4574586 308.269045,75.7779006 C311.471841,77.920442 314.206594,80.6933702 317.099941,83.2265193 C319.45562,85.3729282 321.745541,87.5889503 324.054803,89.7856354 C315.726762,89.7005525 307.39872,89.7895028 299.070679,89.7353591 L299.070679,89.7353591 Z" id="Shape" fill="#FEFFFE" sketch:type="MSShapeGroup"></path>
                <path d="M336.688051,89.6850829 C339.817352,85.879558 344.640886,83.1955801 349.669429,83.5861878 C354.817884,84.0734807 359.53311,86.6066298 363.548209,89.7508287 C354.593533,89.7160221 345.638858,89.8320442 336.688051,89.6850829 L336.688051,89.6850829 Z" id="Shape" fill="#FEFFFE" sketch:type="MSShapeGroup"></path>
                <path d="M83.6362795,101.213812 C87.2220177,100.885083 90.8309646,100.966298 94.4167028,100.633702 C104.079242,100.525414 113.741781,100.618232 123.408189,100.59116 C126.649665,100.637569 129.918219,100.370718 133.136486,100.923757 C133.399518,102.037569 133.689626,103.209392 133.326024,104.342541 C131.457726,111.497238 129.755758,118.698343 127.933878,125.868508 C127.137047,128.908287 126.552963,132.009945 125.450551,134.956906 C124.816181,135.003315 124.189547,135.049724 123.562913,135.103867 C122.290305,132.539779 121.926703,129.662431 120.874577,127.017127 C118.689094,121.274033 114.732018,116.083978 109.351476,112.99779 C103.050325,109.292818 95.3875984,108.666298 88.2741437,109.675691 C78.5265059,111.578453 69.9276969,117.642541 63.9166535,125.427624 C56.9540551,134.539227 51.7127657,144.88453 47.8407874,155.659116 C43.5007677,167.972928 40.8820571,181.025414 41.2959449,194.124309 C41.5705807,202.50884 43.3537795,211.059669 47.8407874,218.256906 C51.3027461,223.856906 56.5556398,228.656354 63.0385925,230.358011 C67.7808957,231.738674 72.9100098,231.143094 77.4705118,229.379558 C84.3634843,226.645304 90.2236713,221.787845 95.0704134,216.253591 C98.9230512,216.241989 102.771821,216.238122 106.624459,216.257459 C102.280571,222.205525 97.0547539,227.5 91.1945669,231.959116 C86.3246161,235.671823 80.8589764,238.68453 74.9601083,240.39779 C68.6821654,242.285083 61.9593898,242.2 55.5654035,240.970166 C43.9417323,238.626519 33.4088681,231.90884 25.8118996,222.878453 C20.8375098,216.938122 17.1279921,209.965193 14.8458071,202.566851 C11.6584843,192.240884 11.29875,181.145304 13.3179035,170.556354 C15.511122,159.039227 20.0522835,147.993923 26.3843799,138.135912 C33.1922539,127.550829 42.2707087,118.365746 53.0704724,111.860773 C62.3732776,106.245304 72.8558563,102.579006 83.6362795,101.213812 L83.6362795,101.213812 Z" id="Shape" fill="#0446AC" sketch:type="MSShapeGroup"></path>
                <path d="M171.910423,105.877901 C174.552343,105.510497 177.523051,105.556906 179.743346,107.239227 C181.994587,109.00663 182.62122,112.135359 182.284695,114.846409 C181.685138,118.883978 179.956093,123.029834 176.556024,125.481768 C174.289311,127.152486 171.407569,127.775138 168.630266,127.59337 C165.922589,127.601105 163.064055,126.127624 161.965512,123.575138 C161.04877,120.29558 161.443317,116.722099 162.723661,113.59337 C164.278642,109.749171 167.682579,106.427072 171.910423,105.877901 L171.910423,105.877901 Z M171.906555,109.277348 C170.32063,109.830387 168.924242,110.924862 168.142884,112.425414 C166.506673,115.310497 166.034764,118.810497 166.560827,122.062983 C167.500778,124.10884 170.297421,124.890055 172.266289,123.853591 C175.681831,122.372376 176.842264,118.41989 177.457293,115.066851 C177.971752,112.966851 177.190394,110.541989 175.349173,109.339227 C174.273839,108.867403 173.008967,108.944751 171.906555,109.277348 L171.906555,109.277348 Z" id="Shape" fill="#0446AC" sketch:type="MSShapeGroup"></path>
                <path d="M268.996122,105.901105 C270.748376,105.61105 272.535443,105.634254 274.307037,105.703867 C276.039951,105.730939 277.69937,106.616575 278.852067,107.88895 C280.020236,109.188398 279.733996,111.040884 279.72626,112.641989 C278.124862,112.641989 276.523465,112.638122 274.925935,112.641989 C274.89499,111.89558 274.964616,111.141436 274.821496,110.410497 C273.510207,108.666298 270.949518,108.577348 269.092825,109.404972 C265.665679,110.955801 263.986919,114.827072 263.669734,118.385083 C263.51501,120.059669 263.723888,122.062983 265.197638,123.126519 C267.255472,124.557459 269.916732,124.259669 272.245335,123.814917 C272.58186,122.391713 272.918386,120.976243 273.281988,119.560773 C271.962963,119.549171 270.643937,119.537569 269.32878,119.525967 C269.518317,118.311602 269.734931,117.101105 269.990226,115.898343 C272.875837,115.909945 275.761447,115.90221 278.647057,115.91768 C277.877303,119.409945 277.157835,122.91768 276.376476,126.409945 C272.4194,127.651381 268.063907,128.119337 264.00626,127.090608 C262.161171,126.618785 260.285138,125.624862 259.511516,123.78011 C257.848228,120.403867 258.822992,116.48232 260.21938,113.198895 C261.805305,109.555801 265.189902,106.902762 268.996122,105.901105 L268.996122,105.901105 Z" id="Shape" fill="#0446AC" sketch:type="MSShapeGroup"></path>
                <path d="M148.690157,105.943646 C150.229665,105.932044 151.773041,105.924309 153.312549,105.924309 C152.515719,111.814365 150.87564,117.545856 149.815778,123.389503 C152.767146,123.412707 155.722382,123.401105 158.67375,123.404972 C158.4494,124.638674 158.209577,125.872376 157.954281,127.10221 C153.436329,127.109945 148.918376,127.113812 144.400423,127.10221 C145.549252,119.993923 147.448494,113.032597 148.690157,105.943646 L148.690157,105.943646 Z" id="Shape" fill="#0446AC" sketch:type="MSShapeGroup"></path>
                <path d="M188.485276,109.196133 C189.959026,107.335912 192.245079,106.272376 194.538868,105.874033 C197.087953,105.727072 200.008376,105.533702 202.02753,107.405525 C203.400709,108.592818 203.141545,110.553591 203.164754,112.177901 C201.694872,112.189503 200.22499,112.201105 198.755108,112.197238 C198.542362,111.396685 198.492077,110.530387 198.093661,109.803315 C196.399429,108.735912 193.75751,108.759116 192.597077,110.6 C192.001388,111.609392 191.765433,113.469613 193.165689,113.914365 C195.664488,114.923757 198.542362,115.132597 200.731713,116.826519 C201.853465,117.746961 201.745157,119.359669 201.656191,120.662983 C201.520807,122.755249 200.066398,124.491713 198.418583,125.651934 C195.618071,127.558564 192.040069,127.895028 188.759911,127.438674 C187.046339,127.140884 185.239931,126.158564 184.671319,124.418232 C184.346398,123.041436 184.551407,121.618232 184.617165,120.225967 C186.176014,120.210497 187.734862,120.20663 189.293711,120.202762 C189.216348,121.506077 189.189272,122.871271 190.094409,123.923204 C191.982047,124.48011 194.264232,124.499448 195.7844,123.072376 C196.689537,122.287293 197.343248,120.651381 196.264045,119.734807 C194.937283,118.752486 193.18503,118.795028 191.684203,118.222652 C190.017047,117.611602 188.110069,116.888398 187.282293,115.190608 C186.752362,113.164088 187.119833,110.828177 188.485276,109.196133 L188.485276,109.196133 Z" id="Shape" fill="#0446AC" sketch:type="MSShapeGroup"></path>
                <path d="M340.401437,111.474033 C341.345256,108.635359 343.994911,106.597238 346.899862,106.075138 C349.665561,105.564641 352.961191,105.363536 355.181486,107.420994 C356.465699,108.650829 356.283898,110.565193 356.287766,112.185635 C354.841093,112.197238 353.394419,112.204972 351.951614,112.216575 C351.676978,111.350276 351.680846,110.309945 351.027136,109.625414 C348.899675,108.074586 345.313937,109.493923 345.019961,112.166298 C344.73372,113.075138 345.642726,113.651381 346.346722,113.960773 C348.826181,115.020442 351.762077,115.043646 353.912746,116.822652 C355.340079,118.122099 355.177618,120.334254 354.523907,121.985635 C353.181673,125.454696 349.398661,127.365193 345.84,127.558564 C343.387618,127.686188 340.548425,127.720994 338.668524,125.88011 C337.206378,124.356354 337.469409,122.074586 337.867825,120.187293 C339.326102,120.195028 340.78438,120.210497 342.246526,120.210497 C342.33936,121.440331 342.559843,122.654696 342.927313,123.834254 C344.606073,124.30221 346.458898,124.464641 348.110581,123.791713 C349.472156,122.987293 350.048504,121.359116 349.944065,119.839227 C347.205443,118.50884 343.898209,118.485635 341.469035,116.501657 C339.948868,115.345304 339.794144,113.156354 340.401437,111.474033 L340.401437,111.474033 Z" id="Shape" fill="#0446AC" sketch:type="MSShapeGroup"></path>
                <path d="M222.122362,106.249171 C223.975187,106.19116 225.835748,106.175691 227.692441,106.183425 C228.671073,113.144751 229.711594,120.098343 230.45814,127.08674 C228.957313,127.10221 227.452618,127.113812 225.955659,127.113812 C225.704232,125.655801 225.503091,124.193923 225.356102,122.724309 C222.621348,122.720442 219.886594,122.70884 217.155709,122.739779 C216.343406,124.19779 215.51563,125.651934 214.699459,127.109945 C213.233445,127.109945 211.767431,127.098343 210.301417,127.071271 C214.142451,120.075138 218.316142,113.264641 222.122362,106.249171 L222.122362,106.249171 Z M219.256093,119.054144 C221.163071,119.08895 223.073917,119.08895 224.984764,119.081215 C224.474173,116.374033 224.389075,113.620442 224.095098,110.890055 C222.10689,113.372928 220.768524,116.277348 219.256093,119.054144 L219.256093,119.054144 Z" id="Shape" fill="#0446AC" sketch:type="MSShapeGroup"></path>
                <path d="M238.352953,106.20663 C240.56938,106.187293 242.785807,106.183425 245.006102,106.20663 C246.344469,111.578453 247.945866,116.888398 249.12564,122.298895 C250.436929,116.965746 251.442638,111.562983 252.661093,106.20663 C254.088425,106.195028 255.523494,106.19116 256.954695,106.198895 C255.477077,113.171823 254.003327,120.144751 252.498632,127.113812 C250.402116,127.106077 248.3056,127.106077 246.212953,127.109945 C244.715994,121.734254 243.594242,116.258011 242.012185,110.905525 C241.548012,112.123757 241.149596,113.369061 240.902037,114.653039 C240.054921,118.814365 239.161388,122.967956 238.233041,127.113812 C236.778632,127.109945 235.324222,127.10221 233.873681,127.08674 C235.417057,120.137017 236.832785,113.160221 238.352953,106.20663 L238.352953,106.20663 Z" id="Shape" fill="#0446AC" sketch:type="MSShapeGroup"></path>
                <path d="M281.77249,127.082873 C283.288789,120.133149 284.766407,113.179558 286.216949,106.218232 C290.947648,106.167956 295.674478,106.19116 300.405177,106.198895 C300.146014,107.332044 299.902323,108.465193 299.6625,109.598343 C296.540935,109.58674 293.41937,109.598343 290.301673,109.582873 C289.849104,111.156906 289.454557,112.746409 289.098691,114.343646 C292.02685,114.393923 294.95501,114.38232 297.883169,114.366851 C297.751654,115.565746 297.627874,116.768508 297.511831,117.975138 C294.452156,118.067956 291.388612,118.009945 288.328937,118.037017 C287.942126,119.808287 287.601732,121.587293 287.392854,123.389503 C290.560837,123.412707 293.724951,123.404972 296.892933,123.397238 C296.742077,124.607735 296.598957,125.818232 296.467441,127.032597 C291.570413,127.183425 286.669518,127.10221 281.77249,127.082873 L281.77249,127.082873 Z" id="Shape" fill="#0446AC" sketch:type="MSShapeGroup"></path>
                <path d="M305.197766,106.198895 C306.772087,106.19116 308.346407,106.195028 309.924596,106.202762 C308.655856,111.918785 307.514764,117.665746 306.230551,123.377901 C309.212864,123.416575 312.199045,123.401105 315.181358,123.401105 C314.941535,124.623204 314.717185,125.849171 314.504439,127.075138 C309.924596,127.133149 305.340886,127.11768 300.761043,127.090608 C302.223189,120.121547 303.685335,113.156354 305.197766,106.198895 L305.197766,106.198895 Z" id="Shape" fill="#0446AC" sketch:type="MSShapeGroup"></path>
                <path d="M318.395758,127.090608 C319.88498,120.133149 321.389675,113.179558 322.840217,106.214365 C327.555443,106.164088 332.270669,106.202762 336.989764,106.19116 C336.757677,107.320442 336.533327,108.453591 336.320581,109.58674 C333.179675,109.598343 330.042638,109.598343 326.9056,109.579006 C326.449163,111.153039 326.073957,112.746409 325.733563,114.351381 C328.688799,114.393923 331.644035,114.370718 334.599272,114.374586 C334.367185,115.592818 334.127362,116.81105 333.887539,118.029282 C330.916831,118.029282 327.946122,118.013812 324.979281,118.040884 C324.607943,119.823757 324.221132,121.602762 323.838189,123.381768 C327.083533,123.420442 330.328878,123.397238 333.574222,123.404972 C333.357608,124.642541 333.125522,125.876243 332.885699,127.109945 C328.054429,127.094475 323.223159,127.133149 318.395758,127.090608 L318.395758,127.090608 Z" id="Shape" fill="#0446AC" sketch:type="MSShapeGroup"></path>
                <path d="M171.906555,109.277348 C173.008967,108.944751 174.273839,108.867403 175.349173,109.339227 C177.190394,110.541989 177.971752,112.966851 177.457293,115.066851 C176.842264,118.41989 175.681831,122.372376 172.266289,123.853591 C170.297421,124.890055 167.500778,124.10884 166.560827,122.062983 C166.034764,118.810497 166.506673,115.310497 168.142884,112.425414 C168.924242,110.924862 170.32063,109.830387 171.906555,109.277348 L171.906555,109.277348 Z" id="Shape" fill="#FEFFFE" sketch:type="MSShapeGroup"></path>
                <path d="M219.256093,119.054144 C220.768524,116.277348 222.10689,113.372928 224.095098,110.890055 C224.389075,113.620442 224.474173,116.374033 224.984764,119.081215 C223.073917,119.08895 221.163071,119.08895 219.256093,119.054144 L219.256093,119.054144 Z" id="Shape" fill="#FEFFFE" sketch:type="MSShapeGroup"></path>
                <path d="M329.477894,140.266851 C333.539409,138.592265 338.034154,138.658011 342.347096,138.835912 C346.141713,139.164641 350.052372,139.137569 353.665187,140.502762 C352.907037,143.987293 351.518386,147.290055 350.620984,150.739779 C350.218701,152.325414 349.700374,153.887845 348.899675,155.322652 C348.617303,152.518785 348.853258,149.475138 347.356299,146.957459 C345.197894,143.18674 340.262185,141.353591 336.15812,142.745856 C334.60314,143.310497 333.098445,144.528729 332.827677,146.241989 C332.529833,148.121547 333.3344,149.943094 334.27435,151.520994 C337.651211,157.11326 341.832638,162.19116 344.934862,167.949724 C346.660039,171.155801 348.118317,174.590055 348.462579,178.252486 C349.042795,183.349724 347.746978,188.771823 344.36625,192.712707 C340.15001,197.724862 333.202884,199.855801 326.812766,199.155801 C323.563553,198.823204 320.91003,196.262983 317.560246,196.475691 C315.134941,196.409945 313.053898,197.782873 310.829734,198.513812 C309.40627,198.989503 307.905443,198.629834 306.481978,198.374586 C302.521033,202.141436 295.717028,202.040884 291.787028,198.285635 C290.027037,196.618785 288.576496,194.356354 288.607441,191.858011 C288.491398,188.381215 288.855,184.88895 288.359882,181.431492 C287.973071,178.650829 287.636545,175.816022 286.592156,173.190055 C286.116378,172.010497 284.998494,170.8 283.609843,171.047514 C282.368179,171.592818 282.03939,173.050829 281.737677,174.241989 C280.801594,178.441989 279.614085,182.576243 278.60064,186.760773 C278.070709,189.092818 277.730315,191.78453 279.146043,193.88453 C280.263927,195.373481 281.992972,196.216575 283.339075,197.473481 C274.450157,197.659116 265.56124,197.647514 256.676191,197.473481 C258.149941,196.247514 260.087864,195.439227 261.008474,193.660221 C262.94253,190.233702 263.928898,186.397238 264.977156,182.634254 C266.969232,175.255249 268.83753,167.841436 270.593652,160.400552 C271.761821,154.924309 273.672667,149.378453 272.76753,143.70884 C272.492894,142.022652 270.868287,141.137017 269.622756,140.204972 C269.607283,139.988398 269.580207,139.551381 269.568602,139.330939 C279.389734,139.153039 289.214734,139.327072 299.035866,139.245856 C303.290787,139.207182 307.978937,139.412155 311.394478,142.285635 C314.25688,144.903867 314.968612,149.061326 314.82936,152.770166 C314.844833,156.575691 312.713504,160.060221 309.951673,162.539227 C306.605758,165.687293 302.184508,167.160773 297.979872,168.761878 C298.401496,171.062983 300.977657,171.851934 301.813169,173.91326 C302.888504,176.264641 302.463012,178.913812 302.718307,181.412155 C303.081909,185.016575 302.791801,188.748619 303.983179,192.225414 C304.3081,193.246409 305.170689,194.28674 306.350463,194.170718 C307.920915,194.271271 309.027195,192.944751 309.69251,191.687845 C312.574252,186.385635 312.674823,180.128177 315.162018,174.675138 C316.040079,176.968508 315.486939,179.451381 315.796388,181.833702 C316.287638,186.606077 318.593031,191.362983 322.623602,194.112707 C324.751063,195.61326 327.58252,196.266851 330.089055,195.416022 C332.081132,194.654144 333.732815,193.118785 334.854567,191.324309 C336.30124,188.798895 335.864144,185.666298 334.80815,183.082873 C332.007638,176.283978 327.153159,170.656906 323.184478,164.546409 C320.646998,160.636464 319.931398,155.717127 320.747569,151.169061 C321.567608,146.377348 324.959941,142.092265 329.477894,140.266851 L329.477894,140.266851 Z M292.301486,142.633702 C290.939911,143.016575 289.941939,144.2 289.620886,145.557459 C288.197421,151.018232 286.944154,156.529282 285.458799,161.978453 C285.199636,163.107735 284.758671,164.30663 285.118406,165.462983 C285.54003,166.012155 286.089301,166.445304 286.599892,166.917127 C290.734902,166.549724 294.730659,164.345304 297.163701,160.961326 C300.149882,156.885083 301.128514,151.30442 299.353051,146.528177 C298.428573,143.732044 295.202569,141.717127 292.301486,142.633702 L292.301486,142.633702 Z" id="Shape" fill="#0446AC" sketch:type="MSShapeGroup"></path>
                <path d="M64.1100591,139.752486 C71.23125,139.50884 78.3563091,139.709945 85.4775,139.644199 C87.724872,139.640331 89.9761122,139.58232 92.215748,139.798895 C90.7922835,141.094475 88.9471949,141.875691 87.6939272,143.360773 C85.6941142,145.708287 84.0888484,148.442541 83.2997539,151.439779 C79.686939,164.496133 76.1979035,177.583425 72.705,190.670718 C72.2330906,192.00884 72.353002,193.958011 74.0008169,194.360221 C78.0352559,194.920994 82.2824409,193.88453 85.6438287,191.579558 C89.0361614,189.158564 91.6432677,185.790055 93.654685,182.170166 C94.1730118,181.172376 94.9388976,180.337017 95.8672441,179.702762 C95.0162598,185.913812 93.0783366,191.912155 90.8773819,197.759669 C88.1967815,198.235359 85.4736319,198.057459 82.7698228,198.080663 C73.4863583,198.072928 64.2067618,198.069061 54.9271654,198.092265 C53.7009744,198.111602 52.4979921,197.852486 51.3066142,197.59337 C55.5924803,195.075691 58.176378,190.496685 59.4219094,185.809392 C62.6131004,173.731492 65.792687,161.649724 68.9916142,149.571823 C69.5563583,147.421547 69.7613681,144.81105 68.1483661,143.047514 C67.0536909,141.632044 65.0229331,141.326519 64.1100591,139.752486 L64.1100591,139.752486 Z" id="Shape" fill="#0446AC" sketch:type="MSShapeGroup"></path>
                <path d="M105.874045,139.690608 C114.024154,139.644199 122.17813,139.555249 130.328238,139.744751 C128.622402,141.19116 126.525886,142.38232 125.543386,144.490055 C124.468051,146.80663 123.779528,149.277901 123.060059,151.722099 C119.876604,163.20442 116.960049,174.756354 113.869429,186.265746 C113.095807,188.833702 112.894665,191.718785 114.035758,194.217127 C114.565689,195.50884 115.81122,196.324862 116.310207,197.635912 C114.813248,197.898895 113.300817,198.107735 111.78065,198.096133 C106.755974,198.069061 101.731299,198.072928 96.706624,198.096133 C95.3063681,198.103867 93.9177165,197.887293 92.5406693,197.639779 C93.793937,196.096685 95.4610925,194.878453 96.3817028,193.083978 C97.8477165,190.28011 98.6252067,187.19779 99.4297736,184.158011 C102.280571,173.569061 105.131368,162.98011 107.99377,152.395028 C108.674557,149.769061 109.722815,147.042541 109.065236,144.300552 C108.643612,142.629834 107.15439,141.601105 105.908858,140.553039 C105.901122,140.340331 105.881781,139.907182 105.874045,139.690608 L105.874045,139.690608 Z" id="Shape" fill="#0446AC" sketch:type="MSShapeGroup"></path>
                <path d="M135.182717,139.667403 C146.083051,139.640331 156.983386,139.61326 167.88372,139.679006 C170.707441,139.58232 173.480876,140.583978 175.778533,142.185083 C178.343091,144.072376 179.43003,147.336464 179.693061,150.39558 C180.16497,155.214365 177.735797,159.835912 174.459508,163.212155 C170.603002,167.296133 165.26501,169.674586 159.830315,170.803867 C156.144006,171.565746 152.376467,170.807735 148.659213,171.124862 C146.972717,175.545304 145.731053,180.120442 144.613169,184.71105 C144.002008,187.410497 143.251594,190.31105 144.265039,193.010497 C145.023189,195.191713 147.282165,196.189503 148.918376,197.601105 C146.404104,198.312707 143.777657,198.049724 141.201496,198.080663 C136.153612,198.072928 131.10186,198.08453 126.053976,198.08453 C125.0444,198.103867 124.096713,197.717127 123.152894,197.427072 C124.642116,195.798895 126.417579,194.360221 127.434892,192.356906 C129.415364,188.849171 129.991713,184.819337 131.063179,180.990608 C132.726467,174.655801 134.358809,168.31326 135.991152,161.970718 C137.298573,157.124862 138.687224,152.290608 139.646516,147.359669 C140.551654,144.068508 137.61189,141.38453 135.182717,139.667403 L135.182717,139.667403 Z M156.650728,142.703315 C155.470955,143.612155 154.991309,145.09337 154.612234,146.474033 C153.092067,152.240331 151.5719,158.00663 149.982106,163.753591 C149.703602,164.81326 149.541142,165.9 149.40189,166.990608 C149.858327,167.323204 150.314764,167.663536 150.775069,168.003867 C155.142165,168.162431 159.443504,165.764641 161.625118,161.990055 C164.398553,157.426519 165.458415,151.927072 164.920748,146.640331 C164.723474,144.451381 162.862913,142.796133 160.963671,141.953039 C159.516998,141.813812 157.842106,141.717127 156.650728,142.703315 L156.650728,142.703315 Z" id="Shape" fill="#0446AC" sketch:type="MSShapeGroup"></path>
                <path d="M179.874862,139.698343 C190.585659,139.570718 201.296457,139.68674 212.007254,139.636464 C215.519498,139.605525 219.109104,140.98232 221.437707,143.662431 C223.317608,145.708287 224.180197,148.492818 224.354262,151.219337 C224.756545,154.800552 222.942402,158.157459 220.977402,161.007735 C217.159577,166.356354 210.935787,169.469613 204.623031,170.776796 C200.882569,171.58895 197.060876,170.776796 193.289469,171.163536 C191.517874,175.711602 190.369045,180.460773 189.158327,185.175138 C188.43499,187.963536 187.963081,191.045856 189.142854,193.783978 C189.761752,195.303867 191.30126,196.085083 192.608681,196.928177 C192.604813,197.214365 192.597077,197.790608 192.593209,198.076796 C184.404419,198.080663 176.211762,198.080663 168.022972,198.076796 C167.992028,197.717127 167.964951,197.357459 167.937874,197.001657 C171.647392,194.661878 173.457667,190.403867 174.386014,186.28895 C177.557864,173.80884 180.849626,161.355801 184.087234,148.89116 C184.477913,147.38674 184.702264,145.743094 184.07563,144.269613 C183.344557,142.239227 181.483996,140.990055 179.874862,139.698343 L179.874862,139.698343 Z M201.714213,142.618232 C200.28688,143.488398 199.698927,145.174586 199.265699,146.70221 C197.761004,152.360221 196.287254,158.025967 194.720669,163.668508 C194.446033,164.937017 193.742037,166.352486 194.415089,167.605525 C195.88497,168.324862 197.610148,168.054144 199.168996,167.814365 C202.035266,166.88232 204.588219,164.995028 206.174144,162.411602 C208.916634,158.068508 209.899134,152.789503 209.670915,147.707735 C209.551004,145.569061 208.355758,143.322099 206.259242,142.564088 C204.800965,142.088398 203.157018,142.111602 201.714213,142.618232 L201.714213,142.618232 Z" id="Shape" fill="#0446AC" sketch:type="MSShapeGroup"></path>
                <path d="M223.147411,139.814365 C237.482628,139.551381 251.821713,139.79116 266.156929,139.690608 C265.626998,143.863536 264.315709,147.874033 263.426043,151.973481 C263.170748,153.3 262.652421,154.568508 261.824646,155.639779 C261.515197,151.787845 261.878799,147.116022 258.610246,144.362431 C254.862047,141.492818 249.883789,142.649171 245.524429,142.440331 C244.271161,144.025967 243.482067,145.917127 243.002421,147.870166 C242.147569,151.462983 241.12252,155.009392 240.209646,158.58674 C239.780285,160.245856 239.671978,161.966851 239.799626,163.676243 C242.75873,163.946961 245.845482,163.347514 248.309469,161.626519 C251.094508,159.847514 252.70751,156.834807 255.221781,154.750276 C255.090266,156.351381 254.800157,157.937017 254.378533,159.487845 C252.579862,166.313812 250.943652,173.186188 249.168189,180.023757 C248.951575,180.116575 248.526083,180.306077 248.309469,180.398895 C248.003888,176.775138 247.709911,172.729834 245.064124,169.956906 C243.594242,168.251381 241.076102,167.145304 238.898356,168.108287 C237.587067,168.657459 237.254409,170.185083 236.848258,171.399448 C235.076663,178.221547 233.185157,185.016575 231.448376,191.846409 C230.883632,193.532597 232.067274,195.624862 233.954911,195.543646 C238.836467,195.593923 244.147382,195.802762 248.44872,193.103315 C253.481132,189.812155 256.045689,184.107735 260.254193,179.981215 C259.925404,184.092265 258.320138,187.924862 257.260276,191.869613 C256.769026,193.420442 256.478917,195.056354 255.701427,196.498895 C255.403583,196.920442 255.132815,197.581768 254.510049,197.496685 C240.847884,197.717127 227.18185,197.492818 213.515817,197.604972 C212.366988,197.655249 211.225896,197.481215 210.123484,197.167956 C214.320384,195.330939 217.225335,191.351381 218.389636,187.000552 C221.561486,174.68674 224.648238,162.349724 227.847165,150.043646 C228.28813,148.082873 228.601447,145.982873 228.040571,144.018232 C227.046467,141.999448 224.671447,141.341989 223.147411,139.814365 L223.147411,139.814365 Z" id="Shape" fill="#0446AC" sketch:type="MSShapeGroup"></path>
                <path d="M156.650728,142.703315 C157.842106,141.717127 159.516998,141.813812 160.963671,141.953039 C162.862913,142.796133 164.723474,144.451381 164.920748,146.640331 C165.458415,151.927072 164.398553,157.426519 161.625118,161.990055 C159.443504,165.764641 155.142165,168.162431 150.775069,168.003867 C150.314764,167.663536 149.858327,167.323204 149.40189,166.990608 C149.541142,165.9 149.703602,164.81326 149.982106,163.753591 C151.5719,158.00663 153.092067,152.240331 154.612234,146.474033 C154.991309,145.09337 155.470955,143.612155 156.650728,142.703315 L156.650728,142.703315 Z" id="Shape" fill="#FEFFFE" sketch:type="MSShapeGroup"></path>
                <path d="M201.714213,142.618232 C203.157018,142.111602 204.800965,142.088398 206.259242,142.564088 C208.355758,143.322099 209.551004,145.569061 209.670915,147.707735 C209.899134,152.789503 208.916634,158.068508 206.174144,162.411602 C204.588219,164.995028 202.035266,166.88232 199.168996,167.814365 C197.610148,168.054144 195.88497,168.324862 194.415089,167.605525 C193.742037,166.352486 194.446033,164.937017 194.720669,163.668508 C196.287254,158.025967 197.761004,152.360221 199.265699,146.70221 C199.698927,145.174586 200.28688,143.488398 201.714213,142.618232 L201.714213,142.618232 Z" id="Shape" fill="#FEFFFE" sketch:type="MSShapeGroup"></path>
                <path d="M292.301486,142.633702 C295.202569,141.717127 298.428573,143.732044 299.353051,146.528177 C301.128514,151.30442 300.149882,156.885083 297.163701,160.961326 C294.730659,164.345304 290.734902,166.549724 286.599892,166.917127 C286.089301,166.445304 285.54003,166.012155 285.118406,165.462983 C284.758671,164.30663 285.199636,163.107735 285.458799,161.978453 C286.944154,156.529282 288.197421,151.018232 289.620886,145.557459 C289.941939,144.2 290.939911,143.016575 292.301486,142.633702 L292.301486,142.633702 Z" id="Shape" fill="#FEFFFE" sketch:type="MSShapeGroup"></path>
                <path d="M158.600256,216.164641 C171.597106,216.381215 184.597825,216.141436 197.598543,216.296133 C191.939498,223.292265 186.218563,230.238122 180.470551,237.160773 C172.239213,231.228177 165.001978,224.011602 158.600256,216.164641 L158.600256,216.164641 Z" id="Shape" fill="#FEFFFE" sketch:type="MSShapeGroup"></path>
                <path d="M204.147254,216.841436 C204.673317,216.01768 205.721575,216.172376 206.564823,216.125967 C239.327717,216.18011 272.094478,216.098895 304.86124,216.168508 C300.509616,228.153591 294.386398,239.809945 285.137746,248.759116 C281.466909,252.433149 277.115285,255.322099 272.574124,257.80884 C270.485344,258.864641 268.58997,260.581768 266.137589,260.659116 C237.811417,263.606077 208.309341,256.625414 184.868593,240.304972 C191.390226,232.562431 197.730059,224.669061 204.147254,216.841436 L204.147254,216.841436 Z" id="Shape" fill="#FEFFFE" sketch:type="MSShapeGroup"></path>
                <path d="M310.636329,216.156906 C323.273445,216.141436 335.914429,216.114365 348.551545,216.168508 C341.407146,224.266851 333.47752,231.7 324.743327,238.065746 C316.361132,244.214917 307.170502,249.234807 297.49249,253.024862 C292.800472,254.900552 287.969203,256.435912 283.033494,257.530387 C292.100344,251.009945 298.80378,241.724309 303.913553,231.904972 C306.54,226.830939 308.721614,221.536464 310.636329,216.156906 L310.636329,216.156906 Z" id="Shape" fill="#FEFFFE" sketch:type="MSShapeGroup"></path>
            </g>
        </g>
    </g>
</svg>