<?xml version="1.0" encoding="utf-8"?>
<!-- Generator: Adobe Illustrator 14.0.0, SVG Export Plug-In . SVG Version: 6.00 Build 43363)  -->
<!DOCTYPE svg PUBLIC "-//W3C//DTD SVG 1.1//EN" "http://www.w3.org/Graphics/SVG/1.1/DTD/svg11.dtd">
<svg version="1.1" id="Layer_1" xmlns="http://www.w3.org/2000/svg" xmlns:xlink="http://www.w3.org/1999/xlink" x="0px" y="0px"
	 width="203px" height="250px" viewBox="0 0 203 250" enable-background="new 0 0 203 250" xml:space="preserve">
<g>
	<path fill="#23375B" d="M47.414,165.369v33.471c1.886,0,21.421-0.026,21.421-0.026v-4.128l-17.24,0.04v-30.562h17.24v-4.332
		l-23.458,0.035L47.414,165.369z M95.914,165.369c0,0-2.535-0.018-5.702-0.021v33.604h3.576v-29.766l1.281-0.031
		c0.747,0,1.343,0.81,1.343,1.798l-0.009,28.039h3.825v-28.315C100.228,167.024,98.235,165.369,95.914,165.369 M78.14,198.991h3.621
		v-29.806h2.989v29.766h3.736v-33.604c-4.492-0.022-9.5-0.036-10.346-0.04V198.991z M32.94,155.011c0,0-2.847,0-6.387-0.018v43.727
		h4.039v-39.395l1.423-0.031c0.809,0,1.477,0.881,1.477,1.971l-0.027,37.486h4.466v-37.794
		C37.931,157.065,35.609,155.011,32.94,155.011 M53.312,178.513h11.262v-3.958h-7.597v-4.657h11.858v-4.012H53.312V178.513z
		 M96.509,160.015H70.543l2.188,5.902v33.074h3.683v-35.409l19.5,0.053c3.247,0,6.049,2.42,6.049,7.041v28.315h3.469l-0.035-30.708
		C105.396,163.074,100.984,160.015,96.509,160.015 M146.886,175.173h-4.599v-15.438l-3.567,0.009v18.414h12.143v-18.432h-3.977
		V175.173z M56.977,184.402h7.597v-4.173H53.312V193c1.388-0.005,12.997-0.031,15.523-0.04v-3.692l-11.858-0.013V184.402z
		 M13.254,198.751h4.074v-39.426h3.309v39.395h4.19v-43.727c-5.035-0.019-10.71-0.027-11.573-0.036V198.751z M33.599,149.206H4.972
		l2.411,6.507v43.038h4.145v-45.52l21.412,0.063c3.532,0,6.716,2.642,6.716,7.663v37.794h3.772l-0.036-40.427
		C43.393,152.586,38.536,149.206,33.599,149.206 M166.279,159.818v39.253h4.225l-0.009-39.253H166.279z M160.327,166.219
		l0.01,32.853h4.225v-39.253h-6.592L160.327,166.219z M184.204,178.549c3.665,0,3.104,2.335,3.104,4.741v4.083
		c0,0.975-0.658,1.762-1.459,1.762h-0.587c-0.801,0-1.459-0.787-1.459-1.762v-4.804h-4.422v4.248c0,2.598,0,6.524,5.961,6.524
		c6.209,0,6.44-4.665,6.449-4.839v-8.923c0-4.221-2.206-4.604-5.791-4.865c-1.077-0.085-2.18-0.169-3.158-0.432
		c-4.226-1.17-4.741-4.105-4.938-5.209c-0.133-0.729-0.089-6.533-0.071-8.389c-0.009-0.195-0.169-2.891,1.699-4.928
		c1.308-1.437,3.247-2.157,5.765-2.157c2.687,0,4.759,0.787,6.174,2.344c1.734,1.904,1.912,4.377,1.912,5.32
		c0,0.187-0.009,0.289-0.009,0.355v3.705h4.546v-6.294c0-5.969-4.813-9.954-11.102-9.954h-2.046
		c-6.191,0-11.787,3.256-11.787,10.105v9.163C172.986,175.097,179.249,178.549,184.204,178.549 M122.147,160.032h-15.292
		l2.117,5.854v33.189h3.469v-35.561h9.127c3.256,0,6.565,2.304,6.565,6.449v4.208c0,4.137-3.31,6.303-6.565,6.303h-7.4v18.601h3.958
		v-15.438c0,0,4.884-0.093,4.901-0.093c5.436,0,8.371-4.817,8.371-9.372l0.106-5.773
		C131.505,162.963,126.675,160.032,122.147,160.032 M188.42,169.244l-1.93-0.099c-1.762,0-2.775-0.751-2.775-2.588v-5.195
		c0-0.979,0.649-1.762,1.44-1.762h0.588c0.8,0,1.458,0.783,1.458,1.762v3.963h4.493v-3.799c0.009-0.026,0.169-2.642-1.468-4.435
		c-1.086-1.183-2.74-1.788-4.929-1.788c-2.028,0-3.55,0.543-4.528,1.602c-1.388,1.513-1.254,3.63-1.254,3.66v0.036v0.035
		c-0.018,3.585-0.018,7.646,0.045,8.131c0.178,0.97,0.542,2.984,3.727,3.865c0.81,0.223,1.797,0.298,2.829,0.374
		c3.104,0.222,7.356,0.542,7.356,6.573v8.945c0,0.066-0.258,6.516-8.13,6.516c-7.642,0-7.642-5.76-7.642-8.224v-4.248h-4.617v6.271
		c0,7.473,5.693,10.319,10.924,10.319h2.678c6.557,0,11.342-4.048,11.342-10.56v-9.74
		C198.027,171.774,193.26,169.244,188.42,169.244 M132.991,165.801v33.515h4.029v-39.572l-6.191,0.009L132.991,165.801z
		 M126.408,174.172v-4.208c0-3.153-2.509-4.724-4.84-4.724h-7.4v13.513h7.4C123.899,178.753,126.408,177.321,126.408,174.172
		 M118.126,175.195v-6.663h2.438c1.228,0,2.215,1.201,2.215,2.678v1.312c0,1.499-0.97,2.674-2.215,2.674H118.126z M152.588,199.315
		h3.63v-39.59h-3.63V199.315z M138.72,199.315h3.567v-15.607h4.599v15.607h3.977v-19.441H138.72V199.315z"/>
	<path fill="#6189B9" d="M76.414,198.991v-35.409l19.5,0.053c3.242,0,6.049,2.42,6.049,7.041v28.315h-1.734v-28.315
		c0-3.651-1.993-5.307-4.314-5.307c0,0-2.535-0.018-5.702-0.021v33.604h-1.726v-33.604c-4.492-0.022-9.5-0.036-10.346-0.04v33.684
		H76.414z M68.835,165.886H53.312v12.627h11.262v1.717H53.312V193c1.388-0.005,12.997-0.031,15.523-0.04v1.726l-17.24,0.04v-30.562
		h17.24V165.886z M11.528,198.751v-45.52l21.412,0.063c3.532,0,6.716,2.642,6.716,7.663v37.794h-1.726v-37.794
		c0-3.892-2.322-5.946-4.991-5.946c0,0-2.847,0-6.387-0.018v43.727h-1.726v-43.727c-5.035-0.019-10.71-0.027-11.573-0.036v43.794
		H11.528z M164.562,159.818h1.718v39.253h-1.718V159.818z M112.441,199.075v-35.561h9.127c3.256,0,6.565,2.304,6.565,6.449v4.208
		c0,4.137-3.31,6.303-6.565,6.303h-7.4v18.601H112.441z M179.382,182.569v4.248c0,2.598,0,6.524,5.961,6.524
		c6.209,0,6.44-4.665,6.449-4.839v-8.923c0-4.221-2.206-4.604-5.791-4.865c-1.077-0.085-2.18-0.169-3.158-0.432
		c-4.226-1.17-4.741-4.105-4.938-5.209c-0.133-0.729-0.089-6.533-0.071-8.389c-0.009-0.195-0.169-2.891,1.699-4.928
		c1.308-1.437,3.247-2.157,5.765-2.157c2.687,0,4.759,0.787,6.174,2.344c1.734,1.904,1.912,4.377,1.912,5.32
		c0,0.187-0.009,0.289-0.009,0.355v3.705h-1.681v-3.799c0.009-0.026,0.169-2.642-1.468-4.435c-1.086-1.183-2.74-1.788-4.929-1.788
		c-2.028,0-3.55,0.543-4.528,1.602c-1.388,1.513-1.254,3.63-1.254,3.66v0.036v0.035c-0.018,3.585-0.018,7.646,0.045,8.131
		c0.178,0.97,0.542,2.984,3.727,3.865c0.81,0.223,1.797,0.298,2.829,0.374c3.104,0.222,7.356,0.542,7.356,6.573v8.945
		c0,0.066-0.258,6.516-8.13,6.516c-7.642,0-7.642-5.76-7.642-8.224v-4.248H179.382z M126.408,174.172v-4.208
		c0-3.153-2.509-4.724-4.84-4.724h-7.4v13.513h7.4C123.899,178.753,126.408,177.321,126.408,174.172 M137.021,199.315v-39.572h1.699
		v18.414h12.143v-18.432h1.726v39.59h-1.726v-19.441H138.72v19.441H137.021z"/>
	<path fill="#23375B" d="M170.255,40.573c-0.613-0.943-1.236-1.83-1.868-2.708c15.621-25.615-21.242-45.255-34.595-23.516
		c-16.439-3.024-30.175,2.982-32.025,3.848c-1.842-0.861-15.425-6.79-31.696-3.908c-16.128-22.682-49.389,0.761-34.72,23.283
		c-0.703,0.967-1.396,1.955-2.09,3.002c-20.834,31.723-5.186,53.221-5.186,53.221l3.202-3.203c0,0,4.555,22.117,28.626,36.648
		l0.872-4.768c14.82,15.828,28.546,15.458,41.338,29.923c11.823-13.7,29-13.7,42.371-30.791v6.071
		c24.73-12.038,26.989-38.058,26.989-38.058l2.286,4.221C173.76,93.839,191.106,72.296,170.255,40.573"/>
	<path fill="#FDB827" d="M117.833,63.044c1.165-0.422,3.211,0.801,4.305,2.929c5.009-1.457,4.742-8.208,4.711-8.687
		C122.863,58.832,119.585,61.496,117.833,63.044"/>
	<path fill="#6189B9" d="M101.962,95.696c1.379-0.218,23.342-1.012,9.892,12.639C121.23,95.914,104.222,95.823,101.962,95.696
		 M139.956,24.848c0,0,4.938-12.348,20.069-9.363c0,0-13.887-9.147-23.557,7.392c0,0-13.717-6.514-34.408,2.426
		c0,0-19.598-6.832-34.373-2.96c0,0-8.611-14.954-20.745-8.791c-12.125,6.153-5.809,20.396-3.692,24.085
		c0,0-20.113,20.482-12.552,45.815l4.048-5.046c0,0,5.764,27.577,20.683,36.272l0.889-6.781c0,0,15.559,18.772,33.857,26.745
		c1.726,0.814,11.449,5.631,11.742,8.011v-13.137c0,0-12.712,1.057-16.057-4.799c-2.277-3.985-16.857-30.014-9.652-57.28
		c0,0-7.019-1.043-8.344-12.89c0,0-5.24-2.544-11.742-2.017c0,0,11.635-3.643,22.55,0.565c10.897,4.228,13.815,14.971,21.208,10.221
		l2.18-30.27l2.081,30.27c7.393,4.75,10.311-5.994,21.208-10.221c10.915-4.208,22.542-0.565,22.542-0.565s-4.644-3.285-12.125-4.777
		c-6.254-1.252-15.435,2.765-15.435,2.765s1.272-8.591,5.444-13.177C129.353,33.408,137.447,32.541,139.956,24.848 M45.866,35.278
		c-0.445-4.121,4.768-8.202,4.768-8.202c-2.144-2.222-5.898-0.295-5.898-0.295c3.398-6.654,11.022-3.403,11.022-3.403
		c-2.882-3.534-9.012-3.312-9.012-3.312c7.579-7.497,16.707,3.972,16.707,3.972C55.313,25.869,45.866,35.278,45.866,35.278
		 M126.853,57.286L126.853,57.286c-0.062,0.024-0.115,0.047-0.16,0.069C126.737,57.333,126.791,57.306,126.853,57.286
		 M120.786,67.043c12.151,32.694-3.327,53.69-3.327,53.69c9.536-24.941,3.407-45.693-0.773-53.403
		c-2.127,0.209-4.697,0.096-4.697,0.096s3.211-1.995,5.302-3.89c0.16-0.145,0.347-0.313,0.561-0.5c0,0.004-0.018,0.004-0.018,0.009
		c1.165-0.422,3.211,0.801,4.305,2.929c5.009-1.452,4.742-8.187,4.715-8.687c1.45-0.569,3.016-0.979,4.617-1.143
		C131.47,56.143,130.322,66.892,120.786,67.043"/>
	<path fill="#FDB827" d="M77.722,57.271c-0.027,0.496-0.289,7.25,4.715,8.7c1.076-2.09,3.007-3.298,4.181-2.942
		C83.922,60.951,80.577,58.632,77.722,57.271"/>
	<path fill="#BBD1E4" d="M101.918,126.377c-15.318,0-13.263-3.371-13.263-3.371c1.663-1.032,12.383-1.246,13.246-1.246
		c0.854,0,11.609,0.214,13.272,1.246C115.173,123.006,117.236,126.377,101.918,126.377 M77.73,57.277c0,0-0.013-0.004-0.013-0.009
		C77.717,57.273,77.73,57.277,77.73,57.277 M101.918,112.197v6.214l-4.225,0.223c-4.439,0.129-10.23,1.935-10.23,1.935
		c-10.746-26.616-4.786-46.76-1.921-53.944c-10.657,2.313-12.378-10.479-12.378-10.479c1.107-0.225,2.727,0.253,4.555,1.123
		c-0.022,0.502-0.28,7.252,4.719,8.705c1.076-2.091,2.998-3.303,4.163-2.951c0.792,0.618,1.539,1.216,2.188,1.761
		c7.232,6.1,12.863,4.857,12.863,4.857s0.08,23.205,0.08,26.056c0,0-20.958-1.639-9.706,12.63c0,0,1.815-5.215,3.736-3.569
		C98.422,107.047,101.918,111.706,101.918,112.197"/>
	<path fill="#6189B9" d="M54.993,222.636l-0.24,0.676c-0.276,0.779-1.023,1.197-1.69,0.952l-1.352-0.498l1.246-3.43l1.37,0.494
		C54.975,221.065,55.278,221.88,54.993,222.636 M56.754,216.742l-8.166-2.967l0.018,3.425l-6.218,17.138l4.831,1.762l2.9-7.966
		l1.468,0.529c0.427,0.155,0.596,0.716,0.4,1.259l-2.544,7.001l4.794,1.734l2.625-7.206c0.409-1.129,0.275-2.179-0.356-2.948
		c0,0,1.619-0.28,2.482-2.674l1.139-2.962C61.149,220.057,59.165,217.619,56.754,216.742"/>
	<path fill="#6189B9" d="M156.707,218.939l-1.69-4.853l-12.071,4.217l2.02,2.491l6.049,17.373
		c0.961-0.338,11.084-3.865,11.084-3.865l-1.726-4.809l-6.111,2.122c-0.169-0.498-0.996-2.86-0.996-2.86l3.914-1.36l-1.69-4.906
		l-3.923,1.356l-0.97-2.78L156.707,218.939z"/>
	<polygon fill="#6189B9" points="122.858,239.021 121.275,222.583 114.826,223.196 116.436,226.475 118.144,244.324 
		130.785,243.149 130.322,238.297 	"/>
	<polygon fill="#6189B9" points="66.584,223.232 66.148,219.566 72.331,220.884 67.981,241.868 62.928,240.783 	"/>
	<polygon fill="#6189B9" points="133.48,224.117 131.595,220.945 137.795,219.656 142.287,240.597 137.243,241.655 	"/>
	<polygon fill="#6189B9" points="91.127,223.388 78.291,222.04 77.722,227.991 81.315,227.093 83.388,227.307 76.058,243.323 
		88.895,244.6 89.339,239.751 83.806,239.169 	"/>
	<polygon fill="#6189B9" points="108.945,223.672 96.029,223.605 96.056,229.588 99.534,228.329 101.643,228.329 95.922,245 
		108.848,245 108.804,240.125 103.243,240.107 	"/>
	<path fill="#6189B9" d="M172.648,221.105l1.014,1.526c0.24,0.369,0.196,0.813-0.098,1.019l-0.649,0.427
		c-0.303,0.195-0.738,0.071-0.979-0.298l-1.192-1.802l-4.003,2.66l1.548,2.349c1.851,2.793,4.688,2.446,6.646,1.147l1.414-0.943
		c2.474-1.628,3.238-4.323,1.628-6.752l-2.42-3.647c-1.752-2.642-4.163-2.41-5.969-1.209l-1.174,0.725
		c-0.658,0.436-1.228,0.404-1.673-0.271l-1.29-1.948c-0.249-0.364-0.195-0.818,0.099-1.022l0.658-0.418
		c0.293-0.196,0.729-0.071,0.97,0.289l0.987,1.48l4.012-2.655l-1.584-2.344c-1.468-2.242-4.252-2.531-6.601-0.97l-1.183,0.792
		c-2.313,1.529-3.603,4.132-1.903,6.689l2.276,3.425c1.664,2.521,4.866,2.26,6.717,1.036
		C171.581,219.265,172.062,220.207,172.648,221.105"/>
	<path fill="#6189B9" d="M35.591,226.986c-1.734,2.579-4.813,2.713-6.912,1.303l-2.153-1.463c-2.1-1.401-3.123-4.306-1.397-6.89
		l7.028-10.511c1.735-2.584,4.821-2.731,6.912-1.325l2.162,1.445c2.099,1.401,3.149,4.306,1.423,6.898l-1.397,2.091l-4.279-2.873
		l0.881-1.299c0.32-0.485,0.302-1.077-0.044-1.308l-0.685-0.459c-0.347-0.23-0.898-0.018-1.228,0.468c0,0-0.338,0.524-0.863,1.308
		c-0.961,1.428-5.133,7.659-5.133,7.659c-0.32,0.489-0.312,1.076,0.036,1.308l0.685,0.467c0.338,0.227,0.898,0.022,1.228-0.467
		l1.574-2.331l-0.738-0.502l1.984-2.972l5.026,3.354L35.591,226.986z"/>
</g>
</svg>
