<?xml version="1.0" encoding="UTF-8" standalone="no"?>
<svg width="512px" height="512px" viewBox="0 0 512 512" version="1.1" xmlns="http://www.w3.org/2000/svg" xmlns:xlink="http://www.w3.org/1999/xlink" xmlns:sketch="http://www.bohemiancoding.com/sketch/ns">
    <!-- Generator: Sketch 3.2.2 (9983) - http://www.bohemiancoding.com/sketch -->
    <title>milwaukee-bucks</title>
    <desc>Created with Sketch.</desc>
    <defs></defs>
    <g id="NBA" stroke="none" stroke-width="1" fill="none" fill-rule="evenodd" sketch:type="MSPage">
        <g id="milwaukee-bucks" sketch:type="MSArtboardGroup">
            <g sketch:type="MSLayerGroup" transform="translate(134.000000, 87.000000)" id="Group">
                <g sketch:type="MSShapeGroup">
                    <path d="M217.08948,109.015337 L25.8738728,109.06195 L124.75311,339 L223.338983,109.015337 L217.08948,109.015337" id="Shape" fill="#FFFFFF"></path>
                    <path d="M217.08948,109.015338 L25.8738728,109.06195 L124.75311,339 L223.337572,109.015338 L217.08948,109.015338 L217.08948,109.015338 Z M124.75311,328.560213 L32.1332486,113.179387 L217.08948,113.148312 L124.75311,328.560213 L124.75311,328.560213 Z" id="Shape" fill="#BCCAD6"></path>
                    <path d="M32.1332486,113.179388 L217.08948,113.148313 L124.75311,328.560213 L32.1332486,113.179388" id="Shape" fill="#BCCAD6"></path>
                    <path d="M32.1332486,113.179388 L65.4427746,113.179388 C77.7147052,131.584263 92.1149364,129.33415 92.1149364,129.33415 C93.3645549,134.9785 94.4294104,136.472925 94.4294104,136.472925 C92.7820578,144.604688 94.3109364,149.36905 94.3109364,149.36905 C91.4294798,159.760812 92.9273295,166.645337 92.9273295,166.645337 C85.4338497,171.135675 84.0488324,181.904575 84.0488324,181.904575 C74.427052,188.029175 69.0393064,199.067862 69.0393064,199.067862 L32.1332486,113.179388" id="Shape" fill="#C42032"></path>
                    <path d="M217.08948,113.148313 L184.538751,113.148313 C174.176509,130.332788 158.537942,129.0912 158.537942,129.0912 C158.650775,132.965688 156.780578,135.70735 156.780578,135.70735 C158.805919,143.60605 157.183954,148.469288 157.183954,148.469288 C159.787561,154.997863 159.166983,165.632575 159.166983,165.632575 C168.680162,172.915425 168.680162,181.035888 168.680162,181.035888 C179.16652,190.688913 180.757457,197.713275 180.757457,197.713275 L217.08948,113.148313" id="Shape" fill="#C42032"></path>
                    <path d="M227.832532,196.3149 L196.387561,196.3149 C147.959908,196.386938 55.6446936,196.4392 52.8083699,196.336087 L14.5511445,196.3149 L0.150913295,216.34415 L0.150913295,255.180838 L-0.11283237,268.774738 L-0.11283237,295.45545 L14.4016416,315.164063 L229.454497,315.164063 L243.875884,295.156 L243.875884,256.308013 L244.114243,242.704225 L244.114243,216.054588 L229.599769,196.3149 L227.832532,196.3149 L227.832532,196.3149 Z M52.5869364,203.319488 L52.4261503,203.246038 C53.6348671,203.34915 55.5304509,203.370338 58.789896,203.380225 L75.0955838,203.402825 L124.520393,203.402825 L196.407306,203.319488 L226.075168,203.319488 C227.780347,205.667063 236.602428,217.638 237.107353,218.341425 L237.107353,242.632188 L236.849249,256.235975 L236.849249,292.888937 C236.114428,293.904525 227.561734,305.831675 225.879121,308.159475 L17.9544509,308.159475 C16.2238844,305.833088 7.41731792,293.852263 6.89123699,293.148838 L6.89123699,268.858075 L6.77699422,268.971075 C6.87431214,268.226688 6.9222659,267.492188 6.93213873,266.788763 L7.16908671,255.242988 L7.16908671,218.619688 C7.90672832,217.56455 16.4396763,205.667063 18.129341,203.319488 L52.5869364,203.319488 L52.5869364,203.319488 Z" id="Shape" fill="#BCCAD6"></path>
                    <path d="M185.025341,46.937375 C187.276347,50.2525125 187.534451,53.3882625 187.534451,54.4321 L187.534451,54.7485 C187.204416,57.8786 186.283422,60.37025 185.210104,62.3421 C185.592324,58.6738375 185.696694,55.4872375 185.696694,55.271125 C185.644509,52.1763375 185.355376,49.3428625 185.025341,46.937375 L185.025341,46.937375 Z M155.210798,103.475512 C154.714335,103.951525 153.598705,104.676137 152.91889,104.701562 C153.258798,104.250975 154.095168,103.475512 156.006266,102.595525 L156.295399,102.44015 C155.903306,102.822937 155.624046,103.056 155.210798,103.475512 L155.210798,103.475512 Z M95.0231908,105.193112 C92.9879769,104.433188 92.0683931,103.397825 91.7947746,103.0108 C93.932948,103.879487 94.8793295,104.6606 95.2305202,105.116837 L95.0231908,105.193112 L95.0231908,105.193112 Z M60.0874682,55.9124 C60.0719538,55.8544875 60.0719538,55.71465 60.0719538,55.4618125 C60.0719538,54.31345 60.3512139,51.282225 62.4738728,48.0589 C62.1847399,50.429075 61.9365087,53.2526625 61.9365087,56.3093125 C61.9520231,56.5946375 62.0972948,59.7897125 62.530289,63.463625 C61.4245318,61.508725 60.4471214,59.0312 60.0874682,55.9124 L60.0874682,55.9124 Z M194.207075,71.46685 C194.393249,71.22955 200.11526,63.43255 200.11526,53.491375 C200.11526,52.4616625 200.053202,51.3853375 199.929087,50.299125 C199.793688,49.1761875 194.628786,13.9145375 164.694358,1.7218375 C179.754659,20.8866375 182.430197,27.6468625 184.310266,33.0934625 C181.686913,31.45355 179.702474,30.4083 178.804046,29.959125 C164.116092,1.1526 145.717364,0.268375 145.127815,0 C155.540832,8.6332 164.890405,22.10845 166.68726,25.7089125 C156.780578,21.840075 142.556647,22.196025 141.771052,22.3669375 L152.380116,27.2654875 C163.123168,31.9945375 168.81415,35.1444125 170.632162,36.19955 C172.533387,41.77045 173.080624,47.7919375 173.080624,52.706025 C173.080624,58.582025 172.326058,62.8802625 172.304902,62.977725 C169.132902,78.0363875 158.917341,85.6045625 153.577549,88.634375 C153.597295,87.8278375 153.731283,86.9633875 153.731283,86.1978125 C153.731283,69.1221 144.13348,60.31375 143.669457,59.915425 C136.376254,52.4616625 127.688162,51.101425 127.29748,50.982775 L132.549827,57.4379 C139.930474,66.1841 141.985434,74.616725 141.985434,81.3359875 C141.985434,87.1554875 140.456555,91.6246375 139.487607,93.8902875 C124.705156,89.1160375 111.967792,92.2348375 107.204855,93.8337875 C105.227468,89.77285 104.441873,85.696375 104.395329,81.8275375 C104.15274,65.6431125 119.043792,50.852825 119.156624,50.6988625 C95.5619653,56.807925 92.8102659,77.498225 92.8102659,86.3955625 C92.8102659,87.171025 92.8511676,87.8645625 92.897711,88.5468 C76.7669133,79.215825 72.9404855,64.5554875 72.9404855,53.1029375 C72.9404855,45.44295 74.5680925,39.30705 75.2084162,37.191125 C85.0064971,30.6682 105.010266,22.8471875 105.097711,22.8104625 C94.6593064,22.676275 83.7244393,24.6156375 79.1378035,26.5394625 C87.337896,10.438375 100.729688,0.0720375 100.834058,0 C79.8683931,3.0778375 68.4596301,27.3799 66.8108671,31.2120125 C64.5852486,32.1386125 62.6163237,33.2036375 60.9901272,34.2164 C65.8193526,19.201525 79.899422,1.65545 79.9868671,1.5368 C47.4065202,17.918975 45.6604393,49.4615125 45.6604393,53.5069125 L45.6604393,54.0295375 C46.0525318,64.8394 52.0340578,72.2423125 52.282289,72.5530625 C59.2285318,82.0394125 69.7966936,89.9494125 78.2520694,95.34375 L78.1646243,95.3282125 C69.243815,92.5809 61.6163468,91.696675 61.310289,91.6543 C59.0212023,91.5413 57.9591676,92.4410625 57.4782197,93.222175 C56.4034913,94.8620875 57.2201156,96.6983375 57.3893642,97.0401625 C69.7388671,127.3623 86.2152139,128.992325 92.5789595,128.35105 C93.2037688,132.256612 94.5154451,135.457338 95.1557688,136.855713 C94.3560694,139.902475 93.9484624,142.3235 93.9484624,144.082062 C93.9484624,146.901412 94.790474,148.282837 95.7255723,148.924112 C95.4928555,149.394475 95.2559075,149.876137 95.2559075,149.876137 C93.7171561,153.099463 93.3504509,158.012137 93.3504509,162.042 C93.3504509,164.323187 93.4689249,166.27385 93.5662428,167.509787 C86.376,172.956387 84.734289,180.36495 84.4141272,183.013387 C74.6414335,190.989775 70.8460347,199.5241 70.6697341,199.865925 L69.3016416,203.052525 L180.292023,203.052525 L179.404879,200.137125 C176.667283,191.115488 169.517942,184.536063 167.132948,182.5176 C166.780347,174.066613 160.025919,168.453338 157.298197,166.570475 C157.317942,165.975813 157.327815,165.3642 157.327815,164.806263 C157.327815,153.328288 155.798936,149.997613 154.807422,149.055475 L154.735491,148.9679 L155.645202,148.4707 L155.789064,147.35765 C155.903306,146.5045 155.965364,145.5779 155.965364,144.652713 C155.965364,141.17655 155.292601,137.602925 155.014751,136.246925 C156.514012,132.327238 157.20511,129.66185 157.494243,127.89905 C162.523746,128.255 173.76326,127.366538 182.327237,114.036775 C182.575468,113.62715 188.370821,104.45155 190.520277,96.459625 C190.757225,95.937 191.08726,95.0782 191.08726,94.0386 C191.08726,93.3252875 190.91096,92.5851375 190.446936,91.928325 C190.002659,91.28705 188.896902,90.2629875 186.665642,90.594925 L180.633341,91.54695 C180.260994,91.6133375 174.704,92.668475 168.887491,94.7801625 C177.513526,88.9917375 188.308763,80.5704125 194.207075,71.46685 L194.207075,71.46685 Z" id="Shape" fill="#BCCAD6"></path>
                    <path d="M126.848971,200.78405 L177.234266,200.78405 C174.156763,190.707275 164.911561,183.651837 164.911561,183.651837 C165.29378,173.83355 155.057064,167.755562 155.057064,167.755562 C155.367353,152.739275 153.239052,150.660075 153.239052,150.660075 C145.790705,154.678638 144.34363,163.1946 144.34363,163.1946 L143.031954,162.252462 C143.982566,152.311288 153.557803,147.039838 153.557803,147.039838 C154.168509,142.669563 152.670659,136.084488 152.670659,136.084488 C155.903306,127.766275 155.406844,125.314175 155.406844,125.314175 C155.406844,125.314175 170.06659,128.96125 180.414728,112.806487 C180.414728,112.806487 186.304578,103.53625 188.348254,95.7717375 C188.348254,95.7717375 190.053434,92.39445 186.97452,92.8337375 C186.97452,92.8337375 185.849017,93.0258375 180.973249,93.7857625 C180.973249,93.7857625 171.024254,95.6530875 163.968,99.3566625 C163.968,99.3566625 161.984971,99.6052625 156.860971,105.032088 C156.860971,105.032088 153.050058,108.730012 150.735584,105.9262 C150.735584,105.9262 148.990913,103.3498 155.054243,100.53045 C155.054243,100.53045 181.933734,86.2797375 192.314312,70.2450375 C192.314312,70.2450375 199.040532,61.2234 197.666798,50.5830375 C197.666798,50.5830375 194.597757,23.31755 172.657503,8.6332 C185.767214,23.9602375 188.173364,38.4426 188.173364,38.4426 C182.284925,34.0709125 177.160925,31.682375 177.160925,31.682375 C167.285272,11.4059375 153.381503,4.8971375 153.381503,4.8971375 C170.065179,22.0505375 170.437526,29.3023125 170.437526,29.3023125 C156.532347,24.5436 153.299699,25.1693375 153.299699,25.1693375 C166.935491,31.185175 172.554543,34.6980625 172.554543,34.6980625 C177.28504,47.8371375 174.537572,63.3605125 174.537572,63.3605125 C169.941064,85.261325 151.036,92.39445 151.036,92.39445 C153.794751,71.9937125 142.174428,61.6118375 142.174428,61.6118375 C137.679468,57.0918375 134.301549,55.9689 134.301549,55.9689 C151.925965,76.8724875 140.665295,96.6531375 140.665295,96.6531375 C122.056416,89.77285 106.076532,96.6531375 106.076532,96.6531375 C94.4294104,76.2566375 112.041133,55.7316 112.041133,55.7316 C90.5550289,66.9878125 95.5492717,92.65435 95.5492717,92.65435 C59.647422,75.7552 73.3043699,35.6967 73.3043699,35.6967 C83.9176647,29.055125 92.1572486,26.054975 92.1572486,26.054975 C87.1785202,25.9151375 75.0504509,30.31225 75.0504509,30.31225 C80.8049017,14.783225 92.4209942,4.89855 92.4209942,4.89855 C76.305711,13.1489625 68.5428439,32.9352625 68.5428439,32.9352625 C61.7771329,35.558275 57.406289,39.7011375 57.406289,39.7011375 C59.647422,24.3020625 71.8939653,9.2137375 71.8939653,9.2137375 C47.0440462,27.1101125 47.9184971,53.9560875 47.9184971,53.9560875 C48.2950751,64.1063125 54.0438844,71.125025 54.0438844,71.125025 C66.796763,88.521375 92.6692254,100.904763 92.6692254,100.904763 C98.9130867,103.419013 97.5449942,106.042025 97.5449942,106.042025 C96.0457341,108.179138 94.1825896,107.29915 94.1825896,107.29915 C90.8046705,106.042025 89.6678844,103.921862 89.6678844,103.921862 C84.9218728,99.16315 77.658289,97.538775 77.658289,97.538775 C68.6923468,94.775925 61.0479538,93.9072375 61.0479538,93.9072375 C58.3117688,93.7885875 59.4316301,96.0274 59.4316301,96.0274 C74.161896,132.21565 94.5591676,125.688488 94.5591676,125.688488 C94.9258728,131.574375 97.5449942,136.587337 97.5449942,136.587337 C94.9258728,145.74175 97.0330173,147.09775 97.0330173,147.09775 C108.055329,155.35805 107.807098,162.998262 107.807098,162.998262 L106.918543,165.263912 C104.180948,153.9964 97.3108671,150.863475 97.3108671,150.863475 C94.6607168,156.372225 95.9272601,168.52255 95.9272601,168.52255 C86.930289,174.52285 86.553711,184.149037 86.553711,184.149037 C76.5384277,192.053387 72.7684162,200.78405 72.7684162,200.78405 L115.02837,200.78405 M189.806613,54.9702625 C188.690983,65.497625 181.552925,69.98655 181.552925,69.98655 C183.17348,64.8549375 183.421711,55.2231 183.421711,55.2231 C183.287723,46.9670375 181.428809,40.3254625 181.428809,40.3254625 C190.540023,46.327175 189.806613,54.9702625 189.806613,54.9702625 M57.8294104,56.15535 C57.8294104,56.15535 56.9563699,47.5376875 65.9688555,41.3820125 C65.9688555,41.3820125 64.1917457,48.044775 64.1917457,56.310725 C64.1917457,56.310725 64.5993526,65.9425625 66.2988902,71.0473375 C66.3003006,71.0473375 59.0945434,66.655875 57.8294104,56.15535" id="Shape" fill="#104622"></path>
                    <path d="M111.794312,104.917675 L109.536254,102.414725 C108.168162,106.475662 103.994775,108.99415 103.994775,108.99415 C108.663214,110.04505 111.794312,104.917675 111.794312,104.917675" id="Shape" fill="#FFFFFF"></path>
                    <path d="M137.123769,104.204362 L139.70622,102.041825 C140.491815,106.252487 144.292855,109.330325 144.292855,109.330325 C139.508763,109.718762 137.123769,104.204362 137.123769,104.204362" id="Shape" fill="#FFFFFF"></path>
                    <path d="M157.358844,182.928638 C157.358844,182.928638 159.859491,184.045925 160.303769,184.243675 C160.241711,184.740875 159.807306,194.690525 152.122012,200.826425 C151.80185,200.599013 149.590335,202.606175 149.590335,202.606175 C149.590335,202.606175 154.663561,197.929388 156.109225,191.876825 L153.827191,191.876825 C154.188254,191.0604 156.605688,188.950125 157.358844,182.928638" id="Shape" fill="#FFFFFF"></path>
                    <path d="M88.3547977,115.792513 C88.3547977,115.792513 90.6438844,113.641275 94.9667746,114.865912 C94.7650867,115.300963 94.1501503,120.659987 94.3673526,121.482062 C92.667815,121.999037 75.8966936,124.4921 67.1620578,101.297438 C67.6119769,100.941488 78.7781503,99.787475 88.3547977,115.730363" id="Shape" fill="#FFFFFF"></path>
                    <path d="M161.615445,115.730363 C161.615445,115.730363 159.300971,113.608788 155.014751,114.902638 C155.220671,115.332038 156.182566,120.617613 155.976647,121.404375 C157.701572,121.911463 174.176509,124.275988 182.61778,100.972563 C182.152347,100.6152 170.986173,99.606675 161.615445,115.673863" id="Shape" fill="#FFFFFF"></path>
                    <path d="M93.075422,183.15605 C93.075422,183.15605 94.2841387,181.7492 96.3912832,180.4045 C96.4787283,180.983625 96.9032601,188.4953 102.145734,194.826125 C101.738127,195.675038 101.313595,195.922225 101.313595,195.922225 C101.313595,195.922225 96.3912832,192.436175 93.075422,183.15605" id="Shape" fill="#FFFFFF"></path>
                    <path d="M111.049618,122.566863 C105.172462,122.061188 102.419353,119.820963 102.419353,119.820963 L100.673272,120.571 C96.6860578,127.197038 101.676069,132.338538 101.676069,132.338538 C105.54904,136.098613 110.936786,134.573113 110.936786,134.573113 C109.8,138.208888 110.67304,139.094525 110.67304,139.094525 C111.561595,136.098613 114.547422,133.094225 114.547422,133.094225 C110.936786,126.9442 111.049618,122.566863 111.049618,122.566863" id="Shape" fill="#FFFFFF"></path>
                    <path d="M139.147699,122.46375 C144.985364,121.781513 147.680647,119.432525 147.680647,119.432525 L149.457757,120.120413 C153.662173,126.6278 148.828717,131.914787 148.828717,131.914787 C145.078451,135.8147 139.644162,134.479887 139.644162,134.479887 C140.895191,138.064812 140.036254,138.974463 140.036254,138.974463 C139.075769,135.98985 135.986983,133.092813 135.986983,133.092813 C139.395931,126.856625 139.147699,122.46375 139.147699,122.46375" id="Shape" fill="#FFFFFF"></path>
                    <path d="M109.536254,123.8254 C105.667514,123.4525 102.547699,122.061188 102.547699,122.061188 C100.048462,126.70125 102.30511,129.332738 102.30511,129.332738 C105.052578,134.573113 112.304879,132.214238 112.304879,132.214238 C109.687168,127.942838 109.536254,123.8254 109.536254,123.8254" id="Shape" fill="#104622"></path>
                    <path d="M140.986867,123.948288 C144.861249,123.5655 147.990936,122.184075 147.990936,122.184075 C150.490173,126.824138 148.227884,129.43585 148.227884,129.43585 C145.481827,134.717188 138.250682,132.338538 138.250682,132.338538 C140.862751,128.082675 140.986867,123.948288 140.986867,123.948288" id="Shape" fill="#104622"></path>
                    <path d="M129.803769,137.47015 L121.798312,137.47015 C120.04659,143.09755 114.675769,144.236025 114.675769,144.236025 C111.168092,146.857625 111.313364,154.116463 111.313364,154.116463 C112.55311,162.252463 115.667283,163.3867 115.667283,163.3867 C117.805457,161.130938 121.055029,160.133713 121.055029,160.133713 L120.791283,159.253725 C117.052301,159.879463 116.043861,160.75945 116.043861,160.75945 C111.168092,153.367838 115.931029,146.275675 115.931029,146.275675 C121.416092,144.791138 122.551468,140.9788 122.551468,140.9788 L129.421549,140.9788 C131.183145,145.220538 135.934798,145.976225 135.934798,145.976225 C141.429734,154.252063 136.295861,161.13235 136.295861,161.13235 C133.548393,159.637925 131.926428,159.762225 131.926428,159.762225 L131.301618,160.879513 C133.919329,161.390838 136.915029,163.76525 136.915029,163.76525 C140.788,161.252413 140.539769,154.749263 140.539769,154.749263 C140.291538,145.727625 137.54548,144.099013 137.54548,144.099013 C131.927838,143.3518 129.803769,137.47015 129.803769,137.47015" id="Shape" fill="#FFFFFF"></path>
                    <path d="M133.487746,149.119037 C133.848809,154.5501 130.807977,155.760612 130.807977,155.760612 C130.037896,154.678637 129.919422,152.486437 129.919422,152.486437 C131.477919,151.670012 133.487746,149.119037 133.487746,149.119037" id="Shape" fill="#FFFFFF"></path>
                    <path d="M118.229988,149.4086 C117.868925,154.86085 120.791283,155.760612 120.791283,155.760612 C121.551491,154.678637 121.679838,152.486437 121.679838,152.486437 C120.093133,151.670012 118.229988,149.4086 118.229988,149.4086" id="Shape" fill="#FFFFFF"></path>
                    <path d="M133.104116,167.011175 C129.349618,164.817562 126.060555,165.133962 126.060555,165.133962 C121.623422,165.190462 118.926728,167.131237 118.926728,167.131237 L119.670012,168.450512 C121.798312,166.758337 126.059145,166.701837 126.059145,166.701837 C130.54141,166.75975 132.293133,168.394012 132.293133,168.394012 L133.104116,167.011175" id="Shape" fill="#FFFFFF"></path>
                    <path d="M115.042474,200.78405 C117.124231,196.781025 121.183376,194.16225 121.183376,194.16225 L118.781457,191.844338 C117.252578,192.341538 114.602428,194.04925 114.602428,194.04925 L114.416254,192.289275 L117.299121,190.6875 L114.169434,188.536263 C113.234335,178.01455 107.675931,172.329238 107.675931,172.329238 L110.615214,168.7655 C118.781457,179.032963 123.486566,178.708088 123.486566,178.708088 C125.186104,178.527288 130.164832,178.599325 130.164832,178.599325 C132.060416,178.657238 134.053318,177.213663 134.053318,177.213663 C140.180116,172.470488 141.604624,169.76555 141.604624,169.76555 L143.556624,172.27415 C135.48911,183.157463 141.986844,197.248563 141.986844,197.248563 C132.628809,199.183688 126.848971,200.786875 126.848971,200.786875 L115.042474,200.786875" id="Shape" fill="#FFFFFF"></path>
                    <path d="M191.429988,311.666713 L227.677387,311.666713 C229.000347,309.813513 239.526197,295.216737 240.352694,294.017525 L240.352694,256.308012 L240.61926,242.632187 L240.61926,217.19165 C239.741988,215.991025 229.163954,201.63155 227.832532,199.843325 L16.3381272,199.843325 C15.0151676,201.664037 4.50483237,216.282 3.64730636,217.481212 L3.64730636,255.179425 L3.38356069,268.856662 L3.38356069,294.2859 C4.28763006,295.495 14.8557919,309.854475 16.177341,311.666713 L191.429988,311.666713" id="Shape" fill="#104622"></path>
                    <path d="M118.988786,315.164062 L124.75311,328.571512 L130.47089,315.164062 L118.988786,315.164062" id="Shape" fill="#C42032"></path>
                    <path d="M73.1746127,219.229887 L70.582289,219.229887 L66.7389364,207.127588 L66.6825202,207.178438 L66.6923931,219.229887 L63.8109364,219.229887 L63.7855491,205.159975 L68.8771098,205.159975 L71.9193526,215.380825 L71.9503815,215.380825 L75.225341,205.159975 L80.1476532,205.150088 L80.1631676,219.200225 L77.2492717,219.229887 L77.2351676,207.178438 L77.2027283,207.127588 L73.1746127,219.229887" id="Shape" fill="#FFFFFF"></path>
                    <path d="M87.3943121,219.16915 L84.2956532,219.16915 L84.2801387,205.119013 L87.3844393,205.099238 L87.3943121,219.16915" id="Shape" fill="#FFFFFF"></path>
                    <path d="M90.9471214,219.16915 L90.9330173,205.087937 L94.0471908,205.087937 L94.0612948,216.810275 L100.337595,216.810275 L100.35311,219.14655 L90.9471214,219.16915" id="Shape" fill="#FFFFFF"></path>
                    <path d="M108.550382,205.058275 L112.041133,205.058275 L114.57704,215.611063 L114.603838,215.611063 L116.932416,205.058275 L119.902728,205.025788 L116.220162,219.116888 L112.770312,219.116888 L110.166705,208.398838 L110.120162,208.398838 L107.341665,219.116888 L103.80437,219.14655 L100.25015,205.058275 L103.482798,205.058275 L105.709827,215.640725 L105.740855,215.640725 L108.550382,205.058275" id="Shape" fill="#FFFFFF"></path>
                    <path d="M146.792092,205.006012 L146.792092,213.820013 C146.803376,217.556075 144.044624,219.376788 140.532717,219.376788 C137.020809,219.376788 134.273341,217.565963 134.262058,213.8412 L134.262058,205.0272 L137.342382,205.0272 L137.362127,212.650462 C137.362127,215.031937 137.486243,217.193062 140.524254,217.193062 C143.582012,217.193062 143.694844,215.031937 143.694844,212.640575 L143.673688,205.006012 L146.792092,205.006012" id="Shape" fill="#FFFFFF"></path>
                    <path d="M152.91889,211.068463 L152.959792,211.068463 L157.753757,205.006012 L161.38978,204.974938 L156.08948,211.274687 L161.873549,219.054737 L158.000578,219.054737 L152.959792,211.8863 L152.91889,211.8863 L152.91889,219.054737 L149.84985,219.054737 L149.820231,205.006012 L152.91889,205.006012 L152.91889,211.068463" id="Shape" fill="#FFFFFF"></path>
                    <path d="M163.805803,204.974938 L173.496694,204.974938 L173.496694,207.302738 L166.915746,207.302738 L166.915746,210.60375 L173.083445,210.60375 L173.083445,212.930138 L166.915746,212.962625 L166.915746,216.695863 L173.733642,216.695863 L173.733642,219.023663 L163.805803,219.04485 L163.805803,204.974938" id="Shape" fill="#FFFFFF"></path>
                    <path d="M176.605225,204.943862 L186.305988,204.943862 L186.305988,207.27025 L179.703884,207.27025 L179.703884,210.571263 L185.881457,210.571263 L185.881457,212.899063 L179.703884,212.899063 L179.703884,216.664787 L186.52178,216.664787 L186.531653,218.992587 L176.605225,219.013775 L176.605225,204.943862" id="Shape" fill="#FFFFFF"></path>
                    <path d="M119.758867,219.0957 L124.939283,205.025787 L128.637364,205.025787 L133.672509,219.085812 L130.558335,219.0957 L129.508994,216.10685 L123.77711,216.10685 L122.713665,219.0957 L119.758867,219.0957 L119.758867,219.0957 Z M128.755838,213.747975 L126.699468,207.76745 L124.561295,213.747975 L128.755838,213.747975 L128.755838,213.747975 Z" id="Shape" fill="#FFFFFF"></path>
                    <path d="M55.9225434,222.934875 L48.1032601,212.78465 L20.8824509,214.947188 L20.6610173,223.512587 L24.3435838,223.54225 L24.3435838,288.159887 L21.043237,288.159887 L20.4029133,296.3538 L49.591237,298.836975 L55.9225434,289.774375 L55.876,263.144512 L50.5771098,257.49875 L55.9225434,248.704525 L55.9225434,222.934875 L55.9225434,222.934875 Z M46.108948,223.574737 L46.108948,253.370012 L34.1726936,253.370012 L34.1726936,223.545075 L46.108948,223.574737 L46.108948,223.574737 Z M34.1726936,288.100562 L34.1726936,262.609175 L46.108948,262.609175 L46.108948,288.028525 L34.1726936,288.100562 L34.1726936,288.100562 Z" id="Shape" fill="#C42032"></path>
                    <path d="M49.6476532,209.681387 L24.696185,209.681387 L12.4087399,226.637037 L21.2308208,226.637037 L21.2308208,285.067925 L12.4087399,285.099 L24.3449942,301.951537 L51.2075607,301.951537 L59.0381272,290.758887 L58.9972254,261.915637 C58.9972254,261.915637 56.0113988,258.748812 54.4684162,257.104662 C55.9084393,254.683637 59.0395376,249.573212 59.0395376,249.573212 L59.0395376,221.85855 L49.6476532,209.681387 L49.6476532,209.681387 Z M46.5743815,215.9091 C47.8860578,217.6154 51.8577572,222.758312 52.8182428,223.978712 L52.8182428,247.835837 C52.0495723,249.056238 46.6928555,257.891425 46.6928555,257.891425 C46.6928555,257.891425 51.5841387,263.116263 52.777341,264.377625 C52.777341,266.528863 52.8083699,287.055313 52.8182428,288.803988 C52.0326474,289.921275 49.1822197,293.99775 47.9735029,295.71535 L22.092578,295.71535 C22.7018728,293.646038 22.9486936,292.736388 23.3830983,291.287163 C23.7808324,291.287163 27.4648092,291.2575 27.4648092,291.2575 L27.4648092,220.430513 L22.862659,220.430513 C22.3506821,219.023663 21.9896185,218.030675 21.2308208,215.910513 L46.5743815,215.910513 L46.5743815,215.9091 Z" id="Shape" fill="#C42032"></path>
                    <path d="M31.0740347,223.545075 L31.0740347,256.4648 L49.1991445,256.4648 L49.1991445,220.482775 L31.0740347,220.453113 L31.0740347,223.545075 L31.0740347,223.545075 Z M37.2882775,226.669525 C39.4899191,226.7006 40.7959538,226.7006 42.996185,226.7006 L42.996185,250.256862 L37.2882775,250.256862 L37.2882775,226.669525 L37.2882775,226.669525 Z" id="Shape" fill="#C42032"></path>
                    <path d="M46.108948,259.494613 L31.0740347,259.494613 L31.0740347,291.2349 L49.1991445,291.1219 L49.1991445,259.494613 L46.108948,259.494613 L46.108948,259.494613 Z M42.9947746,265.712438 L42.9947746,284.933738 C40.8100578,284.954925 39.4885087,284.964813 37.2868671,284.984588 L37.2868671,265.711025 L42.9947746,265.711025 L42.9947746,265.712438 Z" id="Shape" fill="#C42032"></path>
                    <path d="M88.209526,228.385713 L88.209526,239.1758 L90.6735029,239.1758 L90.6735029,287.955075 L77.3945434,287.955075 L77.3945434,239.1758 L80.0602081,239.1758 L80.0602081,228.385713 L64.963237,228.385713 L66.7544509,239.1758 L67.5710751,239.1758 L67.5710751,289.693863 L73.991237,298.746575 L94.2220809,298.746575 L100.482867,289.693863 L100.482867,239.1758 L101.427838,239.1758 L103.585757,228.385713 L88.209526,228.385713" id="Shape" fill="#C42032"></path>
                    <path d="M103.585757,225.262675 L85.1108671,225.262675 L85.1108671,242.291775 L87.5692023,242.291775 L87.5692023,284.843338 L80.4932023,284.843338 L80.4932023,242.291775 L83.1588671,242.291775 L83.1588671,225.262675 L61.2947746,225.262675 L64.1310983,242.291775 L64.4512601,242.291775 L64.4512601,290.667075 L72.3890173,301.871025 L95.8384046,301.871025 L103.585757,290.667075 L103.585757,242.291775 L103.963746,242.291775 L107.382566,225.262675 L103.585757,225.262675 L103.585757,225.262675 Z M99.8002312,231.490387 C99.3912139,233.579475 99.2008092,234.439687 98.8806474,236.052762 L97.3827977,236.052762 L97.3827977,288.70935 C96.6141272,289.826637 93.8031908,293.872037 92.594474,295.620712 L75.5920462,295.620712 C74.367815,293.904525 71.4708439,289.826637 70.6697341,288.690987 L70.6697341,236.052762 L69.4046012,236.052762 C69.1098266,234.397312 68.9645549,233.517325 68.6190058,231.490387 L76.9446243,231.490387 L76.9446243,236.052762 L74.2789595,236.052762 L74.2789595,291.058337 L93.7707514,291.058337 L93.7707514,236.052762 L91.3236994,236.052762 L91.3236994,231.490387 L99.8002312,231.490387 L99.8002312,231.490387 Z" id="Shape" fill="#C42032"></path>
                    <path d="M139.582104,243.242388 L139.582104,239.115063 L131.798081,228.385713 L117.372462,228.385713 L110.120162,239.404625 L110.120162,289.651488 L115.987445,298.705613 L133.558266,298.705613 L139.582104,289.921275 L139.582104,281.74855 L129.757225,273.77075 L129.757225,287.914113 L119.933757,287.914113 L119.933757,239.115063 L129.757225,239.115063 L129.757225,251.218775 L139.582104,243.242388" id="Shape" fill="#C42032"></path>
                    <path d="M131.798081,225.262675 L115.72511,225.262675 L107.005988,238.473788 L107.005988,290.563963 L114.283676,301.810287 L135.202798,301.810287 L142.692046,290.904375 L142.692046,280.259775 L126.659977,267.2563 L126.659977,284.791075 L123.049341,284.791075 L123.049341,242.239512 L126.659977,242.239512 L126.659977,257.74735 L142.692046,244.743875 L142.692046,238.100887 L133.384786,225.262675 L131.798081,225.262675 L131.798081,225.262675 Z M130.211376,231.490387 C131.534335,233.3111 135.583607,238.908838 136.472162,240.117938 L136.472162,241.773387 C135.717595,242.385 134.664023,243.231088 132.855884,244.6902 L132.855884,236.020275 L116.829457,236.020275 L116.829457,291.017375 L132.855884,291.017375 L132.855884,280.289438 C134.664023,281.757025 135.717595,282.615825 136.472162,283.237325 L136.472162,288.948062 C135.717595,290.055462 133.102705,293.872037 131.910913,295.578337 L117.661595,295.578337 C116.510705,293.7887 113.907098,289.806862 113.220231,288.730537 L113.220231,240.343937 C113.994543,239.174387 117.765965,233.453762 119.062127,231.487562 L130.211376,231.487562 L130.211376,231.490387 Z" id="Shape" fill="#C42032"></path>
                    <path d="M204.216717,245.1761 L204.216717,223.461737 L217.604277,223.461737 L217.604277,241.184375 L227.429156,234.417088 L227.429156,221.37265 L221.024509,212.650463 L202.699121,212.650463 L194.414405,221.37265 L194.414405,249.874075 L217.356046,268.598175 L217.356046,287.914112 L203.205457,287.914112 L203.205457,273.265075 L192.86437,281.210387 L192.86437,289.796975 L199.156185,298.705613 L220.756532,298.705613 L227.161179,289.796975 L227.161179,263.6968 L204.216717,245.1761" id="Shape" fill="#C42032"></path>
                    <path d="M221.024509,209.5472 L201.356416,209.5472 L191.29459,220.121175 L191.29459,251.352962 C191.29459,251.352962 212.182682,268.39195 214.247514,270.068587 L214.247514,284.789662 L206.313988,284.789662 L206.313988,266.924362 L189.785457,279.679237 L189.785457,290.789962 L197.521526,301.808875 L222.346058,301.808875 L230.279584,290.81115 L230.279584,262.206612 C209.835769,245.725562 210.105156,245.943087 207.336532,243.697212 L207.336532,226.565 L214.494335,226.565 L214.494335,247.090038 L230.526405,236.052763 L230.526405,220.057613 L222.28259,209.5472 L221.024509,209.5472 L221.024509,209.5472 Z M219.753734,215.776325 C221.034382,217.0278 222.987792,221.37265 224.309341,222.687688 L224.309341,232.794125 C223.471561,233.37325 222.520948,234.025825 220.71422,235.267413 L220.71422,220.369775 L201.116647,220.369775 L201.116647,246.666288 C201.116647,246.666288 221.963838,263.489163 224.080855,265.185575 L224.080855,288.772913 C223.244486,289.921275 220.382775,293.904525 219.183931,295.578338 L200.744301,295.578338 C199.536994,293.872038 196.76837,289.919863 195.982775,288.802575 L195.982775,282.740125 C196.830428,282.09885 198.049017,281.158125 200.082821,279.553525 L200.082821,291.015963 L220.453295,291.015963 L220.453295,267.106575 C220.453295,267.106575 199.576486,250.078888 197.510243,248.382475 L197.510243,222.611413 C198.717549,221.33875 202.716046,217.116788 204.01785,215.7735 L219.753734,215.7735 L219.753734,215.776325 Z" id="Shape" fill="#C42032"></path>
                    <path d="M183.432994,287.74885 L171.118751,259.9904 L182.110035,238.969575 L183.496462,238.969575 L183.496462,228.179488 L171.223121,228.179488 L171.223121,238.969575 L173.184994,238.969575 L160.386983,263.4369 L160.386983,238.969575 L162.381295,238.969575 L162.381295,228.179488 L146.431029,228.179488 L148.951422,238.969575 L150.563514,238.969575 L150.563514,287.74885 L148.507145,287.74885 L145.965595,298.538937 L162.618243,298.538937 L162.618243,287.74885 L160.386983,287.74885 L160.386983,280.506962 L165.819861,270.140625 L173.083445,287.74885 L171.945249,287.74885 L171.945249,298.538937 L185.881457,298.538937 L185.881457,287.74885 L183.432994,287.74885" id="Shape" fill="#C42032"></path>
                    <path d="M183.496462,225.064925 L168.103306,225.064925 L168.103306,241.971137 C166.72111,244.5885 165.788832,246.409212 163.487052,250.795025 L163.487052,242.095437 L165.481364,242.095437 L165.481364,225.064925 L142.484717,225.064925 L146.483214,242.095437 L147.464855,242.095437 L147.464855,284.6357 L146.037526,284.6357 L142.051723,301.674687 L165.716902,301.674687 L165.716902,284.6357 L163.485642,284.6357 L163.485642,281.261237 C163.753618,280.817712 164.508185,279.327525 165.468671,277.475737 C167.008832,281.1779 167.80289,283.113025 168.836717,285.606087 L168.836717,301.673275 L188.980116,301.673275 L188.980116,284.634287 L185.468208,284.634287 C184.084601,281.603062 175.581272,262.412837 174.570012,260.1147 C175.685642,257.963462 182.61637,244.742462 183.991514,242.094025 L186.595121,242.094025 L186.595121,225.063512 L183.496462,225.063512 L183.496462,225.064925 Z M180.375237,231.28275 L180.375237,235.8649 L180.231376,235.8649 L167.670312,259.8887 L181.43022,290.842225 L182.761642,290.842225 L182.761642,295.435675 L175.066474,295.435675 L175.066474,290.842225 L177.710983,290.842225 L166.171052,262.763138 L157.286913,279.751275 L157.286913,290.842225 L159.497017,290.842225 L159.497017,295.435675 L149.889341,295.435675 C150.37452,293.355063 150.570566,292.445413 150.964069,290.842225 L153.680509,290.842225 L153.680509,235.8649 L151.408347,235.8649 C151.026127,234.273012 150.841364,233.371838 150.344902,231.28275 L159.281225,231.28275 L159.281225,235.8649 L157.286913,235.8649 L157.286913,263.4369 L163.142913,264.874825 L178.318867,235.866313 L174.331653,235.866313 L174.331653,231.284163 L180.375237,231.284163 L180.375237,231.28275 Z" id="Shape" fill="#C42032"></path>
                    <path d="M55.9225434,222.934875 L48.1032601,212.78465 L26.2250636,212.78465 L17.8514913,223.514 L24.3449942,223.543662 L24.3449942,288.1613 L17.9558613,288.1613 L26.2250636,298.838387 L49.591237,298.838387 L55.9225434,289.775787 L55.876,263.145925 L50.5771098,257.49875 L55.9225434,248.704525 L55.9225434,222.934875 L55.9225434,222.934875 Z M46.108948,223.574737 L46.108948,253.370012 L34.1726936,253.370012 L34.1726936,223.545075 L46.108948,223.574737 L46.108948,223.574737 Z M34.1726936,288.100563 L34.1726936,262.609175 L46.108948,262.609175 L46.108948,288.028525 L34.1726936,288.100563 L34.1726936,288.100563 Z" id="Shape" fill="#FFFFFF"></path>
                    <path d="M88.209526,228.385713 L88.209526,239.1758 L90.6735029,239.1758 L90.6735029,287.955075 L77.3945434,287.955075 L77.3945434,239.1758 L80.0602081,239.1758 L80.0602081,228.385713 L64.963237,228.385713 L66.7699653,239.1758 L67.5710751,239.1758 L67.5710751,289.693863 L73.991237,298.746575 L94.2220809,298.746575 L100.482867,289.693863 L100.482867,239.1758 L101.427838,239.1758 L103.59704,228.385713 L88.209526,228.385713" id="Shape" fill="#FFFFFF"></path>
                    <path d="M139.582104,243.242388 L139.582104,239.115063 L131.798081,228.385713 L117.386566,228.385713 L110.120162,239.404625 L110.120162,289.651488 L115.987445,298.705613 L133.558266,298.705613 L139.582104,289.921275 L139.582104,281.74855 L129.757225,273.77075 L129.757225,287.914113 L119.933757,287.914113 L119.933757,239.115063 L129.757225,239.115063 L129.757225,251.218775 L139.582104,243.242388" id="Shape" fill="#FFFFFF"></path>
                    <path d="M204.216717,245.1761 L204.216717,223.461737 L217.615561,223.461737 L217.615561,241.184375 L227.429156,234.417088 L227.429156,221.37265 L221.024509,212.650463 L202.699121,212.650463 L194.414405,221.37265 L194.414405,249.874075 L217.356046,268.598175 L217.356046,287.914112 L203.205457,287.914112 L203.205457,273.265075 L192.86437,281.210387 L192.86437,289.796975 L199.156185,298.705613 L220.756532,298.705613 L227.180925,289.796975 L227.180925,263.6968 L204.216717,245.1761" id="Shape" fill="#FFFFFF"></path>
                    <path d="M183.432994,287.74885 L171.118751,259.9904 L182.110035,238.969575 L183.496462,238.969575 L183.496462,228.179488 L171.223121,228.179488 L171.223121,238.969575 L173.184994,238.969575 L160.386983,263.4369 L160.386983,238.969575 L162.40104,238.969575 L162.40104,228.179488 L146.431029,228.179488 L148.961295,238.969575 L150.563514,238.969575 L150.563514,287.74885 L148.507145,287.74885 L145.965595,298.538937 L162.618243,298.538937 L162.618243,287.74885 L160.386983,287.74885 L160.386983,280.506962 L165.829734,270.140625 L173.083445,287.74885 L171.945249,287.74885 L171.945249,298.538937 L185.881457,298.538937 L185.881457,287.74885 L183.432994,287.74885" id="Shape" fill="#FFFFFF"></path>
                    <path d="M77.2803006,233.517325 L80.3070289,239.1758 L77.6427746,239.1758 L77.6427746,287.955075 L74.6414335,290.43825 L72.3890173,287.416913 L72.7670058,233.340763 L77.2803006,233.517325" id="Shape" fill="#BCCAD6"></path>
                    <path d="M101.691584,239.1758 L100.746613,239.1758 L100.746613,289.693863 L94.4703121,298.746575 L74.249341,298.746575 L76.3466127,293.0768 L92.3476532,293.0768 L95.7255723,288.948063 L95.7255723,233.155725 L98.9286012,233.155725 L103.829757,228.385713 L101.691584,239.1758" id="Shape" fill="#BCCAD6"></path>
                    <path d="M90.9160925,239.1758 L88.4577572,239.1758 L90.834289,233.340763 L95.7255723,233.155725 L90.9160925,239.1758" id="Shape" fill="#BCCAD6"></path>
                    <path d="M67.817896,239.1758 L67.0125549,239.1758 L69.3890867,233.517325 L72.7670058,233.340763 L67.817896,239.1758" id="Shape" fill="#BCCAD6"></path>
                    <path d="M67.817896,239.1758 L67.0125549,239.1758 L69.3890867,233.517325 L72.7670058,233.340763 L67.817896,239.1758" id="Shape" fill="#BCCAD6"></path>
                    <path d="M29.1530636,293.261838 L26.2250636,298.838388 L49.591237,298.838388 L55.9225434,289.775788 L55.8929249,263.147338 L50.9593295,263.715163 L50.9593295,289.062475 L47.6857803,293.4497 L29.1530636,293.261838" id="Shape" fill="#BCCAD6"></path>
                    <path d="M50.6504509,223.160875 L50.8408555,249.728588 L46.4460347,257.25015 L50.5771098,257.49875 L55.9225434,248.704525 L55.9225434,222.934875 L50.6504509,223.160875" id="Shape" fill="#BCCAD6"></path>
                    <path d="M34.1726936,253.370013 L29.2969249,257.529825 L29.2969249,217.803262 L46.4869364,217.8866 L50.6504509,223.160875 L46.108948,223.574737 L34.1726936,223.545075 L34.1726936,253.370013" id="Shape" fill="#BCCAD6"></path>
                    <path d="M46.108948,262.609175 L49.3853179,261.41985 L46.3726936,257.642825 L29.2969249,257.529825 L29.0345896,292.983575 L34.1726936,288.100563 L34.1726936,262.609175 L46.108948,262.609175" id="Shape" fill="#BCCAD6"></path>
                    <path d="M38.7748439,258.59485 L32.4280231,258.565187 L43.6506127,252.936375 L43.6506127,252.759812 L38.7748439,258.59485" id="Shape" fill="#BCCAD6"></path>
                    <path d="M118.926728,233.828075 L115.067861,240.117937 L115.347121,289.734825 L120.197503,287.914112 L120.197503,239.115062 L130.005457,239.115062 L133.167584,236.393175 L130.719121,233.579475 L118.926728,233.828075" id="Shape" fill="#BCCAD6"></path>
                    <path d="M134.706335,238.442712 L134.840324,241.928762 L130.005457,251.218775 L139.830335,243.242387 L139.830335,239.115062 L134.706335,238.442712" id="Shape" fill="#BCCAD6"></path>
                    <path d="M134.448231,282.679388 L134.448231,289.993313 L132.14363,293.603662 L118.27089,293.603662 L116.235676,298.705613 L133.806497,298.705613 L139.830335,289.921275 L139.830335,281.74855 L134.448231,282.679388" id="Shape" fill="#BCCAD6"></path>
                    <path d="M155.511214,232.659937 L158.846821,232.659937 L162.647861,228.179487 L162.647861,238.969575 L160.664832,238.969575 L160.664832,263.12615 L155.759445,272.520688 L155.511214,232.659937" id="Shape" fill="#BCCAD6"></path>
                    <path d="M177.710983,239.083988 L155.893434,278.943325 L155.511214,293.210987 L151.285642,293.210987 L146.213827,298.538937 L162.876347,298.538937 L162.876347,287.74885 L159.622543,293.356475 L155.511214,293.210987 L160.664832,287.74885 L160.664832,280.506962 L182.369549,238.969575 L183.753156,238.969575 L183.753156,228.179488 L180.66437,232.659938 L177.959214,232.659938 L177.710983,239.083988" id="Shape" fill="#BCCAD6"></path>
                    <path d="M186.159306,287.74885 L186.159306,298.538937 L172.216046,298.538937 L174.641942,293.716662 L183.34978,293.603662 L186.159306,287.74885" id="Shape" fill="#BCCAD6"></path>
                    <path d="M166.171052,260.43675 L180.406266,293.603662 L183.712254,287.74885 L171.170936,259.6401 L166.171052,260.43675" id="Shape" fill="#BCCAD6"></path>
                    <path d="M203.205457,273.265075 L203.236486,287.5511 L200.933295,292.942612 L197.864254,287.945187 L197.864254,282.286712 L203.205457,273.265075" id="Shape" fill="#BCCAD6"></path>
                    <path d="M199.156185,298.705613 L200.933295,292.942613 L218.401156,292.942613 L221.984994,288.700875 L221.984994,266.106525 L227.180925,263.6968 L227.180925,289.796975 L220.756532,298.705613 L199.156185,298.705613" id="Shape" fill="#BCCAD6"></path>
                    <path d="M194.393249,249.874075 L217.356046,268.598175 L221.984994,266.106525 L199.652647,247.308975 L194.393249,249.874075" id="Shape" fill="#BCCAD6"></path>
                    <path d="M204.216717,245.1761 L199.652647,247.308975 L199.652647,222.9038 L203.752694,218.153562 L218.814405,218.153562 L222.512486,222.645312 L217.615561,223.461737 L204.216717,223.461737 L204.216717,245.1761" id="Shape" fill="#BCCAD6"></path>
                    <path d="M217.604277,241.184375 L227.429156,234.417087 L227.429156,221.37265 L222.512486,222.645312 L222.512486,232.659937 L217.604277,241.184375" id="Shape" fill="#BCCAD6"></path>
                    <path d="M150.563514,238.969575 L148.961295,238.969575 L152.15304,232.62745 L155.511214,232.659938 L150.563514,238.969575" id="Shape" fill="#BCCAD6"></path>
                    <path d="M173.041133,238.969575 L171.419168,238.969575 L174.60104,232.62745 L177.959214,232.659938 L173.041133,238.969575" id="Shape" fill="#BCCAD6"></path>
                </g>
            </g>
        </g>
    </g>
</svg>