<?xml version="1.0" encoding="utf-8"?>
<!-- Generator: Adobe Illustrator 14.0.0, SVG Export Plug-In . SVG Version: 6.00 Build 43363)  -->
<!DOCTYPE svg PUBLIC "-//W3C//DTD SVG 1.1//EN" "http://www.w3.org/Graphics/SVG/1.1/DTD/svg11.dtd">
<svg version="1.1" id="Layer_1" xmlns="http://www.w3.org/2000/svg" xmlns:xlink="http://www.w3.org/1999/xlink" x="0px" y="0px"
	 width="250px" height="250px" viewBox="0 0 250 250" enable-background="new 0 0 250 250" xml:space="preserve">
<g>
	<g>
		<path fill="#FFFFFF" d="M242.583,5.038C232.525,5.038,93.66,5,93.66,5c-2.125,0.016-4.12,0.146-5.985,0.373
			C75.887,6.119,65.608,11.429,61.883,26.31L7.417,245l163.295-0.06c7.262-0.011,14.545-4.953,17.681-11.555
			c0.963-1.417,1.698-2.969,2.066-4.597C190.459,228.789,240.236,15.09,242.583,5.038"/>
		<path fill="none" stroke="#FFFFFF" stroke-width="1.3344" d="M242.583,5.038C232.525,5.038,93.66,5,93.66,5
			c-2.125,0.016-4.12,0.146-5.985,0.373C75.887,6.119,65.608,11.429,61.883,26.31L7.417,245l163.295-0.06
			c7.262-0.011,14.545-4.953,17.681-11.555c0.963-1.417,1.698-2.969,2.066-4.597C190.459,228.789,240.236,15.09,242.583,5.038z"/>
		<path fill="#051922" d="M7.417,245l163.295-0.06c8.489-0.011,17.021-6.791,18.93-15.059L242.389,5.335L92.476,5.303
			C78.731,4.87,66.111,9.45,61.883,26.31L7.417,245z"/>
		<path fill="#63717A" d="M190.459,228.789c-1.482,6.375-8.208,11.739-14.746,11.75c0,0-152.01,0.049-162.262,0.06
			c2.503-10.149,53.606-217.393,53.606-217.393C70.15,10.834,78.602,5.038,93.66,5c0,0,138.865,0.038,148.923,0.038
			C240.236,15.09,190.459,228.789,190.459,228.789"/>
	</g>
	<g>
		<defs>
			<path id="SVGID_1_" d="M61.888,26.31L7.417,245l163.295-0.06c8.494-0.011,17.021-6.791,18.93-15.069L242.389,5.335L92.476,5.303
				c-0.567-0.021-1.141-0.027-1.703-0.027C77.699,5.276,65.927,10.153,61.888,26.31"/>
		</defs>
		<clipPath id="SVGID_2_">
			<use xlink:href="#SVGID_1_"  overflow="visible"/>
		</clipPath>
		<path clip-path="url(#SVGID_2_)" fill="#63717A" d="M190.459,228.789c-1.482,6.375-8.208,11.739-14.746,11.75
			c0,0-152.01,0.049-162.262,0.06c2.503-10.149,53.606-217.393,53.606-217.393C70.15,10.834,78.602,5.038,93.66,5
			c0,0,138.865,0.038,148.923,0.038C240.236,15.09,190.459,228.789,190.459,228.789"/>
		<path clip-path="url(#SVGID_2_)" fill="none" stroke="#63717A" stroke-width="0.3322" d="M190.459,228.789
			c-1.482,6.375-8.208,11.739-14.746,11.75c0,0-152.01,0.049-162.262,0.06c2.503-10.149,53.606-217.393,53.606-217.393
			C70.15,10.834,78.602,5.038,93.66,5c0,0,138.865,0.038,148.923,0.038C240.236,15.09,190.459,228.789,190.459,228.789z"/>
	</g>
	<g>
		<path fill="#051922" d="M112.769,193.957c-1.276,0-2.082,0.011-2.082,0.011h-0.53l-11.366,42.159h15.361
			c0,0,0.406-1.503,1.049-3.86h-12.755L112.769,193.957z"/>
		<path fill="none" stroke="#63717A" stroke-width="0.3322" d="M112.769,193.957c-1.276,0-2.082,0.011-2.082,0.011h-0.53
			l-11.366,42.159h15.361c0,0,0.406-1.503,1.049-3.86h-12.755L112.769,193.957z"/>
		<path fill="#051922" d="M131.272,202.781c-1.244-0.011-4.699-0.021-5.467-0.021c-0.06,0.216-0.454,1.692-1.049,3.871
			c1.098,0.011,2.244,0.011,2.865,0.011c-0.459,1.649-8.035,29.485-8.035,29.485l15.253,0.027l1.044-3.877l-12.642-0.011
			C123.243,232.267,130.834,204.42,131.272,202.781"/>
		<path fill="none" stroke="#63717A" stroke-width="0.3322" d="M131.272,202.781c-1.244-0.011-4.699-0.021-5.467-0.021
			c-0.06,0.216-0.454,1.692-1.049,3.871c1.098,0.011,2.244,0.011,2.865,0.011c-0.459,1.649-8.035,29.485-8.035,29.485l15.253,0.027
			l1.044-3.877l-12.642-0.011C123.243,232.267,130.834,204.42,131.272,202.781z"/>
		<path fill="#051922" d="M86.145,219.543c0.2-0.757,4.818-17.816,6.943-25.646h-1.893v-0.011h-0.73l-0.179,0.681l0.022-0.011
			c-0.465,1.698-4.748,17.492-6.781,24.976C84.658,219.543,85.766,219.543,86.145,219.543"/>
		<path fill="none" stroke="#63717A" stroke-width="0.3322" d="M86.145,219.543c0.2-0.757,4.818-17.816,6.943-25.646h-1.893v-0.011
			h-0.73l-0.179,0.681l0.022-0.011c-0.465,1.698-4.748,17.492-6.781,24.976C84.658,219.543,85.766,219.543,86.145,219.543z"/>
		<path fill="#051922" d="M71.107,232.233c-1.952,0-3.515-0.713-4.596-2.141c-1.179-1.53-1.644-3.747-1.644-5.964
			c0-1.493,0.2-2.996,0.567-4.294l6.97-25.948h-1.903l0.016-0.017h-0.735l-0.179,0.676l0.011-0.011l-7.851,29.172
			c-0.514,2.584-0.297,6.288,1.909,8.981c1.855,2.26,4.667,3.417,8.359,3.417l21.277-0.027l1.157,0.011l0.52-1.936l-0.011,0.017
			l0.53-1.952C88.74,232.218,71.118,232.233,71.107,232.233"/>
		<path fill="none" stroke="#63717A" stroke-width="0.3322" d="M71.107,232.233c-1.952,0-3.515-0.713-4.596-2.141
			c-1.179-1.53-1.644-3.747-1.644-5.964c0-1.493,0.2-2.996,0.567-4.294l6.97-25.948h-1.903l0.016-0.017h-0.735l-0.179,0.676
			l0.011-0.011l-7.851,29.172c-0.514,2.584-0.297,6.288,1.909,8.981c1.855,2.26,4.667,3.417,8.359,3.417l21.277-0.027l1.157,0.011
			l0.52-1.936l-0.011,0.017l0.53-1.952C88.74,232.218,71.118,232.233,71.107,232.233z"/>
		<path fill="#051922" d="M21.064,232.666l2.325-8.478h-2.947l-3.201,11.733h31.729c2.547,0,4.109-1.477,5.115-3.271
			c-0.13,0.016-0.26,0.016-0.395,0.016H21.064z"/>
		<path fill="none" stroke="#63717A" stroke-width="0.3322" d="M21.064,232.666l2.325-8.478h-2.947l-3.201,11.733h31.729
			c2.547,0,4.109-1.477,5.115-3.271c-0.13,0.016-0.26,0.016-0.395,0.016H21.064z"/>
		<path fill="#051922" d="M45.808,202.916c-0.157,0.611-0.579,2.114-0.844,3.088c1.574,0,13.047,0.011,13.047,0.011
			c0.519,0,0.99,0.049,1.438,0.135h1.747l0.833-3.249C56.157,202.9,46.505,202.916,45.808,202.916"/>
		<path fill="none" stroke="#63717A" stroke-width="0.3322" d="M45.808,202.916c-0.157,0.611-0.579,2.114-0.844,3.088
			c1.574,0,13.047,0.011,13.047,0.011c0.519,0,0.99,0.049,1.438,0.135h1.747l0.833-3.249
			C56.157,202.9,46.505,202.916,45.808,202.916z"/>
		<path fill="#051922" d="M27.066,219.56h18.319c0.162-0.605,0.6-2.082,0.903-3.071c-1.611,0.017-12.891,0.017-12.891,0.017
			c-2.103,0-3.882-0.795-5.023-2.239c-1.157-1.503-1.503-3.509-0.962-5.661c0.303-1.179,2.925-10.981,3.358-12.474
			c0.108-0.384,0.238-0.758,0.373-1.131c-2.325,0.735-3.655,2.542-4.439,5.267c-0.427,1.46-3.044,11.247-3.353,12.447
			C22.492,216.083,24.109,218.835,27.066,219.56"/>
		<path fill="none" stroke="#63717A" stroke-width="0.3322" d="M27.066,219.56h18.319c0.162-0.605,0.6-2.082,0.903-3.071
			c-1.611,0.017-12.891,0.017-12.891,0.017c-2.103,0-3.882-0.795-5.023-2.239c-1.157-1.503-1.503-3.509-0.962-5.661
			c0.303-1.179,2.925-10.981,3.358-12.474c0.108-0.384,0.238-0.758,0.373-1.131c-2.325,0.735-3.655,2.542-4.439,5.267
			c-0.427,1.46-3.044,11.247-3.353,12.447C22.492,216.083,24.109,218.835,27.066,219.56z"/>
		<path fill="#051922" d="M166.856,202.916c-0.179,0.611-0.59,2.114-0.859,3.088c1.584,0,13.053,0.011,13.053,0.011
			c0.529,0,0.994,0.049,1.443,0.135h1.725l0.839-3.249C177.2,202.9,167.538,202.916,166.856,202.916"/>
		<path fill="none" stroke="#63717A" stroke-width="0.3322" d="M166.856,202.916c-0.179,0.611-0.59,2.114-0.859,3.088
			c1.584,0,13.053,0.011,13.053,0.011c0.529,0,0.994,0.049,1.443,0.135h1.725l0.839-3.249
			C177.2,202.9,167.538,202.916,166.856,202.916z"/>
		<path fill="#051922" d="M148.104,219.56h18.314c0.167-0.605,0.61-2.082,0.908-3.071c-1.611,0.017-12.901,0.017-12.901,0.017
			c-2.088,0-3.872-0.795-5.007-2.229c-1.168-1.503-1.504-3.52-0.963-5.672c0.319-1.265,2.941-11.041,3.342-12.474
			c0.119-0.384,0.26-0.758,0.389-1.131c-2.347,0.735-3.66,2.542-4.444,5.267c-0.422,1.46-3.044,11.247-3.347,12.447
			C143.535,216.083,145.142,218.835,148.104,219.56"/>
		<path fill="none" stroke="#63717A" stroke-width="0.3322" d="M148.104,219.56h18.314c0.167-0.605,0.61-2.082,0.908-3.071
			c-1.611,0.017-12.901,0.017-12.901,0.017c-2.088,0-3.872-0.795-5.007-2.229c-1.168-1.503-1.504-3.52-0.963-5.672
			c0.319-1.265,2.941-11.041,3.342-12.474c0.119-0.384,0.26-0.758,0.389-1.131c-2.347,0.735-3.66,2.542-4.444,5.267
			c-0.422,1.46-3.044,11.247-3.347,12.447C143.535,216.083,145.142,218.835,148.104,219.56z"/>
		<path fill="#051922" d="M142.113,232.666l2.304-8.478h-2.925l-3.212,11.733h31.718c2.568,0,4.12-1.477,5.137-3.271
			c-0.141,0.016-0.275,0.016-0.4,0.016H142.113z"/>
		<path fill="none" stroke="#63717A" stroke-width="0.3322" d="M142.113,232.666l2.304-8.478h-2.925l-3.212,11.733h31.718
			c2.568,0,4.12-1.477,5.137-3.271c-0.141,0.016-0.275,0.016-0.4,0.016H142.113z"/>
		<path fill="#051922" d="M98.684,187.16H87.929c-0.952,0-1.73-0.352-2.276-1.006c-0.784-0.94-0.887-2.309-0.751-3.044l2.136-7.526
			c0,0,0.157-0.568,0.151-0.52c0.07-0.346,0.227-0.746,0.481-1.179c-1.747,0.951-2.039,2.406-2.087,2.709
			c0,0.049-2.271,8.04-2.271,8.04c-0.038,0.184-0.059,0.39-0.059,0.616c0,0.747,0.205,1.709,0.794,2.429
			c0.557,0.659,1.352,1.021,2.288,1.021h10.76c1.66,0,2.812-0.925,3.477-2.006C100.035,186.981,99.414,187.16,98.684,187.16"/>
		<path fill="none" stroke="#63717A" stroke-width="0.3322" d="M98.684,187.16H87.929c-0.952,0-1.73-0.352-2.276-1.006
			c-0.784-0.94-0.887-2.309-0.751-3.044l2.136-7.526c0,0,0.157-0.568,0.151-0.52c0.07-0.346,0.227-0.746,0.481-1.179
			c-1.747,0.951-2.039,2.406-2.087,2.709c0,0.049-2.271,8.04-2.271,8.04c-0.038,0.184-0.059,0.39-0.059,0.616
			c0,0.747,0.205,1.709,0.794,2.429c0.557,0.659,1.352,1.021,2.288,1.021h10.76c1.66,0,2.812-0.925,3.477-2.006
			C100.035,186.981,99.414,187.16,98.684,187.16z"/>
		<path fill="#051922" d="M95.823,182.126c0.189-0.616,1.298-4.504,1.617-5.559h-3.277c-0.054,0.217-0.238,0.806-0.438,1.525h2.109
			c-0.2,0.702-0.746,2.639-1.152,4.033H95.823z"/>
		<path fill="none" stroke="#63717A" stroke-width="0.3322" d="M95.823,182.126c0.189-0.616,1.298-4.504,1.617-5.559h-3.277
			c-0.054,0.217-0.238,0.806-0.438,1.525h2.109c-0.2,0.702-0.746,2.639-1.152,4.033H95.823z"/>
		<path fill="#051922" d="M72.281,176.567c0.119-0.405,0.622-2.163,1-3.477h-1.146c0,0-0.589,1.984-1.017,3.466
			C71.605,176.557,72.032,176.557,72.281,176.567"/>
		<path fill="none" stroke="#63717A" stroke-width="0.3322" d="M72.281,176.567c0.119-0.405,0.622-2.163,1-3.477h-1.146
			c0,0-0.589,1.984-1.017,3.466C71.605,176.557,72.032,176.557,72.281,176.567z"/>
		<path fill="#051922" d="M69.209,187.149c0,0,1.125-3.953,1.427-5.002c-0.849,0-2.33,0.011-2.86,0.011
			c-0.064,0.217-0.238,0.822-0.438,1.53c0.595,0,1.228-0.016,1.709-0.016c-0.297,1.049-1.433,5.007-1.433,5.007h7.24l0.438-1.53
			H69.209z"/>
		<path fill="none" stroke="#63717A" stroke-width="0.3322" d="M69.209,187.149c0,0,1.125-3.953,1.427-5.002
			c-0.849,0-2.33,0.011-2.86,0.011c-0.064,0.217-0.238,0.822-0.438,1.53c0.595,0,1.228-0.016,1.709-0.016
			c-0.297,1.049-1.433,5.007-1.433,5.007h7.24l0.438-1.53H69.209z"/>
		<path fill="#051922" d="M58.99,187.149l4.066-14.059h-1.135l-4.542,15.589h7.359c0,0,0.195-0.676,0.438-1.53H58.99z"/>
		<path fill="none" stroke="#63717A" stroke-width="0.3322" d="M58.99,187.149l4.066-14.059h-1.135l-4.542,15.589h7.359
			c0,0,0.195-0.676,0.438-1.53H58.99z"/>
		<path fill="#051922" d="M118.095,181.569c-0.076,0.216-0.081,0.303-0.157,0.573h7.797l0.162-0.584
			C123.6,181.569,118.674,181.569,118.095,181.569"/>
		<path fill="none" stroke="#63717A" stroke-width="0.3322" d="M118.095,181.569c-0.076,0.216-0.081,0.303-0.157,0.573h7.797
			l0.162-0.584C123.6,181.569,118.674,181.569,118.095,181.569z"/>
		<path fill="#051922" d="M119.512,176.567c-0.065,0.266-0.108,0.4-0.2,0.746h7.743l0.228-0.757
			C125.032,176.557,120.112,176.567,119.512,176.567"/>
		<path fill="none" stroke="#63717A" stroke-width="0.3322" d="M119.512,176.567c-0.065,0.266-0.108,0.4-0.2,0.746h7.743
			l0.228-0.757C125.032,176.557,120.112,176.567,119.512,176.567z"/>
		<polygon fill="#051922" points="109.043,187.149 113.083,173.091 111.931,173.091 107.438,188.68 123.8,188.68 124.243,187.149 		
			"/>
		<polygon fill="none" stroke="#63717A" stroke-width="0.3322" points="109.043,187.149 113.083,173.091 111.931,173.091 
			107.438,188.68 123.8,188.68 124.243,187.149 		"/>
		<polygon fill="#051922" points="157.188,187.149 161.195,173.091 160.017,173.091 155.594,188.68 162.92,188.68 163.358,187.149 
					"/>
		<polygon fill="none" stroke="#63717A" stroke-width="0.3322" points="157.188,187.149 161.195,173.091 160.017,173.091 
			155.594,188.68 162.92,188.68 163.358,187.149 		"/>
		<path fill="#051922" d="M183.77,187.149c0,0-0.795-2.585-1.141-3.726c-0.356,0.395-0.951,1.07-1.546,1.72
			c0.373,1.228,1.098,3.536,1.098,3.536h7.797c0,0-0.266-0.639-0.633-1.53H183.77z"/>
		<path fill="none" stroke="#63717A" stroke-width="0.3322" d="M183.77,187.149c0,0-0.795-2.585-1.141-3.726
			c-0.356,0.395-0.951,1.07-1.546,1.72c0.373,1.228,1.098,3.536,1.098,3.536h7.797c0,0-0.266-0.639-0.633-1.53H183.77z"/>
		<path fill="#051922" d="M184.294,175.103c0.417-0.481,1.109-1.271,1.73-1.984l-0.962,0.011c0,0-0.465,0.54-1.044,1.189
			C184.121,174.61,184.219,174.886,184.294,175.103"/>
		<path fill="none" stroke="#63717A" stroke-width="0.3322" d="M184.294,175.103c0.417-0.481,1.109-1.271,1.73-1.984l-0.962,0.011
			c0,0-0.465,0.54-1.044,1.189C184.121,174.61,184.219,174.886,184.294,175.103z"/>
		<path fill="#051922" d="M170.225,187.149c0,0,7.527-7.83,8.003-8.321c-0.173-0.422-1.524-3.736-2.336-5.737h-2.217
			c0,0,2.423,6.077,2.66,6.678c-0.454,0.481-8.468,8.911-8.468,8.911h9.83c0,0,0.633-0.697,1.353-1.53H170.225z"/>
		<path fill="none" stroke="#63717A" stroke-width="0.3322" d="M170.225,187.149c0,0,7.527-7.83,8.003-8.321
			c-0.173-0.422-1.524-3.736-2.336-5.737h-2.217c0,0,2.423,6.077,2.66,6.678c-0.454,0.481-8.468,8.911-8.468,8.911h9.83
			c0,0,0.633-0.697,1.353-1.53H170.225z"/>
		<path fill="#051922" d="M132.089,187.16l4.039-14.08h-1.168l-0.108,0.4l-4.358,15.221h7.451c0,0,0.168-0.611,0.443-1.541H132.089z
			"/>
		<path fill="none" stroke="#63717A" stroke-width="0.3322" d="M132.089,187.16l4.039-14.08h-1.168l-0.108,0.4l-4.358,15.221h7.451
			c0,0,0.168-0.611,0.443-1.541H132.089z"/>
		<path fill="#051922" d="M141.48,187.16c0,0,2.683-9.246,3.023-10.474h-1.952c-0.044,0.157-0.217,0.725-0.433,1.53h0.8
			c-0.367,1.238-3.033,10.484-3.033,10.484h7.386l0.449-1.541H141.48z"/>
		<path fill="none" stroke="#63717A" stroke-width="0.3322" d="M141.48,187.16c0,0,2.683-9.246,3.023-10.474h-1.952
			c-0.044,0.157-0.217,0.725-0.433,1.53h0.8c-0.367,1.238-3.033,10.484-3.033,10.484h7.386l0.449-1.541H141.48z"/>
		<path fill="#051922" d="M33.788,187.149l4.034-14.059h-1.146l-0.125,0.4l-4.374,15.188h7.262c0,0,0.216-0.725,0.465-1.53H33.788z"
			/>
		<path fill="none" stroke="#63717A" stroke-width="0.3322" d="M33.788,187.149l4.034-14.059h-1.146l-0.125,0.4l-4.374,15.188h7.262
			c0,0,0.216-0.725,0.465-1.53H33.788z"/>
		<path fill="#051922" d="M47.922,178.795c0.135-0.47,0.427-1.471,0.632-2.228h-4.439c-0.103,0.352-0.265,0.957-0.443,1.541h3.287
			c-0.064,0.217-0.135,0.454-0.2,0.687H47.922z"/>
		<path fill="none" stroke="#63717A" stroke-width="0.3322" d="M47.922,178.795c0.135-0.47,0.427-1.471,0.632-2.228h-4.439
			c-0.103,0.352-0.265,0.957-0.443,1.541h3.287c-0.064,0.217-0.135,0.454-0.2,0.687H47.922z"/>
		<path fill="#051922" d="M48.938,183.818h-3.86h-3.044c-0.086,0.254-0.276,0.882-0.465,1.53c0.887,0.011,1.893,0.011,1.893,0.011
			h3.898c2.617-0.043,3.791-0.687,4.699-2.13C51.296,183.613,50.322,183.797,48.938,183.818"/>
		<path fill="none" stroke="#63717A" stroke-width="0.3322" d="M48.938,183.818h-3.86h-3.044c-0.086,0.254-0.276,0.882-0.465,1.53
			c0.887,0.011,1.893,0.011,1.893,0.011h3.898c2.617-0.043,3.791-0.687,4.699-2.13C51.296,183.613,50.322,183.797,48.938,183.818z"
			/>
		<path fill="#FFFFFF" d="M145.174,202.11c0,0-6.742,25.046-7.737,28.799c-0.919,0-10.874-0.011-12.393-0.011
			c0.449-1.639,8.024-29.485,8.024-29.485l-8.321-0.038c0,0-7.743,28.539-8.003,29.523h-12.49
			c0.438-1.639,10.354-38.455,10.636-39.418c1.011,0,25.938-0.027,25.938-0.027c1.498,0,2.688,0.53,3.499,1.59
			c0.984,1.276,1.362,3.185,1.362,5.121C145.688,199.559,145.493,200.932,145.174,202.11"/>
		<path fill="#FFFFFF" d="M97.062,230.822c-1.017,0-25.943,0.038-25.943,0.038c-1.52,0-2.704-0.541-3.504-1.601
			c-0.973-1.276-1.357-3.195-1.357-5.12c0-1.385,0.2-2.769,0.497-3.958c0,0,6.727-25.035,7.749-28.777
			c0.909,0,10.89,0.017,12.398,0.017c-0.443,1.622-8.045,29.469-8.045,29.469l8.337,0.038c0,0,7.732-28.522,7.992-29.507h12.507
			C107.249,193.054,97.321,229.86,97.062,230.822"/>
		<path fill="#FFFFFF" d="M61.921,215.672c-0.406,1.639-2.201,8.722-2.747,10.441c-1.114,3.498-2.904,5.18-5.467,5.18H22.865
			c0.395-1.417,2.595-9.5,2.828-10.354h20.726l1.703-5.829l-14.74,0.021c-1.666,0-3.044-0.61-3.904-1.719
			c-0.622-0.779-0.93-1.769-0.93-2.872c0-0.524,0.065-1.049,0.206-1.6c0.292-1.18,2.909-10.934,3.336-12.41
			c1.027-3.573,2.925-5.109,6.326-5.109h29.55c-0.357,1.396-2.379,9.219-2.584,10.101c-1.027,0-20.623,0.021-20.623,0.021
			l-1.589,5.845l14.853,0.012c1.509-0.012,2.633,0.432,3.331,1.335C62.916,210.697,62.261,214.244,61.921,215.672"/>
		<path fill="#FFFFFF" d="M179.05,207.399c1.524-0.012,2.639,0.432,3.353,1.335c1.557,1.963,0.908,5.51,0.546,6.948
			c-0.476,1.963-2.223,8.803-2.741,10.431c-1.114,3.498-2.898,5.18-5.462,5.18h-30.842c0.39-1.411,2.59-9.5,2.839-10.354h20.704
			l1.719-5.829l-14.739,0.021c-1.666,0-3.045-0.61-3.915-1.719c-0.616-0.779-0.919-1.769-0.919-2.872c0-0.519,0.064-1.049,0.194-1.6
			c0.324-1.266,2.937-11.004,3.331-12.41c1.049-3.573,2.931-5.109,6.337-5.109h29.556c-0.357,1.396-2.363,9.219-2.596,10.101
			c-1.017,0-20.612,0.021-20.612,0.021l-1.611,5.845L179.05,207.399z"/>
		<path fill="#FFFFFF" d="M75.611,186.046h-4.92c0.287-1.049,1.438-5.018,1.438-5.018l-5.196,0.027c0,0-1.233,4.304-1.422,4.99
			h-5.034c0.368-1.254,3.671-12.652,3.872-13.36h4.985c-0.297,1.043-1.471,4.979-1.471,4.979l5.245,0.021
			c0,0,1.249-4.314,1.46-5.001h4.91C79.11,173.929,75.817,185.321,75.611,186.046"/>
		<path fill="#FFFFFF" d="M127.574,175.448h-8.911l-0.811,2.984c0,0,7.705-0.011,8.932-0.011c-0.2,0.72-0.443,1.574-0.563,2.033
			h-8.959l-0.827,2.801c0,0,7.684,0.011,8.943,0.011c-0.254,0.833-0.665,2.25-0.811,2.779h-14.042
			c0.356-1.249,3.639-12.642,3.839-13.36h14.063C128.174,173.513,127.73,174.945,127.574,175.448"/>
		<path fill="#FFFFFF" d="M163.677,186.046h-5.012c0.346-1.254,3.585-12.642,3.807-13.36h5.05
			C167.176,173.929,163.898,185.321,163.677,186.046"/>
		<path fill="#FFFFFF" d="M189.907,186.03c-1.174,0-4.693,0.016-5.305,0.016c-0.2-0.648-1.498-4.85-1.498-4.85
			s-4.012,4.498-4.314,4.85h-5.948c1.39-1.454,6.688-6.975,6.688-6.975s-2.113-5.186-2.595-6.386h5.32
			c0.217,0.6,1.622,4.591,1.622,4.591l0.633-0.72c0,0,3.061-3.536,3.385-3.871h6.159c-1.455,1.46-6.852,6.808-6.852,6.808
			S189.394,184.818,189.907,186.03"/>
		<path fill="#FFFFFF" d="M150.89,176.054c0,0-2.32,8.089-2.866,10.003h-5.061c0.346-1.238,3.033-10.473,3.033-10.473l-4.277-0.027
			c0,0-2.812,9.754-3.028,10.5h-5.12c0.362-1.249,3.628-12.663,3.823-13.398H149.1c0.708,0,1.217,0.205,1.546,0.638
			c0.298,0.4,0.417,0.963,0.417,1.541C151.063,175.259,151.008,175.681,150.89,176.054"/>
		<path fill="#FFFFFF" d="M54.502,175.28c-0.048,1.336-0.719,3.515-1.163,4.569c-0.908,2.071-1.459,2.817-4.407,2.866h-3.855
			l-3.877-0.017l-0.108,0.4c0,0-0.697,2.319-0.892,2.946h-4.931c0.346-1.254,3.628-12.652,3.839-13.371
			c0.795,0,12.95,0.011,12.95,0.011c0.833,0,1.481,0.205,1.86,0.627c0.465,0.492,0.595,1.211,0.595,1.779
			C54.513,175.151,54.513,175.222,54.502,175.28 M43.282,175.465l-1.276,4.434h6.759l1.271-4.434h-0.741H43.282z"/>
		<path fill="#FFFFFF" d="M93.32,175.448l-2.228,7.792h5.591l2.238-7.792h-0.746H93.32z M103.988,175.605l-2.347,8.008
			c-0.319,1.13-1.287,2.443-2.958,2.443H87.929c-0.622,0-1.081-0.205-1.417-0.616c-0.438-0.514-0.557-1.238-0.557-1.719
			c0-0.141,0.005-0.266,0.033-0.357l2.125-7.483l0.151-0.563c0.043-0.135,0.644-2.66,3.655-2.66l10.252,0.027
			c0.632,0,1.076,0.189,1.4,0.6c0.362,0.481,0.476,1.157,0.476,1.682C104.047,175.232,104.026,175.448,103.988,175.605"/>
		<path fill="#3E2680" d="M93.909,11.229c-9.008,0-18.098,7.181-20.168,15.957l-14.27,57.25l-20.747,82.101h111.84v-0.021h28.95
			c9.019,0,18.092-6.997,20.179-15.762l33.006-139.633L93.909,11.229z"/>
		<path fill="none" stroke="#63717A" stroke-width="0.3322" d="M93.909,11.229c-9.008,0-18.098,7.181-20.168,15.957l-14.27,57.25
			l-20.747,82.101h111.84v-0.021h28.95c9.019,0,18.092-6.997,20.179-15.762l33.006-139.633L93.909,11.229z"/>
	</g>
	<g>
		<defs>
			<path id="SVGID_3_" d="M93.909,11.234c-9.008,0-18.098,7.181-20.163,15.957L59.471,84.436l-20.747,82.101h111.84v-0.016h28.95
				c9.019,0,18.092-6.997,20.179-15.768L232.71,11.121L93.909,11.234z"/>
		</defs>
		<clipPath id="SVGID_4_">
			<use xlink:href="#SVGID_3_"  overflow="visible"/>
		</clipPath>
		<polygon clip-path="url(#SVGID_4_)" fill="#051922" points="195.033,85.252 215.548,70.918 219.127,64.911 192.687,66.17 
			189.961,46.629 208.653,29.364 203.376,29.705 173.643,39.816 169.668,14.251 165.727,17.112 151.847,39.292 142.443,44.985 
			126.995,19.648 124.027,29.364 125.508,47.462 125.638,54.908 125.373,55.275 103.523,45.824 106.253,56.465 116.062,68.761 
			101.127,68.031 104.647,74.514 112.639,78.012 49.728,123.648 60.85,119.393 99.646,93.347 49.771,136.479 44.877,142.503 
			112.164,93.25 109.141,100.133 46.624,157.427 39.854,166.213 110.228,113.748 117.133,114.542 73.649,155.993 66.273,166.229 
			130.375,116.743 142.032,113.942 93.125,155.718 85.209,166.251 155.102,115.986 166.889,134.641 177.849,141.216 
			181.353,106.789 204.096,106.859 210.481,103.036 		"/>
		<polygon clip-path="url(#SVGID_4_)" fill="none" stroke="#3E2680" stroke-width="0.3322" points="195.033,85.252 215.548,70.918 
			219.127,64.911 192.687,66.17 189.961,46.629 208.653,29.364 203.376,29.705 173.643,39.816 169.668,14.251 165.727,17.112 
			151.847,39.292 142.443,44.985 126.995,19.648 124.027,29.364 125.508,47.462 125.638,54.908 125.373,55.275 103.523,45.824 
			106.253,56.465 116.062,68.761 101.127,68.031 104.647,74.514 112.639,78.012 49.728,123.648 60.85,119.393 99.646,93.347 
			49.771,136.479 44.877,142.503 112.164,93.25 109.141,100.133 46.624,157.427 39.854,166.213 110.228,113.748 117.133,114.542 
			73.649,155.993 66.273,166.229 130.375,116.743 142.032,113.942 93.125,155.718 85.209,166.251 155.102,115.986 166.889,134.641 
			177.849,141.216 181.353,106.789 204.096,106.859 210.481,103.036 		"/>
		<polygon clip-path="url(#SVGID_4_)" fill="#F9A01B" points="219.127,64.911 195.984,56.66 208.648,29.364 180.207,40.206 
			169.663,14.251 156.696,35.015 126.995,19.648 129.212,47.749 103.518,45.824 117.003,62.808 101.127,68.031 111.277,72.784 
			49.728,123.648 118.263,78.412 44.877,142.503 111.639,101.403 39.849,166.213 121.037,114.954 66.279,166.229 146.261,114.867 
			85.209,166.251 162.845,118.528 177.854,141.216 190.27,103.025 210.476,103.036 200.581,78.591 		"/>
		<polygon clip-path="url(#SVGID_4_)" fill="none" stroke="#F9A01B" stroke-width="0.3322" points="219.127,64.911 195.984,56.66 
			208.648,29.364 180.207,40.206 169.663,14.251 156.696,35.015 126.995,19.648 129.212,47.749 103.518,45.824 117.003,62.808 
			101.127,68.031 111.277,72.784 49.728,123.648 118.263,78.412 44.877,142.503 111.639,101.403 39.849,166.213 121.037,114.954 
			66.279,166.229 146.261,114.867 85.209,166.251 162.845,118.528 177.854,141.216 190.27,103.025 210.476,103.036 200.581,78.591 
					"/>
	</g>
	<g>
		<defs>
			<path id="SVGID_5_" d="M119.696,73.303c0,23.445,19.017,42.467,42.478,42.467c23.451,0,42.479-19.022,42.479-42.467
				c0-23.461-19.027-42.479-42.479-42.479C138.713,30.824,119.696,49.841,119.696,73.303"/>
		</defs>
		<clipPath id="SVGID_6_">
			<use xlink:href="#SVGID_5_"  overflow="visible"/>
		</clipPath>
		<path clip-path="url(#SVGID_6_)" fill="#BF2F38" d="M162.142,117.441c24.402,0,44.182-19.779,44.182-44.166
			c0-24.391-19.779-44.165-44.182-44.165c-24.381,0-44.155,19.774-44.155,44.165C117.987,97.662,137.761,117.441,162.142,117.441"/>
		<path clip-path="url(#SVGID_6_)" fill="#E56020" d="M162.099,105.432c20.249,4.315,40.196-8.597,44.511-28.874
			c4.331-20.271-8.592-40.196-28.863-44.522c-20.255-4.331-40.19,8.597-44.517,28.863
			C128.904,81.165,141.821,101.111,162.099,105.432"/>
		<path clip-path="url(#SVGID_6_)" fill="none" stroke="#E56020" stroke-width="0.2381" d="M162.099,105.432
			c20.249,4.315,40.196-8.597,44.511-28.874c4.331-20.271-8.592-40.196-28.863-44.522c-20.255-4.331-40.19,8.597-44.517,28.863
			C128.904,81.165,141.821,101.111,162.099,105.432z"/>
		<path clip-path="url(#SVGID_6_)" fill="#F9A01B" d="M157.724,33.166c0,0,52.244,4.288,39.413,61.382
			c0,0,14.291-26.69-4.629-48.426C192.508,46.121,179.482,30.738,157.724,33.166"/>
		<path clip-path="url(#SVGID_6_)" fill="none" stroke="#F9A01B" stroke-width="0.3322" stroke-linejoin="round" d="M157.724,33.166
			c0,0,52.244,4.288,39.413,61.382c0,0,14.291-26.69-4.629-48.426C192.508,46.121,179.482,30.738,157.724,33.166z"/>
		<path clip-path="url(#SVGID_6_)" fill="#F9A01B" d="M187.663,60.525c-0.2-0.524-0.352-0.827-0.384-0.924
			c-1.898-4.034-4.131-7.451-6.618-10.371c10.771-2.428,18.503-1.265,18.633-1.26l-0.908-2.752
			c-0.579-0.043-8.479-1.146-19.834,1.66c-2.952-3.022-6.109-5.407-9.278-7.305c1.779-2.022,3.169-4.71,3.73-8.322l-2.292,0.07
			c0,0-0.341,3.861-3.342,7.191c-11.55-6.18-22.764-6.083-23.456-6.131l-0.725,2.055c0.584,0.054,11.544,0.373,21.585,6.256
			c-2.238,1.417-5.293,2.438-9.494,2.438c0,0-19.769,0.627-28.518,6.197L123,55.578c0,0,11.652-10.084,33.016-9.992
			c0,0,5.926-0.146,10.841-3.796c2.866,1.595,5.683,3.58,8.246,6.018c-7.408,2.238-16.038,6.153-24.927,12.917
			c-0.768,0.552-20.147,14.621-26.598,38.104l6.445,5.78c5.975-27.728,23.331-41.884,23.51-42.019
			c8.159-6.705,16.486-10.441,23.759-12.507c2.558,2.931,4.764,6.418,6.386,10.604c-3.125,0.368-13.863,2.887-20.125,19.838
			c-0.043,0.135-5.785,18.773-5.785,18.773c-0.185,0.698-3.563,15.281-15.876,15.427l0.06,4.785
			c16.654,2.623,18.903-6.889,21.975-18.168c2.006-8.662,4.58-19.363,4.58-19.363c3.26-15.486,13.464-17.962,16.15-18.346
			c2.061,7.392,5.603,27.728-7.175,49.708l6.392,2.887c0.93-1.443,2.633-2.925,3.379-4.374c8.446-20.699,4.223-39.759,1.487-48.27
			c10.663,1.119,16.783,12.155,17.021,12.637l3.233-0.541C208.686,75.082,202.138,61.045,187.663,60.525"/>
		<path clip-path="url(#SVGID_6_)" fill="none" stroke="#F9A01B" stroke-width="0.3322" d="M187.663,60.525
			c-0.2-0.524-0.352-0.827-0.384-0.924c-1.898-4.034-4.131-7.451-6.618-10.371c10.771-2.428,18.503-1.265,18.633-1.26l-0.908-2.752
			c-0.579-0.043-8.479-1.146-19.834,1.66c-2.952-3.022-6.109-5.407-9.278-7.305c1.779-2.022,3.169-4.71,3.73-8.322l-2.292,0.07
			c0,0-0.341,3.861-3.342,7.191c-11.55-6.18-22.764-6.083-23.456-6.131l-0.725,2.055c0.584,0.054,11.544,0.373,21.585,6.256
			c-2.238,1.417-5.293,2.438-9.494,2.438c0,0-19.769,0.627-28.518,6.197L123,55.578c0,0,11.652-10.084,33.016-9.992
			c0,0,5.926-0.146,10.841-3.796c2.866,1.595,5.683,3.58,8.246,6.018c-7.408,2.238-16.038,6.153-24.927,12.917
			c-0.768,0.552-20.147,14.621-26.598,38.104l6.445,5.78c5.975-27.728,23.331-41.884,23.51-42.019
			c8.159-6.705,16.486-10.441,23.759-12.507c2.558,2.931,4.764,6.418,6.386,10.604c-3.125,0.368-13.863,2.887-20.125,19.838
			c-0.043,0.135-5.785,18.773-5.785,18.773c-0.185,0.698-3.563,15.281-15.876,15.427l0.06,4.785
			c16.654,2.623,18.903-6.889,21.975-18.168c2.006-8.662,4.58-19.363,4.58-19.363c3.26-15.486,13.464-17.962,16.15-18.346
			c2.061,7.392,5.603,27.728-7.175,49.708l6.392,2.887c0.93-1.443,2.633-2.925,3.379-4.374c8.446-20.699,4.223-39.759,1.487-48.27
			c10.663,1.119,16.783,12.155,17.021,12.637l3.233-0.541C208.686,75.082,202.138,61.045,187.663,60.525z"/>
		<path clip-path="url(#SVGID_6_)" fill="#FFFFFF" d="M204.177,67.998c-2.915-3.677-6.57-6.229-10.874-7.607
			c-1.46-0.481-2.974-0.811-4.51-0.968c-1.049-0.129-2.076-0.178-3.087-0.151h-0.104l-0.048-0.086
			c-1.871-3.872-4.175-7.381-6.884-10.425l-0.184-0.189l0.26-0.076c9.852-2.53,17.021-1.898,19.243-1.611
			c-0.135-0.389-0.665-1.941-0.735-2.114c-0.06-0.011-0.124-0.011-0.124-0.011c-0.503-0.065-1.871-0.189-3.871-0.205
			c-5.245-0.163-10.836,0.514-16.563,2.017l-0.092,0.027l-0.07-0.076c-2.601-2.525-5.548-4.747-8.775-6.585l-0.174-0.108
			l0.747-0.779c1.719-1.881,2.86-4.271,3.374-7.143c0.194-1.146,0.303-2.396,0.313-3.693c-0.4,0.151-2.704,1.065-2.866,1.141
			c-0.016,0.189-0.173,2.001-0.173,2.001c-0.011-0.011-0.146,0.789-0.146,0.789c0,0.022-0.027,0.07-0.027,0.07
			c-0.568,2.406-2.553,4.58-4.115,5.997l-0.081,0.076l-0.092-0.06c-6.602-3.098-14.377-4.855-21.92-4.947
			c0,0-0.136-0.016-0.249-0.016c-0.049,0.189-0.433,1.4-0.535,1.692c3.212,0.194,11.506,1.049,20.071,4.931l0.378,0.178l-0.4,0.141
			c-1.925,0.654-4.238,0.936-6.851,0.822c-2.957-0.362-25.543-0.794-33.583,7.694c0.141,0.233,2.666,3.699,2.866,3.985
			c0.319-0.341,0.692-0.682,1.12-1.022c0.481-0.313,11.658-7.543,29.971-7.348c0.055,0,5.267,0.124,9.819-2.671l0.076-0.054
			l0.086,0.054c2.92,1.617,5.526,3.509,7.83,5.64l0.227,0.195l-0.281,0.092c-6.629,2.093-11.041,4.537-11.073,4.558
			c-8.225,4.353-10.598,6.164-16.222,10.728l-0.757,0.789l-0.119,0.125c-6.305,5.65-17.54,17.579-22.196,34.362
			c0.211,0.124,5.542,3.26,5.899,3.477c0.649-2.812,1.477-5.64,2.477-8.43c0.8-2.173,1.746-4.439,2.812-6.732
			c7.57-15.945,18.373-24.542,18.471-24.602c7.105-5.64,14.794-9.814,22.808-12.361l0.119-0.049l0.064,0.087
			c2.666,2.947,4.823,6.31,6.386,9.992l0.07,0.189l-0.194,0.043c-1.504,0.362-3.018,0.941-4.488,1.725
			c-11.49,5.731-14.815,20.114-14.837,20.26c0,0.021-5.158,15.621-5.158,15.621c-0.703,2.596-4.683,15.199-16.168,15.21
			c0,0.287-0.097,3.185-0.107,3.439c0.265,0.048,3.487,0.67,3.487,0.67c3.769,0.784,5.661,1.179,7.954-0.119l0.032-0.032
			l0.075,0.016c0.266,0.043,1.645-0.189,2.807-1.438c0.06-0.048,2.098-1.092,4.585-7.191c0.984-2.32,1.769-5.012,2.606-7.862
			l0.146-0.508l0.616-2.92l0.07-0.276c1.708-7.397,4.207-16.221,4.218-16.308l0.329-1.189c0.79-2.369,1.541-4.267,2.25-5.65
			c3.882-7.375,9.619-9.728,12.695-10.479l0.146-0.027l0.038,0.157c0.8,2.807,2.206,8.884,2.206,16.833
			c0,9.473-1.996,21.618-9.382,34.065c-0.011,0.027-5.056,6.218-6.591,8.078c1.157-0.503,12.609-5.591,12.706-5.624
			c6.56-10.257,8.521-21.298,8.521-30.804c0-10.468-2.347-19.076-3.573-22.813l-0.07-0.227l0.227,0.011
			c11.847,0.34,18.244,11.047,18.746,11.912c0.146,0.011,2.223,0.216,2.688,0.265C207.918,73.384,206.561,70.788,204.177,67.998"/>
		<path clip-path="url(#SVGID_6_)" fill="#051922" d="M204.306,67.885L204.306,67.885c-3.406-4.271-7.386-6.521-10.949-7.651
			c-1.416-0.47-2.931-0.806-4.542-0.973c-1.211-0.146-2.255-0.184-3.104-0.157c-1.989-4.088-4.336-7.554-6.91-10.452
			c11.393-2.919,19.304-1.573,19.434-1.552l-0.85-2.482c-0.237-0.016-1.703-0.21-4.12-0.238v-0.011
			c-6.013-0.173-11.738,0.773-16.616,2.044c-2.801-2.725-5.791-4.899-8.797-6.613c0.211-0.216,0.411-0.427,0.622-0.66
			c2-2.168,2.963-4.786,3.396-7.203c0.259-1.443,0.329-2.812,0.329-3.979l-3.206,1.276c-0.017,0.589-0.075,1.308-0.189,2.087h-0.005
			c-0.021,0.265-0.07,0.519-0.13,0.784c-0.011,0.021-0.011,0.048-0.011,0.086c-0.568,2.331-2.498,4.472-4.077,5.894
			c-11.171-5.283-21.688-4.947-22.342-4.996l-0.644,2.022c0.546,0.038,10.182,0.373,20.223,4.942
			c-1.801,0.6-4.018,0.925-6.797,0.806c-3.623-0.449-25.852-0.719-33.827,7.851l3.071,4.239c0.362-0.384,0.795-0.768,1.265-1.13
			c0.211-0.146,11.404-7.521,29.858-7.327c0,0,5.256,0.178,9.911-2.698c2.698,1.52,5.348,3.369,7.809,5.634
			c-6.754,2.136-11.123,4.569-11.123,4.569c-8.089,4.288-10.436,6.034-16.237,10.739c-0.303,0.308-0.611,0.622-0.893,0.935
			c-6.271,5.613-17.627,17.638-22.282,34.557l6.213,3.655c0.67-3.044,1.546-5.916,2.52-8.625c0.94-2.563,1.968-4.904,2.801-6.721
			c7.526-15.837,18.292-24.445,18.438-24.537c8.046-6.386,15.896-10.155,22.764-12.35c2.493,2.763,4.693,6.04,6.354,9.955
			c-1.26,0.303-2.817,0.822-4.531,1.73c-11.695,5.845-14.929,20.39-14.929,20.39c-1.752,5.283-5.153,15.599-5.153,15.599
			c-0.189,0.687-3.866,15.221-16.173,15.091l-0.107,3.753c6.348,1.114,8.684,2.249,11.668,0.551c0.379,0.07,1.828-0.254,2.958-1.492
			c0,0,2.087-0.962,4.623-7.251c1.049-2.45,1.871-5.305,2.769-8.354c0.189-0.936,0.405-1.936,0.633-2.947
			c0.021-0.087,0.043-0.184,0.075-0.265v-0.076c1.714-7.402,4.201-16.243,4.201-16.243c0.103-0.395,0.217-0.784,0.313-1.179
			c0.735-2.152,1.477-4.136,2.239-5.629c3.893-7.391,9.711-9.673,12.587-10.376c1.947,6.818,6.089,28.425-7.169,50.773l-7.008,8.592
			l13.388-5.926c13.523-21.093,7.7-45.463,4.985-53.801c11.853,0.346,18.417,11.415,18.639,11.912l3.071,0.297
			C208.615,74.476,207.188,71.302,204.306,67.885"/>
	</g>
	<g>
		<defs>
			<polygon id="SVGID_7_" points="171.145,11.175 169.674,14.251 180.207,40.2 208.648,29.364 195.984,56.66 219.127,64.911 
				200.581,78.591 210.486,103.036 210.816,103.69 232.71,11.121 			"/>
		</defs>
		<clipPath id="SVGID_8_">
			<use xlink:href="#SVGID_7_"  overflow="visible"/>
		</clipPath>
		<path clip-path="url(#SVGID_8_)" fill="none" stroke="#E56020" stroke-width="0.3322" d="M162.174,115.77
			c-23.461,0-42.483-19.022-42.483-42.467c0-23.461,19.022-42.479,42.483-42.479c23.451,0,42.479,19.017,42.479,42.479
			C204.652,96.748,185.625,115.77,162.174,115.77z"/>
	</g>
	<g>
		<defs>
			<path id="SVGID_9_" d="M189.031,106.827l15.064,0.033l6.391-3.823l-20.217-0.005L189.031,106.827z M134.992,23.763l20.044,10.398
				l1.655,0.854l12.982-20.763L134.992,23.763z"/>
		</defs>
		<clipPath id="SVGID_10_">
			<use xlink:href="#SVGID_9_"  overflow="visible"/>
		</clipPath>
		<path clip-path="url(#SVGID_10_)" fill="none" stroke="#BF2F38" stroke-width="0.3322" d="M162.174,115.77
			c-23.461,0-42.483-19.022-42.483-42.467c0-23.461,19.022-42.479,42.483-42.479c23.451,0,42.479,19.017,42.479,42.479
			C204.652,96.748,185.625,115.77,162.174,115.77z"/>
	</g>
	<g>
		<defs>
			<polygon id="SVGID_11_" points="156.691,35.015 126.995,19.648 129.212,47.749 103.518,45.829 116.998,62.808 101.127,68.031 
				111.282,72.784 49.733,123.648 118.263,78.412 44.877,142.503 111.639,101.403 39.849,166.219 121.042,114.948 66.279,166.229 
				146.261,114.867 85.214,166.251 162.845,118.533 177.854,141.216 190.27,103.031 210.486,103.036 200.581,78.591 219.127,64.911 
				195.984,56.66 208.648,29.364 180.207,40.2 169.674,14.251 			"/>
		</defs>
		<clipPath id="SVGID_12_">
			<use xlink:href="#SVGID_11_"  overflow="visible"/>
		</clipPath>
		<path clip-path="url(#SVGID_12_)" fill="none" stroke="#F9A01B" stroke-width="0.3322" d="M162.174,115.77
			c-23.461,0-42.483-19.022-42.483-42.467c0-23.461,19.022-42.479,42.483-42.479c23.451,0,42.479,19.017,42.479,42.479
			C204.652,96.748,185.625,115.77,162.174,115.77z"/>
	</g>
</g>
</svg>
