<?xml version="1.0" encoding="utf-8"?>
<!-- Generator: Adobe Illustrator 14.0.0, SVG Export Plug-In . SVG Version: 6.00 Build 43363)  -->
<!DOCTYPE svg PUBLIC "-//W3C//DTD SVG 1.1//EN" "http://www.w3.org/Graphics/SVG/1.1/DTD/svg11.dtd">
<svg version="1.1" id="Layer_1" xmlns="http://www.w3.org/2000/svg" xmlns:xlink="http://www.w3.org/1999/xlink" x="0px" y="0px"
	 width="205px" height="250px" viewBox="0 0 205 250" enable-background="new 0 0 205 250" xml:space="preserve">
<g>
	<polygon fill="#C4CED4" points="69.158,5 4.589,245 135.861,245 200.41,5 	"/>
	<polygon fill="#231F20" points="132.129,240.126 10.986,240.126 72.89,9.876 194.042,9.876 	"/>
	<path fill="#C4CED4" d="M101.79,121.952l4.038-4.05c-4.614-1.42-7.223-4.582-7.223-8.632c0-2.112,0.882-4.008,2.312-5.347
		l52.611-52.634h-2.943l-49.501,44.625l-4.242,3.823c-2.516,2.4-4.085,5.789-4.085,9.534c0,0.871,0.083,1.725,0.241,2.544
		C93.926,116.537,97.854,120.545,101.79,121.952"/>
	<path fill="#C4CED4" d="M95.663,128.074l3.982-3.987c-6.173-3.143-9.608-8.376-9.608-14.817c0-4.326,1.727-8.237,4.535-11.108
		l46.832-46.871h-2.711L94.874,90.002c-0.604,0.487-4.345,3.901-4.837,4.496c-3.63,3.86-5.849,9.054-5.849,14.772
		c0,1.017,0.083,2.001,0.232,2.971C85.414,119.162,89.74,125.015,95.663,128.074"/>
	<path fill="#C4CED4" d="M89.424,134.311l4.048-4.038c-7.529-4.626-12.013-12.16-12.013-21.004c0-6.541,2.581-12.478,6.768-16.864
		l41.062-41.115h-2.479L88.663,84.1c-1.216,0.975-4.447,3.969-5.45,5.157c-4.716,5.324-7.594,12.34-7.594,20.011
		c0,1.146,0.074,2.277,0.213,3.388C76.9,121.785,82.081,129.657,89.424,134.311"/>
	<path fill="#C4CED4" d="M83.176,140.559l4.113-4.112c-8.838-6.1-14.39-15.934-14.39-27.176c0-8.759,3.417-16.717,8.978-22.615
		l35.306-35.364h-2.275L82.452,78.188c-1.819,1.469-4.549,4.045-6.053,5.837c-5.821,6.784-9.349,15.615-9.349,25.245
		c0,1.284,0.074,2.553,0.204,3.813C68.396,124.41,74.421,134.292,83.176,140.559"/>
	<path fill="#C4CED4" d="M58.658,113.499c1.216,13.531,8.104,25.435,18.271,33.308l4.177-4.169
		c-10.175-7.594-16.766-19.728-16.766-33.37c0-10.964,4.252-20.947,11.206-28.38l29.513-29.599h-2.042L76.241,72.27
		c-2.423,1.947-4.651,4.129-6.647,6.513c-6.925,8.255-11.112,18.892-11.112,30.485C58.481,110.7,58.537,112.111,58.658,113.499"/>
	<path fill="#E13A3E" d="M111.176,97.401l-4.048,4.045c4.623,1.425,7.241,4.582,7.241,8.631c0,2.105-0.91,4.006-2.33,5.348
		l-52.602,52.641h2.934l49.52-44.627l4.233-3.823c2.516-2.404,4.085-5.797,4.085-9.539c0-0.875-0.084-1.724-0.251-2.543
		C119.029,102.802,115.112,98.798,111.176,97.401"/>
	<path fill="#E13A3E" d="M117.294,91.269l-3.983,3.992c6.192,3.147,9.609,8.376,9.609,14.816c0,4.317-1.718,8.237-4.521,11.099
		l-46.846,46.89h2.72l43.819-38.716c0.604-0.496,4.345-3.908,4.847-4.502c3.62-3.857,5.839-9.061,5.839-14.771
		c0-1.007-0.074-2.005-0.231-2.966C127.543,100.177,123.226,94.34,117.294,91.269"/>
	<path fill="#E13A3E" d="M123.541,85.03l-4.038,4.05c7.501,4.635,11.995,12.159,11.995,21c0,6.531-2.563,12.473-6.777,16.866
		l-41.043,41.12h2.488l38.137-32.818c1.207-0.983,4.438-3.974,5.44-5.152c4.734-5.331,7.604-12.333,7.604-20.016
		c0-1.149-0.074-2.291-0.223-3.384C136.065,97.566,130.876,89.688,123.541,85.03"/>
	<path fill="#E13A3E" d="M129.78,78.783l-4.104,4.122c8.848,6.097,14.39,15.933,14.39,27.173c0,8.755-3.426,16.72-8.986,22.618
		l-35.288,35.371h2.256l32.465-26.904c1.819-1.467,4.549-4.048,6.044-5.83c5.82-6.798,9.357-15.625,9.357-25.254
		c0-1.288-0.064-2.571-0.204-3.811C144.578,94.938,138.544,85.051,129.78,78.783"/>
	<path fill="#E13A3E" d="M154.299,105.845c-1.198-13.522-8.096-25.431-18.262-33.301l-4.178,4.164
		c10.175,7.601,16.776,19.726,16.776,33.373c0,10.962-4.271,20.944-11.206,28.39l-29.521,29.597h2.032l26.793-21
		c2.404-1.94,4.633-4.122,6.638-6.499c6.926-8.253,11.113-18.899,11.113-30.487C154.484,108.653,154.419,107.237,154.299,105.845"/>
	<g>
		<defs>
			<polygon id="SVGID_1_" points="45.057,206.315 46.283,208.516 39.844,232.606 46.617,232.606 47.248,230.239 43.794,230.239 
				50.209,206.315 			"/>
		</defs>
		<clipPath id="SVGID_2_">
			<use xlink:href="#SVGID_1_"  overflow="visible"/>
		</clipPath>
		
			<linearGradient id="SVGID_3_" gradientUnits="userSpaceOnUse" x1="-162.7505" y1="467.8828" x2="-157.9972" y2="467.8828" gradientTransform="matrix(0 5.5556 5.5556 0 -2554.3323 1110.4928)">
			<stop  offset="0" style="stop-color:#FFFFFF"/>
			<stop  offset="0.1461" style="stop-color:#FFFFFF"/>
			<stop  offset="0.2818" style="stop-color:#FAFBFB"/>
			<stop  offset="0.4423" style="stop-color:#ECEFF1"/>
			<stop  offset="0.6148" style="stop-color:#D4DBE0"/>
			<stop  offset="0.7079" style="stop-color:#C4CED4"/>
			<stop  offset="1" style="stop-color:#C4CED4"/>
		</linearGradient>
		<rect x="39.844" y="206.315" clip-path="url(#SVGID_2_)" fill="url(#SVGID_3_)" width="10.365" height="26.291"/>
	</g>
	<g>
		<defs>
			<path id="SVGID_4_" d="M64.906,210.873l-2.595,12.645h-1.973L64.906,210.873z M62.78,208.441l-9.033,24.156l3.361,0.009
				l2.339-6.675h2.404l-1.439,6.675h3.463l4.837-26.291h-7.028L62.78,208.441z"/>
		</defs>
		<clipPath id="SVGID_5_">
			<use xlink:href="#SVGID_4_"  overflow="visible"/>
		</clipPath>
		
			<linearGradient id="SVGID_6_" gradientUnits="userSpaceOnUse" x1="-162.7549" y1="470.1895" x2="-158.0021" y2="470.1895" gradientTransform="matrix(0 5.5561 5.5561 0 -2551.21 1110.6039)">
			<stop  offset="0" style="stop-color:#FFFFFF"/>
			<stop  offset="0.1461" style="stop-color:#FFFFFF"/>
			<stop  offset="0.2818" style="stop-color:#FAFBFB"/>
			<stop  offset="0.4423" style="stop-color:#ECEFF1"/>
			<stop  offset="0.6148" style="stop-color:#D4DBE0"/>
			<stop  offset="0.7079" style="stop-color:#C4CED4"/>
			<stop  offset="1" style="stop-color:#C4CED4"/>
		</linearGradient>
		<rect x="53.747" y="206.315" clip-path="url(#SVGID_5_)" fill="url(#SVGID_6_)" width="14.965" height="26.291"/>
	</g>
	<g>
		<defs>
			<polygon id="SVGID_7_" points="76.25,206.315 77.55,208.59 80.985,208.59 69.928,232.606 78.729,232.606 79.36,230.239 
				74.616,230.239 85.655,206.315 			"/>
		</defs>
		<clipPath id="SVGID_8_">
			<use xlink:href="#SVGID_7_"  overflow="visible"/>
		</clipPath>
		
			<linearGradient id="SVGID_9_" gradientUnits="userSpaceOnUse" x1="-162.7588" y1="472.5469" x2="-158.0065" y2="472.5469" gradientTransform="matrix(0 5.5567 5.5567 0 -2548.0098 1110.7151)">
			<stop  offset="0" style="stop-color:#FFFFFF"/>
			<stop  offset="0.1461" style="stop-color:#FFFFFF"/>
			<stop  offset="0.2818" style="stop-color:#FAFBFB"/>
			<stop  offset="0.4423" style="stop-color:#ECEFF1"/>
			<stop  offset="0.6148" style="stop-color:#D4DBE0"/>
			<stop  offset="0.7079" style="stop-color:#C4CED4"/>
			<stop  offset="1" style="stop-color:#C4CED4"/>
		</linearGradient>
		<rect x="69.923" y="206.315" clip-path="url(#SVGID_8_)" fill="url(#SVGID_9_)" width="15.731" height="26.291"/>
	</g>
	<g>
		<defs>
			<path id="SVGID_10_" d="M92.163,206.315l1.272,2.2l-6.438,24.091h7.19l0.636-2.377h-3.876c0,0,2.488-9.302,2.794-10.425h3.472
				l0.641-2.368h-3.481l2.367-8.819h3.853l0.608-2.302H92.163z"/>
		</defs>
		<clipPath id="SVGID_11_">
			<use xlink:href="#SVGID_10_"  overflow="visible"/>
		</clipPath>
		
			<linearGradient id="SVGID_12_" gradientUnits="userSpaceOnUse" x1="-162.7588" y1="474.8652" x2="-158.0065" y2="474.8652" gradientTransform="matrix(0 5.5567 5.5567 0 -2544.5801 1110.7151)">
			<stop  offset="0" style="stop-color:#FFFFFF"/>
			<stop  offset="0.1461" style="stop-color:#FFFFFF"/>
			<stop  offset="0.2818" style="stop-color:#FAFBFB"/>
			<stop  offset="0.4423" style="stop-color:#ECEFF1"/>
			<stop  offset="0.6148" style="stop-color:#D4DBE0"/>
			<stop  offset="0.7079" style="stop-color:#C4CED4"/>
			<stop  offset="1" style="stop-color:#C4CED4"/>
		</linearGradient>
		<rect x="86.996" y="206.315" clip-path="url(#SVGID_11_)" fill="url(#SVGID_12_)" width="14.204" height="26.291"/>
	</g>
	<g>
		<defs>
			<path id="SVGID_13_" d="M111.891,208.46c0,0,1.197-0.084,1.605,0.074c0.354,0.13,0.367,0.454,0.195,1.123l-1.629,6.1
				c-0.246,0.928-0.432,1.067-0.608,1.234c-0.214,0.195-0.673,0.445-1.694,0.445h-0.273L111.891,208.46z M113.13,206.315h-5.858
				l1.276,2.2l-6.452,24.109h3.324c0,0,3.096-11.614,3.435-12.82h0.274c0.636,0,1.072,0.064,1.322,0.278
				c0.223,0.194,0.307,0.548,0.14,1.207l-3.059,11.335h3.332l2.967-11.038c0.269-1.012,0.496-1.969-0.204-2.628
				c-0.251-0.223-0.576-0.324-0.576-0.324s0.315-0.093,0.762-0.334c0.287-0.158,0.604-0.372,0.854-0.678
				c0.182-0.261,0.362-0.521,0.529-1.143l1.736-6.479c0,0,0.064-0.214,0.074-0.241c0.236-0.92,0.487-2.015-0.557-2.748
				c-0.961-0.696-2.21-0.696-3.311-0.696H113.13z"/>
		</defs>
		<clipPath id="SVGID_14_">
			<use xlink:href="#SVGID_13_"  overflow="visible"/>
		</clipPath>
		
			<linearGradient id="SVGID_15_" gradientUnits="userSpaceOnUse" x1="-162.7632" y1="477.1055" x2="-158.0126" y2="477.1055" gradientTransform="matrix(0 5.5573 5.5573 0 -2541.6257 1110.8394)">
			<stop  offset="0" style="stop-color:#FFFFFF"/>
			<stop  offset="0.1461" style="stop-color:#FFFFFF"/>
			<stop  offset="0.2818" style="stop-color:#FAFBFB"/>
			<stop  offset="0.4423" style="stop-color:#ECEFF1"/>
			<stop  offset="0.6148" style="stop-color:#D4DBE0"/>
			<stop  offset="0.7079" style="stop-color:#C4CED4"/>
			<stop  offset="1" style="stop-color:#C4CED4"/>
		</linearGradient>
		<rect x="102.096" y="206.315" clip-path="url(#SVGID_14_)" fill="url(#SVGID_15_)" width="15.397" height="26.31"/>
	</g>
	<g>
		<defs>
			<path id="SVGID_16_" d="M128.489,206.315h-4.312l0.617,1.095l0.511,0.929c-0.283,0.474-0.45,0.993-0.595,1.504l-0.334,1.216
				c-0.278,1.068-0.492,2.154-0.52,3.027c-0.033,0.882,0.231,1.958,0.52,2.729c0.278,0.771,1.912,4.791,2.033,5.366
				c0.103,0.576,0.214,0.956-0.177,2.433l-1.42,5.273c-0.158,0.612-0.256,0.946-1.29,0.946c-1.031,0-0.994-0.427-0.864-0.946
				l1.802-6.647l-3.352,0.009l-1.56,5.821c-0.251,0.947-0.399,1.903,0.148,2.655c0.529,0.715,1.624,1.049,3.355,1.049
				c3.793-0.009,4.786-1.773,5.297-3.667c0,0,1.021-3.788,1.281-4.744c0.437-1.652,0.325-2.413,0.157-3.296
				c-0.167-0.891-0.524-1.68-0.779-2.33l-1.217-3.128c-0.343-0.882-0.501-1.504-0.496-2.284c0-0.808,0.251-1.671,0.543-2.775
				l0.408-1.485c0.13-0.529,0.241-0.929,1.355-0.947c0.418,0,0.691,0.074,0.799,0.223c0.102,0.121,0.102,0.353-0.019,0.725
				l-1.421,5.31h3.333l1.207-4.483c0.232-0.901,0.437-1.913-0.121-2.665c-0.524-0.724-1.587-1.049-3.286-1.049
				C129.479,206.176,128.963,206.231,128.489,206.315"/>
		</defs>
		<clipPath id="SVGID_17_">
			<use xlink:href="#SVGID_16_"  overflow="visible"/>
		</clipPath>
		
			<linearGradient id="SVGID_18_" gradientUnits="userSpaceOnUse" x1="-162.7773" y1="479.4922" x2="-158.0224" y2="479.4922" gradientTransform="matrix(0 5.5587 5.5587 0 -2538.8162 1111.126)">
			<stop  offset="0" style="stop-color:#FFFFFF"/>
			<stop  offset="0.1461" style="stop-color:#FFFFFF"/>
			<stop  offset="0.2818" style="stop-color:#FAFBFB"/>
			<stop  offset="0.4423" style="stop-color:#ECEFF1"/>
			<stop  offset="0.6148" style="stop-color:#D4DBE0"/>
			<stop  offset="0.7079" style="stop-color:#C4CED4"/>
			<stop  offset="1" style="stop-color:#C4CED4"/>
		</linearGradient>
		<rect x="119.15" y="206.176" clip-path="url(#SVGID_17_)" fill="url(#SVGID_18_)" width="14.789" height="26.598"/>
	</g>
	<g>
		<defs>
			<path id="SVGID_19_" d="M28.727,219.805h0.269c0.631,0,1.077,0.064,1.318,0.278c0.232,0.194,0.316,0.548,0.139,1.207
				l-2.228,8.309c-0.125,0.427-0.241,0.649-0.492,0.789c-0.242,0.13-0.594,0.177-1.281,0.177h-0.631L28.727,219.805z M31.768,208.46
				c0,0,1.184-0.084,1.583,0.074c0.372,0.13,0.386,0.454,0.214,1.123l-1.644,6.1c-0.241,0.928-0.417,1.067-0.589,1.234
				c-0.228,0.195-0.691,0.445-1.713,0.445h-0.26L31.768,208.46z M33.271,206.315h-6.039l1.188,2.219l-6.452,24.072h3.936
				c1.105,0,2.563,0.121,3.941-0.668c1.435-0.808,1.676-2.126,1.898-2.952l1.978-7.399c0.278-1.012,0.511-1.969-0.186-2.628
				c-0.251-0.223-0.576-0.324-0.576-0.324s0.302-0.093,0.761-0.334c0.288-0.158,0.585-0.372,0.835-0.678
				c0.204-0.261,0.376-0.521,0.543-1.143l1.787-6.702c0.019-0.065,0.046-0.149,0.075-0.214c0.223-0.854,0.399-1.848-0.571-2.553
				c-0.933-0.669-2.195-0.696-2.929-0.696C33.397,206.315,33.332,206.315,33.271,206.315"/>
		</defs>
		<clipPath id="SVGID_20_">
			<use xlink:href="#SVGID_19_"  overflow="visible"/>
		</clipPath>
		
			<linearGradient id="SVGID_21_" gradientUnits="userSpaceOnUse" x1="-162.7568" y1="465.7109" x2="-158.0034" y2="465.7109" gradientTransform="matrix(0 5.5564 5.5564 0 -2558.0337 1110.666)">
			<stop  offset="0" style="stop-color:#FFFFFF"/>
			<stop  offset="0.1461" style="stop-color:#FFFFFF"/>
			<stop  offset="0.2818" style="stop-color:#FAFBFB"/>
			<stop  offset="0.4423" style="stop-color:#ECEFF1"/>
			<stop  offset="0.6148" style="stop-color:#D4DBE0"/>
			<stop  offset="0.7079" style="stop-color:#C4CED4"/>
			<stop  offset="1" style="stop-color:#C4CED4"/>
		</linearGradient>
		<rect x="21.969" y="206.315" clip-path="url(#SVGID_20_)" fill="url(#SVGID_21_)" width="15.392" height="26.412"/>
	</g>
	<g>
		<defs>
			<polygon id="SVGID_22_" points="117.999,177.972 111.552,202.063 118.324,202.063 118.955,199.705 115.502,199.705 
				121.917,175.781 116.765,175.763 			"/>
		</defs>
		<clipPath id="SVGID_23_">
			<use xlink:href="#SVGID_22_"  overflow="visible"/>
		</clipPath>
		
			<linearGradient id="SVGID_24_" gradientUnits="userSpaceOnUse" x1="-166.9141" y1="477.8506" x2="-162.1558" y2="477.8506" gradientTransform="matrix(0 5.5271 5.5271 0 -2524.3911 1098.2772)">
			<stop  offset="0" style="stop-color:#FFFFFF"/>
			<stop  offset="0.1461" style="stop-color:#FFFFFF"/>
			<stop  offset="0.2818" style="stop-color:#FAFBFB"/>
			<stop  offset="0.4423" style="stop-color:#ECEFF1"/>
			<stop  offset="0.6148" style="stop-color:#D4DBE0"/>
			<stop  offset="0.7079" style="stop-color:#C4CED4"/>
			<stop  offset="1" style="stop-color:#C4CED4"/>
		</linearGradient>
		<rect x="111.552" y="175.763" clip-path="url(#SVGID_23_)" fill="url(#SVGID_24_)" width="10.365" height="26.301"/>
	</g>
	<g>
		<defs>
			<path id="SVGID_25_" d="M88.5,180.339l-2.585,12.645h-1.968L88.5,180.339z M86.393,177.897l-9.038,24.156l3.361,0.01l2.33-6.676
				l2.414-0.009c-0.26,1.3-1.458,6.685-1.458,6.685h3.472l4.846-26.282h-7.028L86.393,177.897z"/>
		</defs>
		<clipPath id="SVGID_26_">
			<use xlink:href="#SVGID_25_"  overflow="visible"/>
		</clipPath>
		
			<linearGradient id="SVGID_27_" gradientUnits="userSpaceOnUse" x1="-166.9385" y1="473.3301" x2="-162.187" y2="473.3301" gradientTransform="matrix(0 5.5313 5.5313 0 -2533.2656 1099.1211)">
			<stop  offset="0" style="stop-color:#FFFFFF"/>
			<stop  offset="0.1461" style="stop-color:#FFFFFF"/>
			<stop  offset="0.2818" style="stop-color:#FAFBFB"/>
			<stop  offset="0.4423" style="stop-color:#ECEFF1"/>
			<stop  offset="0.6148" style="stop-color:#D4DBE0"/>
			<stop  offset="0.7079" style="stop-color:#C4CED4"/>
			<stop  offset="1" style="stop-color:#C4CED4"/>
		</linearGradient>
		<rect x="77.355" y="175.781" clip-path="url(#SVGID_26_)" fill="url(#SVGID_27_)" width="14.965" height="26.282"/>
	</g>
	<g>
		<defs>
			<path id="SVGID_28_" d="M70.225,177.907c0,0,1.188-0.065,1.587,0.083c0.372,0.14,0.381,0.455,0.209,1.124l-1.639,6.108
				c-0.241,0.928-0.413,1.067-0.594,1.234c-0.223,0.195-0.687,0.445-1.708,0.445h-0.26L70.225,177.907z M71.451,175.781h-5.839
				l1.272,2.19l-6.462,24.11h3.31l3.453-12.83h0.274c0.636,0,1.091,0.064,1.318,0.287c0.223,0.186,0.316,0.548,0.125,1.198
				l-3.031,11.345h3.328l2.952-11.048c0.283-1.003,0.506-1.959-0.19-2.608c-0.251-0.232-0.576-0.344-0.576-0.344
				s0.302-0.074,0.752-0.325c0.297-0.167,0.594-0.362,0.845-0.678c0.204-0.26,0.372-0.529,0.539-1.142l1.736-6.48
				c0,0,0.065-0.213,0.074-0.25c0.242-0.91,0.483-1.996-0.557-2.739c-0.933-0.678-2.126-0.687-3.203-0.687
				C71.53,175.781,71.488,175.781,71.451,175.781"/>
		</defs>
		<clipPath id="SVGID_29_">
			<use xlink:href="#SVGID_28_"  overflow="visible"/>
		</clipPath>
		
			<linearGradient id="SVGID_30_" gradientUnits="userSpaceOnUse" x1="-166.8989" y1="470.8906" x2="-162.1456" y2="470.8906" gradientTransform="matrix(0 5.5249 5.5249 0 -2533.501 1097.8328)">
			<stop  offset="0" style="stop-color:#FFFFFF"/>
			<stop  offset="0.1461" style="stop-color:#FFFFFF"/>
			<stop  offset="0.2818" style="stop-color:#FAFBFB"/>
			<stop  offset="0.4423" style="stop-color:#ECEFF1"/>
			<stop  offset="0.6148" style="stop-color:#D4DBE0"/>
			<stop  offset="0.7079" style="stop-color:#C4CED4"/>
			<stop  offset="1" style="stop-color:#C4CED4"/>
		</linearGradient>
		<rect x="60.421" y="175.781" clip-path="url(#SVGID_29_)" fill="url(#SVGID_30_)" width="15.393" height="26.301"/>
	</g>
	<g>
		<defs>
			<polygon id="SVGID_31_" points="103.479,177.972 97.037,202.063 100.369,202.063 107.401,175.781 102.254,175.763 			"/>
		</defs>
		<clipPath id="SVGID_32_">
			<use xlink:href="#SVGID_31_"  overflow="visible"/>
		</clipPath>
		
			<linearGradient id="SVGID_33_" gradientUnits="userSpaceOnUse" x1="-166.9141" y1="475.7764" x2="-162.1558" y2="475.7764" gradientTransform="matrix(0 5.5271 5.5271 0 -2527.4419 1098.2772)">
			<stop  offset="0" style="stop-color:#FFFFFF"/>
			<stop  offset="0.1461" style="stop-color:#FFFFFF"/>
			<stop  offset="0.2818" style="stop-color:#FAFBFB"/>
			<stop  offset="0.4423" style="stop-color:#ECEFF1"/>
			<stop  offset="0.6148" style="stop-color:#D4DBE0"/>
			<stop  offset="0.7079" style="stop-color:#C4CED4"/>
			<stop  offset="1" style="stop-color:#C4CED4"/>
		</linearGradient>
		<rect x="97.037" y="175.763" clip-path="url(#SVGID_32_)" fill="url(#SVGID_33_)" width="10.365" height="26.301"/>
	</g>
	<g>
		<defs>
			<polygon id="SVGID_34_" points="49.263,175.781 50.581,178.074 52.104,178.074 45.679,202.063 49.002,202.063 55.432,178.074 
				57.961,178.074 59.029,175.781 			"/>
		</defs>
		<clipPath id="SVGID_35_">
			<use xlink:href="#SVGID_34_"  overflow="visible"/>
		</clipPath>
		
			<linearGradient id="SVGID_36_" gradientUnits="userSpaceOnUse" x1="-166.8984" y1="468.6328" x2="-162.1416" y2="468.6328" gradientTransform="matrix(0 5.5252 5.5252 0 -2536.9243 1097.884)">
			<stop  offset="0" style="stop-color:#FFFFFF"/>
			<stop  offset="0.1461" style="stop-color:#FFFFFF"/>
			<stop  offset="0.2818" style="stop-color:#FAFBFB"/>
			<stop  offset="0.4423" style="stop-color:#ECEFF1"/>
			<stop  offset="0.6148" style="stop-color:#D4DBE0"/>
			<stop  offset="0.7079" style="stop-color:#C4CED4"/>
			<stop  offset="1" style="stop-color:#C4CED4"/>
		</linearGradient>
		<rect x="45.679" y="175.781" clip-path="url(#SVGID_35_)" fill="url(#SVGID_36_)" width="13.345" height="26.282"/>
	</g>
	<path fill="#E13A3E" d="M69.789,186.457c0.176-0.167,0.353-0.307,0.594-1.234l1.644-6.108c0.167-0.669,0.158-0.984-0.218-1.124
		c-0.399-0.148-1.587-0.093-1.587-0.093s-0.005,0.01-0.005,0.037c0.13,0.01,0.232,0.019,0.325,0.056
		c0.371,0.14,0.39,0.455,0.204,1.124l-1.643,6.108c-0.242,0.928-0.418,1.067-0.604,1.234c-0.111,0.103-0.659,0.325-0.659,0.325
		l-0.019,0.12h0.26C69.102,186.902,69.566,186.652,69.789,186.457 M44.398,202.063h1.281l6.424-23.999h-1.272L44.398,202.063z
		 M61.034,223.518h1.281l2.59-12.645l-2.971,8.217L61.034,223.518z M77.351,202.054l9.038-24.156l-1.096-2.126h-1.29l1.104,2.126
		l-9.042,24.156H77.351z M50.581,178.064l-1.318-2.293h-1.281l1.318,2.293H50.581z M60.421,202.072l6.462-24.101l-1.272-2.2h-1.272
		l1.263,2.2l-6.476,24.101H60.421z M68.777,189.53c-0.232-0.204-0.678-0.278-1.318-0.278H67.18c0,0-0.028,0.083-0.028,0.111
		c0.139,0.046,0.26,0.093,0.362,0.167c0.205,0.204,0.297,0.557,0.112,1.197l-3.036,11.345h1.277l3.04-11.345
		C69.093,190.087,69,189.734,68.777,189.53 M124.377,216.814c-0.292-0.771-0.557-1.847-0.52-2.729
		c0.027-0.883,0.236-1.969,0.52-3.027l0.334-1.216c0.14-0.511,0.307-1.03,0.595-1.494l-1.124-2.033h-1.285l1.128,2.033
		c-0.278,0.464-0.464,0.983-0.595,1.504l-0.329,1.216c-0.283,1.059-0.487,2.145-0.516,3.026c-0.037,0.882,0.232,1.959,0.511,2.738
		c0.278,0.762,1.922,4.781,2.033,5.357c0.103,0.566,0.223,0.956-0.186,2.432l-1.402,5.273c-0.12,0.437-0.204,0.725-0.636,0.854
		c0.163,0.056,0.367,0.083,0.618,0.083c1.039-0.009,1.132-0.334,1.29-0.938l1.42-5.282c0.391-1.477,0.279-1.856,0.177-2.423
		C126.289,221.614,124.655,217.586,124.377,216.814 M82.73,202.063h1.281l1.448-6.685h-1.281L82.73,202.063z M97.037,202.063
		l6.443-24.092l-1.226-2.209h-1.281l1.235,2.209l-6.452,24.092H97.037z M129.483,206.204c-0.214-0.019-0.441-0.019-0.669-0.019
		c-0.57,0-1.086,0.056-1.541,0.13h1.216C128.796,206.26,129.13,206.223,129.483,206.204 M116.76,175.763h-1.276l1.226,2.209
		l-6.443,24.092h1.281l6.452-24.092L116.76,175.763z M113.496,208.534c-0.408-0.158-1.605-0.084-1.605-0.084v0.028
		c0.13,0.019,0.241,0.037,0.311,0.064c0.376,0.13,0.399,0.455,0.228,1.123l-1.652,6.1c-0.241,0.929-0.418,1.077-0.594,1.235
		c-0.13,0.111-0.325,0.241-0.678,0.324c0,0.047-0.019,0.111-0.019,0.111h0.269c1.021,0,1.485-0.25,1.699-0.445
		c0.177-0.158,0.357-0.307,0.612-1.234l1.625-6.1C113.868,208.988,113.85,208.664,113.496,208.534 M84.633,192.983h-0.687h1.968
		l2.59-12.645l-2.971,8.244L84.633,192.983z M33.35,208.534c-0.399-0.158-1.587-0.084-1.587-0.084l-0.019,0.028
		c0,0,0.246,0.037,0.334,0.064c0.362,0.13,0.39,0.455,0.213,1.123l-1.643,6.1c-0.251,0.929-0.418,1.077-0.604,1.235
		c-0.13,0.111-0.659,0.324-0.659,0.324l-0.028,0.111h0.255c1.026,0,1.49-0.25,1.713-0.445c0.176-0.158,0.353-0.307,0.594-1.234
		l1.644-6.1C33.731,208.988,33.722,208.664,33.35,208.534 M128.963,214.373l1.421-5.31c0.12-0.372,0.12-0.604,0.019-0.715
		c-0.103-0.158-0.381-0.232-0.799-0.232c-0.297,0.009-0.511,0.037-0.696,0.083c0.103,0.037,0.177,0.084,0.223,0.149
		c0.093,0.12,0.074,0.361-0.019,0.733l-1.411,5.291H128.963z M109.133,219.805h-0.278l-0.027,0.102c0,0,0.25,0.103,0.343,0.177
		c0.224,0.194,0.316,0.548,0.14,1.207l-3.055,11.335h1.281l3.055-11.345c0.167-0.649,0.083-1.003-0.14-1.207
		C110.201,219.86,109.765,219.805,109.133,219.805 M92.172,206.315H90.9l1.263,2.209l-6.461,24.092h7.213v-0.01h-5.923l6.443-24.091
		L92.172,206.315z M119.698,231.725c-0.548-0.752-0.399-1.718-0.148-2.655l1.56-5.83h-1.272l-1.56,5.84
		c-0.241,0.928-0.408,1.902,0.14,2.646c0.524,0.724,1.625,1.059,3.352,1.049c0.231,0,0.455,0,0.668-0.009
		C121.063,232.69,120.162,232.347,119.698,231.725 M108.548,208.516l-1.271-2.2h-1.271l1.263,2.209l-6.453,24.101h1.281
		L108.548,208.516z M77.545,208.59l-1.295-2.274h-1.281l1.309,2.283L77.545,208.59z M79.704,208.599l-11.039,24.018l1.263-0.01
		l11.057-24.017L79.704,208.599z M21.969,232.606l6.452-24.063l-1.188-2.228h-1.281l1.188,2.246l-6.452,24.045H21.969z
		 M28.996,219.805h-0.269l-0.037,0.102c0,0,0.26,0.103,0.353,0.177c0.223,0.194,0.316,0.548,0.13,1.207l-2.238,8.309
		c-0.111,0.437-0.223,0.649-0.473,0.789c-0.148,0.084-0.631,0.158-0.631,0.158l-0.009,0.009h0.626c0.692,0,1.044-0.027,1.286-0.167
		c0.25-0.14,0.371-0.371,0.492-0.789l2.228-8.318c0.177-0.649,0.093-1.003-0.139-1.207C30.073,219.86,29.623,219.805,28.996,219.805
		 M45.062,206.315h-1.276l1.226,2.209l-6.452,24.092l1.281-0.01l6.443-24.091L45.062,206.315z M53.747,232.598l9.033-24.156
		l-1.096-2.126h-1.281l1.096,2.126l-9.033,24.165L53.747,232.598z M60.412,232.606l1.439-6.675l-1.281,0.009l-1.444,6.676
		L60.412,232.606z"/>
	<polygon fill="#FFFFFF" points="129.372,17.176 128.359,20.595 125.139,20.595 118.417,43.351 114.694,43.351 121.416,20.595 
		119.559,20.595 118.036,17.176 	"/>
	<path fill="#FFFFFF" d="M83.937,17.173H77.42l1.671,3.18l-6.796,22.996h3.732l2.952-10.034h1.56c2.878,0,4.967-1.769,6.034-5.366
		l1.667-5.661C89.377,18.461,87.799,17.173,83.937,17.173 M84.374,22.807l-1.848,6.213c-0.334,1.163-1.532,1.163-2.613,1.163
		l2.92-9.885h0.668C84.764,20.297,84.903,20.996,84.374,22.807"/>
	<path fill="#FFFFFF" d="M98.643,16.67c-0.854,0-1.754,0.135-2.702,0.529h-4.799l1.643,3.117c-0.111,0.232-0.195,0.485-0.279,0.766
		l-5.431,18.384c-1.003,3.428,1.272,4.412,3.546,4.412c2.321,0,5.171-0.984,6.183-4.412l5.431-18.384
		C103.238,17.668,100.963,16.67,98.643,16.67 M98.411,21.414l-5.236,17.72c-0.39,1.325-0.854,1.62-1.587,1.62
		c-0.789,0-1.086-0.294-0.687-1.62l5.227-17.72c0.38-1.326,0.863-1.616,1.643-1.616C98.503,19.798,98.8,20.088,98.411,21.414"/>
	<path fill="#FFFFFF" d="M112.262,17.176h-7.445l1.625,3.099l-6.806,23.077h3.723l3.676-12.51c1.74-0.072,2.126,0.555,1.652,2.138
		c-1.578,5.301-3.082,10.372-3.082,10.372h3.723c0,0,1.049-3.642,3.24-11.212c0.668-2.367-0.622-2.71-0.622-2.71
		c1.838-0.731,1.912-1.588,2.479-3.535l1.244-4.235C116.681,18.278,115.261,17.176,112.262,17.176 M112.048,21.59l-1.489,4.999
		c-0.283,0.947-0.785,1.685-2.075,1.685h-0.696l2.377-7.977h0.872C111.872,20.297,112.354,20.592,112.048,21.59"/>
	<polygon fill="#FFFFFF" points="137.662,17.176 131.358,17.176 133.021,20.313 126.215,43.351 134.673,43.351 135.685,39.93 
		130.95,39.93 	"/>
	<path fill="#FFFFFF" d="M145.219,17.194l1.644,3.11l-9.293,23.046h3.36l2.906-7.09h2.627l-1.401,7.09h3.769l4.874-26.175
		L145.219,17.194z M147.122,32.837h-1.931l4.122-10.885h0.25L147.122,32.837z"/>
	<polygon fill="#FFFFFF" points="168.484,17.176 161.985,39.536 161.855,39.536 165.634,17.176 157.492,17.176 159.135,20.295 
		152.33,43.351 155.375,43.351 161.874,20.999 162.022,20.999 158.3,43.351 163.805,43.351 171.538,17.176 	"/>
	<path fill="#FFFFFF" d="M180.395,17.178h-7.102l1.681,3.189l-6.796,22.982h5.292c2.887,0,5.087-2.235,5.839-4.74l4.586-15.515
		C185.241,18.494,184.08,17.178,180.395,17.178 M180.413,22.254l-4.725,16.024c-0.511,1.696-1.031,1.954-1.978,1.954h-0.882
		l5.876-19.937h0.873C180.534,20.295,180.915,20.562,180.413,22.254"/>
</g>
</svg>
