<?xml version="1.0" encoding="UTF-8" standalone="no"?>
<svg width="512px" height="512px" viewBox="0 0 512 512" version="1.1" xmlns="http://www.w3.org/2000/svg" xmlns:xlink="http://www.w3.org/1999/xlink" xmlns:sketch="http://www.bohemiancoding.com/sketch/ns">
    <!-- Generator: Sketch 3.2.2 (9983) - http://www.bohemiancoding.com/sketch -->
    <title>washington-wizards</title>
    <desc>Created with Sketch.</desc>
    <defs></defs>
    <g id="NBA" stroke="none" stroke-width="1" fill="none" fill-rule="evenodd" sketch:type="MSPage">
        <g id="washington-wizards" sketch:type="MSArtboardGroup">
            <g sketch:type="MSLayerGroup" transform="translate(63.000000, 79.000000)" id="layer1">
                <g transform="translate(-0.299501, -0.082891)" sketch:type="MSShapeGroup">
                    <g id="g50141" transform="translate(-0.285653, 0.044602)">
                        <g id="g40053" transform="translate(378.241978, 15.548778) scale(1, -1) translate(-378.241978, -15.548778) translate(371.850924, 9.151747)" fill="#E31837">
                            <path d="M12.7821071,-3.84137167e-13 C12.0663091,2.94263448 10.621931,5.50144707 8.71739704,7.57408527 C8.27002329,8.07305372 7.51587897,8.16261216 6.92790205,7.62526152 C4.4993017,5.01527268 2.45416456,2.94263448 -3.84741424,1.85513913 L-3.08048781,-3.46719106 L11.5422427,-1.34337661 C12.2196944,-1.2794063 12.5903755,-1.4841113 13.0377492,-2.02146195 C13.485123,-2.55881259 12.7948892,-0.102352504 12.7821071,-3.84137167e-13" id="path40055"></path>
                        </g>
                        <g id="g40073" transform="translate(374.407346, 28.294224) scale(1, -1) translate(-374.407346, -28.294224) translate(368.016292, 21.897192)" fill="#E31837">
                            <path d="M12.7821071,3.59934305e-13 C13.2678272,-0.358233763 13.4467767,-0.90837847 13.4595588,-1.26661223 C13.485123,-1.77837475 13.5362514,-1.91910944 14.2648315,-0.767643777 C14.2648315,-0.767643777 16.6550856,2.44366602 17.064113,7.68923184 C17.1663698,9.16054907 15.6836454,9.85142847 14.7505516,9.69789972 L0.984222247,7.68923184 L1.64889182,3.04498698 C6.10984719,3.42880887 11.0437405,1.30499442 12.7821071,3.59934305e-13" id="path40075"></path>
                        </g>
                        <g id="g49792" transform="translate(192.022118, 175.296677) scale(1, -1) translate(-192.022118, -175.296677) translate(0.290512, -3.820205)">
                            <g id="g39961" transform="translate(64.028131, 156.592934)" fill="#002B5C">
                                <path d="M25.5642142,25.5881259 C25.53865,25.7032725 25.5258679,25.805625 25.5003037,25.9207715 C22.7010222,39.8535061 22.5220727,54.2084447 24.7461593,68.2435318 C24.7717236,68.4098546 24.8100699,68.5889715 24.8356341,68.7808824 C18.38067,62.0512053 11.4783322,57.1510792 4.6782512,54.6178547 C3.34891206,41.3759996 5.17675338,29.6310498 5.95646191,23.9248977 C6.72338833,18.5130091 9.66327297,8.07305372 10.5580205,4.96409643 C16.0415444,9.10937282 21.95966,13.2930314 28.0822893,17.271985 L25.5642142,25.5881259 L25.5642142,25.5881259 Z" id="path39963"></path>
                            </g>
                            <g id="g39965" transform="translate(53.608157, 150.074358)" fill="#002B5C">
                                <path d="M12.7821071,25.5881259 C10.6730594,35.7466119 9.61214454,44.6384856 10.73697,59.4156284 C4.47373748,57.4325486 1.06091489,59.1853352 -0.766926426,61.2195912 C-0.933093818,61.4115022 -1.04813278,61.6034131 -1.20151807,61.8081181 C-1.22708228,61.6801775 -1.2526465,61.5522369 -1.2654286,61.4370903 C-4.61434066,43.9987825 -4.09027427,26.0743003 0.766926426,8.91746188 L4.39704484,-2.13660851 C8.27002329,1.34337661 12.6798502,5.02806674 17.4731404,8.77672719 C16.949074,10.4015732 14.2776136,18.4362447 12.7821071,25.5881259" id="path39967"></path>
                            </g>
                            <g id="g39969" transform="translate(6.065110, 62.749761)" fill="#E31837">
                                <path d="M89.4747497,127.94063 C90.1138551,125.036377 90.8807815,125.842403 90.8807815,125.842403 C117.761553,142.730566 142.699444,151.980674 150.355926,154.629045 C148.144621,160.872548 142.609969,176.570863 142.034774,178.195709 C134.339946,174.869252 126.811285,171.466032 119.589394,167.717371 C119.589394,167.717371 128.230098,187.241111 135.848234,195.710781 C130.518096,210.782187 126.121051,223.141252 123.960875,229.269608 C116.29161,221.081408 79.8626052,179.142469 88.9506833,130.8065 L89.4747497,127.94063 L89.4747497,127.94063 Z M260.115879,215.784666 C252.11428,204.282803 243.102895,189.083456 234.462191,172.24647 L294.384709,183.837891 L329.305425,229.371961 C319.514331,227.875055 293.093716,223.537868 260.115879,215.784666 L260.115879,215.784666 Z M225.182381,153.080963 C224.990649,152.709935 224.8117,152.313319 224.619968,151.929498 C209.332568,118.536993 197.291823,82.099502 197.048963,56.9463742 L278.777756,163.482536 L225.182381,153.080963 L225.182381,153.080963 Z M44.2005264,68.4610309 C30.0890801,52.4940403 16.8084708,33.4564746 5.98202612,10.8365713 C4.48651959,7.82996653 3.7835037,6.16673834 3.7835037,6.16673834 L43.3441252,39.4440961 C45.6704687,41.4783521 54.2600446,48.4639105 54.6818542,48.770968 C77.3573122,66.2092758 105.465166,80.8456838 147.479952,94.1387152 C155.379294,96.8382625 162.665095,99.0644295 169.171187,100.906775 C165.643326,111.078055 160.93951,124.473438 155.877796,138.853965 C116.95628,128.580333 73.0241779,98.2584035 44.2005264,68.4610309 L44.2005264,68.4610309 Z M222.562049,226.160651 L218.829674,223.051694 L219.686075,227.644762 L215.416851,230.011664 L220.32518,230.664161 L221.373313,235.244436 L223.559053,231.060777 L228.505729,231.546951 L224.926739,228.284465 L226.946312,223.998454 L222.562049,226.160651 L222.562049,226.160651 Z M248.087917,247.795411 C248.087917,247.795411 256.306812,242.844109 260.486561,239.453682 C260.486561,239.453682 255.87222,250.175107 250.59321,258.670365 C250.59321,258.670365 221.974072,248.102469 199.784334,215.349668 L226.99744,220.953467 C232.672696,230.766513 237.465986,237.137957 248.087917,247.795411 L248.087917,247.795411 Z" id="path39971"></path>
                            </g>
                            <g id="g39973" transform="translate(97.584997, 81.953650)" fill="#002B5C">
                                <path d="M-6.21724894e-13,25.5881259 C-1.48272442,24.2447493 -2.28799717,22.5047567 -2.40303613,20.316972 C-2.5180751,18.2315397 -2.00679081,15.9797846 -1.17595385,13.9071464 C-1.03535068,13.8047939 -0.88196539,13.7280295 -0.741362212,13.625677 C9.77831193,6.65291274 21.486722,1.50969943 33.8342375,-1.73999256 C34.256047,-1.86793319 34.6906387,-1.98307976 35.1124482,-2.08543226 C20.9243093,4.88733205 9.34372029,14.7387605 -6.21724894e-13,25.5881259" id="path39975"></path>
                            </g>
                            <g id="g39977" transform="translate(81.813155, 98.356918)" fill="#002B5C">
                                <path d="M12.7821071,12.794063 C10.1873394,16.0309609 7.80986744,19.306241 5.5857808,22.6326974 C1.63610971,20.1890313 -2.12182978,17.681395 -5.71360187,15.1225824 C-1.23986439,10.158486 3.63011842,5.6293877 8.85800022,1.63764006 C8.94747497,1.57366974 9.04973183,1.4841113 9.15198868,1.40734692 C9.03694972,2.40528384 8.97303918,3.39042668 9.03694972,4.37556953 C9.16477079,6.93438212 10.0083899,10.17128 12.7821071,12.794063" id="path39979"></path>
                            </g>
                            <g id="g39981" transform="translate(98.013197, 72.259588)" fill="#002B5C">
                                <path d="M51.1284284,38.3821889 C50.3998483,38.6764523 49.6712682,38.9835098 48.9426881,39.2777733 C30.8560065,43.6533428 11.6700638,42.5530534 3.37447627,37.7168976 C17.1408056,22.0313764 35.802682,8.64878656 60.7277908,3.86380701 C61.3541141,3.85101295 61.9676552,3.85101295 62.5811964,3.83821889 C88.439399,3.22410386 115.447991,10.2608385 139.912944,25.7160665 C146.125048,29.6438439 151.928125,33.9554431 157.334956,38.5868939 C125.469163,24.8716584 84.5280743,25.3578328 51.1284284,38.3821889" id="path39983"></path>
                            </g>
                            <g id="g39985" transform="translate(154.349056, 164.992236)" fill="#002B5C">
                                <path d="M51.1284284,25.5881259 C45.235877,47.952148 50.9111326,71.1989603 50.9111326,71.1989603 C40.58319,57.9571052 29.475539,22.2872577 29.475539,22.2872577 C27.0852849,54.3107972 38.4230139,77.5831978 47.3449247,96.2113534 C32.7349763,91.4775501 16.2844044,85.5922812 -0.984222247,78.2868712 C8.67905072,50.9587527 19.6844449,19.7028569 26.4078333,0.307057511 C29.3732821,1.16425973 32.0063962,1.89352132 34.4733428,2.53322446 L34.5883818,2.96822261 C34.5883818,2.96822261 36.6974295,16.6962522 41.0944743,26.3301816 C41.529066,16.2868421 43.91932,4.75939142 43.91932,4.75939142 C46.7569478,5.34791831 49.7479608,5.94923927 53.2119119,6.58894242 C58.0563304,21.5707901 64.2939987,37.1027826 71.1196439,52.0846303 C81.3836759,74.5382108 93.0026113,95.6100325 103.560632,111.577023 C99.2658437,110.59188 90.2544582,108.429684 77.932507,105.167197 C53.4419898,61.7697359 51.1284284,25.5881259 51.1284284,25.5881259" id="path39987"></path>
                            </g>
                            <g id="g39989" transform="translate(332.160948, 271.832897)" fill="#002B5C">
                                <path d="M25.5642142,25.5881259 L18.7002227,28.6075248 C13.7663293,24.9228346 11.8745775,18.8200666 11.8745775,18.8200666 L8.74296126,17.8861 L-2.56920353,3.30086824 C30.4597612,13.0883264 33.3229532,19.4597698 38.4102318,36.1944041 C31.865793,30.2579589 28.2356746,26.3173875 25.5642142,25.5881259" id="path39991"></path>
                            </g>
                            <g id="g39993" transform="translate(213.736004, 260.982252) scale(-1, -1) translate(-213.736004, -260.982252) translate(213.096899, 260.342549)" fill="#002B5C">
                                <path id="path39995" d="M2.23569427e-13,0 C-2.40303613,-2.21337289 -9.98282565,-5.68056395 -9.98282565,-5.68056395 L-0.140603178,-3.00660479 C-0.140603178,-3.00660479 0.0511284284,-1.06190723 2.23569427e-13,0"></path>
                            </g>
                            <g id="g39997" transform="translate(224.898618, 285.797616)" fill="#002B5C">
                                <path d="M7.10098647e-13,0 L3.71959317,3.12175136 L8.11663801,0.946760659 L6.10984719,5.23277175 L9.67605507,8.4952578 L4.72937963,8.00908341 L2.54363931,12.2055361 L1.48272442,7.61246746 L-3.4256047,6.94717618 L0.856401176,4.60586266 L7.10098647e-13,0 L7.10098647e-13,0 Z" id="path39999"></path>
                            </g>
                            <g id="g40001" transform="translate(201.319465, 258.542424)" fill="#002B5C">
                                <path d="M25.5642142,12.794063 L31.0093918,14.6619961 L30.2552475,22.5943152 L7.91212429,16.7986047 L7.13241576,13.0371501 C6.54443884,14.8027308 6.49331041,15.3528755 5.95646191,15.4168459 C4.01358163,15.6087568 4.76772595,13.625677 4.61434066,13.2290611 C4.44817327,12.806857 5.38126709,9.00702032 6.62113148,8.54643405 L6.72338833,5.32233019 L12.3219512,7.07511681 L14.6610768,9.00702032 L24.5160814,11.0284823 L25.5642142,12.794063 L25.5642142,12.794063 Z M22.9694465,15.7622856 L15.8881591,16.0437549 L23.506295,18.692126 C24.2604393,17.4894841 23.6724623,16.1461074 22.9694465,15.7622856 L22.9694465,15.7622856 Z" id="path40003"></path>
                            </g>
                            <g id="g40005" transform="translate(65.046865, 221.304025)" fill="#002B5C">
                                <path d="M25.5642142,12.794063 C25.6281247,13.0243561 25.6664711,13.2290611 25.7175995,13.4721483 C33.5913775,45.9434801 54.2728267,75.6385002 84.5792027,92.9104852 C78.0603281,91.1449045 71.0557334,89.3921179 60.4210203,84.133758 C50.9111326,79.4383369 42.2192998,73.7833611 34.3583039,67.4119177 C34.0259691,67.1560364 33.6808522,66.8873611 33.3612995,66.6314799 C16.5272645,44.8303966 7.42640423,18.1163931 4.26922377,-4.79777361 C11.5422427,-1.57366974 18.9175185,4.5930686 25.5642142,12.794063" id="path40007"></path>
                            </g>
                            <g id="g40009" transform="translate(55.868034, 214.520612)" fill="#002B5C">
                                <path d="M-2.89990254e-13,4.58300065e-13 C2.27521506,-1.54808162 4.72937963,-1.624846 9.01138551,0.12794063 C11.2866006,18.9991835 17.4475762,40.4804152 28.4401883,60.0297434 C28.1461998,59.7098918 27.8649935,59.3900402 27.5837871,59.0446005 C13.0249671,42.7961406 2.90153831,23.6050461 -2.09626556,3.49277919 C-2.13461189,3.32645637 -2.19852242,3.16013355 -2.23686874,2.99381073 C-1.84062342,1.86793319 -1.16317175,0.78043784 -2.89990254e-13,4.58300065e-13" id="path40011"></path>
                            </g>
                            <g id="g40013" transform="translate(91.181161, 110.490807)" fill="#002B5C">
                                <path d="M0,12.794063 C2.19852242,9.54437096 4.55043013,6.30747304 7.13241576,3.13454542 C14.0730999,7.75320215 27.2514523,9.40363627 41.171167,8.18820029 C41.0049996,8.29055279 40.813268,8.3929053 40.6215364,8.48246374 C33.18235,12.8324451 26.3950512,17.9372763 20.4897177,23.7585749 C13.1016598,20.2146195 6.3015788,16.5683115 0,12.794063" id="path40015"></path>
                            </g>
                            <g id="g40017" transform="translate(133.307151, 287.331625)" fill="#002B5C">
                                <path d="M25.5642142,25.5881259 C20.3363324,23.7201927 10.5196741,19.1910944 1.22708228,9.17334314 C1.96844449,7.07511681 3.4256047,2.98101667 5.3940492,-2.55881259 L7.52866108,-0.0639703148 C7.52866108,-0.0639703148 16.6678677,2.68675322 20.7964883,4.13248233 L19.2881996,15.9286084 L24.7205951,21.7627011 L25.5642142,25.5881259 L25.5642142,25.5881259 Z" id="path40019"></path>
                            </g>
                            <g id="g40021" transform="translate(196.356173, 12.594476)" fill="#002B5C">
                                <path d="M38.3463213,-1.58095759e-13 L34.6778566,9.09657876 C36.403441,9.17334314 38.0523328,9.82584035 38.8320414,10.5551019 C40.1230342,11.7321557 41.1583849,14.2397921 41.9892218,18.090805 C41.9892218,18.090805 43.3057789,24.8460703 43.4591641,25.9079775 C43.7531526,27.9934097 43.1523936,29.3751685 42.1937355,30.0532539 C41.2606417,30.7441333 39.4839288,31.0767789 36.9147253,31.0767789 L9.27980975,31.0767789 C9.27980975,31.0767789 11.6828459,29.4519329 11.2738185,27.1490016 L4.93389334,-2.14940258 L11.6317175,-2.14940258 C12.9482745,-2.14940258 13.9452788,-2.04705007 14.5843842,-1.11308348 L16.7189961,8.80231531 L25.0273657,8.80231531 L28.7469589,-2.14940258 L40.7110111,-2.14940258 C40.7110111,-2.14940258 38.9854267,-1.2794063 38.3463213,-1.58095759e-13 M33.7575449,21.3149089 C33.7319806,20.6240295 33.1056574,18.1675694 32.6582836,17.5918366 C32.223692,17.0161037 31.6612793,16.7218403 30.9966097,16.7218403 L21.844621,16.7218403 C20.5791924,16.7218403 19.211507,15.6087568 17.8949499,14.226998 L19.7867018,23.0804896 L32.4154236,23.0804896 C33.3868637,23.0804896 33.8342375,22.5047567 33.7575449,21.3149089" id="path40023"></path>
                            </g>
                            <g id="g40025" transform="translate(166.590480, 5.308257)" fill="#002B5C">
                                <path d="M25.5642142,38.3821889 L15.1979253,38.3821889 C13.8558041,38.3693948 12.9354924,38.0367492 12.168566,37.0132241 L-2.63311406,8.34172905 C-3.52786156,6.53776617 -5.66247345,5.13041924 -5.66247345,5.13041924 L4.42260906,5.13041924 C5.49630605,5.15600737 6.40383566,5.88526896 6.94068416,6.84482368 L8.98582129,10.9261298 L21.6401073,10.9261298 L22.2919948,7.8043784 C22.4070337,5.70615208 20.4385893,5.13041924 20.4385893,5.13041924 L33.4763385,5.13041924 L25.5642142,38.3821889 L25.5642142,38.3821889 Z M12.7054145,18.896831 L17.779911,29.4903151 L19.9784334,18.896831 L12.7054145,18.896831 L12.7054145,18.896831 Z" id="path40027"></path>
                            </g>
                            <g id="g40029" transform="translate(240.161732, 12.914327)" fill="#002B5C">
                                <path d="M38.3463213,25.5881259 C38.6403098,27.6735582 38.0523328,29.055317 37.0936748,29.7334023 C36.160581,30.4242817 34.3838681,30.7825155 31.8018825,30.7825155 L3.97523531,30.7825155 C3.97523531,30.7825155 6.22488616,29.055317 5.96924402,26.8035619 L0.447373748,0.895584407 C-0.166167392,-0.831614092 -1.75114867,-2.25175508 -2.21130453,-2.46925415 L24.9251088,-2.54601853 C28.1206356,-2.54601853 30.3702865,-1.95749163 31.622933,-0.806025966 C32.9267079,0.383821889 33.9876228,2.87866416 34.8056776,6.72967711 L37.7583444,22.2232874 C38.1162434,23.8737215 38.192936,24.5390127 38.3463213,25.5881259 M28.6319199,21.0078514 C28.5935736,20.3041779 25.896549,6.83202962 25.4363931,6.24350272 C25.0145836,5.65497583 24.4521709,5.34791831 23.8002834,5.34791831 L10.8903552,5.34791831 L13.5490335,17.8861 C13.7152009,18.6665378 14.1242283,20.6240295 14.55882,22.760638 L27.2642344,22.760638 C28.2484567,22.760638 28.6958304,22.1849052 28.6319199,21.0078514" id="path40031"></path>
                            </g>
                            <g id="g40033" transform="translate(277.025329, 5.337683)" fill="#002B5C">
                                <path d="M38.3463213,38.3821889 L16.8595993,38.3821889 C12.4369902,38.3821889 9.38206661,37.7808679 7.69482847,36.578226 C6.00759034,35.3755841 4.74216173,32.8167715 3.92410688,28.9529645 L3.2466552,25.6520962 C3.13161624,25.1275396 3.08048781,24.6541593 3.08048781,24.193573 C3.08048781,22.3896102 3.73237527,20.9054989 5.01058598,19.7284451 C6.54443884,18.3594803 8.87078233,17.681395 12.0023986,17.681395 L26.0115879,17.681395 C27.8649935,17.681395 28.7853052,17.0161037 28.7853052,15.7366974 C28.7853052,15.3912577 28.6830483,15.0586121 28.5040988,14.7515546 C28.5040988,14.7515546 28.0055967,13.1267086 24.2093108,13.1267086 L4.11583849,13.1267086 C2.04513714,13.2546492 1.12482542,16.4403709 1.12482542,16.4403709 L-0.600759034,7.7020259 C-0.869183283,5.69335801 0.511284284,5.10483112 2.27521506,5.10483112 L24.4777351,5.10483112 C28.887562,5.10483112 31.9297035,5.70615208 33.6297238,6.92158806 C35.329744,8.12422998 36.4290052,10.5039257 37.2470601,14.3421446 C37.2470601,14.3421446 37.8222549,17.2208087 37.9117297,18.0524228 C38.4997066,22.6582855 35.5726041,25.6776843 30.6259286,25.6776843 L15.8625949,25.6776843 C13.8558041,25.6776843 12.8460176,26.3173875 12.8460176,27.5839997 C12.8460176,27.6095879 12.9354924,28.0957622 12.9354924,28.1341444 C13.2166987,28.9401704 13.4979051,30.3858995 16.4633539,30.3858995 L35.7004251,30.3858995 C37.8606012,30.3858995 39.2538509,27.3792947 39.2538509,27.3792947 C39.2538509,27.3792947 40.3531121,32.8039774 40.9538711,35.6826416 C41.3117701,37.3714579 40.1102521,38.3821889 38.3463213,38.3821889" id="path40035"></path>
                            </g>
                            <g id="g40037" transform="translate(61.067795, 5.248125)" fill="#002B5C">
                                <path d="M51.1284284,38.3821889 C50.0419493,38.3821889 48.9171239,38.3566007 48.456968,37.5505748 L36.9530716,14.2142039 L34.7673313,35.2092612 C34.6650745,37.1795469 37.2854064,38.3566007 37.2854064,38.3566007 C37.2854064,38.3566007 28.5935736,38.3821889 28.5168809,38.3821889 C27.0341565,38.3821889 25.8198563,38.011161 25.0273657,36.8469013 L13.1016598,14.226998 L12.2580407,35.36279 C12.5648113,37.0132241 14.9678474,38.3310126 14.9678474,38.3310126 L5.44517762,38.3949829 C5.4068313,38.3821889 5.38126709,38.3821889 5.31735655,38.3821889 C1.87896974,38.3182185 1.91731607,36.1176397 1.91731607,36.1176397 L4.35869852,5.19438956 L14.6994232,5.19438956 C16.1054549,5.19438956 16.7573424,5.34791831 17.5114867,6.4226196 L27.213106,24.5134246 L28.1973283,5.19438956 L39.4455825,5.19438956 C40.8004859,5.19438956 41.7080155,5.36071238 42.487724,6.37144335 L57.6217388,35.1069087 C58.6954358,37.0388123 60.6894445,38.4333651 60.6894445,38.4333651 C60.6894445,38.4333651 51.1923389,38.3821889 51.1284284,38.3821889" id="path40039"></path>
                            </g>
                            <g id="g40041" transform="translate(112.722846, 13.516928)" fill="#002B5C">
                                <path d="M12.7821071,3.64153152e-13 C12.7821071,3.64153152e-13 18.3678879,26.4965044 18.7002227,27.6991463 C19.0069933,28.9145823 20.6686672,30.0660479 20.6686672,30.0660479 C19.7483555,30.1044301 15.4535675,30.0276658 11.6444996,30.1044301 C11.6444996,30.1044301 9.73996561,30.4626639 8.93469286,26.1254766 L2.72258881,-3.08336917 L12.9994029,-3.08336917 C12.9994029,-3.08336917 12.526465,-1.81675694 12.7821071,3.68149955e-13" id="path40043"></path>
                            </g>
                            <g id="g40045" transform="translate(127.047754, 11.542804)" fill="#002B5C">
                                <path d="M38.3463213,25.5881259 L39.739571,32.100304 C39.739571,32.100304 10.864791,32.0875099 10.5196741,32.0363336 C8.44897279,31.8060405 7.65648215,30.3475173 7.14519787,28.658701 L6.18653984,24.1040146 L5.7519482,22.2232874 C5.7519482,22.2232874 7.60535372,23.9632799 9.65049086,24.1040146 L24.8739804,24.1040146 L1.93009817,4.37556953 L0.79249064,-1.11308348 L29.7567453,-1.11308348 C31.3800729,-1.11308348 32.5048984,-0.921172533 33.0673111,0.767643777 L34.8184597,9.13496095 C34.8184597,9.13496095 32.93949,6.99835244 30.8560065,6.88320587 L16.7829066,6.88320587 L38.3463213,25.5881259 L38.3463213,25.5881259 Z" id="path40047"></path>
                            </g>
                            <g id="g40049" transform="translate(354.527079, 323.830527)" fill="#E31837">
                                <path d="M-2.40696352e-13,12.794063 C-1.20151807,13.6512652 -0.332334785,15.3016993 -1.30377492,13.7152355 L-1.41881389,13.5105305 C-2.70980671,11.4250982 -3.43838681,9.13496095 -3.74515738,6.64011867 C-3.89854267,3.9021892 -3.04214149,2.7635176 -1.90453396,2.8658701 L12.3602976,4.9385083 L11.6061532,10.2480444 C4.58877645,9.39084221 -2.40696352e-13,12.794063 -2.40696352e-13,12.794063" id="path40051"></path>
                            </g>
                            <g id="g40057" transform="translate(376.453505, 340.276016) scale(-1, -1) translate(-376.453505, -340.276016) translate(375.814400, 339.636313)" fill="#E31837">
                                <path id="path40059" d="M3.48165941e-13,-7.08766379e-13 C-1.04813278,-0.99793691 -2.00679081,-0.243087196 -1.29099282,-0.857202218 C-1.21430017,-0.921172533 -0.894747497,-1.16425973 -0.894747497,-1.17705379 C2.28799717,-3.59513169 6.21210405,-4.82336173 10.3662889,-4.58027454 C10.3662889,-4.58027454 10.6602773,-4.55468641 10.9926121,-4.50351016 L9.61214454,5.02806674 C4.81885438,4.13248233 2.1601761,2.22616695 3.48165941e-13,-7.08766379e-13"></path>
                            </g>
                            <g id="g40061" transform="translate(350.898239, 332.270771)" fill="#E31837">
                                <path d="M12.7821071,12.794063 C9.70161929,12.0392132 7.0173768,10.4911316 4.93389334,8.43128749 C3.97523531,7.49732089 3.94967109,5.8724749 5.25344602,5.13041924 C8.1038559,3.73586638 11.9896165,3.03219292 14.9934116,3.36483856 L13.6129441,12.9603858 C13.3317377,12.9092095 13.0505313,12.8580333 12.7821071,12.794063" id="path40063"></path>
                            </g>
                            <g id="g40065" transform="translate(357.805689, 315.447857) scale(-1, -1) translate(-357.805689, -315.447857) translate(357.166584, 314.808154)" fill="#E31837">
                                <path id="path40067" d="M-1.87405647e-13,6.57252031e-13 C1.073697,1.10028941 1.66167392,0.447792203 1.81505921,0.601320959 C1.93009817,0.754849714 1.04813278,1.31778848 1.04813278,1.31778848 C-1.96844449,3.63351388 -5.70081977,4.86174392 -9.63770875,4.77218548 C-9.63770875,4.77218548 -10.3662889,4.75939142 -10.9670479,4.6954211 L-9.56101611,-5.00247861 C-5.35570287,-4.28601109 -2.79928145,-2.85307604 -1.87405647e-13,6.57252031e-13"></path>
                            </g>
                            <g id="g40069" transform="translate(371.768863, 311.791314)" fill="#E31837">
                                <path d="M-4.06785716e-13,-2.55462318e-13 C0.70301589,0.166322818 1.40603178,0.383821889 2.08348346,0.639703148 C4.01358163,1.3817588 5.89255137,2.55881259 7.26023683,3.78704263 C8.61514019,5.00247861 8.06550958,6.46100179 7.23467262,6.93438212 C5.38126709,8.00908341 2.21130453,9.88981066 -2.17295821,9.51878284 L-0.766926426,-0.179116881 C-0.511284284,-0.12794063 -0.255642142,-0.0639703148 -4.06785716e-13,-2.55462318e-13" id="path40071"></path>
                            </g>
                            <g id="g40077" transform="translate(352.295323, 312.233989)" fill="#E31837">
                                <path d="M5.99520433e-14,12.794063 C-0.728580105,12.7172986 -1.02256857,13.1522967 -1.2526465,13.4337661 C-1.55941707,13.8303821 -1.46994232,13.216267 -1.18873596,12.1543598 C-0.48572007,9.33966596 0.818054854,6.87041181 2.60754985,4.86174392 C3.13161624,4.33718734 4.3203522,4.33718734 4.84441859,4.8361558 C7.24745473,7.51011495 10.2129036,9.39084221 15.5046959,10.3120147 L14.8272442,14.9562596 L5.99520433e-14,12.794063 L5.99520433e-14,12.794063 Z" id="path40079"></path>
                            </g>
                            <g id="g40081" transform="translate(147.087541, 295.280576)" fill="#E31837">
                                <path d="M63.9105355,38.3821889 L37.4899201,31.2558958 L46.7952941,48.0417064 L30.6642749,35.4139663 L35.201923,60.7973872 L26.0371522,39.0602742 L17.0385488,51.8671312 L21.6401073,32.4073615 L0.728580105,35.2988197 L18.7513511,25.5497437 L11.7723206,17.6430128 L10.9287016,13.8047939 L20.8220525,16.0309609 L20.285204,-2.63557697 L30.2808117,16.7858106 L41.8741829,4.01733577 L35.1380124,21.7115248 L63.9105355,38.3821889 L63.9105355,38.3821889 Z" id="path40083"></path>
                            </g>
                        </g>
                    </g>
                </g>
            </g>
        </g>
    </g>
</svg>