<?xml version="1.0" encoding="UTF-8" standalone="no"?>
<svg width="512px" height="512px" viewBox="0 0 512 512" version="1.1" xmlns="http://www.w3.org/2000/svg" xmlns:xlink="http://www.w3.org/1999/xlink" xmlns:sketch="http://www.bohemiancoding.com/sketch/ns">
    <!-- Generator: Sketch 3.3.1 (12002) - http://www.bohemiancoding.com/sketch -->
    <title>chelsea</title>
    <desc>Created with Sketch.</desc>
    <defs></defs>
    <g id="EPL" stroke="none" stroke-width="1" fill="none" fill-rule="evenodd" sketch:type="MSPage">
        <g id="chelsea" sketch:type="MSArtboardGroup">
            <g sketch:type="MSLayerGroup" transform="translate(78.000000, 78.000000)">
                <path d="M356.110424,178.054838 C356.110424,276.39909 276.388601,356.110424 178.054838,356.110424 C79.715839,356.110424 0,276.39909 0,178.054838 C0,79.720327 79.715839,0 178.054838,0 C276.388601,0 356.110424,79.720327 356.110424,178.054838" id="path3381" fill="#DBA111" sketch:type="MSShapeGroup"></path>
                <path d="M350.169638,178.054838 C350.169638,273.114061 273.114061,350.170386 178.05409,350.170386 C82.993371,350.170386 5.936298,273.114809 5.936298,178.054838 C5.936298,82.994119 82.993371,5.937046 178.05409,5.937046 C273.112548,5.937046 350.169638,82.994119 350.169638,178.054838" id="path3383" fill="#034694" sketch:type="MSShapeGroup"></path>
                <path d="M300.709838,178.054838 C300.709838,245.7962 245.794704,300.702341 178.05409,300.702341 C110.309719,300.702341 55.393089,245.7962 55.393089,178.054838 C55.393089,110.307475 110.309719,55.393837 178.05409,55.393837 C245.7962,55.393089 300.709838,110.307475 300.709838,178.054838" id="path3385" fill="#DBA111" sketch:type="MSShapeGroup"></path>
                <path d="M296.999282,178.054838 C296.999282,243.746527 243.737534,296.998534 178.054838,296.998534 C112.363149,296.998534 59.110394,243.745779 59.110394,178.054838 C59.110394,112.363897 112.363149,59.109646 178.054838,59.109646 C243.73903,59.109646 296.999282,112.363149 296.999282,178.054838" id="path3387" fill="#FFFFFF" sketch:type="MSShapeGroup"></path>
                <path d="M76.137135,280.670748 C77.453394,281.927082 80.691231,285.010593 80.691231,285.010593 L83.794972,281.742785 L74.536942,272.916283 L73.345786,274.165868 L60.915097,287.197371 L65.634756,291.689298 C65.634756,291.689298 69.621001,287.509015 71.079601,285.985985 C72.298467,287.14343 75.223164,289.931787 75.223164,289.931787 L78.329149,286.670711 C78.329149,286.670711 75.408957,283.884615 74.191587,282.718942 C74.963948,281.904608 75.356512,281.492579 76.137135,280.670748" id="path3389" fill="#DBA111" sketch:type="MSShapeGroup"></path>
                <path d="M98.464119,295.553415 C98.045341,293.054245 96.642178,290.846489 94.519082,289.337705 C92.405727,287.836401 89.869089,287.243815 87.369919,287.6536 C84.678224,288.111342 82.259957,289.680068 80.556387,292.063876 C78.858801,294.463409 78.173327,297.259994 78.630304,299.962178 C79.050578,302.453868 80.444,304.647378 82.560364,306.156179 C84.678224,307.661971 87.233579,308.264298 89.729009,307.844772 C92.419208,307.391535 94.838971,305.8198 96.536557,303.428512 C97.89552,301.5324 98.604216,299.360616 98.604216,297.189563 C98.604964,296.648674 98.559336,296.092808 98.464136,295.553415 L98.464119,295.553415 Z M85.169677,302.475594 C83.006121,300.945067 84.792107,297.745446 86.052181,295.986439 C87.309263,294.213186 89.746247,291.47129 91.909803,293.000304 C94.167743,294.615474 92.058043,298.10503 91.045285,299.521674 C90.029433,300.95406 87.432122,304.090016 85.169677,302.475594 L85.169677,302.475594 Z" id="path3391" fill="#DBA111" sketch:type="MSShapeGroup"></path>
                <path d="M113.01566,300.494839 C108.033793,297.973926 102.27132,300.040089 99.624556,305.28566 C98.298556,307.907689 98.039357,310.785942 98.893386,313.375756 C99.682237,315.782786 101.392556,317.74632 103.711186,318.912741 C106.029816,320.093408 108.639112,320.298683 111.05063,319.506823 C113.638948,318.662535 115.798016,316.74995 117.115771,314.1294 C119.773772,308.874105 118.007268,303.015735 113.01566,300.494839 L113.01566,300.494839 Z M107.505637,315.072594 C106.921313,315.264371 106.366926,315.204514 105.737637,314.891289 C104.749512,314.387868 104.401913,313.488126 104.401913,312.482763 C104.401913,311.091585 105.070897,309.452445 105.638,308.334712 C106.620889,306.391408 108.616638,303.322126 110.984704,304.517039 C111.609505,304.836163 111.983335,305.250453 112.172868,305.828045 C112.569172,307.023689 112.171168,308.987223 111.103075,311.089341 C110.040779,313.192224 108.696793,314.678534 107.505637,315.072594 L107.505637,315.072594 Z" id="path3393" fill="#DBA111" sketch:type="MSShapeGroup"></path>
                <path d="M123.304519,307.708415 L122.387556,310.336445 C122.387556,310.336445 124.7324,311.159024 125.444105,311.394253 C124.546624,313.960845 120.409793,325.768994 120.409793,325.768994 L126.552097,327.922809 C126.552097,327.922809 130.69566,316.125149 131.590897,313.558557 C132.30709,313.808763 134.652682,314.623845 134.652682,314.623845 L136.141253,310.382141 L123.875379,306.079016 L123.304519,307.708415" id="path3395" fill="#DBA111" sketch:type="MSShapeGroup"></path>
                <path d="M148.807171,313.407223 L140.506564,311.6542 L140.151468,313.342793 L136.44166,330.959876 L144.889113,332.751098 C147.589053,333.30846 149.366794,332.645528 150.380385,331.989957 C151.667438,331.150157 152.569424,329.773208 152.916275,328.127319 C153.011475,327.679335 153.057205,327.244815 153.057205,326.819305 C153.057205,325.629645 152.680383,324.55686 151.998649,323.635409 C152.950071,322.880252 153.628796,321.813468 153.911234,320.482215 C153.983144,320.138356 154.025814,319.750297 154.025814,319.345 C154.025814,317.090052 152.73803,314.226793 148.807222,313.407223 L148.807171,313.407223 Z M146.522303,326.856756 C146.433903,327.259061 146.272097,327.791705 145.967185,327.990979 C145.685512,328.173763 145.143875,328.196985 144.442659,328.044869 C144.442659,328.044869 144.123518,327.974489 143.745948,327.900199 C144.015636,326.628888 144.196193,325.783087 144.459149,324.51028 C144.820229,324.59494 145.281711,324.685584 145.281711,324.685584 C146.370986,324.915577 146.580001,325.721649 146.580001,326.306738 C146.580749,326.541984 146.550761,326.741258 146.522371,326.85662 L146.522303,326.856756 Z M145.9552,317.427927 C146.684126,317.593507 147.219762,317.860934 147.425785,318.172578 C147.520135,318.315718 147.566545,318.516437 147.566545,318.753179 C147.566545,318.896319 147.546995,319.061831 147.509595,319.261105 C147.397905,319.777276 147.246639,320.493452 145.810513,320.199046 C145.810513,320.199046 145.631469,320.151786 145.384986,320.099426 C145.614231,319.033373 145.722861,318.500729 145.955098,317.427944 L145.9552,317.427927 Z" id="path3397" fill="#DBA111" sketch:type="MSShapeGroup"></path>
                <path d="M164.13109,316.276483 L155.115038,334.73935 L160.263964,335.134141 C160.263964,335.134141 161.657386,332.192971 162.214,331.021297 C163.303275,331.111907 164.394794,331.188407 165.462326,331.274512 C165.861639,332.507624 166.86775,335.637579 166.86775,335.637579 L173.717985,336.170223 L166.063905,312.444564 L164.13109,316.276483" id="path3399" fill="#DBA111" sketch:type="MSShapeGroup"></path>
                <path d="M184.460846,331.0138 C184.346946,328.315356 183.828548,316.032261 183.828548,316.032261 L177.32292,316.305689 L178.145482,336.018889 L191.182986,335.477252 L190.987452,330.747104 C190.987452,330.747852 186.330727,330.946378 184.460846,331.0138" id="path3401" fill="#DBA111" sketch:type="MSShapeGroup"></path>
                <path d="M202.305661,329.125185 C201.886135,326.45746 199.982526,314.313697 199.982526,314.313697 L198.27746,314.587142 L193.54432,315.324313 L196.599356,334.822497 L209.496015,332.797542 L208.757348,328.119839 C208.757348,328.119839 204.156808,328.845756 202.305661,329.125185" id="path3403" fill="#DBA111" sketch:type="MSShapeGroup"></path>
                <path d="M239.640415,316.010535 C239.588055,317.700624 238.5916,319.156215 237.03712,319.771275 C236.175594,320.113638 235.353015,320.113638 234.528957,319.764475 C233.264378,319.222838 232.092704,317.853386 231.389261,316.093631 C230.561446,314.017727 230.392874,312.254232 230.936024,311.015136 C231.309089,310.147609 232.041024,309.499586 233.158757,309.051602 C234.370126,308.56989 235.520074,309.013352 237.096297,309.941586 L238.542164,310.794884 L240.943193,307.007913 L239.518304,306.071468 C236.899267,304.35066 233.656942,303.999321 230.852112,305.120046 C228.2488,306.157624 226.230594,308.099432 225.163793,310.582112 C224.081267,313.100016 224.081267,315.981261 225.179093,318.714164 C227.25124,323.893809 233.106618,326.445424 238.226321,324.395734 C241.926388,322.917669 244.020278,320.106838 244.286974,316.267439 L244.408354,314.554128 L239.695427,314.204268 L239.640007,316.011232" id="path3405" fill="#DBA111" sketch:type="MSShapeGroup"></path>
                <path d="M254.827246,310.625615 C253.494497,308.256801 247.507267,297.516949 247.507267,297.516949 L246.007476,298.36275 L241.8182,300.702341 L251.44632,317.928356 L262.82969,311.569557 L260.525289,307.434239 C260.526037,307.434239 256.451409,309.70566 254.827246,310.625615" id="path3407" fill="#DBA111" sketch:type="MSShapeGroup"></path>
                <path d="M267.487911,284.058423 L266.092245,285.079511 L263.647016,286.876734 L271.637475,297.76792 C272.00306,298.260852 272.00306,298.590482 271.970845,298.782276 C271.894515,299.344126 271.309341,299.953185 270.791674,300.326267 C270.547452,300.500075 269.982593,300.737548 269.404253,300.646904 C268.991476,300.587064 268.665586,300.362987 268.375668,299.971171 L260.478845,289.202113 L255.216053,293.054993 L263.07466,303.770127 C264.241098,305.356074 265.689209,306.294015 267.379298,306.551735 C269.275393,306.847637 271.430704,306.201875 273.43395,304.721549 C277.554274,301.7092 277.486852,297.708726 275.688898,295.257513 L267.487911,284.058423" id="path3409" fill="#DBA111" sketch:type="MSShapeGroup"></path>
                <path d="M291.463793,280.099157 C290.252424,278.842075 288.7586,278.277216 287.189874,278.362624 C287.097734,277.143741 286.625015,275.978816 285.682586,275.003424 C284.036697,273.304342 280.35686,271.980586 276.969185,275.278348 L270.874838,281.171942 L284.606809,295.348905 L290.806046,289.339201 C292.787549,287.419867 293.223548,285.561223 293.242282,284.359578 C293.275262,282.817831 292.641468,281.30903 291.463793,280.099157 L291.463793,280.099157 Z M281.089526,279.621185 C281.294053,279.839193 281.544276,280.093904 281.544276,280.448252 C281.544276,280.738935 281.386176,281.097771 280.910482,281.552504 C280.910482,281.552504 280.781622,281.682894 280.607831,281.857416 C279.838445,281.059572 279.473608,280.684994 278.69375,279.883393 C280.068438,278.622571 280.639298,279.161216 281.089526,279.621185 L281.089526,279.621185 Z M284.340861,284.501919 C285.454089,283.427638 286.525378,284.371529 286.831038,284.6922 C287.126957,284.988867 287.463319,285.407645 287.463319,285.770238 C287.463319,285.770238 287.463319,285.770238 287.463319,285.782138 C287.456519,286.117004 287.173401,286.58073 286.663231,287.075923 C286.663231,287.075923 286.426489,287.305916 286.145564,287.570368 C285.247335,286.64142 284.639772,286.018115 283.74003,285.09442 C284.005978,284.829968 284.340861,284.501834 284.340861,284.501834 L284.340861,284.501919 Z" id="path3411" fill="#DBA111" sketch:type="MSShapeGroup"></path>
                <path d="M76.094431,278.842075 C76.631563,279.358994 80.64103,283.183416 80.64103,283.183416 L81.96329,281.789246 L74.575889,274.744208 L74.278474,275.055852 L62.747527,287.151675 L65.588312,289.862852 C65.588312,289.862852 70.501261,284.713926 71.030148,284.150563 C71.567297,284.661498 75.181956,288.103845 75.181956,288.103845 L76.50646,286.714163 C76.50646,286.714163 72.891801,283.27406 72.354652,282.763142 C72.83412,282.2612 75.619468,279.338764 76.094431,278.842075" id="path3413" fill="#FFFFFF" sketch:type="MSShapeGroup"></path>
                <path d="M93.76469,290.39026 C91.933756,289.086734 89.74249,288.566075 87.591667,288.925676 C85.23035,289.330956 83.11249,290.709401 81.61343,292.819016 C80.109882,294.935363 79.506824,297.388837 79.907616,299.741178 C80.267948,301.897985 81.480082,303.801594 83.312512,305.100615 C85.154683,306.411638 87.354942,306.924052 89.515489,306.562224 C91.86409,306.167416 93.984942,304.782987 95.481741,302.687601 C96.67815,300.997512 97.310431,299.083431 97.310431,297.187319 C97.310431,296.7146 97.269291,296.235897 97.192111,295.763926 C96.825778,293.610111 95.6114,291.701283 93.764741,290.39026 L93.76469,290.39026 Z M92.097874,300.276831 C90.858778,302.009624 87.633674,305.817556 84.423564,303.53415 C81.224674,301.26346 83.764304,296.970076 84.998164,295.226046 C86.235764,293.482016 89.462364,289.680816 92.656749,291.951489 C95.867607,294.242409 93.335474,298.538037 92.097874,300.276831 L92.097874,300.276831 Z" id="path3415" fill="#FFFFFF" sketch:type="MSShapeGroup"></path>
                <path d="M112.432067,301.655276 C108.10946,299.469246 103.101379,301.288178 100.779009,305.881238 C99.609579,308.190127 99.378838,310.702778 100.121245,312.980948 C100.802979,315.05012 102.284801,316.742453 104.294779,317.7538 C106.309245,318.783898 108.56795,318.966682 110.648342,318.281956 C112.911535,317.534313 114.800898,315.857705 115.970311,313.550312 C118.285949,308.958 116.766676,303.839793 112.432067,301.655276 L112.432067,301.655276 Z M105.154809,316.039741 C101.654764,314.279238 103.517148,309.648727 104.484312,307.746631 C105.448467,305.835542 108.068252,301.590846 111.563061,303.367074 C112.493505,303.832313 113.114549,304.524519 113.410468,305.430245 C114.09669,307.527127 112.983445,310.236808 112.256763,311.676674 C111.533838,313.106068 110.007068,315.612735 107.907942,316.300453 C107.009713,316.6046 106.080748,316.51246 105.154809,316.039741 L105.154809,316.039741 Z" id="path3417" fill="#FFFFFF" sketch:type="MSShapeGroup"></path>
                <path d="M124.530882,308.132446 L124.034941,309.535609 C124.034941,309.535609 126.480935,310.395639 127.093734,310.611386 C126.82255,311.379276 122.054934,324.974142 122.054934,324.974142 L125.760237,326.276172 C125.760237,326.276172 130.531593,312.682037 130.798289,311.91192 C131.411105,312.125423 133.857082,312.9802 133.857082,312.9802 L134.496112,311.174749 L124.667239,307.724905 L124.530899,308.132446" id="path3419" fill="#FFFFFF" sketch:type="MSShapeGroup"></path>
                <path d="M148.545711,314.668793 L141.510431,313.183979 L141.416081,313.610985 L137.977474,329.970986 L145.15586,331.478274 C146.980793,331.860349 148.499318,331.670068 149.674001,330.900682 C150.689836,330.237682 151.37157,329.179874 151.650251,327.862867 C151.721481,327.503283 151.764151,327.160172 151.764151,326.825289 C151.764151,325.394416 151.054707,324.18303 149.787884,323.314772 C151.254729,322.892985 152.30504,321.813468 152.642898,320.211031 C152.700528,319.960808 152.735038,319.664889 152.735038,319.330023 C152.73429,317.693127 151.873512,315.370757 148.545762,314.668793 L148.545711,314.668793 Z M146.086304,316.116904 C147.269215,316.367127 148.088037,316.819616 148.504571,317.463134 C148.744288,317.828719 148.862659,318.25649 148.862659,318.753927 C148.862659,318.996653 148.831209,319.248372 148.774259,319.5218 C148.317282,321.70035 146.557527,321.677111 145.545415,321.456111 C145.545415,321.456111 144.474126,321.235111 143.853082,321.104772 C143.997582,320.433527 144.814245,316.549911 144.95509,315.880927 C145.40457,315.972387 146.086304,316.116904 146.086304,316.116904 L146.086304,316.116904 Z M145.545415,323.419645 C147.544156,323.839919 147.85954,325.41689 147.85954,326.375061 C147.85954,326.786342 147.79511,327.08 147.78695,327.128705 C147.585432,328.074126 147.225083,328.713156 146.671461,329.070513 C146.086372,329.460816 145.24358,329.535735 144.177527,329.314735 C144.177527,329.314735 142.897971,329.04129 142.212497,328.90495 C142.360057,328.20149 143.316749,323.669868 143.461334,322.979141 C144.047171,323.101201 145.545483,323.419645 145.545483,323.419645 L145.545415,323.419645 Z" id="path3421" fill="#FFFFFF" sketch:type="MSShapeGroup"></path>
                <path d="M165.297511,316.844334 L157.114527,333.594638 L159.471356,333.769942 C159.471356,333.769942 161.203401,330.1298 161.432646,329.664578 C161.930831,329.702828 165.936541,330.014438 166.427994,330.05415 C166.584564,330.534349 167.834149,334.4172 167.834149,334.4172 L171.893052,334.730357 L165.815178,315.887676 L165.297511,316.844334 L165.297511,316.844334 Z M164.399282,323.579224 C164.794838,324.844534 165.555979,327.283779 165.807698,328.080127 C164.999348,328.020117 163.137712,327.8756 162.337624,327.814927 C162.704705,327.062031 163.820194,324.768867 164.399282,323.579224 L164.399282,323.579224 Z" id="path3423" fill="#FFFFFF" sketch:type="MSShapeGroup"></path>
                <path d="M183.217993,332.363039 C183.185693,331.546461 182.584216,317.381483 182.584216,317.381483 L182.166186,317.396783 L178.663149,317.539923 L179.383082,334.67679 L189.837504,334.233294 L189.745364,332.094456 C189.747064,332.095204 183.973898,332.338678 183.217993,332.363413" id="path3425" fill="#FFFFFF" sketch:type="MSShapeGroup"></path>
                <path d="M201.231363,330.619009 C201.100973,329.811424 198.901513,315.789535 198.901513,315.789535 L198.481987,315.857025 L195.025394,316.403898 L197.68263,333.344483 L208.018698,331.71284 L207.685311,329.595728 C207.684563,329.597224 201.970778,330.494705 201.231363,330.619077" id="path3427" fill="#FFFFFF" sketch:type="MSShapeGroup"></path>
                <path d="M240.928216,316.039741 C240.866846,318.271467 239.557268,320.161578 237.515823,320.984157 C236.327676,321.456876 235.154489,321.440386 234.020283,320.953387 C232.422334,320.277654 231.026668,318.676713 230.180867,316.575343 C229.228697,314.17581 229.075119,312.074423 229.740363,310.503453 C230.25803,309.315306 231.241667,308.426053 232.680037,307.85521 C234.56192,307.101549 236.28946,307.96078 237.7518,308.828358 L238.117385,309.041861 L239.169209,307.389988 L238.817105,307.152498 C236.547911,305.666188 233.745342,305.356023 231.333076,306.321691 C229.047409,307.237906 227.27266,308.927995 226.351209,311.091534 C225.405771,313.283565 225.414764,315.827683 226.381979,318.22572 C228.185951,322.751358 233.27944,324.974091 237.752616,323.191862 C240.996454,321.889832 242.756957,319.536743 242.992203,316.177543 L243.022973,315.744536 L240.952322,315.601396 L240.928352,316.039639" id="path3429" fill="#FFFFFF" sketch:type="MSShapeGroup"></path>
                <path d="M254.325304,312.384639 C253.92152,311.676674 247.005342,299.284949 247.005342,299.284949 L246.624763,299.496956 L243.57872,301.202787 L251.933268,316.164113 L261.066178,311.064623 L260.027104,309.19175 C260.0286,309.193246 254.971831,312.010061 254.325304,312.384639" id="path3431" fill="#FFFFFF" sketch:type="MSShapeGroup"></path>
                <path d="M267.20549,285.863874 L266.852638,286.12309 L265.452467,287.151675 L272.680289,296.999282 C273.164245,297.662282 273.354526,298.323786 273.251149,298.971809 C273.078837,300.144979 272.010557,301.045452 271.562556,301.365341 C271.050142,301.751904 270.112201,302.071793 269.213972,301.925712 C268.451335,301.813342 267.826534,301.410289 267.325357,300.739061 L260.189675,291.006068 L257.029001,293.336683 L264.118239,303.000741 C265.071905,304.304267 266.23683,305.072905 267.575563,305.271431 C269.686674,305.590572 271.668194,304.415141 272.664564,303.688476 C276.085185,301.173564 276.130898,298.027119 274.652816,296.025386 L267.20549,285.863874" id="path3433" fill="#FFFFFF" sketch:type="MSShapeGroup"></path>
                <path d="M290.533349,280.998882 C289.206601,279.626438 287.509015,279.313298 285.748512,279.990527 C285.887912,279.579994 285.971008,279.161216 285.971008,278.742438 C285.971008,277.724342 285.565711,276.730964 284.750646,275.89266 C283.647142,274.757689 280.789867,273.355274 277.867431,276.196824 L272.702015,281.201148 L284.627039,293.511987 L289.9078,288.392267 C291.239053,287.113476 291.934268,285.735031 291.950741,284.340861 C291.971651,283.123474 291.477274,281.97203 290.533349,280.998882 L290.533349,280.998882 Z M282.832808,280.463994 C282.832808,281.326268 282.270941,282.034216 281.818452,282.476216 C281.818452,282.476216 281.026609,283.245585 280.579356,283.686089 C280.097661,283.191661 277.334039,280.344127 276.86132,279.839193 C277.181957,279.529045 277.686874,279.048098 277.686874,279.048098 C279.300548,277.476363 280.717209,277.372238 282.017726,278.719964 C282.613304,279.338764 282.832808,279.923105 282.832808,280.463994 L282.832808,280.463994 Z M286.117089,289.39763 C285.628645,288.894209 282.40655,285.559727 281.912105,285.056289 C282.337615,284.646504 283.441119,283.572971 283.441119,283.572971 C285.545498,281.545024 287.678335,283.694351 287.768979,283.793971 C288.431979,284.478697 288.757852,285.12672 288.757852,285.770986 L288.757852,285.795636 C288.749352,286.503584 288.339074,287.244495 287.560712,288.013881 C287.562412,288.013881 286.534371,289.002006 286.117089,289.397562 L286.117089,289.39763 Z" id="path3435" fill="#FFFFFF" sketch:type="MSShapeGroup"></path>
                <path d="M98.948075,60.757031 L91.750972,62.698074 L92.577274,65.27592 C93.5714,68.401387 92.671624,71.673683 90.235439,73.81026 C88.880216,74.998424 87.31523,75.543801 85.589186,75.42543 C82.966409,75.249378 80.005757,73.551809 77.672898,70.881823 C74.923505,67.732386 73.551809,64.700572 73.726348,62.130971 C73.847728,60.25735 74.75869,58.611461 76.50646,57.080186 C78.437031,55.389349 80.885252,55.455275 84.206253,56.113787 L86.669468,56.600735 L88.262164,49.707779 L85.782476,49.103208 C80.450749,47.783957 74.890542,49.079918 70.923779,52.552304 C63.155068,59.350111 62.521274,70.451808 69.450185,78.375593 C75.889156,85.736763 87.061267,86.539112 94.34303,80.169824 C99.587853,75.588749 101.41503,69.727387 99.633549,63.237467 L98.948075,60.757031" id="path3437" fill="#DBA111" sketch:type="MSShapeGroup"></path>
                <path d="M118.491972,24.658364 L111.140526,28.120193 C111.140526,28.120193 115.244394,36.817104 116.655037,39.814476 C114.558172,40.800357 112.527216,41.760024 110.42809,42.751141 C109.012194,39.75603 104.906082,31.055379 104.906082,31.055379 L95.226282,35.6252 L109.968104,66.89483 L119.656149,62.327253 C119.656149,62.327253 115.088572,52.655698 113.619483,49.519742 C115.717861,48.537601 117.747304,47.578682 119.850187,46.588313 C121.323764,49.715276 125.885357,59.388327 125.885357,59.388327 L135.571141,54.817741 L120.833824,23.555608 L118.491972,24.658364" id="path3439" fill="#DBA111" sketch:type="MSShapeGroup"></path>
                <path d="M151.267394,44.030697 C150.795423,41.702326 150.315972,39.333512 149.849985,37.00815 C152.840608,36.406571 160.787615,34.80189 160.787615,34.80189 L159.389705,27.856489 C159.389705,27.856489 151.438941,29.463431 148.446074,30.067985 C148.015311,27.938905 147.658719,26.150675 147.224964,24.024587 C150.330949,23.39829 158.835335,21.679726 158.835335,21.679726 L157.433668,14.737334 L154.88955,15.248252 L135.326919,19.204526 L142.165934,53.093941 L164.451727,48.58855 L163.051556,41.649898 C163.051556,41.649898 154.394357,43.394676 151.267394,44.030697" id="path3441" fill="#DBA111" sketch:type="MSShapeGroup"></path>
                <path d="M182.877126,13.933489 L172.159748,13.710993 L172.106538,16.295571 L171.436789,48.273897 L193.933841,48.745868 L194.094831,41.258082 C194.094831,41.258082 185.457845,41.072289 182.301659,41.007876 C182.391589,36.775148 182.877007,13.933489 182.877007,13.933489" id="path3443" fill="#DBA111" sketch:type="MSShapeGroup"></path>
                <path d="M217.606341,31.368519 C214.826246,29.326326 214.01266,28.507504 214.293585,27.392015 C214.431455,26.813675 215.061475,24.967016 217.05872,25.461461 C218.260348,25.770113 219.456009,26.403142 219.988653,28.989216 L220.573742,31.859972 L227.65023,29.468667 L227.209726,27.240698 C226.339224,22.864898 222.638409,19.140113 217.992904,17.979676 C214.665919,17.153357 211.330689,17.595357 208.593298,19.23975 C206.08063,20.744794 204.313378,23.120357 203.614423,25.931919 C201.838178,33.018913 206.615535,36.431289 209.773948,38.692238 C213.01255,41.007876 213.83586,41.91435 213.341415,43.848661 C213.186375,44.453215 212.830497,44.930439 212.273135,45.268297 C211.625112,45.649624 210.811526,45.78746 210.150039,45.615148 C208.448713,45.196387 207.71229,44.392542 206.995349,42.192283 L206.126326,39.554512 L199.025868,42.458231 L199.713586,44.712431 C201.044839,49.092719 204.222734,51.853349 209.423357,53.156127 C215.268246,54.618467 222.358963,51.930512 224.125467,44.912453 C225.968386,37.517572 220.935587,33.812252 217.606341,31.368519" id="path3445" fill="#DBA111" sketch:type="MSShapeGroup"></path>
                <path d="M243.174171,49.806668 C245.901838,51.185113 253.131156,54.840963 253.131156,54.840963 L256.32855,48.519615 C256.32855,48.519615 249.093231,44.863748 246.374557,43.489808 C247.347705,41.551009 248.172511,39.920845 249.144163,37.985786 C251.965483,39.410675 259.719948,43.329498 259.719948,43.329498 L262.908349,37.00815 L242.785364,26.839141 L241.621935,29.142794 L227.187252,57.692237 L247.478809,67.940653 L250.67843,61.623045 C250.67843,61.623045 242.793609,57.639809 239.944579,56.205179 C241.011363,54.083579 242.107387,51.929016 243.174171,49.806668" id="path3447" fill="#DBA111" sketch:type="MSShapeGroup"></path>
                <path d="M283.250838,53.035512 L251.006564,69.71989 L257.175082,75.084563 C257.175082,75.084563 262.497068,72.255015 264.431379,71.239163 C265.869749,72.491757 267.989853,74.336172 269.405001,75.565527 C268.711282,77.622697 266.740268,83.406913 266.740268,83.406913 L275.238653,90.801046 L289.024548,50.149779 L283.250838,53.035512" id="path3449" fill="#DBA111" sketch:type="MSShapeGroup"></path>
                <path d="M97.739698,62.860645 L93.939246,63.893735 L94.217927,64.753748 C95.425556,68.547468 94.336247,72.515727 91.365905,75.113038 C89.660074,76.609837 87.671074,77.295311 85.473824,77.153735 C82.358846,76.94472 79.04609,75.074839 76.372364,72.016794 C73.315067,68.516749 71.799534,65.056416 72.000304,62.00886 C72.157724,59.694735 73.291845,57.598601 75.371489,55.779652 C78.102148,53.392104 81.540024,53.828868 84.541867,54.42295 L85.36669,54.58258 L86.198245,50.979906 L85.371926,50.773883 C80.580357,49.597721 75.608231,50.747703 72.05875,53.85515 C65.036186,60.005699 64.472075,70.051084 70.751467,77.23695 C76.563393,83.881944 86.636505,84.610105 93.212564,78.867114 C97.980911,74.685335 99.583348,69.58661 97.968178,63.696025 L97.739698,62.860713" id="path3451" fill="#FFFFFF" sketch:type="MSShapeGroup"></path>
                <path d="M119.226134,26.211348 L113.442683,28.945764 C113.442683,28.945764 118.311415,39.277327 118.951941,40.635542 C117.714341,41.222127 110.844624,44.463704 109.598031,45.045801 C108.959001,43.685342 104.093261,33.354527 104.093261,33.354527 L97.519446,36.451519 L110.790683,64.593438 L117.359993,61.500934 C117.359993,61.500934 111.972098,50.080113 111.323327,48.697911 C112.569172,48.111326 119.430661,44.877994 120.676489,44.289148 C121.323764,45.667593 126.713172,57.095163 126.713172,57.095163 L133.274237,53.995179 L120.003748,25.848772 L119.226134,26.211348" id="path3453" fill="#FFFFFF" sketch:type="MSShapeGroup"></path>
                <path d="M149.912919,46.063149 C149.643231,44.710935 148.087986,37.011142 147.818298,35.658911 C149.257416,35.369741 158.754415,33.450424 158.754415,33.450424 L158.035978,29.894942 C158.035978,29.894942 148.541971,31.806031 147.094608,32.098941 C146.831652,30.772941 145.461452,23.998356 145.198513,22.673852 C146.648868,22.376437 156.802135,20.332 156.802135,20.332 L156.082185,16.775039 L137.360867,20.553 L143.518913,51.055505 L162.419275,47.240076 L161.700838,43.683098 C161.699342,43.683846 151.375276,45.76723 149.912919,46.063149" id="path3455" fill="#FFFFFF" sketch:type="MSShapeGroup"></path>
                <path d="M181.112883,15.625839 L173.85509,15.468589 L173.83979,16.325627 L173.19702,46.581649 L192.250229,46.985433 L192.334889,42.94676 C192.334889,42.94676 182.020564,42.728752 180.54323,42.697285 C180.58063,41.082863 181.113342,15.625924 181.113342,15.625924" id="path3457" fill="#FFFFFF" sketch:type="MSShapeGroup"></path>
                <path d="M217.477498,23.79235 C219.784874,24.369942 221.117623,25.911689 221.682482,28.642348 L221.878764,29.596779 L225.664239,28.317223 L225.521099,27.570311 C224.773439,23.841786 221.583542,20.656394 217.577084,19.648787 C214.696587,18.93035 211.827327,19.307172 209.487736,20.711831 C207.371372,21.98389 205.879061,23.987867 205.29098,26.351445 C203.800165,32.295971 207.674788,35.064846 210.782269,37.286083 C213.927949,39.535778 215.824061,41.071541 215.016476,44.262186 C214.695839,45.59043 213.828312,46.349327 213.159328,46.748623 C212.122498,47.369667 210.850439,47.563705 209.732706,47.289512 C207.438046,46.714164 206.256631,45.480304 205.360646,42.727919 L205.068484,41.848424 L201.13992,43.450861 L201.368417,44.205253 C202.51012,47.959261 205.285727,50.339312 209.853321,51.482511 C214.871143,52.735853 220.952009,50.465163 222.450321,44.487674 C224.01155,38.222511 219.898706,35.190697 216.570225,32.757453 C213.745165,30.671808 212.038586,29.277638 212.619187,26.973237 C213.127861,24.913075 214.833675,23.130098 217.477447,23.79235" id="path3459" fill="#FFFFFF" sketch:type="MSShapeGroup"></path>
                <path d="M248.384535,35.671661 C249.709039,36.337653 258.949083,41.007111 258.949083,41.007111 L260.593476,37.765534 L243.550245,29.155527 L243.159942,29.924148 L229.512631,56.931861 L246.715424,65.625763 L248.354564,62.385682 C248.354564,62.385682 238.962438,57.6368 237.63195,56.961815 C238.252246,55.72872 241.796474,48.726386 242.412282,47.492526 C243.723305,48.154778 252.366275,52.52235 252.366275,52.52235 L254.01366,49.280756 C254.01366,49.280756 245.361697,44.916941 244.050674,44.250949 C244.660498,43.047808 247.776224,36.874785 248.384535,35.671661" id="path3461" fill="#FFFFFF" sketch:type="MSShapeGroup"></path>
                <path d="M284.044194,54.571275 L254.059356,70.089215 L257.410311,73.002675 C257.410311,73.002675 263.769127,69.63149 264.668852,69.155031 C265.415016,69.806794 270.685305,74.391609 271.415727,75.02763 C271.098082,75.975312 268.742749,82.861519 268.742749,82.861519 L274.433312,87.808927 L286.018948,53.645319 L284.044194,54.571275 L284.044194,54.571275 Z M268.140439,67.369793 C269.558579,66.636379 273.182231,64.753748 275.392231,63.6038 C274.569652,65.953149 273.213698,69.821771 272.693787,71.327563 C271.543839,70.320704 269.291883,68.363919 268.140439,67.369793 L268.140439,67.369793 Z" id="path3463" fill="#FFFFFF" sketch:type="MSShapeGroup"></path>
                <path d="M263.120356,173.383119 C260.660898,166.869994 252.193215,164.040446 244.188527,167.061771 C240.851053,168.317357 238.117385,170.416483 236.253505,172.894675 C241.538771,157.809742 263.067911,154.608608 263.067911,140.574734 C263.067911,117.052089 229.6632,123.640898 234.523704,140.578134 C234.523704,132.893335 246.754371,131.484936 246.754371,140.578134 C246.754371,149.672845 225.428245,155.636853 225.428245,171.001232 C225.428245,187.938808 242.36883,189.506038 240.654023,204.997016 C240.362609,207.66775 237.490357,211.177536 233.332548,211.177536 C207.385652,211.177536 216.648187,179.236661 207.581934,169.517149 L208.056149,162.954571 C213.297215,166.168438 227.202246,158.639461 218.048341,147.162438 C218.048341,152.806557 206.295646,152.494165 206.295646,141.830728 C206.295646,127.402046 219.784874,134.931023 220.440394,138.11718 C219.793867,132.862616 219.549645,129.528134 220.417104,126.50006 C213.145082,128.844921 212.464844,124.641416 213.384799,123.015009 C214.438119,121.133891 215.847266,118.936624 218.680571,118.936624 C220.211829,118.936624 221.131036,119.150127 221.672673,119.523209 C222.578399,120.142757 223.240651,118.727609 223.111043,120.043868 C223.889422,118.859461 223.577778,120.338291 224.32843,119.150127 C225.093311,117.970208 226.123392,116.63598 227.933348,114.858239 L227.855488,112.196498 L229.974096,112.973364 L232.008044,109.683847 C229.813021,105.132743 226.834383,107.324757 224.640873,101.682134 C222.806199,101.205675 194.232769,104.313173 195.061332,92.914809 C192.731465,92.914809 187.212466,94.191373 190.627851,98.832373 C187.972094,99.152245 186.058013,96.136173 182.054547,104.293691 C187.069377,103.353506 184.473562,108.959409 184.473562,110.554349 C184.473562,120.889669 170.714629,120.715113 170.714629,115.874091 C167.398881,119.096186 169.279999,126.141972 174.294829,127.877757 C174.294829,127.877757 172.38748,135.414231 167.679806,140.192336 C160.691718,139.913638 149.480643,138.69926 143.031183,132.602669 C140.249592,129.975387 138.041088,128.543749 136.15997,127.808091 L136.15997,124.391958 C138.913851,123.044232 141.93368,120.658928 145.07188,116.672683 C147.520118,113.682808 148.84537,109.848645 148.488761,105.777009 C148.442351,105.290809 148.370441,104.81061 148.284999,104.342379 C148.258819,104.193289 148.222099,104.048721 148.187589,103.900379 C148.118739,103.572245 148.039179,103.257609 147.944115,102.933232 C147.898385,102.776662 147.855715,102.616335 147.806245,102.461261 C147.699825,102.136136 147.582984,101.825223 147.456385,101.516571 C147.403175,101.387031 147.365775,101.249127 147.303555,101.127764 C147.128999,100.711995 146.93423,100.320927 146.723719,99.926884 C146.633789,99.767254 146.538674,99.618232 146.451022,99.471386 C146.306352,99.234661 146.169332,98.994927 146.017267,98.766447 C145.894357,98.585142 145.765548,98.40161 145.63594,98.218809 C145.50266,98.044253 145.361747,97.865209 145.224659,97.689905 C145.072509,97.502616 144.922756,97.30409 144.760185,97.118297 C144.652235,96.995387 144.535445,96.877084 144.421562,96.763949 C144.014021,96.313721 143.572021,95.894943 143.110556,95.494899 C143.072306,95.461919 143.026576,95.419249 142.981696,95.384739 C142.723993,95.164487 142.449052,94.953976 142.178599,94.753189 C142.109749,94.700829 142.037839,94.649829 141.960608,94.595939 C141.671421,94.392177 141.375519,94.192903 141.066867,94.002605 C141.048167,93.990705 141.030827,93.983225 141.017397,93.969625 C138.080715,92.171671 134.531982,91.230738 130.783975,91.528153 C121.759678,92.24659 115.051767,99.786804 115.805428,108.370597 C116.392013,115.058278 121.324427,120.399729 127.737167,122.103316 C125.487472,123.358885 123.586872,124.083323 123.157605,124.083323 C123.228835,124.129053 123.321655,124.182263 123.422805,124.247373 C123.448985,124.259273 123.479755,124.278143 123.511205,124.293783 C123.598075,124.349883 123.701486,124.407683 123.807124,124.464582 C123.833304,124.479882 123.865604,124.494502 123.891104,124.510312 C124.035774,124.583072 124.184779,124.658722 124.352586,124.738809 C124.378766,124.750709 124.410216,124.760569 124.436566,124.773319 C124.584976,124.842169 124.736225,124.914249 124.896535,124.975585 C124.942265,124.996495 124.991735,125.015365 125.041035,125.031855 C125.433599,125.195905 125.875599,125.343499 126.358807,125.481335 C126.427657,125.500035 126.500417,125.515845 126.559577,125.534545 C126.755094,125.584015 126.95362,125.629745 127.158895,125.679045 C127.226385,125.690945 127.295235,125.705225 127.36791,125.720185 C127.627109,125.766595 127.89831,125.812325 128.170259,125.845305 C128.193549,125.845305 128.216669,125.857205 128.239109,125.857205 L128.239109,127.799761 C128.137279,127.822201 128.045071,127.832741 127.949939,127.847701 C125.014753,128.330909 123.107404,129.234391 122.24513,131.847427 C121.388109,134.470221 122.26842,135.417903 123.643057,137.257813 C122.481872,139.333717 119.438804,140.109835 123.410072,144.696146 C123.120902,146.428191 123.487252,149.186577 126.008131,150.023368 C126.830693,150.302066 127.516167,150.450391 128.239109,150.575494 L128.235709,184.958606 C125.721562,186.29059 124.48097,187.952221 123.794748,189.500717 C123.794748,189.500717 121.776525,185.020027 121.909873,193.895999 C124.203037,192.116762 123.300303,195.956161 123.300303,195.956161 C120.177828,200.001583 124.143843,199.782079 124.143843,199.782079 C126.833311,197.09562 126.284925,200.999466 126.284925,200.999466 C126.284925,205.760316 128.218488,207.623465 128.234961,207.630962 L128.234961,233.825072 L125.950807,233.831872 L125.972567,241.059694 L129.96704,241.052894 C127.725573,241.983338 126.246743,244.197095 126.462507,246.64382 C126.733708,249.728079 129.582721,252.019747 132.827307,251.769524 C136.068884,251.508812 138.478158,248.805132 138.201721,245.713376 C138.018189,243.579791 136.604537,241.838753 134.682211,241.038665 L138.368032,241.028465 L138.352732,233.800643 L136.154717,233.810843 L136.158117,210.570636 C136.611354,210.819346 137.101294,210.991658 137.63319,211.107768 C137.845197,211.147548 138.055708,211.176618 138.27222,211.190898 C138.36742,211.206198 138.466241,211.206198 138.56139,211.208918 C137.970317,208.153882 139.79525,206.128927 139.79525,206.128927 C140.732426,204.718267 142.087649,203.618503 143.630161,202.842385 C148.242686,200.52826 154.537072,201.113349 156.41819,204.880838 C168.337961,201.738881 178.581124,189.757689 178.581124,189.757689 L184.448487,199.743897 C172.008805,203.903185 144.913457,227.458045 163.721679,235.616311 C163.714879,237.991126 163.396554,255.615689 152.094835,254.215518 C135.818746,252.210793 131.759826,258.944918 134.885293,266.515103 C133.416204,272.898637 138.332145,275.114638 138.332145,275.114638 C137.594226,271.427304 139.367479,268.372268 146.094124,268.411215 C146.059614,275.13786 150.403998,276.350742 150.403998,276.350742 C150.434768,270.590496 154.437435,268.456911 157.993665,268.472653 C157.967485,273.219274 163.481945,275.023229 163.481945,275.023229 C163.481945,275.023229 162.084035,269.552918 168.317731,268.472653 C184.097879,265.72326 169.277398,249.493615 193.274989,245.02117 C193.274989,245.02117 181.325264,243.219459 181.325264,236.686852 C181.325264,230.74083 192.142279,226.675178 195.866316,226.675178 C203.503923,241.267927 211.801538,241.383289 213.976331,241.487431 C217.358753,245.265392 216.225278,257.999497 211.342317,257.749274 C193.466783,256.789607 194.12079,267.662807 196.124019,269.887053 C195.895539,274.107779 199.179072,276.545511 199.179072,276.545511 C199.179072,272.021386 203.483693,270.749327 209.004205,271.048238 C208.714287,276.574734 212.235293,277.400305 212.235293,277.400305 C212.331853,271.838585 216.446278,270.895408 219.369479,271.048238 C219.155976,274.946066 223.024598,276.09377 223.024598,276.09377 C223.024598,276.09377 222.644019,271.146379 227.852139,271.146379 C237.731961,271.139579 223.383434,249.966334 242.665871,229.026023 C225.72753,236.866644 216.715983,217.267327 216.715983,213.505822 C225.421887,223.693548 253.648449,225.727496 253.648449,208.324681 C253.648449,191.699497 235.375863,185.504748 243.925197,179.145949 C248.897323,175.448874 258.675264,182.917926 253.080598,190.633444 C261.103272,187.660807 265.573456,179.892096 263.119234,173.382711 L263.120356,173.383119 Z M154.85096,173.907127 C148.465182,177.661866 144.183783,182.412244 138.362116,184.490392 C137.478116,184.80054 136.77316,184.88894 136.160361,184.849245 L136.160361,152.398948 C137.702856,152.543448 141.705591,153.091171 146.385538,155.02623 C151.020554,157.555371 151.020554,162.782956 145.17116,164.022052 C148.868235,171.100801 161.674998,167.635215 164.46633,161.869733 C165.833538,161.748353 167.041915,164.189111 168.178382,166.496504 C166.381176,167.42994 162.703583,169.284844 154.85096,173.907127 L154.85096,173.907127 Z M226.326865,120.112718 C225.624153,121.065653 224.93193,122.013318 224.325115,122.825408 C225.94479,125.517103 228.991598,127.199712 232.32982,126.89106 C236.943093,126.454296 240.339013,122.359438 239.914982,117.74166 C239.890332,117.57387 239.867042,117.422519 239.844602,117.258452 C239.350157,119.64974 236.531846,121.674712 232.947158,122.005838 C230.232972,122.260549 227.775758,121.481422 226.326899,120.112718 L226.326865,120.112718 Z" id="path3465" fill="#D1D3D4" sketch:type="MSShapeGroup"></path>
                <path d="M123.151689,100.584971 C123.151689,100.590071 123.139789,100.601971 123.139789,100.612681 L123.136389,100.612681 C123.208299,100.441117 123.283949,100.26957 123.371618,100.101746 C123.288488,100.261376 123.212838,100.417895 123.150618,100.584954 L123.151689,100.584971 Z M123.445041,236.690235 C123.451841,236.685135 123.464591,236.685135 123.466801,236.676635 L123.465101,236.676635 C123.460001,236.686835 123.453201,236.686835 123.445551,236.690235 L123.445041,236.690235 Z M123.242775,86.730872 L123.251275,86.730872 L123.242775,86.730872 L123.242775,86.730872 Z M120.801286,235.891643 L124.795759,235.886543 C124.308063,236.090305 123.867559,236.357749 123.466767,236.67689 C123.863819,236.52474 124.284841,236.432668 124.731329,236.432668 C126.734575,236.432668 128.356477,238.055335 128.356477,240.06006 C128.356477,242.06181 126.734575,243.68446 124.731329,243.68446 C123.109427,243.68446 121.752708,242.620668 121.29347,241.148587 L121.29347,241.476721 C121.567663,244.56846 124.409196,246.861624 127.657522,246.594928 C130.896107,246.341713 133.304633,243.630519 133.037189,240.54626 C132.847656,238.421668 131.436996,236.678386 129.51467,235.878298 L133.198264,235.862998 L133.181264,228.634428 L130.983249,228.646328 L130.983249,205.405373 C128.835435,204.290632 127.594843,201.861893 128.074294,199.367959 C129.44973,199.367959 130.67985,199.725299 131.50316,200.288662 C130.233345,203.082255 133.391775,206.041411 133.391775,206.041411 C132.800702,202.987854 134.621895,200.967404 134.621895,200.967404 C135.566568,199.553752 136.921043,198.452492 138.456806,197.674878 C143.075332,195.35924 149.365961,195.944329 151.247079,199.710322 C163.167598,196.57287 173.411509,184.586425 173.411509,184.586425 L179.281864,194.565884 C193.041545,194.565884 188.25222,184.262048 187.353243,183.363819 C190.520649,183.363819 194.975856,185.694417 194.975856,190.855328 C194.975856,203.527995 158.13553,205.333463 158.13553,220.715811 C158.13553,227.174247 164.53705,229.63073 164.53705,229.63073 C164.53705,243.655611 154.906686,251.986937 148.31939,251.986937 C137.785561,251.986937 129.719435,249.853352 129.719435,261.339351 L133.391775,261.339351 C129.902967,264.827411 133.15879,269.944122 133.15879,269.944122 C132.42388,266.261293 134.202369,263.212241 140.927501,263.244456 L145.123509,263.244456 C142.45728,265.909189 144.014769,269.954611 145.241829,271.189219 C145.265119,265.421493 149.264029,263.289404 152.824747,263.310365 L155.870042,263.310365 C155.041479,264.126943 156.372732,267.918419 158.316036,269.854226 C158.316036,269.854226 156.911377,264.390647 163.151805,263.310365 C178.926717,260.560989 164.103244,244.331344 188.102331,239.852167 C188.102331,239.852167 176.160103,238.055692 176.160103,231.516336 C176.160103,225.580055 186.971865,221.50541 190.689918,221.50541 C193.620599,221.086632 196.411931,221.19227 198.80174,221.704684 C199.773392,231.126033 210.588894,230.668291 212.946488,230.668291 C222.122102,239.845418 210.613629,254.576751 210.613629,254.576751 C196.53105,254.576751 190.957362,256.520055 190.957362,264.721025 L193.622843,264.721025 C192.129036,266.222329 192.976316,270.350167 194.004918,271.380248 C194.004918,266.853114 198.317036,265.588552 203.837531,265.879966 L206.740502,265.879966 C205.323858,267.295114 205.574081,270.737478 207.073872,272.232033 C207.156322,266.669565 211.276629,265.72564 214.204318,265.879966 L216.624081,265.879966 C215.718355,266.794685 216.624081,269.694647 217.865421,270.936752 C217.865421,270.936752 217.483346,265.985604 222.688457,265.979603 C232.572036,265.979603 218.215281,244.799558 237.508955,223.859995 C220.571362,231.704373 211.552318,212.099055 211.552318,208.336819 C220.259718,218.528285 248.492281,220.561485 248.492281,203.163158 C248.492281,189.125544 235.469754,182.527759 236.54854,176.985521 C236.923118,172.743069 240.481592,169.41758 244.827421,169.41758 C249.41448,169.41758 253.132516,173.143878 253.132516,177.731685 C253.132516,181.229469 250.984702,184.216352 247.925161,185.443463 C247.931961,185.443463 247.931961,185.434963 247.931961,185.434963 C247.925161,185.443463 247.914791,185.452133 247.914791,185.467093 C255.929985,182.493708 260.40617,174.722736 257.960924,168.214864 C255.493969,161.701722 247.026303,158.865425 239.027599,161.885271 C235.676644,163.149833 232.952717,165.240714 231.091081,167.723411 C236.367354,152.639226 257.900999,149.443345 257.900999,135.40347 C257.900999,111.880825 224.494792,118.472626 229.355296,135.41027 C229.355296,135.155559 229.370596,134.904588 229.401706,134.659618 C230.253491,125.085439 247.367884,123.128654 247.367884,135.608796 C247.367884,146.271485 225.448424,152.181552 225.448424,166.52707 C225.448424,181.260647 241.640601,184.945737 241.640601,200.450196 C241.640601,202.296855 240.664461,210.247602 229.908884,210.247602 C219.530112,210.247602 214.540765,204.446165 211.706712,196.875232 L211.706712,196.875232 C206.41995,186.66204 208.361758,170.718573 202.408987,164.344032 L202.881706,157.787455 C208.125764,161.005062 222.035283,153.469336 212.898616,141.992313 C212.898616,147.642433 201.13618,147.322544 201.13618,136.663595 C201.13618,122.234913 214.617928,129.763907 215.273431,132.947055 C214.626173,127.6955 214.37221,124.352025 215.258131,121.335188 C207.978612,123.6733 207.308863,119.473552 208.214589,117.84264 C209.279894,115.957765 210.687545,113.764255 213.515597,113.764255 C217.603723,113.764255 217.344524,115.264811 217.129508,117.378914 C218.690737,115.01758 219.13425,113.242848 222.767626,109.68961 L222.690446,107.021137 L224.798565,107.804752 L226.848255,104.511478 C224.656224,99.960374 221.676107,102.161381 219.473587,96.51427 C217.647158,96.034802 193.623336,93.81807 194.454891,82.415966 C192.328803,82.415966 186.541595,89.747165 190.457409,93.669728 L185.469558,93.669728 C182.801833,93.985129 176.576365,92.123476 172.581144,100.276506 C182.418262,90.440884 188.80404,113.905848 170.685032,113.905848 L170.685032,113.902448 C168.011306,113.909248 165.718159,112.794456 165.563085,110.908833 C163.757617,118.828878 175.171706,121.293589 175.171706,121.293589 C175.171706,123.646678 169.454181,136.385271 166.675565,139.160878 C168.548455,141.034516 169.130535,152.345211 160.471092,152.345211 C163.59355,143.901515 154.409691,136.747116 145.489536,132.014724 L145.501436,132.014724 C143.886266,131.400412 142.348259,130.654248 140.92337,129.755271 C135.447058,127.253109 130.995591,125.844693 130.995591,125.844693 L130.995591,119.22593 C133.749472,117.875212 136.769318,115.489908 139.907518,111.503663 C142.359496,108.516797 143.677999,104.682634 143.319911,100.607989 C143.281661,100.121041 143.209751,99.648322 143.11314,99.171863 C143.09138,99.023453 143.05687,98.882693 143.02542,98.734368 C142.95351,98.406234 142.87327,98.083353 142.778954,97.767952 C142.736284,97.606962 142.690554,97.45556 142.634454,97.295998 C142.531094,96.970856 142.412689,96.653211 142.291326,96.344559 C142.237436,96.213489 142.192386,96.088352 142.138496,95.958761 C141.959435,95.55122 141.76317,95.150411 141.556399,94.766109 C141.473949,94.602059 141.37285,94.454448 141.286711,94.297878 C141.142041,94.062649 141.002029,93.829664 140.851443,93.601167 C140.726323,93.418383 140.601237,93.231094 140.467124,93.049041 C140.334524,92.874485 140.201176,92.694693 140.0596,92.526886 C139.9083,92.32836 139.755436,92.134322 139.591369,91.948546 C139.484949,91.825636 139.371117,91.707316 139.256503,91.590441 C138.844474,91.144701 138.406962,90.725923 137.946976,90.333359 C137.900566,90.295959 137.861636,90.244959 137.815906,90.211979 C137.557455,89.994736 137.287019,89.784973 137.009069,89.587195 C136.935629,89.539255 136.867459,89.477035 136.795566,89.427565 C136.501908,89.218567 136.210477,89.026773 135.900329,88.834248 C135.882309,88.825748 135.863609,88.810958 135.846439,88.804328 C132.91127,86.997381 129.361024,86.065424 125.614513,86.358351 C124.807676,86.422781 124.022565,86.567366 123.254692,86.731416 C118.059322,88.722677 114.278335,94.804291 114.278335,102.002142 C114.278335,108.784972 117.641292,114.569188 122.370692,116.877329 C122.435122,116.895349 122.503972,116.921529 122.571462,116.938019 C120.317262,118.193605 118.41741,118.918774 117.985899,118.918774 C118.059339,118.965184 118.154539,119.017714 118.257083,119.086564 C118.283263,119.098464 118.310973,119.112744 118.341063,119.129234 C118.431673,119.181764 118.526856,119.234804 118.640722,119.295494 C118.668432,119.310794 118.694612,119.326264 118.726062,119.336634 C118.860872,119.408544 119.018224,119.493204 119.181543,119.573376 C119.211463,119.581876 119.242233,119.595816 119.265523,119.612306 C119.408663,119.679796 119.562938,119.740486 119.729997,119.809336 C119.775727,119.828886 119.818397,119.848266 119.867867,119.866966 C120.268659,120.025066 120.705423,120.179358 121.193867,120.315715 C121.261357,120.331015 121.326467,120.350225 121.395385,120.369605 C121.584935,120.419075 121.783461,120.464805 121.988719,120.507475 C122.057569,120.526175 122.129649,120.537395 122.202222,120.553205 C122.46069,120.602675 122.726638,120.647555 123.006067,120.681385 C123.025617,120.681385 123.047207,120.684785 123.066757,120.698385 C124.787548,120.839315 126.821496,120.412207 126.821496,120.412207 L126.821496,124.251623 C126.512861,124.251623 123.808416,123.379608 123.066757,122.637949 C122.975297,122.651549 122.876459,122.668719 122.777587,122.687419 C119.84915,123.166887 117.940305,124.068108 117.080275,126.685649 C116.223237,129.308443 117.103565,130.256108 118.477437,132.096035 C117.308024,134.164442 114.273949,134.945065 118.23772,139.534368 C117.95603,141.262656 118.31779,144.027791 120.835779,144.866095 C121.660585,145.144776 122.346824,145.284856 123.066757,145.413716 C124.559068,145.413716 126.821496,146.660309 126.821496,149.758049 L126.821496,179.306123 C128.180459,179.384833 129.654801,179.568331 130.99503,179.683693 L130.99503,147.229656 C132.537542,147.378066 136.544,147.926367 141.216467,149.853946 C141.270357,149.880126 141.311667,149.910216 141.358077,149.940816 C141.354677,149.937416 141.349577,149.937416 141.349577,149.934016 C141.7766,149.986376 142.210355,150.078516 142.639622,150.206713 C145.751608,151.163371 147.688911,153.864076 146.962229,156.255364 C146.235547,158.642164 143.112341,159.804845 140.005608,158.851179 C143.695934,165.935912 156.510177,162.469595 159.300778,156.704113 C160.661237,156.582733 161.871858,159.024239 163.010586,161.327875 C163.010586,161.327875 166.219948,162.557247 174.168451,162.557247 C174.168451,162.557247 141.990103,183.101254 132.683385,183.101254 C128.706881,183.101254 119.887111,183.101254 119.887111,186.10835 C117.463608,186.10835 113.968799,190.227195 113.968799,192.58178 C116.260467,190.79355 118.127356,190.79355 118.127356,190.79355 C120.081149,190.79355 121.181644,191.377143 121.181644,191.377143 C120.465451,192.084343 117.254593,195.707995 117.254593,198.521801 C119.943296,195.82861 121.116466,195.839847 121.116466,195.839847 C121.116466,195.839847 123.926549,195.477254 124.928155,196.484113 C124.250926,197.156106 123.066519,199.592342 123.066519,202.474335 C123.066519,202.474335 124.734134,199.255232 126.821258,199.255232 L126.821258,230.142039 C126.821258,231.085964 122.559341,231.99169 120.804074,231.99169 L120.801286,235.891643 Z M122.112836,142.443986 C121.319497,142.473906 120.942658,141.443128 120.935926,141.070046 C120.916376,140.692476 121.213859,139.642165 122.005719,139.610698 C123.890577,139.546268 127.661058,140.450498 127.676052,140.822084 C127.691352,141.190661 123.996963,142.375816 122.112836,142.443986 L122.112836,142.443986 Z M120.896962,137.346009 C119.803947,137.268829 119.442867,135.791512 119.47957,135.272349 C119.51408,134.762927 120.089377,133.350023 121.181644,133.430195 C123.79094,133.625712 128.848474,135.444661 128.80577,135.958571 C128.77364,136.479995 123.502518,137.538534 120.896962,137.346009 L120.896962,137.346009 Z M120.44823,130.81415 C119.290785,130.509986 119.195636,128.85286 119.335733,128.305239 C119.480233,127.759845 120.375555,126.362683 121.537488,126.663838 C124.295874,127.38678 129.366889,130.352668 129.222304,130.896549 C129.081374,131.441943 123.20886,131.537075 120.44823,130.814099 L120.44823,130.81415 Z M128.993807,112.409712 C129.473258,111.266513 129.371377,109.705284 129.074047,108.236195 C129.024577,108.236195 128.975107,108.239595 128.924957,108.239595 C125.605452,108.239595 122.916001,105.547883 122.916001,102.234379 C122.866531,101.667276 122.946771,101.117394 123.137749,100.612477 L123.141149,100.612477 C123.141149,100.600577 123.147949,100.589187 123.153049,100.584767 C123.870738,98.072116 126.176635,96.2217 128.926776,96.2217 C132.236523,96.2217 134.933488,98.913412 134.933488,102.234396 C134.931975,106.064819 132.235775,109.591078 128.994946,112.410137 L128.993807,112.409712 Z" id="path3467" fill="#034694" sketch:type="MSShapeGroup"></path>
                <path d="M219.16009,117.657408 C220.767763,120.34912 223.822068,122.031712 227.159542,121.720816 C231.780312,121.289305 235.167239,117.192186 234.744704,112.569172 C234.727534,112.405802 234.697444,112.248535 234.675854,112.085216 C234.185914,114.473512 231.354105,116.50372 227.776914,116.835594 C225.055231,117.090305 222.601757,116.309682 221.152898,114.942474 C220.454691,115.898401 219.75424,116.845335 219.160158,117.657408" id="path3469" fill="#ED1C24" sketch:type="MSShapeGroup"></path>
                <path d="M207.941535,102.077282 L210.842993,102.230112 L209.391142,104.221356 C209.390394,104.221356 207.453074,104.834172 207.941535,102.077282 L207.941535,102.077282 Z M201.020104,102.077282 L205.200387,102.077282 C205.200387,102.077282 205.049767,105.450711 208.101845,105.752631 L207.453839,106.826912 C207.453074,106.826912 199.250608,104.682838 201.020104,102.077282 L201.020104,102.077282 Z" id="path3471" fill="#FFFFFF" sketch:type="MSShapeGroup"></path>
                <path d="M129.222831,130.897178 C129.367331,130.353297 124.296401,127.386661 121.538015,126.664467 C120.376082,126.363312 119.480845,127.760474 119.33626,128.305868 C119.19533,128.853489 119.29053,130.510615 120.448757,130.814779 C123.209387,131.537704 129.081986,131.442572 129.222831,130.897229 L129.222831,130.897178 Z M128.807045,135.958503 C128.849715,135.444593 123.792215,133.625644 121.182919,133.430127 C120.090652,133.349887 119.515304,134.762859 119.480845,135.272281 C119.444125,135.791444 119.804474,137.268778 120.898237,137.345941 C123.503045,137.539214 128.774082,136.480675 128.807045,135.958503 L128.807045,135.958503 Z M123.064785,120.69677 L123.064785,122.635586 C123.806461,123.377993 126.510889,124.24926 126.819541,124.24926 L126.819541,120.409844 C126.820289,120.410592 124.786341,120.836867 123.064785,120.69677 L123.064785,120.69677 Z M122.006246,139.61063 C121.214386,139.64208 120.916971,140.692408 120.936453,141.069978 C120.943253,141.44306 121.320772,142.474637 122.113363,142.443918 C123.99749,142.376428 127.691556,141.190593 127.676579,140.821251 C127.661279,140.45043 123.891104,139.545452 122.006246,139.61063 L122.006246,139.61063 Z M118.125639,190.791986 C115.006904,194.833651 117.252876,198.520237 117.252876,198.520237 C117.252876,195.705666 120.463734,192.082762 121.179927,191.375562 C121.179927,191.376327 120.080163,190.791986 118.125639,190.791986 L118.125639,190.791986 Z M128.075875,199.366786 C127.596424,201.859955 128.837016,204.287963 130.98483,205.4042 C131.441824,205.640925 131.937748,205.828214 132.458424,205.93086 C132.681668,205.98186 132.890683,206.00872 133.107178,206.03354 C133.202378,206.035036 133.298224,206.03694 133.393356,206.04034 C133.393356,206.04034 130.234926,203.083428 131.504741,200.288339 C130.680683,199.722732 129.451311,199.36614 128.075875,199.36614 L128.075875,199.366786 Z M122.368074,116.876836 C117.638674,114.568712 114.275734,108.784496 114.275734,102.002414 C114.275734,94.805311 118.056704,88.722949 123.252074,86.731688 C115.451913,88.459993 109.949387,95.391896 110.637853,103.205555 C111.221446,109.824318 116.057215,115.117081 122.368074,116.876836 L122.368074,116.876836 Z M172.579274,100.27637 C177.598609,99.331697 179.301431,103.794401 179.301431,105.391585 C179.301431,111.441749 174.589252,113.879481 170.683179,113.902703 L170.683179,113.906103 C188.802187,113.906103 182.417157,90.441139 172.579274,100.276761 L172.579274,100.27637 Z M160.468474,152.345466 C169.127934,152.345466 168.545837,141.035519 166.672964,139.161133 C169.451563,136.384778 175.169105,123.646933 175.169105,121.293844 C175.169105,121.293844 163.740039,118.829133 165.564972,110.897851 C165.561572,110.892751 165.561572,110.889351 165.561572,110.882551 L165.408742,110.854841 C162.293781,114.141383 164.187632,120.996123 169.129039,122.706442 C169.129039,122.706442 167.221707,130.242916 162.514033,135.021769 C157.82732,134.839716 151.25801,134.22316 145.48804,132.014656 C154.407447,136.748561 163.592054,143.90296 160.468831,152.345908 L160.468474,152.345466 Z M126.640497,98.041652 C128.87972,97.862608 130.851482,99.450051 131.042511,101.589637 C131.228304,103.718734 129.560689,105.6006 127.317726,105.778148 C125.070275,105.958688 123.094756,104.371245 122.915712,102.233903 C122.915712,105.546659 125.605163,108.239119 128.924668,108.239119 C128.974138,108.239119 129.023608,108.235719 129.073758,108.235719 C129.371173,109.704791 129.473054,111.266037 128.993688,112.409236 C132.235265,109.590177 134.931465,106.063918 134.931465,102.233495 C134.931465,98.912511 132.235265,96.220799 128.92477,96.220799 C126.1604,96.220799 123.84551,98.082452 123.137562,100.611593 C123.662726,99.221163 124.991718,98.174592 126.640599,98.041244 L126.640497,98.041652 Z M190.455556,93.669592 C186.539742,89.747029 192.32695,82.41583 194.453038,82.41583 C192.127676,82.41583 182.044823,89.017355 185.467705,93.669592 L190.455556,93.669592 L190.455556,93.669592 Z M140.003874,158.849615 C143.109876,159.803281 146.233082,158.6406 146.960512,156.2538 C147.687942,153.862512 145.749874,151.161807 142.637905,150.205149 C142.208638,150.076969 141.774883,149.984897 141.34786,149.932452 C145.841283,152.494556 145.788838,157.634489 140.003874,158.849615 L140.003874,158.849615 Z M130.993075,125.844948 C130.993075,125.844948 135.444542,127.253364 140.920837,129.755526 C139.82109,129.073792 138.789513,128.305171 137.862809,127.432408 C135.082697,124.805126 132.871201,123.373488 130.993075,122.646075 L130.993075,125.844948 L130.993075,125.844948 Z M132.681668,183.100438 C141.988386,183.100438 174.166734,162.555666 174.166734,162.555666 C166.218979,162.555666 163.008852,161.326311 163.008852,161.326311 C161.214638,162.26126 157.532557,164.108667 149.683674,168.731681 C143.297148,172.490925 139.016497,177.244312 133.193334,179.318703 C132.306342,179.640088 131.601386,179.715007 130.993075,179.681296 C129.652846,179.565866 128.178504,179.383881 126.819541,179.302978 L126.819541,149.755652 C126.819541,146.657164 124.557113,145.411319 123.064785,145.411319 L123.064785,179.796675 C120.547646,181.130903 119.309298,182.788777 118.628312,184.338786 C118.628312,184.338786 113.829994,183.699008 113.967082,192.579451 C113.967082,190.224118 117.461874,186.10529 119.885394,186.10529 C119.885394,183.100438 128.705164,183.100438 132.681668,183.100438 L132.681668,183.100438 Z M212.947372,230.667866 C210.590526,230.667866 199.774276,231.125608 198.802624,221.704259 C196.412067,221.191097 193.621483,221.087703 190.690785,221.504237 C198.337385,236.097734 206.638009,236.214592 208.809793,236.326214 C212.189971,240.096712 211.057261,252.829304 206.174283,252.573097 C188.298749,251.620927 188.954252,262.496371 190.95675,264.7206 C190.95675,256.520378 196.531186,254.576326 210.613,254.576326 C210.613748,254.576326 222.123734,239.844993 212.947372,230.667866 L212.947372,230.667866 Z M216.623452,265.880289 L214.203689,265.880289 C213.999179,269.787127 217.866305,270.937075 217.866305,270.937075 C216.623452,269.69497 215.717726,266.79426 216.623452,265.880289 L216.623452,265.880289 Z M194.003541,271.380571 C192.974956,270.35049 192.127676,266.222652 193.621483,264.7206 L190.955985,264.7206 C190.733489,268.948075 194.003541,271.380571 194.003541,271.380571 L194.003541,271.380571 Z M247.36343,135.609408 C247.36343,123.125526 230.242305,125.086799 229.397252,134.672963 C230.152409,127.646659 241.591216,126.609829 241.591216,135.410882 C241.591216,144.505593 220.257593,150.4636 220.257593,165.834711 C220.257593,182.772304 237.19369,184.339534 235.480379,199.824511 C235.190461,202.504986 232.318209,206.008023 228.1604,206.008023 C219.24475,206.008023 214.472646,202.224044 211.701527,196.876592 C214.535563,204.446777 219.523431,210.249727 229.903682,210.249727 C240.659276,210.249727 241.635416,202.299711 241.635416,200.453052 C241.635416,184.949341 225.443239,181.263503 225.443239,166.529178 C225.444735,152.182164 247.36343,146.272097 247.36343,135.609408 L247.36343,135.609408 Z M121.114749,195.839014 C121.114749,200.619363 123.064785,202.473519 123.064785,202.473519 C123.064785,199.591526 124.249209,197.15529 124.926438,196.483297 C123.925563,195.47569 121.114749,195.839014 121.114749,195.839014 L121.114749,195.839014 Z M244.826061,169.417155 C240.480215,169.417155 236.921741,172.742644 236.547163,176.985096 C236.744941,175.967 237.423683,174.977362 238.748935,173.986993 C243.727793,170.286178 253.486252,177.740236 247.920061,185.443786 C250.979585,184.215162 253.128912,181.229792 253.128912,177.73126 C253.130612,173.143436 249.41312,169.417155 244.826061,169.417155 L244.826061,169.417155 Z M206.739142,265.880289 L203.836171,265.880289 C203.539504,271.401549 207.072512,272.232356 207.072512,272.232356 C205.573452,270.737801 205.323246,267.294689 206.739142,265.880289 L206.739142,265.880289 Z M124.7324,236.433348 C124.283668,236.433348 123.86489,236.525488 123.465594,236.67757 C122.085653,237.727881 121.244357,239.359541 121.294541,241.149267 C121.754527,242.621348 123.110498,243.68514 124.7324,243.68514 C126.735646,243.68514 128.357548,242.06249 128.357548,240.06074 C128.357548,238.056015 126.735646,236.433348 124.7324,236.433348 L124.7324,236.433348 Z M145.12509,263.244762 L140.929082,263.244762 C140.893042,269.969911 145.242713,271.189525 145.242713,271.189525 C144.01635,269.954934 142.459609,265.908764 145.125073,263.244762 L145.12509,263.244762 Z M158.137111,220.716134 C158.137111,205.333786 194.977437,203.528318 194.977437,190.855651 C194.977437,185.69474 190.52223,183.364125 187.354824,183.364125 C188.251557,184.262371 193.043126,194.566207 179.283445,194.566207 C166.840771,198.730748 139.745423,222.283364 158.552897,230.448362 C158.544397,232.815697 158.225511,250.441756 146.929793,249.056562 C130.657461,247.042844 126.597793,253.769489 129.721016,261.339674 C129.721016,249.853675 137.787142,251.98726 148.320971,251.98726 C154.908267,251.98726 164.538631,243.656682 164.538631,229.631036 C164.538631,229.631036 158.137111,227.17457 158.137111,220.716134 L158.137111,220.716134 Z M126.820289,230.143467 L126.820289,199.255912 C124.7324,199.255912 123.06555,202.475015 123.06555,202.475015 L123.06555,228.827208 L123.06555,228.658568 L120.783623,228.665368 L120.803173,231.992353 C122.55844,231.991605 126.820357,231.085879 126.820357,230.142702 L126.820289,230.143467 Z M133.161119,269.944445 C133.161119,269.944445 129.904548,264.827734 133.394104,261.339674 L129.721764,261.339674 C128.247439,267.730688 133.161119,269.944445 133.161119,269.944445 L133.161119,269.944445 Z M155.871674,263.311436 L152.826379,263.311436 C152.803089,268.058074 158.317668,269.855297 158.317668,269.855297 C156.374364,267.920986 155.043111,264.128014 155.871674,263.311436 L155.871674,263.311436 Z" id="path3473" fill="#6A7AB5" sketch:type="MSShapeGroup"></path>
                <path id="line3475" sketch:type="MSShapeGroup"></path>
                <path d="M53.432564,212.031157 L53.22955,211.407852 L53.14268,210.759098 C52.845265,208.537861 52.308116,204.400282 49.113731,203.660119 C48.259702,203.461593 47.377198,203.563559 46.435517,203.950785 C46.691724,202.967913 46.661753,202.077912 46.353067,201.262082 C45.175409,198.199549 41.006363,198.238513 38.766409,198.267719 L38.107897,198.267719 L37.459126,198.147869 C35.258867,197.742589 31.154268,196.976195 29.470163,199.787026 C29.017674,200.537678 28.837882,201.406684 28.915045,202.418796 C28.062512,201.868914 27.20323,201.622448 26.336468,201.664404 C23.058171,201.838943 21.804846,205.816943 21.134349,207.958025 L20.929839,208.579817 L20.625675,209.157426 C19.551394,211.129936 17.559385,214.786551 19.710956,217.263247 C20.285556,217.924751 21.058682,218.368247 22.046076,218.60198 C21.265453,219.248507 20.761267,219.987922 20.541015,220.833706 C19.684742,223.996641 23.084385,226.415656 24.90483,227.711685 L25.438987,228.105728 L25.898956,228.570967 C27.441468,230.203358 30.307719,233.223952 33.326052,231.945144 C34.124661,231.601285 34.786913,231.005707 35.317313,230.140441 C35.694883,231.084366 36.238016,231.784069 36.969934,232.266529 C39.719327,234.047262 43.06729,231.566078 44.868253,230.241574 L45.400897,229.851254 L45.991987,229.561336 C48.014698,228.592693 51.782935,226.804463 51.498253,223.537403 C51.422603,222.6609 51.056253,221.856307 50.40075,221.085425 C51.409853,221.025585 52.2444,220.71984 52.921646,220.170706 C55.474757,218.1083 54.145748,214.156514 53.432564,212.031174" id="path3477" fill="#FFFFFF" sketch:type="MSShapeGroup"></path>
                <path d="M39.071304,214.680913 C57.41206,225.52115 51.763453,213.600631 51.3604,211.837867 C50.954372,210.081104 50.800046,196.895275 39.071304,214.680913" id="path3479" fill="#ED1C24" sketch:type="MSShapeGroup"></path>
                <path d="M37.918364,217.394334 C33.276616,238.178823 42.868016,229.130556 44.415016,228.209105 C45.961268,227.279409 58.454126,223.054178 37.918364,217.394334" id="path3481" fill="#ED1C24" sketch:type="MSShapeGroup"></path>
                <path d="M34.973437,217.142615 C13.763438,219.144348 25.340098,225.473941 26.699809,226.656104 C28.06326,227.834527 35.9346,238.416313 34.973437,217.142615" id="path3483" fill="#ED1C24" sketch:type="MSShapeGroup"></path>
                <path d="M34.308193,214.256134 C25.842771,194.707001 23.401282,207.670334 22.696326,209.335705 C21.991387,210.98683 14.359764,221.749904 34.308193,214.256134" id="path3485" fill="#ED1C24" sketch:type="MSShapeGroup"></path>
                <path d="M337.25875,209.158905 L336.956082,208.581313 L336.748563,207.959504 C336.078083,205.817674 334.824741,201.840439 331.555437,201.665135 C330.678934,201.623995 329.824157,201.868149 328.971624,202.412778 C329.049484,201.407415 328.859254,200.538409 328.41875,199.787757 C326.727148,196.97543 322.62855,197.742572 320.428274,198.147852 L319.772771,198.267702 L319.117268,198.267702 C316.885542,198.238462 312.712756,198.200212 311.539586,201.262813 C311.220445,202.077895 311.197223,202.968644 311.447446,203.950768 C310.519994,203.564222 309.635994,203.46382 308.775964,203.66085 C305.584571,204.399517 305.036185,208.537844 304.753764,210.759081 L304.655674,211.408583 L304.457896,212.031888 C303.740955,214.15648 302.416451,218.108266 304.968814,220.172933 C305.64606,220.721302 306.474623,221.02771 307.489727,221.087635 C306.834207,221.858517 306.468622,222.663858 306.392207,223.539613 C306.109786,226.806673 309.872022,228.594903 311.89849,229.563546 L312.483562,229.853481 L313.016223,230.243784 C314.82317,231.569784 318.174125,234.049472 320.914525,232.268739 C321.656201,231.786296 322.194829,231.086576 322.567911,230.142651 C323.102051,231.007917 323.757571,231.603495 324.56366,231.948102 C327.580497,233.226162 330.44974,230.205568 331.990756,228.573177 L332.454482,228.108703 L332.981125,227.713895 C334.807571,226.418614 338.20497,223.998851 337.351689,220.836681 C337.123192,219.988636 336.628764,219.250717 335.842888,218.604207 C336.826525,218.369709 337.601912,217.926961 338.173503,217.265457 C340.328814,214.788013 338.339763,211.132146 337.258801,209.158888" id="path3487" fill="#FFFFFF" sketch:type="MSShapeGroup"></path>
                <path d="M321.04483,212.739853 C305.072905,198.649046 318.150852,200.33089 319.948823,200.172824 C321.738549,200.022204 334.334053,196.089186 321.04483,212.739853" id="path3489" fill="#ED1C24" sketch:type="MSShapeGroup"></path>
                <path d="M318.821349,214.680913 C300.480593,225.52115 306.117963,213.600631 306.529261,211.837867 C306.931549,210.081104 307.083631,196.895275 318.821349,214.680913" id="path3491" fill="#ED1C24" sketch:type="MSShapeGroup"></path>
                <path d="M319.969801,217.394334 C324.613793,238.178823 315.021645,229.130556 313.471653,228.209105 C311.926897,227.279409 299.438527,223.054178 319.969801,217.394334" id="path3493" fill="#ED1C24" sketch:type="MSShapeGroup"></path>
                <path d="M322.910971,217.142615 C344.121735,219.144348 332.55332,225.473941 331.188356,226.656104 C329.83315,227.834527 321.950556,238.416313 322.910971,217.142615" id="path3495" fill="#ED1C24" sketch:type="MSShapeGroup"></path>
                <path d="M323.571727,214.256134 C332.042385,194.707001 334.478638,207.670334 335.186586,209.335705 C335.887785,210.98683 343.519408,221.749904 323.571727,214.256134" id="path3497" fill="#ED1C24" sketch:type="MSShapeGroup"></path>
                <path d="M327.692068,214.865941 C327.671838,214.69589 327.617098,214.543808 327.593978,214.378993 C329.2968,213.127912 331.136727,211.787683 331.136727,211.787683 L330.959927,211.391379 C330.959927,211.391379 328.813592,211.765957 326.754926,212.124793 C325.721836,210.431712 323.960585,209.28326 321.943875,209.086978 C321.303349,207.16166 320.663571,205.200387 320.663571,205.200387 L320.23206,205.237107 C320.23206,205.237107 319.942125,207.280796 319.649963,209.282529 C318.410867,209.617395 317.29837,210.318611 316.452586,211.322478 C316.001593,211.863367 315.675703,212.475418 315.416504,213.114448 C313.342844,213.114448 311.151578,213.121248 311.151578,213.121248 L311.059438,213.548271 C311.059438,213.548271 313.102362,214.543893 314.989481,215.467605 C314.996281,215.6399 314.974181,215.809968 314.989481,215.983776 C315.134151,217.646138 315.912445,219.138449 317.168014,220.226976 C316.505014,222.299123 315.758867,224.614761 315.758867,224.614761 L316.124452,224.835761 C316.124452,224.835761 317.84526,223.053515 319.377266,221.480301 C320.177371,221.743257 321.029156,221.846634 321.889934,221.770219 C322.757444,221.704259 323.580023,221.444346 324.32617,221.057035 C326.102415,222.335826 328.105644,223.784685 328.105644,223.784685 L328.433778,223.502264 C328.433778,223.502264 327.298059,221.355946 326.285964,219.434368 C327.335527,218.138322 327.829955,216.5239 327.692119,214.865278" id="path3499" fill="#FFFFFF" sketch:type="MSShapeGroup"></path>
                <path d="M321.012615,211.674548 C320.007252,211.752408 319.101526,212.227439 318.455016,213.004305 C317.808489,213.774439 317.495349,214.747587 317.587489,215.747697 C317.762793,217.818348 319.596719,219.357868 321.661386,219.175067 C322.674246,219.082927 323.572475,218.610208 324.227978,217.843083 C324.868504,217.0662 325.180148,216.099053 325.095505,215.092194 C324.914948,213.020778 323.078778,211.487276 321.012615,211.674548" id="path3501" fill="#ED1C24" sketch:type="MSShapeGroup"></path>
                <path d="M36.843335,212.739853 C52.820513,198.649046 39.735052,200.33089 37.942334,200.172824 C36.143615,200.022204 23.550372,196.089186 36.843335,212.739853" id="path3503" fill="#ED1C24" sketch:type="MSShapeGroup"></path>
                <path d="M42.891986,215.46752 C44.792586,214.544556 46.825786,213.547438 46.825786,213.547438 L46.730586,213.120415 C46.730586,213.120415 44.543825,213.113615 42.464912,213.113615 C42.21321,212.475333 41.885824,211.862517 41.432587,211.322393 C40.587534,210.318526 39.475802,209.618058 38.233697,209.281696 C37.949032,207.278467 37.659097,205.237022 37.659097,205.237022 L37.220106,205.200302 C37.220106,205.200302 36.584068,207.160079 35.953283,209.086893 C33.923823,209.283175 32.160328,210.431627 31.128734,212.124708 C29.078313,211.765872 26.919262,211.391294 26.919262,211.391294 L26.753002,211.787598 C26.753002,211.787598 28.588441,213.127827 30.290515,214.378908 C30.262805,214.544488 30.213335,214.696553 30.195315,214.865108 C30.054555,216.532723 30.560152,218.138152 31.608219,219.434198 C30.587879,221.354263 29.45216,223.502094 29.45216,223.502094 L29.788522,223.784515 C29.788522,223.784515 31.788011,222.335656 33.56276,221.056848 C34.308907,221.44642 35.130738,221.696626 35.996004,221.770049 C36.863514,221.847909 37.713055,221.743019 38.51316,221.480131 C40.040678,223.054093 41.759242,224.835574 41.759242,224.835574 L42.136064,224.614574 C42.136064,224.614574 41.388404,222.297457 40.721664,220.23279 C41.974989,219.136783 42.752603,217.644472 42.900197,215.982093 C42.918217,215.809798 42.891697,215.640478 42.891697,215.468183" id="path3505" fill="#FFFFFF" sketch:type="MSShapeGroup"></path>
                <path d="M39.434645,213.005053 C38.785874,212.228187 37.884653,211.751711 36.874785,211.675313 C34.810883,211.488024 32.974713,213.021526 32.794904,215.09369 C32.709564,216.100549 33.020409,217.067713 33.660935,217.844579 C34.308193,218.611704 35.218424,219.084423 36.223039,219.176563 C38.286941,219.359364 40.122363,217.819113 40.301424,215.749193 C40.386084,214.748335 40.077415,213.775187 39.434645,213.005053" id="path3507" fill="#ED1C24" sketch:type="MSShapeGroup"></path>
                <path d="M39.178438,124.104624 C30.24929,122.527653 21.699208,128.521615 20.121489,137.450763 C18.546031,146.385912 24.533261,154.935246 33.463157,156.5122 C42.40055,158.088423 50.954372,152.097453 52.526838,143.1638 C54.107549,134.233156 48.116579,125.683839 39.178438,124.104624" id="path3509" fill="#FFFFFF" sketch:type="MSShapeGroup"></path>
                <path d="M42.903223,136.549542 C42.758723,136.461142 42.506919,136.297823 42.202024,136.096305 C40.852785,135.201816 38.207534,133.45255 38.134876,133.400105 C37.768526,133.148386 37.411934,132.908652 37.060578,132.671927 C35.884416,131.883824 34.832609,131.19835 33.843719,130.62749 C33.462409,130.410978 33.093815,130.208712 32.722994,130.027424 C31.150511,129.234068 29.643223,128.7546 27.863986,128.59803 C26.49229,129.588416 25.301882,130.814779 24.337727,132.232171 C28.428845,133.709505 32.423335,136.075327 40.740415,141.241474 C41.216126,140.141727 42.808074,136.755548 42.903223,136.549542" id="path3511" fill="#ED1C24" sketch:type="MSShapeGroup"></path>
                <path d="M39.068312,145.368564 C39.234572,144.954274 39.965793,143.103875 40.264704,142.391439 C31.741601,137.097163 27.783831,134.754563 23.68372,133.304956 C23.047682,134.446676 22.571223,135.692504 22.260327,137.018504 C24.600683,140.231623 30.872578,143.388557 39.068312,145.368564" id="path3513" fill="#ED1C24" sketch:type="MSShapeGroup"></path>
                <path d="M38.145348,131.914526 C41.336741,130.026676 44.962637,130.540586 47.761483,131.495748 C46.717904,130.148039 45.45409,128.970364 43.984253,128.053401 C41.340498,127.527489 37.689119,127.44509 34.782408,129.755475 C35.839468,130.376519 36.930987,131.100957 38.145348,131.914526" id="path3515" fill="#ED1C24" sketch:type="MSShapeGroup"></path>
                <path d="M25.41126,147.162778 C25.838283,147.455705 26.275778,147.734386 26.741,147.995846 C27.680437,148.515009 28.697785,148.963741 29.748861,149.34806 C30.194601,149.5167 30.647838,149.673185 31.104815,149.820779 C32.703512,150.346674 36.372112,151.299609 36.645557,151.363274 C36.701827,151.222514 38.07643,147.822786 38.597837,146.531245 C32.243526,144.955039 25.285409,142.196653 21.979385,138.609704 C21.780876,140.266082 21.858005,141.904474 22.207882,143.458223 C22.905341,144.977513 24.025335,146.188134 25.41126,147.162778" id="path3517" fill="#ED1C24" sketch:type="MSShapeGroup"></path>
                <path d="M36.859808,152.691535 L35.533808,152.34992 C34.304453,152.037511 32.971704,151.687668 31.616498,151.271882 C32.277237,152.680298 33.317076,153.777801 34.425816,154.627342 C35.911378,154.824372 37.377475,154.786972 38.786639,154.543362 C37.768526,153.751519 36.859808,152.691467 36.859808,152.691467" id="path3519" fill="#ED1C24" sketch:type="MSShapeGroup"></path>
                <path d="M50.149779,136.112778 C49.847876,135.126149 49.451572,134.170239 48.953387,133.27949 C46.448216,132.162505 42.632787,131.070986 39.300549,132.70115 L43.896601,135.735956 C44.854772,135.650616 45.736511,135.624266 46.543348,135.643816 C46.983852,135.650616 47.392889,135.674586 47.783957,135.712666 C48.683682,135.792056 49.451572,135.936658 50.149779,136.11271" id="path3521" fill="#ED1C24" sketch:type="MSShapeGroup"></path>
                <path d="M47.79669,136.953326 C47.66256,144.50629 44.101876,150.331697 41.033342,153.976327 C45.836148,152.307216 49.623867,148.168141 50.568557,142.821437 C50.892186,140.99426 50.835253,139.197037 50.496647,137.486735 C49.7505,137.254498 48.858255,137.06046 47.796707,136.953326" id="path3523" fill="#ED1C24" sketch:type="MSShapeGroup"></path>
                <path d="M33.634704,129.115697 C35.785527,127.219585 38.325905,126.579076 40.668505,126.526631 C40.073675,126.33635 39.467608,126.172283 38.836075,126.065149 C35.495609,125.475572 32.227801,126.096599 29.452194,127.600164 C30.930276,127.889334 32.266,128.407749 33.634704,129.115697" id="path3525" fill="#ED1C24" sketch:type="MSShapeGroup"></path>
                <path d="M44.071905,136.960823 C42.97889,139.237497 42.33612,140.631667 41.802711,141.899986 C41.638661,142.284305 41.479082,142.657387 41.318024,143.045446 C41.063313,143.681467 40.278185,145.658482 40.278185,145.658482 L39.809971,146.818919 L37.780511,151.846482 C38.340134,152.588889 39.018111,153.194208 39.684868,153.666927 C42.700209,150.227572 46.452704,144.447113 46.567335,136.880668 C45.808438,136.853638 44.973874,136.881416 44.071905,136.960738" id="path3527" fill="#ED1C24" sketch:type="MSShapeGroup"></path>
                <path d="M30.095712,150.772201 C29.0836,150.423837 28.073001,150.026785 27.118587,149.561563 C27.475179,150.662823 27.989089,151.640476 28.506756,152.479511 C29.589282,153.173978 30.777446,153.721616 32.045748,154.112667 C31.223934,153.186711 30.51449,152.091452 30.095712,150.772201" id="path3529" fill="#ED1C24" sketch:type="MSShapeGroup"></path>
                <path d="M25.629268,148.747994 C24.943046,148.336713 24.304764,147.878971 23.713674,147.376298 C24.382675,148.57269 25.225467,149.669445 26.20312,150.631356 C25.970883,150.03129 25.767104,149.410246 25.629268,148.747994" id="path3531" fill="#ED1C24" sketch:type="MSShapeGroup"></path>
                <path d="M303.577585,143.164548 C305.156052,152.098201 313.703142,158.089171 322.635282,156.512948 C331.569683,154.936742 337.5554,146.38666 335.986674,137.451511 C334.40972,128.522363 325.858142,122.528401 316.922993,124.105372 C307.989357,125.683839 302.002875,134.233156 303.577585,143.164548" id="path3533" fill="#FFFFFF" sketch:type="MSShapeGroup"></path>
                <path d="M313.199704,136.549542 C313.341314,136.461142 313.594512,136.297823 313.906156,136.096305 C315.256874,135.201816 317.897637,133.45255 317.965076,133.400105 C318.339637,133.148386 318.696994,132.908652 319.047585,132.671927 C320.211031,131.883824 321.271831,131.19835 322.2622,130.62749 C322.642779,130.410978 323.015861,130.208712 323.37995,130.027424 C324.948676,129.234068 326.464209,128.7546 328.240437,128.59803 C329.611385,129.588416 330.807046,130.814779 331.75772,132.232171 C327.669594,133.709505 323.687089,136.075327 315.35952,141.241474 C314.882313,140.141727 313.297845,136.755548 313.199704,136.549542" id="path3535" fill="#ED1C24" sketch:type="MSShapeGroup"></path>
                <path d="M317.037624,145.368564 C316.868984,144.954274 316.131898,143.103875 315.84946,142.391439 C324.35609,137.097163 328.325845,134.754563 332.422964,133.304956 C333.055245,134.446676 333.534713,135.692504 333.846357,137.018504 C331.502261,140.231623 325.231097,143.388557 317.037624,145.368564" id="path3537" fill="#ED1C24" sketch:type="MSShapeGroup"></path>
                <path d="M317.960571,131.914526 C314.766186,130.026676 311.143282,130.540586 308.339948,131.495748 C309.385023,130.148039 310.656334,128.970364 312.125423,128.053401 C314.766186,127.527489 318.415304,127.44509 321.318275,129.755475 C320.26946,130.376519 319.170461,131.100957 317.960571,131.914526" id="path3539" fill="#ED1C24" sketch:type="MSShapeGroup"></path>
                <path d="M330.686431,147.162778 C330.269149,147.455705 329.83315,147.734386 329.359683,147.995846 C328.424734,148.515009 327.408882,148.963741 326.360067,149.34806 C325.910587,149.5167 325.454341,149.673185 324.998112,149.820779 C323.40766,150.346674 319.73532,151.299609 319.459631,151.363274 C319.398261,151.222514 318.019748,147.822786 317.50883,146.531245 C323.860897,144.955039 330.813778,142.196653 334.129526,138.609704 C334.327304,140.266082 334.241896,141.904474 333.898037,143.458223 C333.198334,144.977513 332.080601,146.188134 330.686431,147.162778" id="path3541" fill="#ED1C24" sketch:type="MSShapeGroup"></path>
                <path d="M319.248372,152.691535 L320.565379,152.34992 C321.798474,152.037511 323.139468,151.687668 324.495439,151.271882 C323.824942,152.680298 322.789608,153.777801 321.683112,154.627342 C320.199794,154.824372 318.729209,154.786972 317.327542,154.543362 C318.333653,153.751519 319.248372,152.691467 319.248372,152.691467" id="path3543" fill="#ED1C24" sketch:type="MSShapeGroup"></path>
                <path d="M305.955409,136.112778 C306.259556,135.126149 306.649111,134.170239 307.159298,133.27949 C309.656972,132.162505 313.464156,131.070986 316.798638,132.70115 L312.207074,135.735956 C311.247424,135.650616 310.366416,135.624266 309.557335,135.643816 C309.122815,135.650616 308.711534,135.674586 308.31523,135.712666 C307.417001,135.792056 306.657356,135.936658 305.955409,136.11271" id="path3545" fill="#ED1C24" sketch:type="MSShapeGroup"></path>
                <path d="M308.309246,136.953326 C308.439636,144.50629 312.009313,150.331697 315.080839,153.976327 C310.265283,152.307216 306.473076,148.168141 305.538127,142.821437 C305.21749,140.99426 305.263186,139.197037 305.613097,137.486735 C306.35326,137.254498 307.251489,137.06046 308.309297,136.953326" id="path3547" fill="#ED1C24" sketch:type="MSShapeGroup"></path>
                <path d="M322.474972,129.115697 C320.322653,127.219585 317.777039,126.579076 315.438179,126.526631 C316.030748,126.33635 316.633823,126.172283 317.271357,126.065149 C320.608831,125.475572 323.875874,126.096599 326.65075,127.600164 C325.178652,127.889334 323.839919,128.407749 322.474972,129.115697" id="path3549" fill="#ED1C24" sketch:type="MSShapeGroup"></path>
                <path d="M312.034779,136.960823 C313.130786,139.237497 313.761571,140.631667 314.312949,141.899986 C314.471049,142.284305 314.623097,142.657387 314.784172,143.045446 C315.043371,143.681467 315.827734,145.658482 315.827734,145.658482 L316.292956,146.818919 L318.326904,151.846482 C317.763541,152.588889 317.0908,153.194208 316.421816,153.666927 C313.407971,150.227572 309.648727,144.447113 309.543089,136.880668 C310.298246,136.853638 311.13655,136.881416 312.034779,136.960738" id="path3551" fill="#ED1C24" sketch:type="MSShapeGroup"></path>
                <path d="M326.010972,150.772201 C327.023815,150.423837 328.026934,150.026785 328.990341,149.561563 C328.62326,150.662823 328.119839,151.640476 327.594675,152.479511 C326.513645,153.173978 325.325498,153.721616 324.062415,154.112667 C324.88275,153.186711 325.591446,152.091452 326.010972,150.772201" id="path3553" fill="#ED1C24" sketch:type="MSShapeGroup"></path>
                <path d="M330.481156,148.747994 C331.158385,148.336713 331.798163,147.878971 332.392245,147.376298 C331.721748,148.57269 330.884957,149.669445 329.903564,150.631356 C330.131313,150.03129 330.336571,149.410246 330.481156,148.747994" id="path3555" fill="#ED1C24" sketch:type="MSShapeGroup"></path>
            </g>
        </g>
    </g>
</svg>