<?xml version="1.0" encoding="UTF-8" standalone="no"?>
<svg width="512px" height="512px" viewBox="0 0 512 512" version="1.1" xmlns="http://www.w3.org/2000/svg" xmlns:xlink="http://www.w3.org/1999/xlink" xmlns:sketch="http://www.bohemiancoding.com/sketch/ns">
    <!-- Generator: Sketch 3.3.1 (12002) - http://www.bohemiancoding.com/sketch -->
    <title>everton</title>
    <desc>Created with Sketch.</desc>
    <defs></defs>
    <g id="EPL" stroke="none" stroke-width="1" fill="none" fill-rule="evenodd" sketch:type="MSPage">
        <g id="everton" sketch:type="MSArtboardGroup">
            <g sketch:type="MSLayerGroup" transform="translate(28.000000, 51.000000)" id="g3349">
                <g transform="translate(228.182761, 205.208892) scale(1, -1) translate(-228.182761, -205.208892) translate(0.331909, 0.857627)" sketch:type="MSShapeGroup">
                    <g id="g5807" transform="translate(0.502246, 19.067595)" fill="#FFFFFF">
                        <path d="M389.488636,129.746835 C389.423722,129.941456 389.293892,130.071203 389.099148,130.071203 L368.196591,138.115506 C368.58608,139.607595 369.365057,141.618671 370.793182,143.69462 L381.569034,138.958861 C381.958523,138.764241 382.283097,138.699367 382.672585,138.699367 C383.646307,138.699367 384.555114,139.218354 385.074432,140.061709 C385.334091,140.515823 386.177983,141.878165 386.892045,143.629747 C387.930682,146.419304 388.190341,148.949367 387.541193,151.025316 C386.892045,153.231013 385.334091,154.917722 382.997159,155.955696 L354.239915,169.125 C354.239915,169.125 354.110085,169.189873 354.04517,169.254747 L354.04517,169.254747 C352.941619,169.708861 350.864347,170.292722 348.33267,169.449367 L348.33267,172.174051 C348.33267,174.379747 348.267756,176.71519 348.137926,179.050633 C348.008097,181.450949 347.813352,183.916139 347.553693,186.446203 C345.865909,200.977848 342.490341,211.681962 341.127131,215.574367 L340.607812,216.871835 C334.960227,232.571203 330.546023,245.026899 330.675852,259.882911 C330.740767,271.106013 344.762358,286.80538 350.150284,291.93038 L355.213636,296.731013 L302.048437,345.191456 L297.828977,342.401899 C288.091761,335.97943 275.498295,332.476266 262.320597,332.476266 C248.558665,332.476266 235.445881,336.303797 225.578835,343.245253 L221.878693,345.84019 L218.178551,343.245253 C208.246591,336.303797 195.198722,332.476266 181.43679,332.476266 C168.259091,332.476266 155.665625,335.97943 145.928409,342.401899 L141.708949,345.191456 L93.672017,301.401899 L88.54375,296.731013 L93.5421875,291.93038 C98.9301136,286.80538 112.951705,271.106013 113.081534,259.882911 C113.146449,245.026899 108.732244,232.571203 103.084659,216.871835 L102.630256,215.574367 C101.267045,211.681962 97.8265625,200.977848 96.2036932,186.446203 C95.9440341,183.916139 95.7492898,181.450949 95.6194602,179.050633 C95.4896307,176.71519 95.3598011,174.379747 95.3598011,172.174051 C95.3598011,171.265823 95.3598011,170.357595 95.4247159,169.449367 C92.8930398,170.292722 90.815767,169.708861 89.7771307,169.254747 L89.7122159,169.254747 C89.6473011,169.189873 89.5823864,169.125 89.5174716,169.125 L60.7602273,155.955696 C58.4232955,154.917722 56.8653409,153.231013 56.2161932,151.025316 C55.5670455,148.949367 55.8267045,146.419304 56.8653409,143.629747 C57.5794034,141.878165 58.4232955,140.515823 58.7478693,140.061709 C59.2022727,139.218354 60.1110795,138.699367 61.0848011,138.699367 C61.4742898,138.699367 61.7988636,138.764241 62.1883523,138.958861 L72.9642045,143.69462 C74.3923295,141.618671 75.106392,139.607595 75.5607955,138.115506 L54.6582386,130.071203 C54.4634943,130.071203 54.3336648,129.941456 54.26875,129.746835 C54.2038352,129.552215 54.2038352,129.422468 54.26875,129.227848 L55.5021307,126.049051 C68.55,93.4825949 90.7508523,65.5221519 119.637926,45.4113924 C146.512642,26.7278481 177.996307,15.7642405 210.648437,13.7531646 L221.42429,3.11392405 C221.554119,2.98417722 221.683949,2.9193038 221.878693,2.9193038 C222.008523,2.9193038 222.203267,2.98417722 222.333097,3.11392405 L233.108949,13.7531646 C265.76108,15.7642405 297.244744,26.7278481 324.054545,45.4113924 C353.006534,65.5221519 375.207386,93.4825949 388.255256,126.049051 L389.488636,129.227848 C389.553551,129.422468 389.553551,129.552215 389.488636,129.746835" id="path5809"></path>
                    </g>
                    <g id="g5811" transform="translate(22.910825, 108.573449)" fill="#274488">
                        <path d="M64.9147727,64.8734177 C63.8761364,67.5981013 63.5515625,70.3876582 63.9410511,72.8528481 C64.0059659,72.9825949 64.0059659,73.1772152 64.0708807,73.3718354 L64.3305398,74.6693038 L39.7278409,63.3813291 C38.2997159,62.7325949 37.3909091,61.8243671 37.0663352,60.5917722 C36.287358,57.9968354 37.9102273,54.6234177 38.6242898,53.2610759 L38.9488636,52.7420886 L65.1744318,64.289557 L64.9147727,64.8734177 L64.9147727,64.8734177 Z" id="path5813"></path>
                    </g>
                    <g id="g5815" transform="translate(292.027998, 108.573449)" fill="#274488">
                        <path d="M64.9147727,64.8734177 C65.9534091,67.5981013 66.277983,70.3876582 65.8884943,72.8528481 C65.8235795,72.9825949 65.8235795,73.1772152 65.7586648,73.3718354 L65.4340909,74.6693038 L90.1017045,63.3813291 C91.5298295,62.7325949 92.4386364,61.8243671 92.7632102,60.5917722 C93.5421875,57.9968354 91.9193182,54.6234177 91.2052557,53.2610759 L90.8806818,52.7420886 L64.6551136,64.289557 L64.9147727,64.8734177 L64.9147727,64.8734177 Z" id="path5817"></path>
                    </g>
                    <g id="g5819" transform="translate(72.512203, 15.531994)" fill="#274488">
                        <path d="M64.9147727,64.8734177 L61.0848011,61.8243671 L64.3954545,59.6835443 L65.69375,64.3544304 C65.8235795,64.9382911 65.9534091,65.3924051 66.0832386,65.7816456 L66.0832386,65.7816456 C65.69375,65.5221519 65.3042614,65.1977848 64.9147727,64.8734177" id="path5821"></path>
                    </g>
                    <g id="g5823" transform="translate(206.074348, 0.980886)" fill="#274488">
                        <path d="M64.9147727,64.8734177 C62.9673295,64.2246835 62.1883523,62.0189873 63.3568182,58.710443 C64.5252841,55.1424051 66.277983,54.039557 68.4201705,54.7531646 C70.4325284,55.4018987 71.2115057,57.4129747 69.978125,60.9161392 C68.8096591,64.5490506 67.0569602,65.5870253 64.9147727,64.8734177" id="path5825"></path>
                    </g>
                    <g id="g5827" transform="translate(221.212473, 6.858418)" fill="#274488">
                        <path d="M64.9147727,64.8734177 L63.8761364,64.3544304 L66.0183239,59.7484177 C66.3428977,59.8132911 67.0569602,60.1376582 67.2517045,60.2674051 C68.8096591,60.9810127 69.3289773,62.1487342 68.6149148,63.7056962 C67.8359375,65.3924051 66.537642,65.6518987 64.9147727,64.8734177" id="path5829"></path>
                    </g>
                    <g id="g5831" transform="translate(185.710584, 141.788639)" fill="#274488">
                        <path d="M64.9147727,64.8734177 C64.9147727,64.9382911 61.8637784,65.7816456 59.6566761,66.1708861 C56.9302557,66.625 55.3073864,66.6898734 54.7880682,66.7547468 C54.2038352,66.8844937 52.7107955,66.8844937 52.7757102,67.7278481 C52.7757102,68.3117089 53.424858,68.4414557 54.0740057,68.5063291 C55.0477273,68.5712025 57.5794034,68.3117089 59.0724432,68.1170886 C62.6427557,67.5981013 64.9147727,66.8844937 64.9147727,67.0142405 L64.9147727,71.4905063 C64.9147727,71.6202532 59.9163352,73.306962 54.5284091,73.8908228 C50.8931818,74.2151899 49.2053977,74.1503165 47.0632102,74.2151899 C46.6737216,74.2151899 45.8298295,74.085443 45.8298295,74.7990506 C45.8298295,75.5126582 46.6088068,75.5775316 46.8684659,75.6424051 C49.5948864,75.9018987 53.1002841,75.9667722 56.7355114,75.7072785 C60.7602273,75.4477848 64.849858,74.0205696 64.849858,74.1503165 L64.849858,78.9509494 C63.2919034,79.664557 61.0198864,80.3781646 59.137358,80.7025316 C56.7355114,81.0917722 53.5546875,81.2863924 53.1002841,81.2863924 C52.6458807,81.2863924 52.4511364,81.5458861 52.3862216,81.7405063 C52.3213068,82.0648734 52.5160511,82.3243671 52.9704545,82.4541139 C53.684517,82.5838608 55.4372159,82.6487342 57.5794034,82.5838608 C59.137358,82.5189873 62.9024148,82.1297468 64.7849432,81.8702532 L64.7200284,85.568038 C61.1497159,87.4493671 55.6319602,88.3575949 52.0616477,88.8765823 C46.6737216,89.7199367 41.7401989,89.8496835 40.8963068,89.8496835 C40.4419034,89.914557 39.9875,89.914557 39.9225852,90.3686709 C39.9225852,90.7579114 40.1822443,91.0822785 40.8963068,91.0822785 C41.5454545,91.0822785 45.7649148,91.2120253 52.3862216,90.6281646 C55.5670455,90.3686709 61.8637784,89.1360759 64.7200284,88.5522152 L64.6551136,92.1851266 C61.4742898,93.7420886 56.4758523,94.9098101 49.2703125,95.9477848 C40.4419034,97.2452532 23.5640625,96.6613924 22.6552557,96.5316456 C21.421875,96.4667722 21.2271307,96.7262658 21.1622159,97.1803797 C21.0973011,97.6344937 21.5517045,97.8939873 22.4605114,98.0886076 C23.3693182,98.2183544 34.9241477,99.3212025 44.271875,98.8670886 C51.3475852,98.5427215 61.5392045,96.5316456 64.6551136,95.9477848 L64.5901989,98.8022152 C59.2671875,102.435127 50.5036932,102.824367 49.9194602,102.824367 C49.3352273,102.889241 48.9457386,103.148734 48.8808239,103.473101 C48.8159091,103.797468 49.2053977,104.056962 49.6598011,104.121835 C50.1142045,104.186709 51.4125,104.316456 54.1389205,104.121835 C56.3460227,103.992089 62.253267,102.759494 64.5901989,102.240506 L64.5252841,105.094937 C60.565483,107.43038 51.4125,108.792722 44.3367898,109.441456 C44.3367898,109.441456 43.4928977,109.506329 41.9349432,109.571203 L41.8051136,107.689873 C41.8051136,107.106013 41.3507102,106.716772 40.7664773,106.716772 C36.6119318,106.911392 35.118892,106.911392 30.9643466,106.716772 L30.8994318,106.716772 C30.3801136,106.716772 29.9257102,107.106013 29.9257102,107.689873 L29.7958807,109.571203 C26.0308239,109.441456 21.6166193,109.117089 16.6830966,108.598101 C15.9690341,108.533228 15.2549716,108.338608 15.1900568,108.857595 C15.0602273,109.181962 15.2549716,109.441456 16.1637784,109.700949 C16.8778409,109.830696 26.6799716,111.193038 29.146733,111.452532 L29.6660511,111.452532 L29.0169034,123.518987 C29.0169034,123.778481 29.146733,124.037975 29.2765625,124.297468 C29.4713068,124.492089 29.7309659,124.621835 29.990625,124.621835 C35.0539773,124.816456 36.8066761,124.816456 41.7401989,124.621835 C41.999858,124.621835 42.259517,124.492089 42.4542614,124.297468 C42.5840909,124.102848 42.7139205,123.843354 42.7139205,123.648734 C44.9859375,123.583861 47.2579545,123.454114 49.0755682,123.324367 C52.9055398,123.129747 61.9286932,121.832278 64.3305398,121.507911 L64.3305398,124.297468 C63.8761364,124.621835 63.2269886,124.816456 62.7076705,125.075949 C60.1759943,126.049051 50.3738636,127.735759 36.4171875,127.735759 C22.3955966,127.735759 14.0215909,125.919304 12.7232955,125.594937 C11.2951705,125.205696 9.73721591,124.686709 9.80213068,123.778481 L9.996875,92.1851266 C9.80213068,90.0443038 10.0617898,81.5458861 10.1267045,79.5348101 C10.1916193,76.2262658 15.3848011,74.1503165 26.7448864,70.193038 C38.6242898,65.846519 53.6196023,61.1756329 64.9147727,58.0617089 L64.9147727,64.8734177" id="path5833"></path>
                    </g>
                    <g id="g5835" transform="translate(175.746166, 135.236424)" fill="#274488">
                        <path d="M64.9147727,64.8734177 C62.6427557,65.5221519 61.4742898,65.9113924 59.2022727,66.625 C58.9426136,66.6898734 58.7478693,66.5601266 58.7478693,66.3006329 L58.7478693,56.4398734 C58.7478693,56.1803797 58.9426136,55.9857595 59.137358,55.8560127 C61.409375,55.0775316 62.5778409,54.6882911 64.9147727,53.9098101 C65.109517,53.7800633 65.3042614,53.9746835 65.3042614,54.1693038 L65.3042614,64.289557 C65.3042614,64.5490506 65.109517,64.8085443 64.9147727,64.8734177" id="path5837"></path>
                    </g>
                    <g id="g5839" transform="translate(166.158254, 138.162215)" fill="#274488">
                        <path d="M64.9147727,64.8734177 C62.5778409,65.5870253 61.4742898,65.9113924 59.137358,66.6898734 C58.9426136,66.7547468 58.7478693,66.625 58.7478693,66.4303797 L58.7478693,56.8291139 C58.7478693,56.6344937 58.9426136,56.375 59.137358,56.3101266 C61.409375,55.5316456 62.5778409,55.0775316 64.9147727,54.2990506 C65.109517,54.2341772 65.3042614,54.2990506 65.3042614,54.5585443 L65.3042614,64.3544304 C65.3042614,64.5490506 65.109517,64.8085443 64.9147727,64.8734177" id="path5841"></path>
                    </g>
                    <g id="g5843" transform="translate(146.911024, 144.506835)" fill="#274488">
                        <path d="M64.9147727,64.8734177 C62.5778409,65.6518987 61.4742898,66.0411392 59.137358,66.9493671 C58.9426136,67.0142405 58.7478693,66.8844937 58.7478693,66.6898734 L58.7478693,57.2832278 C58.7478693,57.0886076 58.9426136,56.8291139 59.137358,56.7642405 C61.409375,55.9857595 62.5778409,55.5316456 64.9147727,54.6882911 C65.109517,54.6234177 65.3042614,54.7531646 65.3042614,54.9477848 L65.3042614,64.3544304 C65.3042614,64.5490506 65.109517,64.7436709 64.9147727,64.8734177" id="path5845"></path>
                    </g>
                    <g id="g5847" transform="translate(179.874746, 214.018703)" fill="#274488">
                        <path d="M64.9147727,64.8734177 C64.7200284,65.1977848 64.5901989,65.5870253 64.3305398,66.1060127 C62.0585227,66.9493671 56.3460227,68.3765823 52.256392,68.7658228 C51.4774148,68.8306962 50.3089489,68.8955696 50.3089489,69.4794304 C50.3089489,69.9984177 50.7633523,70.193038 52.0616477,70.193038 C55.3723011,70.1281646 60.6953125,69.2848101 63.0322443,68.8306962 C62.3830966,70.2579114 61.6041193,71.9446203 60.7602273,73.7610759 C56.3460227,75.4477848 47.972017,75.9667722 46.4789773,76.096519 C44.856108,76.2911392 44.3367898,76.4857595 44.4666193,77.0047468 C44.5315341,77.5237342 45.5701705,77.4588608 48.1018466,77.5237342 C51.0230114,77.5886076 57.4495739,77.0696203 59.2671875,76.875 C58.6829545,78.1724684 58.0338068,79.5348101 57.3846591,81.0268987 C54.9178977,82.7136076 50.2440341,83.0379747 48.9457386,83.1028481 C47.712358,83.1677215 47.2579545,83.6218354 47.3228693,84.0110759 C47.3877841,84.4651899 48.0369318,84.5949367 48.55625,84.6598101 C49.0106534,84.6598101 54.3985795,84.7246835 54.852983,84.789557 C55.1775568,84.789557 55.5021307,84.9841772 55.2424716,85.4382911 C54.7231534,86.6060127 54.3985795,87.3196203 53.8143466,88.4873418 C52.9704545,88.8765823 51.8669034,89.2009494 50.9580966,89.3306962 C50.1791193,89.460443 47.6474432,89.5901899 46.3491477,89.7199367 C45.6350852,89.914557 45.5052557,90.0443038 45.5052557,90.3037975 C45.5052557,90.6281646 45.7,90.8227848 46.3491477,90.8876582 C47.972017,91.0174051 50.9580966,90.8876582 51.6072443,90.9525316 C52.0616477,90.9525316 52.5809659,91.1471519 52.3862216,91.5363924 C52.0616477,92.3148734 51.7370739,92.9636076 51.4125,93.6772152 C50.6984375,94.0015823 49.5948864,94.1962025 48.6860795,94.3908228 C47.5176136,94.6503165 45.3105114,94.8449367 43.4928977,94.9098101 C43.0384943,94.9098101 42.6490057,95.1693038 42.6490057,95.4287975 C42.6490057,95.6882911 42.84375,95.9477848 43.3630682,96.0126582 C44.5964489,96.2072785 47.1930398,96.2072785 48.2316761,96.2721519 C49.0755682,96.3370253 50.1142045,96.4667722 49.7896307,97.1803797 C49.2053977,98.3481013 48.8808239,99.1914557 48.2965909,100.294304 C47.5176136,100.294304 46.1544034,100.359177 45.1806818,100.488924 C44.7911932,100.553797 44.271875,100.618671 44.271875,100.943038 C44.2069602,101.267405 44.7262784,101.462025 45.1806818,101.656646 C45.5052557,101.786392 46.6088068,102.110759 47.3877841,102.30538 C46.9982955,103.018987 46.7386364,103.667722 46.4140625,104.381329 C45.3105114,104.446203 43.2981534,104.575949 41.7401989,104.575949 C41.0910511,104.575949 40.7664773,104.900316 40.7664773,105.15981 C40.7664773,105.419304 40.8963068,105.613924 41.6103693,105.743671 C42.7788352,106.068038 44.5964489,106.197785 45.5052557,106.262658 C44.4666193,108.468354 43.4928977,110.609177 42.5840909,112.55538 C35.4434659,97.3101266 22.3306818,69.2199367 20.1884943,64.7436709 C27.5887784,66.4952532 37.5856534,67.1439873 42.259517,67.1439873 C46.9333807,67.1439873 57.4495739,66.4303797 64.9147727,64.8734177" id="path5849"></path>
                    </g>
                    <g id="g5851" transform="translate(137.271180, 147.958101)" fill="#274488">
                        <path d="M64.9147727,64.8734177 C62.6427557,65.7167722 61.4742898,66.1060127 59.137358,67.0142405 C58.9426136,67.0791139 58.7478693,67.0142405 58.7478693,66.7547468 L58.7478693,57.2183544 C58.7478693,56.9588608 58.9426136,56.6993671 59.137358,56.6993671 C61.4742898,55.8560127 62.6427557,55.4667722 64.9147727,54.6234177 C65.1744318,54.6234177 65.3042614,54.6882911 65.3042614,54.9477848 L65.3042614,64.3544304 C65.3042614,64.5490506 65.1744318,64.7436709 64.9147727,64.8734177" id="path5853"></path>
                    </g>
                    <g id="g5855" transform="translate(156.544376, 141.230728)" fill="#274488">
                        <path d="M64.9147727,64.8734177 C62.5778409,65.5870253 61.4742898,66.0411392 59.137358,66.8196203 C58.9426136,66.8844937 58.7478693,66.7547468 58.7478693,66.5601266 L58.7478693,57.153481 C58.7478693,56.9588608 58.9426136,56.6993671 59.137358,56.6344937 C61.409375,55.7911392 62.5778409,55.4018987 64.9147727,54.6234177 C65.109517,54.4936709 65.3042614,54.6234177 65.3042614,54.818038 L65.3042614,64.3544304 C65.3042614,64.5490506 65.109517,64.8085443 64.9147727,64.8734177" id="path5857"></path>
                    </g>
                    <g id="g5859" transform="translate(137.900854, 93.367120)" fill="#274488">
                        <path d="M64.9147727,64.8734177 C64.9147727,67.3386076 63.0971591,69.1550633 60.6953125,69.1550633 C57.3197443,69.1550633 55.8916193,66.625 55.6319602,62.278481 L61.7339489,62.4731013 C64.0059659,62.4731013 64.9147727,63.1867089 64.9147727,64.8734177" id="path5861"></path>
                    </g>
                    <g id="g5863" transform="translate(200.115172, 97.772025)" fill="#274488">
                        <path d="M64.9147727,64.8734177 C60.5005682,64.8734177 58.8127841,60.8512658 58.8127841,54.5585443 C58.8127841,47.0981013 61.0198864,43.1408228 65.109517,43.1408228 C69.1991477,43.1408228 71.40625,46.6439873 71.40625,53.4556962 C71.40625,60.8512658 69.0693182,64.8734177 64.9147727,64.8734177" id="path5865"></path>
                    </g>
                    <g id="g5867" transform="translate(172.208311, 194.232310)" fill="#274488">
                        <path d="M64.9147727,64.8734177 C65.4340909,64.9382911 67.7710227,64.9382911 70.822017,64.5490506 C73.0940341,64.2246835 76.4046875,63.5110759 77.8977273,63.1867089 L77.8977273,65.7816456 C74.7818182,67.0791139 67.6411932,68.3765823 63.8112216,68.8306962 C61.4742898,69.1550633 58.7478693,69.414557 56.0863636,69.6091772 L55.5670455,59.4240506 C56.9302557,59.3591772 57.8390625,59.3591772 57.8390625,59.3591772 C59.5917614,59.2294304 61.3444602,59.164557 63.0971591,58.9699367 C69.8482955,58.3212025 75.4958807,57.0237342 77.962642,56.5047468 L77.962642,60.1376582 C74.1326705,63.3164557 65.3042614,63.5759494 64.7849432,63.5759494 C64.265625,63.5759494 63.7463068,63.7056962 63.7463068,64.2246835 C63.7463068,64.7436709 64.3954545,64.8085443 64.9147727,64.8734177" id="path5869"></path>
                    </g>
                    <g id="g5871" transform="translate(130.734263, 204.800190)" fill="#274488">
                        <path d="M64.9147727,64.8734177 C66.0832386,65.1329114 75.0414773,68.3765823 91.4,68.3765823 C107.693608,68.3765823 117.430824,64.8085443 118.59929,64.289557 C119.897585,63.7056962 121.066051,63.3164557 121.650284,64.289557 C122.169602,65.2626582 121.520455,66.4952532 120.611648,67.0791139 C117.041335,69.3496835 104.512784,72.2041139 91.4,72.0094937 C78.2223011,71.9446203 65.0446023,69.0253165 63.2269886,68.2468354 C61.3444602,67.5332278 60.565483,66.4303797 61.1497159,65.3924051 C62.1234375,63.6408228 63.7463068,64.5490506 64.9147727,64.8734177" id="path5873"></path>
                    </g>
                    <g id="g5875" transform="translate(185.321095, 132.394968)" fill="#274488">
                        <path d="M64.9147727,64.8734177 C62.6427557,65.5870253 61.4742898,65.9113924 59.2022727,66.5601266 C58.9426136,66.625 58.8127841,66.4952532 58.8127841,66.2357595 C58.7478693,61.9541139 58.7478693,59.8132911 58.7478693,55.9857595 C58.7478693,55.7262658 58.9426136,55.5316456 59.137358,55.4018987 C61.4742898,54.6234177 62.6427557,54.2341772 64.9147727,53.3908228 C65.109517,53.3259494 65.3042614,53.4556962 65.3042614,53.6503165 L65.3042614,64.289557 C65.3042614,64.5490506 65.109517,64.8085443 64.9147727,64.8734177" id="path5877"></path>
                    </g>
                    <g id="g5879" transform="translate(153.863396, 250.594335)" fill="#274488">
                        <path d="M64.9147727,0 C67.9008523,0.0648734177 71.6659091,0 71.6659091,0 L72.3799716,13.1693038 C69.2640625,13.3639241 64.1357955,13.1044304 64.1357955,13.1044304 L64.9147727,0 L64.9147727,0 Z" id="path5881"></path>
                    </g>
                    <g id="g5883" transform="translate(33.537373, 7.474715)" fill="#274488">
                        <path d="M259.659091,64.8734177 C261.28196,61.4351266 259.464347,58.5158228 256.153693,57.0237342 C255.894034,56.8939873 255.179972,56.5696203 254.920313,56.5047468 L256.997585,52.0933544 C257.19233,51.7041139 257.127415,51.4446203 256.608097,51.1851266 L254.465909,50.2120253 C254.07642,50.0174051 253.751847,50.0822785 253.557102,50.5363924 L247.13054,64.1598101 C246.870881,64.6787975 247.00071,64.8734177 247.455114,65.1329114 L250.895597,66.6898734 C253.362358,67.8575949 255.309801,68.181962 256.997585,67.5332278 C258.166051,67.0142405 259.139773,66.0411392 259.659091,64.8734177 L259.659091,64.8734177 Z M319.185938,127.346519 C318.991193,127.735759 318.926278,128.060127 319.185938,128.514241 L320.094744,129.941456 C320.289489,130.330696 320.549148,130.39557 320.938636,130.136076 L334.31108,122.80538 C334.765483,122.545886 334.830398,122.221519 334.570739,121.897152 L333.272443,119.886076 C333.012784,119.367089 332.623295,119.367089 332.103977,119.691456 L324.963352,123.778481 L324.898438,123.778481 L330.351278,116.188291 C330.675852,115.799051 330.546023,115.474684 330.351278,115.21519 L329.896875,114.501582 C329.702131,114.112342 329.442472,113.917722 328.923153,113.982595 L319.445597,115.02057 L319.380682,114.955696 L326.456392,110.414557 C327.040625,110.09019 326.97571,109.765823 326.651136,109.376582 L325.6125,107.689873 C325.352841,107.235759 325.028267,107.106013 324.573864,107.43038 L324.573864,107.43038 L312.110227,115.863924 C311.655824,116.253165 311.655824,116.512658 311.850568,116.901899 L312.759375,118.329114 C313.083949,118.848101 313.343608,118.912975 313.862926,118.848101 L325.807244,117.615506 L325.872159,117.68038 L319.185938,127.346519 L319.185938,127.346519 Z M313.148864,104.121835 L306.722301,109.311709 C306.397727,109.636076 306.462642,109.960443 306.722301,110.28481 L308.215341,112.101266 C308.539915,112.425633 308.799574,112.55538 309.189063,112.231013 L315.745455,106.846519 C319.835085,103.408228 319.964915,99.7753165 316.978835,96.3370253 C313.862926,92.5743671 310.357528,92.5743671 306.462642,95.7531646 L299.90625,101.137658 C299.516761,101.462025 299.646591,101.851266 299.90625,102.175633 L301.39929,103.927215 C301.723864,104.316456 301.918608,104.381329 302.308097,104.056962 L308.669744,98.8670886 C311.590909,96.4667722 313.213778,96.7911392 314.641903,98.4778481 C316.005114,100.099684 316.005114,101.786392 313.148864,104.121835 L313.148864,104.121835 Z M294.453409,95.6882911 C294.32358,96.0775316 294.388494,96.4667722 294.777983,96.8560127 L295.946449,97.9588608 C296.335938,98.2832278 296.595597,98.2183544 296.855256,97.9588608 L307.825852,87.3844937 C307.825852,87.3196203 307.890767,87.3196203 307.890767,87.3196203 C308.150426,86.9952532 308.150426,86.6708861 307.825852,86.4113924 L306.073153,84.789557 C305.61875,84.335443 305.294176,84.4651899 304.839773,84.9841772 L299.062358,90.7579114 L302.243182,82 C302.437926,81.5458861 302.243182,81.2863924 302.048438,81.0917722 L301.39929,80.5079114 C301.009801,80.1835443 300.815057,80.0537975 300.295739,80.2484177 L291.402415,83.7515823 L291.3375,83.6867089 L296.985085,77.4588608 C297.439489,76.9398734 297.244744,76.7452532 296.855256,76.3560127 L295.427131,75.0585443 C295.037642,74.6693038 294.713068,74.6044304 294.388494,74.9936709 L294.32358,75.0585443 L284.586364,86.4762658 C284.196875,86.9303797 284.26179,87.1898734 284.586364,87.5142405 L285.884659,88.681962 C286.274148,89.0712025 286.598722,89.0712025 287.053125,88.8765823 L298.218466,84.5300633 L298.283381,84.5949367 L294.453409,95.6882911 L294.453409,95.6882911 Z M287.377699,72.0743671 L288.35142,72.7231013 C288.675994,72.9825949 289.000568,72.8528481 289.195313,72.5933544 L289.909375,71.5553797 C290.104119,71.3607595 290.104119,71.0363924 289.84446,70.8417722 L284.910938,67.2088608 C284.586364,67.0142405 284.26179,67.0791139 284.067045,67.2737342 L283.352983,68.3117089 C283.093324,68.6360759 283.158239,68.960443 283.417898,69.1550633 L284.326705,69.8037975 L277.380824,79.1455696 L276.342188,78.3670886 C276.017614,78.1724684 275.69304,78.3022152 275.498295,78.5617089 L274.784233,79.5348101 C274.589489,79.7943038 274.589489,80.1186709 274.849148,80.3132911 L280.04233,84.0759494 C280.301989,84.2705696 280.626563,84.2705696 280.821307,84.0110759 L281.600284,82.9731013 C281.795028,82.6487342 281.795028,82.3892405 281.470455,82.1297468 L280.431818,81.4161392 L287.377699,72.0743671 L287.377699,72.0743671 Z M275.173722,61.6297468 C275.498295,61.1107595 275.433381,61.0458861 275.043892,60.7863924 L272.70696,59.4240506 C272.317472,59.164557 272.252557,59.2294304 271.927983,59.6186709 L265.306676,70.6471519 L261.541619,68.4414557 C261.152131,68.181962 260.827557,68.2468354 260.632813,68.7009494 L259.724006,70.193038 C259.464347,70.5822785 259.594176,70.8417722 259.983665,71.0363924 L269.98054,76.9398734 L271.019176,77.5886076 C271.408665,77.7832278 271.603409,77.7183544 271.798153,77.4588608 L271.798153,77.3939873 L272.642045,75.6424051 C272.83679,75.2531646 272.642045,74.9936709 272.187642,74.7341772 L268.552415,72.5933544 L275.173722,61.6297468 L275.173722,61.6297468 Z M236.484517,61.4351266 C241.28821,62.9920886 244.858523,60.3322785 246.351563,55.7911392 C248.104261,50.7310127 246.156818,46.5791139 241.872443,45.1518987 C237.328409,43.6598101 233.693182,45.9952532 232.070313,50.8607595 C230.382528,55.6613924 232.005398,59.943038 236.484517,61.4351266 L236.484517,61.4351266 Z M218.697869,42.0379747 L219.866335,42.2325949 C220.255824,42.2325949 220.515483,42.0379747 220.580398,41.7136076 L220.775142,40.4810127 C220.840057,40.1566456 220.645313,39.8971519 220.320739,39.8322785 L214.283665,38.7943038 C213.959091,38.7294304 213.634517,38.9240506 213.634517,39.1835443 L213.374858,40.4810127 C213.309943,40.8702532 213.504688,41.1297468 213.829261,41.1946203 L214.932813,41.3892405 L212.985369,52.806962 L211.687074,52.6123418 C211.297585,52.5474684 211.102841,52.806962 211.037926,53.1313291 L210.778267,54.3639241 C210.778267,54.6234177 210.908097,54.8829114 211.23267,54.9477848 L217.594318,56.0506329 C217.918892,56.1155063 218.178551,55.8560127 218.243466,55.6613924 L218.43821,54.3639241 C218.503125,53.9746835 218.308381,53.7151899 217.983807,53.6503165 L216.685511,53.4556962 L218.697869,42.0379747 L218.697869,42.0379747 Z M199.353267,49.3037975 C199.483097,48.5253165 200.456818,48.2009494 201.041051,47.9414557 L203.897301,46.903481 C205.844744,46.2547468 207.14304,45.0870253 207.337784,42.8813291 C207.597443,39.5079114 205.000852,37.3022152 201.755114,37.0427215 C200.197159,36.9129747 198.314631,37.1075949 196.691761,37.4968354 C196.302273,37.5617089 196.172443,37.7563291 196.172443,37.9509494 C196.172443,38.0806962 196.172443,38.210443 196.237358,38.3401899 L196.756676,40.3512658 C196.756676,40.5458861 196.886506,40.8053797 197.21108,40.8053797 C197.275994,40.8053797 197.470739,40.8053797 197.600568,40.7405063 C198.833949,40.3512658 200.197159,40.221519 201.365625,40.2863924 C202.404261,40.3512658 203.572727,41 203.507813,42.1677215 C203.442898,43.0759494 202.66392,43.4003165 201.884943,43.7246835 L198.639205,44.9572785 C196.756676,45.6060127 195.523295,46.9683544 195.328551,48.9794304 C195.068892,51.9636076 197.990057,53.9746835 200.781392,54.1693038 C202.534091,54.2990506 204.027131,54.1044304 205.585085,53.585443 C205.974574,53.4556962 206.104403,53.3259494 206.169318,53.0664557 C206.169318,53.0015823 206.104403,52.8718354 206.104403,52.6772152 L205.455256,50.7958861 C205.390341,50.471519 205.260511,50.4066456 205.065767,50.3417722 C204.935938,50.3417722 204.806108,50.4066456 204.611364,50.4066456 C203.572727,50.7310127 202.274432,51.0553797 201.30071,50.9256329 C200.326989,50.8607595 199.288352,50.4066456 199.353267,49.3037975 L199.353267,49.3037975 Z M53.6196023,124.037975 L45.7,119.172468 C45.2455966,118.912975 44.9859375,119.042722 44.7262784,119.431962 L43.5578125,121.313291 C43.2332386,121.767405 43.2332386,122.026899 43.687642,122.351266 L56.6056818,130.200949 C57.1899148,130.525316 57.3846591,130.330696 57.709233,129.941456 L58.7478693,128.254747 C58.9426136,127.800633 59.0075284,127.541139 58.8127841,127.151899 L54.3985795,116.123418 L62.3830966,120.988924 C62.8375,121.248418 63.1620739,121.118671 63.3568182,120.72943 L64.5901989,118.718354 C64.9147727,118.199367 64.6551136,118.004747 64.3305398,117.810127 L51.4125,109.960443 C50.8931818,109.636076 50.6984375,109.765823 50.4387784,110.155063 L49.400142,111.906646 C49.140483,112.231013 49.140483,112.620253 49.2703125,113.009494 L53.6196023,123.973101 L53.6196023,124.037975 L53.6196023,124.037975 Z M60.6303977,100.683544 C60.825142,100.359177 60.6953125,100.03481 60.4356534,99.8401899 L59.4619318,99.0617089 C59.2671875,98.931962 58.8776989,98.931962 58.6829545,99.1265823 L54.9828125,103.992089 C54.7231534,104.316456 54.852983,104.640823 54.9828125,104.77057 L56.0214489,105.549051 C56.3460227,105.808544 56.6705966,105.743671 56.8653409,105.484177 L57.5794034,104.575949 L66.8622159,111.712025 L66.0832386,112.685127 C65.8235795,113.009494 65.9534091,113.333861 66.2130682,113.528481 L67.2517045,114.242089 C67.4464489,114.436709 67.7710227,114.436709 67.965767,114.177215 L71.8606534,109.117089 C72.1203125,108.857595 72.0553977,108.533228 71.8606534,108.338608 L70.822017,107.625 C70.4974432,107.300633 70.1728693,107.43038 69.978125,107.689873 L69.134233,108.662975 L59.8514205,101.656646 L60.6303977,100.683544 L60.6303977,100.683544 Z M72.4448864,88.4873418 C72.7694602,88.1629747 72.7045455,87.8386076 72.3799716,87.5142405 L71.0816761,86.2816456 C70.6921875,85.9572785 70.3676136,86.0221519 70.0430398,86.346519 L63.8761364,92.9636076 C63.5515625,93.3528481 63.4866477,93.6123418 63.9410511,94.0015823 L75.106392,104.251582 C75.4309659,104.511076 75.7555398,104.511076 76.0801136,104.186709 L77.702983,102.435127 C78.0275568,102.045886 78.0924716,101.786392 77.702983,101.462025 L68.3552557,92.8987342 L72.4448864,88.4873418 L72.4448864,88.4873418 Z M88.8683239,78.1075949 L87.3103693,81.2863924 C86.4015625,83.0379747 86.4664773,84.8544304 87.699858,86.4113924 C89.6473011,88.8117089 93.0877841,88.2278481 95.2948864,86.4762658 C96.5931818,85.3734177 97.5669034,84.2056962 98.3458807,82.778481 C98.540625,82.3892405 98.540625,82.1946203 98.4107955,82.0648734 C98.3458807,81.9351266 98.2160511,81.8702532 98.0862216,81.8053797 L96.3335227,80.8322785 C96.0738636,80.7025316 95.8791193,80.7025316 95.684375,80.8322785 C95.6194602,80.8971519 95.5545455,81.0268987 95.4247159,81.1566456 C94.9703125,82.1297468 94.1913352,83.1677215 93.412358,83.7515823 C92.6982955,84.4003165 91.5947443,84.789557 90.8806818,83.9462025 C90.4262784,83.2974684 90.8806818,82.3892405 91.1403409,81.7405063 L92.5035511,79.0806962 C93.412358,77.2642405 93.5421875,75.5126582 92.1789773,73.8259494 C90.0367898,71.1661392 86.6612216,71.3607595 84.0646307,73.3718354 C82.8961648,74.3449367 81.5978693,75.7721519 80.7539773,77.1344937 C80.4943182,77.5237342 80.4943182,77.7183544 80.6890625,77.8481013 C80.7539773,77.9778481 80.8838068,78.0427215 81.0136364,78.1075949 L82.7014205,79.210443 C82.9610795,79.3401899 83.1558239,79.4699367 83.415483,79.2753165 C83.4803977,79.1455696 83.5453125,79.0806962 83.6102273,78.9509494 C84.259375,77.8481013 85.1681818,76.8101266 86.0769886,76.0316456 C86.8559659,75.3829114 88.1542614,74.9936709 88.9332386,75.9018987 C89.4525568,76.6155063 89.1928977,77.3939873 88.8683239,78.1075949 L88.8683239,78.1075949 Z M101.916193,65.2626582 L98.4107955,67.5332278 L97.696733,67.9873418 L95.3598011,66.1060127 C95.100142,65.9113924 94.7755682,65.7816456 94.3860795,66.0411392 L92.1140625,67.5332278 C91.9193182,67.6629747 91.9193182,67.8575949 91.984233,68.0522152 C92.0491477,68.1170886 92.1140625,68.181962 92.1789773,68.2468354 L105.356676,77.9129747 C105.68125,78.1075949 106.005824,78.1724684 106.330398,77.9778481 L108.40767,76.6155063 C108.862074,76.3560127 108.926989,76.0316456 108.862074,75.7072785 L105.421591,59.943038 C105.356676,59.7484177 105.356676,59.6835443 105.291761,59.6186709 C105.097017,59.3591772 104.902273,59.2294304 104.577699,59.4240506 L102.370597,60.9161392 C101.851278,61.2405063 101.851278,61.5648734 101.916193,61.9541139 L102.630256,64.7436709 L101.916193,65.2626582 L101.916193,65.2626582 Z M112.75696,70.2579114 C112.367472,70.5174051 112.302557,70.7768987 112.497301,71.1661392 L113.341193,72.7879747 C113.535937,73.1123418 113.795597,73.2420886 114.185085,72.9825949 L124.506534,67.6629747 L125.610085,67.0791139 C125.999574,66.8844937 126.064489,66.625 125.869744,66.3655063 L125.869744,66.3006329 L124.831108,64.6787975 C124.506534,64.289557 124.18196,64.3544304 123.792472,64.6139241 L120.027415,66.4952532 L114.055256,55.2072785 C113.795597,54.7531646 113.730682,54.6882911 113.276278,54.8829114 L110.874432,56.1803797 C110.420028,56.375 110.420028,56.4398734 110.679687,56.8939873 L116.651847,68.2468354 L112.75696,70.2579114 L112.75696,70.2579114 Z M130.543608,49.8876582 C130.868182,49.7579114 130.933097,49.4335443 130.868182,49.1091772 L130.348864,47.9414557 C130.283949,47.681962 129.959375,47.4873418 129.634801,47.681962 L123.987216,49.8876582 C123.662642,50.0822785 123.532813,50.4066456 123.597727,50.6012658 L124.117045,51.8338608 C124.246875,52.2231013 124.506534,52.2879747 124.896023,52.1582278 L125.869744,51.7689873 L130.283949,62.5379747 L129.115483,62.9920886 C128.725994,63.1867089 128.66108,63.5110759 128.790909,63.7705696 L129.310227,64.9382911 C129.375142,65.1977848 129.634801,65.3924051 129.959375,65.2626582 L135.931534,62.8623418 C136.256108,62.7325949 136.385938,62.4731013 136.321023,62.1487342 L135.801705,60.9810127 C135.60696,60.5917722 135.347301,60.5268987 135.022727,60.6566456 L133.789347,61.1107595 L129.440057,50.3417722 L130.543608,49.8876582 L130.543608,49.8876582 Z M143.980966,54.039557 L146.317898,52.0933544 C147.875852,50.7310127 148.65483,49.1091772 148.005682,47.0332278 C147.03196,43.789557 143.786222,42.6867089 140.670312,43.5949367 C139.177273,44.0490506 137.489489,44.8924051 136.126278,45.8655063 C135.801705,46.0601266 135.73679,46.2547468 135.801705,46.4493671 C135.801705,46.5791139 135.931534,46.7088608 135.996449,46.8386076 L137.164915,48.460443 C137.294744,48.7199367 137.489489,48.8496835 137.814062,48.7848101 C137.878977,48.7199367 138.008807,48.7199367 138.138636,48.5253165 C139.177273,47.8117089 140.345739,47.1629747 141.514205,46.7737342 C142.487926,46.5142405 143.851136,46.6439873 144.17571,47.7468354 C144.435369,48.6550633 143.916051,49.2389241 143.266903,49.7579114 L140.605398,52.0933544 C139.177273,53.3908228 138.46321,55.1424051 139.047443,57.0237342 C139.95625,59.943038 143.396733,60.721519 146.058239,59.8781646 C147.681108,59.4240506 149.044318,58.710443 150.277699,57.6724684 C150.602273,57.3481013 150.667187,57.153481 150.602273,56.9588608 C150.602273,56.8939873 150.537358,56.7642405 150.407528,56.6993671 L149.174148,55.1424051 C148.979403,54.818038 148.849574,54.7531646 148.589915,54.818038 C148.525,54.8829114 148.39517,54.9477848 148.200426,55.0775316 C147.421449,55.7262658 146.252983,56.4398734 145.344176,56.6993671 C144.435369,57.0237342 143.266903,56.9588608 142.94233,55.8560127 C142.747585,55.1424051 143.526562,54.4287975 143.980966,54.039557 L143.980966,54.039557 Z M177.736648,52.806962 L175.854119,37.9509494 C175.789205,37.3670886 175.464631,37.2373418 175.075142,37.3022152 L173.062784,37.5617089 C172.608381,37.6265823 172.283807,37.8212025 172.089063,38.210443 L166.181818,48.3955696 L166.116903,48.3955696 L164.948438,39.2484177 C164.883523,38.7294304 164.623864,38.5996835 164.16946,38.664557 L161.962358,38.9240506 C161.44304,38.9889241 161.183381,39.1186709 161.31321,39.7025316 L163.130824,54.6234177 C163.195739,55.2072785 163.520313,55.3370253 164.039631,55.2072785 L165.987074,55.0126582 C166.506392,54.9477848 166.701136,54.7531646 166.895881,54.3639241 L172.803125,44.1139241 L172.86804,44.1139241 L174.036506,53.3259494 C174.10142,53.8449367 174.36108,53.9746835 174.815483,53.9098101 L177.152415,53.6503165 C177.736648,53.585443 177.736648,53.1962025 177.736648,52.806962 L177.736648,52.806962 Z M353.915341,138.18038 C340.997301,105.808544 318.991193,78.1075949 290.298864,58.1265823 C263.553977,39.5079114 232.265057,28.6091772 199.742756,26.6629747 C199.548011,26.6629747 199.418182,26.5981013 199.288352,26.4683544 L188.837074,16.0886076 L178.385795,26.4683544 C178.255966,26.5981013 178.126136,26.6629747 177.931392,26.6629747 C145.474006,28.6091772 114.12017,39.5079114 87.3752841,58.1265823 C58.7478693,78.1075949 36.6768466,105.808544 23.7588068,138.18038 L22.7201705,140.710443 L62.3181818,155.890823 C63.3568182,156.344937 64.4603693,155.955696 65.0446023,155.047468 L65.109517,154.982595 C65.3691761,154.593354 65.8884943,153.814873 66.6674716,153.101266 C66.9920455,152.063291 67.3166193,151.025316 67.706108,150.052215 C65.6288352,150.830696 64.1357955,152.776899 63.5515625,153.620253 L63.421733,153.879747 C63.3568182,153.94462 63.2269886,154.009494 63.0971591,154.009494 L62.9673295,154.009494 L60.1759943,152.906646 L58.9426136,152.387658 L59.137358,151.868671 C59.2671875,151.609177 59.3321023,151.349684 59.397017,151.219937 C60.565483,148.300633 61.8637784,145.511076 63.1620739,142.721519 C63.421733,142.332278 63.6164773,141.878165 63.8112216,141.488924 L65.0446023,141.943038 L70.2377841,143.824367 C70.562358,143.175633 70.8869318,142.591772 71.1465909,142.007911 L66.0183239,140.126582 L64.7200284,139.672468 C64.9147727,139.283228 65.109517,138.893987 65.3691761,138.504747 C75.8204545,118.783228 90.7508523,101.851266 109.251563,88.8765823 C130.283949,74.2800633 154.626989,65.9113924 180.203409,64.289557 L182.410511,62.1487342 C155.60071,63.3164557 129.959375,71.9446203 108.083097,87.2547468 C85.1681818,103.213608 67.5762784,125.27057 57.2548295,151.09019 L56.9951705,151.674051 L25.4465909,139.542722 L25.70625,138.958861 C38.4944602,106.911392 60.2409091,79.5348101 88.6086648,59.7484177 C115.288636,41.1946203 146.577557,30.4256329 179.099858,28.6740506 L188.38267,19.4620253 L188.837074,19.0079114 L198.57429,28.6740506 C231.096591,30.4256329 262.385511,41.1946203 289.065483,59.7484177 C317.433239,79.5348101 339.244602,106.911392 352.032813,138.958861 L352.227557,139.542722 L320.678977,151.674051 L320.484233,151.09019 C310.097869,125.27057 292.505966,103.213608 269.591051,87.2547468 C247.649858,71.9446203 222.073438,63.3164557 195.263636,62.1487342 L197.470739,64.289557 C223.047159,65.9113924 247.390199,74.2800633 268.422585,88.8765823 C286.923295,101.851266 301.918608,118.783228 312.304972,138.504747 C312.564631,138.893987 312.759375,139.283228 312.954119,139.672468 L311.655824,140.126582 L306.527557,142.007911 C306.787216,142.591772 307.11179,143.175633 307.371449,143.824367 L312.629545,141.943038 L313.862926,141.488924 C314.05767,141.878165 314.31733,142.332278 314.512074,142.721519 C315.810369,145.511076 317.108665,148.300633 318.277131,151.219937 C318.342045,151.349684 318.471875,151.609177 318.53679,151.868671 L318.796449,152.387658 L317.498153,152.906646 L314.706818,154.009494 L314.512074,154.009494 C314.447159,154.009494 314.31733,153.94462 314.252415,153.879747 L314.122585,153.620253 C313.538352,152.776899 312.045313,150.830696 309.96804,149.987342 C310.292614,151.025316 310.682102,152.063291 311.006676,153.101266 C311.720739,153.75 312.304972,154.593354 312.564631,154.982595 L312.629545,155.047468 C313.213778,155.955696 314.31733,156.344937 315.355966,155.890823 L354.953977,140.710443 L353.915341,138.18038 L353.915341,138.18038 Z M40.7015625,156.474684 L40.3769886,156.993671 L28.6274148,151.738924 C27.9133523,151.47943 27.1992898,151.738924 26.8747159,152.387658 C26.6150568,152.712025 25.7711648,154.009494 25.122017,155.696203 C24.4728693,157.447785 23.8237216,159.977848 24.4728693,162.248418 C24.9921875,164.064873 26.290483,165.492089 28.2379261,166.335443 L57.0600852,179.504747 C57.125,179.504747 57.1899148,179.56962 57.2548295,179.56962 C57.7741477,179.829114 58.7478693,180.153481 59.8514205,180.153481 C60.6303977,180.153481 61.4742898,179.958861 62.3830966,179.634494 C62.4480114,178.791139 62.4480114,178.077532 62.5129261,177.299051 C61.6041193,177.818038 60.6953125,178.142405 59.7865057,178.142405 C59.2022727,178.142405 58.6180398,178.012658 58.0987216,177.753165 L57.9039773,177.688291 C56.6056818,177.039557 55.696875,175.547468 55.3073864,173.536392 C54.9178977,171.265823 55.3073864,168.606013 56.4758523,166.011076 L56.6705966,165.492089 C56.9302557,164.843354 56.6056818,164.129747 55.9565341,163.80538 L42.259517,157.772152 L42.7139205,157.123418 C44.3367898,154.852848 45.1806818,152.647152 45.7,150.960443 L43.7525568,150.181962 C43.2981534,151.868671 42.3893466,154.204114 40.7015625,156.474684 L40.7015625,156.474684 Z M178.775284,65.7167722 C153.977841,67.5332278 130.413778,75.8370253 110.03054,90.0443038 C91.7894886,102.759494 76.9889205,119.496835 66.6025568,138.958861 L71.7957386,140.775316 C71.9255682,140.450949 72.1203125,140.191456 72.250142,139.867089 C73.418608,137.791139 74.6519886,135.71519 76.0151989,133.768987 C76.1450284,133.574367 76.3397727,133.314873 76.5994318,132.990506 L76.6643466,132.795886 C99.8389205,98.153481 133.854261,76.5506329 172.608381,71.9446203 L178.775284,65.7167722 L178.775284,65.7167722 Z M189.616051,39.2484177 C190.00554,39.2484177 190.200284,38.9889241 190.200284,38.664557 L190.200284,37.3670886 C190.200284,37.1075949 190.00554,36.8481013 189.680966,36.8481013 L183.514062,36.9129747 C183.124574,36.9129747 182.92983,37.1724684 182.92983,37.431962 L182.92983,38.7294304 C182.92983,39.1835443 183.189489,39.3132911 183.514062,39.3132911 L184.682528,39.3132911 L184.812358,50.9256329 L183.578977,50.9905063 C183.189489,50.9905063 182.994744,51.25 182.994744,51.5743671 L182.994744,52.806962 C182.994744,53.1313291 183.189489,53.3908228 183.514062,53.3908228 L189.940625,53.2610759 C190.330114,53.2610759 190.524858,53.0015823 190.524858,52.7420886 L190.524858,51.4446203 C190.524858,51.0553797 190.265199,50.8607595 189.940625,50.8607595 L188.64233,50.8607595 L188.447585,39.2484177 L189.616051,39.2484177 L189.616051,39.2484177 Z M305.878409,140.775316 L311.071591,138.958861 C300.750142,119.496835 285.949574,102.759494 267.643608,90.0443038 C247.260369,75.8370253 223.696307,67.5332278 198.898864,65.7167722 L205.065767,71.9446203 C243.819886,76.5506329 277.835227,98.153481 300.944886,132.795886 L301.074716,132.990506 C301.26946,133.314873 301.464205,133.574367 301.658949,133.833861 C302.957244,135.71519 304.25554,137.791139 305.359091,139.867089 C305.553835,140.191456 305.74858,140.450949 305.878409,140.775316 L305.878409,140.775316 Z M64.5901989,190.533228 C64.7200284,192.933544 64.9147727,195.333861 65.2393466,197.799051 C66.7973011,212.200949 70.1728693,222.64557 71.5360795,226.473101 L71.990483,227.77057 C77.702983,243.664557 82.1821023,256.25 82.0522727,271.495253 C81.987358,283.367089 67.5113636,299.71519 61.9286932,305.03481 L58.4882102,308.278481 L61.993608,311.457278 L108.862074,354.208861 L111.718324,352.327532 C121.845028,345.710443 134.827983,342.012658 148.39517,342.012658 C162.546591,342.012658 176.048864,346.03481 186.305398,353.170886 L188.837074,354.922468 L191.36875,353.170886 C201.625284,346.03481 215.062642,342.012658 229.278977,342.012658 C242.78125,342.012658 255.829119,345.710443 265.890909,352.327532 L268.747159,354.208861 L319.185938,308.278481 L315.745455,304.969937 C310.162784,299.71519 295.68679,283.367089 295.621875,271.495253 C295.492045,256.25 299.971165,243.664557 305.683665,227.77057 L306.138068,226.473101 C307.501278,222.64557 310.876847,212.200949 312.434801,197.799051 C312.69446,195.333861 312.954119,192.933544 313.083949,190.533228 C313.148864,188.262658 313.278693,185.927215 313.278693,183.721519 C313.343608,167.113924 310.097869,152.647152 303.606392,140.84019 C302.502841,138.829114 301.26946,136.818038 299.971165,135.001582 C299.841335,134.742089 299.646591,134.482595 299.386932,134.093354 L299.257102,133.963608 C276.407102,99.710443 242.78125,78.3670886 204.481534,73.8908228 L204.15696,73.8908228 L188.837074,58.5806962 L173.517188,73.8908228 L173.192614,73.8908228 C134.892898,78.3670886 101.202131,99.710443 78.3521307,133.963608 L78.2872159,134.093354 C78.0275568,134.482595 77.8328125,134.742089 77.702983,134.936709 C76.4046875,136.818038 75.1713068,138.829114 74.0677557,140.84019 C67.5762784,152.647152 64.3305398,167.113924 64.3954545,183.721519 C64.3954545,185.927215 64.4603693,188.262658 64.5901989,190.533228 L64.5901989,190.533228 Z M315.226136,179.56962 C316.199858,179.958861 317.108665,180.153481 317.822727,180.153481 C318.926278,180.153481 319.835085,179.829114 320.419318,179.56962 C320.484233,179.56962 320.549148,179.504747 320.614063,179.504747 L349.436222,166.335443 C351.383665,165.492089 352.68196,164.064873 353.201278,162.248418 C353.915341,159.977848 353.201278,157.447785 352.552131,155.696203 C351.902983,154.009494 351.059091,152.712025 350.799432,152.387658 C350.474858,151.738924 349.695881,151.47943 349.111648,151.738924 L337.297159,156.993671 L336.972585,156.474684 C335.284801,154.204114 334.375994,151.868671 333.921591,150.181962 L332.039063,150.960443 C332.493466,152.647152 333.337358,154.852848 334.960227,157.123418 L335.414631,157.772152 L321.717614,163.80538 C321.068466,164.129747 320.743892,164.843354 321.003551,165.492089 L321.198295,166.011076 C322.366761,168.606013 322.75625,171.265823 322.366761,173.536392 C322.042188,175.547468 321.068466,177.039557 319.77017,177.688291 L319.640341,177.753165 C319.056108,178.012658 318.471875,178.142405 317.887642,178.142405 C316.978835,178.142405 316.070028,177.818038 315.161222,177.234177 C315.226136,178.077532 315.226136,178.791139 315.226136,179.56962 L315.226136,179.56962 Z M356.447017,141.359177 C356.382102,141.488924 356.252273,141.618671 356.122443,141.683544 L335.219886,149.727848 C335.609375,151.155063 336.323438,153.231013 337.751563,155.306962 L348.527415,150.506329 C348.916903,150.376582 349.241477,150.311709 349.630966,150.311709 C350.604688,150.311709 351.513494,150.830696 352.032813,151.674051 C352.292472,152.128165 353.136364,153.425633 353.850426,155.242089 C354.889063,158.031646 355.148722,160.496835 354.499574,162.637658 C353.850426,164.843354 352.292472,166.530063 349.95554,167.568038 L321.198295,180.672468 C321.198295,180.737342 321.133381,180.802215 321.003551,180.802215 L321.003551,180.802215 C319.9,181.321203 317.822727,181.905063 315.291051,181.061709 L315.291051,183.721519 C315.291051,185.992089 315.226136,188.327532 315.096307,190.662975 C314.966477,193.063291 314.771733,195.528481 314.512074,197.993671 C312.82429,212.59019 309.448722,223.22943 308.020597,227.121835 L307.566193,228.419304 C301.983523,244.183544 297.504403,256.639241 297.634233,271.43038 C297.699148,282.653481 311.720739,298.417722 317.108665,303.542722 L322.172017,308.343354 L269.006818,356.738924 L264.787358,354.014241 C255.050142,347.591772 242.456676,344.088608 229.278977,344.088608 C215.517045,344.088608 202.404261,347.916139 192.537216,354.857595 L188.837074,357.452532 L185.136932,354.857595 C175.204972,347.916139 162.157102,344.088608 148.39517,344.088608 C135.217472,344.088608 122.624006,347.591772 112.88679,354.014241 L108.66733,356.738924 L60.6303977,313.014241 L55.5021307,308.343354 L60.5005682,303.542722 C65.8884943,298.417722 79.9100852,282.653481 80.0399148,271.43038 C80.1048295,256.639241 75.690625,244.183544 70.0430398,228.419304 L69.5886364,227.121835 C68.2254261,223.22943 64.7849432,212.59019 63.1620739,197.993671 C62.9024148,195.528481 62.7076705,193.063291 62.5778409,190.662975 C62.4480114,188.327532 62.3181818,185.992089 62.3181818,183.721519 C62.3181818,182.813291 62.3181818,181.969937 62.3830966,181.061709 C59.8514205,181.905063 57.7741477,181.321203 56.7355114,180.802215 L56.6705966,180.802215 C56.6056818,180.802215 56.540767,180.737342 56.4758523,180.672468 L27.718608,167.568038 C25.3816761,166.530063 23.8237216,164.843354 23.1745739,162.637658 C22.5254261,160.496835 22.7850852,158.031646 23.8237216,155.242089 C24.5377841,153.425633 25.3816761,152.128165 25.70625,151.674051 C26.1606534,150.830696 27.0694602,150.311709 28.0431818,150.311709 C28.4326705,150.311709 28.7572443,150.376582 29.146733,150.506329 L39.9225852,155.306962 C41.3507102,153.231013 42.0647727,151.155063 42.5191761,149.727848 L21.6166193,141.683544 C21.421875,141.618671 21.2920455,141.488924 21.2271307,141.359177 C21.1622159,141.164557 21.1622159,140.969937 21.2271307,140.84019 L22.4605114,137.661392 C35.5083807,105.030063 57.709233,77.1344937 86.5963068,57.0237342 C113.471023,38.2753165 144.954688,27.3117089 177.606818,25.3655063 L188.38267,14.6613924 C188.5125,14.596519 188.64233,14.4667722 188.837074,14.4667722 C189.031818,14.4667722 189.226563,14.596519 189.291477,14.6613924 L200.06733,25.3655063 C232.71946,27.3117089 264.203125,38.2753165 291.077841,57.0237342 C319.964915,77.1344937 342.165767,105.030063 355.213636,137.661392 L356.447017,140.84019 C356.511932,140.969937 356.511932,141.164557 356.447017,141.359177 L356.447017,141.359177 Z" id="path5885"></path>
                    </g>
                    <g id="g5887" transform="translate(148.520910, 115.047816)" fill="#274488">
                        <path d="M64.9147727,0 C66.3428977,0.84335443 67.8359375,1.88132911 67.8359375,3.89240506 C67.8359375,5.64398734 66.537642,7.00632911 64.7200284,7.00632911 C62.9673295,7.00632911 61.6041193,5.70886076 61.6041193,3.95727848 C61.6041193,2.07594937 63.0971591,1.03797468 64.9147727,0" id="path5889"></path>
                    </g>
                    <g id="g5891" transform="translate(51.642104, 37.867911)" fill="#274488">
                        <path d="M259.659091,259.493671 C257.971307,258.455696 256.218608,258.066456 254.985227,258.325949 C255.374716,259.688291 256.543182,261.18038 258.230966,262.283228 C259.853835,263.321203 261.671449,263.710443 262.90483,263.450949 C262.515341,262.023734 261.346875,260.531646 259.659091,259.493671 L259.659091,259.493671 Z M256.348437,253.39557 C254.725568,252.292722 252.972869,251.903481 251.674574,252.227848 C252.064062,253.59019 253.232528,255.082278 254.920312,256.120253 C256.608097,257.223101 258.360795,257.612342 259.659091,257.287975 C259.204687,255.925633 258.036222,254.433544 256.348437,253.39557 L256.348437,253.39557 Z M253.167614,248.011076 C251.285085,247.621835 249.467472,247.946203 248.36392,248.724684 C249.142898,249.827532 250.765767,250.800633 252.648295,251.189873 C254.530824,251.579114 256.283523,251.254747 257.387074,250.476266 C256.608097,249.373418 255.050142,248.400316 253.167614,248.011076 L253.167614,248.011076 Z M251.674574,101.007911 C249.921875,101.007911 248.169176,100.943038 247.195455,100.943038 C247.714773,103.862342 247.909517,107.235759 247.909517,111.193038 L247.909517,115.928797 C247.909517,119.042722 247.649858,122.740506 243.170739,122.740506 C241.612784,122.740506 240.05483,122.091772 238.821449,120.924051 C237.458239,119.561709 237.06875,118.393987 237.06875,115.02057 L237.06875,111.193038 C237.06875,106.197785 237.393324,103.213608 238.172301,100.943038 C237.328409,100.943038 235.57571,101.007911 233.887926,101.007911 C232.070312,101.007911 230.382528,100.943038 229.473722,100.943038 C229.928125,103.862342 230.122869,107.235759 230.122869,111.193038 L230.122869,117.810127 C230.122869,120.469937 229.86321,124.427215 228.954403,127.281646 C231.35625,127.281646 234.666903,127.281646 237.003835,127.476266 L236.809091,122.80538 L239.016193,124.686709 C241.677699,126.892405 243.819886,127.865506 246.546307,127.865506 C252.778125,127.865506 254.920312,124.297468 254.920312,118.199367 L254.920312,111.193038 C254.920312,106.197785 255.244886,103.213608 256.023864,100.943038 C255.115057,100.943038 253.362358,101.007911 251.674574,101.007911 L251.674574,101.007911 Z M212.985369,100.099684 C204.611364,100.099684 199.677841,104.96519 199.677841,113.398734 C199.677841,121.702532 204.741193,127.800633 214.21875,127.800633 C222.65767,127.800633 227.461364,123 227.461364,114.761076 C227.461364,105.743671 221.813778,100.099684 212.985369,100.099684 L212.985369,100.099684 Z M199.093608,126.827532 C198.898864,126.049051 198.314631,123.843354 197.990057,122.935127 C195.912784,123.129747 194.679403,123.19462 193.251278,123.19462 L190.849432,123.19462 C190.784517,121.378165 190.719602,119.237342 190.719602,117.68038 L190.719602,111.582278 C190.719602,107.495253 191.174006,104.446203 194.744318,104.446203 C195.847869,104.446203 196.756676,104.705696 198.184801,105.419304 C198.44446,105.549051 198.963778,105.549051 198.769034,104.77057 C198.44446,103.602848 198.119886,102.5 197.795312,101.137658 C194.549574,100.294304 193.186364,100.099684 191.49858,100.099684 C186.824716,100.099684 183.838636,102.045886 183.838636,108.662975 L183.838636,116.901899 C183.838636,119.496835 183.838636,121.443038 183.773722,123.259494 C182.345597,123.259494 180.787642,123.064873 180.07358,122.935127 C179.94375,122.935127 179.554261,122.935127 179.749006,123.518987 C179.749006,123.713608 180.463068,126.178797 180.722727,127.022152 C181.371875,126.957278 182.67017,126.892405 183.968466,126.892405 C183.968466,129.033228 183.838636,130.136076 183.773722,131.757911 C185.65625,132.341772 189.096733,133.898734 190.589773,134.806962 C191.174006,135.196203 191.433665,134.677215 191.36875,134.093354 C191.303835,133.44462 190.914347,131.693038 190.849432,126.892405 L194.614489,126.892405 C195.912784,126.892405 197.340909,126.957278 198.704119,127.281646 C198.963778,127.346519 199.223437,127.216772 199.093608,126.827532 L199.093608,126.827532 Z M188.5125,64.289557 C184.942187,64.289557 182.475426,66.4303797 182.475426,69.5443038 C182.475426,72.2041139 184.098295,73.6962025 186.824716,75.2531646 C185.136932,76.2911392 183.449148,77.653481 183.449148,80.1835443 C183.449148,83.1028481 185.980824,85.4382911 189.226562,85.4382911 C192.342472,85.4382911 194.679403,83.4272152 194.679403,80.7025316 C194.679403,78.1724684 192.926705,76.875 191.044176,75.8370253 C193.316193,74.539557 195.328551,72.9825949 195.328551,70.193038 C195.328551,66.7547468 192.472301,64.289557 188.5125,64.289557 L188.5125,64.289557 Z M173.776847,65.0031646 L173.711932,64.8734177 L173.582102,64.8734177 C173.582102,64.8734177 171.24517,64.8734177 169.88196,64.7436709 L169.817045,64.7436709 L169.557386,65.2626582 L179.554261,82.3243671 L173.257528,82.3243671 C172.283807,82.3243671 171.050426,82.1946203 170.01179,81.4161392 L169.88196,81.3512658 L169.427557,81.6107595 L169.492472,81.7405063 C169.817045,82.6487342 170.076705,84.2056962 170.206534,84.789557 L170.206534,84.9193038 L170.336364,84.9193038 L172.673295,84.9193038 L179.878835,84.9193038 L182.085937,84.9193038 L182.280682,84.9841772 L182.280682,84.789557 C182.280682,84.5300633 182.475426,83.2325949 182.540341,82.9731013 L182.605256,82.9082278 L182.540341,82.8433544 C180.982386,81.0917722 179.164773,77.8481013 177.541903,74.9936709 C174.945312,70.2579114 173.971591,67.6629747 173.776847,65.0031646 L173.776847,65.0031646 Z M169.297727,100.943038 C168.453835,100.943038 166.701136,101.007911 165.078267,101.007911 C163.390483,101.007911 161.702699,100.943038 160.664062,100.943038 C161.183381,103.992089 161.31321,106.651899 161.31321,110.47943 L161.31321,116.966772 C161.31321,119.496835 161.118466,124.167722 160.209659,127.022152 C162.222017,127.022152 165.402841,127.087025 167.545028,127.216772 L167.480114,121.053797 L169.427557,123.583861 C171.829403,126.827532 173.517187,127.800633 176.048864,127.800633 C176.95767,127.800633 177.412074,127.735759 178.385795,127.281646 C177.606818,124.556962 176.827841,121.702532 176.373437,120.015823 C176.243608,119.691456 175.919034,119.172468 175.464631,119.756329 C174.425994,120.859177 174.23125,121.313291 172.997869,121.313291 C171.439915,121.313291 170.206534,120.469937 169.297727,118.977848 C168.51875,117.745253 168.259091,116.707278 168.259091,114.177215 L168.259091,109.830696 C168.259091,105.15981 168.51875,103.213608 169.297727,100.943038 L169.297727,100.943038 Z M160.923722,64.6787975 C157.353409,64.6787975 154.886648,66.8844937 154.886648,69.9335443 C154.886648,72.5933544 156.574432,74.085443 159.235938,75.7072785 C157.548153,76.6803797 155.860369,78.1075949 155.860369,80.5727848 C155.860369,83.556962 158.392045,85.8275316 161.702699,85.8275316 C164.818608,85.8275316 167.090625,83.8164557 167.090625,81.0917722 C167.090625,78.5617089 165.337926,77.2642405 163.455398,76.2262658 C165.727415,74.9936709 167.739773,73.4367089 167.739773,70.6471519 C167.739773,67.2088608 164.883523,64.6787975 160.923722,64.6787975 L160.923722,64.6787975 Z M152.095312,65.1977848 C151.770739,65.2626582 151.121591,65.3275316 150.472443,65.3275316 C149.953125,65.3275316 149.433807,65.2626582 148.784659,65.1977848 L148.525,65.1977848 L148.589915,65.3924051 C148.849574,67.0142405 148.914489,68.6360759 148.914489,70.4525316 L148.914489,79.664557 C148.914489,82.2594937 148.719744,82.5189873 147.875852,82.5189873 C147.681108,82.5189873 147.291619,82.4541139 146.837216,82.3892405 L145.409091,82.0648734 C144.954687,81.9351266 144.695028,81.8702532 144.370455,81.6756329 L144.30554,81.6756329 L143.916051,82 L143.980966,82.1297468 C144.17571,82.5189873 144.435369,83.1677215 144.565199,83.7515823 L144.630114,83.8813291 L144.695028,83.8813291 C145.474006,83.9462025 145.993324,84.0110759 146.837216,84.2056962 L149.88821,84.8544304 C150.472443,84.9841772 151.121591,85.1139241 151.640909,85.3085443 L151.705824,85.3085443 L152.095312,84.9841772 L152.030398,84.9193038 C151.770739,83.1677215 151.705824,81.221519 151.705824,80.1186709 L151.705824,70.1281646 C151.705824,68.1170886 151.900568,66.4952532 152.225142,65.4572785 L152.290057,65.1977848 L152.095312,65.1977848 L152.095312,65.1977848 Z M134.503409,113.723101 C134.503409,122.026899 139.761506,127.735759 147.356534,127.735759 C153.977841,127.735759 158.067472,123.843354 158.067472,117.485759 C158.067472,116.966772 158.067472,114.631329 157.09375,114.631329 L150.342614,114.631329 C147.551278,114.631329 143.656392,114.566456 141.903693,114.501582 C142.033523,108.143987 145.409091,104.511076 151.121591,104.511076 C153.393608,104.511076 154.756818,105.030063 156.639347,106.262658 C157.09375,106.587025 157.613068,106.327532 157.353409,105.484177 C156.834091,103.602848 156.704261,103.148734 156.249858,101.591772 C153.848011,100.748418 150.732102,99.9699367 147.940767,99.9699367 C139.696591,99.9699367 134.503409,105.549051 134.503409,113.723101 L134.503409,113.723101 Z M126.518892,106.392405 C125.739915,104.511076 125.350426,103.083861 124.896023,100.943038 C124.31179,101.007911 123.078409,101.007911 121.845028,101.007911 C120.806392,101.007911 119.443182,100.943038 118.46946,100.943038 C118.079972,103.278481 117.625568,104.705696 116.846591,107.106013 L113.341193,117.810127 C112.237642,121.053797 111.004261,124.556962 108.66733,127.281646 C112.172727,127.151899 114.899148,127.281646 118.274716,127.541139 C118.534375,124.946203 119.053693,122.416139 119.83267,119.950949 L121.780114,113.204114 C122.299432,111.582278 123.338068,108.014241 123.338068,108.014241 C123.662642,109.181962 124.117045,110.349684 124.506534,111.322785 L127.557528,119.302215 C128.076847,120.72943 128.790909,122.870253 128.985653,125.011076 C128.985653,125.724684 129.050568,126.438291 128.985653,127.346519 C129.764631,127.281646 131.127841,127.281646 132.296307,127.281646 C133.334943,127.281646 135.087642,127.411392 135.866619,127.541139 C136.645597,127.606013 136.515767,127.151899 136.256108,126.892405 C134.438494,124.556962 132.945455,121.378165 131.582244,118.134494 L126.518892,106.392405 L126.518892,106.392405 Z M110.549858,106.457278 C110.160369,105.15981 109.056818,101.072785 108.926989,100.683544 C102.95483,100.943038 98.9950284,100.943038 95.4896307,100.943038 L85.8173295,100.943038 C86.2068182,103.732595 86.531392,106.976266 86.531392,110.998418 L86.531392,127.670886 C86.531392,130.39557 86.4015625,135.52057 85.4927557,137.920886 C87.2454545,137.791139 88.54375,137.791139 89.8420455,137.791139 L99.8389205,137.791139 C103.409233,137.791139 104.837358,137.920886 108.732244,137.920886 C108.018182,135.390823 107.304119,132.731013 106.979545,131.693038 C106.719886,130.655063 106.135653,131.433544 106.070739,131.563291 C104.447869,133.963608 101.202131,134.223101 98.2160511,134.223101 C97.2423295,134.223101 96.1387784,134.158228 94.7755682,134.158228 C94.7106534,133.25 94.5808239,130.719937 94.5808239,128.384494 L94.5808239,123 L98.9950284,123 C102.240767,123 105.486506,123.259494 106.784801,123.454114 C107.304119,123.454114 107.17429,123.064873 107.17429,123.064873 C106.784801,121.572785 106.265483,119.691456 105.940909,118.458861 C102.500426,118.783228 100.682812,118.848101 98.2809659,118.848101 L94.5159091,118.848101 L94.5159091,111.322785 C94.5159091,106.457278 95.0352273,104.835443 100.877557,104.835443 C104.123295,104.835443 105.940909,104.835443 109.511222,107.495253 C110.095455,108.014241 110.874432,107.754747 110.549858,106.457278 L110.549858,106.457278 Z M84.0646307,250.476266 C85.1681818,251.254747 86.9857955,251.579114 88.8683239,251.189873 C90.7508523,250.800633 92.3088068,249.827532 93.1526989,248.724684 C91.984233,247.946203 90.2315341,247.621835 88.3490057,248.011076 C86.4664773,248.400316 84.9085227,249.373418 84.0646307,250.476266 L84.0646307,250.476266 Z M81.8575284,257.287975 C83.1558239,257.612342 84.9085227,257.223101 86.531392,256.120253 C88.2191761,255.082278 89.387642,253.59019 89.7771307,252.227848 C88.54375,251.903481 86.7910511,252.292722 85.103267,253.39557 C83.4803977,254.433544 82.247017,255.925633 81.8575284,257.287975 L81.8575284,257.287975 Z M78.546875,263.450949 C79.8451705,263.710443 81.5978693,263.321203 83.2856534,262.283228 C84.9734375,261.18038 86.1419034,259.688291 86.531392,258.325949 C85.2330966,258.066456 83.4803977,258.455696 81.7926136,259.493671 C80.1697443,260.531646 79.0012784,262.023734 78.546875,263.450949 L78.546875,263.450949 Z M79.3258523,278.047468 C80.559233,277.528481 81.8575284,276.166139 82.7663352,274.28481 C83.675142,272.403481 83.9997159,270.457278 83.675142,269.030063 C82.4417614,269.549051 81.1434659,270.911392 80.2346591,272.792722 C79.3258523,274.674051 79.0012784,276.620253 79.3258523,278.047468 L79.3258523,278.047468 Z M83.0259943,283.042722 C83.9997159,282.134494 84.9085227,280.382911 85.2330966,278.306962 C85.5576705,276.166139 85.2330966,274.219937 84.5839489,272.987342 C83.5453125,273.89557 82.7014205,275.647152 82.3768466,277.723101 C82.0522727,279.863924 82.3119318,281.810127 83.0259943,283.042722 L83.0259943,283.042722 Z M84.9734375,284.210443 C85.0383523,286.416139 85.7524148,288.232595 86.6612216,289.27057 C87.4401989,288.102848 87.959517,286.221519 87.8296875,284.015823 C87.699858,281.939873 87.0507102,280.123418 86.1419034,279.085443 C85.3629261,280.188291 84.843608,282.134494 84.9734375,284.210443 L84.9734375,284.210443 Z M87.115625,267.278481 C88.0893466,266.370253 88.9332386,264.618671 89.2578125,262.542722 C89.5823864,260.401899 89.3227273,258.455696 88.6086648,257.223101 C87.5700284,258.131329 86.7261364,259.882911 86.4015625,262.023734 C86.1419034,264.099684 86.4015625,266.045886 87.115625,267.278481 L87.115625,267.278481 Z M85.1681818,262.218354 C83.8698864,262.477848 82.3119318,263.515823 81.0785511,265.137658 C79.8451705,266.824367 79.1960227,268.640823 79.2609375,270.068038 C80.559233,269.873418 82.1171875,268.835443 83.2856534,267.213608 C84.5190341,265.526899 85.1681818,263.710443 85.1681818,262.218354 L85.1681818,262.218354 Z M84.3242898,267.213608 C84.1295455,268.511076 84.4541193,270.197785 85.3629261,271.81962 C86.271733,273.441456 87.5051136,274.609177 88.6086648,274.998418 C88.8683239,273.700949 88.4788352,271.949367 87.5700284,270.327532 C86.7261364,268.705696 85.4278409,267.537975 84.3242898,267.213608 L84.3242898,267.213608 Z M88.4139205,279.474684 C89.7122159,280.642405 91.2052557,281.291139 92.3737216,281.226266 C92.1789773,279.928797 91.3350852,278.436709 89.971875,277.204114 C88.6735795,276.036392 87.1805398,275.387658 86.0120739,275.452532 C86.2068182,276.75 87.0507102,278.242089 88.4139205,279.474684 L88.4139205,279.474684 Z M90.1666193,286.351266 C91.2701705,288.102848 92.6982955,289.27057 93.9316761,289.65981 C94.1264205,288.167722 93.6071023,286.221519 92.5035511,284.53481 C91.4649148,282.718354 89.971875,281.550633 88.7384943,281.226266 C88.6086648,282.653481 89.0630682,284.599684 90.1666193,286.351266 L90.1666193,286.351266 Z M93.9316761,249.632911 C92.6982955,250.151899 91.4649148,251.514241 90.556108,253.39557 C89.6473011,255.276899 89.4525568,257.287975 89.7771307,258.650316 C90.9455966,258.131329 92.243892,256.768987 93.1526989,254.887658 C93.9965909,252.941456 94.25625,250.995253 93.9316761,249.632911 L93.9316761,249.632911 Z M98.0862216,246.324367 C97.1774148,245.221519 95.5545455,244.378165 93.672017,244.118671 C91.7245739,243.859177 89.971875,244.313291 88.9332386,245.156646 C89.7771307,246.19462 91.4649148,247.037975 93.3474432,247.297468 C95.2299716,247.556962 96.9826705,247.167722 98.0862216,246.324367 L98.0862216,246.324367 Z M99.7740057,249.827532 C101.33196,248.594937 102.435511,247.037975 102.760085,245.675633 C101.46179,245.416139 99.7740057,245.935127 98.1511364,247.167722 C96.528267,248.27057 95.4247159,249.892405 95.100142,251.31962 C96.3984375,251.514241 98.0862216,250.995253 99.7740057,249.827532 L99.7740057,249.827532 Z M103.474148,244.702532 C103.539062,244.702532 103.539062,244.637658 103.539062,244.637658 C104.058381,244.378165 104.577699,244.183544 105.097017,243.924051 C105.097017,243.924051 105.68125,244.313291 106.784801,244.702532 C107.888352,245.156646 109.381392,245.286392 110.939347,244.832278 C112.821875,244.378165 114.314915,243.34019 115.093892,242.172468 C113.990341,241.458861 112.237642,241.264241 110.290199,241.718354 C108.5375,242.172468 107.04446,243.14557 106.265483,244.248418 C106.005824,244.053797 105.81108,243.859177 105.55142,243.664557 C107.563778,242.431962 109.186648,240.875 110.809517,238.799051 C110.160369,237.825949 109.90071,237.306962 109.251562,236.333861 C108.018182,239.058544 106.784801,241.264241 105.097017,243.14557 C103.344318,241.264241 101.851278,238.993671 100.682812,236.333861 C100.033665,237.306962 99.7090909,237.761076 99.124858,238.734177 C100.682812,240.810127 102.500426,242.431962 104.577699,243.664557 C104.382955,243.859177 104.123295,244.053797 103.928551,244.313291 C103.084659,243.14557 101.656534,242.172468 99.8389205,241.718354 C97.956392,241.264241 96.1387784,241.458861 95.0352273,242.172468 C95.7492898,243.34019 97.3072443,244.378165 99.1897727,244.832278 C100.812642,245.286392 102.305682,245.156646 103.409233,244.702532 L103.474148,244.702532 L103.474148,244.702532 Z M110.290199,249.827532 C111.913068,250.995253 113.600852,251.514241 114.899148,251.31962 C114.574574,249.892405 113.471023,248.27057 111.913068,247.167722 C110.290199,245.935127 108.5375,245.416139 107.304119,245.675633 C107.563778,247.037975 108.66733,248.594937 110.290199,249.827532 L110.290199,249.827532 Z M116.716761,247.297468 C118.59929,247.037975 120.222159,246.19462 121.130966,245.156646 C120.027415,244.313291 118.274716,243.859177 116.327273,244.118671 C114.444744,244.378165 112.821875,245.221519 111.977983,246.324367 C113.016619,247.167722 114.769318,247.556962 116.716761,247.297468 L116.716761,247.297468 Z M116.911506,254.887658 C117.820312,256.768987 119.053693,258.131329 120.287074,258.650316 C120.611648,257.287975 120.351989,255.276899 119.443182,253.39557 C118.59929,251.514241 117.300994,250.151899 116.067614,249.632911 C115.807955,250.995253 116.002699,252.941456 116.911506,254.887658 L116.911506,254.887658 Z M116.067614,289.65981 C117.365909,289.27057 118.794034,288.102848 119.897585,286.351266 C120.936222,284.599684 121.45554,282.653481 121.260795,281.226266 C120.027415,281.550633 118.59929,282.718354 117.495739,284.53481 C116.392187,286.221519 115.937784,288.167722 116.067614,289.65981 L116.067614,289.65981 Z M124.052131,275.452532 C122.883665,275.387658 121.390625,276.036392 120.027415,277.204114 C118.664205,278.436709 117.820312,279.928797 117.625568,281.226266 C118.794034,281.291139 120.287074,280.642405 121.650284,279.474684 C123.013494,278.242089 123.857386,276.75 124.052131,275.452532 L124.052131,275.452532 Z M123.338068,289.27057 C124.31179,288.232595 124.960937,286.416139 125.025852,284.210443 C125.220597,282.134494 124.701278,280.188291 123.922301,279.085443 C123.013494,280.123418 122.299432,281.939873 122.169602,284.015823 C122.104687,286.221519 122.559091,288.102848 123.338068,289.27057 L123.338068,289.27057 Z M127.03821,283.042722 C127.752273,281.810127 128.011932,279.863924 127.687358,277.723101 C127.362784,275.647152 126.453977,273.89557 125.480256,272.987342 C124.766193,274.219937 124.506534,276.166139 124.831108,278.306962 C125.155682,280.382911 125.999574,282.134494 127.03821,283.042722 L127.03821,283.042722 Z M130.673438,278.047468 C130.998011,276.620253 130.738352,274.674051 129.829545,272.792722 C128.920739,270.911392 127.557528,269.549051 126.389063,269.030063 C126.064489,270.457278 126.324148,272.403481 127.232955,274.28481 C128.141761,276.166139 129.440057,277.528481 130.673438,278.047468 L130.673438,278.047468 Z M123.532813,258.325949 C123.922301,259.688291 125.090767,261.18038 126.778551,262.283228 C128.466335,263.321203 130.154119,263.710443 131.452415,263.450949 C131.062926,262.023734 129.89446,260.531646 128.206676,259.493671 C126.518892,258.455696 124.766193,258.066456 123.532813,258.325949 L123.532813,258.325949 Z M122.94858,267.278481 C123.597727,266.045886 123.922301,264.099684 123.597727,262.023734 C123.273153,259.882911 122.429261,258.131329 121.390625,257.223101 C120.741477,258.455696 120.416903,260.401899 120.741477,262.542722 C121.066051,264.618671 121.909943,266.370253 122.94858,267.278481 L122.94858,267.278481 Z M126.713636,267.213608 C127.947017,268.835443 129.440057,269.873418 130.738352,270.068038 C130.803267,268.640823 130.154119,266.824367 128.920739,265.137658 C127.687358,263.515823 126.194318,262.477848 124.896023,262.218354 C124.896023,263.710443 125.480256,265.526899 126.713636,267.213608 L126.713636,267.213608 Z M125.739915,267.213608 C124.571449,267.537975 123.338068,268.705696 122.429261,270.327532 C121.520455,271.949367 121.195881,273.700949 121.390625,274.998418 C122.494176,274.609177 123.727557,273.441456 124.636364,271.81962 C125.54517,270.197785 125.934659,268.511076 125.739915,267.213608 L125.739915,267.213608 Z M125.934659,250.476266 C125.155682,249.373418 123.597727,248.400316 121.650284,248.011076 C119.767756,247.621835 118.015057,247.946203 116.911506,248.724684 C117.690483,249.827532 119.248437,250.800633 121.195881,251.189873 C123.078409,251.579114 124.831108,251.254747 125.934659,250.476266 L125.934659,250.476266 Z M124.896023,253.39557 C123.273153,252.292722 121.45554,251.903481 120.222159,252.227848 C120.611648,253.59019 121.780114,255.082278 123.467898,256.120253 C125.155682,257.223101 126.908381,257.612342 128.141761,257.287975 C127.752273,255.925633 126.583807,254.433544 124.896023,253.39557 L124.896023,253.39557 Z M141.059801,238.344937 L167.674858,294.849684 C166.701136,296.990506 168.324006,299.650316 170.401278,299.650316 C172.478551,299.650316 174.425994,296.990506 173.452273,294.914557 L200.262074,238.734177 C204.806108,236.528481 206.818466,233.738924 206.558807,231.857595 C206.364062,229.846519 204.935937,228.613924 203.248153,227.96519 C203.377983,217.780063 202.92358,181.64557 203.053409,161.015823 C205.325426,160.496835 205.325426,158.096519 205.130682,150.311709 C205.000852,142.851266 205.65,140.321203 200.716477,140.321203 C200.06733,140.321203 198.769034,140.386076 198.769034,140.386076 L198.769034,142.916139 C198.704119,144.213608 198.704119,144.602848 197.990057,144.862342 C195.912784,145.705696 193.705682,146.419304 191.303835,147.392405 C189.616051,147.976266 138.852699,166.140823 138.852699,166.140823 C138.852699,166.140823 136.515767,166.789557 136.515767,169.060127 C136.515767,169.254747 136.450852,171.200949 136.450852,171.849684 L136.450852,179.115506 C136.450852,180.996835 137.684233,181.64557 138.787784,181.515823 C138.852699,181.515823 138.852699,181.710443 138.852699,181.84019 C138.787784,188.522152 138.722869,223.488924 138.722869,227.186709 C136.385937,227.900316 135.73679,229.522152 135.73679,229.522152 C134.633239,231.922468 135.801705,235.55538 141.059801,238.344937 L141.059801,238.344937 Z M214.738068,262.283228 C216.360937,261.18038 217.594318,259.688291 217.983807,258.325949 C216.685511,258.066456 214.932812,258.455696 213.309943,259.493671 C211.622159,260.531646 210.388778,262.023734 209.99929,263.450949 C211.297585,263.710443 213.050284,263.321203 214.738068,262.283228 L214.738068,262.283228 Z M210.778267,278.047468 C212.011648,277.528481 213.309943,276.166139 214.21875,274.28481 C215.127557,272.403481 215.452131,270.457278 215.127557,269.030063 C213.894176,269.549051 212.595881,270.911392 211.687074,272.792722 C210.778267,274.674051 210.453693,276.620253 210.778267,278.047468 L210.778267,278.047468 Z M214.478409,283.042722 C215.517045,282.134494 216.360937,280.382911 216.685511,278.306962 C217.010085,276.166139 216.750426,274.219937 216.036364,272.987342 C214.997727,273.89557 214.153835,275.647152 213.829261,277.723101 C213.504687,279.863924 213.764347,281.810127 214.478409,283.042722 L214.478409,283.042722 Z M216.425852,284.210443 C216.555682,286.416139 217.20483,288.232595 218.113636,289.27057 C218.957528,288.102848 219.411932,286.221519 219.282102,284.015823 C219.152273,281.939873 218.503125,280.123418 217.594318,279.085443 C216.750426,280.188291 216.296023,282.134494 216.425852,284.210443 L216.425852,284.210443 Z M219.80142,279.474684 C221.164631,280.642405 222.65767,281.291139 223.891051,281.226266 C223.631392,279.928797 222.7875,278.436709 221.489205,277.204114 C220.125994,276.036392 218.56804,275.387658 217.399574,275.452532 C217.594318,276.75 218.503125,278.242089 219.80142,279.474684 L219.80142,279.474684 Z M221.619034,286.351266 C222.722585,288.102848 224.15071,289.27057 225.384091,289.65981 C225.578835,288.167722 225.059517,286.221519 224.020881,284.53481 C222.852415,282.718354 221.489205,281.550633 220.190909,281.226266 C220.06108,282.653481 220.515483,284.599684 221.619034,286.351266 L221.619034,286.351266 Z M225.384091,249.632911 C224.15071,250.151899 222.852415,251.514241 222.008523,253.39557 C221.099716,255.276899 220.840057,257.287975 221.164631,258.650316 C222.398011,258.131329 223.696307,256.768987 224.540199,254.887658 C225.449006,252.941456 225.708665,250.995253 225.384091,249.632911 L225.384091,249.632911 Z M220.320739,251.189873 C222.203267,250.800633 223.761222,249.827532 224.540199,248.724684 C223.436648,247.946203 221.683949,247.621835 219.80142,248.011076 C217.918892,248.400316 216.360937,249.373418 215.517045,250.476266 C216.685511,251.254747 218.43821,251.579114 220.320739,251.189873 L220.320739,251.189873 Z M221.29446,252.227848 C219.996165,251.903481 218.243466,252.292722 216.555682,253.39557 C214.867898,254.433544 213.699432,255.925633 213.309943,257.287975 C214.608239,257.612342 216.360937,257.223101 217.983807,256.120253 C219.671591,255.082278 220.840057,253.59019 221.29446,252.227848 L221.29446,252.227848 Z M218.56804,267.278481 C219.606676,266.370253 220.450568,264.618671 220.710227,262.542722 C221.034801,260.401899 220.775142,258.455696 220.06108,257.223101 C219.022443,258.131329 218.178551,259.882911 217.918892,262.023734 C217.594318,264.099684 217.853977,266.045886 218.56804,267.278481 L218.56804,267.278481 Z M216.555682,262.218354 C215.322301,262.477848 213.764347,263.515823 212.530966,265.137658 C211.297585,266.824367 210.648437,268.640823 210.713352,270.068038 C212.011648,269.873418 213.504687,268.835443 214.738068,267.213608 C215.971449,265.526899 216.620597,263.710443 216.555682,262.218354 L216.555682,262.218354 Z M215.776705,267.213608 C215.58196,268.511076 215.906534,270.197785 216.815341,271.81962 C217.724148,273.441456 218.957528,274.609177 220.125994,274.998418 C220.320739,273.700949 219.93125,271.949367 219.022443,270.327532 C218.113636,268.705696 216.880256,267.537975 215.776705,267.213608 L215.776705,267.213608 Z M229.473722,246.324367 C228.62983,245.221519 227.00696,244.378165 225.124432,244.118671 C223.176989,243.859177 221.489205,244.313291 220.385653,245.156646 C221.29446,246.19462 222.852415,247.037975 224.799858,247.297468 C226.682386,247.556962 228.435085,247.167722 229.473722,246.324367 L229.473722,246.324367 Z M231.22642,249.827532 C232.784375,248.594937 233.887926,247.037975 234.2125,245.675633 C232.914205,245.416139 231.22642,245.935127 229.603551,247.167722 C227.980682,248.27057 226.877131,249.892405 226.552557,251.31962 C227.850852,251.514241 229.603551,250.995253 231.22642,249.827532 L231.22642,249.827532 Z M236.419602,243.924051 C236.874006,244.183544 237.393324,244.378165 237.912642,244.637658 C237.977557,244.637658 237.977557,244.702532 238.042472,244.702532 L238.042472,244.702532 C239.210938,245.156646 240.703977,245.286392 242.261932,244.832278 C244.14446,244.378165 245.702415,243.34019 246.481392,242.172468 C245.312926,241.458861 243.495313,241.264241 241.677699,241.718354 C239.860085,242.172468 238.367045,243.14557 237.588068,244.313291 C237.328409,244.053797 237.133665,243.859177 236.874006,243.664557 C239.016193,242.431962 240.833807,240.810127 242.391761,238.734177 C241.742614,237.761076 241.482955,237.306962 240.833807,236.333861 C239.665341,238.993671 238.172301,241.264241 236.419602,243.14557 C234.731818,241.264241 233.433523,239.058544 232.200142,236.333861 C231.615909,237.306962 231.291335,237.825949 230.707102,238.799051 C232.265057,240.875 233.887926,242.431962 235.900284,243.664557 C235.70554,243.859177 235.445881,244.053797 235.251136,244.248418 C234.407244,243.14557 232.979119,242.172468 231.161506,241.718354 C229.278977,241.264241 227.526278,241.458861 226.357813,242.172468 C227.13679,243.34019 228.62983,244.378165 230.512358,244.832278 C232.070313,245.286392 233.563352,245.156646 234.731818,244.702532 C235.770455,244.313291 236.419602,243.924051 236.419602,243.924051 L236.419602,243.924051 Z M241.742614,249.827532 C243.365483,250.995253 245.053267,251.514241 246.351563,251.31962 C246.026989,249.892405 244.923438,248.27057 243.365483,247.167722 C241.742614,245.935127 239.989915,245.416139 238.691619,245.675633 C239.016193,247.037975 240.119744,248.594937 241.742614,249.827532 L241.742614,249.827532 Z M248.169176,247.297468 C250.051705,247.037975 251.674574,246.19462 252.518466,245.156646 C251.47983,244.313291 249.727131,243.859177 247.844602,244.118671 C245.897159,244.378165 244.27429,245.221519 243.430398,246.324367 C244.469034,247.167722 246.221733,247.556962 248.169176,247.297468 L248.169176,247.297468 Z M248.36392,254.887658 C249.272727,256.768987 250.506108,258.131329 251.739489,258.650316 C252.064062,257.287975 251.804403,255.276899 250.960511,253.39557 C250.051705,251.514241 248.753409,250.151899 247.584943,249.632911 C247.195455,250.995253 247.455114,252.941456 248.36392,254.887658 L248.36392,254.887658 Z M247.520028,289.65981 C248.818324,289.27057 250.246449,288.102848 251.35,286.351266 C252.453551,284.599684 252.907955,282.653481 252.778125,281.226266 C251.47983,281.550633 250.051705,282.718354 248.948153,284.53481 C247.844602,286.221519 247.390199,288.167722 247.520028,289.65981 L247.520028,289.65981 Z M255.504545,275.452532 C254.33608,275.387658 252.84304,276.036392 251.47983,277.204114 C250.116619,278.436709 249.272727,279.928797 249.077983,281.226266 C250.246449,281.291139 251.739489,280.642405 253.102699,279.474684 C254.465909,278.242089 255.309801,276.75 255.504545,275.452532 L255.504545,275.452532 Z M254.855398,289.27057 C255.764205,288.232595 256.413352,286.416139 256.543182,284.210443 C256.608097,282.134494 256.153693,280.188291 255.374716,279.085443 C254.400994,280.123418 253.751847,281.939873 253.686932,284.015823 C253.557102,286.221519 254.011506,288.102848 254.855398,289.27057 L254.855398,289.27057 Z M258.490625,283.042722 C259.139773,281.810127 259.464347,279.863924 259.139773,277.723101 C258.815199,275.647152 257.906392,273.89557 256.93267,272.987342 C256.218608,274.219937 255.958949,276.166139 256.283523,278.306962 C256.608097,280.382911 257.451989,282.134494 258.490625,283.042722 L258.490625,283.042722 Z M258.166051,267.213608 C259.399432,268.835443 260.892472,269.873418 262.190767,270.068038 C262.255682,268.640823 261.606534,266.824367 260.373153,265.137658 C259.139773,263.515823 257.646733,262.477848 256.348437,262.218354 C256.283523,263.710443 256.93267,265.526899 258.166051,267.213608 L258.166051,267.213608 Z M255.050142,262.023734 C254.725568,259.882911 253.881676,258.131329 252.84304,257.223101 C252.193892,258.455696 251.869318,260.401899 252.193892,262.542722 C252.518466,264.618671 253.362358,266.370253 254.400994,267.278481 C255.050142,266.045886 255.374716,264.099684 255.050142,262.023734 L255.050142,262.023734 Z M253.881676,270.327532 C252.972869,271.949367 252.648295,273.700949 252.84304,274.998418 C253.946591,274.609177 255.179972,273.441456 256.088778,271.81962 C256.997585,270.197785 257.387074,268.511076 257.127415,267.213608 C256.023864,267.537975 254.790483,268.705696 253.881676,270.327532 L253.881676,270.327532 Z M262.125852,278.047468 C262.450426,276.620253 262.190767,274.674051 261.217045,272.792722 C260.308239,270.911392 259.009943,269.549051 257.841477,269.030063 C257.516903,270.457278 257.776562,272.403481 258.685369,274.28481 C259.594176,276.166139 260.892472,277.528481 262.125852,278.047468 L262.125852,278.047468 Z M294.583239,277.852848 L250.246449,318.204114 C239.79517,311.392405 226.163068,307.240506 211.167756,307.240506 C195.523295,307.240506 181.30696,311.781646 170.725852,319.177215 C160.144744,311.781646 145.928409,307.240506 130.283949,307.240506 C115.288636,307.240506 101.656534,311.392405 91.2701705,318.204114 L46.8684659,277.852848 C46.8684659,277.852848 68.2903409,257.547468 68.4201705,241.134494 C68.4850852,224.656646 63.6164773,211.357595 57.5794034,194.55538 C55.3723011,188.262658 52.7757102,178.337025 51.5423295,166.85443 C51.2826705,164.648734 51.0230114,162.248418 50.8931818,159.848101 C50.7633523,157.707278 50.7633523,155.501582 50.6984375,153.295886 C50.6335227,139.672468 52.9704545,125.140823 59.8514205,112.55538 C60.8900568,110.674051 61.993608,108.857595 63.2269886,107.106013 C66.7973011,101.981013 95.8142045,53.9746835 157.418324,47.681962 L157.677983,47.4873418 L170.725852,34.4477848 L183.838636,47.4873418 L184.033381,47.681962 C245.6375,53.9746835 274.654403,101.981013 278.224716,107.106013 C279.458097,108.857595 280.626562,110.674051 281.600284,112.55538 C288.48125,125.140823 290.818182,139.672468 290.753267,153.295886 C290.753267,155.501582 290.688352,157.707278 290.558523,159.848101 C290.428693,162.248418 290.169034,164.648734 289.97429,166.85443 C288.675994,178.337025 286.144318,188.262658 283.872301,194.55538 C277.900142,211.357595 272.966619,224.656646 273.096449,241.134494 C273.161364,257.547468 294.583239,277.852848 294.583239,277.852848 L294.583239,277.852848 Z" id="path5893"></path>
                    </g>
                    <g id="g5895" transform="translate(176.090214, 114.639114)" fill="#274488">
                        <path d="M64.9147727,0 C66.3428977,0.84335443 67.8359375,1.88132911 67.8359375,3.89240506 C67.8359375,5.64398734 66.537642,7.00632911 64.7200284,7.00632911 C62.9673295,7.00632911 61.6690341,5.70886076 61.6690341,3.95727848 C61.6690341,2.07594937 63.0971591,1.03797468 64.9147727,0" id="path5897"></path>
                    </g>
                    <g id="g5899" transform="translate(175.239831, 47.281044)" fill="#274488">
                        <path d="M64.9147727,64.8734177 C62.5129261,63.7056962 61.3444602,62.1487342 61.3444602,60.2674051 C61.3444602,58.1914557 62.9024148,56.6344937 65.109517,56.6344937 C67.3166193,56.6344937 69.0044034,58.1914557 69.0044034,60.2674051 C69.0044034,62.278481 67.6411932,63.3813291 64.9147727,64.8734177" id="path5901"></path>
                    </g>
                    <g id="g5903" transform="translate(147.664035, 47.683259)" fill="#274488">
                        <path d="M64.9147727,64.8734177 C62.5129261,63.7056962 61.3444602,62.1487342 61.3444602,60.2674051 C61.3444602,58.1914557 62.9024148,56.6344937 65.109517,56.6344937 C67.3166193,56.6344937 69.0044034,58.2563291 69.0044034,60.2674051 C69.0044034,62.278481 67.6411932,63.3813291 64.9147727,64.8734177" id="path5905"></path>
                    </g>
                </g>
            </g>
        </g>
    </g>
</svg>