<?xml version="1.0" encoding="UTF-8" standalone="no"?>
<svg width="512px" height="512px" viewBox="0 0 512 512" version="1.1" xmlns="http://www.w3.org/2000/svg" xmlns:xlink="http://www.w3.org/1999/xlink" xmlns:sketch="http://www.bohemiancoding.com/sketch/ns">
    <!-- Generator: Sketch 3.3.1 (12002) - http://www.bohemiancoding.com/sketch -->
    <title>leicester-city</title>
    <desc>Created with Sketch.</desc>
    <defs></defs>
    <g id="EPL" stroke="none" stroke-width="1" fill="none" fill-rule="evenodd" sketch:type="MSPage">
        <g id="leicester-city" sketch:type="MSArtboardGroup">
            <g sketch:type="MSLayerGroup" transform="translate(74.000000, 75.000000)">
                <path d="M18.412707,183.557732 C17.2726764,93.5857805 89.400619,19.6968537 179.486736,18.556061 C269.568543,17.4169902 343.547689,89.4617073 344.689874,179.433659 C345.82775,269.40561 273.697652,343.294537 183.615845,344.431024 C93.5340379,345.571817 19.5548926,273.529683 18.412707,183.557732 L18.4122759,183.557732 L18.412707,183.557732 Z M179.460875,16.5241585 C88.2541233,17.6774354 15.2232076,92.4880366 16.3783236,183.583561 C17.5338706,274.679085 92.4349536,347.616634 183.641706,346.467232 C274.848458,345.313524 347.875063,270.503354 346.724258,179.407829 C345.569142,88.3123049 270.667628,15.3704512 179.460875,16.5241585 L179.460875,16.5241585 Z" id="ellipse-small" fill="#0053A0" sketch:type="MSShapeGroup"></path>
                <path d="M175.569255,73.1892683 C155.540061,73.1419146 132.269646,81.0715 116.628168,94.0033537 C116.576447,94.0377927 116.576447,94.1755488 116.6842,94.2315122 C125.627729,97.7744268 131.76105,102.475354 141.320928,107.822012 C141.665739,108.011427 141.786422,107.929634 141.859695,107.619683 C146.484469,84.1580976 175.159792,90.6670732 177.836386,73.5594878 C177.720012,73.4432561 177.737253,73.2323171 177.491575,73.2194024 C176.857985,73.2021829 176.211465,73.1935732 175.569255,73.1892683 L175.569255,73.1892683 Z M187.495397,73.2194024 C187.297131,73.2194024 187.232479,73.3011951 187.241099,73.6154512 C186.038571,76.6288659 189.572882,79.767122 191.633126,81.7990244 C191.831392,81.9841341 192.158962,82.199378 192.40464,82.307 C205.205739,87.5115976 219.37315,91.3558537 222.476447,106.061317 C222.541099,106.289476 222.5842,106.435841 222.821258,106.233512 C229.6442,101.71339 236.411111,97.1286951 243.315946,92.7807683 C243.669377,92.6344024 243.540073,92.4708171 243.315946,92.3287561 C227.71326,81.248 208.218523,74.0373293 187.495397,73.2194024 L187.495397,73.2194024 Z M107.667399,101.450793 C95.1848193,112.50572 84.4741355,126.965805 78.8959597,143.212415 C78.8334628,143.371695 78.9287167,143.444878 79.1511197,143.466402 C91.3660403,144.568451 95.3572247,128.657622 104.719267,122.74272 C104.844261,122.669537 104.956325,122.604963 104.947705,122.454293 C104.283944,115.204878 103.964994,109.096256 107.667399,101.450793 L107.667399,101.450793 Z M258.345385,104.929134 C259.035006,110.55561 258.50917,115.893659 257.013553,121.093951 C256.948901,121.339329 256.957521,121.528744 257.23768,121.718159 C266.263101,126.539622 271.155104,140.620878 281.585629,141.171902 C281.714933,141.227866 281.913199,141.236476 281.839927,141.06428 C278.219414,128.498341 267.806129,113.629293 258.345385,104.929134 L258.345385,104.929134 Z M285.188901,149.299512 C272.387802,162.119439 293.16265,183.60078 264.978681,195.589866 C262.491734,196.321695 260.103919,197.19128 257.854029,197.19989 C251.587094,197.230024 242.669426,192.455915 242.725458,201.95678 C242.725458,202.128976 242.880623,202.249512 243.087509,202.331305 C251.79398,206.055024 263.560647,214.126671 263.750293,226.567768 C264.176996,241.398073 248.548449,251.38539 251.026777,265.470951 C284.426007,236.623963 298.162405,194.0315 285.188901,149.299512 L285.188901,149.299512 Z M76.3973748,151.417512 C76.2896215,151.447646 76.210746,151.563878 76.113337,151.792037 C63.4652479,186.312854 75.8930891,239.977463 114.692487,268.325085 C114.701107,267.593256 115.127811,266.069329 115.571755,265.044768 C115.73554,264.64872 115.709679,264.140744 115.571755,263.658598 C114.14941,257.416524 110.421144,251.122793 106.873904,244.996951 C94.6365702,224.708061 101.430204,210.794695 121.18786,201.767366 C121.442158,201.685573 121.498189,201.543512 121.360265,201.280915 C121.054245,200.609354 120.752536,199.946402 120.455137,199.266232 C120.364624,199.085427 120.455137,198.723817 120.002573,198.78839 C115.571755,199.339415 110.584929,199.731159 106.076529,199.528829 C99.2923773,198.017817 92.8133834,195.318659 87.9347424,188.142427 C79.2006862,175.963927 91.1621709,159.583866 76.7374444,151.507915 C76.6180537,151.439037 76.5055592,151.391683 76.3973748,151.417512 L76.3973748,151.417512 Z M259.306545,201.315354 C259.634115,201.315354 259.970305,201.362707 260.297875,201.45311 C264.676972,202.249512 271.301648,204.823829 275.236801,209.688341 C275.491099,210.002598 275.374725,210.265195 274.982503,210.230756 C268.659536,210.041341 261.556435,209.343951 256.638571,205.473866 C255.94033,204.922841 255.29812,204.376122 255.789475,203.063134 C256.151526,202.232293 257.310952,201.595171 258.280733,201.422976 C258.634164,201.362707 258.970354,201.306744 259.306545,201.315354 L259.306545,201.315354 Z M102.904701,203.889671 C103.258132,203.881061 103.602943,203.889671 103.956374,203.9155 C104.249463,203.949939 104.546862,203.949939 104.745128,204.143659 C105.960586,205.590098 105.719219,207.61339 103.447778,209.180366 C98.6505983,212.249744 93.089663,212.421939 87.9674994,212.641488 C87.7670781,212.650098 87.4162332,212.430549 87.7692332,212.099073 C92.4362466,207.828634 97.5989255,203.941329 102.904701,203.889671 L102.904701,203.889671 Z M189.628913,262.074402 C189.564261,262.065793 189.490989,262.083012 189.430647,262.130366 C185.499805,263.994378 179.323382,264.902707 175.849414,262.952598 C175.431331,262.745963 175.185653,262.900939 175.021868,263.142012 C168.780794,273.697573 153.949621,273.44789 143.419963,270.765951 C135.59707,269.005256 127.942271,266.775329 121.619304,273.030317 C154.54011,296.741585 205.287631,297.482024 243.376288,271.390159 C236.191294,268.00222 229.670061,270.43878 221.769585,272.268354 C212.826056,274.343305 200.270635,276.220232 190.137509,262.302561 C189.965104,262.255207 189.809939,262.083012 189.628913,262.074402 L189.628913,262.074402 Z M183.051648,264.450695 C183.142161,264.459305 183.241294,264.467915 183.361978,264.476524 C184.504164,264.609976 185.154994,265.191134 185.853236,265.978927 C186.189426,266.422329 186.31011,266.938915 186.254078,267.485634 C186.064432,272.358756 185.228266,277.287841 183.586105,281.553976 C183.551624,281.756305 183.405079,281.799354 183.331807,281.553976 C181.426728,275.548671 178.172576,269.470183 182.280134,264.739122 C182.543053,264.510963 182.762869,264.43778 183.051648,264.450695 L183.051648,264.450695 Z" id="kinda-ellipse" fill="#0053A0" sketch:type="MSShapeGroup"></path>
                <path d="M193.594237,27.7745268 C194.572637,29.0646988 195.551038,30.5008061 195.206227,32.0492707 C193.947668,39.1329476 192.594286,46.2019878 191.154701,53.2576829 C190.900403,54.8332683 189.753907,55.5091341 188.603101,56.5681341 C196.361343,57.9758293 210.873565,60.7137317 218.657668,62.1773902 C218.450781,59.1080122 220.799805,57.312878 221.743724,54.5319268 C219.157643,56.3399756 215.856081,57.0029268 212.787265,56.3442805 C209.593455,55.7415976 201.684359,54.1703171 198.49917,53.5116707 C199.016386,51.0449756 199.343956,48.5309268 199.917204,46.0642317 C203.020501,46.6109512 208.015946,47.7861829 211.110623,48.1607073 C213.748425,48.7849146 215.744017,45.1257683 217.179292,43.4038171 C216.17072,43.6319756 214.274261,43.7482073 213.244139,43.5157439 C209.994298,42.8859402 204.154066,41.657328 200.904225,40.9973902 C201.193004,38.6456354 201.692979,36.3261671 202.184335,34.0316671 C207.753028,35.4940341 219.394701,36.0394622 223.52812,40.7141293 C223.666044,38.1333549 222.204908,34.9270817 223.674664,33.2111573 C215.981074,31.7195171 201.287827,29.2080512 193.594237,27.7745268 L193.594237,27.7745268 Z M189.883211,27.8877451 C182.46978,27.9221841 168.263578,28.7013671 160.854457,28.793922 C162.440586,31.3996646 160.082943,33.6877073 160.026911,36.2968939 C162.539719,34.0200439 168.810965,33.3385817 172.073736,33.4375939 C172.065116,40.5798171 172.802149,47.7517439 172.901282,54.8720122 C172.944383,56.219439 171.892711,57.0761098 171.030684,57.6185244 C174.254664,57.5840854 179.349243,57.1880366 182.370647,57.136378 C180.883651,55.7717317 180.129377,55.6598049 180.103516,53.7398293 C179.57768,47.1662805 179.314762,39.5027366 179.133736,32.9554476 C182.46978,32.7126524 188.603101,33.3106 191.327106,34.9658256 C191.314176,32.0901671 188.529829,29.2300061 189.883211,27.8877451 L189.883211,27.8877451 Z M157.453761,29.8133171 C152.716923,30.8451963 142.165714,31.5864963 138.084017,34.6834256 C133.204945,38.0666293 132.08,45.5734756 138.402967,48.8667073 C142.385531,50.4939512 149.941197,48.7246463 153.876349,49.0389024 C156.583114,49.1508293 157.725299,52.8960732 155.945214,54.7299512 C152.100574,58.1437195 141.657118,58.1437195 137.096996,56.7661585 C138.213321,59.3792195 139.46326,61.6349756 140.644237,64.2135976 C142.195885,63.2406951 144.950061,62.999622 146.704286,62.6853659 C150.441172,62.1429512 159.294188,59.749439 161.789756,56.7403293 C164.772369,53.2404634 164.918913,48.1693171 162.013883,44.9621829 C159.401941,42.1037439 151.311819,42.6087061 147.872332,42.8377256 C145.911221,42.8377256 144.290611,43.5286585 142.428632,42.611289 C140.842503,41.5212939 140.933016,38.8001805 142.708791,37.8823805 C146.122418,36.0760537 153.859109,35.7966671 157.42359,37.2590341 C157.216703,34.7647878 157.535653,32.3075634 157.453761,29.8133171 L157.453761,29.8133171 Z M233.760379,36.1836756 C234.398278,37.7609829 234.76895,39.2504707 234.014676,40.742111 C231.204469,46.7917561 228.010659,52.797061 225.036667,58.8927683 C224.200501,60.6706829 223.131587,61.798561 221.153236,62.5433049 C223.791038,63.8907317 228.320989,66.1507927 230.984652,67.4982195 C229.868327,63.4258049 232.635433,59.7709634 234.217253,56.4863415 C235.73873,57.3171829 239.820427,59.219939 240.820379,60.8730122 C242.16083,63.137378 242.4884,65.4620122 242.777179,67.8081707 C242.906484,69.9304756 243.078889,71.5318902 240.885031,72.2852439 C243.966777,73.5379634 248.811368,76.1165854 251.677607,77.4941463 C249.401856,72.810439 250.80696,66.4392195 247.768315,61.8373049 C249.746667,61.9234024 253.06547,62.254878 255.168816,60.9591098 C258.970354,58.7334878 259.897033,55.2120976 258.599683,50.5671341 C257.8842,48.1219634 255.479145,46.7271829 253.436142,45.7542805 C248.55707,43.3435488 238.643761,38.5638427 233.760379,36.1836756 L233.760379,36.1836756 Z M122.606325,39.2978244 C115.804933,43.1123768 102.732295,49.6372805 96.0196923,53.5676341 C97.7713309,54.0282561 98.9867888,54.6825976 99.8186447,56.2022195 C103.176239,62.2247439 106.525214,68.2429634 109.852637,74.2654878 C110.714664,75.7592805 110.451746,77.5587195 109.770745,79.2204024 C116.748852,75.3503171 129.812869,68.5658293 136.812527,64.725878 C134.627289,63.4860732 136.015153,59.3490854 135.135885,56.6284024 C134.446264,59.0046951 131.989487,61.1657439 129.985275,62.6294024 C126.735433,64.8076707 119.106496,68.6906707 115.72304,70.6149512 C114.490342,68.432378 113.236093,66.1981463 112.068046,63.9596098 C114.705849,62.3237561 120.821929,59.6202927 123.40801,57.9026463 C124.920867,56.0085 124.032979,53.2749024 124.36917,51.0492805 C123.705409,51.8499878 122.843382,52.5732073 121.899463,53.0596585 C119.063394,54.6352439 112.83956,58.0791463 109.964701,59.6289024 C108.874237,57.562561 107.568266,55.6038415 106.624347,53.4557073 C111.8784,51.0751098 121.300354,44.7038902 127.287131,45.0439756 C125.791514,42.8665683 123.386459,41.8790293 122.606325,39.2978244 L122.606325,39.2978244 Z M239.91094,44.7899878 C242.505641,46.0857561 246.3158,47.7775732 248.673443,49.0647317 C254.927448,52.3106098 250.479389,59.0994024 245.953748,56.5423049 C243.367668,55.6813293 238.842027,53.1285366 236.320598,52.0953659 C237.406752,49.5727073 238.794615,47.3126463 239.91094,44.7899878 L239.91094,44.7899878 Z M89.8708547,58.1265 C89.1523553,59.1596707 88.211453,60.102439 87.0921111,60.705122 C83.3522076,62.4442927 76.6516728,68.4797317 75.0444237,72.2852439 C72.8044469,76.6417805 72.8281526,80.649622 75.4689719,85.7336829 C78.4787387,91.730378 82.7462027,94.5113293 89.2747631,94.5113293 C95.7602222,94.1109756 101.600454,88.4371463 104.268427,84.9415854 C105.738183,83.2497683 107.164838,81.3857561 109.319905,80.4386829 C107.509648,78.4326098 105.604569,76.5298537 103.759832,74.5496098 C103.100381,76.9560366 101.936645,79.0266829 100.359136,81.0327561 C98.0273529,83.6759512 94.4085641,87.8301585 90.2954029,87.6321341 C86.1813797,87.4298049 84.8723919,85.4710854 83.0379988,83.4693171 C81.2040366,81.4675488 79.9420293,79.13 80.2605482,75.5397317 C80.5786361,71.9494634 87.7045812,65.3199512 92.8482955,65.1219268 C91.6686117,62.8833902 91.0518315,60.3908659 89.8708547,58.1265 L89.8708547,58.1265 Z M64.8388877,82.2768659 C62.9618242,84.6962073 59.6262112,88.9020732 57.6379463,91.2310122 C59.4839768,90.9598049 61.1649292,91.1147805 62.570895,92.2168293 C67.9693382,96.4140854 73.3604542,100.65439 78.7291575,104.877476 C80.1079695,105.919256 80.7312149,107.477622 80.9118095,109.259841 C82.8983504,106.896463 86.0969011,102.755171 88.0274103,100.452061 C86.3555092,100.67161 84.7271404,100.762012 83.4353932,99.7202317 C77.9516093,95.4971463 72.5604933,91.2051829 67.1068803,86.9519634 C65.6151429,85.8197805 64.7832869,84.2872439 64.8388877,82.2768659 L64.8388877,82.2768659 Z M52.0252894,98.5320854 C48.6043358,105.553341 41.5258022,118.601427 38.1630354,125.622683 C40.0288926,124.882244 41.4305482,125.015695 43.123569,125.876671 C49.2086166,128.92022 55.3238352,131.877671 61.4080208,134.882476 C62.9010513,135.635829 64.208315,137.129622 64.8095788,138.679378 C68.2016545,131.54189 74.4599695,118.911378 78.361072,111.834159 C77.557232,111.834159 76.7516679,111.162598 76.17842,110.594354 C74.5707399,109.070427 73.7595726,107.331256 72.1243077,105.837463 C72.5794579,108.670073 72.1695641,112.062317 70.9329866,114.813134 C69.4959878,117.878207 65.6806569,125.308427 64.2436581,128.377805 C61.8605849,127.572793 60.0192955,126.203841 57.7232869,125.170671 C58.8732308,122.424159 62.2704786,116.199305 63.4488694,113.482927 C63.4617998,111.890122 61.5657717,109.199573 60.2179927,107.275293 C60.1598059,108.308463 59.714138,109.358854 59.2253687,110.310232 C57.7594921,113.293512 54.4553431,119.897195 52.9605885,122.850341 C50.8650012,121.791341 48.1388413,120.76678 46.043685,119.73361 C47.5095617,116.754634 51.210674,109.298585 52.7338755,106.345439 C53.9121369,104.02511 55.8216988,102.08361 58.1767131,100.908378 C55.7364443,99.9268659 54.1198853,100.228207 52.0252894,98.5320854 L52.0252894,98.5320854 Z M56.4186093,137.573024 C57.3956305,139.152915 57.6086374,141.826244 57.6668242,143.716085 C57.9245702,147.280524 55.8307932,154.039183 55.284656,157.508915 C48.7104082,156.221756 42.1012482,154.637561 35.5541542,153.204037 C33.7460529,152.859646 33.0167781,151.408902 31.95433,149.859146 C31.2651396,152.816598 30.091059,158.404329 29.4600553,161.38761 C30.7806805,160.414707 31.7651151,159.657049 33.3154705,160.001439 C40.3203007,161.469402 47.2880639,163.006244 54.2653093,164.586134 C55.8725584,164.930524 57.4854537,166.15311 58.3181286,167.672732 C59.8115901,160.905463 62.6088673,148.537549 64.0730199,141.735841 C63.3558136,141.79611 62.6071432,141.916646 61.9757085,141.516293 C59.936584,140.39272 58.4862238,138.636329 56.4186524,137.573024 L56.4186093,137.573024 Z" id="leicester" fill="#0053A0" sketch:type="MSShapeGroup"></path>
                <path d="M56.5003725,195.564037 C55.515162,196.976037 54.102731,198.134049 52.4181581,198.45261 C46.0098504,200.264963 39.1757015,201.651134 31.8657137,203.407524 C30.398544,203.93272 29.5106563,203.317122 28.1236551,202.249512 C28.7718993,205.211268 29.7709884,210.041341 30.4765574,213.003098 C33.0794475,209.361171 37.9253315,209.498927 41.758765,208.220378 C42.6694963,211.289756 43.7409957,217.725549 44.7642216,220.730354 C46.3727637,222.400646 49.043323,222.63311 51.1423584,223.369244 C50.5972988,222.551317 49.5722195,220.812146 49.4134342,219.826329 C48.6687723,216.580451 47.2645305,210.385732 46.5214634,207.169988 C48.9734988,206.623268 51.3763987,205.900049 53.8637772,205.555659 C55.1802215,210.691378 58.2635623,220.252512 55.8769116,225.151463 C58.3799359,224.355061 60.4443609,221.599939 62.6804586,222.181098 C61.2063927,215.284683 57.8608664,202.52072 56.500157,195.564037 L56.5000277,195.564037 L56.5003725,195.564037 Z M56.8405283,226.963817 C56.0222924,226.937988 55.1976775,227.011171 54.3739678,227.101573 C48.8242388,228.28972 43.6680252,231.023317 41.3056405,236.813378 C38.1924305,244.889329 44.3416991,257.308902 52.5887101,260.343841 C57.8918994,262.237988 63.1373328,260.817378 67.0742095,257.881451 C70.7309275,255.380317 73.2109788,251.20028 73.1131387,245.595329 C72.8838396,239.271463 69.3439263,232.999256 64.1829714,229.430512 C61.7283499,227.708561 59.2970032,227.02839 56.8406576,226.963817 L56.8406145,226.963817 L56.8405283,226.963817 Z M56.6137291,234.015207 C59.6744847,233.997988 62.7832553,234.777171 64.891342,237.919732 C67.5123347,241.17422 68.3075545,245.746 66.4507486,248.483902 C63.8129464,251.945024 59.5609989,254.011366 55.0832004,253.830561 C50.2144726,253.658366 45.2815239,247.433512 46.7202468,241.462646 C48.0882834,236.598134 53.6138756,234.260585 56.6137291,234.015207 L56.6137291,234.015207 Z M75.8063261,257.545671 C74.6098328,257.58011 73.4448035,257.816878 72.2901186,258.251671 C66.752027,260.292183 62.6880013,263.860927 61.0652358,269.973854 C58.7899159,278.338232 67.9485203,289.319976 76.5989598,290.869732 C82.1525679,291.80389 87.0695691,289.802122 90.4314739,286.220463 C93.5972675,283.120951 95.5657059,278.484598 94.4864482,272.974354 C93.1528927,266.788244 88.1462407,261.484634 82.4391918,258.875878 C79.9220734,257.94172 77.7993322,257.472488 75.8063261,257.545671 L75.8063261,257.545671 Z M78.5557608,264.312939 C80.9771943,264.321549 83.1788109,265.290146 84.820541,267.003488 C87.8531515,269.801659 89.2828231,273.236951 87.8824604,276.878878 C85.9545374,281.157927 82.3723847,283.921659 77.9316534,284.528646 C73.10732,285.195902 66.8718487,278.820378 67.5274201,273.564122 C68.3131576,268.742659 71.4617107,266.775329 74.0482223,265.410683 C75.5804751,264.665939 77.1023835,264.304329 78.5557608,264.312939 L78.5557608,264.312939 Z M100.102984,276.797085 C100.055573,279.552207 97.2281247,278.738585 94.9941821,282.208317 C98.3487596,281.872537 103.973485,284.860122 106.598357,286.818841 C102.697685,292.733744 98.6418487,298.515195 94.6860074,304.369829 C93.9511295,305.601024 92.6628304,305.73878 91.3111723,305.846402 C93.7787242,307.551134 98.2582468,310.53872 100.727954,312.243451 C100.236598,310.276122 100.417624,308.644573 101.490847,307.034549 C104.982056,301.877305 108.520677,296.732976 112.003265,291.549902 C112.201531,291.338963 112.365316,290.852512 112.748918,290.977354 C115.606537,292.52711 120.067526,296.405805 121.076098,299.531146 C122.274315,297.228037 122.045878,293.551671 124.248357,292.651951 C118.179688,288.47622 106.197514,280.882415 100.102984,276.797085 L100.102984,276.797085 Z M125.756904,293.92189 C126.644791,295.53622 126.416354,297.383012 125.899138,299.079134 C123.916476,305.708646 121.390738,311.670902 119.403766,318.27889 C118.959822,319.880305 117.955561,320.831683 115.921177,321.30522 C122.218283,323.298378 129.528271,325.958793 136.187429,327.990695 C143.083644,330.220622 149.277307,328.558939 150.02296,321.331049 C150.458283,317.181146 146.031775,315.261171 144.299101,314.335622 C148.859224,314.899561 151.928039,312.467305 152.173717,308.192561 C152.561629,305.149012 149.785902,301.821341 143.501727,299.785134 C138.993326,298.317171 130.299785,295.191829 125.756904,293.92189 L125.756904,293.92189 Z M221.178967,299.130793 C218.256696,299.884146 213.369004,301.924659 210.494144,302.901866 C212.097514,303.590646 213.205219,304.059878 213.748296,305.674207 C215.79992,311.899061 218.278247,317.706341 220.407453,323.913976 C220.989321,325.86839 221.704804,328.081098 220.63589,330.001073 C227.256257,327.964866 238.742764,323.823573 245.302789,321.64961 C244.927807,321.10289 244.358869,320.659488 244.393351,319.970707 C244.229565,317.633159 244.820054,315.739012 244.621788,313.375634 C243.10462,316.526805 239.768576,318.141134 236.372191,319.462732 C234.458491,320.078329 229.079443,322.471841 227.182984,322.661256 C225.088259,316.36322 222.592691,309.733707 220.472105,303.435671 C219.890237,301.804122 220.31694,300.663329 221.178967,299.130793 L221.178967,299.130793 Z M131.997978,301.197134 C134.420274,302.0495 141.320799,303.625085 143.674132,304.606598 C146.954144,305.962634 144.824938,311.834488 141.402691,311.081134 C139.001946,310.693695 132.260896,308.808159 130.011006,307.964402 C130.644596,305.708646 131.299736,303.435671 131.997978,301.197134 L131.997978,301.197134 Z M164.108479,304.606598 C164.319675,305.04139 164.190371,306.10039 163.82832,306.578232 L151.501336,327.418146 C150.402252,329.204671 149.367819,330.018293 147.837722,331.18922 C150.647929,331.624012 155.509761,333.018793 158.332899,333.561207 C157.42346,331.585268 157.505353,329.140098 158.975109,327.254561 C163.328344,327.637695 171.465878,328.227463 175.793253,328.752659 C176.67252,330.806085 177.797465,333.27278 175.793253,335.149707 C178.659492,335.128183 183.659248,335.020561 186.452215,335.209976 C185.193656,333.716183 183.969578,332.21378 183.443741,330.28089 C182.13346,326.42372 177.263009,312.097085 175.732911,307.658756 C175.469993,306.853744 175.823424,305.855012 175.849285,305.76461 L164.108479,304.606598 L164.108479,304.606598 Z M196.684474,304.765878 C193.538076,305.282463 188.184889,305.902366 185.176415,306.272585 C186.60738,307.275622 187.667673,307.895524 187.870249,309.587341 C188.611592,316.092012 189.926183,322.325476 190.762349,328.834451 C190.934755,330.870659 190.969236,333.488024 189.538271,335.149707 C196.434486,334.495366 209.123521,332.437634 215.989565,331.641232 C215.726647,331.034244 215.282703,330.461695 215.455109,329.803049 C215.765438,327.47411 216.636086,325.472341 216.924865,323.117573 C214.649114,325.71772 211.356171,327.1125 207.770139,327.736707 C205.714205,328.081098 199.714498,329.049695 197.84821,329.006646 C197.068076,322.407268 195.92589,315.441976 195.124205,308.846902 C194.900078,307.124951 195.533668,306.09178 196.684474,304.765878 L196.684474,304.765878 Z M169.155646,309.613171 L174.181263,323.285463 C171.039175,323.104659 165.035158,322.734439 161.89738,322.381439 L169.155646,309.613171 L169.155646,309.613171 Z M128.903302,312.308024 C131.786782,313.431598 136.571031,315.050232 139.135561,316.040354 C144.751666,317.994768 143.273289,325.51539 136.467587,323.177841 C133.411702,322.209244 129.338625,320.939305 126.437905,319.837256 C127.136147,317.370561 128.20506,314.796244 128.903302,312.308024 L128.903302,312.308024 Z" id="football" fill="#0053A0" sketch:type="MSShapeGroup"></path>
                <path d="M279.572796,67.6101463 C275.129048,67.4207317 272.189536,68.6433171 269.086239,71.2649878 C265.612271,74.4204634 263.246007,78.0839146 263.271868,83.5812439 C263.388242,87.9119512 268.125079,94.7179634 273.823077,98.3082317 C275.426447,99.4920732 277.969426,100.968646 278.210794,102.944585 C280.098632,101.016 282.068364,99.1132439 283.999304,97.3095 C279.37453,95.9233293 271.543016,91.4376463 270.418071,86.2717927 C269.702589,82.1606341 270.71116,80.8175122 272.461074,78.5703659 C275.728156,74.6314024 279.038339,73.2064878 283.999304,74.575439 C288.434432,76.340439 292.408376,81.8894268 292.753187,85.9317073 C295.059109,84.7263415 297.244347,83.7663537 299.58475,82.591122 C297.727082,81.4417195 296.908156,80.0641585 295.649597,78.3981707 C292.925592,74.433378 287.800842,68.7724634 281.585629,67.7823415 C280.887387,67.7005488 280.206386,67.6402805 279.572796,67.6101463 L279.572796,67.6101463 Z M304.037118,88.7643171 C303.946606,91.6658049 302.416508,92.5612195 300.330403,94.1109756 C295.265995,97.5720976 290.468816,101.097793 285.417338,104.451293 C283.982063,105.363927 282.124396,106.534854 280.081392,105.553341 C281.723553,108.101829 284.969084,112.406707 286.632796,114.925061 C286.805201,112.324915 288.201685,111.145378 289.779194,110.112207 C295.240134,106.47028 300.373504,102.539927 305.851685,98.932439 C307.433504,97.8648293 308.338632,97.3999024 310.441978,98.1059024 C308.812747,95.6176829 305.67928,91.2568415 304.037118,88.7643171 L304.037118,88.7643171 Z M313.734921,102.41078 C312.222063,104.692366 308.864469,103.306195 306.480965,104.223134 C309.381685,105.854683 312.584115,111.089415 313.790952,114.163098 C307.3042,117.198037 301.942393,119.923024 295.447021,122.996707 C294.214322,123.620915 292.266142,123.224866 291.003272,122.74272 C292.343724,125.459098 294.584994,130.237512 295.929756,132.936671 C296.645238,130.8445 298.739963,129.066585 300.692454,128.20561 C306.498205,125.571024 311.278144,123.022537 317.139927,120.534317 C318.626923,123.457329 321.122491,128.958963 320.286325,132.2565 C322.527595,130.904768 323.626679,127.960232 326.182589,128.235744 C323.079292,121.520134 316.868388,109.11778 313.734921,102.41078 L313.734921,102.41078 Z M327.82475,131.460098 C327.2084,134.275488 324.648181,135.898427 323.062051,137.999207 C319.885482,141.705707 316.066703,145.881439 312.347057,149.635293 C311.45917,150.466134 309.256691,150.728732 307.920549,151.030073 C305.153443,151.430427 303.864713,151.753293 301.744127,149.979683 C302.407888,152.958659 303.494042,158.270878 304.09315,161.249854 C305.274127,159.463329 306.532686,158.412939 308.855849,157.823171 C310.924713,157.452951 312.75652,156.656549 314.243516,157.306585 C321.031978,160.995866 333.768425,166.252122 335.363175,167.90089 L333.040012,156.77278 C332.285739,157.861915 331.397851,158.38711 330.492723,158.04272 C326.419646,156.467134 321.583675,154.219988 318.126947,152.89839 C320.656996,149.962463 323.613748,147.125549 326.290342,144.344598 C327.454078,142.928293 329.048828,142.368659 330.462552,143.74622 L327.82475,131.460098 L327.82475,131.460098 Z" id="city" fill="#0053A0" sketch:type="MSShapeGroup"></path>
                <path d="M311.722088,197.122402 C310.433358,197.156841 308.972222,197.617463 307.411954,198.650634 C305.192234,200.600744 304.373309,203.652902 303.640586,206.382195 C302.640635,210.99272 300.157998,220.467756 299.248559,225.091195 C300.782967,223.86 302.106178,223.722244 303.838852,224.101073 C310.614383,225.560427 317.364054,227.092963 324.113724,228.552317 C325.747265,228.866573 326.954103,230.145122 327.880781,231.578646 C328.876422,225.164378 332.867607,212.124902 332.759853,205.581488 C332.630549,200.21761 327.652344,196.795232 322.889646,197.910195 C320.187192,198.667854 318.670024,201.784585 318.070916,203.971463 C318.062295,200.716976 315.588278,197.019085 311.722088,197.122402 L311.722088,197.122402 Z M311.747949,204.901317 C313.734921,204.914232 315.571038,206.743805 315.040891,209.04261 C314.515055,211.436122 313.562515,216.472829 312.976337,218.840512 C310.670415,218.375585 308.27398,217.859 305.99823,217.333805 C306.65337,214.862805 307.269719,211.354329 307.920549,208.844585 C308.57569,205.999061 310.209231,204.901317 311.747949,204.901317 L311.747949,204.901317 Z M324.169756,205.3275 C326.23862,205.400683 328.135079,207.475634 327.678205,210.002598 C327.035995,213.041841 325.863639,218.646793 325.303321,221.638683 C322.790513,221.130707 320.187192,220.52372 317.648523,220.024354 C318.290733,216.980805 319.277753,212.594134 320.088059,209.550585 C320.838022,206.433854 322.553455,205.275841 324.169756,205.3275 L324.169756,205.3275 Z M298.770134,226.421402 C296.865055,229.839476 295.123761,233.098268 293.128168,236.55939 C294.641026,235.836171 296.136642,235.754378 297.382271,236.417329 C301.808779,238.754878 305.580147,240.946061 309.963553,243.382622 C311.657436,244.359829 313.493553,246.180793 313.683199,248.591524 C313.609927,251.820183 311.377277,255.724707 308.403284,257.037695 C306.252527,258.045037 303.804371,257.011866 302.17083,256.069098 C298.153785,253.658366 294.985836,251.945024 290.968791,249.499854 C289.580928,248.703451 288.343919,248.113683 288.218926,245.539366 C286.296606,248.793854 284.563932,252.353988 282.546789,255.707488 C285.223382,254.510732 287.06812,255.307134 288.99044,256.49528 C292.563541,258.548707 295.537534,260.270659 299.076154,262.32839 C301.778608,263.860927 304.485372,264.872573 308.174847,264.050341 C311.360037,263.314207 314.062491,260.23622 316.006361,257.063524 C318.062295,253.740159 319.868242,249.870073 319.661355,246.193707 C319.48033,242.396805 317.165788,239.805268 314.588327,238.091927 C310.381636,235.547744 307.041282,233.795659 302.7958,231.324659 C301.162259,230.343146 298.821856,228.866573 298.770134,226.421402 L298.770134,226.421402 Z M301.088987,265.552744 C300.998474,268.751268 299.205458,272.513732 296.925397,275.122488 C295.774591,276.663634 292.072186,280.856585 290.576569,282.462305 C285.507851,278.166037 280.896007,274.270122 275.810049,270.003988 C274.465287,268.897634 273.404994,267.356488 273.340342,265.608707 C271.236996,267.774061 268.396618,270.989805 266.448437,273.310134 C268.189731,273.064756 269.823272,273.908512 271.129243,275.014866 C276.116068,279.26378 280.952039,283.620317 286.012137,287.804659 C287.529304,289.18222 288.309438,290.516732 288.391331,292.707915 C292.981624,287.533451 301.498449,277.757073 305.972369,272.496512 C305.36464,272.233915 304.554335,272.139207 304.209524,271.415988 C302.886313,269.005256 302.48978,267.46411 301.088987,265.552744 L301.088987,265.552744 Z M265.965702,273.908512 C264.543358,275.772524 261.694359,276.853049 259.642735,277.757073 C255.207607,279.870768 248.983773,284.924695 247.686422,290.843902 C246.65199,295.945183 247.776935,300.064951 250.600073,303.780061 C253.39304,307.551134 256.91442,309.742317 261.776252,309.867159 C267.215641,309.8155 273.012772,306.324244 277.305665,301.967707 C278.719389,300.555707 280.452063,298.614207 282.520928,298.454927 C280.796874,296.405805 279.357289,294.094085 277.478071,292.139671 C276.262613,295.88061 270.409451,302.023671 266.448437,303.09989 C262.952918,303.887683 260.612515,302.944915 258.056606,300.745122 C255.216227,297.809195 253.449072,294.193098 254.625739,289.961402 C256.375653,284.507122 263.625299,280.512195 268.181111,281.299988 C267.353565,278.863427 266.728596,276.254671 265.965702,273.908512 L265.965702,273.908512 Z" id="club" fill="#0053A0" sketch:type="MSShapeGroup"></path>
                <path d="M182.370647,74.153561 C181.793089,75.8152439 181.400867,78.0064268 181.012955,79.9307073 C180.931062,80.3525854 180.719866,80.6410122 180.465568,80.9466585 C167.565336,93.9129512 151.626459,90.1375732 145.687094,109.15222 C145.014713,110.757939 145.86812,112.458366 148.742979,114.046866 C149.031758,114.219061 149.286056,114.145878 149.286056,113.844537 C148.561954,93.1983415 176.491624,94.593122 182.599084,80.2664878 C182.663736,80.120122 182.870623,80.1588659 182.935275,80.2664878 C188.068645,89.8319268 196.550989,91.0846463 204.304921,95.5617195 C210.110672,98.9066098 214.295812,101.941549 215.481099,111.442415 C215.51989,111.890122 215.644884,111.808329 215.873321,111.580171 C216.752589,110.611573 218.886105,110.112207 218.821453,108.661463 C216.942234,94.6447805 201.486093,91.6184512 189.085836,85.8456098 C188.56862,85.449561 188.042784,85.0535122 187.525568,84.6574634 C184.930867,81.5923902 182.952515,78.1355732 182.370647,74.153561 L182.370647,74.153561 Z M182.14652,91.6830244 C182.008596,91.6916341 181.892222,91.7217683 181.771538,91.7906463 C181.637924,91.8552195 181.50862,91.9929756 181.435348,92.1350366 C181.366386,92.2641829 181.392247,92.6731463 181.435348,92.9529634 C181.482759,93.1337683 181.646545,93.2327805 181.745678,93.3490122 C181.952564,93.603 182.13359,93.7493659 182.400818,93.9473902 C182.732698,94.166939 183.142161,93.8957317 183.215433,93.6331341 C183.314567,93.1768171 183.314567,92.6731463 183.215433,92.2727927 C183.189573,92.1264268 183.077509,92.0360244 182.986996,91.9025732 C182.862002,91.7648171 182.724078,91.6916341 182.508571,91.6830244 C182.418059,91.6744146 182.271514,91.6658049 182.14652,91.6830244 L182.14652,91.6830244 Z M186.361832,95.5875488 C186.31873,95.5961585 186.30149,95.6047683 186.254078,95.6435122 C186.172186,95.7080854 186.107534,95.8157073 186.107534,95.9233293 C186.098913,96.4872683 185.844615,97.3095 186.361832,97.6022317 C186.616129,97.7184634 186.935079,97.7615122 187.133346,97.5376585 C187.232479,97.3740732 187.426435,97.3181098 187.413504,97.0296829 C187.413504,96.8919268 187.223858,96.848878 187.163516,96.6939024 C187.081624,96.4657439 187.124725,96.0610854 187.042833,95.8975 C186.96956,95.7769634 186.896288,95.6607317 186.762674,95.6435122 C186.62475,95.6176829 186.499756,95.5531098 186.361832,95.5875488 L186.361832,95.5875488 Z M178.59928,95.6693415 C178.224298,95.7984878 177.827766,96.0696951 177.689841,96.5475366 C177.526056,96.8316585 177.534676,97.0555122 177.689841,97.2277073 C177.888107,97.520439 178.133785,97.8648293 178.478596,98.0241098 C178.771685,98.1618659 179.150977,98.1618659 179.280281,97.5376585 C179.422515,97.0210732 179.431136,96.2935488 179.198388,96.0955244 C178.896679,95.8802805 178.969951,95.578939 178.59928,95.6693415 L178.59928,95.6693415 Z M182.706838,102.492573 C181.056056,107.456098 180.629353,109.957232 179.452686,113.90911 C181.607753,113.926329 182.79735,113.934939 184.348999,113.965073 C183.086129,109.462171 183.025788,107.675646 182.706838,102.492573 L182.706838,102.492573 Z" id="leaf-top" fill="#0053A0" sketch:type="MSShapeGroup"></path>
                <path d="M106.507973,127.017463 C106.434701,127.017463 106.344188,127.056207 106.253675,127.12939 C94.758547,135.226866 91.6380098,149.579329 76.8551111,147.207341 C87.3481331,152.106293 87.0951282,164.151341 88.1653346,175.3225 C89.0691697,184.732963 96.2735592,197.410829 115.697179,194.771939 C115.912686,194.75472 116.059231,194.582524 115.921306,194.37589 C114.679988,192.606585 110.516398,193.187744 109.481966,193.015549 C94.1055617,190.135585 91.5018095,176.01128 88.308,160.027268 C87.5649328,155.408134 84.5642173,152.489427 82.7224969,149.019695 C82.5893138,148.666695 82.4694921,148.554768 82.9211941,148.472976 C92.7176984,146.600354 100.103114,138.111134 107.956178,129.083805 C108.119963,128.984793 108.150134,128.760939 107.956178,128.597354 C107.512234,128.153951 107.107082,127.663195 106.706239,127.12939 C106.632967,127.056207 106.589866,127.008854 106.507973,127.017463 L106.507973,127.017463 Z M105.038217,145.593012 C104.900293,145.601622 104.753748,145.631756 104.637375,145.700634 C104.499451,145.765207 104.374457,145.902963 104.292564,146.045024 C104.227912,146.174171 104.258083,146.583134 104.292564,146.862951 C104.348596,147.043756 104.538242,147.142768 104.637375,147.259 C104.844261,147.512988 105.029597,147.659354 105.292515,147.857378 C105.624396,148.076927 106.007998,147.80572 106.08127,147.543122 C106.180403,147.086805 106.180403,146.583134 106.08127,146.18278 C106.051099,146.036415 105.943346,145.946012 105.852833,145.812561 C105.727839,145.674805 105.589915,145.601622 105.374408,145.593012 C105.279585,145.584402 105.163211,145.575793 105.038217,145.593012 L105.038217,145.593012 Z M109.456105,149.605159 C109.408694,149.618073 109.365592,149.635293 109.318181,149.669732 C109.236288,149.725695 109.171636,149.833317 109.171636,149.949549 C109.145775,150.504878 108.856996,151.3185 109.374212,151.619841 C109.61989,151.753293 109.93453,151.783427 110.132796,151.563878 C110.24486,151.400293 110.443126,151.365854 110.443126,151.086037 C110.451746,150.939671 110.279341,150.900927 110.227619,150.741646 C110.154347,150.513488 110.188828,150.104524 110.106935,149.949549 C110.042283,149.824707 109.964701,149.686951 109.826777,149.669732 C109.688852,149.635293 109.589719,149.579329 109.456105,149.605159 L109.456105,149.605159 Z M101.633211,150.203537 C101.26254,150.332683 100.861697,150.62972 100.728083,151.111866 C100.564298,151.391683 100.572918,151.589707 100.728083,151.761902 C100.917729,152.054634 101.197888,152.399024 101.542698,152.554 C101.835788,152.696061 102.215079,152.726195 102.344383,152.097683 C102.486618,151.581098 102.469377,150.832049 102.2237,150.62972 C101.9263,150.414476 102.008193,150.113134 101.633211,150.203537 L101.633211,150.203537 Z M106.171783,156.944976 C105.564054,161.955854 103.732247,167.681341 101.943541,171.443805 C104.029646,171.163988 105.697668,172.429622 105.826972,174.043951 C106.352808,172.214378 107.757912,170.806683 109.425934,171.297439 C108.33116,166.751488 106.977778,161.865451 106.171783,156.944976 L106.171783,156.944976 Z" id="leaf-left" fill="#0053A0" sketch:type="MSShapeGroup"></path>
                <path d="M122.580464,205.753683 C122.498571,205.775207 122.408059,205.801037 122.300305,205.844085 C104.499451,212.714671 100.94359,228.677159 110.89569,242.732585 C118.373773,255.281305 121.683956,260.451463 118.128095,270.537793 C132.041209,253.994146 156.690867,280.757573 170.832418,260.119988 C171.022063,259.866 170.724664,259.693805 170.431575,259.409683 C169.741954,258.931841 169.017851,258.61328 168.310989,258.333463 C167.785153,258.135439 167.496374,258.251671 167.177424,258.703683 C161.388913,264.795085 142.618278,263.443354 128.425006,263.486402 C127.989683,263.486402 126.692332,263.714561 126.265629,263.94272 C124.903626,264.64011 123.524383,265.255707 122.071868,265.126561 C121.683956,265.126561 121.093468,264.919927 121.192601,264.114915 C121.899463,253.804732 115.757521,247.252707 111.86547,238.746268 C110.650012,235.84478 101.633211,219.572341 123.317497,209.688341 C123.41663,209.498927 123.623516,209.387 123.597656,209.098573 C123.533004,208.091232 123.326117,207.096805 123.033028,206.063634 C122.981306,205.809646 122.834762,205.719244 122.580464,205.753683 L122.580464,205.753683 Z M138.683126,225.405451 C138.545201,225.426976 138.402967,225.452805 138.282283,225.517378 C138.148669,225.590561 138.019365,225.724012 137.950403,225.861768 C137.885751,225.99522 137.902991,226.404183 137.950403,226.684 C137.993504,226.864805 138.18315,226.955207 138.282283,227.075744 C138.5021,227.329732 138.674505,227.471793 138.937424,227.674122 C139.273614,227.889366 139.691697,227.618159 139.760659,227.355561 C139.851172,226.903549 139.864103,226.395573 139.760659,225.99522 C139.726178,225.853159 139.588254,225.771366 139.510672,225.63361 C139.372747,225.487244 139.264994,225.426976 139.053797,225.405451 C138.954664,225.396841 138.82105,225.388232 138.683126,225.405451 L138.683126,225.405451 Z M143.165665,229.202354 C143.118254,229.210963 143.066532,229.219573 143.019121,229.258317 C142.945849,229.32289 142.872576,229.430512 142.881197,229.538134 C142.855336,230.102073 142.566557,230.907085 143.075153,231.217037 C143.329451,231.341878 143.609609,231.367707 143.816496,231.152463 C143.915629,230.988878 144.152686,230.963049 144.152686,230.670317 C144.161306,230.536866 143.96304,230.498122 143.898388,230.334537 C143.825116,230.110683 143.889768,229.70172 143.816496,229.538134 C143.743223,229.413293 143.674261,229.275537 143.527717,229.258317 C143.398413,229.219573 143.29928,229.176524 143.165665,229.202354 L143.165665,229.202354 Z M135.170366,229.6845 C134.799695,229.809341 134.403162,230.110683 134.265238,230.588524 C134.092833,230.859732 134.110073,231.070671 134.265238,231.242866 C134.454884,231.531293 134.709182,231.867073 135.053993,232.030659 C135.342772,232.177024 135.726374,232.202854 135.842747,231.578646 C135.989292,231.062061 136.006532,230.308707 135.760855,230.110683 C135.463455,229.891134 135.545348,229.594098 135.170366,229.6845 L135.170366,229.6845 Z M139.256374,236.133207 C138.648645,241.144085 136.812527,246.869573 135.028132,250.632037 C137.114237,250.35222 138.782259,251.592024 138.911563,253.214963 C139.437399,251.38539 140.842503,249.99922 142.510525,250.49428 C141.411441,245.948329 140.053748,241.062293 139.256374,236.133207 L139.256374,236.133207 Z" id="leaf-bottom-left" fill="#0053A0" sketch:type="MSShapeGroup"></path>
                <path d="M240.367814,205.727854 C240.277302,205.736463 240.173858,205.826866 240.139377,205.925878 C239.747155,206.761024 239.350623,207.557427 238.94978,208.392573 C238.596349,209.335341 238.579109,210.140354 240.001453,210.592366 C265.504518,221.005866 252.949096,240.709293 246.298559,252.272195 C245.608938,253.460341 243.958156,256.964512 243.833162,258.505659 C243.578864,260.145817 243.833162,261.575037 243.794371,263.288378 C243.794371,263.688732 243.234054,263.796354 242.923724,263.74039 C226.596935,260.606439 212.472625,275.014866 199.089658,259.465646 C197.85696,258.135439 196.378584,258.006293 195.835507,258.423866 C195.245018,258.867268 194.809695,259.358024 194.391612,260.008061 C194.111453,260.399805 194.120073,260.623659 194.447643,261.024012 C208.360757,280.512195 228.928718,257.498317 246.578718,267.192902 C242.445299,257.283073 250.591453,247.67028 255.198987,239.026085 C265.439866,221.647293 253.457692,210.96689 240.458327,205.727854 C240.419536,205.710634 240.402295,205.727854 240.367814,205.727854 L240.367814,205.727854 Z M226.851233,225.035232 C226.713309,225.052451 226.596935,225.082585 226.476252,225.151463 C226.342637,225.216037 226.213333,225.353793 226.140061,225.487244 C226.079719,225.625 226.09696,226.059793 226.140061,226.33961 C226.187473,226.520415 226.351258,226.593598 226.450391,226.709829 C226.657277,226.955207 226.838303,227.110183 227.101221,227.299598 C227.437411,227.527756 227.846874,227.256549 227.920147,226.993951 C228.01928,226.541939 228.01928,226.025354 227.920147,225.63361 C227.894286,225.478634 227.782222,225.396841 227.70033,225.26339 C227.566716,225.125634 227.428791,225.052451 227.213284,225.035232 C227.122772,225.026622 226.976227,225.018012 226.851233,225.035232 L226.851233,225.035232 Z M231.131197,228.948366 C231.083785,228.948366 231.032063,228.96989 230.984652,229.004329 C230.902759,229.060293 230.842418,229.176524 230.842418,229.284146 C230.820867,229.839476 230.532088,230.653098 231.040684,230.950134 C231.294982,231.08789 231.601001,231.11372 231.812198,230.898476 C231.911331,230.73489 232.118217,230.709061 232.118217,230.416329 C232.118217,230.282878 231.958742,230.235524 231.89409,230.071939 C231.820818,229.848085 231.855299,229.447732 231.786337,229.284146 C231.713065,229.159305 231.665653,229.021549 231.519109,229.004329 C231.394115,228.96989 231.25619,228.922537 231.131197,228.948366 L231.131197,228.948366 Z M223.2221,229.538134 C222.847118,229.66728 222.476447,229.972927 222.342833,230.446463 C222.179048,230.72628 222.187668,230.924305 222.342833,231.0965 C222.541099,231.389232 222.786777,231.729317 223.131587,231.884293 C223.420366,232.030659 223.799658,232.056488 223.928962,231.43228 C224.075507,230.915695 224.053956,230.162341 223.808278,229.964317 C223.519499,229.749073 223.592772,229.447732 223.2221,229.538134 L223.2221,229.538134 Z M227.558095,235.999756 C226.958987,241.010634 225.118559,246.736122 223.329853,250.49428 C225.424579,250.214463 227.092601,251.484402 227.213284,253.094427 C227.739121,251.264854 229.144225,249.861463 230.812247,250.35222 C229.717473,245.801963 228.36409,240.920232 227.558095,235.999756 L227.558095,235.999756 Z" id="leaf-bottom-right" fill="#0053A0" sketch:type="MSShapeGroup"></path>
                <path d="M255.849817,126.754866 C255.798095,126.77639 255.750684,126.819439 255.707582,126.875402 C255.513626,127.099256 255.354151,128.343366 255.30674,129.165598 C255.29812,129.337793 255.29812,129.475549 255.479145,129.59178 C259.134139,131.813098 270.08619,144.215451 279.628828,146.380805 C280.046911,146.471207 280.098632,146.824207 279.891746,147.035146 C268.543162,160.354439 282.076984,181.15561 259.707387,189.085195 C255.552418,190.225988 251.371587,189.683573 250.600073,192.447305 C250.578523,192.546317 250.716447,192.671159 250.798339,192.671159 C264.250269,193.523524 272.6421,188.994793 275.154908,179.39922 C278.391819,168.705902 272.297289,153.513988 283.775177,145.222793 C284.063956,145.003244 283.908791,144.624415 283.654493,144.650244 C272.051612,145.82978 264.633871,133.535049 256.013602,126.785 C255.970501,126.754866 255.897228,126.746256 255.849817,126.754866 L255.849817,126.754866 Z M259.534982,144.650244 C259.397057,144.680378 259.254823,144.723427 259.134139,144.79661 C259.000525,144.861183 258.871221,144.994634 258.797949,145.141 C258.737607,145.265841 258.754847,145.674805 258.797949,145.954622 C258.84536,146.135427 259.009145,146.238744 259.108278,146.354976 C259.315165,146.608963 259.49619,146.725195 259.759109,146.91461 C260.095299,147.142768 260.504762,146.89739 260.578034,146.634793 C260.677167,146.18278 260.677167,145.674805 260.578034,145.274451 C260.552173,145.13239 260.44011,145.011854 260.358217,144.878402 C260.224603,144.740646 260.086679,144.667463 259.871172,144.650244 C259.780659,144.650244 259.659976,144.633024 259.534982,144.650244 L259.534982,144.650244 Z M263.470134,149.019695 C263.427033,149.028305 263.379621,149.036915 263.33652,149.071354 C263.254628,149.135927 263.215836,149.243549 263.215836,149.355476 C263.189976,149.91511 262.909817,150.720122 263.418413,151.030073 C263.65978,151.154915 263.952869,151.185049 264.151136,150.9655 C264.258889,150.801915 264.470085,150.776085 264.470085,150.487659 C264.470085,150.349902 264.29768,150.315463 264.241648,150.151878 C264.168376,149.92372 264.207167,149.514756 264.125275,149.355476 C264.060623,149.226329 264.004591,149.092878 263.870977,149.071354 C263.733053,149.036915 263.608059,148.989561 263.470134,149.019695 L263.470134,149.019695 Z M255.371392,149.071354 C254.99641,149.2005 254.625739,149.497537 254.492125,149.979683 C254.328339,150.2595 254.33696,150.457524 254.492125,150.62972 C254.68177,150.922451 254.936068,151.266841 255.280879,151.417512 C255.569658,151.563878 255.94895,151.589707 256.078254,150.9655 C256.211868,150.448915 256.203248,149.725695 255.96188,149.527671 C255.660171,149.308122 255.742063,148.980951 255.371392,149.071354 L255.371392,149.071354 Z M259.733248,155.468402 C259.134139,160.47928 257.293712,166.204768 255.505006,169.967232 C257.591111,169.687415 259.272063,170.953049 259.388437,172.575988 C259.914274,170.746415 261.319377,169.33011 262.991709,169.820866 C261.892625,165.283524 260.539243,160.388878 259.733248,155.468402 L259.733248,155.468402 Z" id="leaf-right" fill="#0053A0" sketch:type="MSShapeGroup"></path>
                <path d="M248.138987,95.7253049 C248.095885,95.7339146 248.048474,95.7339146 247.996752,95.7597439 C237.691221,98.6698415 223.773797,110.547 212.30884,120.956195 C211.97265,121.339329 211.511465,121.421122 211.136484,121.291976 C203.516166,118.790841 194.65453,118.467976 187.27127,118.265646 C176.737302,117.297049 164.074127,118.584207 152.742784,122.251963 C152.255739,122.424159 151.889377,121.980756 151.527326,121.545963 C142.557937,111.580171 129.920623,103.418122 116.283358,97.7356829 C115.904066,97.554878 115.585116,97.3912927 115.149792,97.7916463 C108.150134,104.240354 109.688852,123.341098 115.697179,133.698634 C116.404042,135.201037 116.559206,137.835622 116.576447,138.735341 C117.00315,144.305854 118.089304,149.118707 119.55044,154.31039 C119.912491,157.534744 121.149499,160.815061 123.007167,163.596012 C123.369219,164.039415 123.214054,164.439768 122.951136,164.728195 C120.576252,167.104488 118.408254,169.351634 116.03337,171.723622 C115.860965,171.887207 115.533394,172.003439 115.214444,172.059402 C113.244713,172.287561 112.628364,172.928988 111.697375,175.201963 C111.559451,175.529134 111.576691,175.757293 111.749096,176.0285 C112.085287,176.652707 114.369658,180.604585 116.257497,182.705366 C118.080684,184.50911 117.399683,186.222451 115.860965,187.86261 C118.770305,190.036573 123.976947,194.195085 124.287277,194.827902 C124.614847,196.5025 127.5716,197.066439 125.808755,199.468561 C126.274249,199.576183 126.554408,199.748378 126.916459,200.036805 C127.179377,200.320927 127.235409,200.592134 127.26127,200.889171 C127.498327,203.497927 127.989683,205.86561 129.437888,208.362439 C135.334151,218.349756 141.941587,216.80861 149.794652,225.323659 C154.492698,230.424939 159.130403,230.627268 162.324212,239.624463 C162.031123,243.038232 161.850098,245.130402 163.259512,248.083549 C164.927534,251.691037 169.035092,251.828793 174.315006,254.22661 C175.021868,254.502122 175.41409,254.717366 175.931306,255.251171 C177.310549,256.594293 178.896679,257.455268 180.694005,258.307634 C182.14652,258.923232 183.866264,258.923232 185.202405,258.251671 C187.741074,256.800927 188.275531,257.851317 192.969267,254.480598 C197.395775,253.17622 204.623871,247.730549 203.852357,238.462146 C203.878217,238.190939 203.942869,238.010134 204.024762,237.773366 C204.162686,237.347183 204.559219,236.921 204.9342,236.507732 C206.718596,234.376817 208.7616,232.49128 210.011538,229.908354 C210.265836,229.284146 210.485653,228.677159 211.054591,228.207927 C228.726142,213.7995 222.476447,220.131976 228.864066,215.241634 C241.962564,205.293061 233.363846,193.6785 248.703614,187.182439 C246.626129,182.787159 247.332991,182.386805 254.091282,173.028 C250.518181,171.142463 248.031233,168.97711 245.552906,167.246549 C237.781734,161.159451 244.837424,155.993598 245.475324,153.006012 C245.919267,151.30989 246.587338,149.170366 246.751123,147.005012 C247.578669,142.015659 247.113175,136.135195 249.664774,133.526439 C251.543993,131.714085 252.08707,121.791341 252.384469,120.986329 C254.444713,114.507488 253.69044,113.637902 254.065421,109.569793 C254.125763,109.027378 254.319719,108.592585 254.065421,107.994207 C252.630147,104.042329 250.871612,100.219598 248.845849,96.4313049 C248.664823,96.1041341 248.531209,95.789878 248.276911,95.7253049 C248.23812,95.7166951 248.186398,95.7253049 248.138987,95.7253049 L248.138987,95.7253049 Z M242.018596,110.964573 C241.19105,119.092183 238.225678,124.47328 239.152357,131.287902 C235.695629,135.528207 236.855055,143.436268 233.678486,148.167329 C233.4716,148.438537 233.191441,148.593512 232.85525,148.563378 C228.635629,147.865988 225.678877,142.558073 222.088535,139.557573 C221.722173,139.269146 221.541148,138.997939 221.661832,138.709512 C223.122967,135.463634 226.476252,132.209146 223.87293,128.91161 C224.002234,119.462402 235.303407,117.94278 242.018596,110.964573 L242.018596,110.964573 Z M120.485739,112.522939 C127.114725,116.229439 131.342967,122.454293 134.601429,122.544695 C135.110024,123.332488 135.834127,124.14611 136.441856,124.783232 C141.320928,130.327915 137.450427,132.394256 141.739011,139.505915 C142.204505,140.500341 142.411392,141.468939 141.739011,142.075927 C138.872772,144.568451 136.325482,147.095415 133.946288,149.833317 C130.79989,153.647439 129.265482,152.244049 128.334493,149.833317 C127.752625,148.046793 127.136276,146.027805 127.942271,143.970073 C128.442247,142.83789 128.140537,141.908037 127.287131,140.827512 C126.144945,139.226098 125.213956,137.529976 124.313138,135.842463 C123.994188,135.209646 123.787302,134.667232 123.662308,133.870829 C122.528742,126.858183 122.735629,116.3715 120.485739,112.522939 L120.485739,112.522939 Z M202.835165,181.943402 C203.3179,181.891744 203.744603,182.22322 203.800635,182.705366 C203.852357,183.196122 203.490305,183.648134 203.00757,183.699793 C202.520525,183.747146 202.093822,183.394146 202.03779,182.90339 C201.994689,182.425549 202.35674,181.999366 202.835165,181.943402 L202.835165,181.943402 Z M157.561514,182.025195 C158.052869,181.982146 158.475263,182.305012 158.522674,182.795768 C158.578706,183.277915 158.212344,183.699793 157.733919,183.755756 C157.251184,183.81172 156.815861,183.475939 156.772759,182.993793 C156.716728,182.507341 157.078779,182.081159 157.561514,182.025195 L157.561514,182.025195 Z M230.506227,201.707098 C231.221709,201.715707 231.441526,202.382963 231.359634,203.063134 C230.59674,212.667317 226.1142,210.024122 215.873321,219.120329 C213.196728,221.255549 214.075995,223.3305 210.464103,226.369744 C207.438388,229.193744 204.61525,232.14689 202.03779,235.801732 C201.619707,236.425939 201.313687,235.762988 201.274896,235.483171 C201.149902,234.721207 200.697338,233.860232 200.059438,233.162841 C198.365556,231.260085 201.06801,231.496854 198.020745,226.937988 C196.757875,225.091195 195.29674,227.471793 194.417473,224.475598 C193.874396,222.542707 194.391612,223.494085 193.710611,219.008402 L195.499316,217.531829 C196.339792,219.925341 197.520769,221.92711 198.809499,223.593098 C198.999145,223.821256 198.645714,225.840244 199.434469,227.618159 C199.598254,224.811378 202.111062,223.197049 198.529341,218.160341 C198.063846,217.506 197.822479,216.864573 197.650073,216.094 C197.628523,216.012207 197.611282,215.947634 197.594042,215.865841 C204.378193,211.461951 211.97265,207.867378 219.140403,204.901317 C218.774042,205.31028 218.420611,205.719244 218.058559,206.154037 C217.894774,206.352061 218.213724,206.425244 218.312857,206.382195 C218.748181,206.261659 218.955067,206.317622 219.299878,206.382195 C219.528315,206.515646 219.502454,206.752415 219.502454,206.967659 C219.554176,207.802805 218.886105,207.850159 219.084371,208.780012 C220.265348,207.269 221.390293,205.801037 222.592821,204.423476 C222.877289,204.070476 223.247961,203.652902 223.808278,203.717476 L225.118559,203.889671 C225.562503,203.90689 225.989206,203.825098 226.476252,203.687341 C227.631368,203.235329 228.493394,202.675695 229.596789,201.930951 C229.95884,201.758756 230.260549,201.707098 230.506227,201.707098 L230.506227,201.707098 Z M134.174725,203.235329 C134.217827,203.235329 134.291099,203.265463 134.347131,203.291293 C137.747827,204.996024 142.385531,206.063634 144.751795,207.058061 C145.993114,207.63922 147.329255,208.500195 148.290415,208.646561 C148.686947,208.67239 148.686947,208.457146 148.488681,208.220378 C148.234383,207.820024 147.980085,207.441195 147.725788,207.088195 C153.57033,209.795963 158.983858,212.938524 164.707717,216.718207 C164.690476,216.765561 164.664615,216.80861 164.655995,216.855963 C164.49221,217.342415 164.328425,217.785817 164.16464,218.186171 C164.074127,218.414329 163.974994,218.668317 163.884481,218.866341 C163.811209,219.038537 163.729316,219.219341 163.656044,219.374317 C163.52243,219.662744 163.384505,219.981305 163.259512,220.226683 C163.095726,220.540939 162.914701,220.911159 162.776777,221.186671 C162.733675,221.294293 162.686264,221.393305 162.638852,221.500927 C162.548339,221.703256 162.449206,221.90128 162.388864,222.090695 C162.341453,222.228451 162.306972,222.353293 162.268181,222.491049 C162.25094,222.551317 162.225079,222.61589 162.216459,222.689073 C162.177668,222.869878 162.169048,223.050683 162.151807,223.248707 C162.143187,223.433817 162.143187,223.623232 162.151807,223.821256 C162.169048,224.032195 162.177668,224.238829 162.216459,224.475598 C162.285421,225.043841 162.449206,225.26339 162.638852,225.353793 C162.694884,225.379622 162.776777,225.388232 162.841429,225.405451 C162.975043,225.435585 163.237961,225.478634 163.319853,225.26339 C163.384505,225.061061 163.483639,224.863037 163.574151,224.673622 C163.664664,224.475598 163.746557,224.294793 163.85862,224.101073 C164.065507,223.722244 164.311184,223.343415 164.565482,222.96889 C164.617204,222.887098 164.673236,222.796695 164.737888,222.714902 C165.199072,222.064866 165.707668,221.440659 166.177473,220.794927 C166.224884,220.730354 166.250745,220.678695 166.298156,220.622732 C166.487802,220.342915 166.660208,220.054488 166.832613,219.770366 C166.897265,219.671354 166.966227,219.563732 167.030879,219.46472 C167.194664,219.180598 167.358449,218.90078 167.483443,218.612354 L171.142747,221.328732 C170.535018,222.813915 169.754884,224.828598 169.526447,226.257817 C169.099744,229.473561 167.121392,228.750341 165.643016,227.527756 C165.733529,230.842512 165.987827,232.267427 164.138779,235.17322 C163.893101,235.590793 163.664664,235.444427 163.51381,235.17322 C159.03989,226.559159 154.721136,228.612585 149.061929,219.434585 C148.553333,218.104378 147.592173,216.834439 145.738816,216.145659 C138.765018,213.403451 133.782503,211.517915 133.946288,203.515146 C133.954908,203.373085 134.028181,203.235329 134.174725,203.235329 L134.174725,203.235329 Z M195.688962,232.004829 C195.977741,232.022049 196.232039,232.267427 196.339792,232.573073 C197.749206,235.745768 199.499121,241.32489 198.925873,243.128634 C196.857009,251.04961 191.271074,252.362598 186.081673,251.682427 C182.189621,251.174451 182.172381,250.261817 182.107729,247.661671 C182.116349,247.377549 182.508571,247.269927 182.823211,247.179524 C187.525568,245.702951 190.353016,243.145854 190.4737,238.264122 C190.49956,237.601171 190.581453,236.90378 190.245263,236.305402 C191.559853,235.465951 192.775311,234.596366 193.964908,233.507232 C193.999389,233.472793 194.046801,233.434049 194.072662,233.391 C194.434713,232.818451 194.844176,232.357829 195.408803,232.056488 C195.507937,232.022049 195.598449,231.99622 195.688962,232.004829 L195.688962,232.004829 Z M169.552308,232.603207 C169.707473,232.555854 169.845397,232.637646 170.009182,232.827061 C170.125556,232.956207 170.289341,233.360866 170.660012,233.360866 C171.293602,234.161573 172.177179,234.850354 173.009035,235.457341 C172.754737,235.707024 172.599573,235.999756 172.50044,236.305402 C172.237521,237.058756 172.284933,238.337305 172.50044,239.503927 C172.590952,240.192707 172.82801,240.799695 173.181441,241.398073 C174.879634,244.036963 176.086471,245.220805 178.000171,246.525183 C178.797546,247.007329 179.676813,247.424902 180.694005,247.32589 C180.974164,247.287146 181.137949,247.476561 181.090537,247.713329 C180.784518,251.600634 179.013053,251.863232 174.543443,251.312207 C164.638755,249.336268 163.763797,242.891866 169.125604,233.162841 C169.246288,232.818451 169.410073,232.646256 169.552308,232.603207 L169.552308,232.603207 Z M182.400818,253.632537 C183.767131,253.602402 185.219646,253.649756 186.6463,253.830561 C186.861807,253.87361 186.879048,254.054415 186.818706,254.20078 C186.616129,254.734585 186.017021,255.414756 185.711001,255.677354 C185.521355,255.82372 185.228266,255.879683 184.973968,255.957171 C183.905055,256.241293 182.237033,256.366134 181.943944,256.323085 C181.681026,256.267122 181.418107,256.16811 181.17243,256.013134 C180.241441,255.487939 179.370794,254.880951 178.452735,254.321317 C178.254469,254.166341 178.245849,253.929573 178.478596,253.895134 C179.715604,253.774598 181.021575,253.666976 182.400818,253.632537 L182.400818,253.632537 Z" id="fox-outline" fill="#0053A0" sketch:type="MSShapeGroup"></path>
                <path d="M247.035592,102.918756 C246.97956,102.918756 246.923529,102.927366 246.863187,102.944585 C235.605116,107.03422 221.640281,115.170439 214.377705,125.967073 C211.446813,128.326146 208.44265,130.624951 205.330733,132.643939 C211.800244,124.055707 198.891392,123.487463 183.331807,121.799951 C172.638364,120.887317 159.876056,124.227902 155.721087,126.505183 C155.346105,126.720427 155.113358,127.14661 155.410757,127.525439 C156.570183,129.174207 156.927924,131.115707 157.613236,132.936671 C157.708059,133.134695 157.514103,133.151915 157.363248,133.018463 C143.825116,120.913146 123.597656,104.584744 116.856606,102.97472 C116.537656,102.918756 116.248877,103.026378 116.085092,103.31911 C115.606667,104.322146 115.494603,104.614878 115.123932,105.609305 C114.861013,106.4875 114.378278,107.03422 114.136911,107.275293 C110.279341,111.054976 117.037631,118.140805 118.046203,131.098488 C118.718584,136.569988 120.041795,139.023768 121.300354,142.786232 C121.49431,143.294207 121.619304,143.729 121.701197,144.232671 C123.451111,150.26811 124.593297,156.41978 126.916459,162.011817 C129.683565,170.991793 118.834957,169.51522 118.391013,176.962659 C118.136716,182.016585 124.076081,184.788927 123.063199,188.486817 C122.998547,188.71928 122.563223,188.973268 122.808901,189.27461 C127.381954,194.01428 129.149109,192.907927 130.998156,196.83828 C135.29105,204.350293 139.954615,196.13228 147.725788,207.088195 C153.57033,209.795963 158.983858,212.938524 164.707717,216.718207 C165.117179,215.439659 165.496471,213.855463 165.841282,211.789122 C166.522283,207.703793 166.388669,203.57972 163.802589,197.880061 C163.328474,197.04922 163.612943,195.641524 164.453419,194.974268 C164.880122,194.655707 165.061148,194.530866 165.108559,195.189512 C165.832662,202.766098 172.047875,207.875988 168.220476,215.04361 C168.082552,215.306207 167.918767,215.521451 167.966178,215.947634 C168.048071,216.916232 167.849805,217.785817 167.483443,218.612354 L171.142747,221.328732 C171.384115,220.738963 171.603932,220.243902 171.741856,219.890902 C173.371087,211.470561 174.651197,197.880061 175.875275,196.188244 C175.987338,196.024659 176.120952,195.770671 175.875275,195.589866 C174.45293,194.121902 172.853871,191.685341 173.582283,190.949207 C174.362418,190.359439 178.905299,192.193317 178.879438,195.482244 C178.689792,198.42678 175.814933,225.689573 172.220281,229.538134 C172.047875,229.736159 172.112527,229.873915 172.220281,230.02028 C173.78917,232.228683 173.452979,232.775402 172.901282,233.05522 C172.401306,233.244634 171.358254,233.162841 170.888449,233.335037 C170.806557,233.360866 170.724664,233.360866 170.660012,233.360866 C171.293602,234.161573 172.177179,234.850354 173.009035,235.457341 C173.509011,234.966585 174.353797,234.604976 175.651148,234.411256 C180.719866,233.533061 185.555836,233.679427 189.258242,235.427207 C189.753907,235.681195 190.064237,235.982537 190.245263,236.305402 C191.559853,235.465951 192.775311,234.596366 193.964908,233.507232 C193.620098,233.76122 192.887375,233.515841 192.775311,232.934683 C190.745238,221.884061 188.577241,220.179329 187.297131,211.845085 C186.779915,209.01678 186.534237,206.055024 187.068694,203.342951 C187.241099,202.464756 187.297131,201.668354 187.068694,200.716976 C186.335971,197.991988 186.379072,195.146463 186.991111,192.447305 C187.404884,191.538976 188.469487,190.325 189.228071,189.300439 C189.85735,188.478207 190.301294,187.51822 190.646105,186.476439 C190.999536,185.395915 194.507985,180.161183 197.503529,179.334646 C197.757827,179.270073 197.792308,179.119402 197.822479,178.882634 C197.848339,178.620037 197.356984,178.611427 197.395775,178.211073 C197.503529,176.127512 210.619267,177.251085 217.524103,177.892512 C220.153284,177.660049 222.778156,177.251085 225.260794,176.790463 C225.696117,176.708671 225.726288,176.859341 225.46337,177.134854 C223.403126,179.39922 220.437753,180.639024 217.75254,180.983415 C217.243944,181.056598 217.10602,181.336415 217.006886,181.719549 C215.472479,189.408061 204.335092,193.123171 199.490501,192.219146 C199.180171,192.163183 199.171551,192.382732 199.180171,192.537707 C199.533602,196.476671 197.839719,196.877024 196.369963,208.392573 C196.279451,209.034 196.305311,209.606549 196.404444,210.256585 C196.632882,212.124902 197.175958,213.898512 197.594042,215.865841 C204.378193,211.461951 211.97265,207.867378 219.140403,204.901317 C220.588608,203.265463 222.023883,201.784585 223.52812,200.118598 C223.946203,199.567573 224.752198,199.231793 225.515092,198.960585 C231.221709,196.567073 237.0016,192.843354 241.337595,188.142427 C241.462589,187.987451 241.725507,187.733463 241.643614,187.436427 C240.320403,181.254622 244.4021,179.425049 246.97094,174.840354 C247.358852,174.241976 246.940769,174.087 246.518376,173.871756 C243.695238,172.093841 241.126398,169.640061 239.152357,167.336951 C238.686862,166.648171 238.488596,165.778585 238.324811,165.008012 C236.281807,155.408134 240.510049,154.706439 241.272943,149.153146 C241.216911,146.389415 241.962564,143.139232 242.833211,140.267878 C243.859023,136.922988 244.320208,134.20661 245.501184,132.338293 C246.083053,115.613841 251.281074,119.38922 249.86304,110.473817 C249.492369,108.691598 248.548449,105.454329 247.423504,103.228707 C247.332991,103.017768 247.195067,102.927366 247.035592,102.918756 L247.035592,102.918756 Z M243.833162,106.181854 C243.923675,106.160329 244.022808,106.173244 244.113321,106.181854 C244.71243,106.224902 245.182234,106.668305 245.246886,107.223634 C245.35464,108.308463 245.591697,109.307195 245.807204,110.310232 C241.936703,119.552805 244.186593,132.23928 239.122186,140.01389 C238.867888,146.824207 238.014481,151.167829 233.962955,153.884207 C233.79917,154.009049 233.618144,153.991829 233.424188,153.884207 C226.958987,150.728732 221.179096,144.150878 215.537131,138.989329 C224.316874,133.281061 216.364676,127.284366 222.622991,120.732341 C229.907118,113.048134 236.320598,112.286171 242.979756,106.569293 C243.259915,106.332524 243.548694,106.207683 243.833162,106.181854 L243.833162,106.181854 Z M117.96431,106.659695 C118.761685,106.668305 119.679744,107.094488 120.339194,107.73161 C126.825946,110.56422 126.244078,113.155756 131.308486,115.695634 C132.38602,116.255268 134.230757,117.26261 135.653101,117.585476 C136.308242,119.854146 137.377155,119.789573 139.760659,123.849073 C140.333907,124.8435 142.428632,126.475049 142.618278,127.83539 C142.764823,128.687756 142.747582,129.428195 142.68293,130.246122 C142.618278,132.553537 141.665739,134.757634 142.937228,135.790805 C143.980281,136.32461 143.290659,136.849805 145.178498,137.801183 C146.131038,138.261805 146.622393,138.735341 146.113797,139.729768 C144.60525,142.368659 142.756203,144.542622 141.07094,146.953354 C140.631306,147.512988 139.989096,147.95639 139.338266,148.339524 C135.678962,150.530707 132.640317,153.613 129.355995,156.518793 C129.149109,156.673768 129.049976,156.518793 128.903431,156.467134 C125.757033,154.68061 124.920867,151.563878 124.502784,147.314963 C123.41663,135.97161 121.136569,145.782427 117.30917,112.006354 C116.791954,110.482427 116.231636,107.766049 116.710061,107.141841 C117.037631,106.806061 117.472955,106.651085 117.96431,106.659695 L117.96431,106.659695 Z M192.033968,128.657622 C189.120317,134.051634 187.641941,133.543659 185.883407,135.653049 C185.754103,135.799415 185.620488,135.98022 185.482564,136.161024 C185.35757,136.341829 185.219646,136.531244 185.094652,136.750793 C184.956728,136.966037 184.857595,137.159756 184.801563,137.349171 C184.801563,137.35778 184.810183,137.36639 184.801563,137.375 C184.758462,137.555805 184.728291,137.758134 184.71967,137.917415 C184.801563,139.67811 184.512784,140.39272 184.973968,140.973878 C185.004139,141.016927 185.02138,141.06428 185.03,141.115939 C185.055861,141.171902 185.055861,141.227866 185.064481,141.279524 C185.073101,141.400061 185.047241,141.516293 185.004139,141.598085 C184.676569,141.391451 184.167973,140.999707 183.73265,140.612268 C183.396459,140.310927 183.1163,140.03111 182.986996,139.785732 C182.986996,139.777122 182.995617,139.768512 182.986996,139.759902 C182.952515,139.67811 182.935275,139.596317 182.935275,139.531744 C182.935275,139.350939 182.918034,139.234707 182.905104,139.13139 C182.862002,138.726732 182.745629,138.787 182.650806,138.343598 C182.607705,138.119744 182.551673,137.766744 182.534432,137.151146 C182.525812,136.849805 182.534432,136.470976 182.534432,136.014659 C182.499951,135.726232 182.525812,135.579866 182.599084,135.455024 C182.624945,135.399061 182.663736,135.338793 182.706838,135.282829 C182.754249,135.226866 182.79735,135.175207 182.853382,135.110634 C185.482564,132.411476 188.973773,130.624951 192.033968,128.657622 L192.033968,128.657622 Z M171.060855,129.311963 C173.815031,131.18028 176.909707,133.67711 179.931111,136.186854 C179.995763,136.260037 180.038864,136.33322 180.103516,136.415012 C180.275922,136.67761 180.405226,136.987561 180.331954,137.375 C180.150928,138.515793 179.603541,139.613537 179.168217,140.771549 C179.150977,140.827512 179.116496,140.853341 179.077705,140.892085 C179.043223,140.917915 179.013053,140.956659 178.969951,140.973878 C178.879438,141.008317 178.771685,140.999707 178.715653,140.943744 C178.172576,140.254963 177.582088,139.557573 177.090733,138.851573 C176.926947,138.636329 176.754542,138.399561 176.754542,138.111134 C176.776093,137.882976 176.784713,137.654817 176.784713,137.465402 C176.784713,137.267378 176.776093,137.095183 176.754542,136.922988 C176.711441,136.604427 176.612308,136.32461 176.474383,136.105061 C176.465763,136.096451 176.474383,136.079232 176.474383,136.079232 C176.185604,135.61861 175.685629,135.347402 174.888254,135.136463 C174.233114,134.947049 173.664176,134.658622 173.181441,134.322841 C173.172821,134.314232 173.1642,134.322841 173.15558,134.322841 C172.448718,133.814866 171.940122,133.134695 171.595311,132.312463 C171.595311,132.303854 171.569451,132.290939 171.569451,132.282329 C171.22464,131.442878 171.069475,130.461366 171.060855,129.311963 L171.060855,129.311963 Z M207.546142,155.812793 C208.287485,155.778354 209.067619,155.868756 209.839133,156.040951 C210.602027,156.213146 211.364921,156.475744 212.015751,156.828744 C212.218327,156.953585 212.270049,157.198963 212.045922,157.280756 C210.955458,157.573488 209.847753,157.943707 208.731429,158.38711 C208.171111,158.602354 207.628034,158.847732 207.054786,159.09311 C204.244579,160.332915 201.378339,161.882671 198.529341,163.316195 C198.227631,163.441037 198.029365,163.397988 197.900061,163.225793 C197.85696,163.16122 197.822479,163.096646 197.792308,162.997634 C197.727656,162.691988 197.740586,162.390646 197.766447,162.09361 C197.783687,161.800878 197.839719,161.503841 197.848339,161.18528 C197.8742,160.750488 198.145739,160.724659 198.300904,160.50511 C198.83536,160.298476 199.287924,160.117671 199.662906,159.945476 C200.779231,159.42889 201.231795,159.06728 201.611087,158.7315 C201.874005,158.503341 202.111062,158.296707 202.438632,158.04272 C202.774823,157.797341 203.218767,157.517524 203.942869,157.173134 C204.378193,156.97511 204.813516,156.794305 205.24022,156.600585 C205.675543,156.41978 206.102247,156.238976 206.52033,156.09261 C206.8479,155.920415 207.227192,155.821402 207.546142,155.812793 L207.546142,155.812793 Z M152.234188,156.402561 C152.29022,156.402561 152.363492,156.41978 152.406593,156.402561 C152.587619,156.467134 152.734164,156.540317 152.863468,156.600585 C152.988462,156.673768 153.078974,156.746951 153.169487,156.828744 C153.505678,157.117171 153.643602,157.444341 154.505629,157.853305 C154.712515,157.952317 154.984054,158.077159 155.294383,158.189085 C155.609023,158.296707 155.984005,158.404329 156.427949,158.533476 C157.496862,158.877866 158.259756,159.07589 158.975238,159.347098 C158.992479,159.355707 158.992479,159.372927 159.014029,159.372927 C159.720891,159.657049 160.401893,160.001439 161.242369,160.595512 C161.535458,160.797841 161.841477,161.03461 162.186288,161.305817 C162.522479,161.577024 162.906081,161.882671 163.319853,162.235671 C163.492259,162.373427 163.647424,162.463829 163.686215,162.717817 C163.694835,162.79961 163.686215,162.881402 163.656044,162.971805 L163.656044,162.997634 C163.630183,163.088037 163.591392,163.169829 163.548291,163.260232 C163.440537,163.449646 163.293993,163.613232 163.147448,163.742378 C163.095726,163.776817 163.048315,163.806951 163.005214,163.824171 C162.966422,163.83278 162.89315,163.83278 162.802637,163.824171 C162.531099,163.768207 162.315592,163.733768 162.095775,163.651976 C161.897509,163.578793 161.725104,163.48839 161.561319,163.397988 C161.388913,163.307585 161.242369,163.225793 161.108755,163.118171 C160.97083,163.006244 160.863077,162.890012 160.738083,162.77378 C160.483785,162.537012 160.220867,162.291634 159.884676,162.037646 C159.729512,161.912805 159.557106,161.792268 159.34591,161.667427 C159.139023,161.54689 158.901966,161.422049 158.639048,161.305817 C158.367509,161.18528 158.152002,161.159451 157.932186,161.215415 C157.858913,161.241244 157.777021,161.258463 157.708059,161.305817 C157.414969,161.422049 157.143431,161.284293 156.854652,161.215415 C156.634835,161.168061 156.389158,161.086268 156.14779,160.995866 C156.13486,160.987256 156.126239,160.995866 156.117619,160.995866 C154.350464,160.298476 152.152295,158.576524 152.143675,156.518793 C152.143675,156.484354 152.165226,156.449915 152.173846,156.42839 C152.191087,156.41978 152.208327,156.402561 152.234188,156.402561 L152.234188,156.402561 Z M156.001245,176.110293 C156.47105,176.110293 156.962405,176.136122 157.453761,176.161951 C157.949426,176.209305 158.458022,176.252354 158.975238,176.334146 C159.36746,176.39872 159.746752,176.480512 160.147595,176.562305 C160.272589,176.596744 160.401893,176.618268 160.535507,176.652707 C160.772564,176.708671 161.009621,176.777549 161.242369,176.850732 C161.552698,176.932524 161.850098,177.022927 162.151807,177.134854 C162.595751,177.285524 163.022454,177.44911 163.457778,177.638524 C163.83707,177.80211 164.220672,177.982915 164.591343,178.176634 C164.962015,178.374659 165.336996,178.602817 165.699048,178.826671 C166.005067,179.016085 166.306777,179.218415 166.604176,179.425049 C166.7421,179.515451 166.875714,179.580024 167.005018,179.679037 C167.220525,179.842622 167.440342,180.014817 167.655849,180.187012 C167.70326,180.221451 167.746361,180.260195 167.793773,180.303244 C167.828254,180.333378 167.875665,180.359207 167.910147,180.385037 C167.974799,180.441 168.048071,180.505573 168.112723,180.557232 C168.392882,180.80261 168.67304,181.082427 168.953199,181.345024 C169.31956,181.689415 169.664371,182.042415 170.009182,182.425549 C170.035043,182.451378 170.060904,182.477207 170.099695,182.507341 C170.405714,182.860341 170.694493,183.230561 171.004823,183.60939 C171.177228,183.846159 171.358254,184.082927 171.53928,184.319695 C171.685824,184.526329 171.819438,184.707134 171.965983,184.918073 C172.284933,185.387305 172.573712,185.878061 172.875421,186.394646 C172.991795,186.592671 173.082308,186.855268 173.073687,187.070512 C173.065067,187.143695 173.047827,187.199659 173.009035,187.272841 C172.728877,187.87122 172.556471,188.478207 172.418547,189.166988 C172.401306,189.266 172.310794,189.347793 172.220281,189.365012 C172.1858,189.365012 172.129768,189.356402 172.103907,189.339183 C171.612552,189.037841 171.159988,188.749415 170.716044,188.430854 C170.289341,188.125207 169.888498,187.789427 169.500586,187.462256 C169.491966,187.462256 169.470415,187.470866 169.470415,187.462256 C169.073883,187.135085 168.711832,186.790695 168.33685,186.446305 C165.009426,183.376927 162.669023,180.040646 158.186484,179.145232 C158.177863,179.136622 158.169243,179.145232 158.160623,179.145232 C156.15641,178.744878 153.751355,178.84389 150.622198,179.653207 C149.579145,179.760829 148.424029,179.760829 147.247363,179.679037 C146.066386,179.597244 144.868168,179.433659 143.725983,179.227024 C143.174286,179.128012 142.601038,179.007476 142.083822,178.882634 C142.075201,178.882634 142.066581,178.891244 142.057961,178.882634 C141.540745,178.762098 141.05801,178.620037 140.614066,178.49089 C140.596825,178.48228 140.588205,178.49089 140.579585,178.49089 C139.661526,178.219683 138.920183,177.931256 138.402967,177.668659 C140.74337,177.711707 143.31652,177.685878 145.540549,177.586866 C147.764579,177.487854 149.613626,177.341488 150.501514,177.160683 C150.803223,177.014317 151.165275,176.889476 151.557497,176.760329 C151.919548,176.644098 152.337631,176.514951 152.772955,176.424549 C152.807436,176.415939 152.854847,176.424549 152.889328,176.424549 C153.277241,176.342756 153.686703,176.273878 154.130647,176.226524 C154.203919,176.217915 154.259951,176.200695 154.333223,176.200695 C154.86768,176.144732 155.419377,176.118902 156.001245,176.110293 L156.001245,176.110293 Z M205.412625,179.907195 C203.434274,180.023427 201.266276,180.77678 198.809499,182.90339 C195.089853,186.553927 191.960696,191.095573 189.564261,195.391841 C189.284103,195.917037 189.19359,196.394878 189.309963,196.950207 C192.033968,209.468793 193.202015,215.702256 193.710611,219.008402 L195.499316,217.531829 C194.426093,214.518415 193.874396,210.872183 194.245067,206.489817 C195.533797,203.136317 196.206178,199.175829 196.796667,195.391841 C198.753468,191.241939 198.956044,189.481244 200.848193,189.593171 C202.546386,189.683573 204.304921,189.765366 205.89536,189.420976 C206.511709,189.300439 207.020305,189.055061 207.572002,188.710671 C210.248596,187.100646 212.532967,184.918073 214.485458,182.451378 C214.722515,182.19739 214.86475,181.654976 214.739756,181.409598 C214.666484,181.220183 214.55011,181.121171 214.313053,181.121171 C211.498535,181.293366 208.722808,179.713476 205.412625,179.907195 L205.412625,179.907195 Z M204.507497,180.212841 C205.033333,180.204232 205.57641,180.320463 206.093626,180.531402 C207.136679,180.940366 207.899573,181.736768 208.309035,182.679537 C208.515922,183.157378 208.632295,183.656744 208.653846,184.181939 C208.662466,184.707134 208.571954,185.249549 208.360757,185.766134 C208.153871,186.28272 207.852161,186.726122 207.48149,187.100646 C206.373785,188.21561 204.641111,188.620268 203.089463,188.004671 C202.826545,187.897049 202.580867,187.789427 202.35674,187.634451 C202.128303,187.488085 201.947277,187.30728 201.757631,187.126476 C200.641306,186.020122 200.231844,184.319695 200.848193,182.769939 C200.930085,182.559 201.020598,182.378195 201.132662,182.19739 C201.149902,182.180171 201.175763,182.162951 201.193004,182.141427 C201.240415,182.063939 201.274896,181.990756 201.330928,181.917573 C201.438681,181.771207 201.559365,181.646366 201.675739,181.51722 L201.783492,181.409598 C201.955897,181.237402 202.128303,181.065207 202.330879,180.927451 C202.481734,180.81122 202.662759,180.729427 202.835165,180.639024 C202.865336,180.630415 202.891197,180.630415 202.917057,180.613195 C202.973089,180.595976 203.00757,180.548622 203.063602,180.531402 C203.283419,180.441 203.507546,180.376427 203.744603,180.333378 C203.990281,180.277415 204.253199,180.221451 204.507497,180.212841 L204.507497,180.212841 Z M159.268327,180.277415 C159.794164,180.260195 160.298449,180.350598 160.828596,180.557232 C161.078584,180.656244 161.332882,180.77678 161.561319,180.927451 C161.789756,181.073817 161.970781,181.246012 162.151807,181.435427 C162.350073,181.629146 162.513858,181.809951 162.669023,182.025195 C162.957802,182.459988 163.177619,182.942134 163.293993,183.45011 C163.457778,184.199159 163.401746,185.017085 163.095726,185.796268 C162.983663,186.058866 162.867289,186.27411 162.720745,186.502268 C162.720745,186.510878 162.733675,186.519488 162.720745,186.528098 C162.134567,187.414902 161.207888,188.01328 160.199316,188.232829 C159.69072,188.340451 159.164884,188.349061 158.639048,188.258659 C158.376129,188.21561 158.104591,188.133817 157.850293,188.034805 C157.587375,187.922878 157.333077,187.806646 157.10895,187.66028 C156.665006,187.371854 156.298645,186.98872 156.001245,186.553927 C155.272833,185.486317 155.065946,184.091537 155.583162,182.795768 C155.682295,182.54178 155.82884,182.305012 155.975385,182.089768 C156.108999,181.878829 156.238303,181.689415 156.397778,181.51722 C156.436569,181.48278 156.47967,181.465561 156.518462,181.435427 C156.690867,181.263232 156.854652,181.082427 157.052918,180.957585 C157.216703,180.837049 157.389109,180.755256 157.561514,180.664854 C157.570134,180.664854 157.578755,180.647634 157.587375,180.639024 C157.75116,180.565841 157.932186,180.531402 158.104591,180.475439 C158.268376,180.42378 158.440781,180.359207 158.613187,180.333378 L158.669219,180.333378 C158.858864,180.294634 159.065751,180.277415 159.268327,180.277415 L159.268327,180.277415 Z M146.393956,182.253354 C146.493089,182.253354 146.600842,182.270573 146.704286,182.287793 C146.721526,182.287793 146.747387,182.279183 146.764628,182.287793 C146.945653,182.305012 147.126679,182.369585 147.329255,182.451378 C147.544762,182.54178 147.773199,182.649402 148.010256,182.795768 C148.251624,182.942134 148.505922,183.10572 148.78177,183.303744 L148.859353,183.359707 C149.09641,183.540512 149.333468,183.721317 149.596386,183.927951 C149.876545,184.1475 150.139463,184.336915 150.449792,184.582293 C151.01873,185.025695 151.64801,185.512146 152.316081,185.994293 C152.652271,186.239671 152.997082,186.463524 153.367753,186.700293 C153.652222,186.881098 153.941001,187.092037 154.251331,187.272841 C154.376325,187.346024 154.514249,187.414902 154.639243,187.488085 C154.992674,187.690415 155.367656,187.879829 155.746947,188.060634 C156.117619,188.241439 156.509841,188.405024 156.906374,188.56861 C157.035678,188.620268 157.152051,188.693451 157.281355,188.740805 C157.677888,188.891476 158.095971,189.012012 158.522674,189.136854 C159.03127,189.28322 159.548486,189.429585 160.082943,189.537207 C160.62602,189.63622 161.182027,189.709402 161.759585,189.752451 C162.341453,189.808415 162.949182,189.842854 163.574151,189.842854 C163.694835,189.842854 163.785348,189.872988 163.85862,189.924646 C163.927582,189.972 163.983614,190.036573 164.000855,190.152805 C164.018095,191.130012 163.121587,191.474402 162.151807,191.538976 C161.578559,191.547585 161.009621,191.530366 160.427753,191.513146 C158.72094,191.465793 157.027057,191.332341 155.320244,191.056829 C155.139219,191.03961 154.984054,190.996561 154.811648,190.923378 C154.647863,190.850195 154.505629,190.751183 154.333223,190.634951 C153.807387,190.277646 153.25138,189.872988 152.691062,189.420976 C152.126435,188.964659 151.591978,188.495427 151.074762,188.034805 C150.540305,187.561268 150.04895,187.126476 149.622247,186.726122 C149.204164,186.338683 148.872283,186.002902 148.635226,185.766134 C148.389548,185.55089 148.199902,185.370085 148.036117,185.19789 C147.880952,185.034305 147.747338,184.87072 147.635275,184.745878 C147.428388,184.49189 147.337875,184.319695 147.221502,184.15611 C147.15685,184.074317 147.092198,184.001134 147.018926,183.927951 C146.794799,183.691183 146.428437,183.437195 145.605201,182.993793 C145.506068,182.950744 145.441416,182.912 145.432796,182.851732 C145.424176,182.812988 145.424176,182.787159 145.458657,182.739805 C145.488828,182.696756 145.514689,182.640793 145.56641,182.597744 C145.656923,182.524561 145.768987,182.468598 145.859499,182.425549 C145.941392,182.378195 146.023284,182.335146 146.113797,182.313622 C146.20431,182.287793 146.294823,182.261963 146.393956,182.253354 L146.393956,182.253354 Z" id="fox-background" fill="#FDBE11" sketch:type="MSShapeGroup"></path>
                <path d="M181.560342,353.142591 C86.6341879,353.142591 9.68231441,276.285858 9.68231441,181.474171 C9.68231441,86.6661398 86.6348372,9.81005549 181.560342,9.81005549 C276.484562,9.80879736 353.434059,86.6648432 353.434059,181.474171 C353.434059,276.286714 276.485639,353.142591 181.560342,353.142591 Z M181.560281,0.715139635 C81.6057896,0.715139634 0.576293651,81.6430878 0.576293651,181.474171 C0.576293651,281.308876 81.6051059,362.237507 181.560342,362.237507 C281.51479,362.237507 362.54008,281.309662 362.54008,181.474171 C362.54008,81.6418501 281.513642,0.713814848 181.560281,0.715139635 Z" id="ellipse-big" fill="#0053A0" sketch:type="MSShapeGroup"></path>
            </g>
        </g>
    </g>
</svg>