<svg width="512" height="512" viewBox="0 0 512 512" xmlns="http://www.w3.org/2000/svg"><title>arsenal</title><g fill="none" fill-rule="evenodd"><path d="M256.397 69.392c-37.96 0-107.955 9.84-143.6 30.606C65.863 266.7 129.69 380.06 256.396 444.402 383.104 380.062 446.93 266.14 400 100 364.316 79.23 294.355 69.39 256.396 69.39z" id="Shape" stroke="#9C824A" stroke-width=".793" fill="#9C824A"/><path d="M256.397 80.11c-37.293 0-79.284 4.78-134.278 27.268-40.94 145.513 6.554 262.142 134.277 325.71C384.12 369.52 431.58 252.89 390.64 107.377c-54.994-22.49-96.95-27.268-134.243-27.268z" id="Shape" stroke="#023474" stroke-width=".793" fill="#023474"/><path d="M256.222 79.97c-37.118 0-76.97 5.516-112.932 19.15-37.294 148.993-9.78 257.784 113.143 333.862l-.21-353.013zm.21 353.012c122.922-76.078 150.402-184.87 113.108-333.86-35.962-13.636-75.78-19.153-112.897-19.153l-.21 353.012z" id="Shape" stroke="#FFF" stroke-width=".793" fill="#FFF"/><path d="M256.433 79.935c-37.33 0-75.113 5.656-105.817 16.373-38.626 156.16-7.607 261.614 105.85 333.686l-.033-350.06z" id="Shape" stroke="#EF0107" stroke-width=".793" fill="#EF0107"/><path d="M256.503 79.935c37.328 0 75.113 5.656 105.852 16.373 38.625 156.16 7.605 261.614-105.887 333.686l.035-350.06z" id="Shape" stroke="#DB0007" stroke-width=".793" fill="#DB0007"/><path d="M208.204 315.58c-16.474 11.316-29.582 15.392-44.795 19.433l-9.184-14.302c13.986-7.096 28.462-16.97 43.043-31.272 1.225 13.878 7.673 23.717 10.934 26.142z" id="Shape" fill="#FFF"/><path d="M205.96 314.983c-15.632 10.752-37.4 18.237-62.32 21.89l-5.082-7.728c21.345-8.014 41.955-19.96 57.938-36.756 2.42 10.75 6.1 17.884 9.464 22.593z" id="Shape" fill="#9C824A"/><path d="M164.32 249.307c0 6.01-4.836 10.858-10.83 10.858-5.993 0-10.865-4.85-10.865-10.858 0-6.01 4.872-10.858 10.866-10.858s10.83 4.848 10.83 10.857z" id="Shape" fill="#FFF"/><path d="M163.163 227.907v40.973h32.21c2.104-13.74 9.886-28.323 27.515-40.973h-59.725" id="Shape" fill="#FFF"/><path d="M164.46 268.88c-7.185.105-13.108-8.926-13.213-20.24-.07-11.317 5.68-20.593 12.9-20.733h.245" id="Shape" fill="#FFF"/><path d="M159.764 249.307c0 4.638-3.365 8.364-7.5 8.364-4.137 0-7.502-3.724-7.502-8.363 0-4.64 3.365-8.363 7.5-8.363 4.137 0 7.502 3.724 7.502 8.363z" id="Shape" fill="#9C824A"/><path d="M164.04 230.05v36.826h31.967c2.523-12.228 8.727-25.23 24.22-36.825H164.04" id="Shape" fill="#9C824A"/><path d="M165.23 266.876c-6.764.14-12.3-8.01-12.406-18.167-.07-10.156 5.363-18.52 12.127-18.66h.21" id="Shape" fill="#9C824A"/><path d="M317.56 278.473c0 34.192-27.62 61.88-61.724 61.88-34.068 0-61.723-27.688-61.723-61.88 0-34.19 27.655-61.88 61.723-61.88 34.105 0 61.723 27.69 61.723 61.88z" id="Shape" fill="#FFF"/><path d="M314.337 278.473c0 32.4-26.184 58.647-58.5 58.647-32.28 0-58.464-26.248-58.464-58.647 0-32.363 26.183-58.648 58.464-58.648 32.316 0 58.5 26.25 58.5 58.648z" id="Shape" fill="#9C824A"/><path d="M304.627 278.473c0 27.022-21.838 48.915-48.79 48.915-26.92 0-48.755-21.893-48.755-48.915 0-27.023 21.836-48.915 48.754-48.915 26.953 0 48.79 21.892 48.79 48.915z" id="Shape" fill="#FFF"/><path d="M301.403 278.473c0 25.23-20.4 45.646-45.567 45.646-25.13 0-45.53-20.418-45.53-45.647 0-25.23 20.4-45.646 45.53-45.646 25.167 0 45.567 20.416 45.567 45.646z" id="Shape" fill="#9C824A"/><path d="M274.833 278.473c.036 10.507-8.482 19.046-18.962 19.08-10.513 0-19.03-8.538-19.03-19.045v-.035c0-10.508 8.48-19.046 18.995-19.046 10.48-.034 18.997 8.505 18.997 19.01v.036z" id="Shape" fill="#FFF"/><path d="M272.59 278.473c0 9.278-7.466 16.797-16.718 16.797-9.253 0-16.754-7.484-16.79-16.76v-.036c0-9.277 7.5-16.798 16.754-16.798 9.253 0 16.755 7.486 16.755 16.762v.035z" id="Shape" fill="#9C824A"/><path d="M264.46 278.473c0 4.743-3.856 8.608-8.623 8.643-4.73 0-8.587-3.864-8.587-8.643 0-4.78 3.856-8.61 8.587-8.643 4.766 0 8.622 3.864 8.622 8.643z" id="Shape" fill="#FFF"/><path d="M262.076 278.473c0 3.443-2.77 6.254-6.24 6.254-3.434 0-6.237-2.776-6.237-6.254 0-3.443 2.802-6.254 6.237-6.254 3.434-.002 6.24 2.774 6.24 6.253z" id="Shape" fill="#9C824A"/><path id="Rectangle-path" fill="#FFF" d="M249.283 231.772h12.968v30.324h-12.967z"/><path id="Rectangle-path" fill="#9C824A" d="M251.315 227.415h8.937v38.548h-8.937z"/><path d="M291.973 248.884l7.08 10.893-25.375 16.518-7.045-10.894 25.34-16.516z" id="Shape" fill="#FFF"/><path d="M296.706 248.217l4.872 7.52-32.247 21.014-4.87-7.554 32.246-20.98z" id="Shape" fill="#9C824A"/><path d="M237.645 280.932l6.94 10.964-25.55 16.235-6.94-10.998 25.55-16.2z" id="Shape" fill="#FFF"/><path d="M241.992 280.3l4.802 7.59-32.456 20.627-4.803-7.59 32.457-20.627z" id="Shape" fill="#9C824A"/><path id="Rectangle-path" fill="#FFF" d="M249.283 295.868h12.968v30.323h-12.967z"/><path fill="#9C824A" d="M251.315 291.545h8.937v38.512h-8.937z"/><path d="M243.184 292.634c1.753 1.475 3.68 2.81 6.1 3.83l-.072 27.057c-12.232-1.58-21.485-7.624-28.495-16.232l22.503-14.654" id="Shape" stroke="#EF0107" stroke-width=".311" fill="#EF0107"/><path d="M268.454 292.74c-1.787 1.44-3.68 2.81-6.098 3.794l.034 27.06c12.233-1.583 21.487-7.626 28.497-16.236L268.42 292.74" id="Shape" stroke="#DB0007" stroke-width=".311" fill="#DB0007"/><path d="M274.588 281.39l26.778-3.234c.21 6.71-1.402 12.615-3.68 18.273l-23.17-15.04" id="Shape" fill="#DB0007"/><path d="M274.624 281.284c.104-.422.07-.808.246-2.038l26.428-3.443c.105 1.23.035 1.686 0 2.248l-26.674 3.234z" id="Shape" stroke="#FFF" stroke-width=".311" fill="#FFF"/><path d="M313.74 258.97h34.666c-1.088 4.11-2.14 8.293-7.117 10.156-7.957 2.988-24.465 5.87-24.465 5.87-.316-4.535-1.333-10.686-3.085-16.025z" id="Shape" fill="#FFF"/><path d="M289.59 227.31l90.57.105-3.19 33.17-61.863 3.234c-3.33-14.83-14.582-28.99-25.516-36.51z" id="Shape" fill="#FFF"/><path d="M292.815 229.664l115.63.105-4.416 27.022-89.73 4.428c-3.54-13.424-11.636-23.228-21.485-31.556z" id="Shape" fill="#9C824A"/><path d="M313.74 258.97h31.93c-1.05 3.654-1.788 6.993-6.484 8.644-7.465 2.67-22.502 4.78-22.502 4.78-.63-4.392-1.542-8.856-2.944-13.423z" id="Shape" fill="#9C824A"/><path d="M278.69 179.133c0 1.477-.315 5.518-.49 6.642h17.946c-1.088-4.78-1.58-11.42-1.72-16.55 0 .35-.314-10.298-.314-10.298 0-.738.315-1.862.77-2.213.633-.738 1.264-.738 2.035-.738.77-.352 2.173-.352 2.348 2.565l.456 11.035c.176 5.165.176 12.16-.455 16.2h17.28c-.14-1.477-.63-5.166-.77-6.256 2.172 4.778 6.87 7.343 13.107 7.343 3.716 0 6.554-1.442 8.728-2.917 0 .35.912 1.83.912 1.83h32.106c-1.402-4.78-2.314-11.422-2.804-16.552l-4.522-36.054-16.51-2.95c1.404 4.778 2.35 11.77 2.945 16.55l2.523 23.192c.457 4.04.773 8.47.773 13.247v.35l-.633-1.476c-1.26-2.952-1.857-6.606-2.348-12.123l-.596-7.38c-.946-11.77-7.325-16.902-21.38-16.902-2.313 0-8.237.352-11.847 1.477l.945 13.212 3.75-2.18c3.12-1.86 5.434-2.6 8.237-2.6 2.21 0 3.61.74 4.242 2.215-2.663.386-5.61 1.124-8.903 2.565-4.976 2.213-8.096 5.55-9.498 9.206v-.35l-.49-12.16c-.28-7.73-5.292-12.86-12.934-12.86-3.4 0-6.52 1.088-9.323 2.95-.175-.386-.315-.74-.49-1.124l-.632-1.478-14.337-.738c.632 2.6 1.58 9.945 1.72 12.51-.773-3.654-2.806-7.695-6.557-10.647-2.944-1.862-6.695-2.95-10.585-2.95-5.294 0-10.76 2.212-14.336 5.902-3.75 3.653-5.61 8.82-5.785 14.688-1.4-1.477-3.26-2.917-5.433-3.655l-6.555-3.338h-.315c-1.54-.74-1.717-1.09-1.717-1.442.176-.738 1.717-1.476 3.75-1.476 2.805 0 6.696 1.476 9.815 3.304l.315-11.77c-2.35-1.126-5.608-1.828-10.305-1.828-2.49 0-7.15.35-11.216 2.564-1.088.738-2.034 1.477-2.944 2.215l.14-3.34c-3.75-.7-7.78-.7-12.76 4.078-.174-.387-.49-2.215-.805-2.952l-15.422.738c1.087 4.394 1.262 10.648.947 16.165l-.316 5.903v.738c-.175 2.952-.315 6.255-.63 9.207-1.263-4.077-2.63-9.593-3.752-13.985l-7.64-34.577-21.8 3.302c.14.352.454 1.477.63 2.565.14 1.476.14 4.428-1.893 10.682-3.576 9.91-8.553 25.02-13.39 35.667-.63 1.477-1.892 3.69-1.892 3.69h17c.315-2.565 1.4-6.992 2.488-10.296 2.348 0 8.412 0 11.215-.387.632 2.6 1.263 5.904 1.44 8.117l.28 2.566h33.998c-.77-5.518-.456-12.862-.175-16.938.315-4.78 1.262-8.082 3.295-9.91 1.542-1.862 3.26-2.213 4.52-2.213-.173 6.605 4.033 9.557 7.783 11.384l6.695 3.337c2.348 1.478 2.348 1.83 2.348 2.567-.14 1.09-2.033 1.476-3.75 1.476-3.575 0-8.412-2.214-13.705-8.082l-.315 15.427c4.206 2.214 9.5 3.303 14.196 3.303 7.78 0 16.052-3.655 18.226-10.648 3.89 7.344 11.53 10.648 19.032 10.648 6.693.006 11.67-2.174 16.052-6.987zm-117.068-15.075c.946-2.565 1.716-4.78 3.12-8.82.945 4.04 1.4 6.606 1.856 8.468-1.857.352-2.804.352-4.976.352zm95.406-4.04c0-5.132 1.858-7.345 3.717-7.345.63 0 2.032-.387 2.662 2.213.315 1.09.456 1.828.456 2.18 0 1.475-.77 1.86-1.717 1.86v.353s-2.63.737-5.118 1.86v-1.123zm17.77 10.68c-3.295 2.918-5.643 4.78-9.533 4.78-3.12-.387-4.977-2.214-6.064-4.78 3.26-1.123 15.88-5.902 19.49-7.378 0 2.95.14 6.254.14 6.254v6.256l-4.03-5.13zm58.114 5.133c-2.943 0-3.575-2.214-3.716-3.655.14-1.476.596-3.69 5.292-5.165.14 1.828.315 3.303.315 3.303v1.476c.14 1.123.14 2.212.28 3.3-.594.388-1.364.388-2.17.74z" id="Shape" fill="#9C824A"/><path d="M238.45 146.77c-1.54-.352-3.89-1.09-7.64-1.09-2.943 0-6.834.738-9.814 2.215-3.435 2.213-5.924 5.13-6.064 8.47-.315 5.13 2.35 7.342 6.24 9.17 2.628 1.476 5.15 2.952 6.694 3.69 2.033 1.09 3.89 2.213 3.75 4.78-.175 2.565-2.523 4.427-6.414 4.427-3.26 0-7.92-2.214-11.216-5.166l-.14 7.73c2.804 1.477 7.325 2.214 11.53 2.214 7.152 0 16.054-3.303 16.194-11.42.175-6.255-4.205-8.47-6.834-9.91-2.664-1.124-5.328-2.6-6.554-2.952-1.262-.738-3.75-1.475-3.575-4.428.28-2.564 3.26-3.69 6.38-3.69 2.628 0 5.292.74 7.324 1.863" id="Shape" fill="#FFF"/><path d="M174.414 133.17l-16.543 2.214c.317 2.214-.314 6.607-2.032 11.772-3.4 9.91-9.008 26.46-13.39 36.052h10.306c.595-3.337 1.367-6.254 2.944-10.295l15.282-.387c.596 2.95 1.718 7.73 1.858 10.682h13.88c-1.717-4.076-3.89-12.51-5.292-18.413l-7.012-31.625zm-16.543 33.453l7.502-21.68 4.522 21.33-12.023.35z" id="Shape" fill="#FFF"/><path d="M213.987 146.77l-.315 7.38c-2.49-.387-5.608.35-8.096 2.916-2.174 2.214-3.576 5.517-3.89 11.42-.317 4.78-.457 10.297-.176 14.724h-11.673c.77-4.427 1.087-9.558 1.227-14.37l.315-5.87c.314-4.78.314-9.558-.457-13.985l10.305-.35c.456 1.475.77 4.04.597 6.605 4.52-6.995 8.902-8.47 12.162-8.47" id="Shape" fill="#FFF"/><path d="M360.988 135.384l-10.62-1.862c1.086 4.814 1.4 8.117 2.032 12.895l2.49 23.158c.49 4.78.946 9.207.805 13.634h11.533c-1.122-4.428-1.578-8.856-2.034-13.635" id="Shape" fill="#FFF"/><path d="M313.425 183.21c-.596-4.428-.912-8.856-1.088-13.635l-.455-12.123c-.315-6.64-4.065-10.295-10.305-10.295-3.4 0-7.467 1.09-10.9 5.516-.14-1.124-.632-4.04-1.262-5.516l-9.323-.387c.77 4.428 1.087 8.82 1.226 13.6l.176 9.205c.14 4.78 0 9.207-.315 13.634h11.67c-.596-4.428-.91-8.856-1.087-13.635l-.315-10.295c-.14-3.69 2.663-6.256 5.468-6.256 3.26 0 4.837 2.214 4.978 5.517l.49 11.035c.14 4.78.14 9.207-.175 13.634" id="Shape" fill="#FFF"/><path d="M349.912 183.21c-1.402-3.69-2.173-8.118-2.49-12.897l-.63-7.345c-.632-8.82-4.346-14.723-18.717-14.723-2.49 0-6.064.387-9.008 1.09l.456 6.64c2.943-1.827 5.923-3.302 9.673-3.302 3.89 0 7.15 1.827 7.467 7.344-3.75.387-7.186 1.09-11.076 2.95-4.346 1.83-8.868 5.52-8.413 11.386.455 6.642 5.468 9.593 11.707 9.593 4.838 0 8.098-2.213 9.956-4.427.315 1.475.805 2.564 1.26 3.69h9.816zm-17-4.78c-3.436 0-6.238-1.862-6.38-5.903 0-4.04 2.49-7.344 10.446-8.47l.456 6.256c.175 2.214.175 3.69.49 5.518-1.12 1.476-2.98 2.214-5.012 2.6z" id="Shape" fill="#FFF"/><path d="M270.417 147.894c-2.662-1.862-5.782-2.6-9.04-2.6-7.642 0-17.772 5.517-17.457 19.502.14 14.337 11.076 18.764 18.717 18.764 6.694 0 10.76-2.565 14.02-5.868l-2.35-3.34c-1.716 1.478-4.52 3.69-9.042 3.69-4.837-.35-7.922-3.69-9.64-8.82l21.17-7.73c-.63-6.992-3.117-11.033-6.378-13.598zm-7.325 13.6l-8.412 3.302c-.175-1.475-.315-2.952-.315-4.78 0-8.468 4.66-9.943 6.238-9.943 2.49-.352 4.662 1.124 5.467 4.075.913 3.304.598 6.256-2.978 7.345z" id="Shape" fill="#FFF"/><path d="M213.216 257.284l7.115-10.86 25.307 16.587-7.116 10.894-25.304-16.62z" id="Shape" fill="#FFF"/><path d="M210.867 253.56l4.908-7.52 32.14 21.117-4.907 7.52-32.14-21.118z" id="Shape" fill="#9C824A"/><path d="M267.228 291.86l7.115-10.893 25.306 16.62-7.116 10.895-25.306-16.62z" id="Shape" fill="#FFF"/><path d="M264.88 288.136l4.906-7.52 32.142 21.12-4.907 7.484-32.14-21.084z" fill="#9C824A"/></g></svg>