<svg width="512" height="512" viewBox="0 0 512 512" xmlns="http://www.w3.org/2000/svg"><title>chelsea</title><g fill="none" fill-rule="evenodd"><path d="M434.11 256.055c0 98.344-79.72 178.055-178.055 178.055C157.715 434.11 78 354.4 78 256.055 78 157.72 157.716 78 256.055 78c98.334 0 178.055 79.72 178.055 178.055" fill="#DBA111"/><path d="M428.17 256.055c0 95.06-77.056 172.115-172.116 172.115-95.06 0-172.118-77.055-172.118-172.115S160.993 83.937 256.054 83.937c95.06 0 172.116 77.057 172.116 172.118" fill="#034694"/><path d="M378.71 256.055c0 67.74-54.915 122.647-122.656 122.647-67.744 0-122.66-54.906-122.66-122.647 0-67.748 54.916-122.66 122.66-122.66 67.742-.002 122.656 54.912 122.656 122.66" fill="#DBA111"/><path d="M375 256.055C375 321.747 321.737 375 256.054 375c-65.692 0-118.945-53.254-118.945-118.945 0-65.69 53.25-118.945 118.94-118.945S375 190.363 375 256.055" fill="#FFF"/><path d="M154.137 358.67c1.316 1.257 4.554 4.34 4.554 4.34l3.11-3.267-9.26-8.827-1.19 1.25-12.43 13.03 4.72 4.493 5.45-5.71c1.22 1.15 4.15 3.94 4.15 3.94l3.108-3.26-4.14-3.96 1.947-2.05m22.326 14.885c-.42-2.5-1.822-4.708-3.945-6.216-2.112-1.5-4.65-2.094-7.15-1.684-2.69.46-5.11 2.03-6.812 4.41-1.695 2.4-2.38 5.2-1.924 7.9.42 2.494 1.81 4.687 3.93 6.196 2.115 1.51 4.67 2.11 7.17 1.69 2.69-.45 5.11-2.023 6.804-4.414 1.36-1.9 2.07-4.07 2.07-6.24 0-.54-.045-1.1-.14-1.64zm-13.294 6.922c-2.16-1.53-.375-4.73.885-6.49 1.256-1.775 3.693-4.517 5.857-2.988 2.26 1.615.15 5.105-.865 6.52-1.014 1.434-3.61 4.57-5.873 2.956zm27.85-1.98c-4.983-2.52-10.746-.458-13.39 4.79-1.328 2.62-1.588 5.5-.734 8.09.79 2.405 2.5 4.37 4.82 5.535 2.32 1.18 4.93 1.384 7.34.592 2.59-.845 4.75-2.758 6.067-5.38 2.657-5.257.89-11.115-4.1-13.636zm-5.51 14.575c-.586.19-1.14.13-1.77-.184-.99-.5-1.337-1.4-1.337-2.403 0-1.39.67-3.03 1.236-4.15.98-1.943 2.98-5.01 5.344-3.817.622.32.995.73 1.185 1.31.397 1.196 0 3.16-1.07 5.26-1.06 2.103-2.405 3.59-3.596 3.984zm15.8-7.367l-.92 2.63s2.343.822 3.055 1.057l-5.035 14.377 6.142 2.15s4.142-11.796 5.04-14.36c.713.25 3.06 1.062 3.06 1.062l1.49-4.24-12.27-4.303-.57 1.625m25.503 5.703l-8.3-1.754-.36 1.69-3.708 17.616 8.45 1.79c2.7.557 4.478-.105 5.49-.76 1.288-.84 2.19-2.218 2.537-3.864.093-.446.14-.88.14-1.306 0-1.19-.378-2.266-1.06-3.188.95-.755 1.63-1.82 1.91-3.153.07-.344.113-.73.113-1.137 0-2.253-1.29-5.116-5.22-5.936zm-2.29 13.45c-.09.4-.25.934-.556 1.133-.28.184-.823.207-1.524.055 0 0-.32-.07-.7-.142.27-1.27.45-2.113.714-3.39.36.09.82.18.82.18 1.09.23 1.3 1.037 1.3 1.62 0 .237-.03.436-.06.55zm-.568-9.43c.73.166 1.266.433 1.47.745.096.145.14.345.14.58 0 .145-.02.31-.055.51-.114.52-.265 1.234-1.7.94 0 0-.18-.047-.427-.1.23-1.066.338-1.6.57-2.67zm18.176-1.15l-9.015 18.46 5.15.394s1.39-2.94 1.95-4.116c1.087.093 2.18.17 3.246.256.4 1.233 1.405 4.363 1.405 4.363l6.85.53-7.653-23.725-1.93 3.83M262.47 409l-.63-14.982-6.506.27.82 19.716 13.04-.543-.196-4.73s-4.654.2-6.524.27m17.845-1.882c-.42-2.67-2.32-14.81-2.32-14.81l-1.71.27-4.73.738 3.05 19.5 12.895-2.022-.74-4.68s-4.6.728-6.45 1.007M317.65 394c-.052 1.69-1.048 3.146-2.603 3.76-.86.344-1.685.344-2.51-.006-1.266-.54-2.437-1.91-3.14-3.67-.83-2.073-.997-3.84-.454-5.08.373-.863 1.105-1.51 2.223-1.96 1.21-.48 2.36-.04 3.934.89l1.446.854 2.4-3.786-1.423-.937c-2.62-1.72-5.86-2.07-8.667-.95-2.6 1.04-4.62 2.98-5.686 5.462-1.083 2.52-1.083 5.4.015 8.133 2.07 5.18 7.925 7.73 13.044 5.682 3.7-1.478 5.79-4.29 6.06-8.13l.12-1.712-4.72-.35-.058 1.807m15.19-5.385c-1.334-2.37-7.32-13.11-7.32-13.11l-1.5.847-4.19 2.34 9.63 17.22 11.382-6.36-2.307-4.14s-4.075 2.273-5.7 3.193m12.66-26.57l-1.395 1.022-2.445 1.797 7.99 10.89c.367.494.367.823.335 1.015-.074.562-.66 1.17-1.177 1.544-.243.173-.81.41-1.386.32-.413-.06-.738-.284-1.028-.676l-7.9-10.767-5.266 3.854 7.86 10.717c1.163 1.586 2.61 2.524 4.3 2.782 1.893.294 4.05-.35 6.05-1.83 4.12-3.015 4.05-7.015 2.255-9.466l-8.2-11.2m23.98-3.96c-1.21-1.26-2.704-1.824-4.273-1.74-.09-1.22-.564-2.38-1.506-3.36-1.65-1.7-5.33-3.02-8.717.28l-6.094 5.89 13.73 14.174 6.2-6.01c1.98-1.92 2.415-3.78 2.433-4.98.035-1.54-.6-3.05-1.776-4.26zm-10.373-.48c.205.22.455.473.455.83 0 .29-.16.65-.635 1.1l-.302.303c-.77-.798-1.134-1.173-1.914-1.975 1.37-1.26 1.94-.72 2.393-.26zm3.25 4.88c1.115-1.07 2.186-.13 2.49.19.298.3.634.72.634 1.08v.01c-.01.336-.29.8-.8 1.295 0 0-.24.23-.52.493-.9-.93-1.506-1.55-2.406-2.475l.6-.59z" fill="#DBA111"/><path d="M154.094 356.842c.538.517 4.547 4.34 4.547 4.34l1.33-1.393-7.38-7.05-.3.31-11.53 12.09 2.84 2.71s4.92-5.15 5.44-5.71l4.16 3.95 1.324-1.39-4.15-3.95c.478-.51 3.263-3.43 3.738-3.928m17.67 11.55c-1.83-1.3-4.02-1.823-6.17-1.463-2.362.405-4.48 1.783-5.98 3.893-1.502 2.116-2.105 4.57-1.704 6.92.36 2.16 1.57 4.06 3.404 5.36 1.84 1.31 4.04 1.825 6.2 1.46 2.35-.392 4.47-1.78 5.967-3.87 1.197-1.69 1.83-3.604 1.83-5.5 0-.47-.04-.95-.117-1.423-.366-2.15-1.58-4.06-3.43-5.37zm-1.664 9.89c-1.24 1.732-4.465 5.54-7.675 3.256-3.2-2.27-.66-6.565.574-8.31 1.237-1.743 4.463-5.544 7.66-3.274 3.21 2.29.676 6.59-.56 8.326zm20.333 1.38c-4.323-2.188-9.33-.37-11.653 4.224-1.17 2.31-1.4 4.823-.66 7.1.68 2.07 2.16 3.762 4.17 4.774 2.013 1.03 4.272 1.214 6.352.53 2.263-.75 4.152-2.425 5.32-4.733 2.315-4.59.796-9.71-3.54-11.89zm-7.277 14.383c-3.5-1.76-1.64-6.39-.67-8.29.963-1.91 3.583-6.158 7.078-4.38.93.463 1.554 1.156 1.85 2.06.69 2.1-.424 4.81-1.15 6.25-.723 1.43-2.25 3.935-4.35 4.622-.897.305-1.826.212-2.75-.26zm19.375-7.907l-.492 1.403 3.06 1.077-5.04 14.363 3.71 1.305s4.773-13.597 5.04-14.367l3.06 1.07.64-1.806-9.83-3.45-.138.404m24.02 6.536l-7.036-1.487-.09.43-3.44 16.36 7.18 1.51c1.825.38 3.343.19 4.52-.58 1.014-.66 1.696-1.72 1.974-3.04.07-.36.115-.703.115-1.04 0-1.43-.71-2.64-1.98-3.51 1.465-.42 2.515-1.5 2.853-3.102.058-.25.09-.543.09-.88 0-1.635-.86-3.96-4.19-4.66zm-2.46 1.446c1.183.25 2 .702 2.42 1.345.24.365.357.79.357 1.29 0 .243-.03.494-.09.77-.455 2.176-2.214 2.153-3.227 1.93 0 0-1.07-.22-1.693-.35.143-.67.96-4.555 1.1-5.224.45.092 1.13.237 1.13.237zm-.54 7.302c2 .42 2.314 1.995 2.314 2.953 0 .41-.062.704-.07.753-.2.945-.56 1.584-1.114 1.94-.582.39-1.424.467-2.49.246 0 0-1.28-.276-1.966-.41l1.25-5.928c.582.12 2.08.44 2.08.44zm19.75-6.578l-8.18 16.75 2.355.174s1.734-3.64 1.964-4.103c.5.037 4.505.35 4.996.39.157.48 1.406 4.36 1.406 4.36l4.06.313-6.08-18.84-.52.956zm-.9 6.733c.4 1.265 1.16 3.704 1.41 4.5-.81-.06-2.67-.204-3.47-.265l2.06-4.237zm18.82 8.784c-.03-.817-.633-14.98-.633-14.98l-.417.016-3.504.146.72 17.14 10.454-.445-.092-2.14c.003.006-5.77.25-6.526.27m18.01-1.74c-.13-.81-2.33-14.83-2.33-14.83l-.42.067-3.455.55 2.66 16.94 10.334-1.63-.337-2.12s-5.71.9-6.45 1.024m39.695-14.58c-.06 2.23-1.37 4.123-3.414 4.945-1.185.473-2.36.456-3.493-.03-1.6-.676-2.992-2.277-3.84-4.38-.95-2.4-1.104-4.5-.44-6.07.52-1.19 1.5-2.08 2.94-2.65 1.88-.75 3.61.107 5.07.974l.368.214 1.053-1.65-.356-.24c-2.27-1.485-5.073-1.795-7.485-.83-2.287.917-4.06 2.607-4.98 4.77-.947 2.193-.94 4.737.03 7.135 1.803 4.522 6.896 6.745 11.37 4.963 3.243-1.3 5.004-3.65 5.24-7.01l.03-.432-2.07-.143-.025.44m13.4-3.655c-.404-.71-7.32-13.1-7.32-13.1l-.38.21-3.047 1.71 8.354 14.96 9.133-5.1-1.04-1.875c.003 0-5.054 2.82-5.7 3.194m12.88-26.52l-.352.26-1.4 1.024L350.7 375c.484.66.675 1.32.57 1.97-.17 1.17-1.24 2.07-1.687 2.39-.513.387-1.45.707-2.35.56-.762-.112-1.386-.515-1.89-1.186l-7.14-9.73-3.16 2.33L342.13 381c.957 1.303 2.12 2.07 3.46 2.27 2.11.32 4.09-.856 5.09-1.583 3.42-2.514 3.466-5.66 1.988-7.663l-7.446-10.16m23.325-4.86c-1.327-1.374-3.025-1.687-4.785-1.01.137-.41.22-.83.22-1.248 0-1.018-.405-2.01-1.22-2.85-1.104-1.134-3.96-2.537-6.884.305l-5.16 5 11.927 12.32 5.28-5.12c1.33-1.28 2.026-2.655 2.043-4.05.022-1.22-.473-2.37-1.417-3.34zm-7.7-.536c0 .86-.563 1.57-1.016 2.01l-1.24 1.21c-.48-.495-3.24-3.343-3.71-3.848l.83-.797c1.615-1.573 3.03-1.677 4.33-.33.597.62.817 1.203.817 1.744zm3.283 8.932c-.49-.502-3.71-3.836-4.206-4.34.426-.41 1.53-1.483 1.53-1.483 2.103-2.03 4.236.12 4.327.22.66.684.99 1.332.99 1.976v.03c-.01.71-.42 1.45-1.196 2.22 0 0-1.026.987-1.443 1.383z" fill="#FFF"/><path d="M176.948 138.757l-7.197 1.94.83 2.58c1 3.124.1 6.397-2.34 8.533-1.35 1.188-2.92 1.734-4.64 1.615-2.62-.176-5.58-1.873-7.91-4.543-2.75-3.15-4.12-6.18-3.945-8.75.12-1.875 1.033-3.52 2.78-5.052 1.93-1.69 4.38-1.625 7.7-.966l2.463.487 1.59-6.89-2.48-.6c-5.33-1.32-10.89-.02-14.857 3.45-7.77 6.8-8.403 17.9-1.474 25.83 6.44 7.36 17.61 8.168 24.89 1.8 5.25-4.58 7.076-10.443 5.29-16.933l-.68-2.48m19.544-36.1l-7.35 3.465s4.102 8.698 5.513 11.695c-2.096.985-4.13 1.945-6.226 2.936-1.417-2.993-5.523-11.694-5.523-11.694l-9.68 4.57 14.74 31.27 9.688-4.57s-4.566-9.67-6.036-12.806c2.098-.98 4.127-1.94 6.23-2.93l6.035 12.8 9.69-4.57-14.74-31.262-2.34 1.105m32.775 19.37c-.473-2.33-.95-4.694-1.418-7.02 2.99-.6 10.936-2.205 10.936-2.205l-1.4-6.947-10.942 2.21c-.43-2.13-.782-3.914-1.22-6.04l11.61-2.345-1.4-6.943-2.54.51-19.563 3.96 6.84 33.89 22.284-4.51-1.4-6.94s-8.655 1.747-11.782 2.38m31.61-30.1l-10.717-.22-.054 2.59-.67 31.98 22.5.47.16-7.49s-8.638-.19-11.794-.25l.58-27.075m34.73 17.437c-2.78-2.047-3.593-2.865-3.31-3.98.136-.58.766-2.426 2.764-1.93 1.2.31 2.398.94 2.93 3.526l.586 2.87 7.076-2.39-.44-2.23c-.87-4.376-4.574-8.1-9.22-9.26-3.326-.83-6.66-.386-9.4 1.26-2.51 1.504-4.28 3.88-4.98 6.69-1.774 7.09 3.004 10.5 6.16 12.76 3.24 2.317 4.064 3.223 3.57 5.16-.155.6-.51 1.08-1.068 1.416-.65.38-1.46.52-2.126.347-1.7-.42-2.44-1.225-3.158-3.426l-.87-2.637-7.1 2.9.69 2.256c1.33 4.38 4.51 7.14 9.71 8.445 5.845 1.46 12.936-1.223 14.7-8.242 1.845-7.393-3.19-11.1-6.52-13.54m25.57 18.44l9.958 5.032 3.2-6.32-9.952-5.03c.975-1.94 1.8-3.57 2.77-5.508l10.577 5.34 3.19-6.323-20.124-10.17-1.163 2.303L305.2 135.7l20.29 10.246 3.2-6.317s-7.885-3.99-10.734-5.42c1.067-2.12 2.163-4.28 3.23-6.4m40.076 3.23l-32.242 16.68 6.168 5.36s5.323-2.83 7.257-3.846l4.972 4.323c-.694 2.057-2.665 7.84-2.665 7.84l8.5 7.395 13.785-40.65-5.774 2.886" fill="#DBA111"/><path d="M175.74 140.86l-3.8 1.034.278.86c1.208 3.793.118 7.762-2.852 10.36-1.706 1.496-3.695 2.18-5.892 2.04-3.115-.21-6.428-2.08-9.102-5.137-3.057-3.5-4.572-6.96-4.372-10.008.158-2.32 1.292-4.41 3.37-6.23 2.732-2.39 6.17-1.95 9.172-1.36l.825.16.83-3.61-.825-.21c-4.792-1.18-9.764-.03-13.313 3.08-7.03 6.15-7.59 16.19-1.31 23.38 5.81 6.642 15.88 7.37 22.46 1.63 4.77-4.18 6.37-9.28 4.75-15.17l-.23-.84m21.48-36.65l-5.786 2.737 5.51 11.69c-1.24.59-8.108 3.83-9.355 4.41l-5.506-11.69-6.57 3.1 13.27 28.14 6.57-3.09s-5.39-11.424-6.04-12.806c1.245-.586 8.107-3.82 9.352-4.41.646 1.38 6.035 12.808 6.035 12.808l6.56-3.1-13.26-28.14-.78.36m30.69 19.852c-.27-1.358-1.826-9.058-2.096-10.41l10.937-2.21-.71-3.556-10.94 2.2c-.262-1.326-1.633-8.1-1.895-9.425 1.45-.297 11.6-2.34 11.6-2.34l-.72-3.558-18.72 3.773 6.16 30.504 18.9-3.817-.72-3.558-11.788 2.38m31.203-30.43l-7.256-.158-.017.855-.64 30.255 19.053.407.086-4.036-11.79-.25c.04-1.614.57-27.07.57-27.07m36.364 8.166c2.308.578 3.64 2.12 4.205 4.85l.194.955 3.78-1.28-.15-.747c-.75-3.727-3.937-6.913-7.944-7.92-2.88-.72-5.75-.342-8.09 1.063-2.117 1.27-3.61 3.276-4.197 5.64-1.49 5.944 2.385 8.713 5.492 10.934 3.144 2.25 5.04 3.786 4.232 6.976-.32 1.325-1.188 2.084-1.857 2.484-1.038.62-2.31.815-3.427.54-2.293-.575-3.474-1.81-4.37-4.56l-.29-.88-3.93 1.6.23.756c1.14 3.752 3.92 6.132 8.49 7.28 5.02 1.25 11.1-1.02 12.6-7 1.56-6.264-2.55-9.296-5.88-11.73-2.825-2.085-4.53-3.48-3.95-5.784.51-2.06 2.214-3.845 4.857-3.18m30.907 11.88c1.326.663 10.566 5.332 10.566 5.332l1.64-3.24-17.043-8.61-.39.766-13.647 27.01 17.2 8.694 1.64-3.24-10.722-5.425c.62-1.236 4.166-8.24 4.78-9.47l9.956 5.03 1.65-3.24-9.96-5.03c.61-1.207 3.724-7.38 4.333-8.58m35.66 18.895l-29.986 15.52 3.35 2.914 7.26-3.847 6.747 5.87c-.32.946-2.673 7.833-2.673 7.833l5.69 4.943 11.586-34.166-1.977.928zm-15.905 12.8c1.42-.733 5.04-2.615 7.25-3.765-.82 2.35-2.178 6.22-2.698 7.727-1.15-1.007-3.403-2.964-4.555-3.96z" fill="#FFF"/><path d="M341.12 251.383c-2.46-6.513-10.927-9.343-18.93-6.32-3.34 1.254-6.073 3.353-7.936 5.832 5.285-15.085 26.814-18.286 26.814-32.32 0-23.523-33.405-16.934-28.544.003 0-7.685 12.23-9.093 12.23 0 0 9.095-21.326 15.06-21.326 30.423 0 16.94 16.94 18.51 15.226 34-.29 2.67-3.164 6.18-7.32 6.18-25.948 0-16.686-31.94-25.752-41.66l.474-6.56c5.24 3.22 19.146-4.31 9.992-15.79 0 5.65-11.752 5.33-11.752-5.33 0-14.43 13.49-6.9 14.144-3.71-.646-5.25-.89-8.59-.023-11.61-7.272 2.345-7.952-1.86-7.032-3.485 1.053-1.88 2.462-4.08 5.296-4.08 1.54 0 2.45.215 3 .588.91.62 1.57-.793 1.44.52.78-1.182.47.297 1.22-.89.77-1.18 1.8-2.51 3.61-4.29l-.08-2.66 2.12.776 2.04-3.29c-2.195-4.55-5.174-2.36-7.367-8-1.834-.478-30.407 2.63-29.58-8.77-2.33 0-7.85 1.274-4.432 5.915-2.652.32-4.57-2.697-8.57 5.46 5.015-.94 2.42 4.665 2.42 6.26 0 10.336-13.76 10.16-13.76 5.32-3.315 3.22-1.434 10.268 3.58 12.004 0 0-1.91 7.535-6.614 12.313-6.99-.28-18.2-1.494-24.65-7.59-2.78-2.63-4.99-4.06-6.87-4.795v-3.42c2.753-1.35 5.773-3.733 8.91-7.72 2.45-2.99 3.774-6.823 3.418-10.895-.046-.488-.12-.968-.203-1.437-.026-.15-.063-.292-.1-.44-.07-.326-.15-.64-.24-.965-.043-.15-.085-.31-.135-.47-.104-.32-.22-.63-.35-.94-.05-.13-.09-.27-.15-.39-.172-.41-.37-.8-.58-1.2-.09-.16-.182-.31-.27-.45-.144-.235-.28-.475-.433-.704-.122-.18-.25-.365-.38-.548-.133-.176-.274-.355-.41-.53-.153-.187-.303-.386-.466-.572-.11-.12-.228-.24-.34-.352-.41-.45-.85-.87-1.31-1.27-.04-.03-.087-.073-.13-.11-.26-.22-.535-.43-.805-.63l-.22-.156c-.29-.206-.585-.405-.894-.595-.02-.013-.033-.02-.05-.034-2.933-1.796-6.482-2.74-10.23-2.44-9.02.72-15.73 8.26-14.98 16.844.59 6.69 5.52 12.03 11.936 13.735-2.25 1.256-4.15 1.98-4.58 1.98.07.046.165.1.266.164l.09.05c.087.054.19.112.296.17.026.014.06.03.084.044.144.072.293.15.46.23.03.01.06.02.087.032.15.07.3.14.46.203.046.02.096.04.145.05.395.163.837.31 1.32.45.07.017.14.033.2.052.196.05.395.095.6.144.067.01.136.02.21.04.26.042.53.09.8.12.025 0 .048.01.07.01v1.942c-.102.02-.194.032-.29.047-2.934.485-4.842 1.39-5.704 4-.857 2.624.023 3.57 1.4 5.41-1.16 2.08-4.206 2.854-.235 7.44-.29 1.73.08 4.49 2.6 5.327.825.28 1.51.426 2.23.55v34.385c-2.513 1.33-3.754 2.99-4.44 4.54 0 0-2.02-4.48-1.885 4.396 2.295-1.78 1.39 2.06 1.39 2.06-3.12 4.045.846 3.825.846 3.825 2.69-2.685 2.14 1.218 2.14 1.218 0 4.76 1.935 6.625 1.95 6.63v26.197l-2.282.01.024 7.23 3.99-.01c-2.24.93-3.72 3.142-3.505 5.59.27 3.083 3.12 5.375 6.36 5.125 3.24-.26 5.65-2.967 5.372-6.06-.186-2.133-1.6-3.874-3.52-4.674l3.684-.012-.017-7.23-2.2.01.006-23.24c.45.25.94.424 1.474.54.21.04.422.07.64.083.093.014.192.014.287.02-.59-3.058 1.235-5.08 1.235-5.08.937-1.41 2.293-2.51 3.835-3.29 4.61-2.315 10.906-1.73 12.787 2.04 11.92-3.144 22.164-15.125 22.164-15.125l5.868 9.983c-12.44 4.16-39.533 27.713-20.724 35.87-.005 2.376-.323 20-11.625 18.6-16.277-2.004-20.336 4.73-17.21 12.3-1.47 6.384 3.446 8.6 3.446 8.6-.734-3.69 1.04-6.743 7.766-6.704-.03 6.73 4.31 7.94 4.31 7.94.03-5.76 4.036-7.89 7.59-7.875-.024 4.746 5.49 6.55 5.49 6.55s-1.4-5.47 4.837-6.55c15.78-2.75.96-18.98 24.957-23.45 0 0-11.95-1.8-11.95-8.334 0-5.946 10.82-10.012 14.54-10.012 7.64 14.593 15.94 14.708 18.11 14.812 3.388 3.776 2.25 16.51-2.63 16.26-17.874-.96-17.22 9.91-15.22 12.135-.23 4.22 3.057 6.66 3.057 6.66 0-4.53 4.304-5.8 9.824-5.5-.29 5.525 3.23 6.35 3.23 6.35.1-5.56 4.215-6.506 7.138-6.353-.214 3.898 3.655 5.046 3.655 5.046s-.38-4.95 4.83-4.95c9.88-.006-4.47-21.18 14.814-42.12-16.938 7.84-25.95-11.76-25.95-15.52 8.706 10.19 36.932 12.22 36.932-5.18 0-16.627-18.27-22.82-9.72-29.18 4.974-3.697 14.75 3.772 9.16 11.487 8.02-2.974 12.49-10.74 10.04-17.25zm-108.27.524c-6.385 3.755-10.666 8.505-16.488 10.583-.884.31-1.59.4-2.202.36V230.4c1.543.143 5.546.69 10.226 2.626 4.635 2.53 4.635 7.757-1.215 8.996 3.7 7.08 16.51 3.613 19.3-2.152 1.37-.122 2.58 2.32 3.71 4.627-1.79.933-5.47 2.788-13.32 7.41zm71.477-53.794c-.703.953-1.395 1.9-2.002 2.712 1.62 2.692 4.667 4.375 8.005 4.066 4.613-.43 8.01-4.53 7.585-9.14-.025-.17-.048-.32-.07-.48-.495 2.39-3.313 4.42-6.898 4.75-2.714.26-5.17-.52-6.62-1.89z" fill="#D1D3D4"/><path d="M201.152 178.585c0 .005-.012.017-.012.028h-.004c.072-.172.148-.343.236-.51-.084.158-.16.315-.22.482zm.293 136.105c.007-.005.02-.005.022-.013h-.002c-.005.01-.012.01-.02.013zm-.202-149.96h.008zM198.8 313.893l3.996-.005c-.488.203-.928.47-1.33.79.398-.152.82-.244 1.265-.244 2.01 0 3.63 1.622 3.63 3.627s-1.62 3.63-3.62 3.63c-1.62 0-2.97-1.06-3.43-2.53v.33c.278 3.09 3.12 5.39 6.368 5.12 3.24-.25 5.648-2.96 5.38-6.05-.19-2.12-1.6-3.87-3.522-4.67l3.685-.01-.015-7.23-2.197.015v-23.24c-2.147-1.115-3.387-3.544-2.91-6.04 1.378 0 2.608.356 3.43.92-1.27 2.79 1.89 5.75 1.89 5.75-.59-3.05 1.23-5.07 1.23-5.07.945-1.414 2.3-2.516 3.835-3.293 4.62-2.316 10.91-1.73 12.79 2.035 11.92-3.133 22.166-15.12 22.166-15.12l5.87 9.98c13.76 0 8.97-10.304 8.07-11.202 3.17 0 7.623 2.33 7.623 7.49 0 12.674-36.84 14.48-36.84 29.862 0 6.457 6.4 8.914 6.4 8.914 0 14.024-9.63 22.355-16.22 22.355-10.535 0-18.6-2.136-18.6 9.35h3.67c-3.49 3.487-.235 8.604-.235 8.604-.734-3.684 1.044-6.733 7.77-6.7h4.196c-2.663 2.664-1.11 6.71.12 7.944.025-5.77 4.02-7.9 7.585-7.88h3.044c-.83.815.502 4.606 2.445 6.542 0 0-1.406-5.463 4.835-6.544 15.78-2.75.95-18.98 24.95-23.457 0 0-11.94-1.8-11.94-8.34 0-5.934 10.816-10.01 14.53-10.01 2.93-.42 5.726-.312 8.116.2.97 9.42 11.788 8.964 14.145 8.964 9.173 9.176-2.335 23.91-2.335 23.91-14.086 0-19.66 1.94-19.66 10.142h2.67c-1.496 1.5-.65 5.63.38 6.66 0-4.53 4.31-5.79 9.83-5.5h2.902c-1.418 1.413-1.168 4.855.332 6.35.082-5.568 4.203-6.51 7.13-6.358h2.42c-.906.916 0 3.816 1.24 5.058 0 0-.38-4.95 4.824-4.955 9.883 0-4.474-21.18 14.82-42.12-16.938 7.845-25.957-11.76-25.957-15.522 8.71 10.19 36.94 12.224 36.94-5.174 0-14.04-13.02-20.64-11.94-26.18.376-4.24 3.935-7.57 8.28-7.57 4.59 0 8.31 3.725 8.31 8.313 0 3.497-2.146 6.484-5.206 7.71.006 0 .006-.007.006-.007-.007.006-.017.015-.017.03 8.01-2.973 12.49-10.744 10.04-17.25-2.467-6.515-10.935-9.35-18.933-6.33-3.35 1.263-6.073 3.354-7.935 5.836 5.28-15.084 26.81-18.28 26.81-32.32 0-23.522-33.403-16.93-28.543.007 0-.256.017-.507.048-.75.85-9.577 17.966-11.53 17.966.95 0 10.66-21.92 16.57-21.92 30.915 0 14.735 16.193 18.42 16.193 33.924 0 1.85-.98 9.8-11.73 9.8-10.38 0-15.37-5.804-18.206-13.375-5.29-10.21-3.347-26.154-9.3-32.53l.472-6.556c5.243 3.22 19.152-4.32 10.016-15.796 0 5.65-11.764 5.33-11.764-5.33 0-14.43 13.482-6.9 14.137-3.72-.646-5.25-.9-8.595-.014-11.61-7.28 2.34-7.95-1.86-7.044-3.49 1.063-1.888 2.47-4.08 5.3-4.08 4.09 0 3.83 1.5 3.613 3.613 1.56-2.36 2.002-4.136 5.64-7.69l-.08-2.67 2.11.786 2.05-3.294c-2.196-4.55-5.176-2.35-7.378-7.998-1.828-.48-25.85-2.696-25.02-14.098-2.126 0-7.91 7.33-3.998 11.253h-4.99c-2.668.316-8.894-1.546-12.89 6.61 9.84-9.837 16.224 13.63-1.895 13.63v-.006c-2.673.01-4.966-1.105-5.12-2.99-1.806 7.92 9.61 10.384 9.61 10.384 0 2.352-5.72 15.09-8.498 17.866 1.87 1.876 2.454 13.186-6.206 13.186 3.123-8.442-6.06-15.6-14.98-20.33h.01c-1.615-.614-3.153-1.36-4.578-2.26-5.478-2.5-9.93-3.91-9.93-3.91v-6.62c2.75-1.35 5.77-3.734 8.91-7.72 2.45-2.99 3.77-6.82 3.41-10.896-.04-.49-.11-.96-.21-1.437-.02-.15-.055-.29-.09-.438-.07-.327-.15-.65-.243-.965-.045-.16-.09-.312-.147-.472-.105-.325-.22-.643-.345-.95-.056-.133-.1-.26-.155-.387-.18-.41-.37-.81-.58-1.19-.08-.164-.18-.31-.27-.468-.14-.233-.28-.466-.432-.695-.123-.18-.25-.37-.382-.55-.13-.175-.268-.354-.41-.52-.152-.2-.305-.394-.47-.58-.105-.124-.22-.243-.333-.36-.413-.445-.85-.864-1.31-1.257-.046-.032-.085-.083-.13-.12-.26-.213-.53-.423-.81-.62-.076-.05-.145-.11-.216-.16-.297-.21-.59-.4-.9-.593-.017-.01-.035-.024-.053-.03-2.935-1.808-6.485-2.74-10.23-2.447-.81.064-1.593.21-2.36.372-5.197 1.993-8.98 8.074-8.98 15.272 0 6.784 3.365 12.568 8.095 14.876.066.02.135.05.2.06-2.25 1.26-4.15 1.987-4.583 1.987.074.045.17.098.27.167.028.01.056.027.086.04.09.05.187.106.3.166.028.02.055.03.086.044.132.07.29.156.453.236.03.01.06.023.084.04.144.067.3.127.465.196.044.02.09.04.14.06.4.158.833.31 1.322.45.065.014.13.033.2.053.19.05.39.093.593.135.07.02.14.03.21.05.26.05.528.096.807.13.02 0 .04.004.06.017 1.72.14 3.754-.285 3.754-.285v3.84c-.306 0-3.01-.87-3.752-1.61-.09.01-.19.03-.29.05-2.925.48-4.834 1.38-5.694 3.994-.86 2.62.02 3.57 1.394 5.41-1.17 2.07-4.202 2.85-.24 7.44-.28 1.73.08 4.494 2.6 5.33.825.28 1.51.42 2.23.55 1.493 0 3.755 1.248 3.755 4.346v29.55c1.36.08 2.836.262 4.176.38v-32.46c1.544.146 5.55.694 10.22 2.622.056.027.1.057.144.088 0 0-.006 0-.006-.002.426.05.86.146 1.29.274 3.11.954 5.05 3.655 4.32 6.046-.725 2.39-3.85 3.55-6.955 2.6 3.69 7.084 16.504 3.62 19.295-2.148 1.36-.12 2.57 2.32 3.71 4.624 0 0 3.21 1.23 11.16 1.23 0 0-32.176 20.544-41.483 20.544-3.978 0-12.798 0-12.798 3.01-2.427 0-5.92 4.12-5.92 6.474 2.29-1.79 4.155-1.79 4.155-1.79 1.952 0 3.053.58 3.053.58-.715.708-3.925 4.33-3.925 7.146 2.69-2.692 3.86-2.68 3.86-2.68s2.814-.364 3.815.64c-.677.67-1.86 3.11-1.86 5.99 0 0 1.666-3.22 3.753-3.22v30.89c0 .943-4.26 1.85-6.016 1.85v3.9zm1.313-93.448c-.794.03-1.17-1-1.177-1.374-.02-.37.278-1.42 1.07-1.46 1.885-.06 5.655.84 5.67 1.22.015.37-3.68 1.56-5.563 1.62zm-1.216-5.098c-1.093-.077-1.454-1.554-1.417-2.074.034-.51.61-1.922 1.702-1.842 2.61.2 7.666 2.02 7.624 2.53-.032.52-5.303 1.58-7.91 1.39zm-.45-6.532c-1.156-.304-1.25-1.96-1.11-2.51.143-.544 1.04-1.94 2.2-1.64 2.76.723 7.83 3.69 7.685 4.233-.14.545-6.013.64-8.774-.083zm8.547-18.404c.48-1.14.377-2.7.08-4.17l-.15.01c-3.32 0-6.008-2.69-6.008-6-.05-.563.03-1.113.222-1.62h.003c0-.01.01-.02.02-.024.72-2.513 3.03-4.363 5.78-4.363 3.31 0 6.01 2.69 6.01 6.013 0 3.83-2.695 7.354-5.94 10.173z" fill="#034694"/><path d="M297.16 195.657c1.608 2.692 4.662 4.375 8 4.064 4.62-.43 8.007-4.52 7.585-9.15-.017-.16-.048-.32-.07-.48-.49 2.39-3.32 4.42-6.898 4.75-2.722.26-5.175-.52-6.624-1.89-.698.96-1.4 1.91-1.993 2.72" fill="#ED1C24"/><path d="M285.942 180.077l2.9.153-1.45 1.99c-.002 0-1.94.614-1.45-2.143zm-6.922 0h4.18s-.15 3.374 2.902 3.676l-.648 1.074s-8.203-2.144-6.434-4.75z" fill="#FFF"/><path d="M207.223 208.897c.144-.544-4.927-3.51-7.685-4.233-1.162-.3-2.057 1.096-2.202 1.642-.14.547-.045 2.205 1.113 2.51 2.76.722 8.63.627 8.77.08zm-.416 5.062c.043-.52-5.015-2.34-7.624-2.53-1.092-.08-1.668 1.33-1.702 1.84-.03.52.33 1.99 1.42 2.07 2.61.19 7.88-.87 7.91-1.39zm-5.742-15.27v1.94c.74.74 3.446 1.61 3.755 1.61v-3.84s-2.034.42-3.755.28zm-1.06 18.91c-.79.03-1.088 1.08-1.07 1.46.008.37.386 1.4 1.178 1.37 1.884-.07 5.58-1.258 5.564-1.628-.016-.37-3.786-1.274-5.67-1.21zm-3.88 51.18c-3.118 4.04-.872 7.73-.872 7.73 0-2.82 3.21-6.44 3.927-7.15 0 0-1.1-.587-3.054-.587zm9.95 8.57c-.48 2.49.762 4.92 2.91 6.035.457.237.953.424 1.473.527.224.053.433.08.65.105.094 0 .19 0 .285.004 0 0-3.158-2.954-1.888-5.75-.824-.564-2.054-.92-3.43-.92zm-5.707-82.49c-4.73-2.31-8.092-8.095-8.092-14.877 0-7.197 3.78-13.28 8.976-15.27-7.8 1.73-13.303 8.66-12.614 16.474.583 6.62 5.42 11.91 11.73 13.67zm50.21-16.6c5.02-.947 6.723 3.515 6.723 5.113 0 6.05-4.71 8.487-8.61 8.51v.004c18.12 0 11.74-23.465 1.9-13.63zm-12.11 52.07c8.66 0 8.078-11.31 6.205-13.187 2.78-2.774 8.496-15.51 8.496-17.865 0 0-11.43-2.463-9.61-10.394-.01-.007-.01-.01-.01-.017l-.16-.03c-3.116 3.284-1.22 10.14 3.72 11.85 0 0-1.908 7.54-6.616 12.315-4.687-.183-11.256-.8-17.026-3.008 8.92 4.733 18.103 11.887 14.98 20.33zm-33.828-54.3c2.24-.18 4.21 1.41 4.403 3.55.185 2.13-1.482 4.01-3.725 4.183-2.248.18-4.223-1.407-4.402-3.544 0 3.313 2.69 6.005 6.01 6.005.048 0 .098-.005.148-.005.297 1.47.4 3.03-.08 4.176 3.24-2.82 5.937-6.345 5.937-10.176 0-3.32-2.69-6.01-6-6.01-2.76 0-5.08 1.86-5.78 4.39.53-1.39 1.86-2.44 3.51-2.57zm63.816-4.37c-3.916-3.928 1.87-11.26 3.997-11.26-2.325 0-12.408 6.6-8.985 11.255h4.988zm-50.452 65.18c3.106.95 6.23-.21 6.957-2.6.73-2.39-1.21-5.09-4.32-6.05-.43-.128-.86-.22-1.29-.27 4.5 2.564 4.44 7.703-1.34 8.92zm-9.01-33.01s4.45 1.407 9.927 3.91c-1.1-.68-2.13-1.45-3.05-2.324-2.78-2.624-4.99-4.06-6.87-4.783v3.2zm1.688 57.254c9.306 0 41.485-20.548 41.485-20.548-7.948 0-11.158-1.23-11.158-1.23-1.8.933-5.48 2.78-13.33 7.404-6.39 3.76-10.67 8.513-16.49 10.588-.89.32-1.6.393-2.2.36-1.34-.116-2.82-.298-4.18-.38v-29.54c0-3.1-2.27-4.345-3.76-4.345v34.386c-2.52 1.332-3.76 2.99-4.44 4.54 0 0-4.8-.64-4.66 8.24 0-2.357 3.492-6.476 5.915-6.476 0-3.002 8.82-3.002 12.8-3.002zm80.265 47.564c-2.356 0-13.173.46-14.144-8.964-2.39-.51-5.182-.613-8.112-.2 7.65 14.597 15.95 14.71 18.12 14.825 3.38 3.77 2.25 16.504-2.63 16.25-17.87-.95-17.22 9.922-15.21 12.15 0-8.2 5.58-10.146 19.66-10.146 0 0 11.51-14.73 2.336-23.91zm3.676 35.212h-2.42c-.204 3.906 3.663 5.056 3.663 5.056-1.243-1.245-2.148-4.146-1.243-5.06zm-22.62 5.5c-1.028-1.03-1.875-5.158-.382-6.66h-2.66c-.22 4.227 3.05 6.66 3.05 6.66zm53.36-135.77c0-12.485-17.12-10.524-17.966-.938.755-7.03 12.194-8.066 12.194.735 0 9.097-21.33 15.055-21.33 30.426 0 16.936 16.94 18.504 15.22 33.99-.29 2.68-3.16 6.182-7.32 6.182-8.91 0-13.68-3.79-16.45-9.13 2.84 7.57 7.82 13.37 18.2 13.37 10.76 0 11.73-7.95 11.73-9.8 0-15.506-16.19-19.19-16.19-33.926 0-14.35 21.92-20.26 21.92-30.92zm-126.248 60.23c0 4.78 1.95 6.633 1.95 6.633 0-2.88 1.184-5.32 1.86-5.99-1-1.008-3.81-.645-3.81-.645zm123.71-26.424c-4.345 0-7.903 3.323-8.278 7.565.198-1.016.877-2.006 2.202-2.996 4.97-3.7 14.73 3.754 9.17 11.46 3.06-1.23 5.21-4.215 5.21-7.714 0-4.583-3.72-8.31-8.31-8.31zm-38.085 96.47h-2.904c-.296 5.52 3.237 6.35 3.237 6.35-1.5-1.495-1.75-4.938-.334-6.35zm-82.008-29.45c-.448 0-.867.092-1.266.245-1.38 1.05-2.222 2.683-2.17 4.47.46 1.474 1.814 2.538 3.436 2.538 2.004 0 3.626-1.623 3.626-3.624 0-2-1.622-3.62-3.626-3.62zm20.393 26.812h-4.196c-.04 6.725 4.31 7.945 4.31 7.945-1.23-1.236-2.79-5.28-.12-7.946zm13.012-42.53c0-15.38 36.84-17.187 36.84-29.86 0-5.16-4.455-7.49-7.622-7.49.897.897 5.688 11.2-8.072 11.2-12.442 4.166-39.538 27.718-20.73 35.883-.01 2.37-.327 19.995-11.623 18.61-16.273-2.014-20.332 4.71-17.21 12.283 0-11.488 8.067-9.355 18.6-9.355 6.588 0 16.22-8.33 16.22-22.358 0 0-6.403-2.45-6.403-8.91zm-31.317 9.428v-30.88c-2.088 0-3.754 3.22-3.754 3.22v26.35-.166h-2.282l.02 3.325c1.754 0 6.016-.91 6.016-1.85zm6.34 39.8s-3.255-5.114.234-8.602h-3.672c-1.475 6.39 3.44 8.603 3.44 8.603zm22.712-6.63h-3.046c-.023 4.75 5.492 6.55 5.492 6.55-1.944-1.933-3.275-5.726-2.446-6.543z" fill="#6A7AB5"/><path d="M131.433 290.03l-.203-.622-.087-.65c-.298-2.22-.835-6.358-4.03-7.098-.853-.198-1.736-.096-2.677.29.256-.982.226-1.872-.083-2.688-1.178-3.062-5.347-3.023-7.587-2.994h-.658l-.65-.12c-2.2-.405-6.304-1.172-7.988 1.64-.452.75-.632 1.62-.555 2.63-.852-.55-1.712-.796-2.58-.754-3.277.175-4.53 4.153-5.2 6.294l-.205.622-.304.577c-1.075 1.973-3.067 5.63-.915 8.106.58.662 1.35 1.105 2.34 1.34-.78.646-1.28 1.385-1.5 2.23-.85 3.164 2.55 5.583 4.37 6.88l.54.393.46.465c1.54 1.64 4.41 4.66 7.426 3.38.8-.34 1.46-.94 1.99-1.8.38.95.92 1.65 1.654 2.13 2.75 1.78 6.097-.7 7.9-2.02l.53-.39.59-.29c2.025-.97 5.79-2.76 5.51-6.022-.077-.875-.444-1.68-1.1-2.45 1.01-.06 1.847-.366 2.525-.915 2.553-2.064 1.224-6.015.51-8.14" fill="#FFF"/><path d="M117.07 292.68c18.342 10.84 12.693-1.08 12.29-2.842-.406-1.757-.56-14.943-12.29 2.843m-1.152 2.72c-4.64 20.79 4.95 11.74 6.497 10.82 1.546-.93 14.04-5.15-6.497-10.81m-2.945-.25c-21.21 2-9.633 8.33-8.273 9.514 1.363 1.18 9.235 11.76 8.273-9.513m-.665-2.89c-8.465-19.55-10.907-6.587-11.612-4.92-.705 1.65-8.336 12.413 11.612 4.92" fill="#ED1C24"/><path d="M415.26 287.16l-.304-.58-.207-.62c-.68-2.142-1.93-6.12-5.2-6.295-.88-.04-1.73.203-2.59.748.07-1.006-.12-1.875-.56-2.625-1.693-2.813-5.79-2.045-7.99-1.64l-.656.12h-.654c-2.23-.03-6.4-.068-7.574 2.995-.32.815-.345 1.706-.095 2.688-.925-.38-1.81-.48-2.67-.29-3.19.74-3.74 4.88-4.02 7.1l-.1.65-.2.63c-.713 2.13-2.04 6.08.51 8.14.68.55 1.51.86 2.526.92-.656.77-1.02 1.58-1.1 2.45-.28 3.27 3.48 5.06 5.508 6.03l.585.29.53.39c1.806 1.33 5.16 3.808 7.9 2.028.74-.483 1.28-1.182 1.65-2.126.535.865 1.19 1.46 1.997 1.805 3.015 1.277 5.885-1.743 7.426-3.376l.462-.464.527-.4c1.828-1.294 5.225-3.714 4.37-6.876-.23-.85-.722-1.587-1.51-2.234.986-.232 1.76-.675 2.33-1.34 2.158-2.474.17-6.13-.912-8.103" fill="#FFF"/><path d="M399.045 290.74c-15.972-14.09-2.894-12.41-1.096-12.567 1.79-.15 14.38-4.084 1.09 12.567m-2.23 1.94c-18.34 10.84-12.71-1.08-12.29-2.842.4-1.757.55-14.943 12.29 2.843m1.15 2.72c4.64 20.79-4.95 11.74-6.5 10.82-1.55-.93-14.03-5.15 6.5-10.81m2.94-.25c21.21 2 9.64 8.33 8.27 9.514-1.356 1.18-9.238 11.76-8.278-9.513m.662-2.89c8.47-19.55 10.905-6.587 11.613-4.92.7 1.65 8.332 12.413-11.615 4.92" fill="#ED1C24"/><path d="M405.692 292.866c-.02-.17-.075-.322-.098-.487 1.703-1.26 3.543-2.6 3.543-2.6l-.177-.4-4.205.73c-1.033-1.697-2.794-2.84-4.81-3.04-.642-1.928-1.28-3.89-1.28-3.89l-.433.035s-.29 2.044-.582 4.046c-1.24.334-2.352 1.036-3.197 2.04-.45.54-.777 1.15-1.036 1.79-2.074 0-4.265.008-4.265.008l-.093.43 3.93 1.92c0 .17-.02.34 0 .515.14 1.66.92 3.15 2.17 4.24l-1.41 4.39.36.22s1.72-1.78 3.25-3.355c.8.266 1.65.37 2.51.29.867-.063 1.69-.323 2.436-.71l3.78 2.728.33-.284s-1.138-2.146-2.15-4.068c1.05-1.298 1.544-2.91 1.406-4.57" fill="#FFF"/><path d="M399.013 289.675c-1.006.077-1.91.552-2.558 1.33-.647.77-.96 1.743-.868 2.743.176 2.07 2.01 3.61 4.074 3.427 1.02-.092 1.92-.565 2.57-1.332.64-.777.95-1.744.87-2.75-.18-2.072-2.01-3.606-4.08-3.418m-284.17 1.065c15.98-14.09 2.89-12.41 1.1-12.567-1.8-.15-14.39-4.084-1.1 12.567" fill="#ED1C24"/><path d="M120.892 293.468c1.9-.923 3.934-1.92 3.934-1.92l-.095-.428s-2.18-.006-4.26-.006c-.25-.64-.58-1.25-1.03-1.792-.84-1.003-1.95-1.704-3.2-2.04l-.57-4.045-.44-.037s-.63 1.96-1.26 3.887c-2.03.196-3.79 1.345-4.822 3.038-2.053-.36-4.21-.734-4.21-.734l-.17.4s1.837 1.34 3.54 2.59c-.027.17-.077.32-.095.49-.14 1.67.365 3.28 1.413 4.57-1.02 1.92-2.154 4.07-2.154 4.07l.338.29s1.998-1.45 3.77-2.73c.75.39 1.57.64 2.436.718.864.08 1.713-.026 2.513-.29 1.53 1.575 3.244 3.357 3.244 3.357l.38-.22-1.416-4.384c1.254-1.096 2.03-2.59 2.18-4.25.02-.173-.007-.343-.007-.515" fill="#FFF"/><path d="M117.435 291.005c-.65-.777-1.55-1.253-2.56-1.33-2.064-.187-3.9 1.347-4.08 3.42-.085 1.006.225 1.973.866 2.75.65.767 1.56 1.24 2.57 1.332 2.07.182 3.9-1.358 4.08-3.428.09-1.01-.22-1.98-.86-2.75" fill="#ED1C24"/><path d="M117.178 202.105c-8.93-1.577-17.48 4.417-19.057 13.346-1.57 8.94 4.42 17.49 13.35 19.07 8.94 1.58 17.49-4.41 19.07-13.35 1.58-8.93-4.41-17.48-13.35-19.06" fill="#FFF"/><path d="M120.903 214.55c-.144-.09-.396-.252-.7-.454-1.35-.894-3.995-2.643-4.068-2.696-.366-.252-.723-.49-1.074-.728-1.17-.788-2.22-1.474-3.21-2.045-.38-.216-.75-.418-1.12-.6-1.57-.793-3.08-1.272-4.86-1.43-1.37.99-2.56 2.218-3.52 3.635 4.09 1.478 8.09 3.843 16.4 9.01.48-1.1 2.07-4.486 2.17-4.692m-3.834 8.82c.167-.416.898-2.266 1.197-2.98-8.523-5.293-12.48-7.635-16.58-9.085-.637 1.142-1.114 2.388-1.425 3.714 2.34 3.21 8.615 6.37 16.81 8.35m-.923-13.46c3.194-1.89 6.82-1.38 9.618-.42-1.04-1.35-2.303-2.53-3.773-3.44-2.646-.53-6.297-.61-9.204 1.7 1.06.62 2.15 1.34 3.365 2.16m-12.734 15.25c.43.29.866.57 1.33.83.94.52 1.96.97 3.01 1.35.445.17.9.32 1.355.47 1.6.522 5.266 1.48 5.54 1.54l1.95-4.835c-6.353-1.57-13.312-4.33-16.62-7.92-.196 1.66-.12 3.297.23 4.85.698 1.52 1.818 2.73 3.204 3.706m11.45 5.528l-1.327-.34c-1.23-.31-2.56-.66-3.915-1.08.66 1.41 1.7 2.51 2.81 3.357 1.487.197 2.95.16 4.36-.084-1.015-.79-1.924-1.85-1.924-1.85" fill="#ED1C24"/><path d="M128.15 214.113c-.302-.987-.698-1.943-1.197-2.834-2.505-1.12-6.32-2.21-9.652-.58l4.6 3.03c.96-.09 1.84-.11 2.65-.09.44 0 .85.03 1.24.07.9.08 1.67.22 2.37.4m-2.35.84c-.13 7.55-3.69 13.38-6.76 17.02 4.805-1.67 8.59-5.81 9.538-11.16.32-1.83.266-3.63-.072-5.34-.746-.233-1.64-.427-2.7-.534m-14.16-7.84c2.15-1.895 4.69-2.536 7.034-2.59-.597-.19-1.203-.353-1.835-.46-3.34-.59-6.61.03-9.385 1.535 1.48.29 2.817.808 4.186 1.516" fill="#ED1C24"/><path d="M122.072 214.96c-1.093 2.277-1.736 3.672-2.27 4.94-.163.384-.323.757-.484 1.145-.255.636-1.04 2.613-1.04 2.613l-.468 1.16-2.03 5.028c.56.743 1.238 1.348 1.905 1.82 3.015-3.438 6.768-9.22 6.882-16.785-.76-.02-1.593 0-2.495.08m-13.976 13.82c-1.012-.35-2.023-.74-2.977-1.21.35 1.1.87 2.08 1.38 2.92 1.08.7 2.27 1.25 3.54 1.64-.83-.924-1.54-2.02-1.95-3.34m-4.47-2.023c-.69-.41-1.33-.87-1.92-1.372.67 1.2 1.51 2.295 2.49 3.257-.238-.6-.44-1.22-.58-1.88" fill="#ED1C24"/><path d="M381.578 221.165c1.578 8.933 10.125 14.924 19.057 13.348 8.935-1.576 14.92-10.126 13.352-19.06-1.577-8.93-10.13-14.925-19.064-13.348-8.934 1.58-14.92 10.128-13.345 19.06" fill="#FFF"/><path d="M391.2 214.55c.14-.09.395-.252.706-.454 1.35-.894 3.992-2.643 4.06-2.696l1.082-.728c1.163-.788 2.224-1.474 3.214-2.045.38-.216.754-.418 1.118-.6 1.57-.793 3.084-1.272 4.86-1.43 1.37.99 2.567 2.218 3.518 3.635-4.088 1.478-8.07 3.843-16.398 9.01-.478-1.1-2.062-4.486-2.16-4.692m3.838 8.82c-.17-.416-.906-2.266-1.19-2.98 8.508-5.293 12.478-7.635 16.575-9.085.632 1.142 1.112 2.388 1.423 3.714-2.344 3.21-8.615 6.37-16.808 8.35m.922-13.46c-3.194-1.89-6.817-1.38-9.62-.42 1.045-1.35 2.316-2.53 3.785-3.44 2.64-.53 6.29-.61 9.193 1.7-1.05.62-2.148 1.34-3.357 2.16" fill="#ED1C24"/><path d="M408.686 225.163c-.417.293-.853.57-1.326.833-.935.52-1.95.968-3 1.352-.45.17-.906.325-1.362.473-1.59.53-5.263 1.48-5.538 1.55-.062-.14-1.44-3.54-1.95-4.83 6.35-1.57 13.304-4.33 16.62-7.92.197 1.66.112 3.3-.232 4.85-.7 1.52-1.817 2.73-3.212 3.71m-11.438 5.53l1.317-.34c1.233-.31 2.574-.66 3.93-1.077-.67 1.41-1.705 2.507-2.812 3.356-1.483.196-2.954.16-4.355-.085 1.006-.79 1.92-1.853 1.92-1.853m-13.293-16.58c.305-.99.694-1.942 1.204-2.833 2.49-1.118 6.3-2.21 9.64-.58l-4.6 3.035c-.96-.084-1.84-.11-2.65-.09-.44.006-.85.03-1.24.07-.9.077-1.66.22-2.36.4m2.35.84c.13 7.55 3.7 13.38 6.77 17.02-4.82-1.67-8.61-5.81-9.55-11.153-.32-1.827-.275-3.624.075-5.334.74-.232 1.636-.426 2.694-.533m14.165-7.835c-2.15-1.895-4.698-2.536-7.037-2.59.59-.19 1.19-.353 1.83-.46 3.34-.59 6.604.03 9.38 1.535-1.47.29-2.81.805-4.177 1.513m-10.44 7.845c1.094 2.275 1.725 3.67 2.276 4.94l.47 1.14c.26.64 1.043 2.617 1.043 2.617l.465 1.16 2.032 5.028c-.565.745-1.238 1.35-1.907 1.82-3.01-3.436-6.77-9.22-6.88-16.783.76-.023 1.598 0 2.496.08M404 228.78c1.014-.35 2.017-.745 2.98-1.21-.367 1.1-.87 2.078-1.395 2.918-1.08.694-2.27 1.242-3.533 1.633.82-.92 1.53-2.02 1.95-3.34m4.47-2.02c.677-.41 1.317-.87 1.91-1.37-.67 1.2-1.506 2.29-2.487 3.26.228-.6.434-1.22.578-1.88" fill="#ED1C24"/></g></svg>