<svg width="512" height="512" viewBox="0 0 512 512" xmlns="http://www.w3.org/2000/svg"><title>chelsea</title><g fill="none" fill-rule="evenodd"><path d="M434.11 256.055c0 98.344-79.72 178.055-178.055 178.055C157.715 434.11 78 354.4 78 256.055 78 157.72 157.716 78 256.055 78c98.334 0 178.055 79.72 178.055 178.055" fill="#DBA111"/><path d="M428.17 256.055c0 95.06-77.056 172.115-172.116 172.115-95.06 0-172.118-77.055-172.118-172.115S160.993 83.937 256.054 83.937c95.06 0 172.116 77.057 172.116 172.118" fill="#034694"/><path d="M378.71 256.055c0 67.74-54.915 122.647-122.656 122.647-67.744 0-122.66-54.906-122.66-122.647 0-67.748 54.916-122.66 122.66-122.66 67.742-.002 122.656 54.912 122.656 122.66" fill="#DBA111"/><path d="M375 256.055C375 321.747 321.737 375 256.054 375c-65.692 0-118.945-53.254-118.945-118.945 0-65.69 53.252-118.945 118.944-118.945C321.74 137.11 375 190.363 375 256.055" fill="#FFF"/><path d="M154.137 358.67c1.316 1.257 4.554 4.34 4.554 4.34l3.106-3.267-9.258-8.827-1.19 1.25-12.432 13.03 4.72 4.493s3.986-4.18 5.445-5.705c1.22 1.157 4.144 3.946 4.144 3.946l3.106-3.26s-2.92-2.786-4.138-3.952l1.945-2.05m22.327 14.885c-.42-2.5-1.822-4.707-3.945-6.215-2.115-1.502-4.65-2.094-7.15-1.684-2.693.457-5.11 2.026-6.815 4.41-1.697 2.4-2.383 5.196-1.926 7.898.42 2.492 1.813 4.685 3.93 6.194 2.117 1.506 4.673 2.108 7.17 1.69 2.69-.454 5.11-2.026 6.806-4.417 1.36-1.9 2.067-4.07 2.067-6.24 0-.54-.045-1.098-.14-1.638zm-13.294 6.923c-2.164-1.53-.378-4.73.882-6.49 1.257-1.773 3.694-4.515 5.858-2.986 2.258 1.615.148 5.105-.865 6.522-1.016 1.432-3.613 4.568-5.875 2.954zm27.846-1.98c-4.982-2.52-10.745-.456-13.39 4.79-1.327 2.622-1.587 5.5-.733 8.09.79 2.407 2.5 4.37 4.818 5.537 2.32 1.18 4.93 1.386 7.34.594 2.59-.844 4.75-2.757 6.067-5.378 2.658-5.257.89-11.115-4.1-13.636zm-5.51 14.577c-.585.19-1.14.132-1.768-.182-.988-.5-1.336-1.4-1.336-2.406 0-1.39.67-3.03 1.236-4.148.983-1.944 2.98-5.013 5.347-3.818.625.32.998.733 1.188 1.31.396 1.197-.002 3.16-1.07 5.262-1.062 2.102-2.406 3.59-3.597 3.983zm15.8-7.365l-.918 2.628s2.344.823 3.056 1.058c-.897 2.567-5.034 14.375-5.034 14.375l6.142 2.152s4.144-11.798 5.04-14.364c.715.25 3.06 1.064 3.06 1.064l1.49-4.242-12.267-4.303-.57 1.628m25.502 5.702l-8.3-1.753-.356 1.69-3.707 17.616 8.447 1.79c2.7.558 4.477-.104 5.49-.76 1.287-.84 2.19-2.217 2.536-3.863.095-.448.14-.882.14-1.308 0-1.19-.376-2.264-1.057-3.186.95-.755 1.63-1.822 1.91-3.153.072-.343.115-.73.115-1.136 0-2.255-1.288-5.118-5.22-5.938zm-2.285 13.45c-.088.402-.25.935-.555 1.134-.28.185-.823.208-1.524.056 0 0-.32-.07-.697-.145.27-1.27.45-2.116.713-3.39.36.086.82.177.82.177 1.09.23 1.3 1.036 1.3 1.62 0 .236-.03.435-.06.55zm-.567-9.43c.73.167 1.265.434 1.47.746.095.143.142.343.142.58 0 .143-.02.31-.057.508-.112.518-.263 1.234-1.7.94 0 0-.18-.047-.425-.1.23-1.066.338-1.6.57-2.67zm18.175-1.15l-9.015 18.462 5.15.393s1.392-2.94 1.95-4.113c1.088.092 2.18.168 3.247.255.4 1.233 1.406 4.363 1.406 4.363l6.85.532-7.654-23.725-1.933 3.83m20.33 14.74l-.63-14.983-6.507.274.822 19.713 13.038-.544-.196-4.73s-4.656.2-6.526.267m17.846-1.888c-.42-2.668-2.323-14.81-2.323-14.81l-1.706.272-4.733.737 3.055 19.498 12.895-2.024-.74-4.678s-4.6.726-6.45 1.005m37.335-13.115c-.052 1.69-1.048 3.146-2.603 3.76-.86.344-1.684.344-2.508-.006-1.267-.54-2.438-1.91-3.14-3.67-.83-2.076-.998-3.84-.455-5.08.373-.866 1.105-1.514 2.223-1.962 1.21-.482 2.36-.04 3.936.89l1.446.853 2.4-3.787-1.424-.937c-2.62-1.72-5.86-2.07-8.666-.95-2.603 1.04-4.62 2.98-5.688 5.463-1.083 2.518-1.083 5.4.015 8.132 2.07 5.18 7.927 7.73 13.046 5.682 3.7-1.478 5.794-4.29 6.06-8.13l.122-1.712-4.713-.35-.055 1.807m15.19-5.386c-1.333-2.37-7.32-13.11-7.32-13.11l-1.5.847-4.19 2.34 9.63 17.225 11.383-6.358-2.305-4.136s-4.074 2.272-5.698 3.192m12.66-26.568l-1.395 1.022-2.445 1.797 7.99 10.89c.366.494.366.823.334 1.015-.074.562-.66 1.17-1.177 1.544-.245.174-.81.412-1.388.32-.413-.06-.738-.283-1.028-.675l-7.897-10.767-5.264 3.853 7.86 10.715c1.165 1.587 2.613 2.525 4.303 2.783 1.894.296 4.05-.35 6.053-1.83 4.12-3.013 4.053-7.013 2.255-9.464l-8.202-11.2m23.978-3.96c-1.212-1.258-2.705-1.823-4.274-1.737-.092-1.22-.565-2.384-1.507-3.36-1.646-1.7-5.326-3.022-8.714.275l-6.096 5.894 13.732 14.177 6.2-6.01c1.98-1.92 2.417-3.78 2.435-4.98.034-1.543-.6-3.05-1.777-4.26zm-10.374-.48c.204.22.454.474.454.828 0 .29-.158.65-.634 1.105l-.302.304c-.77-.797-1.134-1.172-1.914-1.974 1.374-1.26 1.945-.722 2.396-.262zm3.25 4.882c1.114-1.074 2.185-.13 2.49.19.297.297.633.716.633 1.078v.012c-.006.335-.29.8-.8 1.294 0 0-.237.23-.517.494-.9-.93-1.506-1.552-2.406-2.476.266-.264.6-.592.6-.592z" fill="#DBA111"/><path d="M154.094 356.842c.538.517 4.547 4.34 4.547 4.34l1.324-1.393-7.387-7.047-.298.312-11.53 12.096 2.84 2.71s4.912-5.147 5.44-5.71l4.153 3.953 1.324-1.39-4.15-3.95c.478-.503 3.263-3.425 3.738-3.922m17.67 11.55c-1.83-1.303-4.023-1.824-6.173-1.464-2.362.405-4.48 1.783-5.98 3.893-1.502 2.114-2.105 4.57-1.704 6.92.36 2.157 1.572 4.06 3.405 5.36 1.842 1.31 4.042 1.823 6.202 1.46 2.35-.394 4.47-1.78 5.967-3.873 1.196-1.69 1.828-3.605 1.828-5.5 0-.473-.04-.952-.118-1.424-.366-2.154-1.58-4.063-3.427-5.374zm-1.667 9.887c-1.24 1.733-4.464 5.54-7.674 3.257-3.2-2.27-.66-6.564.574-8.308 1.238-1.744 4.464-5.545 7.66-3.275 3.21 2.293.677 6.59-.56 8.328zm20.334 1.378c-4.323-2.186-9.33-.367-11.653 4.226-1.17 2.31-1.4 4.824-.66 7.1.682 2.07 2.164 3.763 4.174 4.775 2.014 1.03 4.273 1.213 6.353.528 2.264-.748 4.153-2.424 5.322-4.732 2.315-4.59.796-9.71-3.54-11.894zm-7.277 14.385c-3.5-1.76-1.638-6.39-.67-8.293.963-1.91 3.583-6.156 7.078-4.38.93.465 1.552 1.158 1.847 2.063.687 2.097-.427 4.807-1.153 6.247-.723 1.43-2.25 3.936-4.35 4.623-.897.305-1.826.212-2.752-.26zm19.375-7.908l-.495 1.404 3.06 1.075c-.272.77-5.04 14.365-5.04 14.365l3.705 1.302s4.772-13.594 5.038-14.364l3.06 1.068.638-1.804-9.83-3.45-.135.407m24.016 6.537l-7.036-1.486-.094.427-3.44 16.36 7.18 1.51c1.825.38 3.343.19 4.518-.578 1.016-.662 1.698-1.72 1.976-3.037.07-.36.114-.703.114-1.038 0-1.43-.71-2.642-1.976-3.51 1.467-.422 2.517-1.502 2.855-3.104.058-.25.092-.545.092-.88 0-1.637-.86-3.96-4.19-4.66zm-2.46 1.447c1.183.25 2.002.703 2.42 1.346.238.366.357.793.357 1.29 0 .244-.032.495-.09.77-.456 2.177-2.215 2.154-3.228 1.933 0 0-1.07-.22-1.692-.35.145-.672.96-4.556 1.102-5.225.45.093 1.13.238 1.13.238zm-.54 7.303c1.998.42 2.314 1.997 2.314 2.955 0 .41-.065.705-.073.754-.202.943-.562 1.582-1.116 1.94-.583.39-1.425.465-2.49.244 0 0-1.28-.274-1.967-.41l1.25-5.926c.585.12 2.083.44 2.083.44zm19.752-6.576l-8.183 16.75 2.356.176s1.734-3.64 1.964-4.105c.498.038 4.504.35 4.995.39.156.48 1.405 4.362 1.405 4.362l4.06.313-6.08-18.842-.516.956zm-.9 6.735c.397 1.264 1.158 3.703 1.41 4.5-.81-.06-2.67-.205-3.47-.266l2.06-4.236zm18.82 8.783c-.032-.817-.634-14.982-.634-14.982l-.418.018-3.503.143.72 17.138 10.455-.444-.093-2.14c.002.002-5.77.246-6.527.27m18.012-1.744c-.13-.81-2.328-14.83-2.328-14.83l-.42.067-3.457.547 2.658 16.94 10.336-1.63-.336-2.118s-5.714.9-6.454 1.023m39.698-14.58c-.06 2.23-1.37 4.122-3.412 4.944-1.188.473-2.362.456-3.496-.03-1.598-.676-2.993-2.277-3.84-4.38-.95-2.398-1.105-4.5-.44-6.07.518-1.19 1.502-2.078 2.94-2.65 1.882-.752 3.61.107 5.072.974l.365.214 1.052-1.652-.354-.238c-2.27-1.486-5.072-1.796-7.484-.83-2.286.916-4.06 2.606-4.982 4.77-.944 2.192-.935 4.736.032 7.134 1.804 4.525 6.897 6.748 11.37 4.966 3.244-1.302 5.005-3.655 5.24-7.014l.03-.433-2.07-.144-.024.44m13.397-3.655c-.403-.708-7.32-13.1-7.32-13.1l-.38.212-3.046 1.706 8.352 14.96 9.133-5.098-1.04-1.873c.003 0-5.054 2.818-5.7 3.193m12.88-26.52l-.352.26-1.4 1.027L350.68 375c.484.662.675 1.324.57 1.972-.17 1.173-1.24 2.073-1.687 2.393-.513.387-1.45.707-2.35.56-.762-.112-1.386-.515-1.888-1.186l-7.135-9.735-3.16 2.33 7.088 9.665c.954 1.304 2.12 2.073 3.458 2.27 2.11.32 4.092-.855 5.09-1.582 3.42-2.514 3.465-5.66 1.987-7.663l-7.448-10.16M368.533 359c-1.326-1.374-3.024-1.687-4.784-1.01.137-.41.22-.83.22-1.248 0-1.018-.405-2.01-1.22-2.85-1.104-1.134-3.96-2.537-6.884.305L350.7 359.2l11.926 12.313 5.28-5.12c1.332-1.28 2.027-2.657 2.044-4.05.022-1.22-.473-2.37-1.417-3.343zm-7.7-.536c0 .862-.562 1.57-1.015 2.012l-1.24 1.21c-.48-.494-3.244-3.342-3.717-3.847l.828-.793c1.614-1.572 3.03-1.676 4.33-.328.596.62.816 1.202.816 1.743zm3.284 8.934c-.488-.504-3.71-3.838-4.205-4.342.426-.41 1.53-1.483 1.53-1.483 2.103-2.028 4.236.12 4.327.22.66.686.987 1.334.987 1.978v.027c-.01.708-.42 1.448-1.197 2.218.002 0-1.026.988-1.443 1.384z" fill="#FFF"/><path d="M176.948 138.757l-7.197 1.94.828 2.58c.994 3.124.095 6.397-2.342 8.533-1.355 1.188-2.92 1.734-4.646 1.615-2.624-.176-5.584-1.873-7.917-4.543-2.75-3.15-4.12-6.18-3.947-8.75.122-1.875 1.033-3.52 2.78-5.052 1.93-1.69 4.38-1.625 7.7-.966l2.463.487 1.59-6.89-2.48-.606c-5.33-1.32-10.89-.023-14.857 3.45-7.77 6.797-8.403 17.9-1.474 25.823 6.44 7.36 17.61 8.163 24.892 1.794 5.245-4.58 7.072-10.442 5.29-16.932l-.685-2.48m19.545-36.1l-7.35 3.462s4.102 8.697 5.513 11.694c-2.097.986-4.128 1.946-6.227 2.937-1.416-2.993-5.522-11.694-5.522-11.694l-9.68 4.57 14.742 31.27 9.688-4.568s-4.567-9.67-6.037-12.807c2.097-.98 4.126-1.94 6.23-2.93l6.034 12.8 9.686-4.57-14.736-31.263-2.342 1.102m32.775 19.37c-.472-2.328-.95-4.696-1.417-7.022 2.99-.6 10.938-2.206 10.938-2.206l-1.398-6.946-10.944 2.212c-.43-2.13-.787-3.917-1.22-6.043l11.61-2.345-1.402-6.943-2.544.51-19.563 3.958 6.84 33.89 22.285-4.506-1.4-6.94s-8.658 1.744-11.785 2.38m31.61-30.097l-10.717-.222-.053 2.587-.67 31.978 22.497.472.16-7.488s-8.636-.187-11.792-.25l.575-27.076m34.73 17.436c-2.78-2.044-3.594-2.862-3.313-3.978.137-.578.767-2.425 2.765-1.93 1.2.308 2.395.94 2.93 3.527l.583 2.87 7.076-2.39-.44-2.23c-.87-4.376-4.573-8.1-9.218-9.26-3.327-.828-6.662-.386-9.4 1.26-2.512 1.504-4.28 3.88-4.98 6.69-1.775 7.088 3.003 10.5 6.16 12.76 3.24 2.317 4.063 3.223 3.568 5.158-.154.603-.51 1.08-1.067 1.418-.648.382-1.46.52-2.123.347-1.7-.42-2.438-1.222-3.155-3.423l-.87-2.637-7.1 2.903.69 2.254c1.33 4.38 4.508 7.14 9.708 8.444 5.845 1.462 12.936-1.225 14.702-8.244 1.843-7.394-3.19-11.1-6.52-13.543m25.57 18.44l9.956 5.034 3.2-6.32-9.954-5.03c.973-1.94 1.798-3.57 2.77-5.503l10.575 5.343 3.19-6.322-20.124-10.17-1.163 2.305-14.435 28.55 20.292 10.248 3.198-6.316s-7.884-3.983-10.733-5.418c1.066-2.12 2.162-4.276 3.23-6.398m40.075 3.228l-32.243 16.684 6.168 5.365s5.322-2.83 7.256-3.846l4.976 4.325c-.694 2.057-2.665 7.84-2.665 7.84l8.5 7.395 13.786-40.65-5.774 2.886" fill="#DBA111"/><path d="M175.74 140.86l-3.8 1.034.278.86c1.208 3.793.118 7.762-2.852 10.36-1.706 1.496-3.695 2.18-5.892 2.04-3.115-.21-6.428-2.08-9.102-5.137-3.057-3.5-4.572-6.96-4.372-10.008.158-2.316 1.292-4.41 3.37-6.23 2.732-2.39 6.17-1.95 9.172-1.358l.825.16.83-3.603-.825-.207c-4.792-1.176-9.764-.026-13.313 3.08-7.025 6.152-7.59 16.197-1.31 23.383 5.812 6.645 15.886 7.373 22.462 1.63 4.768-4.182 6.37-9.28 4.755-15.17l-.228-.836m21.486-36.65l-5.783 2.736 5.51 11.69c-1.24.586-8.108 3.828-9.355 4.41l-5.505-11.69-6.574 3.096 13.27 28.14 6.57-3.09s-5.39-11.422-6.038-12.804c1.246-.587 8.108-3.82 9.353-4.41.648 1.38 6.037 12.807 6.037 12.807l6.56-3.1-13.27-28.146-.777.36m30.688 19.853c-.27-1.352-1.825-9.052-2.095-10.404l10.936-2.21-.718-3.556s-9.494 1.91-10.94 2.204c-.264-1.327-1.635-8.102-1.897-9.426 1.45-.298 11.6-2.342 11.6-2.342l-.72-3.557-18.72 3.778 6.158 30.504 18.9-3.816-.72-3.557-11.787 2.38m31.203-30.434l-7.258-.157-.015.855-.643 30.256 19.053.404.085-4.038-11.792-.25c.038-1.614.57-27.07.57-27.07m36.364 8.166c2.308.578 3.64 2.12 4.205 4.85l.197.955 3.783-1.28-.143-.747c-.747-3.728-3.936-6.914-7.943-7.92-2.88-.72-5.75-.343-8.09 1.062-2.116 1.272-3.608 3.276-4.196 5.64-1.49 5.944 2.386 8.713 5.493 10.934 3.146 2.25 5.042 3.786 4.234 6.976-.32 1.328-1.188 2.087-1.857 2.487-1.038.62-2.31.813-3.427.54-2.295-.577-3.476-1.81-4.372-4.563l-.29-.88-3.93 1.603.23.755c1.14 3.754 3.917 6.134 8.484 7.278 5.018 1.253 11.1-1.018 12.597-6.995 1.563-6.265-2.55-9.297-5.88-11.73-2.824-2.086-4.53-3.48-3.95-5.785.51-2.06 2.215-3.843 4.858-3.18m30.907 11.88c1.324.665 10.564 5.334 10.564 5.334l1.642-3.24-17.043-8.61-.39.767-13.648 27.008 17.202 8.694 1.64-3.24s-9.393-4.75-10.723-5.424c.62-1.233 4.165-8.236 4.78-9.47l9.955 5.03 1.648-3.24s-8.652-4.365-9.963-5.03c.61-1.204 3.726-7.377 4.335-8.58m35.66 18.898l-29.986 15.52 3.35 2.913 7.26-3.848c.744.652 6.014 5.237 6.745 5.873-.318.947-2.673 7.834-2.673 7.834l5.69 4.947 11.586-34.166-1.976.926zm-15.905 12.8c1.42-.734 5.042-2.616 7.252-3.766-.822 2.35-2.178 6.218-2.698 7.724-1.15-1.007-3.402-2.964-4.554-3.958z" fill="#FFF"/><path d="M341.12 251.383c-2.46-6.513-10.927-9.343-18.93-6.32-3.34 1.254-6.073 3.353-7.936 5.832 5.285-15.085 26.814-18.286 26.814-32.32 0-23.523-33.405-16.934-28.544.003 0-7.685 12.23-9.093 12.23 0 0 9.095-21.326 15.06-21.326 30.423 0 16.94 16.94 18.507 15.226 33.998-.29 2.67-3.164 6.18-7.32 6.18-25.948 0-16.686-31.94-25.752-41.66l.474-6.562c5.24 3.213 19.146-4.316 9.992-15.793 0 5.645-11.752 5.332-11.752-5.33 0-14.43 13.49-6.9 14.144-3.715-.646-5.254-.89-8.59-.023-11.617-7.272 2.346-7.952-1.86-7.032-3.484 1.053-1.88 2.462-4.078 5.296-4.078 1.533 0 2.45.213 2.994.586.905.62 1.568-.795 1.438.52.78-1.184.468.295 1.218-.893.765-1.18 1.795-2.513 3.605-4.29l-.078-2.663 2.12.777 2.033-3.29c-2.195-4.55-5.174-2.358-7.367-8-1.834-.477-30.407 2.63-29.58-8.768-2.33 0-7.848 1.276-4.432 5.917-2.655.32-4.57-2.696-8.572 5.462 5.014-.94 2.42 4.665 2.42 6.26 0 10.336-13.76 10.16-13.76 5.32-3.316 3.222-1.435 10.268 3.58 12.004 0 0-1.908 7.535-6.615 12.313-6.988-.278-18.2-1.493-24.65-7.59-2.78-2.627-4.99-4.058-6.87-4.794v-3.417c2.754-1.348 5.774-3.733 8.912-7.72 2.448-2.99 3.773-6.823 3.417-10.895-.048-.486-.12-.966-.205-1.435-.026-.15-.063-.293-.097-.442-.07-.327-.15-.64-.244-.966-.046-.156-.088-.317-.138-.472-.106-.324-.223-.635-.35-.943-.053-.13-.09-.27-.152-.39-.175-.416-.37-.807-.58-1.2-.09-.16-.185-.31-.273-.457-.144-.235-.28-.475-.433-.704-.123-.18-.25-.365-.38-.548-.134-.176-.275-.355-.412-.53-.152-.187-.302-.386-.465-.572-.108-.123-.225-.24-.338-.354-.408-.45-.85-.87-1.31-1.27-.04-.032-.085-.075-.13-.11-.258-.22-.533-.43-.803-.63-.07-.053-.142-.104-.22-.158-.29-.204-.584-.403-.893-.593-.02-.012-.037-.02-.05-.033-2.937-1.798-6.486-2.74-10.234-2.442-9.024.72-15.732 8.26-14.98 16.843.588 6.688 5.52 12.03 11.933 13.733-2.25 1.256-4.15 1.98-4.58 1.98.07.046.164.1.265.164.026.012.057.03.088.047.088.056.19.114.297.17.026.016.06.03.084.046.146.073.295.15.463.23.026.01.057.02.084.033.15.07.3.14.46.203.046.02.096.04.145.055.394.164.836.31 1.32.45.068.018.14.034.2.053.195.05.394.095.6.144.066.01.135.025.208.04.26.047.53.092.802.125.024 0 .047.012.07.012v1.942c-.103.022-.195.033-.29.048-2.935.483-4.843 1.386-5.705 4-.857 2.622.023 3.57 1.398 5.41-1.16 2.076-4.204 2.852-.233 7.438-.29 1.732.077 4.49 2.598 5.327.823.28 1.508.427 2.23.552l-.002 34.384c-2.513 1.33-3.754 2.993-4.44 4.54 0 0-2.02-4.48-1.885 4.397 2.293-1.78 1.39 2.06 1.39 2.06-3.122 4.046.844 3.826.844 3.826 2.69-2.686 2.14 1.217 2.14 1.217 0 4.76 1.933 6.623 1.95 6.63v26.195l-2.284.007.023 7.228 3.993-.007c-2.24.93-3.72 3.144-3.504 5.59.27 3.085 3.12 5.377 6.363 5.127 3.242-.26 5.65-2.965 5.375-6.057-.184-2.133-1.597-3.874-3.52-4.674l3.686-.013-.015-7.227-2.2.01.004-23.24c.453.25.943.422 1.475.538.21.04.422.07.64.083.093.017.192.017.287.02-.59-3.055 1.235-5.08 1.235-5.08.937-1.41 2.293-2.51 3.835-3.287 4.613-2.314 10.907-1.73 12.788 2.04 11.92-3.143 22.163-15.124 22.163-15.124l5.868 9.985c-12.44 4.16-39.535 27.714-20.726 35.872-.007 2.375-.325 20-11.627 18.6-16.276-2.005-20.335 4.73-17.21 12.3-1.47 6.383 3.447 8.6 3.447 8.6-.738-3.69 1.035-6.744 7.762-6.705-.034 6.728 4.31 7.94 4.31 7.94.03-5.76 4.033-7.893 7.59-7.877-.027 4.746 5.488 6.55 5.488 6.55s-1.398-5.47 4.836-6.55c15.78-2.75.96-18.98 24.957-23.452 0 0-11.95-1.8-11.95-8.333 0-5.946 10.817-10.012 14.54-10.012 7.64 14.593 15.937 14.708 18.11 14.812 3.384 3.778 2.25 16.512-2.633 16.262-17.875-.96-17.22 9.913-15.218 12.137-.228 4.22 3.055 6.66 3.055 6.66 0-4.527 4.304-5.8 9.824-5.5-.29 5.527 3.23 6.352 3.23 6.352.1-5.56 4.213-6.505 7.136-6.352-.214 3.898 3.655 5.046 3.655 5.046s-.38-4.948 4.828-4.948c9.88-.006-4.47-21.18 14.814-42.12-16.938 7.84-25.95-11.76-25.95-15.52 8.706 10.188 36.932 12.22 36.932-5.18 0-16.627-18.272-22.82-9.723-29.18 4.973-3.697 14.75 3.772 9.157 11.487 8.023-2.972 12.493-10.74 10.04-17.25zm-108.27.524c-6.385 3.755-10.666 8.505-16.488 10.583-.884.31-1.59.4-2.202.36V230.4c1.543.143 5.546.69 10.226 2.626 4.635 2.53 4.635 7.757-1.215 8.996 3.7 7.08 16.506 3.613 19.297-2.152 1.368-.122 2.576 2.32 3.712 4.627-1.798.933-5.475 2.788-13.328 7.41zm71.477-53.794c-.703.953-1.395 1.9-2.002 2.712 1.62 2.692 4.667 4.375 8.005 4.066 4.613-.435 8.01-4.53 7.585-9.147-.025-.168-.048-.32-.07-.484-.495 2.39-3.313 4.416-6.898 4.747-2.714.255-5.17-.525-6.62-1.893z" fill="#D1D3D4"/><path d="M201.152 178.585c0 .005-.012.017-.012.028h-.004c.072-.172.148-.343.236-.51-.084.158-.16.315-.22.482zm.293 136.105c.007-.005.02-.005.022-.013h-.002c-.005.01-.012.01-.02.013zm-.202-149.96h.008-.006zM198.8 313.893l3.996-.005c-.488.203-.928.47-1.33.79.398-.152.82-.244 1.265-.244 2.006 0 3.627 1.622 3.627 3.627 0 2.003-1.62 3.625-3.625 3.625-1.62 0-2.977-1.063-3.437-2.535v.327c.275 3.09 3.116 5.385 6.365 5.118 3.238-.253 5.647-2.964 5.38-6.05-.19-2.123-1.6-3.867-3.523-4.667l3.683-.015-.017-7.23-2.197.013v-23.24c-2.148-1.115-3.388-3.544-2.91-6.038 1.377 0 2.607.357 3.43.92-1.27 2.794 1.89 5.753 1.89 5.753-.592-3.05 1.23-5.072 1.23-5.072.944-1.413 2.298-2.515 3.834-3.292 4.618-2.316 10.91-1.73 12.79 2.035 11.92-3.136 22.165-15.123 22.165-15.123l5.87 9.98c13.76 0 8.97-10.304 8.07-11.202 3.17 0 7.624 2.33 7.624 7.49 0 12.674-36.84 14.48-36.84 29.862 0 6.458 6.4 8.915 6.4 8.915 0 14.026-9.63 22.357-16.218 22.357-10.534 0-18.6-2.135-18.6 9.35h3.672c-3.49 3.488-.233 8.605-.233 8.605-.735-3.683 1.043-6.732 7.77-6.7h4.195c-2.667 2.665-1.11 6.71.118 7.945.023-5.77 4.022-7.9 7.583-7.88h3.045c-.83.817.504 4.608 2.447 6.544 0 0-1.405-5.463 4.836-6.544 15.775-2.75.95-18.98 24.95-23.458 0 0-11.942-1.796-11.942-8.336 0-5.936 10.813-10.01 14.53-10.01 2.93-.42 5.723-.314 8.113.2.97 9.42 11.787 8.962 14.144 8.962 9.176 9.177-2.332 23.91-2.332 23.91-14.083 0-19.657 1.942-19.657 10.143h2.666c-1.494 1.503-.647 5.63.382 6.66 0-4.526 4.312-5.79 9.833-5.5h2.902c-1.416 1.416-1.166 4.858.334 6.353.082-5.562 4.203-6.506 7.13-6.352h2.42c-.906.916 0 3.816 1.24 5.058 0 0-.38-4.95 4.824-4.957 9.884 0-4.473-21.18 14.82-42.12-16.937 7.845-25.956-11.76-25.956-15.522 8.708 10.19 36.94 12.224 36.94-5.174 0-14.037-13.022-20.635-11.943-26.177.374-4.243 3.933-7.568 8.278-7.568 4.587 0 8.306 3.725 8.306 8.313 0 3.497-2.148 6.484-5.208 7.71.007 0 .007-.007.007-.007-.007.008-.017.017-.017.032 8.015-2.973 12.49-10.744 10.046-17.252-2.466-6.513-10.934-9.35-18.932-6.33-3.35 1.265-6.075 3.356-7.937 5.838 5.277-15.084 26.81-18.28 26.81-32.32 0-23.522-33.405-16.93-28.545.007 0-.253.016-.504.047-.75.85-9.574 17.966-11.53 17.966.95 0 10.66-21.92 16.573-21.92 30.918 0 14.734 16.194 18.42 16.194 33.923 0 1.848-.976 9.8-11.73 9.8-10.38 0-15.37-5.803-18.203-13.374-5.286-10.213-3.344-26.156-9.297-32.53l.472-6.558c5.244 3.218 19.153-4.318 10.017-15.795 0 5.65-11.764 5.33-11.764-5.328 0-14.43 13.482-6.9 14.137-3.717-.647-5.252-.9-8.595-.015-11.612-7.28 2.338-7.95-1.86-7.043-3.492 1.065-1.885 2.473-4.08 5.3-4.08 4.09 0 3.83 1.502 3.615 3.616 1.56-2.362 2.004-4.137 5.638-7.69l-.078-2.67 2.11.785 2.048-3.294c-2.192-4.55-5.172-2.35-7.374-7.995-1.827-.48-25.85-2.696-25.02-14.098-2.125 0-7.912 7.33-3.997 11.254h-4.988c-2.668.316-8.894-1.546-12.89 6.608 9.838-9.836 16.224 13.63-1.895 13.63v-.005c-2.674.007-4.967-1.108-5.122-2.993-1.805 7.92 9.61 10.384 9.61 10.384 0 2.353-5.72 15.09-8.497 17.867 1.872 1.876 2.455 13.186-6.205 13.186 3.124-8.443-6.06-15.598-14.98-20.33h.01c-1.614-.615-3.152-1.36-4.577-2.26-5.476-2.502-9.927-3.91-9.927-3.91v-6.62c2.752-1.35 5.772-3.735 8.91-7.72 2.45-2.988 3.77-6.822 3.413-10.897-.038-.488-.11-.96-.207-1.437-.022-.15-.056-.29-.088-.438-.07-.328-.152-.65-.246-.966-.044-.16-.09-.313-.146-.473-.103-.325-.22-.643-.343-.95-.053-.133-.098-.258-.152-.387-.18-.41-.374-.81-.58-1.194-.083-.164-.184-.312-.27-.468-.145-.235-.285-.468-.436-.697-.124-.18-.25-.37-.383-.55-.13-.175-.265-.354-.406-.522-.152-.2-.305-.393-.47-.578-.105-.124-.22-.243-.333-.36-.412-.445-.85-.864-1.31-1.257-.045-.037-.084-.088-.13-.12-.26-.218-.53-.428-.807-.626-.074-.048-.143-.11-.214-.16-.295-.208-.587-.4-.897-.593-.018-.008-.036-.023-.054-.03-2.936-1.807-6.486-2.74-10.23-2.446-.81.065-1.594.21-2.36.373-5.198 1.994-8.98 8.075-8.98 15.273 0 6.783 3.364 12.567 8.094 14.875.065.018.134.045.2.06-2.253 1.257-4.153 1.982-4.584 1.982.073.045.17.098.27.167.027.01.055.026.085.042.092.05.187.104.3.164.028.016.055.03.086.042.136.072.293.156.457.236.03.01.06.023.084.04.144.067.298.127.465.196.046.02.088.038.138.057.4.158.837.312 1.326.45.066.014.13.033.2.053.19.05.39.095.594.137.068.02.14.03.212.046.26.05.525.096.804.13.02 0 .04.004.06.017 1.722.14 3.755-.286 3.755-.286v3.84c-.307 0-3.012-.87-3.753-1.613-.092.014-.19.03-.29.05-2.928.48-4.837 1.38-5.697 3.998-.857 2.622.024 3.57 1.397 5.41-1.17 2.068-4.203 2.85-.24 7.438-.28 1.73.08 4.494 2.6 5.332.824.28 1.51.42 2.23.548 1.492 0 3.754 1.246 3.754 4.344v29.548c1.36.08 2.835.262 4.175.378V225.23c1.544.148 5.55.696 10.22 2.624.056.026.098.056.144.087-.003-.002-.008-.002-.008-.005.427.052.86.145 1.29.273 3.112.956 5.05 3.657 4.322 6.048-.726 2.387-3.85 3.55-6.956 2.596 3.69 7.086 16.504 3.62 19.295-2.146 1.36-.12 2.572 2.32 3.71 4.624 0 0 3.21 1.23 11.158 1.23 0 0-32.178 20.543-41.485 20.543-3.976 0-12.796 0-12.796 3.008-2.423 0-5.918 4.12-5.918 6.475 2.29-1.788 4.157-1.788 4.157-1.788 1.954 0 3.055.583 3.055.583-.717.707-3.927 4.33-3.927 7.145 2.69-2.693 3.86-2.682 3.86-2.682s2.813-.363 3.814.644c-.677.672-1.86 3.108-1.86 5.99 0 0 1.666-3.22 3.753-3.22v30.888c0 .944-4.26 1.85-6.016 1.85l-.002 3.9zm1.313-93.448c-.794.03-1.17-1-1.177-1.374-.02-.377.278-1.427 1.07-1.46 1.885-.063 5.655.84 5.67 1.213.015.37-3.68 1.554-5.563 1.622zm-1.216-5.098c-1.093-.077-1.454-1.554-1.417-2.074.034-.51.61-1.922 1.702-1.842 2.61.197 7.666 2.016 7.624 2.53-.032.52-5.303 1.58-7.91 1.387zm-.45-6.532c-1.156-.304-1.25-1.96-1.11-2.51.143-.544 1.04-1.94 2.2-1.64 2.76.723 7.83 3.69 7.685 4.233-.14.545-6.013.64-8.774-.083zm8.547-18.404c.48-1.142.377-2.704.08-4.173-.05 0-.1.004-.15.004-3.32 0-6.008-2.69-6.008-6.005-.05-.567.03-1.117.222-1.622h.003c0-.01.01-.023.014-.027.718-2.513 3.024-4.363 5.774-4.363 3.31 0 6.006 2.69 6.006 6.012 0 3.83-2.697 7.357-5.938 10.176z" fill="#034694"/><path d="M297.16 195.657c1.608 2.692 4.662 4.375 8 4.064 4.62-.43 8.007-4.527 7.585-9.15-.017-.163-.048-.32-.07-.484-.49 2.39-3.32 4.42-6.898 4.75-2.722.255-5.175-.525-6.624-1.893-.698.956-1.4 1.903-1.993 2.715" fill="#ED1C24"/><path d="M285.942 180.077l2.9.153-1.45 1.99c-.002 0-1.94.614-1.45-2.143zm-6.922 0h4.18s-.15 3.374 2.902 3.676l-.648 1.074s-8.203-2.144-6.434-4.75z" fill="#FFF"/><path d="M207.223 208.897c.144-.544-4.927-3.51-7.685-4.233-1.162-.3-2.057 1.096-2.202 1.642-.14.547-.045 2.205 1.113 2.51 2.76.722 8.63.627 8.772.08zm-.416 5.062c.043-.516-5.015-2.335-7.624-2.53-1.092-.08-1.668 1.332-1.702 1.84-.035.52.325 1.998 1.42 2.075 2.604.193 7.875-.865 7.91-1.387zm-5.742-15.264v1.94c.74.74 3.446 1.612 3.755 1.612v-3.84s-2.034.427-3.755.287zm-1.06 18.914c-.79.032-1.088 1.082-1.07 1.46.008.373.386 1.405 1.178 1.374 1.884-.068 5.58-1.253 5.564-1.623-.016-.37-3.786-1.274-5.67-1.21zm-3.88 51.182c-3.118 4.042-.872 7.728-.872 7.728 0-2.814 3.21-6.437 3.927-7.144 0 0-1.1-.584-3.054-.584zm9.95 8.575c-.48 2.493.762 4.92 2.91 6.037.457.237.953.424 1.473.527.224.053.433.08.65.105.094 0 .19.003.285.006 0 0-3.158-2.956-1.888-5.75-.824-.566-2.054-.923-3.43-.923zm-5.707-82.49c-4.73-2.308-8.092-8.093-8.092-14.875 0-7.197 3.78-13.28 8.976-15.27-7.8 1.728-13.303 8.66-12.614 16.474.583 6.618 5.42 11.91 11.73 13.67zm50.21-16.6c5.02-.945 6.723 3.517 6.723 5.115 0 6.05-4.71 8.487-8.616 8.51v.004c18.12 0 11.734-23.465 1.896-13.63zm-12.11 52.068c8.66 0 8.078-11.31 6.205-13.184 2.78-2.774 8.496-15.512 8.496-17.865 0 0-11.43-2.465-9.606-10.396-.003-.006-.003-.01-.003-.016l-.152-.028c-3.116 3.286-1.222 10.14 3.72 11.85 0 0-1.908 7.538-6.616 12.317-4.687-.182-11.256-.8-17.026-3.007 8.92 4.734 18.104 11.888 14.98 20.33zm-33.828-54.303c2.24-.18 4.21 1.408 4.403 3.548.185 2.13-1.482 4.01-3.725 4.188-2.248.18-4.223-1.407-4.402-3.544 0 3.313 2.69 6.005 6.01 6.005.048 0 .098-.005.148-.005.297 1.47.4 3.03-.08 4.173 3.24-2.82 5.937-6.346 5.937-10.177 0-3.32-2.694-6.01-6.004-6.01-2.765 0-5.08 1.86-5.787 4.39.524-1.39 1.853-2.436 3.502-2.57zm63.816-4.372c-3.916-3.923 1.87-11.254 3.997-11.254-2.325 0-12.408 6.6-8.985 11.254h4.988zm-50.452 65.18c3.106.953 6.23-.21 6.957-2.596.73-2.39-1.21-5.092-4.32-6.05-.43-.127-.864-.22-1.29-.272 4.492 2.563 4.44 7.702-1.345 8.918zm-9.01-33.005s4.45 1.408 9.927 3.91c-1.1-.68-2.13-1.45-3.056-2.323-2.78-2.627-4.992-4.06-6.87-4.786v3.2zm1.688 57.255c9.306 0 41.485-20.544 41.485-20.544-7.948 0-11.158-1.23-11.158-1.23-1.796.935-5.478 2.783-13.327 7.406-6.387 3.76-10.668 8.512-16.49 10.587-.888.32-1.593.394-2.2.36-1.34-.115-2.815-.297-4.174-.378v-29.547c0-3.1-2.264-4.345-3.756-4.345v34.387c-2.517 1.334-3.756 2.992-4.437 4.542 0 0-4.798-.64-4.66 8.24 0-2.357 3.494-6.476 5.917-6.476 0-3.005 8.82-3.005 12.797-3.005zm80.265 47.568c-2.356 0-13.173.458-14.144-8.964-2.39-.513-5.182-.616-8.112-.2 7.648 14.594 15.95 14.71 18.12 14.822 3.38 3.77 2.248 16.503-2.635 16.247-17.875-.952-17.22 9.923-15.217 12.148 0-8.2 5.574-10.143 19.656-10.143 0 0 11.51-14.73 2.334-23.908zm3.676 35.212h-2.42c-.204 3.907 3.663 5.057 3.663 5.057-1.243-1.242-2.148-4.143-1.243-5.057zm-22.62 5.5c-1.028-1.03-1.875-5.157-.382-6.66h-2.663c-.223 4.228 3.048 6.66 3.048 6.66zm53.36-135.77c0-12.484-17.12-10.523-17.966-.937.755-7.026 12.194-8.063 12.194.738 0 9.097-21.33 15.055-21.33 30.426 0 16.937 16.935 18.505 15.22 33.99-.29 2.68-3.16 6.183-7.32 6.183-8.914 0-13.686-3.785-16.457-9.13 2.834 7.57 7.82 13.37 18.202 13.37 10.755 0 11.73-7.95 11.73-9.796 0-15.504-16.19-19.19-16.19-33.924 0-14.348 21.92-20.258 21.92-30.92zm-126.248 60.23c0 4.78 1.95 6.634 1.95 6.634 0-2.882 1.184-5.32 1.86-5.99-1-1.008-3.81-.645-3.81-.645zm123.71-26.423c-4.345 0-7.903 3.326-8.278 7.568.198-1.018.877-2.008 2.202-2.998 4.977-3.7 14.735 3.753 9.17 11.457 3.06-1.23 5.21-4.214 5.21-7.713 0-4.586-3.718-8.312-8.305-8.312zM284.74 343.88h-2.904c-.296 5.522 3.237 6.352 3.237 6.352-1.5-1.494-1.75-4.937-.334-6.352zm-82.008-29.447c-.448 0-.867.092-1.266.245-1.38 1.05-2.222 2.682-2.17 4.47.46 1.473 1.814 2.537 3.436 2.537 2.004 0 3.626-1.623 3.626-3.624 0-2.003-1.622-3.626-3.626-3.626zm20.393 26.812h-4.196c-.038 6.725 4.312 7.945 4.312 7.945-1.227-1.235-2.783-5.28-.118-7.945zm13.012-42.53c0-15.38 36.84-17.187 36.84-29.86 0-5.16-4.455-7.49-7.622-7.49.897.897 5.688 11.2-8.072 11.2-12.442 4.166-39.538 27.718-20.73 35.883-.01 2.368-.327 19.994-11.623 18.61-16.273-2.015-20.332 4.71-17.21 12.282 0-11.486 8.067-9.353 18.6-9.353 6.588 0 16.22-8.33 16.22-22.356 0 0-6.403-2.454-6.403-8.913zm-31.317 9.428v-30.887c-2.088 0-3.754 3.22-3.754 3.22v26.35-.167l-2.282.004.02 3.327c1.754 0 6.016-.905 6.016-1.85zm6.34 39.8s-3.255-5.115.234-8.603h-3.672c-1.475 6.39 3.44 8.604 3.44 8.604zm22.712-6.632h-3.046c-.023 4.75 5.492 6.546 5.492 6.546-1.944-1.934-3.275-5.727-2.446-6.544z" fill="#6A7AB5"/><path d="M131.433 290.03l-.203-.622-.087-.65c-.298-2.22-.835-6.358-4.03-7.098-.853-.198-1.736-.096-2.677.29.256-.982.226-1.872-.083-2.688-1.178-3.062-5.347-3.023-7.587-2.994h-.658l-.65-.12c-2.2-.405-6.304-1.172-7.988 1.64-.452.75-.632 1.62-.555 2.63-.852-.55-1.712-.796-2.58-.754-3.277.175-4.53 4.153-5.2 6.294l-.205.622-.304.577c-1.075 1.973-3.067 5.63-.915 8.106.577.662 1.35 1.105 2.337 1.34-.78.646-1.285 1.385-1.505 2.23-.855 3.164 2.544 5.583 4.365 6.88l.534.393.46.465c1.54 1.634 4.41 4.655 7.427 3.376.8-.344 1.46-.94 1.99-1.805.38.945.922 1.645 1.654 2.128 2.75 1.78 6.098-.7 7.9-2.025l.532-.39.592-.29c2.023-.97 5.79-2.758 5.506-6.025-.075-.876-.442-1.68-1.097-2.452 1.01-.06 1.844-.365 2.522-.914 2.553-2.062 1.224-6.013.51-8.14" fill="#FFF"/><path d="M117.07 292.68c18.342 10.84 12.693-1.08 12.29-2.842-.406-1.757-.56-14.943-12.29 2.843m-1.152 2.714c-4.64 20.785 4.95 11.737 6.497 10.815 1.546-.93 14.04-5.157-6.497-10.817m-2.945-.25c-21.21 2-9.633 8.33-8.273 9.513 1.363 1.18 9.235 11.76 8.273-9.513m-.665-2.887c-8.465-19.55-10.907-6.586-11.612-4.92-.705 1.65-8.336 12.414 11.612 4.92" fill="#ED1C24"/><path d="M415.26 287.16l-.304-.58-.207-.62c-.673-2.142-1.926-6.12-5.196-6.295-.876-.04-1.73.203-2.583.748.078-1.006-.112-1.875-.552-2.625-1.693-2.813-5.79-2.045-7.992-1.64l-.655.12h-.655c-2.23-.03-6.404-.068-7.577 2.995-.32.815-.343 1.706-.093 2.688-.927-.385-1.81-.485-2.67-.29-3.192.74-3.74 4.88-4.023 7.1l-.098.65-.198.623c-.717 2.124-2.042 6.076.51 8.14.678.55 1.507.856 2.522.916-.656.77-1.02 1.575-1.098 2.45-.282 3.268 3.48 5.056 5.506 6.025l.586.29.532.39c1.807 1.326 5.158 3.805 7.9 2.025.74-.484 1.28-1.183 1.652-2.127.534.865 1.19 1.46 1.996 1.805 3.016 1.278 5.886-1.742 7.427-3.375l.463-.464.527-.397c1.828-1.295 5.225-3.715 4.372-6.877-.23-.848-.723-1.586-1.51-2.233.985-.234 1.76-.677 2.332-1.34 2.155-2.476.166-6.132-.915-8.105" fill="#FFF"/><path d="M399.045 290.74c-15.972-14.09-2.894-12.41-1.096-12.567 1.79-.15 14.383-4.084 1.094 12.567m-2.224 1.94c-18.34 10.84-12.702-1.08-12.29-2.842.402-1.757.554-14.943 12.29 2.843m1.15 2.714c4.644 20.785-4.948 11.737-6.498 10.815-1.545-.93-14.033-5.157 6.498-10.817m2.94-.25c21.212 2 9.643 8.33 8.278 9.513-1.355 1.18-9.237 11.76-8.277-9.513m.662-2.887c8.47-19.55 10.907-6.586 11.615-4.92.7 1.65 8.332 12.414-11.615 4.92" fill="#ED1C24"/><path d="M405.692 292.866c-.02-.17-.075-.322-.098-.487 1.703-1.253 3.543-2.593 3.543-2.593l-.177-.397-4.205.735c-1.033-1.693-2.794-2.842-4.81-3.038-.642-1.925-1.28-3.887-1.28-3.887l-.433.037s-.29 2.044-.582 4.046c-1.24.334-2.352 1.036-3.197 2.04-.45.54-.777 1.152-1.036 1.79-2.074 0-4.265.008-4.265.008l-.093.43s2.04.995 3.93 1.92c.005.17-.017.34 0 .515.143 1.662.92 3.154 2.177 4.243-.663 2.072-1.41 4.388-1.41 4.388l.366.22s1.72-1.78 3.253-3.355c.8.264 1.652.368 2.513.29.866-.065 1.69-.325 2.435-.712 1.776 1.28 3.78 2.728 3.78 2.728l.328-.283s-1.136-2.146-2.148-4.068c1.05-1.296 1.544-2.91 1.406-4.57" fill="#FFF"/><path d="M399.013 289.675c-1.006.077-1.91.552-2.558 1.33-.647.77-.96 1.743-.868 2.743.176 2.07 2.01 3.61 4.074 3.427 1.015-.092 1.913-.565 2.57-1.332.64-.777.95-1.744.867-2.75-.18-2.072-2.017-3.606-4.083-3.418m-284.17 1.065c15.977-14.09 2.89-12.41 1.1-12.567-1.8-.15-14.394-4.084-1.1 12.567" fill="#ED1C24"/><path d="M120.892 293.468c1.9-.923 3.934-1.92 3.934-1.92l-.095-.428s-2.185-.006-4.264-.006c-.252-.64-.58-1.25-1.032-1.792-.845-1.003-1.957-1.704-3.2-2.04l-.574-4.045-.44-.037s-.636 1.96-1.267 3.887c-2.03.196-3.793 1.345-4.824 3.038-2.053-.36-4.21-.734-4.21-.734l-.168.4s1.835 1.34 3.538 2.59c-.027.165-.077.32-.095.486-.14 1.668.365 3.273 1.413 4.57-1.02 1.92-2.156 4.067-2.156 4.067l.337.283s1.997-1.45 3.772-2.728c.746.39 1.568.64 2.433.713.868.08 1.717-.026 2.517-.29 1.528 1.575 3.246 3.357 3.246 3.357l.376-.22-1.414-4.383c1.253-1.096 2.03-2.59 2.178-4.25.018-.173-.008-.343-.008-.515" fill="#FFF"/><path d="M117.435 291.005c-.65-.777-1.55-1.253-2.56-1.33-2.064-.187-3.9 1.347-4.08 3.42-.085 1.006.225 1.973.866 2.75.65.767 1.56 1.24 2.564 1.332 2.064.182 3.9-1.358 4.078-3.428.086-1.003-.223-1.976-.865-2.746" fill="#ED1C24"/><path d="M117.178 202.105c-8.93-1.577-17.48 4.417-19.057 13.346-1.573 8.937 4.414 17.486 13.344 19.063 8.938 1.576 17.49-4.415 19.064-13.348 1.58-8.93-4.41-17.48-13.35-19.06" fill="#FFF"/><path d="M120.903 214.55c-.144-.09-.396-.252-.7-.454-1.35-.894-3.995-2.643-4.068-2.696-.366-.252-.723-.49-1.074-.728-1.175-.788-2.226-1.474-3.215-2.045-.382-.216-.75-.418-1.12-.6-1.573-.793-3.08-1.272-4.86-1.43-1.372.99-2.562 2.218-3.526 3.635 4.09 1.478 8.084 3.843 16.4 9.01.477-1.1 2.07-4.486 2.164-4.692m-3.836 8.82c.167-.416.898-2.266 1.197-2.98-8.523-5.293-12.48-7.635-16.58-9.085-.637 1.142-1.114 2.388-1.425 3.714 2.34 3.21 8.613 6.37 16.808 8.35m-.923-13.455c3.192-1.888 6.818-1.374 9.616-.42-1.04-1.347-2.305-2.525-3.775-3.442-2.644-.526-6.295-.608-9.202 1.702 1.057.622 2.15 1.346 3.363 2.16m-12.736 15.248c.428.293.866.57 1.33.833.94.52 1.958.968 3.01 1.352.445.17.898.325 1.355.473 1.6.528 5.267 1.48 5.54 1.544l1.953-4.832c-6.354-1.575-13.313-4.333-16.62-7.92-.197 1.656-.12 3.294.23 4.848.697 1.52 1.817 2.73 3.203 3.705m11.45 5.527l-1.326-.342c-1.23-.312-2.562-.662-3.918-1.078.66 1.408 1.7 2.506 2.81 3.355 1.485.197 2.95.16 4.36-.084-1.017-.79-1.926-1.852-1.926-1.852" fill="#ED1C24"/><path d="M128.15 214.113c-.302-.987-.698-1.943-1.197-2.834-2.505-1.118-6.32-2.21-9.652-.58l4.598 3.035c.958-.085 1.84-.112 2.646-.092.44.007.85.03 1.24.07.9.078 1.67.223 2.367.4m-2.353.84c-.134 7.553-3.695 13.38-6.764 17.023 4.803-1.67 8.59-5.808 9.536-11.155.32-1.825.264-3.622-.074-5.332-.747-.233-1.64-.427-2.7-.534m-14.16-7.838c2.15-1.896 4.69-2.537 7.033-2.59-.597-.19-1.203-.354-1.835-.46-3.34-.59-6.608.03-9.384 1.534 1.48.29 2.815.808 4.184 1.516" fill="#ED1C24"/><path d="M122.072 214.96c-1.093 2.277-1.736 3.672-2.27 4.94-.163.384-.323.757-.484 1.145-.255.636-1.04 2.613-1.04 2.613l-.468 1.16-2.03 5.028c.56.743 1.238 1.348 1.905 1.82 3.015-3.438 6.768-9.22 6.882-16.785-.76-.025-1.593 0-2.495.08m-13.976 13.812c-1.012-.348-2.023-.745-2.977-1.21.354 1.1.87 2.078 1.386 2.918 1.082.694 2.27 1.242 3.54 1.633-.823-.926-1.533-2.022-1.95-3.34m-4.466-2.025c-.687-.41-1.325-.87-1.916-1.372.67 1.197 1.51 2.293 2.49 3.255-.233-.6-.437-1.22-.575-1.88" fill="#ED1C24"/><path d="M381.578 221.165c1.578 8.933 10.125 14.924 19.057 13.348 8.935-1.576 14.92-10.126 13.352-19.06-1.577-8.93-10.13-14.925-19.064-13.348-8.934 1.58-14.92 10.128-13.345 19.06" fill="#FFF"/><path d="M391.2 214.55c.14-.09.395-.252.706-.454 1.35-.894 3.992-2.643 4.06-2.696l1.082-.728c1.163-.788 2.224-1.474 3.214-2.045.38-.216.754-.418 1.118-.6 1.57-.793 3.084-1.272 4.86-1.43 1.37.99 2.567 2.218 3.518 3.635-4.088 1.478-8.07 3.843-16.398 9.01-.478-1.1-2.062-4.486-2.16-4.692m3.838 8.82c-.17-.416-.906-2.266-1.19-2.98 8.508-5.293 12.478-7.635 16.575-9.085.632 1.142 1.112 2.388 1.423 3.714-2.344 3.21-8.615 6.37-16.808 8.35m.922-13.455c-3.194-1.888-6.817-1.374-9.62-.42 1.045-1.347 2.316-2.525 3.785-3.442 2.64-.526 6.29-.608 9.193 1.702-1.05.622-2.148 1.346-3.357 2.16" fill="#ED1C24"/><path d="M408.686 225.163c-.417.293-.853.57-1.326.833-.935.52-1.95.968-3 1.352-.45.17-.906.325-1.362.473-1.59.528-5.263 1.48-5.538 1.544-.062-.14-1.44-3.54-1.95-4.832 6.35-1.575 13.304-4.333 16.62-7.92.197 1.656.112 3.294-.232 4.848-.7 1.52-1.817 2.73-3.212 3.705m-11.438 5.527l1.317-.342c1.233-.312 2.574-.662 3.93-1.078-.67 1.408-1.705 2.506-2.812 3.355-1.483.197-2.954.16-4.355-.084 1.006-.79 1.92-1.852 1.92-1.852m-13.293-16.577c.305-.987.694-1.943 1.204-2.834 2.496-1.118 6.303-2.21 9.64-.58l-4.594 3.035c-.96-.085-1.84-.112-2.65-.092-.434.007-.845.03-1.242.07-.898.078-1.658.223-2.36.4m2.356.84c.13 7.553 3.7 13.38 6.77 17.023-4.815-1.67-8.607-5.808-9.542-11.155-.32-1.825-.275-3.622.075-5.332.74-.233 1.638-.427 2.696-.534m14.165-7.838c-2.152-1.896-4.698-2.537-7.037-2.59.593-.19 1.196-.354 1.833-.46 3.34-.59 6.607.03 9.38 1.534-1.47.29-2.81.808-4.174 1.516m-10.44 7.844c1.095 2.277 1.726 3.672 2.277 4.94l.47 1.145c.26.636 1.045 2.613 1.045 2.613l.465 1.16 2.034 5.028c-.563.743-1.236 1.348-1.905 1.82-3.014-3.438-6.773-9.22-6.88-16.785.756-.025 1.595 0 2.493.08m13.975 13.812c1.014-.348 2.017-.745 2.98-1.21-.367 1.1-.87 2.078-1.395 2.918-1.08.694-2.27 1.242-3.533 1.633.82-.926 1.53-2.022 1.95-3.34m4.468-2.025c.678-.41 1.318-.87 1.912-1.372-.67 1.197-1.507 2.293-2.488 3.255.227-.6.433-1.22.577-1.88" fill="#ED1C24"/></g></svg>