<svg width="512" height="512" viewBox="0 0 512 512" xmlns="http://www.w3.org/2000/svg" xmlns:xlink="http://www.w3.org/1999/xlink"><title>crystal-palace</title><defs><path id="a" d="M5.425 3.13H6.71v7.876H5.425V3.13z"/></defs><g fill="none" fill-rule="evenodd"><path d="M200.988 367.01s-42.576-21.376-63.32-54.17c.11 28.18-1.278 63.328-1.278 63.328l65.166 12.817-.568-21.974zm112.512.58s42.577-19.693 63.32-52.48c-.11 28.173 1.285 61.053 1.285 61.053l-65.172 12.823.568-21.395z" fill="#FFF"/><path d="M313.96 408.715H200.698V356.97H313.96v51.745z" fill="#FFF"/><path d="M291.028 360.798c0 18.337-15.047 33.218-33.606 33.218-18.554 0-33.6-14.88-33.6-33.218 0-18.347 15.046-33.222 33.6-33.222 18.56 0 33.606 14.875 33.606 33.222m-169.013 17.34v-48.54l-2.895-1.087v-6.56l2.895-1.28v-4.57l-2.895-1.08V307.2l9.51-9.03v-2.137s.32-1.875 2.758-1.875h2.806s2.195.32 2.195 1.88v1.993l9.75 9.2-.1 7.826-2.9 1.026v4.563l2.96 1.27v51.575l-24.1 4.667zm271.595 0v-48.54l2.895-1.087v-6.56l-2.895-1.28v-4.57l2.895-1.08V307.2l-9.51-9.03v-2.137s-.32-1.875-2.758-1.875h-2.812s-2.19.32-2.19 1.88v1.993l-9.752 9.2.088 7.826 2.9 1.026v4.563l-2.95 1.27v51.575l24.1 4.67zm-139.135 68.15c-23.55 0-38.6-8.08-54.458-16.598-8.403-4.504-17.087-9.168-27.293-12.595-28.87-9.704-47.88 2.185-48.675 2.7l-3.85-5.94c.9-.59 22.51-14.313 54.77-3.472 10.77 3.62 19.71 8.428 28.38 13.076 16.37 8.78 31.82 17.09 57.25 15.56 23.78-1.43 40.13-9.52 55.94-17.35 6.74-3.34 13.1-6.49 19.85-9.03.43-.17.95-.37 1.55-.6 8.45-3.35 34.21-13.52 56.45 3.43l-4.29 5.63c-19.07-14.54-41.23-5.78-49.58-2.49-.63.25-1.18.47-1.655.64-6.413 2.418-12.63 5.49-19.21 8.75-15.675 7.755-33.44 16.553-58.644 18.07-2.25.134-4.434.2-6.552.2" fill="#FFF"/><path d="M380.605 433.5l-5-3.224c-1.12-.724-4.07-1.182-7.064-.7-.53.08-1.08.208-1.63.33-2.51.557-5.63 1.236-8.06-.712-.99-.8-2.19-2.346-2.19-5.183 0-2.15.93-4.07 2.62-5.39 5.53-4.3 19.08-1.29 23.11-.27 2.68.74 5.63.71 6.21.18 1.37-15.28 7.58-26.33 11.07-31.46-25.06-15.166-63.42-6.925-77.8 2.265-21.43 13.706-39.3 22.207-62.12 22.306-19.447.018-35.95-8.002-53.367-16.536-9.752-4.78-19.83-9.72-30.914-13.448-23.3-7.83-49.806.984-59.874 5.008 3.745 5.156 9.45 15.27 10.07 29.757.545.673 3.484.845 6.125.26 4.14-.845 17.826-3.19 23.135 1.368 1.627 1.4 2.47 3.353 2.366 5.51-.135 2.83-1.4 4.323-2.434 5.074-2.517 1.83-5.604 1-8.09.32-.55-.142-1.09-.29-1.61-.4-2.97-.63-5.94-.314-7.097.36l-5.14 2.97-.196-8.19c-2.03.39-7.78 1.185-11.33-1.53-1.715-1.315-2.674-3.197-2.77-5.45-.792-18.52-11.09-28.8-11.196-28.9l-3.58-3.5 4.5-2.197c1.51-.735 37.348-17.91 69.366-7.155 11.523 3.875 21.822 8.926 31.77 13.805 16.59 8.13 32.26 15.81 50.01 15.81h.235c21.115-.09 37.99-8.17 58.354-21.197 16.84-10.752 60.883-19.98 88.7-.077l3.148 2.258-2.53 2.926c-.1.11-10.09 11.95-11.78 30.55-.195 2.25-1.243 4.086-3.02 5.31-3.64 2.52-9.28 1.49-11.39.984l-.58 8.186zM154.5 418.04s-3.517-3.533-4.983-6.127c-2.895-5.14-25.54 5-25.54 5l6.176 1.33m228.29 1.147s3.6-3.45 5.12-6.006c3.034-5.067 25.42 5.602 25.42 5.602l-6.204 1.187" fill="#FFF"/><path d="M121.344 418.242s-.49-13.943-3.61-20.125c-3.127-6.188-4.38-12.414-4.38-12.414s18.985-9.565 31.357-9.797c12.37-.232 43.16 5.122 52.75 10.415 9.6 5.3 35.45 19.5 48.86 22.4 13.42 2.9 35.57-.55 49.43-6.26 13.86-5.7 23.13-15.53 28.74-18.03 5.618-2.49 23.73-9.05 35.91-10.14 12.18-1.1 26.847 3.89 35.11 5.46 8.267 1.563 7.05 4.693 7.05 4.693L392.6 416.1s-15.898-5.41-26.556-5.72c-10.658-.313-28.787 7.712-34.405 9.793-5.61 2.087-30.31 12.404-38.26 15.533-7.95 3.125-34.81 10.31-50.12 6.878-15.3-3.44-45.03-18.545-52.81-22.41-7.78-3.857-35.906-13.136-39.63-11.364-3.73 1.766-29.49 9.44-29.49 9.44m155.18-117.41c.06.038.125.06.18.088l-.937.155.753-.244zm109.94-184.8c-.562-1.72-3.49-3.05-15.35-3.05-4.62 0-8.926.187-8.97.187-.19.005-.365.044-.54.094-7.34.54-14.35 2.23-20.677 4.99 8.394-10.14 21.473-16.47 29.38-19.6.41-.16 1.576-.7 1.824-1.08.38-.61 1.03-1.16.5-2.15-.92-1.68-4.515-2.12-6.92-2.12-2.58 0-6.246.36-10.834 1.05-2.185.25-4.34.608-6.4 1.06-.097.016-.19.04-.28.07-9.106 2.05-17.724 6.133-24.92 11.813-1.01.8-1.98 1.63-2.933 2.474l5.796-9.874c3.14-5.13 6.53-9.87 10.112-14.088.243-.28.403-.625.474-.98.144-.72.96-1.847.496-2.415-.294-.35-.96-.95-2.14-.95-1.043 0-4.51.355-17.79 10.456-12.5 8.746-23.21 20.07-31.03 32.817-3.136 5.63-8.622 16.077-10.45 23.43-.102-.743-.21-1.482-.284-2.2-.33-2.95-.51-6.015-.56-9.647-.06-4.34.133-8.232.31-10.73.076-1.05-.122-3.52-1.137-3.76-1.02-.257-2.57 1.78-2.983 2.75-6.495 14.882-8.204 27.263-8.557 34.65l-2.375 21.72c-.27 1.5-1.4 8.752-1.4 8.752-1.81-3.14-3.077-5.47-4.45-8.873-.05-.116-.11-.22-.17-.332l-2.05-3.273c-.05-.084-.11-.172-.178-.244-3.1-3.685-6.23-5.59-9.857-7.78-5.09-3.09-11.42-6.926-20.827-17.82-5.19-6.017-11.203-18.166-13.144-26.528-3.85-16.565-3.49-36.37.93-54.16.403-1.186.684-3.355.155-4.095-.402-.567-1.16-.95-1.86-.95-1.383 0-2.635 1.22-11.313 15.02-.02.04-.045.07-.067.11-5.695 9.085-9.72 19.473-11.62 30.07-.426 2.308-.74 4.61-.96 6.895-2.01-5.01-3.678-10.2-4.98-15.493-2.778-11.345-3.7-22.86-2.65-33.285.065-.653.21-2.39-.255-2.855-.45-.426-1.07-.674-1.71-.674-1.918 0-4.857 2.468-10.97 18.82-5.818 15.568-7.69 29.836-5.87 45.44-6.608-8.605-9.585-20.715-12.265-31.62-.664-2.702-1.32-5.36-2.004-7.9-.34-1.27-1.26-4.36-2.42-3.77-.082.032-.16.082-.236.137-.005.007-.016.01-.027.018-.045.03-.084.06-.12.1-.057.046-.113.08-.157.13-.233.224-1.07 2.92-1.214 3.21-.37.695-.61 1.71-.754 3.19-.005.07-.01.137-.01.21 0 .507-.034 1.015-.06 1.523-.034.564-.073 1.12-.073 1.684-.79 8.18-1.41 29.348 9.44 51.46l.25.58c.14.33.29.665.44 1.002 1.18 2.49 2.51 4.78 3.79 6.98.422.73.835 1.448 1.243 2.166 1.5 2.63 2.81 4.24 4.16 5.77-6.125-1.254-15.18-3.06-19.545-3.716-1.01-.135-1.97.42-2.33 1.36-.36.95-.02 2.02.834 2.575 3.646 2.393 10.296 8.393 17.276 14.895l-.1.03 12.385 11.53 1.13 1.06c4.044 3.81 8.24 7.74 12.25 11.39l-8.49-.848c-.94-.11-1.85.44-2.208 1.323-.362.88-.103 1.9.64 2.5l19.76 16.01-.014.005 8.644 6.89c.06.06.11.135.18.19l14.838 11.95c.367.292.825.457 1.29.474l3.808.1c-8.055 3.35-15.422 3.46-24.045.566-6.64-2.23-13.004-5.7-18.39-10.047-.767-.62-2.725-1.768-3.51-1.18-.79.59-.205 2.762.164 3.68 1.682 4.12 4.78 7.753 7.912 11.02-10.22-1.353-19.55-4.174-30.174-9.04-.877-.405-2.476-1.443-3.104-.72-.62.73-.12 3.036.4 3.847 4.81 7.47 8.664 12.59 12.49 16.58 4.025 4.19 9.335 8.48 11.948 10.046.496.31 1.836 1.106 8.2 1.106 2.402 0 5.076-.12 7.32-.335.28-.03.556-.054.82-.08-6.345 2.25-12.2 3.08-17.246 2.45-1.09-.16-3.577-.05-3.836 1.016-.256 1.076 1.8 2.787 2.84 3.157 7.57 2.704 14.972 4.553 22.063 5.486 2.33.655 8.977 2.393 16.134 3.023.485.04.937.04 1.373.03.59.06 1.18.106 1.75.166 2.747.25 5.344.5 8.11.5 2.28 0 4.528-.17 6.866-.534.02.28.093.557.225.817l1.243 2.45c-.45.08-.89.3-1.22.66-.63.674-.76 1.68-.327 2.49l2.687 5.022c.06.114.13.23.216.33.02.016.08.1.197.237-.117.05-.227.12-.337.195-.728.51-1.06 1.424-.85 2.285 1.39 5.594 4.092 7.56 6.07 9 1.352.976 2.17 1.566 2.593 3.1.285 1.017.75 2.154 1.234 3.373 1.023 2.56 2.57 6.43 1.602 7.964-1.297 2.07-2.185 2.667-3.668 3.65-.92.62-2.065 1.39-3.465 2.644-3.36 3.024-3.598 7.036-.698 11.94l.176.285c.44.78 1.33 1.193 2.22 1.055.886-.15 1.587-.83 1.763-1.717.674-3.457 6.347-6.195 7.456-6.266 1.95-.132 3.8-.26 5.064-1.53 2.065-2.063 13.275-2.19 13.275-2.19s1.31.046 3.38.47c.395.2.803.376 1.167.608.358.23.738.35 1.16.324.247 0 4.007 1.518 4.316 1.877.56.66 6.916 4.18 7.655 4.578.43.225 4.13 5.165 4.664 5.165.86 1.27 1.184.916 1.206-.38 2.41-1.425 4.575-4.6 5.41-7.98.83-3.375.33-6.58-1.436-9.28-.1-.155-.21-.293-.35-.415-.374-.344-1.35-1.12-2.496-2.027-1.565-1.23-4.18-3.29-4.71-3.893-1.586-1.816-2.36-3.792-3.124-6.04.604-.037 1.172-.33 1.56-.816.4-.51.55-1.19.41-1.82l-.29-1.246c-.44-1.9-.944-4.045-1.346-6.402l-.026-.12c.093.01.18.02.27.02.005 0 .016-.004.033 0 1.19 0 2.155-.965 2.155-2.16 0-.4-.11-.78-.298-1.1l-2.382-6.45c.22.25.38.43.453.51.59.617 2.01 1.67 2.824 1.38.8-.277.825-1.845.89-2.695.337-4.302 3.624-8.663 7.17-11.22.197.587.39.98.44 1.07.37.726.403 2.3 1.213 2.3.01 0 .024 0 .04-.007.816-.01 1.434-1.147 2.61-2.36 1.482-1.547 2.73-2.88 4.29-3.34l7.44 2.997c.44 1.33 1.36 3.493 2.98 4.806 1.392 1.127 2.75 1.983 5.21 3.545.256.17.532.34.824.527-.227.11-.47.22-.75.32-.85.306-3.29 1.11-3.298 2.017 0 .9 2.423 1.715 3.272 2.03 1.65.62 3.47.95 5.25.95 3.66 0 6.866-1.315 8.8-3.595 1.595-1.88 2.207-4.265 1.77-6.882-.324-1.96-1.096-6.793-1.344-8.35l2.013-6.596c.06-.204.09-.425.09-.64-.013-3.124-.91-6.61-2.643-10.37l-.083-.248c-.074-.26-.21-.49-.37-.69-.09-.2-.184-.37-.27-.53-.47-1.024-1.04-2.05-1.772-3.18-5.33-8.795-12.92-15.965-13.24-16.27-.643-.6-1.91-1.655-2.71-1.285-.8.375-.965 2.103-.916 2.986l.03.47c-.518-1.233-2.503-3.303-2.944-3.97-.96-1.43-1.67-2.9-1.93-3.953 6.4-29.647 25.99-49.385 26.182-49.584.353-.35.58-.815.623-1.32 4.247-42.416 52.64-61.09 53.13-61.27.183-.066 1.435-.46 1.59-.57 1.682-1.24 1.952-2.22 1.814-2.643z" fill="#FFF"/><path d="M254.507 443.985c-23.085 0-37.917-7.965-53.55-16.355-8.48-4.548-17.234-9.245-27.606-12.734-29.97-10.08-50.2 2.788-50.4 2.915l-1.65-2.53c.87-.56 21.67-13.78 53.02-3.24 10.61 3.57 19.48 8.33 28.07 12.93 16.64 8.93 32.35 17.37 58.33 15.81 24.19-1.46 40.72-9.64 56.71-17.56 6.7-3.31 13.02-6.44 19.68-8.95.45-.17.98-.37 1.58-.61 9.07-3.58 33.16-13.08 54.48 3.17l-1.83 2.406c-19.962-15.223-42.9-6.17-51.533-2.754-.62.237-1.163.458-1.626.63-6.51 2.45-12.774 5.546-19.396 8.836-15.5 7.676-33.064 16.37-57.864 17.86-2.2.134-4.33.2-6.39.2" fill="#292D6B"/><path d="M251.37 420.14l-.684-.023-.165 5.034.63.03c1.85.06 2.88-.72 2.94-2.49.06-1.63-.87-2.48-2.71-2.54m15.22 6.67l3.43-.47-2.474-5.64-.95 6.12zm-50.46-8.94l1.16-6.05-4.24 4.506 3.08 1.55zm-61.43-30.55l-1.115-.06-.302 5.026 1.14.074c1.795.107 2.826-.76 2.925-2.42.097-1.57-.85-2.503-2.643-2.61m145.118 30.04l3.15-1.42-3.98-4.72.827 6.14z" fill="#1B458F"/><path d="M382.575 404.407c-1.456.116-2.724-.966-2.85-2.417-.116-1.457.964-2.732 2.425-2.854 1.45-.12 2.724.966 2.84 2.418.127 1.457-.965 2.732-2.415 2.853zm-4.135-14.947c-.916-.894-2.013-1.612-3.474-1.772-2.564-.276-4.444 1.463-4.786 4.653-.353 3.26 1.257 5.31 3.85 5.6 1.3.14 2.507-.19 3.913-.8l.22 4.57c-1.592.59-3.24.906-5.43.67-5.7-.62-8.712-4.636-8.072-10.586.63-5.784 4.64-9.27 10.43-8.64 1.89.206 3.39.75 4.64 1.57l-1.28 4.757zm-17.484 12.303c-1.45.116-2.724-.965-2.845-2.417-.11-1.457.96-2.732 2.42-2.854 1.45-.116 2.73.966 2.85 2.423.12 1.452-.96 2.733-2.42 2.848zm-7.78 1.193l-5.398 1.13-3.854-18.363 11.595-2.434.94 4.47-6.2 1.29.61 2.96 4.46-.94 1.675 4.28-5.21 1.09 1.36 6.496zm-24.095 8.45L322 394.03l11.446-4.675 1.654 4.052-6.417 2.616 1.014 2.495 4.858-1.976 2.26 3.742-5.484 2.24 1.14 2.772 6.64-2.71 1.66 4.05-11.67 4.77zM322.41 415c-5.155 2.517-9.842.712-12.456-4.67-2.547-5.238-.997-10.327 4.235-12.866 1.71-.834 3.27-1.17 4.76-1.143l1.44 4.71c-1.25-.26-2.56-.29-3.87.36-2.33 1.13-3 3.61-1.6 6.5 1.42 2.94 3.882 3.82 6.23 2.68 1.17-.57 2.02-1.49 2.89-2.76l2.602 3.755c-1.036 1.35-2.26 2.493-4.245 3.454zm-14.21 6.872l-2.364-2.606-5.375 2.434.45 3.252-4.9 2.218-1.85-19.843 5.67-2.566 13.14 14-4.76 3.12zm-25.516 9.488l-5.536-17.928 5.32-1.65 4.147 13.407 5.06-1.57 2.124 4.3-11.12 3.44zm-9.33 2.158l-1.527-3.168-5.843.806-.487 3.25-5.338.735 3.86-19.56 6.16-.84 8.63 17.17-5.46 1.627zm-22.043-4.29l-.87-.026-.19 5.63-5.53-.188.63-18.767 6.49.215c4.84.166 7.73 2.363 7.58 6.69-.15 4.427-3.38 6.607-8.1 6.447zm-17.08 3.572l-11.05-3.58 5.76-17.842 5.3 1.71-4.31 13.353 5.046 1.63-.735 4.74zm-13.99-5.37l-5.41-1.75.53-3.48-5.26-2.654-2.243 2.407-4.81-2.422 14.237-13.92 5.564 2.8-2.595 19.03zM194.86 415l6.557-12.53-4.454-2.34 2.15-4.09 13.36 7.004-1.47 4.45-4.65-2.435-6.555 12.53-4.934-2.59zm-5.744-15.94c3.368 2.974 4.4 5.05 3.19 7.87-1.74 4.074-5.37 4.35-8.87 2.848-2.52-1.08-4.35-2.483-5.95-4.172l2.537-3.86c1.594 1.868 3.44 3.43 5.16 4.17 1 .43 1.793.353 2.118-.392.31-.722.04-1.252-1.95-3.09-2.99-2.755-4.09-4.593-2.794-7.617 1.518-3.545 5.046-4.13 8.44-2.673 2.5 1.064 3.835 2.146 5.197 3.675l-2.525 3.82c-1.38-1.74-2.94-3.01-4.24-3.56-1.02-.44-1.67-.31-1.925.29-.29.67-.04 1.19 1.63 2.68zm-16.93 6.242l-5.37-1.464 1.72-6.347-3.135-12.91 5.91.84 1.52 7.88 5.168-5.86 5.585 1.525-9.637 9.89-1.75 6.46zm-15.144-2.893l-3.08-6.21-.846-.05-.346 5.8-5.51-.33 1.127-18.74 7.163.43c4.83.29 7.464 2.6 7.227 6.62-.157 2.523-1.4 4.25-3.587 5.21l3.767 6.71-5.913.543zm-17.313.56c-5.64 1.07-9.68-1.89-10.8-7.77-1.098-5.72 1.73-10.23 7.45-11.32 1.87-.358 3.45-.27 4.89.15l.162 4.923c-1.137-.585-2.4-.955-3.844-.684-2.534.49-3.83 2.705-3.23 5.856.61 3.205 2.76 4.712 5.32 4.22 1.28-.243 2.345-.916 3.51-1.916l1.543 4.308c-1.355 1.038-2.844 1.816-5.005 2.224zm180.24-16.63c-21.23 13.56-38.51 21.66-60.24 21.74-29.377.11-52.14-19.375-83.146-29.8-31.015-10.42-66.7 6.98-66.7 6.98s11.39 11.14 12.25 31.28c0 0 20.7-13.51 51.714-3.09 31.01 10.427 47.074 31.225 86.97 28.82 34.748-2.09 54.51-18.194 76.83-26.6 6.925-2.606 32.453-14.49 54.536 2.285 2.01-19.63 12.54-31.807 12.54-31.807-26.426-18.903-69.157-9.785-84.755.184z" fill="#1B458F"/><path d="M141.807 423.203c1.566 0 3.088.182 4.345.44.606.134 1.25.305 1.89.476 1.385.37 3.27.89 3.855.46.215-.16.358-.63.39-1.28.03-.63-.164-1.09-.633-1.49-2.133-1.84-8.546-1.72-14.038-1.06l.072 2.93c1.296-.36 2.724-.497 4.12-.497zm226.288-1.838c-2.526 0-4.66.325-5.757 1.186-.485.38-.705.83-.705 1.46.005.66.126 1.13.336 1.3.55.45 2.47.04 3.85-.27.65-.13 1.3-.28 1.92-.38 2.38-.38 5.73-.42 8.44.46l.204-2.93c-2.744-.47-5.733-.81-8.31-.81zm10.702 8.516l-2.08-1.34c-1.703-1.09-5.28-1.51-8.507-1-.562.09-1.152.23-1.747.36-2.305.51-4.676 1.03-6.33-.3-.943-.76-1.417-1.96-1.417-3.58-.006-1.53.623-2.83 1.825-3.76 5.01-3.91 19.68-.324 21.34.096 1.45.404 5.95 1.226 7.87-.115.54-.37.83-.894.9-1.65 1.53-16.874 9.168-28.393 11.958-32.097-25.444-16.99-65.965-8.58-81.877 1.12-18.12 11.065-37.763 21.86-60.993 21.96h-.267c-18.896 0-35.067-7.93-52.187-16.32-9.81-4.81-19.954-9.78-31.163-13.55-26.21-8.803-56.25 2.833-63.803 6.1 3.166 3.78 10.58 14.307 11.288 30.706.027.755.29 1.29.81 1.69 1.874 1.43 6.384.82 7.824.495 1.7-.347 16.52-3.222 21.34.923 1.153.99 1.72 2.32 1.65 3.85-.08 1.617-.62 2.8-1.59 3.505-1.72 1.256-4.07.616-6.35 0-.58-.157-1.17-.317-1.72-.43-3.2-.676-6.79-.428-8.55.583l-2.134 1.24-.165-7.152c-.66.11-1.29.227-1.873.35-.67.15-6.92 1.485-10.207-1.027-1.22-.933-1.9-2.274-1.964-3.897-.83-19.33-11.71-30.18-11.82-30.29l-1.483-1.458 1.868-.903c1.48-.73 36.587-17.55 67.817-7.06 11.39 3.833 21.62 8.85 31.515 13.7 16.806 8.24 32.685 16.02 50.908 16.02h.248c20.28-.083 37.805-8.302 59.49-21.527 16.76-10.237 59.968-19.02 86.367-.13l1.3.94-1.054 1.21c-.092.123-10.51 12.393-12.256 31.723-.15 1.61-.883 2.92-2.15 3.785-3.4 2.356-9.59.727-10.28.534-.56-.14-1.173-.29-1.82-.426l-.5 7.14z" fill="#C4122E"/><path d="M254.523 444.212c-23.08 0-37.906-7.96-53.532-16.35-8.47-4.547-17.24-9.25-27.61-12.74-29.9-10.05-50.25 2.794-50.45 2.927l-1.59-2.46c.87-.58 21.67-13.78 52.98-3.25 10.61 3.56 19.48 8.33 28.07 12.93 16.64 8.93 32.36 17.36 58.36 15.803 24.196-1.45 40.737-9.64 56.73-17.556 6.69-3.317 13.015-6.447 19.67-8.947.448-.17.978-.38 1.58-.617 9.064-3.58 33.13-13.09 54.43 3.16l-1.77 2.322c-19.997-15.24-42.95-6.17-51.585-2.76-.622.236-1.163.46-1.62.633-6.52 2.446-12.78 5.55-19.403 8.827-15.5 7.68-33.067 16.374-57.856 17.864-2.195.13-4.323.19-6.38.19" fill="#C4122E"/><path d="M152.183 422.272c-7.013-5.74-9.73-11.31-9.847-11.553l2.63-1.27c.033.06 2.59 5.25 9.07 10.56l-1.853 2.26zm209.797.608l-1.72-2.368c7.548-5.492 8.446-11.343 8.452-11.404l2.9.41c-.044.286-1.092 7.147-9.632 13.362" fill="#C4122E"/><path d="M290.294 267.935c.226.22.43.425.618.596 0 0-.094-.25-.618-.59m-15.63-113.86c-.453-2.17-.928-4.86-1.286-7.87.28 2.49.69 5.09 1.285 7.88" fill="#27409B"/><g transform="matrix(1 0 0 -1 267.954 157.201)"><mask id="b" fill="#fff"><use xlink:href="#a"/></mask><path d="M5.514 0c-.452 2.17-.927 4.868-1.285 7.877.28-2.49.68-5.09 1.28-7.877" transform="translate(1.195 3.131)" mask="url(#b)" fill="#FFF"/></g><path d="M295.793 233.533c.006-.475 0 0 0 0" fill="#F4F4F4"/><path d="M324.697 287.938c-.788 1-2.045 1.877-3.385 2.462-1.478.65-3.06.95-4.25.65.027-.01.054-.026.087-.043.12-.06.23-.12.35-.187.08-.05.18-.094.26-.144 3-1.86 1.38-5.365-1.74-8.942l-.06-.01-7.14-6.21-.38-.337-.11-.094.07-.022.22-.07.056-.01.264-.09 1.08.61 3.633 2.06.27.147 1.61.91 1.75.99c.005 0 .01-.006.016-.006.01-.006.02-.006.04-.01 1.633-.382 3.48-.84 3.75-.92 1.224-.32 1.913-.67 2.29-.954.026.252 3.11 7.936 1.3 10.24zm-8.01-1.523l-2.58-2.103-1.854-1.507-.463-1.43-.116-.375-.645-1.954-.02-.06c2.08 1.23 3.72 3.45 4.79 5.22.222.382 1.38 2.623 1.38 2.623l-.51-.42zm-13.443-17.657l-3.303-5.95-8.43-4.256 6.89 8.003c-3.63-2.075-9.81-5.37-16.52-6.618 0 0 5.7 5.332 8.42 7.998.52.337.62.602.62.602-.18-.177-.39-.38-.61-.602-.8-.52-2.62-1.214-6.79-1.452-3.86-.39-8.45-1.407-12.61-3.753 0 0 .83 1.22 2.53 2.688.02.022.05.04.07.055.01.006.01.017.03.022 1.592 1.358 3.935 2.904 7.094 3.93.244.083 3.41 1.39 3.663 1.463-2.28.91-4.186 1.998-5.78 3.235-3.08 2.38-4.99 5.243-6.13 8.158-1.97 5.04-3.77 14.15-2.383 19.33-4.37-5.87-8.22-13.44-6.078-22-6.65 3.75-10.934 2.52-15.543 1.85-2.13 2.87-4.94 9.77-5.3 15.68-.39-.622-.756-1.3-1.09-2.01-1.72-3.67-2.6-7.863-2.815-11.892-.106-1.605-.095-3.156.032-4.575v-.01l15.19-10.792-22.102-1.85c.005-.01.01-.01.01-.01.365-.27.745-.536 1.115-.806 8.507-5.997 19.005-10.13 29.54-9.66.818.03 1.634.09 2.45.19-6.787-3.807-18.702-3.62-25.765-1.41-9.59 2.996-13.395 3.18-23.656 1.356 10.775-2.18 10.38-2.47 16.774-5.497 5.25-2.94 15.217-8.377 27.79-6.058-3.084-1.354-5.714-2.623-9.457-3.517-3.66-.84-9.62-1.657-16-.29 0 0 4.34-4.65 12.45-5.79-11.068-9.99-43.76-25.666-43.76-25.666 46.423 10.973 66.16 32.79 69.1 36.314.2.154.386.31.57.458-1.75-3.984-12.04-28.017-40.26-45.613-3.91-2.44-8.23-4.16-12.213-6.472-6.37-3.71-12.258-7.818-17.61-12.316l.026.09c-52.5-41.74-32.96-99.177-32.96-99.177-1.7 13.324.56 26.373 4.41 37.99 2.45 7.376 5.54 14.16 8.688 20.065 3.538 6.637 7.127 12.157 9.94 16.13 6.535 7.993 14.293 14.827 23.28 19.76 0 0-39.62-27.012-17.114-84.6-.877 2.463-16.46 48.613 42.086 88.807 1.13.76 1.954.737 2.29 1.56 7.785 18.774 37.785 48.66 43.376 63.04-.253-2.94-.5-5.882-.755-8.82 3.36 3.617 5.99 8.09 7.37 12.835.25-2.906.51-7.316.76-10.22 4.846 2.666 12.035 8.235 17.97 14.643 0 0-.07-.07-.16-.17l-.59-.638c.09.09.175.186.25.27.06.06.098.104.14.154.085.08.145.15.2.21.056.064.1.1.16.17l-.26-4.27-.125-1.983s8.967 11.034 12.016 19.567c.17.487.33.967.46 1.43-.057 2.4-.4 4.013-.796 5.08-.342.904-1.703 2.394-2 2.615-.216.17-.354.22-.354.22.42-.32.51-1.096.512-1.81.002-.908-.19-1.85-.527-2.93-.314-1.01-.695-1.977-1.01-2.716-.34-.81-.606-1.345-.606-1.345.185 1.98.09 3.434-.146 4.483 0 .025-.007.06-.02.09-.45 1.977-1.36 2.496-1.602 2.6l-.06.028c-.068-.32-.14-.625-.217-.9-.25-.724-.53-1.43-.805-2.126-1.013-2.54-4.72-9.55-5.93-12-1.05 1.5.35 4.98.35 4.98.475.92 1.577 3.27 1.577 3.27-1.023 2.34.49 4.93 2.55 5.92-.58.26-2.504-.02-3.854-.8.5 1.02 2.31 3.456 3.214 4.15-2.602-.644-8.58-5.38-11.854-8.09zm22.082-9.864l-.12-.38s.02.098.06.247c-.2-.4-.398-.81-.607-1.23-.48-1.04-1.05-2.01-1.66-2.94-5.25-8.65-12.88-15.81-12.88-15.81l.12 2.106.03.01.23 3.285s-24.6-14.3-35.09-27.48c-8.13-10.22-17.5-21.366-23.04-35.055l-2.05-3.28c-7.09-8.428-14.48-6.838-30.66-25.58-5.55-6.43-11.68-19.085-13.62-27.45-4.11-17.676-3.377-37.796.99-55.348 0 0 2.05-5.994-9.15 11.83l.002-.013c-5.607 8.913-9.533 19.063-11.407 29.42-.953 5.29-1.383 10.624-1.21 15.873-3.8-7.58-6.844-15.824-8.928-24.335-2.75-11.21-3.828-22.864-2.708-34.014 0 0-1.97-1.92-8.766 16.27-6.802 18.2-7.88 33.726-4.75 51.12-12.5-10.605-15.33-30.03-19.486-45.4 0 0-.008 0-.008.01h-.006c-.005 0-.01.01-.02.017h-.007c-.034.034-.09.106-.155.238-.16.3-.378.975-.516 2.4 0 1.11-.143 2.214-.143 3.32-.755 7.7-1.466 28.612 9.253 50.47.23.51.44 1.04.68 1.534 1.525 3.217 3.327 6.12 4.965 8.996 2.715 4.79 4.827 5.96 7.87 10.182-.32-.05-18.71-3.918-25.445-4.928 4.073 2.67 11.53 9.45 20.002 17.4 0 0 25.38 2.04 45.3 16.798 0 0-17.25-8.45-37.975-9.89l3.66 3.45c5.904 5.556 11.83 11.092 17.11 15.75l-.08-.006-14.97-1.485 21.52 17.425 3.866.13s7.23-.253 14.385 1.365c7.63 1.73 11.687 4.21 11.687 4.21-4.264-1.447-11.355-1.668-15.633-1.39-3.05.19-5.04 1.05-7.256 1.356l1.263 1.01 13.575 10.93 12.09.32c-10.207 6.36-20.226 8.868-33.07 4.557-6.83-2.29-13.445-5.88-19.064-10.405 2.27 5.58 7.55 10.374 11.65 14.602-13.535-1.045-24.44-4.18-36.81-9.85 4.73 7.347 8.49 12.34 12.24 16.256 3.745 3.91 8.91 8.14 11.497 9.694 1.645.988 9.21.95 14.21.464.938-.09 1.798-.19 2.498-.31 1.144-.186 2.58-.495 4.105-.85 5.14-1.185 11.333-2.92 10.99-2.692-2.232 1.45-4.67 2.876-7.24 4.195-1.514.78-3.075 1.525-4.67 2.21-7.194 3.09-15.034 5.01-22.18 4.106 7.99 2.86 16.354 4.95 24.82 5.75 2.91.282 3.97.24 6.51-.94 3.78-1.75 6.903-3.19 9.91-4.63 1.52-.735 3.03-1.475 4.56-2.26 2.11-1.07 4.28-2.21 6.714-3.564-1.4 1.32-2.81 2.55-4.255 3.777-.81.673-1.64 1.36-2.478 2.053-2.925 2.398-6.05 4.88-9.618 8.017 9.56.665 15.096 2.25 27.794-1.725 0 0-2.616 1.956-6.25 4.064l3.765 7.394-4.085-1.837 2.69 5.023s1.91 2.367 4.627 4.343l.92 2.96c-2.1-.622-4.79-2.87-6.126-3.757 2.126 8.53 7.19 6.86 8.65 12.03.986 3.49 4.68 9.75 2.59 13.072-2.453 3.912-4.063 3.636-7.52 6.755-4.01 3.6-.92 8.1-.094 9.54.827-4.213 3.964-6.956 5.745-7.49 2.797-.824 6.15-.195 7.37-1.42 4.42-4.41 13.92-5.53 20.49-1.413-3.042-4.924-4.61-4.775-10.662-6.524 10.7.708 11.404 3.054 16.636 9.148.43-3.47-2.45-7.883-4.91-10-.765-.65-9.267-1.85-17.527-2.563-2.9-.252-4.075-3.983-4.494-5.992.51.29 2.848 1.52 5.126 1.494-.58-2.915-1.38-6.22-1.857-8.208.814.37 1.646.89 3.48.95l-1.2-4.89c-.565-3.91-1.83-6.74 1.916-12.71 2.07 1.45 2.984 2.08 3.92 3.132 0 0 .78 3.73 1.633 5.726.162.374 3.85 3.526 3.98 3.907l-6.34-1.838s2.114 4.817 6.3 7.594c2.48.876 4.685 1.875 5.41 2.84.743 1.005 1.994 3.71 1.404 5.16-.475 1.17-3.844-3.83-10.934 2.13 4.84.076 10.647 1.4 11.9 2.88 1.62 1.92 2.784 3.665 3.953 4.366 5.15 3.09 5.506 4.715 5.092 10.78 3.183-2.46 2.29-8.88 1.81-10.43 4.222 5.072 3.296 11.96 2.005 14.654 3.165-1.762 7.003-8.767 3.38-14.303-.98-.888-6.335-4.9-7.377-6.09-2.686-3.076-3.36-6.53-4.677-10.036.93.055 2.1.43 3.037.42-.475-2.076-1.14-4.78-1.66-7.767-.044-.27-.094-.55-.138-.82l-.05-.338c-.065-.44-.13-.887-.19-1.345l-.035-.328c-.06-.46-.11-.92-.154-1.39 1.736 1.113 2.93 1.59 2.93 1.59l-2.975-8.08v-.02c.055-.61.13-1.22.23-1.836 0-.03.01-.08.018-.114.087-.554.203-1.11.33-1.657l.066-.27c.11-.503.27-1 .43-1.497.04-.12.07-.234.11-.356.21-.59.45-1.188.71-1.76-1.345 2.89 2.613 7.07 2.613 7.07.496-6.404 6.213-12.38 11.01-14.54-.264 1.777.656 3.565.656 3.565 1.416-3.027 4.31-4.21 6.384-4.688l3.883 1.56 4.11 1.657 1.08.44s.74 3.273 2.56 4.736c1.75 1.42 3.57 2.46 7.942 5.276-.328 1.088-1.31 2.11-3.28 2.82 6.21 2.33 14.05-.47 12.94-7.152-.39-2.355-1.43-8.863-1.43-8.863v-.023l1.47-4.803.436-1.437.046-.15.207-.66c-.015-3.1-1-6.375-2.5-9.59z" fill="#1B458F"/><path d="M362.242 115.325l.36.034c-9.998.6-19.9 3.5-28.15 8.74 6.794-13.24 21.797-22.21 35.063-27.47 0 0 1.637-2.55-14.39-.15-2.085.24-4.153.57-6.198 1.02-.033.01-.06.01-.094.02h.028c-8.81 1.95-17.18 5.86-24.25 11.44-3.98 3.156-7.57 6.83-10.58 10.972-13.51 17.99-18.08 33.727-18.08 33.727S294 130.44 323.64 99.8c3.27-5.46 6.93-10.662 10.98-15.414 0 0 .69-3.474-16.09 9.27-12.13 8.49-22.73 19.644-30.37 32.1-2.745 4.926-8.623 15.97-10.326 23.28.017.216.028.442.045.66 0 0 .182 4.374.99 10.2.973 7.04 3.86 16.77 3.86 16.77-1.967-4.016-5.47-12.86-6.637-16.938-.57-1.99-1.02-3.87-1.41-5.675-.245-1.128-.43-2.204-.614-3.27-.1-.568-.193-1.16-.287-1.766-.14-.96-.28-1.915-.39-2.848-.374-3.4-.517-6.62-.567-9.85-.06-4.27.126-8.13.32-10.917-7.704 17.68-8.43 31.3-8.448 36.75-.38 3.48-.59 6.073-.735 8.25 1.995 5.68 5.54 13.255 11.89 22.865 0 0-5.713-3.184-12.434-14.957-.27 2.594-.744 5.547-1.77 10.145 7.62 12.96 15.26 22.934 22.17 30.546v-15.42c2.47 2.478 4.175 4.405 5.344 5.895 1.1-5.02 2.65-11.05 4.806-17.463 13.43-40.017 29.354-52.21 29.354-52.21-14.653 22.923-28.1 69.277-27.54 90.92 2.84 2.423 5.377 4.366 7.48 5.845-1.13-1.71-2.09-3.653-2.33-5.17 6.524-30.92 26.87-51.1 26.87-51.1 4.43-44.3 54.514-63.075 54.514-63.075 4.07-2.986-20.068-1.91-20.068-1.91" fill="#1B458F"/><path d="M369.753 370.517v-25.052c-2.625 2.013-5.09 3.813-7.416 5.446v7.39h-3.794v-4.8c-16.27 10.77-24.32 11.9-24.32 11.9 10.966-5.61 18.807-11.11 24.32-15.78v-9.56c-19.992 17.198-37.945 26.05-44.583 29.01 0 .48 0 1.94.005 3.98h34.28c6.842-1.14 14.16-1.68 21.503-1.37" fill="#D3D2D2"/><path d="M338.805 375.034c-5.365 1.39-10.233 3.108-14.324 4.985v-4.99h14.33zm-43.07 21.01c-1.334.597-3.72 1.646-4.725 2.07l.017-5.09v-10.44h4.71v13.462zm-.003-15.334h-4.704v-11.83h4.704v11.83zm16.333 5.573v-3.698h-4.202v7.115c1.395-.806 2.8-1.645 4.218-2.51l-.01-.907zm-.002-5.573h-4.2v-11.83h4.2v11.83zm-11.217 9.745v-7.87h-3.237v7.87l-.01 4.73c1.07-.518 2.15-1.07 3.24-1.622v-3.108zm-.003-9.745h-3.237v-11.83h3.237v11.83zm5.1 0h-3.237v-11.83h3.237v11.83zm-.003 8.917v-7.043h-3.242v9.99c1.08-.573 2.16-1.164 3.242-1.776v-1.17zm6.14-30.782h-21.052v8.164h21.052v-8.17zM207.202 387.57c-1.533-.75-3.077-1.507-4.632-2.252l-.005-.91v-1.828h4.637v4.99zm.073-6.86h-4.703v-11.83h4.703v11.83zm12.015 12.72c1.422.667 2.85 1.324 4.267 1.96l.044-9.17v-3.637h-4.31v10.847zm4.31-12.72h-4.21v-11.83h4.21v11.83zm-11.296 0h-3.23v-11.83h3.23v11.83zm5.116 0h-3.18v-11.83h3.18v11.83zm6.198-21.865h-21.05v8.164h21.05v-8.17zm-9.422 32.142c.98.48 2.205 1.126 3.23 1.63v-10.032h-3.24v7.656l.01.75zm-16.736-8.08c1.087.504 2.162 1.006 3.237 1.52v-9.39h-3.242v6.265l.006 1.606zm11.61 5.578l.54.26c.9.44 1.793.883 2.692 1.32v-7.48h-3.23v5.9z" fill="#A7A5A6"/><path d="M145.8 361.67v-16.21c2.618 2.02 5.082 3.818 7.41 5.452v7.385h3.793V353.5c16.27 10.764 24.32 11.885 24.32 11.885-10.966-5.614-18.8-11.11-24.32-15.786v-9.56c19.154 16.47 36.434 25.29 43.69 28.6v4.39s-29.145.14-29.873-.01c-8.49-1.83-17.065-1.95-25.02-1.16" fill="#D3D2D2"/><path d="M190.462 379.88c-4.08-1.69-9.566-3.908-12.62-4.93h12.62v4.93zm1.883-.28v-4.57h3.242v4.57l-.01 2.44c-.32-.148-1.545-.667-3.243-1.38l.01-1.06zm125.162 2.984v-7.55h-3.55v11.017c1.168-.72 2.353-1.47 3.544-2.23l.01-1.23zm5.113-2.574v-4.973h-3.242v4.973l.033 2.622c1-.585 2.07-1.164 3.21-1.727v-.895zm-33.433-13v-5.778c0-17.62-14.258-31.898-31.858-31.898s-31.86 14.28-31.86 31.898v5.78l5.42-.006c-.35-1.71-.53-3.49-.53-5.31 0-14.804 11.98-26.798 26.77-26.798s26.77 11.994 26.77 26.798c0 1.82-.18 3.61-.53 5.332l5.8-.017z" fill="#A7A5A6"/><path d="M153.21 343.786v-7.164l-7.41-7.507v8.417c1.016 1.578 3.254 4.653 7.41 8.654v-2.4zm216.543-6.253c-1.02 1.578-3.258 4.653-7.416 8.655v-9.566l7.416-7.5v8.41z" fill="#D3D2D2"/><path d="M251.977 392.346c-.855 0-1.44.563-1.44 1.54 0 .933.464 1.452 1.44 1.452.595 0 1.13-.193 1.643-.585v-.05c0-1.523-.667-2.357-1.643-2.357m8.056.04c-1.114 0-1.726 1.07-1.726 3.02 0 1.953.612 3.03 1.726 3.03 1.108 0 1.703-1.077 1.703-3.03 0-1.95-.595-3.02-1.703-3.02" fill="#A7A5A6"/><path d="M267.42 399.687c-1.027 0-1.832-.243-2.488-.596l.23-1.36c.625.37 1.39.65 2.268.65.953 0 1.665-.48 1.665-1.44 0-.82-.535-1.32-1.505-1.32-.552 0-.943.11-1.285.25l-1.042-.23.292-4.34h4.593l.21 1.32h-3.573l-.15 1.93c.31-.085.695-.17 1.24-.17 1.64 0 2.708.94 2.708 2.497 0 1.83-1.34 2.83-3.164 2.83zm-7.384 0c-1.974 0-3.286-1.53-3.286-4.277 0-2.738 1.312-4.284 3.286-4.284 1.957 0 3.275 1.546 3.275 4.284 0 2.748-1.31 4.277-3.27 4.277zm-9.688.01l-.198-1.3c1.643-.332 2.922-1.06 3.352-2.474-.584.375-1.23.607-1.974.607-1.483 0-2.476-.89-2.476-2.556 0-1.71 1.258-2.848 2.94-2.848 1.802 0 3.07 1.21 3.07 3.494 0 2.893-1.968 4.537-4.714 5.078zm-3.275-.17h-1.555V392.8l-1.682.645-.17-1.23 2.03-.94h1.377v8.252zm35.85-30.595c-3.16 11.287-13.503 19.56-25.782 19.56-12.28 0-22.63-8.284-25.78-19.577l-5.88-.033v22.035l-.01 5.304c11.06 4.82 22.13 8.34 34.16 8.34h.24c10.5-.03 19.95-2.05 29.29-5.67l.05-30.01-6.264.06zm-144.377-43.296c1.114.21 2.183.48 3.192.79v14.317c-1.014-.314-2.078-.58-3.192-.79v-14.317zm-1.85 14.03c-1.038-.126-2.108-.214-3.194-.242l.006-14.318c.518.017 1.036.04 1.555.077.55.045 1.097.1 1.632.166v14.31zm-8.246 0c1.038-.126 2.107-.214 3.2-.242v-14.318c-1.093.028-2.162.11-3.2.243v14.31zm-5.034 1.084c1.015-.326 2.073-.585 3.187-.795v-14.318c-1.114.21-2.172.48-3.187.79v14.323zm-2.886-26.747c.688-.314 1.41-.607 2.17-.866v1.722l-2.17-.86zm11.118 5.024c-1.092.028-2.162.11-3.198.243v-7.45c1.036-.128 2.106-.21 3.198-.25v7.457zm5.047-7.207c-1.037-.127-2.107-.216-3.193-.243v7.45c1.086.03 2.156.106 3.193.244v-7.45zm1.85.287c1.115.21 2.18.48 3.193.79v7.445c-1.01-.31-2.078-.58-3.192-.778v-7.457zM126.6 319.56c-1.108.205-2.177.475-3.186.784v-7.446c1.014-.31 2.078-.58 3.187-.795v7.457zm15.854-6.424c.772.265 1.505.558 2.2.883l-2.2.84v-1.73zm-21.924 14.397c.688-.32 1.41-.607 2.17-.866v1.722l-2.17-.86zm21.924-.867c.772.265 1.505.558 2.2.883l-2.2.84v-1.73z" fill="#A7A5A6"/><path d="M144.654 309.174c-3.313-1.534-7.515-2.45-12.075-2.45s-8.74.916-12.06 2.44v3.107c3.31-1.52 7.5-2.43 12.05-2.43 4.56 0 8.76.92 12.07 2.45v-3.11zm0 13.644c-3.313-1.53-7.515-2.45-12.075-2.45s-8.74.91-12.06 2.44v3.107c3.31-1.524 7.5-2.44 12.05-2.44 4.56 0 8.76.922 12.07 2.45v-3.107z" fill="#A7A5A6"/><path d="M144.654 307.807c-3.313-1.534-7.515-2.456-12.075-2.456s-8.74.92-12.06 2.44l9.57-9.12c.81-.06 1.64-.09 2.48-.09.84 0 1.66.03 2.48.09l9.59 9.15zm-14.558-11.693v1.507c.81-.06 1.643-.08 2.48-.08.845 0 1.672.03 2.482.09v-1.5c0-.57-1.235-.59-1.555-.6-.303 0-.617-.003-.926-.003-.314 0-.623.006-.932.006-.33.01-1.55 0-1.55.6m11.645 60.16c-1.016-.326-2.08-.585-3.194-.795v-13.93c1.114.204 2.178.47 3.193.784v13.936zm-5.045-1.083c-1.03-.133-2.107-.21-3.193-.244v-13.94c1.086.025 2.162.113 3.193.24v13.93zm-5.047-.24c-1.092.03-2.162.105-3.198.24v-13.93c1.036-.14 2.106-.21 3.198-.25v13.94zm-5.048.53c-1.108.205-2.172.475-3.186.79v-13.94c1.014-.315 2.078-.575 3.187-.784v13.93zm262.365-29.847c1.114.21 2.178.48 3.187.79v14.316c-1.01-.318-2.073-.58-3.187-.79v-14.32zm-1.85 14.03c-1.038-.127-2.1-.215-3.194-.243v-14.32c.53.017 1.05.04 1.57.077.55.046 1.1.1 1.63.167v14.316zm-8.245 0c1.038-.127 2.102-.215 3.2-.243v-14.32c-1.098.028-2.162.11-3.2.243v14.312zm-5.037 1.083c1.015-.327 2.08-.586 3.187-.796v-14.32c-1.108.21-2.172.48-3.187.79v14.323zm-2.885-26.748c.69-.313 1.412-.606 2.172-.865v1.72l-2.172-.86zm11.12 5.025c-1.092.03-2.162.11-3.198.242v-7.45c1.036-.13 2.106-.21 3.198-.25v7.456zm5.046-7.208c-1.037-.128-2.1-.217-3.193-.244v7.45c1.1.03 2.16.106 3.2.244v-7.45zm1.85.286c1.115.21 2.18.48 3.188.79v7.445c-1.01-.31-2.073-.58-3.187-.774v-7.46zm-11.944 7.45c-1.11.207-2.18.477-3.188.786v-7.45c1.014-.31 2.078-.58 3.192-.795l-.005 7.456zm15.854-6.422c.766.265 1.505.558 2.2.883l-2.2.84v-1.727zm-21.926 14.397c.69-.32 1.412-.61 2.172-.87v1.725l-2.172-.86zm21.926-.87c.766.267 1.505.56 2.2.885l-2.2.84v-1.73z" fill="#A7A5A6"/><path d="M395.074 309.174c-3.32-1.534-7.515-2.45-12.075-2.45s-8.74.916-12.06 2.44v3.107c3.31-1.52 7.5-2.43 12.05-2.43 4.56 0 8.76.92 12.07 2.45v-3.11zm0 13.644c-3.32-1.53-7.515-2.45-12.075-2.45s-8.74.91-12.06 2.44v3.107c3.31-1.524 7.5-2.44 12.05-2.44 4.56 0 8.76.922 12.07 2.45v-3.107z" fill="#A7A5A6"/><path d="M395.074 307.807c-3.32-1.534-7.515-2.456-12.075-2.456s-8.74.92-12.06 2.44l9.56-9.12c.81-.06 1.64-.09 2.48-.09s1.665.03 2.48.09l9.594 9.15zm-14.56-11.693v1.507c.817-.06 1.64-.08 2.48-.08.84 0 1.673.03 2.483.09v-1.5c0-.57-1.235-.59-1.555-.6-.308 0-.617-.003-.926-.003-.31 0-.623.006-.932.006-.33.01-1.55 0-1.55.6m11.642 60.16c-1.015-.326-2.08-.585-3.187-.795v-13.93c1.1.204 2.17.47 3.18.784v13.936zm-5.042-1.083c-1.037-.133-2.1-.21-3.193-.244v-13.94c1.1.025 2.16.113 3.2.24v13.93zm-5.046-.24c-1.092.03-2.162.105-3.198.24v-13.93c1.036-.14 2.106-.21 3.198-.25v13.94zm-5.048.53c-1.11.205-2.174.475-3.188.79v-13.94c1.014-.315 2.078-.575 3.187-.784v13.93zm-250.44 19.9c-1.093.31-2.152.62-3.16.933 0-1.86-.006-7.01-.006-7.01V357.98s2.078-.585 3.187-.795v10.885l-.02 7.33zm5.1-1.313c-1.115.26-2.2.53-3.254.806 0-.767.027-7.247.027-7.247V356.9s2.1-.216 3.193-.243l.038 10.99-.005 6.44zm5.016-17.19c-1.036-.137-3.192-.24-3.192-.24v10.988s-.017 5.133-.017 6.028c1.048-.226 2.112-.44 3.193-.645l.016-16.13zm5.045 10.285v-9.205c-1.01-.32-3.19-.795-3.19-.795v9.998l-.03 5.513s2.12-.345 3.2-.494l.02-5.02zm235.28 1.895V357.18c-1.1.21-3.18.796-3.18.796v12.36s.03.236.03 1.66c1.06.09 2.11.204 3.16.337v-3.257zm5.09-.612l-.03-11.812c-1.09.03-3.19.244-3.19.244v11.57s-.04 3.046-.04 4.117c1.105.168 2.197.35 3.28.554l-.01-4.67zm5.03 5.817c-1.06-.286-2.13-.545-3.21-.782 0-.813.01-5.035.01-5.035V356.65s2.16.105 3.196.243v11.57l.006 5.817zm5.037 1.563c-1.063-.386-2.133-.728-3.22-1.054 0-.84.03-6.88.03-6.88v-10.73s2.176.48 3.19.8v17.87z" fill="#A7A5A6"/><path d="M246.854 370.843c4.306 2.357 8.436 3.46 11.138 3.958.06.02.11.03.16.03.193 0 .38-.06.53-.19.197-.15.313-.38.324-.63.182-4.59-.838-8.67-1.284-10.21-.067-.23-.226-.42-.44-.53-5.488-2.66-9.932-5.57-13.207-8.67-2.387-2.26-4.124-4.57-5.144-6.88-.12-.28-.39-.47-.69-.5-.31-.03-.6.11-.78.36-1.81 2.6-3.13 5.63-3.83 8.74-.03.178-.01.366.06.537 2.72 5.99 7.15 10.705 13.17 14.005" fill="#C4122E"/><path d="M245.21 353.253c.16.15.368.232.59.232h.07c.243-.016.47-.143.612-.342 6.402-8.65 13.415-11.862 18.174-13.037.37-.083.634-.414.65-.795.01-.38-.226-.72-.59-.83-2.415-.79-4.935-1.18-7.498-1.18-3.254 0-6.435.65-9.456 1.93-2.88 1.23-5.448 2.97-7.653 5.18-.21.208-.29.517-.23.798.35 1.44 1.5 4.406 5.32 8.065" fill="#C4122E"/><path d="M247.712 354.373c-.27.37-.2.894.165 1.17 2.636 2.06 5.856 4.04 9.588 5.895.122.055.25.083.375.083.243 0 .48-.1.645-.29 2.234-2.59 8.57-8.77 19.166-10.41.28-.04.52-.21.65-.46.12-.25.12-.54-.02-.79-1.87-3.3-4.52-6.15-7.67-8.24-.13-.09-.29-.14-.45-.14-.95-.023-4.55.037-9.12 2.04-5.02 2.21-9.51 5.96-13.31 11.16m32.128-1.45c-.137-.37-.507-.593-.9-.544-1.88.23-3.726.62-5.49 1.18-.215.066-.402.22-.502.42-.1.203-.12.435-.05.656.625 1.926 1.705 5.85 1.898 10.465.12 2.92-.13 5.72-.75 8.29-.412 1.715-.99 3.365-1.72 4.89-.175.37-.065.82.26 1.058.155.118.326.168.508.168.21 0 .417-.073.58-.22 2.63-2.425 4.65-5.356 6-8.7 2.284-5.67 2.345-11.95.17-17.66m-21.39 23.96c-.124-.19-.323-.32-.55-.36-2.645-.484-6.71-1.53-11.026-3.746-5.144-2.644-9.27-6.254-12.256-10.725-.215-.32-.618-.46-.982-.343-.356.12-.593.47-.577.85.11 2.897.75 5.73 1.886 8.41 1.698 3.99 4.428 7.45 7.9 10.018 3.337 2.45 7.274 4.02 11.393 4.532.04.01.066.01.104.01.243 0 .474-.11.64-.298 1.797-2.07 3.016-4.67 3.606-7.7.044-.22-.006-.46-.133-.64" fill="#C4122E"/><path d="M271.31 355.316c-.077-.232-.243-.42-.463-.52-.22-.098-.48-.098-.695.007-5.773 2.583-9.318 6.325-10.575 7.81-.188.226-.254.52-.17.795.48 1.6 1.284 4.863 1.377 8.754.056 2.44-.182 4.73-.705 6.817-.51 1.98-1.28 3.81-2.31 5.41-.17.27-.18.6-.02.89.16.25.43.41.73.41h.05c2.42-.14 4.85-.67 7.21-1.55.1-.04.2-.1.29-.18 2.49-2.35 4.36-5.178 5.54-8.38.983-2.682 1.5-5.67 1.523-8.864.033-4.973-1.114-9.29-1.803-11.42" fill="#C4122E"/></g></svg>