<svg width="512" height="512" viewBox="0 0 512 512" xmlns="http://www.w3.org/2000/svg"><title>everton</title><g fill="none" fill-rule="evenodd"><path d="M418.323 311.745c-.065-.194-.195-.324-.39-.324l-20.902-8.04c.39-1.49 1.17-3.5 2.6-5.58l10.78 4.74c.39.2.72.26 1.11.26.977 0 1.88-.52 2.4-1.36.26-.45 1.11-1.81 1.82-3.56 1.04-2.79 1.3-5.32.65-7.395-.65-2.205-2.204-3.892-4.54-4.93l-28.757-13.17s-.13-.064-.194-.13c-1.106-.453-3.18-1.037-5.715-.193v-2.724c0-2.205-.063-4.54-.193-6.876-.13-2.4-.326-4.866-.585-7.396-1.69-14.533-5.063-25.237-6.426-29.13l-.52-1.297c-5.646-15.7-10.06-28.157-9.93-43.01.065-11.226 14.086-26.925 19.474-32.05l5.064-4.8-53.162-48.46-4.22 2.786c-9.736 6.423-22.33 9.926-35.507 9.926-13.763 0-26.876-3.83-36.743-10.77l-3.7-2.595-3.7 2.597c-9.93 6.94-22.98 10.77-36.74 10.77-13.177 0-25.77-3.504-35.51-9.927l-4.22-2.79-48.034 43.79-5.13 4.67 5 4.8c5.385 5.126 19.41 20.825 19.54 32.048.06 14.86-4.35 27.31-10 43.01l-.456 1.3c-1.362 3.89-4.802 14.598-6.425 29.13-.26 2.53-.454 4.995-.584 7.395-.13 2.338-.26 4.673-.26 6.88 0 .91 0 1.816.067 2.725-2.53-.844-4.61-.26-5.65.194h-.06c-.064.064-.13.13-.194.13l-28.77 13.16c-2.337 1.034-3.895 2.72-4.544 4.93-.65 2.073-.39 4.603.65 7.392.713 1.752 1.557 3.114 1.882 3.568.454.844 1.363 1.363 2.337 1.363.39 0 .715-.062 1.104-.26l10.77-4.735c1.426 2.075 2.14 4.086 2.595 5.58l-20.905 8.04c-.195 0-.324.13-.39.324-.064.196-.064.326 0 .52l1.234 3.18c13.05 32.565 35.25 60.526 64.137 80.637 26.878 18.68 58.36 29.645 91.01 31.66l10.78 10.635c.13.13.26.195.45.195.13 0 .32-.064.45-.194l10.77-10.64c32.65-2.01 64.136-12.974 90.946-31.657 28.95-20.11 51.15-48.07 64.2-80.64l1.233-3.18c.062-.19.062-.32 0-.516" fill="#FFF"/><path d="M116.158 287.114c-1.04-2.725-1.363-5.515-.974-7.98.065-.13.065-.324.13-.52l.26-1.296-24.603 11.288c-1.42.648-2.33 1.557-2.66 2.79-.78 2.594.85 5.968 1.56 7.33l.33.52 26.23-11.55-.26-.582zm269.117 0c1.038-2.725 1.363-5.515.973-7.98-.064-.13-.064-.324-.13-.52l-.324-1.296 24.668 11.288c1.428.648 2.337 1.557 2.66 2.79.78 2.594-.843 5.968-1.557 7.33l-.324.52-26.22-11.55.26-.582zm-219.515 93.04l-3.83 3.05 3.31 2.14 1.298-4.67c.13-.584.26-1.04.39-1.43-.39.26-.78.586-1.17.91m133.562 14.552c-1.947.648-2.726 2.854-1.557 6.163 1.168 3.56 2.92 4.67 5.063 3.95 2.013-.65 2.792-2.66 1.558-6.17-1.168-3.637-2.92-4.67-5.063-3.96m15.14-5.876l-1.04.516 2.15 4.607c.33-.066 1.04-.39 1.24-.52 1.56-.714 2.08-1.88 1.365-3.44-.78-1.686-2.08-1.946-3.7-1.167m-35.5-134.93c0-.063-3.05-.91-5.26-1.296-2.726-.456-4.35-.52-4.87-.586-.582-.13-2.075-.13-2.01-.974 0-.583.65-.71 1.298-.777.976-.065 3.507.194 5 .39 3.57.52 5.843 1.232 5.843 1.102v-4.48c0-.13-5-1.816-10.388-2.4-3.632-.324-5.32-.26-7.462-.324-.39 0-1.23.13-1.23-.584s.78-.78 1.037-.842c2.727-.26 6.232-.33 9.87-.07 4.022.26 8.112 1.688 8.112 1.56v-4.8c-1.56-.716-3.83-1.43-5.714-1.754-2.4-.39-5.58-.583-6.036-.583-.46 0-.65-.26-.72-.454-.06-.326.13-.585.59-.715.71-.13 2.463-.194 4.61-.13 1.553.066 5.32.455 7.2.715l-.065-3.695c-3.57-1.88-9.09-2.79-12.66-3.31-5.388-.84-10.32-.97-11.166-.97-.457-.067-.91-.067-.976-.52 0-.39.26-.714.973-.714.647 0 4.867-.13 11.49.455 3.18.26 9.476 1.49 12.33 2.072l-.063-3.637c-3.18-1.56-8.18-2.728-15.384-3.766-8.83-1.296-25.71-.712-26.618-.583-1.23.064-1.426-.195-1.49-.65-.066-.453.39-.713 1.3-.91.906-.13 12.46-1.23 21.81-.776 7.075.322 17.266 2.333 20.382 2.92l-.068-2.857c-5.323-3.633-14.086-4.022-14.67-4.022-.585-.062-.974-.322-1.04-.65-.064-.32.325-.58.78-.645.454-.067 1.753-.196 4.48 0 2.206.13 8.113 1.36 10.45 1.88l-.065-2.855c-3.96-2.335-13.11-3.7-20.186-4.346 0 0-.847-.066-2.405-.13l-.13 1.88c0 .584-.456.973-1.04.973-4.155-.197-5.648-.197-9.8 0h-.068c-.52 0-.973-.39-.973-.976l-.13-1.88c-3.766.13-8.18.454-13.114.973-.715.064-1.43.26-1.494-.26-.13-.325.067-.584.976-.844.715-.13 10.517-1.49 12.984-1.75h.52l-.65-12.066c0-.26.13-.52.26-.78.192-.194.452-.324.712-.324 5.062-.195 6.815-.195 11.75 0 .26 0 .52.13.712.324.13.198.26.458.26.65 2.27.067 4.54.197 6.36.327 3.83.19 12.85 1.49 15.252 1.813v-2.79c-.454-.322-1.103-.516-1.62-.776-2.53-.975-12.335-2.66-26.29-2.66-14.02 0-22.397 1.815-23.696 2.14-1.43.39-2.988.91-2.92 1.816l.192 31.592c-.196 2.14.064 10.64.13 12.65.064 3.31 5.257 5.385 16.617 9.342 11.88 4.346 26.88 9.017 38.17 12.13v-6.81m-9.96 6.56c-2.273-.646-3.44-1.035-5.714-1.75-.26-.064-.453.066-.453.325v9.86c0 .26.197.45.39.58 2.27.78 3.44 1.17 5.78 1.947.195.13.39-.063.39-.26v-10.12c0-.26-.195-.52-.39-.58m-9.588-2.926c-2.34-.715-3.44-1.04-5.78-1.82-.195-.063-.39.067-.39.26v9.6c0 .198.195.457.39.52 2.27.78 3.44 1.234 5.777 2.01.193.068.39 0 .39-.26v-9.792c0-.193-.197-.453-.39-.52m-19.25-6.34c-2.336-.78-3.44-1.17-5.777-2.08-.19-.063-.39.067-.39.26v9.408c0 .193.2.453.39.52 2.273.776 3.44 1.23 5.78 2.074.195.063.39-.067.39-.26v-9.41c0-.197-.195-.39-.39-.52m32.964-69.513c-.195-.326-.325-.715-.584-1.234-2.27-.843-7.983-2.27-12.073-2.66-.78-.065-1.948-.13-1.948-.713 0-.52.45-.713 1.75-.713 3.31.067 8.63.91 10.97 1.364-.65-1.427-1.43-3.114-2.27-4.93-4.415-1.687-12.79-2.206-14.28-2.336-1.625-.193-2.144-.39-2.014-.907.064-.52 1.102-.456 3.634-.52 2.92-.066 9.348.453 11.165.65-.585-1.3-1.234-2.66-1.883-4.154-2.465-1.687-7.14-2.01-8.44-2.076-1.23-.064-1.685-.52-1.62-.907.065-.456.714-.586 1.233-.65.457 0 5.845-.066 6.3-.13.325 0 .65-.195.39-.65-.52-1.17-.844-1.88-1.43-3.05-.843-.39-1.946-.713-2.855-.843-.78-.13-3.31-.26-4.61-.39-.712-.193-.842-.322-.842-.582 0-.325.195-.52.844-.585 1.624-.13 4.61 0 5.26-.067.454 0 .973-.196.78-.585-.326-.78-.65-1.424-.975-2.14-.713-.322-1.816-.52-2.725-.71-1.17-.26-3.376-.45-5.194-.52-.45 0-.84-.256-.84-.516s.196-.52.715-.586c1.234-.196 3.83-.196 4.87-.26.844-.066 1.88-.196 1.56-.91-.586-1.164-.91-2.01-1.494-3.11-.78 0-2.145-.065-3.118-.195-.39-.063-.91-.13-.91-.452-.064-.325.455-.52.91-.715.324-.13 1.428-.455 2.207-.65-.39-.713-.65-1.362-.97-2.075-1.105-.066-3.118-.196-4.676-.196-.65 0-.975-.326-.975-.586 0-.255.13-.45.846-.58 1.17-.324 2.985-.454 3.894-.52-1.035-2.204-2.01-4.345-2.92-6.29-7.14 15.244-20.25 43.334-22.394 47.81 7.4-1.75 17.4-2.4 22.073-2.4 4.67 0 15.19.714 22.652 2.27m-42.6 66.06c-2.273-.844-3.44-1.233-5.78-2.14-.193-.066-.39 0-.39.26v9.535c0 .26.197.52.39.52 2.338.84 3.507 1.23 5.78 2.076.26 0 .39-.067.39-.327v-9.403c0-.196-.13-.39-.39-.52m19.27 6.73c-2.335-.716-3.44-1.17-5.776-1.95-.194-.067-.39.06-.39.26v9.404c0 .195.196.455.39.52 2.272.84 3.44 1.23 5.778 2.01.2.13.39 0 .39-.194v-9.537c0-.197-.19-.457-.39-.52m-18.65 47.866c0-2.466-1.816-4.28-4.22-4.28-3.373 0-4.8 2.53-5.06 6.875l6.1-.193c2.27 0 3.18-.715 3.18-2.4m62.213-4.406c-4.415 0-6.103 4.02-6.103 10.314 0 7.46 2.207 11.412 6.297 11.412s6.298-3.505 6.298-10.317c0-7.396-2.337-11.418-6.49-11.418" fill="#274488"/><path d="M265.455 201.455c.52-.065 2.856-.065 5.907.324 2.272.32 5.583 1.03 7.076 1.36v-2.6c-3.116-1.3-10.257-2.6-14.087-3.05-2.33-.33-5.06-.59-7.72-.78l-.52 10.18c1.37.06 2.28.06 2.28.06 1.76.13 3.51.194 5.26.39 6.75.65 12.4 1.946 14.87 2.465v-3.635c-3.83-3.176-12.66-3.436-13.18-3.436-.52 0-1.04-.13-1.04-.65s.65-.586 1.17-.65m-41.474-10.56c1.17-.26 10.128-3.506 26.487-3.506 16.295 0 26.03 3.57 27.2 4.087 1.3.584 2.467.974 3.05 0 .52-.973-.13-2.205-1.037-2.79-3.57-2.27-16.1-5.124-29.216-4.93-13.18.065-26.357 2.985-28.175 3.763-1.882.717-2.66 1.82-2.076 2.858.97 1.75 2.594.843 3.763.52m54.587 72.404c-2.27-.714-3.44-1.038-5.712-1.687-.26-.06-.39.07-.39.327-.064 4.28-.064 6.42-.064 10.25 0 .26.197.452.39.582 2.338.78 3.507 1.164 5.78 2.01.194.062.39-.068.39-.26v-10.64c0-.26-.196-.52-.39-.585m-31.46-53.325c2.986-.063 6.75 0 6.75 0l.715-13.17c-3.117-.192-8.245.068-8.245.068l.78 13.1z" fill="#274488"/><path d="M321.528 388.212c1.623 3.438-.195 6.357-3.505 7.85-.26.13-.974.453-1.234.518l2.07 4.412c.19.39.13.648-.39.908l-2.14.973c-.39.195-.72.13-.91-.324L309 388.92c-.26-.52-.13-.713.324-.973l3.44-1.557c2.467-1.168 4.415-1.492 6.103-.843 1.168.52 2.142 1.494 2.66 2.66zm59.527-62.474c-.195-.39-.26-.713 0-1.167l.91-1.42c.193-.39.453-.45.843-.19l13.372 7.33c.454.26.52.59.26.91l-1.3 2.01c-.258.52-.648.52-1.167.2l-7.14-4.086h-.066l5.453 7.59c.325.39.195.714 0 .974l-.454.714c-.195.39-.455.586-.974.52l-9.477-1.04-.065.068 7.075 4.54c.585.325.52.65.195 1.038l-1.038 1.69c-.26.455-.585.585-1.04.26l-12.463-8.433c-.46-.39-.46-.65-.26-1.04l.9-1.425c.32-.52.58-.584 1.1-.52l11.94 1.233.064-.07-6.686-9.67zm-6.037 23.225l-6.427-5.19c-.32-.324-.25-.648 0-.973l1.5-1.816c.33-.325.59-.454.98-.13l6.56 5.384c4.09 3.44 4.22 7.072 1.235 10.51-3.12 3.763-6.62 3.763-10.52.584l-6.556-5.385c-.39-.324-.26-.713 0-1.038l1.492-1.76c.326-.39.52-.46.91-.13l6.36 5.19c2.92 2.4 4.546 2.07 5.974.39 1.363-1.63 1.363-3.31-1.493-5.65zm-18.696 8.434c-.13-.39-.065-.78.325-1.168l1.168-1.11c.39-.33.65-.26.91 0l10.97 10.57c0 .06.065.06.065.06.26.323.26.65-.065.91l-1.753 1.62c-.454.453-.78.323-1.233-.196l-5.78-5.77 3.18 8.76c.19.45 0 .71-.2.905l-.65.586c-.39.324-.59.454-1.1.26l-8.9-3.504-.07.064 5.648 6.227c.454.52.26.715-.13 1.104l-1.428 1.296c-.39.39-.715.454-1.04.064l-.064-.06-9.74-11.416c-.39-.454-.324-.714 0-1.04l1.3-1.166c.39-.39.713-.39 1.17-.196l11.16 4.35.067-.066-3.83-11.094zm-7.075 23.614l.973-.64c.325-.26.65-.13.844.13l.714 1.04c.195.2.195.52-.065.72l-4.933 3.634c-.325.195-.65.13-.844-.065l-.714-1.037c-.26-.323-.195-.647.065-.842l.91-.65-6.947-9.34-1.04.78c-.323.195-.648.065-.843-.195l-.714-.972c-.195-.26-.195-.584.065-.778l5.193-3.768c.26-.195.59-.195.78.065l.78 1.037c.2.323.2.583-.13.842l-1.04.713 6.95 9.34zm-12.204 10.45c.324.52.26.59-.13.85l-2.337 1.36c-.39.26-.454.2-.78-.19l-6.62-11.03-3.765 2.21c-.39.26-.71.194-.9-.26l-.91-1.492c-.26-.39-.13-.65.26-.842l10-5.903 1.04-.65c.39-.192.59-.127.78.13v.067l.84 1.754c.2.39 0 .65-.45.91l-3.63 2.144 6.622 10.964zm-38.69.2c4.804-1.55 8.375 1.11 9.868 5.65 1.76 5.06-.19 9.21-4.48 10.64-4.54 1.49-8.17-.842-9.8-5.71-1.68-4.8-.06-9.08 4.42-10.572zm-17.786 19.4l1.168-.19c.39 0 .65.196.714.52l.19 1.23c.06.327-.13.587-.46.65l-6.04 1.04c-.33.066-.65-.13-.65-.39l-.26-1.296c-.07-.39.13-.65.45-.714l1.103-.195-1.948-11.416-1.3.193c-.39.065-.585-.195-.65-.52l-.26-1.232c0-.255.13-.515.455-.58l6.36-1.102c.326-.065.586.195.65.39l.195 1.297c.065.39-.13.65-.454.717l-1.296.193 2.01 11.42zm-19.345-7.26c.13.78 1.104 1.104 1.688 1.364l2.856 1.038c1.948.65 3.246 1.82 3.44 4.025.26 3.37-2.336 5.58-5.582 5.838-1.558.13-3.44-.065-5.063-.454-.39-.065-.52-.26-.52-.454 0-.13 0-.26.07-.39l.52-2.01c0-.196.13-.455.46-.455.07 0 .26 0 .39.065 1.24.39 2.6.52 3.77.45 1.04-.064 2.21-.713 2.14-1.88-.06-.906-.84-1.23-1.62-1.555l-3.244-1.23c-1.882-.65-3.116-2.01-3.31-4.026-.26-2.98 2.66-4.99 5.45-5.19 1.755-.13 3.248.07 4.806.59.39.13.52.26.584.52 0 .062-.068.192-.068.39l-.65 1.88c-.063.322-.192.39-.387.452-.13 0-.26-.065-.456-.065-1.04-.323-2.337-.65-3.31-.52-.974.067-2.01.52-1.95 1.62zM115.49 329.05l-7.92 4.866c-.455.26-.715.13-.975-.26l-1.168-1.88c-.325-.455-.325-.715.13-1.04l12.918-7.85c.584-.323.78-.13 1.103.26l1.04 1.687c.194.458.26.718.064 1.107l-4.414 11.03 7.984-4.868c.454-.26.78-.13.974.26l1.233 2.01c.32.52.06.713-.26.91l-12.92 7.85c-.52.322-.72.192-.98-.197l-1.04-1.75c-.26-.325-.26-.714-.13-1.103l4.35-10.965v-.065zm7.01 23.354c.194.326.064.65-.195.845l-.974.77c-.19.13-.58.13-.77-.07l-3.7-4.863c-.26-.324-.13-.65 0-.78l1.04-.777c.33-.26.65-.195.85.065l.716.91 9.283-7.137-.78-.97c-.26-.323-.13-.65.13-.84l1.04-.714c.193-.198.52-.198.713.062l3.897 5.06c.26.26.193.586 0 .78l-1.04.714c-.325.324-.65.195-.844-.065l-.844-.974-9.28 7.01.78.974zm11.814 12.198c.324.325.26.65-.065.974l-1.3 1.233c-.39.32-.72.26-1.04-.07l-6.17-6.62c-.33-.39-.39-.648.06-1.038l11.16-10.25c.322-.26.65-.26.97.063l1.623 1.752c.324.39.39.65 0 .97l-9.35 8.56 4.09 4.415zm16.423 10.38l-1.558-3.18c-.91-1.75-.85-3.566.39-5.123 1.94-2.4 5.38-1.82 7.59-.07 1.3 1.1 2.27 2.27 3.05 3.7.19.39.19.58.06.71-.07.13-.2.193-.33.26l-1.75.97c-.26.13-.46.13-.65 0-.07-.064-.13-.194-.26-.324-.46-.973-1.238-2.01-2.017-2.595-.713-.645-1.816-1.035-2.53-.19-.455.65 0 1.557.26 2.205l1.363 2.66c.91 1.816 1.04 3.57-.325 5.254-2.14 2.66-5.52 2.462-8.114.45-1.17-.973-2.464-2.4-3.31-3.762-.26-.39-.26-.584-.063-.714.066-.13.196-.193.326-.26l1.69-1.1c.26-.13.455-.26.714-.065.067.13.13.193.197.323.646 1.104 1.555 2.14 2.464 2.92.78.65 2.076 1.04 2.855.13.52-.714.26-1.49-.066-2.206zm13.048 12.845l-3.505-2.27-.714-.454-2.337 1.88c-.26.197-.59.326-.98.067l-2.27-1.492c-.2-.13-.2-.325-.13-.52l.19-.194 13.18-9.665c.32-.2.65-.26.97-.07l2.07 1.36c.456.26.52.58.456.91l-3.44 15.76c-.065.19-.065.26-.13.32-.195.26-.39.39-.714.192l-2.206-1.49c-.52-.327-.52-.65-.454-1.04l.714-2.79-.716-.52zm10.84-4.995c-.39-.26-.453-.52-.26-.91l.845-1.625c.195-.324.455-.454.844-.195l10.322 5.32 1.103.585c.39.195.45.454.26.713v.063l-1.04 1.625c-.33.39-.65.325-1.04.065l-3.77-1.88-5.97 11.29c-.26.452-.33.52-.78.322l-2.4-1.296c-.46-.2-.46-.26-.2-.72l5.97-11.35-3.9-2.01zm17.788 20.37c.324.13.39.45.324.78l-.52 1.163c-.064.26-.39.454-.713.26l-5.648-2.207c-.324-.195-.454-.52-.39-.714l.52-1.233c.13-.39.39-.45.78-.32l.973.39 4.41-10.77-1.17-.45c-.39-.19-.46-.52-.33-.78l.52-1.162c.06-.26.32-.454.64-.325l5.973 2.4c.325.13.455.39.39.715l-.52 1.165c-.194.39-.454.452-.778.322l-1.236-.455-4.35 10.77 1.107.452zm13.437-4.156l2.337 1.947c1.558 1.364 2.337 2.986 1.688 5.06-.974 3.245-4.22 4.348-7.336 3.44-1.5-.453-3.19-1.296-4.55-2.27-.33-.194-.39-.39-.33-.583 0-.13.13-.26.19-.39l1.17-1.62c.13-.26.32-.39.65-.326.06.068.19.068.32.26 1.04.716 2.208 1.365 3.376 1.75.972.26 2.335.13 2.66-.97.26-.91-.26-1.49-.91-2.01L202.46 401c-1.43-1.3-2.142-3.05-1.56-4.93.91-2.92 4.35-3.7 7.013-2.86 1.623.45 2.986 1.163 4.22 2.2.324.325.39.52.324.714 0 .064-.063.194-.19.26l-1.236 1.556c-.19.325-.32.39-.58.325-.063-.065-.193-.13-.39-.26-.78-.65-1.95-1.362-2.854-1.62-.91-.326-2.075-.26-2.4.84-.19.715.588 1.428 1.04 1.817zm33.756 1.233l-1.883 14.85c-.065.58-.39.71-.78.65l-2.01-.26c-.456-.07-.78-.26-.975-.65l-5.907-10.19h-.06l-1.17 9.145c-.06.52-.32.65-.78.583l-2.2-.26c-.52-.063-.78-.193-.65-.777l1.82-14.92c.07-.58.39-.71.91-.58l1.95.19c.52.066.716.26.91.65l5.908 10.25h.064l1.17-9.212c.06-.52.32-.65.776-.585l2.334.26c.584.067.584.456.584.845zm176.178-85.38c-12.918 32.37-34.924 60.07-63.616 80.05-26.745 18.62-58.034 29.513-90.556 31.46-.195 0-.325.062-.455.192L250.707 437l-10.452-10.38c-.13-.13-.26-.196-.455-.196-32.457-1.946-63.81-12.845-90.556-31.464-28.627-19.98-50.698-47.682-63.616-80.053l-1.04-2.53 39.6-15.18c1.038-.455 2.14-.066 2.726.843l.065.064c.25.39.77 1.168 1.55 1.882.32 1.038.65 2.076 1.04 3.05-2.08-.78-3.57-2.726-4.16-3.57l-.13-.26c-.07-.064-.2-.128-.33-.128h-.13l-2.79 1.102-1.235.52.194.518c.13.26.197.52.26.65 1.17 2.918 2.47 5.708 3.767 8.497.26.39.455.844.65 1.233l1.234-.454 5.196-1.88c.325.647.65 1.23.91 1.815l-5.13 1.88-1.297.45c.192.39.39.78.646 1.16 10.45 19.72 25.385 36.65 43.886 49.63 21.035 14.59 45.378 22.96 70.954 24.58l2.21 2.14c-26.81-1.165-52.45-9.794-74.33-25.104-22.912-15.96-40.504-38.014-50.825-63.833l-.26-.585-31.546 12.13.26.583c12.784 32.045 34.53 59.42 62.9 79.21 26.68 18.55 57.97 29.32 90.49 31.07l9.282 9.21.452.457 9.735-9.668c32.52-1.75 63.81-12.52 90.49-31.076 28.37-19.784 50.18-47.16 62.97-79.21l.19-.582-31.55-12.13-.195.584c-10.387 25.82-27.98 47.874-50.894 63.833-21.94 15.31-47.52 23.94-74.327 25.105l2.203-2.14c25.577-1.62 49.92-9.99 70.953-24.59 18.5-12.974 33.496-29.906 43.88-49.63.26-.39.456-.776.65-1.165l-1.3-.455-5.125-1.88c.26-.584.584-1.17.843-1.816l5.26 1.88 1.233.454c.194-.39.453-.84.65-1.23 1.296-2.79 2.595-5.58 3.763-8.5.064-.13.194-.39.26-.65l.26-.52-1.3-.52-2.79-1.1h-.196c-.06 0-.19.064-.26.13l-.124.26c-.584.843-2.077 2.79-4.154 3.633.323-1.037.71-2.075 1.04-3.113.71-.65 1.295-1.49 1.555-1.88l.062-.065c.582-.91 1.685-1.298 2.724-.844l39.597 15.18-1.04 2.53zM102.57 296.61l-.324-.52-11.75 5.256c-.714.26-1.428 0-1.752-.65-.26-.323-1.104-1.62-1.753-3.307-.64-1.76-1.29-4.29-.64-6.56.52-1.82 1.82-3.25 3.77-4.09l28.82-13.17c.07 0 .13-.07.2-.07.52-.26 1.493-.586 2.596-.586.78 0 1.625.194 2.534.52.062.842.062 1.555.13 2.334-.91-.52-1.82-.843-2.73-.843-.585 0-1.17.13-1.69.39l-.194.063c-1.3.65-2.206 2.14-2.596 4.155-.39 2.27 0 4.93 1.17 7.524l.192.52c.26.65-.063 1.36-.712 1.685l-13.695 6.035.452.65c1.62 2.27 2.466 4.476 2.985 6.163l-1.95.778c-.454-1.682-1.363-4.02-3.05-6.29zm138.074 90.758c-24.797-1.816-48.36-10.12-68.744-24.327-18.242-12.71-33.042-29.45-43.428-48.91l5.193-1.81c.13.33.324.59.454.91 1.16 2.08 2.4 4.15 3.76 6.1.13.2.32.458.58.78l.06.198c23.17 34.64 57.19 56.244 95.94 60.85l6.167 6.228zm10.84 26.47c.39 0 .585.258.585.582v1.298c0 .26-.2.52-.52.52l-6.17-.066c-.39 0-.59-.26-.59-.52v-1.296c0-.455.26-.584.58-.584h1.17l.13-11.613-1.24-.07c-.39 0-.583-.26-.583-.59v-1.24c0-.323.193-.583.52-.583l6.425.13c.39 0 .582.26.582.52v1.296c0 .39-.26.582-.585.582h-1.3l-.195 11.61h1.166zM367.748 312.31l5.194 1.816c-10.32 19.462-25.12 36.2-43.427 48.915-20.384 14.21-43.948 22.52-68.745 24.33l6.167-6.23c38.754-4.6 72.77-26.2 95.88-60.85l.13-.19c.193-.32.388-.58.583-.84 1.298-1.88 2.597-3.95 3.7-6.03.195-.32.39-.58.52-.9zM126.46 262.552c.13-2.4.324-4.8.648-7.266 1.558-14.402 4.934-24.847 6.297-28.674l.454-1.298c5.71-15.894 10.19-28.48 10.06-43.724-.07-11.872-14.54-28.22-20.13-33.54l-3.44-3.243 3.5-3.18 46.87-42.75 2.85 1.88c10.128 6.618 23.11 10.315 36.678 10.315 14.15 0 27.653-4.022 37.91-11.158l2.53-1.75 2.533 1.75c10.26 7.136 23.697 11.158 37.91 11.158 13.505 0 26.55-3.697 36.615-10.315l2.854-1.88 50.44 45.93-3.443 3.308c-5.58 5.255-20.06 21.603-20.124 33.475-.13 15.245 4.35 27.83 10.062 43.724l.453 1.298c1.364 3.827 4.74 14.272 6.3 28.674.26 2.465.52 4.865.65 7.266.063 2.27.193 4.606.193 6.81.063 16.61-3.18 31.076-9.675 42.883-1.105 2.01-2.34 4.022-3.637 5.838-.13.26-.32.52-.58.91l-.13.128c-22.85 34.26-56.476 55.6-94.775 60.08h-.324l-15.32 15.31-15.32-15.31h-.323c-38.3-4.47-71.99-25.82-94.84-60.07l-.068-.13c-.26-.39-.458-.65-.588-.84-1.3-1.88-2.533-3.89-3.636-5.9-6.493-11.803-9.74-26.27-9.674-42.88 0-2.203.063-4.54.193-6.81zm250.635 10.963c.974-.39 1.883-.583 2.597-.583 1.103 0 2.012.324 2.596.583.065 0 .13.065.195.065l28.822 13.17c1.948.843 3.246 2.27 3.765 4.087.714 2.27 0 4.8-.65 6.552-.648 1.68-1.492 2.98-1.752 3.3-.324.65-1.103.91-1.687.65l-11.81-5.26-.32.52c-1.69 2.27-2.59 4.6-3.05 6.29l-1.88-.78c.46-1.69 1.3-3.89 2.92-6.16l.46-.65-13.696-6.03c-.65-.33-.974-1.04-.714-1.69l.193-.52c1.17-2.598 1.555-5.258 1.17-7.528-.33-2.013-1.3-3.506-2.6-4.154l-.13-.065c-.586-.26-1.17-.39-1.754-.39-.91 0-1.82.324-2.728.91.067-.846.067-1.56.067-2.338zm41.22 38.21c-.064-.13-.194-.26-.324-.324l-20.9-8.04c.39-1.42 1.11-3.5 2.53-5.58l10.78 4.8c.39.13.72.2 1.11.2.98 0 1.89-.52 2.41-1.36.26-.45 1.103-1.75 1.817-3.56 1.038-2.79 1.298-5.254.65-7.395-.65-2.204-2.21-3.89-4.545-4.93l-28.76-13.103c0-.065-.063-.13-.192-.13-1.104-.52-3.18-1.103-5.713-.26v-2.66c0-2.27-.067-4.606-.197-6.94-.13-2.4-.325-4.866-.585-7.332-1.686-14.594-5.06-25.233-6.49-29.126l-.454-1.295c-5.582-15.764-10.062-28.22-9.932-43.01.068-11.223 14.09-26.99 19.478-32.113l5.065-4.8-53.163-48.4-4.22 2.727c-9.735 6.423-22.33 9.926-35.506 9.926-13.76 0-26.874-3.822-36.74-10.77l-3.7-2.59-3.7 2.596c-9.93 6.94-22.98 10.77-36.74 10.77-13.18 0-25.77-3.505-35.51-9.927l-4.22-2.725-48.038 43.72-5.13 4.67 5 4.8c5.39 5.127 19.41 20.89 19.54 32.115.068 14.79-4.35 27.248-9.994 43.01l-.454 1.3c-1.362 3.893-4.802 14.53-6.425 29.128-.26 2.47-.454 4.934-.584 7.334-.13 2.335-.26 4.67-.26 6.94 0 .91 0 1.753.07 2.66-2.53-.842-4.61-.26-5.645.26h-.066c-.063 0-.13.066-.193.13L89.6 285.53c-2.34 1.04-3.897 2.727-4.546 4.93-.65 2.14-.39 4.608.65 7.398.713 1.816 1.557 3.114 1.88 3.568.456.844 1.364 1.363 2.338 1.363.39 0 .714-.07 1.104-.2l10.776-4.8c1.428 2.074 2.142 4.15 2.596 5.58l-20.908 8.04c-.195.065-.325.195-.39.325-.065.2-.065.39 0 .52l1.234 3.18c13.046 32.63 35.247 60.53 64.134 80.64 26.876 18.75 58.36 29.713 91.01 31.66l10.778 10.704c.13.065.26.195.454.195s.39-.13.454-.196l10.775-10.704c32.65-1.943 64.13-12.91 91.01-31.66 28.89-20.11 51.09-48 64.14-80.632l1.23-3.18c.06-.13.06-.324 0-.518z" fill="#274488"/><path d="M241.768 345.512c1.428-.843 2.92-1.88 2.92-3.892 0-1.752-1.297-3.114-3.115-3.114-1.753 0-3.116 1.297-3.116 3.05 0 1.88 1.493 2.918 3.31 3.956m97.866-182.314c-1.688 1.038-3.44 1.428-4.674 1.168.39-1.362 1.55-2.854 3.24-3.957 1.62-1.04 3.44-1.43 4.67-1.17-.39 1.42-1.56 2.92-3.25 3.95zm-3.31 6.098c-1.623 1.103-3.376 1.493-4.674 1.168.38-1.362 1.55-2.854 3.24-3.892 1.69-1.103 3.44-1.492 4.74-1.168-.46 1.362-1.63 2.854-3.31 3.892zm-3.18 5.385c-1.884.39-3.702.07-4.805-.71.78-1.1 2.402-2.07 4.284-2.46 1.883-.39 3.636-.06 4.74.72-.78 1.106-2.338 2.08-4.22 2.468zm-1.493 147.01c-1.758 0-3.51.07-4.48.07.52-2.92.71-6.29.71-10.25v-4.73c0-3.113-.26-6.81-4.74-6.81-1.557 0-3.115.65-4.35 1.82-1.36 1.36-1.75 2.53-1.75 5.902v3.83c0 4.99.323 7.976 1.102 10.25-.844 0-2.596-.07-4.284-.07-1.818 0-3.505.067-4.414.067.454-2.92.65-6.294.65-10.25v-6.62c0-2.66-.26-6.62-1.17-9.474 2.402 0 5.713 0 8.05-.195l-.195 4.67 2.2-1.88c2.66-2.202 4.8-3.18 7.53-3.18 6.23 0 8.37 3.57 8.37 9.67v7.01c0 4.994.32 7.978 1.1 10.25-.91 0-2.66-.066-4.35-.066zm-38.69.91c-8.38 0-13.31-4.86-13.31-13.3 0-8.3 5.06-14.4 14.54-14.4 8.44 0 13.24 4.8 13.24 13.04 0 9.02-5.646 14.66-14.475 14.66zm-13.896-26.73c-.195.78-.78 2.99-1.104 3.9-2.076-.19-3.31-.26-4.74-.26h-2.4c-.064 1.82-.13 3.96-.13 5.52v6.098c0 4.09.455 7.138 4.025 7.138 1.104 0 2.013-.26 3.44-.974.26-.13.78-.13.585.646-.324 1.17-.65 2.27-.973 3.634-3.246.843-4.61 1.04-6.297 1.04-4.673 0-7.66-1.95-7.66-8.566v-8.24c0-2.595 0-4.54-.064-6.357-1.428 0-2.986.192-3.7.322-.13 0-.52 0-.325-.582 0-.195.72-2.66.98-3.503.65.065 1.95.13 3.25.13 0-2.14-.13-3.244-.19-4.866 1.88-.59 5.326-2.14 6.82-3.05.583-.39.843.13.78.71-.067.647-.457 2.4-.52 7.2h3.763c1.3 0 2.725-.065 4.09-.39.26-.065.52.065.39.454zm-10.58 62.54c-3.572 0-6.04-2.14-6.04-5.25 0-2.66 1.624-4.15 4.35-5.71-1.687-1.03-3.375-2.4-3.375-4.93 0-2.92 2.53-5.25 5.78-5.25 3.11 0 5.45 2.01 5.45 4.738 0 2.53-1.75 3.828-3.64 4.866 2.27 1.297 4.28 2.854 4.28 5.644 0 3.433-2.86 5.9-6.818 5.9zm-14.737-.71l-.065.13h-.13s-2.337 0-3.7.13h-.065l-.26-.52 10-17.06h-6.297c-.973 0-2.207.13-3.245.91l-.13.068-.454-.26.07-.13c.33-.906.59-2.463.72-3.047v-.13h11.88l.198-.064v.194c0 .26.194 1.553.26 1.813l.064.065-.067.063c-1.56 1.75-3.376 4.995-5 7.85-2.596 4.74-3.57 7.33-3.764 9.99zm-4.48-35.94c-.843 0-2.596-.06-4.22-.06-1.687 0-3.374.068-4.413.068.52-3.05.65-5.71.65-9.54v-6.486c0-2.53-.196-7.2-1.104-10.056 2.013 0 5.194-.065 7.336-.195l-.067 6.165 1.95-2.53c2.4-3.244 4.09-4.217 6.62-4.217.91 0 1.36.065 2.34.52-.78 2.724-1.56 5.58-2.02 7.265-.13.326-.46.845-.91.26-1.04-1.102-1.24-1.556-2.47-1.556-1.56 0-2.79.84-3.7 2.334-.78 1.236-1.04 2.27-1.04 4.8v4.35c0 4.67.26 6.618 1.04 8.89zm-8.373 36.27c-3.57 0-6.037-2.204-6.037-5.254 0-2.66 1.69-4.15 4.35-5.773-1.687-.972-3.375-2.4-3.375-4.865 0-2.984 2.532-5.255 5.843-5.255 3.116 0 5.388 2.01 5.388 4.734 0 2.53-1.753 3.825-3.636 4.863 2.27 1.23 4.284 2.79 4.284 5.58 0 3.435-2.85 5.965-6.81 5.965zm-8.83-.52c-.323-.063-.972-.13-1.622-.13-.52 0-1.038.067-1.687.13h-.26l.063-.192c.26-1.62.324-3.243.324-5.06v-9.212c0-2.592-.194-2.852-1.038-2.852-.196 0-.585.067-1.04.13l-1.428.326c-.455.13-.715.193-1.04.39h-.064l-.39-.327.064-.13c.195-.39.454-1.04.584-1.623l.064-.13h.065c.78-.063 1.29-.13 2.14-.323l3.05-.646c.58-.13 1.23-.26 1.75-.454h.06l.39.325-.07.06c-.26 1.75-.324 3.7-.324 4.8v9.99c0 2.014.196 3.636.52 4.674l.065.26h-.194zm-17.59-48.523c0-8.306 5.258-14.015 12.853-14.015 6.623 0 10.71 3.894 10.71 10.25 0 .52 0 2.856-.97 2.856h-6.75c-2.794 0-6.69.066-8.44.13.13 6.358 3.504 9.99 9.217 9.99 2.272 0 3.635-.52 5.517-1.75.46-.325.98-.066.72.778-.52 1.88-.65 2.337-1.1 3.894-2.4.845-5.52 1.623-8.31 1.623-8.24 0-13.432-5.58-13.432-13.754zm-7.985 7.33c-.78 1.88-1.17 3.307-1.63 5.45-.59-.067-1.82-.067-3.05-.067-1.04 0-2.41.064-3.38.064-.39-2.334-.85-3.762-1.628-6.162L193.3 304.9c-1.102-3.243-2.336-6.746-4.673-9.47 3.505.13 6.23 0 9.61-.26.256 2.596.776 5.126 1.555 7.59l1.943 6.75c.52 1.62 1.56 5.19 1.56 5.19.324-1.17.78-2.338 1.17-3.31l3.05-7.98c.52-1.427 1.232-3.568 1.427-5.71 0-.713.067-1.426 0-2.335.78.065 2.144.065 3.31.065 1.04 0 2.794-.13 3.57-.26.78-.063.65.39.39.65-1.816 2.336-3.31 5.515-4.672 8.76l-5.06 11.74zm-15.97-.066c-.39 1.295-1.5 5.38-1.63 5.77-5.97-.26-9.93-.26-13.44-.26h-9.674c.39-2.79.714-6.032.714-10.054v-16.68c0-2.725-.13-7.85-1.037-10.25 1.75.13 3.05.13 4.35.13h9.993c3.57 0 5-.13 8.894-.13-.712 2.53-1.426 5.19-1.75 6.23-.26 1.036-.844.257-.91.13-1.622-2.403-4.87-2.66-7.854-2.66-.974 0-2.077.063-3.44.063-.065.907-.195 3.437-.195 5.773v5.384h4.418c3.25 0 6.49-.26 7.79-.452.52 0 .39.39.39.39-.39 1.49-.91 3.375-1.23 4.607-3.44-.323-5.258-.39-7.66-.39h-3.765v7.527c0 4.86.52 6.48 6.363 6.48 3.242 0 5.06 0 8.63-2.66.584-.52 1.363-.26 1.04 1.04zm-26.49-144.03c1.1-.78 2.92-1.103 4.8-.714 1.882.39 3.44 1.364 4.284 2.467-1.17.78-2.92 1.104-4.804.715-1.882-.387-3.44-1.36-4.283-2.463zm-2.21-6.81c1.3-.326 3.05.063 4.672 1.166 1.687 1.04 2.856 2.53 3.245 3.894-1.23.32-2.99-.07-4.68-1.17-1.624-1.04-2.857-2.53-3.246-3.9zm-3.31-6.165c1.296-.258 3.05.13 4.74 1.17 1.684 1.102 2.853 2.594 3.242 3.956-1.3.26-3.05-.13-4.74-1.17-1.622-1.035-2.79-2.53-3.245-3.954zm.78-14.595c1.23.52 2.53 1.88 3.44 3.76.91 1.88 1.23 3.82.91 5.25-1.237-.52-2.536-1.88-3.44-3.768-.91-1.88-1.238-3.83-.91-5.255zm3.7-5c.97.9 1.88 2.66 2.204 4.73.325 2.14 0 4.084-.65 5.32-1.038-.91-1.88-2.66-2.206-4.74-.325-2.14-.065-4.087.65-5.32zm1.944-1.17c.065-2.21.78-4.02 1.69-5.06.78 1.17 1.3 3.05 1.17 5.25-.13 2.073-.78 3.89-1.69 4.93-.78-1.105-1.3-3.05-1.17-5.127zm2.143 16.93c.97.91 1.81 2.66 2.14 4.73.32 2.14.06 4.087-.65 5.32-1.04-.91-1.88-2.66-2.21-4.8-.26-2.077 0-4.023.71-5.255zm-1.95 5.06c-1.3-.26-2.86-1.3-4.09-2.92-1.23-1.69-1.88-3.507-1.82-4.93 1.3.19 2.853 1.23 4.022 2.85 1.23 1.686 1.88 3.503 1.88 4.995zm-.85-5c-.19-1.298.13-2.985 1.04-4.607.91-1.62 2.14-2.79 3.247-3.176.26 1.297-.13 3.05-1.04 4.67-.844 1.622-2.14 2.79-3.246 3.114zm4.09-12.26c1.3-1.17 2.79-1.818 3.96-1.753-.193 1.297-1.04 2.79-2.4 4.022-1.3 1.164-2.79 1.812-3.96 1.75.195-1.3 1.04-2.79 2.4-4.02zm1.755-6.878c1.104-1.75 2.532-2.92 3.766-3.31.196 1.492-.323 3.44-1.426 5.125-1.04 1.815-2.53 2.982-3.764 3.31-.13-1.43.324-3.377 1.43-5.128zm3.766 36.72c-1.23-.52-2.465-1.884-3.374-3.766-.91-1.88-1.104-3.89-.78-5.254 1.17.52 2.467 1.88 3.376 3.765.844 1.947 1.103 3.893.78 5.255zm4.156 3.306c-.91 1.1-2.53 1.944-4.415 2.203-1.947.26-3.7-.193-4.74-1.04.845-1.035 2.533-1.88 4.415-2.14 1.884-.26 3.637.13 4.74.976zm1.687-3.506c1.56 1.234 2.665 2.79 2.99 4.153-1.3.26-2.986-.26-4.61-1.49-1.62-1.1-2.725-2.724-3.05-4.15 1.3-.194 2.986.325 4.674 1.492zm3.7 5.126c.068 0 .068.064.068.064.52.26 1.04.456 1.557.716 0 0 .587-.39 1.69-.78 1.104-.456 2.597-.585 4.155-.13 1.885.452 3.378 1.49 4.157 2.66-1.107.71-2.86.906-4.807.452-1.75-.453-3.248-1.427-4.027-2.53-.26.195-.455.39-.715.584 2.014 1.233 3.637 2.79 5.26 4.866-.65.972-.91 1.49-1.56 2.464-1.232-2.725-2.465-4.93-4.153-6.812-1.75 1.882-3.243 4.152-4.41 6.812-.65-.973-.975-1.427-1.56-2.4 1.56-2.076 3.375-3.698 5.453-4.93-.196-.195-.456-.39-.65-.65-.844 1.168-2.27 2.142-4.09 2.596-1.883.454-3.7.26-4.804-.454.712-1.17 2.27-2.21 4.153-2.66 1.623-.458 3.116-.33 4.22.13h.064zm6.82-5.126c1.623-1.165 3.31-1.684 4.61-1.49-.325 1.43-1.43 3.05-2.987 4.153-1.62 1.234-3.373 1.753-4.61 1.493.26-1.36 1.366-2.92 2.99-4.15zm6.427 2.53c1.883.26 3.506 1.105 4.415 2.14-1.1.847-2.854 1.3-4.8 1.04-1.88-.26-3.51-1.102-4.35-2.204 1.04-.847 2.79-1.236 4.74-.976zm.196-7.59c.91-1.88 2.142-3.24 3.375-3.76.323 1.363.063 3.374-.846 5.255-.845 1.88-2.143 3.242-3.376 3.76-.26-1.36-.066-3.31.843-5.25zm-.844-34.77c1.3.39 2.722 1.558 3.83 3.31 1.04 1.75 1.56 3.698 1.36 5.125-1.236-.327-2.664-1.49-3.767-3.31-1.104-1.688-1.56-3.63-1.43-5.126zm7.98 14.208c-1.167.068-2.66-.58-4.024-1.75-1.364-1.23-2.208-2.723-2.4-4.02 1.166-.065 2.66.584 4.022 1.75 1.364 1.234 2.21 2.726 2.403 4.023zm-.713-13.82c.973 1.04 1.62 2.86 1.69 5.066.193 2.076-.327 4.02-1.106 5.125-.91-1.04-1.62-2.854-1.75-4.93-.063-2.21.39-4.09 1.17-5.255zm3.7 6.23c.713 1.236.973 3.18.65 5.32-.326 2.08-1.235 3.83-2.21 4.74-.713-1.233-.972-3.18-.65-5.32.327-2.076 1.17-3.827 2.21-4.736zm3.634 5c.33 1.427.07 3.373-.84 5.254-.91 1.88-2.27 3.244-3.44 3.763-.324-1.43-.064-3.376.845-5.258.91-1.88 2.208-3.244 3.44-3.76zm-7.14 19.72c.39-1.36 1.56-2.853 3.25-3.956 1.69-1.04 3.377-1.427 4.675-1.17-.39 1.43-1.556 2.92-3.243 3.96-1.686 1.037-3.44 1.427-4.67 1.167zm-.58-8.95c.65 1.23.975 3.177.65 5.253-.324 2.14-1.17 3.894-2.206 4.8-.65-1.23-.972-3.18-.65-5.32.327-2.074 1.17-3.825 2.21-4.733zm3.767.063c1.232-1.62 2.725-2.66 4.023-2.853.065 1.43-.584 3.247-1.817 4.93-1.236 1.625-2.73 2.66-4.027 2.92 0-1.49.584-3.31 1.82-4.993zm-.975 0c-1.17-.323-2.4-1.49-3.31-3.113-.91-1.62-1.233-3.37-1.04-4.67 1.105.39 2.34 1.56 3.247 3.18.91 1.62 1.3 3.31 1.1 4.607zm.196 16.74c-.78 1.102-2.337 2.075-4.285 2.464-1.88.39-3.632.063-4.735-.716.78-1.102 2.337-2.075 4.285-2.464 1.88-.39 3.63-.065 4.74.714zm-1.04-2.92c-1.62 1.102-3.44 1.492-4.673 1.167.39-1.36 1.56-2.85 3.247-3.89 1.684-1.102 3.44-1.49 4.67-1.17-.39 1.365-1.558 2.857-3.246 3.895zm16.165 15.05l26.618-56.505c-.976-2.14.647-4.8 2.724-4.8 2.08 0 4.03 2.66 3.05 4.732l26.81 56.18c4.55 2.206 6.56 4.995 6.3 6.876-.19 2.01-1.62 3.245-3.31 3.894.13 10.184-.32 46.32-.193 66.95 2.27.517 2.27 2.917 2.078 10.7-.13 7.46.52 9.99-4.413 9.99-.65 0-1.95-.062-1.95-.062v-2.53c-.065-1.298-.065-1.687-.78-1.946-2.076-.844-4.283-1.557-6.685-2.53-1.686-.584-52.45-18.75-52.45-18.75s-2.336-.648-2.336-2.918c0-.197-.066-2.14-.066-2.79v-7.268c0-1.88 1.235-2.53 2.34-2.4.065 0 .065-.195.065-.325-.065-6.68-.13-41.65-.13-45.35-2.337-.71-2.986-2.33-2.986-2.33-1.104-2.4.065-6.032 5.323-8.822zm73.68-23.938c1.624 1.1 2.857 2.593 3.247 3.955-1.298.26-3.05-.13-4.674-1.17-1.687-1.04-2.92-2.53-3.31-3.955 1.3-.257 3.05.13 4.74 1.17zm-3.96-15.766c1.235.52 2.53 1.88 3.44 3.763.91 1.88 1.235 3.828.91 5.255-1.233-.52-2.53-1.88-3.44-3.77-.91-1.882-1.233-3.83-.91-5.255zm3.7-4.995c1.04.91 1.884 2.66 2.21 4.735.32 2.14.06 4.09-.65 5.32-1.04-.91-1.885-2.66-2.21-4.73-.324-2.14-.065-4.09.65-5.32zm1.95-1.168c.13-2.208.78-4.025 1.685-5.06.845 1.165 1.3 3.046 1.17 5.252-.13 2.08-.78 3.896-1.688 4.93-.843-1.1-1.297-3.045-1.167-5.12zm3.37 4.733c1.368-1.165 2.86-1.814 4.09-1.75-.26 1.298-1.1 2.79-2.4 4.02-1.36 1.17-2.92 1.82-4.09 1.754.198-1.3 1.107-2.79 2.405-4.025zm1.82-6.874c1.107-1.75 2.535-2.92 3.768-3.306.195 1.49-.324 3.437-1.363 5.124-1.17 1.818-2.534 2.985-3.83 3.31-.13-1.427.322-3.374 1.426-5.125zm3.768 36.72c-1.233-.52-2.532-1.88-3.375-3.762-.91-1.88-1.17-3.89-.842-5.253 1.23.52 2.53 1.88 3.374 3.76.91 1.95 1.17 3.9.843 5.26zm-5.063-1.556c1.88.39 3.44 1.36 4.22 2.464-1.106.78-2.86 1.104-4.74.715-1.884-.39-3.44-1.36-4.286-2.468 1.17-.78 2.92-1.103 4.806-.714zm.97-1.04c-1.3.326-3.05-.064-4.74-1.167-1.69-1.037-2.86-2.53-3.25-3.89 1.3-.324 3.05.065 4.68 1.17 1.687 1.036 2.855 2.53 3.31 3.89zm-2.726-15.05c1.04.91 1.885 2.66 2.14 4.736.33 2.14.07 4.085-.65 5.32-1.034-.91-1.88-2.66-2.14-4.803-.322-2.076-.062-4.022.65-5.254zm-2.01 5.06c-1.235-.26-2.793-1.297-4.026-2.92-1.232-1.685-1.882-3.502-1.817-4.93 1.3.196 2.794 1.234 4.027 2.855 1.23 1.685 1.88 3.502 1.815 4.994zm-.78-4.995c-.195-1.3.13-2.986 1.04-4.608.907-1.62 2.14-2.79 3.31-3.18.194 1.3-.196 3.05-1.105 4.67-.91 1.623-2.144 2.79-3.247 3.115zm13.697 20.89c-.843 1.1-2.466 1.944-4.35 2.203-1.946.26-3.634-.194-4.74-1.038.91-1.04 2.468-1.88 4.416-2.14 1.886-.26 3.64.13 4.678.97zm1.75-3.506c1.56 1.23 2.66 2.79 2.99 4.15-1.3.26-2.987-.26-4.61-1.49-1.62-1.1-2.726-2.725-3.05-4.15 1.3-.197 3.05.322 4.673 1.49zm5.196 5.9c.458-.26.977-.456 1.497-.716.065 0 .065-.063.13-.063 1.168-.45 2.66-.58 4.22-.13 1.88.46 3.44 1.497 4.218 2.66-1.166.718-2.984.91-4.8.46-1.82-.45-3.31-1.425-4.09-2.59-.26.26-.45.45-.71.645 2.14 1.233 3.96 2.855 5.516 4.93-.65.974-.91 1.428-1.56 2.4-1.17-2.66-2.663-4.93-4.415-6.81-1.69 1.88-2.987 4.086-4.22 6.81-.585-.972-.91-1.49-1.494-2.464 1.56-2.074 3.184-3.63 5.196-4.864-.197-.193-.457-.39-.65-.582-.846 1.1-2.27 2.075-4.09 2.53-1.885.453-3.638.26-4.806-.455.78-1.17 2.27-2.207 4.153-2.66 1.553-.455 3.05-.326 4.22.13 1.033.39 1.683.78 1.683.78zm5.327-5.906c1.62-1.165 3.31-1.684 4.61-1.49-.326 1.428-1.43 3.05-2.99 4.15-1.622 1.235-3.375 1.754-4.673 1.494.324-1.365 1.43-2.92 3.05-4.155zm6.426 2.53c1.884.26 3.51 1.105 4.35 2.14-1.04.847-2.79 1.3-4.67 1.04-1.95-.26-3.575-1.102-4.42-2.204 1.04-.84 2.79-1.23 4.74-.97zm.196-7.59c.91-1.88 2.142-3.24 3.375-3.76.328 1.36.068 3.373-.775 5.254-.91 1.88-2.21 3.24-3.376 3.76-.39-1.36-.13-3.31.776-5.254zm-.844-34.77c1.3.39 2.726 1.557 3.83 3.31 1.104 1.75 1.56 3.697 1.43 5.124-1.3-.328-2.728-1.495-3.83-3.31-1.105-1.69-1.56-3.635-1.43-5.127zm7.985 14.207c-1.17.07-2.665-.58-4.03-1.75-1.36-1.23-2.206-2.722-2.4-4.02 1.17-.064 2.66.585 4.025 1.75 1.363 1.235 2.207 2.727 2.402 4.024zm-.65-13.82c.906 1.04 1.555 2.86 1.685 5.067.064 2.072-.39 4.02-1.17 5.12-.975-1.04-1.624-2.855-1.69-4.93-.13-2.207.326-4.09 1.17-5.256zm3.633 6.23c.65 1.237.974 3.18.65 5.32-.325 2.08-1.234 3.83-2.207 4.74-.716-1.23-.976-3.18-.65-5.32.323-2.075 1.17-3.826 2.206-4.735zm-.324 15.83c1.23-1.62 2.723-2.66 4.022-2.85.067 1.43-.582 3.247-1.82 4.93-1.23 1.625-2.722 2.66-4.02 2.92-.06-1.49.587-3.31 1.82-4.993zm-3.12 5.19c-.322 2.14-1.166 3.896-2.205 4.8-.65-1.23-.97-3.18-.65-5.32.328-2.072 1.17-3.823 2.21-4.73.65 1.235.975 3.18.65 5.257zm-1.166-8.3c-.91-1.62-1.234-3.37-1.04-4.67 1.105.39 2.34 1.56 3.247 3.18.91 1.62 1.3 3.31 1.04 4.607-1.1-.323-2.335-1.49-3.243-3.113zm8.244-7.72c.323 1.43.064 3.377-.91 5.26-.91 1.88-2.207 3.24-3.376 3.76-.322-1.427-.062-3.373.846-5.255.907-1.88 2.205-3.243 3.44-3.762zm32.456.2l-44.337-40.35c-10.45 6.81-24.085 10.96-39.08 10.96-15.645 0-29.86-4.54-40.44-11.937-10.58 7.4-24.8 11.94-40.444 11.94-14.993 0-28.625-4.15-39.012-10.962l-44.403 40.35s21.427 20.31 21.557 36.72c.067 16.48-4.802 29.778-10.84 46.58-2.21 6.29-4.802 16.22-6.04 27.7-.26 2.207-.52 4.608-.65 7.008-.13 2.14-.13 4.345-.19 6.55-.06 13.623 2.274 28.154 9.155 40.74 1.04 1.88 2.143 3.697 3.376 5.45 3.57 5.124 32.587 53.13 94.19 59.423l.26.19 13.048 13.04 13.114-13.04.194-.192c61.605-6.294 90.62-54.3 94.192-59.425 1.23-1.75 2.4-3.567 3.372-5.45 6.88-12.584 9.218-27.115 9.153-40.74 0-2.205-.062-4.41-.19-6.55-.13-2.4-.39-4.8-.585-7.006-1.297-11.488-3.83-21.41-6.1-27.7-5.973-16.81-10.906-30.108-10.777-46.58.063-16.418 21.485-36.72 21.485-36.72zm-105.21 201.08c1.43-.842 2.92-1.88 2.92-3.89 0-1.753-1.296-3.115-3.114-3.115-1.753 0-3.05 1.297-3.05 3.05 0 1.88 1.427 2.918 3.245 3.956" fill="#274488"/><path d="M268.487 348.406c-2.402 1.167-3.57 2.724-3.57 4.606 0 2.076 1.557 3.633 3.765 3.633 2.207 0 3.894-1.557 3.894-3.633 0-2.01-1.363-3.114-4.09-4.606m-27.576-.402c-2.4 1.167-3.57 2.724-3.57 4.606 0 2.076 1.558 3.633 3.766 3.633 2.207 0 3.894-1.622 3.894-3.633 0-2.01-1.363-3.114-4.09-4.606" fill="#274488"/></g></svg>