<svg width="512" height="512" viewBox="0 0 512 512" xmlns="http://www.w3.org/2000/svg"><title>manchester-city</title><g fill="none" fill-rule="evenodd"><path d="M227.792 193.88c.03-1.194-.558-1.975.248-3.094.162-.383 1.22-.533 1.838.03.5.706 1.177 1.385 1.514 1.975.867.18 1.632-.69 2.4-.854.854-.856 2.542-.943 3.662-.676 2.898.675 5.52 2.12 7.314 4.243-2.53-.886-3.678-.988-6.15-1.15l-1.943-.12-8.918-.09c-.53.03-3.338.178-3.338.178-4.695-.337-10.46.355-14.05-2.992l-.588.518c.09 1.958 1.957 3.242 3.56 4.098.354.676 1.71.676 2.31 1.356 3.753 1.103 8.124 1.298 11.697 1.208 0 0 1.735.176 2.383.323 1.297.607 3.71.18 5.15.53 3.004 0 5.56.84 8.447 1.18l.177.09c-1.544.444-3.827.09-5.282.354-3.074.677-6.136-.53-8.518-1.975 0 0-1.514-.384-2.073-.046-.042.338-.367.75-.308 1.074.248 1.284.926 2.036 1.71 2.802 0 1.03 1.53 1.193 1.94 1.795 1.208.428 2.06 1.622 3.59 1.355 1.353 1.03 2.972.515 4.502.767 1.443.706 3.504.78 5.297.87.325.25 1.62.25 2.205.43v.163c.854.34 2.387-.25 2.65.958.84 1.443-.675 2.888-1.455 3.918-2.56.93-5.106 0-7.254 1.607-1.764.78-3.147 2.05-4.674 3.257-1.71 1.694 1.207 1.445 1.63 2.478-1.708.736-3.75 1.446-5.457 2.622-1.797 1.975-4.09 3.42-4.34 6.396.19.383.897.72 1.235.928l54.686.03c-.074-.31-.164-.59-.24-.87 1.03.175 1.71.502 2.726.502.105-.503.926-.84.6-1.446h.087l.177-3.993.157-.194c-.158-1.694-.424-3.652-.923-5.364-.263-1.8-1.03-2.893-1.294-4.6 1.03.764 2.47.25 3.325.84 1.118-.49.502-1.87.927-2.964 0-.267-.487-.267-.162-.62-.086-3.316-1.102-6.644-2.208-9.637-.442-1.004-1.53-1.624-1.62-2.638l1.797-.428c.054-.5-.355-1.033 0-1.446-.445-.857-.624-2.063-.958-2.83-.162-1.607-1.103-2.8-1.354-4.333-1.282-1.105-1.796-3.42-3.577-4.098l.428-.354c2.044-.59 2.898-2.125 4.162-3.478 1.294-2.062 2.81-4.95 1.455-7.162-.338.413-1.365.676-1.365.676-3.326 1.355-8.43 1.445-11.742-.09-10.827-3.01-21.89-9.05-33.984-7.34-4.592 1.18-9.035 2.48-12.18 5.983-.84 1.533-3.063 1.697-4.237 2.536-1.208.953-2.397 2.312-3.24 3.92-1.71 4.36.165 9.224 3.24 12.292.118.326.72.353.865.634-.003.002 3.22.652 3.337-.04-.03.09-.03.18-.03.267m88.514 91.265c.646 1.24 1.264 2.506 2.06 3.595.617.853 1.454.943 2.057 2.035.415 0 1.62.53 1.53-.413 1.693-1.104 1.693-2.993 2.813-4.687.248-1.356 1.013-2.565 1.192-4.008.087.68.68 1.27.502 1.784.177 4.36 1.207 7.41 1.545 11.778.59 4.42 1.516 7.426 2.385 11.598 1.013 4.083 2.632 7.237 4.43 10.655 1.44 2.565 3.308 4.687 4.766 7.256.59.175 1.103 1.46 1.883.85-.44-6.98.765-12.545.93-19.627.513 1.975 1.19 4.184 1.6 6.25.353.927-.247 2.388.53 3.154.5 3.493 1.53 6.81 2.03 10.156 1.205 5.97 4.002 10.82 6.974 15.77.78.518 1.29 1.446 1.966 2.125.248 1.458 1.796 1.796 2.295 3.167 3.58 3.068 7.326 6.644 11.15 9.126 1.443.43 2.208 1.69 3.59 1.958-.515-.943-.09-1.957-1.116-2.475-.163-1.625-2.03-2.475-2.03-4.35-.69 0-.35-.93-.69-1.193-.165-.68-1.013-.77-.75-1.623-.798-1.692-1.886-3.152-1.796-5.128-.514-.753-1.192-1.77-1.03-2.638l-.413-.515c-.952-3.403-1.544-7.4-1.88-10.73h-.174c-.09-4.36-.603-8.695-1.12-12.72.09-.09.09 0 .18.1 3.145 5.53 5.37 11.925 11.15 15.433.677.43 1.21.93 1.71 1.357.26.43 1.026.25.94.93h.5c5.12 3.344 11.593 3.922 16.36 7.944.677 0 .587.84 1.355.517-2.032-6.998-7.74-11.523-11.652-16.976-.502-1.28-1.368-2.39-2.046-3.582-1.37-2.565-1.886-5.277-3.075-8.004-.502-.526.6-1.634-.502-1.634-.176-1.105-.44-2.548-1.027-3.673-.25-2.21-1.12-5.026-1.267-7.163h.147c-.056-2.388-.675-3.834-.82-6.306.59-.353-.44-.86.145-1.033 1.882 2.3 3.25 5.217 5.97 6.483 3.414 3.242 8.093 4.51 12.434 6.058 2.632-.428 4.75 1.284 7.134.518-.328-.766-1.18-1.443-2.12-1.71-1.103-1.798-3.472-2.298-4.342-4.348-2.987-3.406-4.52-7.944-5.533-12.457-.69-1.373-.602-3.247-1.364-4.528-.27-1.607-.68-3.24-1.03-5.112-.33 0-.24-.415-.24-.678-.69-3.85-1.622-7.34-1.972-11.353l-.323-.265c0-3.403-.78-7.076-.94-10.48l.263-.25c2.707.146 6.032.338 8.664-.943 1.12-.515 2.562-1.386 2.562-2.745-1.37-.146-3.326-.248-4.163-1.356-1.71-1.12-3.24-3.063-4.018-4.95-.766-4.686-2.99-8.607-3.578-13.15-.5-.144.087-1.012-.59-1.09-.853-4.597-2.735-9.73-2.97-14.59-.174-.944-.353-2.566-.437-3.743 1.882-.62 4.087-.766 5.53-2.152.266-.413 0-.927-.233-1.27-1.548-.247-2.65-1.178-3.767-2.208-1.09-1.385-2.295-3.67-2.618-5.306-1.885-2.12-2.476-5.186-3.34-7.93-.514-1.443-.926-2.814-1.6-4.17-.267-2.317-1.886-3.846-2.137-6.148-.248-.59-1.103-.856-.923-1.712-2.504-6.22-6.062-11.85-11.273-15.856-1.353-2.05-4.412-2.918-6.118-4.615-1.624-1.107-3.74-1.358-5.696-1.783-3.146-.357-6.223.514-8.87 1.87-1.013.105-1.69.84-2.56 1.284 0 .59-.59.516-.927.678-3.734 3.917-6.295 9.55-8.765 14.59l-1.78 5.968c-.59.518-.088 1.458-.766 1.964-1.28 4.684-2.647 8.874-4.607 13.47-.84 1.034-1.017 2.138-1.46 3.246-.587.69-.925 1.622-1.355 2.388-.177 1.386-.765 2.317-1.53 3.242-1.102 2.655-2.65 5.04-4.09 7.43-.765.498-.765 2.21-1.793 2.725-.412.178-.056 1.106-.764 1.016-1.945 3.774-4.8 6.986-7.885 9.976l18.715-.087-.114 55.02M190.57 291.85c-.603.056-.97.13-1.06.22-1.37.677-.675-1.092-1.71-1.178-1.353-3.152-3.486-6.07-4.502-9.476-.854 7.928-.09 15.683-1.03 23.537-.678.694-.09 1.532-.502 2.14l-.09.928h-.176c-.427 2.14-1.353 4.453-2.295 6.413-.176.77-.94 1.532-.94 2.565-1.118 2.37-2.295 4.083-3.236 6.645h-.25l-2.987 4.262c.266.6-.5.518-.675.928-1.09 2.328-2.208 4.097-3.914 5.893-.176-2.122 0-4.86-.266-6.998.266-3.4 0-7.764-.588-11.508-.856 5.38-2.81 10.316-3.915 15.68-.59 1.46-1.443 2.918-1.62 4.624-1.102 1.957-1.62 3.993-3.06 5.705v.602c-.943.413-1.116 1.958-1.884 2.55-.94-.075-.174 1.37-1.19 1.37-2.47 4.437-7.75 6.987-12.004 9.642-2.22 1.945-4.855 3.58-6.134 6.48-.75.09-.41-.943-.75-1.356.237-2.566.425-5.63 2.224-7.51 2.44-3.922 5.088-8.7 6.618-13.3-.323-.762.603-1.026.603-1.885.923-1.62.84-3.83 1.28-5.803.94-2.3.587-5.112 1.44-7.677.516-3.996 1.19-7.68 1.78-11.94h-.428c-1.265 3.493-3.398 7.594-5.193 10.835-2.543 2.227-5.017 5.63-8.252 6.663-2.886 1.62-6.032 2.123-8.094 4.865-1.353.676-1.777 1.96-2.796 2.89v.34c-.675.337-1.028 1.457-1.885 1.53-.43-3.668 1.01-6.643 1.94-9.62.53-.52.71-1.375 1.03-2.063.62-1.015 1.707-1.694 2.15-2.89.84.076.412-.855 1.177-.942 2.384-4.172 4.266-9.125 5.533-13.914 1.292-3.068 1.705-7.324 2.383-10.73.603-1.27.442-2.565 1.117-4.008.266-1.622.765-2.918.59-4.63-.518.263-.177.784-.267 1.206-1.177.503-.84 1.8-1.766 2.565-.266 1.266-1.117 1.96-1.63 3.07-1.44 2.383-3.987 3.68-6.46 5.125-2.65.413-4.78 1.607-7.68 1.71v.146c-2.12-.146-4.002 1.21-5.618 2.227h-.34c.783-3.492 2.9-6.396 5.46-8.87 1.955-2.23 3.324-5.116 4.325-8.004.78-2.92 2.148-5.807 2.324-8.638.764-2.476 1.176-5.53 2.293-7.93.75-2.034.942-4.69 1.778-6.72-.247-1.55 1.104-2.653.927-4.273.765-1.798.956-4.01 1.473-5.97-1.708.676-3.073 1.96-5.117 2.39-1.97-.164-4.607.34-6.12-.84-.354-2.92 3.47-3.95 4.09-6.163 2.03-4.098 4.235-8.094 5.176-12.707 1.88-4.687 2.382-10.053 4.002-15.09l-.075-.533c.59-.323-.338-.825.427-1.355.248-1.694.84-4.17 1.53-6.217-.854-.266-1.47.59-2.205.677-1.707 0-3.34 1.37-5.137.443-.75-.53-.573-1.386-.164-2.063.677-.09-.177-1.194.854-1.09 2.222-4.363 4.442-8.637 5.37-13.677 2.813-8.68 3.915-17.908 9.696-25.41 0-1.03 1.193-1.357 1.384-2.39 2.887-4.33 6.46-7.84 10.8-10.58 3.65-2.89 9.89-2.625 14.213-.59.618.503 1.71.338 2.06 1.27.925.442 1.767 1.032 2.72 1.62.926 1.725 3.06 3.08 3.827 5.128 1.013.515.514 1.356 1.192 2.036 4.09 7.602 5.883 15.8 9.886 23.462 1.766 2.832 2.208 6.235 4.43 8.875.25.94.84 1.955 1.355 2.635.427.353.164 1.284 1.012 1.284.175 1.12 1.205 2.226 1.546 3.33.675.78.75 1.712 1.6 2.137 0 1.194 1.122 1.446 1.46 2.478 1.867 2.374 4.34 5.528 6.294 7.752 1.44 1.958 2.723 3.152 4.43 4.613.438.53.97 1.003 1.53 1.443l-25.54.165.212 61.44" fill="#000"/><path d="M316.36 236.62c.383-.663.71-1.34.957-2.034 1.458-2.313.424-4.35-.25-6.66.09-.16.175-.356.337-.25.678 1.014 1.956 1.606 2.046 2.992.427-.62 1.706-1.032 1.882-1.975.09-.428.68-1.12.326-1.443.353-1.12.94-2.152.765-3.594.09-1.356-1.267-2.727-.502-3.92 1.448.94 1.448 3.153 1.944 4.683 2.31-1.696 3.235-4.513 4.266-7.075.677-2.535-.59-4.17-.84-6.47 1.604.158 1.942 2.46 2.28 3.935 1.792-2.477 2.823-5.734 2.47-8.885.087-1.368-.926-2.46-.678-3.58 1.532.248 1.532 2.047 1.882 3.403h.338c.248-.165.337-.59.427-1.015 1.262-2.478 2.116-5.543 1.602-8.697.188-1.356-2.474-2.224-.84-3.155l.252.415c1.012.177.836 1.12 1.455 1.622.16.692.336 1.796 1.01 1.796 1.71-2.816 3.064-6.734 1.87-10.08-.09-.842-1.355-1.695-.77-2.626 1.03.177 1.71 1.356 1.96 2.48.338.502.087 1.53.604 1.696 2.12-3.068 1.44-7.68 1.028-11.422-.618-.765-1.796-1.44-1.548-2.74.517-.767.93-1.8 2.223-1.356 1.354.503 3.146 1.194 4 2.565.428-.106.5.337.59.59 3.752 4.26 4.003 10.32 6.557 15.003l.338-3.655c.59-1.03.337-2.813 1.353-3.595l.164.102c-.5 3.05-.68 7.327.866 10.14.675 1.105.765 2.727 1.957 3.407.502 1.195 1.356 2.476 2.635 3.08.097-1.885-.593-4.007.247-5.614.263-.105.53 0 .678.236-.678 1.21.263 2.3.263 3.595.765 1.944 1.12 4.333 2.734 5.72.588 1.767 2.208 2.474 3.15 3.994.853 0 .763 1.195 1.62 1.015 1.03 1.032 2.295 1.546 3.473 2.136 2.473 1.015 4.944 1.28 7.5.248-.59-.59-1.79-.413-2.293-1.355-2.12-.415-2.988-2.803-4.09-4.35-1.177-2.814-2.47-5.807-3.56-8.534 0-1.27-1.116-1.783-1.03-3.067-.606-1.106-1.12-2.743-1.53-4.19-.677-.943-.426-2.55-1.382-3.42.266-1.357-1.267-1.78-1-3.156-.71-.146-.518-1.266-.957-1.604-1.266-2.907-2.954-5.206-4.59-7.768-.75.09-.59-.856-.923-1.296-1.294-.826-1.622-2.283-3.062-3.05-4.443-3.67-8.77-7.5-15.255-7.09-1.867.676-3.752 1.21-5.37 2.062-2.296 1.517-4.683 3.654-5.857 6.043-.618.858-.783 2.037-1.455 2.815.16 1.37-1.458 1.694-1.282 3.155-.85 1.104-1.192 2.403-1.53 3.845-2.467 5.277-3.677 11.583-6.136 16.803l-.248.087c-.176 1.532-.854 2.302-1.53 3.568-1.03 2.744-1.867 5.63-3.328 8.048-.94 1.095-1.44 2.89-2.294 4.08-1.282 2.124-2.474 4.6-3.842 6.736-2.47 3.508-5.166 6.956-7.9 10.42l15.83-.03-.007 6.236m-103.102-6.295c-2.973-2.757-5.534-5.762-8.24-8.886l-.09-.513c-3.914-4.94-7.577-10.48-10.298-16.537-.87-2.048-2.385-3.404-2.65-5.792-1.957-2.92-2.295-6.397-4.518-9.228 0-1.71-1.013-3.065-1.544-4.436-.147-.69-.413-1.46-.676-1.87-3.827-8.875-8.592-20.455-20.154-20.65-1.885.09-3.678.928-5.294 1.37-1.957 1.106-3.56 2.037-5.178 3.333-.086.676-.85.766-.94 1.182-2.134 1.632-3.326 3.856-4.856 5.89-.53.414-.854 1.447-1.267 1.89-1.882 3.654-3.59 7.665-4.87 11.583-.427.602-.75 1.634-1.03 2.475-1.867 4.776-2.28 10.406-4.59 15.105-.674 3.493-2.47 6.738-4.25 9.566-.6.057-.353.575-.443 1.003 1.63.266 3.505-.324 4.945-1.003 4-2.417 7.768-6.928 10.4-10.85.765-3.154 2.545-5.72 2.03-9.64 0-.338-.073-1.032.518-.945.765 1.032.442 2.655.855 3.834.263-.415.85-.68.94-1.27 2.044-2.05 2.973-5.293 2.56-8.61.076-.706-1.278-1.547 0-1.885 1.005 1.622 1.178 3.658 1.268 5.807.442-.354 1.177-.09 1.62-.605.516-.075 0-.778.516-.59-.087-.957.78-1.21.78-2.05 0-5.127.738-9.904 3.062-14.088.675-.59 1.103-1.27 1.78-2.036 1.014-1.446 2.385-.267 3.574.074.5.69-.09 1.46.5 2.047-.852 1.625-2.206 2.568-3.147 4.022-.25 2.816-.09 5.97 1.62 7.75.766-.337.766-1.28 1.03-2.046.677-.427.943-1.445 1.87-1.103v.428c-1.193.942-1.193 2.828-1.707 4.097.69.25-.514.503.192.856 0 1.534.678 3.07 1.012 4.6.68 1.196 1.515 2.393 2.193 3.57.704-.932.704-1.946 1.97-2.374l.34.68c-1.104.19.1 1.193-.766 1.37-1.013 2.742-.338 5.63 1.013 7.84.78.855 1.365 2.297 2.56 2.297.338-1.265.442-3.225 1.972-3.476.16.676-.355 1.957-.606 2.888.162 2.475.676 4.95 2.047 6.734.177 1.37 1.44 2.137 2.543 2.727.102-.93.927-1.71.927-2.637.443-.09.71-.856 1.118-.162-.248.943-.765 1.78-.675 2.89.09 0 .176 0 .266.175l-.268.25c0 2.05 1.443 3.932 2.56 5.467.413 1.87 2.56 2.89 3.827 4.098l.854-2.063.5.177c-.237 2.477-.148 4.776 1.12 6.66.175.076.426-.09.5.076-.118.252-.118.428-.044.53h20.724m42.158-59.206c.59 1.094 2.295.166 2.973 1.196 3.235.766 6.06 2.46 9.282 3.24 1.103 1.02 2.474.767 3.914 1.357 4.107 1.015 9.464 3.493 13.8.868-.16 2.803-2.307 5.69-4.925 6.81-3.677.944-7.59 0-11.24-1.032l-1.457-.086c1.706 1.12 4.072 1.548 6.385 2.228 2.718.604 5.69 1.194 7.752 3.08 1.44 2.636 2.722 5.63 3.06 8.607-1.53.267-3.15-.176-4.353.44-.06.578.87.413.942.93 1.44 1.357 3.074 3.243 3.84 5.203.925 2.655 1.866 5.277 1.547 8.432.41.266-.087.62 0 .868-2.06 0-3.502-1.03-4.945-1.958-2.47.25-1.885-2.388-3.236-3.598-1.384-2.298-2.988-4.348-5.03-5.863.175 1.958 2.56 3.227 3.147 5.187.59 1.28 2.223 2.3 2.047 4.098-1.71 0-2.632-1.266-4.072-1.533-1.03-.603-2.133-1.53-3.253-1.03 1.37 2.136 4.176 2.564 5.28 5.126.338.68.94 1.122 1.013 2.05 1.03 1.443.866 3.58 1.368 5.378l-.674 2.886c-1.03-.087-1.446-.764-2.387-1.12-.94-.75-1.53-.943-2.295-1.77l-.708-.19c-1.605-1.87-3.828-3.152-5.43-5.187-1.19-.692-1.547-1.96-2.72-2.475-.264.766.854 1.017.677 1.87.353.856 1.44 1.712 1.37 2.832.677.826.764 1.945.677 3.05.428 2.478 0 5.734-2.046 7.177-.427.927-1.192 1.53-2.118 2.283l-2.928-.086-.074-1.697h.1c.166-3.33-1.705-5.807-1.88-9.285-.428-.676-.93 0-1.268.162-1.028 2.373-2.898 4.702-4.855 6.145-1.1.253-1.956 1.268-2.986 1.178-2.295 1.46-4.68 1.296-7.577 1.712-.338-.928.514-1.86.84-2.727.78-2.283 2.22-4.17 4.105-5.79v-.265c-1.544-.25-3.074.425-4.78-.09-1.353-.16-2.81-.412-3.734-1.355.427-.087.337-.518.5-.856 2.398-1.016 4.34-2.3 7.25-2.225 1.604-.59 3.576-1.105 4.43-2.903.165-.928.5-2.12-.09-3.068.59.09.942.946 1.707.946.502 1.442 1.53 2.885 1.53 4.348 1.003-.84.588-2.903.412-4.082-.147-.177-.248-.353-.413-.353v-.176c1.71.62 2.973 2.655 3.663 4.615.765-1.46-.442-3.068-1.192-4.35 1.192-.412 2.032 1.03 3.15 1.53.5.266.588 1.625 1.09 1.3.266-.71-.326-1.635-.68-2.225-1.01-1.284-2.62-2.227-4.325-2.568-2.65-.767-5.796-1.958-9.208-2.225-4.678-.68-9.533-.59-13.623-2.05-1.44-.84-2.048-2.035-2.97-3.05 7.414 4.42 15.83.338 23.655 1.604 1.972-.25 4.105 1.37 5.975 1.37 0 .515.59.177.927.267v.326c1.458.354 3.588 1.12 4.693 2.638.413.19.413-.236.502-.484v-.443c-3.325-2.46-5.354-4.098-8.945-5.717-.236-.766-1.353-.503-1.852-1.104-2.047-1.282-5.03-2.638-6.917-4.437-1.266-.68-2.72-1.712-3.988-2.745-2.044-1.517-4.942-3.065-7.843-3.15-1.263-.058-2.043.442-3.06.956-1.708.072-1.884-2.726-3.913-2.05l-.09-.03c-1.03.44-2.297.192-2.826 1.563-.337.175-.337.516-.337.516-.34.752-.34 1.958 0 2.724-1.013-.177-1.103-1.458-2.032-1.89-.675-1.708-2.043-3.153-1.544-5.452-.413-.856.265-1.975 0-2.74.427-.84.675-1.944 1.455-2.89.03-.117.426-.428.426-.428 2.03-1.457 5.028-1.957 6.118-4.702.338-.485.765-.808 1.118-1.015.855-.84 2.206-1.235 3.236-1.87 4.18-1.708 9.196-2.313 13.887-1.87 2.21.075 4.508 1.108 6.98 1.19" fill="#FFCE65"/><path d="M235.913 173.51c-.165 1.092-1.354.676-1.856 1.445-1.03.856-2.06 1.87-2.222 3.08 1.012 1.356 3.044 2.287 4.84 2.817 3.15-.59 6.474-2.062 9.635-3.068.678.147 1.694-.353 2.28-.53 1.63-.338 3.414-.5 5.207-.176v.353c-3.415-.175-5.886 1.8-8.945 2.64 4.266.427 7.842 2.136 10.564 5.204-.087.266-.338.09-.53.176-1.09-1.357-2.956-2.036-4.5-2.74.426 1.386-.09 2.92-1.265 3.86l-1.707.588c6.21 3.834 9.107 11.44 16.773 13.825 2.03.766 4.353.766 6.38.413.432-.413-.262-.68-.336-1.104-.924-.09-.605-1.105-1.546-1.195-1.013-1.21-2.366-1.532-3.483-2.565-.336-.356-1.19-.356-1.265-1.032.588 0 1.455.53 2.28.53 1.117.338 2.058 1.442 3.092 1.442 1.09.856 2.97 1.284 4.16 1.622 1.516.515 2.902.177 4.253-.5-.593-.71-.593-1.547-1.283-2.062-1.368-2.125-3.483-3.567-5.62-4.777-.782-.59-1.867-.942-3.06-.942-.163-.165-.09-.413-.09-.677 2.475.677 5.463 1.03 7.844 1.03.925-.677-.264-1.105-.336-1.87-.87 0-.87-1.285-1.706-1.12-1.192-1.607-3.916-2.287-5.796-3.242v-.338c2.99-.09 4.342 1.533 6.727 2.903 1.88 1.103 2.47 4.02 5.116 4.6 1.09.927 2.12 1.28 2.797 2.636l-3.223-2.126c-.762-.352-1.63-1.193-2.557-.513-.678.104-1.357.6-2.223.248l-.16.263c1.1 1.033 2.383 2.123 3.575 3.67.16 1.28 1.53 2.227 1.028 3.67-.765.338-1.545.164-2.31.338 2.31 1.784 5.545 3.67 6.902 6.41.265.252.352.842.603 1.27-3.397-3.744-7.577-6.84-12.608-8.105-.263 1.02 1.44 1.71.855 2.815-4.43 1.28-8.86-1.014-12.61-3.065 0-.43-.515-.605-.766-.692-6.3-3.316-8.08-12.526-16.863-11.673-.5-.177-.84-.676-1.458-.53-1.44-.826-2.206-2.3-3.046-3.657.166-.087.166-.354 0-.425-.69 0-1.63-.252-2.308-.605-.84.177.176 1.03-.075 1.634.34.838-.19 1.78.43 2.284 3.147 0 5.62 1.89 7.737 3.595-.676-.175-1.778-.94-2.737-1.366-.822.16-1.088-.84-2.032-.59-.944-.515-2.205-.766-3.06-.428-.588-.338-1.97.766-1.884-.53.337-1.442.266-2.8-.25-4.244-.766-1.53-2.636-3.15-4.52-3.08l-1.352.765c-.353-.075-.176-.428-.176-.677.854-1.607 3.576-.158 3.325-2.475.94-.93 1.797-1.694 2.827-2.475.147 0 .484.1.574-.165.613-.17 1.29-.51 1.967-.763" fill="#000"/><path d="M165.15 174.276c-2.28 2.212-3.208 6.22-2.28 9.464.676 1.89 1.28 3.505 3.06 4.526-.074 1.712-.16 2.726-.248 4.525h-.176c-.09 1.535-.16 2.977-.675 4.513-.264 2.903-1.44 5.896-2.382 8.787-.69 2.475-1.118 4.36-2.044 6.835-1.117 3.242-1.867 6.22-2.72 9.464-.43-.09-.518.426-.34.675l.162.266c.427-.442.765-1.03.765-1.71h.177c.586-1.96 1.28-3.757 1.868-5.98.603-.25.09-1.093.516-1.447.414-1.607 1.12-2.565 1.44-4.184-.763-.5.414-.5.267-1.018.676-2.476 1.942-5.187 2.47-8.106.413-.928.34-1.784.93-2.55.177-1.284.425-2.83.604-4.187.59 1.355 1.707 2.74 2.723 4.096.248 1.533-.68 2.892-.765 4.44h-.09c-.926 2.136-1.03 5.114-2.384 6.985-.427 3.6-1.954 7.18-2.632 10.67-.704.68-.704 2.228-.94 3.16-.59 1.03-.502 2.99-1.207 3.755-.413 1.356-.75 3.227-1.766 4.35-.264.59-.353 1.71-1.03 2.046-.854 1.357-1.71 2.3-2.473 3.584-.09.162-.413 0-.604.162-.338 1.634-2.032 2.152-2.632 3.42-1.78-4.863-1.442-10.906-1.97-15.946.62-2.136 1.296-4.525 2.06-6.485.676-2.122 1.193-4.35 1.868-6.66.675-1.712 1.443-3.565 1.69-5.277 1.548-4.36 2.65-9.137 4.18-13.468.68-1.386 0-2.832.765-4.36-.84-3.422.353-6.897.428-10.495.515-.946.78-2.475 1.793-2.8-.248-.944.604-.944 1.103-1.46.436-.19.436.237.496.41m182.148 6.577c1.268 3.654 2.032 7.324 4.503 10.565.517 1.105 1.37 2.48 1.63 3.834.327 1.286.417 2.23 1.005 3.51.087 1.015.765 1.96.69 3.15.502 1.7 1.458 3.16 1.37 5.207.925 2.125 1.012 4.6 1.94 6.734.267.52.68 1.37.353 1.96.077.178.767.606.265.858.502.59.592 1.445.678 2.565 1.267 1.356.837 3.33 1.53 5.127.675 2.624 1.192 5.276 2.032 7.66-.326-4.95-1.954-10.403-2.97-15.09-.768-1.446-.266-3.33-1.356-4.864.085-2.152-1.03-4.277-1.707-6.324-.18-.428.502-.676-.18-.84-.85-2.315-1.204-4.79-1.706-7.017-.678-.75-.498-2.12-.94-2.885h.262c.25 2.3 2.135 4.097 3.062 5.88 1.548 1.887 3.914 2.566 3.914 5.293.44 1.89 1.204 4.098 1.37 5.968.602.09 0 .783.513 1.02 1.79 5.806 2.293 12.807 4.352 18.186.24.59-.53.59 0 .93.322 3.936 0 7.265-1.046 10.832l-.675.946c-2.387-2.478-4.927-5.127-6.636-8.285-1.706-3.155-2.046-7.41-3.062-11.156-.94-5.04-2.383-10.155-3.414-15.285-.94-1.18-1.03-3.156-1.53-4.335.338-1.89-1.353-2.918-1.204-4.88-1.353-4.61-2.972-9.298-4.502-13.9-.765-.513-.678-1.44-1.12-2.208-.084-2.565-.583-4.45-.762-7.09-.326-.677-.765-1.284-1.18-1.96.415-.177.854.266 1.356.412 1.71 1.39 2.297 3.774 3.167 5.483m-103.8 1.787c0 .247-.1.588-.35.588l-.945-.075c.09-.09 0-.176-.075-.176-.427-.267-.338.338-.514.5 0 .87.94 1.032 1.352 1.547 1.117.338 1.71-.602 2.56-.84l.266-2.153c1.1.18 2.544-.073 2.97 1.03-.237.944-.178 2.214-1.355 2.57-1.885.94-4.693.838-6.474-.356-.94-.857-2.047-1.356-1.957-2.802 1.198-.6 3.403-1.277 4.52.17" fill="#FFCE65"/><path d="M230.81 182.974c.25.586-.427.853-.338 1.442-1.207.515-3.734-.856-4.59 1.12-.103-.177-.178-.09-.265-.09.087-1.104.852-1.446 1.28-2.3.6-.442 1.012-1.028 1.866-1.19.855.075 1.62.162 2.047 1.018" fill="#000"/><path d="M346.02 192.878c.325.766.764 2.3 1.027 3.493.505 2.23 2.032 3.67 1.858 6.147.852 1.442.427 2.298 1.192 3.744.93 3.24 1.87 6.22 2.384 9.55.606 1.447.87 3.243 1.37 4.78 1.03 5.38 2.03 9.55 3.063 14.84-.075 1.887-.765 3.344-.678 5.38-.604.59-.353.856-.604 1.622-.84.947-.336 2.656-1.603 3.07-3.412-4.185-6.647-8.106-7.146-13.988-.352-.78-.693-2.137-.53-2.816-.835-1.018-.41-2.3-1.002-3.49-.087-2.637-1.443-4.702-1.882-7.237-.517-.784-.087-2.58-.765-3.1-.764-5.63-2.9-10.387-4.09-16.017.855-1.712 2.15-3.346 2.21-5.38.516.085.677 1.013.764 1.71.436 2.21 1.544 3.832 1.702 6.22.765 2.3 1.44 4.774 1.886 7.073.855 1.8.59 3.594 1.53 5.468.25 1.87.607 3.918 1.18 5.792.783 2.74 1.384 5.72 2.22 8.195.693.857 0 2.8.93 3.065-.413-5.54-2.62-11.762-3.206-16.536-.622-1.534-1.03-2.904-1.384-4.865-.678-1.532-.76-3.155-1.44-4.687.174-1.386-.502-2.388-.678-3.77 0-1.86-1.532-2.98-1.117-5.188-.415-.693-.502-1.46-.75-2.3.16-1.033-1.204-1.89-.087-2.565.087-.68 1.1-.856.837-1.78.765-.192.352-1.033.94-1.458.682 1.613 1.698 3.145 1.874 5.03m-192.683 17.48c.338.428-.6.767-.427 1.356-.442 1.386-.69 3.095-1.28 4.45-1.014 2.89-1.692 6.397-2.81 9.375-.176 2.392-1.62 4.26-1.795 6.648-1.013.69-.59 2.313-1.53 3.166-1.62 6.043-5.106 11.94-8.945 16.8-.263.413-1.09.767-1.192 1.356-2.28 1.976-6.047 5.882-10.048 3.76l-.074-.075c.337-.856 1.69-.443 1.78-1.634.855-.25.855-1.197 1.37-1.697 1.454-.942 1.543-3.067 2.544-4.184 3.753-10.318 5.545-20.4 8.443-30.95.926-1.21.413-3.438 1.793-3.923 2.208-2.227 4.326-3.508 5.77-6.25 1.454-2.298 2.65-4.95 3.587-7.485-1.368 5.63-3.062 11.068-4.855 16.698-2.03 6.915-3.827 13.147-6.722 19.618-.69 2.062-.926 4.112-1.882 5.983 2.043-2.83 3.146-7.014 4.517-10.582 1.194-4.26 2.99-8.43 4.003-12.705.94-1.033.588-2.742 1.53-3.834.498-2.566 1.44-4.45 1.956-7.017 1.19-3.068 2.046-6.47 2.72-9.623 1.295-1.635 3.765-2.314 3.825-4.88-.06-2.035 2.65-1.092 3.59-2.388-1.79 5.9-4.262 12.047-5.867 18.015m64.112-15.107c1.353 0 3.22.25 4.663.25 7.932-.59 14.65.176 22.497 1.386 1.365.59 2.81.164 3.985 1.622.944.676 1.886 1.694 3.146 1.945-2.967-.164-5.262-1.607-8.587-1.532-2.295-1.03-5.53-.513-8.076-1.19-3.238-.427-8.093.1-11.416-.68-1.03.163-2.66.25-3.545-.13-2.826 0-5.563-1.06-7.768-2.934 1.766.692 3.22.75 5.103 1.266m123.714 20.13c-.176 1.195.852 2.39.52 3.51.765.514.514 1.78.574 2.55h.19c.75 1.712.68 3.08 1.268 4.687-.248.675.248.62.248 1.03.086 1.797 1.293 2.976.94 5.024l.44.604c.075 2.89 1.855 6.235.502 8.947.248 2.723-.765 5.468-1.458 7.943-.424.25-.158 1.622-1.19.943-.25-.59-.94-.783-1.09-1.53-3.15-2.48-4.532-6.838-6.15-10.405-.148-.943-.09-1.973-.503-2.92-1.103-4.773-1.53-9.71-2.797-14.5.06-1.948-1.293-3.74-.782-5.63 1.458-1.856 1.368-4.51 2.136-6.56.588.93.836 3.256 1.44 4.525.412 1.693 1.443 3.492 1.192 5.716.678 1.017.765 2.39 1.102 3.567.266 1.976 1.207 3.864 1.357 5.72.526.676.1 1.87.69 2.478 0 1.636.678 1.978.854 3.51.338 2.12.428 2.975 1.103 4.95l.18-.176c-.69-3.493-1.032-6.752-1.62-10.242-1.204-3.405-1.706-6.985-2.734-10.568 0-2.388-1.282-4.777-1.282-7-.91-1.015-.16-2.814-1.015-3.92.942-2.138 1.617-4.35 2.22-6.308 1.03 4.762 2.292 9.713 3.663 14.06m-169.363-9.64c.267 3.67-.587 5.806-1.176 9.122-.59 2.065-1.117 3.92-1.458 6.148l-.25.25c.588.267-.428.354.086.78-.762.164.25.93-.514 1.28-.517 2.802-1.548 6.133-2.313 8.947.855-.09.517-1.356 1.192-1.796 1.37-4.17 1.886-8.77 3.666-12.778.44-1.89 1.118-4.01 1.443-5.898.514-1.266.6-2.885.855-4.17.354.075.785.842 1.298.93.41.268 1.09.268 1.264.68 0 .267.177 1.387-.175 1.887.263.765-.412 1.354-.16 2.477h-.166c-.352 1.622-.762 3.58-1.28 5.127.515 1.694-1.03 2.885-.602 4.42-.427.5-.266.943-.427 1.46-.16 2.285-1.353 3.404-1.353 5.97-.248.338-.69 1.18-.76 1.694-.252 1.797-.68 3.402-1.71 5.04-.68 1.87-1.69 3.833-2.635 5.63-1.47 1.193-1.62 3.067-3.16 3.668-1.192-.856-.248-2.74-1.192-3.594-.413-4.436-1.193-10.407.265-14.415-.09-.252-.09-.5.248-.677.09-2.727.856-4.774 1.695-7.43-.25-.93.765-1.268.428-2.124.69-1.372.956-3.156 1.547-4.688 1.706-4.023 1.954-8.372 3.645-12.293.44 1.705 1.118 2.828 1.706 4.345m195.31 5.045c1.03.93 3.18 1.55 2.914 3.068.588 1.105.514 2.4 1.264 3.403-.24.856.44 1.386.603 2.476.87 3.42 1.354 7.252 2.632 10.406.6 4.45 2.06 7.253 2.824 11.602l.677.69c-.266-2.298-.855-4.953-1.384-7.16-.585-2.067-1.09-3.512-1.263-5.808-1.624-4.36-1.692-8.695-2.813-12.616-.25-1.21-.588-2.224-1.015-3.508.675.09 1.882.177 2.706.443.442 2.214 1.03 4.247 1.384 6.31-.09 1.09.266 1.857.5 2.89.692 3.58 1.707 6.306 2.21 9.817.352.353.44.856.352 1.37.94 3.67 2.208 7.15 3.325 10.656.85.605.324 2.063 1.19 2.742.427.503.34 1.86 1.28 2.212-.09.59.853.946.853 1.446 1.09 1.104 2.205 2.035 3.828 2.388-1.117 1.034-2.47 1.357-4.003 1.28-1.282.25-2.823-.175-3.498-1.013-1.27.34-1.09-1.12-2.033-1.3-.854-.926-2.384-2.034-2.81-3.653-.694-.338-.78-1.033-1.37-1.533.177-1.21-1.266-1.444-1.012-2.725-.604-1.033-1.282-1.634-1.372-2.814-.675-.337-.263-1.3-.675-1.8-1.03-4.272-2.472-8.193-3.503-12.275.177-1.015-.248-1.89-.5-2.67-.5-.823-.68-1.77-1.03-2.8-.337-1.444-.426-2.887-1.015-4.275.34-.678-.427-1.268-.173-2.124-1.104-3.154-1.52-5.45-2.472-8.784 1.016 1.185 2.47 2.206 3.397 3.663" fill="#FFCE65"/><path d="M275.858 218.894c-2.47-1.958-3.663-5.116-6.224-6.825-.16-.355-.765-.858-.322-1.196 2.793 2.047 5.09 4.762 6.546 8.02" fill="#000"/><path d="M282.58 214.616c1.12 2.138 1.706 4.523 2.384 6.825-.248.178-.087.768.09.944.173 1.784-.338 3.245-.177 5.044-.16.338-.768.146-.502.676-1.544-.338-3.09-1.622-4.266-2.475 1.62-4.36.09-9.55-2.297-13.236 1.78.353 4.34 0 4.766 2.223m-102.425 2.565c0 2.475-1.207 5.465-1.03 8.266-.59 1.105-.59 2.122-.856 3.332l-.34.248.338.177c-1.118 3.226-1.013 6.56-2.134 10.065.25.767-.926 1.976-.248 2.565.59-2.137 1.37-4.097 1.793-6.22-.177-1.547 1.117-2.226.765-3.86 1.03-2.975 1.368-5.45 2.046-8.698.927-1.443.428-4.01 1.28-5.54 0 2.388 1.53 3.403 1.71 5.54-1.03 3.152-.71 6.31-2.15 9.123-.412 1.21.177 1.975-.412 3.166-.267 2.55-.62 4.864-1.62 6.9.427 2.15-1.622 3.597-2.046 5.453-.676 1.207-1.458 2.225-2.474 3.093-.926-1.458-1.796-3.42-2.047-5.47-.336-.427-.262-1.456-.76-1.887 0-1.78-.09-3.227-.337-4.762.517-4.864 2.223-10.58 2.898-15.358.5-3.42 1.793-6.75 2.385-9.904 1.02 1.398 2.12 2.75 3.24 3.77" fill="#FFCE65"/><path d="M262.927 216.93c.323 2.724 1.013 6.306.146 8.785.338-3.332-.926-5.894-1.18-9.21l.25-.515.784.94" fill="#000"/><path d="M330.35 217.696c1.1 7.163 2.987 13.22 3.826 20.296.926 2.137.678 4.436 1.37 6.307.324 2.31.324 4.787-.444 6.822 0 2.065-1 4.097-1.957 5.72-.573-.162-.573-.943-1.192-1.28-1.604-2.638-3.47-5.383-4.326-8.448-1.293-7.162-2.65-12.203-3.928-19.188 1.1-.943 2.13-1.87 2.81-2.892.78.057.584 1.18.78 1.608.84 5.112 2.28 9.476 3.4 14.253.085 2.888 1.615 5.115 1.44 8.195.085 0 .175.075.262.075.18-4.26-1.118-7.5-1.703-11.42-.25-1.03-.25-2.063-.34-3.156-1.116-2.477-.925-5.63-1.953-7.84-.09-.87-.09-1.8-.352-2.656-1.267-.942.94-1.622.603-2.828.773-1.092.668-2.816 1.7-3.57m-48.766 12.706c-.81-2.182-2.238-4.008-4.12-4.864-.16-.248-.678.09-.59-.443-1.176-.143-1.79-1.18-2.717-1.607.427.515.248 1.458 1.027 1.607.517 1.796 1.443 3.257 2.122 4.894-.09.674-.018.53-.018.53l-.867-.134c-1.03-2.727-2.266-4.26-3.638-6.986-1.353-1.193-1.703-3.58-3.663-4.348.782 3.598.6 7.692-1.868 10.156-.35.59-.412.84-.84 1.18l-.086.19-6.722-.19c.765-3.494-.94-4.94-1.473-8.09-.41 2.992-1.765 5.467-2.53 8.176-.94-.162.075-.575-.352-.928.764-1.976 1.352-4.35 1.794-6.663-1.28 1.12-2.058 2.92-3.84 3.51-1.603 1.282-3.485 1.623-5.442 2.638-2.838-.073-2.31 1.08-3.75 1.36-.854.088 0 0 0 0h-1.65s-.086.163 0 0l.972-.664h-.854c-.59-.353-1.972.413-1.868-.69.338-1.605 1.28-3.742 1.954-5.203-.678.338-1.443.443-1.62 1.122-.175 0-.247 0-.337-.09-1.456.767-3.505 1.105-5.032 1.695 2.56-1.606 5.958-2.815 8.18-5.027l-2.81-.09-.25.177c-.516-.69-1.28.09-1.795-.176-1.012.766-2.222.5-3.238 1.442-2.812.71-4.604 3.42-6.134 5.72 1.384.943 2.99 1.975 4.59 1.532 1.06.087 2.444-.71 3.033.147l44.43.117m-95.98-5.45c.855.853 2.738 1.855 2.21 3.064 0 3.242-.413 7.606-.856 10.494-.926.323.09 1.033-.16 1.446-.34 3.065-1.103 5.468-1.354 8.533l.16-.107c.177-2.287 1.28-4.42 1.444-6.543l.427-.265c-.586-3.065 1.457-4.51 1.123-7.5.427-1.8.84-4.023.84-5.882l.943 3.068 1.62 2.14c.09 2.372-.5 4.674-.855 6.985-.175 0-.175.16-.262.16.442 1.196-.588 2.402-.412 3.422h.09c-1.03.5.764 1.21-.443 1.626l.266.514c-.338 1.356-.18 2.907-.945 3.996-.16.763-.087 2.314-.5 3.095-.674.68-.587 2.035-1.794 2.374-.247.868-.94 1.635-1.53 2.566-.352-.087-.674.784-1.03.164-.585-.503-.765-1.86-1.604-2.388-1.192-1.27-.78-3.242-1.706-4.6-1.635-6.484.925-13.56 2.042-19.794h.09c.326-2.298.675-5.202 1.443-7.41.344.164 1.08.164.756.844m137.764 8.676c-.266 1.034.94 1.372.173 2.318.768 2.828 1.443 6.75 1.867 9.727.09.68.514 1.712.6 2.48.416 2.297.416 5.452.416 7.93-.678 1.623-1.013 3.673-2.043 5.277-2.546-1.86-4.592-4.42-6.047-7.147-.413-2.4-.592-4.954-1.53-7.178.18-1.945-1.267-3.33-1.177-5.453 1.177-1.356 2.37-2.55 2.81-4.436.766.766.68 2.4.927 3.403.768 3.863 1.294 7.784 2.385 11.705h.176c.24-2.313-.85-4.274-.497-6.573-.53-3.596-1.473-7.514-1.548-10.83.517-.856 1.605-1.635 1.957-2.476.178-.176.59-.428.327-.763.187-.09.35-.427.617-.09-.09.756.5 1.447.59 2.11m-173.692-.58c.588 3.24.325 6.648 1.44 9.965-.765 1.21-.59 2.918-1.37 4.097-.336 2.817-.674 6.22-1.78 8.698l-.176 1.386c-.076-.09-.178.073-.238.162-.708 3.996-1.882 7.944-2.823 11.85-.413 1.104-.356 2.403-1.09 3.33-.533 2.728-1.208 5.383-2.15 7.918-.074 1.973-.94 3.682-1.71 5.307-.25.856-.587 1.71-1.03 2.39.19.517-.325 1.53-.674 2.046-2.047 4.702-5.005 10.245-10.565 11.69-2.705 1.797-6.294 1.177-9.09 2.476 1.867-3.333 5.357-5.895 6.883-9.39.09-.78.855-1.03.69-1.87.69-.355.165-1.384.75-1.872 1.12-4.024 2.737-7.678 3.43-11.776.16-.605.484-1.446.484-2.302h.192c.426-1.457.336-2.738 1.277-3.935-.352-.925.413-2.048.5-3.155.764-2.314 1.368-4.526 1.792-7.076.764-2.475 1.442-4.95 2.042-7.428.84-2.05 2.37-3.757 3.663-5.63 2.546-4.26 5.106-8.534 6.797-13.22-.338 2.388-1.443 5.276-1.855 7.838l-.442.266c.5 1.033-.676 2.637-.59 4.098l-.175.177c.5.59-.498 1.18-.337 2.125-.854 2.223-1.102 4.684-2.12 6.908-.868 4.082-2.134 8.266-2.99 12.292-1.027.68-.175 2.802-1.116 3.403.266 1.105-.59 2.035-.412 3.245-.762.766-.676 2.035-1.204 3.065-.09.266.103.77-.336.77-.59 1.97-1.102 4.006-1.353 6.13.514-.238.59-1.357 1.193-1.77.675-2.39 1.278-4.804 1.867-7.09 1.19-2.228 1.44-4.6 2.47-6.648-.162-1.03.25-2.652.517-3.682 1.44-3.244 1.44-5.633 2.632-8.934-.077-1.71 1.1-3.95 1.01-5.66.765-.59.676-2.284 1.03-3.316.856-1.356.518-3.317 1.44-4.44.676-3.15 1.295-6.042 2.12-8.784.78-.352.265-1.358.87-1.87-.41-.517.354-1.373.534-1.786" fill="#FFCE65"/><path d="M157.676 242.856c-.514 1.547-.177 3.83-1.193 5.205-.104.34.248.858-.25.945.143 1.18-.266 2.888-.443 3.992-.176.515 0 1.28-.502 1.712 0 1.014 0 2.313-.427 3.24.75.43-.512.87-.084 1.37-.428 4.19-1.548 8.523-2.37 11.85.574 1.62-.528 3.333-1.027 4.955.247.353.247.766.247 1.18-.676.708-.338 1.46-.762 2.33.248 2.476-1.12 4.245-1.192 6.645-1.192.59.266 1.873-.855 2.636-.176 1.356-.266 2.802-1.03 3.76.603 1.104-.765 2.14-.502 3.582-.353 2.565-1.282 4.526-1.62 7.252-.337.34-.09.856-.176 1.27.426.263.426-.503.674-.59.266-2.14 1.03-3.493 1.443-5.807.62-2.21 1.03-3.993 1.706-6.133-.323-1.116.62-2.134.514-3.58.69-1.96.78-4.528 1.548-6.147-.855-.518.84-.77 0-1.284.412-1.017.502-1.873.84-2.905-.518-1.533.866-2.727.866-4.334.148-.266.148-.53 0-.78.503-1.02.09-2.904 1.09-3.835-.073-1.28.444-2.723.444-4.01.944-2.314.502-4.86 1.622-6.91-.618-.34.144-.68.087-1.195-.188-1.547.59-2.564.59-4.184.426-2.903 1.014-5.63 1.794-8.43.236-1.635.926-4.272 1.09-5.736.604 1.8 0 4.36 1.208 5.983-.087 1.446 1.004 2.392 1.004 3.742-.327 1.712-.503 4.007-1.005 5.558-.514 4.082-1.882 7.5-2.148 11.334-.676 2.83-1.264 6.486-1.856 9.3-.426.928.25 2.137-.674 2.727-.266 6.396-2.148 11.95-3.15 18.512-.955 5.037-3 10.757-4.528 15.09-.855 1.623-1.44 3.508-2.56 4.95 0 1.034-.75 1.71-.942 2.563-.824 1.12-1.855 2.653-2.62 3.742-1.03 1.8-2.736 3.586-4.502 4.864-1.796 1.976-4.945 2.74-7.25 3.86-.69.504-1.37.738-2.045 1.357-1.357.416-2.21 1.446-3.24 2.39 0-3.24 3.24-5.895 4.93-8.888.78-.84 1.207-1.784 1.954-2.91.62-.765 1.03-1.517 1.297-2.474.93-1.77 1.44-3.92 2.37-5.87-.16-1.205.69-2.474.78-3.74h.176c.323-1.652.59-3.155 1.354-4.624.26-3.227 1.44-5.705 1.704-9.11 0-.44 0-1.207.413-1.638.44-3.994 1.473-7.915 2.647-11.85.854-3.85 1.622-7.59 2.81-11.35.605-.59 0-1.608.518-2.227.854-1.945 1.177-4.244 1.62-6.393.176-.417.427-1.27.675-1.77.18-2.065 1.353-3.864 1.353-5.986.53-2.06.94-3.76 1.62-5.63-.252-1.28.352-2.21.707-3.063l-.188-.503c.69-1.21.186-3.095 1.366-3.86l.087-.59c1.78-2.138 3.325-4.01 5.034-6.07.078 2.486-.705 4.375-1.042 6.51m214.223 3.833c.248 1.55.765 3.08.678 4.612.604 1.267.604 2.71.87 4.006.502 2.39 1.09 4.777 1.44 7.165l.164.268c-.338.247.084.412.248.765 1.545 8.943 2.898 16.89 5.118 25.408-.427-8.517-3.675-16.886-4.35-25.497-.592-1.547-.338-3.508-1.013-4.95-.164-3.583-1.192-6.986-1.548-10.76l-.16-.5h.104l-.194-.766c.338.675 1.12 1.44 1.282 2.297.764.767 1.44 1.8 1.792 2.993 1.53 1.46 2.883 2.814 2.733 5.38.825 8.36 2.627 16.212 4.165 24.13.248 1.55.765 2.902.926 4.273.428.928.592 2.46 1.207 3.403-.44.943.823 1.536.417 2.565.94.68.262 2.387 1.277 3.243l-.25.417c1.53 2.396 2.207 5.802 4.517 7.778.68.146.428.93 1.014 1.092.427.71 1.207.71 1.356 1.45-.765.086-1.177-.166-1.945-.253-3.412-.484-6.734-2.55-9.635-4.35-.427-1.09-1.515-1.09-2.37-1.96-3.148-3.67-6.973-7.41-7.325-12.956-1.53-8.442-2.223-15.033-3.24-23.462-.85-4.863-.85-10.23-1.968-15.27.867.09-.09-1.033.765-1.105.693-1.366.783-3.08 1.545-4.02.248-1.18.427-2.71.338-3.92 1.26 2.38 1.7 5.46 2.04 8.526m-6.292-.16c.675 2.98.59 6.66 1.19 9.712l.164.105c.513 12.116 2.898 24.303 4.34 35.818-.675.513.177 1.193.177 1.783.517 4.274.94 7.34 1.616 11.35-.263.69.502 1.708.502 2.64l1.966 8.03c1.796 5.543 3.648 10.924 8.007 15.198 1.942 2.536 5.192 4.76 6.558 7.915-3.588-2.284-7.67-3.065-11.413-5.112-1.443-1.195-3.502-1.62-4.443-3.332-.675.34-.502-.5-.82-.675-.868-.443-1.208-1.212-2.15-1.622-1.777-2.065-3.564-3.673-4.43-6.058-4.413-6.735-6.884-14.163-7.31-22.694-.855-2.195-.503-4.51-1.032-6.646-.675-3.49-.337-7.073-1.263-10.14-.517-2.907-.09-6.412-.768-9.318-.62-.5-.09-1.18-.526-1.78-1.013-7.768-1.69-15.963-2.796-23.538.767-.59 1.353 1.104 2.207.5.853-2.123 2.47-3.993 2.81-6.307.87 1.887.427 4.01 1.12 6.044.25 3.092.675 5.893 1.264 8.976.926 4.258 1.102 9.122 1.793 13.543.09 2.317.764 4.026.68 6.396.338.264.25.866.177 1.117l.338 2.994c-.177.34-.263.59.164.75.514 5.988.953 12.03 1.628 18.014.06 1.87.164 4.35.768 6.148l.075 2.478h.427c.338-1.546-.338-2.05-.254-3.507.75-.16-.172-.52 0-.928-.247-6.147-.69-11.864-1.203-18.248l-.338-.53c-.853-6.633-1.355-13.047-1.944-19.775l-.263-.443c0-.59.353-1.448.087-1.858 0-.443-.498-.943-.175-1.535-1.19-4.45-.765-10.17-1.864-14.517.088-1.013-.09-2.282-.336-3.153.173-1.28-.502-3.242-.592-4.436 1.845 2.3 3.727 4.524 5.863 6.646m-14.82-.854l.24.34.44 4.6c.583.69-.09 1.28.5 1.956h-.075l.427 2.742h-.18c.18 1.622.09 3.508.858 4.864l-.18.176c1.295 9.2 1.886 19.177 3.416 27.8.175 1.116 0 2.21.354 3.33-.09.088-.352.238-.09.43l.147.16c.78 7.693 1.71 15.61 2.41 22.934h-.084c.41 3.433.588 7.18 1.356 10.67.174.59-.5 1.12.25 1.547.175 4.675 1.012 8.787 2.046 13.295.516 1.96 1.705 3.672 2.12 5.824.78.143.192 1.002.527 1.442 1.102.752.764 2.126 1.6 2.802 0 .943 1.208 1.446 1.047 2.317-4.945-2.475-8.094-6.917-11.772-10.584.18-.6-.427-.766-.678-1.014-.514-1.03-1.527-1.535-1.616-2.816-.502-.766-1.12-1.37-1.44-2.313 0-.412-.94-.927-.44-1.268-.678-.34-.678-1.296-1.18-1.71.338-1.712-1.53-2.226-1.204-3.92-.588-1.123-.678-2.48-1.18-3.745-.176-3.86-2.058-6.41-1.972-10.42-1.177-7.427-3.307-14.578-4.072-22.093.428-5.807-1.117-10.332-1.458-15.86.53-.264-.09-.53-.09-.782-.412-2.55-.056-5.615-.925-7.913l.25-.268c-.678-4.097-.337-8.87-1.442-13.145-.265-2.89-.352-4.775-.675-7.664.94 2.46 3.472 4.51 5.778 6.13.248.18.694 0 1.03.09-.103-.518.515-.766.84-1.033 1.205 3.776.942 8.79 1.704 12.47.263.43.352 1.356.352 2.126h-.174c.263 4.45 1.102 9.813 1.706 14.677l-.263.16c.85 5.736 1.264 11.186 1.88 16.64.677 1.885.25 4.42.767 6.396.59 5.453 1.177 10.317 2.294 15.267 0-2.975-.5-5.202-.5-8.102-.19-2.828-.867-5.28-.765-7.93-1.118-10.758-2.734-21.402-3.338-32.16-.84-1.795-.25-4.42-1.012-6.482-.442-5.28-.68-10.748-1.796-16.037 1.03-2.715 1.457-5.044 1.705-8.02.768 1.19 2.47 2.473 2.56 4.095" fill="#FFCE65"/><path d="M167.884 255.4c-.263 1.092-.322 2.475-.765 3.42-.677 6.397-2.033 12.796-2.974 19.016-.6.338-.263 1.18-.353 1.622-.337 1.015-.248 2.475-.502 3.33-1.1 1.61-.94 4.01-1.352 5.78-.088 3.42-1.295 7.017-1.707 10.26-.09 2.976-1.027 4.94-1.293 7.93h-.09c-.147 2.475-1.177 4.597-1.354 7.25-.502.855-.164 2.034-.588 3.154l.25.173c.927-1.206.855-3.15 1.282-4.774.765-3.42 1.706-6.573 2.385-10.17-.676-.77.412-1.183.176-2.036l.326-2.565.266-.163.413-4.196.44-.502c-.177-2.978 1.442-5.367 1.442-8.695.337-.353.263-.856.263-1.296.16.102.266-.06.325-.147-.16-2.655 1.207-5.807 1.207-8.46.676-3.833 1.623-6.898 2.032-10.565.59-.694.176-1.888.532-2.73.836-4.597 1.267-9.55 2.384-14.5.588 0 .146.766.412 1.03.855 2.974 3.84 5.44 2.56 9.287-.675 2.906-.675 6.057-1.62 8.787.178 2.9-.677 4.434-.943 7.07-.68 7.947-2.737 15.12-3.416 23.125l-.25.252c-.513 5.806-1.514 11.17-2.28 17.066-.44 2.724-1.544 4.95-1.63 7.752-.84 1.446-.59 3.508-1.192 5.115-.074.34-.588.193-.412.52.236.852-.442 1.885-.618 2.827-1.443 3.658-2.387 7.666-4.592 11.156-.678.604-.765 1.637-1.53 2.226-.675 1.707-1.885 3.243-3.415 4.6.267.94-.84.513-.84 1.444-3.4 2.92-6.9 5.038-10.9 6.833-.25.767-1.207.854-1.53 1.015.855-3.155 3.415-5.54 4.945-8.177 1.263-2.314 2.294-4.79 2.883-7.43 1.293-2.8 1.882-6.13 2.294-9.196.442-2.48.94-5.13 1.62-7.697-.236-1.957 1.278-3.564.588-5.022.69-2.564 1.12-5.467 1.65-8.28-.71-.59.5-.84.235-1.46 0-2.713 1.207-5.01 1.267-7.915.953-1.015.353-2.903.953-4.172 1.62-4.45 1.267-9.99 2.812-14.588 0-2.227.674-4.278.763-6.397.263-.09.263-.354.087-.533.75-1.946.678-4.51 1.71-6.382-.354-2.562 1-4.525 1.09-7.072.528-1.283.528-2.917.618-4.36.502-.162.326-1.194.502-1.784.427-1.458.588-3.505 1.192-4.864-.09-3.493 3.984-4.953 5.015-8.018.517 0 .517-.59.604-.943-.184 4.527-.775 8.86-1.38 13.048" fill="#FFCE65"/><path fill="#000" d="M185.347 249.59l.164-1.014-.07 1.014h-.092"/><path d="M179.127 249.004c.603 3.403-.765 5.88 0 9.123-1.103.517.355 1.625-.514 2.298-.25 1.89-.164 4.44-.75 6.645.236.353 0 1.032-.176 1.46.09 3.76-1.354 7.944-1.354 11.778l-.188.087c-.164 4.17-.84 7.68-1.443 11.763-.5 5.713-1.102 11.598-1.455 17.213-.06.19-.164.53-.25.62 0 .09-.252.77.25.594.188-3.586 1.455-6.827 1.545-10.76l.337-.413c-.59-.176.336-.427.175-.765-.353-2.06.675-3.418.352-5.454.738-2.992.574-5.892.926-9.313.25-.68.162-1.356.517-2.125.324-2.902.324-6.147 1.178-9.137-.588-.5.425-.84.09-1.443.854-5.19 1.207-10.404 2.043-15.507 1.37 1.356 1.55 3.478 3.4 4.51-.413 7.418-2.03 14.918-2.116 22.61-.427.087-.176.856-.678 1.093.072 7.43-.353 14.343-1.192 21.415-.338 1.285-.517 3.156-1.016 4.617-1.646 5.803-4.855 10.73-7.84 15.52.162.84-1.12 1.193-1.192 1.96l-.603.948c-.338-9.138-1.102-19.192-.09-28.153-.074-6.31 1.207-12.616 2.047-18.69.764-1.357.674-3.315.853-5.11.762-4.35 1.62-8.18 2.032-12.617.53-1.104.263-2.05.618-3.244-.09-2.136.84-3.67.676-5.806.25-.16.16-.59.35-1.014 1.6-1.293 1.757-3.667 3.466-4.696m151.387 7.335c2.474 15.52 2.883 31.29 5.973 47.59h.16c.177-1.368-.247-3.332-.352-4.523h-.07c-.417-5.214-1.032-9.3-1.53-14.415-.766-3.068-.59-6.483-.942-9.39-.852-2.902-.248-6.91-.852-10.14-.24-.427.087-.957-.325-1.46-.442-.943.412-2.3-.353-3.24.592-.25-.173-.337-.086-.768V258.2c.442.355.767 1.03 1.458.62 1.792-1.21 1.864-3.007 3.06-4.803.853 8.788 2.132 17.156 2.458 25.615l.263.323c.176 6.573 1.44 12.97.94 20.13.25.354-.94.944-.086 1.12l-.34.165c.765.518 0 1.37.338 2.05-.177 1.53-.09 2.976-.43 4.51.178.513.178 1.207 0 1.635-.428 2.137-.162 4.51-.78 6.558-.058 1.356.78 2.817.187 4.18-.87-.94-1.885-2.15-2.56-3.503-1.028-1.093-1.368-2.3-2.044-3.655-1.265-2.475-1.705-5.63-2.65-8.282-1.09-2.894-.763-5.78-1.854-8.52-.94-2.656-.53-5.718-1.545-8.71-.073-1.872-.515-3.494-.78-5.382-.82-6.894-1.354-12.614-1.94-19.453 1.01-.928.586-2.125 1.456-3.05-.195-.695.16-1.625.248-2.478.236-1.55.427-3.76.236-4.955.712 1.64 1.713 3 2.743 4.03m-140.913 2.8l.43.352-.09 6.81h-.088c-.25 5.037-.84 9.9-1.015 15.106 1.53-5.292 1.53-11.434 2.294-16.815-.26-.165.09-.767.09-1.018 1.03 1.78 1.104 3.76 2.74 5.04l1.69-.928c.678 3.065-.924 4.846-.852 7.827-.69 3.49-2.044 7.41-3.397 10.594l-1.97 3.226c-.763-.247-1.09-1.19-1.283-1.87-.424-.266-.75-1.104-1.012-1.706-.68-.502-.428-1.71-1.207-2.053-1.503-4.523-2.122-8.62-1.856-13.646.5-2.993.68-5.97 1.032-9.126 1.69-1.033 3.295-2.655 4.237-4.187.083.773.513 1.716.26 2.395m134.35 4.27c.782 4.687 1.795 10.156.265 15.534-.09 1.767-.603 3.21-.94 4.844-.416.784-.927 1.78-1.118 2.637-.732.43-.93 1.195-1.18 1.976-2.47-2.83-4.676-6.058-5.18-10.155 0-2.564-.795-5.04-.527-7.5-1.012-2.3 1.53-3.933 1.62-6.156.618-.34.514-1.533.94-2.212-.265-1.03.942-1.71.503-2.74.678.44 0 1.03.44 1.635.587 2.05.426 4.774 1.1 6.91.59 4.512.84 8.962 1.78 13.473.262-2.654-.076-5.1-.177-7.515h-.057c-.268-4.938-1.03-9.55-1.726-14.4l-.427-.93c1.533 1.535 2.743 3.307 4.682 4.6" fill="#FFCE65"/><path fill="#000" d="M380.5 289.18h.092l.075.34h-.075l-.092-.34m-43.853 14.824h.09l.083 1.036h-.083l-.09-1.036M354.02 320.9h.09l.25 1.532h-.19l-.15-1.532"/><path d="M253.376 389.725s60.454-19.6 62.824-63.95l.188-95.385H190.366l.177 95.386c2.384 44.35 62.833 63.95 62.833 63.95" fill="#5CBFEB"/><path d="M261.278 386.66l-54.728-71.983h16.98l50.138 65.956c-.003 0-4.386 2.654-12.39 6.028m23.95-13.178l-44.693-58.805h16.417l38.78 50.407c.002 0-3.41 3.492-10.505 8.398m19.833-18.612l-30.56-40.19h16.995l20.92 27.52s-1.453 4.785-7.356 12.67" fill="#FFF"/><path d="M190.53 298.674h126.02" stroke="#000" stroke-width="23.077"/><path d="M200.68 308.105v-1.132c1.012-.057 1.6-.13 1.777-.22.102-.034.206-.09.266-.178.09-.12.12-.28.147-.503.074-.502.12-1.622.158-3.33.03-.812.048-2.243.048-4.248 0-1.83-.018-3.418-.048-4.804-.012-1.386-.075-2.227-.158-2.478-.03-.144-.09-.234-.177-.287-.06-.075-.22-.123-.442-.147-.572-.102-1.1-.162-1.572-.177v-1.135c1.825.048 3.09.075 3.78.075.91 0 1.824-.03 2.763-.076l1.148 2.637.94 2.007 4.237 8.728c.9-1.74 1.575-3.098 2.032-4.068l1.766-3.684c.97-2.062 1.56-3.33 1.795-3.8.206-.486.442-1.09.738-1.815 1.147.057 1.897.087 2.238.087l3.944-.087v1.134h-.177c-.9-.014-1.457.088-1.71.328-.234.206-.35.62-.35 1.236 0 .733 0 1.293-.015 1.676l-.06 3.762v6.672c.075 1.12.132 1.828.188 2.077.03.12.09.222.147.31.056.056.175.12.31.146.13.056.69.103 1.664.163v1.132l-4.24-.09-4.147.09v-1.132c1.103-.033 1.718-.09 1.883-.194.146-.088.265-.31.337-.65.06-.31.09-1.413.09-3.3v-9.685l-3.075 6.25-1.472 3.107c-.398.81-.956 1.99-1.662 3.536-.427.958-.764 1.713-1.012 2.287h-.912c-.325-.736-.794-1.77-1.383-3.068-1.026-2.227-1.805-3.873-2.334-4.965l-3.487-7.148v6.53c0 1.106 0 2.405.03 3.92.03 1.487.06 2.343.09 2.534.055.207.1.353.175.443.075.087.206.177.412.237.177.057.723.116 1.62.164v1.133c-1-.057-2.002-.09-3.03-.09-1.374.003-2.447.036-3.256.093m29.673-3.862c.588 0 1.075.206 1.485.59.397.412.606.915.606 1.487 0 .58-.206 1.08-.618 1.477-.413.413-.885.62-1.473.62-.56 0-1.06-.207-1.473-.62-.412-.398-.604-.898-.604-1.475 0-.57.19-1.08.604-1.487.412-.383.884-.59 1.473-.59m20.89 1.325l.325.296-.618 1.356c-1.118.577-2.104.99-2.973 1.194-.896.22-2 .338-3.325.338-1.883 0-3.532-.31-4.972-.886-1.147-.5-2.103-1.116-2.913-1.93-.765-.784-1.383-1.637-1.795-2.565-.664-1.386-.986-2.907-.986-4.538 0-2.816.956-5.085 2.868-6.87 1.912-1.768 4.607-2.65 8.093-2.65 1.207 0 2.295.086 3.236.266.944.193 2.06.504 3.31.96l.075.16c-.146.43-.25.96-.326 1.578-.146 1.003-.236 1.92-.263 2.787h-1.03c-.03-.99-.06-1.77-.15-2.36-.587-.618-1.265-1.076-1.997-1.384-.738-.31-1.68-.454-2.827-.454-2.088 0-3.752.646-5 1.975-1.265 1.327-1.883 3.153-1.883 5.526 0 1.428.206 2.667.633 3.745.427 1.075.99 1.946 1.69 2.634.676.713 1.384 1.213 2.104 1.55.957.43 2.135.632 3.518.632.896 0 1.75-.116 2.56-.32.807-.197 1.69-.533 2.644-1.035m4.24-1.326c.588 0 1.06.206 1.473.59.412.412.6.915.6 1.487 0 .58-.188 1.08-.6 1.477-.413.413-.912.62-1.473.62-.586 0-1.058-.207-1.47-.62-.412-.398-.62-.898-.62-1.475 0-.57.208-1.08.602-1.487.412-.383.9-.59 1.488-.59m16.33-2.625h-1.06c-.03-1.09-.117-1.77-.236-2.004-.057-.116-.22-.19-.47-.25-.678-.133-1.708-.193-3.12-.193-.205 0-.557.033-1.07.033v1.485c0 2.094.03 3.585.07 4.423.06.84.12 1.344.207 1.487.06.09.19.176.337.24.165.055.87.13 2.104.217v1.048l-5.223-.09c-.75 0-1.952.033-3.57.09V307c1.015-.015 1.603-.057 1.765-.13.09-.028.146-.058.206-.148.058-.087.117-.323.174-.68.033-.206.06-.853.102-1.912.048-1.093.074-1.86.074-2.332v-5.525c0-.135-.045-1.37-.132-3.73 0-.676-.075-1.164-.13-1.445-.03-.117-.058-.173-.12-.236-.058-.045-.207-.087-.383-.132-.207-.045-.705-.09-1.56-.147v-1.12l4.724.076 6.382-.104c.896 0 1.75.042 2.543.132l.12.175c-.103.527-.177 1.183-.25 1.95-.074.777-.1 1.474-.13 2.046h-1.073c0-.22-.033-.68-.075-1.43-.018-.4-.044-.647-.09-.707-.03-.057-.056-.117-.12-.147-.16-.1-.525-.206-1.116-.296-.56-.116-1.233-.173-2.03-.173-.147 0-.56.03-1.267.057-.676.033-1.148.033-1.4.057-.085.888-.142 2.51-.142 4.81v1.87c1.148.045 1.913.074 2.31.074 1.148 0 1.886-.074 2.175-.173.12-.047.206-.137.266-.295.058-.24.118-.737.145-1.533h1.15c-.057 1.495-.084 3.443-.084 5.77m5.622 2.622c.59 0 1.076.206 1.485.59.397.412.603.915.603 1.487 0 .58-.206 1.08-.618 1.477-.412.413-.884.62-1.473.62-.56 0-1.06-.207-1.475-.62-.412-.398-.603-.898-.603-1.475 0-.57.19-1.08.603-1.487.418-.383.887-.59 1.476-.59m22.072 1.148l.337.308-.605 1.346c-1.118.59-2.104.97-2.97 1.206-.896.208-2.002.328-3.325.328-1.88 0-3.53-.31-4.99-.9-1.13-.49-2.102-1.12-2.897-1.905-.764-.778-1.383-1.65-1.825-2.577-.645-1.4-.956-2.903-.956-4.555 0-2.783.956-5.07 2.868-6.836 1.915-1.78 4.607-2.65 8.094-2.65 1.204 0 2.264.088 3.235.247.94.18 2.045.507 3.31.96l.055.163c-.13.428-.236.943-.337 1.575-.12 1.005-.207 1.948-.24 2.77h-1.028c-.03-.956-.09-1.738-.146-2.33-.59-.62-1.267-1.093-2-1.386-.734-.323-1.675-.47-2.852-.47-2.06 0-3.738.665-5.005 1.976-1.238 1.325-1.856 3.17-1.856 5.528 0 1.427.207 2.68.62 3.744.44 1.075 1.003 1.957 1.675 2.655.71.69 1.414 1.205 2.137 1.516.953.428 2.133.647 3.516.647.897 0 1.752-.09 2.56-.31.796-.19 1.68-.56 2.622-1.047m4.41-1.152c.59 0 1.092.206 1.486.59.398.412.604.915.604 1.487 0 .58-.206 1.08-.62 1.477-.41.413-.883.62-1.472.62-.558 0-1.06-.207-1.472-.62-.413-.398-.62-.898-.62-1.475 0-.57.207-1.08.62-1.487.403-.383.887-.59 1.475-.59m-46.223-69.243c0 1.976.09 3.92.06 5.926 2.148.075 4.18.294 6.005.868l1.673 5.735c-2.12-.97-5.223-1.707-7.502-.53-.177.15-.057.397-.117.59 3.21.06 6.238.325 8.975 1.268l2.338 8.135c-3.074-1.37-7.87-2.565-11.048-.56-.207.09-.09.327-.12.503 3.827.03 7.534.485 10.86 1.596l2.883 10.183c-3.81-1.697-9.49-3.125-13.564-.87l-.03 1.265 14.784.237.1-.264.208-24.524h.588v.472c1.208-.16 2.783-.65 3.885.09.678.44 1.117 1.325 2.09 1.444 1.104.087 2.18-.045 3.165-.236-1.532.71-3.047 2.035-5.034 1.46-.765-.383-1.473-.84-2.456-.84-.502.116-1.057.146-1.547.383l.074 3.01c.97.412 2.148.63 3.284.867 4.178.868 8.96.308 12.46-1.296-3.355 4.864-2.796 12.015.75 16.672l.81.293-4.885 7.132c2.53.53 6.15 2.077 8.4.03 1.516-1.296 3.74-1.916 5.902-1.416l-.56 1.092c-2.616-.323-4.633.913-6.473 2.3-3.735.867-6.677-1.165-10.328-1.165-3.532-.456-5.793 1.385-8.886 1.753-3.858.383-6.68-2.137-10.61-1.326-2.662.62-5.076 2.152-8.135 1.484-2.43-.84-4.78-2.046-7.768-1.648-2.384.31-4.502 1.048-6.857 1.4-4.675.25-8.652-3.154-13.268-1.047-2.384 1.427-6.178 1.577-8.974.69-2.06-.385-3.768-1.885-6.06-1.385l-4.812 1.12-.544-1.074 6.12-1.37c1.988.057 3.43 1.12 5.24 1.488 1.645.428 3.438.796 5.323.484-2.28-2.196-4.68-4.45-7.078-6.707l-14.254-6.088.22-.53 14.348 5.382c1.268.16 2.604.31 3.87.502l-.22-.312-7.622-6.75c1.912-5.25 8.74-10.08 15.55-11.29 1.545-.31 3.338-.412 5.032-.295l1.747 1.296c.12-1.385.06-2.827.06-4.213-.822-.383-2.032-.59-2.94-.207-.765.326-1.443.913-2.414.737-1.485-.09-2.5-1.033-3.735-1.563 1.06.104 2.797.472 3.93-.09.838-.884 1.866-1.74 3.384-1.533l1.778.31.06-.546.588-.03.206 9.022v.09c1.323.176 2.5.59 3.606 1.18l1.428 4.91c-1.455-.81-3.12-1.31-4.912-1.43v.886c1.942.206 3.705.71 5.223 1.592l1.75 6.29c-1.973-1.148-4.238-1.768-6.783-1.93l.056 4.718.338.057 19.098.265c.133-.37.074-.798.074-1.193-3.986-2.45-9.752-.928-13.55.766l3.768-10.182c3.12-.885 6.46-1.385 9.976-1.532l.057-.736c-3.176-1.74-7.652-.59-10.59.736l2.938-8.135c2.43-.71 5.033-1.075 7.74-1.21.03-.207.177-.37.03-.563-2.22-1.355-5.34-.484-7.47.414l2.03-5.656c1.71-.503 3.56-.84 5.563-.856.056-.97.146-1.99.056-3.02-.88-.427-2.208-.457-3.1-.044-.6.324-1.224.725-2.105.65-1.515-.075-2.59-1.033-3.884-1.622 1.18.206 2.62.398 3.825.09.867-.797 1.826-1.83 3.3-1.725.707.044 1.292.338 1.997.37l.105-.676h.544" fill="#FFCE65"/><path d="M274.34 264.32l-.353-13.694c2.12 4.008 2.605 9.578.353 13.693m-38.663-11.778c-2.09.116-3.974.62-5.56 1.652l-1.004 4.893c1.912-1.002 4.048-1.77 6.486-1.858v.91c-2.544.12-4.81.886-6.68 2.153l-1.266 6.19c2.34-1.21 4.912-2.153 7.843-2.314v4.64l-8.886-.12-5.236-.72c.487-5.65 3.003-10.67 7.857-14.933 1.827-1.415 3.83-2.532 6.443-2.388l.003 1.89m54.674 14l-4.35 2.918-11.592-.146-.12-4.714c3.603-1.608 8.855-1.27 12.282.383l3.783 1.56" fill="#5CBFEB"/><path d="M301.058 275.15l-.708 1.414c-2.677-.71-4 1.83-6.223 2.316-5.312.988-9.725-2.753-14.873-.574-2.56 1.062-6.208 1.676-8.99.646-1.604-.44-3.062-1.12-4.93-1.005-3.5.71-7.133 2.843-10.946 1.21-1.912-.71-3.737-1.623-6.133-1.21-3.224.416-6.107 1.918-9.635 1.24-2.53-.43-4.69-1.55-7.43-1.59-2.546.293-4.428 1.858-7.108 1.93-3.735.22-6.797-.988-9.916-2.062l-5.766 1.266-.62-1.426 6.033-1.326c2.062.057 3.588 1.093 5.43 1.518 2.368.66 5.517.81 7.71-.252 2.396-1.386 6.107-1.415 8.724-.398 2 .578 4.123 1.344 6.444.84 3.533-.735 7.827-2.226 11.36-.53 2.12 1.27 5.46 1.387 7.77.34 1.956-.68 4.206-1.46 6.503-.87 2.65.558 5.324 1.99 8.33 1.06 2.455-.645 4.615-1.884 7.62-1.53 3.544.03 6.383 1.914 10.03 1.238 1.44-.623 2.53-2.002 4.237-2.242.91-.22 2.177-.307 3.088 0" fill="#FFCE65"/><path d="M253.376 389.725s60.454-19.6 62.824-63.95l.188-95.385H190.366l.177 95.386c2.384 44.35 62.833 63.95 62.833 63.95z" stroke="#000" stroke-width="2.308"/><path d="M174.3 351.848c1.914 1.667 4.352 3.083 6.694 4.247 1.413 1.706 3.606 2.21 5.4 3.448 3.175 1.77 6.485 3.38 9.97 4.777 2.592.56 5.033 1.78 7.563 2.652 1.383.296 2.62 1.03 3.974 1.03 2.326 1.24 5.326 1.182 7.605 2.403 5.208 1.162 10.666 2.697 16.17 3.197 6.943.973 13.432.8 20.24 1.652 3.795-.19 7.858.31 11.83-.248 2.63.056 5.323-.68 7.838-.725.81-.26 1.548.355 2.34-.14 5.147-.71 9.74-1.214 14.71-2.124 6.624-1.24 13.302-3.034 19.743-4.747 2.886-1.356 5.945-2.036 8.712-3.685 1.03-.24 2.017-.605 3.002-.916.85-.306 1.646-.62 2.5-.926 4.532-2.505 9.447-4.54 13.67-7.662 1.06-.074 1.79-.93 2.78-1.238 3.352-.928 7.974-2.505 10.9-.308 1.896.365 1.78 2.21 2.075 3.74-.352 2.288-.794 4.658-.735 7.136-.24 1.12-.12 2.27-.12 3.433l.177 2.58c.852.12-.057.62.09 1.048.41 1.902.645 3.757 1.44 5.586.442.74-.293 1.475.75 1.86 5.578-1.3 11.284.297 16.668 1.46 1.72.87 3.56 1.606 5.282 2.228.795-.057 1.046.68 1.78.796 5.564 2.578 10.783 6.07 15.255 10.378.676.973 2.074 2.152 1.602 3.245-3.266-1.595-6.693-1.886-10.314-2.565-1.218.544-2.366-.195-3.486.68-2.032-.252-3.914.97-5.883 1.15-2.09.795-4.06 1.836-6 2.887v.322c3.18 3.128 6.677 5.75 9.327 9.317 1.03 1.24 2.367 2.523 3.36 3.89v.24c1.82 1.71 2.747 4.052 4.41 5.776h.175c-.056.665.68 1.033.942 1.59 1.266 2.155 2.62 4.36 3.12 6.635-.927.355-1.238-1.03-2.033-1.295-1.174-.352-2.327-1.59-3.424-2.02-1.547-1.103-3.313-1.9-4.858-3.007-9.808-5.352-22.183-6.396-33.333-4.478-5.4.602-11.11.928-16.55.853-2.4-.19-4.9-.487-6.753-2.092-1.102-1.46-1.777-3.183-2.19-4.79-.31-1.413-.618-2.946-1.116-4.3-.428-.24.188-.62-.248-.8-1.282.12-2.31 1.164-3.607 1.22-1.604 1.063-3.325 1.296-5.15 2.05-4.49 1.518-8.84 2.685-13.433 4.04-1.455-.295-2.19 1.12-3.677.624-.925.618-2.135.436-3.132.732-4.903 1.59-10.302 1.093-15.506 2.152-.678-.075-1.207-.25-1.957.057-4.78-.247-9.504.56-14.168-.188-1.162-.12-1.825.443-3.002-.056-1.53.12-2.707-.31-4.09.19-.69-.37-1.912-.19-2.824-.438-2.09.31-4.234-.916-6.382-.37-.427-.546-1.72-.312-2.325-.603-.498-.264-.97-.117-1.472-.057-3.265-.62-6.133-.737-9.327-1.593-7.412-1.236-13.725-3.095-20.83-5.232-.37-.484-1.045.132-1.237-.484-3.002-1.064-6.384-1.74-9.446-2.77-2.81-.973-5.708-2.02-8.576-2.772-.678 2.227-1.222 4.613-1.84 6.96-.413 1.292.06 2.813-.912 3.992-.735.66-1.045 1.844-2.204 1.694-1.473 1.18-3.813 1.37-5.59 1.24-6.678.44-12.507-.974-18.625-1.533-.562.12-1.354-.622-1.972-.236-.97-.62-2.015-.058-2.94-.444-.915-.056-1.71.444-2.44-.115-1.415.117-2.71-.176-4.005.174-1.575-.233-3.56.503-5.136.563-2.84.56-5.52.974-8.106 1.958-1.65.075-3.003 1.048-4.473 1.428-1.03.413-1.71 1.033-2.69 1.212 0 .617-.485-.063-.66.38-.856.488-1.838.796-2.65 1.284-1.71.867-3.063 2.136-4.725 3.313-.367.057-.427-.19-.6-.365 0-1.517.66-3.124 1.72-4.423 1.632-3.068 4.53-6.133 6.606-8.728-.055-.606.736-.606.796-1.165 3.385-4.424 7.798-8.168 11.535-11.793-2.147-2.446-5.765-2.758-8.474-3.997-.71-.368-1.883-.188-2.692-.66-1.28 0-2.632-.265-3.795-.148-.99-.117-2.223-.117-3.25 0-.796.443-1.414.386-2.385.56-1.838.62-3.678 1.296-5.384 1.972-.44.192-.797.31-1.293.25-.12-.486.68-1.18 1.028-1.665.266-.973 1.59-1.416 2.148-2.152.926-.797 1.853-1.65 2.5-2.634 1.294-.486 1.973-1.725 3.15-2.267.352-.68.795-.8 1.413-1.05 1.458-.852 2.826-2.09 4.353-2.767 1.027-.048 1.705-.916 2.69-1.093.485-.314 1.34-.505 1.898-.93 1.78-1.285 4.033-1.34 5.886-2.39 1.293-.247 2.5-.56 3.794-.87.866-.485 1.972-.308 3.002-.428 1.72-.31 3.44-.31 5.207-.31 1.353-.62 3.062.56 4.664.13.43.545 1.43.24 1.96.297.853-.99.733-2.255 1.47-3.43.617-3.42 1.85-6.694 1.79-10.32l-.07-2.393c.382-.304-.06-.555.13-.924.97-2.637.736-5.645 1.883-8.105 2.032-1.53 4.97-1.163 7.37-.912 1.665.52 3.427 1.257 5.017 2.17" fill="#000"/><path d="M170.035 352.028c4.766 2.164 9.002 5.232 13.594 8.135.542-.147.676.527 1.16.527 3.134 1.92 6.812 3.157 10.063 5.04.603-.057.99.736 1.63.428 3.266 1.547 6.828 2.34 10.007 3.876.31-.117.795 0 1.103.237 2.575.74 5.163 1.61 7.843 1.86.13.473.442-.057.75.24 1.16.383 2.512.5 3.543 1.116 1.793.12 3.56.53 5.09 1.344 1.06-.37 2.03.238 3 .367 2.09 0 4.18.545 6.266.62.293.544.735-.075 1.03.236l2.947.443v.057c1.972.177 3.81.296 5.823.503 2.088.236 4.475.06 6.56.12 1.414.056 3.43.296 4.972 0 3.486.353 7.283 0 10.9-.384.736.5 1.354-.353 2.15-.06 2.694.06 4.96-.68 7.474-.544.31-.62 1.046-.19 1.485-.443 1.705-.37 3.913-.296 5.5-.913 2.03-.132 3.94-.75 5.945-.925.248.323.44.057.618-.057 3.307-.62 6.06-.856 9.27-1.532.425-.24.852-.545 1.324-.297 2.53-1.37 5.59-1.485 8.297-2.533 2.753-.972 5.5-2.137 8.327-2.948 1.414-.74 3.075-1.18 4.473-1.89 3.573-1.664 7.18-3.444 10.49-5.54.558-.056.794-.676 1.472-.6 1.665-1.24 3.678-1.845 5.4-3.14 3.25-1.357 8.15-3.57 11.283-.37.117 1.725 0 3.2-.074 4.97-.307.12 0 .383 0 .56-.056.502-.235 1.22-.173 1.78h-.06c-.188 1.164.06 2.637.06 3.804.117 3.313.174 5.91 1.408 8.785.176.68.24 1.36.558 2.163.06.8.97 1.386.855 2.373.855 1.117.6 2.634 1.59 3.685-.31.557.487.797.308 1.488.99 1.53 1.102 3.3 1.34 5.097-.058.177-.238.294-.294.35-2.16-2.633-5.958-1.53-8.59-.97-10.24 3.805-19.497 9.698-29.542 14-4.24 2.196-8.77 3.2-13.3 4.717-9.152 2.287-18.464 3.948-27.97 4.864-12.373.856-24.643.177-37.09-1.104-4.09-.368-7.914-1.165-11.884-2.095-1.09.12-2.208-.485-3.25-.62-5.635-1.164-11.02-2.876-16.552-4.42-3.85-1.222-7.65-2.51-11.592-3.745-5.076-1.46-9.988-3.008-14.962-5.085-2.985-1.356-5.81-2.404-8.886-3.628-2.808-.797-5.342-2.52-8.326-3.018l-.132-.24c-.558.546-.794-.44-1.413-.188-2.324-.796-4.65-1.047-6.916-.06-.5-.13-.25-.733-.192-1.047.427-1.844 1.102-3.376 1.664-5.142.617-.503.677-1.18.913-1.784 2.883-6.94 4.59-14.205 4.795-22.062.237-.796 0-1.77.473-2.505-.175-.856.31-1.724.12-2.652.56-.31.927-1.89 2.16-1.89.927-.06 2.074-.207 2.944.06.85-.27 1.47.41 2.22.59m-14.55 25.94c.19.118.25-.208.44 0-.37.72-.866 1.343-.99 2.136-1.292 3.684-3.31 8.048-2.94 12.217.56.812.175 1.976.91 2.655 1.177 4.717 6.68 6.75 11.11 7.312 4.163.973 7.957 1.886 12.12 2.625.62.25 1.353.503 1.97.19 1.4.558 2.887.99 4.106 1.842.442.132.678.62 1.237.443.72.853 1.766 1.65 1.65 2.87-.312 1.225-1.767 1.55-2.753 1.96-1.12.208-1.795.064-2.838.387-6.856.737-13.83-1.16-20.522-1.78-.427 0-1.282-.797-1.66 0-3.237-.623-6.197-.057-9.182-.43-1.428.24-2.59.058-4 .43-2.943.308-6.06 1.047-8.83 2.196-.674.5-1.588-.06-2.204.677-2.943 1.062-5.942 2.358-8.637 4.008-.69-.132-.984.78-1.602.78.735-2.373 3.014-3.977 4.412-6.2 1.91-1.213 2.706-3.302 4.415-4.658.56-1.03 1.837-1.844 2.22-2.888.427-.357.854-.74 1.102-1.093l.06.055c.353-.99 1.53-1.24 1.766-2.152.866-.62 1.485-1.06 2.148-1.796l.133-.353 4.05-3.448c.235-.56-.25-.913-.74-1.146-1.795-.736-3.31-2.166-5.207-2.65-.13-.444-.618-.18-.678-.56-1.177-.118-2.516-.734-3.753-1.207-.985-.33-2.25-.33-3.235-.81-.5.543-.81-.62-1.295 0-.93-.37-1.84 0-2.75-.546-2.326.308-4.605.233-6.825.91l.09-.293c2.013-1.18 3.5-3.095 5.694-3.89 1.72-1.15 3.663-2.333 5.458-3.183 5.77-3.2 12.447-5.1 19.008-5.45 2.32.16 4.412.097 6.543.84" fill="#FFF"/><path d="M366.496 379.87c4.59 1.28 8.826 3.552 13.107 5.468 3.25 1.888 6.755 3.8 9.52 6.557.31.123.617.37.794.68-6.94-1.49-14.476-.31-20.478 3.26-1.283.236-2.52 1.044-3.384 2.035v.37c1.06.93 2.104 1.958 2.89 2.874 4.615 3.876 8.472 8.168 12.03 12.472.972 1.416 2.002 2.404 2.812 3.996.617 1.296 1.543 2.52 2.335 3.696-.794.353-1.045-.853-1.72-.943-6.52-3.537-13.317-6.44-20.735-7.488-5.942-.383-11.033-.383-16.743.296-1.03.147-2.267 0-3.355.383-.558-.176-1.237.31-1.972.12-.678.44-1.472-.06-2.204.308-3.62.057-7.783.503-11.288.19-1.66-.797-3.734-.926-4.78-2.653.31-.91.194-2.327 1.473-2.503 3.25-2.46 7.974-2.39 11.903-3.448 5.578-.735 10.958-1.154 15.314-4.85 1.354-1.96 3.62-3.313 4.004-5.7.85-2.285 1.47-4.6 1.09-7.02.118-.97-.5-2.003-.913-2.994-.795-1.855-1.22-3.816-2.262-5.597 4.22-.81 8.327.236 12.56.49" fill="#FFF"/><path d="M160.457 389.758c2.193.796 4.604 1.413 6.93 2.075 3.12 1.24 6.562 3.02 9.872 4.232 2.5.99 4.96 2.283 7.647 2.89.31.5 1.12.264 1.488.737.424-.122.794.237 1.207.383-.293 1.03-.65 2.075-1.03 3.125.118 1.22-.676 2.017-.736 3.313-.117.075-.06.255-.06.372-1.855-2.093-4.855-2.595-7.3-3.57-6.075-.974-12.093-1.77-17.963-3.566-.057-.53-.735-.18-1.103-.415-1.588-1.18-3.987-2.343-4.603-4.54-.307-.677-1.102-1.413-.603-2.284.663-.81.663-2.34 1.9-2.34.427-.604 1.515-.18 2.133-.604.75.25 1.485.365 2.22.19m194.098 2.02c0 1.293.795 2.343-.56 3.14-.5.852-.13 1.592-.808 2.445-1.103 1.68-2.928 2.716-4.784 3.51-1.09.99-2.56 1.415-4.03 1.65-.91.325-2.208.62-3.385.738-5.443 1.296-11.64.973-16.608 4.008-.798 0-1.282.592-1.897.913l-.24-.325c-.206-1.52-.794-3.008-.85-4.777 1.705-.502 2.807-1.607 4.528-2.092 1.033-.68 2.33-1.475 3.623-1.828 2.812-1.916 6.18-2.847 8.945-4.688.622-.06 1.09-.737 1.706-.857 2.414-.62 3.854-2.265 6.445-2.388 2.087-.85 4.352-1.41 6.545-.91l1.37 1.46" fill="#B2B2B2"/><path fill="#FFF" d="M354.24 395.212h.058l-.13.38h-.058l.13-.38"/><path d="M178.64 370.187l-.188-.033c-.12-.075-.177-.32-.147-.75 0-.43 0-.786-.03-1.08-.03-.28-.176-.62-.442-1.03-.146-.235-.367-.454-.618-.633-.266-.19-.514-.306-.765-.35-.338-.076-.675-.058-1.043.047-.37.116-.708.296-.986.586-.294.297-.5.68-.586 1.156-.087.38-.057.795.06 1.22.12.43.295.84.528 1.236.207.398.473.81.766 1.22.28.414.562.812.84 1.195.513.78.896 1.504 1.162 2.165.236.62.28 1.323.13 2.092-.19.9-.632 1.68-1.337 2.332-.704.68-1.53 1.133-2.47 1.412-.944.282-1.837.327-2.68.162-1.147-.248-2.03-.592-2.677-1.062-.618-.488-1.057-.928-1.264-1.37-.222-.44-.31-.71-.296-.857.03-.147.13-.323.325-.527.177-.206.47-.545.91-.99.444-.43.69-.707.766-.785.296.058.472.178.514.384.04.207.04.503 0 .898-.25 1.96.426 3.125 2 3.433.533.123 1.047.09 1.546-.056.528-.178.94-.44 1.293-.828.336-.35.557-.784.644-1.236.06-.326.06-.69-.03-1.03-.087-.37-.236-.733-.443-1.092-.205-.356-.456-.736-.763-1.182-.293-.425-.62-.886-.927-1.36-.515-.765-.838-1.5-1.014-2.208-.147-.694-.177-1.415-.03-2.182.146-.577.427-1.194.91-1.843.473-.635 1.148-1.135 1.958-1.52.84-.35 1.78-.44 2.868-.204.762.18 1.413.413 1.942.8.53.367.896.732 1.147 1.133.25.397.355.693.31.867-.03.192-.22.43-.514.71-.305.305-.762.688-1.365 1.16m6.87 10.167l2.94-4.157 3.15.353c-.116.177-.323.473-.648.928-.338.43-.765 1.014-1.264 1.742-.484.706-.926 1.356-1.294 1.945-.367.593-.588 1.015-.675 1.254-.238.675-.12 1.115.35 1.264.264.075.56.057.94-.044.37-.13.767-.28 1.18-.487.41-.207.734-.38 1.012-.515l-.395 1.22c-1.09.52-2.016.91-2.826 1.195-.823.282-1.5.31-2.057.132-.353-.102-.65-.296-.855-.587-.237-.266-.383-.62-.413-1.062-.057-.428.03-.91.236-1.443l-.03-.06c-2.016 1.22-3.587 1.667-4.704 1.296-.562-.19-.927-.558-1.148-1.094-.206-.53-.176-1.27.132-2.194.206-.665.633-1.518 1.252-2.505.615-1.015 1.383-2.08 2.324-3.245l3.062.368-2.31 3.246c-.28.383-.588.883-.97 1.502-.368.602-.574 1.03-.663 1.254-.236.752-.09 1.237.457 1.428.218.057.543 0 .986-.18.442-.158.884-.413 1.323-.72.425-.306.745-.587.91-.836" fill="#000"/><path d="M194.692 380.486c-.675.518-1.353.99-2.058 1.416-.675.443-1.294.78-1.826.987l-.37.884.24.102c.28-.102.602-.233.955-.395.353-.176.648-.325.896-.487.25-.162.557-.338.927-.56l.03.075c-2.178 2.917-4.224 5.952-6.15 9.107l2.855.647c.487-.827.956-1.563 1.383-2.212.413-.632 1.06-1.53 1.885-2.712.06.12.118.22.178.338.045.108.13.222.236.353.09.132.236.255.382.37.147.12.353.223.62.328.587.262 1.235.322 1.97.262.735-.1 1.473-.323 2.238-.706.765-.386 1.443-.886 2.047-1.503.62-.62 1.074-1.3 1.4-2.064.38-.9.47-1.712.266-2.445-.206-.736-.648-1.27-1.324-1.55-.5-.206-1.044-.28-1.63-.22-.574.057-1.267.323-2.046.75l-.03-.06 1.147-1.576-2.53-.59c-.45.446-1.01.93-1.688 1.46zm6.415 8.24c-.62.173-1.103.323-1.5.413-.367.09-.56.144-.59.174 0 .057-.028.192-.028.413.027.222.027.324.087.34.105.047.53-.028 1.297-.22.78-.206 1.56-.458 2.384-.766l.5-1.18c-.83.352-1.553.65-2.153.825zm-4.063-6.19c.266-.263.558-.437.866-.59.544-.206.99-.263 1.31-.12.29.135.47.327.587.56.09.252.12.53.09.856-.033.327-.12.632-.266.943-.234.56-.617 1.18-1.175 1.83-.56.646-1.147 1.178-1.793 1.53-.632.355-1.218.444-1.72.208-.28-.1-.454-.263-.573-.47-.103-.22-.19-.53-.267-.943l1.826-2.463c.5-.65.854-1.104 1.117-1.34z" fill="#000"/><path d="M208.552 392.114c-.56.09-1.102.033-1.65-.19-.558-.247-.97-.633-1.19-1.178-.237-.545-.267-1.134-.103-1.814.75.117 1.53.147 2.323.174.794 0 1.56-.117 2.294-.35.738-.267 1.237-.71 1.515-1.356.116-.297.164-.62.146-.973-.03-.32-.16-.676-.425-1.003-.25-.326-.618-.592-1.147-.8-.56-.247-1.207-.337-1.915-.292-.675.057-1.413.266-2.133.605-.736.338-1.4.81-1.987 1.397-.6.602-1.058 1.266-1.384 2.003-.425 1.03-.473 1.975-.117 2.828.35.84.97 1.46 1.854 1.83.56.247 1.118.385 1.68.412.573.033 1.19-.027 1.867-.174.664-.146 1.43-.416 2.31-.75l.5-1.18c-1.06.428-1.883.68-2.442.81zm-1.62-5.747c.428-.47.855-.81 1.294-1.03.457-.22.855-.263 1.192-.116.484.208.59.648.31 1.328-.28.65-.764 1.12-1.442 1.41-.675.33-1.482.416-2.44.22l.09-.22c.244-.59.58-1.117.997-1.59z" fill="#000"/><path d="M211.638 392.024l-1.147.458.384-1.134c.956-.44 1.886-.575 2.37-1.03-.514-.503-.66-1.03-.455-1.625.06-.174.247-.458.53-.823.26-.386.647-.71 1.09-.95.456-.262.94-.286 1.472-.083.56.192.71.59.485 1.194-.147.43-.544 1.017-1.16 1.73 1.237.305 2.588-.24 4.105-1.623l.99.323-1.972 2.373c-.075.075-.296.353-.676.81-.382.444-.708.87-1.003 1.267-.28.4-.473.75-.59 1.033-.116.353-.116.62-.03.856.09.204.237.35.443.44.236.087.502.087.825.03.293-.09.708-.24 1.207-.472.5-.24.81-.372 1.912-.944l-.442 1.224c-1.766.868-2.456 1.152-3.086 1.36-.635.217-1.208.364-1.678.424-.5.048-.925.018-1.292-.12-.442-.147-.765-.47-.926-.955-.162-.49-.162-1.015.06-1.605.188-.53.57-1.092 1.132-1.697.56-.602 1.207-1.164 1.915-1.667l-.033-.056c-.574.117-1.204.09-1.912-.048-.66.587-1.028.605-2.516 1.308" fill="#000"/><path d="M224.91 386.66c-.736.916-1.47 1.95-2.206 3.068-.735 1.123-1.383 2.197-1.912 3.185-.53 1.015-.884 1.89-1.06 2.655-.147.56-.206 1.092-.117 1.592.09.52.236.928.53 1.266.262.33.632.545 1.057.65.412.12.854.146 1.296.09.442-.06.94-.24 1.53-.533.618-.282 1.267-.677 1.972-1.165.266.402.532.68.765.874.22.207.5.324.824.413.38.1.75.117 1.13.057.37-.057.69-.206 1.78-1.032l.34-1.24c-1.014.77-1.223.916-1.4 1.048-.206.132-.412.25-.705.338-.295.087-.573.087-.854.03-.56-.146-.97-.53-1.236-1.12.532-.47 1.03-.972 1.485-1.475.456-.497.84-1.024 1.18-1.545.337-.53.543-.988.63-1.34.104-.396.104-.737.014-1.016-.074-.28-.28-.456-.558-.518-.427-.13-.897-.026-1.428.297-.545.325-1.03.77-1.474 1.36-.44.59-.75 1.252-.926 1.96-.192.69-.165 1.396.074 2.105-.442.34-.854.593-1.22.767-.37.176-.737.22-1.12.116-.337-.075-.543-.263-.66-.586-.116-.297-.116-.662-.014-1.093.188-.797.75-1.916 1.574-3.347l1.823-1.062c.397-.22.854-.516 1.398-.897.544-.398 1.075-.826 1.604-1.27.528-.457 1-.956 1.412-1.474.442-.528.707-1.028.84-1.55.115-.47.13-.9.03-1.24-.09-.363-.28-.527-.59-.527l-3.928.074c-.532.467-1.166 1.16-1.886 2.087zm5.323-.218c-.074.28-.263.623-.585 1.03-.338.4-.75.81-1.237 1.24-.497.427-1 .84-1.56 1.238-.54.37-1.09.72-1.617 1.015l-.03-.057c1.147-1.92 2.118-3.317 2.943-4.188.795-.856 1.395-1.24 1.81-1.134.31.075.398.368.278.856z" fill="#000"/><path d="M235.076 387.337c.162.132.308.25.427.353.132.117.266.207.413.264.146.107.325.146.514.194.367.057.806-.015 1.25-.25-.13.927-.41 1.576-.883 1.947-.47.383-1 .53-1.574.413-.676-.12-1.192-.413-1.575-.868.562-.574 1.03-1.254 1.428-2.053zM233 392.23l2.973-.083.12.027-1.722 3.33c-.1.21-.25.474-.395.785-.162.306-.263.543-.323.675-.088.146-.175.368-.292.71-.116.307-.188.592-.236.837-.03.222-.012.413.048.59.075.18.188.296.395.33.352.074.708-.016 1.09-.24.367-.24.854-.59 2.295-1.728l-.237 1.27c-1.75 1.4-2.62 1.96-3.426 2.313-.81.368-1.385.53-1.75.458-.444-.09-.81-.37-1.093-.87-.292-.52-.352-1.195-.206-2.063.18-1.078.544-2.152 1.09-3.242.54-1.064 1.097-2.11 1.67-3.1z" fill="#000"/><path d="M247.756 400.34c-.338.31-.65.517-.897.678-.267.147-.474.207-.647.19-.514-.076-.738-.44-.648-1.133.03-.326.176-.856.442-1.565.25-.736.472-1.326.675-1.77l1.324-3.21-.65-.06-2.44 1.047c-.235-.928-.9-1.412-1.94-1.517-.56-.057-1.18.057-1.887.353-.706.296-1.384.736-2.104 1.296-.705.56-1.282 1.237-1.72 2.003-.443.782-.71 1.608-.81 2.506-.09.94.074 1.74.513 2.38.442.654.94.99 1.56 1.05.56.055 1.072-.046 1.59-.313.527-.266 1-.62 1.44-1.014.456-.428.886-.898 1.325-1.428l.03.027c-.09.62-.12 1.18-.03 1.68.087.502.248.885.5 1.163.235.282.572.428.97.473.293.03.663-.03 1.028-.192.397-.117.764-.324 1.102-.56.338-.207.75-.5 1.147-.82.428-.338.75-.593.983-.8l.147-1.28c-.314.25-.637.53-1.007.81zm-3.926-5.97c.16.252.236.623.176 1.075-.045.443-.176.943-.412 1.566-.236.62-.53 1.208-.88 1.77-.357.56-.75 1.006-1.15 1.36-.44.352-.853.517-1.232.47-.31-.028-.56-.174-.735-.44-.18-.264-.25-.62-.207-1.03.06-.68.293-1.43.69-2.27.398-.855.87-1.568 1.4-2.124.557-.593 1.09-.856 1.618-.8.32.028.556.174.732.426zm18.243-7.09c.382 0 .82.105 1.338.296.53.174.955.264 1.37.264.338.033.646-.09.97-.264.297-.176.473-.266.56-.266.12 0 .266.03.47.16.178.118.283.253.283.4-.015.027-.03.084-.057.158-.045.048-.13.147-.248.267-.12.13-.24.28-.37.428-.428.443-.78 1.002-1.046 1.652-.262.646-.498 1.59-.707 2.786-.176 1.254-.353 2.256-.472 3.037-.143.785-.307 1.536-.525 2.254-.188.737-.47 1.387-.81 2.004-.337.622-.78 1.182-1.293 1.712-.454.458-1.013.856-1.72 1.164-.724.337-1.504.502-2.388.487-.885 0-1.605-.147-2.193-.413-.588-.282-1.012-.59-1.293-.976-.28-.383-.426-.706-.426-.97 0-.33.206-.652.618-1.005.147-.084.326-.222.517-.38.19-.177.337-.267.453-.327.1-.057.188-.105.292-.105.266 0 .395.077.442.224.045.176.057.473.057.868 0 .534.12 1.016.384 1.488.236.47.66.71 1.233.71.327 0 .59-.057.84-.207.25-.13.443-.295.59-.44.337-.31.606-.708.81-1.178.205-.443.367-.958.483-1.535.134-.57.25-1.192.367-1.886.104-.675.206-1.205.28-1.588.222-.883.44-1.635.68-2.242.22-.608.498-1.152.808-1.625.31-.47.676-.93 1.076-1.357.428-.44.957-.97 1.647-1.61l-.044-.04c-.394.173-.765.293-1.117.35-.354.06-.634.09-.823.09-.206 0-.412-.03-.648-.102-.25-.056-.485-.13-.706-.206-.248-.074-.43-.13-.592-.187-.146-.033-.292-.063-.454-.063-.633 0-1.147.24-1.547.71-.412.44-.62.912-.62 1.412 0 .353.06.634.208.81.132.193.308.34.56.53.22.192.325.34.325.46-.016.247-.178.526-.473.852-.308.323-.59.47-.822.47-.266 0-.544-.207-.825-.605-.236-.414-.382-.902-.367-1.46 0-.486.13-1.03.44-1.624.307-.59.677-1.15 1.16-1.65.503-.533 1.03-.943 1.59-1.27.592-.295 1.166-.457 1.74-.457m5.942 6.953l2.75-.71c-.223.71-.414 1.386-.56 2.036-.16.634-.28 1.21-.338 1.71l.057.032c.56-.736 1.046-1.36 1.485-1.86.427-.517.926-1.002 1.473-1.442.558-.44 1.102-.69 1.604-.736.26-.018.5.033.73.147.24.12.412.28.53.503.13.24.22.503.235.8.03.337-.015.795-.13 1.358-.12.56-.282 1.206-.503 1.975-.207.73-.368 1.31-.458 1.707-.12.4-.158.707-.146.91.03.443.265.68.647.65.263-.033.634-.267 1.118-.767.47-.454.91-1 1.368-1.606l.106 1.27c-.646.81-1.354 1.517-2.104 2.136-.75.623-1.484.943-2.193.99-.436.03-.85-.104-1.233-.367-.353-.312-.56-.81-.622-1.533-.03-.413.033-.91.164-1.532.146-.62.337-1.386.603-2.317.263-.926.382-1.485.382-1.635 0-.248-.134-.368-.325-.353-.468.034-1.5 1.183-3.088 3.452-.09.823-.147 1.544-.147 2.125 0 .56.03 1.18.075 1.884l-2.47.782c-.162-.868-.25-1.667-.31-2.36-.088-1.235 0-2.43.237-3.58.25-1.193.59-2.402 1.06-3.668m24.1-8.284c.07-.033.19 0 .352.087.174.09.305.18.395.283-.28.37-.457.784-.576 1.195-.118.413-.175.942-.175 1.59 0 .678.057 1.55.19 2.687.133 1.002.163 1.945.133 2.768-.03.823-.148 1.563-.34 2.212-.19.623-.47 1.236-.838 1.83-.427.678-1.013 1.295-1.766 1.884-.765.56-1.622.942-2.62 1.18-1.004.22-1.826.142-2.47-.24-.646-.384-1.047-.887-1.208-1.533-.057-.296-.03-.518.09-.71.16-.266.472-.59.94-1.017.452-.414.766-.62.885-.663.133-.018.25-.018.384.027.09.06.176.147.206.297.033.09.06.358.09.828.03.473.056.77.086.9.206.87.708 1.237 1.5 1.06.24-.075.472-.19.738-.428.248-.207.44-.414.588-.632.383-.665.62-1.488.676-2.494.056-1.002.03-2.02-.117-3.08-.1-1.104-.145-2.062-.145-2.816.03-.766.104-1.413.236-1.9.12-.503.326-.958.59-1.398.38-.593.797-1.063 1.236-1.386.45-.305.76-.503.938-.53zm-1.973-2.05c.885-.207 1.676-.263 2.352-.174.708.07 1.293.25 1.795.542.486.266.887.65 1.24 1.093.307.443.53.93.65 1.445.147.695.174 1.296.117 1.844-.087.545-.28 1.047-.59 1.532-.175.28-.41.557-.707.81-.267.265-.503.415-.676.456-.338.075-.648-.018-1.004-.248-.12-.063-.176-.147-.176-.24-.03-.116 0-.236.09-.37.056-.16.16-.34.248-.53.6-1.15.78-2.254.528-3.314-.13-.574-.397-1.047-.75-1.385-.385-.35-.824-.59-1.356-.68-.502-.084-1.028-.057-1.6.063-1.017.233-1.928.676-2.723 1.293-.793.62-1.35 1.343-1.734 2.124-.352.784-.484 1.476-.352 2.125.12.487.337.825.65 1.047.174.086.365.16.56.19.206.03.337.09.427.12.073.03.13.148.16.324.044.18-.19.46-.69.857-.515.383-.864.59-1.044.647-.337.057-.717-.057-1.117-.437-.368-.386-.62-.826-.733-1.36-.146-.592-.146-1.208 0-1.888.117-.647.427-1.357.88-2.06.56-.916 1.295-1.71 2.21-2.358.893-.685 2.022-1.155 3.348-1.466zm8.09 12.04l-.25.058-.31-.898c.47-.958.767-1.772.87-2.448-.71-.042-1.164-.366-1.37-.958-.056-.177-.12-.515-.12-.988-.03-.452.075-.928.267-1.41.208-.487.56-.81 1.104-1.005.544-.177.926.048 1.132.634.147.44.19 1.133.16 2.063 1.16-.502 1.884-1.8 2.192-3.8l.956-.387-.06 3.107c0 .09 0 .428-.015 1.015 0 .62 0 1.136.03 1.636.03.485.086.87.175 1.16.117.354.293.576.502.693.206.106.412.13.63.055.222-.074.428-.248.634-.487.207-.25.41-.617.66-1.117.25-.487.4-.795.784-1.59l.415 1.238c-.694 1.43-1.076 2.095-1.447 2.655-.337.56-.705 1.015-1.045 1.387-.338.352-.69.588-1.043.705-.47.165-.91.09-1.354-.162-.41-.263-.75-.69-.94-1.296-.176-.517-.236-1.206-.176-2.035.057-.81.206-1.635.44-2.494l-.058-.028c-.382.44-.884.826-1.5 1.164-.143.877-.555 2.044-1.26 3.53" fill="#000"/><path d="M315.536 388.67c-.056.172-.116.322-.19.47-.058.145-.16.28-.28.382-.118.12-.28.24-.5.326-.455.192-.957.192-1.444-.03 0-1.092-.1-2.065-.236-2.933-.146-.84-.352-1.577-.62-2.197-.145-.35-.264-.616-.384-.78-.13-.148-.382-.24-.75-.24-.367-.013-.9.13-1.574.4-.586.25-1.147.647-1.69 1.18-.56.527-1.014 1.164-1.37 1.885-.367.74-.558 1.563-.603 2.48-.042.882.132 1.81.52 2.74.31.752.678 1.296 1.177 1.68.457.38.956.59 1.473.646.5.06.97 0 1.395-.18.708-.295 1.267-.765 1.69-1.426.414-.662.72-1.428.87-2.33.473.076.837.09 1.103.076.293-.014.544-.086.807-.188.337-.134.603-.338.81-.577.22-.264.397-.575.678-1.323l-.484-1.195c-.25.686-.34.952-.398 1.132zm-3.752 3.136c-.176.365-.368.57-.6.68-.443.176-.855.1-1.252-.222-.398-.34-.71-.797-.954-1.386-.355-.865-.573-1.74-.678-2.577-.09-.84 0-1.576.263-2.225.266-.62.678-1.06 1.294-1.323.24-.09.412-.146.502-.122-.65 1.182-.737 2.344-.265 3.508.412 1.003 1.102 1.77 2.103 2.27-.105.59-.225 1.03-.416 1.4zm10.872-5.172c-.293.5-.708.853-1.234 1.092-.56.234-1.117.263-1.68.084-.555-.207-1.027-.59-1.382-1.15.558-.5 1.147-1.03 1.676-1.604.543-.577.986-1.224 1.293-1.915.324-.71.336-1.384.06-2.034-.148-.308-.34-.544-.623-.78-.263-.207-.62-.327-1.013-.354-.412-.044-.867.058-1.368.294-.574.24-1.073.65-1.5 1.213-.442.543-.795 1.205-1.03 1.97-.237.766-.354 1.577-.327 2.418.044.856.205 1.638.543 2.36.45 1.046 1.117 1.723 1.972 2.034.866.312 1.736.268 2.632-.134.532-.248 1.016-.556 1.413-.954.443-.4.796-.886 1.15-1.49.34-.573.677-1.327 1.03-2.195l-.53-1.195c-.406 1.072-.776 1.853-1.084 2.34zm-5.297-2.712c-.06-.62-.017-1.18.117-1.65.147-.472.383-.795.735-.942.47-.207.885.015 1.177.676.262.635.307 1.326.086 2.036-.248.71-.75 1.358-1.53 1.945l-.1-.233c-.252-.596-.428-1.2-.488-1.832zm4.842-9.434c0 .987.042 2.095.143 3.358.102 1.24.28 2.478.514 3.684.237 1.24.56 2.3.972 3.215.412.943.896 1.592 1.443 1.945.53.354 1 .503 1.44.47.44-.03.822-.116 1.132-.248.517-.25 1.076-.71 1.605-1.416.555-.72 1.132-1.757 1.703-3.125l-.53-1.177c-.414 1.078-.794 1.86-1.09 2.374-.28.526-.648.898-1.117 1.116-.383.147-.766.123-1.133-.16-.368-.265-.69-.678-.923-1.223-.25-.527-.443-1.063-.592-1.563.25-.766.487-1.565.678-2.433.22-.87.353-1.74.412-2.595.09-.87.06-1.726-.074-2.61-.117-.903-.365-1.74-.717-2.567-.236-.56-.517-.943-.795-1.207-.296-.25-.56-.25-.795 0l-2.204 2.152c-.06.356-.074 1.035-.074 2.008zm3.28-2.107c.24.487.383 1.106.47 1.815.09.692.1 1.413.074 2.152-.03.77-.105 1.476-.22 2.126-.12.646-.267 1.182-.4 1.592l-.055-.033c-.384-1.618-.632-3.064-.78-4.303-.15-1.237-.207-2.21-.177-2.92.03-.707.146-1.075.295-1.147.263-.122.53.11.795.72z" fill="#000"/><path d="M329.01 370.51c.19.033.383.06.53.075.176.015.337.015.5 0 .175-.015.354-.057.53-.132.353-.176.66-.455.91-.886.396.84.53 1.548.34 2.107-.177.575-.545.958-1.103 1.195-.622.28-1.208.327-1.796.144.178-.796.196-1.625.09-2.505zm.957 5.23l2.426-1.692.12-.057.384 3.743c.03.237.057.515.087.868.045.34.072.58.102.75.03.15.074.383.16.74.058.322.147.603.25.822.09.222.205.372.37.49.146.1.32.13.498.04.326-.146.604-.412.798-.796.144-.386.383-.942.62-1.68l.512 1.18c-.367 1.12-.782 2.063-1.263 2.802-.485.75-.87 1.21-1.217 1.344-.416.177-.87.132-1.384-.132-.517-.25-.94-.796-1.294-1.607-.44-.99-.72-2.09-.855-3.288-.15-1.207-.253-2.37-.312-3.523z" fill="#000"/><path d="M345.015 375.847c-.056.173-.116.326-.188.455-.075.158-.164.28-.28.395-.132.12-.297.22-.503.296-.47.206-.956.206-1.44-.018 0-1.104-.104-2.077-.236-2.93-.143-.853-.352-1.593-.603-2.215-.162-.35-.28-.605-.395-.763-.13-.147-.382-.24-.738-.24-.35-.03-.88.12-1.586.395-.56.255-1.132.623-1.69 1.153-.56.544-1.014 1.164-1.37 1.9-.37.725-.558 1.566-.603 2.45-.075.896.12 1.84.487 2.77.31.736.705 1.296 1.177 1.68.47.38.956.586 1.473.646.502.06.97 0 1.395-.175.71-.28 1.282-.766 1.69-1.413.44-.65.736-1.444.898-2.327.454.075.81.102 1.102.075.263-.018.53-.075.795-.195.323-.117.603-.323.824-.56.222-.263.38-.59.526-.975l-.5-1.195c-.085.348-.172.6-.235.794zm-3.764 3.12c-.174.34-.38.558-.602.648-.454.176-.854.117-1.248-.207-.384-.326-.71-.8-.943-1.37-.352-.9-.573-1.757-.678-2.598-.09-.84 0-1.575.264-2.194.263-.665.69-1.093 1.31-1.36.25-.086.41-.13.5-.12-.66 1.18-.75 2.36-.28 3.51.397 1.014 1.102 1.768 2.088 2.283-.086.58-.233 1.04-.412 1.407z" fill="#000"/><path d="M162.886 108.632l7.974-23.42 8.004 23.42 24.7.383-19.76 14.858 7.267 23.64-20.21-14.24-20.186 14.24 7.265-23.64-19.77-14.858 24.717-.383z" fill="#FFCE65"/><path d="M162.886 108.632l7.974-23.42 8.004 23.42 24.7.383-19.76 14.858 7.267 23.64-20.21-14.24-20.186 14.24 7.265-23.64-19.77-14.858 24.717-.383z" stroke="#000" stroke-width=".692"/><path d="M170.86 133.274c.102-.455 0-13.618 0-13.618l12.945 4.21m-4.94-15.234l-8.005 11.027V85.21m-32.69 23.803l32.69 10.644-12.92 4.213m33.13 23.64l-20.213-27.857 32.706-10.644m-40.677-.38l7.974 11.026-20.185 27.852" stroke="#000" stroke-width=".692"/><path d="M245.39 108.632l7.986-23.42 7.988 23.42 24.702.383-19.757 14.858 7.264 23.64-20.2-14.24-20.21 14.24 7.28-23.64-19.757-14.858 24.702-.383z" fill="#FFCE65"/><path d="M245.39 108.632l7.986-23.42 7.988 23.42 24.702.383-19.757 14.858 7.264 23.64-20.2-14.24-20.21 14.24 7.28-23.64-19.757-14.858 24.702-.383z" stroke="#000" stroke-width=".692"/><path d="M253.376 133.274c.074-.455 0-13.618 0-13.618l12.933 4.21m-4.947-15.234l-7.988 11.027V85.21m-32.688 23.803l32.688 10.644-12.93 4.213m33.13 23.64l-20.203-27.857 32.693-10.644m-40.676-.38l7.99 11.026-20.214 27.852" stroke="#000" stroke-width=".692"/><path d="M327.158 108.632l8.004-23.42 7.986 23.42 24.705.383-19.76 14.858 7.283 23.64-20.214-14.24-20.214 14.24 7.28-23.64-19.757-14.858 24.69-.383z" fill="#FFCE65"/><path d="M327.158 108.632l8.004-23.42 7.986 23.42 24.705.383-19.76 14.858 7.283 23.64-20.214-14.24-20.214 14.24 7.28-23.64-19.757-14.858 24.69-.383z" stroke="#000" stroke-width=".692"/><path d="M335.162 133.274c.087-.455 0-13.618 0-13.618l12.93 4.21m-4.944-15.234l-7.986 11.027V85.21m-32.69 23.803l32.69 10.644-12.93 4.213m33.144 23.64l-20.21-27.857 32.69-10.644m-40.698-.38l8.004 11.026-20.217 27.852" stroke="#000" stroke-width=".692"/><path d="M361.67 362.947h8.93v1.31h-3.72v9.698h-1.47v-9.698h-3.74v-1.31m19.36 11.008v-6.498c0-.338.034-1.724.034-2.757h-.033l-3.084 9.258h-1.473l-3.092-9.225h-.026c0 1.003.027 2.39.027 2.727v6.498h-1.442v-11.01h2.12l3.153 9.298h.028l3.12-9.3h2.135v11.012l-1.46-.003" fill="#000"/></g></svg>