<svg width="512" height="512" viewBox="0 0 512 512" xmlns="http://www.w3.org/2000/svg"><title>stoke-city</title><g fill="none" fill-rule="evenodd"><path d="M414.46 326.83l-.116-.114-15.896-13.924-3.387-3.094c-3.21-3.216-8.15-7.146-16.65-6.87-1.4-.023-2.79.12-4.18.375 1.46-6.753 2.55-13.887 3.21-21.41.46-5.212.71-10.38.73-15.355l.01-1.983-.11-4.074.01.34V63.06H132.92v197.67l.013-.346-.106 4.078.008 1.984c.024 4.984.27 10.148.73 15.355.66 7.51 1.744 14.63 3.198 21.38-1.318-.23-2.643-.36-3.982-.34-8.49-.27-13.43 3.66-16.64 6.87l-3.39 3.1-15.9 13.923-.11.114c-5.49 5.484-6.03 10.82-5.52 14.34 1.46 9.995 14.15 17.39 15.43 18.08l7.45-5.85c5.26-2.045 8.3.835 8.3.835.52.304 2.29 1.75 3.4 7.59l.64 3.373-7.07 6.12L121.88 375c7.32 10.684 10.144 13.98 14.906 19.345 31.784 35.817 72.716 54.75 118.37 54.75h.735c45.657 0 86.59-18.93 118.37-54.75 4.76-5.357 7.586-8.65 14.906-19.345l2.51-3.665-6.903-5.98.665-3.514c1.105-5.833 2.88-7.28 3.395-7.59 0 0 3.042-2.88 8.3-.83l7.45 5.85c1.276-.69 13.97-8.085 15.426-18.08.514-3.517-.034-8.856-5.52-14.337z" fill="#FFF"/><path d="M395.344 315.538s8.054 17.244-16.353 19.056l25.15 19.72s20.17-11.793 7.48-24.462l-16.27-14.314z" fill="#1B449C"/><path d="M390.3 326.74c4.457-4.692.184-12.596.184-12.596s-3.868-7.26-11.665-6.904c-1.91-.042-3.84.3-5.76.93-1.61 6.352-3.57 12.34-5.9 17.887l.01.005c-.33.818-3.07 7.507-8.56 16.647l2.93 2.54 18.9 16.33c2.335-16.03 11.32-12.11 11.32-12.11l-21.205-16.91c16.14-.62 19.73-5.838 19.73-5.838z" fill="#E03A3E"/><path d="M115.652 315.733s-8.057 17.244 16.35 19.056l-25.15 19.72s-20.16-11.8-7.47-24.47l16.27-14.32z" fill="#1B449C"/><path d="M120.693 326.933c-4.46-4.69-.18-12.595-.18-12.595s3.868-7.258 11.66-6.904c1.91-.043 3.842.3 5.76.93 1.608 6.35 3.563 12.34 5.9 17.888l-.015.007c.324.81 3.066 7.5 8.554 16.64-.653.57-1.668 1.44-2.936 2.54l-18.896 16.34c-2.34-16.03-11.32-12.12-11.32-12.12l21.203-16.907c-16.137-.617-19.732-5.833-19.732-5.833z" fill="#E03A3E"/><path d="M352.172 343.696c6.904-10.807 10.187-18.962 10.392-19.48l-.1.24c5.217-12.28 8.59-26.78 10.027-43.1.45-5.04.69-10.067.71-14.94.01-.692.01-1.346.01-1.96 0-1.42-.02-2.645-.09-3.735V68.03H137.89v192.69c-.075 1.09-.095 2.317-.095 3.736 0 .614.007 1.27.01 1.96.02 4.87.266 9.9.708 14.94 1.43 16.236 4.78 30.672 9.948 42.912.41 1.03 3.68 9.023 10.32 19.482l-32.81 28.42c7.296 10.653 10.02 13.784 14.52 18.853 30.818 34.73 70.468 53.08 114.656 53.08h.735c44.2 0 83.843-18.35 114.655-53.08 4.504-5.07 7.23-8.2 14.522-18.854l-32.87-28.48z" fill="#1B449C"/><path d="M148.674 78.825v182.073s-1.724 32.24 9.784 59.333c0 0 27.364 69.89 96.67 69.89 69.676 0 97.41-69.88 97.41-69.88 11.505-27.09 9.782-59.33 9.782-59.33V78.83H148.674z" fill="#FFF"/><path d="M235.685 182.325h39.422V336.61h-39.422V182.325zm-32.383-58.317v-26c-5.346.283-10.28 1.538-15.084 3.706l3.09-9.64h38.252l-4.117 8.557c-3.29-1.65-6.922-2.51-11.31-2.62v26c0 4.11.547 7.75 2.193 11.24h-15.218c1.644-3.48 2.194-7.13 2.194-11.23zm73.722 0V103.31c0-4.106-.55-7.754-2.19-11.235h15.215c-1.65 3.48-2.2 7.13-2.2 11.236v8.33l13.16-14.94c1.3-1.48 1.99-2.79 1.99-4.11 0-.17-.07-.34-.07-.51h17c-4.05 2.51-7.2 4.79-9.26 7.02l-11.31 12.26 15.35 18.13c1.44 1.71 3.432 3.597 5.964 5.766h-16.99c.065-.517.136-1.03.136-1.483 0-1.714-.76-3.086-2.13-4.733l-13.85-16.65v11.63c0 4.107.554 7.75 2.196 11.236h-15.21c1.64-3.483 2.19-7.13 2.19-11.235zm47.848 0V103.31c0-4.106-.545-7.754-2.192-11.235h29.41l-4.865 8.44c-3.088-1.198-6.858-1.824-11.52-1.937v11.917h14.88l-5.556 7.81c-2.13-1.31-4.94-1.88-8.37-1.88h-.96V128.8c1.44.057 2.88.114 4.25.114 6.17 0 11.31-.687 15.62-2.283l-4.11 8.62h-28.79c1.644-3.48 2.19-7.13 2.19-11.23zm-75.418-27.06c-6.972 0-10.198 8.082-10.198 16.563 0 8.48 3.226 16.57 10.198 16.57 6.967 0 10.195-8.08 10.195-16.56 0-8.48-3.23-16.56-10.2-16.56zm22.504 16.773c0 14.25-10.058 21.95-22.468 21.95s-22.47-7.29-22.47-21.94c0-12.12 10.06-21.95 22.47-21.95 12.41 0 22.468 9.83 22.468 21.95z" fill="#E03A3E"/><path d="M238.52 368.023c0-4.938 1.103-7.403 3.486-7.403 2.343 0 3.49 2.465 3.49 7.403 0 4.886-1.233 7.357-3.49 7.357-2.504 0-3.486-2.372-3.486-7.357zm7.675-9.065c3.158-1.008 4.804-3.573 4.804-7.104 0-5.082-3.09-7.903-8.71-7.903-5.87 0-9.32 3.18-9.32 7.91 0 3.58 1.72 6.15 4.84 7.06v.35c-3.95 1.06-5.96 4.18-5.96 9.07 0 6.044 3.65 8.664 10.14 9.92 6.514 1.268 10.14-1.856 10.14-8 0-4.43-2.138-10.025-5.95-10.984v-.3zm-7.474-6.646c0-3.78 1.11-5.744 3.29-5.744 2.35 0 3.25 1.812 3.25 5.745 0 3.823-1.06 5.686-3.24 5.686-2.22 0-3.28-1.87-3.28-5.69zm23.38 7.983v-.153c0-8.24 1.71-13.028 5.44-13.028 1.77 0 3.12.974 4.36 2.985l.25-.11c.085-1.55.29-3.14.573-4.9-1.68-.778-5.15-1.188-6.877-1.188-8.127 0-10.882 9.276-10.882 21.895 0 9.63 3.646 14.3 10.43 13.227 6.168-.97 9.94-4.43 9.94-11.79 0-6.028-2.955-9.585-7.595-9.585-2.505 0-4.56 1.03-5.625 2.623zm6.36 8.294c0 5.2-1.02 7.77-3.07 7.77-2.13 0-3.2-2.63-3.2-7.99 0-4.74 1.028-7.06 3.12-7.06 2.298 0 3.16 2.316 3.16 7.262z" fill="#1B449C"/><path d="M198.27 357.41c-3.077-2.718-6.057-5.68-8.945-8.902-14.233-15.843-20.764-32.078-20.825-32.24l-.058-.143-.054-.12c-8.115-19.11-9.007-41.62-9.007-50.58 0-2.46.07-3.9.07-3.963l.02-.29v-116.83h38.71l.1 213.07zm114.46 0c3.07-2.718 6.056-5.68 8.94-8.902 14.228-15.843 20.766-32.078 20.832-32.24l.056-.143.05-.12c8.122-19.11 9.012-41.62 9.012-50.58 0-2.46-.066-3.9-.068-3.963l-.017-.29v-116.83h-38.7l-.105 213.07z" fill="#E03A3E"/><path d="M222.724 416.757c.396.14.77.24 1.147.333 5.77 1.5 9.33-.28 10.66-5.386 1.18-4.544-.7-7.06-5.57-8.33-2.02-.524-3.98-.802-5.79-1.277-.65-.17-1.45-.447-2.39-.807-.84 4.516-1.83 8.582-2.75 12.142-.83 3.2-1.86 7.178-3.49 11.906 1.24.212 2.26.403 3.01.598.81.21 1.76.533 2.92.947.51-2.99.87-4.775 1.02-5.338l1.25-4.788zm.62-2.51l1.398-5.39c.234-.913.41-1.58.52-2.004.043-.174.184-.704.45-1.613.58.075.96.137 1.148.188 2.31.6 3.12 2.353 2.39 5.168-.915 3.524-2.6 4.513-5.907 3.65zm15.438 4.887c.007 8.1 4.342 12.545 12.13 12.54 8.052-.01 12.67-4.94 12.66-13.473-.01-7.91-4.47-12.36-12.102-12.35-7.885.01-12.696 4.82-12.688 13.29zm5.85-.335c-.01-6.75 2.573-10.58 6.55-10.59 3.944 0 6.534 3.75 6.54 10.57.008 6.75-2.642 10.51-6.52 10.51-3.977 0-6.563-3.72-6.57-10.508zm33.026-11.28c.218 2.02.51 3.75.743 5.07.1.53.19 1.04.25 1.47.91 5.23 1.76 10.18 2.96 14.89-1.42.13-2.45.23-3.05.34-.79.13-1.76.37-2.99.69-.41-4.506-1.01-8.57-1.65-12.3-.34-1.976-.97-5.08-1.78-9.22-1.94.33-3.843.812-5.67 1.42-.05-.69-.1-1.35-.19-1.885-.054-.32-.207-.81-.4-1.555 3.487-.453 6.36-.84 8.557-1.216 2.096-.366 4.904-.96 8.435-1.71.07.76.12 1.27.18 1.59.09.534.235 1.175.414 1.845-1.92.034-3.856.22-5.79.555zm20.642-6.06c.546 1.96 1.118 3.61 1.564 4.88.183.513.346 1 .496 1.41 1.747 5.013 3.403 9.75 5.36 14.19-1.37.37-2.368.64-2.95.84-.757.27-1.68.66-2.83 1.182-1.15-4.376-2.412-8.29-3.662-11.86-.66-1.887-1.792-4.846-3.277-8.796-1.85.65-3.66 1.434-5.36 2.34-.16-.676-.31-1.315-.5-1.83-.1-.313-.34-.768-.65-1.47 3.37-1.025 6.14-1.878 8.24-2.61 2.01-.7 4.68-1.75 8.04-3.083.19.74.33 1.233.44 1.54.18.516.43 1.123.72 1.755-1.885.35-3.76.852-5.613 1.5zm16 5.27c-.4-.736-.802-1.47-1.207-2.2-.244-.45-.487-.898-.732-1.34-1.74-3.19-3.5-6.337-5.6-9.37 2.74-1.38 4.61-2.32 5.6-2.86 1.53-.84 3.5-2 5.88-3.44.28.642.488 1.15.678 1.502.195.35.496.766.884 1.342-1.64.69-3.147 1.44-4.587 2.22-.626.346-1.245.685-1.82 1.04.814 1.627 1.64 3.21 2.476 4.74l.93 1.69c1.518-.916 3.53-2.14 6.034-3.68.28.72.53 1.243.704 1.563.156.285.473.73.913 1.406-2.205 1-4.32 2.036-6.345 3.103l1.9 3.483c.877 1.594 1.676 2.98 2.465 4.165 1.95-1.07 3.904-2.266 5.94-3.72.277.64.517 1.132.74 1.545.16.286.49.766.933 1.44-3.302 1.685-5.71 2.923-7.184 3.73-1.104.61-2.528 1.42-4.208 2.52-1.32-3.22-2.86-6.11-4.382-8.883zm23.267-3.15c.874-.818 1.59-1.47 2.18-1.925.553-.438 1.362-.976 2.367-1.62-1.557-1.69-3.02-3.46-4.452-5.29l-2.924-3.76c5.727 2.262 9.696 4.1 11.953 5.475.9-.84 1.7-1.55 2.41-2.11.61-.47 1.6-1.15 2.88-2.01-3.66-1.294-8.07-3.02-13.24-5.4 2.26-2.134 2.36-5.16.21-7.913-2.79-3.58-5.81-3.63-9.65-.63-1.85 1.45-3.39 2.975-4.97 4.21-.58.455-1.26.893-2.02 1.393 3.17 3.434 5.76 6.714 7.98 9.55.245.32.515.664.78 1.01 1.9 2.432 4.13 5.35 6.51 9.03zm-3.973-14.063l-3.083-3.955c-.62-.803-1.47-1.893-2.45-3.3.36-.277.59-.41.66-.47 2.34-1.824 4.17-1.683 6.05.72 2.08 2.676 1.71 4.766-1.06 6.927-.03.02-.073.06-.1.08zm18.416-7.815l.362-.413c2.71 1.657 4.88 1.503 6.687-.555 1.64-1.87 1.57-3.897-.09-5.364-1.61-1.42-3.19-.83-6.05.27-4.1 1.586-6.72 2.2-9.73-.44-3.496-3.078-3.79-7.37-.276-11.368 1.427-1.62 3.037-2.74 4.956-3.33.84 1.47 1.737 2.82 2.728 4.12l-.26.29c-2.584-1.07-4.43-.85-5.893.82-1.513 1.724-1.323 3.66.017 4.83 1.61 1.414 3.226.516 6.495-.726 3.81-1.416 6.296-2.15 9.46.635 3.826 3.37 3.96 8 .09 12.41-1.45 1.64-3.07 2.836-4.687 3.52-1.36-1.71-2.65-3.27-3.82-4.694z" fill="#FFF"/><path d="M183.535 113.177c-1.503-1.064-5.12-2.8-9.352-5.22-3.363-1.942-5.91-3.57-5.823-5.904.087-2.507 2.36-4.703 6.266-4.57 3.975.134 8.065 2.772 11.087 6.47l-.156-10.792c-2.72-.83-5.447-1.26-8.32-1.36-11.72-.39-18.96 4.5-19.24 12.19-.176 4.96 3.002 8.15 9.116 11.55 5.502 3.1 10.172 4.48 10.32 8.34h-.003c-.105 2.826-2.72 5.25-6.8 5.11-4.15-.14-8.385-3.003-11.53-7.16l.132 12.14c2.83.93 6.44 1.44 9.442 1.54 12.237.41 19.66-5.06 19.976-13.73-.02-3.412-1.643-6.13-5.115-8.59z" fill="#E03A3E"/><path d="M166.06 367.66c-1.545 1.325-2.793 2.543-3.757 3.483-.39.38-.755.73-1.067 1.04-3.804 3.704-7.4 7.208-10.59 10.86-.915-1.09-1.58-1.882-2.008-2.324-.56-.58-1.31-1.25-2.264-2.07 3.477-2.89 6.486-5.69 9.19-8.33 1.436-1.4 3.636-3.68 6.59-6.69-1.373-1.41-2.848-2.72-4.38-3.89.54-.436 1.05-.84 1.44-1.226.237-.23.554-.63 1.06-1.21 2.346 2.623 4.29 4.78 5.842 6.37 1.482 1.53 3.562 3.51 6.185 5.996-.59.487-.98.82-1.21 1.05-.39.384-.83.857-1.29 1.39-1.12-1.57-2.36-3.06-3.74-4.466zm1.1 16.884c.32-.398.626-.762.9-1.097 2.287-2.78 4.893-6.006 7.622-9.835.93.955 1.632 1.675 2.128 2.08.65.532 1.488 1.084 2.527 1.75-1.367 1.413-2.646 2.862-3.867 4.355l-2.518 3.06c1.573 1.387 2.62 2.347 3.192 2.817 1.022.844 2.26 1.766 3.65 2.817l2.52-3.06c1.222-1.49 2.37-3.04 3.496-4.66.976 1 1.706 1.74 2.206 2.15.52.43 1.333.96 2.45 1.69-3.184 3.37-5.844 6.55-8.174 9.39-.277.34-.576.7-.9 1.1-1.867 2.277-4.153 5.105-6.697 8.71-.877-.863-1.578-1.535-2.175-2.03-.624-.51-1.44-1.09-2.48-1.8 1.28-1.306 2.484-2.62 3.637-4.02l4.11-5.005c-1.346-1.206-2.52-2.216-3.49-3.014-.67-.552-1.788-1.43-3.356-2.62l-4.11 5c-1.15 1.41-2.23 2.828-3.26 4.335-.9-.885-1.62-1.58-2.25-2.093-.59-.49-1.41-1.07-2.4-1.74 3.04-3.196 5.38-5.985 7.25-8.257zm22.538 18.59c.396-.734.798-1.467 1.195-2.205l.725-1.35c1.73-3.2 3.413-6.39 4.82-9.8 2.64 1.55 4.445 2.61 5.44 3.15 1.53.82 3.582 1.85 6.067 3.07-.384.57-.7 1.02-.892 1.38-.19.35-.375.83-.643 1.47-1.478-1-2.918-1.87-4.36-2.65-.626-.34-1.25-.68-1.86-.97-.92 1.568-1.8 3.123-2.63 4.658l-.91 1.697c1.59.78 3.712 1.805 6.36 3.07-.448.63-.755 1.126-.925 1.45-.16.283-.36.793-.68 1.53-2.043-1.31-4.06-2.528-6.057-3.65l-1.88 3.49c-.87 1.6-1.6 3.022-2.158 4.333 1.955 1.058 4.02 2.05 6.337 2.98-.382.58-.668 1.04-.894 1.46-.156.285-.373.827-.7 1.56-3.21-1.857-5.555-3.21-7.03-4.006-1.103-.595-2.568-1.346-4.392-2.17 1.99-2.855 3.57-5.72 5.07-8.505z" fill="#FFF"/><path d="M242.006 360.955c2.084 0 3.157 2.28 3.157 7.068 0 4.677-1.128 7.023-3.157 7.023-2.195 0-3.152-2.084-3.152-7.023 0-4.82 1.045-7.068 3.152-7.068zm-2.986 12.756c.613 1.34 1.603 2.01 2.986 2.01 2.53 0 3.825-2.69 3.825-7.69 0-5.11-1.23-7.73-3.82-7.73-1.32 0-2.31.697-2.94 2.046-.59 1.277-.88 3.163-.88 5.694 0 2.59.26 4.442.84 5.687zm12.314-21.85c0-5.28-3.25-8.23-9.04-8.23-5.942 0-9.655 3.22-9.655 8.24 0 3.74 1.83 6.43 5.08 7.378l-.24-.32v.35l.24-.322c-4.08 1.096-6.2 4.34-6.2 9.39 0 3.046.91 5.33 2.74 7 1.702 1.548 4.194 2.574 7.665 3.247 6.625 1.29 10.54-1.875 10.54-8.326 0-2.325-.57-4.873-1.58-6.943-1.13-2.315-2.72-3.89-4.62-4.37l-.08.324h.333v-.636h-.333v.336l.1.32c3.264-1.04 5.04-3.7 5.04-7.42zm-7.286 7.44h2.147v-.33h-.333v.56l.253.07c1.684.425 3.136 1.86 4.186 4.01.97 1.98 1.52 4.427 1.52 6.65 0 6.03-3.53 8.88-9.74 7.67-6.83-1.323-9.87-4.08-9.87-9.59 0-4.763 1.94-7.73 5.71-8.74l.25-.065v-.86l-.24-.07c-2.955-.86-4.604-3.28-4.604-6.733 0-4.623 3.394-7.57 8.985-7.57 5.437 0 8.373 2.67 8.373 7.57 0 3.44-1.6 5.836-4.57 6.785l-2.05.656zm-2.042-12.39c2.058 0 2.91 1.56 2.91 5.41 0 3.66-.967 5.36-2.91 5.36-1.98 0-2.95-1.682-2.95-5.35 0-3.63 1.015-5.41 2.95-5.41zm0 11.43c2.413 0 3.578-2.04 3.578-6.02 0-2.06-.244-3.52-.784-4.51-.578-1.05-1.503-1.57-2.794-1.57-2.405 0-3.62 2.13-3.62 6.08 0 3.99 1.172 6.02 3.62 6.02zm20.424 1.81c0-8.33 1.75-12.69 5.103-12.69 1.61 0 2.87.88 4.066 2.83l.15.247.26-.11.24-.104.192-.08.01-.21c.08-1.425.26-2.95.57-4.86l.04-.253-.233-.11c-1.53-.704-4.843-1.215-7.016-1.215-4.046 0-6.963 2.223-8.8 6.42-1.645 3.76-2.42 9.09-2.42 15.816 0 9.83 3.8 14.67 10.82 13.56 6.71-1.056 10.22-4.96 10.22-12.124 0-6.135-3.04-9.92-7.933-9.92-2.556-.002-4.746 1.04-5.906 2.775l.28.19h.34v-.152zm-.675 1.27l.618-.92c1.028-1.537 3.003-2.478 5.345-2.476 4.485 0 7.26 3.453 7.26 9.243 0 6.828-3.262 10.454-9.655 11.46-6.532 1.03-10.04-3.43-10.04-12.893 0-6.64.765-11.887 2.366-15.547 1.73-3.965 4.42-6.012 8.18-6.012 2.08 0 5.31.5 6.73 1.158l-.19-.36c-.31 1.93-.5 3.478-.58 4.93l.33.017-.13-.31-.25.1.13.312.288-.18c-1.305-2.133-2.766-3.146-4.64-3.146-3.895 0-5.78 4.69-5.78 13.367v1.265zm3.62 14.62c-1.867 0-2.863-2.47-2.863-7.642 0-4.57.95-6.717 2.784-6.717 1.974 0 2.82 2.014 2.82 6.924 0 5.027-.956 7.438-2.74 7.438zm2.672-13.052c-.554-1.32-1.463-1.984-2.752-1.983-2.355 0-3.458 2.49-3.458 7.39 0 5.515 1.13 8.32 3.54 8.32 2.327 0 3.414-2.74 3.414-8.11 0-2.58-.23-4.4-.74-5.62zm-39.114 12.185l-.1-.53-.035-.203c-.027-.16-.054-.34-.08-.527-.03-.224-.056-.444-.075-.656-.46-4.987-.78-9.772-.78-12.76 0-.343 0-.73-.002-1.235v-1.484c-.02-4.635-.01-8.305.06-13.51l.01-.183-.16-.087-.82-.45-.14-.08-.143.08c-1.87 1.005-3.32 1.632-4.97 2.19-.36.12-.736.242-1.182.38-.343.106-1.612.49-1.847.563-.795.24-1.47.46-2.19.7l-.37.124.21.33 1.764 2.7.16.24.247-.148c.7-.41.96-.534 1.2-.595l.07-.02c.44-.1.65-.165 1.24-.41l-.417-.26.01.18c.02.36.12 1.884.136 2.26.01.296.02.57.02.86 0 4.33-.12 8.16-.34 11.616-.15 2.417-.3 4.07-.544 6.437l-.02.2.174.097.097.05.277.146 1.005.52c1.05.54 2.132 1.08 3.192 1.583.37.174.733.343 1.085.503 1.045.48 1.98.878 2.778 1.18l.5.19zm50.662-5.6l-.228.08-.684.24-.163.054-.022.17c-.2 1.57-.54 2.91-.977 4.04-.25.656-.52 1.198-.79 1.63-.09.15-.18.277-.25.378l-.07.09-.46.52.67-.03c4.794-.22 8.688-1.062 11.738-2.465 2.717-1.25 4.72-2.92 6.065-4.93 1.156-1.726 1.79-3.654 1.95-5.65.138-1.66-.062-3.297-.5-4.62-1.046-3.17-2.91-4.38-6.87-4.15l.015.28.28-.027-.026-.273-.28.026.12.255c3.656-1.72 4.65-3 4.384-5.89-.372-4.082-4.36-6.84-9.32-6.384l-.08.006-.24.024c-.26.027-.543.065-.85.114-.88.14-1.76.34-2.588.63-1.33.46-2.387 1.08-3.067 1.89l-.075.09.012.117.39 4.18.014.15.13.07.43.23.213.12.146-.2c.13-.176.255-.375.405-.633.015-.022.467-.83.61-1.062.438-.72.86-1.22 1.41-1.61.675-.475 1.514-.74 2.594-.77 1.37-.036 2.25.5 2.71 1.49.38.817.45 1.925.253 2.966-.52 2.72-2.193 3.824-5.66 4.145l-.065.006c-.23.02-.43.02-.82.004h-.07l-.28-.008-.01.28-.11 3.53-.01.344.34-.06c.21-.037.5-.073.864-.11.22-.022.386-.037.76-.07l.25-.023.13-.01.128-.013c.57-.055.884-.08 1.23-.1 1.47-.086 2.505.05 3.326.512 1 .57 1.635 1.64 1.87 3.39l.01.21c.055 1.37-.046 2.99-.428 4.53-.703 2.822-2.164 4.52-4.6 4.62-.05-.006-.095-.01-.144-.017-.143-.02-.304-.048-.476-.08-.493-.106-.986-.266-1.444-.49-.73-.37-1.3-.87-1.65-1.53l-.113-.218z" fill="#1B449C"/><path d="M232.084 153.17l.484.417v-8.03l-.215-.06c-2.747-.76-5.374-1.147-7.787-1.147-4.83 0-9.214 1.33-12.854 3.885-4.145 2.944-6.427 7.212-6.427 12.068 0 4.66 2.093 8.383 6.258 11.118 2.855 1.89 6.297 2.82 10.337 2.82 3.563 0 6.907-.6 10.102-1.79l.162-.06.025-.17.96-6.56.13-.93-.64.69c-2.42 2.61-5.08 3.778-8.64 3.778-6.4 0-10.59-3.892-10.59-9.902 0-5.883 3.96-9.752 9.794-9.752 3.115 0 6.05 1.206 8.882 3.644zm4.566 20.318l-.188.415h10.687l-.19-.415c-.98-2.13-1.39-4.44-1.39-7.346v-13.76c0-2.91.41-5.216 1.38-7.35l.19-.414h-10.69l.19.414c.97 2.13 1.38 4.433 1.38 7.35v13.76c0 2.913-.41 5.218-1.38 7.346zm20.614 0l-.19.415h10.688l-.19-.415c-.97-2.128-1.38-4.436-1.38-7.346v-17.29l-.3.294c2.767.077 5.063.63 7.143 1.712l.272.14.13-.277 2.643-5.68.193-.41h-25.256l-.064.21-1.987 6.41-.196.633.6-.28c3.092-1.45 6.23-2.25 9.588-2.44l-.31-.292v17.29c0 2.91-.41 5.218-1.384 7.347zm40.51.415l-.19-.415c-.975-2.13-1.387-4.44-1.387-7.346v-7.125l-.05.163 6.172-9.217c1.19-1.792 2.59-3.397 4.22-4.832l.58-.51h-10l.04.33c0 .03.01.06.01.1l.01.1.01.09c.01.07.01.13.02.18.012.14.02.26.02.38 0 .655-.197 1.32-.575 1.98l-4.143 6.858.494-.01-4.98-7.39c-.278-.413-.436-1.003-.436-1.66 0-.284.01-.423.04-.587l.075-.353h-10.78l.473.494c1.436 1.5 2.75 3.083 3.935 4.743l7.356 10.5-.054-.17v5.954c0 2.91-.41 5.217-1.38 7.346l-.19.413h10.685z" fill="#E03A3E"/></g></svg>