<svg width="512" height="512" viewBox="0 0 512 512" xmlns="http://www.w3.org/2000/svg"><title>swansea-city</title><g fill="none" fill-rule="evenodd"><path d="M361.46 324.753s70.332-24.51 50.925-82.737c-7.747-23.24-51.43-43.992-74.387-58.817-22.964-14.83-68.8-29.622-51.378-66.325 6.075-12.8 23.772-15.72 43.406-8.11 18.993 7.36 29.322 23.692 55.363 38.342 1.875 1.056 1.744-4.906 1.406-7.03-.81-5.1-7.905-9.865-8.446-15-.493-4.688 7.006-10.89 4.692-15-5.938-10.543-25.49-18.01-42.81-23.556-35.58-11.39-69.586 6.35-79.184 25.433-18.817 37.41 7.628 73.75 59.12 100.306 41.902 21.61 79.33 32.02 73.9 71.01-2.13 15.294-32.61 41.483-32.61 41.483z" fill="#000"/><path d="M270.737 103.42s8.226-11.265 15.485-15.118c8.878-4.71 21.774-7.864 26.387-7.55 3.707.254 6.943-.577 10.607-.302 4.125.31 8.998 1.103 12.968 2.235 6.997 1.995 19.023 6.36 25.01 9.34 5.07 2.522 17.29 10.52 18.572 14.01.462 1.257-7.327-.83-9.227-1.96-6.615-3.937-8.026-5.61-14.546-8.773-7.175-3.48-20.14-9.828-29.543-10.472-5.722-.392-11.895-.55-18.586-.06-3.028.223-13.524 3.19-20.892 7.137-9.058 4.854-16.235 11.514-16.235 11.514z" fill="#FFF"/><path d="M277.28 133.766s18.945 27.244 30.077 34.526c17.123 11.203 36.144 20.22 52.535 30.767 13.67 8.796 35.192 18.635 43.132 32.81 5.594 9.99 7.63 37.122 7.63 37.122s-1.66-16.958-8.856-30.702c-3.03-5.788-9.735-11.67-14.174-14.98-8.323-6.203-19.974-12.392-29.08-18.307-10.315-6.702-17.07-11.264-30.02-18.046-10.27-5.38-25.148-15.6-36.43-26.756-6.58-6.507-14.815-26.434-14.815-26.434z" fill="#FFF"/><path d="M91.304 294.01s47.868 12.408 72.024 8.672c41.832-6.47 63.598-57.168 92.2-76.402 6.827-4.59 26.51-7.5 26.51-7.5s-22.825-21.783-49.032-17.81c-42.09 6.38-58.877 52.793-97.127 78.745-22.503 15.267-44.576 14.296-44.576 14.296z" fill="#000"/><path d="M115.45 292.923s10.29-.167 15.515-2.305c5.965-2.44 11.886-6.167 17.06-10.7 10.975-9.61 22.35-22.374 33.114-34.633 11.293-12.864 26.286-27.708 39.2-33.938 5.17-2.494 13.197-1.85 18.94-1.82 10.113.052 33.085 4.634 33.085 4.634s-17.472-9.43-26.34-11.016c-6.795-1.215-16.452 1.027-22.642 4.077-30.626 15.087-55.408 58.18-84.215 76.498-2.604 1.656-6.622 2.834-9.495 3.963-4.232 1.663-14.223 5.243-14.223 5.243z" fill="#FFF"/><path d="M140.74 322.846s47.867 12.407 72.023 8.67c41.832-6.47 63.598-57.167 92.2-76.4 6.827-4.592 26.51-7.5 26.51-7.5s-22.825-21.784-49.032-17.812c-42.09 6.38-58.876 52.794-97.126 78.746-22.502 15.267-44.575 14.296-44.575 14.296z" fill="#000"/><path d="M164.885 321.758s10.29-.167 15.515-2.305c5.965-2.44 11.886-6.167 17.06-10.7 10.975-9.61 22.35-22.374 33.114-34.633 11.294-12.864 26.287-27.708 39.2-33.938 5.172-2.494 13.198-1.85 18.94-1.82 10.114.052 33.086 4.634 33.086 4.634s-17.472-9.43-26.34-11.017c-6.795-1.216-16.452 1.026-22.642 4.076-30.626 15.086-55.408 58.18-84.215 76.497-2.604 1.656-6.622 2.834-9.495 3.963-4.232 1.662-14.223 5.242-14.223 5.242z" fill="#FFF"/><g><path d="M188.848 351.018s47.868 12.407 72.024 8.67c41.832-6.47 63.598-57.167 92.2-76.4 6.827-4.592 26.51-7.5 26.51-7.5s-22.825-21.784-49.032-17.812c-42.09 6.38-58.877 52.794-97.127 78.746-22.502 15.267-44.575 14.296-44.575 14.296z" fill="#000"/><path d="M212.994 349.93s10.29-.167 15.515-2.305c5.964-2.44 11.885-6.167 17.06-10.7 10.974-9.61 22.35-22.374 33.113-34.633 11.294-12.864 26.287-27.708 39.2-33.938 5.172-2.494 13.198-1.85 18.94-1.82 10.114.052 33.086 4.634 33.086 4.634s-17.473-9.43-26.342-11.017c-6.794-1.214-16.45 1.028-22.64 4.078-30.627 15.086-55.41 58.18-84.216 76.497-2.604 1.656-6.622 2.834-9.495 3.963-4.232 1.662-14.223 5.242-14.223 5.242z" fill="#FFF"/></g><path d="M72.275 334.338l3.146-2.295c.484 2.396.942 4.07 1.375 5.02.432.952.906 1.78 1.42 2.485.936 1.28 2.024 2.034 3.266 2.263 1.243.23 2.353-.012 3.33-.725.738-.537 1.278-1.225 1.624-2.063.328-.842.365-2.367.11-4.575l-.233-2.193c-.33-2.908-.27-5.067.182-6.478.453-1.41 1.27-2.547 2.45-3.408 1.057-.772 2.255-1.217 3.59-1.334 1.338-.118 2.612.103 3.825.662 1.212.56 2.342 1.555 3.387 2.985 1.26 1.724 2.3 3.752 3.124 6.085l-2.904 2.118c-.56-2.14-.997-3.57-1.314-4.29-.316-.717-.7-1.384-1.148-2-.943-1.288-1.978-1.996-3.106-2.123-1.13-.126-2.046.068-2.752.582-.484.353-.87.858-1.154 1.514-.286.656-.427 1.362-.424 2.116.002.755.073 1.746.212 2.972l.263 2.264c.338 2.935.27 5.107-.2 6.516-.48 1.416-1.36 2.59-2.64 3.524-1.745 1.273-3.74 1.714-5.99 1.323-2.25-.39-4.315-1.874-6.2-4.453-.582-.796-1.092-1.605-1.53-2.428-.44-.823-1.008-2.177-1.705-4.062zm20.59 26.944l14.55-24.62 2.676 2.672-11.465 19.474 19.174-11.776 2.674 2.672-11.77 18.747 19.584-10.94 2.264 2.26-25.093 14.09-2.77-2.763 11.653-18.548-18.724 11.483-2.756-2.75zm22.877 21.79l25.16-15.984 3.156 2.283-7.49 28.768-3.443-2.49 2.062-7.98-9.51-6.88-6.977 4.424-2.958-2.14zm12.573-3.978l7.66 5.54 3.186-12.43-10.845 6.89zm16.122 23.712l12.824-24.546 3.422 1.783 2.464 25.406 9.905-18.958 2.99 1.558-12.825 24.546-3.404-1.774-2.48-25.415-9.904 18.957-2.99-1.558zm28.293 13.263l1.34-3.655c1.734 1.724 3.046 2.86 3.934 3.41.89.552 1.743.977 2.564 1.278 1.49.544 2.814.567 3.974.068 1.16-.498 1.948-1.315 2.364-2.45.313-.856.38-1.728.2-2.617-.195-.882-1.012-2.17-2.452-3.866l-1.414-1.692c-1.894-2.233-3.045-4.062-3.453-5.487-.41-1.424-.362-2.822.14-4.192.45-1.23 1.198-2.264 2.244-3.104 1.047-.84 2.23-1.363 3.548-1.572 1.32-.208 2.812-.007 4.477.6 2.005.735 4 1.842 5.982 3.324l-1.236 3.373c-1.655-1.468-2.814-2.413-3.477-2.835-.664-.422-1.353-.764-2.068-1.025-1.5-.55-2.755-.563-3.764-.042-1.007.52-1.662 1.192-1.962 2.01-.206.564-.246 1.197-.118 1.9.127.705.402 1.37.824 1.996.423.627 1.033 1.41 1.83 2.353l1.48 1.736c1.912 2.253 3.064 4.096 3.457 5.527.39 1.444.31 2.91-.234 4.397-.742 2.026-2.157 3.5-4.244 4.425-2.087.922-4.63.835-7.632-.262-.926-.34-1.8-.728-2.623-1.17-.823-.44-2.048-1.25-3.677-2.43zm25.118 9.065l6.577-26.897 15.046 3.67-.697 2.855-11.225-2.74-2.11 8.633 9.405 2.295-.69 2.818-9.405-2.295-2.382 9.74 12.008 2.93-.698 2.855-15.828-3.863zm23.54 5.44l13.857-26.375 3.873.41 7.84 28.675-4.226-.448-2.19-7.945-11.676-1.238-3.845 7.306-3.63-.384zm8.922-9.702l9.405.996-3.433-12.368-5.972 11.37zm60.9 8.683c-1.073.696-2.04 1.228-2.9 1.596-.86.368-1.76.665-2.705.89-.943.227-1.974.396-3.092.508-4.646.464-8.185-.567-10.615-3.094-2.43-2.527-3.853-5.863-4.268-10.008-.424-4.232.346-7.816 2.31-10.75 1.965-2.936 5.258-4.635 9.88-5.097 2.46-.245 5.388-.13 8.786.345l.367 3.667c-2.878-.677-4.85-1.05-5.918-1.12-1.068-.068-2.073-.055-3.017.04-3.305.33-5.587 1.69-6.847 4.077-1.26 2.388-1.727 5.208-1.4 8.46.34 3.387 1.467 6.042 3.385 7.962 1.917 1.92 4.442 2.724 7.572 2.41.87-.086 1.73-.25 2.577-.492.847-.24 1.685-.557 2.51-.947.828-.39 1.84-.99 3.04-1.798l.335 3.35zm12.62-1.103l-5.93-27.047 3.84-.84 5.932 27.046-3.84.84zm20.75-5.403l-7.606-23.555-9.357 3.015-.903-2.795 22.457-7.238.904 2.796-9.357 3.015 7.607 23.556-3.743 1.206zm28.588-11.146l-5.052-10.402-15.37-10.475 4.043-1.96 11.93 8.108 1.515-14.625 3.285-1.592-1.898 18.762 5.084 10.47-3.538 1.714zm30.374-16.9l-8.08-28.673 3.096-2.36 25.423 15.446-3.378 2.577-7.056-4.27-9.334 7.12 2.233 7.946-2.903 2.213zm-.195-13.175l7.518-5.733-11-6.627 3.482 12.36zm26.957-8.397l-19.452-19.725 11.033-10.857 2.064 2.093-8.233 8.1 6.52 6.61 6.91-6.8 2.037 2.066-6.91 6.8 8.83 8.956-2.8 2.757zm30.173-36.518c-.233 1.257-.51 2.323-.836 3.2-.324.876-.73 1.734-1.215 2.573-.485.84-1.072 1.703-1.76 2.59-2.862 3.686-6.046 5.54-9.554 5.56-3.507.023-6.91-1.243-10.204-3.796-3.365-2.606-5.437-5.63-6.216-9.075-.78-3.444.255-7 3.1-10.666 1.515-1.95 3.615-3.993 6.3-6.128l2.914 2.258c-2.473 1.62-4.102 2.792-4.887 3.518-.784.726-1.467 1.463-2.05 2.212-2.034 2.622-2.618 5.212-1.75 7.77.866 2.556 2.592 4.836 5.177 6.838 2.694 2.087 5.398 3.096 8.112 3.028 2.715-.067 5.036-1.343 6.964-3.827.535-.69 1.007-1.426 1.415-2.207.41-.78.756-1.604 1.042-2.47.286-.87.548-2.015.786-3.44l2.664 2.062z" stroke="#000" fill="#000"/></g></svg>