<svg width="512" height="512" viewBox="0 0 512 512" xmlns="http://www.w3.org/2000/svg"><title>swansea-city</title><g fill="none" fill-rule="evenodd"><path d="M361.46 324.753s70.332-24.51 50.925-82.737c-7.747-23.24-51.43-43.992-74.387-58.817-22.964-14.83-68.8-29.63-51.378-66.33 6.075-12.8 23.772-15.72 43.406-8.11 18.993 7.36 29.322 23.69 55.363 38.34 1.87 1.05 1.74-4.91 1.4-7.03-.81-5.1-7.91-9.87-8.45-15-.5-4.69 7-10.89 4.69-15-5.94-10.55-25.49-18.01-42.81-23.56-35.58-11.39-69.59 6.35-79.19 25.43-18.816 37.41 7.63 73.75 59.12 100.302 41.903 21.61 79.33 32.02 73.9 71.01-2.13 15.293-32.61 41.482-32.61 41.482z" fill="#000"/><path d="M270.737 103.42s8.226-11.265 15.485-15.118c8.878-4.71 21.774-7.864 26.387-7.55 3.7.254 6.94-.577 10.6-.302 4.12.31 9 1.103 12.97 2.235 6.99 1.995 19.02 6.36 25.01 9.34 5.07 2.522 17.29 10.52 18.57 14.01.46 1.257-7.33-.83-9.23-1.96-6.62-3.937-8.03-5.61-14.55-8.773-7.178-3.48-20.14-9.828-29.546-10.472-5.72-.392-11.895-.55-18.586-.06-3.027.223-13.523 3.19-20.89 7.137-9.06 4.854-16.236 11.514-16.236 11.514z" fill="#FFF"/><path d="M277.28 133.766s18.945 27.244 30.077 34.526c17.123 11.203 36.144 20.22 52.535 30.767 13.67 8.79 35.192 18.63 43.132 32.81 5.594 9.99 7.63 37.12 7.63 37.12s-1.66-16.96-8.856-30.7c-3.03-5.79-9.735-11.67-14.174-14.98-8.323-6.21-19.974-12.4-29.08-18.31-10.315-6.7-17.07-11.27-30.02-18.05-10.27-5.38-25.148-15.6-36.43-26.76-6.58-6.51-14.815-26.44-14.815-26.44z" fill="#FFF"/><path d="M91.304 294.01s47.868 12.408 72.024 8.672c41.832-6.47 63.598-57.168 92.2-76.402 6.827-4.59 26.51-7.5 26.51-7.5s-22.825-21.783-49.032-17.81c-42.09 6.38-58.877 52.793-97.127 78.745-22.51 15.267-44.58 14.295-44.58 14.295z" fill="#000"/><path d="M115.45 292.923s10.29-.167 15.515-2.305c5.965-2.44 11.886-6.167 17.06-10.7 10.975-9.61 22.35-22.374 33.114-34.633 11.29-12.864 26.28-27.708 39.2-33.938 5.17-2.494 13.19-1.85 18.94-1.82 10.11.052 33.08 4.634 33.08 4.634s-17.47-9.43-26.34-11.01c-6.8-1.21-16.45 1.03-22.64 4.08-30.63 15.09-55.41 58.18-84.22 76.5-2.61 1.66-6.62 2.84-9.5 3.97-4.23 1.662-14.22 5.242-14.22 5.242z" fill="#FFF"/><path d="M140.74 322.846s47.867 12.407 72.023 8.67c41.832-6.47 63.598-57.167 92.2-76.4 6.827-4.592 26.51-7.5 26.51-7.5s-22.825-21.784-49.032-17.812c-42.09 6.38-58.87 52.794-97.12 78.746-22.5 15.267-44.57 14.296-44.57 14.296z" fill="#000"/><path d="M164.885 321.758s10.29-.167 15.515-2.305c5.965-2.44 11.886-6.167 17.06-10.7 10.975-9.61 22.35-22.374 33.114-34.633 11.294-12.864 26.287-27.708 39.2-33.938 5.172-2.494 13.198-1.85 18.94-1.82 10.114.052 33.086 4.634 33.086 4.634s-17.472-9.43-26.34-11.017c-6.795-1.22-16.452 1.02-22.642 4.07-30.626 15.08-55.408 58.18-84.215 76.49-2.604 1.653-6.622 2.83-9.495 3.96-4.232 1.662-14.223 5.242-14.223 5.242z" fill="#FFF"/><path d="M188.848 351.018s47.868 12.407 72.024 8.67c41.832-6.47 63.598-57.167 92.2-76.4 6.827-4.592 26.51-7.5 26.51-7.5s-22.825-21.784-49.032-17.812c-42.09 6.38-58.877 52.794-97.127 78.746-22.502 15.267-44.575 14.296-44.575 14.296z" fill="#000"/><path d="M212.994 349.93s10.29-.167 15.515-2.305c5.96-2.44 11.88-6.167 17.06-10.7 10.97-9.61 22.35-22.374 33.11-34.633 11.29-12.864 26.28-27.708 39.2-33.938 5.17-2.494 13.2-1.85 18.94-1.82 10.11.052 33.08 4.634 33.08 4.634s-17.48-9.43-26.34-11.017c-6.8-1.21-16.45 1.03-22.64 4.08-30.63 15.09-55.41 58.18-84.22 76.5-2.61 1.66-6.627 2.84-9.5 3.97-4.23 1.66-14.224 5.24-14.224 5.24z" fill="#FFF"/><path d="M72.275 334.338l3.146-2.295c.49 2.396.95 4.07 1.38 5.02.43.952.91 1.78 1.42 2.485.94 1.28 2.03 2.034 3.27 2.263 1.25.23 2.36-.01 3.33-.72.74-.53 1.28-1.22 1.63-2.06.33-.84.366-2.36.11-4.57l-.232-2.19c-.33-2.91-.27-5.067.18-6.48.454-1.41 1.27-2.546 2.45-3.41 1.058-.77 2.256-1.215 3.59-1.332 1.34-.117 2.61.104 3.826.663 1.213.56 2.343 1.553 3.388 2.983 1.26 1.724 2.3 3.75 3.127 6.085l-2.906 2.118c-.56-2.14-.997-3.57-1.314-4.29-.314-.716-.7-1.383-1.15-2-.94-1.287-1.974-1.995-3.102-2.122-1.13-.125-2.045.07-2.75.583-.485.353-.87.858-1.155 1.514-.286.657-.427 1.36-.424 2.117 0 .755.072 1.746.21 2.972l.264 2.263c.337 2.935.27 5.11-.2 6.516-.48 1.414-1.36 2.59-2.64 3.522-1.746 1.277-3.74 1.718-5.99 1.327-2.25-.39-4.316-1.876-6.2-4.455-.583-.794-1.093-1.603-1.53-2.426-.44-.824-1.01-2.178-1.706-4.063zm20.59 26.944l14.55-24.62 2.676 2.672-11.46 19.474 19.18-11.776 2.68 2.672-11.77 18.747 19.584-10.94 2.264 2.26-25.092 14.09-2.77-2.76 11.655-18.55-18.723 11.49-2.756-2.75zm22.877 21.79l25.16-15.984 3.156 2.283-7.49 28.77-3.443-2.49 2.062-7.98-9.51-6.88-6.977 4.43-2.958-2.14zm12.573-3.978l7.66 5.54 3.186-12.43-10.84 6.89zm16.122 23.712l12.824-24.546 3.43 1.783 2.47 25.406 9.907-18.96 2.99 1.56-12.825 24.54-3.406-1.78-2.48-25.42-9.904 18.958-2.99-1.56zm28.293 13.263l1.34-3.66c1.734 1.72 3.046 2.86 3.934 3.41.89.55 1.743.97 2.564 1.28 1.49.54 2.814.56 3.974.07 1.16-.5 1.948-1.32 2.364-2.45.313-.86.38-1.73.2-2.62-.195-.88-1.012-2.17-2.452-3.87l-1.414-1.69c-1.894-2.24-3.045-4.06-3.453-5.49-.41-1.43-.362-2.82.14-4.19.45-1.23 1.198-2.27 2.244-3.11 1.05-.84 2.23-1.36 3.55-1.57 1.32-.21 2.81-.008 4.48.6 2.01.734 4 1.84 5.98 3.323l-1.23 3.374c-1.65-1.468-2.81-2.413-3.47-2.835-.665-.42-1.354-.764-2.07-1.025-1.5-.55-2.755-.56-3.764-.04-1.007.52-1.662 1.19-1.962 2.01-.204.564-.244 1.197-.116 1.9s.403 1.37.825 1.996c.42.63 1.03 1.41 1.83 2.354l1.48 1.735c1.91 2.258 3.064 4.1 3.457 5.53.39 1.44.31 2.91-.234 4.397-.74 2.025-2.155 3.5-4.24 4.424-2.09.92-4.63.834-7.634-.263-.928-.34-1.8-.73-2.625-1.17-.823-.44-2.048-1.25-3.677-2.43zm25.118 9.06l6.577-26.9 15.046 3.67-.69 2.85-11.22-2.74-2.11 8.63 9.41 2.295-.69 2.816-9.406-2.294-2.384 9.74 12.007 2.93-.697 2.855-15.83-3.86zm23.54 5.44l13.857-26.38 3.873.41 7.84 28.67-4.226-.45-2.19-7.946-11.676-1.238-3.845 7.304-3.63-.384zm8.922-9.7l9.405.99-3.433-12.37-5.972 11.37zm60.9 8.68c-1.073.69-2.04 1.23-2.9 1.59-.86.37-1.76.662-2.705.89-.943.224-1.974.393-3.092.51-4.646.46-8.185-.57-10.615-3.1-2.43-2.526-3.853-5.862-4.268-10.007-.424-4.233.346-7.817 2.31-10.75 1.965-2.937 5.258-4.636 9.88-5.098 2.46-.247 5.388-.13 8.786.343l.367 3.667c-2.878-.675-4.85-1.05-5.918-1.12-1.068-.066-2.073-.053-3.017.04-3.305.33-5.587 1.69-6.847 4.08-1.26 2.385-1.72 5.205-1.4 8.46.34 3.384 1.47 6.04 3.39 7.96s4.44 2.723 7.57 2.41c.87-.087 1.73-.25 2.58-.49s1.69-.56 2.51-.95c.83-.39 1.84-.99 3.04-1.798l.34 3.35zm12.62-1.11l-5.93-27.04 3.84-.84 5.932 27.044-3.84.84zm20.75-5.4l-7.606-23.56-9.357 3.014-.903-2.796 22.457-7.237.91 2.797-9.35 3.015 7.61 23.555-3.743 1.21zm28.588-11.15l-5.052-10.4-15.37-10.476 4.043-1.96 11.93 8.11 1.51-14.626 3.28-1.594-1.9 18.764 5.08 10.47-3.54 1.71zm30.374-16.9l-8.08-28.67 3.096-2.36 25.423 15.443-3.37 2.577-7.05-4.27-9.332 7.12 2.233 7.947-2.903 2.21zm-.195-13.175l7.518-5.733-11-6.627 3.482 12.36zm26.957-8.397l-19.452-19.72 11.033-10.857 2.064 2.09-8.24 8.1 6.52 6.61 6.91-6.8 2.03 2.068-6.91 6.8 8.83 8.96-2.8 2.758zm30.173-36.516c-.233 1.257-.51 2.323-.836 3.2-.32.876-.73 1.734-1.21 2.573-.48.84-1.07 1.705-1.76 2.59-2.86 3.688-6.04 5.54-9.55 5.56-3.5.025-6.91-1.24-10.2-3.794-3.362-2.605-5.434-5.63-6.213-9.074-.78-3.444.255-7 3.1-10.666 1.515-1.95 3.615-3.996 6.3-6.13l2.914 2.26c-2.472 1.62-4.1 2.79-4.886 3.515-.783.726-1.466 1.463-2.05 2.212-2.033 2.62-2.62 5.21-1.75 7.77.867 2.554 2.59 4.834 5.178 6.836 2.697 2.09 5.4 3.095 8.115 3.03 2.715-.07 5.036-1.346 6.964-3.83.535-.69 1.007-1.426 1.415-2.207.41-.78.756-1.606 1.042-2.47.284-.87.546-2.017.784-3.44l2.665 2.06z" stroke="#000" fill="#000"/></g></svg>