<svg width="512" height="512" viewBox="0 0 512 512" xmlns="http://www.w3.org/2000/svg"><title>tottenham-hotspur</title><g fill="none" fill-rule="evenodd"><path d="M205.388 340.363c-1.344-.337-2.505-1.17-3.4-2.42-4.545 7.008-6.46 13.274-4.79 18.897 6.99 23.597 27.816 41.024 52.758 43.345-23.838-7.238-41.48-32.07-44.568-59.822zm-4.88-13.946c-1.503-1.07-2.788-2.072-3.703-2.945-1.594 5.87-2.33 12.08-2.07 18.48.052 1.294.145 2.574.273 3.843.923-3.782 2.74-7.733 5.343-11.762-.5-2.358-.42-5.04.16-7.616zm1.174-3.6c.63-1.43 1.42-2.75 2.358-3.864.756-.89 1.56-1.597 2.415-2.122 2.268-10.56 7.006-19.98 13.93-27.09-10.34 7.35-18.264 17.83-22.43 29.99.553.76 2.023 1.9 3.727 3.1zm89.45 54.252c-5.162-.58-12.068-1.94-15.082-2.98-3.365-1.17-6.36-3.98-8.005-7.53-.68-1.47-1.297-3.42-1.396-5.79-.06-1.42.08-2.98.49-4.67-18.93-5.77-38.97-13.786-52.93-21.23-.49.9-1.06 1.73-1.69 2.48-1.05 1.24-2.23 2.14-3.44 2.65 1.31 11.608 5.34 22.98 11.76 32.89 8.52 13.147 20.116 22.156 32.646 24.993 4.442 1 10.25 2.25 15.443 1.1 19.26-4.266 34.96-17.584 42.635-35.103-.9.16-1.91.25-2.997.29-4.395 12.856-13.637 13.308-17.45 12.886zm25.484-40.08c-.274-6.77-1.64-13.24-3.924-19.23-2.81-7.36-12.198-12.58-24.565-15.38-22.863-5.17-52.895 3.37-72.006 19.44.74 2.93.52 6.43-.46 9.62 13.77 7.4 33.8 15.41 52.69 21.16 4.45-10.21 12.96-12.16 19.6-10.5 4.76 1.185 7.82 1.81 10.05 2.256l2.46.52c3.156.737 5.925 2.833 7.585 5.754 1.177 2.064 2.257 5.328 1.52 9.823 2.32-.138 3.446-.527 3.706-.835 2.48-7.067 3.687-14.71 3.36-22.644zm-10.834 23.47c.76-3.77-.063-6.39-.978-7.99-1.147-2.03-3.05-3.47-5.2-3.98l-2.352-.5c-2.14-.43-5.37-1.09-10.208-2.295-6.48-1.618-12.04 1.35-15.112 7.965 3.157.92 6.266 1.767 9.296 2.534.488-2.36.593-3.99.593-4.02.07-1.02.94-1.8 1.97-1.746 1.02.06 1.8.933 1.74 1.96 0 .13-.12 2.006-.69 4.68.6.14 1.2.282 1.79.414.61.14 1.21.272 1.8.396.53-2.606.87-4.822.88-4.866.157-1.014 1.1-1.71 2.11-1.556 1.02.15 1.71 1.093 1.56 2.11-.024.18-.37 2.394-.912 5.054 1.246.242 2.425.453 3.543.644.41-2.25.51-4.036.51-4.07.05-1.02.92-1.81 1.945-1.76 1.026.05 1.816.918 1.76 1.938-.005.152-.104 2.03-.545 4.446 2.57.35 4.73.54 6.52.622zm-34.37 4.54c1.448 3.12 3.972 4.93 5.852 5.58 2.442.842 8.904 2.2 14.272 2.79 5.89.65 10.492-2.626 13.116-9.24-1.97-.117-4.08-.348-6.263-.65-.41 1.33-.93 2.66-1.61 3.84-.51.89-1.64 1.2-2.53.692-.89-.5-1.2-1.63-.7-2.53.444-.78.812-1.67 1.12-2.58-1.15-.196-2.31-.414-3.458-.635-.394 1.537-.845 3-1.318 4.09-.41.94-1.507 1.366-2.446.96-.94-.41-1.364-1.503-.956-2.44.383-.88.75-2.07 1.087-3.36-.6-.133-1.195-.265-1.785-.398-.623-.14-1.26-.29-1.898-.443-.338 1.077-.73 2.194-1.21 3.325-.392.942-1.49 1.384-2.43.986-.94-.394-1.385-1.483-.986-2.425.4-.936.73-1.866 1.016-2.76-3.126-.795-6.338-1.676-9.594-2.626-.784 3.412-.103 6.082.71 7.822zm-61.108-46.21c-.822-.15-2.453-.14-4.084 1.63-2.58 2.79-3.793 6.58-3.607 11.25.052 1.19.218 1.86.556 2.82.6 1.697 2.04 2.82 3.1 3.01 1.25.23 2.67-.503 4-2.07 2.89-3.43 4.14-9.718 2.72-13.73-.59-1.673-1.54-2.71-2.69-2.92z" fill="#001C58"/><path d="M229.25 14.063c-23.896 0-29.56 12.248-29.56 12.248s27.57-1.99 27.57 25.23c0 12.25-6.668 20.56-13.726 29.35-8.2 10.21-17.49 21.78-17.49 41.18 0 32.12 20.643 47.19 38.855 60.49 15.86 11.59 30.85 22.53 30.85 43.13 0 20.714-9.09 36.77-13.24 40.917-6.96 6.956-13.23 8.22-18.26 9.238-5.17 1.045-10.06 2.048-11.08 9.47-19.13 11.488-30.72 31.947-30.72 54.14 0 .868.02 1.737.05 2.607.68 16.87 7.9 32.46 20.32 43.9 12.41 11.44 28.54 17.363 45.42 16.674 16.87-.687 32.46-7.904 43.91-20.313 11.442-12.415 17.37-28.54 16.68-45.405-1.05-25.75-17.39-48.07-41.64-56.854l.09.033-.33-.13-.576-.2c-3.067-1.06-6.547-2.26-6.547-10.146 0-7.64 3.47-8.272 10.374-9.54 4.104-.754 9.126-1.674 14.05-4.682 8.767-5.35 10.41-11.8 8.817-13.394-2.17-2.176-4.564 2.392-13.39 5.05-3.18.96-6.38 1.52-8.542 1.52-1.8 0-3.14-.15-4.127-.33 4.636-8.68 9.827-15.787 9.885-15.86l1.13-1.54-1.352-1.35c-1.79-1.79-2.825-5.518-2.825-10.516 0-6.17 1.57-14.267 5.21-23.06 4.306-10.39 21.402-44.296 60.614-44.296h2.23v-2.22c0-14.014-1.28-26.9-3.806-38.31l-.494-2.215s-3.804 1.08-6.975 1.79c-.377.08-3.343.81-3.48.183-.117-.552 2.174-1.702 2.965-2.1 2.975-1.48 6.69-3.04 6.69-3.04l-.515-1.782c-2.8-9.76-5.61-14.42-5.73-14.615l-.91-1.49-1.658.525c-32.654 10.28-39.636 31.944-43.808 44.884-2.03 6.29-3.29 9.846-5.56 9.846-6.74 0-12.314-5.574-14.147-7.405-20.36-20.354-18.8-35.03-16.437-57.243.84-7.84 1.787-16.723 1.787-26.868-.003-25.57-9.72-37.478-30.59-37.478" fill="#FFF"/><path d="M267.978 225.673c0 20.63-8.802 37.406-13.887 42.49-15.75 15.755-28.75 4.28-28.89 20.088-7.15 6.48-12.29 16.32-14.82 27.57.16.02.31.04.47.07 1.48.27 2.75 1.12 3.72 2.45 20.02-16.31 50.84-24.88 74.39-19.56 7.49 1.7 13.84 4.46 18.65 8.69-7.23-11.694-18.29-20.72-31.36-25.404-3.1-1.112-8.62-2.386-8.62-12.45 0-18.782 20.56-4.18 34.1-24.636.66-1.01-.29-1.89-1.09-1.098-4.09 4.09-14.152 6.907-19.473 6.907-5.327 0-7.33-1.216-7.33-1.216 5.028-10.004 11.29-18.52 11.29-18.52-12.57-12.57 8.588-81.67 64.576-81.67 0-16.03-1.694-28.53-3.752-37.83-1.33.325-11.876 2.81-12.36.59-.426-1.96 7.77-6.22 10.59-7.62-2.75-9.58-5.492-14.073-5.492-14.073-47.99 15.114-38.344 54.833-50.035 54.833-7.61 0-13.59-5.92-15.72-8.055-28.666-28.65-15.307-47.61-15.307-85.683 0-25.646-9.967-35.25-28.367-35.25s-24.97 7.963-24.97 7.963 25.21.815 25.21 27.287c0 27.714-31.22 35.364-31.22 70.52 0 58.528 69.71 57.43 69.71 103.617zM234.746 51.54c0-3.398-.366-6.466-1.03-9.235 0 0 5.488-.286 5.488-6.962 0-5.503-3.672-9.255-4.657-9.255-.795 0-.992.843-2.712.843-4.19 0-4.497-5.35-4.497-5.35.62-.02 1.258-.03 1.912-.03 11.998 0 23.104 3.63 23.104 30 0 9.75-.925 18.43-1.738 26.08-.807 7.56-1.553 14.59-1.34 21.46 0 0-20.892-2.46-20.892-18.175 0-10.206 6.362-12.69 6.362-29.36zm-29.358 288.823c-1.344-.337-2.505-1.17-3.4-2.42-4.545 7.008-6.46 13.274-4.79 18.897 6.99 23.597 27.816 41.024 52.758 43.345-23.838-7.238-41.48-32.07-44.568-59.822zm-4.88-13.946c-1.503-1.07-2.788-2.072-3.703-2.945-1.594 5.87-2.33 12.08-2.07 18.48.052 1.294.145 2.574.273 3.843.923-3.782 2.74-7.733 5.343-11.762-.5-2.358-.42-5.04.16-7.616zm1.174-3.6c.63-1.43 1.42-2.75 2.358-3.864.756-.89 1.56-1.597 2.415-2.122 2.268-10.56 7.006-19.98 13.93-27.09-10.34 7.35-18.264 17.83-22.43 29.99.553.76 2.023 1.9 3.727 3.1zm89.45 54.252c-5.162-.58-12.068-1.94-15.082-2.98-3.365-1.17-6.36-3.98-8.005-7.53-.68-1.47-1.297-3.42-1.396-5.79-.06-1.42.08-2.98.49-4.67-18.93-5.77-38.97-13.786-52.93-21.23-.49.9-1.06 1.73-1.69 2.48-1.05 1.24-2.23 2.14-3.44 2.65 1.31 11.608 5.34 22.98 11.76 32.89 8.52 13.147 20.116 22.156 32.646 24.993 4.442 1 10.25 2.25 15.443 1.1 19.26-4.266 34.96-17.584 42.635-35.103-.9.16-1.91.25-2.997.29-4.395 12.856-13.637 13.308-17.45 12.886zm21.56-59.31c-2.81-7.36-12.198-12.57-24.565-15.37-22.863-5.17-52.895 3.37-72.006 19.44.74 2.93.52 6.43-.46 9.61 13.77 7.4 33.8 15.41 52.69 21.16 4.45-10.21 12.96-12.16 19.6-10.5 4.76 1.185 7.82 1.81 10.05 2.256l2.46.52c3.156.737 5.925 2.833 7.585 5.754 1.177 2.064 2.257 5.328 1.52 9.823 2.32-.138 3.446-.527 3.706-.835 2.477-7.067 3.684-14.71 3.36-22.643-.272-6.77-1.64-13.234-3.923-19.23zM271.412 365c1.448 3.127 3.972 4.936 5.852 5.583 2.442.847 8.904 2.204 14.272 2.792 5.89.652 10.492-2.623 13.116-9.24-1.97-.114-4.08-.345-6.263-.65-.41 1.333-.93 2.662-1.61 3.84-.51.89-1.64 1.198-2.53.695-.89-.505-1.2-1.638-.7-2.53.444-.783.812-1.67 1.12-2.586-1.15-.196-2.31-.414-3.458-.635-.394 1.53-.845 2.99-1.318 4.09-.41.93-1.507 1.36-2.446.95-.94-.41-1.364-1.5-.956-2.44.383-.88.75-2.07 1.087-3.36-.6-.13-1.195-.27-1.785-.4-.623-.14-1.26-.29-1.898-.45-.338 1.076-.73 2.193-1.21 3.324-.392.942-1.49 1.384-2.43.986-.94-.396-1.385-1.485-.986-2.427.4-.937.73-1.867 1.016-2.76-3.126-.796-6.338-1.677-9.594-2.627-.784 3.414-.103 6.084.71 7.824zm34.37-4.533c.76-3.766-.063-6.387-.978-7.99-1.147-2.023-3.05-3.472-5.2-3.976l-2.352-.49c-2.14-.43-5.37-1.09-10.208-2.29-6.48-1.61-12.04 1.35-15.112 7.97 3.157.92 6.266 1.768 9.296 2.535.488-2.36.593-3.99.593-4.02.07-1.02.94-1.8 1.97-1.743 1.02.06 1.8.93 1.74 1.96 0 .13-.12 2.005-.69 4.68.6.14 1.2.28 1.79.413.61.14 1.21.27 1.8.394.53-2.61.87-4.826.88-4.87.157-1.01 1.1-1.707 2.11-1.554 1.02.15 1.71 1.1 1.56 2.11-.024.18-.37 2.4-.912 5.06 1.246.243 2.425.454 3.543.645.41-2.25.51-4.04.51-4.07.05-1.02.92-1.81 1.945-1.76 1.026.05 1.816.916 1.76 1.936-.005.154-.104 2.03-.545 4.448 2.57.35 4.73.54 6.52.623zm-95.478-41.673c-.822-.15-2.453-.138-4.084 1.634-2.58 2.796-3.793 6.588-3.607 11.258.052 1.19.218 1.858.556 2.818.6 1.697 2.04 2.82 3.1 3.01 1.25.23 2.67-.503 4-2.07 2.89-3.43 4.14-9.718 2.72-13.73-.59-1.673-1.54-2.71-2.69-2.92z" fill="#001C58"/><path d="M162.33 392.82c4.678 3.086 9.633 5.86 9.633 5.86l-1.734 4.494c-.65-2.723-3.35-4.2-6.84-6.357l-11.41 16.497c-1.4 1.99-4.11 6.344-4.33 8.04 0 0-1.88-1.188-3.58-2.46-1.79-1.333-3.49-2.567-3.49-2.567 1.7-.414 4.64-4.745 6.41-7.147l11.1-15.836c-4.16-3.214-5.78-3.843-8.72-3.996l3.95-2.963c0 .003 3.8 3.007 9 6.435" fill="#001C58"/><path d="M343.167 448.703l.345.378c-.323-.01-.59.15-.936.35l1 1.93c.197.36.473.9.654.94 0 0-.214.12-.47.25-.224.11-.436.2-.436.2.003-.24-.075-.43-.34-.977l-1.05-2.02c-.35.18-.737.353-.84.64l-.088-.56s.517-.25 1.077-.54c.65-.334 1.084-.573 1.084-.573" fill="#001C58"/><path d="M169.716 433.74c-7.927-3.78-8.98-12.513-5.077-20.686 3.92-8.207 11.39-12.827 19.28-9.057 7.89 3.765 9 12.476 5.07 20.686-3.91 8.173-11.36 12.84-19.29 9.058zm13.072-27.374c-5.07-2.418-9.054 3.305-12.06 9.598-3.005 6.292-4.97 13.03.1 15.45 5.068 2.417 9.074-3.346 12.08-9.638 3.006-6.293 4.95-12.992-.12-15.41z" fill="#001C58"/><path d="M205.19 412.437c5.36 1.514 9.722 2.526 9.722 2.526l-.464 4.797c-1.437-2.075-2.096-2.582-6.672-3.748l-5.548 18.648c-.445 1.707-2.66 8.165-1.95 9.38 0 0-1.54-.33-4.027-1.02-2.79-.773-4.11-1.298-4.11-1.298 1.44-.942 3.24-6.463 3.83-8.707l5.58-18.772c-4.74-1.58-5.84-1.69-8.11-.64l2.75-4.09c0 .002 3.1 1.25 9.01 2.924" fill="#001C58"/><path d="M227.303 417.39c5.284.8 10.26 1.25 10.26 1.25l.2 4.813c-1.973-1.755-2.717-2.324-7.933-2.98l-3.02 19.15c-.214 1.754-1.337 8.415-.468 9.52 0 0-1.83-.204-4.357-.557-2.527-.36-4.08-.714-4.08-.714 1.235-.964 2.26-7.27 2.475-9.027l3.095-19.388c-4.52-.902-5.45-.556-7.62.703l1.97-4.554s4.22.99 9.478 1.784" fill="#001C58"/><path d="M246.894 435.598l-.397 12.87c6.75.088 11.37-.34 13.428-3.266l-1.032 5.847s-3.74.07-9.214 0c-6.02-.09-10.74-.48-10.74-.48 1-.99 1.25-7.27 1.26-9.03l.55-12.63c.02-3.37.33-8.8-.8-9.94 4.89.34 4.27.33 8.76.5 5.88.23 9.21.052 9.21.052l.74 4.83c-2.3-1.917-5.74-2.14-11.36-2.174l-.31 10.8 8.63.05c.78.01.82.44.82 1.306-.01.85-.03 1.306-.85 1.3l-8.713-.054" fill="#001C58"/><path d="M284.587 439.47c.498 4.684.992 8.048 2.06 8.662-.267.484-1.114 1.12-2.238 1.24-1.36.144-2.38-.522-3.32-1.608l-15.3-17.548.57 11.164c.18 1.754.39 8.405 1.48 9.293l-5.1.232c.88-1.096.65-7.433.46-9.192l-.72-12.598c-.19-1.756-.52-8.724-1.61-9.605l4.67-.17 15.683 18.622-1.305-10.714c-.19-1.762-1.14-8.145-2.2-9.033 0 0 .565-.055 2.47-.313 1.9-.258 2.59-.396 2.59-.396-.88 1.098.14 7.648.33 9.405l1.463 12.56" fill="#001C58"/><path d="M313.337 432.833c.543 2.18 1.622 7.774 3.22 8.87 0 0-2.42.7-3.9 1.154-1.315.405-4.216 1.157-4.216 1.157.69-1.21-.84-7.924-1.26-9.6l-1.45-5.844-9.72 2.383 1.11 5.943c.32 1.92 1.33 8.386 2.646 9.175 0 0-1.36.29-4.194.87-2.374.49-4.026.75-4.026.75.725-1.21-.25-7.2-.55-9.12l-2.36-12.56c-.43-2.34-1.51-8.26-2.81-8.96 0 0 1.262-.24 4.04-.78 2.777-.54 4.14-.91 4.14-.91-.686 1.41.52 7.09.85 9.08l.746 3.99 9.57-2.33-1.035-4.07c-.56-2.155-1.75-7.333-3.08-8.293 0 0 1.315-.38 3.977-1.137 2.66-.75 3.81-1.18 3.81-1.18-.53 1.437.953 6.48 1.566 9.08l2.94 12.347" fill="#001C58"/><path d="M331.1 425.386l-9.487 3.715.33 5.21c.212 1.78.218 3.41.607 4.33.19.46.52.76.833.93 0 0-.99.36-2.62.89-1.63.53-2.526.79-2.526.79.57-.98.706-2.33.656-4.01l-.835-24.693c-.08-.895-.187-1.736-.484-2.44-.265-.63-.71-.983-1.02-1.247 1.08-.7 2.433-1.47 3.807-2.046 2.18-.916 3.1-.88 4.69.974l13.92 17.258c2.53 3.295 4.77 5.51 6.23 5.95 0 0-1.42.66-4.1 1.85-2.67 1.19-4.44 1.864-4.44 1.864.16-.56.18-1.153-.17-2.04-.37-.963-1.74-2.59-2.62-3.823l-2.753-3.44zm-1.72-2.045l-8.432-11.67.595 14.67 7.836-2.99z" fill="#001C58"/><path d="M370.853 416.433c-1.908 1.287-3.337 2.27-3.337 2.27-.14-1.877-3.765-6.518-4.83-7.927l-8.177-10.662 6.57 21.02c-.26.418-.72 1.002-1.16 1.33-1.3.986-2.56.792-3.72-.116l-15.57-12.904 5.45 10.035c1.332 2.54 3.9 7.82 5.63 8.35 0 0-1.074.57-2.436 1.23-1.35.65-2.176 1.04-2.176 1.04.3-1.48-2.23-5.87-3.7-8.68l-6.066-11.41c-1.84-3.43-3.87-6.925-5.616-7.62 1.35-.655 1.754-.855 3.684-1.807 1.61-.79 3.027-1.568 3.027-1.568l17.53 14.906-6.895-21.106s.924-.626 2.677-1.795c1.744-1.17 3.32-2.334 3.32-2.334.135 1.89 3.785 6.7 5.115 8.424l7.55 9.71c1.6 2 4.594 6.448 6.726 6.958 0 0-1.71 1.35-3.62 2.64" fill="#001C58"/><path d="M347.066 447.758l.86 1.103c.252.31.507.69.777.8 0 0-.224.17-.443.31l-.38.26c-.058-.29-.424-.76-.543-.92l-.915-1.21.75 2.39c-.032.05-.084.12-.135.15-.195.15-.34.07-.47-.04l-1.805-1.44.704 1.14c.168.3.47.84.71.95l-.296.18c-.14.09-.28.16-.28.16.034-.29-.33-.857-.44-1.053l-.772-1.293c-.178-.294-.457-.724-.707-.8 0 0 .25-.125.49-.26.15-.08.3-.18.39-.225l2 1.66-.77-2.366c.076-.036.19-.108.37-.217.23-.14.42-.27.42-.27 0 .29.336.785.5 1.007" fill="#001C58"/><path d="M191.45 454.813c1.624.597 3.72 1.323 3.72 1.323-1.765 1.28-3.387 6.368-4.44 9.13l-4.07 11.293c-1.09 3.06-2.948 7.5-2.325 9.09 0 0-2.24-.78-4.053-1.42-1.55-.56-2.43-.85-4.073-1.55 1.99-.53 3.87-7.17 4.48-8.84l1.86-5.27-9.76-4.07-2.82 6.026c-.92 2.096-3.12 6.837-2.6 8.32 0 0-1.722-.7-4.245-1.86-2.97-1.367-3.62-1.73-3.62-1.73 2.095-1.03 3.335-4.407 4.93-7.82l5.1-11.3c1.726-3.865 3.283-7.22 3.166-9.42 0 0 .91.54 3.42 1.67 2 .896 3.02 1.346 4.146 1.795-1.588.63-3.798 6.33-4.964 8.89l-1.493 3.19 9.534 3.927 1.462-3.618c.684-1.85 3.05-7.375 2.54-9.266 0 0 1.954.71 4.093 1.49" fill="#001C58"/><path d="M202.47 491.46c-8.496-2.233-11.198-10.46-8.945-19.03 2.265-8.614 8.7-14.387 17.157-12.16 8.452 2.22 11.21 10.412 8.95 19.028-2.257 8.572-8.66 14.397-17.16 12.163zm7.558-28.71c-5.43-1.426-8.237 4.797-9.974 11.398-1.742 6.595-2.368 13.443 3.06 14.874 5.432 1.424 8.253-4.844 9.988-11.44 1.74-6.6 2.357-13.4-3.074-14.83z" fill="#001C58"/><path d="M225.49 494.494s.54-.584.908-1.775c.52-1.68.854-4.89 1.254-7.4l2.38-18.39c-5.07-.64-6.357-.27-8.583 1.04l2.08-4.71c1.58.35 5.07.73 9.33 1.26 2.84.353 11.32 1.12 11.32 1.12l.29 4.71c-1.87-2.165-3.81-2.36-8.038-2.69l-2.37 18.45c-.21 1.72-1.155 7.68-.22 9.443-1.02-.117-2.707-.308-4.123-.45-1.47-.15-3.4-.483-4.245-.627" fill="#001C58"/><path d="M265.88 488.106c.06 5.537-4.445 9.545-11.374 9.444-5.388-.08-8.206-2.295-9.284-3.197l1.12-5.255c1.674 3.35 4.447 5.782 7.57 5.83 3.26.047 5.826-1.872 5.878-5.103.034-2.348-1.26-3.766-6.698-6.596-5.214-2.7-7.154-5.38-7.154-9.38 0-5.46 4.743-8.22 10.315-8.23 4.098-.01 6.957 1.25 8.753 2.21l-1.158 4.81c-2.486-3.32-4.737-4.55-7.45-4.59-2.675-.043-4.57 1.415-4.55 4.16.017 2.996 3.31 4.615 7.754 7.095 5.11 2.86 6.25 5.722 6.28 8.784" fill="#001C58"/><path d="M291.11 471.146c.2.65.318 1.438.38 2.058.052.572.08 1.33.012 2.046-.147 1.794-1 3.88-2.407 5.346-2.152 2.246-4.957 3.363-8.674 3.537-1.43.088-1.77-.35-1.87-1.385l-.01-.224s-.03-.4.29-.42l.36-.037c1.1-.136 2.73-.48 4.04-2.07 1.26-1.635 1.687-3.808 1.468-6.148-.23-2.43-.96-4.18-2.595-5.44-1.42-1.09-3.086-1.45-4.802-1.31 0 0-.686.06-1.45.18 0 0-.446.04-.41.48l1.844 19.07c.16 1.68.616 7.59 1.994 8.81 0 0-1.57.16-4.526.41-2.254.18-4.01.23-4.01.23.59-1.47.494-3.63.346-6.15l-1.43-15.04c-.16-1.72-.45-7.63-1.855-9.08 0 0 3.776-.56 10.764-1.22 3.653-.35 6.646.12 9.228 1.86 1.695 1.13 2.856 2.79 3.33 4.48" fill="#001C58"/><path d="M319.7 477.296c1.497 6.61-1.607 12.24-8.49 13.96-4.834 1.21-11.797-.565-13.74-9.045l-2.368-10.01c-.623-2.8-1.642-7.76-3.268-9.06 0 0 1.817-.25 4.664-.78 2.846-.53 4.168-.85 4.168-.85-.747 1.18.038 5.82.78 9.23l3.023 12.73c.53 2.334 1.3 3.93 2.6 4.87.97.7 2.26.894 3.61.648 1.223-.23 2.5-.922 3.17-2.165.71-1.302.706-3.19.16-5.52l-3.39-12.73c-.93-3.5-1.998-7.89-3.146-8.62 0 0 1.38-.373 4-1.122 1.98-.564 3.16-.907 4.02-1.21-.786 1.917 1.08 7.79 1.472 9.474l2.716 10.22" fill="#001C58"/><path d="M350.6 474.688c.667.255 1.385.43 1.988.174-.07.415-.46 1.244-1.112 1.913-2.783 2.85-5.394 2.36-6.28 2.01-4.796-1.828-12.82-8.936-13.15-9.713 0 0-.082-.202.126-.288l.29-.13c1.253-.52 2.675-1.936 3.236-3.276.897-1.965.745-3.73-.165-5.89-.944-2.246-2.594-3.662-3.887-4.043-1.913-.565-3.34-.116-4.21.23 0 0-1.147.45-1.49.795 0 0-.23.19.04.973l6.06 17.307c.92 2.546 2.52 7.512 3.97 8.35 0 0-1.638.642-4.12 1.54-2.484.896-3.995 1.313-3.995 1.313.51-1.932-1.4-7.187-1.88-8.66l-3.92-11.688c-.98-2.818-2.76-7.867-4.22-8.674 0 0 2.86-.8 9.297-3.5 3.423-1.43 6.736-2.05 9.727-1.17 1.815.54 3.04 1.45 4.044 2.9.385.57.667 1.12.91 1.69.223.538.377 1.148.478 1.71.32 1.77.057 3.65-.97 5.42 0 0-.92 1.784-2.89 3.184 0-.003 6.32 5.348 12.147 7.54" fill="#001C58"/></g></svg>