<svg width="512" height="512" viewBox="0 0 512 512" xmlns="http://www.w3.org/2000/svg"><title>west-ham-united</title><g fill="none" fill-rule="evenodd"><path d="M274.59 369c41.054-5.786 64.815-19.64 84.75-32.67l-8.888-11.13c-2.18 1.415-5.342 3.324-7.682 4.62L274.59 369zm-121.93-32.67c20.377 13.713 50.124 28.954 85.585 32.942l-70.15-40.105c-2.26-1.266-4.448-2.592-6.567-3.968l-8.868 11.13zM451 273.83l-2.12 10.72c-.28 1.477-5.19 33.224-28.22 58.47l18.017 22.807-2.26 2.672c-.642.75-18.187 21.28-48.396 39.31-27.78 16.56-69.73 36.09-132.01 36.09-60.03 0-105.16-19.77-132.44-36.36-29.65-18.02-47.67-38-48.29-38.75l-2.23-2.64 2.03-2.8 15.75-19.59c-22.97-25.57-27.88-59.84-28.17-61.41L61 273.83l40.663 19.39 14.35-41.993.01-183.227h279.983l-.05 174.165c0 2.5-.08 5.324-.22 7.745l14.6 43.31L451 273.83z" fill="#5299C6"/><path d="M339.576 321.51l-83.546 47.812-83.616-47.81c-30.238-16.95-47.562-45.983-47.562-79.68l-.04-165.03H387.22l-.04 165.363c-.002 34.9-17.767 62.86-47.604 79.346" fill="#60223B"/><path d="M256.603 379.068c69.747 0 121.728-44.597 135.637-57.416l35.15 44.255c-11.92 11-69.024 69.21-171.38 69.21-98.59 0-159.408-56.783-171.43-69.29l35.26-44.165c5.735 5.416 18.38 16.396 35.682 27.086 22.285 13.763 57.676 30.15 99.846 30.32h1.235" fill="#60223B"/><path d="M392.28 307.637l-23.34 2.612c10.958-11.07 19.845-26.17 23.54-41.94l12.745 37.09 33.232-15.84c-4.4 15.63-11.38 31.79-23.5 46.27l-22.677-28.2" fill="#60223B"/><path d="M383.824 317.272c-4.348 3.436-8.867 8.158-17.274 14.005l-8.917-11.182 26.19-2.823" fill="#60223B"/><path d="M154.357 320.095l-8.907 11.182c-7.613-5.556-13.468-10.54-17.284-14.005l26.19 2.823" fill="#60223B"/><path d="M96.39 336.59c-13.888-16.144-19.482-35.604-22.847-47.027l28.773 13.714 4.46 2.13 1.596-4.662 11.127-32.43c4.06 15.06 12.23 30.09 23.55 41.933l-23.33-2.612-23.33 28.955" fill="#60223B"/><path d="M127.744 342.63l-9.6 18.605c5.22-4.913 15.224-14.136 15.224-14.136l4.93 3.78-9.068 19.23.07.05c-.07-.05 15.085-15.08 15.085-15.08l5.835 3.77-27.267 25.42-5.21-3.73c3.935-7.42 10.975-22 10.975-22-5.714 5.45-11.65 10.43-18.388 16.49l-4.99-4 17.373-32.882 5.03 4.46" fill="#FFF"/><path d="M152.34 360.23l11.91 6.75-3.405 5.728-6.066-3.285-3.91 6.59 5.13 3.035-3.58 5.957-5.13-3.045-4.05 7.033 6.23 3.617-3.398 5.736-12.17-6.952 18.416-31.163" fill="#FFF"/><path d="M155.27 392.78c.494 1.628 1.628 3.115 3.074 3.798 2.09.975 4.36.23 5.143-1.436 2.26-4.803-5.222-10.458-1.577-18.245 2.51-5.344 7.542-7.785 12.423-5.485 1.506.693 3.183 2.03 4.39 3.657l-3.105 6.61c-.793-1.39-2.08-2.86-3.214-3.38-1.466-.7-2.962-.66-3.977 1.48-1.848 3.95 5.875 9.5 1.668 18.45-2.943 6.27-8.256 7.772-13.7 5.22-1.877-.89-3.262-2.03-4.317-3.895l3.193-6.79" fill="#FFF"/><path d="M190.2 385.155l-10.033 27.82-6.377-2.292 10.023-27.808-4.168-1.507 2.25-6.28 14.732 5.285-2.25 6.27-4.177-1.488" fill="#FFF"/><path d="M220.318 422.78l-6.678-1.176 2.57-14.537-5.904-1.125-3.083 14.476-6.67-1.487 7.413-35.54 6.568 1.49-3.033 14.81 5.9 1.12 2.85-14.77 6.67 1.13-6.6 35.63" fill="#FFF"/><path d="M242.714 388.852l3.826 36.388-6.457-.31-.844-6.983-6.77-.503-1.84 6.67-6.42-.712 11.74-35.082 6.76.532zm-3.827 23.52l-.954-12.177-3.605 11.845 4.56.33z" fill="#FFF"/><path d="M259.837 389.264l4.458 20.947h.09l2.752-21.2 7.302-.51 5.31 35.8-6.56.59-2.96-21.86h-.08l-2.88 22.21-4.69.16-4.62-21.87h-.08l-1.08 21.943-6.7-.13 2.42-36.09 7.3.03" fill="#FFF"/><path d="M295.91 385.286l5.263 25.598c.512 2.462 1.818 3.175 3.103 2.914 1.275-.272 2.19-1.447 1.667-3.898l-5.263-25.69 6.65-1.476 5.382 26.342c1.145 5.496-.603 10.298-7 11.633-6.387 1.32-9.912-2.39-11.057-7.88l-5.393-26.34 6.648-1.21" fill="#FFF"/><path d="M316.79 379.77l13.938 17.35.08-.03-6.628-19.75 5.996-2.3 11.66 34.317-5.614 2.07-14.05-16.938-.08.02 5.985 19.75-6.077 1.89-10.83-34.53 5.625-1.86" fill="#FFF"/><path d="M348.564 406.604l-14.833-33.042 6.25-2.713 14.82 33.07-6.22 2.68" fill="#FFF"/><path d="M355.936 369.915l14.16 26.19-6.026 3.206-14.16-26.1-3.937 2.05-3.063-5.93 13.91-7.36 3.313 5.78-4.197 2.18" fill="#FFF"/><path d="M359.712 360.21l11.308-7.294 3.735 5.385-5.744 3.93 4.02 6.38 4.84-3.23 3.87 5.65-5.15 3.24 4.88 6.88 5.93-3.9 3.77 5.675-12.21 7.947-19.23-30.64" fill="#FFF"/><path d="M373.953 350.606l5.553-4.04c7.24-5.273 14.553-1.446 20.688 6.993 6.147 8.44 7.784 17.1.553 22.37l-5.554 4.05-21.24-29.38zm22.786 19.992l.49-.362c2.92-2.12 1.06-7.163-2.8-12.477-3.87-5.32-7.67-8.24-10.58-6.1l-.5.35 13.37 18.58z" fill="#FFF"/><path d="M190.48 101.746l10.225 11.684-8.99 10.317-11.267 10.157s-15.968 10.308-17.173 11.072c-1.195.743-2.16.683-3.023-.01-.874-.704-.653-2.3.22-3.246l8.668-12.427c1.617-2.542.884-5.294.683-6.932-.21-1.62.24-2.24 1.175-3.12.794-.76 15.416-13.88 19.483-17.49" fill="#F7C240"/><path d="M247.765 204.01l-61.833-69.543 5.955-5.546 61.502 69.13-5.63 5.96" fill="#F7C240"/><path d="M264.105 210.207l76.254 85.606s-.05 1.92-2.1 3.858c-1.7 1.62-3.88 1.69-3.88 1.69l-75.69-85.01 5.41-6.13" fill="#F7C240"/><path d="M311.065 113.57l9.39 10.118 11.267 10.156s15.958 10.308 17.174 11.052c1.195.763 2.16.693 3.033 0 .86-.693.64-2.29-.24-3.245l-8.67-12.41c-1.61-2.55-.89-5.29-.69-6.93.21-1.63-.24-2.25-1.176-3.13-.804-.76-15.737-13.87-19.604-17.4l-10.506 11.81" fill="#F7C240"/><path d="M177.667 301.358l148.522-166.89-5.98-5.547-148.51 166.9s.04 1.92 2.09 3.86c1.69 1.62 3.87 1.69 3.87 1.69" fill="#F7C240"/><path d="M207.724 317.563c.19-.26 18.63-26.734 48.236-26.734 29.968 0 47.612 26.82 47.783 27.09l3.947-2.54c-.753-1.2-19.15-29.27-51.73-29.27-32.126 0-51.32 27.62-52.122 28.8l3.886 2.64" fill="#F7C240"/><path d="M162.08 184.318V169.91h7.532v6.42h6.74v-6.42h7.54v6.42h6.63v-6.41h7.672v14.398H162.08" fill="#F7C240"/><path d="M313.876 184.318V169.92h7.673v6.41h6.62v-6.42h7.54v6.42h6.74v-6.42h7.53v14.408h-36.11" fill="#F7C240"/><path d="M266.786 207.062l12.373-14.074h5.87v-5.958h7.53v5.958h6.75v-6.1h7.52v6.1h6.36l-6.61 56.22h51.092l5.543 26.863s-10.355-6.14-25.5-6.14c-4.4 0-8.917.68-13.416 2.05l-57.537-64.91" fill="#F7C240"/><path d="M187.65 271.902c-4.38-1.296-9.05-1.98-13.317-1.98-15.145 0-25.5 6.15-25.5 6.15l5.554-26.865h51.098l-6.628-56.22h6.367v-6.098h7.542v6.09h6.74v-5.96h7.53v5.95h5.404l12.493 14.413-57.283 64.5" fill="#F7C240"/><path d="M236.005 127.726v-16.004h8.285v7.203h7.422v-7.203h8.285v7.203h7.29v-7.052h8.367v15.853h-39.65" fill="#F7C240"/><path d="M241.127 283.817v-26.804c.01-5.143 3.143-14.868 14.903-14.868 11.76 0 14.904 9.724 14.924 14.88v26.832l-.02-.09c15.244 3.597 23.52 11.603 23.52 11.603 4.257-6.68 9.4-11.995 14.983-15.994L256.02 219.24l-53.417 60.127c5.583 3.988 10.725 9.313 15.023 16.003 0 0 8.226-7.966 23.42-11.583l.08.03" fill="#F7C240"/><path d="M245.043 283.003v-26.3c.01-1.066.763-10.58 10.987-10.58 10.234 0 10.987 9.514 10.997 10.6v26.28l-.03-.03c-3.374-.573-7.06-.914-11.017-.914h.11c-3.987 0-7.692.34-11.097.93l.05.01" fill="#F7C240"/><path d="M200.665 245.27H159.65l6.9-57.054h27.516l6.6 57.053zm-13.588-37.504h-4.81v-6.702h-4.028v6.702h-4.95v3.968h4.94v10.56h4.03v-10.56h4.81v-3.968z" fill="#F7C240"/><path d="M317.994 188.215h27.527l6.9 57.054h-41l6.58-57.06zm20.226 19.55h-4.83v-6.7h-4.008v6.7h-4.94v3.97h4.94v10.558h4.008v-10.56h4.83v-3.967z" fill="#F7C240"/><path d="M234.7 170.875l7.873-39.382h26.904l7.973 39.523-21.34 23.86-21.41-24zm28.32-22.152h-4.81v-6.7h-4.007v6.7h-4.95v3.978h4.95v10.55h4.007V152.7h4.81v-3.977z" fill="#F7C240"/></g></svg>