<svg width="512" height="512" viewBox="0 0 512 512" xmlns="http://www.w3.org/2000/svg" xmlns:sketch="http://www.bohemiancoding.com/sketch/ns"><title>epl</title><desc>Created with Sketch.</desc><g sketch:type="MSShapeGroup" fill="none"><path d="M201.396 79.279l-1.16-9.083-10.263 10.25-9.197-11.446-9.186 11.446-10.259-10.25-1.168 9.083s-5.315-5.441-6.894-7.391c2.549 5.767 5.515 14.157 6.727 20.112 6.268-1.985 14.094-2.554 20.78-2.554 6.694 0 14.524.568 20.792 2.554 1.212-5.954 4.173-14.344 6.723-20.112-1.576 1.951-6.895 7.391-6.895 7.391m-37.621 8.932l.181-6.493 6.349 5.381c-2.46.269-4.701.673-6.53 1.112m17.001-1.624c-1.939 0-3.82.051-5.621.153l5.621-6.479 5.639 6.479c-1.805-.102-3.69-.153-5.639-.153m10.482.512l6.348-5.381.181 6.493c-1.83-.439-4.066-.844-6.53-1.112m154.563 223.025c-1.295-1.695-4.289-3.365-6.076-8.908-3.041-9.444-2.561-16.402-3.918-23.753-.796-4.371-2.616-5.212-4.431-9.99-.825-2.118-1.616-13.488-1.419-21.197.181-6.549.186-19.311-4.228-27.904 13.629-3.577 21.883-12.107 21.393-21.441-.772-14.488-19.892-18.435-39.611-17.896-5.913.16-27.537 1.174-26.918-6.813.254-3.471 5.744-5.932 8.048-6.063 1.925 1.457 4.919 3.804 9.86 2.947 10.448-1.806 11.311-12.885 22.137-13.774-4.351-3.585-16.408-5.02-22.968-.884 0-1.27.462-2.444.986-3.277-8.765 1.204-10.577 6.437-11.762 8.807-9.451 3.156-13.475 8.17-13.29 13.277.48 13.669 24.877 13.065 33.458 13.037 8.953-.037 28.588 1.078 30.349 10.404 1.19 6.292-7.32 12.044-16.612 12.544-12.932-14.476-34.456-7.519-54.586-21.825-23.302-16.544-35.507-17.941-44.195-31.457 2.1.898 6.523 1.501 9.157 0-4.569-3.449-6.506-6.901-8.485-11.983-2.411-6.139-4.201-8.835-7.585-11.842 2.034-.082 4.198.852 5.544 1.359-.021-7.366-5.177-12.534-7.221-15.335-1.749-2.415-3.51-6.046-.942-9.566-2.685-2.947-5.181-1.182-6.244-.272-.906.793-1.644.648-1.102-1.143.553-1.889 2.431-4.486 4.708-4.383 2.04.09 3.066 1.84 3.488 2.479.451-4.323-1.168-7.466-4.049-8.021-1.71-.323-3.311.212-4.533 1.031-1.023-1.677-1.878-2.908-4.911-3.947-1.277-.435-5.77-1.446-9.252-1.823-2.44 1.893-5.075 4.713-7.247 8.124-.239-1.624.238-5.221 1.244-8.566-8.695-.298-21.857.527-28.024 4.555 1.237 1.169 1.964 2.741 2.067 3.721.128 1.343-.383 1.119-.913.577-.568-.553-2.237-2.588-4.918-2.787-5.631-.424-6.508 6.472-5.239 8.735.528-1.663 1.662-3.022 3.437-3.109 2.776-.126 4.73 3.347 5.057 5.163.254 1.308-.404 1.408-1.277.603-1.147-1.075-2.314-1.443-3.78-1.178-5.246.94-7.17 10.005-8.979 17.881-1.713 7.504-5.776 12.672-10.725 14.761 1.091 1.543 5.723 3.428 10.565 2.932-10.593 9.261-8.781 25.578-7.37 30.363.546-1.929 3.344-9.42 8.378-11.655-6.875 13.956-2.132 30.687.597 35.155.44-1.954 1.558-4.185 2.768-5.471 2.62 4.212 2.656 16.206-2.969 20.977 3.392.156 8.43-1.032 11.398-7.094 3.344 12.859-2.856 25.454-7.072 29.653 1.207.651 8.804 1.903 13.198-3.708 1.179 20.425 6.276 26.556 7.865 29.728 1.587 3.183 1.703 5.405 1.83 8.095.91 19.602 7.589 27.459 5.905 34.003-.561 2.17-2.878 2.294-4.159 2.432-2.968.32-3.78-.176-6.93.799-5.97 1.84-7.265 9.065-7.029 11.061.149 1.27.796 1.65 1.786 1.65h27.552c2.012 0 2.666-1.089 3.304-3.604-6.152-6.512-10.049-15.276-10.049-24.931 0-13.536 7.407-25.527 18.394-31.796 0 0 .673 1.798 4.678 1.66 1.652-.054 1.798-1.051 2.79-.954 1.488.13.775 1.449 3.271 1.903 1.466.26 2.864.33 4.533.32 1.947-.024 2.622-.706 3.056-1.241.655-.808 1.681-.684 2.165.011.389.553.869 1.047 1.83 1.337 1.51.442 7.233.472 9.463-.04 1.633-.372 2.15-1.357 2.718-2.542.316-.673.538-1.435 1.742-1.428 3.766.045 7.484-.714 9.641-1.185 3.045-.658 3.861.603 4.41 2.231 4.268 12.763 18.579 22.247 24.851 26.917 1.849 1.373 2.259 3.009 1.761 5.366-.312 1.546-2.153 8.043-4.693 11.275-2.226 2.836-3.274 3.549-6.952 3.893-1.778.167-6.693.092-9.055 2.111-3.838 3.267-4.33 8.406-4.264 9.182 0 0 .081 1.566 1.79 1.566h19.94c1.866 0 2.791-.332 3.503-1.212.492-.621 1.382-1.731 2.347-2.858.942-1.126 3.263-2.36 4.609-4.334 1.018-1.49 1.462-3.847 2.379-5.973 1.594-3.679 5.683-8.908 9.285-13.919 2.346-3.281 2.626-5.88.062-10.132-1.852-3.073-14.636-14.999-7.96-25.893 1.365-2.226 3.7-3.664 5.639-1.798 2.056 1.976 2.721 6.408 21.96 25.612 2.426 2.412 3.172 3.626 4.005 5.206 2.594 4.94 5.785 11.949 6.716 14.187 1.302 3.107 1.082 5.269.678 6.541-.605 1.893-1.652 3.156-2.642 5-1.265 2.361-1.287 5.831-.6 7.92.532 1.607 1.8 1.651 4.05 1.651h18.769c1.804 0 1.866-.942 2.088-1.947.414-1.754-.008-5.297-2.017-7.89m-186.126-195.57c.534-.35 2.008-1.226 4.027-1.925 2.656-.936 2.944-1.706 2.481-4.434-.21-1.241.641-1.766 2.023-2.276.964-.349 4.042-1.199 6.101-1.639.99.621 4.533 5.359 6.476 8.121 1.939-2.762 5.479-7.5 6.469-8.121 2.939.588 5.879 1.468 8.316 2.301 2.241.769 3.235 1.658 4.311 4.578.823 2.27 1.131 4.887 1.131 4.887s-1.487.315-3.667.063c-2.492-.287-3.889-1.082-5.13-.813-2.124.423-4.762 3.096-5.017 4.185-.447 2.274.371 4.097.532 4.686.68-2.483 2.001-4.189 3.639-4.292.684-.046 1.582.43 2.848.583.736.092 1.481.056 2.15-.39 1.547-1.043 2.548-2.285 3.562-2.816 0 0 1.451 2.624 2.153 4.93.484 1.644-.312 2.951-3.074 4.276-1.594.759-3.773 2.096-5.137 3.313-1.357 1.208-1.062 2.673-.378 3.78 1.263 2.048 2.347 4.894 2.499 7.21.073 1.068-.331 1.862-1.139 2.323-1.047.602-2.801 1.02-5.039.911-2.408-.111-5.46-3.051-7.905-3.835l.484-3.825s3.755-2.348 5.944-4.314c.51-.454.284-1.393.218-2.01-1.961-.648-5.144-1.127-7.731-1.124-2.007.011-4.383.343-6.253.735.554-2.541 1.156-7.342.251-10.183-.331-1.085-3.936-3.746-6.057-4.189-1.244-.241-2.652.546-5.144.829-2.165.241-4.176-.305-4.176-.305s.077-1.125.233-1.221m19.965 39.752c.157.83.283 3.791-.825 5.457-.211.323-.451.366-.823 0-.808-.788-2.576-2.621-4.802-3.45-.994-.383-5.017-.873-3.748-6.852.109-.581.317-1.018 1.281-1.291 1.2-.337 2.805-1.16 4.882-3.348.528-.553 1.611-.964 2.794-.592.932.291 1.587.464 2.387.464.804 0 1.455-.174 2.375-.464 1.197-.372 2.278.038 2.798.592 2.077 2.189 3.685 2.947 5.089 3.412.877.294.972 1.078.67 1.609-.316.586-.803 1.735-1.022 2.686-.201.956-.517 2.658-2.31 3.939-.753.539-2.904 1.628-4.479 3.368-.316.338-.67.438-.702-.074-.048-.517-.153-4.252-2.626-6.099-.656-.49-1.106-.23-.939.643m-12.937-11.238c-.808-.461-1.205-1.26-1.132-2.323.211-3.067 2.037-7.058 3.758-8.905.259-.27 2.622-.969 3.791.078 2.219 1.978 6.05 4.393 6.05 4.393l.48 3.827c-2.434.791-5.504 3.724-7.905 3.837-2.239.107-3.996-.308-5.043-.907m-7.495-17.743c-1.005-.677-1.721-2.978.782-8.384 1.018.528 3.077 2.05 4.62 3.089.678.444 1.415.471 2.146.39 1.263-.153 2.176-.636 2.856-.588 1.888.124 1.918 4.305 1.94 4.82.029.525-.211.546-.557.257-.852-.692-1.631-.677-2.226-.677-.829.004-2.805.795-3.641 1.018-.832.225-4.176 1.257-5.919.076m6.902 72.251c-7.153-14.061 8.316-17.313 13.624-23.738-.979 7.035-11.561 10.236-13.624 23.738m20.707 24.515c1.772-3.341 6.251-12.455 2.186-24.729-4.281 2.328-8.429 8.646-9.918 14.972-4.66-18.086 9.258-24.381 12.442-40.117 4.096 7.246-5.73 17.006 2.044 25.478 4.887-20.037 23.8-12.883 22.735-37.375 8.549 19.721-3.926 25.009-6.661 39.883-2.572-4.461-2.783-10.001-.324-16.179-12.441 6.018-5.665 32.116-22.505 38.066m136.563 19.43c-.561 2.537-2.805 3.2-4.014 1.515-2.194-3.075-3.118-18.988-20.388-27.102-2.622-1.221-3.46.238-2.786 1.759 2.714 5.998 3.863 11.636 3.074 17.26-.251 1.83-1.448 2.753-2.511.784-.95-1.773-2.951-5.163-4.544-6.678-2.965-2.847-6.93-2.822-10.427-2.361-3.485.461-18.176 4.925-21.402.936-1.971-2.451-4.794-7.585-3.216-13.813.419-1.646-1.051-2.203-2.776-1.042-5.227 3.553-3.198 15.799-2.845 18.1.408 2.65.561 4.794-1.786 7.036-3.583 3.426-9.361 9.621-11.696 11.238-2.332 1.628-4.737 1.313-6.346 2.882-1.228 1.203-1.182 4.373-3.248 4.973-1.018.305-3.289.437-4.926.203-1.619-.218-2.419-.437-2.637-3.032-.084-.966-.743-1.305-1.587-.043-.662.961-1.28 1.983-2.717 2.363-1.64.45-3.857.624-5.85.191-1.444-.305-2.063-.715-2.063-2.094 0-.608.036-1.151-.015-1.534-.048-.492-.484-.535-1.051-.16-.975.65-1.386 2.241-3.416 2.314-1.161.041-4.414.038-3.45-3.601.554-2.036 1.878-7.916 9.019-9.317 2.823-.543 10.542.301 13.105-.174 2.819-.529 4.932-2.201 4.932-4.056 0-1.854-5.803-1.419-6.148-3.16-.67-3.281 9.673-5.775 9.149-9.121-.412-2.551-3.282-2.604-3.744-4.456-.473-1.859 3.17-6.905 3.17-11.132 0-5.628-3.17-8.827-4.05-13.213-.852-4.203.098-9.836 1.962-12.673 1.313-2.01 2.259-2.599 5.231-2.922 10.318-1.118 23.397 9.415 26.879 11.569 11.416 7.066 17.797 8.5 32.011 11.058 8.51 1.55 18.063 2.371 25.238 12.418 3.733 5.264 7.52 17.673 5.869 25.084" id="Shape" fill="#00235D"/><path d="M228.955 271.998c-5.218-.285-11.914 1-15.734 3.248-.022 5.393-.575 10.886-1.601 15.625 3.543 2.599 10.908 5.699 15.088 6.589 3.271-2.379 7.458-7.303 9.706-11.058-1.321-5.362-3.861-10.972-7.458-14.404m-2.637 5.851c-4.286-1.116-10.874-1.134-10.874-1.134 3.685-1.255 8.32-2.301 12.427-2.207 2.569 2.784 4.308 6.626 5.857 11.001-.001 0-3.784-4.869-7.41-7.66m7.802-14.121c-.021-.022-.796 1.298-4.478 1.474.444.565 1.147 1.835 1.35 2.582 0 0 4.308.301 7.104 1.014 3.042 2.709 5.323 5.898 6.942 9.809-.008.021-1.878 3.939-4.115 7.789 1.87 3.83 3.998 8.721 4.351 13.175-2.1 5.386-5.807 9.983-10.536 13.177.643-1.536 1.357-3.621 1.805-5.805-2.674-.227-7.342-1.187-9.761-1.978-2.867 3.542-6.349 5.954-10.769 8.146.641 1.435 1.986 3.483 2.903 4.471-7.218 0-13.813-2.706-18.809-7.15 0 0 3.598.486 6.818-.12-.753-3.992-1.034-10.916-.692-14.466-5.045-1.43-9.619-3.381-13.246-5.65-.684 1.323-1.434 3.124-1.885 4.212-1.147-6.483-.135-13.143 3.26-19.007.458.73.935 1.502 1.299 2.152 3.377-2.308 8-4.687 12.945-6.267.222-1.996.723-4.873 1.142-6.735 0 0-1.863-.174-2.663-1-.404-.405-.873-.372-1.222-.211-1.699.791-4.169.267-4.66.036-9.495 5.597-16.055 16.056-16.055 27.867 0 17.778 14.439 32.18 32.251 32.18 17.823 0 32.258-14.402 32.258-32.18.001-11.673-6.223-21.879-15.537-27.518m-2.637 51.617c-.189-1.68-.455-3.716-.549-4.812-1.495-1.327-2.834-2.498-3.947-3.39 1.826.543 4.94 1.264 7.003 1.684-.321 1.446-1.823 5.355-2.507 6.518m12.769-29.595l1.706-3.787s2.463 8.136.116 14.942c.001 0 .001-5.702-1.822-11.154" fill="#ED1A3A"/><path d="M138.694 331.796h-14.694c1.778 1.051 2.678 4.643 2.678 7.157v35.88c0 3.209-1.488 6.315-2.594 7.244h12.261v-17.391s1.041.049 1.939.049c12.173 0 19.595-7.723 19.595-17.42-.001-9.78-6.866-15.309-19.184-15.519m-.854 24.848c-.891 0-1.495-.033-1.495-.033v-16.948s.898.024 2.085.024c6.538 0 9.43 3.189 9.43 8.221-.001 5.403-4.087 8.663-10.02 8.736m49.72 6.122c-1.328-2.369-2.535-2.996-2.535-2.996 4.962-1.602 9.269-6.546 9.269-13.952 0-10.221-7.119-14.072-18.186-14.072l-15.869.007c1.793 1.053 2.681 4.643 2.681 7.153v35.881c0 3.221-1.47 6.321-2.586 7.246h12.271v-20.601l1.299.007c2.391 0 2.831 1.702 3.271 2.51l8.51 18.084h11.958m-22.797-27.601h-2.255v-14.863h2.557c6.2 0 9.055 2.394 9.055 7.217 0 4.664-3.566 7.645-9.357 7.645m203.087 8.335c-1.331-2.369-2.536-2.996-2.536-2.996 4.96-1.602 9.266-6.546 9.266-13.952 0-10.221-7.131-14.072-18.19-14.072l-15.858.007c1.771 1.053 2.67 4.643 2.67 7.153v35.881c0 3.221-1.481 6.321-2.58 7.246h12.261v-20.601l1.299.007c2.398 0 2.834 1.702 3.282 2.51l8.505 18.084h11.949m-22.786-27.601h-2.255v-14.863h2.549c6.2 0 9.059 2.394 9.059 7.217.001 4.664-3.568 7.645-9.353 7.645m-116.365-22.666l11.184 19.16c1.47 2.501 2.325 3.962 2.951 5.646h.07c.658-1.73 1.571-3.123 3.106-5.67l11.202-19.114h9.612v50.289h-9.721s.015-33.803 0-33.765h-.113c-.643 2.114-1.979 4.337-2.729 5.593l-9.074 14.796h-4.572l-9.096-14.796c-.626-.947-1.696-3.068-2.525-5.593l-.174.011v33.706h-12.17c1.106-.925 2.584-4.024 2.584-7.246v-35.881c0-2.512-.902-6.08-2.67-7.136m70.307 50.263h-12.259c1.102-.925 2.579-4.024 2.579-7.246v-35.881c0-2.512-.891-6.094-2.67-7.153l12.344-.007m-105.33 50.295c1.11-.925 2.586-4.024 2.586-7.246v-35.881c0-2.512-.892-6.102-2.678-7.153l28.733.034v8.165h-16.353v12.131h14.425v8.058h-14.425v13.669h17.529l-3.438 8.266m87.675-.043c1.099-.925 2.586-4.024 2.586-7.246v-35.881c0-2.512-.898-6.102-2.685-7.153l28.733.034v8.165h-16.349v12.131h14.425v8.058h-14.425v13.669h17.524l-3.435 8.266m-173.011 60.196c1.099-.922 2.58-4.029 2.58-7.243v-35.888c0-2.505-.902-6.094-2.678-7.146l28.733.025v8.167h-16.353v12.142h14.422v8.054h-14.422v13.669h17.521l-3.437 8.266m149.794-.046c1.114-.922 2.591-4.029 2.591-7.243v-35.888c0-2.505-.892-6.094-2.678-7.146l28.741.025v8.167h-16.361v12.142h14.425v8.054h-14.425v13.669h17.524l-3.442 8.266m-234.276-.046c1.118-.922 2.594-4.029 2.594-7.243v-35.888c0-2.505-.896-6.094-2.678-7.146l12.383-.015v42.072h16.757l-3.437 8.266m118.051-8.912v-8.713c0-3.214-1.445-6.345-2.557-7.274h12.096l.058 21.453c-4.206 2.332-11.143 4.062-17.15 4.062-15.888 0-25.128-10.19-25.128-25.441 0-15.705 10.114-26.035 27.864-26.035 4.685 0 9.153 1.082 12.049 2.305l.015 9.529c-2.952-1.731-7.964-3.245-12.646-3.245-9.871 0-16.815 5.716-16.815 17.409 0 10.591 5.602 16.807 15.775 16.807 2.379 0 4.842-.315 6.439-.858M244.219 435.238c-.687-1.893-14.684-43.127-14.684-43.127h-9.855s-13.999 41.255-14.684 43.148c-1.12 3.068-2.475 6.047-3.897 7.037h11.43l3.242-10.222h17.597l3.315 10.204h11.427c-1.426-.995-2.778-3.972-3.892-7.04zm-26.161-10.787l4.201-12.74c.898-2.889 1.663-5.408 2.217-8.362h.057c.59 2.954 1.244 5.466 2.144 8.203l4.344 12.899h-12.962zm81.007-25.102c0-3.216-1.445-6.345-2.548-7.274l11.991.029v32.063c0 6.584 2.35 10.741 10.205 10.741 7.294 0 10.358-4.136 10.358-10.684v-32.12h9.405v32.57c0 10.296-6.017 18.229-20.413 18.229-14.967 0-19.026-8.04-19.026-18.14" fill="#00235D"/></g></svg>