<svg width="512" height="512" viewBox="0 0 512 512" xmlns="http://www.w3.org/2000/svg"><title>chivas-usa</title><g fill="none" fill-rule="evenodd"><path d="M255.5 154.236c-82.587 0-149.538 67.18-149.538 150.052 0 82.87 66.95 150.053 149.54 150.053 82.585 0 149.536-67.18 149.536-150.05 0-82.873-66.948-150.053-149.537-150.053" fill="#1C4189"/><path d="M255.5 160.855c-78.945 0-142.94 64.216-142.94 143.433 0 79.216 63.997 143.434 142.94 143.434 78.945 0 142.942-64.218 142.942-143.434 0-79.217-64-143.433-142.94-143.433" fill="#FFF"/><path d="M255.5 164.13c-77.14 0-139.677 62.75-139.677 140.158 0 77.408 62.536 140.16 139.678 140.16 77.144 0 139.68-62.752 139.68-140.16 0-77.407-62.536-140.157-139.678-140.157" fill="#1C4189"/><path d="M255.5 202.433c-56.06 0-101.507 45.602-101.507 101.855 0 56.252 45.447 101.856 101.508 101.856 56.06 0 101.51-45.604 101.51-101.856 0-56.253-45.448-101.855-101.508-101.855" fill="#FFF"/><path d="M255.5 212.163c-3.402 0-6.76.19-10.068.554v183.146c3.307.36 6.666.554 10.07.554 3.402 0 6.76-.193 10.066-.554V212.717c-3.304-.363-6.664-.554-10.067-.554M208.15 225.35v157.88c6.262 3.79 13.013 6.853 20.135 9.068v-176.02c-7.122 2.217-13.873 5.28-20.135 9.07m-37.286 43.185v71.512c4.726 11.246 11.612 21.35 20.136 29.797V238.735c-8.524 8.445-15.41 18.55-20.136 29.796v.004M320 238.737v131.107c8.526-8.448 15.415-18.552 20.14-29.797V268.53c-4.725-11.244-11.614-21.348-20.14-29.795v.002m-37.283-22.457v176.018c7.122-2.215 13.87-5.28 20.136-9.07V225.35c-6.265-3.79-13.014-6.853-20.136-9.07" fill="#E31B22"/><path d="M255.5 206.03c-54.08 0-97.92 43.99-97.92 98.258 0 54.267 43.84 98.258 97.92 98.258s97.92-43.992 97.92-98.258c0-54.267-43.84-98.258-97.92-98.258m0 190.385c-50.705 0-91.81-41.247-91.81-92.127 0-50.88 41.105-92.125 91.81-92.125 50.707 0 91.812 41.245 91.812 92.125s-41.107 92.127-91.81 92.127" fill="#1C4189"/><path d="M198.38 182.49s6.09 7.37 6.09 18.356v82.024c0 32.99 51.03 49.586 51.03 49.586s51.027-16.596 51.027-49.586v-82.024c0-10.987 6.09-18.356 6.09-18.356h-114.24.004" fill="#FBBC08"/><path d="M220.492 197.64v79.64c0 22.613 35.01 34.02 35.01 34.02s35.007-11.407 35.007-34.02v-79.64h-70.02" fill="#1C4189"/><path d="M210.113 196.213l1.935-3.06 1.907 3.06h3.62l-3.783-5.207 3.635-4.957h-3.444l-1.805 2.955-1.846-2.957h-3.518l3.607 5-3.766 5.16h3.46v.003m50.708 118.575h-3.432l-1.802 2.96-1.845-2.96h-3.534l3.603 5-3.782 5.18h3.49l1.934-3.09 1.906 3.09h3.607l-3.767-5.222 3.62-4.955.002-.003M296.9 196.213l1.92-3.06 1.935 3.06h3.59l-3.767-5.207 3.62-4.957h-3.43l-1.816 2.955-1.833-2.957h-3.535l3.59 5-3.766 5.16h3.49v.003m-77.178 88.484h-3.43l-1.803 2.928-1.85-2.928h-3.532l3.605 4.985-3.767 5.175h3.475l1.934-3.09 1.92 3.09h3.606l-3.795-5.222 3.633-4.942.002.003m82.185 0h-3.432l-1.803 2.93-1.86-2.93h-3.52l3.594 4.986-3.767 5.175h3.487l1.936-3.09 1.904 3.09h3.607l-3.78-5.222 3.636-4.942v.003m-89.856-37.077l1.907 3.06h3.618l-3.78-5.208 3.634-4.97h-3.447l-1.804 2.955-1.848-2.956h-3.517l3.606 5.015-3.767 5.162h3.46l1.934-3.06.002.002m92.148-7.12h-3.43l-1.816 2.957-1.833-2.956h-3.535l3.59 5.015-3.766 5.162h3.49l1.92-3.06 1.932 3.06h3.59l-3.765-5.207 3.62-4.97" fill="#E31B22"/><path d="M241.69 262.678c-1.39-2.09 1.846-3.473 1.846-3.473l-.22-1.472c-3.71 1.692-3.475-1.395-3.475-1.395.62-3.56 4.24-.236 4.24-.236l.92-2.472-10.785-4.192s-.235 2.25-2.55 3.34c-2.317 1.072-1.848 4.558-1.848 4.558s1.07.31.527 1.632c0 0-.613.692-.527 1.237 0 0 1.233 0 .22 1.94 0 0 1.393.074.925 1.47 0 0 1.626-.163 1.393 1.237 0 0 1.01.69 1.86 0-3.327 8.132-5.878 7.81-5.878 7.81-2.696-3.473-1.685-9.987-1.685-9.987.85-5.25-1.083-8.354-1.083-8.354 1.7-3.792-1.92-5.19-1.92-5.19-1.395 3.25.524 5.5.524 5.5 2.786 3.178 1.394 7.59 1.394 7.59-2.39 8.13.922 12.62.922 12.62-1.07 3.867 1.232 6.193 1.232 6.193-1.464 1.307-.996 3.014-.996 3.014.075.074 6.33 6.5 6.33 6.5h5.777c-.688-1.94-2.695-1.616-2.695-1.616-3.476-.16-3.476-1.867-3.476-1.867-.236-1.927-.688-3.707-.688-3.707 2.696-1.706 2.153-3.795 2.153-3.795 3.312 0 5.41 1.62 5.41 1.62 2.462 2.794 4.544 2.324 4.544 2.324l8.177-5.486v-1.867h-.996l-4.94 3.883c-1.54 1.31-3.24-.162-3.24-.162l-5.55-3.646c4.85-2.397 4.63-6.192 4.63-6.192h3.24c3.69-5.88 6.785-5.647 6.785-5.647v-3.632h-.777l-4.778 5.266c-1.775 1.47-4.25-.618-4.25-.618l2.402-.326 3.62-4.41c1.847-1.928 3.855-2.312 3.855-2.312v-4.573h-.922c-5.41 10.767-9.644 8.9-9.644 8.9m45.67-13.55s-3.62 1.398-1.934 5.192c0 0-1.936 3.104-1.07 8.356 0 0 .996 6.514-1.702 9.984 0 0-2.55.323-5.862-7.81.85.692 1.847 0 1.847 0-.22-1.397 1.39-1.235 1.39-1.235-.47-1.397.923-1.47.923-1.47-.997-1.942.236-1.942.236-1.942.073-.545-.54-1.236-.54-1.236-.547-1.325.54-1.633.54-1.633s.453-3.486-1.86-4.56c-2.32-1.088-2.54-3.338-2.54-3.338l-10.8 4.19.923 2.472s3.62-3.324 4.25.236c0 0 .22 3.088-3.474 1.396l-.235 1.47s3.24 1.383 1.845 3.472c0 0-4.235 1.87-9.644-8.898h-.92v4.574s2.006.382 3.867 2.31l3.62 4.412 2.39.324s-2.477 2.088-4.25.617l-4.78-5.263h-.775v3.63s3.092-.234 6.8 5.648h3.24s-.234 3.795 4.63 6.193l-5.57 3.648s-1.684 1.47-3.236.16l-4.926-3.882h-1.01v1.867l8.178 5.488s2.08.47 4.557-2.325c0 0 2.07-1.617 5.395-1.617 0 0-.54 2.09 2.156 3.796 0 0-.455 1.78-.69 3.706 0 0 0 1.706-3.472 1.867 0 0-1.995-.323-2.698 1.616h5.79l6.316-6.5s.47-1.706-.996-3.015c0 0 2.317-2.323 1.232-6.193 0 0 3.327-4.484.924-12.618 0 0-1.394-4.413 1.39-7.59 0 0 1.937-2.25.543-5.5" fill="#FBBC08"/><path d="M255.493 207.993c-13.647 0-24.713 7.972-24.713 17.826 0 9.852 11.066 17.84 24.713 17.84 13.66 0 24.727-7.988 24.727-17.84 0-9.856-11.067-17.828-24.727-17.828" fill="#1AAE48"/><path d="M145.97 286.878c-.33-.437-.82-.707-1.375-.77l-17.675-2.177c-1.143-.14-2.128.626-2.27 1.78l-.602 5.01c-.064.515.077 1.014.378 1.42.344.42.833.69 1.407.77l5.89.72.296-2.43s-5.144-.633-5.63-.698l.5-4.097 17.144 2.097-.5 4.114c-.47-.066-4.465-.555-4.465-.555l-.297 2.433 4.73.58c.56.08 1.1-.08 1.533-.41.406-.318.66-.775.725-1.278l.617-5.086c.064-.5-.077-1.014-.407-1.42m-.686 18.75l-.043-2.454-.26.017-21.6.423.15 7.764 2.3-.04s-.1-4.836-.107-5.322l19.562-.386v-.002m1.87 19.016s-18.798 3.14-19.31 3.22c-.08-.452-.654-3.96-.735-4.4.528-.08 19.308-3.235 19.308-3.235l-.393-2.404-.277.05-19.294 3.223c-1.198.195-1.886 1.103-1.69 2.247l.9 5.4c.18 1.128 1.145 1.787 2.315 1.59l19.57-3.27-.394-2.422-.003.002m4.532 16.843l-2.105-6.346-.248.093-20.49 6.86 2.103 6.347c.217.676.592 1.14 1.08 1.395.472.223 1.015.243 1.598.03l6.616-2.207c.74-.247 1.175-.727 1.365-1.495l.26-1.094 1.173.92c.535.403 1.204.185 1.687.03l5.698-1.925c.553-.157.97-.518 1.198-.96.24-.505.26-1.066.06-1.65m-12.217 3.863c-.26.09-5.975 1.986-6.442 2.142l-1.267-3.802c.466-.156 7.127-2.392 7.593-2.545.14.378.635 1.93.68 2.046-.027.148-.493 1.92-.563 2.158m4.415-1.637c-.193-.113-1.544-1.06-1.662-1.147-.048-.147-.574-1.756-.713-2.137.467-.154 6.238-2.08 6.69-2.236.14.412 1.084 3.25 1.237 3.687-.466.158-5.32 1.77-5.552 1.835m20.87 23.23l-3.038-4.536-.232.18-17.88 12.137 3.056 4.537c.54.813 1.343 1.33 2.24 1.52.898.16 1.804-.03 2.572-.545l12.43-8.457c1.375-.935 2.13-2.95.854-4.84m-1.87 2.094c-.067.355-.283.682-.628.893l-11.838 8.064c-.363.243-.756.336-1.125.256-.396-.052-.754-.34-1.055-.747 0 0-1.025-1.513-1.356-2.035l14.284-9.723 1.446 2.122c.18.292.288.584.294.878l-.023.295v-.002m9.13 7.372l-.202.18-15.946 14.634 4.872 5.33 1.702-1.56s-2.9-3.186-3.228-3.532l5.642-5.16c.33.348 3.004 3.272 3.004 3.272l1.702-1.56s-2.66-2.953-2.99-3.3l5.398-4.95c.314.377 3.17 3.474 3.17 3.474l1.688-1.53-4.813-5.298m15.53 14.817l-5.217-4.29-.174.21-13.708 16.772 1.887 1.527s4.98-6.06 5.295-6.45c.373.29 3.436 2.825 3.436 2.825.506.4 1.067.6 1.595.558.527-.065 1.004-.338 1.393-.818l5.954-7.28c.36-.45.54-.952.487-1.48-.05-.56-.385-1.083-.95-1.573m-7.253 8.6c-.342-.26-2.855-2.334-3.198-2.62l5.655-6.926c.356.288 2.87 2.362 3.212 2.65l-5.67 6.895m22.027 1.23l-4.964-2.914c-.4-.226-.972-.305-1.483-.18-.512.128-.93.458-1.202.934l-9.04 15.458c-.654 1.128-.032 2.294.663 2.724l4.964 2.913c.414.26.987.305 1.482.182.526-.13.945-.46 1.216-.932l9.04-15.46c.2-.355.282-.71.274-1.035-.013-.736-.464-1.404-.953-1.69m-10.32 16.685c-.386-.23-3.704-2.17-4.102-2.398l8.725-14.95 4.118 2.397c-.257.446-8.47 14.506-8.74 14.95m26.06-9.516l-6.568-2.592-.098.267-7.858 20.173 2.274.902s6.932-17.803 7.114-18.307l4.028 1.577-2.456 6.31c-.443-.168-3.513-1.38-3.513-1.38l-.55.335-.27 13.186 2.48.958.245-11.244 1.08.423c.97.395 2.228.11 2.718-1.166l2.625-6.755c.463-1.184-.007-2.208-1.25-2.685m7.844 2.567l-.054.265-.465 1.98s2.74.63 3.18.74c-.124.5-4.476 19.11-4.476 19.11l2.382.576s4.352-18.61 4.46-19.14l3.182.766.53-2.245-8.74-2.054m15.65 3.052l-.04.265-2.454 21.55 2.425.28 2.494-21.814-2.426-.283m16.61.858s-1.78 11.624-2.172 14.307c-.457-2.67-2.418-14.284-2.418-14.284l-2.476.014.05.322L255 436.648l1.936-.004 3.663-21.952-2.447.013m21.8 17.74l-2.685-17.753c-.083-.528-.352-.963-.783-1.28-.417-.317-.976-.454-1.445-.386l-5.687.864c-.804.133-1.816.972-1.617 2.265l2.684 17.72c.198 1.322 1.408 1.83 2.226 1.698l5.69-.864c.466-.07.944-.37 1.26-.79.257-.356.382-.77.374-1.21l-.018-.267m-7.17.772c-.066-.5-2.517-16.606-2.597-17.134.466-.065 4.253-.63 4.708-.7.094.5 2.516 16.61 2.598 17.136l-4.706.7m40.936-12.278l-2.457-5.428-2.226 1.038s2.15 4.7 2.35 5.167c-.41.182-3.333 1.528-3.755 1.712-.213-.468-6.933-15.295-7.148-15.762l3.736-1.74 1.86 4.115 2.228-1.01-1.97-4.347c-.472-1.052-1.624-1.503-2.612-1.044l-4.655 2.11c-.972.46-1.39 1.64-.933 2.664l7.393 16.285c.228.494.63.87 1.132 1.067.502.168 1.045.16 1.552-.087l4.584-2.077c1-.458 1.41-1.615.92-2.665m16.464-7.466l2.028-1.36-12.06-18.292-.23.15-1.813 1.18 5.15 7.825-3.824 2.536-5.15-7.79-2.03 1.33 12.06 18.323 2.03-1.36s-5.33-8.086-5.615-8.523c.377-.242 3.447-2.298 3.838-2.54.272.407 5.616 8.522 5.616 8.522m-1.506-26.686l-.2.18-1.634 1.44 14.362 16.55 1.834-1.592-14.362-16.578m11.652-11.942l-.215.27-1.438 1.583s7.37 9.138 9.05 11.227c-2.254-1.46-12.126-7.82-12.126-7.82l-1.67 1.827 18.78 11.88 1.31-1.433-13.69-17.532h-.003m26.017 1.425l1.43-2.113-20.658-8.58-.115.177-1.054 1.55 15.424 16.262 1.357-1.995s-2.852-3.007-3.12-3.297c.214-.327 2.33-3.424 2.53-3.75.37.17 4.207 1.75 4.207 1.75m-8.395.235c-.404-.403-5.064-5.295-5.975-6.28 1.227.538 7.43 3.165 7.946 3.39l-1.972 2.888v.002m16.35-19.175l-4.996-2.443c-.637-.313-1.235-.185-1.923-.054 0 0-7.26 1.54-7.757 1.635-.15-.083-3.12-1.53-3.535-1.732l1.387-2.877c.427.2 3.946 1.903 3.946 1.903l1.063-2.196-4.155-2.016c-.56-.284-1.135-.333-1.628-.147-.454.156-.828.485-1.07.99l-1.852 3.828c-.226.475-.263 1.006-.094 1.473.187.526.56.93 1.032 1.186l4.097 1.99c.488.226.88.16 1.307.065l.146-.004c.015 0 7.713-1.546 8.21-1.67.147.083 4.094 2.015 4.524 2.213-.2.384-1.217 2.493-1.403 2.878-.445-.2-4.998-2.41-4.998-2.41l-1.06 2.193 5.23 2.556c1.185.57 2.26-.01 2.68-.87l1.857-3.83c.48-1.037.066-2.15-1.012-2.66v.004m9.96-34.31l-19.514-3.57-.052.28-.388 2.14s18.733 3.42 19.264 3.514c-.096.443-.723 3.942-.803 4.397-.526-.092-19.25-3.516-19.25-3.516l-.44 2.405 19.53 3.564c.6.106 1.143.01 1.562-.293.407-.273.678-.718.773-1.25l.976-5.392c.09-.53-.005-1.044-.274-1.453-.303-.42-.792-.722-1.38-.827v-.003m1.31-19.127l-5.558-.156c-.72-.03-1.212.316-1.778.722 0 0-5.99 4.4-6.413 4.702l-3.93-.12.09-3.21c.483.02 4.385.128 4.385.128l.075-2.443-4.634-.14c-.603-.02-1.156.167-1.544.526-.348.345-.545.804-.566 1.366l-.116 4.252c-.027 1.087.84 1.987 1.94 2.01l4.547.14c.526.007.86-.22 1.223-.463l.117-.087c.013-.002 6.397-4.585 6.82-4.872l5.015.134-.092 3.223c-.483-.02-5.56-.167-5.56-.167l-.058 2.443 5.823.177c1.32.036 2.05-.947 2.092-1.903l.118-4.254c.04-1.133-.812-1.973-2-2.008m1.46-12.135l-4.52-.42c-.05-.38-.483-4.11-.52-4.493l4.3-1.472-.307-2.525-.306.108L364.8 290l.243 2.088 22.26 2.094-.277-2.422m-15.55-1.448c1.287-.42 7.684-2.518 8.223-2.688l.412 3.493c-.573-.065-7.3-.682-8.636-.805" fill="#FFF"/><path d="M359.015 425.26h2.33v6.06h1.174v-6.06h2.327v-1.03h-5.833v1.03m11.89-1.03l-1.746 5.68-1.787-5.68h-1.73v7.09h1.088v-6.06l1.86 6.06h1.113l1.85-5.97v5.97h1.07v-7.09h-1.72.004" fill="#1C4189"/><path d="M257.97 279.87v-35.15h-4.938v35.15s.028 5.946-5.403 14.545c0 0 3.262 2.55 7.87 2.55 4.607 0 7.87-2.55 7.87-2.55-5.433-8.6-5.4-14.545-5.4-14.545" fill="#F36717"/><path d="M158.07 131.756c-7.35 8.08-10.775 16.842-10.775 27.575 0 6.238 1.944 16.827 11.205 31.863l15.73 25.49c3.137 5.123 4.256 11.76 4.256 16.258 0 1.646-.237 3.206-.465 4.717-.224 1.495-.457 3.04-.457 4.635 0 4.93 1.9 8.49 5.25 10.017.265 3.935 1.89 7.894 5.745 9.19-.11 1.177-.2 2.562-.2 4.103 0 4.74.82 10.705 4.264 14.852l1.015 1.22 1.36-.81c4.06-2.416 8.797-9.35 8.797-20.938 0-21.28-14.42-46.06-18.844-53.148l-16.124-25.855c-4.9-7.85-5.928-15.05-5.928-19.71 0-11.687 8.31-24.303 21.735-24.303 9.775 0 14.98 6.405 14.98 11.03 0 2.283-1.67 8.548-7.053 8.548-3.636 0-6.278-2.545-6.278-6.052 0-1.125.316-2.992 1.2-4.857l1.67-3.522-3.78.908c-11.03 2.648-16.62 8.77-16.62 18.2 0 7.332 2.963 12.92 9.49 18.002-.047.555-.086 1.17-.086 1.873 0 2.97.61 7.027 3.374 10.15 2.593 2.936 6.452 4.38 11.47 4.29l3.276-.055-1.732-2.79c-2.17-3.5-3.292-6.672-3.292-9.113 0-1.095.287-1.996.747-2.76 10.375-.812 17.71-5.87 20.27-13.87l5.503 4.355 1.168-1.073c2.64-2.436 3.37-5.897 3.37-8.976 0-.364-.043-.69-.06-1.04l6.11 3.057.38-2.53c.23-1.515.34-3 .34-4.438 0-5.078-1.404-9.605-4.046-13.006 2.672-2.5 4.222-5.954 4.222-9.624v-.243l-.04-2.022-2.002.203c-8.775.882-15.096-1.644-21.79-4.318-6.627-2.65-13.48-5.387-23.28-5.387-9.99 0-18.09 3.333-24.072 9.907v.002" fill="#1C4189"/><path d="M192.08 265.58c0-2.307.21-4.254.35-5.29l.254-1.916-1.916-.19c-3.958-.39-4.3-5.365-4.3-7.064l.01-1.55-1.384-.377c-3.323-.902-3.82-4.714-3.82-6.905 0-1.313.205-2.655.42-4.074.25-1.647.505-3.35.505-5.275 0-5.01-1.264-12.428-4.814-18.218l-15.73-25.493c-9.263-15.045-10.65-25.19-10.65-29.9 0-9.88 3.026-17.61 9.807-25.06 5.323-5.85 12.3-8.694 21.33-8.694 9.087 0 15.602 2.604 21.902 5.12 6.263 2.505 12.756 5.036 21.274 4.68-.473 2.437-1.857 4.64-3.994 6.1l-1.862 1.27 1.597 1.593c2.81 2.797 4.304 7.01 4.304 11.895 0 .41-.077.85-.1 1.27l-7.85-3.93.764 3.75c.18.886.406 2.305.406 3.854 0 1.7-.286 3.543-1.19 5.023l-7.538-5.965-.506 3.122c-1.32 8.13-8.263 13.287-18.578 13.792l-.808.04-.522.624c-.767.917-1.89 2.77-1.89 5.758 0 2.07.55 4.69 2.114 7.915-2.273-.414-4.083-1.327-5.363-2.77-1.99-2.253-2.442-5.318-2.442-7.636 0-1.013.088-1.884.17-2.48l.15-1.1-.893-.658c-6.187-4.552-8.827-9.24-8.827-15.68 0-6.612 3.433-11.08 10.453-13.59-.217.99-.35 1.972-.35 2.862 0 5.574 4.296 9.778 9.993 9.778 8.057 0 10.768-8.43 10.768-12.274 0-7.1-7.147-14.76-18.694-14.76-15.72 0-25.45 14.55-25.45 28.03 0 5.15 1.128 13.09 6.492 21.688l16.126 25.852c4.287 6.876 18.277 30.882 18.277 51.173 0 8.137-2.642 13.937-5.61 16.682-1.904-3.25-2.387-7.55-2.387-11.03h.003" fill="#FBBC08"/><path d="M328.857 121.85c-9.8 0-16.65 2.738-23.278 5.386-6.695 2.675-13.02 5.2-21.79 4.318l-2.005-.2-.04 2.02v.243c0 3.67 1.55 7.125 4.222 9.625-2.642 3.4-4.047 7.928-4.047 13.006 0 1.44.113 2.922.34 4.437l.383 2.53 6.11-3.057c-.02.35-.062.677-.062 1.04 0 3.08.73 6.54 3.373 8.976l1.166 1.074 5.503-4.355c2.562 8.002 9.896 13.06 20.27 13.868.462.767.75 1.667.75 2.764 0 2.44-1.122 5.612-3.294 9.113l-1.73 2.79 3.275.057c5.016.087 8.876-1.356 11.47-4.29 2.763-3.125 3.374-7.18 3.374-10.15 0-.704-.04-1.318-.088-1.874 6.528-5.082 9.49-10.67 9.49-18.003 0-9.43-5.59-15.55-16.62-18.2l-3.78-.907 1.673 3.52c.884 1.866 1.2 3.734 1.2 4.86 0 3.506-2.642 6.05-6.277 6.05-5.384 0-7.056-6.265-7.056-8.546 0-4.626 5.206-11.032 14.98-11.032 13.427 0 21.737 12.614 21.737 24.304 0 4.66-1.03 11.86-5.93 19.71l-16.124 25.853c-4.422 7.084-18.843 31.863-18.843 53.146 0 11.585 4.735 18.52 8.794 20.938l1.362.81 1.012-1.22c3.444-4.147 4.265-10.113 4.265-14.852 0-1.54-.09-2.925-.202-4.103 3.856-1.296 5.48-5.254 5.745-9.19 3.352-1.53 5.253-5.09 5.253-10.017 0-1.595-.233-3.14-.46-4.635-.228-1.51-.463-3.073-.463-4.718 0-4.5 1.118-11.135 4.258-16.258l15.727-25.49c9.26-15.036 11.204-25.624 11.204-31.86 0-10.734-3.424-19.495-10.776-27.575-5.983-6.575-14.08-9.908-24.073-9.908v-.003" fill="#1C4189"/><path d="M316.535 276.606c-2.97-2.745-5.612-8.544-5.612-16.682 0-20.29 13.99-44.298 18.277-51.172l16.127-25.853c5.365-8.6 6.492-16.54 6.492-21.69 0-13.48-9.73-28.03-25.45-28.03-11.548 0-18.697 7.66-18.697 14.76 0 3.845 2.713 12.274 10.77 12.274 5.696 0 9.99-4.203 9.99-9.78 0-.89-.13-1.87-.347-2.862 7.02 2.51 10.452 6.98 10.452 13.592 0 6.44-2.643 11.13-8.83 15.68l-.892.656.15 1.1c.082.598.168 1.47.168 2.482 0 2.32-.452 5.384-2.442 7.634-1.28 1.445-3.09 2.358-5.363 2.772 1.565-3.226 2.114-5.845 2.114-7.915 0-2.987-1.12-4.84-1.888-5.758l-.523-.624-.81-.04c-10.313-.503-17.257-5.66-18.576-13.79l-.506-3.123-7.54 5.966c-.902-1.482-1.187-3.327-1.187-5.024 0-1.55.226-2.97.407-3.856l.766-3.75-7.852 3.93c-.022-.42-.1-.86-.1-1.27 0-4.885 1.497-9.098 4.302-11.895l1.597-1.593-1.86-1.272c-2.137-1.46-3.52-3.66-3.993-6.1 8.518.358 15.01-2.175 21.274-4.678 6.3-2.518 12.815-5.122 21.903-5.122 9.028 0 16.005 2.844 21.33 8.694 6.78 7.45 9.803 15.18 9.803 25.06 0 4.71-1.384 14.855-10.648 29.9l-15.73 25.49c-3.548 5.79-4.81 13.208-4.81 18.217 0 1.926.256 3.628.503 5.276.216 1.42.418 2.76.418 4.074 0 2.19-.495 6.002-3.817 6.904l-1.386.38.013 1.55c0 1.697-.345 6.674-4.3 7.063l-1.92.19.258 1.915c.14 1.036.35 2.983.35 5.29 0 3.48-.48 7.778-2.386 11.026l.002.003" fill="#FBBC08"/><path d="M282.424 171.65c-2.007-8.367-8.325-11.456-8.325-11.456 1.415-3.84-1.724-6.233-2.24-6.595 5.7-4.73 9.332-11.88 9.332-19.88 0-5.017-1.43-9.69-3.9-13.65 5.615-3.03 10.687-9.61 10.687-18.398 0-11.715-9.59-16.61-15.127-17.81l-.515-.125c.312-1.1.49-2.27.49-3.523v-8.987c0-2.418-1.108-5.035-2.898-6.83-3.14-3.15-9.067-5.21-16.25-5.74V74.48c-17.943 7.074-22.108 18.23-22.36 26.542l13.384-3.807c-1.874 5.33-2.02 11.495-1.694 13.974-7.88 4.402-13.21 12.84-13.21 22.53 0 8 3.633 15.15 9.334 19.88-.517.36-3.653 2.753-2.224 6.594 0 0-6.332 3.09-8.34 11.458 0 0-12.034 2.94-13.118 8.97l39.97 15.65h.147l39.97-15.65c-1.083-6.03-13.118-8.97-13.118-8.97v-.002" fill="#1C4189"/><path d="M268.223 155.09c-6.01 4.016-12.65 4.178-12.65 4.178h-.148s-6.638-.162-12.648-4.177c0 0-2.624 1.855-1.862 4.18 0 0 9.104 3.09 14.51 7.117h.15c5.406-4.03 14.51-7.118 14.51-7.118.775-2.325-1.862-4.178-1.862-4.178" fill="#C8C7C7"/><path d="M271.153 162.826c-7.094 1.545-15.58 8.355-15.58 8.355h-.148s-8.486-6.81-15.58-8.353c0 0-6.33 3.707-7.563 9.914 0 0 13.264 7.43 23.143 7.43h.15c9.876 0 23.143-7.43 23.143-7.43-1.232-6.206-7.565-9.913-7.565-9.913" fill="#C8C7C7"/><path d="M276.094 178.153c-10.423 5.15-19.724 5.958-20.593 6.024-.87-.066-10.17-.873-20.592-6.024 0 0-6.64-2.016-11.58.617l32.1 13.002h.15l32.097-13.002c-4.938-2.633-11.577-.617-11.577-.617h-.003m1.39-46.447c-13.426-.926-21.91-8.663-21.91-8.663h-.15s-8.486 7.736-21.91 8.663c0 0-.62 5.574.922 8.517 0 0 8.955-2.016 20.987 3.706h.147c12.05-5.724 20.99-3.708 20.99-3.708 1.54-2.942.926-8.517.926-8.517m-21.912 17.958h-.15c-6.33-6.03-18.202-5.573-18.202-5.573s3.854 8.986 18.203 11.618h.15c14.348-2.632 18.216-11.618 18.216-11.618s-11.884-.457-18.215 5.573m.16-31.43s9.865 8.517 20.665 8.986c0 0-4.308-14.09-20.826-14.09h-.15c-16.503 0-20.826 14.09-20.826 14.09 10.802-.473 20.665-8.988 20.665-8.988h.47" fill="#C8C7C7"/><path d="M267.72 66.623c-2.12-2.125-6.053-3.69-10.903-4.447v14.488c-14.506 5.156-20.197 12.793-21.835 20.05l28.397-8.078c5.497-1.564 6.32-5.947 6.32-8.42V71.23c0-1.59-.78-3.4-1.984-4.605l.003-.002" fill="#FFF"/><path d="M257.58 77.706c-11.19 3.904-18.205 9.758-20.787 17.2l26.248-7.466c4.483-1.275 5.42-4.633 5.42-7.225V71.8c-1.717 2.418-6.18 4.265-10.88 5.906" fill="#E31B22"/><path d="M258.054 63.646v12.578c3.33-1.18 9.268-3.465 9.87-6.114.108-.47.037-.945-.204-1.436-.246-.432-.54-.835-.875-1.17-1.742-1.75-4.873-3.086-8.79-3.856v-.002" fill="#E31B22"/><path d="M271.412 86.612l.742.18c1.368.297 12.753 3.11 12.823 14.775-8.665.9-13.49 4.73-17.103 10.342-3.214-1.84-6.87-2.986-10.77-3.233 2.673-9.408 7.14-16.3 14.31-22.065h-.002m-25.54 22.066c0-2.748.415-6.993 1.718-10.615l.74-1.878 13.252-3.77c-3.427 4.595-5.877 9.897-7.587 16.255-2.834.168-5.538.81-8.04 1.847-.05-.48-.082-1.1-.082-1.838v-.003" fill="#C8C7C7"/><path d="M270.382 113.546c3.16-4.94 7.14-8.068 14.374-8.924-.983 6.386-5.058 10.744-8.905 12.81l-.923.48c-1.325-1.64-2.853-3.108-4.544-4.366" fill="#C8C7C7"/></g></svg>