<svg width="512" height="512" viewBox="0 0 512 512" xmlns="http://www.w3.org/2000/svg"><title>chivas-usa</title><g fill="none" fill-rule="evenodd"><path d="M255.5 154.236c-82.587 0-149.538 67.18-149.538 150.052 0 82.87 66.95 150.053 149.54 150.053 82.585 0 149.536-67.18 149.536-150.05S338.09 154.24 255.5 154.24" fill="#1C4189"/><path d="M255.5 160.855c-78.945 0-142.94 64.216-142.94 143.433 0 79.216 63.997 143.434 142.94 143.434 78.945 0 142.942-64.218 142.942-143.434 0-79.217-64-143.433-142.94-143.433" fill="#FFF"/><path d="M255.5 164.13c-77.14 0-139.677 62.75-139.677 140.158 0 77.408 62.536 140.16 139.678 140.16 77.15 0 139.68-62.752 139.68-140.16 0-77.407-62.53-140.157-139.67-140.157" fill="#1C4189"/><path d="M255.5 202.433c-56.06 0-101.507 45.602-101.507 101.855 0 56.252 45.447 101.856 101.508 101.856 56.06 0 101.51-45.604 101.51-101.856 0-56.253-45.44-101.855-101.5-101.855" fill="#FFF"/><path d="M255.5 212.163c-3.402 0-6.76.19-10.068.554v183.146c3.307.36 6.666.554 10.07.554 3.402 0 6.76-.193 10.066-.554V212.717c-3.304-.363-6.664-.554-10.067-.554m-47.35 13.187v157.88c6.27 3.79 13.02 6.853 20.14 9.068v-176.02c-7.12 2.217-13.87 5.28-20.13 9.07m-37.28 43.185v71.512c4.726 11.246 11.61 21.35 20.136 29.797V238.735c-8.523 8.445-15.41 18.55-20.135 29.796v.01M320 238.74v131.105c8.526-8.448 15.415-18.552 20.14-29.797V268.53c-4.725-11.244-11.614-21.348-20.14-29.795v.002m-37.283-22.457v176.018c7.122-2.215 13.87-5.28 20.136-9.07V225.35c-6.265-3.79-13.014-6.853-20.136-9.07" fill="#E31B22"/><path d="M255.5 206.03c-54.08 0-97.92 43.99-97.92 98.258 0 54.267 43.84 98.258 97.92 98.258s97.92-43.992 97.92-98.258c0-54.267-43.84-98.258-97.92-98.258m0 190.385c-50.705 0-91.81-41.247-91.81-92.127 0-50.88 41.105-92.125 91.81-92.125 50.707 0 91.812 41.245 91.812 92.125s-41.107 92.127-91.81 92.127" fill="#1C4189"/><path d="M198.38 182.49s6.09 7.37 6.09 18.356v82.024c0 32.99 51.03 49.586 51.03 49.586s51.027-16.596 51.027-49.586v-82.024c0-10.987 6.09-18.356 6.09-18.356h-114.24.004" fill="#FBBC08"/><path d="M220.492 197.64v79.64c0 22.613 35.01 34.02 35.01 34.02s35.007-11.407 35.007-34.02v-79.64h-70.02" fill="#1C4189"/><path d="M210.113 196.213l1.935-3.06 1.907 3.06h3.62l-3.783-5.207 3.635-4.957h-3.444l-1.805 2.95-1.846-2.96h-3.518l3.607 5-3.76 5.16h3.46m50.71 118.57h-3.43l-1.8 2.96-1.84-2.96h-3.533l3.604 5-3.782 5.18h3.49l1.936-3.09 1.908 3.09h3.61l-3.768-5.225 3.62-4.955.004-.003m36.07-118.57l1.92-3.06 1.937 3.06h3.59l-3.77-5.21 3.62-4.956h-3.43L298.95 189l-1.833-2.957h-3.54l3.59 5-3.766 5.16h3.49v.003m-77.17 88.484h-3.43l-1.8 2.927-1.85-2.927h-3.53l3.607 4.985-3.77 5.174h3.477l1.934-3.09 1.92 3.09h3.603l-3.795-5.23 3.635-4.94h.002m82.185 0h-3.43l-1.803 2.93-1.86-2.93h-3.52l3.595 4.983-3.767 5.175h3.486l1.94-3.09 1.905 3.09h3.61l-3.78-5.22 3.635-4.944v.004m-89.86-37.073l1.908 3.06h3.62l-3.78-5.21 3.633-4.97h-3.445l-1.8 2.955-1.85-2.956h-3.52l3.61 5.01-3.765 5.16h3.46l1.935-3.06m92.15-7.12h-3.43l-1.817 2.96-1.833-2.956h-3.537l3.59 5.013-3.767 5.16h3.49l1.92-3.06 1.93 3.06h3.59l-3.76-5.205 3.62-4.97" fill="#E31B22"/><path d="M241.69 262.678c-1.39-2.09 1.846-3.473 1.846-3.473l-.22-1.472c-3.71 1.692-3.475-1.395-3.475-1.395.62-3.56 4.24-.236 4.24-.236l.92-2.472-10.78-4.192s-.23 2.25-2.55 3.34c-2.31 1.072-1.85 4.558-1.85 4.558s1.07.31.53 1.632c0 0-.61.692-.52 1.237 0 0 1.23 0 .22 1.94 0 0 1.39.074.926 1.47 0 0 1.626-.163 1.393 1.237 0 0 1.01.69 1.86 0-3.328 8.132-5.88 7.81-5.88 7.81-2.697-3.473-1.686-9.987-1.686-9.987.85-5.25-1.082-8.354-1.082-8.354 1.7-3.79-1.92-5.19-1.92-5.19-1.393 3.25.526 5.5.526 5.5 2.784 3.18 1.392 7.59 1.392 7.59-2.39 8.13.92 12.62.92 12.62-1.07 3.87 1.233 6.2 1.233 6.2-1.46 1.31-.993 3.02-.993 3.02l6.33 6.5h5.778c-.687-1.94-2.694-1.613-2.694-1.613-3.475-.16-3.475-1.867-3.475-1.867-.236-1.928-.688-3.708-.688-3.708 2.695-1.71 2.152-3.797 2.152-3.797 3.31 0 5.41 1.62 5.41 1.62 2.46 2.794 4.542 2.324 4.542 2.324l8.175-5.49v-1.865h-.994l-4.94 3.883c-1.54 1.31-3.24-.165-3.24-.165l-5.55-3.646c4.85-2.4 4.63-6.194 4.63-6.194h3.24c3.69-5.88 6.784-5.65 6.784-5.65v-3.63h-.78l-4.78 5.264c-1.775 1.47-4.25-.62-4.25-.62l2.4-.326 3.62-4.41c1.85-1.927 3.857-2.31 3.857-2.31v-4.574h-.923c-5.41 10.766-9.644 8.9-9.644 8.9m45.67-13.55s-3.62 1.4-1.93 5.19c0 0-1.937 3.105-1.07 8.357 0 0 .995 6.516-1.703 9.986 0 0-2.55.32-5.863-7.81.85.69 1.848 0 1.848 0-.22-1.4 1.39-1.238 1.39-1.238-.47-1.398.924-1.47.924-1.47-1-1.943.234-1.943.234-1.943.074-.544-.54-1.235-.54-1.235-.546-1.326.54-1.634.54-1.634s.454-3.486-1.86-4.56c-2.32-1.09-2.54-3.34-2.54-3.34l-10.8 4.19.924 2.47s3.62-3.322 4.25.238c0 0 .22 3.09-3.474 1.398l-.235 1.47s3.24 1.385 1.845 3.474c0 0-4.236 1.87-9.645-8.9h-.92v4.576s2.004.38 3.865 2.31l3.62 4.41 2.39.324s-2.476 2.09-4.25.62l-4.78-5.264h-.774v3.63s3.09-.234 6.8 5.65h3.24s-.235 3.793 4.63 6.19l-5.57 3.65s-1.685 1.47-3.24.16l-4.923-3.883h-1.01v1.87l8.178 5.49s2.08.47 4.558-2.328c0 0 2.07-1.62 5.396-1.62 0 0-.54 2.09 2.157 3.797 0 0-.455 1.78-.69 3.71 0 0 0 1.704-3.472 1.865 0 0-1.995-.322-2.698 1.617h5.79l6.316-6.5s.47-1.706-1-3.015c0 0 2.316-2.325 1.23-6.195 0 0 3.33-4.483.926-12.617 0 0-1.394-4.414 1.39-7.59 0 0 1.937-2.25.543-5.5" fill="#FBBC08"/><path d="M255.493 207.993c-13.647 0-24.713 7.972-24.713 17.826 0 9.85 11.066 17.84 24.713 17.84 13.66 0 24.727-7.99 24.727-17.84 0-9.86-11.067-17.83-24.727-17.83" fill="#1AAE48"/><path d="M145.97 286.878c-.33-.437-.82-.707-1.375-.77l-17.675-2.177c-1.143-.14-2.128.63-2.27 1.78l-.602 5.01c-.064.52.077 1.02.378 1.42.344.42.833.69 1.407.77l5.89.72.296-2.43s-5.15-.63-5.63-.69l.5-4.09 17.14 2.098-.5 4.114c-.47-.066-4.47-.555-4.47-.555l-.3 2.433 4.73.58c.56.08 1.1-.08 1.53-.41.405-.316.66-.773.724-1.276l.615-5.09c.066-.5-.075-1.01-.405-1.42m-.685 18.75l-.04-2.45-.26.015-21.6.423.15 7.76 2.3-.04s-.1-4.833-.108-5.32l19.564-.385m1.87 19.017s-18.8 3.14-19.31 3.22c-.08-.45-.655-3.96-.736-4.4.53-.08 19.31-3.235 19.31-3.235l-.393-2.405-.275.05-19.294 3.22c-1.2.195-1.884 1.103-1.69 2.247l.9 5.4c.18 1.13 1.147 1.786 2.317 1.59l19.57-3.27-.395-2.42h-.003m4.53 16.84l-2.106-6.342-.25.095-20.49 6.86 2.11 6.347c.216.675.59 1.14 1.08 1.394.47.22 1.014.24 1.597.03l6.616-2.21c.74-.247 1.177-.727 1.367-1.495l.26-1.095 1.17.92c.534.403 1.203.185 1.686.03l5.697-1.925c.555-.158.97-.52 1.2-.96.24-.506.26-1.067.06-1.65m-12.22 3.862c-.26.09-5.973 1.984-6.44 2.14l-1.267-3.803c.468-.158 7.13-2.394 7.595-2.547.14.38.637 1.93.68 2.046-.025.147-.49 1.92-.56 2.157m4.415-1.636c-.193-.11-1.544-1.06-1.66-1.144-.05-.145-.576-1.754-.715-2.135.47-.153 6.24-2.08 6.69-2.235.14.41 1.087 3.25 1.24 3.686-.466.16-5.32 1.77-5.55 1.837m20.87 23.23l-3.04-4.536-.233.18-17.88 12.138 3.057 4.54c.54.812 1.343 1.33 2.24 1.52.9.16 1.804-.03 2.572-.546l12.43-8.46c1.375-.935 2.13-2.95.854-4.84m-1.87 2.094c-.068.355-.28.682-.63.893L150.41 378c-.362.244-.755.337-1.124.257-.398-.055-.756-.34-1.057-.75 0 0-1.028-1.51-1.36-2.035l14.285-9.72 1.447 2.125c.18.293.288.585.294.88l-.023.295v-.006m9.13 7.37l-.2.18-15.946 14.634 4.872 5.33 1.7-1.56s-2.9-3.183-3.227-3.53l5.64-5.16c.33.35 3.004 3.274 3.004 3.274l1.7-1.56s-2.66-2.954-2.99-3.3l5.4-4.95c.314.376 3.17 3.473 3.17 3.473l1.688-1.53-4.81-5.296m15.53 14.816l-5.22-4.29-.17.21-13.71 16.77 1.89 1.527s4.98-6.06 5.293-6.45c.376.29 3.44 2.824 3.44 2.824.506.4 1.067.6 1.595.557.526-.064 1.003-.337 1.392-.817l5.953-7.28c.36-.45.54-.954.488-1.48-.05-.56-.384-1.085-.95-1.575m-7.252 8.6c-.343-.26-2.856-2.334-3.2-2.62l5.656-6.926c.356.29 2.87 2.364 3.21 2.65l-5.67 6.897m22.03 1.23l-4.965-2.914c-.4-.23-.972-.308-1.483-.18-.515.125-.93.455-1.205.93l-9.04 15.458c-.657 1.13-.035 2.294.66 2.724l4.962 2.913c.414.26.987.304 1.482.18.525-.13.944-.46 1.215-.93l9.04-15.46c.2-.355.28-.71.276-1.035-.014-.735-.465-1.403-.954-1.69m-10.32 16.686c-.385-.23-3.703-2.17-4.1-2.4l8.724-14.95 4.117 2.398c-.26.445-8.47 14.505-8.74 14.95m26.06-9.517l-6.57-2.59-.1.268-7.855 20.172 2.274.9s6.93-17.803 7.11-18.307l4.03 1.577-2.458 6.31c-.442-.17-3.512-1.38-3.512-1.38l-.55.333-.27 13.185 2.48.957.246-11.244 1.08.425c.97.395 2.226.11 2.716-1.17l2.626-6.752c.465-1.18-.005-2.205-1.25-2.682m7.846 2.566l-.054.266-.46 1.98s2.74.63 3.18.74c-.127.5-4.48 19.11-4.48 19.11l2.38.576s4.35-18.61 4.46-19.14l3.18.77.53-2.244-8.74-2.055m15.65 3.05l-.04.266-2.45 21.55 2.423.28 2.495-21.814-2.427-.283m16.61.86s-1.78 11.623-2.17 14.306c-.46-2.67-2.42-14.282-2.42-14.282l-2.475.015.05.325 3.865 21.59 1.94-.005 3.664-21.95-2.45.01m21.8 17.74l-2.697-17.76c-.083-.525-.352-.96-.783-1.28-.416-.314-.975-.45-1.444-.383l-5.69.863c-.804.13-1.816.97-1.617 2.26l2.68 17.72c.198 1.32 1.408 1.83 2.226 1.7l5.69-.866c.465-.07.943-.37 1.26-.79.256-.36.38-.77.373-1.21l-.02-.27m-7.17.77c-.07-.5-2.52-16.607-2.6-17.135.47-.06 4.255-.63 4.71-.7.094.5 2.516 16.61 2.6 17.14l-4.71.7m40.94-12.28l-2.46-5.43-2.223 1.04s2.15 4.7 2.35 5.166c-.41.183-3.332 1.53-3.754 1.713-.21-.47-6.93-15.3-7.15-15.768l3.74-1.74 1.86 4.114 2.23-1.01-1.97-4.347c-.47-1.05-1.622-1.502-2.61-1.043l-4.655 2.11c-.97.46-1.39 1.64-.93 2.663l7.394 16.285c.23.49.63.87 1.133 1.064.5.165 1.045.16 1.55-.09l4.585-2.077c1-.457 1.41-1.614.92-2.664m16.462-7.464l2.03-1.36-12.06-18.29-.23.15-1.81 1.18 5.15 7.824-3.826 2.535-5.15-7.79-2.03 1.33 12.06 18.32 2.03-1.36s-5.33-8.086-5.614-8.523c.375-.24 3.445-2.3 3.836-2.54.274.406 5.618 8.52 5.618 8.52m-1.505-26.685l-.2.18-1.634 1.44 14.36 16.55 1.833-1.592-14.364-16.577m11.65-11.945l-.218.27-1.44 1.583s7.37 9.138 9.05 11.227c-2.255-1.46-12.127-7.82-12.127-7.82l-1.67 1.827 18.78 11.88 1.31-1.433-13.69-17.533h-.005m26.015 1.427l1.43-2.114-20.655-8.58-.115.18-1.055 1.55 15.424 16.26 1.36-1.995s-2.854-3.007-3.12-3.297c.21-.324 2.33-3.42 2.53-3.75.37.17 4.205 1.75 4.205 1.75m-8.4.238c-.4-.403-5.06-5.295-5.973-6.28 1.23.538 7.43 3.165 7.947 3.39l-1.97 2.888v.003m16.35-19.175l-4.998-2.443c-.64-.31-1.237-.183-1.925-.052 0 0-7.26 1.54-7.756 1.638-.15-.085-3.12-1.53-3.536-1.734l1.39-2.878c.424.2 3.943 1.9 3.943 1.9l1.066-2.197-4.156-2.02c-.56-.283-1.137-.33-1.63-.146-.454.157-.828.486-1.07.99l-1.85 3.83c-.228.474-.265 1.005-.096 1.472.187.53.56.93 1.03 1.19l4.098 1.99c.485.224.88.16 1.304.063l.146-.003c.014 0 7.712-1.546 8.21-1.67.146.083 4.093 2.015 4.523 2.213-.2.384-1.216 2.493-1.4 2.88-.447-.2-5-2.41-5-2.41l-1.06 2.19 5.23 2.557c1.185.57 2.26-.01 2.68-.87l1.86-3.83c.48-1.037.063-2.15-1.015-2.66v.004m9.96-34.31l-19.513-3.57-.05.28-.39 2.14 19.264 3.517c-.09.44-.72 3.94-.8 4.394-.524-.09-19.25-3.515-19.25-3.515l-.44 2.404 19.53 3.562c.6.106 1.145.01 1.56-.293.41-.274.68-.72.777-1.25l.976-5.393c.09-.53-.002-1.04-.27-1.45-.303-.42-.79-.722-1.38-.827m1.31-19.127l-5.56-.154c-.72-.03-1.21.315-1.776.72 0 0-5.99 4.4-6.415 4.704l-3.93-.12.09-3.21c.48.02 4.384.128 4.384.128l.076-2.44-4.634-.14c-.603-.02-1.156.17-1.544.53-.35.342-.546.8-.567 1.363l-.117 4.255c-.027 1.086.84 1.986 1.94 2.01l4.547.14c.525.006.86-.22 1.222-.464l.114-.084c.013-.002 6.397-4.585 6.82-4.872l5.015.135-.09 3.222c-.48-.02-5.56-.164-5.56-.164l-.055 2.446 5.823.18c1.32.034 2.05-.95 2.09-1.905l.118-4.253c.04-1.13-.812-1.97-2-2.006m1.46-12.134l-4.52-.42c-.05-.38-.483-4.11-.52-4.494l4.3-1.47-.307-2.526-.305.104L364.8 290l.243 2.088 22.26 2.094-.277-2.422m-15.55-1.448c1.287-.42 7.684-2.518 8.223-2.688l.41 3.493c-.58-.065-7.3-.682-8.64-.805" fill="#FFF"/><path d="M359.015 425.26h2.33v6.06h1.174v-6.06h2.32v-1.03H359v1.03m11.89-1.03l-1.746 5.68-1.787-5.68h-1.73v7.09h1.087v-6.06l1.86 6.06h1.115l1.85-5.97v5.97h1.07v-7.09h-1.72" fill="#1C4189"/><path d="M257.97 279.87v-35.15h-4.938v35.15s.028 5.946-5.403 14.545c0 0 3.26 2.55 7.87 2.55 4.6 0 7.87-2.55 7.87-2.55-5.44-8.6-5.4-14.545-5.4-14.545" fill="#F36717"/><path d="M158.07 131.756c-7.35 8.08-10.775 16.842-10.775 27.575 0 6.24 1.944 16.83 11.205 31.87l15.73 25.49c3.137 5.13 4.256 11.76 4.256 16.26 0 1.65-.237 3.21-.465 4.72-.22 1.5-.45 3.04-.45 4.64 0 4.93 1.9 8.49 5.25 10.016.27 3.937 1.89 7.896 5.75 9.19-.11 1.18-.2 2.564-.2 4.105 0 4.74.82 10.706 4.268 14.85l1.015 1.22 1.36-.81c4.06-2.414 8.797-9.35 8.797-20.94 0-21.28-14.42-46.06-18.844-53.15l-16.125-25.85c-4.9-7.85-5.925-15.05-5.925-19.71 0-11.685 8.31-24.3 21.734-24.3 9.774 0 14.98 6.404 14.98 11.03 0 2.28-1.67 8.547-7.054 8.547-3.634 0-6.276-2.543-6.276-6.05 0-1.125.315-2.992 1.2-4.86l1.67-3.52-3.78.91c-11.03 2.647-16.62 8.77-16.62 18.2 0 7.33 2.962 12.92 9.49 18-.048.555-.087 1.17-.087 1.873 0 2.97.61 7.025 3.377 10.15 2.592 2.934 6.45 4.38 11.47 4.29l3.275-.057-1.734-2.79c-2.17-3.5-3.29-6.672-3.29-9.113 0-1.093.29-1.994.75-2.76 10.373-.81 17.71-5.87 20.27-13.87l5.5 4.357 1.167-1.073c2.64-2.437 3.37-5.9 3.37-8.977 0-.364-.042-.69-.06-1.04l6.11 3.057.38-2.53c.23-1.515.34-3 .34-4.438 0-5.08-1.403-9.607-4.045-13.008 2.674-2.5 4.224-5.955 4.224-9.625v-.245l-.04-2.02-2.002.202c-8.773.88-15.094-1.646-21.79-4.32-6.625-2.65-13.48-5.39-23.28-5.39-9.99 0-18.09 3.33-24.07 9.906" fill="#1C4189"/><path d="M192.08 265.58c0-2.307.21-4.254.35-5.29l.254-1.916-1.916-.19c-3.958-.39-4.3-5.365-4.3-7.064l.01-1.55-1.384-.377c-3.323-.902-3.82-4.714-3.82-6.905 0-1.313.205-2.655.42-4.074.25-1.647.505-3.35.505-5.275 0-5.01-1.27-12.43-4.82-18.22l-15.73-25.5c-9.27-15.05-10.65-25.19-10.65-29.9 0-9.88 3.02-17.61 9.8-25.06 5.32-5.85 12.3-8.7 21.33-8.7 9.084 0 15.6 2.603 21.9 5.12 6.26 2.504 12.754 5.035 21.272 4.68-.473 2.436-1.857 4.64-3.994 6.1l-1.863 1.27 1.6 1.592c2.81 2.797 4.302 7.01 4.302 11.895 0 .41-.078.85-.1 1.27l-7.85-3.93.763 3.75c.18.885.405 2.304.405 3.853 0 1.7-.285 3.543-1.19 5.023l-7.537-5.966-.506 3.123c-1.32 8.13-8.266 13.287-18.58 13.792l-.81.04-.52.623c-.763.912-1.89 2.77-1.89 5.753 0 2.07.55 4.69 2.118 7.915-2.274-.414-4.084-1.327-5.364-2.77-1.99-2.253-2.44-5.318-2.44-7.636 0-1.015.09-1.886.17-2.48l.15-1.1-.89-.66c-6.19-4.55-8.83-9.24-8.83-15.68 0-6.61 3.437-11.08 10.457-13.59-.216.99-.35 1.972-.35 2.862 0 5.57 4.297 9.775 9.994 9.775 8.06 0 10.77-8.43 10.77-12.274 0-7.1-7.15-14.76-18.695-14.76-15.72 0-25.45 14.55-25.45 28.03 0 5.15 1.128 13.09 6.492 21.687l16.13 25.864c4.288 6.877 18.278 30.883 18.278 51.174 0 8.136-2.642 13.936-5.61 16.68-1.904-3.25-2.387-7.55-2.387-11.03h.006" fill="#FBBC08"/><path d="M328.857 121.85c-9.8 0-16.65 2.738-23.278 5.386-6.7 2.675-13.02 5.2-21.79 4.318l-2.01-.2-.04 2.02v.243c0 3.67 1.55 7.125 4.22 9.625-2.64 3.4-4.05 7.928-4.05 13.006 0 1.44.11 2.922.34 4.437l.38 2.53 6.11-3.057c-.02.35-.067.677-.067 1.04 0 3.08.73 6.54 3.373 8.976l1.167 1.074 5.504-4.355c2.56 8.002 9.894 13.06 20.27 13.868.46.77.75 1.67.75 2.77 0 2.44-1.124 5.61-3.296 9.12l-1.73 2.79 3.276.06c5.016.087 8.876-1.356 11.47-4.29 2.763-3.125 3.374-7.18 3.374-10.15 0-.704-.04-1.32-.09-1.874 6.528-5.08 9.49-10.67 9.49-18.002 0-9.43-5.59-15.55-16.62-18.2l-3.78-.905 1.673 3.52c.884 1.87 1.2 3.736 1.2 4.86 0 3.51-2.642 6.05-6.277 6.05-5.38 0-7.054-6.263-7.054-8.544 0-4.627 5.206-11.033 14.98-11.033 13.427 0 21.737 12.61 21.737 24.3 0 4.66-1.03 11.86-5.93 19.71l-16.124 25.855c-4.42 7.083-18.84 31.862-18.84 53.145 0 11.582 4.734 18.52 8.793 20.935l1.362.81 1.01-1.22c3.445-4.146 4.266-10.112 4.266-14.85 0-1.54-.09-2.926-.2-4.104 3.856-1.294 5.48-5.252 5.745-9.19 3.35-1.53 5.25-5.09 5.25-10.015 0-1.597-.236-3.14-.46-4.637-.23-1.51-.466-3.074-.466-4.72 0-4.5 1.116-11.135 4.256-16.26l15.73-25.49c9.26-15.034 11.204-25.62 11.204-31.86 0-10.73-3.424-19.493-10.776-27.573-5.982-6.576-14.08-9.91-24.072-9.91v-.003" fill="#1C4189"/><path d="M316.535 276.606c-2.97-2.745-5.612-8.544-5.612-16.682 0-20.29 13.99-44.298 18.277-51.172l16.127-25.853c5.365-8.6 6.492-16.54 6.492-21.69 0-13.48-9.73-28.03-25.45-28.03-11.55 0-18.7 7.66-18.7 14.76 0 3.84 2.71 12.27 10.77 12.27 5.69 0 9.99-4.21 9.99-9.78 0-.89-.13-1.87-.35-2.86 7.02 2.51 10.45 6.98 10.45 13.59 0 6.44-2.65 11.13-8.83 15.68l-.89.65.15 1.1c.08.59.17 1.47.17 2.48 0 2.32-.45 5.38-2.44 7.63-1.28 1.444-3.09 2.36-5.37 2.77 1.56-3.226 2.11-5.845 2.11-7.915 0-2.987-1.12-4.84-1.887-5.758l-.523-.626-.81-.04c-10.31-.503-17.25-5.66-18.57-13.79l-.506-3.123-7.54 5.968c-.9-1.48-1.185-3.325-1.185-5.022 0-1.55.225-2.97.406-3.857l.763-3.75-7.85 3.93c-.02-.42-.1-.86-.1-1.27 0-4.885 1.5-9.098 4.304-11.895l1.597-1.593-1.86-1.272c-2.133-1.46-3.52-3.66-3.99-6.1 8.518.36 15.01-2.176 21.274-4.68 6.3-2.52 12.817-5.122 21.905-5.122 9.03 0 16.004 2.844 21.33 8.694 6.78 7.45 9.802 15.18 9.802 25.06 0 4.71-1.384 14.854-10.65 29.9l-15.73 25.49c-3.546 5.79-4.81 13.207-4.81 18.216 0 1.927.258 3.63.505 5.277.217 1.42.42 2.76.42 4.074 0 2.19-.496 6-3.818 6.903l-1.388.38.012 1.55c0 1.7-.345 6.675-4.3 7.064l-1.92.19.258 1.918c.14 1.035.35 2.98.35 5.29 0 3.48-.48 7.777-2.386 11.025l.002.006" fill="#FBBC08"/><path d="M282.424 171.65c-2.007-8.367-8.325-11.456-8.325-11.456 1.41-3.84-1.73-6.233-2.24-6.595 5.7-4.73 9.33-11.88 9.33-19.88 0-5.02-1.43-9.69-3.9-13.65 5.61-3.03 10.68-9.61 10.68-18.4 0-11.72-9.59-16.61-15.13-17.81l-.52-.13c.313-1.1.49-2.27.49-3.53v-8.98c0-2.42-1.107-5.037-2.897-6.83-3.14-3.15-9.068-5.21-16.25-5.74v15.83c-17.944 7.07-22.11 18.23-22.36 26.54l13.383-3.808c-1.874 5.33-2.02 11.495-1.694 13.974-7.88 4.4-13.21 12.84-13.21 22.53 0 8 3.632 15.15 9.333 19.88-.517.36-3.653 2.75-2.224 6.59 0 0-6.33 3.09-8.34 11.46 0 0-12.032 2.94-13.116 8.97l39.97 15.65h.144l39.97-15.65c-1.08-6.03-13.117-8.97-13.117-8.97" fill="#1C4189"/><path d="M268.223 155.09c-6.01 4.016-12.65 4.178-12.65 4.178h-.148s-6.638-.162-12.648-4.177c0 0-2.624 1.86-1.862 4.18 0 0 9.104 3.09 14.51 7.12h.15c5.406-4.03 14.51-7.12 14.51-7.12.775-2.32-1.862-4.17-1.862-4.17" fill="#C8C7C7"/><path d="M271.153 162.826c-7.094 1.545-15.58 8.355-15.58 8.355h-.148s-8.486-6.81-15.58-8.35c0 0-6.33 3.71-7.563 9.92 0 0 13.264 7.43 23.143 7.43h.15c9.876 0 23.143-7.43 23.143-7.43-1.232-6.2-7.565-9.91-7.565-9.91" fill="#C8C7C7"/><path d="M276.094 178.153c-10.423 5.15-19.724 5.958-20.593 6.024-.87-.066-10.17-.873-20.59-6.024 0 0-6.64-2.016-11.58.617l32.1 13.002h.15l32.1-13.002c-4.94-2.633-11.57-.617-11.57-.617m1.39-46.447c-13.425-.926-21.91-8.663-21.91-8.663h-.15s-8.485 7.736-21.91 8.663c0 0-.62 5.574.92 8.517 0 0 8.957-2.016 20.99 3.706h.147c12.05-5.73 20.99-3.71 20.99-3.71 1.54-2.94.927-8.52.927-8.52m-21.912 17.96h-.15c-6.33-6.03-18.2-5.58-18.2-5.58s3.854 8.98 18.203 11.612h.15c14.345-2.63 18.213-11.618 18.213-11.618s-11.884-.46-18.215 5.57m.16-31.43s9.86 8.516 20.66 8.985c0 0-4.31-14.09-20.825-14.09h-.15c-16.502 0-20.825 14.09-20.825 14.09 10.803-.474 20.666-8.99 20.666-8.99h.47" fill="#C8C7C7"/><path d="M267.72 66.623c-2.12-2.125-6.053-3.69-10.903-4.447v14.488c-14.506 5.156-20.197 12.793-21.835 20.05l28.397-8.078c5.49-1.564 6.32-5.947 6.32-8.42V71.23c0-1.59-.78-3.4-1.99-4.605v-.002" fill="#FFF"/><path d="M257.58 77.706c-11.19 3.904-18.205 9.758-20.787 17.2l26.248-7.466c4.49-1.275 5.42-4.633 5.42-7.225V71.8c-1.71 2.418-6.18 4.265-10.88 5.906" fill="#E31B22"/><path d="M258.054 63.646v12.578c3.33-1.18 9.268-3.465 9.87-6.114.108-.47.037-.945-.204-1.436-.246-.432-.54-.835-.875-1.17-1.742-1.75-4.873-3.086-8.79-3.856v-.002" fill="#E31B22"/><path d="M271.412 86.612l.742.18c1.368.297 12.753 3.11 12.823 14.775-8.665.9-13.49 4.73-17.103 10.342-3.214-1.84-6.87-2.99-10.77-3.24 2.673-9.41 7.14-16.3 14.31-22.07h-.002m-25.54 22.062c0-2.748.415-6.993 1.718-10.615l.74-1.878 13.252-3.77c-3.427 4.593-5.877 9.895-7.587 16.253-2.834.166-5.538.81-8.04 1.845-.05-.48-.082-1.1-.082-1.84" fill="#C8C7C7"/><path d="M270.382 113.546c3.16-4.94 7.14-8.068 14.374-8.924-.983 6.386-5.058 10.744-8.905 12.81l-.92.48c-1.32-1.64-2.85-3.108-4.54-4.366" fill="#C8C7C7"/></g></svg>