<svg width="512" height="512" viewBox="0 0 512 512" xmlns="http://www.w3.org/2000/svg"><title>colorado-rapids</title><g fill="none" fill-rule="evenodd"><path d="M328.523 123.078l-72.587-57.16-72.587 57.16 72.58-49.36 72.58 49.36M216.9 394.624l39.03 46.935 39.035-46.94-39.03 36.44-39.034-36.44m75.5-122.17l-36.46-37.61-36.46 37.6-6.644-5.87-32.37 33.456c1.55 2.587 3.117 5.137 4.706 7.625l30.674-36.314 6.197 6.288 33.904-40.213 33.907 40.214 6.2-6.29 30.67 36.316c1.596-2.49 3.16-5.04 4.71-7.624l-32.373-33.46-6.645 5.88" fill="#FFF"/><path d="M255.936 294.772l9.497 6.918-3.633 11.183h-11.733l-3.63-11.183 9.5-6.918zm0 25.608c12.595 0 22.9-9.75 23.854-22.12l-1.44-.808 1.09-5.477c-1.477-7.93-6.808-14.506-14.01-17.62l-9.496 6.907-9.497-6.907c-7.204 3.114-12.533 9.693-14.01 17.627l1.086 5.467-1.437.8c.956 12.37 11.256 22.12 23.858 22.12h.002zm-67.532-156.075c0-1.237 1.013-2.543 2.245-2.907l4.09-1.205c1.23-.357 2.24.36 2.24 1.595v31.448c0 1.24-1.01 2.548-2.24 2.91l-4.09 1.2c-1.24.36-2.25-.354-2.25-1.59v-31.45zm.685 39.275l7.21-2.117c3.86-1.13 7.01-5.22 7.01-9.083v-33.448c0-3.867-3.16-6.1-7.02-4.967l-7.21 2.112c-3.86 1.133-7.02 5.223-7.02 9.088v33.445c0 3.866 3.15 6.1 7.01 4.97zm47.59-15.077c-1.24.093-2.25-.84-2.25-2.082v-31.44c0-1.23 1.01-2.32 2.24-2.42l4.09-.31c1.23-.09 2.24.84 2.24 2.08v31.45c0 1.24-1.01 2.33-2.25 2.42l-4.09.32zm12.66-2.217v-33.448c0-3.865-3.16-6.787-7.02-6.492l-7.22.55c-3.86.292-7.014 3.694-7.014 7.558V187.9c0 3.864 3.155 6.787 7.013 6.494l7.212-.55c3.86-.293 7.01-3.694 7.01-7.56v.002zm98.98 18.982c0 1.237-1.02 1.816-2.25 1.288l-4.1-1.748c-1.237-.533-2.25-1.977-2.25-3.21v-31.452c0-1.235 1.013-1.816 2.25-1.288l4.09 1.75c1.232.53 2.244 1.973 2.244 3.21v31.45zm-.69-39.77l-7.21-3.082c-3.86-1.656-7.02.16-7.02 4.023v33.44c0 3.86 3.15 8.37 7.01 10.02l7.206 3.08c3.856 1.65 7.01-.16 7.01-4.025v-33.45c0-3.863-3.155-8.38-7.01-10.03zm-171.17 1.722c0-3.862-3.16-5.658-7.02-3.983l-5.23 2.266c-3.86 1.67-7.015 6.204-7.015 10.065v33.448c0 3.865 3.155 5.658 7.013 3.983l5.226-2.27c3.86-1.67 7.016-6.2 7.016-10.06v-3.2l.95-1.02v-.66l-8.23 3.57v.65l.95.19v2.2c0 1.23-1.01 2.68-2.24 3.215l-2.106.915c-1.233.536-2.24-.04-2.24-1.277v-31.45c0-1.234 1.01-2.68 2.24-3.22l2.104-.91c1.23-.536 2.24.04 2.24 1.27v4.092l-.95 1.02v.65l8.23-3.568v-.656l-.95-.193v-5.09m46.98 21.833l-.645.115-.61 1.06-6.936 1.26v-40.46l.95-.777v-.66l-8.23 1.496v.65l.952.44v44.978l-.95.778v.653l15.476-2.808v-6.73m96.74 8.01l-6.34-1.7v-35.94l6.34 1.7c1.23.332 2.243 1.61 2.243 2.852v31.45c0 1.24-1.015 1.983-2.246 1.65m8.57 1.05v-33.45c0-3.86-3.155-7.865-7.014-8.91l-15.17-4.07v.654l.945.864v44.98l-.95.35v.653l15.17 4.07c3.86 1.032 7.015-1.28 7.015-5.145m-60.88-30.97c0 1.24-1.006 2.21-2.243 2.16l-4.35-.17V152l4.35.17c1.23.058 2.24 1.1 2.24 2.34v12.62zm8.23 26.54l-1.404-.95-5.224-17.88c2.743-.844 4.73-3.39 4.73-6.45v-14.6c0-3.865-3.157-7.152-7.014-7.306l-13.185-.53v.654l.95.643v44.98l-.95.57v.65l8.23.08v-.65l-.95-.64V174.9l1.98.08 5.495 18.815 7.35.532v-.654zm11.938-20.91v-16.29c0-1.24 1.013-2.085 2.245-1.89l2.106.33c1.23.2 2.24 1.373 2.24 2.607v16.29l-6.59-1.046zm5.64 23.18v.65l8.235 1.56v-.65l-.95-.758v-39.22c0-3.863-3.153-7.525-7.01-8.14l-5.223-.83c-3.86-.61-7.016 2.05-7.016 5.914v39.214l-.95.453v.65l8.23 1.053v-.652l-.944-.753v-15.9l6.59 1.05v15.905l-.947.46h-.004zm-24.217 13.83v-.332h-5.62v.333c.426 0 .77.22.77.487v12.724c0 .266-.344.49-.767.49v.325h5.622v-.33c-.428 0-.77-.22-.77-.49v-12.72c0-.268.34-.49.765-.49m12.28 2.888h3.487c2.184 0 3.95 1.066 3.95 3.96 0 2.89-1.766 3.96-3.95 3.96h-3.49v-7.923zm-4.856 10.81v.33h9.22c3.956 0 7.167-2.415 7.167-7.18 0-4.77-3.21-7.18-7.166-7.18h-9.22v.33c.428 0 .767.22.767.487v12.724c0 .27-.34.486-.767.486zm-29.363-10.81h4.53c.825 0 1.494.673 1.494 1.5 0 .826-.667 1.494-1.494 1.494h-4.53v-2.994zm5.4 6.22c2.6 0 4.71-2.113 4.71-4.72 0-2.61-2.11-4.72-4.71-4.72h-10.25v.33c.42 0 .76.22.76.49v12.72c0 .273-.34.49-.76.49v.33h5.62v-.33c-.43 0-.77-.217-.77-.49v-4.1h5.4zM208 215.66h-5.257v-2.995H208c.823 0 1.496.674 1.496 1.498 0 .83-.673 1.498-1.497 1.498m5.58-1.49c0-2.6-2.11-4.71-4.71-4.71h-10.98v.34c.42 0 .76.218.76.49V223c0 .27-.34.49-.77.49v.33h5.61v-.33c-.424 0-.764-.217-.764-.488v-4.1h2.75l2.892 4.1c.186.27 0 .486-.42.486v.33h5.615v-.33c-.42 0-.91-.216-1.105-.487l-2.925-4.15c2.28-.33 4.035-2.3 4.035-4.68m11.684 4.34l2.623-6.89 2.63 6.9h-5.256zm6.38 4.97v.33h4.962v-.36c-.307-.07-.57-.25-.65-.45l-4.84-12.72c-.104-.263.153-.49.58-.49v-.33h-7.615v.33c.423 0 .68.22.58.49L219.82 223c-.076.204-.34.376-.64.45v.36h4.96v-.33c-.424 0-.68-.22-.58-.49l.915-2.4h6.83l.91 2.407c.105.267-.156.488-.576.488h.01zm68.59-5.29l-2.014 4.86.33.08s.256-.35.54-.35c.838 0 2.1 1.17 7.35 1.17 3.602 0 7.54-.94 7.54-4.86 0-6.08-10.983-3.4-10.983-5.56 0-.99 1.72-1.42 2.84-1.42 3.854 0 6.04.98 5.694 1.71l.324.16 1.878-3.81-.293-.11s-.22.43-.74.43-3.558-1.16-6.87-1.16c-3.56 0-6.93 1.61-6.93 4.214 0 6.09 10.98 3.103 10.98 5.56 0 1.14-1.153 1.633-3.45 1.633-5.24 0-6.23-1.67-5.922-2.395l-.287-.14" fill="#FFF"/><path d="M255.936 473.325c-83.14-84.032-143.09-212.572-144.668-312.446L255.936 38.71C266.478 47.62 394.41 155.65 400.6 160.88c-1.578 99.876-61.526 228.416-144.664 312.445m0-446.453l-153.86 129.925c0 107.647 67.143 246.485 153.86 330.498 86.71-84.013 153.86-222.85 153.86-330.498L255.936 26.872" fill="#D3D5D7"/><path d="M255.936 410.98C220.41 375.234 155 297.082 140.108 198.742c-1.425-9.44-2.403-19.06-2.827-28.853l118.66-77.9 118.65 77.9c-.42 9.79-1.4 19.41-2.82 28.85-14.89 98.33-80.3 176.49-115.82 212.23m0-325.63l-125.82 82.49c5.17 118.38 84.46 212.68 125.81 254.15 41.35-41.47 120.65-135.77 125.82-254.15L255.94 85.35" fill="#D3D5D7"/><path d="M247.802 353.598c-1.44 0-2.602.787-2.602 1.753 0 .98 1.163 1.76 2.602 1.76 1.434 0 2.597-.78 2.597-1.76 0-.96-1.17-1.75-2.6-1.75" fill="#D3D5D7"/><path d="M247.13 361.578c3.89 0 4.063-3.293 4.063-3.293s-2.033 1.224-4.44 1.224c-2.604 0-4.6-1.74-4.6-4.16 0-2.82 2.87-4.16 5.647-4.16 4.41 0 6.56 2.33 6.56 6.31 0 4.12-3.562 6.32-7.23 6.32-2.754 0-4.07-.73-4.323-.73-.315 0-.54.25-.54.25l-.29-.12 1.87-3.18.24.12c-.117.613.522 1.395 3.042 1.395m-31.3-90.24l-30.68 36.32c21.58 33.76 46.75 58.71 70.77 76.17v-41.59c-20.03 0-36.26-16.26-36.26-36.31 0-20.058 16.23-36.32 36.252-36.32V237.4l-33.904 40.216-6.197-6.29" fill="#D3D5D7"/><path d="M255.936 441.557l-39.032-46.935 39.032 36.437 39.028-36.44-39.028 46.93zm0-356.208l125.812 82.48c-5.168 118.38-84.468 212.68-125.812 254.15-41.35-41.47-120.644-135.77-125.81-254.15l125.81-82.49zm0-19.43l72.587 57.15-72.587-49.36-72.587 49.36 72.58-57.16zm0-6.65L120.062 163.92c5.548 117.942 89.03 238.794 135.874 285.638 46.84-46.844 130.32-167.696 135.872-285.638L255.936 59.27z" fill="#9CC2EB"/><path d="M264.07 361.43c1.437 0 2.6-.787 2.6-1.757 0-.965-1.165-1.75-2.6-1.75-1.433 0-2.6.785-2.6 1.75 0 .97 1.168 1.756 2.6 1.756" fill="#9CC2EB"/><path d="M264.74 353.446c-3.892 0-4.062 3.294-4.062 3.294s2.03-1.223 4.432-1.223c2.608 0 4.604 1.735 4.604 4.158 0 2.814-2.87 4.158-5.645 4.158-4.41 0-6.57-2.33-6.57-6.323 0-4.112 3.56-6.316 7.23-6.316 2.75 0 4.07.74 4.32.74.31 0 .54-.265.54-.265l.28.12-1.87 3.17-.24-.12c.117-.61-.523-1.4-3.044-1.4m27.45-47.53c0 20.05-16.23 36.31-36.25 36.31v41.59c24.02-17.46 49.19-42.41 70.77-76.17l-30.67-36.33-6.196 6.294-33.905-40.214v32.2c20.02 0 36.25 16.26 36.25 36.318" fill="#9CC2EB"/><path d="M232.076 298.26l-4.574 2.57-.013-.79c0-5.14 1.35-9.96 3.73-14.123l1.2 6.068c1.47-7.934 6.8-14.513 14.01-17.627l.43-1.326c2.85-.956 5.89-1.484 9.07-1.484 3.17 0 6.22.525 9.07 1.484l.43 1.326c7.2 3.114 12.53 9.69 14 17.62l1.2-6.06c2.37 4.163 3.73 8.986 3.73 14.125l-.01.786-4.578-2.57c-.954 12.37-11.257 22.12-23.856 22.12-12.595 0-22.9-9.75-23.86-22.12m55.304 3.94c0-17.4-14.08-31.5-31.446-31.5s-31.44 14.1-31.44 31.49c0 17.4 14.074 31.5 31.44 31.5 17.363 0 31.443-14.1 31.443-31.505" fill="#9CC2EB"/><path d="M255.936 270.71c17.363 0 31.442 14.1 31.442 31.495 0 17.4-14.08 31.504-31.442 31.504-17.365 0-31.442-14.11-31.442-31.51 0-17.4 14.077-31.5 31.442-31.5m0 71.52c20.023 0 36.252-16.26 36.252-36.31 0-20.06-16.23-36.32-36.252-36.32-20.023 0-36.257 16.26-36.257 36.32 0 20.05 16.23 36.3 36.25 36.3" fill="#424A52"/><path d="M331.42 300.034c-1.55 2.587-3.115 5.134-4.71 7.625-21.585 33.76-46.752 58.7-70.773 76.16-24.022-17.47-49.19-42.41-70.775-76.17-1.593-2.49-3.162-5.04-4.712-7.63-16.732-27.9-30.978-61.42-40.34-101.29 14.89 98.35 80.304 176.5 115.826 212.24 35.52-35.74 100.93-113.9 115.823-212.23-9.36 39.87-23.61 73.39-40.34 101.29" fill="#424A52"/><path d="M120.06 163.922L255.934 59.27l135.874 104.65c-5.553 117.942-89.033 238.794-135.874 285.638-46.84-46.844-130.322-167.696-135.874-285.638M255.934 38.715L111.266 160.878c1.583 99.878 61.53 228.418 144.668 312.45 83.142-84.032 143.09-212.572 144.667-312.45-6.18-5.23-134.12-113.26-144.66-122.163" fill="#96092C"/><path d="M207.998 212.666h-5.256v2.995h5.256c.824 0 1.497-.66 1.497-1.49 0-.82-.673-1.5-1.497-1.5m138.084-42.05l-4.095-1.75c-1.232-.52-2.242.06-2.242 1.29v31.45c0 1.23 1.01 2.68 2.242 3.21l4.095 1.75c1.232.53 2.244-.05 2.244-1.29v-31.45c0-1.23-1.012-2.673-2.244-3.203M194.737 160.2l-4.09 1.202c-1.232.36-2.245 1.67-2.245 2.906v31.453c0 1.24 1.013 1.95 2.245 1.59l4.09-1.2c1.235-.36 2.248-1.67 2.248-2.91v-31.45c0-1.23-1.013-1.95-2.248-1.59m125.448.92l-6.34-1.69v35.95l6.34 1.7c1.23.33 2.245-.41 2.245-1.654v-31.44c0-1.24-1.014-2.52-2.245-2.85m-68.135 51.55h-4.525v2.995h4.525c.824 0 1.495-.665 1.495-1.492 0-.824-.67-1.5-1.495-1.5" fill="#96092C"/><path d="M354.65 208.977c0 3.86-3.155 5.67-7.01 4.022l-7.21-3.09c-3.86-1.65-7.016-6.17-7.016-10.03v-33.44c0-3.87 3.155-5.68 7.015-4.02l7.21 3.08c3.85 1.65 7.01 6.16 7.01 10.02v33.45zm-25.893-10.863c0 3.86-3.155 6.177-7.014 5.142l-15.17-4.074v-.653l.946-.35V153.2l-.95-.862v-.656l15.17 4.074c3.86 1.042 7.01 5.048 7.01 8.908v33.45zm-22.312 25.832c-5.252 0-6.513-1.172-7.35-1.172-.285 0-.54.35-.54.35l-.328-.08 2.013-4.86.28.142c-.31.727.684 2.394 5.926 2.394 2.294 0 3.45-.493 3.45-1.633 0-2.458-10.986.53-10.986-5.56 0-2.604 3.373-4.216 6.932-4.216 3.31 0 6.347 1.17 6.865 1.17.523 0 .74-.42.74-.42l.295.12-1.878 3.818-.327-.16c.346-.735-1.84-1.71-5.695-1.71-1.118 0-2.84.433-2.84 1.42 0 2.16 10.983-.527 10.983 5.56 0 3.92-3.94 4.86-7.54 4.86zM288.04 178.54v15.906l.947.758v.65l-8.23-1.057v-.65l.954-.456v-39.21c0-3.86 3.16-6.52 7.02-5.91l5.23.83c3.86.62 7.02 4.28 7.02 8.14v39.22l.95.76v.66l-8.23-1.56v-.653l.95-.45V179.6l-6.59-1.048zm-1.937 45.265h-9.22v-.33c.43 0 .767-.216.767-.488v-12.72c0-.27-.337-.488-.766-.488v-.34h9.22c3.958 0 7.17 2.41 7.17 7.18 0 4.76-3.212 7.18-7.17 7.18zm-10.002-29.47l-7.34-.534-5.49-18.81-1.98-.08v17.32l.95.65v.65l-8.22-.08v-.65l.95-.57v-44.98l-.95-.64v-.65l13.19.53c3.856.15 7.013 3.44 7.013 7.31v14.61c0 3.068-1.983 5.61-4.73 6.454l5.225 17.883 1.408.95v.655zm-6.63 15.443c-.42 0-.76.216-.76.488v12.72c0 .27.34.488.77.488v.33h-5.62v-.33c.425 0 .767-.217.767-.49v-12.718c0-.272-.342-.488-.767-.488v-.333h5.62v.333zm-16.54 9.108h-5.4v4.1c0 .27.34.488.77.488v.33h-5.62v-.33c.42 0 .76-.217.76-.49v-12.718c0-.272-.34-.488-.76-.488v-.333h10.26c2.6 0 4.71 2.11 4.71 4.715 0 2.61-2.11 4.724-4.71 4.724v.002zm-17.81-24.496c-3.86.29-7.01-2.63-7.01-6.496v-33.448c0-3.86 3.16-7.266 7.02-7.56l7.21-.55c3.857-.295 7.016 2.628 7.016 6.493v33.45c0 3.86-3.157 7.26-7.014 7.56l-7.21.55zm1.49 29.41h-4.96v-.33c.42 0 .68-.216.58-.488l-.91-2.4h-6.834l-.912 2.4c-.102.272.16.488.58.488v.33h-4.96v-.36c.3-.08.567-.253.64-.457l4.846-12.72c.11-.27-.15-.488-.58-.488v-.333h7.62v.333c-.424 0-.68.217-.576.488l4.84 12.72c.08.204.34.376.647.457v.362zm-24.13-.818c.19.272.69.488 1.11.488v.33h-5.62v-.33c.43 0 .61-.215.43-.487l-2.89-4.1h-2.75v4.1c0 .272.34.488.77.488v.33h-5.62v-.33c.426 0 .76-.21.76-.48v-12.72c0-.27-.334-.49-.76-.49v-.33h10.986c2.6 0 4.71 2.11 4.71 4.72 0 2.38-1.755 4.35-4.03 4.68l2.92 4.15zM189.1 203.57c-3.86 1.136-7.01-1.1-7.01-4.966V165.16c0-3.865 3.15-7.957 7.013-9.088l7.214-2.113c3.86-1.14 7.016 1.1 7.016 4.97v33.44c0 3.86-3.157 7.95-7.016 9.09l-7.212 2.11zm18.88-5.644l.955-.774V152.17l-.954-.435v-.65l8.23-1.496v.65l-.94.77v40.46l6.94-1.26.605-1.067.645-.11v6.722l-15.475 2.81v-.66zm-30.55-24.776l-8.23 3.57v-.65l.95-1.017v-4.093c0-1.233-1.014-1.807-2.243-1.274l-2.105.913c-1.23.53-2.24 1.98-2.24 3.21v31.45c0 1.23 1.01 1.81 2.24 1.28l2.107-.92c1.23-.537 2.24-1.99 2.24-3.22v-2.2l-.957-.193v-.65l8.23-3.57v.66l-.946 1.02v3.19c0 3.86-3.16 8.39-7.016 10.062l-5.22 2.265c-3.86 1.674-7.012-.12-7.012-3.984v-33.45c0-3.863 3.15-8.4 7.013-10.07l5.22-2.26c3.86-1.677 7.017.12 7.017 3.98v5.086l.947.192v.66-.007zm78.52-81.16l-118.66 77.9c.427 9.788 1.405 19.41 2.83 28.854 9.36 39.864 23.61 73.386 40.34 101.286l32.375-33.455 6.648 5.88 36.47-37.61 36.464 37.61 6.643-5.88 32.376 33.46c16.73-27.9 30.98-61.42 40.34-101.284 1.43-9.44 2.4-19.06 2.83-28.86l-118.66-77.9h.007z" fill="#96092C"/><path d="M225.263 218.51h5.253l-2.628-6.895-2.625 6.896m40.367-66.31l-4.35-.17v17.12l4.35.17c1.236.05 2.244-.92 2.244-2.15v-12.62c0-1.234-1.008-2.285-2.245-2.336m-24.87.046l-4.09.312c-1.23.095-2.25 1.18-2.25 2.42v31.448c0 1.24 1.01 2.178 2.24 2.085l4.09-.314c1.234-.095 2.25-1.184 2.25-2.42v-31.45c0-1.24-1.01-2.173-2.25-2.08m44.46 60.425h-3.49v7.92h3.488c2.185 0 3.95-1.07 3.95-3.96 0-2.893-1.765-3.96-3.95-3.96m9.4-55.137c0-1.236-1.01-2.41-2.24-2.61l-2.1-.332c-1.235-.194-2.248.66-2.248 1.89v16.29l6.59 1.04v-16.28M265.43 301.69l-9.496-6.915-9.498 6.916 3.626 11.19h11.734l3.632-11.18h.003m0-27.33l-.43-1.32c-2.84-.954-5.89-1.48-9.06-1.48-3.17 0-6.22.526-9.07 1.482l-.43 1.323 9.5 6.91 9.5-6.907m-34.2 11.56c-2.37 4.16-3.73 8.986-3.73 14.125l.01.788 4.575-2.57 1.44-.81-2.29-11.53v.003m48.21 6.06l-1.09 5.474 6.02 3.374.01-.787c0-5.14-1.362-9.96-3.737-14.12l-1.202 6.054h.005m-31.65 65.12c-1.44 0-2.6-.79-2.6-1.76 0-.965 1.163-1.752 2.6-1.752 1.436 0 2.6.788 2.6 1.754 0 .98-1.166 1.76-2.6 1.76m0-5.91c-2.777 0-5.65 1.34-5.65 4.16 0 2.43 2 4.16 4.6 4.16 2.41 0 4.44-1.223 4.44-1.223s-.17 3.293-4.06 3.293c-2.52 0-3.16-.78-3.04-1.4l-.24-.117-1.867 3.18.29.118s.225-.255.538-.255c.254 0 1.57.73 4.324.73 3.67 0 7.23-2.2 7.23-6.32 0-3.99-2.15-6.32-6.56-6.32m16.27 6.727c1.437 0 2.6.784 2.6 1.75 0 .97-1.165 1.755-2.6 1.755-1.433 0-2.6-.787-2.6-1.757 0-.966 1.168-1.75 2.6-1.75m3.953-2.965l1.87-3.17-.28-.12s-.228.26-.544.26c-.248 0-1.57-.734-4.318-.734-3.67 0-7.23 2.208-7.23 6.317 0 3.995 2.15 6.32 6.56 6.32 2.77 0 5.642-1.34 5.642-4.155 0-2.42-1.998-4.16-4.604-4.16-2.403 0-4.435 1.223-4.435 1.223s.17-3.295 4.06-3.295c2.524 0 3.16.79 3.045 1.4l.24.116m19.4 108.33h3.32v10.04h1.21V463.3h3.486v-1.203h-8.016v1.204m14.43 7.95l-2.88-9.14h-1.93v11.24h1.21v-9.55l3.01 9.55h1.21l3-9.542v9.55h1.206V462.1h-1.938l-2.88 9.146" fill="#96092C"/></g></svg>