<svg width="512" height="512" viewBox="0 0 512 512" xmlns="http://www.w3.org/2000/svg"><title>columbus-crew</title><g fill="none" fill-rule="evenodd"><path d="M256.933 435.91c-21.745-10.15-44.583-22.034-67.67-35.452-24.873-14.457-47.86-29.41-68.214-44.168-3.327-27.728-6.157-57.29-8.49-88.038-4.717-63.18-6.306-121.608-5.164-168.45 33.56-13.912 88.172-22.974 149.537-22.974 61.463 0 116.025 9.06 149.635 22.975 1.142 46.84-.496 105.27-5.213 168.45-2.284 30.748-5.164 60.31-8.44 88.037-20.355 14.756-43.39 29.71-68.214 44.168-23.085 13.418-45.973 25.303-67.767 35.453z" fill="#231F20"/><path d="M130.383 321.73c-2.035-20.054-3.674-39.316-5.113-59.42-2.185-.643-3.327-2.525-3.327-3.316 0-.792 1.638-2.427 3.08-3.17-1.64-23.47-3.08-46.345-3.874-69.865 31.277-13.27 80.725-23.025 135.933-23.025 55.257 0 104.407 9.754 135.685 23.024-.647 18.864-1.54 37.73-2.73 56.594 1.19.693 2.083 1.683 2.48 2.97.994 2.923-.446 6.834-3.374 10.053-1.44 21.44-3.276 42.88-5.41 64.27-8.738-3.615-11.47-5.002-25.57-9.06.05 4.406.597 8.07.05 8.565-4.368 4.06-11.02 4.11-13.255 4.257-.696 2.278 0 2.872 3.822 7.378 2.135 2.524 1.837 7.13 1.093 10.3-.596 2.624-1.29 3.81-1.838 2.772-.744-1.386 2.235-1.634 1.19-3.416-.396-.644-2.928-.94-3.275-1.138-2.185-.99 3.227-.595 2.334-2.624-.595-1.338-2.284 2.18-2.98.148-.646-1.88-2.233-3.616-7.596-3.665-1.34 0-5.213-.495-8.937 1.684 2.63-.1 8.49-.99 12.164 2.524 3.624 3.565 4.517 11.34 4.568 11.933.297 3.614 2.283 13.418.248 22.876-3.972 2.476-7.894 4.953-11.866 7.378-5.313 3.22-10.723 6.438-16.086 9.557-.942-1.238-2.034-2.525-3.524-3.664-3.823-2.823 7.993-.893 7.844-2.725-.496-5.546-11.817-13.022-19.065-16.042-4.17-3.763 15.29 2.525 20.803-2.376 2.433-2.18-.694-14.212-6.702-20.4-.894-.942-1.59-3.17-.497-4.606 1.885-2.524 5.212-1.684 6.8-3.86 1.192-1.586-.993-1.784 3.426-4.705-.745-1.288-2.086.89-3.972.89-2.63-.098-8.29 3.516-9.185 4.803-.348-2.922.545-4.704 5.312-7.626.893-.495 1.687-1.88 1.638-3.17-.05-.544-.795-.148-.895-.643-.197-1.09 3.476-2.476 2.78-3.516-.942-1.486-6.7 2.97-6.95 2.427-.496-1.14 6.306-4.952 9.334-9.804.943-1.436.794-2.524.446-3.118-1.092-2.03-9.68 7.03-10.226 6.437-1.24-1.537 14.596-15.154 13.553-16.34-1.092-1.288-9.185 8.17-9.582 7.673-.346-.444.994-1.485-.05-2.327-.445-.396-1.24 1.436-1.836 1.04-1.19-.743 2.63-5.497 2.085-5.99-2.285-2.08-7.596 14.01-8.738 13.22-.993-.693 6.454-15.4 7.596-17.18.347-.546-1.49-1.785-1.887-.596-1.39 4.01-6.65 14.31-7.197 15.152-.894 1.387-1.936 10.894-2.83 10.003-1.043-1.14 2.382-11.19 2.482-13.815.05-1.98.844-3.467-.448-3.615-1.49-.15-.148-4.456.25-5.744.743-2.672.942-6.93.644-8.07-.644-2.08 2.186-2.378 1.59-3.614-.596-1.238-3.327-4.01-3.03-2.28.546 3.516-1.886 4.062-3.078 6.933-.744 1.832-1.59 4.852-1.837 9.95-1.738-1.137-1.39-7.475-.546-11.337.694-3.12 2.382-8.714 1.638-8.963-2.036-.593-1.54 2.228-3.425 3.268-.993.545-.646-1.683-1.34-1.93-.845-.298-.547 1.583-1.192 1.138-.744-.544-1.687-1.534-1.786 3.17 0 .84-2.085 1.04-3.326 10.942-.15.99-1.142-.298-1.887 6.386-.098.743-2.43.496-3.374 6.586-.1.545-1.34 1.436-1.59 3.267-.396 3.367-1.637 5.397-2.43 5.596-1.045-9.705 8.488-33.175 7.495-44.118-.396-.2-.496.296-1.092 0-2.382 7.575-5.36 11.834-7.646 19.757-3.774 7.08-8.738 18.32-11.717 26.34.944-6.683 3.376-12.774 7.596-20.696 3.426-6.437 6.95-15.498 10.08-23.52-5.412 3.02-21.746 23.718-24.725 28.57-2.83 4.555-3.525 8.566-4.666 16.043-.25-2.477-.3-7.18 1.39-13.617 2.58-9.903 7.793-13.022 8.24-16.588.248-1.783-1.043-2.625 3.177-5-3.475-.348-1.737-2.972.446-3.517-3.176-2.574 2.035-5.248 2.682-5.546-4.02-.248-11.42 2.327-11.866 1.287-1.69-3.863-.35-4.407-.547-6.883-.2-2.426-1.788-5.497-.596-7.13 2.135-2.97 10.526-6.288 13.9-9.06.1-.694-3.275 1.782-3.425.643-.198-1.634-1.687.842-3.028.396-3.823-1.238-3.872-4.308-4.716-5.447-.894-1.24-2.93-2.576-1.936-3.664.497-.546 3.128 1.138 3.276-.248.497-4.852-2.68-4.258-2.63-4.803.347-3.268 4.616-.248 4.22-1.485-.796-2.476-4.42-.447-4.122-3.615.15-2.03-1.688-5.546-2.185-5.497.745-7.13.546-12.328.2-18.37-.15-2.08 1.092-1.78 2.035-.594 1.34 1.634 3.425-.693 1.837 2.922-.496 1.14 3.128 6.486 4.122 7.427.397.347 2.134-.148 1.34-1.386-.994-1.634.744-.296 2.78-2.277 1.787-1.683.894-3.318 2.135-1.98.595.692 1.19 1.485 1.39.692.446-1.832 1.042-.544 1.24-1.337.15-.544-.298-1.634-1.885-2.823-1.142-.842-1.887-2.277-.25-2.525 6.405-.94 8.59 3.913 10.378 16.34.446-9.457 5.313-9.903 2.88 1.585 19.61-7.476 23.582-18.767 1.538-26.292.448-7.18.896-15.696-5.708-23.124-4.122-4.704-7.696-6.536-10.08-12.28-1.836 1.635-2.73 4.06-5.31 3.32-1.64-.496-5.71-4.904-6.257-5.844-2.532.694-4.766 1.19-8.886 5.794-6.852-5.794-7.1-2.278-8.938 1.98-17.972-2.476-22.24 28.768-22.837 31.888-28 10.596-6.107 23.717 2.433 24.906 6.9.99.744 6.932 7.447 9.06 3.178 1.04 2.333 5.894 2.035 12.033-.447 10.3.446 21.094-5.213 20.153-5.56-.94-6.007 3.96-12.56 7.28-3.972 2.028-15.39 5.297-20.852 8.367-.993.544-.845-1.98-1.936-1.386-1.093.593-.597 1.782-2.334 2.823-2.086 1.287-4.568 3.366-6.802 6.34-4.37 5.84-9.036 9.504-16.284 9.307-1.44 0-7.844-.148-8.937-3.862-.397-1.238-.348-3.367 2.086-3.516 1.736-.05 3.822 2.92 4.07 2.08.397-1.338.397-3.02-1.986-3.02-.743 0-2.234-.05-2.334-.25-.446-1.435.05-1.88.647-1.93.844-.098-1.044-2.426.545-2.426 1.59.05 5.71 3.22 5.958 2.673.694-1.683-.645-3.317-3.624-5.297-.15 1.188-.745 1.585-2.78.347-.994-.645-3.377-.842-2.73-3.813.247-1.336.395-3.12 1.24-2.18.744.99 2.135 1.685 3.375.546 1.094-.94 1.74-.446 2.384.396 3.177 4.01 1.936-4.704 1.39-6.982-.694-3.02-1.19.643-2.482 1.04-.795.296-1.093 1.683-1.043 2.773.148 2.624-1.59 1.287-2.037.842-1.092-1.04-1.788-1.834-2.88-1.635-1.49.298-.397 2.228-1.886 1.88-.397-3.414.297-6.93.793-9.258.2-.94 1.193-5.992 2.285-6.09 1.29-.15.694 2.773 4.568 5.793 2.88 2.228 7.744.99 9.83.248 2.63-.94.397-2.228 2.93-2.328 2.134-.1.744-1.584-.448-2.526-.844-.692-.893-2.624.695-1.93 1.39.692 3.028 2.03 2.58 1.04-.742-1.783 2.882-1.585 5.115-.546 3.625 1.733 2.085 12.38 4.07 12.13 1.043-.148.796-5.742 2.036-7.03 2.98-3.07 5.114-.89 6.107-3.07.845-1.88.845 1.288 6.603.843 12.562-1.09 15.242-3.91 4.52-5.94 0-1.586-3.576-4.508-5.86-4.508.15-2.277.15-4.852.25-7.774.645-13.12-4.57-22.827-12.114-26.39-5.462-2.625-5.362-9.41-8.788-5.794-2.582 2.723-4.468 1.286-6.554-.842-4.915-5-6.702-.99-8.688.594-3.127 2.476-4.22-.297-5.014-.446-5.064-.89-3.674 2.674-5.412 3.515-20.504 10.35-14.943 30.105-16.333 31.59-4.32 4.408-11.32 4.16-12.064 5.398-1.638 2.723 12.114 3.218 17.674 6.04 1.59.794-.397 18.866.795 25.45 2.78 15.45 10.97 14.31 9.482 18.222-.993 2.525-6.9 7.725-11.37 10.745-3.723 2.476-7.695.99-15.142 2.18z" fill="#605161"/><path d="M287.962 235.97c.645 6.833-.844 12.478-3.872 16.835.297 6.14.745 12.23.248 18.766 1.142 2.428 4.666 2.08 5.61 4.112.297.742 2.334-.89 2.93.593.893 2.228 3.375 3.367 4.765 3.764 2.483.74 3.624 2.227 4.766 1.732 1.19-.495 2.63-.198 2.78.446.694.793 2.432 2.03 2.58 2.922.546 3.515-1.886 4.06-3.078 6.932-.744 1.832-1.59 4.852-1.837 9.952-1.738-1.14-1.39-7.476-.546-11.338.694-3.12 2.382-8.715 1.638-8.963-2.036-.594-1.54 2.228-3.425 3.267-.993.546-.646-1.683-1.34-1.93-.845-.298-.547 1.583-1.192 1.138-.744-.544-1.687-1.534-1.786 3.17 0 .842-2.085 1.04-3.326 10.942-.15.99-1.142-.298-1.887 6.387-.098.743-2.43.495-3.374 6.585-.1.546-1.34 1.437-1.59 3.268-.396 3.366-1.637 5.396-2.43 5.596-1.045-9.706 8.488-33.175 7.495-44.12-.396-.197-.496.298-1.092 0-2.382 7.577-5.36 11.836-7.646 19.758-3.774 7.08-8.738 18.32-11.717 26.34.944-6.682 3.376-12.773 7.596-20.696 3.426-6.437 6.95-15.498 10.08-23.52-5.412 3.02-21.746 23.72-24.725 28.57-2.83 4.555-3.525 8.567-4.666 16.043-.25-2.475-.3-7.18 1.39-13.614 2.58-9.903 7.793-13.023 8.24-16.59.248-1.78-1.043-2.623 3.177-5-3.475-.346-1.737-2.97.446-3.516-3.176-2.574 2.035-5.248 2.682-5.546-4.02-.247-11.42 2.328-11.866 1.287-1.69-3.86-.35-4.405-.547-6.88-.2-2.426-1.788-5.498-.596-7.13 2.135-2.97 10.526-6.29 13.9-9.06.1-.695-3.275 1.78-3.425.642-.198-1.633-1.687.842-3.028.396-3.823-1.238-3.872-4.308-4.716-5.446-.894-1.238-2.93-2.575-1.936-3.664.497-.545 3.128 1.14 3.276-.247.497-4.852-2.68-4.257-2.63-4.803.347-3.267 4.616-.247 4.22-1.485-.796-2.476-4.42-.446-4.122-3.614.15-2.03-1.688-5.546-2.185-5.497.745-7.13.546-12.328.2-18.37-.15-2.08 1.092-1.78 2.035-.593 1.34 1.633 3.425-.694 1.837 2.922-.496 1.137 3.128 6.485 4.122 7.426.397.347 2.134-.148 1.34-1.386-.994-1.634.744-.297 2.78-2.278 1.787-1.682.894-3.317 2.135-1.98.595.692 1.19 1.485 1.39.692.446-1.832 1.042-.544 1.24-1.337.15-.544-.298-1.634-1.885-2.822-1.142-.842-1.887-2.278-.25-2.525 8.49-1.783 9.484 10.35 10.378 16.34.446-9.457 5.313-9.903 2.88 1.584l.148-.05c-.445 2.477 1.54 5.398-1.588 5.596z" fill="#FFF"/><path d="M201.627 269.49c.993 1.288.893 4.705.297 5.646-.993 1.486-2.432 4.655-2.582 6.14-.446 3.912-1.687 5.545-3.127 6.387-.993.544-.845-1.98-1.936-1.386-1.093.593-.597 1.782-2.334 2.823-2.086 1.287-4.568 3.366-6.802 6.34-4.37 5.84-9.036 9.504-16.284 9.307-1.44 0-7.844-.148-8.937-3.862-.397-1.238-.348-3.367 2.086-3.516 1.736-.05 3.822 2.92 4.07 2.08.397-1.338.397-3.02-1.986-3.02-.743 0-2.234-.05-2.334-.25-.446-1.435.05-1.88.647-1.93.844-.098-1.044-2.426.545-2.426 1.59.05 5.71 3.22 5.958 2.673.694-1.683-.645-3.317-3.624-5.297-.15 1.188-.745 1.585-2.78.347-.994-.645-3.377-.842-2.73-3.813.247-1.336.395-3.12 1.24-2.18.744.99 2.135 1.685 3.375.546 1.094-.94 1.74-.446 2.384.396 3.177 4.01 1.936-4.704 1.39-6.982-.694-3.02-1.19.643-2.482 1.04-.795.296-1.093 1.683-1.043 2.773.148 2.624-1.59 1.287-2.037.842-1.092-1.04-1.788-1.834-2.88-1.635-1.49.298-.397 2.228-1.886 1.88-.397-3.414.297-6.93.793-9.258.2-.94 1.193-5.992 2.285-6.09 1.29-.15.694 2.773 4.568 5.793 2.88 2.228 7.744.99 9.83.248 2.63-.94.397-2.228 2.93-2.328 2.134-.1.744-1.584-.448-2.526-.844-.692-.893-2.624.695-1.93 1.39.692 3.028 2.03 2.58 1.04-.742-1.783 2.882-1.585 5.115-.546 3.625 1.733 2.085 12.38 4.07 12.13 1.043-.148.796-5.742 2.036-7.03 2.98-3.07 5.114-.89 6.107-3.07.595-1.387.794 0 3.227.644h.003z" stroke="#FFF" stroke-width=".124" fill="#FFF"/><path d="M120.702 171.502c-.546-20.846-.794-41.74-.397-62.637 3.872-1.386 7.795-2.624 11.767-3.813 30.533-8.616 62.06-12.577 93.733-14.31v-13.12c10.13-.544 20.554-.793 31.13-.793 10.624 0 21.05.246 31.227.792v13.12c2.383.1 4.717.25 7.1.397 15.092 1.04 29.937 2.623 44.88 4.85 18.073 2.972 36.194 6.735 53.52 12.875.348 19.41.15 38.82-.298 58.18l-.15 4.457c-32.27-12.428-81.42-20.748-136.28-20.748-54.81 0-103.91 8.32-136.232 20.748z" fill="#F4A428"/><path d="M308.317 284.743c.546.15 1.59.15 2.532 1.237 1.19 1.336 7.198 3.02 8.24 2.476.745-.396 1.44-.495 1.638-.396 1.44.545 22.986-36.54 32.718-42.682 9.73-6.19 17.773 9.408 16.036 17.974-.2 5.447 1.34 6.14 1.24 10.25-.148 5.743-3.027 8.615-3.524 14.26-.397 4.357-.646 7.08-1.29 8.764-1.44 3.96-4.07 2.328-5.61 3.664-1.54 1.188-.397 6.982-2.136 10.4.05 4.406.596 8.168.05 8.664-4.368 4.06-11.02 4.11-13.255 4.258-.696 2.278 0 2.873 3.823 7.378 2.134 2.525 1.837 7.13 1.092 10.3-.596 2.624-1.29 3.812-1.837 2.772-.745-1.386 2.234-1.633 1.19-3.415-.396-.645-2.93-.942-3.275-1.14-2.185-.99 3.227-.593 2.333-2.623-.595-1.337-2.283 2.18-2.98.148-.645-1.88-2.233-3.615-7.595-3.664-1.34 0-5.213-.495-8.937 1.684 2.632-.1 8.49-.99 12.165 2.524 3.624 3.566 4.517 11.34 4.567 11.933.397 4.506 3.326 18.42-2.035 29.56-1.092 2.278-16.582 11.686-20.554 14.657-2.73 2.03-3.425-4.16-8.638-8.07-3.823-2.823 7.993-.893 7.844-2.725-.497-5.546-11.818-13.022-19.066-16.042-4.17-3.763 15.29 2.524 20.803-2.377 2.433-2.18-.695-14.21-6.703-20.4-.893-.942-1.59-3.17-.496-4.605 1.886-2.525 5.213-1.684 6.8-3.862 1.193-1.585-.992-1.782 3.427-4.704-.745-1.287-2.086.892-3.972.892-2.63-.1-8.29 3.516-9.185 4.802-.348-2.92.546-4.704 5.313-7.625.894-.495 1.688-1.88 1.64-3.17-.052-.543-.796-.147-.896-.642-.198-1.09 3.476-2.476 2.78-3.517-.943-1.484-6.7 2.972-6.95 2.428-.496-1.138 6.306-4.95 9.334-9.804.944-1.436.795-2.524.447-3.12-1.092-2.028-9.68 7.033-10.227 6.438-1.24-1.535 14.597-15.152 13.554-16.34-1.093-1.287-9.185 8.17-9.582 7.675-.348-.445.993-1.485-.05-2.327-.446-.396-1.24 1.436-1.837 1.04-1.19-.744 2.63-5.498 2.085-5.992-2.284-2.08-7.596 14.013-8.737 13.22-.992-.692 6.455-15.398 7.596-17.18.348-.544-1.49-1.783-1.886-.594-1.39 4.01-6.652 14.31-7.2 15.152-.892 1.386-1.934 10.893-2.83 10.002-1.04-1.138 2.384-11.19 2.484-13.815.05-1.98.844-3.466-.448-3.614-1.49-.15-.148-4.458.248-5.746.745-2.673.944-6.93.646-8.07-.646-2.08 2.185-2.378 1.59-3.615-.35-.694-1.79-1.932-2.484-2.675v-.002z" stroke="#FFF" stroke-width=".124" fill="#FFF"/><path d="M306.085 260.38c-1.392-8.713-4.766-23.667 13.354-36.987.744-3.664 6.255-6.98 11.12-4.505 2.185-2.823 6.603-7.28 15.292-1.437 8.142-1.583 20.108 11.44 22.44 22.68.2.84.3 3.366.15 4.258 12.957-1.09 26.81 4.357 2.084 19.855-1.787-.05-1.935 2.278-5.858 1.635-1.54-.297 3.177-2.228.595-2.328-1.787-.1-.248 1.536-2.283 1.733-3.277.298-3.327-2.723-3.425-3.812-.25-3.96 7.396-2.822 6.9-6.04-.894-5.942-7-6.784-10.723-6.882-5.463-.15-7.398 3.664-6.455 6.437.944 2.773 4.667 4.555 5.958 4.555 1.44 5.546 4.916 10.696 4.42 13.617-.448 2.327 2.83 4.456 1.44 4.505-2.284.1-2.532 1.486-2.98 2.18-.694 1.04.05 1.387-.347 2.426v.05c-.497 1.336-2.234 1.188-1.837 2.277.497 1.287 2.632-1.436 4.27-.842.796.297 1.342.198 1.69.1 1.092-.347 3.127 2.228 3.375 3.267-1.687.248-1.837-.594-4.815-.644-2.433-.05-5.064.94-5.113 2.18-.1 1.188 1.092 1.782 1.54 1.93.992.347 5.708-.446 5.56.297-.745 2.724-6.257 1.485-7.497 2.08-1.39.643-1.738 2.18-1.29 2.476 2.68 1.78 2.035 4.058 3.028 4.058 1.29 0 5.51-.347 3.774.148-2.73.892-.993 3.268-2.582 3.268-7.696.1-11.52 3.96-13.803 7.873-5.61-12.33-15.936-19.41-23.383-22.777-1.142-3.416-1.887-5.2-3.476-7.575-31.774-.842-23.73-11.488-11.12-20.054h-.003z" fill="#231F20"/><path d="M304.445 107.38l-35.746-1.04-.25 10.546c8.54.247 14.647.495 23.136.742 1.142 0 2.483-2.673 2.483-1.534-.05.544-.15 7.872-.25 9.655-.05 1.04-1.39-1.437-2.383-1.437l-23.135-.743-.248 11.983c11.965.396 23.98.792 35.994 1.09 1.986.05 2.185-2.13 2.135-1.238 0 .89-.05 9.012-.1 10.1 0 .992-.15-1.088-1.737-1.484-15.59-.692-33.71-1.237-49.2-1.93.943-.89 2.58-1.733 2.58-2.624.3-12.626.546-25.648.895-38.225 0-.79-1.44-1.88-2.084-2.376 8.043.2 40.065.99 48.058 1.19 2.035.098 2.185-2.13 2.185-1.24 0 .892-.1 9.013-.1 10.103-.05 1.09-.2-1.486-2.235-1.535v-.002z" fill="#231F20"/><path d="M247.202 79.007l-7.992.296.397 11.14-4.27.2-.398-11.19-7.596.246-.05-2.08 19.81-.693.098 2.08z" fill="#231F20"/><path d="M267.41 90.198h-4.22v-5.99h-9.484v5.99h-4.32v-13.27h4.32v5.2h9.483v-5.2h4.22v13.27z" fill="#231F20"/><path d="M286.92 79.7l-11.072-.446-.15 3.12 7.945.296-.1 1.98-7.943-.296-.15 4.01 10.873.446-.05 2.03-15.193-.594.545-13.27 15.342.643-.05 2.08h.003z" fill="#231F20"/><path d="M383.434 114.906c-7.25 12.33-12.86 23.47-19.71 36.047-.148.297.546 1.485.794 2.228-4.517-.89-9.036-1.732-13.602-2.623.545-.544 1.688-1.238 1.638-1.683l-4.27-28.917c-4.618 8.27-9.582 16.983-14.15 25.302-.348.642.496 1.533.745 2.425l-13.605-2.128c.496-.693 1.638-1.338 1.54-1.93-1.787-14.26-3.425-26.045-5.263-40.256-.05-.643-.992-1.385-1.49-2.03l13.306 1.882c-.496.595-1.59 1.19-1.54 1.684l3.277 29.066c4.765-8.665 9.482-17.182 14.2-25.847.2-.396-.397-1.436-.597-2.13l13.057 2.13c-.397.495-1.29 1.238-1.24 1.733l4.22 29.46c4.517-8.862 8.885-17.477 13.404-26.39.148-.297-.845-1.386-1.143-1.88l12.263 2.375c-.496.396-1.638 1.09-1.837 1.486v-.004z" fill="#231F20"/><path d="M224.117 292.615c1.935 1.287 3.872 4.655 3.92 9.06.15 8.863.2 10.4-.545 18.074-1.39-2.625-2.63-5.448-2.83-8.42-.496-8.317.497-9.952-.545-18.715z" fill="#FFF"/><path d="M340.092 269.095c1.638-.593 3.773-.198 4.765-1.733.645-1.09-1.042-3.318.497-4.11.893-.496 4.518 1.337 4.866 2.773.397 1.534-1.638 2.823-2.136 4.01.448.595 1.59-.298 1.54 2.277 0 1.338.15 1.98-.248 2.575-.2.347-.645.793-.645 1.882.05 1.435.994 1.385 1.34 2.524.35 1.04.398 1.93-.247 1.98-3.872.2-3.475-1.287-8.39-6.882-1.54-1.733-1.142-2.524-1.34-5.298z" fill="#FFF"/><path d="M344.61 260.034c.696 1.19 1.59.446 3.376 1.287.745.348 2.234 1.734 2.53 3.467-1.34-1.138-3.077-2.575-5.063-2.427-.944.1-1.688-1.93-.844-2.327z" fill="#FFF"/><path d="M365.91 259.836c.545-.347 1.04-.2 1.836.198 1.093.544.845 1.04.15 1.437-.35.2-.845.2-1.39-.1-.647-.346-1.142-1.188-.597-1.533z" stroke="#FFF" stroke-width=".124" fill="#FFF"/><path d="M362.98 276.127c.793.247.893.89.744 1.534-.545.15-.944.15-1.44 0-.05-1.138.595-.69.694-1.533h.002z" fill="#231F20"/><path d="M365.462 230.276c3.425 5.15 4.617 8.665 4.915 14.16-1.092 0-.793-.098-1.935-.048.15-.89.05-3.417-.15-4.26-1.985-9.604-10.92-20.4-18.567-22.48 6.305.447 11.915 6.884 15.738 12.627z" fill="#FFF"/><path d="M375.192 244.437c5.213.297 10.178 2.03 10.426 5.595.248 3.663-8.39 10.595-13.455 13.468-.546.347-1.042.495-1.44.595 20.107-12.627 14.348-18.568 4.468-19.658h.002z" stroke="#FFF" stroke-width=".124" fill="#FFF"/><path d="M360.795 280.236c.347-.1.645-.05.793.05.05.297.05 2.178-.1 2.724-.247.1-.545.05-.693-.1-.15-.89-.2-2.03 0-2.673z" fill="#231F20"/><path d="M316.36 288.258c.845.198 1.59.296 2.136.296-.993 1.733-2.83 4.506-3.723 7.527-1.042 3.417-1.638 6.388-4.02 8.07-.15-6.287 1.09-8.168 1.04-12.527 1.093-.593 3.03-1.93 4.57-3.367l-.003.002z" fill="#231F20"/><path d="M203.165 346.24c7.895.594 10.426 3.96 11.718 5.446 1.192 1.337.993 11.488-1.34 15.895-2.035 3.814-5.064 2.576-5.56 7.578-.546 0-1.936-.447-2.086.148-.1.643 1.192 2.278.3 2.228-1.838-.1-6.258-2.277-6.952-2.772-1.192-.793 1.24-1.238.596-3.665-2.532-9.408 1.043-17.975 3.327-24.857h-.002z" fill="#FFF"/><path d="M188.57 242.655c.843.296 1.588 2.723.446 5.546-1.192 2.823-1.69 4.556-3.078 4.06-1.44-.543-1.192-2.227-.796-5.247.348-3.02 2.582-4.704 3.425-4.357h.002z" fill="#FFF"/><path d="M192.84 374.414c5.112.99 11.566 3.465 15.39 6.386-2.83-.05-7.944.644-9.036-.247-1.787-1.536-4.965-3.07-6.355-6.14z" fill="#FFF"/><path d="M209.967 381.395c1.29-2.377 8.837-.792 13.305 2.13 2.88 1.88 6.058 1.287 5.81 5.89-4.47.596-2.68-.94-3.824-1.137-.942-.15-.993 1.188-1.49.89-.446-.247.2-1.436-1.985-2.276-1.34-.544-2.482-.792-4.12-.544-.15-1.387-2.086-1.734-3.376-1.734.397-3.02-5.858-.495-4.32-3.218z" fill="#FFF"/><path d="M173.328 275.038c1.042 0 1.886.842 1.638 1.98-.297 1.188-.893 1.98-1.787 2.278-.845.347-1.79-.743-1.79-2.08 0-1.336.896-2.178 1.938-2.178z" fill="#231F20"/><path d="M194.428 274.79c.993-.942 2.334 1.683 2.73 2.822.348.99.348 1.783-.992 2.823-.894.742-.845.296-.646-1.04.1-.692-.05-1.535-.496-1.733-1.19-.495-1.54-1.93-.596-2.87v-.003z" fill="#231F20"/><path d="M269.444 208.638c1.937.148 3.425.495 3.425.89 0 .447-1.59 1.14-3.525 1.387-1.986.248-3.575.297-3.575-.842 0-1.09 1.688-1.585 3.674-1.436z" fill="#FFF"/><path d="M263.537 231.216c.248-.446 2.084-.347 2.283 1.684-.397 0-1.24.2-1.29-.1-.25-.84-1.34-.94-.993-1.584z" stroke="#231F20" stroke-width=".124" fill="#231F20"/><path d="M270.09 242.21c.745-.547 2.135-.596 2.235.295.248 1.733-.298 1.287-.894.793-.445-.446-1.985-.643-1.338-1.09h-.002z" stroke="#231F20" stroke-width=".124" fill="#231F20"/><path d="M198.945 269.937c.446 0 1.738.297 1.787 1.93 0 1.585-.596 3.467-.993 3.416-.994-.198.396-2.922-.795-5.347z" fill="#231F20"/><path d="M229.926 337.475c.545 10.893 4.765 16.19 6.602 24.114 2.035.494 4.666-.348 6.405 1.88-6.008-1.238-6.106.743-8.937.248-3.028-.593-1.936-2.228.744-2.13-2.134-7.922-8.985-18.716-4.814-24.113z" fill="#FFF"/><path d="M274.21 215.62c.447-.595.844-.1 1.39.346.744.594 2.085 2.277 1.39 1.733-.943-.744-2.93-1.882-2.78-2.08z" fill="#FFF"/><path d="M214.832 291.23c2.334 1.83 4.42 9.704 4.17 14.06-.396 5.795.25 15.103.746 16.985.743 3.168 1.042 5.298 1.142 7.872-3.028-.248-3.972-7.626-3.675-16.34.3-7.972-.496-12.972-2.383-22.578z" fill="#FFF"/><path d="M201.23 289.396c3.078-1.04 3.425 6.388 8.54 11.537 1.14.445-1.19-12.675 2.432-12.13 0 6.09-.545 10.645-.795 16.388-.148 3.863 2.285 9.557.745 12.875-2.68-12.23-3.624-21.093-10.922-28.67z" fill="#FFF"/><path d="M205.2 333.168c.647-1.04 3.724 2.97 4.27 2.13 1.043-1.635 1.987-.446 4.072 2.524 8.092 11.34 2.084 6.14 2.63 7.427.547 1.435.695 2.424.695 3.613-2.63-3.813-7.595-12.28-10.723-12.082-.893-.792-1.886-1.98-.944-3.613z" fill="#FFF"/><path d="M197.903 324.7c.596 1.882 1.34 2.228 2.086 3.764-.746-1.98-.3-2.823-.746-3.764-.297-.643-.893-.1-1.34 0z" fill="#FFF"/><path d="M201.378 330.296c.15-.15.596.495.993.94.35.447.696.793.547.99-.2.15-.645-.1-1.043-.543-.348-.447-.695-1.188-.497-1.387z" fill="#FFF"/><path d="M290.843 318.462c1.786 2.922 2.88 2.427 2.78.692-.05-1.138 1.29-.594 2.433-.594 0 .545-.497 3.267-.15 3.565.695.644.945-2.525 1.69-1.287.396.644-1.142.842-1.19 3.12 0 1.188 1.14 3.12-1.54 3.96 1.29.545 2.78 1.388 2.184 2.23-.546.792-1.44 1.088-.795 2.872-2.383.198-4.965-.2-6.156-1.585 0-2.327.794-4.952-.05-7.13-1.34-3.318.743-2.527.794-5.843z" fill="#FFF"/><path d="M239.656 303.707c1.738-.89 6.157 8.417 7.496 12.972.893-4.655 1.54-3.567 2.98-1.04 2.878.643 3.077 4.307 3.574 9.853.447 5.546-.695 29.51-2.78 37.384 0 0-.944-2.427-.248-6.24.646-3.663 2.085-8.616.844-10.05-2.482-2.873-1.936 1.237-2.928 1.732-1.093.494-.397 11.734-.397 13.32.05 1.138-1.788 1.633-2.086.395-.744-3.07-1.14-10.25-2.184-13.667-3.276-10.942-3.772-12.23-2.433-12.725 2.085-.792.3-2.23-.595-2.872-1.49-1.138.546-3.812.2-4.752-.647-1.634-2.434-2.872-.2-6.882.993-1.733-.05 3.614 1.19 7.675.597-5 1.392-4.16 2.036-8.863.745-5.546-5.858-15.597-4.468-16.24z" stroke="#FFF" stroke-width=".124" fill="#FFF"/><path d="M246.26 363.273c3.425 0 3.773 1.93 7.197 1.733 3.476-.148 16.185 2.228 19.61 2.427 3.476-.05 1.64 1.93-.396 1.782-2.88-.644-2.532.793-3.325.742-1.242-.148-2.185-1.138-3.624-1.09-2.88.1-2.93 2.377-8.39-.84-2.682-1.635-6.85-2.278-10.13-2.674-2.382 0-3.077-2.08-.943-2.08h.002z" stroke="#FFF" stroke-width=".124" fill="#FFF"/><path d="M203.613 308.56c.297-.25 1.19.246 1.935 1.237.696.99.795 2.674.596 2.674-.2 0-.795-.692-1.39-1.78-.545-1.09-1.49-1.882-1.14-2.13z" fill="#FFF"/><path d="M206.69 318.66c.35-.198.597.594 1.242 1.14.645.592.894 1.038.944 1.584.05.544-.844.495-1.59-.446-.744-.942-.892-2.03-.595-2.278z" fill="#FFF"/><path d="M209.52 323.513c.35-.2 1.143 1.337 1.688 2.475.546 1.09.795 2.525.448 2.525-.348-.05-.647-.842-1.042-1.98-.397-1.14-1.44-2.872-1.093-3.02z" fill="#FFF"/><path d="M172.93 108.072c.646.15 1.887-.89 2.93-1.337l-4.716 11.586c-.496-.643-.596-2.475-1.092-2.672-2.93-1.14-10.724-2.774-18.47-.495-13.453 3.912-19.162 11.29-17.028 20.3 2.136 9.013 13.553 12.43 26.264 9.26 9.78-2.426 14.745-8.813 15.292-9.556.248-.396-.348-2.327-.546-3.417.745.595 8.043 6.09 9.83 7.527-.795 0-2.73.198-3.178.643-4.517 4.507-9.93 9.06-19.908 11.39-20.652 4.85-34.752-1.14-37.384-13.667-2.58-12.28 6.107-23.668 25.717-29.115 8.492-2.376 20.704-.94 22.293-.446h-.002z" fill="#231F20"/><path d="M244.968 139.664c.397.347 1.838 1.485 2.98 2.03-1.093.1-15.64 1.286-16.683 1.386.546-.842 1.738-1.585 1.192-2.08-6.355-6.09-9.085-9.16-15.787-14.904-1.986.297-11.072.694-14.2.99l1.392 16.54c.05.395 1.24 1.286 1.886 1.88l-13.8 1.19c.544-.644 1.637-2.03 1.637-2.377-.944-12.58-1.837-24.957-2.93-37.484-.1-.842-2.134-2.08-3.178-3.12 1.44-.1 23.186-2.475 29.243-2.87 18.618-1.288 24.972 2.673 25.717 11.19.545 6.733-5.81 10.794-13.454 12.874 7.1 6.437 8.837 8.12 15.987 14.755h-.002zm-43.688-30.5l.645 11.14c2.383-.098 9.433-.593 10.674-.642 10.922-.743 20.454-2.476 19.61-7.675-1.092-6.784-10.178-4.308-21.845-3.515-1.39.1-7.595.446-9.085.692z" fill="#231F20"/><path d="M205.002 259.54c-.446-.2-.943-.298-1.34-.298.15-2.277.15-4.852.25-7.774.646-13.12-4.57-22.827-12.114-26.39-2.085-.99-3.376-2.576-4.32-4.01l-.645-.942c4.27 6.09 9.682 4.654 14.348 13.616 4.52 8.665 4.17 16.34 3.824 25.798h-.002z" fill="#FFF"/><path d="M291.587 204.33c-.2-.05-.447-.1-.646-.2.448-7.178.896-15.695-5.708-23.122-3.972-4.507-7.398-6.388-9.78-11.587v-1.09c.794 3.863 7.346 9.508 11.12 13.27 5.463 5.447 6.454 17.232 5.015 22.73z" fill="#FFF"/></g></svg>