<svg width="512" height="512" viewBox="0 0 512 512" xmlns="http://www.w3.org/2000/svg"><title>dc-united</title><g fill="none" fill-rule="evenodd"><path d="M386.59 287.235c0 103.98-107.222 117.503-107.222 117.503l-23.03 32.357-23.02-32.357S126.1 391.216 126.1 287.235l7.89-119.993-9.86-76.23s24.357-13.56 132.208-13.56c107.85 0 132.215 13.56 132.215 13.56l-9.857 76.23 7.895 119.993" fill="#FFF"/><path d="M355.126 146.735l4.892-44.668c.572-5.166-.47-5.765-3.397-6.156l-5.922 54.14c3.065.346 4.154-.807 4.43-3.314m-191.41-.796l-5.856-44.55c-.677-5.157-1.823-5.48-4.767-5.172l7.102 53.997c3.06-.397 3.847-1.772 3.52-4.274" fill="#FFF"/><path d="M237.69 152.162l18.65 12.83 18.664-12.83c67.715 0 91.998 6.134 97.788 7.996l8.376-64.74c-10.553-3.384-43.642-11.205-124.83-11.205-81.183 0-114.265 7.823-124.83 11.206l8.382 64.737c5.814-1.862 30.08-7.996 97.8-7.996zm102.733-3.242l2.425.274 5.933-54.15-2.43-.263.136-1.26 8.61.95c8.107.89 12.795 4.183 10.918 26.574l-.952 8.7c-1.2 10.964-4.162 22.7-13.353 21.69l-11.42-1.25.134-1.262zm-27.18-2.312l2.437.2 4.503-54.282-2.425-.196.1-1.26 21.816 1.81-1.786 21.525-.83-.064c-.87-15.81-1.653-20.544-5.68-20.883l-3.32-.27-2.156 25.92c3.33-.433 5.138-2.813 6.442-13.222l.91.074-2.417 29.06-.703-.06c-.038-10.444-.717-13.903-4.344-14.596l-2.23 27.1 1.914.168c3.33.276 4.876-.55 7.388-9.042 1.882-6.41 2.45-8.653 3.05-11.926l.95.08-1.89 22.937-21.833-1.81.102-1.263v.002zm-24.24-57.138l23.27 1.216-1.276 24.333-.885-.055c-1.26-16.643-2.946-23.36-5.46-23.572l-.13-.005-2.847 54.55 2.69.14-.068 1.262-13.268-.704.066-1.253 2.69.148 2.85-54.56-.123-.006c-2.505-.047-4.915 6.452-7.885 22.868l-.904-.042 1.28-24.322-.003.002zm-20.837 55.277l2.826.06.953-54.475-2.828-.047.02-1.26 13.545.238-.032 1.26-2.82-.048-.935 54.45 3.01.06-.02 1.263-13.746-.237.025-1.262zm-26.778.038c2.373-.47 3.473-1.98 3.473-5.526V90.305h-2.583v-1.26h10.607c2.483 13.244 5.57 26.254 7.568 39.655h.13V94.96c0-3.543-1.214-4.49-3.084-4.654v-1.26h7.394v1.26c-1.675.085-3.023 1.58-3.023 4.342v51.4h-5.53l-10.02-52.665c-.064-.08-.122 0-.19 0v46.033c0 4.263 1.484 5.453 3.29 5.368v1.264h-8.03v-1.265zm-14.13-55.907l.04 1.26-2.447.09 1.805 51.29c.07 2.284.622 3.458 3.392 3.353 2.562-.083 5.226-2.94 4.946-10.9l-1.405-40.34c-.1-2.914-1.417-3.65-3.398-3.586l-.043-1.26 7.24-.26.052 1.265c-1.74.22-2.607 1.036-2.506 3.796l1.385 39.628c.36 10.397-3.13 13.37-8.78 13.554-5.06.18-8.703-2.697-8.983-11.042l-1.6-45.224-2.49.097-.053-1.264 12.842-.456zm-21.05 48.165c1.92-.123 3.615 2.306 3.774 4.98.17 2.588-.96 5.194-3.15 5.322-2.167.137-3.677-2.306-3.836-4.892-.148-2.675 1.216-5.288 3.214-5.41h-.002zM188.585 90.2c2.764-.168 4.35 1.472 5.486 4.396l2.55-4.733.644-.032 1.427 23.37-.887.055c-3.97-19.663-6.173-21.742-8.408-21.6-1.157.065-1.45 1.667-1.385 2.693l2.89 47.207c.238 4.087 1.158 5.294 2.892 5.188 3.784-.222 6.024-7.63 4.8-22.56l.945-.06c1.142 14.306-.2 24.017-6.537 24.403-7.166.45-10.332-9.943-11.172-23.873l-.634-10.308C180 94.755 184.566 90.45 188.588 90.2h-.003zm-12.845 49.192c1.913-.25 3.763 2.052 4.117 4.712.333 2.576-.608 5.247-2.77 5.532-2.167.28-3.832-2.04-4.17-4.617-.353-2.673.857-5.37 2.823-5.63zm-24.457-44.207c8.08-1.064 13.402 1.01 16.917 23.212l1.136 8.683c1.437 10.943 1.337 23.038-7.82 24.243l-11.4 1.502-.17-1.26 2.42-.306-7.1-54.01-2.41.32-.16-1.25 8.59-1.138-.003.002z" fill="#FFF"/><path d="M277.1 158.93l-20.758 14.264-20.77-14.264c-73.287 0-94.785 8.092-94.785 8.092l-7.927 120.365c0 100.202 104.242 111.02 104.242 111.02l19.243 27.04 19.242-27.04s104.243-10.815 104.243-111.02l-7.918-120.365s-21.508-8.092-94.806-8.092h-.005zm-42.537 3.385l21.784 14.978 21.804-14.978c41.19.042 65.74 2.693 79.088 4.903l-2.83 1.883c-11.718 7.808-23.75 12.885-34.368 17.353-20.126 8.478-37.5 15.793-37.5 37.36 0 6.103 2.03 9.98 3.998 13.708 2.267 4.32 4.617 8.786 4.617 18.025 0 6.742-1.018 9.915-10.3 9.915-4.243 0-7.61-2.973-7.61-6.61 0-3.64 3.975-5.458 9.61-5.897 0 0-6.924-3.03-6.924-4.252 0-1.29 5.023-2.59 5.023-2.59s-5.11-3.04-5.11-4.685c0 0 2.08-2.49 1.447-7.356-13.96 1.56-16.26-.624-24.14-.624-5.29 0-8.234 3.464-8.234 3.464s-2.69-.51-4.496-.51c-10.585 0-10.924 10.23-10.924 14.47 0 4.257.43 6.85.43 6.85 1.732-2.59 3.99-5.713 7.878-5.713 3.9 0 6.94.603 6.94 5.976 0 5.374-5.888 7.478-12.917 7.478-9.27 0-10.29-3.17-10.29-9.914 0-9.24 2.353-13.703 4.62-18.024 1.97-3.727 4.01-7.603 4.01-13.707 0-21.567-17.375-28.88-37.515-37.36-10.602-4.47-22.63-9.545-34.356-17.35l-2.822-1.884c13.35-2.21 37.887-4.86 79.09-4.902v-.002zm116.54 46.474s.12 5.233.12 15.38c0 44.666-32.895 29.265-36.368 58.734 10.37-15.82 26.742-17.126 31.692-27.628 9.087 50.564-38.333 58.222-57.163 63.65-4.794 1.527-8.546 4-7.044 9.117l11.347 38.96-23.91-15.284-13.428 66.277-13.426-66.278-23.902 15.284 11.352-38.96c1.47-5.115-2.273-7.59-7.05-9.12-18.845-5.426-66.244-13.084-57.16-63.648 4.94 10.504 21.31 11.81 31.662 27.628-3.473-29.47-36.365-14.068-36.365-58.736 0-10.146.144-15.38.144-15.38 4.302 16.294 25.092 15.637 36.354 34.9-2.257-35.133-38.98-15.36-41.54-71.773 34.446 22.958 70.36 22.254 70.36 51.898 0 11.804-8.623 13.518-8.623 31.73 0 8.156 2.07 13.292 13.672 13.292 8.924 0 16.43-2.85 16.43-11.245 0-4.425-2.443-8.846-9.645-8.846-5.01 0-5.755 1.476-5.755 1.476-.62-4.327 1.337-10.382 7.18-10.382 2.808 0 6.242 1.137 6.242 1.137.59 0 .802-.286.802-.75 0-1.164 1.96-3.333 6.658-3.333 5.238 0 10.825 1.962 20.14.93.497 1.47-2.188 1.237-2.188 3.575 0 2.025 3.118 4.072 3.118 4.072s-3.086 1.353-3.086 3.11c0 1.934 2.907 3.43 2.907 3.43s-4.75 1.1-4.75 6.813c0 6.635 6.536 10.01 10.976 10.01 11.605 0 13.682-5.135 13.682-13.29 0-18.213-8.62-19.927-8.62-31.73 0-29.644 35.93-28.94 70.357-51.9-2.543 56.415-39.288 36.64-41.53 71.773 11.252-19.262 32.054-18.606 36.356-34.9h-.003zM238.983 395.21s-102.74-9.7-102.74-107.826c.015 0 6.68-101.24 7.762-117.793 1.686-.46 4.56-1.158 8.837-1.925l.196 4.4c.523 11.31 2.436 19.768 5.14 26.28l-.09 25.82c0 11.903 2.242 19.89 5.625 25.612l-.877 4.897c-8.905 49.368 33.774 60.65 54.273 66.08l5.27 1.433c5.642 1.777 5.124 3.564 4.743 4.902l-13.856 47.613 27.332-17.49 11.377 56.273-12.994-18.277zm34.738 0l-13 18.278 11.395-56.27 27.323 17.488-13.85-47.613c-.377-1.338-.9-3.125 4.734-4.902l5.28-1.433c20.483-5.433 63.186-16.712 54.274-66.08 0 0-.453-2.45-.893-4.898 3.383-5.722 5.64-13.71 5.64-25.613l-.098-25.82c2.718-6.513 4.62-14.968 5.134-26.28l.187-4.4c4.288.765 7.162 1.463 8.87 1.923 1.073 16.553 7.732 117.793 7.742 117.793 0 98.126-102.736 107.826-102.736 107.826z" fill="#FFF"/><path d="M249.867 298.346c.64-.238 1.29-.45 1.934-.613l4.54-13.357 4.547 13.357c.65.163 1.305.374 1.923.613l-6.47-19.007-6.473 19.005m21.373 6.558h13.535l-10.39 8.034c.085.647.138 1.29.164 1.947l15.007-11.597h-19.59c.444.513.89 1.047 1.273 1.62m-32.942 8.027l-10.394-8.033h13.534c.407-.57.83-1.097 1.3-1.612h-19.602l15.01 11.593c.02-.655.073-1.3.152-1.946m32.065 14.086l3.515 11.673-9.75-6.84c-.605.27-1.206.518-1.823.73l14.52 10.14-5.237-17.38c-.378.583-.788 1.14-1.226 1.677m-31.56 11.673l3.527-11.673c-.446-.538-.864-1.094-1.23-1.676l-5.246 17.378 14.513-10.138c-.608-.21-1.205-.456-1.786-.73l-9.776 6.84h-.002m33.986-23.32c0-4.046-1.452-7.748-3.88-10.61-1.378-.1-2.07-.09-3.265 1.004.607 1.697.502 5.39.502 5.39-.396-4.295-1.506-5.596-1.506-5.596s-3.3-3.205-7.3-2.793l-.1-3.825c-.29-.02-.593-.032-.9-.032-8.7 0-15.812 6.743-16.414 15.29.815-.434 1.533-1.027 1.533-1.027.586-5.108 3.6-7.018 3.6-7.018l.337-2.794.3 2.704c3.24-.107 4.947.29 4.947.29 2.542-1.65 4.946-2.995 4.946-2.995-2.245 1.397-4.638 3.306-4.638 3.306-.15 3.45 1.04 7.05 1.04 7.05-4.19 2.242-4.645 2.242-6.146 4.19-.296 2.7.45 5.7.45 5.7-1.205-2.396-1.037-5.395-1.037-5.395-1.957-1.645-3.607-4.496-3.607-4.496-.507.37-1.442.92-1.744 1.093l-.016.556c0 4.442 1.76 8.47 4.613 11.44l2.045-2.044c2.495 2.402 6.495 3.893 7.394 3.503.845-.234 2.886-1.18 4.186-2.148-1.972 1.725-3.99 2.85-3.99 2.85.152.306.254 2.042.28 2.75.64.07 1.28.107 1.92.107 9.093 0 16.445-7.367 16.445-16.46m-5.444 11.8c-.2-2.4-.712-3.597-.712-3.597-2.986 1.094-4.792 1.094-6.59.994 1.1-2.798.2-6.8.2-6.8-2.9-1.107-6.603-2.412-6.895-3.195 2.4 1.09 6.205 2.792 7.59 2.195 2.11-.804 5.21-4.3 5.21-4.3.9 1 2.81 2.496 3.594 4.797 1.49-.397 2.26-.894 2.925-1.894-.32 1.498-2.926 2.493-2.926 2.493-.19 1.712-.79 4.21-2.1 5.204-.1.703-.294 4.103-.294 4.103m-14.476-68.543c0 5.01-3.764 8.362-3.764 8.362s3.345-1.763 5.496 1.235c0 0 1.618-2.772 5.247-2.772 3.513 0 4.686 2.772 4.686 2.772s1.353-2.523 4.614-1.544c0 0-7.677-6.3.042-14.42 0 0-3.778-3.42.38-6.42 0 0-2.458-1.28-.724-4.307-4.413 1.83-9.587-1.46-13.704-1.46-4.423 0-4.99 2.772-4.99 2.772s1.713 1.444 3.822 1.444c1.882 0 4.97-1.37 4.97-1.37.25 1.432-1.002 4.436-4.326 4.436-2.78 0-4.017-2.03-6.79-3.458-1.508-.768-3.452-1.366-6.338-1.366-5.126 0-5.586 2.835-5.872 4.908 0 0 1.105-.936 3.44-.936 8.652 0 13.805 4.776 13.805 12.12" fill="#FFF"/><path d="M334.958 393.158h2.547v7.69h.92v-7.69h2.678v-.91h-6.145v.91m11.052 6.082l-2.206-6.99h-1.483v8.6h.93v-7.31l2.294 7.31h.927l2.31-7.31v7.31h.91v-8.6h-1.477l-2.203 6.99" fill="#231F1F"/><path d="M271.24 304.903c1.648 2.326 2.75 5.06 3.145 8.034l10.388-8.034H271.24m-19.438-7.17c1.453-.38 2.975-.598 4.54-.598 1.58 0 3.09.217 4.545.598l-4.545-13.357-4.54 13.357m-23.898 7.17l10.394 8.034c.407-2.973 1.507-5.708 3.14-8.034h-13.534m14.426 22.117l-3.527 11.673 9.778-6.84c-2.42-1.146-4.565-2.797-6.25-4.833m21.797 4.832l9.75 6.838-3.514-11.673c-1.685 2.037-3.832 3.69-6.236 4.835" fill="#FABD13"/><path d="M368.706 169.59c-1.707-.46-4.583-1.157-8.87-1.923l-.19 4.4c-.51 11.317-2.414 19.768-5.13 26.28l.095 25.82c0 11.91-2.254 19.894-5.636 25.612.438 2.447.893 4.895.893 4.895 8.91 49.37-33.79 60.65-54.274 66.08l-5.28 1.434c-5.633 1.776-5.11 3.563-4.734 4.9l13.85 47.615-27.327-17.49-11.388 56.272 13-18.278s102.735-9.7 102.735-107.827c-.016 0-6.67-101.24-7.743-117.793m-176.064 16.86c20.14 8.483 37.517 15.792 37.517 37.365 0 6.103-2.04 9.974-4.012 13.708-2.267 4.315-4.613 8.78-4.613 18.023 0 6.737 1.014 9.915 10.29 9.915 7.023 0 12.915-2.107 12.915-7.473 0-5.375-3.044-5.977-6.944-5.977-3.89 0-6.14 3.114-7.88 5.705 0 0-.428-2.59-.428-6.85 0-4.24.34-14.468 10.923-14.468 1.814 0 4.5.512 4.5.512s2.943-3.47 8.232-3.47c7.88 0 10.18 2.182 24.14.622.642 4.87-1.446 7.36-1.446 7.36 0 1.64 5.11 4.682 5.11 4.682s-5.02 1.3-5.02 2.596c0 1.218 6.92 4.253 6.92 4.253-5.627.433-9.605 2.253-9.605 5.89 0 3.644 3.365 6.616 7.61 6.616 9.28 0 10.305-3.18 10.305-9.917 0-9.245-2.36-13.71-4.623-18.024-1.966-3.735-4-7.606-4-13.71 0-21.572 17.376-28.88 37.5-37.364 10.616-4.464 22.65-9.546 34.367-17.352l2.833-1.882c-13.348-2.21-37.896-4.86-79.082-4.898l-21.81 14.972-21.782-14.972c-41.205.038-65.742 2.687-79.09 4.898l2.827 1.882c11.72 7.806 23.75 12.89 34.35 17.352m20.617 188.26l13.85-47.612c.38-1.34.904-3.126-4.744-4.903l-5.27-1.43c-20.5-5.432-63.174-16.714-54.27-66.082l.878-4.897c-3.383-5.717-5.624-13.702-5.624-25.612l.09-25.82c-2.705-6.51-4.618-14.962-5.14-26.28l-.197-4.4c-4.28.767-7.15 1.466-8.84 1.925-1.084 16.554-7.748 117.795-7.76 117.795 0 98.125 102.742 107.826 102.742 107.826l12.994 18.278-11.38-56.273-27.328 17.49h.002m40.716-130.42c-2.108 0-3.826-1.44-3.826-1.44-1.125.878-1.913 1.047-2.32 1.053 2.77 1.427 4.006 3.453 6.792 3.453 3.324 0 4.577-3.005 4.32-4.438 0 0-3.084 1.37-4.966 1.37" fill="#ED1C24"/><path d="M388.553 91.008s-24.362-13.56-132.214-13.56-132.21 13.56-132.21 13.56l9.86 76.23-7.89 119.995c0 103.98 107.218 117.508 107.218 117.508l23.02 32.353 23.03-32.35s107.224-13.53 107.224-117.51l-7.897-119.993 9.856-76.232zm-257.044 4.41c10.562-3.384 43.645-11.205 124.83-11.205 81.19 0 114.275 7.823 124.827 11.206l-8.376 64.737c-5.79-1.857-30.072-7.996-97.787-7.996l-18.665 12.83-18.65-12.83c-67.72 0-91.986 6.14-97.8 7.997l-8.38-64.74zm248.31 191.965c0 100.207-104.236 111.022-104.236 111.022l-19.247 27.042-19.243-27.042s-104.24-10.815-104.24-111.023l7.927-120.36s21.5-8.092 94.79-8.092l20.767 14.258 20.76-14.258c73.3 0 94.807 8.092 94.807 8.092l7.916 120.36h.002z" fill="#231F1F"/><path d="M285.912 223.813c0 11.805 8.625 13.518 8.625 31.732 0 8.154-2.083 13.29-13.688 13.29-4.436 0-10.97-3.374-10.97-10.01 0-5.718 4.743-6.812 4.743-6.812s-2.907-1.503-2.907-3.432c0-1.755 3.085-3.11 3.085-3.11s-3.11-2.05-3.11-4.07c0-2.343 2.683-2.11 2.182-3.576-9.31 1.03-14.905-.936-20.135-.936-4.698 0-6.664 2.17-6.664 3.336 0 .466-.21.752-.798.752 0 0-3.44-1.138-6.246-1.138-5.846 0-7.8 6.05-7.178 10.376 0 0 .745-1.476 5.75-1.476 7.203 0 9.65 4.427 9.65 8.848 0 8.393-7.506 11.25-16.43 11.25-11.602 0-13.68-5.137-13.68-13.29 0-18.215 8.63-19.93 8.63-31.733 0-29.648-35.914-28.945-70.36-51.898 2.553 56.414 39.28 36.64 41.533 71.772-11.262-19.26-32.047-18.61-36.348-34.9 0 0-.143 5.236-.143 15.374 0 44.675 32.892 29.274 36.365 58.743-10.36-15.82-26.72-17.125-31.66-27.633-9.087 50.564 38.312 58.227 57.152 63.653 4.782 1.523 8.518 4.003 7.055 9.112l-11.358 38.967 23.902-15.285 13.423 66.278 13.435-66.278 23.902 15.285-11.348-38.967c-1.494-5.108 2.258-7.59 7.046-9.112 18.834-5.426 66.252-13.09 57.165-63.654-4.946 10.506-21.32 11.812-31.686 27.63 3.463-29.47 36.36-14.067 36.36-58.74 0-10.14-.116-15.375-.116-15.375-4.302 16.29-25.108 15.638-36.353 34.9 2.24-35.132 38.98-15.358 41.528-71.772-34.432 22.953-70.363 22.25-70.363 51.898h.005zm-31.77 105.158s2.018-1.12 3.99-2.85c-1.306.97-3.34 1.916-4.186 2.148-.903.397-4.905-1.1-7.394-3.503l-2.045 2.042c-2.854-2.96-4.62-6.99-4.62-11.44l.022-.554c.3-.177 1.234-.72 1.742-1.096 0 0 1.648 2.852 3.6 4.497 0 0-.165 3 1.04 5.4 0 0-.745-3-.45-5.7 1.496-1.953 1.955-1.953 6.14-4.197 0 0-1.183-3.6-1.036-7.048 0 0 2.394-1.91 4.64-3.307 0 0-2.404 1.343-4.946 3 0 0-1.706-.402-4.945-.295l-.3-2.703-.345 2.792s-3.007 1.91-3.6 7.02c0 0-.713.594-1.527 1.03.602-8.55 7.71-15.295 16.41-15.295.31 0 .607.016.898.038l.103 3.82c4.005-.408 7.297 2.79 7.297 2.79s1.11 1.302 1.51 5.602c0 0 .1-3.692-.502-5.394 1.19-1.093 1.885-1.106 3.26-1.006 2.425 2.866 3.885 6.565 3.885 10.61 0 9.09-7.35 16.46-16.45 16.46-.635 0-1.275-.033-1.914-.107-.034-.704-.128-2.438-.28-2.75v-.002zm6.734-31.236c-1.453-.38-2.964-.598-4.545-.598-1.562 0-3.08.217-4.54.598-.643.163-1.287.37-1.932.613l6.474-19.007 6.47 19.006c-.62-.243-1.27-.45-1.924-.613zm-21.816-51.227c-2.336 0-3.445.936-3.445.936.286-2.073.75-4.908 5.877-4.908 2.88 0 4.826.597 6.337 1.365.404-.007 1.192-.17 2.317-1.054 0 0 .57-2.77 4.99-2.77 4.122 0 9.29 3.283 13.707 1.458-1.735 3.026.72 4.306.72 4.306-4.154 3-.374 6.42-.374 6.42-7.726 8.124-.046 14.422-.046 14.422-3.26-.98-4.614 1.544-4.614 1.544s-1.175-2.772-4.688-2.772c-3.625 0-5.243 2.772-5.243 2.772-2.158-3-5.497-1.237-5.497-1.237s3.757-3.355 3.757-8.364c0-7.346-5.152-12.12-13.797-12.12h-.003zm-15.93 56.78h19.6c-.47.51-.887 1.045-1.293 1.617-1.64 2.326-2.732 5.06-3.144 8.034-.08.647-.132 1.29-.153 1.947l-15.01-11.597v-.002zm12.714 39.436l5.253-17.378c.365.582.782 1.138 1.226 1.676 1.686 2.037 3.832 3.688 6.252 4.835.576.27 1.178.517 1.786.723l-14.515 10.145zm26.45-10.145c.623-.206 1.222-.454 1.83-.723 2.403-1.147 4.548-2.798 6.235-4.834.437-.537.843-1.093 1.225-1.675l5.237 17.378-14.526-10.145h-.003zm12.25-17.695c-.027-.655-.086-1.3-.164-1.946-.4-2.973-1.5-5.707-3.144-8.033-.384-.572-.83-1.106-1.274-1.618h19.584l-15.002 11.596v.002z" fill="#231F1F"/><path d="M260.042 324.57c1.79.098 3.603.098 6.59-.996 0 0 .512 1.196.712 3.596 0 0 .197-3.4.296-4.103 1.312-.995 1.907-3.492 2.1-5.204 0 0 2.605-.995 2.926-2.492-.666 1-1.437 1.5-2.927 1.896-.79-2.3-2.696-3.798-3.596-4.792 0 0-3.102 3.49-5.212 4.295-1.383.596-5.188-1.1-7.588-2.196.29.783 3.994 2.088 6.897 3.195 0 0 .9 4-.2 6.8M145.263 97.25l7.103 54.01-2.426.306.173 1.26 11.4-1.503c9.158-1.205 9.254-13.302 7.82-24.243l-1.136-8.683c-3.514-22.207-8.84-24.274-16.917-23.218l-8.59 1.135.162 1.254 2.41-.32zm12.6 4.137l5.855 44.557c.327 2.497-.46 3.87-3.52 4.274l-7.102-53.998c2.944-.312 4.09.012 4.767 5.167zm19.22 48.246c2.168-.29 3.104-2.956 2.77-5.53-.353-2.662-2.203-4.962-4.116-4.714-1.966.26-3.17 2.954-2.822 5.626.34 2.575 2.008 4.897 4.17 4.616m4.74-24.982c.844 13.93 4.01 24.324 11.17 23.874 6.342-.386 7.68-10.096 6.543-24.402l-.95.058c1.23 14.93-1.016 22.34-4.8 22.56-1.733.107-2.648-1.104-2.886-5.188l-2.894-47.212c-.064-1.026.233-2.622 1.39-2.686 2.23-.143 4.435 1.935 8.408 21.6l.888-.06-1.425-23.365-.65.03-2.543 4.734c-1.136-2.93-2.726-4.564-5.49-4.395-4.018.242-8.59 4.55-7.39 24.142l.63 10.308m25.01 22.695c2.188-.126 3.313-2.734 3.144-5.32-.158-2.676-1.855-5.105-3.768-4.982-1.998.122-3.362 2.734-3.214 5.41.16 2.587 1.665 5.03 3.837 4.892m10.127-56.842l1.595 45.223c.28 8.346 3.92 11.223 8.99 11.043 5.643-.19 9.137-3.16 8.778-13.556l-1.385-39.628c-.106-2.76.766-3.576 2.504-3.798l-.053-1.264-7.247.26.042 1.253c1.98-.06 3.303.677 3.398 3.59l1.41 40.34c.275 7.956-2.383 10.812-4.945 10.897-2.776.105-3.326-1.064-3.394-3.348l-1.808-51.29 2.448-.09-.042-1.26-12.836.45.052 1.27 2.49-.097m32.462 54.282c-1.808.085-3.292-1.1-3.292-5.362V93.382h.19l10.025 52.665h5.522v-51.4c0-2.76 1.347-4.258 3.023-4.343V89.05H257.5v1.254c1.866.164 3.08 1.11 3.08 4.66v33.74h-.13c-1.992-13.406-5.078-26.41-7.567-39.654h-10.607v1.254h2.585v48.952c0 3.554-1.09 5.055-3.47 5.526v1.263h8.032v-1.263m32.486.203l-3.013-.053.94-54.457 2.818.047.03-1.254-13.545-.237-.018 1.256 2.826.047-.95 54.474-2.824-.06-.03 1.265 13.744.238.022-1.263m14.604-54.02l.122.006-2.848 54.563-2.69-.15-.07 1.255 13.27.706.073-1.263-2.693-.138 2.85-54.553.122.007c2.515.21 4.2 6.927 5.464 23.57l.888.047 1.273-24.327-23.268-1.217-1.285 24.323.902.04c2.972-16.415 5.386-22.914 7.886-22.867m40.354 35.773l-.953-.08c-.593 3.275-1.17 5.523-3.046 11.926-2.508 8.492-4.06 9.316-7.388 9.04l-1.913-.17 2.228-27.097c3.628.7 4.305 4.152 4.346 14.603l.698.053 2.42-29.06-.908-.07c-1.305 10.4-3.113 12.786-6.44 13.22l2.155-25.926 3.32.27c4.026.338 4.81 5.072 5.675 20.885l.836.063 1.786-21.52-21.816-1.813-.102 1.26 2.425.196-4.5 54.283-2.437-.203-.11 1.263 21.836 1.81 1.892-22.937m28.2 2.997l.952-8.7c1.874-22.39-2.808-25.686-10.918-26.57l-8.61-.946-.138 1.254 2.43.27-5.93 54.145-2.424-.275-.137 1.264 11.42 1.253c9.193 1.01 12.16-10.725 13.352-21.694m-8.44-33.83c2.926.39 3.97.99 3.392 6.157l-4.888 44.668c-.28 2.506-1.364 3.66-4.427 3.316l5.922-54.14" fill="#231F1F"/></g></svg>