<svg width="512" height="512" viewBox="0 0 512 512" xmlns="http://www.w3.org/2000/svg"><title>fc-dallas</title><g fill="none" fill-rule="evenodd"><path d="M433.72 104.69S371.984 79.276 257.5 79.276c-114.482 0-176.216 25.416-176.216 25.416C66.676 287.61 155.997 389.63 257.5 435.726 359.003 389.63 448.296 287.61 433.72 104.69" fill="#E81F3E"/><path d="M257.5 83.436c100.023 0 159.996 19.75 172.255 24.206.904 12.117 1.374 24 1.374 35.618 0 67.605-15.26 126.7-45.54 176.08-29.504 48.122-73.78 86.726-128.09 111.776-54.318-25.054-98.596-63.657-128.103-111.777C99.127 269.973 83.87 210.9 83.87 143.323c0-11.64.472-23.543 1.378-35.683 12.258-4.456 72.228-24.205 172.252-24.205" fill="#FFF"/><path d="M331.198 290.522s-3.635.542-5.592 5.838l-10.562-.18s-3.768-5.264-11.022-5.314c0 0-6.778 3.735-6.187 9.066 0 0 1.728-2.946 5.793-2.98 2.68.99 3.882 3.95 3.882 3.95s-1.48 6.498-9.443 9.066c0 0-9.606-5.546-16.977-5.875-7.37-.342-17.667 8.852-27.342.69-9.673-8.175-8.752-20.775-4.688-29.296 0 0-22.9 16.006-4.03 37.903 0 0-31.586 21.057-45.273 69.002 17.356 12.863 36.636 24.414 57.743 35.17 17.685-9.014 34.087-18.556 49.14-28.985-19.065-13.423-30.566-37.277-14.623-68.46l4.258 1.99 20.087-1.562 3.158-5.083 7.353-.445s6.876-7.206 7.8-12.487c0 0-6.96-4.555-3.472-12.007m92.594-177.228s-62.307-23.92-166.294-23.92c-103.987 0-166.287 23.92-166.287 23.92-.987 37.508 1.185 70.54 6.367 99.857 46.178-15.463 57.184 21.584 94.69 22.966l41.77.396c6.96-7.058 16.98-10.726 16.98-10.726l35.745.263c7.438 3.72 14.972 9.445 14.972 9.445s11.318.148 24.627-.937c25.878-2.09 36.11-29.415 90.948-20.844 5.264-29.463 7.467-62.68 6.482-100.417" fill="#2A4076"/><path d="M115.74 190.73l11.55-2.238v-31.437l10.134-1.94v-11.138l-10.134 1.974v-14.26l10.134-2.106v-11.45L115.74 123.1v67.63m43.118-76.58c-12.24 1.992-13.078 4-13.176 15.827v43.102c.098 11.086.905 12.32 13.176 11.102 12.404-1.514 14.18-2.814 14.28-13.852v-13.555l-11.55 1.07v13.144c0 1.825-1.15 2.4-2.153 2.58-.94.034-2.188-.114-2.188-2.27v-42.64c0-1.71.954-2.55 2.024-2.68 1.22-.18 2.32.543 2.32 2.22v8.422l11.55-1.2v-8.72c-.1-12.37-1.842-14.146-14.28-12.55v-.002m62.283-5.806l-15.826 1.152v70.46l16.187-.938c10.07-.576 11.68-2.007 11.845-11.845v-44.187c-.2-13.49-2.14-15.035-12.208-14.64m.658 58.236c-.03 1.578-.213 2.154-1.76 2.253l-3.174.28v-47.592l3.175-.28c1.087-.016 1.713.51 1.76 3.026v42.31m26.354-59.027l-6.925 71.034 10.674-.132.89-12.37 6.315-.084.986 12.226 10.676.098-6.99-71.002-15.63.23m5.215 47.743L256 127.39l2.534 27.836-5.166.065v.004m37.544-47.084l-11.567-.492v70.82l19.56.642v-10.232l-7.993-.247v-60.49m28.048 61.923V110.25l-11.565-.986v70.46l19.33 1.53-.017-10.38-7.747-.74m22.34-57.267l-6.926 68.962 10.68 1 .868-12.634 6.25.56.876 12.88 10.676 1.186-6.992-69.965-15.43-1.99m5.213 46.522l2.55-26.88 2.517 27.325-5.067-.444m52.735-17.274v-6.81c-.1-11.27-2.04-13.95-14.347-16.37-12.362-2.07-13.068-.443-13.184 11.434v9.525c.094 5.922 1.197 9.245 4.99 12.6l8.356 6.698c1.612 1.415 2.6 3.01 2.633 5.148v11.04c0 1.66-1.35 1.893-2.338 1.827-.954-.197-2.105-1.02-2.105-2.566l.033-9.87-11.57-1.4v10.037c.112 11.088 1.395 12.75 13.643 14.625 12.438 1.613 13.785 1.02 13.884-10.33v-14.098c-.1-4.557-1.513-8.34-5.066-11.433l-8.783-7.09c-1.45-1.316-2.073-2.47-2.107-4.853v-7.962c0-1.66 1.12-2.072 2.07-1.974.99.23 2.338 1.58 2.338 3.34v6.795l11.55 1.694v-.003m-121.136 217.77H259.9l-.94-15.696-10.904 15.697h-18.13l11.93 10.43-9.313 16.254 17.39-10.067 11.81 9.903-1.168-16.22 17.537-10.3" fill="#FFF"/><path d="M337.4 255.94l-18.786 4.213c-3.257 2.238-8.867 7.056-5.708 11.038l18.292 19.333c-3.486 7.45 3.472 12.008 3.472 12.008-.92 5.28-7.797 12.485-7.797 12.485l-7.353.447-3.16 5.083-20.085 1.564-4.26-1.994c-15.94 31.183-4.443 55.038 14.623 68.46 57.975-40.17 96.066-93.002 110.674-174.864-53.506 2.994-53.95 36.027-79.91 42.23m-152.386 4.95c-43.513-5.494-45.454-47.065-87.436-47.74 7.566 42.822 21.55 77.714 41.423 107.014 23.377-28.495 48.464-47.332 63.68-57.283-6.382-.658-12.568-1.332-17.667-1.99m112.706-19.626c-3.85-5.905-13.26-6.73-11.682-11.27-4.308 2.173-3.716 6.006-1.018 8.424 3.34 3.013-2.535 5.48-3.734 1.96-1.48 1.71-1.48 4.525 1.76 7.304 3.223 2.796 10.298 2.846 13.012 10.645-.41-5.38 6.55-9.543 1.662-17.06" fill="#E81F3E"/><path d="M333.996 244.096c-9.936.97-23.458 1.63-23.458 1.63 2.368 2.828 3.257 6.052 3.257 6.052s-10.777 8.456-.89 19.413c-3.158-3.98 2.452-8.8 5.71-11.036l18.786-4.212c25.964-6.202 26.406-39.235 79.913-42.23-57.043-2.664-59.15 28-83.316 30.386m-88.82-3.308c2.385 6.99-1.924 9.278-1.924 9.278l-51.755-2.73c-47.296-4.36-45.816-41.506-93.918-34.186 41.982.675 43.923 42.246 87.436 47.74 5.1.66 11.285 1.333 17.668 1.99 3.882.395 7.847.79 11.68 1.168-9.673 7.272-13.11 17.588-13.11 17.588 30.203-5.824 41.307-14.707 44.762-18.392 10.167-9.905 1.71-21.666-.84-22.457m25.057 13.57s-6.384 3.554-10.3 11.105c0 0 18.836-1.612 32.95 6.038-6.35-11.945-12.484-14.428-22.65-17.143m90.52 116.582h3.324v10.07h1.216v-10.07h3.52v-1.22h-8.062v1.22h.005m17.395-1.22l-2.903 9.18-2.895-9.18h-1.942v11.287h1.218v-9.577l3.026 9.575h1.192l3.027-9.576v9.575h1.217V369.72h-1.94" fill="#2A4076"/><path d="M246.972 198.71h-9.723c-5.283 0-7.964.46-7.964 4.062v1.283c0 2.633 1.168 4.08 7.75 4.08h6.365c2.68 0 3.965-.38 5.084-1.118v1.743c0 1.152-.987 1.76-3.34 1.76H229.12v3.16h16.058c7.304 0 9.754-1.3 9.754-5.742v-4.096c0-3.8-2.633-5.133-7.962-5.133m-1.99 6.397h-5.955c-2.748 0-3.455-.38-3.455-1.612 0-1.25.74-1.628 3.34-1.628h6.218c2.616 0 3.355.378 3.355 1.628 0 1.233-.706 1.612-3.504 1.612m33.15-.855h-6.368c-2.68 0-3.963.378-5.08 1.102v-1.728c0-1.15.985-1.76 3.322-1.76h15.282v-3.16H269.97c-7.286 0-9.755 1.3-9.755 5.743v4.077c0 3.816 2.666 5.15 7.98 5.15h9.705c5.295 0 7.978-.477 7.978-4.08v-1.267c0-2.648-1.168-4.078-7.75-4.078m-1.89 6.268h-6.2c-2.617 0-3.357-.396-3.357-1.646 0-1.233.726-1.596 3.47-1.596h5.975c2.763 0 3.47.36 3.47 1.596 0 1.25-.74 1.646-3.356 1.646" fill="#CCCBCC"/></g></svg>