<svg width="512" height="512" viewBox="0 0 512 512" xmlns="http://www.w3.org/2000/svg"><title>houston-dynamo</title><g fill="none" fill-rule="evenodd"><path d="M179.41 101.058l-.005.002c-11.792 3.74-21.976 6.97-29.425 6.97-6.288 0-9.81-1.25-10.196-1.394l-11.83-5.703-43.137 34.09 1.71 12.34c1.686 12.176 4.144 24.762 7.242 37.46l-10.21 1.307.28-.02c-.646.07-3.15.407-15.627 2.09l-3.57.484.002 138.793 24.988-3.65c19.936-2.91 40.9-5.357 62.317-7.3 31.494 47.367 68.64 83.326 93.146 101.297l-.217-.186c.546.427 2.45 1.824 10.687 7.865l2.435 1.785 12.903-9.463c24.502-17.968 61.65-53.927 93.146-101.298 21.43 1.945 42.39 4.39 62.317 7.302l24.987 3.647.002-138.794-18.918-2.554-10.208-1.308c3.097-12.698 5.556-25.284 7.242-37.46l1.712-12.34-42.89-34.21-12.077 5.823c-.405.15-3.924 1.395-10.2 1.395-7.45 0-17.635-3.23-29.43-6.972-20.144-6.392-45.213-14.346-78.59-14.346-33.376 0-58.446 7.954-78.59 14.346" fill="#8DC6ED"/><path d="M180.655 104.99c-12.12 3.844-22.586 7.166-30.675 7.166-7.465 0-11.557-1.617-11.824-1.726l-9.705-4.68-8.823 6.783-30.407 24.25 1.386 10.012c1.89 13.64 4.67 27.562 8.248 41.534-5.04.614-9.983 1.242-14.742 1.885l-15.348 2.072.002 130.42 20.272-2.962c21.142-3.088 42.97-5.606 64.956-7.56 31.35 47.743 68.555 83.99 93.536 102.31l10.47 7.677 10.466-7.676c24.98-18.318 62.185-54.565 93.536-102.31 21.98 1.953 43.81 4.47 64.957 7.56l20.27 2.96V192.29l-15.344-2.073c-4.76-.643-9.705-1.27-14.744-1.887 3.577-13.97 6.36-27.895 8.247-41.534l1.39-10.01-39.034-31.133s-9.553 4.607-9.907 4.78c-.275.11-4.367 1.724-11.824 1.724-8.088 0-18.555-3.32-30.674-7.166-19.874-6.304-44.605-14.15-77.346-14.15-32.74 0-57.47 7.846-77.344 14.152" fill="#F78712"/><path d="M183.89 115.213c-12.967 4.115-24.165 7.668-33.91 7.668-10.565 0-16.22-2.666-16.275-2.692l-3.963-1.91-3.52 2.703-25.555 20.385.547 3.958c2.424 17.486 6.245 34.995 11.227 52.2-9.26 1.048-18.28 2.16-26.897 3.323l-6.067.82v108.64l8.016-1.173c23.693-3.458 47.872-6.2 71.945-8.21 31.16 49.07 68.988 86.268 94.426 104.923l4.14 3.035 4.138-3.034c25.437-18.65 63.268-55.85 94.427-104.922 24.076 2.01 48.255 4.752 71.943 8.213l8.016 1.17V201.664l-6.067-.82c-8.617-1.163-17.637-2.276-26.9-3.32 4.983-17.21 8.804-34.717 11.227-52.202l.55-3.958-28.998-23.128-4.04 1.95c-.056.026-5.71 2.693-16.276 2.693-9.745 0-20.942-3.555-33.91-7.67-19.167-6.08-43.025-13.65-74.11-13.65-31.08 0-54.94 7.57-74.108 13.65" fill="#FFF"/><path d="M258 400.188c22.223-16.296 61.652-52.955 94.952-106.62 25.764 2.056 51.296 4.937 76.567 8.628v-94.4c-11.624-1.57-23.3-2.963-35.02-4.215 5.856-18.65 10.463-38.41 13.347-59.22l-22.434-17.892s-6.684 3.426-19.393 3.426c-26.035 0-56.66-21.318-108.02-21.318s-81.983 21.318-108.02 21.318c-12.707 0-19.39-3.426-19.39-3.426l-22.435 17.892c2.883 20.81 7.488 40.568 13.35 59.22-11.722 1.253-23.4 2.645-35.023 4.215v94.4c25.272-3.69 50.805-6.57 76.568-8.627 33.3 53.667 72.73 90.326 94.953 106.622" fill="#231F1F"/><path d="M344.582 292.928c-1.38-.1-2.757-.203-4.138-.298-18.71 7.496-40.566 16.284-66.135 26.6 16.286-10.307 30.91-19.577 44.05-27.923-1.84-.093-3.68-.18-5.523-.263-12.166 7.66-25.554 16.1-40.285 25.405 10.09-9.29 19.432-17.896 28.112-25.903-1.528-.054-3.055-.11-4.584-.16-8.015 7.35-16.58 15.208-25.75 23.632 6.357-8.408 12.35-16.346 18.015-23.853-1.33-.034-2.663-.06-3.997-.09-5.263 6.94-10.802 14.248-16.638 21.954 3.888-7.7 7.594-15.043 11.134-22.062-1.207-.023-2.41-.04-3.616-.06-3.34 6.584-6.818 13.455-10.452 20.636 2.127-7.176 4.165-14.065 6.125-20.69-1.13-.012-2.257-.023-3.387-.032l-5.89 19.78c.75-6.848 1.467-13.44 2.158-19.803l-3.28-.01c-.692 6.252-1.403 12.726-2.143 19.447-.477-6.72-.937-13.197-1.386-19.452l-3.27.01c.44 6.322.898 12.873 1.374 19.675-1.74-6.805-3.415-13.348-5.032-19.66l-3.354.03c1.664 6.553 3.395 13.36 5.2 20.445-3.25-7.09-6.368-13.885-9.358-20.404l-3.555.06c3.16 6.92 6.46 14.15 9.92 21.72-5.284-7.575-10.314-14.777-15.104-21.63-1.3.026-2.597.056-3.895.087 5.055 7.272 10.387 14.934 16.02 23.018-8.076-8.097-15.662-15.697-22.8-22.84-1.474.043-2.95.086-4.42.134 7.835 7.89 16.235 16.335 25.25 25.39-13.068-9.075-25.04-17.38-36.022-24.987-1.752.074-3.502.15-5.253.23 11.877 8.294 24.962 17.415 39.398 27.46-22.1-10.063-41.38-18.82-58.212-26.44-2.176.135-4.35.277-6.52.425 17.99 8.266 38.946 17.862 63.366 29.01-22.866-5.778-42.9-10.82-60.454-15.216.907 1.317 1.82 2.622 2.733 3.918 16.687 4.268 35.56 9.074 56.914 14.49-17.87-1.21-34.046-2.294-48.708-3.265.855 1.132 1.713 2.253 2.573 3.367 13.913.976 29.17 2.034 45.91 3.183-14.343 1.616-27.59 3.118-39.835 4.512.805.997 1.61 1.983 2.418 2.964 11.673-1.292 24.24-2.69 37.784-4.203-11.738 3.53-22.714 6.834-32.985 9.936.768.9 1.535 1.797 2.302 2.68 9.885-2.95 20.41-6.1 31.63-9.464-9.737 4.97-18.914 9.66-27.56 14.08.747.838 1.495 1.67 2.24 2.493 8.432-4.285 17.358-8.825 26.813-13.64-8.143 6.21-15.837 12.085-23.122 17.652.744.8 1.488 1.594 2.23 2.376 7.22-5.486 14.836-11.28 22.886-17.41-6.787 7.44-13.205 14.486-19.29 21.163.76.782 1.52 1.558 2.273 2.32 6.134-6.702 12.606-13.776 19.443-21.26-5.526 8.815-10.74 17.142-15.67 25.025.793.78 1.583 1.55 2.37 2.313 5.06-8.04 10.414-16.557 16.084-25.587-4.195 10.49-8.132 20.352-11.834 29.637.85.796 1.698 1.58 2.538 2.35 3.863-9.61 7.97-19.846 12.35-30.766-2.574 12.637-4.965 24.413-7.19 35.4.94.823 1.87 1.63 2.79 2.418 2.364-11.48 4.898-23.84 7.622-37.156-.332 15.47-.627 29.68-.89 42.736.99.793 1.97 1.572 2.93 2.316l.217-.17c.323-13.623.666-28.515 1.028-44.81 2.23 13.996 4.305 26.95 6.23 38.94.945-.792 1.9-1.608 2.866-2.44-1.803-11.453-3.745-23.765-5.847-37.02 4.02 11.45 7.783 22.16 11.315 32.193.858-.773 1.722-1.56 2.59-2.363-3.374-9.668-6.967-19.955-10.803-30.916 5.376 9.453 10.447 18.36 15.232 26.76.797-.76 1.6-1.537 2.404-2.32-4.644-8.2-9.562-16.876-14.776-26.065 6.556 7.836 12.757 15.244 18.635 22.257.76-.763 1.523-1.53 2.29-2.31-5.802-6.96-11.927-14.302-18.407-22.06 7.744 6.45 15.07 12.547 22.02 18.325.745-.78 1.49-1.56 2.24-2.354-6.983-5.835-14.355-11.993-22.15-18.498 9.085 5.14 17.67 9.99 25.79 14.574.745-.814 1.488-1.63 2.236-2.458-8.296-4.713-17.086-9.7-26.408-14.985 10.746 3.742 20.845 7.252 30.347 10.55.762-.87 1.525-1.74 2.288-2.627-9.848-3.45-20.347-7.12-31.555-11.033 12.916 2.02 24.935 3.892 36.138 5.633.794-.952 1.59-1.915 2.382-2.884-11.728-1.857-24.373-3.854-38.01-6 15.856-.392 30.39-.763 43.713-1.11.845-1.077 1.69-2.16 2.53-3.256-14.03.315-29.427.67-46.326 1.074 20.06-4.163 37.954-7.893 53.916-11.234.904-1.247 1.803-2.503 2.698-3.77-16.81 3.44-35.808 7.344-57.278 11.78 26.407-10.683 48.843-19.793 67.91-27.566l1.13-1.79" fill="#F78712"/><path d="M258 309.156l4.558 14.045h14.753l-11.934 8.68 4.558 14.05L258 337.25l-11.935 8.68 4.558-14.05-11.934-8.68h14.75l4.56-14.043" fill="#FFF"/><path d="M378.553 201.96c13.235-16.71 11.36-15.022 11.36-15.022s1.336-2.24-13.238 14.85l1.878.172m-22.618-1.93c30.73-41.425 27.598-38.367 27.598-38.367s2.13-3.924-30.323 38.168l2.725.2m-31.022-1.984c29.992-60.404 26.983-56.17 26.983-56.17s1.64-4.99-29.75 56.028l2.767.14m-26.74-1.11c21.462-73.984 19.065-68.868 19.065-68.868s.786-5.636-21.81 68.79l2.744.078m-72.184-.227c-20.012-76.512-19.44-70.794-19.44-70.794s-2.226-5.27 16.703 70.868l2.74-.072m-26.07.91c-30.02-64.416-28.54-59.255-28.54-59.255s-2.91-4.45 25.774 59.386l2.765-.134m-29.907 1.698C136.93 152.714 139 156.906 139 156.906s-3.163-3.335 28.266 42.598l2.747-.19m-27.435 2.176c-17.274-21.92-15.84-19.31-15.84-19.31s-2.086-2.015 13.806 19.496l2.036-.187m103.55-55.16c-2.51-29.447-2.755-26.378-2.755-26.378s-.685-3.044 1 27.106c.577-.258 1.163-.502 1.756-.73m32.168 4.724c3.23-33.607 2.372-30.372 2.372-30.372s-.135-3.277-4.13 29.1c.602.405 1.185.832 1.758 1.274" fill="#F78712"/><path d="M332.602 135.745l-3.696-1.32-5.145 14.454 3.696 1.32 5.147-14.456zm.016 17.64c-.428 1.202-1.75 1.83-2.95 1.4l-10.52-3.755c-1.204-.428-1.83-1.752-1.4-2.955l5.81-16.32c.43-1.203 1.75-1.83 2.952-1.4l10.52 3.753c1.202.43 1.83 1.753 1.402 2.956l-5.81 16.32h-.004z" fill="#FFF"/><path d="M332.602 135.745l-3.696-1.32-5.145 14.454 3.696 1.32 5.147-14.456zm.016 17.64c-.428 1.202-1.75 1.83-2.95 1.4l-10.52-3.755c-1.204-.428-1.83-1.752-1.4-2.955l5.81-16.32c.43-1.203 1.75-1.83 2.952-1.4l10.52 3.753c1.202.43 1.83 1.753 1.402 2.956l-5.81 16.32h-.004z" stroke="#231F1F" stroke-width=".319"/><path d="M190.788 133.41l-3.716 1.26 4.91 14.534 3.718-1.258-4.912-14.536zm10.935 13.83c.41 1.21-.238 2.523-1.45 2.932l-10.576 3.583c-1.21.41-2.52-.24-2.93-1.45l-5.545-16.413c-.41-1.21.24-2.523 1.448-2.932l10.58-3.583c1.208-.41 2.52.24 2.928 1.45l5.544 16.413z" fill="#FFF"/><path d="M190.788 133.41l-3.716 1.26 4.91 14.534 3.718-1.258-4.912-14.536zm10.935 13.83c.41 1.21-.238 2.523-1.45 2.932l-10.576 3.583c-1.21.41-2.52-.24-2.93-1.45l-5.545-16.413c-.41-1.21.24-2.523 1.448-2.932l10.58-3.583c1.208-.41 2.52.24 2.928 1.45l5.544 16.413z" stroke="#231F1F" stroke-width=".319"/><path d="M228.182 123.808l2.708 18.174-3.88.58-2.708-18.175-5.87.876 2.896 19.424c.188 1.264 1.364 2.135 2.626 1.948l11.046-1.65c1.263-.188 2.133-1.366 1.945-2.63l-2.894-19.423-5.866.876" fill="#FFF"/><path d="M228.182 123.808l2.708 18.174-3.88.58-2.708-18.175-5.87.876 2.896 19.424c.188 1.264 1.364 2.135 2.626 1.948l11.046-1.65c1.263-.188 2.133-1.366 1.945-2.63l-2.894-19.423-5.866.876z" stroke="#231F1F" stroke-width=".319"/><path d="M303.745 125.828l-15.55-2.733-.52 2.984 4.852.85-3.268 18.636 5.84 1.028 3.27-18.636 4.854.853.523-2.984h-.003" fill="#FFF"/><path d="M303.745 125.828l-15.55-2.733-.52 2.984 4.852.85-3.268 18.636 5.84 1.028 3.27-18.636 4.854.853.523-2.984h-.003z" stroke="#231F1F" stroke-width=".319"/><path d="M370.36 147.312l-5.413 9.388-.84-13.003-2.996-1.732-10.96 19.012 4.424 2.558 5.413-9.388.84 13 2.996 1.733 10.965-19.01-4.427-2.56v.002" fill="#FFF"/><path d="M370.36 147.312l-5.413 9.388-.84-13.003-2.996-1.732-10.96 19.012 4.424 2.558 5.413-9.388.84 13 2.996 1.733 10.965-19.01-4.427-2.56v.002z" stroke="#231F1F" stroke-width=".319"/><path d="M153.4 143.24l4.444 8.04-4.872 2.7-4.445-8.038-4.47 2.478 10.62 19.204 4.47-2.477-4.444-8.038 4.873-2.703 4.444 8.037 4.47-2.477-10.618-19.207-4.47 2.48" fill="#FFF"/><path d="M153.4 143.24l4.444 8.04-4.872 2.7-4.445-8.038-4.47 2.478 10.62 19.204 4.47-2.477-4.444-8.038 4.873-2.703 4.444 8.037 4.47-2.477-10.618-19.207-4.47 2.48z" stroke="#231F1F" stroke-width=".319"/><path d="M260.166 127.298l.045-2.522 3.504.065-.063 3.35 5.296.1.076-4.066c.024-1.278-.877-2.33-2.02-2.352l-9.967-.185c-1.138-.02-2.082.997-2.105 2.274l-.076 4.064c-.076 4.104 8.668 7.117 8.623 9.638l-.048 2.523-3.5-.066.06-3.347-5.297-.1-.084 4.613c-.026 1.276.88 2.33 2.02 2.35l9.967.187c1.14.022 2.082-.998 2.105-2.274l.085-4.61c.07-3.72-8.667-7.117-8.62-9.64" fill="#FFF"/><path d="M260.166 127.298l.045-2.522 3.504.065-.063 3.35 5.296.1.076-4.066c.024-1.278-.877-2.33-2.02-2.352l-9.967-.185c-1.138-.02-2.082.997-2.105 2.274l-.076 4.064c-.076 4.104 8.668 7.117 8.623 9.638l-.048 2.523-3.5-.066.06-3.347-5.297-.1-.084 4.613c-.026 1.276.88 2.33 2.02 2.35l9.967.187c1.14.022 2.082-.998 2.105-2.274l.085-4.61c.07-3.72-8.667-7.117-8.62-9.64z" stroke="#231F1F" stroke-width=".319"/><path d="M367.392 235.498c0-10.365-.525-19.703 14.626-17.516 15.152 2.19 28.484 4.183 30.994 4.556 5.895.88-5.325 4.97-5.325 8.99v45.01c0 4.572-2.372 8.53-9.837 7.37-2.99-.415-6.598-.9-15.83-2.302-15.55-2.36-14.626-7.99-14.626-22.138v-23.97h-.002zm27.028 34.267v-37.558c0-2.024-.965-4.318-3.337-4.318l-3.564-.5c-5.72-.71-6.854.94-7.57 9.974-.235 2.988-.24 6.955-.24 11.888 0 4.934.24 8.915.24 11.953 0 10.228 1.497 11.255 4.46 11.645 2.97.39 6.67.868 6.67.868 1.586.223 3.338-1.137 3.338-3.952zm-248.892-9.55c0 14.15.927 19.776-14.626 22.137-15.55 2.363-15.148 2.125-22.707 3.324v-53.84c0-4.02-11.22-8.112-5.325-8.99 2.51-.374 12.88-1.926 28.03-4.116 15.152-2.19 14.626 7.15 14.626 17.515v23.97h.002zm-20.123 13.748c1.732-.24 3.11-.68 4.14-1.333 1.03-.653 1.817-1.838 2.363-3.553.546-1.716.9-4.092 1.06-7.125.16-3.034.242-7.02.242-11.952 0-4.933-.082-8.896-.24-11.887-.163-2.992-.517-5.276-1.062-6.848-.546-1.572-1.333-2.546-2.362-2.92-1.03-.376-2.41-.447-4.14-.207-1.19.164-2.378.33-3.567.5v45.83c1.187-.17 2.374-.337 3.564-.5v-.005zm144.528-26.95l3.575-16.378 5.443 23.313s-3.984-3.054-9.015-6.934zm27.004 27.632c-4.918-21.407-12-42.776-16.92-64.108-6.614-.165-6.405-.263-13.02-.293-2.184 9.575-4.78 19.156-7.418 28.744-4.963-3.87-9.13-7.177-9.89-7.937-2.064-2.065-2.65 1-1.72 1.93.316.318 4.59 5.237 10.08 11.57-2.69 9.783-5.35 19.57-7.576 29.368 5.513-.06 8.082-.073 13.595-.036l3.9-17.863c8.155 9.435 15.707 18.183 15.707 18.183 4.42.118 8.84.267 13.257.446h.002zm19.963-62.638l13.196 32.724 13.218-30.724s3.57.622 10.265 1.314v63.622c-4.39-.454-8.275-1.542-12.67-1.937 0-15.8.515-31.348.515-31.348l-8.958 24.955-5.256-.413s-8.987-24.644-9.036-24.647v30.185c-4.404-.276-7.465-.522-11.868-.738v-63.624c6.716.328 10.596.626 10.596.626l-.003.003zm-107.396-.533l19.002 28.81v-29.588c4.922-.153 7.37-.267 12.296-.346v63.625c-3.162.05-7.01.193-7.01.193l-18.504-29.19v29.842c-4.922.22-7.78.48-12.7.776v-63.624c2.992-.18 6.916-.498 6.916-.498zm-57.046 4.616c5.656-.642 8.113-.89 13.778-1.43 1.976 7.208 7.87 23.475 7.926 23.47 1.978-7.572 5.95-17.306 7.93-24.866 5.755-.476 7.94-.662 13.7-1.035-5.138 13.19-9.643 26.426-14.776 39.704v25.04c-5.255.425-7.886.892-13.136 1.405v-25.04c-5.044-12.37-10.386-24.96-15.424-37.25h.002z" fill="#FFF"/><path d="M367.392 235.498c0-10.365-.525-19.703 14.626-17.516 15.152 2.19 28.484 4.183 30.994 4.556 5.895.88-5.325 4.97-5.325 8.99v45.01c0 4.572-2.372 8.53-9.837 7.37-2.99-.415-6.598-.9-15.83-2.302-15.55-2.36-14.626-7.99-14.626-22.138v-23.97h-.002zm27.028 34.267v-37.558c0-2.024-.965-4.318-3.337-4.318l-3.564-.5c-5.72-.71-6.854.94-7.57 9.974-.235 2.988-.24 6.955-.24 11.888 0 4.934.24 8.915.24 11.953 0 10.228 1.497 11.255 4.46 11.645 2.97.39 6.67.868 6.67.868 1.586.223 3.338-1.137 3.338-3.952zm-248.89-9.55c0 14.148.926 19.775-14.626 22.137-15.55 2.362-15.15 2.124-22.708 3.323v-53.84c0-4.02-11.22-8.112-5.325-8.99 2.513-.374 12.883-1.927 28.033-4.117 15.152-2.19 14.626 7.15 14.626 17.516v23.97zm-20.124 13.748c1.732-.24 3.112-.683 4.142-1.334 1.028-.657 1.816-1.84 2.36-3.555.548-1.717.9-4.093 1.062-7.125.158-3.034.24-7.02.24-11.95 0-4.934-.08-8.897-.24-11.89-.16-2.99-.516-5.275-1.06-6.846-.546-1.572-1.334-2.547-2.362-2.92-1.03-.377-2.41-.448-4.142-.208-1.19.164-2.377.33-3.566.5v45.83c1.19-.17 2.376-.336 3.566-.5v-.003zm144.528-26.953l3.576-16.38 5.442 23.314s-3.986-3.054-9.017-6.934zm27.003 27.63c-4.918-21.406-12-42.775-16.92-64.107-6.614-.165-6.405-.263-13.02-.29-2.184 9.57-4.78 19.153-7.418 28.74-4.963-3.87-9.13-7.177-9.89-7.936-2.064-2.066-2.65 1-1.72 1.928.316.32 4.59 5.237 10.08 11.572-2.69 9.782-5.35 19.57-7.576 29.366 5.513-.06 8.082-.072 13.595-.036l3.9-17.864c8.155 9.436 15.707 18.184 15.707 18.184 4.42.117 8.84.266 13.257.445h.002zm19.966-62.638l13.195 32.723L343.314 214s3.57.622 10.265 1.313v63.624c-4.39-.456-8.275-1.542-12.67-1.937 0-15.8.517-31.348.517-31.348l-8.96 24.954-5.253-.413s-8.99-24.642-9.04-24.644v30.184c-4.4-.276-7.462-.523-11.868-.738v-63.624c6.716.328 10.596.626 10.596.626V212zm-107.4-.53l19.003 28.81v-29.59c4.922-.15 7.37-.266 12.296-.343v63.62c-3.162.05-7.01.195-7.01.195l-18.504-29.19v29.842c-4.922.22-7.78.478-12.7.775V211.97c2.992-.18 6.916-.5 6.916-.5zm-57.045 4.616c5.656-.643 8.113-.89 13.778-1.43 1.976 7.208 7.87 23.474 7.926 23.47 1.978-7.573 5.95-17.306 7.93-24.867 5.755-.474 7.94-.66 13.7-1.033-5.138 13.194-9.643 26.43-14.776 39.706v25.04c-5.255.425-7.886.893-13.136 1.405v-25.04c-5.044-12.368-10.386-24.96-15.424-37.248l.002-.002z" stroke="#F47216" stroke-width="1.278"/><path d="M95.237 293.94C148.812 286.593 203.123 282.9 258 282.9c54.874 0 109.188 3.693 162.764 11.04v-2.495c-53.58-7.333-107.892-11.02-162.765-11.02-54.877 0-109.188 3.687-162.764 11.02v2.496" fill="#F78712"/><path d="M311.884 394.25v1.327h-2.252v6.187h-1.585v-6.187h-2.253v-1.327h6.09m5.876 0h2.252v7.515h-1.454v-5.083l.01-1.224-1.424 6.306h-1.524l-1.413-6.306.01 1.224v5.083h-1.456v-7.515h2.278l1.368 5.91 1.353-5.91h.002" fill="#231F1F"/><path d="M236.907 203.368c-47.672.774-94.93 4.17-141.67 10.163v2.498c47.845-6.147 96.235-9.56 145.056-10.228-1.18-.743-2.312-1.552-3.386-2.432m42.186.002c-1.076.878-2.206 1.687-3.387 2.43 48.822.665 97.212 4.08 145.058 10.227v-2.496c-46.74-5.99-93.996-9.387-141.67-10.16" fill="#F78712"/><path d="M284.594 177.523c0 14.703-11.905 26.626-26.594 26.626-14.687 0-26.594-11.925-26.594-26.628 0-14.705 11.907-26.627 26.594-26.627 14.69 0 26.594 11.92 26.594 26.627" fill="#FFF"/><path d="M272.388 155.136c4.58 4.013 7.478 9.906 7.478 16.48 0 12.09-9.79 21.893-21.867 21.893-12.08 0-21.87-9.804-21.87-21.896 0-6.573 2.9-12.466 7.48-16.48-7.34 4.74-12.206 12.993-12.206 22.388 0 14.703 11.906 26.626 26.594 26.626 14.686 0 26.593-11.924 26.593-26.627 0-9.396-4.864-17.647-12.205-22.386" fill="#B3E6FA"/><path d="M277.687 159.623c-1.514.627-3.293 1.21-3.493 1.01 1.765 3.864 2.204 8.282 1.543 10.6.954.956 2.83 3.004 4.128 4.665.522 3.23.37 6.752-.155 8.46.79-1.33 2.122-3.807 2.697-6.708.692-.364 1.427-.788 2.16-1.118-.237-6.502-2.796-12.41-6.88-16.91m.503 35.218c-.03-1.697-.134-4.616-.466-6.82-4.195 4.616-9.173 3.824-9.173 3.824s-.755 1.86-1.77 3.797c-2.65 2.74-3.966 3.984-10.62 4.283.825.258 6.235.12 9.364.452l2.082 1.977c4.126-1.6 7.754-4.202 10.588-7.51m-31.89-3.616s-1 .125-2.527.236c-4.29-1.894-7.758-6.637-8.802-9.827 2.046 5.57 2.4 8.595 2.46 9.97-.7-.026-1.4-.07-2.09-.135 2.844 4.618 7.055 8.3 12.068 10.48 1.248-.705 2.975-1.828 5.69-2.37-5.15-2.27-6.797-8.354-6.797-8.354m-8.34-31.202c-4.007 4.595-6.462 10.576-6.55 17.133 1.276-.035 2.44.096 2.957 2.47.772-2.428 3.2-8.503 5.627-9.387-.762-1.83-.735-4.82-.645-6.674 2.34-3.586 6.49-7.02 6.49-7.02s-4.426 2.948-6.658 4.925c-.27-.375-.728-.903-1.22-1.445m20.033-9.13c-2.916 0-5.718.477-8.343 1.346-.814 1.433-1.92 2.886-2.157 3.755 2.427-.774 8.77 1.05 9.817 2.098 0-.552 5.625-2.65 7.057-2.65 1.436 0 8.77 3.92 8.273 3.423-.493-.497-6.397-4.97-6.837-5.41-.192-.193.014-.722.4-1.26-2.585-.84-5.342-1.3-8.21-1.3" fill="#231F1F"/><path d="M234.153 175.652c0 .882 1.324-1.878 1.324-2.54 0-.47-.997-4.614-1.102-7.808-1.406 2.718-2.354 5.706-2.75 8.867 1.13.334 2.53.907 2.53 1.483m13.18 21.245s-5.726-.906-9.316-1.814c1.903 2.172 4.155 4.028 6.67 5.487 2.133-.27 4.946-1.366 4.6-1.712l-1.956-1.96m29.85-.946c0-.947-.22-4.416-.22-4.416s-3.02.825-3.02 1.58c0 .757-4.314 6.996-4.668 8.523 2.982-1.4 5.658-3.34 7.91-5.69m3.644-32.08c-1.598-.316-3.658-.92-3.658-.92 0 1.327.496 2.155 0 2.652-.487.488 5.612 5.126 7.188 8.43-.48-3.677-1.707-7.117-3.53-10.163M258 150.895c-2.064 0-4.068.244-5.998.69l-1.634 2.75s2.866-.11 4.523-.11c1.24-1.24 4.053-2.328 6.537-3.103-1.122-.146-2.266-.227-3.426-.227" fill="#F78712"/><path d="M264.234 181.96c1.146-2.384 2.672-6.5 3.033-7.95 2.035-.87 5.714-2.775 5.714-2.775s-3.483 1.212-6.12 1.628c-1.336-1.348-5.056-4.03-7.294-5.272-1.283-2.763-1.917-7.507-1.917-7.507s-.003 3.77-.81 7.322c-1.997 1.09-5.823 3.807-7.46 5.367-2.657-.216-7.394-1.644-7.394-1.644s5.734 3.757 7.39 5.415c.35 1.048.78 2.254 1.214 3.398h-.002c.798 1.993-1.11 7.033-2.257 9.18 1.41-1.46 4.47-4.06 6.44-4.57 1.845.08 4.4-.015 6.245-.28 2.686 1.58 7.037 5.93 7.037 5.93s-3.455-4.27-3.815-8.236" fill="#231F1F"/><path d="M247.61 190.12c.123 0 .392-.39.72-1.005-.57.594-.878 1.004-.72 1.004" fill="#231F1F"/><path d="M258 176.203c.335-.698.424-4.495.19-7.862l-.21-.04c-.933 0-7.92 4.942-7.92 5.782 0 .64 1.536 5.025 2.54 7.356 2.44-2.178 5.094-4.592 5.4-5.233" fill="#F78712"/><path d="M279.268 185.26c.167-.168.314-.488.442-.902-.534.896-.82 1.28-.442.902" fill="#FFF200"/><path d="M279.268 185.26c.167-.168.314-.488.442-.902-.534.896-.82 1.28-.442.902z" stroke="#231F1F" stroke-width=".639"/></g></svg>