<svg width="512" height="512" viewBox="0 0 512 512" xmlns="http://www.w3.org/2000/svg"><title>new-york-city-fc</title><g fill="none" fill-rule="evenodd"><path d="M433.335 255.61c0 97.603-79.172 176.725-176.834 176.725S79.667 353.213 79.667 255.61c0-97.6 79.172-176.723 176.835-176.723 97.663 0 176.835 79.122 176.835 176.724z" fill="#28295C"/><path d="M256.5 139.905c-63.917 0-115.782 51.833-115.782 115.71 0 63.878 51.865 115.7 115.783 115.7s115.783-51.822 115.783-115.7c0-63.877-51.865-115.71-115.782-115.71zm0 4.25c61.62 0 111.52 49.88 111.52 111.46 0 61.58-49.9 111.45-111.52 111.45-61.618 0-111.52-49.87-111.52-111.45 0-61.58 49.902-111.46 111.52-111.46z" fill="#FFF"/><path d="M256.5 86.292c-93.55 0-169.43 75.833-169.43 169.325 0 93.492 75.88 169.31 169.43 169.31 93.55 0 169.43-75.818 169.43-169.31S350.05 86.292 256.5 86.292zm0 3.605c91.598 0 165.81 74.18 165.81 165.72 0 91.54-74.212 165.706-165.81 165.706-91.596 0-165.808-74.166-165.808-165.706 0-91.54 74.212-165.72 165.81-165.72z" fill="#E76B31"/><path d="M256.5 97.153c-87.365 0-158.572 71.15-158.572 158.463 0 87.31 71.207 158.452 158.573 158.452 87.367 0 158.574-71.14 158.574-158.452S343.867 97.153 256.5 97.153zm0 34.895c68.558 0 123.5 55.053 123.5 123.568 0 68.514-54.942 123.257-123.5 123.257-68.556 0-123.5-54.743-123.5-123.257 0-68.515 54.944-123.568 123.5-123.568zM115.97 246.662l9.06 6.596-3.512 10.847h-11.318l-3.544-10.89 9.314-6.553zm281.21 0l9.058 6.596-3.5 10.847H391.42l-3.545-10.89 9.302-6.553z" fill="#78A5DB"/><path d="M195.972 182.3h-7.866v-10.27h27.287v10.27h-4.607l45.177 43.46 29.767-28.7c3.094 1.484 6.14 3.407 9.174 5.422l-33.628 32.02v16.557l-10.09-9.972v-6.018L195.97 182.3z" fill="#FFF"/><path d="M301.152 182.3h-4.96v-10.624h27.286V182.3h-7.796l-9.62 9.392c-2.91-2.474-5.82-3.99-8.732-5.755l3.822-3.636z" fill="#FFF"/><path d="M219.114 186.886l8.037 7.526s12.225-6.83 29.49-6.83c30.47 0 54.75 19.975 64.737 46.514h10.82V203.52h-10.124v8.82c-12.38-19.04-36.38-34.972-65.37-34.972-22.212 0-37.59 9.518-37.59 9.518z" fill="#FFF"/><path d="M232.403 286.423v9.562h-25.16v-9.562h7.583V231.53h-7.23v-9.564h19.49l62.372 59.145v-49.58h-7.442v-9.564h25.16v9.563h-7.796v64.455h-8.252l-66.167-62.503v52.94h7.443z" fill="#FFF"/><path d="M248.165 323.962v10.263c-39.83-3.74-70.327-38.204-70.327-78.105 0-26.352 11.866-46.15 28.145-60.538l7.54 7.278c-15.525 12.836-25.45 31.81-25.45 53.308 0 34.514 26.47 63.64 60.092 67.794z" fill="#FFF"/><path d="M264.118 334.247v-10.285c26.922-2.92 50.65-22.263 57.835-47.805h10.717c-7.816 30.516-35.177 54.655-68.552 58.09z" fill="#FFF"/><path d="M269.258 353.713h-25.87v-10.27h7.443v-81.81l10.446 9.56v72.25h7.982v10.27z" fill="#FFF"/><path d="M168.71 157.955l-13.717-13.404-2.913 2.977 8.446 8.253-14.73-1.83-2.72 2.78 13.716 13.405 2.912-2.977-8.72-8.52 15.216 1.882 2.51-2.565z" fill="#28295C"/><path d="M183.372 146.485l-2.313-2.956-8.205 6.41-2.482-3.17 7.124-5.57-2.313-2.954-7.123 5.567-2.397-3.063 8.096-6.327-2.314-2.956-11.4 8.908 11.82 15.102 11.506-8.992z" fill="#28295C"/><path d="M201.155 115.177l-3.922 2.02 2.42 13.36-9.802-9.62-3.214 1.657 2.15 13.558-9.483-9.72-4.02 2.07 14.675 14.165 3.264-1.68-1.9-13.134 9.598 9.168 3.264-1.68-3.03-20.163z" fill="#28295C"/><path d="M232.204 107.153l-4.68 1.05-2.856 8.53-6.155-6.505-4.813 1.08 9.74 9.716 1.66 7.375 4.117-.926-1.676-7.455 4.664-12.867z" fill="#28295C"/><path d="M252.312 108.177l-.04-.038c-.98-.96-2.073-1.676-3.28-2.153-1.207-.478-2.443-.703-3.71-.675-1.264.027-2.518.302-3.76.826-1.24.524-2.378 1.315-3.412 2.372-1.035 1.058-1.803 2.216-2.306 3.474-.503 1.258-.747 2.526-.732 3.804.014 1.278.27 2.518.768 3.72.498 1.202 1.237 2.28 2.217 3.238l.04.04c.98.956 2.072 1.673 3.28 2.15 1.206.478 2.442.703 3.708.675 1.266-.026 2.52-.3 3.76-.825 1.24-.524 2.378-1.315 3.413-2.372 1.035-1.058 1.804-2.216 2.306-3.474.503-1.26.747-2.527.733-3.805-.015-1.278-.27-2.518-.77-3.72-.497-1.2-1.236-2.28-2.215-3.238zm-3.046 3.19c.588.576 1.04 1.216 1.36 1.923.317.706.496 1.43.537 2.172.04.743-.078 1.477-.354 2.203-.277.726-.71 1.39-1.296 1.99-.6.613-1.26 1.06-1.98 1.34-.72.278-1.46.412-2.216.4-.756-.01-1.494-.17-2.214-.477-.72-.308-1.375-.75-1.963-1.324l-.038-.038c-.588-.575-1.04-1.215-1.36-1.922-.317-.707-.496-1.43-.537-2.173-.04-.74.074-1.472.344-2.192.27-.72.704-1.386 1.304-2 .588-.6 1.245-1.043 1.972-1.33.726-.285 1.468-.422 2.224-.41.756.01 1.494.17 2.214.478.72.308 1.375.75 1.963 1.324l.04.038z" fill="#28295C"/><path d="M275.74 125.533l-4.234-7.135c1.25-.377 2.286-1.028 3.106-1.954.82-.926 1.28-2.163 1.38-3.712l.004-.055c.128-1.986-.405-3.576-1.6-4.77-1.196-1.193-2.933-1.863-5.212-2.01l-8.75-.566-1.24 19.133 4.212.272.396-6.122 3.31.214 3.705 6.388 4.923.318zm-4.03-12.86c-.052.82-.372 1.46-.96 1.916-.588.455-1.402.65-2.44.582l-4.267-.276.356-5.494 4.182.27c1.04.068 1.836.348 2.39.842.554.493.802 1.195.743 2.106l-.004.054z" fill="#28295C"/><path d="M295.162 130l-5.577-12.545 9.39-6.248-4.976-1.105-9.418 6.494 1.82-8.18-4.12-.916-4.162 18.716 4.12.915 1.272-5.72 2.666-1.766 4.035 9.257 4.95 1.1z" fill="#28295C"/><path d="M321.333 137.693l-1.338-3.573c-.968.326-1.88.517-2.737.573-.856.056-1.784-.14-2.784-.59-.75-.336-1.372-.79-1.866-1.363-.494-.572-.85-1.207-1.066-1.905-.217-.698-.3-1.436-.252-2.214.05-.778.243-1.542.58-2.29l.022-.05c.337-.75.78-1.398 1.324-1.944.546-.546 1.156-.968 1.83-1.265.676-.297 1.39-.447 2.14-.45.753-.002 1.496.16 2.23.49.883.397 1.6.93 2.15 1.597.552.668 1.03 1.463 1.437 2.387l3.72-1.723c-.22-.578-.49-1.14-.806-1.682-.317-.543-.698-1.054-1.143-1.534-.445-.48-.976-.94-1.59-1.375-.616-.437-1.332-.84-2.148-1.206-1.35-.606-2.69-.922-4.02-.95-1.33-.025-2.58.194-3.75.66-1.172.465-2.227 1.142-3.168 2.03-.94.89-1.69 1.96-2.252 3.208l-.023.05c-.56 1.25-.864 2.524-.91 3.825-.043 1.302.153 2.536.59 3.703.437 1.167 1.1 2.23 1.99 3.19.89.96 1.978 1.73 3.26 2.305.85.382 1.65.655 2.397.82.747.166 1.47.24 2.168.223.7-.016 1.375-.108 2.03-.274.656-.166 1.318-.39 1.985-.67z" fill="#28295C"/><path d="M325.986 144.64l9.967-16.382-3.606-2.19-9.967 16.38 3.606 2.192z" fill="#28295C"/><path d="M350.605 143.434l2.338-3.11-12.708-9.543-2.338 3.11 4.667 3.505-9.187 12.218 3.374 2.534 9.188-12.218 4.667 3.504z" fill="#28295C"/><path d="M369.02 155.803l-3.4-3.383-8.735 2.166 2.192-8.68-3.494-3.48-2.978 13.427-5.34 5.356 2.99 2.975 5.397-5.413 13.367-2.97z" fill="#28295C"/><path d="M165.842 351.144l-8.557-9.488-12.825 12.335 1.227 1.38 5.587-5.374 6.508 7.24 1.32-1.27-6.508-7.24 4.58-4.404 7.33 8.108 1.338-1.286z" stroke="#28295C" stroke-width=".797" fill="#28295C"/><path d="M211.734 381.16l5.91 2.195.604-1.754-13.272-4.94-.603 1.755 5.618 2.07-5.175 15.07 1.742.675 5.177-15.07z" stroke="#28295C" stroke-width=".797" fill="#28295C"/><path d="M230.393 384.434l-7.88-1.815-3.635 17.412 8.176 1.89c.865.198 1.67.303 2.425.265.754-.038 1.427-.197 2.018-.477.59-.28 1.084-.684 1.48-1.213.398-.53.674-1.166.83-1.912.124-.597.144-1.15.06-1.66-.085-.51-.243-.97-.476-1.376-.233-.408-.533-.784-.898-1.128-.365-.345-.767-.65-1.204-.917.35-.07.693-.18 1.035-.33.34-.15.667-.36.978-.632.31-.27.583-.604.817-1 .233-.395.41-.882.532-1.463.138-.663.143-1.295.013-1.894-.13-.6-.382-1.143-.757-1.63-.376-.485-.86-.912-1.45-1.278s-1.28-.648-2.065-.844zm-1.914 7.688l-5.82-1.3 1.25-5.994 5.956 1.333c1.133.284 1.948.76 2.445 1.424.498.665.655 1.437.472 2.316-.215 1.028-.717 1.723-1.508 2.083-.79.36-1.716.38-2.795.14zm-1.012 8.043l-6.453-1.457 1.282-6.144 6.136 1.378c1.398.314 2.385.872 2.986 1.572.6.7.8 1.53.6 2.493-.207.995-.716 1.68-1.525 2.052-.81.372-1.812.38-3.027.105z" stroke="#28295C" stroke-width=".797" fill="#28295C"/><path d="M249.64 386.49l-1.725-.13-9.08 17.738 1.888.14 2.567-4.644 9.675.51 1.75 4.84 1.98.146-7.056-18.6zm2.664 11.757l-8.23-.403 4.6-9.085 3.63 9.487z" stroke="#28295C" stroke-width=".797" fill="#28295C"/><path d="M282.248 402.54l11.813-2.183-.382-1.814-9.993 1.874-3.292-15.59-1.82.31 3.675 17.404z" stroke="#28295C" stroke-width=".797" fill="#28295C"/><path d="M344.997 353.16l-1.43 1.162 6.752 8.143c1.243 1.5 1.55 2.605 1.55 4.08 0 1.503-1.028 2.742-2.172 3.727-1.22 1.05-2.1 1.57-3.94 1.57-1.384 0-2.983-1.025-4.26-2.474l-6.64-8.078-1.433 1.164 6.724 8.172c.796.97 1.69 1.67 2.582 2.188.892.52 1.898.945 2.98.945 2.035 0 3.34-.533 5.088-1.92 1.645-1.246 3.113-3.285 3.113-5.486.02-2.138-1.18-4.11-2.382-5.49l-6.533-7.705z" stroke="#28295C" stroke-width=".797" fill="#28295C"/><path d="M263.56 404.473l12.004-.514-.126-1.852-10.157.462-1.08-15.896-1.846.052 1.207 17.747z" stroke="#28295C" stroke-width=".797" fill="#28295C"/><path d="M329.612 385.91l10.307-6.167-.994-1.567-8.71 5.243-8.53-13.462-1.597.925 9.522 15.027z" stroke="#28295C" stroke-width=".797" fill="#28295C"/><path d="M178.616 366.26c0 4.608-3.737 8.343-8.348 8.343-4.61 0-8.348-3.735-8.348-8.343 0-4.608 3.737-8.343 8.348-8.343 4.61 0 8.348 3.735 8.348 8.343z" stroke="#28295C" stroke-width="1.912"/><path d="M198.652 379.358c0 4.608-3.738 8.343-8.348 8.343-4.61 0-8.35-3.734-8.35-8.342 0-4.607 3.74-8.343 8.35-8.343 4.61 0 8.348 3.736 8.348 8.343z" stroke="#28295C" stroke-width="1.912"/><path d="M354.373 343.428l-5.534 5.894 13.23 11.898 5.746-6.112c.608-.647 1.103-1.29 1.45-1.96.347-.672.548-1.333.603-1.984.055-.65-.047-1.28-.304-1.89-.258-.608-.67-1.167-1.238-1.677-.453-.408-.922-.704-1.405-.887-.483-.184-.96-.277-1.43-.28-.468-.005-.944.065-1.426.207-.48.142-.947.335-1.397.58.114-.337.193-.69.234-1.06.042-.37.024-.76-.054-1.164-.078-.404-.23-.807-.454-1.208-.224-.4-.557-.8-.998-1.195-.504-.454-1.048-.775-1.63-.965-.585-.19-1.18-.245-1.79-.165-.61.08-1.222.282-1.836.61-.614.325-1.204.778-1.77 1.358zm5.685 5.52l-4.05 4.373-4.555-4.095 4.148-4.473c.816-.836 1.637-1.302 2.462-1.396.826-.095 1.572.158 2.24.758.78.703 1.13 1.486 1.043 2.35-.086.865-.535 1.673-1.287 2.484zm6.448 4.92l-4.506 4.84-4.668-4.198 4.278-4.606c.975-1.05 1.954-1.622 2.86-1.79.91-.167 1.73.078 2.46.736.756.68 1.092 1.463 1.007 2.35-.084.886-.582 1.756-1.43 2.668z" stroke="#28295C" stroke-width=".797" fill="#28295C"/><path d="M320.315 385.586c-1.18 2.745-2.805 4.812-6.497 4.812-3.69 0-6.644-2.952-6.644-6.64 0-3.69 2.953-6.64 6.644-6.64 1.028 0 1.998.228 2.864.637l1.094-3.225c-1.216-.525-2.554-.816-3.958-.816-5.53 0-10.05 4.517-10.05 10.043 0 5.527 4.52 10.043 10.05 10.043 4.545 0 8.407-3.05 9.64-7.205" fill="#28295C"/></g></svg>