<svg width="512" height="512" viewBox="0 0 512 512" xmlns="http://www.w3.org/2000/svg"><title>new-york-red-bulls</title><g fill="none" fill-rule="evenodd"><path d="M462.822 297.9c-.148-.6-.38-1.246-.568-1.75l-.177-.47c-.145-.384-.284-.752-.426-1.162l-.146-.52-.02-.337c.193-2.19-.355-3.327-1.213-4.816-.662-1.164-1.593-1.62-2.215-1.648-.16.463-.59.742-1.07.742l-.2-.015c-.615-.096-1.04-.705-.97-1.323l.043-.483c.018-.583-.11-1.104-.4-1.647-.733-1.377-6.025-5.743-8.033-5.743-1.63 0-3.338.895-4.577 2.395-.22.274-.55.426-.896.426l-.11-.007c-.385-.035-.722-.258-.91-.602-.177-.328-.33-.68-.467-1.052-.36-.958-.575-1.934-.778-2.88l-.156-.723c-.562-2.456-1.385-4.93-4.658-5.885-.262-.08-.61-.138-1.028-.17-.354-.038-.74-.053-1.133-.064l-.297-.008c-.658-.014-1.337-.034-2.012-.128-1.34-.197-2.236-.635-2.236-2.143 0-.13.022-.26.064-.382l.36-1.036c.267-.756.65-1.924.95-3.312.564-2.577.606-4.94.13-7.02-.088-.376.022-.77.286-1.048.218-.24.526-.374.85-.374l.166.013c1.348.206 2.44.222 2.743.222 6.978 0 18.054-4.565 18.054-16.825 0-7.038-5.694-13.737-10.464-18.114-.31-.29-.447-.724-.34-1.14.1-.413.42-.736.83-.846 6.787-1.774 10.528-6.303 10.528-12.746v-.43c.004-1.005.01-2.145-.194-3.37-.282-1.713-.914-3.295-1.918-4.837-.11-.16-.28-.343-.657-.343l-.282.038c-.267.073-.56.253-.758.386-.63.418-1.545 1.197-2.273 1.83-.828.71-1.825 1.24-3.22 1.707-.85.285-1.734.52-2.676.77-.492.126-.994.258-1.522.408-3.23.91-6.767 2.225-10.697 5.69-1.792 1.59-3.04 4.23-3.16 6.73-.11 2.1.67 4.27 2.39 6.636 1.483 2.062 3.455 4 5.52 5.97l.73.7c.75.72 1.497 1.433 2.204 2.14 1.078 1.074 1.886 1.954 2.546 2.765 1.637 2.017 2.4 3.673 2.4 5.216 0 3.29-2.348 5.504-5.91 5.504-3.934-.03-6.962-1.545-11.17-4.332l-1.98-1.332c-1.4-.944-2.84-1.92-4.448-2.93-2.917-1.823-5.61-3.274-8.48-4.558-.797-.356-1.588-.67-2.408-.955V92.407h-294.65V228.95c-1.504.38-2.947.89-4.39 1.566-1.98.934-3.975 2.13-6.484 3.874-1.083.752-2.145 1.524-3.19 2.295-.934.68-1.855 1.352-2.772 1.994-4.133 2.902-7.677 4.834-11.52 4.834-3.795 0-6.49-2.225-6.86-5.67-.323-3.04 1.225-6.108 4.362-8.65l1.73-1.39c1.28-1.032 2.49-2.003 3.584-2.94 1.82-1.566 3.062-2.833 4.015-4.09 2.36-3.108 2.957-6.307 1.945-10.37-.914-3.653-3.717-6.14-8.573-7.6-1.732-.526-3.494-.843-5.144-1.11l-.574-.093c-.508-.08-.968-.155-1.364-.23-.532-.095-.904-.19-1.12-.28-2.633-1.176-8.357-5.015-9.505-5.79l-.47-.314-.318.466c-1.05 1.504-1.87 2.696-2.498 7.927-.69 5.773 4.057 12.822 12.23 14.112.454.072.824.41.942.856.117.448-.042.922-.407 1.21-8.646 6.815-10.487 9.74-10.944 17.4-.28 4.745 1.375 9.4 4.552 12.778 3.466 3.686 8.49 5.633 14.535 5.633 1.61 0 3.31-.14 5.05-.41l.18-.014c.26 0 .516.086.718.25.258.2.413.5.44.822.403 5.328 1.366 9.66 2.57 11.594.294.47.213 1.093-.196 1.47-.375.342-.96.68-1.706.967-1.845.723-4.64 1.17-7.43 1.17-1.74 0-3.033 1.196-4.074 3.77-.34.835-.612 1.725-.886 2.588l-.075.242c-.14.44-.268.845-.4 1.2-.12.332-.247.638-.382.89-.348.622-.865 1.233-1.577 1.865-.216.192-.49.292-.766.292l-.198-.014c-.346-.06-.648-.278-.82-.582-.85-1.54-2.196-2.523-3.992-2.916l-.04-.003h-.18c-2.655 0-7.24 2.248-8.932 6.47-.16.392-.522.675-.944.718l-.21.027c-2.12.22-3.45 1.207-4.204 3.095-.314.8-.5 1.697-.65 2.478l-.114.577c-.12.65-.247 1.31-.412 1.95-.133.515-.315.967-.59 1.47l-.4.688-.28.47c-.47.866-.71 1.753-.333 3.264.17.692.717 1.288 1.62 1.78.668.365 1.532.678 2.57.928 1.843.45 3.667.593 4.018.593.255 0 .505-.073.75-.214.178-.096.345-.23.54-.376.21-.16.494-.262.767-.262l.18.014.857.163c.708.136 1.59.314 2.464.49l.143.032 2.335.458.925.16.607.06h.008c3.65-.176 5.193-1.597 6.214-2.962.288-.386.545-.79.798-1.216l.412-.706.312-.526c.298-.515.595-.983.923-1.43.225-.305.573-.476.94-.476l.3.036c.417.113.836.192 1.193.256.848.147 1.62.22 1.95.24l.707.026c3.456 0 6.03-1.93 8.166-3.74l.698-.598.97-.827c.428-.354.99-.817 1.574-1.202 1.038-.694 1.914-1.014 2.767-1.014l.21.008c.83.05 3.953.28 9.25 1.122.226.03.458.048.693.048.888 0 1.96-.228 3.202-.682v25.068c0 17.59 2.254 24.36 7.652 33.77l.303.525.337.507c31.293 46.825 83.27 74.784 139.037 74.784 55.762 0 107.733-27.954 139.034-74.78l.338-.504.306-.532c5.39-9.403 7.644-16.172 7.644-33.77v-24.16c.39.05.79.075 1.2.074.88 0 1.785-.118 2.696-.346.98-.256 1.96-.378 2.994-.378.514 0 1.02.034 1.505.085 1.3.143 2.458.432 3.39.668l.246.065c1.518.38 2.957.978 4.396 1.838 1.182.71 2.18 1.468 3.145 2.206l.257.194c1.91 1.455 3.896 2.96 6.663 2.96l.332-.007c.185-.01.398-.064.49-.093l.533-.17c.376-.135.826-.316 1.273-.498.433-.167.922-.362 1.482-.472l.224-.022c.383 0 .742.188.96.51l.444.693c.278.453.56.917.924 1.388 1.066 1.377 3.01 3.22 7.55 3.338l1.193.014c2.362 0 3.817-.18 4.47-.29l.194-.016c.234 0 .465.067.662.21.48.334.994.498 1.56.498 1.224 0 3.036-.37 4.512-.917.873-.32 1.59-.692 2.125-1.087.693-.518 1.098-1.094 1.194-1.703.073-.463.027-1.01-.144-1.684" fill="#FFF"/><path d="M395.243 284.628c-1.99-2.703-3.32-6.282-3.838-10.336-.042-.343-.238-.65-.527-.83-.19-.12-.407-.185-.622-.185l-.35.052c-.412.13-.847.236-1.288.33v41.345c0 15.174-1.76 18.75-5.292 24.91-26.982 40.367-72.582 66.89-124.295 66.89-51.714 0-97.32-26.524-124.298-66.89-3.527-6.16-5.29-9.736-5.29-24.91v-41.187l-.31.01h-.328c-.442 0-.846.246-1.044.636-.512 1.036-1.02 2.072-1.495 3.06l-.863 1.77c-.795 1.616-1.61 3.213-2.214 3.973-.535.673-1.138 1.195-1.716 1.605v30.135c0 16.128 1.936 21.19 6.35 28.885l.138.24.152.23c29.477 44.105 78.418 70.44 130.92 70.44 52.5 0 101.442-26.333 130.92-70.44l.152-.23.134-.233c4.418-7.7 6.35-12.758 6.35-28.893V286.02c-.532-.438-.972-.89-1.342-1.392" fill="#23326A"/><path d="M127.783 223.63l.428-.397 1.23-1.113V110.187h259.175v111.33c.795.527 1.586 1.06 2.355 1.582.684.47 1.365.928 2.016 1.366 1.21.8 2.38 1.32 3.598 1.72V102.2H121.47v125.23c1.19-.312 2.374-.782 3.588-1.567.774-.502 1.586-1.197 2.723-2.233" fill="#23326A"/><path d="M119.578 227.813V100.3h278.898v126.41c.494.12 1 .23 1.526.34l.545.113c.76.16 1.55.332 2.35.52V95.87h-287.74v132.444c.676-.084 1.338-.15 1.99-.214.83-.083 1.634-.167 2.43-.286" fill="#23326A"/><path d="M398.71 287.44l-.234-.148v27.712c0 16.597-2.013 21.837-6.6 29.836l-.168.295-.19.282c-29.828 44.63-79.358 71.273-132.49 71.273-53.133 0-102.665-26.643-132.493-71.273l-.19-.286-.167-.29c-4.59-8.008-6.602-13.247-6.602-29.836v-29.05l-.925.434-.136.064c-.47.212-.857.398-1.18.602-.738.46-1.47.888-2.178 1.273v26.675c0 17.58 2.302 23.52 7.19 32.047l.245.424.272.407c30.65 45.865 81.554 73.246 136.166 73.246 54.612 0 105.513-27.38 136.165-73.245l.267-.406.246-.425c4.886-8.522 7.19-14.464 7.19-32.048V289.83c-1.24-.562-2.356-1.25-3.348-1.876l-.84-.518" fill="#23326A"/><path d="M322.45 268.08c-.348 2.098 2.34 5.4 3.116 6.887.374-.76 2.63-5.926 2.97-6.554-1.1-.064-4.1-.087-6.09-.333" fill="#FABB23"/><path d="M192.73 273.427c1.07-1.91 2.254-2.208 3.044-3.186.455-1.306 1.09-2.063 1.978-3.182-2.152.327-6.24 1.103-7.972 1.425.396 1.236.772 4.096 2.95 4.945" fill="#FABB23"/><path d="M325.788 287.538c-.125-.42-.238-.852-.34-1.294-.126-.515-.57-.882-1.092-.896h-.043c-.51 0-.96.33-1.104.82-.57 1.85-2.14 4.99-6.348 5.245l-.308.012c-1.877 0-4.336-.94-5.968-1.565l-.747-.288c-.835-.323-1.658-.635-2.427-.906-1.115-.376-1.925-.576-2.553-.626l-.495-.02-.76.03c-.478.038-.976.09-1.506.147-1.03.114-2.168.24-3.304.24h-.258c-2.436-.048-4.343-.736-5.825-2.097-.22-.207-.502-.314-.786-.314-.304 0-.605.128-.833.362-3.725 3.868-8.31 5.835-13.654 5.835h-.48c-1.11-.03-3.08-.64-3.907-1.703-.33-.426-.426-.874-.304-1.394.084-.346 0-.7-.217-.985-.214-.272-.54-.438-.89-.445-3.023-.05-4.82-1.498-5.253-2.903-.338-1.1.125-2.17 1.302-3.017l.29-.202c.42-.295.917-.635 1.577-1.182.982-.812 2.12-1.904 3.478-3.328 2.798-2.93 4.904-6.51 6.612-11.235 1.462-4.033 2.454-8.438 3.41-12.694l.144-.64c1.986-8.763 4.227-18.706 11.382-26.534 5.287-5.79 9.33-8.98 20.496-16.94 1.905-1.353 3.824-2.973 5.707-4.578-8.383-11.486-19.854-20.56-33.19-26 5.832 6.772 9.365 15.588 9.365 25.237 0 21.346-17.264 38.65-38.562 38.65-21.297 0-38.558-17.306-38.558-38.65 0-9.52 3.436-18.226 9.124-24.962-12.318 5.158-23.014 13.425-31.107 23.832 2 1.418 3.923 2.906 6.273 4.84 1.59 1.307 3.318 2.78 5.352 4.512 1.432 1.218 3.016 2.566 4.812 4.082 1.06 1.036 2.404 2.573 4.04 4.653.538.682 1.07 1.367 1.58 2.026.743.96 1.436 1.865 2.06 2.624 5.003 6.143 8.09 10.232 8.804 15.285 1.38 9.83 2.284 15.423 6.13 25.287.074.184.222.423.44.696.205.273.468.56.748.846l.873.92c.3.316.592.64.834.942.62.814 1.15 1.75 1.585 2.56l.403.762c.347.658.707 1.328 1.09 1.99.89 1.524 2.187 3.434 4.37 4.67 2.3 1.29 2.758 1.56 3.547 2.298.368.347.545.752.54 1.236-.01.717-.428 1.547-1.07 2.11-.703.63-1.667 1.057-2.858 1.27-.32.056-.598.24-.772.517-.174.276-.23.61-.145.922.204.777.05 1.568-.438 2.222-.733.986-2.09 1.56-3.81 1.62l-.74.006c-7.25 0-12.167-3.417-14.456-5.452-.216-.196-.496-.298-.77-.298-.24 0-.478.075-.678.223l-.307.225c-.84.603-2.1 1.518-3.73 2.19-1.12.535-2.362.773-3.97.773-.576 0-1.138-.032-1.668-.067l-1.127-.08c-.56-.048-1.113-.09-1.66-.122l-.882-.022c-.618 0-1.143.04-1.604.125-1.305.235-2.7.703-4.18 1.196l-.983.328c-1.723.557-3.717 1.166-5.514 1.24l-.432.01c-2.628 0-4.488-1-5.528-2.965-.213-.407-.39-.846-.54-1.346-.14-.458-.536-.784-1.004-.82l-.114-.01c-.428 0-.824.238-1.02.627l-.074.133c13.133 23.72 38.367 39.775 67.35 39.775 28.868 0 54.017-15.93 67.193-39.497l-.025-.075" fill="#FABB23"/><path d="M174.197 136.247c0-9.225-7.245-16.7-16.183-16.7-.273 0-1.525.002-1.792.018H137.4v56.54h11.425v-46.784l6.813-.062c4.22 0 7.426 3.313 7.426 7.402 0 4.086-3.422 7.394-7.64 7.394l-2.653.063v13.468l11.417 18.52h13.467l-15.785-23.628c7.078-1.786 12.328-8.376 12.328-16.23" fill="#ED1E36"/><path d="M186.73 154.344c0-3.81 3.014-6.9 6.732-6.9 3.717 0 6.73 3.09 6.73 6.9H186.73zm6.633-14.804c-10.057 0-18.213 8.458-18.213 18.893s8.16 18.91 18.22 18.91c7.673 0 13.663-3.565 16.753-9.14l-8.948-4.23c-1.137 2.524-3.8 4.296-6.905 4.296-4.143 0-7.497-3.157-7.497-7.045l-.073-.393 24.346.01c.07-.773.112-1.563.104-2.37.167-12.226-7.726-18.932-17.787-18.932z" fill="#ED1E36"/><path d="M225.79 158.802c0-4.89 3.66-8.85 8.173-8.85 4.514 0 8.172 3.958 8.172 8.85 0 4.888-3.66 8.85-8.172 8.85-4.512 0-8.173-3.96-8.173-8.85m27.31 6.593l-.01-47.67h-11.144l.044 27.37c-2.95-2.896-6.89-4.65-11.187-4.65-9.193 0-16.647 8.07-16.647 18.027 0 9.95 7.454 18.02 16.647 18.02l.2-.003c5.815-5.89 13.505-9.907 22.098-11.093" fill="#ED1E36"/><path d="M369.903 118.16h10.74v58.03h-10.74v-58.03z" fill="#ED1E36"/><path d="M333.702 161.835c0 3.394-2.818 6.146-6.296 6.146s-6.298-2.75-6.298-6.145V141.45H310.17v22.552c0 7.637 7.7 13.826 17.198 13.826 9.498 0 17.195-6.19 17.195-13.826v-22.55h-10.86v20.383" fill="#ED1E36"/><path d="M288.05 166.24h-10.276v-36.833h7.172c3.148 0 5.7 2.693 5.7 6.018 0 3.322-2.552 6.018-5.7 6.018h-3.73v10.213h6.835c3.818 0 6.702 3.25 6.702 7.277-.135 4.168-2.552 7.038-6.7 7.31m8.993-21.056c2.935-2.894 4.73-6.772 4.73-11.034 0-3.865-1.403-7.41-3.862-10.2-2.56-2.98-7.097-4.3-13.226-4.3H266.33v46.192c7.373 1.544 13.967 5.198 19.136 10.302h4.577c9.085-.155 16.397-7.444 16.397-16.33 0-6.47-2.153-11.078-9.395-14.63" fill="#ED1E36"/><path d="M351.753 118.16h10.735v58.03h-10.735v-58.03z" fill="#ED1E36"/><path d="M229.426 224.527c11.24 8.142 27.092 9.433 39.48 2.758 13.458-6.98 21.608-21.363 20.366-36.864-.233-2.25-.59-4.438-1.178-6.567 3.798 5.73 5.985 12.517 5.985 19.824 0 19.742-15.972 35.753-35.676 35.753-11.938 0-22.503-5.877-28.98-14.906" fill="#C6CCD2"/><path d="M247.89 212.61c-8.336-2.02-14.035-4.04-14.035-4.04-.898-8.63-.136-16.15-.136-16.15 3.606-1.883 13.4-6.27 13.4-6.27 4.656 5.296 9.102 12.393 9.102 12.393-2.155 4.177-8.334 14.066-8.334 14.066h.002zm-13.75-35.142c-.84 1.37-3.29 5.498-5.497 10.423-2.08 2.613-3.897 5.27-4.68 6.438 1.77-6.56 5.35-12.367 10.178-16.86zm37.428 20.797s3.123-6.54 6.878-11.833c0 0 7.223 3.41 10.625 6.197 0 0 1.25 3.894.416 15.31 0 0-4.31 2.508-10.556 4.042 0 0-4.24-7.17-7.362-13.717zm-16.183 26.8l15.42-.415 2.984 8.424c-5.833 3.48-12.848 5.293-12.848 5.293-7.36-1.607-11.597-4.806-11.597-4.806l6.042-8.492-.002-.002zm3.016-57.145c4.707 0 9.2.914 13.31 2.573-.143.66-.643 2.548-2.087 4.94-7.434-.974-15.697-.206-15.697-.206l-6.868-5.46c3.56-1.197 7.38-1.846 11.343-1.846zm-22.853 63.21c-5.91-4.95-10.197-11.78-11.944-19.57 1.908 1.98 5.6 5.78 5.6 5.78 2.22 4.6 7.777 12.602 7.777 12.602-.4.442-1.027.91-1.433 1.188z" fill="#23326A"/><path d="M144.466 337.367l3.442 4.175 11.632-9.648c3.543-2.94 10.402-9.193 13.59-12.218l.095.115c-7.917 8.647-14.472 17.69-21.69 26.146l3.254 3.947 40.136-33.28-3.44-4.173-11.64 9.656c-3.54 2.93-10.4 9.19-13.588 12.21l-.095-.115c7.916-8.647 14.468-17.687 21.69-26.144l-3.252-3.943-40.135 33.276v-.003" fill="#23326A"/><path d="M213.26 331.73l-8.575-6.573c-2.375-1.818-5.75-1.366-7.567 1.015l-25.08 32.882c-1.818 2.38-1.37 5.765 1.007 7.585l8.58 6.57 3.278-4.295-8.575-6.574 10.9-14.298 6.43 4.934 3.28-4.296-6.432-4.933 10.9-14.292 8.577 6.574 3.278-4.303v.004" fill="#23326A"/><path d="M201.04 384.534l4.685 1.842c4.275-6.724 9-13.197 13.82-23.323l.137.056c-3.325 10.71-4.245 18.674-5.666 26.518l4.684 1.842 20.64-47.975-5.094-2.002c-3.478 8.69-7.116 17.388-10.525 26.106-1.22 3.13-2.312 6.317-3.537 9.448l-.134-.05c2.26-8.384 3.07-14.27 4.412-20.103l-4.21-1.655c-2.972 5.2-6.367 10.067-10.39 17.755l-.135-.056 3.81-9.34c3.408-8.715 6.635-17.576 9.975-26.322l-5.093-2-17.378 49.253v.004" fill="#23326A"/><path d="M269.583 396.55l5.372-.595-2.547-23.185c1.596-.842 2.787-2.002 3.59-3.414.79-1.485 1.122-3.14.94-4.81l-2.315-21.08-5.366.59 2.56 23.334-5.367.593-2.562-23.34-5.365.597 2.314 21.082c.186 1.67.866 3.21 1.96 4.488 1.085 1.208 2.505 2.08 4.243 2.55l2.542 23.192" fill="#23326A"/><path d="M309.186 381.11l-5.034 1.968-14.983-38.568 5.028-1.966 14.988 38.568zm-10.887 1.82c1.616 4.152 6.338 6.233 10.49 4.614 4.142-1.618 6.218-6.35 4.6-10.506l-13.337-34.346c-1.62-4.16-6.337-6.24-10.486-4.615-4.146 1.612-6.227 6.346-4.608 10.506l13.34 34.346z" fill="#23326A"/><path d="M311.59 332.795l4.354-3.205 10.62 14.503-4.352 3.203-10.62-14.5zm23.277 40.933l4.352-3.202-13.816-18.867 4.35-3.205 11.53 15.743c.778 1.058 2.108 1.892 3.228 2.43l4.468-3.285c-1.368-.63-2.486-1.17-3.342-2.35l-10.274-14.026c-1.903-2.595-3.432-2.832-4.793-2.463.63-1.37.95-2.782-.518-4.79l-9.756-13.326c-1.77-2.414-5.134-2.933-7.545-1.16l-8.704 6.405 30.82 42.098v-.002z" fill="#23326A"/><path d="M334 303.644l-3.616 4.217s.79 2.296 2.536 3.805l9.923 8.548s3.92 3.02.25 7.304l-17.01-14.657-3.507 4.09 39.5 34.037 3.486-4.078-18.272-15.746s3.5-4.102 6.91-1.168c2.916 2.51 11.73 10.112 11.73 10.112s1.866 1.79 3.923 1.818l3.612-4.213s-2.273-.196-4.73-2.303l-9.766-8.418s-6.485-6.21-12.29.557c0 0 5.034-6.81-2.287-13.118-5.77-4.976-8.66-7.46-8.66-7.46s-1.38-1.4-1.733-3.327" fill="#23326A"/><path d="M161.977 281.733c1.35 1.482 1.28 3.772 2.828 4.918 2.016.34 3.83-.467 5.38-1.682.875-.738-.406-1.682-.54-2.562-.872-1.28-.27-3.842-2.422-3.91-2.15.336-4.3.41-6.454.41l-.606.403c-.402 1.28 1.48 1.28 1.813 2.423" fill="#ED1E36"/><path d="M59.98 288.882c-1.077.533-2.22 1.547-2.488 2.76-.34 2.157.135 4.182-1.55 5.73-.065.403-.47.87-.065 1.278 1.48.472 2.892 1.078 4.708 1.282.803-2.634 1.41-5.528 2.35-7.82v-.678c-.807-1.008-1.615-2.29-2.957-2.557" fill="#ED1E36"/><path d="M226.644 259.804l-.205.573-.178.586c-.197.53-.504.826-.964.937-.27.078-.53.038-.733-.115-.204-.156-.326-.403-.326-.684l-.04-.602-.206-2.075c-.167-.967-.45-1.71-.897-2.334l-.907-1.06-1.027-1.167c-.79-.79-1.5-1.17-2.24-1.196-.577.18-1.1.563-1.658 1.177l-.718.88-.627.847c-.227.398-.742.176-.745.17l-.092-.045-.036-.095c-.164-.408-.223-.796-.223-1.163 0-.647.196-1.224.39-1.697l.548-1.122.627-1.328.083-.12c.19-.184.37-.508.578-1.054l.167-.458.367-.942c.557-1.198 1.384-1.52 2.6-1.002.943.505 1.523 1.303 1.96 2.02l.3.497.383.634.795 1.013c2.17 2.44 3.22 4.74 3.22 7.12 0 .592-.065 1.198-.197 1.804m-8.238 18.364l-.015.035-.065.002c-1.247.394-2.656.56-4.192.483l-.086-.017-.28-.125-.297-.185c-.15-.12-.374-.38-.245-.76.58-1.756 2.314-3.765 4.496-4.216l.188-.006h.305l.49.067c.237.067.64.263.744.84.033.322.064.68.064 1.05 0 1.037-.218 2.165-1.107 2.833m-25.624-44.45l-.167-.043-.02.066-.045.048c-.192.188-.53.33-.87.1l-.092-.062-.022-.11c-.522-2.686-1.12-5.532-2.207-8.176l-.623-1.07-.242-.336-.533-.773c-.425-.68-.837-1.6-.268-2.69l.062-.084c.492-.49 1.354-.53 1.946-.308l.075.04c1.145.79 1.886 2.105 2.426 3.06.68 1.585 1.027 3.573 1.027 5.626 0 1.568-.2 3.173-.612 4.668l.167.042m52.772 47.477c-4.033-2.36-5.642-6.805-8.133-10.315-.872-1.28-2.418-2.09-3.228-3.37-2.89-7.89-5.377-15.773-6.116-24.804-.605-2.223-1.073-4.513-2.288-6.604-3.63-5.932-8.334-11.326-12.91-16.785-.404-.402-.407-.44-1.276-1.28l-15.936-13.275c-1.95-1.482-4.17-2.427-6.39-3.438-3.36-1.282-7.933-1.012-11.224.407-3.43 1.818-6.524 4.448-10.158 5.66-5.24 2.358-11.158 2.83-15.665 6.876-2.62 2.294-4.84 5.864-8.743 5.256-4.37-.204-8.268 1.415-11.564 4.11-2.962 2.698-5.778 5.864-9.615 6.607-3.36 1.415-7.462.737-10.89 2.02-5.45 1.346-9.75 5.662-14.386 8.966-4.64 2.692-9.08 5.592-14.867 5.458-3.76-.27-7.393-2.898-8.603-6.537-1.143-4.182.132-8.492 3.43-11.324 3.43-4.11 8.87-6.54 11.566-11.256 1.412-2.494 1.207-6.535-.676-8.894-3.564-3.708-8.674-3.846-13.31-4.99-2.958-.812-5.247-3.1-7.87-4.515-1.008 1.548-1.343 3.236-1.207 5.122.537 4.248 3.762 8.085 7.796 9.568 2.353 1.015 5.044.274 7.462.812.676.267 1.35.94 1.41 1.682-.124.676-.194 1.35-.8 1.82-3.766 3.17-7.73 6.2-10.895 10.11-3.36 3.64-3.765 10.04-2.012 14.63 1.948 5.254 7.394 8.693 12.635 9.366 3.835.607 7.267-.405 10.76-1.145.472 0 .675.474.874.74.338 3.1-.134 5.864.54 8.696.604 2.63 1.48 4.45 2.418 7.008.137.874 0 1.82-.605 2.495-1.946 1.488-3.967 2.5-6.117 3.444l-5.242.333-1.01.477c-1.952 2.293-2.017 4.65-3.225 7.208-1.618 2.7-4.573 3.974-7.065 5.526-.804 1.282-1.682 2.63-2.82 3.643-.88.81-1.952 1.012-3.095 1.146-1.816 2.09-2.218 4.986-2.694 7.82 2.962.27 6.06 1.884 8.948.27 2.488-1.152 3.027-4.183 4.91-6 1.48-1.618 3.7-.405 5.446-.07 2.62.134 4.505-1.752 6.726-2.627 1.54-1.008 2.82-2.762 4.432-3.777 3.097-1.477 7.397-.674 10.626-.064 2.553.672 5.244.27 7.462-.744 2.087-1.275 4.035-2.897 6.386-3.436 2.085-1.076 3.098-3.436 3.97-5.388.667-1.825 2.418-3.237 2.284-5.325-.54-.478-1.14-1.49-1.948-1.425-1.01 1.424-1.748 2.9-2.89 4.254-4.864 6.65-8.686 7.275-18.56 7.275-7.33-.27-13.92 1.96-18.96 7.686-.337.204-.81.065-1.077-.2-.2-.81.476-2.154.808-2.76 4.507-6.4 11.498-7.883 18.892-8.014 4.033-.278 7.868-.948 11.3-2.697 3.83-1.954 6.45-5 8.067-8.777.87-4.246 1.212-8.83 2.288-12.874.13-.403 1.14-.706 1.47-.57.404.066 1.205.434 1.205.908-.734 4.175-2.073 9.093-.46 13.138 3.227 4.255 9.214 1.962 13.586 1.756 4.572-.406 8.247-.047 12.618.22 2.15-.063 3.743.463 5.42-.884.468-.74.66-1.75.526-2.554-.137-1.215-1.144-1.946 0-2.96.334-.27 1.34-.09 1.606.248.605 1.686.875 3.504 1.952 4.987 2.152 2.766 5.31 4.926 8.266 6.473 2.823 1.96 5.18 4.722 5.382 8.156 0 1.753-1.615 2.963-2.96 3.776-2.286 1.143-4.777 2.087-7.462 1.818-3.57-1.75-4.507-5.528-6.86-8.292-1.207-1.345-3.024-1.616-4.84-1.48-1.953.2-3.9.266-5.648.877-.47.403-.605 1.006-.54 1.617 1.212 2.222 2.557 4.38 3.9 6.602 1.55.943 3.7-.54 5.043 1.142 1.142 1.756 1.883 3.847 3.634 5.195 1.684 1.478 4.237 2.153 6.454 1.212 4.977-1.553 9.954-3.167 14.594-5.662h1.543c1.883-.202 3.97-.067 5.314-1.483 1.48-2.158 2.69-4.178 3.834-6.47 1.142-1.553.605-3.912.138-5.596-2.288-2.83-3.568-6.003-4.78-9.24-1.138-.338-2.15-1.01-3.425-.944-.602.268-1.48.132-1.818.81l5.313 10.52c.333.81.74 1.952.537 3.03-.74 2.23-1.884 4.38-3.695 5.998-.337.205-.74.41-1.01-.064.603-2.293 1.68-4.784 1.546-7.415l-5.173-9.373c-.608-1.283-1.685-2.427-1.618-3.912 0-.676.6-1.144 1.145-1.413 2.285-.745 5.04-.606 6.788-2.424 2.29-3.58 2.764-7.082 3.37-11.327.133-.27.677-.788 1.08-.788.403-.133.863.455 1.06.655.68 4.65-.266 9.366-2.954 13.007-.134.473-.337 1.08.2 1.416 2.556.81 5.245 0 7.397-1.145 2.757.067 5.31-.606 7.803-1.01.267.13.535.404.535.672-1.678 1.887-2.623 3.977-3.093 6.408-2.02 2.09-4.91 3.91-5.113 6.947.337 1.477 1.616.064 2.49.2.403.07.67.405.67.807l-2.014 2.964c-1.078 1.757.2 3.776.2 5.462.472 1.345 2.085 2.022 3.495 2.022 3.03-.133 5.718-1.28 8.41-2.227 2.957-1.28 6.654-1.215 9.884-.675 3.16-.2 5.513-2.29 7.865-4.38 1.278 0 2.42.877 3.293 1.825 3.627 3.903 8.337 5.59 13.65 5.457l.47-.27c.34-.34.202-.942-.203-1.213l-3.156-1.62c-2.22-1.42-4.978-3.303-5.714-5.8-.674-2.222-1.886-4.65-3.232-6.807l-2.015-3.033c.13-.138.267-.34.47-.27 3.496 1.218 5.582 4.653 7.193 7.754 2.56 3.57 6.255 6.602 11.096 5.8l.405-.34c.204-.27.135-.606 0-.808l-2.424-1.214h-.006" fill="#ED1E36"/><path d="M67.035 288.675c2.086-1.214 3.43-3.503 4.507-5.46-.2-.74-.944-1.277-1.55-1.82-.398-.335-1.003-.068-1.48.066-1.48 1.282-3.02 2.294-4.638 3.31-.672.467-.402 1.48-.536 2.22 0 .676.805 1.144 1.212 1.55.74.34 1.678.407 2.485.135" fill="#ED1E36"/><path d="M352.46 279.713c-1.817.337-3.905-.067-5.72.2-.802 1.215-1.544 2.697-1.343 4.318.2 1.684 2.085 1.82 3.295 2.29 1.144.132 2.82.537 3.435-.67.67-1.758 1.275-3.643 1.546-5.53-.136-.54-.678-.742-1.212-.607" fill="#ED1E36"/><path d="M335.47 217.766l-.287.57-.315.505c-.003-.002-2.12 1.974-2.12 1.974l-2.273 2.126c-1.7 1.66-2.898 3.06-3.76 4.412-.72.993-1.265 2.15-1.796 3.266-.163.333-.567.342-.786.268l-.126-.04-.038-.123c-.146-.428-.21-.88-.21-1.374 0-.376.036-.78.12-1.213l.417-1.684.212-.76c1.287-3.436 4.17-7.026 7.9-9.833.484-.305 1.373-.523 2.055-.31.412.128.706.402.876.803.168.278.246.55.246.83 0 .19-.035.38-.11.582l.16.057-.163-.057m-27.43 38.324l-.183.65c-.155.216-.354.473-.6.63-.214.124-.54.227-.897.002-.355-.143-.637-.365-.873-.687l-.287-.436-.247-.43c-.3-.518-.59-.912-1.29-.858-.63-.032-1.085.22-1.484.502l-.44.327-.247.19-.707.477-.963.823-.42.353-1.352 1.26c-.98 1.023-1.51 1.955-1.68 2.93l-.184.708-.054.306-.086.43c-.096.472-.26.995-.74 1.293-.322.094-.718.027-1.024-.194-.244-.18-.386-.436-.386-.704-.273-3.25.868-6.292 3.123-8.352 1.144-.943 2.11-2.077 2.905-3.066l.882-1.122 1.767-2.187.2-.105c1.28-.247 2.08.9 2.366 1.403 1.11 1.438 2.014 3.058 2.846 5.12.052.144.075.297.075.457l-.02.285m-1.547 23.336l-.042.085c-.438.313-.98.44-1.738.406l-1.285-.147-.428-.064-.093-.03c-1.288-.72-1.603-2.186-1.75-3.662 0-.5.164-.885.507-1.153l.065-.06h.095c1.768 0 3.104.53 3.967 1.578l.042.074.266.522.4.833.157-.062-.158.063c.118.312.177.596.177.863 0 .266-.06.517-.184.756m143.26 12.89c-3.432.2-5.115-3.506-7.127-5.664-1.684-1.953-4.978-3.094-4.91-5.998-.605-1.143-.743-2.96-1.278-4.447-.472-1.21-.942-2.968-2.555-3.234-2.89-.47-6.39.335-8.206-2.36-1.875-2.027.207-4.384.542-6.34.805-2.494.876-5.8.474-8.358-.068-1.485-1.078-2.696-.808-4.18.673-1.28 2.288-.337 3.29-.202 3.768 1.08 8.208.54 11.632-.942 4.71-2.293 8.476-7.08 8.275-12.54-.678-7.076-5.72-12.87-11.162-17.453-1.007-.88-2.288-1.822-2.623-3.102-.135-2.764 2.955-1.416 4.51-2.09 1.878-.473 3.76-.945 5.31-2.02 4.1-2.768 4.975-7.62 4.168-12.336-.134-.404-.134-1.014-.738-1.014-.74.61-1.48 1.486-2.42 2.023-2.625 1.553-6.127 1.283-8.877 2.632-3.43 1.485-7.667 3.568-9.147 7.48-.405 1.956.07 3.976.948 5.594 4.162 6.605 12.972 10.918 14.388 18.87.532 3.236-1.08 5.596-3.568 7.415-3.77 2.29-9.413 1.482-13.175-.54-7.265-3.64-13.588-9.706-21.39-12.2-4.905-2.22-10.954-1.686-15.327-5.125-3.293-2.155-6.32-4.987-10.016-5.927-2.56-.876-5.448-.742-7.797-2.023-2.43-2.158-4.98-4.18-7.806-5.594-3.897-1.956-8.203-2.965-12.504-3.912-2.556-.606-3.493-3.433-5.58-4.852-3.567-2.83-7.53-4.853-12.372-4.447-2.015.135-3.565 1.482-5.116 2.83-10.282 9.03-22.052 15.233-31.46 25.546-6.326 6.538-8.01 14.828-10.36 22.848-3.36 12.133-4.772 25.482-16.943 32.965-.203.337-.203.946.198 1.214 3.23.81 6.388-.477 8.54-2.696 2.086-3.308 4.306-6.473 7.13-9.505l.676-.34c.332.073.733.27.6.743l-4.032 7.343c-1.078 3.24-4.17 5.73-6.795 8.023l-.067.403c0 .338.336.675.676.742 5.917.266 10.152-3.98 14.118-7.956.41-.405.942-.335 1.48-.203 1.75 1.348 3.36 3.375 5.652 3.843 2.417-.34 4.968-.67 7.528-.468 3.56 1.08 6.995 2.555 10.556 3.77 1.814-.065 3.158-1.82 4.1-3.302.74-1.75-.337-3.507-.202-5.19.878-.54 1.883.13 2.826-.138.398-.266.742-.74.742-1.21-.675-3.098-3.433-5.396-4.31-8.29-1.344-3.715-5.715-5.934-6.52-9.914.202-.27.535-.673.875-.404 2.892 2.09 5.45 4.852 9.01 5.39 2.69.274 5.447.54 8.135.338.404-.133.74-.607.605-1.076-1.14-2.427-2.216-4.853-2.892-7.483-.938-3.3-1.617-7.883-.537-11.526.2-.268 1.076-.784 1.48-.652.537.136 1.2.787 1.27 1.26.405 5.732-.192 10.987 3.235 15.502 1.478 2.36 4.036 2.832 5.852 4.652.67.946.804 2.492.335 3.572l-4.1 6.07c-.944 1.348-1.884 2.832-2.222 4.316-.335 1.685-.136 3.3 0 4.92-.267.13-.4-.27-.672-.405-1.076-2.225-2.283-5.056-1.14-7.685l5.173-8.026.204-.606c-1.14-.607-2.42-1.21-3.63-1.483-.604.273-1.01.876-1.412 1.42l-5.04 9.167c-.342 1.076-.676 1.888-.41 3.035.272 1.348.603 2.7 1.214 3.838.402 1.893.735 3.174 1.61 4.856 1.278 1.416 3.03.135 4.644.54 1.614.405 2.22 2.356 3.828 2.832 3.633 1.206 7.535 1.884 11.162 3.3 1.887.604 4.575 1.348 6.255-.205 2.352-1.273 2.96-3.77 3.367-6.133.733-1.01 2.213-.604 3.292-.935 2.018-1.352 2.69-3.78 4.168-5.597l.268-.946c-.203-.607-.74-.944-1.278-1.146h-6.856c-3.164.405-3.435 3.912-4.774 6.07-.743 1.348-2.22 1.883-3.768 1.753-3.23-.88-7.194-1.348-8.675-4.856-.204-.874-.204-1.953.47-2.562 1.68-1.953 3.7-4.173 5.785-5.792 2.96-.61 5.852-2.833 7.39-5.465.812-1.148.678-2.832 2.023-3.71.405-.067 1.3-.094 1.57.31.606 1.952-.488 3.355-1.092 5.04 7.33.742 13.012-1.38 20.138-1.11 3.028 0 5.74.347 8.697.142 2.965-.135 6.187-1.35 7.128-4.45 1.347-3.977-.523-8.492-1.204-12.268l.814-.64c.478-.27 1.265.102 1.6.37 1.278 3.574 2.15 7.888 2.69 11.794.537 3.44 2.016 5.677 3.9 8.58 3.427 5.117 9.48 7.138 15.468 5.855 7.26-.535 13.51 3.302 17.954 8.96v.338c-.14.266-.407.606-.743.542-3.832-2.97-7.667-6.138-12.574-6.74-4.962-.91-9.415 1.68-14.59-.408-6.238-2.06-8.857-5.91-11.497-12.07h-.54c-.4.067-.667.476-.736.88l.673 4.182c.806 3.37 1.887 7.348 5.517 8.895 2.823 1.686 5.572 4.11 9.075 3.166 6.12-1.348 12.302.406 17.008 3.843 1.55.876 2.755 2.495 4.44 3.098 1.814.737 4.034.335 5.514-.88 3.43-1.14 4.236 3.173 6.59 4.72 2.086 2.023 6.247 1.19 9.005 1.19l-.064-.31c-.334-2.767-1.078-4.922-2.15-7.346" fill="#ED1E36"/><path d="M458.897 295.824c-.336-1.555.067-3.71-.94-5.125-.876-.677-1.682-1.685-2.823-1.42-.946.814-2.354 1.75-2.153 3.17.805 2.424 1.348 4.173 1.818 6.672.268.47 0 1.415.74 1.415l4.302-1.415c.74-1.212-.674-2.157-.94-3.3" fill="#ED1E36"/><path d="M448.006 281.803c-1.347-1.15-2.754.536-3.43 1.55.473 1.615 1.812 2.963 2.825 4.448.54.81 1.41 1.346 2.355 1.415.94 0 1.68-.47 2.352-1.01.47-.61 1.006-1.352.81-2.222-1.282-1.753-3.297-2.84-4.91-4.18" fill="#ED1E36"/></g></svg>