<svg width="512" height="512" viewBox="0 0 512 512" xmlns="http://www.w3.org/2000/svg"><title>new-york-red-bulls</title><g fill="none" fill-rule="evenodd"><path d="M462.822 297.9c-.148-.6-.38-1.246-.568-1.75l-.177-.47c-.145-.384-.284-.752-.426-1.162l-.14-.52-.02-.337c.2-2.19-.35-3.32-1.21-4.81-.66-1.16-1.59-1.62-2.21-1.65-.16.47-.59.74-1.07.74l-.2-.01c-.61-.09-1.04-.7-.97-1.32l.05-.48c.02-.58-.11-1.1-.4-1.65-.732-1.37-6.024-5.74-8.032-5.74-1.63 0-3.336.9-4.575 2.4-.22.277-.55.43-.894.43l-.11-.008c-.386-.034-.723-.26-.91-.6-.178-.33-.33-.68-.468-1.05-.36-.96-.573-1.936-.776-2.88l-.156-.725c-.563-2.454-1.386-4.93-4.66-5.883-.26-.08-.61-.136-1.03-.17-.35-.036-.74-.05-1.13-.062l-.298-.007c-.658-.017-1.337-.037-2.01-.13-1.34-.2-2.238-.636-2.238-2.144 0-.13.02-.26.06-.384l.36-1.034c.27-.76.65-1.924.95-3.312.567-2.573.61-4.94.13-7.02-.085-.372.025-.77.29-1.044.22-.24.526-.38.85-.38l.166.014c1.347.208 2.44.224 2.742.224 6.976 0 18.052-4.567 18.052-16.827 0-7.035-5.696-13.734-10.466-18.11-.31-.29-.448-.725-.34-1.14.1-.414.42-.737.83-.847 6.786-1.77 10.53-6.3 10.53-12.74v-.43c0-1.01.01-2.15-.197-3.37-.284-1.717-.916-3.3-1.92-4.84-.11-.16-.28-.34-.657-.34l-.282.033c-.263.076-.56.256-.754.39-.63.42-1.547 1.2-2.275 1.83-.83.71-1.825 1.24-3.22 1.71-.85.286-1.734.52-2.676.77-.49.127-.993.26-1.52.41-3.23.91-6.768 2.224-10.698 5.69-1.797 1.59-3.04 4.23-3.16 6.73-.11 2.1.67 4.27 2.39 6.635 1.48 2.06 3.45 4 5.52 5.97l.73.7c.75.72 1.492 1.43 2.2 2.14 1.08 1.07 1.885 1.95 2.545 2.76 1.637 2.016 2.4 3.67 2.4 5.215 0 3.29-2.35 5.502-5.91 5.502-3.934-.03-6.962-1.548-11.17-4.335l-1.98-1.33c-1.4-.944-2.84-1.92-4.45-2.93-2.915-1.823-5.61-3.274-8.48-4.56-.795-.355-1.586-.67-2.406-.954V92.41H111.71v136.54c-1.505.38-2.948.89-4.39 1.566-1.98.934-3.976 2.13-6.485 3.874-1.084.752-2.146 1.524-3.19 2.295-.935.68-1.856 1.352-2.773 1.994-4.133 2.9-7.677 4.83-11.52 4.83-3.795 0-6.49-2.23-6.86-5.67-.323-3.04 1.225-6.11 4.362-8.65l1.73-1.39c1.28-1.03 2.49-2.01 3.583-2.94 1.82-1.57 3.062-2.84 4.015-4.09 2.36-3.11 2.957-6.31 1.945-10.37-.914-3.66-3.717-6.14-8.573-7.6-1.732-.53-3.494-.85-5.144-1.11l-.574-.1c-.508-.08-.968-.16-1.364-.23-.532-.1-.904-.19-1.12-.28-2.633-1.18-8.357-5.02-9.505-5.79l-.47-.32-.318.46c-1.05 1.505-1.87 2.697-2.5 7.928-.69 5.772 4.05 12.82 12.23 14.11.45.073.82.41.94.857.11.45-.05.924-.41 1.21-8.65 6.817-10.49 9.74-10.95 17.4-.28 4.747 1.37 9.4 4.55 12.78 3.46 3.686 8.49 5.633 14.53 5.633 1.61 0 3.31-.14 5.05-.41l.18-.01c.26 0 .514.085.72.25.254.2.41.5.44.82.4 5.33 1.362 9.66 2.57 11.595.29.47.21 1.093-.2 1.47-.377.342-.96.68-1.708.967-1.846.726-4.64 1.17-7.43 1.17-1.74 0-3.034 1.2-4.075 3.77-.34.838-.61 1.728-.884 2.59l-.075.244c-.14.44-.268.848-.4 1.2-.12.335-.247.64-.38.89-.35.625-.867 1.236-1.58 1.868-.215.19-.49.29-.765.29l-.196-.016c-.343-.06-.65-.278-.82-.58-.85-1.54-2.193-2.525-3.99-2.918l-.04-.005h-.18c-2.653 0-7.24 2.248-8.93 6.47-.16.39-.52.675-.944.718l-.21.027c-2.12.22-3.45 1.21-4.206 3.094-.31.8-.5 1.696-.65 2.477l-.11.576c-.12.65-.25 1.31-.414 1.95-.133.516-.315.97-.59 1.47l-.4.69-.28.47c-.47.865-.71 1.75-.333 3.263.17.69.72 1.286 1.62 1.78.67.363 1.535.676 2.57.926 1.846.45 3.67.593 4.02.593.256 0 .506-.07.75-.214.18-.1.346-.23.54-.38.21-.16.495-.26.768-.26l.18.014.858.16c.708.137 1.59.315 2.464.49l.148.033 2.337.457.928.16.61.06h.01c3.65-.176 5.194-1.597 6.215-2.96.29-.39.545-.79.8-1.22l.41-.706.312-.525c.296-.51.593-.98.92-1.43.225-.3.573-.47.94-.47l.3.032c.417.112.836.19 1.193.255.846.147 1.62.22 1.95.24l.705.026c3.457 0 6.03-1.93 8.167-3.74l.7-.6.97-.825c.43-.357.99-.82 1.576-1.205 1.04-.694 1.92-1.014 2.77-1.014l.21.01c.83.05 3.958.28 9.25 1.123.23.03.46.05.698.05.887 0 1.96-.227 3.2-.68V315c0 17.59 2.255 24.36 7.653 33.77l.305.524.34.508c31.293 46.824 83.27 74.783 139.037 74.783 55.766 0 107.737-27.953 139.038-74.78l.338-.503.306-.533c5.39-9.41 7.64-16.17 7.64-33.77v-24.16c.39.05.79.07 1.2.07.88 0 1.79-.12 2.7-.35.98-.26 1.96-.38 2.994-.38.51 0 1.02.03 1.502.08 1.3.142 2.46.43 3.39.67l.246.062c1.52.38 2.96.977 4.398 1.837 1.183.71 2.18 1.47 3.146 2.206l.258.193c1.91 1.457 3.898 2.96 6.665 2.96l.334-.005c.186-.01.4-.065.49-.094l.534-.17c.376-.135.826-.316 1.273-.5.43-.17.92-.362 1.48-.472l.224-.02c.385 0 .744.19.96.51l.446.692c.28.453.56.917.926 1.39 1.064 1.376 3.01 3.22 7.55 3.34l1.19.013c2.364 0 3.82-.18 4.47-.29l.196-.016c.233 0 .464.07.66.21.48.335.994.5 1.56.5 1.224 0 3.036-.37 4.51-.916.875-.32 1.59-.69 2.13-1.085.69-.52 1.1-1.096 1.192-1.705.08-.46.03-1.01-.14-1.684" fill="#FFF"/><path d="M395.243 284.628c-1.99-2.703-3.32-6.282-3.838-10.336-.042-.343-.238-.65-.527-.83-.19-.12-.407-.185-.622-.185l-.35.052c-.412.13-.847.23-1.288.33V315c0 15.174-1.76 18.75-5.292 24.91-26.982 40.367-72.582 66.89-124.295 66.89-51.71 0-97.32-26.524-124.29-66.89-3.52-6.16-5.29-9.736-5.29-24.91v-41.187l-.31.01h-.33c-.44 0-.84.246-1.04.636-.51 1.03-1.02 2.07-1.49 3.06l-.86 1.77c-.79 1.61-1.61 3.21-2.21 3.97-.534.67-1.14 1.19-1.715 1.6V315c0 16.13 1.937 21.19 6.35 28.886l.14.24.15.23c29.478 44.107 78.42 70.44 130.92 70.44 52.5 0 101.44-26.33 130.92-70.44l.15-.23.135-.23c4.415-7.7 6.35-12.76 6.35-28.894V286.02c-.535-.438-.975-.89-1.345-1.392M127.79 223.63l.43-.397 1.23-1.113V110.187h259.17v111.33c.795.527 1.586 1.06 2.355 1.582.685.47 1.366.92 2.017 1.36 1.21.8 2.38 1.32 3.597 1.72V102.2H121.47v125.23c1.19-.312 2.374-.782 3.588-1.567.774-.502 1.586-1.197 2.723-2.233" fill="#23326A"/><path d="M119.578 227.813V100.3h278.898v126.41c.494.12 1 .23 1.526.34l.545.113c.76.16 1.55.332 2.35.52V95.87h-287.74v132.444c.676-.084 1.338-.15 1.99-.214.83-.083 1.634-.167 2.43-.286M398.71 287.44l-.234-.148v27.712c0 16.597-2.013 21.837-6.6 29.836l-.168.295-.19.282c-29.828 44.63-79.358 71.273-132.49 71.273-53.133 0-102.665-26.643-132.493-71.273l-.19-.286-.167-.29c-4.59-8-6.602-13.24-6.602-29.83v-29.05l-.925.44-.13.07c-.47.21-.85.4-1.18.6-.74.46-1.47.89-2.18 1.277v26.675c0 17.58 2.3 23.52 7.19 32.047l.25.425.27.407c30.65 45.866 81.56 73.25 136.17 73.25 54.62 0 105.52-27.38 136.17-73.248l.27-.406.25-.422c4.886-8.52 7.19-14.46 7.19-32.045v-25.18c-1.24-.563-2.356-1.25-3.35-1.877l-.84-.52" fill="#23326A"/><path d="M322.45 268.08c-.348 2.098 2.34 5.4 3.116 6.887.374-.76 2.63-5.926 2.97-6.554-1.1-.064-4.1-.087-6.09-.333m-129.716 5.347c1.07-1.91 2.254-2.208 3.044-3.186.455-1.3 1.09-2.06 1.978-3.18-2.152.33-6.24 1.11-7.972 1.43.396 1.24.772 4.1 2.95 4.95" fill="#FABB23"/><path d="M325.788 287.538c-.125-.42-.238-.852-.34-1.294-.126-.515-.57-.882-1.092-.896h-.043c-.51 0-.96.33-1.104.82-.57 1.85-2.14 4.99-6.35 5.245l-.31.012c-1.88 0-4.34-.94-5.97-1.565l-.75-.288c-.84-.323-1.66-.635-2.43-.906-1.12-.376-1.93-.576-2.56-.626l-.497-.02-.76.03c-.48.038-.977.09-1.507.147-1.03.114-2.17.24-3.305.24h-.26c-2.435-.048-4.34-.736-5.824-2.097-.22-.207-.5-.314-.785-.314-.305 0-.606.128-.834.362-3.723 3.868-8.31 5.835-13.65 5.835h-.48c-1.11-.03-3.08-.64-3.91-1.703-.33-.426-.423-.874-.3-1.394.085-.346 0-.7-.216-.985-.215-.27-.54-.43-.89-.44-3.024-.05-4.82-1.5-5.254-2.9-.338-1.1.125-2.17 1.302-3.01l.29-.2c.42-.29.917-.63 1.577-1.18.98-.81 2.12-1.9 3.48-3.33 2.798-2.93 4.904-6.51 6.61-11.23 1.46-4.033 2.454-8.44 3.41-12.694l.144-.64c1.985-8.763 4.226-18.706 11.38-26.534 5.29-5.79 9.33-8.98 20.5-16.94 1.9-1.35 3.82-2.97 5.702-4.574-8.38-11.485-19.853-20.56-33.19-26 5.833 6.77 9.366 15.59 9.366 25.238 0 21.348-17.268 38.65-38.566 38.65-21.297 0-38.558-17.304-38.558-38.65 0-9.52 3.433-18.224 9.12-24.96-12.317 5.158-23.013 13.425-31.106 23.83 2 1.42 3.926 2.908 6.276 4.84 1.59 1.31 3.314 2.78 5.35 4.514 1.43 1.218 3.014 2.566 4.81 4.08 1.06 1.038 2.402 2.575 4.04 4.655.536.683 1.07 1.368 1.58 2.027.74.96 1.434 1.865 2.06 2.624 5 6.145 8.09 10.234 8.802 15.287 1.38 9.83 2.28 15.426 6.13 25.29.07.18.22.42.44.695.202.274.465.56.745.847l.874.92c.3.32.593.64.835.945.62.814 1.15 1.75 1.584 2.56l.405.76c.345.66.705 1.33 1.09 1.99.89 1.526 2.185 3.436 4.37 4.67 2.3 1.29 2.756 1.56 3.545 2.3.368.347.545.75.54 1.236-.01.715-.43 1.545-1.07 2.11-.703.63-1.667 1.055-2.86 1.27-.32.054-.6.24-.77.515-.174.276-.23.61-.145.92.205.778.05 1.57-.44 2.22-.732.987-2.09 1.56-3.81 1.62l-.74.007c-7.25 0-12.17-3.416-14.455-5.45-.217-.196-.497-.298-.77-.298-.24 0-.48.074-.68.22l-.307.225c-.84.604-2.1 1.52-3.73 2.19-1.12.536-2.36.774-3.97.774-.574 0-1.14-.033-1.67-.07l-1.13-.08c-.56-.05-1.11-.09-1.66-.12l-.88-.024c-.614 0-1.14.04-1.6.12-1.303.237-2.7.705-4.18 1.2l-.98.324c-1.725.56-3.72 1.168-5.516 1.24l-.434.01c-2.63 0-4.49-1-5.53-2.963-.216-.407-.39-.846-.54-1.346-.14-.457-.54-.783-1.007-.82l-.112-.01c-.43 0-.825.24-1.02.628l-.075.138c13.135 23.72 38.37 39.77 67.35 39.77 28.87 0 54.02-15.93 67.195-39.5l-.03-.075" fill="#FABB23"/><path d="M174.197 136.247c0-9.225-7.245-16.7-16.183-16.7-.273 0-1.525.002-1.792.018H137.4v56.54h11.425V129.32l6.813-.06c4.22 0 7.426 3.312 7.426 7.4 0 4.087-3.422 7.395-7.64 7.395l-2.653.063v13.468l11.42 18.52h13.47l-15.78-23.628c7.08-1.786 12.33-8.376 12.33-16.23m12.53 18.096c0-3.81 3.02-6.9 6.74-6.9s6.73 3.09 6.73 6.9h-13.47zm6.64-14.804c-10.053 0-18.21 8.458-18.21 18.893s8.16 18.91 18.22 18.91c7.675 0 13.665-3.565 16.755-9.14l-8.95-4.23c-1.136 2.524-3.8 4.296-6.904 4.296-4.144 0-7.5-3.16-7.5-7.05l-.074-.4 24.348.01c.07-.78.114-1.57.106-2.37.165-12.23-7.728-18.93-17.79-18.93zm32.43 19.262c0-4.89 3.66-8.85 8.175-8.85 4.514 0 8.17 3.958 8.17 8.85 0 4.888-3.66 8.85-8.17 8.85-4.513 0-8.174-3.96-8.174-8.85m27.31 6.593l-.01-47.67h-11.15l.044 27.37c-2.95-2.896-6.89-4.65-11.188-4.65-9.2 0-16.65 8.07-16.65 18.027 0 9.95 7.45 18.02 16.644 18.02l.2-.003c5.814-5.89 13.504-9.91 22.1-11.1m116.8-47.24h10.74v58.03h-10.74v-58.03zm-36.2 43.67c0 3.39-2.82 6.14-6.3 6.14s-6.3-2.75-6.3-6.144v-20.38h-10.94V164c0 7.638 7.7 13.827 17.2 13.827s17.194-6.19 17.194-13.826v-22.55H333.7v20.39m-45.653 4.41h-10.27v-36.84h7.17c3.15 0 5.7 2.695 5.7 6.02 0 3.32-2.55 6.018-5.7 6.018h-3.73v10.213h6.836c3.82 0 6.704 3.25 6.704 7.277-.135 4.168-2.552 7.038-6.7 7.31m8.993-21.056c2.935-2.9 4.73-6.78 4.73-11.04 0-3.866-1.403-7.41-3.862-10.2-2.56-2.98-7.09-4.3-13.22-4.3h-18.36v46.19c7.374 1.545 13.968 5.2 19.137 10.303h4.578c9.086-.156 16.398-7.445 16.398-16.33 0-6.47-2.15-11.08-9.39-14.63m54.71-27.028h10.73v58.03h-10.74v-58.03z" fill="#ED1E36"/><path d="M229.426 224.527c11.24 8.142 27.092 9.433 39.48 2.758 13.458-6.98 21.608-21.363 20.366-36.864-.233-2.25-.59-4.43-1.178-6.56 3.798 5.73 5.985 12.52 5.985 19.83 0 19.74-15.98 35.76-35.68 35.76-11.94 0-22.51-5.875-28.98-14.904" fill="#C6CCD2"/><path d="M247.89 212.61c-8.336-2.02-14.035-4.04-14.035-4.04-.898-8.63-.136-16.15-.136-16.15 3.6-1.883 13.4-6.27 13.4-6.27 4.65 5.296 9.1 12.393 9.1 12.393-2.16 4.177-8.34 14.066-8.34 14.066zm-13.75-35.142c-.84 1.37-3.29 5.498-5.497 10.423-2.08 2.62-3.897 5.27-4.68 6.44 1.77-6.56 5.35-12.36 10.178-16.86zm37.428 20.797s3.123-6.54 6.878-11.833c0 0 7.223 3.41 10.625 6.197 0 0 1.25 3.89.42 15.31 0 0-4.31 2.5-10.55 4.04 0 0-4.24-7.17-7.36-13.72zm-16.183 26.8l15.42-.415 2.984 8.424c-5.84 3.48-12.85 5.293-12.85 5.293-7.36-1.607-11.6-4.806-11.6-4.806l6.04-8.49zm3.016-57.145c4.71 0 9.2.914 13.31 2.573-.14.66-.64 2.548-2.08 4.94-7.43-.974-15.69-.206-15.69-.206l-6.87-5.46c3.56-1.197 7.38-1.846 11.35-1.846zm-22.85 63.21c-5.91-4.95-10.19-11.78-11.94-19.57 1.91 1.98 5.6 5.78 5.6 5.78 2.22 4.6 7.78 12.602 7.78 12.602-.4.442-1.02.91-1.43 1.188zm-91.08 106.237l3.45 4.175 11.63-9.648c3.55-2.94 10.41-9.193 13.59-12.218l.1.115c-7.912 8.65-14.47 17.69-21.69 26.15l3.26 3.95 40.134-33.28-3.44-4.17-11.64 9.66c-3.54 2.93-10.4 9.19-13.59 12.21l-.094-.11c7.915-8.644 14.467-17.684 21.69-26.14l-3.253-3.943-40.134 33.278m68.793-5.636l-8.574-6.57c-2.38-1.818-5.75-1.366-7.57 1.015l-25.08 32.88c-1.817 2.38-1.37 5.765 1.01 7.585l8.58 6.57 3.276-4.297-8.574-6.575 10.9-14.3 6.43 4.933 3.28-4.295-6.43-4.93 10.9-14.294 8.58 6.574 3.28-4.303v.007m-12.22 52.802l4.684 1.84c4.276-6.725 9-13.198 13.82-23.324l.138.055c-3.324 10.71-4.244 18.675-5.665 26.52l4.688 1.84 20.64-47.973-5.094-2.003c-3.48 8.69-7.116 17.39-10.525 26.107-1.22 3.13-2.31 6.318-3.536 9.45l-.133-.05c2.26-8.383 3.07-14.27 4.41-20.1l-4.21-1.658c-2.97 5.2-6.367 10.07-10.39 17.757l-.135-.057 3.81-9.34c3.41-8.714 6.635-17.575 9.975-26.32l-5.095-2-17.38 49.25v.005m68.544 12.02l5.37-.593-2.547-23.187c1.597-.846 2.788-2.006 3.59-3.418.79-1.485 1.12-3.14.94-4.81l-2.314-21.08-5.37.59 2.56 23.334-5.37.593-2.56-23.34-5.37.595 2.314 21.08c.186 1.67.866 3.21 1.96 4.49 1.085 1.206 2.505 2.08 4.243 2.55l2.545 23.19m39.604-15.44l-5.035 1.966-14.982-38.57 5.025-1.97 14.983 38.57zm-10.888 1.82c1.612 4.15 6.334 6.23 10.49 4.612 4.14-1.62 6.214-6.35 4.6-10.507l-13.34-34.346c-1.62-4.16-6.338-6.24-10.487-4.614-4.15 1.612-6.23 6.346-4.61 10.506l13.34 34.347zM311.6 332.8l4.354-3.204 10.62 14.5-4.352 3.204-10.62-14.5zm23.277 40.934l4.352-3.202-13.82-18.867 4.35-3.205 11.53 15.744c.78 1.057 2.11 1.89 3.23 2.43l4.47-3.286c-1.37-.63-2.49-1.17-3.35-2.35l-10.28-14.028c-1.907-2.595-3.436-2.832-4.797-2.463.63-1.37.95-2.78-.517-4.79l-9.757-13.324c-1.77-2.414-5.134-2.933-7.545-1.16l-8.7 6.405 30.82 42.1v-.002zm-.87-70.083l-3.616 4.22s.79 2.3 2.54 3.81l9.93 8.55s3.92 3.02.25 7.307l-17.01-14.66-3.506 4.09 39.5 34.04 3.485-4.077-18.27-15.745s3.5-4.1 6.91-1.167c2.917 2.51 11.73 10.11 11.73 10.11s1.867 1.79 3.924 1.82l3.612-4.213s-2.273-.198-4.73-2.305L358.97 327s-6.49-6.21-12.29.556c0 0 5.03-6.81-2.29-13.12-5.77-4.972-8.66-7.46-8.66-7.46s-1.38-1.4-1.734-3.323" fill="#23326A"/><path d="M161.977 281.733c1.35 1.482 1.28 3.772 2.828 4.918 2.016.34 3.83-.46 5.38-1.68.875-.74-.406-1.68-.54-2.56-.872-1.28-.27-3.84-2.422-3.91-2.15.34-4.3.41-6.454.41l-.61.41c-.4 1.28 1.48 1.28 1.81 2.43m-102 7.15c-1.08.53-2.22 1.55-2.49 2.76-.34 2.16.13 4.18-1.55 5.73-.07.4-.47.87-.07 1.28 1.48.474 2.89 1.08 4.71 1.284.8-2.636 1.41-5.53 2.35-7.82v-.68c-.81-1.01-1.62-2.29-2.96-2.56" fill="#ED1E36"/><path d="M226.644 259.804l-.205.573-.18.586c-.2.53-.51.826-.97.937-.27.078-.53.038-.74-.115-.21-.156-.33-.403-.33-.684l-.04-.6-.208-2.07c-.168-.96-.45-1.71-.898-2.33l-.908-1.06-1.028-1.16c-.79-.79-1.5-1.17-2.24-1.192-.58.18-1.1.564-1.66 1.178l-.72.88-.626.85c-.223.4-.74.177-.74.17l-.09-.044-.034-.094c-.163-.407-.222-.795-.222-1.162 0-.645.2-1.222.39-1.695l.55-1.12.63-1.33.084-.12c.19-.18.37-.504.58-1.05l.165-.46.363-.94c.56-1.2 1.386-1.52 2.6-1 .945.504 1.525 1.3 1.96 2.02l.3.496.385.633.795 1.01c2.17 2.44 3.22 4.74 3.22 7.12 0 .59-.067 1.197-.2 1.803m-8.24 18.366l-.013.034h-.064c-1.25.396-2.657.56-4.19.485l-.09-.017-.28-.128-.295-.184c-.15-.12-.374-.38-.245-.76.58-1.753 2.315-3.762 4.497-4.213l.19-.004h.303l.49.067c.237.067.64.263.744.84.033.322.064.68.064 1.05 0 1.037-.22 2.165-1.104 2.833m-25.626-44.45l-.166-.043-.02.068-.044.05c-.196.19-.53.33-.87.1l-.096-.06-.024-.11c-.52-2.686-1.12-5.53-2.204-8.176l-.624-1.07-.24-.337-.535-.77c-.426-.68-.84-1.6-.27-2.69l.06-.084c.494-.49 1.356-.53 1.948-.31l.072.04c1.143.79 1.884 2.105 2.424 3.06.68 1.585 1.027 3.57 1.027 5.626 0 1.57-.2 3.176-.61 4.67l.167.04m52.77 47.48c-4.03-2.36-5.64-6.804-8.13-10.314-.87-1.28-2.417-2.09-3.227-3.37-2.89-7.89-5.38-15.772-6.118-24.803-.607-2.225-1.075-4.515-2.29-6.606-3.63-5.93-8.334-11.324-12.91-16.783-.404-.404-.407-.44-1.276-1.28l-15.94-13.277c-1.95-1.484-4.17-2.43-6.39-3.44-3.36-1.28-7.93-1.01-11.222.407-3.43 1.814-6.525 4.444-10.16 5.66-5.24 2.354-11.16 2.83-15.665 6.872-2.62 2.297-4.84 5.867-8.74 5.26-4.37-.205-8.27 1.414-11.565 4.11-2.964 2.7-5.78 5.863-9.617 6.606-3.36 1.416-7.463.738-10.89 2.02-5.45 1.347-9.75 5.663-14.387 8.967-4.64 2.693-9.08 5.593-14.868 5.46-3.76-.27-7.392-2.9-8.602-6.54-1.14-4.183.135-8.493 3.43-11.325 3.43-4.11 8.87-6.54 11.57-11.254 1.41-2.493 1.207-6.534-.676-8.893-3.564-3.706-8.674-3.844-13.31-4.99-2.958-.81-5.247-3.1-7.87-4.513-1.008 1.55-1.343 3.238-1.207 5.12.537 4.25 3.76 8.09 7.796 9.57 2.353 1.017 5.044.276 7.46.81.677.27 1.35.94 1.41 1.686-.123.677-.193 1.35-.8 1.82-3.765 3.17-7.73 6.2-10.894 10.11-3.36 3.64-3.765 10.04-2.01 14.63 1.95 5.255 7.393 8.694 12.634 9.367 3.836.603 7.268-.41 10.76-1.15.473 0 .676.475.875.74.337 3.1-.135 5.865.54 8.697.603 2.63 1.48 4.45 2.417 7.008.137.875 0 1.82-.605 2.496-1.948 1.487-3.97 2.5-6.12 3.44l-5.244.336-1.01.477c-1.95 2.295-2.014 4.65-3.222 7.21-1.615 2.7-4.57 3.974-7.062 5.526-.804 1.28-1.682 2.63-2.82 3.642-.88.81-1.952 1.014-3.095 1.148-1.816 2.09-2.218 4.988-2.694 7.82 2.965.27 6.06 1.886 8.95.27 2.49-1.15 3.03-4.18 4.91-6 1.48-1.616 3.7-.403 5.447-.07 2.62.136 4.506-1.75 6.73-2.625 1.54-1.006 2.82-2.76 4.43-3.775 3.095-1.478 7.395-.675 10.624-.065 2.554.67 5.245.27 7.46-.744 2.09-1.272 4.038-2.894 6.39-3.433 2.084-1.073 3.1-3.433 3.97-5.39.666-1.82 2.42-3.232 2.283-5.32-.54-.475-1.14-1.49-1.95-1.422-1.01 1.424-1.748 2.9-2.89 4.254-4.864 6.65-8.686 7.277-18.56 7.277-7.33-.27-13.92 1.96-18.96 7.685-.337.204-.81.065-1.077-.2-.2-.81.48-2.154.81-2.76 4.507-6.4 11.5-7.883 18.89-8.014 4.035-.28 7.87-.95 11.3-2.7 3.83-1.95 6.45-5 8.07-8.775.87-4.246 1.212-8.83 2.29-12.874.13-.4 1.14-.702 1.47-.57.404.07 1.205.438 1.205.91-.735 4.177-2.074 9.095-.46 13.14 3.226 4.256 9.213 1.963 13.585 1.757 4.572-.41 8.247-.05 12.62.22 2.15-.064 3.742.46 5.42-.885.47-.74.66-1.75.525-2.555-.135-1.214-1.142-1.945 0-2.96.336-.27 1.34-.09 1.608.25.607 1.685.877 3.503 1.954 4.986 2.15 2.765 5.31 4.925 8.266 6.47 2.823 1.96 5.18 4.72 5.38 8.157 0 1.75-1.613 2.96-2.96 3.774-2.284 1.14-4.775 2.084-7.46 1.815-3.57-1.75-4.507-5.53-6.86-8.29-1.207-1.347-3.024-1.618-4.84-1.48-1.953.2-3.9.264-5.65.875-.47.406-.603 1.01-.54 1.62 1.214 2.224 2.56 4.38 3.9 6.604 1.55.943 3.7-.54 5.045 1.142 1.14 1.758 1.884 3.85 3.635 5.197 1.68 1.475 4.232 2.15 6.45 1.21 4.976-1.555 9.953-3.17 14.593-5.664h1.54c1.886-.2 3.97-.066 5.317-1.48 1.48-2.156 2.69-4.176 3.834-6.47 1.14-1.55.605-3.91.14-5.594-2.29-2.83-3.57-6.003-4.78-9.24-1.14-.338-2.15-1.01-3.427-.944-.6.27-1.48.133-1.82.81l5.312 10.52c.33.81.74 1.953.536 3.03-.74 2.23-1.886 4.38-3.697 6-.336.204-.74.41-1.01-.065.604-2.293 1.68-4.784 1.547-7.415l-5.174-9.37c-.61-1.287-1.686-2.43-1.62-3.916 0-.678.6-1.146 1.147-1.415 2.286-.745 5.04-.606 6.79-2.424 2.29-3.58 2.763-7.08 3.37-11.328.13-.27.676-.79 1.08-.79.4-.134.86.454 1.06.654.68 4.65-.267 9.37-2.955 13.01-.13.472-.335 1.08.2 1.415 2.56.81 5.247 0 7.4-1.148 2.755.064 5.31-.61 7.8-1.01.27.13.536.4.536.67-1.68 1.886-2.625 3.976-3.095 6.41-2.02 2.09-4.91 3.91-5.11 6.944.34 1.478 1.62.065 2.49.2.403.07.67.406.67.808l-2.01 2.965c-1.08 1.76.2 3.777.2 5.463.47 1.343 2.083 2.02 3.493 2.02 3.03-.133 5.72-1.28 8.41-2.227 2.96-1.28 6.654-1.213 9.884-.673 3.16-.2 5.515-2.29 7.867-4.38 1.28 0 2.42.873 3.295 1.82 3.626 3.9 8.336 5.59 13.65 5.455l.47-.27c.34-.34.2-.94-.204-1.21l-3.153-1.62c-2.22-1.42-4.98-3.304-5.715-5.8-.673-2.22-1.885-4.65-3.23-6.808l-2.016-3.03c.13-.14.27-.34.47-.27 3.5 1.215 5.59 4.65 7.2 7.75 2.56 3.57 6.256 6.6 11.097 5.8l.407-.34c.203-.27.134-.606 0-.81l-2.425-1.213h-.008" fill="#ED1E36"/><path d="M67.035 288.675c2.086-1.214 3.43-3.503 4.507-5.46-.2-.74-.944-1.277-1.55-1.82-.398-.335-1.003-.068-1.48.066-1.48 1.29-3.02 2.3-4.638 3.31-.672.47-.402 1.48-.536 2.22 0 .68.805 1.15 1.212 1.55.74.34 1.678.41 2.485.14m285.425-8.96c-1.817.34-3.905-.06-5.72.2-.802 1.22-1.544 2.7-1.343 4.32.2 1.69 2.085 1.82 3.295 2.29 1.144.14 2.82.54 3.435-.67.67-1.75 1.275-3.64 1.546-5.53-.136-.54-.678-.74-1.212-.6" fill="#ED1E36"/><path d="M335.47 217.766l-.287.57-.315.505c-.003 0-2.12 1.98-2.12 1.98l-2.273 2.13c-1.7 1.66-2.898 3.06-3.76 4.42-.72.997-1.265 2.15-1.796 3.27-.17.333-.57.34-.79.268l-.13-.04-.04-.12c-.15-.427-.21-.88-.21-1.373 0-.375.03-.78.12-1.212l.41-1.68.21-.76c1.283-3.436 4.17-7.026 7.9-9.833.48-.305 1.37-.523 2.05-.31.413.13.707.402.877.803.17.28.246.55.246.83 0 .19-.037.38-.11.584l.16.06-.165-.058m-27.43 38.323l-.187.65c-.155.216-.354.47-.6.63-.214.12-.54.227-.897 0-.357-.14-.64-.363-.875-.685l-.286-.438-.246-.43c-.3-.517-.59-.91-1.29-.857-.63-.034-1.087.22-1.486.5l-.44.327-.244.19-.71.474-.96.824-.42.352-1.35 1.26c-.98 1.02-1.51 1.954-1.68 2.93l-.185.707-.055.306-.09.43c-.096.474-.26.997-.74 1.295-.32.09-.718.028-1.024-.193-.244-.18-.386-.436-.386-.704-.27-3.25.87-6.29 3.124-8.35 1.143-.943 2.11-2.08 2.904-3.066l.88-1.12 1.77-2.19.2-.1c1.28-.25 2.08.9 2.364 1.4 1.11 1.434 2.016 3.054 2.85 5.12.05.14.074.293.074.453l-.02.287m-1.55 23.34l-.042.084c-.438.315-.98.44-1.738.408l-1.285-.147-.422-.065-.093-.03c-1.29-.72-1.603-2.19-1.75-3.664 0-.5.164-.883.507-1.15l.063-.06h.097c1.77 0 3.106.53 3.97 1.577l.044.073.267.527.4.834.155-.06-.156.068c.112.313.17.597.17.864 0 .265-.06.516-.18.755m143.26 12.89c-3.43.2-5.11-3.506-7.124-5.664-1.683-1.956-4.977-3.097-4.91-6-.604-1.144-.742-2.96-1.277-4.45-.47-1.21-.94-2.965-2.556-3.23-2.89-.47-6.39.332-8.206-2.36-1.876-2.03.21-4.387.54-6.34.805-2.497.876-5.8.474-8.36-.067-1.486-1.077-2.697-.807-4.18.674-1.28 2.29-.338 3.29-.2 3.77 1.08 8.21.54 11.63-.945 4.71-2.293 8.48-7.08 8.278-12.54-.68-7.076-5.72-12.87-11.163-17.453-1.006-.88-2.287-1.82-2.622-3.1-.14-2.762 2.95-1.414 4.51-2.09 1.874-.47 3.76-.943 5.31-2.02 4.1-2.77 4.97-7.62 4.164-12.334-.134-.4-.134-1.01-.74-1.01-.74.61-1.48 1.483-2.42 2.02-2.623 1.554-6.125 1.284-8.875 2.633-3.43 1.485-7.668 3.568-9.148 7.48-.404 1.956.07 3.976.95 5.594 4.162 6.608 12.972 10.92 14.39 18.87.53 3.24-1.08 5.6-3.57 7.418-3.77 2.29-9.413 1.483-13.175-.54-7.267-3.64-13.59-9.705-21.39-12.2-4.907-2.22-10.956-1.685-15.33-5.124-3.294-2.153-6.32-4.985-10.017-5.925-2.56-.88-5.45-.745-7.8-2.026-2.43-2.16-4.98-4.18-7.807-5.595-3.895-1.954-8.2-2.963-12.502-3.91-2.554-.605-3.49-3.432-5.58-4.85-3.565-2.83-7.53-4.854-12.37-4.45-2.015.136-3.565 1.48-5.116 2.83-10.284 9.03-22.054 15.234-31.46 25.547-6.328 6.54-8.01 14.83-10.36 22.85-3.36 12.134-4.774 25.48-16.945 32.966-.204.34-.204.948.197 1.216 3.23.81 6.39-.48 8.54-2.697 2.087-3.308 4.307-6.47 7.13-9.505l.677-.34c.33.076.73.27.6.746l-4.033 7.345c-1.077 3.24-4.17 5.73-6.794 8.02l-.066.408c0 .34.338.678.678.74 5.92.27 10.154-3.98 14.12-7.95.41-.406.94-.336 1.48-.204 1.75 1.35 3.36 3.374 5.65 3.842 2.42-.34 4.97-.67 7.53-.47 3.56 1.08 6.995 2.557 10.556 3.77 1.817-.063 3.16-1.82 4.1-3.3.74-1.75-.334-3.507-.2-5.19.88-.54 1.887.13 2.83-.14.397-.264.74-.74.74-1.21-.674-3.096-3.432-5.394-4.31-8.29-1.343-3.713-5.714-5.932-6.52-9.912.2-.27.536-.67.876-.4 2.895 2.09 5.45 4.85 9.01 5.39 2.69.273 5.45.54 8.138.337.407-.133.74-.607.608-1.076-1.14-2.425-2.215-4.85-2.89-7.48-.938-3.3-1.617-7.885-.537-11.528.2-.27 1.074-.788 1.48-.65.535.13 1.2.782 1.27 1.26.403 5.73-.194 10.982 3.233 15.5 1.477 2.36 4.035 2.83 5.85 4.65.67.945.805 2.49.336 3.57l-4.1 6.07c-.948 1.35-1.888 2.833-2.226 4.32-.336 1.682-.137 3.3 0 4.92-.27.13-.4-.27-.673-.408-1.076-2.228-2.283-5.06-1.14-7.688l5.173-8.026.203-.604c-1.14-.603-2.42-1.21-3.63-1.48-.605.274-1.01.877-1.413 1.42l-5.04 9.168c-.342 1.077-.676 1.89-.41 3.036.27 1.346.6 2.7 1.214 3.836.405 1.89.738 3.172 1.61 4.854 1.28 1.416 3.03.135 4.647.54 1.613.405 2.22 2.356 3.827 2.83 3.636 1.208 7.538 1.886 11.165 3.3 1.885.606 4.573 1.35 6.253-.203 2.35-1.27 2.96-3.77 3.366-6.13.734-1.01 2.214-.605 3.293-.936 2.014-1.35 2.69-3.78 4.164-5.597l.266-.94c-.2-.61-.74-.945-1.276-1.147h-6.856c-3.163.406-3.434 3.91-4.773 6.07-.743 1.35-2.22 1.884-3.77 1.754-3.23-.88-7.193-1.35-8.674-4.857-.208-.874-.208-1.953.47-2.56 1.68-1.955 3.7-4.175 5.78-5.794 2.96-.61 5.85-2.835 7.39-5.467.81-1.147.678-2.83 2.023-3.71.402-.066 1.3-.093 1.57.31.603 1.953-.49 3.356-1.095 5.04 7.33.743 13.016-1.38 20.14-1.11 3.03 0 5.74.348 8.7.143 2.966-.135 6.188-1.35 7.13-4.45 1.346-3.977-.524-8.492-1.205-12.268l.815-.64c.48-.27 1.266.1 1.6.37 1.28 3.572 2.15 7.886 2.69 11.792.538 3.44 2.017 5.673 3.9 8.58 3.428 5.113 9.48 7.134 15.47 5.85 7.26-.534 13.51 3.303 17.953 8.96v.34c-.14.267-.406.607-.742.543-3.83-2.97-7.665-6.136-12.572-6.74-4.96-.91-9.415 1.68-14.59-.406-6.24-2.06-8.857-5.91-11.497-12.07h-.54c-.4.063-.67.472-.737.88l.67 4.18c.81 3.37 1.89 7.35 5.52 8.892 2.82 1.685 5.57 4.11 9.075 3.165 6.12-1.347 12.3.407 17.005 3.844 1.55.875 2.76 2.494 4.44 3.1 1.82.74 4.04.334 5.52-.88 3.43-1.14 4.235 3.172 6.59 4.72 2.085 2.022 6.246 1.19 9.004 1.19l-.067-.31c-.336-2.768-1.08-4.92-2.15-7.347m9.14 3.51c-.337-1.557.066-3.71-.94-5.127-.877-.676-1.68-1.684-2.824-1.42-.946.815-2.354 1.75-2.153 3.17.805 2.425 1.35 4.174 1.82 6.67.266.47 0 1.42.74 1.42l4.3-1.42c.74-1.21-.674-2.157-.94-3.3" fill="#ED1E36"/><path d="M448.006 281.803c-1.347-1.15-2.754.536-3.43 1.55.473 1.615 1.812 2.963 2.825 4.448.54.81 1.41 1.35 2.36 1.42.94 0 1.68-.47 2.35-1.01.47-.61 1.01-1.35.81-2.22-1.28-1.75-3.29-2.84-4.91-4.18" fill="#ED1E36"/></g></svg>