<svg width="512" height="512" viewBox="0 0 512 512" xmlns="http://www.w3.org/2000/svg" xmlns:xlink="http://www.w3.org/1999/xlink"><title>philadelphia-union</title><defs><path id="a" d="M.493.275H350.51V349.72H.492"/></defs><g fill="none" fill-rule="evenodd"><g transform="translate(79 81)"><mask id="b" fill="#fff"><use xlink:href="#a"/></mask><path d="M175.502.28C79.005.28.495 78.864.495 175.45c0 96.596 78.51 175.17 175.007 175.17 96.498 0 175.003-78.574 175.003-175.17C350.505 78.862 272 .28 175.502.28" fill="#B09247" mask="url(#b)"/></g><path d="M254.502 88.084c-92.75 0-168.21 75.53-168.21 168.37 0 92.834 75.46 168.36 168.21 168.36 92.752 0 168.205-75.526 168.205-168.36 0-92.84-75.453-168.37-168.205-168.37" fill="#0C2950"/><path d="M254.502 141.194c-63.492 0-115.147 51.708-115.147 115.257 0 63.556 51.655 115.26 115.147 115.26 63.493 0 115.148-51.704 115.148-115.258 0-63.548-51.655-115.256-115.148-115.256m0 235.26c-66.11 0-119.884-53.834-119.884-120.002 0-66.17 53.775-120.005 119.884-120.005 66.105 0 119.885 53.833 119.885 120.004 0 66.168-53.78 120.003-119.885 120.003" fill="#FFF"/><path d="M254.502 141.194c-63.492 0-115.147 51.708-115.147 115.257 0 63.556 51.655 115.26 115.147 115.26 63.493 0 115.148-51.704 115.148-115.258 0-63.548-51.655-115.256-115.148-115.256" fill="#B09247"/><path d="M352.785 248.338c-2.383-.84-4.71-1.574-4.71-1.574-29.26-8.75-60.76-13.217-93.72-13.217-32.545 0-64.856 4.604-93.803 13.255 0 0-2.136.68-4.628 1.536l5.49 4.977c4.578-1.38 9.244-2.647 13.98-3.82 8.656 50.807 38.582 93.323 79.207 115.81 40.6-22.477 70.52-64.935 79.2-115.7 4.57 1.14 9.077 2.362 13.498 3.7l5.488-4.967" fill="#0C2950"/><path d="M254.54 227.72c28.207 0 55.34 3.278 80.946 9.682.608-5.998.926-12.095.926-18.277 0-13.586-1.534-26.775-4.355-39.385-8.052 2.808-16.618 4.33-25.502 4.33-19.598 0-37.617-7.39-51.95-19.75-14.335 12.36-32.35 19.75-51.958 19.75-8.88 0-17.445-1.523-25.502-4.33-2.82 12.61-4.343 25.8-4.343 39.385 0 6.184.323 12.28.93 18.277 25.492-6.333 53.065-9.682 80.807-9.682" fill="#0C2950"/><path d="M173.73 237.4c-.607-5.998-.925-12.094-.925-18.272 0-13.59 1.518-26.775 4.34-39.39l.283.094-.284-.487-2.378 3.26c-2.918 13.212-5.684 29.62-5.684 43.918 0 4.007.132 7.983.372 11.924 1.413-.373 2.853-.696 4.277-1.048m158.33-57.655l.012-.006c2.82 12.613 4.343 25.797 4.343 39.387 0 6.18-.317 12.27-.92 18.273 1.42.352 2.866.675 4.268 1.047.247-3.94.378-7.917.378-11.93 0-14.29-2.763-30.7-5.683-43.912l-2.382-3.26-.274.476.258-.08.003.006m-77.46-38.552c-13.532 0-26.502 2.4-38.574 6.715v34.996c14.438-2.522 27.644-9.073 38.67-18.59 10.948 9.44 24.04 15.964 38.34 18.53V147.82c-12.03-4.275-24.96-6.626-38.435-6.626" fill="#5B8FD2"/><path d="M254.6 371.706c63.494 0 115.15-51.7 115.15-115.256 0-18.257-4.3-35.51-11.892-50.86h-1.368c5.75 13.388 8.954 28.124 8.954 43.616 0 47.64-30.08 88.242-72.27 103.828v-3.245c23.957-25.944 40.388-60.438 45.284-99.06l-4.75-1.24c-8.652 50.814-38.48 93.323-79.106 115.816-40.63-22.493-70.453-65.002-79.107-115.816l-4.753 1.24c4.897 38.623 21.328 73.117 45.286 99.06v3.244c-42.19-15.586-72.272-56.187-72.272-103.828 0-15.49 3.204-30.228 8.95-43.615h-1.364c-7.586 15.35-11.885 32.604-11.885 50.86-.003 63.554 51.648 115.257 115.144 115.257" fill="#5B8FD2"/><path d="M114.922 227.44c.4-.745.647-1.38.756-1.902.214-1.053.033-1.84-.56-2.38-.585-.542-1.746-.98-3.493-1.343-2.338-.483-4.015-.538-5.034-.154-.742.255-1.252 1.028-1.516 2.343-.24 1.13-.212 1.968.077 2.505.15.33.38.565.68.724.303.154.82.314 1.54.462l12.13 2.5c.59.115 1.07.213 1.427.268.36.066.668.098.897.105.253.01.445 0 .614-.034.165-.032.344-.093.526-.19.416-.21.74-.51.964-.904.236-.39.46-1.07.674-2.013l2.586.532-2.914 14.15-2.58-.534c.127-.91.154-1.595.044-2.067-.104-.455-.367-.85-.783-1.18-.137-.115-.262-.203-.383-.286-.115-.075-.28-.14-.498-.195-.22-.06-.483-.134-.806-.21-.307-.077-.734-.17-1.244-.28l-11.83-2.433c-.564-.115-1.025-.203-1.408-.268-.372-.073-.68-.1-.92-.11-.236-.007-.443.01-.613.053-.164.043-.345.098-.514.17-.428.208-.735.486-.933.838-.213.34-.422.927-.64 1.733l-2.59-.525 1.746-8.45c.22-1.085.406-2.044.553-2.893.148-.86.29-1.76.434-2.687.082-.542.17-1.07.257-1.556.088-.49.164-.912.24-1.24.548-2.648 1.644-4.41 3.336-5.285 1.67-.873 4.14-.976 7.4-.302 3.106.64 5.264 1.754 6.436 3.338 1.204 1.585 1.51 3.74.946 6.464-.422 2.062-1.22 3.674-2.404 4.853l-2.598-1.617m28.2-45.315c-.46.767-.838 1.294-1.14 1.585-.296.29-.67.476-1.128.558-.202.05-.383.068-.563.05-.165-.014-.367-.06-.598-.13-.224-.077-.498-.192-.838-.35-.33-.16-.762-.373-1.3-.654l-10.712-5.575c-.46-.245-.843-.45-1.122-.612l-.72-.41c-.184-.11-.332-.227-.43-.33l-.292-.385c-.32-.433-.47-.893-.43-1.375.043-.477.274-1.162.674-2.05l-2.34-1.213-4.99 9.606 8.81 4.45-3.594 6.92-8.797-4.49-4.875 9.397 2.333 1.223c.43-.73.807-1.235 1.108-1.52.29-.29.68-.483 1.123-.565.193-.022.38-.028.55-.028.18 0 .383.04.607.116.23.07.515.192.86.36.334.16.77.374 1.288.643l10.707 5.575c.472.243.84.447 1.124.605.286.165.525.3.712.422.197.11.334.226.427.335.1.105.192.225.29.373.34.433.488.89.45 1.36-.04.466-.25 1.14-.64 1.995l2.338 1.217 4.94-9.495-10.626-5.493 3.593-6.914 10.643 5.454 4.897-9.434-2.333-1.216m-4.087-20.922c-.442-.373-.81-.68-1.106-.92-.29-.237-.542-.425-.75-.55-.192-.12-.39-.208-.553-.252-.173-.044-.35-.07-.54-.1-.466-.02-.882.073-1.233.28-.357.22-.827.62-1.413 1.217l-1.998-1.722 9.305-10.743 1.99 1.733c-.576.745-.943 1.342-1.08 1.79-.153.445-.103.928.116 1.432.06.16.126.3.192.427.07.13.174.267.344.42.154.16.357.346.592.57.24.23.56.516.953.857l9.124 7.916c.455.4.828.708 1.12.938.284.24.524.41.727.543.208.116.388.208.548.27.164.043.34.075.54.08.48.024.89-.07 1.245-.285.355-.21.83-.62 1.428-1.217l1.977 1.734-9.294 10.728-1.993-1.727c.576-.745.937-1.344 1.085-1.787.138-.45.11-.927-.12-1.43-.054-.165-.13-.307-.19-.434-.067-.126-.176-.268-.34-.42l-.592-.577c-.247-.22-.564-.505-.954-.846l-9.124-7.925m45.828-15.73l-17.866 13.557-1.588-2.1c.717-.62 1.193-1.13 1.423-1.534.24-.406.294-.883.18-1.42-.03-.175-.067-.33-.105-.467-.022-.13-.115-.294-.242-.48-.126-.176-.28-.405-.465-.68-.192-.27-.44-.614-.757-1.03l-7.294-9.626c-.35-.466-.646-.84-.882-1.14-.247-.297-.444-.52-.63-.686-.164-.165-.334-.29-.493-.368-.153-.084-.322-.15-.503-.21-.45-.114-.883-.11-1.273.03-.387.125-.93.43-1.632.892l-1.593-2.105 11.33-8.612 1.6 2.105c-.72.608-1.2 1.124-1.44 1.545-.247.412-.312.9-.192 1.432.03.175.06.33.104.466.028.13.116.296.236.483.126.185.28.41.47.68.193.268.44.613.75 1.03l7.494 9.884c.27.357.493.63.652.828.175.208.323.372.443.493.114.118.235.2.334.238.094.05.21.066.346.066.157 0 .305-.016.448-.048.142-.045.3-.105.47-.187.18-.088.406-.225.652-.396.246-.17.558-.4.93-.685l.407-.308c.443-.34.8-.62 1.073-.843.275-.215.493-.43.663-.62.17-.193.28-.38.37-.555.084-.18.133-.377.16-.597.115-.548.07-1.097-.13-1.678-.204-.57-.598-1.27-1.167-2.126l2.6-1.974 5.113 6.746m14.748-23.358c-.098-.103-.19-.208-.262-.318-.076-.11-.16-.22-.257-.323l-.5-.598c-.212-.29-.41-.534-.602-.736l-.537-.67-.3-.394c-.088-.125-.198-.257-.308-.377l.186 3.366.225 4.587 4.512-1.854-2.158-2.686zm-1.91-12.236c.19.27.355.5.498.708.143.22.29.416.438.608.154.197.312.388.482.587.165.208.373.443.625.7l11.327 12.796c.62.687 1.16 1.24 1.61 1.663.454.422.887.735 1.292.938.416.197.827.307 1.238.318.428.016.9-.043 1.44-.187l.993 2.446-12.44 5.11-1-2.445c.907-.42 1.478-.81 1.724-1.172.26-.357.276-.784.084-1.262-.13-.317-.598-.98-1.413-1.98l-.443-.586-6.217 2.56.038.745c0 .478.043.916.11 1.3.07.378.164.706.268.965.236.564.548.87.964.936.406.055 1.112-.065 2.114-.367l1.013 2.437-10.013 4.112-1-2.44c.43-.324.787-.63 1.044-.92.262-.286.465-.638.575-1.027.126-.388.198-.87.225-1.43.028-.565.028-1.294 0-2.194l-.8-16.988c-.028-.98-.087-1.748-.165-2.318-.07-.565-.147-1.004-.213-1.31l5.603-2.303zm37.086 10.305c.053.444.097.8.148 1.058.05.252.086.466.152.63.06.17.12.296.204.395.076.1.18.198.333.317.296.258.647.406 1.04.45.407.05.982.028 1.738-.06 1.17-.137 2.13-.405 2.875-.817.75-.4 1.31-.992 1.692-1.775.384-.783.613-1.793.68-3.02.076-1.212 0-2.715-.214-4.49-.186-1.69-.454-3.104-.8-4.222-.34-1.124-.783-2.013-1.336-2.66-.56-.653-1.238-1.08-2.048-1.288-.822-.202-1.808-.247-2.953-.115-.727.083-1.302.18-1.723.286-.427.098-.74.263-.954.487-.208.22-.328.52-.36.872-.017.357 0 .844.076 1.436l1.45 12.518zm-8.62-11.16c-.067-.577-.127-1.047-.18-1.427-.063-.378-.123-.68-.188-.916-.066-.23-.153-.41-.25-.558-.09-.148-.205-.296-.325-.434-.322-.34-.7-.542-1.096-.63-.41-.087-1.027-.104-1.87-.06l-.314-2.615 7.58-.883c1.568-.186 2.903-.35 4.01-.493 1.1-.135 2.01-.26 2.7-.37.625-.105 1.222-.193 1.808-.275.586-.076 1.03-.137 1.314-.17 2.16-.252 3.95-.136 5.39.34 1.43.483 2.596 1.355 3.5 2.627.744 1.074 1.375 2.408 1.9 3.997.527 1.594.898 3.326 1.123 5.202.5 4.308-.037 7.653-1.603 10.053-1.568 2.407-4.17 3.82-7.778 4.237-.286.04-.637.077-1.02.12-.39.05-.855.09-1.375.122-.975.06-1.868.13-2.705.22-.834.076-1.673.17-2.5.274l-9.3 1.08-.312-2.62c.93-.165 1.605-.357 2.01-.592.406-.23.702-.61.877-1.135.06-.165.115-.314.154-.45.03-.138.04-.313.03-.54l-.055-.825s-.07-.757-.13-1.273l-1.397-12.004zm60.97 1.925l-3.192-.482c.055-.81.016-1.502-.088-2.06-.1-.56-.29-1.026-.602-1.383-.313-.367-.723-.646-1.26-.843-.548-.204-1.243-.373-2.098-.5l-.51-.082c-.64-.093-1.176-.143-1.566-.148-.4-.017-.706.055-.92.175-.22.124-.378.344-.482.645-.093.3-.18.712-.257 1.232l-.658 4.397 5.56.833c.564.094 1.03.143 1.39.154.35.018.74 0 1.135-.043l-.685 4.588c-.356-.103-.706-.197-1.05-.274-.352-.075-.9-.17-1.656-.284l-5.323-.806-.705 4.678c-.087.62-.136 1.102-.136 1.452 0 .347.094.615.273.812.18.203.493.352.93.46.438.11 1.04.22 1.813.335l.975.143c.832.153 1.518.208 2.088.18.558-.042 1.027-.19 1.39-.47.372-.274.696-.692.952-1.25.257-.56.487-1.304.706-2.22l3.233.487-1.26 8.372-22.556-3.4.396-2.61c.936.087 1.627.07 2.09-.045.456-.12.835-.405 1.14-.866.105-.143.188-.275.265-.4.07-.115.126-.29.17-.505.05-.22.105-.487.164-.812.06-.317.13-.745.22-1.26l1.785-11.95c.086-.578.152-1.053.202-1.432.038-.37.055-.684.05-.92 0-.24-.028-.445-.087-.61-.044-.173-.116-.34-.2-.513-.222-.4-.53-.698-.9-.89-.375-.19-.966-.366-1.788-.548l.39-2.604 16.962 2.544c.673.105 1.232.18 1.67.23.443.06.844.088 1.193.11.37.006.703.006 1.01-.015.306-.01.68-.055 1.11-.127l-1.28 8.524m27.83 29.245l-20.714-8.585 1.005-2.44c.894.313 1.58.47 2.04.462.475-.006.923-.192 1.324-.56.13-.11.252-.226.35-.318.092-.11.197-.258.296-.46l.35-.746c.142-.297.307-.69.51-1.18l4.62-11.162c.232-.532.402-.975.538-1.336.126-.357.225-.647.274-.89.05-.23.076-.43.064-.607-.015-.176-.032-.357-.07-.537-.126-.45-.35-.812-.663-1.086-.307-.27-.85-.592-1.6-.966l1.01-2.434 13.155 5.455-1.02 2.44c-.886-.313-1.57-.47-2.053-.478-.487 0-.93.19-1.336.56-.132.113-.247.217-.35.322-.1.1-.193.253-.29.455l-.356.746c-.136.3-.3.69-.508 1.172l-4.738 11.46c-.175.415-.3.744-.394.99-.09.248-.154.455-.193.62-.044.175-.054.3-.044.41.017.106.056.21.12.33.084.142.177.27.27.362.104.104.24.203.406.318.162.115.376.236.655.362.274.126.635.28 1.067.46l.472.198c.503.22.925.377 1.264.51.322.114.625.203.87.246.248.05.466.06.67.045.19-.023.382-.067.59-.16.532-.174.986-.5 1.38-.958.39-.467.806-1.158 1.255-2.09l3.012 1.25-3.244 7.82m22.06.473c.51.68 3.786 2.685 4.208 2.998.854.64 1.654.816 2.387.515.734-.307 1.638-1.173 2.706-2.603 1.426-1.914 2.18-3.405 2.27-4.49.1-.784-.39-1.574-1.463-2.38-.926-.69-1.697-1.02-2.31-.98-.357-.013-.67.092-.945.3-.26.204-.617.604-1.055 1.19l-7.422 9.94c-.354.48-.64.876-.848 1.177-.21.298-.368.56-.477.773-.116.215-.187.395-.242.566-.038.165-.048.35-.043.554.022.47.148.893.412 1.266.268.378.77.86 1.533 1.464l-1.573 2.11-11.572-8.645 1.582-2.116c.767.513 1.38.814 1.847.913.46.105.93.034 1.407-.202.15-.076.29-.147.417-.225.114-.07.245-.197.394-.367.138-.176.318-.39.526-.637.21-.262.466-.597.79-1.025l7.223-9.675c.344-.462.625-.856.843-1.163.214-.314.378-.577.488-.79.11-.214.175-.406.22-.576l.055-.547c-.017-.466-.137-.866-.35-1.195-.237-.334-.67-.778-1.31-1.32l1.577-2.11 6.903 5.163c.88.653 1.676 1.234 2.394 1.733.7.5 1.45 1.01 2.24 1.53l1.297.893 1.012.74c2.163 1.617 3.286 3.377 3.363 5.27.083 1.895-.88 4.17-2.87 6.847-1.905 2.543-3.822 4.013-5.76 4.412-1.94.4-4.022-.23-6.25-1.89-1.665-1.256-4.102-3.487-4.662-5.06l1.063-2.358m44.104 23.385l-7.86 5.998-4.742-6.184 7.848-5.987-6.528-8.5-2.093 1.61c.472.7.773 1.247.91 1.63.137.4.147.823.027 1.267-.057.186-.123.35-.2.514-.075.16-.196.326-.356.5-.163.176-.394.385-.684.62-.29.247-.678.538-1.127.9l-9.575 7.37c-.41.316-.76.574-1.028.76-.27.19-.494.35-.675.47-.186.127-.35.21-.482.248-.143.042-.29.075-.465.102-.536.126-1.007.066-1.42-.164-.408-.236-.923-.707-1.537-1.426l-2.086 1.612 6.48 8.432 9.492-7.275 4.755 6.18-9.496 7.274 6.544 8.518 2.093-1.622c-.507-.734-.82-1.3-.97-1.693-.137-.39-.142-.81-.02-1.267.043-.198.11-.372.196-.515.077-.15.198-.313.368-.493.16-.17.39-.373.67-.615.282-.23.656-.526 1.132-.905l9.58-7.367c.416-.317.756-.57 1.024-.756.267-.2.492-.36.678-.485.18-.12.34-.203.476-.246.138-.04.286-.073.46-.106.55-.12 1.025-.054 1.436.187.423.248.942.73 1.582 1.464l2.088-1.6-6.49-8.453m8.457 27.994c.532-.236.965-.44 1.31-.61.34-.164.608-.31.81-.448.204-.13.357-.27.46-.4.117-.138.22-.285.323-.44.213-.415.308-.832.268-1.243-.042-.417-.213-1.015-.504-1.798l2.406-1.086 5.79 12.98-2.4 1.073c-.44-.84-.827-1.42-1.167-1.737-.35-.33-.79-.494-1.343-.504l-.48-.006c-.138.01-.314.05-.522.132-.208.076-.47.18-.766.295-.313.126-.7.29-1.184.51l-11.02 4.933c-.547.248-.99.45-1.32.61-.33.164-.597.307-.794.444-.197.132-.362.262-.47.384-.122.125-.225.28-.314.455-.224.416-.305.84-.262 1.244.04.412.208 1.015.493 1.804l-2.397 1.072-5.794-12.976 2.403-1.074c.432.845.82 1.426 1.166 1.743.343.318.786.488 1.347.5.163.01.333.01.47 0 .15-.006.313-.045.527-.122l.766-.306c.3-.115.695-.285 1.178-.504l11.02-4.928m6.954 35.333c.115-.076.235-.142.362-.186.126-.056.247-.118.36-.2l.686-.383c.317-.143.603-.296.833-.456l.762-.393c.14-.077.283-.16.437-.225.142-.076.29-.148.438-.236l-3.346-.44-4.557-.634.99 4.78 3.035-1.628zm12.362.407c-.284.137-.553.262-.778.368-.24.098-.47.203-.68.31-.223.117-.443.238-.672.364-.23.125-.5.29-.805.482l-14.67 8.755c-.79.48-1.43.9-1.935 1.28-.504.366-.887.733-1.16 1.096-.28.367-.455.75-.547 1.15-.096.412-.123.895-.09 1.443l-2.58.536-2.69-13.195 2.582-.525c.25.97.53 1.606.832 1.918.306.318.712.417 1.227.307.334-.06 1.073-.405 2.202-1.004l.65-.34-1.34-6.6-.735-.088c-.482-.093-.908-.13-1.292-.137-.395 0-.724.03-1.013.09-.592.12-.954.373-1.085.76-.137.39-.154 1.114-.05 2.16l-2.58.533-2.163-10.607 2.58-.527c.242.482.47.882.713 1.194.235.318.532.565.897.762.362.197.817.357 1.353.488.554.126 1.277.263 2.158.4l16.827 2.395c.97.142 1.736.235 2.3.262.57.035 1.018.045 1.33.035l1.21 5.937zm-285.776 43.816l-7.887 3.644 1.043 8.647-5.904-6.384-7.888 3.656 4.235-7.593-5.91-6.377 8.522 1.683 4.233-7.597 1.036 8.633 8.52 1.684m7.41 31.19l-6.78 5.433 3.088 8.14-7.274-4.77-6.775 5.45 2.287-8.397-7.273-4.76 8.682-.427 2.284-8.392 3.08 8.146 8.68-.424m14.674 28.482l-5.264 6.91 4.952 7.152-8.21-2.878-5.257 6.92.202-8.695-8.205-2.873 8.32-2.5.203-8.7 4.95 7.16 8.31-2.496m21.102 24.122l-3.462 7.97 6.523 5.757-8.643-.822-3.456 7.982-1.897-8.487-8.648-.816 7.48-4.425-1.9-8.498 6.518 5.76 7.483-4.423m26.267 18.33l-1.43 8.565 7.712 4.018-8.6 1.293-1.428 8.575-3.88-7.79-8.593 1.295 6.19-6.095-3.88-7.786 7.713 4.018 6.196-6.09m29.905 11.468l.664 8.657 8.45 2.045-8.034 3.323.673 8.665-5.63-6.622-8.022 3.323 4.534-7.41-5.628-6.623 8.456 2.046 4.54-7.402m31.783 3.935l2.728 8.245 8.694-.05-7.005 5.16 2.743 8.245-7.066-5.065-6.995 5.158 2.635-8.29-7.065-5.07 8.698-.05 2.635-8.283m31.795-3.827l4.627 7.346 8.43-2.143-5.566 6.696 4.64 7.347-8.06-3.225-5.555 6.694.56-8.677-8.07-3.224 8.425-2.14.57-8.67m29.944-11.37l6.255 6.02 7.666-4.112-3.79 7.836 6.266 6.013-8.61-1.19-3.78 7.834-1.527-8.555-8.61-1.184 7.658-4.106-1.53-8.553m26.33-18.243l7.52 4.337 6.447-5.84-1.786 8.52 7.53 4.332-8.64.915-1.787 8.523-3.553-7.944-8.643.924 6.46-5.833-3.546-7.932m21.176-24.048l8.344 2.4 4.858-7.22.306 8.7 8.347 2.385-8.16 2.978.312 8.69-5.357-6.848-8.17 2.977 4.873-7.214-5.352-6.848m14.78-28.434l8.682.32 2.974-8.182 2.383 8.377 8.68.31-7.214 4.85 2.394 8.36-6.834-5.36-7.22 4.858 2.985-8.175-6.83-5.356m7.518-31.16l8.495-1.777.93-8.662 4.322 7.554 8.5-1.787-5.838 6.44 4.338 7.545-7.93-3.558-5.833 6.452.936-8.65-7.92-3.558M205.695 219.35l-4.876.702v-27.564l-5.216.75v28.755c0 1.595 1.014 2.626 2.58 2.626.187 0 .378-.018.575-.05l9.103-1.317c1.79-.252 3.04-1.627 3.04-3.354v-28.87l-5.21.757v27.562m28.11-14.86l-7.247-14.97-2.974.19v31.78l4.935-.317v-14.945l7.176 14.468 3.057-.204v-31.774l-4.946.317v15.456m17.856-16.084l.02 31.78 5.33-.022-.088-31.775-5.263.015m31.444 32.265v.006-.006zm-2.268-27.262v23.36l-5.43-.32v-23.352l5.43.312zm2.163-4.085l-9.86-.576c-1.44 0-2.986 1.064-2.986 2.785v25.91c0 1.902 1.796 3.015 3.09 3.09l9.704.566.153.006c1.44 0 2.99-1.064 2.99-2.785v-25.905c.003-1.89-1.795-3.01-3.093-3.093zm25.948 2.827v15.378l-7.155-16.364-2.983-.405v31.783l4.902.68v-14.846l7.065 15.81 3.067.427V192.83l-4.896-.68M202.54 261.2c.563.226 1.176.457 1.84.648 2.016.603 4.568.97 7.723.586l1.21-.136-.964.843c-.857.754-3.366 2.36-5.88 3.357 4.36-.564 12.25-4.08 16.914-6.84-.46-.254-.947-.604-1.342-.933-6.802 2.654-14.23 3.092-19.504 2.478m18.217 45.666c-1.144 1.952-1.73 3.958-1.742 5.976-.027 3.306 1.474 6.572 4.328 9.44 5.944 5.98 17.085 9.697 29.086 9.697 18.49 0 33.585-8.59 33.65-19.147.013-2.018-.552-4.02-1.675-5.97-4.55 7.794-17.465 13.168-31.9 13.168-14.424 0-27.28-5.37-31.744-13.16m70.04.554c.46.054 1.37.153 2.58.153 3.22 0 7.893-.62 12.652-3.416-3.412.057-10.467-.382-17.943-3.67 1.003 1.716 2.185 4.188 2.712 6.935" fill="#B09247"/><path d="M252.633 251.12l.247.005c8.753 0 16.492 4.874 16.602 10.87.04 2.576-1.272 5.268-3.698 7.254-1.982 1.527-4.82 2.624-7.41 3.6-.005 0-6.058 2.165-11.07 3.93-.252.077-23.77 7.532-23.77 21.803-.023 2.8 1.226 5.547 3.597 7.933 5.174 5.207 15.235 8.332 26.074 8.058 16.426-.422 29.845-8.306 29.895-17.576.03-5.905-5.8-10.493-14.768-12.895-2.13.823-4.55 1.584-7.115 2.385-2.486.79-5.313 1.683-8.276 2.758-6.73 2.44-8.045 4.54-8.226 5.575-.12.665.153 1.158.367 1.43 2.57-1.494 6.32-2.59 10.37-3.02 1.154-.12 2.305-.18 3.422-.18 6.207 0 10.38 1.733 10.392 4.568 0 .795-.34 1.556-1.035 2.253-2.155 2.17-7.538 3.57-13.716 3.57-5.21 0-10.067-1.645-12.714-4.293-1.352-1.366-2.06-2.94-2.06-4.547 0-5.783 8.376-8.634 13.913-10.52.68-.235 1.316-.453 1.88-.652 4.863-1.764 10.74-3.93 10.74-3.93 9.378-3.02 14.34-11.135 13.108-18.963-1.452-9.243-10.543-15.7-22.11-15.7-1.123 0-2.274.06-3.42.186-.004.007-1.055.193-2.31.193-1.32 0-2.365-.203-3.11-.61-1.67-.92-3.364-1.04-3.386-1.04-13.5 2.982-21.288 8.712-22.756 9.862.45 1.195 2.573 5.466 9.278 4.49 2.508-.357 4.508-.417 6.266-.46 3.987-.11 6.19-.17 9.184-3.635 2.17-2.505 4.85-2.702 5.62-2.702" fill="#B09247"/><path d="M239.4 250.587c1.117-.697 1.796-3.438 1.796-3.438-4.638 1.16-9.54 3.666-9.54 3.666s6.632.472 7.744-.23" fill="#0C2950"/><path d="M399.567 401.023h-2.338v-6.83h-.254l-2.147 4.78h-1.64l-2.17-4.863h-.31v6.913h-2.213v-8.733h3.796l1.753 4.266 1.834-4.266h3.687v8.733zm-12.456-6.84h-2.494v6.84h-2.35v-6.84h-2.49v-1.892h7.338v1.894h-.002z" fill="#B09247"/></g></svg>