<svg width="512" height="512" viewBox="0 0 512 512" xmlns="http://www.w3.org/2000/svg"><title>real-salt-lake</title><g fill="none" fill-rule="evenodd"><path d="M119.18 60.306v164.42c0 159.216 137.82 229.97 137.82 229.97s137.82-70.754 137.82-229.968V60.308H119.18" fill="#F7D200"/><path d="M333.133 403.028h3.638v10.926h1.298v-10.926h3.83v-1.3h-8.764v1.3zm18.88-1.3l-3.14 9.94-3.145-9.94h-2.092v12.226h1.323v-10.412l3.25 10.412h1.32l3.28-10.412v10.412h1.326V401.73h-2.125z" fill="#062E7E"/><path d="M124.387 65.516v159.21c0 35.5 7.06 69.4 20.986 100.76 11.16 25.133 26.734 48.725 46.293 70.12 28.348 31.015 57.047 48.448 65.335 53.145 8.29-4.695 36.988-22.13 65.336-53.142 19.56-21.396 35.136-44.988 46.294-70.12 13.923-31.36 20.984-65.263 20.984-100.76V65.518H124.387zm254.796 159.21c0 33.867-6.695 66.196-19.897 96.093-10.617 24.037-25.464 46.64-44.133 67.176-23.196 25.516-46.704 41.576-58.153 48.624-11.45-7.047-34.957-23.107-58.153-48.623-18.67-20.538-33.517-43.14-44.133-67.178-13.202-29.9-19.897-62.23-19.897-96.094V75.956h244.366v148.77z" fill="#A90230"/><path d="M373.977 81.166v143.56c0 33.055-6.513 64.605-19.36 93.773-10.345 23.493-24.832 45.6-43.06 65.707C290.39 407.56 268.94 422.864 257 430.473c-11.944-7.608-33.394-22.913-54.56-46.266-18.227-20.107-32.714-42.216-43.06-65.71-12.845-29.167-19.358-60.717-19.358-93.77V81.165h233.954" fill="#062E7E"/><path d="M266.95 193.964c0-4.537-8.71-4.574-8.71-6.15 0-1.146 1.934-1.186 2.95-1.186 1.99 0 3.445.594 2.952 1.973 0 0 2.12.08 2.12-1.103 0-1.812-3.58-2.05-5.952-2.05-1.764 0-5.708.59-5.652 3.076 0 4.024 8.655 4.024 8.655 6.35 0 .868-.576 1.853-2.84 1.853-2.727 0-4.986-1.933-3.114-3.312-1.904 0-3.56.906-3.56 2.05 0 2.05 4.304 2.562 6.7 2.562 2.953 0 6.45-1.182 6.45-4.06zm24.504-8.28l-.053 2.05c.33-.474.69-.71 1.078-.71 0 0 1.624-.16 3.773-.16V197c0 .395-.19.67-.605.79h5.513c-.41-.12-.604-.395-.604-.79v-10.135c2.15 0 3.774.16 3.774.16.387 0 .746.234 1.075.708l-.053-2.05h-13.896zM280.79 196.92l-6.945-11.792-6.67 11.792c-.225.276-.61.59-1.13.868h3.803c-.526-.118-.747-.592-.582-.948l.964-1.89h4.854l1.047 1.97c.22.43-.193.632-.603.867h6.335c-.162-.08-.797-.436-1.07-.868zm-9.842-3.194l1.658-3.116 1.763 3.116h-3.423zm21.447.276s.77 2.524-3.42 2.524h-2.205v-10.02c0-.352.194-.628.58-.825h-5.512c.382.198.606.474.606.827V197c0 .354-.196.63-.583.79h8.578c1.625 0 3.17-.436 3.69-1.54.637-1.378-1.732-2.246-1.732-2.246zm29.713 2.248c.633-1.38-1.71-2.247-1.71-2.247s.746 2.524-3.446 2.524h-1.376v-10.02c0-.353.192-.63.577-.826h-5.514c.415.198.607.474.607.827V197c0 .352-.19.63-.61.787h7.778c1.624 0 3.197-.436 3.692-1.538zm39.746.276h-4.217v-4.774h3.527c.5 0 .8.515.8.515v-2.21c-.19.356-.44.512-.8.512h-3.527v-3.707h4.385c.688.037 1.21.315 1.57.75l-.14-1.933h-10.83c.466.197.69.473.69.826V197c0 .475-.39.672-.61.752-.19-.08-.632-.318-.908-.633l-6.532-6.826 5.18-3.904c.524-.355 1.517-.708 1.517-.708h-4.468c.358.235.69.59.223.906l-5.76 4.26v-4.34c0-.352.217-.63.606-.826h-5.512c.41.197.605.474.605.826V197c0 .235-.084.432-.278.592-.247-.16-.576-.394-.743-.67l-6.974-11.793-6.67 11.79c-.22.277-.606.59-1.13.87h3.802c-.493-.12-.743-.593-.575-.95l.964-1.89h4.85l1.045 1.97c.224.43-.19.632-.605.867h11.222c-.39-.118-.605-.394-.605-.788v-4.654l4.52 4.69c.41.437-.415.752-.415.752h18.082l.577-2.328s-.55 1.066-2.865 1.066zm-35.086-2.8l1.652-3.116 1.79 3.116h-3.442z" fill="#FFF"/><path d="M253.832 212.814c36.11 0 66.04 26.544 71.527 61.29-4.548-36.994-35.917-65.587-73.927-65.587-41.182 0-74.535 33.523-74.535 74.892 0 29.816 17.338 55.53 42.42 67.6l.44-1.146c-22.82-12.227-38.368-36.403-38.368-64.246 0-40.19 32.445-72.806 72.44-72.806" fill="#F7D200"/><path d="M283.96 210.173c29.19 12.187 49.727 41.097 49.727 74.816 0 29.025-15.245 54.503-38.094 68.776.467 1.62.825 3.316 1.1 5.01 24.505-14.235 41.016-40.817 41.016-71.304 0-35.535-22.385-65.785-53.75-77.3zM182.58 324.11c7.55 15.263 19.68 27.805 34.59 35.852.085-.79.224-1.537.36-2.33-14.775-7.33-27.012-19.084-34.95-33.522z" fill="#A90230"/><path d="M301.464 300.37l-22.713-21.495c-4.436-4.02-9.317-6.348-14.69-7.017 0 0 23.98-1.858 23.98-15.78 0-6.703-8.38-15.774-34.482-15.774h-30.65s4.078 2.288 4.078 4.22v29.736c3.805 1.856 8.987 3.55 14.115 5.678v-5.796h8.436c4.464 0 7 1.026 9.343 2.957l24.45 22.796c3.42 2.955 10.2 6.506 16.123 6.506 7.58 0 10.615-2.524 10.615-2.524s-4.882-.315-8.603-3.51zm-50.168-29.935H241.1V244.17h10.196c12.816 0 21.39 4.377 21.39 13.133 0 7.1-8.903 13.132-21.39 13.132zm-10.198 29.42v-3.35c-3.335-2.367-8.628-4.3-14.116-6.508v9.86c0 2.287-3.638 4.22-3.638 4.22h21.64s-3.886-1.933-3.886-4.22z" fill="#F7D200"/><path d="M261.33 259.986v6.544c5.732-2.05 9.013-5.72 9.013-9.227 0-.473-.028-.906-.083-1.342h-12.323s3.392.87 3.392 4.027zm47.135 47.365s-3.116 5.485-12.626 5.485h-22.604v-19.128l-11.91-11.122v30.133c0 3.194-3.39 4.02-3.39 4.02h39.998c16.043 0 10.53-9.386 10.53-9.386zm-59.208-38.926s4.134-2.05 4.134-5.797c0-3.626-4.547-5.6-9.95-6.586v4.537c3.748 1.736 5.567 4.537 5.818 7.847zm-30.488-.196c0-3.274 2.452-5.916 5.87-7.57v-4.5c-8.076 1.896-15.793 6.587-15.793 14.832 0 17.588 38.066 17.035 38.066 30.878 0 7.1-4.963 11.95-14.47 11.95-10.75 0-19.876-5.6-17.615-13.963 0 0-6.975 1.618-6.975 7.457 0 5.36 10.2 10.213 24.59 10.213 18.078 0 25.605-9.345 25.605-18.22 0-18.972-39.28-18.577-39.28-31.078z" fill="#A90230"/><path d="M289.527 364.378c-.113-6.783-2.287-13.055-5.924-18.22l-13.123.157-3.915-12.542c-3.03-.944-6.227-1.46-9.565-1.46-3.333 0-6.53.515-9.563 1.46l-3.915 12.542-13.12-.157c-3.64 5.165-5.817 11.437-5.926 18.22l10.72 7.574-4.217 12.463c3.887 5.165 9.26 9.11 15.492 11.276L257 387.807l10.533 7.886c6.227-2.166 11.602-6.11 15.488-11.275l-4.213-12.463 10.72-7.574" fill="#FFF"/><path d="M230.79 356.373l10.58-8.322-9.562-.116c-3.06 4.537-4.934 9.978-5.128 15.855l7.803 5.52-3.694-12.936zm34.536-20.705c-2.645-.75-5.428-1.145-8.326-1.145-2.892 0-5.678.394-8.323 1.145l-2.84 9.15L257 337.324l11.164 7.494-2.838-9.15zm14.197 33.64l7.8-5.52c-.195-5.877-2.07-11.32-5.13-15.855l-9.564.118 10.583 8.32-3.69 12.94zm-43.36 5.247l-3.058 9.032c3.47 4.416 8.102 7.846 13.478 9.82l7.66-5.72-13.45-.512-4.63-12.62zm37.017 12.62l-13.423.51 7.664 5.723c5.377-1.974 10.006-5.405 13.48-9.82l-3.057-9.033-4.662 12.62z" fill="#F7D200"/><path d="M224.78 367.928s-1.048 6.745 3.857 12.895l1.214-3.744s-4.38-4.027-5.07-9.153zm25.164 28.594s6.092 3.035 13.424.276l-3.17-2.327c0 .003-5.155 2.96-10.254 2.053zm39.363-27.845l-3.198 2.328s1.213 5.798-1.24 10.37c0 0 4.793-4.848 4.436-12.698zm-18.718-33.365l1.215 3.746s5.895.633 9.48 4.377c0 0-3.144-6.03-10.697-8.123zm-37.486 7.494h3.94s2.425-5.402 7.083-7.65c0 0-6.724 1.103-11.023 7.65zm36.633 24.414l-3.804-11.754 3.334-7.495-6.09 5.526h-12.352l-6.09-5.524 3.336 7.496-3.805 11.754-7.11 4.1 8.16-.867 9.977 7.297 1.708 8.045 1.71-8.045 9.982-7.297 8.157.867-7.113-4.1zm-15.41-6.707l-6.835 9.07 3.996-12.777h12.763l-9.923 3.707z" fill="#A90230"/><path d="M253.39 92.29c-1.406 2.092 1.518 4.575 1.518 4.575s-.855 2.21-3.418 2.644c-3.088.51-6.286.313-6.92-5.366 0 0-2.093 5.76-6.918 4.497-3.142-.83-4.382-3.314-4.823-4.614 3.113-.356 5.51-2.288 5.51-4.574h-4.575c-.168-2.33-2.095-3.63-2.095-3.63s-1.9 1.3-2.095 3.63h-4.546c0 2.286 2.396 4.218 5.51 4.574-.443 1.3-1.683 3.785-4.824 4.615-4.852 1.263-6.918-4.496-6.918-4.496-.636 5.68-3.834 5.877-6.92 5.364-2.565-.436-3.447-2.645-3.447-2.645s2.95-2.483 1.547-4.574c-4.053 3.827-7.224-4.06-11.056-.118 0 0 4.524 2.365 5.46 4.615.936 2.206 1.35 2.998 1.35 2.998l-.77 2.76 2.948 1.26 1.82 3.944s8.546-3.866 21.942-3.866c13.424 0 21.967 3.865 21.967 3.865l1.818-3.945 2.95-1.26-.772-2.76s.415-.79 1.353-2.998c.91-2.25 5.455-4.615 5.455-4.615-3.83-3.944-7.003 3.945-11.053.118zm-21.72 14.2c-12.1 0-21.914 2.485-21.914 5.6 0 .197.056.432.138.67 4.688-2.485 12.682-4.14 21.777-4.14 9.124 0 17.117 1.654 21.776 4.14.11-.238.167-.473.167-.67 0-3.115-9.813-5.6-21.94-5.6zm24.037 38.017s-3.586 14.672-13.84 14.672c-8.736 0-13.506-10.06-15.187-14.477l28.89-10.213s-4.714-21.77-22.383-21.77c-12.322 0-24.754 9.465-24.754 27.528 0 17.275 12.82 32.458 27.428 32.458 12.075 0 22.934-9.583 22.934-22.402 0-5.362-1.876-9.82-3.086-5.797zm-32.277-13.33c0-4.93 2.066-8.36 5.043-8.36 4.244 0 7.03 5.52 8.27 8.636l-12.682 4.497c-.3-1.34-.63-3.076-.63-4.773z" fill="#F7D200"/><path d="M235.86 170.38c15.683 0 21.83-15.223 20.48-20.706 0 0-4.136 11.872-14.472 11.872-13.063 0-18.135-18.26-18.135-18.26l29.024-10.254s-4.905-17.983-19.57-17.983c-10.503 0-22.437 7.687-22.437 25.197 0 16.012 11.77 30.13 25.11 30.13zm-7.387-49.89c7.8 0 11.247 12.384 11.247 12.384l-17.174 6.074s-1.46-3.907-1.46-7.77c0-6.705 3.334-10.688 7.387-10.688z" fill="#FFF"/><path d="M357.608 157.05c1.74 4.85.11 12.03-13.008 12.03h-8.515v-49.46c0-5.09 4.6-7.968 4.6-7.968h-29.77s4.604 2.88 4.604 7.968v49.654c0 .906-.385 1.852-.965 2.8-.277-.473-.55-.948-.826-1.5l-29.604-61.405-21.996 48.43c-4.657 10.216-6.506 13.213-8.904 17.116-2.122 3.786-14.91 8.56-21.497 8.56-18.525 0-20.594-30.37-38.868-37.904 6.2-2.68 13.313-7.65 13.313-16.404 0-7.89-4.714-17.317-27.205-17.317h-28.887s4.49 3.316 4.49 6.745v53.4c0 3.43-4.49 6.705-4.49 6.705h29.573s-4.52-3.274-4.52-6.704v-21.494c13.26 3.55 20.15 48.748 51.406 48.748 18.385 0 26.93-20.55 26.93-20.55h16.787s-4.85-3.705-3.887-6.03l3.61-8.716h18.522l3.832 8.795c1.102 2.524-1.737 3.865-4.688 5.953h62.072c14.06 0 17.78-6.82 17.78-10.41.003-6.824-9.895-11.045-9.895-11.045zm-181.452-15.776h-.99V120.45h.99c4.355 0 8.987 2.722 8.987 10.412 0 5.285-5.155 10.412-8.987 10.412zm97.854 13.686l4.99-11.556 5.428 11.556H274.01z" fill="#F7D200"/><path d="M183.462 145.848s20.37-3.51 20.37-16.878c0-13.095-15.05-14.987-24.863-14.987h-23.487s1.435 1.892 1.435 4.415v53.4c0 2.486-1.436 4.378-1.436 4.378h18.744s-1.407-1.892-1.407-4.377v-24.22c17.806 0 22.106 49.142 53.72 49.142 15.797 0 24.01-17.472 24.01-17.472s-9.812 6.35-18.825 6.35c-23.125.002-22.244-39.754-48.264-39.754zm-7.306-2.21h-3.335v-25.515h3.337c5.128 0 11.33 3.235 11.33 12.74 0 6.546-6.2 12.775-11.33 12.775zm184.293 18.144c-.69 2.21-1.768 9.624-15.85 9.624h-10.833v-51.783c0-3.156 1.46-5.64 1.46-5.64h-18.852s1.457 2.484 1.457 5.64v51.544c0 1.856-1.79 3.274-3.25 4.142-.91-.87-2.233-2.25-2.95-3.708l-27.455-56.91-19.925 43.856c-5.047 11.04-6.37 13.053-9.182 17.626h9.814s-1.542-2.364-.662-4.573l4.22-10.215h21.607l4.41 10.216c1.02 2.407-.36 4.574-.36 4.574h55.624c13.312 0 15.464-6.31 15.464-8.083 0-3.864-4.74-6.31-4.74-6.31zm-89.997-4.495l8.46-19.563 9.18 19.563h-17.64z" fill="#FFF"/></g></svg>