<svg width="512" height="512" viewBox="0 0 512 512" xmlns="http://www.w3.org/2000/svg"><title>seattle-sounders-fc</title><g fill="none" fill-rule="evenodd"><path d="M178.217 343.836c-15.594-14.837-32.215-27.73-50.52-38.99 0 0 4.728-11.684 6.31-17.537 12.697-47.14 1.43-84.953-19.405-128.1 0 0 33.128 3.67 54.545 1.595 30.7-2.992 58.113-11.465 85.857-25.29 48.242 24.024 87.79 29.527 140.386 23.69-24.652 51.045-34.285 93.303-13.094 145.636 0 0-12.422 7.647-20.06 13.308-55.02 40.77-82.593 83.677-107.232 147.763-18.908-49.164-38-85.197-76.787-122.074" fill="#132530"/><path d="M185.7 335.538c24.063 22.872 52.15 56.105 69.3 98.192 20.152-49.457 58.685-93.617 101.39-125.25 5.896-4.362 10.216-7.224 12.24-8.54-4.453-12.176-6.824-25.467-7.955-38.28-2.045-23.55-.05-55.413 15.732-89.54-40.158 2.753-85.712-7.312-121.4-24.91-35.694 17.598-81.265 27.663-121.414 24.91 16.976 36.714 21.2 79.41 10.715 118.41-1.202 4.488-2.304 7.713-2.934 9.41 15.835 10.236 30.703 22.625 44.327 35.598" fill="#005595"/><path d="M186.73 334.857c23.7 22.54 51.378 55.29 68.27 96.73 19.847-48.7 57.805-92.197 99.882-123.366 5.814-4.31 10.08-7.136 12.062-8.427-4.386-11.958-6.74-25.077-7.842-37.712-2.004-23.176-.05-54.588 15.506-88.185-39.557 2.704-84.45-7.203-119.6-24.547-35.165 17.34-80.055 27.25-119.6 24.547 16.718 36.163 20.883 78.216 10.55 116.635-1.2 4.43-2.285 7.584-2.894 9.263 15.606 10.078 30.248 22.295 43.667 35.064m-2.415 2.55c-13.883-13.192-29.234-26.124-45.617-36.15 0 0 2.083-5.07 3.848-11.638 10.91-40.55 5.293-81.91-13.022-119.853 0 0 17.923 2.03 40.474-.163 29.643-2.88 58.256-10.88 85.002-24.192 36.32 18.092 84.538 28.997 125.472 24.36-18.328 37.938-23.946 79.298-13.027 119.847 1.766 6.568 3.853 11.636 3.853 11.636s-6.286 3.844-14.308 9.79c-45.166 33.45-81.584 77.175-101.986 130.226-15.798-41.043-39.19-73.88-70.69-103.866" fill="#FFF"/><path d="M160.23 205.992c-11.043-60.27-9.682-121.06-9.682-121.06L255 48.09l104.44 36.843s1.37 60.79-9.684 121.06c-12.76 69.734-36.12 133.28-94.756 178.4-58.643-45.12-81.98-108.662-94.77-178.4" fill="#132530"/><path d="M175.708 202.64C186.518 261.6 208.945 328.7 255 365.48c69.178-55.24 89.66-186.39 89.13-270.52L255 63.507 165.874 94.96c-.062 10.174.26 55.353 9.834 107.68" fill="#5D9741"/><path d="M177.674 202.934c10.53 57.505 32.402 122.948 77.326 158.814 67.463-53.857 87.443-181.773 86.922-263.855L255 67.243l-86.938 30.65c-.063 9.957.258 54.016 9.612 105.04m-6.006 1.096c-10.76-58.74-9.617-110.47-9.617-110.47L255 60.758l92.936 32.804s1.14 51.723-9.616 110.47c-10.794 58.903-32.916 126.645-83.32 165.43-50.417-38.785-72.522-106.527-83.332-165.43" fill="#FFF"/><path d="M233.296 202.027l-6.645-48.05c-6.035-1.67-17.28-5.523-17.28-13.365-5.73-2.82-11.874-7.103-11.874-13.216 0-7.032 7.834-11.595 14.66-14.402 4.38-5.127 12.984-8.633 22.734-10.58.434-2.803 2.116-5.477 4.003-7.24 2.675-2.282 5.547-3.936 8.377-4.994l.893-1.228 1.578-20.807c.96-5.867 7.063-5.207 8.9-3.113.818.815 1.365 2.018 1.486 3.16l1.694 20.74.935 1.274c10.126 4.01 12.092 9.062 12.597 12.14 9.546 1.242 18.102 5.492 22.477 10.652 6.84 2.807 14.666 7.37 14.666 14.402 0 6.113-6.144 10.358-11.875 13.16 0 8.174-11.106 11.918-17.396 13.54l-6.59 47.93h-43.338" fill="#FFF"/><path d="M237.883 202.027l-7.234-51.668c-9.12-2.148-16.792-5.712-16.792-9.748 0-.9.313-1.76.93-2.587-7.446-2.883-11.912-6.593-11.912-10.63 0-4.052 4.537-7.775 12.088-10.687 3.377-4.855 12.78-8.783 24.985-10.6-2.288-3.543 1.944-7.6 1.944-7.6 2.696-2.286 5.45-3.71 8.164-4.525l2.51-3.456 1.568-21.88c.84-3.072 1.728 0 1.728 0l1.57 21.88 1.92 2.637c7.05 2.068 9.858 5.532 9.858 5.532l-1.448-.105c-6.466.79-8.227 4.238-7.972 6.544 17.058.76 30.962 5.432 35.248 11.57 7.547 2.912 12.08 6.64 12.08 10.688 0 4.032-4.454 7.75-11.9 10.63.597.826.918 1.69.918 2.585 0 4.032-6.67 7.61-16.95 9.81l-7.075 51.606h-3.67l3.912-48.51c.088-.576.18-2.16-1.886-1.796-1.53.25-5.244.823-5.244.823-1.745.293-1.832 1.43-1.832 2.135 0 0 .046 25.38.03 47.344h-16.818v-47.09s.372-2.018-1.795-2.365l-5.078-.814c-2.617-.505-2.112 1.664-2.112 1.664l3.978 48.605h-3.715" fill="#132530"/><path d="M271.207 117.673c-3.656-.944-7.296-1.362-11.073-1.237l1.252-.702c4.14-2.293 10.614-2.916 15.585-1.658 4.443 1.15 15.796 7.424 13.016 14.866-1.49-1.62-3.03-3.08-4.663-4.358 0 0-1.594.577-1.11 2.478 3.147 3.025 4.875 6.96 3.53 10.554-4.193-5.858-13.505-10.914-20.64-13.19l-.633-.2c3.865-2.947 9.107-2.458 13.486-.194 0 0 1.578-.81 1.11-2.34-3.03-1.767-6.298-3.1-9.86-4.02" fill="#FFF"/><path d="M224.38 335.108c5.15-34.39 8.8-48.902 10.702-84.175h39.823c2.1 36.393 5.865 49.784 11.54 84.425l-31.44 31.93-30.625-32.18" fill="#FFF"/><path d="M228.174 337.57c2.684-14.746 9.972-48.018 11.75-86.612h30.115c1.773 38.594 9.03 71.732 11.73 86.506l-7.07 8.837c-3.292-16.23-5.196-25.89-8.176-41.952-.467-2.558-1.135-4.037-2.24-3.895-.9.13-1.337 1.317-1.425 4.2l-3.553 54.525-4.32 6.485-4.336-6.485-3.543-54.525c-.1-2.883-.53-4.066-1.415-4.2-1.106-.142-1.778 1.337-2.25 3.895-2.976 16.06-4.82 25.503-8.097 41.736l-7.17-8.515" fill="#132530"/><path d="M112.528 203.276c46.71-19.955 91.592-30.14 142.472-30.14 50.867 0 95.75 10.185 142.472 30.14v89.765C349.012 272.343 307.9 261.468 255 261.468c-52.883 0-94.013 10.87-142.472 31.574v-89.764" fill="#132530"/><path d="M121.573 209.097v72.078c41.242-17.603 86.658-27.367 134.34-27.367 47.68 0 93.07 9.76 134.322 27.367v-72.078c-41.25-17.628-86.646-27.363-134.32-27.363-47.684 0-93.1 9.74-134.342 27.363" fill="#FFF"/><path d="M183.367 210.684c0 2.716 1.27 3.134 4.416 2.512l4.183-.81c4.595-.895 5.626-1.64 5.626-5.027 0-3.653-1.244-3.766-6.62-2.71-3.702.736-4.124.782-4.124-.308 0-.673.53-1.066 1.307-1.228l3.836-.74c1.587-.318 1.674.05 1.674.97l3.465-.678v-.388c0-2.215-.373-3.652-4.367-2.875l-4.825.94c-4.362.85-4.55 2.64-4.55 4.91 0 3.087.593 3.66 5.794 2.64 4.46-.856 4.866-.877 4.866.222 0 .965-.76 1.2-1.494 1.34l-4.228.828c-.998.193-1.478.193-1.503-1.132l-3.456.665v.87" fill="#132530"/><path d="M207.88 209.452l12.53-1.554v-3.013l-9.073 1.132v-2.026l7.216-.89 1.202-2.723-8.418 1.02v-2.023l8.886-1.065v-2.93l-12.342 1.516v12.556" fill="#132530"/><path d="M237.88 196.96l2.24 4.54-4.42.322 2.18-4.863zm-8.35 10.227l3.845-.284 1.023-2.28 7.012-.49 1.077 2.152 3.848-.29-6.21-12.1-4.5.31-6.094 12.982z" fill="#132530"/><path d="M252.88 196.738l4.858.096v9.426l3.452.062v-9.426l4.867.088v-3.13l-13.177-.225v3.108" fill="#132530"/><path d="M272.81 197.247l4.867.343v9.422l3.443.238v-9.426l4.863.338v-3.12l-13.173-.912v3.117" fill="#132530"/><path d="M295.053 208.545l11.21 1.58V206.9l-7.742-1.096v-9.31l-3.467-.483v12.535" fill="#132530"/><path d="M314.073 211.453l12.54 2.432v-3.013l-9.07-1.775v-2.01l6.957 1.33 1.448-2.287-8.406-1.633v-2.01l8.874 1.73v-2.908l-12.343-2.416v12.56" fill="#132530"/><path d="M164.26 229.88c-4.325 1.127-7.247 5.845-7.247 11.335 0 5.46 2.922 8.715 7.246 7.583 4.327-1.128 7.228-5.89 7.228-11.352 0-5.478-2.9-8.695-7.23-7.567m-.116 25.227c-8.46 2.215-13.86-3.18-13.86-12.142 0-8.987 5.667-17.256 14.127-19.466 8.422-2.186 13.857 3.195 13.857 12.17 0 8.967-5.698 17.235-14.125 19.437" fill="#132530"/><path d="M231.238 212.49l.146 29.548-18.787-14.83 2.843 4.17-.12 11.558-6.943.82-.012-29.696 16.01 13.32.1-14.343 6.763-.552" fill="#132530"/><path d="M246.53 234.605c3.75.138 4.655-2.16 4.655-4.333v-7.905c0-5.933-3.865-4.555-7.45-4.788v17.163l2.796-.138zm10.444-13.717v9.505c0 7.738-5.993 10.42-9.153 10.35-5.793.192-10.292.23-10.292.23l.038-25.885-2.534-2.858s7.254-.472 13.67-.547c4.007.192 8.272 1.71 8.272 9.205z" fill="#132530"/><path d="M280.62 212.707l.033 6-11.228-.67-.067 5.596 9.567.844-3.21 4.872-6.323-.566.016 6.113 11.303.92.06 5.85-17.915-1.05-.13-14.8-3.33-3.066 3.327.327.05-11.32 17.847.95" fill="#132530"/><path d="M297.374 220.04l-5.043-.77v7.463l5.044.773c2.345.347 3.89-.965 3.89-3.16 0-2.188-1.545-3.968-3.89-4.307m4.17 23.97l-5.368-12.08-3.845-.584v11.29l-5.366-.8v-26.192l-2.46-2.457 13.212 1.968c5.58.827 8.907 5.27 8.907 9.99 0 3.97-2.342 6.075-5.01 6.673l6.13 13.115-6.2-.923" fill="#132530"/><path d="M297.282 228l-5.447-.845v-8.453l5.635.844-.096.49-.088.455-4.475-.647v6.468l4.664.7.822.04c1.586-.1 2.458-1.015 2.483-2.69 0-1.94-1.357-3.543-3.498-3.87l.087-.455.095-.49c2.546.37 4.283 2.34 4.27 4.765 0 2.097-1.39 3.626-3.443 3.727l-1.01-.038zm9.633 16.327l-6.002-12.84.614-.133c2.48-.576 4.595-2.42 4.624-6.192-.02-4.5-3.158-8.724-8.526-9.53l-11.712-1.74 1.544 1.535v25.992l4.383.66v-11.29l4.678.702 5.36 12.092 5.037.743zm-5.994-.488l-5.082-11.47-3.03-.452v10.926l-6.324-.73v-25.768l-3.13-3.405 14.942 1.618c5.806.873 8.815 5.62 8.807 10.562.03 3.89-2.2 6.222-4.8 7.028l6.035 12.97-7.417-1.28z" fill="#132530"/><path d="M319.558 247.774c-3.19-.626-7.05-2.69-9.533-4.838l1.682-5.77c2.308 2.164 5.276 3.84 7.93 4.375 2.3.456 3.156-.476 3.13-1.926-.03-1.512-.746-2.682-5.087-5.323-5-3.053-6.787-6.362-6.846-9.868-.07-4.27 3.198-7.733 9.772-6.434 3.055.602 6.24 2.352 7.9 3.81l-1.548 5.725c-1.628-1.47-4.253-3.213-6.252-3.61-2.392-.468-3.335.5-3.298 1.692.038 1.9 1.47 2.824 5.017 5.08 5.305 3.347 6.93 6.264 6.996 10.02.093 4.634-3.105 8.41-9.862 7.07" fill="#132530"/><path d="M191.853 248.15c-6.975 1.24-10.848-2.423-10.848-10.792V219.88l5.998-1.26v17.105c0 4.307 1.552 6.614 4.988 6.004 3.394-.64 4.947-3.524 4.947-7.856v-17.14l8.327-1.274-2.32 2.758v15.03c-.005 8.527-4.142 13.682-11.09 14.903" fill="#132530"/><path d="M138.25 264.654c-3.317 1.204-7.3 1.275-9.853.422l1.886-7.274c2.35.978 5.41 1.032 8.156.013 2.403-.873 3.322-2.407 3.322-3.95 0-1.624-.756-2.46-5.218-2.744-5.154-.304-6.94-2.852-6.94-6.617 0-4.563 3.46-10.287 10.275-12.802 3.184-1.177 6.456-1.186 8.172-.6l-1.71 7.148c-1.67-.63-4.384-.944-6.46-.184-2.465.903-3.463 2.507-3.463 3.786 0 2.055 1.46 2.193 5.13 2.52 5.47.45 7.11 2.69 7.11 6.7 0 4.994-3.396 10.99-10.41 13.584" fill="#132530"/><path d="M342.556 235.87v-12.793l17.81 4.772v6.446l-11.294-3.017v6.33l9.77 2.606-3.238 4.396-6.532-1.734v12.242l-6.516-1.738v-14.74l-3.276-3.67 3.276.9m0 2.67l-3.026-3.415" fill="#132530"/><path d="M375.26 265.51c-9.013-3.304-15.127-12.133-15.127-21.045 0-8.945 6.106-13.32 15.126-10.02 3.196 1.158 6.14 3.264 8.635 5.767l-1.962 5.193c-2.037-1.972-4.34-3.584-6.607-4.408-5.168-1.888-8.373.397-8.373 5.97 0 5.562 3.205 10.188 8.373 12.068 2.266.827 4.837.957 6.912.322l1.915 6.614c-2.404.81-5.74.682-8.894-.463" fill="#132530"/></g></svg>