<svg width="512" height="512" viewBox="0 0 512 512" xmlns="http://www.w3.org/2000/svg"><title>seattle-sounders-fc</title><g fill="none" fill-rule="evenodd"><path d="M178.217 343.836c-15.594-14.837-32.215-27.73-50.52-38.99 0 0 4.728-11.684 6.31-17.537 12.697-47.14 1.43-84.96-19.405-128.1 0 0 33.128 3.67 54.545 1.59 30.7-2.99 58.113-11.47 85.857-25.29 48.242 24.02 87.79 29.52 140.386 23.69-24.652 51.04-34.285 93.3-13.094 145.63 0 0-12.422 7.64-20.06 13.3-55.02 40.77-82.593 83.678-107.232 147.764-18.908-49.163-38-85.196-76.787-122.073" fill="#132530"/><path d="M185.7 335.538c24.063 22.872 52.15 56.105 69.3 98.192 20.152-49.457 58.685-93.617 101.39-125.25 5.896-4.362 10.216-7.224 12.24-8.54-4.453-12.176-6.824-25.467-7.955-38.28-2.045-23.55-.05-55.413 15.732-89.54-40.158 2.753-85.712-7.312-121.4-24.91-35.694 17.598-81.265 27.663-121.414 24.91 16.976 36.714 21.2 79.41 10.715 118.41-1.202 4.488-2.304 7.713-2.934 9.41 15.835 10.236 30.703 22.625 44.327 35.598" fill="#005595"/><path d="M186.73 334.857c23.7 22.54 51.378 55.29 68.27 96.73 19.847-48.7 57.805-92.197 99.882-123.366 5.814-4.31 10.08-7.13 12.062-8.42-4.386-11.96-6.74-25.07-7.842-37.71-2.004-23.17-.05-54.59 15.506-88.18-39.557 2.707-84.45-7.2-119.6-24.544-35.165 17.34-80.055 27.25-119.6 24.548 16.718 36.165 20.883 78.218 10.55 116.637-1.2 4.43-2.285 7.584-2.894 9.263 15.606 10.076 30.248 22.293 43.667 35.062m-2.41 2.55c-13.88-13.195-29.23-26.127-45.61-36.15 0 0 2.088-5.07 3.85-11.64 10.91-40.55 5.297-81.91-13.02-119.854 0 0 17.92 2.03 40.476-.16 29.64-2.88 58.254-10.88 85-24.19 36.32 18.09 84.54 28.996 125.47 24.36-18.33 37.937-23.945 79.297-13.026 119.846 1.766 6.57 3.853 11.638 3.853 11.638s-6.285 3.845-14.31 9.79c-45.163 33.45-81.58 77.176-101.983 130.227-15.8-41.04-39.19-73.88-70.69-103.864" fill="#FFF"/><path d="M160.23 205.992c-11.043-60.27-9.682-121.06-9.682-121.06L255 48.09l104.44 36.843s1.37 60.79-9.684 121.06c-12.76 69.734-36.12 133.28-94.756 178.4-58.643-45.12-81.98-108.662-94.77-178.4" fill="#132530"/><path d="M175.708 202.64C186.518 261.6 208.945 328.7 255 365.48c69.178-55.24 89.66-186.39 89.13-270.52L255 63.507 165.874 94.96c-.062 10.174.26 55.353 9.834 107.68" fill="#5D9741"/><path d="M177.674 202.934c10.53 57.505 32.402 122.948 77.326 158.814 67.463-53.857 87.443-181.773 86.922-263.855L255 67.243l-86.938 30.65c-.063 9.957.258 54.016 9.612 105.04m-6.006 1.096c-10.76-58.74-9.617-110.47-9.617-110.47L255 60.75l92.936 32.804s1.14 51.723-9.616 110.47C327.526 262.93 305.404 330.67 255 369.456c-50.417-38.785-72.522-106.527-83.332-165.43" fill="#FFF"/><path d="M233.296 202.027l-6.645-48.05c-6.03-1.67-17.28-5.523-17.28-13.365-5.73-2.82-11.87-7.103-11.87-13.216 0-7.032 7.84-11.595 14.66-14.402 4.38-5.127 12.99-8.633 22.74-10.58.44-2.803 2.12-5.477 4.01-7.24 2.676-2.282 5.548-3.936 8.378-4.994l.894-1.228 1.578-20.807c.96-5.867 7.065-5.207 8.9-3.113.82.815 1.367 2.018 1.488 3.16l1.695 20.74.934 1.274c10.126 4.01 12.09 9.062 12.597 12.14 9.546 1.242 18.1 5.492 22.477 10.652 6.84 2.807 14.67 7.37 14.67 14.402 0 6.113-6.143 10.358-11.874 13.16 0 8.174-11.11 11.918-17.4 13.54l-6.59 47.93H233.3" fill="#FFF"/><path d="M237.883 202.027l-7.234-51.668c-9.12-2.15-16.8-5.72-16.8-9.75 0-.9.31-1.76.93-2.59-7.45-2.89-11.91-6.6-11.91-10.63 0-4.05 4.53-7.78 12.09-10.69 3.37-4.86 12.78-8.79 24.98-10.6-2.29-3.55 1.94-7.6 1.94-7.6 2.693-2.29 5.45-3.71 8.16-4.53l2.51-3.46 1.57-21.88c.84-3.07 1.73 0 1.73 0l1.57 21.88 1.92 2.637c7.05 2.07 9.86 5.532 9.86 5.532l-1.45-.107c-6.465.79-8.226 4.236-7.97 6.542 17.06.76 30.96 5.43 35.25 11.57 7.544 2.91 12.08 6.64 12.08 10.685 0 4.033-4.457 7.75-11.9 10.63.594.827.915 1.69.915 2.586 0 4.03-6.67 7.61-16.95 9.81l-7.075 51.606h-3.67l3.915-48.51c.09-.575.18-2.16-1.886-1.795-1.53.25-5.248.82-5.248.82-1.744.29-1.83 1.43-1.83 2.135 0 0 .05 25.38.03 47.34H246.6v-47.09s.373-2.02-1.794-2.364l-5.08-.81c-2.615-.508-2.11 1.66-2.11 1.66L241.6 202h-3.715" fill="#132530"/><path d="M271.207 117.673c-3.656-.944-7.296-1.362-11.073-1.237l1.252-.702c4.14-2.293 10.614-2.916 15.585-1.658 4.45 1.15 15.8 7.424 13.02 14.866-1.49-1.62-3.03-3.08-4.66-4.358 0 0-1.59.577-1.11 2.478 3.15 3.025 4.88 6.96 3.53 10.554-4.19-5.858-13.5-10.914-20.64-13.19l-.63-.2c3.87-2.947 9.11-2.458 13.49-.194 0 0 1.58-.81 1.11-2.34-3.03-1.767-6.3-3.1-9.86-4.02m-46.83 217.436c5.15-34.39 8.8-48.902 10.707-84.175h39.823c2.1 36.393 5.864 49.784 11.54 84.425l-31.44 31.93-30.626-32.18" fill="#FFF"/><path d="M228.174 337.57c2.684-14.746 9.972-48.018 11.75-86.612h30.115c1.77 38.594 9.03 71.732 11.73 86.506l-7.07 8.837c-3.3-16.23-5.2-25.89-8.18-41.95-.47-2.56-1.14-4.03-2.24-3.89-.9.13-1.34 1.32-1.43 4.2l-3.56 54.53-4.32 6.49-4.337-6.485-3.544-54.527c-.1-2.882-.53-4.065-1.413-4.2-1.106-.14-1.778 1.338-2.25 3.896-2.976 16.06-4.82 25.503-8.097 41.736l-7.17-8.516" fill="#132530"/><path d="M112.528 203.276c46.71-19.955 91.592-30.14 142.472-30.14 50.867 0 95.75 10.185 142.472 30.14v89.765C349.012 272.35 307.9 261.47 255 261.47c-52.883 0-94.013 10.87-142.472 31.574V203.28" fill="#132530"/><path d="M121.573 209.097v72.078c41.242-17.603 86.658-27.367 134.34-27.367 47.68 0 93.07 9.76 134.322 27.367v-72.078c-41.25-17.628-86.646-27.363-134.32-27.363-47.684 0-93.1 9.74-134.342 27.363" fill="#FFF"/><path d="M183.367 210.684c0 2.716 1.27 3.134 4.416 2.512l4.183-.81c4.595-.895 5.626-1.64 5.626-5.027 0-3.66-1.244-3.77-6.62-2.71-3.702.73-4.124.78-4.124-.31 0-.68.53-1.07 1.307-1.23l3.836-.74c1.59-.32 1.68.05 1.68.97l3.47-.68v-.39c0-2.22-.37-3.65-4.36-2.88l-4.825.94c-4.362.85-4.55 2.64-4.55 4.91 0 3.083.593 3.66 5.794 2.64 4.46-.86 4.865-.88 4.865.22 0 .962-.76 1.2-1.497 1.34l-4.23.825c-1 .195-1.48.195-1.503-1.13l-3.455.665v.87m24.514-1.233l12.53-1.554v-3.016l-9.07 1.134v-2.023l7.214-.89 1.2-2.72-8.42 1.02v-2.026l8.886-1.062v-2.93l-12.342 1.517v12.556m30-12.492l2.24 4.54-4.42.325 2.18-4.863zm-8.35 10.23l3.846-.284 1.022-2.28 7.013-.49 1.078 2.152 3.85-.29-6.21-12.1-4.5.31-6.094 12.982zm23.35-10.45l4.86.097v9.426l3.452.063v-9.427l4.864.09v-3.13l-13.178-.225v3.106m19.93.51l4.867.344V207l3.44.24v-9.427l4.866.338v-3.12l-13.173-.91v3.12m22.244 11.3l11.21 1.58v-3.22l-7.74-1.093v-9.31l-3.467-.482v12.54m19.02 2.91l12.54 2.43v-3.015l-9.07-1.776v-2.01l6.952 1.33 1.45-2.29-8.407-1.63v-2.01l8.874 1.73v-2.908l-12.343-2.417v12.56M164.26 229.88c-4.325 1.127-7.247 5.845-7.247 11.335 0 5.46 2.922 8.715 7.246 7.583 4.32-1.128 7.22-5.89 7.22-11.352 0-5.478-2.9-8.695-7.23-7.567m-.12 25.22c-8.46 2.21-13.86-3.18-13.86-12.14 0-8.99 5.662-17.26 14.122-19.47 8.422-2.19 13.857 3.19 13.857 12.17 0 8.96-5.698 17.23-14.125 19.43m67.096-42.615l.146 29.547-18.79-14.83 2.844 4.17-.12 11.557-6.943.82-.01-29.694 16.01 13.32.1-14.342 6.762-.55m15.29 22.12c3.75.14 4.652-2.16 4.652-4.334v-7.904c0-5.932-3.866-4.554-7.45-4.787v17.16l2.795-.14zm10.44-13.718v9.504c0 7.737-5.99 10.42-9.15 10.35-5.79.19-10.29.23-10.29.23l.036-25.886-2.532-2.86s7.253-.472 13.67-.547c4.006.19 8.27 1.71 8.27 9.202zm23.648-8.18l.03 6-11.23-.67-.066 5.594 9.567.84-3.21 4.875-6.323-.565.017 6.113 11.303.92.06 5.85-17.914-1.05-.13-14.8-3.33-3.065 3.325.33.05-11.32 17.844.95m16.756 7.332l-5.04-.77v7.464l5.043.77c2.343.35 3.89-.963 3.89-3.16 0-2.186-1.547-3.966-3.89-4.305m4.17 23.97l-5.37-12.08-3.846-.587v11.29l-5.367-.8v-26.19l-2.46-2.46 13.21 1.97c5.58.83 8.906 5.27 8.906 9.99 0 3.97-2.34 6.078-5.01 6.676l6.13 13.116-6.2-.925" fill="#132530"/><path d="M297.282 228l-5.447-.845v-8.453l5.635.844-.096.49-.088.455-4.475-.64v6.47l4.67.7.82.04c1.59-.1 2.46-1.01 2.49-2.69 0-1.94-1.35-3.54-3.492-3.87l.087-.45.094-.49c2.545.37 4.282 2.34 4.27 4.768 0 2.097-1.39 3.626-3.444 3.727l-1.01-.04zm9.633 16.327l-6.002-12.84.614-.133c2.48-.576 4.595-2.42 4.624-6.192-.02-4.5-3.15-8.724-8.52-9.53l-11.71-1.74 1.55 1.535v25.992l4.386.66v-11.29l4.68.7 5.36 12.09 5.036.74zm-5.994-.488l-5.08-11.47-3.03-.46v10.92l-6.32-.73v-25.76l-3.13-3.41 14.94 1.618c5.81.873 8.82 5.62 8.81 10.562.03 3.89-2.2 6.22-4.8 7.027l6.04 12.97-7.412-1.28zm18.64 3.93c-3.19-.63-7.05-2.69-9.53-4.84l1.68-5.77c2.31 2.16 5.28 3.84 7.93 4.37 2.3.45 3.16-.48 3.13-1.93-.03-1.51-.74-2.68-5.08-5.324-5-3.053-6.78-6.36-6.84-9.868-.07-4.27 3.198-7.735 9.77-6.436 3.055.6 6.24 2.35 7.9 3.81l-1.55 5.724c-1.63-1.47-4.252-3.214-6.25-3.61-2.393-.47-3.336.5-3.3 1.69.036 1.9 1.47 2.825 5.015 5.08 5.305 3.35 6.93 6.265 6.996 10.02.096 4.635-3.102 8.41-9.86 7.07m-127.705.374c-6.975 1.24-10.85-2.426-10.85-10.795v-17.47l6-1.26v17.106c0 4.31 1.55 6.616 4.988 6.006 3.396-.64 4.95-3.53 4.95-7.86v-17.14l8.33-1.275-2.32 2.757v15.03c-.006 8.53-4.143 13.683-11.09 14.904m-53.61 16.505c-3.318 1.203-7.3 1.274-9.854.42l1.89-7.273c2.35.976 5.41 1.03 8.156.01 2.4-.872 3.32-2.406 3.32-3.95 0-1.623-.756-2.46-5.218-2.743-5.155-.306-6.94-2.85-6.94-6.62 0-4.563 3.46-10.287 10.274-12.8 3.18-1.18 6.45-1.187 8.17-.6l-1.71 7.15c-1.67-.63-4.386-.947-6.46-.187-2.47.9-3.465 2.503-3.465 3.782 0 2.055 1.46 2.193 5.13 2.52 5.47.45 7.11 2.69 7.11 6.7 0 4.994-3.397 10.99-10.41 13.584m204.31-28.786v-12.79l17.81 4.773v6.446l-11.296-3.016v6.33l9.77 2.606-3.24 4.4-6.532-1.735v12.247l-6.517-1.736v-14.74l-3.274-3.67 3.28.9m0 2.67l-3.026-3.416m35.73 30.385c-9.01-3.305-15.127-12.134-15.127-21.046 0-8.945 6.107-13.32 15.127-10.02 3.2 1.16 6.14 3.264 8.638 5.767l-1.964 5.19c-2.038-1.97-4.34-3.58-6.608-4.405-5.17-1.887-8.375.4-8.375 5.97 0 5.563 3.206 10.19 8.37 12.07 2.27.827 4.84.957 6.916.322l1.914 6.616c-2.405.81-5.74.684-8.895-.46" fill="#132530"/></g></svg>