<svg width="512" height="512" viewBox="0 0 512 512" xmlns="http://www.w3.org/2000/svg"><title>toronto-fc</title><g fill="none" fill-rule="evenodd"><path d="M418.207 281.99v-11.792s-7.166-1.558-19.095-3.773l4.97-17.777s-12.035-3.892-34.726-8.04V153.48s-22.31-3.945-54.432-6.813l5.81-18.622-20.6-14.906-4.388-13.516-7.188 5.27 2.754-8.486h-14.198l-20.63-15.02-20.602 15.02h-14.25l2.805 8.487-7.217-5.27-4.412 13.514-20.524 14.903 5.837 18.622c-32.124 2.87-54.433 6.813-54.433 6.813v87.128c-22.663 4.148-34.698 8.04-34.698 8.04l4.892 17.777c-11.934 2.215-19.063 3.773-19.063 3.773v11.79l-25.523 27.186 25.524 18.096v14.42s20.135-3.802 49.05-7.784c4.895 67.946 112.613 97.706 112.613 97.706s107.724-29.762 112.672-97.706c28.884 3.982 49.054 7.785 49.054 7.785v-14.422l25.495-18.096-25.498-27.183zM196.72 233.677c-9.18.74-17.567 1.698-25.293 2.67l12.342-16.03c4.333-.41 8.616-.868 12.948-1.25v14.61h.002zm-18.894-18.033l-10.4 14.79v-40.76c19.455-2.567 52.775-6.05 89.055-6.05 36.31 0 69.634 3.483 89.037 6.05v40.76l-10.38-14.79c-15.805-1.927-37.17-3.804-60.706-4.478v20.177c-5.86-.09-11.827-.18-17.95-.18-6.142 0-12.083.09-17.818.18v-20.177c-23.61.674-44.9 2.55-60.836 4.478zm138.55 3.42c4.206.383 8.54.843 12.926 1.25l12.314 16.03c-7.7-.973-16.213-1.927-25.24-2.67v-14.61zm-52.447-41.577l15.5-11.322c47.07 1.737 84.393 8.014 84.393 8.014v65.47c-3.646-.61-7.597-1.263-11.7-1.876v-53.5c-16.013-2.192-50.102-6.353-88.194-6.786zm-114.71-19.363s23.356-3.905 56.27-6.43l-6.68-21.48 18.79-13.567 2.55-8.077 14.89 10.796-5.736-17.46h8.386l18.79-13.68 18.817 13.68h8.363l-5.638 17.46 14.816-10.795 2.6 8.078 18.79 13.568-6.68 21.478c33.017 2.528 56.27 6.43 56.27 6.43v10.735s-38.346-6.523-86.38-8.156l-20.96 15.2-20.8-15.2c-48.137 1.633-86.458 8.155-86.458 8.155v-10.735zm0 16.055s37.355-6.277 84.446-8.014l15.448 11.322c-38.118.433-72.127 4.594-88.19 6.79v53.498c-4.16.613-8.083 1.265-11.704 1.875v-65.47zm107.263 62.51c86.74 0 140.743 15.877 140.743 15.877l-6.86 25.007 6.86 30.808s-54.002-15.8-140.743-15.8c-86.71 0-140.66 15.8-140.66 15.8l6.832-30.808-6.832-25.007s53.95-15.876 140.66-15.876zm112.873 71.232c11.678 2.22 20.577 4.34 26.515 5.897l-26.514 10.59v-16.488zm-78.248 18.097h14.812v3.725h-14.812c-3.57 0-6.373-2.296-6.373-5.105v-5.894c0-2.81 2.804-5.105 6.373-5.105h14.812v4.75l-1.58-1.023h-13.234c-1.022 0-1.835.69-1.835 1.38v5.893c.002.792.816 1.38 1.838 1.38zm20.092 39.79v14.653c-6.375 4.415-13.08 8.423-19.683 11.97l-11.806-9.878c12.596-5.308 22.975-11.078 31.49-16.745zm-24.834 29.2c-12.52 6.28-23.816 10.518-29.885 12.51-5.913-1.992-17.258-6.23-29.825-12.51l12.01-9.926V298.35c5.734-.103 11.675-.23 17.818-.23 6.12 0 12.09.127 17.95.23v86.734l11.933 9.926zm-118.94-79.968v-11c8.846-1.226 18.664-2.35 29.294-3.268v52.095s-26.617-18.787-29.293-37.828zm29.294 47.17v14.5c-15.22-11.792-27.56-26.473-29.09-43.98 4.282 6.738 12.978 17.892 29.09 29.48zm28.252-42.372v3.726h-12.29v4.875l1.404 1.303h-7.472l1.58-1.302v-13.45l-1.58-1.353h22.08v4.748l-1.66-1.02h-14.35v2.473h12.288v.002zm-23.175 45.97c8.54 5.667 18.968 11.437 31.51 16.745l-11.803 9.878c-6.553-3.547-13.31-7.555-19.705-11.97V365.81h-.003zm114.578-3.6c16.037-11.586 24.73-22.74 29.065-29.48-1.554 17.51-13.87 32.188-29.065 43.98v-14.5zm0-9.34v-52.096c10.606.92 20.295 2.042 29.142 3.267v11.002c-2.577 19.04-29.142 37.827-29.142 37.827zm-172.687-28.46l-26.59-10.59c5.99-1.56 14.965-3.677 26.59-5.898v16.488zm-43.348 10.645V324.41l-22.655-16.054 22.655-24.17v-9.42s5.615-1.174 15.046-2.986l1.584 5.894-8.694 38.62 31.487 12.532c-23.558 3.317-39.423 6.23-39.423 6.23zm263.483-5.95c0 65.904-107.34 96.687-107.34 96.687s-107.26-30.782-107.26-96.686V306.95c3.62-.61 7.548-1.25 11.702-1.964v24.12c0 50.563 78.732 78.947 95.558 84.434 16.955-5.487 95.64-33.87 95.64-84.434v-24.12c4.103.715 8.006 1.354 11.7 1.965v22.156zm48.9-4.695v10.645s-15.857-2.912-39.44-6.23l31.383-12.532-8.54-38.62 1.583-5.893c9.406 1.812 15.014 2.986 15.014 2.986v9.42l22.668 24.17-22.668 16.054zm-188.34-199.695l-13.155 9.585 5.356 16.526 15.804-.855 5.127-15.67-13.133-9.585zm40.26 1.634l5.023-15.432-13.183-9.56-13.155 9.56 5.023 15.43h16.294zm31.794 24.476l5.378-16.526-13.207-9.585-13.002 9.585 4.997 15.67 15.834.856zm-26.77 2.514l-5.023-15.467H248.35l-5.022 15.467 13.155 9.47 13.183-9.47z" fill="#FFF"/><path d="M247 277.392h15.604c3.875 0 7.062-3.162 7.062-7.04V256.1c0-3.92-3.187-7.043-7.062-7.043H247c-3.9 0-7.063 3.126-7.063 7.042v14.25c-.002 3.878 3.162 7.04 7.063 7.04zm-1.198-21.38c0-.752.69-1.365 1.403-1.365h15.168c.79 0 1.455.613 1.455 1.366v14.415c0 .765-.664 1.404-1.455 1.404h-15.168c-.714 0-1.403-.64-1.403-1.404v-14.415zm109.862 28.657l15.58 2.653c3.902.64 7.013-1.914 7.013-5.872v-14.037c0-3.937-3.11-7.6-7.014-8.302l-15.58-2.627c-3.874-.702-7.16 1.926-7.16 5.794v14.148c0 3.83 3.286 7.58 7.16 8.244zm-1.274-21.37c0-.883.714-1.378 1.427-1.314l15.198 2.627c.815.154 1.45.882 1.45 1.724v14.173c0 .866-.637 1.376-1.45 1.275l-15.198-2.603c-.713-.127-1.427-.945-1.427-1.737V263.3zm-181.355 19.148l15.63-1.683c3.9-.51 7.063-3.982 7.063-7.965v-14.057c0-3.892-3.163-6.726-7.062-6.176l-15.63 1.67c-3.876.5-7.012 4.01-7.012 7.89v14.096c0 3.928 3.136 6.76 7.01 6.225zm-1.123-21.05c0-.82.56-1.545 1.325-1.635l15.145-1.674c.842-.09 1.506.382 1.506 1.288v14.236c0 .766-.664 1.48-1.506 1.584l-15.145 1.66c-.765.15-1.325-.433-1.325-1.25v-14.21zm-28.608 3.215v20.21l-2.29 2.68 10.426-1.838-2.296-1.965v-20.108l9.613-1.786 2.372 1.965v-7.9l-29.755 5.324v7.853l2.293-2.71 9.636-1.724zm182.58-6.28v20.21l-2.32 2.07 10.455 1.17-2.296-2.6v-20.186l9.612.97 2.293 2.566v-7.798l-29.68-3.164v7.81l2.296-2.08 9.638 1.034zm-51.222 19.317l10.456.306-2.398-2.5V257.39l16.366 21.306 9.92.613-2.372-2.45v-23.502l2.373-2.246-10.457-.652 2.245 2.374v18.23l-16.342-21.357-9.79-.332 2.268 2.44v23.588l-2.268 2.247z" fill="#FFF"/><path d="M200.726 279.615l10.35-.792-2.292-2.168v-6.23l16.65-.918c.79 0 1.478.64 1.478 1.354v4.825l-2.397 2.475 10.53-.486-2.347-2.218v-4.494c0-2.22-1.427-4.008-3.312-4.65 1.886-.972 3.312-2.95 3.312-5.182v-4.58c0-3.957-3.16-6.882-7.062-6.677l-24.908 1.558 2.266 2.158v23.627m5.788-20.91l16.65-.93c.79-.09 1.478.585 1.478 1.377v5.69c0 .857-.688 1.533-1.48 1.585l-16.648.945v-8.666" fill="#FFF"/><path d="M196.72 219.065c-4.332.383-8.616.843-12.95 1.25l-12.34 16.03c7.725-.973 16.113-1.927 25.292-2.67m-29.295 81.367c2.676 19.04 29.293 37.827 29.293 37.827v-52.096c-10.63.92-20.448 2.042-29.293 3.267m34.37 76.42c6.397 4.416 13.154 8.424 19.705 11.97l11.804-9.877c-12.543-5.308-22.97-11.078-31.51-16.744M329.3 220.314c-4.386-.407-8.72-.867-12.927-1.25v14.61c9.026.74 17.54 1.697 25.24 2.67m-25.24 116.524s26.565-18.787 29.142-37.828v-11c-8.847-1.226-18.538-2.35-29.142-3.268m-24.858 91.66c6.604-3.548 13.308-7.556 19.683-11.97V365.81c-8.513 5.667-18.894 11.437-31.49 16.745m-30.568-123.15c0-.752.737-1.403 1.556-1.403h11.268v-1.607h-12.852c-.815 0-1.504.764-1.504 1.558v12.066h1.53m22.412-13.92v14.25c0 4.85-4.078 8.908-8.948 8.908H247l-1.07-.076c1.25.995 2.777 1.583 4.486 1.583h13.77c4.946 0 8.846-3.982 8.846-8.933v-12.31c0-1.683-.562-3.267-1.58-4.468l.1 1.046m86.254 11.11c0-.785.584-1.396 1.375-1.166l11.423 1.933v-1.552l-12.874-2.22c-.792-.116-1.506.41-1.506 1.253v11.938l1.582.256m22.282-10.997l.076 1.042v14.088c0 4.927-4.054 8.244-8.923 7.43l-15.578-2.732c-.382-.027-.765-.127-1.07-.256 1.2 1.277 2.78 2.12 4.387 2.426l13.768 2.32c4.92.947 8.974-2.5 8.974-7.4v-12.2c-.002-1.713-.614-3.37-1.634-4.718m-206.364-3.586v11.95l1.45-.203v-10.433c0-.768.69-1.558 1.53-1.674l11.4-1.2v-1.544l-12.93 1.43c-.764.154-1.45.88-1.45 1.673m23.813-4.456v14.034c0 4.9-3.953 9.34-8.87 9.927l-15.632 1.685c-.358.127-.664.127-1.018.127 1.22.842 2.776 1.276 4.408 1.123l13.72-1.607c4.97-.485 8.948-4.927 8.948-9.904v-12.283c0-1.635-.56-3.103-1.556-4.326v1.224m-62.822 13.216l2.347-2.783 4.382-.79v-1.428l-6.73 1.173m16.267-2.89v17.462l1.555 1.278v-17.516l6.913-1.225-1.506-1.264m4.998 1.494l1.502 1.173v-7.837l-1.502.32m-17.03 29.45l-1.557 1.835 10.453-1.888-1.453-1.2m166.235-26.09l4.41.445v-1.582l-6.655-.74v3.89m23.228-1.338l-7.087-.676v17.515l1.605 1.634v-17.542l7.013.766m3.417 1.2l1.48 1.66v-7.864l-1.48-.14m-18.612 26.055l10.504 1.146-1.58-1.683-7.37-.818m-27.128-2.398l1.174 1.608 9.865.637-1.553-1.558m-2.37-5.077l1.555 1.607V256.93l2.37-2.232-3.926-.167m-21.52 25.39l-7.42-.202-1.528 1.455 10.53.33m-2.372-16.62l-1.505-2.057v11.99l1.506 1.61m-50.048-.358v-1.838c0-1.48-.586-2.78-1.582-3.623v4.032m-22.308-.998l12.823-.69v-1.505l-14.38.818v3.547l1.558 1.453m.79 3.347l-7.367.587-1.53 1.63 10.477-.79m18.028-15.96c.254.257.508.575.765.9 1.605-.938 2.728-2.776 2.728-4.74v-2.477c0-1.76-.586-3.216-1.582-4.39v5.73c0 1.786-.687 3.626-1.91 4.978m-20.398-6.558l12.823-.78v-1.44l-14.38.827v4.875l1.558-.116m17.235 16.802l-1.504 1.632 10.503-.458-1.556-1.404" fill="#B0B7BB"/><path d="M412.724 284.185v-9.42s-5.608-1.173-15.015-2.985l-1.583 5.894 8.54 38.62-31.383 12.532c23.582 3.317 39.44 6.23 39.44 6.23V324.41l22.668-16.054m-318.424-30.682l-1.582-5.894c-9.433 1.812-15.046 2.986-15.046 2.986v9.42l-22.655 24.17 22.655 16.054v10.645s15.865-2.912 39.423-6.23l-31.487-12.532m52.65-132.018c16.06-2.194 50.072-6.354 88.19-6.79l-15.448-11.32c-47.092 1.734-84.446 8.013-84.446 8.013v65.47c3.62-.61 7.547-1.263 11.703-1.876m202.898 1.877v-65.47s-37.325-6.277-84.392-8.014l-15.5 11.322c38.09.433 72.18 4.594 88.19 6.79v53.498c4.104.61 8.057 1.263 11.703 1.873m-11.704 89.456c0 50.563-78.683 78.947-95.64 84.434-16.825-5.487-95.556-33.87-95.556-84.434v-24.12c-4.16.715-8.083 1.354-11.704 1.965v22.156c0 65.903 107.26 96.686 107.26 96.686s107.34-30.782 107.34-96.686V306.95c-3.695-.61-7.596-1.25-11.7-1.964" fill="#E31937"/><path d="M256.483 175.904l20.96-15.2c48.035 1.633 86.38 8.155 86.38 8.155v-10.735s-23.252-3.905-56.27-6.43l6.68-21.48-18.79-13.567-2.602-8.077-14.812 10.796 5.636-17.46h-8.362l-18.817-13.68-18.793 13.68h-8.386l5.735 17.46-14.887-10.795-2.55 8.078-18.79 13.568 6.678 21.478c-32.915 2.528-56.27 6.43-56.27 6.43v10.735s38.32-6.523 86.46-8.156l20.803 15.2zm32.125-51.19l13.207 9.586-5.38 16.528-15.832-.856-5-15.672 13.005-9.585zm-32.125-23.355l13.183 9.558-5.022 15.43h-16.29l-5.024-15.43 13.153-9.56zm-8.132 36.513h16.292l5.022 15.467-13.183 9.47-13.152-9.47 5.023-15.467zm-31.766 12.953l-5.356-16.528 13.156-9.585 13.13 9.585-5.124 15.673-15.806.856zm139.233 128.356l15.198 2.603c.815.103 1.45-.41 1.45-1.275v-14.173c0-.842-.637-1.57-1.45-1.724l-15.198-2.627c-.713-.064-1.427.43-1.427 1.313v14.145c0 .792.714 1.61 1.427 1.737zm.407-13.726c0-.843.714-1.367 1.505-1.252l12.873 2.22v1.55l-11.422-1.932c-.79-.23-1.374.38-1.374 1.168v10.438l-1.582-.256v-11.936zm-240.4 42.926s53.948-15.8 140.66-15.8c86.738 0 140.742 15.8 140.742 15.8l-6.86-30.808 6.86-25.007s-54.002-15.876-140.743-15.876c-86.71 0-140.66 15.877-140.66 15.877l6.832 25.007-6.832 30.808zm18.89-36.552V268l6.73-1.173v1.43l-4.384.79-2.345 2.783zm9.64 18.453l1.555-1.836 7.443-1.25 1.45 1.2-10.45 1.886zm8.18-23.946v17.516l-1.553-1.278V265.11l6.962-1.264 1.506 1.264-6.913 1.227zm51.556 16.494l1.53-1.63 7.37-.588 1.577 1.43-10.477.79zm8.108-5.565l-1.558-1.453v-3.547l14.38-.818v1.506l-12.822.69v3.622zm65.78 3.908l1.528-1.455 7.42.203 1.58 1.583-10.528-.33zm8.158-4.748l-1.505-1.608v-11.99l1.506 2.055v11.543zm16.37 5.82l-1.174-1.607 9.485.688 1.554 1.557-9.864-.638zm14.837-19.126v-3.893l6.655.74v1.583l-4.41-.446-2.245 2.015zm9.562 21.27l1.554-1.355 7.37.818 1.58 1.683-10.505-1.147zm8.183-21.678v17.544l-1.605-1.635v-17.514l7.088.676 1.53 1.696-7.012-.766zm46.632 8.66v12.2c0 4.9-4.054 8.346-8.974 7.4l-13.768-2.32c-1.607-.307-3.187-1.15-4.388-2.427.306.127.688.23 1.07.256l15.58 2.733c4.868.816 8.922-2.503 8.922-7.43v-14.088l-.076-1.042c1.022 1.35 1.634 3.007 1.634 4.718zm-33.218-9.095c0-3.866 3.287-6.496 7.162-5.794l15.58 2.628c3.902.703 7.013 4.366 7.013 8.303v14.038c0 3.957-3.11 6.51-7.014 5.873l-15.58-2.654c-3.874-.664-7.16-4.416-7.16-8.245v-14.148zm-2.985-3.943l1.48.14v7.863l-1.48-1.66v-6.343zm-31.566-6.763l29.68 3.165v7.798l-2.294-2.565-9.612-.97v20.184l2.295 2.603-10.457-1.173 2.32-2.067v-20.21l-9.64-1.032-2.292 2.08v-7.812zm-3.948 5.36v20.924l-1.556-1.607V254.53l3.923.168L310 256.93zm-35.34-7.555l9.79.332 16.345 21.36v-18.23l-2.245-2.375 10.457.65-2.374 2.248v23.502l2.373 2.45-9.92-.612-16.366-21.305v18.064l2.397 2.5-10.456-.306 2.27-2.245v-23.596l-2.272-2.44zm-1.63 10.147v12.31c0 4.95-3.9 8.933-8.847 8.933h-13.77c-1.708 0-3.234-.586-4.486-1.583l1.07.076h15.604c4.87 0 8.948-4.058 8.948-8.91V256.1l-.1-1.047c1.018 1.2 1.58 2.784 1.58 4.47zm-33.097-3.422c0-3.918 3.162-7.043 7.063-7.043h15.605c3.875 0 7.06 3.125 7.06 7.043v14.25c0 3.878-3.185 7.042-7.06 7.042h-15.605c-3.9 0-7.063-3.164-7.063-7.043V256.1zm-1.502 24.766l-10.504.458 1.503-1.632 7.444-.23 1.556 1.404zm-3.927-10.26c.994.84 1.582 2.143 1.582 3.622v1.838l-1.582-1.43v-4.03zm1.582-10.843v2.477c0 1.964-1.123 3.802-2.728 4.74-.257-.327-.51-.645-.765-.9 1.224-1.353 1.91-3.19 1.91-4.976v-5.73c.995 1.175 1.583 2.628 1.583 4.39zm-35.362-8.334l24.908-1.56c3.903-.202 7.062 2.72 7.062 6.677v4.58c0 2.233-1.427 4.213-3.312 5.182 1.887.644 3.312 2.43 3.312 4.65v4.49l2.347 2.22-10.53.486 2.397-2.474v-4.825c0-.715-.688-1.354-1.48-1.354l-16.648.92v6.228l2.29 2.17-10.348.79 2.267-2.4v-23.627l-2.264-2.154zm-1.633 10.287V274c0 4.976-3.977 9.418-8.95 9.903l-13.718 1.607c-1.632.153-3.188-.28-4.408-1.123.352 0 .658 0 1.018-.127l15.63-1.685c4.92-.586 8.872-5.028 8.872-9.927V257.39c.995 1.224 1.556 2.692 1.556 4.327zm-33.07.41c0-3.883 3.137-7.392 7.012-7.89l15.63-1.672c3.9-.55 7.063 2.284 7.063 6.176V272.8c0 3.984-3.163 7.454-7.062 7.966l-15.63 1.682c-3.876.536-7.012-2.295-7.012-6.227v-14.094zm-3.083-3.13l1.502-.32v7.836l-1.502-1.173v-6.343zm-31.565 2.197l29.754-5.323v7.9l-2.374-1.966-9.612 1.786v20.106l2.294 1.967-10.427 1.837 2.292-2.68v-20.208l-9.636 1.723-2.293 2.71v-7.85h.002zm95.535 1.25v-5.692c0-.792-.688-1.468-1.48-1.378l-16.648.932v8.666l16.65-.945c.79-.052 1.478-.728 1.478-1.584zm-1.89-3.7l-12.824.778v3.37l-1.556.113v-4.874l14.38-.827v1.44zm-51.783 18.116l15.145-1.66c.842-.103 1.506-.818 1.506-1.584V259.38c0-.906-.664-1.378-1.506-1.29l-15.145 1.675c-.765.09-1.325.818-1.325 1.634v14.207c0 .818.56 1.404 1.325 1.253zm.487-13.79c0-.793.686-1.52 1.45-1.673l12.93-1.43v1.544l-11.397 1.2c-.84.116-1.53.906-1.53 1.674v10.433l-1.45.203v-11.95h-.003zm73.48 8.76h15.17c.79 0 1.454-.638 1.454-1.404V256.01c0-.752-.664-1.365-1.455-1.365h-15.168c-.714 0-1.403.613-1.403 1.366v14.416c0 .767.69 1.404 1.403 1.404zm.408-13.877c0-.794.688-1.558 1.504-1.558h12.852v1.607H250.7c-.82 0-1.556.65-1.556 1.404v10.613h-1.53v-12.067h-.002zm-20.577 59.412l1.66 1.022v-4.748h-22.08l1.58 1.352v13.45l-1.58 1.303h7.47l-1.402-1.302v-4.875h12.29v-3.728h-12.29v-2.475h14.352zm64.073 0h13.233l1.582 1.022v-4.748H291.11c-3.57 0-6.373 2.295-6.373 5.104v5.894c0 2.81 2.804 5.105 6.373 5.105h14.812v-3.726H291.11c-1.02 0-1.836-.587-1.836-1.38v-5.893c-.002-.69.812-1.38 1.834-1.38z" fill="#E31937"/><path d="M369.356 307.922v16.488l26.515-10.59c-5.937-1.56-14.838-3.677-26.514-5.898M143.688 324.41v-16.488c-11.623 2.22-20.6 4.34-26.59 5.897m50.533 18.91c1.53 17.51 13.872 32.188 29.092 43.98v-14.5c-16.114-11.586-24.81-22.74-29.09-29.48m148.743 29.48v14.5c15.196-11.79 27.51-26.47 29.065-43.98-4.334 6.74-13.028 17.894-29.065 29.48M167.427 189.676v40.76l10.4-14.79c15.934-1.927 37.223-3.804 60.835-4.478v20.177c5.735-.09 11.676-.18 17.82-.18 6.12 0 12.09.09 17.95.18v-20.177c23.534.674 44.9 2.55 60.706 4.478l10.38 14.79v-40.76c-19.402-2.567-52.73-6.05-89.037-6.05-36.28 0-69.6 3.483-89.053 6.05M274.433 298.35c-5.862-.103-11.83-.23-17.95-.23-6.143 0-12.084.127-17.82.23v86.734l-12.01 9.926c12.57 6.28 23.914 10.518 29.828 12.51 6.07-1.992 17.367-6.23 29.886-12.51l-11.935-9.926" fill="#455560"/></g></svg>