<svg width="512" height="512" viewBox="0 0 512 512" xmlns="http://www.w3.org/2000/svg"><title>vancouver-whitecaps-fc</title><g fill="none" fill-rule="evenodd"><path d="M257.497 48.583l-35.533 59.45-13.177-22.036-4.202-7.04-4.214 7.04-100.567 168.27-1.502 2.512 104.85 175.427 17.84-29.85 36.502 61.06 36.5-61.066 13.645 22.828 4.21 7.028 4.205-7.028 99.14-165.886 1.51-2.513-1.51-2.514L314.61 86.003l-4.202-7.04-4.213 7.04-13.17 22.03-35.528-59.45zm0 9.553l35.527 59.44 17.384-29.06 100.574 168.262-99.143 165.88L293.99 392.8l-36.5 61.06-36.5-61.06-17.84 29.85-99.14-165.873L204.585 88.51l17.378 29.067 35.533-59.44z" fill="#AEACAD"/><path d="M220.99 392.804l36.5 61.06 36.5-61.06 17.85 29.856 99.142-165.88-100.58-168.27-17.378 29.064-35.527-59.443-35.533 59.45-17.378-29.07L104.01 256.78l99.14 165.874 17.84-29.85" fill="#00245E"/><path d="M323.493 285.32l-65.99 110.387L191.51 285.32H169.2l88.304 147.708 88.284-147.708h-22.295zm-120.34 79.195l-47.33-79.195H133.52l69.632 116.497 15.51-25.937-11.156-18.65-4.354 7.285zm156.035-79.195l-47.348 79.195-4.343-7.286-11.156 18.65 15.5 25.946 69.64-116.506H359.19z" fill="#9DC2EB"/><path d="M310.406 109.35l-15.1 25.25 10.862 18.166 4.238-7.09 49.346 82.557h21.715l-71.06-118.882zm-176.87 118.883h21.71l49.35-82.558 4.237 7.083 10.86-18.153-15.098-25.254-71.06 118.883z" fill="#FFF"/><path d="M205.944 201.555l51.562-86.254 51.558 86.255h21.713l-73.27-122.583-73.278 122.583h21.714" fill="#FFF"/><path d="M122.934 240.956h7.578l5.045 20.24h.08l6.603-20.24h6.47l6.554 20.777h.085l5.304-20.777h7.047l-9.227 31.57h-6.197l-6.954-21.856h-.094l-6.956 21.855h-5.975l-9.363-31.57" fill="#FFF"/><path d="M171.06 240.956h6.954v11.772h13.517v-11.772h6.957v31.57h-6.956V258.88h-13.516v13.645h-6.955v-31.57" fill="#FFF"/><path d="M206.066 240.954h6.95v31.567h-6.95v-31.566z" fill="#FFF"/><path d="M227.208 247.107h-9.006v-6.15h24.974v6.15h-9.013v25.414h-6.955v-25.413" fill="#FFF"/><path d="M248.605 240.956h21.456v6.425h-14.494v5.883h10.712v6.42h-10.712v6.423h15.295v6.42h-22.255v-31.57" fill="#FFF"/><path d="M296.143 249.154c-1.38-1.645-3.39-2.58-5.977-2.58-5.254 0-9.14 4.28-9.14 10.163 0 5.89 3.886 10.164 8.92 10.164 2.808 0 5.082-1.243 6.51-3.38l5.798 4.322c-2.638 3.745-7.092 5.483-11.415 5.483-9.864 0-17.035-6.46-17.035-16.588 0-10.12 7.17-16.583 17.034-16.583 3.522 0 7.975 1.208 10.656 4.64l-5.353 4.36" fill="#FFF"/><path d="M319.24 250.14l-3.833 9.805h7.713l-3.88-9.805zm-2.675-9.185h5.755l13.737 31.57h-7.854l-2.717-6.69H313.22l-2.63 6.69h-7.67l13.645-31.57z" fill="#FFF"/><path d="M346.14 254.332h4.643c2.447 0 4.904-.85 4.904-3.79 0-3.258-3.3-3.7-5.982-3.7h-3.565v7.49zm-6.95-13.374h11.723c6.56 0 11.995 2.095 11.995 9.585 0 7.397-5.034 9.677-11.68 9.677h-5.087v12.3h-6.95V240.96z" fill="#FFF"/><path d="M383.775 248.667c-1.116-1.423-3.352-2.095-5.046-2.095-1.96 0-4.676.893-4.676 3.258 0 5.747 14.532 2.045 14.532 13.11 0 7.044-5.66 10.384-12.174 10.384-4.06 0-7.624-1.202-10.613-3.968l4.952-5.44c1.424 1.868 3.738 2.99 6.062 2.99 2.274 0 4.817-1.073 4.817-3.297 0-5.802-14.81-2.68-14.81-13.2 0-6.733 5.847-10.257 12.044-10.257 3.568 0 7.005.937 9.68 3.295l-4.77 5.22" fill="#FFF"/><path d="M231.954 285.147h21.173v6.424H238.91v6.42h10.176v6.42H238.91v12.305h-6.956v-31.568" fill="#FFF"/><path d="M276.542 293.35c-1.38-1.646-3.38-2.58-5.976-2.58-5.26 0-9.142 4.28-9.142 10.163s3.88 10.163 8.92 10.163c2.818 0 5.084-1.25 6.513-3.387l5.796 4.322c-2.63 3.745-7.09 5.488-11.414 5.488-9.86 0-17.036-6.468-17.036-16.588 0-10.12 7.176-16.587 17.035-16.587 3.52 0 7.983 1.207 10.655 4.638l-5.353 4.366" fill="#FFF"/><path d="M176.578 210.305h4.535l4.46 11.82h.05l4.54-11.82h4.25l-7.434 18.034h-3.187l-7.215-18.035" fill="#FFF"/><path d="M200.997 215.55l-2.193 5.612h4.41l-2.217-5.613zm-1.53-5.25h3.292l7.84 18.043h-4.478l-1.56-3.825h-7.01l-1.496 3.825h-4.38l7.792-18.042z" fill="#FFF"/><path d="M212.772 210.305h5.402l7.67 12.534h.055v-12.535h3.973v18.034h-5.2l-7.877-12.838h-.05v12.837h-3.973v-18.035" fill="#FFF"/><path d="M245.547 214.992c-.79-.942-1.94-1.478-3.414-1.478-3.005 0-5.223 2.445-5.223 5.81 0 3.362 2.218 5.808 5.094 5.808 1.603 0 2.91-.71 3.72-1.935l3.316 2.47c-1.504 2.138-4.06 3.135-6.524 3.135-5.63 0-9.734-3.696-9.734-9.48 0-5.785 4.103-9.474 9.734-9.474 2.008 0 4.56.69 6.086 2.65l-3.055 2.494" fill="#FFF"/><path d="M260.045 225.133c3.382 0 5.604-2.445 5.604-5.81 0-3.36-2.225-5.807-5.605-5.807-3.39 0-5.607 2.446-5.607 5.808 0 3.364 2.218 5.81 5.607 5.81m0-15.29c5.63 0 9.733 3.696 9.733 9.48 0 5.785-4.102 9.475-9.733 9.475-5.637 0-9.735-3.69-9.735-9.475s4.098-9.48 9.735-9.48" fill="#FFF"/><path d="M288.352 221.388c0 4.255-2.6 7.41-7.596 7.41-5.02 0-7.62-3.154-7.62-7.41v-11.082h3.98v10.927c0 2.217 1.53 3.9 3.642 3.9 2.087 0 3.614-1.683 3.614-3.9v-10.927h3.98v11.082" fill="#FFF"/><path d="M290.546 210.305h4.54l4.46 11.82h.05l4.54-11.82h4.25l-7.436 18.034h-3.183l-7.22-18.035" fill="#FFF"/><path d="M310.787 210.305h12.253v3.67h-8.28v3.364h7.825v3.664h-7.824v3.67h8.736v3.666h-12.71v-18.035" fill="#FFF"/><path d="M331.01 217.767h2.346c1.446 0 3.332-.05 3.332-2.008 0-1.817-1.63-2.09-3.08-2.09h-2.6v4.097zm-3.974-7.466h6.98c3.696 0 6.8 1.277 6.8 5.484 0 2.52-1.35 4.48-3.9 4.946l4.59 7.614h-4.763l-3.77-7.213h-1.966v7.214h-3.973V210.3h.002z" fill="#FFF"/><path d="M327.797 415.576h2.697v7.084h1.387v-7.084h2.716v-1.238h-6.8v1.238" fill="#051C36"/><path d="M339.672 420.99l-2.106-6.652h-2.04v8.32h1.277v-7.084l2.235 7.085h1.262l2.137-6.98v6.98h1.27v-8.322h-2.003l-2.032 6.65" fill="#051C36"/></g></svg>