<svg width="512" height="512" viewBox="0 0 512 512" version="1.1" xmlns="http://www.w3.org/2000/svg" xmlns:sketch="http://www.bohemiancoding.com/sketch/ns"><title>charlotte-hornets</title><desc>Created with Sketch.</desc><g sketch:type="MSLayerGroup" stroke="none" stroke-width="1" fill="none"><path d="M147.769 239.208h-30.001v32.51l-18.075 8.849 18.075 9.408v28.97l19.939 12.203c7.361-.932 16.678-2.049 27.579-3.167l76.96 44.34 14.069 64.553c.093-.186 14.162-64.553 14.162-64.553l76.867-44.34c10.808 1.118 20.218 2.236 27.579 3.167l19.939-12.203v-28.97l18.075-9.222-18.075-9.036v-32.51h-30.001s4.659-4.471 10.528-14.625c2.422-4.192 4.752-9.501 7.64-15.742 21.895-6.614 38.014-20.586 44.909-34.186 18.728-34.279 32.796-76.197 32.796-76.197s-8.106 3.912-17.796 8.663c7.92-24.126 12.671-44.619 12.671-44.619s-86.37 57.101-153.64 110.756l-5.87-3.447c0-.559.186-5.496.186-5.868 0 0 .652-5.682-9.41-9.129-.652-.186-1.211-.373-1.77-.559 4.845-3.633 12.392-9.222 17.982-13.041 8.758-6.055 7.733-12.668 7.733-12.668l-31.958 23.753c-24.691-8.011-45.188 0-45.188 0l-31.865-23.753s-1.025 6.614 7.733 12.668c5.497 3.819 13.044 9.408 17.982 13.041l-1.77.559c-10.063 3.447-9.41 9.129-9.41 9.129 0 .373.186 5.31.186 5.868l-5.87 3.447c-67.27-53.655-153.547-110.756-153.547-110.756s4.752 20.493 12.671 44.619c-10.435-5.123-17.796-8.663-17.796-8.663s14.069 41.918 32.796 76.197c6.895 13.6 23.013 27.573 44.909 34.186 0 0 3.727 8.477 6.895 14.532 3.82 7.545 11.181 15.836 11.181 15.836" fill="#25205D" sketch:type="MSShapeGroup"/><path d="M292.464 190.397l-.932 2.795c30.188-19.748 83.016-54.214 142.273-92.685 0 0 .093 1.304 5.311-13.879-62.518 37.726-117.862 80.575-146.652 103.77m-72.394-.001c-28.697-23.288-84.041-66.044-146.559-103.77 5.218 15.184 5.311 13.879 5.311 13.879 59.164 38.471 111.993 72.844 142.273 92.592-.373-.838-.745-1.77-1.025-2.701m36.244 30.554c-5.124-1.956-18.169-8.477-25.995-25.43 6.429 5.496 14.628 7.266 21.15.932-8.013-3.447-9.038-17.699-10.528-21.425-3.168-7.545-8.106-11.458-12.019-13.041 1.957-.652 3.727-1.211 5.404-1.77 3.727 2.049 9.969 6.707 11.926 16.022 0 0 .839-10.619-4.472-18.071 10.249-2.422 20.498-2.142 28.883 0-5.311 7.452-4.472 18.071-4.472 18.071 1.957-9.315 8.199-13.973 12.019-16.022 1.677.559 3.541 1.118 5.497 1.77-3.913 1.584-8.851 5.403-12.019 13.041-1.584 3.726-2.516 17.978-10.528 21.425 1.863 10.805-.373 20.959-4.845 24.499m-91.122 19.934s-14.814-10.619-23.2-29.995l5.963 1.77c19.38 5.123 56.369 10.247 56.369 10.247-17.796.373-32.89 1.77-41.461 2.795-1.77-2.236-3.82-5.03-4.659-7.173 0 0 .652 6.8 2.143 10.992 1.863 6.148 4.845 11.364 4.845 11.364m187.088-11.365c1.491-4.285 2.143-10.992 2.143-10.992-.745 2.142-2.795 4.937-4.659 7.173-8.572-.932-23.666-2.329-41.461-2.701 0 0 36.989-5.123 56.369-10.247l5.963-1.77c-8.385 19.375-23.2 29.995-23.2 29.995-.093-.093 2.888-5.31 4.845-11.458m-142.087 103.117l-37.641-21.704c-2.702.279-5.404.559-7.92.745l52.363 30.181c-2.609-2.795-4.845-5.868-6.802-9.222m92.147 0l37.641-21.704c2.702.279 5.404.559 7.92.745l-52.269 30.274c2.609-2.888 4.845-5.962 6.708-9.315m-62.798 5.124c-16.678-3.633-23.479-11.83-23.479-11.83 3.447 6.893 8.572 12.855 14.907 17.233-.093 0 6.895-2.049 8.572-5.403m-10.156-17.792c-1.211-1.118-2.329-2.329-3.541-3.54-5.311 1.863-8.292 3.912-9.876 5.31 3.727 3.54 10.715 8.197 23.293 10.805-1.584-4.378-5.497-8.197-9.876-12.575m26.554 39.309c-5.497.093-9.41 2.236-10.808 2.701-1.398-2.608-2.981-5.216-4.472-7.545 4.752.559 8.944-.279 8.944-.279-1.957-.652-7.081-2.422-13.883-6.8.559-.279 1.118-.466 1.77-.838 1.77-.932 3.541-2.049 4.938-3.447 1.677-1.77 2.795-3.912 2.795-6.521 0-8.29-5.59-11.085-11.833-17.233-1.211-1.211-2.609-2.515-4.006-3.819 5.777-1.49 13.51-2.701 24.038-2.888l2.516 35.025h.373l2.609-35.025c10.528.186 18.262 1.397 24.038 2.888-1.398 1.304-2.702 2.608-4.006 3.819-6.243 6.148-11.833 8.942-11.833 17.233 0 2.701 1.118 4.844 2.888 6.521 1.398 1.49 3.168 2.608 4.938 3.447l1.77.838c-6.708 4.471-11.833 6.148-13.883 6.8 0 0 4.193.932 8.944.279-1.491 2.329-3.168 4.937-4.472 7.545-1.304-.466-5.218-2.608-10.808-2.701h-.559zm25.715-16.115c6.336-4.378 11.46-10.247 14.907-17.233 0 0-6.895 8.197-23.479 11.83 1.584 3.353 8.572 5.403 8.572 5.403m-8.292-10.619c12.578-2.608 19.659-7.266 23.293-10.805-1.584-1.397-4.659-3.447-9.876-5.31-1.211 1.211-2.329 2.422-3.541 3.54-4.379 4.378-8.292 8.197-9.876 12.575" fill="#048DA8" sketch:type="MSShapeGroup"/><path d="M245.04 197.384s-6.056-4.005-7.081-12.575c0-.093-7.92 13.227 7.081 12.575m23.013 0s6.149-4.005 7.081-12.575c0-.093 7.826 13.227-7.081 12.575m-4.565 174.657c-1.118-1.118-2.702-2.422-7.547-2.422-4.565 0-6.149 1.118-7.547 2.236l7.826 31.019 7.267-30.833zm51.897-136.186v11.364h-3.82v-11.364h-3.168v-3.26h10.156v3.26h-3.168zm-17.796 0v11.364h-3.82v-11.364h-3.168v-3.26h10.156v3.26h-3.168zm-53.574 6.148h1.398v-7.825l-1.584-1.584h-9.69v14.625h3.634v-5.216h2.702l2.05 5.216h3.541l-2.05-5.216zm-6.336-3.26v-2.888h4.1v2.888h-4.1zm99.694-2.888v-3.26h-10.715v14.625h10.715v-3.26h-6.988v-2.422h6.988v-3.26h-6.988v-2.422h6.988zm-79.103 8.104v-11.364h-3.727v14.625h9.131v-3.26h-5.404zm22.175-11.364h-9.69v12.948l1.584 1.677h9.69v-12.948l-1.584-1.677zm-6.149 11.364v-8.104h4.1v8.104h-4.1zm-48.822 3.26v-12.948l-1.584-1.584h-9.876v14.625h3.634v-4.751h4.193v4.751h3.634v-.093zm-7.826-8.011v-3.353h4.193v3.353h-4.193zm-15.374-6.613v6.614h-4.1v-6.614h-3.634v14.625h3.634v-4.751h4.1v4.751h3.727v-14.625h-3.727zm219.047-103.584c7.081-16.674 12.485-28.504 12.485-28.504-59.164 38.471-111.993 72.937-142.273 92.685-1.118 3.167-2.516 6.148-3.913 8.849l119.26-64.926-93.079 67.162 4.286-.745 49.195-4.751s33.262-3.167 51.71-28.038c8.665-13.321 23.479-52.351 23.479-52.351l-21.15 10.619zm-284.826 155.468l11.46-4.937v25.989c3.261-.466 6.708-.838 10.063-1.304v-57.101h-10.063v20.586l-11.46 4.844v-25.43h-10.156v29.529s-8.385 4.005-8.292 4.099l8.292 4.192v23.94c3.261-.559 6.708-1.118 10.156-1.677v-22.729zm78.637-.093c2.516-.093 4.938-.186 7.547-.186l5.59 15.184 10.063-.279c-1.863-4.844-3.727-10.34-5.59-15.09l3.82-.093v-23.381l-4.472-4.378h-30.933l3.82 4.564v39.589c3.354-.186 6.708-.373 10.156-.466v-15.463zm0-19.003h11.46v8.942l-11.367.186-.093-9.129zm39.411.001h11.553v33.534c3.447 0 7.081.093 10.528.186v-38.378l-4.565-4.564h-31.678l3.82 4.564v38.285l10.342-.093v-33.534zm59.91 25.523c-6.522-.373-12.951-.652-19.566-.838v-7.173c6.522.186 13.044.373 19.566.652v-10.06c-6.522-.186-13.044-.373-19.566-.466v-7.638h19.566v-9.222h-33.915l3.727 4.564v38.658c10.342.279 20.405.745 30.188 1.397v-9.874zm25.436-25.523h8.665v-9.222h-28.511v9.222h8.851v36.329c3.634.279 7.454.652 10.994.932v-37.26zm-142.367-4.658l-4.565-4.564h-31.026l3.634 4.378v37.726l4.006 4.751c8.944-.932 18.355-1.677 27.952-2.329v-39.962zm-10.156 30.647c-3.913.279-7.733.466-11.553.745v-26.734h11.553v25.989zm197.804-6.614c3.075-1.397 6.243-2.795 9.41-4.285-10.063-4.658-20.125-8.942-30.188-12.855v-11.458h10.715v4.192h10.156v-13.227h-34.753l3.82 4.471v23.567l20.777 9.036v13.227s-4.845-.652-10.715-1.397v-4.192l-10.063-1.211v13.507c10.994 1.304 21.336 2.795 30.933 4.471-.186-7.079-.093-18.444-.093-23.847" fill="#fff" sketch:type="MSShapeGroup"/><path d="M182.615 242.655v1.304h-3.261v-8.104h3.261v1.211h3.727v-4.471h-10.528v12.948l1.584 1.677h8.944v-4.564h-3.727zm-91.402-113.644c-7.081-16.674-12.392-28.504-12.392-28.504 59.164 38.471 111.993 72.937 142.273 92.685 1.118 3.167 2.516 6.148 3.913 8.849l-119.26-64.926 93.079 67.162-4.286-.745-49.195-4.751s-33.262-3.167-51.71-28.038c-8.665-13.321-23.479-52.351-23.479-52.351l21.057 10.619z" fill="#fff" sketch:type="MSShapeGroup"/><path d="M458.403 117.46c-9.41 25.244-21.989 51.326-28.324 62.038-10.528 18.071-31.678 28.877-43.977 32.882 0 0-5.963 14.438-12.206 22.449h25.25v34.279l23.945 11.458-23.945 12.11v28.69l-23.293 14.252s-18.541-2.329-27.579-3.26l-73.699 42.57c-14.814 66.696-18.262 86.071-18.262 86.071s-3.447-18.351-18.262-86.071l-73.699-42.57c-9.038.932-27.579 3.26-27.579 3.26l-23.293-14.252v-28.69l-23.945-12.11 23.945-11.458v-34.279h25.25c-6.056-7.638-12.206-22.449-12.206-22.449-7.454-2.422-14.442-5.775-20.777-9.781-9.969-6.334-18.075-14.345-23.293-23.008-10.063-17.699-21.802-44.34-28.324-62.038-4.193-10.899-9.504-27.293-9.504-27.293s13.696 6.521 17.889 8.663c-6.615-19.655-12.112-45.83-12.112-45.83s94.383 62.038 160.628 115.134l1.025-.652-.093-3.353c0-.652 0-1.956.559-3.54.745-2.142 2.516-4.937 6.336-7.266-4.845-3.54-13.603-9.595-14.348-10.433-6.429-5.589-7.454-11.83-6.988-14.904l1.118-7.079 35.871 26.734c19.566-5.589 33.356-2.795 43.511 0l35.871-26.734 1.118 7.079c.466 3.074-.559 9.315-6.988 14.904-.745.838-9.504 6.893-14.442 10.433 3.82 2.329 5.59 5.123 6.336 7.266.559 1.584.559 2.888.559 3.54 0 1.118 0 2.236-.093 3.353l1.025.652c67.922-54.493 160.721-115.227 160.721-115.227s-4.659 21.518-12.112 45.83c3.541-1.77 17.889-8.663 17.889-8.663-4.006 13.134-9.504 27.293-9.504 27.293m-310.635 121.748h-30.001v32.51l-18.075 8.849 18.075 9.408v28.97l19.939 12.203c7.361-.932 16.678-2.049 27.579-3.167l76.96 44.34 14.069 64.553c.093-.186 14.162-64.553 14.162-64.553l76.867-44.34c10.808 1.118 20.218 2.236 27.579 3.167l19.939-12.203v-28.97l18.075-9.222-18.075-9.036v-32.51h-30.001s4.659-4.471 10.528-14.625c2.422-4.192 4.752-9.501 7.64-15.742 21.895-6.614 38.014-20.586 44.909-34.186 18.728-34.279 32.796-76.197 32.796-76.197s-8.106 3.912-17.796 8.663c7.92-24.126 12.671-44.619 12.671-44.619s-86.37 57.101-153.64 110.756l-5.87-3.447c0-.559.186-5.496.186-5.868 0 0 .652-5.682-9.41-9.129-.652-.186-1.211-.373-1.77-.559 4.845-3.633 12.392-9.222 17.982-13.041 8.758-6.055 7.733-12.668 7.733-12.668l-31.958 23.753c-24.691-8.011-45.188 0-45.188 0l-31.865-23.753s-1.025 6.614 7.733 12.668c5.497 3.819 13.044 9.408 17.982 13.041l-1.77.559c-10.063 3.447-9.41 9.129-9.41 9.129 0 .373.186 5.31.186 5.868l-5.87 3.447c-67.27-53.655-153.547-110.756-153.547-110.756s4.752 20.493 12.671 44.619c-10.435-5.123-17.796-8.663-17.796-8.663s14.069 41.918 32.796 76.197c6.895 13.6 23.013 27.573 44.909 34.186 0 0 3.727 8.477 6.895 14.532 3.82 7.545 11.181 15.836 11.181 15.836" fill="#A1A0A3" sketch:type="MSShapeGroup"/></g></svg>