<svg width="512" height="512" viewBox="0 0 512 512" version="1.1" xmlns="http://www.w3.org/2000/svg" xmlns:xlink="http://www.w3.org/1999/xlink" xmlns:sketch="http://www.bohemiancoding.com/sketch/ns"><title>cleveland-cavaliers</title><desc>Created with Sketch.</desc><defs><path id="a" d="M.42 138.673c-4.141-72.301 50.778-134.287 122.658-138.452 71.886-4.165 133.505 51.07 137.646 123.378 4.14 72.28-50.765 134.273-122.652 138.431-71.886 4.165-133.511-51.07-137.652-123.357z"/><path id="c" d="M248.616 117.945c3.947 68.896-48.388 127.975-116.902 131.943-68.501 3.962-127.241-48.68-131.187-117.575-3.946-68.909 48.402-127.988 116.903-131.957 68.513-3.961 127.241 48.681 131.186 117.589z"/><path d="M230.189 109.495c1.478 25.755-5.567 50.036-18.661 70.062-9.928-28.735-42.137-60.449-69.261-86.387-24.292-22.152-34.254-40.181-35.921-54.351 45.81-1.362 90.41 20.53 122.716 59.839.541 3.556.919 7.177 1.127 10.837zm-25.184 79.052c-14.584 18.211-34.611 31.943-57.765 38.597-64.052-47.26-75.453-132.075-68.91-184.56 6.322-1.519 12.663-2.586 18.998-3.195 1.342 15.761 11.322 35.354 36.526 58.319 27.586 26.384 61.619 61.267 71.151 90.839zm-67.394 40.928c-5.04.982-10.189 1.636-15.45 1.944-34.417 1.991-66.17-11.485-88.567-34.425-12.039-23.94-14.37-61.56-6.244-86.674 4.342-13.437 17.032-31.668 20.932-45.295 1.433-4.996 2.748-9.239 3.627-13.234 6.1-2.809 12.253-5.14 18.445-7.026-7.032 53.703 3.294 138.374 67.257 184.71zm-119.5-52.25c-9.87-15.893-16.03-34.424-17.169-54.45-.768-13.358.755-26.317 4.226-38.491 12.136-11.708 24.897-21.026 37.997-28.112l-.13.485c-4.206 16.148-14.845 29.684-20.952 44.784-9.799 24.19-9.506 52.223-3.972 75.784zm-12.52-94.388c.254-.845.514-1.689.787-2.521-.11.911-.351 1.709-.787 2.521zm4.922-13.378c6.999-15.893 17.482-29.978 30.529-41.189 3.9 3.791 4.408 11.322 3.776 18.171-11.634 5.914-23.113 13.549-34.305 23.018zm36.943-46.311c9.942-7.392 21.134-13.201 33.237-17.078-3.561 7.021-6.732 17.295-8.952 29.724-6.27 1.794-12.52 4.047-18.745 6.777-.033-5.671-1.55-11.636-5.54-19.423zm42.007-19.494c6.303-1.473 12.813-2.423 19.5-2.815 2.8-.164 5.58-.223 8.347-.191-9.597 6.117-18.249 16.345-19.87 30.281-5.919.562-11.85 1.499-17.789 2.835 2.325-13.208 5.828-23.718 9.812-30.11zm41.599-1.97c43.811 5.952 80.317 36.952 93.775 78.901-33.134-32.467-75.09-51.49-118.497-50.2 1.842-14.642 13.262-24.078 24.722-28.701z" id="e"/><path id="g" d="M.06 50.969c25.575-5.843 51.587.669 81.078 8.311l32.522 8.238c42.203-25.041 95.989-40.266 140.217-20.883l186.426-46.12-7.846 23.724c8.379-2.023 60.635-14.674 60.635-14.674l-20.223 50.704c5.431 24.281-.091 41.974-15.846 54.554l-.059.668c-.398 15.578-29.742 22.847-38.538 29.52l47.991 12.972c11.304-3.889 21.486-2.383 21.531-2.213 1.492 7.262-8.027 39.709-27.124 34.988l-1.341-3.255c-17.774 15.559-39.241 18.061-58.76 4.047-.247 5.474-.221 9.469.241 14.943-1.902-.307-2.995-.556-4.499-.851-25.711-4.178-37.268-21.216-35.68-46.336.02-.334.053-.583.124-.766l-45.322-11.944c-19.154 3.916-43.883 12.978-65.226 31.085l-4.258 3.28s-.006-19.494 9.812-32.63l-70.682 18.637c-25.771 32.324-56.262 47.224-80.895 47.972h-3.873c-38.174-1.186-60.084-37.788-23.07-96.6l-26.656 4.243 7.37-9.03c7.331-9.004 17.007-18.382 28.342-27.36l-11.44-3.011c-29.483-7.648-55.373-14.596-74.951-32.145v-.068z"/><path id="i" d="M162.83 45.771c-10.567-1.899-17.559 2.521-17.781 2.508-.163-.013-36.734-9.901-50.198-13.562l-7.078-1.918c4.551-6.208 13.34-8.873 22.157-12.809 3.821-1.709 9.056-3.713 12.982-6.476 7.065-4.984 8.08-8.258 8.125-8.258-12.897.419-25.059-3.084-27.202-3.529-5.664-1.186-11.322-1.414-16.784-.812l-.554.066c-14.656 1.76-27.821 9.566-35.647 21.065 0 0-.957 1.264-1.283 1.624-1.028 1.146-2.48 2.895-2.48 2.895l4.297 1.12c2.963.51 1.296 7-2.637 5.971l-18.862-4.957c-7.363.622-15.046 1.232-20.255 1.612-2.683.196-5.639.516-8.815.995l41.812 11.059c-2.988 27.439 11.654 44.326 32.319 46.003-.039-2.79-.11-8.677.039-19.18 0 0 29.736 32.086 63.846-2.423.247-.223 2.871 6.515 2.871 6.515 15.021 1.749 21.636-27.444 21.128-27.509z"/><path id="k" d="M54.27.94c-17.397-3.091-33.303 2.416-44.775 18.792 2.214 1.415 3.653 4.775 3.405 8.592-.299 4.715-3.034 8.408-6.211 8.52l.045.281-.006.007c.365 7.118 2.826 13.954 6.322 17.582 1.347-12.265 7.858-28.983 26.193-39.296-18.263 15.997-21.844 39.015-20.549 54.737-8.529-1.722-15.651-16.18-18.158-23.797 1.927 13.032 9.994 28.571 22.371 29.435-2.532-25.027 7.123-50.952 23.413-59.603 6.694-3.595 16.121-5.913 26.467-12.619-11.082-.91-14.578-1.938-18.517-2.631z"/><path d="M171.5 91.699l-89.973-23.627c-25.672-7.143-32.346-12.893-34.019-14.392l52.275 13.574 84.895 21.957c-3.854.896-9.649 1.866-13.178 2.488zm304.064-81.553c-.124.137-41.319 10.111-58.885 14.335l7.845-23.712-180.038 44.941c-41.343-18.905-92.401-5.789-133.504 17.412l79.836 20.234c-.339 1.061-.736 2.102-1.166 2.967l-121.245-30.673c-24.637-6.384-46.865-12.455-68.077-8.244 16.55 14 38.935 19.436 63.559 25.826l90.507 23.921c-1.654.708-3.197 1.435-4.519 2.142l-66.97-17.661c-12.182 9.332-22.573 19.213-30.353 28.754l23.927-3.137c-68.41 110.209 42.242 124.203 94.628 50.056l86.894-21.924c-7.956 7.858-12.67 19.226-15.118 29.213 25.737-22.357 59.295-29.298 79.425-30.758 12.215-.898 25.713-2.24 36.175-3.412l2.956-3.759c9.538-13.143 23.4-19.553 38.056-20.994 11.413-1.119 15.418.563 20.223 1.434 2.239.583 10.202 2.711 18.347 3.084 21.063-12.37 27.293-30.266 21.154-56.223l16.343-43.822z" id="m"/><path id="o" d="M6.028 3.894c3.659-1.755 7.715-2.547 11.713-3.072-5.566 2.109-8.36 5.337-8.673 5.213-1.256 3.097-1.23 6.391-8.288 9.941 2.234-3.517 5.495-7.571 5.248-12.082z"/><path id="q" d="M.711.853c7.604 16.809 29.774 20.778 43.147 17.922-5.97 5.219-35.093 4.113-43.837-13.064l.69-4.858z"/><path id="s" d="M3.889.452l57.491 14.97c1.875.478 1.087 5.769-1.361 5.134l-59.132-15.126c.339-1.422 2.487-4.637 3.002-4.978z"/><path id="u" d="M53.922 11.037c-20.763 20.601-53.344 6.437-53.154-10.262.416-.012 21.218 15.376 53.154 10.262z"/><path id="w" d="M37.306.164c-16.908-.74-29.781 9.43-37.112 18.938l-.117.143c.918 1.238 1.55 2.908 1.771 4.787l.189-.203c7.155-9.875 18.478-20.719 35.269-23.665z"/><path d="M130.634 17.539l-1.875-7.177-4.721 14.171-4.707 1.159 7.136-18.316 4.772-1.172 1.537 6.346 2.91-7.433 4.701-1.159-7.149 18.31-4.772 1.178 2.168-5.907zm-15.326-5.526c-.092-.039-.287-.066-.632-.073-.664-.019-1.101.053-1.25.092-.261.066-.801.255-1.667.649-.391.189-.618.314-.742.399l-2.871 7.099 4.44-1.094 2.8-7.033-.078-.039zm-3.458 9.076l-4.434 1.093-2.688 6.909-4.838 1.191 6.322-16.043c.306-.779 1.568-1.65 3.47-2.56 1.569-.76 3.092-1.336 4.564-1.697 1.4-.346 2.747-.458 4.063-.379 1.374.058 2.142.386 1.855 1.087l-6.296 16.148-4.707 1.159 2.689-6.908zm-21.082-4.814l4.701-1.152-6.355 16.286 7.729-1.906-.788 2.017-12.43 3.065 7.143-18.31zm-15.144 3.936l10.71-2.646-.762 1.985-6.01 1.473-2.155 5.52 6.01-1.479-.788 2.009-6.003 1.481-2.656 6.791 6.009-1.488-.788 2.024-10.716 2.645 7.149-18.315zm-33.531 8.329l10.71-2.632-.762 1.965-6.016 1.48-2.142 5.513 6.004-1.473-.782 2.01-6.016 1.48-2.656 6.798 6.022-1.474-.801 2.011-10.71 2.638 7.149-18.316zm-16.088 4.107l4.7-1.153-6.354 16.285 7.735-1.905-.788 2.017-12.436 3.071 7.143-18.315zm-19.656 21.354c-1.172.288-2.423.405-3.738.405-1.667 0-2.611-.32-2.304-1.106l5.41-13.869c.227-.576 1.367-1.336 2.897-2.149 1.576-.818 3.028-1.447 4.317-1.76l7.624-1.874-1.276 3.268-4.669 1.146.561-1.257-1.296.288c-1.276.314-2.175.602-2.793.864-.521.223-.671.367-.729.504l-5.215 13.51c0 .012-.02.143.826.118.651-.026 1.049-.079 1.237-.125.632-.15 1.204-.387 1.804-.746.638-.394.937-.695 1.035-.956l-.286-.622 5.104-1.258-.586 1.5c-.28.74-1.615 1.591-3.502 2.455-1.628.767-3.113 1.343-4.421 1.664zm140.152-35.31l-7.689 1.893 7.148-18.335 7.702-1.926c1.296-.313 2.527-.34 3.698-.176 1.166.151 1.889.445 1.662 1.028l-5.275 13.503c-.227.602-1.354 1.382-2.917 2.213-1.575.851-3.033 1.48-4.329 1.8zm7.084-16.272l-.566-.078-3.054.707-5.587 14.314 2.409-.583c.117-.032.476-.157 1.231-.497l.859-.452 5.28-13.247c-.181-.072-.332-.118-.572-.164zm-98.744 23.267l3.796-.852.344 9.771 7.606-11.637 5.163-1.395-14.956 20.189-1.953-16.076z" id="y"/><path id="A" d="M39.391 7.084l7.37 4.518c-3.809 10.922-20.346 34.071-29.82 41.065l16.564-44.28-12.703 3.385-20.796 53.291 26.649-6.876c.593-.177 23.967-18.827 37.34-57.397l-24.604 6.294z"/><path d="M36.581 32.215l-10.417 3.018s8.712-17.143 17.703-19.848l-7.286 16.83zm-24.637 8.656c-.13.02-9.72 19.868-11.667 23.942l13.191-3.471 8.913-18.591 10.665-3.15-7.357 18.65 14.024-3.621 21.603-53.828c-7.247 2.482-32.874 2.927-49.372 40.069z" id="C"/><path d="M24.648 28.859l6.113-17.058 9.532-2.568c-1.361 3.662-3.913 13.542-15.645 19.626zm10.156 5.088c-.723-1.054-1.295-3.241-1.289-3.294.436-.209.892-.431 1.341-.694 8.575-4.911 18.009-19.586 17.625-29.585-12.058 3.248-32.268 8.52-32.379 8.663l-19.311 53.357 12.554-3.242 8.294-22.946c.944 2.142 6.478 15.357 17.254 16.45 12.449 1.264 19.728-11.113 19.728-11.113-3.275 2.829-18.133 3.897-23.817-7.596z" id="E"/><path d="M36.86 31.92l-10.417 3.019s8.712-17.144 17.704-19.848l-7.287 16.829zm-24.636 8.664c-.13.013-9.578 19.514-11.531 23.58l13.328-3.432 8.64-18.276 10.664-3.156-7.292 18.414 13.914-3.536 21.629-53.552c-6.368 1.853-32.853 2.809-49.352 39.958z" id="G"/><path id="I" d="M21.678 3.797l-20.789 53.632 13.223-3.354 20.711-53.624-13.145 3.346z"/><path id="K" d="M14.826 52.197l6.635-15.631 18.185-9.888-14.598 1.081 6.374-17.059c7.963-2.521 11.98-.072 15.372 4.97l6.043-15.009-32.021 8.205-20.568 53.546 32.606-8.532 7.006-16.587c-7.246 7.995-15.326 13.254-25.034 14.904z"/><path id="M" d="M17.209 47.258l17.364-46.435-13.874 3.536-20.496 53.684 35.171-9.115 7.768-19.036c-9.35 11.113-14.265 15.427-25.933 17.366z"/><path id="O" d="M152.84 78.291l.006-.002c5.814-2.069 11.491-4.486 16.993-7.334 14.187-7.321 22.365-22.344 14.539-37.222-5.736-10.909-15.594-13.181-14.207-19.435 1.836-8.349 15.769-6.725 20.073.177l5.241-13.444c.13-.137-3.744-.733-5.209-.832-21.348-1.407-40.379 15.769-29.266 30.784 2.559 3.471 4.303 4.283 7.527 7.348 17.065 25.78-31.09 37.05-76.054 43.802-40.848 6.325-77.869 14.59-91.887 29.061 32.234-15.218 70.852-16.99 107.436-22.532 8.281-6.521 18.173-9.984 28.465-10.995 8.325-.817 12.713-.142 16.343.624z"/><path d="M90.975 28.272c29.372-17.934 63.222-25.638 43.786 12.575 4.16-3.15 44.86-27.34 45.01-26.672-20.443-20.125-67.914-19.055-119.145 6.405l30.349 7.692zm-25.398 19.669l-.56.581c-77.245 81.075-26.434 94.636 29.807 63.459 1.158-.583-7.944 7.93-7.944 7.93-62.504 61.732-130.679 15.219-47.425-73.471-9.453 2.677-28.947 7.189-28.973 6.639 6.458-5.242 12.976-10.081 19.507-14.521l35.587 9.383z" id="Q"/></defs><g sketch:type="MSLayerGroup" stroke="none" stroke-width="1" fill="none"><g transform="translate(9 125) translate(150)"><mask id="b" sketch:name="Clip 2" fill="#fff"><use xlink:href="#a"/></mask><path d="M.18-.1h260.76v262.44h-260.76v-262.44z" fill="#EAB044" sketch:type="MSShapeGroup" mask="url(#b)"/></g><g transform="translate(9 125) translate(156 6)"><mask id="d" sketch:name="Clip 5" fill="#fff"><use xlink:href="#c"/></mask><path d="M-3.419-3.605h255.981v257.455h-255.981v-257.455z" fill="#131E34" sketch:type="MSShapeGroup" mask="url(#d)"/></g><g transform="translate(9 125) translate(165 15)"><mask id="f" sketch:name="Clip 8" fill="#fff"><use xlink:href="#e"/></mask><path d="M.174.616h231.493v232.794h-231.493v-232.794z" fill="#5A162B" sketch:type="MSShapeGroup" mask="url(#f)"/></g><g transform="translate(9 125) translate(0 48)"><mask id="h" sketch:name="Clip 11" fill="#fff"><use xlink:href="#g"/></mask><path d="M.06.5h493.08v214.44h-493.08v-214.44z" fill="#EAB044" sketch:type="MSShapeGroup" mask="url(#h)"/></g><g transform="translate(9 125) translate(322 162)"><mask id="j" sketch:name="Clip 14" fill="#fff"><use xlink:href="#i"/></mask><path d="M.74.62h162.12v87.84h-162.12v-87.84z" fill="#131E34" sketch:type="MSShapeGroup" mask="url(#j)"/></g><g transform="translate(9 125) translate(369 168)"><mask id="l" sketch:name="Clip 17" fill="#fff"><use xlink:href="#k"/></mask><path d="M.536-2.151h72.251v77.944h-72.251v-77.944z" fill="#EAB044" sketch:type="MSShapeGroup" mask="url(#l)"/></g><g transform="translate(9 125) translate(9 54)"><mask id="n" sketch:name="Clip 20" fill="#fff"><use xlink:href="#m"/></mask><path d="M.3.74h475.32v202.8h-475.32v-202.8z" fill="#131E34" sketch:type="MSShapeGroup" mask="url(#n)"/></g><g transform="translate(9 125) translate(463 210)"><mask id="p" sketch:name="Clip 23" fill="#fff"><use xlink:href="#o"/></mask><path d="M.78.822h16.961v15.153h-16.961v-15.153z" fill="#EAB044" sketch:type="MSShapeGroup" mask="url(#p)"/></g><g transform="translate(9 125) translate(398 219)"><mask id="r" sketch:name="Clip 26" fill="#fff"><use xlink:href="#q"/></mask><path d="M.021.853h43.838v23.142h-43.838v-23.142z" fill="#EAB044" sketch:type="MSShapeGroup" mask="url(#r)"/></g><g transform="translate(9 125) translate(403 198)"><mask id="t" sketch:name="Clip 29" fill="#fff"><use xlink:href="#s"/></mask><path d="M.887.452h62.368v20.739h-62.368v-20.739z" fill="#EAB044" sketch:type="MSShapeGroup" mask="url(#t)"/></g><g transform="translate(9 125) translate(402 213)"><mask id="v" sketch:name="Clip 32" fill="#fff"><use xlink:href="#u"/></mask><path d="M.578.763h53.344v25.513h-53.344v-25.513z" fill="#EAB044" sketch:type="MSShapeGroup" mask="url(#v)"/></g><g transform="translate(9 125) translate(380 170)" fill="#fff"><mask id="x" sketch:name="Clip 35"><use xlink:href="#w"/></mask><path d="M.077-.576h37.229v24.608h-37.229v-24.608z" sketch:type="MSShapeGroup" mask="url(#x)"/></g><g transform="translate(9 125) translate(261 68)" fill="#fff"><mask id="z" sketch:name="Clip 38"><use xlink:href="#y"/></mask><path d="M0-.017h159.249v54.423h-159.249v-54.423z" sketch:type="MSShapeGroup" mask="url(#z)"/></g><g transform="translate(9 125) translate(178 138)" fill="#fff"><mask id="B" sketch:name="Clip 41"><use xlink:href="#A"/></mask><path d="M.006.79h63.989v64.272h-63.989v-64.272z" sketch:type="MSShapeGroup" mask="url(#B)"/></g><g transform="translate(9 125) translate(128 151)" fill="#fff"><mask id="D" sketch:name="Clip 44"><use xlink:href="#C"/></mask><path d="M.277.802h61.039v64.011h-61.039v-64.011z" sketch:type="MSShapeGroup" mask="url(#D)"/></g><g transform="translate(9 125) translate(372 91)" fill="#fff"><mask id="F" sketch:name="Clip 47"><use xlink:href="#E"/></mask><path d="M.791.374h57.83v62.02h-57.83v-62.02z" sketch:type="MSShapeGroup" mask="url(#F)"/></g><g transform="translate(9 125) translate(223 127)" fill="#fff"><mask id="H" sketch:name="Clip 50"><use xlink:href="#G"/></mask><path d="M.693.626h60.883v63.538h-60.883v-63.538z" sketch:type="MSShapeGroup" mask="url(#H)"/></g><g transform="translate(9 125) translate(311 111)" fill="#fff"><mask id="J" sketch:name="Clip 53"><use xlink:href="#I"/></mask><path d="M.889.451h33.935v56.978h-33.935v-56.978z" sketch:type="MSShapeGroup" mask="url(#J)"/></g><g transform="translate(9 125) translate(332 101)" fill="#fff"><mask id="L" sketch:name="Clip 56"><use xlink:href="#K"/></mask><path d="M.248.661h52.589v61.751h-52.589v-61.751z" sketch:type="MSShapeGroup" mask="url(#L)"/></g><g transform="translate(9 125) translate(271 121)" fill="#fff"><mask id="N" sketch:name="Clip 59"><use xlink:href="#M"/></mask><path d="M.203.823h42.938v57.22h-42.938v-57.22z" sketch:type="MSShapeGroup" mask="url(#N)"/></g><g transform="translate(9 125) translate(272 82)" fill="#fff"><mask id="P" sketch:name="Clip 62"><use xlink:href="#O"/></mask><path d="M.58.1h195v111.12h-195v-111.12z" sketch:type="MSShapeGroup" mask="url(#P)"/></g><g transform="translate(9 125) translate(73 100)" fill="#fff"><mask id="R" sketch:name="Clip 65"><use xlink:href="#Q"/></mask><path d="M.86.1h178.92v148.08h-178.92v-148.08z" sketch:type="MSShapeGroup" mask="url(#R)"/></g></g></svg>