<svg width="512" height="512" viewBox="0 0 512 512" version="1.1" xmlns="http://www.w3.org/2000/svg" xmlns:sketch="http://www.bohemiancoding.com/sketch/ns"><title>indiana-pacers</title><desc>Created with Sketch.</desc><g sketch:type="MSShapeGroup" stroke="none" stroke-width="1" fill="none"><path d="M370.164 157.761c-20.003-24.106-48.807-37.436-81.116-37.489l-129.201-.08-59.956 272.153 110.303.061 15.817-65.852c14.822 0 53.778.029 53.733.029 36.946.26 67.265-12.244 87.666-36.167 37.068-40.294 30.563-99.158 2.754-132.654" fill="#BEC0C2"/><path d="M220.371 319.383l-15.825 65.853-95.74-.061 56.812-257.821 123.415.08c30.717.076 57.04 12.504 75.621 34.906 27.35 32.98 30.043 87.803-2.693 123.428-20.096 23.54-49.541 33.859-82.158 33.629l-59.432-.014" fill="#002D62"/><path d="M152.892 184.662l54.095.023c6.214 0 12.833 5.212 9.963 13.099-1.775 4.869-3.129 10.536-3.749 15.832-.505 4.15 4.125 6.765 6.788 6.765l110.231.076c2.082 0 3.168-.584 3.168-1.586 0-.971-.091-4.62-.49-7.189-.382-2.423-.779-2.863-2.754-2.863-13.728 0-19.331-6.115-33.748-15.404-14.402-9.264-35.527-14.609-53.679-14.618l-88.5-.058-1.325 5.922m66.79 71.292c-1.905-4.092-3.681-8.946-4.76-13.391-1.354-5.728-6.199-10.364-14.478-10.372l-58.006-.046 1.43-6.496 188.032.126c1.868 0 1.47.792 1.361 2.87-.091 2.06-.581 5.912-.888 8.167-.275 2.266-2.158 1.727-3.948 1.766-4.239.095-12.106 1.112-16.683 4.525-7.79 5.862-24.41 16.124-33.762 19.111-10.01 3.196-47.45 14.637-58.422-6.454m-87.535 23.704l98.188.069c4.34 0 8.066 1.024 10.966 3.446 8.288 6.811 19.047 11.785 30.453 15.081 5.143 1.483 13.943-.428 21.84-4.884 19.652-11.097 32.279-32.219 36.441-45.808 1.087-3.562-.995-3.263-3.749-3.058-8.265.576-16.975 8.067-28.422 15.347-11.464 7.28-34.762 14.181-56.869 14.142l-107.586-.046-1.262 5.71m144.03-131.327c1.393-.26 6.367-.565 9.123.524 18.642 7.349 36.303 26.743 43.679 47.357 1.423 3.956 1.776 6.496 0 6.691-8.556.956-12.534-3.279-22.605-10.069-10.04-6.795-19.315-11.446-32.049-15.488-12.561-3.993-35.434-4.57-38.388-4.666-2.953-.095-2.579-1.337-1.293-2.614 10.959-10.934 25.682-18.857 41.533-21.735m89.489 70.657c.061.805-.78 1.69-1.76 1.69l-21.519-.015c-2.754 0-2.816-1.284-2.893-2.87-.108-1.575-.551-4.72-.658-6.6-.091-1.815-.751-3.898 1.667-4.915 6.001-2.545 11.663-8.388 14.25-13.391.858-1.708 2.143-4.493 3.627-2.121 5.098 8.131 6.673 18.155 7.286 28.221m-7.683 38.611c-.368.732-1.746 1.26-2.205.076-3.137-8.396-10.576-14.14-15.717-17.02-1.562-.861-1.684-1.857-1.484-3.391.214-1.539.856-6.408.934-8.468.091-1.629.75-2.817 1.989-2.817h22.406c.78.007 1.76.725 1.76 1.329.001 10.666-3.229 21.21-7.682 30.291m-58.298 41.994c-1.577.229-5.005-.298.414-3.462 16.283-9.463 30.794-31.658 34.666-44.387 1.47-4.854 1.638-5.101 3.504-4.586 2.48.734 6.413 4.109 9.427 8.247 3 4.127 4.316 12.21 2.572 14.525-11.725 15.683-30.303 26.706-50.583 29.662m41.431-100.417c-3.796 2.025-4.53 1.658-5.327-1.192-7.085-24.794-27.946-43.146-36.487-48.572-1.623-1.032-1.194-1.704-.015-1.547 20.432 2.714 40.435 13.839 50.506 29.074 5.755 8.711-5.02 20.28-8.676 22.238" fill="#FFC526"/><g fill="#002D62"><path d="M255.068 347.677c-.26 1.007-4.056 17.059-4.27 17.899h-10.093c.306-1.284 4.056-17.073 4.247-17.899h10.116zm-16.653-7.245l-12.244 51.484h8.272s4.323-18.251 4.539-19.093h13.2c3.191 0 5.616-1.926 6.366-5.029l5.258-22.119c.123-.504.176-.949.176-1.408 0-.887-.245-1.681-.735-2.292-.795-1.024-2.172-1.543-3.955-1.543h-20.877zm16.653 7.245c-.26 1.007-4.056 17.059-4.27 17.899h-10.093c.306-1.284 4.056-17.073 4.247-17.899h10.116zm-16.653-7.245l-12.244 51.484h8.272s4.323-18.251 4.539-19.093h13.2c3.191 0 5.616-1.926 6.366-5.029l5.258-22.119c.123-.504.176-.949.176-1.408 0-.887-.245-1.681-.735-2.292-.795-1.024-2.172-1.543-3.955-1.543h-20.877zm43.884 33.216c-.26 1.132-2.509 10.639-2.71 11.404h-9.122c.275-1.116 2.556-10.639 2.725-11.404h9.106zm-6.567-23.173c-3.151 0-5.218 1.621-5.954 4.707l-2.158 9.112h8.065s1.423-6.054 1.607-6.832h8.862c-.292 1.177-2.004 8.377-2.188 9.14h-11.739c-3.566 0-5.908 1.973-6.78 5.732l-3.57 14.936c-.09.381-.137.778-.137 1.145 0 .841.252 1.666.773 2.309.773.978 2.065 1.514 3.638 1.514l.214-.017c2.893-.199 9.259-.687 11.738-.948l-.152.642h8.066l8.676-36.459c.368-1.589.23-2.843-.458-3.699-.674-.826-1.807-1.285-3.353-1.285h-15.15v.001zm6.567 23.173c-.26 1.132-2.509 10.639-2.71 11.404h-9.122c.275-1.116 2.556-10.639 2.725-11.404h9.106zm-6.567-23.173c-3.151 0-5.218 1.621-5.954 4.707l-2.158 9.112h8.065s1.423-6.054 1.607-6.832h8.862c-.292 1.177-2.004 8.377-2.188 9.14h-11.739c-3.566 0-5.908 1.973-6.78 5.732l-3.57 14.936c-.09.381-.137.778-.137 1.145 0 .841.252 1.666.773 2.309.773.978 2.065 1.514 3.638 1.514l.214-.017c2.893-.199 9.259-.687 11.738-.948l-.152.642h8.066l8.676-36.459c.368-1.589.23-2.843-.458-3.699-.674-.826-1.807-1.285-3.353-1.285h-15.15v.001zm33.809 0c-3.092 0-5.111 1.621-5.816 4.707l-7.561 31.765c-.382 1.604-.26 2.843.444 3.714.642.826 1.79 1.253 3.352 1.253h14.892c3.122 0 5.081-1.589 5.832-4.692l2.938-12.367h-7.943s-2.205 9.279-2.388 10.074h-8.603c.321-1.299 6.337-26.627 6.536-27.468h8.586c-.275 1.208-1.607 6.741-1.607 6.741h7.943l2.097-8.744c.383-1.65.246-2.857-.429-3.761-.658-.778-1.79-1.223-3.382-1.223h-14.892m.001.001c-3.092 0-5.111 1.621-5.816 4.707l-7.561 31.765c-.382 1.604-.26 2.843.444 3.714.642.826 1.79 1.253 3.352 1.253h14.892c3.122 0 5.081-1.589 5.832-4.692l2.938-12.367h-7.943s-2.205 9.279-2.388 10.074h-8.603c.321-1.299 6.337-26.627 6.536-27.468h8.586c-.275 1.208-1.607 6.741-1.607 6.741h7.943l2.097-8.744c.383-1.65.246-2.857-.429-3.761-.658-.778-1.79-1.223-3.382-1.223h-14.892v.001zm42.961 6.987c-.245 1.069-2.02 8.468-2.188 9.202h-8.541c.26-1.056 2.036-8.453 2.205-9.202h8.524zm-10.224-6.987c-3.077 0-5.096 1.621-5.831 4.707l-7.546 31.765c-.382 1.604-.245 2.843.444 3.714.643.826 1.775 1.253 3.352 1.253h14.968c1.5.015 2.771-.352 3.765-1.147.996-.779 1.668-1.956 2.05-3.545l2.771-11.602h-8.066s-2.035 8.514-2.234 9.308h-8.509c.29-1.223 2.556-10.762 2.739-11.541h14.692l2.342-1.88 3.826-16.051c.152-.58.184-1.13.184-1.604 0-.857-.184-1.56-.627-2.14-.674-.794-1.791-1.238-3.368-1.238h-14.952zm10.224 6.987c-.245 1.069-2.02 8.468-2.188 9.202h-8.541c.26-1.056 2.036-8.453 2.205-9.202h8.524zm-10.224-6.987c-3.077 0-5.096 1.621-5.831 4.707l-7.546 31.765c-.382 1.604-.245 2.843.444 3.714.643.826 1.775 1.253 3.352 1.253h14.968c1.5.015 2.771-.352 3.765-1.147.996-.779 1.668-1.956 2.05-3.545l2.771-11.602h-8.066s-2.035 8.514-2.234 9.308h-8.509c.29-1.223 2.556-10.762 2.739-11.541h14.692l2.342-1.88 3.826-16.051c.152-.58.184-1.13.184-1.604 0-.857-.184-1.56-.627-2.14-.674-.794-1.791-1.238-3.368-1.238h-14.952zm47.124-.352c-3.245.368-8.463.995-10.713 1.331.029-.091.245-.963.245-.963l-8.066-.015-9.856 41.441h8.051s7.867-33.003 8.065-33.86h8.021c-.307 1.208-1.332 6.146-1.332 6.146h8.127l2.02-9.066c.368-1.589.201-2.812-.458-3.683-.721-.917-1.989-1.36-3.796-1.36l-.307.03m-.001-.001c-3.245.368-8.463.995-10.713 1.331.029-.091.245-.963.245-.963l-8.066-.015-9.856 41.441h8.051s7.867-33.003 8.065-33.86h8.021c-.307 1.208-1.332 6.146-1.332 6.146h8.127l2.02-9.066c.368-1.589.201-2.812-.458-3.683-.721-.917-1.989-1.36-3.796-1.36l-.307.03zm14.677.352c-1.606 0-4.454.611-5.417 4.707l-2.357 9.875c-.091.368-.214.978-.214 1.605 0 .718.169 1.437.628 1.987l.046.106.029.03v-.017c.077.062.184.153.414.307 9.23 6.282 11.663 8.055 12.306 8.559-.138.611-1.668 7.016-1.729 7.291h-7.958c.306-1.223 2.188-9.111 2.188-9.111h-8.081l-2.632 11.129c-.414 1.636-.245 2.919.444 3.775.627.779 1.623 1.192 2.969 1.192h15.135c2.848 0 4.698-1.636 5.434-4.692l2.587-10.853c.061-.29.199-.857.199-1.498 0-.887-.213-1.958-1.103-2.874l-.046-.046-.076-.046c-4.27-2.767-11.004-7.216-12.183-8.117.152-.611 1.393-5.808 1.515-6.328h8.127c-.275 1.208-1.577 6.847-1.577 6.847h8.066l2.036-8.851c.397-1.575.213-2.857-.459-3.761-.444-.55-1.332-1.223-3.061-1.223h-15.228"/><path d="M404.079 350.475c-1.606 0-4.454.611-5.417 4.707l-2.357 9.875c-.091.368-.214.978-.214 1.605 0 .718.169 1.437.628 1.987l.046.106.029.03v-.017c.077.062.184.153.414.307 9.23 6.282 11.663 8.055 12.306 8.559-.138.611-1.668 7.016-1.729 7.291h-7.958c.306-1.223 2.188-9.111 2.188-9.111h-8.081l-2.632 11.129c-.414 1.636-.245 2.919.444 3.775.627.779 1.623 1.192 2.969 1.192h15.135c2.848 0 4.698-1.636 5.434-4.692l2.587-10.853c.061-.29.199-.857.199-1.498 0-.887-.213-1.958-1.103-2.874l-.046-.046-.076-.046c-4.27-2.767-11.004-7.216-12.183-8.117.152-.611 1.393-5.808 1.515-6.328h8.127c-.275 1.208-1.577 6.847-1.577 6.847h8.066l2.036-8.851c.397-1.575.213-2.857-.459-3.761-.444-.55-1.332-1.223-3.061-1.223h-15.228v.003z"/></g></g></svg>