<svg width="512" height="512" viewBox="0 0 512 512" version="1.1" xmlns="http://www.w3.org/2000/svg" xmlns:sketch="http://www.bohemiancoding.com/sketch/ns"><title>los-angeles-clippers</title><desc>Created with Sketch.</desc><g sketch:type="MSLayerGroup" stroke="none" stroke-width="1" fill="none"><path d="M290.732 116.762c11.123-1.875 22.487-2.36 33.723-1.316 7.636.644 15.174 2.104 22.608 3.928 15.322 3.551 30.041 9.781 43.096 18.56 6.337 4.312 12.53 8.876 18.179 14.066 9.342 8.411 17.203 18.323 24.054 28.826 6.524 10.312 11.866 21.432 15.349 33.138 3.079 11.023 5.451 22.29 6.143 33.732.898 12.498-.338 25.092-3.161 37.279-1.73 7.801-3.822 15.54-6.776 22.973-3.402 8.682-7.756 16.996-12.981 24.723-5.392 7.999-11.321 15.68-18.21 22.457-6.889 6.963-14.692 12.955-22.833 18.378-12.072 8.022-25.535 13.922-39.586 17.477-6.104 1.518-12.235 2.973-18.471 3.835-16.368 2.344-33.136 1.518-49.254-2.111-15.248-3.097-30.029-8.651-43.306-16.79-13.211-8.108-25.142-18.385-34.846-30.475-10.905.004-21.811 0-32.716 0-4.63 5.143-9.922 9.68-15.66 13.545-5.692 3.749-11.815 7.021-18.483 8.632-3.227.741-6.442 1.618-9.743 1.964-5.871.563-11.784-.217-17.464-1.715-6.353-1.308-12.484-3.695-17.962-7.172-6.034-3.92-11.842-8.348-16.391-13.968-4.448-5.577-8.557-11.535-11.174-18.211-2.107-5.053-3.246-10.425-4.444-15.742-2.263-10.712-1.559-21.882 1.17-32.439 1.971-9.129 5.132-18.02 9.65-26.206 3.149-5.845 7.041-11.248 11.127-16.472 5.101-6.365 11.131-11.977 17.829-16.635-4.125-.004-8.254.05-12.375-.023-1.839-.392-4.203-1.692-3.88-3.908.163-1.102.109-2.383.902-3.264 15.477-18.486 30.947-36.976 46.42-55.466 1.575-1.89 3.184-3.753 4.677-5.709 2.893-3.299 7.468-4.479 11.694-4.782l74.72-.027c7.398-6.016 15.1-11.741 23.529-16.247 7.764-4.172 15.956-7.564 24.408-10.076 6.726-1.917 13.553-3.524 20.438-4.754zm-24.614 18.785c-14.377 5.57-27.701 13.817-39.111 24.168-.641.598-1.462 1.04-2.36.986-23.591.004-47.182.008-70.773-.004-1.68.012-3.616-.241-4.953 1.009-1.073.827-1.376 2.205-1.372 3.489 4.024.621 8.106.237 12.157.342 20.407.031 40.814-.07 61.221.066-2.908 2.697-5.388 5.802-8.063 8.717-.424.602-1.213.516-1.851.574-24.513-.039-49.025.012-73.534-.031-2.593-.016-4.704 2.5-4.358 5.049 3.915.431 7.865.128 11.796.217 21.169.023 42.338-.05 63.507.043-2.282 3.214-4.452 6.513-6.45 9.913-25.761.089-51.521-.016-77.278.05-2.235-.031-4.191 2.329-3.235 4.491 25.959.016 51.914-.012 77.873.016-1.563 3.326-3.437 6.513-4.704 9.971-4.642.194-9.292.047-13.934.113-21.636.078-43.271-.047-64.907.019-2.204.085-4.611.264-6.399 1.7-1.089.792-1.015 2.263-1.229 3.447 1.089.252 2.189.512 3.316.501 38.746-.016 77.495-.008 116.245-.004 2.994.058 5.976-.365 8.973-.322 63.356.019 126.711.078 190.067-.004 1.967 4.002 3.332 8.259 4.529 12.544 3.095 11.57 4.525 23.578 4.265 35.552-.346 12.994-2.512 26.02-7.154 38.195-1.913 5.007-3.779 10.041-5.987 14.931-2.294 5.135-4.949 10.177-8.58 14.508-4.078.722-8.195-.202-12.289.124-3.639.233-7.286-.008-10.925.116-4.65.151-9.3-.404-13.946-.031-11.547.054-23.094-.05-34.64.023-8.942-.151-17.888.058-26.834.023-6.613.023-13.222-.47-19.832-.066-4.253-.287-8.499.14-12.752-.027-4.953-.105-9.906-.07-14.859.058-4.273-.237-8.545.058-12.818-.105-4.522.369-9.051-.237-13.572.089-10.633.175-21.266-.159-31.903-.093-3.631-.012-7.262.202-10.897.116-3.888-.182-7.776.147-11.659-.132-6.734.435-13.479-.206-20.213.14-4.545-.039-9.09.089-13.631-.062-2.974-.213-5.944.054-8.919.043-7.923.097-15.851-.089-23.77.05-1.194-.159-1.816 1.083-1.874 2.092-.109 2.042 1.761 3.97 3.818 3.881 10.746 0 21.492.004 32.234-.008-4.871 5.554-10.761 10.429-17.689 13.173-4.584 1.77-9.739 2.368-14.505.982-6.516-1.708-11.796-6.524-15.275-12.144-4.51-7.223-6.302-15.804-6.578-24.219-.416-13.146 2.216-26.245 6.578-38.603 3.892-10.813 9.16-21.195 16.158-30.339 6.042-7.813 14.684-13.899 24.481-15.808 7.15-1.013 14.851-.384 21.185 3.334 5.408 3.097 9.385 8.306 11.582 14.069 1.057 2.655 1.423 5.542 2.702 8.116.63-.054 1.26-.101 1.897-.147 1.108-2.957 1.695-6.07 2.496-9.121 1.831-7.196 3.542-14.423 5.42-21.603.365-1.137.074-2.313-.191-3.431-3.235-.555-6.52-.287-9.778-.334-9.716.027-19.427-.066-29.139.043-3.604.334-7.231.252-10.835.582-10.835 1.37-21.371 5.049-30.721 10.685-10.855 6.528-19.979 15.746-26.822 26.369-6.364 9.893-10.929 20.978-13.133 32.536-2.029 10.627-1.668 21.762 1.536 32.125 2.294 7.425 6.022 14.423 11.022 20.384 7.636 9.063 18.222 15.804 29.905 18.156 6.427 1.234 13.184 1.32 19.493-.574 5.929-1.719 11.422-4.743 16.317-8.469 5.89-4.475 11.142-9.788 15.508-15.758 4.195.031 8.386-.062 12.581.062 10.167.159 20.333-.113 30.5.132 1.05 1.133 1.975 2.371 2.889 3.617 11.768 15.121 27.113 27.444 44.426 35.692 25.17 11.985 54.227 15.432 81.578 10.184 23.603-4.533 45.833-15.894 63.301-32.381 17.911-16.767 30.873-38.742 36.763-62.546 3.196-12.862 4.58-26.221 3.596-39.456-.98-13.685-3.756-27.339-9.132-40-4.203-9.92-9.428-19.433-15.878-28.077-14.338-19.356-34.15-34.686-56.649-43.411-29.858-11.721-64.098-11.869-94.022-.299zm-34.333 85.709c-4.249.551-7.671 3.885-9.234 7.743-1.287 3.14-1.683 6.726-.762 10.017 1.104 2.562 3.977 4.04 6.699 4.033 2.791.182 5.688-.442 7.966-2.119 3.417-2.461 5.155-6.621 5.758-10.673.338-2.721-.292-5.861-2.554-7.634-2.232-1.688-5.217-1.735-7.873-1.366zm97.58.023c-3.826 1.005-7.227 3.668-8.821 7.324-1.403 3.295-2.383 7.231-.711 10.619.778 1.851 2.663 2.849 4.518 3.322 4.078 1.032 8.456.563 12.433-.683.785-3.505 1.508-7.025 2.282-10.53-2.9-.016-5.801-.008-8.701-.019-.257 1.207-.474 2.422-.665 3.641l3.973.035c-.365 1.421-.704 2.841-1.042 4.269-2.34.446-5.015.745-7.084-.691-1.481-1.067-1.691-3.078-1.536-4.758.319-3.571 2.006-7.456 5.451-9.012 1.866-.831 4.44-.741 5.758 1.009.144.734.074 1.49.105 2.239 1.606-.004 3.215 0 4.825 0 .008-1.607.295-3.466-.879-4.77-1.159-1.277-2.826-2.166-4.568-2.193-1.781-.07-3.577-.093-5.338.198zm-120.918.043c-1.248 7.114-3.157 14.1-4.312 21.234 4.541.012 9.082.008 13.623 0 .257-1.234.498-2.472.723-3.71-2.966-.004-5.937.008-8.903-.016 1.065-5.865 2.714-11.616 3.515-17.528-1.547 0-3.099.008-4.646.019zm39.998 3.264c-1.372 1.638-1.742 3.982-1.209 6.016.832 1.704 2.749 2.43 4.424 3.043 1.508.574 3.27.532 4.603 1.518 1.085.92.428 2.562-.482 3.349-1.528 1.432-3.822 1.413-5.719.854-.91-1.056-.883-2.426-.805-3.734-1.567.004-3.134.008-4.7.023-.066 1.397-.272 2.826.054 4.207.572 1.747 2.387 2.732 4.109 3.031 3.297.458 6.893.12 9.708-1.793 1.656-1.164 3.118-2.907 3.254-5.007.089-1.308.198-2.926-.929-3.85-2.2-1.7-5.093-1.91-7.605-2.923-1.407-.446-1.17-2.313-.572-3.326 1.166-1.847 3.822-1.871 5.525-.8.4.73.451 1.599.665 2.402 1.477.004 2.955-.008 4.432-.019-.023-1.63.237-3.598-1.143-4.789-2.029-1.879-4.965-1.684-7.527-1.537-2.305.4-4.603 1.467-6.084 3.334zm152.689 2.286c-.61 1.688-.455 3.885 1.073 5.046 2.442 1.991 5.766 2.014 8.518 3.349.105 1.525-.474 3.159-1.843 3.967-1.66.675-3.522.512-5.21.043-.369-1.184-.591-2.402-.684-3.637-1.47 0-2.935-.016-4.401-.023-.4 1.894-.665 4.184.805 5.713 1.889 1.847 4.743 1.813 7.208 1.684 3.577-.194 7.379-2.111 8.728-5.593.657-1.657.82-3.877-.614-5.181-2.162-1.785-5.112-1.809-7.605-2.872-.708-.31-1.621-.889-1.334-1.801.295-2.682 3.899-4.106 6.038-2.55.657.687.653 1.731.929 2.6l4.358-.031c-.004-1.626.179-3.547-1.112-4.782-2.232-2.065-5.544-1.863-8.324-1.351-2.92.524-5.583 2.569-6.531 5.418zm-118.881-5.244c-3.826 7.041-8.021 13.875-11.881 20.896 1.473.027 2.947.039 4.42.039.82-1.463 1.652-2.923 2.469-4.386 2.745-.031 5.493-.019 8.242-.016.148 1.475.35 2.942.603 4.405 1.505 0 3.017-.012 4.525-.027-.75-7.013-1.796-13.992-2.78-20.978-1.866-.008-3.736.008-5.598.066zm16.313-.043c-1.528 6.978-2.951 13.98-4.502 20.955 1.458.016 2.92.023 4.382.027.933-4.161 1.831-8.329 2.683-12.505.249-1.289.649-2.538 1.116-3.761 1.59 5.372 2.718 10.867 4.222 16.262 2.103-.004 4.21-.004 6.318.004 1.512-6.994 2.994-13.992 4.479-20.99-1.438-.008-2.881-.004-4.315.008-1.225 5.375-2.235 10.798-3.553 16.15-1.186-5.43-2.795-10.759-4.141-16.15-2.232-.023-4.459-.019-6.687 0zm43.641 20.951c4.922.019 9.848.101 14.77-.05.132-1.219.276-2.434.428-3.648-3.184.008-6.364.016-9.548-.008.21-1.809.552-3.594.941-5.372 3.075-.027 6.154.031 9.23-.062.117-1.211.241-2.418.373-3.621-2.943.016-5.886.027-8.829-.023.358-1.603.754-3.198 1.209-4.778 3.134.016 6.271.004 9.408.016.241-1.137.486-2.274.746-3.412-4.755-.008-9.506-.031-14.26.019-1.458 6.986-2.943 13.965-4.467 20.939zm23.544-20.959c-1.52 6.982-2.99 13.972-4.459 20.966 4.603.027 9.21.043 13.813-.016.214-1.23.439-2.461.68-3.687-2.997 0-5.999.016-8.996-.023 1.291-5.733 2.438-11.5 3.713-17.236-1.586-.008-3.169-.012-4.751-.004zm13.265 20.966c4.852.043 9.708.004 14.564.019.241-1.238.474-2.476.692-3.718-3.262-.008-6.524.016-9.786-.023.385-1.785.774-3.571 1.147-5.36 2.982-.027 5.968-.012 8.954-.012.241-1.223.482-2.445.715-3.668-2.97-.004-5.941.019-8.911-.023.342-1.611.719-3.21 1.178-4.789 3.153.019 6.306.019 9.463.008.214-1.137.439-2.274.673-3.408-4.743.012-9.482-.027-14.222.023-1.458 6.99-2.97 13.968-4.467 20.951zm11.139 13.223c-4.541 1.832-7.951 6.132-8.775 10.941-.82 4.564-.101 9.501 2.449 13.425 3.989 6.132 8.868 11.779 11.683 18.603 1.061 2.593 1.501 5.736.047 8.271-1.127 1.801-2.788 3.342-4.79 4.106-2.519.854-5.365.198-7.503-1.308-4.051-2.76-6.368-7.533-6.862-12.323-.311-2.391.245-4.883-.638-7.184-2.5 5.473-2.601 11.752-5.497 17.073-.669 1.261-1.781 2.593-3.359 2.492-1.186.116-2.053-.928-2.379-1.952-1.197-3.489-.906-7.235-1.271-10.852-.257-2.507.171-5.166-.91-7.526-.84-2.069-3.429-2.86-3.853-5.17 4.226-1.607 8.67-3.086 12.033-6.245 2.776-2.488 4.918-5.985 4.903-9.804.14-3.722-.575-7.894-3.452-10.522-3.433-2.884-8.145-3.089-12.422-3.051-9.871.082-19.746-.093-29.617.085l.054.877c1.252.935 2.885 1.824 3.161 3.516.91 5.69-1.011 11.256-2.185 16.751-1.765 7.467-3.643 14.908-5.645 22.313-1.054 3.776-2.045 7.627-3.989 11.065-.925 1.785-2.873 2.597-4.354 3.827 8.93.175 17.864.186 26.799 0-1.353-1.261-3.091-2.107-4.214-3.602-1.423-2.108-1.081-4.809-.548-7.149 1.019-4.199 2.212-8.348 3.153-12.563.303-1.195.634-2.659 1.882-3.206 1.396-.248 2.519.966 2.997 2.15 1.05 2.635 1.388 5.48 1.777 8.271.498 3.47.132 6.975.249 10.464-.031 2.507 1.427 4.778 3.196 6.451 3.95 3.769 10.789 3.87 14.77.089 1.431.256 2.939.617 4.37.14 2.235-.734 4.327-2.111 6.765-2.045 3.367-.213 6.034 2.356 9.3 2.69 6.423.702 13.405-1.436 17.643-6.466 3.398-3.955 4.7-9.396 4.117-14.512-.346-3.676-1.812-7.122-3.546-10.34-3.118-5.779-7.321-10.875-10.715-16.487-.945-1.584-1.753-3.412-1.454-5.298.272-1.719 1.784-2.942 3.347-3.509 4.125-1.397 9.086.442 11.255 4.227 1.505 2.527 1.267 5.581 1.551 8.395.805-1.44 1.326-3.008 1.73-4.599.902-3.462 2.298-6.777 3.06-10.274-3.631-1.37-7.562-1.343-11.376-1.673-4.335-.179-8.853-.245-12.935 1.436zm-266.718-.516c.918 1.58 2.959 1.886 4.059 3.307 1.621 1.77 1.415 4.39.848 6.548-3.215 12.121-6.411 24.246-9.618 36.367-1.252 4.704-3.849 9.299-8.157 11.826 1.197.26 2.407.52 3.639.501 9.327-.023 18.654-.019 27.984-.012 2.718-.023 5.455.155 8.149-.322 2.212-5.868 4.16-11.888 5.015-18.121-.933.637-1.703 1.475-2.224 2.476-2.022 3.633-4.642 7.013-8.052 9.443-3.378 2.313-7.647 3.353-11.702 2.791-1.656-.404-1.777-2.36-1.302-3.703 3.511-13.134 7.017-26.268 10.649-39.371.793-3.008 2.407-5.752 4.417-8.108 1.26-1.49 3.114-2.274 4.545-3.575-2.251-.217-4.514-.159-6.773-.155-7.157.066-14.319-.136-21.476.109zm41.977-.062l.035.866c1.252 1.052 2.749 2.084 3.172 3.761.661 2.752-.393 5.488-1.077 8.123-2.877 10.623-5.742 21.25-8.608 31.876-.809 3.051-1.59 6.144-3.064 8.958-.925 1.801-2.601 3.023-3.861 4.572 1.384.248 2.78.466 4.187.458 5.05-.023 10.1-.027 15.151 0 1.528.012 3.048-.198 4.553-.462-.502-1.316-1.753-2.135-2.286-3.431-1.147-2.507-.945-5.403-.167-7.98 3.106-11.55 6.038-23.144 9.237-34.667.723-2.453 1.415-4.933 2.496-7.258.987-2.115 3.095-3.311 4.809-4.762-8.192-.19-16.387-.101-24.579-.054zm29.458-.023c2.442 1.723 5.396 4.417 4.487 7.72-.964 4.949-2.36 9.8-3.674 14.663-1.641 6.365-3.281 12.73-4.953 19.088-1.077 3.842-1.656 7.887-3.647 11.407-1.022 2.01-2.807 3.454-4.304 5.088.949.291 1.901.679 2.916.66 5.074 0 10.151-.012 15.225-.004 2.589-.031 5.229.233 7.756-.481-1.645-1.417-3.915-2.418-4.677-4.607-1.019-2.709-.264-5.62.35-8.329 1.124-4.607 2.372-9.198 4.067-13.635 3.736-.318 7.523.442 11.228-.322 5.462-1.133 10.828-3.52 14.704-7.619 3.293-3.388 5.734-8.026 5.26-12.862-.264-3.07-1.357-6.346-3.934-8.24-2.309-1.607-5.097-2.612-7.935-2.515-10.956-.066-21.912-.039-32.867-.012zm44.92.031c1.617 1.296 3.487 2.55 4.222 4.588.63 1.479.404 3.128.012 4.638-3.254 12.509-6.563 25.007-9.751 37.531-.933 4.13-2.753 8.403-6.481 10.751l.086 1.079c8.23.004 16.465.004 24.695 0l.016-1.153c-1.314-.846-2.861-1.63-3.483-3.155-1.186-2.748-.711-5.841.016-8.64 1.217-4.731 2.372-9.497 4.152-14.062 3.791-.388 7.632.427 11.391-.388 6.345-1.312 12.6-4.436 16.438-9.804 1.975-2.86 3.798-6.229 3.394-9.823-.175-2.736-1.042-5.531-2.931-7.584-2.34-2.69-5.948-4.071-9.478-4.04-10.765.05-21.531-.066-32.296.062zm43.493.116c1.532 1.533 3.919 2.193 4.918 4.219.564 1.972.249 4.079-.194 6.047-3.215 12.35-6.318 24.731-9.506 37.089-1.17 4.366-4.09 8.36-8.308 10.204 1.108.314 2.255.489 3.41.439 13.736-.113 27.471.113 41.203-.109.626.085.898-.578 1.197-1.001.781-1.448 1.073-3.089 1.567-4.646 1.065-3.959 2.679-7.805 3.009-11.931-4.23 4.141-6.808 9.866-11.866 13.169-4.323 2.709-9.661 2.5-14.568 2.449-1.897.082-3.087-2.018-2.519-3.71 1.746-6.854 3.647-13.674 5.427-20.52.408-1.219.743-2.752 2.061-3.303 2.189-.966 4.72.144 6.197 1.855 2.659 2.783 2.955 6.843 3.262 10.479l.863-.376c1.784-6.862 3.429-13.759 5.237-20.609.424-1.556.715-3.148.848-4.754-2.527 2.092-4.148 5.115-6.947 6.901-2.477 1.727-5.579 2.329-8.553 2.057-.128-1.715-.019-3.443.412-5.108.918-3.59 1.948-7.149 2.807-10.755.482-1.96 1.275-3.858 2.535-5.449 4.382.21 9.385-.951 13.152 1.929 3.285 2.763 2.92 7.452 3.231 11.318.832-1.075 1.353-2.348 1.61-3.679.894-4.114 2.212-8.139 2.745-12.327-14.408.101-28.82-.14-43.228.124z" fill="#FEFFFE" sketch:type="MSShapeGroup"/><path d="M266.118 135.547c29.924-11.57 64.164-11.422 94.022.299 22.499 8.725 42.311 24.056 56.649 43.411 6.45 8.643 11.675 18.156 15.878 28.077 5.377 12.661 8.153 26.315 9.132 40 .984 13.235-.4 26.594-3.596 39.456-5.89 23.803-18.852 45.779-36.763 62.546-17.468 16.487-39.698 27.848-63.301 32.381-27.351 5.247-56.408 1.801-81.578-10.184-17.312-8.248-32.657-20.57-44.426-35.692-.914-1.246-1.839-2.484-2.889-3.617-10.167-.245-20.333.027-30.5-.132-4.195-.124-8.386-.031-12.581-.062-3.872-.019-7.741-.016-11.613-.004-10.742.012-21.488.008-32.234.008-2.057.089-3.927-1.84-3.818-3.881.058-1.009.68-2.251 1.874-2.092 7.919-.14 15.847.047 23.77-.05 2.974.012 5.944-.256 8.919-.043 4.541.151 9.086.023 13.631.062 6.734-.345 13.479.295 20.213-.14 3.884.279 7.772-.05 11.659.132 3.635.085 7.266-.128 10.897-.116 10.637-.066 21.27.268 31.903.093 4.522-.326 9.051.279 13.572-.089 4.273.163 8.545-.132 12.818.105 4.953-.128 9.906-.163 14.859-.058 4.253.167 8.499-.26 12.752.027 6.609-.404 13.219.089 19.832.066 8.946.035 17.892-.175 26.834-.023 11.547-.074 23.094.031 34.64-.023 4.646-.373 9.296.182 13.946.031 3.639-.124 7.286.116 10.925-.116 4.094-.326 8.211.598 12.289-.124 3.631-4.331 6.287-9.373 8.58-14.508 2.208-4.89 4.074-9.924 5.987-14.931 4.642-12.175 6.808-25.201 7.154-38.195.26-11.974-1.17-23.982-4.265-35.552-1.197-4.285-2.562-8.543-4.529-12.544-63.356.082-126.711.023-190.067.004-2.997-.043-5.979.38-8.973.322-38.75-.004-77.499-.012-116.245.004-1.127.012-2.228-.248-3.316-.501.214-1.184.14-2.655 1.229-3.447 1.788-1.436 4.195-1.615 6.399-1.7 21.636-.066 43.271.058 64.907-.019 4.642-.066 9.292.082 13.934-.113 1.267-3.458 3.141-6.645 4.704-9.971-25.959-.027-51.914 0-77.873-.016-.956-2.162.999-4.522 3.235-4.491 25.757-.066 51.517.039 77.278-.05 1.998-3.4 4.168-6.699 6.45-9.913-21.169-.093-42.338-.019-63.507-.043-3.931-.089-7.881.213-11.796-.217-.346-2.55 1.765-5.065 4.358-5.049 24.509.043 49.021-.008 73.534.031.638-.058 1.427.027 1.851-.574 2.675-2.915 5.155-6.02 8.063-8.717-20.407-.136-40.814-.035-61.221-.066-4.051-.105-8.133.279-12.157-.342-.004-1.285.299-2.663 1.372-3.489 1.337-1.25 3.274-.997 4.953-1.009 23.591.012 47.182.008 70.773.004.898.054 1.718-.388 2.36-.986 11.411-10.351 24.734-18.599 39.111-24.168zm10.05 3.497c-12.806 4.11-24.913 10.367-35.725 18.354 1.575-.342 3.149-.687 4.716-1.071 18.459-4.832 37.925-5.985 56.789-3.012 13.347 2.042 26.266 6.377 38.435 12.171 1.905-3.862 3.239-8.298 2.162-12.598-1.17-4.025-4.397-7.002-7.667-9.424-5.47-4.071-11.667-7.037-17.954-9.622-2.022-.893-4.261-.563-6.399-.539-11.644.314-23.261 2.17-34.356 5.74zm55.179-4.378c3.53 2.03 6.986 4.25 9.98 7.029 3.386 3.179 6.333 7.207 7.006 11.908.731 5.015-.789 10.048-3.001 14.504 7.282 3.982 14.268 8.512 20.807 13.615.552.439 1.586 1.16 2.045.213 5.618-8.546 11.053-17.221 16.127-26.101-15.629-11.127-33.921-18.575-52.963-21.168zm-101.339 32.288c-.988.345-1.874.931-2.609 1.669-10.524 10.495-19.381 22.775-25.29 36.441 21.115.074 42.225.105 63.34.089 1.812-.05 3.721.248 5.443-.489 11.348-4.805 22.93-9.024 34.493-13.274 7.239-2.663 14.218-6.113 20.5-10.603 4.218-3.047 8.211-6.497 11.329-10.689-16.729-8.127-35.266-12.536-53.873-12.75-18.187-.268-36.324 3.28-53.333 9.606zm158.789-7.825c-5.388 9.21-11.049 18.261-16.861 27.215 6.656 5.507 13.125 11.252 19.175 17.423 3.48-4.51 8.114-8.469 13.782-9.804 5.202-1.351 10.703-.074 15.442 2.224-7.795-14.368-18.778-26.881-31.538-37.058zm-46.572 13.654c-7.262 9.408-17.468 16.138-28.222 20.97-6.885 3.039-14.07 5.325-21.08 8.054-2.512.997-5.155 1.712-7.461 3.152 22.417.237 44.838.05 67.259.12 4.024-5.865 7.989-11.768 11.897-17.71-7.072-5.422-14.354-10.677-22.394-14.586zm17.367 32.272c8.37.054 16.741-.035 25.111.05-2.321-2.205-4.623-4.428-6.99-6.583-2.908-2.542-5.657-5.325-8.876-7.475-3.04 4.696-6.318 9.237-9.245 14.007zm37.809-.05c8.996.147 17.997.031 26.997.066-4.036-3.155-8.775-5.698-13.949-6.187-5.054-.392-9.902 2.302-13.047 6.121zm-178.994 126.931c6.434 7.875 13.708 15.117 21.982 21.071 5.777-6.947 11.527-13.918 17.215-20.939-13.067-.155-26.134.085-39.197-.132zm45.779.679c-6.45 7.856-12.822 15.777-19.377 23.547 23.56 16.379 53.212 23.384 81.683 20.427 2.465-.078 4.37-1.801 6.469-2.86 4.564-2.496 8.938-5.395 12.628-9.082 9.296-8.981 15.45-20.679 19.824-32.707-32.934-.07-65.867.012-98.797-.043-.848.047-1.901-.109-2.43.718zm107.031-.687c-1.924 5.399-4.117 10.712-6.757 15.804-5.136 9.854-11.873 19.173-20.986 25.717 4.961-1.098 9.817-2.639 14.533-4.522 9.727-3.804 18.965-8.841 27.39-15.013 8.779-6.388 16.749-13.848 23.929-21.975-12.701-.054-25.407-.027-38.108-.012z" fill="#D0103C" sketch:type="MSShapeGroup"/><path d="M276.168 139.044c11.096-3.571 22.713-5.426 34.356-5.74 2.138-.023 4.378-.353 6.399.539 6.287 2.585 12.484 5.55 17.954 9.622 3.27 2.422 6.497 5.399 7.667 9.424 1.077 4.3-.257 8.737-2.162 12.598-12.169-5.795-25.088-10.13-38.435-12.171-18.864-2.973-38.33-1.82-56.789 3.012-1.567.384-3.141.73-4.716 1.071 10.812-7.988 22.919-14.244 35.725-18.354zm55.18-4.378c19.042 2.593 37.334 10.041 52.963 21.168-5.074 8.88-10.509 17.555-16.127 26.101-.459.947-1.493.225-2.045-.213-6.539-5.104-13.526-9.633-20.807-13.615 2.212-4.456 3.732-9.49 3.001-14.504-.673-4.7-3.62-8.729-7.006-11.908-2.994-2.779-6.45-4.999-9.98-7.029zm-101.339 32.288c17.009-6.326 35.146-9.874 53.333-9.606 18.607.213 37.144 4.623 53.873 12.75-3.118 4.192-7.111 7.642-11.329 10.689-6.283 4.491-13.261 7.941-20.5 10.603-11.562 4.25-23.144 8.469-34.493 13.274-1.722.737-3.631.439-5.443.489-21.115.016-42.225-.016-63.34-.089 5.909-13.666 14.766-25.946 25.29-36.441.735-.737 1.621-1.323 2.609-1.669zm158.789-7.825c12.76 10.177 23.743 22.69 31.538 37.058-4.739-2.298-10.24-3.575-15.442-2.224-5.668 1.335-10.303 5.294-13.782 9.804-6.049-6.171-12.519-11.915-19.175-17.423 5.812-8.954 11.473-18.005 16.861-27.215zm-46.572 13.655c8.04 3.908 15.322 9.164 22.394 14.586-3.907 5.942-7.873 11.845-11.897 17.71-22.421-.07-44.842.116-67.259-.12 2.305-1.44 4.949-2.154 7.461-3.152 7.01-2.728 14.194-5.015 21.08-8.054 10.754-4.832 20.959-11.562 28.222-20.97zm17.367 32.272c2.928-4.77 6.205-9.311 9.245-14.007 3.219 2.15 5.968 4.933 8.876 7.475 2.368 2.154 4.669 4.378 6.99 6.583-8.37-.085-16.741.004-25.111-.05zm37.808-.051c3.145-3.819 7.993-6.513 13.047-6.121 5.175.489 9.914 3.031 13.949 6.187-9-.035-18 .082-26.997-.066z" fill="#FEFFFE" sketch:type="MSShapeGroup"/><path d="M143.062 216.575c3.604-.33 7.231-.248 10.835-.582 9.712-.109 19.423-.016 29.139-.043 3.258.047 6.543-.221 9.778.334.264 1.118.556 2.294.191 3.431-1.878 7.18-3.588 14.407-5.42 21.603-.801 3.051-1.388 6.163-2.496 9.121-.638.047-1.267.093-1.897.147-1.279-2.573-1.645-5.461-2.702-8.116-2.197-5.764-6.174-10.972-11.582-14.069-6.333-3.718-14.035-4.347-21.185-3.334-9.797 1.91-18.44 7.995-24.481 15.808-6.998 9.144-12.266 19.526-16.158 30.339-4.362 12.358-6.994 25.457-6.578 38.603.276 8.414 2.068 16.996 6.578 24.219 3.48 5.62 8.759 10.437 15.275 12.144 4.766 1.386 9.922.788 14.505-.982 6.928-2.744 12.818-7.619 17.689-13.173 3.872-.012 7.741-.016 11.613.004-4.366 5.969-9.618 11.283-15.508 15.758-4.895 3.726-10.388 6.749-16.317 8.469-6.31 1.894-13.067 1.809-19.493.574-11.683-2.352-22.269-9.094-29.905-18.156-5-5.962-8.728-12.959-11.022-20.384-3.204-10.363-3.565-21.498-1.536-32.125 2.204-11.558 6.769-22.643 13.133-32.536 6.843-10.623 15.967-19.841 26.822-26.369 9.35-5.636 19.886-9.315 30.721-10.685zm88.723 4.681c2.655-.369 5.641-.322 7.873 1.366 2.263 1.774 2.893 4.914 2.554 7.634-.603 4.052-2.34 8.213-5.758 10.673-2.278 1.677-5.175 2.302-7.966 2.119-2.721.008-5.595-1.471-6.699-4.033-.921-3.291-.525-6.878.762-10.017 1.563-3.858 4.984-7.192 9.234-7.743zm-.004 3.412c-1.594.555-2.997 1.653-3.783 3.159-1.645 2.895-2.119 6.408-1.59 9.672.945 2.053 3.756 2.837 5.734 1.797 3.433-1.487 4.599-5.453 5.217-8.818.517-2.108-.268-4.541-2.119-5.748-1.081-.474-2.352-.396-3.46-.062zm97.584-3.389c1.761-.291 3.557-.268 5.338-.198 1.742.027 3.41.916 4.568 2.193 1.174 1.304.886 3.163.879 4.77-1.61 0-3.219-.004-4.825 0-.031-.749.039-1.506-.105-2.239-1.318-1.75-3.892-1.84-5.758-1.009-3.445 1.556-5.132 5.441-5.451 9.012-.156 1.681.054 3.691 1.536 4.758 2.068 1.436 4.743 1.137 7.084.691.338-1.428.676-2.849 1.042-4.269l-3.973-.035c.191-1.219.408-2.434.665-3.641 2.9.012 5.801.004 8.701.019-.774 3.505-1.497 7.025-2.282 10.53-3.977 1.246-8.355 1.715-12.433.683-1.854-.474-3.74-1.471-4.518-3.322-1.672-3.388-.692-7.324.711-10.619 1.594-3.656 4.996-6.319 8.821-7.324zm-120.918.043c1.547-.012 3.099-.019 4.646-.019-.801 5.911-2.449 11.663-3.515 17.528 2.966.023 5.937.012 8.903.016-.225 1.238-.467 2.476-.723 3.71-4.541.008-9.082.012-13.623 0 1.155-7.134 3.064-14.12 4.312-21.234zm39.997 3.264c1.481-1.867 3.779-2.934 6.084-3.334 2.562-.147 5.497-.342 7.527 1.537 1.38 1.192 1.12 3.159 1.143 4.789-1.477.012-2.955.023-4.432.019-.214-.803-.264-1.673-.665-2.402-1.703-1.071-4.358-1.048-5.525.8-.599 1.013-.836 2.88.572 3.326 2.512 1.013 5.404 1.223 7.605 2.923 1.127.924 1.019 2.542.929 3.85-.136 2.1-1.598 3.842-3.254 5.007-2.815 1.913-6.411 2.251-9.708 1.793-1.722-.299-3.538-1.285-4.109-3.031-.327-1.382-.121-2.81-.054-4.207 1.567-.016 3.134-.019 4.7-.023-.078 1.308-.105 2.678.805 3.734 1.897.559 4.191.578 5.719-.854.91-.788 1.567-2.43.482-3.349-1.334-.986-3.095-.943-4.603-1.518-1.676-.613-3.592-1.339-4.424-3.043-.533-2.034-.163-4.378 1.209-6.016zm152.69 2.286c.949-2.849 3.612-4.894 6.531-5.418 2.78-.512 6.092-.714 8.324 1.351 1.291 1.234 1.108 3.155 1.112 4.782l-4.358.031c-.276-.869-.272-1.913-.929-2.6-2.138-1.556-5.742-.132-6.038 2.55-.288.912.626 1.49 1.334 1.801 2.492 1.063 5.443 1.087 7.605 2.872 1.435 1.304 1.271 3.524.614 5.181-1.349 3.481-5.151 5.399-8.728 5.593-2.465.128-5.319.163-7.208-1.684-1.47-1.529-1.205-3.819-.805-5.713 1.466.008 2.931.023 4.401.023.093 1.234.315 2.453.684 3.637 1.687.47 3.55.633 5.21-.043 1.369-.807 1.948-2.441 1.843-3.967-2.753-1.335-6.077-1.358-8.518-3.349-1.528-1.16-1.683-3.357-1.073-5.046zm-118.881-5.243c1.862-.058 3.732-.074 5.598-.066.984 6.986 2.029 13.965 2.78 20.978-1.508.016-3.021.027-4.525.027-.253-1.463-.455-2.93-.603-4.405-2.749-.004-5.497-.016-8.242.016-.816 1.463-1.648 2.923-2.469 4.386-1.473 0-2.947-.012-4.42-.039 3.861-7.021 8.056-13.856 11.881-20.896zm-2.881 12.851c1.917.035 3.837.035 5.758.027-.513-2.717-.599-5.48-.894-8.22-1.998 2.492-3.344 5.407-4.864 8.193zm19.194-12.894c2.228-.019 4.455-.023 6.687 0 1.345 5.391 2.955 10.72 4.141 16.15 1.318-5.352 2.329-10.774 3.553-16.15 1.435-.012 2.877-.016 4.315-.008-1.485 6.998-2.966 13.996-4.479 20.99-2.107-.008-4.214-.008-6.318-.004-1.505-5.395-2.632-10.891-4.222-16.262-.467 1.223-.867 2.472-1.116 3.761-.851 4.176-1.75 8.345-2.683 12.505-1.462-.004-2.924-.012-4.382-.027 1.551-6.975 2.974-13.976 4.502-20.955zm43.64 20.951c1.524-6.975 3.009-13.953 4.467-20.939 4.755-.05 9.506-.027 14.26-.019-.26 1.137-.505 2.274-.746 3.412-3.137-.012-6.275 0-9.408-.016-.455 1.58-.851 3.175-1.209 4.778 2.943.05 5.886.039 8.829.023-.132 1.203-.257 2.41-.373 3.621-3.075.093-6.154.035-9.23.062-.389 1.778-.731 3.563-.941 5.372 3.184.023 6.364.016 9.548.008-.152 1.215-.295 2.43-.428 3.648-4.922.151-9.848.07-14.77.05zm23.545-20.959c1.582-.008 3.165-.004 4.751.004-1.275 5.736-2.422 11.504-3.713 17.236 2.997.039 5.999.023 8.996.023-.241 1.226-.467 2.457-.68 3.687-4.603.058-9.21.043-13.813.016 1.47-6.994 2.939-13.984 4.459-20.966zm13.265 20.967c1.497-6.982 3.009-13.961 4.467-20.951 4.739-.05 9.478-.012 14.222-.023-.233 1.133-.459 2.271-.673 3.408-3.157.012-6.31.012-9.463-.008-.459 1.58-.836 3.179-1.178 4.789 2.97.043 5.941.019 8.911.023-.233 1.223-.474 2.445-.715 3.668-2.986 0-5.972-.016-8.954.012-.373 1.789-.762 3.575-1.147 5.36 3.262.039 6.524.016 9.786.023-.218 1.242-.451 2.48-.692 3.718-4.856-.016-9.712.023-14.564-.019z" fill="#0446AC" sketch:type="MSShapeGroup"/><path d="M231.781 224.668c1.108-.334 2.379-.411 3.46.062 1.851 1.207 2.636 3.641 2.119 5.748-.618 3.365-1.784 7.332-5.217 8.818-1.979 1.04-4.79.256-5.734-1.797-.529-3.264-.054-6.777 1.59-9.672.785-1.506 2.189-2.604 3.783-3.159zm47.591 9.811c1.52-2.787 2.865-5.702 4.864-8.193.295 2.74.381 5.504.894 8.22-1.921.008-3.841.008-5.758-.027z" fill="#FEFFFE" sketch:type="MSShapeGroup"/><path d="M390.155 255.768c4.082-1.681 8.6-1.615 12.935-1.436 3.814.33 7.744.303 11.376 1.673-.762 3.497-2.158 6.812-3.06 10.274-.404 1.591-.925 3.159-1.73 4.599-.284-2.814-.047-5.868-1.551-8.395-2.169-3.784-7.13-5.624-11.255-4.227-1.563.567-3.075 1.789-3.347 3.509-.299 1.886.509 3.714 1.454 5.298 3.394 5.612 7.597 10.708 10.715 16.487 1.734 3.218 3.2 6.664 3.546 10.34.583 5.115-.719 10.557-4.117 14.512-4.238 5.03-11.22 7.169-17.643 6.466-3.266-.334-5.933-2.903-9.3-2.69-2.438-.066-4.529 1.312-6.765 2.045-1.431.477-2.939.116-4.37-.14-3.981 3.78-10.82 3.679-14.77-.089-1.769-1.673-3.227-3.943-3.196-6.451-.117-3.489.249-6.994-.249-10.464-.389-2.791-.727-5.636-1.777-8.271-.478-1.184-1.602-2.399-2.997-2.15-1.248.547-1.578 2.01-1.882 3.206-.941 4.215-2.134 8.364-3.153 12.563-.533 2.34-.875 5.042.548 7.149 1.124 1.494 2.861 2.34 4.214 3.602-8.934.186-17.868.175-26.799 0 1.481-1.23 3.429-2.042 4.354-3.827 1.944-3.439 2.935-7.289 3.989-11.065 2.002-7.405 3.88-14.846 5.645-22.313 1.174-5.496 3.095-11.061 2.185-16.751-.276-1.692-1.909-2.581-3.161-3.516l-.054-.877c9.871-.179 19.746-.004 29.617-.085 4.277-.039 8.989.167 12.422 3.051 2.877 2.628 3.592 6.8 3.452 10.522.016 3.819-2.127 7.316-4.903 9.804-3.363 3.159-7.807 4.638-12.033 6.245.424 2.309 3.013 3.101 3.853 5.17 1.081 2.36.653 5.018.91 7.526.365 3.617.074 7.363 1.271 10.852.327 1.025 1.194 2.069 2.379 1.952 1.578.101 2.69-1.23 3.359-2.492 2.896-5.321 2.997-11.601 5.497-17.073.883 2.302.327 4.793.638 7.184.494 4.789 2.811 9.563 6.862 12.323 2.138 1.506 4.984 2.162 7.503 1.308 2.002-.765 3.662-2.305 4.79-4.106 1.454-2.534 1.015-5.678-.047-8.271-2.815-6.823-7.694-12.47-11.683-18.603-2.55-3.924-3.27-8.861-2.449-13.425.824-4.809 4.234-9.109 8.775-10.941zm-37.366 2.375c-1.369.384-2.372 1.572-2.694 2.934-1.431 5.48-2.69 11.011-4.183 16.48-.26 1.133-.704 2.336-.342 3.497.424.551.976.986 1.489 1.459 4.156-.369 8.172-2.581 10.618-5.977 3.001-4.091 3.985-9.691 2.2-14.485-.929-2.806-4.172-4.828-7.087-3.908zm-229.353-2.891c7.157-.245 14.319-.043 21.476-.109 2.259-.004 4.522-.062 6.773.155-1.431 1.3-3.285 2.084-4.545 3.575-2.01 2.356-3.623 5.1-4.417 8.108-3.631 13.103-7.138 26.237-10.649 39.371-.474 1.343-.354 3.299 1.302 3.703 4.055.563 8.324-.477 11.702-2.791 3.41-2.43 6.03-5.81 8.052-9.443.521-1.001 1.291-1.84 2.224-2.476-.855 6.233-2.803 12.253-5.015 18.121-2.694.477-5.431.299-8.149.322-9.331-.008-18.658-.012-27.984.012-1.232.019-2.442-.241-3.639-.501 4.308-2.527 6.905-7.122 8.157-11.826 3.207-12.121 6.403-24.246 9.618-36.367.568-2.158.774-4.778-.848-6.548-1.1-1.421-3.141-1.727-4.059-3.307zm41.977-.062c8.192-.047 16.387-.136 24.579.054-1.715 1.452-3.822 2.647-4.809 4.762-1.081 2.325-1.773 4.805-2.496 7.258-3.2 11.523-6.131 23.117-9.237 34.667-.778 2.577-.98 5.473.167 7.98.533 1.296 1.784 2.115 2.286 3.431-1.505.264-3.025.474-4.553.462-5.05-.027-10.1-.023-15.151 0-1.407.008-2.803-.21-4.187-.458 1.26-1.549 2.935-2.771 3.861-4.572 1.473-2.814 2.255-5.907 3.064-8.958 2.865-10.627 5.731-21.254 8.608-31.876.684-2.635 1.738-5.372 1.077-8.123-.424-1.677-1.921-2.709-3.172-3.761l-.035-.866zm29.458-.024c10.956-.027 21.912-.054 32.867.012 2.838-.097 5.626.908 7.935 2.515 2.578 1.894 3.67 5.17 3.934 8.24.474 4.836-1.967 9.474-5.26 12.862-3.876 4.099-9.241 6.486-14.704 7.619-3.705.765-7.492.004-11.228.322-1.695 4.436-2.943 9.028-4.067 13.635-.614 2.709-1.369 5.62-.35 8.329.762 2.189 3.032 3.19 4.677 4.607-2.527.714-5.167.45-7.756.481-5.074-.008-10.151.004-15.225.004-1.015.019-1.967-.369-2.916-.66 1.497-1.634 3.281-3.078 4.304-5.088 1.991-3.52 2.57-7.564 3.647-11.407 1.672-6.357 3.312-12.723 4.953-19.088 1.314-4.863 2.71-9.715 3.674-14.663.91-3.303-2.045-5.996-4.487-7.72zm21.577 3.047c-1.186.912-1.668 2.399-2.049 3.784-1.528 5.787-3.056 11.574-4.654 17.341-.28 1.063-.443 2.154-.583 3.249.459.334.918.675 1.38 1.017 4.389.159 8.713-2.247 10.905-6.035 2.788-4.58 3.853-10.099 3.312-15.405-.198-2.197-2.068-3.858-3.977-4.704-1.454-.14-3.137-.237-4.335.753zm23.342-3.016c10.765-.128 21.531-.012 32.296-.062 3.53-.031 7.138 1.351 9.478 4.04 1.889 2.053 2.756 4.848 2.931 7.584.404 3.594-1.419 6.963-3.394 9.823-3.837 5.368-10.093 8.492-16.438 9.804-3.759.815-7.601 0-11.391.388-1.781 4.564-2.935 9.33-4.152 14.062-.727 2.798-1.201 5.892-.016 8.64.622 1.525 2.169 2.309 3.483 3.155l-.016 1.153c-8.23.004-16.465.004-24.695 0l-.086-1.079c3.728-2.348 5.548-6.621 6.481-10.751 3.188-12.525 6.497-25.022 9.751-37.531.393-1.51.618-3.159-.012-4.638-.735-2.038-2.605-3.291-4.222-4.588zm21.95 2.93c-1.435.873-2.026 2.565-2.461 4.099-1.512 5.678-2.994 11.364-4.568 17.027-.276 1.273-.984 2.694-.307 3.951 1.477.722 3.211.45 4.778.21 2.881-.935 5.447-2.829 7.041-5.422 2.756-4.359 3.744-9.656 3.515-14.756-.121-2.146-1.322-4.401-3.429-5.162-1.466-.477-3.118-.454-4.568.054zm21.543-2.813c14.408-.264 28.82-.023 43.228-.124-.533 4.188-1.851 8.213-2.745 12.327-.257 1.331-.778 2.604-1.61 3.679-.311-3.866.054-8.554-3.231-11.318-3.767-2.88-8.771-1.719-13.152-1.929-1.26 1.591-2.053 3.489-2.535 5.449-.859 3.606-1.889 7.165-2.807 10.755-.432 1.665-.54 3.392-.412 5.108 2.974.272 6.077-.33 8.553-2.057 2.799-1.785 4.42-4.809 6.947-6.901-.132 1.607-.424 3.198-.848 4.754-1.808 6.85-3.452 13.747-5.237 20.609l-.863.376c-.307-3.637-.603-7.696-3.262-10.479-1.477-1.712-4.008-2.822-6.197-1.855-1.318.551-1.652 2.084-2.061 3.303-1.781 6.846-3.682 13.666-5.427 20.52-.568 1.692.622 3.792 2.519 3.71 4.906.05 10.244.26 14.568-2.449 5.058-3.303 7.636-9.028 11.866-13.169-.33 4.126-1.944 7.972-3.009 11.931-.494 1.556-.785 3.198-1.567 4.646-.299.423-.572 1.087-1.197 1.001-13.732.221-27.467-.004-41.203.109-1.155.05-2.302-.124-3.41-.439 4.218-1.844 7.138-5.837 8.308-10.204 3.188-12.358 6.29-24.739 9.506-37.089.443-1.968.758-4.075.194-6.047-.999-2.026-3.386-2.686-4.918-4.219z" fill="#0446AC" sketch:type="MSShapeGroup"/><path d="M216.448 258.213c1.197-.99 2.881-.893 4.335-.753 1.909.846 3.779 2.507 3.977 4.704.54 5.306-.525 10.825-3.312 15.405-2.193 3.788-6.516 6.194-10.905 6.035l-1.38-1.017c.14-1.095.303-2.185.583-3.249 1.598-5.767 3.126-11.554 4.654-17.341.381-1.386.863-2.872 2.049-3.784zm45.293-.085c1.45-.508 3.102-.532 4.568-.054 2.107.761 3.309 3.016 3.429 5.162.229 5.1-.758 10.398-3.515 14.756-1.594 2.593-4.16 4.487-7.041 5.422-1.567.241-3.301.512-4.778-.21-.676-1.258.031-2.678.307-3.951 1.575-5.663 3.056-11.349 4.568-17.027.435-1.533 1.026-3.225 2.461-4.099zm91.048.015c2.916-.92 6.158 1.102 7.087 3.908 1.784 4.793.801 10.394-2.2 14.485-2.445 3.396-6.462 5.608-10.618 5.977-.513-.474-1.065-.908-1.489-1.459-.362-1.16.082-2.364.342-3.497 1.493-5.469 2.753-10.999 4.183-16.48.323-1.362 1.326-2.55 2.694-2.934zm-134.382 73.794c13.063.217 26.13-.023 39.197.132-5.688 7.021-11.438 13.992-17.215 20.939-8.273-5.954-15.547-13.196-21.982-21.071zm45.779.679c.529-.827 1.582-.671 2.43-.718 32.93.054 65.863-.027 98.797.043-4.374 12.028-10.528 23.726-19.824 32.707-3.69 3.687-8.063 6.586-12.628 9.082-2.099 1.06-4.004 2.783-6.469 2.86-28.47 2.957-58.123-4.048-81.683-20.427 6.555-7.77 12.927-15.692 19.377-23.547zm107.031-.687c12.701-.016 25.407-.043 38.108.012-7.181 8.127-15.151 15.587-23.929 21.975-8.425 6.171-17.662 11.209-27.39 15.013-4.716 1.882-9.572 3.423-14.533 4.522 9.113-6.544 15.851-15.863 20.986-25.717 2.64-5.092 4.833-10.406 6.757-15.804z" fill="#FEFFFE" sketch:type="MSShapeGroup"/></g></svg>