<svg width="512" height="512" viewBox="0 0 512 512" version="1.1" xmlns="http://www.w3.org/2000/svg" xmlns:sketch="http://www.bohemiancoding.com/sketch/ns"><title>tennessee-titans</title><desc>Created with Sketch.</desc><g sketch:type="MSLayerGroup" stroke="none" stroke-width="1" fill="none"><path d="M185.953 278.378c.39 4.646 2.043 13.912 7.408 24.24 6.605 12.768 20.472 29.777 49.048 39.406 4.537 7.134 9.876 13.784 15.917 19.801 21.728 21.671 50.591 33.574 81.276 33.536 30.674-.046 59.502-12.039 81.175-33.766 21.646-21.735 33.567-50.599 33.522-81.297-.051-30.689-12.042-59.517-33.771-81.184-17.212-17.162-38.802-28.213-62.56-32.046-32.154-29.128-69.712-18.689-71.309-18.218l-2.365.68c-11.549 3.848-17.516-.558-21.388-3.591-4.295-3.359-8.969-6.776-13.486-9.324-15.343-8.628-37.147-8.938-55.511-1.54-12.095 4.138-18.185-1.197-21.804-3.689-23.949-16.532-53.406-20.477-84.658-13.593-21.04 4.628-29.447 8.921-29.447 8.921s14.41 2.086 29.466 8.375c12.365 5.176 22.203 11.808 29.643 23.708 0 0 4.679 6.892 1.636 8.921-3.397 2.272-6.963-3.291-6.963-3.291-.113 3.992-.103 7.985.152 11 1.739 31.768 8.215 50.858 23.54 65.433 6.964 6.642 18.722 13.087 36.902 20.233 8.293 3.321 12.768 7.563 13.576 17.283" fill="#fff" sketch:type="MSShapeGroup"/><path d="M415.362 204.305c-16.668-16.619-37.823-27.105-60.731-30.327-29.837-28.563-65.946-18.086-65.946-18.086 7.654 1.133 12.734 5.694 10.778 10.739-1.306 3.347-6.862 3.523-9.391 3.548-8.072.086-15.025-4.856-20.582-9.377-5.782-4.704-15.216-13.04-23.663-17.794-15.723-8.858-40.708-7.748-58.768 3.796 10.805.737 23.804 3.842 31.558 10.265 4.335 3.59 9.857 10.801 5.343 14.184-3.977 2.952-13.723 1.416-18.672-1.451-7.891-4.564-14.983-11.473-19.246-16.489-28.602-33.706-69.136-35.582-102.568-27.334 21.942 6.161 36.581 18.664 45.621 40.204 9.047 21.549 16.077 30.717 30.973 36.562 9.327 3.655 11.848 4.328 11.122 8.463-1.079 6.058-12.125 3.143-20.552-.143-10.267-4.005-23.798-15.086-31.858-35.847 1.464 26.875 6.589 45.931 21.732 60.345 6.431 6.114 18.253 12.451 36.744 19.571 11.813 4.535 21.15 7.28 29.944 15.168 10.257 9.188 5.881 15.26-.914 14.109-7.7-1.297-13.193-9.163-13.193-9.163s.011 43.78 54.123 60.632c4.501 7.469 9.952 14.442 16.281 20.766 20.349 20.276 47.369 31.44 76.088 31.384 28.732-.04 55.716-11.271 75.99-31.61 20.294-20.344 31.437-47.365 31.391-76.101-.05-28.738-11.261-55.728-31.603-76.012" fill="#002D65" sketch:type="MSShapeGroup"/><path d="M409.638 209.754c-16.145-16.138-36.846-26.034-59.219-28.486-19.235-19.177-38.431-18.284-38.431-18.284 8.42 5.287 4.088 17.051-14.657 19.645-18.564 2.556-42.138-3.727-53.612-17.102-11.832-13.787-20.761-14.42-20.761-14.42 10.253 6.419 10.991 14.117 17.219 25.838 6.229 11.726 19.049 15.939 30.226 16.676 11.772.767 12.047 6.097 2.567 11.729-10.352 6.136-19.515.33-26.171-6.224-10.515-10.37-20.988-12.37-35.464-12.182-14.464.188-33.602 2.086-49.739-3.953-16.145-6.046-26.809-27.303-26.809-27.303 8.003 28.221 25.736 41.596 42.202 44.825 21.759 4.274 36.789 9.447 45.999 16.9 8.981 7.289 13.759 14.564 17.148 24.588 2.602 7.728 3.073 18.002.495 18.621-2.993.716-3.618-3.424-7.152-10.628-3.902-7.963-8.573-14.2-17.961-19.228-12.749-6.797-25.213-6.401-37.929-6.228-10.073.147-15.978-1.009-15.978-1.009s.423 1.354 16.834 5.038c18.29 4.112 35.964 14.419 47.745 39.545 10.007 21.371 4.776 36.418-17.411 29.617 0 0 10.372 23.037 44.213 31.244 4.365 7.68 9.799 14.812 16.217 21.235 18.763 18.755 43.692 29.095 70.212 29.095 26.525 0 51.462-10.338 70.217-29.095 18.756-18.757 29.079-43.695 29.079-70.227.002-26.532-10.32-51.468-29.078-70.226" fill="#648FCC" sketch:type="MSShapeGroup"/><path d="M339.42 185.522c25.23 0 48.949 9.825 66.783 27.666 17.838 17.838 27.66 41.563 27.66 66.796 0 52.092-42.375 94.467-94.444 94.467-25.213 0-48.939-9.836-66.781-27.676-17.833-17.84-27.66-41.558-27.66-66.79 0-25.233 9.828-48.958 27.66-66.796 17.844-17.841 41.568-27.666 66.781-27.666" fill="#fff" sketch:type="MSShapeGroup"/><path d="M339.552 366.301c-47.659.07-86.358-38.522-86.421-86.184-.069-47.678 38.501-86.374 86.17-86.446 47.651-.07 86.344 38.523 86.414 86.181.07 47.677-38.514 86.376-86.164 86.45" fill="#002D65" sketch:type="MSShapeGroup"/><path d="M318.311 262.523h-25.557l-8.43 15.028-11.335-32.146h132.631l-11.32 32.146-8.358-15.028h-25.141l-21.293 93.17-21.198-93.17" fill="#fff" sketch:type="MSShapeGroup"/><path d="M405.62 245.404h-132.631l2.147 6.085h63.238l-20.062 11.034 21.198 93.162v-104.196h63.965l2.147-6.085" fill="#C5C9D1" sketch:type="MSShapeGroup"/><path d="M274.305 170.857c-19.235-.555-27.073-8.174-39.01-17.774-14.629-11.743-30.84-8.48-30.84-8.48 9.709-5.552 28.802-5.784 42.56 6.281 12.284 10.776 18.321 16.62 27.289 19.973zm-164.167-42.375s17.997-.431 33.732 27.798c13.215 23.724 38.432 28.472 56.893 23.249 0 0-24.306-.628-37.62-24.211-13.586-24.105-31.564-30.795-53.005-26.837zm101.886 136.683s-2.553-26.237-39.94-33.841c-37.622-7.662-42.475-27.248-42.475-27.248s.25 28.257 32.638 36.935c22.617 6.056 39.201 9.541 49.777 24.155zm140.361-28.06l-5.082-15.127 12.854-9.454-15.956.156-5.012-15.16-4.787 15.237-15.957.087 13.013 9.256-4.855 15.206 12.816-9.511 12.965 9.31zm-56.946 53.503l-10.561 11.969-14.611-6.42 8.118 13.736-10.616 11.931 15.578-3.473 8.06 13.78 1.502-15.886 15.599-3.409-14.639-6.351 1.57-15.877zm74.786 22.58l15.649 3.148 1.755 15.872 7.84-13.905 15.636 3.236-10.797-11.751 7.904-13.872-14.517 6.635-10.737-11.807 1.814 15.855-14.548 6.589z" fill="#C0001D" sketch:type="MSShapeGroup"/></g></svg>