<svg width="512" height="512" viewBox="0 0 512 512" xmlns="http://www.w3.org/2000/svg" xmlns:sketch="http://www.bohemiancoding.com/sketch/ns"><title>utah-jazz</title><desc>Created with Sketch.</desc><g sketch:type="MSLayerGroup" fill="none"><path d="M106.612 256.313c0 13.058 1.642 26.038 4.572 38.701-5.26-1.207-13.439-3.094-13.439-3.094l-79.849 18.057 7.476 7.786c5.483 5.701 8.89 14.152 9.23 16.061-.036-.437-2.072 11.479-2.072 11.479-3.003 13.077-7.132 30.978 6.915 45.035 22.774 21.697 59.532 25.016 84.133 17.146 3.159-1.001 18.438-7.769 44.804-19.809 31.203 26.139 70.486 40.772 111.425 40.772 86.752 0 159.383-63.561 171.188-148.399 4.877-1.291 19.373-5.1 19.373-5.1l1.281-2.332 23.224-43.056s-26.741-4.452-30.478-5.068c7.054-11.092 25.718-40.434 25.718-40.434l-29.849-10.764s-21.045 2.824-27.048 3.621c-29.99-57.214-88.228-92.72-153.411-92.72-95.496 0-173.196 77.212-173.196 172.117" fill="#B6B7B6" sketch:type="MSShapeGroup"/><path d="M485.457 234.172l-24.33-4.046-5.668 2.883-1.775-3.014 27.212-42.789-21.289-7.67-29.586 3.954c-27.159-55.189-84.209-93.204-150.212-93.204-92.287 0-167.104 74.337-167.104 166.027 0 13.874 1.727 27.355 4.946 40.238l-2.149 5.71-17.769-4.09-67.963 15.369c7.02 7.308 11.007 18.091 10.888 19.847 0 13.43-13.15 36.385 3.104 52.644 20.314 19.355 54.453 23.17 77.961 15.647 4.368-1.392 35.754-15.718 47.355-21.02 29.481 25.943 68.247 41.7 110.731 41.7 85.9 0 156.639-64.404 166.033-147.253 7.281-1.947 14.133-3.739 20.446-5.378l19.169-35.555z" fill="#002344" sketch:type="MSShapeGroup"/><path d="M305.889 139.261c-4.107-.953-8.295-1.691-12.547-2.208l6.572 9.676 5.975-7.468zm32.116 16.196l11.483 14.478 5.561-6.494c-11.929-9.802-25.782-17.348-40.894-21.992l17.077 22.055 6.774-8.046zm41.344 38.238l.883-1.804c-5.546-8.7-12.177-16.648-19.693-23.643l8.395 11.668s4.555 5.357 10.414 13.779zm-145.671-48.764l8.269 10.526 12.128-16.753c-7.045 1.474-13.863 3.579-20.398 6.227zm-50.287 38.318l5.18-.709 17.087-19.514 4.564 5.527 15.245-19.943c-16.543 8.215-30.921 20.12-42.076 34.64zm187.437 83.13l-20.637 6.236 6.023-14.492 8.736-6.459-3.102-6.103 21.184-42.223-74.716 11.46-16.379 29.824 19.794-6.785 19.99-3.258-8.749 14.669-7.71 5.028.816 8.404-26.595 51.119c-1.76-1.84-4.456-4.927-4.456-6.896l2.541-36.179 5.998-8.337-5.577-7.338-.12-20.629 8.959-17.863-72.44 11.348 2.362 13.087-12.705 24.911-9.058 9.041 1.453 7.859-32.227 74.623 48.644-19.38 7.54-20.063 18.454-6.105-2.892 19.317 43.445-15.359 82.823-26 18.234-31.769-19.632 8.311m-120.163 22.349l-10.276 3.365 11.716-25.355-1.441 21.99m-66.728 2.444l8.265-9.405-1.975-8.639 21.287-61.603 16.589-18.078-69.584 8.248 11.603 13.657-26.162 63.395-9.283 9.908 3.725 7.554-23.668 69.107c-4.511 1.573-11.958 3.441-13.779 1.994-2.072-1.634-3.445-2.705-.147-12.423 0 0 8.398-23.99 8.381-23.99.315-.734 13.748-20.427 13.748-20.427l-62.367 15.338s5.476 7.619 5.272 10.898l-6.564 22.867c-3.287 14.612 3.102 22.736 9.792 28.766 7.222 6.488 28.307 15.836 56.482 4.669 4.559-1.794 37.372-17.09 37.372-17.09s-3.108-5.058-4.231-10.555l25.245-74.19m274.739-46.228c-3.788.869-16.539 3.6-21.249 4.583l5.773-9.424 7.258-5.186-2.755-5.693 24.932-40.211-73.58 11.882-16.717 27.75 18.677-6.28 15.838-2.503-7.415 11.786-11.007 6.175 2.118 9.087-23.628 41.515 85.98-24.238 15.056-26.86s-18.816 7.483-19.279 7.617" fill="#ED992D" sketch:type="MSShapeGroup"/><path d="M169.17 205.714l47.866-6.204-10.03 9.64-22.635 64.287 1.645 6.726-6.227 7.296-26.663 77.147s.803 7.287 2.109 8.7c-6.967 3.127-23.849 11.558-31.676 14.669-26.164 10.377-45.044 1.571-50.867-3.664-7.178-6.467-10.547-12.856-8.143-23.578 1.058-4.763 1.468-5.638 2.789-10.215 1.272-4.337 2.467-8.463 3.649-12.179 1.091-3.329-.812-7.199-1.935-9.041l42.705-10.496c-1.22 2.074-6.545 7.11-7.668 10.265l-8.398 24.053c-3.758 11.01-2.738 14.797 1.914 18.463 6.81 5.357 21.512-2.318 21.512-2.318l25.085-73.313-2.871-6.553 7.138-7.363 27.588-68.493-6.888-7.83zm140.587 26.575l32.339-5.033-14.307 25.334-6.766 4.255.778 5.889-22.465 43.462 69.635-21.592 8.974-15.26-7.603 3.508-29.794 8.311 10.953-25.803 6.639-4.953-2.766-4.702 17.39-35.203s-53.012 7.329-60.432 8.686l-8.963 15.418 6.387-2.315zm-27.301 1.388l5.462-10.606-57.052 8.915 1.516 9.88-15.05 28.32-6.738 5.977 1.321 6.797-27.603 64.619 34.291-13.662 7.626-20.29 29.149-9.603-2.458 18.2 28.612-9.266s-1.958-2.345-1.741-4.566l2.263-40.173 4.62-5.634-4.09-4.93-.126-23.979zm-27.165 59.225l-24.248 7.725 27.029-57.347-2.78 49.622zm204.626-42.678c-8.846 2.002-33.96 7.268-33.96 7.268l12.387-19.533 5.548-4.307-2.061-4.515 20.324-32.774-59.759 9.479-8.276 13.636c.444-.141 4.347-1.872 4.787-1.983 3.483-.78 30.156-5.058 30.156-5.058l-16.253 23.687-7.424 4.595 1.127 5.485-18.025 32.309s57.395-16.303 70.869-19.071l7.483-12.109s-5.27 2.515-6.923 2.892" fill="#fff" sketch:type="MSShapeGroup"/><path d="M204.744 180.926l34.312 10.932-19.26 18.894 12.864-1.914c10.465-10.179 21.594-21.134 21.594-21.134l5.68 6.168 10.799-6.671 9.024-20.9s13.19 17.416 22.881 33.645l4.833-.631-11.712-18.949 3.947-28.423 9.481-11.842c.124 3.129-.08 8.339.301 10.951l-2.45 3.552c3.361 4.835 6.728 8.753 10.112 13.71l-12.499 13.464 5.049 8.911 10.309-8.911 16.835 13.805 29.79-3.807 11.649 4.046 1.064-2.128c-5.859-8.421-10.414-13.779-10.414-13.779l-12.795-17.742-6.652 7.762-11.483-14.478-6.774 8.044-22.013-28.41-9.304 11.638-25.016-36.81-32.951 45.538-10.993-14.009-20.732 27.102-4.562-5.527-17.09 19.514 4.507-.61 12.503-14.133-.837 13.129z" fill="#fff" sketch:type="MSShapeGroup"/><path d="M355.883 167.212l.217 8.299 4.118 5.952c-.961.717-1.575 2.702-2.951 3.037-4.143-5.195-6.212-7.893-7.731-9.87l6.347-7.418zm-21.72 3.996c-.862-1.087-1.739-2.198-2.593-3.291l6.366-7.55c2.936 13.376 4 20.669 6.576 34.164l-13.95-11.281 3.6-12.042zm-34.454-19.264l9.481-11.842c.124 3.127-.08 8.337.301 10.951l-2.45 3.552c3.359 4.835 6.728 8.753 10.109 13.71l-12.496 13.464 5.047 8.909 10.311-8.909 16.835 13.805-29.376 3.733-11.71-18.949 3.947-28.423zm-24.906-36.629c-2.393 13.394-3.632 31.306-6.04 43.937l4.757 6.599-16.677 12.675-14.637-18.137 32.598-45.075zm-20.549 72.39l5.68 6.168 10.799-6.671 9.024-20.9s13.19 17.416 22.881 33.645l-14.938 1.903-1.922 4.255-11.224-3.476-41.895 6.21c10.465-10.179 21.594-21.134 21.594-21.134m-23.261-41.207c-.345 3.985.055 10.213.221 14.955.999 2.273 3.361 3.569 3.865 5.699l-13.453 18.949-11.3-12.604 20.667-26.999zm-25.411 21.298l-.837 13.129-1.283-.41-10.383 1.413 12.503-14.133zm2.55 183.729l18.829-7.685 6.185-14.301s11.956 8.843 12.04 8.799c41.906-15.765 91.894-31.483 91.894-31.483s.28 8.829-.553 14.484c-15.42-.048-30.789 9.199-46.688 18.749-21.54 12.944-43.801 26.309-69.673 20.072-4.276-2.568-12.034-8.635-12.034-8.635m95.924 22.105c-16.461 3.695-33.977 3.743-51.498-.496-7.113-1.733-13.708-3.926-19.878-6.578 22.175.219 41.904-11.617 59.658-22.309 15.327-9.205 29.441-17.695 43.302-17.914-1.853 8.814-9.228 35.666-31.584 47.298m13.934-4.061c10.871-10.124 18.944-25.205 22.509-42.747l.048-.202c7.64 1.022 15.245 4.85 22.966 12.761-12.665 13.592-28.295 23.952-45.523 30.187m48.775-33.81c-8.543-8.717-16.976-12.909-25.374-14.078.852-6.011.978-11.598.414-16.324 8.559-2.686 45.651-13.887 49.336-14.959l.063-.013c-5.001 17.258-13.47 32.589-24.44 45.374" fill="#013D1F" sketch:type="MSShapeGroup"/><path d="M317.989 369.57c10.871-10.124 18.944-25.205 22.509-42.747l.048-.202c7.64 1.022 15.245 4.85 22.966 12.761-12.665 13.592-28.295 23.952-45.523 30.187m-13.933 4.061c-16.463 3.695-33.977 3.741-51.498-.498-7.113-1.731-13.708-3.924-19.88-6.578 22.177.221 41.904-11.617 59.658-22.307 15.327-9.205 29.443-17.695 43.304-17.916-1.853 8.814-9.23 35.668-31.584 47.3m87.147-83.246c-5.001 17.258-13.468 32.606-24.44 45.374-8.543-8.717-16.974-12.909-25.374-14.078.854-6.011.98-11.601.416-16.324-1.567.494-3.14 1.005-4.728 1.499 0 .013.28 8.833-.555 14.484-15.418-.048-30.787 9.199-46.688 18.747-21.538 12.946-43.799 26.312-69.673 20.074-4.202-2.538-11.756-8.423-12.006-8.616-2.923 1.19-5.005 2.032-5.033 2.004 13.826 11.312 30.198 19.756 48.482 24.183 64.457 15.601 128.708-24.118 146.222-89.273-2.185.623-4.41 1.27-6.625 1.926m-203.515-152.908c-1.426-2.261-2.869-4.372-4.322-6.33.833-.351 1.605-.711 2.311-1.081.707-.366 1.441-.784 2.2-1.251.738-.45 1.445-.911 2.118-1.388.675-.475 1.331-.991 1.975-1.544.25.614.585 1.331 1.014 2.164.431.829.89 1.691 1.392 2.593.503.894 1.012 1.792 1.531 2.694.517.9 1.003 1.72 1.451 2.458l1.417 2.313c.776 1.264 1.521 2.425 2.24 3.47.719 1.049 1.489 1.878 2.303 2.484.816.61 1.727.93 2.734.944 1.007.015 2.166-.376 3.478-1.18.831-.505 1.529-1.19 2.09-2.059.562-.864.808-1.796.736-2.799-.059-.818-.244-1.56-.555-2.225-.313-.662-.692-1.394-1.15-2.191-.227-.427-.475-.852-.723-1.268l-.761-1.241-1.521-2.488c-.89-1.451-1.844-2.957-2.873-4.511-1.028-1.554-2.177-3.182-3.436-4.879l1.476-.614c.477-.198.948-.44 1.411-.721.44-.267.833-.547 1.192-.845.355-.294.702-.612 1.037-.942.576 1.102 1.218 2.294 1.92 3.571.702 1.279 1.39 2.519 2.061 3.725.675 1.203 1.304 2.313 1.893 3.329s1.073 1.821 1.434 2.421c.631 1.037 1.18 1.987 1.642 2.841.461.86.827 1.691 1.094 2.49.265.803.44 1.6.511 2.393.076.793.042 1.645-.101 2.553-.318 1.804-1.077 3.43-2.267 4.871-1.192 1.445-2.698 2.717-4.519 3.832-3.731 2.282-7.028 3.148-9.889 2.606-2.866-.545-5.447-2.696-7.741-6.452-1.775-2.9-3.373-5.481-4.803-7.741m52.266-29.066c-1.197.341-2.385.715-3.567 1.121-.002-.747-.093-1.514-.273-2.303-.078-.345-.183-.686-.32-1.031l-.429-1.169c2.021-.244 4.017-.572 5.985-.988 1.968-.416 3.939-.848 5.914-1.295 1.895-.431 3.828-.883 5.794-1.365 1.971-.475 3.971-1.049 6.006-1.731.019.33.048.698.084 1.104.036.408.109.86.223 1.361.09.395.204.772.343 1.127.132.358.259.66.37.913-1.241.143-2.473.32-3.699.528-1.228.21-2.471.456-3.737.742.143.881.339 1.884.58 3.005.24 1.125.488 2.25.744 3.382l.484 2.133c.349 1.529.681 2.961.997 4.303l.927 3.899c.301 1.26.614 2.492.942 3.691.33 1.199.679 2.433 1.049 3.708-1.399.177-2.494.332-3.283.454-.787.124-1.365.227-1.735.309-1.106.252-2.023.509-2.753.772l-1.75.627c-.088-.757-.21-1.603-.366-2.532-.156-.938-.332-1.922-.526-2.957-.191-1.035-.402-2.08-.627-3.136-.229-1.06-.45-2.074-.673-3.049l-.795-3.514-.387-1.697c-.227-1.001-.501-2.151-.824-3.447-.322-1.3-.658-2.599-1.009-3.905-1.264.288-2.496.601-3.691.942m59.514 11.504c.284.088.57.162.864.221l.871.185 1.743.362 1.743.368.871.181c.294.061.585.109.881.143l-1.476-9.95-5.497 8.49zm-4.869 8.623c-.427-.198-.85-.379-1.272-.534-.425-.158-.871-.288-1.348-.385-.448-.097-.9-.154-1.35-.181-.45-.025-.871-.023-1.26.004l3.441-4.782c.536-.715 1.138-1.546 1.807-2.496.665-.951 1.367-1.968 2.107-3.056l2.303-3.407 2.402-3.556c.444-.675.953-1.46 1.527-2.345.57-.89 1.125-1.767 1.668-2.631.536-.869 1.033-1.647 1.481-2.341.448-.692.77-1.18.97-1.47.429.2.873.383 1.333.545.461.168.919.297 1.365.391.477.099.961.166 1.449.2.492.034.97.044 1.443.032.09 1.012.229 2.208.408 3.584.181 1.375.383 2.824.601 4.345.217 1.521.452 3.047.7 4.574.246 1.527.477 2.946.7 4.261.261 1.521.496 2.862.705 4.04.21 1.176.412 2.286.606 3.333.193 1.049.408 2.105.639 3.174.233 1.068.503 2.259.808 3.563-.734-.318-1.571-.597-2.513-.837-.944-.24-1.813-.442-2.606-.604-.845-.179-1.706-.324-2.578-.44-.873-.114-1.741-.204-2.608-.276-.057-1.06-.124-2.082-.208-3.066-.086-.982-.202-1.971-.351-2.967-.873-.183-1.743-.37-2.614-.568-.869-.196-1.739-.385-2.612-.566-.686-.145-1.38-.284-2.082-.416-.707-.132-1.401-.273-2.086-.414-.564.848-1.079 1.716-1.542 2.616-.465.894-.938 1.788-1.43 2.677zm46.409-2.469c.41-.744.848-1.525 1.319-2.347.482-.843.927-1.634 1.329-2.366l.848-1.523c.456-.797.936-1.689 1.439-2.675.501-.986 1.024-2.093 1.565-3.306.593.433 1.262.909 2.004 1.428.747.522 1.46.976 2.139 1.363.654.376 1.407.766 2.248 1.169.839.404 1.594.734 2.254.986-.538.782-1.085 1.603-1.64 2.465-.555.866-1.104 1.729-1.645 2.587-.538.858-1.043 1.687-1.518 2.49-.477.801-.904 1.544-1.293 2.223.526.33 1.113.69 1.762 1.077.648.387 1.327.782 2.029 1.184.61.353 1.26.709 1.958 1.07.686.368 1.363.738 2.021 1.113.402-.705.835-1.474 1.295-2.313.463-.839.927-1.701 1.394-2.589.461-.883.917-1.783 1.371-2.688.458-.906.875-1.779 1.26-2.614.597.431 1.266.913 2.029 1.436.753.528 1.46.978 2.116 1.354.656.374 1.407.766 2.246 1.169.843.402 1.598.732 2.259.986-.984 1.396-1.958 2.864-2.915 4.402-.957 1.535-2.032 3.346-3.222 5.434-.9 1.567-1.708 3.009-2.427 4.326-.726 1.31-1.407 2.57-2.046 3.775l-1.886 3.539c-.616 1.157-1.26 2.381-1.939 3.676-1.38-1.07-2.856-2.055-4.425-2.953-.677-.389-1.371-.742-2.067-1.068-.705-.322-1.424-.635-2.156-.93.538-.719 1.146-1.607 1.828-2.662.679-1.056 1.352-2.135 2.017-3.235.656-1.1 1.279-2.143 1.863-3.131.576-.991 1.043-1.792 1.392-2.402-.633-.362-1.272-.74-1.912-1.138-.646-.402-1.293-.789-1.95-1.163-.61-.349-1.258-.711-1.941-1.087-.692-.379-1.344-.728-1.966-1.056-.364.633-.82 1.451-1.382 2.452-.557 1.003-1.144 2.067-1.754 3.195-.616 1.125-1.209 2.242-1.775 3.35-.572 1.104-1.041 2.061-1.417 2.877-.658-.534-1.338-1.033-2.038-1.493-.696-.463-1.424-.909-2.175-1.34-.89-.507-1.68-.921-2.368-1.239-.692-.315-1.365-.601-2.029-.856l1.146-1.678c.339-.488.753-1.115 1.241-1.878.48-.768.988-1.598 1.516-2.494l1.615-2.738c.545-.93 1.047-1.796 1.506-2.593.175-.303.465-.829.877-1.573" fill="#fff" sketch:type="MSShapeGroup"/></g></svg>