<svg width="512" height="512" viewBox="0 0 512 512" xmlns="http://www.w3.org/2000/svg"><title>baltimore-orioles</title><g fill="none" fill-rule="evenodd"><path d="M284.03 95.52c3.67-.572 7.523-1.1 11.152.026 3.546 1.214 6.41 3.746 8.99 6.36 6.487 1.55 13.962.265 19.622 4.423-5.962 2.57-12.284 4.42-17.79 7.93-.575 6.12-5.7 10.245-9.038 14.97-1.526 1.78-1.22 4.245-1.438 6.426.077 4.58.725 9.188.137 13.77-.417 4.042-1.795 7.892-3.045 11.736-2.295 6.855-6.077 13.293-11.488 18.143-8.947 7.973-20.72 11.792-32.294 13.988-5.56 1.11-11.207 1.615-16.833 2.24-2.92.23-5.878 1.847-7.322 4.434-.478 1.72 1.28 2.486 2.464 3.217 6.697 3.806 13.886 6.954 19.753 12.05 1.23 1.237 2.892 2.494 2.96 4.39.037 1.297.504 2.554.46 3.85-1.295 2.802-3.437 5.328-6.345 6.503-1.065 2.087-2.114 4.186-3.057 6.334l1.487.77c-5.143 12.963-9.693 26.145-14.204 39.33-2.734 8.268-5.51 16.524-7.85 24.91-.434 1.68-1.042 3.495-.43 5.214 1.79 1.642 4.518.17 6.208-.994 2.958-2.376 5.735-5.14 7.722-8.4-1.1-10.565.465-21.47 4.845-31.183 1.417-3.02 2.376-6.24 3.914-9.205.85-1.756 1.99-3.432 2.22-5.42.51-3.9 2.15-7.497 3.888-10.98 4.934-12.237 21.026-18.774 32.897-12.665 5.303 2.37 9.046 7.222 11.104 12.55 1.756 3.987 2.76 8.267 3.31 12.577 1.293-.96 3.22-1.637 3.444-3.46 2.13-8.454 4.683-16.83 8.25-24.8 4.74-12.044 10.636-23.776 18.744-33.932 4.46-5.444 9.795-10.8 16.75-12.765 3.423-.445 7.42-.802 10.25 1.593 3.848 3.196 5.456 8.448 5.126 13.33-.4 10.32-4.1 20.13-8.112 29.53-4.402 10.25-10.807 19.596-18.572 27.583-3.505 3.834-7.56 7.108-11.404 10.584-.845 3.717-1.218 7.617-.73 11.413.148 1.532 1.476 3.18 3.167 2.587 4.567-1.236 8.004-4.762 11.132-8.122 2.147-2.51 4.424-4.95 6.218-7.735.275-5.2 1.048-10.39 2.68-15.35 1.3-4.29 3.346-8.29 4.917-12.475 3.795-9.25 9.763-18.13 18.643-23.135 3.794-2.01 8.207-3.668 12.542-2.653 5.61 1.04 10.35 5.465 12.124 10.838 1.305 3.647.982 7.612.724 11.402-1.828 8.783-5.33 17.38-11.263 24.212-2.98 3.66-6.83 6.423-10.49 9.34 4.694.285 8.43-3.07 11.144-6.51 4.26-5.387 7.272-11.6 10.438-17.658 2.867-5.712 5.76-11.408 8.406-17.23 2.753-6.113 5.35-12.358 9.054-17.977 1.054-1.428 2.097-3.27 4.045-3.504 6.46-1.412 12.793-3.422 19.307-4.576-.943 4.19-2.93 8.706-.976 12.924 4.25 8.744 9.606 17.21 11.39 26.91 5.67 2.146 11.075 5.96 13.666 11.605 2.3 4.908 1.78 10.594.505 15.713-1.905 9.886-9.06 17.856-17.108 23.45-4.468 3.14-9.446 5.44-14.5 7.462-22.596 9.283-45.314 18.28-67.95 27.47-44.056 17.915-88.052 35.976-131.91 54.376-9.31 3.85-18.524 7.92-27.595 12.31-18.047 8.623-36.773 17.434-50.533 32.405-4.604-3.27-9.418-6.333-14.747-8.27-11.048-4.133-22.947-5.066-34.616-5.824-1.674-.264-3.996.482-4.88-1.434-1.365-2.213-3.32-4.142-4.352-6.5.63-2.096 1.614-4.08 2.42-6.113.3-1.194 1.663-1.326 2.612-1.748 101.724-36.574 203.64-72.622 305.34-109.258 8.136-2.978 16.347-5.768 24.37-9.05 5.907-2.458 11.604-5.634 16.28-10.048 2.47-1.99-.302-5.026-1.95-6.58-3.12 8.08-10.146 14.626-18.676 16.52-5.62 1.622-12.034.434-16.486-3.438-2.618-2.154-3.875-5.394-4.863-8.537-4.263 7.837-9.494 15.34-16.42 21.053-5.126 4.224-11.626 7.125-18.37 6.784-6.62.064-13.13-2.88-17.34-8.005-5.662 8.128-12.814 15.253-21.12 20.67-4.91 3.064-10.488 5.854-16.443 5.388-5.73-.22-10.625-4.438-12.77-9.585-2.52-6.02-1.054-12.69-1.115-19-1.23 5.07-2.708 10.1-4.985 14.807-1.877 5.14-4.227 10.124-7.256 14.693-5.066 8.307-13.585 14.688-23.25 16.37-4.16.52-8.597.44-12.416-1.495-2.675-1.224-4.825-3.28-6.785-5.415-5.7 8.173-13.03 15.434-22.016 19.904-5.39 2.614-11.883 4.062-17.62 1.7-2.243-.866-3.824-2.746-5.256-4.597-4.145 5.13-9.068 9.607-14.43 13.435-3.358 2.417-7.33 4.224-11.53 4.28-2.74.054-5.676.24-8.15-1.17-3.826-1.862-6.3-5.73-7.235-9.793-1.53-6.054-.664-12.376.77-18.357 1.524-6.488 3.87-12.745 6.547-18.83 2.35-6.162 5.263-12.094 8.61-17.768a117.59 117.59 0 0 1-3.747-.44c-3.676 5.64-9.105 9.942-15.01 13.057-.504.316-1.29.563-1.268 1.3-1.648 10.43-4.726 20.613-9.01 30.26-4.98 12.89-11.78 25.47-22.06 34.912-6.983 6.396-16.11 10.916-25.72 10.84-10.197.317-20.224-4.917-26.174-13.14-6.11-8.47-9.128-18.795-10.21-29.087-1.508-14.96.308-30.305 5.67-44.376.983-2.774 2.3-5.417 3.343-8.163 3.896-9.987 9.45-19.334 16.547-27.37 1.268-2.616 2.01-5.493 3.398-8.08 2.355-7.52 7.01-14.435 13.66-18.78 8.074-5.564 18.81-6.415 27.937-3.14 7.678 2.498 13.623 8.71 17.086 15.867 5.742 11.65 6.87 24.927 6.87 37.736 1.516-.775 3.125-1.73 3.926-3.286 1.37-4.618 2.7-9.276 4.43-13.775.82-2.215 3.1-3.55 5.393-3.63 3.36-.227 6.542 1.12 9.862 1.316 4.86.57 10.082-.472 13.93-3.63 1.62-1.32 3.676-2.52 5.84-1.956 2.584.495 3.49 3.232 5.082 4.972 1.703 2.35 4.276 4.07 5.484 6.75 1.42 4.856-1.004 9.887-4.034 13.6-6.675 6.97-11.87 15.214-16.31 23.75-1.945 3.72-3.114 7.794-3.93 11.898-.545 2.93-.985 5.965-.276 8.904 2.788-.076 4.764-2.307 6.838-3.883 3.392-3.19 6.877-6.45 9.21-10.53 6.054-16.88 11.366-34.04 17.82-50.786 1.12-3.056 2.614-5.97 3.634-9.064-.702-2.433-1.728-4.882-1.252-7.492.18-3.817 2.85-6.8 3.716-10.408 1.427-4.276 4.534-7.995 8.53-10.09 1.054-.546 1.976-1.293 2.853-2.084-.39-.686-.685-1.5-1.454-1.84-5.362-3.076-10.933-5.784-16.164-9.085-1.542-.964-3.03-2.326-3.424-4.18-.44-1.854.065-3.74.554-5.53-8.75-1.015-17.466-2.29-26.16-3.684-7.306.505-14.66.538-21.987.34-2.256-.203-4.66-.357-6.544-1.763.616-2.675 2.702-4.61 4.655-6.378 3.75-3.07 8.245-5.19 12.927-6.383-3.49-1.77-7.28-2.803-10.865-4.356-1.477-.522-2.893-1.467-4.518-1.336-10.46.48-20.867 1.75-31.317 2.39-4.727.56-9.513.53-14.26.36-4.414-.326-8.954-1.375-12.455-4.225-1.843-.33-3.747-.462-5.493-1.215-2.114-.873-4.583-.84-6.444-2.285-2.165-1.79-5.26-2.02-7.18-4.152l.06-1c2.62-1.62 5.815-1.38 8.77-1.702.026-.74.054-1.482.093-2.218 1.06-.252 2.13-.46 3.142-.862 1.218-.757 2.222-1.856 3.578-2.4 1.758-.786 3.426-2.11 5.46-1.878 14.338 1.065 28.487 3.9 42.817 5.053 5.23.945 10.507-.302 15.583-1.51 4.664-1.24 9.4-2.296 13.897-4.08 3.953-1.54 7.45-3.995 11.25-5.84 4.92-2.544 10.06-4.626 15.216-6.63 10.214-4.58 20.548-9.02 31.317-12.155 3.63-1.098 7.683-1.495 10.696-4.03 3.58-3.028 7.6-5.516 10.95-8.828 4.54-4.432 8.604-9.502 14.142-12.765 4.73-2.947 10.28-4.09 15.69-5.068z" fill="#000"/><path d="M300.18 101.78c1.928.797 3.734 2.12 5.918 2.045 4.884.137 9.73.79 14.517 1.752-7.546 1.125-15.07 2.603-22.267 5.207 1.02-1.64 2.283-3.114 3.27-4.773-.004-1.523-.98-2.813-1.437-4.23zm-17.885 5.526c.818-1.796 2.43-3.668 4.615-3.378 2.63-.363 4.666 1.483 6.554 3l-1.927-.056c-1.284-1.735-3.315-3.163-5.576-2.504-3.26.505-3.662 5.438-1 6.982 1.746 1.07 3.7-.215 5.39-.808-1.362.99-2.992 2.22-4.78 1.642-1.88-.742-3.793-2.703-3.27-4.878z" fill="#FDFDFD"/><path d="M301.96 105.357c1.79-.96 3.886-.588 5.823-.506-1.613 1.44-3.853 1.647-5.856 2.147.006-.41.022-1.225.033-1.636z" fill="#000"/><path d="M287.646 106.147c.938-.63 2.092 1.396.988 1.813-.796-.055-1.28-1.13-.988-1.813zm11.84 6.174c6.117-1.48 12.117-3.46 18.225-5-5.34 1.868-10.642 4.06-15.27 7.37.07-.84.138-1.68.204-2.52-1.053.045-2.106.105-3.154.155z" fill="#FDFDFD"/><path d="M266.746 134.413c-1.778-1.43-1.11-4.016-.604-5.916.993 1.692 1.724 3.614 3.228 4.938 3.363 2.68 7.547 3.91 11.526 5.35-1.158.33-2.333.615-3.49.934 3.6 2.52 7.386 4.8 10.58 7.86-1.48-.05-2.963-.087-4.434.04a8.06 8.06 0 0 0 4.374 2.16c3.426-2.1 5.527-5.896 5.973-9.845 1.52 4.684.98 9.742-.35 14.4-1.676 5.608-3.55 11.282-7.016 16.072-5.626 8.49-14.26 14.834-23.95 17.88-8.58 2.712-17.516 4.084-26.422 5.182-5.248.59-10.857 1.015-15.395 3.987-1.73 1.055-2.24 3.07-2.65 4.91-1.423.067-3.108.935-4.343-.114-1.262-.94-2.146-2.406-2.305-3.982 0-1.78.735-3.443 1.25-5.12a100.197 100.197 0 0 1-10.966-1.937l-.39-.824c5.638-1.46 11.395-2.38 17.037-3.81 10.067-2.166 20.21-4.34 29.79-8.214 2.527-1.006 4.98-2.286 6.98-4.164 2.24-2.07 5.312-2.972 7.386-5.246 2.183-2.06 3.03-5.277 5.707-6.85 3.42-2.24 5.972-5.524 8.07-8.984-3.4 3.202-6.52 6.992-10.995 8.717-1.49.664-3.146.45-4.71.373 2.667-3.24 6.19-5.75 8.277-9.475-4.495 3.585-8.934 8.86-15.252 8.375-1.36-.84-2.98-.72-4.467-1.094 1.604.044 3.355.302 4.765-.665 3.41-1.978 6.285-4.747 8.97-7.608-3.533 2.477-6.915 5.45-11.15 6.64-1.488.473-3.01 0-4.39-.56 3.09-2.246 6.283-4.416 8.74-7.393-3.12 2.154-6.167 4.653-9.916 5.61-1.19.41-2.344-.3-3.47-.6 2.707-1.96 5.71-3.57 7.992-6.07-2.508 1.495-4.912 3.3-7.776 4.054-1.685.433-3.4-.094-5.044-.45.955-2.934 3.645-4.944 6.482-5.86 3.98-.128 7.52-2.254 11.46-2.704-.088.535-.17 1.07-.253 1.605 5.47-1.466 11.36-1.296 16.565 1.04-2.44-2.457-5.743-3.698-8.942-4.814-1.713-.702-3.59-.18-5.335-.67-1.553-.356-3.112-.97-4.73-.706-2.086.36-4.19-.09-6.28.055-.988.245-1.822.89-2.798 1.147-2.064.126-4.116-.248-6.147-.572 4.473-3.093 10.166-2.922 15.363-2.944l-.05-1.67a83.51 83.51 0 0 1 9.416 2.092 90.96 90.96 0 0 1-1.685-1.94c4.298.633 8.298 2.368 12.26 4.048-1.685-2.653-4.133-4.652-6.482-6.68zm-80.663 12.374c7.524-4.273 15.95-6.827 24.506-7.97.11 1.24.214 2.477.303 3.718 3.134.57 6.614.653 9.22 2.73-9.23 2.526-18.61 5.564-26.295 11.468-2.107 1.54-3.66 3.718-5.87 5.12-1.857 1.196-3.74 2.46-5.06 4.267-1.995 2.944-5.04 4.904-7.4 7.524-3.497-1.488-7.02-2.927-10.45-4.564a122.6 122.6 0 0 0 7.222-.95c-3.552-1.45-7.486-1.22-11.126-2.324 1.257-.192 2.525-.335 3.782-.55-3.79-1.696-8.09-1.405-11.995-2.74 1.21-.132 2.42-.22 3.634-.308l-.01-.818c-1.753-.093-3.51-.187-5.26-.253a81.655 81.655 0 0 0 3.03-.912c-1.46-.813-3.07-1.29-4.62-1.884 4.32-.66 8.736-.76 12.96-1.98 4.62-1.35 9.34-2.453 13.8-4.315 3.386-1.397 6.432-3.468 9.622-5.253z" fill="#DF4601"/><path d="M242.95 153.433c2.863-.752 5.267-2.56 7.775-4.053-2.283 2.5-5.285 4.108-7.99 6.07 1.124.3 2.277 1.01 3.468.598 3.748-.956 6.795-3.454 9.912-5.608-2.454 2.977-5.648 5.147-8.737 7.393 1.383.56 2.904 1.033 4.39.56 4.238-1.19 7.618-4.162 11.153-6.64-2.68 2.86-5.554 5.63-8.963 7.607-1.41.967-3.162.71-4.764.665-.94-.395-1.394-1.456-2.162-2.093-1-.313-2.05-.418-3.046-.73-.707-.518-1.146-1.303-1.65-1.994-1.89.264-3.458-.627-4.424-2.225 1.644.357 3.357.884 5.043.45zm10.706 7.685c6.317.483 10.757-4.79 15.253-8.376-2.09 3.724-5.61 6.234-8.28 9.474 1.56.077 3.22.292 4.71-.374 4.47-1.725 7.593-5.514 10.99-8.716-2.096 3.46-4.65 6.744-8.067 8.986-2.68 1.57-3.523 4.788-5.708 6.85-2.076 2.272-5.15 3.174-7.39 5.244-1.997 1.88-4.45 3.158-6.975 4.163-9.582 3.87-19.726 6.043-29.79 8.21 9.05-2.19 18.024-4.98 26.55-8.78 3.094-1.51 6.404-3.01 8.57-5.8.69-1.098 2.04-1.29 3.136-1.797 3.018-1.197 5.664-3.427 7.014-6.432-1.85-.42-3.5-2.162-5.476-1.317-1.634.698-3.577.204-4.538-1.34zm-43.04-3c2.338-2.823 6.064-3.53 9.385-4.542-2.174 1.005-4.32 2.12-6.19 3.636 1.837 1.153 4.083.764 6.14.807 2.326-.14 4.84.193 6.96-1.02.575-.468 1.305-.22 1.694.345-2.638-.023-5.037 1.29-7.65 1.537-3.463-.088-6.987.412-10.334-.768z" fill="#FDFDFD"/><path d="M95.17 157.24c4.293-.956 8.704.038 13.04.137 7.42.796 14.94.757 22.295 2.148-3.107-.445-6.236-.6-9.37-.615-4.192-.51-8.43-.34-12.634-.785-4.43-.392-8.93-.072-13.33-.886zm114.99.77l.456.11c3.348 1.18 6.87.68 10.335.767-3.56.445-7.41.495-10.79-.878z" fill="#DF4601"/><path d="M197.794 162.682c1.35-2.317 4.04-3.097 6.29-4.234-.78.84-1.537 1.697-2.25 2.597 3.107 1.352 6.58 1.203 9.89 1.06 2.68-.378 5.412-.24 8.052-.878-1.12.956-2.23 1.934-3.134 3.098 7.058.643 14.177-.55 20.966-2.44-7.514 3.708-16.158 4.148-24.375 3.488.89-.972 1.91-1.81 2.937-2.636-2.948.154-5.907.165-8.837.495-3.19.093-6.355-.433-9.54-.55z" fill="#FDFDFD"/><path d="M84.9 161.265c13.717 1.18 27.45 2.302 41.176 3.252 3.968.077 7.88 1.005 11.867.638l-.012.346c-4.144.17-8.244-.72-12.393-.49-7.487-.44-14.978-.9-22.465-1.31-6.043-.73-12.52.24-18.167-2.43z" fill="#DF4601"/><path d="M229.968 168.807c4.55-.753 8.683-2.944 12.54-5.383-2.7 4.17-8.017 4.883-12.54 5.383z" fill="#FDFDFD"/><path d="M95.325 165.704c10.51.478 21.015 1.307 31.536 1.615 6.49.874 13.056.26 19.57.693-9.85.818-19.76-.16-29.625-.385-7.134-.786-14.544.28-21.475-1.928z" fill="#DF4601"/><path d="M188.952 169.883c1.053-1.148 2.255-2.158 3.606-2.944.006.644.017 1.3.04 1.95 7.177 1.57 14.598.15 21.826-.416-8.347 1.488-17.085 3.86-25.472 1.405zm54.183 3.466c3.314-1.42 6.223-3.55 9.055-5.74-1.257 1.39-2.443 2.89-4.03 3.93-1.507.993-3.313 1.322-5.025 1.805z" fill="#FDFDFD"/><path d="M106.22 169.555c3.314-.176 6.64.033 9.955.093 6.96.6 13.974-.005 20.922.664-7.865.385-15.752.313-23.627.324-2.438-.05-5.023.1-7.25-1.08z" fill="#DF4601"/><path d="M187.69 174.338c10.615.736 21.142-1.252 31.636-2.57-8.908 1.603-17.75 3.745-26.805 4.317-3.49.318-7.05.757-10.49-.16.91-1.242 2.03-2.302 3.2-3.296.68.72 1.36 1.682 2.464 1.704zm-7.59 6.504c15.817.79 31.36-3.082 46.526-7.12-3.074 1.446-6.323 2.478-9.604 3.325-8.24 2.142-16.63 3.646-25.045 4.87-4.988.446-10.11 1.26-15.055.073.988-.972 2.125-1.774 3.212-2.63-.007.366-.023 1.108-.035 1.482z" fill="#FDFDFD"/><path d="M340.4 182.615c2.647-1.505 5.81-2.07 8.8-1.516 3.078.874 4.83 4 5.58 6.92 1.044 4.64-.043 9.394-.9 13.974-3.666 17.208-14.16 32.28-27.096 43.886-2.377 2.214-4.906 4.247-7.443 6.268-1.16.76-1.21 2.236-1.51 3.455-.99 5.46-2.23 11.024-1.49 16.593.28 2.13 1.41 4.232 3.36 5.25 1.588.945 3.548.6 5.206.04 3.133-1.15 5.94-3.084 8.332-5.394 4.802-4.583 8.907-9.844 12.727-15.26 1.314-1.67.6-3.9.792-5.838.345-9.877 3.726-19.522 8.886-27.893 3.826-5.925 9.035-11.33 15.726-13.91 3.616-1.495 8.05-1.35 11.327.917 3.904 2.52 6.115 7.19 6.066 11.786.41 8.492-3.86 16.54-9.76 22.395-5.066 5.25-11.488 8.91-18.13 11.793 1.5 3.313 3.766 6.8 7.48 7.82 4.1 1.013 8.49-.547 11.61-3.27 4.92-4.257 8.16-10.025 11.295-15.644a494.676 494.676 0 0 0 15.608-32.175c2.054-3.85 3.64-8.183 6.83-11.25 4.52-1.542 9.274-2.442 13.923-3.58-.473 3.235-.615 6.68.83 9.706 1.913 4.06 4.213 7.93 6.095 12.006 2.315 5.038 4.83 10.19 5.115 15.83 5.043 1.884 10.28 4.515 13.11 9.316 2.743 4.454 2.41 10.062.943 14.896-1.838 6.036-6.514 10.748-11.71 14.088-5.66 3.66-11.927 6.18-18.136 8.722-21.86 8.937-43.803 17.67-65.686 26.558-42.87 17.44-85.69 35.015-128.383 52.882-8.7 3.66-17.415 7.267-25.912 11.38-11.9 5.604-23.852 11.183-35.005 18.193-6.758 4.222-13.163 9.073-18.72 14.795-3.136-1.75-6.073-3.86-9.383-5.29-12.804-5.913-27.14-6.782-40.998-7.793-1.46.03-1.874-1.65-2.56-2.63 44.495-16.18 89.14-31.965 133.715-47.916 54.458-19.462 108.94-38.846 163.35-58.43 9.115-3.313 18.264-6.538 27.337-9.97 7.6-2.978 15.22-6.608 21.026-12.502 2.782-2.884 4.944-6.73 4.807-10.838-.52-4.745-4.45-8.36-8.55-10.32-1.257 5.525-3.968 10.886-8.584 14.336-3.655 2.83-8.156 4.594-12.772 4.867-4.27.116-8.816-1.663-11.275-5.284-2.174-3.322-2.694-7.804-.9-11.407 2.14-4.318 6.297-7.426 10.862-8.793 3.38-1.072 6.96-1.236 10.488-1.16-4.072-6.81-7.788-14.027-9.236-21.898-2.43 2.51-4.07 5.634-5.68 8.7-5.766 11.17-10.124 23.057-16.67 33.828-3.904 6.14-8.465 12.04-14.35 16.407-4.274 3.14-9.537 5.085-14.883 4.832-4.578-.123-9.254-1.633-12.58-4.88-1.877-1.73-3.184-3.943-4.517-6.09-3.53 5.79-7.677 11.205-12.607 15.88-4.982 4.712-10.5 9.03-16.87 11.693-3.382 1.39-7.283 2.092-10.813.84-4.447-1.665-7.383-6.18-7.96-10.783-.57-7.02.34-14.06 1.67-20.948-2.7 1.662-5.17 3.674-7.904 5.284-.922.674-2.332 1.185-2.343 2.53-1.032 7.326-2.948 14.593-6.4 21.167-2.46 4.636-5.143 9.3-9.067 12.87-5.197 4.805-12.058 8.233-19.26 8.03-3.71.006-7.414-1.407-10.09-3.993-1.906-1.764-3.06-4.126-4.277-6.378a48.4 48.4 0 0 0-2.006 2.95c-3.924 6.3-9.055 11.842-14.966 16.313-5.107 3.634-11.034 7.024-17.52 6.57-2.3.06-4.7-.64-6.297-2.364-1.882-1.916-2.32-4.68-3.007-7.17-5.297 7.324-11.653 13.964-19.232 18.95-2.936 1.84-6.4 2.776-9.845 2.94-3.595.098-7.168-1.83-8.88-5.02-2.152-4.032-2.218-8.782-1.878-13.236.68-6.26 2.557-12.327 4.703-18.226 3.44-9.09 7.975-17.834 13.98-25.507 1.404-1.834 3.023-3.492 4.412-5.34-5.087.748-10.522 2.067-15.417-.256-1.128 2.41-2.576 4.686-4.51 6.542-3.846 4.014-8.51 7.27-13.687 9.325-.75.38-1.904.54-1.86 1.632-.972 12.892-4.484 25.525-9.72 37.317-4.75 10.444-11.008 20.5-19.86 27.943-5.978 5-13.497 8.5-21.39 8.55-9.753.422-19.413-4.796-24.655-12.986-6.694-10.14-9.065-22.545-9.115-34.536-.53-23.593 8.26-47.49 24.686-64.54.895-.928.79-2.322 1.07-3.498 1.807-12.194 12.038-23.07 24.475-24.42 8.037-.808 16.74 1.45 22.505 7.332 4.972 5.003 7.805 11.704 9.594 18.433 2.774 10.437 3.01 21.318 2.824 32.05 4.402-1.83 8.628-4.56 11.477-8.45 2.84-3.792 1.874-8.84 3.416-13.092.324-.983 1.34-1.565 2.34-1.604 2.81-.198 5.494.868 8.265 1.153 5.855.81 12.206-.102 17.002-3.755 1.143-.698 2.235-2.037 3.712-1.724 1.695 1.67 2.87 3.8 4.54 5.51 1.122 1.318 2.53 2.433 3.37 3.976.673 1.39-.096 2.897-1.088 3.896-6.05 6.437-10.895 13.907-15.083 21.658-4.386 8.448-8.18 17.504-8.88 27.095-.09 2.536-.155 5.76 2.222 7.342 2.096 1.362 4.593.05 6.465-1.094 4.638-3.124 8.638-7.14 12.08-11.54 1.378-1.79 2.744-3.647 3.507-5.795 6.634-18.378 12.43-37.06 19.362-55.332.39-1.918 2.514-2.028 4.035-2.566 4.244-1.165 8.333-2.85 12.64-3.79-6.77 19.054-13.71 38.07-19.38 57.49-.86 2.935-1.837 6.405-.053 9.197 1.38 2.126 4.282 2.253 6.522 1.76 3.424-.9 6.146-3.357 8.56-5.828 2.844-3.075 5.4-6.432 7.548-10.03 1.234-1.686.22-3.784.22-5.662-.27-6.046-.287-12.187 1.157-18.11 1.657-7.227 4.66-14.192 9.04-20.195.784-.973.558-2.28.647-3.44-.17-4.816 2.403-9.353 5.89-12.517 4.734-4.11 11.162-6.516 17.46-5.676 5.15.74 10.074 3.61 12.91 8.03 3.997 6.432 5.63 14.07 5.666 21.59 3.14-1.164 5.745-3.306 8.424-5.245 1.13-.885 2.564-1.72 2.75-3.29 2.493-10.816 5.417-21.61 10-31.748 3.92-8.668 8.486-17.12 14.37-24.63 3.373-4.27 7.2-8.352 11.996-11.043z" fill="#DF4601"/><path d="M343.376 190.563c1.323-.742 3.53-.813 4.072.934 1.42 3.69-.01 7.65-1.246 11.177-4.143 11.288-9.962 21.998-17.48 31.39-2.542 3.033-5.16 6.092-8.42 8.372 1.987-9.464 5.478-18.554 9.018-27.534 2.508-6.108 5.12-12.194 8.41-17.934 1.436-2.456 3.1-4.977 5.646-6.405z" fill="#000"/><path d="M220.308 201.977c.022-2.725 2.32-4.345 4.56-5.34-.833 1.478-1.508 3.04-2.118 4.62-.74.44-1.624.51-2.442.72z" fill="#DF4601"/><path d="M337.158 206.827c1.218-2.148 2.448-4.416 4.495-5.888.07 4.323-1.832 8.36-3.688 12.172-3.052 5.827-6.256 11.66-10.466 16.735 2.392-7.986 5.72-15.68 9.654-23.024z" fill="#FDFDFD"/><path d="M221.833 203.586a12.74 12.74 0 0 1 3.645 1.23c5.258 2.664 10.488 5.454 15.296 8.893 1.67 1.214 3.327 2.49 4.66 4.093 2.075 2.252 1.768 6.262-.75 8.074-.233-2.027-.205-4.086-.556-6.096-.566-1.824-2.13-3.076-3.517-4.28-4.9-3.96-10.6-6.7-16.104-9.7a7.957 7.957 0 0 1-2.67-2.22zm10.945 15.286c2.294-.51 5.01-.203 6.613 1.692 2.41 2.697 2.04 6.794.6 9.87-2.13 4.646-6.94 8.798-12.34 8.035-3.194-.39-5.12-3.67-5.022-6.69.252-5.82 4.484-11.41 10.154-12.91z" fill="#DF4601"/><path d="M369.238 223.54c2.09-2.767 5.093-5.463 8.792-5.272 3.15.435 4 4.257 3.58 6.92-.616 5.477-3.042 10.84-7.13 14.59-3.99 3.872-9.03 6.46-14.15 8.502.296-8.915 3.545-17.648 8.908-24.74z" fill="#000"/><path d="M413.102 226.403a187.79 187.79 0 0 1 1.975 4.74c-1.897.697-3.753 1.51-5.575 2.378 1.2-2.37 2.37-4.76 3.6-7.113zm-42.788 4.79c1.13-1.418 2.8-2.198 4.522-2.63 1.048 2.31.63 5.26-1.147 7.1-2.53 2.994-5.818 5.23-9.286 6.988.434-4.423 3.05-8.21 5.906-11.453z" fill="#FDFDFD"/><path d="M112.135 236.438c4.863-2.22 11.384-.924 14.452 3.64 3.435 5.05 4.484 11.267 5.153 17.22.505 8.31.35 16.67-.52 24.953-6.082.847-12.498-.923-17.268-4.81-9.26-7.31-14.44-20.64-9.88-31.963 1.532-3.8 4.27-7.305 8.063-9.035zm153.508 2.07c2.364-2 5.872-2.642 8.71-1.274 2.827 1.22 4.512 4.103 5.182 6.997 1.7 6.21.697 12.73-.813 18.86-3.2.957-6.788.98-9.748-.734-3.518-2.04-6.575-5.235-7.732-9.212-1.362-5.173.257-11.154 4.4-14.63zm146.998 3.208c3.99-3.52 9.72-3.72 14.75-3.224.74 4.51-.053 9.59-3.38 12.946-3.084 3.3-9.203 4.08-12.38.516-2.673-2.917-1.87-7.755 1.015-10.238z" fill="#000"/><path d="M106.27 250.29c2.293-3.394 6.83-5.476 10.822-3.966 3.644 1.078 5.318 4.917 6.4 8.234 2.322 7.854 2.49 16.144 2.206 24.266-5.895-.66-11.044-4.377-14.474-9.084-4.12-5.487-6.306-12.624-4.955-19.45zm157.875-1.5c1.405-1.18 3.21-2.24 5.116-1.614 2.398.505 3.54 2.943 4.116 5.086.768 2.642.68 5.41.637 8.13-5.457-.815-10.106-6-9.864-11.6zm150.493.907c2.23-.687 4.572-1.033 6.9-.73-1.592 1.807-5.264 2.888-6.9.73z" fill="#FDFDFD"/><path d="M255.577 264.807c3.568 2.07 7.1 4.312 11.174 5.26 3.408.99 6.98 1.072 10.49.848-.45 3.444-1.5 6.773-2.53 10.08-1.852 5.437-4.09 10.89-7.79 15.35-1.818 2.165-4.39 4.198-7.383 3.917-3.222-.35-5.466-3.225-6.493-6.092-1.997-5.497-1.85-11.556-.75-17.23.84-4.102 1.38-8.35 3.29-12.133zM83.99 287.425c2.195-4.95 4.765-9.87 8.458-13.874 3.743 4.89 8.09 9.51 13.69 12.26 7.37 3.888 15.96 4.3 24.094 3.51-.763 8.452-2.876 16.73-5.313 24.842-2.81 8.61-6.388 17.093-11.668 24.496-3.463 4.686-8.085 9.162-14.04 10.185-4.933.445-10.05-1.7-13.106-5.63-4.408-5.653-6.05-12.876-6.883-19.857-1.237-12.105-.2-24.7 4.763-35.927z" fill="#000"/><path d="M255.484 277.775c1.992.527 3.808 1.543 5.774 2.153 2.885.955 5.91 1.467 8.952 1.614-1.12 4.02-2.35 8.107-5 11.43-1.438 1.736-3.15 4.17-5.71 3.818-3.226-1.494-3.88-5.48-4.318-8.64-.742-3.45.027-6.926.302-10.375zm-166.027 8.37c4.16 4.516 8.974 8.592 14.726 10.915 6.015 2.544 12.628 3.268 19.11 3.032-.553 6.108-2.26 12.05-3.896 17.944-1.186 4.175-2.662 8.284-4.83 12.056-2.915 5.22-6.345 10.513-11.536 13.716-3.25 2.136-7.68 1.993-10.984.083-3.255-1.9-5.187-5.34-6.57-8.72-2.568-6.86-3.293-14.27-3.184-21.55-.065-6.19.708-12.4 2.49-18.324.964-3.325 2.868-6.24 4.68-9.146z" fill="#FDFDFD"/></g></svg>