<svg width="512" height="512" viewBox="0 0 512 512" version="1.1" xmlns="http://www.w3.org/2000/svg" xmlns:sketch="http://www.bohemiancoding.com/sketch/ns"><title>cincinnati-reds</title><desc>Created with Sketch.</desc><g sketch:type="MSShapeGroup" stroke="none" stroke-width="1" fill="none"><path d="M280.842 386.409c106.932 0 168.158-69.517 168.158-132.613 0-75.557-84.747-128.796-175.241-128.796v.005c-72.647 0-123.008 42.807-150.391 75.217-37.596 44.512-58.368 50.184-58.368 50.184 29.118 25.402 42.82 38.325 56.334 52.89 38.135 41.086 69.716 83.112 159.508 83.112z" fill="#FF0028"/><path d="M278.982 368.491c-77.682 0-108.226-33.177-144.197-71.216-14.75-15.593-23.979-29.684-47.865-47.233l4.91 11.305c22.962 18.712 32.452 32.231 47.202 47.82 35.968 38.04 65.989 67.98 143.669 67.98 68.018 0 120.654-33.453 145.413-74.636l-3.726-8.662c-24.754 41.18-77.399 74.642-145.406 74.642zm1.987-193.69c-75.97 0-105.801 50.29-105.801 74.369 0 13.966 4.087 26.239 11.038 36.698-4.555-8.506-5.623-21.319-5.623-29.608 0-24.093 28.681-72.634 102.967-72.634 44.672 0 78.389 20.539 89.71 38.36h56.252c-1.031-2.034-3.545-8.83-3.545-8.83h-53.714c-11.319-17.821-46.613-38.355-91.285-38.355z" fill="#000"/><path d="M134.785 297.274c35.972 38.04 66.516 71.216 144.197 71.216 68.007 0 120.652-33.462 145.406-74.642h-53.118c-24.85 18.795-55.298 33.957-94 33.957-35.726 0-73.049-14.837-91.063-41.938-6.951-10.459-11.038-22.734-11.038-36.698 0-24.079 29.829-74.369 105.801-74.369 44.672 0 79.964 20.535 91.285 38.355h53.714c-24.912-48.987-89.223-78.511-153.534-78.511-63.168 0-111.429 36.28-139.138 68.954-36.711 43.304-46.377 46.445-46.377 46.445 23.886 17.549 33.115 31.64 47.865 47.231z" fill="#fff"/><path d="M312.621 244.253h-11.954v-5.7h-17.86v11.592h5.883v-5.736h11.776l6.082 5.707h11.952v-15.826l-5.879-5.856v15.819zm-49.648 37.172l5.804 5.858h49.722v-15.47l-5.879-5.858v15.47h-49.648zm19.835-21.346v11.583h5.883v-5.722h14.7v-9.94l-5.884-5.856v9.935h-14.699zm-19.835-21.526l5.804 5.856h2.083v-5.856h-7.888zm-68.316 0l5.874 5.856h2.091v-5.856h-7.964zm0 42.872l5.874 5.858h27.886v-9.751l-5.883-5.858v9.751h-27.877zm42.78-24.054l6.201 14.304h3.344l-3.666-8.446 8.852-7.228v-11.654l-5.881-5.853v11.65l-8.85 7.226zm-22.871 2.586v11.717h5.881v-5.86h7.925l-2.523-5.858h-11.284zm35.73 21.468h-15.184l5.881 5.858h15.186v-9.751l-5.883-5.858v9.751zm-15.961-37.016v-3.346l-3.019-2.51h-16.75v11.641h5.881v-5.785h13.888z" fill="#000"/><path d="M282.808 238.553h17.86v5.7h11.954v-15.819h-49.726v10.119h7.966v33.109h-7.888v.012h-.078v9.751h49.726v-15.47h-11.954v5.707h-17.86v-11.583h14.699v-9.935h-14.699v-11.592zm-32.512 33.121h-6.656l-6.201-14.304 8.85-7.226v-11.65l-12.02-10.062h-39.612v10.119h7.964v33.124h-7.964v9.751h27.879v-9.751h-7.97v-11.717h11.284l2.524 5.858 6.738 15.61h15.184v-9.751zm-29.849-21.48h-5.883v-11.641h16.75l3.019 2.51v6.733l-2.88 2.399h-11.006z" fill="#fff"/><path d="M325.24 238.553l5.796 5.856h2.085v-5.856h-7.881zm37.691 5.856v-3.346l-3.013-2.51h-14.848v33.109h5.877v-27.253h11.984zm11.946 27.203l-12.011 9.813h-37.627l5.796 5.858h33.964l15.76-12.861v-30.075l-5.883-5.853v33.118zm39.293-11.533h-15.068l-11.954-9.935 18.932 15.796h11.092v-3.367l-3.001-2.494zm20.757 5.861l-5.877-5.861.071 11.397-12.009 10.062h-14.953l-3.131-2.632v2.767h-11.881l5.881 5.858h11.877v-2.772l3.136 2.631h11.467l15.47-12.633-.052-8.816zm-17.756-21.687v-3.183l-3.054-2.542-11.769.016-3.068 2.551v6.569l2.985 2.48h2.896v-3.197l3.065-2.544 8.766-.014 6.06 5.727h11.876v-15.826l-5.877-5.856v15.819h-11.879zm-15.231 27.326l3.193.023-6.105-5.757v3.323l2.912 2.411z" fill="#000"/><path d="M374.877 271.612v-33.118l-12.011-10.062h-37.712v10.119h7.968v33.111h-7.883v.014h-.085v9.751h37.712l12.011-9.814zm-23.931.05h-5.877v-33.109h14.848l3.013 2.51v28.203l-2.88 2.397h-9.104zm48.082 7.244l3.131 2.632h14.953l12.009-10.062-.071-11.397-11.948-9.935h-14.837l-2.985-2.48v-6.569l3.068-2.551 11.769-.016 3.054 2.542v3.183h11.879v-15.819h-11.879v2.578l-3.077-2.578h-14.748l-12.197 10.06v11.65l11.954 9.935h15.068l3.001 2.494v6.679l-2.9 2.418-9.138-.069-3.193-.023-2.912-2.411v-3.323h-11.881v15.828h11.881v-2.767z" fill="#fff"/><path d="M417.274 351.591h-3.824v10.347h-2.581v-10.347h-3.815v-2.252h10.222v2.252h-.002zm17.292 10.337h-2.583v-10.022h-.059l-3.664 10.022h-2.482l-3.54-10.022h-.06v10.032h-2.588v-12.599h4.471l2.946 8.228h.055l3.068-8.228h4.437v12.588h-.002z" fill="#000"/></g></svg>