<svg width="512" height="512" viewBox="0 0 512 512" version="1.1" xmlns="http://www.w3.org/2000/svg" xmlns:sketch="http://www.bohemiancoding.com/sketch/ns"><title>colorado-rockies</title><desc>Created with Sketch.</desc><g sketch:type="MSShapeGroup" stroke="none" stroke-width="1" fill="none"><path d="M147.739 264.231l-14.187 29.391h33.359l93.25-70.854-78.276 70.593h5.779l74.075-53.009-59.628 53.271h6.567l60.94-40.676-46.491 40.414 6.567.262 54.635-32.278-40.714 32.016 6.305.524 53.324-28.604-39.139 28.08h119.779l-26.269-34.903-10.508 1.575-10.243-17.581-52.536-47.236-29.155-26.768-35.463 45.137-19.699-6.037-32.835 52.221-8.932-1.573-3.938 6.823-6.567-.788z" fill="#4C3576"/><path d="M179.784 253.473l22.852-37.527 19.701 5.249 32.571-42.512 23.483 27.317-1.05 2.887-5.357-3.437-6.042 5.511-3.153-13.645-7.615 9.185-3.942-5.775-31.521 26.243-6.305-5.249-16.548 20.208-2.889-2.625-14.185 14.171zm159.18 6.561l-6.942-12.907-4.854 2.841s4.966 5.342 6.279 6.13c1.317.786 5.518 3.936 5.518 3.936z" fill="#fff"/><path d="M374.569 281.027h76.82v-5.772s-13.661-.262-13.661 0c-1.864-20.151-18.099-76.382-71.306-115.761-27.228-21.362-63.411-37.312-110.463-38.805-60.152 2.099-84.055 19.156-109.009 35.164-65.406 46.186-73.812 118.876-73.812 118.876h-12.872v6.034h79.48l2.861-5.77h-16.934s14.449-91.324 121.618-102.608c-.262.264 8.406-9.445 8.406-9.445l9.456 9.445s14.446 1.575 23.904 4.462c9.455 2.887 18.386 6.822 18.386 6.822s-31.242 2.909-32.571 36.215c2.325 28.975 27.053 34.114 33.885 34.114 6.828 0 33.621-.788 37.034-34.114 0-7.612-1.839-12.336-1.839-12.336s13.397 9.711 25.481 29.393c12.084 19.68 14.973 37.788 14.973 37.788h-14.531l4.694 6.298zm-58.721 22.698v-4.723h27.712v5.377s-4.99-1.049-6.435 2.365c-1.446 3.412-1.05 22.698-1.05 22.698s-.395 18.763.264 20.338c.655 1.573 1.179 5.116 4.068 5.51 2.891.393 3.284.918 3.284.918v4.199h-27.71v-4.592s4.201-.264 5.514-2.493c1.315-2.232 1.05-4.461 1.05-4.461v-20.076l-.262-19.156s.395-2.232-.917-3.543c-1.312-1.313-3.153-2.363-5.518-2.363zm-152.088-6.69c17.074 0 29.552 11.547 29.552 32.408 0 20.862-12.478 31.754-31.126 32.803-18.389-1.049-28.633-12.465-28.633-33.065 0-20.6 13.66-31.097 30.208-32.146zm-15.759 33.983c2.363 25.323 12.608 25.848 17.73 25.848 5.123 0 16.024-7.611 12.74-30.573-3.284-22.962-12.74-23.879-17.468-23.879-3.81.526-15.367 3.279-13.002 28.604zm-43.999 23.878v5.251h-33.886v-5.118s6.961-.526 8.144-3.543c1.183-3.019.918-3.938.918-3.938v-46.71c0-2.755-2.495-4.33-4.858-4.987-2.365-.654-4.072-.654-4.072-.654v-5.513s3.808.262 8.144 0c4.334-.264 12.084-1.049 19.699-1.049 7.618 0 31.521.133 31.521 19.55.921 15.089-13.92 18.763-13.92 18.763s-.394 1.706 1.051 2.493c1.445.788 1.839 1.575 1.839 1.575s5.384 9.708 6.173 11.154c.788 1.44 4.202 9.051 6.173 10.495 1.969 1.442 6.959 2.363 6.959 2.363v5.247h-20.488l-17.598-28.994s-1.971-.788-2.759-.788c-.788 0-2.101.391-2.101.391l-.262 16.141s-.394 4.328 1.707 6.036c2.101 1.706 7.618 1.835 7.618 1.835zm-3.021-30.569c2.101-.264 11.951-2.624 11.033-15.879 0-13.776-10.113-14.564-13.658-14.564-3.546 0-3.678.526-3.678.526v30.179s4.202 0 6.303-.262z" fill="#161413"/><path d="M167.964 265.545l-6.567-1.313-5.517 8.397 12.084-7.083zm178.354 2.097l7.619-1.835 5.254 7.083-12.872-5.249zm-35.197-78.986s11.558.524 17.6 5.773c14.183 10.758 11.558 20.469 11.558 20.469l-1.839.26s-1.315-3.936-2.365-3.936c-1.05 0-1.181.788-1.181.788l.657 2.363h-2.234s-.788-3.542-2.234-3.542c-1.443 0-.917 1.441-.917 1.441l-.133 2.363-1.839-.132s-1.705-4.198-3.022-3.016c-1.312 1.179-.393 1.705-.393 1.705s1.315 2.099-.131 2.099c-1.443 0-2.758-1.705-2.758-1.705s-.788-1.969-1.574-1.313c-.788.658-.657 1.575-.657 1.575l1.05 2.099-1.577.658s-2.889-2.363-3.546-2.363-2.101 1.05-1.181 1.575c.917.524 1.839 1.05 1.839 1.705 0 .656-.921.919-.921.919l-1.312.392s-2.627-2.755-3.546-1.705c-.919 1.049.395 2.099.395 2.099l.919 1.313-1.05.788s-1.841-.264-2.365-.656c-.526-.396-1.705-1.052-2.103-.264-.391.788.397 1.575.397 1.575l1.836 1.311-2.101 1.311s-2.627-1.573-3.151-1.05c-.526.526-.79 1.969-.79 1.969l2.103 1.181-.395 1.05-1.312.394s-1.972-.656-2.627-.394c-.657.262-.657 1.967-.657 1.967s.919 1.05 1.446 1.05c.524 0 1.972.132 1.05.919-.919.788-1.312.788-1.312.788s-3.284-.788-3.81.656c-.524 1.443 1.446 1.705 1.446 1.705s1.97-.13 1.839.526c-.133.656-.657 1.311-.657 1.311l-2.101.264s-1.839.262-1.97 1.443c-.133 1.179 1.443 1.311 1.443 1.311s2.234-.394 1.839.918c-.393 1.313-2.494 1.445-2.494 1.445s-1.708 0-1.708 1.049c0 1.05.786 1.573.786 1.573s3.022-.262 2.76.919l-1.446 1.05s-17.598-7.087-17.598-25.323c-.264-3.15-.133-6.693-.133-6.693s.393-1.575 1.315-.262c.919 1.311 1.05 1.443 1.839 1.443.788 0 .526-1.969.526-1.969l-.264-1.575s.655-.524 1.315-.524c.655 0 1.839 3.28 2.625 3.28.788 0 1.841-.788 1.841-.788s-.131-1.05-.393-1.575c-.264-.524-.79-1.311-.79-1.311l1.97-.788s1.05 1.313 1.577 1.837c.524.526 1.446 1.049 1.972.788.524-.262.262-1.311.262-1.311l-1.315-2.231 1.97-.656s2.103 2.229 2.758 2.229c.659 0 1.183-.786 1.183-.786s.131-.788-.262-1.443c-.395-.658-1.577-1.051-.395-1.969 1.183-.918 1.97 0 1.97 0s1.315 1.575 1.97 1.575c.657 0 1.708-1.181 1.05-2.099-.655-.92-1.577-.92-1.577-.92l.526-1.443s1.183-.394 2.234.13c1.05.526 3.151 1.051 3.151-.13l-.917-1.575-1.183-.524s.133-1.443.788-1.443c.657 0 1.312-.394 2.234 0 .917.394 1.05.524 1.839.262.786-.262.524-1.443-.526-2.099-1.05-.656-1.839-.132-1.708-1.313.133-1.179 1.97-.786 1.97-.786l2.627.13.919-1.573s-.524-.919-1.048-.919c-.528 0-1.841-.262-1.841-1.181 0-.917 1.05-.917 1.97-.917.919 0 2.758 0 2.889-.526.133-.524.133-1.705.133-1.705s-1.839.13-2.365-.132c-.526-.262-.657-1.179-.657-1.179z" fill="#fff"/><path d="M83.118 294.541h7.488v60.226h-7.488v-60.226zm28.24 0s13.396 1.573 13.396 14.302c0 12.727-13.134 15.22-13.134 15.22s4.072-3.674 4.072-15.351c0-11.677-4.334-14.171-4.334-14.171zm-7.882 36.477s4.204-1.444 5.517-1.444h3.416s3.808 3.807 4.728 5.772c.918 1.97 11.031 19.027 11.031 19.027h-11.031l-13.66-23.355zm45.706-26.112s-5.777 8.53-4.726 23.75c0 16.664 7.485 25.848 7.485 25.848s-15.235.131-15.235-24.142c.262-20.338 12.476-25.456 12.476-25.456zm25.479-1.312s15.367 3.676 15.367 24.009c0 20.338-11.557 26.376-11.557 26.376s3.678-4.856 3.678-25.851c-1.709-18.106-7.488-24.535-7.488-24.535z" fill="#C9CCD1"/><path d="M58.691 367.1h392.96v6.562h-16.548v9.972h-359.601v-10.497h-16.812v-6.036zm138.955-36.739c0-18.37 11.557-32.934 32.965-32.934 8.144 0 13.264 3.017 13.264 3.017s3.021-1.966 3.81-1.966c.788 0 .788 1.049.788 1.049l.788 20.074h-3.678s-3.151-16.4-15.891-16.4-17.995 13.512-17.995 26.898c0 13.383 7.356 26.241 18.387 26.241 11.033 0 17.338-14.566 17.338-14.566s.392-.916 1.313-.916c.921 0 2.103.393 2.103.393l.13 1.311-4.728 18.765s-4.728-.526-6.829-.526c-2.103 0-13.658 1.311-15.499 1.311-1.837 0-26.266-2.622-26.266-31.752z" fill="#161413"/><path d="M208.415 330.361c0 14.302 7.488 23.748 7.488 23.748s-15.235-2.493-15.235-23.091c0-20.6 13.396-25.456 13.396-25.456s.788.264.262 1.313-5.911 9.184-5.911 23.486zm117.744-26.308h6.959v50.909h-6.959v-50.909z" fill="#C9CCD1"/><path d="M252.151 303.726l.262-4.723h27.713v4.854s-6.173-.131-6.566 3.281c-.395 3.412-.526 19.55-.526 19.55l16.941-19.156s.788-.918.526-1.839c0-1.704-2.889-2.099-2.889-2.099v-4.723h22.59v5.118s-6.697-.264-9.326 1.968c-3.677 1.837-15.761 16.533-15.761 16.533s5.256 6.56 8.276 11.019c3.022 4.463 10.641 16.926 11.82 17.845 1.183.921 1.71 2.888 4.861 3.807 3.151.918 3.677.524 3.677.524v4.856h-29.682v-5.118s4.73.524 4.73-1.706-1.841-6.691-5.123-10.495c-3.284-3.807-8.012-10.235-10.246-10.499-.131 2.363 0 18.108 0 18.108s.262 2.624 2.234 3.938c1.968 1.311 4.597.916 4.597.916v4.856h-27.976v-4.723s5.911 0 6.435-3.543c.526-3.545.526-4.332.526-4.332v-39.099s0-3.15-2.495-4.068c-2.495-.918-4.596-1.049-4.596-1.049zm95.875.392v-4.985h45.97l.917 14.828h-4.332s1.181-8.268-4.73-8.268h-16.548v20.6s4.597.526 6.304.526c1.708 0 6.961-.657 7.223-2.886.264-2.23 1.181-4.723 1.181-4.723h3.151v20.862h-3.413s-.452-6.085-3.939-6.691c-3.022-.526-4.334-.659-5.516-.659-1.183 0-4.861.788-4.861.788v18.239s.657 2.36 3.415 2.36h12.477c.919 0 4.332-.785 5.254-2.23.919-1.444 3.282-8.006 3.282-8.006h3.808l-1.443 16.666h-48.99v-5.118s4.992.395 6.699-.918c1.705-1.311 2.101-1.837 2.101-1.837l-.262-42.249s.393-4.068-2.496-5.513c-2.889-1.442-5.254-.788-5.254-.788z" fill="#161413"/><path d="M359.256 303.791h6.959v51.697h-6.959v-51.697z" fill="#C9CCD1"/><path d="M418.159 288.636c9.064 0 14.58 2.232 14.58 2.232s.917.395 1.443 0c.526-.393 1.708-1.575 1.708-1.575h2.627l1.183 20.731-4.597-.393s-2.103-14.958-15.499-14.958c-10.639 1.311-8.012 11.154-4.597 12.86 7.223 7.609 27.581 14.562 27.581 33.327 0 18.761-17.074 21.913-20.884 21.913-3.808 0-14.185-2.757-15.628-2.888-1.446-.131-2.627 1.968-2.627 1.968h-2.232l-2.365-22.175 3.808-.129s3.153 8.133 5.254 10.102c2.103 1.966 4.466 6.56 11.296 6.56 6.828 0 9.193-5.643 9.193-10.628s-8.405-11.811-11.558-13.776c-3.153-1.97-17.338-8.004-17.338-23.619 0-15.613 9.588-19.55 18.65-19.55z" fill="#161413"/><path d="M406.866 299.264s-.262 5.249 3.939 9.71c6.566 8.922 27.712 14.302 27.712 30.573-.917 11.939-6.697 14.695-6.697 14.695s.657-2.493.657-9.053c0-8.922-13.265-16.272-13.265-16.272s-15.761-8.92-15.761-19.681c0-8.92 3.415-9.972 3.415-9.972z" fill="#C9CCD1"/><path d="M299.169 247.83l.262-.918s2.758 1.311 3.02.788c.264-.526.133-1.969.133-1.969l-1.71-1.049s-1.839 0-1.574-1.443c.262-1.443 1.446-.394 1.446-.394l1.705.788v-2.755s-2.101-.788-2.101-1.837c0-1.05.657-1.05.657-1.05l2.101 1.441s1.05-.262 1.05-.917c0-.656-.129-1.181-.129-1.181l-2.105-1.967s-.262-1.443.79-1.443c1.05 0 1.839 1.705 1.839 1.705s1.181-.526 1.05-1.443c-.131-.918-.788-1.705-.788-1.705s-1.183-1.181-.919-1.969c.262-.788 1.183-.656 1.183-.656s.788 1.969 1.577 1.969c.786 0 1.705-1.181 1.312-1.969-.395-.786-1.446-2.493-1.446-2.493s.133-1.049.786-1.049c.659 0 1.972 2.099 1.972 2.099s1.446.526 1.446-.656c0-1.181-.395-2.495-.395-2.495s-.919-1.179.131-1.705c1.052-.524 1.052.526 1.315 1.05.262.526.919 1.969 1.443 1.313.526-.658.921-1.837.921-1.837s-.526-.919-.526-1.837c0-.918.526-1.313.526-1.313s1.05-1.311 1.179-.524c.133.788.133 2.099.264 2.493.131.394 1.708.394 1.839-.262l.262-1.049s-.526-1.05-.131-1.837c.393-.788-.131-1.181.657-1.181l1.315 1.705s0 1.575.655 1.443c.657-.13 1.446-1.311 1.446-2.361 0-1.05.393-2.231 1.312-2.361.919-.132.131 2.493.131 2.493s.657 1.181 1.183.918c.524-.262 1.179-.918 1.179-.918l1.055-3.018h1.443s-.526 2.755.131 2.887c.657.132 1.577-.262 1.577-.262s.393-1.707.788-2.231c.393-.526 1.705-.656 1.705-.656s.395 0 .262.788c-.129.785-1.05 2.099 0 2.361h1.972s.657-3.412 2.101-3.28c1.446.132-.262 2.363-.262 2.363s.133 1.179 1.05 1.443c.921.262 2.101-1.443 2.101-1.443s.657-1.313 1.446-1.051c.788.264-.788 2.363-.788 2.363s1.577 2.099 1.577 2.755c0 .656-1.446 13.515-13.659 21.781-13.003 9.973-28.763 3.542-28.763 3.542zm-17.335-37.657c-.526.658-1.315.526-1.315.526l-.657-.394s4.203-11.414 12.61-16.27c8.403-4.856 13.787-5.118 13.787-5.118l-.917 1.967.393 1.181s2.234 1.311 1.312 2.231c-.917.919-2.232-.526-2.232-.526s0-1.573-1.05-.524c-1.05 1.05-.262 2.493-.262 2.493s1.97 1.705 1.05 2.625c-.921.917-1.708-.788-1.708-.788s-.657-1.443-1.446-.656c-.788.788-.393 2.099-.393 2.099s1.839 2.887.393 3.018c-1.443.13-2.101-2.625-2.101-2.625s-1.443 1.443-1.443 2.099c0 .656 1.705 2.363.262 3.28-1.446.919-1.708-1.443-1.708-1.443s-.788-1.837-1.577-.918c-.788.918-.262 2.361-.262 2.361s.524 2.493-.659 2.493c-1.179 0-1.441-.917-1.441-.917s.129-2.757-.788-2.231c-.921.524-1.052 1.969-1.052 1.969s.788 3.149-.919 3.149c-1.705 0-.917-2.099-.917-2.099s-.264-2.101-1.183-1.707c-.921.394-.921 1.575-.921 1.575l-.393 2.757-1.836.392s.393-1.705.129-2.361c-.262-.656-.655-.92-1.312-.92-.655 0-1.315 1.181-1.315 1.181s.395 1.443-.129 2.099z" fill="#fff"/><path d="M307.31 188.524s2.365 1.181 1.71 1.967c-.657.788-1.446-.13-1.446-.13l-.788-1.049.524-.788z" fill="#161413"/><path d="M411.462 225.787c4.203 7.48 7.223 17.977-2.889 24.667-10.114 6.693-20.751-.788-23.773-6.954-3.02-6.167-6.961-15.614 4.072-23.748 8.536-4.594 18.386-1.443 22.59 6.035z" fill="#C9CCD1"/><path d="M410.019 227.756c1.181 1.967 4.859 8.266-5.254 15.744-10.114 7.48-17.602 1.443-18.519-1.179-.919-2.625-3.939-10.367 6.697-16.14 10.639-5.773 15.892-.394 17.076 1.575z" fill="#161413"/><path d="M367.595 171.991s7.75 6.825 9.981 9.055c2.234 2.229 16.419 14.565 4.73 26.24-11.691 11.678-26.269-3.806-27.714-5.379-1.443-1.575-3.544-3.936-4.728-5.117-1.181-1.179-4.463-4.068-4.463-4.068l1.05-1.443s1.968 1.575 2.494 1.707c.528.13 1.841 0 1.841 0s14.971-13.515 15.89-14.564c.919-1.05.657-2.887.657-3.542 0-.658-1.05-2.101-1.05-2.101l1.312-.788z" fill="#C9CCD1"/><path d="M356.038 197.183l15.89-14.695s1.183-1.969 2.631-.658c1.441 1.313 7.352 5.773 6.564 12.204-.788 6.429-7.223 13.383-14.578 12.334-7.354-1.05-10.508-6.037-10.508-6.037s-1.577-1.05 0-3.148z" fill="#161413"/><path d="M328.456 147.587l5.649 3.41s-2.627 27.818-2.496 28.473c.131.656.262 1.575 1.05 2.493.786.918 1.181.918 1.181.918l-.262.919-13.921-6.167.786-1.705 2.496 1.311s2.232.656 2.494-1.443c.264-2.099.395-7.478.395-7.478l-9.06-4.856-5.387 4.856s-1.181 1.573-.391 2.493c.786.917 2.887 1.967 2.887 1.967l-.524 1.575-11.558-5.247 1.05-1.575s2.101 1.967 4.859-.394c2.758-2.363 20.751-19.55 20.751-19.55z" fill="#C9CCD1"/><path d="M326.489 154.41l-.395 10.365-7.092-3.41 7.488-6.955z" fill="#161413"/><path d="M269.881 150.08l3.02.394s.526.394 1.052 1.311c.524.919 4.99 10.235 4.99 10.235s1.841 2.361 4.466 2.755c2.627.394 7.881.788 7.881.788s.262-.917-1.052-1.705c-1.312-.788-3.808-2.493-5.514-7.216-2.101-3.806-3.81-6.693-3.81-6.693s7.357-1.179 8.012-6.69c.657-5.511-3.06-8.915-9.324-10.235-6.807-1.427-11.034-1.443-11.034-1.443l-7.879-.656-.656 1.443 4.203 1.967s-2.234 23.224-2.496 23.88c-.262.658-2.627 1.445-3.416 1.445-.788 0-1.837-.132-1.837-.132l-.132 1.311 16.548 2.231.264-1.443-2.627-.788s-2.101 0-1.839-3.018c.262-3.017 1.181-7.74 1.181-7.74z" fill="#C9CCD1"/><path d="M270.276 147.717l1.708-13.119s1.97-.264 3.939.262c1.97.524 6.828 2.493 5.911 6.954-.921 4.46-2.629 6.954-7.092 6.69-4.466-.262-4.466-.788-4.466-.788z" fill="#161413"/><path d="M215.771 135.516c7.085-3.658 20.62-2.755 24.035 5.511 3.416 8.266 2.363 17.319-8.538 22.304-10.901 4.987-22.196-.262-24.559-7.61-2.365-7.346.918-16.008 9.062-20.206z" fill="#C9CCD1"/><path d="M219.578 136.171c3.81-1.049 10.771.526 13.793 8.792 3.019 8.266 1.181 15.35-4.074 17.057-5.253 1.705-12.608 1.05-16.021-10.758-2.495-10.499 2.495-14.041 6.303-15.09z" fill="#161413"/><path d="M159.688 159.133l14.317-7.61.526 1.181s-1.839.786-2.365 1.837c-.524 1.05-.918 1.573-.918 1.573l11.425 21.387 8.668-4.853s2.103-1.443 2.233-2.493c.132-1.049.921-5.643.921-5.643l1.051.262 1.313 7.742-22.985 12.989-.656-1.705s3.416-1.443 2.495-3.936c-.918-2.493-10.113-18.632-10.113-18.632s-.656-1.705-1.969-1.705c-1.315 0-2.627.786-2.627.786l-1.315-1.179zm-32.571 26.243c7.487-8.662 16.55-10.105 23.511-4.724 6.959 5.379 9.192 15.088 2.231 23.616-6.961 8.53-15.759 9.711-23.771 4.856-6.043-4.462-8.668-13.907-1.971-23.748z" fill="#C9CCD1"/><path d="M128.956 186.687c2.569-4.018 8.93-5.773 16.155-1.181 7.223 4.592 10.769 12.728 5.779 17.845-4.992 5.117-11.822 4.068-17.338-.394-5.515-4.46-8.536-10.103-4.596-16.27z" fill="#161413"/><path d="M104.397 250.98c-7.527-2.641-11.033-13.253-6.829-22.962 3.678-6.823 5.253-6.691 6.303-7.872.132-.92 0-1.443.264-2.099.262-.658 7.748 3.148 7.748 3.148l-.656.918s-.656.132-1.839.132c-1.181 0-5.516-.918-9.456 6.429-3.94 7.348 3.151 13.647 6.961 15.484 3.81 1.837 13.84 4.501 18.124-5.379 2.437-5.643-.262-9.449-.262-9.449l-1.577-2.229.918-1.707 6.043 5.643s-1.312 2.099-1.577 3.148c-.262 1.049-1.707 6.693-2.363 7.874-.656 1.179-7.356 14.169-21.802 8.921z" fill="#C9CCD1"/><path d="M440.698 386.675c0-3.672 2.995-6.661 6.701-6.661 3.694 0 6.67 2.99 6.67 6.661 0 3.707-2.976 6.697-6.67 6.697-3.707 0-6.701-2.99-6.701-6.697zm12.568 0c0-3.234-2.627-5.857-5.867-5.857-3.255 0-5.879 2.622-5.879 5.857 0 3.27 2.625 5.893 5.879 5.893 3.24 0 5.867-2.622 5.867-5.893zm-2.538 3.741h-1.086l-2.137-3.443h-1.68v3.443h-.909v-7.465h3.255c.63 0 1.26.034 1.82.367.562.317.841.98.841 1.609 0 1.467-1.033 2.01-2.363 2.046l2.259 3.443zm-3.502-4.159c1.05 0 2.678.173 2.678-1.349 0-1.153-1.017-1.292-1.942-1.292h-2.137v2.641h1.401z" fill="#161413"/><path d="M262.592 303.791h6.961v51.304h-6.961v-51.304zm14.907 27.094l4.99-5.247s4.861 4.461 9.588 11.808c4.73 7.347 11.032 17.321 11.032 17.321h-10.246s.395-4.201-4.463-10.105c-4.334-6.56-10.901-13.778-10.901-13.778z" fill="#C9CCD1"/></g></svg>