<svg width="512" height="512" viewBox="0 0 512 512" version="1.1" xmlns="http://www.w3.org/2000/svg" xmlns:sketch="http://www.bohemiancoding.com/sketch/ns"><title>los-angeles-dodgers</title><desc>Created with Sketch.</desc><g sketch:type="MSLayerGroup" stroke="none" stroke-width="1" fill="none"><path d="M395.027 163.551c-.671 5.28-5.513 7.297-3.846 13.435 7.471 8.802 14.714 12.592 14.714 26.91 3.665-3.459 18.102-5.595 21.925 5.24 9.438 26.8-32.271 47.674-61.399 60.164-31.363 13.435-61.391 24.98-78.174 32.182-2.63 12.301-8.064 43.647-27.769 45.129-10.931.827-12.21-18.81-5.821-31.749-26.063 8.684-43.826 24.483-46.724 32.355-23.291 2.49-27.027-.662-27.114-.827 17.96-26.824 61.47-42.867 83.813-50.944 0 0 10.954-16.146 17.407-23.884l1.153-7.62c-2.488 6.643-13.142 15.965-20.227 4.736-1.493 4.318-3.988 14.499-11.973 14.83-3.491.158-5.655-2.829-7.479-5.138-1.461 4.633-6.69 15.792-16.009 14.476-8.719-1.253-11.057-15.681-10.015-23.404 0 .331-2.251 3.948-4.589 5.469-.19 27.864-15.362 43.135-31.26 32.56l-13.19 11.97c-1.888.173-3.601-.512-4.462-2.057l12.913-18.455c-4.533-23.924 9.478-49.297 26.671-44.081 5.189 1.56 7.503 6.217 8.704 11.261 1.951-.969 4.194-2.797 5.868-4.452.269-8.298 12.692-31.071 26.474-21.899.174-.039 8.372-39.038 8.372-39.038s7.495-3.948 10.552-3.396c-3.057 15.5-12.084 58.178-11.223 72.661.182 2.931 6.642.047 8.001-10.654-.885-39.699 24.294-47.327 29.688-39.187l1.287-5.24s5.663-3.633 10.101-3.767c-1.122 8.613-3.673 25.744-5.671 38.525l8.814-14.271c1.011-30.653 19.287-42.481 28.156-35.838 8.459 6.32-3.309 31.016-16.246 32.797-.49 14.799 15.433 7.959 21.451-8.629 5.213-14.334 6.547-18.636 8.214-29.258-2.219-4.373-2.393-13.514 2.046-16.036 5.576-3.16 3.183 6.225 6.547 6.083 5.276-.221 11.357-1.97 14.58 1.324 5.529 5.681-3.444 16.895-5.11 23.12-1.659 6.217-1.501 11.45 1.745 10.977 5.631-.804 16.436-31.953 18.434-42.111-4.747-21.804 12.029-24.924 10.67-14.271m-114.939 126.301s1.169-5.232 1.477-7.486c-.774 1.261-3.933 6.367-5.876 9.251 1.39-.489 4.399-1.765 4.399-1.765m108.534-104.378c-2.82 9.48-12.566 52.922-28.314 48.352-15.835-4.61-3.917-31.607-2.361-36.658-1.524.047-3.633-.236-5.244-.575-3.317 15.602-12.692 55.562-34.032 56.113-6.729.173-9.809-4.87-11.8-8.187-4.486 6.635-8.538 14.271-13.197 20.74-1.137 6.446-2.354 15.201-3.191 21.071 86.246-31.291 115.879-42.71 126.675-59.021 2.583-3.901 6.84-13.774.932-17.888-3.957-2.734-10.315 1.135-11.989 2.868-5.45 5.666-10.86 11.261-19.002 9.874-5.71-.969-8.467-7.518-4.328-11.442 2.772-2.632 5.631 1.158 8.135-.079 4.873-2.443 7.266-14.105-2.283-25.169m-62.749 22.655c-2.978-1.781-9.525 9.511-9.351 17.643 7.803-2.388 12.131-15.989 9.351-17.643m-42.996 18.219c-12.921 1.537-15.764 35.46-7.029 33.821 4.589-.867 7.353-7.368 8.996-12.537 1.556-4.878 1.461-10.709 1.982-13.467.94-4.972-1.485-8.116-3.949-7.817m-42.72 20.062c-12.968-1.34-16.609 32.158-8.672 32.45 4.612.173 7.922-4.476 9.572-11.048.348-1.411 1.888-14.279 2.109-15.744.229-1.513-.766-5.421-3.009-5.658m-45.705 19.724c1.824 3.365 10.488 4.192 9.801 2.309.403-9.243-10.267-10.417-9.801-2.309m-4.976 5.847c-5.379 7.352-4.747 24.901 1.777 26.162 7.985 1.56 13.814-12.45 13.182-20.141-4.454.173-12.052-.725-14.959-6.02m88.426 33.214s-4.905 2.34-10.718 4.555c-4.439 6.911-6.99 22.71-1.659 20.378 6.516-2.853 9.359-10.654 12.376-24.932m-115.461 8.479c-16.815 30.567-44.402 23.002-53.051 23.183-11.91 19.18-32.311 26.327-36.188 23.821-5.11-3.278 3.112-26.335 28.875-30.141 8.317-9.952-2.709-70.959 32.429-88.76.829 0 1.99.331 1.493 1.497-19.121 16.761-11.705 42.812-16.704 66.523-2.219 10.512-4.352 17.368-5.576 20.141 5.544.221 7.874.883 13.971-.229 16.207-2.931 23.346-18.794 26.774-33.837 4.589-20.189 3.902-46.161-11.642-54.916-28.978-16.343-79.596 28.589-63.689 47.721 3.262 3.94 19.026 1.166 26.269-21.843 1.177 1.994 1.177 4.862-.221 9.015-8.609 25.76-24.27 27.801-31.094 24.286-6.942-3.593-7.282-14.751-5.923-21.686 6.832-35.161 64.676-65.191 91.008-39.432 18.252 17.84 14.667 53.931 3.27 74.655m-77.487 34.459c4.881 1.048 11.144-4.972 13.971-9.96-6.99 1.214-13.253 4.366-13.971 9.96" fill="#263667" sketch:type="MSShapeGroup"/><path d="M275.602 98.265c0-19.038 15.464-34.467 34.546-34.467 19.074 0 34.538 15.429 34.538 34.467 0 19.03-15.464 34.459-34.538 34.459-19.081 0-34.546-15.429-34.546-34.459m23.291-3.01c4.47-14.507-3.238-23.963-4.21-25.074-9.936 5.445-16.665 15.973-16.665 28.084 0 5.508 1.406 10.685 3.846 15.208 1.998-.567 12.724-4.224 17.028-18.219m22.256 6.816c-4.296 13.948 2.464 22.978 3.831 24.609 10.259-5.358 17.289-16.059 17.289-28.415 0-5.256-1.295-10.205-3.546-14.578-1.493.394-13.119 3.932-17.573 18.384m-2.385-.733c4.802-15.602 16.657-20.291 18.126-20.811-5.758-8.621-15.583-14.31-26.742-14.31-4.312 0-8.396.859-12.147 2.388.916 1.269 8.08 11.781 3.278 27.375-4.573 14.877-15.235 19.724-17.47 20.598 5.805 8.29 15.425 13.735 26.34 13.735 4.052 0 7.914-.788 11.492-2.151-1.374-1.986-7.448-11.97-2.875-26.824m-173.938 237.639l-19.405 36.366c-.324.615-.087 1.355.529 1.678.608.331 1.358.102 1.682-.512l19.405-36.358c.316-.607.079-1.363-.513-1.678-.616-.323-1.382-.095-1.698.504m43.209 12.939l-13.869 30.834c-.276.615 0 1.363.632 1.647.624.276 1.374 0 1.643-.623l13.861-30.842c.276-.623.008-1.355-.624-1.639-.624-.284-1.374 0-1.643.623m50.042-19.779l-5.126 16.115c-.213.654.15 1.347.806 1.56.656.205 1.358-.15 1.564-.812l5.126-16.107c.213-.654-.15-1.355-.806-1.56-.656-.221-1.358.158-1.564.804m-8.735 27.997l-27.366 86.207c-.213.654.15 1.347.813 1.568.648.205 1.351-.158 1.556-.812l27.366-86.207c.221-.654-.142-1.347-.798-1.568-.656-.205-1.358.165-1.572.812m36.963-9.834l-6.776 31.662c-.15.67.284 1.332.956 1.474.679.15 1.343-.284 1.477-.953l6.792-31.67c.134-.67-.284-1.332-.948-1.466-.687-.15-1.343.276-1.501.953m-30.415-176.843l-34.443 61.393c-.332.599-.111 1.347.482 1.686.6.339 1.366.126 1.706-.473l34.427-61.393c.332-.599.126-1.347-.482-1.686-.6-.339-1.351-.126-1.69.473m95.984-41.149l-11.428 53.292c-.158.741.316 1.466 1.05 1.623.75.158 1.469-.307 1.635-1.048l11.428-53.3c.142-.741-.316-1.474-1.058-1.631-.735-.142-1.469.315-1.627 1.064m-20.566 11.576l-12.273 51.638c-.174.749.284 1.489 1.035 1.655.727.181 1.461-.276 1.643-1.024l12.258-51.63c.174-.733-.276-1.466-1.011-1.647-.742-.181-1.485.276-1.651 1.009m-12.654-1.349l-20.582 63.253c-.229.717.158 1.489.885 1.726.719.236 1.493-.158 1.722-.883l20.59-63.253c.221-.717-.158-1.481-.892-1.726-.719-.229-1.485.158-1.722.883m-29.057-28.809l-26.75 46.665c-.371.654-.142 1.489.513 1.868.656.37 1.493.142 1.872-.512l26.75-46.665c.371-.654.142-1.489-.513-1.86-.663-.378-1.493-.15-1.872.504m15.606 22.017l-19.54 41.898c-.324.686-.024 1.489.663 1.812.687.323 1.509.016 1.832-.67l19.524-41.882c.324-.686.024-1.505-.656-1.828-.695-.307-1.509-.016-1.824.67m9.992 190.948l-6.366 34.357c-.134.678.316 1.324.995 1.45.671.118 1.327-.315 1.453-.993l6.374-34.365c.134-.678-.324-1.324-1.003-1.45-.679-.126-1.327.323-1.453 1.001" fill="#D92A2F" sketch:type="MSShapeGroup"/><path d="M437.487 233.518h-1.745v4.712h-1.161v-4.712h-1.738v-1.024h4.644v1.024zm7.882 4.712h-1.177v-4.563h-.024l-1.674 4.563h-1.145l-1.603-4.563h-.024v4.563h-1.177v-5.737h2.038l1.343 3.743h.016l1.406-3.743h2.022v5.737z" fill="#263667" sketch:type="MSShapeGroup"/></g></svg>