<svg width="512" height="512" viewBox="0 0 512 512" version="1.1" xmlns="http://www.w3.org/2000/svg" xmlns:sketch="http://www.bohemiancoding.com/sketch/ns"><title>san-francisco-giants</title><desc>Created with Sketch.</desc><g sketch:type="MSLayerGroup" stroke="none" stroke-width="1" fill="none"><path d="M122.205 255.412c0 71.911 58.615 130.403 130.647 130.403 72.033 0 130.659-58.492 130.659-130.403 0-71.913-58.624-130.412-130.659-130.412s-130.647 58.499-130.647 130.412zm8.335 0c0-67.323 54.869-122.097 122.312-122.097 67.452 0 122.328 54.774 122.328 122.097 0 67.318-54.876 122.094-122.328 122.094-67.441 0-122.312-54.774-122.312-122.094z" fill="#BC9B6A" sketch:type="MSShapeGroup"/><path d="M252.853 381.673c69.846 0 126.489-56.53 126.489-126.259 0-69.728-56.643-126.259-126.489-126.259-69.855 0-126.482 56.53-126.482 126.259 0 69.728 56.627 126.259 126.482 126.259" fill="#fff" sketch:type="MSShapeGroup"/><path d="M128.503 272.631c-.388 0-.698.048-.952.134-.148-1.192-.31-2.39-.436-3.609.269.075.813.121 1.395.121 1.169 0 1.607 1.166 1.607 1.736 0 .558-.313 1.618-1.614 1.618m250.838-17.219c0 69.731-56.643 126.259-126.489 126.259-21.256 0-41.28-5.238-58.861-14.487.121-.103.187-.248.187-.41 0-.33-.267-.597-.589-.597-.288 0-.516.219-.575.494-5.528-2.978-10.809-6.35-15.813-10.088l.007-.075c0-.41-.333-.743-.746-.743-.107 0-.201.014-.285.048-.902-.663-1.771-1.362-2.648-2.064.201-.159.32-.387.32-.654 0-.453-.349-.832-.815-.832-.326 0-.605.196-.739.462-.849-.709-1.707-1.438-2.547-2.158.436-.066.774-.435.774-.907 0-.494-.411-.895-.913-.895-.482 0-.886.383-.902.873-.892-.793-1.767-1.597-2.632-2.417l.112.005c.536 0 .984-.435.984-.984 0-.542-.445-.98-.984-.98-.555 0-.993.435-.993.98l.014.155c-.856-.822-1.707-1.672-2.545-2.511l.091.005c.598 0 1.075-.476 1.075-1.064 0-.597-.477-1.064-1.075-1.064-.577 0-1.07.467-1.07 1.064l.011.057c-.749-.77-1.488-1.554-2.212-2.358.564-.057.993-.542.993-1.121 0-.636-.516-1.144-1.146-1.144-.536 0-.991.36-1.107.863-.605-.672-1.191-1.349-1.783-2.041.415-.196.698-.617.698-1.094 0-.677-.552-1.228-1.235-1.228-.411 0-.765.196-.993.508l-1.57-1.948c.187-.21.292-.467.292-.752 0-.631-.53-1.153-1.15-1.153-.185 0-.345.052-.507.125-3.494-4.598-6.69-9.455-9.543-14.524.582-.066 1.431-.396 1.431-1.545 0-1.476.169-1.695 1.78-1.695.824 0 1.589.695 1.589 1.695s-.429 1.793-1.605 1.793c-1.187 0-1.623.499-1.623 1.611 0 1.13.892 1.634 1.623 1.634.719 0 1.623-.503 1.623-1.634 0-1.112.724-1.54 1.817-1.54.664 0 1.511.77 1.511 1.54 0 .784-.217 1.741-1.529 1.741-1.463 0-1.698.522-1.698 1.686 0 1.087.84 1.695 1.698 1.695 1.65 0 1.689-.046 1.689-1.695 0-1.082.655-1.504 1.757-1.504.281 0 1.468.508 1.468 1.504 0 .699-.128 1.563-1.468 1.563-1.689 0-1.757.134-1.757 1.855 0 .579.404 1.754 1.741 1.754 1.632 0 1.664.032 1.664 1.668 0 .699.208 1.761 1.757 1.761 1.547 0 1.632.018 1.632 1.663 0 .56.26 1.784 1.796 1.784 1.707 0 1.662.066 1.662 1.638 0 .775.477 1.754 1.762 1.754 1.659 0 1.764-.2 1.764-1.754 0-.822.47-1.469 1.689-1.469.63 0 1.456.645 1.456 1.469 0 1.032-.47 1.677-1.477 1.677-1.623 0-1.744.271-1.744 1.741 0 1.121.792 1.736 1.744 1.736.947 0 1.739-.704 1.739-1.736 0-.69.422-1.469 1.716-1.469.589 0 1.461.677 1.461 1.472 0 .556-.08 1.638-1.461 1.638-1.388 0-1.716.139-1.716 1.779 0 1.419 1.169 1.686 1.682 1.686.511 0 1.689-.342 1.689-1.686 0-.998.799-1.563 1.757-1.563.724 0 1.595.538 1.595 1.563 0 1.611-.655 1.793-1.614 1.793-1.294 0-1.63.155-1.63 1.634 0 1.424 1.198 1.611 1.63 1.611.422 0 1.623-.187 1.623-1.611 0-1.428.253-1.695 1.824-1.695.835 0 1.716.822 1.716 1.695 0 1.677.1 1.77 1.707 1.77 1.262 0 1.687.214 1.687 1.634 0 1.185.05 1.779 1.741 1.779s1.675.084 1.675 1.656c0 .77.148 1.82 1.751 1.82 1.605 0 1.778-1.26 1.778-1.82 0-.57.336-1.638 1.623-1.638s1.634.98 1.634 1.638c0 1.583-.066 1.624-1.634 1.624-1.395 0-1.495 1.228-1.495 1.788s.47 1.563 1.529 1.563c1.379 0 1.682-.832 1.682-1.563 0-1.634.05-1.7 1.716-1.7 1.207 0 1.712.797 1.712 1.7 0 1.383.372 1.704 1.716 1.704 1.851 0 1.835-.057 1.835-1.713 0-.56.342-1.583 1.589-1.583 1.251 0 1.595 1.032 1.595 1.583 0 .565-.098 1.588-1.595 1.588-1.479 0-1.7.155-1.7 1.839 0 1.135.591 1.558 1.716 1.558 1.134 0 1.751-.21 1.751-1.558 0-1.344 1.191-1.663 1.664-1.663.472 0 1.666.406 1.666 1.663 0 1.517.126 1.647 1.764 1.647 1.657 0 1.764.032 1.764 1.775 0 .993.429 1.554 1.673 1.554 1.262 0 1.639-.333 1.639-1.554 0-1.205 1.084-1.718 1.762-1.718.698 0 1.728.513 1.728 1.718 0 1.219.199 1.82 1.723 1.82 1.739 0 1.728-.267 1.728-1.82 0-.863.641-1.668 1.682-1.668 1.045 0 1.666.588 1.666 1.668 0 1.779.034 1.77 1.783 1.77 1.73 0 1.712.103 1.712 1.656 0 1.205.842 1.554 1.71 1.554.865 0 1.73-.294 1.73-1.554s.007-1.606 1.689-1.606c1.698 0 1.732.431 1.732 1.606 0 1.166.532 1.554 1.7 1.554 1.175 0 1.764-.294 1.764-1.554s.1-1.656 1.664-1.656c1.561 0 1.716.444 1.716 1.656 0 1.205.536 1.554 1.707 1.554 1.169 0 1.773-.21 1.773-1.554 0-1.476.073-1.656 1.655-1.656 1.739 0 1.776.232 1.776 1.656s.605 1.554 1.646 1.554c1.052 0 1.817-.084 1.817-1.554 0-1.476.007-1.656 1.614-1.656 1.598 0 1.725.139 1.725 1.656 0 1.041 1 1.508 1.696 1.508.698 0 1.771-.383 1.771-1.508 0-1.606-.135-1.798-1.771-1.798-1.63 0-1.611-.107-1.611-1.629 0-.902.559-1.615 1.611-1.615 1.054 0 1.634.668 1.634 1.615 0 1.731.151 1.82 1.799 1.82 1.636 0 1.751-.048 1.751-1.82 0-.863.58-1.668 1.671-1.668 1.091 0 1.68.72 1.68 1.668 0 1.611.705 1.82 1.751 1.82 1.041 0 1.705-.517 1.705-1.82 0-1.299 1.061-1.718 1.725-1.718 1.63 0 1.723.159 1.723 1.718 0 1.383 1.178 1.611 1.7 1.611.523 0 1.652-.36 1.652-1.611 0-1.677-.148-1.798-1.652-1.798-1.495 0-1.623-.182-1.623-1.624 0-.863.53-1.62 1.623-1.62s1.63.713 1.63 1.62c0 1.602.176 1.647 1.799 1.647 1.607 0 1.757-.046 1.757-1.647 0-.957.657-1.663 1.666-1.663 1.007 0 1.671.508 1.671 1.663 0 1.166 1.059 1.647 1.751 1.647.698 0 1.705-.387 1.705-1.647 0-1.77-.203-1.839-1.705-1.839-.858 0-1.589-.453-1.589-1.588 0-1.125.888-1.583 1.589-1.583.712 0 1.584.428 1.584 1.583 0 1.606.194 1.713 1.844 1.713 1.664 0 1.707-.182 1.707-1.704 0-.738.404-1.7 1.732-1.7 1.586 0 1.707.191 1.707 1.7 0 .784.619 1.563 1.705 1.563s1.65-.957 1.65-1.563c0-1.299-.742-1.788-1.65-1.788-1.495 0-1.632.009-1.632-1.624 0-1.26.977-1.638 1.632-1.638 1.379 0 1.65.262 1.65 1.638 0 1.289 1.253 1.761 1.778 1.761.516 0 1.769-.21 1.769-1.761 0-1.57.142-1.656 1.662-1.656 1.516 0 1.769-.597 1.769-1.779 0-1.166.128-1.634 1.652-1.634 1.826 0 1.776-.159 1.776-1.77 0-.355.564-1.656 1.657-1.656 1.732 0 1.799.271 1.799 1.656 0 .818.488 1.611 1.623 1.611 1.137 0 1.63-.793 1.63-1.611 0-.832-.511-1.634-1.63-1.634-1.465 0-1.705-.205-1.705-1.793 0-.854 1.061-1.695 1.705-1.695 1.486 0 1.741.738 1.741 1.695 0 .729.463 1.686 1.689 1.686 1.228 0 1.682-.873 1.682-1.686 0-.822-.525-1.695-1.682-1.695-1.159 0-1.395-1.027-1.395-1.722 0-.902.55-1.567 1.395-1.567 1.157 0 1.682.435 1.682 1.563 0 1.121.724 1.736 1.739 1.736 1 0 1.751-.704 1.751-1.736 0-1.041-.671-1.741-1.751-1.741-1.075 0-1.605-.822-1.605-1.677 0-.863.785-1.428 1.605-1.428.824 0 1.671.219 1.671 1.428 0 1.21.87 1.754 1.751 1.754.883 0 1.773-.592 1.773-1.754 0-1.166-.915-1.761-1.773-1.761-.858 0-1.664-.622-1.664-1.661 0-.556.833-1.428 1.664-1.428 1.331 0 1.63.219 1.63 1.428 0 .998.712 1.784 1.803 1.784 1.084 0 1.789-.695 1.789-1.784 0-1.087-.671-1.798-1.789-1.798-1.112 0-1.488-.891-1.488-1.629 0-.542.689-1.428 1.488-1.428 1.529 0 1.666.574 1.666 1.428 0 .873.367 1.761 1.757 1.761 1.395 0 1.762-1.064 1.762-1.761 0-1.554-.322-1.754-1.762-1.754-1.34 0-1.388-1.223-1.388-1.668 0-.431.091-1.387 1.388-1.387 1.315 0 1.696.533 1.696 1.387 0 1.508.192 1.754 1.732 1.754 1.141 0 1.732-.832 1.732-1.754 0-1.303-.146-1.722-1.732-1.722-1.118 0-1.488-1.26-1.488-1.695 0-.841.787-1.469 1.488-1.469 1.689 0 1.732.822 1.732 1.469 0 1.401.144 1.695 1.696 1.695 1.447 0 1.689-1.26 1.689-1.695 0-.428-.224-1.686-1.689-1.686-1.207 0-1.57-.435-1.57-1.741 0-.939.73-1.677 1.57-1.677 1.828 0 1.81.993 1.81 1.677 0 .709.301 1.634 1.623 1.634 1.301 0 1.623-1.103 1.623-1.634 0-.513-.342-1.611-1.623-1.611-1.294 0-1.623-1.451-1.623-1.793 0-.351.434-1.695 1.623-1.695 1.824 0 1.808-.084 1.808-1.731 0-1.121.47-1.695 1.616-1.695 1.646 0 1.856-.342 1.856-1.718 0-1.392.046-1.652 1.573-1.652.771 0 1.851-.346 1.851-1.779 0-1.428-1.002-1.704-1.851-1.704-.865 0-1.723-.499-1.723-1.704 0-1.223.924-1.713 1.723-1.713 1.563 0 1.712.144 1.712 1.713 0 1.283.582 1.554 1.71 1.554 1.125 0 1.641-.729 1.641-1.554 0-.832-.388-1.704-1.641-1.704-1.538 0-1.723-.103-1.723-1.722 0-.779.413-1.713 1.723-1.713 1.751 0 1.767-.191 1.767-1.709 0-1.517 0-1.731 1.652-1.731 1.096 0 1.735-.779 1.735-1.686 0-.916-.345-1.761-1.735-1.761-1.376 0-1.652-1.014-1.652-1.661 0-.654.386-1.656 1.652-1.656 1.703 0 1.817-.21 1.817-1.761 0-1.563.039-1.736 1.607-1.736.934 0 1.703-.822 1.703-1.686 0-.873-.532-1.69-1.703-1.69-1.159 0-1.607-.859-1.607-1.727 0-.873.979-1.727 1.607-1.727.657 0 1.949-.052 1.949-1.695 0-1.656-.819-1.798-1.949-1.798-1.109 0-1.614-.807-1.614-1.62 0-.832.477-1.629 1.614-1.629 1.632 0 1.641.057 1.641 1.629 0 .56.479 1.677 1.796 1.677 1.312 0 1.68-1.205 1.68-1.677 0-.476-.301-1.686-1.68-1.686-1.682 0-1.577-.529-1.577-1.736 0-1.21.235-1.741 1.577-1.741 1.337 0 1.716-.645 1.716-1.686 0-1.032-.283-1.686-1.716-1.686-1.436 0-1.623-.77-1.623-1.727 0-.957.5-1.741 1.623-1.741 1.118 0 1.851-.467 1.851-1.688 0-1.205-.47-1.693-1.851-1.693-1.379 0-1.721-1.21-1.721-1.729 0-.522.37-1.713 1.721-1.713 1.358 0 1.894-.485 1.894-1.702 0-1.21-.482-1.757-1.894-1.757-1.422 0-1.721-1.267-1.721-1.702 0-.437.192-1.722 1.721-1.722 1.522 0 1.894-.497 1.894-1.661 0-1.164-.516-1.738-1.894-1.738-1 0-1.623-.469-1.623-1.677 0-1.217.5-1.738 1.623-1.738 1.118 0 1.851-.645 1.851-1.686s-.514-1.779-1.851-1.779c-1.344 0-1.664-.034-1.664-1.645 0-1.602.313-1.768 1.664-1.768.783 0 1.68-.522 1.68-1.69 0-1.164-.829-1.684-1.68-1.684-.854 0-1.735.647-1.735 1.684 0 1.428-.023 1.69-1.703 1.69-1.191 0-1.673-.998-1.673-1.69 0-.695.381-1.684 1.673-1.684 1.671 0 1.908-.134 1.908-1.695 0-1.554-.304-1.72-1.908-1.72-1.203 0-1.607-1.082-1.607-1.695 0-.606.356-1.779 1.607-1.779 1.269 0 1.703-1.082 1.703-1.686 0-.613-.233-1.686-1.703-1.686-1.454 0-1.57-.043-1.57-1.677 0-1.654-.039-1.779-1.856-1.779-.904 0-1.477-.998-1.477-1.654 0-.656.185-1.779 1.477-1.779 1.306 0 1.856-.645 1.856-1.636 0-.993-1.08-1.873-1.856-1.873-1.292 0-1.557-.41-1.557-1.554 0-1.82-.014-1.736-1.862-1.736-1.128 0-1.71-.9-1.71-1.677 0-.791.502-1.823 1.71-1.823 1.212 0 1.641-.829 1.641-1.604 0-.779-.039-1.811-1.641-1.811-1.605 0-2.068 1.125-2.068 1.82 0 .69-.402 1.376-1.353 1.376-.961 0-1.374-.811-1.374-1.376 0-1.082.657-1.483 1.374-1.483 1.563 0 1.851-.597 1.851-1.946 0-1.335-.742-1.823-1.851-1.823-.575 0-1.623.05-1.623-1.593s-.043-1.77-1.805-1.77c-.87 0-1.751-.531-1.751-1.654 0-1.125.781-1.779 1.751-1.779.965 0 1.689-.513 1.689-1.677 0-1.185-.959-1.686-1.689-1.686-.724 0-1.689.433-1.689 1.686 0 1.242-.71 1.727-1.735 1.727-1.045 0-1.623-.779-1.623-1.686 0-.914.698-1.677 1.623-1.677.915 0 1.787-.529 1.787-1.788 0-1.248-.922-1.896-1.787-1.896-.874 0-1.799.822-1.799 1.896 0 1.087-.591 1.513-1.634 1.513-1.041 0-1.438-1.075-1.438-1.463 0-1.091.632-1.67 1.438-1.67 1.609 0 1.803-1.358 1.803-1.795 0-.435-.253-1.786-1.803-1.786-1.552 0-1.589-.075-1.589-1.636 0-.469-.253-1.832-1.84-1.832-1.598 0-1.598-.023-1.598-1.602 0-.556-.267-1.813-1.83-1.813-1.541 0-1.593-.043-1.593-1.595 0-.56-.322-1.827-1.83-1.827-1.504 0-1.632-.068-1.632-1.595 0-.738-.354-1.788-1.801-1.788-1.417 0-1.63-.378-1.63-1.629 0-.822-.326-1.786-1.792-1.786-1.945 0-1.712-.982-1.712-1.595 0-.597-.288-1.738-1.71-1.738-1.666 0-1.721 0-1.721-1.72 0-1.476-1.143-1.702-1.71-1.702-.545 0-1.705.175-1.705 1.702 0 1.513-1.374 1.561-1.716 1.561-.981 0-1.657-.754-1.657-1.517 0-1.344 1.294-1.795 1.657-1.795.354 0 1.671-.15 1.671-1.629 0-1.469-1.164-1.713-1.671-1.713-.511 0-1.673.244-1.673 1.672 0 1.424-1.064 1.686-1.76 1.686-.694 0-1.611-.296-1.611-1.647 0-1.638-.091-1.82-1.81-1.82-1.308 0-1.662-.428-1.662-1.597 0-1.176-.413-1.811-1.769-1.811-1.344 0-1.712-.485-1.712-1.602 0-1.125-.682-1.722-1.716-1.722-1.018 0-1.712.715-1.712 1.722 0 .991-.758 1.469-1.7 1.469-.968 0-1.671-.522-1.671-1.469 0-1.638.023-1.829 1.671-1.829.908 0 1.579-.663 1.579-1.595 0-.923-.698-1.595-1.579-1.595-.918 0-1.598.638-1.598 1.595 0 1.51-.073 1.602-1.842 1.602-1.294 0-1.698-.955-1.698-1.602 0-.647-.212-1.991-1.73-1.991-1.506 0-1.853.952-1.853 1.991 0 1.041-.829 1.577-1.57 1.577-.742 0-1.6-.627-1.6-1.577 0-.957.808-1.768 1.6-1.768.739 0 1.639-.396 1.639-1.647s-1.212-1.67-1.639-1.67c-.438 0-1.65.15-1.65 1.67 0 1.508-.997 1.704-1.773 1.704-.792 0-1.726-.453-1.726-1.704s-.568-1.905-1.703-1.905c-1.128 0-1.835.56-1.835 1.905 0 1.344-1.287 1.602-1.589 1.602-.313 0-1.623-.257-1.623-1.602 0-1.344.799-1.889 1.623-1.889.815 0 1.531-.588 1.531-1.545 0-.95-.714-1.554-1.531-1.554-.824 0-1.557.729-1.557 1.554 0 1.654-.397 1.613-1.874 1.613-1.479 0-1.751-.529-1.751-1.613s-.899-1.695-1.68-1.695c-.785 0-1.698.572-1.698 1.695 0 1.132-.596 1.561-1.723 1.561-1.128 0-1.6-.428-1.6-1.561 0-1.123-1.054-1.839-1.833-1.839-.783 0-1.84.681-1.84 1.839 0 1.185-.5 1.351-1.582 1.351s-1.563-.394-1.563-1.351c0-.95-.792-1.88-1.867-1.88-1.086 0-1.89 1.023-1.89 1.88 0 .863-.404 1.351-1.531 1.351-1.125 0-1.557-.435-1.557-1.351 0-.898-.778-1.88-1.872-1.88-1.08 0-1.894.9-1.894 1.88 0 .998-.619 1.351-1.529 1.351-.906 0-1.577-.312-1.577-1.351 0-1.025-.851-1.88-1.851-1.88-.993 0-1.91.797-1.91 1.88 0 1.082-.737 1.394-1.522 1.394-.771 0-1.602-.212-1.602-1.394 0-1.157-1.08-1.839-1.817-1.839-.733 0-1.876.506-1.876 1.839 0 1.351-.858 1.561-1.545 1.561-.698 0-1.776-.257-1.776-1.561 0-.604-.249-1.007-.571-1.283 2.563-.638 5.163-1.192 7.785-1.677.201.579.74.982 1.383.982.819 0 1.484-.656 1.49-1.463 1.31-.219 2.65-.401 3.985-.576-.066.175-.116.351-.116.549 0 .816.671 1.488 1.502 1.488.813 0 1.484-.672 1.484-1.488 0-.317-.107-.611-.276-.854 1.623-.175 3.273-.326 4.909-.428-.443.251-.739.731-.739 1.283 0 .816.673 1.488 1.488 1.488.826 0 1.488-.672 1.488-1.488 0-.617-.37-1.13-.899-1.358 2.406-.134 4.818-.219 7.256-.219 4.065 0 8.105.2 12.083.579-.347.212-.568.588-.568 1.007 0 .661.532 1.198 1.205 1.198.655 0 1.191-.538 1.191-1.198 0-.335-.142-.647-.377-.866 1.689.187 3.362.378 5.017.631l-.027.223c0 .556.454 1.018 1.007 1.018.552 0 .963-.421 1.023-.932 60.084 9.794 105.945 61.859 105.945 124.598m-235.398 56.636c0 1.647-.121 1.686-1.716 1.686-.495 0-.959.219-1.242.615-.336-.617-.648-1.251-.97-1.877.05-.13.084-.271.084-.428 0-.574-.395-1.078-.918-1.246-1.191-2.433-2.321-4.898-3.362-7.409 1.201-.023 1.235-.2 1.235-1.593 0-.485.253-1.713 1.737-1.713 1.452 0 1.703 1.269 1.703 1.713 0 .428-.142 1.704-1.703 1.704-1.593 0-1.787.066-1.787 1.704 0 1.205.692 1.736 1.794 1.736 1.522 0 1.636.125 1.636 1.695 0 1.554.262 1.779 1.792 1.779 1.112 0 1.716.467 1.716 1.634m-15.253-32.483c-.217-1.148-.436-2.31-.619-3.483.135.027.276.046.443.046.959 0 1.689.854 1.689 1.727 0 .804-.605 1.608-1.513 1.711m3.218 10.203c-.283 0-.536.057-.758.15-.644-2.283-1.223-4.598-1.755-6.937.657.071.717.383.717 1.709 0 1.779.176 1.761 1.794 1.761 1.045 0 1.682.747 1.682 1.656.002.914-.482 1.661-1.68 1.661m3.44 10.323c-.31 0-.552.075-.753.2-.908-2.39-1.744-4.823-2.515-7.293 1.511.018 1.504.355 1.504 1.948 0 1.656.084 1.709 1.762 1.709 1.164 0 1.716.802 1.716 1.713.002.918-.662 1.722-1.714 1.722m-8.566-46.188c0-.406-.135-.775-.386-1.078-.009.729-.021 1.456-.021 2.185.262-.301.406-.679.406-1.107m5.127-32.737c.851 0 1.531-.672 1.531-1.504 0-.813-.655-1.476-1.461-1.501-.288.932-.575 1.852-.842 2.795.235.134.495.21.771.21m-1.72 8.758c0-.652-.379-1.214-.918-1.481-.226 1.048-.445 2.096-.644 3.146.872-.059 1.561-.781 1.561-1.665m5.162-18.93c.849 0 1.547-.69 1.547-1.545 0-.772-.543-1.392-1.267-1.526-.381.939-.751 1.886-1.112 2.825.237.162.52.246.831.246m4.787-11.801c0-.267-.066-.513-.194-.704-.342.672-.689 1.36-1.025 2.046.689-.064 1.219-.636 1.219-1.342m2.07-2.165c.705 0 1.276-.563 1.276-1.267 0-.697-.571-1.269-1.276-1.269l-.16.018c-.338.604-.657 1.198-.979 1.804.196.419.63.713 1.139.713m-13.696 41.333c.849 0 1.547-.697 1.547-1.554 0-.845-.698-1.545-1.547-1.545-.203 0-.37.036-.548.093-.144.891-.269 1.786-.404 2.677.26.203.589.328.952.328m41.135-75.384c.771 0 1.392-.638 1.392-1.408 0-.713-.527-1.303-1.226-1.385-.523.46-1.064.941-1.579 1.408.007.756.632 1.385 1.413 1.385m3.413-3.313c.84 0 1.522-.681 1.522-1.522 0-.554-.315-1.039-.758-1.299-.742.588-1.47 1.182-2.193 1.786.21.595.765 1.034 1.429 1.034m3.428-3.532c.776 0 1.395-.631 1.395-1.403 0-.301-.1-.579-.26-.8-.746.538-1.484 1.1-2.221 1.663.256.317.644.54 1.086.54m3.423-3.361c.808 0 1.472-.645 1.472-1.469l-.007-.066c-.68.469-1.356.948-2.02 1.426.169.071.361.109.555.109m-13.696 13.631c.776 0 1.406-.629 1.406-1.417 0-.775-.63-1.413-1.406-1.413l-.183.027-1.21 1.176-.027.212c0 .786.641 1.415 1.42 1.415m-3.433 3.356c.744 0 1.351-.601 1.351-1.351 0-.736-.607-1.342-1.351-1.342-.112 0-.215.018-.306.043-.351.335-.673.688-1.016 1.039l-.025.26c0 .75.603 1.351 1.347 1.351m-3.426 3.418c.746 0 1.365-.606 1.365-1.344 0-.747-.619-1.344-1.365-1.344l-.084.011c-.431.46-.838.914-1.258 1.39.039.724.63 1.287 1.342 1.287m-3.424 3.421c.742 0 1.347-.606 1.347-1.353 0-.636-.443-1.164-1.041-1.308-.511.613-1.032 1.233-1.541 1.852.212.474.689.809 1.235.809m-3.428 3.315c.698 0 1.246-.551 1.246-1.233 0-.435-.212-.807-.53-1.023-.511.654-1.018 1.292-1.513 1.952.208.194.493.303.797.303m-3.428 3.435c.698 0 1.262-.574 1.262-1.253 0-.166-.034-.342-.103-.497-.413.574-.815 1.16-1.226 1.738l.066.011m44.542-37.269c.89 0 1.605-.72 1.605-1.602 0-.472-.21-.9-.548-1.192-.874.462-1.757.923-2.629 1.41.1.77.776 1.383 1.573 1.383m161.037 105.773c.753 0 1.376-.604 1.376-1.358 0-.756-.621-1.372-1.376-1.372-.755 0-1.36.615-1.36 1.372 0 .754.605 1.358 1.36 1.358m-6.85-.731c.345 0 .63-.285.63-.627 0-.344-.285-.615-.63-.615-.351 0-.63.269-.63.615 0 .342.278.627.63.627m-3.421 3.037c.128 0 .235-.107.235-.248 0-.134-.107-.244-.235-.244-.142 0-.253.112-.253.244 0 .144.112.248.253.248m11.636-3.675c0-.754-.623-1.367-1.379-1.367-.749 0-1.365.613-1.365 1.367 0 .747.616 1.369 1.365 1.369.753 0 1.379-.622 1.379-1.369m-3.787 3.427c0-.563-.459-1.014-1.009-1.014-.571 0-1.025.451-1.025 1.014 0 .545.454 1.005 1.025 1.005.55.002 1.009-.46 1.009-1.005m-3.784 3.415c0-.362-.29-.663-.664-.663-.349 0-.65.301-.65.663 0 .358.301.654.65.654.374 0 .664-.296.664-.654m-3.764 3.422c0-.173-.151-.308-.308-.308-.176 0-.304.134-.304.308 0 .169.128.308.304.308.155-.002.308-.139.308-.308m11.346-3.422c0-.745-.621-1.351-1.376-1.351-.755 0-1.36.606-1.36 1.351 0 .763.605 1.369 1.36 1.369.753 0 1.376-.604 1.376-1.369m-3.784 3.433c0-.556-.454-1.009-1.009-1.009-.566 0-1.02.453-1.02 1.009 0 .551.454 1.005 1.02 1.005.555.002 1.009-.451 1.009-1.005m-3.787 3.413c0-.36-.288-.654-.655-.654-.37 0-.664.294-.664.654 0 .36.294.663.664.663.367.002.655-.301.655-.663m-3.594 3.427c0-.28-.221-.481-.482-.481-.276 0-.491.2-.491.481 0 .267.215.476.491.476.26 0 .482-.207.482-.476m-3.611 10.261c0-.173-.128-.312-.299-.312-.171 0-.315.139-.315.312 0 .159.144.294.315.294s.299-.132.299-.294m-17.235 30.784c0-.112-.089-.205-.201-.205-.114 0-.187.093-.187.205 0 .103.073.187.187.187.112 0 .201-.084.201-.187m30.635-59.559c.753 0 1.376.613 1.376 1.369 0 .747-.621 1.367-1.376 1.367-.755 0-1.36-.617-1.36-1.367 0-.759.605-1.369 1.36-1.369m-6.85.739c.345 0 .63.278.63.629 0 .342-.285.627-.63.627-.351 0-.63-.285-.63-.627 0-.351.278-.629.63-.629m-3.421-3.033c.128 0 .235.112.235.246 0 .132-.107.235-.235.235-.142 0-.253-.103-.253-.235 0-.134.112-.246.253-.246m11.636 3.67c0 .747-.623 1.358-1.379 1.358-.749 0-1.365-.611-1.365-1.358 0-.747.616-1.372 1.365-1.372.753.002 1.379.624 1.379 1.372m-3.787-3.417c0 .554-.459 1.007-1.009 1.007-.571 0-1.025-.453-1.025-1.007 0-.56.454-1.005 1.025-1.005.55 0 1.009.444 1.009 1.005m-3.784-3.422c0 .36-.29.663-.664.663-.349 0-.65-.303-.65-.663 0-.371.301-.663.65-.663.374 0 .664.292.664.663m-3.764-3.424c0 .175-.151.303-.308.303-.176 0-.304-.128-.304-.303 0-.159.128-.294.304-.294.155 0 .308.132.308.294m11.346 3.417c0 .754-.621 1.358-1.376 1.358-.755 0-1.36-.604-1.36-1.358 0-.756.605-1.362 1.36-1.362.753 0 1.376.606 1.376 1.362m-3.784-3.426c0 .563-.454 1.014-1.009 1.014-.566 0-1.02-.451-1.02-1.014 0-.554.454-1.005 1.02-1.005.555-.002 1.009.451 1.009 1.005m-3.787-3.415c0 .362-.288.663-.655.663-.37 0-.664-.301-.664-.663 0-.362.294-.654.664-.654.367 0 .655.289.655.654m2.764-18.605c.842 0 1.516.663 1.516 1.501 0 .832-.673 1.504-1.516 1.504-.831 0-1.502-.672-1.502-1.504 0-.838.671-1.501 1.502-1.501m-23.616-29.237c0 .21-.157.369-.365.369-.205 0-.365-.159-.365-.369 0-.203.16-.36.365-.36.208-.002.365.157.365.36m-17.494-29.205c-.858 0-1.57-.699-1.57-1.579 0-.863.714-1.567 1.57-1.567 1.429 0 1.573-.016 1.573 1.567.002.882-.708 1.579-1.573 1.579m-61.112-15.248c0-.319-.249-.56-.564-.56-.306 0-.552.241-.552.56 0 .312.247.551.552.551.315 0 .564-.239.564-.551m6.863 0c0-.319-.26-.56-.575-.56-.31 0-.55.241-.55.56 0 .312.24.551.55.551.315 0 .575-.239.575-.551m-3.793 3.413c0-.107-.082-.2-.203-.2-.119 0-.219.093-.219.2 0 .121.1.203.219.203.121 0 .203-.082.203-.203m-9.878-3.413c0-.333-.278-.606-.616-.606-.322 0-.598.271-.598.606 0 .319.276.595.598.595.336 0 .616-.276.616-.595m3.024 3.413c0-.107-.091-.2-.201-.2-.114 0-.21.093-.21.2 0 .121.096.203.21.203.11 0 .201-.082.201-.203m16.141-3.413c0-.435.345-.788.785-.788.434 0 .792.351.792.788 0 .428-.356.781-.792.781-.441 0-.785-.355-.785-.781m6.628 0c0-.554.463-1.023 1.016-1.023.555 0 1 .469 1 1.023 0 .551-.443 1.005-1 1.005-.552 0-1.016-.453-1.016-1.005m6.626 0c0-.69.564-1.233 1.244-1.233.682 0 1.226.542 1.226 1.233 0 .672-.543 1.223-1.226 1.223-.68 0-1.244-.551-1.244-1.223m6.633 0c0-.813.657-1.46 1.463-1.46.808 0 1.463.645 1.463 1.46 0 .797-.655 1.454-1.463 1.454-.806 0-1.463-.656-1.463-1.454m25.903 23.945c0 .248-.201.442-.454.442-.249 0-.463-.194-.463-.442 0-.262.215-.456.463-.456.253-.002.454.191.454.456m-3.339-3.434c0 .301-.24.545-.548.545-.29 0-.536-.244-.536-.545 0-.287.246-.531.536-.531.306-.002.548.244.548.531m-3.344-3.415c0 .342-.29.627-.625.627-.351 0-.621-.285-.621-.627 0-.335.269-.622.621-.622.336-.002.625.285.625.622m-3.342-3.417c0 .387-.317.706-.714.706-.383 0-.712-.319-.712-.706 0-.396.329-.72.712-.72.397-.002.714.324.714.72m-3.339-3.418c0 .437-.356.793-.806.793-.436 0-.799-.353-.799-.793 0-.435.361-.797.799-.797.45 0 .806.36.806.797m-35.062-6.413c.237 0 .429-.2.429-.435s-.192-.433-.429-.433c-.246 0-.429.2-.429.433 0 .235.18.435.429.435m6.852.232c.358 0 .657-.305.657-.668 0-.36-.299-.652-.657-.652-.361 0-.655.292-.655.652 0 .362.292.668.655.668m6.861.208c.477 0 .881-.385.881-.875 0-.485-.404-.879-.881-.879-.495 0-.876.394-.876.879 0 .49.381.875.876.875m6.845.232c.614 0 1.096-.503 1.096-1.107 0-.601-.484-1.105-1.096-1.105-.607 0-1.105.506-1.105 1.105-.002.606.498 1.107 1.105 1.107m-3.431 2.745c.235 0 .434-.194.434-.435 0-.228-.201-.428-.434-.428-.231 0-.438.2-.438.428-.002.241.208.435.438.435m6.859.228c.361 0 .655-.303.655-.663 0-.36-.294-.654-.655-.654-.363 0-.664.294-.664.654 0 .36.299.663.664.663m6.858.219c.47 0 .87-.385.87-.882 0-.476-.399-.866-.87-.866-.491 0-.895.39-.895.866.002.497.406.882.895.882m-3.437 2.971c.244 0 .429-.196.429-.428 0-.232-.183-.428-.429-.428-.228 0-.42.196-.42.428 0 .232.192.428.42.428m0-5.951c.742 0 1.335-.588 1.335-1.319 0-.718-.593-1.324-1.335-1.324-.73 0-1.328.606-1.328 1.324 0 .731.596 1.319 1.328 1.319m6.85.235c.858 0 1.568-.695 1.568-1.554 0-1.367.066-1.558-1.568-1.558-.847 0-1.55.695-1.55 1.558.002.859.703 1.554 1.55 1.554m3.428 3.314c.808 0 1.463-.645 1.463-1.451 0-1.032-.162-1.451-1.463-1.451-.794 0-1.458.645-1.458 1.451 0 .807.666 1.451 1.458 1.451m3.43 3.34c.753 0 1.358-.606 1.358-1.369 0-.745-.605-1.36-1.358-1.36-.762 0-1.369.615-1.369 1.36.002.765.607 1.369 1.369 1.369m3.422 3.324c.703 0 1.28-.572 1.28-1.278 0-.697-.577-1.26-1.28-1.26-.694 0-1.269.563-1.269 1.26.002.706.577 1.278 1.269 1.278m3.432 3.324c.641 0 1.173-.522 1.173-1.176 0-.647-.53-1.169-1.173-1.169-.644 0-1.182.522-1.182 1.169.002.654.539 1.176 1.182 1.176m3.428 3.324c.591 0 1.07-.49 1.07-1.084 0-.59-.479-1.084-1.07-1.084-.598 0-1.086.494-1.086 1.084.002.597.491 1.084 1.086 1.084m3.424 3.331c.536 0 .986-.437.986-.993 0-.545-.447-.991-.986-.991-.555 0-.993.444-.993.991.002.556.438.993.993.993m3.421 3.322c.495 0 .892-.403.892-.891 0-.494-.397-.891-.892-.891s-.881.396-.881.891c.002.49.386.891.881.891m3.422 3.324c.447 0 .803-.362.803-.8 0-.433-.354-.786-.803-.786-.427 0-.792.351-.792.786.002.437.367.8.792.8m10.855 16.308c0 .31-.262.563-.571.563-.315 0-.564-.253-.564-.563 0-.312.249-.572.564-.572.308 0 .571.26.571.572m3.615 3.415c0 .428-.336.772-.758.772-.418 0-.765-.344-.765-.772 0-.421.347-.765.765-.765.422 0 .758.344.758.765m3.625 3.422c0 .529-.429.966-.949.966-.536 0-.972-.435-.972-.966 0-.526.434-.964.972-.964.523 0 .949.435.949.964m3.631 3.424c0 .636-.52 1.157-1.157 1.157-.648 0-1.166-.522-1.166-1.157 0-.647.518-1.166 1.166-1.166.637.002 1.157.519 1.157 1.166m3.618 3.413c0 .756-.6 1.362-1.347 1.362-.749 0-1.367-.606-1.367-1.362 0-.745.619-1.358 1.367-1.358.746.002 1.347.613 1.347 1.358m2.074 1.866c-.858 0-1.545.699-1.545 1.563 0 .854.687 1.545 1.545 1.545.865 0 1.563-.69 1.563-1.545 0-.866-.698-1.563-1.563-1.563m-6.849-13.394c-.703 0-1.274.572-1.274 1.269 0 .704.571 1.267 1.274 1.267.694 0 1.269-.563 1.269-1.267 0-.697-.575-1.269-1.269-1.269m-3.424-3.315c-.65 0-1.189.522-1.189 1.169 0 .652.536 1.176 1.189 1.176.637 0 1.175-.522 1.175-1.176 0-.649-.539-1.169-1.175-1.169m-3.433-3.331c-.605 0-1.075.488-1.075 1.084 0 .586.47 1.073 1.075 1.073.6 0 1.08-.488 1.08-1.073 0-.597-.479-1.084-1.08-1.084m-3.428-3.322c-.536 0-.986.435-.986.989 0 .538.447.984.986.984.555 0 .993-.444.993-.984 0-.554-.438-.989-.993-.989m-3.428-3.324c-.482 0-.892.392-.892.889 0 .488.411.891.892.891.493 0 .888-.403.888-.891 0-.497-.395-.889-.888-.889m-3.424-3.333c-.445 0-.801.353-.801.807 0 .428.354.791.801.791.447 0 .806-.362.806-.791 0-.453-.356-.807-.806-.807m-6.874 1.005c.135 0 .217-.091.217-.2 0-.125-.082-.219-.217-.219-.112 0-.201.093-.201.219 0 .109.089.2.201.2m3.442 3.417c.128 0 .219-.084.219-.203 0-.118-.091-.212-.219-.212-.103 0-.21.093-.21.212 0 .118.107.203.21.203m20.569 41.046c.114 0 .217-.091.217-.21 0-.125-.103-.219-.217-.219-.112 0-.212.093-.212.219 0 .118.1.21.212.21m-2.922-17.317c0 .292-.224.519-.502.519-.297 0-.523-.228-.523-.519 0-.278.228-.508.523-.508.278 0 .502.228.502.508m-3.935 3.638c.121 0 .205-.1.205-.21 0-.118-.084-.219-.205-.219-.116 0-.217.1-.217.219 0 .109.1.21.217.21m-6.856-13.67c.116 0 .224-.103.224-.228 0-.109-.107-.203-.224-.203-.114 0-.212.093-.212.203 0 .125.098.228.212.228m-17.129-23.792c.212 0 .365-.175.365-.369 0-.2-.153-.36-.365-.36-.194 0-.365.159-.365.36 0 .194.171.369.365.369m3.43 3.324c.144 0 .269-.118.269-.278 0-.144-.128-.273-.269-.273-.157 0-.278.132-.278.273 0 .159.121.278.278.278m10.275 10.314c.185 0 .329-.15.329-.33 0-.182-.144-.333-.329-.333-.187 0-.331.15-.331.333.002.18.144.33.331.33m27.405 41.975c.71 0 1.269-.57 1.269-1.267s-.559-1.258-1.269-1.258c-.694 0-1.267.56-1.267 1.258 0 .697.573 1.267 1.267 1.267m-3.419-3.741c.518 0 .943-.428.943-.941 0-.522-.427-.948-.943-.948-.514 0-.94.428-.94.948 0 .513.427.941.94.941m0 6.636c.406 0 .728-.333.728-.738 0-.403-.324-.738-.728-.738-.404 0-.737.335-.737.738 0 .406.333.738.737.738m3.419 3.787c.619 0 1.118-.497 1.118-1.107 0-.604-.502-1.105-1.118-1.105-.605 0-1.093.503-1.093 1.105.002.611.488 1.107 1.093 1.107m3.424 3.868c.867 0 1.566-.697 1.566-1.554 0-.845-.698-1.545-1.566-1.545-.844 0-1.547.699-1.547 1.545 0 .857.703 1.554 1.547 1.554m-10.264-11.361c.242 0 .443-.194.443-.453 0-.241-.201-.444-.443-.444-.253 0-.461.203-.461.444 0 .26.208.453.461.453m0-6.682c.336 0 .609-.267.609-.611 0-.337-.272-.606-.609-.606-.342 0-.612.267-.612.606 0 .344.269.611.612.611m3.421-2.835c.655 0 1.191-.538 1.191-1.185 0-.663-.536-1.201-1.191-1.201-.664 0-1.185.538-1.185 1.201 0 .645.52 1.185 1.185 1.185m-3.421-3.711c.495 0 .899-.403.899-.904 0-.497-.404-.891-.899-.891-.504 0-.904.394-.904.891 0 .501.399.904.904.904m-3.428 2.928c.224 0 .404-.182.404-.401 0-.228-.18-.412-.404-.412-.226 0-.413.185-.413.412 0 .219.187.401.413.401m0-6.596c.349 0 .644-.294.644-.654 0-.36-.294-.654-.644-.654-.365 0-.666.294-.666.654 0 .36.301.654.666.654m13.692 55.642c.874 0 1.598-.709 1.598-1.579 0-.863-.724-1.579-1.598-1.579-.865 0-1.57.715-1.57 1.579.002.87.705 1.579 1.57 1.579m-9.666 8.685c0-.337-.267-.615-.598-.615-.336 0-.612.276-.612.615 0 .333.274.611.612.611.331 0 .598-.276.598-.611m3.739-3.427c0-.503-.413-.911-.915-.911s-.918.41-.918.911c0 .501.415.916.918.916.502 0 .915-.412.915-.916m3.724-3.412c0-.672-.536-1.219-1.221-1.219-.66 0-1.219.547-1.219 1.219 0 .668.559 1.205 1.219 1.205.685.002 1.221-.538 1.221-1.205m.213 6.83c0-.77-.641-1.41-1.433-1.41-.771 0-1.411.64-1.411 1.41 0 .788.639 1.424 1.411 1.424.792 0 1.433-.636 1.433-1.424m-1.434 8.468c.897 0 1.627-.72 1.627-1.62 0-.891-.73-1.62-1.627-1.62-.899 0-1.623.729-1.623 1.62 0 .9.724 1.62 1.623 1.62m-16.666 15.481c0-.257-.205-.453-.459-.453-.249 0-.452.196-.452.453 0 .253.203.453.452.453.253 0 .459-.2.459-.453m3.686-3.422c0-.387-.324-.715-.712-.715-.404 0-.717.33-.717.715 0 .385.315.713.717.713.388 0 .712-.326.712-.713m3.349-10.257c0-.36-.288-.636-.637-.636-.358 0-.648.276-.648.636 0 .351.29.64.648.64.349.002.637-.287.637-.64m.328 6.839c0-.542-.429-.971-.965-.971-.532 0-.979.428-.979.971 0 .522.445.966.979.966.536 0 .965-.444.965-.966m-.965 15.317c.904 0 1.63-.729 1.63-1.643 0-.895-.726-1.62-1.63-1.62-.904 0-1.636.724-1.636 1.62 0 .914.735 1.643 1.636 1.643m7.981-28.995c0-.631-.502-1.148-1.132-1.148-.63 0-1.134.517-1.134 1.148 0 .622.504 1.135 1.134 1.135.63 0 1.132-.51 1.132-1.135m.233 6.839c0-.747-.607-1.358-1.365-1.358-.751 0-1.372.611-1.372 1.358 0 .756.619 1.372 1.372 1.372.758 0 1.365-.615 1.365-1.372m-3.905-3.422c0-.49-.399-.882-.881-.882-.498 0-.881.392-.881.882 0 .494.383.882.881.882.482 0 .881-.387.881-.882m.278 6.84c0-.636-.523-1.157-1.159-1.157-.641 0-1.18.522-1.18 1.157 0 .636.536 1.166 1.18 1.166.637 0 1.159-.529 1.159-1.166m-52.753 51.301c0 .107.082.191.189.191.11 0 .194-.084.194-.191 0-.112-.084-.196-.194-.196-.105 0-.189.084-.189.196m-30.833 10.253c0 .121.098.2.187.2.119 0 .201-.08.201-.2 0-.098-.082-.191-.201-.191-.089 0-.187.093-.187.191m27.156-6.831c0 .253.187.444.454.444.24 0 .443-.191.443-.444 0-.257-.203-.453-.443-.453-.267 0-.454.196-.454.453m-3.697 3.413c0 .396.322.715.714.715.386 0 .705-.321.705-.715 0-.392-.32-.704-.705-.704-.393 0-.714.312-.714.704m-6.592.014c0 .239.201.449.454.449.249 0 .45-.21.45-.449 0-.253-.201-.462-.45-.462-.253 0-.454.207-.454.462m-10.278 3.404c0 .262.205.472.456.472.244 0 .454-.21.454-.472 0-.237-.21-.449-.454-.449-.251 0-.456.212-.456.449m6.597 0c0 .396.32.715.714.715.388 0 .712-.321.712-.715 0-.383-.324-.704-.712-.704-.395 0-.714.321-.714.704m6.591 0c0 .547.429.975.968.975.527 0 .975-.428.975-.975 0-.522-.445-.952-.975-.952-.539 0-.968.431-.968.952m-7.249 6.839c0 .747.623 1.362 1.365 1.362.755 0 1.36-.615 1.36-1.362 0-.743-.605-1.349-1.36-1.349-.742 0-1.365.606-1.365 1.349m3.632-3.404c0 .636.523 1.157 1.164 1.157.644 0 1.157-.522 1.157-1.157 0-.649-.514-1.171-1.157-1.171-.644 0-1.164.519-1.164 1.171m71.275-61.558c0-.891-.705-1.593-1.586-1.593-.874 0-1.582.704-1.582 1.593 0 .863.71 1.579 1.582 1.579 1.47 0 1.586-.093 1.586-1.579m-32.427 38.598c.548 0 .986-.453.986-.993 0-.533-.436-.98-.986-.98-.536 0-.972.444-.972.98.002.538.436.993.972.993m20.567-20.012c.822 0 1.502-.677 1.502-1.49 0-.832-.68-1.513-1.502-1.513-.844 0-1.516.681-1.516 1.513 0 .813.671 1.49 1.516 1.49m-3.433 3.289c.758 0 1.372-.611 1.372-1.372 0-.756-.614-1.372-1.372-1.372-.753 0-1.379.615-1.379 1.372.002.761.625 1.372 1.379 1.372m-3.428 3.293c.682 0 1.248-.547 1.248-1.233 0-.69-.566-1.251-1.248-1.251s-1.246.56-1.246 1.251c0 .686.564 1.233 1.246 1.233m-3.428 3.287c.619 0 1.114-.494 1.114-1.116 0-.601-.495-1.107-1.114-1.107-.609 0-1.105.508-1.105 1.107 0 .624.498 1.116 1.105 1.116m-3.424 3.294c.536 0 .986-.435.986-.984 0-.538-.447-.975-.986-.975-.539 0-.979.435-.979.975.002.547.441.984.979.984m-3.432 3.422c.548 0 .986-.435.986-.989 0-.529-.436-.966-.986-.966-.536 0-.975.435-.975.966.002.551.438.989.975.989m-23.979 21.462c-.831 0-1.502.663-1.502 1.49 0 .841.671 1.504 1.502 1.504 1.616 0 1.509.125 1.509-1.504.002-.827-.678-1.49-1.509-1.49m3.43-3.295c-.762 0-1.369.622-1.369 1.378 0 .752.607 1.376 1.369 1.376.76 0 1.365-.622 1.365-1.376 0-.754-.605-1.378-1.365-1.378m3.422-3.278c-.687 0-1.232.547-1.232 1.233 0 .681.545 1.246 1.232 1.246.696 0 1.239-.565 1.239-1.246 0-.686-.543-1.233-1.239-1.233m3.432-3.306c-.616 0-1.114.513-1.114 1.121 0 .606.5 1.116 1.114 1.116.605 0 1.112-.513 1.112-1.116.002-.611-.507-1.121-1.112-1.121m3.428-3.285c-.543 0-.988.444-.988.984 0 .542.443.984.988.984.536 0 .979-.44.979-.984 0-.538-.441-.984-.979-.984m3.424-3.413c-.545 0-.993.435-.993.975 0 .542.445.98.993.98.536 0 .979-.435.979-.98 0-.538-.441-.975-.979-.975m0-5.513c.194 0 .354-.159.354-.36 0-.187-.16-.342-.354-.342-.201 0-.361.155-.361.342 0 .2.16.36.361.36m3.421-3.418c.194 0 .354-.169.354-.36 0-.191-.16-.351-.354-.351-.183 0-.349.159-.349.351 0 .191.167.36.349.36m3.422-3.422c.205 0 .361-.159.361-.365 0-.182-.155-.351-.361-.351-.192 0-.342.169-.342.351 0 .205.151.365.342.365m3.432-3.283c.267 0 .502-.228.502-.485 0-.267-.235-.503-.502-.503-.269 0-.486.237-.486.503 0 .257.217.485.486.485m3.431-3.287c.342 0 .625-.276.625-.627 0-.346-.283-.622-.625-.622-.345 0-.628.276-.628.622 0 .349.283.627.628.627m3.421-3.272c.434 0 .771-.355.771-.765 0-.428-.336-.775-.771-.775-.422 0-.769.346-.769.775 0 .41.349.765.769.765m3.428-3.283c.5 0 .908-.41.908-.911 0-.49-.411-.895-.908-.895-.498 0-.902.406-.902.895.002.501.404.911.902.911m3.433-3.29c.568 0 1.05-.462 1.05-1.032 0-.579-.482-1.041-1.05-1.041-.58 0-1.045.462-1.045 1.041 0 .57.466 1.032 1.045 1.032m3.424-3.283c.644 0 1.164-.524 1.164-1.176 0-.652-.52-1.185-1.164-1.185-.657 0-1.18.533-1.18 1.185s.523 1.176 1.18 1.176m3.428-3.28c.719 0 1.308-.588 1.308-1.317 0-.734-.589-1.317-1.308-1.317-.73 0-1.322.583-1.322 1.317 0 .731.591 1.317 1.322 1.317m-34.27 32.538c-.194 0-.358.144-.358.342 0 .205.164.369.358.369.201 0 .351-.164.351-.369.002-.2-.151-.342-.351-.342m-3.422 3.278c-.276 0-.504.219-.504.49 0 .267.228.494.504.494.26 0 .491-.228.491-.494 0-.271-.228-.49-.491-.49m-3.432 3.276c-.349 0-.635.285-.635.636 0 .342.285.627.635.627.347 0 .635-.285.635-.627.002-.351-.285-.636-.635-.636m-3.422 3.279c-.429 0-.762.342-.762.775 0 .428.333.77.762.77.431 0 .767-.342.767-.77 0-.433-.333-.775-.767-.775m-3.43 3.296c-.493 0-.913.396-.913.9 0 .503.422.907.913.907.5 0 .904-.406.904-.907s-.404-.9-.904-.9m-3.428 3.286c-.571 0-1.041.462-1.041 1.041 0 .56.47 1.037 1.041 1.037.582 0 1.041-.476 1.041-1.037.002-.579-.459-1.041-1.041-1.041m-3.413 3.269c-.664 0-1.187.538-1.187 1.176 0 .654.523 1.192 1.187 1.192.637 0 1.159-.538 1.159-1.192 0-.636-.52-1.176-1.159-1.176m-3.437 3.29c-.73 0-1.317.592-1.317 1.321 0 .72.587 1.308 1.317 1.308.721 0 1.326-.588 1.326-1.308 0-.731-.605-1.321-1.326-1.321m-44.541 13.107c.84 0 1.529-.686 1.529-1.536 0-.836-.689-1.526-1.529-1.526-.849 0-1.529.69-1.529 1.526 0 .852.68 1.536 1.529 1.536m6.849.045c.883 0 1.589-.709 1.589-1.579s-.708-1.574-1.589-1.574c-.867 0-1.577.704-1.577 1.574 0 .87.71 1.579 1.577 1.579m17.137-3.515c.813 0 1.477-.663 1.477-1.485 0-.807-.664-1.469-1.477-1.469-.815 0-1.479.663-1.479 1.469-.002.822.662 1.485 1.479 1.485m-6.852-.146c.737 0 1.335-.611 1.335-1.34 0-.729-.598-1.326-1.335-1.326-.73 0-1.34.597-1.34 1.326 0 .729.607 1.34 1.34 1.34m-6.854-.148c.657 0 1.194-.522 1.194-1.192 0-.658-.536-1.176-1.194-1.176-.664 0-1.191.517-1.191 1.176-.002.672.527 1.192 1.191 1.192m-6.852-.141c.575 0 1.052-.481 1.052-1.05 0-.579-.477-1.032-1.052-1.032-.571 0-1.041.453-1.041 1.032 0 .57.47 1.05 1.041 1.05m-3.428-3.832c.351 0 .646-.28.646-.636 0-.36-.294-.636-.646-.636-.354 0-.639.276-.639.636 0 .355.285.636.639.636m27.416.537c.648 0 1.178-.522 1.178-1.176 0-.663-.527-1.187-1.178-1.187-.657 0-1.194.524-1.194 1.187-.002.656.536 1.176 1.194 1.176m-6.861-.173c.555 0 1.002-.444 1.002-1 0-.551-.447-.998-1.002-.998-.552 0-1 .444-1 .998-.002.556.447 1 1 1m-6.854-.178c.456 0 .831-.36.831-.822 0-.462-.374-.818-.831-.818-.443 0-.813.355-.813.818 0 .462.367.822.813.822m-6.852-.186c.354 0 .648-.28.648-.636 0-.36-.294-.636-.648-.636-.349 0-.644.276-.644.636 0 .355.294.636.644.636m-3.421-3.693c.201 0 .37-.164.37-.355 0-.214-.169-.369-.37-.369-.201 0-.367.155-.367.369 0 .191.167.355.367.355m27.412.626c.536 0 .954-.449.954-.98 0-.533-.418-.952-.954-.952-.53 0-.979.419-.979.952 0 .531.447.98.979.98m-6.854-.196c.42 0 .765-.342.765-.756 0-.428-.345-.775-.765-.775-.42 0-.762.346-.762.775 0 .415.342.756.762.756m-6.852-.187c.31 0 .555-.244.555-.56 0-.312-.244-.57-.555-.57-.315 0-.571.257-.571.57 0 .317.256.56.571.56m-6.854-.173c.203 0 .372-.159.372-.369s-.169-.36-.372-.36c-.208 0-.367.15-.367.36s.16.369.367.369m-123.367-101.679c-.758 0-1.372-.604-1.372-1.358 0-.756.614-1.372 1.372-1.372.746 0 1.369.615 1.369 1.372 0 .754-.623 1.358-1.369 1.358m6.85-.731c-.342 0-.63-.285-.63-.627 0-.344.288-.615.63-.615.347 0 .63.269.63.615 0 .342-.283.627-.63.627m3.444 3.037c-.153 0-.265-.107-.265-.248 0-.134.112-.244.265-.244.114 0 .224.112.224.244-.002.144-.11.248-.224.248m-11.647-3.675c0-.754.605-1.367 1.363-1.367.755 0 1.369.613 1.369 1.367 0 .747-.614 1.369-1.369 1.369-.758 0-1.363-.622-1.363-1.369m3.782 3.427c0-.563.443-1.014 1.007-1.014.555 0 1.018.451 1.018 1.014 0 .545-.463 1.005-1.018 1.005-.561.002-1.007-.46-1.007-1.005m3.775 3.415c0-.362.297-.663.664-.663.354 0 .646.301.646.663 0 .358-.292.654-.646.654-.367 0-.664-.296-.664-.654m3.782 3.422c0-.173.137-.308.308-.308.162 0 .29.134.29.308 0 .169-.128.308-.29.308-.171-.002-.308-.139-.308-.308m-11.357-3.422c0-.745.614-1.351 1.372-1.351.746 0 1.369.606 1.369 1.351 0 .763-.621 1.369-1.369 1.369-.758 0-1.372-.604-1.372-1.369m3.786 3.433c0-.556.452-1.009.997-1.009.575 0 1.029.453 1.029 1.009 0 .551-.454 1.005-1.029 1.005-.545.002-.997-.451-.997-1.005m3.782 3.413c0-.36.283-.654.653-.654.365 0 .657.294.657.654 0 .36-.292.663-.657.663-.37.002-.653-.301-.653-.663m3.588 3.427c0-.28.228-.481.509-.481.249 0 .47.2.47.481 0 .267-.221.476-.47.476-.281 0-.509-.207-.509-.476m3.609 3.421c0-.178.151-.303.313-.303.171 0 .299.125.299.303 0 .159-.128.294-.299.294-.16 0-.313-.132-.313-.294m0 6.84c0-.173.151-.312.313-.312.171 0 .299.139.299.312 0 .159-.128.294-.299.294-.16 0-.313-.132-.313-.294m3.546 3.417c0-.112.075-.187.194-.187.11 0 .194.075.194.187 0 .103-.084.191-.194.191-.119 0-.194-.089-.194-.191m-.093 6.84c0-.169.135-.303.304-.303.167 0 .301.134.301.303 0 .169-.135.303-.301.303-.171 0-.304-.134-.304-.303m3.542 3.421c0-.107.08-.2.185-.2.107 0 .21.093.21.2 0 .112-.103.196-.21.196-.105 0-.185-.084-.185-.196m3.403 10.266c0-.116.087-.2.194-.2.103 0 .194.084.194.2 0 .112-.091.191-.194.191-.107 0-.194-.08-.194-.191m3.422 3.409c0-.103.084-.187.194-.187s.201.084.201.187c0 .107-.091.2-.201.2-.11 0-.194-.093-.194-.2m.216 22.081c-1.276 0-1.536-.312-1.536-1.563 0-.841.689-1.54 1.536-1.54.863 0 1.552.699 1.552 1.54-.002.863-.689 1.563-1.552 1.563m6.85 6.83c-1.347 0-1.541-.018-1.541-1.545 0-.85.689-1.545 1.541-1.545.854 0 1.552.695 1.552 1.545-.002.854-.698 1.545-1.552 1.545m-3.426-3.427c-1.42 0-1.536-.2-1.536-1.545 0-.841.698-1.536 1.536-1.536.858 0 1.55.695 1.55 1.536-.002.845-.692 1.545-1.55 1.545m-30.854-81.612c-.758 0-1.372.613-1.372 1.369 0 .747.614 1.367 1.372 1.367.746 0 1.369-.617 1.369-1.367 0-.759-.623-1.369-1.369-1.369m6.85.739c-.342 0-.63.278-.63.629 0 .342.288.627.63.627.347 0 .63-.285.63-.627 0-.351-.283-.629-.63-.629m3.444-3.033c-.153 0-.265.112-.265.246 0 .132.112.235.265.235.114 0 .224-.103.224-.235-.002-.134-.11-.246-.224-.246m-11.741 3.67c0 .747.148 1.358 1.456 1.358.755 0 1.369-.611 1.369-1.358 0-.747-.614-1.372-1.369-1.372-.758.002-1.456.624-1.456 1.372m3.876-3.417c0 .554.443 1.007 1.007 1.007.555 0 1.018-.453 1.018-1.007 0-.56-.463-1.005-1.018-1.005-.561 0-1.007.444-1.007 1.005m3.775-3.422c0 .36.297.663.664.663.354 0 .646-.303.646-.663 0-.371-.292-.663-.646-.663-.367 0-.664.292-.664.663m3.782-3.424c0 .175.137.303.308.303.162 0 .29-.128.29-.303 0-.159-.128-.294-.29-.294-.171 0-.308.132-.308.294m-11.481 3.417c0 .754.737 1.358 1.495 1.358.746 0 1.369-.604 1.369-1.358 0-.756-.621-1.362-1.369-1.362-.758 0-1.495.606-1.495 1.362m3.91-3.426c0 .563.452 1.014.997 1.014.575 0 1.029-.451 1.029-1.014 0-.554-.454-1.005-1.029-1.005-.545-.002-.997.451-.997 1.005m3.782-3.415c0 .362.283.663.653.663.365 0 .657-.301.657-.663 0-.362-.292-.654-.657-.654-.37 0-.653.289-.653.654m3.775-3.425c0 .169.135.312.301.312.176 0 .304-.144.304-.312 0-.166-.128-.294-.304-.294-.167 0-.301.125-.301.294m17.068-44.417c0 .21.164.369.367.369.21 0 .37-.159.37-.369 0-.203-.16-.36-.37-.36-.203-.002-.367.157-.367.36m78.613-44.453c0-.319.253-.56.564-.56.313 0 .566.241.566.56 0 .312-.253.551-.566.551-.31 0-.564-.239-.564-.551m-6.852 0c0-.319.244-.56.561-.56.315 0 .557.241.557.56 0 .312-.242.551-.557.551-.315 0-.561-.239-.561-.551m3.785 3.413c0-.107.094-.2.199-.2.121 0 .205.093.205.2 0 .121-.084.203-.205.203-.105 0-.199-.082-.199-.203m6.856 0c0-.107.078-.2.205-.2.116 0 .201.093.201.2 0 .121-.084.203-.201.203-.128 0-.205-.082-.205-.203m-16.146-3.413c0-.435-.351-.788-.774-.788-.436 0-.799.351-.799.788 0 .428.361.781.799.781.422 0 .774-.355.774-.781m-6.635 0c0-.554-.445-1.023-1-1.023-.564 0-1.009.469-1.009 1.023 0 .551.445 1.005 1.009 1.005.552 0 1-.453 1-1.005m-6.623 0c0-.69-.557-1.233-1.228-1.233-.692 0-1.246.542-1.246 1.233 0 .672.555 1.223 1.246 1.223.671 0 1.228-.551 1.228-1.223m-6.626 0c0-.813-.648-1.46-1.463-1.46-.808 0-1.463.645-1.463 1.46 0 .797.653 1.454 1.463 1.454.815 0 1.463-.656 1.463-1.454m-25.903 23.945c0 .248.21.442.454.442.249 0 .452-.194.452-.442 0-.262-.203-.456-.452-.456-.244-.002-.454.191-.454.456m3.346-3.434c0 .301.237.545.536.545.304 0 .548-.244.548-.545 0-.287-.244-.531-.548-.531-.299-.002-.536.244-.536.531m3.346-3.415c0 .342.281.627.623.627.342 0 .612-.285.612-.627 0-.335-.267-.622-.612-.622s-.623.285-.623.622m3.328-3.417c0 .387.333.706.717.706.395 0 .705-.319.705-.706 0-.396-.31-.72-.705-.72-.383-.002-.717.324-.717.72m3.357-3.418c0 .437.342.793.781.793.443 0 .803-.353.803-.793 0-.435-.358-.797-.803-.797-.438 0-.781.36-.781.797m35.042-6.413c-.233 0-.422-.2-.422-.435s.189-.433.422-.433c.242 0 .436.2.436.433.002.235-.192.435-.436.435m-6.845.232c-.361 0-.657-.305-.657-.668 0-.36.297-.652.657-.652.361 0 .664.292.664.652 0 .362-.304.668-.664.668m-6.861.208c-.482 0-.865-.385-.865-.875 0-.485.383-.879.865-.879.488 0 .892.394.892.879 0 .49-.404.875-.892.875m-6.845.232c-.612 0-1.107-.503-1.107-1.107 0-.601.498-1.105 1.107-1.105.616 0 1.112.506 1.112 1.105.002.606-.495 1.107-1.112 1.107m10.072 2.31c0-.109.084-.2.212-.2.11 0 .203.091.203.2 0 .128-.094.219-.203.219-.126 0-.212-.091-.212-.219m-6.639.435c-.242 0-.436-.194-.436-.435 0-.228.194-.428.436-.428.235 0 .429.2.429.428 0 .241-.194.435-.429.435m-6.861.228c-.361 0-.648-.303-.648-.663 0-.36.288-.654.648-.654.361 0 .653.294.653.654 0 .36-.29.663-.653.663m-6.85.219c-.482 0-.874-.385-.874-.882 0-.476.393-.866.874-.866.488 0 .881.39.881.866-.002.497-.395.882-.881.882m10.073 2.542c0-.118.1-.207.208-.207.112 0 .21.089.21.207s-.098.203-.21.203c-.107 0-.208-.084-.208-.203m-17.128 10.273c0-.118.082-.2.203-.2.119 0 .212.082.212.2 0 .116-.094.2-.212.2-.121 0-.203-.087-.203-.2m3.346-3.424c0-.159.128-.285.276-.285.16 0 .288.125.288.285 0 .148-.128.278-.288.278-.151 0-.276-.13-.276-.278m3.344-3.424c0-.2.169-.36.363-.36.201 0 .354.159.354.36 0 .194-.153.36-.354.36-.192 0-.363-.166-.363-.36m3.791-2.996c-.242 0-.429-.196-.429-.428 0-.232.187-.428.429-.428.235 0 .431.196.431.428 0 .232-.196.428-.431.428m0-5.951c-.73 0-1.335-.588-1.335-1.319 0-.718.605-1.324 1.335-1.324s1.331.606 1.331 1.324c0 .731-.598 1.319-1.331 1.319m-6.858.235c-.854 0-1.545-.695-1.545-1.554 0-.863.692-1.558 1.545-1.558.87 0 1.568.695 1.568 1.558-.002.859-.701 1.554-1.568 1.554m-3.42 3.314c-.808 0-1.456-.645-1.456-1.451 0-.807.648-1.451 1.456-1.451.806 0 1.454.645 1.454 1.451 0 .807-.65 1.451-1.454 1.451m-3.421 3.34c-.758 0-1.374-.606-1.374-1.369 0-.745.616-1.36 1.374-1.36.746 0 1.369.615 1.369 1.36-.002.765-.623 1.369-1.369 1.369m-3.433 3.324c-.705 0-1.269-.572-1.269-1.278 0-.697.564-1.26 1.269-1.26.71 0 1.274.563 1.274 1.26-.002.706-.566 1.278-1.274 1.278m-3.421 3.324c-.655 0-1.187-.522-1.187-1.176 0-.647.53-1.169 1.187-1.169.639 0 1.178.522 1.178 1.169-.002.654-.539 1.176-1.178 1.176m-3.43 3.324c-.598 0-1.086-.49-1.086-1.084 0-.59.488-1.084 1.086-1.084.598 0 1.077.494 1.077 1.084-.002.597-.482 1.084-1.077 1.084m-3.429 3.331c-.548 0-.986-.437-.986-.993 0-.545.436-.991.986-.991s.993.444.993.991c-.002.556-.443.993-.993.993m-3.432 3.322c-.477 0-.888-.403-.888-.891 0-.494.411-.891.888-.891.504 0 .904.396.904.891-.002.49-.399.891-.904.891m-3.422 3.324c-.436 0-.79-.362-.79-.8 0-.433.351-.786.79-.786.445 0 .808.351.808.786-.002.437-.363.8-.808.8m-10.846 16.308c0 .31.26.563.573.563.32 0 .564-.253.564-.563 0-.312-.244-.572-.564-.572-.313 0-.573.26-.573.572m-3.615 3.415c0 .428.338.772.758.772.422 0 .765-.344.765-.772 0-.421-.342-.765-.765-.765-.42 0-.758.344-.758.765m-3.622 3.422c0 .529.429.966.959.966s.959-.435.959-.966c0-.526-.429-.964-.959-.964s-.959.435-.959.964m-3.622 3.424c0 .636.511 1.157 1.153 1.157.644 0 1.148-.522 1.148-1.157 0-.647-.504-1.166-1.148-1.166-.641.002-1.153.519-1.153 1.166m-3.634 3.413c0 .756.596 1.362 1.374 1.362.737 0 1.331-.606 1.331-1.362 0-.745-.593-1.358-1.331-1.358-.778.002-1.374.613-1.374 1.358m8.214-14.843c.648 0 1.169.522 1.169 1.169 0 .652-.52 1.176-1.169 1.176-.655 0-1.187-.522-1.187-1.176 0-.649.532-1.169 1.187-1.169m3.422-3.331c.596 0 1.086.488 1.086 1.084 0 .586-.491 1.073-1.086 1.073-.605 0-1.086-.488-1.086-1.073 0-.597.482-1.084 1.086-1.084m3.43-3.322c.536 0 .986.435.986.989 0 .538-.447.984-.986.984-.548 0-.984-.444-.984-.984 0-.554.436-.989.984-.989m3.422-3.324c.495 0 .899.392.899.889 0 .488-.404.891-.899.891s-.881-.403-.881-.891c0-.497.386-.889.881-.889m3.428-3.333c.441 0 .792.353.792.807 0 .428-.349.791-.792.791-.431 0-.799-.362-.799-.791 0-.453.365-.807.799-.807m6.877 1.005c-.116 0-.228-.091-.228-.2 0-.125.112-.219.228-.219.112 0 .221.093.221.219 0 .109-.11.2-.221.2m-3.454 3.417c-.128 0-.201-.084-.201-.203 0-.118.073-.212.201-.212s.221.093.221.212c0 .118-.096.203-.221.203m-17.647 23.729c0 .292.235.519.523.519.288 0 .511-.228.511-.519 0-.278-.224-.508-.511-.508-.288 0-.523.228-.523.508m10.796-10.032c-.11 0-.21-.103-.21-.228 0-.109.1-.203.21-.203.128 0 .221.093.221.203 0 .125-.096.228-.221.228m-3.422 3.45c-.144 0-.244-.116-.244-.253 0-.134.1-.239.244-.239.128 0 .237.107.237.239-.002.137-.112.253-.237.253m-3.43 3.49c-.176 0-.326-.134-.326-.319 0-.194.148-.337.326-.337.185 0 .338.144.338.337 0 .185-.153.319-.338.319m-3.422 10.154c-.119 0-.221-.1-.221-.219 0-.109.103-.203.221-.203.116 0 .21.093.21.203 0 .118-.094.219-.21.219m27.408-40.886c-.21 0-.358-.175-.358-.369 0-.2.148-.36.358-.36.212 0 .361.159.361.36 0 .194-.151.369-.361.369m-3.429 3.324c-.148 0-.269-.118-.269-.278 0-.144.121-.273.269-.273.148 0 .276.132.276.273 0 .159-.128.278-.276.278m-10.277 10.314c-.183 0-.326-.15-.326-.33 0-.182.144-.333.326-.333.178 0 .333.15.333.333-.002.18-.155.33-.333.33m-27.426 41.975c-.698 0-1.251-.57-1.251-1.267s.552-1.258 1.251-1.258c.71 0 1.29.56 1.29 1.258 0 .697-.58 1.267-1.29 1.267m3.44-3.741c-.511 0-.94-.428-.94-.941 0-.522.429-.948.94-.948.516 0 .943.428.943.948 0 .513-.427.941-.943.941m0 6.636c-.404 0-.726-.333-.726-.738 0-.403.324-.738.726-.738.406 0 .742.335.742.738 0 .406-.336.738-.742.738m-3.44 3.787c-.587 0-1.091-.497-1.091-1.107 0-.604.504-1.105 1.091-1.105.625 0 1.102.503 1.102 1.105.002.611-.475 1.107-1.102 1.107m6.884-7.493c-.265 0-.475-.194-.475-.453 0-.241.21-.444.475-.444.224 0 .431.203.431.444 0 .26-.21.453-.431.453m0-13.228c-.518 0-.918-.403-.918-.904 0-.497.402-.891.918-.891.477 0 .881.394.881.891 0 .501-.404.904-.881.904m3.412 2.928c-.237 0-.415-.182-.415-.401 0-.228.176-.412.415-.412.226 0 .411.185.411.412 0 .219-.185.401-.411.401m0-6.596c-.372 0-.66-.294-.66-.654 0-.36.288-.654.66-.654.351 0 .653.294.653.654 0 .36-.301.654-.653.654m-13.696 55.642c-.886 0-1.598-.709-1.598-1.579 0-.863.714-1.579 1.598-1.579.856 0 1.57.715 1.57 1.579-.002.87-.714 1.579-1.57 1.579m9.659 8.685c0-.337.276-.615.623-.615.317 0 .593.276.593.615 0 .333-.276.611-.593.611-.347 0-.623-.276-.623-.611m-3.732-3.427c0-.503.418-.911.913-.911.507 0 .915.41.915.911 0 .501-.411.916-.915.916-.498.002-.913-.412-.913-.916m-3.734-3.412c0-.672.555-1.219 1.207-1.219.682 0 1.239.547 1.239 1.219 0 .668-.557 1.205-1.239 1.205-.653.002-1.207-.538-1.207-1.205m-.203 6.83c0-.77.639-1.41 1.411-1.41.803 0 1.433.64 1.433 1.41 0 .788-.63 1.424-1.433 1.424-.771 0-1.411-.636-1.411-1.424m1.41 8.468c-.881 0-1.764-.72-1.764-1.62 0-.891.886-1.62 1.764-1.62.908 0 1.643.729 1.643 1.62 0 .9-.733 1.62-1.643 1.62m16.703 15.481c0-.257.189-.453.443-.453.251 0 .445.196.445.453 0 .253-.194.453-.445.453-.253 0-.443-.2-.443-.453m-3.688-3.422c0-.387.306-.715.71-.715.395 0 .714.33.714.715 0 .385-.32.713-.714.713-.404 0-.71-.326-.71-.713m-3.36-10.257c0-.36.294-.636.641-.636.351 0 .637.276.637.636 0 .351-.285.64-.637.64-.347.002-.641-.287-.641-.64m-.338 6.839c0-.542.445-.971.979-.971.543 0 .975.428.975.971 0 .522-.429.966-.975.966-.532 0-.979-.444-.979-.966m.979 15.317c-.904 0-1.634-.729-1.634-1.643 0-.895.73-1.62 1.634-1.62.906 0 1.639.724 1.639 1.62 0 .914-.733 1.643-1.639 1.643m-7.986-28.995c0-.631.5-1.148 1.13-1.148.63 0 1.137.517 1.137 1.148 0 .622-.507 1.135-1.137 1.135s-1.13-.51-1.13-1.135m-.228 6.839c0-.747.605-1.358 1.358-1.358.758 0 1.363.611 1.363 1.358 0 .756-.605 1.372-1.363 1.372-.753 0-1.358-.615-1.358-1.372m3.889-3.422c0-.49.395-.882.911-.882.477 0 .872.392.872.882 0 .494-.395.882-.872.882-.516 0-.911-.387-.911-.882m-.271 6.84c0-.636.525-1.157 1.185-1.157.619 0 1.148.522 1.148 1.157 0 .636-.527 1.166-1.148 1.166-.657 0-1.185-.529-1.185-1.166m49.336 47.884c0 .103-.082.196-.201.196-.11 0-.194-.093-.194-.196 0-.116.084-.2.194-.2.119 0 .201.084.201.2m-3.437-3.422c0 .107-.075.191-.183.191-.121 0-.203-.084-.203-.191 0-.103.082-.196.203-.196.105 0 .183.093.183.196m17.141 10.261c0 .112-.091.191-.201.191-.112 0-.185-.08-.185-.191 0-.107.073-.182.185-.182.11 0 .201.075.201.182m10.273 3.427c0 .098-.091.191-.192.191-.1 0-.194-.093-.194-.191 0-.121.094-.205.194-.205s.192.084.192.205m10.275 3.404c0 .121-.082.2-.187.2-.116 0-.21-.08-.21-.2 0-.098.094-.191.21-.191.105 0 .187.093.187.191m-10.467 8.646c.899 0 1.63.72 1.63 1.62 0 .9-.73 1.624-1.63 1.624-1.237 0-1.616-.267-1.616-1.624 0-.9.726-1.62 1.616-1.62m-16.671-15.477c0 .253-.212.444-.461.444-.242 0-.447-.191-.447-.444 0-.257.205-.453.447-.453.249 0 .461.196.461.453m3.682 3.413c0 .396-.322.715-.714.715-.393 0-.714-.321-.714-.715 0-.392.322-.704.714-.704.393 0 .714.312.714.704m6.585.014c0 .239-.205.449-.447.449-.26 0-.45-.21-.45-.449 0-.253.189-.462.45-.462.242 0 .447.207.447.462m10.289 3.404c0 .262-.21.472-.452.472-.26 0-.454-.21-.454-.472 0-.237.194-.449.454-.449.242 0 .452.212.452.449m-6.601 0c0 .396-.322.715-.705.715-.404 0-.714-.321-.714-.715 0-.383.313-.704.714-.704.383 0 .705.321.705.704m-6.598 0c0 .547-.429.975-.968.975-.539 0-.97-.428-.97-.975 0-.522.431-.952.97-.952.539 0 .968.431.968.952m7.255 6.839c0 .747-.616 1.362-1.356 1.362-.765 0-1.369-.615-1.369-1.362 0-.743.605-1.349 1.369-1.349.74 0 1.356.606 1.356 1.349m-3.633-3.404c0 .636-.514 1.157-1.162 1.157-.637 0-1.159-.522-1.159-1.157 0-.649.523-1.171 1.159-1.171.65 0 1.162.519 1.162 1.171m-71.278-61.558c0-.891.71-1.593 1.589-1.593.876 0 1.582.704 1.582 1.593 0 .863-.708 1.579-1.582 1.579-.881 0-1.589-.715-1.589-1.579m32.42 38.598c-.543 0-.975-.453-.975-.993 0-.533.429-.98.975-.98.548 0 .995.444.995.98-.002.538-.447.993-.995.993m-20.547-20.012c-.842 0-1.513-.677-1.513-1.49 0-.832.671-1.513 1.513-1.513.824 0 1.504.681 1.504 1.513 0 .813-.68 1.49-1.504 1.49m3.422 3.289c-.758 0-1.379-.611-1.379-1.372 0-.756.619-1.372 1.379-1.372.755 0 1.379.615 1.379 1.372 0 .761-.623 1.372-1.379 1.372m3.43 3.293c-.689 0-1.244-.547-1.244-1.233 0-.69.555-1.251 1.244-1.251.692 0 1.237.56 1.237 1.251 0 .686-.545 1.233-1.237 1.233m6.85 6.581c-.536 0-.981-.435-.981-.984 0-.538.443-.975.981-.975.539 0 .986.435.986.975-.002.547-.447.984-.986.984m3.423 3.422c-.536 0-.977-.435-.977-.989 0-.529.438-.966.977-.966.545 0 .986.435.986.966-.002.551-.441.989-.986.989m23.979 21.462c.84 0 1.511.663 1.511 1.49 0 .841-.671 1.504-1.511 1.504-.824 0-1.495-.663-1.495-1.504-.002-.827.669-1.49 1.495-1.49m-3.423-3.295c.765 0 1.379.622 1.379 1.378 0 .752-.616 1.376-1.379 1.376-.758 0-1.369-.622-1.369-1.376 0-.754.612-1.378 1.369-1.378m-3.422-3.278c.692 0 1.246.547 1.246 1.233 0 .681-.555 1.246-1.246 1.246-.678 0-1.242-.565-1.242-1.246 0-.686.564-1.233 1.242-1.233m-3.428-3.306c.614 0 1.116.513 1.116 1.121 0 .606-.504 1.116-1.116 1.116-.605 0-1.109-.513-1.109-1.116-.002-.611.504-1.121 1.109-1.121m-3.423-3.285c.548 0 .984.444.984.984 0 .542-.434.984-.984.984-.536 0-.981-.44-.981-.984 0-.538.443-.984.981-.984m-3.429-3.413c.536 0 .981.435.981.975 0 .542-.443.98-.981.98-.548 0-.986-.435-.986-.98 0-.538.436-.975.986-.975m0-5.513c-.196 0-.354-.159-.354-.36 0-.187.157-.342.354-.342.194 0 .349.155.349.342 0 .2-.155.36-.349.36m-3.432-3.418c-.194 0-.342-.169-.342-.36 0-.191.148-.351.342-.351.203 0 .363.159.363.351 0 .191-.16.36-.363.36m-3.422-3.422c-.194 0-.351-.159-.351-.365 0-.182.157-.351.351-.351.203 0 .354.169.354.351 0 .205-.151.365-.354.365m-3.423-3.283c-.265 0-.5-.228-.5-.485 0-.267.235-.503.5-.503.281 0 .493.237.493.503 0 .257-.212.485-.493.485m-6.85-6.559c-.422 0-.765-.355-.765-.765 0-.428.342-.775.765-.775.42 0 .774.346.774.775 0 .41-.356.765-.774.765m-3.43-3.283c-.504 0-.906-.41-.906-.911 0-.49.404-.895.906-.895.511 0 .908.406.908.895 0 .501-.397.911-.908.911m-3.422-3.29c-.582 0-1.052-.462-1.052-1.032 0-.579.47-1.041 1.052-1.041.571 0 1.052.462 1.052 1.041 0 .57-.482 1.032-1.052 1.032m-3.428-3.283c-.66 0-1.18-.524-1.18-1.176 0-.652.52-1.185 1.18-1.185.644 0 1.175.533 1.175 1.185s-.532 1.176-1.175 1.176m-3.412-3.28c-.751 0-1.34-.588-1.34-1.317 0-.734.589-1.317 1.34-1.317.719 0 1.296.583 1.296 1.317 0 .731-.577 1.317-1.296 1.317m34.248 32.538c.194 0 .351.144.351.342 0 .205-.157.369-.351.369-.21 0-.351-.164-.351-.369-.002-.2.142-.342.351-.342m3.43 3.278c.269 0 .498.219.498.49 0 .267-.228.494-.498.494-.278 0-.495-.228-.495-.494 0-.271.217-.49.495-.49m3.421 3.276c.342 0 .63.285.63.636 0 .342-.288.627-.63.627s-.63-.285-.63-.627c-.002-.351.285-.636.63-.636m3.433 3.279c.429 0 .76.342.76.775 0 .428-.333.77-.76.77-.429 0-.769-.342-.769-.77 0-.433.338-.775.769-.775m3.421 3.296c.502 0 .904.396.904.9 0 .503-.404.907-.904.907-.498 0-.902-.406-.902-.907s.404-.9.902-.9m3.42 3.286c.582 0 1.052.462 1.052 1.041 0 .56-.47 1.037-1.052 1.037-.571 0-1.034-.476-1.034-1.037-.002-.579.463-1.041 1.034-1.041m3.432 3.269c.655 0 1.191.538 1.191 1.176 0 .654-.536 1.192-1.191 1.192-.648 0-1.187-.538-1.187-1.192 0-.636.536-1.176 1.187-1.176m3.426 3.29c.73 0 1.312.592 1.312 1.321 0 .72-.582 1.308-1.312 1.308-.719 0-1.328-.588-1.328-1.308 0-.731.609-1.321 1.328-1.321m37.692 13.152c-.867 0-1.582-.709-1.582-1.579s.714-1.574 1.582-1.574c.865 0 1.579.704 1.579 1.574 0 .87-.714 1.579-1.579 1.579m-6.861.048c-1.495 0-1.623-.107-1.623-1.629 0-.9.721-1.615 1.623-1.615.904 0 1.641.715 1.641 1.615 0 1.524-.1 1.629-1.641 1.629m-10.273-3.563c-.824 0-1.481-.663-1.481-1.485 0-.807.657-1.469 1.481-1.469.806 0 1.47.663 1.47 1.469 0 .822-.664 1.485-1.47 1.485m6.845-.146c-.735 0-1.322-.611-1.322-1.34 0-.729.587-1.326 1.322-1.326.746 0 1.344.597 1.344 1.326 0 .729-.598 1.34-1.344 1.34m6.856-.148c-.644 0-1.185-.522-1.185-1.192 0-.658.539-1.176 1.185-1.176.66 0 1.187.517 1.187 1.176 0 .672-.527 1.192-1.187 1.192m6.863-.141c-.577 0-1.05-.481-1.05-1.05 0-.579.472-1.032 1.05-1.032.573 0 1.034.453 1.034 1.032 0 .57-.461 1.05-1.034 1.05m-23.986-3.295c-.657 0-1.187-.522-1.187-1.176 0-.663.527-1.187 1.187-1.187.646 0 1.178.524 1.178 1.187 0 .656-.532 1.176-1.178 1.176m6.861-.173c-.571 0-1.007-.444-1.007-1 0-.551.436-.998 1.007-.998.543 0 1 .444 1 .998 0 .556-.456 1-1 1m6.841-.178c-.45 0-.819-.36-.819-.822 0-.462.37-.818.819-.818.456 0 .824.355.824.818 0 .462-.367.822-.824.822m6.854-.186c-.351 0-.646-.28-.646-.636 0-.36.294-.636.646-.636.351 0 .648.276.648.636 0 .355-.297.636-.648.636m3.43-3.693c-.205 0-.388-.164-.388-.355 0-.214.183-.369.388-.369.194 0 .363.155.363.369 0 .191-.169.355-.363.355m-27.416.626c-.53 0-.968-.449-.968-.98 0-.533.436-.952.968-.952.536 0 .965.419.965.952 0 .531-.427.98-.965.98m6.852-.196c-.429 0-.765-.342-.765-.756 0-.428.336-.775.765-.775.422 0 .765.346.765.775 0 .415-.342.756-.765.756m6.845-.187c-.313 0-.555-.244-.555-.56 0-.312.242-.57.555-.57.329 0 .577.257.577.57 0 .317-.249.56-.577.56m6.856-.173c-.199 0-.365-.159-.365-.369s.167-.36.365-.36c.205 0 .365.15.365.36s-.16.369-.365.369m80.679-191.957c0-.875.698-1.579 1.579-1.579 1.488 0 1.575.057 1.575 1.579 0 .873-.71 1.574-1.575 1.574-.881 0-1.579-.702-1.579-1.574m3.423 3.415c0-.866.714-1.57 1.577-1.57.874 0 1.582.706 1.582 1.57 0 .882-.71 1.586-1.582 1.586-.865 0-1.577-.704-1.577-1.586m3.41 3.422c0-.863.724-1.567 1.589-1.567.876 0 1.593.706 1.593 1.567 0 .866-.717 1.577-1.593 1.577-.865 0-1.589-.711-1.589-1.577m3.44 3.424c0-.873.71-1.586 1.582-1.586.883 0 1.589.713 1.589 1.586 0 .873-.708 1.586-1.589 1.586-.874 0-1.582-.713-1.582-1.586m3.412 3.415c0-.873.717-1.586 1.6-1.586 1.495 0 1.577.118 1.577 1.586 0 .884-.705 1.595-1.577 1.595-.883 0-1.6-.713-1.6-1.595m3.433 3.434c0-.891.714-1.602 1.589-1.602 1.63 0 1.584-.018 1.584 1.602 0 .863-.705 1.577-1.584 1.577-.874 0-1.589-.715-1.589-1.577m8.433 109.678c.135 0 .24-.121.24-.262 0-.134-.107-.237-.24-.237-.132 0-.244.103-.244.237 0 .141.112.262.244.262" fill="#FFE1BB" sketch:type="MSShapeGroup"/><path d="M165.745 323.555l-2.556 9.822-1.924 1.549s2.698-1.233 3.901-.715c1.21.533 1.664 1.162 1.664 1.162l5.975 6.63s-.605 2.301.267 2.83c.886.522 3.599.253 3.599.253l-1.447-1.816 2.029-1.877-.605-.15-7.206-8.031c-1.052-.57-2.775-.112-2.775-.112l2.244-8.935 1.379-1.009-2.741-2.012s-.571-1.078-.142-1.41c.434-.337.965-.882.965-.882s-2.406-.503-3.136 1.032c-.625 1.305.509 3.673.509 3.673m23.356 14.859s-2.682.121-3.522-.444c-.831-.56-.116-2.786-.116-2.786l-5.56-6.817s-.386-.654-1.547-1.242c-1.159-.56-3.894.522-3.894.522l1.995-1.433 2.999-9.519s-.993-2.372-.304-3.641c.799-1.469 3.136-.859 3.136-.859s-.555.517-1 .813c-.431.312.055 1.401.055 1.401l2.609 2.114-1.413.916-2.657 8.678s1.723-.378 2.723.248l6.669 8.245.587.187-2.093 1.754 1.333 1.861m12.461-4.99s-2.659-.027-3.44-.627c-.799-.606.027-2.745.027-2.745l-5.106-7.008s-.358-.663-1.477-1.289c-1.112-.64-3.844.294-3.844.294l2.02-1.303 3.462-9.216s-.851-2.408-.11-3.604c.865-1.41 3.138-.681 3.138-.681s-.575.481-1.018.761c-.454.28-.018 1.372-.018 1.372l2.454 2.226-1.445.822-3.077 8.405s1.723-.276 2.666.396l6.144 8.468.561.21-2.152 1.62 1.212 1.9m12.479-3.912s-2.609-.173-3.367-.807c-.753-.627.171-2.718.171-2.718l-4.665-7.19s-.322-.681-1.381-1.372c-1.066-.663-3.816.093-3.816.093l2.077-1.176 3.91-8.922s-.705-2.408.082-3.572c.936-1.326 3.145-.494 3.145-.494s-.598.435-1.059.695c-.463.257-.094 1.358-.094 1.358l2.321 2.326-1.484.729-3.492 8.147s1.716-.178 2.616.533l5.612 8.698.539.237-2.209 1.469 1.093 1.964m12.5-2.878s-2.586-.303-3.294-.971c-.705-.681.329-2.679.329-2.679l-4.229-7.395s-.285-.681-1.294-1.41c-1.018-.724-3.782-.125-3.782-.125l2.111-1.055 4.371-8.619s-.573-2.433.285-3.534c1.009-1.285 3.136-.321 3.136-.321s-.616.406-1.08.627c-.477.214-.162 1.331-.162 1.331l2.148 2.442-1.504.64-3.91 7.885s1.716-.08 2.568.658l5.074 8.931.541.267-2.287 1.335.979 1.993m12.512-1.716s-2.547-.435-3.211-1.153c-.671-.704.47-2.652.47-2.652l-3.775-7.568s-.249-.695-1.219-1.476c-.963-.788-3.745-.342-3.745-.342l2.148-.925 4.825-8.325s-.411-2.438.488-3.479c1.061-1.219 3.138-.159 3.138-.159s-.623.378-1.102.579c-.486.187-.251 1.317-.251 1.317l1.999 2.545-1.52.551-4.325 7.596s1.7.018 2.508.822l4.549 9.154.514.289-2.335 1.187.844 2.039m12.532-.681s-2.504-.588-3.145-1.335c-.612-.738.635-2.604.635-2.604l-3.339-7.76s-.21-.715-1.128-1.554c-.922-.841-3.725-.547-3.725-.547l2.205-.807 5.284-8.022s-.29-2.465.682-3.449c1.128-1.148 3.127.027 3.127.027s-.653.333-1.141.503c-.477.169-.294 1.299-.294 1.299l1.842 2.652-1.554.462-4.743 7.334s1.689.121 2.456.957l4.008 9.384.498.312-2.399 1.064.733 2.082m12.554.21s-2.472-.738-3.07-1.508c-.571-.784.785-2.577.785-2.577l-2.901-7.96s-.169-.715-1.038-1.611c-.881-.877-3.698-.752-3.698-.752l2.262-.672 5.745-7.73s-.151-2.483.865-3.408c1.189-1.082 3.131.196 3.131.196s-.676.303-1.166.444c-.495.139-.395 1.283-.395 1.283l1.71 2.764-1.591.378-5.154 7.058s1.689.21 2.394 1.091l3.483 9.607.47.351-2.458.934.625 2.112m12.57 1.278s-2.447-.868-2.99-1.672c-.543-.818.918-2.54.918-2.54l-2.463-8.138s-.116-.738-.94-1.681c-.831-.939-3.659-.975-3.659-.975l2.294-.542 6.199-7.436s-.007-2.492 1.061-3.365c1.269-1.023 3.131.387 3.131.387s-.682.248-1.182.365c-.516.112-.47 1.26-.47 1.26l1.561 2.861-1.623.298-5.565 6.794s1.678.303 2.335 1.223l2.944 9.842.463.374-2.517.797.502 2.148m12.586 2.216s-2.415-1.014-2.912-1.873c-.495-.845 1.068-2.502 1.068-2.502l-2.024-8.334s-.082-.738-.858-1.745c-.774-.984-3.622-1.166-3.622-1.166l2.333-.431 6.66-7.12s.128-2.517 1.264-3.351c1.328-.957 3.127.57 3.127.57s-.708.228-1.212.303c-.525.084-.545 1.251-.545 1.251l1.401 2.964-1.636.21-5.987 6.518s1.682.406 2.28 1.372l2.422 10.061.434.415-2.581.645.39 2.214m12.6 3.394s-2.369-1.157-2.823-2.046c-.463-.873 1.207-2.465 1.207-2.465l-1.589-8.512s-.039-.761-.765-1.802c-.73-1.041-3.595-1.392-3.595-1.392l2.394-.303 7.114-6.821s.267-2.536 1.463-3.301c1.385-.895 3.118.738 3.118.738s-.73.187-1.242.237c-.53.075-.619 1.233-.619 1.233l1.255 3.076-1.659.116-6.42 6.261s1.673.503 2.234 1.495l1.883 10.298.422.435-2.636.522.256 2.233m12.63 4.484s-2.344-1.303-2.748-2.226c-.429-.907 1.351-2.429 1.351-2.429l-1.134-8.712s0-.765-.687-1.859c-.676-1.107-3.551-1.593-3.551-1.593l2.422-.191 7.568-6.514s.418-2.549 1.664-3.267c1.447-.836 3.118.925 3.118.925s-.744.144-1.285.164c-.52.027-.671 1.219-.671 1.219l1.093 3.174-1.689.027-6.82 5.99s1.659.588 2.18 1.647l1.347 10.523.404.453-2.698.387.137 2.281m17.158-18.061l-8.014 6.22-2.488.057s2.899.649 3.529 1.811c.648 1.144.598 1.923.598 1.923l.689 8.903s-1.872 1.442-1.513 2.399c.381.948 2.693 2.394 2.693 2.394l-.025-2.319 2.757-.248-.379-.499-.808-10.737c-.47-1.094-2.136-1.788-2.136-1.788l7.242-5.718 1.719.057-.947-3.278s.199-1.201.767-1.201c.536 0 1.292-.107 1.292-.107s-1.595-1.864-3.115-1.098c-1.308.663-1.86 3.231-1.86 3.231m11.487 5.475l-8.014 6.229-2.488.057s2.899.654 3.529 1.811c.648 1.135.598 1.923.598 1.923l.689 8.894s-1.876 1.447-1.506 2.413c.37.948 2.684 2.39 2.684 2.39l-.025-2.326 2.746-.248-.365-.485-.808-10.751c-.47-1.082-2.139-1.779-2.139-1.779l7.242-5.714 1.73.048-.959-3.272s.212-1.196.755-1.201c.548 0 1.306-.116 1.306-.116s-1.595-1.864-3.129-1.098c-1.296.668-1.846 3.226-1.846 3.226m-.831-138.401l2.554-9.817 1.92-1.554s-2.691 1.242-3.898.72c-1.212-.529-1.662-1.166-1.662-1.166l-5.984-6.639s.614-2.283-.267-2.82c-.883-.519-3.588-.257-3.588-.257l1.436 1.82-2.036 1.882.607.157 7.215 8.015c1.041.59 2.785.118 2.785.118l-2.257 8.944-1.381 1 2.743 2.021s.575 1.078.135 1.41c-.427.321-.947.873-.947.873s2.397.503 3.12-1.03c.628-1.31-.493-3.677-.493-3.677m-23.363-14.854s2.675-.125 3.519.444c.835.563.112 2.779.112 2.779l5.56 6.814s.404.663 1.563 1.233c1.162.57 3.878-.513 3.878-.513l-1.986 1.428-3.004 9.523s1 2.385.315 3.652c-.815 1.463-3.145.857-3.145.857s.557-.522 1-.829c.429-.303-.066-1.394-.066-1.394l-2.609-2.105 1.433-.923 2.654-8.671s-1.723.369-2.732-.257l-6.685-8.243-.571-.185 2.093-1.736-1.331-1.875m-12.464 4.99s2.661.023 3.446.627c.799.606-.018 2.752-.018 2.752l5.106 7.006s.361.654 1.465 1.294c1.112.62 3.848-.296 3.848-.296l-2.018 1.294-3.467 9.213s.851 2.408.112 3.625c-.87 1.394-3.138.665-3.138.665s.573-.478 1.025-.756c.438-.276.021-1.376.021-1.376l-2.465-2.224 1.456-.822 3.065-8.416s-1.712.276-2.675-.387l-6.135-8.468-.566-.207 2.148-1.613-1.21-1.909m-12.48 3.914s2.622.166 3.378.797c.751.627-.18 2.718-.18 2.718l4.663 7.192s.329.679 1.39 1.358c1.068.681 3.812-.084 3.812-.084l-2.066 1.18-3.921 8.917s.71 2.417-.089 3.568c-.934 1.351-3.138.503-3.138.503s.598-.444 1.052-.704c.456-.244.094-1.344.094-1.344l-2.305-2.335 1.479-.738 3.481-8.147s-1.716.194-2.616-.513l-5.606-8.708-.545-.237 2.207-1.469-1.089-1.955m-12.479 2.87s2.577.312 3.282.975c.717.681-.324 2.679-.324 2.679l4.227 7.384s.281.697 1.294 1.426c1.018.729 3.782.107 3.782.107l-2.109 1.069-4.385 8.619s.568 2.44-.283 3.534c-1.002 1.283-3.125.317-3.125.317s.605-.401 1.075-.627c.47-.219.167-1.335.167-1.335l-2.152-2.431 1.495-.647 3.923-7.871s-1.721.075-2.565-.672l-5.087-8.938-.532-.251 2.282-1.344-.965-1.993m-12.526 1.721s2.547.444 3.211 1.139c.664.715-.477 2.654-.477 2.654l3.789 7.575s.253.706 1.212 1.485c.968.781 3.757.328 3.757.328l-2.166.941-4.834 8.307s.438 2.461-.472 3.49c-1.068 1.226-3.131.148-3.131.148s.621-.367 1.105-.56c.463-.191.237-1.317.237-1.317l-2.011-2.54 1.538-.563 4.33-7.593s-1.705-.021-2.522-.807l-4.537-9.163-.509-.294 2.33-1.201-.849-2.03m-12.541.682s2.52.595 3.145 1.333l-.616 2.602 3.337 7.771s.201.713 1.116 1.545c.929.829 3.725.535 3.725.535l-2.212.816-5.279 8.022s.276 2.467-.682 3.452c-1.125 1.157-3.127-.025-3.127-.025s.657-.337 1.134-.503c.488-.169.304-1.303.304-1.303l-1.851-2.652 1.563-.469 4.734-7.336s-1.678-.109-2.444-.948l-4.017-9.373-.482-.319 2.387-1.075-.735-2.071m-12.546-.204s2.481.72 3.061 1.51c.598.77-.774 2.568-.774 2.568l2.903 7.956s.173.72 1.038 1.611c.867.891 3.684.756 3.684.756l-2.255.677-5.733 7.723s.16 2.483-.876 3.415c-1.194 1.091-3.125-.21-3.125-.21s.662-.294 1.159-.435c.504-.144.388-1.285.388-1.285l-1.694-2.743 1.577-.394 5.161-7.058s-1.691-.212-2.397-1.091l-3.483-9.601-.47-.351 2.458-.93-.623-2.119m-12.568-1.284s2.438.863 2.988 1.686c.536.813-.918 2.533-.918 2.533l2.456 8.131s.128.738.949 1.686c.829.941 3.656.975 3.656.975l-2.294.535-6.194 7.436s.007 2.495-1.08 3.367c-1.253 1.023-3.111-.387-3.111-.387s.685-.251 1.187-.369c.498-.109.454-1.26.454-1.26l-1.547-2.861 1.616-.294 5.571-6.796s-1.698-.303-2.342-1.217l-2.963-9.851-.436-.371 2.515-.797-.509-2.146m-12.583-2.206s2.408 1.021 2.917 1.859c.488.85-1.064 2.504-1.064 2.504l2.015 8.332s.084.738.858 1.741c.783.998 3.613 1.176 3.613 1.176l-2.335.428-6.651 7.124s-.135 2.517-1.267 3.351c-1.322.955-3.111-.563-3.111-.563s.705-.235 1.207-.321c.504-.073.53-1.248.53-1.248l-1.383-2.964 1.63-.194 5.984-6.529s-1.671-.394-2.294-1.367l-2.408-10.07-.436-.406 2.581-.656-.388-2.196m-12.616-3.409s2.387 1.16 2.846 2.046c.466.873-1.207 2.47-1.207 2.47l1.563 8.516s.05.763.792 1.802c.73 1.05 3.588 1.387 3.588 1.387l-2.387.31-7.11 6.814s-.276 2.524-1.474 3.306c-1.388.891-3.118-.738-3.118-.738s.721-.185 1.253-.244c.523-.066.598-1.242.598-1.242l-1.456-2.533 1.294-.344 6.98-6.559s-1.666-.49-2.228-1.504l-1.867-10.291-.429-.428 2.641-.535-.278-2.233m-12.613-4.481s2.346 1.301 2.757 2.226c.425.904-1.36 2.424-1.36 2.424l1.125 8.71s0 .772.692 1.861c.689 1.098 3.563 1.604 3.563 1.604l-2.435.175-7.559 6.527s-.413 2.545-1.657 3.258c-1.465.841-3.118-.914-3.118-.914s.73-.137 1.276-.185c.53-.027.673-1.207.673-1.207l-1.093-3.165 1.68-.034 6.827-5.994s-1.664-.595-2.175-1.645l-1.347-10.521-.404-.456 2.707-.385-.151-2.281m-17.167 18.064l8.02-6.22 2.488-.057s-2.894-.654-3.54-1.811c-.637-1.144-.598-1.925-.598-1.925l-.689-8.903s1.883-1.444 1.506-2.392c-.372-.957-2.675-2.399-2.675-2.399l.027 2.315-2.769.262.388.476.813 10.751c.472 1.091 2.139 1.779 2.139 1.779l-7.256 5.723-1.716-.048.949 3.272s-.212 1.201-.765 1.201c-.539 0-1.296.109-1.296.109s1.6 1.864 3.111 1.098c1.306-.672 1.862-3.231 1.862-3.231m-11.496-5.475l8.039-6.233 2.481-.052s-2.894-.661-3.538-1.811c-.632-1.141-.6-1.923-.6-1.923l-.692-8.903s1.883-1.438 1.513-2.39c-.377-.952-2.691-2.404-2.691-2.404l.037 2.319-2.769.257.388.478.808 10.742c.479 1.098 2.134 1.788 2.134 1.788l-7.242 5.723-1.716-.05.952 3.276s-.203 1.189-.758 1.189c-.536 0-1.294.118-1.294.118s1.589 1.852 3.102 1.082c1.31-.649 1.846-3.208 1.846-3.208" fill="#BC9B6A" sketch:type="MSShapeGroup"/><path d="M164.585 323.555l-2.554 9.822-1.926 1.549s2.691-1.233 3.903-.715c1.198.533 1.646 1.162 1.646 1.162l5.998 6.63s-.619 2.301.267 2.83c.874.522 3.597.253 3.597.253l-1.445-1.816 2.034-1.877-.605-.15-7.215-8.031c-1.05-.57-2.775-.112-2.775-.112l2.237-8.935 1.395-1.009-2.753-2.012s-.559-1.078-.132-1.41c.42-.337.956-.882.956-.882s-2.401-.503-3.134 1.032c-.63 1.305.507 3.673.507 3.673m23.364 14.859s-2.689.121-3.524-.444c-.847-.56-.128-2.786-.128-2.786l-5.539-6.817s-.404-.654-1.563-1.242c-1.162-.56-3.878.522-3.878.522l1.974-1.433 3.013-9.519s-.993-2.372-.313-3.641c.799-1.469 3.143-.859 3.143-.859s-.561.517-.991.813c-.445.312.041 1.401.041 1.401l2.607 2.114-1.42.916-2.648 8.678s1.735-.378 2.714.248l6.685 8.245.582.187-2.095 1.754 1.34 1.861m12.453-4.99s-2.652-.027-3.44-.627c-.792-.606.03-2.745.03-2.745l-5.11-7.008s-.367-.663-1.486-1.289c-1.109-.64-3.837.294-3.837.294l2.022-1.303 3.462-9.216s-.849-2.408-.1-3.604c.87-1.41 3.129-.681 3.129-.681s-.566.481-1.018.761c-.452.28-.007 1.372-.007 1.372l2.447 2.226-1.456.822-3.063 8.405s1.716-.276 2.664.396l6.14 8.468.571.21-2.152 1.62 1.205 1.9m12.481-3.912s-2.616-.173-3.362-.807c-.758-.627.167-2.718.167-2.718l-4.674-7.19s-.322-.681-1.385-1.372c-1.061-.663-3.802.093-3.802.093l2.077-1.176 3.898-8.922s-.705-2.408.094-3.572c.924-1.326 3.136-.494 3.136-.494s-.589.435-1.059.695c-.45.257-.082 1.358-.082 1.358l2.31 2.326-1.484.729-3.472 8.147s1.705-.178 2.604.533l5.61 8.698.536.237-2.205 1.469 1.093 1.964m12.49-2.878s-2.577-.303-3.294-.971c-.705-.681.336-2.679.336-2.679l-4.227-7.395s-.288-.681-1.312-1.41c-1.007-.724-3.773-.125-3.773-.125l2.118-1.055 4.371-8.619s-.582-2.433.288-3.534c.981-1.285 3.127-.321 3.127-.321s-.607.406-1.086.627c-.463.214-.16 1.331-.16 1.331l2.161 2.442-1.506.64-3.91 7.885s1.71-.08 2.575.658l5.062 8.931.536.267-2.287 1.335.981 1.993m12.526-1.716s-2.552-.435-3.216-1.153c-.671-.704.466-2.652.466-2.652l-3.777-7.568s-.251-.695-1.217-1.476c-.965-.788-3.75-.342-3.75-.342l2.159-.925 4.827-8.325s-.427-2.438.484-3.479c1.073-1.219 3.127-.159 3.127-.159s-.619.378-1.1.579c-.477.187-.242 1.317-.242 1.317l2.011 2.545-1.534.551-4.327 7.596s1.705.018 2.515.822l4.54 9.154.5.289-2.333 1.187.867 2.039m12.539-.681s-2.52-.588-3.152-1.335c-.63-.738.63-2.604.63-2.604l-3.355-7.76s-.194-.715-1.125-1.554c-.918-.841-3.716-.547-3.716-.547l2.209-.807 5.286-8.022s-.285-2.465.68-3.449c1.121-1.148 3.122.027 3.122.027s-.641.333-1.137.503c-.486.169-.32 1.299-.32 1.299l1.874 2.652-1.57.462-4.734 7.334s1.696.121 2.456.957l4.008 9.384.482.312-2.397 1.064.758 2.082m12.534.21s-2.467-.738-3.058-1.508c-.58-.784.765-2.577.765-2.577l-2.901-7.96s-.148-.715-1.029-1.611c-.876-.877-3.693-.752-3.693-.752l2.253-.672 5.743-7.73s-.144-2.483.876-3.408c1.194-1.082 3.134.196 3.134.196s-.673.303-1.169.444c-.488.139-.388 1.283-.388 1.283l1.7 2.764-1.582.378-5.163 7.058s1.689.21 2.415 1.091l3.472 9.607.463.351-2.449.934.612 2.112m12.577 1.278s-2.444-.868-2.992-1.672c-.543-.818.927-2.54.927-2.54l-2.467-8.138s-.128-.738-.94-1.681c-.831-.939-3.661-.975-3.661-.975l2.303-.542 6.194-7.436s-.014-2.492 1.068-3.365c1.274-1.023 3.111.387 3.111.387s-.673.248-1.189.365c-.495.112-.45 1.26-.45 1.26l1.545 2.861-1.605.298-5.583 6.794s1.682.303 2.346 1.223l2.958 9.842.438.374-2.515.797.511 2.148m12.591 2.216s-2.422-1.014-2.921-1.873c-.502-.845 1.068-2.502 1.068-2.502l-2.018-8.334s-.082-.738-.858-1.745c-.771-.984-3.631-1.166-3.631-1.166l2.335-.431 6.669-7.12s.135-2.517 1.262-3.351c1.322-.957 3.118.57 3.118.57s-.705.228-1.212.303c-.518.084-.536 1.251-.536 1.251l1.406 2.964-1.648.21-5.98 6.518s1.666.406 2.28 1.372l2.415 10.061.434.415-2.57.645.388 2.214m12.6 3.394s-2.392-1.157-2.842-2.046c-.454-.873 1.226-2.465 1.226-2.465l-1.589-8.512s-.032-.761-.765-1.802c-.721-1.041-3.606-1.392-3.606-1.392l2.403-.303 7.098-6.821s.276-2.536 1.47-3.301c1.379-.895 3.122.738 3.122.738s-.717.187-1.251.237c-.525.075-.612 1.233-.612 1.233l1.262 3.076-1.675.116-6.402 6.261s1.671.503 2.234 1.495l1.874 10.298.422.435-2.641.522.269 2.233m12.629 4.484s-2.344-1.303-2.764-2.226c-.427-.907 1.363-2.429 1.363-2.429l-1.137-8.712s0-.765-.687-1.859c-.682-1.107-3.561-1.593-3.561-1.593l2.428-.191 7.562-6.514s.427-2.549 1.666-3.267c1.456-.836 3.12.925 3.12.925s-.751.144-1.276.164c-.541.027-.685 1.219-.685 1.219l1.1 3.174-1.71.027-6.806 5.99s1.666.588 2.18 1.647l1.347 10.523.404.453-2.691.387.146 2.281m17.163-18.061l-8.02 6.22-2.481.057s2.892.649 3.529 1.811c.632 1.144.6 1.923.6 1.923l.694 8.903s-1.89 1.442-1.518 2.399c.386.948 2.684 2.394 2.684 2.394l-.032-2.319 2.759-.248-.374-.499-.815-10.737c-.47-1.094-2.123-1.788-2.123-1.788l7.235-5.718 1.719.057-.947-3.278s.21-1.201.753-1.201c.539 0 1.306-.107 1.306-.107s-1.6-1.864-3.111-1.098c-1.303.663-1.858 3.231-1.858 3.231m11.485 5.475l-8.034 6.229-2.47.057s2.901.654 3.538 1.811c.63 1.135.591 1.923.591 1.923l.689 8.894s-1.883 1.447-1.513 2.413c.379.948 2.693 2.39 2.693 2.39l-.039-2.326 2.759-.248-.379-.485-.799-10.751c-.479-1.082-2.141-1.779-2.141-1.779l7.244-5.714 1.716.048-.947-3.272s.21-1.196.753-1.201c.536 0 1.301-.116 1.301-.116s-1.595-1.864-3.106-1.098c-1.303.668-1.858 3.226-1.858 3.226m-.833-138.401l2.538-9.817 1.945-1.554s-2.707 1.242-3.901.72c-1.219-.529-1.659-1.166-1.659-1.166l-5.994-6.639s.621-2.283-.267-2.82c-.886-.519-3.599-.257-3.599-.257l1.454 1.82-2.024 1.882.589.157 7.21 8.015c1.045.59 2.775.118 2.775.118l-2.228 8.944-1.406 1 2.759 2.021s.557 1.078.126 1.41c-.42.321-.963.873-.963.873s2.415.503 3.145-1.03c.625-1.31-.5-3.677-.5-3.677m-23.354-14.854s2.673-.125 3.503.444c.842.563.128 2.779.128 2.779l5.539 6.814s.413.663 1.573 1.233c1.159.57 3.864-.513 3.864-.513l-1.972 1.428-2.995 9.523s.975 2.385.292 3.652c-.792 1.463-3.127.857-3.127.857s.545-.522.986-.829c.443-.303-.059-1.394-.059-1.394l-2.6-2.105 1.42-.923 2.65-8.671s-1.723.369-2.716-.257l-6.681-8.243-.573-.185 2.095-1.736-1.328-1.875m-12.468 4.99s2.648.023 3.453.627c.785.606-.043 2.752-.043 2.752l5.11 7.006s.363.654 1.479 1.294c1.102.62 3.844-.296 3.844-.296l-2.029 1.294-3.458 9.213s.858 2.408.116 3.625c-.874 1.394-3.138.665-3.138.665s.555-.478 1.011-.756c.443-.276.014-1.376.014-1.376l-2.444-2.224 1.442-.822 3.074-8.416s-1.716.276-2.668-.387l-6.142-8.468-.561-.207 2.15-1.613-1.21-1.909m-12.485 3.914s2.616.166 3.378.797c.753.627-.187 2.718-.187 2.718l4.679 7.192s.32.679 1.376 1.358c1.068.681 3.818-.084 3.818-.084l-2.054 1.18-3.93 8.917s.714 2.417-.084 3.568c-.934 1.351-3.138.503-3.138.503s.598-.444 1.057-.704c.452-.244.078-1.344.078-1.344l-2.294-2.335 1.474-.738 3.481-8.147s-1.703.194-2.616-.513l-5.599-8.708-.557-.237 2.218-1.469-1.1-1.955m-12.493 2.87s2.584.312 3.294.975c.71.681-.329 2.679-.329 2.679l4.229 7.384s.276.697 1.294 1.426c1.02.729 3.775.107 3.775.107l-2.102 1.069-4.369 8.619s.564 2.44-.288 3.534c-.993 1.283-3.136.317-3.136.317s.623-.401 1.086-.627c.461-.219.16-1.335.16-1.335l-2.159-2.431 1.511-.647 3.894-7.871s-1.689.075-2.549-.672l-5.083-8.938-.523-.251 2.273-1.344-.979-1.993m-12.512 1.721s2.54.444 3.211 1.139c.676.715-.47 2.654-.47 2.654l3.789 7.575s.237.706 1.212 1.485c.968.781 3.743.328 3.743.328l-2.159.941-4.827 8.307s.429 2.461-.477 3.49c-1.07 1.226-3.131.148-3.131.148s.625-.367 1.102-.56c.472-.191.235-1.317.235-1.317l-1.995-2.54 1.518-.563 4.321-7.593s-1.689-.021-2.497-.807l-4.537-9.163-.523-.294 2.346-1.201-.86-2.03m-12.545.682s2.515.595 3.143 1.333c.641.738-.628 2.602-.628 2.602l3.357 7.771s.194.713 1.128 1.545c.904.829 3.713.535 3.713.535l-2.212.816-5.291 8.022s.297 2.467-.657 3.452c-1.139 1.157-3.138-.025-3.138-.025s.657-.337 1.134-.503c.488-.169.308-1.303.308-1.303l-1.846-2.652 1.557-.469 4.729-7.336s-1.696-.109-2.442-.948l-4.022-9.373-.486-.319 2.415-1.075-.762-2.071m-12.542-.204s2.47.72 3.068 1.51c.58.77-.774 2.568-.774 2.568l2.901 7.956s.157.72 1.034 1.611c.874.891 3.682.756 3.682.756l-2.246.677-5.74 7.723s.151 2.483-.881 3.415c-1.18 1.091-3.122-.21-3.122-.21s.671-.294 1.162-.435c.495-.144.386-1.285.386-1.285l-1.707-2.743 1.6-.394 5.145-7.058s-1.689-.212-2.394-1.091l-3.474-9.601-.479-.351 2.454-.93-.612-2.119m-12.574-1.284s2.44.863 2.997 1.686c.536.813-.924 2.533-.924 2.533l2.463 8.131s.119.738.943 1.686c.831.941 3.656.975 3.656.975l-2.294.535-6.197 7.436s0 2.495-1.08 3.367c-1.253 1.023-3.109-.387-3.109-.387s.676-.251 1.187-.369c.504-.109.454-1.26.454-1.26l-1.547-2.861 1.602-.294 5.583-6.796s-1.68-.303-2.344-1.217l-2.951-9.851-.447-.371 2.52-.797-.511-2.146m-12.591-2.206s2.413 1.021 2.915 1.859c.498.85-1.066 2.504-1.066 2.504l2.024 8.332s.078.738.87 1.741c.774.998 3.622 1.176 3.622 1.176l-2.353.428-6.642 7.124s-.144 2.517-1.271 3.351c-1.319.955-3.125-.563-3.125-.563s.705-.235 1.214-.321c.523-.073.541-1.248.541-1.248l-1.404-2.964 1.641-.194 5.994-6.529s-1.682-.394-2.294-1.367l-2.415-10.07-.438-.406 2.572-.656-.386-2.196m-12.602-3.409s2.387 1.16 2.842 2.046c.452.873-1.21 2.47-1.21 2.47l1.57 8.516s.046.763.765 1.802c.735 1.05 3.599 1.387 3.599 1.387l-2.381.31-7.11 6.817s-.278 2.524-1.472 3.306c-1.388.891-3.111-.738-3.111-.738s.714-.185 1.244-.244c.53-.066.607-1.242.607-1.242l-1.463-2.533 1.301-.344 6.991-6.559s-1.673-.49-2.237-1.504l-1.883-10.291-.415-.428 2.632-.535-.269-2.235m-12.62-4.482s2.346 1.301 2.769 2.226c.411.904-1.374 2.424-1.374 2.424l1.134 8.71s0 .772.682 1.861c.692 1.098 3.567 1.604 3.567 1.604l-2.431.175-7.575 6.527s-.404 2.545-1.657 3.258c-1.456.841-3.111-.914-3.111-.914s.742-.137 1.28-.185c.53-.027.676-1.207.676-1.207l-1.102-3.165 1.7-.034 6.813-5.994s-1.664-.595-2.173-1.645l-1.347-10.521-.415-.456 2.709-.385-.146-2.281m-17.167 18.064l8.032-6.22 2.474-.057s-2.896-.654-3.526-1.811c-.644-1.144-.598-1.925-.598-1.925l-.698-8.903s1.883-1.444 1.516-2.392c-.381-.957-2.682-2.399-2.682-2.399l.032 2.315-2.766.262.388.476.799 10.751c.482 1.091 2.143 1.779 2.143 1.779l-7.247 5.723-1.726-.048.952 3.272s-.212 1.201-.758 1.201c-.543 0-1.301.109-1.301.109s1.595 1.864 3.118 1.098c1.303-.672 1.849-3.231 1.849-3.231m-11.484-5.475l8.027-6.233 2.474-.052s-2.896-.661-3.526-1.811c-.637-1.141-.605-1.923-.605-1.923l-.687-8.903s1.888-1.438 1.511-2.39c-.381-.952-2.682-2.404-2.682-2.404l.025 2.319-2.769.257.39.478.815 10.742c.47 1.098 2.127 1.788 2.127 1.788l-7.24 5.723-1.721-.05.947 3.276s-.21 1.189-.755 1.189l-1.303.118s1.598 1.852 3.12 1.082c1.303-.649 1.851-3.208 1.851-3.208" fill="#F47836" sketch:type="MSShapeGroup"/><path d="M22.672 242.565l36.907-13.043c4.811 3.543 14.048 6.22 20.994 7.395-.564 3.634-.242 7.443.536 9.667.783 2.24 8.071 19.746 8.071 19.746l-23.732 8.641-8.888-21.156-8.061-2.089-2.056 10.011 24.865 61.768 7.71 1.686 4.264-7.694-5.544-14.431-6.391 2.413-8.354-20.855 30.34-11.102s11.453 28.339 12.647 31.406c1.191 3.076 5.058 8.026 6.665 9.571-3.052 2.861-10.314 11.592-8.824 19.632l-37.475 14.515c-3.677-3.862-6.163-11.792-17.696-10.505-.121-3.165-2.657-5.495-4.695-10.551-2.043-5.069-20.941-50.527-22.158-53.576-1.196-3.062-3.383-8.272-7.89-12.521 5.706-4.103 9.885-11.772 8.767-18.928m155.866-38.714l33.739-3.212c2.011 7.484 7.281 12.628 10.332 15.139-3.17 3.791-2.287 8.047-1.463 10.576 2.999 9.07 18.942 53.022 19.957 55.309 1.983 4.5 6.382 8.516 10.056 11.163-.785.98-5.733 8.197-5.685 17.092 0 0-25.684 1.629-25.698 1.579-.415-3.03-5.033-11.471-9.271-16.162 4.236-3.283 5.891-5.513 4.341-9.879-.322-.891-1.143-3.511-1.86-5.919l-19.916 2.47c-.066 2.417-.187 4.775-.26 5.98-.317 4.762 3.036 7.092 6.315 8.664-2.07 4.538-4.423 10.56-4.111 17.62l-27.781 4.037c-.336-5.078-4.314-12.116-7.466-16.018 4.143-3.921 5.765-8.343 7.101-14.929.842-4.178 3.239-22.325 5.156-36.894 1.474-11.111 1.57-18.511 1.91-20.167.913-4.664-.237-6.88-2.392-9.876 2.775-3.128 6.879-9.892 6.996-16.572zm22.4 41.182c-.918-2.921-2.616-10.254-2.616-10.254s-.646 8.045-1.023 10.68c-.381 2.652-2.079 14.31-2.079 14.31l10.727-1.107c0-.002-4.101-10.719-5.01-13.629zm108.694-43.274l26.499 2.47c.37 6.461 3.17 13.82 5.245 17.723-4.791 3.415-7.653 6.545-8.036 12.353l-3.456 52.922c-.235 3.609.411 6.671 3.937 10.061-1.767 2.139-7.696 11.355-9.267 17.616l-20.818-2.385-17.431-49.463-2.52-10.261c-.135 1.829.379 8.651.253 10.526-.673 9.74-1.319 18.748-1.319 18.748-.228 3.324 1.783 9.958 6.194 12.371-2.481 3.356-7.854 9.758-8.707 16.456l-23.463-.458c-1.317-8.076-2.408-10.341-6.628-16.918 1.634-1.269 7.461-6.91 7.792-11.979l3.451-53.332c.242-3.515.986-8.307-4.309-12.765 2.947-4.213 5.797-11.683 6.026-15.674l26.56.358 16.372 46.324 1.582 10.649.011-11.396 1.007-15.49c.278-4.115-.315-8.368-4.978-12.464 2.33-3.087 4.608-11.856 6.003-15.987m-172.778 38.375c1.404 6.051 13.151 49.201 13.587 50.773 1.513 5.452 4.841 8.174 10.191 10.929-3.433 6.074-5.229 10.261-2.791 18.235 0 0-25.62 6.425-25.62 6.411-1.529-5.625-2.609-9.259-11.348-14.645 4.547-5.728 4.741-10.676 3.579-15.239-1.171-4.566-11.802-46.36-12.597-49.359-.781-2.978-2.73-8.516-10.844-12.729 2.481-3.593 4.323-10.835 2.901-16.959 0 0 26.574-6.042 26.556-6.11 1.783 7.065 7.267 12.494 10.942 13.907-3.074 4.226-5.957 8.735-4.556 14.786m224.872 50.83l13.005-56.975c-5.3-.032-13.866 3.224-20.119 9.122l-14.498-13.786c7.696-5.144 18.07-13.025 21.409-21.434 0 0 62.045 12.975 62.045 12.991-.959 7.981 3.12 19.999 7.404 28.061 0 0-17.935 5.976-17.949 5.976-2.376-6.27-7.384-14.601-12.473-17.246l-13.982 59.048c-1.016 4.86.507 10.942 3.782 14.389-5.464 3.534-9.474 7.418-10.762 14.898 0 0-24.664-5.7-24.664-5.709 2.383-7.249.201-11.984-3.09-18.386 5.663-2.228 8.577-6.828 9.892-10.949m52.254 15.784l4.761-11.956 24.785 9.557-6.379 16.775 3.51 7.106 7.502-3.035 6.934-18.431-33.179-26.116c2.714-3.071 3.85-5.486 5.014-8.3 1.173-2.791 7.518-16.155 8.655-20.101 1.141-3.937 2.209-5.001 1.518-13.282 6.267.166 15.564-2.31 19.181-8.662l34.368 12.362c.844 5.917 9.76 17.237 12.346 19.889-2.511 2.777-5.238 6.074-6.313 9.216-1.075 3.128-6.076 16.7-6.076 16.7l-23.922-9.357 6.989-19.249.272-2.351-3.102-4.903-8.182 3.19-8.105 19.354 32.116 25.585c-2.029 2.39-3.143 4.584-4.442 7.685-2.787 6.91-8.899 22.988-8.899 22.988-1.522 4.525-1.301 7.992-1.353 11.489-8.189.337-17.127 3.36-19.951 8.459l-35.8-13.954c.53-8.502-.904-15.809-6.658-20.659 3.23-3.046 2.937-6.336 4.41-9.997" fill="#BC9B6A" sketch:type="MSShapeGroup"/><path d="M18.769 240.651l37.993-13.421c4.807 3.552 12.955 6.589 19.907 7.773-.571 3.622-.249 7.436.541 9.655.781 2.233 7.993 19.985 7.993 19.985l-23.732 8.566-8.819-21.325-8.059-2.08-2.602 9.393 24.865 61.77 8.18 2.461 4.581-8.521-5.094-13.824-7.164 2.634-8.347-20.855 30.342-11.093s11.449 28.332 12.645 31.392c1.185 3.071 5.067 8.031 6.667 9.566-3.052 2.88-10.319 11.605-8.828 19.636l-37.479 14.528c-3.672-3.846-8.808-8.375-20.352-7.092-.128-3.185 0-8.903-2.038-13.963-2.034-5.051-22.075-53.735-22.075-53.735-1.598-4.509-3.392-8.263-7.89-12.517 5.69-4.115 9.869-11.779 8.769-18.935m156.421-39.582l33.707-3.167c2.011 7.486 7.256 12.64 10.326 15.148-3.173 3.784-2.308 8.045-1.456 10.564 2.992 9.09 18.923 53.024 19.941 55.334 2.353 5.265 5.987 8.632 9.44 11.107-.792.984-5.113 8.25-5.046 17.135 0 0-25.698 1.62-25.716 1.57-.404-3.021-5.017-11.48-9.264-16.162 4.245-3.267 5.884-5.513 4.327-9.888-.31-.863-1.132-3.497-1.846-5.901l-19.937 2.479c-.055 2.408-.157 4.766-.237 5.967-.315 4.766 3.024 7.079 6.311 8.678-2.061 4.52-4.423 10.537-4.104 17.611l-27.786 4.035c-.354-5.074-3.563-11.756-7.263-16.037 4.129-3.916 5.558-8.325 6.886-14.92.858-4.178 3.246-22.316 5.163-36.876 1.472-11.118 1.605-18.561 1.933-20.215.931-4.675-.219-6.887-2.378-9.876 2.764-3.135 6.884-9.899 7-16.586zm22.347 41.227c-.913-2.912-2.629-10.573-2.629-10.573s-.018 8.373-.395 11.018c-.377 2.634-2.077 14.317-2.077 14.317l10.106-1.125c-.002.002-4.081-10.721-5.005-13.635zm109.245-43.841l26.499 2.488c.367 6.459 3.159 13.818 5.247 17.72-4.804 3.415-7.669 6.548-8.045 12.355l-3.49 52.917c-.228 3.613.402 6.68 3.928 10.065-1.757 2.139-7.703 11.35-9.267 17.611l-20.816-2.399-17.41-49.461-2.771-13.594c-.123 1.839.635 11.975.498 13.84-.671 9.753-1.317 18.755-1.317 18.755-.235 3.324 1.776 9.958 6.185 12.389-2.481 3.338-7.861 9.758-8.717 16.438l-23.463-.472c-1.312-8.072-1.91-10.377-6.115-16.948 3.045-2.372 6.961-6.951 7.299-11.943l3.467-53.332c.237-3.515-.039-7.746-5.323-12.2 2.958-4.224 6.818-12.255 7.055-16.246l25.371.385 16.351 46.358 3.405 13.503-.623-14.276 1.009-15.508c.276-4.105-1.406-7.947-6.071-12.045 2.33-3.082 5.715-12.271 7.112-16.401m-173.701 39.283c1.406 6.051 13.076 49.286 13.512 50.858 1.502 5.456 4.117 8.334 9.456 11.097-3.428 6.074-4.503 10.093-2.066 18.067 0 0-25.625 6.42-25.625 6.404-1.534-5.634-2.6-9.257-11.344-14.654 4.547-5.723 4.741-10.676 3.583-15.232-1.153-4.557-12.738-47.609-13.455-50.621-.724-3.003-2.253-7.024-10.348-11.245 2.46-3.591 4.768-11.138 3.346-17.256 0 0 26.576-6.04 26.56-6.117 1.778 7.072 7.256 12.505 10.937 13.913-3.079 4.224-5.962 8.746-4.558 14.786m226.362 49.541l12.994-56.963c-5.288-.043-13.338 2.887-19.606 8.76l-14.486-13.77c7.701-5.135 17.488-12.649 20.834-21.063 0 0 60.938 12.788 60.938 12.804-.959 7.981 5.352 19.866 9.65 27.92l-19.081 6.306c-2.383-6.272-7.847-13.146-12.941-15.788l-13.466 57.544c-1.018 4.869.5 10.952 3.771 14.385-5.455 3.547-9.458 7.432-10.762 14.911 0 0-24.659-5.691-24.645-5.709 2.376-7.249.189-11.993-3.079-18.386 5.642-2.244 8.564-6.839 9.881-10.952m52.802 15.495l4.759-11.952 24.766 9.557-6.372 16.77 3.522 7.101 7.491-3.035 6.939-18.431-33.177-26.107c2.714-3.08 4.905-7.814 6.069-10.612 1.178-2.795 6.347-13.79 7.482-17.745 1.146-3.937 2.212-4.989 1.522-13.294 6.263.178 15.552-2.299 19.17-8.651l36.032 12.966c.84 5.914 8.121 16.624 10.709 19.281-2.515 2.782-5.238 6.069-6.313 9.206-1.086 3.142-6.071 16.709-6.071 16.709l-23.94-9.361 6.993-19.247-4.042-6.411-6.966 2.344-8.014 19.308 32.136 25.578c-2.045 2.404-3.163 4.593-4.46 7.707-2.789 6.887-8.892 22.983-8.892 22.983-1.534 4.525-1.312 7.965-1.347 11.489-8.201.333-17.145 3.347-19.969 8.459l-35.8-13.963c.555-8.507-3.917-15.071-9.684-19.93 3.252-3.055 5.98-7.065 7.457-10.721" fill="#F47836" sketch:type="MSShapeGroup"/><path d="M63.244 342.907c-4.298-4.509-11.257-7.208-17.983-6.737-.116-2.82.411-5.272-1.456-9.915-1.865-4.632-20.79-50.108-22.705-55.293-1.917-5.178-4.181-9.443-6.215-11.289 4.985-3.953 7.877-12.913 7.516-16.722l33.736-11.902c3.23 2.458 11.604 5.092 17.239 6.224-.347 2.36-.34 5.782.616 8.509.954 2.727 6.514 16.54 6.514 16.54l-17.127 6.498-8.052-19.614-12.19-3.472-4.928 13.207 26.045 64.671 12.53 4.121 6.21-11.881-7.311-18.898-6.402 2.417-5.672-14.244 23.817-9.001s10.515 26.134 11.467 28.465c.975 2.34 2.798 5.345 5.583 8.031-3.618 3.39-8.459 11.168-8.157 17.461l-33.074 12.824m151.818-129.321c-2.415 3.224-1.646 7.687-.53 11.086 2.591 7.837 18.928 53.131 20.085 55.662 1.586 3.511 4.076 7.11 8.493 10.28-1.379 1.75-3.828 8.325-4.195 13.389l-19.976 1.223c-.587-2.226-5.441-10.229-7.315-12.232 3.59-2.713 4.846-6.322 3.036-11.41-.461-1.326-2.581-8.491-2.581-8.491l-25.741 3.155s-.037 6.773-.281 8.553c-.559 4.197 1.347 8.193 5.592 10.373-2.241 4.976-3.168 8.641-3.319 13.408l-21.751 3.169c-.881-4.602-3.645-8.903-6.27-12.371 3.44-3.283 5.069-6.951 6.514-14.084 1.438-7.115 6.263-52.954 7.087-57.098.813-4.096.571-7.746-1.81-10.542 3.474-3.937 5.466-8.894 6.087-13.453l28.462-2.634c2.15 5.757 4.706 8.97 8.413 12.016zm-17.545 18.891c-.892-2.183-3.793-10.305-3.793-10.305s-.959 9.122-1.235 10.649c-.26 1.522-4.038 28.075-4.038 28.075l18.798-2.06c.002-.002-8.824-24.17-9.732-26.359zm121.803 75.467l-15.984-1.877s-17.353-49.598-19.145-54.432c-1.762-4.816-4.884-15.725-4.884-15.725-.294 4.105-.646 10.917-.991 15.959-.888 12.268-1.769 24.977-1.883 26.665-.297 4.347 1.714 10.551 5.371 13.091-3.567 4.962-5.859 7.382-7.149 12.473l-17.905-.298c-.883-5.452-2.734-9.047-5.389-13.073 2.664-2.087 6.66-6.359 7.055-12.293.249-3.734 3.23-49.57 3.478-53.314.228-3.591.347-8.913-4.665-12.997 2.689-4.19 5.181-8.997 5.79-12.246l20.156.319s17.248 48.944 18.729 53.038c1.463 4.094 4.54 13.51 4.54 13.51.24-3.506.637-7.978.915-12.284.792-12.155 1.632-25.318 1.764-27.323.354-5.231-1.201-8.537-5.571-12.581 2.394-3.322 4.236-8.475 5.58-12.471l21.201 1.998c.648 4.135 2.027 9.323 4.236 13.569-2.992 2.183-7.018 6.049-7.495 13.148-.539 8.083-3.273 49.908-3.474 52.915-.283 4.338.591 8.197 3.179 10.48-2.022 2.461-5.889 9.136-7.461 13.749m-169.394 7.339s-.817-3.511-.128-7.195c.692-3.698 2.629-7.031 2.629-7.031s-1.789-.672-4.9-3.969c-2.846-3.012-4.22-7.596-4.22-7.596l-13.578-51.115s-.755-4.415.059-7.839c.687-2.818 3.262-6.233 3.262-6.233s-1.075-.285-4.48-4.44c-3.421-4.16-4.044-6.812-4.044-6.812l-20.665 4.725s.621 2.643-.605 7.871c-1.205 5.21-2.052 5.923-2.052 5.923s3.825 1.966 5.701 4.197c2.26 2.727 3.529 7.026 3.529 7.026l13.69 51.516s1 4.677-.046 8.664c-1.169 4.347-2.403 5.789-2.403 5.789s3.3 2.025 5.699 4.944c2.369 2.928 3.355 6.386 3.355 6.386l19.197-4.812m268.964-84.687c-1.71-4.948-2.218-10.84-2.218-10.84l-55.467-11.605s-3.953 5.368-7.623 9.095c-5.38 5.472-9.865 8.509-9.865 8.509l9.191 8.676c8.073-7.737 17.034-8.213 23.764-7.274l-13.946 60.971s-1.269 4.613-4.063 7.675c-3.049 3.342-4.814 4.053-4.814 4.053s1.999 3.306 2.748 6.999c.767 3.693.021 7.208.021 7.208l18.225 4.215s.899-3.493 3.227-6.457c2.319-2.969 5.59-5.042 5.59-5.042s-1.269-1.428-2.504-5.766c-1.118-3.978-.201-8.678-.201-8.678l14.338-61.581c6.945 2.292 14.61 8.058 17.355 16.383l12.174-4.247c.002.002-3.43-5.051-5.934-12.293m8.515 41.129c-1.812 3.52-2.588 4.29-2.588 4.29l32.602 25.649-8.338 22.147-11.795 4.784-5.583-11.261 5.701-15.023-18.435-7.083c-1.938 5.078-3.834 9.523-4.028 10.02-.724 1.896-3.818 6.092-5.642 8.231 5.238 4.263 8.475 11.378 8.564 17.609l31.379 12.259c4.035-4.823 12.841-7.227 17.78-7.259-.233-3.853.904-8.099 1.331-9.687l7.363-19.534s2.036-5.238 3.173-7.302c1.016-1.868 1.369-2.189 1.369-2.189l-31.486-25.084 9.388-23.104 11.07-3.743 6.354 10.052-6.436 17.657 17.554 6.999 5.345-14.604c1.187-3.365 3.134-4.654 4.834-6.999-3.666-4.447-8.326-12.679-9.299-16.64l-31.776-11.439c-2.1 3.18-10.723 7.653-17.07 7.562.427 2.734-.73 8.443-2.212 12.715-.21.57-1.732 2.994-4.232 10.168.002.002-3.976 9.056-4.887 10.81" fill="#000" sketch:type="MSShapeGroup"/></g></svg>