<svg width="512" height="512" viewBox="0 0 512 512" xmlns="http://www.w3.org/2000/svg"><title>houston-rockets</title><g fill="none" fill-rule="evenodd"><path d="M200.723 206.886c.254-5.285 1.078-8.543 2.548-14.038-.21.247-.66.684-1.37 1.362-1.47 5.5-2.3 8.773-2.53 14.04v9.367l1.37 1.792-.01-12.53" fill="#261C02"/><path d="M188.82 215.8l15.586 20.588 1.372-1.355-16.946-22.41-.013 3.176" fill="#261C02"/><path d="M187.41 235.212l1.364-1.356-4.997 3.643-.027-40.19-1.352 1.36.013 40.18 5-3.65" fill="#261C02"/><path d="M166.344 236.307s8.983.874 8.983-8.558c0 7.28-7.605 7.19-7.605 7.19h-7.08s-7.605.09-7.605-7.19v-23.24c0-7.2 7.604-7.2 7.604-7.2s-8.96-.26-8.96 8.56v23.23c0 7.29 7.59 7.192 7.59 7.192h7.08" fill="#261C02"/><path d="M168.015 206.87v21.364c0 1.316-.34 2.47-.927 3.377.052-.02.105-.05.138-.07.097-.07.176-.12.254-.19v-.02c.228-.15.41-.34.58-.54.08-.08.14-.15.217-.24.084-.09.137-.18.19-.27.05-.1.123-.19.17-.285.026-.04.058-.08.07-.142.047-.103.1-.195.157-.286 0-.012.008-.012.008-.012.04-.11.077-.2.117-.3v-.023c.02-.04.04-.104.04-.15h.01c.01-.057.02-.11.05-.156v-.025c.028-.04.028-.095.053-.133v-.034c.02-.04.026-.103.04-.163l.006-.016c.012-.047.025-.086.03-.15.01 0 .01-.013.01-.033.012-.11.045-.214.064-.32V228c.01-.057.01-.103.02-.148.02-.008.02-.008.02-.028v-.165c0-.02.013-.02.013-.05 0-.048 0-.08.006-.14v-.03c.005-.06.01-.12.01-.17v-.24c.014-.05.014-.128.014-.18V205.5c0-3.317-2.06-5.568-5.214-5.568-.06 0-.124 0-.19.014h-.267c-.02 0-.067 0-.11.02h-.088c-.01.007-.05.007-.1.013h-.08c-.025 0-.07.01-.104.01-.025.01-.04.01-.07.01-.034 0-.067.02-.125.02h-.065c-.03.003-.077.003-.13.024-.02 0-.03.012-.06.012-.043.004-.09.02-.135.03-.026 0-.065 0-.08.027-.037 0-.07 0-.103.01-.02.016-.04.016-.07.02-.03.016-.05.016-.08.035-.035 0-.06.004-.076.01-.03.014-.06.014-.08.02-.043.02-.06.02-.09.045-.005 0-.05.016-.07.016-.04 0-.05.014-.092.03-.02.01-.03.02-.057.02-.025.023-.07.043-.1.05-.004 0-.023.013-.05.026-.063.02-.116.058-.174.078-.02 0-.032.016-.052.02-.03.02-.05.04-.08.054-.02.013-.036.013-.05.02-.04.02-.065.046-.09.052-.02.007-.032.04-.052.04-.03.006-.053.032-.08.046-.024.02-.037.02-.045.03-.03.02-.056.04-.095.052-.014.02-.02.03-.04.047-.04.02-.05.033-.08.052-.03.02-.034.026-.047.045-.024.02-.044.04-.08.063-.01 0-.03.014-.03.02-.1.08-.19.17-.28.254-.02.006-.034.02-.05.025l-.064.085c-.02.005-.027.024-.046.04-.02.017-.033.062-.052.08-.02.015-.03.02-.05.047-.02.02-.04.04-.052.067-.025.025-.04.04-.05.06-.02.025-.046.06-.06.083 0 .012 0 .045-.03.052-.028.02-.035.05-.054.07-.025.02-.025.032-.044.044-.007.047-.02.086-.04.1.843-.503 1.856-.732 2.987-.732 3.15 0 5.21 2.235 5.21 5.56" fill="#261C02"/><path d="M310.22 188.372c-.47.46-.887.847-1.365 1.368-.9 2.568-1.567 5.11-2.037 7.64.372-.086.745-.164 1.124-.222.47-2.908 1.26-5.827 2.28-8.786" fill="#261C02"/><path d="M322.98 219.204c.086-3.24-6.043-3.977-9.987-4.12l.02 1.435c3.827.27 8.674 1.17 8.583 4.05l.215 15.46 5.47 3.19 1.38-1.37-5.48-3.18-.19-15.48" fill="#261C02"/><path d="M306.305 200.764c-.052.403-.104.802-.14 1.2l-.194 37.262 5.79-3.187 1.36-1.37-5.77 3.18.223-37.26c.013-.407.077-.8.118-1.22-5.44-.06-10.18.402-10.18.402l-1.356 1.36s4.71-.448 10.164-.38" fill="#261C02"/><path d="M322.823 214.023c.964-.515 2.16-1.553 3.708-2.985-2.9 2.47-6.58 3.33-6.58 3.33s1.3-.3 2.88-.345" fill="#261C02"/><path d="M312.908 201.145c5.037.594 9.354 1.955 9.74 4.92.287 2.347-.334 4.173-1.437 5.575.04-.033.07-.046.1-.066.11-.105.21-.202.33-.306.08-.045.16-.13.25-.21.098-.11.183-.195.287-.298.09-.09.15-.17.23-.248.09-.11.187-.22.26-.32.07-.09.14-.202.2-.306.078-.11.156-.21.235-.318.06-.118.123-.23.183-.34.06-.112.105-.222.17-.34.06-.13.11-.253.164-.39.044-.105.083-.23.116-.34.06-.15.098-.318.138-.475.027-.105.068-.21.08-.32.054-.254.094-.546.133-.827v-.144c.02-.033.02-.085.02-.136v-.842c0-.018 0-.057-.02-.09v-.19c-.014-.04-.014-.064-.014-.103v-.04c-.013-.04-.013-.06-.024-.11v-.03c0-.047-.02-.086-.027-.145-.4-3.24-5.535-4.587-11.186-5.075.04.33.066.657.08.984l.006.545" fill="#261C02"/><path d="M348.984 199.95h-.458c-.04 0-.066.02-.118.02-.014 0-.04 0-.072.005-.045 0-.064 0-.116.005h-.066c-.035 0-.085.014-.105.014-.03.013-.06.013-.09.013s-.07.02-.1.02c-.04.008-.04.008-.06.008-.05.005-.09.005-.13.025-.02 0-.07.013-.07.013-.05.007-.11.014-.15.025-.02 0-.06.014-.08.027-.047 0-.07 0-.098.013-.04.013-.053.013-.09.02-.014.012-.033.032-.066.032-.045.007-.06.007-.078.033-.046 0-.074.006-.098.006-.02.01-.05.01-.087.04-.016 0-.047.01-.055.01-.033.01-.06.02-.08.02-.04.013-.06.02-.07.02-.03.026-.066.04-.104.045 0 0-.025.013-.045.013-.11.064-.217.115-.34.18-.01 0-.02 0-.047.007-.02.027-.05.046-.083.05-.013.017-.032.036-.045.036-.013.007-.06.033-.08.06-.01.005-.044.005-.044.02-.015.024-.07.044-.09.06-.016.017-.016.024-.05.044-.02.015-.06.04-.08.06-.03 0-.03 0-.043.01-.028.025-.06.06-.106.083-.137.12-.28.26-.425.396 0 .023-.012.023-.012.036-.02.012-.046.06-.078.09-.006.007-.013.007-.013.02-.04.04-.06.07-.074.1-.03.01-.03.023-.045.023-.01.044-.04.076-.06.096 0 .012 0 .024-.01.024l-.15.246c.813-.5 1.84-.723 2.983-.723 3.15 0 5.21 2.24 5.21 5.55v21.35c0 1.302-.324 2.442-.92 3.356.067-.058.16-.097.224-.155.07-.05.135-.082.2-.13.19-.16.37-.32.55-.502l.19-.253.013-.02c.064-.07.13-.156.18-.26h.014c.01-.03.05-.084.062-.118.045-.062.05-.116.097-.155.028-.04.05-.07.07-.142.004 0 .004 0 .01-.01.052-.1.086-.19.15-.28v-.02c.04-.1.07-.2.11-.3 0-.016.014-.03.014-.03.027-.045.033-.09.05-.15v-.005c.02-.04.05-.105.06-.164l.014-.005.02-.15c.02 0 .02 0 .02-.018.01-.053.027-.1.04-.158.02 0 .02-.017.02-.017.007-.06.007-.097.02-.156v-.038c.04-.114.05-.22.064-.316.015-.017.015-.045.015-.05 0-.05.02-.1.02-.15v-.02c.005-.05.01-.117.017-.16v-.04c0-.055.015-.1.015-.14v-.045c.007-.07.007-.128.007-.18.01-.014.01-.025.01-.025v-21.7c0-3.316-2.04-5.55-5.19-5.55" fill="#261C02"/><path d="M352.517 234.913h-7.08s-7.592.092-7.592-7.196v-23.203c0-7.196 7.59-7.196 7.59-7.196s-8.96-.56-8.96 8.565v23.203c0 7.3 7.59 7.196 7.59 7.196h7.088s8.472.743 8.917-7.835c-.464 6.395-7.226 6.466-7.553 6.466" fill="#261C02"/><path d="M382.476 231.502c.086-.066.17-.12.242-.19h.012c.09-.072.17-.13.25-.215.025-.026.072-.065.11-.103.052-.046.08-.08.105-.125.038-.03.065-.06.11-.11h.007c.085-.09.13-.16.196-.25.014 0 .014-.03.014-.03.077-.07.124-.16.18-.237 0-.02 0-.02.022-.02.013-.038.034-.078.072-.124l.006-.014c.006-.054.06-.1.08-.126l.005-.02c.033-.036.046-.07.066-.13l.01-.02c.042-.09.087-.186.14-.27 0-.01 0-.03.013-.033l.123-.28v-.033c.01-.05.02-.095.05-.13v-.03c.02-.038.04-.103.04-.163v-.003c.03-.05.04-.096.05-.15l.008-.017c.01-.05.03-.1.047-.16.007 0 .007-.013.007-.013 0-.056.014-.095.02-.14.02-.02.02-.034.02-.05 0-.05.02-.09.025-.16 0-.056.004-.103.01-.15v-.05c.025-.054.03-.1.03-.145 0-.005.014-.02.014-.02 0-.056.016-.122.016-.17 0-.024.01-.04.01-.04 0-.042.015-.094.015-.133v-.25c0-.04 0-.09.015-.15v-2.26l-1.373 1.37v2.04c0 1.3-.347 2.47-.915 3.38.034-.028.08-.05.12-.07 0-.015.013-.015.013-.015" fill="#261C02"/><path d="M384.633 205.5c0-3.317-2.06-5.554-5.2-5.554h-.457c-.04 0-.067.02-.11.02-.022 0-.053 0-.086.007-.035 0-.054 0-.098.006h-.086c-.025 0-.065.01-.09.01-.02.01-.053.01-.086.01-.04 0-.072.02-.104.02h-.085c-.03.003-.05.003-.09.003-.02.02-.08.033-.1.04-.05 0-.07.013-.122.026-.026 0-.047.026-.09.026-.02 0-.06 0-.08.01-.026.013-.052.013-.08.02-.025.013-.05.032-.08.032-.036.003-.063.003-.102.024-.012 0-.04.01-.052.01-.043.02-.062.02-.095.044-.014 0-.028.01-.067.01-.02 0-.064.026-.097.04 0 0-.02.007-.055.007-.03.025-.064.045-.09.053-.013 0-.026.014-.026.014-.117.064-.26.11-.386.175l-.01.005c-.025.027-.07.052-.11.072-.014 0-.025.02-.025.02-.04.004-.07.03-.1.063-.02 0-.03 0-.03.014-.045.02-.07.047-.105.054-.002.02-.02.026-.02.044-.05.012-.086.044-.105.07-.006 0-.006 0-.027.01-.195.137-.37.307-.55.495h-.005c-.024.034-.045.08-.07.12h-.02c-.032.044-.056.076-.097.116v.015c-.03.044-.06.08-.082.102v.026c-.06.077-.11.162-.17.242.836-.5 1.848-.73 2.985-.73 3.16 0 5.206 2.233 5.206 5.544v2.04h5.93l1.377-1.363h-5.93v-2.03" fill="#261C02"/><path d="M390.41 229.414c-.01.06-.025.098-.025.124 0 .012-.006.026-.006.026 0 .032-.01.066-.02.104 0 0 0 .025-.02.025 0 .04 0 .086-.02.105 0 .013 0 .02-.027.026 0 .046-.02.078-.02.098-.005.02-.005.026-.005.034-.007.045-.007.077-.027.097v.026l-.04.09v.03c-.013.02-.026.06-.04.09v.04c-.01.03-.026.05-.033.09 0 .01 0 .02-.004.02-.014.04-.034.06-.034.093-.027.013-.027.013-.027.026-.008.04-.02.06-.02.09l-.014.007c-.006.034-.033.074-.046.113v.018c-.014.037-.025.07-.04.09v.025c-.02.02-.045.065-.05.096h-.015c-.17.4-.4.743-.634 1.062-.02.034-.048.06-.075.09 0 0 0 .01-.005.01 0 .027-.03.053-.05.085-.02.02-.045.045-.06.065v.016c-.026.02-.065.064-.084.07v.013c-.026.018-.04.045-.064.07 0 0 0 .014-.014.014-.014.027-.04.04-.07.066-.016.024-.04.05-.07.07v.01c-.02.02-.046.055-.078.076-.366.362-.77.66-1.18.915-.03.02-.05.04-.08.055-.045.012-.066.04-.097.045-.03.032-.053.04-.06.05h-.034c-.02.026-.034.034-.08.054v.01c-.02.01-.052.014-.08.035-.442.234-.906.404-1.35.547-.027.01-.04.02-.067.02-.03.003-.066.03-.08.036h-.005c-.026.01-.065.01-.084.025-.02 0-.04.004-.084.02h-.008c-.02.01-.03.01-.066.016-.024 0-.056 0-.08.02-.348.098-.656.158-.944.19h-.01c-.01 0-.027.014-.053.014-.014.03-.06.03-.072.03-.025.005-.04.005-.05.005h-.013c-.028 0-.048 0-.067.014-.016 0-.036 0-.055.013h-.13c-.008.01-.02.01-.06.01h-.06c-.006 0-.006.004-.046.004h-.03c-.12.025-.236.025-.33.025-.02.02-.03.02-.04.02h-.11c-.01 0-.01 0-.01.012h-7.28s-7.597.084-7.597-7.196v-23.2c0-7.198 7.6-7.198 7.6-7.198s-8.98-.492-8.98 8.567v23.2c0 7.294 7.625 7.195 7.625 7.195h7.054s8.315.822 8.93-7.573c-.03.256-.068.478-.11.706" fill="#261C02"/><path d="M499.023 231.597c.085-.053.184-.1.288-.163v-.013c.1-.06.17-.11.26-.19l.01-.01c.06-.05.13-.12.21-.22h.01c.06-.07.13-.14.19-.24 0-.003 0-.008.01-.008l.19-.26v-.01c.057-.096.09-.195.13-.292 0 0 .02-.007.02-.02.044-.09.077-.18.136-.285v-.03c.033-.105.06-.21.093-.327v-.02c.035-.09.08-.225.1-.343v-.02c.014-.12.03-.25.073-.386 0 0 .006 0 .006-.01.012-.145.032-.275.045-.4v-.032c.02-.136.027-.272.055-.416v-.03c0-.16 0-.287.01-.444v-.032c.006-.15.006-.303.006-.46v-.04c0-.15 0-.31.013-.47v-5.72c0-4.823-3.435-4.96-9.02-4.96-7.29 0-7.507-1.664-7.507-6.794v-5.73c0-.084.02-.15.02-.228v-.07c0-.06 0-.107.015-.16 0-.033.003-.07.003-.083v-.136c0-.026.01-.058.01-.084.015-.04.015-.08.036-.13v-.09c.01-.045.01-.08.025-.11.005-.027.005-.053.013-.09 0-.035.013-.07.013-.106.01-.04.01-.07.02-.09.005-.04.01-.07.01-.085 0-.05.01-.08.03-.12.01-.03.01-.04.01-.08.02-.02.04-.08.04-.11 0-.008.018-.04.03-.048.04-.14.09-.284.124-.42.02-.006.02-.02.02-.027.045-.05.052-.084.072-.142 0 0 .008-.012.008-.024.027-.04.047-.07.054-.106.02-.03.03-.04.046-.045.007-.054.02-.086.04-.125.02-.005.02-.02.02-.032.03-.047.05-.087.063-.12 0-.02.02-.026.02-.04.02-.025.043-.064.08-.103v-.01c.232-.38.5-.684.8-.98.046-.03.072-.07.11-.1h.013c.04-.04.06-.06.11-.094v-.013c.22-.17.456-.35.717-.506 0-.006.007-.006.013-.006.037-.03.07-.044.1-.06.016-.01.03-.01.055-.02.02-.023.05-.042.086-.06.013 0 .04-.003.054-.02.01-.01.047-.03.064-.05.03 0 .06-.02.08-.03.012 0 .03-.028.06-.028l.083-.043c.02 0 .044-.01.05-.03.04-.01.07-.03.11-.053h.025c.24-.123.51-.216.743-.3.055-.02.1-.04.17-.066.25-.06.46-.14.66-.195.075-.005.13-.032.193-.04.158-.03.3-.07.465-.102.07-.004.15-.01.235-.04.142-.03.28-.036.423-.055.02-.014.064-.014.09-.014-2.137.236-7.71 1.42-7.71 7.295v5.75c0 5.114.21 6.79 7.505 6.79 5.58 0 9.02.123 9.02 4.94v5.424c0 1.804-.162 3.21-.632 4.204.04-.026.09-.04.15-.072l.006-.014" fill="#261C02"/><path d="M500.88 205.25c-.013-2.97-.64-5.41-5.553-5.41h-.587c-.014.014-.033.014-.046.014h-.157c-.027.014-.046.014-.085.014h-.19c-.046.013-.066.013-.112.032h-.26c-.02 0-.04 0-.066.013-.012 0-.05 0-.058.02h-.183c-.02.02-.04.02-.078.02h-.046c-.03.012-.07.012-.09.02h-.04c-.03.006-.07.006-.1.006-.01.01-.01.01-.05.01-.01.01-.05.01-.068.01-.014 0-.014.02-.04.02h-.07l-.034.002h-.064c-.03.02-.04.02-.04.02-.04.014-.048.014-.067.02h-.044c-.02.013-.048.013-.067.026h-.027c-.03.026-.07.026-.076.026-.03 0-.037.013-.04.013-.04.013-.06.013-.087.02 0 0-.02 0-.03.013-.012.02-.032.02-.05.02-.02 0-.034.005-.04.005-.027.004-.047.023-.053.023h-.046c-.02 0-.02 0-.052.02-.012 0-.024 0-.04.03 0 0-.03 0-.04.015h-.037c-.036 0-.048.013-.048.025-.014 0-.014 0-.034.013-.028.008-.05.008-.08.027 0 .004-.01.004-.026.024-.02 0-.04.006-.06.02-.02 0-.038 0-.038.01 0 .016-.015.016-.054.016-.006.007-.006.027-.027.027 0 .012-.03.012-.04.02-.005 0-.005 0-.023.012-.013.01-.033.01-.045.02-.01 0-.02.003-.026.022-.027 0-.04 0-.05.015 0 .004-.017.004-.036.02-.01 0-.02.01-.025.016-.006 0-.02.02-.033.02-.01.01-.04.034-.063.034-.016.006-.016.006-.016.02-.028.017-.028.017-.06.025 0 .02-.027.027-.027.027s-.02.014-.02.027c-.015.007-.023.007-.035.02 0 .02-.035.02-.035.02-.01.02-.03.02-.03.02 0 .013 0 .013-.014.033-.008 0-.027.002-.033.022-.012 0-.024.015-.04.02l-.03.027s-.006.006-.013.026c-.013 0-.04.004-.04.023-.012.004-.024.024-.045.04-.007 0-.007 0-.007.01-.005.013-.016.026-.03.04-.013.005-.032.02-.04.02 0 .005-.02.005-.02.02-.02.02-.02.03-.02.03-.02.014-.02.014-.024.035-.01.004-.02.004-.02.024-.02.004-.02.004-.04.03 0 0-.01.006-.024.02 0 0-.008.012-.008.026-.02.006-.03.025-.03.025-.007.02-.02.02-.02.04-.005 0-.005.014-.013.014-.033.02-.033.03-.05.058v.01c0 .01-.02.04-.026.04 0 .006-.027.02-.027.025-.01.014-.01.04-.036.04 0 .02-.003.032-.003.032 0 .005 0 .02-.02.03 0 .005-.013.005-.013.02-.015.02-.026.02-.026.03s-.01.025-.01.025c-.02.025-.026.025-.026.044 0 .015 0 .027-.01.027-.01.005-.01.04-.02.04-.02.012-.02.02-.02.02 0 .025-.024.052-.024.07.814-.41 1.96-.64 3.616-.64 4.92 0 5.547 2.44 5.573 5.41l-.028 1.996 5.353-2.802 1.363-1.373-5.36 2.798.014-1.974" fill="#261C02"/><path d="M435.42 202.572c-.013.02-.013.033-.04.04v.024c-.064.072-.117.19-.182.32-.008.02-.033.04-.033.052-.02.053-.027.066-.04.09 1.503-.846 3.21-.805 3.21-.805l10.065-.014c.843-.92 1.38-1.39 1.38-1.39l-10.074.02s-2.647-.118-4.286 1.65" fill="#261C02"/><path d="M442.227 234.92h-6.18s-8.05.08-8.015-7.242l.052-12.026-.052-10.605c0-1.9.516-3.33 1.286-4.38-1.476 1.096-2.68 2.862-2.68 5.75l.074 10.598-.052 12.02c-.04 7.34 8.015 7.26 8.015 7.26h6.18s8.31.35 8.93-4.778c-.685 4.12-7.558 3.402-7.558 3.402" fill="#261C02"/><path d="M434.182 217.556v1.36l.654.022c4.533-.295 8.727-.888 13.43-2.654.608-.593.75-.775 1.37-1.37-4.707 1.754-8.882 2.354-13.415 2.648l-2.03-.006" fill="#261C02"/><path d="M468.785 202.367v1.383h.71c4.6-.248 7.546-.966 10.884-2.438.51-.488.87-.847 1.39-1.38-3.36 1.483-6.31 2.19-10.9 2.435h-2.09" fill="#261C02"/><path d="M463.14 202.367h-9.122v-4.874l-1.377 1.37v4.887h9.13l-.02 31.09 5.66 3.78 1.37-1.375-5.66-3.78.034-31.098" fill="#261C02"/><path d="M398.322 193.533l-1.358 1.363v43.69l5.782-3.73 1.37-1.355-5.794 3.73v-43.69" fill="#261C02"/><path d="M404.116 214.71v3.534l10.915 17.29h6.33l1.37-1.367h-6.33l-12.28-19.457" fill="#261C02"/><path d="M415.725 197.5l-1.397 1.362-10.21 14.535v.58l11.607-16.478" fill="#261C02"/><path d="M51.398 234.94H44.31s-7.598.097-7.598-7.198V204.5c0-3.403 1.712-5.188 3.49-6.14-2.4 1.082-4.966 3.24-4.862 7.503v23.242c0 7.3 7.604 7.19 7.604 7.19h7.088s8.427.572 8.944-7.717c.02-.274.02-.55.02-.836 0 7.295-7.598 7.197-7.598 7.197" fill="#261C02"/><path d="M47.864 199.93h-.256c-.038 0-.098 0-.13.02h-.19c-.02 0-.045 0-.084.02-.027 0-.066 0-.1.007-.032 0-.045 0-.07.006h-.11c-.02 0-.047.01-.093.01-.01.015-.04.015-.08.015-.02.02-.04.02-.08.027-.03 0-.06 0-.1.005-.04 0-.07.02-.12.028-.03.006-.063.006-.11.02-.02 0-.044.01-.09.024-.014.014-.06.014-.072.014-.04.012-.072.025-.09.025-.022.01-.047.01-.08.02-.02.03-.066.03-.09.04-.02.02-.053.02-.053.02-.053.01-.066.03-.112.03-.01.03-.024.03-.05.04-.032 0-.072.016-.092.028-.03 0-.043.014-.05.014-.026.004-.08.023-.11.044-.01 0-.013.007-.013.007-.18.08-.344.17-.514.255l-.034.013c-.024.03-.07.056-.1.08-.01 0-.01.007-.01.007-.05.034-.084.06-.116.073 0 0-.004.02-.024.02-.033.026-.08.046-.11.07 0 0-.02 0-.02.02-.216.18-.45.37-.648.61-.028.04-.067.08-.087.12-.105.125-.184.254-.26.386.83-.498 1.846-.733 2.983-.733 3.17 0 5.22 2.25 5.22 5.56v21.36c0 1.314-.345 2.49-.94 3.373.046-.027.098-.034.124-.06 0 0 .01-.02.02-.02.09-.05.17-.123.255-.175 0-.02 0-.02.02-.02.024-.025.07-.052.09-.085h.02c.026-.04.07-.08.11-.11h.01c.03-.04.054-.074.1-.107 0 0 .014 0 .014-.006.027-.035.066-.08.106-.118v-.01c.045-.02.07-.053.11-.09 0-.015.014-.015.014-.02.062-.068.12-.158.192-.238 0 0 .01-.01.01-.026.033-.035.053-.068.097-.11 0-.01 0-.01.01-.01.02-.03.03-.085.073-.13v-.013c.032-.04.05-.08.08-.105.02-.007.02-.02.02-.034.04-.04.04-.088.075-.14v-.008c.024-.032.05-.076.07-.13 0 0 0-.012.013-.026.03-.083.09-.17.13-.26.007-.02.007-.025.027-.046l.043-.11c0-.01.006-.02.006-.02.013-.05.033-.096.046-.142 0-.014 0-.026.02-.04.027-.04.027-.085.04-.13.007 0 .007-.007.007-.034.02-.033.044-.098.064-.144 0-.016 0-.036.007-.036 0-.04.026-.085.026-.11.013-.012.013-.04.013-.04.02-.052.04-.117.05-.17v-.005c.01-.04.03-.1.03-.15v-.036c.02-.057.025-.103.04-.15v-.012c.01-.057.024-.103.024-.162 0-.005.022-.023.022-.05 0-.03.005-.09.02-.136v-.04c0-.027 0-.106.02-.156v-.05c0-.045 0-.077.004-.123v-.05c.02-.05.02-.115.02-.18.014-.007.014-.007.014-.014v-21.73c0-3.32-2.07-5.56-5.205-5.56" fill="#261C02"/><path d="M83.092 226.85l.038-11.74.026-14.307-1.372 1.382-.04 14.293-.024 11.727c0 1.55-.38 2.66-.863 3.46 1.124-.684 2.235-2.067 2.235-4.816" fill="#261C02"/><path d="M112.98 205.233c-.014-2.98-.647-5.417-5.567-5.417h-.516c-.02 0-.045 0-.078.013h-.14c-.02 0-.04.01-.07.01h-.24c-.02 0-.03.01-.05.01-.038 0-.08 0-.1.01h-.2c-.02.01-.046.01-.08.01-.005.02-.024.02-.045.02h-.125c-.024 0-.037 0-.057.01h-.066c-.008.02-.04.02-.067.02h-.04c-.02 0-.05 0-.065.01-.04 0-.084 0-.11.02h-.05c-.02.008-.04.008-.047.014h-.057c-.02 0-.044.012-.06.012-.01.01-.023.01-.05.01-.02 0-.043 0-.062.02-.012 0-.025.01-.04.01-.02 0-.043 0-.06.002h-.03c-.03 0-.05.02-.06.02l-.04.02h-.082c0 .01-.006.01-.012.01-.046.014-.092.04-.137.04 0 0-.02 0-.02.013-.023 0-.04.01-.06.01-.015 0-.02.008-.034.008-.01.016-.043.016-.06.035h-.03c-.02.007-.032.014-.04.028h-.05c-.007.006-.026.006-.045.006-.008.02-.027.02-.027.02-.034 0-.047.026-.053.026-.013.015-.02.015-.026.015-.01 0-.04 0-.064.012-.07.032-.15.057-.215.097h-.004c-.012.017-.025.03-.058.03-.014.008-.014.008-.014.027l-.05.02h-.02c-.01.01-.036.02-.05.02-.006.01-.013.02-.02.02-.02.02-.032.02-.045.03-.006.01-.02.01-.02.01-.025.01-.03.022-.05.022-.058.05-.11.08-.17.122l-.01.005c-.014.012-.034.024-.047.03 0 0-.013 0-.02.013 0 .015-.01.02-.04.02 0 .02-.01.02-.01.02-.014.014-.02.014-.034.033 0 .004-.02.004-.02.022-.03 0-.04.015-.04.02-.008 0-.008.015-.028.015-.007.01-.026.02-.026.04v.008c-.04.026-.073.06-.1.084l-.033.033c0 .01-.02.01-.02.01-.01.008-.02.02-.02.04l-.02.02-.04.03-.02.02c-.01.008-.01.035-.02.035-.02.008-.02.008-.023.02-.006.015-.006.027-.006.034-.02 0-.02.02-.02.03-.005.008-.025.015-.04.027 0 0-.013.02-.025.027 0 .014-.008.027-.02.053-.02.007-.02.013-.026.03-.01.015-.02.015-.02.02 0 .014-.026.02-.026.03-.012.03-.012.03-.025.03v.04c-.014.015-.014.027-.026.027-.013 0-.013.034-.02.04 0 0-.006.012-.006.026-.015.015-.02.027-.02.04-.014 0-.014.006-.034.02 0 .027-.006.033-.006.033l-.013.03c-.007.022-.015.047-.028.074.8-.425 1.95-.627 3.61-.627 4.925 0 5.552 2.418 5.585 5.403l-.034 1.98 5.36-2.798 1.38-1.36-5.354 2.78.013-1.97" fill="#261C02"/><path d="M111.39 231.438c.085-.07.176-.13.255-.203.078-.077.157-.15.242-.22.066-.092.124-.17.19-.255.058-.09.13-.188.196-.274v-.007c.046-.1.084-.19.13-.3.05-.11.098-.21.138-.31v-.02c.05-.11.1-.22.11-.33v-.02c.03-.11.07-.23.09-.37v-.014c.04-.123.06-.24.07-.37v-.015c.05-.143.06-.26.07-.41v-.025c.02-.125.027-.268.03-.425v-.033c.01-.136.04-.285.05-.436v-.025c0-.165.006-.32.02-.47v-6.226c0-4.83-3.443-4.96-9.036-4.96-7.3 0-7.504-1.69-7.504-6.806v-5.75c0-2.61 1.38-4.08 2.913-4.91-2.138.978-4.29 2.823-4.29 6.264v5.76c0 5.12.212 6.813 7.523 6.813 5.584 0 9.014.124 9.014 4.954v5.423c0 1.825-.15 3.226-.636 4.204.15-.07.3-.15.437-.246" fill="#261C02"/><path d="M137.1 203.157v1.376h.68c4.52-.234 7.428-.932 10.713-2.398.726-.706.85-.85 1.372-1.363-3.285 1.446-6.187 2.158-10.707 2.385H137.1" fill="#261C02"/><path d="M131.55 203.157h-8.968v-4.785l-1.366 1.363v4.798h8.975l-.03 30.595 5.58 3.688 1.36-1.37-5.56-3.706.02-30.583" fill="#261C02"/><path d="M23.59 217.753H11.27l.012 1.362h10.93l-.11 17.56 5.36 2.94 1.367-1.376-5.35-2.94.1-17.56" fill="#261C02"/><path d="M23.672 203.71c.275-4.125.968-7.494 2.483-11.333-.58.61-.79.834-1.378 1.375-1.497 3.82-2.196 7.195-2.484 11.328l-.052 8.682h1.37l.07-10.05" fill="#261C02"/><path d="M6.232 203.71c.207-3.675 1.136-7.488 2.475-11.333-.536.547-.804.762-1.372 1.375-1.34 3.832-2.267 7.646-2.482 11.328l-.196 34.538 5.336-2.94 1.385-1.368-5.356 2.926.21-34.525" fill="#261C02"/><path d="M286.31 326.418v-.064c0-.033-.01-.07-.01-.105 0-.02 0-.06-.008-.07V326c-.014-.025-.014-.064-.02-.097v-.072c-.013-.03-.013-.07-.032-.08 0-.02-.007-.04-.007-.07v-.11c0-.01 0-.02-.02-.04-.007-.05-.02-.104-.04-.156v-.025c-.005-.026-.005-.078-.025-.11v-.046c-.013-.03-.033-.058-.033-.085 0-.026 0-.047-.014-.067-.01-.02-.01-.054-.02-.08 0-.013-.01-.032-.01-.06-.02-.02-.04-.04-.04-.064 0-.01 0-.038-.02-.065 0-.016 0-.04-.02-.05-.01-.032-.01-.05-.02-.06-.01-.02-.03-.043-.03-.083-.02-.01-.02-.027-.02-.03-.01-.04-.02-.075-.05-.11 0-.025 0-.037-.01-.05-.01-.01-.023-.035-.03-.07-.013-.01-.013-.023-.02-.05-.013-.013-.013-.02-.025-.05-.033-.015-.033-.02-.047-.04 0-.014-.02-.04-.024-.05 0-.01-.007-.036-.027-.04-.01-.03-.023-.03-.04-.053 0-.016-.01-.03-.02-.054-.008-.008-.02-.02-.02-.034-.014-.02-.02-.03-.047-.046 0-.007-.01-.03-.025-.04-.054-.052-.1-.104-.145-.15-.013-.005-.013-.02-.013-.02-.017-.02-.037-.02-.037-.045-.035 0-.035-.02-.048-.03-.007-.007-.013-.02-.04-.035-.013 0-.013-.007-.027-.02-.004 0-.015-.025-.043-.03-.01 0-.02-.01-.02-.01l-.055-.04v-.01c-.125-.07-.24-.124-.34-.164-.02 0-.02-.004-.02-.004-.02 0-.03-.006-.045-.006h-.02c-.03-.014-.06-.014-.067-.02-.118-.014-.21-.014-.32-.014-.02 0-.052.015-.092.015-.06.01-.13.028-.22.048-.01.013-.06.026-.09.04-.085.044-.19.09-.28.16l-.035.028c-.085.06-.157.144-.24.235-.02.03-.066.06-.1.09-.052.09-.104.162-.163.253-.013.04-.05.08-.077.12-.06.137-.115.26-.18.418 0 0-.013.008-.013.02 1.004-.135 2.116.96 2.175 3.305l1.66 61.715 1.37-1.368-1.672-61.724v-.187" fill="#261C02"/><path d="M230.222 299.788v-.3c-.012-.014-.012-.04-.012-.054v-.09c-.007-.008-.007-.04-.007-.06-.007-.018-.007-.045-.007-.084-.007-.02-.007-.038-.007-.046 0-.04-.02-.064-.02-.097 0-.02-.02-.033-.02-.04-.02-.038-.02-.084-.02-.13-.01-.05-.02-.085-.04-.123 0-.026-.01-.026-.01-.04 0-.026-.008-.06-.02-.09v-.033c-.01-.04-.02-.05-.03-.09 0 0 0-.02-.018-.04-.013-.02-.013-.05-.025-.07 0 0-.007-.02-.007-.03-.02-.03-.02-.06-.034-.07-.004-.02-.004-.02-.004-.04-.013-.004-.02-.05-.033-.07 0-.012-.014-.02-.014-.02-.02-.033-.03-.065-.03-.1h-.007c-.014-.03-.04-.07-.058-.1 0 0-.008-.015-.008-.03-.02-.02-.033-.04-.04-.064-.005-.013-.012-.013-.012-.026-.02-.027-.033-.034-.045-.066 0-.013-.005-.02-.005-.027-.02-.01-.03-.02-.03-.05-.02-.012-.025-.025-.025-.033-.017-.005-.024-.018-.037-.03-.02-.033-.025-.033-.025-.04-.002-.01-.022-.04-.03-.046-.005 0-.02-.017-.02-.03-.02-.007-.024-.03-.024-.03-.025 0-.025-.023-.03-.03-.03-.013-.05-.03-.07-.058 0-.02-.02-.03-.02-.03-.01-.02-.03-.02-.03-.04-.02-.01-.02-.022-.04-.022-.014 0-.033-.02-.04-.034-.007-.005-.02-.02-.026-.02 0-.005-.014-.025-.04-.038 0 0-.014-.008-.027-.008 0-.013-.025-.013-.04-.013l-.03-.033s-.005-.005-.025-.005l-.03-.034h-.027c-.07-.03-.15-.064-.234-.09h-.01c0-.013-.033-.013-.06-.013h-.012c-.024 0-.032-.007-.045-.007-.11-.02-.207 0-.273.006-.04 0-.064.01-.084.01-.066.022-.126.035-.178.07-.04 0-.087.02-.1.043-.086.025-.146.064-.218.12-.01.015-.03.035-.063.05-.067.07-.126.134-.198.22-.014.032-.054.05-.07.096-.056.06-.114.13-.14.224-.034.03-.05.077-.07.123-.055.103-.127.24-.165.38 0 .01 0 .01-.015.023.85-.012 1.765 1.01 1.765 2.916l1.21 46.44 1.367-1.375-1.207-46.432v-.15" fill="#261C02"/><path d="M237.7 308.1v-.424c-.014-.046-.014-.078-.014-.118 0-.02 0-.03-.012-.058v-.157c-.008-.045-.014-.11-.014-.15-.02-.025-.02-.032-.02-.045 0-.038-.007-.08-.007-.124 0-.012 0-.04-.013-.046 0-.03-.006-.077-.02-.097v-.05c-.005-.03-.025-.06-.038-.08v-.06c0-.03-.006-.07-.006-.1 0 0-.02-.02-.02-.035-.026-.083-.052-.18-.085-.26v-.03c0-.02-.03-.067-.04-.092v-.044c-.02-.02-.02-.046-.03-.06 0-.033 0-.044-.02-.05 0-.02-.01-.048-.03-.074-.01-.014-.02-.026-.02-.04 0-.027-.01-.05-.02-.085-.013-.013-.013-.02-.013-.02-.014-.032-.027-.07-.053-.103v-.013c-.033-.025-.047-.045-.047-.077-.008-.015-.027-.015-.04-.027 0-.033-.014-.04-.027-.053-.013-.03-.013-.03-.03-.045-.014-.006-.02-.02-.027-.045 0-.01-.01-.025-.02-.036-.015 0-.035-.02-.035-.033-.013-.01-.013-.04-.04-.04 0-.015-.012-.034-.032-.04-.012-.027-.012-.033-.03-.033-.028-.025-.04-.03-.053-.044 0-.02-.013-.028-.026-.06-.014 0-.027-.008-.04-.008 0-.01-.02-.02-.026-.04-.013-.006-.013-.006-.033-.025 0 0-.028-.02-.034-.03 0 0-.016 0-.03-.007-.032-.01-.032-.01-.04-.034-.01 0-.025 0-.025-.02-.056-.01-.11-.05-.174-.067-.012-.028-.04-.028-.052-.04h-.012c-.032 0-.032-.01-.052-.01l-.01-.01c-.02 0-.04-.015-.07-.015-.08-.01-.177-.01-.26 0-.03 0-.06 0-.094.016-.075.01-.147.03-.21.07-.035.007-.05.007-.07.027-.1.048-.17.1-.26.177-.025.015-.05.054-.065.087-.085.053-.13.106-.184.19-.03.04-.05.072-.082.105-.07.11-.143.237-.2.36-.015.048-.034.087-.034.125-.048.073-.094.145-.106.223.876.032 1.75 1.213 1.7 3.454l1.3 48.4 1.378-1.37-1.32-48.402v-.19" fill="#261C02"/><path d="M256.462 284.79c-5.148 0-10.184-.07-15.104-.254l-.04 1.41c4.495.134 9.088.225 13.778.225 4.827 0 9.622-.09 14.294-.24l2.31 73.45 1.388-1.36-2.314-73.443c-4.69.157-9.458.228-14.312.228" fill="#261C02"/><path d="M278.406 319.086v-.234c0-.04-.02-.072-.02-.105v-.072c-.012-.02-.012-.065-.012-.097v-.06c-.013-.037-.013-.083-.013-.11v-.045c0-.045-.01-.11-.02-.157v-.02c-.03-.045-.03-.083-.04-.13v-.13c-.01-.032-.01-.04-.01-.065 0-.02-.013-.06-.02-.09 0 0 0-.02-.027-.05v-.07c0-.022-.02-.03-.02-.04-.02-.027-.026-.073-.034-.098 0 0 0-.027-.01-.027-.016-.052-.016-.084-.035-.125-.01-.01-.01-.024-.01-.024-.01-.026-.03-.066-.04-.09l-.002-.05c-.014-.03-.026-.043-.04-.056 0-.02-.012-.035-.012-.054-.005-.03-.024-.04-.03-.05-.007-.017-.013-.045-.013-.06 0-.016-.01-.04-.03-.048 0-.02-.013-.026-.013-.053 0-.007-.02-.04-.032-.058-.005-.015-.024-.028-.044-.053 0-.024-.015-.04-.02-.06-.01-.02-.04-.042-.04-.05-.01-.005-.01-.02-.027-.02-.006-.024-.027-.04-.04-.064 0-.013 0-.013-.006-.02-.013-.033-.013-.033-.04-.06-.006 0-.027 0-.027-.012-.015-.02-.015-.032-.03-.046-.004-.012-.004-.012-.02-.025-.09-.11-.2-.19-.32-.264-.03-.024-.063-.04-.11-.064-.076-.033-.162-.065-.246-.07-.03-.007-.08-.02-.1-.02-.106-.006-.184 0-.25.02-.04 0-.09 0-.124.032-.118.032-.223.09-.334.18-.032.026-.06.07-.097.097-.08.064-.15.14-.215.234-.04.046-.084.11-.122.19-.04.08-.112.195-.16.31-.024.075-.063.14-.095.205-.01.04-.01.08-.03.08.815.076 1.64 1.2 1.63 3.296l1.98 53.93 1.38-1.38-1.986-53.91v-.17" fill="#261C02"/><path d="M222.496 165.857c-18.592-.268-34.89 1.213-34.89 1.213l-1.38 1.37s16.306-1.468 34.892-1.214c-2.064 21.124.06 41.238-.026 79.226h-.098c.484.02.98.02 1.477.045.14-38.944-2.06-59.234.03-80.64" fill="#261C02"/><path d="M290.444 283.512l-.03 1.185c32.68-2.835 57.55-9.372 63.972-16.887-8.23 7.046-32.616 13.042-63.942 15.623v.08" fill="#261C02"/><path d="M232.308 122.072c-.6.644-.802.807-1.37 1.355-4.522 14.013-7.206 25.152-8.78 35.522.417-.08.802-.14 1.193-.2 1.54-10.7 4.26-22.16 8.96-36.68" fill="#261C02"/><path d="M156.5 262.627c-.064-1.473.537-2.888 1.653-4.218-2.03 1.7-3.103 3.57-3.037 5.58.327 9.16 27.632 17.59 66.005 20.8l1.64 51.98 1.37-1.36-1.63-51.98c-38.36-3.22-65.672-11.64-65.985-20.81" fill="#261C02"/><path d="M270.106 209.484c5.92-1.845 13.353-5.142 18.684-10.826.013-.014.026-.02.034-.04-8.186 7.686-20.12 10.515-24.982 11.38 1.53-.195 3.75-.43 6.264-.514" fill="#261C02"/><path d="M274.312 183.602c1.025 7.49-1.19 13.128-5.082 17.358h.006c.157-.155.313-.312.464-.47.254-.24.51-.462.75-.722.164-.183.314-.372.49-.555.196-.246.405-.475.615-.723.15-.195.307-.39.443-.607.204-.254.38-.5.55-.755.135-.214.287-.43.41-.632.164-.28.34-.56.505-.834.123-.222.215-.444.344-.652.138-.306.308-.612.426-.92.09-.215.19-.43.275-.638.17-.37.28-.724.39-1.09.06-.2.12-.377.184-.586.182-.566.32-1.14.445-1.746v-.012c.02-.072.04-.17.045-.26 0-.03.008-.04.008-.06.02-.086.052-.183.063-.254 0-.027.008-.066.008-.093.01-.08.04-.15.04-.24 0-.04.01-.06.01-.11.02-.06.03-.14.05-.21 0-.04.02-.082.02-.11.005-.08.01-.162.032-.23 0-.042.006-.082.006-.12 0-.08.013-.157.02-.23v-.13l.038-.214c0-.04 0-.09.015-.143 0-.074 0-.14.007-.224.026-.04.026-.08.026-.11V187c.007-.17.02-.353.02-.524v-.34c0-.072.01-.145.01-.2v-.363c0-.08-.01-.126-.01-.19v-.388c0-.07 0-.123-.012-.193 0-.07 0-.13-.006-.2v-.39c0-.065-.026-.124-.032-.195 0-.072 0-.13-.012-.176 0-.08-.012-.16-.012-.22-.01-.077-.024-.137-.024-.176 0-.086-.007-.17-.007-.25-.014-.045-.014-.097-.02-.156 0-.1-.02-.17-.033-.27 0-.054 0-.106-.014-.14-.02-.135-.047-.266-.058-.4-1.277-9.51-16.78-13.736-34.437-15.417.05.5.086 1.017.146 1.523 16.99 1.782 31.668 6.018 32.918 15.265" fill="#261C02"/><path d="M242.682 213.284c0 .515-.014 1.01-.02 1.525 12.347 1.4 27.443 4.86 27.17 13.57l-.44 47.18 1.354-.05.463-48.5c.25-9.02-15.96-12.45-28.53-13.74" fill="#261C02"/><path d="M290.897 246.676l-.032 1.552c24.738 3.213 44.86 6.816 44.86 12.716 0 .938-.43 1.948-1.118 2.823.014 0 .027-.008.04-.008.22-.21.444-.39.64-.58.04-.05.092-.1.117-.13.184-.2.36-.37.51-.56.013-.028.033-.04.046-.06.15-.196.314-.404.444-.6.02-.046.058-.09.086-.137.11-.22.226-.423.313-.625v-.02c.014-.03.033-.07.038-.117 0 0 .02-.01.02-.015.02-.047.03-.07.04-.118.02-.01.02-.02.02-.036l.03-.095s0-.02.01-.027c0-.04.02-.066.035-.1v-.04c.01-.04.01-.07.026-.09 0-.026.015-.04.015-.04 0-.04.02-.07.02-.09 0-.013 0-.04.004-.04 0-.045.006-.065.006-.096 0-.02 0-.03.026-.046v-.083c0-.01 0-.035.01-.054v-.07c0-.025.01-.04.01-.05 0-.034 0-.06.016-.09v-.176c0-6.007-20.88-9.644-46.21-12.903" fill="#261C02"/><path d="M176.96 258.025c5.925-4.407 25-7.163 44.134-10.025-.02 7.405-.13 15.453-.373 24.31l.06 1.874h.02c.45.045.93.097 1.41.136l-.11-3.37c.25-8.863.36-16.927.38-24.31-21.03 3.147-42.01 6.158-45.51 11.385" fill="#261C02"/><path d="M499.885 234.913h-8.362s-6.97 0-6.97-5.742l-.014-4.09-1.37 1.38.01 4.08c0 5.75 6.98 5.75 6.98 5.75h8.32s7.5.57 7.92-8.01c-.43 6.49-6.27 6.64-6.53 6.64" fill="#261C02"/><path d="M81.28 234.92h-7.41s-7.106-.327-7.106-6.93l.02-12.782v-17.93c0 .033-1.36 1.362-1.36 1.362v17.932l-.026 12.8c0 6.585 7.102 6.922 7.102 6.922h7.394s8.845.58 9.153-7.873h-.02c-.328 6.14-7.52 6.5-7.747 6.5" fill="#261C02"/><path d="M118.376 229.357c-.012.052-.02.105-.02.143v.006c-.02.045-.03.09-.03.125v.02c0 .06-.022.09-.034.13-.013.04-.027.08-.04.13-.006.04-.006.08-.025.13v.01c-.008.038-.008.077-.033.12-.008.04-.02.08-.033.12v.02c-.01.026-.03.066-.03.1-.02 0-.02 0-.02.006 0 .045-.01.078-.02.13-1.17 3.48-4.33 4.21-5.6 4.347h-.01s-.01.006-.02.006h-.14c-.02 0-.02.02-.02.02h-.07c-.006 0-.006.01-.02.01h-.18l-.01.01h-8.394s-6.98 0-6.98-5.75l-.007-4.093-1.386 1.384.026 4.08c0 5.74 6.97 5.74 6.97 5.74h8.34s7.55.61 7.93-8.066c-.02.366-.05.69-.102 1-.014.04-.014.107-.028.14" fill="#261C02"/><path d="M324.007 204.692c.008.058.027.097.027.143v.033c.012.06.012.077.025.117v.046c0 .04 0 .07.01.11v.19c.02.04.02.07.02.09v.84c0 .05 0 .11-.02.14v.15c-.04.28-.08.57-.13.825-.02.11-.06.215-.08.32-.04.157-.08.326-.14.475-.04.11-.08.235-.13.34-.047.137-.1.26-.158.39-.07.12-.118.23-.17.34-.06.11-.125.22-.19.34-.07.11-.15.21-.228.32-.067.102-.13.213-.204.305-.072.098-.17.21-.26.32-.08.077-.144.156-.23.247-.105.106-.195.19-.286.31-.09.072-.17.157-.244.202-.123.104-.23.2-.332.306-.028.02-.06.04-.1.066-1.777 1.41-4.12 2.237-6.225 2.74h-.015c-.34.09-.67.16-.987.2-.02.01-.02.01-.043.01-.32.067-.632.127-.945.165l-.076-13.61-.01-.55c-.013-.33-.04-.653-.08-.984 5.646.485 10.78 1.835 11.185 5.074m-16.33-5.305c-.04.41-.107.814-.12 1.213l-.224 37.26 5.776-3.18-.104-18.165-.02-1.43c3.955.137 10.074.873 9.997 4.12l.197 15.473 5.48 3.18-.155-19.75c0-.214-.005-.39-.02-.584 0-.054-.018-.105-.03-.165-.008-.12-.033-.245-.066-.357-.01-.05-.03-.122-.05-.168-.04-.11-.065-.23-.104-.32-.015-.06-.048-.105-.067-.15-.04-.105-.107-.228-.17-.326-.014-.03-.028-.06-.04-.08-.086-.125-.164-.257-.276-.36 0-.028-.015-.04-.04-.06-.067-.098-.17-.17-.257-.26-.026-.02-.05-.06-.098-.073-.074-.073-.16-.133-.25-.21-.04-.02-.07-.04-.09-.06-.107-.065-.205-.14-.335-.195-.01 0-.026-.023-.026-.023-.43-.21-.87-.37-1.36-.48-.8-.174-1.638-.226-2.416-.213-1.574.04-2.875.34-2.875.34s3.683-.854 6.59-3.325c1.05-.87 1.965-1.958 2.638-3.268.007-.018.007-.03.013-.05.308-.62.517-1.29.68-2.008.008-.047.02-.1.027-.152.075-.335.122-.7.142-1.053v-.22c.03-.384.043-.755 0-1.17-.347-5.263-6.057-7.88-16.235-6.84-.46.064-.904.12-1.36.17-.426-2.744-1.11-5.3-2.22-8.083-1.028 2.96-1.818 5.88-2.28 8.787-.387.07-.75.14-1.13.227-5.524 1.08-9.318 2.405-9.318 2.405s4.737-.456 10.18-.397" fill="#CE1141"/><path d="M354.17 226.83v.378s0 .012-.007.025c0 .053 0 .11-.006.177v.045c0 .04-.014.085-.014.13v.046c-.007.05-.012.12-.02.17v.02c0 .06-.018.1-.018.15 0 .01 0 .04-.014.05-.01.1-.02.21-.05.31v.04c-.02.06-.02.1-.02.16 0 0 0 .01-.02.01-.01.06-.026.108-.04.16 0 .02 0 .02-.02.02l-.02.15-.01.005c-.013.06-.04.126-.06.164v.003c-.02.06-.024.105-.05.15 0 0-.014.014-.014.027-.04.095-.07.2-.112.297v.02c-.062.09-.1.184-.15.28-.004.007-.004.007-.01.007-.012.07-.04.105-.065.138-.046.05-.05.1-.1.167-.01.032-.05.085-.063.12h-.015c-.05.102-.115.19-.18.26l-.01.02c-.065.083-.12.16-.19.252-.177.183-.36.346-.55.507-.065.047-.13.08-.194.13-.07.06-.163.1-.23.157-.586.374-1.245.635-2.023.76-.05.006-.084.006-.137.006-.246.023-.495.06-.75.06-3.175 0-5.213-1.622-5.213-5.56V205.5c0-.34.025-.652.046-.932.004-.07.02-.142.03-.202.065-.59.19-1.107.39-1.577.007-.03.007-.05.02-.09.1-.24.227-.46.36-.67.045-.07.097-.16.156-.24.003 0 .003-.02.003-.03.03-.02.053-.06.066-.1.013 0 .013-.015.046-.03.02-.026.035-.057.08-.096 0-.01.01-.01.015-.02.033-.03.066-.077.078-.09 0-.01.013-.01.013-.03.145-.14.29-.28.428-.4.047-.025.086-.06.107-.084.013-.003.013-.003.046-.003.02-.02.06-.047.08-.067.032-.02.032-.025.046-.046.02-.01.076-.03.09-.058 0-.015.033-.015.045-.02.02-.026.068-.053.08-.06.015 0 .034-.02.047-.03.033-.008.066-.027.09-.054.02-.006.03-.006.04-.006.125-.065.237-.117.34-.18.02 0 .04-.015.04-.015.045-.005.08-.03.11-.045.02 0 .034-.006.074-.02.02 0 .046-.012.084-.025.007 0 .04-.017.05-.017.038-.026.066-.026.09-.043.018 0 .046-.008.09-.008.02-.027.03-.027.078-.03.033 0 .052-.023.066-.037.04-.006.052-.006.092-.02.026-.01.05-.01.097-.01.012-.014.05-.028.07-.028.048-.014.1-.02.15-.027.01 0 .06-.017.075-.017.04-.02.08-.02.13-.026.02 0 .02 0 .06-.008.034 0 .073-.02.1-.02.032 0 .07 0 .084-.018.02 0 .07-.01.104-.01h.067c.054-.008.07-.008.118-.008.036-.01.06-.01.074-.01.05 0 .08-.02.115-.02h.457c3.145 0 5.185 2.236 5.185 5.554v21.326zm-1.653-29.507h-7.082s-7.59 0-7.59 7.19v23.21c0 7.28 7.59 7.188 7.59 7.188h7.082c.327 0 7.088-.07 7.552-6.46.03-.22.04-.47.04-.72v-23.21c0-7.19-7.6-7.19-7.6-7.19z" fill="#CE1141"/><path d="M382.973 197.32H375.9s-7.6 0-7.6 7.195v23.205c0 7.28 7.6 7.195 7.6 7.195h7.275c0-.01 0-.01.014-.01h.11s.02 0 .04-.02c.08 0 .21 0 .32-.028h.03c.033 0 .033-.006.05-.006h.24c.02-.01.044-.01.06-.01.02-.01.04-.01.063-.01h.012l.05-.002c.013 0 .05 0 .065-.027.03 0 .053-.012.06-.012h.01c.29-.03.595-.096.94-.187.03-.02.054-.02.08-.02.037-.01.055-.01.075-.02h.007c.046-.013.065-.02.084-.02.02-.013.06-.013.08-.027h.008c.014-.005.047-.03.086-.04.025 0 .036-.004.063-.017.437-.144.907-.32 1.35-.555.026-.02.06-.026.08-.033v-.005c.038-.02.05-.03.07-.05h.033c.013-.015.04-.02.065-.053.03-.008.05-.035.1-.047.024-.013.04-.033.07-.052.42-.253.82-.553 1.19-.92.03-.02.06-.05.08-.07v-.013c.03-.016.05-.042.064-.07.026-.026.052-.045.066-.07.02 0 .02-.007.02-.007.022-.026.035-.05.06-.07v-.015c.02-.01.06-.053.085-.073v-.013l.05-.07c.02-.034.055-.05.06-.08.006 0 .006-.004.006-.004.03-.033.055-.06.07-.093.24-.32.46-.67.638-1.06h.015c.007-.034.026-.08.046-.1v-.032c.013-.02.025-.04.045-.08v-.013c.012-.04.04-.08.045-.11l.013-.01c0-.04.017-.06.02-.09 0-.012 0-.012.03-.024 0-.033.02-.06.032-.1.007 0 .007-.005.007-.02.005-.037.02-.056.032-.096v-.032c.008-.024.02-.064.033-.09v-.032l.04-.106v-.026c.016-.015.024-.05.03-.09 0-.01 0-.016.006-.036 0-.02.02-.05.02-.095.026-.014.026-.02.026-.033.01-.02.01-.057.01-.1.01 0 .01-.023.01-.023.013-.04.02-.07.02-.105 0 0 .005-.01.005-.03 0-.026.013-.058.026-.117.043-.23.07-.46.1-.71.027-.29.046-.64.046-.987v-2.93h-5.93v2.266c-.013.052-.013.104-.013.144v.25c0 .037-.013.09-.013.135 0 0-.01.01-.01.04 0 .043-.012.11-.012.167 0 0-.016.014-.016.02 0 .053-.003.09-.03.144v.057c-.005.047-.012.1-.012.15-.013.07-.03.11-.03.16 0 .016 0 .03-.02.05 0 .047-.015.087-.015.145 0 0 0 .016-.007.016-.02.056-.04.11-.047.16l-.003.013c-.015.05-.028.098-.054.15v.006c-.006.065-.025.124-.044.162v.035c-.027.034-.04.08-.055.13 0 0-.012.015-.012.04-.04.09-.076.184-.114.28-.014 0-.014.02-.014.027-.053.085-.1.183-.145.274-.007.005-.007.005-.013.02-.02.057-.027.09-.06.13l-.005.02c-.02.024-.07.07-.076.122l-.01.012c-.04.046-.06.085-.07.123-.027 0-.027 0-.027.02-.053.08-.1.165-.18.235 0 0 0 .026-.014.026-.066.09-.118.156-.196.247h-.006c-.045.046-.073.085-.112.104-.023.046-.06.08-.103.126-.04.04-.087.08-.11.11-.08.08-.16.14-.25.21h-.016c-.07.08-.158.127-.24.19 0 0-.015 0-.015.015-.035.02-.08.048-.115.074-.59.366-1.255.626-2.03.73-.05.007-.094.007-.12.007-.254.028-.51.067-.764.067-3.17 0-5.21-1.62-5.21-5.56V205.5c0-.333.03-.65.06-.932l.02-.21c.07-.585.197-1.1.37-1.57.03-.032.055-.052.055-.083.1-.243.215-.452.346-.665.06-.08.11-.165.163-.242v-.026c.03-.02.06-.058.09-.104v-.013c.04-.04.065-.072.1-.125h.02c.022-.03.043-.077.063-.11h.014c.177-.19.353-.36.55-.495.02-.007.02-.007.026-.007.02-.026.058-.058.105-.072 0-.02.02-.025.03-.045.035 0 .06-.03.098-.05 0-.01.014-.01.033-.01.033-.022.06-.05.1-.06 0 0 .01-.014.024-.014.04-.02.085-.046.104-.072v-.006c.146-.064.28-.12.407-.174 0 0 .014-.016.027-.016.03-.007.06-.027.09-.052.03 0 .058-.006.058-.006.032-.01.08-.04.1-.04.04 0 .05-.01.063-.01.034-.027.05-.027.09-.047.02 0 .048-.005.06-.005.04-.02.066-.025.105-.03.028 0 .053-.014.08-.027.02-.004.053-.004.077-.02.02-.01.06-.01.08-.01.046 0 .066-.025.09-.025.047-.013.07-.025.125-.025.028-.01.08-.02.104-.04.046 0 .066 0 .09-.01.035 0 .073 0 .093-.005.035 0 .068-.02.107-.02.03 0 .055 0 .083-.013.028 0 .068-.013.09-.013h.09c.045-.008.064-.008.1-.008.03-.007.06-.007.082-.007.047 0 .07-.02.11-.02h.46c3.14 0 5.2 2.234 5.2 5.552v2.03h5.93v-3.01c0-7.193-7.59-7.193-7.59-7.193" fill="#CE1141"/><path d="M506.424 219.446c0-6.407-3.098-6.87-10.08-6.87-4.842 0-6.41-.17-6.41-4.264l-.024-3.695c0-.247.006-.494.025-.723v-.116c.02-.49.08-.94.196-1.35.06-.21.12-.403.21-.587 0-.01.03-.04.03-.07l.02-.02c.01 0 .01-.03.02-.04.01 0 .01-.01.01-.02 0-.02.01-.02.03-.04 0 0 .01-.01.01-.02s.012-.01.026-.03c0-.02.014-.02.014-.024.01-.01.01-.024.01-.03 0 0 .01-.014.01-.033.024 0 .024-.026.032-.04 0-.005.025-.02.025-.026.01 0 .03-.03.03-.04v-.004c.02-.02.02-.035.05-.055.007 0 .007-.02.015-.02 0-.025.01-.025.024-.046 0 0 .015-.02.034-.024 0-.013.005-.026.005-.026.01-.014.025-.02.025-.02.015-.026.015-.026.027-.03 0-.023.014-.023.022-.03.002-.02.002-.02.022-.025 0 0 0-.013.02-.03 0-.016.017-.016.017-.02.01 0 .026-.015.04-.028.012-.013.025-.026.03-.04 0-.01 0-.01.01-.01.024-.015.036-.036.05-.04 0-.02.026-.026.04-.026.005-.02.012-.03.012-.03.004-.015.024-.028.024-.028.014-.007.027-.02.04-.02.007-.013.026-.02.03-.02.016-.02.016-.02.016-.03 0 0 .02 0 .034-.02 0 0 .032-.006.04-.027.012-.014.017-.014.04-.02 0-.013.02-.026.02-.026s.023-.005.023-.024c.03-.01.03-.01.053-.03 0-.017 0-.017.01-.02.027 0 .054-.03.067-.036.01 0 .024-.02.03-.02.01-.006.02-.012.034-.012.02-.012.03-.012.03-.02.012-.013.025-.013.052-.013 0-.02.006-.028.02-.028.01-.014.03-.014.044-.03.02-.01.02-.01.025-.01.008-.006.04-.006.04-.02.02 0 .02-.02.027-.026.045 0 .06 0 .06-.014 0-.01.02-.01.04-.01.017-.015.03-.02.05-.02.013-.02.027-.02.027-.026.025-.02.052-.02.08-.027.02-.015.02-.015.03-.015.005-.013.02-.02.05-.02h.04c.007-.01.03-.01.03-.01.016-.027.03-.027.04-.027.034-.02.034-.02.05-.02.017-.008.036-.008.05-.008.013 0 .033-.02.06-.03.01 0 .02-.005.04-.005.012 0 .033 0 .045-.02.017-.013.035-.013.035-.013.028-.007.046-.007.086-.02.01 0 .014-.012.05-.012.004 0 .043 0 .075-.025h.02c.02-.014.048-.014.068-.027h.048l.07-.02s.012 0 .04-.02h.055c.02-.004.02-.004.036-.004h.07c.03 0 .03-.02.05-.02.01 0 .06 0 .06-.015.03 0 .035 0 .04-.013.034 0 .07 0 .1-.007h.04c.026-.006.065-.006.09-.025h.033c.05 0 .067 0 .087-.02h.183c.005-.02.045-.02.057-.02.027-.012.047-.012.066-.012h.26c.046-.02.073-.02.12-.03h.182c.044 0 .063 0 .09-.012h.15c.013 0 .032 0 .046-.013h.597c4.91 0 5.532 2.438 5.545 5.41l-.01 1.976 5.365-2.796v-.68c0-6.53-6.38-6.54-6.38-6.54h-8.32s-.047.006-.06.006h-.04c-.05 0-.104 0-.176.014h-.08c-.144.01-.365.023-.594.063-.147.01-.283.02-.427.05-.087.03-.164.036-.23.04-.17.035-.314.07-.47.107-.06.007-.118.04-.196.046-.2.05-.41.13-.66.19-.06.025-.116.044-.17.07-.24.08-.507.17-.748.3h-.026c-.04.02-.073.034-.11.046-.008.02-.034.026-.054.026l-.083.047c-.025 0-.044.026-.056.026-.02.012-.054.032-.08.032-.02.02-.053.04-.058.05-.016.02-.05.024-.06.024-.035.02-.066.04-.086.06-.026.003-.04.003-.054.02-.03.01-.066.022-.09.055-.01 0-.016 0-.016.01-.26.16-.503.337-.724.507v.013c-.05.04-.064.06-.11.095h-.012c-.04.03-.064.07-.11.096-.3.3-.57.6-.804.98v.01c-.03.05-.06.09-.08.11 0 .01-.016.02-.016.04-.006.03-.026.07-.066.113 0 .013 0 .027-.02.04-.02.04-.03.065-.035.116-.016.01-.03.015-.048.05-.01.03-.03.063-.055.103 0 .02-.006.033-.006.033-.02.05-.028.085-.066.137 0 .005 0 .02-.02.026-.04.14-.09.28-.13.42-.015.01-.03.04-.03.048 0 .035-.023.09-.037.11 0 .04 0 .06-.014.09-.02.03-.027.063-.027.115 0 .014-.007.047-.013.085-.01.02-.01.06-.02.094 0 .034-.02.07-.02.106-.008.04-.008.063-.014.09-.016.036-.016.07-.028.11v.09c-.02.044-.02.09-.033.13 0 .02-.016.05-.016.076v.137l-.003.087c-.012.056-.012.1-.012.16v.07c0 .075-.02.14-.02.22v5.74c0 5.12.212 6.79 7.51 6.79 5.58 0 9.014.13 9.014 4.956v5.718c-.015.16-.015.32-.015.48v.036c0 .155 0 .312-.01.462v.04c-.005.15-.005.288-.005.437v.03c-.028.145-.035.28-.06.418v.03c-.013.122-.034.253-.046.397 0 .01-.008.01-.008.01-.04.13-.06.26-.07.38v.02c-.02.115-.067.25-.098.342v.02c-.032.126-.065.224-.097.334v.03c-.06.098-.09.19-.14.287 0 .015-.02.015-.02.015-.027.096-.07.2-.124.29v.01c-.075.097-.127.174-.184.26-.01 0-.01.006-.01.006-.063.106-.14.178-.2.25-.073.097-.153.17-.21.228l-.014.02c-.085.064-.156.116-.254.182v.012c-.1.07-.203.11-.29.162l-.004.01c-.06.033-.104.046-.15.072-.57.28-1.29.47-2.2.54h-.073c-.292.02-.632.033-.98.033-5.08 0-5.7-2.456-5.7-6.77l-.014-2.68-5.36 2.275.01 4.094c0 5.74 6.97 5.74 6.97 5.74h8.363c.256 0 6.1-.15 6.526-6.643.01-.24.01-.488.01-.755v-8.07" fill="#CE1141"/><path d="M434.226 226.524l-.045-7.607v-1.36l2.04.005c4.54-.294 8.71-.894 13.42-2.647-3.68-1.487-8.35-2.177-13.42-2.522h-2.04l.05-6.225c-.02-.117-.02-.24 0-.385 0-.046.02-.077.02-.116 0-.124.01-.228.056-.333 0-.045.013-.104.04-.143.01-.09.03-.2.058-.32.035-.06.04-.12.074-.18.006-.06.033-.11.05-.17.185-.52.41-1.02.615-1.41l.04-.083c0-.013.02-.04.025-.06.062-.13.12-.24.19-.32v-.024c.023-.004.023-.02.035-.04 1.64-1.763 4.286-1.646 4.286-1.646l10.07-.028c-.77-4.024-7.55-3.326-7.55-3.326h-6.255c-.03 0-.18 0-.33.014h-.045c-.165.016-.393.04-.654.087h-.01c-.27.035-.577.088-.87.154h-.02c-.34.06-.686.166-1.045.296H433c-1.28.42-2.693 1.188-3.68 2.55-.77 1.05-1.286 2.48-1.286 4.38l.052 10.606-.052 12.027c-.033 7.32 8.01 7.24 8.01 7.24h6.186s6.866.72 7.558-3.4l-10.224.05s-5.338.32-5.338-5.04" fill="#CE1141"/><path d="M454.022 197.493v4.874h9.12l-.033 31.105 5.66 3.773.01-34.878h2.09c4.59-.246 7.53-.944 10.89-2.436-3.365-1.57-6.306-2.12-10.898-2.43H454.01" fill="#CE1141"/><path d="M421.22 197.5h-5.495l-11.608 16.476v-16.698l-5.795-3.742v43.69l5.795-3.73v-18.783l12.28 19.455h6.324l-13.13-20.78 11.63-15.89" fill="#CE1141"/><path d="M53.07 226.85v.37c0 .013 0 .013-.014.02 0 .06 0 .124-.02.176v.052c-.006.052-.006.077-.006.123v.05c-.02.05-.02.13-.02.16v.04c-.012.05-.02.11-.02.14 0 .03-.02.05-.02.057 0 .058-.01.103-.025.163v.012c-.013.045-.013.09-.033.15v.03c0 .05-.026.11-.038.15v.008c-.008.06-.027.12-.047.17 0 0 0 .027-.013.04 0 .026-.025.07-.025.117-.01 0-.01.02-.01.028-.02.047-.05.11-.07.144 0 .024 0 .032-.01.032-.02.043-.02.09-.04.13-.018.013-.018.024-.018.04-.013.044-.04.09-.05.14 0 0-.007.007-.007.028l-.047.106c-.02.02-.02.028-.026.046-.04.09-.096.177-.13.26-.005.014-.005.03-.005.03-.02.052-.053.104-.08.13v.006c-.04.053-.04.1-.078.138 0 .013 0 .027-.02.033-.026.023-.046.064-.078.102v.016c-.04.045-.05.097-.08.13v.006c-.048.047-.07.08-.1.12 0 .006-.006.02-.006.02-.078.08-.124.17-.196.24 0 .005-.015.005-.015.013-.04.035-.067.07-.11.09v.01c-.04.04-.075.084-.107.116 0 .006-.015.006-.015.006-.047.04-.07.064-.1.103h-.015c-.04.035-.08.074-.1.11h-.02c-.024.035-.07.06-.096.094-.02 0-.02 0-.02.013-.083.05-.16.126-.254.18-.013 0-.02.02-.02.02-.03.024-.08.037-.123.062-.575.37-1.247.62-2.02.726-.024.01-.076.026-.116.026-.255.04-.504.054-.76.054-3.17 0-5.213-1.61-5.213-5.553V205.5c0-.328.02-.64.045-.927.01-.07.02-.137.038-.2.08-.585.19-1.126.385-1.57.015-.04.02-.076.027-.104.097-.24.22-.45.352-.66.073-.13.16-.26.26-.39.02-.04.06-.08.082-.12.195-.24.43-.43.65-.612 0-.01.015-.01.015-.01.035-.03.08-.05.114-.08.02 0 .025-.02.025-.02.033-.01.066-.035.124-.07v-.005c.033-.027.08-.053.105-.078l.032-.01c.17-.09.335-.183.52-.26 0 0 .004-.01.01-.01.03-.01.08-.037.11-.044.01 0 .024-.014.05-.014.02-.01.057-.024.09-.024.027-.014.04-.014.05-.04.048 0 .06-.02.12-.026 0 0 .027 0 .046-.02.023-.01.07-.01.09-.03.03-.012.06-.012.08-.02.02 0 .05-.01.09-.023.01 0 .06 0 .07-.016.045-.01.072-.02.09-.02.054-.01.08-.01.113-.02.05-.01.076-.03.12-.03.047-.004.074-.004.11-.004.03-.01.05-.01.074-.03.04 0 .07 0 .083-.014.046 0 .072-.016.1-.016h.103c.025-.006.04-.006.07-.006.035-.003.07-.003.106-.003.033-.02.06-.02.078-.02h.198c.03-.02.088-.02.127-.02h.253c3.14 0 5.205 2.24 5.205 5.56v21.36zm-1.675-29.55H44.31s-2.11.014-4.11 1.057c-1.778.95-3.488 2.735-3.488 6.138v23.244c0 7.29 7.597 7.19 7.597 7.19h7.08s7.6.09 7.6-7.2v-23.24c0-7.2-7.6-7.2-7.6-7.2z" fill="#CE1141"/><path d="M83.155 200.802l-.025 14.307-.04 11.74c0 2.74-1.11 4.13-2.235 4.81-1.15.68-2.26.68-2.26.68h-1.672s-4.252-.47-4.24-5.5v-11.85l.066-14.13-5.97-3.59v17.93l-.02 12.79c0 6.6 7.11 6.92 7.11 6.92h7.41c.22 0 7.42-.36 7.74-6.5.02-.147.02-.297.02-.45v-13.88s-.104-16.62-.104-16.81l-5.795 3.52" fill="#CE1141"/><path d="M188.774 233.856l.045-18.06.01-3.175 16.94 22.42-.05-28.15c-.3-5.91-1.21-9.73-2.46-14.04-1.47 5.5-2.296 8.76-2.55 14.04l.01 12.52-1.37-1.79-15.614-20.29.026 40.18 4.996-3.643" fill="#CE1141"/><path d="M108.418 212.565c-4.815 0-6.416-.17-6.416-4.275l-.005-3.697c0-.246.005-.48.005-.715 0-.047.007-.1.007-.132.03-.49.08-.925.2-1.33v-.006c.05-.22.11-.404.21-.586.01-.027.02-.052.02-.073l.01-.03s.002 0 .002-.03c.02-.01.02-.02.033-.02 0-.01.012-.02.025-.04 0-.01.006-.02.006-.02.01 0 .01-.04.02-.04.015 0 .015-.01.02-.02v-.04c.01 0 .01 0 .028-.025 0-.012.02-.02.02-.03 0-.007.013-.007.02-.02.006-.02.006-.026.025-.033.013-.026.02-.04.02-.053.012-.006.026-.026.026-.026.01-.01.03-.02.036-.024 0-.013 0-.033.02-.033 0-.007.006-.02.013-.033.003-.017.003-.017.023-.02.01 0 .01-.03.02-.036l.013-.02.037-.03.02-.02c0-.02.01-.033.02-.04 0 0 .02 0 .02-.013.013-.01.02-.015.034-.03.026-.023.06-.056.105-.08v-.008c0-.02.02-.023.024-.04.013 0 .013-.01.02-.01 0-.005.013-.02.04-.02 0-.02.02-.02.02-.024.01-.02.02-.02.032-.03 0 0 .01 0 .01-.02.024 0 .04-.003.04-.02.004-.01.02-.01.02-.01.01-.007.04-.02.05-.033l.013-.007c.05-.046.103-.072.16-.124.02 0 .028-.015.055-.027 0 0 .01 0 .022-.008.013-.01.026-.01.046-.03.007 0 .014-.007.02-.02.006 0 .033-.007.046-.02h.02l.055-.02c0-.02 0-.02.01-.026.033 0 .045-.014.06-.027h.006c.072-.04.143-.065.215-.1.025-.01.05-.01.066-.01.01 0 .02 0 .03-.014.01 0 .02-.03.048-.03 0 0 .02 0 .024-.02.02 0 .04 0 .044-.01h.052c.01-.012.02-.02.04-.025h.04c.01-.02.042-.02.06-.033.004 0 .01-.004.023-.004.02 0 .04-.013.06-.013 0-.01.016-.01.016-.01.047 0 .09-.026.146-.04.005 0 .01 0 .01-.013h.08c.02-.007.02-.007.04-.02.01 0 .028-.02.06-.02h.033c.02-.005.046-.005.066-.005.005 0 .02-.006.03-.006.02-.02.046-.02.066-.02.024 0 .037 0 .05-.014.01 0 .04-.012.057-.012h.068c.007-.006.02-.006.04-.012h.05c.03-.02.074-.02.114-.02.02-.012.054-.012.074-.012h.037c.03 0 .06 0 .067-.02h.062c.02-.01.03-.01.064-.01h.12c.017 0 .037 0 .044-.02.032 0 .06 0 .084-.01h.19c.02-.017.065-.017.105-.017.02 0 .027-.01.04-.01h.24c.036 0 .055-.01.067-.01h.14c.03-.015.064-.015.084-.015h.52c4.92 0 5.545 2.436 5.56 5.416l-.015 1.975 5.36-2.784v-.7c0-6.544-6.375-6.544-6.375-6.544h-8.32s-2.27.02-4.28 1.094c-1.53.83-2.91 2.295-2.91 4.91v5.74c0 5.123.202 6.806 7.505 6.806 5.59 0 9.033.138 9.033 4.96v6.225c-.014.16-.02.315-.02.465v.034c-.007.154-.033.3-.04.44v.036c-.006.156-.02.29-.04.416v.03c-.005.144-.02.27-.065.407v.01c-.014.14-.03.25-.066.38v.01c-.028.13-.067.255-.09.366v.02c-.01.1-.06.215-.108.32v.02c-.04.104-.09.21-.14.305-.04.12-.088.2-.13.3v.01c-.07.084-.14.175-.19.27-.076.09-.13.16-.2.25-.08.08-.16.15-.24.224-.08.075-.17.133-.254.204-.138.092-.287.18-.438.25-.568.285-1.294.462-2.207.533h-.06c-.3.032-.63.032-.994.032-5.077 0-5.696-2.444-5.696-6.778l-.03-2.68-5.347 2.28.005 4.09c0 5.75 6.99 5.75 6.99 5.75h8.393l.008-.008h.176c.01 0 .01-.012.02-.012h.076s.007-.015.028-.015h.13c.008 0 .02-.006.02-.006h.015c1.26-.136 4.432-.867 5.6-4.347.01-.05.02-.083.02-.13 0-.006 0-.006.02-.006 0-.03.02-.064.03-.097v-.02c.016-.037.03-.076.035-.115.027-.047.027-.08.033-.11v-.015c.026-.05.026-.09.03-.13.014-.05.026-.09.04-.122.013-.052.032-.085.032-.14v-.01c0-.033.014-.08.027-.117v-.005c0-.047.007-.1.02-.15.014-.033.014-.09.026-.13.05-.32.082-.645.1-1.01.02-.22.03-.45.03-.69v-8.078c0-6.42-3.11-6.884-10.116-6.884" fill="#CE1141"/><path d="M122.58 198.37v4.785h8.97l-.02 30.59 5.56 3.7.013-34.29h2.057c4.515-.228 7.42-.932 10.707-2.386-3.286-1.56-6.192-2.1-10.7-2.38l-16.587-.02" fill="#CE1141"/><path d="M158.962 205.5c0-.333.02-.653.054-.932.012-.066.02-.138.025-.204.08-.592.21-1.132.4-1.576.02-.04.02-.052.03-.078.11-.248.218-.457.36-.67.02-.014.03-.053.04-.1.02-.012.02-.025.048-.046.01-.02.02-.058.045-.07.03-.007.03-.04.04-.052.01-.02.036-.058.056-.085.012-.02.026-.033.05-.06.014-.025.033-.045.053-.065.02-.025.03-.032.044-.046.02-.02.03-.064.055-.083.02-.014.025-.033.044-.04.028-.032.047-.06.066-.085.015-.012.03-.02.05-.026.085-.084.183-.175.28-.254 0-.012.02-.02.033-.02.026-.025.045-.045.07-.064.02-.02.028-.026.053-.046.028-.02.04-.033.08-.053.02-.018.026-.025.04-.045.04-.013.056-.032.09-.052.013-.013.026-.013.05-.032.028-.014.054-.04.086-.047.02 0 .034-.04.054-.04.024-.01.044-.03.083-.06.02-.01.04-.01.056-.02.028-.01.047-.03.08-.05.02-.01.033-.02.05-.02.055-.02.113-.06.18-.08.025-.01.044-.03.05-.03.027-.008.07-.028.093-.053.023 0 .043-.007.062-.02.047-.013.054-.026.094-.026.02 0 .063-.012.07-.012.026-.026.04-.026.09-.046.02-.006.054-.006.09-.027.01 0 .035-.008.07-.008.03-.02.044-.02.075-.033.034-.003.06-.003.08-.016.033-.01.066-.01.104-.01.012-.025.05-.025.07-.025.046-.014.1-.028.145-.034.023 0 .04-.01.056-.01.054-.02.09-.02.13-.027.035 0 .06 0 .068-.005.06 0 .09-.02.123-.02.024 0 .04 0 .063-.016.04 0 .083-.01.11-.01h.08c.04-.006.08-.006.1-.01h.083c.045-.02.09-.02.11-.02h.27c.06-.016.13-.016.19-.016 3.154 0 5.212 2.25 5.212 5.57v21.347c0 .06 0 .13-.013.183v.24c0 .048-.005.108-.013.17v.03c-.01.06-.01.1-.01.143 0 .025-.012.025-.012.045v.16c0 .02 0 .02-.02.027-.01.044-.01.09-.02.15v.037c-.02.105-.054.21-.067.32 0 .02 0 .03-.01.03-.01.067-.02.106-.032.152l-.01.01c-.01.06-.02.125-.03.163v.034c-.027.036-.027.095-.054.134 0 0 0 .013-.005.025-.023.046-.037.1-.05.15 0 0 0 .005-.013.005 0 .048-.01.11-.04.153 0 .01-.002.01-.002.023-.048.1-.086.19-.12.3 0 0-.01 0-.01.015-.057.09-.11.182-.155.287-.02.065-.052.105-.08.144-.04.1-.11.19-.162.29-.056.09-.11.182-.186.273-.08.086-.145.164-.22.243-.17.195-.35.383-.58.54v.02c-.08.064-.16.116-.252.19-.033.024-.085.05-.14.077-.57.367-1.25.62-2.02.726-.05.01-.062.01-.136.02-.24.046-.49.05-.75.05-3.174 0-5.22-1.61-5.22-5.56V205.5zm-5.924-.985v23.23c0 7.288 7.603 7.197 7.603 7.197h7.09s7.61.09 7.61-7.197v-23.23c0-7.202-7.604-7.202-7.604-7.202h-7.08s-7.604 0-7.604 7.202z" fill="#CE1141"/><path d="M26.154 192.374c-1.51 3.84-2.207 7.21-2.482 11.336l-.066 10.05h-12.36l-.058-10.05c-.27-4.127-.98-7.497-2.483-11.336-1.338 3.846-2.267 7.66-2.476 11.336l-.21 34.525 5.35-2.927-.09-16.19-.02-1.362h12.32l-.1 17.552 5.337 2.927-.2-34.525c-.22-3.676-1.14-7.49-2.48-11.336" fill="#CE1141"/><path d="M337.11 259.718v.04c-.012.032-.012.058-.012.09 0 .014-.013.027-.013.053v.08c-.006.02-.006.05-.006.06v.09c-.03.015-.03.026-.03.047 0 .03-.01.05-.01.097-.01 0-.01.026-.01.04 0 .02-.02.05-.02.09 0 .006-.02.013-.02.04-.018.02-.018.05-.03.084v.046c-.006.03-.026.056-.026.095-.005.01-.005.02-.005.02l-.035.1c0 .015 0 .03-.013.035-.012.042-.023.07-.037.113 0 .008-.014.015-.014.015-.006.045-.025.084-.04.117v.02c-.09.2-.2.4-.32.622-.024.05-.06.09-.08.14-.13.196-.29.404-.44.6-.01.02-.04.03-.05.06-.146.188-.32.358-.506.55-.033.03-.077.08-.117.13-.2.19-.42.366-.64.57-.01 0-.026.01-.04.01-4.46 3.638-14.63 6.644-28.447 8.736-.173.02-.35.055-.534.067-.41.067-.824.126-1.236.205-.296.03-.596.07-.883.11-.372.05-.726.103-1.092.142-.41.067-.85.13-1.29.177-.27.04-.522.062-.77.09-.693.1-1.386.17-2.09.246-.24.05-.484.07-.74.1-.51.06-1.027.106-1.542.17-.254.03-.517.05-.804.085-.52.05-1.05.097-1.59.16-.237.02-.466.048-.71.06-.77.1-1.566.158-2.336.217l.32-26.098.03-1.554c25.333 3.26 46.21 6.897 46.21 12.906v.137zm-66.364 15.806c-4.632.145-9.407.242-14.287.242-5.07 0-10.02-.097-14.81-.26l.19-5.978c-.02-.964-.05-1.923-.07-2.92 0-.488-.01-.985-.03-1.48 0-.514 0-1.016-.012-1.538v-1.54c-.02-.533-.02-1.04-.02-1.59v-1.413c.02-.593.02-1.192.02-1.812.013-.36.013-.736.013-1.096 0-.77.02-1.5.03-2.26 0-.2 0-.41.01-.61.174-11.72.664-24.8.873-38.47.007-.52.02-1.01.02-1.53 12.576 1.29 28.783 4.72 28.53 13.74l-.464 48.5zm-29.494-108.712c17.652 1.68 33.152 5.904 34.434 15.415.012.136.038.268.052.404.012.04.012.1.012.14.014.1.033.18.033.27.007.06.007.11.02.17 0 .07.012.158.012.24 0 .05.014.1.027.18 0 .06.013.142.013.22.014.044.014.104.014.18 0 .066.03.125.03.19v.587c.01.077.01.123.01.194v.393c0 .058.01.104.01.18v.37c0 .046-.014.118-.014.19v.345c0 .165-.01.347-.02.516v.28c0 .04 0 .08-.025.11-.005.084-.005.15-.005.23-.015.044-.015.096-.015.135l-.04.217v.14c-.013.064-.025.142-.025.22 0 .037-.007.08-.007.123-.02.062-.026.15-.033.232 0 .022-.01.06-.01.1-.015.07-.02.164-.04.215 0 .052-.013.072-.013.118 0 .09-.027.16-.033.24 0 .03-.007.07-.007.095-.01.07-.05.17-.068.255 0 .02-.005.04-.005.065-.007.082-.027.18-.05.26v.01c-.12.6-.257 1.17-.44 1.74-.065.207-.13.384-.183.585-.11.374-.225.72-.39 1.09-.09.21-.18.424-.272.647-.126.302-.29.603-.426.91-.13.206-.23.435-.347.65-.17.273-.34.554-.504.834-.124.2-.276.416-.41.63-.17.26-.355.51-.55.763-.138.205-.3.4-.446.6-.21.25-.423.48-.615.72-.176.182-.33.37-.49.56-.24.254-.496.475-.75.72-.158.154-.308.31-.47.47h-.007c-.42.4-.85.772-1.32 1.13-.05.053-.09.093-.148.13-.403.315-.78.6-1.2.9l-.235.164c-.39.292-.81.56-1.22.82-.085.045-.157.086-.223.137-.475.29-.965.59-1.47.857l-.005.006c-1.044.58-2.13 1.12-3.234 1.604-.065.027-.118.053-.17.086-.484.2-.967.398-1.445.607-.116.04-.246.07-.345.13-.444.17-.89.326-1.33.496-.127.038-.244.09-.375.136-.45.17-.916.32-1.39.457-.08.043-.185.074-.3.113-1.133.354-2.296.685-3.44.99-.025 0-.064 0-.077.015-.524.143-1.067.266-1.59.39-.123.03-.266.064-.41.09-.41.09-.837.2-1.25.288-.16.03-.324.05-.495.09-.39.08-.79.15-1.173.24-.156.013-.327.05-.49.09-.41.07-.796.138-1.195.216-.143.017-.29.04-.43.06-.51.087-1.052.17-1.563.25.15-14.11-.077-28.75-1.305-43.11-.06-.507-.092-1.023-.144-1.524zM222.21 274.32c-.484-.04-.954-.086-1.412-.13h-.02c-15.697-1.5-28.385-3.985-36.093-7.172-.006-.012-.025-.012-.025-.012-.385-.163-.778-.334-1.138-.49-.032-.018-.07-.032-.098-.058-.346-.15-.68-.307-1-.47-.045-.02-.077-.04-.136-.064-.294-.15-.582-.3-.857-.457-.07-.02-.13-.078-.19-.117-.23-.124-.48-.28-.72-.43-.06-.033-.14-.08-.21-.144-.22-.117-.42-.267-.62-.404-.08-.05-.15-.11-.23-.17-.17-.123-.35-.26-.51-.397-.08-.058-.15-.13-.23-.195-.143-.117-.29-.25-.42-.37-.075-.08-.133-.152-.23-.23-.093-.124-.22-.24-.32-.358-.08-.078-.133-.177-.212-.274-.083-.098-.176-.21-.254-.313-.07-.105-.115-.216-.174-.306-.057-.11-.123-.21-.18-.31-.067-.11-.106-.23-.15-.34-.04-.1-.087-.18-.113-.28-.03-.13-.06-.28-.11-.4-.006-.07-.026-.15-.04-.23-.044-.2-.06-.42-.06-.63 0-.168.016-.33.06-.5.014-.065.034-.13.04-.195.03-.085.06-.157.098-.24.08-.21.19-.425.316-.608l.01-.02c3.5-5.227 24.476-8.23 45.512-11.386-.02 7.384-.123 15.448-.365 24.317l.103 3.364zm68.69-27.845l.266-23.994c-.01-.42-.024-.82-.058-1.21-.02-.12-.02-.24-.045-.36-.026-.28-.065-.55-.104-.82-.03-.12-.05-.24-.06-.35-.1-.29-.14-.57-.22-.85-.02-.064-.03-.142-.07-.214-.1-.332-.2-.66-.36-.98-.026-.07-.045-.13-.064-.19-.118-.252-.24-.506-.36-.74-.058-.078-.11-.164-.144-.24-.124-.23-.268-.43-.404-.647-.035-.066-.094-.137-.13-.203-.388-.533-.806-1.04-1.29-1.484-.03-.053-.092-.105-.163-.17-.183-.156-.366-.327-.56-.476-.07-.06-.153-.118-.22-.178l-.64-.475c-.06-.024-.1-.045-.15-.09-.27-.176-.55-.352-.83-.5-.076-.053-.13-.086-.21-.125-.214-.12-.42-.234-.663-.337-.113-.06-.223-.1-.32-.16-.203-.09-.387-.17-.614-.252-.11-.042-.202-.094-.345-.15-.223-.08-.48-.16-.713-.26-.174-.06-.364-.114-.554-.17-.19-.074-.38-.13-.55-.18-.19-.042-.376-.094-.57-.14-.122-.04-.24-.07-.383-.09-.213-.06-.416-.124-.64-.163-.076-.02-.136-.032-.2-.04-3.163-.663-6.513-.8-9.44-.73-2.515.087-4.73.32-6.264.516 4.86-.866 16.797-3.694 24.98-11.38.314-.293.61-.585.91-.893.02-.013.033-.027.04-.033.88-.907 1.7-1.865 2.455-2.88.07-.092.13-.19.21-.288l.59-.87c.093-.144.172-.287.27-.424.184-.28.346-.594.543-.875.076-.16.155-.31.24-.466.275-.49.515-.996.745-1.517.12-.237.23-.465.334-.71.11-.275.21-.524.304-.785.093-.263.198-.55.29-.82.085-.24.17-.485.254-.753.098-.32.177-.67.268-.998.067-.22.126-.44.17-.664.126-.548.236-1.095.335-1.68.03-.2.04-.4.07-.596.075-.41.12-.83.15-1.25.01-.232.04-.48.05-.722.03-.42.053-.85.053-1.31.013-.213.02-.422.02-.656-.007-.67-.02-1.33-.072-2.02-1.112-16.255-21.48-24.36-55.26-21.112-.57.06-1.12.133-1.67.18-1.606-12.02-4.055-23.66-7.805-34.394-4.702 14.524-7.42 25.98-8.956 36.684-.39.06-.777.115-1.195.193-20.29 3.475-34.552 8.116-34.552 8.116s16.3-1.47 34.89-1.205c-2.09 21.406.116 41.695-.02 80.64-.498-.025-.993-.025-1.477-.046-.045 0-.09-.006-.124-.006-5.526-.16-10.923-.103-16.09.1h-.05c-11.37.5-21.65 1.856-29.744 3.884h-.046c-8.1 2.04-14.066 4.76-16.79 7.98-1.11 1.33-1.71 2.75-1.647 4.216.306 9.17 27.625 17.592 65.98 20.812l1.632 51.972 2.695-35.255c0-.214.016-.4.04-.57.047-.48.138-.86.24-1.19.016-.01.016-.01.016-.023.04-.145.11-.275.163-.386.012-.046.032-.09.065-.118.03-.09.09-.17.14-.227.02-.04.06-.06.07-.09.067-.094.13-.16.197-.226.03-.012.05-.03.066-.045.067-.06.13-.105.216-.13.013-.028.06-.047.09-.047.054-.033.12-.045.184-.064.02 0 .047-.015.08-.015.07-.006.17-.025.27-.006.017 0 .02.006.05.006h.013c.034 0 .067 0 .067.016h.005c.083.02.155.05.234.084h.026l.033.032c.02 0 .024.004.024.004l.032.03c.01 0 .035 0 .035.02.01 0 .02.007.02.007.028.012.04.033.04.04.007 0 .02.012.028.02.012.013.03.032.045.032.01 0 .01.012.03.02 0 .02.025.02.03.033 0 0 .02.006.02.025.027.026.048.045.067.057.007.008.007.027.033.027 0 0 .006.032.026.04 0 .012.013.03.027.03.005.005.025.03.03.043 0 .007.01.007.03.033.012.014.02.027.04.03 0 .008.005.02.024.035 0 .034.01.04.034.054 0 .01.006.02.006.03.013.032.02.04.04.065 0 .013.006.013.01.025.01.02.02.04.04.06 0 .01.014.026.014.026.02.033.045.08.057.11h.01c0 .034.013.066.032.094 0 0 .01.005.01.016.016.02.02.067.035.073 0 .03 0 .03.007.05.014.01.014.04.033.075 0 .01.007.025.007.03.005.02.005.047.02.067.012.014.012.04.012.04.012.037.024.057.03.096v.032c.013.035.027.06.027.087 0 .01.01.01.01.04.02.035.028.07.04.13.007.043.007.082.02.12 0 .01.02.02.02.04 0 .034.01.066.01.106 0 .007 0 .026.01.046 0 .03 0 .057.007.076 0 .02 0 .052.005.06v.1c0 .01 0 .04.016.05v.45l1.2 46.435 2.863-37.785c-.01-.266.02-.5.03-.74.04-.68.17-1.2.32-1.644.017-.075.06-.153.11-.22 0-.04.02-.076.03-.123.06-.122.13-.245.204-.364.034-.03.054-.058.086-.1.058-.083.105-.136.184-.19.01-.032.035-.07.06-.084.093-.08.157-.13.256-.185.017-.016.036-.016.07-.02.07-.04.136-.06.21-.07.03-.017.063-.017.096-.017.076-.013.174-.013.26 0 .032 0 .052.013.065.013l.01.01c.02 0 .02.01.056.01h.01c.01.014.04.014.05.04.074.01.126.046.178.06 0 .026.014.026.027.026.01.026.01.026.04.03.01.01.03.01.03.01.007.015.03.03.03.03.02.024.02.024.035.03.014.02.033.033.033.04.013 0 .027.006.04.006.006.033.02.04.02.06.012.01.025.01.052.036.02 0 .02.01.03.04.02.007.03.027.03.04.03 0 .03.033.04.04 0 .015.02.035.04.035.013.01.02.026.02.04.005.026.013.04.026.044.015.015.015.015.028.04.014.02.026.027.026.06.013.013.032.013.04.027 0 .03.013.05.044.08v.015c.027.03.04.07.052.094 0 0 0 .01.012.023.01.033.03.06.03.086 0 .014.01.027.02.04.02.026.03.05.03.07.02.01.02.02.02.047.01.02.01.046.03.066 0 .012 0 .025.006.045.007.023.03.07.04.09v.03c.03.08.06.178.083.26 0 .015.02.03.02.03 0 .03.007.077.007.11.01.013.01.025.01.06.012.017.032.05.04.083v.058c.01.02.017.07.017.1.01.007.01.034.01.045 0 .044.008.085.008.124 0 .012 0 .02.018.043 0 .04.008.107.015.15v.16c.01.026.01.04.01.058 0 .04 0 .073.014.11v.62l1.32 48.403 2.345-72.155c4.92.18 9.95.25 15.097.25 4.852 0 9.62-.07 14.32-.226l2.304 73.444 1.98-38.44c0-.26.005-.49.03-.705.04-.622.17-1.12.31-1.54.02-.006.02-.046.026-.085.026-.067.065-.127.093-.205.05-.117.12-.227.16-.313.04-.08.08-.137.12-.18.07-.1.142-.18.214-.237.04-.028.068-.08.106-.106.11-.09.21-.144.333-.177.035-.032.087-.032.12-.032.07-.02.15-.023.25-.02.026 0 .072.016.11.02.085.008.164.04.248.074.05.02.08.03.11.056.11.08.23.166.32.27l.02.027c.01.014.01.027.028.046 0 .013.02.013.028.013.03.026.03.033.04.067.016.005.016.005.016.016.014.025.034.04.04.06.014 0 .014.01.026.02 0 .003.035.03.04.05.01.02.02.03.02.06.02.023.04.043.047.055.007.02.028.05.028.06 0 .02.014.027.014.047.02.005.033.03.033.046 0 .02.01.045.02.06.01.014.03.033.035.06 0 .02.016.03.016.05.015.014.026.03.04.054 0 .02.006.04.006.047.01.026.028.065.04.09 0 .008 0 .02.008.033.02.04.02.07.03.115.014 0 .014.026.014.026 0 .028.007.07.028.106 0 .012.02.02.02.046v.07c.025.03.025.045.025.05.008.03.028.072.028.1 0 .026 0 .032.01.063v.125c.013.044.013.09.046.135v.02c.007.04.02.108.02.15.007.01.007.02.007.05 0 .032 0 .077.016.11v.06c0 .03 0 .077.016.102v.07c0 .036.02.06.02.1v.41L280.4 373.2l2.034-46.56c.007-.224.026-.433.046-.63.074-.52.186-.96.33-1.32.06-.153.124-.28.182-.41.03-.04.067-.075.08-.114.054-.097.106-.17.164-.254.033-.028.078-.067.098-.094.08-.09.158-.17.243-.235.014-.013.026-.02.034-.025.084-.07.196-.11.28-.16.027-.013.07-.025.087-.04.1-.026.164-.043.22-.05.04 0 .07-.013.1-.013.11 0 .195 0 .32.014.007.01.04.01.067.02h.02c.01 0 .026.01.04.01 0 0 0 .015.02.015.103.04.22.09.344.16v.016l.06.04s.01.006.02.006c.03.006.04.034.046.034.013.018.013.026.026.026.02.01.03.024.035.03.01.013.01.033.044.033 0 .022.02.022.04.034.007 0 .007.012.02.02.045.044.09.1.144.155.013.005.02.03.02.04.026.012.032.025.045.044 0 .004.01.02.02.023.01.027.03.04.03.053.013.027.03.027.04.05.02.007.03.04.03.048.002.01.02.04.02.05.016.02.016.025.05.04.01.025.01.03.023.044.01.026.01.037.014.05.005.034.02.06.032.073.01.014.01.025.01.045.032.04.046.068.06.107 0 .008.006.027.024.033 0 .04.013.066.027.086.015.014.015.035.02.066.02.015.02.035.028.05.013.025.013.053.02.064 0 .026.01.046.038.065v.068c.02.027.02.06.03.08.014.015.014.034.014.06 0 .027.02.05.032.085v.05c.02.035.02.08.035.107v.026c.017.05.03.11.037.16.02.025.02.03.02.044v.1c0 .026.008.044.008.08.02.012.02.05.032.082v.063c.006.032.006.07.02.1v.18c.006.013.006.045.006.064 0 .04.017.08.017.11v.246l1.666 61.72 2.44-103.63.02-1.187v-.074c31.325-2.587 55.718-8.582 63.95-15.63.188-.15.36-.32.528-.482.076-.082.175-.15.25-.226.148-.17.296-.31.44-.47.066-.09.15-.17.217-.265.13-.155.25-.3.375-.44.12-.194.253-.376.363-.58.08-.14.15-.28.236-.415.07-.144.143-.293.21-.457.057-.1.08-.2.117-.3.06-.173.11-.35.136-.504.04-.086.055-.184.07-.267.053-.253.073-.51.073-.763-.467-10.06-30.797-17.83-66.505-16.15z" fill="#CE1141"/></g></svg>