<?xml version="1.0" encoding="UTF-8" standalone="no"?>
<svg width="512px" height="512px" viewBox="0 0 512 512" version="1.1" xmlns="http://www.w3.org/2000/svg" xmlns:xlink="http://www.w3.org/1999/xlink" xmlns:sketch="http://www.bohemiancoding.com/sketch/ns">
    <!-- Generator: Sketch 3.3.1 (12002) - http://www.bohemiancoding.com/sketch -->
    <title>cincinnati-bengals</title>
    <desc>Created with Sketch.</desc>
    <defs></defs>
    <g id="NFL" stroke="none" stroke-width="1" fill="none" fill-rule="evenodd" sketch:type="MSPage">
        <g id="cincinnati-bengals" sketch:type="MSArtboardGroup">
            <g id="svg" sketch:type="MSLayerGroup" transform="translate(81.000000, 132.000000)">
                <path d="M0.825,167.242 L45.391,243.794 L251.219,243.775 C317.632,243.775 346.357,209.111 346.357,171.917 C346.357,147.295 328.87,127.315 311.087,118.278 C309.254,117.325 309.494,115.675 310.795,114.704 C326.375,103.173 336.842,88.398 336.842,65.575 C336.842,38.563 317.521,0.644 241.978,0.644 L47.268,0.644 L3.153,77.473 L35.555,77.473 C39.157,77.473 42.089,80.405 42.089,84.009 L42.089,160.717 C42.089,164.309 39.157,167.242 35.555,167.242 L0.825,167.242" id="Fill-1" fill="#FFFFFF" sketch:type="MSShapeGroup"></path>
                <path d="M0.825,167.242 L45.391,243.794 L251.219,243.775 C317.632,243.775 346.357,209.111 346.357,171.917 C346.357,147.295 328.87,127.315 311.087,118.278 C309.254,117.325 309.494,115.675 310.795,114.704 C326.375,103.173 336.842,88.398 336.842,65.575 C336.842,38.563 317.521,0.644 241.978,0.644 L47.268,0.644 L3.153,77.473 L35.555,77.473 C39.157,77.473 42.089,80.405 42.089,84.009 L42.089,160.717 C42.089,164.309 39.157,167.242 35.555,167.242 L0.825,167.242" id="Stroke-2" stroke="#000000" stroke-width="3" sketch:type="MSShapeGroup"></path>
                <path d="M195.782,105.255 L163.767,105.255 L163.767,74.457 C163.802,71.222 166.416,68.637 169.641,68.637 L195.782,68.637 C211.089,68.637 216.793,76.446 216.793,86.638 C216.793,97.444 211.089,105.255 195.782,105.255 L195.782,105.255 Z M195.782,176.076 L169.641,176.076 C166.396,176.076 163.767,173.458 163.767,170.212 L163.767,139.451 L195.782,139.451 C211.089,139.451 216.793,146.985 216.793,157.49 C216.793,168.306 211.089,176.076 195.782,176.076 L195.782,176.076 Z M287.054,120.002 C284.709,119.434 285.092,116.574 286.814,115.923 C307.933,107.922 320.252,93.697 320.252,68.637 C320.546,35.017 290.83,11.91 242.509,11.91 L59.394,11.91 L27.278,68.673 L49.396,68.673 C53.748,68.673 57.279,72.202 57.279,76.555 L57.279,168.158 C57.279,172.521 53.748,176.058 49.396,176.058 L27.526,176.058 L59.882,232.537 L251.219,232.5 C305.842,232.5 328.354,196.204 328.354,169.496 C328.354,146.016 311.051,125.74 287.054,120.002 L287.054,120.002 Z" id="Fill-3" fill="#FB4F14" sketch:type="MSShapeGroup"></path>
                <path d="M121.695,216.498 C87.745,152.687 78.828,79.297 91.457,11.91 L59.394,11.91 L27.278,68.673 L49.396,68.673 C53.748,68.673 57.279,72.202 57.279,76.555 L57.279,146.837 C73.757,173.584 97.634,199.213 121.695,216.498 L121.695,216.498 Z M281.829,18.215 C242.966,75.84 221.904,149.312 231.345,216.224 C242.93,159.907 273.14,107.938 320.18,70.305 C320.215,69.746 320.252,69.195 320.252,68.636 C320.454,45.457 306.394,27.282 281.829,18.215 L281.829,18.215 Z M216.661,11.91 C210.592,27.858 204.177,47.125 198.791,68.747 C197.837,68.673 196.828,68.637 195.782,68.637 L169.641,68.637 C166.416,68.637 163.802,71.222 163.767,74.457 L163.767,105.253 L191.238,105.253 C189.44,116.299 187.936,127.737 186.986,139.451 L163.767,139.451 L163.767,170.21 C163.767,173.458 166.396,176.076 169.641,176.076 L185.663,176.076 C185.921,194.518 187.569,213.419 191.014,232.5 L167.148,232.5 C148.322,187.039 122.392,110.101 148.167,11.908 L216.661,11.908 L216.661,11.91 L216.661,11.91 Z" id="Fill-4" fill="#000000" sketch:type="MSShapeGroup"></path>
            </g>
        </g>
    </g>
</svg>