<?xml version="1.0" encoding="UTF-8" standalone="no"?>
<svg width="512px" height="512px" viewBox="0 0 512 512" version="1.1" xmlns="http://www.w3.org/2000/svg" xmlns:xlink="http://www.w3.org/1999/xlink" xmlns:sketch="http://www.bohemiancoding.com/sketch/ns">
    <!-- Generator: Sketch 3.3.1 (12002) - http://www.bohemiancoding.com/sketch -->
    <title>detroit-lions</title>
    <desc>Created with Sketch.</desc>
    <defs></defs>
    <g id="NFL" stroke="none" stroke-width="1" fill="none" fill-rule="evenodd" sketch:type="MSPage">
        <g id="detroit-lions" sketch:type="MSArtboardGroup">
            <g id="svg" sketch:type="MSLayerGroup" transform="translate(50.000000, 98.000000)">
                <path d="M269.20904,0.835218659 C276.473058,5.54521866 283.68672,10.3659883 291.285831,14.5267172 C299.435191,19.3557259 308.71984,21.6141458 317.64376,24.5124665 C323.744107,26.3397085 329.281387,30.4857901 331.851351,36.425242 C335.228836,37.966863 338.684142,39.4581341 341.684418,41.6909213 C344.962107,44.2441166 346.892098,48.0523965 348.375298,51.8432828 C353.936382,54.1786006 359.372951,56.8489738 364.52936,59.9917201 C371.623084,64.4142682 377.707867,70.2456968 383.614116,76.1100816 C378.920978,78.6541224 374.757947,82.2674111 371.808942,86.7256618 C370.072133,90.9806822 368.640204,95.4544956 365.766276,99.1364431 C371.741191,94.3760933 380.808853,94.6882624 386.5384,99.6847988 C394.221742,98.9936327 401.959102,102.06772 407.293129,107.587895 C410.991058,111.495959 412.146489,117.55442 410.265022,122.576589 C408.91,125.47491 409.912533,128.904192 408.251716,131.709137 C406.937893,134.68344 404.207707,136.572933 402.091858,138.905504 C399.942133,142.764134 396.715716,146.185178 392.452889,147.634338 C387.885182,149.16772 383.014427,148.173539 378.497991,147.042956 C372.330809,148.147907 365.909102,148.055446 360.044053,145.635907 C358.350276,148.190017 356.606142,150.700187 354.794258,153.16916 C359.017716,156.632315 363.818889,159.488525 369.152916,160.836985 C375.0436,162.479306 381.708844,163.767347 385.365573,169.228017 C396.462107,167.323878 407.416729,175.471399 410.308053,186.021067 C411.236427,189.443026 411.15952,193.174408 409.845698,196.485598 C408.735129,199.61095 405.784293,201.616706 404.771689,204.801563 C403.027556,209.392554 398.90664,212.796204 393.994684,213.378431 C388.803484,218.180892 380.63032,219.066134 374.554693,215.45193 C369.001849,214.801959 362.985733,214.700344 358.148853,211.466968 C355.207173,209.68916 353.10048,206.951044 350.800604,204.481155 C344.910836,201.734799 338.228196,202.375615 331.958471,201.340239 C322.478809,199.82242 312.957031,197.707726 304.28672,193.480169 C298.109467,195.450222 291.604444,195.939988 285.182738,196.394052 C283.732498,192.788087 281.829058,189.324933 279.01464,186.595971 C268.254116,192.334023 257.602542,199.284134 245.224231,200.741534 C244.3572,205.358157 243.345511,209.992175 241.584898,214.364373 C239.056133,220.642542 233.461173,225.233534 227.317796,227.761096 C234.354756,230.525761 240.152053,236.660204 241.332204,244.275848 C242.5032,249.938834 239.350942,255.599988 234.852818,258.877306 C232.996987,263.04719 229.232222,266.35014 224.723111,267.293971 C220.409013,268.591166 215.74792,266.814274 211.561084,268.650671 C204.980071,271.035423 197.976987,268.634192 192.424142,264.918373 C184.174987,265.457574 175.89928,266.585411 167.63456,265.929032 C161.643164,265.397155 156.552676,261.243749 154.27752,255.766601 C150.89088,258.252052 147.225911,260.342945 143.389733,262.043854 C137.172196,265.103294 131.029733,268.379697 125.333147,272.347265 C125.652676,273.569394 124.978827,275.490012 126.478507,276.080478 C131.15608,278.405726 135.099378,282.702857 135.858373,288.011563 C136.271289,291.989201 136.043316,296.243306 133.994302,299.788851 C132.67224,302.283458 130.085796,303.732618 128.59344,306.099061 C126.699156,308.948863 123.934178,311.365656 120.546622,312.166676 C117.672693,313.109592 114.589102,312.166676 111.723413,313.076636 C107.02936,314.43242 101.763084,314.282286 97.4416622,311.830706 C91.4749867,308.392268 87.4730933,301.627079 87.7431822,294.692531 C88.35752,286.292344 88.6358489,277.841808 88.6523289,269.432466 C85.8379111,264.630006 84.0177867,258.63288 86.5721867,253.31502 C88.8638222,247.39937 95.3853244,244.863569 98.1576267,239.302198 C100.617724,234.887889 100.853938,229.714671 101.216498,224.794117 C101.520462,218.938886 102.202551,213.107458 102.49736,207.252227 C94.3992711,204.690793 86.3844978,201.210245 79.9051111,195.607679 C74.1673244,190.14884 69.38904,183.500828 66.72752,176.001446 C63.7354844,167.920752 63.3225689,159.041784 59.4882222,151.256781 C57.85304,147.801866 55.1658844,144.986851 52.0813778,142.779697 C44.6150222,144.296601 36.7027911,141.760799 31.4703911,136.258017 C27.5014578,132.905633 25.3444089,127.52186 20.3637867,125.41449 C14.0272267,122.440187 6.99942222,121.3627 0.09064,120.637662 C10.6726311,109.776741 24.4343467,101.343598 39.7442667,99.7086006 C46.1156178,98.891102 52.8568533,100.635953 57.7184533,104.898297 C61.3513778,107.898233 63.7016089,112.127621 65.1674133,116.551085 C78.6416444,122.601306 88.8290311,134.927866 92.8913511,149.048711 C94.5851289,154.997318 95.7048533,161.43386 99.8102044,166.311388 C103.778222,171.274968 109.887724,173.912385 115.94504,175.268169 C122.350267,169.336956 128.190596,162.065522 136.75104,159.209312 C140.627502,157.752828 144.755742,156.959131 148.539733,155.240828 C151.851298,152.907341 154.791147,150.093242 157.959884,147.573918 C159.535556,146.352706 160.909804,144.869673 161.803387,143.073557 C165.072836,137.219242 168.367004,131.296268 173.077538,126.450781 C170.135858,120.29986 168.332213,113.560303 168.332213,106.709977 C169.88408,107.224461 171.442356,107.721551 173.009787,108.18477 C173.288116,97.5939067 180.476142,89.1598484 187.712693,82.1914286 C187.858267,75.8638251 189.636276,69.6213586 192.895653,64.1863207 C190.864951,60.6480991 188.986231,56.948758 188.278507,52.8887289 C194.514356,52.2479125 200.80056,51.211621 206.581378,48.7087755 C209.977173,47.2934869 212.074711,44.1251079 214.435013,41.487691 C218.765591,36.7529738 223.52648,32.2040933 229.408009,29.4485831 C236.780978,26.0357784 244.972453,24.3174752 253.103502,24.6708397 C250.491422,22.7081108 247.652284,21.0401574 244.619049,19.8189446 C251.503111,15.606035 259.457458,13.4226822 267.436524,12.5630729 C267.708444,8.62113703 267.987689,4.62793586 269.20904,0.835218659" id="Fill-1" fill="#000000" sketch:type="MSShapeGroup"></path>
                <path d="M273.168818,9.4303965 C280.331209,13.6341516 286.777636,19.1442566 294.480204,22.4389679 C301.31208,25.2704606 308.359111,27.5362041 315.386,29.8532128 C320.770382,31.285895 325.860871,35.0603032 327.175609,40.7141341 C331.818391,42.8965714 337.295244,44.2779883 340.395316,48.7087755 C342.644836,51.1786647 342.333547,55.5847347 345.788853,56.9496735 C351.5184,59.5028688 357.256187,62.1155685 362.464782,65.6537901 C366.820996,68.8972362 370.897964,72.5114402 374.775342,76.3279592 C371.97832,78.8390437 368.741831,80.9876093 366.559147,84.096484 C364.368222,89.5891953 362.404356,95.6403324 357.618747,99.4989621 C356.034836,100.888618 353.742284,101.563306 352.756231,103.551668 C357.204916,103.661522 361.478729,104.840624 365.624364,106.391399 C368.439698,104.663942 370.865004,102.043003 374.294676,101.555067 C377.99352,100.694542 381.617289,102.682904 384.010551,105.404542 C391.06216,104.748163 399.034818,106.163452 403.525618,112.188041 C406.315316,115.288676 405.818169,120.023394 403.416667,123.200012 C403.434062,125.533499 403.964169,128.127889 402.658587,130.22702 C401.647813,132.072571 399.717822,133.03288 398.032284,134.136 C396.463938,137.34649 394.544018,140.826122 391.02096,142.182822 C386.993431,143.817819 382.586862,142.443726 378.711316,141.019283 C374.775342,141.693055 370.756053,142.485837 366.761484,141.879808 C363.871991,141.280187 361.360622,139.655259 358.917004,138.08709 C354.602907,143.168764 351.206196,148.948012 346.875618,154.020531 C351.837929,158.393644 357.147236,162.604723 363.450836,164.846665 C366.998613,166.25463 370.705698,167.171913 374.396302,168.091942 C378.111627,169.067813 380.716382,172.151971 382.291138,175.505271 C387.070338,174.502851 392.570996,173.887668 396.741351,177.02309 C400.626969,179.920496 404.78176,183.577726 405.472089,188.667638 C406.205449,192.602251 404.133547,196.401376 400.887902,198.549026 C400.347724,200.823924 399.893609,203.259942 398.258427,205.053312 C396.539013,207.026111 393.844533,207.606507 391.340489,207.674251 C389.159636,210.579895 385.501991,212.537131 381.818711,211.871598 C378.507147,211.549359 375.987538,208.558577 372.515751,209.241504 C365.454987,209.730356 358.183644,206.31572 354.955396,199.854461 C348.484249,197.284787 341.532436,196.129487 334.588862,196.05442 C324.240338,194.867079 313.816738,192.270857 304.700551,187.124187 C299.661333,189.179376 294.401467,190.780501 288.951164,191.194286 C286.987298,186.499848 283.456,182.623825 279.176693,179.91958 C272.518773,183.567656 265.862684,187.191015 259.121449,190.662408 C253.035751,193.762128 246.17824,194.739831 239.47088,195.439236 C240.043102,200.528233 238.468347,205.516531 236.83408,210.268641 C235.923102,212.576496 235.114667,215.020752 233.486809,216.933131 C231.600764,218.84551 229.283493,220.244321 226.973547,221.557994 C221.478382,224.65863 214.975191,225.36719 209.580738,228.66007 C206.817591,230.380204 204.306222,232.444548 201.854364,234.568397 C204.8464,235.114921 208.097538,236.597038 211.055698,235.132315 C213.676933,234.069475 216.237742,232.622146 219.129067,232.470181 C226.85544,231.500717 234.034311,237.845714 235.761964,245.074122 C236.705902,249.330058 233.680907,252.986373 230.175244,254.898752 C229.206587,257.191959 228.151867,259.735085 225.793396,260.932496 C221.950809,262.937335 217.501209,261.858017 213.398604,261.807668 C210.205147,263.062752 206.767236,264.696834 203.269813,263.670612 C199.578293,263.012402 196.71352,260.215697 193.132782,259.389044 C185.262667,259.556571 177.417271,260.653283 169.538916,260.636805 C165.974658,260.534274 162.501956,258.715271 160.56464,255.689703 C157.902204,252.091977 159.291102,247.197055 161.264124,243.615808 C163.092489,240.153569 166.462649,237.676356 168.02184,234.096023 C167.119102,232.166251 164.786267,231.676484 163.125449,230.573364 C158.565982,238.53505 155.76072,248.385312 147.511564,253.456915 C138.2672,258.875475 127.860996,262.480525 119.746427,269.717172 C119.729031,273.165679 119.695156,276.617848 119.99088,280.06544 C124.152996,280.730058 128.442373,282.954606 129.731476,287.268216 C130.751404,291.93702 130.194747,298.24723 125.189404,300.395796 C124.103556,302.924274 122.593804,305.67063 119.780302,306.546717 C116.956729,307.66723 113.874053,306.074344 111.08344,307.278163 C107.923858,308.308047 104.393476,308.636694 101.249458,307.380694 C96.6909067,305.450921 93.3711022,300.631067 93.6247111,295.626292 C93.5478044,286.890134 94.2308089,278.169539 94.4075111,269.43979 C93.8435289,265.101464 89.9075556,261.418601 91.0712267,256.792822 C93.2960267,250.002915 101.452711,247.727102 103.836818,241.054373 C108.598622,228.81295 106.440658,215.449184 108.572987,202.734472 C101.341929,200.883429 94.2060889,198.321079 87.8347378,194.368157 C81.4304267,190.460093 76.80504,184.207557 73.5264356,177.576023 C68.9431644,168.020536 68.8680889,156.976525 64.0046578,147.539131 C61.6031556,142.821808 57.6012622,139.088595 52.9923556,136.561032 C47.2444978,138.466087 40.5288978,137.403248 35.9877422,133.291953 C32.0856444,130.166601 29.7088622,125.582933 25.8928267,122.389837 C21.1731378,119.422857 15.4509156,118.782956 10.0500533,117.966373 C20.7767022,110.720571 33.1302933,103.591948 46.5972,105.436583 C54.07088,106.346542 58.9745956,113.450449 59.9762133,120.477458 C65.7991467,123.257685 71.4636889,126.577114 76.0542844,131.151627 C81.9284889,137.227481 85.8479822,145.011569 87.8274133,153.184723 C89.7894489,160.809522 93.0341778,168.544175 99.0420533,173.869359 C104.519822,178.099662 111.234507,180.552157 118.051733,181.528029 C122.316391,176.937038 126.798951,172.538292 131.517724,168.418758 C137.273822,163.488134 145.262044,163.244624 151.843058,160.042373 C155.70304,156.883149 159.392729,153.51337 163.285671,150.395341 C165.76408,148.534227 166.867324,145.534292 168.494267,142.99849 C171.804916,136.957423 175.824204,131.354857 180.120907,125.970169 C177.467627,122.507015 175.85808,118.344455 175.606302,113.980496 C177.029076,114.106828 178.45368,114.23316 179.885609,114.351254 C178.4372,110.458752 178.193662,106.02705 179.935964,102.183983 C182.928,95.3437259 187.941582,89.5873644 193.452311,84.6512478 C193.317724,77.4054461 195.23032,70.0662682 199.654284,64.2449096 C197.927547,61.8601574 196.469067,59.2730904 195.55992,56.4599067 C201.221716,55.5499475 207.179236,54.8834985 212.092107,51.6656851 C215.504382,49.8375277 217.426133,46.3743732 220.089484,43.7287172 C224.637964,39.0516735 229.939031,34.798484 236.242631,32.8174461 C242.891396,30.7283848 249.926524,30.0866531 256.861858,30.5178309 C259.280756,28.9423382 261.808604,27.5343732 264.369413,26.1941516 C262.010942,23.7929213 259.424498,21.6031603 256.508453,19.9095743 C261.765573,18.5693528 267.168267,17.7262216 272.602089,17.9880408 C272.697307,15.1254227 273.396791,12.285691 273.168818,9.4303965" id="Fill-2" fill="#FFFFFF" sketch:type="MSShapeGroup"></path>
                <path d="M277.989218,18.7817376 C282.210844,21.8494169 286.440711,24.9756851 291.17688,27.2331895 C299.402231,31.5303207 308.72808,32.9456093 317.153938,36.729172 C320.297956,37.9430612 321.765591,41.3210787 321.577902,44.5233294 C325.683253,46.4439475 330.037636,47.9004315 333.889378,50.3108163 C337.73288,52.982105 337.41976,58.7448746 341.398764,61.2486356 C345.754978,63.4219184 350.355644,65.1237434 354.602907,67.5414519 C359.161458,69.9426822 363.214622,73.1870437 367.081929,76.5659767 C364.403013,78.3767405 361.226036,80.1637026 360.526551,83.6259417 C358.841929,89.624898 355.284996,95.5396327 349.192889,97.8566414 C350.466427,94.9162099 350.836311,91.697481 350.077316,88.5629738 C343.877173,88.4110087 337.581813,89.4729329 332.070169,92.4216035 C332.08848,95.7831429 331.76712,99.6005773 334.051431,102.372566 C335.348773,104.041434 337.818942,104.43691 339.672942,103.509557 C342.595396,102.187644 344.534542,99.5081166 346.279591,96.9384431 C346.346427,99.500793 345.537076,102.465026 347.34896,104.639224 C348.081404,106.619347 347.474391,108.818262 347.457911,110.882606 C353.028151,108.169207 359.273156,109.862793 364.580631,112.322612 C369.67112,113.266443 372.409547,105.83572 377.650187,107.470717 C379.033591,108.312933 379.604898,110.005603 380.930622,110.899085 C385.496498,111.943615 390.509164,110.032152 394.756427,112.482816 C397.030667,113.679312 400.318427,115.54958 399.611618,118.599866 C398.749164,119.637073 397.697191,120.479289 396.712053,121.371854 C397.276036,123.233883 398.170533,125.129784 397.782338,127.126385 C396.921716,128.693638 394.95968,128.947219 393.48472,129.645708 C392.456551,132.155878 391.607831,134.988286 389.270418,136.614128 C385.749191,137.381277 382.260924,136.024577 378.948444,134.988286 C373.673929,136.344985 367.126791,137.734641 362.693671,133.614192 C360.191458,130.757983 355.760169,132.662122 353.687351,135.122857 C348.925547,140.835277 345.446436,147.575749 340.161849,152.867061 C332.174542,160.913883 323.570151,168.378478 314.318462,174.941353 C307.762169,179.820711 300.228978,183.358017 292.1904,184.908793 C289.105893,180.107248 284.884267,175.691108 279.347902,173.829079 C264.550693,168.707125 248.566924,169.271959 233.271653,171.427848 C246.190142,171.672274 259.8484,171.427848 271.646249,177.493633 C265.966142,180.720601 260.228356,183.880741 254.26168,186.534636 C247.361138,189.560204 239.708924,189.642595 232.336871,190.29165 C233.229538,194.075213 234.560756,198.018064 233.38152,201.903242 C232.23616,206.199458 231.341662,211.051353 227.962347,214.219732 C220.825591,219.409429 211.40544,219.90835 204.225653,225.038542 C199.262427,228.42663 194.938258,232.900443 192.444284,238.419703 C197.391031,239.472472 202.329538,240.593901 207.3184,241.408653 C212.804409,242.640851 217.06632,236.89456 222.534933,238.292455 C226.327164,239.39649 229.562738,242.824857 230.136791,246.777778 C229.808107,249.373085 226.868258,249.852781 224.878756,250.669364 C224.584862,252.346472 224.205822,254.007102 223.759031,255.639353 C219.949404,256.97042 215.931031,256.27193 212.096684,255.480064 C210.216133,256.880706 208.1012,258.22642 205.658498,258.144029 C201.217138,258.210857 198.344124,253.728805 193.979671,253.509096 C185.814747,253.256431 177.699262,255.127615 169.534338,254.603977 C167.511876,254.485883 165.111289,253.27291 165.009662,251.006251 C164.831129,247.122904 168.008107,244.375633 170.107476,241.49379 C172.162898,238.755673 175.323396,235.63856 174.033378,231.889784 C172.457707,228.257271 168.488773,226.782478 165.201929,225.114525 C171.302276,218.095755 178.450018,211.93751 186.563671,207.352927 C197.004667,201.111376 207.782587,195.238752 219.377182,191.421318 C201.614489,194.437732 184.819538,202.518426 170.924151,213.934111 C174.296142,207.352927 180.051324,202.508356 185.225129,197.403796 C174.135004,202.981644 165.472018,212.670787 160.054676,223.734023 C156.843822,230.517522 153.422391,237.214968 149.612764,243.677143 C147.448391,247.544927 143.176409,249.346536 139.401573,251.242437 C132.272142,254.511516 125.4128,258.378385 118.959049,262.83572 C116.791929,264.471633 114.011387,266.273242 113.978427,269.324443 C113.616782,274.590122 114.172524,279.897913 114.846373,285.121481 C117.627831,285.542589 120.57592,285.720187 123.061653,287.161108 C124.790222,288.947155 124.941289,291.837236 124.107218,294.077347 C123.197156,295.292152 121.443867,295.121878 120.129129,295.577773 C119.741849,297.40593 119.859956,299.715615 118.090187,300.861761 C115.957858,301.476945 113.784329,300.760146 111.685876,300.363755 C110.043369,301.408286 108.290996,302.57091 106.243813,302.393312 C102.492782,302.72379 99.1299467,299.25972 99.39912,295.543901 C99.5190578,286.27495 100.47032,277.016985 100.09952,267.748035 C100.032684,264.125592 96.4510311,261.463458 96.8721867,257.805312 C98.7518222,254.646087 102.029511,252.708076 104.531724,250.097207 C107.825893,247.05516 109.511431,242.74979 110.784053,238.554274 C114.584524,225.486198 111.829618,211.507248 115.553182,198.432764 C108.391707,197.008321 101.346507,194.867994 94.7664089,191.699615 C88.15976,188.573347 82.8504533,183.088875 79.3026756,176.76951 C76.1266133,171.081808 75.6972178,164.467668 73.8505422,158.325901 C72.3673422,153.195708 70.5060178,148.147907 68.08712,143.388472 C65.0035289,137.178962 58.8180356,133.463143 53.0628533,130.066816 C50.0460978,131.601114 46.4644444,132.426851 43.2123911,131.112262 C38.5366489,129.18249 34.4569333,125.854822 31.7359022,121.575085 C29.9322578,118.406706 26.3084889,117.285277 23.0399556,116.300251 C27.8420444,114.64786 33.0250044,113.536501 38.0733778,114.632297 C40.8704,115.187977 43.3304978,116.687487 45.8757422,117.884898 C43.2206311,113.25912 37.6934222,112.676892 32.9654933,111.834676 C38.3333956,109.727306 44.9144089,109.426122 49.7760089,112.913079 C53.1571556,115.66035 54.1422933,120.149726 55.2125778,124.161236 C60.7315467,127.228915 66.4290489,130.160192 71.2311378,134.305359 C77.3909956,140.169743 80.9708178,148.256845 82.8174933,156.455633 C84.9489067,165.344671 89.6008444,173.813516 96.9069778,179.466431 C103.664693,184.632327 112.249858,186.814764 120.618951,187.420793 C124.66296,182.33912 129.456809,177.916571 134.3532,173.660636 C140.218249,168.242991 149.074418,168.834373 155.529084,164.519848 C160.172782,160.450665 165.254116,156.83463 169.534338,152.37821 C173.528907,146.47263 176.620738,139.968344 180.893636,134.221137 C183.918631,130.176671 187.271396,126.3867 190.668107,122.645248 C187.481973,122.341318 184.272036,121.591563 181.802782,119.434758 C185.097867,117.319149 189.665573,115.365574 190.381538,111.067528 C190.474009,107.38558 185.874258,108.69193 183.672347,109.391335 C186.184631,98.7913178 194.442942,90.9815977 202.608782,84.3930904 C205.742729,82.058688 209.610951,79.2116327 209.416853,74.846758 C207.453902,70.9029913 202.523636,73.4397085 200.250311,75.7310845 C202.062196,71.1226997 204.369396,66.5820583 208.161627,63.2699534 C206.1648,62.3682332 204.419751,61.0371662 203.122409,59.2675977 C206.772729,58.9645831 210.597004,58.7283965 213.824338,56.7995394 C219.630791,53.5039125 225.343858,50.0078017 231.595271,47.5983324 C228.87424,47.320035 226.135813,47.5232653 223.481618,48.2226706 C228.883396,42.6439067 235.665831,38.0529155 243.459956,36.8307872 C252.788551,34.9596035 262.310329,37.9009504 271.605049,36.1057493 C269.279538,34.2785073 266.447724,33.427137 263.566471,33.0389854 C266.986987,31.3289213 270.500889,29.7616676 274.259244,28.9441691 C271.73048,26.7370146 268.974658,24.8163965 266.026569,23.2235102 C270.694071,23.5686356 275.403689,23.8222157 279.92104,25.1450437 C278.881884,23.1548513 278.259307,20.9989621 277.989218,18.7817376" id="Fill-3" fill="#005A8B" sketch:type="MSShapeGroup"></path>
                <path d="M318.823911,62.3426006 C322.245342,61.8793819 325.885591,60.1262915 329.231031,61.7686122 C330.98432,62.4515394 332.754089,63.1097493 334.540338,63.6901458 C333.453573,65.2995102 332.458364,66.9674636 331.70944,68.7544257 C328.118631,65.3837318 323.753262,62.9742624 318.823911,62.3426006 L318.823911,62.3426006 Z M235.165938,88.1244723 C241.351431,83.6250262 248.547698,80.279965 256.274987,79.8249854 C269.690622,79.0331195 283.120907,85.8147872 290.890311,96.7095802 C281.352053,89.7329213 270.026631,84.0717668 257.943129,84.323516 C250.18288,84.1807055 242.564542,85.9667522 235.165022,88.1244723 L235.165938,88.1244723 Z M225.820862,109.288805 C235.108258,105.279125 243.391289,98.6137201 253.620791,97.0977318 C261.171378,95.7666647 268.855636,96.9713994 276.177333,98.9515219 C266.824933,98.3198601 257.260124,99.4559359 248.766516,103.610257 C240.8964,107.351708 234.113049,113.216093 225.728391,115.911184 C217.048924,119.197656 207.324809,119.121673 198.587662,116.071388 C208.007813,115.633802 217.342818,113.459603 225.820862,109.288805 L225.820862,109.288805 Z M254.193929,115.254805 C265.543156,110.065108 278.739058,108.126181 290.81432,111.901504 C295.26392,113.375382 300.050444,115.397615 302.519698,119.636157 C303.860987,121.734373 304.045013,124.26102 304.248267,126.67049 C307.819849,125.751376 311.324596,124.57319 314.646231,122.955586 C315.185493,119.982198 315.800747,116.898041 317.653831,114.428152 C319.152596,112.238391 321.910249,110.790146 324.587333,111.252449 C329.407733,111.842 333.882969,113.906344 338.230942,115.970688 C326.374498,124.741633 312.504747,130.361592 298.457378,134.59098 C300.015653,130.496163 300.285742,125.651592 297.639787,121.927534 C293.721209,116.046671 286.281404,114.24323 279.709547,113.266443 C271.155511,111.951854 262.535556,113.342426 254.193929,115.254805 L254.193929,115.254805 Z" id="Fill-4" fill="#FFFFFF" sketch:type="MSShapeGroup"></path>
                <path d="M310.169164,183.661032 C322.277387,176.795143 333.174329,168.015044 342.821538,158.014647 C346.6568,161.425621 350.616578,164.788991 355.125689,167.290921 C360.585147,170.172764 366.510622,172.075988 372.491947,173.541627 C376.654978,174.453417 376.857316,180.257382 381.062462,181.158187 C384.878498,181.747738 388.899618,179.279679 392.556347,181.209452 C395.167511,182.693399 397.326391,184.950904 398.876427,187.512338 C399.5164,188.826012 400.401742,190.502204 399.507244,191.918408 C398.723529,193.611994 396.660782,193.847265 395.142791,194.55491 C394.965173,196.838047 395.403724,199.524898 393.710862,201.36221 C391.898978,202.458921 389.715378,201.497697 387.787218,201.294466 C387.002587,203.056711 386.43952,205.525685 384.2312,205.97151 C381.609964,206.627889 379.352204,204.766776 377.337982,203.401837 C372.837111,203.637108 367.89128,203.991388 363.921431,201.447347 C361.623387,200.091563 360.250053,197.723289 359.177938,195.356845 C353.288169,192.854 347.0688,191.058799 340.65808,190.663324 C330.241804,189.778082 319.708338,188.117452 310.169164,183.661032" id="Fill-5" fill="#005A8B" sketch:type="MSShapeGroup"></path>
            </g>
        </g>
    </g>
</svg>