<?xml version="1.0" encoding="UTF-8" standalone="no"?>
<svg width="512px" height="512px" viewBox="0 0 512 512" version="1.1" xmlns="http://www.w3.org/2000/svg" xmlns:xlink="http://www.w3.org/1999/xlink" xmlns:sketch="http://www.bohemiancoding.com/sketch/ns">
    <!-- Generator: Sketch 3.3.1 (12002) - http://www.bohemiancoding.com/sketch -->
    <title>green-bay-packers</title>
    <desc>Created with Sketch.</desc>
    <defs></defs>
    <g id="NFL" stroke="none" stroke-width="1" fill="none" fill-rule="evenodd" sketch:type="MSPage">
        <g id="green-bay-packers" sketch:type="MSArtboardGroup">
            <g id="svg" sketch:type="MSLayerGroup" transform="translate(72.000000, 136.000000)">
                <path d="M365.918,119.761 C365.918,185.895 284.223,239.506 183.449,239.506 C82.674,239.506 0.979,185.895 0.979,119.761 C0.979,53.627 82.674,0.016 183.449,0.016 C276.499,0.016 354.646,45.965 364.824,106.663" id="Fill-1" fill="#FFB612" sketch:type="MSShapeGroup"></path>
                <path d="M347.012,77.325 C383.16,136.302 339.235,203.241 248.904,226.841 C158.574,250.442 56.044,221.764 19.897,162.789 C-16.251,103.815 27.672,36.873 118.002,13.273 C208.041,-10.251 310.267,18.161 346.71,76.837" id="Fill-2" fill="#203731" sketch:type="MSShapeGroup"></path>
                <path d="M28.221,119.129 C28.133,66.687 105.483,21.08 189.783,22.825 C277.116,22.627 320.595,70.144 330.437,88.717 L260.743,88.717 C245.344,63.089 225,52.326 180.279,52.603 C117.895,55.971 89.588,91.471 90.945,118.495 C91.356,133.904 97.263,176.247 177.112,177.418 C212.447,176.088 254.67,174.263 262.869,140.431 L156.203,140.67 L156.203,113.426 L338.041,114.693 C340.174,164.375 289.842,216.119 177.335,217.826 C81.856,217.153 26.546,161.32 28.221,119.126 L28.221,119.129" id="Fill-3" fill="#FFFFFF" sketch:type="MSShapeGroup"></path>
            </g>
        </g>
    </g>
</svg>