<?xml version="1.0" encoding="UTF-8" standalone="no"?>
<svg width="512px" height="512px" viewBox="0 0 512 512" version="1.1" xmlns="http://www.w3.org/2000/svg" xmlns:xlink="http://www.w3.org/1999/xlink" xmlns:sketch="http://www.bohemiancoding.com/sketch/ns">
    <!-- Generator: Sketch 3.3.1 (12002) - http://www.bohemiancoding.com/sketch -->
    <title>st-louis-rams</title>
    <desc>Created with Sketch.</desc>
    <defs></defs>
    <g id="NFL" stroke="none" stroke-width="1" fill="none" fill-rule="evenodd" sketch:type="MSPage">
        <g id="st-louis-rams" sketch:type="MSArtboardGroup">
            <g id="svg" sketch:type="MSLayerGroup" transform="translate(55.000000, 111.000000)">
                <path d="M296.024131,286.62969 C296.150317,286.601197 305.765924,284.142662 305.765924,284.142662 C317.712927,281.163113 325.31464,279.197099 329.77594,277.07132 C329.77594,277.061144 333.677542,275.179592 333.677542,275.179592 L335.916332,271.464313 C336.565582,270.384634 351.470841,245.206018 358.836463,210.168838 C360.920574,208.279144 368.723778,201.176257 368.723778,201.176257 L368.943587,198.826606 L369.241753,195.618095 C369.514479,192.732165 369.644736,189.815708 369.644736,186.916549 C369.644736,181.689109 369.212242,176.251025 368.37473,170.724408 C385.611385,161.134493 393.076736,147.25944 397.645904,135.992511 C401.376544,126.800479 403.245935,116.47687 403.245935,105.759447 C403.245935,95.1824542 401.418267,84.2208063 397.794479,73.6173556 C391.915617,56.454419 378.575476,32.2496514 348.371134,14.4191655 C329.558166,3.30894718 303.06004,-1.39442606 277.43606,1.81917254 C247.685582,5.54564437 222.072796,19.6028486 205.319516,41.3806268 C204.016947,43.0820634 202.773401,44.8883134 201.581753,46.7505317 L201.001703,46.8533099 C106.000645,61.6492958 30.6805945,123.509542 27.5259345,126.129877 L0.258478589,148.766514 L35.5794761,151.608687 C97.8321108,156.617342 141.900675,178.39512 167.901179,195.78193 C196.383688,214.83456 210.093229,232.923518 210.228574,233.109739 L219.418811,245.626289 L231.23861,235.485849 C233.243345,233.756937 235.05473,231.789905 236.695154,229.615282 L237.101189,229.977549 L239.769421,232.205088 C241.53196,233.626683 242.969874,234.842722 244.798559,236.901338 C245.241229,237.905715 245.510902,239.026099 245.510902,240.304211 C245.510902,243.488299 245.122166,244.397021 244.274479,246.378299 L243.856232,247.333831 C242.844705,249.75675 240.936645,253.258331 240.903063,253.300053 L238.012987,258.594655 L290.603204,288.139817" id="Fill-1" fill="#FFFFFF" sketch:type="MSShapeGroup"></path>
                <path d="M242.596403,215.599799 L243.211053,216.142183 L243.184594,215.964102 L242.596403,215.599799 L242.596403,215.599799 Z M331.646348,128.910993 L330.770166,129.792239 L331.292212,129.286489 L331.646348,128.910993 L331.646348,128.910993 Z" id="Fill-2" fill="#13264B" sketch:type="MSShapeGroup"></path>
                <path d="M345.253108,19.6771338 C311.580675,-0.208915493 245.143537,-0.370714789 210.160393,45.1091338 C208.412101,47.3967113 206.789995,49.7891021 205.297128,52.2629014 C203.785945,52.5630951 202.642126,52.774757 201.976594,52.8877113 C108.699406,67.4150493 34.5394559,128.254637 31.4275365,130.83732 L15.7214005,143.876919 L36.0679395,145.513229 C159.375456,155.431831 214.580987,228.714701 215.12135,229.466711 L220.444584,236.688658 L227.242368,230.843532 C230.964866,227.640109 233.521159,223.877004 235.323385,220.21057 C236.987214,221.730873 238.863728,223.392623 241.128977,225.390183 C244.227668,228.091926 246.571275,229.477905 250.025118,233.591067 C251.190307,235.764673 251.620766,238.100077 251.620766,240.302176 C251.620766,245.314901 250.65605,246.927806 249.499003,249.685518 C248.352131,252.444246 246.278196,256.231775 246.278196,256.231775 L291.40001,281.564049 L294.443748,280.720454 L304.248635,278.203915 C315.515859,275.40957 323.205088,273.414046 327.125008,271.547757 L329.384151,270.454849 L330.676544,268.315842 C331.319688,267.221915 346.297199,241.837743 353.24661,206.985768 C355.71335,204.730754 362.861199,198.239447 362.861199,198.239447 L363.165471,195.043148 C363.407668,192.297648 363.529783,189.590817 363.529783,186.911461 C363.529783,180.132173 362.784877,173.51163 361.603406,167.342905 C379.49338,158.883549 387.083899,145.772718 391.984816,133.687634 C404.983033,101.617792 394.612343,48.8254296 345.253108,19.6771338" id="Fill-3" fill="#B3995D" sketch:type="MSShapeGroup"></path>
                <path d="M380.310539,70.9970211 C351.778166,2.01455282 273.398096,15.7888627 273.398096,15.7888627 L274.016816,15.7308592 C278.030358,15.4082782 301.256796,14.0670739 324.52801,23.6732711 C344.962065,32.1082042 367.786539,53.1166725 373.308212,80.8759366 C374.61994,87.4710387 375.130791,93.5787077 375.130791,99.1053239 L375.124685,100.502496 C374.867224,117.505669 369.753622,128.934398 368.020594,132.51637 C365.69734,137.33982 359.966035,144.426426 356.093945,147.249264 C352.844645,149.634532 349.844665,150.63382 347.55601,150.63382 C347.11334,150.63382 346.708322,150.589046 346.329763,150.514761 L346.30534,150.514761 C345.919657,150.452687 345.547204,150.33668 345.218509,150.191162 C343.057058,149.205102 342.316222,146.615296 337.370529,139.676243 C334.097824,135.057331 329.937743,130.603271 329.937743,130.603271 C330.347849,130.248127 330.719285,129.857366 331.100897,129.482887 L331.646348,128.895729 C332.098176,128.413384 332.518458,127.863877 332.946882,127.296053 C334.143617,125.662796 335.163285,123.760891 335.97332,121.609673 L336.058801,121.36443 C336.323385,120.674493 336.540141,119.964204 336.756897,119.245775 C340.767385,104.951468 336.337632,82.8215986 318.343859,68.4245141 C299.219496,53.1115845 278.54528,51.8446655 261.798106,58.5588275 C233.609693,69.859338 216.557229,103.782239 236.685995,131.524204 C246.444071,144.981021 262.308957,145.845986 272.164725,138.299423 C281.392615,131.216887 287.588977,109.558169 264.874408,97.9564472 C283.122589,96.4117218 305.266267,118.176271 294.368443,146.272363 C293.567567,148.325891 292.625239,150.242042 291.580131,152.035063 C275.778338,178.671908 232.64803,175.717799 211.915809,150.946225 C191.719879,126.816761 188.287406,94.4670775 197.985441,67.5391972 C198.69066,65.586412 199.474237,63.6346444 200.322942,61.7347746 C117.00939,79.7413063 63.1054106,130.129067 63.1054106,130.129067 C179.592756,154.303306 221.824494,224.548623 221.824494,224.548623 C226.14129,220.838433 228.485914,215.859289 229.799678,211.759356 C221.719678,198.528447 225.259003,186.12994 225.259003,186.12994 C227.025612,195.040095 230.281018,201.572106 233.5293,206.254109 C234.924474,208.198754 241.341662,214.495697 242.594368,215.595729 L243.182559,215.959014 L243.208,216.138113 C249.047174,221.301444 255.978267,227.124183 257.209602,229.341546 C263.479234,240.613563 256.932806,253.409954 256.932806,253.409954 L292.189693,272.726144 C300.050902,270.507764 318.451728,266.482116 323.527678,264.049021 C323.527678,264.049021 339.157491,237.917926 345.644897,202.657891 L354.884997,194.257556 C358.304242,184.571986 352.259506,163.399683 352.259506,163.399683 C353.005431,163.208373 353.775778,162.986535 354.545108,162.719923 C356.379899,162.110377 358.21469,161.292222 360.051516,160.279704 C380.019496,149.216296 398.377582,114.616687 380.310539,70.9970211" id="Fill-4" fill="#002244" sketch:type="MSShapeGroup"></path>
                <path d="M375.129773,99.1063415 C375.129773,93.5787077 374.61994,87.4710387 373.307194,80.8779718 C367.786539,53.1166725 344.962065,32.1082042 324.526992,23.6753063 C301.254761,14.0680915 278.030358,15.411331 274.015798,15.7318768 C273.069401,15.8509366 272.108756,15.9679613 271.169481,16.0971972 C239.458025,20.5858556 220.182035,43.2367394 220.182035,43.2367394 C248.880282,20.801588 291.968866,18.1537782 320.478851,29.8409789 C348.962378,41.5353028 369.673229,65.2444965 375.120615,100.504532 L375.128756,100.187039 L375.129773,99.1063415 L375.129773,99.1063415 Z M282.547627,237.557694 C282.847829,236.136099 286.942781,235.850151 286.942781,235.850151 C289.848121,246.132039 285.342045,252.732229 285.06932,253.714218 C284.850529,249.039338 285.678882,240.388673 282.547627,237.557694 L282.547627,237.557694 Z M211.915809,150.949278 C191.719879,126.821849 188.287406,94.4701303 197.985441,67.5442852 C192.191043,76.462581 178.892625,102.926433 195.349773,139.372996 C215.312665,183.566592 269.948322,185.314838 288.325743,157.653264 C289.568272,155.778835 290.644927,153.898299 291.581149,152.041169 C275.778338,178.676996 232.64803,175.72187 211.915809,150.949278 L211.915809,150.949278 Z M316.754317,191.176246 C316.754317,187.534236 319.69731,184.575039 323.346539,184.575039 L323.694569,184.595391 C322.916081,180.941169 321.289904,176.95012 318.220725,173.028268 C318.220725,173.028268 318.465975,176.936891 317.626428,180.283796 C314.261118,182.067658 311.962287,185.578398 311.962287,189.665102 C311.962287,195.506158 316.717683,200.248201 322.567033,200.248201 C322.567033,200.248201 322.954751,199.341514 323.37198,197.775419 L323.345521,197.775419 C319.69731,197.778472 316.754317,194.820292 316.754317,191.176246 L316.754317,191.176246 Z" id="Fill-5" fill="#FFFFFF" sketch:type="MSShapeGroup"></path>
                <path d="M324.090428,194.059123 L323.873673,194.565891 C322.539557,195.111327 320.27736,194.626947 319.401179,192.514398 C321.863849,193.962451 323.755627,192.41569 324.262408,191.948609 L324.412,191.811232 C324.412,191.811232 324.514781,192.844102 324.090428,194.059123" id="Fill-6" fill="#13264B" sketch:type="MSShapeGroup"></path>
                <path d="M324.414035,191.813268 L324.262408,191.948609 C323.757662,192.416708 321.865884,193.965504 319.401179,192.517451 C320.278378,194.628982 322.541592,195.112345 323.87469,194.567926 L324.092463,194.061158 C324.514781,192.844102 324.414035,191.813268 324.414035,191.813268 L324.414035,191.813268 Z M344.814509,190.061968 C345.63472,156.569514 317.669169,134.288021 317.669169,134.288021 C317.669169,134.288021 338.168353,159.844169 335.785058,189.894063 L330.207416,195.093011 C330.296967,203.251155 329.91332,218.735042 322.014458,236.088271 C313.83066,221.29025 295.778882,211.490708 288.33999,209.728215 C283.279305,212.576493 272.049733,218.754377 265.502287,226.017028 C266.648141,227.590246 268.252947,231.846891 268.498196,233.23287 C269.984957,241.465299 268.865562,247.437627 267.58538,251.752275 C267.603698,251.768556 280.086992,258.738137 279.909924,258.393169 C283.328151,246.565539 278.78137,241.232268 275.31328,235.160215 C278.685713,233.109739 286.528605,228.716736 290.185975,227.192363 C293.885068,232.286496 295.787023,240.717359 291.812151,252.715947 C290.615416,256.309113 288.886458,259.968423 287.845421,262.497173 C287.859668,262.628444 292.719879,265.22232 292.691385,265.066627 C299.006811,263.796655 304.781874,259.476919 307.014559,253.418095 C307.682126,251.616933 307.385995,250.226884 307.168222,248.811394 C306.546448,249.604109 305.696725,250.86187 304.672987,251.55893 C303.053935,247.807018 303.031547,244.81831 305.083093,242.567366 C306.140413,241.404243 307.326972,240.977866 308.745552,240.931056 C310.842892,240.858806 312.530126,242.215275 313.195657,243.815968 C316.333018,251.523313 309.06,259.626507 309.06,259.626507 C309.06,259.626507 316.018569,259.306979 318.024322,258.326007 C322.124363,250.046768 334.807113,223.060884 338.406479,195.819581 L344.814509,190.061968 L344.814509,190.061968 Z" id="Fill-7" fill="#FFFFFF" sketch:type="MSShapeGroup"></path>
            </g>
        </g>
    </g>
</svg>