<svg width="512" height="512" viewBox="0 0 512 512" xmlns="http://www.w3.org/2000/svg"><title>anaheim-ducks</title><g fill="none" fill-rule="evenodd"><g stroke="#FFF" stroke-width="5" fill="#FFF"><path d="M243.138 161.5c21.72-3.925 43.757-6.472 65.852-6.24 37.663.584 75.616 9.66 108.235 28.796 11.103 6.662 21.765 14.42 30.184 24.34 3.617 4.48 7.282 9.527 7.694 15.466-.464 4.845-3.607 8.873-6.337 12.717-7.468 9.665-16.588 17.902-26.016 25.617-17.88 14.413-37.51 26.55-57.925 37.033-43.368 22.105-90.534 36.426-138.627 43.695-34.545 5.226-69.6 6.79-104.478 5.17 21.18-5.905 42.1-13.186 61.62-23.38 10.285-5.453 20.327-11.733 28.467-20.143 5.856-6.165 10.785-14.066 10.68-22.835.163-4.982-2.5-9.61-6.053-12.925-6.853-6.494-15.938-9.99-24.89-12.537 8.952-3.925 17.625-8.526 25.708-14.03 7.218-4.98 14.12-10.663 19.29-17.806 3.966-5.51 6.743-12.254 6.122-19.148-.406-4.758-3.096-9.076-6.725-12.074-4.623-3.85-10.276-6.176-15.974-7.924-9.283-2.75-18.93-4-28.567-4.666-7.05-.434-14.13-.67-21.192-.34 23.822-7.97 48.22-14.245 72.93-18.79zm24.832.254c-24.687 3.085-49.055 8.393-73 15.096 8.673.69 17.347 1.968 25.678 4.538 7.932 2.506 15.98 6.09 21.423 12.618 3.973 4.717 5.47 11.218 4.38 17.243-1.596 10.165-8.292 18.637-15.685 25.42-8.476 7.705-18.31 13.754-28.46 18.992 6.742 2.796 13.374 6.373 18.36 11.803 3.693 4.017 6.123 9.365 5.867 14.893-.19 8.71-4.62 16.74-10.32 23.106-6.232 7.033-13.914 12.624-21.886 17.532-14.953 9.135-31.257 15.78-47.723 21.666 27.772-.023 55.567-2.09 82.996-6.517 47.77-7.71 94.568-22.354 137.524-44.714 18.85-9.84 36.985-21.144 53.625-34.405 7.954-6.442 15.676-13.255 22.338-21.057 2.95-3.548 5.868-7.27 7.525-11.623 1.293-3.687-.626-7.467-2.522-10.564-4.54-7.037-10.858-12.71-17.393-17.86-8.905-6.883-18.65-12.63-28.774-17.534-23.27-11.148-48.637-17.746-74.316-20.108-19.852-1.864-39.872-.955-59.637 1.476z"/><path d="M270.487 190.04c20.61-3.333 41.785-2.847 62.333.748 28.08 4.92 55.102 17.052 76.375 36.17-15.447 14.14-33.036 25.804-51.468 35.697-21.562 11.495-44.348 20.606-67.678 27.835-16.944 5.233-34.186 9.54-51.655 12.595 23.198-11.408 46.418-22.8 69.24-34.96 13.328-7.224 26.83-14.274 39.268-22.997-34.88 1-69.76 2.205-104.635 3.374 36.78-9.65 73.64-19.026 110.432-28.617-9.253-6.09-19.55-10.366-29.876-14.297-17.08-6.32-34.63-11.316-52.337-15.547zm23.626 2.172c7.49 1.65 14.732 4.242 21.996 6.656 16.158 5.794 32.3 12.445 46.215 22.66-27.894 7.277-55.835 14.385-83.717 21.69 27.076-.77 54.148-1.76 81.223-2.593-10.62 8.624-22.547 15.448-34.352 22.307-18.036 10.263-36.55 19.664-55.114 28.918 26.264-6.864 51.925-16.143 76.294-28.112 20.072-10.002 39.338-21.91 56.257-36.693-7.827-6.43-16.27-12.114-25.267-16.79-22.554-11.746-47.96-17.453-73.304-18.23-3.413.036-6.834-.357-10.23.187z"/></g><path d="M267.698 137.52c31.036-3.387 62.64-2.49 93.24 3.906 22.625 4.706 44.86 12.097 65.007 23.523 14.42 8.282 27.98 18.794 37.448 32.622 6.517 9.394 10.657 20.473 11.422 31.904v6.72c-.562 6.82-2.61 13.458-5.676 19.553-4.39 9.03-10.646 17.01-17.458 24.344-12.518 13.203-27.152 24.242-42.48 33.97-19.98 12.626-41.294 23.068-63.198 31.906-42.238 16.89-86.835 27.99-132.128 32.477-38.973 3.838-78.52 2.142-116.972-5.314-19.47-3.92-38.834-8.942-57.138-16.723 24.17-6.61 48.157-13.938 71.778-22.325 18.42-6.657 36.793-13.717 53.995-23.14 6.493-3.682 12.963-7.64 18.24-12.978 2.672-2.865 5.316-6.403 5.125-10.517-.412-3.838-3.95-6.217-7.068-7.9-7.137-3.56-15.034-5.204-22.82-6.65-13.886-2.426-27.97-3.468-42.04-4.123 17.538-6.662 34.804-14.076 51.566-22.51 9.15-4.707 18.21-9.673 26.542-15.738 3.85-2.854 7.566-5.997 10.46-9.847 1.96-2.668 3.536-6.314 1.913-9.527-2.273-4.208-7.033-6.112-11.318-7.617-10.546-3.318-21.65-4.267-32.624-4.997-23.47-1.273-47.003-.463-70.44 1.135 10.34-6.87 21.222-12.88 32.243-18.57 44.463-22.532 92.713-38.177 142.378-43.59zm-78.312 22.602c-26.08 8.676-51.404 19.68-75.407 33.074 18.18-.978 36.444-1.18 54.603.416 9.91.927 19.88 2.293 29.337 5.522 5.027 1.858 10.303 4.232 13.48 8.752 2.244 3.143 2.505 7.398.98 10.9-2.26 5.435-6.69 9.562-11.08 13.324-9.108 7.49-19.463 13.272-29.882 18.73-10.024 5.135-20.298 9.777-30.676 14.16 8.784.896 17.567 2.03 26.177 4.045 6.835 1.66 13.74 3.68 19.718 7.5 3.623 2.34 7.015 5.818 7.462 10.31.458 5.105-2.464 9.742-5.723 13.41-5.514 6.05-12.46 10.57-19.463 14.704-14.866 8.513-30.746 15.077-46.754 21.12-21.5 8.033-43.444 14.818-65.51 21.12 17.428 5.84 35.395 9.985 53.525 12.954 33.738 5.447 68.166 6.444 102.176 3.224 49.33-4.723 97.893-17.295 143.348-36.975 21.023-9.186 41.403-19.952 60.31-32.976 15.038-10.488 29.4-22.367 40.52-37.057 6.16-8.31 11.365-17.735 12.81-28.107 1.25-11.282-1.422-22.83-6.935-32.704-4.865-8.822-11.712-16.428-19.406-22.882-14.645-12.207-32.016-20.722-49.902-27.077-25.343-8.876-52.083-13.53-78.892-14.613-42.342-1.522-84.678 5.916-124.817 19.125z" fill="#828689"/><g stroke="#1E1E1E" stroke-width="5" fill="#1E1E1E"><path d="M189.386 160.12c40.14-13.207 82.475-20.645 124.817-19.123 26.808 1.082 53.548 5.736 78.89 14.615 17.888 6.356 35.258 14.87 49.902 27.078 7.694 6.454 14.542 14.06 19.406 22.88 5.515 9.875 8.188 21.423 6.935 32.704-1.443 10.373-6.65 19.796-12.807 28.108-11.12 14.69-25.482 26.568-40.522 37.057-18.906 13.022-39.287 23.788-60.31 32.974-45.454 19.68-94.018 32.252-143.346 36.975-34.01 3.22-68.438 2.222-102.176-3.224-18.13-2.97-36.098-7.113-53.526-12.954 22.067-6.304 44.012-13.087 65.51-21.12 16.008-6.044 31.888-12.608 46.754-21.122 7.004-4.133 13.95-8.653 19.464-14.702 3.258-3.67 6.18-8.306 5.722-13.412-.446-4.49-3.838-7.97-7.462-10.308-5.977-3.82-12.883-5.84-19.718-7.502-8.61-2.014-17.394-3.15-26.178-4.046 10.378-4.382 20.652-9.024 30.677-14.158 10.42-5.458 20.774-11.24 29.882-18.73 4.388-3.763 8.818-7.89 11.08-13.325 1.524-3.502 1.263-7.756-.98-10.9-3.178-4.52-8.454-6.893-13.48-8.75-9.457-3.23-19.43-4.597-29.338-5.523-18.16-1.598-36.423-1.395-54.605-.417 24.005-13.396 49.33-24.4 75.41-33.076zm53.752 1.38c-24.71 4.543-49.108 10.817-72.93 18.788 7.06-.33 14.14-.093 21.19.34 9.636.667 19.284 1.917 28.567 4.666 5.698 1.748 11.35 4.075 15.973 7.924 3.63 3 6.318 7.317 6.725 12.075.62 6.894-2.156 13.637-6.122 19.147-5.17 7.143-12.07 12.827-19.29 17.805-8.082 5.504-16.755 10.106-25.707 14.03 8.952 2.547 18.037 6.043 24.89 12.538 3.554 3.316 6.216 7.942 6.053 12.925.105 8.77-4.824 16.67-10.68 22.835-8.14 8.41-18.182 14.69-28.467 20.143-19.522 10.192-40.44 17.474-61.62 23.38 34.88 1.62 69.933.057 104.477-5.17 48.093-7.27 95.26-21.59 138.628-43.695 20.414-10.483 40.045-22.62 57.926-37.032 9.428-7.716 18.548-15.952 26.016-25.62 2.73-3.842 5.873-7.87 6.337-12.715-.41-5.94-4.076-10.986-7.694-15.467-8.42-9.92-19.08-17.677-30.185-24.34-32.62-19.136-70.572-28.212-108.235-28.797-22.095-.232-44.133 2.315-65.852 6.24zm214.852 74.997c-11.248 13.267-23.94 25.272-37.57 36.067-35.525 28.02-76.793 48.21-119.767 62.04-49.612 15.847-101.96 23.135-154.015 21.554-5.647 1.365-11.27 2.888-16.866 4.47 40.666 3.437 81.848 1.492 121.9-6.477 47.392-9.376 93.23-26.678 134.824-51.238 18.89-11.258 37.06-23.912 53.242-38.833 5.86-5.53 11.62-11.294 16.124-18.008 1.896-2.785 3.48-6.206 2.128-9.575z"/><path d="M294.113 192.21c3.398-.543 6.818-.15 10.233-.184 25.343.776 50.748 6.483 73.303 18.227 8.997 4.677 17.44 10.36 25.266 16.792-16.92 14.783-36.185 26.69-56.257 36.692-24.37 11.97-50.03 21.248-76.295 28.113 18.565-9.255 37.077-18.655 55.115-28.918 11.804-6.86 23.73-13.683 34.352-22.308-27.076.834-54.146 1.823-81.222 2.593 27.882-7.305 55.822-14.412 83.716-21.688-13.915-10.218-30.057-16.868-46.216-22.662-7.265-2.414-14.506-5.007-21.997-6.657z"/></g><path d="M267.97 161.753c19.765-2.43 39.785-3.34 59.636-1.476 25.68 2.362 51.045 8.96 74.32 20.11 10.122 4.9 19.868 10.65 28.773 17.53 6.534 5.153 12.853 10.825 17.393 17.864 1.896 3.097 3.815 6.877 2.522 10.564-1.657 4.353-4.574 8.075-7.525 11.623-6.662 7.802-14.386 14.615-22.34 21.058-16.64 13.26-34.774 24.565-53.624 34.405-42.956 22.36-89.757 37.004-137.525 44.714-27.43 4.427-55.224 6.494-82.995 6.517 16.466-5.885 32.77-12.53 47.723-21.664 7.972-4.908 15.654-10.5 21.887-17.532 5.7-6.367 10.128-14.396 10.32-23.107.254-5.528-2.175-10.876-5.868-14.893-4.987-5.43-11.62-9.007-18.36-11.802 10.15-5.24 19.984-11.287 28.46-18.992 7.393-6.783 14.09-15.257 15.684-25.422 1.09-6.025-.405-12.525-4.377-17.243-5.445-6.53-13.492-10.112-21.423-12.618-8.332-2.57-17.005-3.85-25.68-4.538 23.945-6.704 48.313-12.012 73-15.097zm2.517 28.287c17.706 4.232 35.257 9.227 52.337 15.548 10.327 3.93 20.623 8.207 29.877 14.297-36.793 9.59-73.65 18.968-110.432 28.617 34.874-1.17 69.755-2.374 104.635-3.375-12.437 8.723-25.94 15.773-39.27 22.997-22.82 12.16-46.04 23.55-69.237 34.96 17.47-3.056 34.71-7.363 51.653-12.596 23.33-7.23 46.116-16.34 67.677-27.835 18.432-9.892 36.023-21.556 51.47-35.696-21.274-19.12-48.3-31.25-76.377-36.17-20.548-3.594-41.722-4.08-62.333-.747z" stroke="#91764C" stroke-width="5" fill="#91764C"/><path d="M457.99 236.497c1.35 3.37-.232 6.79-2.13 9.574-4.504 6.715-10.26 12.48-16.123 18.008-16.182 14.922-34.352 27.575-53.242 38.833-41.594 24.56-87.432 41.862-134.824 51.24-40.05 7.97-81.233 9.915-121.9 6.476 5.596-1.58 11.22-3.103 16.867-4.47 52.053 1.58 104.402-5.706 154.015-21.554 42.974-13.83 84.243-34.017 119.766-62.038 13.632-10.795 26.324-22.8 37.572-36.067z" stroke="#EF5223" stroke-width="5" fill="#EF5223"/><g fill="#FFF"><path d="M242.952 161.498c21.72-3.924 43.757-6.47 65.853-6.24 37.663.585 75.616 9.66 108.234 28.797 11.102 6.662 21.765 14.418 30.184 24.34 3.617 4.48 7.282 9.527 7.694 15.466-.464 4.845-3.606 8.874-6.337 12.717-7.467 9.667-16.587 17.903-26.014 25.62-17.88 14.412-37.512 26.55-57.927 37.032-43.37 22.103-90.534 36.425-138.628 43.693-34.545 5.227-69.6 6.79-104.477 5.17 21.18-5.904 42.098-13.186 61.62-23.38 10.285-5.452 20.327-11.733 28.467-20.142 5.856-6.164 10.784-14.065 10.68-22.834.162-4.982-2.5-9.61-6.053-12.925-6.854-6.493-15.94-9.99-24.892-12.536 8.952-3.925 17.626-8.526 25.708-14.03 7.22-4.98 14.12-10.663 19.29-17.806 3.966-5.51 6.743-12.253 6.123-19.147-.407-4.757-3.097-9.075-6.727-12.073-4.62-3.85-10.274-6.176-15.973-7.925-9.282-2.75-18.93-4-28.567-4.665-7.05-.434-14.13-.67-21.19-.34 23.822-7.97 48.22-14.245 72.93-18.79zm24.833.255c-24.688 3.085-49.056 8.393-73 15.096 8.672.687 17.346 1.967 25.678 4.537 7.93 2.506 15.978 6.09 21.423 12.618 3.97 4.717 5.467 11.218 4.377 17.243-1.594 10.165-8.29 18.638-15.683 25.422-8.477 7.704-18.31 13.753-28.462 18.99 6.743 2.797 13.376 6.374 18.362 11.803 3.692 4.017 6.123 9.366 5.866 14.894-.19 8.71-4.62 16.74-10.32 23.106-6.232 7.033-13.914 12.624-21.886 17.532-14.953 9.135-31.256 15.78-47.722 21.666 27.772-.022 55.567-2.088 82.995-6.516 47.77-7.71 94.57-22.355 137.526-44.715 18.848-9.84 36.983-21.145 53.623-34.406 7.955-6.442 15.678-13.255 22.34-21.057 2.95-3.55 5.867-7.27 7.525-11.623 1.293-3.687-.627-7.467-2.522-10.564-4.54-7.038-10.86-12.71-17.394-17.862-8.906-6.882-18.652-12.63-28.775-17.533-23.272-11.148-48.638-17.747-74.316-20.108-19.85-1.864-39.87-.955-59.635 1.476z"/><path d="M270.3 190.04c20.613-3.334 41.786-2.848 62.334.747 28.08 4.92 55.103 17.052 76.375 36.17-15.447 14.14-33.037 25.804-51.47 35.696-21.56 11.496-44.347 20.607-67.677 27.836-16.942 5.232-34.184 9.537-51.653 12.594 23.197-11.408 46.418-22.8 69.238-34.96 13.33-7.224 26.832-14.274 39.268-22.997-34.88 1.002-69.76 2.206-104.634 3.375 36.78-9.65 73.64-19.026 110.432-28.617-9.253-6.09-19.55-10.367-29.876-14.297-17.08-6.322-34.63-11.317-52.337-15.548zm23.627 2.17c7.49 1.65 14.733 4.243 21.996 6.657 16.16 5.794 32.3 12.445 46.216 22.66-27.894 7.277-55.835 14.385-83.717 21.69 27.076-.77 54.147-1.76 81.222-2.594-10.62 8.625-22.548 15.45-34.352 22.308-18.036 10.264-36.55 19.664-55.115 28.92 26.265-6.866 51.926-16.144 76.294-28.114 20.073-10 39.34-21.91 56.257-36.692-7.828-6.43-16.27-12.115-25.268-16.792-22.554-11.744-47.96-17.45-73.303-18.227-3.414.035-6.835-.36-10.233.186z"/></g><path d="M267.512 137.518c31.036-3.387 62.64-2.49 93.24 3.907 22.625 4.705 44.86 12.097 65.007 23.523 14.418 8.283 27.98 18.794 37.447 32.622 6.517 9.395 10.657 20.473 11.422 31.905v6.72c-.563 6.82-2.61 13.458-5.677 19.553-4.39 9.03-10.645 17.012-17.457 24.346-12.518 13.203-27.152 24.24-42.48 33.97-19.98 12.625-41.294 23.067-63.198 31.906-42.238 16.89-86.836 27.99-132.128 32.476-38.973 3.838-78.52 2.142-116.972-5.313-19.47-3.92-38.834-8.943-57.138-16.724 24.17-6.61 48.157-13.94 71.778-22.326 18.42-6.656 36.793-13.717 53.995-23.14 6.494-3.68 12.964-7.64 18.24-12.978 2.673-2.865 5.317-6.402 5.126-10.517-.413-3.84-3.95-6.218-7.07-7.902-7.136-3.56-15.033-5.202-22.82-6.65-13.885-2.425-27.968-3.467-42.04-4.12 17.54-6.664 34.805-14.078 51.566-22.512 9.15-4.706 18.212-9.672 26.543-15.737 3.85-2.855 7.565-5.998 10.46-9.847 1.958-2.668 3.535-6.315 1.912-9.528-2.273-4.208-7.033-6.112-11.318-7.617-10.546-3.317-21.65-4.266-32.624-4.995-23.47-1.274-47.004-.463-70.44 1.134 10.34-6.87 21.222-12.878 32.243-18.568 44.465-22.535 92.715-38.18 142.38-43.592zM189.2 160.12c-26.078 8.677-51.404 19.68-75.407 33.075 18.182-.98 36.446-1.18 54.605.416 9.908.927 19.88 2.293 29.337 5.523 5.027 1.858 10.303 4.23 13.48 8.752 2.244 3.143 2.505 7.397.98 10.9-2.26 5.435-6.69 9.562-11.08 13.324-9.108 7.49-19.463 13.27-29.882 18.73-10.025 5.134-20.3 9.776-30.677 14.158 8.784.897 17.568 2.03 26.178 4.046 6.835 1.66 13.74 3.68 19.718 7.5 3.624 2.34 7.016 5.818 7.462 10.31.458 5.105-2.464 9.742-5.722 13.41-5.514 6.05-12.46 10.57-19.464 14.703-14.866 8.515-30.746 15.08-46.754 21.122-21.498 8.032-43.443 14.817-65.51 21.12 17.428 5.84 35.396 9.984 53.526 12.953 33.738 5.447 68.165 6.443 102.176 3.224 49.328-4.723 97.89-17.295 143.346-36.975 21.023-9.186 41.403-19.952 60.31-32.976 15.04-10.488 29.4-22.367 40.522-37.057 6.157-8.313 11.364-17.736 12.807-28.108 1.254-11.282-1.42-22.83-6.933-32.704-4.864-8.82-11.712-16.427-19.405-22.88-14.646-12.208-32.016-20.723-49.903-27.078-25.344-8.878-52.084-13.53-78.893-14.614-42.342-1.522-84.678 5.916-124.817 19.125z" fill="#828689"/><g fill="#1E1E1E"><path d="M189.2 160.12c40.14-13.21 82.475-20.646 124.817-19.124 26.808 1.082 53.548 5.736 78.89 14.615 17.888 6.357 35.26 14.87 49.903 27.08 7.694 6.452 14.54 14.058 19.405 22.88 5.514 9.874 8.187 21.422 6.935 32.703-1.444 10.372-6.65 19.795-12.808 28.108-11.12 14.69-25.48 26.57-40.52 37.057-18.908 13.024-39.29 23.79-60.31 32.976-45.455 19.68-94.02 32.252-143.348 36.975-34.01 3.22-68.438 2.223-102.176-3.223-18.13-2.97-36.097-7.113-53.526-12.954 22.067-6.303 44.012-13.086 65.51-21.12 16.008-6.043 31.89-12.607 46.755-21.12 7.003-4.135 13.95-8.655 19.463-14.703 3.258-3.67 6.18-8.306 5.723-13.412-.447-4.49-3.84-7.97-7.462-10.31-5.977-3.82-12.882-5.84-19.718-7.5-8.61-2.014-17.394-3.15-26.177-4.046 10.378-4.383 20.652-9.025 30.676-14.16 10.42-5.457 20.775-11.24 29.883-18.73 4.39-3.762 8.82-7.89 11.08-13.324 1.525-3.502 1.264-7.757-.98-10.9-3.177-4.52-8.453-6.893-13.48-8.75-9.456-3.23-19.428-4.597-29.337-5.523-18.16-1.598-36.422-1.395-54.604-.417 24.005-13.396 49.33-24.4 75.41-33.076zm53.753 1.378c-24.71 4.544-49.108 10.818-72.932 18.788 7.063-.33 14.142-.092 21.192.342 9.637.666 19.284 1.916 28.567 4.665 5.697 1.748 11.35 4.075 15.972 7.924 3.63 3 6.32 7.317 6.726 12.075.62 6.893-2.157 13.637-6.123 19.147-5.17 7.142-12.07 12.826-19.29 17.804-8.082 5.504-16.756 10.106-25.708 14.03 8.952 2.547 18.038 6.043 24.89 12.538 3.555 3.316 6.216 7.942 6.054 12.925.105 8.77-4.823 16.67-10.68 22.834-8.14 8.412-18.18 14.692-28.467 20.144-19.52 10.193-40.44 17.475-61.62 23.38 34.88 1.62 69.935.058 104.478-5.17 48.094-7.27 95.26-21.59 138.63-43.695 20.413-10.484 40.045-22.62 57.926-37.033 9.427-7.716 18.546-15.953 26.015-25.62 2.73-3.842 5.874-7.87 6.338-12.716-.412-5.937-4.076-10.984-7.695-15.465-8.42-9.92-19.08-17.677-30.184-24.34-32.62-19.136-70.572-28.212-108.235-28.797-22.096-.23-44.134 2.315-65.852 6.24zm214.85 74.998c-11.246 13.267-23.938 25.27-37.57 36.067-35.524 28.02-76.792 48.21-119.765 62.04-49.613 15.847-101.962 23.134-154.016 21.554-5.647 1.365-11.27 2.888-16.866 4.47 40.667 3.436 81.85 1.492 121.9-6.478 47.392-9.377 93.23-26.68 134.824-51.24 18.89-11.257 37.06-23.91 53.242-38.832 5.862-5.53 11.62-11.293 16.124-18.007 1.897-2.784 3.48-6.205 2.128-9.574z"/><path d="M293.928 192.21c3.397-.544 6.818-.15 10.233-.185 25.343.776 50.748 6.483 73.303 18.227 9 4.677 17.44 10.36 25.267 16.792-16.92 14.783-36.184 26.69-56.256 36.692-24.37 11.97-50.03 21.248-76.295 28.113 18.564-9.256 37.077-18.656 55.114-28.92 11.805-6.858 23.732-13.683 34.352-22.307-27.075.833-54.146 1.823-81.222 2.593 27.882-7.305 55.822-14.413 83.716-21.688-13.915-10.217-30.057-16.867-46.215-22.66-7.265-2.415-14.507-5.008-21.997-6.658z"/></g><path d="M267.785 161.752c19.765-2.43 39.785-3.34 59.636-1.476 25.68 2.362 51.045 8.96 74.32 20.108 10.122 4.903 19.868 10.65 28.774 17.533 6.534 5.152 12.854 10.824 17.393 17.862 1.896 3.096 3.815 6.876 2.523 10.563-1.658 4.353-4.575 8.075-7.526 11.623-6.66 7.802-14.385 14.615-22.34 21.057-16.64 13.26-34.774 24.566-53.623 34.406-42.956 22.36-89.756 37.003-137.525 44.713-27.43 4.427-55.225 6.494-82.995 6.517 16.466-5.886 32.77-12.53 47.722-21.666 7.972-4.907 15.654-10.5 21.887-17.532 5.698-6.367 10.128-14.395 10.32-23.106.253-5.53-2.175-10.876-5.868-14.893-4.987-5.43-11.62-9.007-18.362-11.803 10.152-5.238 19.985-11.287 28.462-18.99 7.392-6.785 14.09-15.26 15.683-25.423 1.09-6.025-.406-12.525-4.377-17.243-5.446-6.53-13.493-10.112-21.424-12.618-8.33-2.57-17.005-3.85-25.678-4.538 23.943-6.703 48.312-12.01 73-15.096zm2.516 28.287c17.708 4.23 35.258 9.226 52.34 15.546 10.326 3.93 20.622 8.208 29.875 14.297-36.793 9.59-73.65 18.968-110.432 28.617 34.873-1.17 69.754-2.373 104.634-3.374-12.436 8.723-25.94 15.773-39.268 22.997-22.822 12.16-46.042 23.55-69.24 34.96 17.47-3.056 34.71-7.363 51.654-12.596 23.33-7.23 46.116-16.34 67.678-27.836 18.43-9.89 36.022-21.554 51.468-35.695-21.272-19.118-48.297-31.25-76.375-36.17-20.55-3.594-41.722-4.08-62.334-.746z" fill="#91764C"/><path d="M457.804 236.496c1.35 3.37-.232 6.79-2.13 9.574-4.504 6.715-10.26 12.48-16.123 18.007-16.18 14.92-34.35 27.575-53.24 38.833-41.594 24.56-87.432 41.86-134.824 51.238-40.052 7.97-81.234 9.916-121.9 6.477 5.594-1.58 11.218-3.103 16.866-4.47 52.053 1.58 104.402-5.706 154.015-21.554 42.973-13.828 84.243-34.017 119.765-62.037 13.633-10.796 26.324-22.8 37.572-36.067z" fill="#EF5223"/></g></svg>