<svg width="512" height="512" viewBox="0 0 512 512" xmlns="http://www.w3.org/2000/svg"><title>anaheim-ducks</title><g fill="none" fill-rule="evenodd"><g stroke="#FFF" stroke-width="5" fill="#FFF"><path d="M243.138 161.5c21.72-3.925 43.757-6.472 65.852-6.24 37.663.584 75.616 9.66 108.235 28.796 11.103 6.662 21.765 14.42 30.184 24.34 3.61 4.48 7.28 9.527 7.69 15.466-.47 4.845-3.61 8.873-6.34 12.717-7.47 9.66-16.59 17.9-26.02 25.61-17.88 14.41-37.51 26.55-57.93 37.03-43.37 22.1-90.538 36.42-138.63 43.69-34.546 5.22-69.6 6.79-104.48 5.17 21.18-5.91 42.1-13.19 61.62-23.38 10.284-5.458 20.326-11.738 28.466-20.148 5.855-6.165 10.784-14.066 10.68-22.835.162-4.983-2.5-9.61-6.054-12.926-6.855-6.492-15.94-9.99-24.89-12.535 8.95-3.926 17.623-8.527 25.706-14.03 7.22-4.98 14.12-10.664 19.29-17.807 3.966-5.51 6.743-12.257 6.122-19.15-.406-4.76-3.096-9.077-6.725-12.075-4.62-3.85-10.274-6.177-15.972-7.925-9.28-2.75-18.93-4-28.564-4.666-7.05-.436-14.13-.67-21.19-.34 23.82-7.97 48.22-14.247 72.93-18.79zm24.832.254c-24.687 3.085-49.055 8.393-73 15.096 8.673.69 17.347 1.968 25.678 4.538 7.932 2.506 15.98 6.09 21.423 12.618 3.98 4.717 5.47 11.218 4.38 17.243-1.59 10.16-8.29 18.63-15.68 25.42-8.47 7.7-18.31 13.75-28.46 18.99 6.74 2.79 13.38 6.37 18.36 11.8 3.7 4.01 6.13 9.36 5.87 14.89-.19 8.71-4.62 16.74-10.32 23.1-6.23 7.03-13.91 12.62-21.88 17.53-14.95 9.13-31.252 15.78-47.72 21.662 27.77-.024 55.57-2.09 82.998-6.518 47.77-7.71 94.57-22.355 137.525-44.715 18.85-9.84 36.986-21.146 53.626-34.407 7.952-6.44 15.674-13.255 22.336-21.057 2.95-3.547 5.867-7.27 7.524-11.62 1.29-3.688-.63-7.468-2.526-10.565-4.54-7.033-10.855-12.71-17.39-17.86-8.906-6.88-18.65-12.63-28.775-17.53-23.27-11.15-48.64-17.746-74.32-20.11-19.85-1.863-39.87-.954-59.635 1.477z"/><path d="M270.487 190.04c20.61-3.333 41.785-2.847 62.333.748 28.08 4.92 55.102 17.052 76.375 36.17-15.447 14.14-33.036 25.804-51.468 35.697-21.562 11.495-44.348 20.606-67.678 27.835-16.95 5.233-34.19 9.54-51.66 12.595 23.2-11.408 46.42-22.8 69.24-34.96 13.33-7.224 26.83-14.274 39.27-22.997-34.88 1-69.76 2.205-104.64 3.374 36.78-9.65 73.64-19.026 110.43-28.617-9.26-6.09-19.55-10.366-29.88-14.297-17.08-6.32-34.63-11.316-52.34-15.547zm23.626 2.172c7.49 1.65 14.732 4.242 21.996 6.656 16.15 5.794 32.3 12.445 46.21 22.66-27.9 7.277-55.84 14.385-83.72 21.69 27.07-.77 54.15-1.76 81.22-2.593-10.62 8.624-22.55 15.448-34.36 22.307-18.037 10.263-36.55 19.664-55.115 28.918 26.264-6.864 51.925-16.143 76.294-28.112 20.074-10.002 39.34-21.91 56.26-36.693-7.828-6.43-16.27-12.114-25.268-16.79-22.554-11.746-47.96-17.453-73.304-18.23-3.41.036-6.837-.357-10.23.187z"/></g><path d="M267.698 137.52c31.036-3.387 62.64-2.49 93.24 3.906 22.625 4.706 44.86 12.097 65.007 23.523 14.42 8.28 27.98 18.79 37.448 32.62 6.517 9.39 10.657 20.47 11.422 31.9v6.72c-.562 6.82-2.61 13.46-5.676 19.55-4.39 9.03-10.65 17.01-17.46 24.34-12.52 13.2-27.15 24.24-42.48 33.97-19.98 12.62-41.3 23.07-63.2 31.9-42.24 16.89-86.84 27.99-132.13 32.477-38.98 3.84-78.52 2.142-116.97-5.314-19.47-3.92-38.84-8.94-57.14-16.723 24.17-6.61 48.15-13.935 71.78-22.322 18.42-6.66 36.79-13.72 53.99-23.14 6.49-3.682 12.96-7.64 18.24-12.98 2.67-2.863 5.31-6.4 5.12-10.515-.41-3.838-3.95-6.217-7.07-7.9-7.136-3.56-15.033-5.204-22.82-6.65-13.885-2.426-27.97-3.468-42.04-4.123 17.54-6.66 34.805-14.074 51.567-22.51 9.15-4.705 18.21-9.67 26.543-15.736 3.85-2.853 7.566-5.996 10.46-9.846 1.96-2.67 3.536-6.315 1.913-9.528-2.274-4.208-7.034-6.112-11.32-7.617-10.55-3.32-21.65-4.27-32.626-5-23.47-1.275-47-.465-70.44 1.133 10.34-6.87 21.223-12.88 32.244-18.57 44.466-22.533 92.716-38.178 142.38-43.59zm-78.312 22.602c-26.08 8.676-51.404 19.68-75.407 33.074 18.18-.978 36.44-1.18 54.6.416 9.91.927 19.88 2.293 29.33 5.522 5.02 1.858 10.3 4.232 13.48 8.752 2.24 3.143 2.5 7.398.98 10.9-2.26 5.435-6.69 9.562-11.08 13.324-9.11 7.49-19.47 13.272-29.89 18.73-10.026 5.135-20.3 9.777-30.678 14.16 8.784.896 17.567 2.03 26.177 4.045 6.835 1.66 13.74 3.68 19.72 7.5 3.622 2.34 7.014 5.818 7.46 10.31.46 5.105-2.463 9.742-5.72 13.41-5.515 6.05-12.46 10.57-19.464 14.704-14.867 8.51-30.747 15.07-46.755 21.12-21.5 8.03-43.444 14.81-65.51 21.12 17.43 5.84 35.395 9.98 53.525 12.95 33.74 5.44 68.162 6.44 102.172 3.22 49.33-4.73 97.89-17.3 143.345-36.98 21.023-9.19 41.403-19.95 60.31-32.98 15.04-10.49 29.4-22.37 40.52-37.06 6.16-8.31 11.365-17.735 12.81-28.107 1.25-11.284-1.42-22.83-6.935-32.706-4.864-8.82-11.71-16.426-19.405-22.88-14.647-12.207-32.018-20.72-49.9-27.077-25.346-8.874-52.086-13.53-78.89-14.61-42.347-1.525-84.68 5.913-124.82 19.122z" fill="#828689"/><g stroke="#1E1E1E" stroke-width="5" fill="#1E1E1E"><path d="M189.386 160.12c40.14-13.207 82.475-20.645 124.817-19.123 26.808 1.082 53.548 5.736 78.89 14.615 17.888 6.356 35.258 14.87 49.902 27.078 7.694 6.454 14.542 14.06 19.406 22.88 5.52 9.875 8.19 21.423 6.94 32.704-1.44 10.373-6.65 19.796-12.8 28.108-11.12 14.69-25.48 26.568-40.52 37.057-18.9 13.02-39.28 23.78-60.31 32.97-45.45 19.68-94.012 32.25-143.34 36.97-34.01 3.22-68.436 2.22-102.174-3.23-18.13-2.97-36.097-7.117-53.525-12.958 22.066-6.305 44.01-13.088 65.51-21.12 16.007-6.045 31.887-12.61 46.753-21.123 7.006-4.133 13.95-8.653 19.466-14.7 3.26-3.67 6.18-8.307 5.72-13.41-.446-4.49-3.84-7.97-7.46-10.31-5.98-3.82-12.885-5.84-19.72-7.5-8.61-2.01-17.396-3.15-26.18-4.045 10.38-4.383 20.652-9.025 30.677-14.16 10.42-5.46 20.774-11.24 29.88-18.73 4.388-3.765 8.818-7.89 11.08-13.327 1.524-3.5 1.26-7.757-.98-10.9-3.18-4.52-8.454-6.894-13.48-8.75-9.46-3.23-19.43-4.598-29.34-5.524-18.16-1.595-36.42-1.392-54.603-.414 24.007-13.398 49.33-24.4 75.41-33.078zm53.752 1.38c-24.71 4.543-49.108 10.817-72.93 18.788 7.06-.33 14.14-.093 21.19.34 9.636.667 19.284 1.917 28.567 4.666 5.698 1.748 11.35 4.075 15.973 7.924 3.63 3 6.318 7.317 6.725 12.075.62 6.894-2.156 13.637-6.122 19.147-5.17 7.143-12.07 12.827-19.29 17.805-8.08 5.504-16.75 10.106-25.7 14.03 8.95 2.547 18.04 6.043 24.89 12.538 3.56 3.316 6.22 7.942 6.06 12.925.11 8.77-4.82 16.67-10.68 22.835-8.14 8.41-18.18 14.69-28.462 20.143-19.52 10.192-40.44 17.474-61.62 23.38 34.88 1.62 69.934.057 104.478-5.17 48.095-7.27 95.26-21.59 138.63-43.695 20.414-10.48 40.045-22.62 57.926-37.03 9.43-7.71 18.55-15.95 26.017-25.62 2.73-3.84 5.87-7.87 6.335-12.71-.41-5.94-4.076-10.98-7.694-15.46-8.42-9.92-19.08-17.672-30.185-24.34-32.62-19.13-70.572-28.21-108.235-28.792-22.1-.23-44.137 2.316-65.856 6.24zm214.852 74.997c-11.248 13.267-23.94 25.272-37.57 36.067-35.525 28.02-76.793 48.21-119.767 62.04-49.612 15.847-101.96 23.135-154.015 21.554-5.647 1.365-11.27 2.888-16.866 4.47 40.666 3.437 81.848 1.492 121.9-6.477 47.392-9.37 93.23-26.67 134.824-51.23 18.89-11.26 37.06-23.91 53.242-38.83 5.86-5.53 11.62-11.29 16.124-18 1.896-2.784 3.48-6.205 2.128-9.574z"/><path d="M294.113 192.21c3.398-.543 6.818-.15 10.233-.184 25.343.776 50.748 6.483 73.303 18.227 8.99 4.677 17.44 10.36 25.26 16.792-16.92 14.783-36.19 26.69-56.26 36.692-24.37 11.97-50.03 21.248-76.3 28.113 18.56-9.255 37.072-18.655 55.11-28.918 11.804-6.86 23.73-13.683 34.352-22.308-27.078.834-54.148 1.823-81.224 2.593 27.882-7.305 55.822-14.412 83.716-21.688-13.914-10.22-30.056-16.87-46.215-22.67-7.266-2.42-14.507-5.01-21.998-6.66z"/></g><path d="M267.97 161.753c19.765-2.43 39.785-3.34 59.636-1.476 25.68 2.362 51.045 8.96 74.32 20.11 10.122 4.9 19.868 10.65 28.773 17.53 6.53 5.153 12.85 10.825 17.39 17.864 1.89 3.1 3.81 6.88 2.52 10.57-1.66 4.36-4.58 8.08-7.53 11.63-6.67 7.8-14.39 14.62-22.34 21.06-16.64 13.26-34.78 24.57-53.63 34.41-42.96 22.36-89.76 37.005-137.53 44.715-27.43 4.428-55.223 6.495-82.994 6.518 16.47-5.883 32.77-12.53 47.725-21.662 7.975-4.91 15.657-10.5 21.89-17.53 5.7-6.37 10.13-14.4 10.32-23.11.254-5.53-2.175-10.875-5.87-14.892-4.985-5.43-11.62-9.006-18.36-11.8 10.15-5.24 19.986-11.287 28.46-18.99 7.395-6.785 14.09-15.26 15.686-25.424 1.09-6.024-.405-12.524-4.38-17.242-5.44-6.53-13.49-10.112-21.42-12.62-8.33-2.57-17.003-3.85-25.68-4.54 23.947-6.702 48.315-12.01 73-15.095zm2.517 28.287c17.706 4.232 35.257 9.227 52.337 15.548 10.327 3.93 20.623 8.207 29.877 14.297-36.79 9.59-73.65 18.968-110.43 28.617 34.88-1.17 69.76-2.374 104.64-3.375-12.43 8.723-25.94 15.773-39.27 22.997-22.82 12.16-46.04 23.55-69.23 34.96 17.47-3.056 34.71-7.363 51.658-12.596 23.33-7.23 46.117-16.34 67.678-27.835 18.434-9.892 36.025-21.556 51.47-35.696-21.272-19.12-48.3-31.25-76.375-36.17-20.546-3.594-41.72-4.08-62.33-.747z" stroke="#91764C" stroke-width="5" fill="#91764C"/><path d="M457.99 236.497c1.35 3.37-.232 6.79-2.13 9.574-4.504 6.72-10.26 12.48-16.123 18.01-16.182 14.92-34.352 27.58-53.242 38.84-41.594 24.56-87.432 41.86-134.824 51.24-40.05 7.97-81.23 9.92-121.9 6.48 5.6-1.58 11.22-3.1 16.87-4.47 52.06 1.58 104.4-5.7 154.02-21.55 42.98-13.83 84.25-34.015 119.77-62.04 13.63-10.79 26.33-22.8 37.57-36.063z" stroke="#EF5223" stroke-width="5" fill="#EF5223"/><g fill="#FFF"><path d="M242.952 161.498c21.72-3.924 43.757-6.47 65.853-6.24 37.663.585 75.616 9.66 108.234 28.797 11.1 6.662 21.76 14.418 30.18 24.34 3.61 4.48 7.28 9.527 7.69 15.466-.47 4.85-3.61 8.88-6.34 12.72-7.47 9.67-16.59 17.91-26.02 25.62-17.88 14.41-37.51 26.55-57.93 37.03-43.37 22.11-90.535 36.43-138.63 43.7-34.544 5.23-69.6 6.79-104.476 5.17 21.18-5.9 42.097-13.18 61.62-23.38 10.284-5.45 20.326-11.73 28.466-20.14 5.86-6.16 10.787-14.06 10.68-22.83.165-4.98-2.5-9.61-6.05-12.92-6.852-6.492-15.94-9.99-24.89-12.535 8.953-3.925 17.627-8.526 25.71-14.03 7.22-4.98 14.12-10.663 19.29-17.806 3.965-5.51 6.74-12.253 6.12-19.147-.405-4.756-3.095-9.074-6.725-12.072-4.62-3.85-10.273-6.174-15.972-7.923-9.28-2.75-18.93-4-28.565-4.663-7.05-.434-14.13-.67-21.19-.34 23.82-7.97 48.22-14.245 72.93-18.79zm24.833.255c-24.688 3.085-49.056 8.393-73 15.096 8.672.68 17.346 1.96 25.678 4.53 7.93 2.5 15.978 6.09 21.423 12.62 3.97 4.71 5.467 11.22 4.377 17.24-1.594 10.16-8.29 18.64-15.683 25.42-8.477 7.7-18.31 13.75-28.462 18.99 6.743 2.79 13.376 6.37 18.362 11.8 3.692 4.01 6.123 9.36 5.866 14.89-.19 8.71-4.62 16.74-10.32 23.104-6.232 7.032-13.914 12.623-21.886 17.53-14.953 9.136-31.256 15.78-47.722 21.667 27.772-.02 55.567-2.087 82.995-6.515 47.77-7.71 94.57-22.356 137.526-44.716 18.84-9.84 36.98-21.148 53.62-34.41 7.95-6.44 15.68-13.255 22.34-21.057 2.95-3.55 5.86-7.27 7.52-11.626 1.29-3.69-.63-7.47-2.52-10.566-4.54-7.04-10.86-12.71-17.4-17.86-8.91-6.883-18.65-12.63-28.78-17.534-23.27-11.15-48.64-17.747-74.317-20.11-19.85-1.86-39.87-.953-59.636 1.48z"/><path d="M270.3 190.04c20.613-3.334 41.786-2.848 62.334.747 28.08 4.92 55.103 17.052 76.375 36.17-15.45 14.14-33.04 25.804-51.47 35.696-21.56 11.496-44.35 20.607-67.68 27.836-16.94 5.23-34.19 9.53-51.66 12.59 23.19-11.41 46.41-22.8 69.23-34.96 13.33-7.23 26.83-14.28 39.27-23-34.88 1-69.76 2.2-104.637 3.37 36.78-9.65 73.64-19.03 110.432-28.62-9.256-6.09-19.55-10.37-29.88-14.3-17.08-6.32-34.63-11.318-52.337-15.55zm23.627 2.17c7.49 1.65 14.733 4.243 21.996 6.657 16.16 5.794 32.3 12.445 46.216 22.66-27.9 7.277-55.84 14.385-83.72 21.69 27.07-.77 54.14-1.76 81.22-2.594-10.62 8.625-22.55 15.45-34.35 22.308-18.04 10.27-36.55 19.67-55.12 28.92 26.26-6.86 51.92-16.14 76.29-28.11 20.07-10 39.34-21.91 56.25-36.69-7.827-6.43-16.27-12.11-25.267-16.79-22.556-11.74-47.96-17.45-73.305-18.22-3.415.04-6.836-.36-10.234.19z"/></g><path d="M267.512 137.518c31.036-3.387 62.64-2.49 93.24 3.907 22.625 4.705 44.86 12.097 65.007 23.523 14.41 8.283 27.98 18.794 37.44 32.622 6.51 9.395 10.65 20.473 11.42 31.905v6.72c-.57 6.82-2.61 13.458-5.68 19.553-4.39 9.03-10.65 17.012-17.46 24.346-12.52 13.203-27.15 24.24-42.48 33.97-19.98 12.625-41.298 23.067-63.2 31.906-42.24 16.89-86.84 27.99-132.13 32.476-38.97 3.838-78.52 2.142-116.97-5.313-19.47-3.92-38.837-8.943-57.14-16.724 24.17-6.61 48.16-13.94 71.78-22.33 18.42-6.66 36.79-13.72 53.992-23.14 6.496-3.68 12.966-7.64 18.24-12.98 2.675-2.87 5.32-6.4 5.13-10.52-.415-3.84-3.95-6.22-7.07-7.9-7.138-3.56-15.035-5.2-22.82-6.65-13.887-2.43-27.97-3.47-42.04-4.12 17.54-6.67 34.803-14.08 51.564-22.51 9.15-4.71 18.212-9.67 26.543-15.74 3.85-2.86 7.565-6 10.46-9.85 1.96-2.67 3.535-6.32 1.912-9.53-2.276-4.21-7.036-6.11-11.32-7.62-10.547-3.318-21.65-4.267-32.625-4.996-23.47-1.275-47.002-.464-70.44 1.133 10.34-6.87 21.224-12.88 32.245-18.57 44.462-22.535 92.712-38.18 142.38-43.59zM189.2 160.12c-26.078 8.677-51.404 19.68-75.407 33.075 18.182-.98 36.446-1.18 54.605.416 9.908.93 19.88 2.3 29.337 5.53 5.027 1.86 10.303 4.23 13.48 8.75 2.244 3.15 2.505 7.4.98 10.9-2.26 5.44-6.69 9.56-11.08 13.33-9.108 7.49-19.463 13.27-29.882 18.73-10.025 5.14-20.3 9.78-30.677 14.16 8.784.9 17.568 2.03 26.178 4.05 6.835 1.66 13.74 3.68 19.718 7.5 3.624 2.34 7.016 5.82 7.462 10.31.458 5.107-2.464 9.74-5.722 13.41-5.514 6.05-12.46 10.57-19.464 14.705-14.866 8.517-30.746 15.08-46.754 21.124-21.498 8.03-43.443 14.815-65.51 21.12 17.428 5.84 35.396 9.982 53.526 12.95 33.738 5.447 68.165 6.443 102.176 3.224 49.328-4.724 97.89-17.296 143.346-36.976 21.023-9.184 41.403-19.95 60.31-32.974 15.04-10.49 29.4-22.37 40.522-37.06 6.157-8.313 11.364-17.736 12.807-28.11 1.26-11.28-1.42-22.83-6.93-32.702-4.86-8.82-11.71-16.43-19.4-22.88-14.64-12.21-32.01-20.723-49.9-27.08-25.34-8.88-52.08-13.53-78.89-14.613-42.34-1.524-84.67 5.914-124.81 19.123z" fill="#828689"/><g fill="#1E1E1E"><path d="M189.2 160.12c40.14-13.21 82.475-20.646 124.817-19.124 26.808 1.082 53.548 5.736 78.89 14.615 17.888 6.36 35.26 14.87 49.903 27.08 7.694 6.46 14.54 14.06 19.405 22.88 5.514 9.88 8.187 21.43 6.935 32.71-1.444 10.37-6.65 19.8-12.808 28.11-11.12 14.69-25.48 26.57-40.52 37.06-18.908 13.03-39.29 23.79-60.31 32.98-45.455 19.68-94.02 32.25-143.348 36.978-34.01 3.22-68.438 2.224-102.176-3.222-18.13-2.97-36.097-7.11-53.526-12.952 22.067-6.304 44.012-13.087 65.51-21.12 16.008-6.044 31.89-12.61 46.755-21.12 7.003-4.136 13.95-8.656 19.463-14.704 3.258-3.67 6.18-8.308 5.723-13.41-.447-4.49-3.84-7.97-7.462-10.31-5.97-3.82-12.88-5.84-19.71-7.5-8.61-2.018-17.39-3.15-26.17-4.05 10.38-4.383 20.65-9.025 30.68-14.16 10.42-5.457 20.775-11.24 29.883-18.73 4.39-3.76 8.82-7.89 11.08-13.324 1.525-3.504 1.264-7.76-.98-10.9-3.177-4.52-8.453-6.895-13.48-8.75-9.456-3.23-19.43-4.6-29.337-5.525-18.16-1.6-36.42-1.394-54.603-.42 24.002-13.393 49.33-24.4 75.41-33.073zm53.753 1.378c-24.71 4.544-49.108 10.818-72.932 18.788 7.07-.33 14.15-.092 21.2.342 9.64.666 19.29 1.916 28.57 4.665 5.7 1.748 11.35 4.075 15.98 7.924 3.63 3 6.32 7.317 6.727 12.075.62 6.893-2.157 13.637-6.123 19.147-5.17 7.14-12.07 12.82-19.29 17.8-8.082 5.5-16.756 10.1-25.71 14.03 8.95 2.54 18.04 6.04 24.89 12.54 3.556 3.31 6.217 7.94 6.055 12.92.107 8.77-4.82 16.67-10.68 22.83-8.14 8.41-18.18 14.69-28.465 20.14-19.52 10.19-40.44 17.47-61.62 23.38 34.88 1.62 69.937.06 104.48-5.17 48.094-7.27 95.26-21.59 138.63-43.7 20.413-10.485 40.045-22.62 57.926-37.034 9.428-7.714 18.547-15.95 26.016-25.62 2.73-3.84 5.875-7.87 6.34-12.714-.41-5.938-4.075-10.985-7.694-15.466-8.42-9.92-19.08-17.675-30.182-24.34-32.62-19.134-70.572-28.21-108.235-28.795-22.1-.23-44.137 2.315-65.855 6.24zm214.85 74.998c-11.246 13.267-23.938 25.27-37.57 36.067-35.524 28.02-76.792 48.21-119.765 62.04-49.613 15.847-101.962 23.134-154.016 21.554-5.647 1.365-11.27 2.888-16.866 4.47 40.667 3.436 81.85 1.492 121.9-6.478 47.392-9.38 93.23-26.68 134.824-51.24 18.89-11.26 37.06-23.91 53.242-38.84 5.862-5.53 11.62-11.3 16.124-18.01 1.897-2.79 3.48-6.21 2.128-9.58z"/><path d="M293.928 192.21c3.397-.544 6.818-.15 10.233-.185 25.35.776 50.75 6.483 73.31 18.227 9 4.677 17.44 10.36 25.27 16.792-16.92 14.783-36.18 26.69-56.25 36.692-24.37 11.97-50.03 21.248-76.29 28.113 18.563-9.26 37.076-18.66 55.113-28.92 11.805-6.86 23.73-13.69 34.35-22.31-27.074.83-54.145 1.82-81.22 2.59 27.88-7.31 55.82-14.42 83.715-21.69-13.915-10.22-30.057-16.87-46.215-22.66-7.268-2.42-14.51-5.01-22-6.66z"/></g><path d="M267.785 161.752c19.765-2.43 39.785-3.34 59.636-1.476 25.68 2.362 51.05 8.96 74.32 20.108 10.13 4.903 19.87 10.65 28.78 17.533 6.54 5.152 12.86 10.824 17.4 17.862 1.9 3.09 3.82 6.87 2.53 10.56-1.658 4.35-4.575 8.07-7.526 11.62-6.66 7.8-14.384 14.61-22.34 21.05-16.64 13.26-34.773 24.56-53.622 34.4-42.96 22.36-89.76 37.01-137.53 44.72-27.43 4.426-55.226 6.493-82.996 6.516 16.467-5.884 32.77-12.53 47.72-21.664 7.975-4.906 15.657-10.5 21.89-17.53 5.7-6.368 10.13-14.396 10.32-23.107.254-5.53-2.174-10.878-5.867-14.895-4.987-5.43-11.62-9.003-18.36-11.8 10.15-5.24 19.984-11.286 28.46-18.99 7.39-6.784 14.09-15.26 15.683-25.422 1.09-6.03-.4-12.53-4.38-17.25-5.44-6.53-13.49-10.11-21.42-12.62-8.33-2.57-17.003-3.85-25.68-4.537 23.94-6.702 48.31-12.01 73-15.095zm2.516 28.287c17.71 4.23 35.26 9.22 52.34 15.54 10.33 3.93 20.63 8.21 29.88 14.29-36.79 9.59-73.65 18.97-110.43 28.61 34.88-1.17 69.76-2.373 104.64-3.374-12.43 8.722-25.94 15.772-39.27 22.996-22.82 12.16-46.04 23.55-69.24 34.96 17.47-3.057 34.71-7.364 51.66-12.597 23.33-7.23 46.118-16.34 67.68-27.837 18.43-9.89 36.023-21.556 51.47-35.697-21.27-19.12-48.296-31.25-76.374-36.17-20.55-3.593-41.722-4.08-62.334-.745z" fill="#91764C"/><path d="M457.804 236.496c1.35 3.37-.232 6.79-2.13 9.574-4.504 6.715-10.26 12.48-16.123 18.007-16.18 14.92-34.35 27.575-53.24 38.833-41.59 24.56-87.43 41.86-134.82 51.238-40.05 7.97-81.23 9.916-121.9 6.477 5.6-1.58 11.22-3.103 16.87-4.47 52.06 1.58 104.4-5.706 154.02-21.554 42.98-13.82 84.25-34.01 119.77-62.03 13.634-10.79 26.325-22.8 37.57-36.06z" fill="#EF5223"/></g></svg>