<svg width="512" height="512" viewBox="0 0 512 512" xmlns="http://www.w3.org/2000/svg"><title>arizona-coyotes</title><g fill="none" fill-rule="evenodd"><path d="M428.472 247.384l-9.107-4.065c.23-1.76.375-3.94.25-6.42-.41-8.29-3.677-16.09-9.436-22.55l-9.38-10.517.41 13.852c-.02.296-.19 2.04-1.23 4.705-.85 2.18-2.44 5.35-5.37 9.03l-2.05-1.04-5.09-13.193 21.08-44.168 1.61 7.693 6.743-10.96c.176-.283 1.736-2.884 3.05-7.286 1.573-5.264 2.162-11.03 1.723-16.77l4.6-9.37.61-1.243-.1-1.378c-.026-.366-2.566-36.22-2.865-42.255-.15-2.953-2.825-7.555-6.505-11.19-3.54-3.496-9.574-7.663-18.21-7.663-3.206 0-6.28.524-9.137 1.558-2.13.77-3.71 1.685-4.41 2.236-.686.534-8.917 6.904-20.31 15.72-33.333 25.79-66.083 51.135-73.578 56.993l-.57-.004c-3.123 0-9.623.194-18.04 1.5-9.804 1.52-19.355 4.076-28.39 7.6-11.786 4.6-22.56 10.804-32.02 18.452-11.18 9.04-20.614 20.175-28.05 33.103L81.38 292.75l-3.96 3.18 3.14 3.99c.37.47.87 1.15 1.45 1.943 3.183 4.36 9.11 12.473 18.49 19.483 11.595 8.66 24.96 13.05 39.723 13.05 4.054 0 8.267-.335 12.52-1l.076-.014.07-.013 19.97-3.75c.7 2.75 1.74 6.57 3.14 11.18 4.187 13.71 11.99 33.96 25.39 52.55 7.434 10.3 15.87 19.1 25.07 26.12 10.77 8.22 22.766 14.16 35.66 17.66l11.93 3.24-6.13-10.727c-.07-.126-7.29-12.908-12.23-30.138-3.367-11.754-6.175-27.49-3.54-42.62 1.847 4.515 4.18 9.67 7.01 14.885 4.82 8.89 10.09 16.135 15.665 21.52 7.38 7.13 15.346 11.08 23.682 11.735l12.68 1-8.407-9.48c-.23-.276-6.23-7.47-9.745-19.88-4.005-14.14-3.38-29.122 1.857-44.65 1.52 1.935 3.332 4.04 5.435 6.144 4.29 4.292 8.92 7.733 13.752 10.22 6.18 3.18 12.69 4.8 19.36 4.812l10.62.022-6.588-8.33c-1.75-2.21-3.224-5.13-4.89-8.828-5.73-12.686-7.23-27.465-4.2-40.306l54.95 2.1 1.14.044 1.05-.44 26.48-11.127 1.64-.69.86-1.56 16.34-29.553 2.7-4.883-5.096-2.274z" fill="#FFF"/><path d="M84.604 296.746c5.227 6.634 24.112 38.358 67.355 31.59l24.76-4.65s1.3 6.094 4.2 15.624c8.09 26.508 30.11 78.653 82.55 92.885 0 0-29.833-52.238-11.63-91.587 0 0 15.873 56.852 47.076 59.314 0 0-26.684-30.563-5.233-78.87 0 0 14.164 26.974 39.77 27.024-2.13-2.693-3.816-6.07-5.544-9.897-5.725-12.68-8.788-30.6-3.386-47.69l59.017 2.25 26.486-11.13 16.333-29.56-12.868-5.748s4.994-14.905-7.17-28.546c0 0-.05 8.874-10.47 20.05l-7.39-3.74-6.585-17.094 27.577-57.774s2.44 4.82 3.08 7.87c0 0 5.373-8.728 3.9-22.334l5.237-10.666s-2.564-36.2-2.87-42.353c-.11-2.154-6.657-13.98-19.59-13.98-6.21 0-10.046 2.438-10.384 2.7-2.36 1.85-92.51 71.557-95.324 73.847-6.287-.308-71.154-.718-104.82 58.87L84.6 296.747z" fill="#000"/><path d="M139.712 314.524c5.543-1.23-5.747-5.128-7.782-15.657 3.06 2.394 14.9 6.837 17.568 4.648 2-2-4.31-8.718-1.848-23.794 2.556-15.64 11.392-18.15 6.98-20.71-4.927-.82-50.703 36.92-50.703 36.92l7.184 11.9s24.09 8.96 28.61 6.7z" fill="#EFE1C6"/><path d="M392.056 280.49l14.65-6.136-4.26-9.913-10.39 16.05z" fill="#8E0028"/><path d="M282.516 328.815c-.34 2.256 2.67 3.487 3.763.888 1.09-2.6 7.11-19.827 9.44-20.032.89-.07 1.98 4.92 5.06 9.99 4.99 8.19 14.44 18.05 19.71 18.05 2.33 0 2.72-.31 2.72-.31l-5.73-8.46-16.7-46.33-10.27 15.385-8.01 30.836z" fill="#8E0028"/><path d="M260.21 296.746s22.7 84.654 21.23 82.928c-23.998-28.207-25.062-59.476-25.062-59.476s-15.492 18.37-15.938 48.954l-5.514-.41 11.463-46.356 13.82-25.64z" fill="#8E0028"/><path d="M408.298 247.774s3.49-12.102-.41-20.768c-2.155 7.487-6.568 12.307-10.29 15.64l-13.266-6.435 26.89 17.4-16.217 3.83-14.848-5.33s2.91-15.72-.907-21.17c-.21 1.21-1.12 2.99-1.615 4.18-2.872 6.93-9.084 12.59-9.084 12.59l-14.32-5.17-11.77-30.84 43.04-69.47s4.76 4.79 7.12 10.6c2.88-8.95-1.3-20.17-1.3-20.17l5.14-8.27 12.487-9.06 2.29 11.39-20.526 56.887 16.285-35.076s.793.72 1.914 2.327c1.17 1.68 2.682 4.297 3.49 6.43 1.912-4.854-.757-17.91-.757-17.91l4.72-8.686-5.747-21.2-21.81 15.05-64.303 73.308s-14.576 5.64-24.685 13.28c-2.16 1.634-4.016 3.46-5.594 5.23 0 0 16.97 3.215 18.477 14.564 0 0-5.49 3.216-13.62 9.336-29.59 22.282-95.36 81.103-69.45 145.6 4.717 11.744 12.544 23.495 24.12 35.45 0 0-32.673-55.28 6.6-118.03.017 1.46-.12 59.1 25.765 81.55-18.51-43.69 13.664-95.74 13.664-95.74-5.865 26.854 23.437 48.315 23.437 48.315-13.73-28.95-2-55.716-2-55.716l62.31 2.48 8.538-3.66 10.72-10.55 3.934 4.41 12.06-21.76-10.47-4.82zm-75.01-36.836l19.568-24.066-14.043 23.93 11.58 31.59-17.106-31.454z" fill="#EFE1C6"/><path d="M414.045 95.525c-1.9 2.358-4.74 12.204-4.74 12.204s-.288-8.16-4.136-13.29c-3.62-4.82-8.11-.62-11.24-5.08-1.44-2.04-1.39-5.03-1.39-5.03l-8.73 6.562s-2.36 9.435-1.85 21.024c0 0-5.24-4.104-8.22-12.205 0 0-2.05 4.72-2.155 22.157 0 0-5.646-5.128-8.93-13.436 0 0-2.567 10.87-2.258 24.1 0 0-4.93-3.69-9.96-14.763 0 0-2.465 12.92-2.26 26.564 0 0-8.006-7.28-11.085-17.13 0 0-38.338 29.333-41.007 31.385-2.665 2.05-19.243 20.1-23.45 39.54 0 0-.464-9.59.89-18.72 0 0-16.328 11.603-25.498 21.59 0 0-.23-12.29 6.592-22.567 0 0-2.426 1.56-5.468 3.95-1.916 1.505-3.774 3.183-6.39 5.51-6.57 5.844-14.642 13.453-19.654 18.59 0 0 13.7-25.847 34.57-40.58 0 0-53.61 11.93-72.39 70.884-.514-.565.924-13.59.924-13.59l-91.75 72.79c20.94 28.854 55.423 24.888 59.255 24.204 11.403-2.03 46.922-7.603 46.922-7.603s-5.8-14.668-4.57-24.358c0 0 3.9 18.92 17.31 30.664l-29.29 4.036s1.553 5.97 4.17 14.784c6.61 22.26 23.52 64.155 65.448 83.574 0 0-3.54-3.67-8.64-9.754-14.423-17.205-39.08-56.49-13.903-108.02-20.116 4.787-23.13-8.89-23.13-8.89 26.826 18.735 85.43-59.52 71.11-78.08 0 0 24.48-19.845 41.83-22.306l67.79-69.716 20.51-11.42 7.05 17.57-2.307-35.15zM150.933 313.158c-2.428.474-6.142.69-7.526.683-8.668-.04-28.688-3-36.196-16.13l71.58-57.36c-48.85 48.14 4.45 63.8 11.23 66.05 0 0-31.17 5.23-39.07 6.77z" fill="#8E0028"/><path d="M369.758 213.878l9.03-13.23-4.925 13.333 4.823 12.41-8.928-12.51z" fill="#8E0028"/><path d="M261.192 173.214s6.92-1.693 16.635-1.23c.658-1.95-2.472-2.36-4.936-2.36 3.93-2.82 10.14-4.77 10.14-4.77l3.39-4c-10.16.822-25.22 12.36-25.22 12.36z" fill="#EFE1C6"/></g></svg>