<svg width="512" height="512" viewBox="0 0 512 512" xmlns="http://www.w3.org/2000/svg"><title>calgary-flames</title><g fill="none" fill-rule="evenodd"><path d="M88.33 111.325h337.985v288.64H88.33z"/><path d="M158.406 289.288c-6.468-1.876-9.395-6.505-9.395-6.505 3.515-.985 5.216-6.037 7.754-6.62 4.07-.947 2.42 3.048 13.254 8.436 3.972 1.85 4.512 2.017 7.586 2.61-7.483 3.718-12.02 4.163-19.198 2.078zm264.166-57.67c16.967-60.7-22.938-120.293-96.043-120.293-44.058 0-75.544 29.883-94.336 29.883-7.723 0-16.65-15.32-16.65-15.32-13.03 7.508-10.224 21.13-10.224 21.13-10.213-6.01-26.967-5.903-26.967-5.903-14.636.096-27.663 9.51-27.663 9.51-8.62 6.304-11.726 14.11-11.726 14.11-9.727 2.81-20.263 12.718-20.263 12.718-2.597 2.604-3.606 3.403-3.606 3.403-6.51 4.905-15.125 5.208-15.125 5.208.692 6.904 4.505 13.815 4.505 13.815 6.513 9.807 18.442 11.71 18.442 11.71s-6.07 6.385-16.338 9.515c-7.597 2.315-18.25 4.004-18.25 4.004.303 2.504 1.41 4.406 1.41 4.406 10.73 17.524 35.39 16.523 35.39 16.523 4.204.49 11.32-.703 11.32-.703-3.004 4.204-6.513 16.922-6.513 16.922-1.502 6.305-4.71 8.713-4.71 8.713-3.313 2.7-12.234 8.005-12.234 8.005 3.91 5.102 14.143 7.41 14.143 7.41.193 8.308 3.257 20.03 3.257 20.03-13.89-2.915-21.11 1.49-21.11 1.49 4.01 3.507 7.02 8.21 7.02 8.21 4.81 5.803 5.818 17.227 5.818 17.227 1.003 13.61 5.21 23.22 8.513 28.227 3.313 5.01 9.933 9.91 9.933 9.91 4.506 3.81 12.928 5.71 12.928 5.71 5.817 1.604 11.365.404 11.365.404-3.747 3.1-14.17 7.1-14.17 7.1 2.914 6.313 11.425 9.915 11.425 9.915 6.917 3.912 18.65 4.41 18.65 4.41 12.926-.106 23.56-10.52 23.56-10.52 11.395-10.322 18.448-13.728 29.74-12.86 16.55 1.274 28.123 15.066 59.866 15.066 64.038 0 115.755-61.232 123.78-114.535h-85.58s-8.948 31.29-30.823 31.29c-16.674 0-27.763-13.48-27.763-35.36 0-28.62 23.886-78.61 58.326-78.61 16.11 0 16.005 19.5 9.69 38.16l81.012-.032z" fill="#000"/><path d="M158.046 292.823c-6.327-1.29-9.494-5.145-13.474-10.177l-.496-.854c4.682-1.517 7.406-6.865 11.5-9.44 6.45-1.995 8.444 7.125 20.732 11 3.51 1.752 5.6 2.048 9.228 3.807-8.482 5.337-16.374 8.816-27.49 5.663zM419.772 228.1c14.835-63.624-28.826-113.465-93.093-113.465-41 0-73.85 29.397-93.694 30.278-8.282.366-18.245-13.613-18.245-13.613-11.218 8.405-3.01 23.827-3.01 23.827-16.627-12.216-35.302-10.31-35.302-10.31-27.853 2.7-34.666 22.725-34.666 22.725-16.244 6.01-21.852 14.617-21.852 14.617-10.03 7.203-15.838 6.508-15.838 6.508 3.813 20.923 25.66 19.925 25.66 19.925-8.62 16.62-36.686 19.22-36.686 19.22 10.02 16.017 33.877 14.62 33.877 14.62 8.16.875 19.258-3.535 24.732-6.013-3.666 1.913-5.37 3.426-5.37 3.426-10.527 7.397-10.294 20.886-15.722 30.49-2.088 4.325-8.152 6.387-11.503 9.03 3.62 1.814 7.766 3.337 11.67 4.03-.097 6.703 3.153 22.94 5.317 29.426-7.82-5.81-19.947-3.19-19.947-3.19 13.437 16.7 7.123 27.013 13.863 42.56 2.27 7.684 9.298 14.29 16.358 18.975 18.296 8.23 30.934-2.588 30.934-2.588-2.1 10.117-21.15 17.723-21.15 17.723 4.466 4.876 15.412 8.557 21.956 8.986 25.848 1.695 27.183-26.4 55.846-23.468 16.62 1.696 31.855 15.638 59.578 15.638 69.39 0 114.456-70.145 119.914-107.883H334.75s-9.643 31.492-33.02 31.492c-24.207 0-31.863-20.728-31.863-39.42 0-28.412 23.62-82.097 62.18-82.097 18.165 0 20.966 19.908 14.54 38.543h73.185v.003z" fill="#FFC758"/><path d="M182.47 188.162c-4.324-.698-9.345-2.787-14.357-1.53-8.922 1.25-14.643 10.025-23.274 11.694-9.632 3.62-23.84 4.174-31.37-4.456 0-.416-.687-.696-.557-1.11 12.265-1.398 18.675-15.177 30.667-17.402 14.356-5.288 28.992 1.11 38.186 11.83 0 .416.56.555.703.974" fill="#E03A3E"/><path d="M155.705 344.204c14.772 8.495 25.78-7.935 40.833-2.364v.555c-11.698 4.32-16.856 17.12-27.59 22.69-5.577 2.643-13.38 2.643-18.818-.287-13.1-7.09-17-22.82-17.703-37.3-.55-3.482-2.084-6.54-3.206-9.88 13.248 4.313 13.388 22.276 26.485 26.586" fill="#E03A3E"/><path d="M413.055 220.16c10.296-45.88-23.584-97.613-86.263-97.916-38.263-.183-69.762 30.378-94.658 30.378-6.32 0-11.65-3.85-15.375-8.59 1.114 13.646 13.795 25.057 25.92 29.653-6.13.412-11.432-1.952-16.867-3.206-16.304-4.454-27.886-20.043-46.554-18.51-13.102-.418-24.674 7.517-31.085 18.373 3.21-2.927 6.974-4.733 11.016-5.568 9.612-1.673 17.977 2.64 24.248 9.183 7.81 12.392 16.454 24.362 29.27 33.002-9.2 0-17.275-3.49-25.36-6.272-16.59-4.736-36.25-2.65-48.796 9.186-6.408 10.443-17.144 18.934-28.982 21.438v.422l3.48 1.527c13.666 5.854 28.712.137 40.14-6.96 7.946-2.508 17.427-1.114 23.005 5.155 3.896 6.678 11.152 13.366 17.56 18.23-1.68.697-3.35-.7-5.3-.7-11.008-5.417-27.6-12.804-38.748-2.637-10.446 7.935-5.155 23.248-16.307 30.757 7.806.7 12.268-5.008 16.727-10.576 11.152-8.216 18.26 6.54 27.177 10.023 9.487 4.593 22.025 3.063 28.855 12.805-7.254 1.39-14.64 2.647-20.907 6.405-9.62 5.987-23.697 6.965-34.154 1.95-5.432-2.927-9.195-6.965-12.812-11.974 0 .14 0 .415-.15.558.703 20.604 8.36 43.013 29.692 50.25 14.496 6.68 30.097-4.177 44.323 2.784-7.53 1.673-14.496 5.71-18.96 12.246-7.38 9.61-7.244 22.835-16.442 31.046-1.67 1.534-4.178 2.365-5.847 3.62 1.81.834 3.62 1.256 5.708 1.532 10.18 1.666 18.823-4.876 24.53-12.532 8.233-7.932 20.717-12.777 30.668-12.11 20.09 1.35 35.062 15.915 61.59 16.012 52.812.212 99.433-50.054 109.34-91.262h-62.313s-11.332 31.526-38.77 31.526c-34.252 0-40.23-31.938-40.23-47.796 0-37.246 29.24-90.476 70.555-90.476 19.598 0 31.14 19.992 24.75 39.022h56.325" fill="#E03A3E"/></g></svg>