<svg width="512" height="512" viewBox="0 0 512 512" xmlns="http://www.w3.org/2000/svg"><title>carolina-hurricanes</title><g fill="none" fill-rule="evenodd"><path d="M165.325 369.887c-16.562 0-31.33-1.147-43.898-3.417l-6.12-1.102 5.21-3.394 11.58-7.548c-6.745-.775-17.185-2.68-27.725-7.35-16.28-7.215-35.686-22.598-35.686-54.9 0-23.153 9.762-44.938 29.02-64.752 16.984-17.475 40.962-33.084 71.267-46.396 52.946-23.255 122.543-37.7 181.628-37.7 17.16 0 32.485 1.24 45.554 3.69l6.09 1.142-5.203 3.36-11.55 7.455c6.668.88 17.035 2.95 27.502 7.777 16.09 7.42 35.27 22.97 35.27 54.884-.075 23.332-9.993 45.202-29.48 65.01-17.144 17.42-41.327 32.95-71.88 46.147-52.964 22.88-122.543 37.094-181.577 37.094z" id="Shape" fill="#FFF"/><path d="M350.6 145.796c16.752 0 32.076 1.208 45.1 3.65l-17.578 11.345s67.672 1.59 67.672 60.843c-.308 95.994-172.527 145.786-280.47 145.786-16.2 0-30.955-1.124-43.46-3.378l17.727-11.55s-68.435-.35-68.435-60.313c-.002-95.196 170.352-146.384 279.446-146.384zm0-4.937c-59.407 0-129.382 14.525-182.62 37.908-30.598 13.442-54.837 29.234-72.046 46.937-19.72 20.288-29.72 42.652-29.72 66.472 0 26.617 12.848 46.382 37.156 57.156 7.82 3.467 15.592 5.45 21.92 6.583l-6.123 3.988-10.42 6.79 12.24 2.21c12.715 2.293 27.632 3.453 44.336 3.453 59.353 0 129.303-14.293 182.558-37.3 30.847-13.326 55.293-29.032 72.66-46.682 19.957-20.282 30.115-42.733 30.192-66.725 0-26.312-12.694-46.065-36.708-57.14-7.788-3.595-15.536-5.7-21.823-6.93l6.18-3.984 10.41-6.72-12.182-2.28c-13.217-2.482-28.696-3.737-46.007-3.737z" id="Shape" fill="#8E8E91"/><g fill="#231F20"><path d="M371.005 154.62s-8.702-1.41-25.397-1.41c-88.34 0-264.93 46.058-264.93 137.205 0 49.73 49.035 55.727 75.847 55.727 46.33 0 101.598-17.457 123.82-29.98 0 0-82.9 32.92-152.984 9.168 13.773 2.21 45.39-2.116 57.87-7.405 0 0-34.88-5.76-34.88-41.62 0-89.51 198.437-121.685 220.655-121.685z" id="Shape"/><path d="M175.75 279.303c9.23-16.754 9.466-27.334 20.05-39.797 18.363-20.86 76.43-36.653 108.004-36.653 31.872 0 43.04 20.57 43.215 33.537 0 36.8-76.747 66.778-76.612 66.778 74.023-49.79 71.438-78.27 28.767-78.27-35.278 0-100.673 23.19-123.426 54.405z" id="Shape"/></g><g fill="#E13A3E"><path d="M146.057 358.84s8.7 1.412 25.398 1.412c88.34 0 264.93-46.062 264.93-137.204 0-49.733-49.033-55.73-75.847-55.73-46.33 0-101.596 17.462-123.82 29.98 0 0 82.9-32.92 152.984-9.17-13.774-2.204-45.39 2.116-57.868 7.408 0 0 34.878 5.76 34.878 41.62.002 89.51-198.436 121.683-220.655 121.683z" id="Shape"/></g><g><path d="M329.792 237.92c-5.288-14.712-46.483-12.853-84.988.47-41.383 14.868-70.666 38.47-65.377 53.18 5.288 14.714 46.476 13.543 84.503-.282 41.38-14.868 71.147-38.657 65.862-53.37z" fill="#E13A3E"/><path d="M255.898 275.454c17.158-5.8 29.537-15.15 27.65-20.884-1.886-5.734-17.324-5.68-34.482.122-17.157 5.8-29.537 15.15-27.65 20.884 1.886 5.734 17.325 5.68 34.482-.122z" fill="#231F20"/></g></g></svg>