<svg width="512" height="512" viewBox="0 0 512 512" xmlns="http://www.w3.org/2000/svg"><title>edmonton-oilers</title><g fill="none" fill-rule="evenodd"><path d="M256.47 75.32c-99.886 0-181.144 81.264-181.144 181.146 0 99.89 81.258 181.15 181.144 181.15 99.883 0 181.145-81.258 181.145-181.15 0-99.882-81.263-181.145-181.145-181.145zm29.212 71.764c0 13.986-11.553 27.598-29.212 27.598-17.663 0-29.21-13.612-29.21-27.598 0-20.466 17.748-31.397 29.21-59.967 11.463 28.57 29.212 39.5 29.212 59.967zM256.47 429.238c-95.415 0-172.762-77.347-172.762-172.773 0-92.02 71.96-167.243 162.682-172.46l-20.016 31.58c-8.544 13.49-9.99 24.75-9.99 30.928 0 23.77 21.072 39.444 40.086 39.444 19.02 0 40.088-15.675 40.088-39.444 0-6.177-1.447-17.437-9.99-30.927l-20.01-31.58c90.72 5.216 162.68 80.438 162.68 172.46 0 95.425-77.352 172.772-172.768 172.772z" fill="#FFF"/><path d="M296.907 104.7c6.636 9.237 15.246 22.555 15.246 41.2 0 29.015-24.533 56.118-55.683 56.118s-55.682-27.103-55.682-56.118c0-18.645 8.615-31.963 15.25-41.2-67.133 17.836-116.604 79.027-116.604 151.766 0 86.73 70.31 157.04 157.036 157.04 86.73 0 157.036-70.31 157.036-157.04 0-72.74-49.47-133.93-116.6-151.766zm-139.95 257.57c-17.354-19.97-28.473-43.982-30.612-73.942v-58.49c0-8.503 3.288-19.773 15.54-19.773h11.86c5.93 0 15.62 1.78 15.62 14.826v130.47c0 10.68-6.702 13.49-12.407 6.92zm30.8 27.457c-9.574-5.473-18.078-12.307-25.645-20.567 0 0 2.833 1.002 6.01-.87 3.368-1.988 4.532-6.61 4.532-9.18v-59.63c3.267 0 5.802-3.627 5.802-6.81v-52.166c0-4.78-2.833-6.915-5.73-6.915v-23.33h24.506v23.32c-2.71 0-5.736 2.77-5.736 6.91v52.05c0 3.713 2.15 6.925 4.75 6.925v83.74c0 5.54-4.34 8.876-8.488 6.51zm41.874 15.94c-13.65-2.136-24.58-6.72-36.25-12.976 0 0 5.83-1.06 5.83-7.09v-86.11c3.3 0 6.72-3.12 6.72-6.92v-52.05c0-4.57-2.83-6.912-5.53-6.912v-23.33h26.49V233.6c-2.86 0-7.71 2.34-7.71 6.914 0 2.175-.03 49.354 0 51.33.08 4.624.24 7.705 5.11 7.705 4.748 0 5.37-2.2 5.37-7.31V275.3h11.27v120.77c0 6.53-4.957 10.582-11.285 9.596zm45.31 1.188c-6.65 1.083-12.42 1.345-18.79 1.345-5.583 0-13.64-.33-19.01-.965 0 0 6.71-1.62 6.71-10.618v-97.134c2.818 0 4.346-2.96 4.346-6.926 0 0 .14-48.494 0-52.05 0-4.112-2.746-6.914-9.484-6.914V210.42h48.824v37.948h-12.41v-7.658c0-3.36-.59-7.314-4.94-7.314-5.34 0-6.18 3.505-6.18 8.052 0 .673 0 5.954-.005 11.913h12.31v17.01h-12.32c0 8.89 0 20.41.01 21.22.08 4.974.23 8.257 5.115 8.257 4.74 0 5.36-2.307 5.367-8.256.005-7.514 0-16.13 0-16.13h12.848v118.01c0 7.31-5.394 12.26-12.385 13.4zm68.18-43.79c-.19 9.884-.9 12.747-3.08 14.724-6.51 5.91-11.26 8.96-19.52 13.72.42-.34 1.617-2.16 1.45-11.66V274.9c0-4.537-1.91-7.7-5.3-7.7-4.15 0-5.268 3.557-5.268 6.915v18.443c0 4.148 4.01 7.087 7.3 7.087l.006 82.588c0 6.138-1.606 11.505-5.75 13.28-7.83 3.36-18.54 7.31-27.01 9.277 0 0 4.585-2.98 4.49-16.024-.02-2.766 0-86.118 0-89.28 3.13 0 6.322-2.958 6.322-6.924v-51.85c0-4.09-3.525-7.12-5.73-7.12V210.27h34.79c7.112.784 12.155 3.35 12.155 13.637v21.745c0 2.57.79 9.287-2.57 12.054-3.36 2.772-2.77 2.57-2.77 2.57s4.945 2.372 4.945 8.108v24.113c0 3.86 2.21 6.986 5.54 6.986v63.587zm17.39-123.742v12.06c0 1.977 1.23 3.18 2.97 4.54 2.76 2.18 17 13.643 17 13.643 1.58 1.78 5.14 3.562 5.14 10.28 0 5.538.89 23.48-6.92 42.105-7.71 18.39-16.6 32.81-32.61 50.6v-96.46h13.05v18.58c.197 6.93 11.06 6.13 11.06 1v-13.05c0-2.18 0-2.77-1.18-3.76-1.192-.985-18.39-14.815-19.77-15.81-1.382-.983-2.18-2.57-2.18-6.522v-36.37c.206-4.745 2.68-9.884 10.186-9.884h18.38c7.124.78 10.98 3.15 10.98 12.05v26.49h-15.23v-9.3c-.003-7.703-10.873-7.91-10.873-.19z" fill="#FFF"/><path d="M141.297 239.783v53.896c0 8.71 12.252 8.31 12.252-.4v-53.89c-.55-8.31-12.26-7.92-12.26.39z" fill="#FFF"/><path d="M312.082 239.358v9.773c0 6.96 9.798 6.65 9.798-.31 0-6.33.27-5.66 0-9.76-.476-7.28-9.798-6.96-9.798.31z" fill="#FFF"/><path d="M256.47 87.117c-11.462 28.57-29.21 39.5-29.21 59.967 0 13.986 11.547 27.598 29.21 27.598 17.66 0 29.212-13.612 29.212-27.598 0-20.466-17.75-31.397-29.212-59.967z" fill="#E56B1F"/><path d="M256.47 70C153.655 70 70 153.645 70 256.465c0 102.82 83.655 186.476 186.47 186.476 102.82 0 186.47-83.65 186.47-186.47S359.293 70 256.47 70zm0 367.615c-99.886 0-181.144-81.258-181.144-181.15 0-99.882 81.258-181.144 181.144-181.144 99.883 0 181.145 81.27 181.145 181.15 0 99.89-81.263 181.15-181.145 181.15z" fill="#FFF"/><path d="M266.557 84.006l20.01 31.58c8.544 13.49 9.99 24.75 9.99 30.927 0 23.77-21.068 39.444-40.087 39.444-19.014 0-40.087-15.675-40.087-39.444 0-6.177 1.447-17.437 9.99-30.927l20.016-31.58C155.66 89.222 83.7 164.444 83.7 256.466c0 95.425 77.347 172.772 172.762 172.772S429.23 351.89 429.23 256.465c0-92.02-71.96-167.243-162.68-172.46zm-10.087 329.5c-86.725 0-157.035-70.31-157.035-157.04 0-72.74 49.47-133.93 116.604-151.766-6.64 9.237-15.25 22.555-15.25 41.2 0 29.015 24.53 56.118 55.68 56.118s55.68-27.103 55.68-56.118c0-18.645-8.61-31.963-15.25-41.2 67.13 17.836 116.6 79.027 116.6 151.766 0 86.73-70.31 157.04-157.04 157.04z" fill="#003876"/><path d="M196.246 383.222v-83.74c-2.6 0-4.75-3.212-4.75-6.925v-52.05c0-4.143 3.025-6.915 5.736-6.915v-23.324h-24.507v23.324c2.898 0 5.73 2.135 5.73 6.915v52.166c0 3.182-2.533 6.81-5.8 6.81v59.627c0 2.57-1.165 7.193-4.533 9.18-3.177 1.873-6.01.87-6.01.87 7.567 8.26 16.07 15.095 25.646 20.568 4.148 2.367 8.488-.967 8.488-6.506z" fill="#003876"/><path d="M240.916 396.07V275.298H229.65v16.935c0 5.11-.626 7.31-5.37 7.31-4.872 0-5.03-3.08-5.105-7.705-.035-1.977 0-49.157 0-51.332 0-4.572 4.846-6.914 7.71-6.914v-23.324h-26.49v23.324c2.705 0 5.533 2.342 5.533 6.914v52.05c0 3.8-3.425 6.926-6.718 6.926V385.6c0 6.03-5.832 7.09-5.832 7.09 11.665 6.258 22.6 10.84 36.253 12.975 6.33.987 11.29-3.064 11.29-9.595z" fill="#003876"/><path d="M287.32 275.444h-12.847s.005 8.62 0 16.13c-.005 5.95-.627 8.257-5.366 8.257-4.886 0-5.033-3.28-5.114-8.25-.01-.81-.01-12.32-.01-21.21H276.3v-17h-12.313c.005-5.96.005-11.24.005-11.91 0-4.543.84-8.05 6.18-8.05 4.35 0 4.938 3.958 4.938 7.317v7.657h12.41v-37.95h-48.825v23.17c6.738 0 9.485 2.803 9.485 6.916.14 3.555 0 52.05 0 52.05 0 3.965-1.528 6.924-4.345 6.924v97.14c0 9-6.708 10.617-6.708 10.617 5.372.64 13.425.968 19.01.968 6.378 0 12.14-.265 18.796-1.347 6.99-1.14 12.388-6.085 12.388-13.4V275.45z" fill="#003876"/><path d="M386.6 248.812v-26.49c0-8.898-3.853-11.27-10.976-12.054h-18.38c-7.508 0-9.982 5.14-10.184 9.884v36.37c0 3.955.794 5.538 2.18 6.524 1.38.99 18.575 14.82 19.768 15.808 1.18.99 1.18 1.583 1.18 3.763v13.045c0 5.134-10.866 5.93-11.064-.996V276.09H346.08v96.46c16.01-17.797 24.9-32.213 32.61-50.6 7.81-18.624 6.92-36.566 6.92-42.105 0-6.718-3.56-8.498-5.14-10.28 0 0-14.234-11.46-16.996-13.64-1.74-1.362-2.97-2.566-2.97-4.544v-12.05c0-7.72 10.87-7.51 10.87.2v9.297H386.6z" fill="#003876"/><path d="M169.366 355.356V224.89c0-13.044-9.692-14.824-15.62-14.824h-11.862c-12.25 0-15.54 11.27-15.54 19.773v58.48c2.14 29.96 13.26 53.97 30.614 73.94 5.705 6.57 12.408 3.76 12.408-6.92zm-15.817-62.07c0 8.71-12.26 9.11-12.26.394v-53.897c0-8.306 11.71-8.7 12.25-.394v53.89z" fill="#003876"/><path d="M337.576 292.496v-24.113c0-5.736-4.942-8.11-4.942-8.11s-.592.204 2.767-2.568c3.37-2.767 2.57-9.485 2.57-12.054v-21.74c0-10.28-5.04-12.85-12.15-13.63h-34.79v23.32c2.21 0 5.73 3.03 5.73 7.12v51.85c0 3.964-3.19 6.924-6.32 6.924 0 3.16-.02 86.51 0 89.28.1 13.04-4.49 16.02-4.49 16.02 8.47-1.967 19.18-5.917 27.01-9.276 4.15-1.78 5.75-7.146 5.75-13.28v-82.59c-3.293 0-7.304-2.937-7.304-7.085v-18.44c0-3.36 1.117-6.917 5.265-6.917 3.395 0 5.306 3.16 5.306 7.7v104.96c.163 9.498-1.03 11.32-1.45 11.658 8.26-4.765 13.01-7.81 19.52-13.73 2.18-1.976 2.888-4.84 3.085-14.723v-63.59c-3.33 0-5.54-3.125-5.54-6.985zm-15.696-43.684c0 6.96-9.798 7.28-9.798.32v-9.774c0-7.274 9.322-7.587 9.798-.31.268 4.104 0 3.436 0 9.764z" fill="#003876"/></g></svg>