<svg width="512" height="512" viewBox="0 0 512 512" xmlns="http://www.w3.org/2000/svg" xmlns:xlink="http://www.w3.org/1999/xlink"><title>florida-panthers</title><defs><path id="a" d="M0 348.657h367.802V0H0v348.657z"/></defs><g transform="matrix(1 0 0 -1 73.226 430.178)" fill="none" fill-rule="evenodd"><mask id="b" fill="#fff"><use xlink:href="#a"/></mask><g mask="url(#b)"><path d="M92.404 329.835l26.777-.973s15.38 2.634 19.27 2.835c6.68 3.472 20.56 9.06 32.85 10.048l6.68 6.308 6.39-6.266c3.236.025 22.585-4.152 32.813-10.24 3.58-.05 19.3-2.568 19.3-2.568l26.81.75c-1.442-4.7-11.37-26.98-17.505-37.34l2.565-2.12c-.32-3.29-3.627-21.49.89-25.94l-8.16 1.55c1.68-6.82 3.26-8.397 4.883-10.796l-3.874-4.647c4.944-2.45 9.824-7.48 10.98-14.223 6.49 1.51 11.654-1.91 15.443-7.6 0 0 4.15 13.388 4.88 14.596.73 1.21 16.298 3.07 18.26 2.317 1.49-.574 14.69-10.59 14.69-12.53 0-.47-.358-1.23-.63-2-.44-1.246-.88-2.506-.88-2.506 1.81.078 11.014-.173 13.026-1.18 1.004-.5 11.32-11.696 11.32-13.436 0-.58-2.436-5.597-2.515-5.737 0 0 9.758-1.813 12.07-3.423s6.99-13.133 6.99-14.945c0-1.23-3.57-5.788-3.602-6.56 1.21-.1 8.21-2.474 9.39-3.657.468-.468 2.38-7.458 3.05-10.84.16-.78.17-1.373.17-1.643 0-.66-13.72-24.295-13.983-24.56-1.378-1.376-6.74-2.315-9.29-2.046 0 0-5.06-8.59-21.447-11.74 4.344 3.99 10.766 14.743 10.01 15.5 0 0-10.64.803-17.906.752 0 0-5.77-1.46-9.894-1.46-4.125 0-8.72.806-13.68 2.82-.105 0-1.61-.27-3.12-.404-6.557-5.635-10.547-7.89-13.448-9.26-3.33-1.566-11.225-3.9-17.17-5.97-8.62-3-12.94-5.137-13.58-5.515l-.036 1.62-5.938-.1c-7.21-9.28-7.293-9.224-12.125-16.76-.576-.896-1.256-1.63-1.66-2.364-.158-.603.182-5.105-.134-11.004-.5-9.4-1.63-15.03-5.9-22.01-.36-.59-.59-2.09-1.24-4.16-.632-2.018-1.67-4.578-2.95-7.11-1.72-3.41-3.873-6.69-5.67-9.466-1.86-2.875-3.333-5.187-3.62-5.738-.972-4.56-1.31-10.065-1.31-10.065s6.995-7.85 14.238-7.85c4.946 0 16.096 2.665 16.096 18.317 0 4.217-.87 11.75-2.38 16.037-.52 1.465-1.25 2.644-2 3.894l1.41.1-2.316 6.846 1.28-.227-.074 4.956 1.884-.63.126 5.36 1.51-.6 1.005 4.83 2.01-3.02 1.61 2.115 1.61-4.125 1.21 1.004 1.13-4.2 1.237.703 1.154-4.352 1.205.808.77-6.31 1.14.97-.77-7.95 1.072.81c0-6.745-.52-16.61-1.946-21.104-1.85-5.83-4.562-11.12-8.413-14.93-6.85-6.773-15.4-8.99-19.333-8.99-8.95 0-15.025 5.72-15.025 5.72-.555-1.31-1.36-16.054-1.36-18.47 0-2.97-2.85-3.763-3.62-4.127l-.5-2.116s-.908.704-.908 1.81c-.2.253-1.51.303-1.51.303-.67-.627-1.504-1.14-2.58-1.14-.335-.505-.537-1.88-.537-1.88s-.955.68-.804 2.164c-.476-.05-1.683-.027-2.312 1.03-.387-.964-1.384-.704-2.038-.704-.28-.805-.53-2.265-.53-2.265s-.95.537-.92 2.827c-.54.237-1.898 1.226-2.33 2.2-.25.55-.826.483-1.38-.068-.174-.176-.82-.147-.82-1.83-.873.82-1.04 2.38-.89 3.667 0 0-1.433 1.46-1.433 3.623s.78 4.52 1.183 6c.1.62-1.914-1.24-1.914-1.24s-.15 3.6 3.923 5.534c.902 2.82 2.75 5.77 4.46 8.02.37 4.126 1.98 11.373 2.65 14.26-3.827 6.306-8.15 18.418-8.656 22.243-.5 3.826-.735-1.106-3.686-2.683 1.56-2.03 3.42-8.79 3.42-10.94.23-.437 2.95-3.32 2.344-6.543 0 0-1.04 1.81-1.577 1.81-.535 0 1.31-6.576 1.04-8.454-.267-1.88-2.212-2.047-2.615-2.718-.4-.67-.534-2.215-.534-2.215s-.673.57-.773 1.746c-.033.39-.664.5-.972.4-.51-.16-.476-.627-1.07-.906-.594-.28-1.676-.335-1.676-.335-.47-.338-.87-2.15-.87-2.15-1.61 1.443.032 2.383-1.98 2.383-.77 0-1.16-.88-1.476-1.008-.337-.136-1.51-.36-1.963-.136-.68-1.26-.63-1.99-.63-1.99-.955.856-.88 2.315-.88 2.315s-.67-.02-1.232.426c-.56.442-.904 1.105-.904 1.105s-.5-.34-.917-.376c-.417-.037-.95.093-.95.093-.1-.76-.537-1.698-.537-1.698-.774.786-.74 1.96-.74 1.96s-2.39 1.1-2.39 6.836c0 2.364 1.517 3.5 2.322 5.376.4.93.88 3.31 1.61 6.476 1.53 6.62 1.56 7.575 1.204 8.287 0 0-2.762 1.4-5.3 5.7-4.562 7.75-6.17 21.21-6.17 29.26 0 4.03.47 3.56.47 5.17-2.547 8.455-13.95 20.936-16.23 24.828-.804.134-3.486.536-3.486.536l.034-2.584c-17.123 7.653-26.558 9.644-29.91 11.137-4.217 1.877-7.3 4.472-9.69 7.683-.874-.1-3.89.27-4.696.67-9.76-2.62-16.7-2.118-23.254-.558l-17.526-.923c.538-2.216 8.3-14.176 10.045-15.25-10.915 2.18-17 6.36-21.176 11.76-.4-.09-8.16.64-8.987 1.744-1 1.335-14.62 24.34-14.62 24.56 0 2.424 2.93 11.625 3.51 12.707.354.667 4.87 2.652 9.33 3.8 0 0-3.59 4.965-3.59 6.576 0 2.283 5.98 13.904 6.53 14.46 1.54 1.54 12.4 3.8 12.4 3.8s-2.43 4.083-2.43 5.56c0 1.824 9.26 12.414 11.534 13.654 1.476.802 12.94 1.112 12.94 1.112-.32.423-1.793 3.962-1.672 4.49.54 2.35 13.41 12.154 15.024 12.513 2.205.49 16.293-.92 17.706-1.91.818-.572 6.34-19.36 6.708-20.4 5.153 5.158 9.96 7.28 14.82 7.38-1.415 4.725-.94 13.91 10.68 19.748l-4.173 4.58s3.02 2.593 4.83 10.84l-8.15-1.73c3.12 4.01 2.537 7.005 2.516 10.57-.03 5.063-.77 10.065-1.34 15.65l2.514 2.18c-8.685 16.137-17.62 37.375-17.62 37.375" fill="#002F5D"/><path d="M163.882 255.555l-11.855 11.575-1.224-1.133 5.055-5.36c-3.043-2.818-6.212-6.038-6.212-11.423 0-3.497 1.085-9.45 6.942-11.776 1.603-.637 3.664-.856 6.036-.856 7.822 0 12.978 3.02 13.43 3.472l.05 1.812s-7.83 6.61-12.222 13.69" fill="#FFF"/><path d="M199.796 260.486l5.28 5.687-1.256 1.19-10.16-11.608c-2.18-4.395-14.085-13.79-14.085-13.79l.025-1.836s5.005-3.5 13.355-3.5c2.105 0 3.973.06 5.6.57 4.826 1.5 7.478 5.94 7.478 12.11 0 6.44-4.427 9.89-6.237 11.17" fill="#FFF"/><path d="M229.725 271.432l-2.238-1.07 4.2 12.872-7.042 8.807 4.175 2.34 7.193-9.94s-6.087-11.97-6.288-13zm-34.993 27.2l-5.298-5.535-1.61 1.913 6.037 9.864-3.52 13.235 1.66 2.51 10.63-14.87 5.28-4.41-13.17-2.72zm50.94-9.158l-7.11 5.368 2.515 4.228-7.076-.806 6.21 6.945-7.95-3.53s-16.03 25.03-18.04 28.78c-9.97 5.79-30.46 9.23-31.05 9.26l-5.3 5.03-3.47-3.305 2.82.602 4.53-4.53s12.328-2.466 15.11-4.915c-.44.04-1.53.025-2.96.11-3.17.18-7.83.492-9.45.492-2.344 0-6.23-.3-6.494-1.376-.27-1.07.126-1.643.126-2.783s-.27-1.073-.27-2.48c0-1.9 1.05-3.438 2.28-4.394l-3.22-7.415 3.155-4.16-.805-23.416 2.48-2.617-3.957-6.51-3.76 6.51 2.413 2.55-1.677 22.41-4.9 4.16 4.29 6.98-4.027 7.316-6.372-7.58 1.746-2.416-3.556-13.154 6.08-9.852-1.635-1.964-5.05 5.71-26.963 1.947-.803 3.09 5.77 4.56-2.01 2.482-8.08-5.67 1.573-6.51 32.862-7.28 2.196-6.36 4.63-.653-6.285-4.53 9.12-6.24-.6-.804-6.84 2.617-2.515-2.68 7.916-6.004-.84-.77-5.635 2.616-5.734-4.967 3.12-1.88 15.746-5.837 15.745 5.734 4.375 3.422-4.53 4.2-8.25-3.298-.75.753 9.405 6.844-2.31 2.414-8.7-3.17-.4.806 9.054 6.343-6.29 4.53 4.576.603 2.063 6.29 29.675 6.54v-2.112l-7.09-3.22-4.16-9.177-15.83-5.165 4.427-4.76-2.547-1.98 6.84-5.636 4.325-2.718s6.84-6.308 6.84-13.42c0-18.99-17.438-17.615-17.438-17.615l-.47-2.75 1.106-.84 9.925 3.225-.403-2.215-3.757-3.22c-1.206-2.55-7.243-21.002-7.243-21.002l.134-.54 9.23-.413c1.17 3.9 2.048 7.526 2.55 10.01.33 1.62.5 2.755.498 3.156l34.474 37.776c-1.007.67-4.36 7.983-5.098 13.62l7.044-1.31c-1.727 7.364.74 21.908.74 21.908z" fill="#D69C05"/><path d="M126.758 273.705l-2.213.805-4.896 9.797 10.73 11.54 3.62-.083 7.17-3.338 4.02-9.06 16.03-5.233-4.598-4.713 2.65-1.863c-1.78-1.5-4.083-3.59-6.22-5.183-1.775-1.32-2.42-1.538-3.258-2.114-2.87-1.973-8.465-7.393-8.465-14.947 0-8.74 4.595-17.278 17.202-17.278.08-.287.225-1.347.563-2.846.925-4.1 3.288-11.49 9.697-15.34-5.567.1-10.727 14.68-10.727 14.68l-9.87 3.19.2-2.07 3.964-3.53c2.213-5.37 7.025-20.63 7.025-20.63l-3.64 3.112-5.264 16.84s-5.58 3.27-8.45 10.618c-1.76 1.61-4.83 6.09-4.83 12.733 0 5.147 1.75 10.22 4.43 14.292 2.49 3.783 5.904 6.305 7.95 8.94l-.067 2.096-5.6 1.95-4.794 12.48-5.937 3.724-9.154-9.16 2.712-9.43z" fill="#D69C05"/><path d="M124.772 314.352l3.798-1.325 7.545 12.078-11.343-10.753z" fill="#D69C05"/><path d="M208.02 214.318c-1.298-6.384-5.04-20.334-9.934-26.955l-2.28 3.002c-.587-1.593-3.186-7.448-5.265-9.142 0 0-1.45 1.36-2.99 4.152-.42-1.46-2.86-5.21-3.85-6.34l-2.76 4-3.48-5.83-3.33 5.955c-.61-.654-2.99-4.252-2.99-4.252l-3.62 6.096s-2.593-3.655-3.12-3.857c-.806.93-2.768 3.17-5.157 8.984-1.56-1.63-2.39-2.86-2.39-2.86-.78 1.09-1.63 2.48-2.366 4.05-3.447 7.38-6.286 18.95-6.52 21.65l2.06-3.94.99 3.36 3.62-6.44 1.426 3.35 3.353-3.78s-.25-1.535-.25-3.196c0-.947.127-2.41.302-3.96.45-4.014 2.167-8.32 10.563-8.32 4.394 0 5.08.653 7.848.653s3.623-.653 7.446-.653c3.735 0 5.46.48 7.395 1.71 3.31 2.11 3.772 5.624 3.772 10.164 0 2.37-.234 2.816-.234 2.816 1.64 1.334 2.65 3.875 2.65 3.875s.903-1.86.802-3.12c.452.4 3.27 7.146 3.27 7.146.88-.63 1.256-2.666 1.256-2.666.605.022 2.415 2.21 3.798 4.356" fill="#FFF"/><path d="M207.274 272.7l7.612.52 5.567 8.27-2.95 3.623-5.6-8.925-5.77-2.046 1.14-1.443z" fill="#FFF"/><path d="M211.013 312.825l1.534 2.19 13.925-9.923-.453-3.908-4.7-.537.9 3.12-11.22 9.058z" fill="#FFF"/><path d="M111.87 294.054l1.61 1.308-4.226 7.348 5.232-.705-5.634 6.342 1.71 2.214 11.77-5.23 1.107 1.76c-11.62 4.73-20.58 11.73-25.14 15.57-.05-.8 11.15-25.28 13.56-28.6" fill="#FFF"/><path d="M232.09 307.037l1.206-1.81 11.855 5.316 1.61-2.214-5.61-6.33 5.26.75-4.25-7.3 1.81-1.31c2.82 4.73 12.38 25.563 13.33 28.495-2.342-2.06-11.72-10.077-25.2-15.613" fill="#FFF"/><path d="M160.36 232.48c0 .268 1.006 1.132 3.12 1.132 3.168 0 3.52-.688 3.52-1.107 0-.42-1.76-12.078-.855-14.393-3.622 4.58-5.785 11.575-5.785 14.368" fill="#FFF"/><path d="M189.434 218.213c3.957 3.892 5.802 12.58 5.802 14.326 0 .8-1.208 1.17-2.918 1.17-1.375 0-3.856-.54-3.856-1.11 0-.61 1.643-7.38.972-14.4" fill="#FFF"/><path d="M184.102 226.667c.604 0 1.333 3.75 1.333 6.542 0 1.46-3.596-.26-3.596-1.06 0-.81 1.4-2.62 2.26-5.49" fill="#FFF"/><path d="M179.827 227.875c.553 0 1.392 3.607 1.392 4.613 0 1.007-3.06 1.023-3.06.017 0-1.007 1-4.63 1.66-4.63" fill="#FFF"/><path d="M175.752 227.85c.453 0 1.484 3.573 1.484 4.68 0 1.107-3.12.856-3.12-.075 0-.93 1.108-4.605 1.636-4.605" fill="#FFF"/><path d="M171.326 226.718c.553.604 2.112 4.705 2.112 5.51 0 1.032-1.785 1.536-2.565 1.536s-.98-.755-.98-1.31c0-.552.955-5.736 1.433-5.736" fill="#FFF"/><path d="M169.01 194.056c.605 0 .94.067.94.604 0 .537-3.353 7.9-4.36 13.152-.854-1.678-1.005-4.832-1.005-5.905 0-1.074.134-4.83.604-6.04.46-1.207 2.88-1.81 3.82-1.81" fill="#FFF"/><path d="M185.56 194.81c0-.603.856-.754 1.26-.754.4 0 2.664.302 3.42 1.41.368.704.754 4.88.754 6.592 0 1.71-.403 4.43-.956 5.737-1.057-5.99-4.477-12.984-4.477-12.984" fill="#FFF"/><path d="M183.13 198.183c-.403 0-1.442-2.39-1.442-3.32 0-.558.89-.745 1.51-.74.685.008 1.105.263 1.105.74s-.737 3.32-1.173 3.32" fill="#FFF"/><path d="M179.575 198.15c-.436 0-1.408-2.65-1.408-3.423 0-.77 2.616-1.14 2.616.067 0 1.208-.94 3.355-1.208 3.355" fill="#FFF"/><path d="M176.154 198.132c-.3 0-1.307-2.742-1.307-3.472s2.54-1.057 2.54-.1c0 .955-.93 3.572-1.233 3.572" fill="#FFF"/><path d="M172.558 198.158c-.276 0-1.358-2.843-1.358-3.397 0-.55 2.64-.9 2.64-.1 0 .81-.728 3.5-1.282 3.5" fill="#FFF"/><path d="M178.066 252.887l-12.776 4.78c0-.486 1.73-2.704 3.957-5.11.095 1.065 1.173 1.152 1.173 1.152 1.23 0 4.594-1.7 4.594-4.94 0-.31-.025-.98-.572-1.18.652-.53 1.273-.98 1.834-1.32l1.74 5.75 1.785-5.788c.58.345 1.21.813 1.88 1.36-.33.375-.59.844-.59 1.304 0 2.52 2.82 4.934 4.23 4.934 0 0 1.2-.034 1.65-1.105 2.117 2.342 3.737 4.49 3.737 5.03l-12.626-4.88z" fill="#C8213F"/><path d="M179.408 214.858c-.202-1.745-.067-9.596-1.342-12.213-1.743 3.02-1.207 9.126-1.61 11.743-.402 2.617-2.145 5.972-2.145 8.522l3.69-4.093 3.22 4.227c0-3.69-1.61-6.44-1.81-8.186zm17.068 14.46c-3.22-13.52-8.82-14.158-9.96-15.534 2.818 6.744.67 15.03.537 16.44-.87-4.965-3.42-7.113-3.42-7.113l-2.012 4.37-1.47-2.82-2.34 2.95-2.143-2.75-2.046 2.75-1.977-4.56c-1.847 2.45-2.316 3.96-3.22 6.98-1.745-8.12.4-16.17.4-16.17-6.407 3.86-8.77 11.24-9.695 15.34l-1.03-.66c1.07-7.562 4.676-24.69 4.676-24.69.306 2.737 1.5 7.148 3.1 9.748 2.047-9.663 4.495-15.165 4.495-15.165l2.08 2.417 2.01-2.013 1.475 2.014 1.88-2.08 1.88 2.28 1.543-2.21 1.946 2.28 2.08-2.75s3.032 7.027 4.56 16.1c1.675-3.69 3.016-10.604 3.016-10.604 1.14 2.886 4.763 24.626 4.763 24.626l-1.106.84z" fill="#C8213F"/><path d="M177.864 238.645s-2.464-2.92-5.18-3.875h1.767c.22.253.68.428 1.2.428.53 0 .99-.175 1.2-.428h1.8c.22.253.68.428 1.2.428.53 0 .99-.175 1.2-.428h1.72c-2.71 1.208-4.9 3.875-4.9 3.875" fill="#C8213F"/><path d="M203.93 290.702c.4-.627.628-1.287.628-1.882 0-2.677-2.213-4.848-5.265-4.848-2 0-3.762.932-4.74 2.328l-.59-1.853c1.305-1.152 3.12-1.867 5.13-1.867 4.258 0 7.192 2.794 7.192 6.24 0 .805-.178 1.573-.497 2.28l-1.857-.398z" fill="#FFF"/><path d="M195.37 288.87l-.046-.14c.055-1.904 1.81-3.433 3.97-3.433 2.193 0 3.972 1.578 3.972 3.523 0 .593-.167 1.152-.46 1.642l-7.437-1.592z" fill="#C8213F"/><path d="M202.412 287.528c0-.49-.398-.89-.89-.89-.49 0-.888.4-.888.89s.398.77.89.77c.49 0 .888-.28.888-.77" fill="#FFF"/><path d="M161.042 286.226c-.903-1.355-2.518-2.254-4.482-2.254-3.052 0-5.554 2.17-5.554 4.848 0 .744.2 1.427.554 2.024l-1.65.353c-.35-.732-.543-1.535-.543-2.377 0-3.447 3.22-6.24 7.193-6.24 2.072 0 3.83.662 5.09 1.738l-.608 1.908z" fill="#FFF"/><path d="M160.16 289.004l-7.256 1.552c-.328-.513-.52-1.105-.52-1.737 0-1.95 1.78-3.53 3.975-3.53 2.07 0 3.78 1.41 3.95 3.21l-.16.49z" fill="#C8213F"/><path d="M158.398 287.89c-.49 0-.89-.282-.89-.773 0-.49.4-.89.89-.89s.89.4.89.89-.4.772-.89.772" fill="#FFF"/><path d="M256.536 249.616l-.704-2.617-57.545-7.96s-.905-1.14-1.576-1.14c-.67 0-1.14.9-1.14 1.67 0 .77 1.04 2.75 2.22 2.75 1.01 0 1.08-.906 1.08-.906l57.68 8.186z" fill="#002F5D"/><path d="M198.463 245.338c-.63 0-1.66.88-1.66 2.466 0 .88.654 2.164 1.584 2.164.58 0 1.057-.68 1.057-.68l60.747 15.09-.36-2.617-60.24-14.98s-.16-1.43-1.12-1.43" fill="#002F5D"/><path d="M199.41 253.172c-1.182 0-2.23 2.03-2.23 2.873 0 .843.54 1.61 1.132 1.61.59 0 1.2-.642 1.2-.642l64.2 25.08-.268-2.718-63.01-24.593s.16-1.61-1.024-1.61" fill="#002F5D"/><path d="M120.534 246.685l-21.09 2.98.756-2.716 23.02-3.17-2.686 2.9z" fill="#002F5D"/><path d="M123.22 243.786l15.463-2.124-.46 2.522-17.69 2.5 2.686-2.898z" fill="#FFF"/><path d="M157.98 242.37c-.873 0-1.225-.806-1.225-.806l-18.532 2.62.46-2.523 18.66-2.56s.87-1.17 1.642-1.17c.77 0 .973 1.13.973 1.56 0 .96-.688 2.89-1.98 2.89" fill="#002F5D"/><path d="M115.135 259.613l-19.412 4.85.503-2.72 17.86-4.428 1.05 2.298z" fill="#002F5D"/><path d="M114.085 257.315l23.6-5.853.548 2.38-23.098 5.77-1.05-2.297z" fill="#FFF"/><path d="M157.392 249.993c-.654 0-1.132-.654-1.132-.654l-18.028 4.5-.55-2.38 18.2-4.52s.504-1.77 1.46-1.73c.67 0 1.408 1.61 1.408 2.38 0 .634-.1 2.39-1.358 2.39" fill="#002F5D"/><path d="M157.342 257.643c-.503 0-1.08-.478-1.08-.478l-14.802 5.772-.997-2.23 14.666-5.756s.22-1.86 1.15-1.86c.93 0 2.06 2.24 2.06 3.02 0 .35-.08 1.54-1.01 1.54" fill="#002F5D"/><path d="M111.283 274.705l-19.03 7.422.3-2.617 18.695-7.337.035 2.532z" fill="#002F5D"/><path d="M111.25 272.172l29.213-11.466.997 2.23-30.176 11.77-.035-2.534z" fill="#FFF"/><path d="M118.643 242.705l-.067 1.88 25.687-28.117c1.198-6.64 2.51-11.62 3.89-16.104 3.09-10.044 5.93-14.796 9.926-18.654l.53 2.684s2.68-4.63 6.57-8.12c.5.823 1.91 3.842 1.91 3.842s3.67-5.787 4.772-6.542l1.912 4.278 3.72-5.99 3.572 5.99 2.16-4.43 4.577 6.694 1.786-4.05c4.676 4.604 6.21 7.7 6.486 8.278.58-.58.45-2.592.45-2.592l3.07 2.843s1.868 2.2 3.898 6.34c2.28 4.654 5.987 15.955 7.68 25.265l27.833 30.598 5.835-4.16 4.093-7.314-24.815-25.834-1.67-5.368c10.194 9.46 32.863 26.035 32.863 26.035l9.59-7.247-5.7-19.325-10.8 3.69-13.01-11.54 3.62-1.947s-4.692-7.247-5.363-7.582l3.756-.067-9.358-16.75 2.413 21.34-18.71-23.96-68.29-.32-17.45 24.25 4.15-21.888-9.76 16.674 2.92.437-6.185 8.572 3.874-.05-10.26 13.535 2.01 2.97 24.044-19.425-21.128 29.84 2.062 3.977 27.714-21.44-3.62 8.724-23.206 30.06z" fill="#D69C05"/><path d="M177.06 85.15l9.256 11.878-2.348-.2 9.524 11.54-5.7-.872 25.887 35.026-13.75-12.48-1.34 4.36-12.28-14.828-1.95 4.563-6.84-8.992-6.11 8.858-2.145-4.362-12.81 14.63 7.175-12.95-11.2 7.72 11.537-13.82-8.785 4.03 10.73-11.404-5.095.605 9.657-11.205-4.09 1.006 10.667-13.09z" fill="#D69C05"/><path d="M161.5 63.41l-2.012.268-5.432 15.5 3.152-.872-3.69 6.845 4.763-1.54-3.68 6.91 4.3-1.94-1.476 8.05 5.433-9.32 1.073-8.32-2.42-15.57z" fill="#D69C05"/><path d="M202.914 105.885s2.415-7.146-2.716-35.027l-13.48-24.66-.906 5.536 2.414 8.254.705 2.92 2.22.905-1.1 4.026.405 11.07 1.91 1.61-.4 3.92-.1 5.53 11.065 15.9z" fill="#D69C05"/><path d="M182.626 26.303l3.69 5.502V9.795l-2.348-1.307-1.88 2.046-.736-2.75-3.018-.135-1.006 2.81-1.41-2.75-2.75.27-.468 3.42-1.878-2.28-1.945 1.61v1.54l14.22 5.03-.47 8.99z" fill="#D69C05"/><path d="M166.665 41.77s-3.89 14.293-4.393 15.098l-2.364-2.818 1.358-6.39-13.078-6.09v-1.61l2.313-.957 1.87 2.114.71-2.97 3.12-.2 1.26 2.817 1.407-2.063 3.17.61.15 3.22 2.114-1.96 2.38 1.21z" fill="#D69C05"/><path d="M218.156 27.377l.394 1.428c2.848 2.644 5.39 7.16 5.39 7.16l.537 4.295 1.207-3.422.403 9.193 1.81-5.56 1.342 6.91.67-4.49 2.01 4.7c-.34-2.92-1.65-5.845-3.15-8.858-2.28-4.564-4.99-7.99-7.83-10.52l-2.79-.82z" fill="#D69C05"/><path d="M221.46 151.246l16.43 20.4h-2.347l4.695 4.897 2.28-4.026.738-.47c.277-2.445.45-5.97 3.454-11.004 1.366-2.29 3.35-4.65 6.137-7.784-.67 6.57-.336 12.01-.336 12.01l4.23.2 1.41-3.29 8.92-7.79-8.18 2.08 2.69-4.03-6.505.2 3.49-2.48-7.983-3.02-12.54 3.69 4.693-6.17-11.67 1.41 5.095-5.17-7.38-3.56-4.027 5.503-3.286 8.387z" fill="#D69C05"/><path d="M242.92 177.617l-1.944 2.952 2.55 10.4 7.51 5.77 8.853-3.29.4 1.34 1.41-.54 2.95 6.64s1.49-2.77 7.38-7.117c0 0 .95-5.57-4.33-23.03 1.86 1.56 13.53 11.17 17.27 21.756l1.34.335s1-5.538 5.43-8.055c.27-13.283-5.77-21.872-8.25-26.77 5.43 3.29 16.3 9.06 22.53 21.24.073-1.08-.908-5.636-.2-7.55.36-.974 2.24-2.405 3.32-4.125.5-.805.6-2.617.6-3.32 0-.706-2.617-10.77-4.227-12.48l-2.516.603-3.42-4.43s-4.528-1.81-7.747-1.81c-1.922 0-4.74.183-7.393.856-3.695.934-4.476 1.66-7.695 2.665l-16.33 14.21-2.08 4.91s-4.63-1.008-5.23-.605c-.606.4 2.412 12.277 6.44 21.336-6.34.806-17.81-.703-16.637-11.91" fill="#D69C05"/><path d="M271.827 197.88c-.704 1.41-2.146 2.954-2.146 5.638-.87 2.214 6.48 14.19 18.25 16.372l1.61-6.91s.94 7.715 0 9.863c-1.21.704-8.78.805-8.78.805l-1.44 3.187 4.327 13.756s8.215 1.58 8.718 1.48c.505-.1 11.07-8.55 11.17-8.96.034-.13-1.24-4.24-3.22-9.46-3.88-10.24-9.556-23.75-9.96-26.17l-4.023-1.61s3.52 9.26 1.108 21.04c-8.146-.8-16.8-10.87-16.8-13.79 0-1.71 1.41-3.42 1.21-5.23" fill="#D69C05"/><path d="M308.85 223.447l8.65.805s8.652-9.26 9.055-10.468c.402-1.208-15.19-29.994-15.19-29.994s-2.617-.805-3.623-.403c0 0 2.716 7.65 1.207 16.91-9.96-1.31-16.6-9.965-16.6-9.965l.7 2.718c4.32 5.536 10.86 10.367 17.3 10.266.5-1.81 1.1-7.247 1.1-7.247s.905.4.905 9.96c-3.52 1.64-8.888 1.17-8.888 1.17l-1.01 2.14 6.373 14.092z" fill="#D69C05"/><path d="M325.415 190.835l-.268 2.35 4.158 8.856 8.72-.73s4.693-9.12 5.163-11.14l-9.39-16.3-4.125-7.48s-.603-.802-3.554-.802c0 0 3.78 9.63 3.52 17.547-14.26-1.78-19.02-9.63-19.02-9.63v-2.384s-.54.873-.54 2.114c0 1.24.8 3.254.8 3.254l3.56 3.54s7.74 6.59 16.928 6.39c.47-2.75.605-7.717.605-7.717s1.207 1.006 2.146 9.864c-3.69 1.946-8.72 2.28-8.72 2.28" fill="#D69C05"/><path d="M321.86 152.823s-.268-1.544-.402-1.644c0 0-.37.5 0 1.87 0 0 .633.87 1.71 1.91 2.968 2.86 10.48 7.88 17.203 6.27.88-1.29.41-6.645.39-6.595.64.756 2.95 6.594 3.51 9.68-4.12 1.946-7.39 2.3-7.39 2.3l-.15 2.364c.4.67 4.73 8.606 5.53 8.606.81 0 5.537-.753 7.45-1.156.267-.94 2.313-6.994 2.564-8.705-3.12-5.99-11.92-20.936-13.58-23.553-.957-.45-3.52-1.054-5.015-.92 0 0 4.49 4.563 5.63 15.97-9.66.437-16.064-4.864-17.44-6.407" fill="#D69C05"/><path d="M118.36 139.05l7.594 6.895 4.628 9.763-13.682 15.3 3.22-.303-5.13 5.838s-2.215-4.127-2.92-4.43c-.05-.854-.35-6.894-5.33-14.09l-4.3-4.857s1.08 10.19.175 12.506c-5.18-6.09-13.53-14.594-13.53-14.594l11.92.704-2.968-4.277 10.765 1.46-3.572-4.48 13.13-5.435z" fill="#D69C05"/><path d="M112.608 178.22l1.408 2.148-2.616 10.535-7.176 5.77-10.262-3.49-3.353 7.65c-1.28-1.744-3.36-4.227-7.65-7.045 0 0-.11-3.346.63-7.784.83-4.955 2.61-11.268 4.12-15.7 0 0-13.08 9.66-17.304 22.243l-1.81.234c-.164-1.62-1.745-6.17-5.3-7.98 0 0 .084-4.84 1.677-11.07 1.36-5.32 4.09-11 6.236-15.36-7.34 3.59-18.106 11.948-22.13 20.9 0 0 .403-3.92.403-5.58 0-1.66-1.308-4.127-3.57-6.09-.05-.604-.605-2.768-.655-3.22-.05-.454 2.866-9.21 4.83-12.48l2.312.2 3.32-4.228s5.633-1.777 7.243-1.777c1.61 0 10.765.87 13.48 2.33 1.277.685 5.287 4.26 9.27 7.775 4.5 3.97 8.94 7.877 8.94 7.877l2.214 4.836s4.592-1.072 5.196-.535c.603.537-1.325 9.947-6.456 21.17 2.417.554 17.407 1.21 16.988-11.306" fill="#D69C05"/><path d="M81.287 237.135s9.154-28.887 9.356-30.296c.2-1.41-4.527-7.45-7.244-9.26-.1 1.81 1.2 5.13 1.2 5.13-.46 1.77-.42 3.36-5.13 7.95-2.47 2.4-5.61 4.88-11.57 6.41-2.32-9.568.7-19.708.7-19.708s-7.248 10.47-1.008 23.15c7.376-1.645 12.943-6.945 12.943-6.945s-.853 1.34-2.148 3.12c-2.1 2.885-5.656 6.956-10.8 8.554-.303 1.21-4.63 11.576-4.63 11.576l2.818 1.91 15.493-1.61z" fill="#D69C05"/><path d="M40.442 221.634l12.022.403s9.406-23.905 9.86-25.616c.452-1.71 3.67-2.31 3.67-2.31s.102-2.46-2.313-5.48c-1.66 5.04-12.42 11.33-17.45 11.88-1.29-12.08 1.06-16.24 1.06-16.24s-.64.7-1.27 2.22c-1.04 2.5-2.28 6.768-2.28 10.4 0 1.964 1.24 6.946 1.24 6.946s5.23-.1 12.58-4.73c-1.107 1.86-7.345 8.15-14.387 9.16l-3.655 8.353-1.073 1.945 2.014 3.086z" fill="#D69C05"/><path d="M30.65 202.31l11.402-21.07s2.817-.94 4.024-.536c.67-2.685.402-7.784.402-7.784s-1.207-2.416-2.012-2.684c.235.805.134 2.013 0 3.22 0 0-2.693 5.454-12.977 8.455-1.82.53-3.89.87-6.21 1.21.67-9.66 3.48-15.98 3.48-15.98s-6.24 6.49-4.127 19.08c7.394-.2 13.33-4.176 13.33-4.176s-6.39 7.347-14.99 7.95L18.7 197.09l1.31 2.715 10.63 2.516z" fill="#D69C05"/><path d="M7.914 173.456l.94 2.75 6.572 2.283s6.505-10.81 7.578-13.63c1.744-2.72 7.847-2.35 7.847-2.35s3.06-5 3.66-5.5c.25-.86.56-6.85.56-6.85s-.65-1.11-1.15-1.26c-.504-.15-.15 3.722-.15 3.722s-6.29 6.744-17.86 6.542c.755-9.716 5.735-16.258 5.735-16.258s-2.364 1.56-3.17 3.07c-.803 1.51-4.777 8.672-3.872 15.75 6.24.236 12.846-2.28 12.846-2.28-.804 1.41-5.266 4.12-6.94 4.764-1.505.58-4.084.87-7.614 1.51l-4.967 7.72z" fill="#D69C05"/><path d="M168.073 80.454l-4.427 8.253-6.237 7.918 5.16-11.944-2.15.74 2.01-5.63-3.22 1.14 2.95-7.45-3.76 2.42 3.084-12.48 2.95 4.5 3.623 12.55z" fill="#FFF"/><path d="M144.934 153.93l-18.905 36.78 20.85-21.48-7.85 19.525 12-11.407-1.48 12.615c.802-1.812 6.37-10.803 9.454-13.89l.803 3.154c4.026-5.368 6.44-7.247 6.44-7.247l1.68 3.154 1.943-2.684 2.48-2.416 1.61 2.684 3.42-4.764 3.624 5.033 2.08-2.886 2.345 2.22 1.943 3.09s2.013-2.75 2.013-3.42c1.204.2 4.56 4.43 6.1 7.79.2-1.14.67-3.154.47-3.69 0 0 6.303 7.045 10.395 14.627l-1.005-13.42 11.937 11.34-7.645-19.257 20.825 21.37-18.95-36.606-2.01 7.048-9.39-19.056-2.55 5.638-9.79-16.775-1.946 5.57-7.647-12.885-7.65 12.75-1.878-5.3-9.79 16.64-2.615-5.57L147 161.32l-2.08-7.38z" fill="#FFF"/><path d="M172.332 76.294l3.622 6.543.704-20.533s-3.32 8.354-4.326 13.99" fill="#FFF"/><path d="M202.915 105.885S190.24 91.09 187.32 86.66l3.522-5.837h-4.527l3.018-6.14-3.823-.1c.327-.83 5.064-10.284 5.064-10.284l-1.978-1.09s-3.605-13.37-4.83-15.97l2.952-1.04v5.06l1.643 1.64-.5 4.33 2.01 1.61L189 62l2.95 1.074-1.14 4.362 2.28 1.208-1.61 4.026 2.95.604-2.547 4.496 4.225.268-2.817 4.898h4.23l-3.28 7.046 3.09-1.007 5.6 16.91z" fill="#FFF"/><path d="M218.156 27.377l.394 1.428c-.08-.074-.162-.15-.244-.22-6.37-5.637-14.62-5.77-17.437-5.57l2.01-1.14s1.2-.135 1.94-.135c4.57 0 10.61 1.563 16.11 6.455l-2.78-.818z" fill="#FFF"/><path d="M220.72 71.965l2.818 9.562s1.106-9.863.704-13.99l2.012 2.466-.1-8.254-1.007 4.88-2.515-3.53v11.88l-1.91-3.02z" fill="#C8213F"/><path d="M224.243 61.348l-.453-8.203 1.61 1.61-.05-4.58 2.062 1.71.05-4.075 1.308 7.448L226.858 54l.05 4.48-1.81-1.762-.855 4.63z" fill="#C8213F"/><path d="M231.117 48.044l1.542 4.36.6 10.94-1.48-.94 1.2 8.186-2.08-2.013.54 7.85-2.48-1.744.063 4.63-1.945-1.946-1.206 5.838-.134-11.34 1.48 1.88.27-3.96 1.945 1.88-.805-14.227 2.68 2.147s-.334-10.4-.2-11.54" fill="#C8213F"/><path d="M266.797 167.182c-.656-.656 1.073-3.657 1.41-4.127.334-.47 3.904-3.6 6.74-5.972.664-.557 1.168-1.1 1.61-1.375 1.608-1.007 4.258-1.024 4.86-.823.605.202-1.944 7.466-2.648 8.07-.71.603-11.37 4.83-11.98 4.227" fill="#C8213F"/><path d="M271.86 188.926c-1.265.457-2.57.895-3.922 1.305-.94-1.87-1.878-17.04-1.073-17.98.064-.07.473-.27 1.116-.56 2.47 8.3 3.48 13.8 3.88 17.24" fill="#C8213F"/><path d="M285.397 159.158c1.05-2.157 2.062-4.16 2.594-4.624.69-.602 8.74-1.812 14.68-2.602l2.87-.15c.62.658 1.388 2.548 2.098 4.666-1.33 2.536-3.68 7.68-8.272 13.384-4.792-5.107-10.13-8.396-13.95-10.674" fill="#C8213F"/><path d="M284.787 160.418c2.22 4.025 5.388 9.777 6.533 17.56-2.92 2.425-6.337 4.78-10.344 6.915-4.298-6.302-10.09-11.44-12.453-13.448 3.708-1.616 12.41-5.104 13.633-6.175.48-.42 1.528-2.574 2.63-4.852" fill="#C8213F"/><path d="M50.1 151.883c4.16.338 15.933 1.53 17.504 3.02.594.562 1.335 2.288 2.17 4.203-4.338 2.345-9.546 6.102-13.835 10.54-2.76-3.485-5.5-7.67-8.15-12.733.74-1.898 1.61-3.845 2.31-5.03" fill="#C8213F"/><path d="M74.26 184.74c-3.218-1.597-6.67-3.683-10.205-6.655.232-1.33.536-2.802.934-4.36 1.16-4.57 3.34-9.41 5.3-13.45.89 1.99 1.86 3.977 2.88 4.927 1.23 1.16 9.13 4.344 13.11 6.242-2.55 2.105-7.96 6.97-12.03 13.296" fill="#C8213F"/><path d="M88.53 172.72c.503 2.917-1.476 16.37-1.81 17.244-1.06-.49-2.223-.956-3.474-1.442.09-.784.204-1.628.354-2.517.74-4.39 2.218-9.842 3.598-14.113.705.36 1.186.647 1.332.827" fill="#C8213F"/><path d="M73.615 155.18c.45-1.047 3.748-.176 4.955.428.57.286 2.298 1.886 4.125 3.49 2.032 1.782 4.16 3.587 4.426 3.958.51.704 1.82 3.925 1.41 4.227-.4.302-6.13-1.308-12.07-4.026-1.61-3.32-3.14-7.373-2.84-8.077" fill="#C8213F"/><path d="M18.272 157.017c-.067-3.69 3.987-19.418 22.497-25.59-2.19 2.692-8.18 10.56-9.32 19.886-.51 2.75-10.9 6.073-13.19 5.704" fill="#FFF"/><path d="M27.7 180.57c-.068-3.692 1.827-24.057 22.953-33.62-2.188 2.693-8.4 14.243-8.333 25.835-.503 2.75-9.725 7.247-14.62 7.784" fill="#FFF"/><path d="M48.087 197.814c-.368-1.913-2.682-21.607 18.578-34.255-2.08 3.42-6.002 13.18-5.03 24.59-.503 2.75-9.02 8.49-13.548 9.66" fill="#FFF"/><path d="M69.684 214.32c-.545-1.718-4.09-20.867 14.218-37.24-2.08 5.234-4.225 17.38-1.61 25.9-.87 4.564-8.08 10.167-12.608 11.34" fill="#FFF"/><path d="M285.71 214.287c.546-1.72 4.092-20.868-14.218-37.24 2.08 5.233 3.957 17.345 1.34 25.866.873 4.563 8.35 10.2 12.88 11.374" fill="#FFF"/><path d="M336.854 156.983c.067-3.69-3.987-19.418-22.497-25.59 2.188 2.692 8.174 10.56 9.314 19.886.51 2.75 10.9 6.07 13.19 5.7" fill="#FFF"/><path d="M327.426 180.536c.068-3.69-2.01-23.452-21.997-32.846 2.18 2.692 7.71 12.75 7.24 24.827.5 2.75 9.86 7.482 14.75 8.02" fill="#FFF"/><path d="M307.038 197.78c.37-1.912 2.95-21.472-18.31-34.12 2.08 3.422 6.036 13.135 4.762 24.458.503 2.75 9.02 8.488 13.548 9.663" fill="#FFF"/><path d="M249.325 186.07c2.73 1.247 5.782 1.403 7.01 1.008-4.696-12.414-6.037-16.59-6.037-27.73-4.2 5.047-5.18 12.156-5.332 16.893-.1 3.13.054 6.06.905 7.3.67.97 2.15 1.94 3.46 2.54" fill="#FFF"/><path d="M105.95 186.104c-2.727 1.246-5.78 1.402-7.008 1.007 4.695-12.41 6.037-16.59 6.037-27.73 4.2 5.05 5.18 12.16 5.33 16.9.1 3.12-.06 6.06-.91 7.3-.67.97-2.15 1.94-3.46 2.54" fill="#FFF"/><path d="M19.617 155.205l1.51-.1s3.192-8.514 8.65-15.048c2.046-2.45 4.41-4.49 7.043-5.888 0 0-10.966 3.12-17.203 21.03" fill="#D69C05"/><path d="M29.627 178.782l1.836-.377s.55-2.698 1.77-6.593c1.756-5.614 5.122-13.76 12.07-20.298 0 0-11.434 6.207-15.676 27.268" fill="#D69C05"/><path d="M49.245 195.717l1.61-.704c1.458-11.173 4.92-20.74 11.87-27.277 0 0-11.62 8.203-13.48 27.98" fill="#D69C05"/><path d="M70.824 212.174l1.643-.906c.168-7.197-.184-18.118 7.546-28.552 0 0-10.295 9.277-9.19 29.458" fill="#D69C05"/><path d="M327.863 152.336l-1.66-.604s-3.622-13.99-9.76-18.62c0 0 7.748 3.623 11.42 19.224" fill="#D69C05"/><path d="M316.192 174.077l-1.66-1.36s-.452-15.952-6.438-22.344c0 0 7.646 4.832 8.098 23.704" fill="#D69C05"/><path d="M297.112 190.097l-1.442-1.107c-.94-6.375-.268-16.205-5.064-22.043 0 0 7.378 5.1 6.506 23.15" fill="#D69C05"/><path d="M276.455 205.33l-1.257-1.107c.218-5.134 1.928-15.35-1.845-23.15 0 0 6.724 7.498 3.102 24.257" fill="#D69C05"/><path d="M247.415 182.18l-1.543-1.947s.805-11.608 3.22-16.775c0 0-2.013 9.126-1.677 18.72" fill="#D69C05"/><path d="M107.98 182.112l1.408-1.878s-.335-10.938-3.152-17.044c0 0 2.012 7.985 1.744 18.922" fill="#D69C05"/></g></g></svg>