<svg width="512" height="512" viewBox="0 0 512 512" xmlns="http://www.w3.org/2000/svg" xmlns:xlink="http://www.w3.org/1999/xlink"><title>minnesota-wild</title><defs><path id="a" d="M0 309.172h473.79V0H0v309.172z"/></defs><g transform="matrix(1 0 0 -1 19.067 411.586)" fill="none" fill-rule="evenodd"><mask id="b" fill="#fff"><use xlink:href="#a"/></mask><g mask="url(#b)"><path d="M269.61 3.637l127.64 125.516-27.054.088L470.7 236.397s-23.392 6.98-31.016 8.276l16.066 12.76c-26.71 6.897-82.02 15.688-140.715 11.81 0 0-12.54 36.294-60.893 36.294-55.227 0-68.452-42.586-68.452-42.586s-66.297-13.795-126.952-53.15l13.095-9.913S44.523 185.88 3.09 153.023c4.49-18.588 22.563-42.616 24.394-44.774 7.14-4.88 31.77-17.977 50.79-24.506 3.49.84 10.34 3.72 10.34 3.72 2.195-.897 12.49-3.675 15.335-4.042-2.026-12.22 6.99-19.12 6.99-19.12l-6.24-3.425s8.488-19.138 50.06-29.008C248.8 52.774 269.61 3.636 269.61 3.636" fill="#EEE3C6"/><path d="M12.73 149.846c4.393-11.726 12.49-24.915 20.246-35.518 2.39-2.135 26.537-14.743 45.533-21.94 2.024.28 8.293 3.124 9.39 3.835 1.1 0 15.036-6.206 33.042-6.206 6.376 0 11.287.647 11.287 1.985 0 1.094-2.657 2.47-3.878 3.013-3.673 1.634-8.53 3.028-8.53 6.996 0 3.966 7.238 9.245 40.064 9.245 20.677 0 34.29-1.15 34.29-1.15v-2.33c-10.582 0-21.55-1.562-28.873-3.363-4.65-1.144-11.923-3.286-11.923-5.602 0-4.257 18.913-4.288 18.913-12.76 0-6.88-7.03-14.396-33.128-14.396-14.11 0-25.482 4.59-26.45 4.59-.97 0-1.164-.32-1.164-.645 0-.48.804-2.08 2.263-4.057 2.043-2.77 5.582-6.277 11.857-8.52l-8.43-4.785c9.56-9.776 32.737-16.498 37.54-17.846 0 0 79.546 20.833 116.444-24.276L372.22 121.05l-23.907.13 95.89 109.094s-18.35 6.64-36.872 10.26l12.622 9.83s-63.757 13.317-115.58 9.114c0 0-9.69 36.49-54.97 36.49-43.853 0-57.983-40.348-57.983-40.348s-52.082-8.492-117.95-46.55l14.043-10.777S57.24 184.186 12.73 149.846" fill="#015836"/><path d="M63.26 121.526s8.744-2.715 32.04-1.216l26.72 16.433 20.462-6.64 6.225 8.728h-6.72l13.633 22.05 11.57-22.05h-5.236l3.488-7.627 14.605 2.648 6.075 7.764h-5.43l8.143 12.476h-6.333l12.858 21.984 11.18-22.5h-5.105l7.884-13.32h-6.14l12.104-21.874L227 135.19h-8.01l12.234 18.533h-7.756l17.75 30.864 15.422-30.864h-6.374l10.337-18.534h-7.236l10.165-22.414 17.405 28.106h-9.562l14.042 23.188h-8.787l19.126 38.275L315.486 162h-6.98l12.668-21.207h-8.703l9.996-20.687 15.766 24.222h-8.445l18.525 26.81h-9.993l29.722 40.864 15.94-28.277 32.996 40.817s-57.55 24.183-142.503 24.183c-112.78 0-176.71-39.654-176.71-39.654s74.01 25.84 155.3 25.84c59.32 0 94.557-13.513 94.557-13.513s-75.926.358-197.988-32.672c19.814 0 31.704-5.734 31.704-5.734s-49.54-8.835-118.896-38.534l8.874-13.144-8.056-9.786z" fill="#BF2B37"/><path d="M220.597 205.517c7.562-6.53 17.415-10.48 28.186-10.48 15.89 0 29.77 8.59 37.265 21.377-18.25-2.35-40.223-5.806-65.45-10.897" fill="#EFB410"/><path d="M205.946 243.606c-.218-1.76-.332-3.554-.332-5.37 0-2.032.142-4.027.414-5.98 15.044 1.634 30.898 2.652 47.037 2.652 14.31 0 27.214-.788 38.565-1.98.214 1.74.323 3.51.323 5.307 0 3.512-.42 6.925-1.21 10.194-5.302.19-10.725.294-16.27.294-25.37 0-48.272-2.008-68.527-5.118" fill="#EFB410"/><path d="M286.59 259.097c-7.353 13.315-21.525 22.333-37.807 22.333-22.023 0-40.194-16.504-42.837-37.824 19.21 7.113 51.186 13.197 80.645 15.49" fill="#EFB410"/><path d="M252.87 222.32c-18.287-.587-51.887-2.215-106.34-15.753-.012-.004-.026-.004-.04-.006-.64 4.227-1.208 7.53-1.208 7.53s-2.204-3.606-4.987-8.646c-13.777-4.96-30.875-12.19-42.206-18.262 6.955 2.422 20.753 6.986 38.92 12.112-1.877-3.653-3.744-7.55-5.19-11.15l9.478 8.534s6.526-3.774 6.87-3.644c-.16 2.267-.5 5.16-.892 8.073 29.29 7.886 66.938 16.692 105.595 21.212" fill="#FFF"/></g></g></svg>