<svg width="512" height="512" viewBox="0 0 512 512" xmlns="http://www.w3.org/2000/svg"><title>montreal-canadiens</title><g fill="none" fill-rule="evenodd"><path d="M396.84 254.715l28.34-30.393-13.497-62.81-60.725-18.234-6.072 6.077s-49.707-14.746-93.34-14.746C160.68 134.61 76 183.35 76 257.08c0 70.127 67.07 123.028 175.546 123.028 99.862 0 186.454-63.934 186.454-63.934l-41.16-61.46zm-196.35 31.657s-34.666-12.663-34.666-28.618c0-20.008 34.665-29.04 34.665-29.04v57.658zm62.864 6.47c-6.972 1.034-16.194.593-16.194.593V278.35h16.194v14.49zm0-57.038H247.16V220.72c14.45-.033 14.19.29 16.194.587v14.497zm45.433 47.614v-52.342c35.424 10.467 54.992 29.042 54.992 29.042s-27 15.872-55 23.3z" fill="#21386F"/><path d="M385.708 261.13c-30.094 20.16-58.758 32.724-90.08 38.624v-84.246c59.332 11.2 82.32 40.558 82.32 40.558l33.737-35.12-11.47-49.978-45.884-12.83-6.07 6.076s-42.84-17.22-101.12-17.22c-92.86 0-158.27 53.69-158.27 110.423 0 61.796 64.74 109.972 156.78 109.972 97.9 0 175.15-54.26 175.15-54.26l-35.09-52.01zm-138.24-49.892c8.866 0 17.208.388 25.05 1.09v33.607h-34.75v-34.538c3.125-.1 6.348-.16 9.7-.16zm-94.378 46.347c0-12.086 8.14-36.683 60.22-44.15v87.643c-61.19-9.854-60.22-43.493-60.22-43.493zm84.68 45.9v-35.43h34.75v34.81c-7.128.598-14.42.9-21.93.9-4.48 0-8.744-.1-12.82-.28z" fill="#FFF"/><path d="M350.283 175.02l6.746-7.43 36.43 10.807 8.1 40.522-24.97 24.99s-40.49-41.88-131.07-41.88c-71.36 0-101.38 30.47-101.38 54.03s26.99 56.73 104.7 56.73c79.84 0 134.5-39.17 134.5-39.17l24.29 36.47s-66.13 48.4-164.64 48.4c-77.938 0-144.848-38.95-144.848-102.09 0-57.41 68.26-100.21 148.722-100.21 67.645 0 103.405 18.82 103.405 18.82z" fill="#BE2F37"/></g></svg>