<svg width="512" height="512" viewBox="0 0 512 512" xmlns="http://www.w3.org/2000/svg" xmlns:xlink="http://www.w3.org/1999/xlink"><title>new-york-rangers</title><defs><path id="a" d="M0 341.987h342.49V0H0v341.987z"/></defs><g transform="matrix(1 0 0 -1 84 427.04)" fill="none" fill-rule="evenodd"><mask id="b" fill="#fff"><use xlink:href="#a"/></mask><g mask="url(#b)"><path d="M320.187 333.25h-65.019l-3.525-3.41-8.253-7.986-9.513 8.884-3.494 3.263H112.32l-3.494-3.262-9.513-8.884-8.253 7.986-3.524 3.41H1.506l25.68-45.274.105-219.654c0-2.11.25-5.423 1.202-9.295 1.426-5.79 4.45-12.87 10.71-18.535 6.255-5.677 15.697-9.743 29.252-9.725h66.74c6.88 0 12.473-1.782 16.94-4.104 4.46-2.32 7.766-5.196 9.934-7.36 2.196-2.193 3.94-4.272 5.124-5.787.592-.76 1.044-1.38 1.344-1.802.15-.21.26-.374.335-.48l.08-.115c.014-.027.017-.03.017-.03l2.035-3.103 2.254 2.95s.306.4.804 1.04c.746.963 1.92 2.458 3.087 3.892 1.16 1.424 2.356 2.827 2.988 3.452.895.9 4.074 3.818 8.847 6.448 4.783 2.64 11.14 5 18.522 4.997h66.742c6.787.002 12.747.874 17.898 2.52 7.717 2.456 13.62 6.705 17.512 12.213 3.9 5.503 5.757 12.185 5.753 19.354v223.368l15.31 26.965 10.26 18.064h-20.796z" fill="#0161AB"/><path d="M229.347 331.375H113.36l-2.737-2.554-11.34-10.593-10.053 9.726-2.76 2.67H6.02l23.795-41.955.106-220.345c0-7.617 3.736-34.93 38.536-34.93h66.74c14.682 0 24.152-7.66 28.734-12.234 4.582-4.576 7.24-8.632 7.24-8.632s5.02 6.564 7.108 8.65c2.09 2.086 13.327 12.215 29.23 12.215h66.742c26.252 0 38.535 13.52 38.535 31.46v224.06l15.654 27.57 8.03 14.14h-80.237l-2.76-2.67-10.05-9.726-11.34 10.594-2.736 2.555zm-3.743-9.472l17.935-16.754 16.536 16.003h60.11l-16.887-29.74V64.852c0-14.77-11.208-21.99-29.05-21.99h-66.742c-24.73 0-36.155-16.705-36.155-16.705s-11.426 16.706-36.156 16.706h-66.74c-17.844 0-29.05 7.22-29.05 21.99v226.558l-16.89 29.74H82.63l16.536-16.003 17.936 16.753H225.604z" fill="#FFF"/><path d="M46.512 183.19V67.245c0-9.92 7.216-17.223 23.3-17.223h63.503c26.33 0 38.033-15.08 38.033-15.08s12.067 15.078 35.596 15.078h24.818L46.512 183.19z" fill="#FFF"/><path d="M296.036 239.415H46.512v-5.928h249.524v5.928z" fill="#FFF"/><path d="M296.037 99.92v6.098L129.71 224.413h-8.48L296.037 99.92z" fill="#FFF"/><path d="M46.512 201.52v-6.083L248.422 50.02h8.6l-210.51 151.5z" fill="#FFF"/><path d="M296.036 118.285v106.127H146.943l149.093-106.127z" fill="#E3393F"/><path d="M75.6 246.79h-6.957l-12.427 28.97v-28.97h-6.984v44.93h7.17l12.213-28.27v28.27H75.6v-44.93z" fill="#FFF"/><path d="M103.52 284.508H92.622v-11.36h10.848v-7.056H92.622v-11.997h10.898v-7.118H85.415v44.712h18.105v-7.182z" fill="#FFF"/><path d="M134.773 246.79l-4.18 23.804-4.13-23.805h-8.454l-7.3 44.994h6.847l4.772-28.223 4.625 28.2h7.185l4.813-27.918 4.46 27.91h7.216l-7.533-44.963h-8.324z" fill="#FFF"/><path d="M186.102 246.914h-7.39v18.57l-9.672 26.26h7.263l6.154-16.532 6.003 16.523h7.404l-9.762-26.44v-18.38z" fill="#FFF"/><path d="M207.156 261.882c0-3.27-.02-4.48.517-5.775.643-1.36 2.16-2.064 3.715-2.064 1.552 0 3.014.728 3.657 2.086.59 1.295.574 2.42.574 5.752v14.752c0 3.332.072 4.397-.516 5.693-.643 1.36-2.164 2.145-3.716 2.145-1.554 0-3.037-.776-3.68-2.133-.536-1.236-.552-2.436-.552-5.706v-14.752zm15.557-.502c0-6.15-.026-7.45-1.713-9.93-1.48-2.17-5.552-4.566-9.66-4.566-3.997 0-7.64 1.603-9.513 4.346-1.687 2.48-1.86 5.254-1.86 10.15v15.865c0 5.16.12 7.687 2.07 10.557 2.07 3.028 5.07 3.938 9.303 3.938 4 0 7.63-1.26 9.503-4.002 2.252-3.31 1.87-4.784 1.87-10.493V261.38z" fill="#FFF"/><path d="M240.537 275.627c3.424 0 5.498-.19 6.743.515 1.323.75 1.424 2.355 1.424 3.988 0 1.59.038 3.076-1.282 3.827-1.246.706-3.46.632-6.885.632h-2.955v-8.963h2.955zm-2.896-28.72h-7.223v44.852h11.64c6.385 0 8.028-.248 10.34-2.13 2.686-2.124 3.465-4.442 3.47-6.963l.006-5.298c0-2.26-1.19-4.854-2.63-6.12-1.8-1.583-3.94-2.112-4.084-2.18l7.935-22.164h-7.315l-7.696 22.113h-4.443v-22.114z" fill="#FFF"/><path d="M272.305 276.464l9.487 15.272h7.278l-8.827-14.39 13.663-30.433h-7.277l-10.71 23.775-3.615-5.58v-18.195h-7.128v44.823h7.128v-15.272z" fill="#FFF"/><path d="M241.446 105.277c2.757-2.02 4.294-3.43 5.797-3.484 1.596-.057 2.815 1.432 3.974 3.006 1.126 1.53 2.21 2.943 1.676 4.446-.502 1.415-2.34 2.653-5.098 4.672l-2.38 1.746-6.35-8.643 2.38-1.743zm-18.206-19.98l-5.825 4.266 26.572 36.163 9.383-6.872c5.15-3.773 6.328-4.943 7.078-7.828.907-3.297.16-5.627-1.328-7.66l-4.406-5.78c-1.338-1.82-3.833-3.21-5.745-3.38-2.39-.214-4.428.624-4.586.654l-5.46-21.054-5.897 4.32 5.58 20.626-3.583 2.624-11.784-16.08z" fill="#FFF"/><path d="M138.248 187.276l-14.07-11.878 7.105-5.033 6.965 16.91zm-19.09-15.744l-7.784-5.95-5.752 4.194 36.618 29.22 5.54-4.406-16.223-43.697-5.815 4.25 3.194 9.126-9.777 7.262z" fill="#FFF"/><path d="M158.043 131.89l-5.7 4.073 6.742 30.905-16.93-23.626-5.726 4.09 26.26 36.64 5.878-4.2-6.512-30.205 16.52 23.053 5.725-4.092-26.257-36.64z" fill="#FFF"/><path d="M170.79 128.386c0 3.926 3.53 8.12 5.25 10.385l7.145 9.87-12.396-20.254zm29.245 2.496l-13.938-18.813-3.262 2.343.163 1.907c-2.536.11-3.59.304-7.232 2.923-3.51 2.522-5.173 6.922-4.977 9.143.474 4.56 3.53 8.12 5.25 10.385l7.145 9.87c4.96 6.88 5.96 8.437 10.12 9.47 3.365.913 5.895-.254 9.648-2.95 4.614-3.32 5.682-6.333 5.682-9.238 0-4.003-1.972-5.753-5.705-10.912l-5.783 4.222c2.63 3.624 5.697 6.69 1.91 9.72-1.598 1.28-2.192 1.72-3.287 1.72-1.746 0-2.395-.358-4.572-3.376l-8.858-12.127c-1.918-2.662-4.194-5.654-4.194-6.69 0-2.033 1.13-2.762 3.16-4.22 3.323-2.388 4.81-.324 8.448 4.723l1.068 1.48-5.76 4.08 3.194 4.66 11.78-8.32z" fill="#FFF"/><path d="M230.94 125.92l-8.732 6.51-6.808-9.103 8.692-6.48-4.227-5.654-8.692 6.48-7.188-9.612 8.733-6.51-4.265-5.702-14.51 10.817 26.79 35.826 14.51-10.816-4.304-5.754z" fill="#FFF"/><path d="M104.772 203.413c2.757-2.02 4.294-3.43 5.797-3.484 1.595-.058 2.814 1.43 3.973 3.005 1.126 1.532 2.21 2.942 1.676 4.446-.503 1.417-2.34 2.655-5.1 4.674l-2.38 1.745-6.348-8.643 2.38-1.744zm-18.208-19.98L80.74 187.7l26.573 36.162 9.383-6.874c5.15-3.772 6.328-4.94 7.078-7.825.907-3.298.16-5.627-1.33-7.662l-4.404-5.778c-1.336-1.82-3.833-3.21-5.743-3.38-2.39-.214-4.43.624-4.587.654l-5.46-21.054-5.897 4.32 5.58 20.626-3.582 2.624-11.786-16.08z" fill="#FFF"/><path d="M276.72 86.328c4.134 3.89 3.46 7.78.753 9.565-2.482 1.638-5.58 2.267-8.03-.844-.952-1.213-1.344-2.955-.972-4.72.31-1.724-.095-2.172 2.242-8.035 1.785-4.696 1.925-7.094 1.925-9.47 0-.562-.148-5.5-2.207-7.643-5.59-5.815-11.2-6.742-18.923-.515-11.693 9.423-.172 19.098.33 20.067l4.74-3.423c-2.394-3.657-6.706-8.547.446-12.515 1.95-1.08 5.434-2.2 7.678.654 1.42 1.805 1.673 4.44-.844 11.017-2.968 7.797-2.84 8.34-3.125 11.087-.26 2.652.517 5.26 2.216 7.42 4.558 5.796 12.653 7.72 19.693 1.56 8.73-7.642 2.957-13.736-.096-18.568l-5.823 4.362z" fill="#FFF"/></g></g></svg>