<svg width="512" height="512" viewBox="0 0 512 512" xmlns="http://www.w3.org/2000/svg" xmlns:xlink="http://www.w3.org/1999/xlink"><title>new-york-islanders</title><defs><path id="a" d="M0 0h362.067v349.836H0z"/><path id="c" d="M0 0h362.067v349.836H0z"/><path id="e" d="M0 0h362.067v349.836H0z"/><path id="g" d="M0 0h362.067v349.836H0z"/><path id="i" d="M0 0h362.067v349.836H0z"/><path id="k" d="M0 0h362.067v349.836H0z"/><path id="m" d="M0 0h362.067v349.836H0z"/><path id="o" d="M0 0h362.067v349.836H0z"/><path id="q" d="M0 0h362.067v349.836H0z"/><path id="s" d="M0 0h362.067v349.836H0z"/><path id="u" d="M0 0h362.067v349.836H0z"/><path id="w" d="M0 0h362.067v349.836H0z"/><path id="y" d="M0 0h362.067v349.836H0z"/><path id="A" d="M0 0h362.067v349.836H0z"/><path id="C" d="M0 0h362.067v349.836H0z"/><path id="E" d="M0 0h362.067v349.836H0z"/><path id="G" d="M0 0h362.067v349.836H0z"/><path id="I" d="M0 0h362.067v349.836H0z"/><path id="K" d="M0 0h362.067v349.836H0z"/><path id="M" d="M0 0h362.067v349.836H0z"/><path id="O" d="M0 0h362.067v349.836H0z"/><path id="Q" d="M0 0h362.067v349.836H0z"/><path id="S" d="M0 0h362.067v349.836H0z"/><path id="U" d="M0 0h362.067v349.836H0z"/><path id="W" d="M0 0h362.067v349.836H0z"/><path id="Y" d="M0 0h362.067v349.836H0z"/><path id="aa" d="M0 0h362.067v349.836H0z"/><path id="ac" d="M0 0h362.067v349.836H0z"/><path id="ae" d="M0 0h362.067v349.836H0z"/><path id="ag" d="M0 0h362.067v349.836H0z"/></defs><g fill="none" fill-rule="evenodd"><g transform="translate(73.924 81.937)"><mask id="b" fill="#fff"><use xlink:href="#a"/></mask><path d="M181.03.004C81.05.004 0 78.32 0 174.924c0 96.6 81.05 174.92 181.03 174.92 99.986 0 181.037-78.32 181.037-174.92C362.067 78.32 281.014.004 181.03.004m0 336.954c-92.87 0-168.147-72.547-168.147-162.035 0-89.49 75.277-162.036 168.147-162.036 92.866 0 168.146 72.546 168.146 162.036s-75.28 162.035-168.146 162.035" fill="#FFF" mask="url(#b)"/></g><g transform="translate(73.924 81.937)"><mask id="d" fill="#fff"><use xlink:href="#c"/></mask><path d="M186.104 225.574c-.94 1.93-2.784 3.262-4.92 3.56l-72.465 9.987c-.65.1-1.24.44-1.62.97-.39.51-.55 1.18-.45 1.81l4.41 29.05c.1.668.48 1.27 1.04 1.65.563.38 1.255.5 1.92.35l7.186-1.726 4.287-16.74c.147-.576.72-.925 1.3-.79l14.08 3.46c.426.09.744.448.805.87l1.26 8.02 9.042-2.162v-3.633c0-.386.162-.757.45-1.014.286-.26.67-.38 1.05-.334l11.23 1.33c.315.03.565.203.78.423l21.56-5.148c1.92-.455 3.507-1.757 4.354-3.543l13.373-28.518-14.1-7.2-4.595 9.34z" fill="#FFF" mask="url(#d)"/></g><g transform="translate(73.924 81.937)"><mask id="f" fill="#fff"><use xlink:href="#e"/></mask><path d="M193.583 210.363l-1.155 2.36 14.032 7.17 1.118-2.385-13.995-7.145z" fill="#FFF" mask="url(#f)"/></g><g transform="translate(73.924 81.937)"><mask id="h" fill="#fff"><use xlink:href="#g"/></mask><path d="M198.66 200.033l-.467.946 13.827 7.05 1.12-2.38-13.783-7.04-.696 1.41z" fill="#FFF" mask="url(#h)"/></g><g transform="translate(73.924 81.937)"><mask id="j" fill="#fff"><use xlink:href="#i"/></mask><path d="M196.468 204.49l-1.153 2.362 13.925 7.114 1.118-2.384-13.89-7.09z" fill="#FFF" mask="url(#j)"/></g><g transform="translate(73.924 81.937)"><mask id="l" fill="#fff"><use xlink:href="#k"/></mask><path d="M243.967 107.85l-33.55-72.4c-.392-.858-1.253-1.407-2.196-1.407h-58.23c-1.34 0-2.43 1.09-2.43 2.434v47.408l-25.63-49.58C106.65 40.24 92.57 48.39 80.1 58.367v88.213c0 1.34 1.08 2.434 2.42 2.434h33.07c1.33 0 2.42-1.094 2.42-2.434v-39.432l24.35 40.686c.44.73 1.23 1.18 2.082 1.18h37.083c1.338 0 2.43-1.094 2.43-2.434V70.078l38.144 82.28-4.568 9.272-16.457 33.47 13.72 7.008 1.83-3.897 8.32-17.77 4.11-8.75 8.46-18.04 44.62-95.13c-3.29-2.64-6.7-5.14-10.22-7.51l-27.96 56.85z" fill="#FFF" mask="url(#l)"/></g><g transform="translate(73.924 81.937)"><mask id="n" fill="#fff"><use xlink:href="#m"/></mask><path d="M234.055 210.128c-12.256 0-22.186 3.368-22.186 7.515 0 4.132 9.93 7.492 22.18 7.492 12.24 0 22.18-3.36 22.18-7.492 0-4.147-9.94-7.515-22.18-7.515" fill="#FFF" mask="url(#n)"/></g><g transform="translate(73.924 81.937)"><mask id="p" fill="#fff"><use xlink:href="#o"/></mask><path d="M204.798 223.44l1.662-3.548-14.032-7.168-1.73 3.512 14.1 7.205z" fill="#F47D30" mask="url(#p)"/></g><g transform="translate(73.924 81.937)"><mask id="r" fill="#fff"><use xlink:href="#q"/></mask><path d="M119.396 209.106c5.825-6.6 14.088 1.21 21.013-2.966 5.35-2.74 9.92 2.058 15.66 1.18 3.6-.06 9.05-4.055 12.17.742 2.63 1.28 6.33.803 8.56-.86 1.39-5.057 7.19-3.097 11.02-4.263 2.52-.57 7.46-3.11 10.83-2.91l.693-1.42 13.782 7.03 1.66-3.54-13.716-7.017 16.457-33.474c-9.74-1.547-21.83 4.91-30.33.382-9.79-.305-21.187.34-29.86-4.258-5.634-.905-11.668-.82-16.79-2.88-2.748 5.153-5.84-1.684-9.135-.685-1.986.636-3.64 2.81-3.24 5.14-1.014 5.34-7.497 2.216-10.834 4.463-6.12 3.48-9.518-5.3-15.366-5.22-3.985-1.085-8.74-.6-10.955 3.478-3.44.878-5.2-3.613-9.098-2.15-2.71-1.682 1.202-2.843.206-4.88-2.23-2.443-6.385-4.22-9.525-2.164-.574 4.186 3.9 7.796 1.54 12.184-2.335.485-2.203-2.92-4.17-3.715-2.246-1.087-2.336 1.656-3.537 2.714-4.37-.2-3.46-5.08-4.827-7.72-5.075-.79-9.14 2.32-13.323 4.164-2.93 2.23-1.012 7.013-3.536 9.35-1.955-1.47-1.754-4.3-3.69-6.054-1.64-1.08-3.603-1.86-5.63-1.155-1.874.456-2.415 2.015-2.81 3.658.05.982 1.036 1.76 2.107 1.48 1.26.293 2.23 1.773 1.64 3.014-.65.886-1.054 2.67-2.61 2.343-1.664-1.586-3.99-3.8-6.34-2.84-.99.873-.004 2.054-.004 3.023-1.063 3.593 1.568 5.657 3.508 8.2.66 2.807.94 6.91-1.21 8.95-2.895.576-3.616 3.78-3.903 6.223.69 2.45 3.38 2.26 4.364 4.296.53 1.674-1.29 2.937-2.777 3.878.577 2.77 1.24 5.51 1.974 8.235 1.772-.7 3.793-1.364 4.953-1.174.974.49 1.666 1.38 1.666 2.36.94 1.84 2.91 3.688 5.145 2.63 2.24-.97 4.276-4.062 6.69-2.8v-20.42l10.44 9.175v10.58c3.876-.09 8.293.303 11.866-1.14 7.09.53 15.56 2.48 21.717-1.575 5.457-.98 10.5-2.824 16.357-2.81 3.996-.276 7.48 1.48 11.193 1.21" fill="#F47D30" mask="url(#r)"/></g><g transform="translate(73.924 81.937)"><mask id="t" fill="#fff"><use xlink:href="#s"/></mask><path d="M240.93 164.986c3.914-5.177 13.933 1.022 15.217-6.98 1.557-4.17 6.227-2.616 9.144-4.674.89-1.545-.66-2.618-.96-3.983 3.83-4.18 8.98-7.08 13.08-11.36 2.93-2.91 7.51-2.25 11.3-2.32 1.756-1.06 4.31-2.63 4.68-4.66l-.492-.7c-5.36-.79-11.16.18-16.14 1.81-5.575 5.04-11.726 8.64-18.406 10.68-4.55 5.79-14.03 8.5-20.81 10.84l-8.464 18.04c4.283-1.14 9.96-4.19 11.863-6.7" fill="#F47D30" mask="url(#t)"/></g><g transform="translate(73.924 81.937)"><mask id="v" fill="#fff"><use xlink:href="#u"/></mask><path d="M210.358 211.573l1.662-3.54-13.827-7.054-1.716 3.51 13.88 7.08z" fill="#F47D30" mask="url(#v)"/></g><g transform="translate(73.924 81.937)"><mask id="x" fill="#fff"><use xlink:href="#w"/></mask><path d="M195.315 206.844l-1.732 3.52 13.995 7.144 1.662-3.542-13.925-7.122z" fill="#F47D30" mask="url(#x)"/></g><g transform="translate(73.924 81.937)"><mask id="z" fill="#fff"><use xlink:href="#y"/></mask><path d="M181.03 12.892c-92.87 0-168.147 72.54-168.147 162.036 0 89.484 75.277 162.03 168.147 162.03 92.866 0 168.146-72.547 168.146-162.03.002-89.495-75.28-162.036-168.146-162.036m0 313.684c-87.158 0-157.798-67.892-157.798-151.648 0-46.864 22.12-88.74 56.858-116.56 12.468-9.982 26.563-18.122 41.837-24.062 18.26-7.09 38.2-11.038 59.103-11.038 33.863 0 65.196 10.286 90.894 27.73 3.522 2.38 6.923 4.873 10.216 7.518 30.247 24.293 50.852 59.244 55.606 98.858l-3.364 1.132c-1.995 7.5-10.61 2.526-14.258 7.858-4.64.26-9.7.665-12.142 5.347-1.48.46-3.61.46-4.186-1.38.998-4.3-6.015-5.78-2.78-10.36-.195-1.94-2.547-2.13-4.02-1.56-3.082 1.15-3.325 4.48-3.686 7.19-4.225.78-4.58-6.62-9.16-4.87-4.682 4.467-10.608 6.515-17.34 5.33-11.947-.92-15.89 14.66-26.104 17.94-4.383.68-10.973-1.85-15.748-3.546l-8.333 17.77 4.86-1.21c3.225-.77 5.78-2.923 8.697-4.45 4.73 3.61 5.522-3.33 9.346-3.71 2.432-.56 4.465 1.59 6.015 3.347 5.743 2.45 12.672.82 17.365-3.06 5.017-2.145 11.43-1.253 16.524-3.463 3.407-2.253 6.71-4.955 11.523-4.176 14.28-4.914 32.716-10.984 47.535-16.182.21 3.187.34 6.39.34 9.627-.006 83.76-70.645 151.65-157.8 151.65" fill="#F47D30" mask="url(#z)"/></g><g transform="translate(73.924 81.937)"><mask id="B" fill="#fff"><use xlink:href="#A"/></mask><path d="M86.528 232.416l-15.066-13.59c-5.834-5.255-9.903-.64-9.903 2.73v14.04c0 2.7.9 4.288 2.11 5.88l13.64 17.835c.76 1 1.06 1.99 1.06 3.21v1.98c0 1.59-1.4 1.45-2.49.46l-2.95-2.52c-1.05-.81-.95-2.48-.95-3.93v-1.8c0-.97-1.03-2.69-2.064-3.54l-6.82-6.23c-1.028-.993-1.55-.16-1.55 2.5v8.14c0 2.12 1.396 6.41 4.577 9.28l15.61 14.068c3.79 3.38 7.067.1 7.067-7.725v-8.974c0-4.45-1.983-8.947-4.304-11.988l-11.48-14.964s-1.033-1.37-1.033-3.118v-1.55s.406-2.25 2.2-.62l2.926 2.638c.76.705 1.26 1.763 1.26 3.026v2.12c0 1.227.32 2.15 1.475 3.21l5.5 4.95c2.324 2.09 3.46.574 3.46-1.25v-8.436c0-3.104-1.34-4.967-2.28-5.813" fill="#F47D30" mask="url(#B)"/></g><g transform="translate(73.924 81.937)"><mask id="D" fill="#fff"><use xlink:href="#C"/></mask><path d="M111.988 290.59l-8.263-4.906v-41.267c0-.468-.25-.915-.665-1.15l-7.737-4.6c-.42-.244-.93-.26-1.356-.008-.416.23-.673.68-.673 1.15v48.82c0 .48.24.92.658 1.16l16.658 9.9c.42.24.936.25 1.355.004.423-.243.68-.69.68-1.166v-6.798c0-.476-.257-.908-.657-1.157" fill="#F47D30" mask="url(#D)"/></g><g transform="translate(73.924 81.937)"><mask id="F" fill="#fff"><use xlink:href="#E"/></mask><path d="M142.963 266.032l-1.27-8.022c-.06-.423-.377-.773-.804-.88l-14.09-3.45c-.58-.136-1.16.205-1.3.78l-4.29 16.748-7.42 29c-.15.55.16 1.12.71 1.3l8.29 2.695c.29.083.6.06.86-.075.256-.15.44-.393.52-.68l2.143-8.485 11.35 3.7 1.64 10.308c.055.4.342.73.727.85l8.678 2.83c.354.12.746.05 1.033-.2.29-.25.42-.61.37-.98l-7.16-45.43zm-14.33 19.79l4.31-17.02 3.08 19.436-7.39-2.417z" fill="#F47D30" mask="url(#F)"/></g><g transform="translate(73.924 81.937)"><mask id="H" fill="#fff"><use xlink:href="#G"/></mask><path d="M189.29 263.126l-7.736-.916c-.385-.045-.76.082-1.05.325-.294.258-.456.63-.456 1.014v27.08l-14.26-29.67c-.07-.13-.18-.22-.277-.33-.21-.21-.46-.396-.78-.42l-11.22-1.33c-.38-.053-.77.07-1.05.327-.28.26-.45.63-.45 1.015v51.712c0 .67.5 1.254 1.16 1.336l7.75 1.06c.387.06.775-.062 1.06-.32.295-.25.46-.62.46-1.012v-31.4l16.887 32.96c.244.49.746.777 1.27.75l8.636-.524c.714-.033 1.27-.633 1.27-1.335v-48.98c0-.69-.513-1.267-1.194-1.34" fill="#F47D30" mask="url(#H)"/></g><g transform="translate(73.924 81.937)"><mask id="J" fill="#fff"><use xlink:href="#I"/></mask><path d="M219.123 258.275l-21.648 4.32c-.634.13-1.088.682-1.088 1.333v48.736c0 .395.19.764.492 1.03.3.26.71.364 1.08.29l21.15-3.78c10.43-1.866 10.43-8.15 10.43-9.497V262.46s0-6.264-10.43-4.185zm0 38.384s0 4.59-4.066 5.31l-8.236 1.48v-32.78l7.76-1.56c4.55-.9 4.55 3.33 4.55 3.33v24.21z" fill="#F47D30" mask="url(#J)"/></g><g transform="translate(73.924 81.937)"><mask id="L" fill="#fff"><use xlink:href="#K"/></mask><path d="M256.374 243.692c-.31-.197-.704-.22-1.044-.06l-19.51 9.573c-.368.175-.603.56-.603.962v49.092c0 .37.19.71.492.9.31.2.69.21 1.02.07l19.51-8.796c.384-.175.63-.56.63-.986v-6.94c0-.364-.187-.696-.497-.89-.31-.213-.688-.243-1.02-.09l-8.2 3.7c-.333.143-.71.12-1.03-.085-.3-.197-.49-.54-.49-.9v-9.287c0-.44.248-.817.626-.987l9.973-4.505c.383-.174.633-.553.633-.98v-6.976c0-.377-.19-.72-.513-.92-.31-.19-.702-.21-1.042-.046l-8.13 3.986c-.332.16-.725.136-1.043-.052-.317-.208-.505-.548-.505-.92v-9.93c0-.406.234-.793.595-.967l10.04-4.912c.37-.19.6-.56.6-.97v-7.19c.003-.365-.185-.71-.51-.908" fill="#F47D30" mask="url(#L)"/></g><g transform="translate(73.924 81.937)"><mask id="N" fill="#fff"><use xlink:href="#M"/></mask><path d="M279.932 259.667s6.105-4.563 6.105-12.866v-12.85c0-6.82-4.36-7.46-9.324-4.02l-16.276 11.25c-.294.197-.468.53-.468.894v48.53c0 .396.21.757.57.95.36.19.78.177 1.11-.066l8.28-5.622c.286-.204.47-.54.47-.885v-18.73l1.71-1.18 9.08 11.897c.346.456.98.56 1.465.244l6.056-4.14c.243-.165.41-.422.453-.71.043-.303-.03-.605-.21-.834l-9.04-11.854zm-3.22-11.147c0 1.765-1.026 3.815-2.28 4.677l-2.334 1.62c-.333.228-.756.26-1.11.076-.365-.196-.576-.558-.576-.97v-8.626c0-.348.166-.68.47-.878l3.392-2.35c1.353-.94 2.44-.03 2.44 1.42v5.02z" fill="#F47D30" mask="url(#N)"/></g><g transform="translate(73.924 81.937)"><mask id="P" fill="#fff"><use xlink:href="#O"/></mask><path d="M302.72 203.56l-10.502 11.616c-2.69 3.028-3.31 6.25-3.31 9.96v4.943c0 3.46.704 6.56 5.184 7.49l5.744 1.3c1.857.41 2.885.92 2.885 2.27v1.25c0 2.03-.46 2.536-1.32 3.4-.84.84-2.81 2.87-2.81.333v-2.16c0-1.8-.75-1.8-1.89-.65l-6.627 6.826c-.784.724-1.15 1.572-1.15 2.965v4.36c0 7.827 4.04 9.355 8.163 3.92l9.94-13.137c4.08-5.4 4.08-10.81 4.08-13.91 0-3.724-3.172-5.25-5.47-5.654l-4.85-.84c-1.73-.32-2.19-1.515-2.19-3.18V222c0-.8 0-2.912 1.41-4.39l.976-1c1.02-1.04 1.754-1.04 1.754.85v3.824c0 .78.44 1.25 1.14.52l6.073-6.297c1.035-1.07 1.156-2.727 1.156-3.85v-6.38c.005-6.62-4.53-5.98-8.37-1.74" fill="#F47D30" mask="url(#P)"/></g><g transform="translate(73.924 81.937)"><mask id="R" fill="#fff"><use xlink:href="#Q"/></mask><path d="M47.826 214.08v27.954l7.397 10.648c1.85 2.665 3.04 2.02 3.04-.28V213.42c-3.334.9-7.255-.196-10.437.66" fill="#F47D30" mask="url(#R)"/></g><g transform="translate(73.924 81.937)"><mask id="T" fill="#fff"><use xlink:href="#S"/></mask><path d="M256.237 229.957v-12.322c0 4.148-9.942 7.5-22.182 7.5-12.256 0-22.186-3.352-22.186-7.5v12.322c0 4.147 9.93 7.5 22.18 7.5 12.24 0 22.18-3.353 22.18-7.5" fill="#F47D30" mask="url(#T)"/></g><g transform="translate(73.924 81.937)"><mask id="V" fill="#fff"><use xlink:href="#U"/></mask><path d="M58.26 213.42v-10.58l-10.434-9.172v20.41c3.184-.854 7.11.242 10.434-.657" fill="#00539B" mask="url(#V)"/></g><g transform="translate(73.924 81.937)"><mask id="X" fill="#fff"><use xlink:href="#W"/></mask><path d="M338.477 165.3c-14.808 5.208-33.245 11.276-47.527 16.184-4.813-.78-8.116 1.922-11.522 4.177-5.092 2.21-11.51 1.32-16.526 3.47-4.693 3.88-11.622 5.51-17.363 3.06-1.55-1.76-3.59-3.9-6.02-3.34-3.83.38-4.62 7.32-9.34 3.71-2.93 1.53-5.47 3.68-8.71 4.45l-4.86 1.21-1.82 3.91-1.66 3.54-1.12 2.387-1.66 3.54-1.12 2.386-1.67 3.546-1.11 2.375-1.67 3.56-13.373 28.514c-.85 1.786-2.45 3.087-4.353 3.54l-21.56 5.14c.11.105.217.197.28.318l14.27 29.68V263.56c0-.378.16-.757.45-1.012.288-.252.67-.38 1.046-.333l7.74.922c.68.073 1.194.65 1.194 1.33v48.988c0 .72-.56 1.308-1.28 1.356l-8.623.51c-.53.04-1.03-.254-1.274-.733l-16.876-32.97v31.407c0 .385-.17.756-.466 1.013-.29.256-.68.38-1.07.325l-7.74-1.06c-.665-.1-1.167-.676-1.167-1.34v-48.09l-9.04 2.166 7.162 45.43c.05.367-.08.75-.36.985-.298.25-.687.318-1.04.213l-8.677-2.83c-.384-.128-.67-.46-.73-.855l-1.633-10.307-11.353-3.7-2.14 8.47c-.075.286-.264.536-.525.69-.255.13-.565.16-.852.073l-8.3-2.7c-.54-.174-.85-.736-.71-1.297l7.43-29-7.2 1.73c-.656.15-1.35.026-1.91-.35-.563-.38-.943-.986-1.043-1.65l-4.42-29.047c-.1-.638.064-1.3.45-1.81.385-.526.973-.87 1.616-.965l72.47-9.99c2.132-.295 3.964-1.63 4.912-3.56l4.602-9.337 1.722-3.515 1.16-2.36 1.72-3.52 1.153-2.352 1.73-3.51.46-.94c-3.37-.212-8.33 2.33-10.836 2.9-3.833 1.155-9.628-.796-11.02 4.26-2.243 1.662-5.933 2.14-8.566.86-3.12-4.797-8.567-.802-12.17-.74-5.74.87-10.307-3.92-15.66-1.18-6.926 4.175-15.19-3.634-21.02 2.957-3.71.285-7.2-1.477-11.19-1.206-5.848-.013-10.897 1.83-16.35 2.81-6.16 4.065-14.62 2.098-21.726 1.575-3.57 1.445-7.996 1.044-11.865 1.14v38.99c0 2.31-1.19 2.943-3.04.27l-7.4-10.64v-27.94c-2.415-1.257-4.447 1.83-6.683 2.79-2.235 1.067-4.2-.78-5.15-2.62 0-.98-.68-1.852-1.658-2.37-1.165-.17-3.19.495-4.953 1.186-.742-2.725-1.4-5.464-1.97-8.234 1.485-.93 3.294-2.19 2.775-3.87-.99-2.04-3.676-1.843-4.37-4.3.295-2.44 1.005-5.643 3.906-6.22 2.15-2.032 1.875-6.13 1.206-8.96-1.94-2.54-4.563-4.594-3.503-8.192 0-.96-.98-2.138.02-3.02 2.34-.96 4.67 1.262 6.327 2.835 1.563.327 1.963-1.455 2.614-2.33.59-1.25-.386-2.72-1.64-3.022-1.065.28-2.066-.498-2.105-1.47.383-1.647.934-3.21 2.804-3.67 2.023-.705 3.995.08 5.635 1.16 1.933 1.75 1.734 4.58 3.69 6.055 2.525-2.333.604-7.12 3.537-9.35 4.18-1.84 8.247-4.96 13.324-4.17 1.37 2.655.45 7.536 4.83 7.73 1.2-1.063 1.29-3.806 3.54-2.72 1.964.8 1.83 4.202 4.17 3.72 2.35-4.377-2.12-7.995-1.54-12.18 3.134-2.054 7.293-.28 9.522 2.16 1 2.04-2.914 3.2-.21 4.88 3.9-1.464 5.65 3.04 9.09 2.16 2.22-4.08 6.987-4.57 10.96-3.48 5.86-.078 9.258 8.71 15.37 5.222 3.34-2.24 9.82.874 10.83-4.465-.394-2.336 1.264-4.497 3.24-5.13 3.29-1.007 6.388 5.825 9.14.67 5.115 2.06 11.16 1.974 16.79 2.88 8.668 4.596 20.07 3.954 29.85 4.25 8.51 4.526 20.598-1.93 30.33-.38l4.557-9.266-38.145-82.287v76.51c0 1.34-1.084 2.426-2.42 2.426h-37.09c-.854 0-1.645-.45-2.074-1.177L118 107.16v39.427c0 1.34-1.085 2.426-2.42 2.426H82.52c-1.35 0-2.435-1.087-2.435-2.427v-88.22c-34.738 27.822-56.857 69.7-56.857 116.56 0 83.752 70.64 151.652 157.803 151.652 87.15 0 157.79-67.9 157.79-151.655 0-3.23-.13-6.436-.35-9.622zM88.812 246.674c0 1.815-1.14 3.337-3.468 1.235l-5.492-4.95c-1.16-1.06-1.477-1.99-1.477-3.22v-2.118c0-1.27-.502-2.323-1.255-3.035l-2.924-2.636c-1.8-1.62-2.206.63-2.206.63v1.543c0 1.76 1.03 3.13 1.03 3.13l11.482 14.955c2.327 3.04 4.31 7.535 4.31 11.984v8.974c0 7.817-3.282 11.114-7.07 7.734l-15.6-14.084c-3.19-2.872-4.583-7.15-4.583-9.274v-8.14c0-2.662.52-3.486 1.55-2.494l6.8 6.24c1.04.84 2.064 2.573 2.064 3.543v1.8c0 1.455-.1 3.128.95 3.93l2.95 2.52c1.082.985 2.484 1.138 2.484-.467v-1.97c0-1.21-.287-2.206-1.06-3.206l-13.62-17.84c-1.22-1.574-2.127-3.164-2.127-5.865v-14.04c0-3.38 4.067-7.99 9.9-2.73l15.07 13.583c.94.85 2.287 2.71 2.287 5.813v8.448zm23.828 51.863c0 .492-.253.93-.68 1.172-.415.24-.936.24-1.352-.02l-16.66-9.89c-.41-.25-.66-.69-.66-1.16v-48.82c0-.49.26-.93.678-1.18.423-.238.933-.238 1.36.01l7.737 4.595c.412.25.658.685.658 1.155v41.267l8.27 4.914c.41.24.66.687.66 1.16v6.78zm116.91 2.172c0 1.33 0 7.62-10.433 9.49l-21.15 3.79c-.387.06-.786-.04-1.097-.3-.302-.27-.476-.65-.476-1.04v-48.73c0-.65.447-1.21 1.082-1.33l21.64-4.316c10.435-2.08 10.435 4.18 10.435 4.18v38.25zm-17.682-70.75v-12.32c0-4.15 9.93-7.52 22.185-7.52 12.24 0 22.177 3.37 22.177 7.51v12.324c0 4.146-9.936 7.5-22.177 7.5-12.254 0-22.185-3.354-22.185-7.5zm45.02 21.84c0 .41-.243.78-.612.97l-10.026 4.92c-.37.17-.59.54-.59.97v9.91c0 .38.182.73.498.92.318.2.71.22 1.042.04l8.13-3.98c.335-.164.726-.15 1.045.056.315.202.514.544.514.915v6.977c0 .42-.25.81-.65.982l-9.96 4.49c-.39.17-.63.556-.63.986v9.3c0 .343.18.692.48.89.31.196.69.235 1.03.075l8.19-3.692c.33-.15.72-.12 1.022.084.302.203.497.535.497.904v6.93c0 .43-.24.818-.64.985l-19.504 8.795c-.334.16-.725.13-1.03-.06-.316-.204-.497-.544-.497-.92v-49.08c0-.41.225-.78.603-.97l19.51-9.56c.33-.16.724-.143 1.04.054.32.196.514.545.514.917v7.198-.006zm31.842 21.26l-6.06 4.12c-.483.325-1.12.22-1.467-.24l-9.083-11.89-1.706 1.19v18.704c0 .357-.183.69-.47.902l-8.288 5.62c-.325.226-.763.25-1.11.07-.35-.197-.576-.56-.576-.955v-48.54c0-.356.173-.68.468-.886l16.276-11.246c4.964-3.43 9.325-2.8 9.325 4.02v12.86c0 8.3-6.11 12.853-6.11 12.853l9.03 11.867c.18.235.252.53.21.832-.05.286-.21.543-.45.71zm22.357-61.4c0 1.122-.105 2.774-1.14 3.85l-6.082 6.293c-.704.726-1.143.257-1.143-.523v-3.822c0-1.89-.724-1.89-1.752-.845l-.975 1c-1.412 1.472-1.412 3.585-1.412 4.387v2.667c0 1.664.46 2.87 2.205 3.17l4.836.85c2.3.4 5.465 1.93 5.465 5.644 0 3.12 0 8.516-4.08 13.92l-9.94 13.147c-4.13 5.424-8.17 3.903-8.17-3.93v-4.36c0-1.39.36-2.24 1.143-2.97l6.635-6.826c1.133-1.15 1.886-1.15 1.886.655v2.16c0 2.526 1.963.5 2.81-.35.87-.846 1.33-1.345 1.33-3.388v-1.256c0-1.35-1.035-1.86-2.885-2.27l-5.744-1.3c-4.49-.94-5.18-4.035-5.18-7.5v-4.935c0-3.724.62-6.94 3.307-9.97l10.504-11.614c3.836-4.246 8.364-4.88 8.364 1.733v6.38h-.003z" fill="#00539B" mask="url(#X)"/></g><g transform="translate(73.924 81.937)"><mask id="Z" fill="#fff"><use xlink:href="#Y"/></mask><path d="M136.018 288.238l-3.078-19.436-4.31 17.02 7.388 2.416z" fill="#00539B" mask="url(#Z)"/></g><g transform="translate(73.924 81.937)"><mask id="ab" fill="#fff"><use xlink:href="#aa"/></mask><path d="M147.557 36.477c0-1.34 1.084-2.434 2.43-2.434h58.226c.953 0 1.814.55 2.207 1.412l33.548 72.394 27.956-56.86c-25.69-17.45-57.038-27.73-90.89-27.73-20.903 0-40.85 3.95-59.11 11.04l25.634 49.58V36.47z" fill="#00539B" mask="url(#ab)"/></g><g transform="translate(73.924 81.937)"><mask id="ad" fill="#fff"><use xlink:href="#ac"/></mask><path d="M258.338 142.81c6.688-2.04 12.823-5.643 18.407-10.68 4.986-1.64 10.782-2.595 16.14-1.82l.498.704c-.38 2.036-2.932 3.595-4.685 4.658-3.793.076-8.372-.583-11.302 2.316-4.096 4.28-9.25 7.184-13.073 11.36.3 1.357 1.844 2.443.975 3.976-2.923 2.07-7.592.503-9.15 4.68-1.284 8.008-11.305 1.807-15.22 6.982-1.903 2.513-7.585 5.567-11.862 6.697l-4.11 8.756c4.774 1.68 11.363 4.23 15.746 3.54 10.216-3.28 14.16-18.87 26.114-17.93 6.724 1.17 12.65-.86 17.334-5.34 4.58-1.75 4.943 5.65 9.16 4.87.36-2.7.602-6.04 3.693-7.18 1.457-.59 3.815-.39 4.01 1.55-3.235 4.58 3.78 6.06 2.78 10.36.57 1.844 2.706 1.844 4.18 1.38 2.45-4.67 7.505-5.078 12.16-5.34 3.632-5.34 12.254-.357 14.25-7.86l3.37-1.14c-4.76-39.606-25.366-74.566-55.603-98.85l-44.62 95.124c6.77-2.33 16.25-5.035 20.808-10.83" fill="#00539B" mask="url(#ad)"/></g><g transform="translate(73.924 81.937)"><mask id="af" fill="#fff"><use xlink:href="#ae"/></mask><path d="M274.266 242.073l-3.392 2.346c-.296.19-.462.52-.462.89v8.62c0 .4.227.76.575.95.347.19.784.16 1.11-.07l2.343-1.62c1.254-.87 2.268-2.92 2.268-4.68v-5.03c0-1.45-1.08-2.36-2.442-1.42" fill="#00539B" mask="url(#af)"/></g><g transform="translate(73.924 81.937)"><mask id="ah" fill="#fff"><use xlink:href="#ag"/></mask><path d="M214.582 269.127l-7.752 1.55v32.786l8.23-1.485c4.055-.725 4.055-5.32 4.055-5.32v-24.216c.002-.002.002-4.223-4.533-3.315" fill="#00539B" mask="url(#ah)"/></g></g></svg>