<svg width="512" height="512" viewBox="0 0 512 512" xmlns="http://www.w3.org/2000/svg"><title>pittsburgh-penguins</title><g fill="none" fill-rule="evenodd"><path d="M386.68 221.513c-.546.816-1.513 2.23-2.414 3.543 2.38.8 4.842 1.737 7.274 2.74 2.514 1.04 6.423 2.452 10.66 3.914-.057-1.873-.123-4.016-.158-5.09-2.364-.796-12.847-4.253-15.363-5.107z" fill="#FFF"/><path d="M432.16 231.643c-1.803 4.22-7.108 8.174-8.31 9.057.014.956-.204 2.128-.632 3.42-.948 2.795-5.132 7-13.51 5.584-8.398-1.393-11.66-2.79-11.66-2.79s-4.183 10.246-13.494 6.52c0 0-1.4 12.595-8.384 16.327-6.98 3.73-54.962 20.5-54.962 20.5s-.477 1.05-1.7 2.13l-10.368 18.06 1.375 7.78s8.38 9.79 8.38 16.79l-6.052 2.79h-1.277c.58 1.81 1.258 3.95 1.62 5.04h8.258v6.89h-34.877l-41.317 71.91-45.382-77.17c-4.436 3.8-9.057 6.13-12.56 6.13l-8.446.02H95.97l14.224-25.64h76.603c.56 0 1.07-.014 1.582-.05L82.42 144.79h54.424l6.932-6.95s6.05-6.08 8.377-12.6c2.332-6.53 4.66-12.58 13.97-18.65 9.315-6.044 15.366-9.31 21.437-12.12 6.05-2.792 14.43-3.73 21.415 3.726 6.986 7.46 10.705 10.727 13.036 13.06 2.33 2.334 6.99 13.056 20.5 7.454 13.5-5.584 33.53-16.307 46.11-15.848 12.56.476 33.52 11.642 40.51 19.577 0 0 5.58-4.92 11.64-4.2 5.12.624 7.47 6.07 12.12 15.39 0 0 10.71 2.79 10.71 8.864 0 0 .26-.07.63-.035.21-.22.398-.43.61-.647 2.35-2.35 3.76-3.765 5.34-4.82.36-.238.75-.39 1.16-.527-.334-.89-.8-2.62.44-3.578 1.686-1.326 5.678-2.807 9.876.85 3.624 3.17 3.724 4.43 3.724 4.43s3.06 3.66 1.293 6.603h17.64l-58.87 102.49c.147.65.32 1.31.475 1.977 0 0 7.45 2.79 9.777 5.582 0 0 6.506 0 9.79-.46 3.243-.46 3.72-.46 4.18-2.337.475-1.87.475-3.724-.46-6.977-.936-3.267-2.333-19.577 1.87-21.45 1.24-.56 2.87-.7 4.755-.525.02-1.926.05-4.325.05-5.517-1.95-.646-7.83-2.605-7.83-2.605l2.16-6.555 62.97 20.872-1 2.362z" fill="#FFF"/><path d="M293.418 337.803l-2.687 4.665h10.97c.29-1.037.85-2.996 1.33-4.665h-9.6z" fill="#FFF"/><path d="M413.536 230.417c-.652.902-1.91 2.62-2.993 4.12 2.734.904 5.265 1.737 7.323 2.398-.423-2.195-.88-4.51-1.07-5.428-1.088-.358-2.004-.665-3.26-1.09z" fill="#FFF"/><path d="M305.47 337.803l-2.005 7.03H283.85l-2.57-7.03h-3.924l-2.225 7.03h-6.54l-3.98-7.03h-2.65c-1.1 1.6-3.98 6.06-4.27 9.587h61.4v-2.2h-7.63l-2.35-7.387h-3.63z" fill="#FFF"/><path d="M378.16 223.42c1.192.22 2.448.53 3.76.9l3.805-5.597 18.63 6.177.218 7.63c1.21.406 2.433.816 3.637 1.226l4.425-6.114 6.22 2.06 1.578 8.068c1.237.41 2.073.68 2.313.75.015 0 .015.018.034.018 1.446-1.057 5.796-4.478 7.223-7.833l-58.317-19.32-.678 2.08 7.238 2.397-.086 7.557z" fill="#FFF"/><path d="M240.185 250.162c5.372 3.422 10.672 6.56 15.875 9.367 10.76-11.31 34.247-36.05 52.704-55.45-5.657-7.48-12.473-15.44-20.615-23.82-47.03-48.5-79.52-20.75-85.22-11.66-13.52 21.45-3.73 55.46 37.25 81.56z" fill="#FFF"/><path d="M270.644 266.83c27.857 12.67 50.29 15.424 57.565 7.118 7.18-8.24 7.58-28.855-11.49-58.51-15.99 17.888-35.34 39.48-46.08 51.393z" fill="#FFF"/><path d="M126.545 159.278c-3.724 4.202-4.18 16.324-4.18 16.324l30.268-26.116-12.115 22.37s20.493-9.312 22.35-13.978c0 0-4.196-10.246-13.496-19.58 0 0-19.088 16.79-22.827 20.98z" fill="#FFF"/><path d="M412.41 241.38c-2.244.546-3.825 2.007-3.52 3.252.288 1.26 2.365 1.82 4.605 1.293 2.266-.544 3.845-2.007 3.536-3.252-.28-1.26-2.37-1.837-4.62-1.293z" fill="#FFF"/><path d="M263.42 333.395c.8 1.005 2.924.68 4.738-.75 1.823-1.412 2.67-3.403 1.874-4.408-.785-1.024-2.91-.698-4.743.73-1.82 1.432-2.67 3.425-1.87 4.428z" fill="#FFF"/><path d="M168.22 124.683c-.29-3.336 3.503-5.672 5.237-8.58-1.734-2.33-4.794-3.336-7.26-2.028-.44 6.828-2.482 13.092-4.076 19.342 3.49 2.62 2.62-4.068 6.41-4.204 2.18-.753 3.33 1.293 4.64 2.6.73 1.893.29 4.38-1.15 5.98l3.49-.308c1.45-1.737 1.89-4.36 1.17-6.54-1.02-3.93-5.672-4.222-8.442-6.262z" fill="#FFF"/><path d="M346.378 128.924c-.747-2.452-1.986-4.754-3.362-7.205-.922-.62-2.907-.46-2.584 1.22 1.816 1.84 2.584 6.43 5.946 5.98z" fill="#FFF"/><path d="M346.23 136.58c-3.524-4.747-6.733-9.65-10.56-14.384-1.376 0-2.902.75-3.212 2.283 3.67 3.98 7.974 7.96 11.168 11.93.612.61 1.835 1.7 2.603.17z" fill="#FFF"/><path d="M339.955 143.168c.916.6 3.228.6 2.925-1.226l-12.56-14.4c-1.687-1.07-3.672 0-4.59 1.685 4.74 4.748 10.248 8.427 14.225 13.94z" fill="#FFF"/><path d="M338.12 144.38l-12.546-10.708c-1.984-1.994-4.895-1.684-5.81 1.38 5.66 4.29 11.913 7.03 17.13 12.24 1.548.152 1.99-1.82 1.227-2.912z" fill="#FFF"/><path d="M353.738 150.2c2.14-3.214 7.497-2.91 6.12-7.66-.31-2.127-3.23-3.676-5.816-3.048-9.482 6.267-16.232 15.92-17.436 25.88 1.36 1.53 3.196 1.684 5.184 1.684 4.148-5.227 6.273-11.953 11.948-16.856z" fill="#FFF"/><path d="M333.835 153.114c1.07-.154 2.602-1.84 1.528-3.218-6.12-3.524-11.773-8.257-18.37-10.708-1.07 1.057-1.38 2.605-1.225 4.135l18.067 9.79z" fill="#FFF"/><path d="M330.93 158.63c1.07-.31 2.294-1.688 1.224-2.606-5.66-2.91-11.187-6.586-17.286-8.733-.766.93-1.855 2.61-.92 3.38 6.12 1.86 11.155 5.52 16.983 7.97z" fill="#FFF"/><path d="M345.787 167.21c.9 2.13 2.582 2.13 4.726 1.515 6.117-3.354 10.415-9.946 11.638-16.837-.16-1.075-1.52-1.69-2.44-1.992-6.42 4.29-10.4 11.012-13.91 17.315z" fill="#FFF"/><path d="M366.91 152.516l6.866 12.088c-.27-5.023-2.447-9.26-5.372-13.16-.355.068-.693.123-1.035.135l-.46.93z" fill="#FFF"/><path d="M372.86 169.952c.15-5.35-4.894-9.637-7.65-14.387l-1.835 3.677 7.343 11.013c.63-.136 1.68.31 2.143-.303z" fill="#FFF"/><path d="M326.95 160.604c-5.06-2.283-9.956-4.888-15.31-6.418l-.463 1.38c3.994 4.425 9.655 5.206 15.774 5.038z" fill="#FFF"/><path d="M359.4 166.135c2.75 3.204 2.75 9.023 7.034 9.79 1.07-4.443-2.14-8.566-4.74-11.778-1.07 0-2.144.902-2.294 1.988z" fill="#FFF"/><path d="M354.182 170.733c-.14 4.58 3.228 8.716 5.368 12.68l2.6.48c.613-5.057-3.212-8.58-5.048-12.547l-2.92-.613z" fill="#FFF"/><path d="M334.14 173.474c.274 1.005.377 2.317.834 3.252 1.21-.82 2.79-1.178 4.335-1.057-.77-1.98-2.01-4.64-4.71-4.04l-.46 1.84z" fill="#FFF"/><path d="M356.34 190.79l.148-4.768c-1.544-4.6-3.057-8.87-6.878-12.548-1.855.155-5.526-.458-6.292 1.685 1.855 6.12 5.68 15.16 13.023 15.63z" fill="#FFF"/><path d="M226.314 261.658c-.625-3.218.29-7.05-1.835-9.655-.79-.764-2.14-.304-2.32.787-1.07 2.89-.15 6.263 1.53 8.713.78.768 1.68.768 2.61.155z" fill="#FFF"/><path d="M234.1 267.935c-1.208-5.07 2.16-13.328-3.348-16.07-1.855 3.51-.307 9.315-.457 14.082 0 1.84 2.273 2.757 3.806 1.988z" fill="#FFF"/><path d="M220.317 266.1c-3.214-4.14 1.412-15.938-7.328-13.31-5.66 5.205 3.21 8.56 4.28 13.77.76.303 2.6.762 3.04-.46v-.003z" fill="#FFF"/><path d="M236.702 253.86c-.288 4.734 0 9.005.782 13.314 1.203.29 3.04 1.072 4.128-.31-1.088-4.445 1.99-13.173-4.91-13.003z" fill="#FFF"/><path d="M245.283 258.284c-.155 3.987-.767 8.276 1.38 11.354 2.6-.627 1.066-4.46 1.68-6.773-1.378-1.515.153-5.173-3.06-4.58z" fill="#FFF"/><path d="M206.567 258.743c-1.07 1.536-1.837 3.22-1.99 5.058-.154 4.6 3.367 7.65 5.66 11.19 1.837-.47 3.976.14 5.353-1.68-1.85-5.21-3.994-11.17-9.023-14.56z" fill="#FFF"/><path d="M229.36 276.98l.167-2.302-1.39-2.3c-6.41-.766-11.935 2.744-15.453 7.953-.765 1.56-.153 3.22.305 4.45 5.04-3.82 9.62-8.88 16.37-7.79z" fill="#FFF"/><path d="M243.904 275.887c-.455-3.05-3.82-2.584-6.268-2.893-2.158.444-4.59 1.685-4.133 4.29.753 2.74 2.144 5.19 4.896 6.114 2.75-1.824 6.4-3.816 5.5-7.51z" fill="#FFF"/><path d="M248.496 277.897c-2.6.598-2.756 3.986-2.756 6.418.31 1.226 1.534 2.147 2.756 1.99 1.682-1.225 1.682-3.66 1.85-5.82-.61-.903-.168-2.892-1.85-2.588z" fill="#FFF"/><path d="M258.44 285.54c-.462-1.362-1.075-4.29-3.522-3.83-3.516 3.37.155 9.5-2.294 13.176 1.07 1.53.31 4.29 2.77 4.582 4.897-2.283 2.125-9.328 3.046-13.927z" fill="#FFF"/><path d="M230.295 282.475c-2.62-.765-5.372-1.226-7.342.31 1.527 8.728 9.94 32.004 13.307 32.158 2.14-6.895 1.07-12.41 1.68-20.057-1.526-4.903-3.072-9.65-7.645-12.41z" fill="#FFF"/><path d="M261.192 283.545l-.445 4.29 2.893.465.765-2.438c-1.054-.934-1.666-2.773-3.213-2.317z" fill="#FFF"/><path d="M218.494 285.234c-1.39 1.53-2.595 3.37-3.207 5.055.336 4.41 1.34 8.73 3.006 12.75 1.904 4.61 4.66 8.81 8.276 12.29.46.44.93.88 1.41 1.29 1.07-.46 2.77-.46 1.99-1.84-4.14-5.35-9.95-26.18-11.48-29.56z" fill="#FFF"/><path d="M242.224 290.29c0 7.202.92 15.017-1.99 21.124-.438 1.382-1.07 5.06 1.685 4.6l.13-1.225c4.31-3.53 5.98-9.64 6.44-15.62-1.07-3.83.46-13.64-6.27-8.89z" fill="#FFF"/><path d="M200.28 323.28c-2.792 2.54-6.106 4.837-13.483 4.837l-8.733 19.342h9.245c3.57 0 9.92-3.8 15.26-10.17 5.33-6.37 19.41-21.74 19.41-21.74l-5.73-8.18s-13.17 13.36-15.98 15.9z" fill="#FFF"/><path d="M101.304 347.47h12.46l10.744-19.353h-12.46l-10.744 19.354z" fill="#FFF"/><path d="M336.472 179.534c-1.767 1.773-86.172 90.462-86.172 90.462-.498.648-.598 1.312-.445 1.96.445 1.938 3.23 3.69 5.473 4.223 1.122.25 2.107.2 2.582-.28 1.79-1.77 78.562-87.06 82.556-91.94 3.992-4.87-2.212-6.2-3.994-4.43z" fill="#FFF"/><path d="M375.476 143.612c3.538-3.555-2.225-4.882-3.55-4-1.33.884-2.67 2.215-4.88 4.446-5.52 5.53 1.547 6.416 8.43-.446z" fill="#FFF"/><path d="M330.997 167.67l-1.868-4.19s-8.39 2.33-20.96-4.667c-2.06-1.157.47-6.533.47-6.533s-.79-1.09-2.08-2.214h-10.19c-4.86 4.834 2.1 8.39 4.35 11.083 1.23 1.48 10.67 12.1 20.99 29.33 5.17-5.43 9.13-9.61 11.14-11.7l-1.86-11.12z" fill="#D0BD7F"/><path d="M303.465 298.65l.916 9.498 7.59-13.213c-.32 0-.65 0-.98-.015l-7.51 3.73z" fill="#D0BD7F"/><path d="M285.158 341.585l2.175-3.782h-3.536c.48 1.296.988 2.726 1.36 3.782z" fill="#D0BD7F"/><path d="M214.824 304.282l.173-.17c-3.637-7.913-3.69-15.252-3.69-15.252s-3.246-7.913-1.848-9.786c0 0-10.74-8.855-7.47-19.578l-3.27-5.125c-2.79-5.12-32.14-48.48-21.88-68.04 0 0 6.98-7.93 1.85-18.19-5.117-10.25-10.248-6.52-13.97-4.65-3.727 1.86-33.535 19.58-33.535 19.58l7.92-18.18S124.203 179.33 120 184.47c0 0-3.24-19.578 5.615-28.448 1.983-1.99 4.01-4.016 5.944-5.94h-39.9l102.18 173.76c1.833-.75 3.13-1.77 4.32-2.86 2.7-2.454 16.52-16.55 16.65-16.685z" fill="#D0BD7F"/><path d="M372.076 150.066c-.39.2-.762.39-1.156.56 2.433 2.522 6.307 7.898 4.316 15.185 0 0 0 5.13-2.786 5.13 0 0 .458 11.65-6.525 10.25 0 0 .933 15.85-17.693 9.79 0 0-3.877-.26-7.75-2.23-2.55 2.88-6.815 7.7-12.12 13.64 5.66 10.9 11.098 23.58 15.144 37.64l51.686-89.95h-23.116z" fill="#D0BD7F"/><path d="M269.96 342.468h3.454c.304-1.003.935-2.944 1.474-4.665h-7.578c1.07 1.91 2.19 3.883 2.65 4.665z" fill="#D0BD7F"/><path d="M288.148 282.342c-.458-1.395-20.48-6.52-22.828-7.933 0 0-4.35.76-.915 4.2 3.72 3.73 3.262 9.33.458 16.77l-3.263.93s-6.508 12.12-10.69 10.26c0 0-5.61 12.12-12.593 12.58-4.66.3-8.708 1.24-13.38-2.06-3.194 3.49-15.412 16.78-19.97 22.2-.39.47-.78.93-1.19 1.37l41.42 70.463 35.286-61.407h-25.358l.222-2.55c.27-3.435 2.462-7.33 3.92-9.58 0-1.65.43-12.84 11.646-12.84 0 0 11.64-.477 13.053-1.87 1.397-1.397.462-10.72.462-10.72h3.72s0-7.92-1.393-12.58c-1.392-4.67-2.79-10.25-2.327-12.12.458-1.86 4.197-3.738 3.72-5.13z" fill="#D0BD7F"/><path d="M370.193 208.406l-2.16 6.554s5.878 1.96 7.834 2.606c0 1.192-.035 3.59-.052 5.516-1.884-.174-3.517-.034-4.756.525-4.21 1.873-2.81 18.183-1.87 21.45.93 3.253.93 5.106.45 6.978-.46 1.878-.94 1.878-4.18 2.336-3.28.46-9.79.46-9.79.46-2.33-2.79-9.78-5.58-9.78-5.58-.16-.66-.33-1.32-.48-1.97l58.873-102.49h-17.64c1.765-2.94-1.294-6.6-1.294-6.6s-.1-1.26-3.725-4.43c-4.197-3.66-8.19-2.18-9.87-.85-1.244.96-.78 2.69-.444 3.58-.41.14-.8.29-1.16.53-1.58 1.06-2.99 2.47-5.336 4.82-.216.22-.405.43-.61.65-.37-.03-.627.036-.627.036 0-6.08-10.71-8.867-10.71-8.867-4.656-9.32-7.003-14.766-12.12-15.39-6.066-.72-11.64 4.2-11.64 4.2-6.986-7.935-27.944-19.1-40.504-19.578-12.58-.46-32.62 10.263-46.11 15.846-13.51 5.604-18.17-5.12-20.492-7.454-2.33-2.33-6.05-5.594-13.036-13.054-6.982-7.46-15.362-6.52-21.412-3.728-6.072 2.81-12.123 6.076-21.437 12.12-9.31 6.064-11.64 12.12-13.97 18.645-2.33 6.52-8.38 12.594-8.38 12.594l-6.93 6.945H82.42l105.958 180.15c-.513.033-1.022.05-1.582.05h-76.604l-14.224 25.64h82.893l8.45-.02c3.5 0 8.12-2.33 12.56-6.13l45.388 77.174 41.316-71.92h34.877v-6.89h-8.26c-.36-1.093-1.04-3.238-1.62-5.04h1.28l6.053-2.79c0-7-8.38-16.79-8.38-16.79l-1.377-7.78 10.36-18.07c1.226-1.08 1.7-2.12 1.7-2.12s47.984-16.77 54.964-20.494c6.983-3.73 8.382-16.325 8.382-16.325 9.31 3.728 13.498-6.52 13.498-6.52s3.264 1.4 11.66 2.79c8.38 1.417 12.564-2.79 13.51-5.58.43-1.293.648-2.465.633-3.42 1.2-.884 6.506-4.837 8.31-9.058l1-2.37-62.97-20.87zm-3.147-64.348c2.21-2.23 3.55-3.562 4.88-4.445 1.324-.883 7.088.444 3.55 4-6.883 6.86-13.952 5.973-8.43.445zm1.358 7.387c2.925 3.898 5.103 8.136 5.372 13.158l-6.865-12.087.46-.938c.34-.012.68-.066 1.04-.133zm-3.194 4.12c2.756 4.75 7.8 9.038 7.65 14.387-.46.613-1.512.167-2.143.303l-7.342-11.013 1.835-3.677zm-11.03 15.167l2.922.613c1.835 3.968 5.66 7.49 5.05 12.548l-2.603-.48c-2.14-3.965-5.51-8.1-5.37-12.68zm2.308 15.29l-.148 4.766c-7.342-.462-11.168-9.502-13.022-15.63.765-2.143 4.437-1.53 6.292-1.684 3.82 3.676 5.333 7.948 6.878 12.547zm2.912-19.887c.15-1.086 1.223-1.988 2.293-1.988 2.602 3.212 5.81 7.335 4.74 11.777-4.282-.766-4.282-6.585-7.033-9.79zm2.75-14.247c-1.223 6.89-5.52 13.483-11.638 16.838-2.143.613-3.827.613-4.726-1.515 3.515-6.3 7.495-13.02 13.917-17.31.92.31 2.28.92 2.448 1.99zm-8.108-12.397c2.587-.62 5.507.93 5.815 3.05 1.378 4.75-3.98 4.45-6.118 7.66-5.68 4.91-7.81 11.63-11.95 16.86-1.99 0-3.83-.15-5.19-1.68 1.2-9.96 7.95-19.61 17.43-25.88zM257.91 275.91c-.476.48-1.46.53-2.582.276-2.244-.53-5.03-2.284-5.474-4.223-.152-.647-.052-1.312.445-1.96 0 0 84.4-88.69 86.17-90.46 1.78-1.77 7.98-.445 3.99 4.425-4 4.886-80.77 90.178-82.56 91.944zm6.495 9.96l-.766 2.438-2.9-.464.44-4.29c1.54-.456 2.16 1.383 3.21 2.317zm-9.01 13.605c-2.46-.292-1.7-3.052-2.77-4.582 2.448-3.674-1.223-9.804 2.294-13.175 2.44-.46 3.05 2.47 3.52 3.83-.92 4.6 1.85 11.647-3.05 13.93zM215.59 273.31c-1.377 1.82-3.516 1.205-5.353 1.68-2.294-3.54-5.814-6.586-5.66-11.184.153-1.84.92-3.52 1.99-5.057 5.028 3.38 7.172 9.35 9.023 14.56zm-2.6-20.515c8.738-2.625 4.113 9.17 7.326 13.31-.443 1.224-2.277.766-3.044.46-1.07-5.21-9.94-8.563-4.283-13.77zm-.306 27.54c3.518-5.206 9.044-8.716 15.452-7.95l1.392 2.3-.168 2.3c-6.75-1.09-11.32 3.968-16.37 7.795-.46-1.23-1.07-2.89-.306-4.443zm9.483-27.54c.173-1.09 1.532-1.55 2.313-.786 2.125 2.6 1.21 6.43 1.834 9.65-.934.61-1.834.61-2.615-.16-1.69-2.45-2.61-5.83-1.54-8.72zm-3.673 32.446c1.534 3.37 7.344 24.21 11.477 29.56.79 1.38-.92 1.38-1.98 1.84-.47-.41-.95-.85-1.41-1.29-3.61-3.473-6.37-7.68-8.27-12.29-1.665-4.02-2.67-8.342-3.004-12.752.613-1.686 1.817-3.527 3.208-5.057zm4.46-2.45c1.97-1.53 4.72-1.07 7.34-.31 4.574 2.76 6.12 7.51 7.647 12.41-.61 7.65.46 13.17-1.68 20.06-3.37-.15-11.78-23.43-13.3-32.15zm11.147-14.85c-1.53.77-3.8-.14-3.8-1.98.15-4.76-1.39-10.57.46-14.08 5.51 2.74 2.14 11 3.35 16.07zm-.59 9.35c-.45-2.6 1.98-3.84 4.14-4.29 2.45.31 5.818-.15 6.27 2.9.906 3.7-2.75 5.69-5.5 7.51-2.753-.92-4.144-3.37-4.897-6.11zm8.11-10.42c-1.09 1.38-2.92.6-4.13.31-.78-4.31-1.07-8.58-.78-13.31 6.9-.17 3.82 8.56 4.91 13.01zm-1.38 44.55c2.91-6.1 1.99-13.92 1.99-21.12 6.73-4.75 5.21 5.06 6.28 8.89-.452 5.98-2.12 12.09-6.44 15.618l-.132 1.226c-2.756.46-2.123-3.22-1.686-4.6zm6.43-41.77c-2.14-3.08-1.53-7.37-1.38-11.35 3.22-.59 1.68 3.07 3.06 4.58-.61 2.318.92 6.15-1.68 6.777zm-.92 14.68c0-2.43.16-5.82 2.76-6.413 1.68-.304 1.24 1.684 1.85 2.586-.17 2.16-.17 4.597-1.85 5.82-1.22.16-2.44-.763-2.75-1.99zm88.4-110.84l.47-1.84c2.7-.6 3.94 2.06 4.708 4.04-1.544-.124-3.125.233-4.334 1.054-.46-.937-.56-2.25-.834-3.253zm8.88-51.75c1.38 2.45 2.62 4.75 3.36 7.202-3.36.46-4.13-4.14-5.94-5.98-.32-1.683 1.665-1.837 2.587-1.224zm-7.34.474c3.827 4.73 7.037 9.635 10.56 14.384-.77 1.537-1.992.446-2.603-.167-3.194-3.966-7.496-7.953-11.167-11.933.31-1.538 1.834-2.287 3.212-2.287zm-5.35 5.345l12.56 14.4c.305 1.825-2.008 1.825-2.924 1.23-3.977-5.518-9.486-9.197-14.225-13.94.918-1.69 2.904-2.76 4.59-1.69zm-4.745 6.13l12.55 10.71c.764 1.09.32 3.062-1.226 2.91-5.22-5.21-11.47-7.95-17.134-12.24.917-3.067 3.83-3.376 5.81-1.38zm-8.58 5.52c6.598 2.45 12.25 7.18 18.37 10.704 1.075 1.38-.457 3.062-1.526 3.216l-18.07-9.79c-.156-1.53.154-3.08 1.224-4.137zm-2.125 8.1c6.1 2.15 11.627 5.823 17.29 8.732 1.07.92-.156 2.3-1.226 2.61-5.83-2.45-10.865-6.113-16.98-7.967-.937-.767.152-2.45.92-3.37zm-3.225 6.895c5.353 1.53 10.25 4.134 15.31 6.417-6.12.17-11.78-.61-15.774-5.04l.466-1.38zm-15.265-4.12h10.195c1.294 1.12 2.08 2.213 2.08 2.213s-2.533 5.374-.477 6.53c12.575 7 20.96 4.668 20.96 4.668l1.868 4.19 1.855 11.11c-2.004 2.09-5.964 6.267-11.133 11.696-10.32-17.226-19.75-27.85-20.988-29.33-2.243-2.69-9.21-6.25-4.35-11.082zm-93.447 18.537c5.707-9.09 38.19-36.84 85.22 11.66 8.142 8.38 14.96 16.346 20.615 23.82-18.457 19.4-41.946 44.14-52.705 55.447-5.2-2.81-10.5-5.95-15.876-9.37-40.98-26.1-50.77-60.11-37.258-81.56zm-36.733-54.53c2.464-1.31 5.525-.3 7.26 2.03-1.735 2.91-5.528 5.244-5.24 8.58 2.77 2.04 7.43 2.33 8.45 6.263.714 2.18.27 4.803-1.174 6.54l-3.48.307c1.444-1.6 1.882-4.088 1.155-5.98-1.313-1.31-2.47-3.356-4.64-2.603-3.793.134-2.93 6.823-6.41 4.203 1.59-6.25 3.64-12.515 4.077-19.344zm-16.85 24.21c9.3 9.333 13.495 19.578 13.495 19.578-1.855 4.667-22.35 13.98-22.35 13.98l12.117-22.37-30.27 26.115s.458-12.123 4.18-16.325c3.74-4.19 22.828-20.978 22.828-20.978zm-57.7 11.766h39.906c-1.937 1.925-3.96 3.95-5.946 5.94-8.855 8.87-5.612 28.446-5.612 28.446 4.202-5.14 19.107-19.57 19.107-19.57l-7.92 18.19s29.807-17.722 33.532-19.58c3.723-1.87 8.854-5.6 13.97 4.65 5.132 10.266-1.852 18.2-1.852 18.2-10.267 19.56 19.087 62.92 21.872 68.046l3.268 5.127c-3.268 10.72 7.463 19.575 7.463 19.575-1.398 1.875 1.85 9.79 1.85 9.79s.05 7.34 3.69 15.253l-.175.17c-.133.137-13.952 14.23-16.653 16.68-1.19 1.09-2.483 2.116-4.32 2.86L91.67 150.065zm22.093 197.405h-12.46l10.744-19.353h12.46l-10.744 19.355zm73.546-.01h-9.25l8.73-19.343c7.37 0 10.69-2.297 13.48-4.836 2.8-2.532 15.97-15.9 15.97-15.9l5.72 8.176s-14.075 15.37-19.41 21.74c-5.34 6.363-11.692 10.163-15.263 10.163zm57.88 63.682l-41.42-70.46c.41-.44.8-.9 1.19-1.37 4.56-5.41 16.77-18.71 19.97-22.2 4.67 3.3 8.72 2.37 13.38 2.06 6.98-.46 12.59-12.58 12.59-12.58 4.18 1.86 10.69-10.26 10.69-10.26l3.26-.93c2.8-7.44 3.26-13.04-.46-16.77-3.44-3.44.91-4.203.91-4.203 2.35 1.412 22.37 6.54 22.83 7.933.478 1.395-3.262 3.268-3.72 5.128-.462 1.87.935 7.457 2.328 12.12 1.392 4.667 1.392 12.58 1.392 12.58h-3.72s.932 9.33-.465 10.727c-1.414 1.398-13.055 1.876-13.055 1.876-11.214 0-11.644 11.184-11.644 12.834-1.46 2.25-3.65 6.147-3.92 9.58l-.224 2.556h25.356l-35.285 61.41zm42.13-73.33l-2.18 3.78c-.374-1.05-.88-2.48-1.36-3.78h3.534zm-12.45 0c-.54 1.72-1.17 3.66-1.475 4.67h-3.455c-.46-.78-1.58-2.752-2.65-4.66h7.58zm-11.47-4.41c-.8-1 .05-2.99 1.87-4.43 1.833-1.42 3.96-1.75 4.743-.73.796 1.01-.05 3-1.874 4.41-1.813 1.43-3.94 1.76-4.74.75zm48.034 11.8h7.63v2.2h-61.39c.29-3.522 3.165-7.98 4.27-9.582h2.65l3.98 7.03h6.54l2.226-7.03h3.927l2.57 7.03h19.614l2.007-7.03h3.637l2.35 7.386zm-20.72-2.72l2.69-4.662h9.6l-1.324 4.665h-10.96zm13.65-34.32l-.916-9.5 7.512-3.73c.335.02.664.02.985.02l-7.58 13.21zm23.83-34.2c-7.277 8.31-29.71 5.55-57.566-7.12 10.74-11.91 30.084-33.5 46.074-51.39 19.07 29.658 18.68 50.27 11.49 58.51zm.153-71.57c5.303-5.94 9.57-10.76 12.12-13.632 3.875 1.973 7.752 2.23 7.752 2.23 18.625 6.06 17.692-9.787 17.692-9.787 6.982 1.394 6.524-10.25 6.524-10.25 2.79 0 2.79-5.125 2.79-5.125 1.99-7.282-1.884-12.66-4.317-15.182.393-.17.765-.356 1.155-.556h23.12l-51.688 89.95c-4.046-14.06-9.484-26.743-15.143-37.64zm63.18 25.42c-2.435-1.002-4.898-1.94-7.277-2.74.9-1.31 1.87-2.726 2.414-3.542 2.514.854 12.997 4.31 15.362 5.106.03 1.073.1 3.22.153 5.09-4.237-1.464-8.146-2.877-10.66-3.915zm21.952 18.13c-2.24.528-4.318-.033-4.605-1.292-.306-1.245 1.275-2.706 3.52-3.252 2.24-.54 4.332.037 4.62 1.297.31 1.24-1.27 2.705-3.536 3.25zm-2.954-11.39c1.086-1.5 2.34-3.216 3-4.12 1.252.427 2.17.735 3.26 1.09.185.92.643 3.236 1.07 5.43-2.06-.66-4.59-1.493-7.327-2.4zm12.24 4.004c-.02 0-.02-.02-.03-.02-.24-.07-1.08-.34-2.316-.75l-1.58-8.068-6.22-2.06-4.423 6.112c-1.203-.41-2.43-.82-3.636-1.227l-.22-7.63-18.63-6.178-3.803 5.6c-1.31-.37-2.57-.68-3.76-.9l.086-7.56-7.238-2.398.674-2.08L430 230.705c-1.427 3.356-5.777 6.777-7.223 7.834z" fill="#000"/></g></svg>