<svg width="512" height="512" viewBox="0 0 512 512" xmlns="http://www.w3.org/2000/svg" xmlns:xlink="http://www.w3.org/1999/xlink"><title>tampa-bay-lightning</title><defs><path id="a" d="M0 .008h364.29v339.517H0z"/><path id="c" d="M0 .008h364.29v339.517H0z"/></defs><g fill="none" fill-rule="evenodd"><g transform="translate(74 86.937)"><mask id="b" fill="#fff"><use xlink:href="#a"/></mask><path d="M364.29 153.55c0-36.906-22.965-73.285-63.73-95.637L284.947 70.29c27.854 17.507 44.25 43.675 44.25 73.374 0 69.305-85.742 132.084-181.155 132.084-9.79 0-19.4-.72-28.67-2.094l-32.2 23.806c20.33 6.87 43.013 10.515 66.726 10.515 113.265 0 210.393-76.386 210.393-154.425" fill="#003E7E" mask="url(#b)"/></g><g transform="translate(74 86.937)"><mask id="d" fill="#fff"><use xlink:href="#c"/></mask><path d="M220.226 179.318l-58.272 11.39 129.25-106.1-60.173 8.056L347.99 0 211.833 35.79c-1.794-.036-3.604-.065-5.414-.065C94.836 35.725 0 111.475 0 191.397c0 39.222 21.143 70.413 53.915 90.626L3.6 339.517l216.626-160.2zm-204.67.264c0-71.667 89.78-132.083 181.156-132.083.633 0 1.25.014 1.883.02l-88.34 98.73 50.795-8.027L60.964 234.91l40.59-7.318-28.35 32.403c-34.46-16.298-57.647-44.41-57.647-80.413z" fill="#003E7E" mask="url(#d)"/></g></g></svg>