<svg width="512" height="512" viewBox="0 0 512 512" xmlns="http://www.w3.org/2000/svg"><title>washington-capitals</title><g fill="none" fill-rule="evenodd"><path d="M88.296 241.982s2.528-31.452 12.947-31.452h19.09s1.916-44.58 18.418-44.58h190.24l28.81-67.463h30.79l-59.46 143.495h37.43c15.75 0 23.26 12.097 23.26 12.097l30.786-75.56h31.186l-28.02 68.69s9.39-5.12 14.28-5.12H504l-11.002 26.58h-10.17s5.668 5.67 5.668 13.43c0 11.68-10.92 26.61-24.92 26.61H330.212c-12.336 0-22.213-9.885-22.09-16.936l-15.67 38.513s-.707 1.28-.707 3.95.283 2.95.708 3.38l34.286 29.435 17.55-21.72 56.76-.086-24.67 30.87H331.2l-26.864 39.38S272 364.67 268.44 358.664c-3.556-6.007-4.78-15.352-4.78-20.244 0-13.233 3.754-21.96 4.78-24.58l2-5.115h-91.68l-12.447 30.703h-31.23l12.78-30.814h-40.95c-11.255 0-17.826-10.66-17.826-10.66s-14.462 10.774-25.354 10.774h-31.34C19.17 308.724 11 296.768 11 288.59c0-18.52 28.062-46.608 63.904-46.608h13.392" fill="#FFF"/><path d="M73.076 261.116H91.99l4.803-11.625H76.236c-30.172 0-57.512 22.83-57.512 39.1 0 8.46 9.42 12.58 11.448 12.58h32.784c8.446 0 23.228-10.57 23.228-10.57l-11.67-5.45s-5.778 4.23-9.89 4.23H36.506c-2.113 0-3-1.55-3-3.78 0-4.95 11.89-24.47 39.57-24.47" fill="#00214D"/><path d="M134.292 289.39l-25.244-.02c-1.5 0-1.722-1.67-1.722-2.67s1.917-6.758 7.585-6.758h23.64c1.34 0 6.21-2.086 6.21-2.086s-3.21 11.534-10.46 11.534m9.75-39.9H105.6l-4.732 11.626h41.07c6.394 0 7.15 2.558 7.15 6.562h-30.26c-17.843 0-25.42 12.66-25.42 18.857 0 10.733 9.71 14.597 14.253 14.597h20.09c3.75 0 8.34-3.086 8.34-3.086l-1.16 3.117 14.63-.016 11.435-27.267c1.03-2.463 2.446-7.15 2.446-9.316 0-8.62-6.92-15.073-19.38-15.073" fill="#00214D"/><path d="M145.92 331.75l14.282-32.313c1.94-4.39 14.38-49.946 61.9-49.946h34.844l-15.006 36.55c-3 7.32-9.61 15.13-17 15.13h-43.62l4.78-11.79h34.84c5.3 0 6.776-4.09 8.28-7.9l8.06-20.35h-14.17c-20.546 0-37.536 12.776-42.343 24.14l-19.67 46.498h-15.17" fill="#00214D"/><path d="M257.688 267.595l-13.762 33.568h14.56l13.79-33.568h-14.588" fill="#00214D"/><path d="M274.94 261.116l4.773-11.625h-14.6l-4.767 11.63h14.593" fill="#00214D"/><path d="M285.616 249.49l-4.632 11.626h17.385L275 317.18c-1.694 4.07-3.778 9.786-3.778 23.58 0 4.895.903 9.742 2.222 11.79 1.32 2.05 31.342 48.61 31.342 48.61l19.004-27.03-37.426-31.284c-1.133-.945-2.14-3.42-2.14-8.316 0-4.892.946-6.362 2.223-9.454l90.52-219.25h-14.25L303.533 249.49h-17.92" fill="#00214D"/><path d="M355.88 289.403l-25.243-.02c-1.5 0-1.718-1.67-1.718-2.67s1.91-6.758 7.58-6.758h23.63c1.33 0 6.21-2.085 6.21-2.085s-3.21 11.533-10.47 11.533m9.75-39.9h-43.34l-4.734 11.627h45.974c6.394 0 7.147 2.56 7.147 6.56h-30.25c-17.843 0-25.42 12.66-25.42 18.858 0 10.733 9.71 14.6 14.25 14.6h20.09c3.753 0 8.336-3.087 8.336-3.087l-1.165 3.12 14.626-.01 11.434-27.27c1.03-2.46 2.44-7.15 2.44-9.31 0-8.62-6.92-15.07-19.38-15.07" fill="#00214D"/><path d="M392.816 301.163l47.718-115.58H426.28l-47.61 115.58h14.146" fill="#00214D"/><path d="M400.83 301.163l4.675-11.793s51.318.02 54.673.02c3.354 0 5.98-3.33 5.98-5.136 0-1.81-1.04-3.31-3.25-3.31h-32.632c-3.502 0-11.517-4.42-11.517-11.873 0-7.45 4.13-19.58 26.1-19.58h47.97l-4.78 11.63h-49.18c-3.87 0-6.06 3.95-6.06 6.01 0 1.84 1.83 2.67 2.28 2.67h30.51c6.95 0 14.56 2.45 14.56 12.24s-6.19 19.14-21.34 19.14h-57.99" fill="#00214D"/><path d="M373.136 367.79l12.005-14.46h-37.56l-11.44 14.46h37.01" fill="#CF132B"/><path d="M117.043 232.205h-4.312l1.32-11.652-9.65 11.652H100l.727-16.036h4.167l-.452 11.25 8.546-11.15h4.62L117 227.3l8.82-11.03h4.128l-12.904 15.934" fill="#CF132B"/><path d="M138.396 226.03l-.04-6.41-6.163 6.41h6.203zm.043 2.655h-8.21l-3.13 3.52h-4.38l14.6-15.933h4.73l.48 15.933h-4.04l-.06-3.52z" fill="#CF132B"/><path d="M146.165 227.042l4.084-.162c-.13.993-.03 1.662.3 2.01.52.565 1.61.848 3.29.848 1.39 0 2.43-.19 3.13-.575.69-.384 1.08-.85 1.18-1.393.08-.47-.1-.868-.55-1.195-.32-.24-1.23-.625-2.74-1.162-1.508-.538-2.6-.985-3.276-1.342-.676-.36-1.173-.82-1.493-1.39-.32-.57-.41-1.24-.27-2.01.243-1.34 1.075-2.45 2.497-3.33 1.424-.884 3.33-1.325 5.725-1.325 2.43 0 4.233.437 5.41 1.315 1.174.874 1.695 2.04 1.56 3.5l-4.107.14c.034-.76-.22-1.345-.76-1.75-.54-.407-1.41-.61-2.604-.61-1.175 0-2.045.156-2.606.48-.564.32-.888.72-.976 1.203-.08.46.08.834.49 1.13.404.307 1.35.724 2.84 1.253 2.24.79 3.64 1.43 4.2 1.924.84.726 1.156 1.656.95 2.794-.254 1.406-1.196 2.608-2.82 3.603-1.628.997-3.734 1.495-6.31 1.495-1.784 0-3.285-.23-4.507-.69-1.22-.46-2.025-1.1-2.413-1.92-.39-.82-.47-1.76-.24-2.825" fill="#CF132B"/><path d="M179.238 225.086h-8.013l-3.225 7.12h-4.27l7.225-15.934h4.253l-2.78 6.152h8.013l2.8-6.152h4.26l-7.21 15.933h-4.26l3.224-7.12" fill="#CF132B"/><path d="M184.074 232.205l7.224-15.933h4.253l-7.2 15.933h-4.27" fill="#CF132B"/><path d="M209.96 232.205h-3.97l-3.787-10.707-5.154 10.707h-3.98l7.51-15.933h3.983l3.806 10.663 4.394-10.663h3.96l-6.78 15.933" fill="#CF132B"/><path d="M227.27 223.696h9.272l-3.103 6.835c-1.2.55-2.62 1.01-4.28 1.39-1.66.38-3.31.57-4.96.57-2.56 0-4.45-.443-5.65-1.334-1.65-1.216-2.26-2.982-1.84-5.293.28-1.55.95-3.035 2.002-4.456 1.27-1.71 2.877-3.037 4.82-3.98 1.942-.942 4.107-1.41 6.502-1.41 2.39 0 4.23.427 5.524 1.282 1.29.855 1.36 2.3 1.53 3.94l-4.033-.01c-.187-.9.04-1.418-.653-1.876-.694-.457-1.63-.685-2.808-.685-1.378 0-2.69.277-3.94.827-1.25.55-2.303 1.405-3.16 2.558-.86 1.153-1.41 2.41-1.66 3.77-.24 1.343-.027 2.33.65 2.975.675.64 1.775.962 3.302.962.91 0 1.87-.1 2.863-.3.997-.2 1.87-.436 2.617-.712l1.064-2.37h-5.28l1.2-2.66" fill="#CF132B"/><path d="M244.31 232.205h-4.27l6.022-13.27h-6.076l1.2-2.663h16.325l-1.2 2.662h-5.99l-6 13.27" fill="#CF132B"/><path d="M259.148 225.89c-.2 1.095.068 2.012.8 2.75.733.74 1.805 1.11 3.218 1.11 1.15 0 2.307-.293 3.475-.874 1.17-.584 2.2-1.47 3.11-2.654.91-1.184 1.47-2.34 1.67-3.46.23-1.255-.03-2.24-.78-2.953-.75-.72-1.79-1.07-3.15-1.07-2.08 0-3.91.74-5.48 2.23-1.575 1.49-2.526 3.13-2.846 4.91m-4.224.062c.17-.943.532-1.937 1.09-2.98.73-1.398 1.683-2.61 2.853-3.64 1.17-1.03 2.56-1.844 4.164-2.44 1.61-.598 3.368-.896 5.28-.896 2.565 0 4.52.61 5.878 1.835 1.357 1.228 1.85 2.85 1.486 4.87-.305 1.68-1.11 3.31-2.422 4.88-1.313 1.575-2.924 2.785-4.84 3.63-1.918.85-3.987 1.274-6.21 1.274-1.93 0-3.49-.338-4.68-1.01-1.187-.677-1.963-1.51-2.33-2.508-.365-.995-.457-2-.273-3.014" fill="#CF132B"/><path d="M291.188 232.205h-3.968l-3.657-10.707-4.85 10.707h-3.973l7.208-15.933h3.988l3.677 10.663 4.827-10.663h3.96l-7.212 15.933" fill="#CF132B"/><path d="M157.513 190.27l10.828-8.022h-13.42l-4.07-12.597-3.94 12.6h-13.06l10.617 7.81-4.03 12.88 10.73-7.95 10.358 7.62-3.992-12.33" fill="#CF132B"/><path d="M227.528 190.27l10.828-8.022H224.93l-4.08-12.597-3.94 12.6h-13.062l10.616 7.81-4.03 12.88 10.73-7.95 10.358 7.62-3.994-12.33" fill="#CF132B"/><path d="M297.32 190.27l10.83-8.022h-13.427l-4.078-12.597-3.942 12.6h-13.06l10.617 7.81-4.032 12.88 10.73-7.95 10.355 7.62-3.992-12.33" fill="#CF132B"/></g></svg>