<svg width="512" height="512" viewBox="0 0 512 512" xmlns="http://www.w3.org/2000/svg"><title>washington-capitals</title><g fill="none" fill-rule="evenodd"><path d="M88.296 241.982s2.528-31.452 12.947-31.452h19.09s1.916-44.58 18.418-44.58h190.24l28.808-67.463h30.787l-59.458 143.495h37.427c15.752 0 23.254 12.097 23.254 12.097l30.785-75.558h31.186l-28.02 68.69s9.39-5.12 14.28-5.12H504l-11.002 26.586h-10.17s5.668 5.674 5.668 13.433c0 11.68-10.92 26.614-24.92 26.614H330.212c-12.336 0-22.213-9.884-22.09-16.935l-15.67 38.514s-.707 1.28-.707 3.95.283 2.952.708 3.38l34.286 29.436 17.556-21.72 56.766-.084-24.672 30.868h-45.18l-26.866 39.377s-32.34-50.833-35.897-56.84c-3.556-6.007-4.78-15.352-4.78-20.244 0-13.238 3.754-21.964 4.78-24.585l2-5.116H178.76l-12.447 30.702h-31.23l12.78-30.814h-40.95c-11.255 0-17.826-10.662-17.826-10.662s-14.462 10.774-25.354 10.774h-31.34C19.17 308.724 11 296.768 11 288.59c0-18.52 28.062-46.608 63.904-46.608h13.392" fill="#FFF"/><path d="M73.076 261.116H91.99l4.803-11.625H76.236c-30.172 0-57.512 22.824-57.512 39.1 0 8.456 9.42 12.573 11.448 12.573h32.784c8.446 0 23.228-10.57 23.228-10.57l-11.67-5.45s-5.778 4.227-9.89 4.227H36.506c-2.113 0-3-1.557-3-3.783 0-4.95 11.89-24.47 39.57-24.47" fill="#00214D"/><path d="M134.292 289.39l-25.244-.02c-1.5 0-1.722-1.67-1.722-2.67s1.917-6.758 7.585-6.758h23.632c1.335 0 6.212-2.086 6.212-2.086s-3.21 11.534-10.462 11.534m9.752-39.9H105.6l-4.732 11.626h41.07c6.394 0 7.15 2.558 7.15 6.562h-30.26c-17.843 0-25.42 12.66-25.42 18.857 0 10.733 9.71 14.597 14.253 14.597h20.09c3.75 0 8.334-3.086 8.334-3.086l-1.166 3.117 14.628-.016 11.433-27.267c1.03-2.463 2.445-7.15 2.445-9.316 0-8.62-6.92-15.073-19.38-15.073" fill="#00214D"/><path d="M145.92 331.75l14.282-32.313c1.94-4.39 14.38-49.946 61.9-49.946h34.844l-15.005 36.542c-3.003 7.316-9.614 15.13-17.002 15.13h-43.62l4.778-11.792h34.84c5.297 0 6.774-4.094 8.28-7.9l8.058-20.354h-14.17c-20.546 0-37.536 12.773-42.343 24.138l-19.67 46.496h-15.17" fill="#00214D"/><path d="M257.688 267.595l-13.762 33.568h14.56l13.79-33.568h-14.588" fill="#00214D"/><path d="M274.94 261.116l4.773-11.625h-14.6l-4.767 11.626h14.593" fill="#00214D"/><path d="M285.616 249.49l-4.632 11.626h17.385l-23.367 56.063c-1.694 4.07-3.778 9.787-3.778 23.58 0 4.896.903 9.743 2.222 11.79 1.32 2.052 31.342 48.61 31.342 48.61l19.004-27.03-37.426-31.283c-1.133-.945-2.14-3.42-2.14-8.316 0-4.892.946-6.362 2.223-9.454l90.52-219.25h-14.25l-59.185 143.665h-17.92" fill="#00214D"/><path d="M355.88 289.403l-25.243-.02c-1.5 0-1.718-1.67-1.718-2.67s1.916-6.758 7.585-6.758h23.63c1.333 0 6.21-2.085 6.21-2.085s-3.21 11.533-10.464 11.533m9.756-39.9H322.29l-4.734 11.627h45.974c6.394 0 7.147 2.56 7.147 6.56H340.42c-17.844 0-25.42 12.66-25.42 18.858 0 10.733 9.71 14.6 14.25 14.6h20.088c3.754 0 8.337-3.087 8.337-3.087l-1.165 3.116 14.625-.013 11.434-27.27c1.033-2.462 2.444-7.15 2.444-9.316 0-8.62-6.917-15.073-19.378-15.073" fill="#00214D"/><path d="M392.816 301.163l47.718-115.58H426.28l-47.61 115.58h14.146" fill="#00214D"/><path d="M400.83 301.163l4.675-11.793s51.318.02 54.673.02c3.354 0 5.98-3.33 5.98-5.136 0-1.81-1.04-3.31-3.25-3.31h-32.632c-3.502 0-11.517-4.42-11.517-11.873 0-7.454 4.138-19.58 26.102-19.58h47.968l-4.78 11.626h-49.176c-3.866 0-6.057 3.95-6.057 6.005 0 1.837 1.834 2.672 2.28 2.672h30.506c6.948 0 14.558 2.448 14.558 12.236s-6.19 19.135-21.336 19.135H400.83" fill="#00214D"/><path d="M373.136 367.79l12.005-14.46h-37.566l-11.446 14.46h37.008" fill="#CF132B"/><path d="M117.043 232.205h-4.312l1.318-11.652-9.656 11.652h-4.396l.728-16.036h4.167l-.452 11.254 8.545-11.152h4.62l-.606 11.03 8.822-11.03h4.127l-12.904 15.933" fill="#CF132B"/><path d="M138.396 226.03l-.04-6.41-6.163 6.41h6.203zm.043 2.655h-8.21l-3.127 3.52h-4.38l14.6-15.933h4.734l.478 15.933h-4.04l-.056-3.52z" fill="#CF132B"/><path d="M146.165 227.042l4.084-.162c-.123.993-.022 1.662.3 2.01.52.565 1.617.848 3.295.848 1.394 0 2.437-.19 3.13-.575.69-.384 1.084-.85 1.182-1.393.086-.47-.096-.868-.545-1.195-.316-.24-1.227-.625-2.737-1.162-1.508-.538-2.6-.985-3.276-1.342-.676-.36-1.173-.824-1.493-1.396-.32-.573-.412-1.242-.272-2.012.244-1.342 1.076-2.454 2.498-3.337 1.422-.884 3.33-1.325 5.723-1.325 2.43 0 4.234.436 5.408 1.314 1.175.877 1.696 2.044 1.562 3.5l-4.108.14c.035-.76-.22-1.342-.758-1.748-.537-.405-1.407-.61-2.603-.61-1.177 0-2.047.158-2.608.48-.564.32-.888.72-.976 1.205-.083.46.08.834.49 1.13.404.307 1.35.724 2.84 1.253 2.24.79 3.64 1.432 4.2 1.923.838.726 1.156 1.656.95 2.794-.254 1.406-1.196 2.608-2.822 3.603-1.626.996-3.732 1.494-6.31 1.494-1.782 0-3.283-.23-4.505-.69-1.22-.46-2.027-1.1-2.415-1.918-.388-.82-.467-1.762-.237-2.828" fill="#CF132B"/><path d="M179.238 225.086h-8.013l-3.225 7.12h-4.27l7.225-15.934h4.253l-2.78 6.152h8.013l2.794-6.152h4.256l-7.21 15.933h-4.267l3.225-7.12" fill="#CF132B"/><path d="M184.074 232.205l7.224-15.933h4.253l-7.208 15.933h-4.268" fill="#CF132B"/><path d="M209.96 232.205h-3.97l-3.787-10.707-5.154 10.707h-3.973l7.515-15.933h3.986l3.806 10.663 4.395-10.663h3.957l-6.778 15.933" fill="#CF132B"/><path d="M227.27 223.696h9.272l-3.103 6.835c-1.193.545-2.617 1.006-4.273 1.383-1.655.375-3.307.564-4.957.564-2.56 0-4.445-.445-5.65-1.336-1.644-1.216-2.26-2.982-1.84-5.293.282-1.55.95-3.035 2.008-4.456 1.27-1.71 2.877-3.037 4.82-3.978 1.942-.943 4.107-1.412 6.502-1.412 2.392 0 4.233.428 5.526 1.283 1.29.853 1.358 2.3 1.53 3.94l-4.033-.014c-.186-.898.042-1.416-.652-1.874-.694-.457-1.632-.685-2.808-.685-1.376 0-2.69.278-3.938.828-1.25.55-2.303 1.402-3.162 2.555-.86 1.152-1.41 2.408-1.658 3.77-.24 1.342-.027 2.33.65 2.974.675.64 1.775.963 3.302.963.914 0 1.87-.1 2.866-.3.997-.2 1.87-.437 2.617-.713l1.063-2.37h-5.284l1.2-2.66" fill="#CF132B"/><path d="M244.31 232.205h-4.27l6.022-13.27h-6.076l1.2-2.663h16.325l-1.202 2.662h-5.993l-6.005 13.27" fill="#CF132B"/><path d="M259.148 225.89c-.2 1.095.068 2.012.8 2.75.733.74 1.805 1.11 3.218 1.11 1.15 0 2.307-.293 3.475-.874 1.165-.584 2.2-1.47 3.108-2.654.907-1.184 1.464-2.34 1.666-3.46.225-1.255-.03-2.24-.78-2.953-.748-.716-1.797-1.07-3.153-1.07-2.085 0-3.91.745-5.486 2.238-1.575 1.492-2.526 3.13-2.846 4.913m-4.225.067c.17-.943.535-1.937 1.09-2.98.733-1.398 1.686-2.61 2.856-3.64 1.172-1.03 2.56-1.844 4.165-2.442 1.608-.597 3.367-.895 5.28-.895 2.564 0 4.52.612 5.877 1.836 1.356 1.226 1.85 2.848 1.485 4.87-.306 1.68-1.11 3.308-2.423 4.88-1.312 1.573-2.923 2.783-4.84 3.63-1.917.848-3.986 1.272-6.21 1.272-1.93 0-3.488-.336-4.678-1.01-1.187-.675-1.963-1.51-2.33-2.506-.365-.996-.457-2.002-.273-3.015" fill="#CF132B"/><path d="M291.188 232.205h-3.968l-3.657-10.707-4.85 10.707h-3.973l7.208-15.933h3.988l3.677 10.663 4.827-10.663h3.96l-7.212 15.933" fill="#CF132B"/><path d="M157.513 190.27l10.828-8.022h-13.426l-4.077-12.597-3.942 12.598h-13.06l10.615 7.81-4.032 12.88 10.732-7.952 10.357 7.618-3.994-12.334" fill="#CF132B"/><path d="M227.528 190.27l10.828-8.022H224.93l-4.08-12.597-3.94 12.598h-13.062l10.616 7.81-4.03 12.88 10.73-7.952 10.358 7.618-3.994-12.334" fill="#CF132B"/><path d="M297.32 190.27l10.83-8.022h-13.427l-4.078-12.597-3.942 12.598h-13.06l10.617 7.81-4.032 12.88 10.73-7.952 10.355 7.618-3.992-12.334" fill="#CF132B"/></g></svg>