<svg width="512" height="512" viewBox="0 0 512 512" xmlns="http://www.w3.org/2000/svg"><title>winnipeg-jets</title><g fill="none" fill-rule="evenodd"><path d="M445.827 257.422c0 104.06-84.315 188.408-188.383 188.408C153.384 445.83 69 361.483 69 257.422 69 153.352 153.358 69 257.42 69c104.075 0 188.407 84.352 188.407 188.422" fill="#A8A9AD"/><path d="M433.176 257.422c0 97.06-78.658 175.763-175.73 175.763-97.082 0-175.783-78.703-175.783-175.763 0-97.074 78.682-175.774 175.754-175.774 97.08 0 175.76 78.7 175.76 175.774" fill="#002E62"/><path d="M274.432 128.948l-17-42.83-18.027 42.834c-63.426 8.56-112.344 62.878-112.344 128.652 0 71.72 58.66 129.86 130.38 129.86s129.34-58.14 129.34-129.86c0-65.78-48.91-120.093-112.34-128.656" fill="#FFF"/><path d="M178.1 233.186l10.773 25.918 49.104-23.43 2.655-30.087 3.645-16.837-24.74-16.22s9.95 58.94 9.955 58.963l-26.33-26.274-.72 20.73-38.538-14.54 14.294 37.83v-3.32l-.098-12.75z" fill="#810120"/><path d="M206.392 311l18.026 2.93 11.09-15.947v-7.32l-34.94-2.327 14.13 12.322-8.306 10.34z" fill="#810120"/><path d="M257.432 382.434l11.197-54.11-.05-.11-11.16 24.61-10.85-24.62-.207.525 11.05 53.7z" fill="#810120"/><path d="M300.684 300.658l14.152-12.346-35.172 2.352v7.317l11.094 15.97 18.238-2.94-8.312-10.35z" fill="#810120"/><path d="M277.183 235.676L326.29 259.1l10.483-26.24.2 13.07v3.926l14.523-38.44-38.544 14.542-.73-20.738-26.333 26.277c.68-4.088 9.96-58.967 9.96-58.967l-24.94 16.373 3.61 16.686 2.643 30.08z" fill="#810120"/><path d="M358.197 250.483l-21.227-.1v18.62l21.227-18.52z" fill="#810120"/><path d="M157.19 250.483l21.008 18.327v-18.427l-21.008.1z" fill="#810120"/><path d="M274.546 205.587l-17.102-78.153-16.805 78.153-2.65 30.09-49.11 23.426-10.78-25.917.1 12.746v45.31l7.8-3.887 49.5 3.31v7.316l-22.49 32.35v19.61l31-15.29 2.563-6.44 10.825 24.74 11.17-24.72 2.55 6.436 31.01 15.29v-19.62l-22.48-32.34v-7.315l49.5-3.31 7.81 3.89v-45.32l-.2-13.073-10.48 26.245-49.1-23.422-2.65-30.09z" fill="#6E6D75"/><path d="M239.662 255.94l-3.22-15.766-49.327 23.527-5.52-13.27v35.35l3.715-1.85 53.59 3.59v11.54l-22.48 32.34v13.09l24.94-12.293 3.858-9.72-2.16-10.755 3.65 8.45 10.71 24.35.014-203.37-13.437 64.924-2.798 31.84-.017.01-1.518 18.03z" fill="#A8A9AD"/><path d="M235.465 290.664l-32.026-2.134 13.53 11.806c-.22.6-7.35 9.426-7.35 9.426l15.85 2.572 9.98-14.35v-7.32z" fill="#C60F2F"/><path d="M243.845 190.554l-21.923-14.403s.012.11.044.27l17.44 42.62 1.18-13.44 3.26-15.03z" fill="#C60F2F"/><path d="M229.48 233.926c-.024-.01-.036-.03-.064-.042l-24.65-24.586-.72 19.086-36.86-13.866 35.988 37.75 30.26-14.444-3.953-3.898z" fill="#C60F2F"/><path d="M249.452 334.74l8 40.43-.033-22.208-7.97-18.22z" fill="#C60F2F"/><path d="M161.82 252.204l16.333 14.262V252.13l-16.333.074z" fill="#C60F2F"/><path d="M293.297 176.29l-22.007 14.52 2.47 11.366 19.537-25.89z" fill="#C60F2F"/><path d="M308.265 250.527l40.21-36.045-36.806 13.922-10.77 18.606 7.35 3.512z" fill="#C60F2F"/></g></svg>