<svg xmlns="http://www.w3.org/2000/svg" width="512" height="512" viewBox="0 0 512 512" xmlns:xlink="http://www.w3.org/1999/xlink"><defs><path id="a" d="M.219 33.152S58.919.016 147.066.016c88.15 0 146.848 33.136 146.848 33.136l-10.562 163.036c-4.874 56.31-18.076 95.748-41.84 121.565-40.01 39.033-94.446 62.612-94.446 62.612s-54.433-23.579-94.445-62.612c-23.764-25.817-36.966-65.255-41.84-121.565L.218 33.152zm13.403 7.725l2.845 43.099c6.5-2.848 16.046-6.914 28.03-10.776 24.779-7.929 60.122-16.06 102.57-16.06 42.45 0 77.792 7.928 102.567 16.06 12.189 3.862 21.735 7.724 28.031 10.776l2.844-43.099c-6.5-3.05-17.06-7.524-31.076-11.994-24.78-7.928-60.12-16.057-102.57-16.057-42.45 0-77.79 7.926-102.57 16.057-13.811 4.47-24.373 8.945-30.671 11.994zm107.65 311.843c11.17 6.501 20.31 10.976 25.794 13.616 5.484-2.64 14.624-7.115 25.793-13.616 18.079-10.37 40.624-25.41 59.513-43.706 20.717-22.77 33.31-58.549 38.187-113.64l6.903-107.741a290.525 290.525 0 0 0-27.828-10.571c-24.775-7.928-60.118-16.06-102.568-16.06-42.447 0-77.79 7.929-102.57 16.06-11.983 3.66-21.326 7.522-27.826 10.57l6.906 107.743c4.875 55.09 17.465 90.869 38.185 113.639 18.889 18.296 41.434 33.337 59.51 43.706z"/><radialGradient id="c" cx="50.005%" cy="50.023%" r="111.551%" fx="50.005%" fy="50.023%"><stop stop-color="#E11B22" offset="0%"/><stop stop-color="#E11B22" offset="72.96%"/><stop stop-color="#942923" offset="100%"/></radialGradient><filter id="d" width="200%" height="200%" x="-50%" y="-50%" filterUnits="objectBoundingBox"><feGaussianBlur stdDeviation="10" in="SourceGraphic"/></filter><linearGradient id="e" x1=".139%" x2="100.031%" y1="50.093%" y2="50.093%"><stop stop-color="#942923" offset="0%"/><stop stop-color="#E11B22" offset="50.51%"/><stop stop-color="#942923" offset="100%"/></linearGradient><path id="f" d="M9.359 4.489s2.843 1.83 1.421 4.269L2.25 20.345s-3.047 3.66-.203 6.099c0 0 6.093 5.692 17.06 11.79L44.09 1.44S43.278.016 35.966.016c-9.14 0-18.077 1.83-26.607 4.473z"/><linearGradient id="g" x1="34.036%" x2="66.281%" y1="89.321%" y2="11.026%"><stop stop-color="#942923" offset="0%"/><stop stop-color="#E11B22" offset="50.51%"/><stop stop-color="#942923" offset="100%"/></linearGradient><path id="i" d="M1.844 23.8l-.813-1.422c-1.015-2.44-2.234-5.895 2.64-11.994C11.797 1.643 23.78-1.203 26.014 2.659c1.625 3.456-1.828 7.928-6.499 11.587-3.86 3.05-7.515 4.27-7.515 4.27l10.765 13.213c-3.047.61-5.484.61-7.515.813-9.343-1.22-11.78-5.488-13.405-8.741z"/><linearGradient id="j" x1="16.93%" x2="82.723%" y1="69.34%" y2="30.828%"><stop stop-color="#942923" offset="0%"/><stop stop-color="#E11B22" offset="50.51%"/><stop stop-color="#942923" offset="100%"/></linearGradient><path id="l" d="M24.998 23.8l.812-1.625c1.016-2.44 2.235-5.896-2.64-11.994C15.046 1.439 3.062-1.407.828 2.456c-1.625 3.456 1.828 7.928 6.5 11.587 3.859 3.05 7.514 4.27 7.514 4.27L4.078 31.525c3.046.61 5.484.61 7.515.813 9.14-1.016 11.78-5.285 13.405-8.538z"/><linearGradient id="m" x1="17.043%" x2="82.836%" y1="30.832%" y2="69.344%"><stop stop-color="#942923" offset="0%"/><stop stop-color="#E11B22" offset="50.51%"/><stop stop-color="#942923" offset="100%"/></linearGradient><path id="o" d="M34.528 4.489s-2.843 1.83-1.421 4.269l8.53 11.587s3.047 3.66.203 6.099c0 0-6.093 5.692-17.06 11.79L0 1.44S.812.016 8.124.016c8.937 0 17.874 1.83 26.404 4.473z"/><linearGradient id="p" x1="33.76%" x2="66.143%" y1="11.023%" y2="89.32%"><stop stop-color="#942923" offset="0%"/><stop stop-color="#E11B22" offset="50.51%"/><stop stop-color="#942923" offset="100%"/></linearGradient></defs><g fill="none" fill-rule="evenodd"><g transform="translate(109.746 56.207)"><mask id="b" fill="#fff"><use xlink:href="#a"/></mask><path fill="#942923" mask="url(#b)" d="M-29.435 403.54h351.784V-26.208H-29.435z"/><path fill="#942923" fill-rule="nonzero" mask="url(#b)" d="M-30.045-26.208h351.784v429.747H-30.045z"/><ellipse cx="145.645" cy="194.358" fill="url(#c)" fill-rule="nonzero" filter="url(#d)" mask="url(#b)" rx="170.815" ry="170.964"/></g><path d="M154.242 129.407c-11.983 3.862-21.53 7.928-28.029 10.776l-.046-.718a171.12 171.12 0 0 0-11.94 15.706l6.3 97.224c4.874 56.31 18.076 95.748 41.84 121.565 18.867 18.404 40.936 33.372 58.997 44.052a171.182 171.182 0 0 0 33.34 3.511c-5.58-2.714-13.844-6.867-23.686-12.596-18.077-10.37-40.622-25.41-59.511-43.706-20.72-22.77-33.31-58.549-38.185-113.64l-6.906-107.741c6.5-3.05 15.843-6.912 27.826-10.57 24.78-8.132 60.123-16.06 102.57-16.06 42.45 0 77.793 8.13 102.568 16.06a290.525 290.525 0 0 1 27.828 10.57l-6.903 107.742c-4.877 55.09-17.47 90.869-38.187 113.639-18.89 18.296-41.434 33.337-59.513 43.706-9.816 5.715-18.066 9.862-23.642 12.576a171 171 0 0 0 34.218-4.035c17.886-10.645 39.531-25.417 58.077-43.508 23.764-25.817 36.966-65.255 41.84-121.565l6.155-94.986a171.783 171.783 0 0 0-13.465-17.997c-6.265-2.917-15.225-6.462-26.408-10.005-24.775-8.132-60.118-16.06-102.568-16.06-42.447 0-77.79 8.132-102.57 16.06"/><path stroke="#BCBEC0" stroke-width="2" d="M125.198 134.49l-2.437-37.405c6.296-3.05 16.858-7.522 30.872-11.994 24.78-7.929 60.12-16.06 102.57-16.06 42.45 0 77.79 7.928 102.57 16.06 14.015 4.472 24.576 8.944 30.873 11.994l-2.844 43.096-7.109 111.198c-4.874 55.09-17.467 90.869-38.184 113.637-18.89 18.296-41.434 33.339-59.511 43.707-11.171 6.505-20.311 10.977-25.795 13.62-5.484-2.643-14.624-7.115-25.795-13.62-18.076-10.368-40.621-25.411-59.51-43.707-20.718-22.768-33.31-58.547-38.185-113.637l-7.515-116.89z"/><path fill="#FFF" fill-rule="nonzero" d="M125.198 134.49l-2.437-37.405c6.296-3.05 16.858-7.522 30.872-11.994 24.78-7.929 60.12-16.06 102.57-16.06 42.45 0 77.79 7.928 102.57 16.06 14.015 4.472 24.576 8.944 30.873 11.994l-2.844 43.096-7.109 111.198c-4.874 55.09-17.467 90.869-38.184 113.637-18.89 18.296-41.434 33.339-59.511 43.707-11.171 6.505-20.311 10.977-25.795 13.62-5.484-2.643-14.624-7.115-25.795-13.62-18.076-10.368-40.621-25.411-59.51-43.707-20.718-22.768-33.31-58.547-38.185-113.637l-7.515-116.89z"/><path fill="url(#e)" d="M128.177 181.738c-.61-.203-1.015-.407-.406-3.456.406-1.016 0-1.83-1.625-1.83 0 0-1.422.204-3.453.204-6.905 0-8.53-3.253-8.53-3.253s-1.828-3.252 1.218-2.642c2.235.406 9.343-2.44 9.343-3.253 0-1.22-2.03-.61-3.656-.61-1.421-.203-3.656-1.016-6.905-2.44-2.438-.812-4.266-.61-6.906.407 0 0-2.234 2.643-1.219-1.22 1.016-3.659 5.89-6.708 8.734-7.521.812-.203-.406-3.05-1.422-2.846-1.422.203-2.843 1.626-5.077 1.626 0 0-3.047-.203-4.266-1.83-.406-.61-.406-1.016-.61-1.422-.608-1.017-1.015-1.83-.812-2.643.204-.813.61-1.22 1.016-1.83.406-.61 1.016-1.626 1.422-2.033 1.218-.813 3.656 0 3.859-.61.61-2.032-5.078-1.422-6.703-2.032-.812-.407-1.218-1.22-1.828-1.83-.406-.61-1.015-1.626-1.218-2.033 0-1.016 0-1.83.609-3.456 1.016-3.862 3.656-6.301 4.875-6.301 1.421 0 3.046 0 4.671-.204 1.625-.203-.812-4.879 1.016-6.098 2.234-1.423 4.062.406 4.874.61.61.203 1.625.406 3.656.406 1.219 0 2.844.407 2.438 2.033 0 0-.407 4.066.203 4.676.609.203 2.03-2.033 2.64-2.846.406-.814 2.031-1.83 3.047-.204 0 0 1.015 1.83 2.437 3.05 2.031 1.423.61 3.252.61 3.252s-1.829 2.643-5.282 2.44c-.609 0-1.421.406-2.03 1.423-.61 1.22-.61 10.774 1.624 12.197 2.64 1.626 7.921 3.252 12.187 5.489 4.671 2.642 6.296 4.878 8.53 7.928 1.828 2.236 8.53 2.642 9.546 3.456.407.406 0 4.065-9.546 9.554-9.749 4.676-12.999 3.456-13.811 3.862-.406.61-1.625 2.44-3.25 1.83zm49.762-34.355c1.828.61 3.859-2.643 3.859-2.643s-.813-1.423-3.047-1.423c-2.843.203-3.453 1.016-3.453 1.016s.204 2.236 2.64 3.05zm-4.265-9.758c2.843-1.22 4.671-1.626 4.671-1.626s-.61-.814-1.828-.407c-2.234.813-2.843 2.033-2.843 2.033zM195 118.719s-2.234-.813-5.078 0c-2.843 1.017-3.656 2.236-3.453 2.44.204.61 2.235.406 3.86.406 2.843-.203 4.671-2.846 4.671-2.846zm-16.452 42.284c-4.062.813-9.14 2.033-13.202 3.456-3.859 1.626-6.702 3.049-10.358 7.115-2.844 2.642-5.89 6.505-11.984 8.944-4.265 1.627-6.906 4.27-6.906 5.082 0 0-.609 1.423.407.814 0 0 1.625-1.22 4.671-1.627 3.047-.203 5.687-.203 5.687-.203l.61.61s-3.656 2.44-5.89 5.895c-1.829 2.846-3.047 5.692-3.047 9.351 0 .814.812 2.237 1.625 1.017 0 0 4.062-5.489 6.093-5.489 1.828 0 4.265 1.423 7.515 1.423 5.484 0 7.312-.406 7.312-.406l.203.813s-2.031 2.033-4.062 5.488c-1.219 2.237-2.234 4.88-2.64 8.132 0 1.423.609 2.033 1.827 1.016 0 0 3.047-3.659 4.469-4.472 1.625-.813 4.468-1.22 7.515-2.44 3.859-1.22 6.093-2.845 6.093-2.845l.812.813s-.812 3.862-.406 6.505c.61 2.236 1.828 3.862 1.828 6.708 0 3.66-3.453 9.148-3.453 9.148v1.22s4.063-1.83 8.734-3.456c3.25-1.22 6.703-4.066 8.124-6.708 2.235-4.066 3.25-4.066 3.25-4.066s.813 1.423.203 4.066c-1.218 3.659-2.437 6.505-2.437 8.334 0 0 .406.204 1.015.61 3.86-5.285 7.922-5.285 12.593-11.384 6.093-8.741 4.875-18.296 4.875-18.296l.406-.406s1.625.61 2.844.813c1.624.203 3.25 0 5.077.407 1.828.61 2.438 1.83 2.64 3.049.204 1.22.407 3.862 1.22 6.912.202 1.22 1.015 1.423 1.827.61.813-.814 4.469-5.083 6.297-13.824.812-4.066.203-6.709-2.234-9.961-1.422-1.83-4.875-4.879-7.516-8.132-1.827-2.236-2.843-4.878-2.234-7.928.203-1.423 1.219-1.22 2.234-.813.61.407 1.22.407 1.22.407s3.249.61 6.296-1.22c4.874-3.253 5.687-7.522 5.687-7.522s-.813-.61-2.64.407c-.61.407-1.423 1.016-2.844.61-1.016-.203-4.266-1.83-4.266-4.88 0 0-.203-3.048-1.015-7.52-.813-4.676-1.422-6.71-1.422-6.71s-.406-1.422.61-1.422c1.421.203 3.858.203 5.28-.407 0 0 4.265-1.626 6.297-6.098.609-1.22 1.624-3.456.812-4.676-.406-.61-2.64 1.017-4.875 1.423-1.624.203-3.25 0-4.265-1.423-.406-.813-1.625-2.033-2.437-3.862-.813-2.236-.203-3.66-.203-3.66s3.859-.406 6.702-3.049c1.422-1.423 7.718-10.977 7.718-14.23 0-.406-.609-1.22-2.03-.61 0 0-6.906 6.709-11.984 8.945-4.265 1.423-7.109-1.626-7.109-1.626s3.25-1.83 6.906-4.473c2.437-1.83 4.265-4.065 4.265-6.911 0-1.017-.203-1.83-1.625-.814 0 0-5.078 3.05-8.733 4.27-6.5 2.032-10.968 1.83-10.968 1.83s.203-2.034 4.265-4.067c2.64-1.22 4.062-1.016 3.859-2.44-.203-.609-.812-1.422-1.828-1.829 0 0-4.875-1.83-10.359 3.253-4.671 4.879-6.296 8.538-6.296 8.538s-4.468.406-9.14 2.033c-7.109 2.643-9.14 4.675-9.952 5.285 0 0-2.64 2.44-4.062 3.05-2.438.813-4.266.61-6.906.61-2.031 0-4.875.203-5.89.813-.813.406-2.031 1.016-3.453 3.455-.406 1.017-.406 1.627-.203 1.83.812.61 2.031 1.22 2.64 2.033.61 1.016.813 2.846 2.235 5.285 1.218 1.83 3.046 4.473 4.874 5.489 1.422.61 3.25.61 3.86 1.423 0 0-3.25 2.236-6.5 1.626-1.828-.406-4.469-2.033-6.297-6.911-1.015-2.643-2.64-4.473-4.671-5.083-1.625-.203-4.265-.203-7.109 1.83-2.031 1.626-2.844 2.44-3.656 3.456-.812 1.016-2.031 3.05-1.625 4.269.406.813 1.422 1.83 3.25 1.83 1.219 0 2.64-.61 4.468-2.033 1.016-.814 2.64-1.423 3.656-1.423 1.625.203 2.64 6.708 7.718 9.554 3.453 1.83 8.125 1.423 8.125 1.423s1.218.61 1.218 2.44c0 1.016.407 2.439.813 3.049-.203 1.423-1.219 2.643-3.047 3.862a4.529 4.529 0 0 0-1.218 1.423s1.421 1.83 6.093.813c2.64-.61 5.687-2.846 5.687-2.846s.61.407.203 1.423c-.203.407-.203.61.203 1.017.61.406 1.219.61 2.437.61 1.422 0 4.469-1.627 6.094-3.05.609-.406 1.015.204.203 1.017.61.406-2.234 3.252-6.703 4.269zm-64.385-40.25c1.015.406 1.015.609 1.828.812 1.015.204 1.421.204 1.625 0 .406-1.22.812-3.659 0-4.675-1.625-1.627-5.078-2.033-5.688-1.22-.203.61 0 1.22.61 1.83 2.234 1.22 1.625 3.252 1.625 3.252zm-17.67 17.888c1.624 0 1.827-.813 1.827-1.22.203-.61.203-1.422.61-3.049 0-.406.609-1.83-1.22-1.22-3.046 1.017-5.686 5.896-5.686 5.896s-.813 1.22.406 1.22c2.64-.61 3.453-1.83 4.062-1.627zm6.499 15.857c.609 0 .812-.407.609-1.017-.203-.406-.812-1.016-2.031-1.22-1.219 0-1.625.814-1.625.814-.203.406-.203.813-.203 1.423 0 .813-.406 1.22-.406 2.642 0 .814.812 1.22 1.422.407.812-1.016.812-2.44 1.015-2.846.203-.203.61-.203 1.219-.203zm25.795-29.07c-.204.203 0 .61.406 1.423.406.61 1.828 1.626 1.828 1.626.812-.203 1.828-1.016 1.625-2.236-.204-2.44-.61-3.456-.813-4.066-.203-.61-1.015-1.83-1.828-1.626-.203.203-.203 1.626-.203 1.626s.203 1.017 0 1.83c-.406.61-1.015 1.423-1.015 1.423zm83.071 72.776s1.219 5.286-2.64 13.417c-3.25 6.302-8.734 9.758-8.734 9.758s.812 3.456 3.656 4.675c4.468 1.627 8.734 9.961 8.734 13.214-.204 6.912-.813 8.538-2.844 14.027-2.234 5.285-3.453 11.587-3.453 14.027 0 4.065 3.86 8.74 3.86 12.197 0 5.285-1.626 7.521-3.657 13.62-3.25 8.741-.609 13.417-.609 13.417.61 1.22 1.016.813 1.422 0 3.453-9.148 8.53-12.4 8.53-12.4 1.625-1.22 1.625.203 1.219 1.626-1.828 5.895-2.437 10.977-2.437 10.977l1.015-.203c6.5-7.318 7.718-9.961 8.53-12.4 1.22-4.676 1.22-9.148 1.22-9.148s.609-2.643 4.062-2.237c3.452.61 5.687-.406 8.53-1.83 3.453-2.439 5.89-5.081 5.89-5.081s1.625-1.423 3.656 0c3.453 3.252 3.453 7.928 1.625 11.587-2.64 4.879-4.874 5.692-6.093 5.692-1.625 0-3.25-2.44-5.687-2.44-3.25 0-4.672 2.033-4.672 2.847 0 1.83 1.422 1.83 1.625 3.252.61 3.253 2.234 5.895 2.234 5.895-.406.814-3.25 2.237-4.062 3.253-.61.813-.812 2.44-.812 2.44s-.61 1.016 2.234 2.439c2.234 1.016 2.437 3.252 4.875 5.082 1.828 1.22 3.452-.61 3.452-.61 1.828-2.44 2.235-4.269 2.235-4.269.406-1.016 1.625-.61 1.625 0 .203 1.626 1.421 2.236 2.03 2.236 2.438.204 4.063-1.22 4.063-1.22s2.03.204 3.453-.813c2.64-1.626 3.656-3.455 3.656-3.455s.609-1.22-.407-3.253c-.609-.813-1.624-1.423-1.624-1.423s.609-2.033 2.234-2.033c1.828 0 3.656-1.83 4.468-3.659.813-2.236 1.016-4.269 1.016-4.269.203-.61-.61-2.846 1.421-3.253 2.438-.61 3.453-1.22 4.469-2.846 1.218-2.236 1.015-3.659 1.015-3.659-.203-.406-1.015-.61-1.015-.61-.61-.203-.406-.61-.203-.813 2.03-1.83 5.28-4.879 5.687-6.912.203-1.22 0-2.032-1.016-3.049-4.062 2.236-6.5 1.83-6.702 1.22 0-.61 2.64-1.83 2.64-1.83 3.25-2.033 4.672-5.082 5.28-7.521 1.016-4.676.407-7.115.407-7.115h-.812c-3.656 6.505-9.343 8.741-9.343 8.741-1.016.407-1.219-.813-.813-1.423 2.64-3.253 3.656-5.285 4.062-8.538.407-3.253.203-4.879-.812-7.522-.203-.61-.61-.406-.813 0-1.624 3.66-2.437 4.066-4.062 6.709-2.234 3.05-4.874 4.269-5.89 3.659-1.625-1.423-1.422-4.676-2.64-6.099-2.031-1.83-5.078-1.423-7.515-.203-1.828 1.017-5.281 4.27-5.281 4.27l-.406-.407c.812-5.49-1.016-9.961-1.016-9.961l.61-.814c2.437-.203 4.062.61 4.062.61 4.062 1.627 6.5 1.83 11.78 1.83 6.906 0 15.842-4.676 20.31-11.588 6.297-10.57 3.657-20.125 2.235-23.784-1.828-4.269-3.047-5.692-3.656-6.302-.812-.61-1.219-.203-1.015.61.812 2.846 1.218 7.115.203 14.027-.203 1.423-1.016 1.22-1.625.406-1.219-2.236-3.453-5.692-5.078-7.318-2.64-2.643-5.078-4.269-5.078-4.269-1.218-1.016-.812-2.44-.609-4.066 1.219-5.285.61-8.131-.406-12.4-1.219-4.473-5.89-9.555-7.921-10.774-.813-.61-1.422 0-.813.813 1.219 1.423 2.234 4.065 2.437 8.944 0 3.253-.812 6.099-.812 6.099-2.437-1.626-5.89-7.318-8.124-12.604-1.828-3.862-2.64-9.148-1.422-13.213 1.219-3.456 3.859-5.896 6.093-7.319 3.86-2.642 7.515-7.725 8.53-11.79 1.422-7.725-1.827-8.742-1.827-8.742-2.64 7.929-8.734 11.588-9.343 11.994-.813.407-1.016.204-.813-.61 1.016-4.065 4.062-9.148 4.062-14.026 0-3.456-2.437-6.099-4.671-8.945-2.437-3.66-2.437-7.725 1.625-12.604 3.046-3.252 5.89-4.675 7.718-5.082 1.422-.406 2.437-.813 2.031-1.626-.406-1.017-1.016-1.017-2.437-.407-5.078 1.83-8.937 3.66-12.593 5.692-3.453 1.83-4.062 2.033-5.484 3.253-2.843 3.252-3.047 5.489-2.843 10.774.406 4.676 2.234 11.18 2.234 11.18l-.406.814s-3.453-2.643-6.906-3.253c-5.078-.61-5.078 1.017-5.078 1.017s7.718 7.725 8.937 13.417c.812 5.488.812 8.944.812 16.67 0 12.603 1.625 18.092 6.297 23.174 4.062 3.862 9.546 9.554 10.155 13.213.203.814 0 1.017-.61 1.017-1.624.406-2.233.61-3.858 1.016-1.828.61-2.64 1.22-5.078.204-3.656-1.627-5.484-5.286-6.093-7.115-.203-1.22-.406-1.83-.406-1.83-.204-1.626-1.828-1.626-1.828-.203-.204 3.049-.204 4.065.609 7.318 1.828 5.692 9.546 8.945 13.405 10.164 4.672 1.22 11.374 1.83 14.015 3.253 3.656 2.643 4.874 6.302 3.656 10.367-1.828 3.66-4.672 4.676-8.328 5.286-5.28.61-7.312-.407-11.78-3.253-7.718-4.879-14.624-11.384-18.483-17.279-4.265-7.318-9.952-13.417-9.952-13.417l-5.484-6.912-1.016.61zm54.027 101.44c-1.422.813-1.828 3.456-1.219 4.066 1.219.813 2.64.406 4.469-.407 3.25-1.626 3.859-4.675 3.859-4.675.203-1.83-1.625-.61-2.438.203-1.421 1.016-2.64 1.423-3.452 1.423-.813-.203-1.219-.61-1.219-.61zm-10.765 14.23c-2.64.61-3.656 1.017-3.25 2.033.813 3.05 3.656 3.253 4.469 3.253 2.437 0 4.874-2.44 4.874-2.44 1.828-2.44-.406-1.83-1.015-1.626-2.234.813-2.234.61-2.844.61-.812 0-2.234-1.83-2.234-1.83zm-18.686 1.626c-.812-1.423-1.218-1.83-1.828-2.236-1.625-1.22-2.234 0-2.64.407-1.219 2.643-1.219 3.862-1.219 5.082a3.502 3.502 0 0 0 2.031 3.253c.61.203 2.031.203 2.438-.407.203-.61-.61-1.016-.813-1.83-.406-1.423.813-2.439.813-2.439 1.218-1.016 1.218-1.83 1.218-1.83zm-3.453-16.466c.61 0 1.219-.61.407-1.83-.61-.61-1.625-.812-2.64-.406-1.829.407-2.641 1.626-3.454 3.05-1.421 2.439-.609 3.049 0 3.659 1.422 1.016 2.234.813 2.234.813s-.609-1.627.407-2.643c1.828-1.423 2.234-2.236 2.234-2.236.203-.407.812-.407.812-.407zm-26.2-48.179c.202-.203 4.67-4.065 3.858-11.79-1.421-8.132-4.874-9.961-4.874-9.961s-7.109 6.302-11.984 5.285c-6.296-1.626-9.952-2.236-16.045-2.236-3.86 0-7.312 2.643-9.343 4.879-3.047 4.066-3.656 11.384-3.656 11.384s0 2.846-3.86 2.846c-3.046-.203-4.468.203-6.093.61-3.25 1.016-4.671 3.456-5.077 4.675-1.625 5.083.203 7.319.203 7.319 1.422-1.423 2.03-3.253 3.859-5.082 1.828-1.627 4.062-1.22 5.078 0 1.625 2.032 3.25 3.252 4.671 3.455 2.234.204 4.469-.813 6.093.407.407 4.269 1.828 7.725 1.828 7.725s0 6.098-5.28 11.384c-3.25 3.05-5.281 3.862-7.922 3.862-2.437 0-3.453-3.049-4.062-4.675-.61-2.033-1.828-3.863-3.859-3.456-2.437.61-4.265 2.236-4.468 4.676-3.656 1.016-5.281 1.83-5.89 3.252-.813 1.83.203 2.846.203 2.846s-4.469 3.05-4.469 5.286c0 3.659 1.828 6.911 4.469 6.911 2.843 0 4.468-3.049 6.905-2.846-1.828 1.627-2.64 3.456-2.64 4.88 0 1.219 1.219 2.439 4.468 4.471 2.64 1.22 6.297 1.627 7.718.204 1.22-1.423 1.422-3.253 2.438-3.456.61 1.22 2.234 2.643 3.046 2.643 3.047 0 3.047-.61 6.703-1.017 2.843-.406 5.687-1.626 5.687-3.252 0-1.627-3.25-2.846-3.25-4.676 0-.61 1.219-2.44 2.234-3.456 1.016-1.423 2.032-.406 2.032-.406s1.421 6.505 4.265 8.944c3.453 2.643 6.296 2.236 9.14-1.016-6.703-.61-4.062-4.676-4.062-4.676s3.25 2.44 10.358 2.44c3.047 0 5.484-3.253 5.484-3.253v-1.22s-3.453.61-5.078-2.236c-2.03-3.05-2.234-4.472-2.234-4.472-.406-.61.203-.813.61-.813 2.03-.204 2.03 1.22 5.483-1.017 3.047-2.033 3.453-5.082 3.453-5.082.203-1.016-.406-1.423-.61-1.22-1.827 2.44-3.452 1.83-4.874 1.017-2.234-1.83-2.843-4.066-2.843-4.066s-.406-1.626 1.218-2.236c4.672-1.83 8.328-7.318 8.734-12.604 0-.203-.61-.406-.61-.406-.812 1.016-3.858 2.846-6.092 3.049-2.235 0-3.453-1.22-3.86-2.44-.812-2.846 0-4.065 1.016-5.488 3.453-4.473 7.312-5.489 11.78-5.896zm-41.029 60.173s3.047 2.033 4.875 2.643c1.625.61 2.234.203 1.625-1.017 0 0-1.016-1.626-1.422-3.455-.203-.814-.406-1.017-.812-1.22 0 0-1.016-.61-2.438 0 0 0-.812.203-1.828 1.016-.812.204-.812 1.22 0 2.033zm-21.123-.813c0 .61.812 1.423 1.219 2.643.406 1.016 2.03 1.423 2.437 1.016.203-.406 1.016-2.643.812-4.879 0 0-1.218-.406-1.828-1.016-.609-.61-1.015-.61-1.828-.813.204-.204-.812.203-.812 3.049zm-14.218-12.4c-.609 2.032 1.422 3.862 1.422 3.862s.203-1.016 1.625-1.83c1.219-.813 1.422-2.032 1.422-2.032s-.203-.204-.203-.61c-.203-1.017.406-2.236 0-3.05-.407-.61-1.219-.406-1.219-.406s-2.234 1.626-3.047 4.066zm9.75-20.532c-2.031.813-4.063 2.032-4.063 2.44 0 .609.61.812.61.812s.812-.61 2.843 0c2.031.61 2.844.203 2.844.203s.203-.813 1.625-1.423c1.421-.61.609-2.236.609-2.236s-2.234-.61-4.468.204zm-18.483-69.93c-.406-2.034-.61-3.253-2.64-3.253-3.047 0-1.626 2.236-6.297 4.269-6.5 1.83-4.468 5.692-4.468 5.692s-1.828-.407-4.063.813c-2.03 1.22-4.062 6.708-.203 11.384.406.406 0 .813 2.031 1.016.407 0 .61.407.203 1.017 0 0-3.046 3.659-1.218 6.911.812 1.22 2.843 3.05 11.983 3.66 2.844.203 2.844-2.44 3.656-2.44 1.422 0 1.016 1.423 4.062 1.423 2.031 0 3.047-3.66 4.875-4.879 2.031-1.22 4.468-.813 5.89-2.846 1.422-2.236-1.219-4.269-1.219-4.269s1.016-.813 3.047-.203c0 0 5.484 6.505 9.75 6.505 5.89 0 9.545-2.643 9.545-2.643s2.844-1.626.204-2.033c0 0-4.672-.406-6.5-2.642 0 0-1.422-1.83-.406-2.846 1.422-1.22 2.234-.204 2.64.203 1.828 2.846 3.453 3.66 4.672 4.269 1.218.407 2.234.61 4.671.61 1.828 0 2.64-1.017 2.64-1.22-1.827-1.626-3.858-6.708-1.218-10.774 2.031-2.846 5.484-.813 6.093 0 .813.813 1.625 2.44 3.86 2.033 1.827-.407.812-7.115-1.22-9.758 0 0-3.046-.813-8.327 1.22-3.453 1.423-7.718 5.895-9.14 5.692-1.625-.61-3.046-4.879-1.625-8.132 1.22-2.439 4.469-5.895.813-7.318-5.28-2.033-11.577 3.05-13.811 5.082-2.64 2.236-5.078 5.692-12.187 9.148 0 0-6.093 2.643-6.093.61.406-1.626.203-3.66 0-6.302zm-13.812-3.253c-5.484 1.83-4.062 3.862-4.062 3.862s3.656-.813 5.281.61c0 0 5.078-1.22 6.5-3.863.203 0-2.032-2.236-7.719-.61zm-11.78 18.092c-1.625 2.033-1.016 6.099-.812 6.912.203.813.609 1.83 1.421.406 0 0 2.031-3.862 5.078-4.879 0 0-.61-1.423-.812-4.269 0-.203-2.438-1.016-4.875 1.83zm15.436 21.345c2.844 4.27 6.297 2.643 6.297 2.643s-1.625-2.643-1.219-4.88c.203-.812.812-.609.812-1.422 0 0-3.859 0-6.905-.813 0-.203-1.016.813 1.015 4.472zm20.514-9.148c-2.03.203-3.656 3.05-3.656 3.05 3.047 4.878 8.125 2.032 8.125 2.032s.406-1.016-.203-1.016c-1.828-.407-2.235-.61-2.438-.813-1.015-2.44-1.828-3.253-1.828-3.253z" transform="translate(61 30)"/><path stroke="#000" stroke-width="1.701" d="M256.203 56.224c88.15 0 146.848 33.136 146.848 33.136l-10.562 163.035c-4.874 56.31-18.077 95.748-41.84 121.566-40.013 39.03-94.446 62.612-94.446 62.612s-54.433-23.581-94.445-62.612c-23.764-25.818-36.966-65.255-41.84-121.566L109.354 89.36s58.699-33.136 146.848-33.136z"/><g fill="#FFF" stroke="#000"><path d="M83.764 410.146L73 396.932s3.656-1.22 7.515-4.269c4.672-3.659 7.922-8.334 6.297-11.79 1.422 3.049 1.828 5.895 1.828 9.35.812 10.368 4.062 17.687 4.062 17.687-3.453 1.016-6.5 1.83-8.937 2.236z"/><path d="M83.764 410.146L73 396.932s3.656-1.22 7.515-4.269c4.672-3.659 7.922-8.334 6.297-11.79 1.422 3.049 1.828 5.895 1.828 9.35.812 10.368 4.062 17.687 4.062 17.687-3.453 1.016-6.5 1.83-8.937 2.236z"/></g><path stroke="#000" d="M425.596 380.872c-1.422 3.05-1.828 5.896-1.828 9.351-.813 10.368-4.062 17.686-4.062 17.686"/><path fill="#FFF" d="M419.706 407.909c3.453 1.016 6.296 1.626 8.734 2.033l10.765-13.214s-3.656-1.22-7.515-4.269c-4.266-3.252-7.515-7.318-6.906-10.57-1.016 2.642-1.422 5.081-1.219 8.13-.406 10.572-3.859 17.89-3.859 17.89z"/><path stroke="#000" d="M419.706 407.909c3.453 1.016 6.296 1.626 8.734 2.033l10.765-13.214s-3.656-1.22-7.515-4.269c-4.266-3.252-7.515-7.318-6.906-10.57-1.016 2.642-1.422 5.081-1.219 8.13-.406 10.572-3.859 17.89-3.859 17.89z"/><path fill="#FFF" d="M201.973 420.92l24.982-36.795s-.812-1.423-8.124-1.423c-24.17 0-47.934 12.4-66.213 24.191-40.216 27.037-54.027 30.9-62.964 31.103-4.062-.407-8.937-.407-13-8.945-1.42-2.846-10.764-20.938-13.607-26.63h.203c1.625 3.049 4.062 7.521 13.405 8.334 8.937-.203 26.201-2.236 66.417-29.273 18.28-11.587 41.84-24.19 66.213-24.19 7.312 0 9.546 3.862 9.546 3.862l11.984 21.345-26.608 39.03-2.234-.61z"/><path stroke="#000" d="M203.801 421.733l26.607-39.031-11.983-21.345s-2.234-3.863-9.546-3.863c-24.17 0-47.934 12.4-66.214 24.191-40.215 26.834-57.48 28.867-66.416 29.07-9.343-.813-11.577-5.082-13.405-8.334"/><path fill="#FFF" stroke="#000" d="M323.026 388.19s-2.234 1.424-1.422 2.44l9.952 12.4s2.438 2.643 1.828 6.709l-6.905 31.713s-1.219 4.269-5.687 5.895c-10.562 4.879-36.966 15.246-64.589 15.246-28.029 0-54.636-10.774-64.995-15.45-4.468-2.439-5.28-6.098-5.28-6.098l-6.906-31.306c-.61-4.066 1.828-6.708 1.828-6.708l9.952-12.401c.813-1.016-1.625-2.44-1.625-2.44l3.047-1.016s2.843 1.83 1.422 4.27l-8.531 11.587s-3.047 3.659-.203 6.098c0 0 28.841 26.427 71.291 26.427 42.45 0 71.291-26.427 71.291-26.427 2.844-2.44-.203-6.098-.203-6.098l-8.53-11.588c-1.422-2.44 1.421-4.269 1.421-4.269l2.844 1.017z"/><path stroke="#000" d="M323.026 388.19s-2.234 1.424-1.422 2.44l9.952 12.4s2.438 2.643 1.828 6.709l-6.905 31.713s-1.219 4.269-5.687 5.895c-10.562 4.879-36.966 15.246-64.589 15.246-28.029 0-54.636-10.774-64.995-15.45-4.468-2.439-5.28-6.098-5.28-6.098l-6.906-31.306c-.61-4.066 1.828-6.708 1.828-6.708l9.952-12.401c.813-1.016-1.625-2.44-1.625-2.44l3.047-1.016s2.843 1.83 1.422 4.27l-8.531 11.587s-3.047 3.659-.203 6.098c0 0 28.841 26.427 71.291 26.427 42.45 0 71.291-26.427 71.291-26.427 2.844-2.44-.203-6.098-.203-6.098l-8.53-11.588c-1.422-2.44 1.421-4.269 1.421-4.269l2.844 1.017z"/><g transform="translate(182.865 382.685)"><mask id="h" fill="#fff"><use xlink:href="#f"/></mask><use stroke="#000" xlink:href="#f"/><path fill="url(#g)" fill-rule="nonzero" stroke="#000" mask="url(#h)" d="M12.405-10.554L-3.031 31.729l32.294 11.587 15.233-42.08z"/></g><path fill="#FFF" d="M308.605 421.733l-26.607-39.031 11.983-21.345s2.235-3.863 9.546-3.863c24.17 0 47.934 12.4 66.214 24.191 40.215 27.038 57.48 28.867 66.417 29.274 9.343-.813 11.577-5.082 13.405-8.335-2.844 5.489-11.984 23.581-13.609 26.63-4.062 8.335-8.733 8.538-12.999 8.945-8.936-.203-22.748-4.269-62.963-31.103-18.28-11.587-41.84-24.19-66.214-24.19-7.312 0-8.124 1.422-8.124 1.422l24.982 36.795-2.03.61z"/><path stroke="#000" d="M308.605 421.733l-26.607-39.031 11.983-21.345s2.235-3.863 9.546-3.863c24.17 0 47.934 12.4 66.214 24.191 40.215 27.038 57.48 28.867 66.417 29.274 9.343-.813 11.577-5.082 13.405-8.335m-247.59 18.296l24.982-36.795s-.812-1.423-8.124-1.423c-24.17 0-47.934 12.4-66.213 24.191-40.216 27.037-54.027 30.9-62.964 31.103-4.062-.407-8.937-.407-13-8.945-2.03-3.252-14.623-28.053-14.623-28.053-1.015-2.44-2.234-5.896 2.64-11.994 8.125-8.742 20.108-11.588 22.342-7.725 1.625 3.456-1.828 7.928-6.499 11.587-3.86 3.05-7.515 4.27-7.515 4.27l10.968 13.213"/><path stroke="#000" d="M310.433 420.92l-24.982-36.795s.812-1.423 8.124-1.423c24.17 0 47.934 12.4 66.214 24.191 40.215 27.037 54.027 30.9 62.963 31.103 4.063-.407 8.937-.407 13-8.945 1.827-3.456 14.623-28.257 14.623-28.257 1.016-2.44 2.234-5.895-2.64-11.994-8.125-8.74-20.108-11.587-22.342-7.724-1.625 3.455 1.828 7.928 6.5 11.587 3.858 3.05 7.514 4.269 7.514 4.269l-10.765 13.214"/><g transform="translate(61 378.62)"><mask id="k" fill="#fff"><use xlink:href="#i"/></mask><use stroke="#000" xlink:href="#i"/><path fill="url(#j)" fill-rule="nonzero" mask="url(#k)" d="M23.17-3.033L-5.062 13.23 9.562 39.047l28.435-16.262z"/></g><path fill="#BCBEC0" d="M256 458.731c-25.389 0-49.965-9.148-61.136-14.23 0 0-.406-.203-.406.813 0 .407.406.61.406.61 11.577 5.082 35.747 14.027 61.136 14.027 25.389 0 49.762-8.945 61.339-14.027 0 0 .406-.203.406-.61 0-1.016-.406-.813-.406-.813-11.171 5.082-35.747 14.23-61.339 14.23zm-36.763-78.469h-.406c-24.982 0-49.355 12.807-67.635 24.598-40.013 26.834-53.418 30.493-61.542 30.696h-.813s-1.624-.203-.609-1.423c.406 0 1.016.204 1.625.204 7.718-.407 20.92-3.863 60.73-30.493 18.28-11.588 42.652-24.598 68.041-24.801 1.219-.204 1.422 1.22.61 1.22zm73.932 0h.406c24.983 0 49.356 12.807 67.635 24.598 40.013 26.834 53.418 30.493 61.542 30.696h.813s1.625-.203.61-1.423c-.407 0-1.016.204-1.626.204-7.718-.407-20.92-3.863-60.73-30.493-18.28-11.588-42.652-24.598-68.04-24.801-1.423-.204-1.423 1.22-.61 1.22z"/><g fill="#E11B22" stroke="#942923" stroke-width=".5"><path d="M135.15 103.59c.406.61 1.219 1.22 2.234 2.44 1.016 1.016 2.032 2.236 3.25 3.252l3.453 3.456c1.016 1.016 1.625 1.423 1.828 1.626.406-6.098.61-10.977.61-14.636 2.03-.814 4.062-1.423 5.89-2.237.203 0 .203-.203.406-.203.406-.203.61 0 .61.203 0 .204 0 .407-.204.61-1.016.407-1.625 1.017-1.625 1.83 0 .813.406 2.643 1.422 5.489l2.437 7.115c.406 1.423 1.016 2.44 1.625 2.846.61.406 1.219.61 2.031.406.406-.203.61 0 .813.204 0 .203 0 .203-.204.406l-3.656 1.22c-1.218.406-2.64 1.016-4.671 1.83a.437.437 0 0 1-.406-.407c0-.203.203-.407.61-.61.405-.203.812-.407.812-.813.203-.203.203-.61.203-1.017 0-.406-.203-1.22-.407-2.032l-2.234-6.506c-1.218-3.252-1.828-5.082-2.03-5.692-.407 6.912-.407 11.181-.61 13.01v4.27c0 .406 0 .813-.203.813s-.407-.203-.813-.61c-1.218-1.22-5.077-5.285-11.983-12.197.812 2.44 1.828 5.489 3.25 9.554.812 2.033 1.218 3.456 1.624 3.863.407.406 1.22.61 2.235.406.406 0 .609 0 .609.204 0 .203 0 .406-.203.61h-.406c-1.016.203-1.828.61-2.235.61-1.218.406-2.234.812-2.843 1.219-.203 0-.203.203-.203.203-.406.204-.61 0-.61-.203v-.407s.204-.203.61-.406c.812-.407 1.218-1.017 1.422-1.626 0-.61 0-1.423-.407-2.44l-2.843-8.131c-.61-1.83-1.016-3.05-1.422-3.66a1.832 1.832 0 0 0-1.219-1.22c-.406-.202-1.015-.202-2.03-.202-.407 0-.61 0-.61-.407 0-.203 0-.407.406-.61h.203c.813.203 2.844-.406 5.484-1.423zm21.124-7.115c.406 0 1.015-.203 2.03-.407.813-.203 1.422-.406 1.829-.406l4.062-1.22c.406 0 .61 0 .61.203 0 .204 0 .407-.407.61-.61.204-1.219.61-1.219.813-.203.204-.203.814-.203 1.627 0 .813.61 2.44 1.219 5.285.812 3.05 1.625 5.489 2.234 7.115.61 1.627 1.016 2.643 1.422 2.846.406.407.812.407 1.625.204.406-.204.609 0 .812.203 0 .406 0 .61-.61.813-.202 0-.405 0-.609.203-1.828.407-2.843.61-3.452.813-1.422.407-2.438.814-3.047 1.017-.406.203-.61.203-.812.203-.407 0-.61 0-.61-.203s0-.407.406-.61c.813-.407 1.22-.61 1.422-1.22.203-.406 0-1.423-.203-2.642-.406-1.423-.812-3.456-1.625-6.302-.812-3.05-1.422-5.083-1.828-5.896-.406-1.016-.812-1.626-1.015-1.83-.203-.203-.813-.203-1.422 0-.406 0-.61 0-.61-.203-.406-.61-.203-.813 0-1.016zm25.591 14.433c-.406 0-2.03.407-4.874 1.017l-3.047.61-1.828.406c-.406 0-.61.204-.812 0-.203 0-.203-.203-.203-.406 0-.204 0-.407.406-.61.812-.203 1.218-.407 1.625-.813.203-.407.406-.813.406-1.627 0-.813-.406-2.236-.813-4.472a161.47 161.47 0 0 0-1.218-6.099c-.61-2.642-1.016-4.269-1.422-4.675-.406-.61-1.016-.813-2.031-.61-.406 0-.61 0-.61-.407 0-.203 0-.406.407-.406.203 0 .812-.203 1.828-.203 1.218-.204 1.828-.204 2.437-.407l5.078-1.22c1.828-.406 3.453-.406 5.28 0 1.829.407 3.25 1.22 4.672 2.643 1.422 1.423 2.234 3.05 2.64 5.082.407 1.423.407 3.05.204 4.473-.203 1.423-.813 2.642-1.625 3.862-.813 1.22-1.828 2.033-2.64 2.44-1.22.813-2.438 1.22-3.86 1.422zm-1.218-.813c1.828-.406 3.25-1.423 4.062-3.252.812-1.627.812-3.863.203-6.506-.61-2.642-1.828-4.878-3.453-6.301-1.625-1.423-3.453-2.033-5.687-1.423-.812.203-1.219.406-1.422.406-.203.203-.203.203-.203.407 0 .203.203 1.22.61 3.252l1.015 5.082c.203 1.22.61 2.847 1.016 4.676.406 1.423.609 2.236.812 2.846.203.407.61.813 1.016 1.017.609 0 1.218 0 2.03-.204z"/><path d="M201.973 107.046c-.406 0-2.031.203-5.078.61l-3.046.406-1.828.204h-.813c-.203 0-.203-.204-.203-.407 0-.203.203-.406.61-.61.812-.203 1.218-.406 1.624-.61.407-.406.407-.813.407-1.626s-.204-2.236-.407-4.472c-.203-2.236-.609-4.27-.812-6.099-.406-2.643-.812-4.269-1.219-4.879-.406-.61-1.015-.813-1.828-.61-.406 0-.609 0-.609-.406 0-.203 0-.407.406-.407.203 0 .813 0 1.828-.203 1.219 0 2.031-.203 2.437-.203l5.281-1.017c1.828-.203 3.453-.203 5.281.204 1.828.406 3.25 1.423 4.469 2.846a9.574 9.574 0 0 1 2.234 5.285c.203 1.626.203 3.05-.203 4.472-.407 1.423-1.016 2.643-1.828 3.66-1.016 1.016-1.828 1.83-2.844 2.236-1.219 1.016-2.437 1.423-3.859 1.626zm-1.015-.813c2.03-.407 3.452-1.22 4.265-2.846.812-1.627 1.218-3.863.61-6.505-.407-2.846-1.423-4.88-2.844-6.506-1.422-1.626-3.453-2.236-5.687-1.83-.813.204-1.22.204-1.422.407-.203.204-.203.204-.203.407 0 .203 0 1.22.406 3.456l.61 5.082c.202 1.22.405 2.846.609 4.676.203 1.423.406 2.236.609 2.846.203.406.406.813 1.015 1.016.407-.203 1.22-.203 2.032-.203z"/><path d="M227.768 103.793c-2.437.204-5.89.407-10.968 1.017a107.11 107.11 0 0 0-4.265.61h-.61c-.406 0-.609 0-.609-.407 0-.203 0-.203.203-.203 0 0 .406-.203.61-.203.609-.204 1.015-.407 1.218-.61l.61-1.22c0-.61 0-2.033-.204-4.27-.203-2.235-.406-4.878-.812-7.927-.203-1.22-.406-2.033-.61-2.643-.202-.61-.609-1.016-.812-1.22-.406-.203-.812-.406-1.422-.203-.406 0-.609-.203-.609-.407 0-.203.203-.406.61-.61l4.67-.406c.813 0 1.626-.203 3.048-.407.406 0 .812-.203 1.015-.203.406 0 .61 0 .61.407 0 .203 0 .203-.204.406-.203 0-.406.204-1.015.407-.61.203-1.016.406-1.219.61-.203.203-.406.813-.406 1.423 0 .61 0 2.033.406 4.269l1.016 9.148c.203 1.423.406 2.236.609 2.44.203.202.61.406 1.219.202 1.625-.203 2.64-.406 3.452-.813.813-.406 1.422-.813 2.032-1.626.609-.813 1.218-2.033 1.828-3.66.203-.406.203-.61.406-.61s.406.204.406.407c.203.407.203 2.643-.203 6.302zm16.045-21.141c.407 1.626.813 3.049 1.22 4.675a.437.437 0 0 1-.407.407c-.203 0-.406-.204-.61-.407-1.015-1.423-2.03-2.44-2.843-2.846-.812-.406-2.031-.61-3.453-.61-.812 0-1.625.204-2.437.407v5.895c0 .407 0 1.017.203 1.83h1.016c.609 0 1.218-.204 1.624-.407.407-.203.813-.61 1.22-1.22.202-.61.405-1.016.608-1.22 0-.406.204-.406.407-.406.203 0 .406 0 .406.407v.203c0 .61 0 2.44.203 5.692 0 .407 0 .813.203 1.22v.203a.437.437 0 0 1-.406.407c-.203 0-.406-.204-.61-.814-.203-1.016-.609-1.626-1.421-2.032-.61-.407-1.828-.61-3.25-.61 0 1.626 0 2.846.203 3.252.203 2.236.203 3.66.406 4.066 0 .407.407.813.813 1.016.406.204 1.218.407 2.03.204 3.657-.204 5.891-1.627 6.907-4.066.203-.407.406-.61.406-.61.203 0 .406 0 .406.407v.61l-.61 4.472-5.28.203c-1.422 0-2.844 0-4.062.204h-2.844c-.812 0-2.03.203-3.453.406h-.406c-.406 0-.61-.203-.61-.406 0-.204.204-.407.61-.407.813 0 1.422-.407 1.828-.813.203-.61.406-1.627.406-3.253l-.406-7.725c-.203-2.642-.203-4.269-.406-4.879 0-.61-.203-1.016-.61-1.22-.203-.203-.812-.406-1.421-.406a.437.437 0 0 1-.406-.406c0-.204.203-.407.406-.407h3.453l10.967-1.016zm14.624.406c.203-.203.203-.406.407-.61.203-.406.203-.406.406-.406s.406.203.406.61l.406 4.065v.407a.437.437 0 0 1-.406.406c-.203 0-.406 0-.406-.203 0 0-.203-.406-.406-1.016-.407-.813-1.016-1.627-2.032-2.44-1.015-.813-1.828-1.016-2.843-1.016-.813 0-1.625.203-2.234.813-.61.61-.813 1.22-.813 2.033 0 .61.203 1.22.813 1.83.609.61 1.625 1.016 3.25 1.626 2.437.813 4.265 1.626 5.077 2.846.813 1.22 1.422 2.44 1.422 3.862 0 1.423-.406 2.643-1.016 3.456-.609 1.016-1.421 1.626-2.234 2.236-.812.61-2.03.813-3.453.813-.812 0-1.625-.203-2.437-.406-.812-.204-1.828-.61-2.64-1.22-.203.203-.407.61-.407.813-.203.407-.406.61-.609.61-.203 0-.406-.203-.406-.813l-.406-5.489v-.406c0-.204.203-.407.406-.407s.406.203.61.813c.609 1.423 1.421 2.846 2.233 3.863 1.016 1.016 2.031 1.423 3.453 1.423 1.016 0 2.031-.407 2.64-1.017a3.368 3.368 0 0 0 1.016-2.44c0-.812-.406-1.626-1.015-2.235-.61-.61-1.828-1.22-3.453-1.83-1.625-.61-2.844-1.016-3.453-1.626-.812-.407-1.422-1.22-1.828-2.033-.406-.813-.61-1.83-.61-2.643 0-1.626.61-2.846 1.626-4.066 1.218-1.016 2.64-1.626 4.671-1.626l4.265 1.423zm15.03 8.945c1.828.61 3.453 1.22 4.266 2.236 1.015 1.016 1.421 2.033 1.421 3.456 0 1.22-.406 2.236-1.218 3.05-.813.812-1.625 1.422-2.64 1.829-1.016.203-2.438.406-4.47.406-.405 0-1.218 0-2.233-.203-.813 0-1.422-.203-2.031-.203h-3.656c-.407 0-.61-.204-.61-.407 0-.203.203-.407.407-.407.609 0 1.015-.203 1.218-.203l.61-.61c.203-.406.203-.813.406-1.626l.406-7.115c0-2.236.203-3.862.203-5.285s0-2.237-.203-2.643c0-.407-.203-.61-.406-.813-.203-.204-.61-.204-1.016-.407-.406 0-.61 0-.812-.203 0 0-.203-.203-.203-.407 0-.203.203-.406.406-.406h9.343c1.625 0 3.047.61 4.062 1.423 1.016.813 1.422 2.033 1.422 3.252.406 2.643-1.422 4.27-4.672 5.286zm-3.859-.407c3.25.203 4.875-1.423 5.078-4.269 0-1.22-.203-2.236-.812-3.05-.61-.609-1.22-1.016-2.032-1.016-.609 0-1.218 0-2.03.407-.204 1.016-.204 2.033-.204 3.253v4.675zm0 1.017c-.203 2.032-.203 3.862-.203 5.285v3.253c.203.203.61.406 1.422.406 1.422 0 2.437-.406 3.047-1.016.609-.813 1.015-1.83 1.218-3.253 0-1.423-.203-2.44-1.015-3.456-.61-.813-1.625-1.423-3.047-1.423-.61.204-1.015.204-1.422.204zm22.14 1.423c1.218.406 2.233.813 3.046 1.626.812.61 1.218 2.033 1.422 3.862.203 1.83.406 3.05.812 3.66.406.61 1.016 1.016 1.828 1.016.406 0 .61.203.61.61 0 .203-.407.406-1.016.406l-5.281-.61c-.406-.61-.813-1.83-.813-3.252 0-2.033-.203-3.456-.406-4.27a3.932 3.932 0 0 0-1.015-1.829c-.61-.406-1.219-.61-1.828-.813h-.813c-.406 3.456-.609 5.692-.609 6.505 0 .813 0 1.423.203 1.83.203.407.813.61 1.625.813.406 0 .61.203.61.61 0 .203-.204.407-.61.407l-4.265-.61c-.61 0-1.422-.204-2.235-.204h-1.624c-.407 0-.61-.203-.61-.406s.203-.407.61-.407c.609 0 1.015 0 1.421-.203.407-.203.813-1.423 1.016-3.456l.203-2.846.61-5.489c.202-2.846.406-4.472.202-5.082-.203-.61-.812-1.016-1.828-1.22-.406 0-.609-.203-.609-.406s.406-.407.813-.407c2.64.204 4.874.407 6.702.61.813 0 1.625 0 2.234.203 2.031.204 3.656.814 4.875 1.83 1.016 1.016 1.625 2.236 1.422 3.66-.203 1.016-.406 1.829-1.219 2.642-.61.813-1.422 1.22-2.234 1.423-1.219-.203-2.234-.203-3.25-.203zm-3.86-1.017h.61c.812 0 1.624 0 2.437-.203.812-.203 1.421-.61 1.828-1.423.406-.61.609-1.423.812-2.236.203-1.22-.203-2.236-.812-3.05-.61-.813-1.422-1.22-2.64-1.423-.407 0-1.016 0-1.626.204l-.609 8.131zm23.764-6.505c1.828.203 3.453 1.016 4.671 2.033 1.219 1.016 2.235 2.44 2.844 4.066.61 1.626.812 3.455.406 5.285-.406 2.846-1.828 5.082-4.062 6.912s-4.875 2.643-7.718 2.033c-2.64-.407-4.672-1.627-6.297-3.66-1.624-2.032-2.03-4.675-1.624-7.724.406-2.846 1.827-5.083 4.062-6.912 2.437-1.83 4.874-2.643 7.718-2.033zm3.25 10.774c.406-3.05.406-5.285-.407-7.115-.812-1.626-1.828-2.643-3.25-2.846-1.421-.203-2.843.407-4.062 1.83-1.218 1.423-2.03 3.659-2.437 6.505-.406 2.846-.406 5.285.203 6.912.61 1.83 1.828 2.642 3.25 3.049 1.422.203 2.64-.407 3.859-1.626 1.422-1.22 2.437-3.456 2.844-6.709zm7.515-8.944l4.468 1.016c.406 0 .812.203 1.422.203.812.204 1.625.204 2.03.407.407 0 .61.203.61.61 0 .203-.203.406-.61.406-.608 0-1.218 0-1.624.407-.406.406-.812 1.22-1.219 2.846-.406 1.423-.812 3.05-1.218 4.675-.61 2.846-.813 4.676-.813 5.693 0 1.016.406 1.83 1.016 2.642.61.813 1.625 1.22 3.046 1.627 1.422.203 2.438.203 3.25-.204.813-.406 1.422-1.423 2.031-2.642.61-1.22 1.219-3.66 2.031-7.319.407-2.236.61-3.659.407-4.472-.204-.813-.61-1.423-1.22-1.626-.608-.204-.812-.407-.608-.61 0-.204.406-.407.812-.204.203 0 .61.204 1.016.407.406.203 1.015.203 1.624.407.61.203 1.016.203 1.828.203.407 0 .813.203 1.016.203.406 0 .61.203.61.61 0 .203-.204.407-.61.203-.406 0-1.016 0-1.422.407-.406.406-.812 1.016-1.218 1.83-.204 1.016-.813 3.252-1.625 7.318-.61 2.643-1.219 4.472-1.828 5.489-.813 1.016-1.828 1.83-3.047 2.236-1.219.406-2.843.406-4.671 0-1.422-.204-2.438-.61-3.453-1.22-1.016-.407-1.625-1.016-2.235-1.626-.406-.61-.812-1.423-.812-2.236-.203-.814 0-1.83.203-3.253l1.828-7.928c.203-1.017.406-2.033.406-2.846 0-.813 0-1.22-.203-1.423-.203-.204-.61-.61-1.015-.61-.407-.203-.407-.203-.61-.203v-.407c-.203-1.016 0-1.22.407-1.016zm38.184 11.18l-.812 4.27c0 .203 0 .406-.204.406a.437.437 0 0 1-.406.407c-.203 0-.406-.204-.406-.61-.203-1.83-.812-3.253-1.625-4.676-.812-1.22-2.03-2.236-3.453-2.643-1.828-.61-3.656-.203-5.28 1.22-1.625 1.423-2.64 3.253-3.453 5.692-.813 2.643-.813 4.879 0 6.912.812 2.033 1.828 3.252 3.453 3.659.609.203 1.421.203 2.234 0 .812-.203 1.421-.407 1.625-.61.406-.406.609-.813.812-1.626.406-1.626.61-2.643.61-3.05 0-.406-.204-.813-.407-1.016-.203-.203-.812-.61-1.625-.813-.406-.203-.406-.407-.406-.61s.203-.406.61-.203l2.03.61 6.297 1.626c.203 0 .406.203.406.407 0 .203-.203.203-.203.203h-1.219c-.609 0-.812 0-1.015.203-.203.203-.813 1.626-1.625 4.27-.203.609-.406 1.016-.406 1.016l-1.828.61c-1.219.203-2.438.406-3.656.406-1.219 0-2.234-.203-3.453-.61-1.828-.61-3.453-1.423-4.672-2.643-1.218-1.22-2.03-2.642-2.64-4.269-.406-1.626-.406-3.455.203-5.488.812-2.846 2.437-4.88 4.672-6.506 2.437-1.423 5.077-1.83 8.327-1.016 1.016.407 2.031.813 2.844 1.22.812.61 1.624 1.22 2.64 2.033.203.203.406.203.61.406.202 0 .405 0 .609-.203.203-.407.406-.407.609-.407.203.407.203.813.203 1.423zm14.218 13.01l1.625-4.268c.406-1.22.609-2.033.609-2.643 0-.61-.406-1.016-1.219-1.423-.61-.203-.812-.407-.812-.813.203-.203.406-.407.61-.203.405.203 1.015.406 1.827.813 1.016.406 1.625.61 1.828.813 1.422.61 2.844 1.016 4.062 1.22.203 0 .406.203.406.203.407.203.407.406.407.61-.203.203-.407.406-.813.203-.61-.203-1.015-.203-1.422-.203-.406 0-.609.203-.812.61-.203.406-.812 1.626-1.625 3.659-.812 2.033-1.422 3.659-1.625 4.472-1.218 3.253-2.03 5.489-2.234 6.099-.203.813-.203 1.423 0 1.83.203.406.61.812 1.219 1.016.406.203.61.406.406.61 0 .203-.203.406-.61.203-.202 0-.406-.204-.609-.204l-3.656-1.423c-.203 0-.609-.203-1.218-.406-1.219-.407-2.031-.61-2.438-.813-.406-.204-.406-.407-.406-.61s.203-.407.61-.203c.609.203 1.218.203 1.421.203.406-.203.813-.61 1.219-1.423.406-.813 1.219-2.44 2.031-5.082 0-.204.203-.61.406-1.22-1.625-.61-2.843-1.22-4.062-1.626-1.422-.407-2.437-.813-3.25-1.017-.812 1.83-1.421 3.66-2.03 5.082-.407 1.017-.61 1.83-.407 2.44 0 .61.406.813 1.219 1.22.406.203.406.406.406.61 0 .203-.406.406-.61.203-.203 0-.406-.204-.609-.204-1.015-.406-2.03-1.016-3.25-1.423-.609-.203-1.218-.406-2.234-.61-.609-.203-1.015-.406-1.218-.406-.407-.203-.61-.407-.61-.61s.407-.203.61-.203c.609.203 1.218.203 1.624 0 .407-.203.61-.61 1.016-1.22s1.219-2.44 2.234-5.489c1.219-3.049 1.828-4.878 1.828-5.082.61-1.423.813-2.44 1.016-3.05.203-.609.203-1.219 0-1.422-.203-.203-.406-.61-.813-.813-.406-.204-.609-.407-.609-.407v-.406c.203-.204.406-.407.61-.204.406.204 1.015.407 1.827.813.407.204 1.016.407 1.625.61l3.86 1.22c.405.203.609.407.405.61-.203.203-.406.407-.609.203-.61-.203-1.015-.203-1.219-.203-.203 0-.609.407-.812.813-.203.407-.61 1.22-1.015 2.44l-1.422 4.065c1.015.61 2.234 1.017 3.453 1.423 1.421.407 2.64.813 3.859 1.017z"/></g><path d="M231.017 436.573v12.604c0 1.83.203 2.846.407 3.456.203.61.812.813 1.624 1.016.61.203 1.016.203 1.016.407.203 0 .203.203.203.406s-.203.407-.61.407h-.406c-1.827-.407-3.25-.813-4.062-1.017-1.015-.203-2.234-.406-4.062-.61-.61 0-1.015-.203-1.219-.203-.406 0-.609-.203-.609-.61 0-.203 0-.203.203-.406h1.016c.812 0 1.218 0 1.625-.204.406-.203.609-.406.609-.813 0-.203.203-1.016.203-2.033v-7.521c0-1.22 0-2.236-.203-2.643-.203-.61-.406-1.016-.812-1.22-.407-.203-.813-.61-1.625-.813-.61-.203-1.016-.406-1.016-.406-.203 0-.203-.204-.203-.407 0-.203 0-.406.203-.406h1.016c2.234.203 4.062.203 5.89-.204h.406c.203.204.406.407.406 1.22zm19.702 10.164c1.219.61 2.234 1.423 3.046 2.236.61.814 1.016 1.83 1.016 2.846 0 1.627-.812 2.846-2.234 3.66-1.422 1.016-3.25 1.423-5.484 1.22-2.031-.204-3.656-.814-4.875-1.627-1.218-1.016-2.03-2.033-2.03-3.05 0-.812.405-1.422 1.015-2.235.61-.814 1.625-1.423 3.046-1.83-1.218-.61-2.03-1.22-2.64-2.033a3.909 3.909 0 0 1-.812-2.44c0-1.626.609-2.845 2.03-3.658 1.422-.814 3.047-1.22 5.078-1.017 1.828.203 3.453.61 4.469 1.423 1.218.813 1.625 1.83 1.625 2.846 0 .61-.204 1.423-.813 1.83-.406.406-1.218 1.016-2.437 1.83zm-1.422-.813c.61-.406 1.016-.813 1.422-1.22.406-.61.61-1.22.61-1.83 0-.609-.407-1.422-1.016-2.032-.61-.813-1.625-1.22-2.844-1.22-1.219 0-2.031.204-2.64.61-.61.61-1.016 1.22-1.016 1.83 0 .406.203 1.016.61 1.423.406.61 1.624 1.22 3.25 1.83 1.015.406 1.421.61 1.624.61zm-3.859 2.44a4.797 4.797 0 0 0-1.828 1.626c-.406.61-.61 1.22-.61 2.033 0 1.016.407 1.83 1.22 2.44.812.609 1.827 1.016 2.843 1.219 1.422.203 2.234-.203 3.047-.813.609-.61 1.015-1.22 1.015-2.236 0-.61-.203-1.22-.812-1.83-.407-.407-2.031-1.22-4.875-2.44zm26.404-7.522l-6.296.813c-1.625.203-2.64.407-3.25.61-.406.203-1.015.813-1.625 1.423-.406.61-.812 1.016-1.015 1.016-.407 0-.407 0-.407-.406 0-.407.204-1.423.61-3.05.406-1.626.812-2.845 1.015-3.049.203-.406.407-.61.61-.61s.406 0 .609.407c.203.203.406.407.61.407.202 0 1.218 0 2.64-.204 1.421-.203 2.234-.203 2.437-.406l7.109-1.017c-.203.407-.406 1.017-.813 1.83-1.625 2.846-2.64 5.082-3.046 6.912-.61 1.83-.813 3.862-1.016 6.098 0 1.423-.203 2.643-.61 3.253-.405.61-1.015 1.016-2.03 1.22-.61 0-1.219 0-1.625-.407-.406-.407-.61-.813-.61-1.423 0-.61.204-1.423.61-2.44.406-1.016 1.219-2.642 2.437-4.675l3.656-6.302zm11.374 2.033c.61-.61 1.422-1.017 2.031-1.22.813-.406 1.422-.61 2.235-.813 1.828-.407 3.452-.203 4.874.61 1.422.813 2.031 2.033 2.031 3.659 0 1.83-.812 3.456-2.234 4.879-1.422 1.423-3.453 2.44-5.687 2.846-2.64.61-4.672.203-6.093-1.017-1.422-1.22-2.234-3.049-2.234-5.285 0-2.846 1.015-5.692 3.046-8.131 2.031-2.44 4.672-4.066 7.921-4.676 1.828-.407 3.25-.407 4.063 0 1.015.407 1.421 1.016 1.421 2.033 0 .61-.203 1.22-.812 1.626-.406.61-1.016.813-1.625 1.017-.61.203-1.219 0-1.625-.204-.406-.406-.61-.813-.61-1.423v-1.016c0-.61-.405-1.017-1.42-.813-1.22.203-2.438 1.016-3.454 2.44-.812 1.219-1.422 3.048-1.828 5.488zm6.5 3.456c0-1.627-.203-2.643-.813-3.456-.609-.61-1.421-.813-2.437-.61-1.219.203-2.031.813-2.64 1.83-.61 1.016-1.016 2.032-1.016 3.455 0 1.627.406 2.643 1.016 3.456.609.813 1.421 1.017 2.437.813 1.015-.203 1.828-.813 2.437-1.83a7.025 7.025 0 0 0 1.016-3.658zm-187.267-35.372l1.828 3.05v.609s-.203 0-.406-.203c-.812-.61-1.828-1.017-2.64-1.22-.813-.203-2.031 0-3.656.61-1.016.406-1.625.813-1.625 1.016 0 .204.61 2.033 2.031 5.286.812-.407 1.422-.61 1.828-.813.406-.204.61-.61.812-1.017.204-.406.204-1.016 0-1.83 0-.203 0-.406.204-.406.203 0 .406 0 .406.203l1.218 3.456c.407 1.22.61 1.83.61 2.033 0 .203 0 .203-.203.203s-.407 0-.407-.203c-.406-.61-.812-1.016-1.218-1.22-.61-.203-1.422 0-2.844.407l1.625 4.066.813 1.626c.203.203.406.407.812.407.203 0 .61 0 1.219-.204.406-.203.609-.203.609-.203.203 0 .203 0 .203.203 0 .204 0 .407-.406.61-.203.203-.813.407-1.625.61a6.872 6.872 0 0 0-1.625.61l-3.25 1.423c-.406.203-.609.203-.609-.203 0-.204 0-.407.406-.61.813-.407 1.016-.813 1.016-1.423-.203-.61-1.016-3.05-2.437-6.912-1.016-2.44-1.625-4.066-2.032-4.472-.406-.407-1.015-.407-1.624-.204l-.204.204c-.203.203-.406 0-.609-.204 0-.203 0-.406.406-.61l11.374-4.675zm7.312-4.472c1.422-.814 2.64-1.22 4.063-1.22 1.421 0 2.64.406 3.859 1.016 1.218.61 2.03 1.627 2.843 2.846 1.016 1.83 1.219 3.863.61 6.302-.61 2.236-2.032 3.863-4.063 5.082-1.828 1.017-3.859 1.423-5.89.813-2.031-.406-3.656-1.626-4.671-3.862-1.016-2.033-1.22-4.066-.61-6.099.406-2.032 1.625-3.659 3.86-4.878zm7.312 5.082c-1.218-2.033-2.234-3.456-3.656-4.066-1.218-.61-2.437-.61-3.453 0-1.015.61-1.624 1.626-1.828 3.05-.203 1.422.407 3.049 1.422 5.081 1.016 2.033 2.234 3.253 3.453 4.066 1.219.61 2.437.813 3.656.203 1.016-.61 1.625-1.423 1.828-2.846.203-1.626-.203-3.455-1.422-5.488zm7.312-13.62c1.422-.814 2.64-1.22 3.86-1.423 1.421 0 2.64.203 3.858.813 1.219.61 2.235 1.626 3.047 2.642 1.219 1.83 1.422 3.863 1.015 6.099-.406 2.236-1.827 4.066-3.655 5.285-1.828 1.22-3.86 1.627-5.89 1.22-2.032-.406-3.657-1.626-4.875-3.456-1.219-1.83-1.422-3.862-1.016-6.098.406-2.033 1.625-3.863 3.656-5.082zm7.515 4.472c-1.218-2.033-2.437-3.253-3.859-3.863-1.219-.61-2.437-.61-3.453 0-1.015.61-1.625 1.627-1.625 3.05 0 1.423.61 3.049 1.828 5.082 1.219 1.83 2.438 3.252 3.656 3.862 1.219.61 2.438.61 3.656 0 1.016-.61 1.422-1.626 1.625-3.049 0-1.22-.61-2.846-1.828-5.082zm0-9.351c3.453-2.033 5.89-3.66 7.515-4.676 1.219-.813 2.64-1.626 4.062-2.643.61-.406 1.016-.61 1.22-.813.202 0 .405-.203.608-.406.203.203.61.813 1.219 1.626l1.219 1.423c.203.203.203.407 0 .61s-.407 0-.813-.203c-.61-.407-1.218-.61-1.828-.814-.61-.203-1.218 0-1.828.204-.609.203-1.421.61-2.64 1.423.61 1.016 1.219 2.44 2.234 3.862 1.016 1.626 2.031 3.05 2.844 4.472 1.015 1.423 1.624 2.237 1.828 2.44.203.203.609.406.812.406.203 0 .812-.203 1.625-.61.203-.203.406-.203.61 0 .202.204 0 .407-.204.407l-.203.203-2.031 1.22c-1.625 1.017-2.437 1.626-2.844 1.83l-1.218.813s-.203.203-.61.406h-.406c-.203-.203 0-.406.203-.61.61-.406 1.016-.813 1.016-1.22.203-.406 0-1.016-.203-1.422-.203-.61-1.016-1.83-2.031-3.456-1.828-2.846-3.25-4.879-4.469-6.505-1.015.61-1.828 1.22-2.234 1.626a4.427 4.427 0 0 0-1.015 1.626c-.204.61-.204 1.423-.204 2.237 0 .406 0 .61-.203.61-.203.203-.406.203-.609 0 0 0-.203-.61-.61-1.424-.202-1.423-.609-2.032-.812-2.642zm26.201-7.725c1.625-.407 2.844-.61 3.86-.407 1.015.204 1.827.813 2.233 1.83.407.813.61 1.626.407 2.44-.203.812-.61 1.626-1.219 2.235-.61.61-1.625 1.22-3.047 2.033l-1.624.813c-.61.204-1.016.61-1.422.814-.406.203-1.016.61-1.828 1.22-.203.203-.61.406-.61.406-.203.203-.406.203-.609 0 0-.203 0-.203.203-.407.406-.203.61-.61.813-.813.203-.203.203-.406.203-.813 0-.203-.203-.61-.406-1.22l-2.438-4.675c-.812-1.423-1.421-2.643-2.03-3.456-.61-.813-.813-1.423-1.22-1.626-.203-.204-.406-.407-.609-.407-.203 0-.406 0-.812.203-.203.204-.406.204-.61.204 0 0-.203 0-.203-.204v-.406c.203-.204.61-.407 1.219-.814 1.422-.813 2.64-1.423 3.656-2.236.61-.406 1.219-.813 1.625-1.016 1.218-.61 2.437-1.017 3.453-.813 1.015.203 1.828.61 2.234 1.626 1.422 1.83.812 3.456-1.219 5.489zm-2.843 1.423c2.234-1.22 2.843-2.846 1.828-4.88-.407-.812-1.016-1.422-1.625-1.625-.61-.204-1.219-.204-1.828.203-.406.203-.813.61-1.219 1.016.406.61.61 1.423 1.016 2.237.406.61 1.015 1.626 1.828 3.049zm.406.813c.812 1.423 1.422 2.643 1.828 3.66.61 1.219 1.219 2.032 1.422 2.032.203.203.609 0 1.015-.203 1.016-.61 1.625-1.22 1.828-2.033.203-.813 0-1.626-.406-2.643-.406-.813-1.219-1.423-2.031-1.83-.813-.406-1.828-.203-2.844.407 0 .203-.406.407-.812.61zm10.765-14.84l.812-.407c1.828 1.627 4.672 4.066 8.328 7.522 1.624 1.626 2.843 2.643 3.25 2.846a2.545 2.545 0 0 0 1.827.203c.203 0 .407 0 .407.204 0 .203 0 .406-.204.61-.203 0-.609.203-1.218.406-.813.203-1.422.61-1.828.813-.406.204-1.016.61-1.828 1.017-.61.406-1.016.61-1.016.61-.406.203-.61.203-.61 0 0-.204 0-.204.204-.407.812-.407 1.016-1.016.812-1.626-.203-.204-.406-.813-1.015-1.423-.61-.61-1.219-1.22-1.828-1.627-.406.204-.812.407-1.016.407-1.421.61-2.437 1.22-3.25 1.626.204 2.033.407 3.253.61 3.66.203.406.406.61.812.61h1.22c.202 0 .405 0 .608.203 0 .203 0 .406-.203.406s-.406.203-.812.407a9.897 9.897 0 0 0-1.422.61c-.61.203-1.015.61-1.625.813-.203 0-.203.203-.203.203-.203.203-.406 0-.61-.203 0-.204 0-.204.204-.407l.812-.813c.203-.203.203-.813.203-1.423 0-.61 0-1.626-.203-2.846-.609-3.05-1.015-7.115-1.218-11.994zm1.015 4.066l.406 5.488 3.656-1.83a22.649 22.649 0 0 0-2.03-1.829c-.813-.813-1.626-1.423-2.032-1.83zm27.014 2.033c-1.828.406-4.672 1.423-8.53 2.642-1.423.407-2.438.813-3.25 1.22-.204 0-.407.203-.407.203-.203 0-.406 0-.61-.203v-.203l.407-.407c.406-.203.813-.406 1.016-.813.203-.203.203-.61.203-1.016 0-.407-.203-1.423-.813-3.05-.609-1.626-1.218-3.659-1.828-5.895-.203-.813-.609-1.626-.812-1.83-.203-.406-.61-.61-.813-.61-.203-.203-.609-.203-1.218 0-.406 0-.61 0-.61-.203s0-.406.407-.406l3.656-1.017c.609-.203 1.421-.406 2.437-.813.406-.203.61-.203.812-.203.407 0 .407 0 .61.203v.203s-.407.204-.61.407c-.406.203-.812.407-1.015.813-.203.203-.203.61 0 1.017 0 .406.406 1.423.812 3.049l2.234 6.708c.407 1.017.61 1.627.813 1.83.203.203.61.203 1.015 0 1.22-.407 2.032-.813 2.64-1.22.61-.406 1.016-.813 1.423-1.626.406-.61.609-1.626.812-3.05 0-.203.203-.406.203-.406.203 0 .406 0 .406.203 0 0 .203 1.627.61 4.473zm14.217-2.846c-1.828.203-4.874.813-8.936 1.626-1.422.203-2.438.61-3.453.813-.203 0-.407 0-.407.203-.203 0-.406 0-.406-.203v-.203s.203-.204.61-.204c.406-.203.812-.406 1.015-.61.203-.203.406-.61.406-1.016s-.203-1.423-.406-3.252c-.406-1.627-.61-3.66-1.219-6.099-.203-1.016-.406-1.626-.609-2.033-.203-.406-.406-.61-.812-.813-.203-.203-.61-.203-1.219-.203-.406 0-.61 0-.61-.204 0-.203.204-.406.407-.406l3.859-.61c.61-.203 1.422-.203 2.437-.61.407 0 .61-.203.813-.203.406 0 .406 0 .61.203 0 .203 0 .203-.204.203l-.812.407c-.407.203-.813.407-1.016.61-.203.203-.203.61-.203 1.016 0 .407.203 1.627.61 3.253l1.421 6.912c.203 1.016.406 1.626.61 1.83.202.202.609.202 1.015 0 1.218-.204 2.234-.61 2.64-.814a4.748 4.748 0 0 0 1.422-1.423c.406-.61.812-1.626 1.219-2.846 0-.203.203-.407.406-.407s.406 0 .406.204c.406.406.406 2.033.406 4.879zm144.004 2.236c.204-.204.407-.204.813-.407.406-.203.61-.203.61-.203.202 0 .202.203.202.203s0 .407-.203.61l-1.422 3.253-.203.406c-.203.203-.406.407-.609.203-.203 0-.203-.203-.203-.61 0-.813 0-2.032-.406-3.252-.203-1.22-1.016-2.236-2.031-2.643-.813-.406-1.625-.406-2.438-.203-.812.203-1.625.61-2.234 1.423-.812.61-1.422 1.626-2.031 2.846-1.016 2.033-1.219 3.863-1.016 5.489.407 1.626 1.016 2.643 2.438 3.456 1.422.61 3.046.406 5.078-.61.203-.203.406-.203.609-.203.203.203.203.203.203.406-.203.407-1.219 1.017-2.64 1.423-1.625.407-3.25.203-4.875-.406-2.234-1.017-3.656-2.643-4.265-4.473-.61-2.033-.407-3.862.609-5.895 1.016-2.033 2.437-3.253 4.468-4.066 2.031-.813 3.86-.813 5.89.203 1.422.407 2.64 1.423 3.656 3.05zm7.515 20.735a338.445 338.445 0 0 0-7.718-4.676c-1.218-.61-2.234-1.22-3.046-1.626-.203 0-.406-.203-.406-.203-.204-.203-.407-.407-.204-.61l.204-.203s.203 0 .609.203c.406.203.812.203 1.218.203.407 0 .61-.203 1.016-.61.406-.406.812-1.22 1.828-2.642.812-1.423 1.828-3.253 3.047-5.286.406-.813.812-1.423.812-1.83v-1.016c-.203-.203-.406-.61-.812-.813-.203-.203-.407-.407-.203-.61.203-.203.406-.203.609 0l3.25 2.033c.609.203 1.218.61 2.234 1.22.406.203.61.203.61.406.202.204.405.407.202.61 0 .204-.203.204-.203.204-.203 0-.406 0-.812-.204-.407-.203-.813-.203-1.219-.203-.203 0-.61.203-.812.61-.204.406-.813 1.22-1.625 2.643l-3.453 6.098c-.61 1.017-.813 1.626-.813 1.83 0 .203.407.61.813.813a13.953 13.953 0 0 0 2.64 1.22c.61.203 1.422.203 2.031 0 .813-.204 1.625-.61 2.844-1.423.203-.204.406-.204.61-.204.202.204.202.204.202.407-.609.203-1.625 1.423-3.453 3.659zm8.531-12.604l3.047 2.033c.203.203.609.407 1.015.61.61.407 1.219.61 1.422.813.406.203.406.407.406.61-.203.203-.203.203-.61 0-.405-.203-1.015-.407-1.42-.203-.407.203-1.016.61-1.626 1.626-.61 1.016-1.421 2.033-2.03 3.05-1.22 1.829-1.829 3.252-2.032 3.862-.203.813-.203 1.423.203 2.236.406.813 1.016 1.423 2.031 2.033 1.016.61 1.828.813 2.64.813.813-.203 1.422-.61 2.235-1.423.812-.813 1.828-2.44 3.453-4.676.812-1.423 1.422-2.44 1.422-3.252.203-.61 0-1.22-.61-1.627-.406-.203-.406-.61-.406-.61.203-.203.406-.203.61 0 .202 0 .406.204.812.61.406.204.812.61 1.015.814l1.219.61c.406.203.61.406.812.406.407.203.407.407.407.61s-.204.203-.61 0a1.294 1.294 0 0 0-1.218 0 4.689 4.689 0 0 0-1.422 1.016c-.406.61-1.422 2.236-3.047 4.676-1.015 1.626-2.03 2.846-2.843 3.456-.813.61-1.828.813-2.844.61a9.581 9.581 0 0 1-3.453-1.423c-1.015-.61-1.828-1.22-2.437-1.83-.61-.61-1.016-1.22-1.219-1.83-.203-.61-.203-1.22-.203-1.83.203-.609.406-1.422 1.016-2.235l3.25-5.286c.406-.813.812-1.423 1.015-1.83.203-.61.203-.812.203-1.22 0-.202-.203-.609-.61-.812-.202-.203-.405-.203-.405-.407v-.203c.406 0 .609 0 .812.203zm19.092 20.532c1.219 1.22 1.828 2.236 2.234 3.253.407 1.016.204 2.033-.406 2.846-.406.813-1.218 1.22-2.03 1.626-.813.203-1.626.407-2.641 0-.813-.203-2.031-.813-3.25-1.626-.406-.204-.812-.61-1.625-1.017-.61-.406-1.015-.61-1.422-.813-.406-.203-1.015-.61-1.828-1.016-.406-.204-.609-.204-.609-.407-.203-.203-.406-.406-.203-.61 0-.203.203-.203.406 0 .406.204.813.407 1.016.407.203 0 .406 0 .812-.203.203-.204.61-.407.813-.814l2.843-4.472c.813-1.423 1.625-2.643 2.031-3.456.406-.813.813-1.423.813-1.83v-.812c0-.204-.203-.407-.61-.61l-.406-.407v-.203c0-.203.203-.203.406-.203s.61.406 1.422.813c1.219.813 2.64 1.626 3.656 2.236.61.406 1.219.61 1.625 1.016 1.219.813 2.031 1.627 2.437 2.643.406 1.016.203 1.83-.203 2.846-.61 1.22-2.437 1.626-5.28.813zm-2.437-1.83c2.234 1.424 4.062 1.22 5.28-.813.61-.813.813-1.626.61-2.236-.203-.61-.406-1.22-1.015-1.423-.407-.203-.813-.406-1.625-.61-.406.61-1.016 1.22-1.422 2.033-.406.407-1.016 1.627-1.828 3.05zm-.61.814c-1.015 1.423-1.624 2.44-2.234 3.456-.812 1.22-1.218 2.032-1.218 2.236 0 .203.203.61.812.813 1.016.61 1.828.813 2.64.61.813-.204 1.422-.813 2.032-1.627.61-.813.812-1.83.61-2.642-.204-.813-.61-1.627-1.626-2.236-.203-.204-.61-.407-1.015-.61z" fill="#E11B22" stroke="#942923" stroke-width=".5"/><g transform="translate(424.565 378.62)"><mask id="n" fill="#fff"><use xlink:href="#l"/></mask><use stroke="#000" xlink:href="#l"/><path fill="url(#m)" fill-rule="nonzero" mask="url(#n)" d="M17.077 39.047l-28.232-16.262L3.468-3.033 31.904 13.23z"/></g><g transform="translate(285.45 382.685)"><mask id="q" fill="#fff"><use xlink:href="#o"/></mask><use stroke="#000" xlink:href="#o"/><path fill="url(#p)" fill-rule="nonzero" mask="url(#q)" d="M14.827 43.316L-.406 1.236l32.091-11.79 15.233 42.283z"/></g></g></svg>