<svg width="512" height="512" viewBox="0 0 512 512" xmlns="http://www.w3.org/2000/svg"><title>buffalo-bills</title><g fill="none" fill-rule="evenodd"><path d="M457.367 158.674c-5.987-11.012-28.27-15.035-44.22-13.884-10.334-14.29-23.923-27-41.545-34.766-.397.994-1.018 2.54-1.343 3.732-5.09-1.496-16.676-4.325-26.237-4.454l-.063 3.302c-10.335 1.334-24.885 3.21-29.75 4.2.727 2.475.945 3.634 1.552 5.237-35.193 9.695-67.287 28.268-96.13 53.17 1.258.385 2.13.942 2.575.992-31.443 11.866-54.443 30.293-74.482 49.065-23.692 3.667-66.218 9.185-66.218 9.185l-31.237 61.88 82.615-17.427c-6.89 19.522-25.734 36.95-43.084 48.69-2.298 11.99-8.55 23.345-19.524 30.616 5.132 5.747-1.183 13.004-2.08 19.124 7.02 9.062 21.347 26.422 21.347 26.422l8.804-36.74 17.724-18.062c-1.13 3.04-.713 6.487-.367 7.816-1.586 3.287-5.995 7.335-6.33 13.03 6.71 8.714 19.596 24.52 19.596 24.52s9.31-24.757 13.522-37.382l71.567-66.12c5.415-.793 18.64-.63 28.212-.363l4.08-3.955 20.158-1.53c1.662 2.71 2.605 4.42 3.703 6.51-3.65 2.095-6.814 3.736-10.3 5.462l-9.1 32.51s17.442-9.41 26.415-14.113c3.254.512 10.832.308 14.753-.54-1.92 9.19-5.255 28.262-5.255 28.262s15.496-8.316 22.765-12.148c19.824.086 39.76-7.86 45.207-10.61 15.2-6.05 10.717-43.742 10.717-43.742 3.06-.39 6.87-1.304 9.808-.397 8.597 2.197 2.952 34.56 2.952 34.56l19.897-18.965 2.15 2.79s12-14.95 17.35-22.87c14.634.137 18.064-9.132 19.884-15.42 7.327-25.228 15.83-23.47 19.023-37.25 1.93-5.598 8.703-47.045.89-60.336zM60.453 288.422l24.215-48.845 327.234-47.87c-10.147 5.295-11.037 16.774-6.188 22.837-86.062 18.822-345.26 73.878-345.26 73.878zm79.613 63.923c-4.59 10.46-12.412 32.394-12.412 32.394s-9.023-10.452-12.72-15.554c-.068-3.84 4.082-7.78 6.122-11.614-.38-1.144-.507-2.68-.25-3.698 7.27-5.36 11.865-13.014 13.392-21.435 24.744-38.863 71.394-40.71 71.394-40.71l-65.526 60.615zm211.476-36.406c-20.102 9.977-43.806 10.125-43.806 10.125l-14.075 7.453s2.743-13.098 3.894-19.22c15.53-2.6 37.343-6.697 45.572-19.05 2.688-4.035 4.512-10.82 6.314-16.023 3.572-.51 6.636-1.04 10.338-1.55 0-.002 4.132 32.08-8.236 38.264zm103.666-124.625c-.89 12.792-2.672 28.53-9.344 36.137-6.47 7.383-11.41 18.14-15.112 29.33-1.95 6.626-4.51 9.664-16.478 10.2-4.465 6.51-8.788 13.412-14.162 19.268l-1.53-2.174c-5.235 4.962-7.936 7.842-13.547 12.914.6-6.515.91-15.412-1.232-20.083-3.193-5.233-8.57-6.484-13.93-5.71l-25.003 3.82c-1.583 5.23-3.208 12.62-7.044 17.976-5.723 13.406-52.475 18.122-60.838 16.86-5.87 2.933-11.61 6.64-17.736 9.445 1.683-6.27 5.54-19.497 5.54-19.497s8.196-4.17 12.125-6.36c-.593-1.304-.857-1.86-1.716-3.875 7.272-1.782 15.485-5.33 21.234-10.818 0 0-36.16 2.4-53.13 3.55-1.034 1.295-2.044 2.553-3.318 3.315-38.66-1.657-75.278 3.57-102.33 30.88-8.675 8.676-18.115 18.05-23.73 28.003-6.91 7.176-12.827 13.262-20.028 20.478L86.24 392.72l-12.007-15.75c-1.616-2.228 5.654-12.138 1.928-17.23 8.678-6.25 15.696-18.44 17.744-28.61 17.53-11.814 39.24-32.637 45.68-53.628 0 0 268.318-58.248 272.143-59.003-1.783 5.104-.765 12.12 4.975 14.798 2.806.64 5.87-.257 8.292-1.91-1.257-1.175-3.7-2.805-4.334-5.23-1.152-3.066.51-5.742 2.424-7.915-3.447-7.657-.638-16.457 3.958-22.71 3.187-4.21 8.28-9.033 11.85-12.86l-282.28 41.06s36.945-34.53 77.92-46.855c-1.234-.523-4.264-1.79-6.482-2.59 29.172-23.836 61.907-41.4 94.076-49.055-.476-1.61-.932-2.83-1.493-4.654.978-.122 27.418-4.025 27.418-4.025l-.157-2.142c6.413-.03 19.93 3.49 25.043 5.202l.983-2.256c19.77 8.81 35.917 32.46 35.917 32.46 13.013-1.42 26.642.162 37.1 5.652 9.715 5.07 9.15 23.236 8.27 35.843z" fill="#FFF"/><path d="M411.898 191.708l-327.233 47.87-24.212 48.844s259.2-55.056 345.26-73.876c-4.848-6.065-3.958-17.544 6.185-22.838" fill="#C60C30"/><path d="M446.937 155.472c-10.458-5.49-24.087-7.072-37.1-5.65 0 0-16.146-23.652-35.918-32.463l-.984 2.255c-5.113-1.71-18.633-5.233-25.043-5.202l.158 2.142s-26.44 3.903-27.417 4.024c.56 1.824 1.017 3.043 1.493 4.653-32.17 7.654-64.904 25.218-94.076 49.055 2.216.8 5.248 2.067 6.48 2.59-40.973 12.324-77.92 46.855-77.92 46.855l282.28-41.06c-3.575 3.827-8.667 8.65-11.854 12.86-4.595 6.253-7.404 15.053-3.954 22.71-1.918 2.173-3.577 4.85-2.424 7.915.633 2.425 3.077 4.055 4.334 5.23-2.422 1.653-5.487 2.55-8.294 1.91-5.742-2.678-6.76-9.694-4.974-14.8-3.828.756-272.144 59.004-272.144 59.004-6.44 20.99-28.15 41.814-45.68 53.628-2.047 10.17-9.068 22.36-17.744 28.61 3.725 5.092-3.544 15.002-1.925 17.23l12.008 15.75 7.655-27.747c7.2-7.215 13.12-13.3 20.03-20.478 5.614-9.954 15.056-19.327 23.73-28.002 27.05-27.31 63.672-32.538 102.33-30.88 1.275-.763 2.285-2.022 3.316-3.316 16.97-1.15 53.127-3.55 53.127-3.55-5.745 5.49-13.958 9.036-21.23 10.818.857 2.016 1.122 2.57 1.713 3.875-3.925 2.19-12.123 6.36-12.123 6.36s-3.857 13.228-5.538 19.498c6.12-2.805 11.863-6.512 17.732-9.444 8.366 1.26 55.12-3.455 60.84-16.86 3.834-5.357 5.458-12.747 7.043-17.978l25.003-3.82c5.362-.773 10.736.478 13.932 5.71 2.142 4.67 1.832 13.57 1.23 20.084 5.61-5.072 8.314-7.952 13.547-12.914l1.53 2.174c5.375-5.856 9.696-12.758 14.16-19.27 11.97-.534 14.53-3.57 16.48-10.2 3.702-11.19 8.643-21.946 15.112-29.328 6.67-7.606 8.454-23.345 9.345-36.137.883-12.607 1.447-30.772-8.268-35.843zm-97.497 123.75c-1.802 5.205-3.63 11.99-6.314 16.025-8.23 12.354-30.04 16.448-45.572 19.05-1.15 6.123-3.893 19.22-3.893 19.22l14.076-7.452s23.704-.15 43.806-10.126c12.365-6.186 8.233-38.267 8.233-38.267-3.7.51-6.763 1.04-10.335 1.55zm-215.242 53.215c-1.53 8.42-6.12 16.077-13.393 21.437-.256 1.016-.13 2.55.25 3.696-2.04 3.835-6.19 7.775-6.122 11.613 3.698 5.105 12.72 15.556 12.72 15.556s7.822-21.934 12.413-32.397l65.526-60.613s-46.65 1.845-71.394 40.707z" fill="#00338D"/></g></svg>