<svg width="512" height="512" viewBox="0 0 512 512" xmlns="http://www.w3.org/2000/svg"><title>detroit-lions</title><g fill="none" fill-rule="evenodd"><path d="M319.21 98.835c7.263 4.71 14.477 9.53 22.076 13.692 8.15 4.83 17.434 7.087 26.358 9.985 6.1 1.828 11.637 5.974 14.207 11.913 3.38 1.542 6.834 3.033 9.834 5.266 3.278 2.554 5.208 6.362 6.69 10.153 5.562 2.336 11 5.006 16.155 8.15 7.093 4.42 13.178 10.253 19.084 16.117-4.693 2.544-8.856 6.157-11.805 10.616-1.738 4.255-3.17 8.728-6.044 12.41 5.975-4.76 15.043-4.448 20.772.55 7.684-.692 15.42 2.382 20.755 7.902 3.698 3.908 4.853 9.966 2.972 14.99-1.355 2.897-.352 6.326-2.013 9.13-1.314 2.975-4.044 4.865-6.16 7.198-2.15 3.858-5.376 7.28-9.64 8.728-4.567 1.534-9.438.54-13.954-.59-6.167 1.104-12.59 1.01-18.454-1.408-1.694 2.554-3.438 5.064-5.25 7.533 4.224 3.462 9.025 6.32 14.36 7.667 5.89 1.642 12.555 2.93 16.212 8.39 11.096-1.903 22.05 6.244 24.942 16.794.928 3.423.852 7.154-.462 10.466-1.11 3.125-4.062 5.13-5.074 8.316-1.744 4.59-5.865 7.994-10.777 8.576-5.192 4.803-13.365 5.688-19.44 2.074-5.553-.65-11.57-.752-16.406-3.985-2.943-1.778-5.05-4.516-7.35-6.986-5.89-2.745-12.572-2.104-18.842-3.14-9.48-1.518-19-3.632-27.67-7.86-6.18 1.97-12.684 2.46-19.105 2.914-1.45-3.606-3.354-7.07-6.168-9.798-10.76 5.738-21.412 12.688-33.79 14.146-.868 4.616-1.88 9.25-3.64 13.622-2.53 6.28-8.124 10.87-14.267 13.397 7.037 2.766 12.834 8.9 14.014 16.516 1.17 5.663-1.98 11.324-6.48 14.6-1.855 4.17-5.62 7.474-10.13 8.418-4.313 1.297-8.974-.48-13.16 1.357-6.582 2.385-13.585-.016-19.138-3.732-8.25.54-16.525 1.667-24.79 1.01-5.99-.53-11.08-4.684-13.356-10.16-3.387 2.484-7.052 4.575-10.888 6.276-6.218 3.06-12.36 6.336-18.057 10.303.32 1.222-.354 3.143 1.146 3.733 4.676 2.326 8.62 6.623 9.378 11.932.413 3.977.185 8.23-1.864 11.777-1.322 2.493-3.908 3.943-5.4 6.31-1.895 2.85-4.66 5.266-8.047 6.067-2.874.943-5.958 0-8.824.91-4.694 1.355-9.96 1.205-14.28-1.246-5.968-3.438-9.97-10.203-9.7-17.137.615-8.4.893-16.85.91-25.26-2.815-4.803-4.635-10.8-2.08-16.118 2.29-5.916 8.812-8.45 11.585-14.013 2.46-4.414 2.696-9.587 3.058-14.508.304-5.855.987-11.687 1.28-17.542-8.097-2.56-16.112-6.042-22.59-11.644-5.74-5.46-10.517-12.107-13.178-19.607-2.993-8.08-3.405-16.958-7.24-24.743-1.635-3.455-4.322-6.27-7.407-8.477-7.465 1.517-15.377-1.02-20.61-6.522-3.97-3.352-6.126-8.736-11.106-10.844-6.337-2.974-13.365-4.05-20.273-4.776 10.583-10.86 24.344-19.294 39.654-20.93 6.372-.817 13.113.928 17.974 5.19 3.633 3 5.984 7.23 7.45 11.653 13.474 6.05 23.66 18.378 27.723 32.5 1.695 5.947 2.815 12.384 6.92 17.26 3.968 4.965 10.078 7.602 16.135 8.958 6.405-5.93 12.246-13.202 20.806-16.06 3.878-1.455 8.006-2.25 11.79-3.967 3.31-2.333 6.25-5.147 9.42-7.666 1.576-1.22 2.95-2.704 3.843-4.5 3.27-5.855 6.564-11.778 11.275-16.623-2.942-6.15-4.746-12.89-4.746-19.74 1.552.514 3.11 1.012 4.678 1.475.278-10.59 7.466-19.025 14.703-25.994.145-6.326 1.923-12.57 5.183-18.004-2.03-3.538-3.91-7.237-4.617-11.297 6.234-.642 12.52-1.678 18.3-4.18 3.397-1.417 5.495-4.585 7.855-7.222 4.33-4.735 9.09-9.284 14.973-12.04 7.373-3.412 15.564-5.13 23.696-4.777-2.613-1.962-5.452-3.63-8.485-4.85 6.883-4.214 14.837-6.397 22.817-7.257.27-3.942.55-7.935 1.772-11.728" fill="#000"/><path d="M323.17 107.43c7.16 4.204 13.608 9.714 21.31 13.01 6.832 2.83 13.88 5.096 20.906 7.413 5.384 1.433 10.475 5.207 11.79 10.86 4.642 2.184 10.12 3.565 13.22 7.996 2.25 2.47 1.938 6.875 5.393 8.24 5.728 2.553 11.466 5.166 16.675 8.704 4.356 3.243 8.433 6.857 12.31 10.674-2.797 2.51-6.033 4.66-8.216 7.768-2.192 5.493-4.156 11.544-8.94 15.403-1.585 1.39-3.878 2.063-4.864 4.052 4.45.11 8.723 1.29 12.868 2.84 2.816-1.728 5.24-4.35 8.67-4.837 3.7-.86 7.323 1.128 9.717 3.85 7.052-.657 15.025.758 19.516 6.783 2.79 3.1 2.292 7.835-.11 11.012.018 2.333.548 4.928-.757 7.027-1.012 1.846-2.942 2.806-4.628 3.91-1.568 3.21-3.488 6.69-7.01 8.046-4.03 1.635-8.435.26-12.31-1.164-3.937.673-7.956 1.466-11.95.86-2.89-.6-5.4-2.225-7.845-3.793-4.314 5.082-7.71 10.86-12.04 15.934 4.96 4.374 10.27 8.585 16.574 10.827 3.55 1.408 7.256 2.325 10.946 3.245 3.716.976 6.32 4.06 7.895 7.413 4.78-1.002 10.28-1.617 14.45 1.518 3.887 2.897 8.042 6.555 8.732 11.645.733 3.934-1.338 7.733-4.584 9.88-.54 2.276-.994 4.712-2.63 6.505-1.72 1.973-4.413 2.554-6.918 2.62-2.18 2.907-5.838 4.864-9.52 4.2-3.313-.324-5.832-3.314-9.304-2.63-7.06.487-14.332-2.927-17.56-9.39-6.472-2.568-13.424-3.724-20.367-3.8-10.35-1.186-20.773-3.782-29.89-8.93-5.04 2.056-10.3 3.658-15.75 4.07-1.963-4.693-5.494-8.57-9.773-11.273-6.658 3.648-13.314 7.27-20.056 10.742-6.084 3.1-12.942 4.078-19.65 4.777.573 5.088-1.002 10.077-2.636 14.83-.91 2.306-1.72 4.75-3.347 6.663-1.886 1.913-4.204 3.31-6.513 4.625-5.496 3.1-12 3.81-17.393 7.102-2.762 1.72-5.274 3.785-7.726 5.908 2.992.547 6.244 2.03 9.202.564 2.62-1.063 5.182-2.51 8.073-2.662 7.725-.97 14.904 5.376 16.632 12.604.944 4.256-2.08 7.912-5.587 9.825-.968 2.292-2.023 4.835-4.382 6.032-3.842 2.005-8.292.926-12.394.876-3.195 1.255-6.633 2.89-10.13 1.863-3.692-.658-6.556-3.454-10.137-4.28-7.87.167-15.716 1.263-23.594 1.247-3.565-.103-7.038-1.922-8.975-4.947-2.663-3.598-1.274-8.493.7-12.074 1.827-3.462 5.198-5.94 6.757-9.52-.903-1.93-3.236-2.42-4.897-3.523-4.56 7.962-7.364 17.812-15.613 22.884-9.245 5.418-19.65 9.024-27.766 16.26-.017 3.45-.05 6.9.245 10.348 4.163.665 8.452 2.89 9.74 7.203 1.02 4.67.465 10.98-4.54 13.128-1.086 2.528-2.596 5.275-5.41 6.15-2.823 1.12-5.906-.472-8.697.732-3.16 1.03-6.69 1.36-9.834.103-4.56-1.93-7.88-6.75-7.625-11.754-.077-8.736.606-17.456.783-26.186-.564-4.34-4.5-8.02-3.337-12.647 2.226-6.79 10.383-9.066 12.767-15.74 4.762-12.24 2.604-25.604 4.736-38.32-7.23-1.85-14.367-4.412-20.738-8.365-6.405-3.908-11.03-10.16-14.31-16.792-4.582-9.555-4.657-20.6-9.52-30.037-2.402-4.718-6.404-8.45-11.013-10.98-5.748 1.906-12.463.843-17.004-3.268-3.902-3.125-6.28-7.71-10.095-10.902-4.72-2.967-10.442-3.607-15.843-4.424 10.727-7.245 23.08-14.374 36.547-12.53 7.474.91 12.378 8.014 13.38 15.04 5.822 2.782 11.487 6.1 16.077 10.676 5.874 6.075 9.794 13.86 11.773 22.033 1.962 7.625 5.207 15.36 11.215 20.684 5.478 4.23 12.193 6.682 19.01 7.658 4.264-4.59 8.747-8.99 13.466-13.11 5.756-4.93 13.744-5.173 20.325-8.376 3.86-3.16 7.55-6.53 11.443-9.647 2.478-1.86 3.58-4.86 5.208-7.397 3.31-6.04 7.33-11.643 11.627-17.028-2.652-3.463-4.262-7.626-4.514-11.99 1.423.127 2.848.253 4.28.37-1.45-3.89-1.692-8.323.05-12.166 2.992-6.84 8.006-12.597 13.516-17.533-.134-7.245 1.778-14.584 6.202-20.405-1.726-2.385-3.185-4.972-4.094-7.785 5.662-.91 11.62-1.577 16.532-4.794 3.412-1.828 5.334-5.292 7.997-7.937 4.548-4.678 9.85-8.932 16.153-10.913 6.648-2.09 13.684-2.73 20.62-2.3 2.418-1.575 4.946-2.983 7.506-4.323-2.36-2.4-4.946-4.59-7.862-6.284 5.258-1.34 10.66-2.184 16.094-1.922.095-2.863.795-5.702.567-8.558" fill="#FFF"/><path d="M327.99 116.782c4.22 3.067 8.45 6.194 13.187 8.45 8.225 4.298 17.55 5.714 25.977 9.497 3.144 1.213 4.612 4.59 4.424 7.793 4.105 1.92 8.46 3.377 12.31 5.788 3.845 2.672 3.532 8.435 7.51 10.94 4.357 2.172 8.958 3.874 13.205 6.29 4.558 2.403 8.612 5.647 12.48 9.026-2.68 1.81-5.857 3.598-6.556 7.06-1.685 6-5.242 11.914-11.334 14.23 1.273-2.94 1.643-6.16.884-9.293-6.2-.152-12.495.91-18.007 3.86.018 3.36-.303 7.178 1.98 9.95 1.3 1.668 3.77 2.064 5.623 1.137 2.922-1.322 4.862-4.002 6.607-6.572.066 2.563-.743 5.527 1.07 7.7.73 1.98.124 4.18.108 6.245 5.57-2.714 11.815-1.02 17.123 1.44 5.09.943 7.83-6.487 13.07-4.852 1.384.843 1.955 2.536 3.28 3.43 4.566 1.044 9.58-.868 13.826 1.583 2.275 1.196 5.562 3.067 4.856 6.117-.863 1.037-1.915 1.88-2.9 2.772.564 1.862 1.46 3.758 1.07 5.754-.86 1.568-2.822 1.82-4.297 2.52-1.028 2.51-1.877 5.342-4.215 6.968-3.52.767-7.01-.59-10.322-1.626-5.274 1.357-11.82 2.747-16.254-1.374-2.503-2.856-6.934-.952-9.007 1.51-4.76 5.71-8.24 12.452-13.525 17.743-7.987 8.047-16.592 15.51-25.844 22.074-6.556 4.88-14.09 8.418-22.128 9.97-3.084-4.803-7.306-9.22-12.842-11.08-14.797-5.123-30.78-4.558-46.076-2.402 12.918.244 26.576 0 38.374 6.066-5.68 3.227-11.418 6.387-17.384 9.04-6.9 3.026-14.553 3.11-21.925 3.758.893 3.783 2.224 7.726 1.045 11.61-1.146 4.297-2.04 9.15-5.42 12.318-7.136 5.19-16.557 5.688-23.736 10.82-4.964 3.387-9.288 7.86-11.782 13.38 4.947 1.052 9.886 2.174 14.874 2.99 5.486 1.23 9.748-4.515 15.217-3.118 3.792 1.104 7.028 4.533 7.602 8.486-.33 2.595-3.27 3.075-5.258 3.89-.295 1.678-.674 3.34-1.12 4.97-3.81 1.332-7.83.634-11.663-.158-1.88 1.4-3.996 2.746-6.44 2.664-4.44.067-7.313-4.415-11.677-4.635-8.165-.254-16.28 1.618-24.446 1.094-2.022-.118-4.423-1.33-4.524-3.598-.18-3.883 2.998-6.63 5.097-9.512 2.056-2.738 5.216-5.855 3.926-9.604-1.575-3.633-5.544-5.108-8.83-6.775 6.1-7.02 13.247-13.177 21.36-17.762 10.442-6.242 21.22-12.114 32.814-15.932-17.763 3.018-34.557 11.098-48.453 22.514 3.372-6.58 9.127-11.426 14.3-16.53-11.09 5.578-19.752 15.267-25.17 26.33-3.21 6.784-6.632 13.48-10.44 19.943-2.166 3.868-6.438 5.67-10.212 7.565-7.13 3.27-13.99 7.136-20.443 11.594-2.168 1.636-4.95 3.437-4.982 6.488-.36 5.266.195 10.574.868 15.797 2.782.423 5.73.6 8.216 2.04 1.728 1.787 1.88 4.677 1.045 6.917-.91 1.215-2.663 1.045-3.978 1.5-.388 1.83-.27 4.14-2.04 5.285-2.132.615-4.306-.102-6.404-.498-1.643 1.044-3.395 2.207-5.442 2.03-3.75.33-7.114-3.134-6.845-6.85.12-9.27 1.07-18.527.7-27.796-.067-3.622-3.65-6.285-3.228-9.943 1.88-3.16 5.158-5.097 7.66-7.708 3.294-3.042 4.98-7.347 6.252-11.543 3.8-13.068 1.046-27.047 4.77-40.12-7.162-1.426-14.207-3.566-20.788-6.734-6.606-3.127-11.916-8.61-15.463-14.93-3.176-5.688-3.606-12.302-5.452-18.444-1.483-5.13-3.344-10.178-5.763-14.938-3.083-6.21-9.27-9.925-15.024-13.32-3.017 1.533-6.6 2.36-9.85 1.044-4.676-1.93-8.756-5.257-11.477-9.537-1.804-3.168-5.428-4.29-8.696-5.275 4.802-1.652 9.985-2.763 15.033-1.668 2.797.556 5.257 2.055 7.803 3.253-2.655-4.626-8.183-5.208-12.91-6.05 5.367-2.108 11.948-2.41 16.81 1.078 3.38 2.747 4.366 7.237 5.437 11.248 5.52 3.07 11.216 6 16.018 10.145 6.16 5.865 9.74 13.952 11.587 22.15 2.132 8.89 6.784 17.36 14.09 23.01 6.758 5.167 15.343 7.35 23.712 7.956 4.043-5.08 8.837-9.503 13.733-13.76 5.865-5.417 14.72-4.826 21.176-9.14 4.643-4.07 9.724-7.685 14.004-12.142 3.995-5.905 7.087-12.41 11.36-18.157 3.025-4.043 6.377-7.833 9.774-11.575-3.186-.304-6.396-1.053-8.865-3.21 3.295-2.116 7.863-4.07 8.58-8.367.09-3.682-4.51-2.376-6.71-1.677 2.512-10.6 10.77-18.408 18.936-24.997 3.133-2.334 7-5.18 6.807-9.546-1.963-3.944-6.893-1.407-9.167.884 1.812-4.607 4.12-9.148 7.912-12.46-1.997-.902-3.742-2.233-5.04-4.002 3.65-.303 7.475-.54 10.702-2.468 5.807-3.296 11.52-6.792 17.77-9.202-2.72-.278-5.458-.075-8.112.625 5.4-5.58 12.184-10.17 19.978-11.392 9.33-1.87 18.85 1.07 28.145-.724-2.325-1.827-5.157-2.68-8.04-3.067 3.422-1.71 6.936-3.278 10.694-4.096-2.53-2.207-5.285-4.128-8.233-5.72 4.667.345 9.377.598 13.894 1.92-1.038-1.99-1.66-4.145-1.93-6.362" fill="#005A8B"/><path d="M368.824 160.343c3.42-.464 7.062-2.217 10.407-.574 1.754.682 3.524 1.34 5.31 1.92-1.086 1.61-2.082 3.277-2.83 5.064-3.59-3.37-7.957-5.78-12.886-6.41zm-83.658 25.78c6.185-4.498 13.382-7.843 21.11-8.298 13.415-.792 26.845 5.99 34.614 16.885-9.538-6.977-20.863-12.638-32.947-12.386-7.76-.143-15.378 1.643-22.778 3.8zm-9.345 21.166c9.288-4.01 17.57-10.676 27.8-12.192 7.55-1.33 15.236-.127 22.557 1.854-9.352-.632-18.917.504-27.41 4.658-7.87 3.742-14.654 9.606-23.04 12.3-8.678 3.288-18.402 3.212-27.14.16 9.42-.436 18.756-2.61 27.234-6.78zm28.374 5.965c11.35-5.19 24.545-7.13 36.62-3.353 4.45 1.473 9.236 3.496 11.706 7.734 1.34 2.098 1.525 4.625 1.728 7.034 3.572-.92 7.077-2.097 10.398-3.714.54-2.974 1.155-6.058 3.008-8.528 1.5-2.19 4.256-3.638 6.933-3.176 4.82.59 9.296 2.654 13.644 4.72-11.856 8.77-25.725 14.39-39.773 18.62 1.56-4.096 1.83-8.94-.817-12.664-3.92-5.88-11.36-7.685-17.93-8.662-8.554-1.314-17.174.076-25.516 1.99z" fill="#FFF"/><path d="M360.17 281.66c12.107-6.865 23.004-15.645 32.652-25.645 3.835 3.41 7.795 6.774 12.304 9.276 5.46 2.883 11.385 4.786 17.366 6.252 4.163.91 4.365 6.715 8.57 7.616 3.816.59 7.838-1.878 11.494.05 2.612 1.485 4.77 3.743 6.32 6.304.64 1.314 1.526 2.99.63 4.406-.782 1.694-2.845 1.93-4.363 2.637-.178 2.283.26 4.97-1.432 6.807-1.81 1.097-3.995.136-5.923-.068-.784 1.763-1.347 4.232-3.556 4.678-2.62.656-4.878-1.205-6.892-2.57-4.5.235-9.447.59-13.417-1.955-2.297-1.355-3.67-3.724-4.742-6.09-5.89-2.503-12.11-4.298-18.52-4.694-10.416-.885-20.95-2.546-30.49-7.002" fill="#005A8B"/></g></svg>