<svg width="512" height="512" viewBox="0 0 512 512" xmlns="http://www.w3.org/2000/svg"><title>green-bay-packers</title><g fill="none" fill-rule="evenodd"><path d="M437.918 255.76c0 66.135-81.695 119.746-182.47 119.746-100.774 0-182.47-53.61-182.47-119.745 0-66.133 81.696-119.744 182.47-119.744 93.05 0 171.198 45.95 181.376 106.647" fill="#FFB612"/><path d="M419.012 213.325c36.148 58.977-7.777 125.916-98.108 149.516-90.33 23.602-192.86-5.076-229.007-64.05-36.148-58.975 7.775-125.917 98.105-149.517 90.04-23.524 192.265 4.888 228.708 63.564" fill="#203731"/><path d="M100.22 255.13c-.087-52.443 77.263-98.05 161.563-96.305 87.333-.198 130.812 47.32 140.654 65.892h-69.694c-15.4-25.628-35.743-36.39-80.464-36.114-62.385 3.368-90.692 38.868-89.335 65.892.41 15.41 6.318 57.752 86.167 58.923 35.335-1.33 77.558-3.155 85.757-36.987l-106.667.24v-27.244l181.838 1.267c2.134 49.682-48.198 101.426-160.705 103.133-95.48-.673-150.79-56.506-149.114-98.7v.003" fill="#FFF"/></g></svg>