<svg width="512" height="512" viewBox="0 0 512 512" xmlns="http://www.w3.org/2000/svg"><title>jacksonville-jaguars</title><g fill="none" fill-rule="evenodd"><path d="M427.336 247.657l-.278.04c-1.062.168-3.138-.152-2.857-1.66.163-.93 1.44-1.696 2.245-2.033 2.293-.926 4.536-1.8 6.592-3.176.737-.495 1.443-1.035 2.08-1.66.173-.163 1.112-.915 1.08-1.195-.28-2.3-.88-4.327-1.63-6.04-.24.582-.648 1.345-1.217 2.203-1.26 2.137-2.82 3.126-3.383 3.43-.823.466-2.433.95-3.166-.473-.743-1.406 1.3-2.622 1.3-2.622 3.02-2.167 4.243-4.368 4.735-5.805-1.62-2.51-3.175-3.822-3.175-3.822s-4.34 10.794-15.7 16.29c-8.152 3.947-15.628 8.536-20.422 14-.676.784-1.305 1.59-1.878 2.41l.092.012c11.52 1.273 17.17 6.132 19.03 8.483l.33.447.04-.013c.718-.12 12.272-2.2 19.43-10.06h-.78c-1.766-.07-8.513.11-6.81-3.275.573-1.134 2.593-.82 3.6-.76 1.74.103 3.465.287 5.198.193 2.392-.13 2.835-2.295 3.432-4.27.566-1.91.908-3.71 1.064-5.41-2.646 3.354-7.388 4.49-8.95 4.767m-25.49 18.648c-2.548-.593-5.688 1.072-7.44 2.197-.333-.69-.958-1.3-2.15-1.71-3.58-1.202-7.997 2.193-7.997 2.193.37-2.588-3.193-1.85-3.334-1.83-1.055.087-5.476 1.478-8.092 2.94-3.872 1.347-8.98 2.983-14.626 4.35 1.06 6 .735 10.22.735 10.22 5.99-3.093 10.96-9.465 13.98-14.053.65 3.083 3.264 7.265 3.264 7.265 4.2-2.603 7.932-6.372 7.932-6.372 1.29 2.327 1.072 7.214 1.072 7.214 2.95-.96 5.595-2.864 7.297-4.29-1.883 9.968-7.935 19.64-7.935 19.64 7.08-2.652 20.6-16.998 21.472-20.91.864-3.902-.426-6.013-4.18-6.855m-64.645 10.887c1.19 12.215-9.685 23.25-9.685 23.25 17.64-4.947 26.896-19.078 29.746-24.16.302-.752.526-1.37.658-1.776-6.568 1.57-13.835 2.763-20.718 2.686m16.552 38.597s-10.856 17.34-15.75 20.922c-.004 0-1.177-2.837-2.615-4.24 0 0-5.95 4.013-7.14 6.213.125-.227-1.07-1.872-1.196-2.093-.67-1.096-1.354-2.175-2.177-3.16-2.378 1.395-5.13 3.433-6.38 5.93 1.003-2.007 1.757-4.06 2.313-6.233.33-1.338.56-2.707.704-4.078.485-4.71-.125-9.505-1.654-13.985 0 0-5.633 13.77-12.12 20.512-6.502 6.723-10.056 8.447-10.47 9.405-.41.93-.495 4.347 7.123 3.382 7.625-.99 13.003-6.648 13.003-6.648s10.43-1.934 19.602-.69c0 0 2.545 2.76 6.165 2.505 3.62-.254 11.155-14.398 10.593-27.746m-52.23-42.693c-4.586-14.352-21.597-17.132-21.597-17.132s13.93 5.672 14.302 45.802c.13 13.5 4.263 19.208 4.263 19.208-7.027-3.736-8.87-17.517-9.507-28.18-.318-5.424-2.523-31.85-22.794-38.377-12.307-3.963-18.23-.59-18.23-.59s9.5 2.262 14.853 11.996c8.092 14.64 2.334 40.532 8.37 54.36 7.46 17.1 21.11 21.715 21.11 21.715 17.913-9.596 21.75-24.506 21.75-24.506-15.32-7.92-7.956-29.93-12.522-44.297M324.9 322.52l.625 6.91 4.818 3.128c1.387-5.59-5.444-10.038-5.444-10.038m50.956-95.172c-4.174-.378-7.48 1.5-7.48 1.5s12.272 0 16.75 3.866c4.496 3.883 3.295 6.862 3.295 6.862s4.48 7.166 5.684 10.14c0 0 8.366-7.75 8.974-13.117-.002-.003-16.256-8.252-27.222-9.252m37.07-17.34s-5.253 6.457-7.85 4.478c-2.615-1.99 1.36-4.647.52-9.82-.822-5.163-17.818-22.573-39.283-35.414 0 0 9.924 4.09 19.52 9.168l.232.112c2.117 1.074 4.353 2.35 6.448 3.642 2.877 1.75 5.47 3.518 7.4 5.22 0 0 3.9-4.745 1.57-10.282-.125-.306-.288-.625-.463-.945l-.077-.124c-.36-.628-.788-1.263-1.286-1.915-.432-.284-1.05-.65-1.744-.912-1.354-.518-2.63-.735-3.53-1.18 0 0-2.063-2.083-2.756-3.083 0 0-.22.92.35 2 0 0-1.588-1.392-3.047-1.7-1.454-.3-3.207-.884-3.66-1.225-.45-.337-1.34-1.12-1.34-1.12s.037.708.254 1.233c0 0-1.494-.115-1.748-1.68-.266-1.563.96-2.2.96-2.2s-.113-.443 0-.997c0 0 1.34 1.48 1.984 1.86 0 0 .29-.945-.26-2.57l-.492-.28c-.496-.265-.98-.51-1.435-.718-.382-.178-22.494-12.68-32.98-17.925-.78-.072-1.84-.238-2.97-.612 0 0-1.752-.814-2.044-1.65 0 0-.12.43.135.906.444.8 1.38 1.656 1.66 2.765 0 0-1.74-1.03-3.176-1.768-1.258-.65-3.902-1.398-5.396-2.514-.312-.225-.553-.46-.715-.687l-.168-.204c-.15-.228-.24-.45-.305-.648l-.066-.258-.02-.116-.02-.278.008-.19.086.06.072.06.103.08c.627.535 1.298 1.134 2.084 1.347l.195.052-.073-.094-.082-.09-.197-.228c-.406-.445-.96-1.15-1.42-2.06-8.568-4.227-18.808-8.72-32.653-11.437-19.93-3.925-33.306-.617-33.306-.617s3.928.234 12.126 3.093c.51-.16 1.202-.44 1.81-.872 1.18-.842 1.942-1.008 2.446-1.008.503 0 2.686 2.594 2.686 2.594s-.24-2.004-.663-3.692c0 0 2.146-.184 2.964 0 1.195.275 2.19.68 2.615.68.42 0 .594-.5.594-.5s.754.49.754 1.088c0 0 1.69 1.173 1.69 2.273 0 1.09-.255 2.522 0 3.203 0 0-.422.245-1.106-.847 0 0-1.093.924-2.188.924-.513 0-.976.127-1.336.267 3.776 1.69 8.048 3.76 12.858 6.32l.95.68s.39-1.596.647-1.843c0 0 .5.446.6.702 0 0 .092-.703-.052-1.495 0 0 1.34-1.09 2.387-1.192 1.046-.103 1.452-.103 1.79-.302 0 0 .237-.83-.112-1.73 0 0 1.756 1.023 2.107 2.328 0 0 .153-.79.1-1.596 0 0 1.837-.298 3.19.054 1.34.337 2.25.803 2.555 1.295.292.498 1.125 2.16.667 2.523-.48.36-1.323.5-1.578.904-.25.396-.347.74-.693.99-.337.244-.804.307-.804.307s-.095 1.378.265 2.074c0 0-.72-.09-1.067-.934 0 0 .164.785-.34 1.338-.494.545-.837.884-1.33 1.033 0 0-1.23-1.166-1.332-1.62 0 0 .137 2.747-.34 2.235 0 0-2.586-2.282-3.108-2.564 0 0-1.113.166-1.556.118-.456-.044-1.99-.64-2.288-1.146 0 0-.053.597.794 1.196 0 0-.77-.12-1.053-.253 0 0-.447.502-1.24.705 0 0 .793.897 1.14 1.236 0 0-1.564-.275-2.275-1.032 0 0-.904.046-1.907-.253-.994-.298-1.602-.195-2.5-.055-.9.15-1.043.055-1.695-.1-.647-.14-2.433-1.14-2.433-1.14s.298.794.603 1.052c0 0-.154.647-1.604.243-1.445-.403-1.495-.84-2.24-1.298-.75-.437-1.247-1.09-1.094-1.636.145-.546.597-.948.597-.948s.443.402 1.238.76c0 0-1.34-1.692-1.496-2.294l1.056.197s.243-.945 2.334-1.387c.704-.153 1.295-.247 1.766-.32-5.764-1.8-13.825-4.044-23.132-5.903l-.395.534-.36.675c-.342.7-.597 1.413-1.143 1.874 0 0-4.33-1.348-5.718-2.04 0 0 2.19 1.786 3.712 2.606 0 0-1.312 2.17-5.89 1.665 0 0-2.12.917-3.783.747-1.645-.18-4.164-1.27-4.682-2.114-.515-.866-.456-2.633 1.323-3.666 0 0 2.42 1.475 3.62 2.148 0 0-2.135-2.65-1.964-3.506 0 0 .757-.627 1.667-1.172-1.062-.146-2.14-.277-3.22-.39-9.793-1.104-18.455-1.268-26.308-.824.62.893.493 1.73.994 2.617.596 1.092-.282 1.593-.282 1.593-.66-.536-3.388-1.69-3.388-1.69 1.038.977 1.92 2.335 1.92 2.335-.656.38-2.39.72-4.26.814-1.866.08-4.52 1.623-4.52 1.623-1.113-.328-2.06-1.457-3.002-2.327l-.468-.4-.123-.1-.072-.062-.09-.064.11.304.013.027.01.032.187.477.446.926c.475.905 1.04 1.76 1.61 2.6l.028.05.638 1.022.222.328.04.073.072.114.083.12.037.075.053.078c-.235-.298-.98-.44-1.338-.57l-.062-.016c-.62-.248-1.198-.57-1.766-.924l-.03-.024c-.258-.183-1.012-.864-1.32-.746l-.193.057-.123.03-.233.073-.3.072-.312.068-.44.085-.796.092h-.042l-1.076.01c-1.915-.112-4.26-1.738-5.893-3.385-.59-.573-.775-1.214-.78-1.796-1.707.4-3.38.82-5.01 1.262-2.432.57-15.683 3.518-29.222 6.556.08.94-.314 1.943-.314 2.468 0 .938.757 1.645.757 1.645-1.55.124-4.287-.904-4.287-.904.777 1.1 3.01 2.37 3.01 2.37s-.324 1.225-1.346 1.645c-1.018.423-1.795.258-3.066.16-1.276-.074-2.38.516-3.998.597-1.622.086-3.605-.912-3.605-.912 1.788.162 3.117-1.04 3.117-1.04-2.29-.26-3.006-1.106-3.26-1.605-.184-.37-.755-.877-1.28-1.25-9.936 2.215-17.63 3.934-17.63 3.934-6.303.844-11.39 1.48-11.39 1.48-1.87.136-3.744.245-5.613.353-10.29.546-20.587.306-30.86.936-1.53.09-3.032.134-4.56.134h-.056c.83.186 1.665.412 2.492.637 1.126.303 2.238.618 3.353.957 3.755 1.126 7.485 2.39 11.154 3.81 1.82.698 3.622 1.438 5.41 2.214 1.903.835 3.783 1.705 5.626 2.633.505-.772 2.787-.772 2.787-.772l-.29-.594c-.002 0 .64.407 1.433.35l.156-.024.577-.215c.257-.166.476-.39.98-.553.845-.302 2.024-.18 2.024-.18.32-.577 1.735-1.13 1.735-1.13l-.62-.536c.57-.095 1.87.177 2.415.234.373-.027.674-.057.783-.125l.05-.026c.157-.126.26-.39.117-.607-.27-.245-.867-.436-1.28-.617-.475-.217-.528-.523-.537-.617l-.02-.047c-.495.105-1.63-.38-1.63-.38s.95-.047 1.196-.215l.63-.278c.35-.166.792-.308 1.204-.36.757-.095 1.657.594 1.657.594s.792.142 1.586-.153c.814-.277 2.48-.246 2.396-.227-.514.092-1.034.445-1.526.445.402 0 .948.275 1.266.503 1.477.994-.395 2.295-1.35 2.755-1.462-.16-2.37.41-2.37.41s1.882 0 1.792.552c-.106.538-.952.888-1.85 1.087-.897.195-1.6 1.092-1.6 1.092.41.048.755.444.755.444s-.95.098-1.09.203c-.156.092-.65 1.197-1.053 1.687-.393.494-1.786.844-1.786.844.638.35 2.685.593 2.685.593-1.127.405-2.444.475-2.9.497l3.552 2.244.02.007c.164.116 2.707 1.7 3.58 2.21 3.698 2.173 7.507 4.153 11.528 5.64 1.223.403 2.423.867 3.65 1.248 1.368.42 2.748.778 4.133 1.104 1.27.285 2.56.512 3.84.707 2.29.337 4.62.472 6.935.41 2.334-.054 4.655-.375 6.954-.795 2.664-.496 5.308-1.067 7.908-1.823l1.28-.366c3.593-1.1 7.073-2.687 10.423-4.393.88-.434 1.754-.878 2.61-1.34l.065-.043.06-.02c-.05.06-6.24 5.178-9.27 7.03-.657.404-1.33.806-2.01 1.193-1.104.632-2.243 1.225-3.377 1.803-.97.503-1.94.962-2.92 1.395l-1.56.652-.082.042c-6.44 2.552-13.004 3.424-19.94 3.917-5.965.424-14.65.658-23.54-.44-14.608-1.82-22.33-6.718-22.33-6.718 13.343 2.33 20.404 1.92 23.614 1.39-4.873-3.093-9.064-6.976-14.512-10.386-13.022-8.105-25.333-13.186-38.647-11.966 0 0 4.366 1.07 7.442 5.176-.963 4.032 4.28 12.985 12.186 19.84 1.374 1.193 2.86 2.477 4.483 3.76l-5.957-.132c4.187 2.708 15.294 6.348 15.294 6.348-2.435.816-6.628 1.48-6.628 1.48.27.31 8.287 4.457 23.233 5.076 8.194.33 16.345-1.098 23.904-4.294l.17-.084.24-.13.062-.018-.595.573c-4.543 4.147-10.342 6.656-16.246 8.27-3.177.865-6.43 1.497-9.703 1.893l-1.515.168c-.206.068-.35.16-.404.278-1.605 5.012-1.657 10.424-1.38 15.628.15 2.793.497 5.593 1 8.356l.01.04c.363-.364.795-.75 1.29-1.153 0 0 1.5-1.234 4.106-1.613l-.108-.102-.12-.105c-.555-.47-1.41-.707-2.16-.825l-.583-.09.496-.083c1.63-.34 3.564-.64 5.142-.297l.114.02c.96.218 1.803.852 2.323 1.675l.136.262.15.337.034.086.103.343.07.34.016.068.016.354c0 .418-.083.845-.268 1.245-.614 1.37-1.746 3.98-1.746 4.968 0 .453-2.34 2.08-2.97 2.714l-.102.115.193-.01.154-.02 2.067-.258 1.01-.06h.027s1.62 2.982 2.867 3.977c1.244.994 2.365 3.098 2.745 4.714l.042.014c.15.01.33-.042.515-.12l.06-.016.218-.094.463-.214.703-.302.67-.34.065-.032s-2.357 3.458-5.104 5.086c.18.028 2.368.348 3.452-.12l.028-.01s.187 4.128-3.85 8.576c-.28.31 3.005 4.187 5.02 6.462l.226.27.175.202.424.466.264.308c.143-.124 1.25-1.07 1.82-1.53.975-.788 2-1.52 3.04-2.217.985-.67 3.254-1.872 3.254-1.872l.03-.016v.023c-.03.32-.04.665-.01 1.053 0 0 1.14-1.236 2.19-1.812 0 0-1.716 2.665-1.91 4.662 0 0-.386 3.32 2.763 5.03 3.14 1.707 7.823 3.044 9.16 4.087 0 0 2.386-1.71 3.712-2.277 0 0-3.15 3.04-4.005 5.887 0 0 1.91-1.798 2.965-2.185 0 0 2.953 2.185 4.757 1.992 1.804-.186 4.385-.098 5.427-2.472 1.05-2.364.858-2.745 1.34-3.508 0 0-1.722 1.048-2.96 2.18 0 0 .578-2.364 2.96-4.18 2.374-1.79 3.53-2.084 3.53-2.084s5.626-7.423-.95-11.034c0 0 3.23-1.61 5.047-2.745 0 0-5.255 1.33-6.966 1.894 0 0-3.9-.76-5.995-.76-2.104 0-5.715-.28-7.34-.762-1.618-.476-3.244-1.043-3.244-1.043s.954-.567 1.72-.766c0 0-3.7-.274-5.885 3.182l-.033-.01c.008-.28.134-1.617 1.145-2.877 0 0-1.94.883-3.037 2.108l-.035-.008c-.72-.272-1.452-.497-2.187-.724-1.163-.347-2.35-.662-3.535-.94-.783-.18-1.584-.367-2.385-.52 6.19-4.082 13.042-7.132 20.092-9.512 2.354-.787 7.348-2.207 7.348-2.207 1.002.948 2.012 1.666 2.012 1.666s3.354-.803 4.965-1.43c0 0-3.364 2.357-5.983 3.49 0 0 3.988-.133 5.36-.383l-.612 1.38s1.742 1.36 5.85.747c4.107-.622 6.73-1.5 6.73-3.616 0-2.11-.506-3.106.12-5.215 0 0-1.495.242-2.62 0 0 0 2.37-1.368 3.24-2.856 0 0-.22-1.336-.87-2.662l-.003-.013c3.287-.356 6.602-.64 9.893-.835-.412-.48-.856-.938-1.33-1.37-3.31-3.042-7.947-4.993-12.107-6.325 8.28-1.105 16.652-1.43 24.974-1.715 4.768-.175 9.54-.293 14.3-.344-1-.83-2.393-1.31-3.582-1.79 2.793-.317 5.714-.048 8.513.155-2.385-1.197-5.088-1.868-7.637-2.625-1.794-.523-3.602-1.028-5.41-1.496l.224.01.202.016.043.01c6.562.87 13.528 1.968 21.153 3.33 48.9 8.685 81.165 21.85 95.216 28.442 3.72 1.68 6.248 2.956 7.538 3.625 1.165.34 2.786.525 3.605-.663.153-.212.265-.44.35-.656l.007-.02.34.02c3.063-.188 6.063-.486 9.034-1.3.836-.225 1.658-.48 2.486-.76 1.685-.578 3.317-1.25 4.92-1.994-.082 0-2.722-3.416-3.036-3.758-2.374-2.653-5.037-5.073-7.97-7.13l1.243-.338c.417-.103.865-.164 1.29-.155-2.352-2.323-5.26-4.18-8.028-5.906-1.023-.657-2.08-1.278-3.117-1.88l-.9-.533-.64-.385c-1.198-.688-2.4-1.37-3.618-2.018l-.044-.022.054-.01h.15c4.398 0 8.846-.18 13.262-.07.5.008 4.865.205 5.102.224 1.28.088 2.552.173 3.818.29 2.755.25 5.51.56 8.25.95l2.042.298c3.476.52 6.947 1.203 10.378 1.965l.106.03c1.89.63 3.97.908 5.904 1.402 1.084.284 2.16.566 3.243.866 2.382.647 4.747 1.34 7.092 2.095 1.497.487 2.99.98 4.48 1.515.394.136 2.245 1.08 2.518.884.74-.526 4.91-3.42 8.177-4.048 3.587-.69 6.95-2.04 6.95-6.073-.368-4.18-3.696-8.543-7.332-11.452m-192.14 70.048c-2.17-2.24-4.284-2.984-5.554-1.74 0 0-.64-2.39-2.103-3.035-1.477-.647-2.475-.522-2.475-.522-.002 0-5.742 1.14-8.1 2.592.462-.297 4.26-2.747 5.61-3.612l-3.186.73s-3.357.012-6.473-.233c-3.107-.234-10.29-.978-11.618-.72-.002 0 .897-.612 1.433-.936-.145 0-2.497.02-4.057 1.277 0 0-4.778.494-5.697 3.7-.93 3.22 1.44 5.505 2.14 6.01 0 0 .96-1.505 2.897-2.454 0 0-1.105 1.782-1.064 3.265 0 0 4.077 2.15 12.21 3.273 8.143 1.123 7.55.522 10.414 2.296 0 0 3.02-2.133 4.693-2.636 0 0-2.35 3.333-2.57 4.578 0 0 3.78 3.214 6.897 3.448 3.126.25 5.8-.956 5.47-4.163l1.125-1.383-1.992.147.58-1.08s-.095-1.637-1.003-2.904c.158.08 1.713.924 3.192.52l-.434.815s1.7-.193 2.96-2.343l-1.03-.28c-.004 0-.087-2.367-2.264-4.61m-21.156-30.18s-2.86.01-4.956.1c-2.073.1-4.344.303-4.645 2.267-.29 1.977.3 2.962 1.194 3.655.883.69 4.262 2.76 4.948 3.443 0 0 2.276-1.48 4.06-1.868-.003 0-3.86 2.754-4.746 4.248 0 0 1.682-.886 2.872-.886-.003 0 3.063 1.87 5.035 1.87 1.978 0 5.732-.596 5.732-.596s2.18-1.47 4.564-1.674c0 0-2.486 1.674-3.076 2.472 0 0 .996-.105 1.593.3.59.382 2.57.774 4.35.094 1.78-.694 3.55-1.385 3.46-3.553-.104-2.172-1.38-4.736-1.38-4.736s2.33-1.943 3.617-2.552c-.31.042-2.84.423-4.417 1.072 0 0-1.968-3.95-4.057-5.23-2.082-1.273-4.16-1.477-6.433-.494-2.275.993-5.652 1.95-5.652 1.95s-3.113 1.488-3.53 2.083c.066-.145.63-1.31 1.468-1.965m229.227-33.022s-6.052-13.237-23.27-24.514c4.32-5.513 5.99-12.143 4.003-17.376-2.067-5.442-16.555-15.382-22.02-18.204-5.455-2.807-12.994-6.943-12.994-6.943s-19.36-11.71-34.568-18.327c-18.345-7.963-51.373-18.57-87.306-11.006 0 0-21.56-7.05-60.538 4.955-13.634 3.738-36.787 9.87-49.765 12.028-19.236 3.205-38.752 3.53-53.874 5.123-7.965.85-13.27-.913-15.862 3.565-11.382 19.663 22.566 52.935 34.864 58.196-3.642 20.448.983 44.637 22.51 68.807 23.406 26.302 55.793 31.285 74.78 45.272 21.315 15.692 25.73 35.51 43.53 54.054 16.384 17.056 48.396 31.6 77.075 17.673 31.11-15.115 36.753-40.346 37.876-45.075.378-2.422-1.03-4.868-4.16-6.37-.524-.25-1.564-.762-2.944-1.484 1.237-4.94 4.4-19.796 1.286-32.75 0 0-8.794 12.822-15.44 19.93-1.86-1.744-10.394-10.352-8.976-20.56 3.896-1.543 8.423-3.652 11.885-6.242 1.997-1.507 3.754-2.997 5.356-4.458 17.505-4.998 21.436-12.21 21.436-12.21.647 1.77 2.856 4.033 2.856 4.033 2.58-1.45 6.02-4.032 6.02-4.032.332 2.093.288 5.812.288 5.812 1.3-.484 2.565-.6 2.565-.6-1.3 6.45-8.874 17.39-8.874 17.39 26.553-7.583 37.735-27.13 37.735-27.13l-.01-.106c1.002-.205 1.707-.472 1.707-.472s17.814-5.053 26.002-22.468c8.18-17.428-6.616-34.32-11.175-36.51m-77.402 133.685c-2.243 4.215-4.985 8.148-8.187 11.692-5.452 6.03-12.175 10.82-19.54 14.266-7.643 3.577-16.358 6.182-24.87 6.515 1.518-1.617 3.038-3.225 4.534-4.828-8.372 1.453-17.05 1.687-25.434.04 1.03-.75 2.41-1.89 2.563-3.234-.58-.042-1.2-.322-1.734-.508-1.433-.506-2.83-1.114-4.19-1.78-5.026-2.447-9.657-5.697-13.892-9.34-7.407-6.378-13.658-14.056-18.896-22.288-3.17-4.968-5.724-10.312-9.235-15.052-3.012-4.064-6.512-7.755-10.358-11.034-6.028-5.14-12.895-9.23-20.134-12.394-11.676-5.106-23.267-10.62-34.24-17.133-3.085-1.827-6.104-3.77-9.07-5.802-6.29-4.364-12.417-9.247-17.628-14.853l-.35-.374c.144-.124 1.252-1.073 1.816-1.53.98-.788 2.003-1.52 3.045-2.217.98-.67 3.252-1.872 3.252-1.872l.03-.017v.027c-.03.32-.037.665-.013 1.052 0 0 1.14-1.234 2.19-1.814 0 0-1.71 2.67-1.904 4.662 0 0-.39 3.323 2.76 5.033 3.142 1.705 7.822 3.043 9.158 4.085 0 0 2.385-1.71 3.715-2.278 0 0-3.15 3.043-4.006 5.89 0 0 1.91-1.8 2.965-2.184 0 0 2.95 2.183 4.758 1.99 1.8-.185 4.383-.098 5.426-2.47 1.053-2.366.855-2.747 1.34-3.512 0 0-1.724 1.05-2.962 2.183 0 0 .58-2.367 2.962-4.183 2.374-1.79 3.528-2.082 3.528-2.082s5.626-7.422-.95-11.034c0 0 3.232-1.61 5.05-2.747 0 0-5.254 1.333-6.97 1.9 0 0-3.896-.764-5.994-.764-2.104 0-5.716-.28-7.337-.763-1.62-.473-3.242-1.042-3.242-1.042s.952-.565 1.716-.764c0 0-3.697-.274-5.88 3.185l-.035-.015c.007-.277.132-1.614 1.144-2.874 0 0-1.942.885-3.04 2.11l-.03-.01c-.722-.27-1.454-.498-2.19-.723-1.162-.346-2.352-.66-3.534-.94-.786-.178-1.584-.368-2.387-.52 6.194-4.08 13.046-7.133 20.093-9.51 2.352-.79 7.35-2.212 7.35-2.212 1.003.95 2.013 1.667 2.013 1.667-.004 0 3.35-.803 4.96-1.43 0 0-3.36 2.357-5.984 3.49 0 0 3.994-.133 5.365-.382l-.616 1.378s1.742 1.363 5.852.746c4.107-.62 6.73-1.496 6.73-3.612 0-2.113-.507-3.106.12-5.22 0 0-1.496.246-2.618 0-.002 0 2.372-1.366 3.24-2.852 0 0-.22-1.336-.868-2.662l-.006-.013c3.287-.354 6.602-.64 9.893-.833-.412-.484-.858-.94-1.33-1.37-3.31-3.043-7.947-4.994-12.107-6.324 8.28-1.107 16.65-1.433 24.974-1.72 4.77-.174 9.54-.288 14.297-.34-.998-.834-2.39-1.31-3.578-1.792 2.793-.317 5.716-.05 8.513.157-2.385-1.198-5.086-1.868-7.638-2.627-1.792-.523-3.605-1.028-5.408-1.498l.218.01.204.018.044.01c6.56.867 13.53 1.966 21.154 3.328 48.9 8.69 81.165 21.856 95.218 28.442 3.72 1.682 6.244 2.958 7.537 3.63 1.165.338 2.788.522 3.605-.666.153-.212.265-.437.35-.656l.005-.022.342.022c3.065-.186 6.06-.488 9.03-1.297.84-.228 1.662-.48 2.49-.76 1.685-.58 3.317-1.255 4.916-2-.08 0-2.718-3.413-3.032-3.754-2.373-2.654-5.037-5.075-7.966-7.132l1.24-.333c.417-.105.867-.17 1.29-.16-2.35-2.32-5.26-4.176-8.03-5.904-1.02-.66-2.076-1.278-3.116-1.88l-.9-.533-.638-.385c-1.2-.69-2.4-1.37-3.618-2.017 7.47 2.53 14.883 5.434 22.143 8.553l1.654.706c6.07 2.625 12.216 5.444 17.686 9.15 1.21.814 2.352 1.708 3.394 2.693l.12.102c2.147 1.62 3.628 4.042 4.58 6.525.454 1.203.792 2.47.96 3.747.06.43.227 4.703-.065 4.69l-1.17-.04c-3.115-.043-6.235.287-9.287.884-5.463 1.08-10.554 3.137-15.738 5.06-3.763 1.402-7.342 3.25-11.155 4.526-5.413 1.814-11.122 2.686-16.842 2.255-5.902-.442-11.668-2.125-16.64-5.35-3.772-2.45-7.008-5.623-9.758-9.143-1.963-2.515-3.68-5.215-5.134-8.06 7.5 2.7 13.4 5.13 17.657 7.017 3.757 1.594 6.317 2.804 7.616 3.445 1.165.316 2.793.46 3.594-.732 1.646-2.495-1.37-4.475-1.37-4.475s-37.15-18.08-105.23-25.54c-8-.874-15.41-1.495-22.243-1.918 6.718.722 13.972 1.658 21.805 2.875 11.96 1.85 22.94 4 32.913 6.265-1.093.144-2.165.345-3.234.628-2.053.544-4.01 1.378-5.844 2.478-3.396 2.057-6.137 5.045-8.22 8.383-4.214 6.755-6.202 15.103-6.494 22.982-.35 9.813 2.137 19.55 5.34 28.748 3.792 10.905 8.7 21.412 14.783 31.236 3.03 4.886 6.33 9.613 10.053 13.973 3.956 4.61 8.474 9.097 13.928 11.902 5.8 2.962 12.22 2.942 18.512 2 4.428-.67 8.722-2.427 12.934-3.873 9.894-3.373 20.256-7.006 30.885-5.862 3.51.378 7.243 1.098 10.4 2.743.48.24.417.258.156.776m-130.67-70.484c-2.167-2.24-4.282-2.984-5.552-1.74 0 0-.64-2.39-2.103-3.035-1.477-.647-2.475-.522-2.475-.522-.002 0-5.742 1.14-8.103 2.592.464-.297 4.262-2.747 5.61-3.612l-3.187.73s-3.354.012-6.47-.233c-3.107-.234-10.29-.978-11.618-.72-.002 0 .897-.612 1.433-.936-.145 0-2.5.02-4.057 1.277 0 0-4.778.494-5.697 3.7-.93 3.22 1.44 5.505 2.137 6.01 0 0 .96-1.505 2.9-2.454 0 0-1.105 1.782-1.064 3.265 0 0 4.077 2.15 12.21 3.273 8.143 1.123 7.55.522 10.414 2.296 0 0 3.02-2.133 4.693-2.636 0 0-2.35 3.333-2.57 4.578 0 0 3.78 3.214 6.897 3.448 3.126.25 5.8-.956 5.468-4.163l1.127-1.383-1.992.147.58-1.08s-.095-1.637-1.003-2.904c.158.08 1.713.924 3.192.52l-.434.815s1.7-.193 2.96-2.343l-1.03-.28c-.004 0-.087-2.367-2.264-4.61m-29.563-24.158c.883.69 4.262 2.76 4.948 3.443 0 0 2.276-1.48 4.06-1.868-.003 0-3.86 2.754-4.746 4.248 0 0 1.682-.886 2.872-.886-.003 0 3.063 1.87 5.035 1.87 1.978 0 5.732-.596 5.732-.596s2.18-1.47 4.564-1.674c0 0-2.486 1.674-3.076 2.472 0 0 .996-.105 1.593.3.588.382 2.57.774 4.35.094 1.78-.694 3.55-1.385 3.46-3.553-.104-2.172-1.38-4.736-1.38-4.736s2.33-1.943 3.617-2.552c-.31.042-2.84.423-4.417 1.072 0 0-1.968-3.95-4.057-5.23-2.084-1.273-4.16-1.477-6.433-.494-2.278.993-5.652 1.95-5.652 1.95s-3.113 1.488-3.53 2.08c.066-.14.63-1.31 1.466-1.96 0 0-2.86.008-4.954.1-2.073.098-4.344.302-4.647 2.266-.288 1.98.3 2.964 1.196 3.655" fill="#000"/><path d="M389.575 252.668c-.164-1.277-.506-2.548-.96-3.747-.955-2.482-2.436-4.907-4.582-6.524l-.118-.103c-1.047-.984-2.188-1.883-3.393-2.695-5.474-3.703-11.622-6.52-17.688-9.148l-1.655-.704c-7.266-3.118-14.673-6.027-22.144-8.55 1.213.644 2.422 1.326 3.618 2.013l.637.384.902.53c1.043.61 2.096 1.227 3.116 1.88 2.77 1.73 5.678 3.586 8.035 5.91-.426-.007-.876.048-1.295.153l-1.24.34c2.932 2.055 5.596 4.476 7.967 7.132.314.336 2.958 3.753 3.04 3.753-1.61.744-3.244 1.417-4.924 1.993-.822.284-1.65.538-2.49.765-2.968.815-5.968 1.117-9.024 1.296l-.342-.02-.013.02c-.074.22-.193.446-.348.66-.817 1.184-2.438 1.005-3.603.66-1.29-.67-3.82-1.945-7.538-3.62-14.053-6.592-46.318-19.758-95.216-28.452-7.627-1.358-14.593-2.46-21.155-3.322l-.046-.01-.2-.02-.223-.016c1.805.476 3.615.982 5.412 1.505 2.547.755 5.25 1.427 7.637 2.628-2.8-.212-5.72-.477-8.518-.16 1.198.48 2.578.958 3.583 1.792-4.757.054-9.525.166-14.293.34-8.333.285-16.7.616-24.98 1.718 4.16 1.328 8.797 3.284 12.107 6.33.476.427.92.884 1.33 1.37-3.29.19-6.605.48-9.896.83l.008.012c.652 1.328.87 2.665.87 2.665-.87 1.48-3.24 2.85-3.24 2.85 1.124.247 2.618 0 2.618 0-.63 2.113-.12 3.106-.12 5.217 0 2.122-2.627 2.995-6.732 3.612-4.11.617-5.852-.742-5.852-.742l.62-1.38c-1.372.247-5.37.385-5.37.385 2.624-1.135 5.988-3.49 5.988-3.49-1.606.63-4.963 1.427-4.963 1.427s-1.013-.72-2.01-1.67c0 0-4.995 1.423-7.354 2.217-7.045 2.377-13.893 5.422-20.093 9.508.807.153 1.6.34 2.387.525 1.187.275 2.376.588 3.54.938.732.227 1.465.458 2.186.72l.033.012c1.094-1.225 3.034-2.11 3.034-2.11-1.012 1.26-1.137 2.6-1.143 2.878l.03.013c2.19-3.463 5.882-3.185 5.882-3.185-.762.2-1.707.768-1.707.768-.003 0 1.614.564 3.24 1.036 1.62.484 5.233.768 7.335.768 2.096 0 5.995.76 5.995.76 1.713-.565 6.966-1.9 6.966-1.9-1.814 1.142-5.046 2.75-5.046 2.75 6.576 3.618.953 11.034.953 11.034s-1.154.29-3.53 2.085c-2.384 1.81-2.963 4.177-2.963 4.177 1.238-1.13 2.964-2.18 2.964-2.18-.49.767-.287 1.143-1.34 3.51-1.045 2.373-3.62 2.284-5.43 2.467-1.806.2-4.757-1.984-4.757-1.984-1.05.383-2.964 2.183-2.964 2.183.86-2.852 4.007-5.89 4.007-5.89-1.332.568-3.72 2.28-3.72 2.28-1.33-1.047-6.01-2.38-9.15-4.09-3.152-1.708-2.765-5.03-2.765-5.03.195-1.996 1.904-4.665 1.904-4.665-1.05.585-2.188 1.818-2.188 1.818-.028-.39-.02-.73.01-1.054v-.03l-.03.02s-2.272 1.206-3.247 1.876c-1.048.7-2.062 1.426-3.05 2.21-.56.463-1.667 1.412-1.81 1.537l.347.378c5.21 5.6 11.342 10.485 17.628 14.845 2.966 2.036 5.987 3.974 9.07 5.805 10.97 6.51 22.562 12.027 34.242 17.13 7.236 3.168 14.11 7.257 20.13 12.4 3.847 3.272 7.344 6.964 10.36 11.038 3.512 4.734 6.07 10.076 9.24 15.048 5.238 8.232 11.487 15.908 18.89 22.29 4.234 3.637 8.866 6.887 13.893 9.34 1.363.664 2.756 1.273 4.195 1.776.53.183 1.15.466 1.73.512-.157 1.338-1.537 2.482-2.56 3.23 8.378 1.65 17.06 1.416 25.433-.04-1.5 1.605-3.017 3.212-4.535 4.827 8.51-.33 17.228-2.93 24.874-6.517 7.357-3.44 14.082-8.23 19.537-14.264 3.202-3.54 5.94-7.477 8.185-11.69.263-.52.327-.534-.158-.762-3.155-1.647-6.896-2.37-10.4-2.75-10.633-1.14-20.99 2.492-30.89 5.865-4.212 1.44-8.5 3.203-12.93 3.872-6.29.945-12.718.963-18.515-2.006-5.448-2.797-9.968-7.288-13.924-11.894-3.728-4.36-7.028-9.085-10.054-13.98-6.088-9.818-10.988-20.327-14.784-31.234-3.203-9.194-5.69-18.926-5.338-28.746.288-7.88 2.28-16.23 6.49-22.977 2.085-3.346 4.827-6.332 8.23-8.386 1.824-1.098 3.785-1.932 5.835-2.478 1.068-.283 2.143-.484 3.236-.628-9.972-2.266-20.954-4.417-32.916-6.27-7.833-1.21-15.087-2.148-21.81-2.867 6.835.423 14.25 1.04 22.25 1.915 68.08 7.46 105.224 25.543 105.224 25.543s3.022 1.98 1.372 4.47c-.796 1.194-2.422 1.05-3.59.73-1.302-.637-3.86-1.85-7.615-3.44-4.256-1.887-10.156-4.315-17.66-7.014 1.452 2.84 3.175 5.538 5.138 8.06 2.747 3.516 5.986 6.69 9.753 9.14 4.974 3.23 10.743 4.91 16.64 5.348 5.72.43 11.434-.44 16.842-2.255 3.818-1.273 7.397-3.13 11.157-4.524 5.183-1.925 10.276-3.983 15.737-5.06 3.056-.6 6.172-.93 9.287-.89l1.175.046c.296.004.125-4.273.07-4.702zm-165.22 32.275c-1.258 2.15-2.963 2.345-2.963 2.345l.432-.816c-1.476.405-3.032-.44-3.186-.523.91 1.27 1 2.902 1 2.902l-.578 1.085 1.987-.15-1.123 1.384c.33 3.212-2.34 4.415-5.472 4.163-3.118-.234-6.894-3.45-6.894-3.45.22-1.244 2.574-4.573 2.574-4.573-1.674.5-4.698 2.636-4.698 2.636-2.86-1.777-2.27-1.175-10.415-2.302-8.133-1.117-12.207-3.266-12.207-3.266-.042-1.485 1.064-3.266 1.064-3.266-1.942.95-2.9 2.45-2.9 2.45-.69-.503-3.066-2.786-2.138-6.006.916-3.214 5.695-3.702 5.695-3.702 1.56-1.257 3.91-1.28 4.055-1.28-.533.32-1.435.935-1.435.935 1.332-.253 8.52.487 11.627.72 3.115.25 6.468.24 6.468.24l3.188-.736c-1.35.87-5.152 3.32-5.613 3.612 2.36-1.448 8.1-2.593 8.1-2.593s1.004-.124 2.474.525c1.462.648 2.105 3.037 2.105 3.037 1.27-1.245 3.386-.503 5.553 1.74 2.175 2.234 2.258 4.606 2.258 4.606l1.04.283zm-16.73-37.135c2.268-.98 4.345-.78 6.43.492 2.084 1.28 4.057 5.232 4.057 5.232 1.58-.65 4.107-1.032 4.42-1.067-1.29.604-3.62 2.548-3.62 2.548s1.278 2.564 1.383 4.736c.09 2.167-1.687 2.86-3.462 3.55-1.782.684-3.766.297-4.35-.094-.596-.405-1.594-.302-1.594-.302.59-.792 3.075-2.47 3.075-2.47-2.387.203-4.564 1.678-4.564 1.678s-3.75.595-5.732.595c-1.97 0-5.036-1.87-5.036-1.87-1.19 0-2.874.888-2.874.888.89-1.5 4.748-4.25 4.748-4.25-1.784.39-4.06 1.87-4.06 1.87-.688-.687-4.063-2.76-4.95-3.448-.885-.687-1.478-1.675-1.186-3.653.3-1.96 2.567-2.168 4.643-2.266 2.093-.09 4.956-.1 4.956-.1-.84.65-1.41 1.82-1.47 1.96.414-.59 3.532-2.083 3.532-2.083s3.374-.954 5.652-1.947z" fill="#FFF"/><path d="M413.204 210.008s-5.246 6.457-7.85 4.478c-2.612-1.99 1.366-4.65.526-9.816-.827-5.167-17.823-22.575-39.292-35.415 0 0 9.932 4.086 19.527 9.165 11.734 1.923 14.477-1.122 15.107-2.382-.356-.623-.788-1.26-1.295-1.912-.423-.286-1.044-.65-1.735-.914-1.354-.516-2.635-.735-3.54-1.18 0 0-2.06-2.075-2.742-3.08 0 0-.22.915.347 1.994 0 0-1.587-1.39-3.044-1.69-1.452-.303-3.212-.885-3.664-1.224l-1.34-1.124s.038.71.255 1.233c0 0-1.496-.11-1.753-1.677-.263-1.564.966-2.198.966-2.198s-.112-.448 0-1.002c0 0 1.34 1.48 1.98 1.864 0 0 .295-.945-.258-2.573l-.494-.286c-.496-.258-.98-.506-1.44-.713-.376-.178-22.495-12.675-32.974-17.923-.78-.074-1.843-.24-2.967-.614 0 0-1.753-.814-2.047-1.652 0 0-.12.433.134.904.443.805 1.387 1.66 1.67 2.77 0 0-1.756-1.03-3.184-1.768-1.26-.65-3.897-1.4-5.4-2.514-.314-.225-.54-.464-.715-.687l-.15-.207c-.16-.227-.245-.45-.313-.65l-.06-.257-.026-.114-.017-.28.01-.19.07.06.087.062.103.083c.616.534 1.285 1.133 2.075 1.343l.196.055-.073-.098-.08-.092-.203-.223c-.404-.445-.956-1.153-1.413-2.063-8.57-4.22-18.807-8.712-32.665-11.435-19.918-3.927-33.298-.617-33.298-.617s3.93.234 12.127 3.095c.518-.164 1.2-.444 1.81-.873 1.177-.844 1.942-1.01 2.447-1.01.506 0 2.684 2.594 2.684 2.594s-.24-2.004-.662-3.692c0 0 2.148-.184 2.968 0 1.203.277 2.192.678 2.616.678.417 0 .597-.5.597-.5s.746.49.746 1.088c0 0 1.695 1.173 1.695 2.277 0 1.085-.257 2.52 0 3.203 0 0-.424.243-1.104-.85 0 0-1.094.93-2.193.93-.51 0-.974.125-1.34.265 3.782 1.678 8.054 3.748 12.857 6.31l.956.682s.387-1.595.648-1.842c0 0 .498.44.594.7 0 0 .097-.7-.046-1.496 0 0 1.34-1.088 2.387-1.19 1.05-.105 1.457-.095 1.79-.3 0 0 .238-.834-.113-1.72 0 0 1.757 1.018 2.106 2.317 0 0 .156-.79.1-1.6 0 0 1.842-.3 3.193.056 1.344.35 2.24.807 2.542 1.295.3.5 1.137 2.165.672 2.524-.48.362-1.325.502-1.57.905-.245.39-.348.74-.703.988-.337.248-.787.31-.787.31s-.094 1.38.257 2.075c0 0-.72-.092-1.064-.934-.003 0 .16.785-.347 1.338-.493.545-.835.886-1.33 1.033 0 0-1.23-1.166-1.328-1.62 0 0 .134 2.75-.342 2.235 0 0-2.592-2.282-3.107-2.564 0 0-1.12.164-1.56.114-.455-.042-1.988-.637-2.293-1.142 0 0-.05.597.796 1.194 0 0-.77-.118-1.053-.256 0 0-.445.503-1.237.71 0 0 .792.896 1.147 1.235 0 0-1.573-.28-2.284-1.032 0 0-.905.046-1.903-.253-1-.298-1.604-.195-2.5-.055-.9.15-1.037.055-1.69-.1-.653-.14-2.44-1.145-2.44-1.145s.304.8.596 1.055c0 0-.147.65-1.6.245-1.443-.405-1.498-.845-2.24-1.302-.746-.435-1.246-1.087-1.092-1.636.148-.543.6-.947.6-.947s.44.404 1.235.754c0 0-1.34-1.69-1.492-2.29l1.053.197s.24-.942 2.337-1.386c.702-.15 1.3-.25 1.768-.32-5.77-1.793-13.826-4.04-23.138-5.9l-.395.537-.364.675c-.338.702-.593 1.417-1.143 1.874 0 0-4.33-1.346-5.718-2.033 0 0 2.19 1.787 3.712 2.6 0 0-1.312 2.173-5.884 1.657 0 0-2.118.92-3.785.744-1.65-.177-4.16-1.256-4.687-2.11-.51-.86-.45-2.624 1.323-3.66 0 0 2.428 1.476 3.626 2.152 0 0-2.137-2.654-1.966-3.507 0 0 .76-.63 1.668-1.175-1.058-.144-2.14-.277-3.22-.39-9.79-1.104-18.456-1.268-26.318-.824.62.893.5 1.728.994 2.617.6 1.094-.278 1.593-.278 1.593-.648-.534-3.375-1.69-3.375-1.69 1.037.98 1.914 2.342 1.914 2.342-.65.378-2.385.717-4.254.812-1.872.08-4.524 1.625-4.524 1.625-1.117-.335-2.063-1.46-3.004-2.328l-.465-.402-.13-.103-.068-.06-.093-.06.11.296.01.026.012.035.19.48c.13.306.276.627.445.925.472.905 1.038 1.76 1.608 2.6l.027.045.64 1.02.215.33.044.074.078.112.075.123.044.072.048.08c-.235-.3-.976-.44-1.336-.566l-.06-.018c-.62-.25-1.203-.574-1.77-.93l-.032-.02c-.26-.175-1.016-.866-1.318-.75l-.194.06-.12.04-.235.068-.304.077-.312.06-.44.084-.795.093h-.043c-.33.02-.702.03-1.072.01-1.91-.113-4.255-1.738-5.887-3.38-.59-.572-.777-1.21-.78-1.797-1.71.403-3.383.823-5.013 1.27-2.435.56-15.685 3.514-29.22 6.546.082.936-.313 1.94-.313 2.465 0 .943.755 1.648.755 1.648-1.55.124-4.287-.904-4.287-.904.774 1.102 3.01 2.372 3.01 2.372s-.32 1.225-1.35 1.645c-1.017.423-1.794.26-3.064.165-1.282-.084-2.385.51-4.005.597-1.62.082-3.6-.918-3.6-.918 1.785.164 3.116-1.04 3.116-1.04-2.292-.26-3.005-1.106-3.262-1.61-.19-.364-.755-.872-1.268-1.246-9.946 2.216-17.64 3.938-17.64 3.938-6.3.842-11.39 1.478-11.39 1.478-.31.388-.723 1.015-.183 1.195 0 0 1.038.34 2.34.433 1.232.083 2.606 0 2.606 0-.003 0-5.028 2.338-5.636 2.507-.612.173-1.402.954-1.402.954l-.042.04-.09.074-.052.044-.092.092c.353-.153.796-.3 1.206-.348.757-.107 1.657.593 1.657.593s.793.147 1.588-.15c.81-.292 2.48-.248 2.4-.228-.518.08-1.038.435-1.532.435.404 0 .95.273 1.27.5 1.482.998-.396 2.3-1.35 2.76-1.464-.163-2.375.413-2.375.413s1.888 0 1.798.547c-.103.546-.954.894-1.852 1.09-.895.2-1.6 1.097-1.6 1.097.402.047.756.437.756.437s-.953.105-1.095.21c-.152.09-.65 1.194-1.053 1.686-.39.495-1.786.845-1.786.845.642.352 2.69.592 2.69.592-1.128.405-2.45.477-2.908.497.32.2 3.443 2.172 3.557 2.25l.02.007 1.983.46c7.5 1.717 15.18 3.474 22.872 3.91 4.65.266 9.35-.426 13.908-1.233 2.802-.48 5.59-1.05 8.336-1.725-1.25 1.357-2.61 2.737-4.184 3.715l.228-.06c9.28-2.277 18.558-4.58 27.863-6.767 5.827-1.368 11.747-1.925 17.676-2.04.655-.417 1.488-.778 2.64-.822 2.144-.07 4.176.434 5.622.93 2.387.102 4.778.235 7.155.41-.887-1.505-2.232-2.93-3.85-3.636 2.14 0 4.275.053 6.415.138 11.975.438 24.036 1.317 35.82 3.6 2.9.56 5.81 1.195 8.705 1.89.033-.014.217-.074.36-.367.144-.328.074-1.05.74-1.192.675-.153 1.875.442 2.173.6.3.14 1.995 1.198 2.528 1.46.314.143.443.657.498 1.097 1.593.448 3.168.9 4.748 1.38l-.02-.02-.092-.06-.13-.093-.11-.083-.277-.197-.02-.01-.364-.24-.092-.065-.29-.2-.137-.08-.274-.184-.136-.08-.4-.245c4.885-3.525 11.746-2.752 11.746-2.752s1.573.208 2.72.6c0 0 1.576-.777 2.746-.647 1.165.118 3.273 1.21 3.468 1.88.187.668-.392 2.735-.774 3.57-.397.834-2.49 2.112-3.677 2.514l-.146-.258-.112-.165c-.24-.36-.667-.875-1.255-1.288l.046.194.064.196.037.177.046.153.167.724.09.604-.606.383c7.022 2.933 13.34 7 19.38 11.613 3.523 2.69 7.126 5.57 11.104 7.556l.728.34c.665.277 1.345.51 2.004.743 3.97 1.357 8.103.885 11.97-.528h.007l.218-.184c.262-.25.5-.5.71-.775l.596-.81v-.01l.29-.518c1.26-2.343 1.34-5.084.928-7.606l-.055-.35-.18-.937c-.227-.926-.477-1.8-.76-2.606-.28-.803-.564-1.524-.823-2.122l-.24-.557-.135-.256-.206-.43-.11-.207-.08-.177-.104-.186-.07-.118c1.04.87 1.948 1.71 2.775 2.568 2.477 2.273 6.554 6.466 9.068 11.48 3.796 7.55 5.19 12.52 5.19 13.908 0 1.39-3.19 1-5.587.796-2.385-.2-14.55.996-18.742 2.982h.022c2.78-.65 5.58-1.08 8.147-1.114 7.444-.092 17.864 2.054 20.978 4.817l.14.052s2.236 1.647 1.736 3.668c-.427 1.673-2.092 2.995-4.96 3.174 0 0-.11 1.868 1.03 3.642 1.135 1.76 3.534 3.92 3.534 3.92 3.475.523 6.935 1.21 10.376 1.96l.11.03c1.882.63 3.973.906 5.9 1.403 1.085.288 2.17.56 3.25.863 2.375.65 4.738 1.34 7.088 2.098 1.496.487 2.988.977 4.474 1.52.397.13 2.258 1.077 2.525.885.74-.527 4.897-3.42 8.17-4.05 3.595-.688 6.952-2.044 6.952-6.067-.348-4.207-3.68-8.57-7.316-11.48m-250.968-55.75s1.247.7 1.323 2.388c.07 1.684-.345 2.42.07 3.58.4 1.15-.28 1.956-1.898 2.9 0 0-1.635.343-3.263.21 0 0 1.223.605 1.76.677 0 0-1.76 1.488-4.273.878 0 0-3.043 1.825-5.358 1.492-2.305-.334-2.84-1.284-2.84-1.284s2.747-.494 4.708-.767c0 0-3.58-.822-4.74-1.49 0 0 .363-1.664 1.12-2.41.74-.754.566-.934.566-.934s-2.942-.693-4.03-1.094c0 0 3.464-.525 4.546-.927 0 0-.413-.83.947-1.914 1.36-1.082 2.51-2.163 3.05-2.777.55-.608 3.19-.672 4.68-.276 1.494.414 1.486.414 2.297.414.82 0 4.29-.334 4.29-.334s-.69 1.072-2.958 1.67m48.995-8.21c-.207 1.782-2.496 3.36-3.117 3.76-.61.41-1.757 1.222-2.093 2.37-.342 1.147-1.564 1.89-2.32 1.965-.74.06-1.752 1.143-1.752 1.143 1.064.256 2.558-.195 2.76-.258-.16.133-1.453 1.172-2.02 1.62-.607.47-2.638.942-3.382.865l-3.8-.053c-2.315-.078-4.957-.284-5.75-1.734-.756-1.376-1.078-1.42-1.107-1.42-1.63.742-5.02.71-5.02.71 3.262-1.35 6.053-4.396 6.053-4.396-1.756.742-3.75 1.044-3.75 1.044-.28-.474-.327-.97-.268-1.988.073-1.01 1.025-1.553 1.025-1.553s.06-.54.74-1.423c.684-.873 2.985-2.09 4.273-2.165 1.297-.068 2.912-.738 3.803-1.344.877-.61 3.993-1.892 5.553-1.765 1.56.138 2.18.405 2.18.405.878-.06 2.84-.405 2.84-.405-2.572 2.032-4.205 2.774-4.205 2.774 2.982-.34 5.565-1.553 5.565-1.553 3.047.205 3.997 1.625 3.79 3.403m38.784-2.61c-.134.965-.823 3.448-2.14 4.004-1.318.543-1.673.646-1.673.646v2.872s-1.963-1.747-2.37-2.31c0 0-.528.027-1.91-.183-1.387-.204-3.052 2.14-5.612 1.938 0 0-4.21-.895-4.902-2.623-.69-1.724-.42-3.172-.136-3.66-.002 0 1.448 1.868 2.48 2.415 0 0-.962-2.205-.962-3.587 0 0 .827-.615.96-1.243.146-.62 1.74-1.586 2.71-1.793.966-.202 1.916.21 1.916.21s1.137 2.576 1.966 3.543c0 0-.35-5.057.062-6.85 0 0 1.055 2.327 1.61 3.086 0 0 1.157-.122 2.822-.4 1.66-.275 3.105-.133 4.077.825.973.97 1.25 2.142 1.104 3.11m37.23 2.982c-1.115.92-2.477 1.455-2.477 1.455s.162 1.14.818 1.8c0 0-1.253-.116-2.297-.71 0 0-.93 1.04-1.036 1.474-.107.43-1.474 2.172-2.288 2.77-.82.594-2.512 1.246-2.512 1.246s1.505 2.157 2.76 3.034c-.323-.134-4.527-1.964-6.25-3.74 0 0-.16 1.312.266 1.96 0 0-2.06.93-4.412.378-2.21-.512-4.414-2.085-4.667-2.275.258.045 2.305.425 3.628.425 0 0-2.997-1.465-3.543-2.938-.55-1.46-.382-3.15 1.26-3.91 1.632-.764 3.045-.648 3.045-.648s3.93 1.838 6.213 2.385c0 0-2.986-1.953-3.756-3.21 0 0 2.126.06 2.725-.318.597-.387 1.03-1.356 2.18-1.746 1.144-.377 2.344-.49 2.344-.49s-1.088-.6-1.362-.926c0 0 2.238.595 2.95.595 0 0 1.965.11 2.827.224.88.105 2.515-.44 3.88-.01 1.367.45.82 2.25-.296 3.173m28.308 6.8s-1.375-.342-1.91-.524c.103.15.917 1.326 1.114 1.967 0 0-1.253.822-2.212 1.037-.958.223-1.233.48-1.757 1.07-.527.6-1.856 1.323-3.18 1.126-1.268-.186-3.8-.93-4.01-.982.138.138 1.264 1.234 1.766 2.103 0 0-1.45.722-3.84 1.06-.002 0-2.174 0-3.102-.266-.934-.267-1.783-.737-1.855-1.32-.066-.594.467-1.255.467-1.255s1.91.73 3.04.925c0 0-2.84-2.635-3.843-3.37 0 0 1.99.33 3.18.735 0 0-.138-.735-.6-1.52-.462-.784.407-1.578.8-1.78.395-.2 2.247-.92 2.714-1.244 0 0-1.187-.99-2.523-1.72 0 0 2.583.268 3.904.657 0 0 1.067.072 2.19-.39 1.126-.468 1.52-.468 2.446-.332.922.136 1.034.396 1.642.453.607.07 1.204.013 1.204.013s-.4-.535-1.39-.93c0 0 2.123.27 3.108.93 0 0 1.716.297 2.708 1.26 1 .966-.06 2.296-.06 2.296m14.468 11.94s1.74 1.576 2.19 2.43c0 0-.895.732-1.178 1.255-.283.515-1.06 1.71-1.924 2.042 0 0-.922 1.184-1.91 1.258-.99.057-1.67-.164-2.325-.2-.656-.03-3.306 0-5.288-1.977 0 0 2.833.396 3.57.396 0 0-2.52-1.85-3.045-2.637 0 0 .732-.466.658-1.126-.06-.66-.26-1.256.406-1.973 0 0 2.315.792 3.703.986 0 0-1.52-1.527-3.043-2.77 0 0 .944-.093 2.058.347 0 0 .46-.092 1.516-.943 1.05-.853 3.11-.63 4.297.155 1.187.77 2.317 2.355 2.317 2.355s1.393.722 2.31 2.233c0 .003-2.405-1.564-4.312-1.83m11.065-13.53c-.072.916-.732 1.65-1.86 1.783-1.126.123-1.786-.332-2.177.198-.397.525-.994 1.05-1.595 1.176 0 0-3.83-2.362-5.496-3.222 0 0 1.4 1.774 1.73 2.505 0 0-2.314.2-3.91-.46-1.583-.662-2.654-1.216-3.762-1.7-1.13-.476-2.312-2.06-2.312-2.06s1.85.856 2.84 1.13c0 0-1.658-1.856-1.72-2.444 0 0 1.25-.33 1.848-1.06.56-.68 2.2-1.124 3.444-1.183h.265c1.26 0 4.37 1.648 5.884 2.768 0 0-1.32-1.84-2.31-2.768 0 0 2.374 0 2.973-.194.596-.208 1.98-.344 2.977.124.926.43 1.455 1.387 1.514 1.512-.13-.055-1.108-.468-1.848-.65 0 0 0 .792 1.587 1.916 1.6 1.103 1.985 1.702 1.928 2.63m13.696 16.553s-1.59-.658-2.983-.658c0 0-.623.94-2.095.63-1.477-.297-2.923-1.422-2.923-1.422s1.324.06 2.373.06c0 0-.465-.52-1.718-.786-1.255-.26-2-.477-2.887-1.166 0 0-.22.698.373 1.166 0 0-1.978.52-2.314-1.457-.33-1.975-1.46-1.84-.66-3.294.78-1.426 2.426-1.437 2.477-1.437 0 0-1.413-.867-2.344-1.396 0 0 3.24.858 5.75 2.37 0 0-.197-.985-.792-1.512 0 0 1.727-.528 3.647.794 1.906 1.32 1.977 2.5 3.438 3.49 1.455.985.586 2.51-.075 2.9 0 0 .46 1.19.733 1.72m10.728-8.946l-2.916-2.55s1.056 2.49 1.222 3.025c0 0-2.038.07-3.137-.778-1.113-.853-2.7-1.866-2.282-1.866l.908.094s-1.26-1.514-3.42-1.638c0 0-1.315.304-2.82-.464-1.51-.772-2.14-1.56-2.14-1.56s-.826-.908-.976-2.085c0 0 1.475 1.03 2.203 1.32 0 0-1.312-1.85-1.312-2.958 0 0 .935-.184 2.096.258 1.184.446 1.51.094 1.51.094s-.516-.663-.712-1.328c0 0 1.49 1.233 2.122 1.513 0 0 1.834-.566 3.234.033 1.39.597 2.97 2.142 3.22 2.426.234.273 1.173.973 1.298 1.063-.1-.13-.832-1.105-1.034-1.872.115.072 1.038.667 1.453.87.437.228 1.286 1.114 1.452 1.678.154.574-.768 1.488-.768 1.488s1.208 1.545 1.208 2.17l-.41 1.068m2.293 3.35c.852-.218 1.27-.218 1.603-.185 0 0 .04-.517-.373-.972 0 0 2.426 1.452 3.548 2.618l-.3-1.052s1.94.488 2.843 1.35c.9.857 1.34 1.822 1.602 2.266.264.453.977 1.947.68 2.39-.302.45-.743.45-.743.45s-2.7-1.604-3.41-1.945c0 0 1.35 2.087 1.537 2.577 0 0-2.32-.344-2.925-1.158 0 0-2.608-.632-3.552-1.262-.926-.636-1.685-1.605-1.685-2.133 0 0 1.505.71 2.256 1.047 0 0-2.027-2.43-2.657-3.014.005 0 .707-.75 1.578-.978" fill="#D7A22A"/><path d="M370.963 210.69c-1.843 3.782-11.596-1.295-22.07-2.233-10.46-.936-24.546 3.115-24.546 3.115l.337-.276c1-.737 2.098-1.336 3.21-1.888.926-.463 1.868-.9 2.81-1.314 3.332-1.43 6.807-2.573 10.338-3.408h.02c2.784-.648 5.58-1.077 8.148-1.112 7.45-.087 17.865 2.048 20.978 4.817.83.738 1.152 1.513.775 2.3" fill="#000"/><path d="M367.11 215.288s-.105 1.87 1.03 3.645c1.14 1.754 3.534 3.918 3.534 3.918l-2.043-.293c-2.742-.393-5.5-.706-8.253-.95-1.273-.12-2.54-.21-3.82-.288-.24-.023-4.597-.22-5.093-.23-4.417-.112-8.868.072-13.268.072h-.22c-1.474-1.984-7.01-9.872-14.63-9.59 0 0 14.087-4.054 24.546-3.12 10.47.943 20.228 6.02 22.07 2.24.383-.79.058-1.564-.77-2.3l.137.05s2.237 1.647 1.734 3.668c-.423 1.68-2.086 3.008-4.954 3.178" fill="#9F792C"/><path d="M363.814 243.293c-1.61.74-3.238 1.415-4.923 1.993-.822.282-1.645.533-2.487.763-2.97.808-5.964 1.11-9.027 1.294l-.34-.02.07-.227.072-.405c.185-1.826-1.775-3.183-1.775-3.183l-.065-.038-.17-.08-.076-.03c-1.264-.594-2.54-1.174-3.83-1.75-2.226-1-4.464-1.953-6.724-2.87l-1.3-.526-.96-.392c-5.193-2.05-10.46-3.913-15.782-5.617-3.21-1.035-6.43-1.998-9.66-2.916l-1.55-.437c-5.435-1.562-11.4-3.14-17.88-4.696-4.252-3.982-8.445-7.974-12.94-11.634 29.9 7.932 50.365 16.693 60.766 21.698 3.7 1.72 6.222 3.013 7.5 3.707 1.155.35 2.78.542 3.61-.626 1.725-2.43-1.224-4.516-1.224-4.516s-26.222-13.823-75.44-23.916c-4.856-3.432-9.99-6.31-15.04-9.415-1.74-1.065-3.538-2.192-5.036-3.598-.762-.707-1.58-1.606-1.683-2.695v-.632l.01-.035.063-.403.03-.125.032-.094.114-.338.08-.194c.44-1.026 1.238-1.967 2.038-2.625l.352-.31.243-.21.318-.266.343-.284.022-.007.125-.11.073-.06.017-.024.097-.08.048-.034.053-.007h.007l.013-.007.305-.075.45-.114c2.1-.522 4.333-1.056 6.593-1.42.757-.122 1.514-.216 2.27-.3.81 2.64 4.43 6.537 4.43 6.537-1.717.126-3.914-.484-3.914-.484 3.182 4.26 11.985 9.618 18.828 10.96 6.852 1.333 13.077 1.09 13.077 1.09-.97.493-2.563 1.105-2.563 1.105s2.686-.128 6.35.598c.476.1.99.224 1.547.372 2.44.624 5.44 1.628 7.2 2.245l.57.2.03.007.02.01c.554.358 1.078.708 1.596 1.07 3.054 2.03 5.966 4.282 8.74 6.67.81.685 1.596 1.39 2.377 2.094 1.255 1.155 2.39 2.402 3.63 3.56-.104-.088-.126-.565-.167-.705l-.28-.804-.668-1.665c-.463-1.1-.99-2.182-1.56-3.228-1.145-2.11-2.46-4.132-3.89-6.063-.806-1.082-1.65-2.154-2.53-3.193-.64-.74-1.31-1.46-1.98-2.192-.53-.588-1.186-1.645-1.976-1.905l-.024-.01-.046-.02c.654.02 1.263.074 1.85.146l.57.068.748.13c.647.104 1.244.263 1.81.443l.63.203.597.226c.397.153.765.326 1.116.503l.52.268.48.284.466.302.427.31.25.184.483.392.52.47.278.272c.746.752 1.317 1.53 1.77 2.26l.227.42c.557.988.87 1.854 1.038 2.4l.06.222.107.41c7.618-.283 13.15 7.603 14.632 9.585h.066l-.055.012.042.022c1.222.647 2.424 1.325 3.62 2.017l.64.386.898.53c1.042.61 2.093 1.224 3.118 1.882 2.77 1.73 5.675 3.584 8.036 5.905-.43-.01-.878.05-1.295.155l-1.243.337c2.932 2.058 5.598 4.48 7.97 7.13.302.35 2.946 3.768 3.027 3.768" fill="#D7A22A"/><path d="M330.628 332.558l-4.82-3.124-.63-6.914c-.004 0 6.83 4.453 5.45 10.038m-16.3-15.166s-3.84 14.906-21.746 24.502c0 0-13.65-4.613-21.118-21.717-6.032-13.82-.28-39.712-8.364-54.357-5.356-9.73-14.85-11.994-14.85-11.994s5.913-3.373 18.222.592c20.263 6.53 22.472 32.95 22.797 38.376.633 10.66 2.478 24.44 9.513 28.177 0 0-4.147-5.713-4.268-19.205-.368-40.13-14.3-45.8-14.3-45.8s17.008 2.783 21.585 17.13c4.568 14.372-2.793 36.378 12.528 44.297m89.024-80.795c-.6 5.364-8.974 13.114-8.974 13.114-1.2-2.972-5.678-10.125-5.678-10.125s1.2-2.988-3.296-6.87c-4.482-3.873-16.754-3.873-16.754-3.873s3.31-1.872 7.48-1.494c10.968 1 27.222 9.25 27.222 9.25" fill="#006778"/><path d="M128.97 153.927c.144.225.043.48-.113.606l-.055.03c-.107.064-.41.097-.78.125-.547-.06-1.85-.326-2.416-.234l.62.534c-.002 0-1.417.555-1.74 1.133 0 0-1.173-.122-2.02.178-.496.164-.713.387-.972.554l-.577.216-.156.02c-.793.052-1.434-.35-1.434-.35l.29.593s-2.282 0-2.79.773c-1.85-.928-3.723-1.796-5.625-2.632-1.785-.773-3.59-1.51-5.412-2.215-3.66-1.408-7.394-2.673-11.152-3.8-1.117-.336-2.232-.658-3.357-.958-.826-.223-1.662-.448-2.496-.634h.06c1.524 0 3.038-.04 4.563-.13 10.277-.638 20.572-.397 30.856-.94 1.87-.105 3.747-.22 5.614-.356-.31.385-.72 1.015-.182 1.196-.002 0 1.04.34 2.34.43 1.232.087 2.604 0 2.604 0s-5.03 2.342-5.634 2.508c-.612.172-1.4.955-1.4.955l-.043.035-.09.08-.053.043-.092.09-.63.292c-.246.153-1.2.204-1.2.204s1.143.482 1.635.39l.02.044c.015.085.063.396.535.606.414.182 1.013.372 1.28.617m43.502 25.727l-.817.424c-1.777 1.1-3.598 2.13-5.494 3.013l-.084.047c-.63.295-1.262.586-1.904.86l-.038.02-.052.023c-1.725.755-3.49 1.43-5.247 2.06-1.382.49-2.788.94-4.212 1.335-10.087 2.936-16.235 2.866-16.235 2.866.685.31 1.602.587 2.44.77 3.037.683 10.304 1.318 10.644 1.43l-.235.126-.173.085c-7.557 3.193-15.708 4.62-23.907 4.293-14.944-.62-22.962-4.764-23.236-5.073 0 0 4.194-.67 6.63-1.48 0 0-11.103-3.647-15.296-6.34l5.964.125c-1.626-1.282-3.11-2.566-4.485-3.763-7.91-6.858-13.147-15.81-12.188-19.84-3.072-4.106-7.447-5.178-7.447-5.178 13.312-1.225 25.636 3.865 38.652 11.976 5.452 3.395 9.638 7.287 14.51 10.378-3.213.53-10.265.945-23.616-1.39 0 0 7.725 4.9 22.334 6.723 8.895 1.095 17.577.863 23.547.438 6.94-.494 13.496-1.37 19.945-3.924m264.095 63.234c-.156 1.698-.498 3.502-1.064 5.41-.6 1.982-1.044 4.147-3.438 4.276-1.73.094-3.458-.09-5.195-.194-1.003-.064-3.022-.372-3.592.757-1.71 3.39 5.046 3.21 6.804 3.276h.776c-7.15 7.858-18.707 9.934-19.425 10.065l-.043.01-.32-.443c-1.854-2.358-7.515-7.21-19.04-8.485l-.084-.013c.568-.82 1.2-1.624 1.874-2.41 4.79-5.468 12.27-10.057 20.42-14 11.372-5.496 15.7-16.296 15.7-16.296s1.56 1.32 3.18 3.823c-.497 1.44-1.717 3.642-4.734 5.814 0 0-2.04 1.214-1.3 2.62.734 1.427 2.344.944 3.17.475.552-.306 2.116-1.3 3.376-3.436.572-.855.975-1.62 1.214-2.2.75 1.712 1.352 3.738 1.637 6.04.028.28-.907 1.03-1.083 1.2-.642.62-1.345 1.16-2.086 1.65-2.053 1.382-4.293 2.248-6.577 3.178-.805.33-2.082 1.11-2.25 2.032-.278 1.507 1.796 1.826 2.862 1.665l.27-.043c1.553-.278 6.304-1.415 8.95-4.77m-93.127 100.644c-3.623.26-6.162-2.502-6.162-2.502-9.17-1.242-19.602.69-19.602.69s-5.38 5.665-13.002 6.645c-7.623.97-7.537-2.444-7.122-3.38.41-.958 3.97-2.682 10.46-9.41 6.494-6.734 12.124-20.508 12.124-20.508 1.525 4.475 2.137 9.277 1.65 13.99-.136 1.368-.373 2.73-.702 4.065-.547 2.175-1.304 4.235-2.302 6.24 1.246-2.5 3.993-4.538 6.367-5.938.828.985 1.512 2.072 2.186 3.165.12.22 1.32 1.866 1.195 2.096 1.188-2.2 7.145-6.208 7.145-6.208 1.434 1.4 2.602 4.233 2.602 4.233 4.897-3.588 15.76-20.92 15.76-20.92.566 13.353-6.973 27.493-10.597 27.743m62.876-70.362c-.875 3.9-14.39 18.25-21.476 20.905 0 0 6.052-9.675 7.94-19.64-1.704 1.432-4.344 3.322-7.297 4.282 0 0 .212-4.878-1.078-7.21 0 0-3.737 3.773-7.93 6.368 0 0-2.61-4.176-3.26-7.26-3.024 4.587-7.99 10.96-13.994 14.052 0 0 .33-4.222-.73-10.22 5.644-1.363 10.76-3 14.634-4.35 2.606-1.458 7.03-2.858 8.087-2.943.14-.02 3.703-.76 3.33 1.833 0 0 4.425-3.397 8-2.192 1.182.41 1.816 1.02 2.148 1.706 1.753-1.123 4.893-2.788 7.442-2.203 3.754.846 5.04 2.966 4.184 6.87m-48.12 1.35c-.135.398-.36 1.017-.66 1.768-2.838 5.077-12.104 19.22-29.743 24.154 0 0 10.886-11.03 9.677-23.248 6.892.08 14.16-1.11 20.726-2.675" fill="#FFF"/><path d="M365.508 159.236l-2.916-2.55s1.056 2.493 1.222 3.025c0 0-2.034.07-3.137-.78-1.108-.85-2.7-1.864-2.282-1.864l.908.094s-1.26-1.512-3.42-1.638c0 0-1.315.3-2.824-.464-1.506-.772-2.136-1.558-2.136-1.558s-.827-.91-.977-2.087c0 0 1.475 1.035 2.203 1.32 0 0-1.312-1.855-1.312-2.958 0 0 .935-.18 2.1.258 1.183.444 1.505.094 1.505.094s-.515-.66-.71-1.328c0 0 1.49 1.233 2.12 1.513 0 0 1.838-.566 3.235.03 1.393.6 2.967 2.142 3.22 2.43.234.27 1.173.972 1.296 1.058-.103-.124-.832-1.1-1.036-1.868.12.073 1.04.666 1.457.87.437.23 1.29 1.115 1.452 1.68.154.572-.768 1.486-.768 1.486s1.208 1.543 1.208 2.17c0 .624-.41 1.068-.41 1.068m11.897 9.758c-.3.455-.746.455-.746.455s-2.698-1.606-3.41-1.943c0 0 1.355 2.085 1.54 2.575 0 0-2.324-.344-2.923-1.15 0 0-2.61-.642-3.553-1.272-.925-.634-1.687-1.603-1.687-2.13l2.254 1.05s-2.022-2.433-2.652-3.015c0 0 .693-.755 1.57-.982.852-.215 1.267-.215 1.6-.184 0 0 .042-.517-.368-.97 0 0 2.424 1.45 3.545 2.616l-.298-1.052s1.94.488 2.84 1.348c.894.857 1.344 1.828 1.605 2.268.27.457.983 1.945.683 2.384m-31.062 68.312c-.84 1.172-2.464.975-3.616.625-1.277-.683-3.798-1.983-7.495-3.704-10.407-5.005-30.876-13.76-60.77-21.698-10.287-2.73-21.666-5.364-34.146-7.71-7.8-1.462-15.02-2.65-21.708-3.59 6.823.653 14.2 1.506 22.17 2.637 10.377 1.483 19.998 3.185 28.89 5.003 49.233 10.098 75.448 23.92 75.448 23.92s2.953 2.087 1.227 4.518m-57.53-59.18s-1.446-.924-2.262-1.15c.167.165 1.817 1.858.894 2.07 0 0-.83-.958-2.33-1.628-1.5-.67-4.253-2.016-5.08-2.76-.77-.698-1.277-2.183-1.327-2.365.09.118.548.724.963.8.412.07 1.626.86 1.784.96-.05-.128-.476-1.147-.968-1.556-.518-.458-1.79-1.05-2.462-1.87l.742-.222s.21-1.46-.123-2.902l-.03-.156c-.374-1.494-.2-2.356.173-2.66 0 0 2.51.088 3.256.355-.272-.123-1.398-.694-2.14-1.278.03-.013.215-.07.36-.363.145-.325.073-1.047.742-1.19.67-.154 1.874.443 2.17.596.303.142 1.994 1.203 2.53 1.46.313.148.445.662.493 1.1 1.596.448 3.173.9 4.753 1.38l.09.072.017.01.057.042c-.94-.227-2.88-.494-3.79-.614-.27.264-.868.862-1.118 1.172 0 0-.544.71-.864 2.53-.103.59.226 1.937.825 2.462.592.516 2.47 2.233 2.764 3.045.306.83-.238 2.107-.117 2.662m-1.567-31.71c-1.117.917-2.48 1.45-2.48 1.45s.163 1.145.815 1.807c0 0-1.25-.113-2.292-.71 0 0-.93 1.04-1.036 1.47-.112.43-1.476 2.174-2.288 2.773-.82.595-2.512 1.245-2.512 1.245s1.505 2.157 2.76 3.038c-.323-.135-4.527-1.97-6.25-3.745 0 0-.16 1.313.27 1.96 0 0-2.064.928-4.416.383-2.203-.514-4.414-2.09-4.667-2.277.258.045 2.303.423 3.628.423 0 0-3-1.463-3.543-2.935-.55-1.462-.384-3.15 1.26-3.91 1.632-.767 3.045-.65 3.045-.65s3.932 1.84 6.21 2.387c0 0-2.983-1.957-3.755-3.21 0 0 2.13.06 2.732-.32.59-.38 1.024-1.354 2.176-1.742 1.143-.378 2.343-.49 2.343-.49s-1.088-.597-1.362-.927c0 0 2.242.595 2.95.595 0 0 1.965.113 2.83.226.875.107 2.514-.44 3.876-.013 1.372.45.82 2.25-.294 3.174m21.27 21.427c-.395.833-2.49 2.11-3.673 2.513l-.15-.258-.11-.165c-.236-.36-.662-.875-1.26-1.288l.052.194.062.196.043.177.044.153.163.724.094.604-.607.383c-.493.34-1.213.873-1.87 1.525-.515.49-.993 1.047-1.32 1.642-1.04 1.914-.96 3.367-.96 3.367s-.898-.378-1.71-1.003c0 0 .412 1.724 1.878 2.46 0 0 .833 1.1.477 1.932 0 0-2.57-.208-3.173-.692-.6-.496-2.505-1.18-2.505-1.18s.637-.104 1.315-.06c0 0-.682-1.68-1.347-2.242-.66-.56-2-1.58-1.696-2.87 0 0 1.57.11 2.323.41 0 0-2.472-2.143-3.99-2.482l2.073-.114s-.288-1.46 2.352-2.74c2.65-1.278 3.46-2.09 4.02-2.912.548-.83.772-1.67 1.465-2.16 0 0 1.293.73 2.308 1.5 0 0-.583-1.742-2.453-3.015 0 0 1.574.208 2.72.6 0 0 1.574-.777 2.742-.648 1.17.118 3.275 1.212 3.477 1.88.177.666-.402 2.733-.784 3.57m7.032-14.63s-1.37-.336-1.907-.522c.105.15.923 1.328 1.116 1.967 0 0-1.253.822-2.216 1.037-.96.223-1.23.485-1.753 1.067-.527.604-1.86 1.32-3.18 1.13-1.272-.185-3.8-.93-4.01-.98.136.134 1.264 1.233 1.766 2.1 0 0-1.448.718-3.84 1.06-.002 0-2.174 0-3.102-.27-.932-.264-1.783-.732-1.855-1.318-.066-.593.463-1.254.463-1.254s1.915.73 3.045.925c0 0-2.844-2.635-3.844-3.37 0 0 1.99.33 3.18.735 0 0-.138-.735-.596-1.52-.466-.784.4-1.578.794-1.784.4-.196 2.25-.916 2.716-1.24 0 0-1.187-.99-2.523-1.72 0 0 2.583.265 3.906.655 0 0 1.065.076 2.19-.39 1.128-.463 1.518-.463 2.45-.33.916.136 1.03.396 1.636.45.61.073 1.204.014 1.204.014s-.4-.534-1.39-.928c0 0 2.123.27 3.108.927 0 0 1.714.3 2.708 1.27 1 .96-.064 2.29-.064 2.29m38.5 13.246s.46 1.188.733 1.718c0 0-1.59-.658-2.983-.658 0 0-.62.94-2.095.628-1.477-.295-2.923-1.418-2.923-1.418s1.324.057 2.373.057c0 0-.465-.52-1.718-.786-1.255-.26-2-.477-2.887-1.166 0 0-.22.698.373 1.166 0 0-1.983.518-2.314-1.457-.33-1.975-1.46-1.84-.658-3.296.78-1.423 2.424-1.434 2.475-1.434 0 0-1.413-.867-2.344-1.396 0 0 3.24.86 5.75 2.37 0 0-.197-.987-.792-1.51 0 0 1.727-.53 3.642.792 1.91 1.32 1.984 2.5 3.445 3.49 1.45.985.58 2.512-.077 2.9m-21.838 1.124s-.888.735-1.182 1.26c-.28.51-1.05 1.704-1.92 2.034 0 0-.922 1.186-1.907 1.26-.997.055-1.666-.164-2.327-.2-.656-.03-3.306 0-5.288-1.98 0 0 2.837.397 3.57.397 0 0-2.52-1.846-3.045-2.634 0 0 .73-.465.662-1.126-.06-.66-.27-1.254.402-1.973 0 0 2.315.792 3.7.984 0 0-1.513-1.525-3.042-2.77 0 0 .946-.09 2.06.35 0 0 .455-.093 1.516-.942 1.05-.855 3.112-.632 4.292.15 1.192.775 2.317 2.36 2.317 2.36s1.398.72 2.32 2.232c0 0-2.41-1.568-4.317-1.835 0 .005 1.74 1.577 2.19 2.433m8.875-15.958c-.068.916-.737 1.65-1.86 1.783-1.126.123-1.784-.332-2.177.2-.397.523-.99 1.048-1.595 1.174 0 0-3.83-2.362-5.494-3.222 0 0 1.397 1.774 1.726 2.505 0 0-2.313.2-3.904-.457-1.592-.665-2.657-1.22-3.77-1.704-1.127-.475-2.31-2.06-2.31-2.06s1.852.857 2.842 1.13c0 0-1.66-1.857-1.716-2.443 0 0 1.244-.33 1.845-1.06.556-.68 2.2-1.124 3.44-1.18h.266c1.26 0 4.37 1.645 5.884 2.765 0 0-1.317-1.838-2.308-2.765 0 0 2.378 0 2.97-.197.597-.208 1.984-.344 2.98.124.924.43 1.453 1.387 1.508 1.514-.123-.057-1.102-.47-1.846-.652 0 0 0 .792 1.593 1.916 1.592 1.105 1.985 1.702 1.925 2.63M218.91 255.01s1.275 2.565 1.38 4.737c.09 2.168-1.682 2.86-3.46 3.55-1.78.683-3.765.296-4.353-.09-.594-.406-1.59-.3-1.59-.3.592-.8 3.076-2.473 3.076-2.473-2.388.203-4.566 1.673-4.566 1.673s-3.752.6-5.73.6c-1.976 0-5.037-1.873-5.037-1.873-1.19 0-2.872.886-2.872.886.886-1.494 4.746-4.248 4.746-4.248-1.782.392-4.06 1.868-4.06 1.868-.686-.687-4.065-2.754-4.947-3.443-.89-.69-1.483-1.682-1.19-3.655.3-1.964 2.568-2.168 4.64-2.266 2.097-.092 4.958-.1 4.958-.1-.838.653-1.402 1.82-1.464 1.963.414-.596 3.527-2.085 3.527-2.085s3.377-.956 5.655-1.95c2.27-.982 4.346-.778 6.43.495 2.087 1.28 4.058 5.23 4.058 5.23 1.58-.652 4.11-1.03 4.418-1.072-1.287.61-3.618 2.553-3.618 2.553m-48.446-50.98c-.805.524-.875 1.08-1.498 1.872-.628.807-4.45.976-4.45.976-2.313-.792-5.334-.792-5.334-.792 1.514.435 3.56 1.06 3.56 1.06s-2.142.353-3.915.18c-1.78-.18-2.76-2.135-3.726-3.463-.984-1.325.174-3.364.174-3.364-.537-.362-1.158-.533-1.158-.533 1.953-.175 5.6.088 5.6.088-1.684-.532-3.592-.9-3.592-.9s.217-.96.656-1.942c.445-.967 2.584-.706 3.473-.617.886.09 2.043-.978 2.683-1.185.64-.214 2.65.484 3.717.836 1.062.35 1.156 1.153 1.156 1.153-.98-.095-2.408.174-2.408.174l3.467.97s2.318 1.15 2.665 2.307c.362 1.154-.252 2.665-1.07 3.18m20.872 31.07c-.625 2.114-.123 3.107-.123 5.218 0 2.122-2.62 2.995-6.725 3.61-4.11.614-5.853-.74-5.853-.74l.617-1.38c-1.376.247-5.365.385-5.365.385 2.617-1.134 5.985-3.492 5.985-3.492-1.608.63-4.963 1.43-4.963 1.43s-1.012-.718-2.014-1.67c-.7-.645-1.396-1.406-1.745-2.117-.875-1.74.617-4.35 1.238-5.342.63-.994-.495-1.61-.495-1.61.998-.753 1.742-1.99 1.742-1.99l-.048.014c-2.224.485-4.304.606-4.304.606l-.01-.01c-1.238-.986-1.737-3.097-1.49-4.22.25-1.11.743-2.862.743-2.862h-.045c-.412.046-.862.013-1.288-.048-.724-.09-1.35-.267-1.518-.31l-.006-.01c4.722-.62 7.087-2.353 7.087-2.353l-.058.008c-1.253.232-3.42.36-3.42.36v-.014c.02-.13.175-1.386 1.114-2.012.35-.236 1.082-.236 1.964-.11.49.067 1.033.167 1.578.307l.776.197c.948.25 1.856.534 2.504.746l.044.015c1.867.626 2.75 3.105 2.75 3.105.5 1.607 1.296 2.773 2.232 3.642l.036.024c.434.378.9.698 1.382.984l.588.306.6.274c.593.245 1.208.437 1.796.595l1.123.262.548.13c.327.072.627.194.906.354.836.48 1.448 1.342 1.86 2.193l.007.01c.65 1.33.87 2.667.87 2.667-.87 1.48-3.24 2.848-3.24 2.848 1.125.254 2.617 0 2.617 0m-29.1-80.843s1.246.698 1.32 2.39c.073 1.687-.342 2.422.073 3.58.403 1.157-.28 1.955-1.898 2.903 0 0-1.633.34-3.267.205 0 0 1.23.606 1.766.683 0 0-1.765 1.485-4.27.877 0 0-3.046 1.822-5.36 1.49-2.3-.335-2.84-1.285-2.84-1.285s2.747-.494 4.708-.767c0 0-3.583-.822-4.74-1.49 0 0 .363-1.664 1.118-2.412.74-.752.566-.934.566-.934s-2.94-.69-4.027-1.092c0 0 3.46-.522 4.547-.925 0 0-.415-.833.948-1.916 1.356-1.082 2.512-2.163 3.047-2.777.55-.61 3.193-.67 4.678-.278 1.5.418 1.492.418 2.308.418.812 0 4.28-.34 4.28-.34s-.69 1.075-2.957 1.672m184.942 92.44l-.072.402-.066.227-.01.02c-.09.22-.198.444-.356.66-.816 1.186-2.438 1.003-3.605.66-1.287-.67-3.814-1.946-7.536-3.626-14.05-6.588-46.315-19.753-95.213-28.444-7.628-1.36-14.595-2.46-21.157-3.325l-.044-.012-.205-.017-.095-.02c1.214.102 2.47.216 3.715.343l.597.045c7.133.75 14.244 1.554 21.33 2.53 8.95 1.233 17.848 2.74 26.7 4.486 8.06 1.594 16.104 3.572 24.07 5.567 3.364.845 6.71 1.73 10.048 2.665l1.553.44c3.23.92 6.444 1.886 9.66 2.916 5.32 1.707 10.583 3.57 15.774 5.618l.963.392 1.304.523c2.258.916 4.498 1.872 6.727 2.87 1.282.58 2.564 1.155 3.827 1.754l.073.03.17.08.07.037s1.963 1.354 1.778 3.18m-134.014-32.53c-.867 1.32-4.37 1.774-6.25 1.544 0 0-3.51 1.573-5.513 1.31-1.993-.268-5.63-1.627-5.63-1.627s1.12-.578 2.215-.75c0 0-.676-1.342-2.308-2.87-1.628-1.548-3.724-3.442-4.086-4.72 0 0 2.15-.9 3.696-1.26 0 0-2.59.077-4.048-.555 0 0-.1-2.708.448-3.793.544-1.08.908-1.99.908-2.54 0-.543-.103-.5.707-.764.82-.275 4.747-.953 4.747-.953s-.365-.897-2.822-1.263c0 0 2.18-.815 4.64-.457 2.44.36 4.073 3.258 4.893 4.802.825 1.53 2.36 3.246 3.366 3.98.998.72 4.755-.187 4.755-.187s-2.37 2.345-3.88 2.238c0 0 .75 2.74 2.023 3.843 1.274 1.07 3.008 2.705 2.14 4.024m-56.85 17.017c-1.11.87-3.983 3.234-5.48 4.97-1.505 1.74-3.11 3.6-6.474 2.724-3.367-.857-3.876-5.7-3.876-5.7.875-1.24 4.864-3.102 4.864-3.102-2.117 0-4.805.472-4.805.472.055-1.017.202-3.955.202-6.326 0-2.358-1.253-4.59-1.253-4.59.87-.875 3-1.986 3-1.986-4.123.62-6.24.125-6.24.125 1.13 0 2.744-.875 2.744-.875-.243-1.236.253-2.975.87-3.603.618-.618 2.498-2.978 3.365-3.608.87-.615 3.12-.245 5.36.127 2.24.373 2.612 1.74 2.612 1.74 1.126.245 2.25.13 2.25.13-1.37.992-4.865 2.1-4.865 2.1 1.623.26 2.995.26 2.995.26s.99 3.607 1.494 5.468c.224.805.634 1.474 1.16 2.11-.97.58-2.632 1.495-4.026 1.987 0 0 2.403-.068 4.98-.956l1.627 1.572c1.75 1.74.627 6.097-.503 6.96m100.313-63.605s.983 1.078.803 2.194c-.17 1.11-.557 1.33-.877 2.06-.305.73-1.25 1.358-2.23 1.808 0 0 1.27.55 2.594 1.322l-3.504-.442s-1.398.833-2.034 1.77c-.63.95-1.75 1.78-3.358 1.85 0 0-2.023-.593-2.826-.774 0 0 1.053.905 1.468 1.363 0 0-1.146.452-2.276.218-1.114-.25-3.666-1.3-4.44-1.535 0 0 1.86.135 2.422.207 0 0-3.71-2.966-4.268-3.622 0 0 1.6.26 2.313.442-.255-.158-2.35-1.433-2.418-3.095-.04-1.013.663-1.777 1.5-2.23.848-.455 1.787-.496 2.138-1.124.35-.63.415-1.39.415-1.39s2.753.522 3.975.806c0 0-1.084-1.608-1.788-1.888 0 0 .228-.625 1.14-1.048.907-.41 2.478-.833 3.426-1.566.94-.728 1.992-.523 2.694-.38.696.135 2.058.975 3.67 1.467 0 0-.84-.705-1.12-1.293 0 0 1.75.102 2.63.485.867.383 1.315 1.286.9 1.958-.42.658-.945.73-.974 1.183-.046.45 1.187 1.256 1.71 1.71-.005 0-.775-.257-1.686-.456" fill="#000"/><path d="M287.402 224.16c-4.25-3.98-8.443-7.973-12.94-11.632-10.287-2.726-21.66-5.364-34.146-7.716-7.796-1.465-15.02-2.644-21.708-3.58 6.823.645 14.202 1.502 22.17 2.63 10.382 1.484 19.998 3.19 28.9 5.01-4.856-3.436-9.994-6.304-15.04-9.415-1.747-1.065-3.538-2.19-5.036-3.602-.764-.703-1.582-1.602-1.683-2.695v-.628l.01-.035.063-.403.027-.124.035-.097.114-.334.08-.2c.44-1.024 1.24-1.963 2.036-2.623l.354-.31.243-.21.318-.265.34-.285.025-.006.125-.107.073-.063.017-.024.1-.08.27-.56c6.867-12.28 24.044-15.42 24.044-15.42-1.777-2.48-3.877-3.83-3.877-3.83 2.317-.808 5.216-.307 6.33-.06l-.035-.15c-.368-1.493-.195-2.355.18-2.657 0 0 2.508.085 3.248.35-.268-.125-1.392-.69-2.138-1.274-2.885-.69-5.8-1.328-8.7-1.885-11.784-2.28-23.85-3.16-35.82-3.598-2.135-.083-4.275-.135-6.418-.135 1.626.693 2.96 2.128 3.857 3.63-2.382-.174-4.78-.31-7.165-.41 1.106.382 1.87.752 2.067.844 0 0-1.98-.3-3.326-.33 0 0 .67.37 1.046.782 0 0 .07.783-.04 1.225-.107.455-.337 1.122-.076 1.865.257.75 1.014 2.418 1.128 3.017 0 0-2.295-.19-3.634-.222 0 0 3.702 1.79 4.832 2.47 0 0-.757-.04-1.238 0 0 0-1.272.744-1.527 1.223-.272.488 0 2.687-1.242 3.654-1.228.967-2.878.748-3.392 1.343-.53.593.3 1.415.3 1.415s-2.685-.604-3.508-.678c0 0 1.277 1.284 2.094 1.88 0 0-1.055-.233-2.14-.09-1.085.15-4.446.41-6.254-.998-1.795-1.424-.858-2.542-.445-2.984.413-.444.518-1.006-.67-2.386-1.197-1.383-1.014-1.383-.786-2.124 0 0 4.184.013 5.68.424 0 0-4.08-2.297-5.68-2.634 0 0 .077-.516.972-1.194.895-.674 2.095-1.203 2.497-2.88 0 0 3.012.576 4.73.834-1.87-.71-2.736-1.763-5.8-2.61 0 0 2.134-.106 2.935-.176 0 0 1.468-.26 2.148-.897.283-.26.634-.588 1.075-.878-5.93.115-11.845.67-17.68 2.04-9.31 2.184-18.577 4.487-27.865 6.758l-.228.065c1.57-.978 2.93-2.358 4.182-3.712-2.75.678-5.532 1.24-8.334 1.728-4.56.802-9.255 1.502-13.913 1.235-7.684-.444-15.376-2.194-22.865-3.913l-1.983-.464c.164.116 2.705 1.7 3.583 2.216 3.697 2.168 7.5 4.147 11.527 5.635 1.218.4 2.423.865 3.65 1.246 1.366.42 2.75.778 4.13 1.1 1.27.29 2.56.516 3.84.71 2.293.338 4.624.476 6.938.412 2.33-.055 4.652-.376 6.95-.796 2.665-.495 5.31-1.065 7.91-1.82l1.278-.368c3.595-1.102 7.073-2.688 10.423-4.394.88-.433 1.755-.878 2.61-1.34l.065-.043.063-.02c-.053.06-6.234 5.178-9.273 7.03-.658.404-1.328.806-2.012 1.195-1.102.63-2.238 1.223-3.375 1.8-.967.504-1.94.963-2.92 1.396l-1.56.652-.08.042-.815.424c-1.773 1.096-3.592 2.126-5.492 3.01l-.08.044c-.63.3-1.26.59-1.9.864l-.043.022-.048.024c-1.725.746-3.498 1.426-5.247 2.052-1.39.49-2.797.947-4.22 1.34-10.08 2.94-16.23 2.87-16.23 2.87.68.307 1.596.585 2.44.77 3.038.68 10.303 1.322 10.643 1.423l.063-.02-.6.575c-4.537 4.143-10.34 6.657-16.243 8.27-3.173.86-6.43 1.495-9.698 1.89l-1.517.165c-.21.075-.35.164-.406.278-1.608 5.012-1.66 10.428-1.38 15.632.15 2.793.496 5.587.998 8.356l.01.04c.365-.36.795-.748 1.29-1.152 0 0 1.5-1.234 4.11-1.617l-.113-.097-.117-.105c-.557-.468-1.41-.71-2.167-.825l-.575-.09.496-.08c1.625-.344 3.56-.64 5.137-.298l.114.015c.962.22 1.807.856 2.323 1.678l.134.26.158.34.028.085.105.343.07.34.016.07.02.354c0 .415-.086.842-.272 1.244-.615 1.368-1.74 3.98-1.74 4.968 0 .45-2.344 2.076-2.975 2.713l-.1.116.194-.01.154-.024 2.065-.252 1.01-.06h.027s1.617 2.978 2.865 3.98c1.245.99 2.366 3.095 2.74 4.708l.05.01c.148.018.326-.04.513-.113l.054-.02.223-.093.463-.22.705-.296.668-.338.065-.03s-2.356 3.455-5.1 5.08c.177.03 2.36.35 3.448-.117l.03-.01s.186 4.13-3.85 8.578c-.277.304 3.005 4.185 5.017 6.455l.228.274.174.2.42.47.27.31c.142-.127 1.248-1.074 1.814-1.536.98-.785 2.003-1.516 3.046-2.214.978-.67 3.25-1.874 3.25-1.874l.032-.016c.112-1.023.454-1.607.742-1.968.386-.47.96-.576 1.437-.853.196-.113.413-.233.62-.46l.22-.26.117-.192.147-.277.106-.247c.11-.258.217-.566.31-.936.16-.634.688-1.216.688-1.216l-.035-.008c-.72-.27-1.453-.5-2.185-.724-1.163-.346-2.352-.66-3.537-.936-.783-.182-1.58-.372-2.386-.525 6.19-4.08 13.046-7.13 20.09-9.51 2.358-.79 7.354-2.21 7.354-2.21-.7-.642-1.398-1.41-1.745-2.125-.875-1.737.617-4.35 1.238-5.34.63-.995-.495-1.605-.495-1.605.998-.757 1.742-1.995 1.742-1.995l-.048.015c-2.222.484-4.304.606-4.304.606l-.01-.015c-1.238-.98-1.734-3.096-1.49-4.213.25-1.11.743-2.864.743-2.864h-.043c-.414.045-.864.012-1.29-.05-.722-.09-1.35-.264-1.518-.308l-.005-.008c4.72-.622 7.087-2.358 7.087-2.358l-.06.01c-1.253.237-3.42.36-3.42.36v-.01c.02-.133.177-1.39 1.114-2.016.35-.234 1.086-.234 1.964-.11.49.066 1.033.173 1.58.307l.774.196c.953.252 1.854.534 2.508.75l.044.01c1.865.627 2.747 3.108 2.747 3.108.503 1.607 1.297 2.77 2.236 3.643l.032.022c.436.38.897.7 1.384.99l.586.303.6.273c.6.248 1.206.44 1.796.592l1.123.27.55.126c.33.072.628.2.906.354.84.48 1.448 1.34 1.863 2.196 3.286-.356 6.605-.64 9.892-.835-.412-.48-.855-.94-1.33-1.37-3.308-3.042-7.942-4.994-12.104-6.324 8.278-1.108 16.646-1.438 24.977-1.72 4.764-.18 9.536-.29 14.295-.34-1-.835-2.387-1.312-3.585-1.793 2.795-.32 5.718-.05 8.515.158-2.385-1.2-5.086-1.868-7.635-2.625-1.797-.525-3.605-1.028-5.41-1.5l.22.01-.096-.022c1.22.1 2.468.217 3.714.34l.6.05c7.134.745 14.243 1.553 21.33 2.528 8.952 1.234 17.847 2.74 26.7 4.487 8.06 1.594 16.1 3.572 24.07 5.567 3.363.844 6.707 1.728 10.047 2.667-5.44-1.554-11.404-3.13-17.888-4.686m-47.904-55.043c.847-.464 1.784-.505 2.137-1.133.347-.628.412-1.39.412-1.39s2.756.523 3.972.8c0 0-1.08-1.602-1.783-1.882 0 0 .228-.626 1.14-1.048.903-.41 2.476-.833 3.426-1.564.946-.728 1.997-.523 2.705-.38.687.135 2.056.975 3.658 1.458 0 0-.838-.697-1.112-1.284 0 0 1.746.103 2.622.482.868.385 1.318 1.288.904 1.957-.42.66-.948.733-.977 1.182-.046.455 1.187 1.257 1.71 1.71 0 0-.77-.25-1.68-.453 0 0 .977 1.08.802 2.2-.17 1.115-.558 1.32-.878 2.06-.305.732-1.244 1.362-2.23 1.81 0 0 1.273.548 2.592 1.32l-3.496-.444s-1.404.838-2.038 1.772c-.628.95-1.745 1.78-3.366 1.852 0 0-2.02-.595-2.824-.774 0 0 1.053.904 1.468 1.36 0 0-1.148.456-2.276.213-1.112-.242-3.662-1.292-4.432-1.526 0 0 1.86.133 2.418.206 0 0-3.703-2.964-4.265-3.625 0 0 1.598.265 2.312.444-.257-.158-2.353-1.43-2.42-3.096-.047-1.024.662-1.785 1.496-2.227m-17.496 21.378c.21-.448.454-.787 1.106-.787.638 0 1.988.184 2.433-.156.455-.347.55-1.246 1.353-1.736.796-.504 2.24-.112 3.54.236 1.298.36 2.888.945 2.888.945-1.495.103-3.042.103-3.042.103 1.85.452 3.642 1.347 5.332 2.386 1.735 1.068 1.055 2.09 2.503 2.636 1.44.547.885 1.046.885 1.046-1.692-.35-4.626-.593-4.626-.593l3.836 1.48s-.303.257-.692.3c-.405.05-1.108-.393-1.698-.3-.594.106-1.05 1.106-1.7 1.648-.64.547-1.486.387-1.486.387s-.206.805-.847 1.3c-.65.496-1.71.25-3.056.052-1.342-.205-1.8-3.038-1.8-3.038-1.39-1.232-3.524-2.376-3.524-2.376.9.046 2.045.247 2.045.247-.453-.75-3.093-1.984-3.093-1.984-.447-.204-1.794-.946-1.794-.946 1.347.103 5.478 1.04 5.478 1.04-1.346-.845-4.038-1.89-4.038-1.89m-65.69 40.687c-1.114.873-3.982 3.234-5.483 4.968-1.497 1.742-3.108 3.6-6.465 2.728-3.37-.864-3.886-5.707-3.886-5.707.88-1.24 4.868-3.098 4.868-3.098-2.113 0-4.805.474-4.805.474.048-1.01.195-3.953.195-6.33 0-2.352-1.246-4.594-1.246-4.594.867-.87 3.004-1.982 3.004-1.982-4.127.617-6.25.127-6.25.127 1.127 0 2.748-.877 2.748-.877-.246-1.234.248-2.97.867-3.597.622-.616 2.51-2.98 3.377-3.605.867-.616 3.116-.247 5.354.127 2.24.368 2.612 1.735 2.612 1.735 1.128.25 2.253.13 2.253.13-1.375.997-4.866 2.1-4.866 2.1 1.623.264 2.994.264 2.994.264l1.494 5.464c.217.805.628 1.472 1.16 2.11-.97.576-2.634 1.49-4.025 1.983 0 0 2.402-.07 4.97-.955l1.632 1.573c1.746 1.752.623 6.103-.503 6.963m14.152-27.153c-.805.525-.875 1.08-1.498 1.88-.628.806-4.45.968-4.45.968-2.313-.8-5.327-.8-5.327-.8l3.553 1.076s-2.14.355-3.923.18c-1.775-.18-2.758-2.14-3.723-3.47-.98-1.325.17-3.36.17-3.36-.532-.364-1.15-.537-1.15-.537 1.947-.177 5.605.092 5.605.092-1.683-.536-3.605-.9-3.605-.9s.22-.962.658-1.94c.457-.964 2.585-.708 3.48-.62.89.09 2.043-.974 2.686-1.184.64-.212 2.65.484 3.71.84 1.067.346 1.164 1.15 1.164 1.15-.985-.095-2.412.174-2.412.174l3.472.97s2.308 1.148 2.66 2.303c.363 1.155-.256 2.668-1.07 3.18m20-14.89c-1.2 1.39-3.985.923-3.985.923s-2.8 2.063-5.86 1.612c-3.064-.457-5.513-1.612-5.513-1.612s-2.79-.634-4.325-1.455c0 0 3.79.377 6.77.197 0 0-3.2-.973-4.13-2.122 0 0 1.082-.678.886-1.664-.206-1-.502-2.394-.048-3.18 0 0 2.795 1.336 4.186 1.686 0 0-1.792-1.492-2.444-2.827 0 0 1.21 0 2.302-.897 1.093-.894 2.264-2.5 4.296-2.47 0 0 .943-.957 1.89-1.16.938-.198 1.73-.198 1.73-.198s1.104.495 2.993.847c-.002 0-2.54-1.69-3.142-2.428 0 0 1.146.392 2.1.333 0 0 1.043-.29 2.737.156 1.692.44 2.832 1.742 2.832 2.825 0 1.098-1.534 2.535-.988 3.482.505.865 4.024 1.748 4.527 1.87-.39-.032-2.672-.216-4.034-.04 0 0-.845.844-1.797.896-.95.048-1.144.75-.95 1.297.212.543 1.157 2.54-.036 3.927m22.696 25.027c-.867 1.32-4.367 1.774-6.247 1.544 0 0-3.508 1.573-5.51 1.304-1.994-.262-5.623-1.62-5.623-1.62s1.112-.58 2.21-.753c0 0-.676-1.338-2.318-2.87-1.628-1.546-3.72-3.44-4.08-4.718-.003 0 2.145-.903 3.692-1.264 0 0-2.59.072-4.05-.556 0 0-.1-2.705.45-3.79.546-1.085.908-1.99.908-2.54 0-.543-.11-.5.706-.764.817-.275 4.75-.953 4.75-.953s-.36-.897-2.828-1.263c0 0 2.188-.813 4.648-.452 2.44.356 4.07 3.252 4.89 4.792.823 1.534 2.36 3.25 3.364 3.98.96.69 4.425-.103 4.73-.175-.24.253-2.43 2.325-3.855 2.233 0 0 .75 2.743 2.02 3.84 1.276 1.075 3.01 2.705 2.143 4.024" fill="#9F792C"/><path d="M179.13 265.188s-1.155.293-3.527 2.082c-2.387 1.816-2.964 4.185-2.964 4.185 1.236-1.136 2.963-2.186 2.963-2.186-.49.767-.288 1.146-1.34 3.51-1.047 2.374-3.62 2.284-5.43 2.472-1.805.197-4.758-1.99-4.758-1.99-1.05.382-2.964 2.187-2.964 2.187.86-2.853 4.007-5.894 4.007-5.894-1.332.57-3.72 2.277-3.72 2.277-1.328-1.043-6.013-2.38-9.15-4.084-3.15-1.712-2.765-5.034-2.765-5.034.195-1.993 1.904-4.662 1.904-4.662-1.05.58-2.185 1.813-2.185 1.813-.03-.39-.02-.73.01-1.052v-.026c.114-1.025.456-1.61.748-1.97.377-.47.957-.573 1.428-.85.198-.114.413-.235.624-.467l.215-.258.125-.194.144-.277.104-.243c.11-.258.217-.57.31-.936.163-.632.69-1.217.69-1.217 1.095-1.225 3.032-2.108 3.032-2.108-1.01 1.263-1.134 2.597-1.143 2.875l.033.013c2.19-3.458 5.88-3.187 5.88-3.187-.76.202-1.71.77-1.71.77s1.618.566 3.244 1.038c1.62.486 5.235.766 7.337.766 2.094 0 5.996.76 5.996.76 1.71-.563 6.964-1.898 6.964-1.898-1.815 1.14-5.045 2.75-5.045 2.75 6.57 3.614.946 11.03.946 11.03zm45.226 19.755c-1.26 2.15-2.964 2.343-2.964 2.343l.43-.814c-1.474.402-3.03-.44-3.184-.523.904 1.27.996 2.902.996 2.902l-.574 1.085 1.99-.15-1.126 1.384c.33 3.21-2.34 4.415-5.47 4.163-3.12-.234-6.896-3.447-6.896-3.447.22-1.243 2.57-4.58 2.57-4.58-1.67.505-4.694 2.635-4.694 2.635-2.86-1.77-2.27-1.17-10.413-2.29-8.133-1.123-12.207-3.272-12.207-3.272-.042-1.485 1.062-3.268 1.062-3.268-1.94.95-2.9 2.452-2.9 2.452-.688-.503-3.064-2.786-2.136-6.006.916-3.21 5.695-3.702 5.695-3.702 1.56-1.255 3.912-1.28 4.057-1.28-.535.324-1.435.94-1.435.94 1.33-.257 8.518.483 11.625.72 3.115.244 6.468.235 6.468.235l3.186-.732-5.61 3.61c2.36-1.45 8.1-2.592 8.1-2.592s1.003-.127 2.473.522c1.464.648 2.105 3.037 2.105 3.037 1.27-1.245 3.386-.503 5.556 1.74 2.173 2.24 2.256 4.606 2.256 4.606l1.04.283zm-1.538-116.388s3.704 1.776 4.834 2.46c0 0-.757-.043-1.24 0 0 0-1.266.738-1.527 1.226-.272.482 0 2.687-1.242 3.654-1.226.97-2.88.74-3.392 1.34-.528.596.3 1.418.3 1.418s-2.684-.604-3.513-.682c0 0 1.28 1.29 2.1 1.89 0 0-1.06-.24-2.142-.094-1.084.15-4.45.41-6.247-1.002-1.797-1.42-.858-2.542-.445-2.986.412-.442.52-1.002-.672-2.385-1.2-1.378-1.012-1.378-.788-2.126 0 0 4.18.01 5.67.43 0 0-4.067-2.294-5.67-2.628 0 0 .08-.515.974-1.2.9-.663 2.084-1.2 2.488-2.872 0 0 3.015.566 4.73.833-1.865-.716-2.736-1.768-5.79-2.617 0 0 2.124-.105 2.936-.173 0 0 1.46-.258 2.144-.895.276-.262.63-.59 1.07-.883.652-.416 1.49-.775 2.646-.82 2.14-.07 4.17.437 5.617.93 1.104.382 1.867.75 2.065.845 0 0-1.98-.3-3.324-.332 0 0 .667.374 1.042.78 0 0 .07.782-.04 1.23-.105.45-.335 1.125-.074 1.866.26.747 1.014 2.416 1.126 3.016 0-.005-2.295-.193-3.634-.22zM239 195.168c-1.694-.352-4.625-.593-4.625-.593l3.83 1.474s-.298.26-.69.306c-.4.046-1.107-.396-1.692-.307-.597.107-1.058 1.115-1.71 1.653-.638.543-1.48.392-1.48.392s-.21.805-.848 1.297c-.656.494-1.702.245-3.05.05-1.338-.208-1.794-3.04-1.794-3.04-1.39-1.234-3.53-2.383-3.53-2.383.902.05 2.05.253 2.05.253-.46-.76-3.103-1.988-3.103-1.988-.445-.204-1.8-.947-1.8-.947 1.355.1 5.49 1.043 5.49 1.043-1.346-.848-4.04-1.885-4.04-1.885.21-.452.456-.787 1.107-.787.634 0 1.99.188 2.438-.162.454-.343.546-1.243 1.35-1.735.79-.497 2.24-.097 3.536.248 1.293.353 2.886.945 2.886.945-1.503.1-3.04.1-3.04.1 1.84.443 3.636 1.342 5.328 2.38 1.738 1.07 1.055 2.088 2.5 2.64 1.44.54.888 1.045.888 1.045zm-27.767-49.12c-.21 1.78-2.5 3.357-3.12 3.758-.61.41-1.757 1.225-2.093 2.37-.342 1.147-1.562 1.89-2.32 1.963-.74.065-1.75 1.143-1.75 1.143 1.062.258 2.558-.195 2.758-.258-.158.133-1.453 1.172-2.014 1.617-.613.474-2.644.942-3.388.87l-3.8-.054c-2.315-.08-4.957-.285-5.75-1.735-.76-1.376-1.078-1.418-1.105-1.418-1.63.742-5.02.71-5.02.71 3.262-1.35 6.053-4.396 6.053-4.396-1.756.74-3.75 1.04-3.75 1.04-.28-.474-.33-.97-.27-1.986.075-1.012 1.025-1.553 1.025-1.553s.06-.54.743-1.42c.686-.876 2.983-2.092 4.273-2.166 1.295-.07 2.912-.737 3.803-1.346.877-.61 3.993-1.892 5.553-1.76 1.56.135 2.18.4 2.18.4.878-.06 2.84-.4 2.84-.4-2.568 2.027-4.205 2.77-4.205 2.77 2.984-.342 5.567-1.554 5.567-1.554 3.043.205 3.993 1.625 3.79 3.404zm38.78-2.612c-.133.967-.822 3.452-2.136 4.003-1.32.543-1.676.646-1.676.646v2.872s-1.96-1.752-2.37-2.307c0 0-.528.025-1.91-.185-1.382-.204-3.052 2.14-5.608 1.94 0 0-4.217-.897-4.906-2.625-.69-1.722-.42-3.172-.136-3.657-.002 0 1.45 1.863 2.48 2.41 0 0-.96-2.203-.96-3.58 0 0 .828-.62.96-1.248.144-.62 1.737-1.588 2.707-1.793.97-.202 1.92.207 1.92.207s1.136 2.576 1.963 3.54c0 0-.35-5.054.062-6.844 0 0 1.055 2.328 1.61 3.087 0 0 1.157-.125 2.822-.403 1.66-.277 3.105-.13 4.077.825.973.97 1.25 2.142 1.104 3.11zm-52.732 39.626c-.392-.035-2.667-.22-4.025-.046 0 0-.847.847-1.8.895-.952.056-1.145.753-.952 1.305.21.542 1.154 2.528-.042 3.918-1.197 1.39-3.983.92-3.983.92s-2.798 2.068-5.863 1.615c-3.067-.453-5.51-1.615-5.51-1.615s-2.786-.634-4.322-1.443c0 0 3.792.358 6.763.183 0 0-3.19-.973-4.12-2.108 0 0 1.083-.68.89-1.667-.21-1.004-.51-2.39-.053-3.185 0 0 2.79 1.34 4.182 1.69 0 0-1.79-1.495-2.437-2.828-.003 0 1.2 0 2.292-.9 1.09-.896 2.262-2.5 4.296-2.47 0 0 .94-.96 1.89-1.167.94-.192 1.732-.192 1.732-.192s1.106.494 2.995.844c-.002 0-2.54-1.688-3.144-2.43 0 0 1.15.396 2.096.34 0 0 1.047-.296 2.74.152 1.695.444 2.84 1.744 2.84 2.83 0 1.092-1.54 2.536-.992 3.486.512.86 4.018 1.752 4.527 1.874z" fill="#000"/><path d="M365.37 200.91c0 1.39-3.188 1-5.586.796-2.383-.2-14.55.996-18.74 2.982-3.528.833-7.008 1.973-10.34 3.406-.942.413-1.884.85-2.805 1.314-1.116.554-2.213 1.15-3.21 1.888l-.34.276s-.552-3.008-3.2-5.705l-.468-.46c-.322-.297-.673-.58-1.053-.86-1.124-.833-2.53-1.58-4.244-2.097-.57-.18-1.18-.324-1.817-.446-.973-.184-2.02-.298-3.165-.34h-.017l-.15-.023c5.352-2.53 11.91-5.044 17.472-5.363 11.64-.648 26.99 2.524 26.99 2.524s8.6-10.715-3.583-23.28c2.473 2.272 6.556 6.466 9.068 11.48 3.796 7.55 5.185 12.523 5.185 13.91m34.825-13.512c-1.933-1.702-4.522-3.474-7.4-5.226-2.09-1.295-4.334-2.573-6.447-3.64l-.228-.112c11.73 1.92 14.48-1.124 15.106-2.386l.073.127c.172.32.336.644.466.95 2.33 5.54-1.57 10.288-1.57 10.288" fill="#9F792C"/><path d="M317.41 194.013s-10.612 6.66-18.3 4.685c-7.697-1.975-20.884-12.374-20.884-12.374s5.053-.652 13.393.73l.218.046c1.517.335 3.14 1.564 4.358 2.415.746.528 1.41 1.147 2.128 1.704.14.113 1.997 1.242 2.08 1.242l-.03.413c0 1.95 1.59 3.53 3.552 3.53 1.96 0 3.54-1.583 3.54-3.53 0-.77-.245-1.49-.668-2.058 7.006 1.984 10.61 3.196 10.61 3.196" fill="#006778"/><path d="M302.855 190.972c-.06 1.022-.737 1.636-1.65 1.636-.26 0-.54-.056-.8-.148-.082 0-1.938-1.13-2.08-1.243-.716-.558-1.38-1.174-2.125-1.706-1.222-.848-2.832-2.064-4.353-2.412.933.173 4.568.884 6.7 1.453 1.08.276 2.077.552 3.064.82 0 0 1.31.578 1.245 1.602" fill="#FFF"/><path d="M341.908 194.06c2.238-.557 4.678-1.662 6.422-3.22h-.004l.03-.038c-3.867 1.417-8.003 1.885-11.968.527-.66-.23-1.34-.467-2.006-.745l-.732-.34c-3.974-1.985-7.577-4.87-11.1-7.557-6.043-4.61-12.362-8.678-19.383-11.61-.487.34-1.21.874-1.868 1.52v.157c0 1.89 1.37 5.86 4.293 8.236 3.79 3.087 10.842 6.176 10.842 6.176-.343-1.192-.174-2.74-.174-2.74 1.032 1.712 3.273 4.286 6.71 6.18l.7.35c1.067.502 2.46 1.1 3.856 1.646 1.016.398 2.163.755 3.047.995 3.702.77 7.632 1.385 11.335.462" fill="#9F792C"/><path d="M298.004 202.577c-3.454-1.818-7.008-3.52-10.655-4.96-2.274-1.154-4.507-2.37-6.702-3.637-2.975-1.715-5.926-3.528-8.734-5.515-1.332-.938-2.883-1.72-4.037-2.87l-.24-.164c-.724-.112-1.448-.17-2.128-.19-.918-.025-1.848 0-2.77.07l-1.123.108c.81 2.638 4.432 6.525 4.432 6.525-1.72.123-3.918-.48-3.918-.48 3.182 4.256 11.978 9.624 18.826 10.965 6.843 1.335 13.075 1.085 13.075 1.085-.97.495-2.565 1.105-2.565 1.105s2.687-.125 6.352.604c.476.09.994.218 1.546.37 2.434.618 5.435 1.618 7.2 2.237l.57.194c-.85-.567-1.7-1.122-2.583-1.65-1.792-1.113-4.265-2.603-6.55-3.797m-33.677-21.67c2.728-.81 5.918-1.45 8.753-1.72 9.578-.9 19.06.692 27.95 3.698 8.653 2.922 16.61 7.405 25.478 9.772 1.134.3 2.268.573 3.418.82l.634.125c-.877-.243-2.023-.604-3.034-.996-1.396-.547-2.79-1.142-3.857-1.645l-.7-.35c-3.433-1.893-5.678-4.468-6.71-6.178 0 0-.163 1.546.175 2.738 0 0-7.055-3.088-10.842-6.175-2.922-2.376-4.29-6.344-4.29-8.24v-.15c-.515.49-.997 1.05-1.322 1.642-1.04 1.916-.956 3.37-.956 3.37s-.904-.38-1.713-1.01c0 0 .41 1.728 1.877 2.463 0 0 .836 1.1.476 1.934 0 0-2.567-.206-3.17-.69-.598-.498-2.51-1.18-2.51-1.18s.644-.103 1.32-.062c0 0-.685-1.68-1.347-2.242-.66-.56-2-1.58-1.694-2.872 0 0 1.567.114 2.326.41 0 0-2.477-2.14-3.998-2.486l2.076-.11s-.28-1.46 2.352-2.738c2.644-1.28 3.462-2.092 4.02-2.914.548-.827.772-1.667 1.465-2.157 0 0 1.292.73 2.308 1.5 0 0-.58-1.743-2.454-3.016 0 0-6.863-.774-11.745 2.748l.4.25.136.08.28.182.133.083.293.2.09.062.364.243.018.01.278.196.108.084.132.096.092.057.02.022.095.07.02.007.053.044c-.94-.222-2.885-.493-3.79-.613-.27.264-.87.86-1.114 1.17 0 0-.554.71-.872 2.533-.103.586.228 1.938.823 2.463.602.516 2.472 2.234 2.774 3.043.297.827-.248 2.104-.127 2.66 0 0-1.446-.925-2.262-1.15.17.16 1.817 1.854.893 2.07 0 0-.83-.957-2.33-1.63-1.494-.666-4.252-2.014-5.075-2.76-.775-.695-1.28-2.183-1.332-2.366.095.122.55.726.962.8.415.072 1.628.86 1.786.958-.05-.124-.476-1.144-.968-1.553-.522-.457-1.788-1.054-2.464-1.868l.746-.223s.21-1.46-.13-2.903c-1.11-.248-4.008-.753-6.325.06 0 0 2.1 1.35 3.877 3.82 0 0-17.177 3.14-24.045 15.413l-.277.57-.093.086.145-.117.05-.006h.005l.013-.01c.27-.227 2.973-2.54 4.628-3.46 2.4-1.34 5.087-2.163 7.706-2.96" fill="#FFF"/><path d="M351.113 175.522c-.823-.858-1.736-1.695-2.774-2.568l.07.118.1.186.084.177.11.206.21.432.125.258.243.555c.256.595.548 1.32.827 2.127.278.8.54 1.677.755 2.6l.184.937.054.35c.22 2.484.36 4.807-.702 7.152-.428.956-1.058 1.842-1.82 2.572l-.254.22c-1.74 1.56-4.18 2.663-6.415 3.215-3.706.924-7.636.312-11.335-.458l-.018-.005-.63-.12c-1.15-.243-2.284-.516-3.42-.82-8.867-2.365-16.83-6.847-25.48-9.765-8.884-3.013-18.372-4.603-27.953-3.7-2.83.267-6.02.908-8.748 1.718-2.623.794-5.31 1.616-7.712 2.957-1.656.915-4.357 3.235-4.633 3.46l.313-.07.45-.12c2.106-.518 4.34-1.058 6.598-1.417.76-.123 1.512-.217 2.275-.298l1.122-.11c.922-.07 1.854-.097 2.767-.07.684.023 1.408.08 2.132.194l.234.16c1.155 1.154 2.7 1.94 4.038 2.876 2.81 1.982 5.76 3.795 8.734 5.512 2.2 1.267 4.428 2.483 6.703 3.638 3.65 1.44 7.2 3.14 10.654 4.964 2.288 1.19 4.757 2.68 6.55 3.793.873.53 1.733 1.082 2.582 1.648l1.645 1.094c3.053 2.032 5.963 4.28 8.74 6.674.808.685 1.594 1.39 2.38 2.1 1.25 1.148 2.393 2.397 3.62 3.557-.104-.088-.126-.567-.16-.707l-.286-.805c-.215-.55-.43-1.12-.67-1.666-.462-1.1-.99-2.18-1.56-3.235-1.142-2.11-2.446-4.127-3.88-6.06-.808-1.088-1.65-2.148-2.535-3.188-.64-.737-1.306-1.456-1.984-2.19-.527-.585-1.18-1.646-1.975-1.905l-.082-.03-.15-.022c5.352-2.533 11.91-5.044 17.472-5.364 11.642-.65 26.99 2.526 26.99 2.526s8.596-10.72-3.587-23.284m-52.003 23.176c-7.693-1.975-20.884-12.374-20.884-12.374s5.05-.652 13.393.73c.093.016 4.482.845 6.924 1.494 1.075.28 2.075.556 3.063.825 0 0 1.312.575 1.244 1.604-.06 1.02-.736 1.636-1.65 1.636-.26 0-.54-.06-.794-.15l-.032.412c0 1.945 1.59 3.53 3.556 3.53 1.955 0 3.535-1.587 3.535-3.53 0-.77-.244-1.49-.667-2.063 6.995 1.993 10.606 3.203 10.606 3.203s-10.606 6.657-18.294 4.683" fill="#000"/></g></svg>