<svg width="512" height="512" viewBox="0 0 512 512" xmlns="http://www.w3.org/2000/svg"><title>kansas-city-chiefs</title><g fill="none" fill-rule="evenodd"><path d="M430.92 248.148c-6.9-5.9-15.77-6.294-20.96-16.566-3.942-7.825-12.67-10.792-20.705-12.048-6.275-1.506-9.915-7.53-14.18-12.048-5.525-9.538-16.693-9.664-26.48-10.793-10.668.38-17.313-12.495-28.38-15.435-4.093-1.087-15.116-.28-22.25-5.494-6.497-4.75-14.646-9.535-31.07-7.432-12.3-2.007-21.086-12.55-33.636-14.184-8.54-2.635-16.19 1.256-24.6.88-5.9-1.632-10.8-5.773-16.82-7.03-9.04-1.588-11.34 1.957-34.25-2.943-10.78-2.32-24.26-5.77-17.34 16.69 3.04 9.845 10.12 34.334-12.93 36.708-8.306.816-15.94-6.778-23.47-.63-2.55 1.842-7.397-2.332-10.54-1.38-10.04 2.887-6.025 14.557-6.9 22.593-.25 9.033-6.4 15.685-9.413 23.595-7.156 14.43-4.14 34.13.88 48.57 1.38 7.53-.758 15.31.75 22.72.423 1.3 2.01 3.02 4.015 2.01 15.23-7.42 19.076 1.79 24.253-.33 14.284-6.26 24.15-3.45 27.2 3.85 5.27 15.186-6.025 28.366-3.014 43.3 2.87 10.042 21.845 1.27 30.75.89 12.426-.934 24.47 2.623 36.266.363 10.252-5.22 21.714-8.152 34.142-7.902 8.274.13 14.68-4.142 21.33-8.03 12.175-8.537 30.623-2.258 42.416-11.8 6.404-5.02 15.817-3.01 22.717-6.907 10.55-9.407 23.096-14.427 36.78-16.434 7.146-2.76 12.67-10.17 19.45-13.686 6.02-3.763 13.18-4.513 18.95-8.79 9.156-12.04 21.334-21.954 35.89-24.47 13.91-5.43 8.905-13.28 1.13-17.82zm-89.238 53.63c-11.114 10.4-32.09 17.867-51.95 19.917-23.873 2.446-47.565-1.008-66.517-13.432-11.292-8.285-18.444-21.085-17.067-35.39.754-13.934 9.444-25.884 20.615-34.17-.862-.94-1.567-1.724-2.607-2.87L196.89 252.48c-.013 1.44-.026 3.37-.026 4.75 2.84-.015 3.542-.015 6.874-.05v15.317l-5.115 5.776-50.28-.042-.048-11.88 6.225-9.11c1.02-.01 1.494-.01 1.933-.05v-52.54l-8.158.03.03-10.65 6.796-7.54h48.55l.05 11.31-6.83 8.065-.01 20.363c26.28-14.81 47-26.49 47-26.49v-9.004l4.21-4.25h49.93c-.018 5.176-.018 6.51 0 11.497l-6.2 6.7-14.75.014c-8.56 5.32-9.975 6.103-18.695 11.34.95 1.275 1.736 2.14 3.89 4.4 23.464-5.65 51.957-5.15 73.164 4.89l7.4-5.65 13.948-.034c-.03 11.236-.03 17.12-.016 35.05l-6.52 7.53-12.6.046c-11.044-18.575-31.825-27.282-53.54-23.77-1.373.38-2.757.505-4.013 1.134 7.793 8.5 8.81 9.527 16.41 17.634 1.502-.035 1.972-.035 3.25-.035l-.037 14.524-5.036 6.51h-50.8v-12.32l3.274-5.68c-.44-.526-.76-.76-1.45-1.44-4.514 3.393-6.52 8.91-5.52 14.434 2.39 12.55 14.94 19.21 25.98 21.84 18.323 4.02 39.53 2.38 55.72-4.9 14.486-8.42 15.5-16.03 16.07-16.69h19.22c-.415 9.21-5.985 19.41-15.466 28.28z" fill="#FFF"/><path d="M416.236 223.926c-9.008-5.796-6.783-17.343-27.86-20.053-10.997-1.572-11.265-17.536-36.02-22.242-11.702-2.22-19.452-13.8-31.627-14.8-11.05.25-22.21-.12-30.5-6.9-8.29-7.9-21.09-3.64-31.76-6.02-8.68-3.05-13.028-8.883-22.067-11.52-10.005-3.162-18.1.48-26.006-1.66-10.16-1.123-17.94-8.653-29.115-6.9-10.92 3.01-22.965.25-33.88-.63-6.53-.75-25.89-4.97-22.47 13.93 2.136 8.92 4.144 17.828 6.403 26.61 4.25 14.07-.28 15.12-6.91 15.69-6.4.504-7.903-7.905-13.68-8.53-4.663-.743-11.603 4.28-17.192 6.148-5.65 1.76-8.03-4.143-12.927-4.516-10.39-.1-10.92 13.68-9.036 15.938 3.518 6.9 4.27 16.318 1.634 23.97-3.762 6.65-7.154 13.43-9.162 20.96-4.015 18.827-2.76 40.54 4.018 57.73 2.256 9.54-6.027 20.586 2.51 27.864 7.78 5.145 13.913-2.35 21.21-4.02 5.35-1.223 14.255 2.51 18.685.037 10.306-5.105 16.28-.763 15.075 6.11-2.76 11.425-5.27 22.97-8.915 34.007-2.176 8.11 7.724 15.39 12.81 14.56 6.897-1.25 13.8-2.51 20.58-3.762 15.814-2.383 30.37 5.9 45.305.38 10.04-4.896 20.07-9.865 32.883-8.16 8.66 1.13 15.31-2.888 21.832-6.905 8.036-4.766 23.067-6.76 27.91-6.645 8.915.37 14.51-6.03 22.29-8.406 5.93-1.977 16.27-2.06 18.447-3.644 5.4-4.39 12.238-10.94 17.13-11.68 14.31-2.76 26.424-9.144 37.716-19.31 1.54-1.556 13.508-3.906 17.073-5.267 7.4-2.896 12.42-10.17 16.31-16.7 3.897-5.27 9.54-8.655 15.44-10.41 10.165-1.634 20.33-10.355 24.72-19.452 4.01-8.278 2.343-9.696 1.264-11.043-9.793-9.416-20.964-17.824-32.134-24.727zm13.555 42.04c-14.55 2.514-26.73 12.426-35.89 24.47-5.77 4.275-12.93 5.025-18.95 8.788-6.78 3.514-12.3 10.927-19.44 13.686-13.68 2.007-26.23 7.027-36.78 16.433-6.9 3.896-16.31 1.888-22.71 6.905-11.79 9.542-30.24 3.264-42.42 11.802-6.644 3.89-13.05 8.162-21.33 8.035-12.423-.25-23.89 2.682-34.14 7.902-11.795 2.26-23.84-1.297-36.26-.364-8.91.38-27.883 9.153-30.75-.89-3.014-14.933 8.283-28.113 3.012-43.297-3.05-7.303-12.917-10.112-27.2-3.848-5.18 2.122-9.027-7.095-24.26.33-2.01 1.01-3.592-.712-4.02-2.005-1.504-7.407.63-15.19-.75-22.717-5.02-14.434-8.032-34.136-.88-48.566 3.01-7.91 9.165-14.562 9.41-23.595.88-8.036-3.14-19.707 6.9-22.59 3.148-.955 7.99 3.22 10.54 1.378 7.53-6.148 15.17 1.446 23.47.63 23.056-2.374 15.97-26.863 12.93-36.71-6.923-22.46 6.558-19.008 17.338-16.688 22.91 4.898 25.207 1.354 34.248 2.94 6.02 1.26 10.92 5.4 16.818 7.033 8.408.375 16.064-3.516 24.598-.88 12.55 1.633 21.335 12.176 33.635 14.182 16.424-2.102 24.573 2.683 31.07 7.433 7.134 5.215 18.157 4.406 22.25 5.494 11.066 2.94 17.71 15.814 28.38 15.435 9.786 1.13 20.954 1.255 26.48 10.793 4.264 4.518 7.904 10.542 14.18 12.048 8.033 1.256 16.762 4.223 20.705 12.048 5.19 10.28 14.06 10.67 20.96 16.57 7.775 4.54 12.78 12.39-1.13 17.82zm-107.93 24.222c-16.19 7.275-37.4 8.915-55.72 4.897-11.04-2.634-23.59-9.294-25.97-21.838-1-5.524 1.01-11.042 5.52-14.433.698.68 1.01.914 1.46 1.436l-3.27 5.687v12.315h50.8l5.036-6.513.033-14.53c-1.277 0-1.747 0-3.25.03-7.6-8.11-8.616-9.14-16.41-17.63 1.254-.63 2.64-.76 4.01-1.14 21.713-3.516 42.494 5.19 53.54 23.77l12.6-.05 6.523-7.53c-.012-17.93-.012-23.81.02-35.05-5.913.02-7.72.02-13.947.035l-7.405 5.645c-21.207-10.04-49.7-10.54-73.164-4.89-2.155-2.26-2.94-3.12-3.89-4.392 8.72-5.24 10.13-6.024 18.694-11.344l14.75-.013 6.19-6.7c-.018-4.983-.018-6.32 0-11.493h-49.92l-4.207 4.25v9.007s-20.72 11.69-47 26.5l.014-20.367 6.83-8.063-.05-11.31h-48.55l-6.795 7.547-.03 10.65 8.155-.03v52.535c-.44.036-.913.036-1.933.05l-6.224 9.11.048 11.89 50.28.046 5.115-5.775v-15.32c-3.33.033-4.03.033-6.87.05 0-1.383.012-3.313.024-4.75l27.266-16.647c1.04 1.15 1.746 1.93 2.608 2.87-11.17 8.29-19.86 20.24-20.61 34.17-1.376 14.307 5.776 27.107 17.07 35.39 18.95 12.426 42.64 15.88 66.516 13.434 19.86-2.05 40.837-9.516 51.95-19.917 9.48-8.87 15.05-19.07 15.466-28.28h-19.22c-.567.65-1.584 8.26-16.07 16.682zm3.65-65.636s7.86 2.7 10.45 4.157l7.37-5.92c4.317-.02 6.2-.02 10.17-.02v31.15c-4.05-.02-5.15-.02-10.29-.02-15.81-19.703-42.39-23.61-66.783-18.21l-11.562-12.44c18.86-5.74 42.83-5.365 60.655 1.285zm-132.06 26.514l-.03 10.01 7.17-.028-.05 9.09c-20.28.013-22.16.013-43.23.05l-.02-9.13h7.96v-64.24h-7.95v-7.375c20.138 0 24.69 0 43.247-.012.033 3.24.033 3.7.053 7.42-2.765-.03-2.765-.03-7.19-.05l.05 35.1 62.874-35.08s-4.615 0-6.84-.03c.027-3.03.027-3.89.016-7.32l45.196-.04.016 7.403h-11c-12.47 7.53-30.84 18.655-30.84 18.655l42.495 45.59 1.15-.01c0 3.38-.02 5.504 0 9.14l-45.416-.037-.02-9.103 6.604-.017c-18.29-20.058-28.82-31.478-28.82-31.478-11.545 6.903-14.883 8.912-35.42 21.51zm160.05 26.212c-6.4 24.255-32.68 35-55.35 38.137-21.22 2.938-42.91.253-61.11-7.53-12.68-4.893-23.79-17.204-24.85-31.124-1.095-14.37 5.457-27.41 17.258-35.2l13.617 14.37c-4.395 5.02-7.03 11.05-5.774 17.95 2.13 13.3 16.44 22.47 28.49 24.98 21.71 3.51 45.933 2.13 64.006-8.66 8.924-6.38 12.53-12.92 12.53-12.92 4.87.03 6.43.03 11.19.015z" fill="#000"/><path d="M257.683 261.03l-6.603.018.017 9.103 45.415.04c-.02-3.63 0-5.75 0-9.14l-1.15.01-42.493-45.59s18.36-11.12 30.83-18.65h11l-.02-7.4-45.2.05c.01 3.44.01 4.3-.015 7.33 2.224.03 6.84.03 6.84.03l-62.88 35.08-.045-35.09c4.426.015 4.426.015 7.187.05-.015-3.72-.015-4.19-.05-7.42-18.56.012-23.11.012-43.246.012v7.373h7.958v64.24h-7.952l.016 9.13c21.07-.037 22.95-.037 43.23-.05l.055-9.09-7.17.028c.018-4.64.018-6.052.03-10.01 20.537-12.594 23.878-14.603 35.423-21.505 0 0 10.53 11.42 28.82 31.47zm85.514-7.112c5.142 0 6.24 0 10.292.016V222.78c-3.97 0-5.86 0-10.17.018l-7.38 5.912c-2.59-1.46-10.45-4.156-10.45-4.156-17.827-6.65-41.8-7.025-60.65-1.287l11.56 12.443c24.39-5.4 50.97-1.5 66.78 18.2zm-13.428 36.27c-18.08 10.796-42.3 12.178-64.01 8.664-12.05-2.51-26.36-11.675-28.49-24.976-1.26-6.905 1.38-12.93 5.77-17.95l-13.61-14.366c-11.8 7.783-18.36 20.827-17.26 35.198 1.06 13.92 12.17 26.23 24.85 31.126 18.2 7.78 39.9 10.467 61.11 7.53 22.67-3.137 48.946-13.88 55.35-38.138-4.763.02-6.32.02-11.19-.012 0 0-3.607 6.54-12.53 12.924z" fill="#E31837"/></g></svg>