<svg width="512" height="512" viewBox="0 0 512 512" xmlns="http://www.w3.org/2000/svg" xmlns:xlink="http://www.w3.org/1999/xlink"><title>miami-dolphins</title><defs><path id="a" d="M.04.416h463.778V366.96H.04"/></defs><g fill="none" fill-rule="evenodd"><path d="M424.894 166.124c-3.5.846-12.12 1.11-15.796 1.112-3.676 0-8.872-.547-16.854 2.94-5.724 2.5-9.576 7.51-11.3 10.146.547-.77 1.06-1.384 1.49-1.71 0 0 5.817-6.71 17.702-5.837-.394.605-.73 1.456-.35 2.29.005.012.013.025.02.037.053.11.116.223.197.332.02.03.035.057.057.085 0 0 4.258-1.37 7.274-2.28 6.535-1.625 10.588-2.728 14.997-4.535 6.027-2.47 7.952-3.564 7.752-4.03-.198-.468-1.687.604-5.188 1.45" fill="#005778"/><path d="M382.435 178.613c-.43.325-.944.94-1.49 1.71-2.143 3.018-4.778 8.453-4.778 8.453 3.962-5.87 16.45-10.827 23.835-13.34-.08-.11-.145-.223-.197-.334l-.02-.037c-.38-.834-.043-1.685.35-2.29-11.884-.873-17.7 5.838-17.7 5.838" fill="#FFF"/><path d="M394.354 317.22c-2.525 5.127 4.042 20.97 10.046 25.685-4.395-1.317-27.35-7.846-31.032.644-4.048 9.34 18.387 43.607 20.933 50.01-10.342-10.265-38.674-33.276-42.69-30.643-4.014 2.633-3.023 15.458-1.98 21.98-3.89-4.74-10.57-12.34-16.34-10.066-5.77 2.275-5.058 24.295-5.43 33.676-4.76-11.037-12.53-33.256-19.724-32.445-7.193.812-15.263 15.93-16.798 21.708-1.098-5.784-5.804-18.503-12.924-18.503-7.12 0-23.672 33.662-28.677 44.6-.02-8.465 2.007-49.76-2.48-51.807-4.487-2.047-19.63 7.367-22.88 11.65 1.203-5.426 2.227-23.763-1.81-25.977-4.04-2.22-15.554-2.918-36.374 16.336 3.456-7.386 9.147-15.424 10.53-23.216 8.62-.446 17.157-1.423 25.765-3.105 18.786 13.596 41.88 21.62 66.842 21.62 63.045 0 114.152-51.113 114.152-114.168 0-4.94-.32-9.807-.924-14.574 4.228-3.982 8.282-7.838 12.058-11.435-.864 2.067-1.343 4.56-1.263 7.632.247 9.627 25.18 11.682 38.43 12.752-14.798 2.008-40.657 12.72-35.744 18.47 4.91 5.744 19.237 13.643 21.272 14.64-6.828 0-29.27 2.32-31.776 8.683-2.513 6.363 32.473 27.69 45.284 32.704-15.935-4.49-53.94-11.975-56.466-6.85" fill="#F58220"/><path d="M375.037 153.135c-7.466 1.463-15.17 3.61-23.127 6.575-17.975-11.8-39.474-18.675-62.58-18.675-63.04 0-114.146 51.114-114.146 114.162 0 15.18 2.965 29.66 8.343 42.903-6.495 4.814-12.717 8.63-19.092 11.575 4.66-5.55 8.708-16.222 3.444-19.068-3.597-1.948-20.322-2.72-20.322-2.72s18.832-12.658 18.393-21.813c-.438-9.148-30.472-13.836-42.344-16.47 10.476-2.206 44.406-9.872 45.862-16.7 1.462-6.82-10.604-11.668-15.675-14.048 5.683.073 20.088 2.486 22.03-4.548 2.22-8.064-33.252-29.067-41.335-31.98 1.808.426 35.592 8.31 47.943 5.64 9.194-1.996-1.522-14.37-3.29-15.83 2.712 1.322 18.2 4.513 22.634-2.84 4.434-7.354-10.61-36.64-19.03-49.053 7.477 7.46 41.632 31.76 46.724 27.624 5.1-4.136 1.203-17.493-1.528-21.9 5.504 5.152 10.92 12.04 17.915 11.893 3.503-.073 7.91-11.655 8.635-37.83 4.74 14.667 16.054 34.6 24.363 33.39 8.316-1.204 11.155-13.55 12.305-18.81.958 5.645 5.324 20.152 10.87 20.684 6.806 1.064 19.83-29.234 24.568-42.923.718 6.76-4.24 41.487 3.098 44.372 7.332 2.892 19.457-11.728 26.337-19.92-4.173 7.926-12.33 27.094-7.47 31.682 4.86 4.587 21.658-.22 28.205-5.618-1.834 4.015-2.226 7.227-1.728 10.245" fill="#F58220"/><path d="M422.334 168.706c-4.413 1.808-8.462 2.912-15.004 4.534-3.01.91-7.272 2.28-7.272 2.28-.02-.026-.033-.06-.053-.086-7.38 2.513-19.856 7.467-23.832 13.33.16-.325 2.693-5.518 4.773-8.443 1.722-2.64 5.57-7.645 11.295-10.145 7.984-3.484 13.183-2.938 16.86-2.938 3.675 0 12.29-.266 15.793-1.11 3.504-.845 4.993-1.922 5.192-1.45.2.465-1.728 1.556-7.75 4.03zm42.298-16.096c-8.7.864-26.144 7.147-26.144 7.147-31.856-8.27-69.654-9.202-116.026 19.02-8.656 5.274-16.566 10.726-23.886 16.284-7.312 5.56-14.033 11.217-20.3 16.895-2.714 2.446-6.19 5.584-9.168 8.596-15.05 5.02-21.73.327-42.412 3.046-16.366 2.154-22.72 7.74-26.324 12.127-.465 1.264-.42 2.374.432 3.052 1.954 1.57 4.972.784 10.703.36 5.723-.42 14.4-.28 20.122 3.297 3.688 2.293 5.363 7.838 5.976 10.903-4.29 4.548-8.497 8.956-12.745 13.15-26.123 25.85-43.706 41.262-63.382 48.96-42.692 16.716-66.743-2.918-76.374-8.71l-.008.015c-11.685-7.5-27.188-9.98-35.504-11.542-8.316-1.563-12.863-5.585-14.637-7.094-1.775-1.51-3.14-4.05-5.16-3.477-.517.146-.97.305-1.295.61.325-.298.778-.457 1.295-.604.313 3.61 12.425 33.728 50.894 39.2 10.994 1.563 14.49 1.07 16.545.918-6.468-5.684-11.8-13.616-12.252-14.08 1.47 1.276 2.94 2.492 4.408 3.656 11.48 12.26 24.53 17.32 35.492 19.148.718.226 11.534.69 11.534.69 12.617-.265 29.555-3.975 45.276-8.536 46.154-13.397 90.68-53.4 90.68-53.4s-2.473 10.783-3.437 14.6c-.632 3.018-2.9 13.124-7.16 23.7 0 .008-1.275 3.193-3.13 7.095-2.74 5.77-6.588 13.038-6.588 16.077 0 .146.007.28.026.4 0 0 .033.33.166.756 3.47-1.84 8.19-5.032 13.554-9.56 8.402-7.008 19.052-17.672 31.376-32.877 27.694-34.168 32.095-57.558 51.566-75.755 8.242-7.712 29.914-19.626 41.008-23.496.127-.067.213-.107.247-.12.007 0 .007-.007.014 0l.006-.007c18.747-10.704 37.1-18.982 40.078-20.185 10.97-4.415 49.545-17.227 53.607-10.857h.006c-1.7-7.34-10.496-10.258-19.078-9.4z" fill="#008E97"/><path d="M268.935 286.837c-.632 3.02-2.9 13.125-7.16 23.702-15.082 8.004-39.194 18.263-61.004 23.376-42.95 10.072-70.457 1.336-75.17-.206l-.67-.213c1.05.226 11.486.678 11.486.678 2.254.047 31.576 1.197 63.77-10.884 26.317-9.612 52.196-25.31 68.75-36.453" fill="#FFF"/><path d="M272.372 272.237s-2.473 10.784-3.437 14.6c-16.553 11.143-42.432 26.84-68.75 36.454-32.193 12.082-61.515 10.932-63.77 10.885 12.618-.266 29.556-3.976 45.277-8.537 46.154-13.397 90.68-53.4 90.68-53.4" fill="#005778"/><path d="M381.864 253.375c-3.277 10.106-8.31 23.922-14.47 35.61-7.328 13.89-16.98 23.483-22.065 27.166-.846-.51-1.165-1.588-1.19-2.7-.04-1.98 4.307-12.192 6.015-33.687 5.49-4.128 10.424-8.058 14.784-11.68 5.543-4.615 11.253-9.608 16.924-14.708" fill="#008E97"/><path d="M128.093 301.524c-.006 1.363-.193 2.752-.552 4.17-.656 2.42-1.933 5.344-3.993 8.363-1.25 1.84-3.31 4.168-3.337 4.195-.34.02-1.928.086-3.265-.047-1.343-.133-2.772-.372-3.364-.485v-.007c-.364-.498 17.332-12.492 12.54-18.33.265-.04 1.893-.405 1.973 2.14" fill="#005778"/><path d="M481.438 169.683c-.006 0-.006.007-.006.007s-.712 1.05-3.092 3.13c-2.373 2.082-6.414 5.18-13.07 9.276-6.368 3.916-24.116 15.923-37.744 28.522-.505.466-36.94 34.86-37.85 35.703-.1.32-4.827 17.926-16.115 40.823-7.91 16.043-19.716 26.07-23.904 28.363-.265.14-2.698 1.682-4.327.645 5.085-3.682 14.736-13.276 22.063-27.165 6.16-11.688 11.194-25.504 14.47-35.61-5.67 5.1-11.38 10.093-16.924 14.707-4.36 3.623-9.294 7.553-14.785 11.68 0 .02-11.806 8.684-18.48 13.126 0 0-.006 0-.006.006-3.738 2.48-20.856 13.15-31.24 18.816-8.813 4.813-27.274 13.563-27.327 13.59h-.007c-9.612 8.117-17.144 11.907-19.158 11.4-1.236-.304-1.662-1.76-1.69-1.834 3.472-1.84 8.19-5.032 13.556-9.56 8.402-7.008 19.052-17.672 31.377-32.877 27.694-34.168 32.095-57.558 51.565-75.755 8.243-7.712 29.915-19.626 41.01-23.496.126-.067.213-.107.246-.12-12.697 7.246-25.566 15.604-33.96 23.615-16.27 15.205-21.833 32.964-37.946 57.224l-.406.63c54.29-41.18 96.244-88.87 139.62-104.11 1.382-.484 2.69-.936 3.948-1.362.053-.02.106-.033.153-.053 14.763-4.993 20.732-5.77 21.164-2.992.193 1.21-.778 3.012-1.136 3.67" fill="#005778"/><path d="M113.58 317.713v.007c-10.947-2.108-23.764-9.56-27.74-11.82 1.364-1.33 4.72-3.724 11.082-3.332 8.735.538 18.388 1.25 22.908-.107 3.883-1.162 4.62-2.857 6.282-3.077h.007c4.792 5.838-12.904 17.832-12.54 18.33" fill="#008E97"/><path d="M226.698 223.594c20.676-2.718 27.36 1.975 42.412-3.046 2.974-3.01 6.45-6.144 9.16-8.593-4.258 1.37-7.55 2.182-10.652 2.732-7.048 1.392-12.162 1.028-26.78 2.95-22.97 3.02-33.712 10.22-36.723 13.003-.91.84-1.605 1.568-2.56 2.897-.657.914-1.12 1.997-1.19 2.194 3.607-4.39 9.958-9.982 26.333-12.136" fill="#005778"/><g transform="translate(24 73)"><mask id="b" fill="#fff"><use xlink:href="#a"/></mask><path d="M234.644 244.633c-2.738 5.77-6.587 13.038-6.587 16.077 0 .146.007.28.026.4-35.02 13.68-63.577 13.036-63.683 13.043-48.155 2.28-86.046-17.326-86.046-17.326s0-.007-.007-.007c-.1 0-.365.007-.77.007-4.522 0-26.884-.346-41.568-7.167-16.062-7.453-25.302-19.135-29.323-27.918-2.992-6.542-3.14-8.63-2.187-9.494.08-.073.172-.14.265-.2 0 0 .007 0 .007-.006.285-.173.638-.292 1.023-.4.313 3.61 12.425 33.73 50.894 39.2 10.994 1.564 14.49 1.072 16.545.92-6.468-5.686-11.8-13.618-12.252-14.083 1.47 1.276 2.94 2.492 4.408 3.656 11.48 12.26 24.53 17.32 35.492 19.148.013.006.027.006.047.013h.005l.047.013.618.2c4.713 1.542 32.22 10.278 75.17.206 21.81-5.113 45.923-15.372 61.005-23.377 0 .006-1.276 3.19-3.13 7.093" fill="#005778" mask="url(#b)"/><path d="M459.705 89.01c-4.062-6.37-42.637 6.443-53.606 10.858-2.98 1.203-21.333 9.48-40.1 20.192-12.697 7.246-25.566 15.604-33.96 23.615-16.27 15.205-21.833 32.964-37.946 57.224l-.406.63c54.29-41.18 96.244-88.87 139.62-104.11 1.382-.484 2.69-.936 3.948-1.362.053-.02.106-.033.153-.053 14.763-4.993 20.732-5.77 21.164-2.992.193 1.21-.778 3.012-1.142 3.677 0 0-.712 1.05-3.092 3.13-2.373 2.082-6.414 5.18-13.07 9.276-6.368 3.916-24.116 15.923-37.744 28.522-.505.466-36.94 34.86-37.85 35.703-.1.32-4.827 17.926-16.115 40.823-7.91 16.043-19.716 26.07-23.904 28.363-.265.14-2.698 1.682-4.327.645-.846-.51-1.165-1.588-1.19-2.7-.04-1.98 4.307-12.192 6.015-33.687 0 .02-11.806 8.683-18.486 13.13-3.738 2.48-20.856 13.152-31.24 18.817-8.813 4.813-27.274 13.563-27.334 13.59-9.612 8.117-17.144 11.907-19.158 11.4-1.236-.304-1.662-1.76-1.69-1.834-.13-.425-.165-.757-.165-.757-35.02 13.68-63.577 13.036-63.683 13.043-48.155 2.28-86.046-17.326-86.053-17.333-.1 0-.365.007-.77.007-4.522 0-26.884-.346-41.568-7.167-16.062-7.453-25.302-19.135-29.323-27.918-2.992-6.542-3.14-8.63-2.187-9.494.325-.305.778-.465 1.295-.61 2.02-.573 3.385 1.967 5.16 3.476 1.774 1.51 6.32 5.53 14.637 7.094 8.316 1.562 23.82 4.042 35.512 11.528 9.63 5.79 33.682 25.425 76.374 8.71 19.676-7.7 37.26-23.11 63.384-48.96 4.247-4.195 8.455-8.603 12.744-13.15-.612-3.066-2.288-8.61-5.977-10.904-5.724-3.577-14.4-3.717-20.123-3.298-5.73.425-8.748 1.21-10.703-.36-.7-.56-.823-1.447-.646-2.28.18-.85.564-1.65 1.024-2.385.12-.194.24-.39.373-.573.956-1.33 1.652-2.057 2.56-2.897 3.01-2.782 13.753-9.98 36.722-13.004 14.62-1.92 19.733-1.557 26.78-2.95 3.104-.55 6.395-1.362 10.658-2.73 6.268-5.68 12.99-11.337 20.3-16.895 7.32-5.557 15.23-11.01 23.887-16.282 46.373-28.223 84.17-27.292 116.026-19.02 0 0 17.443-6.284 26.144-7.148 8.582-.858 17.378 2.06 19.073 9.4zm-31.922 87.562c-14.798 2.008-40.657 12.72-35.744 18.47 4.91 5.744 19.237 13.643 21.272 14.64-6.828 0-29.27 2.32-31.776 8.683-2.513 6.363 32.473 27.69 45.284 32.704-15.935-4.49-53.94-11.975-56.466-6.85-2.525 5.127 4.042 20.97 10.046 25.685-4.395-1.317-27.35-7.846-31.032.644-4.048 9.34 18.387 43.607 20.933 50.01-10.342-10.265-38.674-33.276-42.69-30.643-4.014 2.633-3.023 15.458-1.98 21.98-3.89-4.74-10.57-12.34-16.34-10.066-5.77 2.275-5.058 24.295-5.43 33.676-4.76-11.037-12.53-33.256-19.724-32.445-7.193.812-15.263 15.93-16.798 21.708-1.098-5.784-5.804-18.503-12.924-18.503-7.12 0-23.672 33.662-28.677 44.6-.02-8.465 2.007-49.76-2.48-51.807-4.487-2.047-19.63 7.367-22.88 11.65 1.203-5.426 2.227-23.763-1.81-25.977-4.04-2.22-15.554-2.918-36.374 16.336 3.456-7.386 9.147-15.424 10.53-23.216 8.62-.446 17.157-1.423 25.765-3.105 18.786 13.596 41.88 21.62 66.842 21.62 63.045 0 114.152-51.113 114.152-114.168 0-4.94-.32-9.807-.924-14.574 4.228-3.982 8.282-7.838 12.058-11.435-.864 2.067-1.343 4.56-1.263 7.632.247 9.627 25.18 11.682 38.43 12.752zm-354.86 52.996c8.734.538 18.387 1.25 22.907-.107 3.883-1.162 4.62-2.857 6.282-3.077h.007c.265-.04 1.893-.405 1.973 2.14-.006 1.364-.193 2.753-.552 4.17-.656 2.42-1.933 5.345-3.993 8.364-1.25 1.84-3.31 4.168-3.337 4.195-.34.02-1.928.086-3.265-.047-1.343-.133-2.772-.372-3.364-.485-10.947-2.108-23.764-9.56-27.74-11.82 1.364-1.33 4.72-3.724 11.082-3.332zm70.956-11.96c-3.597-1.95-20.322-2.72-20.322-2.72s18.832-12.66 18.393-21.814c-.438-9.148-30.472-13.836-42.344-16.47 10.476-2.206 44.406-9.872 45.862-16.7 1.462-6.82-10.604-11.668-15.675-14.048 5.683.073 20.088 2.486 22.03-4.548 2.22-8.064-33.252-29.067-41.335-31.98 1.808.426 35.592 8.31 47.943 5.64 9.194-1.996-1.522-14.37-3.29-15.83 2.712 1.322 18.2 4.513 22.634-2.84 4.434-7.354-10.61-36.64-19.03-49.053 7.477 7.46 41.632 31.76 46.724 27.624 5.1-4.136 1.203-17.493-1.528-21.9 5.504 5.152 10.92 12.04 17.915 11.893 3.503-.073 7.91-11.655 8.635-37.83 4.74 14.667 16.054 34.6 24.363 33.39 8.316-1.204 11.155-13.55 12.305-18.81.958 5.645 5.324 20.152 10.87 20.684 6.806 1.064 19.83-29.234 24.568-42.923.718 6.76-4.24 41.487 3.098 44.372 7.332 2.892 19.457-11.728 26.337-19.92-4.173 7.926-12.33 27.094-7.47 31.682 4.86 4.587 21.658-.22 28.205-5.618-1.834 4.015-2.226 7.227-1.728 10.245-7.466 1.463-15.17 3.61-23.127 6.575-17.975-11.8-39.474-18.675-62.58-18.675-63.04 0-114.146 51.114-114.146 114.162 0 15.18 2.965 29.66 8.343 42.903-6.495 4.814-12.717 8.63-19.092 11.575 4.66-5.55 8.708-16.222 3.444-19.068zm319.923-127.45c-.077-1.732-.407-2.76-.407-2.76l-.006-.01c-2.107-7.364-9.625-11.912-19.863-11.912-1.088 0-2.196.055-3.29.165-7.845.78-21.795 5.504-25.935 6.952-13.003-3.287-25.19-4.886-37.222-4.886-6.218 0-12.402.44-18.57 1.3l.008-.003-2.544.343s-.99-3.22 1.6-10.74c1.34-3.9 3.183-7.488 3.183-7.488s-28.316 14.72-31.85 10.02c-3.537-4.697 12.297-42.05 12.297-42.05s-27.297 30.333-32.66 28.988c-2.1-.527-2.302-11.514-2.406-23.337-.142-16.01.415-34.324.415-34.324s-22.477 55.89-27.962 55.598c-4.754-.252-11.673-30.085-11.673-30.085s-4.34 25.707-12.142 28.85c-7.8 3.145-27.868-44.932-27.868-44.932s-.927 48.12-6.51 49.2c-5.58 1.08-23.35-16.904-23.35-16.904s8.33 23.97 5.51 27.126c-1.685 1.884-18.776-8.685-36.56-21.442-10.27-7.37-18.86-13.546-18.86-13.546s10.02 16.65 17.99 34.05c5.485 11.98 8.814 23.478 7.38 25.716-3.52 5.49-29.913-2.334-29.913-2.334s15.002 14.455 14.035 18.177c-.47 1.808-15.39.503-30.55-1.57-16.082-2.2-32.446-5.232-32.446-5.232s53.558 31.143 51.877 36.748c-1.33 4.435-34.662.803-34.662.803s28.98 13.24 28.863 17.617c-.116 4.377-56.725 18.702-56.725 18.702s51.27 10.725 52.25 16.444c.98 5.72-20.22 24.067-20.22 24.067s24.682 2.232 25.907 5.465c1.226 3.23-5.998 16-12.268 18.024-7.748 2.5-14.802 4.093-23.394 4.093-1.236 0-2.443-.035-3.625-.1.425-.55.845-1.116 1.21-1.656 2.114-3.095 3.688-6.402 4.545-9.558l.01-.033.007-.034c.44-1.733.666-3.46.674-5.13l.002-.072-.003-.072c-.06-1.9-.677-3.518-1.797-4.62-2.1-1.83-4.057-1.613-5.46-.988l-4.87 2.388c-.364.16-.773.314-1.268.463-.932.28-2.897.614-6.97.614-3.862 0-8.458-.288-12.903-.566 0 0-2.73-.152-3.256-.152-5.302 0-8.842 1.688-10.974 3.233l-1.16-.612c-10.844-5.76-23.464-8.09-31.345-9.546-.613-.113-1.198-.216-1.75-.325-8.703-1.707-13.467-6.874-13.855-7.293-.737-.798-1.698-1.83-2.95-2.555 0 0-2.266-1.414-5.623-.38-2.192.77-3.117 2.478-3.117 2.478-1.877 3.12-.086 7.698 2.276 12.863 2.686 5.87 11.11 20.523 31.27 29.878 6.6 3.066 15.284 5.248 25.81 6.485 7.92.93 14.61 1.048 17.276 1.053 2.567 1.25 10.467 4.902 22.212 8.574 12.895 4.03 33.046 8.823 56.134 8.93 0 0 8.193.105 12.616-.177.446 1.844-2.755 8.44-6.6 16.17-4.556 9.16-10.404 19.997-10.404 19.997s10.563-9.336 20.408-16.258c9.91-6.967 21.008-12.565 23.632-9.34 4.958 6.096-.333 31.25-.333 31.25s20.02-17.716 24.66-15.317c2.126 1.1 2.34 14.337 2.347 28.28.01 16.525-.415 34.075-.415 34.075s27.573-55.8 33.31-54.206c5.735 1.594 12.014 27.036 12.014 27.036s10.475-30.996 16.876-30.244c2.56-.314 8.058 9.74 12.944 20.016 5.356 11.263 9.945 22.273 9.945 22.273s.112-11.51.915-23.27c.725-10.625 2.075-20.998 4.41-21.573 4.92-1.21 19.188 17.916 19.188 17.916s-5.045-26.66-1.092-28.92c3.955-2.258 51.45 38.81 51.45 38.81s-31.17-57.76-27.378-62.17c3.79-4.41 37.08 4.587 37.08 4.587s-4.96-5.858-9.205-12.476c-4.436-6.92-8.13-14.654-6.395-16.514 1.576-1.69 18.933.07 36.864 3.548 20.674 4.01 34.123 6.87 34.123 6.87s-12.178-6.59-30.136-17.397c-15.548-9.356-29.226-19.888-28.643-21.596 1.26-3.68 38.394-7.214 38.394-7.214s-6.233-3.666-12.93-7.762c-7.27-4.446-15.03-9.98-15.03-12.008 0-1.772 9.31-6.162 21.59-9.94 14.724-4.528 28.343-7.563 28.343-7.563s-50.624-4.065-53.785-11.284c-2.16-4.93 1.806-11.36 4.713-15.513 2.907-4.153 7.067-7.92 7.067-7.92 13.83-12.774 31.434-24.534 37.058-27.993.398-.245.777-.485 1.164-.727 0 0 12.986-9.59 14.32-10.71 1.164-.976 4.134-4.092 4.802-8.057 0 0 .233-1.094.157-2.842z" fill="#FFF" mask="url(#b)"/></g></g></svg>