<svg width="512" height="512" viewBox="0 0 512 512" xmlns="http://www.w3.org/2000/svg"><title>new-york-giants</title><g fill="none" fill-rule="evenodd"><path d="M402.014 138.286H355.96l.085 109.053c-.026 2.617-.72 15.898-11.686 15.903-4.056.005-5.908-1.4-6.947-2.458-3.44-3.5-4.093-10.233-4.056-12.53l-.08-109.968h-74.715l.025 44.438 8.483-.003c7.754-.002 10.303 1.986 11.04 2.84.726.846.847 1.923.847 2.56 0 .313-.03.52-.033.545l-.112.583-.032.99.042 73.184c.01 14.223 4.707 26.426 13.574 35.295 9.23 9.23 22.51 14.304 37.396 14.29 10.964-.008 19.758-2.67 26.388-5.82.007 1.055.02 2.14.02 3.163 0 7.477-.227 13.865-1.378 15.257-.298.233-1.952 1.14-9.72 1.147h-221.17v51.146h237.91c17.42-.01 30.594-5.074 39.15-14.864 8.538-9.773 9.613-21.608 9.613-27.73 0-1.548.063-2.678 0-3.372-.004-.783 0-193.65 0-193.65h-8.59v-.002zM123.93 309.854l52.918-.04-.08-113.688-.066-.585c-.005-.046-.47-4.606 2.093-7.473 2.364-2.64 6.935-3.198 10.355-3.2 3.694-.002 6.33.847 8.058 2.6 2.472 2.504 2.97 6.762 2.95 8.192v.214l.072 85.735.006-.307c-.046 1.316-.224 13.083 7.66 21.262 4.556 4.726 10.855 7.224 18.213 7.223l45.368-.04-.027-44.84-9.682 1.267c-1.113.145-4.716.192-6.582-1.448-1.514-1.332-1.997-4.083-2-6.156v-80.855.346c.03-.727.672-17.97-11.372-30.516-7.936-8.27-19.113-12.458-33.213-12.448-14.534.016-25.055 4.057-32.56 9.04l-.004-5.85h-74.018l.027 46.54 10.308-2.188c2.064-.44 7.073-.67 9.383 1.414 1.68 1.51 2.196 4.532 2.196 7.207v118.594z" fill="#A71930"/><path d="M283.503 263.423c.01 12.953 4.215 24.013 12.185 31.986 8.35 8.348 20.46 12.94 34.1 12.926 14.528-.01 24.873-4.953 31.004-9.076l.022 3.433c.027 2.905.053 5.577.053 8.02 0 9.764-.41 15.838-2.724 18.18-1.72 1.74-5.5 2.453-13.04 2.46l-216.506.155v41.806l233.24-.176c16.02-.013 28.012-4.447 35.64-13.177 7.547-8.637 8.662-19.096 8.662-24.51 0-1.663-.104-2.818-.16-3.33l-.142-189.16H360.63l.083 104.373c-.003.83-.267 20.572-16.348 20.582-4.376.006-7.75-1.266-10.308-3.886-5.537-5.678-5.365-15.773-5.365-15.874.004-.103-.076-105.197-.076-105.197h-65.39l.027 35.087h3.814c7.127-.005 12.205 1.585 14.682 4.593 2.474 2.998 1.784 6.67 1.753 6.826v73.957zM128.6 305.177l43.578-.033-.075-108.792-.034-.26c-.008-.065-.778-6.558 3.187-11.07 2.813-3.2 7.484-4.826 13.89-4.83 4.97-.005 8.82 1.357 11.435 4.045 4.37 4.488 4.243 11.44 4.242 11.51l.074 85.854c-.015.305-.304 10.805 6.355 17.713 3.708 3.846 8.707 5.795 14.856 5.795l40.7-.034-.022-34.91-4.38.64c-.064.008-6.33.87-10.253-2.528-2.3-1.993-3.47-5.26-3.47-9.706l-.057-80.855c.024-.493.507-15.81-10.173-26.936-7.026-7.313-17.068-11.02-29.852-11.01-19.147.02-30.692 7.456-37.222 14.172l-.007-10.98h-64.688l.024 36.144 4.654-1.037c.085-.02 8.61-1.856 13.46 2.475 2.453 2.19 3.775 5.768 3.775 10.667v113.965z" fill="#0B2265"/></g></svg>