<svg width="512" height="512" viewBox="0 0 512 512" xmlns="http://www.w3.org/2000/svg"><title>new-york-giants</title><g fill="none" fill-rule="evenodd"><path d="M402.014 138.286H355.96l.085 109.053c-.026 2.61-.72 15.89-11.686 15.9-4.06 0-5.91-1.4-6.95-2.46-3.44-3.5-4.1-10.24-4.06-12.53l-.08-109.97h-74.71l.02 44.44 8.48-.01c7.75 0 10.3 1.983 11.04 2.84.72.843.84 1.92.84 2.56 0 .31-.03.52-.03.542l-.11.583-.03.99.04 73.182c.01 14.222 4.704 26.425 13.57 35.294 9.23 9.23 22.51 14.307 37.397 14.29 10.965-.005 19.76-2.67 26.39-5.82.006 1.058.02 2.14.02 3.166 0 7.477-.228 13.865-1.38 15.257-.297.235-1.95 1.14-9.72 1.15H123.93v51.15h237.91c17.42-.01 30.595-5.074 39.15-14.864 8.54-9.774 9.614-21.61 9.614-27.73 0-1.55.063-2.68 0-3.373-.004-.782 0-193.65 0-193.65h-8.59zM123.93 309.854l52.918-.04-.08-113.688-.066-.585c-.005-.04-.47-4.6 2.093-7.47 2.364-2.64 6.935-3.2 10.355-3.2 3.694 0 6.33.85 8.058 2.6 2.472 2.51 2.97 6.76 2.95 8.19v.22l.072 85.74.006-.303c-.046 1.316-.224 13.083 7.66 21.26 4.556 4.727 10.855 7.225 18.213 7.224l45.36-.04-.03-44.84-9.688 1.268c-1.113.147-4.716.194-6.58-1.446-1.515-1.332-1.998-4.083-2-6.156v-80.86.346c.03-.726.67-17.97-11.37-30.515-7.938-8.27-19.115-12.45-33.215-12.44-14.533.015-25.054 4.056-32.56 9.04l-.003-5.85h-74.01l.025 46.54 10.307-2.19c2.066-.44 7.075-.67 9.385 1.413 1.68 1.51 2.196 4.53 2.196 7.207v118.59z" fill="#A71930"/><path d="M283.503 263.423c.01 12.953 4.215 24.013 12.185 31.986 8.35 8.34 20.46 12.94 34.1 12.92 14.528-.01 24.873-4.96 31.004-9.08l.022 3.43c.027 2.9.053 5.572.053 8.02 0 9.76-.41 15.833-2.724 18.18-1.72 1.74-5.5 2.45-13.04 2.46l-216.506.15v41.81l233.24-.175c16.02-.013 28.012-4.447 35.64-13.177 7.547-8.64 8.662-19.1 8.662-24.51 0-1.667-.11-2.82-.16-3.33l-.15-189.16h-45.2l.08 104.37c-.01.83-.27 20.572-16.35 20.582-4.38.007-7.75-1.265-10.31-3.885-5.54-5.68-5.367-15.774-5.367-15.875.004-.1-.076-105.195-.076-105.195h-65.39l.027 35.09h3.814c7.127-.007 12.205 1.583 14.682 4.59 2.47 3 1.78 6.67 1.75 6.827v73.96zM128.6 305.177l43.578-.033-.075-108.792-.034-.26c-.01-.065-.78-6.558 3.18-11.07 2.81-3.2 7.48-4.826 13.89-4.83 4.97-.005 8.82 1.357 11.43 4.045 4.37 4.488 4.24 11.44 4.24 11.51l.07 85.854c-.014.31-.303 10.81 6.356 17.72 3.71 3.85 8.707 5.8 14.856 5.8l40.7-.03-.02-34.91-4.38.64c-.066.008-6.33.87-10.255-2.53-2.3-1.99-3.47-5.26-3.47-9.704l-.057-80.853c.024-.493.507-15.81-10.173-26.936-7.024-7.312-17.066-11.02-29.85-11.01-19.145.02-30.69 7.457-37.22 14.173l-.007-10.98h-64.69l.024 36.14 4.652-1.036c.083-.02 8.61-1.858 13.46 2.473 2.45 2.19 3.773 5.77 3.773 10.668v113.96z" fill="#0B2265"/></g></svg>