<svg width="512" height="512" viewBox="0 0 512 512" xmlns="http://www.w3.org/2000/svg"><title>new-york-jets</title><g fill="none" fill-rule="evenodd"><path d="M461.932 255.07c0-56.075-91.92-116.163-207.015-116.163-110.19 0-207.016 60.455-207.016 116.162 0 55.705 96.827 116.163 207.017 116.163 115.095 0 207.015-60.09 207.015-116.164" fill="#203731"/><path d="M334.983 194.635v12.204h19.443l.125-.01c1.045-.067 2.748.208 3.134.833.337.586.23 2.694-2.45 6.883-.03.058-18.727 31.185-25.664 42.743l-27.367-43.786c-2.273-3.484-2.006-4.873-1.735-5.38.494-.926 1.256-1.18 2.84-1.282h14.147v-12.207l-105.422-.012v12.15h13.33c2.71 0 4.585.547 5.7 1.667 1.865 1.86 2.247 5.802 2.247 11.138v44.775l-53.385-69.69h-52.66v12.766h17.294c1.832 0 3.13.347 3.807 1.038 1.342 1.325 1.342 4.712 1.342 7.976v70.303c0 11.637-1.245 14.83-5.81 14.87h-16.777v11.256h56.454v-11.387H167.64c-2.68.024-4.6-.103-5.29-.78-1.484-1.478-1.612-7.977-1.612-13.96v-61.87l72.736 88.107h11.402s.08-98.077 0-99.818c-.13-2.666.6-5.712 5.36-6.323h11.328c5.243-.023 8.672 6.323 12.2 12.314 0 0 27.238 46.304 30.864 52.433v22.344c0 7.582-3.368 7.582-4.797 7.582H287.05v11.39l67.01.002v-11.502h-12.23c-4.743-.255-6.39-1.618-6.207-8.656v-23.066l32.705-54.852c4.677-7.26 5.173-8.013 11.59-7.93H391v-12.267h-56.017" fill="#FFF"/><path d="M338.03 197.683v6.11h16.267s12.044-1.003 3.51 12.39L329.61 263.12l-30.004-48c-7.788-12.367 3.826-11.327 3.826-11.327h10.973v-6.11l-99.32-.015v6.06h10.277c9.862 0 10.99 6.355 10.99 15.85v53.76l-57.937-75.628h-48.102v6.675h14.247c9.09-.017 8.098 7.143 8.197 14.112v68.25c0 9.492-.392 17.85-8.832 17.913h-13.75v5.164h50.36v-5.298H167.64c-8.623.07-9.948-1.24-9.948-17.78v-71.09l77.232 94.28h6.307v-91.028c0-9.488.185-14.756 9.005-15.115h12.537c6.7.484 10.256 8.228 14.987 16.346l29.9 50.616v23.175c0 7.204-2.82 10.633-7.832 10.633H290.1v5.296h60.91v-5.412h-9.28c-7.436-.38-9.357-4.21-9.156-11.787v-23.817l30.81-52.04c6.883-10.332 7.264-13.075 16.572-12.948h8.003v-6.172h-49.93" fill="#203731"/><path d="M301.79 311.368c0-13.78-20.817-28.545-46.873-28.545-24.948 0-46.88 14.857-46.88 28.545 0 13.683 21.928 28.536 46.88 28.536 26.052.002 46.873-14.76 46.873-28.536" fill="#203731"/><path d="M298.645 309.83c-1.524-11.792-20.37-23.85-43.728-23.85-22.36 0-42.112 12.122-43.73 23.85h87.458" fill="#FFF"/><path d="M211.186 312.876c1.59 11.736 21.36 23.878 43.73 23.878 23.37 0 42.234-12.077 43.748-23.878h-87.478" fill="#FFF"/><path d="M239.103 321.555c-5.923 0-10.738-4.563-10.738-10.184 0-5.63 4.815-10.19 10.738-10.19h31.628c5.923 0 10.72 4.56 10.72 10.19 0 5.624-4.796 10.185-10.72 10.185h-31.627" fill="#203731"/><path d="M272.38 306.827l-.226-.902h-2.99c.116.317.196.64.28.967.24.957.41 1.944.494 2.955h-5.347c-.077-.94-.226-1.865-.437-2.72l-2.89.038c.266.86.45 1.755.553 2.68h-5.408v-2.55h-2.988v2.55H248c.114-.926.28-1.824.553-2.68l-2.88-.037c-.21.854-.35 1.776-.438 2.72h-5.36c.098-1.012.253-2 .512-2.956l.265-.967h-2.988l-.214.902c-.338 1.486-.508 3.032-.508 4.626 0 1.853.238 3.65.676 5.368l3.01.037c-.397-1.272-.655-2.595-.767-3.96h5.363c.068.944.223 1.893.45 2.795l2.836-.034c-.267-.894-.44-1.82-.524-2.762h5.434v2.635h2.988v-2.634h5.43c-.084.94-.265 1.868-.53 2.762l2.845.034c.227-.904.38-1.85.45-2.796h5.362c-.113 1.365-.366 2.69-.762 3.96l2.99-.035c.45-1.718.698-3.514.698-5.367 0-1.594-.186-3.14-.51-4.626" fill="#FFF"/><path d="M391.326 234.81c-3.1-5.86-11.296-9.203-23.685-9.673-9.11-.3-16.25.173-21.91 1.627l-149.075.065c4.33-8.108 7.62-14.24 7.62-14.24H167.51l-25.248 47.514c-2.05 3-2.332 3.176-4.432 2.95-.6-.06-1.01-.15-1.28-.227.38-1.304 1.874-3.83 2.425-4.75-.016.03 8.787-14.455 8.787-14.455H113.48l-1.028 1.418c-9.41 12.965-12.202 23.418-8.265 31.062 3.764 7.342 13.02 11.023 27.504 10.933 14.618-.085 23.814-.776 31.134-5.554h74.374l19.168-35.792h16.525l-19.075 35.73h37.96l11.934-22.385h16.07l-.834 2.035c-2.935 7.21-1.355 11.987.476 14.723 3.6 5.36 11.33 8.085 22.968 8.11 19.608-.042 32.12-1.837 38.114-10.962 4.965-7.54 5.7-14.4 2.088-19.34-.99-1.395-2.564-2.608-4.43-3.653h10.807l1.016-1.623c3.797-6.11 2.822-10.715 1.34-13.51" fill="#203731"/><path d="M141.654 247.05h-26.42c-17.766 24.44-9.044 36.713 16.447 36.555 23.207-.14 31.36-1.626 41.034-19.312l25.834-48.277h-28.964l-24.392 45.866c-2.285 3.356-3.566 5.022-7.716 4.583-6.57-.69-4.78-4.532-1.45-10.14l5.628-9.275" fill="#FFF"/><path d="M259.544 277.984h30.174l19.02-35.43h13.905l6.66-12.36h-61.084l-6.508 12.066h16.89l-19.058 35.724" fill="#FFF"/><path d="M322.12 262.36c-4.612 11.335 2.37 18.07 20.283 18.11 19.387-.037 30.246-1.825 35.24-9.42 3.404-5.162 5.346-11.138 2.17-15.443-2.17-3.106-9.983-5.81-17.375-7.248-4.712-.917-6.365-2.046-6.04-4.825.297-2.524 3.444-3.112 5.802-2.42 1.9.56 2.733 2.93 2.425 5.404h22.446c6.077-9.784-.962-17.25-19.57-17.95-23.02-.757-31.794 3.483-36.43 15.207-2.315 5.43-1.935 9.613 1.436 11.83 4.205 2.755 15.84 4.506 19.31 5.79 2.103.783 2.396 3.36 1.215 4.886-1.382 1.75-4.684 2.583-6.774.96-1.436-1.114-1.196-2.498-1.678-4.883h-22.46" fill="#FFF"/><path d="M177.387 278.054h57.75l6.477-12.073h-31.6l3.032-5.79h28.1l6.606-12.31h-26.424l2.653-5.558h28.566l6.43-12.07H202.98l-25.593 47.802" fill="#FFF"/></g></svg>