<svg width="512" height="512" viewBox="0 0 512 512" xmlns="http://www.w3.org/2000/svg"><title>new-england-patriots</title><g fill="none" fill-rule="evenodd"><path d="M489.243 157.203c-45.947 13.338-83.803-18.43-140.832-17.464l-.087-.006s-78.38-2.315-153.734 26.038c-75.914 27.143-127.935 47.732-177.064 53.638-11.543 1.812-12.628 19.396 1.18 20.308 45.44 1.718 76.154-1.49 106.185-7.5-4.276 13.203 9.015 14.534 9.212 14.543 35.672 4.474 64.613.797 92.807-5.074-7.196 8.702-1.37 16.5 4.835 17.812 106.37 18.843 146.884 72.806 185.804 111.156 10.92-1.432 34.245-15.33 26.73-43.447 0 0 2.868-6.24 2.864-11.16l13.438-8.043s-5.686-28.407-6.386-31.674c7.368-3.847 20.745-10.55 20.745-10.55s24.24-85.515 27.162-96.524c2.614-9.877-7.6-13.58-12.86-12.053zm-470.34 72.312c84.97-11.594 155.1-52.006 227.28-68.34 2.27 8.825 6.385 26.448 6.385 26.448-103.272 21.763-114.183 45.707-233.664 41.892zm115.224 7.018c56.463-8.245 90.586-29.312 122.57-36.044 1.89 7.89 4.34 15.988 5.934 22.384-83.96 22.89-128.503 13.66-128.503 13.66zM466.33 258.73c-8.062 3.87-15.98 7.947-23.822 12.29 2.74 10.437 4.228 21.675 6.7 32.058l-12.282 7.177.042 7.56-3.864 10.096c4.533 6.01 3.257 14.71-.298 20.772-2.99 4.895-7.802 8.568-12.58 11.28 0 0-69.057-94.015-186.7-110.512 33.114-5.248 45.67-20.413 102.866-20.256-20.306-11.21-46.303-12.103-70.07-6.767-1.274-5.02-5.712-23.11-5.712-23.11 15.31-4.378 31.14-6.19 47.328-7.34-15.466-5.893-32.615-6.546-50.427-4.99-2.132-8.898-3.96-17.532-6.34-26.83 30.43-6.98 64.422-10.45 96.97-10.215 38.115.27 89.145 17.544 89.145 17.544 17.252 4.797 37.296 4.782 54.883-.506-2.534 11.06-25.837 91.75-25.837 91.75zm-22.908-56.036c-1.14-4.65-3.393-17.9-4.055-19.167l-11.605 15.052s-15.663-4.104-24.376-5.866c5.47 5.763 10.853 10.988 15.712 16.713-4.606 6.998-10.513 13.64-15.335 20.375 8.913-3.024 17.978-5.714 26.89-8.808 6.448 6.542 13.342 13.675 19.717 19.947-1.102-8.53-3.63-17.075-4.436-25.14l20.24-6.894c-7.302-2.36-15.247-3.938-22.752-6.212z" fill="#FFF"/><path d="M437.28 167.483s-51.027-17.278-89.145-17.544c-32.55-.233-66.54 3.234-96.97 10.212 2.38 9.3 4.21 17.93 6.342 26.83 17.812-1.553 34.96-.905 50.43 4.99-16.196 1.15-32.02 2.962-47.33 7.34 0 0 4.434 18.094 5.71 23.11 23.767-5.336 49.764-4.444 70.07 6.766-57.196-.154-69.753 15.01-102.866 20.26C351.166 265.942 420.223 359.96 420.223 359.96c4.78-2.715 9.59-6.386 12.58-11.282 3.557-6.06 4.83-14.764.3-20.772l3.863-10.1-.043-7.554 12.28-7.18c-2.47-10.38-3.96-21.62-6.7-32.056 7.842-4.344 15.763-8.42 23.825-12.29 0 0 23.305-80.688 25.835-91.753-17.58 5.292-37.627 5.305-54.88.51zm-14.013 131.29l-2.97 3.732c3.31 1.227 7.008 3.42 10.258 4.724l-.24 4.117-8.964.24-11.388 8.98s8.773-1.493 13.325-2.736l8.448-.003c-.915 2.487-1.918 4.643-2.98 6.864l-8.345.347s5.067 6.043 8.563 9.927c3.923 6.667-6.864 14.848-6.864 14.848-19.31-21.596-40.292-44.28-65.912-58.875 2.602-4.038 6.473-6.193 11.05-5.704 9.53 1.852 17.718 8.29 20.003 10.712 2.966 3.158 8.365 11.256 9.974 12.414-.804-6.5-3.12-13.076-4.68-19.613L363.652 268.9c3.037-8.088 13.49-13.74 22.6-14 8.833-.26 17.46-.183 23.997 4.99-15.07-.205-20.496 7.39-22.726 14.36-.11.546 30.788-.122 30.788-.122 1.16-3.18 1.63-6.6 3.898-9.283 2.37-3.438 6.742-4.637 10.54-4.728.723 2.55 7.5 38.287 7.5 38.287-5.91.11-11.017-.01-16.98.368zm27.105-57.835c-6.375-6.272-13.27-13.406-19.716-19.947-8.914 3.09-17.977 5.784-26.89 8.808 4.82-6.732 10.728-13.38 15.334-20.377-4.86-5.723-10.24-10.946-15.71-16.71 8.707 1.765 24.375 5.865 24.375 5.865l11.604-15.05c.66 1.267 2.912 14.52 4.055 19.167 7.507 2.273 15.45 3.853 22.753 6.21l-20.24 6.895c.805 8.066 3.335 16.61 4.434 25.14z" fill="#024"/><path d="M422.204 264.847c-2.265 2.68-2.74 6.103-3.898 9.283 0 0-30.896.668-30.786.122 2.225-6.97 7.652-14.564 22.725-14.36-6.538-5.174-15.168-5.248-23.996-4.99-9.11.26-19.565 5.91-22.6 14l28.89 19.847c1.563 6.537 3.877 13.113 4.68 19.612-1.605-1.158-7.004-9.26-9.97-12.415-2.286-2.422-10.477-8.86-20.003-10.712-4.575-.49-8.447 1.666-11.05 5.705 25.62 14.594 46.6 37.278 65.91 58.874 0 0 10.787-8.183 6.86-14.848-3.492-3.886-8.56-9.926-8.56-9.926l8.346-.347c1.064-2.218 2.065-4.376 2.98-6.864l-8.447.002c-4.553 1.244-13.326 2.736-13.326 2.736l11.39-8.98 8.963-.24.24-4.117c-3.248-1.3-6.95-3.496-10.26-4.723l2.972-3.733c5.962-.38 11.067-.257 16.972-.367 0 0-6.774-35.738-7.497-38.287-3.796.09-8.165 1.29-10.536 4.727" fill="#B0B7BC"/><path d="M256.586 205.937c-28.797 6.06-59.522 25.03-110.36 32.454 0 0 40.105 8.31 115.703-12.3-1.434-5.757-3.643-13.05-5.344-20.153zm-9.47-35.4c-64.99 14.71-128.134 51.095-204.64 61.534 107.58 3.436 117.406-18.125 210.388-37.718 0 0-3.702-15.87-5.747-23.815z" fill="#C60C30"/></g></svg>