<svg width="512" height="512" viewBox="0 0 512 512" xmlns="http://www.w3.org/2000/svg"><title>philadelphia-eagles</title><g fill="none" fill-rule="evenodd"><path d="M288.136 141.248l-19.784 21.088c32.548-14.71 103.397-40.764 103.397-40.764l-22.647 22.685c62.088-20.946 109.152-31.79 109.152-31.79s-13.438 31.524-33.6 63.375c3.902-.642 29.586-4.925 29.586-4.925s-22.922 38.414-49.55 66.594l14.956 2.82s-23.122 33.818-53.894 61.944c-44.036 40.567-66.96 35.79-66.96 35.79-32.837 24.806-59.258 14.4-59.258 14.4s11.11-28.48-.567-30.682c-10.794-2.226-26.89 6.665-28.855 10.063-1.96 7.12-10.73 25.352-19.757 36.62-17.346 21.637-36.773 31.07-36.773 31.07s-15.37-11.926-15.676-33.305c0 0-10.352 11.217-27.443 15.605-11.997 3.177-28.35 1.94-45.067-10.62-11.388-8.54-13.68-38.99-13.68-38.99s10.408-19.98 30.658-38.056c-4.583-3.55-7.368-8.105-8.182-10.97 53.883-25.564 53.852-47.4 96.605-76.068 42.263-28.255 68.814-41.682 117.34-65.884" fill="#ACC0C6"/><path d="M261.89 161.05l-16.9 18.037c33.525-16.002 104.26-43.01 104.26-43.01l-20.497 20.556C401.34 131.21 447.5 121.46 447.5 121.46s-14.86 33.198-34.754 61.86c9.606-1.47 29.933-4.712 29.933-4.712s-20.122 33.832-49.756 63.17c3.243.29 16.903 2.56 16.903 2.56s-17.908 26.857-49.096 55.002c-39.763 35.935-57.682 32.774-57.682 32.774s.448-1.33.282-3.402c.077-1.134-.184-2.174-.215-2.277-30.595 29.722-56.352 21.433-56.352 21.433s11.173-27.22-6.42-31.696c-13.54-3.512-34.14 8.254-35.814 14.05-1.68 6.38-10.29 24.14-18.707 34.704-14.747 18.416-31.076 27.312-31.076 27.312s-14.895-10.33-9.917-43.012c1.016-7.137-.47-9.858-1.243-10.905-2.55-3.498-21.555 1.368-26.12 11.87-3.19 7.476 15.796 12.6 15.796 12.6s-8.717 9.826-24.005 13.674c-9.58 2.245-24.5 2.42-40.154-9.828-9.266-7.242-11.38-33.322-11.38-33.322s11.303-20.83 33.382-39.38c-4.378-2.64-7.772-7.156-8.574-8.93 44.74-20.885 50.643-47.62 101.076-79.702 23.447-14.914 48.236-29.772 78.282-44.252" fill="#004953"/><path d="M381.61 246.05c1.795.25 9.11 1.135 13.272 2.59-15.254 24.902-61.066 74.607-86.678 77.913-.38-4.267-1.98-7.632-4.065-9.924-9.48 17.533-38.9 29.46-51.197 27.424 14.558-53.514-48.357-30.188-53.123-15.515-12.14 38.175-43.99 57.302-43.99 57.302s-10.272-10.63-6.085-36.055c3.138-18.73-8.994-17.485-8.994-17.485-4.92-.12-23.322 3.023-29.09 15.747-4.604 10.205 11.798 16.47 11.798 16.47s-23.465 19.427-51.072-1.77c-6.736-5.302-9.448-28.606-9.448-28.606 13.08-21.783 30.366-36.1 37.556-41.454-7.647-2.516-10.03-6.143-10.03-6.143 36.723-18.275 50.893-46.137 82.13-67.813 34.422-23.943 60.74-36.3 60.74-36.3l-9.848 12.754s8.297-3.888 11.853-5.876c32.843-17.217 88.497-37.035 88.497-37.035l-17.267 17.09s28.714-10.975 64.975-20.282c19.28-4.967 59.654-15.224 59.654-15.224s-9.35 27.38-29.307 55.84c12.19-1.47 25.305-2.795 25.305-2.795s-13.966 28.193-45.59 59.146M231.63 217.1c-.444.195-.724.34-1.187.58.383-.24.692-.398 1.082-.56l.105-.02m-1.485.535l.298.044-.298-.045" fill="#000"/><path d="M274.084 278.49s-17.663-7.412-45.44 2.763c0 0 38.143-23.944 86.7-17.112-31.49-8.426-59.85-2.218-76.494 4.097-9.804 4.157-15.666 7.373-15.666 7.373s2.47-1.816 7.132-4.698c11.26-8.625 26.804-18.13 42.162-25.11 10.686-4.728 31.984-11.37 40.646-12.274 0 0-22.286-2.483-42.66 3.448 0 0 32.107-13.783 63.398-16.062 10.535-.615 34.472-.707 34.472-.707-34.602-8.112-70.455-8.26-94.92-3.392-13.843 3.927-24.894 7.868-24.894 7.868s1.995-.95 5.68-2.694c8.728-5.522 44.813-26.208 111.946-39.73 0 0-8.523-.538-19.043-.005-10.708.548-31.958 5.127-31.958 5.127 15.357-7.488 44.19-15.584 79.863-20.674 0 0-54.614-3.506-120.503 19.79-.62.24-.837.43-.837.43s6.85-5.14 14.816-10.542c5.677-4.104 14.054-10.303 14.054-10.303s-33.83 9.424-79.548 32.928c-12.858 6.592-19.677 10.384-19.677 10.384 1.995-2.203 11.11-10.586 13.282-13.43-33.922 17.926-46.283 29.115-66.31 50.88-17.987 19.42-17.136 22.66-44.42 38.342 0 0 20.21 6.96 40.56-6.908 3.536-2.33 6.79-5.737 9.96-9.166 7.206-8.418 4.765-16.636 14.374-23.074-1.41 3.19-3.62 7.11-3.816 11.202 4.577-6.39 13.577-14.91 23.65-21.353 25.78-16.087 42.88-19.544 42.88-19.544-.757.2-1.264.58-1.95.776-35.098 15.95-40.743 34.76-40.92 36.77-.336 4.2 12.697-5.845 23.34-7.693-11.263 4.44-20.81 14.18-25.405 25.16-1.95 4.646-2.52 9.837-8.134 14.14-1.57 1.517-3.573 3.018-6.345 4.333-7.338 3.626-12.51 2.186-14.28 1.18-1.052-.596-1.63-1.788-1.63-1.788 3.577.857 8.472-.29 12.886-3.196 3.275-2.164 5.7-4.904 6.97-7.67.68-1.567 2.066-4.43.038-7.89-1.015-1.666-3.1-2.59-5.518-2.79.197-.455 1.294-3.563 5.252-8.272-5.26 4.006-8.547 8.56-10.31 10.686 2.43.156 4.608 1.11 5.83 2.942 2.384 3.703.167 9.43-4.854 12.45-5.064 3.318-11.24 2.896-13.53-.775-.333-.572-.51-.915-.72-1.472-.213.112-.554.286-.85.4-1.547.88-4.765 2.304-4.765 2.304 1.465.337 3.494.312 4.828.092.487 5.346 4.01 13.907 23.684 8.065-5.615 5.445-19.113 5.866-27.337 2.082 1.164.81 2.416 1.57 3.906 2.405 24.78 13.53 53.025-1.82 59.9-6.107 1.773-1.035 3.507-2.086 5.19-2.992 0 0-7.127 6.454-11.936 16.258 8.532-11.17 33.588-29.498 67.27-27.254" fill="#FFF"/><path d="M183.776 259.563c.966 3.454 7.174-.453 7.174-.453s-8.453 7.376-11.72 15.09c-.12.453-.116 1.9-1.223 4.155.89.13 1.746.196 2.416.125 2.208-.438 4.834-2.023 4.834-2.023s.105 4.447-4.85 9.04c5.613-4.304 6.18-9.494 8.132-14.14 4.595-10.98 14.14-20.723 25.405-25.16-10.644 1.848-23.677 11.893-23.34 7.692.176-2.01 5.82-20.82 40.92-36.77-.388.162-1.19.575-1.38.515-32.128 13.285-48.962 32.732-46.37 41.928" fill="#BACAD3"/><path d="M170.388 274.53c1.688 2.66.073 6.66-3.666 9.06-3.722 2.274-8.12 2.112-9.74-.574-.317-.388-.475-.852-.53-1.33-.727.572-1.544 1.03-2.258 1.55.21.558.387.9.722 1.472 2.29 3.672 8.465 4.093 13.53.775 5.02-3.02 7.236-8.746 4.854-12.448-1.22-1.836-3.402-2.788-5.83-2.943-.585.69-1.276 1.477-1.967 2.345 2.15-.095 3.965.616 4.885 2.093" fill="#004D55"/><path d="M166.726 283.59c3.735-2.4 5.35-6.398 3.665-9.06-.918-1.477-2.738-2.188-4.886-2.095-1.36 1.76-3.003 3.82-5.048 5.694-.023 1.62.312 3.483 2.32 4.8 0 0-2.302.242-3.746-.66-.784-.534-1.197-1.26-1.33-1.66-.446.35-.863.832-1.247 1.075.054.48.214.946.53 1.33 1.62 2.687 6.018 2.85 9.743.576" fill="#000"/><path d="M159.03 282.27c1.443.902 3.746.66 3.746.66-2.013-1.317-2.343-3.18-2.32-4.8-.848.866-1.77 1.733-2.756 2.48.13.4.542 1.126 1.33 1.66" fill="#FFF"/><path d="M368.336 220.205s-23.936.092-34.474.708c-31.29 2.28-63.393 16.06-63.393 16.06 20.368-5.93 42.657-3.445 42.657-3.445-8.662.903-29.96 7.544-40.648 12.27-15.357 6.98-30.903 16.488-42.164 25.11 18.047-11.258 69.5-38.427 135.29-28.272 0 0 4.283-3.345 15.676-16.074 11.99-13.428 14.457-21.475 14.457-21.475s-55.685-2.992-95.983 5.07c-8.68 1.81-18.057 4.143-26.342 6.652 24.467-4.863 60.32-4.72 94.92 3.395m-128.17 70.452c45.447-13.296 77.168-1.623 81.13 12.19l.46-.355c1.81-1.05 8.886-4.31 19.477-14.9 11.054-11.263 18.03-20.184 20.772-26.104-46.69-20.166-98.018-3.985-123.154 6.75 16.645-6.316 45.004-12.526 76.495-4.1-48.557-6.83-86.7 17.114-86.7 17.114 27.78-10.176 45.443-2.764 45.443-2.764-33.686-2.244-58.742 16.083-67.27 27.256-.684 1.328-1.29 2.74-1.845 4.086 7.78-7.46 16.002-13.62 35.192-19.173m154.843-123.952c-35.674 5.088-64.506 13.186-79.863 20.674 0 0 21.25-4.58 31.958-5.13 10.52-.532 19.043.005 19.043.005-67.133 13.524-103.218 34.21-111.945 39.73 8.917-4.09 28.172-12.22 55.92-18.894 26.005-6.288 56.398-9.082 68.664-10.827 17.296-17.186 23.956-38.16 23.956-38.16s-30.254 3.935-64.71 11.802c-35.76 8.42-58.94 18.578-63.525 20.592 65.89-23.298 120.503-19.792 120.503-19.792m-180.34 142.94s11.428-8.99 30.905-6.936c28.835 3.018 28.172 20.627 28.172 20.627s12.865-6.045 19.4-17.483c0 0-8.144-7-22.934-8.843-38.352-4.61-55.54 12.635-55.54 12.635" fill="#ACC0C6"/><path d="M136.68 302.804c-5.89-.172-8.07-1.278-10.175-2.78-4.886 2.68-8.612 4.797-8.612 4.797-2.888 4.35 3.25 3.257 6.088 2.302 2.326-.802 12.7-4.318 12.7-4.318m63.913 2.586c-1.78 3.152-2.575 6.614-3.828 10.788-8.788 41.77-39.594 61.262-39.594 61.262-5.792-12.206-2.605-24.23-1.736-28.707 2.2-10.297-2.972-17.655-2.972-17.655 20.337-.154.513 25.42 8.23 35.65 13.566-8.405 21.67-35.878 23.647-45.63.086-.36-1.985-1.72-3.642-2.194-19.722-5.18-52.618 1.768-64.42 9.266-37.226 23.815-2.2 36.998-2.2 36.998s-22.907 8.61-36.116-10.817c-3.354-5.197-4.193-14.79-5.01-22.36 13.535-23.03 35.056-33.036 40.978-37.342 5.14 1.153 14.562 1.26 21.973-1.31 0 0 25.093 29.15 64.69 12.052" fill="#ACC0C6"/><path d="M117.893 304.824c-2.888 4.35 3.246 3.253 6.086 2.3 2.326-.804 12.7-4.32 12.7-4.32-5.89-.172-8.07-1.278-10.175-2.78-4.886 2.683-8.612 4.8-8.612 4.8" fill="#000"/></g></svg>