<svg width="512" height="512" viewBox="0 0 512 512" xmlns="http://www.w3.org/2000/svg"><title>san-francisco-49ers</title><g fill="none" fill-rule="evenodd"><path d="M256.574 133.74c113.533 0 205.57 54.325 205.57 121.337S370.106 376.41 256.573 376.41c-113.53 0-205.568-54.32-205.568-121.333 0-67.012 92.037-121.336 205.568-121.336" fill="#FFF"/><path d="M256.128 139.987c110.077 0 199.312 51.927 199.312 115.982 0 64.052-89.235 115.98-199.312 115.98-110.077 0-199.313-51.928-199.313-115.98 0-64.056 89.236-115.983 199.313-115.983" fill="#090908"/><path d="M257.022 150.248c96.008 0 173.84 47.932 173.84 107.06 0 59.127-77.832 107.06-173.84 107.06-96.01 0-173.84-47.933-173.84-107.06 0-59.128 77.83-107.06 173.84-107.06" fill="#C6A463"/><path d="M257.468 155.6c88.358 0 159.986 44.737 159.986 99.923 0 55.185-71.628 99.922-159.986 99.922-88.358 0-159.986-44.737-159.986-99.922 0-55.186 71.628-99.923 159.986-99.923" fill="#C81D3C"/><path d="M382.46 242.478h-.438v-3.634h-63.46c-1.36-7.13-5.47-13.74-11.33-18.9-5.77-6.627-14.16-11.61-23.703-13.5l-3.962-.813c-9.16-1.92-16.39-3.442-45.5-3.296 0 0-5.6-.19-11.03-.91-1.376-.347-2.585-.763-3.622-1.208.4-2.418 4.836-5.75 9.832-6.396.52-.094 32.02-5.88 64.443 15.08l.797.513h21.308v-32.55h-3.644v-3.636h-29.243l-4.927 3.757c-8.417-2.104-49.657-11.11-85.262 4.447-14.963 6.174-24.25 17.826-23.592 29.656.334 5.966 3.196 11.166 8.14 15.204 3.638 4.532 9.357 8.07 16.806 10.212 10.545 3.03 19.47 4.28 28.125 4.775v14.84h3.648v3.637h11.117c4.605 0 5.79 2.55 6.07 3.496-14.187-.926-35.77-4.96-51.652-19.635l-.598-.642h-.11c-.878-.836-1.74-1.7-2.582-2.606l-.95-1.03h-15.994v46.337h3.645v3.63h13.04c1.914.133 7.975-.543 12.157-12.734 6.783 2.356 23.5 7.382 44.09 7.94v28.823c-.72 9.678-22.08 12.71-29.524 13.003l-3.073.118v14.332h3.643v3.63h93.78v-13.71l-2.393-.633c-.43-.11-.834-.22-1.25-.335v-3.136l-2.928-.25c-5.27-.47-9.33-1.38-12.478-2.497-5.893-3.304-6.903-5.98-7.027-6.412v-15.37h27.487c2.9.44 5.386 1.708 7.496 3.36 3.96 4.866 5.76 10.428 5.79 10.518l.702 2.25 2.36.016h.074c.33.823.505 1.346.507 1.374l.7 2.257h14.77v-55.75h-3.64v-3.64H324.37l-.53 2.552c-3.856 18.523-25.312 18.25-44.394 15.474 3.738-1.015 7.498-2.242 11.247-3.73 10.217-4.053 17.878-9.566 22.66-16.02h41.188c2.875.09 5.315.804 7.368 2.146 4.32 6.33 3.887 15.634 3.883 15.745l-.178 3.37h3.834l-.007.262-.186 3.372 3.386.007h13.03v-43.16h-3.21" fill="#090908"/><path d="M316.762 253.893H350.9c19.498.62 18.088 24.904 18.088 24.904h9.832v-36.755H319.9s-.14 8.225-3.138 11.85m-69.484 31.395v28.224c-1.014 14.795-32.593 16.023-32.593 16.023v8.054h87.37v-8.054c-25.964-2.242-26.08-15.45-26.08-15.45v-18.847h31.035c14.196 2.022 19.652 19.778 19.652 19.778h9.2v-49.356h-8.89c-6.178 29.73-51.82 16.356-55.196 17.1 0 0-11.242 2.804-24.498 2.53m27.26-48.56c11.86 3.47 12.962 12.503 6.018 20.96-8.885 8.372-22.456 8.717-22.456 8.717s-45.694 4.93-72.36-23.865h-11.386v39.934h9.978s6.082.932 9.982-13.7c0 0 46.92 19.058 91.55 1.37 43.225-17.138 26.774-54.677-2.968-60.56-11.44-2.262-15.987-4.215-48.81-4.046 0 0-5.927-.188-11.697-.968-18.093-4.514-7.803-16.188 2.806-17.558 0 0 32.595-6.415 66.597 15.57h17.156v-26.157h-24.96l-5.3 4.045s-46.268-12.895-84.686 3.892c-25.823 10.657-30.885 37.314-2.682 45.43 24.838 7.145 40.67 4.15 65.84 5.11 7.034.268 13.147.545 17.376 1.826m-37.28 16.192H225.4v-10.6c9.19 0 27.93.076 41.19 0 13.345 0 15.122 7.7 9.5 12.907-5.3 4.908-16.4 8.404-29.542 6.016 0 0-1.083-8.323-9.29-8.323" fill="#FFF"/></g></svg>