<svg width="512" height="512" viewBox="0 0 512 512" xmlns="http://www.w3.org/2000/svg"><title>st-louis-rams</title><g fill="none" fill-rule="evenodd"><path d="M351.024 397.63c.126-.03 9.742-2.487 9.742-2.487 11.947-2.98 19.55-4.946 24.01-7.072 0-.01 3.902-1.89 3.902-1.89l2.238-3.716c.65-1.08 15.555-26.258 22.92-61.295 2.085-1.89 9.888-8.994 9.888-8.994l.22-2.35.298-3.208c.272-2.886.403-5.802.403-8.7 0-5.23-.433-10.667-1.27-16.194 17.236-9.59 24.702-23.465 29.27-34.73 3.732-9.194 5.6-19.517 5.6-30.235 0-10.578-1.827-21.54-5.45-32.143-5.88-17.163-19.22-41.367-49.424-59.198-18.812-11.11-45.31-15.814-70.934-12.6-29.75 3.726-55.363 17.783-72.116 39.56-1.303 1.702-2.547 3.508-3.738 5.37l-.58.103c-95 14.796-170.32 76.657-173.476 79.277l-27.268 22.637 35.32 2.842c62.254 5.007 106.323 26.785 132.323 44.172 28.484 19.053 42.193 37.142 42.33 37.328l9.19 12.516 11.82-10.14c2.003-1.73 3.815-3.696 5.455-5.87l.406.362 2.67 2.227c1.762 1.422 3.2 2.638 5.03 4.696.44 1.006.71 2.126.71 3.404 0 3.184-.388 4.093-1.236 6.074l-.418.956c-1.01 2.423-2.92 5.924-2.953 5.966l-2.89 5.295 52.59 29.545" fill="#FFF"/><path d="M297.596 326.6l.615.542-.025-.178-.59-.364zm89.05-86.69l-.876.882.522-.506.354-.375z" fill="#13264B"/><path d="M400.253 130.677C366.58 110.79 300.143 110.63 265.16 156.11c-1.748 2.287-3.37 4.68-4.863 7.153-1.51.3-2.655.512-3.32.625-93.278 14.527-167.438 75.367-170.55 77.95l-15.706 13.04 20.348 1.635c123.307 9.92 178.513 83.202 179.053 83.954l5.325 7.222 6.797-5.846c3.723-3.204 6.28-6.967 8.08-10.633 1.665 1.52 3.542 3.183 5.807 5.18 3.098 2.702 5.44 4.088 8.895 8.2 1.165 2.175 1.596 4.51 1.596 6.712 0 5.013-.964 6.626-2.12 9.384-1.148 2.758-3.222 6.546-3.222 6.546l45.122 25.332 3.044-.844 9.805-2.516c11.266-2.794 18.955-4.79 22.875-6.656l2.26-1.093 1.292-2.14c.643-1.093 15.62-26.477 22.57-61.33 2.466-2.254 9.614-8.746 9.614-8.746l.305-3.197c.243-2.745.365-5.452.365-8.132 0-6.778-.745-13.398-1.927-19.567 17.89-8.46 25.48-21.57 30.382-33.655 12.998-32.07 2.627-84.863-46.732-114.01" fill="#B3995D"/><path d="M435.31 181.997C406.78 113.015 328.4 126.79 328.4 126.79l.62-.06c4.012-.322 27.24-1.663 50.51 7.943 20.434 8.435 43.26 29.444 48.78 57.203 1.312 6.595 1.823 12.703 1.823 18.23l-.005 1.396c-.258 17.004-5.37 28.432-7.104 32.014-2.323 4.824-8.054 11.91-11.926 14.733-3.25 2.385-6.25 3.384-8.538 3.384-.443 0-.848-.045-1.226-.12h-.025c-.385-.06-.758-.177-1.086-.323-2.163-.985-2.904-3.575-7.85-10.514-3.272-4.62-7.432-9.073-7.432-9.073.41-.355.78-.746 1.163-1.12l.546-.587c.452-.483.872-1.032 1.3-1.6 1.198-1.633 2.217-3.535 3.027-5.686l.086-.246c.263-.69.48-1.4.697-2.118 4.01-14.295-.42-36.424-18.413-50.82-19.125-15.314-39.8-16.58-56.546-9.867-28.188 11.3-45.24 45.222-25.112 72.964 9.758 13.457 25.623 14.322 35.48 6.775 9.227-7.083 15.423-28.742-7.292-40.344 18.25-1.544 40.392 20.22 29.494 48.316-.8 2.054-1.743 3.97-2.788 5.763-15.802 26.637-58.932 23.683-79.664-1.09-20.196-24.128-23.63-56.478-13.93-83.406.705-1.954 1.488-3.905 2.337-5.805-83.314 18.006-137.218 68.394-137.218 68.394 116.488 24.173 158.72 94.42 158.72 94.42 4.316-3.712 6.66-8.69 7.975-12.79-8.08-13.232-4.54-25.63-4.54-25.63 1.766 8.91 5.02 15.442 8.27 20.124 1.394 1.945 7.812 8.242 9.064 9.342l.59.363.024.178c5.84 5.163 12.77 10.986 14.002 13.204 6.27 11.272-.277 24.068-.277 24.068l35.257 19.316c7.86-2.218 26.262-6.244 31.338-8.677 0 0 15.63-26.132 22.117-61.392l9.24-8.4c3.42-9.686-2.625-30.858-2.625-30.858.745-.192 1.516-.413 2.285-.68 1.835-.61 3.67-1.428 5.507-2.44 19.967-11.064 38.326-45.663 20.26-89.283" fill="#024"/><path d="M430.13 210.106c0-5.527-.51-11.635-1.823-18.228-5.52-27.76-28.345-48.77-48.78-57.203-23.272-9.607-46.497-8.264-50.51-7.943-.948.12-1.908.236-2.848.365-31.712 4.49-50.988 27.14-50.988 27.14 28.698-22.435 71.787-25.083 100.297-13.396 28.482 11.695 49.193 35.404 54.64 70.665l.01-.318v-1.08zm-92.582 138.452c.3-1.422 4.395-1.708 4.395-1.708 2.905 10.282-1.6 16.882-1.874 17.864-.22-4.675.61-13.325-2.522-16.156zm-70.632-86.61c-20.196-24.126-23.63-56.478-13.93-83.404-5.795 8.92-19.093 35.382-2.636 71.83 19.963 44.193 74.598 45.94 92.976 18.28 1.242-1.875 2.32-3.756 3.255-5.613-15.802 26.637-58.932 23.682-79.664-1.09zm104.838 40.228c0-3.642 2.943-6.6 6.593-6.6l.348.02c-.78-3.655-2.405-7.646-5.474-11.568 0 0 .246 3.91-.594 7.256-3.365 1.784-5.664 5.294-5.664 9.38 0 5.842 4.756 10.584 10.605 10.584 0 0 .388-.906.805-2.473h-.026c-3.65.003-6.592-2.955-6.592-6.6z" fill="#FFF"/><path d="M379.09 305.06l-.216.506c-1.334.545-3.597.06-4.473-2.052 2.464 1.448 4.356-.098 4.862-.565l.15-.14s.103 1.034-.322 2.25" fill="#13264B"/><path d="M379.414 302.813l-.152.136c-.504.467-2.396 2.016-4.86.567.876 2.112 3.14 2.595 4.473 2.05l.217-.506c.423-1.216.322-2.247.322-2.247zm20.4-1.75c.82-33.493-27.145-55.775-27.145-55.775s20.498 25.556 18.115 55.606l-5.578 5.2c.09 8.157-.294 23.64-8.193 40.994-8.183-14.798-26.235-24.597-33.674-26.36-5.06 2.848-16.29 9.026-22.838 16.29 1.146 1.572 2.75 5.83 2.996 7.215 1.487 8.232.368 14.205-.913 18.52.02.016 12.502 6.985 12.325 6.64 3.418-11.827-1.13-17.16-4.597-23.233 3.373-2.05 11.216-6.443 14.873-7.968 3.7 5.094 5.6 13.525 1.626 25.524-1.197 3.593-2.926 7.252-3.967 9.78.015.132 4.875 2.726 4.846 2.57 6.317-1.27 12.092-5.59 14.325-11.648.667-1.8.37-3.19.153-4.607-.622.794-1.47 2.052-2.495 2.75-1.62-3.753-1.64-6.742.41-8.993 1.057-1.163 2.244-1.59 3.663-1.636 2.097-.07 3.784 1.285 4.45 2.886 3.137 7.707-4.136 15.81-4.136 15.81s6.96-.32 8.964-1.3c4.1-8.28 16.783-35.265 20.382-62.506l6.41-5.758z" fill="#FFF"/></g></svg>