<svg width="512" height="512" viewBox="0 0 512 512" xmlns="http://www.w3.org/2000/svg"><title>tampa-bay-buccaneers</title><g fill="none" fill-rule="evenodd"><path d="M316.024 196.363c-1.15 2.78-3.354 5.557-4.312 7.09-1.15-1.245-2.683-3.066-3.833-5.174.67-.96 1.82-2.21 3.25-4.12.96-1.35 2.68-4.99 2.68-9.49 0-5.08-2.3-11.21-10.54-16.29 0 0-.1 0-.1-.1-.1-.1-.19-.1-.29-.2-1.056-.67-2.11-1.244-3.068-1.723l.86.383c21.274 10.253 16.58 26.445 15.333 29.607" id="Shape" fill="#B1BABF"/><path d="M359.432 303.577c-4.695 7.378-30.088 45.703-36.125 54.326l-.096-.096c-.86-.767-2.01-1.725-3.25-2.78 2.01-2.97 25.59-37.845 32.49-48.67 2.4-.864 4.698-1.822 6.998-2.78" id="Shape" fill="#B1BABF"/><path d="M293.41 371.987c-.863 2.108-1.63 5.75-1.342 8.432.096.57.192 1.05.288 1.62-2.013 9.2-5.94 9.39-6.9 9.2-.19 0-.287-.1-.287-.1 3.83-3.36 3.73-9.588 7.66-18.11.19-.29.38-.67.57-1.06" id="Shape" fill="#FFF"/><path d="M316.12 378.598c.096 1.725-1.917 4.216-3.737 4.887-1.342.574-3.067.766-4.696.766-.574 0-1.054 0-1.533-.09.48-.76 1.054-1.72 1.63-2.78 1.437-2.3 3.257-5.08 4.695-7.09 1.05.48 2.58 1.54 3.25 3.07.28.48.38.77.38 1.25" id="Shape" fill="#B1BABF"/><path d="M305.58 366.238c-1.342-1.15-2.11-2.49-2.684-3.736 0 0-4.983 6.515-9.39 16.192.095.48.287.958.48 1.34 1.34 2.876 2.586 3.738 4.982 3.546 0 0 5.653-9.58 9.582-14.66-.767-.765-1.725-1.628-2.97-2.682" id="Shape" fill="#B1BABF"/><path d="M302.992 362.502c-.862-2.683-.766-5.366-.67-5.845-.096.096-.192.192-.192.288-1.533 2.3-2.97 4.694-4.408 7.09-1.342 2.3-4.025 7.473-4.12 7.665 0 .095-.67 3.928 0 6.898 0-.096.095-.192 0 0 4.407-9.58 9.39-16.096 9.39-16.096" id="Shape" fill="#FFF"/><path d="M327.715 373.616c-1.15-5.174-7.858-10.252-9.39-11.402-3.26-2.874-11.692-9.485-12.554-10.922-.86-1.533-4.79-6.9-10.15-7.953 0 0-.86-.1-1.05.57-.09.38.1.86.77.96.67.19 2.59.38 4.79 2.39 2.208 2.11 2.97 4.79 2.97 7.18-.092 2.3.77 5.56 3.55 7.663 2.874 2.11 6.132 5.653 9.103 6.516.19.095.38.095.573.095 1.916.19 3.737-1.534 3.45-2.587.67 2.11.095 3.64-.863 4.79 3.256 3.162 4.79 6.803 3.83 10.156-1.247 4.216-6.04 9.87-14.66 9.773-6.135-.097-9.776-1.82-11.31-2.78 0 0 .575-1.15.575-1.245-3.644.862-4.89-4.503-4.985-4.695-2.015 9.2-5.94 9.39-6.9 9.2-.19 0-.29-.098-.29-.098s.77 2.97 3.74 4.504c-1.34-.386-2.876.093-3.74 1.34-1.053 1.532-.574 3.64.96 4.6 1.53 1.052 3.64.573 4.6-.96 1.052-1.53.573-3.64-.96-4.6-.096-.1-.19-.1-.19-.1.38.193.86.288 1.34.384 4.024.67 5.365-1.243 5.365-1.243s-.283-.576-.48-1.343c0 0-3.923 2.78-8.33-1.63.19.097 1.627.576 4.12.097 3.735-.578 4.214-1.727 4.502-1.92v-.097c3.255 1.724 6.704 2.586 11.783 2.682 5.658.097 11.12-1.63 14.28-4.406 3.16-2.877 6.9-8.72 5.56-14.95" id="Shape" fill="#B1BABF"/><path d="M414.914 104.096s.767 14.755-2.012 28.36c-2.683 13.127-4.217 18.11-4.217 18.11-5.75 3.352-14.948 7.472-28.46 9.772-25.2 4.215-48.198-2.587-73.208-12.36-25.01-9.773-58.453-20.408-89.595-16.863-30.09 3.45-51.65 15.617-63.148 23.57-11.5 7.952-13.607 10.06-23.38 12.84 0 0 7.76 3.065 11.69 3.065 0 0-1.917 7.76-1.15 10.25 0 0 16.386-7.472 18.206-3.927 1.917 3.545-5.845 5.845-11.21 7.282-5.367 1.437-19.453 1.15-19.453 1.15s6.61 5.078 8.91 8.623c0 0-12.36 5.365-26.254 3.545 0 0-.48 5.078 10.923 13.51-2.395.862-5.46 2.3-7.378 4.31 0 0 11.882-2.49 19.356 5.845 2.013 2.492 2.588 4.695 2.396 7.474-.383 5.078-2.3 6.994-7.09 10.156-2.684 1.15-5.655 2.49-8.433 4.216-13.128 8.048-22.806 20.408-29.514 34.396-2.875 6.036-5.27 13.127-6.9 19.546-1.628 6.42-2.3 12.168-2.682 15.713-.38 3.54-.95 14.85-.95 14.85s5.85-8.24 8.63-12.27c2.78-3.93 20.22-25.87 45.61-32.2 8.148-2.11 16.198-2.97 23.96-2.97 18.59 0 35.167 5.08 45.036 9.87 14.28 6.894 37.66 23.182 68.42 28.26 7.186 1.15 15.044 1.82 23.093 1.82 7.76 0 15.81-.574 23.76-1.628-4.505 6.802-8.913 13.125-13.033 18.97-4.216-4.024-9.87-4.408-9.87-4.408-6.9-.67-10.35 3.544-10.35 3.544-1.436 1.534-2.394 3.45-2.873 5.75-.48 2.11.095 4.6.48 5.846 1.34 4.216 4.886 6.036 6.227 6.707-10.06 13.414-13.03 28.84-13.03 28.84l-4.6 4.024 1.63 6.706c-2.59 8.24 1.436 14.47 6.706 16.96 5.27 2.586 10.25 1.053 10.25 1.053 3.067-.865 5.94-2.878 7.858-5.656.287-.48.575-.863.767-1.34 1.055-.577 2.013-1.248 2.78-1.92 1.44.19 5.18.287 5.18.287 7.57-.095 15.043-2.203 20.793-7.09 4.502-4.023 9.39-10.826 9.58-20.12 0-1.725.29-8.815-5.46-14.947 36.795-54.04 60.655-88.82 75.987-124.17 40.63-93.997 6.23-133.09 6.035-133.37M349.38 330.11c-7.855 11.88-15.33 22.9-21.462 31.71 7.09 5.846 6.61 13.223 6.61 14.564-.096 7.857-4.31 13.606-8.145 17.055-4.694 4.02-11.21 6.03-18.014 6.03-.19 0-5.08-.19-6.81-.58-.77 1.054-2.11 2.3-4.41 3.26-.29.67-.577 1.435-1.056 2.106-1.82 2.78-4.983 4.41-8.145 4.41 0 0-3.165-.096-5.37-1.63-2.874-1.82-4.407-4.98-4.407-8.14v-.096c0-1.53.38-3.064 1.05-4.406-.29-.766-1.437-5.46-1.437-5.46l2.97-2.684c.29-.095.96-1.244 1.82-4.12.863-2.777 1.917-6.897 4.12-11.784 2.876-6.13 6.71-12.455 9.583-16.86-.287-1.44-1.724-2.11-2.78-2.3-1.15-.29-2.68-1.056-3.83-2.398-1.246-1.436-2.204-3.45-1.63-6.035.48-2.588 2.11-4.408 4.025-5.27 2.11-1.15 4.79-.575 4.79-.575 6.23.575 10.925 6.42 10.925 6.42 6.23-8.72 20.798-30.278 21.08-30.757-19.063 3.64-38.71 4.12-55 1.44-29.703-4.89-52.51-20.7-67.27-27.98-14.752-7.185-42.83-14.562-71.863-7.185-28.94 7.378-48.1 34.11-48.1 34.11 8.622-60.937 46.376-71.285 50.02-72.243 5.46-5.172 12.742-20.885-4.41-31.52-5.846-3.64-10.733-8.24-10.733-8.24 3.547.385 11.98-.67 16.675-2.49 5.555-2.203 10.73-2.97 10.73-2.97-4.41-4.215-11.21-6.323-11.21-6.323 6.704-.383 17.245-2.778 23.76-5.653 6.52-2.97 10.066-8.24 9.01-10.54-1.05-2.3-6.9-1.053-6.9-1.053 2.11-3.16 7.19-4.402 7.19-4.402-14.564-.863-25.105 7.09-25.105 7.09 1.63-3.45 6.9-9.677 6.9-9.677-2.013.67-7.57 2.395-7.954 2.49 22.71-17.533 48.1-32.96 83.75-33.246 35.646-.288 70.238 15.713 93.33 23.09 23.095 7.377 35.36 11.114 60.275 7.473 11.98-1.82 22.42-6.707 30.09-11.306 0 0 5.363-13.607 5.75-33.153 0 0 6.42 11.5 6.42 29.415.093 61.61-29.804 106.545-39.29 122.93-9.008 16-20.986 35.353-35.55 57.486" id="Shape" fill="#B1BABF"/><path d="M293.6 378.598c0 .096 0 .096 0 0 0 .096 0 0 0 0m124.284-258.406c-.383 19.546-5.75 33.15-5.75 33.15-7.665 4.6-18.11 9.487-30.088 11.21-24.914 3.738-37.18 0-60.272-7.472-23.094-7.378-57.782-23.378-93.333-23.09-35.55.19-60.94 15.712-83.74 33.246.39-.096 5.94-1.82 7.96-2.49 0 0-5.27 6.227-6.9 9.676 0 0 10.54-7.952 25.108-7.09 0 0-5.08 1.246-7.187 4.407 0 0 5.843-1.25 6.9 1.05 1.05 2.3-2.494 7.57-9.01 10.54-6.517 2.97-17.06 5.27-23.766 5.65 0 0 6.708 2.1 11.116 6.32 0 0-5.177.76-10.734 2.97-4.695 1.82-13.03 2.97-16.673 2.49 0 0 4.888 4.6 10.734 8.24 17.054 10.63 9.87 26.35 4.406 31.52-3.644 1.05-41.398 11.3-50.02 72.24 0 0 19.162-26.735 48.1-34.11 29.034-7.38 57.11 0 71.867 7.184 14.758 7.185 37.563 22.994 67.27 27.976 16.29 2.68 35.933 2.203 55-1.44-.286.48-14.85 22.037-21.08 30.756 0 0-4.6-5.846-10.924-6.42 0 0-2.584-.576-4.79.574-1.914.86-3.45 2.68-4.022 5.27-.575 2.586.383 4.6 1.63 6.035 1.15 1.34 2.68 2.106 3.83 2.393 1.055.287 2.588.86 2.875 2.3-2.876 4.406-6.805 10.73-9.58 16.957-2.208 4.79-3.26 9.01-4.12 11.788-.867 2.874-1.538 4.023-1.82 4.12l-2.976 2.682s1.15 4.695 1.437 5.46c-.77 1.343-1.057 2.876-1.15 4.41v.095c0 3.16 1.53 6.23 4.405 8.145 2.204 1.53 5.366 1.626 5.366 1.626 3.16 0 6.23-1.53 8.15-4.31.48-.67.764-1.435 1.052-2.11 2.3-.954 3.64-2.2 4.407-3.254 1.722.38 6.61.572 6.8.572 6.8-.097 13.32-2.01 18.012-6.037 3.833-3.45 7.953-9.2 8.145-17.056 0-1.438.38-8.72-6.616-14.564 6.135-8.815 13.61-19.83 21.467-31.71 14.664-22.23 26.64-41.49 35.745-57.587 9.58-16.385 39.383-61.32 39.287-122.833-.094-18.01-6.515-29.51-6.515-29.51M337.2 310.76c3.26-.766 6.516-1.628 9.774-2.68.096 0 .192-.098.288-.098-3.258 4.983-28.94 41.775-30.76 44.17-.19-.096-4.6-3.928-4.695-4.024 6.516-9.1 25.01-36.79 25.393-37.366m-39.474 53.367c1.437-2.4 2.875-4.79 4.408-7.09.097-.1.097-.19.19-.29-.093.48-.19 3.16.673 5.84.48 1.242 1.342 2.583 2.683 3.733 1.15 1.054 2.107 1.916 2.97 2.587-3.93 5.08-9.583 14.66-9.583 14.66-2.395.196-3.64-.67-4.982-3.54-.19-.384-.383-.863-.48-1.34-.67-2.97-.094-6.805-.094-6.9.1-.29 2.78-5.366 4.22-7.666m14.85 10.255c1.06.48 2.59 1.532 3.26 3.065.19.385.29.77.29 1.15.1 1.726-1.91 4.217-3.73 4.89-1.342.57-3.067.763-4.696.763-.48 0-1.054 0-1.533-.095.48-.764 1.053-1.72 1.724-2.776 1.437-2.3 3.16-4.985 4.695-6.997m9.58 14.083c-3.16 2.776-8.624 4.6-14.278 4.405-5.08-.097-8.623-.96-11.785-2.684v.098c-.29.19-.767 1.34-4.504 1.915-2.49.383-3.93-.096-4.12-.096 4.41 4.41 8.34 1.63 8.34 1.63.19.767.48 1.34.48 1.34s-1.343 1.918-5.27 1.247c-.48-.094-.864-.19-1.343-.382.1 0 .19.094.19.094 1.538 1.05 1.92 3.064.96 4.6-1.05 1.53-3.063 1.913-4.6.955-1.53-1.057-1.912-3.07-.954-4.6.862-1.247 2.3-1.727 3.737-1.34-2.97-1.44-3.737-4.506-3.737-4.506 3.83-3.45 3.735-9.58 7.664-18.11.19-.38.384-.767.576-1.246-.862 2.11-1.63 5.75-1.34 8.43.095.577.19 1.15.287 1.63.097.19 1.34 5.558 4.984 4.696 0 .1-.577 1.25-.577 1.25 1.533.956 5.174 2.68 11.307 2.78 8.625.092 13.32-5.56 14.66-9.776 1.056-3.258-.573-6.9-3.83-10.156.957-1.053 1.532-2.682.86-4.79.29.958-1.53 2.68-3.45 2.587-.19 0-.38 0-.574-.095-2.97-.863-6.226-4.41-9.1-6.516-2.78-2.107-3.643-5.365-3.547-7.664.093-2.3-.77-5.077-2.97-7.09-2.208-2.107-4.22-2.3-4.795-2.49-.67-.192-.86-.575-.766-.96.094-.67 1.05-.573 1.05-.573 5.368 1.053 9.296 6.42 10.16 7.95.767 1.433 9.296 8.044 12.554 10.92 1.534 1.15 8.146 6.23 9.39 11.4 1.247 6.516-2.49 12.456-5.652 15.14m1.246-30.565s-.094-.096-.19-.096c-.862-.77-2.01-1.73-3.257-2.78 2.01-2.877 25.584-37.85 32.483-48.67 2.395-.868 4.79-1.82 7.09-2.78-4.695 7.38-30.184 45.603-36.125 54.322M367.095 294c-16.195 7.57-53.566 20.026-90.746 13.127-12.94-2.395-30-6.42-52.51-20.12-14.76-8.91-30.76-17.534-67.94-17.342-30.86.19-50.6 14.084-56.92 19.354 16.77-54.62 66.22-46.57 66.22-46.57-9.01-4.32-19.84-2.69-19.84-2.69 15.52-24.34-9.49-35.84-9.49-35.84 2.11 0 11.593-2.78 16.384-4.41 4.887-1.725 13.703-2.874 13.703-2.874-3.067-2.874-12.65-5.173-12.65-5.173 9.104 0 17.25-4.408 23-10.348 2.012-2.11 7.38-12.46 1.245-16.387-5.65-3.64-16.96.38-16.96.38s33.73-36.314 103.2-20.79c32.97 7.376 70.147 26.634 104.45 26.825 11.5.093 36.99-3.64 52.13-18.97-.863 29.124-6.23 69.844-53.28 141.8m-73.5 84.6c0 .097 0 .097 0 0 0 .097 0 0 0 0" id="Shape" fill="#000"/><path d="M368.152 171.26c-34.305-.19-71.484-19.545-104.448-26.923-69.472-15.522-103.2 20.79-103.2 20.79s11.306-4.12 16.96-.382c6.132 4.024.766 14.372-1.246 16.384-5.75 5.94-13.895 10.34-22.998 10.34 0 0 9.582 2.3 12.65 5.17 0 0-8.913 1.15-13.704 2.87-4.887 1.724-14.278 4.406-16.386 4.406 0 0 25.01 11.402 9.487 35.834 0 0 10.828-1.63 19.835 2.684 0 0-49.445-7.955-66.214 46.563 6.324-5.17 26.064-19.16 56.92-19.35 37.18-.19 53.18 8.43 67.938 17.34 22.52 13.7 39.575 17.727 52.51 20.12 37.18 6.9 74.552-5.555 90.746-13.124 47.05-72.05 52.416-112.676 53.182-141.708-15.044 15.33-40.437 19.064-52.032 18.97m-25.49 83.163c-16.672 11.786-42.736 15.33-42.736 15.33-.288 1.15-2.013 2.3-2.013 2.3s2.684.96 9.2 5.94c6.516 4.89 4.79 4.696 6.9 6.133 2.107 1.438 3.257.96 3.257.96.67 1.245.67 3.16.67 3.16.863.86 5.175 4.887 1.15 9.1-3.928 4.217-8.528.29-8.528.29-1.63.382-3.162-.19-3.162-.19s-8.528 5.363-16.96-.48c-6.9-4.697-6.42-10.35-6.038-12.266-2.3 1.34-4.79 2.393-7.378 3.16-6.9 2.11-15.715 3.066-24.435.19-5.75-1.915-10.45-5.268-14.19-9.005-3.74-3.74-6.52-7.86-8.34-11.5-.29-.576-.58-1.15-.77-1.63-.578 1.44-3.45 6.9-12.36 6.42-10.257-.48-13.8-9.87-13.8-9.87s-1.536-.575-2.686-1.725c0 0-6.036.384-6.61-5.365-.576-5.746 5.27-6.42 6.42-6.513 0 0 1.15-1.44 2.49-2.11 0 0 .672 1.054 3.26 1.15 2.586.096.957-.766 9.102-.766 8.24 0 10.922.86 10.922.86s-.67-2.01-.194-3.06c0 0-18.59-18.59-24.818-38.04-6.133-19.45-4.31-26.636 3.26-47.14 0 0 5.56 34.875 22.613 56.816 9.68 12.55 20.7 22.23 28.27 28.36h.48c-1.63-1.82-2.877-3.93-3.45-6.324-1.536-6.032-4.027-11.59-5.177-16-1.15-4.404 1.44-13.314 1.44-13.314-3.45-5.463-1.728-14.47-1.728-14.47s1.82-.863 3.26-2.59c1.437-1.722.96-6.8 2.012-14.18 1.15-7.47 6.034-15.136 16.77-19.544 10.633-4.31 26.73 1.344 26.83 1.44.19 0 16.383 5.173 22.324 15.042 5.94 9.967 5.08 19.07 1.53 25.68-3.545 6.61-6.994 10.348-6.9 12.55.097 2.206 1.056 4.026 1.056 4.026s-4.12 8.24-10.16 10.54c0 0-3.353 8.625-6.898 11.5-3.64 2.876-8.913 5.847-13.8 9.68-1.916 1.533-4.12 2.49-6.42 2.97.192.096.29.192.48.383 9.773-.29 24.243-1.44 39.48-5.56 26.83-7.183 52.32-31.71 52.32-31.71-6.518 20.694-9.297 27.592-25.97 39.38" id="Shape" fill="#D50A0A"/><path d="M281.432 216.675l.383-1.15c.383-1.245-.48-1.724-.575-3.736-.096-1.06-.19-2.02.288-3.17.287-.96-.192-2.01-1.15-2.4-.096 0-.096-.1-.192-.1s-.096 0-.192-.096c-1.054-.29-2.108.286-2.395 1.244-.39 1.15-1.06 1.914-1.73 2.68-1.25 1.533-2.3 1.44-2.69 2.587l-.388 1.15c-.19.67 0 1.437.48 1.916.286.29.574.48.86.576 1.15.382 2.3-.19 2.59-1.15.095-.19.29-.288.383-.19.19.094.286.285.19.38-.383.96.29 2.11 1.44 2.49.38.098.67.098 1.052.098.86-.096 1.435-.48 1.63-1.15" id="Shape" fill="#000"/><path d="M286.415 204.7c0 1.34.48 6.418 2.683 7.76h.096c2.203 1.533 6.9 2.203 9.103 2.012.287 0 .862-.192.862-.192.95-.575 1.82-.958 2.68-1.82 1.05-1.15 1.91-2.492 2.49-3.833.28-.575.48-1.246.67-1.916 0 0 .48-2.2 1.34-2.49h.38s-2.88-.67-6.04-.38c-.29 0-.58.1-.96.1-3.64.67-7 1.25-9.3.39-.766-.29-1.437-.67-2.012-1.15-.19-.094-.288-.29-.383-.38-.766-.768-1.245-1.44-1.34-1.63l-.097-.096c0 .19-.19 2.396-.19 3.64" id="Shape" fill="#000"/><path d="M260.35 188.794c.576.766-.383 2.778-.383 2.778-.19.575-.383 1.15-.575 1.82-.575 2.11-.766 4.696.096 6.708 0 .096.575 1.054.575 1.054-.096 0-.096.096-.19.096.094 0 .094-.096.19-.096 0 0 .383.48.575.67 1.63 1.533 5.75 3.833 8.433 3.93h.1c2.59.286 6.04-3.546 6.81-4.6.77-1.054 2.02-2.97 2.02-2.97s-.96.287-2.11.48h-.575c-.672 0-1.534 0-2.3-.29-2.3-.765-4.696-3.256-7.187-5.94-.192-.19-.48-.478-.67-.67-2.3-2.204-4.89-3.353-5.08-3.353.19.2.19.29.288.39" id="Shape" fill="#000"/><path d="M266.58 246.57c1.437.478 2.778.86 4.215.957 1.438.19 2.875.096 4.6-.192 3.45-.575 7.378-4.12 8.816-5.174 1.44-1.05 7.1-4.69 8.34-5.65 1.25-.86 2.3-1.63 3.64-3.83 1.34-2.2 3.55-7.28 3.55-7.28s-2.11-.38-2.78-.48v.1c-.28.58-2.78 4.99-3.73 5.94h-.093c.575.29 2.108 1.35 2.396 2.49 0 0-2.685 2.49-5.94 3.93-3.357 1.44-8.34 4.6-10.256 5.94-.77.48-1.727.96-3.07 1.15-.765-1.44-3.544-3.16-7.185-4.41-3.734-1.24-7.183-1.53-8.525-.76-1.054-1.05-1.63-2.11-1.916-2.97-.77-2.2-2.877-7.76-4.6-10.92-1.727-3.16-2.397-6.706-2.397-6.706 1.15-.96 3.64-.48 3.64-.48v-.67c0-1.82.574-5.75.574-6.325v-.097c-.576-.383-2.588-1.34-2.588-1.34v.095c-.193.574-1.343 5.46-1.63 7.856-.288 2.49.096 3.736.575 5.27.48 1.436 2.687 7.76 3.26 9.484.097.19.19.48.19.767.578 2.21 1.63 6.42 3.645 8.628 2.203 2.684 4.502 3.738 7.28 4.696" id="Shape" fill="#B1BABF"/><path d="M274.15 190.52c2.49 2.873 6.42 6.514 8.815 7.28 2.396.863 7.666.288 11.403-.48 3.737-.574 9.39 0 9.39-.095-2.3-2.874-10.157-2.012-14.564-1.82-3.833.287-4.983-.287-5.27-.383-.288-.096-1.534-.288-4.41-2.875-3.448-2.874-9.198-8.24-12.743-7.377 0 .096 4.8 2.97 7.38 5.75" id="Shape" fill="#B1BABF"/><path d="M259.488 204.124c-.096-.096-1.245-1.82.192-2.683.096 0 .096-.09.192-.09.095 0 .095-.09.19-.09 0 0-.478-.96-.574-1.05-.862-2.11-.67-4.692-.096-6.704.192-.576.384-1.247.575-1.822 0 0 .96-2.01.384-2.776-.09-.096-.09-.192-.19-.192 0 0-2.87 5.368-3.16 8.146-.29 2.588-.48 5.175 2.49 7.28" id="Shape" fill="#B1BABF"/><path d="M269.166 205.753s.096.862-1.82 2.108c0 0 2.97.96 5.174-.28s5.175-6.8 9.008-5.65c3.737 1.35 2.683 7.57 3.737 9.87 1.054 2.3 3.833 3.26 4.024 3.36-.67-2.11-.2-2.78-.2-2.78-2.21-1.34-2.69-6.42-2.69-7.76 0-1.34.19-3.546.19-3.546-1.725.86-7.857-1.246-8.624-2.874 0 0-1.246 1.914-2.01 2.97-.77 1.15-4.218 4.884-6.806 4.6" id="Shape" fill="#B1BABF"/><path d="M306.442 204.22c-.958.287-1.438 2.49-1.438 2.49-.19.67-.383 1.246-.67 1.917-.575 1.437-1.438 2.78-2.492 3.833-.766.862-1.725 1.245-2.683 1.82 0 .096.09.287.09.383.67 1.63-1.44 2.3-1.44 2.3 3.64.19 5.08-2.012 6.51-4.408 1.435-2.395 2.393-8.43 2.393-8.43h-.097c-.096.095-.096.095-.19.095" id="Shape" fill="#B1BABF"/><path d="M255.943 209.01c1.437.67 2.874 1.342 4.216 2.108 2.01 1.15 4.21 2.49 5.07 4.887v.095c.19.575.28 1.342.09 1.917 0-.096 0-.192-.098-.288-.19-.39-.48-.67-.67-.96-.48-.48-.96-.96-1.534-1.44 0 0-.48 1.53-1.15 2.68-.383.67-.767 1.34-1.246 2.39-.86 2.2.098 4.6.385 4.6.29 0 .862-.29 2.012-3.358 0-.096.094-.19.094-.384 0-.19 0-.384-.097-.67.1-.48.77-.48 1.248-.385.19 0 .286 0 .38.094.29-.67.577-1.438.67-2.205.48-1.72.386-4.213-1.63-6.513-2.01-2.3-7.28-4.024-9.196-5.078-2.013-.96-3.738-5.75-3.45-9.004 0 0-.19 1.82-.19 3.64 0 .77 0 1.44.094 2.11 0 .288.095.575.19.86.48 1.82.576 3.07 4.79 4.89" id="Shape" fill="#B1BABF"/><path d="M285.073 227.694c.192.096.383.19.48.287.19.29.287.39.287.39-.192 0-.384.1-.67.1-.097 0-.672.2-.672.29-.958 3.16-.67 3.74-.48 3.93.193.1 2.397-1.15 3.067-3.45 0 0 .384-1.913.48-2.68.095-1.244.67-2.68.67-2.78-2.3-.092-3.545.77-3.545.77s-.67 1.15-.863 2.587c.192.095 1.054.478 1.246.574" id="Shape" fill="#B1BABF"/><path d="M300.597 221.85c-2.204-.384-7.38-2.205-10.445-1.534-2.492.48-4.025 1.916-4.79 3.354 1.628-1.917 4.694-1.82 6.994-1.533 1.82.19 3.545.574 5.366 1.054 4.504 1.06 5.27.1 6.9-1.05 1.34-1.05 2.49-2.68 3.353-4.12 0 0 0-.09.096-.09-2.01 2.21-5.55 4.31-7.47 3.93" id="Shape" fill="#B1BABF"/><path d="M282.294 212.65c-.096-1.053-.19-1.82.192-2.682.48-1.437-.383-3.066-2.012-3.736.958.48 1.533 1.437 1.15 2.395-.384 1.15-.288 2.108-.288 3.162.096 1.91.958 2.49.575 3.73l-.38 1.15c-.19.67-.86 1.15-1.63 1.24-.38 1.15-1.53 1.432-1.53 1.432 1.73.575 3.55-.19 4.12-1.725l.39-1.15c.29-.863.1-1.63-.09-2.108-.288-.577-.48-.96-.48-1.727" id="Shape" fill="#B1BABF"/><path d="M272.808 213.705l.383-1.15c.39-1.245 1.44-1.054 2.69-2.587.67-.766 1.34-1.437 1.73-2.682.29-.958 1.34-1.438 2.4-1.15-1.724-.48-3.353.287-3.93 1.725-.29.96-.862 1.44-1.532 2.21-.48.58-.862.87-1.34 1.15-.478.29-1.15.77-1.436 1.63l-.385 1.15c-.48 1.53.48 3.26 2.205 3.83 0 0-.77-.95-.388-2.1v-.093c-.382-.48-.67-1.244-.382-1.915" id="Shape" fill="#B1BABF"/><path d="M251.343 218.687s.67 3.545 2.396 6.707c1.72 3.162 3.83 8.72 4.59 10.923.29.958.96 1.916 1.91 2.97 1.436-.767 4.79-.575 8.53.766 3.544 1.15 6.322 2.97 7.185 4.408 1.245-.19 2.3-.67 3.065-1.15 2.014-1.34 6.996-4.5 10.254-5.94 3.352-1.43 5.94-3.92 5.94-3.92-.288-1.15-1.82-2.2-2.396-2.49-.288.1-1.63.29-2.3.77-.767.58-3.45 4.6-6.995 6.13.384-2.01-.957-3.06-1.245-2.97-.283 0-.57.868-.67 1.06-.092.19-.763 1.533-.96 2.203l-.19.67c-.57 0-1.15-.095-1.72-.095.574-1.053 1.053-2.01 1.532-3.065.285-.86-.577-1.055-.577-1.055-.48-.096-1.054-.19-1.53-.287h-.095c-.67-.097-1.053.286-1.053.574-.096.19-.096.29-.19.48-.19.578-.48 1.15-.768 1.727v.096c-.29.67 0 1.34 0 1.34-.195 0-.67 0-1.44-.19-.385-.096-.864-.29-.864-.29.288-.19.48-.67.48-.67.48-1.244 1.246-3.16 1.246-3.16s.29-.862-.19-.96c-.77-.19-1.44-.38-2.207-.573-.575-.096-.766.383-.86.48-.095.286-.287.766-.38.96-.29.764-.576 1.53-.86 2.392-.196.48 0 .96 0 .96s-.67-.098-1.058-.194c-.383-.096-.958-.48-.958-.48.095-.095.19-.382.286-.48.382-1.15.67-2.68.956-3.83 0-.19 0-.67-.48-.863-.577-.192-1.247-.48-1.82-.67-.577-.192-.77.287-.865.574-.286 1.15-.574 2.397-.67 3.45-.095.67.19 1.15.19 1.15-.285-.096-.86-.29-1.34-.48-.287-.095-.96-.574-.96-.574.386 0 .577-.764.577-.764.385-.766.67-1.436.96-2.203v-.19c.287-.77-.29-1.248-.384-1.248l-1.727-.86c-.48-.29-.763.093-.86.38-.286.86-.86 1.726-.96 2.685-.093.574 0 .958 0 .958-1.05-.48-1.435-1.342-1.435-1.342.287-.284.574-1.434.574-2.392 0-1.053.097-2.01-.38-2.3-.48-.382-1.248.48-1.727 1.15-.384.576-.48.96-.48.96v.09c-1.916-3.353-1.63-8.24-1.916-9.1-.29-.86-1.44-2.108-1.44-2.108s-2.587-.96-3.737-.1" id="Shape" fill="#FFF"/><path id="Shape" fill="#FFF" d="M280.186 206.136c.096 0 .096.1.192.1-.096-.1-.096-.1-.192-.1"/><path d="M332.793 249.443l-.096.096s-18.302 10.92-46.187 12.93c.863 1.34 1.725 2.58 2.3 3.93 8.624-.48 17.44-1.73 25.68-4.03 5.27-1.44 10.542-3.36 15.43-5.66 4.98-2.395 9.868-5.174 14.276-8.623 2.78-2.3 5.462-4.694 7.858-7.377 3.354-3.733 6.42-8.14 8.05-12.84l.095-.38c-.1.29-5.37 12.46-27.41 21.94" id="Shape" fill="#B1BABF"/><path d="M281.72 256.533c1.15 1.15 2.107 2.3 3.066 3.545 0 0 2.97-.19 3.353-.287 5.07-.38 10.25-1.05 15.23-1.91 12.45-2.2 21.94-5.46 26.35-7.09 1.05-.38 2.01-.86 3.06-1.24 22.04-9.58 27.31-21.75 27.5-22.032 0 .096-.865.767-2.3 1.916-.577.48-1.248 1.054-2.014 1.63-8.24 6.514-25.583 18.3-53.66 23.377-6.9 1.15-13.893 1.82-20.6 2.108" id="Shape" fill="#FFF"/><path d="M285.84 277.612c-5.654 3.545-18.398 6.898-30.664 2.778-11.978-4.024-20.027-14.276-22.518-20.503-.288-.67-.384-2.396 1.34-3.258 0 0-1.15.19-2.107.95 0 0-.09.09-.19.38-1.34 4.02 6.81 21.08 22.14 26.25 15.33 5.17 32.01-3.07 33.54-7.57.1-.29.1-.58.1-.58-.38-1.054-1.05-1.82-1.05-1.82.96 1.725.096 2.97-.574 3.354" id="Shape" fill="#DA2429"/><path d="M265.238 250.497c-14.182-4.79-29.514 2.3-32.868 6.515-.096.192-.287.384-.383.575v.096c.958-.862 2.108-.958 2.108-.958-1.725.766-1.725 2.587-1.342 3.257 2.588 6.228 10.54 16.48 22.52 20.6 12.264 4.12 24.913.767 30.663-2.778.67-.48 1.533-1.63.67-3.258 0 0 .67.67 1.054 1.82.192-1.054-.095-2.587-.67-4.31-2.396-6.995-10.062-17.63-21.752-21.56m8.91 16.193v.57c-.478-.29-1.053-.48-1.532-.77-.192 1.15-.48 2.3-.862 3.45-.767-.48-1.534-.87-2.3-1.25.383-1.06.575-2.208.862-3.26l-2.587-1.15c-.2 1.052-.48 2.11-.87 3.16-.77-.384-1.63-.768-2.49-1.055.29-1.055.57-2.01.86-3.067-.87-.288-1.73-.67-2.59-.958-.29.958-.58 1.916-.96 2.97-.86-.287-1.73-.575-2.49-.862.38-.955.67-1.914 1.05-2.872-.864-.286-1.82-.574-2.684-.765-.384.96-.767 1.918-1.15 2.97-.863-.19-1.725-.48-2.587-.67.386-1.053.77-2.01 1.25-2.97-.96-.19-1.82-.48-2.78-.67-.48.96-.96 2.013-1.34 3.067-.864-.194-1.727-.29-2.685-.386.383-1.15.862-2.2 1.34-3.254l-1.723-.29c.096-.19.29-.385.384-.577-5.27-.96-9.967-1.34-13.8-1.34 3.162-.675 8.624-1.058 14.95-.29l.19-.19c.48.093.96.093 1.44.19.48-.67.956-1.247 1.435-1.82.86.094 1.63.19 2.396.38-.48.575-.863 1.246-1.246 1.916.864.194 1.727.386 2.685.577l1.15-2.01c.77.19 1.534.383 2.205.478-.384.67-.67 1.344-.96 2.014.86.19 1.723.48 2.49.765.29-.67.575-1.438.767-2.11.67.19 1.438.477 2.11.67-.19.67-.384 1.436-.67 2.107.86.29 1.63.576 2.49.96.192-.766.29-1.436.48-2.203.67.287 1.437.575 2.11.96-.097.765-.19 1.53-.29 2.202.864.38 1.63.763 2.493 1.15.096-.77.096-1.536.096-2.3.67.38 1.434.764 2.11 1.15v2.3c.474.19.86.48 1.24.763v.38c5.365 3.16 9.39 6.61 11.5 9.007-2.97-2.3-6.9-4.79-11.5-7.09" id="Shape" fill="#FF7900"/><path d="M234.478 256.63c3.833 0 8.53.382 13.8 1.34.382-.574.765-1.15 1.245-1.628-6.42-.767-11.883-.48-15.045.287" id="Shape" fill="#010101"/><path d="M274.245 264.677v2.012c4.6 2.3 8.528 4.79 11.5 6.99-2.11-2.4-6.134-5.85-11.5-9.01" fill="#010101"/><path d="M274.245 264.677v-.383c-.383-.287-.862-.48-1.246-.766v-2.3c-.77-.383-1.44-.766-2.11-1.15 0 .767-.1 1.533-.1 2.3-.77-.383-1.63-.767-2.49-1.15.09-.766.19-1.533.28-2.204-.67-.287-1.44-.67-2.11-.958-.1.767-.29 1.437-.48 2.204-.77-.288-1.63-.67-2.49-.958.19-.767.38-1.437.57-2.108-.67-.288-1.437-.48-2.107-.67-.29.67-.577 1.34-.77 2.107-.862-.28-1.725-.47-2.49-.76.286-.67.67-1.34.957-2.01-.765-.19-1.435-.38-2.202-.48l-1.15 2.02c-.86-.19-1.82-.382-2.683-.573.383-.67.862-1.245 1.342-1.916-.77-.095-1.63-.287-2.398-.383-.48.576-.96 1.247-1.44 1.82-.48-.095-.96-.095-1.44-.19l-.19.19c-.386.48-.865 1.054-1.248 1.628-.095.193-.287.385-.38.576l1.723.288c-.577 1.055-1.056 2.11-1.34 3.258.86.096 1.82.288 2.68.384.382-1.05.766-2.11 1.34-3.066.863.19 1.82.383 2.78.67-.48.96-.863 2.012-1.246 2.97.86.192 1.72.384 2.583.67.382-.957.765-2.01 1.15-2.97.86.29 1.82.48 2.682.767-.383.96-.67 1.92-1.054 2.97.863.29 1.726.58 2.49.866.288-.957.67-2.01.958-2.97.86.288 1.82.67 2.586.96-.288.957-.575 2.01-.863 3.065.865.29 1.63.67 2.494 1.056l.863-3.164 2.583 1.15c-.19 1.15-.48 2.2-.86 3.256.767.385 1.534.864 2.3 1.247.384-1.15.67-2.3.86-3.45.48.29 1.057.48 1.536.77v-.572c.092-.67.092-1.34.092-2.01" fill="#FFF"/><path d="M212.15 209.298l.768 1.437c.48.862 1.15 2.012 2.012 3.353 4.025 6.42 9.295 13.318 16.482 20.504 0 0 8.912 8.72 12.65 12.073 1.436-.384 2.97-.767 4.598-.96-5.27-4.31-10.445-9.1-15.14-14.275-23.956-25.965-28.46-50.014-30.088-56.53 0-.095-2.3 14.18 8.72 34.398" fill="#FFF"/><path d="M234.478 246.952c.288.192 2.3 2.3 2.588 2.204 1.34-.575 2.683-1.15 4.216-1.725-21.08-18.39-29.13-38.22-29.13-38.22l.095.1c-11.02-20.213-8.72-34.393-8.72-34.393l-.095.384c-.96 2.683-1.246 5.653-1.438 8.528-.287 4.79.192 9.68 1.246 14.47 1.054 4.983 2.78 9.87 4.983 14.564 2.204 4.79 4.887 9.29 7.857 13.604 3.737 5.27 7.954 10.25 12.457 14.85 1.82 1.916 3.833 3.737 5.94 5.653" fill="#B1BABF"/><path d="M212.918 210.64l-.767-1.438c.29.48.58.958.77 1.437" fill="#B1BABF"/><path d="M209.852 254.81c-.192.382-.288.765-.288.957 0 .383.192.766.384 1.054 0 0 6.516.39 10.636 1.44.192-.57.383-1.34.67-2.2.192-.57.384-1.05.67-1.43-1.723-.093-8.527-.19-12.072.19" fill="#B1BABF"/><path d="M209.852 254.81c3.545-.385 10.35-.29 12.073 0 .96-1.534 2.492-2.205 3.546-2.588-1.72-.288-3.83-.48-5.65-.67-.86-.097-1.82-.193-2.68-.193-.57 0-1.15 0-1.72-.1-1.15.19-2.49.67-3.45 1.24-1.05.67-1.72 1.63-2.102 2.3" fill="#FFF"/><path d="M208.32 255s.19-.287.19-.383c.383-.767 1.246-1.533 2.012-1.916 1.342-.76 3.354-1.24 4.696-1.34h-.67c-1.63 0-3.26.19-4.888.39-1.437.19-2.78.48-4.12.48-.384 0-.863 0-1.246-.09s-.767-.19-1.054-.29c.096-.19.862 3.16 5.08 3.16" fill="#FFF"/><path d="M230.262 245.132c-.192.095-.383.287-.287.67.095.383.48 1.437-.096 3.066-.58 1.63-1.83 2.683-2.98 3.258-1.25.575-2.69 1.724-3.16 3.737-.39 2.012-1.44 4.6-1.15 6.323.09.67.76 1.533 2.2 1.533-1.06.86-2.018.76-2.78.38-1.25 2.3-3.07 3.26-6.52 2.58-3.45-.67-7.86-4.03-8.72-9.58 0-.1 1.63-.1 1.82-.1-.19-.29-.38-.67-.48-1.06 0-.19.096-.574.29-.86-4.31 0-5.08-3.26-5.08-3.353 0 0-1.34 1.055-1.438 2.97-.19-.766-.767-1.436-1.63-1.53-1.054-.19-2.01.574-2.204 1.63-.19 1.052.576 2.01 1.63 2.2 1.054.193 2.013-.574 2.204-1.63v-.093c0 .19.095.48.095.67.193.67.384 1.15.67 1.53.58.863 1.25.96 1.25.96l.094-.097c0-.096.386-.48.48-.384-.48-.288-2.3-1.725-1.15-4.79 0 0-.094 2.777 2.206 4.215.286 1.15 2.01 8.05 8.814 10.156 7.38 2.3 10.158-1.15 10.828-2.49.29-.575 1.056-2.492 1.056-2.492.67-1.82 2.2-8.91 2.87-9.776.576-.866 2.397-4.12 1.726-7.19-.097-.097-.193-.576-.576-.48" fill="#B1BABF"/><path d="M295.997 275.887c.67.958 1.437 2.396 1.246 4.216 1.533.767 6.995 4.79 9.582 7.282.192-.863.096-1.916-.287-3.162-.384-1.054-1.15-2.204-2.013-3.066-.096-.096-.19-.192-.287-.192-.863-.575-1.63-1.15-2.492-1.724-1.15-.76-2.395-1.53-3.64-2.2-.576-.28-1.15-.67-1.726-.96-.096-.09-.287-.19-.383-.19" fill="#FFF"/><path d="M307.592 285.18c.287.768.48 1.726.48 2.588 0 .192-.097.48-.097.67.192.097.287.192.48.288.19.192.478.288.766.48.39.19.87.382 1.25.478.29.096.67.096.96.096.96 0 1.82-.383 2.59-.958-.38-.096-.67-.192-1.05-.383-.38-.2-.67-.39-1.05-.68-.48-.39-1.82-1.63-2.11-1.92l-1.34-1.34c-.575-.58-1.725-1.63-2.3-2.018-.096-.095-1.533-1.245-1.533-1.245.097 0 2.493 2.49 2.97 3.93" fill="#FFF"/><path d="M310.466 289.588c-.48-.095-.862-.287-1.245-.48-.28-.094-.47-.286-.76-.478-.19-.095-.28-.19-.48-.287-.09.383-.19.67-.28.862-.284.288-.67.48-.96.575.48.383.96.767 1.34 1.15-4.12 3.928-9.58 3.928-12.74 2.395-3.064-1.533-4.022-3.353-3.64-5.94-.86-.192-1.63-.67-1.916-2.012 0 0 .094 0 .094.096.67.57 1.917.76 2.588.09.67-.58 1.15-1.63 1.63-2.68.384-.96.767-2.01 1.246-2.97.19-.39.29-.87.386-1.25.19-1.25-.095-2.49-.67-3.64-.67-1.15-.96-2.78-.48-4.41.576-1.63 1.534-2.3 1.82-2.49.29-.29.29-.48.097-.67-.287-.29-.67 0-.67 0-2.396 2.01-2.97 5.75-2.97 6.8 0 1.05-2.972 7.66-3.642 9.48 0 .095-.574 1.63-.67 2.586-.192 1.437-.096 5.94 7.09 8.527 6.613 2.395 12.17-2.01 13.13-2.778 1.915.093 3.257-.865 3.927-1.535l.48-.48c-.763 2.396-2.2 2.97-3.16 3.067h-.67c0 .095 0 .095.096.19.096.384.096.67.096.67s.19.098.575.098c.48 0 1.34-.096 2.49-.958.19-.19.29-.286.48-.48-.384.865-.096 2.015.766 2.398.96.48 2.016.19 2.59-.767.576-.96.19-2.013-.765-2.588-.67-.384-1.438-.288-2.01.19.572-.957.572-1.82.572-2.394 0-.1-.094-.577-.094-.577-.766.573-1.63.956-2.59.956-.38-.093-.763-.19-1.05-.285" fill="#B1BABF"/><path d="M296.955 281.636c-.287.862-.575 1.533-.766 2.108 3.64 1.63 7.09 3.64 9.39 5.27.28-.096.67-.288.95-.575.19-.2.28-.58.38-.96-2.59-2.49-8.05-6.52-9.58-7.28-.1-.1-.2.86-.39 1.43" fill="#B1BABF"/><path d="M286.51 162.254c-20.314-3.45-24.243 11.785-24.34 15.52-.095 2.684.097 4.505 0 5.654-2.97 1.246-6.13 1.725-6.13 1.725.19-1.725.19-5.46.86-8.527.672-2.78 5.367-15.043 21.85-15.14 1.724 0 3.544.097 5.46.385.67.1 1.438.29 2.013.39.192-.09.287 0 .287 0" fill="#B1BABF"/><path d="M347.263 307.984c-3.258 4.983-28.94 41.775-30.76 44.17-.19-.096-4.6-3.928-4.695-4.024 6.516-9.102 25.106-36.792 25.49-37.367 3.257-.767 6.515-1.63 9.773-2.683 0 0 .1 0 .2-.096" fill="#FFF"/><path d="M316.216 246.57c-15.236 4.12-29.8 5.268-39.48 5.556-.19-.096-.287-.192-.48-.383 2.3-.48 4.505-1.438 6.422-2.97 4.79-3.833 10.157-6.803 13.798-9.678 3.64-2.874 6.9-11.497 6.9-11.497 6.036-2.3 10.157-10.54 10.157-10.54s-.96-1.82-1.054-4.024c-.1-2.203 3.35-5.94 6.89-12.55 3.54-6.612 4.41-15.714-1.54-25.68-5.846-9.867-22.136-15.04-22.328-15.04-.096-.097-16.194-5.75-26.83-1.438-10.733 4.407-15.62 12.072-16.674 19.545-1.15 7.48-.67 12.56-2.108 14.19-1.44 1.73-3.26 2.59-3.26 2.59s-1.63 9.01 1.725 14.47c0 0-2.588 8.91-1.438 13.32 1.15 4.408 3.64 10.06 5.174 16 .575 2.397 1.82 4.6 3.45 6.325h-.48c-7.57-6.04-18.59-15.81-28.27-28.36-17.054-21.94-22.612-56.82-22.612-56.82-7.474 20.506-9.39 27.69-3.162 47.14 6.132 19.45 24.82 38.04 24.82 38.04-.48 1.053.193 3.065.193 3.065s-2.68-.86-10.923-.86c-8.143 0-6.61.86-9.1.764-2.49-.098-3.26-1.15-3.26-1.15-1.244.67-2.49 2.11-2.49 2.11-1.15.09-7.09.762-6.42 6.51.67 5.75 6.61 5.367 6.61 5.367 1.056 1.246 2.685 1.725 2.685 1.725s3.547 9.39 13.8 9.87c8.91.384 11.786-5.08 12.36-6.515.19.575.48 1.054.767 1.63 1.82 3.736 4.6 7.76 8.336 11.497s8.524 7.09 14.18 9.01c8.72 2.873 17.532 2.01 24.43-.193 2.59-.767 5.08-1.82 7.38-3.16-.382 1.914-.765 7.567 6.038 12.262 8.433 5.843 16.96.48 16.96.48s1.63.573 3.163.19c0 0 4.6 3.93 8.528-.288 3.93-4.217-.284-8.337-1.15-9.103 0 0-.092-1.915-.67-3.16 0 0-1.15.38-3.26-.96-2.11-1.435-.29-1.15-6.9-6.13-6.51-4.89-9.2-5.94-9.2-5.94s1.73-1.15 2.018-2.3c0 0 26.063-3.64 42.736-15.33 16.67-11.785 19.45-18.683 25.87-39.57 0 .38-25.49 24.815-52.32 32zm-65.256-43.404c-.096-.575-.096-1.342-.096-2.108 0-1.82.192-3.64.192-3.64s2.49-1.63 3.737-3.93c1.246-2.3 2.3-6.898 2.3-6.898 4.79-.575 9.2-5.557 9.486-5.94-1.15 1.15-2.69 2.012-4.32 2.683-2.97 1.245-6.14 1.724-6.14 1.724.19-1.724.19-5.46.86-8.527.67-2.78 5.367-15.043 21.85-15.138 1.724 0 3.545.095 5.46.383.67.096 1.34.287 2.014.383h.095c3.74.767 6.803 1.725 7.57 1.916.096 0 .19.096.19.096.385.096.96.288 1.535.575.19.096.385.096.576.192.29.095.578.19.866.287.384.192.767.288 1.247.48.386.19.865.382 1.34.574l.867.383c21.274 10.26 16.58 26.45 15.43 29.51-1.15 2.78-3.354 5.56-4.31 7.1-1.15-1.24-2.684-3.06-3.834-5.17-.766-1.34-1.34-2.78-1.533-4.212 0 0 .383 7.09 4.025 10.443 0 0-1.918 4.31-2.3 6.9-.385 2.586.574 5.364.574 5.364s-.287.384-.67.96c0 0 0 .094-.096.094-.86 1.534-2.01 3.067-3.354 4.12-1.63 1.247-2.395 2.11-6.9 1.055-1.724-.38-3.544-.764-5.365-1.052-2.3-.286-5.366-.382-6.995 1.534l-.575.863s1.25-.868 3.548-.77c-.097.19-.576 1.53-.67 2.78-.097.763-.48 2.68-.48 2.68-.67 2.3-2.875 3.545-3.067 3.45-.19-.19-.575-.67.48-3.93 0-.19.48-.384.67-.288.192 0 .383-.098.575-.098 0 0-.094-.095-.286-.382-.097-.19-.29-.29-.48-.38-.19-.098-1.055-.48-1.055-.48-.48-.19-.866-.385-.866-.385v.29c0 .19-.095.572-.095.67v.19c-.094.19-.094.382-.19.574-.19.765-.383 1.34-.575 2.01v.095c-.19.67-.96.48-.96.48h-.098c-.48-.29-1.054-.48-1.63-.77 0 0-.67-.383-.574-.96v-.192c0-.096 0-.096.093-.192.192-.67.575-2.01.575-2.3.1-.382.29-1.052.48-1.34-.094-.096-.38-.383-.573-.48-.19-.095-.384-.095-.67-.095-.097.094-.29.38-.29.48 0 .093-.193.764-.48 1.626-.287.768-.575 1.63-.67 2.11-.097.383-.48.48-.67.48-.193 0-.385-.097-.385-.097-.48-.193-1.15-.48-1.72-.67h-.097c-.67-.29-.575-.77-.575-1.056.285-.862.67-1.916.86-2.682.096-.194.096-.385.192-.577 0-.093.286-.67.67-.86-.288-.19-.767-.383-1.055-.48-.48-.19-1.247-.286-1.247-.286.096.287.19.766.096.957-.098.29-.96 3.356-.96 3.45 0 .097-.19.48-.384.576-.193.094-.863-.097-.863-.097h-.097c-.573-.195-1.34-.29-1.82-.387 0 0-.86-.29-.574-1.055 0 0 .576-2.01.864-2.97v-.095c0-.096.19-.48.19-1.054s-.38-.766-.67-.766c-.285 0-.573.48-.67.86l-.286.86v.1s0 .097-.095.097c-.288.767-.48 1.437-.767 2.204-.288.767-1.15.576-1.15.576-.575-.098-1.246-.29-1.725-.385h-.094s-.67-.19-.48-.96v-.09c.29-.67.48-1.25.77-2.016.096-.193.383-.864.575-1.15.19-.29.38-.384.38-.384 0-.19-.19-.48-.67-.572h-.19c-.097 0-.29-.095-.385-.095-.384-.097-1.055-.097-1.246.382.09.192.09.48.09.67 0 .192-.095.288-.095.384-1.15 3.16-1.726 3.45-2.014 3.352-.19 0-1.244-2.393-.382-4.6.48-.955.86-1.72 1.245-2.392.67-1.15 1.15-2.684 1.15-2.684.57.382 1.05.86 1.53 1.44.19.38.572.57.67.954.093.096.093.19.093.287.19-.573.097-1.34-.095-1.914v-.097c-.86-2.3-3.066-3.737-5.08-4.886-1.34-.763-2.78-1.433-4.214-2.104-4.215-1.82-4.31-3.064-4.79-4.98-.19 0-.287-.286-.287-.573zm4.6 30.18c-.096-.287-.192-.574-.192-.766-.575-1.724-2.78-8.048-3.258-9.485-.383-1.246-.767-2.396-.67-4.312 0-.287 0-.575.095-.862.287-2.39 1.437-7.28 1.63-7.85v-.09s1.915.96 2.586 1.25v.096c-.09.577-.57 4.41-.57 6.23v.67s1.15 1.15 1.44 2.108c.29.863 0 5.75 1.92 9.103v-.098s.1-.387.48-.96c.39-.576 1.25-1.44 1.73-1.15.48.382.384 1.34.384 2.3 0 1.052-.382 2.106-.574 2.393 0 0 .383.86 1.437 1.34v-.957c.19-.96.67-1.82.96-2.685.096-.286.383-.67.86-.382 0 0 .865.48 1.727.86.095.098.67.48.38 1.248v.19c-.29.767-.575 1.437-.96 2.204 0 0-.19.764-.573.764 0 0 .67.48.96.574.48.19 1.056.48 1.34.48 0 0-.284-.48-.19-1.15.19-.96.48-2.3.67-3.45.098-.286.29-.67.865-.574.57.286 1.242.48 1.82.67.48.19.48.766.48.86-.29 1.245-.58 2.68-.96 3.83-.098.194-.19.48-.29.48 0 0 .577.384.96.48.38.096 1.054.288 1.054.288s-.1-.48 0-.96c.284-.766.572-1.533.86-2.395.093-.19.285-.67.38-.955.095-.19.287-.573.86-.48.673.195 1.44.386 2.206.578.574.19.19.96.19.96s-.766 1.914-1.245 3.16c0 0-.19.48-.48.67 0 0 .48.19.864.29.766.19 1.245.094 1.437.19 0 0-.29-.575 0-1.34v-.1c.19-.572.48-1.15.766-1.72.096-.195.096-.29.19-.48.098-.29.48-.67 1.056-.577h.098c.48.097 1.057.19 1.536.29 0 0 .86.19.575 1.05-.48 1.053-.96 2.01-1.532 3.065.575 0 1.15.094 1.724.094 0 0-.092-.1.19-.676.197-.67.96-2.012.96-2.203.1-.192.29-.96.67-1.054.387 0 1.63.96 1.25 2.97 3.546-1.537 6.23-5.56 6.996-6.13.672-.48 1.917-.77 2.3-.77h.096c.96-.96 3.45-5.368 3.74-5.94v-.1c.67.1 2.777.48 2.777.48s-2.203 5.08-3.45 7.28c-1.34 2.208-2.395 2.97-3.64 3.836-1.246.862-6.804 4.6-8.337 5.652-1.437 1.053-5.366 4.502-8.816 5.173-1.722.29-3.16.387-4.6.196-1.434-.19-2.68-.48-4.12-.956-2.78-.96-5.08-2.11-7.38-4.6-2.103-1.725-3.062-5.94-3.64-8.144zm-39.67-6.994c-2.972-4.31-5.655-8.814-7.86-13.605-2.107-4.695-3.832-9.485-4.982-14.563-1.054-4.695-1.437-9.582-1.245-14.468.19-2.875.48-5.845 1.437-8.527l.192-.39c1.533 6.51 6.132 30.56 29.992 56.53 4.696 5.17 9.966 9.87 15.14 14.27-1.63.282-3.162.57-4.6.96-3.736-3.36-12.648-12.08-12.648-12.08-7.09-7.186-12.457-14.084-16.48-20.503-.864-1.343-1.44-2.493-2.014-3.355-.287-.48-.575-.96-.766-1.44l-.096-.096c.287.576 8.336 20.12 29.13 38.23-1.533.575-2.875 1.054-4.216 1.725-.192.095-2.3-2.013-2.587-2.205-2.108-1.82-4.12-3.737-6.037-5.75-4.408-4.5-8.624-9.388-12.36-14.754zm1.244 24.912c.863 0 1.82.095 2.683.19 1.82.193 3.833.384 5.654.672-1.05.383-2.49 1.054-3.54 2.587-.28.383-.48.862-.67 1.437-.29.862-.48 1.63-.67 2.204-4.12-1.15-10.63-1.438-10.63-1.438-.19-.287-.38-.67-.38-1.053 0-.288.096-.67.288-1.054.384-.77 1.055-1.63 2.205-2.3.96-.68 2.3-1.06 3.45-1.25h1.63zm11.978 1.437c-.575.87-2.204 7.96-2.875 9.78 0 0-.766 1.92-1.054 2.49-.67 1.34-3.45 4.79-10.828 2.49-6.707-2.11-8.528-9-8.815-10.15-2.3-1.43-2.204-4.21-2.204-4.21-1.15 3.066.766 4.503 1.15 4.79-.096 0-.48.384-.48.384l-.095.096s-.67-.1-1.24-.96c-.29-.385-.48-.864-.67-1.534-.09-.192-.09-.48-.09-.67v.095c-.19 1.055-1.15 1.725-2.2 1.63-1.054-.19-1.724-1.15-1.63-2.206.193-1.056 1.15-1.727 2.205-1.63.767.095 1.438.765 1.534 1.532.094-1.92 1.436-2.97 1.436-2.97.384.19.767.285 1.055.285.383.096.767.096 1.246.096 1.34 0 2.685-.19 4.12-.48 1.63-.19 3.26-.38 4.89-.38h.67c-1.34.096-3.354.575-4.696 1.34-.768.48-1.535 1.15-2.014 1.917 0 .096-.19.288-.19.384-.19.286-.29.573-.29.86 0 .384.197.77.48 1.055-.19 0-1.82 0-1.82.094.866 5.656 5.27 8.91 8.72 9.584 3.357.67 5.27-.29 6.52-2.588.766.38 1.724.38 2.78-.385-1.535.095-2.11-.864-2.206-1.534-.286-1.73.768-4.314 1.15-6.326.385-2.01 1.918-3.16 3.163-3.736 1.247-.576 2.493-1.63 2.97-3.26.577-1.626.194-2.68.098-3.063-.1-.383.096-.575.287-.67.387-.097.578.38.578.38.766 3.356-1.055 6.61-1.63 7.476zm58.453 23.48s0 .29-.096.58c-1.54 4.51-18.12 12.75-33.54 7.57-15.33-5.17-23.48-22.23-22.14-26.25.09-.284.19-.38.19-.38v-.096c.09-.19.19-.382.38-.574 3.35-4.31 18.78-11.31 32.86-6.518 11.69 3.93 19.357 14.565 21.657 21.367.575 1.724.766 3.26.67 4.31zm18.685 6.33c.575.388 1.725 1.537 2.3 2.01l1.34 1.348c.29.287 1.63 1.63 2.11 1.916.383.285.67.48 1.054.67.287.19.67.286 1.054.38 0 0 .095.48.095.577 0 .575 0 1.533-.574 2.395.57-.38 1.34-.48 2.01-.19.96.48 1.24 1.63.76 2.587-.48.96-1.63 1.245-2.59.766-.87-.48-1.25-1.532-.77-2.394l-.48.478c-1.057.86-1.92.956-2.49.956-.387 0-.58-.096-.58-.096s0-.195-.095-.67v-.195h.67c.96-.097 2.396-.67 3.162-3.067 0 .093-.19.284-.48.48-.67.67-2.01 1.63-3.93 1.53-.863.765-6.42 5.173-13.13 2.78-7.282-2.59-7.282-7.09-7.09-8.53.095-.956.67-2.49.67-2.585.575-1.82 3.546-8.43 3.64-9.484 0-1.054.577-4.79 2.97-6.707 0 0 .385-.29.67 0 .195.19.195.48-.093.67-.285.287-1.244.862-1.82 2.49-.573 1.63-.19 3.258.48 4.408.576 1.055.86 2.396.67 3.64-.094.48-.19.864-.382 1.247-.48.96-.86 2.01-1.246 2.97-.48 1.055-.958 2.108-1.63 2.683-.67.67-1.915.48-2.586-.096 0 0-.095 0-.095-.097.29 1.242 1.15 1.82 1.917 2.01-.38 2.586.48 4.406 3.643 5.94 3.16 1.532 8.623 1.532 12.744-2.396-.386-.48-.865-.77-1.344-1.15.29-.096.77-.29.96-.575.097-.19.29-.48.29-.862.097-.19.097-.382.097-.67.095-.862-.096-1.82-.48-2.587-.48-1.34-2.587-3.64-2.874-3.93.094.288 1.34 1.247 1.435 1.34zm-8.145-5.46c1.246.67 2.396 1.44 3.64 2.207.864.576 1.726 1.055 2.493 1.725.096.097.19.193.287.193.767.86 1.63 2.01 2.013 3.065.48 1.247.48 2.3.287 3.16-.096.385-.192.768-.383.96-.288.287-.67.48-.958.575-2.3-1.535-5.75-3.64-9.39-5.27.19-.577.478-1.247.765-2.11.19-.575.38-1.533.38-1.533.19-1.82-.58-3.354-1.25-4.217.09.1.19.1.38.195.57.38 1.15.67 1.72 1.052zm61.998-49.15c-1.63 4.696-4.695 9.104-8.05 12.84-2.395 2.68-5.078 5.174-7.857 7.378-4.312 3.45-9.2 6.323-14.182 8.623-4.982 2.393-10.157 4.214-15.523 5.65-8.24 2.3-17.05 3.544-25.68 4.023-.67-1.246-1.43-2.587-2.3-3.93 27.79-2.01 46.19-12.933 46.19-12.933l.1-.1c-.96.383-2.01.862-3.06 1.246-4.5 1.723-13.892 4.885-26.35 7.09-5.076.957-10.155 1.53-15.234 1.915-.382 0-3.352.288-3.352.288-.96-1.15-1.916-2.395-3.066-3.545 6.803-.284 13.7-.955 20.506-2.2 28.17-5.08 45.42-16.767 53.66-23.38.766-.573 1.437-1.15 2.012-1.63 1.434-1.15 2.3-1.914 2.3-1.914l-.1.573z" fill="#000"/><path d="M311.137 194.16c.958-1.342 2.683-4.983 2.683-9.486 0-5.078-2.3-11.21-10.54-16.288 0 0-.096 0-.096-.096-.096-.096-.192-.096-.288-.192-1.054-.67-2.108-1.245-3.066-1.724-.48-.192-.862-.383-1.342-.575-.383-.2-.862-.39-1.245-.48l-.863-.29c-.19-.1-.383-.19-.575-.19-.67-.2-1.15-.39-1.533-.58-.096 0-.19-.1-.19-.1-.768-.29-3.834-1.15-7.572-1.92-20.314-3.45-24.243 11.782-24.34 15.52-.095 2.68.097 4.502 0 5.65 1.63-.67 3.163-1.532 4.313-2.68-.287.286-4.695 5.364-9.486 5.94 0 0-1.054 4.6-2.3 6.9-1.246 2.297-3.737 3.926-3.737 3.926-.192 3.256 1.533 8.047 3.545 9.005 1.917.96 7.187 2.685 9.2 5.08 2.012 2.3 2.108 4.79 1.628 6.514-.19.766-.48 1.532-.766 2.203h.192c.38.193.67.48.67.576 0 0-.2.097-.39.384-.19.288-.48.958-.58 1.15-.29.67-.48 1.246-.77 2.01v.098c-.19.67.48.96.48.96h.093c.573.097 1.15.19 1.723.384 0 0 .862.19 1.053-.577.29-.77.48-1.44.767-2.207 0 0 0-.096.1-.096v-.096l.29-.86c.095-.29.382-.864.67-.864.287 0 .67.19.67.764s-.19 1.056-.19 1.056v.093c-.288.96-.863 2.97-.863 2.97-.287.763.576 1.05.576 1.05.48.19 1.248.285 1.82.477h.1s.67.19.863.095c.19-.097.382-.48.382-.576 0-.1.86-3.07.956-3.45.1-.29 0-.77-.09-1.057 0 0 .86.19 1.245.286.384.09.863.283 1.055.48-.386.19-.578.76-.67.86-.1.19-.1.38-.195.57-.288.864-.67 1.918-.863 2.684 0 .19-.096.767.575 1.054h.097c.577.19 1.248.48 1.727.67 0 0 .19.096.38.096.29 0 .58-.094.67-.48.1-.38.39-1.243.67-2.01.29-.765.48-1.53.48-1.627 0-.196.19-.388.29-.48.29 0 .48 0 .67.092.19.096.48.384.58.48-.192.287-.383.96-.48 1.34-.095.29-.383 1.725-.574 2.3 0 .096 0 .096-.096.19v.194c-.1.67.572.96.572.96.574.287 1.15.575 1.63.766h.094s.67.19.958-.48v-.097c.195-.67.386-1.34.578-2.013.1-.19.1-.38.195-.573v-.19c0-.1.095-.387.095-.67v-.29s.383.19.862.38c.19-1.533.863-2.587.863-2.587.194-.384.385-.67.577-.863.863-1.437 2.3-2.78 4.79-3.353 3.068-.67 8.242 1.15 10.446 1.535 1.916.384 5.46-1.723 7.473-4.12.385-.574.67-.96.67-.96s-1.052-2.775-.573-5.36c.38-2.588 2.3-6.9 2.3-6.9-3.546-3.35-4.025-10.44-4.025-10.44.194 1.434.77 2.87 1.535 4.212.86-.96 2.11-2.3 3.45-4.12m-31.63-2c2.874 2.59 4.12 2.78 4.407 2.876.287.098 1.437.67 5.27.385 4.407-.192 12.265-1.054 14.565 1.82 0 .096-5.56-.574-9.394.096-3.735.767-9.1 1.342-11.4.48-2.397-.767-6.325-4.408-8.817-7.28-2.59-2.78-7.38-5.56-7.38-5.655 3.545-.96 9.295 4.41 12.744 7.28m3.26 24.34l-.382 1.15c-.48 1.53-2.3 2.3-4.12 1.73 0 0 1.15-.29 1.537-1.44-.384 0-.67 0-1.055-.097-1.15-.38-1.726-1.53-1.343-2.49.093-.19 0-.38-.19-.38-.196-.096-.388 0-.388.19-.383 1.054-1.533 1.533-2.59 1.15-.38-.096-.67-.383-.86-.575-.383 1.15.384 2.11.384 2.11-1.726-.577-2.78-2.3-2.205-3.83l.38-1.15c.29-.867.96-1.346 1.44-1.63.48-.29.865-.578 1.34-1.15.675-.77 1.15-1.248 1.44-2.206.48-1.44 2.205-2.207 3.93-1.728.096 0 .096 0 .19.092.097 0 .097.098.19.098 1.63.67 2.49 2.3 2.015 3.735-.29.96-.195 1.63-.195 2.683 0 .765.193 1.245.385 1.724.19.384.384 1.246.096 2.01m23.96-12.36s-.863 6.04-2.396 8.43c-1.436 2.4-2.873 4.6-6.514 4.316 0 0 2.107-.575 1.436-2.3-.095-.095-.095-.287-.095-.383 0 0-.573.193-.86.193-2.203.287-6.9-.48-9.102-2.012h-.095s-.573.67.19 2.78c-.19-.095-2.97-1.053-4.02-3.352-1.054-2.3 0-8.625-3.737-9.87-3.735-1.246-6.706 4.407-9.006 5.652-2.204 1.244-5.174.286-5.174.286 1.82-1.246 1.82-2.11 1.82-2.11h-.098c-2.685-.094-6.9-2.394-8.435-3.93-.19-.19-.573-.67-.573-.67-.098 0-.098.1-.19.1-.1 0-.1.097-.195.097-1.534.863-.29 2.587-.193 2.683-3.063-2.01-2.87-4.6-2.584-7.376.284-2.78 3.16-8.145 3.16-8.145.19.09 2.78 1.24 5.08 3.35l.67.67c2.49 2.682 4.886 5.173 7.185 5.94.765.29 1.532.29 2.3.29h.573c1.15-.097 2.108-.48 2.108-.48.77 1.724 6.9 3.74 8.627 2.874l.096.096c.1.19.578.863 1.345 1.63l.383.387c.576.48 1.247.86 2.013 1.15 2.3.765 5.654.19 9.295-.48.287-.097.67-.097.957-.097 3.164-.38 6.04.29 6.04.29" fill="#FFF"/></g></svg>