<svg width="512" height="512" viewBox="0 0 512 512" xmlns="http://www.w3.org/2000/svg"><title>washington-redskins</title><g fill="none"><path d="M193.096 338.65c-1.136.344-3.467-.235-3.467-.235.78 5.67 1.64 7.61 1.64 7.61l-1.36 1.53 1.63 1.16c-1.76 11.223 3.41 18.947 5.8 26.47-1.89.58-4.04.48-5.66-.33.64 6.37.05 18.627-5.53 23.95-1.06-.63-1.836-.808-2.25-1.39-.83 1.79-1.466 2.49-3.152 7.06-.94 3.06-1.76 7.346-2.2 11.97-4.59-2.174-9.596-4.452-14.11-11.467-1.003-1.663-1.71-3-4.16-5.222-.567 1.05-.66 1.36-1.794 2.338-1.198 1.04-4.3 2.312-4.324 2.21-.63-2.825-1.38-5.44-3.2-8.62-1.74-3.525-7.72-8.214-12.607-19.666-2.005-4.394-3.008-8.312-3.843-12.833-.373.168-.632.28-.88.335-1.815.47-3.12.35-3.746-.914-1.535 3.814-3.45 5.947-5.08 6.98-.747 2.2-.63 2.782-2.26 4.573-1.492 2.07-2.002 2.6-3.045 6.53-1.69 3.99-4.22 5.96-4.6 6.99-.63-1.27-.878-1.03-1.505-1.97-6.144 7.522-6.9 9.485-20.82 12.154 3.51-6.374 5.894-17.01 5.645-19.205-1.76-14.93-3.39-18.05-4.274-29.62-.52-5.786-1.998-20.014-.616-38.977 1.5-22.9 8.524-42.69 14.55-57.618 7.777-20.817 25.58-54.364 38.576-74.86l.052-18.602h5.02l5.27-11.105 2.378 1.623 9.03-22.215 6.395 16.773 10.94-6.365c4.37-3.695 35.476-45.11 101.34-45.024 63.837-.083 129.567 45.96 129.567 119.53 0 66.857-59.214 118.45-127.547 118.45-52.956 0-87.06-24.87-105.15-47.66 1.153 11.455-1.256 34.247 9.35 55.646" fill="#fff"/><path d="M193.054 338.65l-1.022.11-1.14-.097-.925-.163-.38-.08.585 3.58.526 2.354.38 1.283.147.393-1.358 1.532 1.627 1.16-.172 7.812 1.52 6.81 2.293 6.117 2.162 5.74-2.928.36-2.73-.687.19 5.68-.63 6.686-1.79 6.493-3.3 5.09-1.37-.71-.878-.68-.607 1.215-.645 1.27-.81 1.79-1.084 2.78-1.29 5.394-.907 6.573-3.506-1.724-3.575-2.2-3.564-3.1-3.46-4.446-.73-1.2-.807-1.2-1.075-1.3-1.542-1.52-.688 1.197-1.107 1.14-1.18.8-1.428.735-1.207.52-.516.156-1.153-4.18-2.04-4.44-2.02-2.952-3.105-3.91-3.698-5.39-3.786-7.41-2.36-6.373-1.48-6.465-.88.333-2.32.195-1.426-1.11-2.51 4.537-2.575 2.45-.44 1.393-.36 1.046-.52.976-.937 1.16-.964 1.343-.73 1.222-.646 1.577-.707 2.39-1.38 2.63-1.41 1.978-1.17 1.42-.64.968-.752-1.11-.75-.853-2.09 2.57-1.794 2.123-1.73 1.75-1.875 1.45-2.24 1.225-2.82 1.07-3.62.986-4.637.984 2.39-5.38 1.832-5.79 1.12-5.005.285-3.03-1.29-9.305-1.18-6.77-1.02-6.14-.79-7.41-.513-5.864-.51-8.68-.153-11.15.56-13.274 2.06-16.57 3.515-15.234 4.36-13.736 4.608-12.077 3.352-8.35 4.125-9.244 4.71-9.83 5.14-10.124 5.373-10.1 5.45-9.79 5.346-9.168 5.064-8.246.05-18.6h5.016l5.27-11.107 2.374 1.63 9.03-22.215 6.392 16.776 10.936-6.367 1.135-1.12 1.77-1.884 2.42-2.537 3.084-3.072 3.753-3.49 4.44-3.79 5.14-3.985 5.85-4.05 6.57-4.01 7.293-3.854 8.053-3.58 8.8-3.18 9.565-2.675 10.347-2.05 11.136-1.305 11.94-.445 11.97.517 11.916 1.576 11.758 2.6 11.51 3.604 11.156 4.57 10.703 5.52 10.16 6.43 9.507 7.322 8.76 8.19 7.91 9.02 6.966 9.836 5.92 10.613 4.787 11.37 3.536 12.096 2.192 12.792.753 13.47-.686 12.347-1.997 11.936L410.37 248l-4.405 10.956-5.497 10.382-6.518 9.76-7.467 9.09-8.336 8.355-9.136 7.566-9.864 6.734-10.52 5.844-11.1 4.9-11.61 3.9-12.038 2.858-12.4 1.754-12.69.6-18.974-1.116-17.24-3.13-15.54-4.83-13.875-6.214-12.24-7.278-10.64-8.037-9.066-8.476-7.537-8.59.297 4.8.16 5.712.216 6.48.463 7.095.908 7.56 1.54 7.878 2.37 8.05 3.406 8.07" stroke="#fff" stroke-width="2.584"/><path d="M287.03 325.127c67.956 0 123.046-50.8 123.046-113.475 0-62.673-55.09-113.48-123.045-113.48S164 148.977 164 211.652c0 62.676 55.084 113.475 123.04 113.475" fill="#FFB612"/><path d="M287.03 309.29c58.462 0 105.868-43.713 105.868-97.638 0-53.925-47.406-97.636-105.867-97.636-58.46 0-105.86 43.715-105.86 97.636 0 53.925 47.4 97.638 105.86 97.638" fill="#fff"/><path d="M220.382 202.398s-8.65 19.323-8.277 34.59c0 0 2.692-5.718 3.643-4.74 0 0-7.778 24.06-1.885 37.83 0 0 1.255-3.82 3.384-6.138 0 0 3.26-4.742 4.525-8.56 0 0 .62 1.62.99 4.512 0 0 2.89-3.353 3.51-5.67.488-1.81 1.758-3.81 2.638-6.13l.998.47s5.9-6.598 8.154-12.618c0 0 1.754-.224.882 4.518 0 0 4.89-4.397 5.017-11.225l1 1.048c4.14 4.742 4.14 12.03 4.02 16.54-1 14.457-9.04 22.207-19.07 30.652l.89.695c14.92-2.54 24.75-4.03 39.89 0 5.76 1.54 19.69 7.405 26.46 11.342 0 0 15.05 6.012 25.586 6.012 0 0 .503.227.503-.29 0 0-1.13-3.584-.127-17.062 0 0 1.13-6.24 2.01-10.525 0 0 1.13-2.89 1.258-8.79.014-.49-.51-4.06 2.128-3.71 5.71.74 8.905-.46 13.298-1.16 0 0 4.65-1.27 6.537-1.39 0 0 4.402.65 5.76.23 1.5-.46 3.132-1.63 5.144-3.36 0 0 2.25-2.2.748-7.173 0 0-1.5-4.515-.63-5.903 0 0 1.33-3.067 3.265-4.864 0 0 1.38-2.07-.5-3.11 0 0-1-1.046.685-1.45 0 0 1.26.113 2.068-.29 0 0 .438-.17.504-1.037.078-.935.51-5.44-2.754-9.377 0 0 .94.234 1.633.47 0 0 4.01.34 6.087-.586 1.82-.927 4.45-2.08 4.08-7.638-1.023-4.622-3.02-7.405-5.03-12.607-2.38-5.55-2.75-8.33-7.763-12.137-3.014-1.275-4.396-3.355-2.14-5.44 1.755-2.436 1.126-6.823-1.996-9.834-3.014-2.78-5.27-7.06-6.41-9.26-1.5-2.31-3.132-4.86-4.63-6.363-1.52-1.733-3.765-2.77-7.77-7.17 0 0-2.4-1.964-2.77-4.04-3.39-4.86-12.8-11.69-23.583-12.38-3.142-.35-3.142-.35-5.4-.585-3.75-1.27-15.54-1.622-23.57.466-2.594.51-7.777 1.386-7.777 1.386-2.752.81-6.64 1.51-10.904 3.934-3.138 1.502-7.77 5.09-11.29 7.4-3.77 3.477-12.17 8.57-16.81 11.46-9.03 6.125-16.81 14.23-21.323 19.32 0 0-11.404 13.183-17.05 35.974-.375 3.47-1.373 6.823-.76 10.64 0 0 5.03-10.06 9.67-13.193 0 0-.64 1.86-1.01 4.86 0 0 2.38-4.044 3.377-4.74 0 0 1.757-1.736 4.27-4.506 0 0 5.274-6.365 6.773-7.06-1.94 3.356-2.38 5.553-2.57 9.02.818-.69 1.32-1.217 1.57-1.62 0 0 .49-.926 1-.697.258.6-.125 1.054-.125 1.054h-.002" fill="#000"/><path d="M370.877 204.482c-1.132-1.735-1.88-3.7-2.76-6.126-.373-.987-1.125-3.01-1.998-4.74-.06-.7-1.64-3.934-2.64-5.212-2.52-3.353-4.58-3.644-5.96-5.033l-.52-.01c-1.46.9-1.48 2.88-2.73 4.38-.13.17-.55.37-.83.25-.4-.18-.56-.5-1.01-1.09-.41-.564-.74-.16-1.19.308-.29 0-.5.21-.73.42-.39.378-.09.574.22.996.315.437 0 .437.2.66-.06.18-.114.25-.175.33-.166.23-.57.175-.865.125-.83-.126-.64-.07-1.38-.397-.915-.4-1.35-1.5-2.055-1.84-.208-.114-.923-.235-1.468.098-.404.25-.58.798-.24 1.09.59.498 1.052 1.08 1.68 1.52.856.59 1.79 1.025 1.903 1.85.15 1.054-1.534 1.436-2.33.88-.41-.284-.897-.605-1.34-1.037-.07-.06-.14-.413-.235-.477-.354-.25-.77-.547-.97-.807-.355-.497-.826-1.02-1.47-1.25-.15-.053-.272-.25-.385-.426-.294-.474.024-1.03-.19-1.47-.178-.36-.263-.947-.814-.72-.512.466-.444.466-1.02.42-.733-.06-.15-1.31-.15-1.14.01.07-.03-.026.216-.437-.502-.15-1.257-.52-.68-1.206.496-.58.982.27 1.17-.08.066-.133.494-.86.655-.96.562-.304.725.108.804.22-.24.63.478 1.05 1.17.71l.115-.64c.64-1.03 1.63-1.57 2.64-2.276l.41-.194c.305-.56.654-1.367.012-1.62-.537-.21-1.64-.02-1.41-.896.104-.41.684-.57 1.013-.702 1.19-.515 2.425-1.026 3.664-1.473.296-.11.805-.53 1.18-.557 1.565-.117 1.2-.084 3.11.224.34.053.99.383 1.324.49 1.013.33 2.462.222 3.13-.79.663-.99.476-2.67-.198-3.83-.794-1.414-2.015-2.63-3.07-3.6-1.346-1.244-3.096-1.88-3.444-3.59-.43-2.093-2.19-4.86-3.185-6.52-1.05-1.71-1.97-2.85-3.295-4.435-.31-.367-2.248-2.187-2.58-2.487-2.21-1.986-3.16-2.645-5.517-3.43-1.206-.396-5.91-.14-8.36-.43-.77-.092-3.13-.144-3.774-1.3-.58-1.05-1.31-2.55-2.53-3.26-.44-.25-1.11-.516-1.57-.734-2.206-1.024-4.486-2.736-6.87-2.65-.877.03-.037.904.19 1 1.08.526 1.568 1.113 2.16 1.747.616.668 1.957.693 3.108 1.13 1.095.417 2.003 1.064 3.023 1.56.964.467 2.256 2.01 1.19 2.643-.967.57-1.986-.123-3.266.175-.258.064-.645.22-2.13.22-1.977.25-2.664-.626-4.186-1.623-1.52-1.003-2.48-2.54-3.947-3.494-1.8-1.173-3.625-2.15-5.688-2.817-.455-.15-1.055.086-1.46-.11-.71-.368-1.254-1.154-2.15-1.22-1.53-.097-1.53-.213-3.05 0-.213.042-.774.63-.96.627-.9-.034-1.944-.263-2.4.194-.694.73.16.65 1.054 1.05.502.21 1.56.74 2.162.728 2.54-.044 4.164-.062 6.152.93.212.114 1.103.922 1.153 1.225-1.884-.03-4.863-.72-7.044-.552 3.666-.27-3.74.096-5.357.04-.484-.015-.484.9.27 1.407.2.128 1.32-.06 1.47.27.66-.32 2.54-.167 3.082.026.945.31.41.178 1.238.577.5.25.983.58 1.573.52.765-.08.81-1.127 1.58-.79.266.115.854.45.98.44 4.35-.077 4.45 1.18 6.48 1.15.523 0 1.303-.192 1.674.04.814.527 1.58.59 2.835.124 0 0 2.895 7.17 2.14 20.243-.75 5.552-1.127 6.6-2.51 11.11 0 0-2 7.167-1.26 12.14.765 16.775-4.766 30.66-10.775 39.913-2.26 2.543-3.52 3.93-1.255 5.773 4.77 4.054 8.66 4.978 15.42 6.372 2.396.69 3.894.92 6.145.92 3.51 0 9.044 1.385 11.545 3.126 2.376 1.16 8.78 3.36 12.663 2.777 3.384.233 4.393.465 6.034 1.043 1.12.456 2.26.456 3.514.114l1.937-1.33c.25-.57 2.07-1.324 1.697-3.644-.126-1.73-.88-3.53-1.245-5.14-1.085-1.43-1.016-2.49-.64-3.99 1.13-2.09 2.45-3.127 3.144-4.168 1.498-1.564.63-2.655-1.448-3.186-1-.4-2.94-.23-4.953-.4-1.066 0-1.946-.404-3.448-.12 0 0-1.016.64-1.567 1.11l-.766-.41s.7-1.85 2.127-2.95c1.446.23 3.558.384 4.65.12 1.3-.547 2.794-.77 3.888-1.166 1.89-.17 2.766-.057 5.02.063 0 0 1.13-4.51-2.82-7.927-.94-.8-1.707-1.85-3.065-1.907-4.79.52-7.41-1.27-8.17-1.74-1.18-.06-1.55.41-2.19 1.105-1.64 2.535-3.574 3.405-3.574 3.405l-1.007-.114s.88-1.383 2.876-3.7c.896-1.854 2.14-4.162 3.266-5.323.684-1.098.88-3.584 2.57-4.277.82 0 .952-.175 1.56.176-1.24 1.096-4.756 5.03-1.112 7.456 1.497 1.16 3.763 1.16 4.316-.056.274-.666.88-1.096 1.193-1.332 1.882-.345 3.453.523 4.072.99 1.505 1.62 2.386 2.37 3.13 2.713.823.586 2.335.465 3.08.465 2.446-.39 3.76-1.672 4.2-2.48 1.31-2.545 1.064-5.034-.817-8.04z" fill="#5B2B2F"/><path d="M345.474 185.383c.758.353 1.066.244 2.605.445 0 0 1.34.2 2.56-.782.19-.16 1.22-.634 1.18-1.015-.13-1.76.16 1.15-.22-1.5-.087-.56-.057-1.07-.3-1.67-.117-.31-.647-.84-1.427-.6-.145.06-1.386.99-1.41 1.03-.683 1.22-1.75 1.36-2.226 2.18l-.885 1.34c-.084.21-.198.43.104.58" fill="#5B2B2F"/><path d="M357.017 202.808c2.152-.65 3.196.274 5.57 1.77.416.26.76.936.158 1.306-.196.124-.646.102-.782-.018-2.085-1.84-2.758-1.855-5.036-2.23-.113-.008-.468-.66.09-.827v-.01" fill="#0C130F"/><path d="M344.22 223.15c-.327.905-.654 1.71-1.073 2.573-.428.9-.225 2.01-.89 2.818-.29.36-1.095.22-1.216-.2-.42-1.58-.21-3.24.61-4.69.44-.74 1.52-1.12 2.46-.83l.127.47v-.128h-.002" fill="#0C130F"/><path d="M322.65 212.513c-.713-.217-1.098-.83-1-1.503.242.062.04-.256.252-.237 1.496.086 2.895.643 4.392.675 1.705.03 3.416-.265 4.976-.946 1.936-.853 3.61-1.763 5.47-2.905.83-.508 2.025-.81 3.055-1.014 1.626-.34 1.52-1.183 2.73-1.846 1.772-.95 1.64-1.654 2.63-1.29.28.103-.288.68-.59.94-.67.55-1.55 1.103-2.154 2.083-.13.197-1.06 1.114-1.24 1.25-2.03 1.384-2.48 2.59-4 4.29-.85.97-1.13 2.234-1.7 3.356-.34.663-.55 1.35-.99 1.96-.18.252-.86.128-1.1.344-1.25 1.106-2.45 2.168-3.37 3.61-.15.235-.68.225-.75.098-.803-1.423-1.923-2.497-3.83-2.55-.34-.01-.705-.715-.683-1.338.01-.138-.15-.396-.33-.433-.297-.045-.432-.3-.742-.315-.324-.016-.582-.48-.64-.675-.386-1.123-.245-2.372-.495-3.552h.13v-.003" fill="#000"/><path d="M294.85 244.62c-.317-1.157-2.34-1.054-3.788-.92-2.202.22-4.208.567-6.343 1.603 1.4-1.96 3.13-2.08 6.42-3.245.74-.264.56-1.477.08-2.185-.55-.813-1.27-.855-1.55-.905-2.71-.486-3.58.09-5.02.432-4.97 1.18-9.85 4.64-12.578 7.953-.79.968-.53 1.987-.365 2.2.51.627 1.296 2.376 1.51 2.164 2.015-2.01 4.46-3.862 7.097-3.28-1.127.335-5.083 2.185-6.34 4.863-.077.17.51 1.146 1.256 1.665 1.01 1.562 1.38 2.195 1.95 2.486.35-.03 1.09-.7 1.295-.99 2.767-3.4 5.534-5.48 13.183-6.4 2.196-.34 3.45-.92 3.64-2.77 0 0 .435-.922-.44-2.776" fill="#fff"/><path d="M285.713 255.367c.13 1.74-.144 2.52.38 3.653.52 1.07 1.586 1.996 1.986 3.104.31.842 1.39 1.917 1.39 2.502.51.455.57.867.57.867.66.81 2.65 1.782 1.95 2.253-.83.586-3.27.174-4.74-.053-1.9-.287-.8 1.3-.4 1.46 1.922.732 5.96.98 7.28 1.652.8.406 1.85 1.022 2.185 1.747.25.543.7 1.014 1.094 1.484 1.27 1.577 1.725 2.26 3.04 3.255.654.5 1.41 1.35 1.18 2.11-.274.89-.886 1.08-1.805.96-.29-.04-1.21-.29-2.088-.64-1.753-.5-2.127-1.1-3.387-.5-.673.32.32 1.383 1.088 1.77 3.15 1.54 6.95 1.576 10.01 3.21 2.613 1.4 4.207 3.108 4.066 6.716 0 .066.942.54 1 .463.896-1.297 3.16.312 4.26 0 .104-.033.13-.578-.02-.8l-2.122-1.47c-.507-.747.22-1.55-.03-2.207-.26-.66-1.48.49-1.935.05-2.01-1.92-3.32-4.204-6.023-5.316 1.13-2.885 1.624-6.124 1.37-7.632-.745-.573-1.057.35-1.244.466-.62.547-.374 1.737-1.095 2.64-.126.15-1.097-.03-1.37-.25-1.846-1.452-3.57-3.18-4.433-5.24-.03-.074-.4-.5-.48-.6-1.35-1.752-1.27-4.2.3-5.96.17-.192.43-1.27.27-1.393-.285-.202-.914.21-1.17.45-.86.81-1.598 2.43-3.047 2.287-1.64-.16-2.262-1.69-3.263-2.687-.318-.984-.91-1.61-.76-1.74-1.378-1.85-1.498-3.356-2.777-5.664-.28-.52-.68-.77-1.236-.93h-.005" fill="#fff"/><path d="M295.25 286.605c1.638.77-.247-.987-.247-.987-.63-.403-2.102-2.504-2.39-3-.703-1.127-1.208-1.997-1.63-2.893-.616-1.394-1.843-2.378-3.866-4.18-1.013-.904-2.58-2.503-3.217-3.67-.99-1.812-1.555-5.06-3.937-6.58-1.836-1.18-1.396-2.52-2.978-4.804-.61-.86-1.85-.97-2.764-1.83-2.29-2.13-.84-2.95-2.84-4.91-.89-.85-1.27-1.03-2.03-2.34-1-1.68-.24-3.89-1.94-4.66-1.5-.69-2.67-.94-3.68-1.25-1.58-.48-4.1-1.67-5.52-2.69-1.493-1.07-4.56-3.43-7.834-6.05 2.003 14.23-.765 26.377-16.06 39.1 28.346-4.86 40.758 1.27 60.95 10.76" fill="#5B2B2F"/><path d="M305.96 268.446c.086 1.164.52.954 1.22 2.552.35.802 1.333 2.206 1.846 2.604 2.903 2.246 4.907 5.713 4.704 9.287.14 1.74.24 1.63 2.09 2.84.316.21.505.23 1.495 1.09l3.457 3.24c-.066-1.05.113-2.81.087-3.36-.17-5.46.97-11.097-1.04-15.87-1.5-3.57-4.89-7.592-6.22-11.33l-.67-2.04c-.7-2.9-.77-5.923-.77-5.923l-4.195-1.846c-3.304-1.22-7.02-2.335-10.347-3.47 0 1.62.242 2.77-1.067 4.395.88 1.97 1.62 6.31 2.627 7.352 2.193 1.9 3.95 3.403 5.396 7.975.326 1.09 1.312 1.68 1.37 2.49v-.002" fill="#5B2B2F"/><path d="M254.997 145.254s-2.502-.227-8.404 3.933c-6.513 3.7-15.168 9.024-21.448 16.08-4.57 4.218-11.034 10.64-13.414 15.155 0 0-3.89 5.668-6.4 14.92 0 0 .89 3.01 3.39-.925 4.38-6.876 21.07-30.025 44.9-46.905l1.14-.06c-11.8 9.363-27.09 21.98-41.96 43.44-.55.796-1.27 2.213-1.33 2.32-.667 1.147 1.038 1.324.17 1.13 1.356.305 1.856-1.433 2.73-1.778.534-.217.766 1.268 1.62.887 3.037-1.35 5.284-4.24 6.53-5.98.067.5.767 1.97.767 1.97 1.37.35 5.644-5.08 7.896-8.79.634.69-.15 2.39.68 1.66 2.577-2.24 4.878-4.65 6.247-6.84 1.6-2.56 3.36-3.72 3.99-8.23 1 .58.98.83 1.252 1.04.63-.69.67-1.42 1.67-2.45 1.08-1.13 1.3-2.01 2.622-2.808.472-.29 1.512-2.1 1.722-3.04.198-.9 2.355-3.805 2.51-4.77 1.75-3.01 4.77-4.627 6.896-6.94 2.01-1.612.5-4.507-3.76-3.003" fill="#fff"/><path d="M232.924 235.597c.88.927 1.625-.29 1.625-.29 1.45-2.022 1.76-2.546 2.76-5.262.63-1.794 1.38-2.43 2-9.943 1.76 2.426 2.003 7.05 2.003 7.05l.504-.113s1.633-4.29 4.39-5.67c0 0 .25-2.89 3.005-5.78-.37-1.74-.63-3.13-.995-5.91-1.13-4.63-1.76-12.38-.63-17.7 2.25 11.1 3.575 12.722 3.575 12.722l.5.17c.943-1.327 1.197-3.638 1.457-5.723 1.112-4.395 3.123-3.93 3.123-4.86-.63-3.585-1.627-9.253-1.006-14.114 1.26 5.32 1.882 4.977 2.75 6.95 1.13 2.42 1.257-.59 1.257-.59-.246-3.12 2.14-6.246-.128-13.535-.875-4.97-3.386-15.615-2.38-18.05.63-3-.504-1.964-.504-1.964s-3.267.698-8.15 13.427c-7.146 21.17-13.295 43.724-19.946 62.004 2-9.603 12.66-43.497 15.805-55.753 0 0-.44-.873-1.125.11-.824.87-1.635 1.964-2.077 2.715.06-.044-.377.063-.87.3l-1.58 2.193s-3.126 4.044-11.72 12.26c-1.45 2.09-2.07 3.044-3.638 6.364-.567 1.217.31 1.39 1.253.7 2.31-2.083 2.44-2.083 5.64-4.342.14-.1 2.72-.957 2.72-.998-.41.474-.956.79-1.15.974-.89.774-3.06 3.026-3.65 3.983-1.468 2.323-3.05 5.212-5.15 8.715-2.63 4.386-4.63 9.474-4.63 9.474-1.38 3.587-1.005 3.933-1.005 3.933 1.877.693.854 1.57.854 1.57-.855 1.44-1.234 2.59.214 2.073.943-.176 1.443-.616 1.83-1.064.743-.843 1.365-1.424 1.88-2.008.84-.97.676-1.264 1.584-2.217 1.17-1.25 1.91-2.29 3.11-2.8-2.078 2.6-2.198 4.45-2.198 4.45l.507.572.363.236s-2.125 2.425-3.12 7.933c-.485 2.616-.386 2.94-.823 4.393.21-.184 1.45 0 2.55-1.033-.473 1.61-.57 2.42-.57 2.42-.21 1.32-.21 1.093-.21 2.6 0 1.39 0 .8.5 2.423 2.25-.925 2.75-.808 4.88-3.12 1.006-.87 1.78-2.982 2.085-2.838.56.237.086 1.413-.17 1.93-.34.73-.644 1.27-.77 1.794-.07.27-.354.66.1 1.025.2.164.06.14.707.124.38-.01.737-.55.737-.55s.2-.045.4-.447c.14-.34.43-.53.68-.695 0-.007.38-.35.82-.24" fill="#fff"/><path d="M174.86 164.343h-2.632l8.655-18.164-10.663 7.69-2.45-11.51-5.574 15.68-2.7-1.91-4.07 8.43h-3.018v9.136h18.438l4.013-9.368" fill="#0C130F"/><path d="M159.188 173.246l9.778 6.012 1.002-2.664-5.77-3.463-5.01.12" fill="#0C130F"/><path d="M161.95 171.975l5.262 4.974s-4.135 16.07-3.385 24.87c7.657 6.82 13.3 13.42 12.42 28.22 0 0 .5.34-2.757-.58 1.632 1.62 2.127 2.89 3.508 5.66.626 4.51 1.012 8.56.626 12.725 0 0 .387 10.29.757 13.53 1.51.46.63 4.166.76 9.027 0 0-.13 3.006-.64 5.322-3.12-2.318-2.88-2.197-3.75-1.967.75 2.303 1.25 2.303 2.77 4.16 0 13.77.5 27.996 1.5 34.245.5 4.51 1.38 9.71 1.76 11.334.75 2.08.75 3.923 3.01 8.325-.75 0-2.854.06-4.268-1.612 2.01 3.465 2.01 2.775 3.266 3.93l1.75 12.03-2 2.08 2.764 1.62s-.63 5.44.12 10.41c.37 2.313 1.125 4.63 2.89 7.865-3.646.122-4.27-2.655-4.27-2.655-1-1.05-2.76-3.367-3.264-3.367-.25 3.365 1.757 4.638 2.63 6.603 2.56 5.65 2.898 11.107.63 21.625-2.505-2.193-2.63-4.167-4.515-5.202-.242 6.007-.494 7.86-1.75 10.514-2.63 4.746-3.39 7.19-3.51 11.816-4.39-3.363-5.52-7.986-8.53-10.645-2.135-1.964-6.393-5.67-7.9-8.1-.254 2.89 0 3.94-1.257 6.71-1.002-3.21-1.122-4.16-3.51-6.816-3.132-4.055-10.16-13.074-11.786-22.676-.382-1.623-1.38-6.364-2.507-12.846-.885 2.207-2.38 3.938-3.89 4.286-.76.35-.76-.575-.76-.575.63-2.09.88-4.4.63-6.134-.373-2.55-1.127-8.21-2.51-9.6h-.633c.126 3.812-1.506 5.55-2.507 6.82-.126-3.01 0-5.316-.75-6.82-.38-1.05-1.256-1.967-1.51-.93-.625 3.01-.876 3.59-.876 6.36-.247 4.17-.247 5.56-.757 9.028-.247 2.546-1.127 5.665-3.63 8.784-.5-2.766-2.384-4.968-2.384-4.968 0 3.352.757 8.324-1.5 10.99-2.766 3.467-3.144 5.202-4.02 7.75-.377-3.012-1.377-2.084-1.875-3.706-2.013 7.86-8.29 13.878-10.543 15.26 1.507-3.225 2.765-6.934 3.015-9.25 0 0-.38-8.56-1.767-13.41-3.43-15.147-5.09-50.12-2.5-63.4 6.265-47.657 33.11-91.388 55.685-130.717l6.27-.91v-.002" fill="#0C130F"/><path d="M164.58 176.714s-3.892 15.385-3.135 26.147c5.272 4.17 10.913 9.84 11.165 21.52-.44.18-.5.06-.883-.23-1.497-1.78-5.513-2.37-8.523-6.87.44 2.835 9.29 14.173 9.912 16.365.12 7.06 1.25 17.298.618 19.318l-3.01-1.85c1.634 3.874 3.01 7.29 4.957 10.123 0 0 .2 10-.19 8.612h-.5c-1.75-1.162-3.51-2.546-4.82-3.7-.82-.404-.94-1.384-2.45-2.726-2.25-1.905-3.51-3.525-4.45-3.874-2.39-1.556-4.01-2.08-5.39-2.48-.43 0-1.31-.12-1.31-.12s4.515 3.53 7.4 7.52c3.452 3.818 4.892 6.07 6.076 8.377 1.32 2.324 3.205 4.63 4.708 6.596 0 3.188-.25 13.765-.062 15.56l-.94-.64c-2.25-1.272-4.7-4.114-6.773-7.81-1.126 5.326 5.017 11.566 7.84 13.65.94 9.89.94 14.51 2.702 24.92l-.13.81c-2.516-1.612-5.143-4.17-8.28-8.32-.25 4.045 4.14 9.366 8.78 14.455.61.68.45 1.57.78 2.346.55 1.277 1.1 2.865 1.79 3.73.564 2.25.814 5.264.69 6.536l-1.882 3.357 2.506 2.78c.25 3.003-.374 3.81 0 7.165 0 0-2.88-.23-4.14-3.245-2.254 5.793.255 12.272 2.26 15.624 1.504 3.93 2.38 6.358 2.13 10.638l-.506 1.267c-1.5-2.77-3.63-5.08-5.77-6.584l-.87-.223c2.11 12.17 1.38 16.186-2.63 23.95l-.634-.585c-2.255-4.057-6.516-7.18-9.52-10.064-.51-.114-5.77-6.25-6.157-11.226l-.62.12c-.25 1.738-1.01 5.44-.5 6.13l-.506-.23c-3.006-1.276-8.465-11.1-9.4-16.766 0 0-.2-1.106-.632-3.36-.19-2.195-1.44-8.907-1.694-9.835-.44-2.485-1.584-5.627-2.062-7.283.064-.58-.375-.754-.69-.288-.694.91-1.25 1.785-1.634 1.21-.314-.578-.06-1.5.19-2.775-.5.344-1.626.49-1.756-.346-1.385-5.668-2.13-12.725-2.13-18.51.63-1.5 2.38-4.27 3.762-7.29l-.126-.688c-1.51.687-4.02 3.005-4.52 4.27l-.63-.803c-.5-2.32-1-6.83-1-11.568-.25-.87.12-1.384.505-2.086.997-2.193 2.135-4.65 3.006-7.057.76-2.44 4.96-9.947 6.22-11.69l-.827.69c-2.31.76-8.27 7.407-9.02 7.87l-.567.05c.31-6.65 2.32-21.453 3.696-30.54 1.383-3.41 12.17-13.82 9.655-11.97-4.882 1.62-6.512 3.24-7.523 3.7l-1.502.467c1.5-6.46 4.616-29.8 7.907-36.093 2.38-3.82 4.767-4.86 6.52-9.026l-1.26.576c-.873.816-4.767 3.476-7.144 6.486l-.762.11c1.13-3.006 1.51-6.242 3.766-10.41.62-1.74 1.63-2.432 2.39-3.933 1.873-2.203 2.63-3.012 4.386-3.82.87-.34 2.506-.92 2.506-.92-5.004 18.943-6.77 34.344-8.28 55.404-1.505 33.55 1.547 74.147 13.806 99.256-9.79-29.38-13.552-61.305-12.297-93.696 1-27.768 5.51-49.98 15.305-87.455l2.13 1.27.004.005" fill="#fff"/><path d="M157.934 173.822c-3.133 3.937-24.71 41.416-26.84 48.245-19.054 35.278-30.353 70.442-29.598 105.037 0 15.15 1.763 25.565 3.76 36.666.882 4.276 2.133 10.06 1.882 13.76l.634-.345c.874-1.505 3.255-6.242 4.015-10.174.253-1.5 1.128 0 1.128 0 .368 1.04 1.126 1.51 1.252 2.54 0 .93.493.82.75.12 1.378-2.54 1.756-4.05 1.25-6.7-.5-2.192-.87-11.33.253-14.69 0-.93.876 0 .876 0 .633 1.39 1.635 3.94 3.885 6.02 0 0 .95.576 1.01 0-.24-2.43-.49-18.28 3.52-20.02 1.5.347 1.63 1.28 2.76 2.32 1.26-1.275 1.77-6.71 1.39-10.876.125-6.475-.882-12.96-1.507-17-.526-1.275 0-1.51.75-1.744.186-.126 3.01-3.354 3.01-5.084-2.373 1.503-3.01 1.85-5.27 3.245-.25-4.98-2.63-12.843-5.26-18.983 2.76 2.326 4.508 4.98 5.39 7.18 1-5.088 1.38-8.105 1.506-10.534-1.376-4.51-4.01-14.335-3.76-21.63 1.63 5.32 3.13 11.108 4.766 14.58.753-2.552 1.378-7.062 2.38-10.88 1.375-.925 3.01-1.85 3.51-2.653-.503-.817-2.64.694-3.01.8.25-3.586.874-10.525-1.755-21.86l.37-.35c1.13.467 2.51 2.547 3.01 4.75 2.26-2.43 3.768-14.46 4.39-19.2-2.38 0-3.505 2.425-5.14 2.19.25-1.506.376-.804 1-2.19.63-1.626 2.14-3.25 2.764-5.443 1.38-1.85 1.38-4.05 1.51-6.13 0-1.967-.25-4.857 1.5-7.404.384 1.033.13 1.737 1 3.93 0 0 3.52-7.055 5.4-8.67 2.5-10.065 8.524-21.403 14.174-28.81" fill="#fff"/><path d="M159.06 180.183c-4.14 5.445-7.152 14-8.66 20.132 1.882-.927 2.008-.816 3.765-1.388.63-2.896 5.575-19.634 4.895-18.744" fill="#fff"/><path d="M117.576 312.273c.075.336.658.127.35.462.752 0 1.536.135 2.232-.062.353-.094.593-.603.655-.88.205-.968.722-2.202-.22-2.88-.83-.62-.685-1.6-1.27-2.075-.27-.218-.845-.366-1.235-.727-.29-.27-.817.34-.815.62.015.76.56 1.53.546 2.34-.02 1.24-.65 1.59-.25 3.22v-.003" fill="#FFB612"/><path d="M108.522 301.642c-.085-1.34-.564-3.23 1.6-2.7.68.16.837 1.092.853 1.542.036 1.213.335 2.18.893 3.242.32.6-.22 1.123-.547 1.552-.83 1.145-2.56 1.792-3.55.664-.6-.685-1.33-1.712-.79-2.65.43-.735.77-1.135 1.42-1.777" fill="#FFB612"/><path d="M110.694 315.412c-1.138-1.51-.605-2.916.727-3.812.85-.564 1.87-.185 2.11.48l1.52 3.937c.48 1.41-1.46 2.774-2.82 2.16-.97-.457-.9-1.937-1.52-2.765" fill="#FFB612"/><path d="M111.86 320.894c-.544-.157-.596.276-.865.5-.566.446-.568 1.384-1.06 2-.92 1.14-.643 2.755-.28 3.844.242.747 1.453 1.836 2.483 1.753 1.628-.12 2.832-2.91 1.59-3.58-1.615-.88-1.047-3.1-1.642-4.31-.044-.08-.43-.03-.684-.03" fill="#FFB612"/><path d="M122.21 318.04c-.417-.512-.435-1.2.043-1.53.44-.295 1.2-.152 1.644.2l.72.475c1.348.987 2.173 2.31 1.444 3.823-.19.425-1 .828-1.56.44-.43-.3-1.03-.32-1.34-.832-.48-.836-.28-1.78-.95-2.576" fill="#FFB612"/><path d="M107.385 308.69c-.242-.738-.92-.376-1.296.16-.89 1.27-1.34 2.5-1.46 4.35.25 1.037 1.86 1.236 2.65.774 1.79-1.038.51-5.02.42-4.47.052-.357-.33-.892-.33-.812v-.002" fill="#FFB612"/><path d="M142.265 320.14c-.366-.257-.972 0-1.006.414-.14 1.187-.16 3.438 1.79 3.072.69-.125 1.15-.786.99-1.457-.24-.97-1.01-1.5-1.79-2.04" fill="#FFB612"/><path d="M146.953 324.357c-.476-.437-1.317-.367-1.67-.12-.715.512-.982 1.593-.727 2.41.28.89.608 1.84 1.322 2.528.46.442 1.413.954 1.666.635.586-.766 1.132-1.787.872-2.89-.24-.98-.726-1.856-1.463-2.562" fill="#FFB612"/><path d="M164.89 322.97c-.35.03-.792.074-.935.272-.7 1.014.068 2.194.998 2.618.975.462 2.205-1.056 1.482-1.893-.46-.546-1.187-1.014-2.043-.996" fill="#FFB612"/><path d="M156.282 333.613c-.362-.17-.93-1.24-.652-1.958.256-.642 1.048-.9 1.723-.792.777.135 1.274.64 1.713 1.17 1.15 1.363 1.473 3.49-.017 4.63-.61.475-1.7.363-2.13-.305-.55-.834-.14-1.503-.56-2.396l-.09-.348" fill="#FFB612"/><path d="M166.7 334.36c-1.024-.738-.6-2.22-1.728-2.885-.63-.38-1.465-.472-2.05-.022-.613.493-.61 1.2-.768 1.94-.085.41.202.772.397 1.127.83 1.555 2.83 1.606 4.39 2.484.21.117.62-.28.77-.53.49-.777-.29-1.6-1.01-2.114" fill="#FFB612"/><path d="M150.103 332.903c-.53-.59-1.44-.396-1.985-.055-.187.115-.372.42-.372.65-.012 1.504-.555 3.063.04 4.486.36.86 1.188 1.9 2.26 1.46.77-.314 1.246-1.172.988-1.997-.476-1.528.23-3.252-.933-4.544h.01" fill="#FFB612"/><path d="M178.49 333.362c-.328-1.054-2.383.016-3.12-.66-.648-.592-1.427-1.123-1.544-2.057-.523 1.1-.107 2.238.447 3.21.315.554 1.044.852 1.513 1.343.536.53.724 1.265 1.026 1.936.383.875-.547 1.38-1.13 1.485-1.837.31-1.89-2.12-2.468-3.3-.406-.84-1.576-1.18-2.197-1.95-.15-.18-.42-.37-.562-.59-.518-.86-1.572-1.46-2.03-2.37-.083.394.06.787.188 1.137.874 2.556 2.282 4.81 3.492 7.22.34.67.716 1.33.923 2.06.186.625.085 1.373-.308 1.76-.387.4-1.31-.463-1.498-.174-.666 1.08.373 2.372.967 3.43.42.75 1.17 1.5.82 2.36-.07.167-.32.395-.58.46-.89.22-1.67-.31-2.14-.77-1.85-1.784-3.47-3.58-4.93-5.724-.57-.82-.26-1.89-.88-2.7-.36-.464-1.05-1.215-1.67-.703-.2.178-.45.41-.49.67-.2 1.056-.43 2.04-1.12 2.82-.2.22-.59.58-.66.716-.95 1.61-1.16 3.47-1.47 5.36-.076.45-.197 1.01-.7 1.24-.527.26-.883-.26-1.17-.596-.763-.865-1.07-1.897-1.598-2.886-.316-.617-.33-1.373-.75-2.023l-.228-.015c.07.175-.1.333-.18.444-.504.8-1.326 1.162-2.225 1.48-.493.172-1.05-.16-1.16-.55-.605-2.25-2.28-3.84-2.96-5.998-1.04 0-2.06.22-2.74-.716-1.498-2.04-1.198-4.335-1.395-6.576-.334.266-.74.453-.984.817-2.38 3.535-3.292 7.21-4.31 11.21-.2.8-.33 1.1-.6 1.85-.566 1.57.31 1.794 1.192.752 1.54-1.83 1.22-.32 1.376.117.38 2.673 1.88 5.323 2.5 9.835.51 4.39 1.51 8.79 2.01 10.985 1.332 7.22 6.52 14.577 9.66 16.4-.377-3.006.75-4.14.5-6.46l.634-.115c.115 4.055 3.38 9.26 7.14 12.155 3.01 3.233 4.642 3.925 7.18 7.28.75 1.157 1.35 1.69 1.98 2.614 1.375-2.616 3.886-7.238 3.886-12.33 0-3.91-.13-8.33-1.253-11.808 2.26.934 4.77 4.284 6.65 7.184 1.127-2.21.5-8.33-1.253-11.34-1.756-3.7-4.642-8.79-2.635-16.31 1.25 2.655 2.13 2.54 4.14 3.003.38-2.78-.13-6.71 0-7.17-.76-1.265-2.506-2.787-2.506-2.787l1.878-3.347c.88-3.355-.87-6.02-.685-6.536-.95-1.91-1.593-3.543-1.99-4.81v.003" fill="#FFB612"/><path d="M156.797 314.778c-.273-.716-1.037-1.246-.63-1.958.112-.2.527-.15.83-.215.893-.22 1.95-.09 2.54.493.464.46.78 1.005 1.166 1.577.39.59.496 1.297.75 1.95.288.72-.028 1.517-.638 1.858-.708.395-1.01.734-2.048.305-.39-.16-.63-.934-.815-1.233-.24-.4-.222-1.533-.54-1.905-.29-.32-.448-.432-.616-.87h.002" fill="#FFB612"/><path d="M156.12 318.685c-.304-.27-.706-.255-1.024-.277-.152-.007-.594.024-.577.282.1 1.402-1.66 2.06-2.2 3.165-.54 1.146.56 2.23 1.47 3.003.73.618 1.88.2 2.76-.05 1.456-.404 1.642-2.286 1.304-3.554-.264-.958-.92-1.815-1.75-2.57" fill="#FFB612"/><path d="M172.787 167.237h-17.242v3.7h15.74l1.502-3.7" fill="#fff"/><path d="M170.843 156.884l.63 2.72 3.264-5.85-3.893 3.13" fill="#fff"/><path d="M158.933 164.396l1.752-3.988 5.024 3.988h-6.78" fill="#fff"/><path d="M164.7 160.002l2.323-7.634 1.622 10.755-3.945-3.12" fill="#fff"/><path d="M101.87 313.37c.128 1.038.11.405.654 1.272.503.778.222 1.827.607 2.72.33-.385.94-.562 1-1.15.48 1.79-.93 3.515-.24 5.315.77-.635 1.9-.78 2.51-1.626-.05.72-.264 1.41-.373 2.11-.194 1.21.334 2.42.488 3.68.186 1.59 2.324 2.78 1.715 4.35-.99 2.54-1.517 5.23-.62 7.63.19.504.465 1.346 1.097 1.62.48.2 1.206.21 1.676 0 .258-.123.475-.503.523-.86.196-1.117-.34-2.16-.124-3.224.27-1.386.536-2.77 1.49-3.88.195-.225.927-.152 1.094.195.63 1.304.376 2.86 1.21 4.057.286.407 1.275.695 1.8.247 1.17-1.006.743-2.58.895-3.89.25-2.17-.854-3.33-1.17-5.54-.29-2.07.13-2.38.844-3.23.753 1.94.76 4.05 2.278 5.77.327.363.92.375 1.174.183 1.1-.873.88-2.775.08-4.01-1.215-1.88-2.21-4.847-.01-6.57-.14.95-.127 2.024.403 2.733.73.97 2.08 2.97 2.27 4.892.076.682 1.137.957 1.79.42.113-.1-.03-.556.314-.594 1.05-.135 1.55 1.01 1.496 1.8.417 0 .973.135 1.186-.063 1.012-.956.766-3.233.83-4.555.11-2.44.743-1.51 1.177-1.75 0 0 .19 1.165-.06 4.514.378 4.17-.12 9.61-1.382 10.874-1.125-1.034-1.25-1.964-2.752-2.315-4.01 1.74-3.76 17.594-3.515 20.016-.056.58-1.003 0-1.003 0-2.25-2.08-3.253-4.63-3.884-6.01 0 0-.876-.93-.876 0-1.124 3.35-.75 12.49-.25 14.69.5 2.654.125 4.157-1.253 6.7-.25.7-.745.817-.745-.113-.13-1.037-.89-1.498-1.255-2.55 0 0-.874-1.494-1.126 0-.76 3.93-3.14 8.68-4.017 10.183l-.634.345c.25-3.697-1-9.48-1.88-13.765-2-11.11-4.015-21.516-4.015-36.67 0-6.83.406-14.167.406-14.167l.22.22h-.002" fill="#FFB612"/><path d="M153.89 341.643c1.782 5.214 4.036 12.268 5.55 14.93-.382-3.008-4.77-14.93-4.646-15.73.125-.814-.903.8-.903.8" fill="#FFB612"/><path d="M292.155 145.792c-.375-.387-1.727-.185-1.964-.716-.16-.36-.36-.776-.6-.956-.41-.306-.99.114-1.56.2-.77.11-1.6-.042-2.38-.28-1.34 1.428-4.93.48-6.62.596-.21.008 1.07.677 1.296.858 1.188.937 3.148.854 4.595.9.24.01.71-.226.893-.246 1.557-.194 3.105.302 4.747.56.512.08 2.126-.414 1.61-.913v-.003" fill="#fff"/><path d="M316.535 147.796l-3.72-1.964c-.227-.337-.515-.747-.872-1.053-.837-.71-1.278-1.55-2.244-2.11-1.28-.76-2.34-1.73-3.74-2.21l-.49-.03c-.11-.02-.17-.11-.15-.223-.12 0-.28.044-.358-.016-.188-.2-.485-.312-.667-.37-.728-.22-1.56.18-2.204-.34-.363-.3-.79-.48-1.2-.714-1.11-.66-2.38-.26-3.57-.087-.24.033-.59.323-.84.525-.453.363-1.194-.286-1.793-.1-.525.16-1.106.723-.604 1.18.544.5 1.246.845 1.985 1.012 2.154.5 4.42.01 6.453.84.587.235 1.31.51 1.55 1.203-.206.036-.43.21-.61.086-.5-.33-1.04-.322-1.53-.36-3.43-.26-6.85-.52-10.282-.08 0 .81.346 1.66 1.145 1.76 1.065.13 2.21-.174 3.23-.1 1.12.075 2.312.74 3.43 1.32.15.08.414.076.59 0 .503-.185.94-.85 1.497-.614.337.153.695.29 1.052.35.79.12 1.35-.01 2.1.09 1.58.214 2.94 1.192 4.5.982 1.18-.16 1.72.2 2.3.69-.34-.275 2.16 1.37 2.37.962.09-.154 2.626-.29 2.65-.646h.003" fill="#fff"/><path d="M325.61 147.088c-1.01-.587-1.124-1.747-1.665-2.606-.412-.656-.966-1.186-1.625-1.5-2.948-1.41-6.386-3.86-8.58-3.674-.69.062-.97.75-.576 1.106.755.673 2.085.903 2.2 2.008 2.936 1.353 8.098 2.26 7.855 5.214-.02.286 1.89-.61 2.39-.55v.002" fill="#fff"/><path d="M155.546 167.237l18.495-.028c-1.01 1.84-1.61 3.74-1.61 3.74l-16.88-.02v-3.7" fill="#FFB612"/></g></svg>