<?xml version="1.0" encoding="utf-8"?>
<!-- Generator: Adobe Illustrator 13.0.0, SVG Export Plug-In . SVG Version: 6.00 Build 14948)  -->
<!DOCTYPE svg PUBLIC "-//W3C//DTD SVG 1.1//EN" "http://www.w3.org/Graphics/SVG/1.1/DTD/svg11.dtd">
<svg version="1.1" id="Layer_8" xmlns="http://www.w3.org/2000/svg" xmlns:xlink="http://www.w3.org/1999/xlink" x="0px" y="0px"
	 width="226.979px" height="226.979px" viewBox="0 0 226.979 226.979" enable-background="new 0 0 226.979 226.979"
	 xml:space="preserve">
<g id="Layer_7">
	<g>
		<path fill="#FFFFFF" d="M113.49,216.642c-27.553,0-53.457-10.73-72.94-30.213c-19.482-19.484-30.212-45.389-30.212-72.939
			c0-27.553,10.729-53.457,30.212-72.939c19.483-19.482,45.387-30.212,72.94-30.212c27.552,0,53.455,10.73,72.938,30.212
			c19.482,19.482,30.214,45.387,30.214,72.939c0,27.551-10.731,53.455-30.214,72.939
			C166.945,205.911,141.041,216.642,113.49,216.642L113.49,216.642z"/>
		<path fill="#FFC422" d="M113.489,20.675c51.258,0,92.815,41.554,92.815,92.814c0,51.257-41.557,92.814-92.815,92.814
			c-51.26,0-92.814-41.558-92.814-92.814C20.675,62.229,62.229,20.675,113.489,20.675 M113.489,0
			C98.178,0,83.313,3.003,69.308,8.927C55.791,14.644,43.656,22.824,33.24,33.24S14.644,55.791,8.927,69.308
			C3.003,83.313,0,98.177,0,113.489c0,15.311,3.003,30.177,8.927,44.18c5.717,13.518,13.897,25.652,24.313,36.067
			c10.416,10.417,22.551,18.598,36.067,24.314c14.005,5.924,28.87,8.928,44.182,8.928c15.311,0,30.177-3.004,44.181-8.928
			c13.517-5.717,25.651-13.897,36.067-24.313c10.417-10.416,18.597-22.551,24.313-36.067c5.924-14.004,8.928-28.87,8.928-44.181
			c0-15.312-3.004-30.177-8.928-44.182c-5.717-13.517-13.896-25.651-24.313-36.067c-10.416-10.416-22.551-18.596-36.067-24.313
			C143.667,3.003,128.8,0,113.489,0L113.489,0z"/>
	</g>
</g>
<g id="Layer_2">
	<g>
		<g>
			<polygon fill="#FFC422" points="122.143,73.221 104.797,73.215 104.797,11.487 122.143,11.487 122.143,73.221 			"/>
			<path fill="#231F20" d="M124.727,8.903v66.903l-22.515-0.007V8.903H124.727 M119.559,14.072h-12.178v56.56l12.178,0.004V14.072
				L119.559,14.072z"/>
		</g>
		<g>
			<polygon fill="#FFC422" points="122.143,215.653 104.796,215.653 104.796,154.066 122.143,154.066 122.143,215.653 			"/>
			<path fill="#231F20" d="M124.727,151.481v66.756h-22.515v-66.756H124.727 M119.559,156.65h-12.178v56.418h12.178V156.65
				L119.559,156.65z"/>
		</g>
		<g>
			<path fill="#FFC422" d="M179.52,191.887l-42.468-42.468l3.499-3.498l0.759-0.758l-0.002-1.072l-0.015-14.963l50.493,50.492
				L179.52,191.887L179.52,191.887z M47.419,191.887L35.153,179.62l52.966-52.965l3.697-3.696v24.529L47.419,191.887L47.419,191.887
				z M215.551,122.244h-74.903h-4.998l-2.486-2.486l-0.757-0.757h-1.069l-36.936-0.011l-2.585-0.001v2.585v0.67h-5.524H11.387
				v-17.348h74.904h5.574v0.808v2.584h2.584h36.935h1.071l0.757-0.757l2.635-2.635h4.801h74.903V122.244L215.551,122.244z
				 M91.865,104.231l-3.747-3.746L35.153,47.52l12.266-12.266L91.865,79.7V104.231L91.865,104.231z M141.357,97.949l-0.016-14.771
				l-0.001-1.069l-0.757-0.756l-3.582-3.582l42.519-42.517l12.267,12.266L141.357,97.949L141.357,97.949z"/>
			<path fill="#231F20" d="M179.52,31.599l15.921,15.921l-54.793,54.792h77.489v22.515h-77.489l54.793,54.793l-15.921,15.921
				l-46.122-46.122l5.327-5.326l-0.017-15.135l-7.372-7.373l-36.935-0.011v26.984l-46.982,46.982L31.498,179.62l54.793-54.793H8.803
				v-22.515h77.489L31.498,47.52l15.921-15.921l47.03,47.03v27.076h36.935l7.389-7.389l-0.016-15.135l-5.41-5.409L179.52,31.599
				 M179.52,38.908l-38.862,38.863l1.754,1.754l1.512,1.512l0.002,2.138l0.009,8.542L188.13,47.52L179.52,38.908L179.52,38.908z
				 M47.419,38.909l-8.611,8.611L89.28,97.992V80.77L47.419,38.909L47.419,38.909z M212.967,107.481h-72.319h-3.731l-1.878,1.878
				l-1.513,1.514h-2.142H94.449H89.28v-3.392h-2.989H13.971v12.178h72.321h2.941v-3.256l5.171,0.002l36.934,0.012l2.14,0.001
				l1.514,1.513l1.729,1.729h3.929h72.319V107.481L212.967,107.481z M89.232,129.196L38.808,179.62l8.611,8.611l41.813-41.813
				V129.196L89.232,129.196z M143.884,135.373l0.009,8.715l0.003,2.145l-1.516,1.517l-1.673,1.67l38.813,38.813l8.61-8.611
				L143.884,135.373L143.884,135.373z"/>
		</g>
	</g>
</g>
<g id="Layer_3_copy">
	<g>
		<g>
			<path fill="#231F20" d="M142.025,172.151h-1.803H70.098h-4.431v-4.43v-11.446v-1.897l1.374-1.31l6.749-6.433V80.646l-6.75-6.442
				l-1.372-1.309v-1.896V59.546v-4.43h4.431h70.125h1.805l1.291,1.262l16.631,16.25l1.334,1.304v1.865v28.059v1.887l-1.358,1.307
				l-6.846,6.578l6.849,6.6l1.355,1.307v1.884v28.063v1.866l-1.335,1.304l-16.631,16.239L142.025,172.151L142.025,172.151z
				 M98.831,147.051h30.671l4.79-4.79l-0.012-11.466l-4.779-4.78l-30.67-0.009V147.051L98.831,147.051z M98.879,101.275h30.67
				l4.791-4.793l-0.012-11.463l-4.781-4.781l-30.668-0.009V101.275L98.879,101.275z"/>
			<path fill="#231F20" d="M140.222,59.546l16.631,16.25v28.059l-10.164,9.768l10.164,9.795v28.063l-16.631,16.239H70.098v-11.445
				l8.123-7.741V78.75l-8.123-7.751V59.546H140.222 M94.449,105.705h36.935l7.389-7.389l-0.016-15.135l-7.373-7.372l-36.935-0.012
				V105.705 M94.401,151.481h36.935l7.389-7.389l-0.017-15.135l-7.372-7.373l-36.935-0.011V151.481 M143.833,50.686h-3.61H70.098
				h-8.86v8.86v11.453v3.792l2.743,2.618l5.379,5.133v62.197l-5.375,5.123l-2.747,2.618v3.795v11.445v8.861h8.86h70.125h3.608
				l2.581-2.521l16.632-16.239l2.67-2.607v-3.732v-28.063v-3.768l-2.712-2.613l-3.533-3.405l3.525-3.388l2.72-2.615v-3.774V75.796
				v-3.73l-2.668-2.607l-16.632-16.25L143.833,50.686L143.833,50.686z M103.31,96.844V84.66l24.403,0.007l2.186,2.187l0.009,7.795
				l-2.193,2.194H103.31L103.31,96.844z M103.262,142.62v-12.183l24.402,0.007l2.187,2.188l0.009,7.794l-2.193,2.193H103.262
				L103.262,142.62z"/>
		</g>
		<g>
			<path fill="#231F20" d="M141.048,169.751h-0.826H70.098h-2.031v-2.03v-11.444v-0.87l0.629-0.6l7.493-7.143V79.619l-7.494-7.151
				l-0.628-0.6v-0.869V59.546v-2.031h2.031h70.125h0.826l0.593,0.578l16.631,16.251l0.612,0.597v0.855v28.059v0.865l-0.625,0.599
				l-8.641,8.306l8.644,8.329l0.622,0.599v0.864v28.063v0.857l-0.613,0.597l-16.631,16.239L141.048,169.751L141.048,169.751z
				 M96.432,149.452h34.065l6.197-6.197l-0.016-13.456l-6.182-6.183l-34.065-0.011V149.452L96.432,149.452z M96.48,103.673h34.063
				l6.198-6.197l-0.015-13.454l-6.184-6.184L96.48,77.828V103.673L96.48,103.673z"/>
			<path fill="#FFC422" d="M140.222,59.546l16.631,16.25v28.059l-10.164,9.768l10.164,9.795v28.063l-16.631,16.239H70.098v-11.445
				l8.123-7.741V78.75l-8.123-7.751V59.546H140.222 M94.449,105.705h36.935l7.389-7.389l-0.016-15.135l-7.373-7.372l-36.935-0.012
				V105.705 M94.401,151.481h36.935l7.389-7.389l-0.017-15.135l-7.372-7.373l-36.935-0.011V151.481 M141.877,55.485h-1.655H70.098
				h-4.061v4.061v11.453v1.738l1.257,1.2l6.865,6.551v66.307l-6.863,6.541l-1.259,1.2v1.739v11.445v4.062h4.061h70.125h1.653
				l1.184-1.155l16.631-16.239l1.225-1.195v-1.711v-28.063v-1.728l-1.244-1.197l-7.123-6.865l7.119-6.845l1.248-1.198v-1.729V75.796
				v-1.709l-1.224-1.195l-16.631-16.25L141.877,55.485L141.877,55.485z M98.511,101.643V79.859l31.191,0.01l4.995,4.996
				l0.013,11.771l-5.008,5.008H98.511L98.511,101.643z M98.462,147.421v-21.784l31.191,0.01l4.996,4.996l0.013,11.771l-5.009,5.008
				H98.462L98.462,147.421z"/>
		</g>
	</g>
</g>
<g id="Layer_6">
	<g>
		<path fill="#231F20" d="M113.489,20.675c51.258,0,92.815,41.554,92.815,92.814c0,51.257-41.557,92.814-92.815,92.814
			c-51.26,0-92.814-41.558-92.814-92.814C20.675,62.229,62.229,20.675,113.489,20.675 M113.489,4.431
			c-14.715,0-29,2.885-42.456,8.577c-12.989,5.494-24.65,13.355-34.661,23.366c-10.011,10.01-17.872,21.672-23.366,34.66
			C7.316,84.489,4.43,98.773,4.43,113.489c0,14.715,2.886,28.999,8.577,42.455c5.494,12.987,13.355,24.649,23.366,34.659
			c10.01,10.012,21.672,17.873,34.66,23.367c13.457,5.692,27.741,8.577,42.456,8.577c14.716,0,29-2.885,42.456-8.577
			c12.987-5.494,24.649-13.355,34.66-23.366s17.873-21.673,23.366-34.66c5.692-13.456,8.577-27.74,8.577-42.455
			c0-14.716-2.885-29-8.577-42.456c-5.493-12.988-13.355-24.65-23.366-34.66c-10.011-10.011-21.673-17.872-34.661-23.366
			C142.489,7.316,128.206,4.431,113.489,4.431L113.489,4.431z"/>
	</g>
</g>
</svg>
