<?xml version="1.0" encoding="utf-8"?>
<!-- Generator: Adobe Illustrator 12.0.0, SVG Export Plug-In . SVG Version: 6.00 Build 51448)  -->
<!DOCTYPE svg PUBLIC "-//W3C//DTD SVG 1.1//EN" "http://www.w3.org/Graphics/SVG/1.1/DTD/svg11.dtd" [
	<!ENTITY ns_svg "http://www.w3.org/2000/svg">
	<!ENTITY ns_xlink "http://www.w3.org/1999/xlink">
]>
<svg  version="1.1" id="COLORADO_AVALANCHE" xmlns="&ns_svg;" xmlns:xlink="&ns_xlink;" width="243.823" height="200"
	 viewBox="0 0 243.823 200" overflow="visible" enable-background="new 0 0 243.823 200" xml:space="preserve">
<g>
	<path fill="#005488" d="M241.666,145.178c-0.521-1.235-6.977-15.327-11.821-20.304c-6.28-9.035-6.518-8.703-6.28-9.035
		c10.762-15.168,14.942-31.06,10.402-45.404c-7.73-24.423-38.719-37.976-77.896-37.55c-1.367-2.197-3.107-4.333-5.205-6.28
		c-5.228-4.857-11.444-7.423-16.719-7.423L122.31,0L95.412,43.593C34.176,64.164-6.178,108.127,4.839,142.954
		c2.877,9.088,15.369,22.155,15.369,22.155L0,198.975c49.707-6.006,91.221-8.191,91.221-8.191l2.696-10.762
		c14.632-1.11,30.142-4.067,45.837-9.035c4.285-1.355,8.467-2.829,12.55-4.405c1.933,6.185,4.208,13.391,4.663,14.453
		c7.535,17.803,32.609,24.209,55.999,14.31C236.354,185.443,249.205,162.982,241.666,145.178z"/>
	<path fill="#A7B1B7" d="M157.44,154.759c-26.22-12.29-47.521-3.277-53.259-2.46c-1.511,0.608-2.995,1.159-4.462,1.683
		c-1.05,0.382-2.098,0.75-3.124,1.087c-28.512,9.386-48.065,3.833-57.813-8.902c-0.65-0.839-1.236-1.727-1.798-2.637
		c-11.985-19.38-4.067-52.198,26.269-76.322c-56.029,42.473-31.039,76.646-28.717,79.358c0.096,0.165,0.198,0.32,0.295,0.489
		c-15.595,25.525-27.256,44.852-28.153,47.031c33.594-3.685,81.527-7.37,81.527-7.37l10.345-29.406
		c22.171-8.906,47.145-8.835,69.542,5.639C168.091,162.95,167.274,158.448,157.44,154.759z"/>
	<path fill="#FFFFFF" d="M219.278,111.186c1.661,0.56,7.356-14.763,6.992-22.933c-1.149-25.924-31.143-45.742-67.457-44.958
		c-0.37,3.519-1.036,6.531-1.896,8.68l31.443,48.99C188.361,100.964,205.375,101.907,219.278,111.186z"/>
	<path fill="#FFFFFF" d="M32.384,142.767c-16.564-26.181,6.228-63.764,51.496-88.634c-112.319,50.238-56.783,96.732-56.783,96.732
		l5.559-7.685C32.564,143.043,32.471,142.909,32.384,142.767z"/>
	<path fill="#FFFFFF" d="M98.507,168.042l2.866-7.374c35.643-11.881,47.935-2.456,47.935-2.456
		C123.908,168.042,98.507,168.042,98.507,168.042z"/>
	<path fill="none" d="M112.748,114.298c8.791-3.076,17.351-7.09,26.18-10.411l-0.007,0.062c0.537-0.223,1.074-0.439,1.614-0.662
		c7.114-2.592,11.474-4.326,11.474-4.326s12.199-3.567,18.705-4.158c-11.467,0-31.496,5.765-31.496,5.765s-3.918,1.495-6.267,2.413
		c-1.046,0.404-10.168-23.847-10.168-23.847s-9.568,27.172-11.399,32.665c-0.142,0.421-6.422,2.464-6.422,2.464
		s-14.749,6.553-20.483,7.375c3.703,0,8.582-1.172,12.816-2.46C102.623,117.885,107.479,115.471,112.748,114.298z"/>
	<path fill="#A7B1B7" d="M63.252,67.208c3.259-2.471,6.782-4.973,10.616-7.498C70.059,62.088,66.531,64.6,63.252,67.208z"/>
	<path fill="none" d="M116.276,109.269c0,0,9.306-4.236,11.86-4.521l-5.156-14.963L116.276,109.269z"/>
	<path fill="none" d="M112.748,114.298c8.791-3.076,17.351-7.09,26.18-10.411l-0.007,0.062c0.537-0.223,1.074-0.439,1.614-0.662
		c7.114-2.592,11.474-4.326,11.474-4.326s12.199-3.567,18.705-4.158c-11.467,0-31.496,5.765-31.496,5.765s-3.918,1.495-6.267,2.413
		c-1.046,0.404-10.168-23.847-10.168-23.847s-9.568,27.172-11.399,32.665c-0.142,0.421-6.422,2.464-6.422,2.464
		s-14.749,6.553-20.483,7.375c3.703,0,8.582-1.172,12.816-2.46C102.623,117.885,107.479,115.471,112.748,114.298z"/>
	<path fill="#FFFFFF" d="M77.961,62.988C41.91,83.474,39.45,121.984,39.45,121.984s2.46-0.822,2.46,0
		c-0.296,6.495,0.69,11.281,2.488,14.914l11.583-19.141C50.353,107.341,50.892,89.307,77.961,62.988z"/>
	<path fill="#8B2942" d="M36.604,149.773l-25.012,41.308l74.836-6.824l8.957-25.715C87.885,161.09,52.519,171.626,36.604,149.773z"
		/>
	<path fill="none" d="M96.595,155.069l2.351-6.752c-12.926,3.432-25.835,5.386-39.828-0.111c-5.769-2.1-11.525-4.871-14.72-11.308
		l-5.617,9.27C48.53,158.902,68.083,164.456,96.595,155.069z"/>
	<path fill="none" d="M122.98,89.785l-6.704,19.483c0,0,9.306-4.236,11.86-4.521L122.98,89.785z"/>
	<path d="M240.636,166.724c-7.403,19.581-43.458,40.07-69.448,26.369c-6.785-3.92-10.061-9.244-15.145-20.379
		c20.244,23.012,61.888-8.649,61.888-8.649s6.877-1.736,6.877-7.016c3.521-2.632,5.28-6.148,7.917-9.665
		C235.357,152.659,240.636,166.724,240.636,166.724z"/>
	<path fill="none" d="M116.276,109.269c0,0,9.306-4.236,11.86-4.521l-5.156-14.963L116.276,109.269z"/>
	<path fill="#A7B1B7" d="M139.219,100.569c0,0-3.918,1.495-6.267,2.413c-1.046,0.404-10.168-23.847-10.168-23.847
		s-9.568,27.172-11.399,32.665c-0.142,0.421-6.422,2.464-6.422,2.464s-14.749,6.553-20.483,7.375c3.703,0,8.582-1.172,12.816-2.46
		c5.327-1.292,10.183-3.707,15.453-4.879c8.791-3.076,17.351-7.09,26.18-10.411l-0.007,0.062c0.537-0.223,1.074-0.439,1.614-0.662
		c7.114-2.592,11.474-4.326,11.474-4.326s12.199-3.567,18.705-4.158C159.247,94.804,139.219,100.569,139.219,100.569z
		 M116.276,109.269l6.704-19.483l5.156,14.963C125.582,105.032,116.276,109.269,116.276,109.269z"/>
	<path fill="none" d="M132.952,102.981c-1.046,0.404-10.168-23.847-10.168-23.847s-9.568,27.172-11.399,32.665
		c-0.142,0.421-6.422,2.464-6.422,2.464s-14.749,6.553-20.483,7.375c3.703,0,8.582-1.172,12.816-2.46
		c5.327-1.292,10.183-3.707,15.453-4.879c8.791-3.076,17.351-7.09,26.18-10.411l-0.007,0.062c0.537-0.223,1.074-0.439,1.614-0.662
		c7.114-2.592,11.474-4.326,11.474-4.326s12.199-3.567,18.705-4.158c-11.467,0-31.496,5.765-31.496,5.765
		S135.3,102.063,132.952,102.981z"/>
	<path fill="#A7B1B7" d="M183.251,100.683L122.207,5.221c0,0-61.452,100.921-61.428,99.621c-1.196,2.717-1.705,5.261-1.554,7.566
		l2.897-4.792l60.256-97.613l56.913,88.438c0.741,1.113,1.273,2.032,1.625,2.788C186.323,101.59,183.251,100.683,183.251,100.683z"
		/>
	<path fill="#8B2942" d="M179.291,98.44l-56.913-88.438l-60.256,97.613l-2.897,4.792c0.952,14.541,28.442,19.366,77.76-4.045
		c8.514-4.036,19.933-6.735,35.237-7.207c2.231-0.069,4.537-0.094,6.931-0.065c0.674,0.061,1.256,0.104,1.762,0.138
		C180.564,100.472,180.031,99.553,179.291,98.44z M152.009,98.962c0,0-4.36,1.734-11.474,4.326c-0.54,0.222-1.077,0.439-1.614,0.662
		l0.007-0.062c-8.83,3.32-17.389,7.334-26.18,10.411c-5.27,1.172-10.125,3.587-15.453,4.879c-4.234,1.288-9.113,2.46-12.816,2.46
		c5.734-0.821,20.483-7.375,20.483-7.375s6.28-2.043,6.422-2.464c1.831-5.492,11.399-32.665,11.399-32.665
		s9.122,24.251,10.168,23.847c2.349-0.918,6.267-2.413,6.267-2.413s20.028-5.765,31.496-5.765
		C164.208,95.395,152.009,98.962,152.009,98.962z"/>
	<path fill="#FFFFFF" d="M154.689,49.249c5.619-30.506-31.366-28.184-31.366-28.184l-1.527,7.599l-5.665,2.173l-4.352,13.34
		l-3.718,2.339l-6.61,11.353C101.451,57.869,142.935,26.999,154.689,49.249z"/>
	<path fill="#005488" d="M119.751,35.676c-1.094,3.279-1.094,3.279-1.094,3.279s20.214-7.102,31.681-1.094
		C150.338,37.861,145.425,29.667,119.751,35.676z"/>
	<path fill="#A7B1B7" d="M109.919,49.88c0,0,0,0,1.637-3.688c30.319-16.39,39.739-4.917,39.739-4.917
		C134.907,33.081,109.919,49.88,109.919,49.88z"/>
	<path fill="#FFFFFF" d="M212.338,112.971c-21.362-10.323-42.154-8.831-55.72-5.826c-9.586,2.127-15.564,5.004-15.564,5.004
		c-38.101,15.979-56.129,18.848-69.648,14.749c-0.819,0.822-0.819,1.639-2.458,1.639c-3.34-0.635-9.394-4.174-12.967-10.781
		l-11.583,19.141c3.195,6.438,8.951,9.208,14.72,11.308c13.992,5.497,26.902,3.543,39.828,0.111
		c18.865-4.999,37.769-13.143,60.129-5.848c13.936,4.916,35.237,17.614,35.237,27.86c-21.302,11.06-34.411-0.821-36.052-2.459
		c7.375,11.473,24.171,11.059,35.23,4.915l6.073-3.015l-2.792-5.999l1.639-1.639l4.912,4.093l-3.277-9.83
		c0-0.817,9.016,8.196,9.016,8.196c2.46,0-8.197-14.75-8.197-14.75s-4.093,2.456-5.735,3.276
		c-4.915-9.012-20.076-16.796-22.94-18.025c-5.736-2.46-24.99-8.197-43.427-5.737c11.881-4.506,22.124-5.736,31.954-4.914
		c24.582,1.638,37.695,19.664,37.695,19.664l4.093-3.277c0,0,17.208,18.025,19.666,29.498c0-8.196,0-16.387,0-24.583
		c0.819-0.817,0.819-0.817,1.639-1.638c1.64,0.821,3.279,4.098,3.279,4.098l0.821-10.655c6.553,6.558,10.649,15.569,12.29,24.583
		C241.018,142.469,228.728,123.622,212.338,112.971z"/>
	<path fill="#005488" d="M193.491,107.647c0,0,21.779,14.186,22.359,18.358l-3.996,4.773l-1.343,6.447l-3.971-4.657
		c0,0-1.321,0.208-1.987,1.092c-4.917-6.558-13.114-10.651-20.482-14.75c-17.208-5.735-36.054-5.735-53.258,0
		c-18.028,8.192-36.055,16.388-55.721,16.388c-24.186-2.096-24.766-19.038-24.908-28.992l2.787-15.869
		c0,0-21.307,40.968,9.833,48.138c22.939,4.099,44.244-5.731,63.91-14.749c10.242-3.894,43.427-15.362,71.285,9.834
		c2.457,0.821,3.277,3.276,5.733,4.914c0.82-0.816,3.276-1.638,3.276-1.638l5.739,6.558c0,0,0.821-6.558,1.641-9.834
		c0.821-0.817,1.636-1.639,1.636-1.639l2.458-4.098c0,0,0-0.821,0-1.638c0-0.818,0-0.818,0-1.639
		C210.427,112.425,193.491,107.647,193.491,107.647z"/>
	<path fill="#A7B1B7" d="M200.324,180.98l-1.64,3.277c-24.038,8.467-34.143-1.092-35.233-2.73
		C180.929,190.265,200.324,180.98,200.324,180.98z"/>
	<path fill="#A7B1B7" d="M218.619,181.251l-0.546,3.006c-35.503,19.664-49.709,3.547-49.709,3.547S186.665,200.099,218.619,181.251z
		"/>
</g>
</svg>
