<?xml version="1.0" encoding="utf-8"?>
<!-- Generator: Adobe Illustrator 12.0.0, SVG Export Plug-In . SVG Version: 6.00 Build 51448)  -->
<!DOCTYPE svg PUBLIC "-//W3C//DTD SVG 1.1//EN" "http://www.w3.org/Graphics/SVG/1.1/DTD/svg11.dtd" [
	<!ENTITY ns_svg "http://www.w3.org/2000/svg">
	<!ENTITY ns_xlink "http://www.w3.org/1999/xlink">
]>
<svg  version="1.1" id="DALLAS_STARS" xmlns="&ns_svg;" xmlns:xlink="&ns_xlink;" width="200.225" height="125.388"
	 viewBox="0 0 200.225 125.388" overflow="visible" enable-background="new 0 0 200.225 125.388" xml:space="preserve">
<g>
	<polygon fill="#D4A129" points="23.06,49.158 53.75,75.889 23.655,125.388 80.876,94.698 116.318,124.992 110.973,78.857 
		167.996,49.357 	"/>
	<polygon fill="#D4A129" points="72.164,45.595 106.146,45.379 100.676,0.45 	"/>
	<path fill="#015837" d="M100.084,56.882h35.242l-33.659,17.819l3.959,29.7l-23.759-19.8c0,0-34.058,17.819-34.058,17.422
		c0.794-0.791,17.03-28.116,17.03-28.116l-19.8-17.422h29.305L95.33,22.823L100.084,56.882z"/>
	<path fill="#D4A129" stroke="#C99F32" stroke-width="0.225" d="M10.55,33.989c-0.583,1.81-0.439,5.247,8.607,5.231
		c4.902-0.01,10.636-0.791,11.871-4.229c0.911-2.534-2.574-3.209-7.528-4.012l-5.025-0.803c-7.57-1.206-14.88-2.369-12.311-9.519
		c1.303-3.622,6.566-10.008,22.655-10.036c15.192-0.031,16.923,6.48,15.561,10.461l-9.945,0.019
		c0.247-1.447,0.653-4.885-8.393-4.869c-3.936,0.01-8.972,0.966-10.031,3.91c-0.911,2.531,2.072,3.072,4.028,3.384l11.384,1.922
		c6.376,1.075,11.939,2.872,9.841,8.712C37.751,43.933,22.25,44.82,17.9,44.83C-0.192,44.861-0.84,38.033,0.606,34.007L10.55,33.989
		z"/>
	<path fill="#D4A129" stroke="#C99F32" stroke-width="0.225" d="M124.59,26.198l3.236-9.065l13.374-0.022
		c6.293-0.013,6.565,2.628,5.923,4.422c-1.197,3.353-4.367,4.631-9.945,4.641L124.59,26.198z M107.306,45.189l10.511-0.019
		l4.734-13.262l11.086-0.022c7.938-0.013,7.727,1.778,6.073,6.403c-1.245,3.494-1.44,5.238-1.298,6.844l11.872-0.021l0.32-0.897
		c-2.086-0.563-1.648-1.791,0.121-6.747c2.258-6.325,0.34-7.356-3.439-8.578c5.481-1.141,9.486-4.353,10.818-8.084
		c1.044-2.925,0.917-9.578-12.742-9.55l-25.959,0.05L107.306,45.189z"/>
	<path fill="#D4A129" stroke="#C99F32" stroke-width="0.225" d="M165.906,34.623c-0.583,1.81-0.436,5.247,8.609,5.228
		c4.901-0.009,10.634-0.787,11.87-4.228c0.913-2.534-2.572-3.206-7.528-4.009l-5.021-0.806c-7.574-1.207-14.884-2.369-12.314-9.519
		c1.303-3.619,6.565-10.003,22.654-10.035c15.192-0.028,16.923,6.481,15.561,10.462l-9.944,0.019
		c0.244-1.447,0.651-4.884-8.392-4.869c-3.938,0.009-8.975,0.965-10.033,3.906c-0.911,2.534,2.072,3.075,4.026,3.387l11.386,1.922
		c6.376,1.075,11.942,2.872,9.84,8.709c-3.513,9.775-19.016,10.663-23.364,10.668c-18.092,0.035-18.741-6.793-17.294-10.818
		L165.906,34.623z"/>
	<polygon fill="#D4A129" stroke="#C99F32" stroke-width="0.225" points="88.607,10.622 48.281,10.693 46.214,16.442 46.4,16.442 
		45.819,18.058 60.625,18.029 51.009,45.089 61.367,45.07 70.981,18.014 86.145,17.986 88.211,12.239 88.025,12.239 	"/>
	<path fill="#015837" stroke="#007A41" stroke-width="0.45" d="M19.947,1.859h3.006c1.337,0,3.414,0.181,3.006,2.418
		c-0.225,1.244-1.319,2.541-3.866,2.541h-3.048L19.947,1.859z M15.738,8.125h6.494c4.948,0,6.648-2.341,6.943-3.966
		c0.261-1.434-0.389-3.606-5.44-3.606h-6.619L15.738,8.125z"/>
	<path fill="#015837" stroke="#007A41" stroke-width="0.45" d="M54.558,2.262h0.041l1.314,2.994H52.09L54.558,2.262z M51.017,6.565
		h5.534l0.675,1.56h3.403l-3.904-7.572h-3.611l-6.723,7.572h3.297L51.017,6.565z"/>
	<path fill="#015837" stroke="#007A41" stroke-width="0.45" d="M82.762,6.756h7.453l-0.249,1.369H79.379l1.378-7.572h3.133
		L82.762,6.756z"/>
	<path fill="#015837" stroke="#007A41" stroke-width="0.45" d="M112.626,6.628h7.453L119.828,8h-10.586l1.38-7.575h3.133
		L112.626,6.628z"/>
	<path fill="#015837" stroke="#007A41" stroke-width="0.45" d="M145.743,2.134h0.042l1.314,2.997h-3.82L145.743,2.134z
		 M142.204,6.438h5.533L148.415,8h3.403l-3.906-7.575h-3.613L137.579,8h3.298L142.204,6.438z"/>
	<path fill="#015837" stroke="#007A41" stroke-width="0.45" d="M173.226,5.666c-0.055,0.422,0.217,1.225,2.953,1.225
		c1.481,0,3.162-0.178,3.311-0.981c0.106-0.59-0.992-0.75-2.543-0.938l-1.575-0.19c-2.369-0.285-4.658-0.56-4.354-2.225
		c0.155-0.844,1.32-2.331,6.188-2.331c4.592,0,5.548,1.519,5.4,2.447h-3.006c-0.022-0.337-0.128-1.138-2.862-1.138
		c-1.19,0-2.65,0.219-2.773,0.903c-0.109,0.59,0.828,0.719,1.442,0.793l3.572,0.453c2,0.253,3.803,0.675,3.556,2.038
		C182.115,8,177.485,8.2,176.168,8.2c-5.469,0-6.119-1.594-5.948-2.534H173.226z"/>
</g>
</svg>
