<svg width="512" height="512" viewBox="0 0 512 512" xmlns="http://www.w3.org/2000/svg" xmlns:sketch="http://www.bohemiancoding.com/sketch/ns"><title>edmonton-oilers</title><desc>Created with Sketch.</desc><g sketch:type="MSLayerGroup" fill="none"><path d="M256.47 75.321c-99.887 0-181.144 81.262-181.144 181.144 0 99.891 81.257 181.149 181.144 181.149 99.882 0 181.144-81.257 181.144-181.149 0-99.882-81.262-181.144-181.144-181.144zm29.212 71.762c0 13.987-11.553 27.598-29.212 27.598-17.663 0-29.212-13.612-29.212-27.598 0-20.466 17.75-31.397 29.212-59.966 11.462 28.569 29.212 39.501 29.212 59.966zm-29.212 282.154c-95.415 0-172.762-77.347-172.762-172.772 0-92.021 71.96-167.244 162.681-172.459l-20.016 31.579c-8.543 13.49-9.99 24.75-9.99 30.927 0 23.769 21.073 39.445 40.087 39.445 19.02 0 40.088-15.676 40.088-39.445 0-6.176-1.447-17.436-9.99-30.927l-20.011-31.579c90.721 5.215 162.681 80.438 162.681 172.459 0 95.426-77.352 172.772-172.768 172.772z" fill="#fff" sketch:type="MSShapeGroup"/><path d="M296.907 104.7c6.636 9.237 15.246 22.555 15.246 41.2 0 29.015-24.533 56.118-55.682 56.118s-55.682-27.103-55.682-56.118c0-18.645 8.614-31.964 15.251-41.2-67.134 17.836-116.605 79.027-116.605 151.766 0 86.73 70.311 157.041 157.036 157.041 86.73 0 157.036-70.311 157.036-157.041 0-72.739-49.47-133.93-116.599-151.766zm-139.949 257.57c-17.355-19.97-28.473-43.982-30.613-73.943v-58.489c0-8.503 3.288-19.773 15.539-19.773h11.862c5.928 0 15.62 1.78 15.62 14.825v130.465c0 10.678-6.702 13.486-12.408 6.915zm30.8 27.456c-9.575-5.473-18.078-12.307-25.646-20.567 0 0 2.833 1.001 6.009-.87 3.369-1.988 4.532-6.611 4.532-9.181v-59.627c3.268 0 5.802-3.627 5.802-6.809v-52.167c0-4.781-2.833-6.915-5.731-6.915v-23.324h24.508v23.324c-2.711 0-5.736 2.772-5.736 6.915v52.05c0 3.713 2.15 6.925 4.75 6.925v83.741c0 5.54-4.34 8.873-8.488 6.506zm41.873 15.939c-13.652-2.135-24.589-6.717-36.253-12.975 0 0 5.832-1.062 5.832-7.091v-86.119c3.293 0 6.718-3.126 6.718-6.925v-52.05c0-4.573-2.828-6.914-5.534-6.914v-23.324h26.491v23.324c-2.863 0-7.709 2.342-7.709 6.914 0 2.175-.035 49.354 0 51.332.076 4.623.233 7.704 5.104 7.704 4.745 0 5.372-2.2 5.372-7.309v-16.935h11.265v120.773c0 6.53-4.957 10.581-11.285 9.595zm45.302 1.189c-6.657 1.083-12.418 1.345-18.797 1.345-5.584 0-13.638-.329-19.009-.966 0 0 6.707-1.619 6.707-10.618v-97.134c2.817 0 4.345-2.96 4.345-6.925 0 0 .142-48.494 0-52.05 0-4.113-2.747-6.915-9.484-6.915v-23.172h48.823v37.948h-12.408v-7.659c0-3.359-.587-7.314-4.937-7.314-5.342 0-6.182 3.506-6.182 8.053 0 .673 0 5.954-.005 11.912h12.312v17.001h-12.317c0 8.887 0 20.405.01 21.215.081 4.972.228 8.255 5.114 8.255 4.74 0 5.361-2.307 5.367-8.255.005-7.512 0-16.131 0-16.131h12.848v118.011c0 7.313-5.397 12.26-12.388 13.398zm68.181-43.79c-.197 9.884-.905 12.747-3.085 14.725-6.51 5.918-11.26 8.964-19.52 13.728.42-.339 1.614-2.16 1.451-11.655v-104.965c0-4.537-1.912-7.699-5.306-7.699-4.148 0-5.266 3.555-5.266 6.914v18.443c0 4.148 4.011 7.087 7.305 7.087l.005 82.587c0 6.136-1.604 11.502-5.751 13.278-7.826 3.359-18.539 7.309-27.007 9.277 0 0 4.588-2.979 4.492-16.025-.02-2.767 0-86.118 0-89.279 3.131 0 6.323-2.959 6.323-6.925v-51.848c0-4.087-3.525-7.117-5.731-7.117v-23.324h34.791c7.112.784 12.155 3.349 12.155 13.637v21.746c0 2.57.794 9.287-2.57 12.054-3.359 2.772-2.767 2.57-2.767 2.57s4.942 2.372 4.942 8.108v24.113c0 3.859 2.211 6.986 5.539 6.986v63.584zm17.39-123.742v12.059c0 1.978 1.229 3.182 2.97 4.542 2.762 2.18 16.996 13.642 16.996 13.642 1.578 1.781 5.139 3.561 5.139 10.279 0 5.539.89 23.481-6.92 42.106-7.708 18.387-16.601 32.803-32.611 50.598v-96.457h13.045v18.575c.197 6.925 11.062 6.13 11.062.997v-13.045c0-2.18 0-2.772-1.178-3.763-1.193-.986-18.387-14.816-19.768-15.807-1.386-.986-2.18-2.569-2.18-6.525v-36.37c.202-4.745 2.676-9.884 10.183-9.884h18.382c7.122.784 10.977 3.156 10.977 12.054v26.491h-15.225v-9.297c-.002-7.704-10.872-7.912-10.872-.193z" fill="#fff" sketch:type="MSShapeGroup"/><path d="M141.297 239.783v53.896c0 8.716 12.251 8.316 12.251-.395v-53.896c-.542-8.306-12.251-7.911-12.251.394z" fill="#fff" sketch:type="MSShapeGroup"/><path d="M312.082 239.358v9.773c0 6.96 9.798 6.641 9.798-.319 0-6.328.269-5.66 0-9.763-.476-7.279-9.798-6.966-9.798.308z" fill="#fff" sketch:type="MSShapeGroup"/><path d="M256.47 87.117c-11.462 28.569-29.212 39.501-29.212 59.966 0 13.987 11.548 27.598 29.212 27.598 17.659 0 29.212-13.612 29.212-27.598 0-20.466-17.75-31.397-29.212-59.966z" fill="#E56B1F" sketch:type="MSShapeGroup"/><path d="M256.47 70c-102.816 0-186.47 83.645-186.47 186.465 0 102.821 83.655 186.475 186.47 186.475 102.821 0 186.47-83.655 186.47-186.475 0-102.821-83.649-186.465-186.47-186.465zm0 367.615c-99.887 0-181.144-81.257-181.144-181.149 0-99.882 81.257-181.144 181.144-181.144 99.882 0 181.144 81.262 181.144 181.144 0 99.892-81.262 181.149-181.144 181.149z" fill="#fff" sketch:type="MSShapeGroup"/><path d="M266.557 84.006l20.011 31.579c8.544 13.49 9.99 24.75 9.99 30.927 0 23.769-21.068 39.445-40.088 39.445-19.014 0-40.087-15.676-40.087-39.445 0-6.176 1.447-17.436 9.99-30.927l20.016-31.579c-90.721 5.215-162.681 80.438-162.681 172.459 0 95.426 77.347 172.772 172.762 172.772s172.767-77.347 172.767-172.772c0-92.021-71.959-167.244-162.681-172.459zm-10.086 329.5c-86.725 0-157.036-70.311-157.036-157.041 0-72.739 49.47-133.93 116.605-151.766-6.636 9.237-15.251 22.555-15.251 41.2 0 29.015 24.533 56.118 55.682 56.118s55.682-27.103 55.682-56.118c0-18.645-8.609-31.964-15.246-41.2 67.129 17.836 116.6 79.027 116.6 151.766 0 86.73-70.307 157.041-157.037 157.041z" fill="#003876" sketch:type="MSShapeGroup"/><path d="M196.246 383.222v-83.741c-2.6 0-4.75-3.212-4.75-6.925v-52.05c0-4.142 3.025-6.914 5.736-6.914v-23.324h-24.508v23.324c2.898 0 5.731 2.135 5.731 6.914v52.167c0 3.182-2.534 6.809-5.802 6.809v59.628c0 2.569-1.163 7.193-4.532 9.181-3.177 1.872-6.009.87-6.009.87 7.567 8.26 16.071 15.094 25.646 20.567 4.148 2.367 8.488-.967 8.488-6.506z" fill="#003876" sketch:type="MSShapeGroup"/><path d="M240.916 396.07v-120.773h-11.265v16.935c0 5.109-.627 7.309-5.372 7.309-4.871 0-5.028-3.08-5.104-7.704-.035-1.978 0-49.157 0-51.332 0-4.573 4.846-6.915 7.709-6.915v-23.324h-26.49v23.324c2.706 0 5.534 2.342 5.534 6.915v52.05c0 3.799-3.425 6.925-6.717 6.925v86.118c0 6.029-5.832 7.091-5.832 7.091 11.665 6.257 22.6 10.84 36.253 12.974 6.328.987 11.285-3.065 11.285-9.595z" fill="#003876" sketch:type="MSShapeGroup"/><path d="M287.321 275.444h-12.848s.005 8.62 0 16.131c-.005 5.949-.628 8.255-5.367 8.255-4.886 0-5.033-3.283-5.114-8.255-.01-.809-.01-12.327-.01-21.215h12.317v-17.001h-12.312c.005-5.959.005-11.24.005-11.912 0-4.548.839-8.053 6.182-8.053 4.35 0 4.937 3.956 4.937 7.314v7.658h12.408v-37.948h-48.823v23.172c6.737 0 9.484 2.802 9.484 6.915.142 3.556 0 52.05 0 52.05 0 3.966-1.527 6.925-4.345 6.925v97.135c0 8.999-6.707 10.618-6.707 10.618 5.372.637 13.425.966 19.009.966 6.379 0 12.14-.263 18.797-1.345 6.991-1.138 12.388-6.085 12.388-13.399v-118.01z" fill="#003876" sketch:type="MSShapeGroup"/><path d="M386.601 248.812v-26.491c0-8.898-3.854-11.27-10.977-12.054h-18.381c-7.507 0-9.98 5.139-10.183 9.884v36.37c0 3.956.794 5.539 2.18 6.525 1.381.991 18.575 14.821 19.768 15.807 1.178.991 1.178 1.583 1.178 3.763v13.045c0 5.134-10.865 5.928-11.063-.997v-18.574h-13.045v96.457c16.01-17.795 24.902-32.211 32.611-50.598 7.81-18.624 6.92-36.567 6.92-42.106 0-6.718-3.561-8.498-5.139-10.279 0 0-14.234-11.462-16.996-13.642-1.741-1.361-2.97-2.565-2.97-4.542v-12.059c0-7.719 10.87-7.512 10.87.192v9.297h15.226z" fill="#003876" sketch:type="MSShapeGroup"/><path d="M169.366 355.356v-130.465c0-13.045-9.692-14.825-15.62-14.825h-11.862c-12.251 0-15.539 11.27-15.539 19.773v58.489c2.14 29.96 13.258 53.972 30.613 73.943 5.706 6.57 12.408 3.763 12.408-6.915zm-15.817-62.071c0 8.711-12.251 9.11-12.251.395v-53.897c0-8.306 11.71-8.7 12.251-.394v53.896z" fill="#003876" sketch:type="MSShapeGroup"/><path d="M337.576 292.496v-24.113c0-5.736-4.942-8.108-4.942-8.108s-.592.202 2.767-2.57c3.364-2.767 2.57-9.484 2.57-12.054v-21.746c0-10.288-5.044-12.853-12.155-13.637h-34.791v23.324c2.206 0 5.731 3.03 5.731 7.117v51.848c0 3.966-3.192 6.925-6.323 6.925 0 3.161-.02 86.513 0 89.279.096 13.045-4.492 16.025-4.492 16.025 8.468-1.968 19.181-5.918 27.007-9.277 4.148-1.775 5.751-7.142 5.751-13.277l-.005-82.588c-3.293 0-7.305-2.938-7.305-7.087v-18.443c0-3.359 1.118-6.914 5.266-6.914 3.394 0 5.306 3.161 5.306 7.699v104.965c.162 9.494-1.032 11.315-1.451 11.655 8.26-4.765 13.01-7.81 19.52-13.728 2.18-1.977 2.888-4.841 3.085-14.725v-63.583c-3.328 0-5.539-3.126-5.539-6.986zm-15.696-43.684c0 6.96-9.798 7.279-9.798.319v-9.773c0-7.274 9.323-7.587 9.798-.309.269 4.103 0 3.435 0 9.763z" fill="#003876" sketch:type="MSShapeGroup"/></g></svg>