<?xml version="1.0" encoding="UTF-8" standalone="no"?>
<svg width="512px" height="512px" viewBox="0 0 512 512" version="1.1" xmlns="http://www.w3.org/2000/svg" xmlns:xlink="http://www.w3.org/1999/xlink" xmlns:sketch="http://www.bohemiancoding.com/sketch/ns">
    <!-- Generator: Sketch 3.2.2 (9983) - http://www.bohemiancoding.com/sketch -->
    <title>florida-panthers</title>
    <desc>Created with Sketch.</desc>
    <defs>
        <path id="path-1" d="M0,348.657023 L367.801786,348.657023 L367.801786,0 L0,0 L0,348.657023 L0,348.657023 Z"></path>
    </defs>
    <g id="NHL" stroke="none" stroke-width="1" fill="none" fill-rule="evenodd" sketch:type="MSPage">
        <g id="florida-panthers" sketch:type="MSArtboardGroup">
            <g sketch:type="MSLayerGroup" transform="translate(72.000000, 79.000000)" id="g2412">
                <g transform="translate(184.674104, 176.806501) scale(1, -1) translate(-184.674104, -176.806501) translate(0.259547, 1.087474)">
                    <g id="g2414" transform="translate(0.966227, 1.348524)">
                        <g id="g2416-Clipped">
                            <mask id="mask-2" sketch:name="path2420" fill="white">
                                <use xlink:href="#path-1"></use>
                            </mask>
                            <g id="path2420"></g>
                            <g id="g2416" mask="url(#mask-2)">
                                <g transform="translate(0.201204, 0.402606)">
                                    <g id="g2422" transform="translate(0.050301, 0.100652)">
                                        <path d="M92.1516509,329.331922 L118.928546,328.359024 C118.928546,328.359024 134.303989,330.992673 138.193875,331.193976 C144.867224,334.666455 158.750333,340.252617 171.040506,341.242425 L177.713855,347.549856 L184.102097,341.284296 C187.33827,341.309459 206.6873,337.132419 216.915328,331.042999 C220.494957,330.992673 236.214057,328.476384 236.214057,328.476384 L263.024554,329.231271 C261.582521,324.534265 251.656501,302.256651 245.519764,291.88954 L248.085121,289.775857 C247.766614,286.487973 244.463441,268.286748 248.973841,263.841371 L240.816609,265.393015 C242.501898,258.573872 244.077933,256.997064 245.704269,254.598135 L241.831082,249.951455 C246.777292,247.5022 251.656501,242.469621 252.813426,235.725966 C259.302472,237.23574 264.466586,233.813587 268.25587,228.126773 C268.25587,228.126773 272.405712,241.513432 273.135079,242.72125 C273.864445,243.929069 289.432641,245.791123 291.394385,245.036236 C292.884908,244.462724 306.082513,234.445276 306.082513,232.505116 C306.082513,232.037087 305.726784,231.277369 305.453548,230.504566 C305.013514,229.260915 304.573278,228.000959 304.573278,228.000959 C306.384119,228.076448 315.589224,227.824819 317.601268,226.818303 C318.60548,226.31585 328.91902,215.120578 328.91902,213.381319 C328.91902,212.80217 326.48344,207.783884 326.403964,207.64418 C326.403964,207.64418 336.162381,205.832452 338.476233,204.222026 C340.790084,202.611601 345.468088,191.086997 345.468088,189.275269 C345.468088,188.04732 341.896709,183.487804 341.863108,182.716209 C343.070335,182.615558 350.070641,180.241791 351.252717,179.059135 C351.719109,178.592514 353.632363,171.602867 354.304386,168.222384 C354.459917,167.439717 354.471989,166.848087 354.471989,166.578341 C354.471989,165.917865 340.753264,142.284475 340.488278,142.019359 C339.113045,140.643452 333.752354,139.703769 331.199271,139.97271 C331.199271,139.97271 326.135759,131.383709 309.754294,128.230095 C314.097091,132.222539 320.518733,142.975549 319.764216,143.730436 C319.764216,143.730436 309.12553,144.535648 301.857018,144.485322 C301.857018,144.485322 296.089089,143.025875 291.964397,143.025875 C287.839706,143.025875 283.245604,143.831087 278.282694,145.843917 C278.180482,145.843917 276.672857,145.57558 275.163823,145.441311 C268.607978,139.805025 264.617892,137.547209 261.716725,136.181568 C258.387796,134.614222 250.493136,132.279911 244.547343,130.209508 C235.927341,127.208079 231.610297,125.07346 230.970266,124.694608 L230.932439,126.317715 L224.996907,126.217063 C217.790367,116.93719 217.706464,116.992549 212.874338,109.458578 C212.29849,108.560564 211.618218,107.828827 211.214401,107.093266 C211.055851,106.490162 211.396491,101.987816 211.080398,96.0886275 C210.576381,86.6877712 209.446014,81.0569201 205.178266,74.0795522 C204.81811,73.4905393 204.587128,71.9896231 203.937438,69.9192204 C203.30465,67.902767 202.266033,65.3429963 200.986573,62.8065769 C199.267684,59.3993201 197.113588,56.1174752 195.319247,53.3453297 C193.45891,50.4713249 191.98388,48.1589559 191.697566,47.6081905 C190.725145,43.0452524 190.389737,37.5430339 190.389737,37.5430339 C190.389737,37.5430339 197.381593,29.6922118 204.624954,29.6922118 C209.570761,29.6922118 220.721312,32.3594783 220.721312,48.0107968 C220.721312,52.2278961 219.849896,59.7590488 218.34046,64.0480133 C217.825779,65.5106819 217.089169,66.6901169 216.345115,67.9398067 L217.753546,68.0404583 L215.439695,74.8847648 L216.722373,74.6582987 L216.646922,79.6153883 L218.533214,78.9863161 L218.658966,84.3460119 L220.168,83.7421025 L221.174022,88.5733777 L223.186067,85.5538307 L224.795703,87.6675136 L226.405339,83.5407994 L227.612566,84.5473151 L228.744341,80.3451122 L229.976718,81.0496732 L231.133644,76.6964929 L232.340871,77.5017055 L233.112088,71.1940732 L234.252313,72.1671725 L233.481097,64.2154975 L234.55412,65.0209113 C234.55412,58.2772564 234.036421,48.4140069 232.609076,43.9177002 C230.757794,38.0859485 228.04254,32.7961048 224.192089,28.9876509 C217.344296,22.2142031 208.79371,19.9960439 204.85976,19.9960439 C195.909782,19.9960439 189.836425,25.716475 189.836425,25.716475 C189.283113,24.4080046 188.478295,9.66255029 188.478295,7.24691272 C188.478295,4.27608111 185.627428,3.4843559 184.856614,3.12019853 L184.353603,1.00651566 C184.353603,1.00651566 183.448183,1.71107661 183.448183,2.81824384 C183.246978,3.06987275 181.939149,3.12019853 181.939149,3.12019853 C181.265517,2.4943471 180.433134,1.97941369 179.357092,1.97941369 C179.021684,1.47615586 178.82048,0.100651566 178.82048,0.100651566 C178.82048,0.100651566 177.864758,0.780049633 178.015662,2.26466022 C177.537801,2.21433444 176.330574,2.23949733 175.70181,3.29633877 C175.316101,2.33169417 174.318529,2.59177781 173.664615,2.59177781 C173.387959,1.78656529 173.136453,0.327117588 173.136453,0.327117588 C173.136453,0.327117588 172.189183,0.863791735 172.214333,3.15361485 C171.677721,3.38853561 170.31959,4.3783431 169.88358,5.35124113 C169.637709,5.89999347 169.062063,5.83497256 168.50875,5.28420719 C168.334105,5.11048259 167.687232,5.13866503 167.687232,3.45577085 C166.815212,4.27749023 166.647609,5.8377908 166.798512,7.12109826 C166.798512,7.12109826 165.36493,8.58054596 165.36493,10.7445546 C165.36493,12.9085633 166.144598,15.2654203 166.547007,16.7415762 C166.647609,17.3623951 164.635564,15.5003411 164.635564,15.5003411 C164.635564,15.5003411 164.484661,19.0986346 168.559051,21.0359759 C169.464471,23.854421 171.308913,26.8069341 173.019151,29.0546848 C173.387959,33.181399 174.997595,40.4283117 175.668209,43.3135895 C171.845324,49.6210205 167.519428,61.7330273 167.016417,65.5577868 C166.513405,69.3825463 166.278801,64.4506196 163.327735,62.8736108 C164.88707,60.8438714 166.748211,54.083307 166.748211,51.9362078 C166.983017,51.5001852 169.699076,48.6149075 169.095664,45.3938561 C169.095664,45.3938561 168.05604,47.2053829 167.519428,47.2053829 C166.983017,47.2053829 168.827257,40.6294136 168.559051,38.7506514 C168.290846,36.8718893 166.345802,36.7042038 165.943393,36.0332605 C165.540984,35.3623171 165.406781,33.818926 165.406781,33.818926 C165.406781,33.818926 164.736166,34.3894191 164.635564,35.5636203 C164.602365,35.9505249 163.970583,36.0630533 163.663143,35.9660252 C163.150474,35.8039762 163.185282,35.338966 162.589918,35.0601611 C161.994755,34.7813563 160.913281,34.7245888 160.913281,34.7245888 C160.443871,34.3892178 160.041462,32.5774896 160.041462,32.5774896 C158.431826,34.0200279 160.074862,34.9595096 158.062817,34.9595096 C157.291601,34.9595096 156.904081,34.0796136 156.587385,33.9529939 C156.251977,33.8187247 155.078351,33.59246 154.625641,33.818926 C153.946576,32.5607815 153.996877,31.8310576 153.996877,31.8310576 C153.041156,32.6865959 153.116608,34.1460436 153.116608,34.1460436 C153.116608,34.1460436 152.445993,34.1291341 151.88423,34.5738128 C151.322467,35.0184914 150.97881,35.68098 150.97881,35.68098 C150.97881,35.68098 150.475799,35.3411803 150.060915,35.3035366 C149.64583,35.2656916 149.109218,35.3957334 149.109218,35.3957334 C149.008616,34.6408467 148.572807,33.7015663 148.572807,33.7015663 C147.801389,34.4898694 147.83499,35.6642718 147.83499,35.6642718 C147.83499,35.6642718 145.445687,36.7629843 145.445687,42.5001236 C145.445687,44.8654353 146.963171,45.9977655 147.767989,47.8765276 C148.166374,48.8069506 148.646649,51.1873602 149.377625,54.3518454 C150.906376,60.9721015 150.94038,61.9270835 150.584852,62.6386901 C150.584852,62.6386901 147.821509,64.0379482 145.286333,68.342413 C140.722211,76.0923822 139.116196,89.5521135 139.116196,97.598401 C139.116196,101.624464 139.585607,101.154622 139.585607,102.765047 C137.036949,111.219779 125.635496,123.700573 123.355045,127.592567 C122.550227,127.726635 119.867568,128.129242 119.867568,128.129242 L119.901169,125.54612 C102.777662,133.201275 93.3427814,135.191559 89.9887027,136.684826 C85.7722617,138.562179 82.6879982,141.156976 80.2972866,144.367761 C79.4254676,144.267311 76.4074005,144.636098 75.6025826,145.038705 C65.8441654,142.421965 58.9026109,142.925223 52.3507895,144.485322 L34.8250746,143.562549 C35.361687,141.348416 43.1247594,129.387588 44.8685986,128.314038 C33.9532556,130.494755 27.8668202,134.671795 23.6918273,140.073362 C23.2928388,139.98358 15.5343941,140.71109 14.7046269,141.817855 C13.7048418,143.151689 0.0839022673,166.157215 0.0839022673,166.376837 C0.0839022673,168.80113 3.01806717,178.002294 3.59653004,179.084298 C3.95286317,179.751014 8.46869647,181.736064 12.9273877,182.883895 C12.9273877,182.883895 9.33930825,187.849238 9.33930825,189.459663 C9.33930825,191.744856 15.3160873,203.365884 15.8700032,203.920072 C17.4126379,205.463463 28.2692291,207.719668 28.2692291,207.719668 C28.2692291,207.719668 25.8380754,211.804512 25.8380754,213.280667 C25.8380754,215.106487 35.1017308,225.695837 37.3737318,226.935663 C38.8491642,227.740875 50.3135941,228.051285 50.3135941,228.051285 C49.9932766,228.474826 48.5202586,232.014339 48.6411825,232.538533 C49.1832274,234.888143 62.0512598,244.694222 63.6645173,245.052944 C65.8701208,245.54352 79.9578547,244.129768 81.3705113,243.140565 C82.1874015,242.568461 87.7084524,223.782048 88.0772602,222.741915 C93.2309117,227.897892 98.0368818,230.022445 102.89939,230.123096 C101.482509,234.845265 101.960369,244.029721 113.579928,249.867511 L109.404935,254.447158 C109.404935,254.447158 112.423002,257.038936 114.233842,265.283909 L106.085061,263.556124 C109.20373,267.565479 108.621042,270.561876 108.600117,274.124539 C108.570339,279.189728 107.829705,284.19191 107.258687,289.775857 L109.773743,291.956574 C101.08855,308.094442 92.1516509,329.331922 92.1516509,329.331922" id="path2424" fill="#002F5D" sketch:type="MSShapeGroup"></path>
                                    </g>
                                    <g id="g2426" transform="translate(149.394325, 236.027921)">
                                        <path d="M14.2855179,19.1237975 L2.43115371,30.6987275 L1.20722687,29.5663974 L6.26248937,24.2067015 C3.21927165,21.3884577 0.0503011195,18.1676076 0.0503011195,12.7827488 C0.0503011195,9.28571083 1.13479326,3.33418376 6.99185561,1.00651566 C8.59465048,0.369592549 10.6557891,0.150977348 13.0279899,0.150977348 C20.849814,0.150977348 26.0056788,3.17052431 26.4583888,3.62345636 L26.50869,5.43518454 C26.50869,5.43518454 18.6784153,12.0445702 14.2855179,19.1237975" id="path2428" fill="#FFFFFF" sketch:type="MSShapeGroup"></path>
                                    </g>
                                    <g id="g2430" transform="translate(179.273190, 236.128573)">
                                        <path d="M20.3216523,23.9550726 L25.6032698,29.6418861 L24.3457418,30.8329967 L14.1849157,19.224449 C12.0052676,14.8293978 0.100602239,5.43518454 0.100602239,5.43518454 L0.125752799,3.59829347 C0.125752799,3.59829347 5.13071419,0.100651566 13.4807,0.100651566 C15.5861037,0.100651566 17.4538848,0.165471174 19.0810255,0.670943336 C23.9071161,2.17085297 26.5589911,6.6093857 26.5589911,12.7827488 C26.5589911,19.224449 22.1324926,22.6802199 20.3216523,23.9550726" id="path2432" fill="#FFFFFF" sketch:type="MSShapeGroup"></path>
                                    </g>
                                    <g id="g2434" transform="translate(128.921769, 203.794257)">
                                        <path d="M100.602239,67.2352458 L98.3638391,66.1657222 L102.563983,79.0366418 L95.5218259,87.8436538 L99.6968188,90.1838027 L106.889879,80.2444606 C106.889879,80.2444606 100.803443,68.2669243 100.602239,67.2352458 L100.602239,67.2352458 Z M65.6093598,94.4363314 L60.3110422,88.9004953 L58.7014064,90.812875 L64.7375407,100.676728 L61.2164624,113.912409 L62.8763993,116.428698 L73.5066355,101.565884 L78.788253,97.1539236 L65.6093598,94.4363314 L65.6093598,94.4363314 Z M116.547895,85.2770389 L109.438536,90.6451895 L111.953592,94.8725553 L104.877834,94.0673427 L111.081572,101.012301 L103.134196,97.489496 C103.134196,97.489496 87.1048389,122.518118 85.0927942,126.275844 C75.1217038,132.066932 54.631241,135.504384 54.0401023,135.535788 L48.7417848,140.568366 L45.2710075,137.263573 L48.0878702,137.867482 L52.614971,133.338161 C52.614971,133.338161 64.9387452,130.872198 67.722208,128.422943 C67.2839846,128.464814 66.195066,128.449515 64.7626913,128.532049 C61.5909039,128.714631 56.9316118,129.026852 55.3145314,129.026852 C52.9670788,129.026852 49.085442,128.724898 48.8172364,127.651348 C48.5490309,126.577798 48.9429892,126.007305 48.9429892,124.866722 C48.9429892,123.725937 48.6747837,123.792971 48.6747837,122.383849 C48.6747837,120.479924 49.7226566,118.944988 50.955034,117.988798 L47.7357624,110.574199 L50.8880329,106.413868 L50.083215,82.9956705 L52.5646698,80.3787298 L48.6075814,73.8697944 L44.8518986,80.3787298 L47.2663523,82.9284353 L45.5895142,105.340318 L40.6936056,109.500449 L44.9859008,116.479024 L40.9618112,123.792971 L34.5904702,116.210687 L36.3341082,113.79505 L32.7796299,100.643111 L38.8576148,90.7877121 L37.2228284,88.8250066 L32.1760165,94.5369829 L5.21461645,96.4829803 L4.40979854,99.5695612 L10.1775261,104.132499 L8.16548132,106.615171 L0.0839022673,100.945066 L1.65993694,94.4363314 L34.5232679,87.155801 L36.7198172,80.7980442 L41.3475202,80.1438091 L35.0598803,75.6144886 L44.1810829,69.3740915 L43.5774694,68.568879 L36.7365172,71.1858197 L34.2214612,68.5018451 L42.1356381,62.4961675 L41.2972191,61.7245726 L35.6634937,64.3415133 L29.9291661,59.3759689 L33.0478355,57.4972068 L48.7920859,51.659416 L64.5363363,57.3965553 L68.9125337,60.8187085 L64.3854329,65.0209113 L56.1360493,61.7245726 L55.3815325,62.4794593 L64.7878419,69.3237658 L62.4739904,71.7394033 L53.7718967,68.568879 L53.3694877,69.3740915 L62.4236893,75.7151402 L56.1360493,80.2444606 L60.7134512,80.84837 L62.7757971,87.1390929 L92.4534576,93.6814446 L92.4534576,91.5677618 L85.3609997,88.3469117 L81.202908,79.170911 L65.3747553,74.0040636 L69.8012538,69.2398224 L67.2525967,67.2604087 L74.093549,61.623921 L78.4194452,58.9063287 C78.4194452,58.9063287 85.2603975,52.5988977 85.2603975,45.4860529 C85.2603975,26.4965246 67.8228102,27.8720289 67.8228102,27.8720289 L67.353199,25.1210203 L68.4598236,24.2821902 L78.3858441,27.5030403 L77.9834351,25.2887058 L74.2277524,22.0678557 C73.0205255,19.517949 66.9843912,1.06529617 66.9843912,1.06529617 L67.1183933,0.528420719 L76.3484476,0.114340178 C77.5170432,4.01056228 78.391679,7.63844731 78.8967023,10.1215214 C79.2266776,11.7432195 79.3987074,12.8765561 79.3918665,13.2775519 L113.865034,51.0555066 C112.859012,51.72645 109.505738,59.0405979 108.767921,64.6770856 L115.809877,63.3686152 C114.082939,70.7328877 116.547895,85.2770389 116.547895,85.2770389 L116.547895,85.2770389 Z" id="path2436" fill="#D69C05" sketch:type="MSShapeGroup"></path>
                                    </g>
                                    <g id="g2438" transform="translate(119.314255, 205.060756)">
                                        <path d="M7.2433612,68.2417614 L5.03011195,69.046974 L0.134203387,78.8437934 L10.8650418,90.3851059 L14.4867224,90.3011625 L21.6630825,86.9629526 L25.6871721,77.9043117 L41.716328,72.6704303 L37.1222262,67.9565149 L39.7714855,66.0944609 C37.9934416,64.5953565 35.6892479,62.5030118 33.5508467,60.9109053 C31.7772292,59.5907594 31.130558,59.3727481 30.2939498,58.7972224 C27.4253776,56.8240491 21.8306858,51.4035597 21.8306858,43.850465 C21.8306858,35.1104869 26.4270009,26.5720133 39.0336687,26.5720133 C39.1145529,26.2845524 39.2602249,25.2250941 39.5982485,23.7261909 C40.522783,19.6274579 42.8861308,12.2446656 49.2950971,8.38769756 C43.7283728,8.48834913 38.5684839,23.0659167 38.5684839,23.0659167 L28.6967887,26.2616039 L28.8979931,24.1982468 L32.863331,20.6671886 C35.0765802,15.299038 39.8887877,0.0418710513 39.8887877,0.0418710513 L36.2504072,3.15381615 L30.9854896,19.9960439 C30.9854896,19.9960439 25.4020653,23.2672198 22.5349015,30.6147841 C20.7743623,32.2252091 17.7059941,36.7042038 17.7059941,43.3472071 C17.7059941,48.4947295 19.4532537,53.5661593 22.1324926,57.6397294 C24.622398,61.4254361 28.0344235,63.9473617 30.0800694,66.5810106 L30.0130683,68.6779853 L24.4127429,70.6237814 L19.6174366,83.1045755 L13.6819045,86.8286834 L4.52710075,77.669391 L7.2433612,68.2417614 L7.2433612,68.2417614 Z" id="path2440" fill="#D69C05" sketch:type="MSShapeGroup"></path>
                                    </g>
                                    <g id="g2442" transform="translate(124.570722, 312.539920)">
                                        <path d="M0,1.40912192 L3.79773452,0.0839434057 L11.3429024,12.1621313 L0,1.40912192 L0,1.40912192 Z" id="path2444" fill="#D69C05" sketch:type="MSShapeGroup"></path>
                                    </g>
                                    <g id="g2446" transform="translate(147.658353, 176.674760)">
                                        <path d="M60.1601389,37.2410793 C58.8619676,30.8573544 55.1197655,16.9072487 50.2262714,10.2855835 L47.946021,13.288221 C47.3591076,11.6945041 44.7601493,5.84000514 42.6811035,4.14583798 C42.6811035,4.14583798 41.222371,5.50463412 39.6881869,8.29771506 C39.2606274,6.83826736 36.8210231,3.08899655 35.8401512,1.95666643 L33.0735897,5.95756616 L29.5943618,0.128028791 L26.2660374,6.08338062 C25.6541745,5.42914545 23.277346,1.83085198 23.277346,1.83085198 L19.6494281,7.92651209 C19.6494281,7.92651209 17.0526831,4.27165244 16.5245214,4.07034931 C15.7197034,5.00137629 13.7579598,7.24087363 11.3686566,13.0535015 C9.80932191,11.4179136 8.97935344,10.1849319 8.97935344,10.1849319 C8.19968609,11.2751897 7.35241403,12.6597526 6.61520082,14.2361574 C3.16736089,21.6090859 0.32756089,33.1838146 0.0927552643,35.8844975 L2.15510116,31.9423782 L3.14442358,35.2974975 L6.76610418,28.8557973 L8.18962586,32.2066892 L11.5447105,28.4280282 C11.5447105,28.4280282 11.2932049,26.8930918 11.2932049,25.232341 C11.2932049,24.2868202 11.420165,22.8253594 11.5950116,21.2733123 C12.0469169,17.2597305 13.7615815,12.95285 22.1582467,12.95285 C26.5511441,12.95285 27.2386598,13.6070851 30.0052214,13.6070851 C32.7717829,13.6070851 33.626902,12.95285 37.4497871,12.95285 C41.1843434,12.95285 42.9122874,13.4335618 44.8442528,14.6639266 C48.1546701,16.771973 48.6166356,20.2897452 48.6166356,24.8297347 C48.6166356,27.2032999 48.3818299,27.6479785 48.3818299,27.6479785 C50.0250669,28.9816118 51.0310893,31.5230638 51.0310893,31.5230638 C51.0310893,31.5230638 51.9365095,29.6610098 51.8359072,28.4028653 C52.2888185,28.8054715 55.10548,35.5491264 55.10548,35.5491264 C55.9857496,34.9200541 56.363008,32.8818599 56.363008,32.8818599 C56.9666214,32.9070228 58.7774617,35.0961944 60.1601389,37.2410793" id="path2448" fill="#FFFFFF" sketch:type="MSShapeGroup"></path>
                                    </g>
                                    <g id="g2450" transform="translate(205.865782, 272.296002)">
                                        <path d="M1.20722687,0 L8.81939588,0.519965988 L14.3861202,8.79030383 L11.4350541,12.4137602 L5.83492986,3.48918717 L0.0670010911,1.44273954 L1.20722687,0 L1.20722687,0 Z" id="path2452" fill="#FFFFFF" sketch:type="MSShapeGroup"></path>
                                    </g>
                                    <g id="g2454" transform="translate(210.811992, 300.142968)">
                                        <path d="M0,12.279491 L1.53418414,14.4686625 L15.4591436,4.54602861 L15.0064336,0.637527016 L10.3117295,0.100651566 L11.2171496,3.2208501 L0,12.279491 L0,12.279491 Z" id="path2456" fill="#FFFFFF" sketch:type="MSShapeGroup"></path>
                                    </g>
                                    <g id="g2458" transform="translate(97.986581, 293.650942)">
                                        <path d="M13.6819045,0 L15.2915403,1.30847035 L11.0662463,8.65603464 L16.2975627,7.95147368 L10.6638373,14.2925223 L12.3740754,16.5068567 L24.1445373,11.2729753 L25.251162,13.0343777 C13.6316034,17.7650013 4.67800411,24.7602851 0.117302211,28.6017528 C0.0670010911,27.7965402 11.2674508,3.32150166 13.6819045,0" id="path2460" fill="#FFFFFF" sketch:type="MSShapeGroup"></path>
                                    </g>
                                    <g id="g2462" transform="translate(231.888161, 293.751594)">
                                        <path d="M0,12.8834004 L1.20722687,11.0716722 L13.0615911,16.389497 L14.6712269,14.1751626 L9.0542015,7.85082211 L14.3106685,8.60570885 L10.0602239,1.30847035 L11.8710642,0 C14.6879269,4.73062358 24.2451396,25.5654976 25.2008609,28.4970751 C22.8534082,26.4337181 13.4807,18.4192365 0,12.8834004" id="path2464" fill="#FFFFFF" sketch:type="MSShapeGroup"></path>
                                    </g>
                                    <g id="g2466" transform="translate(160.158764, 217.583522)">
                                        <path d="M0,14.4938254 C0,14.7621625 1.00602239,15.6261556 3.11866941,15.6261556 C6.28763993,15.6261556 6.63974777,14.9383028 6.63974777,14.5189883 C6.63974777,14.0996739 4.87920859,2.44080046 5.78462874,0.125814457 C2.16294814,4.70546069 0,11.7007445 0,14.4938254" id="path2468" fill="#FFFFFF" sketch:type="MSShapeGroup"></path>
                                    </g>
                                    <g id="g2470" transform="translate(188.226789, 217.809988)">
                                        <path d="M1.00602239,0 C4.96311086,3.89179343 6.8075523,12.5814457 6.8075523,14.3261399 C6.8075523,15.1313525 5.60032544,15.5003411 3.89008737,15.5003411 C2.51505597,15.5003411 0.0336011478,14.9634656 0.0336011478,14.3931739 C0.0336011478,13.7892645 1.67683812,7.01199197 1.00602239,0" id="path2472" fill="#FFFFFF" sketch:type="MSShapeGroup"></path>
                                    </g>
                                    <g id="g2474" transform="translate(181.486439, 226.264719)">
                                        <path d="M2.41445373,0 C3.01806717,0 3.7474334,3.74927082 3.7474334,6.54235176 C3.7474334,8.00179946 0.150903358,6.29072285 0.150903358,5.48551032 C0.150903358,4.6802978 1.5593347,2.86856962 2.41445373,0" id="path2476" fill="#FFFFFF" sketch:type="MSShapeGroup"></path>
                                    </g>
                                    <g id="g2478" transform="translate(177.814457, 227.472538)">
                                        <path d="M1.8108403,0 C2.36415261,0 3.20257167,3.6067482 3.20257167,4.61326386 C3.20257167,5.61977951 0.150903358,5.63648767 0.150903358,4.62997201 C0.150903358,3.62345636 1.15692575,0 1.8108403,0" id="path2480" fill="#FFFFFF" sketch:type="MSShapeGroup"></path>
                                    </g>
                                    <g id="g2482" transform="translate(173.740067, 227.447375)">
                                        <path d="M1.8108403,0 C2.26355038,0 3.29472332,3.57313058 3.29472332,4.6802978 C3.29472332,5.78746502 0.176053918,5.5358361 0.176053918,4.60480912 C0.176053918,3.67378214 1.28267855,0 1.8108403,0" id="path2484" fill="#FFFFFF" sketch:type="MSShapeGroup"></path>
                                    </g>
                                    <g id="g2486" transform="translate(169.514773, 226.315045)">
                                        <path d="M1.60963582,0 C2.16294814,0.603909393 3.72228284,4.70546069 3.72228284,5.51067321 C3.72228284,6.54235176 1.9365931,7.04560959 1.15692575,7.04560959 C0.377258396,7.04560959 0.176053918,6.29072285 0.176053918,5.73713924 C0.176053918,5.18355563 1.13177519,0 1.60963582,0" id="path2488" fill="#FFFFFF" sketch:type="MSShapeGroup"></path>
                                    </g>
                                    <g id="g2490" transform="translate(164.384058, 193.653612)">
                                        <path d="M4.42649851,0 C5.03011195,0 5.36551981,0.0670339427 5.36551981,0.603909393 C5.36551981,1.14078484 2.01204478,8.50505729 1.00602239,13.7556469 C0.150903358,12.0781879 0,8.92437171 0,7.85082211 C0,6.77727251 0.134203387,3.01954697 0.603613434,1.81172818 C1.07302348,0.603909393 3.48747721,0 4.42649851,0" id="path2492" fill="#FFFFFF" sketch:type="MSShapeGroup"></path>
                                    </g>
                                    <g id="g2494" transform="translate(185.359625, 193.603286)">
                                        <path d="M0,0.805212524 C0,0.201303131 0.855119031,0.0503257828 1.25752799,0.0503257828 C1.65993694,0.0503257828 3.92348732,0.352280479 4.67800411,1.4594477 C5.04701312,2.16400866 5.4325209,6.34104863 5.4325209,8.05212524 C5.4325209,9.76320186 5.03011195,12.4807941 4.47679963,13.7892645 C3.42047612,7.80049633 0,0.805212524 0,0.805212524" id="path2496" fill="#FFFFFF" sketch:type="MSShapeGroup"></path>
                                    </g>
                                    <g id="g2498" transform="translate(181.318735, 193.552961)">
                                        <path d="M1.60963582,4.22736575 C1.20722687,4.22736575 0.16760333,1.83689107 0.16760333,0.90586409 C0.16760333,0.349059629 1.05833555,0.161646414 1.67663691,0.167685508 C2.36254298,0.174529815 2.78326154,0.429580882 2.78326154,0.90586409 C2.78326154,1.38395903 2.04564593,4.22736575 1.60963582,4.22736575" id="path2500" fill="#FFFFFF" sketch:type="MSShapeGroup"></path>
                                    </g>
                                    <g id="g2502" transform="translate(177.965361, 193.519343)">
                                        <path d="M1.40843134,4.22736575 C0.972421241,4.22736575 0,1.57680743 0,0.805212524 C0,0.0336176229 2.61565821,-0.33557232 2.61565821,0.872246467 C2.61565821,2.08006525 1.67663691,4.22736575 1.40843134,4.22736575" id="path2504" fill="#FFFFFF" sketch:type="MSShapeGroup"></path>
                                    </g>
                                    <g id="g2506" transform="translate(174.544885, 193.502635)">
                                        <path d="M1.40843134,4.22736575 C1.10662463,4.22736575 0.100602239,1.48461059 0.100602239,0.754886742 C0.100602239,0.0251628914 2.64080877,-0.301954697 2.64080877,0.654235176 C2.64080877,1.61042505 1.71023806,4.22736575 1.40843134,4.22736575" id="path2508" fill="#FFFFFF" sketch:type="MSShapeGroup"></path>
                                    </g>
                                    <g id="g2510" transform="translate(170.948354, 193.729101)">
                                        <path d="M1.40843134,4.02606262 C1.13177519,4.02606262 0.0503011195,1.1826559 0.0503011195,0.629072285 C0.0503011195,0.0754886742 2.69110989,-0.276791805 2.69110989,0.528420719 C2.69110989,1.33363324 1.96174366,4.02606262 1.40843134,4.02606262" id="path2512" fill="#FFFFFF" sketch:type="MSShapeGroup"></path>
                                    </g>
                                    <g id="g2514" transform="translate(164.987672, 245.841449)">
                                        <path d="M12.8770866,6.64300333 L0.100602239,11.4239527 C0.100602239,10.9365978 1.83055834,8.71904252 4.05849552,6.31447662 C4.15306163,7.37796106 5.23131642,7.46492401 5.23131642,7.46492401 C6.46248662,7.46492401 9.82541827,5.77216598 9.82541827,2.5329973 C9.82541827,2.22258787 9.79966409,1.55748233 9.25279032,1.35396486 C9.90509524,0.827557172 10.5264147,0.373819914 11.0865679,0.033818926 L12.8267855,5.78746502 L14.6116704,0.0032208501 C15.1842983,0.348254417 15.8221165,0.816082893 16.4919262,1.36241959 C16.1587316,1.73784993 15.8951538,2.20708753 15.8951538,2.66726649 C15.8951538,5.18355563 18.7120164,7.5991932 20.1204478,7.5991932 C20.1204478,7.5991932 21.3200289,7.56537427 21.7665016,6.49424031 C23.8829715,8.8398244 25.5026676,10.9877288 25.5026676,11.5246043 L12.8770866,6.64300333 L12.8770866,6.64300333 Z" id="path2516" fill="#C8213F" sketch:type="MSShapeGroup"></path>
                                    </g>
                                    <g id="g2518" transform="translate(157.878514, 197.948012)">
                                        <path d="M21.3276747,16.5068567 C21.1264702,14.7621625 21.2606736,6.9113404 19.9862444,4.2943997 C18.2426064,7.31394666 18.7790175,13.4202758 18.3766086,16.0372165 C17.9741996,18.6541572 16.2305616,22.0090752 16.2305616,24.558982 L19.9192433,20.4658854 L23.138515,24.6932512 C23.138515,21.0025596 21.5288791,18.251551 21.3276747,16.5068567 L21.3276747,16.5068567 Z M38.3964541,30.9670646 C35.1771825,17.4463385 29.5770582,16.8088114 28.4368325,15.4333072 C31.2536952,22.176962 29.107447,30.4638067 28.9734448,31.8729287 C28.1016258,26.9075856 25.5529687,24.7602851 25.5529687,24.7602851 L23.5409239,29.1219201 L22.0654915,26.3036762 L19.7180388,29.2559879 L17.5717907,26.5049794 L15.5263459,29.2559879 L13.5477011,24.6932512 C11.7034609,27.1423051 11.2338496,28.6520786 10.3284295,31.6716255 C8.58479146,23.5524663 10.7308384,15.5003411 10.7308384,15.5003411 C4.32187218,19.3575104 1.95852439,26.7403027 1.03398981,30.8390358 L0.00422529403,30.1787615 C1.07302348,22.6129846 4.67800411,5.48551032 4.67800411,5.48551032 C4.98383492,8.22061596 6.17919072,12.6319728 7.77997354,15.232004 C9.82541827,5.56945373 12.2734731,0.0670339427 12.2734731,0.0670339427 L14.352519,2.48267152 L16.3645638,0.469640205 L17.8401974,2.48267152 L19.7180388,0.402606262 L21.5958802,2.68397465 L23.138515,0.469640205 L25.0835586,2.75120989 L27.1626045,0 C27.1626045,0 30.1973716,7.02890143 31.7231052,16.1042505 C33.3997421,12.4137602 34.7411724,5.50221848 34.7411724,5.50221848 C35.8811969,8.38769756 39.5030787,30.1284357 39.5030787,30.1284357 L38.3964541,30.9670646 L38.3964541,30.9670646 Z" id="path2520" fill="#C8213F" sketch:type="MSShapeGroup"></path>
                                    </g>
                                    <g id="g2522" transform="translate(172.432238, 234.216193)">
                                        <path d="M5.23131642,4.02606262 C5.23131642,4.02606262 2.76656157,1.10716722 0.0503011195,0.150977348 L1.81808366,0.150977348 C2.03357366,0.403814081 2.4891006,0.578746502 3.01806717,0.578746502 C3.54703374,0.578746502 4.00256068,0.403814081 4.21805067,0.150977348 L6.01822714,0.150977348 C6.23371713,0.403814081 6.68924407,0.578746502 7.21821064,0.578746502 C7.74717722,0.578746502 8.20270415,0.403814081 8.41819415,0.150977348 L10.1356756,0.150977348 C7.41941512,1.35879613 5.23131642,4.02606262 5.23131642,4.02606262" id="path2524" fill="#C8213F" sketch:type="MSShapeGroup"></path>
                                    </g>
                                    <g id="g2526" transform="translate(193.669531, 282.045938)">
                                        <path d="M10.0602239,8.25342837 C10.4592124,7.62556391 10.687177,6.96629615 10.687177,6.3710428 C10.687177,3.69371115 8.47392779,1.52305949 5.42225947,1.52305949 C3.42289058,1.52305949 1.65953453,2.45489168 0.681278362,3.85052629 L0.0919504464,1.99753097 C1.39676149,0.845674454 3.21243069,0.130645732 5.221055,0.130645732 C9.47995018,0.130645732 12.4141151,2.92453189 12.4141151,6.3710428 C12.4141151,7.17585271 12.2364515,7.94422677 11.9169388,8.65080076 L10.0602239,8.25342837 L10.0602239,8.25342837 Z" id="path2528" fill="#FFFFFF" sketch:type="MSShapeGroup"></path>
                                    </g>
                                    <g id="g2530" transform="translate(194.967139, 284.843930)">
                                        <path d="M0.201204478,3.62345636 L0.15593347,3.48173896 C0.211465906,1.57882046 1.96496293,0.0503257828 4.1246918,0.0503257828 C6.31922904,0.0503257828 8.09848023,1.62753581 8.09848023,3.57313058 C8.09848023,4.1663709 7.93127931,4.72458449 7.63913041,5.21495891 L0.201204478,3.62345636 L0.201204478,3.62345636 Z" id="path2532" fill="#C8213F" sketch:type="MSShapeGroup"></path>
                                    </g>
                                    <g id="g2534" transform="translate(200.399660, 286.118884)">
                                        <path d="M1.8108403,1.00651566 C1.8108403,0.515537319 1.41285784,0.117359725 0.922120122,0.117359725 C0.431382401,0.117359725 0.0333999433,0.515537319 0.0333999433,1.00651566 C0.0333999433,1.49749399 0.431382401,1.77811056 0.922120122,1.77811056 C1.41285784,1.77811056 1.8108403,1.49749399 1.8108403,1.00651566" id="path2536" fill="#FFFFFF" sketch:type="MSShapeGroup"></path>
                                    </g>
                                    <g id="g2538" transform="translate(148.970105, 281.998370)">
                                        <path d="M11.8710642,3.82475949 C10.9680585,2.47019072 9.35258774,1.57056703 7.38883204,1.57056703 C4.33716372,1.57056703 1.83518604,3.74121869 1.83518604,6.41875164 C1.83518604,7.16317062 2.03639052,7.84558823 2.38869956,8.44305592 L0.737615616,8.79634292 C0.38912946,8.06359952 0.195771957,7.26080264 0.195771957,6.41875164 C0.195771957,2.97224073 3.41625083,0.178354574 7.38883204,0.178354574 C9.46103696,0.178354574 11.2181557,0.841044482 12.4776957,1.91721102 L11.8710642,3.82475949 L11.8710642,3.82475949 Z" id="path2540" fill="#FFFFFF" sketch:type="MSShapeGroup"></path>
                                    </g>
                                    <g id="g2542" transform="translate(152.110585, 284.776796)">
                                        <path d="M7.84697464,3.82475949 L0.592345983,5.37700793 C0.263577866,4.86428886 0.0732384299,4.27245765 0.0732384299,3.64016452 C0.0732384299,1.69456976 1.85248963,0.117359725 4.04702687,0.117359725 C6.12466431,0.117359725 7.8274578,1.53151422 8.00331052,3.33297594 L7.84697464,3.82475949 L7.84697464,3.82475949 Z" id="path2544" fill="#C8213F" sketch:type="MSShapeGroup"></path>
                                    </g>
                                    <g id="g2546" transform="translate(157.190998, 285.674306)">
                                        <path d="M1.00602239,1.81172818 C0.515284668,1.81172818 0.117302211,1.53111162 0.117302211,1.04013328 C0.117302211,0.549154942 0.515284668,0.150977348 1.00602239,0.150977348 C1.49676011,0.150977348 1.89474257,0.549154942 1.89474257,1.04013328 C1.89474257,1.53111162 1.49676011,1.81172818 1.00602239,1.81172818" id="path2548" fill="#FFFFFF" sketch:type="MSShapeGroup"></path>
                                    </g>
                                    <g id="g2550" transform="translate(195.369548, 237.336392)">
                                        <path d="M60.9649568,11.8768847 L60.2607411,9.25994403 L2.71626045,1.30847035 C2.71626045,1.30847035 1.81104151,0.167685508 1.14022578,0.167685508 C0.469410047,0.167685508 0,1.0735496 0,1.8453458 C0,2.6169407 1.03962354,4.59635439 2.21324926,4.59635439 C3.21927165,4.59635439 3.28647394,3.6904903 3.28647394,3.6904903 L60.9649568,11.8768847 L60.9649568,11.8768847 Z" id="path2552" fill="#002F5D" sketch:type="MSShapeGroup"></path>
                                    </g>
                                    <g id="g2554" transform="translate(196.451022, 244.935585)">
                                        <path d="M1.8108403,0 C1.18207631,0 0.150903358,0.880701198 0.150903358,2.46596336 C0.150903358,3.34666455 0.804817911,4.62997201 1.73538862,4.62997201 C2.3138515,4.62997201 2.79171213,3.95057395 2.79171213,3.95057395 L63.5387645,19.039854 L63.1699567,16.4229133 L2.93014081,1.43428481 C2.93014081,1.43428481 2.76656157,0 1.8108403,0" id="path2556" fill="#002F5D" sketch:type="MSShapeGroup"></path>
                                    </g>
                                    <g id="g2558" transform="translate(196.794881, 252.769598)">
                                        <path d="M2.41445373,0 C1.23237743,0 0.184303302,2.02973947 0.184303302,2.87279698 C0.184303302,3.71565319 0.725140938,4.48322203 1.31607849,4.48322203 C1.90721725,4.48322203 2.51505597,3.84146765 2.51505597,3.84146765 L66.7159844,28.9206169 L66.4477788,26.2030247 L3.4371761,1.61042505 C3.4371761,1.61042505 3.59653004,0 2.41445373,0" id="path2560" fill="#002F5D" sketch:type="MSShapeGroup"></path>
                                    </g>
                                    <g id="g2562" transform="translate(99.206966, 243.262454)">
                                        <path d="M21.1264702,3.01954697 L0.0372228284,6.00124894 L0.79173962,3.28365667 L23.8109403,0.120983182 L21.1264702,3.01954697 L21.1264702,3.01954697 Z" id="path2564" fill="#002F5D" sketch:type="MSShapeGroup"></path>
                                    </g>
                                    <g id="g2566" transform="translate(120.201004, 241.169022)">
                                        <path d="M2.81686269,2.21433444 L18.2814389,0.0895798933 L17.8206806,2.61231073 L0.132392546,5.11289823 L2.81686269,2.21433444 L2.81686269,2.21433444 Z" id="path2568" fill="#FFFFFF" sketch:type="MSShapeGroup"></path>
                                    </g>
                                    <g id="g2570" transform="translate(137.858568, 237.336392)">
                                        <path d="M19.9192433,4.62997201 C19.0474243,4.62997201 18.6953165,3.82475949 18.6953165,3.82475949 L0.163176832,6.44492104 L0.623935086,3.92219021 L19.2820287,1.35879613 C19.2820287,1.35879613 20.1540489,0.184594971 20.9252657,0.184594971 C21.6964825,0.184594971 21.8976869,1.30847035 21.8976869,1.74469424 C21.8976869,2.70088411 21.2103724,4.62997201 19.9192433,4.62997201" id="path2572" fill="#002F5D" sketch:type="MSShapeGroup"></path>
                                    </g>
                                    <g id="g2574" transform="translate(95.416415, 256.794574)">
                                        <path d="M19.5168344,2.41563757 L0.105431146,7.2648287 L0.608442341,4.54723643 L18.4669494,0.117963635 L19.5168344,2.41563757 L19.5168344,2.41563757 Z" id="path2576" fill="#002F5D" sketch:type="MSShapeGroup"></path>
                                    </g>
                                    <g id="g2578" transform="translate(113.883404, 250.873544)">
                                        <path d="M0,6.03909393 L23.5988708,0.186205396 L24.1479578,2.56661492 L1.04988497,8.33676787 L0,6.03909393 L0,6.03909393 Z" id="path2580" fill="#FFFFFF" sketch:type="MSShapeGroup"></path>
                                    </g>
                                    <g id="g2582" transform="translate(137.472959, 244.759445)">
                                        <path d="M19.7180388,4.83127515 C19.0641243,4.83127515 18.5862636,4.17703997 18.5862636,4.17703997 L0.558342426,8.68059362 L0.00925540598,6.3003854 L18.2090052,1.78656529 C18.2090052,1.78656529 18.7120164,0.0251628914 19.6677377,0.0587805143 C20.3383522,0.0587805143 21.0761691,1.66920556 21.0761691,2.44080046 C21.0761691,3.07832748 20.9755668,4.83127515 19.7180388,4.83127515" id="path2584" fill="#002F5D" sketch:type="MSShapeGroup"></path>
                                    </g>
                                    <g id="g2586" transform="translate(140.239521, 252.610267)">
                                        <path d="M16.9011761,4.62997201 C16.3981649,4.62997201 15.8197021,4.15187708 15.8197021,4.15187708 L1.01889948,9.92384176 L0.0219312881,7.69360437 L14.6879269,1.93754264 C14.6879269,1.93754264 14.9142819,0.0754886742 15.8448526,0.0754886742 C16.7754233,0.0754886742 17.9071985,2.31498601 17.9071985,3.09503564 C17.9071985,3.44731612 17.8317468,4.62997201 16.9011761,4.62997201" id="path2588" fill="#002F5D" sketch:type="MSShapeGroup"></path>
                                    </g>
                                    <g id="g2590" transform="translate(91.968132, 271.685006)">
                                        <path d="M19.1144254,2.6169407 L0.0828962449,10.0387858 L0.384702962,7.42184514 L19.0792146,0.0845473151 L19.1144254,2.6169407 L19.1144254,2.6169407 Z" id="path2592" fill="#002F5D" sketch:type="MSShapeGroup"></path>
                                    </g>
                                    <g id="g2594" transform="translate(111.047387, 260.295376)">
                                        <path d="M0,11.4742785 L29.2140854,0.00845473151 L30.2110536,2.23869212 L0.0352107836,14.0066719 L0,11.4742785 L0,11.4742785 Z" id="path2596" fill="#FFFFFF" sketch:type="MSShapeGroup"></path>
                                    </g>
                                    <g id="g2598" transform="translate(110.394157, 166.007949)">
                                        <path d="M8.04817911,76.2938867 L7.98117802,78.1726488 L33.6681489,50.0574457 C34.8663216,43.4184684 36.1791808,38.435612 37.5582363,33.9531952 C40.6485358,23.9091755 43.487531,19.1568112 47.4842568,15.299038 L48.0208691,17.9830126 C48.0208691,17.9830126 50.7035284,13.3530406 54.5934146,9.86385342 C55.0964258,10.6857741 56.5048571,13.7053211 56.5048571,13.7053211 C56.5048571,13.7053211 60.1768388,7.91785605 61.2834635,7.16296931 L63.194906,11.4406608 L66.9171889,5.4518927 L70.4885683,11.4406608 L72.6515165,7.01199197 L77.2289183,13.7053211 L79.0146081,9.65409556 C83.6926122,14.2589047 85.2267963,17.3539403 85.5034525,17.9326868 C86.0819154,17.3539403 85.9561626,15.340909 85.9561626,15.340909 L89.0245309,18.1843157 C89.0245309,18.1843157 90.8931168,20.3839551 92.9228676,24.5253644 C95.203118,29.177681 98.9087008,40.4786375 100.602239,49.7889073 L128.435458,80.3869832 L134.270388,76.2268527 L138.36168,68.9127048 L113.546327,43.0788701 L111.86969,37.7107195 C122.064117,47.1719666 144.733021,63.7460586 144.733021,63.7460586 L154.323835,56.4991459 L148.623108,37.1740453 L137.825067,40.8645356 L124.813777,29.3232232 L128.435458,27.3772258 C128.435458,27.3772258 123.740754,20.1303131 123.070139,19.7947408 L126.825822,19.7277068 L117.469814,2.98592934 L119.884268,24.3240612 L101.172251,0.368988639 L32.884055,0.0493192671 L15.4339931,24.2988983 L19.5838354,2.41563757 L9.82541827,19.0901798 L12.7428832,19.5264037 L6.5558455,28.0984949 L10.4290317,28.0481692 L0.16760333,41.5858047 L2.17964811,44.5550259 L26.2235832,25.1292738 L5.09711304,54.9724629 L7.15945894,58.9481998 L34.8753758,37.5094163 L31.2536952,46.2326862 L8.04817911,76.2938867 L8.04817911,76.2938867 Z" id="path2600" fill="#D69C05" sketch:type="MSShapeGroup"></path>
                                    </g>
                                    <g id="g2602" transform="translate(152.110585, 84.748417)">
                                        <path d="M24.7481508,0 L34.0035568,11.8768847 L31.6561041,11.6755816 L41.1799169,23.2170953 L35.4791904,22.3446476 L61.3673657,57.3713924 L47.6184602,44.8905982 L46.2770299,49.2522332 L34.0035568,34.4228354 L32.0587143,38.9857735 L25.2175608,29.9941665 L19.1144254,38.8515043 L16.9681772,34.4900707 L4.15829294,49.117964 L11.3344519,36.1675297 L0.134203387,43.8840826 L11.6698597,30.0614018 L2.88386378,34.0874644 L13.6149034,22.6802199 L8.51758916,23.2841293 L18.1754041,12.0781879 L14.0843134,13.0847035 L24.7481508,0 L24.7481508,0 Z" id="path2604" fill="#D69C05" sketch:type="MSShapeGroup"></path>
                                    </g>
                                    <g id="g2606" transform="translate(153.250710, 63.007880)">
                                        <path d="M8.04817911,0 L6.03613434,0.268337074 L0.603613434,15.7686782 L3.75588399,14.8964317 L0.0670010911,21.7407382 L4.82890747,20.1973471 L1.14022578,27.1088888 L5.4325209,25.1628914 L3.95708847,33.2150166 L9.38960937,23.8880387 L10.4626328,15.567375 L8.04817911,0 L8.04817911,0 Z" id="path2608" fill="#D69C05" sketch:type="MSShapeGroup"></path>
                                    </g>
                                    <g id="g2610" transform="translate(185.611131, 45.695811)">
                                        <path d="M17.1023806,59.7870299 C17.1023806,59.7870299 19.5168344,52.6407688 14.3861202,24.7602851 L0.90542015,0.100651566 L0,5.63648767 L2.41445373,13.889916 L3.11866941,16.8088114 L5.33191866,17.7146755 L4.22529403,21.7407382 L4.62770299,32.8124104 L6.53914553,34.4228354 L6.13673657,38.3482465 L6.03613434,43.8840826 L17.1023806,59.7870299 L17.1023806,59.7870299 Z" id="path2612" fill="#D69C05" sketch:type="MSShapeGroup"></path>
                                    </g>
                                    <g id="g2614" transform="translate(168.542251, 7.179879)">
                                        <path d="M13.883109,18.7211912 L17.5717907,24.2234097 L17.5717907,2.21433444 L15.2245392,0.90586409 L13.3464966,2.95231172 L12.608881,0.201303131 L9.59081385,0.0670339427 L8.58479146,2.88527778 L7.17636011,0.134067885 L4.42649851,0.402606262 L3.95708847,3.82475949 L2.07904587,1.5431898 L0.134203387,3.15361485 L0.134203387,4.69700596 L14.352519,9.72958423 L13.883109,18.7211912 L13.883109,18.7211912 Z" id="path2616" fill="#D69C05" sketch:type="MSShapeGroup"></path>
                                    </g>
                                    <g id="g2618" transform="translate(147.952393, 37.543034)">
                                        <path d="M18.510812,3.82475949 C18.510812,3.82475949 14.6209258,18.1172818 14.1179146,18.9224943 L11.753762,16.1042505 L13.1118922,9.71287607 L0.0336011478,3.62345636 L0.0336011478,2.01303131 L2.34745264,1.05684144 L4.20859406,3.17052431 L4.91280974,0.201303131 L8.03147914,0 L9.28900713,2.81824384 L10.6974385,0.754886742 L13.866409,1.35879613 L14.0173124,4.57964623 L16.1299594,2.6169407 L18.510812,3.82475949 L18.510812,3.82475949 Z" id="path2620" fill="#D69C05" sketch:type="MSShapeGroup"></path>
                                    </g>
                                    <g id="g2622" transform="translate(217.954751, 26.974620)">
                                        <path d="M0,0 L0.393757163,1.42784311 C3.24180655,4.07216104 5.78462874,8.58879939 5.78462874,8.58879939 L6.32124108,12.8831991 L7.52846795,9.46104586 L7.9308769,18.6539559 L9.7417172,13.0845022 L11.0831475,19.9960439 L11.753762,15.5001398 L13.7658068,20.1973471 C13.4306001,17.2784517 12.1197529,14.3525106 10.6135362,11.3400093 C8.33268225,6.77807773 5.63090852,3.35330756 2.78527359,0.820712865 L0,0 L0,0 Z" id="path2624" fill="#D69C05" sketch:type="MSShapeGroup"></path>
                                    </g>
                                    <g id="g2626" transform="translate(221.257925, 136.953163)">
                                        <path d="M0,13.889916 L16.4315649,34.2887675 L14.0843134,34.2887675 L18.7790175,39.1870766 L21.0592679,35.161014 L21.7970847,34.6913738 C22.0737409,32.246346 22.2463743,28.7213268 25.251162,23.6865342 C26.616938,21.3981202 28.6004117,19.037841 31.3878985,15.9029474 C30.7170828,22.4789167 31.0524907,27.9141013 31.0524907,27.9141013 L35.2777847,28.1154044 L36.6862161,24.8273191 L45.6062142,17.0437322 L37.4240329,19.1237975 L40.1066922,15.0977348 L33.6011478,15.299038 L37.088625,12.8163664 L29.107447,9.79681948 L16.5657683,13.4873098 L21.2604724,7.31394666 L9.59061264,8.72306858 L14.6879269,3.55642242 L7.31036229,0 L3.28627274,5.50221848 L0,13.889916 L0,13.889916 Z" id="path2628" fill="#D69C05" sketch:type="MSShapeGroup"></path>
                                    </g>
                                    <g id="g2630" transform="translate(240.707758, 145.609298)">
                                        <path d="M2.01204478,31.6045916 L0.0670010911,34.5571046 L2.61565821,44.9576322 L10.127225,50.728389 L18.980222,47.440505 L19.382631,48.7823917 L20.7910623,48.2457175 L23.7421284,54.8887208 C23.7421284,54.8887208 25.2342608,52.1208028 31.119693,47.775876 C31.119693,47.775876 32.075213,42.2066236 26.7935955,24.743577 C28.6547369,26.3036762 40.3245966,35.9159007 44.0637806,46.5010233 L45.4050097,46.8365956 C45.4050097,46.8365956 46.4110321,41.3007595 50.8375306,38.7844704 C51.1057362,25.4984637 45.0696018,16.909463 42.588147,12.0111539 C48.0206679,15.299038 58.8857097,21.0697948 65.1230485,33.2486343 C65.1985002,32.1666299 64.2176284,27.6121466 64.921844,25.6997668 C65.280994,24.7240506 67.167286,23.292584 68.2417179,21.5730526 C68.7447291,20.7678401 68.8453314,18.9561119 68.8453314,18.251551 C68.8453314,17.54699 66.2296732,7.48183347 64.6200373,5.77075686 L62.1049814,6.37466625 L58.6845052,1.94599737 C58.6845052,1.94599737 54.1574045,0.134269188 50.9381328,0.134269188 C49.0148192,0.134269188 46.1989626,0.317253735 43.5438683,0.989807496 C39.8479432,1.92566575 39.0670686,2.65055833 35.847797,3.65707398 L19.5168344,17.8656529 L17.4375873,22.7808714 C17.4375873,22.7808714 12.8098843,21.7743558 12.2062709,22.176962 C11.6026574,22.5795683 14.6207246,34.456453 18.6448141,43.5150939 C12.3068731,44.3203065 0.838217855,42.810533 2.01204478,31.6045916" id="path2632" fill="#D69C05" sketch:type="MSShapeGroup"></path>
                                    </g>
                                    <g id="g2634" transform="translate(269.211591, 195.465340)">
                                        <path d="M2.41445373,2.01303131 C1.71023806,3.42215323 0.268205569,4.96554433 0.268205569,7.64951898 C-0.603613434,9.86385342 6.74035001,21.8413897 18.510812,24.0221065 L20.1204478,17.1107661 C20.1204478,17.1107661 21.0594691,24.8273191 20.1204478,26.9746196 C18.9132209,27.6791805 11.3344519,27.7798321 11.3344519,27.7798321 L9.89262056,30.9670646 L14.2185168,44.7229127 C14.2185168,44.7229127 22.4342993,46.2997201 22.9373105,46.1990686 C23.4403217,46.098417 34.0035568,37.6436855 34.104159,37.2410793 C34.1381626,37.1051996 32.8637334,32.9998236 30.8848873,27.7798321 C27.0022445,17.5373275 21.3276747,4.02606262 20.9252657,1.61042505 L16.9011761,0 C16.9011761,0 20.4222545,9.25994403 18.0078008,21.0361772 C9.85901941,20.2309647 1.20722687,10.1658081 1.20722687,7.24691272 C1.20722687,5.5358361 2.61565821,3.82475949 2.41445373,2.01303131" id="path2636" fill="#D69C05" sketch:type="MSShapeGroup"></path>
                                    </g>
                                    <g id="g2638" transform="translate(292.148902, 182.783243)">
                                        <path d="M16.4987672,40.2606262 L25.1505597,41.0658387 C25.1505597,41.0658387 33.8023523,31.8058947 34.2047612,30.5980759 C34.6071702,29.3902571 19.0138232,0.603909393 19.0138232,0.603909393 C19.0138232,0.603909393 16.3981649,-0.201303131 15.3921426,0.201303131 C15.3921426,0.201303131 18.108403,7.85082211 16.5993694,17.1107661 C6.63974777,15.8022958 0,7.14626115 0,7.14626115 L0.704215672,9.86385342 C5.03011195,15.3996895 11.5692575,20.2309647 18.0078008,20.1303131 C18.510812,18.3185849 19.1144254,12.8834004 19.1144254,12.8834004 C19.1144254,12.8834004 20.0198455,13.2860067 20.0198455,22.8479054 C16.4989684,24.491948 11.1334486,24.0221065 11.1334486,24.0221065 L10.1274262,26.169407 L16.4987672,40.2606262 L16.4987672,40.2606262 Z" id="path2640" fill="#D69C05" sketch:type="MSShapeGroup"></path>
                                    </g>
                                    <g id="g2642" transform="translate(309.720894, 165.068567)">
                                        <path d="M15.4927448,25.3641945 L15.2245392,27.7127981 L19.382631,36.5701359 L28.1016258,35.8319573 C28.1016258,35.8319573 32.7961287,26.7062825 33.2657399,24.6932512 L23.8761306,8.38769756 L19.7514388,0.90586409 C19.7514388,0.90586409 19.1476241,0.100651566 16.1967593,0.100651566 C16.1967593,0.100651566 19.9862444,9.72958423 19.7180388,17.6476416 C5.46592085,15.8693297 0.704014468,8.01850762 0.704014468,8.01850762 L0.704014468,5.63648767 C0.704014468,5.63648767 0.16760333,6.50893544 0.16760333,7.75017055 C0.16760333,8.99160696 0.972421241,11.0046383 0.972421241,11.0046383 L4.53535014,14.5441512 C4.53535014,14.5441512 12.2734731,21.1368288 21.4616768,20.9355256 C21.9312881,18.1843157 22.0654915,13.2189727 22.0654915,13.2189727 C22.0654915,13.2189727 23.2727183,14.2254884 24.2115384,23.0828261 C20.5228567,25.0286222 15.4927448,25.3641945 15.4927448,25.3641945" id="path2644" fill="#D69C05" sketch:type="MSShapeGroup"></path>
                                    </g>
                                    <g id="g2646" transform="translate(321.055346, 142.757538)">
                                        <path d="M0.603613434,9.66255029 C0.603613434,9.66255029 0.33520666,8.11915919 0.201204478,8.01850762 C0.201204478,8.01850762 -0.16760333,8.52156415 0.201204478,9.89726974 C0.201204478,9.89726974 0.834193765,10.768711 1.91144254,11.8096495 C4.87900738,14.6764074 12.3907754,19.6940892 19.1144254,18.0836642 C19.9862444,16.791902 19.5166331,11.4406608 19.4999332,11.4909866 C20.1371478,12.2458734 22.4509993,18.0836642 23.0043116,21.1702451 C18.879821,23.1162425 15.610047,23.4685229 15.610047,23.4685229 L15.4591436,25.8338347 C15.8615526,26.5049794 20.1874489,34.4395436 20.9922668,34.4395436 C21.7970847,34.4395436 26.5253899,33.6846568 28.4368325,33.2820506 C28.7052392,32.3427702 30.750684,26.2867668 31.0021896,24.5756902 C27.8835202,18.586922 19.0808242,3.64016452 17.4208873,1.02322382 C16.465166,0.57029177 13.8998089,-0.0336176229 12.4074753,0.100450262 C12.4074753,0.100450262 16.9011761,4.66338833 18.0412007,16.0706329 C8.38358698,16.5068567 1.97844363,11.2057401 0.603613434,9.66255029" id="path2648" fill="#D69C05" sketch:type="MSShapeGroup"></path>
                                    </g>
                                    <g id="g2650" transform="translate(88.781476, 138.647532)">
                                        <path d="M29.3758538,0 L36.9713228,6.89463224 L41.5990258,16.6578341 L27.9171213,31.9568721 L31.1363929,31.6549174 L26.0056788,37.4927082 C26.0056788,37.4927082 23.7924295,33.365994 23.0882138,33.0640393 C23.0379127,32.208501 22.736106,26.169407 17.7562952,18.9728201 L13.4555495,14.1163821 C13.4555495,14.1163821 14.5370235,24.3073531 13.6316034,26.6223391 C8.45058807,20.5329194 0.100602239,12.0278621 0.100602239,12.0278621 L12.0219676,12.732423 L9.0542015,8.45473151 L19.8186411,9.91417921 L16.2472616,5.43518454 L29.3758538,0 L29.3758538,0 Z" id="path2652" fill="#D69C05" sketch:type="MSShapeGroup"></path>
                                    </g>
                                    <g id="g2654" transform="translate(45.002802, 145.609298)">
                                        <path d="M67.4035001,32.208501 L68.8119314,34.3558015 L66.1962732,44.8905982 L59.0199131,50.6613551 L48.7584847,47.1719666 L45.4052109,54.8214856 C44.1307817,53.0769927 42.0517359,50.5941198 37.7594407,47.775876 C37.7594407,47.775876 37.6477723,44.4300167 38.3964541,39.9922891 C39.2322575,35.0366087 41.0084907,28.7243464 42.5211459,24.2906449 C42.5211459,24.2906449 29.4428549,33.9531952 25.2175608,46.5346409 L23.4067205,46.7693604 C23.2437449,45.1398115 21.6628813,40.5961985 18.108403,38.7844704 C18.108403,38.7844704 18.1915005,33.9453444 19.7850399,27.7127981 C21.1443774,22.3961812 23.8763318,16.7081599 26.0223787,12.3465249 C18.6784153,15.936565 7.91397573,24.2906449 3.88988617,33.2486343 C3.88988617,33.2486343 4.29229513,29.3232232 4.29229513,27.6624724 C4.29229513,26.0017215 2.98446602,23.5357582 0.720915644,21.5730526 C0.670614525,20.9691433 0.117302211,18.8051346 0.0670010911,18.3522026 C0.0166999717,17.8992705 2.9341649,9.1425843 4.89590856,5.87140842 L7.20976005,6.07271156 L10.5296339,1.8453458 C10.5296339,1.8453458 16.1633593,0.0670339427 17.7729951,0.0670339427 C19.382631,0.0670339427 28.5374347,0.939481713 31.2536952,2.39892941 C32.5293315,3.08416527 36.538532,6.66132191 40.521777,10.1742629 C45.0205079,14.141545 49.4627004,18.0502479 49.4627004,18.0502479 L51.6759497,22.881523 C51.6759497,22.881523 56.2702527,21.8077721 56.8738661,22.3446476 C57.4774796,22.881523 55.5491359,32.2924444 50.4184217,43.5150939 C52.8328754,44.0686775 67.822609,44.7229127 67.4035001,32.208501" id="path2656" fill="#D69C05" sketch:type="MSShapeGroup"></path>
                                    </g>
                                    <g id="g2658" transform="translate(62.775797, 196.874462)">
                                        <path d="M18.3096075,39.85802 C18.3096075,39.85802 27.4644112,10.9710206 27.6656157,9.56189873 C27.8668202,8.15277681 23.138515,2.11368288 20.4222545,0.301954697 C20.3216523,2.11368288 21.6294814,5.43518454 21.6294814,5.43518454 C21.1737532,7.2068534 21.2091652,8.79895986 16.4987672,13.3866582 C14.0289822,15.7920293 10.8901924,18.2650383 4.92950971,19.8031955 C2.61565821,10.2412968 5.63372538,0.100651566 5.63372538,0.100651566 C5.63372538,0.100651566 -1.60963582,10.5684144 4.62770299,23.2505116 C12.0052676,21.606469 17.5717907,16.3055536 17.5717907,16.3055536 C17.5717907,16.3055536 16.7208969,17.645226 15.4257437,19.4257521 C13.326175,22.3120364 9.77109306,26.3833923 4.62770299,27.9811352 C4.32589627,29.188954 0,39.5560653 0,39.5560653 L2.81686269,41.468445 L18.3096075,39.85802 L18.3096075,39.85802 Z" id="path2660" fill="#D69C05" sketch:type="MSShapeGroup"></path>
                                    </g>
                                    <g id="g2662" transform="translate(38.228851, 183.789759)">
                                        <path d="M2.01204478,37.4423824 L14.0340123,37.8449886 C14.0340123,37.8449886 23.4403217,13.9402418 23.8930317,12.2291652 C24.3457418,10.5180886 27.5650135,9.91417921 27.5650135,9.91417921 C27.5650135,9.91417921 27.6656157,7.44821585 25.251162,4.42866888 C23.591225,9.46124716 12.8267855,15.75197 7.79667352,16.3055536 C6.50554438,4.22736575 8.85299703,0.0670339427 8.85299703,0.0670339427 C8.85299703,0.0670339427 8.20974631,0.763744079 7.57876907,2.28136838 C6.53894433,4.78235849 5.29831752,9.04917965 5.29831752,12.6820973 C5.29831752,14.6448028 6.53914553,19.6270553 6.53914553,19.6270553 C6.53914553,19.6270553 11.770462,19.5264037 19.1144254,14.8964317 C18.0078008,16.7584857 11.770462,23.0492085 4.72830523,24.0557242 L1.07302348,32.4098041 L0,34.3558015 L2.01204478,37.4423824 L2.01204478,37.4423824 Z" id="path2664" fill="#D69C05" sketch:type="MSShapeGroup"></path>
                                    </g>
                                    <g id="g2666" transform="translate(18.376709, 166.678993)">
                                        <path d="M12.0722687,35.2280479 L23.4739228,14.1582531 C23.4739228,14.1582531 26.2907855,13.2189727 27.4980124,13.621579 C28.1686269,10.937403 27.9004213,5.8377908 27.9004213,5.8377908 C27.9004213,5.8377908 26.6931945,3.42195193 25.8883766,3.15361485 C26.122981,3.95882738 26.0223787,5.16664616 25.8883766,6.37446495 C25.8883766,6.37446495 23.1954558,11.8281694 12.9106877,14.8293978 C11.0944149,15.3592276 9.02180758,15.6945986 6.70674886,16.0372165 C7.37756459,6.37466625 10.1944273,0.0503257828 10.1944273,0.0503257828 C10.1944273,0.0503257828 3.95708847,6.54235176 6.06973548,19.1237975 C13.464,18.9224943 19.3995321,14.9467575 19.3995321,14.9467575 C19.3995321,14.9467575 13.01129,22.2943218 4.40979854,22.8982312 L0.134203387,29.9941665 L1.44203249,32.7117588 L12.0722687,35.2280479 L12.0722687,35.2280479 Z" id="path2668" fill="#D69C05" sketch:type="MSShapeGroup"></path>
                                    </g>
                                    <g id="g2670" transform="translate(7.712872, 142.455583)">
                                        <path d="M0,30.5980759 L0.939021298,33.3492858 L7.51156677,35.6306542 C7.51156677,35.6306542 14.0173124,24.8273191 15.0903358,22.0090752 C16.834175,19.291483 22.9373105,19.6604716 22.9373105,19.6604716 C22.9373105,19.6604716 25.9889788,14.6615109 26.5925922,14.1582531 C26.8440978,13.3027148 27.1459045,7.31394666 27.1459045,7.31394666 C27.1459045,7.31394666 26.49199,6.20677944 25.9889788,6.05580209 C25.4859676,5.90482474 25.8380754,9.77991002 25.8380754,9.77991002 C25.8380754,9.77991002 19.5504355,16.5235649 7.98117802,16.3222618 C8.73569481,6.6093857 13.7155056,0.0670339427 13.7155056,0.0670339427 C13.7155056,0.0670339427 11.351353,1.62713321 10.5465351,3.13690669 C9.7417172,4.64668017 5.76792877,11.8096495 6.67334892,18.8888767 C12.9106877,19.1237975 19.5168344,16.6075083 19.5168344,16.6075083 C18.7128213,18.0188446 14.251112,20.7269756 12.5752799,21.3715482 C11.0722824,21.9496908 8.49284101,22.2401712 4.96311086,22.8813217 L0,30.5980759 L0,30.5980759 Z" id="path2672" fill="#D69C05" sketch:type="MSShapeGroup"></path>
                                    </g>
                                    <g id="g2674" transform="translate(157.207799, 62.940846)">
                                        <path d="M10.6638373,17.1107661 L6.23733881,25.3641945 L0,33.2820506 L5.16431533,21.3381319 L3.01806717,22.0761092 L5.03011195,16.4396215 L1.8108403,17.5804063 L4.76190638,10.1321905 L1.00602239,12.5478281 L4.09109065,0.0670339427 L7.04215672,4.56273677 L10.6638373,17.1107661 L10.6638373,17.1107661 Z" id="path2676" fill="#FFFFFF" sketch:type="MSShapeGroup"></path>
                                    </g>
                                    <g id="g2678" transform="translate(125.819900, 123.130281)">
                                        <path d="M18.9132209,30.3967728 L0.00845058807,67.1766666 L20.8582646,45.6958108 L13.01129,65.2222145 L25.0163563,53.8151712 L23.5409239,66.4300333 C24.3457418,64.6183051 29.9124661,55.6268994 32.9975344,52.5401172 L33.8023523,55.6939334 C37.8264418,50.3257828 40.2408956,48.4470206 40.2408956,48.4470206 L41.9175325,51.6008368 L43.8625762,48.9166609 L46.344031,46.5010233 L47.9536668,49.1851992 L51.3741429,44.420958 L54.9958235,49.4535363 L57.0750706,46.5682585 L59.4223221,48.782593 L61.3673657,51.8691739 C61.3673657,51.8691739 63.3794105,49.117964 63.3794105,48.4470206 C64.5866374,48.6483238 67.9401124,52.8756895 69.4825459,56.2308088 C69.6837504,55.090024 70.1533617,53.0769927 69.9521572,52.5401172 C69.9521572,52.5401172 76.2564971,59.5857268 80.3475878,67.1682118 L79.3415654,53.747936 L91.2798319,65.0881466 L83.6340617,45.8300799 L104.458725,67.2018295 L85.5119031,30.5980759 L83.4998583,37.6436855 L74.1102489,18.5871233 L71.561793,24.223611 L61.7697747,7.44821585 L59.824731,13.0176696 L52.1789609,0.134269188 L44.5331907,12.8834004 L42.6553493,7.58248504 L32.863331,24.223611 L30.2476728,18.6541572 L20.9922668,37.7779547 L18.9132209,30.3967728 L18.9132209,30.3967728 Z" id="path2680" fill="#FFFFFF" sketch:type="MSShapeGroup"></path>
                                    </g>
                                    <g id="g2682" transform="translate(172.130431, 61.800061)">
                                        <path d="M0,14.0912192 L3.6216806,20.6335709 L4.32589627,0.100651566 C4.32589627,0.100651566 1.00602239,8.45473151 0,14.0912192" id="path2684" fill="#FFFFFF" sketch:type="MSShapeGroup"></path>
                                    </g>
                                    <g id="g2686" transform="translate(183.397882, 45.695811)">
                                        <path d="M19.3156299,59.7870299 C19.3156299,59.7870299 6.63974777,44.9912498 3.72228284,40.5625809 L7.2433612,34.7247901 L2.71626045,34.7247901 L5.73432762,28.5850446 L1.91144254,28.484393 C2.23839982,27.6540176 6.97515563,18.2010239 6.97515563,18.2010239 L4.9965108,17.1105648 C4.9965108,17.1105648 1.39173137,3.74061478 0.16760333,1.14058354 L3.11866941,0.100651566 L3.11866941,5.16664616 L4.76170517,6.81048753 L4.25889518,11.1387062 L6.27093996,12.7491312 L5.39891975,15.9027461 L8.34998583,16.976497 L7.20976005,21.3379306 L9.49021161,22.5457494 L7.88057578,26.571812 L10.8314407,27.1757214 L8.28298474,31.6716255 L12.5082788,31.9399626 L9.69141608,36.8382717 L13.9167101,36.8382717 L10.6302362,43.8838813 L13.7155056,42.8773656 L19.3156299,59.7870299 L19.3156299,59.7870299 Z" id="path2688" fill="#FFFFFF" sketch:type="MSShapeGroup"></path>
                                    </g>
                                    <g id="g2690" transform="translate(200.651166, 21.136829)">
                                        <path d="M17.3035851,5.8377908 L17.6975435,7.26643912 C17.6168605,7.19155436 17.5357751,7.1172735 17.4544885,7.04540828 C11.0829463,1.40892061 2.83376387,1.27485273 0.0169011761,1.47615586 L2.02894595,0.335371016 C2.02894595,0.335371016 3.23617282,0.201101828 3.97378844,0.201101828 C8.54978188,0.201101828 14.5861174,1.76361673 20.0854382,6.65628933 L17.3035851,5.8377908 L17.3035851,5.8377908 Z" id="path2692" fill="#FFFFFF" sketch:type="MSShapeGroup"></path>
                                    </g>
                                    <g id="g2694" transform="translate(220.520108, 61.296803)">
                                        <path d="M0,10.2664597 L2.81686269,19.8283584 C2.81686269,19.8283584 3.92348732,9.96450499 3.52107836,5.8377908 L5.53312314,8.30375416 L5.4325209,0.0503257828 L4.42649851,4.93192671 L1.91144254,1.40912192 L1.91144254,13.2860067 L0,10.2664597 L0,10.2664597 Z" id="path2696" fill="#C8213F" sketch:type="MSShapeGroup"></path>
                                    </g>
                                    <g id="g2698" transform="translate(223.437573, 47.255910)">
                                        <path d="M0.603613434,13.6886129 L0.150903358,5.48551032 L1.76053918,7.09593537 L1.71023806,2.51628914 L3.77258396,4.22736575 L3.82288508,0.150977348 L5.13071419,7.5991932 L3.21927165,6.34104863 L3.26957277,10.8200433 L1.45873246,9.0586409 L0.603613434,13.6886129 L0.603613434,13.6886129 Z" id="path2700" fill="#C8213F" sketch:type="MSShapeGroup"></path>
                                    </g>
                                    <g id="g2702" transform="translate(225.483219, 47.641808)">
                                        <path d="M5.4325209,0 L6.97495443,4.36143364 L7.57856786,15.299038 L6.10313543,14.3595562 L7.31036229,22.5459507 L5.23131642,20.5329194 L5.76772756,28.3837415 L3.28627274,26.6390472 L3.35327383,31.2690193 L1.40843134,29.3230219 L0.201204478,35.1608127 L0.0670010911,23.8208034 L1.54243353,25.6995655 L1.8108403,21.7407382 L3.75568278,23.6195003 L2.95086487,9.39401192 L5.63372538,11.5413124 C5.63372538,11.5413124 5.29851872,1.14078484 5.4325209,0" id="path2704" fill="#C8213F" sketch:type="MSShapeGroup"></path>
                                    </g>
                                    <g id="g2706" transform="translate(266.394729, 154.298850)">
                                        <path d="M0.201204478,12.4807941 C-0.45472212,11.8245459 1.27422796,8.82372014 1.60963582,8.35407994 C1.94504369,7.88443974 5.51521594,4.75518256 8.34998583,2.38201995 C9.01536904,1.82501419 9.51918505,1.28189834 9.95962165,1.00651566 C11.5692575,-1.11299858e-14 14.2185168,-0.016909463 14.8221303,0.184393668 C15.4257437,0.385696799 12.8770866,7.64951898 12.1728709,8.25342837 C11.4686552,8.85733777 0.804817911,13.0847035 0.201204478,12.4807941" id="path2708" fill="#C8213F" sketch:type="MSShapeGroup"></path>
                                    </g>
                                    <g id="g2710" transform="translate(266.224570, 171.211453)">
                                        <path d="M5.4325209,17.3120693 C4.16915799,17.76943 2.86474936,18.2066604 1.51164924,18.6173188 C0.572829148,16.7385567 -0.36619215,1.57338527 0.438625762,0.634104863 C0.503413604,0.558414886 0.912059898,0.35811827 1.55510941,0.070657399 C4.01946185,8.36877507 5.03494085,13.8722014 5.4325209,17.3120693" id="path2712" fill="#C8213F" sketch:type="MSShapeGroup"></path>
                                    </g>
                                    <g id="g2714" transform="translate(285.196140, 151.307224)">
                                        <path d="M0,7.44821585 C1.04988497,5.2910515 2.06214469,3.28889056 2.59352572,2.82367902 C3.28144383,2.22158135 11.3300254,1.01235345 17.2657587,0.222238657 L20.1317152,0.0726704303 C20.7500166,0.729925153 21.5164045,2.62016155 22.2264551,4.7384744 C20.8964935,7.27449125 18.548236,12.4175849 13.9535305,18.1219118 C9.15902904,13.0152539 3.82026942,9.72596078 0,7.44821585" id="path2716" fill="#C8213F" sketch:type="MSShapeGroup"></path>
                                    </g>
                                    <g id="g2718" transform="translate(268.287701, 160.015537)">
                                        <path d="M16.2975627,0 C18.5186589,4.02525741 21.686221,9.77668917 22.8312757,17.5594708 C19.9097867,19.9849722 16.4937371,22.3408228 12.4871523,24.4750386 C8.18861984,18.1726402 2.39694894,13.0357869 0.0340035568,11.0273855 C3.74240329,9.41132398 12.4432897,5.92314333 13.6670154,4.85180807 C14.1462844,4.43229234 15.1951634,2.27834884 16.2975627,0" id="path2720" fill="#C8213F" sketch:type="MSShapeGroup"></path>
                                    </g>
                                    <g id="g2722" transform="translate(47.484257, 151.480606)">
                                        <path d="M2.41445373,0 C6.57636836,0.337585351 18.3478363,1.5301051 19.9192433,3.01954697 C20.5129977,3.58218922 21.2536314,5.30796096 22.089636,7.22336025 C17.7510639,9.56793782 12.5428859,13.3252608 8.25360889,17.7631896 C5.50093042,14.2776259 2.76253748,10.0929364 0.104022715,5.03036394 C0.852100964,3.13167281 1.72170672,1.18487023 2.41445373,0" id="path2724" fill="#C8213F" sketch:type="MSShapeGroup"></path>
                                    </g>
                                    <g id="g2726" transform="translate(63.798519, 159.778865)">
                                        <path d="M10.2614284,24.558982 C7.04175432,22.9624469 3.59149993,20.8759399 0.054727618,17.9043031 C0.286716381,16.5736894 0.590736347,15.1019622 0.989322418,13.5430707 C2.15751562,8.9748988 4.33816975,4.13436371 6.290658,0.0946124716 C7.180183,2.08509783 8.15823796,4.07055061 9.17170492,5.021104 C10.4091125,6.18181785 18.3057846,9.36502426 22.28742,11.2629102 C19.7429882,13.3683396 14.3321974,18.231622 10.2614284,24.558982" id="path2728" fill="#C8213F" sketch:type="MSShapeGroup"></path>
                                    </g>
                                    <g id="g2730" transform="translate(82.896245, 171.308965)">
                                        <path d="M5.4325209,1.00651566 C5.9355321,3.92541106 3.95708847,17.3791032 3.6216806,18.251551 C2.56334505,17.7615792 1.39977955,17.2955624 0.149293723,16.809818 C0.238024897,16.0263462 0.352912654,15.1818795 0.503011195,14.2925223 C1.24344367,9.90250362 2.72149177,4.45081223 4.10094967,0.180367605 C4.80637257,0.54070021 5.28705006,0.827355869 5.4325209,1.00651566" id="path2732" fill="#C8213F" sketch:type="MSShapeGroup"></path>
                                    </g>
                                    <g id="g2734" transform="translate(73.213279, 154.173036)">
                                        <path d="M0.201204478,0.603909393 C0.649689259,-0.442665585 3.94863788,0.427769154 5.15586474,1.03167855 C5.72728546,1.31752899 7.4542235,2.91768758 9.28055654,4.52086572 C11.3125206,6.30421016 13.44227,8.10889273 13.7070551,8.4798944 C14.2100662,9.18445536 15.5178954,12.4053055 15.1154864,12.7072601 C14.7130774,13.0092148 8.97874982,11.3987898 3.04321773,8.68119753 C1.4335819,5.35969587 -0.100602239,1.30847035 0.201204478,0.603909393" id="path2736" fill="#C8213F" sketch:type="MSShapeGroup"></path>
                                    </g>
                                    <g id="g2738" transform="translate(17.869473, 130.847035)">
                                        <path d="M0.201204478,25.7668008 C0.134203387,22.0763105 4.1876688,6.34930206 22.6984808,0.17614024 C20.5103821,2.86856962 14.5245488,10.7360999 13.3843231,20.0632792 C12.8813119,22.8142878 2.48568012,26.1357894 0.201204478,25.7668008" id="path2740" fill="#FFFFFF" sketch:type="MSShapeGroup"></path>
                                    </g>
                                    <g id="g2742" transform="translate(27.296808, 146.548579)">
                                        <path d="M0.201204478,33.6176229 C0.134203387,29.9271326 2.02874475,9.56189873 23.1552149,0 C20.9671162,2.69242938 14.754928,14.2421965 14.8221303,25.8338347 C14.3191191,28.5850446 5.09711304,33.0807474 0.201204478,33.6176229" id="path2744" fill="#FFFFFF" sketch:type="MSShapeGroup"></path>
                                    </g>
                                    <g id="g2746" transform="translate(47.484257, 162.988402)">
                                        <path d="M0.402408956,34.4228354 C0.0336011478,32.5104557 -2.28025035,12.8163664 18.980222,0.167685508 C16.9011761,3.58983874 12.9776888,13.3530406 13.9501101,24.7602851 C13.4470989,27.5112937 4.92950971,33.2486343 0.402408956,34.4228354" id="path2748" fill="#FFFFFF" sketch:type="MSShapeGroup"></path>
                                    </g>
                                    <g id="g2750" transform="translate(68.677829, 176.677014)">
                                        <path d="M0.804817911,37.2410793 C0.259956185,35.5215479 -3.28627274,16.3725876 15.0233347,0 C12.9440877,5.23388141 10.7980407,17.3791032 13.4136989,25.90107 C12.5416787,30.4638067 5.33191866,36.0668781 0.804817911,37.2410793" id="path2752" fill="#FFFFFF" sketch:type="MSShapeGroup"></path>
                                    </g>
                                    <g id="g2754" transform="translate(271.223636, 176.643498)">
                                        <path d="M14.2855179,37.2410793 C14.8305809,35.5215479 18.3768098,16.3725876 0.0672022956,0 C2.14624817,5.23388141 4.02408956,17.3456869 1.40843134,25.8674523 C2.28025035,30.4303904 9.75841718,36.0668781 14.2855179,37.2410793" id="path2756" fill="#FFFFFF" sketch:type="MSShapeGroup"></path>
                                    </g>
                                    <g id="g2758" transform="translate(314.117916, 130.813619)">
                                        <path d="M22.5349015,25.7668008 C22.6021038,22.0761092 18.5484372,6.34930206 0.0376252374,0.17614024 C2.22572393,2.86856962 8.21155715,10.7358986 9.35178293,20.0630779 C9.85479412,22.8140865 20.2504259,26.1355881 22.5349015,25.7668008" id="path2760" fill="#FFFFFF" sketch:type="MSShapeGroup"></path>
                                    </g>
                                    <g id="g2762" transform="translate(305.092788, 147.118971)">
                                        <path d="M22.1324926,33.0137135 C22.1996949,29.3232232 20.1208502,9.56189873 0.134605796,0.167685508 C2.32270449,2.86011489 7.84717584,12.917018 7.377967,24.9952059 C7.88097819,27.7462145 17.2367852,32.476838 22.1324926,33.0137135" id="path2764" fill="#FFFFFF" sketch:type="MSShapeGroup"></path>
                                    </g>
                                    <g id="g2766" transform="translate(288.527221, 163.156188)">
                                        <path d="M18.3096075,34.2215323 C18.6786165,32.3091525 21.2608748,12.7491312 0,0.100651566 C2.07924707,3.52280479 6.03613434,13.2356809 4.76170517,24.558982 C5.26471637,27.3099906 13.7825067,33.0473311 18.3096075,34.2215323" id="path2768" fill="#FFFFFF" sketch:type="MSShapeGroup"></path>
                                    </g>
                                    <g id="g2770" transform="translate(244.698246, 158.895305)">
                                        <path d="M4.42649851,26.7733164 C7.15463003,28.0189802 10.207908,28.1745875 11.4352553,27.7798321 C6.74035001,15.3660719 5.39891975,11.1890319 5.39891975,0.0503257828 C1.19777026,5.09659267 0.218910472,12.2060154 0.0670010911,16.9430806 C-0.0331987388,20.0640844 0.120521482,22.9980775 0.972421241,24.2403191 C1.63840806,25.2108015 3.118267,26.1758487 4.42649851,26.7733164" id="path2772" fill="#FFFFFF" sketch:type="MSShapeGroup"></path>
                                    </g>
                                    <g id="g2774" transform="translate(98.707698, 158.928822)">
                                        <path d="M7.04215672,26.7733164 C4.31402521,28.0189802 1.26074726,28.1745875 0.0333999433,27.7798321 C4.72830523,15.3660719 6.06973548,11.1888306 6.06973548,0.0503257828 C10.270885,5.09659267 11.2497448,12.2060154 11.4016541,16.9430806 C11.501854,20.0640844 11.3481338,22.9980775 10.496234,24.2403191 C9.83024717,25.2108015 8.35038824,26.1758487 7.04215672,26.7733164" id="path2776" fill="#FFFFFF" sketch:type="MSShapeGroup"></path>
                                    </g>
                                    <g id="g2778" transform="translate(19.416232, 133.665279)">
                                        <path d="M0,21.1368288 L1.50903358,21.0361772 C1.50903358,21.0361772 4.70234985,12.5230678 10.1608261,5.98876815 C12.2062709,3.54031817 14.5704235,1.49990963 17.2029829,0.100651566 C17.2029829,0.100651566 6.23733881,3.2208501 0,21.1368288" id="path2780" fill="#D69C05" sketch:type="MSShapeGroup"></path>
                                    </g>
                                    <g id="g2782" transform="translate(29.426155, 151.002511)">
                                        <path d="M0,27.3772258 L1.83599086,26.9997825 C1.83599086,26.9997825 2.3858827,24.3019179 3.60498063,20.4071049 C5.36209933,14.7931632 8.72804904,6.64562027 15.6772493,0.108904994 C15.6772493,0.108904994 4.24199401,6.31588574 0,27.3772258" id="path2784" fill="#D69C05" sketch:type="MSShapeGroup"></path>
                                    </g>
                                    <g id="g2786" transform="translate(49.043591, 167.333228)">
                                        <path d="M0,27.9811352 L1.60963582,27.2765743 C3.06836829,16.1042505 6.53149976,6.53671527 13.4807,0 C13.4807,0 1.86114142,8.20310259 0,27.9811352" id="path2788" fill="#D69C05" sketch:type="MSShapeGroup"></path>
                                    </g>
                                    <g id="g2790" transform="translate(70.421567, 182.179334)">
                                        <path d="M0.201204478,29.5915603 L1.84444145,28.6856962 C2.01204478,21.4891092 1.65993694,10.5684144 9.38960937,0.134269188 C9.38960937,0.134269188 -0.90542015,9.41092138 0.201204478,29.5915603" id="path2792" fill="#D69C05" sketch:type="MSShapeGroup"></path>
                                    </g>
                                    <g id="g2794" transform="translate(316.192837, 132.608438)">
                                        <path d="M11.4686552,19.3251006 L9.8087183,18.7211912 C9.8087183,18.7211912 6.18703769,4.73062358 0.0503011195,0.100651566 C0.0503011195,0.100651566 7.79667352,3.72410793 11.4686552,19.3251006" id="path2796" fill="#D69C05" sketch:type="MSShapeGroup"></path>
                                    </g>
                                    <g id="g2798" transform="translate(307.742249, 149.920507)">
                                        <path d="M8.24938359,23.7537695 L6.58944665,22.3949733 C6.58944665,22.3949733 6.13673657,6.44170019 0.150903358,0.0503257828 C0.150903358,0.0503257828 7.79667352,4.88160093 8.24938359,23.7537695" id="path2800" fill="#D69C05" sketch:type="MSShapeGroup"></path>
                                    </g>
                                    <g id="g2802" transform="translate(290.271060, 166.544723)">
                                        <path d="M6.63974777,23.1498601 L5.19771528,22.0426929 C4.25869398,15.6680266 4.92950971,5.8377908 0.134002182,0 C0.134002182,0 7.51156677,5.09961222 6.63974777,23.1498601" id="path2804" fill="#D69C05" sketch:type="MSShapeGroup"></path>
                                    </g>
                                    <g id="g2806" transform="translate(273.034476, 180.568909)">
                                        <path d="M3.21927165,24.3576789 L1.96174366,23.2505116 C2.17964811,18.1172818 3.88988617,7.9011479 0.117302211,0.100651566 C0.117302211,0.100651566 6.84095225,7.5991932 3.21927165,24.3576789" id="path2808" fill="#D69C05" sketch:type="MSShapeGroup"></path>
                                    </g>
                                    <g id="g2810" transform="translate(245.603666, 163.055536)">
                                        <path d="M1.60963582,18.7211912 L0.0672022956,16.7751938 C0.0672022956,16.7751938 0.872020207,5.16684747 3.28647394,0 C3.28647394,0 1.27442916,9.12567484 1.60963582,18.7211912" id="path2812" fill="#D69C05" sketch:type="MSShapeGroup"></path>
                                    </g>
                                    <g id="g2814" transform="translate(105.967759, 162.787098)">
                                        <path d="M1.8108403,18.9224943 L3.21927165,17.0437322 C3.21927165,17.0437322 2.88386378,6.10612788 0.0670010911,0 C0.0670010911,0 2.07904587,7.9850913 1.8108403,18.9224943" id="path2816" fill="#D69C05" sketch:type="MSShapeGroup"></path>
                                    </g>
                                </g>
                            </g>
                        </g>
                    </g>
                </g>
            </g>
        </g>
    </g>
</svg>