<svg width="512" height="512" viewBox="0 0 512 512" xmlns="http://www.w3.org/2000/svg" xmlns:xlink="http://www.w3.org/1999/xlink" xmlns:sketch="http://www.bohemiancoding.com/sketch/ns"><title>minnesota-wild</title><desc>Created with Sketch.</desc><defs><path id="a" d="M0 309.172h473.789v-309.172h-473.789v309.172z"/></defs><g transform="matrix(1 0 0 -1 19.067 411.586)" sketch:type="MSLayerGroup" fill="none"><mask id="b" sketch:name="path2420"><use xlink:href="#a"/></mask><g mask="url(#b)"><path d="M269.609 3.637l127.641 125.516-27.053.089 100.503 107.155s-23.391 6.981-31.015 8.276l16.066 12.761c-26.709 6.897-82.021 15.687-140.715 11.808 0 0-12.539 36.295-60.892 36.295-55.227 0-68.452-42.585-68.452-42.585s-66.297-13.795-126.953-53.149l13.095-9.914s-27.311-14.008-68.743-46.864c4.491-18.587 22.563-42.616 24.394-44.774 7.14-4.879 31.771-17.975 50.79-24.505 3.49.841 10.339 3.72 10.339 3.72 2.196-.897 12.492-3.675 15.336-4.042-2.025-12.221 6.989-19.121 6.989-19.121l-6.238-3.424s8.487-19.138 50.059-29.009c94.039 20.906 114.848-28.232 114.848-28.232" fill="#EEE3C6" sketch:type="MSShapeGroup"/><path d="M12.729 149.846c4.394-11.726 12.492-24.915 20.247-35.518 2.39-2.135 26.536-14.743 45.533-21.941 2.025.282 8.293 3.125 9.391 3.836 1.098 0 15.036-6.206 33.042-6.206 6.376 0 11.286.647 11.286 1.985 0 1.094-2.655 2.471-3.877 3.013-3.673 1.634-8.53 3.028-8.53 6.996 0 3.966 7.239 9.244 40.064 9.244 20.678 0 34.29-1.15 34.29-1.15v-2.329c-10.582 0-21.549-1.562-28.872-3.364-4.651-1.144-11.923-3.285-11.923-5.602 0-4.256 18.912-4.287 18.912-12.759 0-6.88-7.031-14.397-33.128-14.397-14.109 0-25.482 4.59-26.45 4.59-.97 0-1.164-.322-1.164-.645 0-.478.803-2.08 2.262-4.056 2.043-2.77 5.582-6.276 11.857-8.519l-8.431-4.786c9.562-9.776 32.739-16.497 37.543-17.845 0 0 79.545 20.832 116.443-24.276l100.997 104.933-23.908.132 95.891 109.092s-18.35 6.639-36.873 10.26l12.621 9.83s-63.758 13.317-115.58 9.114c0 0-9.692 36.489-54.97 36.489-43.854 0-57.983-40.347-57.983-40.347s-52.082-8.492-117.949-46.551l14.043-10.776s-30.273-14.107-74.784-48.447" fill="#015836" sketch:type="MSShapeGroup"/><path d="M63.26 121.526s8.744-2.715 32.04-1.216l26.72 16.434 20.461-6.639 6.225 8.727h-6.72l13.633 22.048 11.569-22.048h-5.234l3.487-7.628 14.605 2.649 6.075 7.762h-5.43l8.143 12.476h-6.332l12.858 21.984 11.179-22.499h-5.105l7.883-13.321h-6.139l12.104-21.873 11.717 16.809h-8.011l12.234 18.534h-7.756l17.751 30.864 15.421-30.864h-6.373l10.337-18.534h-7.237l10.166-22.413 17.405 28.106h-9.562l14.043 23.188h-8.788l19.127 38.276 19.73-40.345h-6.979l12.667-21.207h-8.703l9.995-20.688 15.767 24.223h-8.446l18.525 26.809h-9.993l29.723 40.864 15.94-28.277 32.996 40.817s-57.551 24.183-142.503 24.183c-112.78 0-176.709-39.654-176.709-39.654s74.01 25.839 155.298 25.839c59.32 0 94.558-13.513 94.558-13.513s-75.926.359-197.988-32.671c19.815 0 31.705-5.734 31.705-5.734s-49.54-8.836-118.896-38.535l8.874-13.144-8.056-9.786z" fill="#BF2B37" sketch:type="MSShapeGroup"/><path d="M220.597 205.517c7.562-6.53 17.415-10.479 28.186-10.479 15.888 0 29.768 8.589 37.264 21.376-18.251-2.35-40.223-5.806-65.451-10.897" fill="#EFB410" sketch:type="MSShapeGroup"/><path d="M205.946 243.606c-.218-1.76-.332-3.553-.332-5.371 0-2.03.142-4.025.414-5.977 15.044 1.632 30.897 2.651 47.037 2.651 14.31 0 27.214-.787 38.564-1.981.214 1.74.323 3.51.323 5.307 0 3.512-.42 6.925-1.209 10.194-5.302.192-10.726.295-16.269.295-25.372 0-48.273-2.008-68.528-5.118" fill="#EFB410" sketch:type="MSShapeGroup"/><path d="M286.591 259.097c-7.354 13.315-21.526 22.333-37.808 22.333-22.023 0-40.194-16.504-42.837-37.824 19.211 7.113 51.186 13.198 80.645 15.492" fill="#EFB410" sketch:type="MSShapeGroup"/><path d="M252.871 222.319c-18.288-.585-51.888-2.214-106.341-15.751l-.039-.006c-.641 4.225-1.209 7.529-1.209 7.529s-2.204-3.607-4.987-8.647c-13.777-4.959-30.875-12.19-42.206-18.262 6.956 2.422 20.754 6.985 38.923 12.111-1.879-3.652-3.745-7.55-5.191-11.151l9.478 8.535s6.526-3.774 6.87-3.644c-.161 2.267-.501 5.161-.892 8.074 29.29 7.886 66.938 16.691 105.595 21.211" fill="#fff" sketch:type="MSShapeGroup"/></g></g></svg>