<?xml version="1.0" encoding="UTF-8" standalone="no"?>
<svg width="512px" height="512px" viewBox="0 0 512 512" version="1.1" xmlns="http://www.w3.org/2000/svg" xmlns:xlink="http://www.w3.org/1999/xlink" xmlns:sketch="http://www.bohemiancoding.com/sketch/ns">
    <!-- Generator: Sketch 3.2.2 (9983) - http://www.bohemiancoding.com/sketch -->
    <title>new-york-islanders</title>
    <desc>Created with Sketch.</desc>
    <defs>
        <rect id="path-1" x="0" y="0" width="362.067022" height="349.836445"></rect>
        <rect id="path-3" x="0" y="0" width="362.067022" height="349.836445"></rect>
        <rect id="path-5" x="0" y="0" width="362.067022" height="349.836445"></rect>
        <rect id="path-7" x="0" y="0" width="362.067022" height="349.836445"></rect>
        <rect id="path-9" x="0" y="0" width="362.067022" height="349.836445"></rect>
        <rect id="path-11" x="0" y="0" width="362.067022" height="349.836445"></rect>
        <rect id="path-13" x="0" y="0" width="362.067022" height="349.836445"></rect>
        <rect id="path-15" x="0" y="0" width="362.067022" height="349.836445"></rect>
        <rect id="path-17" x="0" y="0" width="362.067022" height="349.836445"></rect>
        <rect id="path-19" x="0" y="0" width="362.067022" height="349.836445"></rect>
        <rect id="path-21" x="0" y="0" width="362.067022" height="349.836445"></rect>
        <rect id="path-23" x="0" y="0" width="362.067022" height="349.836445"></rect>
        <rect id="path-25" x="0" y="0" width="362.067022" height="349.836445"></rect>
        <rect id="path-27" x="0" y="0" width="362.067022" height="349.836445"></rect>
        <rect id="path-29" x="0" y="0" width="362.067022" height="349.836445"></rect>
        <rect id="path-31" x="0" y="0" width="362.067022" height="349.836445"></rect>
        <rect id="path-33" x="0" y="0" width="362.067022" height="349.836445"></rect>
        <rect id="path-35" x="0" y="0" width="362.067022" height="349.836445"></rect>
        <rect id="path-37" x="0" y="0" width="362.067022" height="349.836445"></rect>
        <rect id="path-39" x="0" y="0" width="362.067022" height="349.836445"></rect>
        <rect id="path-41" x="0" y="0" width="362.067022" height="349.836445"></rect>
        <rect id="path-43" x="0" y="0" width="362.067022" height="349.836445"></rect>
        <rect id="path-45" x="0" y="0" width="362.067022" height="349.836445"></rect>
        <rect id="path-47" x="0" y="0" width="362.067022" height="349.836445"></rect>
        <rect id="path-49" x="0" y="0" width="362.067022" height="349.836445"></rect>
        <rect id="path-51" x="0" y="0" width="362.067022" height="349.836445"></rect>
        <rect id="path-53" x="0" y="0" width="362.067022" height="349.836445"></rect>
        <rect id="path-55" x="0" y="0" width="362.067022" height="349.836445"></rect>
        <rect id="path-57" x="0" y="0" width="362.067022" height="349.836445"></rect>
        <rect id="path-59" x="0" y="0" width="362.067022" height="349.836445"></rect>
    </defs>
    <g id="NHL" stroke="none" stroke-width="1" fill="none" fill-rule="evenodd" sketch:type="MSPage">
        <g id="new-york-islanders" sketch:type="MSArtboardGroup">
            <g sketch:type="MSLayerGroup" transform="translate(73.000000, 81.000000)" id="g236">
                <g transform="translate(0.923807, 0.936563)">
                    <g id="g238">
                        <g id="path246-Clipped">
                            <mask id="mask-2" sketch:name="SVGID_1_" fill="white">
                                <use xlink:href="#path-1"></use>
                            </mask>
                            <g id="SVGID_1_"></g>
                            <path d="M181.029752,0.00377142857 C81.0489931,0.00377142857 0,78.3187429 0,174.922629 C0,271.525257 81.0489931,349.845257 181.029752,349.845257 C281.015531,349.845257 362.067034,271.525257 362.067034,174.922629 C362.067034,78.3187429 281.014276,0.00377142857 181.029752,0.00377142857 M181.029752,336.958286 C88.1595448,336.958286 12.8830897,264.411086 12.8830897,174.922629 C12.8830897,85.4341714 88.1595448,12.8869714 181.029752,12.8869714 C273.896193,12.8869714 349.176414,85.4329143 349.176414,174.922629 C349.175159,264.4136 273.896193,336.958286 181.029752,336.958286" id="path246" fill="#FFFFFF" sketch:type="MSShapeGroup" mask="url(#mask-2)"></path>
                        </g>
                    </g>
                    <g id="g248">
                        <g id="path256-Clipped">
                            <mask id="mask-4" sketch:name="SVGID_3_" fill="white">
                                <use xlink:href="#path-3"></use>
                            </mask>
                            <g id="SVGID_3_"></g>
                            <path d="M186.104414,225.574171 C185.163034,227.505143 183.320441,228.836457 181.185393,229.133143 L108.719269,239.121143 C108.077876,239.212914 107.487945,239.559886 107.101352,240.082857 C106.712248,240.589486 106.550331,241.257029 106.652,241.890629 L111.068952,270.936914 C111.171876,271.601943 111.548428,272.207886 112.115766,272.586286 C112.679338,272.963429 113.370938,273.085371 114.034924,272.934514 L121.222041,271.2072 L125.50971,254.468343 C125.656566,253.892571 126.227669,253.544343 126.808814,253.681371 L140.889338,257.138514 C141.316097,257.230286 141.633655,257.587314 141.695159,258.010971 L142.956607,266.030286 L152.000124,263.866743 L152.000124,260.2336 C152.000124,259.847657 152.163297,259.4768 152.449476,259.220343 C152.73691,258.961371 153.120993,258.840686 153.500055,258.885943 L164.727572,260.217257 C165.045131,260.247429 165.29491,260.420914 165.5108,260.640914 L187.072152,255.494171 C188.99131,255.040343 190.576593,253.737943 191.423834,251.951543 L204.797697,223.435771 L190.698345,216.2336 L186.104414,225.574171 L186.104414,225.574171 Z" id="path256" fill="#FFFFFF" sketch:type="MSShapeGroup" mask="url(#mask-4)"></path>
                        </g>
                    </g>
                    <g id="g258">
                        <g id="polygon266-Clipped">
                            <mask id="mask-6" sketch:name="SVGID_5_" fill="white">
                                <use xlink:href="#path-5"></use>
                            </mask>
                            <g id="SVGID_5_"></g>
                            <path d="M193.582731,210.362743 L192.427972,212.723657 L206.459545,219.891886 L207.577903,217.508343 L193.582731,210.362743 Z" id="polygon266" fill="#FFFFFF" sketch:type="MSShapeGroup" mask="url(#mask-6)"></path>
                        </g>
                    </g>
                    <g id="g268">
                        <g id="polygon276-Clipped">
                            <mask id="mask-8" sketch:name="SVGID_7_" fill="white">
                                <use xlink:href="#path-7"></use>
                            </mask>
                            <g id="SVGID_7_"></g>
                            <path d="M198.661159,200.0328 L198.192979,200.979429 L212.019959,208.032 L213.139572,205.657257 L199.356524,198.617257 L198.661159,200.0328 Z" id="polygon276" fill="#FFFFFF" sketch:type="MSShapeGroup" mask="url(#mask-8)"></path>
                        </g>
                    </g>
                    <g id="g278">
                        <g id="polygon286-Clipped">
                            <mask id="mask-10" sketch:name="SVGID_9_" fill="white">
                                <use xlink:href="#path-9"></use>
                            </mask>
                            <g id="SVGID_9_"></g>
                            <path d="M196.468372,204.490629 L195.314869,206.851543 L209.239752,213.965714 L210.35811,211.582171 L196.468372,204.490629 Z" id="polygon286" fill="#FFFFFF" sketch:type="MSShapeGroup" mask="url(#mask-10)"></path>
                        </g>
                    </g>
                    <g id="g288">
                        <g id="path296-Clipped">
                            <mask id="mask-12" sketch:name="SVGID_11_" fill="white">
                                <use xlink:href="#path-11"></use>
                            </mask>
                            <g id="SVGID_11_"></g>
                            <path d="M243.966607,107.849029 L210.418359,35.4514286 C210.02549,34.5915429 209.164441,34.0434286 208.220552,34.0434286 L149.985572,34.0434286 C148.641283,34.0434286 147.555559,35.1333714 147.555559,36.4772571 L147.555559,83.8853714 L121.921172,34.3036571 C106.646979,40.2411429 92.5589241,48.3886857 80.0950621,58.3666286 L80.0950621,146.580343 C80.0950621,147.9192 81.1757655,149.014171 82.5162897,149.014171 L115.585062,149.014171 C116.915545,149.014171 118.00629,147.920457 118.00629,146.580343 L118.00629,107.147543 L142.355379,147.833714 C142.7972,148.564114 143.586703,149.014171 144.43771,149.014171 L181.521779,149.014171 C182.859793,149.014171 183.951793,147.920457 183.951793,146.580343 L183.951793,70.0781714 L222.096483,152.359429 L217.533931,161.6296 L201.077366,195.098514 L214.79891,202.108343 L216.627697,198.2112 L224.95451,180.440229 L229.063945,171.689257 L237.526317,153.646743 L282.146441,58.5149714 C278.852869,55.8737143 275.445076,53.3757714 271.924317,50.9997714 L243.966607,107.849029 L243.966607,107.849029 Z" id="path296" fill="#FFFFFF" sketch:type="MSShapeGroup" mask="url(#mask-12)"></path>
                        </g>
                    </g>
                    <g id="g298">
                        <g id="path306-Clipped">
                            <mask id="mask-14" sketch:name="SVGID_13_" fill="white">
                                <use xlink:href="#path-13"></use>
                            </mask>
                            <g id="SVGID_13_"></g>
                            <path d="M234.05451,210.127657 C221.799007,210.127657 211.869338,213.495543 211.869338,217.642857 C211.869338,221.775086 221.800262,225.135429 234.05451,225.135429 C246.294952,225.135429 256.237172,221.775086 256.237172,217.642857 C256.237172,213.495543 246.294952,210.127657 234.05451,210.127657" id="path306" fill="#FFFFFF" sketch:type="MSShapeGroup" mask="url(#mask-14)"></path>
                        </g>
                    </g>
                    <g id="g308">
                        <g id="polygon316-Clipped">
                            <mask id="mask-16" sketch:name="SVGID_15_" fill="white">
                                <use xlink:href="#path-15"></use>
                            </mask>
                            <g id="SVGID_15_"></g>
                            <path d="M204.797697,223.4408 L206.459545,219.891886 L192.427972,212.723657 L190.69709,216.236114 L204.797697,223.4408 Z" id="polygon316" fill="#F47D30" sketch:type="MSShapeGroup" mask="url(#mask-16)"></path>
                        </g>
                    </g>
                    <g id="g318">
                        <g id="path326-Clipped">
                            <mask id="mask-18" sketch:name="SVGID_17_" fill="white">
                                <use xlink:href="#path-17"></use>
                            </mask>
                            <g id="SVGID_17_"></g>
                            <path d="M119.395766,209.1056 C125.221021,202.506857 133.483821,210.316229 140.408607,206.14 C145.763172,203.399429 150.32949,208.197943 156.069393,207.320457 C159.678014,207.260114 165.125462,203.264914 168.242055,208.062171 C170.871641,209.340686 174.570634,208.865486 176.807352,207.201029 C178.200593,202.1448 183.996979,204.104686 187.82651,202.939314 C190.349407,202.372343 195.292276,199.8304 198.662414,200.034057 L199.357779,198.618514 L213.139572,205.657257 L214.800166,202.115886 L201.087407,195.098514 L217.543972,161.627086 C207.803834,160.079543 195.715269,166.534971 187.213986,162.009257 C177.424897,161.706286 166.026676,162.349943 157.352179,157.752571 C151.718966,156.848686 145.685352,156.931657 140.561738,154.872457 C137.815421,160.026743 134.721421,153.1904 131.427848,154.188571 C129.443421,154.823429 127.790359,156.995771 128.189503,159.326514 C127.176579,164.666857 120.693614,161.544114 117.357366,163.790629 C111.237145,167.269143 107.840648,158.489257 101.9928,158.569714 C98.0063724,157.483543 93.2505241,157.971314 91.0364,162.046971 C87.5947172,162.920686 85.8374759,158.430171 81.9389103,159.894743 C79.2289931,158.210171 83.1426207,157.048571 82.147269,155.013257 C79.9180828,152.569371 75.7634621,150.794286 72.6230207,152.848457 C72.0481517,157.033486 76.5215862,160.642743 74.1606069,165.031429 C71.8259862,165.512914 71.9577793,162.111086 69.9909241,161.3128 C67.7454207,160.227886 67.6550483,162.970971 66.4538483,164.029486 C62.0833379,163.8296 62.9971034,158.948114 61.6289655,156.306857 C56.5517931,155.516114 52.4900552,158.630057 48.3040552,160.473029 C45.3719724,162.705714 47.291131,167.489143 44.7669793,169.827429 C42.8101655,168.354057 43.0109931,165.528 41.0767724,163.770514 C39.4362621,162.691886 37.4719172,161.908686 35.4435586,162.616457 C33.5695862,163.070286 33.0286069,164.629143 32.6357379,166.272229 C32.6821793,167.255314 33.67,168.030971 34.7406621,167.750629 C36.0021103,168.046057 36.9698483,169.525714 36.3811724,170.766514 C35.7297379,171.6528 35.3268276,173.434171 33.7729241,173.109829 C32.1073103,171.527086 29.7802207,169.309486 27.4343034,170.2712 C26.4439724,171.146171 27.4267724,172.326629 27.4267724,173.295886 C26.361131,176.8888 28.9919724,178.953029 30.932469,181.494971 C31.5901793,184.303429 31.8700828,188.404229 29.7212276,190.447086 C26.8255448,191.0216 26.1050759,194.223543 25.8176414,196.668686 C26.5092414,199.121371 29.1990759,198.930286 30.1818759,200.966857 C30.7103034,202.638857 28.8890483,203.902286 27.4041793,204.842629 C27.9790483,207.612114 28.6442897,210.351429 29.3760552,213.076914 C31.1483586,212.3792 33.1691862,211.712914 34.3289655,211.902743 C35.3042345,212.394286 35.9958345,213.280571 35.9958345,214.263657 C36.9359586,216.102857 38.9053241,217.948343 41.1382759,216.889829 C43.3749931,215.920571 45.4108828,212.826743 47.8245793,214.090171 L47.8245793,193.6704 L58.2625931,202.843771 L58.2625931,213.423886 C62.1385655,213.332114 66.5555172,213.726857 70.1289931,212.2824 C77.2232276,212.8104 85.6906207,214.764 91.8484966,210.708457 C97.3034759,209.729143 102.346759,207.884914 108.203393,207.898743 C112.198607,207.623429 115.68171,209.379657 119.395766,209.1056" id="path326" fill="#F47D30" sketch:type="MSShapeGroup" mask="url(#mask-18)"></path>
                        </g>
                    </g>
                    <g id="g328">
                        <g id="path336-Clipped">
                            <mask id="mask-20" sketch:name="SVGID_19_" fill="white">
                                <use xlink:href="#path-19"></use>
                            </mask>
                            <g id="SVGID_19_"></g>
                            <path d="M240.930345,164.986171 C244.843972,159.809257 254.862759,166.008229 256.1468,158.005257 C257.704469,153.836571 262.37371,155.3904 265.290731,153.332457 C266.174372,151.787429 264.62549,150.713829 264.322993,149.348571 C268.146248,145.169829 273.301241,142.272114 277.395614,137.996571 C280.327697,135.090057 284.90531,135.7488 288.698441,135.677143 C290.451917,134.617371 293.006193,133.050971 293.376469,131.015657 L292.884441,130.315429 C287.52611,129.532229 281.723448,130.492686 276.744179,132.126971 C271.168703,137.1744 265.018359,140.769829 258.338331,142.808914 C253.789586,148.601829 244.306759,151.314743 237.527572,153.650514 L229.0652,171.688 C233.350359,170.549029 239.026248,167.4992 240.930345,164.986171" id="path336" fill="#F47D30" sketch:type="MSShapeGroup" mask="url(#mask-20)"></path>
                        </g>
                    </g>
                    <g id="g338">
                        <g id="polygon346-Clipped">
                            <mask id="mask-22" sketch:name="SVGID_21_" fill="white">
                                <use xlink:href="#path-21"></use>
                            </mask>
                            <g id="SVGID_21_"></g>
                            <path d="M210.35811,211.573371 L212.019959,208.032 L198.192979,200.979429 L196.477159,204.490629 L210.35811,211.573371 Z" id="polygon346" fill="#F47D30" sketch:type="MSShapeGroup" mask="url(#mask-22)"></path>
                        </g>
                    </g>
                    <g id="g348">
                        <g id="polygon356-Clipped">
                            <mask id="mask-24" sketch:name="SVGID_23_" fill="white">
                                <use xlink:href="#path-23"></use>
                            </mask>
                            <g id="SVGID_23_"></g>
                            <path d="M195.314869,206.844 L193.582731,210.362743 L207.577903,217.508343 L209.239752,213.965714 L195.314869,206.844 Z" id="polygon356" fill="#F47D30" sketch:type="MSShapeGroup" mask="url(#mask-24)"></path>
                        </g>
                    </g>
                    <g id="g358">
                        <g id="path366-Clipped">
                            <mask id="mask-26" sketch:name="SVGID_25_" fill="white">
                                <use xlink:href="#path-25"></use>
                            </mask>
                            <g id="SVGID_25_"></g>
                            <path d="M181.029752,12.892 C88.1595448,12.892 12.8830897,85.4329143 12.8830897,174.927657 C12.8830897,264.412343 88.1595448,336.958286 181.029752,336.958286 C273.896193,336.958286 349.176414,264.411086 349.176414,174.927657 C349.177669,85.4329143 273.896193,12.892 181.029752,12.892 M181.029752,326.575543 C93.8718345,326.575543 23.2319862,258.683543 23.2319862,174.927657 C23.2319862,128.063886 45.3506345,86.1872 80.0900414,58.3678857 C92.557669,48.3861714 106.653255,40.2461714 121.927448,34.3061714 C140.186441,27.2158857 160.127366,23.2684571 181.029752,23.2684571 C214.893048,23.2684571 246.225917,33.5544 271.924317,50.9972571 C275.446331,53.3782857 278.846593,55.8712 282.140166,58.5162286 C312.38731,82.8092571 332.992221,117.760343 337.745559,157.374171 L334.381697,158.5056 C332.387228,166.005714 323.772979,161.032457 320.124193,166.364 C315.483821,166.625486 310.422966,167.029029 307.981655,171.710629 C306.500552,172.168229 304.370524,172.168229 303.795655,170.330286 C304.793517,166.030857 297.780869,164.547429 301.015448,159.968914 C300.820897,158.024114 298.468703,157.831771 296.996386,158.402514 C293.913683,159.550286 293.671434,162.882971 293.309945,165.588343 C289.085034,166.364 288.731076,158.969486 284.150952,160.7144 C279.467903,165.182286 273.542234,167.230171 266.810745,166.045943 C254.862759,165.1232 250.920262,180.704229 240.705669,183.982857 C236.322607,184.664229 229.732952,182.136114 224.958276,180.438971 L216.625186,198.208686 L221.483959,196.998057 C224.709752,196.227429 227.264028,194.076457 230.182303,192.549029 C234.913048,196.157029 235.703807,189.218857 239.528317,188.840457 C241.959586,188.281029 243.992966,190.429486 245.543103,192.185714 C251.285517,194.637143 258.215324,193.002857 262.908414,189.127086 C267.925338,186.978629 274.339269,187.8712 279.431503,185.661143 C282.839297,183.404571 286.141655,180.702971 290.955241,181.4824 C305.235338,176.566971 323.67131,170.497486 338.489876,165.2992 C338.700745,168.4848 338.828772,171.686743 338.828772,174.925143 C338.823752,258.683543 268.185159,326.575543 181.029752,326.575543" id="path366" fill="#F47D30" sketch:type="MSShapeGroup" mask="url(#mask-26)"></path>
                        </g>
                    </g>
                    <g id="g368">
                        <g id="path376-Clipped">
                            <mask id="mask-28" sketch:name="SVGID_27_" fill="white">
                                <use xlink:href="#path-27"></use>
                            </mask>
                            <g id="SVGID_27_"></g>
                            <path d="M86.5278207,232.415543 L71.4619862,218.824571 C65.6279448,213.570971 61.5586759,218.1872 61.5586759,221.556343 L61.5586759,235.594857 C61.5586759,238.2952 62.4624,239.884229 63.6774069,241.474514 L77.3161103,259.310857 C78.0817655,260.302743 78.3779862,261.300914 78.3779862,262.519086 L78.3779862,264.495314 C78.3779862,266.0856 76.9759586,265.939771 75.8889793,264.956686 L72.938069,262.437371 C71.8874897,261.626514 71.9941793,259.954514 71.9941793,258.5088 L71.9941793,256.708571 C71.9941793,255.731771 70.9661931,254.013257 69.9306759,253.1672 L63.1113241,246.930514 C62.0833379,245.932343 61.5586759,246.765829 61.5586759,249.428457 L61.5586759,257.570971 C61.5586759,259.690514 62.9569379,263.9736 66.1375448,266.848686 L81.7443586,280.917371 C85.5337241,284.299086 88.8097241,281.017943 88.8097241,273.190971 L88.8097241,264.216229 C88.8097241,259.765943 86.8265517,255.2704 84.5057379,252.229371 L73.025931,237.2656 C73.025931,237.2656 71.9941793,235.896571 71.9941793,234.149143 L71.9941793,232.596571 C71.9941793,232.596571 72.3983448,230.342514 74.1919862,231.9768 L77.1165379,234.610514 C77.8759172,235.314514 78.3779862,236.373029 78.3779862,237.636457 L78.3779862,239.756 C78.3779862,240.981714 78.6955448,241.904457 79.854069,242.964229 L85.3479586,247.9136 C87.6712828,250.002971 88.808469,248.489371 88.808469,246.665257 L88.808469,238.228571 C88.808469,235.124686 87.4679448,233.2616 86.5278207,232.415543" id="path376" fill="#F47D30" sketch:type="MSShapeGroup" mask="url(#mask-28)"></path>
                        </g>
                    </g>
                    <g id="g378">
                        <g id="path386-Clipped">
                            <mask id="mask-30" sketch:name="SVGID_29_" fill="white">
                                <use xlink:href="#path-29"></use>
                            </mask>
                            <g id="SVGID_29_"></g>
                            <path d="M111.987738,290.589829 L103.724938,285.684457 L103.724938,244.417486 C103.724938,243.948571 103.475159,243.502286 103.059697,243.2672 L95.3228138,238.666057 C94.9035862,238.423429 94.392731,238.408343 93.9672276,238.658514 C93.5505103,238.8936 93.2944552,239.339886 93.2944552,239.816343 L93.2944552,288.637486 C93.2944552,289.113943 93.5329379,289.558971 93.9521655,289.795314 L110.609559,299.7016 C111.028786,299.944229 111.545917,299.950514 111.965145,299.709143 C112.388138,299.466514 112.645448,299.020229 112.645448,298.543771 L112.645448,291.7464 C112.645448,291.2712 112.388138,290.838743 111.987738,290.589829" id="path386" fill="#F47D30" sketch:type="MSShapeGroup" mask="url(#mask-30)"></path>
                        </g>
                    </g>
                    <g id="g388">
                        <g id="path396-Clipped">
                            <mask id="mask-32" sketch:name="SVGID_31_" fill="white">
                                <use xlink:href="#path-31"></use>
                            </mask>
                            <g id="SVGID_31_"></g>
                            <path d="M142.962883,266.031543 L141.693903,258.009714 C141.633655,257.587314 141.316097,257.236571 140.889338,257.130971 L126.807559,253.681371 C126.226414,253.544343 125.65531,253.885029 125.508455,254.4608 L121.219531,271.208457 L113.800207,300.206971 C113.652097,300.758857 113.962124,301.328343 114.5144,301.509371 L122.807324,304.203429 C123.094759,304.2864 123.404786,304.263771 123.665862,304.128 C123.921917,303.977143 124.107683,303.734514 124.188014,303.446629 L126.329338,294.963429 L137.678607,298.6632 L139.319117,308.970514 C139.3756,309.364 139.663034,309.695886 140.048372,309.819086 L148.722869,312.650171 C149.078083,312.770857 149.469697,312.692914 149.757131,312.450286 C150.044566,312.193829 150.176359,311.833029 150.123641,311.468457 L142.962883,266.031543 L142.962883,266.031543 Z M128.632579,285.821486 L132.942841,268.802286 L136.021779,288.237714 L128.632579,285.821486 L128.632579,285.821486 Z" id="path396" fill="#F47D30" sketch:type="MSShapeGroup" mask="url(#mask-32)"></path>
                        </g>
                    </g>
                    <g id="g398">
                        <g id="path406-Clipped">
                            <mask id="mask-34" sketch:name="SVGID_33_" fill="white">
                                <use xlink:href="#path-33"></use>
                            </mask>
                            <g id="SVGID_33_"></g>
                            <path d="M189.291297,263.126286 L181.554414,262.209829 C181.169076,262.164571 180.795034,262.291543 180.50509,262.535429 C180.210124,262.793143 180.048207,263.164 180.048207,263.548686 L180.048207,290.633829 L165.786938,260.967771 C165.717903,260.839543 165.608703,260.749029 165.5108,260.642171 C165.299931,260.429714 165.045131,260.248686 164.727572,260.221029 L153.507586,258.894743 C153.122248,258.841943 152.733145,258.962629 152.450731,259.2216 C152.163297,259.478057 152.001379,259.848914 152.001379,260.234857 L152.001379,263.868 L152.001379,311.947429 C152.001379,312.618743 152.497172,313.203314 153.159903,313.285029 L160.905572,314.3448 C161.29091,314.405143 161.678759,314.2832 161.967448,314.026743 C162.258648,313.777829 162.428097,313.406971 162.428097,313.013486 L162.428097,281.612571 L179.311421,314.571086 C179.553669,315.056343 180.055738,315.342971 180.581655,315.315314 L189.217241,314.791086 C189.928924,314.754629 190.486221,314.154971 190.486221,313.453486 L190.486221,264.4664 C190.486221,263.777486 189.9716,263.200457 189.291297,263.126286" id="path406" fill="#F47D30" sketch:type="MSShapeGroup" mask="url(#mask-34)"></path>
                        </g>
                    </g>
                    <g id="g408">
                        <g id="path416-Clipped">
                            <mask id="mask-36" sketch:name="SVGID_35_" fill="white">
                                <use xlink:href="#path-35"></use>
                            </mask>
                            <g id="SVGID_35_"></g>
                            <path d="M219.122979,258.274971 L197.475021,262.595771 C196.841159,262.725257 196.386786,263.277143 196.386786,263.928343 L196.386786,312.664 C196.386786,313.058743 196.576317,313.428343 196.878814,313.694857 C197.182566,313.952571 197.589241,314.058171 197.968303,313.982743 L219.122979,310.205029 C229.550952,308.338171 229.550952,302.054971 229.550952,300.707314 L229.550952,262.461257 C229.550952,262.46 229.550952,256.195657 219.122979,258.274971 L219.122979,258.274971 Z M219.122979,296.659314 C219.122979,296.659314 219.122979,301.254171 215.057476,301.978286 L206.821034,303.462971 L206.821034,270.677943 L214.58051,269.117829 C219.121724,268.218971 219.121724,272.446743 219.121724,272.446743 L219.121724,296.659314 L219.122979,296.659314 Z" id="path416" fill="#F47D30" sketch:type="MSShapeGroup" mask="url(#mask-36)"></path>
                        </g>
                    </g>
                    <g id="g418">
                        <g id="path426-Clipped">
                            <mask id="mask-38" sketch:name="SVGID_37_" fill="white">
                                <use xlink:href="#path-37"></use>
                            </mask>
                            <g id="SVGID_37_"></g>
                            <path d="M256.373986,243.692114 C256.063959,243.494743 255.669834,243.473371 255.329683,243.631771 L235.820538,253.204914 C235.451517,253.379657 235.2168,253.7656 235.2168,254.166629 L235.2168,303.259314 C235.2168,303.630171 235.406331,303.9784 235.708828,304.166971 C236.02011,304.373143 236.404193,304.384457 236.735559,304.2424 L256.25349,295.448686 C256.638828,295.2752 256.886097,294.888 256.886097,294.464343 L256.886097,287.523657 C256.886097,287.160343 256.697821,286.828457 256.387793,286.6336 C256.079021,286.421143 255.701214,286.390971 255.367338,286.541829 L247.168552,290.242857 C246.835931,290.387429 246.458124,290.362286 246.13931,290.158629 C245.838069,289.962514 245.649793,289.620571 245.649793,289.259771 L245.649793,279.973257 C245.649793,279.534514 245.898317,279.158629 246.276124,278.988914 L256.249724,274.487086 C256.635062,274.3136 256.884841,273.9352 256.884841,273.507771 L256.884841,266.531886 C256.884841,266.154743 256.69531,265.8128 256.371476,265.6104 C256.061448,265.420571 255.667324,265.396686 255.327172,265.563886 L247.196166,269.551543 C246.8648,269.712457 246.471931,269.687314 246.154372,269.498743 C245.836814,269.293829 245.648538,268.9544 245.648538,268.582286 L245.648538,258.652114 C245.648538,258.246057 245.88451,257.858857 246.246,257.685371 L256.281103,252.772457 C256.650124,252.582629 256.883586,252.211771 256.883586,251.8032 L256.883586,244.599771 C256.887352,244.2352 256.699076,243.888229 256.373986,243.692114" id="path426" fill="#F47D30" sketch:type="MSShapeGroup" mask="url(#mask-38)"></path>
                        </g>
                    </g>
                    <g id="g428">
                        <g id="path436-Clipped">
                            <mask id="mask-40" sketch:name="SVGID_39_" fill="white">
                                <use xlink:href="#path-39"></use>
                            </mask>
                            <g id="SVGID_39_"></g>
                            <path d="M279.932317,259.666629 C279.932317,259.666629 286.037476,255.104457 286.037476,246.801029 L286.037476,233.944229 C286.037476,227.117943 281.677007,226.481829 276.7128,229.9176 L260.436979,241.164 C260.143269,241.360114 259.9688,241.692 259.9688,242.056571 L259.9688,290.587314 C259.9688,290.983314 260.188455,291.344114 260.544924,291.538971 C260.906414,291.731314 261.329407,291.714971 261.660772,291.472343 L269.943655,285.849143 C270.23109,285.645486 270.411834,285.312343 270.411834,284.964114 L270.411834,266.240229 L272.120124,265.061029 L281.202552,276.956114 C281.550234,277.4112 282.185352,277.5168 282.668593,277.198743 L288.72731,273.067771 C288.969559,272.900571 289.136497,272.644114 289.180428,272.356229 C289.225614,272.052 289.150303,271.750286 288.969559,271.521486 L279.932317,259.666629 L279.932317,259.666629 Z M276.7128,248.519543 C276.7128,250.284571 275.686069,252.334971 274.430897,253.197371 L272.097531,254.817829 C271.76491,255.045371 271.341917,255.075543 270.986703,254.893257 C270.622703,254.697143 270.411834,254.335086 270.411834,253.924 L270.411834,245.297486 C270.411834,244.949257 270.577517,244.616114 270.881269,244.418743 L274.274,242.072914 C275.627076,241.135086 276.7128,242.042743 276.7128,243.493486 L276.7128,248.519543 L276.7128,248.519543 Z" id="path436" fill="#F47D30" sketch:type="MSShapeGroup" mask="url(#mask-40)"></path>
                        </g>
                    </g>
                    <g id="g438">
                        <g id="path446-Clipped">
                            <mask id="mask-42" sketch:name="SVGID_41_" fill="white">
                                <use xlink:href="#path-41"></use>
                            </mask>
                            <g id="SVGID_41_"></g>
                            <path d="M302.721228,203.559086 L292.217945,215.176343 C289.526855,218.203543 288.90931,221.426857 288.90931,225.136686 L288.90931,230.078514 C288.90931,233.5432 289.612207,236.639543 294.091917,237.577371 L299.835586,238.878514 C301.693241,239.288343 302.721228,239.802514 302.721228,241.150171 L302.721228,242.406057 C302.721228,244.433829 302.253048,244.941714 301.392,245.805371 C300.544759,246.645143 298.580414,248.674171 298.580414,246.138514 L298.580414,243.98 C298.580414,242.179771 297.8248,242.179771 296.682593,243.3288 L290.056538,250.156343 C289.272055,250.880457 288.908055,251.727771 288.908055,253.120686 L288.908055,257.480457 C288.908055,265.307429 292.948455,266.834857 297.069186,261.401486 L307.010152,248.263086 C311.089462,242.867429 311.089462,237.456686 311.089462,234.355314 C311.089462,230.631657 307.917641,229.102971 305.619421,228.701943 L300.769434,227.862171 C299.038552,227.544114 298.579159,226.347314 298.579159,224.684114 L298.579159,222.018971 C298.579159,221.216914 298.579159,219.106171 299.991228,217.630286 L300.966497,216.630857 C301.986952,215.587429 302.719972,215.587429 302.719972,217.476914 L302.719972,221.299886 C302.719972,222.079314 303.159283,222.549486 303.859669,221.822857 L309.934703,215.525829 C310.970221,214.459771 311.090717,212.8016 311.090717,211.6752 L311.090717,205.2952 C311.094483,198.678857 306.5608,199.314971 302.721228,203.559086" id="path446" fill="#F47D30" sketch:type="MSShapeGroup" mask="url(#mask-42)"></path>
                        </g>
                    </g>
                    <g id="g448">
                        <g id="path456-Clipped">
                            <mask id="mask-44" sketch:name="SVGID_43_" fill="white">
                                <use xlink:href="#path-43"></use>
                            </mask>
                            <g id="SVGID_43_"></g>
                            <path d="M47.8258345,214.078857 L47.8258345,242.033943 L55.2225655,252.681943 C57.0726897,255.347086 58.2638483,254.703429 58.2638483,252.402857 L58.2638483,213.420114 C54.9288552,214.320229 51.0076966,213.224 47.8258345,214.078857" id="path456" fill="#F47D30" sketch:type="MSShapeGroup" mask="url(#mask-44)"></path>
                        </g>
                    </g>
                    <g id="g458">
                        <g id="path466-Clipped">
                            <mask id="mask-46" sketch:name="SVGID_45_" fill="white">
                                <use xlink:href="#path-45"></use>
                            </mask>
                            <g id="SVGID_45_"></g>
                            <path d="M256.237172,229.956571 L256.237172,217.635314 C256.237172,221.782629 246.294952,225.135429 234.05451,225.135429 C221.799007,225.135429 211.869338,221.782629 211.869338,217.635314 L211.869338,229.956571 C211.869338,234.103886 221.800262,237.456686 234.05451,237.456686 C246.294952,237.456686 256.237172,234.103886 256.237172,229.956571" id="path466" fill="#F47D30" sketch:type="MSShapeGroup" mask="url(#mask-46)"></path>
                        </g>
                    </g>
                    <g id="g488">
                        <g id="path496-Clipped">
                            <mask id="mask-48" sketch:name="SVGID_51_" fill="white">
                                <use xlink:href="#path-47"></use>
                            </mask>
                            <g id="SVGID_51_"></g>
                            <path d="M58.2600828,213.421371 L58.2600828,202.841257 L47.8258345,193.667886 L47.8258345,214.078857 C51.0102069,213.224 54.9363862,214.320229 58.2600828,213.421371" id="path496" fill="#00539B" sketch:type="MSShapeGroup" mask="url(#mask-48)"></path>
                        </g>
                    </g>
                    <g id="g498">
                        <g id="path506-Clipped">
                            <mask id="mask-50" sketch:name="SVGID_53_" fill="white">
                                <use xlink:href="#path-49"></use>
                            </mask>
                            <g id="SVGID_53_"></g>
                            <path d="M338.477324,165.300457 C323.6688,170.507543 305.231572,176.575771 290.950221,181.483657 C286.136634,180.704229 282.834276,183.405829 279.427738,185.661143 C274.335503,187.8712 267.919062,186.978629 262.902138,189.128343 C258.209048,193.002857 251.280497,194.637143 245.539338,192.185714 C243.990455,190.421943 241.957076,188.282286 239.523297,188.840457 C235.700041,189.220114 234.908028,196.158286 230.186069,192.549029 C227.260262,194.077714 224.714772,196.227429 221.480193,196.999314 L216.621421,198.209943 L214.801421,202.114629 L213.139572,205.656 L212.021214,208.0408 L210.359366,211.582171 L209.241007,213.965714 L207.570372,217.5096 L206.459545,219.884343 L204.796441,223.442057 L191.422579,251.956571 C190.575338,253.744229 188.974993,255.045371 187.070897,255.4992 L165.502014,260.645943 C165.611214,260.750286 165.720414,260.842057 165.781917,260.962743 L180.050717,290.643886 L180.050717,263.5512 C180.050717,263.171543 180.212634,262.793143 180.503834,262.537943 C180.791269,262.285257 181.172841,262.158286 181.549393,262.203543 L189.290041,263.126286 C189.970345,263.200457 190.48371,263.777486 190.48371,264.4576 L190.48371,313.444686 C190.48371,314.163771 189.925159,314.753371 189.205945,314.801143 L180.581655,315.307771 C180.049462,315.344229 179.549903,315.051314 179.305145,314.572343 L162.428097,281.607543 L162.428097,313.013486 C162.428097,313.399429 162.257393,313.770286 161.962428,314.026743 C161.671228,314.2832 161.283379,314.405143 160.898041,314.352343 L153.159903,313.292571 C152.494662,313.194514 151.992593,312.617486 151.992593,311.953714 L151.992593,263.868 L142.951586,266.031543 L150.117366,311.463429 C150.170083,311.826743 150.03829,312.211429 149.754621,312.445257 C149.459655,312.694171 149.070552,312.763314 148.715338,312.657714 L140.040841,309.827886 C139.655503,309.699657 139.368069,309.365257 139.309076,308.973029 L137.677352,298.665714 L126.324317,294.965943 L124.182993,303.440343 C124.107683,303.728229 123.919407,303.9784 123.658331,304.129257 C123.402276,304.263771 123.092248,304.293943 122.804814,304.204686 L114.505614,301.503086 C113.96589,301.3296 113.655862,300.767657 113.795186,300.206971 L121.222041,271.208457 L114.024883,272.935771 C113.368428,273.086629 112.671807,272.964686 112.11451,272.587543 C111.550938,272.209143 111.170621,271.6032 111.071462,270.938171 L106.652,241.891886 C106.552841,241.257029 106.716014,240.590743 107.101352,240.084114 C107.48669,239.561143 108.075366,239.215429 108.718014,239.1224 L181.187903,229.1344 C183.321697,228.838971 185.154248,227.5064 186.101903,225.575429 L190.704621,216.237371 L192.426717,212.724914 L193.590262,210.364 L195.313614,206.845257 L196.468372,204.491886 L198.198,200.980686 L198.659903,200.0416 C195.28851,199.8304 190.331834,202.372343 187.825255,202.940571 C183.993214,204.097143 178.198083,202.146057 176.804841,207.201029 C174.563103,208.864229 170.872897,209.341943 168.239545,208.063429 C165.122952,203.264914 159.674248,207.260114 156.070648,207.321714 C150.328234,208.191657 145.764428,203.400686 140.409862,206.141257 C133.485076,210.317486 125.21851,202.508114 119.393255,209.099314 C115.680455,209.3872 112.192331,207.624686 108.199628,207.896229 C102.351779,207.879886 97.3034759,209.726629 91.8484966,210.703429 C85.6893655,214.766514 77.2269931,212.800343 70.1239724,212.277371 C66.5567724,213.723086 62.1297793,213.322057 58.2613379,213.420114 L58.2613379,252.4016 C58.2613379,254.710971 57.0714345,255.345829 55.2200552,252.6744 L47.8233241,242.0352 L47.8233241,214.088914 C45.4083724,212.833029 43.3762483,215.919314 41.139531,216.879771 C38.9028138,217.947086 36.938469,216.1016 35.9870483,214.2624 C35.9870483,213.279314 35.3067448,212.408114 34.332731,211.892686 C33.167931,211.7192 31.1433379,212.385486 29.3798207,213.075657 C28.6355034,210.350171 27.9777931,207.610857 27.4066897,204.841371 C28.8928138,203.909829 30.7015172,202.645143 30.183131,200.9656 C29.1928,198.922743 26.506731,199.120114 25.8126207,196.667429 C26.1075862,194.222286 26.8180138,191.020343 29.7187172,190.445829 C31.8688276,188.410514 31.5926897,184.316 30.9236828,181.486171 C28.981931,178.948 26.3598759,176.8888 27.4204966,173.290857 C27.4204966,172.329143 26.4376966,171.152457 27.4355586,170.2712 C29.7777103,169.309486 32.1085655,171.532114 33.7641379,173.1048 C35.3280828,173.4304 35.7284828,171.647771 36.3786621,170.774057 C36.9685931,169.525714 35.9933241,168.0536 34.7381517,167.750629 C33.6725103,168.029714 32.6721379,167.254057 32.6332276,166.278514 C33.0198207,164.635429 33.5708414,163.070286 35.4410483,162.612686 C37.4618759,161.907429 39.4337517,162.691886 41.0742621,163.773029 C43.0084828,165.524229 42.8089103,168.355314 44.7657241,169.827429 C47.2898759,167.491657 45.3694621,162.705714 48.3015448,160.474286 C52.4800138,158.631314 56.5492828,155.512343 61.6264552,156.304343 C62.9945931,158.956914 62.0758069,163.8384 66.4551034,164.030743 C67.6525379,162.9672 67.7466759,160.224114 69.9921793,161.310286 C71.9565241,162.108571 71.8234759,165.511657 74.1618621,165.030171 C76.5128,160.6528 72.043131,157.034743 72.6205103,152.849714 C75.7571862,150.795543 79.9155724,152.570629 82.1447586,155.010743 C83.1413655,157.049829 79.2277379,158.211429 81.9364,159.890971 C85.8349655,158.4264 87.5846759,162.929486 91.0263586,162.048229 C93.2417379,157.9688 98.0088828,157.481029 101.982759,158.5672 C107.843159,158.491771 111.239655,167.2792 117.352345,163.791886 C120.692359,161.552914 127.171559,164.666857 128.184483,159.327771 C127.787848,156.993257 129.445931,154.832229 131.425338,154.197371 C134.712634,153.191657 137.8104,160.024229 140.564248,154.869943 C145.676566,156.932914 151.721476,156.846171 157.353434,157.752571 C166.0204,162.349943 177.422386,161.707543 187.20269,162.005486 C195.711503,166.5312 207.800069,160.075771 217.533931,161.627086 L222.088952,152.359429 L183.945517,70.0744 L183.945517,146.585371 C183.945517,147.924229 182.862303,149.0104 181.52429,149.0104 L144.431434,149.0104 C143.577917,149.0104 142.787159,148.560343 142.35789,147.833714 L118.00629,107.156343 L118.00629,146.584114 C118.00629,147.924229 116.921821,149.0104 115.585062,149.0104 L82.5238207,149.0104 C81.1757655,149.0104 80.0912966,147.924229 80.0912966,146.584114 L80.0912966,58.3628571 C45.3518897,86.1859429 23.2332414,128.062629 23.2332414,174.922629 C23.2332414,258.676 93.8730897,326.575543 181.036028,326.575543 C268.178883,326.575543 338.826262,258.676 338.826262,174.922629 C338.823752,171.691771 338.688193,168.486057 338.477324,165.300457 L338.477324,165.300457 Z M88.8122345,246.674057 C88.8122345,248.489371 87.6712828,250.010514 85.3441931,247.908571 L79.8515586,242.965486 C78.6930345,241.906971 78.3754759,240.974171 78.3754759,239.749714 L78.3754759,237.637714 C78.3754759,236.366743 77.8734069,235.314514 77.1203034,234.602971 L74.1957517,231.968 C72.3945793,230.347543 71.9904138,232.596571 71.9904138,232.596571 L71.9904138,234.140343 C71.9904138,235.902857 73.0209103,237.273143 73.0209103,237.273143 L84.5019724,252.228114 C86.8290621,255.269143 88.8134897,259.765943 88.8134897,264.214971 L88.8134897,273.189714 C88.8134897,281.007886 85.5299586,284.305371 81.7405931,280.924914 L66.1413103,266.841143 C62.9519172,263.9648 61.5586759,259.690514 61.5586759,257.563429 L61.5586759,249.425943 C61.5586759,246.763314 62.0808276,245.938629 63.1163448,246.930514 L69.9231448,253.164686 C70.9624276,254.004457 71.9891586,255.7368 71.9891586,256.707314 L71.9891586,258.507543 C71.9891586,259.959543 71.89,261.6328 72.9405793,262.434857 L75.8877241,264.955429 C76.9709379,265.938514 78.3729655,266.091886 78.3729655,264.486514 L78.3729655,262.517829 C78.3729655,261.308457 78.085531,260.310286 77.3110897,259.3096 L63.6799172,241.465714 C62.4636552,239.890514 61.5561655,238.301486 61.5561655,235.599886 L61.5561655,221.560114 C61.5561655,218.1784 65.621669,213.568457 71.4544552,218.830857 L86.5253103,232.413029 C87.4629241,233.2616 88.8109793,235.123429 88.8109793,238.227314 L88.8109793,246.674057 L88.8122345,246.674057 Z M112.640428,298.537486 C112.640428,299.029029 112.386883,299.466514 111.960124,299.709143 C111.544662,299.951771 111.023766,299.951771 110.608303,299.695314 L93.9471448,289.805371 C93.5392138,289.553943 93.2894345,289.113943 93.2894345,288.645029 L93.2894345,239.8264 C93.2894345,239.3336 93.5467448,238.894857 93.9659724,238.652229 C94.3889655,238.417143 94.8985655,238.417143 95.3253241,238.666057 L103.063462,243.259657 C103.475159,243.509829 103.721172,243.947314 103.721172,244.417486 L103.721172,285.6832 L111.982717,290.597371 C112.394414,290.832457 112.639172,291.278743 112.639172,291.7552 L112.640428,298.537486 L112.640428,298.537486 Z M229.550952,300.708571 C229.550952,302.047429 229.550952,308.336914 219.116703,310.198743 L197.967048,313.991543 C197.580455,314.050629 197.18131,313.952571 196.870028,313.696114 C196.567531,313.4296 196.394317,313.052457 196.394317,312.658971 L196.394317,263.922057 C196.394317,263.270857 196.841159,262.718971 197.476276,262.597029 L219.116703,258.282514 C229.550952,256.201943 229.550952,262.461257 229.550952,262.461257 L229.550952,300.708571 L229.550952,300.708571 Z M211.868083,229.965371 L211.868083,217.642857 C211.868083,213.495543 221.799007,210.127657 234.053255,210.127657 C246.293697,210.127657 256.229641,213.495543 256.229641,217.642857 L256.229641,229.965371 C256.229641,234.111429 246.293697,237.462971 234.053255,237.462971 C221.799007,237.462971 211.868083,234.110171 211.868083,229.965371 L211.868083,229.965371 Z M256.887352,251.804457 C256.887352,252.213029 256.645103,252.590171 256.276083,252.773714 L246.249766,257.692914 C245.880745,257.8664 245.66109,258.237257 245.66109,258.660914 L245.66109,268.573486 C245.66109,268.953143 245.841834,269.301371 246.158138,269.497486 C246.475697,269.694857 246.868566,269.717486 247.199931,269.542743 L255.330938,265.561371 C255.664814,265.396686 256.056428,265.410514 256.375241,265.616686 C256.69029,265.819086 256.888607,266.161029 256.888607,266.531886 L256.888607,273.507771 C256.888607,273.931429 256.646359,274.319886 256.245959,274.493371 L246.288676,278.9864 C245.902083,279.154857 245.66109,279.5408 245.66109,279.970743 L245.66109,289.266057 C245.66109,289.611771 245.841834,289.961257 246.141821,290.158629 C246.453103,290.354743 246.838441,290.393714 247.171062,290.234057 L255.362317,286.540571 C255.693683,286.389714 256.087807,286.419886 256.389048,286.626057 C256.691545,286.829714 256.887352,287.1616 256.887352,287.5312 L256.887352,294.4568 C256.887352,294.889257 256.645103,295.273943 256.245959,295.441143 L236.74309,304.2336 C236.410469,304.392 236.018855,304.364343 235.715103,304.173257 C235.397545,303.9696 235.2168,303.630171 235.2168,303.251771 L235.2168,254.167886 C235.2168,253.759314 235.442731,253.3872 235.820538,253.197371 L255.329683,243.640571 C255.661048,243.479657 256.055172,243.496 256.371476,243.693371 C256.689034,243.889486 256.884841,244.237714 256.884841,244.609829 L256.884841,251.806971 L256.887352,251.806971 L256.887352,251.804457 Z M288.729821,273.069029 L282.668593,277.193714 C282.186607,277.520571 281.550234,277.413714 281.202552,276.9536 L272.120124,265.062286 L270.414345,266.2528 L270.414345,284.960343 C270.414345,285.317371 270.23109,285.649257 269.94491,285.861714 L261.655752,291.484914 C261.330662,291.7112 260.892607,291.733829 260.544924,291.5528 C260.197241,291.356686 259.970055,290.992114 259.970055,290.598629 L259.970055,242.051543 C259.970055,241.697029 260.143269,241.372686 260.438234,241.166514 L276.714055,229.921371 C281.678262,226.491886 286.038731,227.128 286.038731,233.9392 L286.038731,246.803543 C286.038731,255.105714 279.933572,259.6616 279.933572,259.6616 L288.970814,271.526514 C289.151559,271.7616 289.226869,272.055771 289.180428,272.358743 C289.136497,272.646629 288.970814,272.904343 288.729821,273.069029 L288.729821,273.069029 Z M311.086952,211.672686 C311.086952,212.797829 310.981517,214.449714 309.946,215.523314 L303.86469,221.819086 C303.160538,222.545714 302.722483,222.0768 302.722483,221.297371 L302.722483,217.4744 C302.722483,215.583657 301.998248,215.583657 300.970262,216.627086 L299.994993,217.626514 C298.582924,219.099886 298.582924,221.213143 298.582924,222.0152 L298.582924,224.680343 C298.582924,226.343543 299.043572,227.547886 300.788262,227.850857 L305.624441,228.698171 C307.922662,229.097943 311.089462,230.629143 311.089462,234.344 C311.089462,237.460457 311.089462,242.857371 307.015172,248.260571 L297.079228,261.406514 C292.954731,266.832343 288.911821,265.3112 288.911821,257.4792 L288.911821,253.119429 C288.911821,251.729029 289.275821,250.880457 290.060303,250.153829 L296.695145,243.326286 C297.828566,242.176 298.581669,242.176 298.581669,243.978743 L298.581669,246.143543 C298.581669,248.6704 300.546014,246.642629 301.393255,245.795314 C302.260579,244.948 302.723738,244.448914 302.723738,242.406057 L302.723738,241.150171 C302.723738,239.801257 301.688221,239.2896 299.838097,238.879771 L294.094428,237.578629 C289.604676,236.639543 288.911821,233.544457 288.911821,230.078514 L288.911821,225.144229 C288.911821,221.419314 289.530621,218.203543 292.220455,215.176343 L302.723738,203.559086 C306.5608,199.313714 311.089462,198.680114 311.089462,205.292686 L311.089462,211.672686 L311.086952,211.672686 L311.086952,211.672686 Z" id="path506" fill="#00539B" sketch:type="MSShapeGroup" mask="url(#mask-50)"></path>
                        </g>
                    </g>
                    <g id="g508">
                        <g id="polygon516-Clipped">
                            <mask id="mask-52" sketch:name="SVGID_55_" fill="white">
                                <use xlink:href="#path-51"></use>
                            </mask>
                            <g id="SVGID_55_"></g>
                            <path d="M136.018014,288.237714 L132.940331,268.802286 L128.628814,285.821486 L136.018014,288.237714 Z" id="polygon516" fill="#00539B" sketch:type="MSShapeGroup" mask="url(#mask-52)"></path>
                        </g>
                    </g>
                    <g id="g518">
                        <g id="path526-Clipped">
                            <mask id="mask-54" sketch:name="SVGID_57_" fill="white">
                                <use xlink:href="#path-53"></use>
                            </mask>
                            <g id="SVGID_57_"></g>
                            <path d="M147.556814,36.4772571 C147.556814,35.1371429 148.641283,34.0434286 149.986828,34.0434286 L208.213021,34.0434286 C209.165697,34.0434286 210.026745,34.5915429 210.419614,35.4552 L243.967862,107.849029 L271.924317,50.9922286 C246.234703,33.5493714 214.885517,23.2634286 181.034772,23.2634286 C160.131131,23.2634286 140.182676,27.2096 121.923683,34.3086857 L147.558069,83.8891429 L147.556814,36.4772571 L147.556814,36.4772571 Z" id="path526" fill="#00539B" sketch:type="MSShapeGroup" mask="url(#mask-54)"></path>
                        </g>
                    </g>
                    <g id="g528">
                        <g id="path536-Clipped">
                            <mask id="mask-56" sketch:name="SVGID_59_" fill="white">
                                <use xlink:href="#path-55"></use>
                            </mask>
                            <g id="SVGID_59_"></g>
                            <path d="M258.338331,142.808914 C265.02589,140.768571 271.161172,137.166857 276.745434,132.130743 C281.730979,130.488914 287.527366,129.534743 292.884441,130.3104 L293.382745,131.0144 C293.003683,133.049714 290.450662,134.608571 288.698441,135.672114 C284.90531,135.747543 280.326441,135.0888 277.395614,137.987771 C273.299986,142.267086 268.146248,145.172343 264.322993,149.347314 C264.624234,150.705029 266.166841,151.7912 265.298262,153.323657 C262.374966,155.394171 257.705724,153.826514 256.148055,158.005257 C254.864014,166.012 244.842717,159.810514 240.92909,164.986171 C239.024993,167.4992 233.342828,170.5528 229.066455,171.682971 L224.955766,180.438971 C229.730441,182.127314 236.318841,184.669257 240.701903,183.9816 C250.917752,180.704229 254.862759,165.118171 266.815766,166.049714 C273.539724,167.2264 279.465393,165.189829 284.149697,160.709371 C288.728566,158.965714 289.092566,166.366514 293.30869,165.583314 C293.671434,162.885486 293.912428,159.547771 297.002662,158.407543 C298.459917,157.825486 300.818386,158.025371 301.012938,159.962629 C297.778359,164.544914 304.792262,166.023314 303.7944,170.322743 C304.361738,172.169486 306.499297,172.169486 307.974124,171.704343 C310.422966,167.031543 315.477545,166.626743 320.131724,166.365257 C323.765448,161.024914 332.387228,166.009486 334.382952,158.5056 L337.75309,157.366629 C332.993476,117.760343 312.38731,82.8004571 282.150207,58.5162286 L237.531338,153.640457 C244.299228,151.312229 253.7808,148.6056 258.338331,142.808914" id="path536" fill="#00539B" sketch:type="MSShapeGroup" mask="url(#mask-56)"></path>
                        </g>
                    </g>
                    <g id="g538">
                        <g id="path546-Clipped">
                            <mask id="mask-58" sketch:name="SVGID_61_" fill="white">
                                <use xlink:href="#path-57"></use>
                            </mask>
                            <g id="SVGID_61_"></g>
                            <path d="M274.266469,242.072914 L270.873738,244.418743 C270.577517,244.616114 270.411834,244.948 270.411834,245.312571 L270.411834,253.931543 C270.411834,254.333829 270.639021,254.695886 270.986703,254.884457 C271.334386,255.073029 271.771186,255.044114 272.097531,254.815314 L274.439683,253.196114 C275.6936,252.326171 276.707779,250.282057 276.707779,248.518286 L276.707779,243.493486 C276.707779,242.042743 275.627076,241.135086 274.266469,242.072914" id="path546" fill="#00539B" sketch:type="MSShapeGroup" mask="url(#mask-58)"></path>
                        </g>
                    </g>
                    <g id="g548">
                        <g id="path556-Clipped">
                            <mask id="mask-60" sketch:name="SVGID_63_" fill="white">
                                <use xlink:href="#path-59"></use>
                            </mask>
                            <g id="SVGID_63_"></g>
                            <path d="M214.581766,269.126629 L206.829821,270.677943 L206.829821,303.462971 L215.058731,301.978286 C219.115448,301.252914 219.115448,296.658057 219.115448,296.658057 L219.115448,272.441714 C219.116703,272.440457 219.116703,268.218971 214.581766,269.126629" id="path556" fill="#00539B" sketch:type="MSShapeGroup" mask="url(#mask-60)"></path>
                        </g>
                    </g>
                </g>
            </g>
        </g>
    </g>
</svg>