<svg width="512" height="512" viewBox="0 0 512 512" xmlns="http://www.w3.org/2000/svg" xmlns:xlink="http://www.w3.org/1999/xlink" xmlns:sketch="http://www.bohemiancoding.com/sketch/ns"><title>new-york-islanders</title><desc>Created with Sketch.</desc><defs><path id="a" d="M0 0h362.067v349.836h-362.067z"/><path id="c" d="M0 0h362.067v349.836h-362.067z"/><path id="e" d="M0 0h362.067v349.836h-362.067z"/><path id="g" d="M0 0h362.067v349.836h-362.067z"/><path id="i" d="M0 0h362.067v349.836h-362.067z"/><path id="k" d="M0 0h362.067v349.836h-362.067z"/><path id="m" d="M0 0h362.067v349.836h-362.067z"/><path id="o" d="M0 0h362.067v349.836h-362.067z"/><path id="q" d="M0 0h362.067v349.836h-362.067z"/><path id="s" d="M0 0h362.067v349.836h-362.067z"/><path id="u" d="M0 0h362.067v349.836h-362.067z"/><path id="w" d="M0 0h362.067v349.836h-362.067z"/><path id="y" d="M0 0h362.067v349.836h-362.067z"/><path id="A" d="M0 0h362.067v349.836h-362.067z"/><path id="C" d="M0 0h362.067v349.836h-362.067z"/><path id="E" d="M0 0h362.067v349.836h-362.067z"/><path id="G" d="M0 0h362.067v349.836h-362.067z"/><path id="I" d="M0 0h362.067v349.836h-362.067z"/><path id="K" d="M0 0h362.067v349.836h-362.067z"/><path id="M" d="M0 0h362.067v349.836h-362.067z"/><path id="O" d="M0 0h362.067v349.836h-362.067z"/><path id="Q" d="M0 0h362.067v349.836h-362.067z"/><path id="S" d="M0 0h362.067v349.836h-362.067z"/><path id="U" d="M0 0h362.067v349.836h-362.067z"/><path id="W" d="M0 0h362.067v349.836h-362.067z"/><path id="Y" d="M0 0h362.067v349.836h-362.067z"/><path id="aa" d="M0 0h362.067v349.836h-362.067z"/><path id="ac" d="M0 0h362.067v349.836h-362.067z"/><path id="ae" d="M0 0h362.067v349.836h-362.067z"/><path id="ag" d="M0 0h362.067v349.836h-362.067z"/></defs><g sketch:type="MSLayerGroup" fill="none"><g transform="translate(73 81) translate(.924 .937)"><mask id="b" sketch:name="SVGID_1_"><use xlink:href="#a"/></mask><path d="M181.03.004c-99.981 0-181.03 78.315-181.03 174.919 0 96.603 81.049 174.923 181.03 174.923 99.986 0 181.037-78.32 181.037-174.923 0-96.604-81.053-174.919-181.037-174.919m0 336.955c-92.87 0-168.147-72.547-168.147-162.036 0-89.488 75.276-162.036 168.147-162.036 92.866 0 168.147 72.546 168.147 162.036-.001 89.491-75.28 162.036-168.147 162.036" fill="#fff" sketch:type="MSShapeGroup" mask="url(#b)"/></g><g transform="translate(73 81) translate(.924 .937)"><mask id="d" sketch:name="SVGID_3_"><use xlink:href="#c"/></mask><path d="M186.104 225.574c-.941 1.931-2.784 3.262-4.919 3.559l-72.466 9.988c-.641.092-1.231.439-1.618.962-.389.507-.551 1.174-.449 1.808l4.417 29.046c.103.665.479 1.271 1.047 1.649.564.377 1.255.499 1.919.348l7.187-1.727 4.288-16.739c.147-.576.718-.924 1.299-.787l14.081 3.457c.427.092.744.449.806.872l1.261 8.019 9.044-2.164v-3.633c0-.386.163-.757.449-1.013.287-.259.672-.38 1.051-.334l11.228 1.331c.318.03.567.204.783.424l21.561-5.147c1.919-.454 3.504-1.756 4.352-3.543l13.374-28.516-14.099-7.202-4.594 9.341z" fill="#fff" sketch:type="MSShapeGroup" mask="url(#d)"/></g><g transform="translate(73 81) translate(.924 .937)"><mask id="f" sketch:name="SVGID_5_"><use xlink:href="#e"/></mask><path d="M193.583 210.363l-1.155 2.361 14.032 7.168 1.118-2.384-13.995-7.146z" fill="#fff" sketch:type="MSShapeGroup" mask="url(#f)"/></g><g transform="translate(73 81) translate(.924 .937)"><mask id="h" sketch:name="SVGID_7_"><use xlink:href="#g"/></mask><path d="M198.661 200.033l-.468.947 13.827 7.053 1.12-2.375-13.783-7.04-.695 1.416z" fill="#fff" sketch:type="MSShapeGroup" mask="url(#h)"/></g><g transform="translate(73 81) translate(.924 .937)"><mask id="j" sketch:name="SVGID_9_"><use xlink:href="#i"/></mask><path d="M196.468 204.491l-1.154 2.361 13.925 7.114 1.118-2.384-13.89-7.092z" fill="#fff" sketch:type="MSShapeGroup" mask="url(#j)"/></g><g transform="translate(73 81) translate(.924 .937)"><mask id="l" sketch:name="SVGID_11_"><use xlink:href="#k"/></mask><path d="M243.967 107.849l-33.548-72.398c-.393-.86-1.254-1.408-2.198-1.408h-58.235c-1.344 0-2.43 1.09-2.43 2.434v47.408l-25.634-49.582c-15.274 5.937-29.362 14.085-41.826 24.063v88.214c0 1.339 1.081 2.434 2.421 2.434h33.069c1.33 0 2.421-1.094 2.421-2.434v-39.433l24.349 40.686c.442.73 1.231 1.18 2.082 1.18h37.084c1.338 0 2.43-1.094 2.43-2.434v-76.502l38.145 82.281-4.563 9.27-16.457 33.469 13.722 7.01 1.829-3.897 8.327-17.771 4.109-8.751 8.462-18.043 44.62-95.132c-3.294-2.641-6.701-5.139-10.222-7.515l-27.958 56.849z" fill="#fff" sketch:type="MSShapeGroup" mask="url(#l)"/></g><g transform="translate(73 81) translate(.924 .937)"><mask id="n" sketch:name="SVGID_13_"><use xlink:href="#m"/></mask><path d="M234.055 210.128c-12.256 0-22.185 3.368-22.185 7.515 0 4.132 9.931 7.493 22.185 7.493 12.24 0 22.183-3.36 22.183-7.493 0-4.147-9.942-7.515-22.183-7.515" fill="#fff" sketch:type="MSShapeGroup" mask="url(#n)"/></g><g transform="translate(73 81) translate(.924 .937)"><mask id="p" sketch:name="SVGID_15_"><use xlink:href="#o"/></mask><path d="M204.798 223.441l1.662-3.549-14.032-7.168-1.731 3.512 14.101 7.205z" fill="#F47D30" sketch:type="MSShapeGroup" mask="url(#p)"/></g><g transform="translate(73 81) translate(.924 .937)"><mask id="r" sketch:name="SVGID_17_"><use xlink:href="#q"/></mask><path d="M119.396 209.106c5.825-6.599 14.088 1.211 21.013-2.966 5.355-2.741 9.921 2.058 15.661 1.18 3.609-.06 9.056-4.056 12.173.742 2.63 1.279 6.329.803 8.565-.861 1.393-5.056 7.19-3.096 11.019-4.262 2.523-.567 7.466-3.109 10.836-2.905l.695-1.416 13.782 7.039 1.661-3.541-13.713-7.017 16.457-33.471c-9.74-1.548-21.829 4.908-30.33.382-9.789-.303-21.187.341-29.862-4.257-5.633-.904-11.667-.821-16.79-2.88-2.746 5.154-5.84-1.682-9.134-.684-1.984.635-3.637 2.807-3.238 5.138-1.013 5.34-7.496 2.218-10.832 4.464-6.12 3.479-9.517-5.301-15.365-5.221-3.986-1.086-8.742-.598-10.956 3.477-3.442.874-5.199-3.617-9.097-2.152-2.71-1.685 1.204-2.846.208-4.881-2.229-2.444-6.384-4.219-9.524-2.165-.575 4.185 3.899 7.794 1.538 12.183-2.335.481-2.203-2.92-4.17-3.719-2.246-1.085-2.336 1.658-3.537 2.717-4.371-.2-3.457-5.081-4.825-7.723-5.077-.791-9.139 2.323-13.325 4.166-2.932 2.233-1.013 7.016-3.537 9.354-1.957-1.473-1.756-4.299-3.69-6.057-1.641-1.079-3.605-1.862-5.633-1.154-1.874.454-2.415 2.013-2.808 3.656.046.983 1.034 1.759 2.105 1.478 1.261.295 2.229 1.775 1.641 3.016-.651.886-1.054 2.668-2.608 2.343-1.666-1.583-3.993-3.8-6.339-2.839-.99.875-.008 2.055-.008 3.025-1.066 3.593 1.565 5.657 3.506 8.199.658 2.808.938 6.909-1.211 8.952-2.896.575-3.616 3.776-3.904 6.222.692 2.453 3.381 2.262 4.364 4.298.528 1.672-1.293 2.935-2.778 3.876.575 2.769 1.24 5.509 1.972 8.234 1.772-.698 3.793-1.364 4.953-1.174.975.492 1.667 1.378 1.667 2.361.94 1.839 2.909 3.685 5.142 2.626 2.237-.969 4.273-4.063 6.686-2.8v-20.42l10.438 9.173v10.58c3.876-.092 8.293.303 11.866-1.141 7.094.528 15.562 2.482 21.72-1.574 5.455-.979 10.498-2.824 16.355-2.81 3.995-.275 7.478 1.481 11.192 1.207" fill="#F47D30" sketch:type="MSShapeGroup" mask="url(#r)"/></g><g transform="translate(73 81) translate(.924 .937)"><mask id="t" sketch:name="SVGID_19_"><use xlink:href="#s"/></mask><path d="M240.93 164.986c3.914-5.177 13.932 1.022 15.216-6.981 1.558-4.169 6.227-2.615 9.144-4.673.884-1.545-.665-2.619-.968-3.984 3.823-4.179 8.978-7.076 13.073-11.352 2.932-2.907 7.51-2.248 11.303-2.319 1.753-1.06 4.308-2.626 4.678-4.661l-.492-.7c-5.358-.783-11.161.177-16.14 1.812-5.575 5.047-11.726 8.643-18.406 10.682-4.549 5.793-14.032 8.506-20.811 10.842l-8.462 18.037c4.285-1.139 9.961-4.189 11.865-6.702" fill="#F47D30" sketch:type="MSShapeGroup" mask="url(#t)"/></g><g transform="translate(73 81) translate(.924 .937)"><mask id="v" sketch:name="SVGID_21_"><use xlink:href="#u"/></mask><path d="M210.358 211.573l1.662-3.541-13.827-7.053-1.716 3.511 13.881 7.083z" fill="#F47D30" sketch:type="MSShapeGroup" mask="url(#v)"/></g><g transform="translate(73 81) translate(.924 .937)"><mask id="x" sketch:name="SVGID_23_"><use xlink:href="#w"/></mask><path d="M195.315 206.844l-1.732 3.519 13.995 7.146 1.662-3.543-13.925-7.122z" fill="#F47D30" sketch:type="MSShapeGroup" mask="url(#x)"/></g><g transform="translate(73 81) translate(.924 .937)"><mask id="z" sketch:name="SVGID_25_"><use xlink:href="#y"/></mask><path d="M181.03 12.892c-92.87 0-168.147 72.541-168.147 162.036 0 89.485 75.276 162.031 168.147 162.031 92.866 0 168.147-72.547 168.147-162.031.001-89.495-75.28-162.036-168.147-162.036m0 313.684c-87.158 0-157.798-67.892-157.798-151.648 0-46.864 22.119-88.74 56.858-116.56 12.468-9.982 26.563-18.122 41.837-24.062 18.259-7.09 38.2-11.038 59.102-11.038 33.863 0 65.196 10.286 90.895 27.729 3.522 2.381 6.922 4.874 10.216 7.519 30.247 24.293 50.852 59.244 55.605 98.858l-3.364 1.131c-1.994 7.5-10.609 2.527-14.258 7.858-4.64.261-9.701.665-12.143 5.347-1.481.458-3.611.458-4.186-1.38.998-4.299-6.015-5.783-2.78-10.361-.195-1.945-2.547-2.137-4.019-1.566-3.083 1.148-3.325 4.48-3.686 7.186-4.225.776-4.579-6.619-9.159-4.874-4.683 4.468-10.609 6.516-17.34 5.332-11.948-.923-15.89 14.658-26.105 17.937-4.383.681-10.973-1.847-15.747-3.544l-8.333 17.77 4.859-1.211c3.226-.771 5.78-2.922 8.698-4.449 4.731 3.608 5.522-3.33 9.346-3.709 2.431-.559 4.465 1.589 6.015 3.345 5.742 2.451 12.672.817 17.365-3.059 5.017-2.148 11.431-1.256 16.523-3.466 3.408-2.257 6.71-4.958 11.524-4.179 14.28-4.915 32.716-10.985 47.535-16.183.211 3.186.339 6.388.339 9.626-.005 83.758-70.644 151.65-157.799 151.65" fill="#F47D30" sketch:type="MSShapeGroup" mask="url(#z)"/></g><g transform="translate(73 81) translate(.924 .937)"><mask id="B" sketch:name="SVGID_27_"><use xlink:href="#A"/></mask><path d="M86.528 232.416l-15.066-13.591c-5.834-5.254-9.903-.637-9.903 2.732v14.039c0 2.7.904 4.289 2.119 5.88l13.639 17.836c.766.992 1.062 1.99 1.062 3.208v1.976c0 1.59-1.402 1.444-2.489.461l-2.951-2.519c-1.051-.811-.944-2.483-.944-3.929v-1.8c0-.977-1.028-2.695-2.064-3.541l-6.819-6.237c-1.028-.998-1.553-.165-1.553 2.498v8.143c0 2.12 1.398 6.403 4.579 9.278l15.607 14.069c3.789 3.382 7.065.101 7.065-7.726v-8.975c0-4.45-1.983-8.946-4.304-11.987l-11.48-14.964s-1.032-1.369-1.032-3.116v-1.553s.404-2.254 2.198-.62l2.925 2.634c.759.704 1.261 1.763 1.261 3.026v2.12c0 1.226.318 2.148 1.476 3.208l5.494 4.949c2.323 2.089 3.461.576 3.461-1.248v-8.437c0-3.104-1.341-4.967-2.281-5.813" fill="#F47D30" sketch:type="MSShapeGroup" mask="url(#B)"/></g><g transform="translate(73 81) translate(.924 .937)"><mask id="D" sketch:name="SVGID_29_"><use xlink:href="#C"/></mask><path d="M111.988 290.59l-8.263-4.905v-41.267c0-.469-.25-.915-.665-1.15l-7.737-4.601c-.419-.243-.93-.258-1.356-.008-.417.235-.673.681-.673 1.158v48.821c0 .476.238.921.658 1.158l16.657 9.906c.419.243.936.249 1.356.008.423-.243.68-.689.68-1.165v-6.797c0-.475-.257-.908-.658-1.157" fill="#F47D30" sketch:type="MSShapeGroup" mask="url(#D)"/></g><g transform="translate(73 81) translate(.924 .937)"><mask id="F" sketch:name="SVGID_31_"><use xlink:href="#E"/></mask><path d="M142.963 266.032l-1.269-8.022c-.06-.422-.378-.773-.805-.879l-14.082-3.45c-.581-.137-1.152.204-1.299.779l-4.289 16.748-7.419 28.999c-.148.552.162 1.121.714 1.302l8.293 2.694c.287.083.597.06.859-.075.256-.151.442-.393.522-.681l2.141-8.483 11.349 3.7 1.641 10.307c.056.393.344.725.729.849l8.674 2.831c.355.121.747.043 1.034-.2.287-.256.419-.617.367-.982l-7.161-45.437zm-14.33 19.79l4.31-17.019 3.079 19.435-7.389-2.416z" fill="#F47D30" sketch:type="MSShapeGroup" mask="url(#F)"/></g><g transform="translate(73 81) translate(.924 .937)"><mask id="H" sketch:name="SVGID_33_"><use xlink:href="#G"/></mask><path d="M189.291 263.126l-7.737-.916c-.385-.045-.759.082-1.049.326-.295.258-.457.629-.457 1.013v27.085l-14.261-29.666c-.069-.128-.178-.219-.276-.326-.211-.212-.466-.393-.783-.421l-11.22-1.326c-.385-.053-.774.068-1.057.327-.287.256-.449.627-.449 1.013v51.712c0 .671.496 1.256 1.159 1.338l7.746 1.06c.385.06.773-.062 1.062-.318.291-.249.461-.62.461-1.013v-31.401l16.883 32.959c.242.485.744.772 1.27.744l8.636-.524c.712-.036 1.269-.636 1.269-1.338v-48.987c0-.689-.515-1.266-1.195-1.34" fill="#F47D30" sketch:type="MSShapeGroup" mask="url(#H)"/></g><g transform="translate(73 81) translate(.924 .937)"><mask id="J" sketch:name="SVGID_35_"><use xlink:href="#I"/></mask><path d="M219.123 258.275l-21.648 4.321c-.634.129-1.088.681-1.088 1.333v48.736c0 .395.19.764.492 1.031.304.258.71.363 1.089.288l21.155-3.778c10.428-1.867 10.428-8.15 10.428-9.498v-38.246c0-.001 0-6.266-10.428-4.186zm0 38.384s0 4.595-4.066 5.319l-8.236 1.485v-32.785l7.759-1.56c4.541-.899 4.541 3.329 4.541 3.329v24.213h.001z" fill="#F47D30" sketch:type="MSShapeGroup" mask="url(#J)"/></g><g transform="translate(73 81) translate(.924 .937)"><mask id="L" sketch:name="SVGID_37_"><use xlink:href="#K"/></mask><path d="M256.374 243.692c-.31-.197-.704-.219-1.044-.06l-19.509 9.573c-.369.175-.604.561-.604.962v49.093c0 .371.19.719.492.908.311.206.695.217 1.027.075l19.518-8.794c.385-.173.633-.561.633-.984v-6.941c0-.363-.188-.695-.498-.89-.309-.212-.687-.243-1.02-.092l-8.199 3.701c-.333.145-.71.119-1.029-.084-.301-.196-.49-.538-.49-.899v-9.287c0-.439.249-.815.626-.984l9.974-4.502c.385-.173.635-.552.635-.979v-6.976c0-.377-.19-.719-.513-.921-.31-.19-.704-.214-1.044-.047l-8.131 3.988c-.331.161-.724.136-1.042-.053-.318-.205-.506-.544-.506-.916v-9.93c0-.406.236-.793.597-.967l10.035-4.913c.369-.19.602-.561.602-.969v-7.203c.004-.365-.185-.712-.51-.908" fill="#F47D30" sketch:type="MSShapeGroup" mask="url(#L)"/></g><g transform="translate(73 81) translate(.924 .937)"><mask id="N" sketch:name="SVGID_39_"><use xlink:href="#M"/></mask><path d="M279.932 259.667s6.105-4.562 6.105-12.866v-12.857c0-6.826-4.36-7.462-9.325-4.027l-16.276 11.246c-.294.196-.468.528-.468.893v48.531c0 .396.22.757.576.952.361.192.784.176 1.116-.067l8.283-5.623c.287-.204.468-.537.468-.885v-18.724l1.708-1.179 9.082 11.895c.348.455.983.561 1.466.243l6.059-4.131c.242-.167.409-.424.453-.712.045-.304-.03-.606-.211-.835l-9.037-11.855zm-3.22-11.147c0 1.765-1.027 3.815-2.282 4.678l-2.333 1.62c-.333.228-.756.258-1.111.075-.364-.196-.575-.558-.575-.969v-8.627c0-.348.166-.681.469-.879l3.393-2.346c1.353-.938 2.439-.03 2.439 1.421v5.026z" fill="#F47D30" sketch:type="MSShapeGroup" mask="url(#N)"/></g><g transform="translate(73 81) translate(.924 .937)"><mask id="P" sketch:name="SVGID_41_"><use xlink:href="#O"/></mask><path d="M302.721 203.559l-10.503 11.617c-2.691 3.027-3.309 6.251-3.309 9.96v4.942c0 3.465.703 6.561 5.183 7.499l5.744 1.301c1.858.41 2.886.924 2.886 2.272v1.256c0 2.028-.468 2.536-1.329 3.399-.847.84-2.812 2.869-2.812.333v-2.159c0-1.8-.756-1.8-1.898-.651l-6.626 6.828c-.784.724-1.148 1.571-1.148 2.964v4.36c0 7.827 4.04 9.354 8.161 3.921l9.941-13.138c4.079-5.396 4.079-10.806 4.079-13.908 0-3.724-3.172-5.252-5.47-5.653l-4.85-.84c-1.731-.318-2.19-1.515-2.19-3.178v-2.665c0-.802 0-2.913 1.412-4.389l.975-.999c1.02-1.043 1.753-1.043 1.753.846v3.823c0 .779.439 1.25 1.14.523l6.075-6.297c1.036-1.066 1.156-2.724 1.156-3.851v-6.38c.004-6.616-4.53-5.98-8.369-1.736" fill="#F47D30" sketch:type="MSShapeGroup" mask="url(#P)"/></g><g transform="translate(73 81) translate(.924 .937)"><mask id="R" sketch:name="SVGID_43_"><use xlink:href="#Q"/></mask><path d="M47.826 214.079v27.955l7.397 10.648c1.85 2.665 3.041 2.021 3.041-.279v-38.983c-3.335.9-7.256-.196-10.438.659" fill="#F47D30" sketch:type="MSShapeGroup" mask="url(#R)"/></g><g transform="translate(73 81) translate(.924 .937)"><mask id="T" sketch:name="SVGID_45_"><use xlink:href="#S"/></mask><path d="M256.237 229.957v-12.321c0 4.147-9.942 7.5-22.183 7.5-12.256 0-22.185-3.353-22.185-7.5v12.321c0 4.147 9.931 7.5 22.185 7.5 12.24 0 22.183-3.353 22.183-7.5" fill="#F47D30" sketch:type="MSShapeGroup" mask="url(#T)"/></g><g transform="translate(73 81) translate(.924 .937)"><mask id="V" sketch:name="SVGID_51_"><use xlink:href="#U"/></mask><path d="M58.26 213.421v-10.58l-10.434-9.173v20.411c3.184-.855 7.111.241 10.434-.657" fill="#00539B" sketch:type="MSShapeGroup" mask="url(#V)"/></g><g transform="translate(73 81) translate(.924 .937)"><mask id="X" sketch:name="SVGID_53_"><use xlink:href="#W"/></mask><path d="M338.477 165.3c-14.809 5.207-33.246 11.275-47.527 16.183-4.814-.779-8.116 1.922-11.522 4.177-5.092 2.21-11.509 1.317-16.526 3.467-4.693 3.875-11.622 5.509-17.363 3.057-1.549-1.764-3.582-3.903-6.016-3.345-3.823.38-4.615 7.318-9.337 3.709-2.926 1.529-5.471 3.678-8.706 4.45l-4.859 1.211-1.82 3.905-1.662 3.541-1.118 2.385-1.662 3.541-1.118 2.384-1.671 3.544-1.111 2.375-1.663 3.558-13.374 28.515c-.847 1.788-2.448 3.089-4.352 3.543l-21.569 5.147c.109.104.218.196.28.317l14.269 29.681v-27.093c0-.38.162-.758.453-1.013.287-.253.669-.38 1.046-.334l7.741.923c.68.074 1.194.651 1.194 1.331v48.987c0 .719-.559 1.309-1.278 1.356l-8.624.507c-.532.036-1.032-.256-1.277-.735l-16.877-32.965v31.406c0 .386-.171.757-.466 1.013-.291.256-.679.378-1.064.326l-7.738-1.06c-.665-.098-1.167-.675-1.167-1.339v-48.086l-9.041 2.164 7.166 45.432c.053.363-.079.748-.363.982-.295.249-.684.318-1.039.212l-8.674-2.83c-.385-.128-.673-.463-.732-.855l-1.632-10.307-11.353-3.7-2.141 8.474c-.075.288-.264.538-.525.689-.256.135-.566.165-.854.075l-8.299-2.702c-.54-.173-.85-.735-.71-1.296l7.427-28.999-7.197 1.727c-.656.151-1.353.029-1.91-.348-.564-.378-.944-.984-1.043-1.649l-4.419-29.046c-.099-.635.064-1.301.449-1.808.385-.523.974-.869 1.617-.962l72.47-9.988c2.134-.295 3.966-1.628 4.914-3.559l4.603-9.338 1.722-3.512 1.164-2.361 1.723-3.519 1.155-2.353 1.73-3.511.462-.939c-3.371-.211-8.328 2.331-10.835 2.899-3.832 1.157-9.627-.795-11.02 4.26-2.242 1.663-5.932 2.141-8.565.862-3.117-4.799-8.565-.803-12.169-.742-5.742.87-10.306-3.921-15.661-1.18-6.925 4.176-15.191-3.633-21.017 2.958-3.713.288-7.201-1.475-11.194-1.203-5.848-.016-10.896 1.83-16.351 2.807-6.159 4.063-14.622 2.097-21.725 1.574-3.567 1.446-7.994 1.045-11.863 1.143v38.981c0 2.309-1.19 2.944-3.041.273l-7.397-10.639v-27.946c-2.415-1.256-4.447 1.83-6.684 2.791-2.237 1.067-4.201-.778-5.152-2.617 0-.983-.68-1.854-1.654-2.37-1.165-.173-3.189.493-4.953 1.183-.744-2.725-1.402-5.465-1.973-8.234 1.486-.932 3.295-2.196 2.776-3.876-.99-2.043-3.676-1.845-4.371-4.298.295-2.445 1.005-5.647 3.906-6.222 2.15-2.035 1.874-6.13 1.205-8.96-1.942-2.538-4.564-4.597-3.503-8.195 0-.962-.983-2.138.015-3.02 2.342-.962 4.673 1.261 6.329 2.834 1.564.326 1.964-1.457 2.615-2.331.59-1.248-.385-2.72-1.641-3.023-1.066.279-2.066-.497-2.105-1.472.387-1.643.938-3.208 2.808-3.666 2.021-.705 3.993.079 5.633 1.16 1.934 1.751 1.735 4.582 3.691 6.054 2.524-2.336.604-7.122 3.536-9.353 4.178-1.843 8.248-4.962 13.325-4.17 1.368 2.653.449 7.534 4.829 7.726 1.197-1.064 1.292-3.807 3.537-2.72 1.964.798 1.831 4.201 4.17 3.72 2.351-4.377-2.119-7.995-1.541-12.18 3.137-2.054 7.295-.279 9.524 2.161.997 2.039-2.917 3.201-.208 4.88 3.899-1.465 5.648 3.039 9.09 2.157 2.215-4.079 6.983-4.567 10.956-3.481 5.86-.075 9.257 8.712 15.37 5.225 3.34-2.239 9.819.875 10.832-4.464-.397-2.335 1.261-4.496 3.241-5.13 3.287-1.006 6.385 5.827 9.139.673 5.112 2.063 11.157 1.976 16.789 2.883 8.667 4.597 20.069 3.955 29.849 4.253 8.509 4.526 20.597-1.93 30.331-.378l4.555-9.268-38.143-82.285v76.511c0 1.339-1.083 2.425-2.421 2.425h-37.093c-.854 0-1.644-.45-2.074-1.177l-24.352-40.677v39.428c0 1.34-1.084 2.426-2.421 2.426h-33.061c-1.348 0-2.433-1.086-2.433-2.426v-88.221c-34.739 27.823-56.858 69.7-56.858 116.56 0 83.753 70.64 151.653 157.803 151.653 87.143 0 157.79-67.9 157.79-151.653-.003-3.231-.138-6.437-.349-9.622zm-249.665 81.374c0 1.815-1.141 3.336-3.468 1.235l-5.493-4.943c-1.159-1.059-1.476-1.991-1.476-3.216v-2.112c0-1.271-.502-2.323-1.255-3.035l-2.925-2.635c-1.801-1.62-2.205.629-2.205.629v1.544c0 1.763 1.03 3.133 1.03 3.133l11.481 14.955c2.327 3.041 4.312 7.538 4.312 11.987v8.975c0 7.818-3.284 11.116-7.073 7.735l-15.599-14.084c-3.189-2.876-4.583-7.151-4.583-9.278v-8.137c0-2.663.522-3.487 1.558-2.495l6.807 6.234c1.039.84 2.066 2.572 2.066 3.543v1.8c0 1.452-.099 3.125.951 3.927l2.947 2.521c1.083.983 2.485 1.136 2.485-.469v-1.969c0-1.209-.287-2.208-1.062-3.208l-13.631-17.844c-1.216-1.575-2.124-3.164-2.124-5.866v-14.04c0-3.382 4.066-7.992 9.898-2.729l15.071 13.582c.938.849 2.286 2.71 2.286 5.814v8.447h.001zm23.828 51.863c0 .492-.254.929-.68 1.172-.415.243-.936.243-1.352-.014l-16.661-9.89c-.408-.251-.658-.691-.658-1.16v-48.819c0-.493.257-.932.677-1.174.423-.235.933-.235 1.359.014l7.738 4.594c.412.25.658.688.658 1.158v41.266l8.262 4.914c.412.235.656.681.656 1.158l.001 6.782zm116.911 2.171c0 1.339 0 7.628-10.434 9.49l-21.15 3.793c-.387.059-.786-.039-1.097-.295-.302-.267-.476-.644-.476-1.037v-48.737c0-.651.447-1.203 1.082-1.325l21.64-4.315c10.434-2.081 10.434 4.179 10.434 4.179v38.247zm-17.683-70.743v-12.323c0-4.147 9.931-7.515 22.185-7.515 12.24 0 22.176 3.368 22.176 7.515v12.323c0 4.146-9.936 7.498-22.176 7.498-12.254 0-22.185-3.353-22.185-7.498zm45.019 21.839c0 .409-.242.786-.611.969l-10.026 4.919c-.369.173-.589.544-.589.968v9.913c0 .38.181.728.497.924.318.197.71.22 1.042.045l8.131-3.981c.334-.165.725-.151 1.044.055.315.202.513.544.513.915v6.976c0 .424-.242.812-.643.986l-9.957 4.493c-.387.168-.628.554-.628.984v9.295c0 .346.181.695.481.893.311.196.697.235 1.029.075l8.191-3.693c.331-.151.725-.121 1.027.085.302.204.498.536.498.905v6.926c0 .432-.242.817-.641.984l-19.503 8.792c-.333.158-.724.131-1.028-.06-.318-.204-.498-.543-.498-.921v-49.084c0-.409.226-.781.604-.971l19.509-9.557c.331-.161.725-.145 1.042.053.318.196.513.544.513.916v7.197h.003v-.003zm31.842 21.265l-6.061 4.125c-.482.327-1.118.22-1.466-.24l-9.082-11.891-1.706 1.191v18.708c0 .357-.183.689-.469.901l-8.289 5.623c-.325.226-.763.249-1.111.068-.348-.196-.575-.561-.575-.954v-48.547c0-.355.173-.679.468-.885l16.276-11.245c4.964-3.429 9.325-2.793 9.325 4.018v12.864c0 8.302-6.105 12.858-6.105 12.858l9.037 11.865c.181.235.256.529.21.832-.044.288-.21.546-.451.71zm22.357-61.396c0 1.125-.105 2.777-1.141 3.851l-6.081 6.296c-.704.727-1.142.258-1.142-.522v-3.823c0-1.891-.724-1.891-1.752-.847l-.975.999c-1.412 1.473-1.412 3.587-1.412 4.389v2.665c0 1.663.461 2.868 2.205 3.171l4.836.847c2.298.4 5.465 1.931 5.465 5.646 0 3.116 0 8.513-4.074 13.917l-9.936 13.146c-4.124 5.426-8.167 3.905-8.167-3.927v-4.36c0-1.39.364-2.239 1.148-2.966l6.635-6.828c1.133-1.15 1.887-1.15 1.887.652v2.165c0 2.527 1.964.499 2.812-.348.867-.847 1.33-1.346 1.33-3.389v-1.256c0-1.349-1.036-1.861-2.886-2.27l-5.744-1.301c-4.49-.939-5.183-4.034-5.183-7.5v-4.934c0-3.725.619-6.941 3.309-9.968l10.503-11.617c3.837-4.245 8.366-4.879 8.366 1.734v6.38h-.003z" fill="#00539B" sketch:type="MSShapeGroup" mask="url(#X)"/></g><g transform="translate(73 81) translate(.924 .937)"><mask id="Z" sketch:name="SVGID_55_"><use xlink:href="#Y"/></mask><path d="M136.018 288.238l-3.078-19.435-4.312 17.019 7.389 2.416z" fill="#00539B" sketch:type="MSShapeGroup" mask="url(#Z)"/></g><g transform="translate(73 81) translate(.924 .937)"><mask id="ab" sketch:name="SVGID_57_"><use xlink:href="#aa"/></mask><path d="M147.557 36.477c0-1.34 1.084-2.434 2.43-2.434h58.226c.953 0 1.814.548 2.207 1.412l33.548 72.394 27.956-56.857c-25.69-17.443-57.039-27.729-90.89-27.729-20.904 0-40.852 3.946-59.111 11.045l25.634 49.58-.001-47.412z" fill="#00539B" sketch:type="MSShapeGroup" mask="url(#ab)"/></g><g transform="translate(73 81) translate(.924 .937)"><mask id="ad" sketch:name="SVGID_59_"><use xlink:href="#ac"/></mask><path d="M258.338 142.809c6.688-2.04 12.823-5.642 18.407-10.678 4.986-1.642 10.782-2.596 16.139-1.82l.498.704c-.379 2.035-2.932 3.594-4.684 4.658-3.793.075-8.372-.583-11.303 2.316-4.096 4.279-9.249 7.185-13.073 11.36.301 1.358 1.844 2.444.975 3.976-2.923 2.071-7.593.503-9.15 4.682-1.284 8.007-11.305 1.805-15.219 6.981-1.904 2.513-7.586 5.567-11.863 6.697l-4.111 8.756c4.775 1.688 11.363 4.23 15.746 3.543 10.216-3.277 14.161-18.863 26.114-17.932 6.724 1.177 12.65-.86 17.334-5.34 4.579-1.744 4.943 5.657 9.159 4.874.363-2.698.604-6.036 3.694-7.176 1.457-.582 3.816-.382 4.01 1.555-3.235 4.582 3.779 6.061 2.781 10.36.567 1.847 2.705 1.847 4.18 1.382 2.449-4.673 7.503-5.078 12.158-5.339 3.634-5.34 12.256-.356 14.251-7.86l3.37-1.139c-4.76-39.606-25.366-74.566-55.603-98.85l-44.619 95.124c6.768-2.328 16.249-5.035 20.807-10.832" fill="#00539B" sketch:type="MSShapeGroup" mask="url(#ad)"/></g><g transform="translate(73 81) translate(.924 .937)"><mask id="af" sketch:name="SVGID_61_"><use xlink:href="#ae"/></mask><path d="M274.266 242.073l-3.393 2.346c-.296.197-.462.529-.462.894v8.619c0 .402.227.764.575.953.348.189.784.16 1.111-.069l2.342-1.619c1.254-.87 2.268-2.914 2.268-4.678v-5.025c0-1.451-1.081-2.358-2.441-1.421" fill="#00539B" sketch:type="MSShapeGroup" mask="url(#af)"/></g><g transform="translate(73 81) translate(.924 .937)"><mask id="ah" sketch:name="SVGID_63_"><use xlink:href="#ag"/></mask><path d="M214.582 269.127l-7.752 1.551v32.785l8.229-1.485c4.057-.725 4.057-5.32 4.057-5.32v-24.216c.001-.001.001-4.223-4.534-3.315" fill="#00539B" sketch:type="MSShapeGroup" mask="url(#ah)"/></g></g></svg>