<?xml version="1.0" encoding="UTF-8" standalone="no"?>
<svg width="512px" height="512px" viewBox="0 0 512 512" version="1.1" xmlns="http://www.w3.org/2000/svg" xmlns:xlink="http://www.w3.org/1999/xlink" xmlns:sketch="http://www.bohemiancoding.com/sketch/ns">
    <!-- Generator: Sketch 3.2.2 (9983) - http://www.bohemiancoding.com/sketch -->
    <title>new-jersey-devils</title>
    <desc>Created with Sketch.</desc>
    <defs></defs>
    <g id="NHL" stroke="none" stroke-width="1" fill="none" fill-rule="evenodd" sketch:type="MSPage">
        <g id="new-jersey-devils" sketch:type="MSArtboardGroup">
            <g sketch:type="MSLayerGroup" transform="translate(99.000000, 97.000000)" id="g3">
                <g transform="translate(0.000799, 1.961000)" sketch:type="MSShapeGroup">
                    <path d="M160.304248,290.701074 C236.369963,290.701074 298.033143,229.024778 298.033143,152.948185 C298.033143,76.8696296 236.369963,15.1913704 160.304248,15.1913704 C84.2424596,15.1913704 22.5773168,76.8676667 22.5773168,152.948185 C22.5773168,229.024778 84.2404969,290.701074 160.304248,290.701074 L160.304248,290.701074 L160.304248,290.701074 Z" id="path5" fill="#000000"></path>
                    <path d="M160.304248,276.200667 C228.358087,276.200667 283.528547,221.017852 283.528547,152.948185 C283.528547,84.8765556 228.358087,29.6937407 160.304248,29.6937407 C92.2504099,29.6937407 37.0740621,84.8765556 37.0740621,152.948185 C37.0740621,221.015889 92.2484472,276.200667 160.304248,276.200667 L160.304248,276.200667 L160.304248,276.200667 Z" id="path7" fill="#FFFFFF"></path>
                    <path d="M47.825913,290.084704 C31.8787081,296.923667 17.0286708,307.427481 11.4780621,314.547148 C2.59080745,292.915296 0.840049689,277.983037 2.54762733,261.749333 C4.89113043,239.47363 13.7744596,219.209963 25.8786335,204.827333 C26.4497888,217.356926 29.6784845,227.503481 37.0053665,226.433667 C42.8425342,225.577815 45.3155776,222.389963 49.1684224,220.735185 C61.6219627,215.386111 72.8448696,214.491 88.627205,214.491 C102.974783,214.491 125.671826,220.790148 135.81523,210.643593 C142.376646,204.081407 148.914509,197.381815 148.914509,197.381815 L134.674882,171.462852 L119.442112,210.965519 C107.48318,207.551926 92.6743602,206.837407 86.2699627,206.837407 C72.6014907,206.837407 57.1430062,210.590593 50.3892422,213.099259 L48.0987329,209.208667 C46.8602484,206.609704 46.2596522,205.426037 46.2596522,205.426037 L83.9912298,110.795519 C93.1041988,89.1499259 97.0905093,75.4759259 113.037714,72.0603704 C128.401988,68.7684815 137.534584,74.4080741 149.485665,87.4421481 C160.306211,99.2395556 179.099379,124.465593 179.099379,124.465593 L196.186932,79.4646667 C178.38887,79.4646667 161.301317,67.5023704 161.301317,49.2762593 C161.301317,35.6061852 165.81364,23.3867407 180.239727,13.674 C186.335975,9.56944444 194.043627,6.24614815 201.164422,4.2557037 C211.33923,1.4152963 220.179379,0.855851852 220.179379,0.855851852 C218.893789,1.9982963 217.402112,3.63148148 217.402112,3.63148148 C214.83682,6.19511111 208.004547,13.1047407 207.507975,17.4468148 C206.799429,23.6046296 211.988894,26.9887778 220.104795,26.9887778 C224.990037,26.9887778 261.822683,27.0614074 261.822683,27.0614074 C269.367429,27.0614074 275.065242,19.9417407 270.79041,13.1047407 C267.387031,7.65751852 266.164248,6.55433333 263.742236,2.85218519 C263.742236,2.85218519 262.391876,1.14244444 261.39677,0.00196296296 L267.659851,0.00196296296 C272.927826,0.00196296296 290.354932,1.37014815 300.549366,11.1103704 C310.086286,20.2244074 311.844894,23.4888148 313.507329,35.7494815 C314.643752,44.150963 310.944,58.1076296 302.097963,66.0537037 C293.552224,73.7269259 280.068248,78.5420741 269.938584,80.1791852 L222.950758,204.358185 C213.013441,229.240704 206.53446,240.453148 188.494981,250.927519 C170.840199,261.182037 152.902783,263.461037 142.653391,263.461037 C125.281242,263.461037 117.118236,259.224963 101.363379,253.493111 C85.9421863,247.882963 77.2237267,248.891926 73.3139627,251.500704 C69.4709317,254.064333 68.9017391,254.633593 67.8928944,256.900815 C66.4169193,260.23 68.9645466,265.720407 72.6014907,268.590259 C82.6389068,276.493148 93.1748571,281.194444 95.1670311,282.044407 C93.0315776,282.040481 64.2147329,283.061222 47.825913,290.084704 L47.825913,290.084704 L47.825913,290.084704 Z" id="path9" fill="#000000"></path>
                    <path d="M52.9977143,206.25637 C61.2078261,203.822296 74.171677,201.138926 86.268,201.138926 C88.0403478,201.138926 102.391851,201.237074 115.936671,204.218815 L133.770062,157.983185 L155.876323,198.223926 L153.106907,201.235111 C152.834087,201.531519 146.410062,208.103519 139.840795,214.671593 C128.929963,225.583704 110.185863,220.356333 94.682236,220.222852 L88.627205,220.183593 L80.116795,220.085444 C69.3198012,219.912704 60.819205,221.926704 51.4137888,225.966481 C50.5148571,226.351222 49.5982609,226.947963 48.5344596,227.640889 C46.0044969,229.285852 42.8562733,231.329296 37.8257888,232.065407 C34.3242733,232.577741 31.0425839,231.664963 28.3340124,229.427185 C25.7510559,227.303259 23.7765466,223.976037 22.4026335,219.514222 C14.8559255,232.039889 9.8195528,247.048704 8.21207453,262.342148 C6.82638509,275.519519 7.92159006,287.299259 13.6390311,304.106148 C21.5743602,297.328037 33.3821615,290.076852 45.5805466,284.849481 C54.322559,281.098259 65.9026832,278.999852 75.6770932,277.814222 C73.510236,276.381259 71.2844969,274.797148 69.0764224,273.054037 C63.7613416,268.872926 59.9163478,260.814963 62.685764,254.57863 C64.3344596,250.860778 65.9537143,249.549519 70.1500373,246.750333 C74.8782609,243.599778 84.4681739,241.279556 103.304522,248.130296 L110.030807,250.633074 C121.412696,254.926074 128.931925,257.754704 142.649466,257.754704 C149.483702,257.754704 167.358311,256.608333 185.633317,245.994593 C201.884745,236.552741 207.920149,226.792889 217.298087,203.011593 L217.692596,202.153778 L265.773665,75.0774444 L269.021988,74.5513704 C277.502957,73.1772963 290.26072,69.0177778 298.286335,61.8058519 C305.850708,55.015963 308.706484,42.7494074 307.856621,36.5091481 C306.386534,25.6461111 305.228522,23.4593704 296.612124,15.2267037 C290.44718,9.33585185 280.260596,6.84092593 272.961193,6.02433333 C273.712919,7.10592593 274.570634,8.40344444 275.618733,10.0817778 C278.527503,14.7379259 278.739478,20.0418519 276.191851,24.6312593 C273.420472,29.6387778 267.913043,32.7500741 261.808944,32.7500741 L220.10087,32.6813704 C213.417764,32.6813704 208.183155,30.7714074 204.968199,27.1654444 C202.467677,24.3603704 201.388174,20.776 201.845491,16.7931481 C202.106534,14.4827407 203.160522,11.9976296 205.144845,9.09637037 C204.336199,9.29659259 203.521665,9.50662963 202.689466,9.73825926 C195.721764,11.6815926 188.697143,14.838037 183.413466,18.3949259 C172.059056,26.0406667 166.997168,35.563 166.997168,49.2723333 C166.997168,55.1926296 169.285714,60.6104074 173.61354,64.9387407 C179.136671,70.4684074 187.57446,73.7661852 196.184969,73.7661852 L204.438261,73.7661852 L180.734335,136.196259 L174.532099,127.86937 C174.347602,127.618111 155.788,102.737556 145.287379,91.2915185 C133.355925,78.2770741 126.099702,75.0852963 114.229093,77.6273333 C103.298634,79.9730741 99.4830807,88.2037778 91.9010435,106.598704 L89.2670559,112.937111 L51.6905342,206.654852 L52.9977143,206.25637 L52.9977143,206.25637 Z" id="path11" fill="#E13A3E"></path>
                    <path id="polygon13" fill="#E13A3E" d="M89.2376149,113.003852 L89.2650932,112.939074 L89.280795,112.907667 L89.2376149,113.003852 L89.2376149,113.003852 Z"></path>
                    <path id="polygon15" fill="#E13A3E" d="M217.776994,201.977111 L217.694559,202.157704 L217.623901,202.340259 L217.776994,201.977111 L217.776994,201.977111 Z"></path>
                </g>
            </g>
        </g>
    </g>
</svg>