<?xml version="1.0" encoding="UTF-8" standalone="no"?>
<svg width="512px" height="512px" viewBox="0 0 512 512" version="1.1" xmlns="http://www.w3.org/2000/svg" xmlns:xlink="http://www.w3.org/1999/xlink" xmlns:sketch="http://www.bohemiancoding.com/sketch/ns">
    <!-- Generator: Sketch 3.2.2 (9983) - http://www.bohemiancoding.com/sketch -->
    <title>ottawa-senators</title>
    <desc>Created with Sketch.</desc>
    <defs></defs>
    <g id="NHL" stroke="none" stroke-width="1" fill="none" fill-rule="evenodd" sketch:type="MSPage">
        <g id="ottawa-senators" sketch:type="MSArtboardGroup">
            <g sketch:type="MSLayerGroup" transform="translate(107.000000, 77.000000)" id="Group">
                <g sketch:type="MSShapeGroup">
                    <path d="M218.193367,130.884407 L182.22551,81.7825424 L170.484184,87.2694915 C170.484184,87.2694915 166.164796,84.8379661 149.136735,82.4384746 L157.593367,73.9708475 L157.593367,54.5598305 L151.565816,54.5598305 C155.398469,49.4557627 156.02602,41.6089831 156.02602,34.9413559 C156.02602,28.2752542 155.885204,12.9981356 175.535204,0.0289830508 L98.1581633,0.0289830508 C52.6928571,15.289322 50.2591837,83.3491525 54.2954082,129.384915 L65.4964286,125.054237 C65.4964286,125.054237 58.0591837,141.745424 61.5765306,150.756102 C56.3846939,162.925932 58.1142857,174.522203 63.1438776,183.307119 L57.4989796,191.222542 L58.752551,226.951017 C58.752551,226.951017 58.0438776,227.939492 57.3933673,228.825763 C55.8780612,230.891186 52.1035714,234.093051 38.5270408,236.585593 C23.5040816,239.345085 20.0816327,242.429492 18.5647959,248.721864 C17.0418367,255.037119 3.34591837,259.663729 1.96377551,260.092373 C1.96377551,260.092373 0.535714286,264.243051 0.535714286,269.032881 C0.535714286,288.134237 24.6214286,300.387966 52.6392857,311.16661 C82.2382653,322.555424 118.434184,331.843729 130.760204,348.135254 C145.897959,355.713559 163.268878,359.967966 182.266837,359.967966 C249.191327,359.967966 299.773469,304.726271 299.773469,242.211356 C299.775,190.15322 265.67449,146.669492 218.193367,130.884407 L218.193367,130.884407 Z" id="Shape" fill="#000000"></path>
                    <path d="M62.3770408,113.551017 C62.3770408,113.551017 56.5760204,29.3766102 97.6867347,12.2949153 L103.627041,50.1498305 L104.880612,10.2905085 L155.608163,10.3591525 C150.061224,13.8676271 148.186224,18.1525424 147.107143,22.9286441 C144.825,33.0162712 146.654082,46.1227119 142.47398,53.2067797 L103.801531,53.1716949 L62.3770408,113.551017 L62.3770408,113.551017 Z" id="Shape" fill="#E4173E"></path>
                    <path d="M24.4729592,259.381525 L28.0255102,266.014068 L24.8372449,269.348644 L76.6255102,292.994237 C41.4719388,270.633051 26.2821429,261.605593 26.2821429,252.369153 C26.2821429,243.671186 46.9943878,246.74339 58.5428571,238.515254 C61.6086735,256.882881 35.3403061,257.438136 35.3403061,257.438136 L78.5418367,281.187458 C99.5158163,301.222373 123.763776,307.679492 123.763776,307.679492 C128.989286,313.721695 130.034694,319.138475 130.034694,319.138475 C130.034694,319.138475 104.113776,303.200847 90.9443878,301.429831 C90.9443878,301.429831 99.1729592,305.441695 108.817347,310.597627 C124.322449,318.88678 143.836224,331.222881 141.322959,342.785593 C119.387755,311.831695 11.0938776,302.142203 11.0938776,270.597966 C11.0938776,262.089153 22.8688776,262.089153 24.4729592,259.381525 L24.4729592,259.381525 Z" id="Shape" fill="#E4173E"></path>
                    <path d="M179.647959,337.783729 C185.744388,319.107966 199.043878,308.664915 215.672449,296.501186 C230.888265,285.368644 244.904082,274.890508 244.904082,254.140169 C244.276531,251.951186 227.50102,245.23322 225.619898,244.713051 C225.619898,244.713051 236.280612,253.514746 236.280612,257.160508 C236.280612,260.806271 212.712245,274.503051 212.712245,274.503051 C212.712245,274.503051 215.058673,271.554407 218.041837,267.992542 C222.160714,263.071525 227.291327,256.780678 227.291327,253.668814 C227.291327,249.345763 219.191327,247.991186 216.665816,238.998814 C216.665816,238.998814 214.467857,242.362373 212.329592,247.021017 C210.071939,251.932881 207.869388,258.22678 207.869388,261.256271 L211.980612,289.832034 L200.589796,288.512542 C199.553571,289.354576 179.487245,308.231695 179.647959,337.783729 L179.647959,337.783729 Z" id="Shape" fill="#E4173E"></path>
                    <path d="M196.022449,280.49339 L200.202551,269.659831 L202.571939,281.465085 L196.022449,280.49339 Z" id="Shape" fill="#D69F0F"></path>
                    <path d="M111.990306,183.828814 L178.186224,161.051186 L211.769388,180.634576 L212.04949,183.688475 C212.04949,183.688475 210.786735,182.594746 208.608673,181.406441 C205.106633,179.493559 199.29949,177.126102 193.027041,177.126102 C189.229592,177.142881 185.479592,179.258644 182.74898,181.780169 C179.490306,184.78678 177.540306,188.168644 177.540306,188.168644 C177.540306,188.168644 173.306633,177.508983 154.180102,177.508983 C136.203061,177.508983 111.990306,183.828814 111.990306,183.828814 L111.990306,183.828814 Z" id="Shape" fill="#D69F0F"></path>
                    <path d="M93.3857143,173.134068 L96.6260204,183.168305 L184.177041,148.098814 L218.738265,178.203051 L217.933163,164.857119 C217.509184,165.026441 217.02551,165.146949 216.508163,165.146949 C212.816327,165.146949 205.778571,160.494407 205.778571,160.494407 L207.10102,159.383898 C207.10102,159.383898 211.910204,161.049661 213.860204,161.049661 C214.890306,161.049661 216.428571,160.624068 217.653061,160.222881 L216.857143,147.02339 L178.969898,94.269661 L170.519388,97.3022034 C170.519388,97.3022034 151.322449,89.5942373 133.972959,89.5942373 C105.206633,89.5942373 71.9234694,117.579661 71.9234694,146.745763 L90.3183673,147.995085 L140.696939,110.288136 L89.9005102,160.286949 C89.9005102,160.286949 85.9285714,151.537119 78.6122449,151.537119 C75.45,151.616441 67.8994898,156.766271 67.8994898,168.827797 C67.8994898,179.313559 72.8984694,185.007966 72.8984694,185.007966 L67.0806122,193.063729 C69.5357143,242.215932 68.794898,265.30322 51.7867347,260.283051 L76.5229592,272.297288 C76.5229592,272.297288 76.0362245,240.631017 76.0362245,231.742373 C76.0362245,215.469153 77.3709184,213.765254 79.3806122,213.826271 C84.8387755,213.826271 86.3142857,242.290678 86.9494898,260.571356 C87.3168367,271.157797 87.7071429,279.346271 87.7071429,279.346271 C87.7071429,279.346271 107.531633,301.048475 142.789286,304.102373 C112.216837,282.618305 115.69898,256.60678 117.982653,239.035424 C119.032653,230.953729 120.15,222.525763 122.162755,213.271017 C94.0821429,212.99339 93.872449,197.438644 93.872449,193.41 C93.872449,189.381356 94.4739796,187.315932 94.4739796,187.315932 C93.2464286,188.167119 87.5326531,192.612203 80.2515306,190.459831 C93.4193878,186.190169 93.3857143,173.134068 93.3857143,173.134068 L93.3857143,173.134068 Z M108.609184,128.047119 L87.8112245,141.849153 L76.2627551,141.484576 C76.2627551,138.808983 77.569898,115.807119 109.080612,101.068475 C106.461735,102.815085 104.193367,104.863729 101.869898,106.744576 C96.1714286,111.358983 87.6030612,119.660339 87.6030612,123.98339 C87.6015306,129.297966 94.5520408,131.277966 108.609184,128.047119 L108.609184,128.047119 Z M203.879082,137.041017 C204.140816,137.041017 210.933673,142.944407 210.933673,151.468475 C210.933673,153.759661 212.257653,155.704576 212.257653,155.704576 L211.839796,156.607627 C211.839796,156.607627 210.237245,155.704576 209.680102,155.704576 C209.122959,155.704576 208.356122,156.400169 206.543878,156.400169 C204.731633,156.400169 201.179082,154.177627 197.346429,149.872881 C197.346429,149.872881 197.833163,149.525085 198.462245,149.525085 C199.088265,149.525085 202.085204,152.511864 204.107143,152.511864 C206.129082,152.511864 205.570408,151.399831 208.356122,151.608814 C208.356122,151.608814 207.659694,149.525085 207.659694,148.06678 C207.659694,141.981864 203.687755,138.517627 203.687755,137.858644 C203.687755,137.161525 203.879082,137.041017 203.879082,137.041017 L203.879082,137.041017 Z M190.447959,137.05322 C190.651531,137.05322 193.723469,140.442712 195.517347,140.442712 C196.539796,140.442712 196.960714,139.974407 198.02602,139.974407 C198.02602,139.974407 197.929592,139.57322 197.947959,139.062203 C198.04898,137.402542 198.529592,136.703898 198.57398,135.442373 C198.630612,133.860508 196.838265,129.391017 196.789286,129.244576 C196.588776,128.651186 196.864286,127.066271 197.103061,127.336271 C198.009184,128.419322 201.561735,134.072542 201.561735,137.890678 C201.561735,139.701356 201.407143,140.615085 201.352041,142.161864 C201.296939,143.708644 202.180102,145.26 202.180102,145.26 L201.880102,146.066949 C201.880102,146.066949 200.638776,144.349322 198.547959,144.349322 C196.287245,144.349322 195.387245,143.879492 194.080102,142.682034 C192.772959,141.484576 189.846429,137.590169 189.855612,137.370508 C189.857143,137.222542 189.994898,137.05322 190.447959,137.05322 L190.447959,137.05322 Z M172.418878,109.766441 C172.418878,109.766441 169.963776,112.370339 169.963776,119.61 C169.963776,130.736441 175.84898,137.68322 182.453571,137.68322 C183.445408,137.68322 186.893878,137.005932 186.893878,137.005932 C186.893878,137.005932 185.118367,141.537966 179.631122,141.537966 C172.418878,141.537966 164.684694,131.746271 164.684694,123.361017 C164.684694,113.569322 172.418878,109.766441 172.418878,109.766441 L172.418878,109.766441 Z M145.417347,138.18661 C145.417347,136.845763 145.330102,136.575763 145.330102,135.425593 C145.330102,134.275424 146.285204,131.755424 146.862245,130.599153 C147.609184,129.105763 152.080102,124.398305 153.238776,123.585254 C153.543367,123.385424 153.745408,124.852881 153.472959,125.337966 C153.405612,125.458475 152.621939,126.25322 151.879592,127.421695 C150.964286,128.860169 150.062755,130.815763 150.062755,132.187119 C150.062755,133.280847 150.676531,133.711017 150.728571,135.155593 C150.728571,135.597966 150.485204,136.014407 150.485204,136.014407 C151.904082,136.014407 152.519388,137.091356 154.282653,137.091356 C158.828571,137.091356 161.790306,134.348644 162.644388,134.348644 C162.887755,134.348644 163.444898,134.478305 163.444898,134.835254 C163.444898,135.025932 161.354082,136.632203 158.566837,138.220169 C156.171429,139.586949 153.247959,140.981186 150.832653,140.981186 C147.75,140.981186 148.062245,140.390847 146.895918,140.390847 C145.728061,140.390847 144.212755,141.536441 144.212755,141.536441 L143.384694,141.393051 C143.389286,141.393051 145.417347,139.527458 145.417347,138.18661 L145.417347,138.18661 Z M130.942347,148.827966 C131.145918,148.367288 131.366327,145.525424 131.883673,143.55 C132.293878,141.98339 132.942857,141.338136 133.521429,140.181864 C134.961735,137.298814 140.554592,133.437966 141.831122,132.542542 C142.135714,132.342712 142.22449,133.047458 141.953571,133.532542 C141.766837,133.86661 138.870918,136.160847 137.25,139.348983 C136.513776,140.798136 136.256633,142.476102 136.256633,144.157119 C136.256633,145.441525 135.978061,146.46661 135.978061,146.46661 C138.055102,146.46661 139.570408,148.341356 140.960204,148.341356 C145.506122,148.341356 150.454592,145.572712 151.307143,145.572712 C151.55051,145.572712 152.568367,145.777119 152.568367,146.132542 C152.568367,146.487966 143.363265,152.107627 138.137755,152.107627 C135.055102,152.107627 133.068367,150.926949 131.902041,150.926949 C130.735714,150.926949 129.985714,151.657627 129.985714,151.657627 L129.463776,150.962034 C129.462245,150.963559 130.578061,149.654746 130.942347,148.827966 L130.942347,148.827966 Z M114.933673,154.844237 C115.429592,154.089153 116.625,149.470169 118.346939,147.110339 C119.044898,146.155424 123.09949,143.302881 123.364286,143.11678 C123.659694,142.907797 124.2,143.446271 123.852551,143.879492 C123.503571,144.314237 122.406122,145.04339 121.535204,146.866271 C120.664286,148.689153 120.577041,150.754576 120.211224,151.605763 C119.845408,152.456949 119.271429,153.151017 119.271429,153.151017 C123.172959,153.151017 122.035714,156.952373 129.72398,156.952373 C131.187245,156.952373 138.555612,155.80678 138.555612,155.80678 L140.854592,157.316949 C140.854592,157.316949 133.276531,160.807119 126.221939,160.807119 C119.846939,160.807119 117.756122,157.525932 114.202041,157.577797 C113.732143,157.577797 111.693367,157.994237 111.693367,157.994237 L111.379592,157.629661 C111.379592,157.629661 114.437755,155.599322 114.933673,154.844237 L114.933673,154.844237 Z M96.0336735,163.377458 C96.0336735,163.377458 97.8015306,162.912203 98.2285714,160.74 C99.3091837,155.236271 102.443878,155.080678 104.168878,153.465254 C104.543878,153.14339 104.79949,153.631525 104.586735,153.855763 C104.090816,154.375932 103.75102,155.391864 103.75102,155.756441 C103.75102,156.121017 104.038776,157.240678 104.038776,157.788305 C104.038776,159.298475 102.339796,160.653051 102.339796,160.653051 C106.35,160.653051 105.434694,163.517797 111.329082,163.517797 C112.740306,163.517797 113.210204,163.308814 113.889796,163.308814 C114.569388,163.308814 116.242347,163.67339 118.017857,165.470339 C113.889796,165.990508 112.452551,167.371017 107.932653,167.371017 C100.460204,167.371017 100.25051,164.115763 96.8540816,164.115763 C96.5142857,164.115763 96.4561224,164.330847 96.1285714,164.330847 C95.8010204,164.330847 95.5469388,164.21339 95.5469388,163.854915 C95.5454082,163.496441 96.0336735,163.377458 96.0336735,163.377458 L96.0336735,163.377458 Z M79.9377551,187.091695 C74.3280612,187.091695 71.7153061,178.549322 71.7153061,178.549322 C71.7153061,178.549322 74.2591837,182.588644 77.6602041,182.588644 C80.1030612,182.588644 86.7673469,177.043729 86.7673469,168.271017 C86.7673469,162.819153 85.5122449,160.492881 85.5122449,160.492881 C85.5122449,160.492881 90.3903061,166.400847 90.3903061,171.639153 C90.3887755,181.436949 83.3280612,187.091695 79.9377551,187.091695 L79.9377551,187.091695 Z" id="Shape" fill="#D69F0F"></path>
                    <path d="M75.3382653,107.995424 L77.0464286,115.738475 C80.3556122,110.425424 100.562755,82.8564407 139.339286,83.0486441 L144.895408,77.2581356 L115.821429,77.2505085 L91.0331633,97.0581356 L112.939286,71.4432203 L148.431122,71.4386441 L148.431122,61.2259322 L109.786224,61.2259322 L75.3382653,107.995424 L75.3382653,107.995424 Z" id="Shape" fill="#D69F0F"></path>
                    <path d="M229.596429,146.637458 L229.544388,184.382542 C246.632143,198.399661 257.130612,218.974576 257.130612,242.342542 C257.130612,274.695254 237.427041,301.525932 207.456122,313.103898 C201.055102,323.690339 195.603061,338.393898 200.410714,348.039153 C252.880102,337.162881 289.112755,294.936102 289.112755,242.368475 C289.114286,200.420847 265.552041,164.86322 229.596429,146.637458 L229.596429,146.637458 Z M275.543878,214.07339 C275.543878,214.07339 276.094898,215.504237 276.318367,217.668814 C276.567857,220.082034 276.883163,222.875085 275.292857,225.791695 C274.927041,226.462881 274.155612,227.088305 273.756122,227.818983 C272.540816,230.046102 272.895918,231.711864 272.895918,231.711864 C272.895918,231.711864 272.236224,229.704407 271.291837,229.034746 C270.34898,228.36661 269.889796,228.452034 267.465306,226.427797 C264.396429,223.865085 263.162755,216.54 263.162755,216.54 C265.682143,216.718475 267.564796,221.117797 270.561735,220.69678 C273.009184,220.352034 273.171429,214.877288 275.543878,214.07339 L275.543878,214.07339 Z M269.57449,199.107458 C269.57449,199.107458 270.35051,200.433051 270.919898,202.532034 C271.555102,204.875085 272.317347,207.581186 271.216837,210.714407 C270.964286,211.435932 270.303061,212.175763 270.027551,212.962881 C269.187245,215.354746 269.807143,216.941186 269.807143,216.941186 C269.807143,216.941186 268.832143,215.064915 267.792857,214.555424 C266.753571,214.047458 266.314286,214.206102 263.595918,212.59678 C260.153571,210.558814 257.755102,203.525085 257.755102,203.525085 C260.271429,203.299322 262.839796,207.340169 265.728061,206.44322 C268.085204,205.711017 267.362755,200.282034 269.57449,199.107458 L269.57449,199.107458 Z M230.479592,164.939492 C230.479592,164.939492 245.286735,170.286102 245.286735,174.453559 C245.286735,176.050678 244.310204,176.883559 242.917347,176.883559 C238.178571,176.883559 230.479592,164.939492 230.479592,164.939492 L230.479592,164.939492 Z M240.852551,181.041864 C243.151531,180 246.915306,182.97 249.344388,181.171525 C251.329592,179.705593 248.848469,174.81661 250.545918,172.981525 C250.545918,172.981525 251.718367,173.977627 252.95051,175.771525 C254.325,177.774407 255.941327,180.077797 255.941327,183.397119 C255.941327,184.161356 255.563265,185.078136 255.563265,185.909492 C255.563265,188.444746 256.67449,189.738305 256.67449,189.738305 C256.67449,189.738305 255.131633,188.289153 253.982143,188.150339 C252.832653,188.01 252.471429,188.305932 249.370408,187.680508 C245.445918,186.891864 240.852551,181.041864 240.852551,181.041864 L240.852551,181.041864 Z M250.333163,191.492542 C252.779082,190.864068 255.970408,194.438136 258.675,193.08661 C260.882143,191.983729 259.288776,186.743898 261.280102,185.229153 C261.280102,185.229153 262.262755,186.411356 263.162755,188.391356 C264.169898,190.600169 265.362245,193.147627 264.785204,196.418136 C264.652041,197.170169 264.120918,198.007627 263.977041,198.828305 C263.536224,201.325424 264.404082,202.789831 264.404082,202.789831 C264.404082,202.789831 263.138265,201.098136 262.030102,200.761017 C260.920408,200.426949 260.514796,200.655763 257.568367,199.504068 C253.841327,198.047288 250.333163,191.492542 250.333163,191.492542 L250.333163,191.492542 Z M218.096939,328.242203 C216.62449,332.142712 200.877551,331.955085 200.877551,331.955085 C200.877551,331.955085 212.302041,323.473729 216.736224,325.136441 C218.041837,325.624576 218.660204,326.745763 218.096939,328.242203 L218.096939,328.242203 Z M230.484184,321.640169 C230.190306,322.421186 230.220918,323.409661 229.95,324.125085 C228.777551,327.233898 226.452551,328.821864 224.456633,330.213051 C222.670408,331.460847 221.222449,331.982542 221.222449,331.982542 C220.281122,329.668475 224.328061,325.964746 222.988776,323.894746 C221.34949,321.361017 216.777551,322.819322 214.992857,321.037627 C214.992857,321.037627 221.358673,317.173729 225.310714,317.809831 C228.434694,318.31322 228.667347,318.715932 229.793878,318.988983 C230.918878,319.262034 232.875,318.445932 232.875,318.445932 C232.875,318.445932 231.378061,319.268136 230.484184,321.640169 L230.484184,321.640169 Z M244.813776,311.16661 C244.662245,311.985763 244.868878,312.954407 244.731122,313.706441 C244.129592,316.972373 242.12449,318.946271 240.408673,320.668475 C238.871939,322.212203 237.538776,322.982542 237.538776,322.982542 C236.20102,320.869831 239.52398,316.510169 237.837245,314.710169 C235.772449,312.505932 231.535714,314.749831 229.461735,313.312881 C229.461735,313.312881 235.037755,308.384237 239.041837,308.311017 C242.204082,308.254576 242.507143,308.608475 243.662755,308.678644 C244.819898,308.748814 246.596939,307.600169 246.596939,307.600169 C246.596939,307.600169 245.271429,308.674068 244.813776,311.16661 L244.813776,311.16661 Z M256.117347,301.535085 C256.140306,304.855932 254.539286,307.168475 253.177041,309.180508 C251.955612,310.985085 250.790816,311.987288 250.790816,311.987288 C249.079592,310.162881 251.527041,305.260169 249.534184,303.806441 C247.092857,302.024746 243.35051,305.019153 241.043878,303.992542 C241.043878,303.992542 245.59898,298.113559 249.517347,297.295932 C252.613776,296.649153 252.976531,296.943559 254.12602,296.797119 C255.27551,296.649153 256.807653,295.189322 256.807653,295.189322 C256.807653,295.189322 255.705612,296.492034 255.722449,299.025763 C255.727041,299.857119 256.112755,300.770847 256.117347,301.535085 L256.117347,301.535085 Z M263.557653,296.057288 C262.636224,298.029661 261.645918,299.204237 261.645918,299.204237 C259.668367,297.671186 261.309184,292.443559 259.111224,291.322373 C256.417347,289.947966 253.195408,293.491525 250.755612,292.840169 C250.755612,292.840169 254.323469,286.318983 258.064286,284.895763 C261.019898,283.773051 261.42398,284.00339 262.536735,283.678475 C263.647959,283.353559 264.929082,281.671017 264.929082,281.671017 C264.929082,281.671017 264.047449,283.129322 264.463776,285.629492 C264.601531,286.451695 265.126531,287.293729 265.252041,288.047288 C265.8,291.320847 264.584694,293.857627 263.557653,296.057288 L263.557653,296.057288 Z M271.558163,281.012034 C271.036224,283.124746 270.290816,284.467119 270.290816,284.467119 C268.053061,283.342881 268.656122,277.898644 266.282143,277.218305 C263.37398,276.385424 260.894388,280.481186 258.375,280.308814 C258.375,280.308814 260.617347,273.224746 264.015306,271.112034 C266.698469,269.44322 267.140816,269.592712 268.169388,269.060339 C269.196429,268.527966 270.128571,266.631864 270.128571,266.631864 C270.128571,266.631864 269.543878,268.232034 270.437755,270.604068 C270.730102,271.385085 271.408163,272.108136 271.677551,272.825085 C272.845408,275.935424 272.141327,278.65678 271.558163,281.012034 L271.558163,281.012034 Z M276.818878,265.856949 C276.636735,268.024576 276.111735,269.466102 276.111735,269.466102 C273.72398,268.706441 273.459184,263.236271 271.007143,262.938814 C268.002551,262.572712 266.202551,267.007119 263.687755,267.232881 C263.687755,267.232881 264.782143,259.884915 267.802041,257.264237 C270.189796,255.195763 270.64898,255.273559 271.579592,254.587119 C272.510204,253.899153 273.133163,251.881017 273.133163,251.881017 C273.133163,251.881017 272.808673,253.551356 274.065306,255.755593 C274.478571,256.480169 275.260714,257.090339 275.640306,257.753898 C277.285714,260.64 277.020918,263.437627 276.818878,265.856949 L276.818878,265.856949 Z M273.122449,248.097966 C270.062755,248.097966 267.583163,245.574915 267.583163,242.46 C267.583163,239.34661 270.062755,236.823559 273.122449,236.823559 C276.182143,236.823559 278.661735,239.34661 278.661735,242.46 C278.661735,245.57339 276.182143,248.097966 273.122449,248.097966 L273.122449,248.097966 Z" id="Shape" fill="#D69F0F"></path>
                    <path d="M203.043367,194.921695 L209.104592,197.629322 L208.216837,187.994746 C208.216837,187.994746 196.920918,177.280169 187.888776,184.974407 C185.014286,187.421186 176.182653,198.498814 176.182653,198.498814 C171.968878,189.974746 162.404082,184.602203 149.269898,184.295593 C142.992857,184.150678 135.526531,185.216949 126.693367,187.300678 C115.783163,189.871017 107.635714,193.063729 107.635714,193.063729 C107.635714,193.063729 105.893878,195.042203 105.893878,198.132712 C105.893878,207.784068 122.025,207.854237 124.602551,207.854237 C127.180102,207.854237 131.187245,207.680339 131.187245,207.680339 L127.215306,225.388983 L142.30102,227.489492 C142.30102,227.489492 130.52602,252.158644 130.52602,271.812203 C130.52602,273.211017 131.364796,277.113051 133.278061,279.033559 C134.879082,280.752712 141.607653,287.398983 147.075,292.262034 C148.677551,293.688305 150.335204,295.119153 151.726531,296.194576 C152.785714,297.013729 153.694898,297.596441 154.287245,297.991525 C155.534694,298.824407 156.746939,299.240847 157.70051,299.240847 C165.936735,299.240847 171.391837,298.022034 175.120408,296.949661 C176.97398,296.415763 180.590816,294.836949 181.487755,293.875932 C182.522449,292.768475 182.856122,289.978475 182.856122,289.519322 C182.856122,286.184746 181.95,280.560508 169.198469,280.560508 C156.446939,280.560508 151.203061,285.28322 151.203061,285.28322 L154.02551,276.116949 C154.02551,276.116949 154.725,274.96678 157.265816,274.085085 C159.417857,273.339153 162.887755,272.835763 168.45,272.835763 C173.257653,272.835763 181.77551,273.824237 181.77551,273.824237 L181.14949,265.647966 L176.026531,266.586102 L164.216327,264.76322 L138.678061,265.493898 L137.493367,264.487119 L168.606122,258.722542 L175.452551,260.232712 L181.097449,258.878136 L178.066837,255.961525 L174.668878,257.419831 L174.042857,250.492881 L155.332653,247.420678 L170.018878,242.159492 L179.320408,245.80678 L186.375,242.420339 L178.639286,212.317627 L181.617857,203.151356 L203.043367,194.921695 L203.043367,194.921695 Z M167.314286,214.105424 L154.946939,212.438136 L161.496429,207.263898 L153.120918,204.907119 C153.120918,204.907119 150.743878,208.931186 146.484184,208.931186 C140.813265,208.931186 139.128061,202.68 139.128061,202.68 L109.340816,198.82678 L143.963265,193.175085 L172.190816,204.556271 L167.314286,214.105424 L167.314286,214.105424 Z" id="Shape" fill="#FFFFFF"></path>
                    <path d="M195.779082,260.025254 L194.054082,256.01339 L188.828571,250.076441 L195.675,244.398814 L191.572959,235.780169 L186.893878,220.75322 L189.716327,210.596949 C189.716327,210.596949 191.545408,213.513559 194.419898,213.513559 C198.757653,213.513559 200.116837,207.212034 200.116837,207.212034 L205.917857,206.048136 L204.384184,211.464915 C204.384184,211.464915 209.488776,221.308475 209.488776,224.937458 L203.305102,235.179153 L195.779082,260.025254 L195.779082,260.025254 Z" id="Shape" fill="#FFFFFF"></path>
                    <path d="M165.168367,326.625254 L169.544388,311.586102 L154.963776,309.555763 L148.640816,315.18 L165.168367,326.625254 Z" id="Shape" fill="#FFFFFF"></path>
                </g>
            </g>
        </g>
    </g>
</svg>