<?xml version="1.0" encoding="UTF-8" standalone="no"?>
<!-- Created with Inkscape (http://www.inkscape.org/) -->
<svg
   xmlns:dc="http://purl.org/dc/elements/1.1/"
   xmlns:cc="http://creativecommons.org/ns#"
   xmlns:rdf="http://www.w3.org/1999/02/22-rdf-syntax-ns#"
   xmlns:svg="http://www.w3.org/2000/svg"
   xmlns="http://www.w3.org/2000/svg"
   xmlns:sodipodi="http://sodipodi.sourceforge.net/DTD/sodipodi-0.dtd"
   xmlns:inkscape="http://www.inkscape.org/namespaces/inkscape"
   id="svg2"
   sodipodi:version="0.32"
   inkscape:version="0.46"
   width="227"
   height="160"
   xml:space="preserve"
   sodipodi:docname="Philadelphia Flyers.svg"
   version="1.0"
   inkscape:output_extension="org.inkscape.output.svg.inkscape"><metadata
     id="metadata7"><rdf:RDF><cc:Work
         rdf:about=""><dc:format>image/svg+xml</dc:format><dc:type
           rdf:resource="http://purl.org/dc/dcmitype/StillImage" /></cc:Work></rdf:RDF></metadata><defs
     id="defs5"><inkscape:perspective
       sodipodi:type="inkscape:persp3d"
       inkscape:vp_x="0 : 526.18109 : 1"
       inkscape:vp_y="0 : 1000 : 0"
       inkscape:vp_z="744.09448 : 526.18109 : 1"
       inkscape:persp3d-origin="372.04724 : 350.78739 : 1"
       id="perspective9" /><clipPath
       clipPathUnits="userSpaceOnUse"
       id="clipPath17"><path
         d="M 0,2000 L 2000,2000 L 2000,0 L 0,0 L 0,2000 z"
         id="path19" /></clipPath></defs><sodipodi:namedview
     inkscape:window-height="904"
     inkscape:window-width="1280"
     inkscape:pageshadow="2"
     inkscape:pageopacity="0.0"
     guidetolerance="10.0"
     gridtolerance="10.0"
     objecttolerance="10.0"
     borderopacity="1.0"
     bordercolor="#666666"
     pagecolor="#ffffff"
     id="base"
     showgrid="false"
     inkscape:zoom="2.0907733"
     inkscape:cx="127.919"
     inkscape:cy="106.2067"
     inkscape:window-x="-4"
     inkscape:window-y="-4"
     inkscape:current-layer="g11" /><g
     id="g11"
     inkscape:groupmode="layer"
     inkscape:label="Philadelphia Flyers"
     transform="matrix(1.25,0,0,-1.25,0,2500)"><g
       id="g13"
       transform="matrix(9.8199673e-2,0,0,9.8199673e-2,-7.399673,1837.8003)"><g
         id="g15"
         clip-path="url(#clipPath17)"><g
           id="g21"
           transform="translate(683.8613,368.459)"><path
             d="M 0,0 L -5.736,0 L -234.485,0 C -297.327,0 -414.999,13.885 -497.028,106.883 C -583.044,204.398 -586.261,332.305 -587.319,374.334 L -587.358,375.912 L -587.619,386.166 L -577.361,386.166 L -498.041,386.166 C -498.159,386.283 -498.276,386.4 -498.396,386.518 C -511.166,399.154 -526.019,414.66 -540.662,438.816 C -547.687,450.402 -554.017,463.002 -558.967,475.255 C -561.525,481.586 -563.56,487.771 -565.713,494.32 C -566.636,497.125 -567.573,499.975 -568.569,502.881 C -583.031,545.047 -590.361,602.787 -590.361,674.5 L -590.361,684.499 L -580.362,684.499 L -498.324,684.499 C -527.204,717.657 -548.764,749.927 -564.32,795.253 C -579.615,839.817 -586.953,896.952 -585.542,960.479 C -585.512,961.833 -585.486,962.809 -585.486,963.374 L -585.486,973.364 L -575.499,973.373 L -486.314,973.472 C -513.273,1000.704 -534.325,1029.954 -549.045,1060.68 C -587.438,1140.802 -585.564,1221.876 -584.859,1252.397 L -584.634,1262.158 L -574.871,1262.165 C -564.121,1262.174 501.771,1263.082 643.14,1263.082 C 800.819,1263.082 947.688,1202.68 1056.688,1093.002 C 1108.937,1040.43 1149.924,979.272 1178.515,911.226 C 1207.793,841.538 1222.639,767.893 1222.639,692.333 C 1222.639,614.797 1207.474,539.716 1177.564,469.178 C 1148.698,401.102 1107.351,340.027 1054.674,287.648 C 1002.069,235.342 940.77,194.293 872.474,165.641 C 801.876,136.02 726.848,121 649.474,121 C 579.783,121 512.211,133.096 448.635,156.949 C 397.787,176.027 349.389,202.621 304.784,235.992 C 249.231,277.555 213.865,318.758 198.23,338.85 L 2.896,4.951 L 0,0 z"
             style="fill:#ffffff;fill-opacity:1;fill-rule:nonzero;stroke:none"
             id="path23" /></g><g
           id="g25"
           transform="translate(1327.001,1641.5415)"><path
             d="M 0,0 C -141.373,0 -1207.268,-0.907 -1218.018,-0.916 L -1237.544,-0.933 L -1237.996,-20.454 C -1238.717,-51.629 -1240.631,-134.438 -1201.204,-216.725 C -1189.029,-242.134 -1172.696,-266.534 -1152.428,-289.635 L -1218.648,-289.708 L -1238.626,-289.729 L -1238.626,-309.708 C -1238.626,-310.094 -1238.652,-311.257 -1238.677,-312.383 C -1240.115,-377.075 -1232.591,-435.408 -1216.918,-481.076 C -1203.452,-520.313 -1185.708,-549.972 -1162.863,-578.583 L -1223.501,-578.583 L -1243.501,-578.583 L -1243.501,-598.583 C -1243.501,-671.401 -1235.987,-730.233 -1221.17,-773.446 C -1220.201,-776.27 -1219.263,-779.124 -1218.355,-781.881 C -1216.245,-788.297 -1214.062,-794.932 -1211.378,-801.575 C -1206.234,-814.308 -1199.655,-827.405 -1192.354,-839.45 C -1182.933,-854.993 -1173.105,-867.387 -1164.634,-876.917 L -1220.501,-876.917 L -1241.018,-876.917 L -1240.494,-897.426 L -1240.454,-899 C -1239.374,-941.93 -1236.086,-1072.571 -1147.667,-1172.815 C -1110.628,-1214.803 -1062.761,-1245.405 -1005.394,-1263.764 C -955.501,-1279.731 -908.375,-1283.083 -877.626,-1283.083 L -648.876,-1283.083 L -637.405,-1283.083 L -631.613,-1273.182 L -443.584,-951.774 C -424.705,-974.391 -391.677,-1009.688 -344.347,-1045.098 C -298.983,-1079.036 -249.752,-1106.086 -198.02,-1125.495 C -133.315,-1149.774 -64.561,-1162.083 6.333,-1162.083 C 85.043,-1162.083 161.373,-1146.801 233.202,-1116.665 C 267.77,-1102.161 301.1,-1084.206 332.266,-1063.297 C 363.158,-1042.571 392.199,-1018.76 418.584,-992.526 C 444.988,-966.27 468.956,-937.366 489.82,-906.612 C 510.901,-875.54 529.005,-842.297 543.63,-807.809 C 574.066,-736.03 589.499,-659.635 589.499,-580.75 C 589.499,-503.854 574.39,-428.904 544.593,-357.984 C 530.165,-323.646 512.299,-290.503 491.489,-259.475 C 470.75,-228.551 446.912,-199.467 420.64,-173.031 C 394.198,-146.425 365.061,-122.272 334.037,-101.244 C 302.528,-79.887 268.765,-61.544 233.684,-46.726 C 160.279,-15.721 81.657,0 0,0 M 0,-20 C 324.545,-20 569.499,-278.761 569.499,-580.75 C 569.499,-892.555 317.176,-1142.083 6.333,-1142.083 C -293.919,-1142.083 -445.876,-916.083 -445.876,-916.083 L -648.876,-1263.083 L -877.626,-1263.083 C -940.548,-1263.083 -1054.147,-1248.602 -1132.667,-1159.584 C -1217.382,-1063.542 -1219.499,-936.143 -1220.501,-896.917 L -1117.167,-896.917 C -1117.167,-896.917 -1122.708,-891.127 -1134.501,-879.458 C -1145.322,-868.75 -1160.597,-853.258 -1175.251,-829.083 C -1181.442,-818.87 -1187.691,-806.813 -1192.834,-794.083 C -1196.366,-785.342 -1198.997,-776.448 -1202.251,-766.958 C -1217.137,-723.547 -1223.501,-665.411 -1223.501,-598.583 L -1119.001,-598.583 C -1157.278,-557.279 -1181.129,-523.743 -1198.001,-474.583 C -1222.676,-402.685 -1218.626,-317.708 -1218.626,-309.708 L -1104.417,-309.583 C -1140.203,-277.648 -1166.384,-243.111 -1183.167,-208.083 C -1218.677,-133.973 -1218.906,-60.075 -1218.001,-20.916 C -1218.001,-20.916 -143,-20 0,-20"
             style="fill:#000000;fill-opacity:1;fill-rule:nonzero;stroke:none"
             id="path27" /></g><g
           id="g29"
           transform="translate(1321.625,1581.707)"><path
             d="M 0,0 C -133.518,0 -1163.042,-0.02 -1163.042,-0.02 C -1163.042,-91.254 -1117.186,-170.875 -1088.25,-199.811 C -1051.114,-236.947 -995.431,-267.082 -913.292,-267.082 C -913.292,-267.082 -467.313,-267.374 -465.625,-267.374 C -462.563,-267.374 -455.063,-274.249 -455.063,-279.374 C -455.063,-284.499 -461.875,-292.311 -465.625,-292.311 L -1158.125,-292.311 C -1158.125,-303.604 -1159.281,-418.426 -1086.625,-491.082 C -1014.351,-563.356 -940.953,-556.521 -907.375,-563.249 L -641.125,-563.249 C -638.125,-563.249 -628.565,-573.083 -628.565,-576.592 C -628.565,-581.583 -637.625,-588.248 -641.125,-588.248 L -1165.625,-587.998 C -1165.625,-603.105 -1162.305,-691.357 -1114.5,-761.498 C -1064.003,-835.588 -977.5,-859.248 -927.125,-859.248 C -927.125,-859.248 -826,-859.373 -820.5,-859.373 C -815,-859.373 -806,-867.998 -806,-872.623 C -806,-877.373 -814.25,-885.123 -820.375,-885.123 C -826.5,-885.123 -1162.563,-884.998 -1162.563,-884.998 C -1162.563,-900.203 -1162.607,-988.465 -1090.125,-1068.248 C -1013.312,-1152.803 -935.259,-1158.248 -899.125,-1158.248 L -665.958,-1158.416 L -209.074,-388.618 L -209.074,-388.636 C -163.93,-314.001 -81.818,-264.082 12,-264.082 C 154.467,-264.082 269.958,-379.182 269.958,-521.166 C 269.958,-663.148 154.467,-778.249 12,-778.249 C -129.371,-778.249 -244.158,-664.908 -245.916,-524.433 L -418.747,-818.34 C -367.614,-888.504 -235.86,-1042.498 17.625,-1042.498 C 301.742,-1042.498 535.25,-809.652 535.25,-519.624 C 535.25,-259.197 329.556,0 0,0"
             style="fill:#000000;fill-opacity:1;fill-rule:nonzero;stroke:none"
             id="path31" /></g><g
           id="g33"
           transform="translate(1482.167,1060.4585)"><path
             d="M 0,0 C 0,-81.83 -66.551,-148.167 -148.646,-148.167 C -230.741,-148.167 -297.292,-81.83 -297.292,0 C -297.292,81.83 -230.741,148.167 -148.646,148.167 C -66.551,148.167 0,81.83 0,0"
             style="fill:#f4793e;fill-opacity:1;fill-rule:nonzero;stroke:none"
             id="path35" /></g></g></g></g></svg>