<?xml version="1.0" encoding="UTF-8" standalone="no"?>
<svg width="512px" height="512px" viewBox="0 0 512 512" version="1.1" xmlns="http://www.w3.org/2000/svg" xmlns:xlink="http://www.w3.org/1999/xlink" xmlns:sketch="http://www.bohemiancoding.com/sketch/ns">
    <!-- Generator: Sketch 3.2.2 (9983) - http://www.bohemiancoding.com/sketch -->
    <title>pittsburgh-penguins</title>
    <desc>Created with Sketch.</desc>
    <defs></defs>
    <g id="NHL" stroke="none" stroke-width="1" fill="none" fill-rule="evenodd" sketch:type="MSPage">
        <g id="pittsburgh-penguins" sketch:type="MSArtboardGroup">
            <g sketch:type="MSLayerGroup" transform="translate(79.000000, 89.000000)" id="layer1">
                <g transform="translate(1.280590, 0.886594)" sketch:type="MSShapeGroup">
                    <g id="g8" transform="translate(303.985336, 131.625651)" fill="#FFFFFF">
                        <path d="M2.41326923,0 C1.86771635,0.816 0.900697115,2.23071429 0,3.54278571 C2.37903846,4.34421429 4.84151442,5.27957143 7.27403846,6.28414286 C9.78786058,7.32214286 13.6965865,8.73471429 17.9326442,10.1974286 C17.8770192,8.32435714 17.8106971,6.1815 17.7764663,5.106 C15.4124038,4.31078571 4.92923077,0.853714286 2.41326923,0 L2.41326923,0 Z" id="path10"></path>
                    </g>
                    <g id="g16" transform="translate(2.142487, 0.865286)" fill="#FFFFFF">
                        <path d="M349.737909,140.890714 C347.934375,145.1115 342.628606,149.064643 341.42625,149.947714 C341.441226,150.904071 341.223005,152.075786 340.79512,153.369214 C339.847356,156.162857 335.662644,160.366929 327.284663,158.952214 C318.887428,157.5585 315.624808,156.162857 315.624808,156.162857 C315.624808,156.162857 311.442236,166.408286 302.131466,162.683357 C302.131466,162.683357 300.732284,175.276929 293.747067,179.0085 C286.76613,182.732786 238.785288,199.502786 238.785288,199.502786 C238.785288,199.502786 238.308197,200.546357 237.084447,201.6285 L226.716803,219.692143 L228.092452,227.470714 C228.092452,227.470714 236.472572,237.261429 236.472572,244.26 L230.420144,247.05 L229.142909,247.05 C229.722692,248.854286 230.400889,250.999286 230.762452,252.09 L239.020625,252.09 L239.020625,258.981429 L204.143964,258.981429 L162.826142,330.895714 L117.4447,253.722857 C113.009248,257.52 108.387666,259.851429 104.886072,259.851429 L96.4392019,259.870714 L13.5470409,259.870714 L27.7707812,234.231429 L104.374322,234.231429 C104.934209,234.231429 105.444034,234.214286 105.955784,234.18 L-1.13686838e-13,54.0338571 L54.4237139,54.0338571 C58.4832692,49.9658571 61.3558726,47.0884286 61.3558726,47.0884286 C61.3558726,47.0884286 67.4065889,41.0134286 69.7340673,34.4950714 C72.0656106,27.9700714 74.3930889,21.9141429 83.7049279,15.8517857 C93.0189062,9.80614286 99.0696226,6.53957143 105.141091,3.73114286 C111.191594,0.9375 119.571714,4.33209024e-13 126.556075,7.45607143 C133.542788,14.9162143 137.261534,18.1827857 139.593291,20.514 C141.920769,22.8495 146.575512,33.5721429 160.089178,27.9700714 C173.583803,22.3870714 193.622281,11.6644286 206.202089,12.1225714 C218.762428,12.5997857 239.720216,23.766 246.705433,31.7012143 C246.705433,31.7012143 252.280769,26.7773571 258.346034,27.4971429 C263.461394,28.125 265.808341,33.5721429 270.463726,42.8865 C270.463726,42.8865 281.173678,45.6758571 281.173678,51.7549286 C281.173678,51.7549286 281.428269,51.6880714 281.800529,51.7215 C282.005913,51.4997143 282.194183,51.2925 282.410264,51.075 C284.759351,48.7249286 286.169231,47.3102143 287.748125,46.2535714 C288.105409,46.017 288.496923,45.8642143 288.905553,45.7281429 C288.569663,44.841 288.105409,43.1082857 289.348413,42.1519286 C291.03,40.8252857 295.022163,39.3435 299.219712,43.0015714 C302.843894,46.1719286 302.944447,47.4317143 302.944447,47.4317143 C302.944447,47.4317143 306.003822,51.0895714 304.236659,54.0338571 L321.878341,54.0338571 L263.005697,156.520714 C263.153317,157.167214 263.326611,157.8285 263.480649,158.494071 C263.480649,158.494071 270.925841,161.283429 273.253534,164.077071 C273.253534,164.077071 279.761659,164.077071 283.043534,163.618929 C286.289038,163.160571 286.76613,163.160571 287.223966,161.283429 C287.701058,159.410571 287.701058,157.5585 286.76613,154.304571 C285.831202,151.038 284.434159,134.727857 288.635986,132.855 C289.874712,132.296357 291.507091,132.156 293.391923,132.329786 C293.409038,130.404643 293.443269,128.006357 293.443269,126.813643 C291.487837,126.166929 285.610841,124.208357 285.610841,124.208357 L287.769519,117.654214 L350.737019,138.526071 L349.737909,140.890714 L349.737909,140.890714 Z" id="path18"></path>
                    </g>
                    <g id="g20" transform="translate(210.449759, 247.915937)" fill="#FFFFFF">
                        <path d="M2.68711538,0 L0,4.665 L10.9645433,4.665 C11.2555048,3.62785714 11.8138942,1.66928571 12.2888462,0 L2.68711538,0 L2.68711538,0 Z" id="path22"></path>
                    </g>
                    <g id="g24" transform="translate(330.261731, 140.529857)" fill="#FFFFFF">
                        <path d="M2.99305288,0 C2.34052885,0.901928571 1.08254808,2.61985714 0,4.12028571 C2.73418269,5.02435714 5.26512019,5.85728571 7.32324519,6.51835714 C6.89963942,4.32321429 6.44180288,2.00678571 6.25353365,1.09007143 C5.16456731,0.732428571 4.24889423,0.424714286 2.99305288,0 L2.99305288,0 Z" id="path26"></path>
                    </g>
                    <g id="g28" transform="translate(177.408509, 247.915937)" fill="#FFFFFF">
                        <path d="M47.7797356,0 L45.7750962,7.02857143 L26.1608654,7.02857143 L23.5914183,0 L19.6655769,0 L17.4405769,7.02857143 L10.8982212,7.02857143 L6.91889423,0 L4.26814904,0 C3.16420673,1.60071429 0.288822115,6.06 0,9.58714286 L61.395024,9.58714286 L61.395024,7.38642857 L53.7637019,7.38642857 L51.4167548,0 L47.7797356,0 L47.7797356,0 Z" id="path30"></path>
                    </g>
                    <g id="g32" transform="translate(290.727332, 121.497223)" fill="#FFFFFF">
                        <path d="M7.15209135,12.0347143 C8.34375,12.2565 9.59959135,12.5663571 10.9110577,12.9366429 L14.7170913,7.33885714 L33.3471875,13.5162857 L33.5654087,21.1461429 C34.7741827,21.552 35.9979327,21.9621429 37.2024279,22.3722857 L41.6267548,16.2576429 L47.8460577,18.3188571 L49.4249519,26.3860714 C50.6615385,26.7962143 51.4980529,27.0662143 51.7376683,27.1352143 C51.7526442,27.1352143 51.7526442,27.1540714 51.771899,27.1540714 C53.218149,26.0972143 57.5675962,22.6757143 58.9945913,19.3212857 L0.678197115,0 L0,2.08007143 L7.23766827,4.47835714 L7.15209135,12.0347143 L7.15209135,12.0347143 Z" id="path34"></path>
                    </g>
                    <g id="g36" transform="translate(115.552876, 61.164429)" fill="#FFFFFF">
                        <path d="M44.3513101,99.1114286 C49.7227596,102.532929 55.0231803,105.669643 60.2256154,108.478071 C70.9845601,97.1715 94.4732861,72.4345714 112.930089,53.0316429 C107.273454,45.5567143 100.457252,37.59 92.3146082,29.2133571 C45.2873077,-19.2857143 12.8031635,8.46278571 7.09518269,17.5532143 C-6.41826923,39.0025714 3.37001923,73.0142143 44.3513101,99.1114286 L44.3513101,99.1114286 Z" id="path38"></path>
                    </g>
                    <g id="g40" transform="translate(190.362716, 125.550651)" fill="#FFFFFF">
                        <path d="M0,51.393 C27.8574279,64.0624286 50.2892788,66.816 57.5654567,58.5102857 C64.7539183,50.2692857 65.1454327,29.6547857 46.0746154,0 C30.0845673,17.8879286 10.7399038,39.4795714 0,51.393 L0,51.393 Z" id="path42"></path>
                    </g>
                    <g id="g44" transform="translate(42.083376, 48.412080)" fill="#FFFFFF">
                        <path d="M4.18064663,20.9785714 C0.457408654,25.1805 0,37.3032857 0,37.3032857 L30.2694135,11.1872143 L18.1536466,33.5573571 C18.1536466,33.5573571 38.6473942,24.2451429 40.5027019,19.5786429 C40.5027019,19.5786429 36.3075072,9.333 27.0080769,-3.55271368e-15 C27.0080769,-3.55271368e-15 7.92035817,16.7890714 4.18064663,20.9785714 L4.18064663,20.9785714 Z" id="path46"></path>
                    </g>
                    <g id="g48" transform="translate(328.304158, 150.949080)" fill="#FFFFFF">
                        <path d="M3.82528846,0.544071429 C1.58103365,1.09007143 6.461498e-14,2.55085714 0.3059375,3.79585714 C0.592620192,5.05564286 2.67,5.61664286 4.90997596,5.08928571 C7.175625,4.54521429 8.75451923,3.08228571 8.44644231,1.83728571 C8.15762019,0.5775 6.06740385,-5.0098814e-13 3.82528846,0.544071429 L3.82528846,0.544071429 Z" id="path50"></path>
                    </g>
                    <g id="g52" transform="translate(182.337740, 237.325937)" fill="#FFFFFF">
                        <path d="M0.800144231,6.18214286 C1.60028846,7.18714286 3.72473558,6.86142857 5.53896635,5.43214286 C7.36175481,4.02 8.20896635,2.02928571 7.41310096,1.02428571 C6.62793269,6.31050767e-13 4.50348558,0.325714286 2.67,1.75285714 C0.851490385,3.18642857 1.74638082e-13,5.17928571 0.800144231,6.18214286 L0.800144231,6.18214286 Z" id="path54"></path>
                    </g>
                    <g id="g56" transform="translate(81.840275, 22.879714)" fill="#FFFFFF">
                        <path d="M6.09863942,11.9155714 C5.81024519,8.57978571 9.6023726,6.2445 11.336375,3.33578571 C9.6023726,1.00457143 6.5415,7.5750517e-13 4.07624279,1.308 C3.63744712,8.13621429 1.59408413,14.3995714 0,20.6502857 C3.48276683,23.2701429 2.61565865,16.5820714 6.40778606,16.446 C8.58058413,15.6927857 9.73608654,17.7394286 11.0479808,19.0472143 C11.7751707,20.9389286 11.336375,23.4250714 9.89055288,25.0257857 L13.3735337,24.7182857 C14.8191418,22.9812857 15.2622163,20.3592857 14.5455096,18.1787143 C13.528,14.2467857 8.86897837,13.9557857 6.09863942,11.9155714 L6.09863942,11.9155714 Z" id="path58"></path>
                    </g>
                    <g id="g60" transform="translate(259.827644, 31.218857)" fill="#FFFFFF">
                        <path d="M6.26850962,7.81821429 C5.52185096,5.3655 4.283125,3.06364286 2.90747596,0.613285714 C1.98538462,2.90489854e-13 -1.29174449e-13,0.154928571 0.323052885,1.83942857 C2.13942308,3.67692857 2.90747596,8.27635714 6.26850962,7.81821429 L6.26850962,7.81821429 Z" id="path62"></path>
                    </g>
                    <g id="g64" transform="translate(252.177067, 32.309143)" fill="#FFFFFF">
                        <path d="M13.7714663,14.3847857 C10.2478365,9.63664286 7.03870192,4.73357143 3.21341346,0 C1.835625,0 0.310216346,0.749142857 0,2.28321429 C3.67125,6.26335714 7.97362981,10.2497143 11.1677885,14.2174286 C11.7796635,14.8305 13.0034135,15.9207857 13.7714663,14.3847857 L13.7714663,14.3847857 Z" id="path66"></path>
                    </g>
                    <g id="g68" transform="translate(245.448582, 36.584366)" fill="#FFFFFF">
                        <path d="M14.225024,16.6971429 C15.1406971,17.2956429 17.4534135,17.2956429 17.1496154,15.471 L4.5890625,1.07142857 C2.90319712,5.0437432e-13 0.9178125,1.07142857 0,2.75614286 C4.73882212,7.50428571 10.2478365,11.1831429 14.225024,16.6971429 L14.225024,16.6971429 Z" id="path70"></path>
                    </g>
                    <g id="g72" transform="translate(239.481731, 41.790857)" fill="#FFFFFF">
                        <path d="M18.3583894,12.7024286 L5.81067308,1.99435714 C3.82742788,-1.4899193e-13 0.915673077,0.309857143 0,3.37542857 C5.66091346,7.66328571 11.9144471,10.4046429 17.1325,15.6132857 C18.6793029,15.7660714 19.1221635,13.7927143 18.3583894,12.7024286 L18.3583894,12.7024286 Z" id="path74"></path>
                    </g>
                    <g id="g76" transform="translate(256.325408, 48.976937)" fill="#FFFFFF">
                        <path d="M17.1325,11.3359286 C19.2719231,8.12164286 24.6290385,8.42721429 23.25125,3.67692857 C22.9431731,1.54864286 20.0228606,-6.4903638e-13 17.4362981,0.627857143 C7.954375,6.89528571 1.20449519,16.5465 0,26.5075714 C1.35853365,28.0371429 3.19629808,28.1920714 5.18382212,28.1920714 C9.33216346,22.9645714 11.4566106,16.239 17.1325,11.3359286 L17.1325,11.3359286 Z" id="path78"></path>
                    </g>
                    <g id="g80" transform="translate(235.333389, 49.301366)" fill="#FFFFFF">
                        <path d="M18.2214663,13.9264286 C19.2911779,13.7717143 20.8230048,12.087 19.7490144,10.7080714 C13.6302644,7.18414286 7.97576923,2.45057143 1.37992788,0 C0.310216346,1.05685714 -2.41140441e-13,2.60528571 0.154038462,4.13507143 L18.2214663,13.9264286 L18.2214663,13.9264286 Z" id="path82"></path>
                    </g>
                    <g id="g84" transform="translate(232.731851, 57.404143)" fill="#FFFFFF">
                        <path d="M17.9176683,11.34 C18.9873798,11.0301429 20.2111298,9.65121429 19.1414183,8.73257143 C13.4805048,5.82364286 7.954375,2.14692857 1.85487981,0 C1.08896635,0.920571429 1.04916076e-13,2.60528571 0.934927885,3.37114286 C7.05367788,5.22514286 12.0898798,8.88728571 17.9176683,11.34 L17.9176683,11.34 Z" id="path86"></path>
                    </g>
                    <g id="g88" transform="translate(265.505673, 60.009429)" fill="#FFFFFF">
                        <path d="M0,17.3145 C0.898557692,19.4425714 2.58228365,19.4425714 4.72598558,18.8295 C10.8425962,15.4750714 15.1406971,8.88321429 16.3644471,1.99221429 C16.1954327,0.9165 14.836899,0.303428571 13.9169471,0 C7.49439904,4.28978571 3.51507212,11.0115 0,17.3145 L0,17.3145 Z" id="path90"></path>
                    </g>
                    <g id="g92" transform="translate(286.630336, 61.557857)" fill="#FFFFFF">
                        <path d="M0,1.07142857 L6.86540865,13.1586429 C6.59584135,8.13621429 4.41790865,3.89871429 1.49331731,0 C1.13817308,0.0670714286 0.800144231,0.1215 0.457836538,0.133928571 L0,1.07142857 L0,1.07142857 Z" id="path94"></path>
                    </g>
                    <g id="g96" transform="translate(283.093870, 65.678366)" fill="#FFFFFF">
                        <path d="M9.48620192,14.3869286 C9.63596154,9.03814286 4.59120192,4.75028571 1.835625,0 L0,3.67671429 L7.3425,14.6903571 C7.97362981,14.5542857 9.02408654,15 9.48620192,14.3869286 L9.48620192,14.3869286 Z" id="path98"></path>
                    </g>
                    <g id="g100" transform="translate(230.896226, 64.299223)" fill="#FFFFFF">
                        <path d="M15.7739663,6.41828571 C10.7120913,4.13507143 5.81709135,1.52978571 0.464254808,0 L0,1.37914286 C3.99430288,5.805 9.65521635,6.58564286 15.7739663,6.41828571 L15.7739663,6.41828571 Z" id="path102"></path>
                    </g>
                    <g id="g104" transform="translate(279.118822, 74.260286)" fill="#FFFFFF">
                        <path d="M0,1.98792857 C2.75129808,5.19171429 2.75129808,11.0112857 7.03442308,11.7773571 C8.10413462,7.33457143 4.895,3.21214286 2.29346154,0 C1.22375,0 0.149759615,0.901928571 0,1.98792857 L0,1.98792857 Z" id="path106"></path>
                    </g>
                    <g id="g108" transform="translate(273.761707, 80.845714)" fill="#FFFFFF">
                        <path d="M0.1390625,0 C-1.93123295e-13,4.58078571 3.36745192,8.71585714 5.506875,12.6814286 L8.10841346,13.1605714 C8.72028846,8.10278571 4.895,4.58078571 3.059375,0.613071429 L0.1390625,0 L0.1390625,0 Z" id="path110"></path>
                    </g>
                    <g id="g112" transform="translate(253.858654, 81.149143)" fill="#FFFFFF">
                        <path d="M0,2.43792857 C0.273846154,3.4425 0.376538462,4.75457143 0.834375,5.68992857 C2.04314904,4.86964286 3.62418269,4.51178571 5.16884615,4.63307143 C4.40507212,2.65971429 3.15992788,3.88578059e-15 0.462115385,0.5985 L0,2.43792857 L0,2.43792857 Z" id="path114"></path>
                    </g>
                    <g id="g116" transform="translate(263.036779, 83.128714)" fill="#FFFFFF">
                        <path d="M13.0226683,17.7728571 L13.1702885,13.0058571 C11.625625,8.40621429 10.1130529,4.13507143 6.29204327,0.458357143 C4.43716346,0.613285714 0.765913462,8.3272278e-13 0,2.14285714 C1.85487981,8.27014286 5.68016827,17.3104286 13.0226683,17.7728571 L13.0226683,17.7728571 Z" id="path118"></path>
                    </g>
                    <g id="g120" transform="translate(140.816450, 161.351589)" fill="#FFFFFF">
                        <path d="M5.21698317,10.4192143 C4.59227163,7.20064286 5.50730288,3.369 3.38242788,0.763714286 C2.60111058,8.58257909e-13 1.24300481,0.460285714 1.06971154,1.55057143 C4.09672296e-14,4.44042857 0.919310096,7.81371429 2.60111058,10.2642857 C3.38242788,11.0322857 4.28291106,11.0322857 5.21698317,10.4192143 L5.21698317,10.4192143 Z" id="path122"></path>
                    </g>
                    <g id="g124" transform="translate(148.615726, 161.979223)" fill="#FFFFFF">
                        <path d="M5.20436058,16.0688571 C3.99473077,10.9988571 7.36261058,2.74135714 1.85530769,0 C-2.11830553e-13,3.50935714 1.54808654,9.31435714 1.3976851,14.0813571 C1.3976851,15.921 3.67082212,16.8381429 5.20436058,16.0688571 L5.20436058,16.0688571 Z" id="path126"></path>
                    </g>
                    <g id="g128" transform="translate(129.189559, 162.418731)" fill="#FFFFFF">
                        <path d="M10.8455913,13.7925 C7.63217788,9.6555 12.2578245,-2.14285714 3.51849519,0.483428571 C-2.13942308,5.68992857 6.73169471,9.04435714 7.80140625,14.2549286 C8.56817548,14.5583571 10.4025168,15.0165 10.8455913,13.7925 L10.8455913,13.7925 Z" id="path130"></path>
                    </g>
                    <g id="g132" transform="translate(156.133025, 163.804080)" fill="#FFFFFF">
                        <path d="M0.288180288,0.1695 C2.2878921e-13,4.90307143 0.288180288,9.174 1.06971154,13.4828571 C2.27313702,13.7725714 4.10961779,14.5547143 5.19815625,13.173 C4.10961779,8.72828571 7.18696394,-9.20818977e-13 0.288180288,0.1695 L0.288180288,0.1695 Z" id="path134"></path>
                    </g>
                    <g id="g136" transform="translate(164.235226, 167.805223)" fill="#FFFFFF">
                        <path d="M0.766769231,0.592071429 C0.612088942,4.57864286 1.996181e-13,8.86842857 2.1456274,11.9464286 C4.74673798,11.3185714 3.21319952,7.48735714 3.8255024,5.17285714 C2.44856971,3.65785714 3.97996875,9.39914813e-13 0.766769231,0.592071429 L0.766769231,0.592071429 Z" id="path138"></path>
                    </g>
                    <g id="g140" transform="translate(124.141804, 168.855651)" fill="#FFFFFF">
                        <path d="M2.14370192,0 C1.07399038,1.536 0.307221154,3.21857143 0.154680288,5.058 C2.11081153e-13,9.65528571 3.52063462,12.7024286 5.81452404,16.2424286 C7.65100481,15.7667143 9.79042788,16.3795714 11.1673606,14.5602857 C9.31611779,9.34885714 7.17262981,3.38807143 2.14370192,0 L2.14370192,0 Z" id="path142"></path>
                    </g>
                    <g id="g144" transform="translate(131.638342, 181.725223)" fill="#FFFFFF">
                        <path d="M17.4412187,5.36785714 L17.6083077,3.06642857 L16.2168269,0.767142857 C9.80904087,7.58726415e-13 4.28291106,3.51 0.764629808,8.71928571 C-2.49800181e-15,10.2707143 0.612088942,11.9335714 1.06971154,13.1614286 C6.11939183,9.33428571 10.6906971,4.275 17.4412187,5.36785714 L17.4412187,5.36785714 Z" id="path146"></path>
                    </g>
                    <g id="g148" transform="translate(152.765145, 182.950937)" fill="#FFFFFF">
                        <path d="M10.8577861,3.04928571 C10.4025168,-5.7670535e-13 7.03870192,0.465 4.59013221,0.156428571 C2.43188221,0.6 -1.98341343e-13,1.84071429 0.457408654,4.44642857 C1.20962981,7.18714286 2.60111058,9.63642857 5.3526226,10.56 C8.10841346,8.73642857 11.7604087,6.74357143 10.8577861,3.04928571 L10.8577861,3.04928571 Z" id="path150"></path>
                    </g>
                    <g id="g152" transform="translate(165.459404, 187.705937)" fill="#FFFFFF">
                        <path d="M2.75579087,0.304285714 C0.154680288,0.902142857 0,4.29 0,6.72214286 C0.309360577,7.94785714 1.53353846,8.86928571 2.75579087,8.71285714 C4.43780529,7.48714286 4.43780529,5.05285714 4.60703365,2.89071429 C3.99473077,1.98857143 4.43780529,6.71906975e-13 2.75579087,0.304285714 L2.75579087,0.304285714 Z" id="path154"></path>
                    </g>
                    <g id="g156" transform="translate(171.121395, 191.361651)" fill="#FFFFFF">
                        <path d="M7.0380601,4.29214286 C6.57594471,2.92928571 5.96278606,-1.1812773e-13 3.51635577,0.460714286 C-2.09166018e-13,3.83142857 3.67082212,9.96214286 1.2222524,13.6371429 C2.29196394,15.1671429 1.53139904,17.9271429 3.99259135,18.2185714 C8.88866106,15.9364286 6.11746635,8.89071429 7.0380601,4.29214286 L7.0380601,4.29214286 Z" id="path158"></path>
                    </g>
                    <g id="g160" transform="translate(142.671775, 191.361651)" fill="#FFFFFF">
                        <path d="M7.34164423,1.22571429 C4.72170673,0.460714286 1.97019471,-2.68340905e-13 0,1.53642857 C1.52712019,10.2642857 9.9386899,33.54 13.3065697,33.6942857 C15.4459928,26.7985714 14.3762812,21.2828571 14.9883702,13.6371429 C13.46125,8.73428571 11.9150889,3.98571429 7.34164423,1.22571429 L7.34164423,1.22571429 Z" id="path162"></path>
                    </g>
                    <g id="g164" transform="translate(180.465745, 193.202366)" fill="#FFFFFF">
                        <path d="M0.445,0.456428571 L0,4.74642857 L2.8925,5.21142857 L3.65841346,2.77285714 C2.60367788,1.83857143 1.99180288,-7.78432874e-13 0.445,0.456428571 L0.445,0.456428571 Z" id="path166"></path>
                    </g>
                    <g id="g168" transform="translate(135.006222, 195.347366)" fill="#FFFFFF">
                        <path d="M3.20699519,0 C1.81551442,1.53 0.612088942,3.37071429 0,5.055 C0.336317308,9.465 1.3390649,13.7892857 3.00631731,17.8092857 C4.90976202,22.4207143 7.66555288,26.625 11.2820337,30.0985714 C11.7417957,30.5378571 12.2180312,30.9814286 12.6944808,31.3928571 C13.7641923,30.9342857 15.4648197,30.9342857 14.6835024,29.5542857 C10.5507788,24.2057143 4.74053365,3.37071429 3.20699519,0 L3.20699519,0 Z" id="path170"></path>
                    </g>
                    <g id="g172" transform="translate(158.882389, 197.796651)" fill="#FFFFFF">
                        <path d="M3.0608726,2.60571429 C3.0608726,9.80785714 3.98018269,17.6228571 1.06971154,23.73 C0.633055288,25.1121429 -1.91513472e-13,28.7892857 2.75579087,28.3307143 L2.89164423,27.105 C7.20814423,23.5821429 8.87539663,17.4664286 9.33280529,11.4921429 C8.26309375,7.66071429 9.79042788,-2.14285714 3.0608726,2.60571429 L3.0608726,2.60571429 Z" id="path174"></path>
                    </g>
                    <g id="g176" transform="translate(97.783461, 215.350937)" fill="#FFFFFF">
                        <path d="M22.2153413,18.0428571 C19.4240361,20.5821429 16.1104976,22.8792857 8.73333894,22.8792857 L0,42.2207143 L9.24508894,42.2207143 C12.8157861,42.2207143 19.1692308,38.4214286 24.5073053,32.0571429 C29.8413149,25.6885714 43.9146538,10.3178571 43.9146538,10.3178571 L38.1899856,2.14285714 C38.1899856,2.14285714 25.0192692,15.51 22.2153413,18.0428571 L22.2153413,18.0428571 Z" id="path178"></path>
                    </g>
                    <g id="g180" transform="translate(21.023323, 238.230223)" fill="#FFFFFF">
                        <path d="M0,19.3542857 L12.4585024,19.3542857 L23.2035409,0 L10.743113,0 C10.743113,0 0,19.3542857 0,19.3542857 L0,19.3542857 Z" id="path182"></path>
                    </g>
                    <g id="g184" transform="translate(169.420759, 87.877080)" fill="#FFFFFF">
                        <path d="M86.7698654,1.77021429 C85.0027019,3.54278571 0.597540865,92.2324286 0.597540865,92.2324286 C0.100338942,92.8795714 8.0310758e-14,93.5438571 0.152540865,94.191 C0.597540865,96.1302857 3.38264183,97.8831429 5.62646875,98.4145714 C6.74838221,98.6695714 7.73251683,98.6181429 8.20811058,98.1381429 C9.99666827,96.3724286 86.7698654,11.0805 90.7641683,6.19628571 C94.7563317,1.32664286 88.5520048,3.97903932e-13 86.7698654,1.77021429 L86.7698654,1.77021429 Z" id="path186"></path>
                    </g>
                    <g id="g188" transform="translate(283.382692, 48.843000)" fill="#FFFFFF">
                        <path d="M11.8117548,4.88228571 C15.3503606,1.32685714 9.58675481,3.74145159e-14 8.26245192,0.883285714 C6.93173077,1.76635714 5.59245192,3.09728571 3.38242788,5.328 C-2.13942308,10.8567857 4.92923077,11.7439286 11.8117548,4.88228571 L11.8117548,4.88228571 Z" id="path190"></path>
                    </g>
                    <g id="g192" transform="translate(213.372211, 60.178937)" fill="#D0BD7F">
                        <path d="M37.3436298,17.6031429 L35.4759135,13.4136429 C35.4759135,13.4136429 27.0915144,15.7448571 14.518125,8.74714286 C12.4621394,7.59 14.9952163,2.214 14.9952163,2.214 C14.9952163,2.214 14.2100481,1.12371429 12.9178365,0 L2.72348558,0 C-2.13942308,4.83385714 4.82867788,8.39142857 7.07507212,11.0826429 C8.31165865,12.5642143 17.744375,23.1863571 28.0628125,40.413 C33.2316587,34.9847143 37.1917308,30.8097857 39.1963702,28.7172857 L37.3436298,17.6031429 L37.3436298,17.6031429 Z" id="path194"></path>
                    </g>
                    <g id="g196" transform="translate(223.183606, 202.890223)" fill="#D0BD7F">
                        <path d="M0,5.87357143 L0.915673077,15.3707143 L8.49778846,2.15785714 C8.176875,2.15785714 7.84740385,2.15785714 7.51151442,2.14285714 C7.51151442,2.14285714 0,5.87357143 0,5.87357143 L0,5.87357143 Z" id="path198"></path>
                    </g>
                    <g id="g200" transform="translate(203.515889, 247.915937)" fill="#D0BD7F">
                        <path d="M1.36067308,3.78214286 L3.53646635,0 L0,0 C0.479230769,1.29642857 0.988413462,2.72571429 1.36067308,3.78214286 L1.36067308,3.78214286 Z" id="path202"></path>
                    </g>
                    <g id="g204" transform="translate(11.387567, 60.178937)" fill="#D0BD7F">
                        <path d="M123.15482,154.216286 L123.328113,154.047 C119.690666,146.133429 119.638464,138.794143 119.638464,138.794143 C119.638464,138.794143 116.391675,130.880571 117.789575,129.007714 C117.789575,129.007714 107.05887,120.153429 110.326625,109.430143 L107.05887,104.305286 C104.273983,99.1804286 74.919601,55.821 85.1862644,36.2590714 C85.1862644,36.2590714 92.1708389,28.3257857 87.0394327,18.0615 C81.9227885,7.81178571 76.7915962,11.5429286 73.0683582,13.4136429 C69.3431947,15.2678571 39.5354688,32.9925 39.5354688,32.9925 L47.4560409,14.8095 C47.4560409,14.8095 32.5511082,29.2465714 28.3494952,34.3862143 C28.3494952,34.3862143 25.1069856,14.8095 33.9612019,5.93892857 C35.9461587,3.95078571 37.9706947,1.92514286 39.9073005,0 L0,0 L102.182483,173.759143 C104.018964,173.013429 105.31032,171.989143 106.501123,170.898429 C109.202572,168.447 123.021106,154.353429 123.15482,154.216286 L123.15482,154.216286 Z" id="path206"></path>
                    </g>
                    <g id="g208" transform="translate(248.082211, 60.178937)" fill="#D0BD7F">
                        <path d="M43.7126923,0 C43.3233173,0.200785714 42.9510577,0.389142857 42.5574038,0.558642857 C44.9899279,3.0825 48.8644231,8.45828571 46.8726202,15.7448571 C46.8726202,15.7448571 46.8726202,20.8697143 44.0870913,20.8697143 C44.0870913,20.8697143 44.5449279,32.5131429 37.561851,31.1194286 C37.561851,31.1194286 38.4946394,46.9671429 19.8688221,40.9067143 C19.8688221,40.9067143 15.9921875,40.6493571 12.1176923,38.676 C9.56963942,41.5512857 5.30362981,46.3727143 0,52.3137857 C5.65877404,63.21 11.0971875,75.8914286 15.1428365,89.9539286 L66.8291587,0 L43.7126923,0 L43.7126923,0 Z" id="path210"></path>
                    </g>
                    <g id="g212" transform="translate(187.029495, 247.915937)" fill="#D0BD7F">
                        <path d="M2.64860577,4.665 L6.10377404,4.665 C6.40757212,3.66214286 7.03870192,1.72071429 7.57783654,0 L0,0 C1.06971154,1.90928571 2.19076923,3.88285714 2.64860577,4.665 L2.64860577,4.665 Z" id="path214"></path>
                    </g>
                    <g id="g216" transform="translate(123.496332, 184.521651)" fill="#D0BD7F">
                        <path d="M84.3711442,7.93285714 C83.9133077,6.53785714 63.8904471,1.41214286 61.5435,0 C61.5435,0 57.1940529,0.765 60.6278269,4.20214286 C64.3482837,7.93285714 63.8904471,13.5342857 61.0856635,20.9721429 L57.8230433,21.9064286 C57.8230433,21.9064286 51.3147043,34.0285714 47.1340577,32.1707143 C47.1340577,32.1707143 41.5244904,44.2928571 34.5399159,44.7535714 C29.8808942,45.06 25.8318221,45.9985714 21.1601779,42.6964286 C17.9655913,46.1828571 5.7475601,59.4792857 1.1888774,64.8942857 C0.800144231,65.3721429 0.409485577,65.8285714 0,66.2721429 L41.4198726,136.733571 L76.7055913,75.3257143 L51.3482933,75.3257143 L51.5697236,72.7735714 C51.8392909,69.3385714 54.0319856,65.4407143 55.4910721,63.1907143 C55.4910721,61.5407143 55.9210962,50.355 67.1359519,50.355 C67.1359519,50.355 78.7765529,49.8771429 80.1885721,48.4821429 C81.5856154,47.0871429 80.6506875,37.7592857 80.6506875,37.7592857 L84.3711442,37.7592857 C84.3711442,37.7592857 84.3711442,29.8414286 82.9783798,25.1785714 C81.5856154,20.5114286 80.1885721,14.9292857 80.6506875,13.0585714 C81.108524,11.1985714 84.8482356,9.32571429 84.3711442,7.93285714 L84.3711442,7.93285714 Z" id="path218"></path>
                    </g>
                    <g id="g220" transform="translate(0.003064, 0.865286)" fill="#000000">
                        <path d="M289.908942,117.654214 L287.750264,124.208357 C287.750264,124.208357 293.62726,126.166929 295.582692,126.813643 C295.582692,128.006357 295.548462,130.404643 295.531346,132.329786 C293.646514,132.156 292.014135,132.296357 290.775409,132.855 C286.573582,134.727857 287.970625,151.038 288.905553,154.304571 C289.840481,157.5585 289.840481,159.410571 289.363389,161.283429 C288.905553,163.160571 288.428462,163.160571 285.182957,163.618929 C281.901082,164.077071 275.392957,164.077071 275.392957,164.077071 C273.065264,161.283429 265.620072,158.494071 265.620072,158.494071 C265.466034,157.8285 265.29274,157.167214 265.14512,156.520714 L324.017764,54.0338571 L306.376082,54.0338571 C308.143245,51.0895714 305.08387,47.4317143 305.08387,47.4317143 C305.08387,47.4317143 304.983317,46.1719286 301.359135,43.0015714 C297.161587,39.3435 293.169423,40.8252857 291.487837,42.1519286 C290.244832,43.1082857 290.709087,44.841 291.044976,45.7281429 C290.636346,45.8642143 290.244832,46.017 289.887548,46.2535714 C288.308654,47.3102143 286.898774,48.7249286 284.549688,51.075 C284.333606,51.2925 284.145337,51.4997143 283.939952,51.7215 C283.567692,51.6880714 283.313101,51.7549286 283.313101,51.7549286 C283.313101,45.6758571 272.603149,42.8865 272.603149,42.8865 C267.947764,33.5721429 265.600817,28.125 260.485457,27.4971429 C254.420192,26.7773571 248.844856,31.7012143 248.844856,31.7012143 C241.859639,23.766 220.901851,12.5997857 208.341512,12.1225714 C195.761704,11.6644286 175.723226,22.3870714 162.228601,27.9700714 C148.714935,33.5721429 144.060192,22.8495 141.732714,20.514 C139.400957,18.1827857 135.682212,14.9162143 128.695498,7.45607143 C121.711137,4.08562073e-13 113.331017,0.9375 107.280514,3.73114286 C101.209046,6.53957143 95.1583293,9.80614286 85.844351,15.8517857 C76.532512,21.9141429 74.2050337,27.9700714 71.8734904,34.4950714 C69.546012,41.0134286 63.4952957,47.0884286 63.4952957,47.0884286 C63.4952957,47.0884286 60.6226923,49.9658571 56.563137,54.0338571 L2.13942308,54.0338571 L108.095207,234.18 C107.583457,234.214286 107.073632,234.231429 106.513745,234.231429 L29.9102043,234.231429 L15.6864639,259.870714 L98.578625,259.870714 L107.025495,259.851429 C110.527089,259.851429 115.148671,257.52 119.584123,253.722857 L164.965565,330.895714 L206.283387,258.981429 L241.160048,258.981429 L241.160048,252.09 L232.901875,252.09 C232.540312,250.999286 231.862115,248.854286 231.282332,247.05 L232.559567,247.05 L238.611995,244.26 C238.611995,237.261429 230.231875,227.470714 230.231875,227.470714 L228.856226,219.692143 L239.22387,201.6285 C240.44762,200.546357 240.924712,199.502786 240.924712,199.502786 C240.924712,199.502786 288.905553,182.732786 295.88649,179.0085 C302.871707,175.276929 304.270889,162.683357 304.270889,162.683357 C313.581659,166.408286 317.764231,156.162857 317.764231,156.162857 C317.764231,156.162857 321.026851,157.5585 329.424087,158.952214 C337.802067,160.366929 341.986779,156.162857 342.934543,153.369214 C343.362428,152.075786 343.580649,150.904071 343.565673,149.947714 C344.768029,149.064643 350.073798,145.1115 351.877332,140.890714 L352.876442,138.526071 L289.908942,117.654214 L289.908942,117.654214 Z M286.761851,53.3057143 C288.971875,51.075 290.311154,49.7440714 291.641875,48.861 C292.966178,47.9777143 298.729784,49.3045714 295.191178,52.86 C288.308654,59.7216429 281.24,58.8345 286.761851,53.3057143 L286.761851,53.3057143 Z M288.120385,60.6925714 C291.044976,64.5912857 293.222909,68.8287857 293.492476,73.8512143 L286.627067,61.764 L287.084904,60.8265 C287.427212,60.8140714 287.76524,60.7596429 288.120385,60.6925714 L288.120385,60.6925714 Z M284.926226,64.8130714 C287.681803,69.5633571 292.726563,73.8512143 292.576803,79.2 C292.114688,79.8130714 291.064231,79.3673571 290.433101,79.5034286 L283.090601,68.4897857 L284.926226,64.8130714 L284.926226,64.8130714 Z M273.8975,79.9804286 L276.817813,80.5935 C278.653438,84.5612143 282.478726,88.0832143 281.866851,93.141 L279.265313,92.6618571 C277.125889,88.6962857 273.758438,84.5612143 273.8975,79.9804286 L273.8975,79.9804286 Z M276.203798,95.2692857 L276.056178,100.036286 C268.713678,99.5738571 264.888389,90.5335714 263.03351,84.4062857 C263.799423,82.2634286 267.470673,82.8767143 269.325553,82.7217857 C273.146563,86.3985 274.659135,90.6696429 276.203798,95.2692857 L276.203798,95.2692857 Z M279.115553,75.3829286 C279.265312,74.2969286 280.339303,73.395 281.409014,73.395 C284.010553,76.6071429 287.219687,80.7295714 286.149976,85.1723571 C281.866851,84.4062857 281.866851,78.5867143 279.115553,75.3829286 L279.115553,75.3829286 Z M281.866851,61.1363571 C280.643101,68.0273571 276.345,74.6192143 270.228389,77.9736429 C268.084688,78.5867143 266.400962,78.5867143 265.502404,76.4586429 C269.017476,70.1556429 272.996803,63.4339286 279.419351,59.1441429 C280.339303,59.4475714 281.697837,60.0606429 281.866851,61.1363571 L281.866851,61.1363571 Z M273.758437,48.7395 C276.345,48.1116429 279.265312,49.6602857 279.573389,51.7885714 C280.951178,56.5388571 275.594062,56.2332857 273.454639,59.4475714 C267.77875,64.3506429 265.654303,71.0762143 261.505962,76.3037143 C259.518437,76.3037143 257.680673,76.1487857 256.322139,74.6192143 C257.526635,64.6581429 264.276514,55.0069286 273.758438,48.7395 L273.758437,48.7395 Z M177.625815,185.149929 C177.150221,185.629929 176.166087,185.681357 175.044173,185.426357 C172.800346,184.894929 170.015245,183.142071 169.570245,181.202786 C169.417704,180.555643 169.518043,179.891357 170.015245,179.244214 C170.015245,179.244214 254.420192,90.5545714 256.187356,88.782 C257.969495,87.0117857 264.173822,88.3384286 260.181659,93.2080714 C256.187356,98.0922857 179.414373,183.384214 177.625815,185.149929 L177.625815,185.149929 Z M184.121103,195.109929 L183.35519,197.5485 L180.46269,197.0835 L180.90769,192.7935 C182.454493,192.337071 183.066368,194.175643 184.121103,195.109929 L184.121103,195.109929 Z M175.110923,208.714929 C172.649731,208.4235 173.410296,205.6635 172.340584,204.1335 C174.789154,200.4585 171.118332,194.327786 174.634688,190.957071 C177.081118,190.496357 177.694276,193.425643 178.156392,194.7885 C177.235798,199.387071 180.006993,206.432786 175.110923,208.714929 L175.110923,208.714929 Z M135.306101,182.550643 C133.929168,184.369929 131.789745,183.757071 129.953264,184.232786 C127.659375,180.692786 124.13874,177.645643 124.293421,173.048357 C124.445962,171.208929 125.212731,169.526357 126.282442,167.990357 C131.31137,171.378429 133.454858,177.339214 135.306101,182.550643 L135.306101,182.550643 Z M132.70499,162.036857 C141.44432,159.410571 136.818673,171.208929 140.032087,175.345929 C139.589012,176.569929 137.754671,176.111786 136.987901,175.808357 C135.91819,170.597786 127.047072,167.243357 132.70499,162.036857 L132.70499,162.036857 Z M132.399909,189.579214 C135.91819,184.369929 141.44432,180.859929 147.852106,181.627071 L149.243587,183.926357 L149.076498,186.227786 C142.325976,185.134929 137.754671,190.194214 132.70499,194.021357 C132.247368,192.7935 131.635279,191.130643 132.399909,189.579214 L132.399909,189.579214 Z M141.883115,162.036857 C142.056409,160.946571 143.414514,160.486286 144.195832,161.25 C146.320707,163.855286 145.405675,167.686929 146.030387,170.9055 C145.096315,171.518571 144.195832,171.518571 143.414514,170.750571 C141.732714,168.3 140.813404,164.926714 141.883115,162.036857 L141.883115,162.036857 Z M138.210154,194.482071 C139.743692,197.852786 145.553937,218.687143 149.686661,224.035714 C150.467978,225.415714 148.767351,225.415714 147.697639,225.874286 C147.22119,225.462857 146.744954,225.019286 146.285192,224.58 C142.668712,221.106429 139.912921,216.902143 138.009476,212.291357 C136.342224,208.271357 135.339476,203.947071 135.003159,199.537071 C135.615248,197.852786 136.818673,196.012071 138.210154,194.482071 L138.210154,194.482071 Z M142.668712,192.032786 C144.638906,190.496357 147.390418,190.957071 150.010356,191.722071 C154.5838,194.482071 156.129962,199.230643 157.657082,204.1335 C157.044993,211.779214 158.114704,217.294286 155.975281,224.19 C152.607401,224.035714 144.195832,200.760643 142.668712,192.032786 L142.668712,192.032786 Z M153.817031,177.182786 C152.283493,177.952071 150.010356,177.034929 150.010356,175.195286 C150.160757,170.428286 148.612671,164.623286 150.467978,161.113929 C155.975281,163.855286 152.607401,172.112786 153.817031,177.182786 L153.817031,177.182786 Z M153.21949,186.532071 C152.762082,183.926357 155.193964,182.685643 157.352214,182.242071 C159.800784,182.550643 163.164599,182.085643 163.619868,185.134929 C164.52249,188.829214 160.870495,190.822071 158.114704,192.645643 C155.363192,191.722071 153.971712,189.272786 153.21949,186.532071 L153.21949,186.532071 Z M161.328118,176.111786 C160.239579,177.4935 158.403099,176.711357 157.199673,176.421643 C156.418142,172.112786 156.129962,167.841857 156.418142,163.108286 C163.316925,162.938786 160.239579,171.667071 161.328118,176.111786 L161.328118,176.111786 Z M159.949046,220.660714 C162.859517,214.553571 161.940207,206.739214 161.940207,199.537071 C168.669762,194.7885 167.142428,204.592071 168.212139,208.4235 C167.754731,214.397143 166.087478,220.512857 161.770978,224.035714 L161.635125,225.261429 C158.879334,225.72 159.512389,222.042857 159.949046,220.660714 L159.949046,220.660714 Z M166.377798,178.886357 C164.232171,175.808357 164.84426,171.518571 164.99894,167.532 C168.212139,166.939929 166.68074,170.597786 168.057673,172.112786 C167.44537,174.427286 168.978909,178.2585 166.377798,178.886357 L166.377798,178.886357 Z M165.456349,193.562786 C165.456349,191.130643 165.611029,187.742786 168.212139,187.144929 C169.894154,186.840643 169.451079,188.829214 170.063382,189.731357 C169.894154,191.8935 169.894154,194.327786 168.212139,195.5535 C166.989887,195.709929 165.765709,194.7885 165.456349,193.562786 L165.456349,193.562786 Z M253.855385,82.7217857 L254.3175,80.8823571 C257.015312,80.2838571 258.260457,82.9435714 259.024231,84.9169286 C257.479567,84.7956429 255.898534,85.1535 254.68976,85.9737857 C254.231923,85.0384286 254.129231,83.7263571 253.855385,82.7217857 L253.855385,82.7217857 Z M262.731851,30.9668571 C264.1075,33.4172143 265.346226,35.7190714 266.092885,38.1717857 C262.731851,38.6299286 261.963798,34.0305 260.147428,32.193 C259.824375,30.5085 261.80976,30.3535714 262.731851,30.9668571 L262.731851,30.9668571 Z M255.387212,31.4438571 C259.2125,36.1774286 262.421635,41.0805 265.945264,45.8286429 C265.177212,47.3646429 263.953462,46.2743571 263.341587,45.6612857 C260.147428,41.6935714 255.845048,37.7072143 252.173798,33.7270714 C252.484014,32.193 254.009423,31.4438571 255.387212,31.4438571 L255.387212,31.4438571 Z M250.034375,36.7905 L262.594928,51.1900714 C262.898726,53.0147143 260.58601,53.0147143 259.670337,52.4162143 C255.693149,46.9022143 250.184135,43.2233571 245.445313,38.4752143 C246.363125,36.7905 248.34851,35.7190714 250.034375,36.7905 L250.034375,36.7905 Z M245.289135,42.9199286 L257.836851,53.628 C258.600625,54.7182857 258.157764,56.6916429 256.610962,56.5388571 C251.392909,51.3302143 245.139375,48.5888571 239.478462,44.301 C240.394135,41.2354286 243.305889,40.9255714 245.289135,42.9199286 L245.289135,42.9199286 Z M236.710048,48.4360714 C243.305889,50.8866429 248.960385,55.6202143 255.079135,59.1441429 C256.153125,60.5230714 254.621298,62.2077857 253.551587,62.3625 L235.484159,52.5711429 C235.33012,51.0413571 235.640337,49.4929286 236.710048,48.4360714 L236.710048,48.4360714 Z M234.583462,56.5388571 C240.682957,58.6857857 246.209087,62.3625 251.87,65.2714286 C252.939712,66.1900714 251.715962,67.569 250.64625,67.8788571 C244.818462,65.4261429 239.78226,61.764 233.66351,59.91 C232.728582,59.1441429 233.817548,57.4594286 234.583462,56.5388571 L234.583462,56.5388571 Z M231.357212,63.4339286 C236.710048,64.9637143 241.605048,67.569 246.666923,69.8522143 C240.548173,70.0195714 234.88726,69.2389286 230.892957,64.8130714 L231.357212,63.4339286 L231.357212,63.4339286 Z M216.092428,59.3136429 L226.286779,59.3136429 C227.57899,60.4373571 228.364159,61.5276429 228.364159,61.5276429 C228.364159,61.5276429 225.831082,66.9036429 227.887067,68.0607857 C240.460457,75.0585 248.844856,72.7272857 248.844856,72.7272857 L250.712572,76.9167857 C250.712572,76.9167857 250.712572,76.9167857 252.565313,88.0309286 C250.560673,90.1234286 246.600601,94.2983571 241.431755,99.7266429 C231.113317,82.5 221.680601,71.8778571 220.444014,70.3962857 C218.19762,67.7050714 211.229733,64.1475 216.092428,59.3136429 L216.092428,59.3136429 Z M122.644995,77.8523571 C128.352976,68.7619286 160.83712,41.0134286 207.864421,89.5125 C216.007065,97.8891429 222.823053,105.855857 228.479688,113.330786 C210.023099,132.733714 186.534373,157.470643 175.775428,168.777214 C170.572993,165.968786 165.272572,162.832071 159.901123,159.410571 C118.919832,133.313357 109.131543,99.3017143 122.644995,77.8523571 L122.644995,77.8523571 Z M85.9134543,23.3224286 C88.3787115,22.0144286 91.4395841,23.019 93.1735865,25.3502143 C91.4395841,28.2589286 87.6474567,30.5942143 87.935851,33.93 C90.7061899,35.9702143 95.3652115,36.2612143 96.3827212,40.1931429 C97.0994279,42.3737143 96.6563534,44.9957143 95.2107452,46.7327143 L91.7277644,47.0402143 C93.1735865,45.4395 93.6123822,42.9533571 92.8851923,41.0616429 C91.5732981,39.7538571 90.4177957,37.7072143 88.2449976,38.4604286 C84.4528702,38.5965 85.3199784,45.2845714 81.8372115,42.6647143 C83.4312957,36.414 85.4746587,30.1506429 85.9134543,23.3224286 L85.9134543,23.3224286 Z M69.0883894,47.5467857 C78.3878197,56.8797857 82.5830144,67.1254286 82.5830144,67.1254286 C80.7277067,71.7919286 60.2339591,81.1041429 60.2339591,81.1041429 L72.349726,58.734 L42.0803125,84.8500714 C42.0803125,84.8500714 42.5377212,72.7272857 46.2609591,68.5253571 C50.0006707,64.3358571 69.0883894,47.5467857 69.0883894,47.5467857 L69.0883894,47.5467857 Z M11.384512,59.3136429 L51.2918125,59.3136429 C49.3552067,61.2387857 47.3306707,63.2644286 45.3457139,65.2525714 C36.4914976,74.1231429 39.7340072,93.6998571 39.7340072,93.6998571 C43.9356202,88.5602143 58.8405529,74.1231429 58.8405529,74.1231429 L50.9199808,92.3061429 C50.9199808,92.3061429 80.7277067,74.5815 84.4528702,72.7272857 C88.1761082,70.8565714 93.3073005,67.1254286 98.4239447,77.3751429 C103.555351,87.6394286 96.5707764,95.5727143 96.5707764,95.5727143 C86.304113,115.134643 115.658495,158.494071 118.443382,163.618929 L121.711137,168.743786 C118.443382,179.467071 129.174087,188.321357 129.174087,188.321357 C127.776187,190.194214 131.022976,198.107786 131.022976,198.107786 C131.022976,198.107786 131.075178,205.447071 134.712625,213.360643 L134.539332,213.529929 C134.405618,213.667071 120.587084,227.76 117.885635,230.211429 C116.694832,231.302143 115.403476,232.326429 113.566995,233.072143 L11.384512,59.3136429 L11.384512,59.3136429 Z M33.478762,256.718571 L21.0202596,256.718571 L31.7633726,237.364286 L44.2238005,237.364286 L33.478762,256.718571 L33.478762,256.718571 Z M107.025495,256.705714 L97.7804063,256.705714 L106.513745,237.364286 C113.890904,237.364286 117.204442,235.067143 119.995748,232.527857 C122.799675,229.995 135.970392,216.627857 135.970392,216.627857 L141.69506,224.802857 C141.69506,224.802857 127.621721,240.173571 122.287712,246.542143 C116.949637,252.906429 110.596192,256.705714 107.025495,256.705714 L107.025495,256.705714 Z M164.913149,320.389286 L123.493276,249.927857 C123.902762,249.484286 124.293421,249.027857 124.682154,248.55 C129.240837,243.135 141.458868,229.838571 144.653454,226.352143 C149.325099,229.654286 153.374171,228.715714 158.033192,228.409286 C165.017767,227.948571 170.627334,215.826429 170.627334,215.826429 C174.807981,217.684286 181.31632,205.562786 181.31632,205.562786 L184.57894,204.6285 C187.383724,197.190643 187.84156,191.589214 184.121103,187.8585 C180.687329,184.421357 185.036776,183.656357 185.036776,183.656357 C187.383724,185.0685 207.406584,190.194214 207.864421,191.589214 C208.341512,192.982071 204.6018,194.854929 204.143964,196.714929 C203.681849,198.585643 205.078892,204.167786 206.471656,208.834929 C207.864421,213.497786 207.864421,221.415 207.864421,221.415 L204.143964,221.415 C204.143964,221.415 205.078892,230.742857 203.681849,232.137857 C202.269829,233.532857 190.629228,234.010714 190.629228,234.010714 C179.414373,234.010714 178.984349,245.196429 178.984349,246.846429 C177.525262,249.096429 175.332567,252.994286 175.063,256.429286 L174.84157,258.981429 L200.198868,258.981429 L164.913149,320.389286 L164.913149,320.389286 Z M207.0493,247.05 L204.873507,250.832143 C204.501248,249.775714 203.992065,248.346429 203.512834,247.05 L207.0493,247.05 L207.0493,247.05 Z M194.604276,247.05 C194.065142,248.770714 193.434012,250.712143 193.130214,251.715 L189.675046,251.715 C189.217209,250.932857 188.096151,248.959286 187.02644,247.05 L194.604276,247.05 L194.604276,247.05 Z M183.134829,242.642143 C182.334685,241.639286 183.186175,239.646429 185.004685,238.212857 C186.838171,236.785714 188.962618,236.46 189.747786,237.484286 C190.543651,238.489286 189.69644,240.48 187.873651,241.892143 C186.059421,243.321429 183.934974,243.647143 183.134829,242.642143 L183.134829,242.642143 Z M231.168942,254.436429 L238.800264,254.436429 L238.800264,256.637143 L177.405454,256.637143 C177.694276,253.11 180.569661,248.650714 181.673603,247.05 L184.324349,247.05 L188.303675,254.078571 L194.846031,254.078571 L197.071031,247.05 L200.996873,247.05 L203.56632,254.078571 L223.180337,254.078571 L225.184976,247.05 L228.821995,247.05 L231.168942,254.436429 L231.168942,254.436429 Z M210.446704,251.715 L213.13382,247.05 L222.735337,247.05 C222.260385,248.719286 221.701995,250.677857 221.411034,251.715 L210.446704,251.715 L210.446704,251.715 Z M224.09601,217.395 L223.180337,207.8985 L230.691851,204.167786 C231.02774,204.182786 231.357212,204.182786 231.678125,204.182786 L224.09601,217.395 L224.09601,217.395 Z M247.924904,183.195643 C240.648726,191.501357 218.216875,188.747786 190.359661,176.078357 C201.099565,164.164929 220.444014,142.573286 236.434062,124.685357 C255.50488,154.340143 255.113365,174.954643 247.924904,183.195643 L247.924904,183.195643 Z M248.078942,111.627429 C253.382572,105.686357 257.648582,100.864929 260.196635,97.9896429 C264.07113,99.963 267.947764,100.220357 267.947764,100.220357 C286.573582,106.280786 285.640793,90.4330714 285.640793,90.4330714 C292.62387,91.8267857 292.166034,80.1833571 292.166034,80.1833571 C294.951563,80.1833571 294.951563,75.0585 294.951563,75.0585 C296.943365,67.7719286 293.06887,62.3961429 290.636346,59.8722857 C291.03,59.7027857 291.40226,59.5144286 291.791635,59.3136429 L314.908101,59.3136429 L263.221779,149.267571 C259.17613,135.205071 253.737716,122.523643 248.078942,111.627429 L248.078942,111.627429 Z M311.256106,137.0445 C308.823582,136.039929 306.361106,135.104571 303.982067,134.303143 C304.882764,132.991071 305.849784,131.576357 306.395337,130.760357 C308.911298,131.614071 319.394471,135.071143 321.758534,135.866357 C321.792764,136.941857 321.859087,139.084714 321.914712,140.957786 C317.678654,139.495071 313.769928,138.0825 311.256106,137.0445 L311.256106,137.0445 Z M333.210865,155.173071 C330.970889,155.700429 328.89351,155.139429 328.606827,153.879643 C328.300889,152.634643 329.881923,151.173857 332.126178,150.627857 C334.368293,150.083786 336.45851,150.661286 336.747332,151.921071 C337.055409,153.166071 335.476514,154.629 333.210865,155.173071 L333.210865,155.173071 Z M330.258462,143.784857 C331.34101,142.284429 332.59899,140.5665 333.251514,139.664571 C334.507356,140.089286 335.423029,140.397 336.511995,140.754643 C336.700264,141.671357 337.158101,143.987786 337.581707,146.182929 C335.523582,145.521857 332.992644,144.688929 330.258462,143.784857 L330.258462,143.784857 Z M342.495962,147.786 C342.476707,147.786 342.476707,147.767143 342.461731,147.767143 C342.222115,147.698143 341.385601,147.428143 340.149014,147.018 L338.57012,138.950786 L332.350817,136.889571 L327.92649,143.004214 C326.721995,142.594071 325.498245,142.183929 324.289471,141.778071 L324.07125,134.148214 L305.441154,127.970786 L301.63512,133.568571 C300.323654,133.198286 299.067813,132.888429 297.876154,132.666643 L297.961731,125.110286 L290.724063,122.712 L291.40226,120.631929 L349.718654,139.953214 C348.291659,143.307643 343.942212,146.729143 342.495962,147.786 L342.495962,147.786 Z" id="path222"></path>
                    </g>
                </g>
            </g>
        </g>
    </g>
</svg>