<?xml version="1.0" encoding="UTF-8" standalone="no"?>
<!-- Created with Inkscape (http://www.inkscape.org/) -->

<svg
   xmlns:dc="http://purl.org/dc/elements/1.1/"
   xmlns:cc="http://creativecommons.org/ns#"
   xmlns:rdf="http://www.w3.org/1999/02/22-rdf-syntax-ns#"
   xmlns:svg="http://www.w3.org/2000/svg"
   xmlns="http://www.w3.org/2000/svg"
   xmlns:sodipodi="http://sodipodi.sourceforge.net/DTD/sodipodi-0.dtd"
   xmlns:inkscape="http://www.inkscape.org/namespaces/inkscape"
   version="1.0"
   width="204.925"
   height="192.04443"
   id="svg2610"
   inkscape:version="0.48.2 r9819"
   sodipodi:docname="AJAX.svg">
  <metadata
     id="metadata117">
    <rdf:RDF>
      <cc:Work
         rdf:about="">
        <dc:format>image/svg+xml</dc:format>
        <dc:type
           rdf:resource="http://purl.org/dc/dcmitype/StillImage" />
      </cc:Work>
    </rdf:RDF>
  </metadata>
  <sodipodi:namedview
     pagecolor="#ffffff"
     bordercolor="#666666"
     borderopacity="1"
     objecttolerance="10"
     gridtolerance="10"
     guidetolerance="10"
     inkscape:pageopacity="0"
     inkscape:pageshadow="2"
     inkscape:window-width="1280"
     inkscape:window-height="1004"
     id="namedview115"
     showgrid="false"
     showguides="true"
     inkscape:guide-bbox="true"
     fit-margin-top="0"
     fit-margin-left="0"
     fit-margin-right="0"
     fit-margin-bottom="0"
     inkscape:zoom="2.8284271"
     inkscape:cx="118.60435"
     inkscape:cy="81.681828"
     inkscape:window-x="-8"
     inkscape:window-y="-8"
     inkscape:window-maximized="1"
     inkscape:current-layer="layer1" />
  <defs
     id="defs2612" />
  <g
     transform="translate(-263.25179,-233.48282)"
     id="layer1">
    <g
       transform="matrix(1.25,0,0,1.25,439.60941,308.78163)"
       id="g8"
       style="fill:#ffffff;fill-rule:evenodd;stroke:none">
      <path
         d="M 1.128,0 C 0.873,0.3808 0.421,1.041 0,1.6533 1.112,2.0273 2.263,2.4638 3.4,2.9326 4.575,3.417 6.402,4.0762 8.382,4.7588 8.356,3.8847 8.325,2.8847 8.309,2.3828 7.204,2.0117 2.304,0.3984 1.128,0 z"
         id="path10"
         inkscape:connector-curvature="0" />
    </g>
    <g
       transform="matrix(1.25,0,0,1.25,263.25179,232.50475)"
       id="g16"
       style="fill:#ffffff;fill-rule:evenodd;stroke:none">
      <path
         d="m 163.473,65.749 c -0.843,1.9697 -3.323,3.8145 -3.885,4.2266 0.007,0.4463 -0.095,0.9931 -0.295,1.5967 -0.443,1.3037 -2.399,3.2656 -6.315,2.6054 -3.925,-0.6504 -5.45,-1.3017 -5.45,-1.3017 0,0 -1.955,4.7812 -6.307,3.0429 0,0 -0.654,5.877 -3.919,7.6184 -3.263,1.738 -25.69,9.564 -25.69,9.564 0,0 -0.223,0.487 -0.795,0.992 0,0 -4.846,8.4297 -4.846,8.4297 0,0 0.643,3.63 0.643,3.63 0,0 3.917,4.569 3.917,7.835 0,0 -2.829,1.302 -2.829,1.302 0,0 -0.597,0 -0.597,0 0.271,0.842 0.588,1.843 0.757,2.352 0.959,0 3.86,0 3.86,0 0,0 0,3.216 0,3.216 0,0 -16.3019,0 -16.3019,0 0,0 -19.3126,33.56 -19.3126,33.56 0,0 -21.212,-36.014 -21.212,-36.014 -2.0732,1.772 -4.2334,2.86 -5.8701,2.86 0,0 -3.9482,0.009 -3.9482,0.009 0,0 -38.7451,0 -38.7451,0 0,0 6.6484,-11.965 6.6484,-11.965 0,0 35.8057,0 35.8057,0 0.2617,0 0.5,-0.008 0.7392,-0.024 0,0 -49.5254,-84.0682 -49.5254,-84.0682 0,0 25.4385,0 25.4385,0 1.8975,-1.8984 3.2402,-3.2412 3.2402,-3.2412 0,0 2.8282,-2.835 3.9161,-5.8769 1.0898,-3.045 2.1777,-5.8711 6.5302,-8.7002 C 43.4785,4.5762 46.3067,3.0518 49.1446,1.7412 51.9727,0.4375 55.8897,0 59.1543,3.4795 c 3.2657,3.4814 5.0039,5.0058 6.0938,6.0937 1.0879,1.0899 3.2636,6.0938 9.5801,3.4795 6.3076,-2.6054 15.6739,-7.6093 21.5539,-7.3955 5.8709,0.2227 15.6669,5.4336 18.9319,9.1367 0,0 2.606,-2.2978 5.441,-1.9619 2.391,0.293 3.488,2.835 5.664,7.1817 0,0 5.006,1.3017 5.006,4.1386 0,0 0.119,-0.0312 0.293,-0.0156 0.096,-0.1035 0.184,-0.2002 0.285,-0.3017 1.098,-1.0967 1.757,-1.7569 2.495,-2.25 0.167,-0.1104 0.35,-0.1817 0.541,-0.2452 -0.157,-0.414 -0.374,-1.2226 0.207,-1.6689 0.786,-0.6191 2.652,-1.3106 4.614,0.3965 1.694,1.4795 1.741,2.0674 1.741,2.0674 0,0 1.43,1.707 0.604,3.081 0,0 8.246,0 8.246,0 0,0 -27.518,47.8272 -27.518,47.8272 0.069,0.3017 0.15,0.6103 0.222,0.9209 0,0 3.48,1.3017 4.568,2.6054 0,0 3.042,0 4.576,-0.2138 1.517,-0.2139 1.74,-0.2139 1.954,-1.0899 0.223,-0.874 0.223,-1.7383 -0.214,-3.2568 -0.437,-1.5244 -1.09,-9.1358 0.874,-10.0098 0.579,-0.2607 1.342,-0.3262 2.223,-0.2451 0.008,-0.8984 0.024,-2.0176 0.024,-2.5742 -0.914,-0.3018 -3.661,-1.2158 -3.661,-1.2158 0,0 1.009,-3.0586 1.009,-3.0586 0,0 29.432,9.7402 29.432,9.7402 0,0 -0.467,1.1035 -0.467,1.1035 z"
         id="path18"
         inkscape:connector-curvature="0" />
    </g>
    <g
       transform="matrix(1.25,0,0,1.25,384.95941,376.61763)"
       id="g20"
       style="fill:#ffffff;fill-rule:evenodd;stroke:none">
      <path
         d="M 1.256,0 C 1.256,0 0,2.177 0,2.177 c 1.932,0 4.321,0 5.125,0 C 5.261,1.693 5.522,0.779 5.744,0 c 0,0 -4.488,0 -4.488,0 z"
         id="path22"
         inkscape:connector-curvature="0" />
    </g>
    <g
       transform="matrix(1.25,0,0,1.25,454.96191,313.97575)"
       id="g24"
       style="fill:#ffffff;fill-rule:evenodd;stroke:none">
      <path
         d="M 1.399,0 C 1.094,0.4209 0.506,1.2226 0,1.9228 1.278,2.3447 2.461,2.7334 3.423,3.0419 3.225,2.0175 3.011,0.9365 2.923,0.5087 2.414,0.3418 1.986,0.1982 1.399,0 z"
         id="path26"
         inkscape:connector-curvature="0" />
    </g>
    <g
       transform="matrix(1.25,0,0,1.25,365.65441,376.61763)"
       id="g28"
       style="fill:#ffffff;fill-rule:evenodd;stroke:none">
      <path
         d="m 22.333,0 c 0,0 -0.937,3.28 -0.937,3.28 0,0 -9.168,0 -9.168,0 0,0 -1.201,-3.28 -1.201,-3.28 0,0 -1.835,0 -1.835,0 0,0 -1.04,3.28 -1.04,3.28 0,0 -3.058,0 -3.058,0 0,0 -1.86,-3.28 -1.86,-3.28 0,0 -1.239,0 -1.239,0 C 1.479,0.747 0.135,2.828 0,4.474 c 0,0 28.697,0 28.697,0 0,0 0,-1.027 0,-1.027 0,0 -3.567,0 -3.567,0 0,0 -1.097,-3.447 -1.097,-3.447 0,0 -1.7,0 -1.7,0 z"
         id="path30"
         inkscape:connector-curvature="0" />
    </g>
    <g
       transform="matrix(1.25,0,0,1.25,431.86316,302.87338)"
       id="g32"
       style="fill:#ffffff;fill-rule:evenodd;stroke:none">
      <path
         d="M 3.343,5.6162 C 3.9,5.7197 4.487,5.8643 5.1,6.0371 c 0,0 1.779,-2.6123 1.779,-2.6123 0,0 8.708,2.8828 8.708,2.8828 0,0 0.102,3.5606 0.102,3.5606 0.565,0.1894 1.137,0.3808 1.7,0.5722 0,0 2.068,-2.8535 2.068,-2.8535 0,0 2.907,0.9619 2.907,0.9619 0,0 0.738,3.7647 0.738,3.7647 0.578,0.1914 0.969,0.3174 1.081,0.3496 0.007,0 0.007,0.0088 0.016,0.0088 0.676,-0.4932 2.709,-2.0899 3.376,-3.6553 C 27.575,9.0166 0.317,0 0.317,0 0.317,0 0,0.9707 0,0.9707 c 0,0 3.383,1.1192 3.383,1.1192 0,0 -0.04,3.5263 -0.04,3.5263 z"
         id="path34"
         inkscape:connector-curvature="0" />
    </g>
    <g
       transform="matrix(1.25,0,0,1.25,325.76404,256.42925)"
       id="g36"
       style="fill:#ffffff;fill-rule:evenodd;stroke:none">
      <path
         d="m 23.7305,55.252 c 2.5107,1.5967 4.9882,3.0605 7.4199,4.3711 5.0289,-5.2764 16.0079,-16.8203 24.6349,-25.875 -2.644,-3.4883 -5.83,-7.2061 -9.636,-11.1152 C 24.168,0 8.9844,12.9493 6.3164,17.1915 0,27.2012 4.5752,43.0733 23.7305,55.252 z"
         id="path38"
         inkscape:connector-curvature="0" />
    </g>
    <g
       transform="matrix(1.25,0,0,1.25,373.22316,305.23788)"
       id="g40"
       style="fill:#ffffff;fill-rule:evenodd;stroke:none">
      <path
         d="m 0,23.9834 c 13.021,5.9124 23.506,7.1974 26.907,3.3214 C 30.267,23.459 30.45,13.8389 21.536,0 14.062,8.3477 5.02,18.4238 0,23.9834 z"
         id="path42"
         inkscape:connector-curvature="0" />
    </g>
    <g
       transform="matrix(1.25,0,0,1.25,286.58804,260.24038)"
       id="g44"
       style="fill:#ffffff;fill-rule:evenodd;stroke:none">
      <path
         d="M 1.9541,9.79 C 0.2138,11.7509 0,17.4082 0,17.4082 c 0,0 14.1484,-12.1875 14.1484,-12.1875 0,0 -5.6631,10.4394 -5.6631,10.4394 0,0 9.5791,-4.3457 10.4463,-6.5234 0,0 -1.9609,-4.7813 -6.3076,-9.1367 0,0 -8.9219,7.8349 -10.6699,9.79 z"
         id="path46"
         inkscape:connector-curvature="0" />
    </g>
    <g
       transform="matrix(1.25,0,0,1.25,453.81816,320.05363)"
       id="g48"
       style="fill:#ffffff;fill-rule:evenodd;stroke:none">
      <path
         d="M 1.788,0.2539 C 0.739,0.5087 0,1.1904 0.143,1.7714 0.277,2.3593 1.248,2.6211 2.295,2.375 3.354,2.1211 4.092,1.4384 3.948,0.8574 3.813,0.2695 2.836,0 1.788,0.2539 z"
         id="path50"
         inkscape:connector-curvature="0" />
    </g>
    <g
       transform="matrix(1.25,0,0,1.25,368.53441,370.44013)"
       id="g52"
       style="fill:#ffffff;fill-rule:evenodd;stroke:none">
      <path
         d="M 0.374,2.885 C 0.748,3.354 1.741,3.202 2.589,2.535 3.441,1.876 3.837,0.947 3.465,0.478 3.098,0 2.105,0.152 1.248,0.818 0.398,1.487 0,2.417 0.374,2.885 z"
         id="path54"
         inkscape:connector-curvature="0" />
    </g>
    <g
       transform="matrix(1.25,0,0,1.25,309.81679,245.3465)"
       id="g56"
       style="fill:#ffffff;fill-rule:evenodd;stroke:none">
      <path
         d="M 2.8506,5.5606 C 2.7158,4.0039 4.4883,2.9141 5.2988,1.5567 4.4883,0.4688 3.0576,0 1.9053,0.6104 1.7002,3.7969 0.7451,6.7198 0,9.6368 1.6279,10.8594 1.2226,7.7383 2.9951,7.6748 4.0107,7.3233 4.5508,8.2784 5.164,8.8887 c 0.3399,0.8828 0.1348,2.043 -0.541,2.79 0,0 1.628,-0.1435 1.628,-0.1435 C 6.9267,10.7246 7.1338,9.501 6.7988,8.4834 6.3232,6.6485 4.1455,6.5127 2.8506,5.5606 z"
         id="path58"
         inkscape:connector-curvature="0" />
    </g>
    <g
       transform="matrix(1.25,0,0,1.25,413.80941,250.211)"
       id="g60"
       style="fill:#ffffff;fill-rule:evenodd;stroke:none">
      <path
         d="M 2.93,3.6485 C 2.581,2.5039 2.002,1.4297 1.359,0.2862 0.928,0 0,0.0723 0.151,0.8584 1,1.7159 1.359,3.8623 2.93,3.6485 z"
         id="path62"
         inkscape:connector-curvature="0" />
    </g>
    <g
       transform="matrix(1.25,0,0,1.25,409.33941,250.847)"
       id="g64"
       style="fill:#ffffff;fill-rule:evenodd;stroke:none">
      <path
         d="M 6.437,6.7129 C 4.79,4.4971 3.29,2.209 1.502,0 0.858,0 0.145,0.3496 0,1.0655 1.716,2.9229 3.727,4.7832 5.22,6.6348 5.506,6.9209 6.078,7.4297 6.437,6.7129 z"
         id="path66"
         inkscape:connector-curvature="0" />
    </g>
    <g
       transform="matrix(1.25,0,0,1.25,405.40816,253.34088)"
       id="g68"
       style="fill:#ffffff;fill-rule:evenodd;stroke:none">
      <path
         d="M 6.649,7.792 C 7.077,8.0713 8.158,8.0713 8.016,7.2198 8.016,7.2198 2.145,0.5 2.145,0.5 1.357,0 0.429,0.5 0,1.2862 2.215,3.502 4.79,5.2188 6.649,7.792 z"
         id="path70"
         inkscape:connector-curvature="0" />
    </g>
    <g
       transform="matrix(1.25,0,0,1.25,401.92191,256.378)"
       id="g72"
       style="fill:#ffffff;fill-rule:evenodd;stroke:none">
      <path
         d="m 8.581,5.9278 c 0,0 -5.865,-4.9971 -5.865,-4.9971 C 1.789,0 0.428,0.1446 0,1.5752 2.646,3.5762 5.569,4.8555 8.008,7.2862 8.731,7.3575 8.938,6.4366 8.581,5.9278 z"
         id="path74"
         inkscape:connector-curvature="0" />
    </g>
    <g
       transform="matrix(1.25,0,0,1.25,411.76316,260.56988)"
       id="g76"
       style="fill:#ffffff;fill-rule:evenodd;stroke:none">
      <path
         d="m 8.008,5.2901 c 1,-1.5 3.504,-1.3574 2.86,-3.5742 C 10.724,0.7227 9.359,0 8.15,0.293 3.718,3.2178 0.563,7.7217 0,12.3702 0.635,13.084 1.494,13.1563 2.423,13.1563 4.362,10.7168 5.355,7.5782 8.008,5.2901 z"
         id="path78"
         inkscape:connector-curvature="0" />
    </g>
    <g
       transform="matrix(1.25,0,0,1.25,399.49816,260.75913)"
       id="g80"
       style="fill:#ffffff;fill-rule:evenodd;stroke:none">
      <path
         d="M 8.517,6.499 C 9.017,6.4268 9.733,5.6406 9.231,4.9971 6.371,3.3526 3.728,1.1436 0.645,0 0.145,0.4932 0,1.2158 0.072,1.9297 c 0,0 8.445,4.5693 8.445,4.5693 z"
         id="path82"
         inkscape:connector-curvature="0" />
    </g>
    <g
       transform="matrix(1.25,0,0,1.25,397.97816,265.48575)"
       id="g84"
       style="fill:#ffffff;fill-rule:evenodd;stroke:none">
      <path
         d="M 8.375,5.292 C 8.875,5.1474 9.447,4.5039 8.947,4.0752 6.301,2.7177 3.718,1.0019 0.867,0 0.509,0.4296 0,1.2158 0.437,1.5732 3.297,2.4384 5.651,4.1474 8.375,5.292 z"
         id="path86"
         inkscape:connector-curvature="0" />
    </g>
    <g
       transform="matrix(1.25,0,0,1.25,417.12691,267.0055)"
       id="g88"
       style="fill:#ffffff;fill-rule:evenodd;stroke:none">
      <path
         d="M 0,8.0801 C 0.42,9.0732 1.207,9.0732 2.209,8.7871 5.068,7.2217 7.077,4.1455 7.649,0.9297 7.57,0.4277 6.935,0.1416 6.505,0 3.503,2.0019 1.643,5.1387 0,8.0801 z"
         id="path90"
         inkscape:connector-curvature="0" />
    </g>
    <g
       transform="matrix(1.25,0,0,1.25,429.46941,267.90875)"
       id="g92"
       style="fill:#ffffff;fill-rule:evenodd;stroke:none">
      <path
         d="M 0,0.5 C 0,0.5 3.209,6.1407 3.209,6.1407 3.083,3.7969 2.065,1.8194 0.698,0 0.532,0.0313 0.374,0.0567 0.214,0.0625 0.214,0.0625 0,0.5 0,0.5 z"
         id="path94"
         inkscape:connector-curvature="0" />
    </g>
    <g
       transform="matrix(1.25,0,0,1.25,427.40316,270.31238)"
       id="g96"
       style="fill:#ffffff;fill-rule:evenodd;stroke:none">
      <path
         d="M 4.434,6.7139 C 4.504,4.2178 2.146,2.2168 0.858,0 0.858,0 0,1.7158 0,1.7158 c 0,0 3.432,5.1397 3.432,5.1397 C 3.727,6.792 4.218,7 4.434,6.7139 z"
         id="path98"
         inkscape:connector-curvature="0" />
    </g>
    <g
       transform="matrix(1.25,0,0,1.25,396.90566,269.50788)"
       id="g100"
       style="fill:#ffffff;fill-rule:evenodd;stroke:none">
      <path
         d="M 7.373,2.9952 C 5.007,1.9297 2.719,0.7139 0.217,0 0.217,0 0,0.6436 0,0.6436 1.867,2.709 4.513,3.0733 7.373,2.9952 z"
         id="path102"
         inkscape:connector-curvature="0" />
    </g>
    <g
       transform="matrix(1.25,0,0,1.25,425.08066,275.3185)"
       id="g104"
       style="fill:#ffffff;fill-rule:evenodd;stroke:none">
      <path
         d="M 0,0.9277 C 1.286,2.4228 1.286,5.1386 3.288,5.4961 3.788,3.4228 2.288,1.499 1.072,0 0.572,0 0.07,0.4209 0,0.9277 z"
         id="path106"
         inkscape:connector-curvature="0" />
    </g>
    <g
       transform="matrix(1.25,0,0,1.25,421.95066,279.16)"
       id="g108"
       style="fill:#ffffff;fill-rule:evenodd;stroke:none">
      <path
         d="M 0.065,0 C 0,2.1377 1.574,4.0674 2.574,5.918 c 0,0 1.216,0.2236 1.216,0.2236 C 4.076,3.7813 2.288,2.1377 1.43,0.2861 1.43,0.2861 0.065,0 0.065,0 z"
         id="path110"
         inkscape:connector-curvature="0" />
    </g>
    <g
       transform="matrix(1.25,0,0,1.25,410.32191,279.337)"
       id="g112"
       style="fill:#ffffff;fill-rule:evenodd;stroke:none">
      <path
         d="M 0,1.1377 C 0.128,1.6065 0.176,2.2188 0.39,2.6553 0.955,2.2725 1.694,2.1055 2.416,2.1621 2.059,1.2412 1.477,0 0.216,0.2793 0.216,0.2793 0,1.1377 0,1.1377 z"
         id="path114"
         inkscape:connector-curvature="0" />
    </g>
    <g
       transform="matrix(1.25,0,0,1.25,415.68441,280.49175)"
       id="g116"
       style="fill:#ffffff;fill-rule:evenodd;stroke:none">
      <path
         d="m 6.087,8.294 c 0,0 0.069,-2.2246 0.069,-2.2246 C 5.434,3.9229 4.727,1.9297 2.941,0.2139 2.074,0.2862 0.358,0 0,1 0.867,3.8594 2.655,8.0782 6.087,8.294 z"
         id="path118"
         inkscape:connector-curvature="0" />
    </g>
    <g
       transform="matrix(1.25,0,0,1.25,344.27478,326.12176)"
       id="g120"
       style="fill:#ffffff;fill-rule:evenodd;stroke:none">
      <path
         d="M 2.4385,4.8623 C 2.1465,3.3603 2.5742,1.5722 1.581,0.3564 1.2158,0 0.581,0.2148 0.5,0.7236 0,2.0722 0.4297,3.6464 1.2158,4.79 1.581,5.1484 2.0019,5.1484 2.4385,4.8623 z"
         id="path122"
         inkscape:connector-curvature="0" />
    </g>
    <g
       transform="matrix(1.25,0,0,1.25,348.83166,326.48788)"
       id="g124"
       style="fill:#ffffff;fill-rule:evenodd;stroke:none">
      <path
         d="M 2.4326,7.4988 C 1.8672,5.1328 3.4414,1.2793 0.8672,0 0,1.6377 0.7236,4.3467 0.6533,6.5713 c 0,0.8585 1.0625,1.2865 1.7793,0.9275 z"
         id="path126"
         inkscape:connector-curvature="0" />
    </g>
    <g
       transform="matrix(1.25,0,0,1.25,336.23154,325.49426)"
       id="g128"
       style="fill:#ffffff;fill-rule:evenodd;stroke:none">
      <path
         d="M 6.0694,7.4365 C 4.5674,5.5059 6.7295,0 2.6446,1.2256 0,3.6553 4.1465,5.2207 4.6465,7.6523 5.0049,7.7939 5.8623,8.0077 6.0694,7.4365 z"
         id="path130"
         inkscape:connector-curvature="0" />
    </g>
    <g
       transform="matrix(1.25,0,0,1.25,353.22379,327.55238)"
       id="g132"
       style="fill:#ffffff;fill-rule:evenodd;stroke:none">
      <path
         d="M 0.1347,0.0791 C 0,2.2881 0.1347,4.2812 0.5,6.292 1.0625,6.4272 1.9209,6.7922 2.4297,6.1474 1.9209,4.0732 3.3593,0 0.1347,0.0791 z"
         id="path134"
         inkscape:connector-curvature="0" />
    </g>
    <g
       transform="matrix(1.25,0,0,1.25,357.95766,329.88638)"
       id="g136"
       style="fill:#ffffff;fill-rule:evenodd;stroke:none">
      <path
         d="M 0.3584,0.2763 C 0.2861,2.1367 0,4.1386 1.0029,5.575 2.2187,5.282 1.5019,3.4941 1.7881,2.414 1.1445,1.707 1.8603,0 0.3584,0.2763 z"
         id="path138"
         inkscape:connector-curvature="0" />
    </g>
    <g
       transform="matrix(1.25,0,0,1.25,334.53229,330.49913)"
       id="g140"
       style="fill:#ffffff;fill-rule:evenodd;stroke:none">
      <path
         d="M 1.002,0 C 0.502,0.7168 0.1436,1.502 0.0723,2.3604 0,4.5058 1.6456,5.9278 2.7178,7.5798 3.5762,7.3578 4.5762,7.6438 5.2198,6.7948 4.3545,4.3628 3.3526,1.5811 1.002,0 z"
         id="path142"
         inkscape:connector-curvature="0" />
    </g>
    <g
       transform="matrix(1.25,0,0,1.25,338.91229,338.00638)"
       id="g144"
       style="fill:#ffffff;fill-rule:evenodd;stroke:none">
      <path
         d="m 8.1523,2.505 c 0,0 0.0781,-1.074 0.0781,-1.074 0,0 -0.6504,-1.073 -0.6504,-1.073 C 4.5849,0 2.0019,1.638 0.3574,4.069 0,4.793 0.2861,5.569 0.5,6.142 2.8603,4.356 4.997,1.995 8.1523,2.505 z"
         id="path146"
         inkscape:connector-curvature="0" />
    </g>
    <g
       transform="matrix(1.25,0,0,1.25,351.25604,338.72138)"
       id="g148"
       style="fill:#ffffff;fill-rule:evenodd;stroke:none">
      <path
         d="M 5.0751,1.423 C 4.8623,0 3.29,0.217 2.1455,0.073 1.1367,0.28 0,0.859 0.2138,2.075 0.5654,3.354 1.2158,4.497 2.5019,4.928 3.79,4.077 5.497,3.147 5.0751,1.423 z"
         id="path150"
         inkscape:connector-curvature="0" />
    </g>
    <g
       transform="matrix(1.25,0,0,1.25,358.67291,341.49513)"
       id="g152"
       style="fill:#ffffff;fill-rule:evenodd;stroke:none">
      <path
         d="M 1.2881,0.142 C 0.0723,0.421 0,2.002 0,3.137 0.1446,3.709 0.7168,4.139 1.2881,4.066 2.0743,3.494 2.0743,2.358 2.1534,1.349 1.8672,0.928 2.0743,0 1.2881,0.142 z"
         id="path154"
         inkscape:connector-curvature="0" />
    </g>
    <g
       transform="matrix(1.25,0,0,1.25,361.98104,343.62763)"
       id="g156"
       style="fill:#ffffff;fill-rule:evenodd;stroke:none">
      <path
         d="M 3.2897,2.003 C 3.0737,1.367 2.7871,0 1.6436,0.215 0,1.788 1.7158,4.649 0.5713,6.364 1.0713,7.078 0.7158,8.366 1.8662,8.502 4.1547,7.437 2.8594,4.149 3.2897,2.003 z"
         id="path158"
         inkscape:connector-curvature="0" />
    </g>
    <g
       transform="matrix(1.25,0,0,1.25,345.35879,343.62763)"
       id="g160"
       style="fill:#ffffff;fill-rule:evenodd;stroke:none">
      <path
         d="M 3.4316,0.572 C 2.207,0.215 0.9209,0 0,0.717 0.7138,4.79 4.6455,15.652 6.2197,15.724 c 1,-3.218 0.5,-5.792 0.7861,-9.36 C 6.292,4.076 5.5693,1.86 3.4316,0.572 z"
         id="path162"
         inkscape:connector-curvature="0" />
    </g>
    <g
       transform="matrix(1.25,0,0,1.25,367.44066,344.70138)"
       id="g164"
       style="fill:#ffffff;fill-rule:evenodd;stroke:none">
      <path
         d="m 0.208,0.213 c 0,0 -0.208,2.002 -0.208,2.002 0,0 1.352,0.217 1.352,0.217 0,0 0.358,-1.138 0.358,-1.138 C 1.217,0.858 0.931,0 0.208,0.213 z"
         id="path166"
         inkscape:connector-curvature="0" />
    </g>
    <g
       transform="matrix(1.25,0,0,1.25,340.88004,345.95263)"
       id="g168"
       style="fill:#ffffff;fill-rule:evenodd;stroke:none">
      <path
         d="M 1.499,0 C 0.8486,0.714 0.2861,1.573 0,2.359 c 0.1572,2.058 0.6259,4.076 1.4052,5.952 0.8897,2.152 2.1778,4.114 3.8682,5.735 0.2149,0.205 0.4375,0.412 0.6602,0.604 0.5,-0.214 1.2949,-0.214 0.9297,-0.858 C 4.9316,11.296 2.2158,1.573 1.499,0 z"
         id="path170"
         inkscape:connector-curvature="0" />
    </g>
    <g
       transform="matrix(1.25,0,0,1.25,354.83016,346.13138)"
       id="g172"
       style="fill:#ffffff;fill-rule:evenodd;stroke:none">
      <path
         d="m 1.4307,2.216 c 0,3.361 0.4297,7.008 -0.9307,9.858 -0.2041,0.645 -0.5,2.361 0.7881,2.147 0,0 0.0635,-0.572 0.0635,-0.572 C 3.3692,12.005 4.1485,9.151 4.3623,6.363 3.8623,4.575 4.5762,0 1.4307,2.216 z"
         id="path174"
         inkscape:connector-curvature="0" />
    </g>
    <g
       transform="matrix(1.25,0,0,1.25,319.13191,358.87138)"
       id="g176"
       style="fill:#ffffff;fill-rule:evenodd;stroke:none">
      <path
         d="M 10.3838,7.42 C 9.0791,8.605 7.5303,9.677 4.0821,9.677 4.0821,9.677 0,18.703 0,18.703 c 0,0 2.6612,0 4.3213,0 1.669,0 4.6387,-1.773 7.1338,-4.743 2.4932,-2.972 9.0713,-10.145 9.0713,-10.145 0,0 -2.6758,-3.815 -2.6758,-3.815 0,0 -6.1562,6.238 -7.4668,7.42 z"
         id="path178"
         inkscape:connector-curvature="0" />
    </g>
    <g
       transform="matrix(1.25,0,0,1.25,274.28329,370.96763)"
       id="g180"
       style="fill:#ffffff;fill-rule:evenodd;stroke:none">
      <path
         d="m 0,9.032 c 0,0 5.8233,0 5.8233,0 0,0 5.0224,-9.032 5.0224,-9.032 0,0 -5.8242,0 -5.8242,0 C 5.0215,0 0,9.032 0,9.032 z"
         id="path182"
         inkscape:connector-curvature="0" />
    </g>
    <g
       transform="matrix(1.25,0,0,1.25,360.98741,283.26163)"
       id="g184"
       style="fill:#ffffff;fill-rule:evenodd;stroke:none">
      <path
         d="M 40.5576,0.8261 C 39.7316,1.6533 0.2793,43.0418 0.2793,43.0418 0.0469,43.3438 0,43.6538 0.0713,43.9558 c 0.208,0.905 1.5098,1.723 2.5586,1.971 0.5244,0.119 0.9844,0.095 1.2067,-0.129 C 4.6726,44.9738 40.5576,5.1709 42.4246,2.8916 44.2906,0.6191 41.3906,0 40.5576,0.8261 z"
         id="path186"
         inkscape:connector-curvature="0" />
    </g>
    <g
       transform="matrix(1.25,0,0,1.25,426.32191,260.49175)"
       id="g188"
       style="fill:#ffffff;fill-rule:evenodd;stroke:none">
      <path
         d="M 6.521,2.2784 C 8.175,0.6192 5.481,0 4.862,0.4122 4.24,0.8243 3.614,1.4454 2.581,2.4864 0,5.0665 3.304,5.4805 6.521,2.2784 z"
         id="path190"
         inkscape:connector-curvature="0" />
    </g>
    <g
       transform="matrix(1.25,0,0,1.25,385.41691,267.10438)"
       id="g192"
       style="fill:#d0bd7f;fill-rule:evenodd;stroke:none">
      <path
         d="m 18.455,8.2148 c 0,0 -0.873,-1.9551 -0.873,-1.9551 0,0 -3.919,1.0879 -9.796,-2.1777 C 6.825,3.542 8.009,1.0332 8.009,1.0332 8.009,1.0332 7.642,0.5244 7.038,0 7.038,0 2.273,0 2.273,0 0,2.2558 3.257,3.916 4.307,5.1719 c 0.578,0.6914 4.987,5.6484 9.81,13.6875 2.416,-2.5332 4.267,-4.4815 5.204,-5.458 C 18.455,8.2148 18.455,8.2148 18.455,8.2148 z"
         id="path194"
         style="fill:#d0bd7f;fill-opacity:1;stroke:none"
         inkscape:connector-curvature="0" />
    </g>
    <g
       transform="matrix(1.25,0,0,1.25,392.39941,351.60263)"
       id="g196"
       style="fill:#d0bd7f;fill-rule:evenodd;stroke:none">
      <path
         d="m 0,1.741 c 0,0 0.428,4.432 0.428,4.432 0,0 3.544,-6.166 3.544,-6.166 -0.15,0 -0.304,0 -0.461,-0.007 C 3.511,0 0,1.741 0,1.741 z"
         id="path198"
         inkscape:connector-curvature="0" />
    </g>
    <g
       transform="matrix(1.25,0,0,1.25,380.90816,376.61763)"
       id="g200"
       style="fill:#d0bd7f;fill-rule:evenodd;stroke:none">
      <path
         d="M 0.636,1.765 C 0.636,1.765 1.653,0 1.653,0 1.653,0 0,0 0,0 0.224,0.605 0.462,1.272 0.636,1.765 z"
         id="path202"
         inkscape:connector-curvature="0" />
    </g>
    <g
       transform="matrix(1.25,0,0,1.25,268.65341,267.10438)"
       id="g204"
       style="fill:#d0bd7f;fill-rule:evenodd;stroke:none">
      <path
         d="m 57.5645,71.9676 c 0,0 0.081,-0.079 0.081,-0.079 -1.7002,-3.693 -1.7246,-7.118 -1.7246,-7.118 0,0 -1.5176,-3.693 -0.8642,-4.567 0,0 -5.0157,-4.132 -3.4883,-9.1362 0,0 -1.5274,-2.3916 -1.5274,-2.3916 -1.3017,-2.3916 -15.0224,-22.626 -10.2236,-31.7549 0,0 3.2647,-3.7022 0.8662,-8.4922 -2.3916,-4.7832 -4.79,-3.042 -6.5303,-2.169 -1.7412,0.8653 -15.6738,9.1368 -15.6738,9.1368 0,0 3.7022,-8.4854 3.7022,-8.4854 0,0 -6.9668,6.7373 -8.9307,9.1358 0,0 -1.5156,-9.1358 2.623,-13.2754 C 16.8018,1.8437 17.7481,0.8984 18.6533,0 18.6533,0 0,0 0,0 c 0,0 47.7617,81.0876 47.7617,81.0876 0.8584,-0.348 1.462,-0.826 2.0186,-1.335 1.2627,-1.144 7.7217,-7.721 7.7842,-7.785 z"
         id="path206"
         style="fill:#d0bd7f;fill-opacity:1;stroke:none"
         inkscape:connector-curvature="0" />
    </g>
    <g
       transform="matrix(1.25,0,0,1.25,406.94691,267.10438)"
       id="g208"
       style="fill:#d0bd7f;fill-rule:evenodd;stroke:none">
      <path
         d="m 20.432,0 c -0.182,0.0937 -0.356,0.1816 -0.54,0.2607 1.137,1.1778 2.948,3.6865 2.017,7.0869 0,0 0,2.3916 -1.302,2.3916 0,0 0.214,5.4336 -3.05,4.7832 0,0 0.436,7.3956 -8.27,4.5674 0,0 -1.812,-0.1201 -3.623,-1.041 C 4.473,19.3906 2.479,21.6406 0,24.4131 2.645,29.498 5.187,35.416 7.078,41.9785 7.078,41.9785 31.237,0 31.237,0 c 0,0 -10.805,0 -10.805,0 z"
         id="path210"
         style="fill:#d0bd7f;fill-opacity:1;stroke:none"
         inkscape:connector-curvature="0" />
    </g>
    <g
       transform="matrix(1.25,0,0,1.25,371.27566,376.61763)"
       id="g212"
       style="fill:#d0bd7f;fill-rule:evenodd;stroke:none">
      <path
         d="m 1.238,2.177 c 0.534,0 0.987,0 1.615,0 C 2.995,1.709 3.29,0.803 3.542,0 3.542,0 0,0 0,0 0.5,0.891 1.024,1.812 1.238,2.177 z"
         id="path214"
         inkscape:connector-curvature="0" />
    </g>
    <g
       transform="matrix(1.25,0,0,1.25,334.15516,339.63763)"
       id="g216"
       style="fill:#d0bd7f;fill-rule:evenodd;stroke:none">
      <path
         d="M 39.4364,3.702 C 39.2224,3.051 29.8634,0.659 28.7664,0 c 0,0 -2.033,0.357 -0.428,1.961 1.739,1.741 1.525,4.355 0.214,7.826 0,0 -1.525,0.436 -1.525,0.436 0,0 -3.0421,5.657 -4.9962,4.79 0,0 -2.622,5.657 -5.8867,5.872 -2.1777,0.143 -4.0703,0.581 -6.2539,-0.96 C 8.3974,21.552 2.6865,27.757 0.5557,30.284 0.374,30.507 0.1914,30.72 0,30.927 c 0,0 19.3603,32.882 19.3603,32.882 0,0 16.4931,-28.657 16.4931,-28.657 0,0 -11.8524,0 -11.8524,0 0,0 0.1035,-1.191 0.1035,-1.191 0.126,-1.603 1.1509,-3.422 1.8329,-4.472 0,-0.77 0.201,-5.99 5.443,-5.99 0,0 5.441,-0.223 6.101,-0.874 0.653,-0.651 0.216,-5.004 0.216,-5.004 0,0 1.739,0 1.739,0 0,0 0,-3.695 -0.651,-5.871 -0.651,-2.178 -1.304,-4.783 -1.088,-5.656 0.214,-0.868 1.962,-1.742 1.739,-2.392 z"
         id="path218"
         style="fill:#d0bd7f;fill-opacity:1;stroke:none"
         inkscape:connector-curvature="0" />
    </g>
    <g
       transform="matrix(1.25,0,0,1.25,263.25179,232.50475)"
       id="g220"
       style="fill:#161413;fill-rule:evenodd;stroke:none">
      <path
         d="m 134.508,54.9053 c 0,0 -1.009,3.0586 -1.009,3.0586 0,0 2.747,0.914 3.661,1.2158 0,0.5566 -0.016,1.6758 -0.024,2.5742 -0.881,-0.0811 -1.644,-0.0156 -2.223,0.2451 -1.964,0.874 -1.311,8.4854 -0.874,10.0098 0.437,1.5185 0.437,2.3828 0.214,3.2568 -0.214,0.876 -0.437,0.876 -1.954,1.0899 -1.534,0.2138 -4.576,0.2138 -4.576,0.2138 -1.088,-1.3037 -4.568,-2.6054 -4.568,-2.6054 -0.072,-0.3106 -0.153,-0.6192 -0.222,-0.9209 0,0 27.518,-47.8272 27.518,-47.8272 0,0 -8.246,0 -8.246,0 0.826,-1.374 -0.604,-3.081 -0.604,-3.081 0,0 -0.047,-0.5879 -1.741,-2.0674 -1.962,-1.7071 -3.828,-1.0156 -4.614,-0.3965 -0.581,0.4463 -0.364,1.2549 -0.207,1.6689 -0.191,0.0635 -0.374,0.1348 -0.541,0.2452 -0.738,0.4931 -1.397,1.1533 -2.495,2.25 -0.101,0.1015 -0.189,0.1982 -0.285,0.3017 -0.174,-0.0156 -0.293,0.0156 -0.293,0.0156 0,-2.8369 -5.006,-4.1386 -5.006,-4.1386 -2.176,-4.3467 -3.273,-6.8887 -5.664,-7.1817 -2.835,-0.3359 -5.441,1.9619 -5.441,1.9619 C 112.049,11.0908 102.253,5.8799 96.3821,5.6572 90.5021,5.4434 81.1358,10.4473 74.8282,13.0527 68.5117,15.667 66.336,10.6631 65.2481,9.5732 64.1582,8.4853 62.42,6.9609 59.1543,3.4795 55.8897,0 51.9727,0.4375 49.1446,1.7412 46.3067,3.0518 43.4785,4.5762 39.125,7.3975 c -4.3525,2.8291 -5.4404,5.6552 -6.5302,8.7002 -1.0879,3.0419 -3.9161,5.8769 -3.9161,5.8769 0,0 -1.3427,1.3428 -3.2402,3.2412 0,0 -25.4385,0 -25.4385,0 0,0 49.5254,84.0682 49.5254,84.0682 -0.2392,0.016 -0.4775,0.024 -0.7392,0.024 0,0 -35.8057,0 -35.8057,0 0,0 -6.6484,11.965 -6.6484,11.965 0,0 38.7451,0 38.7451,0 0,0 3.9482,-0.009 3.9482,-0.009 1.6367,0 3.7969,-1.088 5.8701,-2.86 0,0 21.212,36.014 21.212,36.014 0,0 19.3126,-33.56 19.3126,-33.56 0,0 16.3019,0 16.3019,0 0,0 0,-3.216 0,-3.216 0,0 -2.901,0 -3.86,0 -0.169,-0.509 -0.486,-1.51 -0.757,-2.352 0,0 0.597,0 0.597,0 0,0 2.829,-1.302 2.829,-1.302 0,-3.266 -3.917,-7.835 -3.917,-7.835 0,0 -0.643,-3.63 -0.643,-3.63 0,0 4.846,-8.4297 4.846,-8.4297 0.572,-0.505 0.795,-0.992 0.795,-0.992 0,0 22.427,-7.826 25.69,-9.564 3.265,-1.7414 3.919,-7.6184 3.919,-7.6184 4.352,1.7383 6.307,-3.0429 6.307,-3.0429 0,0 1.525,0.6513 5.45,1.3017 3.916,0.6602 5.872,-1.3017 6.315,-2.6054 0.2,-0.6036 0.302,-1.1504 0.295,-1.5967 0.562,-0.4121 3.042,-2.2569 3.885,-4.2266 0,0 0.467,-1.1035 0.467,-1.1035 0,0 -29.432,-9.7402 -29.432,-9.7402 z M 133.037,24.876 c 1.033,-1.041 1.659,-1.6621 2.281,-2.0742 0.619,-0.4122 3.313,0.207 1.659,1.8662 -3.217,3.2021 -6.521,2.7881 -3.94,0.208 z m 0.635,3.4472 c 1.367,1.8194 2.385,3.7969 2.511,6.1407 0,0 -3.209,-5.6407 -3.209,-5.6407 0,0 0.214,-0.4375 0.214,-0.4375 0.16,-0.0058 0.318,-0.0312 0.484,-0.0625 z m -1.493,1.9229 c 1.288,2.2168 3.646,4.2178 3.576,6.7139 -0.216,0.2861 -0.707,0.0781 -1.002,0.1416 0,0 -3.432,-5.1397 -3.432,-5.1397 0,0 0.858,-1.7158 0.858,-1.7158 z m -5.155,7.0781 c 0,0 1.365,0.2861 1.365,0.2861 0.858,1.8516 2.646,3.4952 2.36,5.8555 0,0 -1.216,-0.2236 -1.216,-0.2236 -1,-1.8506 -2.574,-3.7803 -2.509,-5.918 z m 1.078,7.1348 c 0,0 -0.069,2.2246 -0.069,2.2246 -3.432,-0.2158 -5.22,-4.4346 -6.087,-7.294 0.358,-1 2.074,-0.7138 2.941,-0.7861 1.786,1.7158 2.493,3.709 3.215,5.8555 z m 1.361,-9.2803 c 0.07,-0.5068 0.572,-0.9277 1.072,-0.9277 1.216,1.499 2.716,3.4228 2.216,5.4961 -2.002,-0.3575 -2.002,-3.0733 -3.288,-4.5684 z m 1.286,-6.6484 c -0.572,3.2158 -2.581,6.292 -5.44,7.8574 -1.002,0.2861 -1.789,0.2861 -2.209,-0.707 1.643,-2.9414 3.503,-6.0782 6.505,-8.0801 0.43,0.1416 1.065,0.4277 1.144,0.9297 z m -3.79,-5.7852 c 1.209,-0.293 2.574,0.4297 2.718,1.4229 0.644,2.2168 -1.86,2.0742 -2.86,3.5742 -2.653,2.2881 -3.646,5.4267 -5.585,7.8662 -0.929,0 -1.788,-0.0723 -2.423,-0.7861 0.563,-4.6485 3.718,-9.1524 8.15,-12.0772 z M 82.0251,86.4033 c -0.2223,0.224 -0.6823,0.248 -1.2067,0.129 -1.0488,-0.248 -2.3506,-1.066 -2.5586,-1.971 -0.0713,-0.302 -0.0244,-0.612 0.208,-0.914 0,0 39.4522,-41.3885 40.2782,-42.2157 0.833,-0.8261 3.733,-0.207 1.867,2.0655 -1.867,2.2793 -37.7519,42.0822 -38.5879,42.9062 z m 3.036,4.648 c 0,0 -0.358,1.138 -0.358,1.138 0,0 -1.352,-0.217 -1.352,-0.217 0,0 0.208,-2.002 0.208,-2.002 0.723,-0.213 1.009,0.645 1.502,1.081 z m -4.2115,6.349 c -1.1504,-0.136 -0.7949,-1.424 -1.2949,-2.138 1.1445,-1.715 -0.5713,-4.576 1.0723,-6.149 1.1435,-0.215 1.4301,1.152 1.6461,1.788 -0.4303,2.146 0.865,5.434 -1.4235,6.499 z m -18.6054,-12.21 c -0.6436,0.849 -1.6436,0.563 -2.502,0.785 -1.0722,-1.652 -2.7178,-3.074 -2.6455,-5.2194 0.0713,-0.8584 0.4297,-1.6436 0.9297,-2.3604 2.3506,1.5811 3.3525,4.3628 4.2178,6.7948 z m -1.2158,-9.5731 c 4.0849,-1.2256 1.9228,4.2803 3.4248,6.2109 -0.2071,0.5712 -1.0645,0.3574 -1.4229,0.2158 -0.5,-2.4316 -4.6465,-3.997 -2.0019,-6.4267 z m -0.1426,12.8531 c 1.6445,-2.431 4.2275,-4.069 7.2226,-3.711 0,0 0.6504,1.073 0.6504,1.073 0,0 -0.0781,1.074 -0.0781,1.074 -3.1553,-0.51 -5.292,1.851 -7.6523,3.637 -0.2139,-0.573 -0.5,-1.349 -0.1426,-2.073 z m 4.4326,-12.8531 c 0.081,-0.5088 0.7158,-0.7236 1.081,-0.3672 0.9932,1.2158 0.5655,3.0039 0.8575,4.5059 -0.4366,0.2861 -0.8575,0.2861 -1.2227,-0.0723 -0.7861,-1.1436 -1.2158,-2.7178 -0.7158,-4.0664 z m -1.7168,15.1411 c 0.7168,1.573 3.4326,11.2957 5.3643,13.7917 0.3652,0.644 -0.4297,0.644 -0.9297,0.858 -0.2227,-0.192 -0.4453,-0.399 -0.6602,-0.604 -1.6904,-1.621 -2.9785,-3.583 -3.8682,-5.7347 -0.7793,-1.876 -1.248,-3.894 -1.4052,-5.952 0.2861,-0.786 0.8486,-1.645 1.499,-2.359 z m 2.084,-1.143 c 0.9209,-0.717 2.207,-0.502 3.4316,-0.145 2.1377,1.288 2.8604,3.504 3.5742,5.792 -0.2861,3.568 0.2139,6.1417 -0.7861,9.3597 -1.5742,-0.072 -5.5059,-10.9337 -6.2197,-15.0067 z m 5.2109,-6.93 c -0.7168,0.359 -1.7793,-0.069 -1.7793,-0.9275 0.0703,-2.2246 -0.6533,-4.9336 0.2139,-6.5713 2.5742,1.2793 1,5.1328 1.5654,7.4988 z m -0.2793,4.363 c -0.2138,-1.216 0.9229,-1.795 1.9317,-2.002 1.1445,0.144 2.7168,-0.073 2.9296,1.35 0.4219,1.724 -1.2851,2.654 -2.5732,3.505 -1.2861,-0.431 -1.9365,-1.574 -2.2881,-2.853 z m 3.7901,-4.8628 c -0.5088,0.6448 -1.3672,0.2798 -1.9297,0.1446 -0.3653,-2.0108 -0.5,-4.0039 -0.3653,-6.2129 3.2246,-0.0791 1.7862,3.9941 2.295,6.0683 z m -0.6446,20.7895 c 1.3604,-2.85 0.9307,-6.4967 0.9307,-9.8577 3.1455,-2.216 2.4316,2.359 2.9316,4.147 -0.2138,2.7877 -0.9931,5.6417 -3.0107,7.2857 0,0 -0.0635,0.572 -0.0635,0.572 -1.2881,0.214 -0.9922,-1.502 -0.7881,-2.147 z m 3.0049,-19.4947 c -1.0029,-1.4364 -0.7168,-3.4383 -0.6445,-5.2987 1.5019,-0.2763 0.7861,1.4307 1.4297,2.1377 -0.2862,1.0801 0.4306,2.868 -0.7852,3.161 z m -0.4307,6.849 c 0,-1.135 0.0723,-2.716 1.2881,-2.995 0.7862,-0.142 0.5791,0.786 0.8653,1.207 -0.0791,1.009 -0.0791,2.145 -0.8653,2.717 -0.5713,0.073 -1.1435,-0.357 -1.2881,-0.929 z M 117.656,38.6035 c 0,0 0.216,-0.8584 0.216,-0.8584 1.261,-0.2793 1.843,0.9619 2.2,1.8828 -0.722,-0.0566 -1.461,0.1104 -2.026,0.4932 -0.214,-0.4365 -0.262,-1.0488 -0.39,-1.5176 z m 4.149,-24.1523 c 0.643,1.1435 1.222,2.2177 1.571,3.3623 -1.571,0.2138 -1.93,-1.9326 -2.779,-2.7901 -0.151,-0.7861 0.777,-0.8584 1.208,-0.5722 z m -3.433,0.2226 c 1.788,2.209 3.288,4.4971 4.935,6.7129 -0.359,0.7168 -0.931,0.208 -1.217,-0.0781 -1.493,-1.8516 -3.504,-3.7119 -5.22,-5.5693 0.145,-0.7159 0.858,-1.0655 1.502,-1.0655 z m -2.502,2.4951 c 0,0 5.871,6.7198 5.871,6.7198 0.142,0.8515 -0.939,0.8515 -1.367,0.5722 -1.859,-2.5732 -4.434,-4.29 -6.649,-6.5058 0.429,-0.7862 1.357,-1.2862 2.145,-0.7862 z m -2.218,2.8604 c 0,0 5.865,4.9971 5.865,4.9971 0.357,0.5088 0.15,1.4297 -0.573,1.3584 -2.439,-2.4307 -5.362,-3.71 -8.008,-5.711 0.428,-1.4306 1.789,-1.5752 2.716,-0.6445 z m -4.01,2.5742 c 3.083,1.1436 5.726,3.3526 8.586,4.9971 0.502,0.6435 -0.214,1.4297 -0.714,1.5019 0,0 -8.445,-4.5693 -8.445,-4.5693 -0.072,-0.7139 0.073,-1.4365 0.573,-1.9297 z m -0.994,3.7813 c 2.851,1.0019 5.434,2.7177 8.08,4.0752 0.5,0.4287 -0.072,1.0722 -0.572,1.2168 -2.724,-1.1446 -5.078,-2.8536 -7.938,-3.7188 -0.437,-0.3574 0.072,-1.1436 0.43,-1.5732 z m -1.508,3.2177 c 2.502,0.7139 4.79,1.9297 7.156,2.9952 -2.86,0.0781 -5.506,-0.2862 -7.373,-2.3516 0,0 0.217,-0.6436 0.217,-0.6436 z m -7.135,-1.9228 c 0,0 4.765,0 4.765,0 0.604,0.5244 0.971,1.0332 0.971,1.0332 0,0 -1.184,2.5088 -0.223,3.0488 5.877,3.2656 9.796,2.1777 9.796,2.1777 0,0 0.873,1.9551 0.873,1.9551 0,0 0,0 0.866,5.1866 -0.937,0.9765 -2.788,2.9248 -5.204,5.458 -4.823,-8.0391 -9.232,-12.9961 -9.81,-13.6875 -1.05,-1.2559 -4.3069,-2.9161 -2.034,-5.1719 z m -43.6788,8.6514 c 2.668,-4.2422 17.8516,-17.1915 39.8329,5.4414 3.806,3.9091 6.9919,7.6269 9.6359,11.1152 C 97.1681,61.9424 86.1891,73.4863 81.1602,78.7627 78.7285,77.4521 76.251,75.9883 73.7403,74.3916 54.585,62.2129 50.0098,46.3408 56.3262,36.3311 z M 39.1573,10.8838 c 1.1523,-0.6104 2.583,-0.1416 3.3935,0.9463 -0.8105,1.3574 -2.583,2.4472 -2.4482,4.0039 1.2949,0.9521 3.4726,1.0879 3.9482,2.9228 0.335,1.0176 0.1279,2.2412 -0.5478,3.0518 0,0 -1.628,0.1435 -1.628,0.1435 0.6758,-0.747 0.8809,-1.9072 0.541,-2.79 -0.6132,-0.6103 -1.1533,-1.5654 -2.1689,-1.2139 -1.7725,0.0635 -1.3672,3.1846 -2.9951,1.962 0.7451,-2.917 1.7002,-5.8399 1.9053,-9.0264 z M 31.293,22.1885 c 4.3467,4.3554 6.3076,9.1367 6.3076,9.1367 -0.8672,2.1777 -10.4463,6.5234 -10.4463,6.5234 0,0 5.6631,-10.4394 5.6631,-10.4394 0,0 -14.1484,12.1875 -14.1484,12.1875 0,0 0.2138,-5.6573 1.9541,-7.6182 1.748,-1.9551 10.6699,-9.79 10.6699,-9.79 z M 4.3213,27.6797 c 0,0 18.6533,0 18.6533,0 -0.9052,0.8984 -1.8515,1.8437 -2.7793,2.7715 -4.1386,4.1396 -2.623,13.2754 -2.623,13.2754 1.9639,-2.3985 8.9307,-9.1358 8.9307,-9.1358 0,0 -3.7022,8.4854 -3.7022,8.4854 0,0 13.9326,-8.2715 15.6738,-9.1368 1.7403,-0.873 4.1387,-2.6142 6.5303,2.169 2.3985,4.79 -0.8662,8.4922 -0.8662,8.4922 -4.7988,9.1289 8.9219,29.3633 10.2236,31.7549 0,0 1.5274,2.3916 1.5274,2.3916 -1.5274,5.0042 3.4883,9.1362 3.4883,9.1362 -0.6534,0.874 0.8642,4.567 0.8642,4.567 0,0 0.0244,3.425 1.7246,7.118 0,0 -0.081,0.079 -0.081,0.079 -0.0625,0.064 -6.5215,6.6407 -7.7842,7.7847 -0.5566,0.509 -1.1602,0.987 -2.0186,1.335 0,0 -47.7617,-81.0873 -47.7617,-81.0873 z m 10.3272,92.1223 c 0,0 -5.8233,0 -5.8233,0 0,0 5.0215,-9.032 5.0215,-9.032 0,0 5.8242,0 5.8242,0 0,0 -5.0224,9.032 -5.0224,9.032 z m 34.3769,-0.006 c -1.6601,0 -4.3213,0 -4.3213,0 0,0 4.0821,-9.026 4.0821,-9.026 3.4482,0 4.997,-1.072 6.3017,-2.257 1.3106,-1.182 7.4668,-7.42 7.4668,-7.42 0,0 2.6758,3.815 2.6758,3.815 0,0 -6.5781,7.173 -9.0713,10.145 -2.4951,2.97 -5.4648,4.743 -7.1338,4.743 z m 27.0576,29.719 c 0,0 -19.3603,-32.882 -19.3603,-32.882 0.1914,-0.207 0.374,-0.42 0.5557,-0.643 2.1308,-2.527 7.8417,-8.732 9.3349,-10.359 2.1836,1.541 4.0762,1.103 6.2539,0.96 3.2647,-0.215 5.8867,-5.872 5.8867,-5.872 1.9541,0.867 4.9962,-4.7897 4.9962,-4.7897 0,0 1.525,-0.436 1.525,-0.436 1.311,-3.471 1.525,-6.085 -0.214,-7.826 -1.605,-1.604 0.428,-1.961 0.428,-1.961 1.097,0.659 10.456,3.051 10.67,3.702 0.223,0.65 -1.525,1.524 -1.739,2.392 -0.216,0.873 0.437,3.478 1.088,5.656 0.651,2.176 0.651,5.8707 0.651,5.8707 0,0 -1.739,0 -1.739,0 0,0 0.437,4.353 -0.216,5.004 -0.66,0.651 -6.101,0.874 -6.101,0.874 -5.242,0 -5.443,5.22 -5.443,5.99 -0.682,1.05 -1.7069,2.869 -1.8329,4.472 0,0 -0.1035,1.191 -0.1035,1.191 0,0 11.8524,0 11.8524,0 0,0 -16.4931,28.657 -16.4931,28.657 z M 95.7781,115.29 c 0,0 -1.017,1.765 -1.017,1.765 -0.174,-0.493 -0.412,-1.16 -0.636,-1.765 0,0 1.653,0 1.653,0 z m -5.817,0 c -0.252,0.803 -0.547,1.709 -0.689,2.177 -0.628,0 -1.081,0 -1.615,0 -0.214,-0.365 -0.738,-1.286 -1.238,-2.177 0,0 3.542,0 3.542,0 z m -5.361,-2.057 c -0.374,-0.468 0.024,-1.398 0.874,-2.067 0.857,-0.666 1.85,-0.818 2.217,-0.34 0.372,0.469 -0.024,1.398 -0.876,2.057 -0.848,0.667 -1.841,0.819 -2.215,0.35 z m 22.4519,5.504 c 0,0 3.567,0 3.567,0 0,0 0,1.027 0,1.027 0,0 -28.6969,0 -28.6969,0 0.135,-1.646 1.479,-3.727 1.995,-4.474 0,0 1.239,0 1.239,0 0,0 1.86,3.28 1.86,3.28 0,0 3.058,0 3.058,0 0,0 1.04,-3.28 1.04,-3.28 0,0 1.835,0 1.835,0 0,0 1.201,3.28 1.201,3.28 0,0 9.1679,0 9.1679,0 0,0 0.937,-3.28 0.937,-3.28 0,0 1.7,0 1.7,0 0,0 1.097,3.447 1.097,3.447 z m -9.6859,-1.27 c 0,0 1.256,-2.177 1.256,-2.177 0,0 4.4879,0 4.4879,0 -0.222,0.779 -0.483,1.693 -0.619,2.177 -0.804,0 -3.1929,0 -5.1249,0 z m 6.3799,-16.016 c 0,0 -0.428,-4.4317 -0.428,-4.4317 0,0 3.511,-1.741 3.511,-1.741 0.157,0.007 0.311,0.007 0.461,0.007 0,0 -3.544,6.1657 -3.544,6.1657 z m 11.138,-15.9597 c -3.401,3.876 -13.886,2.591 -26.9069,-3.3214 5.02,-5.5596 14.0619,-15.6357 21.5359,-23.9834 8.914,13.8389 8.731,23.459 5.371,27.3048 z m 0.072,-33.3985 c 2.479,-2.7725 4.473,-5.0225 5.664,-6.3643 1.811,0.9209 3.623,1.041 3.623,1.041 8.706,2.8282 8.27,-4.5674 8.27,-4.5674 3.264,0.6504 3.05,-4.7832 3.05,-4.7832 1.302,0 1.302,-2.3916 1.302,-2.3916 0.931,-3.4004 -0.88,-5.9091 -2.017,-7.0869 0.184,-0.0791 0.358,-0.167 0.54,-0.2607 0,0 10.805,0 10.805,0 0,0 -24.159,41.9785 -24.159,41.9785 -1.891,-6.5625 -4.433,-12.4805 -7.078,-17.5654 z m 29.53,11.8613 c -1.137,-0.4688 -2.288,-0.9053 -3.4,-1.2793 0.421,-0.6123 0.873,-1.2725 1.128,-1.6533 1.176,0.3984 6.076,2.0117 7.181,2.3828 0.016,0.5019 0.047,1.5019 0.073,2.376 -1.98,-0.6826 -3.807,-1.3418 -4.982,-1.8262 z m 10.262,8.46 c -1.047,0.2461 -2.018,-0.0157 -2.152,-0.6036 -0.143,-0.581 0.596,-1.2627 1.645,-1.5175 1.048,-0.2539 2.025,0.0156 2.16,0.6035 0.144,0.581 -0.594,1.2637 -1.653,1.5176 z m -1.38,-5.3145 c 0.506,-0.7002 1.094,-1.5019 1.399,-1.9228 0.587,0.1982 1.015,0.3418 1.524,0.5087 0.088,0.4278 0.302,1.5088 0.5,2.5332 -0.962,-0.3085 -2.145,-0.6972 -3.423,-1.1191 z m 5.72,1.8672 c -0.009,0 -0.009,-0.0088 -0.016,-0.0088 -0.112,-0.0322 -0.503,-0.1582 -1.081,-0.3496 0,0 -0.738,-3.7647 -0.738,-3.7647 0,0 -2.907,-0.9619 -2.907,-0.9619 0,0 -2.068,2.8535 -2.068,2.8535 -0.563,-0.1914 -1.135,-0.3828 -1.7,-0.5722 0,0 -0.102,-3.5606 -0.102,-3.5606 0,0 -8.708,-2.8828 -8.708,-2.8828 0,0 -1.779,2.6123 -1.779,2.6123 -0.613,-0.1728 -1.2,-0.3174 -1.757,-0.4209 0,0 0.04,-3.5263 0.04,-3.5263 0,0 -3.383,-1.1192 -3.383,-1.1192 0,0 0.317,-0.9707 0.317,-0.9707 0,0 27.258,9.0166 27.258,9.0166 -0.667,1.5654 -2.7,3.1621 -3.376,3.6553 z"
         id="path222"
         style="fill:#000000;stroke:none"
         inkscape:connector-curvature="0" />
    </g>
  </g>
</svg>
