<?xml version="1.0" encoding="UTF-8" standalone="no"?>
<!-- Created with Inkscape (http://www.inkscape.org/) -->

<svg
   xmlns:dc="http://purl.org/dc/elements/1.1/"
   xmlns:cc="http://creativecommons.org/ns#"
   xmlns:rdf="http://www.w3.org/1999/02/22-rdf-syntax-ns#"
   xmlns:svg="http://www.w3.org/2000/svg"
   xmlns="http://www.w3.org/2000/svg"
   xmlns:sodipodi="http://sodipodi.sourceforge.net/DTD/sodipodi-0.dtd"
   xmlns:inkscape="http://www.inkscape.org/namespaces/inkscape"
   version="1.0"
   width="564.1983"
   height="459.47879"
   id="svg3673"
   inkscape:version="0.48.2 r9819"
   sodipodi:docname="AJAX.svg">
  <metadata
     id="metadata83">
    <rdf:RDF>
      <cc:Work
         rdf:about="">
        <dc:format>image/svg+xml</dc:format>
        <dc:type
           rdf:resource="http://purl.org/dc/dcmitype/StillImage" />
      </cc:Work>
    </rdf:RDF>
  </metadata>
  <sodipodi:namedview
     pagecolor="#ffffff"
     bordercolor="#666666"
     borderopacity="1"
     objecttolerance="10"
     gridtolerance="10"
     guidetolerance="10"
     inkscape:pageopacity="0"
     inkscape:pageshadow="2"
     inkscape:window-width="1280"
     inkscape:window-height="1004"
     id="namedview81"
     showgrid="false"
     fit-margin-top="0"
     fit-margin-left="0"
     fit-margin-right="0"
     fit-margin-bottom="0"
     inkscape:zoom="1.3906433"
     inkscape:cx="325.9188"
     inkscape:cy="204.46268"
     inkscape:window-x="-8"
     inkscape:window-y="-8"
     inkscape:window-maximized="1"
     inkscape:current-layer="svg3673" />
  <defs
     id="defs3675">
    <clipPath
       id="clipPath2624">
      <path
         d="m 49.5,39.144 126,0 0,113.312 -126,0 0,-113.312 z"
         id="path2626"
         inkscape:connector-curvature="0" />
    </clipPath>
    <clipPath
       id="clipPath2616">
      <path
         d="M 0,0 360,0 360,576 0,576 0,0 z"
         id="path2618"
         inkscape:connector-curvature="0" />
    </clipPath>
    <clipPath
       id="clipPath2680">
      <path
         d="m 56.17101,48.83099 112.658,0 0,93.937 -112.658,0 0,-93.937 z"
         id="path2682"
         inkscape:connector-curvature="0" />
    </clipPath>
    <clipPath
       id="clipPath2672">
      <path
         d="m 49.5,39.144 126,0 0,113.312 -126,0 0,-113.312 z"
         id="path2674"
         inkscape:connector-curvature="0" />
    </clipPath>
    <clipPath
       id="clipPath2664">
      <path
         d="M 0,0 360,0 360,576 0,576 0,0 z"
         id="path2666"
         inkscape:connector-curvature="0" />
    </clipPath>
    <clipPath
       id="clipPath2704">
      <path
         d="m 49.5,39.144 126,0 0,113.312 -126,0 0,-113.312 z"
         id="path2706"
         inkscape:connector-curvature="0" />
    </clipPath>
    <clipPath
       id="clipPath2696">
      <path
         d="M 0,0 360,0 360,576 0,576 0,0 z"
         id="path2698"
         inkscape:connector-curvature="0" />
    </clipPath>
  </defs>
  <g
     id="layer1"
     transform="translate(-38.014314,-6.9479329)">
    <g
       transform="matrix(5.0080649,0,0,-4.8913549,-243.29391,705.27807)"
       id="g2612">
      <g
         clip-path="url(#clipPath2616)"
         id="g2614">
        <g
           id="g2620">
          <g
             clip-path="url(#clipPath2624)"
             id="g2622">
            <path
               d="m 129.604,64.28799 c -0.199,0.30101 -0.675,0.448 -0.86599,0.97101 -0.088,0.236 -0.14402,0.53301 -0.34101,0.635 0,0 -0.776,-1.189 -0.40699,-2.959 0.79199,-0.194 1.59298,0.619 1.59298,0.619 0,0 0.16001,0.524 0.021,0.73399 M 124.835,65.856 c -0.96201,-0.37401 -1.26902,-1.08301 -1.26902,-1.08301 0,0 0.196,-0.15199 0.38201,-0.42498 0.186,-0.27301 0.23401,-0.66001 0.246,-0.78101 0.012,-0.11999 1.032,0.02001 1.032,0.02001 0.28801,0.07199 1.082,2.20999 1.082,2.20999 0,0 0.168,0.477 0.09,0.57901 -0.079,0.10299 -0.59899,-0.14402 -1.56298,-0.52001"
               id="path2628"
               style="fill:#ffffff;fill-opacity:1;fill-rule:nonzero;stroke:none"
               inkscape:connector-curvature="0" />
            <path
               d="m 152.159,120.411 -5.598,-1.116 c -0.22399,-0.045 -22.61,-4.456 -36.722,-4.456 -13.938,0 -35.893,4.275 -36.82099,4.45701 l -7.11101,1.35598 43.884,-70.90899 43.93401,71.026 -1.56601,-0.358 z"
               id="path2630"
               style="fill:#010101;fill-opacity:1;fill-rule:nonzero;stroke:none"
               inkscape:connector-curvature="0" />
            <path
               d="m 146.884,117.504 c -0.92801,-0.18399 -22.89,-4.489 -37.045,-4.489 -14.098,0 -36.20401,4.30501 -37.138,4.48801 l -3.124,0.61898 40.214,-64.09599 40.214,64.10001 -3.121,-0.62201 z"
               id="path2632"
               style="fill:#f28f20;fill-opacity:1;fill-rule:nonzero;stroke:none"
               inkscape:connector-curvature="0" />
            <path
               d="m 146.981,116.96001 0,0 c -0.929,-0.18401 -22.92199,-4.49901 -37.142,-4.49901 -14.147,0 -36.307,4.31599 -37.24301,4.49901 l -1.89399,0.37599 39.089,-62.304 39.089,62.307 -1.899,-0.37899 z"
               id="path2634"
               style="fill:#05535d;fill-opacity:1;fill-rule:nonzero;stroke:none"
               inkscape:connector-curvature="0" />
            <path
               d="m 145.729,115.371 c -3.72,-0.69501 -22.93499,-4.162 -35.89,-4.162 -12.94999,0 -32.11399,3.56 -35.82499,4.27299 l -0.45801,0.088 36.23601,-57.71601 36.39399,57.60199 -0.457,-0.085 z"
               id="path2636"
               style="fill:#ffffff;fill-opacity:1;fill-rule:nonzero;stroke:none"
               inkscape:connector-curvature="0" />
            <path
               d="M 68.17799,119.132 83.966,93.953 c 0,0 -1.16301,10.24201 4.39499,12.80899 5.55802,2.56801 12.22801,7.58701 12.22801,7.58701 l -32.41101,4.783 z"
               id="path2638"
               style="fill:#010101;fill-opacity:1;fill-rule:nonzero;stroke:none"
               inkscape:connector-curvature="0" />
            <path
               d="m 142.897,104.28799 c -5.91301,-2.53599 -7.30999,-3.35598 -7.724,-3.91499 0,0 -0.012,-0.019 -0.018,-0.026 -4.293,3.75501 -9.04199,7.366 -13.454,10.213 0,0 2.888,0.113 2.32599,0.472 -0.65999,1.408 -1.517,2.899 -2.53698,4.496 -1.70101,10e-4 -8.125,-0.689 -11.65101,-0.689 -1.65901,0 -3.432,0.061 -5.268,0.168 0.14799,-0.34201 0.27701,-0.67199 0.381,-0.992 -1.099,-0.085 -3.88401,-0.724 -4.663,-0.828 -0.919,-0.123 -2.492,-0.472 -3.703,-0.833 -10.26,-2.18901 -13.873,-7.02 -14.03501,-7.296 l 0.16301,-0.32601 0.088,-0.52499 c -0.008,-0.076 1.469,-0.138 1.469,-1.11 0,-2.265 1.33101,-7.136 3.22599,-11.77 C 86.43201,91.231 93.739,77.425 92.539,77.45599 l 0.89301,-1.28 c 6.77099,-1.74198 9.14698,-1.98599 15.43599,-1.85198 0,0 0.34401,0.007 0.68699,0.01399 1.625,-1.06301 3.45801,-2.262 5.248,-3.34799 1.07601,-0.653 2.49501,-1.56601 3.998,-2.53301 0.63601,-0.409 2.51601,0.44099 3.10502,0.06599 0,0 21.72299,34.92202 21.86099,36.14701 0,0 -0.592,-0.263 -0.87,-0.38201"
               id="path2640"
               style="fill:#ffffff;fill-opacity:1;fill-rule:nonzero;stroke:none"
               inkscape:connector-curvature="0" />
            <path
               d="M 84.731,92.32001 C 84.85001,92 85.147,91.50101 85.37801,90.951 c 1.86299,0 3.21699,0.323 4.40699,0.36499 0,0 5.21399,-5.416 5.32,-3.444 0.106,1.96901 -3.225,5.99302 -6.211,5.54902 -2.987,-0.44501 -4.573,0.32399 -4.163,-1.101"
               id="path2642"
               style="fill:#05535d;fill-opacity:1;fill-rule:nonzero;stroke:none"
               inkscape:connector-curvature="0" />
            <path
               d="m 152.886,75.472 c -1.268,2.83099 -1.457,3.397 -1.457,3.397 0,0 -1.07899,4.918 -1.95199,6 -0.87201,1.083 -2.379,1.748 -2.379,1.748 0,0 -0.16701,0.219 -0.46901,0.601 1.33101,2.346 3.54001,6.527 5.455,11.512 2.974,7.74301 4.22301,11.05101 3.213,10.677 -1.012,-0.375 -7.909,-3.996 -12.133,-5.806 -4.22101,-1.81101 -7.017,-3.123 -7.43201,-3.68399 -0.18499,-0.25 -0.31098,-0.46102 -0.44699,-0.64801 -4.02301,3.567 -8.942,7.423 -13.95401,10.658 -6.58099,4.245 -7.45199,4.661 -10.54599,4.911 -3.09201,0.25 -8.559,-0.078 -11.196,-0.43 -1.001,-0.134 -2.097,-0.406 -3.12001,-0.71099 -10.108,-2.14 -13.918,-8.63901 -13.918,-8.63901 0,0 -0.60499,-6.11701 2.18001,-12.73799 1.86299,0 3.331,0.29098 4.52001,0.33299 6.42,-3.864 5.556,-5.59 3.571,-6.66499 2.998,-2.20201 7.98298,-6.30301 8.91299,-6.61701 1.487,-0.50599 2.948,-1.16701 3.67101,-1.556 1.96099,-1.06199 5.94499,-3.871 9.75099,-6.182 3.806,-2.31 11.713,-7.74399 13.556,-8.056 1.843,-0.312 4.46499,-0.763 5.892,-0.7 1.425,0.061 2.278,0.408 2.278,0.408 0,0 1.93299,-0.583 3.835,-0.583 1.90399,0 3.27899,0.75199 3.27899,0.75199 0,0 1.42701,-0.87399 4.51902,-1.12399 0,0 2.026,-0.169 3.929,-0.145 1.96499,-0.045 3.39399,0.3 3.61499,0.576 0.36101,0.45101 -1.905,9.881 -3.174,12.711"
               id="path2644"
               style="fill:#010101;fill-opacity:1;fill-rule:nonzero;stroke:none"
               inkscape:connector-curvature="0" />
            <path
               d="m 137.451,64.64301 c -1.51001,-0.001 -4.222,-0.003 -5.31601,0.19699 l -0.47799,0.08599 0.419,0.25901 c 0.624,0.388 1.342,0.848 1.801,1.22 -1.77001,-0.075 -4.638,0.02 -5.498,0.246 l -0.317,0.08299 0.24,0.235 c 0.231,0.22701 0.578,0.51001 0.94499,0.808 0.39402,0.32102 0.81601,0.66901 1.112,0.96102 C 129.06799,68.59599 127.117,68.431 126.158,68.47 l -0.39199,0.015 0.33699,0.37599 c 0.287,0.319 0.826,0.92201 1.084,1.41802 -0.014,-0.003 -0.054,-0.01001 -0.054,-0.01001 -1.045,-0.185 -2.476,-0.44001 -3.07801,-0.41699 l -0.32998,0.01199 0.18899,0.283 c 0.27001,0.398 0.54399,0.81501 0.726,1.12799 -0.133,-0.026 -0.27,-0.054 -0.27,-0.054 C 123.61501,71.058 122.677,70.853 122.17101,71.017 l -0.24001,0.07699 0.149,0.21201 c 0.288,0.412 0.407,0.69501 0.46401,0.88499 C 121.989,72.045 121.09599,71.868 120.59399,72.084 l -0.24699,0.105 0.189,0.20001 c 0.143,0.14999 0.27101,0.39499 0.346,0.59999 -2.138,0.02099 -3.36599,-0.357 -3.36599,-0.357 3.32998,-0.125 6.69899,-5.28601 7.57199,-6.24299 0.87201,-0.957 3.488,-2.207 6.779,-2.58101 2.503,-0.28501 4.25699,0.052 4.76101,0.17 0.26799,0.18 0.54199,0.402 0.82299,0.66501"
               id="path2646"
               style="fill:#ffffff;fill-opacity:1;fill-rule:nonzero;stroke:none"
               inkscape:connector-curvature="0" />
            <path
               d="M 134.72099,67.97099 C 131.114,69.92599 128.933,71.716 124.573,72.59 c -1.25,0.251 -2.36501,0.361 -3.317,0.391 -0.063,-0.211 -0.17,-0.432 -0.284,-0.61 0.45799,-0.056 1.17101,0.08299 1.754,0.259 l 0.22799,0.06701 0,-0.248 c 0,-0.17 -0.078,-0.53701 -0.42498,-1.10502 0.472,-0.03099 1.20099,0.12101 1.76799,0.24501 l 0.979,0.194 -0.134,-0.324 c -0.101,-0.246 -0.368,-0.672 -0.732,-1.222 0.69001,0.052 1.84999,0.257 2.663,0.401 l 0.656,0.116 -0.076,-0.284 c -0.138,-0.519 -0.679,-1.172 -1.08,-1.629 1.063,0.007 2.873,0.16201 4.21699,0.323 l 0.38901,0.04601 -0.222,-0.33802 c -0.241,-0.37199 -0.87601,-0.89 -1.491,-1.39 -0.236,-0.19299 -0.449,-0.36999 -0.64,-0.53498 1.18,-0.17501 3.96801,-0.25701 5.53099,-0.14402 l 0.433,0.03 L 134.504,66.491 c -0.303,-0.361 -1.038,-0.864 -1.803,-1.34799 1.27601,-0.12801 3.53,-0.12601 4.821,-0.125 l 0.81501,9.9e-4 -0.306,-0.31999 C 137.89301,64.552 137.59,64.239 137.192,63.927 c 0.594,-0.125 1.69499,-0.339 2.36501,-0.369 1.10899,-0.047 2.418,-0.166 3.806,0.166 -1.94301,0.91501 -5.03501,2.29001 -8.64202,4.24699"
               id="path2648"
               style="fill:#ffffff;fill-opacity:1;fill-rule:nonzero;stroke:none"
               inkscape:connector-curvature="0" />
            <path
               d="m 106.019,102.31 c 0,0 2.061,-1.582 4.20199,-4.495 2.14202,-2.914 3.56801,-5.162 3.17202,-5.412 -0.39602,-0.25 -1.98201,0.5 -1.98201,0.5 0,0 3.44799,-2.242 6.62001,-5.155 3.16999,-2.91501 4.79599,-4.58501 4.79599,-4.58501 0,0 5.15499,0.084 5.709,-1.24899 0.556,-1.332 0.794,-1.914 1.19,-2.664 0.39599,-0.74899 2.85499,-4.495 3.171,-4.495 0.318,0 1.277,0.005 1.515,0.25499 0.23799,0.25101 0.62599,1.07702 0.62599,1.07702 0,0 0.31801,-1.83201 -0.317,-2.74701 0.62601,-0.50299 6.50602,-4.474 11.62201,-6.736 4.45301,-1.96701 8.448,-3.563 8.844,-3.14601 0.397,0.416 -1.75499,8.71701 -3.023,11.54701 -1.269,2.83001 -1.45801,3.39699 -1.45801,3.39699 0,0 -1.07899,4.91802 -1.95199,6 -0.871,1.08301 -2.37799,1.74901 -2.37799,1.74901 0,0 -3.88401,5.08701 -8.32502,9.416 -4.43899,4.329 -10.86299,9.647 -17.442,13.89301 -6.582,4.24598 -7.45298,4.66198 -10.54599,4.91099 -3.09201,0.25 -8.007,-0.24 -10.623,-0.739 -2.617,-0.5 -6.10701,-1.83101 -6.10701,-1.83101 0,0 3.569,-1.74899 7.29502,-4.82899 l 5.39099,-4.662 z"
               id="path2650"
               style="fill:#05535d;fill-opacity:1;fill-rule:nonzero;stroke:none"
               inkscape:connector-curvature="0" />
            <path
               d="m 126.039,80.20799 c 0,0 1.38699,-1.33198 2.22,-2.57998 0.833,-1.25 2.22,-3.53901 2.22,-3.53901 0,0 -1.86399,0.874 -2.378,1.166 -0.515,0.292 -0.95101,0.624 -0.95101,0.624 0,0 -0.595,1.41501 -0.75399,2.289 -0.159,0.875 -0.357,2.03999 -0.357,2.03999"
               id="path2652"
               style="fill:#f28f20;fill-opacity:1;fill-rule:nonzero;stroke:none"
               inkscape:connector-curvature="0" />
            <path
               d="m 116.215,84.02499 0.942,-1.362 c 0,0 -1.03099,-4.39698 -0.907,-5.70799 0,0 -0.75999,3.15 -0.035,7.06999"
               id="path2654"
               style="fill:#05535d;fill-opacity:1;fill-rule:nonzero;stroke:none"
               inkscape:connector-curvature="0" />
            <path
               d="m 113.914,86.26199 0.941,-1.56399 c 0,0 -0.864,-4.86901 -0.646,-6.52201 0,0 -1.01801,3.58802 -0.295,8.086"
               id="path2656"
               style="fill:#05535d;fill-opacity:1;fill-rule:nonzero;stroke:none"
               inkscape:connector-curvature="0" />
            <path
               d="m 111.63699,88.297 0.94101,-1.362 c 0,0 -0.74299,-5.09799 -0.524,-7.284 0,0 -1.16299,3.83901 -0.41701,8.646"
               id="path2658"
               style="fill:#05535d;fill-opacity:1;fill-rule:nonzero;stroke:none"
               inkscape:connector-curvature="0" />
          </g>
        </g>
      </g>
    </g>
    <g
       transform="matrix(5.0080649,0,0,-4.8913549,-243.29391,705.27807)"
       id="g2660">
      <g
         clip-path="url(#clipPath2664)"
         id="g2662">
        <g
           id="g2668">
          <g
             clip-path="url(#clipPath2672)"
             id="g2670">
            <g
               id="g2676">
              <g
                 clip-path="url(#clipPath2680)"
                 id="g2678">
                <path
                   d="m 106.455,96.233 c 0,0 -8.20601,5.412 -13.597,6.95101 -5.392,1.53999 -5.867,1.74899 -6.185,1.498 -0.317,-0.24901 -1.22799,-0.957 -1.22799,-0.957 0,0 0.79199,1.66499 1.18899,1.66499 0.39701,0 3.72699,-0.58299 8.444,-2.49699 4.62799,-1.879 8.52401,-4.62002 11.377,-6.66001"
                   id="path2684"
                   style="fill:#05535d;fill-opacity:1;fill-rule:nonzero;stroke:none"
                   inkscape:connector-curvature="0" />
                <path
                   d="m 89.231,92.05 c 0,0 -4.938,-0.53399 -14.09601,-0.90899 C 65.97701,90.76601 56.218,90.681 56.173,90.49001 55.995,89.741 67.97701,83.98399 82.44099,79.966 98.054,75.63 100.112,74.88 108.854,75.067 c -0.89199,1.31101 -1.902,2.372 -3.62699,3.80901 C 103.502,80.312 95.118,88.80299 89.231,92.05"
                   id="path2686"
                   style="fill:#010101;fill-opacity:1;fill-rule:nonzero;stroke:none"
                   inkscape:connector-curvature="0" />
                <path
                   d="m 104.216,102.039 c 0,0 4.69699,0.875 10.05001,-0.18699 5.35199,-1.06101 14.54399,-4.50101 15.08999,-4.142 0.952,0.62298 -6.94101,16.60699 -14.12899,25.65399 -6.41401,8.073 -15.64901,16.276 -22.487,19.397 -0.74201,0.33901 5.76799,-11.30099 8.44299,-18.97999 2.67599,-7.68001 2.22999,-11.56501 2.22999,-11.56501 0,0 -6.39199,0.375 -10.91099,-0.749 -4.52001,-1.124 2.79401,-7.36699 11.714,-9.428"
                   id="path2688"
                   style="fill:#010101;fill-opacity:1;fill-rule:nonzero;stroke:none"
                   inkscape:connector-curvature="0" />
                <path
                   d="m 128.924,68.77699 c -0.022,0.026 -0.467,0.40801 -0.741,0.81801 -0.014,0.26199 -0.065,0.83099 -0.272,1.024 -0.042,0.25701 -0.422,0.349 -0.855,0.344 -0.74699,-0.009 -0.946,0.238 -2.00501,0.06199 C 123.99001,70.84801 121.793,70.371 116.011,70.392 c 0,0 -7.865,-0.043 -11.80099,0.246 -3.93601,0.28999 -5.67002,0.60201 -5.983,0.39 C 97.91499,70.82001 92.06,66.298 88.67101,62.711 85.285,59.123 82.52901,55.41901 80.85699,53.293 79.186,51.17101 78.489,49.925 78.53101,49.75999 78.55299,49.675 78.957,49.03101 79.00999,48.894 79.092,48.688 82.155,49.05 84.632,49.118 c 2.47699,0.067 5.74199,0.10099 5.85801,0.268 0.11698,0.166 1.84298,4.72701 5.26499,8.60401 3.426,3.87699 7.243,7.71598 7.635,7.67799 0.395,-0.036 9.83,0.271 14.23199,0.72999 4.39901,0.459 10.13601,1.099 10.487,1.349 0.35102,0.252 1.09301,0.70301 0.81501,1.03"
                   id="path2690"
                   style="fill:#010101;fill-opacity:1;fill-rule:nonzero;stroke:none"
                   inkscape:connector-curvature="0" />
              </g>
            </g>
          </g>
        </g>
      </g>
    </g>
    <g
       transform="matrix(5.0080649,0,0,-4.8913549,-243.29391,705.27807)"
       id="g2692">
      <g
         clip-path="url(#clipPath2696)"
         id="g2694">
        <g
           id="g2700">
          <g
             clip-path="url(#clipPath2704)"
             id="g2702">
            <path
               d="M 95.211,64.32401 C 93.65199,64.425 92.44,64.46899 91.50301,64.48 90.636,63.685 89.804,62.87801 89.082,62.11501 88.918,61.94 88.755,61.765 88.59399,61.591 c 2.349,0.277 6.33501,0.63601 8.90702,0.264 0.46199,0.51899 0.931,1.037 1.392,1.537 C 98.189,63.821 97.052,64.203 95.211,64.32401"
               id="path2708"
               style="fill:#ffffff;fill-opacity:1;fill-rule:nonzero;stroke:none"
               inkscape:connector-curvature="0" />
            <path
               d="m 88.209,61.17101 c -0.776,-0.851 -1.511,-1.69901 -2.204,-2.52102 0.975,0.099 2.389,0.18801 4.508,0.25602 1.81,0.056 3.205,-0.056 4.147,-0.32601 0.122,0.15599 0.23301,0.289 0.32801,0.39701 l 0.04399,0.04998 c 0.63901,0.74401 1.391,1.61101 2.173,2.496 -2.513,0.295 -6.418,-0.03298 -8.996,-0.35198"
               id="path2710"
               style="fill:#ffffff;fill-opacity:1;fill-rule:nonzero;stroke:none"
               inkscape:connector-curvature="0" />
            <path
               d="m 90.524,58.533 c -2.41099,-0.076 -3.90001,-0.182 -4.866,-0.29701 -0.25,-0.30398 -0.494,-0.599 -0.733,-0.892 0.707,0.12401 1.67701,0.26902 2.989,0.41701 l 0.425,0.05 c 2.385,0.26999 4.665,0.53 5.948,0.277 0.04599,0.063 0.08901,0.12401 0.13401,0.181 C 93.657,58.463 92.444,58.59399 90.524,58.533"
               id="path2712"
               style="fill:#ffffff;fill-opacity:1;fill-rule:nonzero;stroke:none"
               inkscape:connector-curvature="0" />
            <path
               d="m 87.045,53.564 c 2.155,0.098 3.097,0.141 4.283,-0.12999 0.332,0.59999 0.677,1.18699 1.02001,1.748 C 91.593,55.49899 90.492,55.77499 88.931,55.791 86.923,55.811 85.101,55.78 83.614,55.70399 83.10201,55.056 82.627,54.444 82.194,53.883 l -0.664,-0.85 c 1.289,0.21 3.02499,0.418 4.86301,0.501 l 0.65199,0.03 z"
               id="path2714"
               style="fill:#ffffff;fill-opacity:1;fill-rule:nonzero;stroke:none"
               inkscape:connector-curvature="0" />
            <path
               d="M 88.37601,57.44 87.952,57.392 c -1.585,-0.17999 -2.67099,-0.356 -3.387,-0.49401 -0.22101,-0.274 -0.43699,-0.54499 -0.647,-0.80899 1.433,0.066 3.143,0.094 5.015,0.073 1.657,-0.017 2.817,-0.31199 3.614,-0.657 0.533,0.85599 1.054,1.631 1.501,2.256 -1.26899,0.18199 -3.576,-0.08101 -5.67199,-0.321"
               id="path2716"
               style="fill:#ffffff;fill-opacity:1;fill-rule:nonzero;stroke:none"
               inkscape:connector-curvature="0" />
            <path
               d="M 92.05499,64.983 C 92.005,64.937 91.953,64.89301 91.903,64.845 c 0.881,-0.017 1.97301,-0.063 3.33,-0.14999 1.72099,-0.11402 3.03101,-0.45801 3.916,-1.02501 0.101,0.10699 0.19901,0.214 0.299,0.32001 -0.25501,0.123 -0.53301,0.237 -0.821,0.33799 -1.023,0.35601 -4.804,0.571 -6.57201,0.655"
               id="path2718"
               style="fill:#ffffff;fill-opacity:1;fill-rule:nonzero;stroke:none"
               inkscape:connector-curvature="0" />
            <path
               d="m 94.948,67.485 c -0.79,-0.659 -1.649,-1.392 -2.49899,-2.14799 1.90399,-0.09501 5.28698,-0.308 6.289,-0.65601 0.32798,-0.114 0.66198,-0.25301 0.974,-0.411 0.80899,0.85199 1.55499,1.598 2.14999,2.11499 -0.60899,0.33901 -1.616,0.65702 -3.26801,0.86501 -1.498,0.19 -2.692,0.25 -3.64599,0.235"
               id="path2720"
               style="fill:#ffffff;fill-opacity:1;fill-rule:nonzero;stroke:none"
               inkscape:connector-curvature="0" />
            <path
               d="m 92.72,55.10699 c 0.028,-0.17099 0.05699,-0.34199 0.084,-0.50498 0.451,0.72099 0.92101,1.40499 1.40601,2.05299 -0.028,0.177 -0.06002,0.377 -0.09401,0.58099 -0.428,-0.60998 -0.90801,-1.338 -1.396,-2.129"
               id="path2722"
               style="fill:#ffffff;fill-opacity:1;fill-rule:nonzero;stroke:none"
               inkscape:connector-curvature="0" />
            <path
               d="m 94.93401,57.576 c 0.18599,0.22499 0.37199,0.45099 0.56199,0.666 0.024,0.027 0.78501,0.887 1.83,2.023 -0.024,0.2 -0.05999,0.45599 -0.10099,0.733 C 96.612,60.302 95.966,59.561 95.295,58.77901 l -0.047,-0.054 C 95.127,58.58701 94.981,58.407 94.815,58.19299 94.845,58.039 94.88901,57.813 94.93401,57.576"
               id="path2724"
               style="fill:#ffffff;fill-opacity:1;fill-rule:nonzero;stroke:none"
               inkscape:connector-curvature="0" />
            <path
               d="m 99.19099,63.174 c 0.058,-0.23 0.12301,-0.48101 0.18401,-0.72001 0.09399,0.099 0.189,0.19701 0.283,0.29601 -0.031,0.24699 -0.067,0.535 -0.10301,0.81799 C 99.436,63.44 99.314,63.30901 99.19099,63.174"
               id="path2726"
               style="fill:#ffffff;fill-opacity:1;fill-rule:nonzero;stroke:none"
               inkscape:connector-curvature="0" />
            <path
               d="m 101.849,65.899 c -0.521,-0.485 -1.192,-1.16099 -1.978,-1.996 0.03099,-0.259 0.069,-0.55099 0.103,-0.82899 0.677,0.69499 1.33501,1.34599 1.897,1.86099 -0.006,0.313 -0.014,0.65899 -0.022,0.964"
               id="path2728"
               style="fill:#ffffff;fill-opacity:1;fill-rule:nonzero;stroke:none"
               inkscape:connector-curvature="0" />
            <path
               d="M 92.521,54.13699 C 92.493,54.308 92.464,54.479 92.438,54.64301 92.157,54.17599 91.87601,53.69 91.606,53.201 c 0.027,-0.175 0.053,-0.35701 0.079,-0.53199 0.27099,0.50299 0.55,0.99299 0.836,1.46798"
               id="path2730"
               style="fill:#ffffff;fill-opacity:1;fill-rule:nonzero;stroke:none"
               inkscape:connector-curvature="0" />
            <path
               d="m 98.90401,62.862 c -0.43302,-0.47099 -0.89,-0.978 -1.36901,-1.51601 0.03501,-0.24899 0.07199,-0.50799 0.10401,-0.73999 0.45299,0.489 0.94398,1.017 1.44699,1.545 -0.065,0.254 -0.129,0.502 -0.18199,0.711"
               id="path2732"
               style="fill:#ffffff;fill-opacity:1;fill-rule:nonzero;stroke:none"
               inkscape:connector-curvature="0" />
            <path
               d="M 94.52699,57.811 C 94.48801,57.757 94.45,57.702 94.41,57.647 c 0.03099,-0.20199 0.06501,-0.408 0.098,-0.60701 0.04499,0.05802 0.087,0.11801 0.13501,0.17601 -0.04201,0.213 -0.08201,0.42301 -0.11602,0.595"
               id="path2734"
               style="fill:#ffffff;fill-opacity:1;fill-rule:nonzero;stroke:none"
               inkscape:connector-curvature="0" />
            <path
               d="m 128.063,68.89 c -0.20401,0.099 -0.511,0.25 -0.559,0.66901 l -0.013,0.25999 c -0.009,0.427 -0.035,0.44 -0.27001,0.438 -0.31199,-0.003 -0.545,0.03501 -0.74899,0.068 -0.32401,0.05301 -0.603,0.099 -1.207,-0.002 l -0.28799,-0.05001 C 123.84801,70.077 121.498,69.666 116.172,69.686 c -0.079,0 -7.92501,-0.039 -11.82801,0.24801 L 100.774,70.243 c -1.13099,0.108 -2.022,0.192 -2.213,0.128 -0.17199,-0.12201 -1.47801,-1.12201 -3.164,-2.515 0.888,-0.006 1.954,-0.073 3.239,-0.236 1.605,-0.20299 2.78101,-0.532 3.523,-0.98501 0.404,0.32702 0.712,0.51101 0.878,0.49601 0.579,-0.042 10.032,0.112 14.36,0.565 l 7.709,0.78101 c 1.426,0.13899 1.808,0.177 1.91001,0.218 l 0.03,0.01298 0.031,0 c 0.29499,0.002 0.77,0.03002 1.18,0.067 -0.058,0.04201 -0.121,0.07901 -0.194,0.11501"
               id="path2736"
               style="fill:#f28f20;fill-opacity:1;fill-rule:nonzero;stroke:none"
               inkscape:connector-curvature="0" />
            <path
               d="m 87.06,53.192 -0.651,-0.02901 c -2.082,-0.09298 -3.959,-0.345 -5.217,-0.56399 -1.103,-1.411 -1.591,-2.189 -1.80501,-2.601 0.636,0.03 1.63501,0.091 2.5,0.144 l 2.80901,0.15201 c 1.573,0.04599 4.55299,0.14099 5.19301,0.20799 0.349,0.839 0.78399,1.724 1.25599,2.595 -1.083,0.233 -1.998,0.192 -4.085,0.095"
               id="path2738"
               style="fill:#f28f20;fill-opacity:1;fill-rule:nonzero;stroke:none"
               inkscape:connector-curvature="0" />
            <path
               d="m 168.69099,103.97099 c 0.138,1.05101 0.138,2.04201 0.138,2.04201 0,0 -1.70999,0.46899 -2.72698,0.496 -1.017,0.025 -2.726,-0.248 -2.726,-0.248 0,0 -0.95401,-1.43001 -1.17801,-2.045 -0.06,-0.15699 0.253,-1.68 0.253,-1.68 0,0 -1.464,-2.739 -2.477,-4.771 -1.011,-2.032 -2.67101,-5.19901 -5.026,-9.041 -2.12399,-3.46401 -3.717,-6.08099 -3.717,-6.08099 l 0.73,-1.77401 0.686,0.528 0.174,0.069 0.59399,-0.05101 c 0,0 1.08301,1.28002 2.47701,2.748 1.39599,1.46601 4.502,6.56002 6.492,9.45701 1.987,2.897 3.901,7.188 3.901,7.188 0,0 0.987,0.108 1.55201,0.37199 0.56498,0.26502 0.69699,1.14202 0.69699,1.14202 0,0 0.036,0.722 0.15699,1.64898"
               id="path2740"
               style="fill:#010101;fill-opacity:1;fill-rule:nonzero;stroke:none"
               inkscape:connector-curvature="0" />
            <path
               d="m 164.89999,104.38699 c 0,0 2.07401,-0.044 2.21201,-0.046 0.142,0.16201 0.571,0.67 0.853,1.19899 -0.431,0.053 -1.303,0.151 -2.021,0.16901 -0.814,0.021 -1.89799,-0.25999 -2.22,-0.35001 -0.187,-0.26199 -0.51801,-0.75299 -0.732,-1.15998 0.48999,0.11099 1.133,0.19999 1.90799,0.18798"
               id="path2742"
               style="fill:#f28f20;fill-opacity:1;fill-rule:nonzero;stroke:none"
               inkscape:connector-curvature="0" />
            <path
               d="m 153.054,83.841 0.263,0.26 -0.13,-0.398 c 0,-0.02301 -0.033,-0.19301 -0.086,-0.311 0.123,0.03799 0.507,0.241 0.507,0.241 0,0 -0.6,-1.11699 -0.767,-1.353 0.046,0.03 0.57399,0.46699 0.62,0.496 0.574,0.413 3.718,4.89501 6.569,9.78999 1.317,2.26401 4.42,7.88401 6.134,10.62801 -0.30301,0.038 -0.755,0.064 -1.14799,0.086 -0.64101,0.037 -0.98601,-0.10899 -1.293,-0.23599 l -0.371,-0.13301 c -0.13501,-0.157 -0.47901,-0.801 -0.47901,-0.801 -0.011,-0.017 -1.423,-2.703 -2.425,-4.716 -0.97901,-1.96601 -2.959,-5.63401 -4.89301,-8.91899 -1.26599,-2.15001 -2.70799,-4.237 -3.70498,-5.38901 0.20098,0.177 1.08499,0.638 1.20399,0.755"
               id="path2744"
               style="fill:#f28f20;fill-opacity:1;fill-rule:nonzero;stroke:none"
               inkscape:connector-curvature="0" />
            <path
               d="m 152.785,83.028 c -0.10299,-0.032 -0.19799,-0.05901 -0.208,-0.062 -0.30401,-0.26699 -0.70099,-0.354 -0.849,-0.416 0.049,-0.104 0.388,-0.822 0.43901,-0.933 0.078,0.06 0.226,0.174 0.27199,0.209 -0.03,0.08899 -0.067,0.2 -0.109,0.33699 0.15399,0.278 0.32199,0.67901 0.455,0.86501"
               id="path2746"
               style="fill:#f28f20;fill-opacity:1;fill-rule:nonzero;stroke:none"
               inkscape:connector-curvature="0" />
            <path
               d="m 125.226,63.58701 c 0,0 -1.02001,-0.14 -1.032,-0.02001 -0.012,0.121 -0.06,0.508 -0.246,0.78101 -0.18601,0.27299 -0.38201,0.42498 -0.38201,0.42498 0,0 0.30701,0.709 1.26902,1.08301 0.96399,0.37599 1.48399,0.623 1.56298,0.52001 0.078,-0.10201 -0.09,-0.57901 -0.09,-0.57901 0,0 -0.79399,-2.138 -1.082,-2.20999"
               id="path2748"
               style="fill:#010101;fill-opacity:1;fill-rule:nonzero;stroke:none"
               inkscape:connector-curvature="0" />
            <path
               d="m 125.882,65.927 c -0.10501,-0.04201 -0.21901,-0.087 -0.332,-0.132 l -0.58,-0.23 c -0.54201,-0.211 -0.83099,-0.53599 -0.96899,-0.73201 0.078,-0.07998 0.166,-0.18199 0.25499,-0.31299 0.075,-0.109 0.26699,-0.443 0.309,-0.56201 0.42501,0.59101 1.219,1.57201 1.317,1.96901"
               id="path2750"
               style="fill:#f28f20;fill-opacity:1;fill-rule:nonzero;stroke:none"
               inkscape:connector-curvature="0" />
            <path
               d="m 155.58701,78.577 c 0,0 0.888,0.531 0.817,0.65001 -0.07,0.12199 -0.29001,0.51899 -0.32801,0.89698 -0.036,0.37601 0.016,0.64801 0.016,0.64801 0,0 -0.708,0.46601 -1.708,0.195 -1.001,-0.273 -1.571,-0.379 -1.56199,-0.52601 0.006,-0.14698 0.13598,-0.54699 0.13598,-0.54699 0,0 2.35701,-1.43801 2.62902,-1.317"
               id="path2752"
               style="fill:#010101;fill-opacity:1;fill-rule:nonzero;stroke:none"
               inkscape:connector-curvature="0" />
            <path
               d="m 153.522,80.35201 c 0.109,0.03199 0.228,0.06098 0.346,0.09199 l 0.606,0.16 c 0.56,0.153 1.00101,0.038 1.239,-0.05799 -0.006,-0.12601 -0.008,-0.27901 0.01,-0.46001 0.014,-0.151 0.051,-0.299 0.096,-0.43801 -0.72301,0.28 -1.642,0.601 -2.297,0.70402"
               id="path2754"
               style="fill:#f28f20;fill-opacity:1;fill-rule:nonzero;stroke:none"
               inkscape:connector-curvature="0" />
            <path
               d="m 129.604,64.28799 c -0.199,0.30101 -0.675,0.448 -0.86599,0.97101 -0.088,0.236 -0.14402,0.53301 -0.34101,0.635 0,0 -0.776,-1.189 -0.40699,-2.959 0.79199,-0.194 1.59298,0.619 1.59298,0.619 0,0 0.16001,0.524 0.021,0.73399"
               id="path2756"
               style="fill:#010101;fill-opacity:1;fill-rule:nonzero;stroke:none"
               inkscape:connector-curvature="0" />
            <path
               d="m 129.092,63.73199 0.049,0.04401 -0.044,0.065 c -0.162,0.25 -0.396,0.64 -0.593,1.10199 l -0.069,0.15801 -0.045,-0.149 c -0.104,-0.346 -0.215,-0.896 -0.153,-1.557 l 0.009,-0.1 0.291,0.08101 c 0.176,0.073 0.36299,0.19299 0.555,0.35598"
               id="path2758"
               style="fill:#f28f20;fill-opacity:1;fill-rule:nonzero;stroke:none"
               inkscape:connector-curvature="0" />
          </g>
        </g>
      </g>
    </g>
  </g>
</svg>
