<svg width="512" height="512" viewBox="0 0 512 512" xmlns="http://www.w3.org/2000/svg" xmlns:sketch="http://www.bohemiancoding.com/sketch/ns"><title>san-jose-sharks</title><desc>Created with Sketch.</desc><g sketch:type="MSLayerGroup" fill="none"><path d="M326.301 383.888c-.823-1.217-2.795-1.812-3.586-3.926-.363-.955-.595-2.155-1.411-2.568 0 0-3.212 4.808-1.685 11.963 3.279.783 6.595-2.503 6.595-2.503s.662-2.119.087-2.967" fill="#fff" sketch:type="MSShapeGroup"/><path d="M306.558 377.549c-3.981 1.512-5.251 4.379-5.251 4.379s.81.614 1.58 1.717c.77 1.104.969 2.668 1.019 3.157.05.485 4.271-.08 4.271-.08 1.194-.292 4.478-8.935 4.478-8.935s.696-1.927.374-2.341c-.326-.417-2.48.583-6.469 2.103" fill="#fff" sketch:type="MSShapeGroup"/><path d="M419.665 157.009l-23.172 4.512c-.928.182-93.592 18.014-152.008 18.014-57.695 0-148.575-17.282-152.417-18.018l-29.435-5.482 181.654 286.652 181.861-287.124-6.482 1.447" fill="#010101" sketch:type="MSShapeGroup"/><path d="M397.829 168.76c-3.842.744-94.751 18.147-153.345 18.147-58.357 0-149.863-17.403-153.729-18.143l-12.931-2.502 166.462 259.11 166.463-259.127-12.92 2.515" fill="#F28F1F" sketch:type="MSShapeGroup"/><path d="M398.232 170.959c-3.846.744-94.884 18.187-153.747 18.187-58.56 0-150.289-17.447-154.164-18.187l-7.84-1.52 161.805 251.866 161.805-251.878-7.86 1.532" fill="#05535D" sketch:type="MSShapeGroup"/><path d="M393.048 177.383c-15.398 2.809-94.937 16.824-148.563 16.824-53.605 0-132.932-14.391-148.294-17.273l-1.896-.356 149.995 233.318 150.649-232.857-1.892.344" fill="#fff" sketch:type="MSShapeGroup"/><path d="M72.033 162.179l65.353 101.787s-4.815-41.403 18.192-51.78c23.007-10.381 50.617-30.67 50.617-30.67l-134.162-19.336" fill="#010101" sketch:type="MSShapeGroup"/><path d="M381.326 222.186c-24.477 10.252-30.26 13.567-31.974 15.827l-.074.105c-17.771-15.18-37.429-29.778-55.692-41.286 0 0 11.956-.457 9.629-1.908-2.733-5.692-6.279-11.719-10.502-18.176-7.041-.003-33.632 2.786-48.228 2.786-6.867 0-14.206-.247-21.806-.679.612 1.383 1.146 2.717 1.577 4.01-4.549.344-16.077 2.927-19.302 3.347-3.804.498-10.315 1.908-15.328 3.368-42.471 8.849-57.426 28.378-58.097 29.494l.675 1.318.365 2.122c-.034.307 6.08.559 6.08 4.488 0 9.156 5.51 28.847 13.354 47.58-4.408.388 25.839 56.2 20.871 56.075l3.696 5.173c28.027 7.043 37.863 8.029 63.896 7.488l2.844-.056c6.726 4.297 14.313 9.143 21.723 13.534 4.454 2.639 10.329 6.331 16.551 10.239 2.631 1.654 10.414-1.783 12.851-.267 0 0 89.922-141.173 90.493-146.125 0 0-2.451 1.063-3.601 1.544" fill="#fff" sketch:type="MSShapeGroup"/><path d="M140.553 270.568c.493 1.293 1.722 3.31 2.678 5.533 7.712 0 13.317-1.306 18.243-1.475 0 0 21.583 21.895 22.022 13.922.438-7.959-13.35-24.226-25.71-22.431-12.365 1.799-18.93-1.31-17.233 4.451" fill="#05535D" sketch:type="MSShapeGroup"/><path d="M422.674 338.676c-5.249-11.445-6.031-13.733-6.031-13.733s-4.467-19.881-8.08-24.255c-3.61-4.379-9.848-7.067-9.848-7.067s-.693-.884-1.942-2.429c5.51-9.484 14.653-26.386 22.58-46.537 12.311-31.302 17.482-44.675 13.301-43.163-4.189 1.516-32.739 16.154-50.224 23.472-17.472 7.321-29.045 12.624-30.762 14.892-.767 1.011-1.289 1.864-1.851 2.62-16.653-14.42-37.015-30.007-57.761-43.085-27.242-17.161-30.848-18.843-43.655-19.853-12.799-1.01-35.429.316-46.345 1.738-4.143.542-8.68 1.642-12.915 2.874-41.842 8.651-57.613 34.924-57.613 34.924s-2.504 24.728 9.024 51.495c7.712 0 13.788-1.177 18.71-1.346 26.575 15.62 22.999 22.596 14.782 26.943 12.41 8.902 33.045 25.48 36.895 26.749 6.155 2.045 12.203 4.717 15.196 6.291 8.118 4.292 24.609 15.647 40.364 24.991 15.754 9.338 48.484 31.305 56.113 32.566 7.63 1.261 18.483 3.085 24.39 2.83 5.899-.247 9.429-1.65 9.429-1.65s8.003 2.357 15.876 2.357c7.881 0 13.572-3.04 13.572-3.04s5.907 3.533 18.707 4.544c0 0 8.387.683 16.263.586 8.135.183 14.05-1.212 14.963-2.328 1.495-1.824-7.884-39.945-13.137-51.385" fill="#010101" sketch:type="MSShapeGroup"/><path d="M358.783 382.451c-6.25.005-17.477.013-22.005-.795l-1.979-.348 1.733-1.047c2.583-1.569 5.555-3.428 7.455-4.932-7.327.304-19.198-.08-22.758-.994l-1.313-.335.994-.95c.957-.918 2.392-2.062 3.911-3.267 1.632-1.298 3.379-2.704 4.605-3.884-5.345.574-13.421 1.241-17.391 1.083l-1.623-.061 1.395-1.519c1.188-1.29 3.419-3.727 4.487-5.733l-.223.041c-4.326.747-10.249 1.778-12.742 1.685l-1.365-.049.783-1.144c1.117-1.609 2.252-3.295 3.005-4.56l-1.117.219c-3.125.66-7.007 1.487-9.101.825l-.995-.312.617-.856c1.193-1.666 1.685-2.811 1.921-3.579-2.297.59-5.994 1.306-8.072.432l-1.022-.425.781-.807c.593-.607 1.122-1.598 1.432-2.426-8.85-.085-13.932 1.443-13.932 1.443 13.784.506 27.73 21.369 31.343 25.237 3.61 3.869 14.439 8.923 28.061 10.434 10.361 1.152 17.622-.21 19.708-.687 1.109-.727 2.244-1.625 3.408-2.689" fill="#fff" sketch:type="MSShapeGroup"/><path d="M347.481 368.999c-14.929-7.903-23.958-15.139-42.005-18.673-5.174-1.014-9.791-1.459-13.731-1.58-.26.853-.703 1.747-1.175 2.466 1.897.226 4.848-.336 7.261-1.047l.942-.271v1.003c0 .688-.322 2.171-1.757 4.467 1.953.125 4.97-.489 7.317-.99l4.052-.784-.554 1.31c-.417.994-1.523 2.717-3.029 4.94 2.856-.211 7.656-1.04 11.022-1.622l2.716-.469-.315 1.148c-.572 2.098-2.811 4.738-4.471 6.585 4.401-.028 11.893-.655 17.457-1.306l1.609-.185-.918 1.365c-.998 1.504-3.626 3.598-6.172 5.62-.977.78-1.858 1.495-2.649 2.162 4.885.707 16.424 1.04 22.895.583l1.792-.121-1.184 1.381c-1.254 1.46-4.297 3.493-7.463 5.45 5.282.518 14.612.51 19.956.505l3.373-.002-1.266 1.293c-.571.594-1.826 1.86-3.474 3.121 2.461.506 7.017 1.371 9.791 1.492 4.59.19 10.009.671 15.755-.67-8.043-3.7-20.843-9.258-35.775-17.169" fill="#fff" sketch:type="MSShapeGroup"/><path d="M228.672 230.182s8.532 6.396 17.394 18.171c8.867 11.78 14.77 20.868 13.131 21.878-1.641 1.011-8.205-2.021-8.205-2.021s14.274 9.063 27.403 20.839c13.121 11.784 19.854 18.534 19.854 18.534s21.338-.34 23.631 5.049c2.302 5.385 3.286 7.738 4.927 10.77 1.638 3.028 11.816 18.171 13.126 18.171 1.316 0 5.286-.021 6.27-1.031.985-1.014 2.591-4.354 2.591-4.354s1.318 7.406-1.313 11.105c2.593 2.033 26.932 18.086 48.109 27.23 18.433 7.952 34.97 14.403 36.609 12.718 1.644-1.682-7.265-35.238-12.512-46.679-5.254-11.441-6.036-13.732-6.036-13.732s-4.467-19.882-8.08-24.256c-3.605-4.379-9.844-7.071-9.844-7.071s-16.077-20.563-34.46-38.064c-18.374-17.5-44.966-38.998-72.201-56.163-27.245-17.164-30.85-18.846-43.653-19.852-12.799-1.011-33.144.97-43.972 2.987-10.833 2.022-25.28 7.402-25.28 7.402s14.774 7.071 30.197 19.522l22.315 18.846" fill="#05535D" sketch:type="MSShapeGroup"/><path d="M311.544 319.531s5.74 5.384 9.189 10.429c3.448 5.053 9.189 14.306 9.189 14.306s-7.715-3.533-9.843-4.713c-2.132-1.18-3.938-2.522-3.938-2.522s-2.461-5.72-3.12-9.254c-.659-3.537-1.477-8.246-1.477-8.246" fill="#F28F1F" sketch:type="MSShapeGroup"/><path d="M270.878 304.1l3.899 5.506s-4.267 17.775-3.754 23.075c0 0-3.145-12.733-.145-28.581" fill="#05535D" sketch:type="MSShapeGroup"/><path d="M261.354 295.056l3.895 6.323s-3.576 19.683-2.674 26.365c0 0-4.214-14.504-1.221-32.688" fill="#05535D" sketch:type="MSShapeGroup"/><path d="M251.928 286.83l3.896 5.506s-3.076 20.609-2.17 29.446c0 0-4.814-15.52-1.726-34.952" fill="#05535D" sketch:type="MSShapeGroup"/><path d="M230.477 254.749s-33.968-21.878-56.284-28.1c-22.319-6.225-24.286-7.07-25.602-6.056-1.313 1.007-5.083 3.869-5.083 3.869s3.278-6.731 4.921-6.731c1.644 0 15.428 2.356 34.953 10.094 19.158 7.596 35.285 18.676 47.094 26.923" fill="#05535D" sketch:type="MSShapeGroup"/><path d="M159.18 271.659s-20.441 2.158-58.349 3.674c-37.908 1.517-78.305 1.86-78.491 2.633-.737 3.027 48.861 26.3 108.733 42.543 64.629 17.528 73.148 20.56 109.335 19.805-3.693-5.3-7.874-9.589-15.014-15.399-7.141-5.805-41.845-40.129-66.214-53.256" fill="#010101" sketch:type="MSShapeGroup"/><path d="M221.209 231.278s19.443-3.537 41.601.756c22.154 4.289 60.204 18.195 62.464 16.744 3.941-2.519-28.732-67.135-58.487-103.707-26.55-32.636-64.777-65.796-93.083-78.413-3.071-1.37 23.877 45.684 34.95 76.727 11.077 31.047 9.231 46.752 9.231 46.752s-26.459-1.517-45.165 3.027c-18.711 4.544 11.565 29.782 48.489 38.113" fill="#010101" sketch:type="MSShapeGroup"/><path d="M323.485 365.74c-.09-.105-1.932-1.649-3.067-3.306-.058-1.06-.268-3.36-1.125-4.141-.174-1.039-1.747-1.411-3.54-1.39-3.092.036-3.915-.963-8.3-.25-4.391.716-13.486 2.643-37.419 2.559 0 0-32.557.173-48.85-.995-16.293-1.173-23.471-2.433-24.766-1.576-1.291.841-25.528 19.121-39.556 33.622-14.016 14.504-25.425 29.477-32.345 38.072-6.917 8.578-9.803 13.615-9.628 14.282.091.344 1.764 2.947 1.983 3.501.339.832 13.018-.631 23.271-.906 10.253-.27 23.768-.407 24.248-1.083.484-.67 7.629-19.109 21.794-34.782 14.181-15.672 29.982-31.192 31.604-31.039 1.635.146 40.69-1.095 58.911-2.95 18.211-1.855 41.957-4.442 43.41-5.453 1.453-1.019 4.525-2.843 3.374-4.165" fill="#010101" sketch:type="MSShapeGroup"/><path d="M183.933 383.742c-6.453-.408-11.47-.586-15.348-.631-3.59 3.214-7.033 6.476-10.022 9.561-.679.707-1.354 1.416-2.02 2.118 9.724-1.119 26.223-2.57 36.87-1.067 1.913-2.098 3.853-4.192 5.762-6.213-2.914-1.734-7.621-3.279-15.242-3.768" fill="#fff" sketch:type="MSShapeGroup"/><path d="M154.95 396.488c-3.212 3.44-6.254 6.868-9.123 10.191 4.036-.4 9.889-.76 18.661-1.035 7.492-.226 13.267.226 17.166 1.318.505-.631.965-1.169 1.358-1.606l.182-.202c2.645-3.008 5.758-6.513 8.995-10.09-10.402-1.193-26.566.133-37.238 1.423" fill="#fff" sketch:type="MSShapeGroup"/><path d="M164.533 407.152c-9.981.307-16.144.736-20.142 1.201-1.036 1.229-2.045 2.422-3.035 3.606 2.927-.502 6.942-1.088 12.373-1.685l1.759-.203c9.872-1.091 19.311-2.141 24.621-1.119.191-.255.369-.501.555-.732-3.162-.783-8.184-1.313-16.131-1.067" fill="#fff" sketch:type="MSShapeGroup"/><path d="M150.132 427.24c8.92-.397 12.82-.571 17.729.526 1.375-2.426 2.803-4.799 4.223-7.067-3.126-1.281-7.684-2.398-14.145-2.462-8.312-.08-15.854.045-22.009.352-2.119 2.619-4.086 5.093-5.878 7.361l-2.749 3.436c5.335-.85 12.521-1.689 20.13-2.026l2.7-.121" fill="#fff" sketch:type="MSShapeGroup"/><path d="M155.641 411.571l-1.756.193c-6.561.728-11.056 1.439-14.02 1.997-.915 1.108-1.809 2.203-2.679 3.27 5.932-.266 13.011-.379 20.76-.294 6.859.069 11.661 1.26 14.96 2.656 2.206-3.461 4.363-6.594 6.213-9.12-5.253-.736-14.803.327-23.478 1.298" fill="#fff" sketch:type="MSShapeGroup"/><path d="M170.87 381.078l-.629.558c3.647.069 8.167.255 13.784.607 7.124.46 12.546 1.851 16.209 4.143l1.238-1.293c-1.056-.498-2.207-.958-3.399-1.367-4.234-1.439-19.886-2.307-27.204-2.647" fill="#fff" sketch:type="MSShapeGroup"/><path d="M182.845 370.964c-3.27 2.664-6.826 5.627-10.344 8.683 7.882.384 21.885 1.245 26.033 2.652 1.358.461 2.74 1.023 4.032 1.662 3.348-3.444 6.436-6.46 8.899-8.55-2.521-1.37-6.689-2.657-13.527-3.497-6.202-.769-11.144-1.012-15.093-.95" fill="#fff" sketch:type="MSShapeGroup"/><path d="M173.622 421.002l.348 2.041c1.867-2.915 3.813-5.679 5.82-8.299-.116-.715-.248-1.524-.388-2.349-1.772 2.466-3.759 5.409-5.779 8.607" fill="#fff" sketch:type="MSShapeGroup"/><path d="M182.787 411.021c.77-.909 1.54-1.822 2.327-2.692.099-.11 3.249-3.586 7.574-8.178-.099-.809-.248-1.844-.417-2.964-2.538 2.814-5.211 5.809-7.989 8.97l-.194.218c-.501.559-1.105 1.285-1.793 2.15.125.622.307 1.536.493 2.494" fill="#fff" sketch:type="MSShapeGroup"/><path d="M200.409 388.39c.24.93.508 1.945.761 2.911l1.171-1.197-.426-3.307c-.492.517-.998 1.047-1.506 1.593" fill="#fff" sketch:type="MSShapeGroup"/><path d="M211.411 377.375c-2.156 1.96-4.934 4.693-8.188 8.069l.426 3.35c2.802-2.809 5.526-5.441 7.852-7.522-.025-1.266-.058-2.664-.091-3.897" fill="#fff" sketch:type="MSShapeGroup"/><path d="M172.799 424.923l-.344-2.045c-1.163 1.888-2.326 3.852-3.444 5.829.112.707.22 1.443.327 2.15 1.122-2.033 2.277-4.014 3.461-5.934" fill="#fff" sketch:type="MSShapeGroup"/><path d="M199.22 389.652c-1.792 1.904-3.684 3.955-5.667 6.129l.431 2.992c1.875-1.977 3.908-4.112 5.99-6.246l-.754-2.874" fill="#fff" sketch:type="MSShapeGroup"/><path d="M181.102 410.07l-.484.664c.128.816.269 1.649.406 2.454.186-.234.36-.477.559-.711l-.48-2.407" fill="#fff" sketch:type="MSShapeGroup"/><path d="M319.922 365.283c-.846-.4-2.116-1.011-2.314-2.703l-.054-1.051c-.037-1.727-.145-1.779-1.118-1.77-1.292.011-2.256-.142-3.1-.276-1.341-.213-2.496-.4-4.996.008l-1.192.202c-4.673.792-14.402 2.454-36.447 2.373-.327 0-32.805.158-48.961-1.002l-14.778-1.25c-4.682-.437-8.37-.777-9.161-.518-.712.494-6.118 4.536-13.097 10.168 3.676.024 8.089.294 13.407.954 6.644.82 11.512 2.15 14.583 3.981 1.673-1.321 2.947-2.065 3.635-2.004 2.396.169 41.527-.453 59.44-2.284l31.911-3.157c5.903-.562 7.484-.717 7.907-.882l.125-.052h.127c1.222-.008 3.188-.121 4.885-.271-.241-.17-.5-.319-.803-.465" fill="#F28F1F" sketch:type="MSShapeGroup"/><path d="M150.194 428.743l-2.695.117c-8.618.376-16.389 1.394-21.595 2.28-4.566 5.703-6.586 8.849-7.472 10.514 2.633-.121 6.768-.368 10.348-.583l11.628-.614c6.511-.186 18.846-.569 21.496-.841 1.444-3.391 3.245-6.969 5.199-10.489-4.483-.942-8.271-.776-16.91-.384" fill="#F28F1F" sketch:type="MSShapeGroup"/><path d="M488.097 223.468c.572-4.249.572-8.255.572-8.255s-7.079-1.896-11.29-2.005c-4.208-.102-11.282 1.003-11.282 1.003s-3.95 5.78-4.877 8.266c-.249.635 1.047 6.792 1.047 6.792s-6.06 11.072-10.254 19.287c-4.184 8.214-11.055 21.017-20.804 36.548-8.792 14.004-15.386 24.583-15.386 24.583l3.022 7.17 2.84-2.134.72-.279 2.458.207s4.483-5.174 10.254-11.109c5.778-5.927 18.635-26.52 26.873-38.231 8.225-11.711 16.148-29.058 16.148-29.058s4.085-.436 6.424-1.503c2.339-1.072 2.885-4.617 2.885-4.617s.15-2.919.65-6.666" fill="#010101" sketch:type="MSShapeGroup"/><path d="M472.405 221.786s8.585.178 9.157.186c.588-.655 2.363-2.708 3.53-4.847-1.784-.214-5.393-.61-8.365-.683-3.369-.085-7.856 1.05-9.189 1.415-.774 1.059-2.143 3.044-3.03 4.689 2.028-.449 4.69-.808 7.898-.76" fill="#F28F1F" sketch:type="MSShapeGroup"/><path d="M423.37 304.843l1.088-1.05-.537 1.609c0 .093-.137.779-.357 1.257.51-.153 2.099-.974 2.099-.974s-2.483 4.516-3.176 5.47c.191-.122 2.376-1.888 2.567-2.006 2.376-1.669 15.391-19.788 27.192-39.576 5.452-9.152 18.296-31.872 25.391-42.964-1.255-.154-3.125-.26-4.751-.348-2.654-.15-4.081.441-5.354.954l-1.535.538c-.559.634-1.982 3.238-1.982 3.238-.045.069-5.892 10.927-10.038 19.064-4.052 7.947-12.248 22.776-20.254 36.055-5.242 8.692-11.21 17.128-15.338 21.786.833-.716 4.493-2.58 4.986-3.053" fill="#F28F1F" sketch:type="MSShapeGroup"/><path d="M422.256 308.131l-.86.25c-1.26 1.079-2.903 1.431-3.514 1.682.202.42 1.606 3.322 1.816 3.771l1.127-.845c-.125-.36-.278-.808-.452-1.362.637-1.124 1.333-2.746 1.884-3.498" fill="#F28F1F" sketch:type="MSShapeGroup"/><path d="M308.178 386.722s-4.221.565-4.271.08c-.05-.489-.249-2.053-1.019-3.157-.77-1.103-1.58-1.717-1.58-1.717s1.27-2.867 5.253-4.379c3.99-1.52 6.143-2.519 6.469-2.103.322.413-.374 2.341-.374 2.341s-3.285 8.643-4.478 8.935" fill="#010101" sketch:type="MSShapeGroup"/><path d="M310.894 377.262l-1.375.533-2.4.93c-2.244.854-3.44 2.167-4.011 2.96.322.323.688.735 1.056 1.264.31.441 1.104 1.792 1.279 2.273 1.76-2.389 5.046-6.355 5.452-7.96" fill="#F28F1F" sketch:type="MSShapeGroup"/><path d="M433.855 326.123s3.676-2.146 3.381-2.627c-.289-.493-1.199-2.098-1.358-3.627-.148-1.52.066-2.62.066-2.62s-2.929-1.884-7.069-.788c-4.144 1.103-6.502 1.531-6.466 2.126.025.594.564 2.212.564 2.212s9.756 5.813 10.882 5.323" fill="#010101" sketch:type="MSShapeGroup"/><path d="M425.307 318.948c.45-.13.943-.247 1.432-.372l2.509-.647c2.318-.618 4.143-.153 5.129.234-.026.511-.034 1.129.041 1.86.058.612.212 1.209.397 1.771-2.991-1.131-6.796-2.429-9.507-2.846" fill="#F28F1F" sketch:type="MSShapeGroup"/><path d="M326.301 383.888c-.823-1.217-2.795-1.812-3.586-3.926-.363-.955-.595-2.155-1.411-2.568 0 0-3.212 4.808-1.685 11.963 3.279.783 6.595-2.503 6.595-2.503s.662-2.119.087-2.967" fill="#010101" sketch:type="MSShapeGroup"/><path d="M324.181 386.136l.203-.179-.183-.263c-.671-1.01-1.64-2.588-2.456-4.455l-.285-.64-.186.603c-.431 1.398-.889 3.622-.633 6.294l.037.403 1.205-.327c.727-.295 1.503-.78 2.297-1.438" fill="#F28F1F" sketch:type="MSShapeGroup"/></g></svg>