<?xml version="1.0" encoding="UTF-8" standalone="no"?>
<!-- Generator: Adobe Illustrator 15.0.2, SVG Export Plug-In . SVG Version: 6.00 Build 0)  -->

<svg
   xmlns:dc="http://purl.org/dc/elements/1.1/"
   xmlns:cc="http://creativecommons.org/ns#"
   xmlns:rdf="http://www.w3.org/1999/02/22-rdf-syntax-ns#"
   xmlns:svg="http://www.w3.org/2000/svg"
   xmlns="http://www.w3.org/2000/svg"
   xmlns:sodipodi="http://sodipodi.sourceforge.net/DTD/sodipodi-0.dtd"
   xmlns:inkscape="http://www.inkscape.org/namespaces/inkscape"
   version="1.1"
   id="Layer_1"
   x="0px"
   y="0px"
   width="1945.109"
   height="1945.1219"
   viewBox="0 0 1945.109 1945.1219"
   enable-background="new 0 0 2000 2000"
   xml:space="preserve"
   inkscape:version="0.48.2 r9819"
   sodipodi:docname="AJAX.svg"><metadata
   id="metadata49"><rdf:RDF><cc:Work
       rdf:about=""><dc:format>image/svg+xml</dc:format><dc:type
         rdf:resource="http://purl.org/dc/dcmitype/StillImage" /></cc:Work></rdf:RDF></metadata><defs
   id="defs47" /><sodipodi:namedview
   pagecolor="#ffffff"
   bordercolor="#666666"
   borderopacity="1"
   objecttolerance="10"
   gridtolerance="10"
   guidetolerance="10"
   inkscape:pageopacity="0"
   inkscape:pageshadow="2"
   inkscape:window-width="1280"
   inkscape:window-height="1004"
   id="namedview45"
   showgrid="false"
   fit-margin-top="0"
   fit-margin-left="0"
   fit-margin-right="0"
   fit-margin-bottom="0"
   inkscape:zoom="0.236"
   inkscape:cx="537.36707"
   inkscape:cy="778.7616"
   inkscape:window-x="-8"
   inkscape:window-y="-8"
   inkscape:window-maximized="1"
   inkscape:current-layer="Layer_1" />


<path
   d="m 1945.109,972.595 c 0,537.144 -435.219,972.527 -972.397,972.527 C 435.579,1945.123 0,1509.738 0,972.595 0,435.408 435.442,0 972.581,0 c 537.221,0 972.528,435.408 972.528,972.595"
   id="path7"
   style="fill:#a8a9ad;stroke:none"
   inkscape:connector-curvature="0" />
<path
   d="m 1879.805,972.595 c 0,501.006 -406.016,907.259 -907.085,907.259 -501.116,0 -907.357,-406.252 -907.357,-907.259 0,-501.075 406.141,-907.308 907.21,-907.308 501.113,10e-4 907.232,406.234 907.232,907.308"
   id="path9"
   inkscape:connector-curvature="0"
   style="fill:#002e62" />
<path
   d="M 1060.398,309.442 972.651,88.367 879.595,309.459 c -327.39,44.181 -579.894,324.563 -579.894,664.076 0,370.205 302.753,670.313 672.949,670.313 370.204,0 667.62,-300.106 667.62,-670.313 10e-4,-339.539 -252.477,-619.895 -579.872,-664.093"
   id="path11"
   inkscape:connector-curvature="0"
   style="fill:#ffffff" />
<path
   d="m 563.155,847.498 55.604,133.779 253.468,-120.931 13.705,-155.313 18.815,-86.907 -127.712,-83.729 c 0,0 51.366,304.24 51.393,304.362 L 692.523,703.135 688.794,810.172 489.876,735.115 563.659,930.418 v -17.126 l -0.504,-65.794 z"
   id="path13"
   inkscape:connector-curvature="0"
   style="fill:#810120" />
<polygon
   points="739.193,1279.15 832.235,1294.285 889.48,1211.964 889.48,1174.186 709.135,1162.171 782.061,1225.771 "
   id="polygon15"
   style="fill:#810120"
   transform="translate(-30,-30)" />
<polygon
   points="1002.651,1647.886 1060.445,1368.587 1060.226,1368.005 1002.651,1495.044 946.664,1367.962 945.609,1370.669 "
   id="polygon17"
   style="fill:#810120"
   transform="translate(-30,-30)" />
<polygon
   points="1225.906,1225.771 1298.958,1162.048 1117.405,1174.186 1117.405,1211.955 1174.672,1294.365 1268.813,1279.186 "
   id="polygon19"
   style="fill:#810120"
   transform="translate(-30,-30)" />
<path
   d="m 1074.6,860.351 253.473,120.91 54.119,-135.442 1.028,67.465 v 20.261 l 74.97,-198.429 -198.957,75.069 -3.773,-107.046 -135.92,135.637 c 3.509,-21.099 51.427,-304.372 51.427,-304.372 l -128.701,84.51 18.671,86.134 13.663,155.303 z"
   id="path21"
   inkscape:connector-curvature="0"
   style="fill:#810120" />
<polygon
   points="1522.777,966.781 1413.211,966.262 1413.211,1062.376 "
   id="polygon23"
   style="fill:#810120"
   transform="translate(-30,-30)" />
<polygon
   points="485.22,966.781 593.661,1061.382 593.661,966.262 "
   id="polygon25"
   style="fill:#810120"
   transform="translate(-30,-30)" />
<polygon
   points="1090.988,735.034 1002.711,331.624 915.967,735.034 902.306,890.347 648.813,1011.273 593.181,877.494 593.691,943.288 593.691,1177.173 633.989,1157.107 889.52,1174.186 889.52,1211.955 773.451,1378.912 773.451,1480.13 933.48,1401.212 946.703,1367.962 1002.581,1495.642 1060.261,1368.005 1073.409,1401.212 1233.468,1480.13 1233.468,1378.876 1117.431,1211.955 1117.431,1174.186 1372.952,1157.107 1413.254,1177.173 1413.254,943.288 1412.227,875.801 1358.107,1011.273 1104.654,890.347 "
   id="polygon27"
   style="fill:#6e6d75"
   transform="translate(-30,-30)" />
<polygon
   points="910.924,994.944 894.303,913.568 639.688,1035.009 611.2,966.464 611.2,1148.945 630.371,1139.369 906.988,1157.863 906.988,1217.443 790.951,1384.398 790.951,1451.972 919.696,1388.523 939.605,1338.351 928.459,1282.826 947.288,1326.445 1002.581,1452.095 1002.651,402.346 933.292,737.47 918.848,901.84 918.76,901.884 "
   id="polygon29"
   style="fill:#a8a9ad"
   transform="translate(-30,-30)" />
<path
   d="m 859.26,1144.186 -165.314,-11.013 69.882,60.937 c -1.108,3.104 -37.903,48.658 -37.903,48.658 l 81.813,13.276 51.523,-74.08 v -37.778 z"
   id="path31"
   inkscape:connector-curvature="0"
   style="fill:#c60f2f" />
<path
   d="M 902.514,627.44 789.352,553.093 c 0,0 0.065,0.523 0.229,1.377 l 90.024,219.988 6.095,-69.403 16.814,-77.615 z"
   id="path33"
   inkscape:connector-curvature="0"
   style="fill:#c60f2f" />
<path
   d="m 828.371,851.314 c -0.127,-0.053 -0.188,-0.149 -0.333,-0.215 L 700.795,724.192 697.084,822.708 506.816,751.133 692.582,945.996 848.77,871.435 828.371,851.314 z"
   id="path35"
   inkscape:connector-curvature="0"
   style="fill:#c60f2f" />
<polygon
   points="961.46,1401.705 1002.757,1610.388 1002.581,1495.757 "
   id="polygon37"
   style="fill:#c60f2f"
   transform="translate(-30,-30)" />
<polygon
   points="509.119,975.663 593.428,1049.283 593.428,975.284 "
   id="polygon39"
   style="fill:#c60f2f"
   transform="translate(-30,-30)" />
<polygon
   points="1187.775,583.807 1074.182,658.768 1086.933,717.438 "
   id="polygon41"
   style="fill:#c60f2f"
   transform="translate(-30,-30)" />
<polygon
   points="1265.04,967.005 1472.598,780.949 1282.611,852.81 1227.058,948.85 "
   id="polygon43"
   style="fill:#c60f2f"
   transform="translate(-30,-30)" />
</svg>