<svg width="512" height="512" viewBox="0 0 512 512" version="1.1" xmlns="http://www.w3.org/2000/svg" xmlns:xlink="http://www.w3.org/1999/xlink" xmlns:sketch="http://www.bohemiancoding.com/sketch/ns"><title>new-york-rangers</title><desc>Created with Sketch.</desc><defs><path id="a" d="M0 341.987h342.491v-341.987h-342.491v341.987z"/></defs><g transform="matrix(1 0 0 -1 84 427.04)" sketch:type="MSLayerGroup" stroke="none" stroke-width="1" fill="none"><mask id="b" sketch:name="path19" fill="#fff"><use xlink:href="#a"/></mask><g mask="url(#b)"><path d="M320.187 333.251h-65.019l-3.524-3.411-8.253-7.986-9.513 8.884-3.494 3.263h-118.065l-3.493-3.263-9.513-8.884-8.253 7.986-3.524 3.411h-86.027l25.678-45.275.106-219.654c0-2.111.25-5.424 1.202-9.295 1.426-5.791 4.449-12.869 10.711-18.535 6.254-5.677 15.696-9.743 29.251-9.725h66.741c6.878-.002 12.473-1.782 16.939-4.104 4.46-2.322 7.767-5.196 9.935-7.361 2.195-2.192 3.939-4.271 5.124-5.787.591-.759 1.044-1.378 1.344-1.802l.335-.479.078-.116.018-.029 2.035-3.103 2.254 2.95.804 1.041c.747.963 1.919 2.457 3.087 3.891 1.159 1.425 2.355 2.828 2.987 3.453.895.899 4.074 3.818 8.847 6.448 4.783 2.641 11.139 5 18.522 4.997h66.742c6.788.002 12.748.874 17.899 2.519 7.717 2.457 13.62 6.706 17.512 12.214 3.899 5.503 5.757 12.185 5.753 19.355v223.367l15.311 26.966 10.258 18.064h-20.795z" fill="#0161AB" sketch:type="MSShapeGroup"/><path d="M229.347 331.375h-115.988l-2.735-2.554-11.341-10.594-10.051 9.726-2.76 2.671h-80.45l23.795-41.956.106-220.345c0-7.617 3.736-34.931 38.536-34.931h66.741c14.682 0 24.151-7.659 28.733-12.233 4.582-4.575 7.241-8.631 7.241-8.631s5.02 6.564 7.108 8.651c2.09 2.085 13.327 12.214 29.229 12.214h66.742c26.253 0 38.536 13.52 38.536 31.461v224.059l15.654 27.57 8.031 14.142h-80.237l-2.76-2.671-10.05-9.726-11.341 10.594-2.735 2.554zm-3.743-9.472l17.935-16.754 16.538 16.004h60.111l-16.888-29.741v-226.558c0-14.77-11.207-21.99-29.05-21.99h-66.742c-24.729 0-36.155-16.706-36.155-16.706s-11.426 16.706-36.156 16.706h-66.741c-17.843 0-29.05 7.219-29.05 21.99v226.558l-16.889 29.741h60.112l16.536-16.004 17.936 16.754h108.502zm-179.092-138.713v-115.946c0-9.921 7.216-17.223 23.301-17.223h63.501c26.331 0 38.033-15.081 38.033-15.081s12.067 15.079 35.596 15.079h24.818l-185.25 133.17zm249.524 56.225h-249.524v-5.928h249.524v5.928zm.001-139.496v6.099l-166.327 118.395h-8.479l174.806-124.494zm-249.525 101.6v-6.082l201.911-145.417h8.6l-210.511 151.499z" fill="#fff" sketch:type="MSShapeGroup"/><path d="M296.036 118.285v106.127h-149.094l149.094-106.127z" fill="#E3393F" sketch:type="MSShapeGroup"/><path d="M75.599 246.789h-6.955l-12.428 28.971v-28.971h-6.984v44.931h7.171l12.212-28.269v28.269h6.984v-44.931zm27.921 37.719h-10.898v-11.361h10.848v-7.055h-10.848v-11.997h10.898v-7.118h-18.105v44.713h18.105v-7.182zm31.253-37.719l-4.179 23.805-4.133-23.805h-8.452l-7.299 44.995h6.847l4.772-28.222 4.626 28.198h7.185l4.813-27.918 4.46 27.91h7.216l-7.532-44.963h-8.324zm51.329.125h-7.391v18.57l-9.671 26.261h7.263l6.154-16.533 6.003 16.524h7.404l-9.762-26.44v-18.381zm21.054 14.968c0-3.271-.02-4.479.518-5.775.643-1.359 2.161-2.064 3.715-2.064 1.553 0 3.015.728 3.657 2.087.588 1.296.573 2.42.573 5.752v14.752c0 3.332.074 4.398-.514 5.693-.643 1.359-2.164 2.145-3.716 2.145-1.554 0-3.037-.776-3.68-2.133-.536-1.235-.552-2.435-.552-5.705v-14.752zm15.557-.502c0-6.15-.026-7.45-1.712-9.931-1.482-2.168-5.552-4.565-9.661-4.565-3.997 0-7.639 1.603-9.513 4.346-1.687 2.481-1.859 5.253-1.859 10.15v15.865c0 5.158.119 7.686 2.07 10.556 2.07 3.028 5.069 3.938 9.302 3.938 4 0 7.63-1.259 9.504-4.001 2.251-3.31 1.869-4.785 1.869-10.493v-15.865zm17.824 14.247c3.423 0 5.498-.191 6.743.515 1.323.75 1.424 2.355 1.424 3.988 0 1.589.038 3.076-1.282 3.827-1.246.707-3.461.633-6.885.633h-2.956v-8.962h2.956zm-2.897-28.721h-7.224v44.853h11.64c6.385 0 8.028-.247 10.341-2.13 2.686-2.123 3.464-4.441 3.469-6.962l.006-5.299c0-2.258-1.189-4.853-2.628-6.118-1.8-1.583-3.941-2.112-4.086-2.181l7.936-22.163h-7.315l-7.696 22.113h-4.443v-22.113zm34.665 29.558l9.487 15.272h7.278l-8.828-14.391 13.663-30.432h-7.277l-10.708 23.775-3.617-5.58v-18.195h-7.127v44.823h7.127v-15.272zm-30.859-171.187c2.757-2.02 4.294-3.429 5.797-3.483 1.596-.057 2.815 1.431 3.974 3.006 1.126 1.532 2.209 2.944 1.676 4.447-.502 1.415-2.34 2.653-5.098 4.672l-2.381 1.746-6.349-8.643 2.381-1.745zm-18.206-19.98l-5.825 4.267 26.572 36.163 9.383-6.873c5.149-3.772 6.328-4.943 7.078-7.828.907-3.296.161-5.627-1.328-7.661l-4.406-5.778c-1.338-1.821-3.834-3.21-5.745-3.382-2.388-.212-4.427.625-4.585.655l-5.46-21.054-5.896 4.321 5.579 20.625-3.583 2.624-11.784-16.079zm-84.992 101.979l-14.071-11.878 7.106-5.033 6.964 16.911zm-19.089-15.743l-7.785-5.949-5.751 4.193 36.618 29.221 5.54-4.407-16.224-43.697-5.815 4.25 3.194 9.127-9.777 7.263zm38.884-39.644l-5.7 4.074 6.743 30.905-16.93-23.626-5.726 4.09 26.26 36.639 5.878-4.2-6.512-30.205 16.521 23.053 5.724-4.092-26.259-36.639zm12.746-3.503c0 3.926 3.532 8.12 5.251 10.385l7.146 9.869-12.396-20.254zm29.246 2.496l-13.938-18.814-3.262 2.344.163 1.907c-2.536.108-3.591.304-7.232 2.923-3.509 2.522-5.174 6.923-4.977 9.143.475 4.56 3.532 8.12 5.251 10.385l7.146 9.869c4.961 6.88 5.96 8.437 10.119 9.47 3.366.913 5.896-.255 9.649-2.951 4.614-3.319 5.682-6.332 5.682-9.237 0-4.003-1.972-5.754-5.705-10.912l-5.783 4.221c2.63 3.625 5.697 6.689 1.909 9.72-1.596 1.279-2.191 1.72-3.286 1.72-1.746 0-2.394-.359-4.572-3.376l-8.858-12.128c-1.918-2.661-4.194-5.653-4.194-6.689 0-2.032 1.132-2.762 3.161-4.22 3.322-2.388 4.81-.324 8.448 4.723l1.068 1.481-5.759 4.08 3.193 4.658 11.779-8.319zm30.904-4.962l-8.731 6.51-6.808-9.103 8.692-6.48-4.228-5.654-8.692 6.48-7.188-9.612 8.733-6.511-4.265-5.702-14.508 10.817 26.79 35.826 14.51-10.817-4.305-5.754zm-126.167 77.493c2.757-2.019 4.294-3.429 5.797-3.483 1.596-.057 2.815 1.431 3.974 3.006 1.126 1.532 2.209 2.942 1.676 4.446-.502 1.416-2.34 2.655-5.098 4.673l-2.381 1.745-6.349-8.642 2.381-1.745zm-18.208-19.98l-5.824 4.267 26.572 36.163 9.383-6.874c5.149-3.772 6.328-4.941 7.078-7.825.907-3.298.161-5.627-1.329-7.662l-4.404-5.779c-1.337-1.82-3.834-3.21-5.744-3.381-2.39-.212-4.428.625-4.587.655l-5.46-21.054-5.896 4.319 5.579 20.626-3.582 2.624-11.787-16.079zm190.157-97.105c4.133 3.891 3.458 7.781.751 9.565-2.482 1.638-5.581 2.267-8.03-.844-.952-1.213-1.344-2.954-.972-4.72.308-1.723-.097-2.171 2.241-8.034 1.785-4.696 1.925-7.094 1.925-9.47 0-.562-.148-5.499-2.207-7.643-5.588-5.815-11.201-6.742-18.923-.515-11.693 9.423-.172 19.099.329 20.067l4.741-3.423c-2.393-3.658-6.705-8.548.447-12.516 1.949-1.08 5.435-2.2 7.678.654 1.42 1.806 1.672 4.441-.845 11.019-2.968 7.796-2.84 8.339-3.125 11.087-.261 2.652.516 5.259 2.215 7.421 4.558 5.794 12.653 7.72 19.692 1.559 8.733-7.643 2.959-13.737-.095-18.568l-5.822 4.361z" fill="#fff" sketch:type="MSShapeGroup"/></g></g></svg>