<svg width="512" height="512" viewBox="0 0 512 512" version="1.1" xmlns="http://www.w3.org/2000/svg" xmlns:sketch="http://www.bohemiancoding.com/sketch/ns"><title>pittsburgh-penguins</title><desc>Created with Sketch.</desc><g sketch:type="MSShapeGroup" stroke="none" stroke-width="1" fill="none"><path d="M386.679 221.513c-.546.816-1.513 2.231-2.413 3.543 2.379.801 4.842 1.737 7.274 2.741 2.514 1.038 6.423 2.451 10.659 3.913-.056-1.873-.122-4.016-.156-5.091-2.364-.795-12.847-4.252-15.363-5.106zm45.482 10.13c-1.804 4.221-7.109 8.174-8.312 9.057.015.956-.203 2.128-.631 3.422-.948 2.794-5.132 6.998-13.51 5.583-8.397-1.394-11.66-2.789-11.66-2.789s-4.183 10.245-13.493 6.52c0 0-1.399 12.594-8.384 16.325-6.981 3.724-54.962 20.494-54.962 20.494s-.477 1.044-1.701 2.126l-10.368 18.064 1.376 7.779s8.38 9.791 8.38 16.789l-6.052 2.79h-1.277c.58 1.804 1.258 3.949 1.62 5.04h8.258v6.891h-34.877l-41.318 71.914-45.381-77.173c-4.435 3.797-9.057 6.129-12.559 6.129l-8.447.019h-82.892l14.224-25.639h76.604c.56 0 1.07-.017 1.581-.051l-105.956-180.146h54.424l6.932-6.945s6.051-6.075 8.378-12.593c2.332-6.525 4.659-12.581 13.971-18.643 9.314-6.046 15.365-9.312 21.436-12.121 6.051-2.794 14.431-3.731 21.415 3.725 6.987 7.46 10.705 10.727 13.037 13.058 2.327 2.335 6.982 13.058 20.496 7.456 13.495-5.583 33.533-16.306 46.113-15.847 12.56.477 33.518 11.643 40.503 19.579 0 0 5.575-4.924 11.641-4.204 5.115.628 7.462 6.075 12.118 15.389 0 0 10.71 2.789 10.71 8.868 0 0 .255-.067.627-.033.205-.222.394-.429.61-.646 2.349-2.35 3.759-3.765 5.338-4.821.357-.237.749-.389 1.157-.525-.336-.887-.8-2.62.443-3.576 1.682-1.327 5.674-2.808 9.871.85 3.624 3.17 3.725 4.43 3.725 4.43s3.059 3.658 1.292 6.602h17.642l-58.873 102.487.475 1.973s7.445 2.789 9.773 5.583c0 0 6.508 0 9.79-.458 3.246-.458 3.723-.458 4.18-2.335.477-1.873.477-3.725-.458-6.979-.935-3.267-2.332-19.577 1.87-21.45 1.239-.559 2.871-.699 4.756-.525.017-1.925.051-4.323.051-5.516-1.955-.647-7.832-2.605-7.832-2.605l2.159-6.554 62.967 20.872-.999 2.365zm-138.743 106.16l-2.687 4.665h10.965c.291-1.037.849-2.996 1.324-4.665h-9.602zm120.118-107.386c-.653.902-1.911 2.62-2.993 4.12 2.734.904 5.265 1.737 7.323 2.398-.424-2.195-.881-4.512-1.07-5.428-1.089-.358-2.005-.665-3.26-1.09zm-108.066 107.386l-2.005 7.029h-19.614l-2.569-7.029h-3.926l-2.225 7.029h-6.542l-3.979-7.029h-2.651c-1.104 1.601-3.979 6.06-4.268 9.587h61.395v-2.201h-7.631l-2.347-7.386h-3.637zm72.69-114.384c1.192.222 2.448.532 3.759.902l3.806-5.598 18.63 6.177.218 7.63c1.209.406 2.433.816 3.637 1.226l4.424-6.115 6.219 2.061 1.579 8.067c1.237.41 2.073.68 2.313.749l.034.019c1.446-1.057 5.796-4.478 7.223-7.833l-58.316-19.321-.678 2.08 7.238 2.398-.086 7.556zm-137.975 26.743c5.371 3.422 10.672 6.558 15.874 9.367 10.759-11.307 34.248-36.043 52.704-55.446-5.657-7.475-12.473-15.442-20.615-23.818-47.027-48.499-79.511-20.751-85.219-11.66-13.513 21.449-3.725 55.461 37.256 81.558zm30.459 16.669c27.857 12.669 50.289 15.423 57.565 7.117 7.188-8.241 7.58-28.855-11.491-58.51-15.99 17.888-35.335 39.48-46.075 51.393zm-144.099-107.553c-3.723 4.202-4.181 16.325-4.181 16.325l30.269-26.116-12.116 22.37s20.494-9.312 22.349-13.979c0 0-4.195-10.246-13.495-19.579 0 0-19.088 16.789-22.827 20.979zm285.865 82.102c-2.244.546-3.825 2.007-3.519 3.252.287 1.26 2.364 1.821 4.604 1.293 2.266-.544 3.845-2.007 3.536-3.252-.289-1.26-2.379-1.837-4.621-1.293zm-148.991 92.015c.8 1.005 2.925.679 4.739-.75 1.823-1.412 2.67-3.403 1.874-4.408-.785-1.024-2.91-.699-4.743.729-1.819 1.434-2.67 3.426-1.87 4.429zm-95.199-208.712c-.288-3.336 3.504-5.671 5.238-8.58-1.734-2.331-4.795-3.336-7.26-2.028-.439 6.828-2.482 13.092-4.076 19.342 3.483 2.62 2.616-4.068 6.408-4.204 2.173-.753 3.328 1.293 4.64 2.601.727 1.892.288 4.378-1.157 5.979l3.483-.308c1.446-1.737 1.889-4.359 1.172-6.54-1.018-3.932-5.677-4.223-8.447-6.263zm178.158 4.241c-.747-2.453-1.985-4.755-3.361-7.205-.922-.613-2.907-.458-2.584 1.226 1.816 1.837 2.584 6.437 5.945 5.979zm-.149 7.657c-3.524-4.748-6.733-9.651-10.558-14.385-1.378 0-2.903.749-3.213 2.283 3.671 3.98 7.974 7.967 11.168 11.934.612.613 1.836 1.703 2.604.167zm-6.274 6.587c.916.599 3.228.599 2.925-1.226l-12.561-14.4c-1.686-1.071-3.671 0-4.589 1.685 4.739 4.748 10.248 8.427 14.225 13.941zm-1.834 1.212l-12.548-10.708c-1.983-1.994-4.895-1.684-5.811 1.381 5.661 4.288 11.914 7.029 17.133 12.238 1.547.153 1.99-1.821 1.226-2.911zm15.617 5.82c2.139-3.214 7.497-2.909 6.119-7.659-.308-2.128-3.228-3.677-5.815-3.049-9.482 6.267-16.232 15.919-17.436 25.88 1.359 1.53 3.196 1.684 5.184 1.684 4.148-5.227 6.273-11.953 11.949-16.856zm-19.903 2.914c1.07-.155 2.602-1.839 1.528-3.218-6.119-3.524-11.773-8.257-18.369-10.708-1.07 1.057-1.38 2.605-1.226 4.135l18.067 9.791zm-2.904 5.517c1.07-.31 2.293-1.689 1.224-2.607-5.661-2.909-11.187-6.586-17.287-8.733-.766.921-1.855 2.605-.92 3.371 6.119 1.854 11.155 5.516 16.983 7.969zm14.856 8.579c.899 2.128 2.582 2.128 4.726 1.515 6.117-3.354 10.415-9.946 11.638-16.837-.169-1.076-1.528-1.689-2.447-1.992-6.423 4.29-10.402 11.011-13.917 17.314zm21.124-14.694l6.865 12.087c-.27-5.022-2.447-9.26-5.372-13.159-.355.067-.693.121-1.035.134l-.458.937zm5.95 17.436c.15-5.349-4.895-9.637-7.651-14.387l-1.836 3.677 7.343 11.014c.631-.136 1.682.31 2.144-.303zm-45.91-9.348c-5.062-2.283-9.957-4.889-15.31-6.418l-.464 1.379c3.994 4.426 9.655 5.207 15.774 5.039zm32.449 5.531c2.751 3.204 2.751 9.023 7.034 9.789 1.07-4.443-2.139-8.565-4.741-11.777-1.07 0-2.144.902-2.293 1.988zm-5.218 4.598c-.139 4.581 3.228 8.716 5.368 12.681l2.602.479c.612-5.058-3.213-8.58-5.049-12.547l-2.92-.613zm-20.042 2.741c.274 1.005.377 2.317.834 3.252 1.209-.82 2.79-1.178 4.334-1.057-.764-1.973-2.009-4.633-4.707-4.035l-.462 1.839zm22.201 17.315l.148-4.767c-1.545-4.6-3.057-8.871-6.878-12.547-1.855.155-5.526-.458-6.292 1.684 1.855 6.127 5.68 15.168 13.023 15.63zm-130.027 70.869c-.625-3.219.29-7.05-1.835-9.656-.781-.764-2.139-.303-2.313.787-1.07 2.89-.15 6.263 1.531 8.714.781.768 1.682.768 2.616.155zm7.787 6.277c-1.21-5.07 2.158-13.327-3.349-16.069-1.855 3.509-.307 9.314-.458 14.081 0 1.84 2.273 2.757 3.807 1.987zm-13.784-1.836c-3.213-4.137 1.412-15.935-7.327-13.309-5.658 5.206 3.213 8.561 4.283 13.772.767.303 2.601.762 3.044-.462zm16.385-12.238c-.288 4.734 0 9.005.782 13.313 1.203.29 3.04 1.072 4.128-.31-1.089-4.445 1.989-13.173-4.91-13.004zm8.581 4.423c-.155 3.987-.767 8.276 1.379 11.354 2.601-.628 1.068-4.459 1.68-6.774-1.377-1.515.154-5.173-3.059-4.581zm-38.716.459c-1.07 1.536-1.836 3.219-1.989 5.058-.155 4.597 3.366 7.644 5.66 11.184 1.836-.476 3.976.137 5.353-1.682-1.851-5.211-3.995-11.172-9.024-14.56zm22.793 18.237l.167-2.301-1.391-2.299c-6.408-.767-11.934 2.743-15.452 7.952-.765 1.551-.153 3.214.305 4.442 5.05-3.827 9.621-8.886 16.372-7.794zm14.544-1.093c-.455-3.049-3.819-2.584-6.268-2.893-2.158.444-4.59 1.684-4.133 4.29.752 2.741 2.144 5.19 4.895 6.114 2.756-1.824 6.408-3.816 5.505-7.511zm4.592 2.01c-2.601.598-2.756 3.986-2.756 6.418.309 1.226 1.534 2.147 2.756 1.991 1.682-1.226 1.682-3.66 1.851-5.822-.612-.902-.169-2.891-1.851-2.586zm9.944 7.644c-.462-1.363-1.075-4.292-3.522-3.831-3.516 3.371.154 9.501-2.294 13.176 1.07 1.53.309 4.29 2.77 4.581 4.896-2.282 2.125-9.328 3.045-13.926zm-28.145-3.066c-2.62-.765-5.371-1.226-7.342.311 1.527 8.728 9.939 32.004 13.307 32.158 2.139-6.896 1.07-12.411 1.682-20.057-1.527-4.903-3.073-9.651-7.647-12.411zm30.897 1.07l-.445 4.29 2.893.465.766-2.439c-1.055-.934-1.667-2.773-3.213-2.316zm-42.698 1.689c-1.391 1.53-2.595 3.371-3.207 5.055.336 4.41 1.339 8.734 3.006 12.754 1.903 4.611 4.659 8.816 8.276 12.289.46.439.936.883 1.412 1.294 1.07-.459 2.77-.459 1.989-1.839-4.133-5.349-9.943-26.184-11.477-29.554zm23.73 5.056c0 7.202.919 15.017-1.991 21.124-.437 1.382-1.07 5.059 1.686 4.601l.136-1.226c4.317-3.523 5.984-9.639 6.441-15.613-1.07-3.831.458-13.635-6.272-8.886zm-41.945 32.991c-2.791 2.539-6.105 4.836-13.482 4.836l-8.733 19.341h9.245c3.571 0 9.924-3.799 15.262-10.164 5.334-6.369 19.407-21.739 19.407-21.739l-5.725-8.175s-13.171 13.367-15.975 15.9zm-98.975 24.19h12.459l10.745-19.354h-12.46l-10.743 19.354zm235.168-167.937c-1.767 1.773-86.172 90.462-86.172 90.462-.497.647-.598 1.311-.445 1.959.445 1.939 3.23 3.692 5.474 4.224 1.122.255 2.106.204 2.582-.276 1.789-1.766 78.562-87.058 82.556-91.942 3.992-4.87-2.212-6.196-3.994-4.426zm39.004-35.922c3.539-3.555-2.225-4.882-3.549-3.999-1.331.883-2.67 2.214-4.88 4.445-5.522 5.529 1.547 6.416 8.429-.446z" fill="#fff"/><path d="M330.997 167.669l-1.868-4.19s-8.384 2.331-20.958-4.667c-2.056-1.157.477-6.533.477-6.533s-.785-1.09-2.077-2.214h-10.194c-4.863 4.834 2.105 8.391 4.352 11.083 1.237 1.482 10.669 12.104 20.988 29.33 5.169-5.428 9.129-9.603 11.134-11.696l-1.853-11.114zm-27.532 130.982l.916 9.497 7.582-13.213c-.321 0-.65 0-.986-.015l-7.512 3.731zm-18.307 42.934l2.176-3.782h-3.536c.479 1.296.988 2.726 1.361 3.782zm-70.334-37.303l.173-.169c-3.637-7.914-3.69-15.253-3.69-15.253s-3.247-7.914-1.849-9.786c0 0-10.731-8.854-7.463-19.578l-3.268-5.125c-2.785-5.125-32.139-48.484-21.873-68.046 0 0 6.985-7.933 1.853-18.198-5.117-10.25-10.248-6.519-13.971-4.648-3.725 1.854-33.533 19.579-33.533 19.579l7.921-18.183s-14.905 14.437-19.107 19.577c0 0-3.243-19.577 5.612-28.447 1.985-1.988 4.009-4.014 5.946-5.939h-39.907l102.182 173.759c1.836-.746 3.128-1.77 4.319-2.861 2.701-2.451 16.52-16.545 16.654-16.682zm157.252-154.216c-.389.201-.762.389-1.155.559 2.433 2.524 6.307 7.9 4.315 15.186 0 0 0 5.125-2.786 5.125 0 0 .458 11.643-6.525 10.25 0 0 .933 15.848-17.693 9.787 0 0-3.877-.257-7.751-2.231-2.548 2.875-6.814 7.697-12.118 13.638 5.659 10.896 11.097 23.578 15.143 37.64l51.686-89.954h-23.116zm-102.117 192.402h3.455c.304-1.003.935-2.944 1.474-4.665h-7.578c1.07 1.909 2.191 3.883 2.649 4.665zm18.189-60.126c-.458-1.395-20.481-6.521-22.828-7.933 0 0-4.349.765-.916 4.202 3.72 3.731 3.263 9.332.458 16.77l-3.263.934s-6.508 12.122-10.689 10.264c0 0-5.61 12.122-12.594 12.583-4.659.306-8.708 1.245-13.38-2.057-3.195 3.486-15.413 16.783-19.971 22.198-.389.478-.779.934-1.189 1.378l41.42 70.461 35.286-61.408h-25.357l.221-2.552c.27-3.435 2.462-7.333 3.921-9.583 0-1.65.43-12.836 11.645-12.836 0 0 11.641-.478 13.053-1.873 1.397-1.395.462-10.723.462-10.723h3.72s0-7.918-1.393-12.581c-1.393-4.667-2.79-10.249-2.328-12.12.458-1.86 4.198-3.733 3.72-5.126z" fill="#D0BD7F"/><path d="M370.193 208.406l-2.159 6.554s5.877 1.959 7.832 2.605c0 1.193-.034 3.591-.051 5.516-1.885-.174-3.517-.033-4.756.525-4.202 1.873-2.805 18.183-1.87 21.45.935 3.254.935 5.106.458 6.979-.458 1.877-.935 1.877-4.18 2.335-3.282.458-9.79.458-9.79.458-2.328-2.794-9.773-5.583-9.773-5.583l-.475-1.973 58.873-102.487h-17.642c1.767-2.944-1.292-6.602-1.292-6.602s-.101-1.26-3.725-4.43c-4.198-3.658-8.19-2.176-9.871-.85-1.243.956-.779 2.689-.443 3.576-.409.136-.8.289-1.157.525-1.579 1.057-2.989 2.471-5.338 4.821-.216.217-.404.425-.61.646-.372-.033-.627.033-.627.033 0-6.079-10.71-8.868-10.71-8.868-4.655-9.314-7.002-14.761-12.118-15.389-6.065-.72-11.641 4.204-11.641 4.204-6.985-7.935-27.943-19.101-40.503-19.579-12.58-.458-32.618 10.264-46.113 15.847-13.514 5.602-18.168-5.121-20.496-7.456-2.332-2.331-6.051-5.598-13.037-13.058-6.984-7.456-15.364-6.519-21.415-3.725-6.071 2.808-12.122 6.075-21.436 12.121-9.312 6.062-11.639 12.118-13.971 18.643-2.327 6.518-8.378 12.593-8.378 12.593s-2.873 2.877-6.932 6.945h-54.424l105.956 180.146c-.512.034-1.022.051-1.581.051h-76.604l-14.224 25.639h82.892l8.447-.019c3.502 0 8.123-2.331 12.559-6.129l45.381 77.173 41.318-71.914h34.877v-6.891h-8.258c-.362-1.091-1.04-3.236-1.62-5.04h1.277l6.052-2.79c0-6.999-8.38-16.789-8.38-16.789l-1.376-7.779 10.368-18.064c1.224-1.082 1.701-2.126 1.701-2.126s47.981-16.77 54.962-20.494c6.985-3.732 8.384-16.325 8.384-16.325 9.311 3.725 13.493-6.52 13.493-6.52s3.263 1.396 11.66 2.789c8.378 1.415 12.563-2.789 13.51-5.583.428-1.293.646-2.465.631-3.422 1.202-.883 6.508-4.836 8.312-9.057l.999-2.365-62.967-20.872zm-3.147-64.348c2.21-2.231 3.549-3.562 4.88-4.445 1.324-.883 7.088.444 3.549 3.999-6.883 6.862-13.951 5.974-8.429.446zm1.359 7.387c2.925 3.899 5.103 8.136 5.372 13.159l-6.865-12.087.458-.938c.342-.012.68-.067 1.035-.134zm-3.194 4.12c2.756 4.75 7.8 9.038 7.651 14.387-.462.613-1.513.167-2.144.303l-7.343-11.014 1.836-3.677zm-11.029 15.167l2.92.613c1.836 3.968 5.661 7.49 5.049 12.547l-2.602-.479c-2.139-3.966-5.507-8.101-5.368-12.681zm2.306 15.289l-.148 4.767c-7.342-.462-11.168-9.503-13.023-15.63.766-2.143 4.437-1.53 6.292-1.684 3.821 3.677 5.334 7.948 6.878 12.547zm2.912-19.886c.15-1.086 1.224-1.988 2.293-1.988 2.602 3.212 5.811 7.335 4.741 11.777-4.283-.766-4.283-6.586-7.034-9.789zm2.751-14.247c-1.224 6.891-5.522 13.483-11.638 16.837-2.144.613-3.827.613-4.726-1.515 3.515-6.303 7.494-13.025 13.917-17.315.92.303 2.278.916 2.447 1.992zm-8.108-12.397c2.587-.628 5.507.921 5.815 3.049 1.378 4.75-3.979 4.445-6.119 7.659-5.676 4.903-7.8 11.629-11.949 16.856-1.988 0-3.825-.155-5.184-1.684 1.204-9.961 7.954-19.612 17.436-25.88zm-96.133 136.41c-.476.48-1.46.531-2.582.276-2.244-.531-5.029-2.284-5.474-4.224-.153-.647-.052-1.311.445-1.959 0 0 84.405-88.69 86.172-90.462 1.782-1.77 7.986-.444 3.994 4.426-3.994 4.884-80.767 90.176-82.556 91.942zm6.495 9.96l-.766 2.439-2.892-.465.445-4.29c1.547-.456 2.159 1.382 3.213 2.316zm-9.01 13.605c-2.461-.291-1.701-3.051-2.77-4.581 2.449-3.675-1.222-9.806 2.294-13.176 2.446-.461 3.06 2.469 3.522 3.831-.921 4.599 1.851 11.644-3.045 13.926zm-39.805-26.164c-1.377 1.819-3.516 1.206-5.353 1.682-2.294-3.54-5.815-6.587-5.66-11.184.153-1.839.919-3.522 1.989-5.058 5.029 3.388 7.172 9.349 9.024 14.56zm-2.601-20.514c8.739-2.626 4.114 9.172 7.327 13.309-.443 1.224-2.277.766-3.044.462-1.07-5.211-9.941-8.565-4.283-13.772zm-.305 27.542c3.518-5.209 9.044-8.719 15.452-7.952l1.391 2.299-.167 2.301c-6.751-1.093-11.322 3.966-16.372 7.794-.458-1.228-1.07-2.891-.305-4.442zm9.483-27.542c.173-1.09 1.531-1.551 2.313-.787 2.125 2.605 1.21 6.437 1.835 9.655-.934.613-1.835.613-2.616-.155-1.682-2.451-2.601-5.824-1.531-8.714zm-3.673 32.445c1.534 3.371 7.344 24.205 11.477 29.554.781 1.38-.919 1.38-1.989 1.839-.476-.411-.953-.855-1.412-1.294-3.616-3.474-6.372-7.678-8.276-12.289-1.667-4.02-2.67-8.344-3.006-12.754.612-1.684 1.816-3.525 3.207-5.055zm4.459-2.449c1.97-1.536 4.722-1.076 7.342-.311 4.573 2.76 6.12 7.509 7.647 12.411-.612 7.646.458 13.161-1.682 20.056-3.368-.154-11.779-23.429-13.307-32.157zm11.148-14.85c-1.534.769-3.807-.148-3.807-1.987.15-4.767-1.398-10.572.458-14.081 5.507 2.741 2.139 10.999 3.349 16.069zm-.598 9.349c-.457-2.606 1.974-3.846 4.133-4.29 2.449.309 5.812-.156 6.268 2.893.903 3.694-2.749 5.687-5.505 7.511-2.752-.924-4.143-3.373-4.895-6.114zm8.109-10.42c-1.089 1.382-2.925.6-4.128.31-.782-4.309-1.07-8.58-.782-13.313 6.899-.169 3.821 8.559 4.91 13.004zm-1.379 44.549c2.91-6.107 1.991-13.922 1.991-21.124 6.73-4.749 5.202 5.055 6.272 8.886-.457 5.974-2.125 12.089-6.441 15.612l-.136 1.226c-2.756.459-2.123-3.219-1.686-4.601zm6.429-41.774c-2.146-3.078-1.534-7.368-1.379-11.354 3.213-.592 1.682 3.066 3.059 4.581-.612 2.315.921 6.146-1.68 6.774zm-.921 14.676c0-2.432.155-5.82 2.756-6.418 1.682-.304 1.239 1.684 1.851 2.586-.169 2.162-.169 4.596-1.851 5.822-1.222.156-2.446-.765-2.756-1.991zm88.399-110.841l.462-1.839c2.698-.598 3.943 2.061 4.707 4.035-1.545-.121-3.126.237-4.334 1.057-.458-.935-.561-2.247-.834-3.252zm8.876-51.755c1.376 2.45 2.614 4.752 3.361 7.205-3.361.458-4.129-4.141-5.945-5.979-.323-1.684 1.662-1.839 2.584-1.226zm-7.345.477c3.825 4.734 7.034 9.637 10.558 14.385-.768 1.536-1.992.446-2.604-.167-3.194-3.968-7.497-7.954-11.168-11.934.31-1.534 1.836-2.283 3.213-2.283zm-5.353 5.347l12.561 14.4c.304 1.825-2.009 1.825-2.925 1.226-3.977-5.514-9.486-9.193-14.225-13.941.918-1.685 2.903-2.756 4.589-1.685zm-4.745 6.129l12.548 10.708c.764 1.09.321 3.064-1.226 2.911-5.218-5.209-11.472-7.95-17.132-12.238.916-3.066 3.827-3.375 5.811-1.381zm-8.579 5.516c6.596 2.451 12.25 7.184 18.369 10.708 1.074 1.379-.458 3.064-1.528 3.218l-18.067-9.791c-.154-1.53.156-3.078 1.226-4.135zm-2.127 8.103c6.099 2.147 11.626 5.824 17.287 8.733 1.07.919-.154 2.298-1.224 2.607-5.828-2.453-10.864-6.115-16.983-7.969-.935-.766.154-2.451.92-3.371zm-3.226 6.895c5.353 1.53 10.248 4.135 15.31 6.418-6.119.167-11.78-.613-15.774-5.039l.464-1.379zm-15.265-4.12h10.194c1.292 1.124 2.077 2.214 2.077 2.214s-2.533 5.376-.477 6.533c12.573 6.998 20.958 4.666 20.958 4.666l1.868 4.19 1.853 11.114c-2.005 2.093-5.965 6.267-11.134 11.696-10.318-17.227-19.751-27.849-20.988-29.33-2.246-2.691-9.214-6.249-4.352-11.083zm-93.447 18.539c5.708-9.09 38.192-36.839 85.219 11.66 8.143 8.377 14.959 16.343 20.615 23.818-18.457 19.403-41.945 44.14-52.704 55.446-5.202-2.808-10.503-5.945-15.874-9.367-40.981-26.097-50.77-60.109-37.256-81.558zm-36.732-54.53c2.465-1.308 5.526-.303 7.26 2.028-1.734 2.909-5.526 5.244-5.238 8.58 2.77 2.04 7.429 2.331 8.447 6.263.717 2.181.274 4.803-1.172 6.54l-3.483.308c1.446-1.601 1.885-4.087 1.157-5.979-1.312-1.308-2.467-3.354-4.64-2.601-3.792.136-2.925 6.824-6.408 4.204 1.594-6.251 3.637-12.514 4.076-19.342zm-16.825 24.224c9.299 9.333 13.495 19.579 13.495 19.579-1.855 4.666-22.349 13.979-22.349 13.979l12.116-22.37-30.269 26.116s.457-12.123 4.181-16.325c3.74-4.189 22.827-20.979 22.827-20.979zm-57.704 11.767h39.907c-1.937 1.925-3.961 3.951-5.946 5.939-8.854 8.871-5.612 28.447-5.612 28.447 4.202-5.14 19.107-19.577 19.107-19.577l-7.921 18.183s29.808-17.725 33.533-19.579c3.723-1.871 8.854-5.602 13.971 4.648 5.131 10.264-1.853 18.198-1.853 18.198-10.267 19.562 19.088 62.921 21.873 68.046l3.268 5.125c-3.268 10.723 7.463 19.578 7.463 19.578-1.398 1.873 1.849 9.786 1.849 9.786s.052 7.339 3.69 15.253l-.173.169c-.134.137-13.952 14.23-16.654 16.681-1.191 1.091-2.482 2.115-4.319 2.861l-102.182-173.759zm22.094 197.405h-12.459l10.743-19.354h12.46l-10.745 19.354zm73.547-.013h-9.245l8.733-19.341c7.377 0 10.691-2.297 13.482-4.836 2.804-2.533 15.975-15.9 15.975-15.9l5.725 8.175s-14.073 15.371-19.407 21.739c-5.338 6.364-11.692 10.164-15.262 10.164zm57.888 63.684l-41.42-70.461c.409-.444.8-.9 1.189-1.378 4.559-5.415 16.777-18.711 19.971-22.198 4.672 3.302 8.721 2.364 13.38 2.057 6.985-.461 12.594-12.583 12.594-12.583 4.181 1.858 10.689-10.264 10.689-10.264l3.263-.934c2.805-7.438 3.263-13.039-.458-16.77-3.434-3.437.916-4.202.916-4.202 2.347 1.412 22.37 6.538 22.828 7.933.477 1.393-3.263 3.266-3.72 5.126-.462 1.871.935 7.453 2.328 12.12 1.393 4.663 1.393 12.58 1.393 12.58h-3.72s.935 9.328-.462 10.723c-1.412 1.395-13.053 1.873-13.053 1.873-11.215 0-11.645 11.186-11.645 12.836-1.459 2.25-3.652 6.148-3.921 9.583l-.221 2.552h25.357l-35.286 61.408zm42.136-73.339l-2.176 3.782c-.372-1.056-.881-2.486-1.361-3.782h3.536zm-12.445 0c-.539 1.721-1.17 3.662-1.474 4.665h-3.455c-.458-.782-1.579-2.756-2.649-4.665h7.578zm-11.469-4.408c-.8-1.003.051-2.996 1.87-4.429 1.833-1.427 3.958-1.753 4.743-.729.796 1.005-.051 2.996-1.874 4.408-1.814 1.429-3.939 1.755-4.739.75zm48.034 11.794h7.631v2.201h-61.395c.289-3.527 3.164-7.986 4.268-9.587h2.651l3.979 7.029h6.542l2.225-7.029h3.926l2.569 7.029h19.614l2.005-7.029h3.637l2.347 7.386zm-20.722-2.721l2.687-4.665h9.602c-.475 1.669-1.033 3.628-1.324 4.665h-10.964zm13.649-34.32l-.916-9.496 7.512-3.731c.336.015.665.015.986.015l-7.582 13.212zm23.829-34.199c-7.276 8.306-29.708 5.552-57.565-7.117 10.74-11.913 30.084-33.505 46.074-51.393 19.071 29.655 18.679 50.269 11.491 58.51zm.154-71.568c5.304-5.941 9.57-10.763 12.118-13.638 3.874 1.973 7.751 2.231 7.751 2.231 18.626 6.06 17.693-9.787 17.693-9.787 6.983 1.394 6.525-10.25 6.525-10.25 2.786 0 2.786-5.125 2.786-5.125 1.992-7.287-1.883-12.662-4.315-15.186.394-.169.766-.358 1.155-.559h23.116l-51.686 89.954c-4.046-14.063-9.484-26.744-15.143-37.64zm63.177 25.417c-2.433-1.005-4.895-1.94-7.274-2.741.901-1.312 1.868-2.727 2.413-3.543 2.516.854 12.999 4.311 15.363 5.106.034 1.076.101 3.218.156 5.091-4.236-1.463-8.145-2.875-10.659-3.913zm21.955 18.129c-2.24.527-4.317-.034-4.604-1.293-.306-1.245 1.275-2.706 3.519-3.252 2.242-.544 4.332.033 4.621 1.293.308 1.245-1.271 2.708-3.536 3.252zm-2.952-11.388c1.083-1.5 2.341-3.218 2.993-4.12 1.256.425 2.172.732 3.26 1.09.188.917.646 3.233 1.07 5.428-2.058-.661-4.589-1.494-7.323-2.398zm12.238 4.001l-.034-.019c-.24-.069-1.076-.339-2.313-.749l-1.579-8.067-6.219-2.061-4.424 6.115c-1.204-.41-2.428-.82-3.637-1.226l-.218-7.63-18.63-6.177-3.806 5.598c-1.311-.37-2.567-.68-3.759-.902l.086-7.556-7.238-2.398.678-2.08 58.316 19.321c-1.427 3.354-5.776 6.776-7.223 7.833z" fill="#000"/></g></svg>