<svg xmlns="http://www.w3.org/2000/svg" width="512" height="512" viewBox="0 0 512 512"><g fill="none"><path fill="#ED2127" d="M257.994 451.462l173.48-173.507-57.093-130.995h32.26V61.346H109.328v85.614h32.27L84.505 277.955z"/><path fill="#FBEE23" d="M125.591 77.61v53.085h264.796V77.611H125.591z"/><path fill="#000" d="M257.994 146.96H159.35c-15.119 34.69-49.647 113.902-55.505 127.336 13.294 13.306 135.066 135.089 154.15 154.174V146.96z"/><path fill="#FBEE23" d="M356.628 146.96h-98.643v281.51l154.15-154.174c-5.86-13.434-40.387-92.647-55.507-127.336z"/><path fill="#000" d="M163.315 97.249l5.78 26.719h7.525l8.905-37.766h-6.874l-5.73 29.037-5.74-29.037h-7.239l-5.819 29.037-5.838-29.037h-6.983l8.906 37.766h7.821zM198.346 110.554l4.153-12.832 4.152 12.832h-8.305zm12.634 13.414h7.23l-12.131-32.993h-7.17l-12.131 32.993h7.229l2.485-7.683h12.013l2.475 7.683zM218.328 90.985v5.731h9.034v27.252h6.923V96.716h8.847l1.371-5.731zM250.371 90.985v32.983h6.686v-14.301h10.001v-5.721h-10.001v-7.23h11.599l1.371-5.731zM289.633 119.58c-6.578 0-8.206-5.357-8.206-11.955 0-6.599 1.628-11.955 8.206-11.955 6.578 0 8.206 5.356 8.206 11.955 0 6.598-1.638 11.954-8.206 11.954zm0-29.019c-11.233 0-15.938 7.634-15.938 17.064 0 9.42 4.705 17.063 15.938 17.063s15.948-7.644 15.948-17.063c-.01-9.42-4.715-17.064-15.948-17.064zm35.85 14.746h-5.198v-8.591h5.198c1.884 0 4.724.296 4.724 4.024 0 3.729-2.84 4.567-4.724 4.567zm4.24 4.725v-.356c2.21 0 7.762-2.09 7.762-9.143 0-7.042-5.375-9.548-11.529-9.548h-12.495v32.983h6.815V110.21h.572c2.298 0 10.365 13.76 10.365 13.76h8.6l-10.09-13.937zm29.124 8.206h-5.217V96.716h5.217c4.498 0 7.092 4.35 7.092 10.84.01 6.5-2.584 10.682-7.092 10.682zm-.226-27.253h-11.717v32.983h11.717c10.513 0 14.892-7.042 14.892-16.402 0-9.36-4.379-16.58-14.892-16.58zM202.173 172.94c0 1.006.109 1.637.197 2.21.099.611.207 1.232.207 2.83 0 5.03-1.153 7.388-1.952 7.388-.168 0-.247-.01-.306-.02a6.662 6.662 0 0 1-.385-.523c-1.36-1.943-3.225-4.004-8.235-4.004-4.655 0-7.771 3.304-7.771 8.216 0 7.21 1.824 13.04 3.284 17.725.858 2.722 1.588 5.07 1.588 6.638 0 1.252-.602 2.485-.967 2.752-1.824-.03-2.426-.622-3.718-1.884-1.736-1.717-4.123-4.074-9.468-4.074-2.278 0-7.555.78-7.555 8.029 0 3.156 1.105 5.859 2.16 8.463 1.134 2.771 2.298 5.632 2.298 9.39 0 .295-.03 2.959-.897 2.959-3.422 0-4.714-2.121-6.687-5.86-1.726-3.264-3.866-7.308-8.827-7.308-8.146 0-8.146 12.171-8.146 16.748 0 25.881 24.557 35.261 41.067 35.261 3.136 0 4.97-.266 6.746-.522 1.834-.267 3.56-.523 6.973-.523 10.02 0 17.604 2.002 22.17 5.79-2.515-.957-5.513-1.588-9.083-1.588-8.62 0-11.805 2.051-14.833 4.527-1.134.937-1.973 1.618-3.511 2.062l-12.25 3.501 12.427 2.781c5.188 1.164 8.058 5.238 11.106 9.548 3.244 4.597 6.913 9.814 13.659 9.814.631 0 1.223-.049 1.795-.138a66.303 66.303 0 0 0-1.065 11.886c0 6.736 1.647 9.36 3.817 12.092l1.035 1.38c.967 1.411 1.992 2.782 2.998 4.104 3.55 4.695 6.914 9.143 6.914 15.23 0 3.244.158 5.868.306 8.393.157 2.535.286 4.922.286 7.92 0 8.976 6.203 11.757 9.537 13.247.335.157.74.335 1.055.493.64 3.067 3.669 4.073 5.562 4.685l.661.217.69.276c.967.414 2.279.986 4.665.986 6.204 0 8.926-4.606 9.488-8.443.108-.049.217-.088.316-.138 2.731-1.213 8.422-3.718 8.422-11.717 0-4.192-.523-7.358-.986-10.15-.336-2.061-.641-3.847-.641-5.612 0-5.07 2.08-7.644 4.931-11.195 3.846-4.794 8.65-10.741 8.65-24.146 0-4.744-.267-8.374-.622-11.116.78.178 1.588.306 2.426.306 8.876 0 11.944-5.326 14.172-9.735 4.162-8.256 12.21-7.772 12.21-7.772s-6.371-11.028-21.55-11.028c-4.625 0-8.175.928-10.858 2.14 1.243-3.57 3.363-5.158 5.109-6.095 4.191-2.219 10.415-2.416 15.928-2.416 3.383 0 5.78.246 8.107.493 2.19.227 4.448.463 7.357.463 22.378 0 28.256-7.091 34.47-14.597 5.285-6.372 8.787-12.556 8.787-22.124 0-6.43-1.855-13.296-7.082-13.296-4.517 0-6.46 4.222-8.018 7.615-1.864 4.044-2.959 5.74-4.882 5.74-2.515 0-4.556-2.475-4.556-5.513 0-2.811 1.864-6.362 3.669-9.795 2.051-3.925 4.191-7.98 4.191-12.003 0-2.269-.937-4.29-2.643-5.691-1.42-1.174-3.245-1.825-5.148-1.825-3.975 0-7.14 3.304-10.208 6.5-1.952 2.041-4.615 4.813-6.233 4.912-.325-.286-.828-1.41-.828-2.308 0-2.792 1.242-6.915 2.456-10.89 1.301-4.28 2.514-8.334 2.514-11.58 0-7.012-4.083-10.139-8.136-10.139-3.689 0-6.085 1.726-8.008 3.117-1.44 1.036-2.367 1.638-3.501 1.726a.418.418 0 0 1-.06-.138l.01-3.353c0-1.016.01-2.003.01-2.95 0-7.427-.306-12.477-3.185-15.367-1.401-1.41-3.235-2.12-5.445-2.12-10.168 0-14.734 13.434-14.734 26.74 0 6.174.256 11.628.503 16.895.237 5.03.454 9.765.454 14.914 0 12.349-2.525 22.459-4.685 27.745-.7-5.888-1.775-14.755-8.63-14.755-5.68 0-7.012 7.26-8.54 15.663-1.381 7.545-3.285 17.882-7.97 17.882-3.934 0-5.069-7.19-6.163-16.59-1.065-9.212-2.279-19.648-10.474-19.648-8.916 0-9.498 11.56-9.872 19.204-.05.957-.109 2.091-.198 3.186-2.18-4.27-4.803-11.62-4.803-18.366 0-8.561.533-15.268 1.065-21.758.503-6.214 1.026-12.645 1.026-20.457 0-17.221-4.28-21.877-8.057-25.98l-.267-.286c-2.534-2.752-4.921-5.356-8.679-5.356-5.335.02-8.156 5.1-8.156 10.11z"/><path fill="#ED2127" d="M281.92 316.275l-.552.907s-3.067-.996-5.897-.996c-5.1 0-6.973 3.501-6.973 3.501s1.676-.996 4.98-.996c4.38 0 7.565 2.348 7.565 3.225 0 .908-1.351 1.391-2.436 1.391 0 2.11-2.87 5.02-11.52 5.02 0 4.262 2.634 7.092 2.634 8.335-2.2 0-2.515 2.111-2.515 5.859 0 0-3.028-11.994-3.028-16.817 0-7.131 2.87-12.517 8.965-12.517 4.36.02 8.778 3.088 8.778 3.088zm18.433-24.008c1.342 0 2.091.237 2.091.237-8.038 1.47-7.949 11.185-14.38 11.185-1.4 0-2.327-.631-2.327-.631.908-1.766 3.916-2.19 3.916-4.567-2.081 0-3.61.177-5.651.592.01-.78 6.44-6.816 16.351-6.816zm-53.819 50.777v-5.178c0-1.44-.64-2.062-1.913-2.062l3.353-7.654v-.76c-5.937 0-11.085-1.193-11.085-5.414h-1.677c-.355 0-1.124-.405-1.124-1.125 0-.523 1.992-2.781 6.696-2.781 3.59 0 5.74 1.509 5.74 1.509s-2.031-4.784-7.495-4.784c-3.225 0-4.063.434-4.063.434s1.952-2.515 4.576-2.515c8.245 0 10.395 5.178 10.395 14.302.03 9.656-3.403 16.028-3.403 16.028zm-22.9-43.064c0 .839 2.672 1.48 4.22 1.48 0 .957-1.873 2.347-3.619 2.347-6.736 0-3.471-10.445-16.933-13.069 0 0 .72-.315 2.465-.315 10.632 0 13.709 8.245 19.488 8.245-1.686.188-5.621.316-5.621 1.312zm134.78-68.856c-5.385 0-5.02 13.345-12.91 13.345-4.36 0-7.811-3.906-7.811-8.768 0-7.092 7.85-15.23 7.85-21.798 0-2.811-2.367-4.261-4.547-4.261-5.296 0-10.68 11.441-16.529 11.441-2.752 0-3.994-3.59-3.994-5.582 0-6.372 4.98-16.768 4.98-22.47 0-4.576-2.08-6.894-4.882-6.894-5.197 0-6.933 4.883-11.815 4.883-1.864 0-2.988-2.042-2.988-3.354 0-12.793.65-20.624-5.365-20.624-7.792 0-11.47 11.777-11.47 23.494 0 11.896.956 21.098.956 31.82 0 16.6-4.004 30.517-7.495 33.515 0 0-.868 9.666 2.949 9.666 7.712 0 20.238-21.6 35.78-21.6 7.013 0 7.496 4.31 7.496 6.056 0 5.651-7.969 8.532-7.969 12.112 0 1.835 2.782 1.992 6.214 1.992 10.197 0 17.693-6.292 17.693-6.292s-7.328 8.69-18.798 8.69c-5.03 0-8.925-1.589-8.925-4.548 0-4.695 9.487-8.443 9.487-13.148 0-1.43-1.588-3.422-5.178-3.422-12.673 0-26.056 23.987-36.49 23.987-2.15 0-5.139-1.43-5.139-6.884 0-4.656-.365-23.89-6.184-23.89-6.992 0-3.639 33.546-16.52 33.546-13.6 0-5.483-36.238-16.637-36.238-6.776 0-5.71 9.814-6.776 18.642-.877 7.23-2.968 13.808-7.406 13.808-5.858 0-10-2.692-14.991-5.78-3.176-1.962-6.549-3.895-9.35-5.996-4.546-3.403-7.041-6.806-11.529-6.806-2.387 0-5.02 1.312-5.02 3.758 0 4.784 5.02 6.638 5.02 10.76 0 2.329-3.402 4.183-7.298 4.183-11.835 0-18.946-7.763-18.946-10.88 0 0 5.918 8.365 19.479 8.365 2.929 0 4.004-.651 4.004-2.091 0-2.683-4.064-5.08-4.064-10.278 0-3.284 2.565-5.977 6.273-5.977 4.724 0 7.92 3.452 12.791 6.993 7.013 5.1 16.135 10.87 23.128 10.87 2.682 0 4.477-1.194 4.477-3.985 0-2.654-7.949-9.933-7.949-24.827 0-17.024 2.091-26.532 2.091-42.215 0-16.353-3.915-20.2-7.466-24.066-2.663-2.91-4.122-4.31-6.272-4.31-3.709 0-4.961 4.063-4.961 6.854 0 1.707.414 1.815.414 5.04 0 5.8-1.37 10.633-5.197 10.633-4.478 0-2.15-4.547-8.926-4.547-3.245 0-4.517 2.328-4.517 4.962 0 11.234 4.872 19.253 4.872 24.352 0 2.545-1.47 6.007-4.083 6.007-6.756 0-5.562-5.977-13.314-5.977-3.304 0-4.31 1.913-4.31 4.784 0 5.553 4.458 9.804 4.458 17.842 0 3.551-1.193 6.214-4.142 6.214-10.08 0-8.827-13.177-15.504-13.177-3.412 0-4.892 4.468-4.892 13.493 0 24.145 23.591 32.016 37.813 32.016 6.035 0 6.686-1.035 13.718-1.035 33.01 0 30.347 20.21 30.347 20.21s-4.221-9.518-17.26-9.518c-12.712 0-11.331 4.695-17.456 6.46 12.693 2.85 13.817 19.283 24.065 19.283 4.576 0 6.844-3.501 6.844-3.501s-2.87 7.397-2.87 18.513c0 7.595 2.239 8.63 4.29 11.649 4.37 6.42 10.474 12.092 10.474 21.167 1.46 0 2.564-6.757 3.383-6.757.533 0 .986 1.046.986 2.535 0 3.462-3.757 9.558-3.757 20.536 0 6.578 4.122 8.709 7.2 10.1.749 0 5.059-9.045 5.059-9.045-2.584 7.042-1.795 10.998-1.795 11.471 0 1.874 1.824 2.259 4.152 3.028 1.321.444 2.002 1.095 4.32 1.095 5.404 0 6.35-4.813 6.35-6.707 0-1.914-1.952-5.504-1.952-7.654 0 0-.079-1.312.237-1.312.67 0 3.53 7.516 3.53 7.516 2.535-1.125 6.806-2.762 6.806-8.887 0-7.131-4.32-16.817-4.32-21.177 0-1.006.355-1.676.72-1.676.838 0 2.248 3.945 2.248 3.945 1.864-10.909 13.334-11.945 13.334-32.184 0-12.813-1.952-16.936-1.952-16.936s3.402 2.87 7.002 2.87c12.348 0 9.428-12.309 19.123-16.412 0-1.223-5.217-5.622-14.3-5.622-11.47 0-15.179 6.224-15.179 6.224 0-18.01 12.615-19.086 25.337-19.086 6.815 0 9.744.957 15.464.957 20.879 0 26.008-6.224 31.994-13.454 5.316-6.421 8.008-11.954 8.008-20.023.01-4.33-1.065-10.01-3.816-10.01z"/><path fill="#ED2127" d="M268.172 324.56l-.473 1.035s.996.72 3.136.72c4.31 0 6.204-3.491 5.78-3.905-.415-.415-2.279 2.673-5.622 2.673-1.992 0-2.82-.523-2.82-.523z"/><path fill="#ED2127" d="M272.837 323.366c0 .326-.424.602-.956.602-.523 0-.957-.266-.957-.602 0-.325.424-.601.957-.601.532 0 .956.276.956.601zm-32.94-1.597c.444.335 1.341 2.594 3.698 2.594 1.716 0 1.953-.642 2.486-.937.532-.296 1.094.266.759.759-.335.503-.976 1.134-3.166 1.134-2.83 0-4.477-2.308-4.694-2.87-.395-.976.01-1.312.917-.68z"/><path fill="#ED2127" d="M244.02 322.44c0 .305-.356.552-.79.552-.443 0-.799-.247-.799-.553 0-.296.356-.542.8-.542.433 0 .788.246.788.542z"/></g></svg>