<svg width="512" height="512" viewBox="0 0 512 512" xmlns="http://www.w3.org/2000/svg"><title>fc-dallas</title><g fill="none" fill-rule="evenodd"><path d="M433.72 104.69S371.984 79.276 257.5 79.276c-114.482 0-176.216 25.416-176.216 25.416C66.676 287.61 155.997 389.63 257.5 435.726 359.003 389.63 448.296 287.61 433.72 104.69" fill="#E81F3E"/><path d="M257.5 83.436c100.023 0 159.996 19.75 172.255 24.206.904 12.117 1.374 24 1.374 35.618 0 67.605-15.26 126.7-45.54 176.08-29.51 48.122-73.78 86.726-128.09 111.776-54.32-25.054-98.6-63.657-128.11-111.777-30.27-49.37-45.52-108.44-45.52-176.02 0-11.64.47-23.55 1.37-35.69 12.26-4.46 72.23-24.21 172.25-24.21" fill="#FFF"/><path d="M331.198 290.522s-3.635.542-5.592 5.838l-10.562-.18s-3.768-5.264-11.022-5.314c0 0-6.778 3.735-6.187 9.066 0 0 1.728-2.946 5.793-2.98 2.68.99 3.882 3.95 3.882 3.95s-1.48 6.498-9.443 9.066c0 0-9.606-5.546-16.977-5.875-7.37-.342-17.667 8.852-27.342.69-9.673-8.175-8.752-20.775-4.688-29.296 0 0-22.9 16.006-4.03 37.903 0 0-31.586 21.057-45.273 69.002 17.356 12.863 36.636 24.414 57.743 35.17 17.685-9.014 34.087-18.556 49.14-28.985-19.065-13.423-30.566-37.277-14.623-68.46l4.258 1.99 20.087-1.562 3.158-5.083 7.353-.445s6.876-7.206 7.8-12.487c0 0-6.96-4.555-3.472-12.007m92.6-177.228s-62.3-23.92-166.29-23.92c-103.98 0-166.28 23.92-166.28 23.92-.98 37.508 1.19 70.54 6.37 99.857 46.18-15.463 57.19 21.584 94.69 22.966l41.77.396c6.96-7.058 16.98-10.726 16.98-10.726l35.75.263c7.438 3.72 14.97 9.45 14.97 9.45s11.32.15 24.63-.93c25.877-2.09 36.11-29.41 90.947-20.84 5.265-29.46 7.468-62.68 6.483-100.413" fill="#2A4076"/><path d="M115.74 190.73l11.55-2.238v-31.437l10.134-1.94v-11.138l-10.134 1.974v-14.26l10.134-2.1v-11.45l-21.684 4.96v67.63m43.118-76.58c-12.24 2-13.078 4-13.176 15.83v43.1c.098 11.08.905 12.32 13.176 11.1 12.404-1.51 14.18-2.81 14.28-13.85v-13.56l-11.55 1.07v13.15c0 1.83-1.15 2.4-2.153 2.58-.94.04-2.188-.11-2.188-2.27v-42.64c0-1.71.954-2.55 2.024-2.68 1.22-.18 2.32.55 2.32 2.22v8.42l11.55-1.2v-8.72c-.1-12.37-1.84-14.14-14.28-12.55m62.29-5.8l-15.82 1.15v70.46l16.19-.94c10.07-.575 11.68-2.006 11.85-11.844v-44.19c-.2-13.49-2.14-15.035-12.207-14.64m.658 58.236c-.03 1.577-.21 2.153-1.76 2.25l-3.17.28v-47.59l3.175-.28c1.088-.013 1.714.51 1.76 3.03v42.31m26.355-59.028l-6.927 71.036 10.675-.132.89-12.37 6.317-.084.984 12.225 10.672.097-6.99-71.002-15.63.23m5.215 47.745L256 127.39l2.534 27.836-5.166.065v.01m37.544-47.08l-11.567-.49v70.82l19.56.64v-10.23l-7.993-.25v-60.49m28.048 61.93v-59.89l-11.565-.98v70.46l19.33 1.53-.017-10.38-7.747-.74m22.34-57.268l-6.92 68.963 10.68 1 .87-12.64 6.25.56.88 12.88 10.68 1.187-6.99-69.97-15.43-1.99m5.216 46.52l2.55-26.88 2.517 27.326-5.066-.445m52.73-17.273v-6.81c-.1-11.27-2.04-13.95-14.344-16.37-12.364-2.07-13.07-.445-13.186 11.43v9.527c.098 5.92 1.2 9.245 4.99 12.6l8.36 6.698c1.61 1.416 2.6 3.01 2.63 5.15v11.04c0 1.66-1.35 1.894-2.34 1.83-.952-.197-2.103-1.02-2.103-2.566l.03-9.87-11.57-1.4v10.03c.11 11.09 1.394 12.75 13.64 14.625 12.44 1.61 13.787 1.02 13.886-10.33v-14.1c-.1-4.56-1.515-8.34-5.068-11.434l-8.787-7.09c-1.45-1.314-2.074-2.47-2.108-4.85v-7.96c0-1.66 1.12-2.07 2.07-1.97.99.23 2.334 1.58 2.334 3.34v6.794l11.55 1.694v-.004M278.11 359.89H259.9l-.94-15.697-10.904 15.697h-18.13l11.93 10.43-9.313 16.254 17.39-10.067 11.81 9.903-1.168-16.22 17.537-10.3" fill="#FFF"/><path d="M337.4 255.94l-18.786 4.213c-3.257 2.238-8.867 7.056-5.708 11.038l18.292 19.34c-3.486 7.45 3.472 12.01 3.472 12.01-.92 5.28-7.797 12.49-7.797 12.49l-7.353.45-3.16 5.086-20.085 1.56-4.26-1.992c-15.94 31.18-4.443 55.038 14.623 68.46 57.975-40.17 96.066-93.002 110.674-174.864-53.506 2.994-53.95 36.027-79.91 42.23m-152.386 4.95c-43.513-5.494-45.454-47.065-87.436-47.74 7.566 42.82 21.55 77.714 41.423 107.014 23.377-28.496 48.464-47.333 63.68-57.284-6.382-.66-12.568-1.334-17.667-1.99m112.706-19.628c-3.85-5.908-13.26-6.73-11.682-11.27-4.308 2.17-3.716 6.003-1.018 8.42 3.34 3.014-2.535 5.48-3.734 1.96-1.48 1.71-1.48 4.526 1.76 7.305 3.223 2.796 10.298 2.846 13.012 10.645-.41-5.38 6.55-9.544 1.662-17.06" fill="#E81F3E"/><path d="M333.996 244.096c-9.936.97-23.458 1.63-23.458 1.63 2.368 2.828 3.257 6.052 3.257 6.052s-10.777 8.456-.89 19.413c-3.158-3.98 2.452-8.8 5.71-11.03l18.786-4.21c25.97-6.2 26.41-39.23 79.92-42.23-57.04-2.66-59.15 28-83.31 30.39m-88.82-3.31c2.39 6.99-1.92 9.28-1.92 9.28l-51.752-2.73c-47.296-4.36-45.816-41.5-93.92-34.18 41.984.677 43.925 42.248 87.438 47.74 5.1.66 11.287 1.335 17.67 1.99 3.88.397 7.847.79 11.68 1.17-9.673 7.275-13.11 17.59-13.11 17.59 30.203-5.823 41.307-14.706 44.76-18.39 10.17-9.906 1.71-21.667-.84-22.46m25.06 13.57s-6.384 3.556-10.3 11.107c0 0 18.836-1.61 32.95 6.04-6.35-11.945-12.484-14.428-22.65-17.143m90.52 116.584h3.324v10.07h1.214v-10.07h3.52v-1.22h-8.064v1.22h.004m17.397-1.22l-2.9 9.18-2.9-9.18h-1.94v11.29h1.22v-9.577l3.03 9.573h1.19l3.025-9.574v9.573h1.216v-11.3h-1.94" fill="#2A4076"/><path d="M246.972 198.71h-9.723c-5.29 0-7.97.46-7.97 4.062v1.283c0 2.633 1.17 4.08 7.75 4.08h6.36c2.68 0 3.96-.38 5.08-1.118v1.743c0 1.152-.99 1.76-3.34 1.76h-16.02v3.16h16.05c7.305 0 9.755-1.3 9.755-5.742v-4.096c0-3.8-2.633-5.133-7.96-5.133m-1.99 6.39h-5.957c-2.748 0-3.455-.38-3.455-1.61 0-1.25.74-1.63 3.34-1.63h6.215c2.617 0 3.356.38 3.356 1.63 0 1.23-.706 1.61-3.504 1.61m33.15-.86h-6.37c-2.68 0-3.962.38-5.08 1.1v-1.73c0-1.15.986-1.76 3.32-1.76h15.285v-3.16h-15.31c-7.284 0-9.753 1.3-9.753 5.74v4.075c0 3.815 2.666 5.15 7.98 5.15h9.705c5.293 0 7.98-.478 7.98-4.08v-1.268c0-2.65-1.17-4.08-7.75-4.08m-1.89 6.267h-6.2c-2.62 0-3.36-.393-3.36-1.643 0-1.232.73-1.595 3.47-1.595h5.98c2.76 0 3.47.36 3.47 1.597 0 1.25-.74 1.645-3.358 1.645" fill="#CCCBCC"/></g></svg>