<svg xmlns="http://www.w3.org/2000/svg" width="200" height="200.023" viewBox="0 0 200 200.023"><path fill="#fff" d="M194.756 122.216c3.2-11.246 3.2-22.194 3.2-22.194s0-10.947-3.2-22.191c-2.925-10.272-6.779-19.447-8.222-25.118-3.221-12.681 1.51-29.073 1.51-29.073l-9.912 4.083-32.569 32.284c-1.73-1.969-3.586-3.822-5.556-5.556l32.294-32.577 4.083-9.914s-16.393 4.732-29.073 1.507c-5.671-1.437-14.845-5.292-25.115-8.216-11.244-3.2-22.194-3.2-22.194-3.2s-10.947 0-22.191 3.2c-10.272 2.924-19.449 6.779-25.118 8.216-12.683 3.226-29.07-1.507-29.07-1.507l4.083 9.914 32.292 32.576c-1.972 1.733-3.827 3.587-5.559 5.556l-32.569-32.284-9.912-4.083s4.73 16.393 1.511 29.073c-1.442 5.671-5.298 14.846-8.222 25.116-3.2 11.246-3.2 22.193-3.2 22.193s0 10.948 3.2 22.194c2.924 10.272 6.779 19.444 8.222 25.115 3.22 12.684-1.511 29.071-1.511 29.071l9.912-4.081 32.575-32.288c1.726 1.966 3.581 3.819 5.542 5.545l-32.283 32.573-4.083 9.914s16.388-4.73 29.07-1.507c5.669 1.439 14.846 5.292 25.118 8.219 11.244 3.202 22.191 3.202 22.191 3.202s10.95 0 22.194-3.202c10.271-2.927 19.444-6.779 25.115-8.219 12.681-3.224 29.073 1.507 29.073 1.507l-4.083-9.914-32.286-32.572c1.962-1.726 3.814-3.576 5.543-5.545l32.574 32.288 9.912 4.081s-4.73-16.388-1.51-29.071c1.445-5.671 5.299-14.843 8.224-25.115M100.001 200.023c-.461 0-11.366-.035-22.753-3.281-5.48-1.56-10.597-3.363-15.108-4.953-3.95-1.392-7.363-2.594-9.952-3.25-2.771-.705-5.984-1.062-9.551-1.062-9.47 0-18.361 2.525-18.451 2.554l-4.071 1.168 5.85-14.2 31.069-31.343c-.913-.865-1.806-1.754-2.666-2.666l-31.344 31.07-14.206 5.847 1.174-4.068c.045-.158 4.534-16.02 1.489-28.003-.656-2.593-1.858-5.999-3.25-9.951-1.59-4.515-3.391-9.629-4.953-15.109-3.238-11.39-3.278-22.296-3.278-22.755s.04-11.363 3.278-22.755c1.563-5.479 3.363-10.592 4.953-15.106 1.392-3.95 2.594-7.363 3.25-9.952 3.045-11.98-1.444-27.842-1.489-28.002l-1.174-4.068 14.206 5.847 31.34 31.064c.863-.916 1.756-1.811 2.674-2.674l-31.074-31.351-5.85-14.2 4.071 1.171c.09.025 8.979 2.551 18.451 2.551 3.566 0 6.779-.356 9.551-1.059 2.591-.662 6.007-1.863 9.962-3.258 4.51-1.59 9.621-3.391 15.099-4.948 11.387-3.24 22.292-3.281 22.753-3.281.459 0 11.364.041 22.751 3.281 5.475 1.558 10.589 3.358 15.099 4.948 3.955 1.395 7.371 2.596 9.964 3.258 2.77.702 5.982 1.059 9.549 1.059 9.473-.003 18.361-2.525 18.451-2.551l4.071-1.171-5.847 14.2-31.077 31.351c.92.863 1.811 1.758 2.676 2.674l31.341-31.064 14.203-5.847-1.171 4.068c-.048.16-4.537 16.021-1.492 28.002.656 2.589 1.86 5.999 3.25 9.952 1.59 4.515 3.394 9.628 4.953 15.108 3.243 11.392 3.278 22.295 3.278 22.753s-.035 11.364-3.278 22.753c-1.56 5.48-3.363 10.592-4.95 15.109-1.393 3.952-2.597 7.36-3.253 9.954-3.045 11.98 1.444 27.842 1.492 28l1.171 4.068-14.203-5.847-31.346-31.069c-.86.915-1.748 1.803-2.663 2.666l31.069 31.343 5.847 14.2-4.071-1.168c-.09-.028-8.979-2.554-18.451-2.554-3.566 0-6.779.356-9.549 1.062-2.591.656-6.004 1.858-9.957 3.25-4.512 1.59-9.625 3.394-15.105 4.953-11.388 3.247-22.293 3.282-22.752 3.282m-57.364-16.636c3.908 0 7.459.399 10.557 1.187 2.769.702 6.263 1.934 10.306 3.355 4.457 1.573 9.511 3.354 14.868 4.876 10.805 3.08 21.488 3.128 21.634 3.128s10.833-.048 21.632-3.128c5.36-1.522 10.411-3.303 14.868-4.873 4.046-1.425 7.537-2.656 10.306-3.358 3.1-.787 6.651-1.187 10.557-1.187 6.14 0 11.926.966 15.598 1.746l-2.398-5.826-33.53-33.831 1.631-1.433c1.891-1.663 3.694-3.466 5.359-5.359l1.433-1.631 33.831 33.53 5.823 2.4c-1.236-5.791-2.927-16.816-.557-26.156.702-2.769 1.934-6.26 3.358-10.303 1.572-4.46 3.349-9.514 4.876-14.871 3.077-10.816 3.122-21.526 3.122-21.632s-.045-10.812-3.122-21.629c-1.527-5.362-3.306-10.416-4.876-14.873-1.425-4.043-2.656-7.537-3.358-10.303-2.37-9.338-.68-20.368.557-26.157l-5.823 2.4-33.829 33.53-1.432-1.633c-1.663-1.894-3.472-3.699-5.37-5.369l-1.63-1.433 33.537-33.834 2.398-5.831c-3.672.782-9.458 1.748-15.598 1.748-3.905 0-7.457-.401-10.557-1.187-2.771-.704-6.266-1.936-10.315-3.36-4.457-1.572-9.506-3.349-14.858-4.873-10.819-3.083-21.526-3.125-21.632-3.125s-10.816.044-21.636 3.127c-5.353 1.524-10.404 3.301-14.858 4.873-4.048 1.425-7.544 2.656-10.315 3.36-3.098.785-6.648 1.187-10.557 1.187-6.137 0-11.926-.966-15.598-1.748l2.398 5.831 33.54 33.834-1.631 1.435c-1.896 1.663-3.701 3.472-5.369 5.367l-1.435 1.633-33.823-33.531-5.826-2.4c1.234 5.789 2.93 16.819.557 26.157-.704 2.766-1.931 6.26-3.36 10.306-1.57 4.454-3.349 9.508-4.876 14.867-3.077 10.82-3.12 21.526-3.12 21.635 0 .103.043 10.813 3.12 21.629 1.527 5.357 3.306 10.411 4.876 14.871 1.43 4.043 2.656 7.534 3.36 10.303 2.373 9.335.678 20.365-.557 26.156l5.826-2.4 33.829-33.53 1.432 1.631c1.661 1.889 3.462 3.691 5.362 5.359l1.625 1.435-33.529 33.829-2.398 5.826c3.671-.781 9.46-1.747 15.597-1.747"/><path fill="#00215B" d="M194.756 122.216c3.2-11.246 3.2-22.194 3.2-22.194s0-10.947-3.2-22.191c-2.925-10.272-6.779-19.447-8.222-25.118-3.221-12.681 1.51-29.073 1.51-29.073l-9.912 4.083-32.569 32.284c-1.73-1.969-3.586-3.822-5.556-5.556l32.294-32.577 4.083-9.914s-16.393 4.732-29.073 1.507c-5.671-1.437-14.845-5.292-25.115-8.216-11.244-3.2-22.194-3.2-22.194-3.2s-10.947 0-22.191 3.2c-10.272 2.924-19.449 6.779-25.118 8.216-12.683 3.226-29.07-1.507-29.07-1.507l4.083 9.914 32.292 32.576c-1.972 1.733-3.827 3.587-5.559 5.556l-32.569-32.284-9.912-4.083s4.73 16.393 1.511 29.073c-1.442 5.671-5.298 14.846-8.222 25.116-3.2 11.246-3.2 22.193-3.2 22.193s0 10.948 3.2 22.194c2.924 10.272 6.779 19.444 8.222 25.115 3.22 12.684-1.511 29.071-1.511 29.071l9.912-4.081 32.575-32.288c1.726 1.966 3.581 3.819 5.542 5.545l-32.283 32.573-4.083 9.914s16.388-4.73 29.07-1.507c5.669 1.439 14.846 5.292 25.118 8.219 11.244 3.202 22.191 3.202 22.191 3.202s10.95 0 22.194-3.202c10.271-2.927 19.444-6.779 25.115-8.219 12.681-3.224 29.073 1.507 29.073 1.507l-4.083-9.914-32.286-32.572c1.962-1.726 3.814-3.576 5.543-5.545l32.574 32.288 9.912 4.081s-4.73-16.388-1.51-29.071c1.445-5.671 5.299-14.843 8.224-25.115"/><path fill="#CE1432" d="M126.12 140.585l41.029 41.029s-14.403-4.076-25.813-1.357c-11.414 2.717-22.282 9.781-40.759 9.781h-1.129c-18.479 0-29.349-7.064-40.761-9.781-11.411-2.719-25.813 1.357-25.813 1.357l41.026-41.029h52.22zM140.569 73.92l41.029-41.029s-4.076 14.401-1.357 25.813c2.717 11.409 9.781 22.281 9.781 40.759v1.128c0 18.479-7.064 29.347-9.781 40.759-2.719 11.414 1.357 25.813 1.357 25.813l-41.029-41.026v-52.217zM126.12 59.469l41.029-41.029s-14.403 4.076-25.813 1.359c-11.414-2.716-22.282-9.784-40.759-9.784h-1.129c-18.479 0-29.349 7.068-40.761 9.784-11.411 2.717-25.813-1.359-25.813-1.359l41.026 41.029h52.22zM59.456 73.92l-41.032-41.029s4.076 14.401 1.359 25.813c-2.713 11.409-9.781 22.281-9.781 40.759v1.128c0 18.479 7.068 29.347 9.781 40.759 2.717 11.414-1.359 25.813-1.359 25.813l41.032-41.026v-52.217z"/><path fill="#00215B" d="M124.201 141.169l38.035 36.926s-13.348-3.669-23.93-1.221c-10.579 2.445-20.653 8.803-37.781 8.803h-1.046c-17.133 0-27.205-6.357-37.784-8.803-10.576-2.448-23.929 1.221-23.929 1.221l38.034-36.926h48.401zM141.153 75.819l36.926-38.035s-3.671 13.348-1.224 23.93c2.445 10.579 8.806 20.653 8.806 37.781v1.048c0 17.131-6.36 27.203-8.806 37.782-2.447 10.578 1.224 23.932 1.224 23.932l-36.926-38.037v-48.401zM124.201 58.869l38.035-36.926s-13.348 3.669-23.93 1.222c-10.579-2.445-20.653-8.804-37.781-8.804h-1.046c-17.133 0-27.205 6.358-37.784 8.804-10.576 2.447-23.929-1.222-23.929-1.222l38.034 36.926h48.401zM58.852 75.819l-36.926-38.035s3.666 13.348 1.224 23.93c-2.448 10.579-8.806 20.653-8.806 37.781v1.048c0 17.131 6.357 27.203 8.806 37.782 2.442 10.578-1.224 23.932-1.224 23.932l36.926-38.037v-48.401z"/><path fill="#A7A9AC" d="M71.292 38.188c-.273.266-.73.717-1.69 1.254-3.113 1.74-6.042.813-7.447-1.701-1.374-2.447-.878-5.633 2.493-7.521.986-.549 1.841-.787 2.528-.945l1.084 1.932c-.422-.022-1.39-.081-2.426.501-1.919 1.073-2.265 3.027-1.374 4.615.938 1.673 2.847 2.314 4.868 1.188.774-.434 1.454-1.041 2.001-1.735l-.037 2.412zM83.408 33.53l-2.466.859-1.391-4.011-3.662 1.274 1.391 4.008-2.45.853-3.27-9.406 2.453-.852 1.226 3.528 3.664-1.271-1.228-3.529 2.465-.858zM84.733 22.976l2.564-.499 1.904 9.781-2.564.499zM99.65 31.148c-.361.12-.969.328-2.067.398-3.561.226-5.801-1.881-5.979-4.753-.179-2.802 1.647-5.457 5.503-5.701 1.128-.072 1.996.083 2.686.238l.138 2.21c-.366-.203-1.214-.67-2.397-.597-2.192.141-3.351 1.753-3.235 3.568.12 1.911 1.565 3.321 3.875 3.173.886-.055 1.764-.309 2.556-.697l-1.08 2.161zM112.79 32.142l-2.734-.286-.466-2.047-3.539-.366-.918 1.903-2.568-.266 4.926-9.5 2.511.261 2.788 10.301zm-3.564-3.915l-.729-3.238c-.043-.23-.065-.306-.078-.56l-.208.472-1.465 3.067 2.48.259zM123.926 34.597c-1.478.19-2.978.141-4.399-.271-3.4-.981-4.966-3.604-4.108-6.574.768-2.658 3.474-4.504 7.364-3.381 1.108.321 2.026.76 2.999 1.409l-.619 2.143c-.344-.382-1.161-1.262-2.599-1.678-2.172-.625-4.016.325-4.562 2.222-.497 1.723.2 3.629 2.37 4.256.691.198 1.171.158 1.529.131l.555-1.809-2.268-.651 1.475-1.44 3.619 1.041-1.356 4.602zM130.813 39.101c-3.08-1.595-3.87-4.524-2.493-7.18 1.337-2.594 4.231-3.702 7.254-2.145 3.055 1.582 3.729 4.612 2.445 7.095-1.262 2.441-4.122 3.822-7.206 2.23m4.722-3.421c.883-1.705.632-3.434-.848-4.198-1.452-.752-3.052.01-3.92 1.69-.84 1.628-.6 3.371.903 4.148 1.645.851 3.173-.296 3.865-1.64"/><path fill="#A7A9AC" d="M84.534 178.651l-2.696-.468 1.801-10.295 6.822 1.196-.354 2.011-4.126-.722-.386 2.217 3.502.609-.357 2.027-3.499-.61zM93.395 169.279l2.734.168-.641 10.43-2.734-.168zM109.918 179.104l-2.965.211-2.974-4.234c-.515.068-.587.073-1.18.113l.312 4.387-2.661.188-.734-10.426 4.725-.331c1.625-.115 3.398.617 3.544 2.674.03.429-.027.848-.178 1.229-.312.854-.908 1.265-1.231 1.498l3.342 4.691zm-7.133-4.131l-.105-1.513c.321-.035 1.565-.072 1.799-.15.536-.171.89-.64.845-1.249-.03-.472-.288-.763-.524-.896-.354-.228-.857-.19-1.432-.152l-.857.063.274 3.897zM119.689 177.172l-6.222 1.43-2.335-10.183 6.606-1.52.462 2.004-3.953.91.449 1.947 3.388-.776.454 1.99-3.388.775.509 2.225 4.718-1.086z"/><path fill="#fff" d="M156.359 67.558l-40.088 4.361-16.27-36.901-16.272 36.904-40.088-4.359 23.76 32.458-23.76 32.455 40.088-4.354 16.272 36.899 16.27-36.899 40.088 4.364-23.763-32.465zM155.387 100.026c0 30.591-24.797 55.386-55.386 55.386-30.588 0-55.383-24.795-55.383-55.386s24.795-55.388 55.383-55.388c30.589.001 55.386 24.798 55.386 55.388"/><path fill="#00215B" d="M153.353 100.021c0 29.465-23.887 53.352-53.352 53.352s-53.352-23.887-53.352-53.352c0-29.462 23.887-53.352 53.352-53.352s53.352 23.891 53.352 53.352"/><path fill="#A7A9AC" d="M148.979 100.021c0 27.052-21.928 48.978-48.978 48.978-27.052 0-48.978-21.926-48.978-48.978 0-27.049 21.926-48.978 48.978-48.978 27.05.001 48.978 21.93 48.978 48.978M100.001 149.26c-27.152 0-49.235-22.088-49.235-49.238 0-27.149 22.083-49.238 49.235-49.238s49.236 22.089 49.236 49.238c0 27.15-22.084 49.238-49.236 49.238m0-97.957c-26.863 0-48.716 21.857-48.716 48.719 0 26.864 21.853 48.72 48.716 48.72 26.864 0 48.717-21.855 48.717-48.72 0-26.862-21.853-48.719-48.717-48.719"/><path fill="#CE1432" d="M90.664 96.34c0-8.472.87-11.246 9.899-11.246 5.385 0 9.106.398 9.66 5.703v2.298h16.311v-2.298c-.316-17.817-7.916-19.478-24.23-19.478l-1.023.005.08-.088h-27.083v22.884l.07-.048v4.387l-5.314 2.525 5.314 2.17v6.015c0 20.428 10.464 22.326 25.171 22.477l-.04.046h27.25v-19.832l-.118.056.003-1.479v-1.741h-16.31v1.741c0 6.97-3.171 7.443-9.741 7.443-9.504 0-9.899-3.403-9.899-12.271v-9.269zM126.99 131.949h-28.12l.053-.05c-14.115-.196-24.83-2.202-24.83-22.729v-5.844l-5.703-2.325 5.703-2.706-.075-27.317h27.94l-.081.08h.427c16.786 0 24.175 1.866 24.491 19.733v2.561h-16.829v-2.556c-.532-5.061-4.068-5.442-9.402-5.442-8.894 0-9.642 2.684-9.642 10.988v9.262c0 8.929.467 12.019 9.642 12.019 6.882 0 9.48-.619 9.48-7.188v-1.999h16.831l-.002 3.08.117.346v20.087zm-26.909-.516h26.391v-19.174l-.003.002-.115-.349.005-2.962h-15.796v1.485c0 7.346-3.616 7.702-9.999 7.702-9.767 0-10.158-3.617-10.158-12.533v-9.262c0-8.525.833-11.505 10.158-11.505 5.444 0 9.342.424 9.916 5.935v2.063h15.799v-2.039c-.312-17.403-7.542-19.222-23.975-19.222l-1.623.008.083-.091h-26.225l.07 27.13-4.936 2.345 4.936 2.015v6.189c0 20.386 10.323 22.066 24.913 22.217l.594.005-.035.041z"/><path fill="#00215B" d="M185.754 189.491c0-2.686 2.02-4.734 4.605-4.734 2.561 0 4.587 2.049 4.587 4.734 0 2.727-2.026 4.74-4.587 4.74-2.586 0-4.605-2.013-4.605-4.74m4.605 5.676c3.087 0 5.729-2.393 5.729-5.676 0-3.247-2.642-5.673-5.729-5.673-3.107 0-5.741 2.426-5.741 5.673 0 3.283 2.634 5.676 5.741 5.676m-1.191-5.229h1.134l1.718 2.836h1.111l-1.859-2.882c.959-.12 1.693-.624 1.693-1.798 0-1.289-.768-1.851-2.305-1.851h-2.483v6.53h.991v-2.835zm0-.833v-2.029h1.344c.685 0 1.417.148 1.417.961 0 1.006-.747 1.068-1.582 1.068h-1.179z"/></svg>