<svg width="512" height="512" viewBox="0 0 512 512" xmlns="http://www.w3.org/2000/svg" xmlns:sketch="http://www.bohemiancoding.com/sketch/ns"><title>chicago-fire</title><desc>Created with Sketch.</desc><g sketch:type="MSLayerGroup" fill="none"><path d="M423.027 297.053c5.556-19.527 5.556-38.534 5.556-38.534s0-19.009-5.556-38.532c-5.079-17.834-11.771-33.766-14.276-43.613-5.593-22.017 2.622-50.478 2.622-50.478l-17.21 7.089-56.55 56.054c-3.004-3.419-6.226-6.634-9.647-9.645l56.073-56.566 7.089-17.214s-28.463 8.218-50.48 2.617c-9.845-2.493-25.776-9.189-43.609-14.266-19.521-5.556-38.534-5.556-38.534-5.556s-19.007 0-38.531 5.556c-17.835 5.077-33.77 11.772-43.613 14.266-22.022 5.603-50.475-2.617-50.475-2.617l7.089 17.214 56.069 56.564c-3.424 3.009-6.645 6.226-9.652 9.645l-56.55-56.054-17.21-7.089s8.213 28.463 2.624 50.478c-2.504 9.847-9.199 25.779-14.276 43.609-5.556 19.528-5.556 38.536-5.556 38.536s0 19.007 5.556 38.534c5.077 17.837 11.771 33.763 14.276 43.608 5.591 22.025-2.624 50.478-2.624 50.478l17.21-7.086 56.561-56.064c2.997 3.414 6.218 6.633 9.623 9.628l-56.054 56.559-7.089 17.214s28.455-8.215 50.475-2.617c9.843 2.497 25.777 9.189 43.613 14.271 19.523 5.56 38.531 5.56 38.531 5.56s19.013 0 38.534-5.56c17.835-5.082 33.764-11.772 43.609-14.271 22.018-5.6 50.48 2.617 50.48 2.617l-7.089-17.214-56.057-56.557c3.405-2.995 6.621-6.209 9.624-9.626l56.557 56.062 17.21 7.086s-8.211-28.455-2.622-50.478c2.509-9.847 9.201-25.77 14.279-43.608m-164.525 135.099c-.8 0-19.735-.061-39.506-5.699-9.515-2.707-18.4-5.839-26.232-8.6-6.858-2.415-12.785-4.502-17.28-5.643-4.811-1.224-10.39-1.842-16.584-1.842-16.443 0-31.881 4.382-32.037 4.435l-7.069 2.026 10.157-24.656 53.946-54.421c-1.585-1.502-3.136-3.044-4.629-4.627l-54.423 53.947-24.666 10.151 2.038-7.063c.078-.273 7.872-27.814 2.585-48.622-1.139-4.502-3.226-10.416-5.643-17.278-2.761-7.839-5.888-16.719-8.6-26.232-5.622-19.778-5.692-38.713-5.692-39.51 0-.797.069-19.73 5.692-39.51 2.714-9.515 5.839-18.393 8.6-26.231 2.417-6.858 4.504-12.785 5.643-17.28 5.287-20.799-2.507-48.343-2.585-48.62l-2.038-7.062 24.666 10.152 54.416 53.935c1.498-1.59 3.049-3.143 4.643-4.643l-53.954-54.434-10.157-24.657 7.069 2.033c.156.045 15.59 4.429 32.037 4.429 6.192 0 11.771-.616 16.584-1.837 4.499-1.149 10.43-3.236 17.297-5.657 7.831-2.761 16.705-5.89 26.217-8.591 19.771-5.627 38.706-5.699 39.506-5.699.797 0 19.732.071 39.503 5.699 9.506 2.703 18.386 5.831 26.218 8.591 6.867 2.42 12.798 4.507 17.299 5.657 4.81 1.219 10.387 1.837 16.578 1.837 16.45-.005 31.882-4.382 32.039-4.429l7.07-2.033-10.154 24.657-53.96 54.434c1.597 1.5 3.144 3.052 4.648 4.643l54.416-53.935 24.661-10.152-2.031 7.062c-.085.278-7.878 27.819-2.591 48.62 1.137 4.495 3.228 10.416 5.643 17.28 2.759 7.839 5.891 16.717 8.6 26.234 5.629 19.778 5.69 38.711 5.69 39.506 0 .795-.061 19.73-5.69 39.506-2.71 9.513-5.841 18.391-8.597 26.232-2.419 6.862-4.509 12.779-5.647 17.283-5.287 20.803 2.506 48.344 2.591 48.617l2.031 7.065-24.661-10.152-54.427-53.946c-1.493 1.589-3.035 3.129-4.622 4.629l53.944 54.42 10.154 24.656-7.07-2.026c-.156-.05-15.59-4.435-32.039-4.435-6.19 0-11.769.616-16.578 1.842-4.497 1.141-10.425 3.228-17.29 5.643-7.833 2.761-16.712 5.895-26.225 8.602-19.773 5.638-38.708 5.699-39.505 5.699m-99.602-28.887c6.786 0 12.951.693 18.33 2.061 4.808 1.221 10.875 3.358 17.894 5.825 7.739 2.731 16.514 5.824 25.816 8.468 18.761 5.346 37.31 5.431 37.564 5.431.254 0 18.81-.085 37.56-5.431 9.307-2.644 18.077-5.737 25.816-8.461 7.025-2.476 13.087-4.612 17.896-5.832 5.381-1.366 11.547-2.061 18.329-2.061 10.661 0 20.707 1.679 27.083 3.032l-4.164-10.114-58.219-58.741 2.832-2.49c3.283-2.887 6.412-6.018 9.305-9.303l2.488-2.834 58.741 58.219 10.109 4.169c-2.144-10.055-5.079-29.2-.965-45.417 1.219-4.806 3.356-10.868 5.831-17.888 2.728-7.744 5.815-16.521 8.466-25.821 5.343-18.782 5.421-37.378 5.421-37.56 0-.186-.078-18.775-5.421-37.555-2.651-9.31-5.742-18.085-8.466-25.824-2.474-7.02-4.612-13.087-5.831-17.891-4.113-16.214-1.181-35.364.965-45.415l-10.109 4.165-58.738 58.22-2.488-2.835c-2.886-3.29-6.025-6.423-9.322-9.322l-2.832-2.49 58.233-58.747 4.164-10.123c-6.376 1.356-16.422 3.033-27.083 3.033-6.78 0-12.948-.695-18.329-2.059-4.813-1.224-10.882-3.362-17.912-5.836-7.739-2.728-16.507-5.815-25.798-8.461-18.785-5.353-37.376-5.426-37.56-5.426-.184 0-18.78.076-37.567 5.429-9.295 2.646-18.065 5.733-25.798 8.461-7.029 2.476-13.099 4.612-17.91 5.834-5.379 1.365-11.543 2.063-18.33 2.063-10.656 0-20.707-1.679-27.083-3.035l4.164 10.124 58.236 58.747-2.832 2.492c-3.292 2.887-6.426 6.027-9.322 9.319l-2.492 2.834-58.727-58.22-10.116-4.165c2.143 10.052 5.087 29.201.967 45.415-1.222 4.804-3.353 10.871-5.834 17.896-2.726 7.734-5.815 16.509-8.466 25.814-5.343 18.785-5.417 37.374-5.417 37.565 0 .177.075 18.773 5.417 37.555 2.651 9.3 5.74 18.077 8.466 25.821 2.483 7.02 4.612 13.081 5.834 17.888 4.12 16.209 1.177 35.362-.967 45.417l10.116-4.169 58.738-58.219 2.486 2.834c2.884 3.278 6.011 6.407 9.31 9.303l2.822 2.493-58.217 58.738-4.164 10.114c6.374-1.354 16.426-3.033 27.081-3.033" fill="#fff" sketch:type="MSShapeGroup"/><path d="M423.027 297.053c5.556-19.527 5.556-38.534 5.556-38.534s0-19.009-5.556-38.532c-5.079-17.834-11.771-33.766-14.276-43.613-5.593-22.017 2.622-50.478 2.622-50.478l-17.21 7.089-56.55 56.054c-3.004-3.419-6.226-6.634-9.647-9.645l56.073-56.566 7.089-17.214s-28.463 8.218-50.48 2.617c-9.845-2.493-25.776-9.189-43.609-14.266-19.521-5.556-38.534-5.556-38.534-5.556s-19.007 0-38.531 5.556c-17.835 5.077-33.77 11.772-43.613 14.266-22.022 5.603-50.475-2.617-50.475-2.617l7.089 17.214 56.069 56.564c-3.424 3.009-6.645 6.226-9.652 9.645l-56.55-56.054-17.21-7.089s8.213 28.463 2.624 50.478c-2.504 9.847-9.199 25.779-14.276 43.609-5.556 19.528-5.556 38.536-5.556 38.536s0 19.007 5.556 38.534c5.077 17.837 11.771 33.763 14.276 43.608 5.591 22.025-2.624 50.478-2.624 50.478l17.21-7.086 56.561-56.064c2.997 3.414 6.218 6.633 9.623 9.628l-56.054 56.559-7.089 17.214s28.455-8.215 50.475-2.617c9.843 2.497 25.777 9.189 43.613 14.271 19.523 5.56 38.531 5.56 38.531 5.56s19.013 0 38.534-5.56c17.835-5.082 33.764-11.772 43.609-14.271 22.018-5.6 50.48 2.617 50.48 2.617l-7.089-17.214-56.057-56.557c3.405-2.995 6.621-6.209 9.624-9.626l56.557 56.062 17.21 7.086s-8.211-28.455-2.622-50.478c2.509-9.847 9.201-25.77 14.279-43.608" fill="#00215B" sketch:type="MSShapeGroup"/><path d="M303.853 328.948l71.238 71.241s-25.006-7.079-44.818-2.358c-19.818 4.719-38.687 16.983-70.771 16.983h-1.96c-32.085 0-50.959-12.264-70.774-16.983-19.813-4.721-44.82 2.358-44.82 2.358l71.234-71.241h90.671zm25.086-115.752l71.241-71.238s-7.077 25.003-2.356 44.818c4.718 19.811 16.983 38.689 16.983 70.771v1.959c0 32.087-12.265 50.957-16.983 70.772-4.721 19.818 2.356 44.818 2.356 44.818l-71.241-71.234v-90.665zm-25.086-25.092l71.238-71.238s-25.006 7.077-44.818 2.358c-19.818-4.716-38.687-16.986-70.771-16.986h-1.96c-32.085 0-50.959 12.271-70.774 16.986-19.813 4.719-44.82-2.358-44.82-2.358l71.234 71.238h90.671zm-115.75 25.092l-71.245-71.238s7.077 25.003 2.36 44.818c-4.711 19.811-16.983 38.689-16.983 70.771v1.959c0 32.087 12.272 50.957 16.983 70.772 4.718 19.818-2.36 44.818-2.36 44.818l71.245-71.234v-90.665z" fill="#CE1332" sketch:type="MSShapeGroup"/><path d="M300.521 329.962l66.041 64.117s-23.175-6.372-41.548-2.122c-18.37 4.247-35.864 15.285-65.602 15.285h-1.816c-29.748 0-47.237-11.036-65.605-15.285-18.363-4.251-41.548 2.122-41.548 2.122l66.039-64.117h84.04zm29.432-113.467l64.117-66.043s-6.374 23.176-2.124 41.55c4.244 18.369 15.288 35.862 15.288 65.6v1.82c0 29.745-11.043 47.233-15.288 65.603-4.251 18.367 2.124 41.552 2.124 41.552l-64.117-66.044v-84.038zm-29.432-29.432l66.041-64.114s-23.175 6.371-41.548 2.12c-18.37-4.245-35.864-15.285-65.602-15.285h-1.816c-29.748 0-47.237 11.038-65.605 15.285-18.363 4.251-41.548-2.12-41.548-2.12l66.039 64.114h84.04zm-113.467 29.432l-64.115-66.043s6.365 23.176 2.125 41.55c-4.251 18.369-15.29 35.862-15.29 65.6v1.82c0 29.745 11.038 47.233 15.29 65.603 4.24 18.367-2.125 41.552-2.125 41.552l64.115-66.044v-84.038z" fill="#00215B" sketch:type="MSShapeGroup"/><path d="M208.654 151.156c-.474.46-1.268 1.245-2.934 2.177-5.405 3.021-10.491 1.41-12.93-2.955-2.386-4.249-1.524-9.779 4.329-13.059 1.712-.953 3.197-1.365 4.389-1.639l1.882 3.353c-.733-.036-2.413-.141-4.212.87-3.332 1.865-3.933 5.258-2.386 8.013 1.629 2.905 4.943 4.02 8.452 2.063 1.344-.754 2.525-1.808 3.474-3.011l-.064 4.188zm21.037-8.088l-4.282 1.491-2.415-6.966-6.358 2.214 2.415 6.957-4.254 1.483-5.678-16.332 4.259-1.481 2.129 6.127 6.362-2.207-2.132-6.127 4.28-1.491 5.674 16.332zm2.301-18.325l4.452-.866 3.306 16.981-4.452.866-3.306-16.981zm25.901 14.189c-.627.208-1.682.57-3.589.689-6.183.394-10.072-3.266-10.381-8.253-.311-4.865 2.86-9.475 9.555-9.899 1.959-.123 3.466.144 4.664.413l.24 3.837c-.635-.352-2.108-1.163-4.162-1.035-3.806.243-5.818 3.044-5.617 6.193.208 3.318 2.717 5.766 6.728 5.511 1.538-.097 3.063-.538 4.44-1.21l-1.877 3.752zm22.815 1.726l-4.745-.497-.811-3.554-6.145-.635-1.594 3.304-4.459-.464 8.553-16.495 4.36.453 4.841 17.888zm-6.187-6.798l-1.268-5.622c-.075-.401-.113-.531-.135-.972l-.361.82-2.544 5.324 4.308.451zm25.522 11.06c-2.566.328-5.171.245-7.638-.471-5.903-1.705-8.624-6.258-7.133-11.416 1.335-4.615 6.032-7.82 12.786-5.87 1.924.559 3.518 1.32 5.207 2.448l-1.075 3.719c-.599-.663-2.016-2.191-4.511-2.914-3.771-1.085-6.975.566-7.923 3.858-.863 2.993.347 6.303 4.115 7.392 1.2.342 2.033.273 2.653.227l.965-3.143-3.938-1.129 2.561-2.502 6.284 1.808-2.354 7.992zm11.958 7.82c-5.35-2.771-6.72-7.857-4.329-12.469 2.321-4.504 7.346-6.428 12.595-3.723 5.304 2.747 6.475 8.008 4.247 12.317-2.193 4.24-7.159 6.638-12.514 3.874zm8.199-5.94c1.533-2.96 1.097-5.964-1.472-7.289-2.523-1.306-5.299.016-6.805 2.933-1.459 2.827-1.044 5.853 1.566 7.204 2.856 1.476 5.509-.514 6.711-2.848z" fill="#A7A9AC" sketch:type="MSShapeGroup"/><path d="M231.646 395.044l-4.681-.813 3.127-17.875 11.845 2.075-.615 3.493-7.164-1.255-.67 3.849 6.081 1.057-.62 3.521-6.075-1.059-1.228 7.006zm15.386-16.273l4.747.292-1.113 18.108-4.747-.292 1.113-18.108zm28.689 17.059l-5.148.366-5.166-7.353c-.892.12-1.016.128-2.047.198l.542 7.615-4.62.328-1.274-18.105 8.204-.573c2.822-.2 5.9 1.07 6.152 4.643.056.745-.045 1.472-.307 2.132-.542 1.485-1.578 2.198-2.137 2.601l5.803 8.147zm-12.385-7.173l-.182-2.629c.557-.061 2.717-.123 3.124-.259.932-.297 1.545-1.113 1.467-2.169-.052-.821-.5-1.327-.91-1.557-.616-.394-1.488-.328-2.486-.262l-1.486.109.474 6.766zm29.352 3.816l-10.805 2.485-4.054-17.683 11.47-2.637.802 3.48-6.864 1.58.778 3.379 5.884-1.346.788 3.455-5.883 1.344.884 3.865 8.192-1.886-1.193 3.964z" fill="#A7A9AC" sketch:type="MSShapeGroup"/><path d="M356.357 202.151l-69.604 7.57-28.252-64.07-28.253 64.075-69.606-7.567 41.255 56.357-41.255 56.352 69.606-7.562 28.253 64.07 28.252-64.07 69.604 7.579-41.26-56.37 41.26-56.366zm-1.688 56.375c0 53.114-43.055 96.166-96.168 96.166-53.111 0-96.163-43.052-96.163-96.166 0-53.116 43.052-96.171 96.163-96.171 53.112.002 96.168 43.057 96.168 96.171z" fill="#fff" sketch:type="MSShapeGroup"/><path d="M351.14 258.517c0 51.161-41.477 92.634-92.638 92.634-51.161 0-92.636-41.474-92.636-92.634 0-51.155 41.475-92.638 92.636-92.638 51.161 0 92.638 41.484 92.638 92.638" fill="#00215B" sketch:type="MSShapeGroup"/><path d="M343.543 258.517c0 46.971-38.074 85.04-85.041 85.04-46.971 0-85.041-38.069-85.041-85.04 0-46.966 38.071-85.043 85.041-85.043 46.967.002 85.041 38.079 85.041 85.043m-85.041 85.493c-47.145 0-85.488-38.352-85.488-85.491 0-47.141 38.343-85.495 85.488-85.495 47.143 0 85.488 38.354 85.488 85.495 0 47.139-38.345 85.491-85.488 85.491m0-170.085c-46.643 0-84.586 37.951-84.586 84.593 0 46.643 37.944 84.592 84.586 84.592 46.644 0 84.588-37.946 84.588-84.592 0-46.643-37.944-84.593-84.588-84.593" fill="#A7A9AC" sketch:type="MSShapeGroup"/><path d="M242.29 252.124c0-14.71 1.511-19.527 17.188-19.527 9.35 0 15.811.691 16.773 9.902v3.99h28.321v-3.99c-.549-30.934-13.745-33.818-42.069-33.818l-1.778.007.139-.151h-47.025v39.732l.122-.083v7.617l-9.227 4.386 9.227 3.768v10.442c0 35.471 18.169 38.765 43.705 39.029l-.069.08h47.315v-34.435l-.205.095.005-2.566v-3.023h-28.318v3.023c0 12.102-5.508 12.922-16.915 12.922-16.502 0-17.188-5.907-17.188-21.305v-16.096zm63.074 61.829h-48.825l.092-.085c-24.508-.342-43.113-3.823-43.113-39.467v-10.147l-9.902-4.037 9.902-4.698-.13-47.429h48.513l-.141.139h.743c29.144 0 41.972 3.238 42.522 34.261v4.448h-29.221v-4.44c-.924-8.786-7.063-9.447-16.323-9.447-15.445 0-16.743 4.659-16.743 19.077v16.084c0 15.504.811 20.867 16.743 20.867 11.946 0 16.459-1.075 16.459-12.479v-3.471h29.224l-.003 5.348.203.601v34.876zm-46.723-.894h45.825v-33.294l-.007.003-.2-.606.009-5.143h-27.427v2.58c0 12.755-6.279 13.373-17.36 13.373-16.96 0-17.639-6.28-17.639-21.761v-16.084c0-14.8 1.446-19.976 17.639-19.976 9.451 0 16.219.736 17.217 10.307v3.58h27.43v-3.54c-.542-30.215-13.097-33.374-41.626-33.374l-2.818.012.142-.158h-45.535l.122 47.106-8.57 4.072 8.57 3.5v10.744c0 35.398 17.924 38.315 43.257 38.578l1.031.009-.061.071z" fill="#CE1332" sketch:type="MSShapeGroup"/><path d="M407.396 413.866c0-4.664 3.506-8.221 7.996-8.221 4.447 0 7.963 3.559 7.963 8.221 0 4.733-3.516 8.23-7.963 8.23-4.49 0-7.996-3.497-7.996-8.23zm7.996 9.854c5.358 0 9.947-4.153 9.947-9.854 0-5.64-4.589-9.85-9.947-9.85-5.395 0-9.968 4.211-9.968 9.85 0 5.7 4.573 9.854 9.968 9.854zm-2.068-9.077h1.969l2.983 4.924h1.929l-3.228-5.004c1.665-.208 2.94-1.083 2.94-3.124 0-2.236-1.333-3.214-4.002-3.214h-4.311v11.34h1.721v-4.922zm0-1.446v-3.523h2.334c1.189 0 2.462.257 2.462 1.667 0 1.747-1.299 1.856-2.747 1.856h-2.049z" fill="#00215B" sketch:type="MSShapeGroup"/></g></svg>