<?xml version="1.0" encoding="UTF-8" standalone="no"?>
<!-- Created with Inkscape (http://www.inkscape.org/) -->

<svg
   xmlns:dc="http://purl.org/dc/elements/1.1/"
   xmlns:cc="http://creativecommons.org/ns#"
   xmlns:rdf="http://www.w3.org/1999/02/22-rdf-syntax-ns#"
   xmlns:svg="http://www.w3.org/2000/svg"
   xmlns="http://www.w3.org/2000/svg"
   version="1.1"
   width="227.53465"
   height="299.99997"
   id="svg5925"
   xml:space="preserve"><metadata
     id="metadata5931"><rdf:RDF><cc:Work
         rdf:about=""><dc:format>image/svg+xml</dc:format><dc:type
           rdf:resource="http://purl.org/dc/dcmitype/StillImage" /><dc:title></dc:title></cc:Work></rdf:RDF></metadata><defs
     id="defs5929" /><g
     transform="matrix(1.25,0,0,-1.25,-256.85767,674.99996)"
     id="g5933"><path
       d="m 296.50037,482.02773 c -50.26556,0 -91.01423,-40.74757 -91.01423,-91.0135 0,-50.26556 40.74867,-91.01423 91.01423,-91.01423 50.26593,0 91.01349,40.74867 91.01349,91.01423 0,50.26593 -40.74756,91.0135 -91.01349,91.0135 z"
       id="path5935"
       style="fill:#1c4189;fill-opacity:1;fill-rule:nonzero;stroke:none" /><path
       d="m 296.50037,478.01342 c -48.04858,0 -86.99956,-38.95061 -86.99956,-86.99992 0,-48.04821 38.95098,-86.99919 86.99956,-86.99919 48.04858,0 86.99956,38.95098 86.99956,86.99919 0,48.04931 -38.95098,86.99992 -86.99956,86.99992 z"
       id="path5937"
       style="fill:#ffffff;fill-opacity:1;fill-rule:nonzero;stroke:none" /><path
       d="m 296.50037,476.02648 c -46.9513,0 -85.01262,-38.06095 -85.01262,-85.01225 0,-46.95166 38.06132,-85.01335 85.01262,-85.01335 46.95093,0 85.01261,38.06169 85.01261,85.01335 0,46.9513 -38.06168,85.01225 -85.01261,85.01225 z"
       id="path5939"
       style="fill:#1c4189;fill-opacity:1;fill-rule:nonzero;stroke:none" /><path
       d="m 296.50037,452.79429 c -34.12051,0 -61.78042,-27.65992 -61.78042,-61.78079 0,-34.1194 27.65991,-61.78006 61.78042,-61.78006 34.12014,0 61.78042,27.66066 61.78042,61.78006 0,34.12087 -27.66028,61.78079 -61.78042,61.78079 z"
       id="path5941"
       style="fill:#ffffff;fill-opacity:1;fill-rule:nonzero;stroke:none" /><path
       d="m 296.50037,446.89299 c -2.0711,0 -4.115,-0.11612 -6.12766,-0.33587 l 0,-111.08687 c 2.01266,-0.21902 4.05656,-0.33588 6.12766,-0.33588 2.07109,0 4.11536,0.11686 6.12766,0.33588 l 0,111.08687 c -2.0123,0.21975 -4.05657,0.33587 -6.12766,0.33587 z"
       id="path5943"
       style="fill:#e31b22;fill-opacity:1;fill-rule:nonzero;stroke:none" /><path
       d="m 267.6796,438.89451 0,-95.76166 c 3.81219,-2.29966 7.92057,-4.15762 12.25532,-5.50111 l 0,106.76425 c -4.33475,-1.34386 -8.44313,-3.20182 -12.25532,-5.50148 z"
       id="path5945"
       style="fill:#e31b22;fill-opacity:1;fill-rule:nonzero;stroke:none" /><path
       d="m 244.98686,412.70193 0,-43.37613 c 2.87513,-6.82108 7.06729,-12.94985 12.25532,-18.0732 l 0,79.52216 c -5.18803,-5.12261 -9.38019,-11.25174 -12.25532,-18.07283 z"
       id="path5947"
       style="fill:#e31b22;fill-opacity:1;fill-rule:nonzero;stroke:none" /><path
       d="m 335.75819,430.77476 0,-79.52216 c 5.18802,5.12335 9.38056,11.25212 12.25569,18.07247 l 0,43.37723 c -2.87513,6.82108 -7.06767,12.94985 -12.25569,18.07246 z"
       id="path5949"
       style="fill:#e31b22;fill-opacity:1;fill-rule:nonzero;stroke:none" /><path
       d="m 313.06545,444.39599 0,-106.76425 c 4.33511,1.34349 8.44312,3.20145 12.25569,5.50111 l 0,95.76166 c -3.81257,2.29966 -7.92058,4.15762 -12.25569,5.50148 z"
       id="path5951"
       style="fill:#e31b22;fill-opacity:1;fill-rule:nonzero;stroke:none" /><path
       d="m 296.50037,450.61258 c -32.91593,0 -59.59872,-26.68316 -59.59872,-59.59908 0,-32.91482 26.68279,-59.59872 59.59872,-59.59872 32.91555,0 59.59871,26.6839 59.59871,59.59872 0,32.91592 -26.68316,59.59908 -59.59871,59.59908 m 0,-115.47821 c -30.861,0 -55.87913,25.0185 -55.87913,55.87913 0,30.86173 25.01813,55.87949 55.87913,55.87949 30.86136,0 55.87949,-25.01776 55.87949,-55.87949 0,-30.86063 -25.01813,-55.87913 -55.87949,-55.87913 z"
       id="path5953"
       style="fill:#1c4189;fill-opacity:1;fill-rule:nonzero;stroke:none" /><path
       d="m 261.73568,464.89012 c 0,0 3.70672,-4.46961 3.70672,-11.13341 0,-19.34026 0,-47.75313 0,-49.75147 0,-20.0098 31.05797,-30.07643 31.05797,-30.07643 0,0 31.05796,10.06663 31.05796,30.07643 0,2.44445 0,30.52733 0,49.75147 0,6.6638 3.70673,11.13341 3.70673,11.13341 l -69.52938,0 z"
       id="path5955"
       style="fill:#fbbc09;fill-opacity:1;fill-rule:nonzero;stroke:none" /><path
       d="m 275.19301,455.70139 0,-48.30655 c 0,-13.71567 21.30736,-20.63377 21.30736,-20.63377 0,0 21.30735,6.9181 21.30735,20.63377 l 0,48.30655 -42.61471,0 z"
       id="path5957"
       style="fill:#1c4189;fill-opacity:1;fill-rule:nonzero;stroke:none" /><path
       d="m 268.87684,456.56679 1.17775,1.85576 1.15976,-1.85576 2.20338,0 -2.3015,3.15809 2.21221,3.00632 -2.09645,0 -1.09729,-1.79328 -1.1241,1.79328 -2.14092,0 2.19457,-3.03314 -2.29269,-3.13127 2.10528,0 z"
       id="path5959"
       style="fill:#e31b22;fill-opacity:1;fill-rule:nonzero;stroke:none" /><path
       d="m 299.73857,384.64661 -2.08764,0 -1.09691,-1.79255 -1.12411,1.79255 -2.1501,0 2.19456,-3.03241 -2.3015,-3.14045 2.12328,0 1.17739,1.87339 1.15976,-1.87339 2.19456,0 -2.29268,3.16691 2.20339,3.00595 z"
       id="path5961"
       style="fill:#e31b22;fill-opacity:1;fill-rule:nonzero;stroke:none" /><path
       d="m 321.69746,456.56679 1.16857,1.85576 1.17739,-1.85576 2.18575,0 -2.29268,3.15809 2.20338,3.00632 -2.08726,0 -1.10647,-1.79328 -1.11492,1.79328 -2.1501,0 2.18574,-3.03314 -2.29268,-3.13127 2.12328,0 z"
       id="path5963"
       style="fill:#e31b22;fill-opacity:1;fill-rule:nonzero;stroke:none" /><path
       d="m 274.72448,402.89914 -2.08726,0 -1.09729,-1.77564 -1.12411,1.77564 -2.1501,0 2.19457,-3.02433 -2.29268,-3.14008 2.11445,0 1.1774,1.87339 1.16857,-1.87339 2.19457,0 -2.31033,3.16691 2.21221,2.9975 z"
       id="path5965"
       style="fill:#e31b22;fill-opacity:1;fill-rule:nonzero;stroke:none" /><path
       d="m 324.74383,402.89914 -2.08763,0 -1.09728,-1.77564 -1.13293,1.77564 -2.14092,0 2.18575,-3.02433 -2.29268,-3.14008 2.12291,0 1.17776,1.87339 1.15975,-1.87339 2.19457,0 -2.30187,3.16691 2.21257,2.9975 z"
       id="path5967"
       style="fill:#e31b22;fill-opacity:1;fill-rule:nonzero;stroke:none" /><path
       d="m 270.05459,425.38867 1.15976,-1.85576 2.20338,0 -2.3015,3.15809 2.21221,3.01514 -2.09645,0 -1.09729,-1.79291 -1.1241,1.79291 -2.14092,0 2.19457,-3.04196 -2.29269,-3.13127 2.10528,0 1.17775,1.85576 z"
       id="path5969"
       style="fill:#e31b22;fill-opacity:1;fill-rule:nonzero;stroke:none" /><path
       d="m 326.13987,429.70614 -2.08726,0 -1.10647,-1.79291 -1.11492,1.79291 -2.1501,0 2.18574,-3.04196 -2.29268,-3.13127 2.12328,0 1.16857,1.85576 1.17739,-1.85576 2.18575,0 -2.29268,3.15809 2.20338,3.01514 z"
       id="path5971"
       style="fill:#e31b22;fill-opacity:1;fill-rule:nonzero;stroke:none" /><path
       d="m 288.09472,416.25358 c -0.8474,1.26669 1.12411,2.10527 1.12411,2.10527 l -0.13412,0.89187 c -2.25667,-1.02599 -2.1141,0.8474 -2.1141,0.8474 0.37483,2.15928 2.57821,0.14295 2.57821,0.14295 l 0.56188,1.49893 -6.56569,2.5422 c 0,0 -0.14259,-1.36481 -1.55222,-2.0248 -1.40964,-0.65116 -1.12411,-2.76562 -1.12411,-2.76562 0,0 0.65116,-0.18741 0.32117,-0.98998 0,0 -0.37446,-0.41966 -0.32117,-0.74965 0,0 0.74928,0 0.13376,-1.17739 0,0 0.84776,-0.0448 0.56224,-0.89223 0,0 0.98998,0.0981 0.84739,-0.74929 0,0 0.61553,-0.41929 1.13294,0 -2.02517,-4.933 -3.57738,-4.73676 -3.57738,-4.73676 -1.64115,2.10527 -1.02563,6.0571 -1.02563,6.0571 0.5174,3.18455 -0.66035,5.06713 -0.66035,5.06713 1.03481,2.3015 -1.16858,3.1489 -1.16858,3.1489 -0.8474,-1.97151 0.32118,-3.33631 0.32118,-3.33631 1.69479,-1.92705 0.8474,-4.60338 0.8474,-4.60338 -1.45411,-4.93299 0.56223,-7.65415 0.56223,-7.65415 -0.65153,-2.34597 0.74929,-3.75561 0.74929,-3.75561 -0.89223,-0.79374 -0.6067,-1.82855 -0.6067,-1.82855 0.0445,-0.0448 3.85372,-3.94302 3.85372,-3.94302 l 3.5149,0 c -0.41929,1.17739 -1.64151,0.98116 -1.64151,0.98116 -2.11409,0.0981 -2.11409,1.13293 -2.11409,1.13293 -0.14295,1.16894 -0.41929,2.24785 -0.41929,2.24785 1.64151,1.03481 1.31115,2.30187 1.31115,2.30187 2.01634,0 3.29185,-0.98117 3.29185,-0.98117 1.49893,-1.69516 2.76562,-1.40963 2.76562,-1.40963 l 4.97783,3.32749 0,1.13293 -0.6067,0 -3.00632,-2.35515 c -0.93669,-0.79412 -1.97151,0.0981 -1.97151,0.0981 l -3.38114,2.21221 c 2.95303,1.45447 2.81927,3.75597 2.81927,3.75597 l 1.97151,0 c 2.24785,3.56819 4.13006,3.42561 4.13006,3.42561 l 0,2.20338 -0.47257,0 -2.90821,-3.19373 c -1.07964,-0.89186 -2.58703,0.37446 -2.58703,0.37446 l 1.46293,0.1966 2.20338,2.67633 c 1.12411,1.16857 2.34633,1.40045 2.34633,1.40045 l 0,2.77444 -0.56223,0 c -3.29149,-6.53041 -5.8697,-5.39712 -5.8697,-5.39712 z"
       id="path5973"
       style="fill:#fbbc09;fill-opacity:1;fill-rule:nonzero;stroke:none" /><path
       d="m 315.89207,424.46961 c 0,0 -2.20338,-0.8474 -1.17739,-3.1489 0,0 -1.17776,-1.88258 -0.65153,-5.06713 0,0 0.6067,-3.95183 -1.03482,-6.0571 0,0 -1.55222,-0.19624 -3.56819,4.73676 0.51741,-0.41929 1.12411,0 1.12411,0 -0.13376,0.8474 0.8474,0.74929 0.8474,0.74929 -0.28553,0.84739 0.56187,0.89223 0.56187,0.89223 -0.60634,1.17739 0.14295,1.17739 0.14295,1.17739 0.0445,0.32999 -0.32999,0.74965 -0.32999,0.74965 -0.33037,0.80257 0.32999,0.98998 0.32999,0.98998 0,0 0.27634,2.11446 -1.13293,2.76562 -1.40964,0.65999 -1.5434,2.0248 -1.5434,2.0248 l -6.57451,-2.5422 0.56187,-1.49893 c 0,0 2.20339,2.01633 2.58703,-0.14295 0,0 0.13376,-1.87339 -2.11409,-0.8474 l -0.14295,-0.89187 c 0,0 1.97151,-0.83858 1.12411,-2.10527 0,0 -2.57821,-1.13329 -5.87006,5.39712 l -0.56187,0 0,-2.77444 c 0,0 1.22223,-0.23188 2.35515,-1.40045 l 2.20339,-2.67633 1.4541,-0.1966 c 0,0 -1.50775,-1.26632 -2.58703,-0.37446 l -2.9082,3.19373 -0.47294,0 0,-2.20338 c 0,0 1.88258,0.14258 4.13924,-3.42561 l 1.97151,0 c 0,0 -0.14258,-2.3015 2.81928,-3.75597 l -3.38997,-2.21221 c 0,0 -1.02599,-0.89223 -1.9715,-0.0981 l -2.99751,2.35515 -0.61552,0 0,-1.13293 4.97783,-3.32749 c 0,0 1.26669,-0.28553 2.77444,1.40963 0,0 1.25787,0.98117 3.28267,0.98117 0,0 -0.33,-1.26706 1.31152,-2.30187 0,0 -0.27671,-1.07891 -0.41929,-2.24785 0,0 0,-1.03482 -2.11409,-1.13293 0,0 -1.21341,0.19623 -1.64152,-0.98116 l 3.52373,0 c 0,0 3.80007,3.89818 3.8449,3.94302 0,0 0.28553,1.03481 -0.6067,1.82855 0,0 1.40964,1.40964 0.74928,3.75561 0,0 2.02516,2.72116 0.56224,7.65415 0,0 -0.84777,2.67633 0.8474,4.60338 0,0 1.17739,1.3648 0.32999,3.33631 z"
       id="path5975"
       style="fill:#fbbc09;fill-opacity:1;fill-rule:nonzero;stroke:none" /><path
       d="m 296.49596,449.42122 c -8.30533,0 -15.04079,-4.83488 -15.04079,-10.81187 0,-5.977 6.73546,-10.82106 15.04079,-10.82106 8.31414,0 15.04961,4.84406 15.04961,10.82106 0,5.97699 -6.73547,10.81187 -15.04961,10.81187 z"
       id="path5977"
       style="fill:#1aae48;fill-opacity:1;fill-rule:nonzero;stroke:none" /><path
       d="m 229.83619,401.57402 c -0.20101,0.26459 -0.49829,0.42885 -0.83784,0.46743 l -10.75676,1.31997 c -0.6971,0.086 -1.29572,-0.37923 -1.38171,-1.0767 l -0.36637,-3.03976 c -0.039,-0.31309 0.0463,-0.61516 0.2293,-0.86173 0.20946,-0.25503 0.50675,-0.41929 0.85586,-0.46669 l 3.58546,-0.43694 0.17933,1.47506 c 0,0 -3.12943,0.38254 -3.42451,0.42186 0.0309,0.26825 0.2734,2.21735 0.30464,2.4856 0.31272,-0.0389 10.12139,-1.23288 10.43411,-1.27183 -0.0309,-0.27745 -0.2734,-2.21772 -0.30427,-2.4948 -0.28627,0.0397 -2.71822,0.33661 -2.71822,0.33661 l -0.1797,-1.47578 2.87917,-0.35094 c 0.33992,-0.0478 0.66844,0.0474 0.93266,0.24805 0.24621,0.19182 0.40202,0.4711 0.44134,0.77537 l 0.37446,3.08459 c 0.0393,0.30354 -0.0463,0.61442 -0.24695,0.86063 z"
       id="path5979"
       style="fill:#ffffff;fill-opacity:1;fill-rule:nonzero;stroke:none" /><path
       d="m 229.41911,390.19991 -0.0261,1.48975 -0.16022,-0.0117 -13.14682,-0.25577 0.0911,-4.70957 1.40008,0.0243 c 0,0 -0.0599,2.93466 -0.065,3.22864 0.32117,0.006 11.90695,0.23445 11.90695,0.23445 z"
       id="path5981"
       style="fill:#ffffff;fill-opacity:1;fill-rule:nonzero;stroke:none" /><path
       d="m 230.55718,378.66631 c 0,0 -11.44063,-1.90426 -11.75225,-1.95424 -0.0492,0.27561 -0.39871,2.40182 -0.44795,2.66861 0.32044,0.05 11.75188,1.96306 11.75188,1.96306 l -0.23959,1.45888 -0.16904,-0.0301 -11.74306,-1.95351 c -0.72944,-0.11979 -1.148,-0.67101 -1.02894,-1.3648 l 0.54791,-3.27421 c 0.10987,-0.68498 0.6971,-1.08479 1.40853,-0.96573 l 11.9121,1.98364 -0.23959,1.46843 z"
       id="path5983"
       style="fill:#ffffff;fill-opacity:1;fill-rule:nonzero;stroke:none" /><path
       d="m 233.31435,368.44901 -1.28102,3.84968 -0.15067,-0.0559 -12.47176,-4.1613 1.28065,-3.84967 c 0.13193,-0.40864 0.35976,-0.69013 0.65705,-0.8452 0.2881,-0.13817 0.61809,-0.14993 0.97271,-0.0191 l 4.02754,1.33762 c 0.45236,0.15066 0.7151,0.44023 0.83159,0.90619 0,0 0.0915,0.39467 0.15802,0.66293 0.24437,-0.19183 0.71474,-0.55857 0.71474,-0.55857 0.32521,-0.244 0.73348,-0.11171 1.02636,-0.0177 l 3.46824,1.16711 c 0.33734,0.0955 0.59237,0.31382 0.73017,0.58355 0.14626,0.30648 0.15838,0.64529 0.0364,1.00027 m -7.43624,-2.34303 c -0.15949,-0.0558 -3.63691,-1.20459 -3.92097,-1.29939 -0.0845,0.24841 -0.68718,2.05786 -0.7717,2.30628 0.28369,0.0941 4.33768,1.45006 4.62138,1.54413 0.0845,-0.23004 0.38621,-1.17078 0.41451,-1.24207 -0.0165,-0.0897 -0.30096,-1.1649 -0.34322,-1.30895 m 2.68624,0.99292 c -0.11722,0.0691 -0.93926,0.64382 -1.01129,0.696 -0.0287,0.0889 -0.3491,1.06495 -0.43325,1.29572 0.28369,0.0941 3.79676,1.26191 4.07163,1.35599 0.0845,-0.24842 0.65889,-1.96967 0.75259,-2.23573 -0.28369,-0.0941 -3.23783,-1.07376 -3.37968,-1.11198 z"
       id="path5985"
       style="fill:#ffffff;fill-opacity:1;fill-rule:nonzero;stroke:none" /><path
       d="m 241.26543,353.00987 -1.84987,2.75093 -0.14112,-0.10951 -10.88132,-7.36275 1.85906,-2.75166 c 0.32962,-0.49389 0.81726,-0.80698 1.36333,-0.92236 0.54607,-0.097 1.09728,0.0191 1.56471,0.33073 l 7.5656,5.12923 c 0.83784,0.56738 1.29792,1.78887 0.51961,2.93539 m -1.13734,-1.26926 c -0.0408,-0.21534 -0.17161,-0.41378 -0.38328,-0.54166 l -7.20399,-4.89037 c -0.22049,-0.14699 -0.46045,-0.20431 -0.68461,-0.15507 -0.24107,0.0316 -0.45861,0.20578 -0.64125,0.45273 0,0 -0.62287,0.91722 -0.82462,1.23472 0.25577,0.183 8.43909,5.71498 8.69449,5.89799 0.1558,-0.22931 0.879,-1.28764 0.879,-1.28764 0.11024,-0.17639 0.17565,-0.35351 0.17896,-0.53211 0.001,-0.0713 -0.007,-0.12494 -0.0147,-0.17859 z"
       id="path5987"
       style="fill:#ffffff;fill-opacity:1;fill-rule:nonzero;stroke:none" /><path
       d="m 245.68396,347.26916 -0.12274,-0.10877 -9.7043,-8.87748 2.96516,-3.23159 1.03628,0.94589 c 0,0 -1.76462,1.93219 -1.96452,2.14238 0.21938,0.19991 3.21468,2.92952 3.43406,3.12943 0.19991,-0.21093 1.82782,-1.98437 1.82782,-1.98437 l 1.03629,0.94588 c 0,0 -1.61947,1.79181 -1.81938,2.00201 0.21975,0.20064 3.06512,2.80164 3.2845,3.00228 0.19146,-0.22931 1.92852,-2.10784 1.92852,-2.10784 l 1.02746,0.92824 -2.92915,3.21394 z"
       id="path5989"
       style="fill:#ffffff;fill-opacity:1;fill-rule:nonzero;stroke:none" /><path
       d="m 255.13801,338.2807 -3.17719,2.60247 -0.10473,-0.12641 -8.34318,-10.17394 1.1491,-0.92604 c 0,0 3.03204,3.67549 3.22423,3.91068 0.226,-0.17419 2.09094,-1.71244 2.09094,-1.71244 0.30758,-0.24401 0.64859,-0.36307 0.9694,-0.33955 0.32044,0.0412 0.61222,0.20652 0.84814,0.49683 l 3.62515,4.41706 c 0.21864,0.27193 0.32926,0.57694 0.29692,0.89738 -0.0327,0.33881 -0.23445,0.65631 -0.57878,0.95396 m -4.41449,-5.21669 c -0.20799,0.15729 -1.73779,1.41552 -1.94615,1.58971 0.19219,0.23518 3.24996,3.96506 3.44215,4.20025 0.21681,-0.17492 1.74698,-1.43316 1.95534,-1.60735 -0.19256,-0.21754 -3.25878,-3.96506 -3.45134,-4.18261 z"
       id="path5991"
       style="fill:#ffffff;fill-opacity:1;fill-rule:nonzero;stroke:none" /><path
       d="m 264.12868,332.31657 -3.01992,1.76756 c -0.24327,0.13817 -0.592,0.18594 -0.90289,0.1095 -0.31125,-0.0772 -0.56628,-0.27854 -0.73091,-0.56664 l -5.50185,-9.37505 c -0.39834,-0.68497 -0.0202,-1.392 0.40349,-1.65291 l 3.01992,-1.76682 c 0.25246,-0.15654 0.60082,-0.18594 0.90289,-0.1095 0.32007,0.0772 0.5751,0.27781 0.73973,0.56591 l 5.50185,9.37578 c 0.12126,0.21607 0.17087,0.43141 0.16757,0.62765 -0.008,0.44611 -0.28259,0.85107 -0.57988,1.02452 m -6.2831,-10.12029 c -0.23446,0.13891 -2.25373,1.3163 -2.497,1.45521 0.15617,0.27046 5.15532,8.79811 5.31112,9.06857 0.24328,-0.13891 2.26256,-1.31704 2.50582,-1.45521 -0.15581,-0.27046 -5.15495,-8.79811 -5.31994,-9.06857 z"
       id="path5993"
       style="fill:#ffffff;fill-opacity:1;fill-rule:nonzero;stroke:none" /><path
       d="m 273.70657,327.96933 -3.99777,1.57206 -0.0595,-0.16242 -4.78307,-12.23548 1.38392,-0.54681 c 0,0 4.21899,10.79865 4.3296,11.10365 0.26054,-0.10289 2.19199,-0.85401 2.45217,-0.95617 -0.11062,-0.2881 -1.392,-3.5579 -1.49416,-3.82689 -0.26973,0.10216 -2.13834,0.83711 -2.13834,0.83711 l -0.33551,-0.20285 -0.16389,-7.99701 1.50922,-0.58061 c 0,0 0.13854,6.3735 0.14846,6.81962 0.25172,-0.1029 0.65594,-0.2565 0.65594,-0.2565 0.59311,-0.23959 1.35746,-0.0654 1.65622,0.70702 l 1.59705,4.09662 c 0.28185,0.71879 -0.006,1.33835 -0.76031,1.62866 z"
       id="path5995"
       style="fill:#ffffff;fill-opacity:1;fill-rule:nonzero;stroke:none" /><path
       d="m 278.48045,326.4105 -0.0327,-0.16096 -0.28259,-1.20091 c 0,0 1.66614,-0.38071 1.93513,-0.44758 -0.075,-0.30428 -2.7241,-11.59314 -2.7241,-11.59314 l 1.45153,-0.3491 c 0,0 2.64913,11.28813 2.71491,11.61077 0.27744,-0.0669 1.93513,-0.46596 1.93513,-0.46596 l 0.32411,1.36187 -5.32142,1.24501 z"
       id="path5997"
       style="fill:#ffffff;fill-opacity:1;fill-rule:nonzero;stroke:none" /><path
       d="m 288.00579,324.56062 -0.0239,-0.16095 -1.49379,-13.07039 1.47505,-0.1705 1.51804,13.23133 -1.47541,0.17051 z"
       id="path5999"
       style="fill:#ffffff;fill-opacity:1;fill-rule:nonzero;stroke:none" /><path
       d="m 298.11506,324.04101 c 0,0 -1.08148,-7.04966 -1.32071,-8.67757 -0.27818,1.61909 -1.47174,8.66434 -1.47174,8.66434 l -1.50776,-0.008 0.0302,-0.19623 2.35184,-13.0917 1.17813,0.002 2.22984,13.31512 -1.48975,-0.008 z"
       id="path6001"
       style="fill:#ffffff;fill-opacity:1;fill-rule:nonzero;stroke:none" /><path
       d="m 311.38314,313.28058 -1.63343,10.76778 c -0.0503,0.31971 -0.21534,0.58429 -0.47772,0.77611 -0.25282,0.19182 -0.59384,0.27561 -0.87826,0.23445 l -3.46163,-0.52402 c -0.48948,-0.0801 -1.105,-0.59017 -0.98447,-1.37363 l 1.63343,-10.7494 c 0.1209,-0.8011 0.85769,-1.10905 1.35599,-1.02894 l 3.46163,0.52403 c 0.28442,0.0411 0.57583,0.22415 0.76802,0.47771 0.15654,0.21681 0.23224,0.46743 0.22783,0.73569 -7.5e-4,0.0529 -0.002,0.10657 -0.0114,0.16022 m -4.36414,-0.4689 c -0.0408,0.3028 -1.53164,10.07325 -1.58199,10.39369 0.2848,0.0404 2.58961,0.38438 2.86558,0.4248 0.0584,-0.3028 1.53164,-10.07325 1.58235,-10.39369 -0.27634,-0.0404 -2.58078,-0.38438 -2.86594,-0.4248 z"
       id="path6003"
       style="fill:#ffffff;fill-opacity:1;fill-rule:nonzero;stroke:none" /><path
       d="m 331.93387,320.25969 -1.49416,3.29258 -1.35415,-0.62985 c 0,0 1.30785,-2.85015 1.42875,-3.13384 -0.24768,-0.11098 -2.027,-0.92751 -2.28387,-1.03922 -0.12971,0.28369 -4.22119,9.27729 -4.35091,9.56025 0.24731,0.12935 2.02663,0.92751 2.27431,1.05686 0.1209,-0.26532 1.13182,-2.49663 1.13182,-2.49663 l 1.35489,0.61295 -1.19724,2.63774 c -0.28773,0.6372 -0.98851,0.91061 -1.59007,0.6328 l -2.83287,-1.28102 c -0.59274,-0.27855 -0.84814,-0.9966 -0.56959,-1.61616 l 4.49975,-9.87849 c 0.1389,-0.3006 0.38401,-0.52843 0.68938,-0.64823 0.305,-0.10142 0.63536,-0.0963 0.94478,0.0522 l 2.78878,1.26191 c 0.61037,0.27855 0.85732,0.97896 0.5604,1.61617 z"
       id="path6005"
       style="fill:#ffffff;fill-opacity:1;fill-rule:nonzero;stroke:none" /><path
       d="m 341.95494,324.78846 1.23435,0.82461 -7.34033,11.09557 -0.14111,-0.0919 -1.1028,-0.71437 c 0,0 2.96039,-4.481 3.1342,-4.74559 -0.2293,-0.14698 -2.09902,-1.39273 -2.32833,-1.53972 -0.17455,0.26458 -3.1342,4.72721 -3.1342,4.72721 l -1.23472,-0.80624 7.34033,-11.11394 1.23472,0.82461 c 0,0 -3.24408,4.90434 -3.41789,5.16892 0.22931,0.14626 2.09902,1.39273 2.33715,1.53972 0.16499,-0.24694 3.41863,-5.16891 3.41863,-5.16891 z"
       id="path6007"
       style="fill:#ffffff;fill-opacity:1;fill-rule:nonzero;stroke:none" /><path
       d="m 341.03845,340.97504 -0.12311,-0.10877 -0.99255,-0.87386 8.74042,-10.03724 1.11602,0.96573 -8.74078,10.05414 z"
       id="path6009"
       style="fill:#ffffff;fill-opacity:1;fill-rule:nonzero;stroke:none" /><path
       d="m 348.13037,348.21946 -0.13119,-0.1639 -0.87533,-0.96058 c 0,0 4.48652,-5.54301 5.50773,-6.80933 -1.37142,0.88636 -7.38112,4.74265 -7.38112,4.74265 l -1.01534,-1.10611 11.42997,-7.2062 0.79669,0.87018 -8.33141,10.63329 z"
       id="path6011"
       style="fill:#ffffff;fill-opacity:1;fill-rule:nonzero;stroke:none" /><path
       d="m 363.96417,347.35368 0.86982,1.28176 -12.57246,5.20493 -0.0695,-0.10804 -0.64419,-0.93927 9.38865,-9.86452 0.82645,1.21046 c 0,0 -1.73595,1.82489 -1.89948,2.00054 0.13045,0.19844 1.41846,2.07698 1.53972,2.27541 0.22453,-0.10289 2.56094,-1.06127 2.56094,-1.06127 m -5.10975,-0.14331 c -0.24548,0.24547 -3.08092,3.21174 -3.63507,3.80925 0.74597,-0.32631 4.52142,-1.91969 4.83598,-2.05713 -0.17418,-0.25282 -1.0271,-1.4993 -1.20091,-1.75212 z"
       id="path6013"
       style="fill:#ffffff;fill-opacity:1;fill-rule:nonzero;stroke:none" /><path
       d="m 368.8053,358.84025 -3.0416,1.48166 c -0.38732,0.18962 -0.75149,0.11171 -1.16968,0.0331 0,0 -4.41779,-0.93339 -4.72022,-0.99219 -0.0904,0.0514 -1.89912,0.93045 -2.15084,1.05098 0.11171,0.23372 0.73164,1.51106 0.84373,1.74551 0.2609,-0.12053 2.40255,-1.15387 2.40255,-1.15387 l 0.64566,1.33173 -2.52824,1.22296 c -0.34212,0.17271 -0.69085,0.20211 -0.99181,0.0897 -0.27525,-0.0941 -0.50345,-0.29399 -0.65007,-0.60046 l -1.12815,-2.32171 c -0.13744,-0.28737 -0.15912,-0.60928 -0.0559,-0.89297 0.11282,-0.31897 0.34028,-0.56518 0.62839,-0.72025 l 2.49259,-1.20606 c 0.29655,-0.13744 0.53688,-0.0977 0.79485,-0.0397 l 0.0893,0.002 c 0.009,0 4.69414,0.93854 4.99657,1.01423 0.09,-0.0514 2.49223,-1.22296 2.75313,-1.34349 -0.1209,-0.23371 -0.74083,-1.51179 -0.85254,-1.74551 -0.2701,0.1198 -3.04123,1.46329 -3.04123,1.46329 l -0.64603,-1.331 3.18529,-1.55074 c 0.71988,-0.3447 1.37436,0.006 1.63232,0.52842 l 1.12852,2.32098 c 0.29215,0.62986 0.0397,1.30381 -0.61662,1.61322 z"
       id="path6015"
       style="fill:#ffffff;fill-opacity:1;fill-rule:nonzero;stroke:none" /><path
       d="m 374.86571,379.64967 -11.87719,2.16591 -0.0331,-0.16978 -0.23591,-1.29792 c 0,0 11.40277,-2.0755 11.72505,-2.13283 -0.0577,-0.26826 -0.43987,-2.39007 -0.48837,-2.66714 -0.32265,0.0566 -11.71661,2.13283 -11.71661,2.13283 l -0.26899,-1.45888 11.88638,-2.16149 c 0.36674,-0.0647 0.69599,-0.006 0.95139,0.17712 0.24731,0.16536 0.41194,0.43582 0.4689,0.75773 l 0.59421,3.27127 c 0.0566,0.32265 -0.002,0.63353 -0.1672,0.88047 -0.183,0.25577 -0.48066,0.43804 -0.83858,0.50271 z"
       id="path6017"
       style="fill:#ffffff;fill-opacity:1;fill-rule:nonzero;stroke:none" /><path
       d="m 375.66277,391.25383 -3.38336,0.0926 c -0.43766,0.0191 -0.73715,-0.19109 -1.08074,-0.43803 0,0 -3.6472,-2.66935 -3.90296,-2.85161 -0.0981,0.007 -2.10674,0.061 -2.39264,0.0735 0.005,0.25944 0.0514,1.67863 0.0555,1.94616 0.29472,-0.0125 2.66898,-0.0779 2.66898,-0.0779 l 0.0456,1.48166 -2.82074,0.0845 c -0.36637,0.0117 -0.70335,-0.10142 -0.94037,-0.3197 -0.21057,-0.20873 -0.33036,-0.48728 -0.34249,-0.82682 l -0.0709,-2.57968 c -0.0151,-0.65999 0.51153,-1.20459 1.18106,-1.21929 l 2.76783,-0.086 c 0.32118,-0.003 0.52366,0.1345 0.74451,0.28075 l 0.0706,0.0544 c 0.009,7.5e-4 3.89451,2.78106 4.15064,2.95524 0.0977,0.002 2.76672,-0.0772 3.05262,-0.0808 -0.004,-0.26753 -0.0507,-1.68745 -0.0551,-1.95498 -0.29435,0.0125 -3.38335,0.10143 -3.38335,0.10143 l -0.0364,-1.48166 3.54357,-0.10731 c 0.80404,-0.022 1.24832,0.57473 1.27404,1.15461 l 0.0709,2.57968 c 0.0235,0.68792 -0.49389,1.19651 -1.21671,1.21929 z"
       id="path6019"
       style="fill:#ffffff;fill-opacity:1;fill-rule:nonzero;stroke:none" /><path
       d="m 376.55132,398.61254 c 0,0 -2.51133,0.23261 -2.75276,0.25502 -0.0309,0.23151 -0.29324,2.49333 -0.31529,2.72484 0.22159,0.0753 2.61643,0.89333 2.61643,0.89333 l -0.18742,1.53127 -0.18594,-0.0654 -12.7018,-4.27264 0.14662,-1.26449 13.54847,-1.27146 -0.16831,1.46954 m -9.46434,0.87863 c 0.78126,0.25429 4.6754,1.52686 5.00392,1.63086 0.0412,-0.31162 0.20983,-1.7988 0.25099,-2.11924 -0.34837,0.0386 -4.44132,0.41341 -5.25491,0.48838 z"
       id="path6021"
       style="fill:#ffffff;fill-opacity:1;fill-rule:nonzero;stroke:none" /><path
       d="m 359.50375,317.63811 1.41845,0 0,-3.67549 0.71364,0 0,3.67549 1.41846,0 0,0.62471 -3.55055,0 0,-0.62471 z"
       id="path6023"
       style="fill:#1c4189;fill-opacity:1;fill-rule:nonzero;stroke:none" /><path
       d="m 366.73861,318.26282 -1.06164,-3.44399 -1.08809,3.44399 -1.05282,0 0,-4.3002 0.66035,0 0,3.67549 1.13294,-3.67549 0.67799,0 1.12374,3.62184 0,-3.62184 0.65117,0 0,4.3002 -1.04364,0 z"
       id="path6025"
       style="fill:#1c4189;fill-opacity:1;fill-rule:nonzero;stroke:none" /><path
       d="m 298.00335,405.82498 0,21.32096 -3.00633,0 0,-21.32096 c 0,0 0.0187,-3.60641 -3.28707,-8.82273 0,0 1.98548,-1.54523 4.79042,-1.54523 2.80457,0 4.79042,1.54523 4.79042,1.54523 -3.30619,5.21632 -3.28744,8.82273 -3.28744,8.82273 z"
       id="path6027"
       style="fill:#f36717;fill-opacity:1;fill-rule:nonzero;stroke:none" /><path
       d="m 237.20151,495.66329 c -4.47439,-4.90066 -6.55834,-10.21509 -6.55834,-16.72566 0,-3.78206 1.1829,-10.20444 6.81888,-19.32446 l 9.57275,-15.46045 c 1.91014,-3.10774 2.59181,-7.1327 2.59181,-9.86195 0,-0.99733 -0.14405,-1.94431 -0.28296,-2.86043 -0.1378,-0.9062 -0.27965,-1.84326 -0.27965,-2.81082 0,-2.98942 1.15682,-5.14871 3.19668,-6.07548 0.16095,-2.38749 1.14872,-4.78822 3.49579,-5.57388 -0.0676,-0.71437 -0.122,-1.55516 -0.122,-2.48928 0,-2.87476 0.4994,-6.4922 2.59402,-9.00794 l 0.61699,-0.74083 0.82902,0.49168 c 2.46981,1.4666 5.35339,5.67236 5.35339,12.69997 0,12.90833 -8.7779,27.93772 -11.46856,32.23646 l -9.81454,15.6813 c -2.98133,4.76065 -3.60715,9.12847 -3.60715,11.95436 0,7.08971 5.05757,14.7413 13.22877,14.7413 5.94907,0 9.11781,-3.88569 9.11781,-6.69137 0,-1.38429 -1.0179,-5.18399 -4.29359,-5.18399 -2.21367,0 -3.82064,1.5434 -3.82064,3.67035 0,0.68277 0.19219,1.81497 0.73054,2.94642 l 1.0168,2.13577 -2.30076,-0.55047 c -6.71268,-1.60624 -10.11588,-5.32032 -10.11588,-11.03935 0,-4.44756 1.80394,-7.83716 5.77599,-10.91918 -0.029,-0.33661 -0.0518,-0.70922 -0.0518,-1.13586 0,-1.80247 0.37116,-4.26199 2.05273,-6.15707 1.57941,-1.78005 3.92831,-2.65538 6.98167,-2.60246 l 1.99429,0.0345 -1.05429,1.69296 c -1.32144,2.12291 -2.00421,4.04664 -2.00421,5.52684 0,0.66513 0.17528,1.2112 0.4553,1.67495 6.31471,0.49169 10.77917,3.55901 12.33874,8.41226 0.38695,-0.305 3.34954,-2.64141 3.34954,-2.64141 l 0.70923,0.65116 c 1.60771,1.47799 2.05162,3.57665 2.05162,5.44416 0,0.22085 -0.0265,0.41819 -0.0378,0.63095 1.15094,-0.574 3.71849,-1.85465 3.71849,-1.85465 l 0.23261,1.53532 c 0.13891,0.91832 0.20726,1.81827 0.20726,2.69139 0,3.07982 -0.85549,5.82596 -2.46282,7.88897 1.62608,1.51584 2.56939,3.61156 2.56939,5.83736 0,0.0492 -3.7e-4,0.0981 -0.001,0.14736 l -0.0228,1.22627 -1.22038,-0.12274 c -5.34016,-0.53505 -9.18763,0.99696 -13.26147,2.61936 -4.03305,1.60624 -8.20354,3.26723 -14.16767,3.26723 -6.08136,0 -11.01031,-2.02185 -14.65163,-6.00896 z"
       id="path6029"
       style="fill:#1c4189;fill-opacity:1;fill-rule:nonzero;stroke:none" /><path
       d="m 257.90033,414.49264 c 0,1.39935 0.12715,2.57968 0.21167,3.2088 l 0.15617,1.16122 -1.166,0.11429 c -2.40881,0.23739 -2.61827,3.2551 -2.61827,4.28587 0,0.0235 0.008,0.94 0.008,0.94 l -0.84299,0.22857 c -2.02222,0.54754 -2.32428,2.85896 -2.32428,4.18813 0,0.79705 0.12347,1.61028 0.25429,2.47127 0.15177,0.99917 0.30831,2.03214 0.30831,3.19998 0,3.03866 -0.76912,7.53693 -2.92841,11.0489 l -9.57385,15.46265 c -5.63929,9.1248 -6.48154,15.27928 -6.48154,18.13531 0,5.99316 1.84105,10.68142 5.96818,15.20101 3.23966,3.54798 7.48585,5.27254 12.98145,5.27254 5.53051,0 9.49631,-1.57904 13.33129,-3.10664 3.81146,-1.51804 7.76293,-3.05372 12.94728,-2.83802 -0.28663,-1.47799 -1.12852,-2.81413 -2.42938,-3.69901 l -1.13257,-0.77097 0.97161,-0.96572 c 1.70766,-1.69701 2.61864,-4.25207 2.61864,-7.21502 0,-0.24842 -0.047,-0.51557 -0.0599,-0.76987 -1.23987,0.61846 -4.77939,2.38345 -4.77939,2.38345 l 0.46595,-2.2743 c 0.10988,-0.53726 0.24768,-1.39825 0.24768,-2.33826 0,-1.03003 -0.17455,-2.14936 -0.72393,-3.04747 -0.44905,0.35388 -4.58793,3.61816 -4.58793,3.61816 l -0.30868,-1.8947 c -0.8033,-4.9319 -5.02964,-8.05912 -11.30613,-8.36559 l -0.49279,-0.0239 -0.31787,-0.37813 c -0.46742,-0.55672 -1.14983,-1.68046 -1.14983,-3.49285 0,-1.2553 0.3333,-2.84464 1.28617,-4.80108 -1.38428,0.25099 -2.48598,0.80441 -3.26429,1.68157 -1.21083,1.36518 -1.48607,3.22424 -1.48607,4.63057 0,0.61441 0.0525,1.14248 0.10252,1.50481 l 0.0915,0.66734 -0.54349,0.39834 c -3.76553,2.76048 -5.3725,5.60474 -5.3725,9.51064 0,4.01027 2.088,6.72114 6.36137,8.24433 -0.13229,-0.60193 -0.21313,-1.19651 -0.21313,-1.7367 0,-3.38151 2.61422,-5.93142 6.08136,-5.93142 4.90397,0 6.5543,5.11306 6.5543,7.44506 0,4.30572 -4.35055,8.95245 -11.37852,8.95245 -9.56761,0 -15.48948,-8.82567 -15.48948,-17.00238 0,-3.12207 0.68571,-7.93858 3.95147,-13.15417 l 9.81491,-15.68056 c 2.60908,-4.17012 11.12423,-18.73135 11.12423,-31.03739 0,-4.93667 -1.60771,-8.45415 -3.41422,-10.11955 -1.15938,1.97078 -1.453,4.57765 -1.453,6.68843 z"
       id="path6031"
       style="fill:#fbbc09;fill-opacity:1;fill-rule:nonzero;stroke:none" /><path
       d="m 341.14759,501.67226 c -5.96413,0 -10.13462,-1.66099 -14.16767,-3.26723 -4.07383,-1.6224 -7.92131,-3.15441 -13.26147,-2.61937 l -1.22038,0.12274 -0.0228,-1.22627 c -7.5e-4,-0.0492 -0.001,-0.0981 -0.001,-0.14735 0,-2.22581 0.94331,-4.32152 2.5694,-5.83736 -1.60735,-2.06301 -2.46283,-4.80916 -2.46283,-7.88897 0,-0.87313 0.0684,-1.77308 0.20726,-2.6914 l 0.23261,-1.53531 c 0,0 2.56755,1.28065 3.71849,1.85465 -0.0114,-0.21277 -0.0378,-0.4101 -0.0378,-0.63096 0,-1.86751 0.44391,-3.96616 2.05162,-5.44415 l 0.70922,-0.65117 c 0,0 2.9626,2.33641 3.34955,2.64142 1.55957,-4.85326 6.02403,-7.92058 12.33874,-8.41226 0.28001,-0.46375 0.4553,-1.00983 0.4553,-1.67496 0,-1.48019 -0.68277,-3.40393 -2.00421,-5.52683 l -1.05429,-1.69297 1.99429,-0.0345 c 3.05336,-0.0529 5.40226,0.82241 6.98168,2.60246 1.68157,1.89507 2.05272,4.35459 2.05272,6.15706 0,0.42664 -0.0228,0.79926 -0.0518,1.13587 3.97205,3.08202 5.77599,6.47162 5.77599,10.91918 0,5.71903 -3.4032,9.43311 -10.11625,11.03934 l -2.3004,0.55048 1.01681,-2.13577 c 0.53835,-1.13146 0.73054,-2.26365 0.73054,-2.94642 0,-2.12695 -1.60697,-3.67035 -3.82065,-3.67035 -3.27567,0 -4.29358,3.7997 -4.29358,5.18398 0,2.80568 3.16874,6.69137 9.11781,6.69137 8.17119,0 13.22877,-7.65158 13.22877,-14.74129 0,-2.8259 -0.62582,-7.19371 -3.60715,-11.95437 l -9.81455,-15.68129 c -2.69065,-4.29874 -11.46855,-19.32814 -11.46855,-32.23683 0,-7.02724 2.88358,-11.23301 5.35339,-12.6996 l 0.82902,-0.49168 0.617,0.74046 c 2.09461,2.51611 2.59401,6.13354 2.59401,9.00831 0,0.93412 -0.0544,1.77527 -0.12201,2.48891 2.34708,0.78603 3.33485,3.18638 3.4958,5.57424 2.03986,0.92641 3.19668,3.08606 3.19668,6.07548 0,0.96757 -0.14185,1.90463 -0.28002,2.81083 -0.13854,0.91611 -0.28259,1.8631 -0.28259,2.86043 0,2.72924 0.68167,6.75421 2.59181,9.86195 l 9.57275,15.46044 c 5.63598,9.12002 6.81888,15.5424 6.81888,19.32446 0,6.51057 -2.08395,11.82501 -6.55834,16.72567 -3.64132,3.98711 -8.57028,6.00897 -14.65164,6.00897 z"
       id="path6033"
       style="fill:#1c4189;fill-opacity:1;fill-rule:nonzero;stroke:none" /><path
       d="m 333.64741,407.80458 c -1.80651,1.66503 -3.41422,5.18251 -3.41422,10.11882 0,12.3064 8.51515,26.86763 11.12423,31.03775 l 9.81492,15.68056 c 3.26575,5.21559 3.95146,10.03209 3.95146,13.15417 0,8.17671 -5.92187,17.00237 -15.48947,17.00237 -7.02798,0 -11.37853,-4.64673 -11.37853,-8.95244 0,-2.33201 1.65034,-7.44507 6.5543,-7.44507 3.46714,0 6.08136,2.54992 6.08136,5.93143 0,0.54019 -0.0808,1.13477 -0.21314,1.7367 4.27338,-1.52319 6.36138,-4.23406 6.36138,-8.24433 0,-3.9059 -1.60697,-6.75016 -5.3725,-9.51064 l -0.5435,-0.39835 0.0915,-0.66733 c 0.05,-0.36233 0.10252,-0.8904 0.10252,-1.50482 0,-1.40633 -0.27524,-3.26539 -1.48607,-4.63056 -0.77832,-0.87717 -1.88001,-1.43058 -3.26429,-1.68157 0.95286,1.95644 1.28616,3.54578 1.28616,4.80107 0,1.81239 -0.6824,2.93614 -1.14983,3.49286 l -0.31786,0.37813 -0.49279,0.0239 c -6.27685,0.30647 -10.50283,3.43369 -11.30613,8.36559 l -0.30868,1.8947 c 0,0 -4.13888,-3.26429 -4.58794,-3.61816 -0.54937,0.89811 -0.72392,2.01744 -0.72392,3.04747 0,0.94001 0.1378,1.801 0.24767,2.33825 l 0.46597,2.27431 c 0,0 -3.53953,-1.76499 -4.7794,-2.38345 -0.0129,0.25429 -0.0599,0.52145 -0.0599,0.76986 0,2.96296 0.91098,5.51802 2.61864,7.21503 l 0.9716,0.96572 -1.13256,0.77097 c -1.30086,0.88488 -2.14275,2.22102 -2.42938,3.69901 5.18435,-0.21571 9.13582,1.31997 12.94728,2.83802 3.83498,1.52759 7.80078,3.10664 13.33129,3.10664 5.4956,0 9.74179,-1.72457 12.98146,-5.27255 4.12712,-4.51958 5.96817,-9.20784 5.96817,-15.201 0,-2.85603 -0.84225,-9.01052 -6.48154,-18.13531 l -9.57385,-15.46265 c -2.15929,-3.51197 -2.92842,-8.01024 -2.92842,-11.0489 0,-1.16784 0.15655,-2.20081 0.30832,-3.19998 0.13082,-0.861 0.25429,-1.67459 0.25429,-2.47128 0,-1.32916 -0.30207,-3.64058 -2.32428,-4.18812 l -0.84299,-0.22857 c 0,0 0.008,-0.91648 0.008,-0.94 0,-1.03041 -0.20946,-4.04849 -2.61827,-4.28588 l -1.166,-0.11428 0.15618,-1.16122 c 0.0845,-0.62912 0.21166,-1.80946 0.21166,-3.2088 0,-2.11079 -0.29361,-4.71729 -1.453,-6.68807 z"
       id="path6035"
       style="fill:#fbbc09;fill-opacity:1;fill-rule:nonzero;stroke:none" /><path
       d="m 312.88796,471.46464 c -1.22223,5.07594 -5.06713,6.94934 -5.06713,6.94934 0.86136,2.32942 -1.04804,3.78059 -1.36223,3.9996 3.46934,2.86852 5.68007,7.2051 5.68007,12.05836 0,3.04123 -0.87128,5.87777 -2.37353,8.27923 3.41717,1.83591 6.50396,5.82707 6.50396,11.15877 0,7.10552 -5.83772,10.07435 -9.20637,10.80343 l -0.31309,0.0753 c 0.19035,0.66624 0.29949,1.37767 0.29949,2.13687 l 0,5.45151 c 0,1.46623 -0.67542,3.05335 -1.76388,4.14145 -1.91161,1.91161 -5.51949,3.16066 -9.89099,3.48147 l 0,-9.59663 c -10.92028,-4.28955 -13.45549,-11.05699 -13.608,-16.09839 l 8.14511,2.30922 c -1.13991,-3.23269 -1.22847,-6.97286 -1.03114,-8.47583 -4.79409,-2.67155 -8.03817,-7.78902 -8.03817,-13.66643 0,-4.85326 2.21074,-9.18984 5.68008,-12.05836 -0.31419,-0.21901 -2.22287,-1.67018 -1.35342,-3.9996 0,0 -3.85372,-1.8734 -5.07594,-6.94934 0,0 -7.32417,-1.7841 -7.98415,-5.44159 l 24.32691,-9.4919 0.0893,0 24.32727,9.4919 c -0.65998,3.65749 -7.98414,5.44159 -7.98414,5.44159 z"
       id="path6037"
       style="fill:#1c4189;fill-opacity:1;fill-rule:nonzero;stroke:none" /><path
       d="m 304.24382,481.50959 c -3.65749,-2.43526 -7.69899,-2.53338 -7.69899,-2.53338 l -0.0893,0 c 0,0 -4.04114,0.0981 -7.69863,2.53338 0,0 -1.59668,-1.12411 -1.13292,-2.53338 0,0 5.54007,-1.87339 8.83155,-4.31784 l 0.0893,0 c 3.29185,2.44445 8.83192,4.31784 8.83192,4.31784 0.47257,1.40927 -1.13293,2.53338 -1.13293,2.53338 z"
       id="path6039"
       style="fill:#c8c7c7;fill-opacity:1;fill-rule:nonzero;stroke:none" /><path
       d="m 306.02791,476.81729 c -4.31784,-0.9367 -9.48308,-5.06713 -9.48308,-5.06713 l -0.0893,0 c 0,0 -5.16488,4.13043 -9.48272,5.06713 0,0 -3.85372,-2.24822 -4.603,-6.01264 0,0 8.07307,-4.50526 14.08572,-4.50526 l 0.0893,0 c 6.01301,0 14.08609,4.50526 14.08609,4.50526 -0.74929,3.76442 -4.60301,6.01264 -4.60301,6.01264 z"
       id="path6041"
       style="fill:#c8c7c7;fill-opacity:1;fill-rule:nonzero;stroke:none" /><path
       d="m 309.03424,467.52162 c -6.34337,-3.12502 -12.0036,-3.61449 -12.53387,-3.65455 -0.53027,0.0401 -6.1905,0.52953 -12.53387,3.65455 0,0 -4.04113,1.22222 -7.04745,-0.37446 l 19.53649,-7.88603 0.0893,0 19.53686,7.88603 c -3.00632,1.59668 -7.04745,0.37446 -7.04745,0.37446 z"
       id="path6043"
       style="fill:#c8c7c7;fill-opacity:1;fill-rule:nonzero;stroke:none" /><path
       d="m 309.88163,495.69379 c -8.17156,0.56188 -13.3368,5.25417 -13.3368,5.25417 l -0.0893,0 c 0,0 -5.16488,-4.69229 -13.33644,-5.25417 0,0 -0.37482,-3.38114 0.56187,-5.16524 0,0 5.45077,1.22223 12.77457,-2.24822 l 0.0893,0 c 7.33299,3.47045 12.77494,2.24822 12.77494,2.24822 0.93669,1.7841 0.56186,5.16524 0.56186,5.16524 z"
       id="path6045"
       style="fill:#c8c7c7;fill-opacity:1;fill-rule:nonzero;stroke:none" /><path
       d="m 296.54483,484.80144 -0.0893,0 c -3.85372,3.65749 -11.0794,3.38078 -11.0794,3.38078 0,0 2.34596,-5.45041 11.0794,-7.04746 l 0.0893,0 c 8.7338,1.59705 11.08896,7.04746 11.08896,7.04746 0,0 -7.23487,0.27671 -11.08896,-3.38078 z"
       id="path6047"
       style="fill:#c8c7c7;fill-opacity:1;fill-rule:nonzero;stroke:none" /><path
       d="m 296.64295,503.86535 c 0,0 6.00382,-5.16524 12.5787,-5.45077 0,0 -2.62268,8.54603 -12.67682,8.54603 l -0.0893,0 c -10.04459,0 -12.67645,-8.54603 -12.67645,-8.54603 6.57487,0.28553 12.57833,5.45077 12.57833,5.45077 l 0.28553,0 z"
       id="path6049"
       style="fill:#c8c7c7;fill-opacity:1;fill-rule:nonzero;stroke:none" /><path
       d="m 303.93698,535.1699 c -1.28911,1.2891 -3.68285,2.23793 -6.63588,2.69764 l 0,-8.78819 c -8.82787,-3.12722 -12.2917,-7.75925 -13.2894,-12.16125 l 17.28349,4.89993 c 3.34734,0.94919 3.84711,3.60751 3.84711,5.10754 l 0,5.45151 c 0,0.96426 -0.47294,2.06044 -1.20532,2.79282 z"
       id="path6051"
       style="fill:#ffffff;fill-opacity:1;fill-rule:nonzero;stroke:none" /><path
       d="m 297.76632,528.44692 c -6.80933,-2.36838 -11.07976,-5.91857 -12.65219,-10.43301 l 15.97601,4.52915 c 2.72631,0.77353 3.29847,2.81008 3.29847,4.38251 l 0,5.10461 c -1.04621,-1.46733 -3.76185,-2.58813 -6.62229,-3.58326 z"
       id="path6053"
       style="fill:#e31b22;fill-opacity:1;fill-rule:nonzero;stroke:none" /><path
       d="m 298.05479,536.9753 0,-7.62843 c 2.0259,0.71584 5.63965,2.1016 6.00787,3.7082 0.065,0.28443 0.0213,0.57363 -0.12568,0.87129 -0.1492,0.26201 -0.32852,0.50601 -0.53284,0.71069 -1.06017,1.05981 -2.96443,1.87082 -5.34935,2.33825 z"
       id="path6055"
       style="fill:#e31b22;fill-opacity:1;fill-rule:nonzero;stroke:none" /><path
       d="m 306.1852,523.0454 0.45015,-0.10841 c 0.83307,-0.18116 7.7622,-1.88662 7.80482,-8.96237 -5.27291,-0.54534 -8.21051,-2.86852 -10.40985,-6.27245 -1.95534,1.11492 -4.18004,1.80946 -6.55467,1.95975 1.62682,5.70654 4.3465,9.88657 8.70955,13.38348 z"
       id="path6057"
       style="fill:#c8c7c7;fill-opacity:1;fill-rule:nonzero;stroke:none" /><path
       d="m 290.64096,509.66119 c 0,1.6665 0.25172,4.24177 1.04474,6.43817 0.0125,0.0316 0.2124,0.53909 0.44905,1.13955 l 8.06683,2.28717 c -2.08652,-2.78804 -3.57664,-6.00419 -4.61843,-9.85975 -1.72383,-0.10252 -3.37012,-0.49131 -4.89258,-1.12043 -0.0308,0.2914 -0.0496,0.66807 -0.0496,1.11529 z"
       id="path6059"
       style="fill:#c8c7c7;fill-opacity:1;fill-rule:nonzero;stroke:none" /><path
       d="m 305.55791,506.70888 c 1.92264,2.99714 4.34467,4.89331 8.74777,5.41293 -0.59825,-3.87394 -3.07798,-6.51719 -5.41953,-7.76992 l -0.56298,-0.29103 c -0.80698,0.99402 -1.73596,1.88478 -2.76526,2.64802 z"
       id="path6061"
       style="fill:#c8c7c7;fill-opacity:1;fill-rule:nonzero;stroke:none" /></g></svg>