<?xml version="1.0" encoding="UTF-8" standalone="no"?>
<!-- Created with Inkscape (http://www.inkscape.org/) -->

<svg
   xmlns:dc="http://purl.org/dc/elements/1.1/"
   xmlns:cc="http://creativecommons.org/ns#"
   xmlns:rdf="http://www.w3.org/1999/02/22-rdf-syntax-ns#"
   xmlns:svg="http://www.w3.org/2000/svg"
   xmlns="http://www.w3.org/2000/svg"
   version="1.1"
   width="249.86926"
   height="300"
   id="svg5655"
   xml:space="preserve"><metadata
     id="metadata5661"><rdf:RDF><cc:Work
         rdf:about=""><dc:format>image/svg+xml</dc:format><dc:type
           rdf:resource="http://purl.org/dc/dcmitype/StillImage" /><dc:title></dc:title></cc:Work></rdf:RDF></metadata><defs
     id="defs5659" /><g
     transform="matrix(1.25,0,0,-1.25,-242.9774,684.86206)"
     id="g5663"><g
       transform="matrix(0.45964285,0,0,0.45964285,159.04312,231.21323)"
       id="g5761"><path
         d="m 294.26172,166.81738 0,0 c -31.53613,14.75977 -64.65625,32.04102 -98.13574,51.55274 -36.07227,21.02343 -69.40821,42.76758 -98.92871,64.22363 -4.82325,40.31934 -8.92774,83.30371 -12.31153,128.0166 -6.83984,91.8711 -9.14453,176.83154 -7.48828,244.94336 48.67188,20.23193 127.87207,33.4082 216.86426,33.4082 l 0,0 c 89.13574,0 168.26367,-13.17627 217.00781,-33.4082 1.65625,-68.11182 -0.71973,-153.07226 -7.55957,-244.94336 -3.3125,-44.71289 -7.48828,-87.69726 -12.24023,-128.0166 -29.52051,-21.45605 -62.92774,-43.2002 -98.92774,-64.22363 -33.48047,-19.51172 -66.67285,-36.79297 -98.28027,-51.55274 z"
         id="path5665"
         style="fill:#231f20;fill-opacity:1;fill-rule:nonzero;stroke:none" /><path
         d="m 110.7334,332.84961 c -2.95215,29.16016 -5.32813,57.16797 -7.41602,86.39941 -3.16797,0.93653 -4.82422,3.67286 -4.82422,4.82471 0,1.15186 2.37598,3.52783 4.46485,4.60791 -2.37598,34.12793 -4.46485,67.39209 -5.61621,101.5918 45.35937,19.29638 117.07129,33.48047 197.13574,33.48047 80.13574,0 151.41601,-14.18409 196.77637,-33.48047 -0.93653,-27.43164 -2.23243,-54.86377 -3.95996,-82.2959 1.72753,-1.00781 3.02343,-2.44775 3.5996,-4.31983 1.44043,-4.24804 -0.64843,-9.93603 -4.89648,-14.61621 -2.08789,-31.17529 -4.75195,-62.35205 -7.84766,-93.45556 -12.67187,5.25586 -16.63183,7.27246 -37.08007,13.17578 0.0723,-6.4082 0.86425,-11.73535 0.0723,-12.45606 -6.33594,-5.90429 -15.98437,-5.97656 -19.22363,-6.1914 -1.00879,-3.3125 0,-4.17676 5.54394,-10.72852 3.09571,-3.67187 2.66407,-10.36816 1.58399,-14.97656 -0.86426,-3.81543 -1.87207,-5.54297 -2.66406,-4.03125 -1.08008,2.01562 3.23925,2.37598 1.72754,4.96777 -0.57618,0.93653 -4.24805,1.36817 -4.75196,1.65625 -3.16797,1.44043 4.67969,0.86426 3.38379,3.81543 -0.86328,1.94434 -3.31152,-3.16797 -4.31933,-0.21582 -0.93653,2.73633 -3.24024,5.25684 -11.01661,5.32813 -1.94336,0 -7.55957,0.71972 -12.95996,-2.44824 3.81641,0.14453 12.3125,1.44043 17.64063,-3.67188 5.25586,-5.18359 6.55176,-16.48828 6.62402,-17.35156 0.43164,-5.25586 3.31152,-19.51172 0.35938,-33.26367 -5.75977,-3.60059 -11.44825,-7.20118 -17.20801,-10.72852 -7.7041,-4.67969 -15.55176,-9.36035 -23.32813,-13.89648 -1.36718,1.80078 -2.95215,3.67187 -5.11132,5.32812 -5.54395,4.10449 11.59179,1.29688 11.37597,3.96094 -0.7207,8.06348 -17.13672,18.93555 -27.64844,23.32715 -6.04785,5.47168 22.17579,-3.67188 30.16797,3.45605 3.52832,3.16797 -1.00781,20.66406 -9.71972,29.66406 -1.2959,1.36817 -2.30371,4.60743 -0.71973,6.69629 2.73535,3.67188 7.55957,2.44825 9.86328,5.61621 1.72852,2.30372 -1.43945,2.5918 4.96875,6.83985 -1.08008,1.87109 -3.02441,-1.29688 -5.76074,-1.29688 -3.81543,0.14453 -12.02344,-5.11133 -13.31934,-6.9834 -0.5039,4.24805 0.792,6.83985 7.7041,11.0879 1.2959,0.71972 2.44727,2.73632 2.37598,4.60839 -0.0723,0.79102 -1.15234,0.21582 -1.29687,0.93555 -0.28711,1.58398 5.04004,3.59961 4.03222,5.11231 -1.36816,2.15917 -9.71972,-4.32032 -10.08008,-3.52833 -0.71972,1.65625 9.14454,7.2002 13.53614,14.25586 1.36816,2.08789 1.15234,3.67188 0.64843,4.53614 -1.58398,2.95215 -14.04003,-10.22364 -14.83203,-9.36035 -1.7998,2.23242 21.16797,22.0332 19.65528,23.76074 -1.58399,1.87207 -13.31934,-11.87989 -13.89551,-11.16016 -0.50391,0.64746 1.44043,2.16016 -0.0723,3.38379 -0.64746,0.57617 -1.7998,-2.08789 -2.66406,-1.51172 -1.72754,1.08008 3.81641,7.99219 3.02442,8.71192 -3.3125,3.02441 -11.01563,-20.37598 -12.67188,-19.22364 -1.44043,1.00782 9.35938,22.3916 11.01563,24.9834 0.5039,0.79199 -2.16016,2.59277 -2.73633,0.86426 -2.01563,-5.83203 -9.64746,-20.80859 -10.43946,-22.03223 -1.29589,-2.01562 -2.80761,-15.83984 -4.10449,-14.54394 -1.51172,1.65625 3.45606,16.27148 3.60059,20.08789 0.0723,2.88086 1.22363,5.04004 -0.64844,5.25586 -2.16016,0.21679 -0.21582,6.48047 0.36035,8.35254 1.08008,3.88769 1.36817,10.0791 0.93555,11.73535 -0.93555,3.02441 3.16797,3.45703 2.30469,5.25586 -0.86426,1.80078 -4.82422,5.83203 -4.39258,3.3125 0.79199,-5.11133 -2.73535,-5.9043 -4.46387,-10.08008 -1.08008,-2.66406 -2.30371,-7.05566 -2.66406,-14.47168 -2.51953,1.65527 -2.01563,10.87207 -0.79199,16.4873 1.00781,4.53711 3.45605,12.67188 2.37597,13.03321 -2.95215,0.86328 -2.23144,-3.24024 -4.96777,-4.75196 -1.44043,-0.79296 -0.93555,2.44727 -1.94434,2.80664 -1.22363,0.43262 -0.79199,-2.30273 -1.72754,-1.65527 -1.08007,0.79199 -2.44824,2.23145 -2.59179,-4.6084 0,-1.22363 -3.02442,-1.51172 -4.82422,-15.91211 -0.21582,-1.43945 -1.65625,0.43262 -2.73633,-9.28711 -0.14355,-1.08007 -3.52734,-0.7207 -4.89551,-9.57617 -0.14453,-0.79297 -1.94433,-2.08789 -2.30468,-4.75195 -0.5752,-4.89649 -2.37598,-7.84766 -3.52735,-8.13672 -1.51269,14.11231 12.31152,48.24023 10.87207,64.15234 -0.57617,0.28809 -0.7207,-0.43164 -1.58398,0 -3.45606,-11.01562 -7.77637,-17.208 -11.08789,-28.72851 -5.47266,-10.29492 -12.67285,-26.63965 -16.99219,-38.30274 1.36816,9.71875 4.89551,18.5752 11.01562,30.09571 4.96778,9.35937 10.08008,22.53515 14.61622,34.19922 -7.84766,-4.39161 -31.53614,-34.48829 -35.85645,-41.54297 -4.10352,-6.625 -5.11133,-12.45703 -6.76758,-23.32813 -0.36035,3.59961 -0.43164,10.43946 2.01563,19.79883 3.74414,14.40039 11.30468,18.93652 11.95215,24.12109 0.36035,2.5918 -1.51172,3.81543 4.60839,7.27149 -5.04004,0.5039 -2.5205,4.32031 0.64746,5.1123 -4.60742,3.74317 2.95215,7.63184 3.88868,8.06348 -5.83203,0.36035 -16.56055,-3.38379 -17.20801,-1.87109 -2.44824,5.61523 -0.50391,6.40722 -0.79199,10.00781 -0.28809,3.52734 -2.59278,7.99219 -0.86426,10.36719 3.0957,4.32031 15.26367,9.14453 20.16015,13.17627 0.14356,1.0083 -4.75195,-2.5918 -4.96875,-0.93604 -0.2871,2.37598 -2.44726,-1.22363 -4.3916,-0.57568 -5.54394,1.7998 -5.61621,6.26367 -6.83984,7.91992 -1.2959,1.7998 -4.24805,3.74365 -2.80762,5.32764 0.71973,0.79248 4.53516,-1.65577 4.75196,0.36035 0.71972,7.05566 -3.88868,6.19189 -3.81641,6.98388 0.50391,4.75196 6.69629,0.35987 6.12012,2.16016 -1.15235,3.6001 -6.40821,0.64795 -5.97657,5.25586 0.2168,2.95215 -2.44726,8.06396 -3.16796,7.99219 1.08007,10.36767 0.79199,17.92773 0.28808,26.71191 -0.21582,3.02393 1.58399,2.5918 2.95215,0.86377 1.94434,-2.37598 4.96777,1.0083 2.66406,-4.24805 -0.71972,-1.65576 4.53613,-9.43164 5.97656,-10.7998 0.5752,-0.50391 3.09571,0.21582 1.94336,2.01611 -1.43945,2.37598 1.08008,0.43213 4.03223,3.31201 2.5918,2.44776 1.2959,4.82373 3.0957,2.87989 0.86426,-1.00782 1.72852,-2.16016 2.01661,-1.00782 0.64746,2.66358 1.51171,0.792 1.7998,1.94385 0.21582,0.79199 -0.43262,2.37598 -2.73633,4.10401 -1.65625,1.22412 -2.73535,3.31201 -0.35937,3.67187 9.28711,1.36816 12.45507,-5.68799 15.04785,-23.75976 0.64746,13.75195 7.7041,14.3999 4.17578,-2.3042 28.43945,10.87207 34.20019,27.28808 2.23144,38.23193 0.64844,10.43994 1.29688,22.82422 -8.27929,33.62402 -5.97656,6.83985 -11.16016,9.50391 -14.61621,17.85596 -2.66407,-2.37598 -3.95996,-5.90381 -7.7041,-4.82373 -2.37598,0.71973 -8.28028,7.12793 -9.07227,8.49609 -3.67188,-1.0083 -6.91211,-1.72851 -12.8877,-8.42431 -9.93554,8.42431 -10.29589,3.31201 -12.95996,-2.87989 -26.06445,3.6001 -32.25586,-41.83203 -33.12011,-46.36816 -40.60743,-15.40771 -8.85547,-34.48779 3.52832,-36.21582 10.00781,-1.43994 1.08007,-10.08008 10.7998,-13.17627 4.6084,-1.51172 3.38379,-8.56787 2.95215,-17.49561 -0.64844,-14.97607 0.64746,-30.67236 -7.56055,-29.30419 -8.06347,1.36816 -8.71191,-5.75977 -18.21582,-10.58399 -5.75976,-2.95215 -22.31933,-7.7041 -30.24023,-12.16797 -1.43945,-0.79199 -1.22363,2.87989 -2.80762,2.01563 -1.58398,-0.86328 -0.86426,-2.5918 -3.38379,-4.10352 -3.02441,-1.87207 -6.62402,-4.89648 -9.86426,-9.2168 -6.33593,-8.49511 -13.10351,-13.82324 -23.61621,-13.53515 -2.08789,0 -11.37597,0.21582 -12.95996,5.61523 -0.57617,1.80078 -0.5039,4.89649 3.02442,5.11328 2.51953,0.0713 5.54394,-4.24804 5.90429,-3.02539 0.5752,1.94532 0.5752,4.39258 -2.88086,4.39258 -1.0791,0 -3.23925,0.0723 -3.38379,0.36035 -0.64746,2.08789 0.0723,2.73535 0.93653,2.80762 1.22363,0.14453 -1.5127,3.52832 0.79199,3.52832 2.30371,-0.0723 8.2793,-4.68066 8.63965,-3.88769 1.00781,2.44726 -0.93555,4.82421 -5.25586,7.70312 -0.21582,-1.72754 -1.08008,-2.30371 -4.03223,-0.50391 -1.43945,0.93653 -4.8955,1.22461 -3.95996,5.54493 0.36035,1.94336 0.57617,4.53515 1.79981,3.16796 1.08007,-1.44042 3.09668,-2.44921 4.89648,-0.79296 1.58399,1.36816 2.51953,0.64843 3.45606,-0.57618 4.60742,-5.83203 2.80761,6.83985 2.01562,10.15235 -1.00781,4.39258 -1.72754,-0.93555 -3.59961,-1.51172 -1.15234,-0.43164 -1.58398,-2.44824 -1.51269,-4.03223 0.21679,-3.81543 -2.30371,-1.87207 -2.95118,-1.22363 -1.58398,1.51172 -2.59277,2.66406 -4.17675,2.37598 -2.15918,-0.43262 -0.5752,-3.24024 -2.73536,-2.73633 -0.57617,4.96777 0.43165,10.08008 1.15137,13.46387 0.28809,1.36816 1.72852,8.71289 3.3125,8.85644 1.87207,0.21582 1.00781,-4.03223 6.62403,-8.4248 4.17578,-3.23926 11.23144,-1.43946 14.25585,-0.35938 3.81641,1.36817 0.57618,3.24024 4.24805,3.38379 3.0957,0.14355 1.08008,2.30371 -0.64844,3.67285 -1.22363,1.00781 -1.29589,3.81543 1.00879,2.80664 2.01563,-1.00781 4.3916,-2.95117 3.74317,-1.51172 -1.0791,2.5918 4.17676,2.30469 7.41601,0.79297 5.25684,-2.52051 3.02442,-18 5.9043,-17.64062 1.51172,0.21679 1.15234,8.35156 2.95215,10.22461 4.32031,4.46289 7.41601,1.29492 8.85644,4.46289 1.22364,2.73633 1.22364,-1.8711 9.5752,-1.22364 18.2168,1.58399 22.10449,5.68848 6.55273,8.63965 0,2.30469 -5.18457,6.55274 -8.49609,6.55274 0.21582,3.31201 0.21582,7.05566 0.35937,11.30371 0.93653,19.08008 -6.62402,33.19238 -17.56738,38.37597 -7.91992,3.81641 -7.77637,13.68018 -12.74414,8.42432 -3.74414,-3.95996 -6.48047,-1.87207 -9.50391,1.22363 -7.12792,7.27198 -9.7207,1.43995 -12.60058,-0.86377 -4.53613,-3.60009 -6.12012,0.43213 -7.27149,0.64795 -7.34375,1.2959 -5.32812,-3.88818 -7.84863,-5.11181 -29.73535,-15.04834 -21.67187,-43.77637 -23.6875,-45.93604 -6.26367,-6.4082 -16.41601,-6.04834 -17.49609,-7.84814 -2.37598,-3.95996 17.56836,-4.68067 25.63183,-8.78418 2.30371,-1.15235 -0.57617,-27.43164 1.15235,-37.00781 4.03222,-22.46387 15.91211,-20.8086 13.75195,-26.4961 -1.44043,-3.67187 -10.00781,-11.23242 -16.48828,-15.62402 -5.39941,-3.60059 -11.16016,-1.44043 -21.95996,-3.16797 z"
         id="path5667"
         style="fill:#605161;fill-opacity:1;fill-rule:nonzero;stroke:none" /><path
         d="m 339.26172,457.55371 c 0.93555,-9.93603 -1.22461,-18.14404 -5.61621,-24.47998 0.43164,-8.92822 1.08008,-17.78369 0.36035,-27.2876 1.65527,-3.52832 6.76758,-3.02441 8.13574,-5.97656 0.43164,-1.08008 3.38379,1.2959 4.24805,-0.86328 1.2959,-3.24024 4.89551,-4.89649 6.91211,-5.47266 3.59961,-1.08008 5.25586,-3.24023 6.91211,-2.51953 1.72754,0.71973 3.81543,0.28711 4.03125,-0.64844 1.00879,-1.15234 3.52832,-2.95214 3.74414,-4.24804 0.79199,-5.11133 -2.73535,-5.9043 -4.46387,-10.08008 -1.08008,-2.66406 -2.30371,-7.05566 -2.66406,-14.47168 -2.51953,1.65527 -2.01563,10.87207 -0.79199,16.4873 1.00781,4.53711 3.45605,12.67188 2.37597,13.03321 -2.95215,0.86328 -2.23144,-3.24024 -4.96777,-4.75196 -1.44043,-0.79296 -0.93555,2.44727 -1.94434,2.80664 -1.22363,0.43262 -0.79199,-2.30273 -1.72754,-1.65527 -1.08007,0.79199 -2.44824,2.23145 -2.59179,-4.6084 0,-1.22363 -3.02442,-1.51172 -4.82422,-15.91211 -0.21582,-1.43945 -1.65625,0.43262 -2.73633,-9.28711 -0.14355,-1.08007 -3.52734,-0.7207 -4.89551,-9.57617 -0.14453,-0.79297 -1.94433,-2.08789 -2.30468,-4.75195 -0.5752,-4.89649 -2.37598,-7.84766 -3.52735,-8.13672 -1.51269,14.11231 12.31152,48.24023 10.87207,64.15234 -0.57617,0.28809 -0.7207,-0.43164 -1.58398,0 -3.45606,-11.01562 -7.77637,-17.208 -11.08789,-28.72851 -5.47266,-10.29492 -12.67285,-26.63965 -16.99219,-38.30274 1.36816,9.71875 4.89551,18.5752 11.01562,30.09571 4.96778,9.35937 10.08008,22.53515 14.61622,34.19922 -7.84766,-4.39161 -31.53614,-34.48829 -35.85645,-41.54297 -4.10352,-6.625 -5.11133,-12.45703 -6.76758,-23.32813 -0.36035,3.59961 -0.43164,10.43946 2.01563,19.79883 3.74414,14.40039 11.30468,18.93652 11.95215,24.12109 0.36035,2.5918 -1.51172,3.81543 4.60839,7.27149 -5.04004,0.5039 -2.5205,4.32031 0.64746,5.1123 -4.60742,3.74317 2.95215,7.63184 3.88868,8.06348 -5.83203,0.36035 -16.56055,-3.38379 -17.20801,-1.87109 -2.44824,5.61523 -0.50391,6.40722 -0.79199,10.00781 -0.28809,3.52734 -2.59278,7.99219 -0.86426,10.36719 3.0957,4.32031 15.26367,9.14453 20.16015,13.17627 0.14356,1.0083 -4.75195,-2.5918 -4.96875,-0.93604 -0.2871,2.37598 -2.44726,-1.22363 -4.3916,-0.57568 -5.54394,1.7998 -5.61621,6.26367 -6.83984,7.91992 -1.2959,1.7998 -4.24805,3.74365 -2.80762,5.32764 0.71973,0.79248 4.53516,-1.65577 4.75196,0.36035 0.71972,7.05566 -3.88868,6.19189 -3.81641,6.98388 0.50391,4.75196 6.69629,0.35987 6.12012,2.16016 -1.15235,3.6001 -6.40821,0.64795 -5.97657,5.25586 0.2168,2.95215 -2.44726,8.06396 -3.16796,7.99219 1.08007,10.36767 0.79199,17.92773 0.28808,26.71191 -0.21582,3.02393 1.58399,2.5918 2.95215,0.86377 1.94434,-2.37598 4.96777,1.0083 2.66406,-4.24805 -0.71972,-1.65576 4.53613,-9.43164 5.97656,-10.7998 0.5752,-0.50391 3.09571,0.21582 1.94336,2.01611 -1.43945,2.37598 1.08008,0.43213 4.03223,3.31201 2.5918,2.44776 1.2959,4.82373 3.0957,2.87989 0.86426,-1.00782 1.72852,-2.16016 2.01661,-1.00782 0.64746,2.66358 1.51171,0.792 1.7998,1.94385 0.21582,0.79199 -0.43262,2.37598 -2.73633,4.10401 -1.65625,1.22412 -2.73535,3.31201 -0.35937,3.67187 12.31152,2.59229 13.75195,-15.04785 15.04785,-23.75976 0.64746,13.75195 7.7041,14.3999 4.17578,-2.3042 0.0723,0 0.14355,0 0.21582,0.0718 -0.64746,-3.59961 2.23242,-7.84765 -2.30371,-8.13574 z"
         id="path5669"
         style="fill:#ffffff;fill-opacity:1;fill-rule:nonzero;stroke:none" /><path
         d="m 214.05371,408.80957 c 1.43945,-1.87207 1.2959,-6.83984 0.43164,-8.20801 -1.43945,-2.15918 -3.52734,-6.76855 -3.74414,-8.92773 -0.64746,-5.68848 -2.44726,-8.06348 -4.53613,-9.28809 -1.43945,-0.79199 -1.22363,2.87989 -2.80762,2.01563 -1.58398,-0.86328 -0.86426,-2.5918 -3.38379,-4.10352 -3.02441,-1.87207 -6.62402,-4.89648 -9.86426,-9.2168 -6.33593,-8.49511 -13.10351,-13.82324 -23.61621,-13.53515 -2.08789,0 -11.37597,0.21582 -12.95996,5.61523 -0.57617,1.80078 -0.5039,4.89649 3.02442,5.11328 2.51953,0.0713 5.54394,-4.24804 5.90429,-3.02539 0.5752,1.94532 0.5752,4.39258 -2.88086,4.39258 -1.0791,0 -3.23925,0.0723 -3.38379,0.36035 -0.64746,2.08789 0.0723,2.73535 0.93653,2.80762 1.22363,0.14453 -1.5127,3.52832 0.79199,3.52832 2.30371,-0.0723 8.2793,-4.68066 8.63965,-3.88769 1.00781,2.44726 -0.93555,4.82421 -5.25586,7.70312 -0.21582,-1.72754 -1.08008,-2.30371 -4.03223,-0.50391 -1.43945,0.93653 -4.8955,1.22461 -3.95996,5.54493 0.36035,1.94336 0.57617,4.53515 1.79981,3.16796 1.08007,-1.44042 3.09668,-2.44921 4.89648,-0.79296 1.58399,1.36816 2.51953,0.64843 3.45606,-0.57618 4.60742,-5.83203 2.80761,6.83985 2.01562,10.15235 -1.00781,4.39258 -1.72754,-0.93555 -3.59961,-1.51172 -1.15234,-0.43164 -1.58398,-2.44824 -1.51269,-4.03223 0.21679,-3.81543 -2.30371,-1.87207 -2.95118,-1.22363 -1.58398,1.51172 -2.59277,2.66406 -4.17675,2.37598 -2.15918,-0.43262 -0.5752,-3.24024 -2.73536,-2.73633 -0.57617,4.96777 0.43165,10.08008 1.15137,13.46387 0.28809,1.36816 1.72852,8.71289 3.3125,8.85644 1.87207,0.21582 1.00781,-4.03223 6.62403,-8.4248 4.17578,-3.23926 11.23144,-1.43946 14.25585,-0.35938 3.81641,1.36817 0.57618,3.24024 4.24805,3.38379 3.0957,0.14355 1.08008,2.30371 -0.64844,3.67285 -1.22363,1.00781 -1.29589,3.81543 1.00879,2.80664 2.01563,-1.00781 4.3916,-2.95117 3.74317,-1.51172 -1.0791,2.5918 4.17676,2.30469 7.41601,0.79297 5.25684,-2.52051 3.02442,-18 5.9043,-17.64062 1.51172,0.21679 1.15234,8.35156 2.95215,10.22461 4.32031,4.46289 7.41601,1.29492 8.85644,4.46289 0.86328,2.0166 1.15137,0 4.67969,-0.93555 z"
         id="path5671"
         style="fill:#ffffff;fill-opacity:1;fill-rule:nonzero;stroke:#ffffff;stroke-width:0.21599001;stroke-linecap:butt;stroke-linejoin:miter;stroke-miterlimit:4;stroke-opacity:1;stroke-dasharray:none" /><path
         d="m 96.69336,551.29785 c -0.79199,30.31201 -1.15137,60.6958 -0.57617,91.08008 5.61621,2.01562 11.30469,3.81592 17.06445,5.54395 44.28027,12.52783 90,18.28808 135.93555,20.80761 l 0,19.08008 c 14.68847,0.79199 29.80859,1.15234 45.14453,1.15234 l 0,0 c 15.4082,0 30.52734,-0.36035 45.28808,-1.15234 l 0,-19.08008 c 3.45606,-0.14355 6.83985,-0.35986 10.2959,-0.57568 21.8877,-1.51221 43.41602,-3.81592 65.08789,-7.05615 26.20801,-4.31983 52.48829,-9.792 77.61621,-18.71973 0.50391,-28.22412 0.21583,-56.44824 -0.43261,-84.6001 -0.0713,-2.16015 -0.14356,-4.32031 -0.21582,-6.47998 -46.79981,18.07178 -118.08008,30.16797 -197.63965,30.16797 -79.48828,0 -150.69629,-12.09619 -197.56836,-30.16797 z"
         id="path5673"
         style="fill:#f4a428;fill-opacity:1;fill-rule:nonzero;stroke:none" /><path
         d="m 368.78125,386.63379 c 0.79199,-0.2168 2.30469,-0.2168 3.67188,-1.80078 1.72851,-1.94336 10.44042,-4.39063 11.95214,-3.59961 1.08008,0.57617 2.08789,0.7207 2.37598,0.57617 2.08789,-0.79199 33.33594,53.13623 47.44824,62.06397 14.11231,9 25.77637,-13.67969 23.25586,-26.13624 -0.28808,-7.91992 1.94434,-8.92773 1.79981,-14.90429 -0.21582,-8.35156 -4.39161,-12.52735 -5.11133,-20.73535 -0.57617,-6.33594 -0.93653,-10.2959 -1.87207,-12.74414 -2.08789,-5.75977 -5.9043,-3.38379 -8.13574,-5.32715 -2.23243,-1.72852 -0.57618,-10.15235 -3.09668,-15.1211 0.0723,-6.4082 0.86425,-11.8789 0.0723,-12.59961 -6.33594,-5.90429 -15.98437,-5.97656 -19.22363,-6.1914 -1.00879,-3.3125 0,-4.17676 5.54394,-10.72852 3.09571,-3.67187 2.66407,-10.36816 1.58399,-14.97656 -0.86426,-3.81543 -1.87207,-5.54297 -2.66406,-4.03125 -1.08008,2.01562 3.23925,2.37598 1.72754,4.96777 -0.57618,0.93653 -4.24805,1.36817 -4.75196,1.65625 -3.16797,1.44043 4.67969,0.86426 3.38379,3.81543 -0.86328,1.94434 -3.31152,-3.16797 -4.31933,-0.21582 -0.93653,2.73633 -3.24024,5.25684 -11.01661,5.32813 -1.94336,0 -7.55957,0.71972 -12.95996,-2.44824 3.81641,0.14453 12.3125,1.44043 17.64063,-3.67188 5.25586,-5.18359 6.55176,-16.48828 6.62402,-17.35156 0.5752,-6.55274 4.82324,-26.78418 -2.95215,-42.98438 -1.58398,-3.3125 -24.04785,-16.99218 -29.80859,-21.3125 -3.95996,-2.95117 -4.96777,6.04883 -12.52734,11.73633 -5.54395,4.10449 11.59179,1.29688 11.37597,3.96094 -0.7207,8.06348 -17.13672,18.93555 -27.64844,23.32715 -6.04785,5.47168 22.17579,-3.67188 30.16797,3.45605 3.52832,3.16797 -1.00781,20.66406 -9.71972,29.66406 -1.2959,1.36817 -2.30371,4.60743 -0.71973,6.69629 2.73535,3.67188 7.55957,2.44825 9.86328,5.61621 1.72852,2.30372 -1.43945,2.5918 4.96875,6.83985 -1.08008,1.87109 -3.02441,-1.29688 -5.76074,-1.29688 -3.81543,0.14453 -12.02344,-5.11133 -13.31934,-6.9834 -0.5039,4.24805 0.792,6.83985 7.7041,11.0879 1.2959,0.71972 2.44727,2.73632 2.37598,4.60839 -0.0723,0.79102 -1.15234,0.21582 -1.29687,0.93555 -0.28711,1.58398 5.04004,3.59961 4.03222,5.11231 -1.36816,2.15917 -9.71972,-4.32032 -10.08008,-3.52833 -0.71972,1.65625 9.14454,7.2002 13.53614,14.25586 1.36816,2.08789 1.15234,3.67188 0.64843,4.53614 -1.58398,2.95215 -14.04003,-10.22364 -14.83203,-9.36035 -1.7998,2.23242 21.16797,22.0332 19.65528,23.76074 -1.58399,1.87207 -13.31934,-11.87989 -13.89551,-11.16016 -0.50391,0.64746 1.44043,2.16016 -0.0723,3.38379 -0.64746,0.57617 -1.7998,-2.08789 -2.66406,-1.51172 -1.72754,1.08008 3.81641,7.99219 3.02442,8.71192 -3.3125,3.02441 -11.01563,-20.37598 -12.67188,-19.22364 -1.44043,1.00782 9.35938,22.3916 11.01563,24.9834 0.5039,0.79199 -2.16016,2.59277 -2.73633,0.86426 -2.01563,-5.83203 -9.64746,-20.80859 -10.43946,-22.03223 -1.29589,-2.01562 -2.80761,-15.83984 -4.10449,-14.54394 -1.51172,1.65625 3.45606,16.27148 3.60059,20.08789 0.0723,2.88086 1.22363,5.04004 -0.64844,5.25586 -2.16016,0.21679 -0.21582,6.48047 0.36035,8.35254 1.08008,3.88769 1.36817,10.0791 0.93555,11.73535 -0.93555,3.02441 3.16797,3.45703 2.30469,5.25586 -0.50391,1.00879 -2.59278,2.80859 -3.60059,3.88867 z"
         id="path5675"
         style="fill:#ffffff;fill-opacity:1;fill-rule:nonzero;stroke:#ffffff;stroke-width:0.21599001;stroke-linecap:butt;stroke-linejoin:miter;stroke-miterlimit:4;stroke-opacity:1;stroke-dasharray:none" /><path
         d="m 365.54199,422.05762 c -2.0166,12.67187 -6.91211,34.41601 19.36719,53.78418 1.08008,5.32812 9.07227,10.15185 16.12793,6.55175 3.16797,4.10401 9.57617,10.58399 22.17676,2.0879 11.80761,2.30419 29.15918,-16.63184 32.54394,-32.97559 0.28809,-1.22412 0.43164,-4.896 0.21582,-6.19238 18.792,1.58398 38.87989,-6.33594 3.02344,-28.8711 -2.5918,0.0713 -2.80762,-3.3125 -8.49512,-2.37695 -2.23242,0.43164 4.60743,3.24023 0.86328,3.38477 -2.59179,0.14355 -0.35937,-2.23243 -3.31152,-2.52051 -4.75195,-0.43262 -4.82422,3.95996 -4.96777,5.54394 -0.36035,5.76026 10.72754,4.10401 10.00781,8.78418 -1.2959,8.63965 -10.15234,9.86377 -15.55176,10.00782 -7.9209,0.21582 -10.72851,-5.32813 -9.36035,-9.35987 1.36816,-4.03222 6.76758,-6.62402 8.63965,-6.62402 2.08789,-8.06397 7.12793,-15.55225 6.4082,-19.80029 -0.64844,-3.38379 4.10449,-6.4795 2.08789,-6.55176 -3.31152,-0.14356 -3.67187,-2.16016 -4.32031,-3.16797 -1.00781,-1.5127 0.0723,-2.0166 -0.50391,-3.52832 0,-0.0723 0,-0.0723 0,-0.0723 -0.71972,-1.94336 -3.23925,-1.72754 -2.66406,-3.31152 0.7207,-1.87207 3.81641,2.08789 6.19238,1.22363 1.15235,-0.43164 1.94434,-0.28711 2.44825,-0.14355 1.58398,0.5039 4.53613,-3.24024 4.8955,-4.75196 -2.44726,-0.36035 -2.66406,0.86426 -6.98339,0.93653 -3.52832,0.0713 -7.34473,-1.36914 -7.41602,-3.16797 -0.14453,-1.72852 1.58398,-2.59277 2.23145,-2.80859 1.44043,-0.50391 8.28027,0.64843 8.06445,-0.43165 -1.08008,-3.96093 -9.07227,-2.16015 -10.87207,-3.02441 -2.0166,-0.93652 -2.52051,-3.16797 -1.87207,-3.60059 3.88769,-2.59179 2.95215,-5.90332 4.3916,-5.90332 1.87207,0 7.99219,0.50391 5.47266,-0.21582 -3.95996,-1.29687 -1.44043,-4.75195 -3.74414,-4.75195 -11.16016,-0.14453 -16.70411,-5.75976 -20.01661,-11.44824 -8.13574,17.92773 -23.11132,28.22363 -33.91113,33.12012 -1.65625,4.96777 -2.73633,7.56054 -5.04004,11.01562 -46.08008,1.22461 -34.41601,16.7041 -16.12793,29.16016 z"
         id="path5677"
         style="fill:#231f20;fill-opacity:1;fill-rule:nonzero;stroke:none" /><path
         d="m 363.16602,644.5376 -51.84082,1.5122 -0.35938,-15.33593 c 12.38379,-0.36035 21.23926,-0.72022 33.55176,-1.08008 1.65625,0 3.59961,3.88769 3.59961,2.23193 -0.0713,-0.79199 -0.21582,-11.44775 -0.35938,-14.04004 -0.0723,-1.5122 -2.0166,2.08789 -3.45605,2.08789 l -33.55176,1.08008 -0.36035,-17.42383 c 17.35156,-0.57617 34.77637,-1.15185 52.20019,-1.58398 2.87989,-0.0723 3.16797,3.0957 3.09571,1.7998 0,-1.29589 -0.0723,-13.104 -0.14356,-14.68798 0,-1.43995 -0.21679,1.58398 -2.52051,2.16015 -22.60839,1.00782 -48.88769,1.79981 -71.35156,2.80762 1.36719,1.29639 3.74317,2.52051 3.74317,3.81641 0.43261,18.35986 0.79199,37.29589 1.29687,55.58398 0,1.15186 -2.08887,2.73584 -3.02441,3.45606 11.66406,-0.28809 58.10351,-1.44043 69.69629,-1.72803 2.95214,-0.14405 3.16796,3.0957 3.16796,1.7998 0,-1.2959 -0.14453,-13.104 -0.14453,-14.68799 -0.0713,-1.58398 -0.28808,2.16016 -3.23925,2.23194 z"
         id="path5679"
         style="fill:#231f20;fill-opacity:1;fill-rule:nonzero;stroke:none" /><path
         d="m 280.14941,685.79395 -11.59179,-0.43213 0.57617,-16.2002 -6.19238,-0.2876 -0.57618,16.27149 -11.01562,-0.35987 -0.0723,3.02393 28.72852,1.00781 0.14355,-3.02343 z"
         id="path5681"
         style="fill:#231f20;fill-opacity:1;fill-rule:nonzero;stroke:none" /><path
         d="m 309.45313,669.52148 -6.11915,0 0,8.71192 -13.75293,0 0,-8.71192 -6.26367,0 0,19.2959 6.26367,0 0,-7.55957 13.75293,0 0,7.55957 6.11915,0 0,-19.2959 z"
         id="path5683"
         style="fill:#231f20;fill-opacity:1;fill-rule:nonzero;stroke:none" /><path
         d="m 337.75,684.78564 -16.05664,0.64795 -0.21582,-4.53613 11.51953,-0.43164 -0.14355,-2.87988 -11.51954,0.43164 -0.21679,-5.83203 15.76855,-0.64795 -0.0723,-2.95166 -22.03223,0.86377 0.79199,19.2959 22.24805,-0.93604 -0.0713,-3.02393 z"
         id="path5685"
         style="fill:#231f20;fill-opacity:1;fill-rule:nonzero;stroke:none" /><path
         d="m 477.71777,633.59375 c -10.51269,-17.92822 -18.64843,-34.12793 -28.58398,-52.41602 -0.21582,-0.43212 0.79199,-2.16015 1.15137,-3.24023 -6.55176,1.29639 -13.10352,2.52002 -19.72754,3.81641 0.79199,0.79199 2.44824,1.7998 2.37597,2.44775 l -6.19238,42.04785 c -6.69531,-12.02392 -13.89551,-24.6958 -20.51953,-36.79199 -0.50391,-0.93604 0.71973,-2.23193 1.08008,-3.52783 l -19.72852,3.09619 c 0.72071,1.00781 2.37598,1.94385 2.23242,2.80762 -2.59179,20.73632 -4.96777,37.87207 -7.63183,58.53613 -0.0723,0.93603 -1.44043,2.01611 -2.16016,2.95215 l 19.2959,-2.73584 c -0.71973,-0.86426 -2.30371,-1.72803 -2.23242,-2.44824 l 4.75195,-42.26416 c 6.91211,12.60009 13.75195,24.98437 20.59278,37.58398 0.28808,0.57617 -0.57618,2.08838 -0.86426,3.09619 l 18.93554,-3.09619 c -0.57519,-0.71973 -1.87207,-1.79981 -1.7998,-2.52002 l 6.12012,-42.83984 c 6.55175,12.88818 12.88769,25.41601 19.44043,38.37597 0.21582,0.43213 -1.22461,2.01612 -1.65625,2.73633 3.81543,-0.72021 13.96777,-2.73633 17.78418,-3.45605 -0.72071,-0.57618 -2.37598,-1.58399 -2.66407,-2.16016 z"
         id="path5687"
         style="fill:#231f20;fill-opacity:1;fill-rule:nonzero;stroke:none" /><path
         d="m 246.66992,375.18555 c 2.80762,-1.87207 5.61524,-6.76856 5.6875,-13.17578 0.21582,-12.8877 0.28809,-15.12012 -0.79199,-26.28028 -2.01563,3.81641 -3.81543,7.91992 -4.10352,12.24024 -0.7207,12.0957 0.71973,14.47265 -0.79199,27.21582 z"
         id="path5689"
         style="fill:#ffffff;fill-opacity:1;fill-rule:nonzero;stroke:none" /><path
         d="m 414.86133,409.38574 c 2.37597,0.86328 5.47265,0.28809 6.91211,2.51953 0.93652,1.58399 -1.51172,4.82422 0.71972,5.97657 1.2959,0.71972 6.55274,-1.94434 7.05664,-4.03223 0.57618,-2.23145 -2.37597,-4.10449 -3.09667,-5.83203 0.64843,-0.86426 2.30468,0.43262 2.23242,-3.31153 0,-1.94433 0.21582,-2.88085 -0.36035,-3.74414 -0.28809,-0.5039 -0.93555,-1.15234 -0.93555,-2.73632 0.0723,-2.08789 1.43945,-2.01563 1.94433,-3.67188 0.50391,-1.51172 0.5752,-2.80859 -0.36035,-2.87988 -5.61621,-0.28809 -5.04004,1.87207 -12.16797,10.00781 -2.23242,2.52051 -1.65625,3.67188 -1.94433,7.7041 z"
         id="path5691"
         style="fill:#ffffff;fill-opacity:1;fill-rule:nonzero;stroke:none" /><path
         d="m 421.41309,422.56152 c 1.00879,-1.72802 2.30468,-0.64795 4.89648,-1.87207 1.08008,-0.5039 3.24023,-2.51953 3.67188,-5.04004 -1.94434,1.65625 -4.46387,3.74414 -7.34375,3.52832 -1.36817,-0.14355 -2.44825,2.80811 -1.22461,3.38379 z"
         id="path5693"
         style="fill:#ffffff;fill-opacity:1;fill-rule:nonzero;stroke:none" /><path
         d="m 452.30176,422.84961 c 0.79199,0.50391 1.51172,0.28809 2.66406,-0.28809 1.58398,-0.79199 1.22363,-1.51172 0.21582,-2.08789 -0.50391,-0.28808 -1.22363,-0.28808 -2.01562,0.14405 -0.93653,0.5039 -1.65625,1.72802 -0.86426,2.23193 z"
         id="path5695"
         style="fill:#ffffff;fill-opacity:1;fill-rule:nonzero;stroke:#ffffff;stroke-width:0.21599001;stroke-linecap:butt;stroke-linejoin:miter;stroke-miterlimit:4;stroke-opacity:1;stroke-dasharray:none" /><path
         d="m 448.05371,399.16113 c 1.15137,-0.35937 1.2959,-1.29492 1.08008,-2.23144 -0.79199,-0.21582 -1.36816,-0.21582 -2.08789,0 -0.0723,1.65625 0.86328,1.00781 1.00781,2.23144 z"
         id="path5697"
         style="fill:#231f20;fill-opacity:1;fill-rule:nonzero;stroke:none" /><path
         d="m 451.65332,465.8335 c 4.96777,-7.4878 6.69629,-12.59961 7.12793,-20.5918 -1.58398,0 -1.15137,0.14404 -2.80762,0.0718 0.21582,1.29638 0.0723,4.96826 -0.21582,6.19238 -2.87988,13.96777 -15.83984,29.66406 -26.92871,32.68799 9.14453,-0.64795 17.28028,-10.0083 22.82422,-18.36035 z"
         id="path5699"
         style="fill:#ffffff;fill-opacity:1;fill-rule:nonzero;stroke:none" /><path
         d="m 465.76563,445.2417 c 7.55957,-0.43213 14.75976,-2.95215 15.12011,-8.13623 0.35938,-5.32764 -12.16797,-15.40772 -19.51269,-19.58399 -0.792,-0.5039 -1.51172,-0.71972 -2.08789,-0.86425 29.16015,18.36035 20.80859,27.00048 6.48047,28.58447 z"
         id="path5701"
         style="fill:#ffffff;fill-opacity:1;fill-rule:nonzero;stroke:#ffffff;stroke-width:0.21599001;stroke-linecap:butt;stroke-linejoin:miter;stroke-miterlimit:4;stroke-opacity:1;stroke-dasharray:none" /><path
         d="m 444.88574,393.18555 c 0.50391,0.14355 0.93555,0.0723 1.15137,-0.0713 0.0723,-0.43262 0.0723,-3.16797 -0.14356,-3.96094 -0.36035,-0.14355 -0.79199,-0.0723 -1.00781,0.14453 -0.21582,1.2959 -0.28808,2.95117 0,3.8877 z"
         id="path5703"
         style="fill:#231f20;fill-opacity:1;fill-rule:nonzero;stroke:none" /><path
         d="m 380.44531,381.52148 c 1.22461,-0.28808 2.30469,-0.43164 3.09668,-0.43164 -1.44043,-2.5205 -4.10449,-6.55175 -5.40039,-10.94433 -1.51172,-4.96778 -2.37597,-9.28711 -5.83203,-11.73633 -0.21582,9.14453 1.58398,11.88086 1.51172,18.2168 1.58398,0.86328 4.39258,2.80761 6.62402,4.8955 z"
         id="path5705"
         style="fill:#231f20;fill-opacity:1;fill-rule:nonzero;stroke:none" /><path
         d="m 216.28516,297.20996 c 11.44824,-0.86426 15.12011,-5.75976 16.99218,-7.91992 1.72852,-1.94434 1.44043,-16.7041 -1.94336,-23.11231 -2.95214,-5.54394 -7.34472,-3.74414 -8.06445,-11.0166 -0.79199,0 -2.80762,0.64844 -3.02441,-0.21484 -0.14356,-0.93652 1.72851,-3.3125 0.43261,-3.24024 -2.66406,0.14356 -9.07226,3.31153 -10.08007,4.03125 -1.72852,1.15235 1.7998,1.80079 0.86425,5.32813 -3.67285,13.67969 1.51172,26.13672 4.82325,36.14453 z"
         id="path5707"
         style="fill:#ffffff;fill-opacity:1;fill-rule:nonzero;stroke:none" /><path
         d="m 195.11719,447.8335 c 1.22461,-0.43164 2.30469,-3.95996 0.64844,-8.06397 -1.72852,-4.104 -2.44825,-6.62402 -4.46387,-5.90381 -2.08789,0.79199 -1.72852,3.23975 -1.15235,7.63184 0.50391,4.39209 3.74414,6.84033 4.96778,6.33594 z"
         id="path5709"
         style="fill:#ffffff;fill-opacity:1;fill-rule:nonzero;stroke:none" /><path
         d="m 201.30957,256.24121 c 7.41602,-1.43945 16.77637,-5.03906 22.32031,-9.28711 -4.10449,0.0723 -11.5205,-0.93652 -13.10449,0.35938 -2.5918,2.23242 -7.20019,4.46484 -9.21582,8.92773 z"
         id="path5711"
         style="fill:#ffffff;fill-opacity:1;fill-rule:nonzero;stroke:none" /><path
         d="m 226.14941,246.08984 c 1.87207,3.45606 12.81641,1.15137 19.2959,-3.09668 4.17578,-2.73535 8.78418,-1.87109 8.42383,-8.56738 -6.47949,-0.86426 -3.88769,1.36817 -5.54394,1.65527 -1.36719,0.2168 -1.43946,-1.72753 -2.15918,-1.29492 -0.64844,0.35938 0.28711,2.08789 -2.88086,3.31153 -1.94336,0.79199 -3.59961,1.15136 -5.97559,0.79199 -0.21582,2.01562 -3.02441,2.51953 -4.89648,2.51953 0.57617,4.39258 -8.49512,0.7207 -6.26368,4.68066 z"
         id="path5713"
         style="fill:#ffffff;fill-opacity:1;fill-rule:nonzero;stroke:none" /><path
         d="m 173.01367,400.74512 c 1.51172,0 2.73633,-1.22364 2.37598,-2.87891 -0.43164,-1.72851 -1.2959,-2.88086 -2.5918,-3.3125 -1.22461,-0.50391 -2.59277,1.08008 -2.59277,3.02344 0,1.94433 1.29687,3.16797 2.80859,3.16797 z"
         id="path5715"
         style="fill:#231f20;fill-opacity:1;fill-rule:nonzero;stroke:none" /><path
         d="m 203.61328,401.10547 c 1.44043,1.36816 3.38379,-2.44824 3.95996,-4.10352 0.50391,-1.44043 0.50391,-2.59277 -1.43945,-4.10449 -1.2959,-1.08008 -1.22461,-0.43164 -0.93652,1.51172 0.14453,1.00781 -0.0713,2.23242 -0.71973,2.52051 -1.72754,0.71972 -2.23242,2.80761 -0.86426,4.17578 z"
         id="path5717"
         style="fill:#231f20;fill-opacity:1;fill-rule:nonzero;stroke:none" /><path
         d="m 312.40527,497.29785 c 2.8086,-0.21631 4.96778,-0.72021 4.96778,-1.2959 0,-0.64843 -2.30371,-1.65625 -5.11133,-2.01611 -2.87988,-0.36035 -5.18457,-0.43213 -5.18457,1.22412 0,1.58399 2.44824,2.30371 5.32812,2.08789 z"
         id="path5719"
         style="fill:#ffffff;fill-opacity:1;fill-rule:nonzero;stroke:none" /><path
         d="m 303.83789,464.46582 c 0.35938,0.64795 3.02344,0.50391 3.31152,-2.44824 -0.57617,0 -1.7998,-0.28809 -1.87207,0.14404 -0.35937,1.22412 -1.94336,1.36817 -1.43945,2.3042 z"
         id="path5721"
         style="fill:#231f20;fill-opacity:1;fill-rule:nonzero;stroke:#231f20;stroke-width:0.21599001;stroke-linecap:butt;stroke-linejoin:miter;stroke-miterlimit:4;stroke-opacity:1;stroke-dasharray:none" /><path
         d="m 313.3418,448.48145 c 1.08008,0.79248 3.0957,0.86425 3.23925,-0.43165 0.36036,-2.52001 -0.43164,-1.87207 -1.29589,-1.15234 -0.64746,0.64844 -2.87989,0.93604 -1.94336,1.58399 z"
         id="path5723"
         style="fill:#231f20;fill-opacity:1;fill-rule:nonzero;stroke:#231f20;stroke-width:0.21599001;stroke-linecap:butt;stroke-linejoin:miter;stroke-miterlimit:4;stroke-opacity:1;stroke-dasharray:none" /><path
         d="m 210.16602,408.16113 c 0.64746,0 2.51953,-0.43164 2.59179,-2.80761 0,-2.30372 -0.86426,-5.04004 -1.44043,-4.96778 -1.43945,0.28809 0.57617,4.24805 -1.15136,7.77539 z"
         id="path5725"
         style="fill:#231f20;fill-opacity:1;fill-rule:nonzero;stroke:none" /><path
         d="m 255.09375,309.9541 c 0.79199,-15.83984 6.91211,-23.54492 9.57617,-35.06445 2.95117,-0.71973 6.76758,0.5039 9.28809,-2.73633 -8.71289,1.80078 -8.85645,-1.08008 -12.96094,-0.35937 -4.3916,0.86328 -2.80762,3.24023 1.08008,3.0957 -3.0957,11.51953 -13.03125,27.21582 -6.9834,35.06445 z"
         id="path5727"
         style="fill:#ffffff;fill-opacity:1;fill-rule:nonzero;stroke:none" /><path
         d="m 319.31738,487.14551 c 0.64844,0.86426 1.22461,0.14404 2.0166,-0.50391 1.07911,-0.86377 3.02344,-3.31201 2.01563,-2.52002 -1.36816,1.08008 -4.24805,2.73633 -4.03223,3.02393 z"
         id="path5729"
         style="fill:#ffffff;fill-opacity:1;fill-rule:nonzero;stroke:none" /><path
         d="m 233.20508,377.20215 c 3.38476,-2.66406 6.4082,-14.11231 6.04883,-20.44824 -0.57618,-8.42481 0.35937,-21.95996 1.08007,-24.69629 1.07911,-4.60742 1.51172,-7.7041 1.65528,-11.44727 -4.3916,0.35938 -5.75977,11.08789 -5.32813,23.75977 0.43262,11.59179 -0.71972,18.86328 -3.45605,32.83203 z"
         id="path5731"
         style="fill:#ffffff;fill-opacity:1;fill-rule:nonzero;stroke:none" /><path
         d="m 213.47754,379.86621 c 4.46387,1.51172 4.96777,-9.28906 12.38379,-16.77637 1.65625,-0.64746 -1.72754,18.43164 3.52832,17.63965 0,-8.85547 -0.79199,-15.48047 -1.15235,-23.83203 -0.21582,-5.61523 3.3125,-13.89551 1.08008,-18.71973 -3.88769,17.78418 -5.25586,30.67188 -15.83984,41.68848 z"
         id="path5733"
         style="fill:#ffffff;fill-opacity:1;fill-rule:nonzero;stroke:none" /><path
         d="m 219.2373,316.21777 c 0.93653,1.51172 5.4004,-4.32031 6.19239,-3.0957 1.51172,2.375 2.87988,0.64746 5.90429,-3.67187 11.73536,-16.48829 3.02344,-8.92872 3.81543,-10.80079 0.792,-2.08789 1.00782,-3.52734 1.00782,-5.25586 -3.81543,5.54395 -11.01563,17.85547 -15.55176,17.56836 -1.2959,1.15235 -2.73633,2.87989 -1.36817,5.25586 z"
         id="path5735"
         style="fill:#ffffff;fill-opacity:1;fill-rule:nonzero;stroke:none" /><path
         d="m 208.65332,328.53027 c 0.86426,-2.73632 1.94434,-3.24023 3.02441,-5.47265 -1.08007,2.87988 -0.43261,4.10351 -1.08007,5.47265 -0.43164,0.93555 -1.2959,0.14356 -1.94434,0 z"
         id="path5737"
         style="fill:#ffffff;fill-opacity:1;fill-rule:nonzero;stroke:none" /><path
         d="m 213.69336,320.39355 c 0.21582,0.2168 0.86426,-0.71972 1.44043,-1.36718 0.50391,-0.64844 1.00781,-1.15235 0.79199,-1.44043 -0.28808,-0.21582 -0.93652,0.14355 -1.51269,0.79199 -0.50391,0.64844 -1.00782,1.72754 -0.71973,2.01562 z"
         id="path5739"
         style="fill:#ffffff;fill-opacity:1;fill-rule:nonzero;stroke:none" /><path
         d="m 343.4375,337.60156 c 2.5918,-4.24804 4.17578,-3.52832 4.03223,-1.00781 -0.0723,1.65527 1.87207,0.86426 3.52734,0.86426 0,-0.79297 -0.71973,-4.75196 -0.21582,-5.1836 1.00781,-0.93652 1.36816,3.67188 2.44824,1.8711 0.57617,-0.93555 -1.65625,-1.22363 -1.72754,-4.53516 0,-1.72851 1.65528,-4.53711 -2.23242,-5.76074 1.87207,-0.79199 4.03223,-2.0166 3.16797,-3.23926 -0.79199,-1.15234 -2.08789,-1.58398 -1.15234,-4.17676 -3.45606,-0.28808 -7.19922,0.28809 -8.92774,2.30371 0,3.38477 1.15235,7.2002 -0.0723,10.36817 -1.94336,4.82422 1.08007,3.67285 1.15234,8.49609 z"
         id="path5741"
         style="fill:#ffffff;fill-opacity:1;fill-rule:nonzero;stroke:none" /><path
         d="m 269.20508,359.05762 c 2.52051,1.2959 8.92871,-12.24024 10.87207,-18.86328 1.2959,6.76757 2.23242,5.18359 4.32031,1.51171 4.17578,-0.93652 4.46387,-6.26367 5.18359,-14.32812 0.64844,-8.06445 -1.00781,-42.91211 -4.03125,-54.36035 0,0 -1.36816,3.52832 -0.36035,9.07226 0.93653,5.32715 3.02442,12.52832 1.22364,14.61621 -3.59961,4.17579 -2.80762,-1.80078 -4.24707,-2.5205 -1.58497,-0.71973 -0.57618,-17.06348 -0.57618,-19.36817 0.0713,-1.65625 -2.59277,-2.375 -3.02441,-0.57617 -1.08008,4.46484 -1.65625,14.9043 -3.16797,19.87305 -4.75195,15.91211 -5.47168,17.7832 -3.52832,18.5039 3.02441,1.15137 0.43262,3.24024 -0.86328,4.17579 -2.16016,1.65625 0.79199,5.54394 0.28809,6.9121 -0.93653,2.375 -3.52832,4.17579 -0.28809,10.00782 1.43945,2.51953 -0.0723,-5.25586 1.72754,-11.16016 0.86426,7.27149 2.0166,6.04785 2.95215,12.88867 1.08008,8.06348 -8.4961,22.67969 -6.48047,23.61524 z"
         id="path5743"
         style="fill:#ffffff;fill-opacity:1;fill-rule:nonzero;stroke:#ffffff;stroke-width:0.21599001;stroke-linecap:butt;stroke-linejoin:miter;stroke-miterlimit:4;stroke-opacity:1;stroke-dasharray:none" /><path
         d="m 278.78125,272.44238 c 4.96875,0 5.47266,-2.80859 10.44043,-2.5205 5.04004,0.21582 23.47168,-3.24024 28.43945,-3.52833 5.04004,0.0723 2.37598,-2.80761 -0.57519,-2.59179 -4.17676,0.93554 -3.67285,-1.15235 -4.82422,-1.08008 -1.79981,0.21582 -3.16797,1.65625 -5.25586,1.58398 -4.17676,-0.14453 -4.24805,-3.45605 -12.16797,1.22461 -3.88867,2.375 -9.93652,3.31153 -14.68848,3.88672 -3.45605,0 -4.46386,3.02539 -1.36816,3.02539 z"
         id="path5745"
         style="fill:#ffffff;fill-opacity:1;fill-rule:nonzero;stroke:#ffffff;stroke-width:0.21599001;stroke-linecap:butt;stroke-linejoin:miter;stroke-miterlimit:4;stroke-opacity:1;stroke-dasharray:none" /><path
         d="m 216.93359,352.00195 c 0.43164,0.36035 1.72754,-0.36035 2.80762,-1.7998 1.00879,-1.44043 1.15234,-3.88867 0.86426,-3.88867 -0.28809,0 -1.15234,1.00781 -2.01563,2.59179 -0.79199,1.58399 -2.16015,2.73633 -1.65625,3.09668 z"
         id="path5747"
         style="fill:#ffffff;fill-opacity:1;fill-rule:nonzero;stroke:none" /><path
         d="m 221.39746,337.31348 c 0.50391,0.28808 0.86426,-0.86328 1.79981,-1.65625 0.93652,-0.86328 1.29589,-1.51172 1.36816,-2.30371 0.0723,-0.792 -1.22363,-0.71973 -2.30371,0.64843 -1.08008,1.36817 -1.2959,2.95215 -0.86426,3.31153 z"
         id="path5749"
         style="fill:#ffffff;fill-opacity:1;fill-rule:nonzero;stroke:none" /><path
         d="m 225.50195,330.25781 c 0.50391,0.28809 1.65528,-1.94433 2.44727,-3.60058 0.79199,-1.58399 1.15234,-3.67188 0.64844,-3.67188 -0.50391,0.0723 -0.93653,1.22461 -1.51172,2.88086 -0.57617,1.65527 -2.08887,4.17578 -1.58399,4.3916 z"
         id="path5751"
         style="fill:#ffffff;fill-opacity:1;fill-rule:nonzero;stroke:none" /><path
         d="m 172.4375,643.52979 c 0.93652,-0.21631 2.73633,1.29589 4.24805,1.94384 l -6.83985,-16.84765 c -0.71972,0.93554 -0.86425,3.59961 -1.58398,3.88769 -4.24805,1.65625 -15.55176,4.03223 -26.78418,0.72022 -19.51172,-5.68799 -27.79199,-16.41602 -24.69629,-29.52002 3.09668,-13.10401 19.65625,-18.07227 38.08789,-13.46436 14.18457,3.52832 21.38477,12.81592 22.17676,13.896 0.35937,0.57617 -0.50391,3.38428 -0.79199,4.96826 1.08007,-0.86426 11.66406,-8.85596 14.25586,-10.94385 -1.15235,0 -3.95997,-0.28808 -4.6084,-0.93603 -6.55176,-6.55225 -14.39942,-13.17627 -28.87207,-16.56006 -29.95215,-7.05615 -50.39942,1.65576 -54.21582,19.87207 -3.74414,17.85596 8.85644,34.41601 37.2959,42.33594 12.3125,3.45605 30.02441,1.36767 32.32812,0.64795 z"
         id="path5753"
         style="fill:#231f20;fill-opacity:1;fill-rule:nonzero;stroke:none" /><path
         d="m 276.90918,597.59375 c 0.57617,-0.50391 2.66406,-2.16016 4.32031,-2.95215 -1.58398,-0.14404 -22.67969,-1.87207 -24.19238,-2.01562 0.79199,1.22363 2.52051,2.30371 1.72852,3.02392 -9.21583,8.85596 -13.17579,13.31983 -22.89649,21.67188 -2.87988,-0.43213 -16.05566,-1.0083 -20.5918,-1.43994 0.64844,-8.71192 1.36817,-15.33594 2.01661,-24.04834 0.0713,-0.57569 1.7998,-1.87159 2.73535,-2.73584 l -20.01563,-1.72803 c 0.79199,0.93603 2.37598,2.95215 2.37598,3.45605 -1.36817,18.28809 -2.66406,36.28809 -4.24805,54.50391 -0.14453,1.22412 -3.0957,3.02393 -4.6084,4.53613 2.08789,0.14405 33.62403,3.6001 42.40821,4.17627 27,1.87158 36.21582,-3.88818 37.29589,-16.27246 0.792,-9.79199 -8.42382,-15.6958 -19.51171,-18.71973 10.29589,-9.36035 12.8164,-11.8081 23.18359,-21.45605 l 0,0 m -63.35938,44.35205 0.93555,-16.20019 c 3.45606,0.14404 13.68067,0.86425 15.48047,0.93603 15.83984,1.08008 29.66406,3.6001 28.43945,11.16016 -1.58398,9.86377 -14.75976,6.26367 -31.67968,5.11181 -2.01563,-0.14404 -11.01563,-0.64795 -13.17579,-1.00781 z"
         id="path5755"
         style="fill:#231f20;fill-opacity:1;fill-rule:nonzero;stroke:none" /><path
         d="m 218.94922,423.28174 c -0.64746,0.28808 -1.36817,0.43213 -1.94336,0.43213 0.21582,3.31201 0.21582,7.05566 0.35937,11.30371 0.93653,19.08008 -6.62402,33.19238 -17.56738,38.37597 -3.02441,1.43995 -4.89648,3.74415 -6.26465,5.83204 l -0.93554,1.36816 c 6.1914,-8.85596 14.04004,-6.76807 20.80761,-19.7998 6.55274,-12.6001 6.04786,-23.76026 5.54395,-37.51221 z"
         id="path5757"
         style="fill:#ffffff;fill-opacity:1;fill-rule:nonzero;stroke:none" /><path
         d="m 344.51758,503.56152 c -0.28809,0.0723 -0.64844,0.14405 -0.93653,0.28809 0.64844,10.43994 1.29688,22.82422 -8.27929,33.62402 -5.75977,6.55225 -10.72852,9.28809 -14.18457,16.84815 l 0,1.58398 c 1.15234,-5.61621 10.65625,-13.82422 16.12793,-19.2959 7.9209,-7.92041 9.36035,-25.05615 7.27246,-33.04834 z"
         id="path5759"
         style="fill:#ffffff;fill-opacity:1;fill-rule:nonzero;stroke:none" /></g></g></svg>