<svg xmlns="http://www.w3.org/2000/svg" width="250" height="250.614"><g><path d="M248.898 17.87s-43.407-17.87-123.898-17.87c-80.49 0-123.894 17.87-123.894 17.87-10.271 128.606 52.529 200.335 123.894 232.744 71.365-32.409 134.145-104.138 123.898-232.744z" fill="#e81f3e"/><path d="M125 2.926c70.324 0 112.49 13.885 121.11 17.019.635 8.519.965 16.873.965 25.042 0 47.532-10.73 89.081-32.016 123.799-20.745 33.834-51.874 60.975-90.059 78.588-38.189-17.615-69.32-44.756-90.066-78.588-21.282-34.708-32.01-76.242-32.01-123.753 0-8.184.332-16.553.969-25.088 8.618-3.134 50.782-17.019 121.107-17.019z" fill="#fff"/><path d="M176.817 148.524s-2.557.381-3.933 4.105l-7.426-.127s-2.649-3.701-7.749-3.736c0 0-4.765 2.626-4.349 6.374 0 0 1.214-2.071 4.071-2.094 1.885.694 2.73 2.776 2.73 2.776s-1.041 4.569-6.639 6.374c0 0-6.755-3.898-11.936-4.13-5.182-.242-12.422 6.223-19.224.486-6.801-5.748-6.153-14.608-3.296-20.599 0 0-16.101 11.254-2.834 26.649 0 0-22.207 14.805-31.83 48.514 12.203 9.045 25.758 17.165 40.598 24.729 12.434-6.338 23.966-13.047 34.549-20.38-13.405-9.438-21.49-26.209-10.282-48.133l2.995 1.4 14.123-1.099 2.221-3.574 5.17-.313s4.834-5.066 5.482-8.778c0 0-4.892-3.204-2.44-8.443z" fill="#2a4076"/><path d="M241.918 23.919s-43.807-16.817-116.918-16.817-116.913 16.817-116.913 16.817c-.694 26.371.833 49.596 4.476 70.208 32.467-10.872 40.205 15.175 66.576 16.147l29.367.278c4.893-4.962 11.937-7.541 11.937-7.541l25.133.185c5.228 2.614 10.526 6.639 10.526 6.639s7.958.104 17.315-.659c18.194-1.469 25.387-20.681 63.944-14.655 3.701-20.715 5.251-44.068 4.557-70.601z" fill="#2a4076"/><path d="M25.332 78.362l8.12-1.573v-22.103l7.125-1.365v-7.83l-7.125 1.388v-10.028l7.125-1.481v-8.05l-15.245 3.493v47.549z" fill="#fff"/><path d="M55.647 24.521c-8.605 1.4-9.195 2.811-9.264 11.127v30.304c.069 7.796.636 8.663 9.264 7.807 8.721-1.064 9.97-1.978 10.04-9.739v-9.531l-8.12.752v9.242c0 1.284-.81 1.689-1.515 1.816-.66.023-1.538-.081-1.538-1.596v-29.98c0-1.203.671-1.793 1.423-1.885.856-.127 1.631.382 1.631 1.561v5.922l8.12-.844v-6.13c-.07-8.698-1.296-9.947-10.04-8.825z" fill="#fff"/><path d="M99.438 20.438l-11.127.81v49.539l11.381-.659c7.079-.405 8.212-1.411 8.328-8.328v-31.067c-.139-9.484-1.504-10.571-8.582-10.294m.463 40.945c-.023 1.11-.151 1.515-1.238 1.584l-2.232.197v-33.461l2.232-.197c.763-.011 1.203.359 1.238 2.128v29.749z" fill="#fff"/><path d="M118.429 19.882l-4.869 49.943 7.506-.093.625-8.698 4.441-.058.694 8.594 7.506.069-4.915-49.92-10.989.162m3.667 33.566l1.851-19.617 1.781 19.57-3.632.046z" fill="#fff"/><path d="M148.491 20.345l-8.131-.347v49.793l13.752.451v-7.194l-5.621-.174v-42.53z" fill="#fff"/><path d="M168.212 63.881v-42.102l-8.132-.694v49.539l13.591 1.076-.012-7.299-5.447-.52z" fill="#fff"/><path d="M183.919 23.618l-4.87 48.486 7.507.705.612-8.883 4.395.393.614 9.057 7.506.833-4.915-49.191-10.849-1.4m3.666 32.71l1.793-18.899 1.769 19.212-3.562-.312z" fill="#fff"/><path d="M224.661 44.183v-4.789c-.07-7.923-1.434-9.808-10.086-11.508-8.692-1.457-9.189-.312-9.271 8.038v6.697c.069 4.164.845 6.5 3.51 8.86l5.876 4.708c1.133.995 1.827 2.117 1.851 3.62v7.761c0 1.168-.949 1.33-1.643 1.284-.671-.139-1.48-.717-1.48-1.804l.023-6.94-8.137-.983v7.055c.081 7.796.983 8.964 9.594 10.283 8.744 1.133 9.692.717 9.762-7.264v-9.912c-.07-3.204-1.064-5.864-3.563-8.038l-6.176-4.985c-1.018-.925-1.457-1.735-1.481-3.412v-5.598c0-1.168.787-1.457 1.457-1.388.694.162 1.643 1.11 1.643 2.348v4.777l8.12 1.191z" fill="#fff"/><path d="M139.492 197.293h-12.804l-.66-11.035-7.668 11.035h-12.746l8.386 7.333-6.547 11.428 12.226-7.079 8.305 6.963-.822-11.404 12.33-7.24z" fill="#fff"/><path d="M181.177 124.211l-13.209 2.961c-2.29 1.574-6.234 4.962-4.013 7.761l12.862 13.591c-2.452 5.239 2.44 8.443 2.44 8.443-.648 3.712-5.482 8.778-5.482 8.778l-5.17.313-2.221 3.574-14.123 1.099-2.995-1.4c-11.208 21.924-3.123 38.695 10.282 48.133 40.76-28.245 67.542-65.39 77.813-122.945-37.619 2.105-37.932 25.33-56.184 29.691z" fill="#e81f3e"/><path d="M74.038 127.692c-30.593-3.863-31.958-33.091-61.475-33.565 5.32 30.107 15.152 54.639 29.124 75.239 16.436-20.033 34.074-33.277 44.773-40.274-4.488-.463-8.837-.937-12.422-1.4z" fill="#e81f3e"/><path d="M153.279 113.894c-2.707-4.152-9.322-4.731-8.212-7.923-3.03 1.527-2.614 4.222-.717 5.922 2.348 2.117-1.781 3.852-2.625 1.377-1.041 1.203-1.041 3.181 1.237 5.135 2.267 1.966 7.241 2.001 9.15 7.484-.29-3.782 4.604-6.709 1.168-11.994z" fill="#e81f3e"/><path d="M178.783 115.883c-6.986.682-16.493 1.145-16.493 1.145 1.665 1.989 2.29 4.256 2.29 4.256s-7.577 5.945-.625 13.649c-2.221-2.799 1.723-6.188 4.013-7.761l13.209-2.961c18.252-4.361 18.564-27.586 56.184-29.691-40.106-1.874-41.587 19.686-58.578 21.363z" fill="#2a4076"/><path d="M116.336 113.558c1.677 4.916-1.353 6.524-1.353 6.524l-36.388-1.92c-33.253-3.065-32.212-29.182-66.032-24.035 29.517.474 30.882 29.702 61.475 33.565 3.585.463 7.934.937 12.422 1.4 2.729.277 5.517.555 8.212.821-6.801 5.112-9.218 12.365-9.218 12.365 21.236-4.095 29.043-10.34 31.472-12.931 7.148-6.964 1.203-15.233-.59-15.789z" fill="#2a4076"/><path d="M133.952 123.1s-4.488 2.498-7.241 7.807c0 0 13.243-1.133 23.167 4.245-4.465-8.398-8.778-10.144-15.926-12.053z" fill="#2a4076"/><path d="M197.595 205.066h2.336v7.079h.856v-7.079h2.475v-.856h-5.668v.856z" fill="#2a4076"/><path d="M209.827 204.21l-2.041 6.454-2.036-6.454h-1.365v7.934h.856v-6.731l2.128 6.731h.838l2.128-6.731v6.731h.856v-7.934h-1.365z" fill="#2a4076"/><path d="M117.598 83.972h-6.836c-3.713 0-5.598.324-5.598 2.857v.902c0 1.851.821 2.868 5.448 2.868h4.476c1.885 0 2.787-.266 3.574-.786v1.226c0 .81-.694 1.238-2.348 1.238h-11.266v2.221h11.289c5.136 0 6.859-.914 6.859-4.037v-2.88c0-2.672-1.851-3.609-5.598-3.609m-1.399 4.499h-4.187c-1.932 0-2.429-.266-2.429-1.133 0-.879.521-1.145 2.348-1.145h4.372c1.839 0 2.359.266 2.359 1.145 0 .867-.497 1.133-2.464 1.133z" fill="#cccbcc"/><path d="M139.505 87.869h-4.477c-1.885 0-2.787.266-3.573.775v-1.215c0-.809.694-1.237 2.336-1.237h10.745v-2.221h-10.768c-5.124 0-6.859.914-6.859 4.037v2.868c0 2.683 1.874 3.62 5.61 3.62h6.824c3.724 0 5.609-.335 5.609-2.868v-.891c0-1.862-.821-2.868-5.448-2.868m-1.33 4.407h-4.36c-1.84 0-2.359-.278-2.359-1.157 0-.867.509-1.122 2.44-1.122h4.199c1.943 0 2.44.254 2.44 1.122 0 .879-.52 1.157-2.36 1.157z" fill="#cccbcc"/></g></svg>