<?xml version="1.0" encoding="UTF-8" standalone="no"?>
<svg width="512px" height="512px" viewBox="0 0 512 512" version="1.1" xmlns="http://www.w3.org/2000/svg" xmlns:xlink="http://www.w3.org/1999/xlink" xmlns:sketch="http://www.bohemiancoding.com/sketch/ns">
    <!-- Generator: Sketch 3.2.2 (9983) - http://www.bohemiancoding.com/sketch -->
    <title>houston-dynamo</title>
    <desc>Created with Sketch.</desc>
    <defs></defs>
    <g id="MLS" stroke="none" stroke-width="1" fill="none" fill-rule="evenodd" sketch:type="MSPage">
        <g id="houston-dynamo" sketch:type="MSArtboardGroup">
            <g sketch:type="MSLayerGroup" transform="translate(51.000000, 75.000000)">
                <path d="M122.846233,16.0269887 L122.840744,16.0283623 C110.288837,20.0103849 99.4493023,23.4484679 91.5199767,23.4484679 C84.826907,23.4484679 81.0783488,22.1174642 80.6667209,21.9636226 L68.0736512,15.8937509 L22.1579302,52.1769962 L23.9773256,65.3098415 C25.7733953,78.2696151 28.3899767,91.6648151 31.6871163,105.179517 L20.8228837,106.570958 L21.122,106.550355 C20.4332093,106.623155 17.7672326,106.983034 4.48674419,108.775562 L0.687418605,109.289283 L0.688790698,257.010098 L27.286814,253.126974 C48.5076047,250.028166 70.8205814,247.423849 93.6192791,245.35523 C127.142256,295.769917 166.683233,334.042113 192.766721,353.169283 L192.536209,352.971487 C193.116605,353.426143 195.143186,354.912362 203.91086,361.342113 L206.502744,363.241781 L220.237395,353.170657 C246.31814,334.046234 285.859116,295.774038 319.384837,245.356604 C342.195884,247.426596 364.507488,250.02954 385.71593,253.128347 C385.720047,253.129721 412.313953,257.011472 412.313953,257.011472 L412.315326,109.289283 L392.178488,106.570958 C392.178488,106.570958 385.938209,105.772906 381.314256,105.179517 C384.610023,91.6648151 387.227977,78.2696151 389.022674,65.3098415 L390.844814,52.1769962 L345.189791,15.764634 L332.336023,21.9636226 C331.906558,22.1243321 328.160744,23.4484679 321.481395,23.4484679 C313.550698,23.4484679 302.708419,20.0090113 290.15514,16.0269887 C268.71207,9.22362264 242.027605,0.758218868 206.5,0.758218868 C170.973767,0.758218868 144.28793,9.22362264 122.846233,16.0269887" id="Fill-1" fill="#8DC6ED" sketch:type="MSShapeGroup"></path>
                <path d="M124.171674,20.2109283 L124.170302,20.2109283 C111.269884,24.3028377 100.12986,27.8384453 91.5199767,27.8384453 C83.574186,27.8384453 79.2177907,26.1173434 78.9337674,26.0019623 C78.2216512,25.6571925 68.6032791,21.0213434 68.6032791,21.0213434 L59.2099302,28.2395321 L26.8436279,54.050566 L28.32,64.7054642 C30.3314884,79.222883 33.2924651,94.041117 37.1000233,108.911547 C31.7365116,109.566747 26.4731628,110.235683 21.4073953,110.919728 L5.07125581,113.125706 L5.07262791,251.933328 L26.6515349,248.782325 C49.1552326,245.495336 72.3888837,242.815472 95.7926744,240.737238 C129.161977,291.550264 168.764698,330.130143 195.35586,349.628181 L206.498628,357.798264 L217.640023,349.628181 C244.229814,330.131517 283.832535,291.553011 317.203209,240.737238 C340.60014,242.815472 363.836535,245.495336 386.345721,248.783698 L407.924628,251.934702 L407.926,113.127079 L391.591233,110.921102 C386.525465,110.237057 381.260744,109.569494 375.897233,108.912921 C379.704791,94.0424906 382.66714,79.222883 384.675884,64.7068377 L386.155,54.0519396 L344.606651,20.9169509 C344.606651,20.9169509 334.43807,25.8206491 334.062116,26.0033358 C333.76986,26.1214642 329.414837,27.8398189 321.477279,27.8398189 C312.867395,27.8398189 301.726,24.3055849 288.826953,20.2123019 C267.672023,13.500966 241.347047,5.14956981 206.497256,5.14956981 C171.648837,5.14956981 145.322488,13.500966 124.16893,20.2123019" id="Fill-2" fill="#F78712" sketch:type="MSShapeGroup"></path>
                <path d="M127.615628,31.0924679 C113.812372,35.4714566 101.893,39.2529358 91.5199767,39.2529358 C80.2743023,39.2529358 74.2563023,36.4137358 74.1959302,36.3862642 L69.9781163,34.3533585 L66.2323023,37.2296453 L39.029186,58.9254189 L39.6123256,63.1382038 C42.1918605,81.7489057 46.2587442,100.384332 51.5618837,118.696966 C41.7033953,119.810943 32.1014884,120.9936 22.9304186,122.232574 L16.4719767,123.1048 L16.4733488,238.733177 L25.0050233,237.485962 C50.2227209,233.804755 75.9604419,230.88726 101.584279,228.748589 C134.750512,280.97366 175.017326,320.564498 202.094209,340.419668 L206.5,343.65034 L210.904419,340.419668 C237.97993,320.568619 278.248116,280.976408 311.414349,228.748589 C337.042302,230.88726 362.778651,233.806128 387.993605,237.490083 L396.525279,238.734551 L396.526651,123.1048 L390.068209,122.232574 C380.89714,120.9936 371.295233,119.80957 361.436744,118.696966 C366.739884,100.381585 370.806767,81.7475321 373.386302,63.1382038 L373.970814,58.9254189 L343.105581,34.3094038 L338.805442,36.3848906 C338.746442,36.4123623 332.72707,39.2515623 321.481395,39.2515623 C311.107,39.2515623 299.189,35.470083 285.385744,31.0910943 C264.982721,24.6173887 239.588023,16.5613132 206.501372,16.5613132 C173.416093,16.5613132 148.021395,24.6173887 127.617,31.0910943" id="Fill-3" fill="#FFFFFF" sketch:type="MSShapeGroup"></path>
                <path d="M206.5,334.399245 C230.154884,317.054989 272.124465,278.036936 307.569744,220.919155 C334.993767,223.108649 362.170814,226.174491 389.070698,230.102943 L389.070698,129.629328 C376.699907,127.959049 364.268744,126.476951 351.795047,125.144574 C358.029837,105.292151 362.933698,84.262566 366.00307,62.1135094 L342.123163,43.0701283 C342.123163,43.0701283 335.00886,46.7169962 321.481395,46.7169962 C293.76786,46.7169962 261.169674,24.0267472 206.501372,24.0267472 C151.831698,24.0267472 119.234884,46.7169962 91.5213488,46.7169962 C77.9938837,46.7169962 70.8795814,43.0701283 70.8795814,43.0701283 L46.9996744,62.1135094 C50.0690465,84.262566 54.9701628,105.292151 61.2090698,125.144574 C48.7326279,126.476951 36.3014651,127.959049 23.9306744,129.629328 L23.9320465,230.102943 C50.8305581,226.175864 78.0089767,223.110023 105.431628,220.920528 C140.878279,278.039683 182.84786,317.056362 206.502744,334.400619" id="Fill-4" fill="#231F1F" sketch:type="MSShapeGroup"></path>
                <path d="M298.660744,220.23923 C297.192605,220.132091 295.725837,220.023577 294.256326,219.921932 C274.340395,227.899713 251.076558,237.253826 223.859721,248.234264 C241.197488,237.263442 256.76114,227.396981 270.748256,218.514008 C268.790279,218.415109 266.832302,218.323079 264.871581,218.233796 C251.921767,226.387396 237.671209,235.369268 221.99093,245.272815 C232.730302,235.388498 242.675233,226.22806 251.913535,217.70634 C250.287605,217.648649 248.661674,217.588211 247.034372,217.536015 C238.502698,225.357208 229.386512,233.72234 219.625442,242.687728 C226.391233,233.740196 232.771465,225.291275 238.800442,217.301132 C237.38307,217.265419 235.965698,217.237947 234.545581,217.206355 C228.943326,224.592121 223.047442,232.370732 216.835977,240.572408 C220.974209,232.3776 224.918977,224.560528 228.686744,217.0896 C227.402465,217.066249 226.12093,217.047019 224.838023,217.027789 C221.284302,224.034445 217.581023,231.347411 213.713093,238.990038 C215.977047,231.352906 218.146326,224.020709 220.231907,216.970098 C219.029953,216.956362 217.828,216.945374 216.624674,216.935758 C214.613186,223.689675 212.527605,230.697706 210.356953,237.988694 C211.152767,230.699079 211.917023,223.682808 212.652465,216.911034 L209.160488,216.900045 C208.423674,223.555064 207.666279,230.444966 206.878698,237.598596 C206.371023,230.444966 205.881186,223.552317 205.403698,216.894551 L201.92407,216.90554 C202.391953,223.634732 202.877674,230.607049 203.383977,237.845842 C201.533023,230.602928 199.749302,223.638853 198.028698,216.919275 L194.45714,216.953615 C196.228512,223.927306 198.071233,231.171592 199.990791,238.712574 C196.533116,231.167472 193.214023,223.934174 190.030767,216.996196 L186.246535,217.056634 C189.609535,224.424543 193.124837,232.119366 196.807535,240.174068 C191.181953,232.112498 185.828047,224.447894 180.729349,217.154158 C179.346279,217.18163 177.964581,217.213223 176.582884,217.246189 C181.964233,224.98634 187.639209,233.141313 193.633884,241.745449 C185.039093,233.127577 176.964326,225.038536 169.367047,217.435743 C167.797372,217.481072 166.227698,217.527774 164.660767,217.578596 C173.001721,225.975321 181.942279,234.965434 191.537326,244.603879 C177.628419,234.943457 164.885791,226.105811 153.195558,218.008528 C151.330884,218.086823 149.467581,218.167864 147.604279,218.2544 C160.246744,227.081057 174.17486,236.788181 189.54093,247.480166 C166.017767,236.768951 145.494,227.449177 127.578581,219.338158 C125.262488,219.482385 122.94914,219.633479 120.637163,219.791442 C139.788837,228.589253 162.093581,238.801857 188.087884,250.666883 C163.748326,244.517343 142.424628,239.152121 123.738093,234.472317 C124.704047,235.873374 125.674116,237.262068 126.64693,238.641147 C144.407302,243.183592 164.496116,248.298823 187.226209,254.063758 C168.206256,252.775336 150.986488,251.621525 135.380302,250.588589 C136.29,251.793223 137.203814,252.986868 138.119,254.172272 C152.929372,255.210702 169.168093,256.337042 186.987465,257.559532 C171.720186,259.27926 157.620558,260.878113 144.585674,262.361585 C145.443233,263.423366 146.300791,264.472785 147.159721,265.516709 C159.585395,264.141751 172.96193,262.654158 187.378512,261.042943 C174.884233,264.799698 163.20086,268.317449 152.268023,271.618174 C153.084419,272.575562 153.900814,273.531577 154.717209,274.472483 C165.239791,271.329721 176.441558,267.979547 188.387,264.398611 C178.020837,269.688287 168.252907,274.678521 159.048907,279.385796 C159.844721,280.277253 160.640535,281.163215 161.433605,282.038189 C170.409837,277.477887 179.910209,272.645615 189.974512,267.52077 C181.307,274.131834 173.116977,280.383019 165.363279,286.308664 C166.154977,287.158913 166.946674,288.005042 167.735628,288.837434 C175.420721,282.996951 183.528419,276.830928 192.09714,270.307774 C184.87307,278.226491 178.041419,285.723517 171.566512,292.830445 C172.374674,293.662838 173.181465,294.488362 173.98414,295.300151 C180.512558,288.167125 187.401837,280.637132 194.679419,272.671713 C188.797256,282.054672 183.24714,290.917042 177.998884,299.306898 C178.844093,300.137917 179.685186,300.956574 180.523535,301.768362 C185.909,293.209555 191.607302,284.145268 197.64314,274.534294 C193.178349,285.698792 188.987977,296.195728 185.047326,306.078672 C185.952907,306.926174 186.854372,307.761313 187.748977,308.581343 C191.86114,298.35363 196.234,287.458355 200.893628,275.835079 C198.15493,289.285223 195.609698,301.819185 193.242837,313.51114 C194.241721,314.38886 195.232372,315.247351 196.212047,316.086611 C198.727093,303.8672 201.424628,290.713751 204.32386,276.539728 C203.971233,293.003517 203.657023,308.12806 203.377116,322.024619 C204.430884,322.869374 205.475047,323.697645 206.497256,324.490204 L206.726395,324.307517 C207.070791,309.809328 207.435767,293.959532 207.821326,276.615275 C210.195047,291.513177 212.401372,305.301223 214.451279,318.061826 C215.455651,317.218445 216.475116,316.35034 217.501442,315.465751 C215.581884,303.275185 213.51414,290.171185 211.277628,276.064468 C215.555814,288.248166 219.562326,299.648921 223.32186,310.32717 C224.235674,309.501645 225.154977,308.663758 226.079767,307.809389 C222.487628,297.519864 218.663605,286.571019 214.580256,274.905162 C220.301884,284.965298 225.699698,294.447155 230.792907,303.386445 C231.64086,302.57603 232.495674,301.749132 233.35186,300.915366 C228.408209,292.187608 223.173674,282.95437 217.623558,273.174445 C224.602023,281.514853 231.201791,289.39923 237.458535,296.863291 C238.26807,296.050128 239.080349,295.232845 239.896744,294.4032 C233.720953,286.995457 227.200767,279.181132 220.303256,270.924513 C228.546791,277.788317 236.345767,284.278506 243.742721,290.428045 C244.535791,289.599774 245.32886,288.768755 246.126047,287.922626 C238.693419,281.711275 230.846419,275.157902 222.548,268.23366 C232.219884,273.703275 241.356651,278.866581 250.000837,283.745555 C250.793907,282.880196 251.585605,282.012091 252.381419,281.130249 C243.550628,276.115291 234.194326,270.806385 224.271349,265.182928 C235.710488,269.164951 246.459465,272.901102 256.574535,276.410611 C257.385442,275.486189 258.197721,274.557645 259.01,273.615366 C248.525837,269.943774 237.35014,266.038672 225.419791,261.872589 C239.168163,264.022249 251.961558,266.015321 263.886419,267.868287 C264.731628,266.854581 265.578209,265.829887 266.422047,264.798325 C253.938744,262.821736 240.478512,260.6968 225.961767,258.412528 C242.841256,257.994958 258.310233,257.60074 272.492186,257.231245 C273.390907,256.084302 274.289628,254.930491 275.185605,253.765691 C260.250372,254.100845 243.862093,254.479955 225.873953,254.908513 C247.226465,250.477328 266.272488,246.507668 283.263116,242.951457 C284.224953,241.624574 285.181302,240.288075 286.134907,238.939215 C268.24007,242.599819 248.019535,246.756287 225.165953,251.478672 C253.274651,240.106762 277.15593,230.410626 297.45193,222.137525 L298.655256,220.233736" id="Fill-5" fill="#F78712" sketch:type="MSShapeGroup"></path>
                <path d="M206.5,237.510687 L211.351721,252.459411 L227.055326,252.459411 L214.349744,261.69677 L219.201465,276.648242 L206.498628,267.409509 L193.795791,276.648242 L198.647512,261.69677 L185.944674,252.459411 L201.646907,252.459411 L206.498628,237.510687 L206.5,237.510687" id="Fill-6" fill="#FFFFFF" sketch:type="MSShapeGroup"></path>
                <path d="M334.820884,123.419351 C348.908163,105.635547 346.91314,107.430823 346.91314,107.430823 C346.91314,107.430823 348.334628,105.047653 332.821744,123.236664 L334.820884,123.419351" id="Fill-7" fill="#F78712" sketch:type="MSShapeGroup"></path>
                <path d="M310.744767,121.365842 C343.456837,77.2751396 340.121279,80.5305358 340.121279,80.5305358 C340.121279,80.5305358 342.387977,76.3534642 307.844163,121.152936 L310.744767,121.365842" id="Fill-8" fill="#F78712" sketch:type="MSShapeGroup"></path>
                <path d="M277.723977,119.253268 C309.648465,54.964 306.446,59.4693585 306.446,59.4693585 C306.446,59.4693585 308.192674,54.1604528 274.778093,119.102174 L277.723977,119.251894" id="Fill-9" fill="#F78712" sketch:type="MSShapeGroup"></path>
                <path d="M249.259907,118.070611 C272.106628,39.3271094 269.554535,44.772 269.554535,44.772 C269.554535,44.772 270.391512,38.7735547 246.338721,117.988196 L249.259907,118.070611" id="Fill-10" fill="#F78712" sketch:type="MSShapeGroup"></path>
                <path d="M172.425442,117.82886 C151.123698,36.3945057 151.734279,42.4808604 151.734279,42.4808604 C151.734279,42.4808604 149.363302,36.8725132 169.512488,117.907155 L172.425442,117.82886" id="Fill-11" fill="#F78712" sketch:type="MSShapeGroup"></path>
                <path d="M144.676233,118.797238 C112.72293,50.2388679 114.298093,55.731834 114.298093,55.731834 C114.298093,55.731834 111.199907,50.9957132 141.733093,118.937343 L144.676233,118.797238" id="Fill-12" fill="#F78712" sketch:type="MSShapeGroup"></path>
                <path d="M112.843674,120.603502 C77.628907,71.0047245 79.8324884,75.4675019 79.8324884,75.4675019 C79.8324884,75.4675019 76.4653721,71.9181585 109.919744,120.805419 L112.843674,120.603502" id="Fill-13" fill="#F78712" sketch:type="MSShapeGroup"></path>
                <path d="M83.6414186,122.917992 C65.254,99.5876528 66.7797674,102.367789 66.7797674,102.367789 C66.7797674,102.367789 64.5597209,100.222249 81.4762558,123.117162 L83.6427907,122.917992" id="Fill-14" fill="#F78712" sketch:type="MSShapeGroup"></path>
                <path d="M193.865767,64.2109736 C191.194302,32.8698868 190.932233,36.1362717 190.932233,36.1362717 C190.932233,36.1362717 190.203651,32.8959849 191.998349,64.9856755 C192.611674,64.7109585 193.234605,64.4513509 193.865767,64.2096" id="Fill-15" fill="#F78712" sketch:type="MSShapeGroup"></path>
                <path d="M228.106349,69.2369208 C231.544814,33.4673962 230.631,36.9109736 230.631,36.9109736 C230.631,36.9109736 230.48693,33.4234415 226.233442,67.8839396 C226.875581,68.3138717 227.495767,68.7685283 228.106349,69.2382943" id="Fill-16" fill="#F78712" sketch:type="MSShapeGroup"></path>
                <path d="M285.908512,52.9448302 L281.974721,51.5410264 L276.498698,66.9238038 L280.429744,68.3289811 L285.908512,52.9448302 L285.908512,52.9448302 Z M285.926349,71.7189887 C285.470814,72.9991698 284.063047,73.6681057 282.785628,73.2107019 L271.586605,69.2135698 C270.306442,68.7575396 269.640977,67.3482415 270.096512,66.0680604 L276.280535,48.6990792 C276.738814,47.4175245 278.145209,46.7499623 279.424,47.207366 L290.621651,51.2031245 C291.901814,51.6591547 292.570023,53.0684528 292.114488,54.348634 L285.929093,71.7176151 L285.926349,71.7189887 L285.926349,71.7189887 Z" id="Fill-17" fill="#FFFFFF" sketch:type="MSShapeGroup"></path>
                <path d="M285.908512,52.9448302 L281.974721,51.5410264 L276.498698,66.9238038 L280.429744,68.3289811 L285.908512,52.9448302 L285.908512,52.9448302 Z M285.926349,71.7189887 C285.470814,72.9991698 284.063047,73.6681057 282.785628,73.2107019 L271.586605,69.2135698 C270.306442,68.7575396 269.640977,67.3482415 270.096512,66.0680604 L276.280535,48.6990792 C276.738814,47.4175245 278.145209,46.7499623 279.424,47.207366 L290.621651,51.2031245 C291.901814,51.6591547 292.570023,53.0684528 292.114488,54.348634 L285.929093,71.7176151 L285.926349,71.7189887 L285.926349,71.7189887 Z" id="Stroke-18" stroke="#231F1F" stroke-width="0.319" sketch:type="MSShapeGroup"></path>
                <path d="M134.957698,50.4600151 L131.001953,51.7992604 L136.229628,67.2699472 L140.185372,65.9307019 L134.957698,50.4600151 L134.957698,50.4600151 Z M146.597163,65.1793509 C147.032116,66.4664 146.343326,67.8647094 145.05493,68.3001358 L133.795535,72.1132075 C132.508512,72.548634 131.113093,71.8590943 130.67814,70.5706717 L124.775395,53.1014189 C124.33907,51.8129962 125.029233,50.4160604 126.316256,49.980634 L137.577023,46.1675623 C138.864047,45.7321358 140.259465,46.4230491 140.694419,47.7114717 L146.595791,65.1793509 L146.597163,65.1793509 L146.597163,65.1793509 Z" id="Fill-19" fill="#FFFFFF" sketch:type="MSShapeGroup"></path>
                <path d="M134.957698,50.4600151 L131.001953,51.7992604 L136.229628,67.2699472 L140.185372,65.9307019 L134.957698,50.4600151 L134.957698,50.4600151 Z M146.597163,65.1793509 C147.032116,66.4664 146.343326,67.8647094 145.05493,68.3001358 L133.795535,72.1132075 C132.508512,72.548634 131.113093,71.8590943 130.67814,70.5706717 L124.775395,53.1014189 C124.33907,51.8129962 125.029233,50.4160604 126.316256,49.980634 L137.577023,46.1675623 C138.864047,45.7321358 140.259465,46.4230491 140.694419,47.7114717 L146.595791,65.1793509 L146.597163,65.1793509 L146.597163,65.1793509 Z" id="Stroke-20" stroke="#231F1F" stroke-width="0.319" sketch:type="MSShapeGroup"></path>
                <path d="M174.760744,40.2405434 L177.643512,59.583366 L173.51214,60.2001057 L170.630744,40.8559094 L164.383605,41.7885736 L167.465326,62.4624 C167.665651,63.8071396 168.917,64.7343094 170.260279,64.5351396 L182.017744,62.7796981 C183.362395,62.5791547 184.288558,61.3250717 184.088233,59.9817057 L181.007884,39.3078792 L174.762116,40.2405434 L174.760744,40.2405434" id="Fill-21" fill="#FFFFFF" sketch:type="MSShapeGroup"></path>
                <path d="M174.760744,40.2405434 L177.643512,59.583366 L173.51214,60.2001057 L170.630744,40.8559094 L164.383605,41.7885736 L167.465326,62.4624 C167.665651,63.8071396 168.917,64.7343094 170.260279,64.5351396 L182.017744,62.7796981 C183.362395,62.5791547 184.288558,61.3250717 184.088233,59.9817057 L181.007884,39.3078792 L174.762116,40.2405434 L174.760744,40.2405434 L174.760744,40.2405434 Z" id="Stroke-22" stroke="#231F1F" stroke-width="0.319" sketch:type="MSShapeGroup"></path>
                <path d="M255.192837,42.3902038 L238.641279,39.4809509 L238.085581,42.6566792 L243.251512,43.5646189 L239.773256,63.3991849 L245.992953,64.4925585 L249.471209,44.6579925 L254.638512,45.5673057 L255.195581,42.3902038 L255.192837,42.3902038" id="Fill-23" fill="#FFFFFF" sketch:type="MSShapeGroup"></path>
                <path d="M255.192837,42.3902038 L238.641279,39.4809509 L238.085581,42.6566792 L243.251512,43.5646189 L239.773256,63.3991849 L245.992953,64.4925585 L249.471209,44.6579925 L254.638512,45.5673057 L255.195581,42.3902038 L255.192837,42.3902038 L255.192837,42.3902038 Z" id="Stroke-24" stroke="#231F1F" stroke-width="0.319" sketch:type="MSShapeGroup"></path>
                <path d="M326.09986,65.2562717 L320.338442,75.2477283 L319.445209,61.4088604 L316.255093,59.5655094 L304.585442,79.7997887 L309.295837,82.522234 L315.057256,72.5307774 L315.95186,86.3682717 L319.140605,88.2116226 L330.811628,67.9773434 L326.09986,65.2548981 L326.09986,65.2562717" id="Fill-25" fill="#FFFFFF" sketch:type="MSShapeGroup"></path>
                <path d="M326.09986,65.2562717 L320.338442,75.2477283 L319.445209,61.4088604 L316.255093,59.5655094 L304.585442,79.7997887 L309.295837,82.522234 L315.057256,72.5307774 L315.95186,86.3682717 L319.140605,88.2116226 L330.811628,67.9773434 L326.09986,65.2548981 L326.09986,65.2562717 L326.09986,65.2562717 Z" id="Stroke-26" stroke="#231F1F" stroke-width="0.319" sketch:type="MSShapeGroup"></path>
                <path d="M95.1615116,60.9226113 L99.8911163,69.4786717 L94.7046047,72.3522113 L89.9736279,63.7975245 L85.2152093,66.4348075 L96.5198837,86.8751245 L101.278302,84.2378415 L96.5473256,75.6831547 L101.733837,72.8082415 L106.464814,81.3629283 L111.223233,78.7256453 L99.9199302,58.2839547 L95.1615116,60.9212377 L95.1615116,60.9226113" id="Fill-27" fill="#FFFFFF" sketch:type="MSShapeGroup"></path>
                <path d="M95.1615116,60.9226113 L99.8911163,69.4786717 L94.7046047,72.3522113 L89.9736279,63.7975245 L85.2152093,66.4348075 L96.5198837,86.8751245 L101.278302,84.2378415 L96.5473256,75.6831547 L101.733837,72.8082415 L106.464814,81.3629283 L111.223233,78.7256453 L99.9199302,58.2839547 L95.1615116,60.9212377 L95.1615116,60.9226113 L95.1615116,60.9226113 Z" id="Stroke-28" stroke="#231F1F" stroke-width="0.319" sketch:type="MSShapeGroup"></path>
                <path d="M208.805116,43.954717 L208.85314,41.2707321 L212.581116,41.3394113 L212.513884,44.9038642 L218.150442,45.0096302 L218.231395,40.6814642 C218.256093,39.3216151 217.297,38.2007698 216.079953,38.1787925 L205.47093,37.9809962 C204.259372,37.9576453 203.255,39.0414038 203.230302,40.4012528 L203.149349,44.7266717 C203.068395,49.0946717 212.375302,52.3006189 212.327279,54.9846038 L212.276512,57.6685887 L208.549907,57.5985358 L208.614395,54.0368302 L202.977837,53.9310642 L202.887279,58.838883 C202.861209,60.1973585 203.824419,61.3182038 205.035977,61.3415547 L215.647744,61.5393509 C216.860674,61.5627019 217.863674,60.4775698 217.888372,59.1190943 L217.980302,54.2112755 C218.054395,50.2553509 208.754349,46.6387019 208.805116,43.954717" id="Fill-29" fill="#FFFFFF" sketch:type="MSShapeGroup"></path>
                <path d="M208.805116,43.954717 L208.85314,41.2707321 L212.581116,41.3394113 L212.513884,44.9038642 L218.150442,45.0096302 L218.231395,40.6814642 C218.256093,39.3216151 217.297,38.2007698 216.079953,38.1787925 L205.47093,37.9809962 C204.259372,37.9576453 203.255,39.0414038 203.230302,40.4012528 L203.149349,44.7266717 C203.068395,49.0946717 212.375302,52.3006189 212.327279,54.9846038 L212.276512,57.6685887 L208.549907,57.5985358 L208.614395,54.0368302 L202.977837,53.9310642 L202.887279,58.838883 C202.861209,60.1973585 203.824419,61.3182038 205.035977,61.3415547 L215.647744,61.5393509 C216.860674,61.5627019 217.863674,60.4775698 217.888372,59.1190943 L217.980302,54.2112755 C218.054395,50.2553509 208.754349,46.6387019 208.805116,43.954717 L208.805116,43.954717 Z" id="Stroke-30" stroke="#231F1F" stroke-width="0.319" sketch:type="MSShapeGroup"></path>
                <path d="M322.93993,159.114702 C322.93993,148.083442 322.381488,138.144181 338.50907,140.472408 C354.636651,142.802008 368.828209,144.924196 371.499674,145.321162 C377.774256,146.256574 365.831558,150.610838 365.831558,154.890928 L365.831558,202.793328 C365.831558,207.661313 363.306907,211.874098 355.361116,210.637872 C352.179233,210.196951 348.337372,209.680483 338.510442,208.18877 C321.957512,205.676483 322.942674,199.684906 322.942674,184.626294 L322.942674,159.113328 L322.93993,159.114702 L322.93993,159.114702 Z M351.709977,195.586128 L351.709977,155.61206 C351.709977,153.458279 350.682279,151.016045 348.157628,151.016045 L344.363791,150.484468 C338.277186,149.73037 337.071116,151.485811 336.309605,161.102279 C336.058512,164.282128 336.053023,168.504528 336.053023,173.75437 C336.054395,179.005585 336.309605,183.243094 336.309605,186.476513 C336.309605,197.362174 337.902605,198.455547 341.058419,198.87037 C344.216977,199.285192 348.156256,199.793419 348.156256,199.793419 C349.84393,200.031049 351.708605,198.583291 351.708605,195.587502 L351.709977,195.586128 Z M86.7807674,185.4216 C86.7807674,200.481585 87.7673023,206.470415 71.213,208.982702 C54.6600698,211.497736 55.0881628,211.244996 47.0422093,212.521057 L47.0422093,155.217842 C47.0422093,150.937751 35.1008837,146.583487 41.374093,145.649449 C44.0469302,145.251109 55.0854186,143.598687 71.2116279,141.267713 C87.3392093,138.938113 86.7793953,148.877374 86.7793953,159.910008 L86.7793953,185.4216 L86.7807674,185.4216 L86.7807674,185.4216 Z M65.3610233,200.0544 C67.2051163,199.800287 68.6732558,199.329147 69.7695581,198.635487 C70.8644884,197.940453 71.7028372,196.679502 72.2832326,194.854008 C72.865,193.02714 73.2409535,190.49837 73.4124651,187.270445 C73.5812326,184.041147 73.6690465,179.799517 73.6690465,174.549675 C73.6690465,169.299834 73.5826047,165.081555 73.4124651,161.897585 C73.2409535,158.713615 72.8636279,156.28237 72.2832326,154.609343 C71.7028372,152.936317 70.8644884,151.89926 69.7695581,151.500921 C68.6732558,151.101208 67.2037442,151.02566 65.3610233,151.281147 C64.0959535,151.455592 62.8308837,151.632785 61.565814,151.812725 L61.565814,200.590098 C62.8308837,200.411532 64.0945814,200.232966 65.3610233,200.058521 L65.3610233,200.0544 Z M219.201465,171.3712 L223.007651,153.939034 L228.800628,178.751472 C228.799256,178.750098 224.558116,175.50157 219.202837,171.3712 L219.201465,171.3712 Z M247.945442,200.779653 C242.710907,177.996 235.172628,155.252181 229.936721,132.548196 C222.89514,132.372377 223.117419,132.267985 216.077209,132.236392 C213.751512,142.427019 210.989488,152.624513 208.180814,162.828875 C202.899628,158.709494 198.463651,155.19037 197.655488,154.381328 C195.458767,152.182219 194.834465,155.444483 195.823744,156.433464 C196.161279,156.77274 200.71114,162.007472 206.55214,168.749026 C203.688581,179.1608 200.860698,189.579442 198.489721,200.004951 C204.358163,199.940392 207.092744,199.92803 212.961186,199.966491 L217.111767,180.953328 C225.794372,190.996981 233.832093,200.30714 233.832093,200.30714 C238.538372,200.432136 243.240535,200.590098 247.94407,200.781026 L247.945442,200.779653 Z M269.195047,134.112709 L283.241163,168.941328 L297.310605,136.239019 C297.310605,136.239019 301.10993,136.901087 308.237953,137.637328 L308.237953,205.353691 C303.564605,204.870189 299.43186,203.712257 294.753023,203.29194 C294.753023,186.47514 295.30186,169.927562 295.30186,169.927562 L285.765814,196.4872 L280.171791,196.047653 C280.171791,196.047653 270.604186,169.820423 270.552047,169.817675 L270.552047,201.944453 C265.864977,201.651879 262.606256,201.389525 257.919186,201.160136 L257.919186,133.443774 C265.067791,133.792664 269.197791,134.109962 269.197791,134.109962 L269.195047,134.112709 Z M154.879116,133.545419 L175.10514,164.207955 L175.10514,132.717147 C180.345163,132.555064 182.950767,132.432815 188.193535,132.349026 L188.193535,200.066762 C184.827791,200.118958 180.732093,200.2728 180.732093,200.2728 L161.035698,169.205057 L161.035698,200.96646 C155.797047,201.19997 152.755116,201.47606 147.519209,201.791985 L147.519209,134.075623 C150.702465,133.884694 154.879116,133.545419 154.879116,133.545419 L154.879116,133.545419 Z M94.1571395,138.458732 C100.177884,137.774687 102.793093,137.512332 108.823442,136.9368 C110.92686,144.608272 117.201442,161.920936 117.260442,161.915442 C119.365233,153.856619 123.594023,143.497042 125.701558,135.450581 C131.826581,134.943728 134.152279,134.745932 140.282791,134.348966 C134.815,148.391125 130.019535,162.477238 124.55586,176.608679 L124.55586,203.258974 C118.961837,203.712257 116.161395,204.209494 110.57286,204.754808 L110.57286,178.104513 C105.20386,164.940075 99.517907,151.539381 94.1557674,138.460106 L94.1571395,138.458732 Z" id="Fill-31" fill="#FFFFFF" sketch:type="MSShapeGroup"></path>
                <path d="M322.93993,159.114702 C322.93993,148.083442 322.381488,138.144181 338.50907,140.472408 C354.636651,142.802008 368.828209,144.924196 371.499674,145.321162 C377.774256,146.256574 365.831558,150.610838 365.831558,154.890928 L365.831558,202.793328 C365.831558,207.661313 363.306907,211.874098 355.361116,210.637872 C352.179233,210.196951 348.337372,209.680483 338.510442,208.18877 C321.957512,205.676483 322.942674,199.684906 322.942674,184.626294 L322.942674,159.113328 L322.93993,159.114702 L322.93993,159.114702 Z M351.709977,195.586128 L351.709977,155.61206 C351.709977,153.458279 350.682279,151.016045 348.157628,151.016045 L344.363791,150.484468 C338.277186,149.73037 337.071116,151.485811 336.309605,161.102279 C336.058512,164.282128 336.053023,168.504528 336.053023,173.75437 C336.054395,179.005585 336.309605,183.243094 336.309605,186.476513 C336.309605,197.362174 337.902605,198.455547 341.058419,198.87037 C344.216977,199.285192 348.156256,199.793419 348.156256,199.793419 C349.84393,200.031049 351.708605,198.583291 351.708605,195.587502 L351.709977,195.586128 L351.709977,195.586128 Z M86.7821395,185.420226 C86.7821395,200.480211 87.7686744,206.469042 71.2143721,208.982702 C54.6614419,211.496362 55.0895349,211.243623 47.0435814,212.519683 L47.0435814,155.216468 C47.0435814,150.936377 35.1022558,146.582113 41.3754651,145.648075 C44.0483023,145.249736 55.0867907,143.597313 71.213,141.26634 C87.3405814,138.93674 86.7807674,148.876 86.7807674,159.908634 L86.7807674,185.420226 L86.7821395,185.420226 L86.7821395,185.420226 Z M65.3623953,200.0544 C67.2064884,199.798913 68.6746279,199.327774 69.7709302,198.634113 C70.8658605,197.937706 71.7042093,196.678128 72.2846047,194.852634 C72.8663721,193.025766 73.2423256,190.496996 73.4138372,187.269072 C73.5826047,184.039774 73.6704186,179.798143 73.6704186,174.548302 C73.6704186,169.29846 73.5839767,165.080181 73.4138372,161.896211 C73.2423256,158.712242 72.865,156.280996 72.2846047,154.60797 C71.7042093,152.934943 70.8658605,151.897887 69.7709302,151.499547 C68.6746279,151.099834 67.2051163,151.024287 65.3623953,151.279774 C64.0973256,151.454219 62.8322558,151.631411 61.567186,151.811351 L61.567186,200.588725 C62.8322558,200.410158 64.0959535,200.231592 65.3623953,200.057147 L65.3623953,200.0544 L65.3623953,200.0544 Z M219.202837,171.367079 L223.009023,153.934913 L228.802,178.747351 C228.800628,178.745977 224.559488,175.497449 219.204209,171.367079 L219.202837,171.367079 L219.202837,171.367079 Z M247.945442,200.775532 C242.710907,177.991879 235.172628,155.24806 229.936721,132.544075 C222.89514,132.368257 223.117419,132.263864 216.077209,132.233645 C213.751512,142.421525 210.989488,152.620392 208.180814,162.824755 C202.899628,158.705374 198.463651,155.184875 197.655488,154.377208 C195.458767,152.178098 194.834465,155.440362 195.823744,156.429343 C196.161279,156.768619 200.71114,162.003351 206.55214,168.746279 C203.688581,179.156679 200.860698,189.575321 198.489721,200.00083 C204.358163,199.937645 207.092744,199.923909 212.961186,199.96237 L217.111767,180.949208 C225.794372,190.99286 233.832093,200.303019 233.832093,200.303019 C238.538372,200.428015 243.240535,200.585977 247.94407,200.776906 L247.945442,200.775532 L247.945442,200.775532 Z M269.197791,134.107215 L283.243907,168.935834 L297.310605,136.233525 C297.310605,136.233525 301.111302,136.895592 308.237953,137.631834 L308.237953,205.348196 C303.565977,204.863321 299.43186,203.706762 294.753023,203.286445 C294.753023,186.469645 295.303233,169.922068 295.303233,169.922068 L285.765814,196.481706 L280.174535,196.042158 C280.174535,196.042158 270.605558,169.814928 270.552047,169.812181 L270.552047,201.940332 C265.867721,201.646385 262.609,201.38403 257.919186,201.154642 L257.919186,133.438279 C265.067791,133.78717 269.197791,134.104468 269.197791,134.104468 L269.197791,134.107215 L269.197791,134.107215 Z M154.879116,133.542672 L175.10514,164.205208 L175.10514,132.7144 C180.345163,132.552317 182.950767,132.430068 188.193535,132.347653 L188.193535,200.064015 C184.827791,200.116211 180.732093,200.270053 180.732093,200.270053 L161.035698,169.202309 L161.035698,200.963713 C155.797047,201.198596 152.755116,201.473313 147.519209,201.789238 L147.519209,134.072875 C150.702465,133.881947 154.879116,133.542672 154.879116,133.542672 L154.879116,133.542672 Z M94.1571395,138.455985 C100.177884,137.77194 102.793093,137.509585 108.823442,136.934053 C110.92686,144.605525 117.201442,161.918189 117.260442,161.912694 C119.365233,153.853872 123.594023,143.494294 125.701558,135.447834 C131.826581,134.940981 134.152279,134.743185 140.282791,134.346219 C134.815,148.388377 130.019535,162.474491 124.55586,176.605932 L124.55586,203.256226 C118.961837,203.709509 116.161395,204.206747 110.57286,204.75206 L110.57286,178.101766 C105.20386,164.937328 99.517907,151.536634 94.1557674,138.457358 L94.1571395,138.455985 L94.1571395,138.455985 Z" id="Stroke-32" stroke="#F47216" stroke-width="1.278" sketch:type="MSShapeGroup"></path>
                <path d="M33.2499302,221.316121 C90.2768605,213.496302 148.087256,209.565102 206.498628,209.565102 C264.91,209.565102 322.72314,213.496302 379.751442,221.317494 L379.751442,218.660981 C322.720395,210.856272 264.907256,206.93194 206.498628,206.93194 C148.088628,206.93194 90.2782326,210.856272 33.2499302,218.660981 L33.2499302,221.317494 L33.2499302,221.316121" id="Fill-33" fill="#F78712" sketch:type="MSShapeGroup"></path>
                <path d="M263.856233,328.079381 L263.856233,329.491426 L261.459186,329.491426 L261.459186,336.076392 L259.771512,336.076392 L259.771512,329.491426 L257.373093,329.491426 L257.373093,328.079381 L263.856233,328.079381" id="Fill-34" fill="#231F1F" sketch:type="MSShapeGroup"></path>
                <path d="M270.111605,328.079381 L272.507279,328.079381 L272.507279,336.077766 L270.959558,336.077766 L270.959558,330.667215 L270.969163,329.365057 L269.454372,336.076392 L267.832558,336.076392 L266.328744,329.365057 L266.338349,330.667215 L266.338349,336.077766 L264.789256,336.077766 L264.789256,328.079381 L267.212372,328.079381 L268.668163,334.367653 L270.10886,328.079381 L270.111605,328.079381" id="Fill-35" fill="#231F1F" sketch:type="MSShapeGroup"></path>
                <path d="M184.048442,124.917932 C133.304326,125.742083 83.0020233,129.355985 33.2499302,135.734913 L33.2499302,138.391426 C84.177907,131.849042 135.684907,128.215909 187.651558,127.505766 C186.396093,126.715955 185.191395,125.854717 184.048442,124.917932" id="Fill-36" fill="#F78712" sketch:type="MSShapeGroup"></path>
                <path d="M228.951558,124.919306 C227.807233,125.854717 226.603907,126.715955 225.34707,127.505766 C277.315093,128.214536 328.822093,131.849042 379.751442,138.391426 L379.751442,135.734913 C329.999349,129.355985 279.698419,125.742083 228.951558,124.919306" id="Fill-37" fill="#F78712" sketch:type="MSShapeGroup"></path>
                <path d="M234.807651,97.4105208 C234.807651,113.059774 222.135,125.748951 206.5,125.748951 C190.866372,125.748951 178.192349,113.059774 178.192349,97.4105208 C178.192349,81.7598943 190.866372,69.070717 206.5,69.070717 C222.135,69.070717 234.807651,81.7585208 234.807651,97.4105208" id="Fill-38" fill="#FFFFFF" sketch:type="MSShapeGroup"></path>
                <path d="M221.815302,73.5829434 C226.690349,77.8547925 229.774814,84.1265811 229.774814,91.1222491 C229.774814,103.991366 219.35514,114.425117 206.498628,114.425117 C193.643488,114.425117 183.222442,103.99274 183.222442,91.1222491 C183.222442,84.1265811 186.306907,77.8547925 191.183326,73.5829434 C183.369256,78.6267472 178.190977,87.4108226 178.190977,97.4105208 C178.190977,113.059774 190.865,125.748951 206.498628,125.748951 C222.132256,125.748951 234.806279,113.059774 234.806279,97.4105208 C234.806279,87.4094491 229.628,78.6267472 221.81393,73.5829434" id="Fill-39" fill="#B3E6FA" sketch:type="MSShapeGroup"></path>
                <path d="M227.455977,78.3588981 C225.843767,79.0264604 223.950279,79.6459472 223.737605,79.4330415 C225.616,83.5469283 226.083884,88.2487094 225.38,90.7170415 C226.395349,91.7334943 228.393116,93.9133736 229.773442,95.6811774 C230.32914,99.1178868 230.168605,102.867774 229.608791,104.683653 C230.451256,103.26886 231.867256,100.632951 232.479209,97.5451321 C233.216023,97.1577811 233.998116,96.7072453 234.780209,96.3556075 C234.526372,89.4354868 231.802767,83.1472151 227.455977,78.3588981" id="Fill-40" fill="#231F1F" sketch:type="MSShapeGroup"></path>
                <path d="M227.992465,115.841283 C227.958163,114.035019 227.848395,110.92797 227.494395,108.58326 C223.029605,113.4952 217.730581,112.653192 217.730581,112.653192 C217.730581,112.653192 216.925163,114.632528 215.843953,116.694279 C213.02293,119.607653 211.623395,120.931789 204.539279,121.25046 C205.418791,121.525177 211.177465,121.378204 214.507535,121.731215 L216.723465,123.835547 C221.115535,122.130928 224.977977,119.361781 227.993837,115.841283" id="Fill-41" fill="#231F1F" sketch:type="MSShapeGroup"></path>
                <path d="M194.051,111.995245 C194.051,111.995245 192.986256,112.128483 191.360326,112.246611 C186.794,110.230189 183.10307,105.182264 181.991674,101.786762 C184.169186,107.715155 184.54514,110.934838 184.609628,112.397706 C183.865953,112.370234 183.120907,112.323532 182.386837,112.254853 C185.412302,117.16954 189.89493,121.087004 195.231,123.408362 C196.559186,122.658385 198.397791,121.463366 201.287419,120.885087 C195.805907,118.470325 194.052372,111.995245 194.052372,111.995245" id="Fill-42" fill="#231F1F" sketch:type="MSShapeGroup"></path>
                <path d="M185.17493,78.786083 C180.910465,83.6760453 178.296628,90.0426113 178.201953,97.0204226 C179.561698,96.9833358 180.799326,97.1234415 181.350907,99.6508377 C182.172791,97.0657509 184.756442,90.6002868 187.340093,89.6593811 C186.529186,87.7116377 186.558,84.5304151 186.654047,82.5552 C189.145767,78.7393811 193.562535,75.0842717 193.562535,75.0842717 C193.562535,75.0842717 188.850767,78.2215396 186.474302,80.3258717 C186.186163,79.9247849 185.700442,79.3629887 185.17493,78.786083" id="Fill-43" fill="#231F1F" sketch:type="MSShapeGroup"></path>
                <path d="M206.5,69.070717 C203.396326,69.070717 200.413395,69.5775698 197.619814,70.5019925 C196.752651,72.0252981 195.576767,73.5719547 195.32293,74.4963774 C197.906581,73.6722264 204.657279,75.6131019 205.772791,76.7298264 C205.772791,76.1419321 211.760605,73.908483 213.285,73.908483 C214.813512,73.908483 222.620721,78.081434 222.091093,77.5526038 C221.565581,77.0237736 215.281395,72.2629283 214.813512,71.7931623 C214.60907,71.5884981 214.828605,71.0253283 215.240233,70.453917 C212.487814,69.5597132 209.552907,69.070717 206.5,69.070717" id="Fill-44" fill="#231F1F" sketch:type="MSShapeGroup"></path>
                <path d="M181.116279,95.4188226 C181.116279,96.3583547 182.525419,93.4202566 182.525419,92.714234 C182.525419,92.2142491 181.464791,87.8050415 181.352279,84.4054189 C179.856698,87.2981887 178.846837,90.4780377 178.424233,93.8433208 C179.627558,94.1963321 181.117651,94.8062038 181.117651,95.4188226" id="Fill-45" fill="#F78712" sketch:type="MSShapeGroup"></path>
                <path d="M195.147302,118.032151 C195.147302,118.032151 189.052465,117.067894 185.231186,116.100891 C187.25914,118.412634 189.656186,120.387849 192.33314,121.941374 C194.603953,121.651547 197.59786,120.485374 197.23014,120.117253 L195.147302,118.032151" id="Fill-46" fill="#F78712" sketch:type="MSShapeGroup"></path>
                <path d="M226.92086,117.025313 C226.919488,116.017102 226.686233,112.324906 226.686233,112.324906 C226.686233,112.324906 223.470047,113.202626 223.470047,114.007547 C223.470047,114.812468 218.879023,121.452377 218.50307,123.077328 C221.676721,121.588362 224.525186,119.526611 226.922233,117.025313" id="Fill-47" fill="#F78712" sketch:type="MSShapeGroup"></path>
                <path d="M230.802512,82.8779925 C229.099744,82.5428377 226.90714,81.9013736 226.90714,81.9013736 C226.90714,83.3120453 227.435395,84.1938868 226.90714,84.722717 C226.388488,85.2419321 232.881233,90.1785962 234.55793,93.6963472 C234.04614,89.7816302 232.741279,86.1196528 230.802512,82.8779925" id="Fill-48" fill="#F78712" sketch:type="MSShapeGroup"></path>
                <path d="M206.5,69.070717 C204.303279,69.070717 202.169674,69.3303245 200.115651,69.8042113 L198.375837,72.7326943 C198.375837,72.7326943 201.427372,72.614566 203.190512,72.614566 C204.507721,71.2959245 207.503,70.1366189 210.147023,69.3124679 C208.95193,69.1572528 207.734884,69.070717 206.5,69.070717" id="Fill-49" fill="#F78712" sketch:type="MSShapeGroup"></path>
                <path d="M213.135442,102.131532 C214.355233,99.5958943 215.979791,95.2141585 216.363977,93.6729962 C218.530512,92.7458264 222.446465,90.7184151 222.446465,90.7184151 C222.446465,90.7184151 218.736326,92.0082113 215.929023,92.4505057 C214.507535,91.016483 210.547674,88.1608 208.165721,86.8394113 L208.165721,86.8380377 C206.800488,83.8971925 206.125419,78.8478943 206.125419,78.8478943 C206.125419,78.8478943 206.122674,82.8587623 205.262372,86.6402415 C203.138372,87.7995472 199.066,90.692317 197.32207,92.3529811 C194.495558,92.1222189 189.453116,90.6016604 189.453116,90.6016604 C189.453116,90.6016604 195.556186,94.600166 197.317953,96.3652226 L197.319326,96.3652226 C197.691163,97.4792 198.149442,98.7635019 198.611837,99.9804981 L198.610465,99.9804981 C199.459791,102.101313 197.430465,107.465162 196.20793,109.749434 C197.707628,108.194536 200.963605,105.429509 203.061535,104.884196 C205.025,104.972106 207.743116,104.87046 209.707953,104.588875 C212.567395,106.26877 217.198209,110.900498 217.198209,110.900498 C217.198209,110.900498 213.519628,106.353932 213.136814,102.134279" id="Fill-50" fill="#231F1F" sketch:type="MSShapeGroup"></path>
                <path d="M195.44093,110.816709 C195.571279,110.816709 195.858047,110.401887 196.20793,109.74806 C195.598721,110.379909 195.272163,110.816709 195.44093,110.816709" id="Fill-51" fill="#231F1F" sketch:type="MSShapeGroup"></path>
                <path d="M206.5,96.0053434 C206.856744,95.262234 206.951419,91.2211472 206.70307,87.6374642 L206.478047,87.5921358 C205.486023,87.5921358 198.049279,92.852966 198.049279,93.7471698 C198.049279,94.4270943 199.683442,99.0945358 200.75093,101.57523 C203.348302,99.2566189 206.174814,96.6880151 206.501372,96.0053434" id="Fill-52" fill="#F78712" sketch:type="MSShapeGroup"></path>
                <path d="M229.138163,105.645162 C229.316535,105.466596 229.472953,105.125947 229.608791,104.685026 C229.040744,105.638294 228.73614,106.047623 229.138163,105.645162" id="Fill-53" fill="#FFF200" sketch:type="MSShapeGroup"></path>
                <path d="M229.138163,105.645162 C229.316535,105.466596 229.472953,105.125947 229.608791,104.685026 C229.040744,105.638294 228.73614,106.047623 229.138163,105.645162 L229.138163,105.645162 Z" id="Stroke-54" stroke="#231F1F" stroke-width="0.639" sketch:type="MSShapeGroup"></path>
            </g>
        </g>
    </g>
</svg>