<svg width="512" height="512" viewBox="0 0 512 512" xmlns="http://www.w3.org/2000/svg" xmlns:sketch="http://www.bohemiancoding.com/sketch/ns"><title>los-angeles-galaxy</title><desc>Created with Sketch.</desc><g sketch:type="MSLayerGroup" fill="none"><path d="M256.378 459.322c-97.874-51.268-158.746-190.716-159.71-306.455 33.326-7.787 99.618-21.353 159.71-100.189 60.268 78.836 126.5 92.402 159.954 100.189-1.086 115.739-61.956 255.188-159.954 306.455" fill="#FFD900" sketch:type="MSShapeGroup"/><path d="M117.522 168.307c2.343 50.543 16.688 105.486 40.139 152.839 25.435 51.629 60.324 91.492 98.718 114.115 38.509-22.623 73.463-62.486 98.898-114.115 23.447-47.352 37.725-102.294 40.324-152.839-33.213-8.148-87.752-25.695-139.222-84.869-51.348 59.175-105.893 76.722-138.856 84.869" fill="#3365B1" sketch:type="MSShapeGroup"/><path d="M127.527 175.239c3.188 47.835 16.635 97.831 38.263 141.564 23.331 47.153 55.393 84.737 90.588 106.812 35.318-22.077 67.38-59.659 90.698-106.812 21.644-43.735 35.078-93.73 38.279-141.564-34.42-8.927-82.689-27.439-128.977-77.929-46.164 50.49-94.564 69.002-128.851 77.929" fill="#00245D" sketch:type="MSShapeGroup"/><path d="M251.919 74.698l4.459-5.186v-16.834c-60.091 78.836-126.385 92.402-159.71 100.189l11.091 8.136 3.855-.843c34.891-8.5 93.779-28.16 140.305-85.462" fill="#F6BF0B" sketch:type="MSShapeGroup"/><path d="M416.212 152.867l-11.45 8.136-.242 3.981c-.122 52.233-18.023 113.875-41.891 162.061-25.794 52.004-63.524 93.501-103.178 116.834l-3.07 1.755v13.688c97.998-51.268 158.868-190.716 159.954-306.455h-.121" fill="#F6BF0B" sketch:type="MSShapeGroup"/><path d="M359.801 393.766h-2.717v-1.997h7.9v1.997h-2.961v8.137h-2.221v-8.137h-.001z" fill="#FCCE19" sketch:type="MSShapeGroup"/><path d="M359.801 393.766h-2.717v-1.997h7.9v1.997h-2.961v8.137h-2.221v-8.137h-.001z" stroke="#000" stroke-width=".88" sketch:type="MSShapeGroup"/><path d="M374.749 397.922v-4.046h-.121c-.364 1.273-.725 2.722-1.088 3.925l-1.27 3.981h-1.742l-1.085-3.981c-.363-1.206-.723-2.653-1.086-3.925 0 1.273 0 2.84-.122 4.046l-.241 3.981h-2.112l.722-10.134h2.959l1.138 3.379c.362 1.205.484 2.533.844 3.553.242-1.022.723-2.468.963-3.553l1.031-3.379h3.069l.723 10.134h-2.346l-.24-3.981" fill="#FCCE19" sketch:type="MSShapeGroup"/><path d="M374.749 397.922v-4.046h-.121c-.364 1.273-.725 2.722-1.088 3.925l-1.27 3.981h-1.742l-1.085-3.981c-.363-1.206-.723-2.653-1.086-3.925 0 1.273 0 2.84-.122 4.046l-.241 3.981h-2.112l.722-10.134h2.959l1.138 3.379c.362 1.205.484 2.533.844 3.553.242-1.022.723-2.468.963-3.553l1.031-3.379h3.069l.723 10.134h-2.346l-.24-3.981" stroke="#000" stroke-width=".88" sketch:type="MSShapeGroup"/><path d="M241.915 299.366h-52.072c-3.442 0-6.508-1.206-9.106-3.684-2.587-2.468-3.857-5.548-3.857-9.168v-77.433h19.406v72.258h45.629v18.028" fill="#C7BFCD" sketch:type="MSShapeGroup"/><path d="M180.496 211.307v73.101c0 2.235.723 4.102 2.598 5.857 1.564 1.689 3.55 2.589 5.905 2.589h47.492v-9.17h-45.631v-72.377h-10.365" fill="#fff" sketch:type="MSShapeGroup"/><path d="M250.714 299.366h19.767l7.651-19.608h29.837l-6.389-16.58h-16.821l11.999-30.641 25.795 66.829h20.61s-30.613-75.328-31.702-78.409c-2.476-6.688-6.332-11.877-14.704-11.877h-.242c-8.196 0-11.758 5.189-14.101 11.877l-31.702 78.409" fill="#C7BFCD" sketch:type="MSShapeGroup"/><path d="M256.137 292.851h10.007c1.566-4.221 7.648-19.782 7.648-19.782h28.512c-1.513-3.551-2.235-5.549-3.079-7.656h-22.354l18.98-48.437 22.244 56.937c0 .243 4.579 13.148 6.803 18.937h10.85c-4.34-10.374-26.638-66.344-28.985-72.015-2.357-5.967-5.183-9.046-9.644-9.046h-.362c-6.698 0-9.161 3.08-11.517 8.805 0 0-25.794 63.933-29.105 72.257" fill="#fff" sketch:type="MSShapeGroup"/><path d="M352.381 331.147c-28.863-5.601-61.53-8.554-96.123-8.554-36.039 0-69.977 3.379-99.989 9.518-12.833 2.478-24.042 4.957-31.943 7.424 7.298 11.702 15.669 24.971 22.848 35.946 7.111-1.873 14.641-3.497 22.42-5.065 25.916-5.185 55.566-8.016 86.665-8.016 30.135 0 58.154 2.588 83.413 7.534 9.16 1.689 17.893 3.324 25.97 5.308 7.355-11.284 15.669-24.247 22.967-35.465-8.675-2.468-21.159-5.791-36.226-8.632" fill="#FCCE19" sketch:type="MSShapeGroup"/><path d="M240.469 343.88c-.481-.539-.601-1.636-.601-3.017v-11.339l-6.335.362v11.526c0 2.468.364 4.037 2.355 5.659 2.225 1.875 4.823 1.875 8.131 1.755l6.815-.306v-4.278l-6.451.363c-2.051.241-3.191-.123-3.914-.724" fill="#13162E" sketch:type="MSShapeGroup"/><path d="M317.011 332.967l-7.42-.724s-3.308 3.916-4.341 5.067c-.842-1.392-4.15-5.789-4.15-5.789l-7.54-.79s7.9 9.892 8.383 10.375c-.482.657-8.798 9.046-8.798 9.046l7.647.724s3.86-4.287 4.703-5.549c.91 1.392 4.46 6.272 4.46 6.272l7.778.67s-8.141-10.022-8.622-10.742c.481-.541 7.9-8.556 7.9-8.556" fill="#13162E" sketch:type="MSShapeGroup"/><path d="M207.497 343.34c.723-1.205 2.357-5.065 3.321-6.754.899 1.689 2.464 4.937 3.253 6.275l-6.574.483v-.003zm.36-11.579l-10.364 20.025 6.695-.549s.964-2.171 1.326-2.96l10.607-.835c.121.592 1.26 2.71 1.26 2.71l7.057-.484-10.365-18.521-6.214.615z" fill="#13162E" sketch:type="MSShapeGroup"/><path d="M163.808 346.96c0 3.311 1.379 5.658 3.856 7.051 2.465 1.206 4.758.965 7.65.602l11.811-1.381v-11.71l-10.607 1.338v3.858c2.959-.13 3.44-.13 4.701-.305v3.016c-1.139.24-5.905.722-5.905.722-2.892.481-4.579-.121-4.579-4.342 0-4.949 2.233-5.911 4.579-6.275l11.811-1.635v-4.037l-11.811 1.449c-7.65 1.029-11.506 4.826-11.506 11.645" fill="#13162E" sketch:type="MSShapeGroup"/><path d="M269.092 341.412c.719-1.271 2.353-4.826 3.318-6.459.899 1.743 2.586 5.309 3.255 6.57l-6.573-.111zm.362-11.646l-10.368 19.061 6.698.119s1.084-2.357 1.323-2.895l10.489.121c.362.789 1.382 3.138 1.382 3.138l7.057.362-10.368-19.783-6.211-.121v-.001z" fill="#13162E" sketch:type="MSShapeGroup"/><path d="M344.01 336.696s-4.338 4.716-5.423 5.791c-.845-1.505-5.183-7.413-5.183-7.413l-7.296-.843s9.281 11.82 9.522 12.183v8.445l6.145.844v-8.389c.364-.243 9.764-9.52 9.764-9.52l-7.528-1.098" fill="#13162E" sketch:type="MSShapeGroup"/><path d="M375.469 343.759c-6.268 9.826-14.77 21.834-14.77 21.834-7.772-1.503-16.207-3.082-24.951-4.464-23.922-3.927-50.868-6.275-79.49-6.275-29.77 0-57.856 2.479-82.687 6.754-7.42 1.384-14.587 2.776-21.336 4.343l-5.063 9.528c5.424-1.391 13.798-3.378 16.635-3.858.24 0 6.322 9.41 6.562 9.168.122-.362 4.405-4.464 6.871-6.81 2.839-2.481 7.902-6.275 8.02-6.275 22.115-2.96 45.926-5.308 70.997-5.308 29.895 0 58.154 2.588 83.413 7.534 12.35 2.17 21.389 4.156 26.211 5.308 7.537-11.284 14.769-23.455 22.725-35.465l-13.138 3.981" fill="#F6BF0B" sketch:type="MSShapeGroup"/><path d="M255.897 114.078c0 16.35-6.331 32.033-17.906 43.614-11.505 11.515-26.639 18.028-43.206 18.028-.363 0-.484.363-.484.724 0 .428.121.67.484.67 16.567.122 31.702 6.513 43.206 18.269 11.574 11.58 17.906 27.023 17.906 43.373 0 .121.24.241.24.483.241.122.485.122.604 0h.241l.362-.483c0-16.592 6.201-32.034 17.652-43.613 11.761-11.516 26.946-17.909 43.338-18.029.364 0 .604-.363.604-.79 0-.363-.242-.603-.604-.603-16.393-.119-31.577-6.513-43.338-18.268-11.452-11.58-17.895-27.023-17.895-43.373 0-.363-.121-.603-.481-.603-.364 0-.725.241-.725.603" fill="#3365B1" sketch:type="MSShapeGroup"/><path d="M256.378 135.068l.245.243c1.74 21.899 18.802 39.203 40.497 41.133.122 0 .364 0 .364.306 0 0-.242.122-.364.122-3.198.241-6.453.844-9.522 1.93-16.997 5.483-29.476 20.386-30.976 38.898 0 0 0 .187-.245.187-.119 0-.119-.187-.119-.187-1.445-18.51-13.928-33.414-30.858-38.898-3.196-1.086-6.148-1.689-9.642-1.93l-.121-.122c0-.306 0-.306.121-.306 21.752-1.93 38.868-19.234 40.5-41.133l.119-.243" fill="#FCCE19" sketch:type="MSShapeGroup"/><path d="M256.378 135.068l-.119.243c-1.633 21.899-18.749 39.203-40.5 41.133-.121 0-.121 0-.121.306h40.74v-41.682" fill="#EBA91C" sketch:type="MSShapeGroup"/><path d="M256.378 217.888c.245 0 .245-.187.245-.187 1.499-18.51 13.979-33.414 30.976-38.898 3.069-1.086 6.324-1.689 9.522-1.93.122 0 .364-.122.364-.122h-41.107v41.138" fill="#EBA91C" sketch:type="MSShapeGroup"/><path d="M283.677 176.444c-14.827-.121-27.053-12.062-27.053-26.779h-.364c0 7.183-2.717 13.993-7.661 18.885-5.06 5.067-11.868 7.896-18.978 8.202h-.24c0 .122.24.122.24.122 14.641.241 26.639 12.358 26.639 27.02 0 .241.119.241.119.241.245 0 .245 0 .245-.241 0-14.837 12.226-27.02 27.053-27.02l.119-.122c0-.306-.119-.306-.119-.306" fill="#fff" sketch:type="MSShapeGroup"/></g></svg>