<?xml version="1.0" encoding="UTF-8" standalone="no"?>
<!-- Created with Inkscape (http://www.inkscape.org/) -->

<svg
   xmlns:dc="http://purl.org/dc/elements/1.1/"
   xmlns:cc="http://creativecommons.org/ns#"
   xmlns:rdf="http://www.w3.org/1999/02/22-rdf-syntax-ns#"
   xmlns:svg="http://www.w3.org/2000/svg"
   xmlns="http://www.w3.org/2000/svg"
   xmlns:xlink="http://www.w3.org/1999/xlink"
   version="1.1"
   width="538.58264"
   height="610.15747"
   id="svg27763">
  <defs
     id="defs27765">
    <linearGradient
       x1="0"
       y1="0"
       x2="1"
       y2="0"
       id="linearGradient5832"
       gradientUnits="userSpaceOnUse"
       gradientTransform="matrix(19.238449,0,0,-19.238449,451.09053,684.73805)"
       spreadMethod="pad">
      <stop
         id="stop5834"
         style="stop-color:#8d9092;stop-opacity:1"
         offset="0" />
      <stop
         id="stop5836"
         style="stop-color:#e5e6e7;stop-opacity:1"
         offset="0.423172" />
      <stop
         id="stop5838"
         style="stop-color:#e5e6e7;stop-opacity:1"
         offset="0.423172" />
      <stop
         id="stop5840"
         style="stop-color:#8d9092;stop-opacity:1"
         offset="0.86627197" />
      <stop
         id="stop5842"
         style="stop-color:#8d9092;stop-opacity:1"
         offset="1" />
    </linearGradient>
    <linearGradient
       x1="0"
       y1="0"
       x2="1"
       y2="0"
       id="linearGradient5806"
       gradientUnits="userSpaceOnUse"
       gradientTransform="matrix(16.739349,0,0,-16.739349,434.35104,684.73805)"
       spreadMethod="pad">
      <stop
         id="stop5808"
         style="stop-color:#8d9092;stop-opacity:1"
         offset="0" />
      <stop
         id="stop5810"
         style="stop-color:#e5e6e7;stop-opacity:1"
         offset="0.54617298" />
      <stop
         id="stop5812"
         style="stop-color:#e5e6e7;stop-opacity:1"
         offset="0.54617298" />
      <stop
         id="stop5814"
         style="stop-color:#8d9092;stop-opacity:1"
         offset="0.86627197" />
      <stop
         id="stop5816"
         style="stop-color:#8d9092;stop-opacity:1"
         offset="1" />
    </linearGradient>
    <linearGradient
       x1="0"
       y1="0"
       x2="1"
       y2="0"
       id="linearGradient5778"
       gradientUnits="userSpaceOnUse"
       gradientTransform="matrix(9.526474,0,0,-9.526474,436.01906,694.64281)"
       spreadMethod="pad">
      <stop
         id="stop5780"
         style="stop-color:#bcbec0;stop-opacity:1"
         offset="0" />
      <stop
         id="stop5782"
         style="stop-color:#f7f7f8;stop-opacity:1"
         offset="0.47093201" />
      <stop
         id="stop5784"
         style="stop-color:#f7f7f8;stop-opacity:1"
         offset="0.47093201" />
      <stop
         id="stop5786"
         style="stop-color:#bcbec0;stop-opacity:1"
         offset="0.87791401" />
      <stop
         id="stop5788"
         style="stop-color:#bcbec0;stop-opacity:1"
         offset="0.87791401" />
      <stop
         id="stop5790"
         style="stop-color:#bcbec0;stop-opacity:1"
         offset="1" />
    </linearGradient>
    <clipPath
       id="clipPath5694">
      <path
         d="m 262.371,382.756 244.505,0 0,324.75 -244.505,0 0,-324.75 z"
         id="path5696" />
    </clipPath>
    <linearGradient
       x1="0"
       y1="0"
       x2="1"
       y2="0"
       id="linearGradient5676"
       gradientUnits="userSpaceOnUse"
       gradientTransform="matrix(32.624725,0,0,-32.624725,434.77818,703.9296)"
       spreadMethod="pad">
      <stop
         id="stop5678"
         style="stop-color:#bcbec0;stop-opacity:1"
         offset="0" />
      <stop
         id="stop5680"
         style="stop-color:#e5e6e7;stop-opacity:1"
         offset="0.47093201" />
      <stop
         id="stop5682"
         style="stop-color:#e5e6e7;stop-opacity:1"
         offset="0.47093201" />
      <stop
         id="stop5684"
         style="stop-color:#bcbec0;stop-opacity:1"
         offset="0.87791401" />
      <stop
         id="stop5686"
         style="stop-color:#bcbec0;stop-opacity:1"
         offset="1" />
    </linearGradient>
    <clipPath
       id="clipPath5644">
      <path
         d="m 262.371,382.756 244.505,0 0,324.75 -244.505,0 0,-324.75 z"
         id="path5646" />
    </clipPath>
    <radialGradient
       cx="0"
       cy="0"
       r="1"
       fx="0"
       fy="0"
       id="radialGradient5630"
       gradientUnits="userSpaceOnUse"
       gradientTransform="matrix(16.595978,0,0,-16.595978,451.08978,685.6463)"
       spreadMethod="pad">
      <stop
         id="stop5632"
         style="stop-color:#065cab;stop-opacity:1"
         offset="0" />
      <stop
         id="stop5634"
         style="stop-color:#065cab;stop-opacity:1"
         offset="0.67059302" />
      <stop
         id="stop5636"
         style="stop-color:#003a74;stop-opacity:1"
         offset="1" />
    </radialGradient>
    <radialGradient
       cx="0"
       cy="0"
       r="1"
       fx="0"
       fy="0"
       id="radialGradient28168"
       xlink:href="#radialGradient5630"
       gradientUnits="userSpaceOnUse"
       gradientTransform="matrix(16.595978,0,0,-16.595978,451.08978,685.6463)"
       spreadMethod="pad" />
    <linearGradient
       x1="0"
       y1="0"
       x2="1"
       y2="0"
       id="linearGradient28170"
       xlink:href="#linearGradient5676"
       gradientUnits="userSpaceOnUse"
       gradientTransform="matrix(32.624725,0,0,-32.624725,434.77818,703.9296)"
       spreadMethod="pad" />
    <linearGradient
       x1="0"
       y1="0"
       x2="1"
       y2="0"
       id="linearGradient28172"
       xlink:href="#linearGradient5778"
       gradientUnits="userSpaceOnUse"
       gradientTransform="matrix(9.526474,0,0,-9.526474,436.01906,694.64281)"
       spreadMethod="pad" />
    <linearGradient
       x1="0"
       y1="0"
       x2="1"
       y2="0"
       id="linearGradient28174"
       xlink:href="#linearGradient5806"
       gradientUnits="userSpaceOnUse"
       gradientTransform="matrix(16.739349,0,0,-16.739349,434.35104,684.73805)"
       spreadMethod="pad" />
    <linearGradient
       x1="0"
       y1="0"
       x2="1"
       y2="0"
       id="linearGradient28176"
       xlink:href="#linearGradient5832"
       gradientUnits="userSpaceOnUse"
       gradientTransform="matrix(19.238449,0,0,-19.238449,451.09053,684.73805)"
       spreadMethod="pad" />
  </defs>
  <metadata
     id="metadata27768">
    <rdf:RDF>
      <cc:Work
         rdf:about="">
        <dc:format>image/svg+xml</dc:format>
        <dc:type
           rdf:resource="http://purl.org/dc/dcmitype/StillImage" />
        <dc:title></dc:title>
      </cc:Work>
    </rdf:RDF>
  </metadata>
  <g
     transform="translate(-72.857786,-242.98228)"
     id="layer1">
    <g
       transform="matrix(11.817995,0,0,11.817995,-4744.4618,-5111.968)"
       id="g28058">
      <g
         transform="matrix(1.25,0,0,-1.25,-135.01343,1336.7581)"
         id="g5618">
        <g
           id="g5620">
          <g
             id="g5626">
            <g
               id="g5628">
              <path
                 d="m 451.09,703.639 -0.058,0 c -0.083,0 -0.163,-10e-4 -0.244,-10e-4 l 0,0 c -7.909,0 -14.616,-2.628 -14.616,-2.628 l 0,0 c -0.103,-1.306 -0.163,-2.849 -0.152,-4.154 l 0,0 c 0.059,-6.764 1.572,-13.158 4.378,-18.494 l 0,0 c 2.702,-5.14 6.498,-8.939 10.692,-10.708 l 0,0 c 4.194,1.769 7.99,5.568 10.692,10.708 l 0,0 c 2.806,5.336 4.319,11.73 4.377,18.494 l 0,0 c 0.011,1.305 -0.049,2.848 -0.152,4.154 l 0,0 c 0,0 -6.707,2.628 -14.615,2.628 l 0,0 c -0.082,0 -0.162,10e-4 -0.245,10e-4 l 0,0 -0.057,0 z"
                 id="path5638"
                 style="fill:url(#radialGradient28168);stroke:none" />
            </g>
          </g>
        </g>
      </g>
      <g
         transform="matrix(1.25,0,0,-1.25,-135.01343,1336.7581)"
         id="g5640">
        <g
           clip-path="url(#clipPath5644)"
           id="g5642">
          <g
             transform="translate(457.7056,702.6027)"
             id="g5648">
            <path
               d="m 0,0 0.275,-0.861 0.906,0 -0.738,-0.524 0.287,-0.86 -0.73,0.538 -0.728,-0.538 0.286,0.86 -0.738,0.524 0.908,0 L 0,0 z"
               id="path5650"
               style="fill:#bac1c6;fill-opacity:1;fill-rule:nonzero;stroke:none" />
          </g>
          <g
             transform="translate(461.0927,700.8953)"
             id="g5652">
            <path
               d="m 0,0 0.274,-0.862 0.908,0.001 -0.738,-0.525 0.286,-0.859 -0.728,0.538 -0.731,-0.539 0.287,0.86 -0.738,0.524 0.907,0 L 0,0 z"
               id="path5654"
               style="fill:#bac1c6;fill-opacity:1;fill-rule:nonzero;stroke:none" />
          </g>
          <g
             transform="translate(462.2404,697.4579)"
             id="g5656">
            <path
               d="M 0,0 0.273,-0.862 1.181,-0.861 0.443,-1.386 0.73,-2.245 0,-1.707 l -0.73,-0.538 0.288,0.859 -0.738,0.524 0.906,0 L 0,0 z"
               id="path5658"
               style="fill:#bac1c6;fill-opacity:1;fill-rule:nonzero;stroke:none" />
          </g>
          <g
             transform="translate(460.5176,694.1619)"
             id="g5660">
            <path
               d="m 0,0 0.273,-0.861 0.908,0 -0.738,-0.524 0.287,-0.86 -0.729,0.538 -0.731,-0.538 0.288,0.859 -0.738,0.525 0.906,0 L 0,0 z"
               id="path5662"
               style="fill:#bac1c6;fill-opacity:1;fill-rule:nonzero;stroke:none" />
          </g>
        </g>
      </g>
      <g
         transform="matrix(1.25,0,0,-1.25,-135.01343,1336.7581)"
         id="g5664">
        <g
           id="g5666">
          <g
             id="g5672">
            <g
               id="g5674">
              <path
                 d="m 450.761,706.673 c -5.273,-0.045 -10.493,-0.982 -15.096,-2.709 l 0,0 -0.887,-0.333 1.188,-2.446 c 0.146,0.056 6.911,2.678 14.82,2.678 l 0,0 c 0.082,0 0.163,10e-4 0.245,10e-4 l 0,0 0.059,0 0.058,0 c 0.082,0 0.164,-10e-4 0.246,-10e-4 l 0,0 c 7.908,0 14.674,-2.622 14.82,-2.678 l 0,0 1.188,2.446 -0.887,0.333 c -4.604,1.727 -9.824,2.664 -15.097,2.709 l 0,0 c -0.109,0.002 -0.218,0.002 -0.327,0.002 l 0,0 c -0.111,0 -0.22,0 -0.33,-0.002"
                 id="path5688"
                 style="fill:url(#linearGradient28170);stroke:none" />
            </g>
          </g>
        </g>
      </g>
      <g
         transform="matrix(1.25,0,0,-1.25,-135.01343,1336.7581)"
         id="g5690">
        <g
           clip-path="url(#clipPath5694)"
           id="g5692">
          <g
             transform="translate(438.1795,703.4736)"
             id="g5698">
            <path
               d="m 0,0 0,-0.903 -0.269,-0.09 0,0.904 -0.476,-0.16 0,0.212 1.219,0.406 0,-0.211 L 0,0 z"
               id="path5700"
               style="fill:#6d6e71;fill-opacity:1;fill-rule:nonzero;stroke:none" />
          </g>
          <g
             transform="translate(439.3086,703.1334)"
             id="g5702">
            <path
               d="m 0,0 0.823,0.232 0,0.706 L 0,0.707 0,0 z m -0.249,0.571 c 0,0.104 0.019,0.179 0.055,0.226 0.039,0.046 0.108,0.084 0.21,0.113 l 0.79,0.223 c 0.103,0.029 0.173,0.03 0.21,0.005 0.038,-0.026 0.057,-0.09 0.057,-0.194 l 0,-0.587 C 1.073,0.253 1.054,0.178 1.016,0.131 0.979,0.085 0.909,0.047 0.806,0.018 l -0.79,-0.222 c -0.102,-0.029 -0.171,-0.031 -0.21,-0.006 -0.036,0.026 -0.055,0.09 -0.055,0.194 l 0,0.587 z"
               id="path5704"
               style="fill:#6d6e71;fill-opacity:1;fill-rule:nonzero;stroke:none" />
          </g>
          <g
             transform="translate(441.2063,704.5439)"
             id="g5706">
            <path
               d="m 0,0 0,-0.905 0.719,0.166 0,0.905 0.253,0.058 0,-0.851 C 0.972,-0.73 0.953,-0.804 0.916,-0.849 0.878,-0.894 0.807,-0.928 0.703,-0.952 L 0.017,-1.11 c -0.104,-0.024 -0.175,-0.023 -0.213,0.004 -0.038,0.028 -0.057,0.094 -0.057,0.197 l 0,0.851 L 0,0 z"
               id="path5708"
               style="fill:#6d6e71;fill-opacity:1;fill-rule:nonzero;stroke:none" />
          </g>
          <g
             transform="translate(443.7256,704.8708)"
             id="g5710">
            <path
               d="m 0,0 -0.72,-0.132 0,-0.24 0.687,0.126 c 0.104,0.019 0.177,0.015 0.215,-0.014 0.039,-0.029 0.059,-0.095 0.059,-0.199 l 0,-0.153 c 0,-0.103 -0.02,-0.178 -0.059,-0.22 -0.038,-0.043 -0.11,-0.075 -0.215,-0.094 L -0.711,-1.05 c -0.104,-0.02 -0.176,-0.015 -0.215,0.014 -0.04,0.029 -0.059,0.095 -0.059,0.199 l 0.005,0.053 0.221,0.041 0,-0.107 0.776,0.143 0,0.255 -0.685,-0.126 c -0.104,-0.019 -0.177,-0.015 -0.214,0.014 -0.038,0.029 -0.058,0.096 -0.058,0.199 l 0,0.123 c 0,0.104 0.02,0.178 0.058,0.22 0.037,0.043 0.11,0.075 0.214,0.094 l 0.623,0.114 c 0.1,0.019 0.17,0.014 0.211,-0.013 0.04,-0.027 0.06,-0.087 0.06,-0.181 l 0,-0.034 L 0,-0.083 0,0 z"
               id="path5712"
               style="fill:#6d6e71;fill-opacity:1;fill-rule:nonzero;stroke:none" />
          </g>
          <g
             transform="translate(446.6322,705.2792)"
             id="g5714">
            <path
               d="m 0,0 -0.581,-0.065 0,-0.341 0.581,0.065 0.083,0.022 0.033,0.081 0,0.161 L 0.083,-0.004 0,0 z m -0.834,-1.017 0,1.114 0.95,0.106 C 0.282,0.221 0.363,0.158 0.363,0.015 l 0,-0.289 c 0,-0.145 -0.081,-0.225 -0.247,-0.244 l -0.697,-0.078 0,-0.394 -0.253,-0.027 z"
               id="path5716"
               style="fill:#6d6e71;fill-opacity:1;fill-rule:nonzero;stroke:none" />
          </g>
          <g
             transform="translate(447.6719,704.6613)"
             id="g5718">
            <path
               d="m 0,0 0.853,0.059 0,0.707 L 0,0.706 0,0 z m -0.258,0.623 c 0,0.103 0.019,0.175 0.058,0.213 0.038,0.039 0.111,0.062 0.217,0.07 L 0.836,0.963 C 0.942,0.971 1.015,0.958 1.054,0.924 1.091,0.891 1.112,0.823 1.112,0.719 l 0,-0.587 C 1.112,0.028 1.091,-0.043 1.054,-0.082 1.015,-0.12 0.942,-0.144 0.836,-0.151 L 0.017,-0.209 c -0.106,-0.007 -0.179,0.006 -0.217,0.039 -0.039,0.034 -0.058,0.102 -0.058,0.205 l 0,0.588 z"
               id="path5720"
               style="fill:#6d6e71;fill-opacity:1;fill-rule:nonzero;stroke:none" />
          </g>
          <g
             transform="translate(449.6305,705.678)"
             id="g5722">
            <path
               d="m 0,0 0,-0.905 0.738,0.019 0,0.906 0.259,0.006 0,-0.851 c 0,-0.103 -0.02,-0.173 -0.058,-0.211 C 0.9,-1.073 0.827,-1.092 0.721,-1.095 L 0.017,-1.114 c -0.106,-0.003 -0.178,0.013 -0.218,0.048 -0.039,0.035 -0.059,0.104 -0.059,0.208 l 0,0.851 L 0,0 z"
               id="path5724"
               style="fill:#6d6e71;fill-opacity:1;fill-rule:nonzero;stroke:none" />
          </g>
          <g
             transform="translate(452.0792,705.5043)"
             id="g5726">
            <path
               d="m 0,0 -0.583,0.009 0,-0.313 0.583,-0.009 0.085,0.012 0.032,0.075 0,0.135 L 0.085,-0.014 0,0 z m -0.838,-0.912 0,1.115 0.955,-0.015 C 0.284,0.186 0.368,0.113 0.368,-0.031 l 0,-0.261 c 0,-0.145 -0.084,-0.215 -0.251,-0.213 l -0.147,0.002 0.513,-0.429 -0.37,0.006 -0.449,0.428 -0.247,0.004 0,-0.422 -0.255,0.004 z"
               id="path5728"
               style="fill:#6d6e71;fill-opacity:1;fill-rule:nonzero;stroke:none" />
          </g>
          <g
             transform="translate(455.1735,705.3218)"
             id="g5730">
            <path
               d="m 0,0 -0.808,0.067 0,-0.706 0.808,-0.067 0,0.231 -0.422,0.035 0,0.19 0.674,-0.056 0,-0.367 c 0,-0.103 -0.02,-0.172 -0.058,-0.205 C 0.155,-0.911 0.083,-0.922 -0.023,-0.913 L -0.79,-0.85 c -0.106,0.009 -0.179,0.033 -0.217,0.072 -0.039,0.039 -0.058,0.111 -0.058,0.214 l 0,0.587 c 0,0.105 0.019,0.173 0.058,0.206 0.038,0.032 0.111,0.044 0.217,0.036 L -0.023,0.201 C 0.08,0.192 0.152,0.169 0.191,0.13 0.232,0.092 0.252,0.023 0.252,-0.075 l 0,-0.058 L 0,-0.109 0,0 z"
               id="path5732"
               style="fill:#6d6e71;fill-opacity:1;fill-rule:nonzero;stroke:none" />
          </g>
          <g
             transform="translate(456.2943,704.7316)"
             id="g5734">
            <path
               d="M 0,0 0.485,-0.061 0.246,0.423 0,0 z m -0.495,-0.383 0.625,1.036 0.249,-0.031 0.634,-1.194 -0.289,0.036 -0.132,0.261 -0.701,0.088 -0.129,-0.228 -0.257,0.032 z"
               id="path5736"
               style="fill:#6d6e71;fill-opacity:1;fill-rule:nonzero;stroke:none" />
          </g>
          <g
             transform="translate(458.7791,704.8328)"
             id="g5738">
            <path
               d="m 0,0 -0.798,0.136 0,-0.706 0.798,-0.137 0,0.222 -0.417,0.071 0,0.19 0.666,-0.113 0,-0.358 c 0,-0.103 -0.019,-0.17 -0.057,-0.199 -0.039,-0.03 -0.109,-0.036 -0.215,-0.018 l -0.758,0.129 c -0.106,0.018 -0.176,0.048 -0.216,0.09 -0.038,0.043 -0.057,0.116 -0.057,0.22 l 0,0.587 c 0,0.104 0.019,0.17 0.057,0.2 0.04,0.029 0.11,0.035 0.216,0.017 L -0.023,0.202 C 0.08,0.185 0.149,0.155 0.189,0.114 0.229,0.071 0.249,0.001 0.249,-0.097 l 0,-0.063 L 0,-0.114 0,0 z"
               id="path5740"
               style="fill:#6d6e71;fill-opacity:1;fill-rule:nonzero;stroke:none" />
          </g>
          <g
             transform="translate(459.6911,703.7449)"
             id="g5742">
            <path
               d="M 0,0 0,1.115 0.173,1.076 0.938,0.251 1.063,0.103 C 1.055,0.207 1.052,0.273 1.052,0.297 l 0,0.586 0.228,-0.051 0,-1.114 L 1.107,-0.244 0.308,0.621 0.217,0.732 C 0.224,0.658 0.227,0.599 0.227,0.553 l 0,-0.603 L 0,0 z"
               id="path5744"
               style="fill:#6d6e71;fill-opacity:1;fill-rule:nonzero;stroke:none" />
          </g>
          <g
             transform="translate(461.6497,703.2925)"
             id="g5746">
            <path
               d="m 0,0 0,1.114 1.1,-0.299 0,-0.19 -0.849,0.231 0,-0.248 0.496,-0.135 0,-0.19 -0.496,0.135 0,-0.277 0.861,-0.234 0,-0.209 L 0,0 z"
               id="path5748"
               style="fill:#6d6e71;fill-opacity:1;fill-rule:nonzero;stroke:none" />
          </g>
          <g
             transform="translate(464.1427,703.481)"
             id="g5750">
            <path
               d="m 0,0 -0.556,0.18 0,-0.313 L 0,-0.313 0.079,-0.326 0.11,-0.26 0.11,-0.125 0.079,-0.04 0,0 z m -0.798,-0.666 0,1.115 L 0.11,0.154 C 0.269,0.102 0.349,0.004 0.349,-0.139 l 0,-0.262 c 0,-0.144 -0.08,-0.19 -0.239,-0.139 l -0.139,0.046 0.423,-0.559 -0.353,0.115 -0.362,0.538 -0.235,0.077 0,-0.421 -0.242,0.078 z"
               id="path5752"
               style="fill:#6d6e71;fill-opacity:1;fill-rule:nonzero;stroke:none" />
          </g>
          <g
             transform="translate(436.1722,701.0097)"
             id="g5754">
            <path
               d="m 0,0 c 0,0 6.707,2.628 14.615,2.628 0.082,0 0.162,10e-4 0.245,10e-4 l 0.058,0 0.057,0 c 0.083,0 0.163,-10e-4 0.245,-10e-4 C 23.128,2.628 29.835,0 29.835,0 c 0.103,-1.306 0.163,-2.848 0.152,-4.154 -0.058,-6.763 -1.571,-13.158 -4.377,-18.494 -2.702,-5.139 -6.498,-8.939 -10.692,-10.708 -4.194,1.769 -7.991,5.569 -10.692,10.708 -2.806,5.336 -4.32,11.731 -4.378,18.494 C -0.163,-2.848 -0.103,-1.306 0,0 m 4.026,-22.753 c 1.359,-2.583 2.975,-4.825 4.805,-6.662 1.859,-1.866 3.892,-3.268 6.043,-4.167 l 0.043,-0.018 10e-4,0 0,0 0.043,0.018 c 2.151,0.899 4.184,2.301 6.043,4.167 1.83,1.837 3.446,4.079 4.805,6.662 2.823,5.368 4.346,11.798 4.403,18.596 0.012,1.377 -0.043,2.728 -0.171,4.332 -0.146,0.057 -6.911,2.678 -14.819,2.678 -0.082,0 -0.164,10e-4 -0.246,10e-4 l -0.058,0 -0.059,0 c -0.082,0 -0.164,-10e-4 -0.245,-10e-4 -7.909,0 -14.674,-2.621 -14.82,-2.678 -0.128,-1.604 -0.183,-2.955 -0.171,-4.332 0.057,-6.798 1.58,-13.228 4.403,-18.596"
               id="path5756"
               style="fill:#a7aeb3;fill-opacity:1;fill-rule:nonzero;stroke:none" />
          </g>
          <g
             transform="translate(466.93,683.0878)"
             id="g5758">
            <path
               d="m 0,0 -0.106,0 0,0.468 -0.209,0 0,0.101 0.524,0 0,-0.101 L 0,0.468 0,0 z"
               id="path5760"
               style="fill:#000000;fill-opacity:1;fill-rule:nonzero;stroke:none" />
          </g>
          <g
             transform="translate(467.2686,683.6567)"
             id="g5762">
            <path
               d="M 0,0 0.085,0 0.3,-0.344 0.51,0 l 0.085,0 0,-0.569 -0.098,0 0,0.352 0.004,0.061 -0.027,-0.06 -0.171,-0.285 -0.022,0 -0.171,0.286 -0.027,0.059 0.002,-0.061 0,-0.352 L 0,-0.569 0,0 z"
               id="path5764"
               style="fill:#000000;fill-opacity:1;fill-rule:nonzero;stroke:none" />
          </g>
        </g>
      </g>
      <g
         transform="matrix(1.25,0,0,-1.25,-135.01343,1336.7581)"
         id="g5766">
        <g
           id="g5768">
          <g
             id="g5774">
            <g
               id="g5776">
              <path
                 d="m 441.94,702.652 c -0.228,-0.713 -0.302,-1.503 -0.138,-2.374 l 0,0 c 0.04,-0.209 0.091,-0.422 0.158,-0.639 l 0,0 c 0.49,-1.562 1.842,-4.839 2.177,-6.149 l 0,0 c 0.337,-1.31 0.482,-2.231 0.482,-2.231 l 0,0 c 0,0 -0.776,-10e-4 -1.275,0 l 0,0 c -0.278,1.387 -0.585,2.501 -1.383,4.228 l 0,0 c -1.465,3.169 -3.429,4.831 -5.495,4.529 l 0,0 c -0.124,-0.018 -0.246,-0.044 -0.366,-0.076 l 0,0 c -0.057,-1.03 -0.088,-2.121 -0.08,-3.084 l 0,0 c 0.011,-1.366 0.084,-2.716 0.213,-4.045 l 0,0 c 0.41,0.864 1.002,1.364 1.781,1.478 l 0,0 c 1.025,0.147 2.026,-0.101 2.736,-0.694 l 0,0 c 1.1,-0.922 1.105,-2.336 1.105,-2.336 l 0,0 -2.531,0 0.564,-2.16 c 0,0 3.778,10e-4 4.443,0 l 0,0 c -0.174,-0.934 -1.543,-1.701 -2.963,-1.854 l 0,0 c 0.041,-0.095 0.096,-0.2 0.216,-0.304 l 0,0 c 0.226,-0.2 0.792,-0.498 2.072,-0.27 l 0,0 0.526,0.094 c 0,0 -0.055,-0.321 0,-0.758 l 0,0 1.363,0.416 0,16.856 c -1.297,-0.173 -2.509,-0.393 -3.605,-0.627"
                 id="path5792"
                 style="fill:url(#linearGradient28172);stroke:none" />
            </g>
          </g>
        </g>
      </g>
      <g
         transform="matrix(1.25,0,0,-1.25,-135.01343,1336.7581)"
         id="g5794">
        <g
           id="g5796">
          <g
             id="g5802">
            <g
               id="g5804">
              <path
                 d="m 434.667,702.688 c -0.225,-1.923 -0.331,-3.891 -0.314,-5.847 l 0,0 c 0.038,-4.524 0.707,-8.895 1.961,-12.921 l 0,0 -0.001,0.002 c -1.041,-0.553 -1.591,-1.494 -1.598,-2.761 l 0,0 c -0.009,-1.518 0,-6.093 0,-6.139 l 0,0 0.001,-0.332 6.476,-0.793 c 2.611,-3.636 5.821,-6.348 9.298,-7.801 l 0,0 0.601,-0.251 0,1.564 -0.001,0 -10e-4,0 -0.042,0.018 c -2.151,0.899 -4.185,2.302 -6.044,4.167 l 0,0 c -1.83,1.837 -3.445,4.079 -4.805,6.663 l 0,0 c -2.822,5.368 -4.346,11.798 -4.403,18.596 l 0,0 c -0.011,1.377 0.044,2.728 0.171,4.332 l 0,0 -1.188,2.446 -0.111,-0.943 z"
                 id="path5818"
                 style="fill:url(#linearGradient28174);stroke:none" />
            </g>
          </g>
        </g>
      </g>
      <g
         transform="matrix(1.25,0,0,-1.25,-135.01343,1336.7581)"
         id="g5820">
        <g
           id="g5822">
          <g
             id="g5828">
            <g
               id="g5830">
              <path
                 d="m 466.214,701.185 c 0.127,-1.604 0.182,-2.955 0.17,-4.332 l 0,0 c -0.057,-6.798 -1.58,-13.228 -4.402,-18.596 l 0,0 c -1.36,-2.584 -2.976,-4.826 -4.805,-6.663 l 0,0 c -1.86,-1.865 -3.893,-3.268 -6.044,-4.167 l 0,0 -0.042,-0.018 0,-1.564 0.599,0.251 c 4.569,1.91 8.677,5.991 11.569,11.49 l 0,0 c 1.061,2.018 1.944,4.178 2.642,6.447 l 0,0 2.085,0.637 c 1.522,0.464 2.331,1.524 2.34,3.063 l 0,0 c 0.009,1.518 0,6.093 0,6.139 l 0,0 0,0.209 -2.524,1.574 c 0.013,0.394 0.022,0.789 0.025,1.186 l 0,0 c 0.015,1.956 -0.089,3.924 -0.314,5.847 l 0,0 -0.111,0.943 -1.188,-2.446 z"
                 id="path5844"
                 style="fill:url(#linearGradient28176);stroke:none" />
            </g>
          </g>
        </g>
      </g>
      <g
         transform="matrix(1.25,0,0,-1.25,426.0197,477.47708)"
         id="g5854">
        <path
           d="m 0,0 c -1.056,0.311 -1.929,0.941 -2.066,1.674 0.664,0.002 4.444,0 4.444,0 l 0.562,2.161 -2.531,0 c 0,0 0.006,1.413 1.107,2.335 0.71,0.593 1.71,0.842 2.736,0.694 C 5.4,6.698 6.145,5.687 6.494,3.908 7.481,4.231 8.652,5.241 9.014,7.133 9.549,9.931 7.891,12.283 5.8,12.592 3.733,12.894 1.769,11.231 0.304,8.062 -0.494,6.336 -0.8,5.222 -1.079,3.835 c -0.498,-0.002 -1.274,0 -1.274,0 0,0 0.144,0.92 0.479,2.231 0.337,1.31 1.689,4.587 2.178,6.149 0.067,0.216 0.12,0.429 0.158,0.638 0.241,1.269 -0.024,2.37 -0.541,3.303 -1.108,-0.061 -2.18,-0.167 -3.202,-0.302 l 0,-16.856 L 0,0 z"
           id="path5856"
           style="fill:#ffffff;fill-opacity:1;fill-rule:nonzero;stroke:none" />
      </g>
      <g
         transform="matrix(1.25,0,0,-1.25,408.85058,492.97908)"
         id="g5858">
        <path
           d="M 0,0 5.808,-0.71 C 5.349,-0.046 4.908,0.649 4.49,1.371 L 0,0 z"
           id="path5860"
           style="fill:#636466;fill-opacity:1;fill-rule:nonzero;stroke:none" />
      </g>
      <g
         transform="matrix(1.25,0,0,-1.25,449.71682,467.73158)"
         id="g5862">
        <path
           d="M 0,0 C -0.029,-0.688 -0.071,-1.372 -0.131,-2.05 L 2.164,-1.35 0,0 z"
           id="path5864"
           style="fill:#636466;fill-opacity:1;fill-rule:nonzero;stroke:none" />
      </g>
      <path
         d="m 452.4222,469.41858 -40.97999,12.50875 c -1.43125,0.43625 -2.58,1.41125 -2.59125,3.38125 -0.0112,1.91875 0,7.67 0,7.67 l 7.6625,-2.3375 c 0.9375,1.5675 1.95749,3.0175 3.04999,4.33875 l 0,-5.27 2.355,-0.72 0,8.53 c 0.97875,0.9375 1.9975,1.77625 3.04875,2.51125 l 0,-11.9725 2.35625,-0.7175 0,14.12625 c 0.50375,0.265 1.01125,0.50625 1.525,0.7225 0.515,-0.21625 1.0225,-0.4575 1.52625,-0.7225 l 0,-15.0575 2.245,-0.685 0,14.38125 c 1.0525,-0.72375 2.07125,-1.55625 3.05125,-2.48375 l 0,-12.83 2.245,-0.685 0,11.13375 c 1.08875,-1.2875 2.11125,-2.70625 3.05,-4.24 l 0,-7.825 2.245,-0.685 0,4.28625 c 0.71875,-1.5625 1.3525,-3.18875 1.9025,-4.8675 l 4.7175,-1.43875 c 1.43125,-0.4375 2.58,-1.41125 2.59125,-3.3825 0.0113,-1.9175 0,-7.67 0,-7.67"
         id="path5868"
         style="fill:#000000;fill-opacity:1;fill-rule:nonzero;stroke:none" />
      <g
         transform="matrix(1.25,0,0,-1.25,426.50944,479.90808)"
         id="g5870">
        <path
           d="M 0,0 C -0.002,0.525 0.486,1.053 1.1,1.241 1.586,1.39 1.913,1.277 1.913,1.068 1.913,0.941 1.815,0.823 1.685,0.783 1.543,0.739 1.443,0.783 1.441,0.897 L 1.465,0.994 C 1.403,1.015 1.281,1.018 1.091,0.96 0.682,0.835 0.371,0.479 0.374,0.116 c 0,-0.349 0.296,-0.538 0.738,-0.402 0.245,0.075 0.446,0.227 0.602,0.414 L 1.953,-0.005 C 1.751,-0.256 1.449,-0.462 1.113,-0.565 0.466,-0.762 0.003,-0.543 0,0"
           id="path5872"
           style="fill:#bac1c6;fill-opacity:1;fill-rule:nonzero;stroke:none" />
      </g>
      <g
         transform="matrix(1.25,0,0,-1.25,430.81557,479.3482)"
         id="g5874">
        <path
           d="M 0,0 0.261,0.08 0.256,1.296 -0.133,1.177 -0.131,0.902 -0.473,0.798 -0.475,1.332 1.345,1.888 1.347,1.354 1.005,1.249 1.005,1.525 0.615,1.406 0.621,0.19 0.883,0.27 0.883,0.002 0.001,-0.268 0,0 z"
           id="path5876"
           style="fill:#bac1c6;fill-opacity:1;fill-rule:nonzero;stroke:none" />
      </g>
      <g
         transform="matrix(1.25,0,0,-1.25,413.01121,483.2767)"
         id="g5878">
        <path
           d="m 0,0 0.254,0.345 -0.891,-0.271 0.003,-0.268 0.275,0.084 0.004,-1.208 -0.279,-0.085 0.002,-0.268 0.932,0.285 0,0.268 L 0.006,-1.207 0,0 z"
           id="path5880"
           style="fill:#bac1c6;fill-opacity:1;fill-rule:nonzero;stroke:none" />
      </g>
      <g
         transform="matrix(1.25,0,0,-1.25,417.61108,481.87095)"
         id="g5882">
        <path
           d="m 0,0 0,0 0.26,0.347 -0.571,-0.174 -0.639,-1.166 -0.647,0.772 -0.575,-0.175 0.263,-0.188 -0.062,-1.228 -0.249,-0.076 0.002,-0.267 0.855,0.261 -0.002,0.267 -0.252,-0.077 0.038,0.911 0.603,-0.691 0.047,0.014 0.595,1.057 0.046,-0.885 -0.251,-0.077 0,-0.267 0.86,0.263 L 0.32,-1.111 0.072,-1.188 0,0 z"
           id="path5884"
           style="fill:#bac1c6;fill-opacity:1;fill-rule:nonzero;stroke:none" />
      </g>
      <g
         transform="matrix(1.25,0,0,-1.25,421.05569,481.19658)"
         id="g5886">
        <path
           d="M 0,0 C 0.001,-0.207 -0.159,-0.383 -0.429,-0.466 -0.575,-0.51 -0.627,-0.523 -0.664,-0.532 l -0.003,0.63 0.225,0.069 C -0.184,0.246 -0.001,0.182 0,0 m -0.423,0.441 -0.846,-0.258 0.241,-0.195 0.006,-1.207 -0.239,-0.073 10e-4,-0.268 0.861,0.262 -0.002,0.269 -0.261,-0.081 -0.001,0.313 c 0.044,0.011 0.104,0.03 0.204,0.06 0.494,0.151 0.834,0.451 0.832,0.851 C 0.37,0.469 0.026,0.578 -0.423,0.441"
           id="path5888"
           style="fill:#bac1c6;fill-opacity:1;fill-rule:nonzero;stroke:none" />
      </g>
      <g
         transform="matrix(1.25,0,0,-1.25,423.64469,480.87321)"
         id="g5890">
        <path
           d="M 0,0 0.289,0.776 0.586,0.18 0,0 z M 1.188,-0.17 0.66,0.88 0.889,0.951 0.887,1.216 -0.297,0.853 l 0.229,-0.195 -0.517,-1.369 -0.18,-0.056 0.002,-0.267 0.805,0.246 -0.001,0.265 -0.256,-0.078 0.117,0.322 0.784,0.239 0.119,-0.249 -0.242,-0.075 0.002,-0.264 0.806,0.246 -0.002,0.268 -0.181,-0.056 z"
           id="path5892"
           style="fill:#bac1c6;fill-opacity:1;fill-rule:nonzero;stroke:none" />
      </g>
      <g
         transform="matrix(1.25,0,0,-1.25,421.37194,485.41283)"
         id="g5894">
        <path
           d="M 0,0 C -0.003,0.586 -0.483,0.864 -1.137,0.664 -1.796,0.463 -2.272,-0.103 -2.269,-0.693 -2.267,-1.279 -1.787,-1.557 -1.128,-1.355 -0.475,-1.156 0.002,-0.59 0,0 m -2.872,-0.878 c -0.005,0.826 0.714,1.679 1.743,1.994 1.025,0.313 1.727,-0.11 1.732,-0.932 0.003,-0.825 -0.714,-1.679 -1.743,-1.994 -1.026,-0.312 -1.728,0.111 -1.732,0.932"
           id="path5896"
           style="fill:#ffffff;fill-opacity:1;fill-rule:nonzero;stroke:none" />
      </g>
      <g
         transform="matrix(1.25,0,0,-1.25,429.20069,484.24158)"
         id="g5898">
        <path
           d="M 0,0 0.422,0.129 0.413,2.092 -0.216,1.9 -0.213,1.455 -0.765,1.287 -0.767,2.152 2.171,3.05 2.175,2.186 1.624,2.017 1.622,2.462 0.993,2.27 1.002,0.306 1.426,0.435 1.427,0.004 0.002,-0.432 0,0 z"
           id="path5900"
           style="fill:#ffffff;fill-opacity:1;fill-rule:nonzero;stroke:none" />
      </g>
      <g
         transform="matrix(1.25,0,0,-1.25,425.66594,482.33833)"
         id="g5902">
        <path
           d="m 0,0 0.002,-0.433 0.423,0.13 0.007,-1.429 -1.864,1.294 -0.808,-0.247 0.387,-0.314 0.009,-1.951 -0.386,-0.118 0.002,-0.431 1.349,0.411 -0.003,0.433 -0.421,-0.13 -0.008,1.537 1.977,-1.367 0.317,0.097 -0.009,2.382 0.369,0.113 L 1.342,0.41 0,0 z"
           id="path5904"
           style="fill:#ffffff;fill-opacity:1;fill-rule:nonzero;stroke:none" />
      </g>
      <g
         transform="matrix(1.25,0,0,-1.25,435.3572,480.46445)"
         id="g5906">
        <path
           d="m 0,0 c 0.001,-0.295 -0.308,-0.569 -0.745,-0.703 -0.184,-0.056 -0.268,-0.078 -0.329,-0.092 l -0.005,0.903 0.316,0.096 C -0.296,0.347 -0.001,0.295 0,0 M 0.601,0.202 C 0.598,0.774 0.041,0.883 -0.735,0.644 l -1.313,-0.401 0.389,-0.313 0.008,-1.951 -0.386,-0.117 0.003,-0.433 1.389,0.425 -0.001,0.432 -0.424,-0.129 -0.003,0.633 c 0.073,0.017 0.171,0.047 0.279,0.08 0.067,0.021 0.161,0.06 0.233,0.086 L 0.132,-1.909 0.878,-1.68 0.877,-1.249 0.49,-1.366 -0.033,-0.76 c 0.371,0.237 0.636,0.598 0.634,0.962"
           id="path5908"
           style="fill:#ffffff;fill-opacity:1;fill-rule:nonzero;stroke:none" />
      </g>
      <g
         transform="matrix(1.25,0,0,-1.25,440.5257,478.80396)"
         id="g5910">
        <path
           d="m 0,0 -0.004,0.804 -2.527,-0.773 0.388,-0.313 10e-4,0 0.009,-1.952 -0.387,-0.118 0.003,-0.431 2.532,0.774 -0.004,0.804 -0.556,-0.17 0.002,-0.376 -1.009,-0.309 -0.003,0.796 1.023,0.312 L -0.534,-0.54 -1.557,-0.853 -1.561,-0.1 -0.558,0.207 -0.555,-0.17 0,0 z"
           id="path5912"
           style="fill:#ffffff;fill-opacity:1;fill-rule:nonzero;stroke:none" />
      </g>
      <g
         transform="matrix(1.25,0,0,-1.25,443.17932,478.89283)"
         id="g5914">
        <path
           d="M 0,0 0.468,1.253 0.947,0.289 0,0 z M 1.92,-0.275 1.066,1.423 1.438,1.536 1.435,1.963 -0.479,1.378 l 0.371,-0.314 0.001,0 -0.835,-2.214 -0.318,-0.096 0.003,-0.433 1.3,0.398 -0.002,0.423 -0.386,-0.113 0.187,0.52 1.267,0.387 0.193,-0.404 -0.361,-0.113 0.002,-0.426 1.273,0.39 -0.003,0.432 -0.293,-0.09 z"
           id="path5916"
           style="fill:#ffffff;fill-opacity:1;fill-rule:nonzero;stroke:none" />
      </g>
      <g
         transform="matrix(1.25,0,0,-1.25,449.27769,477.61358)"
         id="g5918">
        <path
           d="M 0,0 0.001,-0.398 -0.932,-0.683 -0.94,1.273 -0.492,1.41 -0.494,1.841 -1.908,1.409 -1.521,1.095 -1.512,-0.856 -1.898,-0.974 -1.896,-1.406 0.564,-0.655 0.56,0.172 0,0 z"
           id="path5920"
           style="fill:#ffffff;fill-opacity:1;fill-rule:nonzero;stroke:none" />
      </g>
      <g
         transform="matrix(1.25,0,0,-1.25,416.59208,485.65283)"
         id="g5922">
        <path
           d="m 0,0 0,0 0.42,0.56 0,0.001 -0.921,-0.281 -1.033,-1.884 -1.048,1.248 -0.924,-0.283 0.423,-0.303 -0.1,-1.984 -0.402,-0.122 0.003,-0.431 1.379,0.421 -0.002,0.431 -0.406,-0.124 0.06,1.471 0.974,-1.117 0.077,0.025 0.962,1.706 0.073,-1.429 -0.406,-0.125 0.002,-0.431 1.39,0.425 L 0.518,-1.795 0.117,-1.917 0,0 z"
           id="path5924"
           style="fill:#ffffff;fill-opacity:1;fill-rule:nonzero;stroke:none" />
      </g>
      <g
         transform="matrix(1.25,0,0,-1.25,439.83132,477.28833)"
         id="g5926">
        <path
           d="M 0,0 -0.002,0.474 -1.63,-0.552 0,0 z"
           id="path5928"
           style="fill:#bac1c6;fill-opacity:1;fill-rule:nonzero;stroke:none" />
      </g>
    </g>
  </g>
</svg>
