<?xml version="1.0" encoding="UTF-8" standalone="no"?>
<!-- Created with Inkscape (http://www.inkscape.org/) -->

<svg
   xmlns:dc="http://purl.org/dc/elements/1.1/"
   xmlns:cc="http://creativecommons.org/ns#"
   xmlns:rdf="http://www.w3.org/1999/02/22-rdf-syntax-ns#"
   xmlns:svg="http://www.w3.org/2000/svg"
   xmlns="http://www.w3.org/2000/svg"
   xmlns:sodipodi="http://sodipodi.sourceforge.net/DTD/sodipodi-0.dtd"
   xmlns:inkscape="http://www.inkscape.org/namespaces/inkscape"
   version="1.1"
   width="283.00006"
   height="228.442"
   id="svg4889"
   xml:space="preserve"
   inkscape:version="0.48.1 "
   sodipodi:docname="New York Red Bulls logo.svg"><sodipodi:namedview
     pagecolor="#ffffff"
     bordercolor="#666666"
     borderopacity="1"
     objecttolerance="10"
     gridtolerance="10"
     guidetolerance="10"
     inkscape:pageopacity="0"
     inkscape:pageshadow="2"
     inkscape:window-width="1280"
     inkscape:window-height="731"
     id="namedview4981"
     showgrid="false"
     fit-margin-top="0"
     fit-margin-left="0"
     fit-margin-right="0"
     fit-margin-bottom="0"
     inkscape:zoom="0.49027978"
     inkscape:cx="-194.02273"
     inkscape:cy="114.22212"
     inkscape:window-x="-4"
     inkscape:window-y="-4"
     inkscape:window-maximized="1"
     inkscape:current-layer="svg4889" /><metadata
     id="metadata4895"><rdf:RDF><cc:Work
         rdf:about=""><dc:format>image/svg+xml</dc:format><dc:type
           rdf:resource="http://purl.org/dc/dcmitype/StillImage" /><dc:title /></cc:Work></rdf:RDF></metadata><defs
     id="defs4893"><clipPath
       id="clipPath4903"><path
         d="M 0,612 792,612 792,0 0,0 0,612 z"
         id="path4905"
         inkscape:connector-curvature="0" /></clipPath></defs><path
     style="fill:#ffffff;fill-opacity:1;fill-rule:nonzero;stroke:none"
     id="path4907"
     d="m 282.87675,141.316 c -0.1025,-0.4125 -0.261,-0.857 -0.3905,-1.2035 l -0.122,-0.3225 c -0.1,-0.2635 -0.1955,-0.5175 -0.293,-0.8005 -0.039,-0.1265 -0.0805,-0.251 -0.1025,-0.356 -0.017,-0.078 -0.0195,-0.154 -0.0145,-0.232 0.134,-1.5065 -0.2445,-2.2895 -0.8345,-3.3125 -0.457,-0.8005 -1.099,-1.113 -1.5285,-1.133 -0.11,0.3175 -0.408,0.5105 -0.7375,0.5105 -0.046,0 -0.09,-0.005 -0.1365,-0.01 -0.4245,-0.0655 -0.7175,-0.4855 -0.6685,-0.91 0.012,-0.1025 0.0245,-0.21 0.0295,-0.332 0.012,-0.4005 -0.076,-0.7595 -0.276,-1.133 -0.5055,-0.947 -4.1525,-3.949 -5.5385,-3.949 -1.123,0 -2.2995,0.6145 -3.154,1.6475 -0.1515,0.188 -0.3785,0.293 -0.6175,0.293 -0.0245,0 -0.049,-0.002 -0.076,-0.005 -0.2635,-0.0245 -0.4975,-0.178 -0.627,-0.415 -0.122,-0.2245 -0.227,-0.4665 -0.322,-0.7225 -0.249,-0.659 -0.3955,-1.33 -0.537,-1.9795 l -0.1075,-0.498 c -0.3885,-1.689 -0.9545,-3.3905 -3.21,-4.047 -0.183,-0.054 -0.4225,-0.0945 -0.71,-0.1185 -0.244,-0.0255 -0.5105,-0.0355 -0.7815,-0.0425 l -0.205,-0.005 c -0.454,-0.01 -0.9225,-0.0235 -1.3865,-0.088 -0.925,-0.1355 -1.5425,-0.437 -1.5425,-1.4745 0,-0.09 0.0145,-0.178 0.044,-0.2625 l 0.249,-0.7125 c 0.183,-0.5195 0.4465,-1.322 0.654,-2.2775 0.3885,-1.772 0.4175,-3.3965 0.0905,-4.827 -0.061,-0.2585 0.0145,-0.5295 0.1955,-0.721 0.151,-0.165 0.363,-0.2575 0.5855,-0.2575 0.039,0 0.078,0.002 0.1145,0.01 0.928,0.1405 1.682,0.1525 1.892,0.1525 4.8085,0 12.444,-3.139 12.444,-11.57 0,-4.8415 -3.9255,-9.4465 -7.213,-12.4575 -0.2145,-0.1975 -0.3075,-0.4975 -0.2365,-0.7835 0.0705,-0.2845 0.2905,-0.5065 0.573,-0.582 4.6795,-1.2195 7.2575,-4.334 7.2575,-8.7655 l 0,-0.2955 c 0.002,-0.692 0.005,-1.4765 -0.1345,-2.319 -0.193,-1.1775 -0.63,-2.265 -1.323,-3.3265 -0.076,-0.11 -0.1905,-0.236 -0.452,-0.236 -0.1,0 -0.1685,0.021 -0.195,0.026 -0.1855,0.05 -0.3855,0.1745 -0.522,0.2645 -0.4345,0.287 -1.0645,0.8225 -1.5675,1.2575 -0.571,0.489 -1.257,0.8515 -2.221,1.174 -0.586,0.195 -1.1935,0.3575 -1.843,0.528 -0.3395,0.087 -0.686,0.1795 -1.05,0.282 -2.2285,0.625 -4.6645,1.5305 -7.374,3.9145 -1.237,1.092 -2.0965,2.907 -2.1795,4.6265 -0.0755,1.445 0.4615,2.9365 1.6475,4.5645 1.023,1.417 2.3825,2.75 3.8055,4.1045 l 0.5055,0.482 c 0.517,0.4945 1.03,0.985 1.518,1.472 0.7425,0.7375 1.299,1.3425 1.755,1.9005 1.128,1.3865 1.6555,2.5265 1.6555,3.587 0,2.2615 -1.619,3.7835 -4.0745,3.7835 -2.712,-0.02 -4.799,-1.062 -7.701,-2.979 -0.442,-0.2955 -0.8955,-0.601 -1.362,-0.916 -0.9645,-0.649 -1.9605,-1.3215 -3.0685,-2.0135 -2.011,-1.2545 -3.8665,-2.252 -5.846,-3.1355 -0.549,-0.245 -1.095,-0.461 -1.6595,-0.6575 l 0,-93.712 -203.108998,0 0,93.9 c -1.0355,0.261 -2.0315,0.611 -3.0245,1.0775 -1.3645,0.642 -2.741,1.4645 -4.4695,2.6645 -0.747,0.517 -1.479,1.048 -2.199,1.578 -0.6445,0.467 -1.279,0.93 -1.9115,1.3715 -2.8495,1.997 -5.292,3.3245 -7.9415,3.3245 -2.6165,0 -4.4745,-1.5305 -4.7295,-3.899 -0.222,-2.0895 0.845,-4.2 3.0075,-5.949 l 1.1925,-0.9555 c 0.8845,-0.709 1.717,-1.3765 2.471,-2.021 1.255,-1.0775 2.1105,-1.948 2.7685,-2.812 1.6265,-2.138 2.039,-4.3375 1.341,-7.1315 -0.63,-2.513 -2.5615,-4.2235 -5.9085,-5.227 -1.1945,-0.3625 -2.409,-0.58 -3.5465,-0.764 l -0.3955,-0.0635 c -0.35,-0.055 -0.6675,-0.1075 -0.9395,-0.1575 -0.3675,-0.067 -0.6225,-0.132 -0.7725,-0.194 -1.815,-0.808 -5.761,-3.448 -6.5515004,-3.98 l -0.3225,-0.2175 -0.2195,0.32 c -0.7225,1.035 -1.29,1.855 -1.722,5.452 -0.475,3.9715 2.797,8.8175 8.4310004,9.705 0.3125,0.05 0.5675,0.283 0.649,0.5885 0.081,0.3085 -0.029,0.6345 -0.2795,0.832 -5.9595004,4.687 -7.2290004,6.698 -7.5435004,11.9645 -0.193,3.265 0.947,6.466 3.1365004,8.7885 2.3895,2.535 5.852,3.874 10.019,3.874 1.1095,0 2.281,-0.095 3.482,-0.282 0.0415,-0.007 0.084,-0.009 0.1245,-0.009 0.1795,0 0.355,0.0595 0.494,0.172 0.1785,0.138 0.2855,0.3425 0.303,0.565 0.278,3.664 0.942,6.643 1.772,7.9735 0.2025,0.324 0.1475,0.7515 -0.1345,1.0125 -0.2575,0.2345 -0.6625,0.4665 -1.175,0.664 -1.272,0.4985 -3.199,0.806 -5.121,0.806 -1.2,0 -2.092,0.822 -2.8095,2.592 -0.2335,0.5735 -0.4225,1.186 -0.6105,1.7795 l -0.0525,0.166 c -0.0955,0.3025 -0.184,0.581 -0.2745,0.825 -0.083,0.229 -0.1695,0.439 -0.2625,0.6125 -0.2405,0.427 -0.5955,0.847 -1.0875,1.2815 -0.15,0.132 -0.338,0.2005 -0.5295,0.2005 -0.0455,0 -0.093,0 -0.1355,-0.01 -0.2395,-0.0415 -0.447,-0.1905 -0.565,-0.4 -0.587,-1.06 -1.5145,-1.7355 -2.752,-2.0065 l -0.027,-0.002 -0.1245,0 c -1.831,0 -4.9920004,1.545 -6.1575004,4.4495 -0.1095,0.2685 -0.36,0.464 -0.6515,0.4935 l -0.1455,0.0195 c -1.4595,0.151 -2.3775,0.8295 -2.8975,2.1285 -0.217,0.5515 -0.3465,1.167 -0.449,1.7035 l -0.078,0.3955 c -0.082,0.449 -0.1695,0.901 -0.2845,1.3425 -0.0925,0.3535 -0.217,0.664 -0.40749997,1.0105 -0.093,0.171 -0.188,0.3245 -0.275,0.4735 -0.068,0.1125 -0.135,0.22 -0.1925,0.3225 -0.3245,0.5955 -0.4895,1.2055 -0.2295,2.2455 0.1175,0.476 0.494,0.886 1.11699997,1.223 0.46,0.2515 1.0565,0.466 1.772,0.6395 1.2695,0.31 2.5275,0.4075 2.769,0.4075 0.176,0 0.348,-0.049 0.5175,-0.1465 0.1235,-0.066 0.238,-0.1585 0.3725,-0.259 0.145,-0.1095 0.3405,-0.1805 0.5295,-0.1805 0.04,0 0.083,0.005 0.1235,0.01 l 0.592,0.112 c 0.488,0.093 1.0945,0.215 1.6975,0.337 l 0.0975,0.022 c 0.5775004,0.1145 1.1475004,0.227 1.6100004,0.315 0.249,0.049 0.472,0.0855 0.637,0.11 0.187,0.0265 0.332,0.0415 0.4195,0.0415 l 0.005,0 c 2.5165,-0.1225 3.58,-1.0985 4.284,-2.0385 0.198,-0.266 0.375,-0.544 0.5505,-0.837 l 0.284,-0.486 0.215,-0.361 c 0.205,-0.354 0.41,-0.676 0.636,-0.984 0.155,-0.2095 0.3945,-0.327 0.647,-0.327 0.067,0 0.1375,0.01 0.2075,0.0245 0.288,0.078 0.577,0.132 0.8225,0.176 0.5845,0.1 1.117,0.151 1.345,0.166 0.167,0.012 0.327,0.017 0.487,0.017 2.382,0 4.157,-1.328 5.629,-2.573 l 0.4815,-0.41 c 0.2285,-0.193 0.448,-0.388 0.668,-0.569 0.2955,-0.244 0.682,-0.5615 1.085,-0.827 0.715,-0.476 1.319,-0.696 1.9075,-0.696 l 0.144,0.005 c 0.5725,0.0345 2.725,0.1905 6.377,0.7715 0.155,0.022 0.315,0.0335 0.477,0.0335 0.612,0 1.352,-0.158 2.207,-0.469 l 0,17.239 c 0,12.097 1.5545,16.752 5.275,23.223 l 0.2095,0.3615 0.232,0.349 c 21.571,32.201 57.398998,51.428 95.839998,51.428 38.439,0 74.2645,-19.2245 95.8405,-51.4255 l 0.232,-0.347 0.21,-0.366 c 3.7145,-6.466 5.27,-11.121 5.27,-23.223 l 0,-16.6145 c 0.269,0.0325 0.5445,0.0505 0.8275,0.05 0.605,0 1.23,-0.0805 1.8575,-0.239 0.676,-0.1755 1.352,-0.2585 2.065,-0.2585 0.354,0 0.703,0.024 1.0375,0.0585 0.8955,0.0975 1.6915,0.297 2.336,0.4585 l 0.1685,0.044 c 1.0465,0.261 2.038,0.6735 3.0285,1.2645 0.8155,0.488 1.504,1.0105 2.168,1.5155 l 0.1785,0.1345 c 1.3175,1.001 2.685,2.0355 4.5935,2.0355 0.071,0 0.149,-0.002 0.2295,-0.005 0.127,-0.005 0.2735,-0.0435 0.337,-0.063 0.105,-0.029 0.229,-0.068 0.368,-0.117 0.259,-0.093 0.569,-0.2175 0.8765,-0.342 0.3005,-0.1145 0.6375,-0.249 1.023,-0.3245 0.049,-0.01 0.1025,-0.0145 0.154,-0.0145 0.2635,0 0.512,0.129 0.6635,0.3515 0.0975,0.144 0.1975,0.305 0.305,0.4755 0.1905,0.3125 0.386,0.6325 0.6375,0.9545 0.7345,0.9475 2.0745,2.2165 5.204,2.2945 0.2855,0.008 0.559,0.01 0.8225,0.01 1.628,0 2.6315,-0.1245 3.0805,-0.2 0.0465,-0.01 0.0875,-0.01 0.1345,-0.01 0.1605,0 0.3195,0.046 0.456,0.144 0.332,0.2295 0.686,0.3415 1.0765,0.3415 0.8425,0 2.092,-0.254 3.11,-0.63 0.6005,-0.219 1.096,-0.4755 1.4645,-0.7465 0.4785,-0.3565 0.757,-0.752 0.8225,-1.1715 0.0515,-0.3175 0.0175,-0.6935 -0.1,-1.1595"
     inkscape:connector-curvature="0" /><path
     style="fill:#23326a;fill-opacity:1;fill-rule:nonzero;stroke:none"
     id="path4909"
     d="m 236.29375,132.189 c -1.372,-1.8595 -2.2895,-4.32 -2.646,-7.108 -0.029,-0.2365 -0.1635,-0.4465 -0.3635,-0.571 -0.1295,-0.083 -0.281,-0.127 -0.43,-0.127 -0.083,0 -0.166,0.01 -0.2415,0.0365 -0.2835,0.0905 -0.5825,0.163 -0.8885,0.2265 l 0,2.205 0,26.228 c 0,10.435 -1.213,12.893 -3.6465,17.1305 -18.598,27.7585 -50.0325,45.9995 -85.679,45.9995 -35.6485,0 -67.085498,-18.241 -85.681998,-45.9995 -2.431,-4.2375 -3.647,-6.6955 -3.647,-17.1305 l 0,-23.9655 0,-4.3595 c -0.07,0.002 -0.146,0.007 -0.2145,0.007 l -0.21,0 -0.0145,0 c -0.305,0 -0.5825,0.1685 -0.72,0.437 -0.353,0.7125 -0.702,1.425 -1.03,2.104 l -0.5945,1.2175 c -0.548,1.111 -1.111,2.2095 -1.526,2.7315 -0.369,0.463 -0.785,0.8215 -1.1835,1.104 l 0,3.566 0,17.1575 c 0,11.0915 1.334,14.572 4.3765,19.864 l 0.095,0.166 0.105,0.1565 c 20.3185,30.3315 54.054998,48.4405 90.245498,48.4405 36.191,0 69.9275,-18.109 90.2455,-48.4405 l 0.105,-0.1565 0.093,-0.161 c 3.044,-5.2945 4.3765,-8.7725 4.3765,-19.869 l 0,-17.602 0,-2.3315 c -0.3685,-0.301 -0.6705,-0.6115 -0.925,-0.9565"
     inkscape:connector-curvature="0" /><path
     style="fill:#23326a;fill-opacity:1;fill-rule:nonzero;stroke:none"
     id="path4911"
     d="m 51.927752,90.24 0.2955,-0.272 c 0.276,-0.253 0.559,-0.5095 0.8465,-0.7655 l 0,-76.975 178.654498,0 0,76.561 c 0.5505,0.3625 1.095,0.728 1.6235,1.087 0.4735,0.3245 0.942,0.6395 1.391,0.9395 0.834,0.55 1.6415,0.909 2.48,1.183 l 0,-85.264 -189.641998,0 0,86.1195 c 0.821,-0.2155 1.6375,-0.5385 2.4735,-1.078 0.5335,-0.3455 1.0925,-0.8225 1.8775,-1.5355"
     inkscape:connector-curvature="0" /><path
     style="fill:#23326a;fill-opacity:1;fill-rule:nonzero;stroke:none"
     id="path4913"
     d="m 46.271752,93.117 0,-87.6885 192.250498,0 0,86.9315 c 0.3415,0.0815 0.6895,0.1585 1.0525,0.2345 l 0.3755,0.078 c 0.523,0.109 1.0665,0.2275 1.621,0.358 l 0,-90.6485 -198.346498,0 0,91.08 c 0.4655,-0.0575 0.9225,-0.1035 1.3715,-0.1475 0.5715,-0.057 1.127,-0.1155 1.6755,-0.1975"
     inkscape:connector-curvature="0" /><path
     style="fill:#23326a;fill-opacity:1;fill-rule:nonzero;stroke:none"
     id="path4915"
     d="m 238.68325,134.122 c -0.0545,-0.0325 -0.106,-0.0675 -0.161,-0.1005 l 0,2.322 0,16.7355 c 0,11.414 -1.3865,15.0165 -4.5495,20.5185 l -0.115,0.2025 -0.132,0.193 c -20.56,30.692 -54.7015,49.014 -91.327,49.014 -36.626,0 -70.768998,-18.322 -91.329998,-49.014 l -0.131,-0.1955 -0.1145,-0.2 c -3.165,-5.507 -4.5515,-9.1095 -4.5515,-20.5185 l 0,-16.533 0,-3.444 c -0.2195,0.105 -0.4355,0.2045 -0.638,0.298 l -0.094,0.044 c -0.3235,0.1465 -0.591,0.2735 -0.813,0.4145 -0.509,0.3165 -1.014,0.6105 -1.502,0.876 l 0,3.5475 0,14.797 c 0,12.0895 1.5875,16.1735 4.956,22.037 l 0.1685,0.293 0.187,0.28 c 21.1285,31.5395 56.216998,50.3695 93.862498,50.3695 37.6455,0 72.732,-18.83 93.861,-50.3695 l 0.1855,-0.28 0.1685,-0.293 c 3.368,-5.8585 4.9575,-9.945 4.9575,-22.037 l 0,-14.902 0,-2.409 c -0.855,-0.3855 -1.624,-0.861 -2.309,-1.2895 -0.1905,-0.1245 -0.386,-0.239 -0.579,-0.3565"
     inkscape:connector-curvature="0" /><path
     style="fill:#fabb23;fill-opacity:1;fill-rule:nonzero;stroke:none"
     id="path4917"
     d="m 186.11525,120.809 c -0.2395,1.443 1.6155,3.713 2.148,4.736 0.2585,-0.5225 1.8135,-4.075 2.0475,-4.507 -0.7585,-0.0455 -2.826,-0.0605 -4.1955,-0.229"
     inkscape:connector-curvature="0" /><path
     style="fill:#fabb23;fill-opacity:1;fill-rule:nonzero;stroke:none"
     id="path4919"
     d="m 96.697252,124.4855 c 0.737,-1.313 1.5545,-1.518 2.099,-2.191 0.3125,-0.8995 0.7505,-1.4195 1.363498,-2.1895 -1.482998,0.225 -4.302498,0.7595 -5.494998,0.97999 0.2725,0.84951 0.5325,2.81701 2.0325,3.40051"
     inkscape:connector-curvature="0" /><path
     style="fill:#fabb23;fill-opacity:1;fill-rule:nonzero;stroke:none"
     id="path4921"
     d="m 188.41675,134.1905 c -0.0855,-0.288 -0.1635,-0.5855 -0.2365,-0.8905 -0.0855,-0.354 -0.391,-0.6055 -0.752,-0.6155 l -0.029,0 c -0.3515,0 -0.6615,0.2275 -0.7615,0.564 -0.391,1.2715 -1.475,3.432 -4.3745,3.6075 -0.0705,0.005 -0.139,0.008 -0.212,0.008 -1.294,0 -2.9905,-0.6465 -4.1135,-1.076 l -0.515,-0.198 c -0.5755,-0.222 -1.142,-0.437 -1.672,-0.6225 -0.769,-0.259 -1.3275,-0.3955 -1.7595,-0.432 -0.105,-0.01 -0.22,-0.0125 -0.3395,-0.0125 -0.166,0 -0.342,0.01 -0.525,0.022 -0.3295,0.0245 -0.6735,0.061 -1.0375,0.1 -0.71,0.0785 -1.4935,0.166 -2.2775,0.166 l -0.178,0 c -1.6795,-0.034 -2.9945,-0.5075 -4.015,-1.4445 -0.1515,-0.1415 -0.347,-0.215 -0.542,-0.215 -0.21,0 -0.4175,0.088 -0.574,0.249 -2.568,2.6605 -5.729,4.013 -9.412,4.013 l -0.332,0 c -0.764,-0.02 -2.1235,-0.4395 -2.6925,-1.1715 -0.227,-0.293 -0.2955,-0.6005 -0.21,-0.9595 0.0585,-0.237 0.002,-0.481 -0.149,-0.6765 -0.1465,-0.188 -0.3735,-0.3025 -0.6125,-0.3075 -2.0845,-0.034 -3.322,-1.03 -3.622,-1.9965 -0.232,-0.757 0.0855,-1.4915 0.898,-2.075 l 0.2,-0.139 c 0.2905,-0.2025 0.6325,-0.437 1.0865,-0.813 0.6785,-0.559 1.462,-1.3105 2.397,-2.2895 1.9305,-2.016 3.3805,-4.4765 4.5595,-7.7255 1.008,-2.774 1.692,-5.8035 2.3505,-8.73 l 0.1,-0.4385 c 1.3695,-6.0275 2.9145,-12.865 7.8455,-18.2485 3.6445,-3.981 6.432,-6.174 14.128,-11.648 1.3115,-0.9315 2.6365,-2.0445 3.9345,-3.149 -5.777,-7.8995 -13.685,-14.1395 -22.877,-17.8795 4.019,4.6575 6.455,10.7195 6.455,17.355 0,14.68 -11.9,26.5815 -26.582,26.5815 -14.68,0 -26.5795,-11.9015 -26.5795,-26.5815 0,-6.545 2.3685,-12.533 6.29,-17.165 -8.4905,3.547 -15.864,9.2325 -21.4415,16.389 1.378,0.975 2.7045,1.9975 4.3235,3.328 1.0945,0.8995 2.287,1.9125 3.6895,3.1035 0.987,0.8375 2.0795,1.765 3.317,2.807 0.73,0.713 1.6565,1.77 2.784,3.2005 0.3725,0.4695 0.7375,0.9395 1.09,1.3935 0.5125,0.66 0.99,1.283 1.419,1.805 3.4495,4.224 5.5765,7.036 6.07,10.5105 0.9515,6.7595 1.574,10.606 4.226,17.39 0.05,0.127 0.1525,0.2915 0.303,0.4795 0.1415,0.188 0.322,0.3855 0.515,0.582 l 0.6015,0.633 c 0.2075,0.2175 0.408,0.4395 0.575,0.647 0.427,0.56 0.793,1.2015 1.0925,1.76 l 0.278,0.525 c 0.2395,0.4515 0.487,0.913 0.752,1.3695 0.6125,1.047 1.507,2.3605 3.012,3.21 1.5845,0.888 1.9015,1.0735 2.4445,1.5815 0.253,0.239 0.375,0.5175 0.3725,0.8495 -0.008,0.493 -0.2955,1.064 -0.7375,1.452 -0.484,0.4325 -1.1495,0.7255 -1.9695,0.872 -0.22,0.039 -0.4125,0.166 -0.5325,0.3565 -0.1205,0.1895 -0.1575,0.419 -0.1,0.63399 0.1405,0.53451 0.0355,1.07901 -0.3025,1.52851 -0.5055,0.678 -1.44,1.0735 -2.6265,1.1125 -0.173,0.005 -0.343,0.005 -0.51,0.005 -4.9965,0 -8.386,-2.3505 -9.964,-3.749 -0.149,-0.1345 -0.342,-0.205 -0.53,-0.205 -0.167,0 -0.3295,0.051 -0.4675,0.1535 l -0.212,0.154 c -0.58,0.415 -1.4475,1.0445 -2.5715,1.506 -0.7725,0.3685 -1.6295,0.532 -2.7375,0.532 -0.397,0 -0.785,-0.022 -1.15,-0.046 -0.2595,-0.015 -0.5195,-0.037 -0.7775,-0.0565 -0.3845,-0.0315 -0.7675,-0.061 -1.1445,-0.083 -0.2125,-0.009 -0.415,-0.0145 -0.6065,-0.0145 -0.426,0 -0.7885,0.027 -1.106,0.0855 -0.8995,0.161 -1.861,0.48349 -2.8815,0.82249 l -0.6775,0.22501 c -1.1875,0.3825 -2.5615,0.8025 -3.8015,0.854 -0.1025,0.002 -0.2005,0.005 -0.298,0.005 -1.812498,0 -3.093998,-0.686 -3.811498,-2.038 -0.1475,-0.2785 -0.2675,-0.58101 -0.372,-0.92501 -0.0955,-0.315 -0.37,-0.53949 -0.692,-0.56349 -0.026,-0.005 -0.05,-0.008 -0.0785,-0.008 -0.295,0 -0.5675,0.1635 -0.704,0.43149 -0.0165,0.0315 -0.0335,0.06 -0.05,0.0915 9.052998,16.31151 26.447498,27.35251 46.425498,27.35251 19.8995,0 37.2355,-10.95601 46.3175,-27.16301 -0.005,-0.0175 -0.011,-0.034 -0.0165,-0.0515"
     inkscape:connector-curvature="0" /><path
     style="fill:#ed1e36;fill-opacity:1;fill-rule:nonzero;stroke:none"
     id="path4923"
     d="m 83.922252,30.149 c 0,-6.344 -4.994,-11.485 -11.155,-11.485 -0.188,0 -1.051,0.002 -1.235,0.0125 l -12.975,0 0,38.883 7.876,0 0,-32.174 4.696,-0.043 c 2.9095,0 5.1185,2.278 5.1185,5.0895 0,2.8095 -2.359,5.0855 -5.266,5.0855 l -1.8295,0.043 0,9.261 7.8685,12.738 9.283,0 -10.881,-16.2495 c 4.8795,-1.2275 8.4995,-5.7595 8.4995,-11.161"
     inkscape:connector-curvature="0" /><path
     style="fill:#ed1e36;fill-opacity:1;fill-rule:nonzero;stroke:none"
     id="path4925"
     d="m 92.560752,42.594 c 0,-2.619 2.0775,-4.7435 4.6415,-4.7435 2.562,0 4.638998,2.1245 4.638998,4.7435 l -9.280498,0 z m 4.573,-10.18 c -6.933,0 -12.5545,5.8155 -12.5545,12.992 0,7.1765 5.624,13.003 12.5585,13.003 5.290498,0 9.419498,-2.4495 11.548998,-6.284 l -6.168,-2.9095 c -0.7845,1.7355 -2.620498,2.9545 -4.759998,2.9545 -2.856,0 -5.1685,-2.17 -5.1685,-4.844 0,-0.172 -0.0695,-0.1025 -0.05,-0.2695 l 16.782498,0.007 c 0.049,-0.532 0.077,-1.0755 0.072,-1.6315 0.115,-8.407 -5.326,-13.018 -12.260998,-13.018"
     inkscape:connector-curvature="0" /><path
     style="fill:#ed1e36;fill-opacity:1;fill-rule:nonzero;stroke:none"
     id="path4927"
     d="m 119.48575,45.659 c 0,-3.3625 2.524,-6.087 5.634,-6.087 3.112,0 5.6335,2.7245 5.6335,6.087 0,3.362 -2.5215,6.0865 -5.6335,6.0865 -3.11,0 -5.634,-2.7245 -5.634,-6.0865 m 18.8265,4.535 -0.008,-32.782 -7.6815,0 0.0305,18.821 c -2.0345,-1.992 -4.749,-3.1965 -7.711,-3.1965 -6.337,0 -11.475,5.5485 -11.475,12.3955 0,6.843 5.138,12.3925 11.475,12.3925 0.0465,0 0.092,-0.003 0.138,-0.004 4.0085,-4.049 9.309,-6.811 15.232,-7.6265"
     inkscape:connector-curvature="0" /><path
     style="fill:#ed1e36;fill-opacity:1;fill-rule:nonzero;stroke:none"
     id="path4929"
     d="m 218.82625,57.617 7.404,0 0,-39.906 -7.404,0 0,39.906 z"
     inkscape:connector-curvature="0" /><path
     style="fill:#ed1e36;fill-opacity:1;fill-rule:nonzero;stroke:none"
     id="path4931"
     d="m 193.87225,47.746 c 0,2.3345 -1.9425,4.2265 -4.3395,4.2265 -2.397,0 -4.3405,-1.892 -4.3405,-4.2265 l 0,-14.0175 -7.54,0 0,15.5075 c 0,5.2515 5.3065,9.5075 11.8535,9.5075 6.5465,0 11.853,-4.256 11.853,-9.5075 l 0,-15.5075 -7.4865,0 0,14.0175 z"
     inkscape:connector-curvature="0" /><path
     style="fill:#ed1e36;fill-opacity:1;fill-rule:nonzero;stroke:none"
     id="path4933"
     d="m 162.40375,50.775 -7.0835,0 0,-25.33 4.943,0 c 2.17,0 3.9295,1.852 3.9295,4.139 0,2.2845 -1.7595,4.1375 -3.9295,4.1375 l -2.5705,0 0,7.0235 4.711,0 c 2.6315,0 4.6205,2.235 4.6205,5.004 -0.095,2.8645 -1.7595,4.8395 -4.6205,5.026 m 6.2,-14.4795 c 2.0235,-1.9895 3.261,-4.6565 3.261,-7.588 0,-2.658 -0.969,-5.0965 -2.663,-7.014 -1.765,-2.049 -4.892,-2.957 -9.117,-2.957 l -12.6535,0 0,31.7655 c 5.0815,1.0615 9.6275,3.5745 13.19,7.0845 l 3.1545,0 c 6.263,-0.1075 11.3035,-5.119 11.3035,-11.231 0,-4.4485 -1.4835,-7.618 -6.4755,-10.06"
     inkscape:connector-curvature="0" /><path
     style="fill:#ed1e36;fill-opacity:1;fill-rule:nonzero;stroke:none"
     id="path4935"
     d="m 206.31375,57.617 7.401,0 0,-39.906 -7.401,0 0,39.906 z"
     inkscape:connector-curvature="0" /><path
     style="fill:#c6ccd2;fill-opacity:1;fill-rule:nonzero;stroke:none"
     id="path4937"
     d="m 121.99275,90.858 c 7.7485,5.5995 18.6755,6.4865 27.215,1.8975 9.276,-4.8 14.8925,-14.6905 14.038,-25.3505 -0.161,-1.5475 -0.4075,-3.0525 -0.8125,-4.517 2.619,3.94 4.125,8.6085 4.125,13.633 0,13.5765 -11.0085,24.5875 -24.59,24.5875 -8.2285,0 -15.5125,-4.042 -19.9755,-10.2505"
     inkscape:connector-curvature="0" /><path
     style="fill:#23326a;fill-opacity:1;fill-rule:nonzero;stroke:none"
     id="path4939"
     d="m 134.71975,82.6625 c -5.746,-1.388 -9.6735,-2.778 -9.6735,-2.778 -0.619,-5.9365 -0.094,-11.105 -0.094,-11.105 2.486,-1.295 9.238,-4.312 9.238,-4.312 3.2095,3.642 6.2745,8.5215 6.2745,8.5215 -1.4855,2.874 -5.745,9.6735 -5.745,9.6735 m -9.4755,-24.1655 c -0.58,0.942 -2.269,3.781 -3.79,7.1675 -1.434,1.7955 -2.686,3.623 -3.227,4.427 1.2205,-4.511 3.6895,-8.5055 7.017,-11.5945 m 25.799,14.3015 c 0,0 2.1535,-4.4965 4.741,-8.138 0,0 4.9795,2.3445 7.325,4.262 0,0 0.8595,2.6785 0.2855,10.53 0,0 -2.9705,1.7245 -7.276,2.779 0,0 -2.922,-4.931 -5.0755,-9.433 m -11.1545,18.4315 10.628,-0.2865 2.0575,5.793 c -4.0205,2.3925 -8.856,3.64 -8.856,3.64 -5.0735,-1.105 -7.994,-3.3055 -7.994,-3.3055 l 4.1645,-5.841 z m 2.0795,-39.299 c 3.244,0 6.3415,0.6295 9.173,1.7695 -0.098,0.454 -0.4415,1.7515 -1.4375,3.3965 -5.124,-0.67 -10.82,-0.1425 -10.82,-0.1425 l -4.734,-3.7545 c 2.4545,-0.8225 5.087,-1.269 7.8185,-1.269 m -15.754,43.468 c -4.074,-3.4035 -7.029,-8.1 -8.2335,-13.459 1.3145,1.362 3.859,3.976 3.859,3.976 1.532,3.1625 5.362,8.6665 5.362,8.6665 -0.2745,0.304 -0.708,0.625 -0.9875,0.8165"
     inkscape:connector-curvature="0" /><path
     style="fill:#23326a;fill-opacity:1;fill-rule:nonzero;stroke:none"
     id="path4941"
     d="m 63.428252,168.4565 2.3725,2.871 8.0185,-6.6345 c 2.442,-2.0215 7.1705,-6.322 9.3685,-8.402 l 0.0645,0.0785 c -5.4565,5.946 -9.976,12.1655 -14.952,17.98 l 2.2445,2.714 27.667,-22.886 -2.3715,-2.8705 -8.022,6.639 c -2.441,2.016 -7.1705,6.322 -9.367,8.397 l -0.066,-0.078 c 5.4565,-5.9465 9.9735,-12.1635 14.952,-17.98 l -2.242,-2.712 -27.667,22.8835 z"
     inkscape:connector-curvature="0" /><path
     style="fill:#23326a;fill-opacity:1;fill-rule:nonzero;stroke:none"
     id="path4943"
     d="m 110.84975,164.5805 -5.912,-4.521 c -1.6365,-1.2495 -3.964,-0.939 -5.216498,0.69849 l -17.289,22.613 c -1.252,1.63551 -0.9425,3.964 0.6945,5.21601 l 5.9145,4.5185 2.259,-2.9535 -5.911,-4.5205 7.5135,-9.83251 4.434,3.39301 2.26,-2.9535 -4.434,-3.39301 7.513498,-9.8275 5.9135,4.52101 2.26,-2.95851 z"
     inkscape:connector-curvature="0" /><path
     style="fill:#23326a;fill-opacity:1;fill-rule:nonzero;stroke:none"
     id="path4945"
     d="m 102.42575,200.8925 3.2295,1.2665 c 2.9475,-4.623 6.204,-9.0755 9.526,-16.0375 l 0.095,0.037 c -2.292,7.367 -2.9265,12.844 -3.9065,18.2385 l 3.2295,1.267 14.227,-32.9915 -3.5115,-1.377 c -2.397,5.9755 -4.905,11.958 -7.2545,17.953 -0.842,2.153 -1.594,4.345 -2.4395,6.498 l -0.092,-0.034 c 1.5575,-5.7655 2.1165,-9.813 3.0415,-13.8255 l -2.902,-1.138 c -2.049,3.574 -4.389,6.923 -7.163,12.21 l -0.0925,-0.039 c 0.842,-2.1505 1.7815,-4.26701 2.626,-6.4225 2.3485,-5.992 4.5745,-12.087 6.876,-18.09951 l -3.511,-1.37649 -11.978,33.871 z"
     inkscape:connector-curvature="0" /><path
     style="fill:#23326a;fill-opacity:1;fill-rule:nonzero;stroke:none"
     id="path4947"
     d="m 149.67425,209.1575 3.703,-0.4105 -1.7555,-15.944 c 1.099,-0.57851 1.9215,-1.377 2.4755,-2.348 0.5445,-1.021 0.7735,-2.1605 0.647,-3.308 l -1.594,-14.4965 -3.7005,0.405 1.7645,16.0465 -3.7,0.408 -1.765,-16.04951 -3.698,0.4105 1.595,14.49701 c 0.1285,1.1495 0.597,2.209 1.351,3.087 0.7475,0.8305 1.726,1.43099 2.9245,1.75299 l 1.7525,15.9495 z"
     inkscape:connector-curvature="0" /><path
     style="fill:#23326a;fill-opacity:1;fill-rule:nonzero;stroke:none"
     id="path4949"
     d="m 176.97175,198.539 -3.469,1.3525 -10.3275,-26.5235 3.466,-1.352 10.3305,26.523 z m -7.504,1.2495 c 1.1155,2.856 4.3695,4.2865 7.2305,3.1735 2.856,-1.113 4.2885,-4.3665 3.1725,-7.225 l -9.1945,-23.6185 c -1.116,-2.861 -4.369,-4.2915 -7.2275,-3.1735 -2.8585,1.1085 -4.2915,4.364 -3.176,7.225 l 9.195,23.6185 z"
     inkscape:connector-curvature="0" /><path
     style="fill:#23326a;fill-opacity:1;fill-rule:nonzero;stroke:none"
     id="path4951"
     d="m 178.63125,165.3125 3,-2.204 7.3205,9.9735 -3,2.2025 -7.3205,-9.972 z m 16.0445,28.1495 3,-2.202 -9.5225,-12.976 2.9975,-2.202 7.948,10.826 c 0.537,0.7275 1.4545,1.301 2.226,1.672 l 3.0805,-2.2605 c -0.9425,-0.4345 -1.7135,-0.805 -2.3045,-1.6155 l -7.0835,-9.6465 c -1.311,-1.785 -2.3655,-1.9485 -3.3025,-1.6945 0.432,-0.942 0.6545,-1.9135 -0.359,-3.295 l -6.7245,-9.1635 c -1.2205,-1.6595 -3.5395,-2.016 -5.2015,-0.796 l -6,4.404 21.246,28.9495 z"
     inkscape:connector-curvature="0" /><path
     style="fill:#23326a;fill-opacity:1;fill-rule:nonzero;stroke:none"
     id="path4953"
     d="m 194.07775,145.2655 -2.4925,2.8995 c 0,0 0.5445,1.577 1.7475,2.6145 1.2085,1.0375 6.84,5.878 6.84,5.878 0,0 2.702,2.0795 0.1735,5.0235 l -11.7265,-10.079 -2.4165,2.812 27.2265,23.40649 2.404,-2.8025 -12.5955,-10.82799 c 0,0 2.4145,-2.8215 4.7625,-0.803 2.009,1.7255 8.0865,6.954 8.0865,6.954 0,0 1.2865,1.2305 2.7045,1.25 l 2.4905,-2.8975 c 0,0 -1.5675,-0.1345 -3.2615,-1.584 -1.687,-1.45 -6.7325,-5.79 -6.7325,-5.79 0,0 -4.469,-4.269 -8.4695,0.3835 0,0 3.4685,-4.682 -1.577,-9.0195 -3.9785,-3.422 -5.971,-5.131 -5.971,-5.131 0,0 -0.949,-0.9615 -1.193,-2.287"
     inkscape:connector-curvature="0" /><path
     style="fill:#ed1e36;fill-opacity:1;fill-rule:nonzero;stroke:none"
     id="path4955"
     d="m 75.498752,130.1975 c 0.93,1.02 0.8825,2.5945 1.949,3.383 1.39,0.234 2.64,-0.322 3.708,-1.157 0.604,-0.508 -0.2785,-1.157 -0.371,-1.762 -0.602,-0.8815 -0.187,-2.6415 -1.67,-2.6875 -1.4815,0.2295 -2.9645,0.2805 -4.4485,0.2805 l -0.4175,0.2755 c -0.277,0.8815 1.0205,0.8815 1.25,1.6675"
     inkscape:connector-curvature="0" /><path
     style="fill:#ed1e36;fill-opacity:1;fill-rule:nonzero;stroke:none"
     id="path4957"
     d="m 5.1897516,135.1135 c -0.742,0.3685 -1.5305,1.0645 -1.715,1.899 -0.2355,1.484 0.093,2.8755 -1.068,3.94 -0.045,0.278 -0.3245,0.6 -0.045,0.8805 1.02,0.3225 1.993,0.74 3.2455,0.8815 0.554,-1.811 0.9715,-3.801 1.6215,-5.3775 l 0,-0.466 c -0.5575,-0.693 -1.114,-1.5745 -2.039,-1.7575"
     inkscape:connector-curvature="0" /><path
     style="fill:#ed1e36;fill-opacity:1;fill-rule:nonzero;stroke:none"
     id="path4959"
     d="m 120.07525,115.1185 c -0.012,0.0355 -0.1405,0.394 -0.1405,0.394 -0.007,0.028 -0.122,0.4025 -0.122,0.4025 -0.1355,0.3655 -0.348,0.568 -0.665,0.644 -0.1865,0.0545 -0.365,0.0265 -0.5055,-0.0785 -0.1415,-0.1075 -0.2245,-0.277 -0.2245,-0.47 0,-0.01 -0.0265,-0.415 -0.0265,-0.415 l -0.143,-1.4265 c -0.115,-0.6655 -0.31,-1.1755 -0.6175,-1.605 -0.01,-0.0125 -0.625,-0.7275 -0.625,-0.7275 -0.022,-0.028 -0.708,-0.803 -0.708,-0.803 -0.544,-0.5445 -1.0335,-0.8045 -1.5435,-0.8215 -0.398,0.1245 -0.7585,0.387 -1.1425,0.809 l -0.4955,0.6055 -0.4325,0.582 c -0.157,0.2725 -0.512,0.12 -0.5145,0.1175 0,0 -0.032,-0.017 -0.0625,-0.032 -0.012,-0.0305 -0.0255,-0.0645 -0.0255,-0.0645 -0.1125,-0.2805 -0.154,-0.548 -0.154,-0.8005 0,-0.4445 0.1345,-0.842 0.27,-1.167 l 0.377,-0.7725 0.432,-0.913 0.0575,-0.084 c 0.1305,-0.126 0.255,-0.348 0.398,-0.7225 l 0.1145,-0.315 0.253,-0.648 c 0.384,-0.824 0.954,-1.045 1.7915,-0.6895 0.6505,0.348 1.0505,0.897 1.352,1.39 l 0.205,0.342 0.265,0.4355 0.548,0.697 c 1.495,1.677 2.22,3.26 2.22,4.8965 0,0.4075 -0.045,0.8225 -0.1355,1.24 m -5.679,12.628 c 0,0 -0.0205,0.015 -0.01,0.0245 -0.0135,-0.007 -0.0455,0.002 -0.0455,0.002 -0.86,0.271 -1.8315,0.3835 -2.89,0.332 l -0.0595,-0.012 c 0.002,0.002 -0.1915,-0.0855 -0.1915,-0.0855 -0.002,-0.002 -0.205,-0.127 -0.205,-0.127 -0.103,-0.083 -0.258,-0.261 -0.1685,-0.5225 0.4,-1.2085 1.595,-2.59 3.0995,-2.9 0.038,-0.004 0.1295,-0.004 0.1295,-0.004 l 0.21,0 0.338,0.046 c 0.1625,0.0465 0.442,0.181 0.513,0.5765 0.022,0.222 0.0425,0.4685 0.0425,0.7225 0,0.7125 -0.15,1.489 -0.763,1.9475 m -17.663498,-30.568 -0.115,-0.029 c 0,0 -0.006,0.022 -0.0135,0.045 -0.0145,0.017 -0.0315,0.034 -0.0315,0.034 -0.133,0.1285 -0.3675,0.226 -0.6005,0.0685 0,0 -0.033,-0.023 -0.0625,-0.0425 -0.008,-0.0355 -0.0145,-0.076 -0.0145,-0.076 -0.36,-1.8465 -0.7725,-3.804 -1.521,-5.6215 0,0.002 -0.4295,-0.7345 -0.4295,-0.7345 l -0.167,-0.232 -0.3675,-0.532 c -0.293,-0.4675 -0.577,-1.1 -0.1855,-1.8505 l 0.0425,-0.057 c 0.3385,-0.33699 0.933,-0.36499 1.3405,-0.21249 l 0.0525,0.028 c 0.7895,0.5445 1.2995,1.44649 1.672,2.104 0.4675,1.08999 0.7075,2.457 0.7075,3.86899 0,1.07801 -0.1375,2.18201 -0.422,3.21001 l 0.115,0.029 m 36.377498,32.64799 c -2.7795,-1.62299 -3.8885,-4.67949 -5.606,-7.09349 -0.6005,-0.8815 -1.667,-1.438 -2.225,-2.318 -1.9915,-5.42501 -3.7065,-10.846 -4.2165,-17.057 -0.4175,-1.52901 -0.7395,-3.10351 -1.577,-4.5415 -2.502,-4.07901 -5.7445,-7.789 -8.8985,-11.54301 -0.2785,-0.27699 -0.2805,-0.30299 -0.88,-0.88049 l -10.985498,-9.13 c -1.345,-1.0205 -2.874,-1.6695 -4.4045,-2.364 -2.3165,-0.8825 -5.469,-0.6955 -7.738,0.2795 -2.365,1.2495 -4.4975,3.0595 -7.0015,3.892 -3.6115,1.622 -7.6905,1.9465 -10.798,4.729 -1.807,1.577 -3.3365,4.0315 -6.0265,3.61399 -3.012,-0.14 -5.6985,0.973 -7.971,2.8265 -2.042,1.85551 -3.9835,4.03251 -6.6285,4.54401 -2.3175,0.97299 -5.144,0.5075 -7.508,1.39 -3.7555,0.9255 -6.7215,3.8925 -9.9165,6.16499 -3.199,1.85151 -6.2585,3.84551 -10.2485,3.75401 -2.591,-0.1855 -5.0955,-1.993 -5.93,-4.49501 -0.7885,-2.8765 0.0915,-5.841 2.364,-7.788 2.364,-2.8265 6.1155,-4.4975 7.9735,-7.74099 0.9725,-1.71501 0.832,-4.494 -0.4655,-6.116 -2.4565,-2.55 -5.979,-2.645 -9.1755,-3.432 -2.039,-0.558 -3.617,-2.13201 -5.4235004,-3.105 -0.6955,1.064 -0.9275,2.225 -0.8325,3.5225 0.37,2.9215 2.5925004,5.56 5.3740004,6.5805 1.622,0.69799 3.477,0.188 5.144,0.558 0.4655,0.184 0.93,0.647 0.9715,1.157 -0.0865,0.46499 -0.134,0.9275 -0.5515,1.252 -2.597,2.17999 -5.3295,4.2645 -7.511,6.952 -2.3175,2.50449 -2.5945004,6.90549 -1.3875,10.06 1.3425,3.614 5.097,5.9795 8.7105,6.442 2.6425,0.4175 5.009,-0.2785 7.417,-0.7885 0.3245,0 0.465,0.326 0.6015,0.51 0.233,2.1325 -0.0925,4.0325 0.372,5.9795 0.4175,1.8075 1.0205,3.0595 1.6675,4.8195 0.095,0.60149 0,1.252 -0.4175,1.716 -1.3415,1.023 -2.734,1.718 -4.2165,2.3675 l -3.614,0.22949 -0.697,0.32751 c -1.345,1.5765 -1.39,3.1975 -2.2225,4.9575 -1.1155,1.857 -3.1525,2.7335 -4.8695,3.8 -0.554,0.8815 -1.1595,1.809 -1.944,2.5045 -0.6055,0.5565 -1.345,0.696 -2.1325004,0.7885 -1.2525,1.438 -1.529,3.4295 -1.8575,5.3775 2.0405,0.1855 4.1755004,1.2965 6.1670004,0.1855 1.715,-0.791 2.087,-2.8755 3.3845,-4.125 1.019,-1.1135 2.5495,-0.2785 3.754,-0.049 1.805,0.093 3.105,-1.2035 4.6365,-1.8065 1.062,-0.693 1.9445,-1.899 3.055,-2.597 2.1345,-1.0155 5.099,-0.4635 7.3255,-0.044 1.76,0.4615 3.615,0.1855 5.144,-0.5125 1.438,-0.8785 2.7815,-1.992 4.4025,-2.363 1.4365,-0.7395 2.1345,-2.363 2.736,-3.705 0.46,-1.255 1.667,-2.226 1.5745,-3.6615 -0.372,-0.32751 -0.787,-1.025 -1.3435,-0.979 -0.696,0.979 -1.205,1.9945 -1.993,2.9245 -3.3515,4.572 -5.9865,5.004 -12.792,5.004 -5.054,-0.18551 -9.5965,1.347 -13.07,5.2845 -0.233,0.1395 -0.558,0.044 -0.743,-0.1365 -0.137,-0.559 0.328,-1.482 0.5575,-1.8995 3.1075,-4.401 7.9255,-5.4215 13.0225,-5.511 2.78,-0.1905 5.4235,-0.652 7.789,-1.8555 2.641,-1.3425 4.446,-3.4365 5.5615,-6.0355 0.5995,-2.9195 0.835,-6.0715 1.577,-8.853 0.0905,-0.277 0.785,-0.485 1.0145,-0.392 0.278,0.0465 0.8295,0.299 0.8295,0.625 -0.506,2.87149 -1.429,6.2535 -0.3175,9.03499 2.2255,2.92551 6.352,1.34901 9.366,1.207 3.1505,-0.279 5.684,-0.0315 8.6965,0.15151 1.4825,-0.044 2.58,0.3175 3.737,-0.608 0.322,-0.51 0.455,-1.203 0.362,-1.757 -0.095,-0.835 -0.7895,-1.338 0,-2.035 0.2295,-0.1855 0.923,-0.062 1.1075,0.1695 0.417,1.16 0.6025,2.41 1.345,3.43 1.4835,1.9035 3.661,3.388 5.698,4.452 1.9455,1.3475 3.57,3.2465 3.71,5.6095 0,1.206 -1.113,2.038 -2.0405,2.597 -1.5745,0.786 -3.2915,1.4355 -5.143,1.25 -2.4605,-1.2035 -3.1075,-3.801 -4.7295,-5.702 -0.832,-0.9255 -2.0845,-1.111 -3.3365,-1.018 -1.345,0.1365 -2.6875,0.183 -3.892,0.603 -0.325,0.278 -0.4175,0.693 -0.3725,1.113 0.835,1.528 1.7625,3.0125 2.6865,4.54 1.07,0.6495 2.552,-0.371 3.477,0.7865 0.787,1.208 1.2975,2.6455 2.5045,3.573 1.1605,1.0155 2.9215,1.4795 4.4495,0.8325 3.43,-1.067 6.8605,-2.177 10.0585,-3.8935 l 1.064,0 c 1.2975,-0.1385 2.7375,-0.046 3.6625,-1.02 1.019,-1.4845 1.854,-2.873 2.6415,-4.45 0.787,-1.0665 0.417,-2.6895 0.095,-3.847 -1.577,-1.945 -2.4595,-4.1275 -3.294,-6.354 -0.785,-0.2315 -1.483,-0.6945 -2.362,-0.649 -0.415,0.184 -1.02,0.0915 -1.253,0.557 l 3.6625,7.2345 c 0.2295,0.557 0.51,1.3425 0.37,2.0845 -0.5105,1.533 -1.2975,3.0125 -2.5475,4.125 -0.232,0.1415 -0.51,0.281 -0.6945,-0.044 0.415,-1.5765 1.1575,-3.29 1.0645,-5.099 l -3.5665,-6.446 c -0.4195,-0.8825 -1.1605,-1.67 -1.1155,-2.69 0,-0.465 0.415,-0.7875 0.79,-0.972 1.5755,-0.5125 3.4745,-0.4175 4.679,-1.667 1.578,-2.4605 1.9055,-4.8695 2.3225,-7.789 0.093,-0.1855 0.4675,-0.542 0.745,-0.542 0.278,-0.0925 0.595,0.3125 0.732,0.4495 0.4675,3.19749 -0.1845,6.4415 -2.037,8.94549 -0.0925,0.325 -0.232,0.7425 0.138,0.9735 1.762,0.556 3.616,0 5.099,-0.788 1.9015,0.0465 3.661498,-0.417 5.378998,-0.695 0.184,0.09 0.3695,0.278 0.3695,0.462 -1.157,1.2975 -1.8075,2.735 -2.132,4.4075 -1.3925,1.4375 -3.384498,2.6875 -3.524998,4.777 0.233,1.0155 1.1155,0.044 1.717,0.1365 0.278498,0.049 0.462998,0.2785 0.462998,0.5565 l -1.388998,2.0385 c -0.743,1.208 0.1365,2.597 0.1365,3.756 0.326,0.9255 1.437998,1.3915 2.410498,1.3915 2.087,-0.0925 3.941,-0.881 5.796,-1.5325 2.0395,-0.8815 4.5865,-0.835 6.814,-0.464 2.1775,-0.1365 3.7995,-1.5745 5.4215,-3.012 0.8825,0 1.6695,0.603 2.271,1.2545 2.5,2.685 5.7475,3.8445 9.409,3.754 l 0.3245,-0.1855 c 0.233,-0.234 0.138,-0.649 -0.1415,-0.835 l -2.175,-1.1125 c -1.5305,-0.9765 -3.432,-2.2725 -3.9395,-3.989 -0.465,-1.5275 -1.3,-3.1975 -2.2275,-4.6815 -0.322,-0.742 -1.0645,-1.3425 -1.389,-2.086 0.0895,-0.095 0.184,-0.2345 0.3245,-0.1865 2.4095,0.8375 3.847,3.2 4.9565,5.3335 1.765,2.4555 4.312,4.54 7.649,3.9885 l 0.279,-0.2345 c 0.1405,-0.185 0.093,-0.417 0,-0.556 l -1.6715,-0.835 z"
     inkscape:connector-curvature="0" /><path
     style="fill:#ed1e36;fill-opacity:1;fill-rule:nonzero;stroke:none"
     id="path4961"
     d="m 10.053252,134.972 c 1.4375,-0.835 2.365,-2.4095 3.1075,-3.7545 -0.138,-0.50751 -0.651,-0.8785 -1.068,-1.252 -0.2745,-0.2295 -0.692,-0.0465 -1.0195,0.0465 -1.02,0.88099 -2.0820004,1.5765 -3.1975004,2.27499 -0.4625,0.322 -0.277,1.01801 -0.3695,1.52751 0,0.464 0.555,0.7865 0.8345,1.0645 0.51,0.2345 1.157,0.2785 1.7125004,0.093"
     inkscape:connector-curvature="0" /><path
     style="fill:#ed1e36;fill-opacity:1;fill-rule:nonzero;stroke:none"
     id="path4963"
     d="m 206.80225,128.8085 c -1.252,0.2315 -2.69,-0.0465 -3.942,0.1365 -0.554,0.835 -1.0645,1.8555 -0.9275,2.9705 0.139,1.1575 1.4375,1.25 2.272,1.575 0.789,0.09 1.9455,0.368 2.368,-0.4615 0.4615,-1.20851 0.879,-2.5045 1.0645,-3.803 -0.093,-0.3715 -0.4665,-0.5105 -0.835,-0.4175"
     inkscape:connector-curvature="0" /><path
     style="fill:#ed1e36;fill-opacity:1;fill-rule:nonzero;stroke:none"
     id="path4965"
     d="m 195.09075,86.209 -0.198,0.392 -0.217,0.3475 c -0.002,-0.002 -1.4625,1.3575 -1.4625,1.3575 l -1.5645,1.462 c -1.174,1.14 -1.999,2.104 -2.592,3.034 -0.4985,0.6835 -0.874,1.478 -1.238,2.246 -0.1125,0.229 -0.3905,0.234 -0.5415,0.184 0,0 -0.044,-0.0145 -0.088,-0.028 -0.012,-0.039 -0.0265,-0.084 -0.0265,-0.084 -0.1005,-0.2955 -0.1465,-0.6055 -0.1465,-0.945 0,-0.2575 0.0265,-0.5355 0.083,-0.8325 0,-0.002 0.288,-1.158 0.288,-1.158 l 0.146,-0.5225 c 0.8885,-2.364 2.8755,-4.833 5.448,-6.7625 0.332,-0.21 0.945,-0.36 1.416,-0.2135 0.2835,0.088 0.486,0.2755 0.603,0.5525 0.115,0.1905 0.1685,0.3775 0.1685,0.5705 0,0.1305 -0.0245,0.262 -0.0755,0.4 l 0.11,0.039 -0.1125,-0.039 m -18.9075,26.355 -0.127,0.4465 c -0.1075,0.148 -0.2445,0.326 -0.415,0.4335 -0.1465,0.0865 -0.3715,0.157 -0.6155,0.002 -0.2465,-0.0975 -0.4395,-0.2505 -0.6025,-0.4725 -0.003,0 -0.198,-0.3 -0.198,-0.3 l -0.1705,-0.2955 c -0.2075,-0.3565 -0.4055,-0.6275 -0.889,-0.5895 -0.432,-0.022 -0.747,0.1525 -1.023,0.3455 l -0.3025,0.2245 -0.1705,0.129 c -0.002,0 -0.488,0.3285 -0.488,0.3285 -0.022,0.0145 -0.6645,0.5655 -0.6645,0.5655 l -0.288,0.2435 -0.9325,0.8655 c -0.676,0.704 -1.042,1.34499 -1.159,2.015 0,0.002 -0.127,0.487 -0.127,0.487 l -0.0365,0.21 -0.059,0.295 c -0.0655,0.325 -0.1805,0.68499 -0.51,0.89 -0.222,0.065 -0.4955,0.0195 -0.7055,-0.133 -0.168,-0.1245 -0.266,-0.3 -0.266,-0.4845 -0.188,-2.237 0.598,-4.3265 2.153,-5.7435 0.788,-0.648 1.4545,-1.428 2.0015,-2.108 l 0.608,-0.7725 1.2175,-1.5045 0.137,-0.0725 c 0.8835,-0.1695 1.4355,0.618 1.631,0.9645 0.766,0.9885 1.3885,2.103 1.9645,3.52 0.0345,0.1 0.0515,0.205 0.0515,0.3145 0,0.065 -0.005,0.1305 -0.0145,0.1955 m -1.0645,16.0465 -0.0295,0.0585 c -0.3025,0.215 -0.676,0.303 -1.198,0.2785 l -0.8865,-0.1025 -0.2955,-0.044 -0.0635,-0.0195 c -0.888,-0.495 -1.1055,-1.50351 -1.2055,-2.519 0,-0.344 0.1125,-0.61 0.349,-0.793 0,0 0.0245,-0.022 0.046,-0.0415 l 0.066,0 c 1.2185,0 2.1385,0.366 2.734,1.08599 l 0.029,0.051 0.1835,0.35901 0.2755,0.57349 0.11,-0.0415 c -0.056,0.022 -0.11,0.0415 -0.11,0.0415 0.081,0.21501 0.1225,0.4105 0.1225,0.5935 0,0.183 -0.0415,0.354 -0.127,0.5195 m 98.751,8.8655 c -2.3655,0.137 -3.5245,-2.4115 -4.9115,-3.8955 -1.1615,-1.3425 -3.4315,-2.1285 -3.3855,-4.1255 -0.417,-0.786 -0.5125,-2.0355 -0.881,-3.0585 -0.3245,-0.832 -0.6495,-2.0405 -1.7625,-2.2235 -1.992,-0.322 -4.4035,0.2295 -5.6555,-1.623 -1.294,-1.3925 0.1415,-3.0145 0.3735,-4.36 0.554,-1.714 0.6025,-3.98699 0.3245,-5.748 -0.0465,-1.0205 -0.742,-1.8525 -0.5565,-2.873 0.4635,-0.8815 1.577,-0.232 2.268,-0.139 2.597,0.742 5.658,0.372 8.0185,-0.6485 3.246,-1.5765 5.843,-4.868 5.704,-8.6225 -0.466,-4.8675 -3.942,-8.8505 -7.694,-12.0035 -0.695,-0.604 -1.5765,-1.252 -1.8085,-2.132 -0.093,-1.9015 2.038,-0.974 3.1075,-1.4365 1.296,-0.326 2.5945,-0.6505 3.6615,-1.39 2.826,-1.903 3.429,-5.2395 2.8725,-8.4835 -0.092,-0.2775 -0.092,-0.697 -0.5095,-0.697 -0.5105,0.4195 -1.0205,1.0215 -1.6675,1.3915 -1.809,1.068 -4.223,0.882 -6.1195,1.8095 -2.365,1.0205 -5.2845,2.4545 -6.305,5.142 -0.2785,1.3475 0.049,2.7365 0.652,3.8495 2.8705,4.5415 8.943,7.5085 9.9175,12.977 0.3685,2.2255 -0.7425,3.8475 -2.458,5.0995 -2.5975,1.5745 -6.4885,1.019 -9.083,-0.372 -5.0065,-2.502 -9.3635,-6.674 -14.741,-8.3885 -3.383,-1.5285 -7.5545,-1.161 -10.567,-3.525 -2.27,-1.4825 -4.3565,-3.4295 -6.905,-4.076 -1.763,-0.603 -3.7545,-0.5105 -5.375,-1.3905 -1.6725,-1.484 -3.432,-2.874 -5.38,-3.847 -2.685,-1.345 -5.6535,-2.039 -8.619,-2.69 -1.7625,-0.417 -2.4095,-2.3615 -3.847,-3.3365 -2.458,-1.9465 -5.1915,-3.337 -8.5285,-3.0585 -1.3885,0.093 -2.458,1.019 -3.525,1.947 -7.0885,6.2105 -15.202,10.475 -21.6875,17.566 -4.36,4.4975 -5.519,10.198 -7.14,15.7125 -2.3165,8.343 -3.29,17.5235 -11.68,22.669 -0.139,0.2315 -0.139,0.6515 0.137,0.8345 2.226,0.557 4.403,-0.327 5.8875,-1.8525 1.4375,-2.2745 2.9655,-4.4525 4.9135,-6.537 l 0.4665,-0.232 c 0.229,0.049 0.505,0.1855 0.4145,0.5105 -0.556,1.8525 -2.226,3.2 -2.78,5.05 -0.742,2.2265 -2.875,3.94 -4.6845,5.517 l -0.046,0.278 c 0,0.232 0.2315,0.464 0.466,0.5105 4.079,0.183 6.998,-2.7365 9.732,-5.4705 0.281,-0.278 0.6495,-0.2295 1.0205,-0.139 1.2055,0.9275 2.3165,2.3215 3.8955,2.6435 1.6675,-0.2345 3.425,-0.4615 5.1895,-0.322 2.4555,0.742 4.8215,1.757 7.277,2.592 1.2495,-0.044 2.177,-1.252 2.8265,-2.27 0.51,-1.2035 -0.232,-2.4115 -0.139,-3.569 0.605,-0.371 1.298,0.0905 1.9475,-0.095 0.2735,-0.183 0.5105,-0.51 0.5105,-0.832 -0.464,-2.1315 -2.3655,-3.7105 -2.9685,-5.702 -0.9275,-2.5535 -3.94,-4.0805 -4.496,-6.8175 0.1385,-0.1855 0.3705,-0.463 0.605,-0.2775 1.992,1.4365 3.7545,3.337 6.21,3.7065 1.8525,0.188 3.754,0.3725 5.607,0.232 0.278,-0.091 0.51,-0.4175 0.4175,-0.7395 -0.786,-1.6695 -1.5285,-3.3365 -1.9945,-5.1465 -0.6465,-2.269 -1.113,-5.4215 -0.369,-7.926 0.137,-0.1845 0.74,-0.5395 1.018,-0.448 0.3715,0.093 0.828,0.541 0.8765,0.8655 0.2785,3.942 -0.1315,7.556 2.231,10.6605 1.018,1.622 2.7805,1.947 4.0325,3.199 0.461,0.651 0.5565,1.7145 0.232,2.457 l -2.827,4.174 c -0.6515,0.9275 -1.298,1.948 -1.5325,2.968 -0.2295,1.1595 -0.093,2.27 0,3.3835 -0.183,0.09 -0.2735,-0.1855 -0.4615,-0.2785 -0.742,-1.5305 -1.5745,-3.4785 -0.7885,-5.2845 l 3.5685,-5.519 0.1395,-0.4175 c -0.7885,-0.4175 -1.6695,-0.832 -2.502,-1.02 -0.4175,0.188 -0.696,0.6025 -0.974,0.975 l -3.476,6.306 c -0.234,0.74 -0.4635,1.2985 -0.2805,2.087 0.188,0.9275 0.4175,1.855 0.837,2.6385 0.276,1.3015 0.5075,2.1825 1.1105,3.3395 0.8815,0.9735 2.087,0.093 3.2005,0.371 1.1125,0.2785 1.53,1.6205 2.6385,1.948 2.5045,0.83 5.1945,1.2955 7.694,2.27 1.3005,0.415 3.1535,0.9275 4.313,-0.1415 1.621,-0.8765 2.0405,-2.5925 2.319,-4.218 0.5075,-0.6935 1.5255,-0.415 2.27,-0.6445 1.3915,-0.928 1.853,-2.597 2.873,-3.847 l 0.1855,-0.6515 c -0.1395,-0.4175 -0.5105,-0.6495 -0.881,-0.7885 l -4.726,0 c -2.182,0.278 -2.3675,2.69 -3.29,4.1735 -0.513,0.928 -1.531,1.2965 -2.5975,1.206 -2.226,-0.605 -4.9595,-0.9275 -5.98,-3.339 -0.1395,-0.6005 -0.1395,-1.3425 0.3245,-1.7625 1.1565,-1.3425 2.551,-2.8705 3.986,-3.9835 2.041,-0.4195 4.035,-1.948 5.0965,-3.759 0.559,-0.7895 0.4665,-1.947 1.394,-2.55 0.2785,-0.047 0.8955,-0.0645 1.0835,0.2125 0.4175,1.343 -0.3365,2.308 -0.754,3.4675 5.053,0.51 8.9705,-0.9495 13.8815,-0.764 2.0875,0 3.957,0.2395 5.995,0.098 2.043,-0.093 4.2645,-0.929 4.9135,-3.061 0.928,-2.734 -0.361,-5.839 -0.8295,-8.436 l 0.561,-0.4395 c 0.3275,-0.1855 0.8715,0.0695 1.1035,0.255 0.8815,2.4565 1.4815,5.424 1.855,8.11 0.369,2.3655 1.3895,3.9035 2.6875,5.9 2.363,3.5195 6.535,4.9085 10.662,4.0275 5.004,-0.369 9.312,2.27 12.3755,6.161 l 0,0.232 c -0.095,0.183 -0.2805,0.4175 -0.512,0.3735 -2.6415,-2.0435 -5.285,-4.221 -8.668,-4.636 -3.42,-0.6245 -6.4905,1.1575 -10.0565,-0.28 -4.3015,-1.416 -6.105,-4.0645 -7.926,-8.2995 l -0.3735,0 c -0.276,0.0465 -0.459,0.327 -0.5075,0.605 l 0.4635,2.8755 c 0.557,2.3165 1.301,5.053 3.803,6.117 1.9455,1.16 3.842,2.827 6.256,2.1775 4.218,-0.9275 8.48,0.2785 11.724,2.6435 1.069,0.603 1.8995,1.7165 3.061,2.131 1.25,0.5075 2.78,0.2295 3.8005,-0.605 2.3655,-0.784 2.9195,2.182 4.5425,3.246 1.438,1.3915 4.306,0.8155 6.2075,0.8155 l -0.044,-0.21 c -0.2295,-1.904 -0.742,-3.386 -1.4815,-5.053"
     inkscape:connector-curvature="0" /><path
     style="fill:#ed1e36;fill-opacity:1;fill-rule:nonzero;stroke:none"
     id="path4967"
     d="m 280.17225,139.888 c -0.232,-1.069 0.0465,-2.551 -0.6495,-3.525 -0.603,-0.4635 -1.159,-1.157 -1.945,-0.9735 -0.652,0.559 -1.6235,1.203 -1.4845,2.1795 0.554,1.667 0.9275,2.8705 1.2525,4.5865 0.1855,0.3245 0,0.974 0.51,0.974 l 2.966,-0.974 c 0.5095,-0.832 -0.464,-1.4815 -0.6495,-2.2675"
     inkscape:connector-curvature="0" /><path
     style="fill:#ed1e36;fill-opacity:1;fill-rule:nonzero;stroke:none"
     id="path4969"
     d="m 272.66375,130.2465 c -0.9275,-0.7915 -1.8985,0.3685 -2.365,1.066 0.327,1.111 1.2495,2.0385 1.9475,3.059 0.3715,0.5565 0.972,0.925 1.6235,0.9715 0.647,0 1.1595,-0.3225 1.621,-0.6935 0.3245,-0.42 0.695,-0.93 0.5585,-1.528 -0.8835,-1.206 -2.2725,-1.953 -3.3855,-2.875"
     inkscape:connector-curvature="0" /></svg>