<svg xmlns="http://www.w3.org/2000/svg" width="283" height="228.442"><defs><clipPath><path d="M0 612h792v-612h-792v612z"/></clipPath></defs><path d="M282.877 141.316c-.102-.412-.261-.857-.391-1.204l-.122-.323c-.1-.264-.196-.517-.293-.8l-.102-.356-.015-.232c.134-1.506-.244-2.289-.835-3.313-.457-.8-1.099-1.113-1.528-1.133-.11.318-.408.51-.738.51l-.137-.01c-.424-.066-.718-.485-.668-.91l.029-.332c.012-.401-.076-.759-.276-1.133-.505-.947-4.152-3.949-5.538-3.949-1.123 0-2.3.615-3.154 1.647-.151.188-.379.293-.618.293l-.076-.005c-.264-.025-.497-.178-.627-.415-.122-.225-.227-.467-.322-.723-.249-.659-.396-1.33-.537-1.98l-.107-.498c-.389-1.689-.955-3.39-3.21-4.047-.183-.054-.422-.095-.71-.118-.244-.025-.51-.035-.781-.043l-.205-.005c-.454-.01-.922-.024-1.387-.088-.925-.136-1.542-.437-1.542-1.474 0-.09.015-.178.044-.263l.249-.713c.183-.519.447-1.322.654-2.277.389-1.772.417-3.397.09-4.827-.061-.259.015-.529.196-.721.151-.165.363-.258.586-.258l.115.01c.928.141 1.682.152 1.892.152 4.809 0 12.444-3.139 12.444-11.57 0-4.841-3.925-9.447-7.213-12.457-.214-.198-.307-.497-.236-.783.07-.284.29-.506.573-.582 4.679-1.22 7.258-4.334 7.258-8.765v-.295c.002-.692.005-1.476-.135-2.319-.193-1.177-.63-2.265-1.323-3.326-.076-.11-.191-.236-.452-.236l-.195.026c-.185.05-.386.174-.522.265-.434.287-1.065.823-1.567 1.258-.571.489-1.257.852-2.221 1.174-.586.195-1.194.357-1.843.528-.34.087-.686.179-1.05.282-2.228.625-4.665 1.53-7.374 3.914-1.237 1.092-2.096 2.907-2.179 4.627-.075 1.445.462 2.937 1.647 4.564 1.023 1.417 2.382 2.75 3.805 4.104l.505.482c.517.494 1.03.985 1.518 1.472.743.738 1.299 1.343 1.755 1.901 1.128 1.387 1.655 2.526 1.655 3.587 0 2.261-1.619 3.784-4.074 3.784-2.712-.02-4.799-1.062-7.701-2.979l-1.362-.916c-.965-.649-1.96-1.321-3.068-2.014-2.011-1.254-3.866-2.252-5.846-3.135-.549-.245-1.095-.461-1.659-.657v-93.712h-203.109v93.9c-1.036.261-2.031.611-3.025 1.077-1.365.642-2.741 1.464-4.47 2.664-.747.517-1.479 1.048-2.199 1.578-.644.467-1.279.93-1.911 1.371-2.849 1.997-5.292 3.325-7.941 3.325-2.616 0-4.474-1.53-4.729-3.899-.222-2.09.845-4.2 3.007-5.949l1.192-.956c.884-.709 1.717-1.377 2.471-2.021 1.255-1.077 2.111-1.948 2.768-2.812 1.627-2.138 2.039-4.338 1.341-7.131-.63-2.513-2.562-4.223-5.909-5.227-1.194-.362-2.409-.58-3.546-.764l-.396-.064c-.35-.055-.667-.107-.94-.158-.367-.067-.623-.132-.772-.194-1.815-.808-5.761-3.448-6.552-3.98l-.323-.217-.22.32c-.723 1.035-1.29 1.855-1.722 5.452-.475 3.971 2.797 8.818 8.431 9.705.313.05.568.283.649.589.081.308-.029.634-.28.832-5.96 4.687-7.229 6.698-7.544 11.964-.193 3.265.947 6.466 3.137 8.789 2.389 2.535 5.852 3.874 10.019 3.874 1.109 0 2.281-.095 3.482-.282l.124-.009c.179 0 .355.059.494.172.178.138.285.343.303.565.278 3.664.942 6.643 1.772 7.973.203.324.147.751-.135 1.012-.258.234-.662.467-1.175.664-1.272.498-3.199.806-5.121.806-1.2 0-2.092.822-2.809 2.592-.234.574-.422 1.186-.611 1.78l-.052.166c-.096.302-.184.581-.275.825-.083.229-.17.439-.263.613-.24.427-.596.847-1.087 1.282-.15.132-.338.201-.529.201l-.136-.01c-.239-.042-.447-.191-.565-.4-.587-1.06-1.514-1.736-2.752-2.006l-.027-.002h-.124c-1.831 0-4.992 1.545-6.158 4.449-.11.269-.36.464-.651.493l-.145.019c-1.46.151-2.377.83-2.897 2.128-.217.551-.346 1.167-.449 1.704l-.078.396c-.082.449-.17.901-.284 1.343-.092.353-.217.664-.407 1.01l-.275.473-.193.323c-.325.596-.489 1.206-.23 2.245.117.476.494.886 1.117 1.223.46.252 1.056.466 1.772.639 1.27.31 2.527.407 2.769.407.176 0 .348-.049.517-.146.123-.066.238-.159.372-.259.145-.11.341-.18.529-.18l.123.01.592.112c.488.093 1.095.215 1.698.337l.098.022 1.61.315.637.11.419.042h.005c2.517-.122 3.58-1.099 4.284-2.038.198-.266.375-.544.55-.837l.284-.486.215-.361c.205-.354.41-.676.636-.984.155-.209.395-.327.647-.327l.207.025c.288.078.577.132.823.176.585.1 1.117.151 1.345.166l.487.017c2.382 0 4.157-1.328 5.629-2.573l.481-.41.668-.569c.295-.244.682-.561 1.085-.827.715-.476 1.319-.696 1.907-.696l.144.005c.573.035 2.725.191 6.377.771.155.022.315.034.477.034.612 0 1.352-.158 2.207-.469v17.239c0 12.097 1.554 16.752 5.275 23.223l.209.361.232.349c21.571 32.201 57.399 51.428 95.84 51.428 38.439 0 74.264-19.224 95.841-51.425l.232-.347.21-.366c3.715-6.466 5.27-11.121 5.27-23.223v-16.614c.269.033.544.051.828.05.605 0 1.23-.081 1.857-.239.676-.175 1.352-.259 2.065-.259.354 0 .703.024 1.038.059.895.098 1.692.297 2.336.459l.169.044c1.046.261 2.038.673 3.029 1.264.816.488 1.504 1.01 2.168 1.516l.178.135c1.317 1.001 2.685 2.035 4.593 2.035l.23-.005c.127-.005.274-.043.337-.063l.368-.117c.259-.093.569-.217.876-.342.3-.115.637-.249 1.023-.325l.154-.015c.264 0 .512.129.663.351l.305.475c.191.313.386.632.637.955.735.948 2.075 2.216 5.204 2.295l.823.01c1.628 0 2.631-.124 3.08-.2l.135-.01c.161 0 .32.046.456.144.332.23.686.342 1.077.342.843 0 2.092-.254 3.11-.63.601-.219 1.096-.475 1.464-.747.478-.356.757-.752.823-1.171.051-.318.018-.694-.1-1.159" fill="#fff"/><path d="M236.294 132.189c-1.372-1.859-2.289-4.32-2.646-7.108-.029-.236-.164-.447-.363-.571-.13-.083-.281-.127-.43-.127l-.241.036c-.283.09-.583.163-.888.227v28.433c0 10.435-1.213 12.893-3.647 17.131-18.598 27.759-50.032 45.999-85.679 45.999-35.648 0-67.085-18.241-85.682-45.999-2.431-4.237-3.647-6.696-3.647-17.131v-28.323999999999998l-.214.007h-.22499999999999998c-.305 0-.583.169-.72.437-.353.713-.702 1.425-1.03 2.104l-.595 1.218c-.548 1.111-1.111 2.209-1.526 2.732-.369.463-.785.822-1.183 1.104v20.723c0 11.091 1.334 14.572 4.377 19.864l.095.166.105.157c20.319 30.331 54.055 48.441 90.245 48.441 36.191 0 69.927-18.109 90.246-48.441l.105-.157.093-.161c3.044-5.295 4.377-8.773 4.377-19.869v-19.934c-.368-.301-.67-.612-.925-.957" fill="#23326a"/><path d="M51.928 90.24l.295-.272.847-.765v-76.975h178.654v76.561c.55.362 1.095.728 1.623 1.087.473.325.942.639 1.391.94.834.55 1.641.909 2.48 1.183v-85.264h-189.642v86.12c.821-.215 1.637-.538 2.474-1.078.533-.345 1.093-.823 1.877-1.536" fill="#23326a"/><path d="M46.272 93.117v-87.689h192.25v86.931c.342.082.69.159 1.052.234l.376.078c.523.109 1.067.228 1.621.358v-90.648h-198.346v91.08c.466-.058.922-.103 1.371-.147.572-.057 1.127-.116 1.675-.198" fill="#23326a"/><path d="M238.683 134.122l-.161-.101v19.057c0 11.414-1.387 15.017-4.55 20.518l-.115.203-.132.193c-20.56 30.692-54.702 49.014-91.327 49.014-36.626 0-70.769-18.322-91.33-49.014l-.131-.196-.115-.2c-3.165-5.507-4.551-9.11-4.551-20.518v-19.977l-.638.298-.094.044c-.324.146-.591.274-.813.414-.509.317-1.014.611-1.502.876v18.344c0 12.089 1.587 16.174 4.956 22.037l.169.293.187.28c21.128 31.54 56.217 50.37 93.862 50.37 37.645 0 72.732-18.83 93.861-50.37l.185-.28.169-.293c3.368-5.859 4.957-9.945 4.957-22.037v-17.311c-.855-.386-1.624-.861-2.309-1.29l-.579-.356" fill="#23326a"/><path d="M186.115 120.809c-.239 1.443 1.615 3.713 2.148 4.736.259-.522 1.813-4.075 2.047-4.507-.758-.045-2.826-.06-4.196-.229" fill="#fabb23"/><path d="M96.697 124.486c.737-1.313 1.554-1.518 2.099-2.191.313-.899.75-1.419 1.363-2.189-1.483.225-4.302.759-5.495.98.273.85.532 2.817 2.033 3.401" fill="#fabb23"/><path d="M188.417 134.19c-.086-.288-.164-.586-.236-.89-.086-.354-.391-.606-.752-.616h-.029c-.351 0-.661.228-.761.564-.391 1.272-1.475 3.432-4.375 3.607l-.212.008c-1.294 0-2.99-.646-4.114-1.076l-.515-.198c-.576-.222-1.142-.437-1.672-.623-.769-.259-1.327-.396-1.76-.432l-.34-.013-.525.022c-.33.025-.673.061-1.038.1-.71.079-1.494.166-2.277.166h-.178c-1.679-.034-2.994-.507-4.015-1.444-.151-.141-.347-.215-.542-.215-.21 0-.417.088-.574.249-2.568 2.66-5.729 4.013-9.412 4.013h-.332c-.764-.02-2.123-.44-2.692-1.171-.227-.293-.295-.601-.21-.96.059-.237.002-.481-.149-.676-.146-.188-.373-.302-.613-.307-2.084-.034-3.322-1.03-3.622-1.996-.232-.757.086-1.492.898-2.075l.2-.139c.29-.203.632-.437 1.087-.813.678-.559 1.462-1.31 2.397-2.289 1.931-2.016 3.381-4.476 4.559-7.726 1.008-2.774 1.692-5.803 2.35-8.73l.1-.439c1.369-6.027 2.914-12.865 7.846-18.248 3.644-3.981 6.432-6.174 14.128-11.648 1.312-.931 2.636-2.045 3.934-3.149-5.777-7.899-13.685-14.139-22.877-17.88 4.019 4.657 6.455 10.72 6.455 17.355 0 14.68-11.9 26.581-26.582 26.581-14.68 0-26.579-11.902-26.579-26.581 0-6.545 2.369-12.533 6.29-17.165-8.491 3.547-15.864 9.232-21.442 16.389 1.378.975 2.704 1.998 4.324 3.328 1.095.899 2.287 1.913 3.689 3.103.987.838 2.079 1.765 3.317 2.807.73.713 1.657 1.77 2.784 3.2.372.469.738.94 1.09 1.393.512.66.99 1.283 1.419 1.805 3.45 4.224 5.577 7.036 6.07 10.511.952 6.76 1.574 10.606 4.226 17.39.05.127.152.291.303.479.141.188.322.386.515.582l.602.633c.207.217.408.44.575.647.427.56.793 1.202 1.093 1.76l.278.525c.239.452.487.913.752 1.369.613 1.047 1.507 2.361 3.012 3.21 1.585.888 1.901 1.073 2.445 1.581.253.239.375.517.372.85-.008.493-.295 1.064-.738 1.452-.484.432-1.149.726-1.97.872-.22.039-.412.166-.532.356-.12.19-.158.419-.1.634.141.535.035 1.079-.302 1.529-.505.678-1.44 1.073-2.627 1.113l-.51.005c-4.997 0-8.386-2.35-9.964-3.749-.149-.135-.342-.205-.53-.205-.167 0-.33.051-.468.153l-.212.154c-.58.415-1.448 1.044-2.571 1.506-.772.368-1.629.532-2.737.532-.397 0-.785-.022-1.15-.046l-.777-.057c-.385-.032-.767-.061-1.145-.083l-.607-.015c-.426 0-.788.027-1.106.086-.899.161-1.861.483-2.881.822l-.677.225c-1.188.383-2.562.802-3.801.854l-.298.005c-1.812 0-3.094-.686-3.811-2.038-.147-.279-.268-.581-.372-.925-.096-.315-.37-.539-.692-.563l-.079-.008c-.295 0-.568.164-.704.431l-.05.091c9.053 16.312 26.447 27.353 46.425 27.353 19.899 0 37.236-10.956 46.318-27.163l-.017-.051" fill="#fabb23"/><path d="M83.922 30.149c0-6.344-4.994-11.485-11.155-11.485-.188 0-1.051.002-1.235.013h-12.975v38.883h7.876v-32.174l4.696-.043c2.909 0 5.119 2.278 5.119 5.09 0 2.809-2.359 5.085-5.266 5.085l-1.829.043v9.261l7.869 12.738h9.283l-10.881-16.25c4.88-1.228 8.499-5.76 8.499-11.161" fill="#ed1e36"/><path d="M92.561 42.594c0-2.619 2.078-4.744 4.641-4.744 2.562 0 4.639 2.124 4.639 4.744h-9.28zm4.573-10.18c-6.933 0-12.555 5.816-12.555 12.992 0 7.176 5.624 13.003 12.559 13.003 5.29 0 9.419-2.45 11.549-6.284l-6.168-2.909c-.784 1.736-2.62 2.954-4.76 2.954-2.856 0-5.168-2.17-5.168-4.844l-.05-.27 16.782.007c.049-.532.077-1.075.072-1.631.115-8.407-5.326-13.018-12.261-13.018" fill="#ed1e36"/><path d="M119.486 45.659c0-3.362 2.524-6.087 5.634-6.087 3.112 0 5.633 2.724 5.633 6.087 0 3.362-2.522 6.087-5.633 6.087-3.11 0-5.634-2.724-5.634-6.087m18.826 4.535l-.008-32.782h-7.681l.03 18.821c-2.034-1.992-4.749-3.196-7.711-3.196-6.337 0-11.475 5.548-11.475 12.396 0 6.843 5.138 12.393 11.475 12.393l.138-.004c4.008-4.049 9.309-6.811 15.232-7.627" fill="#ed1e36"/><path d="M218.826 57.617h7.404v-39.906h-7.404v39.906z" fill="#ed1e36"/><path d="M193.872 47.746c0 2.334-1.942 4.226-4.34 4.226-2.397 0-4.34-1.892-4.34-4.226v-14.018h-7.54v15.508c0 5.252 5.306 9.508 11.854 9.508 6.546 0 11.853-4.256 11.853-9.508v-15.508h-7.487v14.018z" fill="#ed1e36"/><path d="M162.404 50.775h-7.083v-25.33h4.943c2.17 0 3.929 1.852 3.929 4.139 0 2.284-1.76 4.138-3.929 4.138h-2.571v7.024h4.711c2.631 0 4.62 2.235 4.62 5.004-.095 2.865-1.76 4.84-4.62 5.026m6.2-14.479c2.023-1.99 3.261-4.657 3.261-7.588 0-2.658-.969-5.096-2.663-7.014-1.765-2.049-4.892-2.957-9.117-2.957h-12.653v31.765c5.082 1.062 9.627 3.575 13.19 7.085h3.155c6.263-.107 11.303-5.119 11.303-11.231 0-4.449-1.484-7.618-6.476-10.06" fill="#ed1e36"/><path d="M206.314 57.617h7.401v-39.906h-7.401v39.906z" fill="#ed1e36"/><path d="M121.993 90.858c7.748 5.599 18.675 6.487 27.215 1.897 9.276-4.8 14.893-14.691 14.038-25.351-.161-1.548-.407-3.053-.813-4.517 2.619 3.94 4.125 8.608 4.125 13.633 0 13.576-11.008 24.587-24.59 24.587-8.229 0-15.512-4.042-19.976-10.251" fill="#c6ccd2"/><path d="M134.72 82.662c-5.746-1.388-9.674-2.778-9.674-2.778-.619-5.936-.094-11.105-.094-11.105 2.486-1.295 9.238-4.312 9.238-4.312 3.209 3.642 6.274 8.521 6.274 8.521-1.486 2.874-5.745 9.674-5.745 9.674m-9.476-24.166c-.58.942-2.269 3.781-3.79 7.168-1.434 1.796-2.686 3.623-3.227 4.427 1.22-4.511 3.689-8.505 7.017-11.595m25.799 14.302s2.154-4.497 4.741-8.138c0 0 4.979 2.345 7.325 4.262 0 0 .86 2.679.285 10.53 0 0-2.97 1.724-7.276 2.779 0 0-2.922-4.931-5.075-9.433m-11.155 18.431l10.628-.286 2.058 5.793c-4.021 2.393-8.856 3.64-8.856 3.64-5.074-1.105-7.994-3.305-7.994-3.305l4.165-5.841zm2.079-39.299c3.244 0 6.341.629 9.173 1.77-.098.454-.442 1.752-1.438 3.397-5.124-.67-10.82-.142-10.82-.142l-4.734-3.755c2.454-.823 5.087-1.269 7.819-1.269m-15.754 43.468c-4.074-3.404-7.029-8.1-8.233-13.459 1.315 1.362 3.859 3.976 3.859 3.976 1.532 3.163 5.362 8.666 5.362 8.666-.275.304-.708.625-.988.817" fill="#23326a"/><path d="M63.428 168.457l2.373 2.871 8.018-6.635c2.442-2.022 7.17-6.322 9.368-8.402l.065.079c-5.457 5.946-9.976 12.165-14.952 17.98l2.244 2.714 27.667-22.886-2.372-2.87-8.022 6.639c-2.441 2.016-7.17 6.322-9.367 8.397l-.066-.078c5.457-5.947 9.973-12.164 14.952-17.98l-2.242-2.712-27.667 22.884z" fill="#23326a"/><path d="M110.85 164.581l-5.912-4.521c-1.637-1.25-3.964-.939-5.216.698l-17.289 22.613c-1.252 1.636-.943 3.964.695 5.216l5.915 4.519 2.259-2.954-5.911-4.521 7.513-9.833 4.434 3.393 2.26-2.954-4.434-3.393 7.513-9.828 5.913 4.521 2.26-2.959z" fill="#23326a"/><path d="M102.426 200.893l3.229 1.266c2.947-4.623 6.204-9.075 9.526-16.038l.095.037c-2.292 7.367-2.926 12.844-3.906 18.238l3.229 1.267 14.227-32.992-3.511-1.377c-2.397 5.976-4.905 11.958-7.255 17.953-.842 2.153-1.594 4.345-2.439 6.498l-.092-.034c1.558-5.766 2.116-9.813 3.042-13.825l-2.902-1.138c-2.049 3.574-4.389 6.923-7.163 12.21l-.092-.039 2.626-6.423c2.349-5.992 4.574-12.087 6.876-18.1l-3.511-1.376-11.978 33.871z" fill="#23326a"/><path d="M149.674 209.157l3.703-.41-1.756-15.944c1.099-.579 1.921-1.377 2.475-2.348.544-1.021.773-2.16.647-3.308l-1.594-14.496-3.7.405 1.764 16.047-3.7.408-1.765-16.05-3.698.41 1.595 14.497c.129 1.149.597 2.209 1.351 3.087.748.831 1.726 1.431 2.925 1.753l1.752 15.95z" fill="#23326a"/><path d="M176.972 198.539l-3.469 1.353-10.328-26.523 3.466-1.352 10.331 26.523zm-7.504 1.25c1.115 2.856 4.37 4.287 7.231 3.174 2.856-1.113 4.288-4.367 3.172-7.225l-9.194-23.619c-1.116-2.861-4.369-4.292-7.228-3.174-2.858 1.109-4.292 4.364-3.176 7.225l9.195 23.619z" fill="#23326a"/><path d="M178.631 165.313l3-2.204 7.321 9.973-3 2.203-7.321-9.972zm16.044 28.149l3-2.202-9.523-12.976 2.998-2.202 7.948 10.826c.537.728 1.454 1.301 2.226 1.672l3.08-2.26c-.943-.434-1.714-.805-2.304-1.615l-7.083-9.646c-1.311-1.785-2.365-1.948-3.303-1.694.432-.942.654-1.913-.359-3.295l-6.724-9.164c-1.22-1.659-3.539-2.016-5.202-.796l-6 4.404 21.246 28.95z" fill="#23326a"/><path d="M194.078 145.266l-2.493 2.9s.544 1.577 1.748 2.615l6.84 5.878s2.702 2.079.173 5.024l-11.726-10.079-2.417 2.812 27.227 23.406 2.404-2.803-12.595-10.828s2.414-2.821 4.763-.803c2.009 1.726 8.086 6.954 8.086 6.954s1.286 1.23 2.704 1.25l2.49-2.897s-1.567-.135-3.261-1.584c-1.687-1.45-6.732-5.79-6.732-5.79s-4.469-4.269-8.47.384c0 0 3.469-4.682-1.577-9.02-3.978-3.422-5.971-5.131-5.971-5.131s-.949-.962-1.193-2.287" fill="#23326a"/><path d="M75.499 130.197c.93 1.02.882 2.595 1.949 3.383 1.39.234 2.64-.322 3.708-1.157.604-.508-.279-1.157-.371-1.762-.602-.881-.187-2.642-1.67-2.688-1.482.23-2.965.281-4.449.281l-.417.276c-.277.881 1.02.881 1.25 1.667" fill="#ed1e36"/><path d="M5.19 135.113c-.742.368-1.53 1.065-1.715 1.899-.235 1.484.093 2.876-1.068 3.94-.045.278-.325.6-.045.88 1.02.323 1.993.74 3.245.881.554-1.811.972-3.801 1.621-5.378v-.466c-.557-.693-1.114-1.575-2.039-1.758" fill="#ed1e36"/><path d="M120.075 115.118l-.141.394-.122.403c-.136.365-.348.568-.665.644-.186.054-.365.026-.505-.079-.141-.107-.225-.277-.225-.47l-.026-.415-.143-1.427c-.115-.665-.31-1.175-.618-1.605l-.625-.728-.708-.803c-.544-.544-1.034-.804-1.544-.822-.398.124-.758.387-1.143.809l-.495.606-.432.582c-.157.273-.512.12-.514.117l-.063-.032-.025-.065c-.113-.281-.154-.548-.154-.8 0-.445.135-.842.27-1.167l.377-.772.432-.913.058-.084c.131-.126.255-.348.398-.723l.115-.315.253-.648c.384-.824.954-1.045 1.792-.69.65.348 1.05.897 1.352 1.39l.205.342.265.435.548.697c1.495 1.677 2.22 3.26 2.22 4.896 0 .407-.045.823-.136 1.24m-5.679 12.628l-.01.025-.045.002c-.86.271-1.831.384-2.89.332l-.059-.012-.192-.086-.205-.127c-.103-.083-.258-.261-.169-.522.4-1.208 1.595-2.59 3.099-2.9l.13-.004h.21l.338.046c.163.046.442.181.513.577.022.222.043.469.043.723 0 .713-.15 1.489-.763 1.948m-17.663-30.568l-.115-.029-.013.045-.032.034c-.133.129-.367.226-.601.069l-.063-.043-.015-.076c-.36-1.847-.772-3.804-1.521-5.622l-.429-.735-.167-.232-.367-.532c-.293-.468-.577-1.1-.185-1.851l.043-.057c.339-.337.933-.365 1.341-.212l.052.028c.789.544 1.3 1.446 1.672 2.104.468 1.09.708 2.457.708 3.869 0 1.078-.138 2.182-.422 3.21l.115.029m36.377 32.648c-2.78-1.623-3.889-4.679-5.606-7.093-.601-.881-1.667-1.438-2.225-2.318-1.992-5.425-3.707-10.846-4.216-17.057-.417-1.529-.74-3.104-1.577-4.542-2.502-4.079-5.745-7.789-8.899-11.543-.279-.277-.281-.303-.88-.88l-10.985-9.13c-1.345-1.02-2.874-1.669-4.404-2.364-2.317-.882-5.469-.696-7.738.28-2.365 1.25-4.497 3.059-7.002 3.892-3.611 1.622-7.691 1.946-10.798 4.729-1.807 1.577-3.337 4.032-6.027 3.614-3.012-.14-5.699.973-7.971 2.826-2.042 1.856-3.983 4.033-6.628 4.544-2.317.973-5.144.507-7.508 1.39-3.756.925-6.721 3.893-9.916 6.165-3.199 1.852-6.258 3.846-10.248 3.754-2.591-.185-5.096-1.993-5.93-4.495-.788-2.877.091-5.841 2.364-7.788 2.364-2.826 6.115-4.497 7.973-7.741.973-1.715.832-4.494-.466-6.116-2.457-2.55-5.979-2.645-9.175-3.432-2.039-.558-3.617-2.132-5.424-3.105-.696 1.064-.927 2.225-.833 3.522.37 2.921 2.593 5.56 5.374 6.58 1.622.698 3.477.188 5.144.558.466.184.93.647.972 1.157-.086.465-.134.927-.551 1.252-2.597 2.18-5.33 4.264-7.511 6.952-2.317 2.504-2.595 6.905-1.387 10.06 1.343 3.614 5.097 5.979 8.71 6.442 2.643.417 5.009-.279 7.417-.788.325 0 .465.326.602.51.233 2.132-.092 4.032.372 5.979.417 1.808 1.02 3.059 1.667 4.819.095.601 0 1.252-.417 1.716-1.341 1.023-2.734 1.718-4.216 2.368l-3.614.229-.697.328c-1.345 1.577-1.39 3.197-2.223 4.957-1.115 1.857-3.152 2.733-4.87 3.8-.554.881-1.159 1.809-1.944 2.505-.606.556-1.345.696-2.133.788-1.252 1.438-1.529 3.429-1.857 5.378 2.041.185 4.176 1.296 6.167.185 1.715-.791 2.087-2.876 3.385-4.125 1.019-1.113 2.55-.279 3.754-.049 1.805.093 3.105-1.204 4.636-1.806 1.062-.693 1.944-1.899 3.055-2.597 2.135-1.016 5.099-.464 7.325-.044 1.76.462 3.615.185 5.144-.512 1.438-.878 2.781-1.992 4.402-2.363 1.437-.74 2.135-2.363 2.736-3.705.46-1.255 1.667-2.226 1.575-3.662-.372-.328-.787-1.025-1.343-.979-.696.979-1.205 1.994-1.993 2.925-3.352 4.572-5.987 5.004-12.792 5.004-5.054-.186-9.597 1.347-13.07 5.285-.233.14-.558.044-.743-.137-.137-.559.328-1.482.557-1.899 3.107-4.401 7.926-5.421 13.023-5.511 2.78-.191 5.423-.652 7.789-1.855 2.641-1.343 4.446-3.437 5.561-6.035.6-2.92.835-6.072 1.577-8.853.09-.277.785-.485 1.014-.392.278.046.83.299.83.625-.506 2.871-1.429 6.253-.318 9.035 2.225 2.926 6.352 1.349 9.366 1.207 3.151-.279 5.684-.032 8.697.152 1.482-.044 2.58.318 3.737-.608.322-.51.455-1.203.362-1.757-.095-.835-.789-1.338 0-2.035.23-.185.923-.062 1.107.17.417 1.16.603 2.41 1.345 3.43 1.484 1.903 3.661 3.388 5.698 4.452 1.946 1.347 3.57 3.247 3.71 5.609 0 1.206-1.113 2.038-2.041 2.597-1.575.786-3.292 1.435-5.143 1.25-2.461-1.204-3.107-3.801-4.729-5.702-.832-.925-2.084-1.111-3.337-1.018-1.345.137-2.688.183-3.892.603-.325.278-.417.693-.372 1.113.835 1.528 1.762 3.013 2.687 4.54 1.07.649 2.552-.371 3.477.786.787 1.208 1.298 2.646 2.505 3.573 1.161 1.016 2.921 1.48 4.449.833 3.43-1.067 6.861-2.177 10.059-3.893h1.064c1.298-.139 2.737-.046 3.663-1.02 1.019-1.484 1.854-2.873 2.642-4.45.787-1.067.417-2.689.095-3.847-1.577-1.945-2.459-4.128-3.294-6.354-.785-.232-1.483-.695-2.362-.649-.415.184-1.02.091-1.253.557l3.663 7.234c.23.557.51 1.343.37 2.084-.51 1.533-1.298 3.013-2.547 4.125-.232.141-.51.281-.695-.044.415-1.577 1.157-3.29 1.065-5.099l-3.567-6.446c-.419-.882-1.161-1.67-1.115-2.69 0-.465.415-.787.79-.972 1.575-.512 3.474-.417 4.679-1.667 1.578-2.461 1.905-4.87 2.322-7.789.093-.185.468-.542.745-.542.278-.092.595.313.732.45.468 3.197-.184 6.441-2.037 8.945-.092.325-.232.743.138.974 1.762.556 3.616 0 5.099-.788 1.901.046 3.661-.417 5.379-.695.184.09.369.278.369.462-1.157 1.298-1.808 2.735-2.132 4.407-1.393 1.438-3.384 2.688-3.525 4.777.233 1.016 1.115.044 1.717.137.278.049.463.279.463.556l-1.389 2.038c-.743 1.208.137 2.597.137 3.756.326.925 1.438 1.391 2.41 1.391 2.087-.092 3.941-.881 5.796-1.532 2.039-.881 4.587-.835 6.814-.464 2.178-.137 3.8-1.575 5.421-3.012.882 0 1.669.603 2.271 1.254 2.5 2.685 5.747 3.845 9.409 3.754l.325-.185c.233-.234.138-.649-.141-.835l-2.175-1.113c-1.53-.977-3.432-2.272-3.939-3.989-.465-1.528-1.3-3.197-2.228-4.681l-1.389-2.086c.089-.095.184-.234.325-.186 2.409.838 3.847 3.2 4.957 5.333 1.765 2.455 4.312 4.54 7.649 3.989l.279-.234c.141-.185.093-.417 0-.556l-1.671-.835z" fill="#ed1e36"/><path d="M10.053 134.972c1.438-.835 2.365-2.409 3.107-3.755-.138-.508-.651-.878-1.068-1.252-.275-.23-.692-.046-1.02.046-1.02.881-2.082 1.577-3.198 2.275-.463.322-.277 1.018-.369 1.528 0 .464.555.786.835 1.065.51.234 1.157.279 1.713.093" fill="#ed1e36"/><path d="M206.802 128.809c-1.252.232-2.69-.046-3.942.137-.554.835-1.065 1.855-.927 2.97.139 1.157 1.438 1.25 2.272 1.575.789.09 1.946.368 2.368-.462.462-1.209.879-2.505 1.065-3.803-.093-.371-.467-.51-.835-.417" fill="#ed1e36"/><path d="M195.091 86.209l-.198.392-.217.347c-.002-.002-1.462 1.357-1.462 1.357l-1.565 1.462c-1.174 1.14-1.999 2.104-2.592 3.034-.498.683-.874 1.478-1.238 2.246-.113.229-.391.234-.541.184l-.088-.028-.026-.084c-.101-.295-.146-.606-.146-.945 0-.258.026-.535.083-.833l.288-1.158.146-.522c.888-2.364 2.876-4.833 5.448-6.763.332-.21.945-.36 1.416-.213.283.088.486.276.603.552.115.191.169.378.169.571 0 .131-.025.262-.075.4l.11.039-.113-.039m-18.907 26.355l-.127.447c-.107.148-.244.326-.415.433-.146.086-.371.157-.616.002-.246-.098-.44-.251-.603-.472l-.198-.3-.171-.295c-.207-.356-.406-.627-.889-.59-.432-.022-.747.152-1.023.345l-.302.225-.171.129-.488.329-.664.566-.288.243-.932.866c-.676.704-1.042 1.345-1.159 2.015l-.127.487-.036.21-.059.295c-.066.325-.18.685-.51.89-.222.065-.495.019-.706-.133-.168-.124-.266-.3-.266-.484-.188-2.237.598-4.327 2.153-5.744.788-.648 1.454-1.428 2.002-2.108l.608-.772 1.218-1.504.137-.072c.883-.17 1.435.618 1.631.965.766.989 1.389 2.103 1.964 3.52.035.1.051.205.051.315l-.015.196m-1.065 16.047l-.029.059c-.302.215-.676.303-1.198.279l-.886-.102-.295-.044-.064-.019c-.888-.495-1.105-1.504-1.206-2.519 0-.344.113-.61.349-.793l.046-.042h.066c1.218 0 2.139.366 2.734 1.086l.029.051.183.359.276.573.11-.042-.11.042c.081.215.122.41.122.594 0 .183-.042.354-.127.519m98.751 8.866c-2.365.137-3.525-2.412-4.912-3.896-1.161-1.343-3.432-2.128-3.385-4.125-.417-.786-.512-2.035-.881-3.058-.325-.832-.649-2.041-1.762-2.224-1.992-.322-4.404.23-5.655-1.623-1.294-1.393.141-3.014.373-4.36.554-1.714.603-3.987.325-5.748-.046-1.02-.742-1.853-.556-2.873.464-.881 1.577-.232 2.268-.139 2.597.742 5.658.372 8.018-.648 3.246-1.577 5.843-4.868 5.704-8.623-.466-4.867-3.942-8.851-7.694-12.004-.695-.604-1.577-1.252-1.808-2.132-.093-1.901 2.038-.974 3.107-1.437 1.296-.326 2.595-.65 3.662-1.39 2.826-1.903 3.429-5.239 2.873-8.483-.092-.278-.092-.697-.509-.697-.51.419-1.02 1.022-1.667 1.391-1.809 1.068-4.223.882-6.12 1.81-2.365 1.02-5.285 2.454-6.305 5.142-.279 1.347.049 2.736.652 3.849 2.87 4.542 8.943 7.508 9.918 12.977.368 2.225-.743 3.848-2.458 5.099-2.598 1.575-6.489 1.019-9.083-.372-5.006-2.502-9.364-6.674-14.741-8.389-3.383-1.528-7.554-1.161-10.567-3.525-2.27-1.482-4.356-3.429-6.905-4.076-1.763-.603-3.755-.51-5.375-1.391-1.673-1.484-3.432-2.874-5.38-3.847-2.685-1.345-5.654-2.039-8.619-2.69-1.762-.417-2.409-2.361-3.847-3.337-2.458-1.946-5.191-3.337-8.528-3.058-1.389.093-2.458 1.019-3.525 1.947-7.088 6.21-15.202 10.475-21.688 17.566-4.36 4.497-5.519 10.198-7.14 15.713-2.317 8.343-3.29 17.523-11.68 22.669-.139.232-.139.651.137.835 2.226.557 4.403-.327 5.888-1.853 1.438-2.275 2.966-4.452 4.913-6.537l.467-.232c.229.049.505.185.414.51l-2.78 5.05c-.742 2.227-2.875 3.94-4.684 5.517l-.046.278c0 .232.232.464.466.51 4.079.183 6.998-2.736 9.732-5.471.281-.278.649-.23 1.02-.139 1.206.927 2.317 2.321 3.896 2.643 1.667-.234 3.425-.462 5.189-.322 2.455.742 4.822 1.757 7.277 2.592 1.25-.044 2.177-1.252 2.826-2.27.51-1.204-.232-2.412-.139-3.569.605-.371 1.298.09 1.948-.095.274-.183.51-.51.51-.832-.464-2.131-2.365-3.711-2.969-5.702-.927-2.554-3.94-4.08-4.496-6.817.139-.185.37-.463.605-.278 1.992 1.437 3.755 3.337 6.21 3.707 1.853.188 3.754.372 5.607.232.278-.091.51-.417.417-.74-.786-1.669-1.528-3.337-1.994-5.146-.646-2.269-1.113-5.421-.369-7.926.137-.184.74-.539 1.018-.448.371.093.828.541.876.866.279 3.942-.132 7.556 2.231 10.661 1.018 1.622 2.78 1.947 4.032 3.199.461.651.556 1.714.232 2.457l-2.827 4.174c-.651.927-1.298 1.948-1.532 2.968-.23 1.159-.093 2.27 0 3.384-.183.09-.274-.185-.462-.279-.742-1.53-1.575-3.478-.788-5.285l3.568-5.519.14-.417c-.788-.417-1.669-.832-2.502-1.02-.417.188-.696.603-.974.975l-3.476 6.306c-.234.74-.464 1.298-.281 2.087.188.927.417 1.855.837 2.639.276 1.302.507 2.183 1.111 3.34.881.974 2.087.093 3.2.371 1.113.279 1.53 1.621 2.639 1.948 2.505.83 5.194 1.296 7.694 2.27 1.3.415 3.154.927 4.313-.141 1.621-.876 2.041-2.592 2.319-4.218.507-.694 1.526-.415 2.27-.644 1.391-.928 1.853-2.597 2.873-3.847l.185-.651c-.14-.417-.51-.649-.881-.788h-4.726c-2.182.278-2.368 2.69-3.29 4.173-.513.928-1.531 1.296-2.598 1.206-2.226-.605-4.96-.927-5.98-3.339-.14-.601-.14-1.343.325-1.762 1.157-1.343 2.551-2.87 3.986-3.983 2.041-.419 4.035-1.948 5.096-3.759.559-.789.467-1.947 1.394-2.55.279-.047.895-.065 1.083.212.417 1.343-.337 2.308-.754 3.467 5.053.51 8.97-.95 13.882-.764 2.087 0 3.957.239 5.995.098 2.043-.093 4.264-.929 4.913-3.061.928-2.734-.361-5.839-.83-8.436l.561-.44c.328-.185.872.07 1.103.255.881 2.457 1.482 5.424 1.855 8.11.369 2.365 1.389 3.904 2.688 5.9 2.363 3.519 6.535 4.909 10.662 4.027 5.004-.369 9.312 2.27 12.376 6.161v.232c-.095.183-.281.417-.512.373-2.642-2.043-5.285-4.221-8.668-4.636-3.42-.625-6.49 1.157-10.056-.28-4.301-1.416-6.105-4.064-7.926-8.3h-.373c-.276.046-.459.327-.507.605l.464 2.876c.557 2.317 1.301 5.053 3.803 6.117 1.946 1.16 3.842 2.827 6.256 2.178 4.218-.927 8.48.279 11.724 2.643 1.069.603 1.899 1.716 3.061 2.131 1.25.507 2.78.23 3.8-.605 2.365-.784 2.92 2.182 4.543 3.246 1.438 1.391 4.306.816 6.207.816l-.044-.21c-.23-1.904-.742-3.386-1.482-5.053" fill="#ed1e36"/><path d="M280.172 139.888c-.232-1.069.046-2.551-.649-3.525-.603-.464-1.159-1.157-1.945-.974-.652.559-1.623 1.203-1.484 2.179.554 1.667.927 2.87 1.252 4.587.185.325 0 .974.51.974l2.966-.974c.509-.832-.464-1.482-.649-2.268" fill="#ed1e36"/><path d="M272.664 130.246c-.927-.791-1.899.368-2.365 1.066.327 1.111 1.25 2.038 1.948 3.059.371.556.972.925 1.623.972.647 0 1.159-.323 1.621-.694.325-.42.695-.93.558-1.528-.883-1.206-2.272-1.953-3.385-2.875" fill="#ed1e36"/></svg>