<?xml version="1.0" encoding="UTF-8" standalone="no"?>
<svg width="512px" height="512px" viewBox="0 0 512 512" version="1.1" xmlns="http://www.w3.org/2000/svg" xmlns:xlink="http://www.w3.org/1999/xlink" xmlns:sketch="http://www.bohemiancoding.com/sketch/ns">
    <!-- Generator: Sketch 3.2.2 (9983) - http://www.bohemiancoding.com/sketch -->
    <title>orlando-city-sc</title>
    <desc>Created with Sketch.</desc>
    <defs></defs>
    <g id="MLS" stroke="none" stroke-width="1" fill="none" fill-rule="evenodd" sketch:type="MSPage">
        <g id="orlando-city-sc" sketch:type="MSArtboardGroup">
            <g sketch:type="MSLayerGroup" transform="translate(101.000000, 78.000000)">
                <path d="M156.263051,356.520374 C103.846325,335.011504 63.9829328,304.399757 37.7714362,265.523619 C16.7243073,234.306979 4.36458599,197.698256 1.03326193,156.712491 C-4.3396886,90.5953725 15.841206,34.0607785 18.2656841,27.5640967 C24.4205622,24.6103759 78.0982483,0 156.263051,0 C234.427863,0 288.105539,24.6103759 294.259796,27.5640967 C296.684284,34.0607785 316.865799,90.5953725 311.494093,156.711868 C308.162147,197.697633 295.802426,234.306979 274.755287,265.522996 C248.542557,304.399757 208.679155,335.011504 156.263051,356.520374" id="path3" fill="#633492" sketch:type="MSShapeGroup"></path>
                <path d="M156.263051,348.265984 C106.682374,327.410224 68.9461772,298.145413 44.072469,261.251776 C23.766037,231.135974 11.8366264,195.755827 8.61335366,156.092568 C3.85183311,97.5022029 19.6759073,46.6220664 24.3424916,33.1565651 C37.2337062,27.4219516 86.7769127,7.62569956 156.263051,7.62569956 C225.747324,7.62569956 275.291773,27.4219516 288.184242,33.1565651 C292.850826,46.6214433 308.673657,97.5015797 303.913379,156.092568 C300.690107,195.755827 288.760064,231.135974 268.454896,261.251776 C243.579924,298.145413 205.843107,327.410224 156.263051,348.265984" id="path5" fill="#FFFFFF" sketch:type="MSShapeGroup"></path>
                <path d="M156.263051,339.980912 C109.521561,319.800188 73.9069354,291.887309 50.3728697,256.982436 C30.8090203,227.966226 19.3099201,193.813399 16.1934457,155.473268 C11.8803443,102.393346 24.8571196,55.8977714 30.464281,38.8147828 C46.9491165,31.8697491 93.0523257,15.2507654 156.263051,15.2507654 C219.473154,15.2507654 265.576363,31.8691259 282.062452,38.8141596 C287.669614,55.8971377 300.645767,102.393346 296.333909,155.472644 C293.216813,193.813399 281.717713,227.966226 262.153242,256.981813 C238.618555,291.887932 203.003298,319.800811 156.263051,339.980912" id="path7" fill="#633492" sketch:type="MSShapeGroup"></path>
                <path d="M89.9408552,250.336723 C88.8054332,249.223992 87.463905,248.340438 85.9537628,247.707988 C84.4379951,247.073046 82.7916954,246.752432 81.0623316,246.752432 C79.3323464,246.752432 77.6873002,247.073046 76.170279,247.707988 C74.6607582,248.340438 73.3192406,249.223992 72.1844401,250.336723 C71.0483966,251.448831 70.1453009,252.763193 69.5013944,254.241616 C68.8537481,255.72568 68.5252319,257.338739 68.5252319,259.035081 C68.5252319,260.731412 68.8537481,262.343214 69.5013944,263.827278 C70.1453009,265.305078 71.0477751,266.618817 72.1844401,267.733428 C73.3192406,268.844913 74.6601367,269.729713 76.170279,270.361529 C77.6854251,270.996482 79.3317248,271.317719 81.0623316,271.317719 C82.792949,271.317719 84.4392382,270.996482 85.9537628,270.361529 C87.463905,269.729713 88.8054332,268.844913 89.9408552,267.733428 C91.0756451,266.621943 91.9774872,265.307581 92.6238904,263.827278 C93.2721688,262.341968 93.6000529,260.729532 93.6000529,259.035081 C93.6000529,257.340619 93.2727903,255.728183 92.6238904,254.241616 C91.9762442,252.761313 91.0744021,251.446328 89.9408552,250.336723 L89.9408552,250.336723 Z M89.4811853,259.035081 C89.4811853,260.215441 89.2625959,261.331298 88.832907,262.348231 C88.4032286,263.36641 87.7986682,264.259343 87.0385985,265.000751 C86.2760321,265.746543 85.3698182,266.343293 84.344934,266.773489 C82.3107986,267.631356 79.8120001,267.631356 77.7791077,266.773489 C76.753602,266.34267 75.8480202,265.74591 75.0848217,265.000128 C74.3253736,264.259343 73.7220667,263.367033 73.2923778,262.348231 C72.8626995,261.331922 72.6440995,260.216687 72.6440995,259.035081 C72.6440995,257.85284 72.8620674,256.736972 73.2923778,255.721297 C73.7220667,254.704375 74.324752,253.810808 75.0860753,253.068143 C75.8498848,252.323608 76.7548556,251.726858 77.7797293,251.296662 C78.797113,250.867734 79.9031755,250.649816 81.0629532,250.649816 C82.2221093,250.649816 83.3275503,250.867734 84.3461876,251.296662 C85.3685646,251.726235 86.274157,252.321738 87.03922,253.068143 C87.7992897,253.810808 88.4038501,254.703741 88.833539,255.720051 C89.2625959,256.738853 89.4811853,257.853464 89.4811853,259.035081 L89.4811853,259.035081 Z" id="path9" fill="#FFFFFF" sketch:type="MSShapeGroup"></path>
                <path d="M141.540674,267.316382 L129.344579,267.316382 L129.344579,247.024819 L125.226335,247.024819 L125.226335,271.045321 L139.538386,271.045321 L141.540674,267.316382" id="polyline11" fill="#FFFFFF" sketch:type="MSShapeGroup"></path>
                <path d="M174.162481,256.366264 L190.002791,271.74164 L190.002791,247.892713 L185.467352,247.892713 L185.467352,261.619967 L170.292182,246.243338 L170.292182,262.764635 L174.162481,270.094144 L174.162481,256.366264" id="polyline13" fill="#FFFFFF" sketch:type="MSShapeGroup"></path>
                <path d="M211.564557,250.470725 C210.462855,249.403707 209.14444,248.553973 207.642419,247.944062 C206.141642,247.334163 204.503454,247.025453 202.775344,247.025453 L194.659397,247.025453 L194.659397,271.045955 L202.775344,271.045955 C204.503454,271.045955 206.142264,270.735988 207.642419,270.126712 C209.143818,269.516178 210.462855,268.666444 211.564557,267.600049 C212.665004,266.532408 213.544355,265.252479 214.18014,263.794091 C214.816556,262.333201 215.139447,260.730789 215.139447,259.035704 C215.139447,257.339362 214.816556,255.73883 214.18014,254.276683 C213.544355,252.817672 212.665004,251.537753 211.564557,250.470725 L211.564557,250.470725 Z M198.778886,250.751889 L202.368768,250.751889 C203.554776,250.751889 204.683951,250.965413 205.726312,251.386842 C206.771801,251.809517 207.700496,252.398757 208.486175,253.138275 C209.26686,253.872797 209.891404,254.758221 210.343574,255.770136 C210.791993,256.776422 211.019948,257.874757 211.019948,259.034447 C211.019948,260.216064 210.792614,261.318772 210.344817,262.313165 C209.893901,263.315057 209.268103,264.194227 208.486175,264.931242 C207.700496,265.669514 206.77118,266.258131 205.726312,266.682063 C204.685205,267.102235 203.556029,267.315759 202.368768,267.315759 L198.778886,267.315759 L198.778886,250.751889 L198.778886,250.751889 Z" id="path15" fill="#FFFFFF" sketch:type="MSShapeGroup"></path>
                <path d="M243.023464,254.241616 C242.376428,252.761313 241.473343,251.446328 240.341672,250.336723 C239.205618,249.223992 237.864721,248.340438 236.353958,247.707988 C234.837558,247.073046 233.19189,246.752432 231.462527,246.752432 C229.731909,246.752432 228.086863,247.073046 226.570474,247.707988 C225.060321,248.340438 223.719425,249.223992 222.584003,250.336723 C221.448591,251.448831 220.546117,252.763193 219.900968,254.241616 C219.253311,255.72568 218.924805,257.338739 218.924805,259.035081 C218.924805,260.731412 219.253943,262.343214 219.900968,263.827278 C220.545496,265.305078 221.447959,266.618817 222.584003,267.733428 C223.719425,268.844913 225.060321,269.729713 226.569852,270.361529 C228.08562,270.996482 229.730666,271.317719 231.461905,271.317719 C233.192512,271.317719 234.839433,270.996482 236.353326,270.361529 C237.8641,269.729713 239.204996,268.844913 240.34104,267.733428 C241.474586,266.621943 242.377061,265.307581 243.024085,263.827278 C243.67111,262.341968 243.999626,260.729532 243.999626,259.035081 C244.000248,257.340619 243.671732,255.728183 243.023464,254.241616 L243.023464,254.241616 Z M239.880759,259.035081 C239.880759,260.215441 239.663412,261.331298 239.233102,262.348231 C238.802791,263.36641 238.199485,264.259343 237.438161,265.000751 C236.674341,265.746543 235.770003,266.343293 234.74575,266.773489 C232.70974,267.631356 230.211563,267.631356 228.178049,266.773489 C227.151922,266.34267 226.246961,265.74591 225.484385,265.000128 C224.724947,264.259343 224.121008,263.367033 223.690698,262.348231 C223.261009,261.331922 223.042419,260.216687 223.042419,259.035081 C223.042419,257.85284 223.261009,256.736972 223.690698,255.721297 C224.120386,254.704375 224.724315,253.810808 225.485017,253.068143 C226.247583,252.323608 227.153797,251.726858 228.178049,251.296662 C229.196676,250.867734 230.302127,250.649816 231.461905,250.649816 C232.621683,250.649816 233.726502,250.867734 234.74575,251.296662 C235.768127,251.726235 236.67372,252.321738 237.438161,253.068143 C238.199485,253.810808 238.80217,254.703741 239.233102,255.720051 C239.663412,256.738853 239.880759,257.853464 239.880759,259.035081 L239.880759,259.035081 Z" id="path17" fill="#FFFFFF" sketch:type="MSShapeGroup"></path>
                <rect id="rect19" fill="#FFFFFF" sketch:type="MSShapeGroup" x="144.906345" y="278.208885" width="4.1188676" height="24.0211284"></rect>
                <path d="M191.858945,278.208896 L185.457361,287.359355 L179.055788,278.208896 L174.188712,278.208896 C174.321741,278.481916 183.397617,291.681294 183.397617,291.681294 L183.397617,302.230021 L187.516484,302.230021 L187.516484,291.681294 L196.808453,278.208896 L191.858945,278.208896" id="path21" fill="#FFFFFF" sketch:type="MSShapeGroup"></path>
                <path d="M170.207868,278.208891 L154.195809,278.208891 L154.195809,281.936578 L160.845329,281.936578 L160.845329,302.23002 L164.962948,302.23002 L164.962948,281.936578 L172.667947,281.936578 L170.207868,278.208891" id="polyline23" fill="#FFFFFF" sketch:type="MSShapeGroup"></path>
                <path d="M157.429073,245.377949 L145.242971,271.045321 L149.782157,271.045321 L157.429073,254.728161 L159.902892,259.984368 L157.429073,259.984368 L155.704707,263.713307 L161.664106,263.713307 L165.07599,271.045321 L169.614552,271.045321 L157.429073,245.377949" id="polyline25" fill="#FFFFFF" sketch:type="MSShapeGroup"></path>
                <path d="M138.953191,295.144099 C138.639675,295.621888 138.28181,296.062719 137.875234,296.459095 C137.112035,297.20363 136.206443,297.80038 135.182191,298.231199 C133.147434,299.088453 130.649257,299.088453 128.615743,298.231199 C127.590237,297.799757 126.684024,297.202373 125.922079,296.458472 C125.162009,295.717686 124.558081,294.825376 124.128392,293.806564 C123.698703,292.789642 123.480735,291.674408 123.480735,290.492791 C123.480735,289.311807 123.698703,288.195939 124.128392,287.179017 C124.558081,286.163342 125.162009,285.269775 125.922079,284.526486 C126.685899,283.781951 127.591491,283.185824 128.615743,282.754383 C129.633748,282.325444 130.738568,282.108783 131.898967,282.108783 C133.058745,282.108783 134.164186,282.325444 135.182823,282.754383 C136.205822,283.185201 137.11016,283.780705 137.875234,284.526486 C138.281178,284.922239 138.639043,285.36495 138.953191,285.842728 L138.953191,280.321026 C138.278682,279.873931 137.556715,279.487569 136.79102,279.166332 C135.274631,278.531379 133.628952,278.210153 131.899589,278.210153 C130.170225,278.210153 128.524557,278.531379 127.008168,279.166332 C125.497394,279.799405 124.156498,280.682959 123.021076,281.795067 C121.885654,282.907174 120.982558,284.221536 120.33803,285.699337 C119.690384,287.184024 119.361867,288.796449 119.361867,290.492791 C119.361867,292.188509 119.691005,293.802181 120.33803,295.286244 C120.982558,296.763422 121.885032,298.077784 123.021076,299.191148 C124.155876,300.303879 125.497394,301.187423 127.006914,301.819873 C128.521439,302.455449 130.16836,302.776062 131.898967,302.776062 C133.629584,302.776062 135.275252,302.455449 136.790398,301.819873 C137.556083,301.499893 138.27806,301.112284 138.952569,300.665189 L138.952569,295.144099" id="path27" fill="#FFFFFF" sketch:type="MSShapeGroup"></path>
                <path d="M112.849756,261.872322 C115.40601,260.423959 116.657595,257.950519 116.657595,255.14959 C116.657595,250.661709 113.740347,247.024819 108.313683,247.024819 L99.6200376,247.024819 L99.6200376,271.045332 L103.737652,271.045332 L103.737652,251.023018 L107.31879,251.023018 L108.08261,251.023018 C110.355319,251.023018 112.197728,252.870272 112.197728,255.14959 C112.197728,257.427651 110.355319,259.276161 108.08261,259.276161 L107.31879,259.276161 L104.924914,259.276161 L114.635321,271.045332 L120.177527,271.045332 L112.849756,261.872322" id="path29" fill="#FFFFFF" sketch:type="MSShapeGroup"></path>
                <path d="M156.263051,171.343333 C156.263051,171.343333 137.387458,172.106024 134.683186,178.252043 C134.187298,179.378558 134.683186,187.426922 134.683186,187.426922 C134.683186,187.426922 136.273274,187.763812 137.522362,186.894042 C137.522362,186.894042 137.323756,190.456416 139.908116,192.252316 C142.491232,194.047593 146.552023,196.572375 146.637584,196.572375 C146.722491,196.572375 149.107655,194.777098 150.47041,194.665013 C151.833165,194.552927 154.78663,199.714577 156.263051,201.173588 C157.738851,199.714577 160.691694,194.552927 162.054449,194.665013 C163.419079,194.777721 165.80359,196.572375 165.888529,196.572375 C165.974069,196.572375 170.034249,194.047593 172.617365,192.252316 C175.202356,190.456416 175.003119,186.894042 175.003119,186.894042 C176.252207,187.763812 177.842295,187.426922 177.842295,187.426922 C177.842295,187.426922 178.338815,179.378558 177.842295,178.252043 C175.138644,172.106024 156.263051,171.343333 156.263051,171.343333" id="path31" fill="#FDE192" sketch:type="MSShapeGroup"></path>
                <path d="M233.924476,138.609454 C260.403273,137.175486 259.53078,121.566538 259.53078,121.566538 C244.018356,128.378816 238.790919,116.770581 232.443061,115.476878 C254.323337,107.938221 251.075709,91.409417 251.075709,91.409417 C242.563794,102.439682 229.71005,92.6674195 223.453367,93.6186027 C241.058023,81.8876249 234.289209,65.3256239 234.289209,65.3256239 C230.988498,77.7522975 209.329308,74.0690609 209.329308,74.0690609 C221.313055,56.336723 210.63898,44.2845192 210.63898,44.2845192 C211.535197,57.3674285 188.786189,60.7450709 188.786189,60.7450709 C194.688125,37.5686732 181.454657,31.7213406 181.454657,31.7213406 C184.074622,42.7440959 168.77017,51.4668733 168.77017,51.4668733 L156.263051,27.0111692 L143.755311,51.4668733 C143.755311,51.4668733 128.45148,42.7434727 131.070202,31.7213406 C131.070202,31.7213406 117.837988,37.5686732 123.740546,60.7450709 C123.740546,60.7450709 100.990283,57.3674285 101.887131,44.2845192 C101.887131,44.2845192 91.2124242,56.3373462 103.196171,74.0690609 C103.196171,74.0690609 81.5382351,77.7516637 78.236892,65.3256239 C78.236892,65.3256239 71.4680883,81.8876249 89.0727338,93.6186027 C82.8166725,92.6674195 69.9616858,102.439682 61.450403,91.409417 C61.450403,91.409417 58.2021535,107.938221 80.083051,115.476878 C73.7345606,116.770581 68.5083768,128.378816 52.9953214,121.566538 C52.9953214,121.566538 52.1234604,137.175486 78.6016256,138.609454 C69.1148018,144.198785 71.1514444,155.178341 53.7547696,153.321698 C53.7547696,153.321698 59.458732,167.633184 82.9116088,161.464625 C75.7149914,169.052122 79.4441377,178.89326 63.2309746,181.964083 C63.2309746,181.964083 73.8045092,194.882931 94.122803,181.672906 C90.3299444,188.779488 95.6573008,199.503556 81.4139499,206.596365 C81.4139499,206.596365 96.1500699,215.212063 111.64625,196.77276 C110.958004,207.890067 117.739934,216.244015 106.928447,225.772694 C106.928447,225.772694 123.213434,230.221114 132.761463,207.34841 C134.444612,216.984167 143.682866,220.93791 136.332603,236.158616 C136.332603,236.158616 148.504348,237.098519 156.263051,217.159498 C164.021765,237.098519 176.193499,236.158616 176.193499,236.158616 C168.843247,220.937277 178.081501,216.984167 179.76465,207.34841 C189.312678,230.221114 205.597655,225.772694 205.597655,225.772694 C194.785558,216.244015 201.566855,207.890067 200.880474,196.77276 C216.376663,215.212063 231.112151,206.596365 231.112151,206.596365 C216.8688,199.502923 222.19741,188.778864 218.403309,181.672906 C238.722224,194.882931 249.294505,181.964083 249.294505,181.964083 C233.082596,178.893883 236.811742,169.052122 229.615124,161.464625 C253.06738,167.633807 258.771332,153.321698 258.771332,153.321698 C241.374667,155.178341 243.410678,144.198785 233.924476,138.609454 L233.924476,138.609454 Z M120.599094,74.1335638 C131.162631,74.1335638 130.253299,65.9411637 129.117245,64.0331783 C129.117245,64.0331783 137.920195,64.4257938 145.302303,69.8698642 C145.302303,69.8698642 154.105884,59.7694787 156.263051,51.6885407 C158.421482,59.7694787 167.223178,69.8698642 167.223178,69.8698642 C174.605286,64.4264275 183.407614,64.0331783 183.407614,64.0331783 C182.272192,65.9417974 181.363481,74.1335638 191.927019,74.1335638 C202.489302,74.1335638 204.703313,77.6126555 204.703313,77.6126555 C201.638047,76.996482 197.322449,76.3784389 185.907034,80.2507799 C174.492241,84.1224872 176.991672,74.1335638 176.991672,74.1335638 C160.805361,75.312044 156.263051,84.3717112 156.263051,84.3717112 C156.263051,84.3717112 151.720742,75.312044 135.535063,74.1335638 C135.535063,74.1335638 138.03324,84.1218534 126.619068,80.2507799 C115.204907,76.3784389 110.888056,76.996482 107.821546,77.6126555 C107.821546,77.6120218 110.036178,74.1335638 120.599094,74.1335638 L120.599094,74.1335638 Z M163.020625,150.096214 C158.590728,152.790687 156.263051,156.620442 156.263051,156.620442 C156.263051,156.620442 153.934131,152.79131 149.505488,150.096837 C149.505488,150.096837 150.016365,146.940862 148.908428,146.731088 C147.801733,146.521313 144.56347,146.647224 144.56347,146.647224 C144.56347,146.647224 139.410364,144.542614 138.516012,140.334017 C138.516012,140.334017 141.326461,141.133655 145.07497,139.955808 C148.822857,138.776694 150.35549,140.124243 151.548367,140.628954 C152.741254,141.134289 153.990964,141.302734 156.26243,141.302734 C158.533895,141.302734 159.783605,141.133655 160.976493,140.628954 C162.168116,140.124243 163.702003,138.776694 167.449258,139.955808 C171.198398,141.133655 174.008226,140.334017 174.008226,140.334017 C173.113252,144.542614 167.960135,146.647224 167.960135,146.647224 C167.960135,146.647224 164.723126,146.521366 163.617063,146.731088 C162.509115,146.940228 163.020625,150.096214 163.020625,150.096214 L163.020625,150.096214 Z M138.884496,117.004775 C133.376642,116.892056 119.349384,115.882644 118.838506,105.108489 L118.838506,104.827959 C118.838506,104.827959 126.609082,103.595623 129.571922,104.827959 C134.96673,107.072834 139.622706,117.341665 148.368823,109.653353 C148.368823,109.653353 142.519959,122.616656 138.884496,129.069505 C138.884496,129.069505 144.393592,117.11686 138.884496,117.004775 L138.884496,117.004775 Z M173.639742,117.004775 C168.131889,117.11686 173.639742,129.069505 173.639742,129.069505 C170.006143,122.616656 164.156037,109.653353 164.156037,109.653353 C172.901531,117.341665 177.558761,107.073457 182.954191,104.827959 C185.916399,103.595623 193.687607,104.827959 193.687607,104.827959 L193.687607,105.108489 C193.174854,115.882644 179.148849,116.891433 173.639742,117.004775 L173.639742,117.004775 Z M215.323684,151.065543 C199.479005,147.951521 193.174854,155.190234 193.174854,155.190234 C203.482952,156.620442 207.897858,168.783485 207.897858,168.783485 C200.34524,164.154092 191.982598,165.207337 191.982598,165.207337 C202.205136,191.00495 168.17311,196.980654 156.26243,211.163768 C144.350506,196.980654 110.320345,191.00495 120.542261,165.207337 C120.542261,165.207337 112.179619,164.154715 104.627,168.783485 C104.627,168.783485 109.042529,156.621075 119.349384,155.190234 C119.349384,155.190234 113.045855,147.951521 97.2017958,151.065543 C97.2017958,151.065543 105.46514,141.302047 115.771997,143.15306 C115.771997,143.15306 110.490223,133.979428 95.2426024,133.053298 C95.2426024,133.053298 97.7126736,129.770831 106.742957,129.097685 C106.742957,129.097685 99.8717262,121.269098 102.994448,106.903766 C102.994448,106.903766 97.6564724,102.697049 99.58756,90.1269842 C99.58756,90.1269842 101.601712,100.320042 105.89108,99.0495127 C108.872029,98.1659588 107.508652,94.4338935 105.167237,94.7150468 C105.167237,94.7150468 105.847984,91.9379143 110.234784,90.1276074 C114.622206,88.3179343 115.771997,88.1501126 115.600865,84.6566246 C115.600865,84.6566246 118.710471,83.3522755 119.817787,86.3404394 C120.925725,89.3279696 117.90169,90.759434 116.367803,91.0531141 C114.83518,91.3486741 112.704855,91.9792439 111.768039,93.7475874 C111.768039,93.7475874 115.005048,94.8415389 112.448795,97.7032108 C109.893784,100.564259 100.608683,122.028039 122.415894,136.926262 C122.415894,136.926262 121.905016,143.828086 129.656229,150.309738 C129.656229,150.309738 126.33428,150.000405 125.752201,150.14067 C125.170753,150.280935 124.971525,156.565962 125.752201,156.790767 C126.532886,157.014937 138.68589,156.790767 138.68589,156.790767 C138.68589,156.790767 126.447325,160.494663 125.968925,160.928608 C125.490525,161.362553 126.107569,164.646277 126.50478,164.702003 C126.901991,164.757771 136.811636,161.756425 141.923521,161.420159 C141.923521,161.420159 130.338228,166.72145 128.378413,168.32136 C128.378413,168.32136 130.252046,172.446051 132.807678,173.876882 C132.807678,173.876882 149.561067,167.816025 156.261808,162.345042 C162.962538,167.816025 179.715928,173.876882 179.715928,173.876882 C182.270938,172.446051 184.145193,168.32136 184.145193,168.32136 C182.184756,166.722084 170.600706,161.420159 170.600706,161.420159 C175.71198,161.756425 185.621614,164.757729 186.019457,164.702003 C186.416669,164.646235 187.033712,161.362553 186.554691,160.928608 C186.075659,160.494663 173.838348,156.790767 173.838348,156.790767 C173.838348,156.790767 185.99072,157.014937 186.771405,156.790767 C187.55208,156.565962 187.354107,150.280935 186.771405,150.14067 C186.188704,150.000405 182.867377,150.309738 182.867377,150.309738 C190.6186,143.828086 190.107723,136.926262 190.107723,136.926262 C211.914921,122.028039 202.6292,100.564259 200.074189,97.7032108 C197.519179,94.8409157 200.755567,93.7475874 200.755567,93.7475874 C199.818751,91.9792439 197.689057,91.3486741 196.155803,91.0531141 C194.621926,90.759434 191.598502,89.3279696 192.705819,86.3404394 C193.813767,83.3516523 196.922119,84.6566246 196.922119,84.6566246 C196.752241,88.1501126 197.902032,88.3185574 202.288822,90.1276074 C206.676244,91.9379143 207.357621,94.7150468 207.357621,94.7150468 C205.014964,94.4338935 203.652209,98.1659588 206.633158,99.0495127 C210.921893,100.320665 212.936677,90.1269842 212.936677,90.1269842 C214.867764,102.697672 209.529789,106.903766 209.529789,106.903766 C212.653132,121.269098 205.78128,129.097685 205.78128,129.097685 C214.810931,129.770831 217.281624,133.053298 217.281624,133.053298 C202.033383,133.979428 196.752241,143.15306 196.752241,143.15306 C207.060961,141.301424 215.323684,151.065543 215.323684,151.065543 L215.323684,151.065543 Z" id="path33" fill="#FDE192" sketch:type="MSShapeGroup"></path>
            </g>
        </g>
    </g>
</svg>