<svg version="1" xmlns="http://www.w3.org/2000/svg" width="320.578" height="458.288" viewBox="0 0 320.578 458.288"><path fill="#F6D200" d="M0 0v191.061c0 185.011 160.289 267.227 160.289 267.227s160.289-82.216 160.289-267.227v-191.061h-320.578z"/><path fill="#062E7E" d="M248.835 398.251h4.231v12.695h1.508v-12.695h4.453v-1.51h-10.192zM270.792 396.741l-3.65 11.549-3.658-11.549h-2.433v14.205h1.538v-12.096l3.78 12.096h1.538l3.815-12.096v12.096h1.541v-14.205z"/><path fill="#A90230" d="M6.054 6.054v185.007c0 41.249 8.213 80.643 24.408 117.086 12.978 29.204 31.093 56.618 53.841 81.482 32.97 36.038 66.348 56.296 75.987 61.754 9.639-5.458 43.017-25.716 75.987-61.754 22.748-24.864 40.863-52.278 53.841-81.482 16.195-36.443 24.407-75.838 24.407-117.086v-185.007h-308.471zm296.339 185.007c0 39.352-7.786 76.92-23.141 111.661-12.347 27.934-29.616 54.199-51.329 78.063-26.977 29.651-54.317 48.313-67.634 56.502-13.316-8.189-40.657-26.851-67.634-56.502-21.713-23.865-38.982-50.129-51.329-78.063-15.355-34.741-23.141-72.31-23.141-111.661v-172.875h284.208v172.875z"/><path fill="#062E7E" d="M296.338 24.24v166.821c0 38.41-7.575 75.071-22.515 108.965-12.033 27.301-28.882 52.991-50.081 76.357-24.618 27.135-49.565 44.92-63.454 53.761-13.889-8.84-38.836-26.625-63.454-53.761-21.198-23.366-38.047-49.057-50.081-76.357-14.939-33.894-22.513-70.555-22.513-108.965v-166.821h272.098z"/><path fill="#fff" d="M171.862 155.313c0-5.271-10.131-5.315-10.131-7.147 0-1.33 2.249-1.377 3.432-1.377 2.311 0 4.006.69 3.432 2.293 0 0 2.468.092 2.468-1.285 0-2.105-4.167-2.382-6.925-2.382-2.051 0-6.638.687-6.573 3.575 0 4.676 10.066 4.676 10.066 7.379 0 1.008-.67 2.153-3.302 2.153-3.172 0-5.8-2.246-3.623-3.849-2.211 0-4.136 1.053-4.136 2.382 0 2.382 5.004 2.977 7.793 2.977 3.432.001 7.499-1.373 7.499-4.719zM200.361 145.691l-.062 2.382c.383-.55.8-.824 1.251-.824 0 0 1.89-.185 4.389-.185v11.778c0 .458-.222.779-.704.916h6.412c-.479-.137-.704-.458-.704-.916v-11.778c2.502 0 4.389.185 4.389.185.451 0 .868.273 1.251.824l-.062-2.382h-16.16zM187.958 158.751l-8.077-13.703-7.759 13.703c-.26.321-.708.687-1.316 1.008h4.426c-.612-.137-.868-.687-.677-1.101l1.121-2.198h5.646l1.217 2.29c.256.502-.226.735-.704 1.008h7.369c-.19-.091-.929-.505-1.246-1.007zm-11.447-3.712l1.928-3.62 2.051 3.62h-3.979zM201.455 155.36s.896 2.933-3.979 2.933h-2.563v-11.642c0-.41.226-.731.673-.96h-6.409c.444.229.704.55.704.96v12.192c0 .41-.226.731-.677.916h9.974c1.89 0 3.685-.506 4.293-1.788.739-1.602-2.016-2.611-2.016-2.611zM236.011 157.972c.738-1.603-1.986-2.611-1.986-2.611s.865 2.933-4.009 2.933h-1.6v-11.642c0-.41.222-.731.67-.96h-6.412c.485.229.708.55.708.96v12.192c0 .41-.222.731-.708.916h9.044c1.89-.001 3.719-.507 4.293-1.788zM282.239 158.293h-4.905v-5.547h4.102c.581 0 .93.598.93.598v-2.567c-.222.414-.513.595-.93.595h-4.102v-4.307h5.1c.8.044 1.408.366 1.825.872l-.161-2.246h-12.598c.543.229.803.55.803.96v12.192c0 .55-.451.779-.708.872-.222-.092-.735-.369-1.056-.735l-7.598-7.93 6.026-4.536c.608-.414 1.764-.824 1.764-.824h-5.195c.417.273.803.687.26 1.053l-6.699 4.949v-5.042c0-.41.253-.731.704-.96h-6.412c.479.229.704.55.704.96v12.192c0 .273-.096.502-.321.687-.287-.185-.67-.458-.865-.779l-8.111-13.703-7.759 13.703c-.253.321-.704.687-1.313 1.008h4.423c-.574-.137-.865-.687-.67-1.101l1.121-2.198h5.64l1.217 2.29c.26.502-.222.735-.704 1.008h13.05c-.451-.137-.704-.458-.704-.916v-5.407l5.257 5.452c.479.506-.482.872-.482.872h21.031l.67-2.704c-.002.002-.641 1.239-3.334 1.239zm-40.807-3.254l1.921-3.62 2.085 3.62h-4.006z"/><path fill="#F6D200" d="M156.604 177.218c41.997 0 76.809 30.844 83.19 71.22-5.288-42.988-41.771-76.214-85.979-76.214-47.896 0-86.687 38.955-86.687 87.028 0 34.648 20.166 64.528 49.338 78.552l.513-1.33c-26.544-14.208-44.625-42.301-44.625-74.655.001-46.699 37.735-84.601 84.25-84.601z"/><path fill="#A90230" d="M191.646 174.149c33.947 14.161 57.832 47.756 57.832 86.939 0 33.729-17.729 63.335-44.304 79.922.543 1.88.96 3.852 1.278 5.821 28.502-16.543 47.705-47.431 47.705-82.858 0-41.292-26.032-76.443-62.511-89.824zM73.736 306.547c8.781 17.736 22.887 32.31 40.229 41.662.099-.919.26-1.788.417-2.707-17.182-8.521-31.414-22.179-40.646-38.955z"/><path fill="#F6D200" d="M212.003 278.961l-26.417-24.979c-5.161-4.672-10.838-7.376-17.086-8.155 0 0 27.891-2.157 27.891-18.334 0-7.79-9.748-18.331-40.106-18.331h-35.649s4.744 2.659 4.744 4.905v34.552c4.426 2.157 10.452 4.125 16.417 6.6v-6.737h9.81c5.192 0 8.142 1.193 10.866 3.438l28.438 26.489c3.975 3.435 11.86 7.561 18.751 7.561 8.818 0 12.346-2.933 12.346-2.933s-5.678-.364-10.005-4.076zm-58.348-34.785h-11.86v-30.522h11.86c14.906 0 24.879 5.086 24.879 15.261 0 8.248-10.356 15.261-24.879 15.261zM141.794 278.363v-3.893c-3.879-2.751-10.035-4.997-16.417-7.564v11.457c0 2.659-4.231 4.905-4.231 4.905h25.167s-4.519-2.246-4.519-4.905z"/><path fill="#A90230" d="M165.324 232.032v7.605c6.668-2.382 10.483-6.645 10.483-10.722 0-.55-.031-1.053-.096-1.559h-14.332s3.945 1.009 3.945 4.676zM220.145 287.072s-3.623 6.371-14.684 6.371h-26.288v-22.227l-13.85-12.923v35.014c0 3.712-3.944 4.672-3.944 4.672h46.519c18.659 0 12.247-10.907 12.247-10.907zM151.283 241.838s4.809-2.382 4.809-6.737c0-4.214-5.291-6.508-11.573-7.653v5.271c4.357 2.017 6.473 5.271 6.764 9.119zM115.825 241.609c0-3.804 2.854-6.874 6.829-8.798v-5.226c-9.393 2.201-18.368 7.653-18.368 17.233 0 20.439 44.273 19.797 44.273 35.882 0 8.251-5.773 13.887-16.83 13.887-12.503 0-23.116-6.508-20.487-16.225 0 0-8.111 1.88-8.111 8.665 0 6.231 11.864 11.867 28.598 11.867 21.027 0 29.781-10.859 29.781-21.171-.001-22.045-45.685-21.587-45.685-36.114z"/><path fill="#fff" d="M198.119 353.339c-.13-7.882-2.659-15.169-6.891-21.171l-15.261.181-4.553-14.574c-3.524-1.097-7.243-1.695-11.125-1.695-3.876 0-7.595.598-11.122 1.695l-4.553 14.574-15.261-.181c-4.231 6.002-6.764 13.289-6.891 21.171l12.469 8.801-4.905 14.482c4.522 6.002 10.773 10.585 18.02 13.104l12.243-9.164 12.25 9.164c7.243-2.519 13.494-7.103 18.013-13.104l-4.901-14.482 12.468-8.801z"/><path fill="#F6D200" d="M129.804 344.036l12.308-9.669-11.122-.137c-3.558 5.271-5.739 11.594-5.964 18.423l9.075 6.416-4.297-15.033zM169.972 319.977c-3.076-.872-6.313-1.33-9.683-1.33-3.363 0-6.604.458-9.68 1.33l-3.302 10.633 12.981-8.709 12.985 8.709-3.301-10.633zM186.484 359.068l9.071-6.416c-.226-6.829-2.406-13.152-5.964-18.423l-11.125.137 12.312 9.669-4.294 15.033zM136.056 365.166l-3.558 10.493c4.037 5.134 9.423 9.119 15.675 11.413l8.911-6.648-15.644-.595-5.384-14.663zM179.108 379.829l-15.613.595 8.914 6.648c6.251-2.293 11.635-6.279 15.675-11.413l-3.555-10.493-5.421 14.663z"/><path fill="#A90230" d="M122.814 357.465s-1.217 7.837 4.488 14.984l1.412-4.351s-5.096-4.676-5.9-10.633zM152.083 390.691s7.085 3.527 15.613.321l-3.688-2.704c0 .001-5.995 3.436-11.925 2.383zM197.863 358.336l-3.719 2.704s1.412 6.737-1.442 12.052c0 0 5.578-5.636 5.161-14.756zM176.094 319.563l1.415 4.354s6.856.735 11.026 5.086c0 0-3.657-7.01-12.441-9.44zM132.498 328.272h4.583s2.82-6.279 8.237-8.89c0 0-7.82 1.282-12.82 8.89zM175.103 356.641l-4.423-13.658 3.876-8.709-7.082 6.419h-14.366l-7.082-6.419 3.879 8.709-4.426 13.658-8.271 4.765 9.492-1.008 11.604 8.48 1.986 9.348 1.989-9.348 11.607-8.48 9.488 1.008-8.271-4.765zm-17.921-7.793l-7.95 10.541 4.648-14.848h14.844l-11.542 4.307z"/><path fill="#F6D200" d="M156.092 37.167c-1.637 2.43 1.764 5.315 1.764 5.315s-.995 2.567-3.975 3.073c-3.592.595-7.311.366-8.049-6.234 0 0-2.434 6.692-8.046 5.226-3.654-.964-5.096-3.852-5.609-5.363 3.623-.414 6.412-2.659 6.412-5.315h-5.322c-.195-2.707-2.437-4.218-2.437-4.218s-2.211 1.511-2.437 4.218h-5.288c0 2.656 2.789 4.901 6.409 5.315-.513 1.511-1.955 4.399-5.609 5.363-5.643 1.466-8.046-5.226-8.046-5.226-.738 6.6-4.457 6.829-8.046 6.234-2.984-.506-4.009-3.073-4.009-3.073s3.432-2.885 1.798-5.315c-4.713 4.447-8.401-4.72-12.858-.137 0 0 5.26 2.748 6.351 5.363 1.087 2.563 1.569 3.483 1.569 3.483l-.896 3.206 3.428 1.466 2.116 4.583s9.939-4.491 25.519-4.491c15.613 0 25.549 4.491 25.549 4.491l2.116-4.583 3.432-1.466-.899-3.206s.482-.919 1.572-3.483c1.06-2.615 6.347-5.363 6.347-5.363-4.455-4.583-8.146 4.584-12.856.137zM130.83 53.666c-14.075 0-25.488 2.888-25.488 6.508 0 .229.065.502.161.779 5.452-2.888 14.749-4.813 25.327-4.813 10.609 0 19.906 1.924 25.324 4.813.13-.277.195-.55.195-.779-.001-3.62-11.413-6.508-25.519-6.508zM158.785 97.843s-4.17 17.049-16.095 17.049c-10.162 0-15.709-11.686-17.664-16.82l33.599-11.867s-5.482-25.3-26.031-25.3c-14.332 0-28.79 10.999-28.79 31.989 0 20.074 14.909 37.717 31.9 37.717 14.041 0 26.67-11.136 26.67-26.031 0-6.231-2.181-11.41-3.589-6.737zm-37.539-15.49c0-5.729 2.403-9.714 5.865-9.714 4.936 0 8.176 6.416 9.618 10.035l-14.749 5.226c-.352-1.559-.734-3.575-.734-5.547z"/><path fill="#fff" d="M135.704 127.907c18.238 0 25.389-17.688 23.816-24.059 0 0-4.809 13.795-16.83 13.795-15.193 0-21.092-21.219-21.092-21.219l33.756-11.915s-5.705-20.897-22.76-20.897c-12.216 0-26.096 8.935-26.096 29.282-.001 18.607 13.688 35.013 29.206 35.013zm-8.593-57.972c9.071 0 13.081 14.39 13.081 14.39l-19.975 7.058s-1.699-4.539-1.699-9.03c0-7.79 3.879-12.418 8.593-12.418z"/><path fill="#F6D200" d="M277.3 112.417c2.023 5.636.13 13.979-15.128 13.979h-9.905v-57.47c0-5.913 5.353-9.259 5.353-9.259h-34.624s5.353 3.346 5.353 9.259v57.699c0 1.053-.444 2.153-1.121 3.254-.321-.55-.639-1.101-.96-1.743l-34.429-71.354-25.583 56.277c-5.417 11.871-7.567 15.354-10.356 19.889-2.468 4.399-17.343 9.946-25.002 9.946-21.543 0-23.95-35.291-45.203-44.044 7.212-3.114 15.483-8.89 15.483-19.062 0-9.167-5.482-20.122-31.64-20.122h-33.598s5.223 3.852 5.223 7.837v62.053c0 3.985-5.223 7.79-5.223 7.79h34.395s-5.257-3.804-5.257-7.79v-24.976c15.422 4.125 23.434 56.646 59.787 56.646 21.383 0 31.322-23.878 31.322-23.878h19.523s-5.64-4.307-4.519-7.01l4.197-10.127h21.543l4.457 10.22c1.282 2.933-2.02 4.491-5.452 6.918h72.194c16.352 0 20.679-7.926 20.679-12.096.003-7.931-11.509-12.836-11.509-12.836zm-211.036-18.331h-1.152v-24.199h1.152c5.065 0 10.452 3.165 10.452 12.1 0 6.142-5.995 12.099-10.452 12.099zm113.808 15.904l5.804-13.429 6.313 13.429h-12.117z"/><path fill="#fff" d="M74.761 99.401s23.69-4.078 23.69-19.612c0-15.217-17.503-17.415-28.916-17.415h-27.313s1.668 2.198 1.668 5.13v62.053c0 2.888-1.668 5.086-1.668 5.086h21.8s-1.637-2.198-1.637-5.086v-28.14c20.709 0 25.71 57.104 62.48 57.104 18.372 0 27.925-20.303 27.925-20.303s-11.413 7.379-21.896 7.379c-26.895.002-25.87-46.196-56.133-46.196zm-8.497-2.567h-3.879v-29.65h3.879c5.964 0 13.176 3.76 13.176 14.803 0 7.608-7.211 14.847-13.176 14.847zM280.605 117.917c-.803 2.567-2.054 11.184-18.433 11.184h-12.599v-60.174c0-3.667 1.699-6.552 1.699-6.552h-21.926s1.695 2.885 1.695 6.552v59.896c0 2.157-2.082 3.804-3.78 4.813-1.06-1.008-2.598-2.611-3.432-4.307l-31.931-66.131-23.174 50.962c-5.869 12.831-7.407 15.169-10.678 20.484h11.413s-1.794-2.748-.769-5.315l4.905-11.871h25.132l5.13 11.871c1.186 2.796-.417 5.315-.417 5.315h64.692c15.483 0 17.985-7.332 17.985-9.393.001-4.491-5.512-7.334-5.512-7.334zm-104.668-5.223l9.84-22.733 10.674 22.733h-20.514z"/></svg>