<?xml version="1.0" encoding="UTF-8" standalone="no"?>
<!-- Generator: Adobe Illustrator 14.0.0, SVG Export Plug-In . SVG Version: 6.00 Build 43363)  -->
<svg
   xmlns:dc="http://purl.org/dc/elements/1.1/"
   xmlns:cc="http://creativecommons.org/ns#"
   xmlns:rdf="http://www.w3.org/1999/02/22-rdf-syntax-ns#"
   xmlns:svg="http://www.w3.org/2000/svg"
   xmlns="http://www.w3.org/2000/svg"
   xmlns:sodipodi="http://sodipodi.sourceforge.net/DTD/sodipodi-0.dtd"
   xmlns:inkscape="http://www.inkscape.org/namespaces/inkscape"
   version="1.0"
   baseProfile="basic"
   id="Layer_1"
   x="0px"
   y="0px"
   width="68.266846"
   height="100"
   viewBox="0 0 800 600"
   xml:space="preserve"
   sodipodi:version="0.32"
   inkscape:version="0.46"
   sodipodi:docname="101709MLSGameGuideSFCatKC223332Wpdf.svg"
   inkscape:output_extension="org.inkscape.output.svg.inkscape"><metadata
   id="metadata72"><rdf:RDF><cc:Work
       rdf:about=""><dc:format>image/svg+xml</dc:format><dc:type
         rdf:resource="http://purl.org/dc/dcmitype/StillImage" /></cc:Work></rdf:RDF></metadata><defs
   id="defs70"><inkscape:perspective
     sodipodi:type="inkscape:persp3d"
     inkscape:vp_x="0 : 300 : 1"
     inkscape:vp_y="0 : 1000 : 0"
     inkscape:vp_z="800 : 300 : 1"
     inkscape:persp3d-origin="400 : 200 : 1"
     id="perspective74" /></defs><sodipodi:namedview
   inkscape:window-height="669"
   inkscape:window-width="934"
   inkscape:pageshadow="2"
   inkscape:pageopacity="0.0"
   guidetolerance="10.0"
   gridtolerance="10.0"
   objecttolerance="10.0"
   borderopacity="1.0"
   bordercolor="#666666"
   pagecolor="#ffffff"
   id="base"
   showgrid="false"
   inkscape:snap-global="false"
   inkscape:zoom="2.72"
   inkscape:cx="94.289246"
   inkscape:cy="44.762931"
   inkscape:window-x="675"
   inkscape:window-y="323"
   inkscape:current-layer="Layer_1" />
<g
   id="g3"
   transform="matrix(12.253588,0,0,12.253588,-4761.3399,-3393.1395)">
	<path
   d="M 403.617,321.268 C 400.045,317.872 396.236,314.922 392.042,312.344 C 392.042,312.344 393.125,309.67 393.488,308.33 C 396.397,297.54 393.815,288.885 389.042,279.009 C 389.042,279.009 396.632,279.85 401.539,279.375 C 408.573,278.69 414.854,276.75 421.211,273.586 C 432.264,279.085 441.326,280.344 453.377,279.008 C 447.729,290.692 445.522,300.364 450.377,312.343 C 450.377,312.343 447.531,314.093 445.781,315.388 C 433.174,324.72 426.857,334.542 421.211,349.21 C 416.879,337.957 412.504,329.709 403.617,321.268"
   id="path5"
   style="fill:#142530" />
	<path
   d="M 405.332,319.369 C 410.846,324.605 417.281,332.211 421.211,341.844 C 425.828,330.524 434.656,320.416 444.441,313.176 C 445.793,312.178 446.783,311.522 447.246,311.221 C 446.226,308.434 445.682,305.391 445.424,302.459 C 444.955,297.069 445.412,289.776 449.028,281.964 C 439.827,282.594 429.389,280.291 421.212,276.262 C 413.034,280.291 402.593,282.594 393.393,281.964 C 397.282,290.368 398.251,300.141 395.848,309.067 C 395.573,310.094 395.32,310.833 395.176,311.221 C 398.805,313.563 402.211,316.4 405.332,319.369"
   id="path7"
   style="fill:#005595" />
	<path
   d="M 405.568,319.213 C 410.999,324.373 417.34,331.869 421.211,341.354 C 425.758,330.206 434.455,320.25 444.096,313.116 C 445.428,312.13 446.405,311.483 446.86,311.188 C 445.854,308.45 445.315,305.448 445.063,302.555 C 444.604,297.251 445.051,290.061 448.616,282.371 C 439.552,282.989 429.266,280.722 421.212,276.752 C 413.155,280.721 402.87,282.989 393.809,282.371 C 397.639,290.648 398.594,300.273 396.226,309.067 C 395.951,310.081 395.703,310.803 395.563,311.188 C 399.139,313.494 402.494,316.291 405.568,319.213 M 405.014,319.797 C 401.834,316.777 398.316,313.818 394.563,311.522 C 394.563,311.522 395.04,310.362 395.444,308.858 C 397.944,299.577 396.657,290.11 392.46,281.426 C 392.46,281.426 396.568,281.891 401.734,281.389 C 408.527,280.729 415.082,278.898 421.211,275.851 C 429.533,279.992 440.58,282.488 449.959,281.426 C 445.76,290.11 444.473,299.577 446.975,308.858 C 447.379,310.362 447.858,311.522 447.858,311.522 C 447.858,311.522 446.417,312.401 444.579,313.762 C 434.231,321.42 425.886,331.428 421.212,343.571 C 417.592,334.176 412.233,326.66 405.014,319.797"
   id="path9"
   style="fill:#ffffff" />
	<path
   d="M 399.497,289.717 C 396.967,275.922 397.278,262.008 397.278,262.008 L 421.211,253.575 L 445.141,262.008 C 445.141,262.008 445.454,275.922 442.922,289.717 C 439.998,305.679 434.645,320.224 421.211,330.552 C 407.774,320.225 402.427,305.68 399.497,289.717"
   id="path11"
   style="fill:#142530" />
	<path
   d="M 403.043,288.95 C 405.52,302.445 410.658,317.804 421.211,326.222 C 437.061,313.579 441.754,283.56 441.633,264.303 L 421.211,257.104 L 400.789,264.303 C 400.775,266.632 400.849,276.973 403.043,288.95"
   id="path13"
   style="fill:#5d9741" />
	<path
   d="M 403.493,289.017 C 405.906,302.18 410.918,317.159 421.211,325.368 C 436.668,313.04 441.246,283.762 441.127,264.975 L 421.211,257.959 L 401.291,264.975 C 401.277,267.254 401.35,277.338 403.493,289.017 M 402.117,289.268 C 399.652,275.823 399.913,263.983 399.913,263.983 L 421.211,256.475 L 442.504,263.983 C 442.504,263.983 442.766,275.822 440.301,289.268 C 437.828,302.75 432.76,318.256 421.211,327.133 C 409.659,318.256 404.594,302.75 402.117,289.268"
   id="path15"
   style="fill:#ffffff" />
	<path
   d="M 416.237,288.81 L 414.715,277.812 C 413.332,277.429 410.756,276.548 410.756,274.752 C 409.443,274.107 408.035,273.127 408.035,271.728 C 408.035,270.118 409.83,269.074 411.394,268.431 C 412.398,267.257 414.369,266.455 416.602,266.01 C 416.702,265.368 417.087,264.756 417.52,264.352 C 418.133,263.83 418.791,263.451 419.439,263.209 L 419.644,262.928 L 420.006,258.166 C 420.225,256.823 421.623,256.974 422.044,257.453 C 422.232,257.64 422.357,257.915 422.384,258.176 L 422.773,262.924 L 422.988,263.215 C 425.308,264.133 425.758,265.29 425.873,265.994 C 428.061,266.278 430.021,267.251 431.023,268.432 C 432.591,269.075 434.384,270.119 434.384,271.729 C 434.384,273.128 432.976,274.099 431.663,274.741 C 431.663,276.612 429.118,277.469 427.677,277.839 L 426.167,288.811 L 416.237,288.811"
   id="path17"
   style="fill:#ffffff" />
	<path
   clip-rule="evenodd"
   d="M 417.289,288.81 L 415.631,276.983 C 413.541,276.492 411.783,275.676 411.783,274.752 C 411.783,274.547 411.855,274.35 411.997,274.161 C 410.291,273.501 409.267,272.651 409.267,271.728 C 409.267,270.8 410.307,269.948 412.037,269.281 C 412.811,268.17 414.965,267.271 417.761,266.855 C 417.238,266.044 418.208,265.116 418.208,265.116 C 418.825,264.592 419.457,264.266 420.079,264.08 L 420.653,263.289 L 421.013,258.281 C 421.205,257.577 421.409,258.281 421.409,258.281 L 421.768,263.289 L 422.208,263.892 C 423.824,264.366 424.467,265.159 424.467,265.159 L 424.135,265.135 C 422.653,265.315 422.25,266.104 422.309,266.632 C 426.217,266.806 429.403,267.875 430.385,269.28 C 432.114,269.947 433.153,270.8 433.153,271.727 C 433.153,272.65 432.132,273.5 430.426,274.16 C 430.563,274.349 430.637,274.547 430.637,274.751 C 430.637,275.675 429.108,276.493 426.752,276.997 L 425.131,288.809 L 424.291,288.809 L 425.187,277.706 C 425.207,277.574 425.228,277.211 424.755,277.294 C 424.405,277.352 423.554,277.483 423.554,277.483 C 423.154,277.55 423.134,277.81 423.134,277.971 C 423.134,277.971 423.144,283.781 423.14,288.808 L 419.288,288.808 L 419.288,278.03 C 419.288,278.03 419.373,277.568 418.876,277.489 L 417.712,277.302 C 417.112,277.186 417.228,277.683 417.228,277.683 L 418.14,288.808 L 417.289,288.808"
   id="path19"
   style="fill:#142530;fill-rule:evenodd" />
	<path
   d="M 424.924,269.502 C 424.086,269.286 423.252,269.19 422.387,269.219 L 422.674,269.058 C 423.623,268.533 425.106,268.391 426.244,268.679 C 427.262,268.942 429.863,270.378 429.226,272.081 C 428.886,271.71 428.533,271.377 428.158,271.084 C 428.158,271.084 427.793,271.216 427.904,271.651 C 428.625,272.343 429.021,273.244 428.713,274.067 C 427.752,272.726 425.619,271.569 423.984,271.048 L 423.839,271.002 C 424.724,270.327 425.925,270.439 426.929,270.958 C 426.929,270.958 427.29,270.772 427.183,270.422 C 426.488,270.018 425.74,269.713 424.924,269.502"
   id="path21"
   style="fill:#ffffff" />
	<path
   d="M 414.195,319.271 C 415.375,311.398 416.21,308.078 416.646,300.004 L 425.771,300.004 C 426.253,308.334 427.115,311.398 428.416,319.328 L 421.211,326.637 L 414.195,319.271"
   id="path23"
   style="fill:#ffffff" />
	<path
   d="M 415.064,319.834 C 415.679,316.459 417.349,308.844 417.756,300.009 L 424.657,300.009 C 425.063,308.844 426.725,316.428 427.345,319.809 L 425.724,321.832 C 424.97,318.117 424.533,315.906 423.851,312.23 C 423.744,311.644 423.591,311.306 423.337,311.339 C 423.132,311.368 423.032,311.64 423.011,312.3 L 422.198,324.78 L 421.208,326.264 L 420.214,324.78 L 419.402,312.3 C 419.379,311.64 419.281,311.368 419.077,311.339 C 418.824,311.306 418.67,311.644 418.562,312.23 C 417.88,315.906 417.458,318.068 416.707,321.783 L 415.064,319.834"
   id="path25"
   style="fill:#142530" />
	<path
   d="M 404.857,297.176 C 407.791,308.304 412.768,319.484 421.211,326.228 C 429.258,319.796 434.434,308.886 437.547,297.176 L 404.857,297.176"
   id="path27"
   style="fill:none" />
	<path
   d="M 388.567,289.096 C 399.269,284.528 409.552,282.197 421.211,282.197 C 432.865,282.197 443.15,284.528 453.854,289.096 L 453.854,309.642 C 442.752,304.904 433.331,302.415 421.211,302.415 C 409.094,302.415 399.669,304.903 388.567,309.642 L 388.567,289.096"
   id="path29"
   style="fill:#142530" />
	<path
   clip-rule="evenodd"
   d="M 390.639,290.428 L 390.639,306.926 C 400.089,302.897 410.495,300.662 421.42,300.662 C 432.344,300.662 442.744,302.896 452.197,306.926 L 452.197,290.428 C 442.744,286.393 432.343,284.165 421.42,284.165 C 410.495,284.165 400.089,286.394 390.639,290.428"
   id="path31"
   style="fill:#ffffff;fill-rule:evenodd" />
	<path
   clip-rule="evenodd"
   d="M 404.798,290.792 C 404.798,291.413 405.088,291.508 405.809,291.366 L 406.768,291.181 C 407.821,290.976 408.057,290.806 408.057,290.03 C 408.057,289.194 407.772,289.168 406.54,289.41 C 405.691,289.579 405.595,289.589 405.595,289.34 C 405.595,289.186 405.717,289.096 405.895,289.059 L 406.774,288.889 C 407.137,288.816 407.157,288.901 407.157,289.111 L 407.951,288.956 L 407.951,288.867 C 407.951,288.36 407.866,288.031 406.95,288.209 L 405.845,288.425 C 404.845,288.618 404.802,289.029 404.802,289.548 C 404.802,290.255 404.939,290.386 406.13,290.152 C 407.152,289.957 407.245,289.952 407.245,290.203 C 407.245,290.424 407.071,290.478 406.903,290.51 L 405.934,290.7 C 405.705,290.744 405.595,290.744 405.59,290.44 L 404.798,290.593 L 404.798,290.792"
   id="path33"
   style="fill:#142530;fill-rule:evenodd" />
	<polyline
   clip-rule="evenodd"
   points="410.414,290.509 413.285,290.153 413.285,289.464    411.206,289.723 411.206,289.259 412.859,289.055 413.135,288.432 411.206,288.666 411.206,288.203 413.242,287.959    413.242,287.288 410.414,287.635 410.414,290.509  "
   id="polyline35"
   style="fill:#142530;fill-rule:evenodd" />
	<path
   clip-rule="evenodd"
   d="M 417.287,287.65 L 417.801,288.689 L 416.788,288.763 L 417.287,287.65 L 417.287,287.65 z M 415.375,289.991 L 416.256,289.926 L 416.49,289.404 L 418.097,289.292 L 418.343,289.784 L 419.225,289.718 L 417.802,286.949 L 416.772,287.019 L 415.375,289.991"
   id="path37"
   style="fill:#142530;fill-rule:evenodd" />
	<polyline
   clip-rule="evenodd"
   points="420.725,287.599 421.838,287.621 421.838,289.779    422.629,289.793 422.629,287.635 423.744,287.655 423.744,286.939 420.725,286.888 420.725,287.599  "
   id="polyline39"
   style="fill:#142530;fill-rule:evenodd" />
	<polyline
   clip-rule="evenodd"
   points="425.291,287.716 426.406,287.794 426.406,289.951    427.195,290.005 427.195,287.848 428.309,287.925 428.309,287.211 425.291,287.002 425.291,287.716  "
   id="polyline41"
   style="fill:#142530;fill-rule:evenodd" />
	<polyline
   clip-rule="evenodd"
   points="430.387,290.302 432.957,290.663 432.957,289.925    431.182,289.674 431.182,287.543 430.387,287.433 430.387,290.302  "
   id="polyline43"
   style="fill:#142530;fill-rule:evenodd" />
	<polyline
   clip-rule="evenodd"
   points="434.746,290.967 437.619,291.524 437.619,290.835    435.541,290.428 435.541,289.968 437.135,290.272 437.467,289.749 435.541,289.375 435.541,288.915 437.574,289.311    437.574,288.646 434.746,288.093 434.746,290.967  "
   id="polyline45"
   style="fill:#142530;fill-rule:evenodd" />
	<path
   d="M 400.419,295.185 C 399.428,295.443 398.76,296.523 398.76,297.779 C 398.76,299.029 399.428,299.774 400.419,299.515 C 401.411,299.257 402.076,298.167 402.076,296.917 C 402.076,295.663 401.411,294.927 400.419,295.185 M 400.393,300.959 C 398.454,301.466 397.217,300.231 397.217,298.18 C 397.217,296.123 398.515,294.23 400.454,293.725 C 402.383,293.225 403.629,294.456 403.629,296.511 C 403.629,298.563 402.324,300.455 400.393,300.959"
   id="path47"
   style="fill:#142530" />
	<polyline
   points="415.766,291.204 415.799,297.968 411.495,294.574 412.146,295.528 412.119,298.173    410.528,298.361 410.525,291.564 414.194,294.613 414.216,291.33 415.766,291.204  "
   id="polyline49"
   style="fill:#142530" />
	<path
   d="M 419.27,296.266 C 420.129,296.298 420.336,295.772 420.336,295.275 L 420.336,293.465 C 420.336,292.107 419.451,292.423 418.629,292.37 L 418.629,296.298 L 419.27,296.266 L 419.27,296.266 z M 421.663,293.127 L 421.663,295.302 C 421.663,297.074 420.29,297.688 419.566,297.671 C 418.238,297.715 417.207,297.724 417.207,297.724 L 417.216,291.799 L 416.635,291.145 C 416.635,291.145 418.298,291.037 419.768,291.02 C 420.686,291.064 421.663,291.411 421.663,293.127"
   id="path51"
   style="fill:#142530" />
	<polyline
   points="427.08,291.254 427.088,292.628 424.516,292.475 424.5,293.755 426.693,293.948 425.957,295.063    424.508,294.934 424.512,296.334 427.102,296.544 427.115,297.883 423.01,297.643 422.98,294.255 422.217,293.553 422.979,293.628    422.992,291.037 427.08,291.254  "
   id="polyline53"
   style="fill:#142530" />
	<path
   d="M 430.92,292.933 L 429.764,292.757 L 429.764,294.465 L 430.92,294.642 C 431.457,294.721 431.811,294.421 431.811,293.919 C 431.811,293.417 431.457,293.01 430.92,292.933 M 431.875,298.419 L 430.645,295.654 L 429.764,295.521 L 429.764,298.105 L 428.534,297.922 L 428.534,291.926 L 427.971,291.364 L 430.998,291.815 C 432.277,292.004 433.039,293.021 433.039,294.102 C 433.039,295.01 432.502,295.492 431.891,295.629 L 433.295,298.631 L 431.875,298.419"
   id="path55"
   style="fill:#142530" />
	<path
   d="M 430.898,294.754 L 429.65,294.561 L 429.65,292.627 L 430.941,292.82 L 430.92,292.932 L 430.899,293.036 L 429.874,292.888 L 429.874,294.368 L 430.942,294.528 L 431.131,294.538 C 431.494,294.514 431.694,294.305 431.699,293.922 C 431.699,293.478 431.388,293.111 430.898,293.036 L 430.919,292.932 L 430.94,292.82 C 431.524,292.904 431.922,293.355 431.919,293.91 C 431.919,294.39 431.601,294.74 431.13,294.763 L 430.898,294.754 M 433.105,298.492 L 431.73,295.553 L 431.871,295.522 C 432.439,295.39 432.924,294.969 432.93,294.105 C 432.926,293.075 432.207,292.108 430.977,291.923 L 428.293,291.526 L 428.647,291.877 L 428.647,297.826 L 429.651,297.977 L 429.651,295.393 L 430.723,295.554 L 431.952,298.321 L 433.105,298.492 L 433.105,298.492 z M 431.732,298.38 L 430.568,295.755 L 429.873,295.651 L 429.873,298.152 L 428.424,297.985 L 428.424,292.087 L 427.707,291.308 L 431.131,291.678 C 432.461,291.878 433.151,292.964 433.149,294.095 C 433.155,294.986 432.645,295.52 432.049,295.704 L 433.432,298.673 L 431.732,298.38"
   id="path57"
   style="fill:#142530" />
	<path
   d="M 436.002,299.281 C 435.272,299.137 434.387,298.665 433.818,298.173 L 434.203,296.853 C 434.732,297.348 435.412,297.732 436.021,297.854 C 436.548,297.958 436.744,297.745 436.738,297.413 C 436.732,297.067 436.566,296.799 435.572,296.195 C 434.427,295.496 434.017,294.738 434.004,293.936 C 433.988,292.958 434.736,292.165 436.242,292.463 C 436.943,292.601 437.672,293.001 438.053,293.335 L 437.698,294.646 C 437.325,294.309 436.723,293.91 436.266,293.819 C 435.717,293.712 435.502,293.934 435.51,294.207 C 435.518,294.642 435.846,294.853 436.66,295.369 C 437.875,296.136 438.246,296.803 438.262,297.663 C 438.283,298.724 437.551,299.588 436.002,299.281"
   id="path59"
   style="fill:#142530" />
	<path
   d="M 406.742,299.367 C 405.144,299.651 404.256,298.812 404.256,296.897 L 404.256,292.896 L 405.631,292.608 L 405.631,296.523 C 405.631,297.509 405.986,298.037 406.774,297.897 C 407.551,297.751 407.907,297.091 407.907,296.099 L 407.907,292.176 L 409.815,291.884 L 409.283,292.516 L 409.283,295.956 C 409.282,297.908 408.334,299.088 406.742,299.367"
   id="path61"
   style="fill:#142530" />
	<path
   d="M 394.461,303.145 C 393.701,303.42 392.788,303.436 392.203,303.241 L 392.635,301.576 C 393.173,301.8 393.874,301.813 394.504,301.579 C 395.055,301.379 395.265,301.028 395.265,300.675 C 395.265,300.303 395.091,300.112 394.069,300.047 C 392.888,299.977 392.479,299.394 392.479,298.532 C 392.479,297.488 393.272,296.178 394.833,295.602 C 395.563,295.332 396.313,295.33 396.706,295.464 L 396.314,297.1 C 395.932,296.956 395.31,296.884 394.834,297.058 C 394.269,297.265 394.04,297.632 394.04,297.925 C 394.04,298.395 394.376,298.427 395.216,298.501 C 396.47,298.605 396.846,299.117 396.846,300.035 C 396.845,301.178 396.067,302.551 394.461,303.145"
   id="path63"
   style="fill:#142530" />
	<path
   d="M 441.271,296.556 L 441.271,293.628 L 445.353,294.72 L 445.353,296.196 L 442.765,295.505 L 442.765,296.954 L 445.003,297.551 L 444.261,298.557 L 442.765,298.16 L 442.765,300.962 L 441.271,300.564 L 441.271,297.191 L 440.521,296.351 L 441.271,296.556 M 441.271,297.167 L 440.578,296.386"
   id="path65"
   style="fill:#142530" />
	<path
   d="M 448.764,303.34 C 446.7,302.584 445.299,300.563 445.299,298.524 C 445.299,296.476 446.699,295.475 448.764,296.23 C 449.498,296.495 450.172,296.977 450.743,297.55 L 450.294,298.738 C 449.827,298.287 449.3,297.918 448.78,297.73 C 447.596,297.297 446.862,297.82 446.862,299.096 C 446.862,300.369 447.596,301.428 448.78,301.858 C 449.3,302.047 449.889,302.077 450.364,301.932 L 450.803,303.446 C 450.252,303.631 449.488,303.602 448.764,303.34"
   id="path67"
   style="fill:#142530" />
</g>
</svg>