<svg xmlns="http://www.w3.org/2000/svg" version="1" baseProfile="basic" width="68.267" height="100" viewBox="0 0 800 600"><g><path d="M184.417 543.546c-43.77-41.613-90.444-77.761-141.835-109.351 0 0 13.271-32.766 17.719-49.186 35.646-132.216 4.007-238.271-54.479-359.287 0 0 93.005 10.305 153.133 4.485 86.192-8.394 163.157-32.166 241.053-70.936 135.439 67.382 246.481 82.81 394.149 66.439-69.208 143.171-96.252 261.688-36.761 408.473 0 0-34.874 21.444-56.317 37.312-154.481 114.35-231.887 234.705-301.071 414.441-53.083-137.89-106.692-238.957-215.59-342.39" fill="#142530"/><path d="M205.431 520.277c67.566 64.16 146.418 157.361 194.575 275.399 56.575-138.711 164.749-262.57 284.651-351.286 16.567-12.229 28.698-20.267 34.371-23.956-12.499-34.151-19.165-71.438-22.326-107.366-5.747-66.047-.147-155.412 44.162-251.137-112.745 7.72-240.648-20.5-340.846-69.87-100.21 49.37-228.15 77.59-340.883 69.87 47.654 102.979 59.528 222.733 30.083 332.109-3.37 12.584-6.47 21.64-8.234 26.394 44.468 28.698 86.204 63.461 124.447 99.842" fill="#005595"/><path d="M208.323 518.365c66.549 63.229 144.249 155.081 191.683 271.307 55.717-136.603 162.287-258.6 280.423-346.017 16.322-12.082 28.294-20.01 33.869-23.625-12.327-33.55-18.932-70.336-22.02-105.785-5.624-64.993-.147-153.096 43.537-247.326-111.067 7.573-237.107-20.206-335.797-68.853-98.727 48.634-224.755 76.426-335.785 68.853 46.931 101.423 58.633 219.364 29.617 327.122-3.37 12.425-6.409 21.272-8.124 25.99 43.819 28.257 84.93 62.53 122.597 98.335m-6.788 7.156c-38.966-37.006-82.075-73.264-128.062-101.398 0 0 5.845-14.214 10.795-32.644 30.634-113.726 14.864-229.73-36.565-336.14 0 0 50.338 5.698 113.64-.453 83.239-8.087 163.561-30.524 238.663-67.86 101.974 50.742 237.34 81.327 352.266 68.314-51.453 106.41-67.223 222.415-36.565 336.14 4.95 18.429 10.82 32.644 10.82 32.644s-17.657 10.771-40.18 27.448c-126.8 93.838-229.056 216.472-286.33 365.267-44.358-115.122-110.025-207.22-198.484-291.317" fill="#fff"/><path d="M133.932 156.933c-31.002-169.038-27.191-339.535-27.191-339.535l293.265-103.335 293.228 103.335s3.835 170.496-27.191 339.535c-35.829 195.592-101.423 373.82-266.038 500.375-164.651-126.543-230.171-304.771-266.074-500.375" fill="#142530"/><path d="M177.383 147.535c30.352 165.362 93.311 353.565 222.623 456.716 194.219-154.922 251.725-522.763 250.243-758.73l-250.243-88.214-250.243 88.214c-.172 28.539.735 155.253 27.62 302.014" fill="#5d9741"/><path d="M182.897 148.356c29.568 161.294 90.983 344.84 217.109 445.43 189.404-151.062 245.501-509.823 244.042-740.031l-244.042-85.971-244.091 85.971c-.172 27.926.723 151.491 26.982 294.601m-16.861 3.076c-30.205-164.749-27.007-309.832-27.007-309.832l260.977-92 260.916 92s3.21 145.07-26.995 309.832c-30.303 165.203-92.404 355.207-233.921 463.982-141.553-108.775-203.618-298.779-233.97-463.982" fill="#fff"/><path d="M339.057 145.819l-18.65-134.765c-16.947-4.693-48.512-15.489-48.512-37.496-16.089-7.904-33.342-19.912-33.342-37.055 0-19.728 21.995-32.521 41.16-40.4 12.303-14.386 36.454-24.213 63.817-29.666 1.225-7.867 5.943-15.366 11.249-20.316 7.511-6.396 15.574-11.04 23.515-14.006l2.512-3.443 4.436-58.352c2.684-16.457 19.814-14.606 24.973-8.737 2.304 2.291 3.835 5.661 4.166 8.859l4.767 58.18 2.635 3.566c28.428 11.249 33.942 25.426 35.352 34.053 26.811 3.48 50.828 15.403 63.106 29.874 19.214 7.879 41.184 20.672 41.184 40.4 0 17.143-17.253 29.041-33.342 36.908 0 22.926-31.185 33.428-48.843 37.962l-18.503 134.446h-121.678" fill="#fff"/><path clip-rule="evenodd" d="M351.948 145.819l-20.316-144.923c-25.61-6.017-47.152-16.015-47.152-27.338 0-2.512.882-4.926 2.622-7.242-20.905-8.087-33.452-18.503-33.452-29.813 0-11.371 12.744-21.811 33.942-29.985 9.484-13.614 35.879-24.63 70.14-29.727-6.409-9.938 5.477-21.309 5.477-21.309 7.56-6.421 15.305-10.416 22.926-12.695l7.034-9.693 4.411-61.366c2.353-8.627 4.852 0 4.852 0l4.399 61.366 5.392 7.389c19.802 5.808 27.681 15.525 27.681 15.525l-4.068-.294c-18.16 2.206-23.098 11.874-22.375 18.344 47.887 2.132 86.927 15.231 98.96 32.448 21.186 8.173 33.918 18.625 33.918 29.985 0 11.31-12.511 21.726-33.416 29.813 1.679 2.316 2.586 4.742 2.586 7.242 0 11.322-18.736 21.346-47.605 27.522l-19.863 144.739h-10.293l10.979-136.052c.245-1.617.502-6.066-5.294-5.048-4.289.711-14.717 2.316-14.717 2.316-4.901.821-5.147 4.007-5.147 5.98 0 0 .123 71.193.074 132.792h-47.201v-132.069s1.042-5.661-5.048-6.629l-14.263-2.291c-7.352-1.421-5.931 4.669-5.931 4.669l11.175 136.321h-10.428" fill="#142530" fill-rule="evenodd"/><path d="M445.504-90.773c-10.269-2.647-20.488-3.823-31.087-3.468l3.517-1.973c11.629-6.433 29.801-8.173 43.745-4.644 12.474 3.223 44.346 20.819 36.54 41.687-4.166-4.546-8.492-8.627-13.087-12.217 0 0-4.473 1.617-3.112 6.948 8.835 8.479 13.687 19.52 9.913 29.605-11.776-16.432-37.913-30.609-57.947-36.994l-1.777-.564c10.844-8.271 25.561-6.899 37.864-.539 0 0 4.424-2.279 3.112-6.568-8.516-4.95-17.682-8.688-27.681-11.273" fill="#fff"/><path d="M314.035 519.076c14.459-96.472 24.691-137.154 30.034-236.09h111.814c5.906 102.072 16.469 139.617 32.411 236.788l-88.287 89.561-85.971-90.26" fill="#fff"/><path d="M324.683 525.975c7.536-41.356 27.999-134.667 32.987-242.927h84.562c4.975 108.26 25.34 201.192 32.938 242.621l-19.863 24.789c-9.239-45.522-14.594-72.615-22.951-117.659-1.311-7.181-3.186-11.322-6.298-10.918-2.512.355-3.737 3.688-3.995 11.776l-9.962 152.925-12.131 18.184-12.18-18.184-9.95-152.925c-.282-8.087-1.483-11.42-3.982-11.776-3.1-.404-4.987 3.737-6.311 10.918-8.357 45.044-13.528 71.536-22.73 117.059l-20.133-23.882" fill="#142530"/><path d="M199.611 248.333c35.952 136.358 96.938 273.353 200.395 355.991 98.605-78.815 162.029-212.502 200.175-355.991h-400.57" fill="none"/><path d="M0 149.324c131.138-55.974 257.142-84.538 400.006-84.538 142.803 0 268.831 28.563 399.994 84.538v251.762c-136.039-58.057-251.48-88.557-399.994-88.557-148.477 0-263.967 30.487-400.006 88.557v-251.762" fill="#142530"/><path clip-rule="evenodd" d="M25.389 165.646v202.16c115.796-49.37 243.307-76.756 377.178-76.756 133.858 0 261.296 27.375 377.129 76.756v-202.16c-115.833-49.443-243.283-76.744-377.129-76.744-133.87 0-261.381 27.313-377.178 76.744" fill="#fff" fill-rule="evenodd"/><path clip-rule="evenodd" d="M198.888 170.106c0 7.609 3.554 8.774 12.388 7.034l11.751-2.267c12.903-2.512 15.795-4.595 15.795-14.104 0-10.244-3.492-10.563-18.589-7.597-10.403 2.071-11.58 2.193-11.58-.858 0-1.887 1.495-2.99 3.676-3.443l10.771-2.083c4.448-.895 4.693.147 4.693 2.72l9.729-1.899v-1.091c0-6.213-1.042-10.244-12.266-8.063l-13.54 2.647c-12.254 2.365-12.78 7.401-12.78 13.761 0 8.663 1.679 10.269 16.273 7.401 12.523-2.389 13.663-2.451 13.663.625 0 2.708-2.132 3.37-4.191 3.762l-11.874 2.328c-2.806.539-4.154.539-4.215-3.186l-9.705 1.875v2.438" fill="#142530" fill-rule="evenodd"/><path clip-rule="evenodd" fill="#142530" fill-rule="evenodd" d="M267.704 166.638l35.18-4.362v-8.443l-25.475 3.174v-5.686l20.255-2.5 3.382-7.634-23.637 2.867v-5.673l24.948-2.99v-8.222l-34.653 4.252v35.217"/><path clip-rule="evenodd" d="M351.923 131.605l6.298 12.731-12.413.907 6.115-13.638zm-23.429 28.686l10.795-.796 2.867-6.396 19.692-1.372 3.014 6.029 10.808-.809-17.437-33.93-12.621.858-17.118 36.418" fill="#142530" fill-rule="evenodd"/><path clip-rule="evenodd" fill="#142530" fill-rule="evenodd" d="M394.051 130.98l13.638.27v26.443l9.693.172v-26.443l13.663.245v-8.774l-36.994-.625v8.712"/><path clip-rule="evenodd" fill="#142530" fill-rule="evenodd" d="M450.001 132.414l13.663.956v26.431l9.668.662v-26.431l13.65.944v-8.749l-36.981-2.561v8.749"/><path clip-rule="evenodd" fill="#142530" fill-rule="evenodd" d="M512.445 164.102l31.492 4.424v-9.043l-21.75-3.076v-26.112l-9.742-1.348v35.156"/><path clip-rule="evenodd" fill="#142530" fill-rule="evenodd" d="M565.858 172.25l35.205 6.825v-8.443l-25.463-4.987v-5.637l19.532 3.725 4.068-6.409-23.6-4.583v-5.637l24.912 4.852v-8.149l-34.653-6.776v35.217"/><path d="M145.23 223.936c-12.143 3.161-20.329 16.395-20.329 31.786 0 15.317 8.185 24.446 20.329 21.272 12.156-3.161 20.304-16.518 20.304-31.835 0-15.366-8.149-24.385-20.304-21.223m-.319 70.752c-23.76 6.213-38.917-8.921-38.917-34.053 0-25.206 15.905-48.402 39.665-54.59 23.637-6.127 38.905 8.957 38.905 34.138 0 25.144-15.991 48.328-39.653 54.504" fill="#142530"/><path fill="#142530" d="M333.285 175.154l.404 82.883-52.739-41.589 7.977 11.69-.331 32.411-19.495 2.304-.037-83.288 44.958 37.361.27-40.229 18.993-1.544"/><path d="M376.222 237.182c10.526.392 13.062-6.053 13.062-12.143v-22.179c0-16.64-10.844-12.768-20.917-13.418v48.132l7.855-.392zm29.323-38.464v26.652c0 21.713-16.824 29.237-25.696 29.029-16.273.539-28.906.649-28.906.649l.11-72.603-7.119-8.014s20.378-1.323 38.39-1.532c11.249.539 23.221 4.791 23.221 25.818" fill="#142530"/><path fill="#142530" d="M471.922 175.767l.098 16.836-31.516-1.875-.196 15.685 26.872 2.365-9.019 13.663-17.755-1.581.049 17.155 31.737 2.573.159 16.408-50.301-2.941-.368-41.515-9.349-8.602 9.337.919.159-31.749 50.093 2.659"/><path d="M518.976 196.341l-14.165-2.157v20.929l14.165 2.169c6.58.968 10.918-2.708 10.918-8.859s-4.338-11.139-10.918-12.082m11.702 67.223l-15.072-33.881-10.795-1.63v31.663l-15.072-2.242v-73.473l-6.899-6.887 37.092 5.526c15.672 2.316 25.01 14.778 25.01 28.024 0 11.126-6.58 17.032-14.067 18.711l17.204 36.785-17.4-2.598" fill="#142530"/><path d="M518.707 218.655l-15.292-2.365v-23.698l15.819 2.365-.257 1.372-.257 1.274-12.56-1.814v18.135l13.087 1.961 2.316.123c4.448-.294 6.899-2.855 6.96-7.548 0-5.441-3.811-9.938-9.815-10.857l.257-1.274.257-1.372c7.156 1.029 12.033 6.556 11.996 13.356 0 5.882-3.897 10.17-9.668 10.452l-2.843-.11m27.044 45.804l-16.849-36.013 1.728-.38c6.96-1.617 12.903-6.776 12.977-17.363-.049-12.621-8.859-24.47-23.931-26.737l-32.889-4.865 4.338 4.301v72.897l12.303 1.85v-31.663l13.136 1.973 15.06 33.906 14.128 2.095zm-16.824-1.372l-14.263-32.166-8.516-1.274v30.646l-17.755-2.046v-72.272l-8.786-9.546 41.956 4.534c16.297 2.451 24.752 15.758 24.728 29.617.074 10.918-6.176 17.461-13.479 19.716l16.947 36.381-20.831-3.59" fill="#142530"/><path d="M581.249 274.127c-8.945-1.765-19.79-7.548-26.762-13.577l4.718-16.175c6.482 6.066 14.815 10.771 22.277 12.266 6.458 1.274 8.859-1.336 8.786-5.404-.074-4.24-2.108-7.524-14.288-14.925-14.03-8.565-19.054-17.853-19.214-27.681-.196-11.984 8.97-21.701 27.424-18.05 8.59 1.691 17.523 6.592 22.191 10.685l-4.35 16.064c-4.571-4.129-11.947-9.019-17.547-10.134-6.727-1.311-9.362 1.409-9.264 4.754.098 5.33 4.117 7.916 14.092 14.239 14.888 9.399 19.434 17.572 19.63 28.11.257 13.001-8.712 23.588-27.693 19.826" fill="#142530"/><path d="M222.709 275.18c-19.581 3.48-30.462-6.801-30.462-30.266v-49.027l16.849-3.529v47.973c0 12.082 4.35 18.552 14.006 16.836 9.521-1.789 13.883-9.876 13.883-22.032v-48.071l23.38-3.578-6.519 7.744v42.152c-.012 23.919-11.629 38.378-31.136 41.797" fill="#142530"/><path d="M72.223 321.474c-9.313 3.37-20.5 3.566-27.669 1.176l5.294-20.402c6.592 2.745 15.182 2.904 22.902.037 6.752-2.451 9.325-6.752 9.325-11.077 0-4.558-2.132-6.899-14.655-7.695-14.471-.858-19.483-8.002-19.483-18.564 0-12.793 9.717-28.845 28.845-35.903 8.945-3.308 18.135-3.333 22.951-1.691l-4.803 20.047c-4.681-1.765-12.303-2.647-18.135-.515-6.923 2.536-9.729 7.034-9.729 10.624 0 5.759 4.117 6.151 14.41 7.058 15.366 1.274 19.973 7.548 19.973 18.797-.012 14.006-9.546 30.83-29.225 38.109" fill="#142530"/><path d="M645.813 240.736v-35.879l50.019 13.381v18.086l-31.712-8.467v17.755l27.424 7.315-9.092 12.327-18.331-4.865v34.335l-18.307-4.877v-41.331l-9.19-10.293 9.19 2.512m0 7.487l-8.492-9.57" fill="#142530"/><path d="M737.629 323.864c-25.291-9.264-42.459-34.028-42.459-59.013 0-25.095 17.155-37.361 42.459-28.11 8.994 3.247 17.253 9.153 24.25 16.175l-5.502 14.557c-5.722-5.526-12.18-10.048-18.552-12.352-14.508-5.306-23.502 1.103-23.502 16.738 0 15.599 8.994 28.575 23.502 33.844 6.372 2.316 13.589 2.684 19.41.907l5.379 18.552c-6.752 2.267-16.113 1.912-24.985-1.299" fill="#142530"/></g></svg>