<?xml version="1.0" encoding="UTF-8" standalone="no"?>
<svg width="512px" height="512px" viewBox="0 0 512 512" version="1.1" xmlns="http://www.w3.org/2000/svg" xmlns:xlink="http://www.w3.org/1999/xlink" xmlns:sketch="http://www.bohemiancoding.com/sketch/ns">
    <!-- Generator: Sketch 3.2.2 (9983) - http://www.bohemiancoding.com/sketch -->
    <title>sporting-kansas-city</title>
    <desc>Created with Sketch.</desc>
    <defs></defs>
    <g id="MLS" stroke="none" stroke-width="1" fill="none" fill-rule="evenodd" sketch:type="MSPage">
        <g id="sporting-kansas-city" sketch:type="MSArtboardGroup">
            <g sketch:type="MSLayerGroup" transform="translate(94.000000, 74.000000)">
                <path d="M158.933016,0.182317682 L166.012332,0.182317682 C197.149664,0.656343656 228.23963,6.03471528 257.595291,16.4778721 C271.804933,21.5061938 285.606502,27.6867632 298.825112,34.9357143 C300.63593,36.0332667 302.639854,36.85005 304.308576,38.1627373 C305.722253,41.1126374 306.738789,44.2557942 307.908352,47.3150849 C318.190303,75.8806194 324.005325,106.083367 324.817825,136.446553 L324.817825,146.860539 C324.245796,169.73047 320.463845,192.651449 312.236827,214.055544 C305.314182,232.575375 296.212724,250.303946 284.932455,266.544805 C273.925448,282.442907 260.841648,296.860589 246.322309,309.615534 C232.549888,321.743307 217.473094,332.284915 202.126682,342.305095 C193.119955,348.128322 183.920123,353.663487 174.501317,358.793906 C170.5412,360.872328 166.657231,363.136713 162.507287,364.817682 L162.405269,364.817682 C160.998879,364.303546 159.661715,363.632617 158.331839,362.95476 C143.411715,355.340809 129.085482,346.604146 115.174608,337.276773 C105.10398,330.436214 95.1499439,323.387812 85.7278587,315.664835 C75.2819507,307.09955 65.4663677,297.746653 56.5215807,287.617083 C38.985426,267.806444 25.0162556,244.892757 15.1533072,220.349151 C10.5880045,209.205894 6.89349776,197.690709 4.48514574,185.883816 C-1.15863229,158.528871 -0.940022422,130.193057 3.16619955,102.641209 C6.41255605,81.1131369 12.0053251,59.9314685 19.9663677,39.665035 C20.341648,38.7899101 20.5821188,37.7142358 21.5039238,37.2438561 C41.7253363,25.6338661 63.4296525,16.6200799 85.9100336,10.4468032 C109.672926,3.86878122 134.295684,0.572477522 158.933016,0.182317682" id="Fill-1" fill="#9CA0A6" sketch:type="MSShapeGroup"></path>
                <path d="M170.39546,11.8542957 C170.420964,11.0666833 170.180493,9.65554446 171.393778,9.75764236 C174.935258,9.83421578 178.476738,10.052997 182.007287,10.3374126 C183.792601,10.3738761 183.209641,12.6090909 183.384529,13.7722777 C182.367993,13.6957043 181.351457,13.6154845 180.334922,13.5425574 C180.280269,13.0466533 180.232904,12.5543956 180.192825,12.0584915 C177.966648,11.970979 175.747758,11.7740759 173.521581,11.7449051 L173.543442,12.867982 C176.334361,13.7139361 179.110706,14.6218781 181.887052,15.5152348 C182.426289,15.7157842 183.012892,15.8689311 183.453756,16.2590909 C183.727018,17.6848152 183.938341,19.2162837 183.497478,20.6274226 C179.824832,20.5143856 176.163117,20.1862138 172.490471,20.1132867 C171.871076,20.0367133 171.047646,20.1461039 170.683296,19.507992 C170.519339,18.4797203 170.537556,17.4332168 170.501121,16.3976523 C171.565022,16.4523477 172.628924,16.4924575 173.696469,16.517982 C173.696469,17.0831668 173.707399,17.6483516 173.711043,18.2135365 C176.006446,18.3448052 178.305493,18.4177323 180.600897,18.60005 L180.513453,17.2436064 C177.405549,16.1642857 174.246637,15.2526973 171.116872,14.2572428 C170.071188,13.9728272 170.497478,12.6419081 170.39546,11.8542957" id="Fill-2" fill="#FDFEFE" sketch:type="MSShapeGroup"></path>
                <path d="M145.714406,10.1295704 C146.785594,10.0347652 147.860426,9.96183816 148.938901,9.9034965 C150.891816,13.2581419 152.862948,16.6018482 154.845011,19.9419081 C153.730101,20.0257742 152.615191,20.0658841 151.503924,20.0585914 C151.194226,19.4788212 150.884529,18.8990509 150.574832,18.3229271 C148.221132,18.4432567 145.863789,18.5672328 143.513733,18.7604895 C143.134809,19.4022478 142.748599,20.0330669 142.362388,20.6711788 C141.283913,20.7477522 140.205437,20.8316184 139.126962,20.9045455 L145.714406,10.1295704" id="Fill-3" fill="#FDFEFE" sketch:type="MSShapeGroup"></path>
                <path d="M114.988789,13.5425574 C118.242433,13.1086414 121.474215,12.3501998 124.76065,12.2335165 C125.57315,13.0575924 124.851738,14.4103896 124.931895,15.4532468 C123.915359,15.5918082 122.895179,15.7376623 121.878643,15.8835165 C121.915078,15.383966 121.9588,14.8880619 122.006166,14.3921578 C119.787276,14.7057443 117.572029,15.0339161 115.371357,15.435015 L115.240191,16.5909091 C118.282511,17.0029471 121.361267,17.2326673 124.370796,17.8525475 C124.942825,18.961039 124.425448,20.4523976 124.338004,21.6848651 C124.221413,22.7131369 122.993554,22.6584416 122.232063,22.8188811 C118.810818,23.2418581 115.429652,23.931019 112.022982,24.4123377 L111.447309,24.0695804 C111.407595,23.0048452 111.618554,21.9546953 111.727859,20.9008991 C112.755325,20.6857642 113.790078,20.5034466 114.828475,20.3393606 C114.762892,20.9081918 114.700953,21.4806693 114.639013,22.0495005 C116.890695,21.6885115 119.142377,21.3275225 121.401345,20.9884116 C121.43778,20.5326174 121.477859,20.0768232 121.528868,19.621029 C118.39546,19.1251249 115.22926,18.8917582 112.095852,18.4140859 C112.205157,17.1123377 112.223374,15.7887113 112.569507,14.5234266 C113.039518,13.6738262 114.169002,13.7503996 114.988789,13.5425574" id="Fill-4" fill="#FDFEFE" sketch:type="MSShapeGroup"></path>
                <path d="M144.676009,16.7659341 C145.546805,15.2891608 146.39574,13.8014486 147.259249,12.3173826 C148.013453,13.7102897 148.782231,15.0959041 149.558296,16.4778721 C147.929652,16.5435065 146.301009,16.641958 144.676009,16.7659341" id="Fill-5" fill="#9CA0A6" sketch:type="MSShapeGroup"></path>
                <path d="M210.320908,13.8962537 C211.924047,13.8196803 213.487108,14.24995 215.057455,14.5234266 C217.658913,15.0485015 220.296805,15.4641858 222.858184,16.1715784 C224.26421,16.9956543 223.769058,18.9865634 224.115191,20.3502997 C223.076794,20.1424575 222.045684,19.9090909 221.029148,19.6283217 C220.952635,19.0084416 220.887052,18.3922078 220.817825,17.7723277 C218.373038,17.1962038 215.899103,16.754995 213.436099,16.2736763 C213.691143,18.4396104 213.960762,20.6018981 214.19759,22.7641858 C216.671525,23.2746753 219.152747,23.7487013 221.623038,24.2883616 C221.553812,23.6174326 221.491872,22.9465035 221.426289,22.2792208 C222.442825,22.5016484 223.459361,22.735015 224.472253,22.9793207 C224.603419,24.1935564 224.945908,25.4004995 224.84389,26.6256743 L224.257287,26.8882118 C220.828756,26.2537463 217.443946,25.3676823 214.004484,24.7879121 C213.206558,24.5983017 212.310258,24.5873626 211.632567,24.0841658 C211.202635,23.508042 211.253643,22.7313686 211.133408,22.0604396 C210.889294,19.3366134 210.397422,16.6346653 210.320908,13.8962537 L210.320908,13.8962537 Z M94.7783072,17.6045954 C95.7656951,17.3457043 96.7640135,17.1086913 97.7659753,16.9008492 C97.2012332,20.5508492 96.6875,24.2044955 96.0717489,27.8435564 C95.077074,28.0842158 94.0823991,28.3321678 93.0913677,28.5801199 C91.014574,26.7751748 88.9742152,24.9191808 86.908352,23.0996503 C86.3946188,25.6265734 85.9428251,28.1644356 85.4436659,30.6913586 C84.3906951,31.0012987 83.3450112,31.3148851 82.2920404,31.6211788 C83.0170964,27.8508492 83.7931614,24.0878122 84.5327915,20.3211289 C85.5165359,20.0330669 86.5039238,19.7559441 87.4913117,19.4897602 C89.5280269,21.2436563 91.5647422,22.9975524 93.6196749,24.7259241 C94.0131726,22.3521479 94.3957399,19.9783716 94.7783072,17.6045954 L94.7783072,17.6045954 Z M237.271861,19.6611389 C238.270179,19.9382617 239.264854,20.22997 240.263173,20.5253247 C241.013733,24.2591908 241.808016,27.9821179 242.529428,31.7196304 C241.483744,31.4096903 240.441704,31.0924575 239.403307,30.7679321 C238.721973,27.0595904 237.960482,23.3658342 237.271861,19.6611389 L237.271861,19.6611389 Z M252.807735,24.3795205 C257.18722,25.7614885 261.505129,27.3294206 265.786239,28.9812188 C266.004484,29.798002 266.219451,30.6111389 266.437696,31.4242757 C264.64546,30.7278222 262.852859,30.0131369 261.049327,29.3422078 C261.869114,32.5327672 262.616031,35.7415584 263.399383,38.9430569 C262.338761,38.5054945 261.286155,38.0497003 260.240471,37.5793207 C259.529989,34.468981 258.819507,31.3586414 258.101738,28.2519481 C256.498599,27.6575924 254.877242,27.106993 253.259529,26.5527473 C253.106502,25.8307692 252.953475,25.1051449 252.807735,24.3795205 L252.807735,24.3795205 Z M62.9195628,27.9857642 C63.6191143,26.7387113 65.2586883,26.7022478 66.4209641,26.1151848 C67.473935,29.3093906 68.4176009,32.5400599 69.4450673,35.7452048 C68.5123318,36.0806693 67.5795964,36.4197802 66.6505045,36.7625375 C66.4756166,36.1900599 66.3007287,35.6212288 66.1258408,35.0523976 C64.0599776,35.8035465 62.0123318,36.6057443 59.9719731,37.4225275 C58.6093049,37.8418581 58.456278,39.5228272 57.4397422,40.3323177 C56.4341368,40.8792707 55.3410874,41.2402597 54.2881166,41.6887612 C57.1701233,37.1235265 60.066704,32.5692308 62.9195628,27.9857642 L62.9195628,27.9857642 Z M49.4313341,53.0909091 C93.0075673,32.7588412 142.118274,24.0951049 189.971973,29.313037 C222.39546,32.8281219 254.225056,42.1883117 283.27102,57.0581419 C288.262612,59.6434066 293.174047,62.3964036 297.877803,65.4812188 C298.285874,65.7656344 298.755886,66.0391109 298.942068,66.5386613 C310.579036,95.2536963 317.355577,126.251349 316.164518,157.333232 C315.330157,181.643107 309.485987,205.71998 299.378924,227.824176 C291.119114,245.972078 280.108464,262.8 267.276065,278.030819 C256.014013,291.387413 243.37472,303.548002 229.86463,314.607393 C216.037556,325.885564 201.295964,336.037013 185.840247,344.945055 C178.203475,349.30974 170.428251,353.466583 162.336043,356.923327 C152.757287,352.843057 143.623038,347.796503 134.660034,342.52023 C113.935818,330.12992 94.4649664,315.580969 77.0016816,298.884316 C57.2211323,279.977972 40.0711883,258.067033 27.9529148,233.4505 C21.4346973,220.309041 16.3993834,206.416434 13.0947309,192.119081 C7.93553812,170.018896 7.09024664,146.984515 10.0669843,124.504745 C12.6830157,104.599301 18.1919843,85.1314186 25.7121637,66.5386613 C25.941704,65.9515984 26.5538117,65.6744755 27.0311099,65.3207792 C34.154148,60.6498002 41.7508408,56.7482018 49.4313341,53.0909091 L49.4313341,53.0909091 Z" id="Fill-6" fill="#FDFEFE" sketch:type="MSShapeGroup"></path>
                <path d="M64.0964126,29.7797702 L64.4389013,29.7104895 C64.8761211,30.8627373 65.1748879,32.0587413 65.5428812,33.2328671 C63.9761771,33.8272228 62.4131166,34.4252248 60.8500561,35.0378122 C61.9540359,33.2948551 62.9159193,31.468032 64.0964126,29.7797702" id="Fill-7" fill="#9CA0A6" sketch:type="MSShapeGroup"></path>
                <path d="M43.3175448,36.077023 C44.665639,34.4543956 46.8735987,34.0861139 48.713565,33.2656843 C45.7186099,36.5474026 42.6690022,39.7817183 39.6922646,43.088961 C41.444787,44.0078422 43.2373879,44.8428571 44.9826233,45.7763237 C43.7620516,46.3852647 42.5269058,46.9613886 41.2990471,47.5557443 C39.754204,46.7973027 38.216648,46.0206294 36.6790919,45.2403097 C36.1070628,47.0780719 35.5605381,48.9231269 35.0249439,50.7718282 C33.8772422,51.4245255 32.7186099,52.0516983 31.5563341,52.6752248 C32.9772982,48.1756244 34.4274103,43.6833167 35.9030269,39.1983017 C36.8977018,38.6841658 37.8996637,38.1846154 38.9089126,37.7032967 C38.4607623,39.2457043 37.9943946,40.7808192 37.5316704,42.3159341 C39.4517937,40.2265734 41.4119955,38.1773227 43.3175448,36.077023 L43.3175448,36.077023 Z M275.834641,33.210989 C277.299327,33.9001499 278.909753,34.3559441 280.250561,35.2784715 C281.981222,37.3641858 283.40583,39.6942058 285.121917,41.7981518 C285.98907,40.7735265 286.845291,39.7343157 287.686939,38.6841658 C288.696188,39.1946553 289.694507,39.7233766 290.681895,40.273976 C289.457679,41.9367133 288.149664,43.5411089 286.881726,45.171029 C287.355381,46.8629371 287.836323,48.5548452 288.313621,50.2467532 C287.257007,49.6852148 286.203672,49.12003 285.147422,48.5657842 C284.611827,47.027023 284.506166,45.3314685 283.726457,43.8875125 C281.095852,40.3286713 278.446665,36.7807692 275.834641,33.210989 L275.834641,33.210989 Z" id="Fill-8" fill="#FDFEFE" sketch:type="MSShapeGroup"></path>
                <path d="M74.5313901,50.8739261 C100.67713,41.459041 128.309417,36.077023 156.102018,35.3696304 C189.673206,34.52003 223.331839,40.6276723 254.695067,52.5658342 C263.013173,55.7381618 271.181895,59.3152348 279.110146,63.3626873 C283.715527,65.7546953 288.357343,68.1430569 292.649383,71.0637862 C302.934978,96.6575425 309.107063,124.151049 308.910314,151.815934 C308.844731,176.166284 303.528868,200.447353 293.636771,222.682817 C285.380605,241.374026 274.038397,258.610704 260.805213,274.136513 C249.237108,287.693656 236.222534,299.978222 222.300729,311.085015 C208.382567,322.151698 193.564462,332.080719 178.039518,340.740809 C172.887612,343.588611 167.681054,346.348901 162.317825,348.773726 C153.34389,344.642408 144.705157,339.810989 136.244955,334.717033 C111.574832,319.657592 88.6390135,301.542507 69.142657,280.145704 C50.6045404,259.802697 35.3018498,236.229021 26.0255045,210.21958 C19.4599215,191.885714 15.9184417,172.450649 15.7581278,152.971828 C15.3281951,126.112787 21.1067825,99.4251249 30.6345291,74.4074925 C31.0899664,73.2917083 31.4215247,72.1212288 31.9899103,71.0564935 C33.1740471,70.1303197 34.5294283,69.4520979 35.8046525,68.6608392 C48.1087444,61.5176324 61.1633969,55.7126374 74.5313901,50.8739261" id="Fill-9" fill="#022B5D" sketch:type="MSShapeGroup"></path>
                <path d="M143.207679,47.150999 C151.398262,46.4472527 159.632567,46.1810689 167.848655,46.4217283 C168.690303,46.4107892 169.531951,46.8447053 169.932735,47.5995005 C170.24972,48.9048951 170.122197,50.264985 170.151345,51.5959041 C170.205998,53.8493506 170.326233,56.1100899 170.216928,58.3671828 C169.907231,59.3516983 168.752242,59.6652847 167.826794,59.6215285 C166.172646,59.5850649 164.522141,59.4683816 162.867993,59.544955 C166.5625,61.9442557 170.147702,64.5112887 173.827635,66.9361139 C171.313621,66.8850649 168.806895,66.7282717 166.292881,66.7173327 C165.768217,66.7319181 165.349215,66.3709291 164.930213,66.112038 C160.015135,62.8266733 155.023543,59.6543457 150.159473,56.2924076 C154.753924,56.0481019 159.355661,56.0335165 163.957399,56.0626873 L163.957399,49.955045 C159.042321,49.9112887 154.127242,49.9769231 149.219451,50.2394605 C148.98991,55.7855644 148.949832,61.338961 148.767657,66.8850649 C146.657707,67.0564436 144.544843,67.1585415 142.435258,67.3226274 C142.661155,60.5987512 142.912556,53.8712288 143.207679,47.150999 L143.207679,47.150999 Z M175.4162,46.7170829 C184.911155,47.202048 194.376962,48.3287712 203.729821,50.027972 C203.817265,51.2276224 203.92657,52.4272727 204.050448,53.6269231 C200.341368,52.9997502 196.632287,52.3616384 192.897702,51.9058442 C193.313061,57.5321678 193.826794,63.1511988 194.223935,68.7775225 C192.128924,68.5186314 190.033913,68.267033 187.935258,68.0446054 C187.600056,62.4182817 187.140975,56.7992507 186.772982,51.1729271 C183.038397,50.7900599 179.292881,50.5202298 175.547365,50.2686314 C175.514574,49.0835664 175.442068,47.9021479 175.4162,46.7170829 L175.4162,46.7170829 Z M130.306054,48.3688811 C131.705157,48.3324176 133.556054,47.4244755 134.594451,48.7955045 C134.820348,49.4518482 134.685538,50.1592408 134.667321,50.8374625 C134.251962,55.9605894 133.876682,61.091009 133.454036,66.2141359 C133.421244,67.5450549 132.127803,68.3691309 130.918161,68.4785215 C122.352298,69.5286713 113.844731,71.0382617 105.424608,72.9307193 C104.575673,73.2515984 103.347814,72.7119381 103.599215,71.6617882 C104.353419,66.0464036 105.129484,60.431019 105.898262,54.8156344 C105.98935,53.4263736 107.253643,52.4746753 108.528868,52.2011988 C115.713845,50.5421079 122.997197,49.3351648 130.306054,48.3688811 L130.306054,48.3688811 Z M209.326233,50.8447552 C211.344731,51.2713786 213.363229,51.6797702 215.374439,52.1392108 C216.237948,59.0162338 217.086883,65.8969031 218.005045,72.7666334 C215.880886,72.3035465 213.76037,71.8222278 211.621637,71.4466533 L209.326233,50.8447552 L209.326233,50.8447552 Z" id="Fill-10" fill="#FDFEFE" sketch:type="MSShapeGroup"></path>
                <path d="M111.829877,54.9833666 C117.313341,53.8566434 122.83324,52.9195305 128.378643,52.1465035 C127.93778,56.6132867 127.544283,61.0873626 127.121637,65.5541459 C121.441424,66.3381119 115.794002,67.3335664 110.179372,68.4931069 C110.700392,63.9862138 111.297926,59.4902597 111.829877,54.9833666" id="Fill-11" fill="#022B5D" sketch:type="MSShapeGroup"></path>
                <path d="M223.211603,54.028022 C224.880325,54.4692308 226.552691,54.8995005 228.217769,55.348002 C228.724215,55.5011489 229.285314,55.6141858 229.653307,56.0371628 C235.741228,62.2943057 241.523823,68.8504496 247.572029,75.1477023 C246.679372,70.3126374 245.710202,65.4921578 244.806614,60.6607393 C246.748599,61.3535465 248.672365,62.0937562 250.596132,62.833966 L254.808016,83.9208292 C253.259529,83.3374126 251.725617,82.7248252 250.1662,82.1705794 C249.59417,81.9408591 248.949271,81.7913586 248.530269,81.3063936 C242.441984,74.8851648 236.532231,68.2925574 230.352859,61.9515485 C231.074271,66.8157842 231.93778,71.6544955 232.67741,76.5150849 C230.586043,75.9426074 228.498318,75.3664835 226.399664,74.8231768 C225.332119,67.8914585 224.275504,60.9597403 223.211603,54.028022 L223.211603,54.028022 Z M73.9775785,62.6954046 C81.5123318,59.6288212 89.2584081,57.1091908 97.0846413,54.9067932 C97.8570628,54.5458042 99.1505045,54.8812687 98.9173206,55.946004 C98.5019619,59.4939061 97.9007848,63.0199301 97.4052691,66.5605395 C97.2704596,67.9461538 96.0243834,68.8796204 94.7673767,69.2223776 C90.7923206,70.370979 86.8354821,71.5925075 82.9150785,72.9307193 C81.5269058,72.2853147 80.1605942,71.6034466 78.7724215,70.9616883 C82.9988789,69.4265734 87.2544843,67.9570929 91.5720291,66.6991009 C91.9873879,64.328971 92.3772422,61.9551948 92.7379484,59.5777722 C88.2382287,60.9852647 83.7348655,62.3964036 79.3189462,64.0627872 C78.805213,64.1904096 78.88537,64.8467532 78.73963,65.2442058 C77.6720852,70.7684316 76.5535314,76.2853646 75.4932735,81.8095904 C73.4529148,82.5899101 71.419843,83.3775225 69.3940583,84.1943057 C70.9097534,77.0255744 72.4400224,69.8604895 73.9775785,62.6954046 L73.9775785,62.6954046 Z M44.2429933,76.3582917 C50.6555493,72.762987 57.2903587,69.5687812 64.0198991,66.6152348 C64.5591368,66.3308192 65.5720291,66.0938062 65.6667601,66.9689311 C65.4627242,68.7811688 64.8651906,70.5241259 64.5445628,72.3181319 C62.6025785,73.1604396 60.6605942,74.0063936 58.7477578,74.9143357 C58.9772982,73.9079421 59.2104821,72.9051948 59.4436659,71.8988012 C54.9876682,73.9371129 50.5498879,76.0447053 46.290639,78.4695305 C45.7514013,79.5743756 45.5473655,80.8141359 45.1684417,81.980969 C50.9142377,80.4312687 56.7401906,79.1915085 62.598935,78.1595904 C63.3057735,79.1878621 62.584361,80.3948052 62.4349776,81.5032967 C61.7827915,83.8697802 61.8993834,86.9764735 59.3671525,88.2417582 C51.9672085,91.6036963 44.738509,95.3339161 37.6774103,99.3594905 C37.0434417,99.6621379 36.3948991,100.22003 35.6516256,99.9574925 C35.3674327,99.5308691 35.6589126,99.0167333 35.728139,98.5718781 C36.2017937,96.931019 36.6863789,95.2901598 37.1381726,93.6456543 C39.043722,92.5152847 40.9456278,91.3849151 42.8839686,90.3092408 C42.5596973,91.4469031 42.228139,92.5809191 41.9220852,93.7222278 C46.5602578,91.2682318 51.158352,88.734016 55.9240471,86.5316184 C56.2228139,85.2809191 56.5142937,84.0338661 56.7984865,82.7795205 C51.0927691,83.8624875 45.4526345,85.2882118 39.8744395,86.8926074 C39.051009,87.2134865 39.2550448,86.1378122 39.4153587,85.7075425 C39.9946749,83.7385115 40.573991,81.7694805 41.1788117,79.8077423 C41.6378924,78.2726274 42.8621076,77.0985015 44.2429933,76.3582917 L44.2429933,76.3582917 Z M259.019899,67.5778721 C258.746637,66.6881618 259.803251,66.2797702 260.477298,66.6772228 C267.501962,69.7036963 274.337164,73.1531469 281.063061,76.7995005 C282.243554,77.4084416 283.27102,78.4111888 283.690022,79.701998 C284.192825,81.2553447 284.560818,82.8488012 285.034473,84.4130869 C283.223655,83.3884615 281.409193,82.3674825 279.602018,81.3465035 C279.405269,80.547952 279.19759,79.753047 279.004484,78.9544955 C274.512052,76.5406094 269.935818,74.2944555 265.31222,72.154046 C266.474496,77.0547453 267.67685,81.9445055 268.901065,86.8342657 C273.692265,89.0877123 278.417881,91.4797203 283.056054,94.0394605 C282.600617,92.26004 282.101457,90.4952048 281.57315,88.7376623 C279.762332,87.6984515 277.856783,86.826973 276.067825,85.7549451 C274.872758,84.4130869 273.972814,82.8342158 272.901626,81.3939061 C277.383128,83.6218282 281.795404,85.9956044 286.149383,88.4714785 C287.027466,91.7459041 287.898262,95.0203297 288.790919,98.2911089 C288.933016,98.7614885 288.95852,99.2428072 288.87472,99.7314186 C288.047646,100.041359 287.275224,99.3412587 286.550168,99.0313187 C279.846132,95.2536963 272.956278,91.8078921 265.913397,88.7011988 C264.586799,88.1323676 263.315583,87.0895105 263.09333,85.5835664 C261.716087,79.5853147 260.37528,73.5797702 259.019899,67.5778721 L259.019899,67.5778721 Z" id="Fill-12" fill="#FDFEFE" sketch:type="MSShapeGroup"></path>
                <path d="M28.6561099,117.682418 C48.9394619,105.394206 70.9899103,96.0668332 93.8820067,89.9154346 C100.826513,97.6858142 107.628924,105.58017 114.336603,113.551099 C82.2446749,119.932218 51.3150224,132.453796 24.1527466,150.754845 C24.1673206,139.586064 26.0910874,128.519381 28.6561099,117.682418" id="Fill-13" fill="#98B3D5" sketch:type="MSShapeGroup"></path>
                <path d="M186.565303,103.552797 C192.267377,99.3120879 199.270179,96.817982 206.38593,96.632018 C211.822029,96.3548951 217.258128,97.8571928 221.943666,100.591958 C225.004204,102.382318 227.867993,104.730569 229.631446,107.862787 C231.391256,110.962188 231.766536,114.798152 230.731418,118.196553 C229.886491,120.98966 227.4162,123.057143 224.647141,123.797353 C220.857904,124.862088 216.846413,124.541209 212.991592,124.085415 C212.397702,124.118232 212.543442,123.239461 212.980661,123.104545 C215.392657,121.328771 216.911996,118.451798 216.963004,115.450849 C217.575112,109.671379 212.248318,103.986713 206.407791,104.457093 C202.338004,104.416983 198.195348,106.243806 195.786996,109.58022 C194.038117,112.114436 194.096413,115.443556 194.828756,118.320529 C196.034753,122.82013 198.403027,126.889461 200.851457,130.812937 C204.097814,135.863137 207.693946,140.687263 211.563341,145.278022 C216.288957,150.973626 221.061939,156.625475 225.809417,162.302847 C230.89574,168.585514 235.625,175.232817 239.195628,182.510939 C247.065583,198.467383 247.776065,217.873277 240.682175,234.230819 C236.463004,232.783217 232.320348,230.945455 228.651345,228.393007 C230.917601,221.47952 231.227298,213.968032 229.726177,206.861289 C228.031951,198.653347 224.308296,191.003297 219.841368,183.969481 C217.024944,179.378721 213.348655,175.422428 210.054568,171.185365 C204.899383,164.793307 199.754765,158.39031 194.595572,151.998252 C189.961043,146.375574 185.716368,140.366384 182.531951,133.788362 C179.955998,128.32977 178.065022,122.207542 179.088845,116.125425 C179.813901,111.162737 182.568386,106.568332 186.565303,103.552797" id="Fill-14" fill="#FDFEFE" sketch:type="MSShapeGroup"></path>
                <path d="M25.5372758,171.517183 C55.8402466,149.897952 91.3534193,135.877722 128.075869,130.12013 C134.754765,138.247852 141.349496,146.448501 147.896861,154.681968 C116.748599,157.522478 86.05213,166.102348 58.2558857,180.509091 C48.757287,185.40979 39.6193946,191.006943 30.9150785,197.209391 C28.5905269,188.768082 26.819787,180.173626 25.5372758,171.517183" id="Fill-15" fill="#98B3D5" sketch:type="MSShapeGroup"></path>
                <path d="M223.386491,155.123177 C231.748318,152.756693 240.649383,152.093057 249.237108,153.566184 C254.640415,154.53976 259.978139,156.505145 264.342685,159.907193 C267.793442,162.616434 270.511491,166.470629 271.287556,170.846254 C271.863229,174.168082 270.900981,177.985814 268.095852,180.060589 C265.024383,182.303097 261.034753,182.529171 257.373038,182.452597 C255.948795,182.335914 254.45824,182.503646 253.088285,182.051499 L252.847814,181.745205 C253.620235,180.87008 254.593049,180.188212 255.27074,179.229221 C257.445908,176.261089 257.722814,172.086014 256.15611,168.786064 C254.582483,165.249101 251.164518,162.76958 247.429933,161.949151 C242.613229,160.902647 237.588845,160.775025 232.724776,161.562637 C231.57343,161.715784 230.487668,162.237213 229.325392,162.259091 C227.995516,161.234466 227.073711,159.797802 225.969731,158.550749 C225.088004,157.424026 224.045964,156.41034 223.386491,155.123177" id="Fill-16" fill="#FDFEFE" sketch:type="MSShapeGroup"></path>
                <path d="M198.854821,170.430569 C202.163117,173.931069 205.034193,177.818082 208.178531,181.464436 C208.630325,182.077023 209.486547,182.682318 209.11491,183.546503 C207.591928,189.821878 207.657511,196.469181 209.224215,202.72997 C210.743554,208.425574 212.987948,213.975325 216.347253,218.843207 C220.522702,225.034715 226.097253,230.354745 232.732063,233.826074 C237.749159,236.513437 243.360146,237.935514 248.996637,238.493407 C256.793722,239.222677 265.013453,237.891758 271.626401,233.512488 C271.998038,233.268182 272.77046,232.7504 272.912556,233.552597 C270.690022,238.416833 265.756726,241.363087 260.96917,243.266484 C255.092209,245.570979 248.727018,246.132517 242.474776,246.318482 C229.518498,246.241908 216.820908,241.005744 207.161996,232.444106 C197.827354,224.429421 192.485987,212.516783 190.92657,200.454645 C189.920964,189.942208 192.507848,178.959391 198.854821,170.430569" id="Fill-17" fill="#FDFEFE" sketch:type="MSShapeGroup"></path>
                <path d="M37.338565,215.495854 C73.6569507,189.460889 117.907231,175.334915 162.401626,173.373177 C162.405269,181.963986 162.401626,190.558442 162.401626,199.149251 C121.907791,201.471978 81.6835762,213.752897 47.886491,236.436863 C43.9005045,229.709341 40.3699552,222.708342 37.338565,215.495854 L37.338565,215.495854 Z M58.6457399,252.852747 C89.6701233,233.195255 125.875561,222.347353 162.401626,219.754795 L162.405269,244.633866 C131.304372,247.160789 100.535034,255.726074 73.1650785,270.851149 C68.0459641,265.086264 63.1600336,259.106244 58.6457399,252.852747 L58.6457399,252.852747 Z" id="Fill-18" fill="#98B3D5" sketch:type="MSShapeGroup"></path>
                <path d="M212.543442,255.390609 C214.598374,253.246189 216.314462,250.814436 218.27102,248.59016 C221.8125,250.322178 225.576233,251.576523 229.449271,252.305794 C227.787836,254.708741 225.776626,256.841858 223.685258,258.869231 C213.119114,269.62962 199.255605,277.017133 184.503083,280.032667 C183.067545,280.280619 181.642937,280.729121 180.181895,280.725475 C179.438621,280.729121 180.061659,279.795654 180.44787,279.733666 C192.380325,273.465584 203.441984,265.377972 212.543442,255.390609" id="Fill-19" fill="#FDFEFE" sketch:type="MSShapeGroup"></path>
                <path d="M88.3293161,286.563287 C111.516536,275.358042 136.813341,268.801898 162.397982,266.268047 C162.408913,274.245904 162.397982,282.224126 162.405269,290.202348 C143.663117,292.222428 125.13593,296.456209 107.490471,303.121379 C100.855661,297.892507 94.5014013,292.324525 88.3293161,286.563287 L88.3293161,286.563287 Z M129.959922,319.398701 C140.588004,316.445155 151.452915,314.352148 162.401626,313.01029 C162.397982,321.367732 162.415835,329.725175 162.390695,338.082617 C151.157791,332.631319 140.398543,326.239261 129.959922,319.398701 L129.959922,319.398701 Z" id="Fill-20" fill="#98B3D5" sketch:type="MSShapeGroup"></path>
                <path d="M228.265135,334.742557 C230.841087,334.738911 233.420684,334.738911 236.00028,334.746204 L236.00028,336.186513 L233.008604,336.182867 C232.979821,338.800949 233.005325,341.415385 232.994395,344.033467 C232.44787,344.022527 231.904989,344.022527 231.365751,344.026174 L231.365751,336.193806 C230.330998,336.186513 229.299888,336.179221 228.268778,336.182867 L228.265135,334.742557 L228.265135,334.742557 Z M236.933016,334.746204 C237.730942,334.738911 238.528868,334.735265 239.330437,334.738911 C240.088285,337.141858 240.831558,339.548452 241.60398,341.947752 C242.365471,339.548452 243.072309,337.130919 243.84801,334.738911 C244.628083,334.738911 245.411435,334.738911 246.194787,334.746204 C246.209361,337.838312 246.19843,340.93042 246.202074,344.026174 C245.688341,344.022527 245.174608,344.026174 244.667797,344.033467 C244.649944,341.597702 244.70824,339.158292 244.613509,336.726174 C243.903027,339.172877 243.126962,341.597702 242.387332,344.037113 C241.866312,344.026174 241.352578,344.018881 240.838845,344.022527 C240.059137,341.499251 239.272141,338.97962 238.481502,336.45999 C238.445067,338.986913 238.466928,341.51019 238.463285,344.037113 C237.949552,344.022527 237.435818,344.018881 236.925729,344.022527 C236.929372,340.93042 236.914798,337.838312 236.933016,334.746204 L236.933016,334.746204 Z" id="Fill-21" fill="#9CA0A6" sketch:type="MSShapeGroup"></path>
            </g>
        </g>
    </g>
</svg>