<svg width="892pt" height="1000pt" viewBox="0 0 892 1000" xmlns="http://www.w3.org/2000/svg"><path fill="#fdfefe" d="M0 0h436.71c-67.62 1.07-135.2 10.11-200.42 28.15-61.7 16.93-121.27 41.65-176.77 73.49-2.53 1.29-3.19 4.24-4.22 6.64-21.85 55.58-37.2 113.67-46.11 172.71-11.27 75.56-11.87 153.27 3.62 228.29 6.61 32.38 16.75 63.96 29.28 94.52 27.07 67.31 65.41 130.15 113.54 184.48 24.55 27.78 51.49 53.43 80.16 76.92 25.86 21.18 53.18 40.51 80.82 59.27 38.18 25.58 77.5 49.54 118.45 70.42 3.65 1.86 7.32 3.7 11.18 5.11h-446.24v-1000z"/><path fill="#9ca0a6" d="M436.71 0h19.43c85.46 1.3 170.79 16.05 251.36 44.69 39 13.79 76.88 30.74 113.16 50.62 4.97 3.01 10.47 5.25 15.05 8.85 3.88 8.09 6.67 16.71 9.88 25.1 28.22 78.34 44.18 161.17 46.41 244.44v28.56c-1.57 62.72-11.95 125.58-34.53 184.28-19 50.79-43.98 99.41-74.94 143.95-30.21 43.6-66.12 83.14-105.97 118.12-37.8 33.26-79.18 62.17-121.3 89.65-24.72 15.97-49.97 31.15-75.82 45.22-10.87 5.7-21.53 11.91-32.92 16.52h-.28c-3.86-1.41-7.53-3.25-11.18-5.11-40.95-20.88-80.27-44.84-118.45-70.42-27.64-18.76-54.96-38.09-80.82-59.27-28.67-23.49-55.61-49.14-80.16-76.92-48.13-54.33-86.47-117.17-113.54-184.48-12.53-30.56-22.67-62.14-29.28-94.52-15.49-75.02-14.89-152.73-3.62-228.29 8.91-59.04 24.26-117.13 46.11-172.71 1.03-2.4 1.69-5.35 4.22-6.64 55.5-31.84 115.07-56.56 176.77-73.49 65.22-18.04 132.8-27.08 200.42-28.15z"/><path fill="#fdfefe" d="M456.14 0h435.86v373.7c-2.23-83.27-18.19-166.1-46.41-244.44-3.21-8.39-6-17.01-9.88-25.1-4.58-3.6-10.08-5.84-15.05-8.85-36.28-19.88-74.16-36.83-113.16-50.62-80.57-28.64-165.9-43.39-251.36-44.69zM468.17 32.01c.07-2.16-.59-6.03 2.74-5.75 9.72.21 19.44.81 29.13 1.59 4.9.1 3.3 6.23 3.78 9.42-2.79-.21-5.58-.43-8.37-.63-.15-1.36-.28-2.71-.39-4.07-6.11-.24-12.2-.78-18.31-.86l.06 3.08c7.66 2.32 15.28 4.81 22.9 7.26 1.48.55 3.09.97 4.3 2.04.75 3.91 1.33 8.11.12 11.98-10.08-.31-20.13-1.21-30.21-1.41-1.7-.21-3.96.09-4.96-1.66-.45-2.82-.4-5.69-.5-8.53 2.92.15 5.84.26 8.77.33 0 1.55.03 3.1.04 4.65 6.3.36 12.61.56 18.91 1.06l-.24-3.72c-8.53-2.96-17.2-5.46-25.79-8.19-2.87-.78-1.7-4.43-1.98-6.59zM400.43 27.28c2.94-.26 5.89-.46 8.85-.62 5.36 9.2 10.77 18.37 16.21 27.53-3.06.23-6.12.34-9.17.32-.85-1.59-1.7-3.18-2.55-4.76-6.46.33-12.93.67-19.38 1.2-1.04 1.76-2.1 3.49-3.16 5.24-2.96.21-5.92.44-8.88.64l18.08-29.55zM316.1 36.64c8.93-1.19 17.8-3.27 26.82-3.59 2.23 2.26.25 5.97.47 8.83-2.79.38-5.59.78-8.38 1.18.1-1.37.22-2.73.35-4.09-6.09.86-12.17 1.76-18.21 2.86l-.36 3.17c8.35 1.13 16.8 1.76 25.06 3.46 1.57 3.04.15 7.13-.09 10.51-.32 2.82-3.69 2.67-5.78 3.11-9.39 1.16-18.67 3.05-28.02 4.37l-1.58-.94c-.11-2.92.47-5.8.77-8.69 2.82-.59 5.66-1.09 8.51-1.54-.18 1.56-.35 3.13-.52 4.69 6.18-.99 12.36-1.98 18.56-2.91.1-1.25.21-2.5.35-3.75-8.6-1.36-17.29-2-25.89-3.31.3-3.57.35-7.2 1.3-10.67 1.29-2.33 4.39-2.12 6.64-2.69z"/><path fill="#9ca0a6" d="M397.58 45.48c2.39-4.05 4.72-8.13 7.09-12.2 2.07 3.82 4.18 7.62 6.31 11.41-4.47.18-8.94.45-13.4.79z"/><path fill="#fdfefe" d="M577.75 37.61c4.4-.21 8.69.97 13 1.72 7.14 1.44 14.38 2.58 21.41 4.52 3.86 2.26 2.5 7.72 3.45 11.46-2.85-.57-5.68-1.21-8.47-1.98-.21-1.7-.39-3.39-.58-5.09-6.71-1.58-13.5-2.79-20.26-4.11.7 5.94 1.44 11.87 2.09 17.8 6.79 1.4 13.6 2.7 20.38 4.18-.19-1.84-.36-3.68-.54-5.51 2.79.61 5.58 1.25 8.36 1.92.36 3.33 1.3 6.64 1.02 10l-1.61.72c-9.41-1.74-18.7-4.17-28.14-5.76-2.19-.52-4.65-.55-6.51-1.93-1.18-1.58-1.04-3.71-1.37-5.55-.67-7.47-2.02-14.88-2.23-22.39zM260.63 47.78c2.71-.71 5.45-1.36 8.2-1.93-1.55 10.01-2.96 20.03-4.65 30.01-2.73.66-5.46 1.34-8.18 2.02-5.7-4.95-11.3-10.04-16.97-15.03-1.41 6.93-2.65 13.89-4.02 20.82-2.89.85-5.76 1.71-8.65 2.55 1.99-10.34 4.12-20.66 6.15-30.99 2.7-.79 5.41-1.55 8.12-2.28 5.59 4.81 11.18 9.62 16.82 14.36 1.08-6.51 2.13-13.02 3.18-19.53zM651.72 53.42c2.74.76 5.47 1.56 8.21 2.37 2.06 10.24 4.24 20.45 6.22 30.7-2.87-.85-5.73-1.72-8.58-2.61-1.87-10.17-3.96-20.3-5.85-30.46zM694.36 66.36c12.02 3.79 23.87 8.09 35.62 12.62.6 2.24 1.19 4.47 1.79 6.7-4.92-1.91-9.84-3.87-14.79-5.71 2.25 8.75 4.3 17.55 6.45 26.33-2.91-1.2-5.8-2.45-8.67-3.74-1.95-8.53-3.9-17.06-5.87-25.58-4.4-1.63-8.85-3.14-13.29-4.66-.42-1.98-.84-3.97-1.24-5.96zM173.19 76.25c1.92-3.42 6.42-3.52 9.61-5.13 2.89 8.76 5.48 17.62 8.3 26.41-2.56.92-5.12 1.85-7.67 2.79-.48-1.57-.96-3.13-1.44-4.69-5.67 2.06-11.29 4.26-16.89 6.5-3.74 1.15-4.16 5.76-6.95 7.98-2.76 1.5-5.76 2.49-8.65 3.72 7.91-12.52 15.86-25.01 23.69-37.58zM136.17 145.1c119.6-55.76 254.39-79.52 385.73-65.21 88.99 9.64 176.35 35.31 256.07 76.09 13.7 7.09 27.18 14.64 40.09 23.1 1.12.78 2.41 1.53 2.92 2.9 31.94 78.75 50.54 163.76 47.27 249-2.29 66.67-18.33 132.7-46.07 193.32-22.67 49.77-52.89 95.92-88.11 137.69-30.91 36.63-65.6 69.98-102.68 100.31-37.95 30.93-78.41 58.77-120.83 83.2-20.96 11.97-42.3 23.37-64.51 32.85-26.29-11.19-51.36-25.03-75.96-39.5-56.88-33.98-110.32-73.88-158.25-119.67-54.29-51.85-101.36-111.94-134.62-179.45-17.89-36.04-31.71-74.14-40.78-113.35-14.16-60.61-16.48-123.78-8.31-185.43 7.18-54.59 22.3-107.98 42.94-158.97.63-1.61 2.31-2.37 3.62-3.34 19.55-12.81 40.4-23.51 61.48-33.54z"/><path fill="#9ca0a6" d="M176.42 81.17l.94-.19c1.2 3.16 2.02 6.44 3.03 9.66-4.3 1.63-8.59 3.27-12.88 4.95 3.03-4.78 5.67-9.79 8.91-14.42z"/><path fill="#fdfefe" d="M119.39 98.44c3.7-4.45 9.76-5.46 14.81-7.71-8.22 9-16.59 17.87-24.76 26.94 4.81 2.52 9.73 4.81 14.52 7.37-3.35 1.67-6.74 3.25-10.11 4.88-4.24-2.08-8.46-4.21-12.68-6.35-1.57 5.04-3.07 10.1-4.54 15.17-3.15 1.79-6.33 3.51-9.52 5.22 3.9-12.34 7.88-24.66 11.93-36.96 2.73-1.41 5.48-2.78 8.25-4.1-1.23 4.23-2.51 8.44-3.78 12.65 5.27-5.73 10.65-11.35 15.88-17.11zM757.56 90.58c4.02 1.89 8.44 3.14 12.12 5.67 4.75 5.72 8.66 12.11 13.37 17.88 2.38-2.81 4.73-5.66 7.04-8.54 2.77 1.4 5.51 2.85 8.22 4.36-3.36 4.56-6.95 8.96-10.43 13.43 1.3 4.64 2.62 9.28 3.93 13.92-2.9-1.54-5.79-3.09-8.69-4.61-1.47-4.22-1.76-8.87-3.9-12.83-7.22-9.76-14.49-19.49-21.66-29.28z"/><path fill="#022b5d" d="M205.06 139.02c71.76-25.82 147.6-40.58 223.88-42.52 92.14-2.33 184.52 14.42 270.6 47.16 22.83 8.7 45.25 18.51 67.01 29.61 12.64 6.56 25.38 13.11 37.16 21.12 28.23 70.19 45.17 145.59 44.63 221.46-.18 66.78-14.77 133.37-41.92 194.35-22.66 51.26-53.79 98.53-90.11 141.11-31.75 37.18-67.47 70.87-105.68 101.33-38.2 30.35-78.87 57.58-121.48 81.33-14.14 7.81-28.43 15.38-43.15 22.03-24.63-11.33-48.34-24.58-71.56-38.55-67.71-41.3-130.66-90.98-184.17-149.66-50.88-55.79-92.88-120.44-118.34-191.77-18.02-50.28-27.74-103.58-28.18-157-1.18-73.66 14.68-146.85 40.83-215.46 1.25-3.06 2.16-6.27 3.72-9.19 3.25-2.54 6.97-4.4 10.47-6.57 33.77-19.59 69.6-35.51 106.29-48.78z"/><path fill="#fdfefe" d="M393.55 128.81c22.48-1.93 45.08-2.66 67.63-2 2.31-.03 4.62 1.16 5.72 3.23.87 3.58.52 7.31.6 10.96.15 6.18.48 12.38.18 18.57-.85 2.7-4.02 3.56-6.56 3.44-4.54-.1-9.07-.42-13.61-.21 10.14 6.58 19.98 13.62 30.08 20.27-6.9-.14-13.78-.57-20.68-.6-1.44.04-2.59-.95-3.74-1.66-13.49-9.01-27.19-17.71-40.54-26.93 12.61-.67 25.24-.71 37.87-.63v-16.75c-13.49-.12-26.98.06-40.45.78-.63 15.21-.74 30.44-1.24 45.65-5.79.47-11.59.75-17.38 1.2.62-18.44 1.31-36.89 2.12-55.32zM481.95 127.62c26.06 1.33 52.04 4.42 77.71 9.08.24 3.29.54 6.58.88 9.87-10.18-1.72-20.36-3.47-30.61-4.72 1.14 15.43 2.55 30.84 3.64 46.27-5.75-.71-11.5-1.4-17.26-2.01-.92-15.43-2.18-30.84-3.19-46.27-10.25-1.05-20.53-1.79-30.81-2.48-.09-3.25-.29-6.49-.36-9.74zM358.14 132.15c3.84-.1 8.92-2.59 11.77 1.17.62 1.8.25 3.74.2 5.6-1.14 14.05-2.17 28.12-3.33 42.17-.09 3.65-3.64 5.91-6.96 6.21-23.51 2.88-46.86 7.02-69.97 12.21-2.33.88-5.7-.6-5.01-3.48 2.07-15.4 4.2-30.8 6.31-46.2.25-3.81 3.72-6.42 7.22-7.17 19.72-4.55 39.71-7.86 59.77-10.51zM575.02 138.94c5.54 1.17 11.08 2.29 16.6 3.55 2.37 18.86 4.7 37.73 7.22 56.57-5.83-1.27-11.65-2.59-17.52-3.62l-6.3-56.5z"/><path fill="#022b5d" d="M307.43 150.29c15.05-3.09 30.2-5.66 45.42-7.78-1.21 12.25-2.29 24.52-3.45 36.77-15.59 2.15-31.09 4.88-46.5 8.06 1.43-12.36 3.07-24.69 4.53-37.05z"/><path fill="#fdfefe" d="M613.13 147.67c4.58 1.21 9.17 2.39 13.74 3.62 1.39.42 2.93.73 3.94 1.89 16.71 17.16 32.58 35.14 49.18 52.41-2.45-13.26-5.11-26.48-7.59-39.73 5.33 1.9 10.61 3.93 15.89 5.96l11.56 57.83c-4.25-1.6-8.46-3.28-12.74-4.8-1.57-.63-3.34-1.04-4.49-2.37-16.71-17.61-32.93-35.69-49.89-53.08 1.98 13.34 4.35 26.61 6.38 39.94-5.74-1.57-11.47-3.15-17.23-4.64-2.93-19.01-5.83-38.02-8.75-57.03zM203.54 171.44c20.68-8.41 41.94-15.32 63.42-21.36 2.12-.99 5.67-.07 5.03 2.85-1.14 9.73-2.79 19.4-4.15 29.11-.37 3.8-3.79 6.36-7.24 7.3-10.91 3.15-21.77 6.5-32.53 10.17-3.81-1.77-7.56-3.64-11.37-5.4 11.6-4.21 23.28-8.24 35.13-11.69 1.14-6.5 2.21-13.01 3.2-19.53-12.35 3.86-24.71 7.73-36.83 12.3-1.41.35-1.19 2.15-1.59 3.24-2.93 15.15-6 30.28-8.91 45.43-5.6 2.14-11.18 4.3-16.74 6.54 4.16-19.66 8.36-39.31 12.58-58.96zM121.93 208.91c17.6-9.86 35.81-18.62 54.28-26.72 1.48-.78 4.26-1.43 4.52.97-.56 4.97-2.2 9.75-3.08 14.67-5.33 2.31-10.66 4.63-15.91 7.12.63-2.76 1.27-5.51 1.91-8.27-12.23 5.59-24.41 11.37-36.1 18.02-1.48 3.03-2.04 6.43-3.08 9.63 15.77-4.25 31.76-7.65 47.84-10.48 1.94 2.82-.04 6.13-.45 9.17-1.79 6.49-1.47 15.01-8.42 18.48-20.31 9.22-40.15 19.45-59.53 30.49-1.74.83-3.52 2.36-5.56 1.64-.78-1.17.02-2.58.21-3.8 1.3-4.5 2.63-9 3.87-13.51 5.23-3.1 10.45-6.2 15.77-9.15-.89 3.12-1.8 6.23-2.64 9.36 12.73-6.73 25.35-13.68 38.43-19.72.82-3.43 1.62-6.85 2.4-10.29-15.66 2.97-31.14 6.88-46.45 11.28-2.26.88-1.7-2.07-1.26-3.25 1.59-5.4 3.18-10.8 4.84-16.18 1.26-4.21 4.62-7.43 8.41-9.46zM711.41 184.83c-.75-2.44 2.15-3.56 4-2.47 19.28 8.3 38.04 17.76 56.5 27.76 3.24 1.67 6.06 4.42 7.21 7.96 1.38 4.26 2.39 8.63 3.69 12.92-4.97-2.81-9.95-5.61-14.91-8.41-.54-2.19-1.11-4.37-1.64-6.56-12.33-6.62-24.89-12.78-37.58-18.65 3.19 13.44 6.49 26.85 9.85 40.26 13.15 6.18 26.12 12.74 38.85 19.76-1.25-4.88-2.62-9.72-4.07-14.54-4.97-2.85-10.2-5.24-15.11-8.18-3.28-3.68-5.75-8.01-8.69-11.96 12.3 6.11 24.41 12.62 36.36 19.41 2.41 8.98 4.8 17.96 7.25 26.93.39 1.29.46 2.61.23 3.95-2.27.85-4.39-1.07-6.38-1.92-18.4-10.36-37.31-19.81-56.64-28.33-3.64-1.56-7.13-4.42-7.74-8.55-3.78-16.45-7.46-32.92-11.18-49.38z"/><path fill="#98b3d5" d="M79.15 322.24c55.67-33.7 116.19-59.28 179.02-76.15 19.06 21.31 37.73 42.96 56.14 64.82-88.08 17.5-172.97 51.84-247.52 102.03.04-30.63 5.32-60.98 12.36-90.7z"/><path fill="#fdfefe" d="M512.55 283.49c15.65-11.63 34.87-18.47 54.4-18.98 14.92-.76 29.84 3.36 42.7 10.86 8.4 4.91 16.26 11.35 21.1 19.94 4.83 8.5 5.86 19.02 3.02 28.34-2.32 7.66-9.1 13.33-16.7 15.36-10.4 2.92-21.41 2.04-31.99.79-1.63.09-1.23-2.32-.03-2.69 6.62-4.87 10.79-12.76 10.93-20.99 1.68-15.85-12.94-31.44-28.97-30.15-11.17-.11-22.54 4.9-29.15 14.05-4.8 6.95-4.64 16.08-2.63 23.97 3.31 12.34 9.81 23.5 16.53 34.26 8.91 13.85 18.78 27.08 29.4 39.67 12.97 15.62 26.07 31.12 39.1 46.69 13.96 17.23 26.94 35.46 36.74 55.42 21.6 43.76 23.55 96.98 4.08 141.84-11.58-3.97-22.95-9.01-33.02-16.01 6.22-18.96 7.07-39.56 2.95-59.05-4.65-22.51-14.87-43.49-27.13-62.78-7.73-12.59-17.82-23.44-26.86-35.06-14.15-17.53-28.27-35.09-42.43-52.62-12.72-15.42-24.37-31.9-33.11-49.94-7.07-14.97-12.26-31.76-9.45-48.44 1.99-13.61 9.55-26.21 20.52-34.48z"/><path fill="#98b3d5" d="M70.59 469.88c83.17-59.29 180.64-97.74 281.43-113.53 18.33 22.29 36.43 44.78 54.4 67.36-85.49 7.79-169.74 31.32-246.03 70.83-26.07 13.44-51.15 28.79-75.04 45.8-6.38-23.15-11.24-46.72-14.76-70.46z"/><path fill="#fdfefe" d="M857.47 586.54c22.58-58.7 32.96-121.56 34.53-184.28v597.74h-445.48c11.39-4.61 22.05-10.82 32.92-16.52 25.85-14.07 51.1-29.25 75.82-45.22 42.12-27.48 83.5-56.39 121.3-89.65 39.85-34.98 75.76-74.52 105.97-118.12 30.96-44.54 55.94-93.16 74.94-143.95zM613.61 424.92c22.95-6.49 47.38-8.31 70.95-4.27 14.83 2.67 29.48 8.06 41.46 17.39 9.47 7.43 16.93 18 19.06 30 1.58 9.11-1.06 19.58-8.76 25.27-8.43 6.15-19.38 6.77-29.43 6.56-3.91-.32-8 .14-11.76-1.1l-.66-.84c2.12-2.4 4.79-4.27 6.65-6.9 5.97-8.14 6.73-19.59 2.43-28.64-4.32-9.7-13.7-16.5-23.95-18.75-13.22-2.87-27.01-3.22-40.36-1.06-3.16.42-6.14 1.85-9.33 1.91-3.65-2.81-6.18-6.75-9.21-10.17-2.42-3.09-5.28-5.87-7.09-9.4zM546.28 466.9c9.08 9.6 16.96 20.26 25.59 30.26 1.24 1.68 3.59 3.34 2.57 5.71-4.18 17.21-4 35.44.3 52.61 4.17 15.62 10.33 30.84 19.55 44.19 11.46 16.98 26.76 31.57 44.97 41.09 13.77 7.37 29.17 11.27 44.64 12.8 21.4 2 43.96-1.65 62.11-13.66 1.02-.67 3.14-2.09 3.53.11-6.1 13.34-19.64 21.42-32.78 26.64-16.13 6.32-33.6 7.86-50.76 8.37-35.56-.21-70.41-14.57-96.92-38.05-25.62-21.98-40.28-54.65-44.56-87.73-2.76-28.83 4.34-58.95 21.76-82.34z"/><path fill="#98b3d5" d="M102.98 590.49c99.68-71.4 221.13-110.14 343.25-115.52.01 23.56 0 47.13 0 70.69-111.14 6.37-221.54 40.05-314.3 102.26-10.94-18.45-20.63-37.65-28.95-57.43zM161.46 692.94c85.15-53.91 184.52-83.66 284.77-90.77l.01 68.23c-85.36 6.93-169.81 30.42-244.93 71.9-14.05-15.81-27.46-32.21-39.85-49.36z"/><path fill="#fdfefe" d="M583.85 699.9c5.64-5.88 10.35-12.55 15.72-18.65 9.72 4.75 20.05 8.19 30.68 10.19-4.56 6.59-10.08 12.44-15.82 18-29 29.51-67.05 49.77-107.54 58.04-3.94.68-7.85 1.91-11.86 1.9-2.04.01-.33-2.55.73-2.72 32.75-17.19 63.11-39.37 88.09-66.76z"/><path fill="#98b3d5" d="M242.93 785.39c63.64-30.73 133.07-48.71 203.29-55.66.03 21.88 0 43.76.02 65.64-51.44 5.54-102.29 17.15-150.72 35.43-18.21-14.34-35.65-29.61-52.59-45.41zM357.19 875.44c29.17-8.1 58.99-13.84 89.04-17.52-.01 22.92.04 45.84-.03 68.76-30.83-14.95-60.36-32.48-89.01-51.24z"/><path fill="#9ca0a6" d="M627 917.52c7.07-.01 14.15-.01 21.23.01v3.95l-8.21-.01c-.08 7.18-.01 14.35-.04 21.53-1.5-.03-2.99-.03-4.47-.02v-21.48c-2.84-.02-5.67-.04-8.5-.03l-.01-3.95zM650.79 917.53c2.19-.02 4.38-.03 6.58-.02 2.08 6.59 4.12 13.19 6.24 19.77 2.09-6.58 4.03-13.21 6.16-19.77 2.14 0 4.29 0 6.44.02.04 8.48.01 16.96.02 25.45-1.41-.01-2.82 0-4.21.02-.05-6.68.11-13.37-.15-20.04-1.95 6.71-4.08 13.36-6.11 20.05-1.43-.03-2.84-.05-4.25-.04-2.14-6.92-4.3-13.83-6.47-20.74-.1 6.93-.04 13.85-.05 20.78-1.41-.04-2.82-.05-4.22-.04.01-8.48-.03-16.96.02-25.44z"/></svg>