<svg width="512" height="512" viewBox="0 0 512 512" xmlns="http://www.w3.org/2000/svg" xmlns:sketch="http://www.bohemiancoding.com/sketch/ns"><title>toronto-fc</title><desc>Created with Sketch.</desc><g sketch:type="MSLayerGroup" fill="none"><path d="M418.207 281.989v-11.791s-7.166-1.558-19.095-3.773l4.97-17.777s-12.035-3.892-34.726-8.041v-87.127s-22.31-3.945-54.433-6.813l5.812-18.621-20.601-14.906-4.388-13.515-7.188 5.271 2.754-8.487h-14.198l-20.631-15.02-20.601 15.02h-14.25l2.804 8.487-7.216-5.271-4.412 13.515-20.524 14.904 5.838 18.621c-32.125 2.869-54.435 6.813-54.435 6.813v87.127c-22.662 4.148-34.698 8.041-34.698 8.041l4.894 17.777c-11.935 2.215-19.063 3.773-19.063 3.773v11.791l-25.522 27.185 25.524 18.096v14.421s20.134-3.803 49.049-7.785c4.896 67.946 112.614 97.706 112.614 97.706s107.724-29.762 112.672-97.706c28.884 3.982 49.054 7.785 49.054 7.785v-14.421l25.496-18.096-25.498-27.183zm-221.487-48.311c-9.179.74-17.567 1.698-25.293 2.669l12.341-16.031c4.334-.407 8.618-.867 12.95-1.25v14.611h.002zm-18.894-18.033l-10.399 14.791v-40.761c19.453-2.566 52.774-6.05 89.054-6.05 36.308 0 69.632 3.483 89.035 6.05v40.761l-10.379-14.791c-15.806-1.927-37.172-3.805-60.707-4.479v20.177c-5.862-.09-11.828-.179-17.95-.179-6.144 0-12.084.09-17.819.179v-20.177c-23.61.674-44.901 2.551-60.836 4.479zm138.549 3.42c4.207.383 8.541.842 12.927 1.25l12.313 16.031c-7.7-.973-16.213-1.927-25.239-2.669v-14.611h-.002zm-52.446-41.577l15.502-11.322c47.069 1.737 84.392 8.014 84.392 8.014v65.469c-3.646-.611-7.597-1.263-11.7-1.875v-53.499c-16.013-2.193-50.103-6.354-88.194-6.787zm-114.709-19.363s23.356-3.905 56.271-6.431l-6.681-21.479 18.791-13.567 2.55-8.078 14.888 10.795-5.735-17.459h8.386l18.789-13.679 18.817 13.679h8.364l-5.638 17.459 14.815-10.795 2.599 8.078 18.791 13.567-6.681 21.479c33.019 2.527 56.272 6.431 56.272 6.431v10.734s-38.347-6.522-86.381-8.154l-20.961 15.2-20.799-15.2c-48.138 1.632-86.459 8.154-86.459 8.154v-10.734zm0 16.055s37.354-6.277 84.446-8.014l15.448 11.322c-38.118.433-72.127 4.595-88.19 6.789v53.499c-4.159.613-8.082 1.264-11.703 1.875v-65.471zm107.263 62.511c86.739 0 140.743 15.876 140.743 15.876l-6.86 25.007 6.86 30.808s-54.002-15.799-140.743-15.799c-86.711 0-140.66 15.799-140.66 15.799l6.832-30.808-6.832-25.007s53.95-15.876 140.66-15.876zm112.873 71.231c11.677 2.221 20.576 4.339 26.515 5.896l-26.515 10.592v-16.488zm-78.248 18.096h14.812v3.726h-14.812c-3.569 0-6.373-2.295-6.373-5.104v-5.895c0-2.809 2.804-5.104 6.373-5.104h14.812v4.748l-1.58-1.022h-13.233c-1.022 0-1.836.689-1.836 1.378v5.895c.002.792.815 1.378 1.838 1.378zm20.091 39.792v14.652c-6.375 4.415-13.078 8.423-19.683 11.97l-11.806-9.878c12.595-5.308 22.974-11.077 31.489-16.744zm-24.834 29.2c-12.519 6.279-23.815 10.517-29.884 12.508-5.914-1.991-17.259-6.229-29.826-12.508l12.009-9.927v-86.733c5.735-.103 11.675-.23 17.819-.23 6.121 0 12.09.127 17.95.23v86.733l11.933 9.927zm-118.938-79.969v-11.001c8.845-1.225 18.662-2.348 29.293-3.267v52.095s-26.618-18.786-29.293-37.827zm29.293 47.169v14.499c-15.22-11.791-27.56-26.471-29.091-43.979 4.284 6.739 12.979 17.893 29.091 29.48zm28.252-42.371v3.726h-12.289v4.875l1.403 1.302h-7.472l1.58-1.302v-13.451l-1.58-1.352h22.08v4.748l-1.659-1.022h-14.353v2.475h12.289v.002zm-23.175 45.97c8.539 5.667 18.968 11.436 31.511 16.744l-11.804 9.878c-6.552-3.547-13.31-7.555-19.705-11.97v-14.652h-.002zm114.578-3.599c16.037-11.587 24.731-22.741 29.065-29.48-1.554 17.508-13.871 32.187-29.065 43.979v-14.499zm0-9.342v-52.095c10.606.919 20.295 2.041 29.142 3.267v11.001c-2.576 19.041-29.142 37.827-29.142 37.827zm-172.687-28.459l-26.591-10.592c5.991-1.558 14.966-3.676 26.591-5.896v16.488zm-43.349 10.644v-10.644l-22.655-16.055 22.655-24.17v-9.419s5.616-1.175 15.047-2.986l1.584 5.895-8.694 38.619 31.487 12.532c-23.558 3.317-39.424 6.229-39.424 6.229zm263.483-5.949c0 65.903-107.34 96.687-107.34 96.687s-107.261-30.782-107.261-96.687v-22.155c3.621-.611 7.549-1.25 11.703-1.965v24.12c0 50.563 78.731 78.947 95.558 84.434 16.955-5.487 95.64-33.871 95.64-84.434v-24.12c4.103.715 8.006 1.354 11.7 1.965v22.155zm48.901-4.695v10.644s-15.858-2.912-39.44-6.229l31.382-12.532-8.539-38.619 1.582-5.895c9.407 1.812 15.015 2.986 15.015 2.986v9.419l22.668 24.17-22.668 16.055zm-188.341-199.695l-13.155 9.585 5.356 16.526 15.804-.855 5.127-15.67-13.132-9.585zm40.261 1.634l5.022-15.431-13.183-9.559-13.155 9.559 5.022 15.431h16.293zm31.793 24.477l5.379-16.526-13.207-9.585-13.002 9.585 4.996 15.67 15.834.855zm-26.771 2.514l-5.022-15.467h-16.293l-5.022 15.467 13.155 9.469 13.183-9.469z" fill="#fff" sketch:type="MSShapeGroup"/><path d="M247 277.392h15.604c3.875 0 7.062-3.162 7.062-7.041v-14.249c0-3.92-3.187-7.043-7.062-7.043h-15.604c-3.901 0-7.063 3.127-7.063 7.043v14.249c-.002 3.879 3.162 7.041 7.063 7.041zm-1.198-21.38c0-.753.688-1.365 1.403-1.365h15.168c.791 0 1.455.613 1.455 1.365v14.415c0 .766-.664 1.405-1.455 1.405h-15.168c-.715 0-1.403-.639-1.403-1.405v-14.415zm109.862 28.657l15.578 2.654c3.903.639 7.015-1.914 7.015-5.872v-14.038c0-3.937-3.112-7.6-7.015-8.302l-15.578-2.628c-3.875-.702-7.162 1.926-7.162 5.794v14.148c0 3.829 3.287 7.581 7.162 8.244zm-1.274-21.371c0-.882.715-1.377 1.427-1.313l15.198 2.628c.815.153 1.451.882 1.451 1.724v14.172c0 .867-.638 1.377-1.451 1.276l-15.198-2.604c-.713-.127-1.427-.945-1.427-1.737v-14.146zm-181.354 19.15l15.631-1.683c3.899-.51 7.062-3.982 7.062-7.966v-14.056c0-3.892-3.162-6.726-7.062-6.177l-15.631 1.672c-3.875.499-7.011 4.008-7.011 7.889v14.096c0 3.928 3.136 6.761 7.011 6.225zm-1.123-21.051c0-.818.56-1.545 1.325-1.634l15.146-1.673c.841-.09 1.506.383 1.506 1.289v14.236c0 .766-.664 1.481-1.506 1.584l-15.146 1.66c-.765.151-1.325-.433-1.325-1.251v-14.21zm-28.608 3.216v20.209l-2.291 2.68 10.427-1.838-2.297-1.965v-20.108l9.614-1.786 2.371 1.965v-7.9l-29.754 5.323v7.854l2.293-2.71 9.636-1.724zm182.58-6.279v20.209l-2.319 2.069 10.453 1.171-2.295-2.602v-20.185l9.612.971 2.293 2.564v-7.798l-29.677-3.164v7.809l2.295-2.079 9.638 1.033zm-51.222 19.316l10.455.306-2.397-2.501v-18.065l16.366 21.305 9.922.613-2.373-2.449v-23.502l2.373-2.247-10.457-.652 2.244 2.374v18.231l-16.341-21.357-9.791-.332 2.269 2.439v23.589l-2.269 2.247z" fill="#fff" sketch:type="MSShapeGroup"/><path d="M200.726 279.615l10.349-.792-2.291-2.168v-6.229l16.649-.919c.791 0 1.479.639 1.479 1.354v4.824l-2.397 2.475 10.53-.486-2.347-2.219v-4.494c0-2.221-1.427-4.008-3.312-4.651 1.886-.971 3.312-2.949 3.312-5.181v-4.582c0-3.956-3.159-6.881-7.062-6.675l-24.909 1.558 2.267 2.157v23.627m5.787-20.909l16.649-.932c.791-.09 1.479.586 1.479 1.378v5.691c0 .855-.688 1.532-1.479 1.584l-16.649.945v-8.666" fill="#fff" sketch:type="MSShapeGroup"/><path d="M196.72 219.065c-4.332.383-8.616.842-12.95 1.25l-12.341 16.031c7.726-.973 16.114-1.927 25.293-2.669m-29.295 81.366c2.675 19.041 29.293 37.827 29.293 37.827v-52.095c-10.631.919-20.448 2.041-29.293 3.267m34.369 76.42c6.397 4.415 13.155 8.423 19.705 11.97l11.804-9.878c-12.543-5.308-22.97-11.077-31.511-16.744m127.507-145.494c-4.386-.407-8.72-.867-12.927-1.25v14.611c9.026.74 17.539 1.696 25.239 2.669m-25.239 116.524s26.565-18.786 29.142-37.827v-11.001c-8.847-1.225-18.537-2.348-29.142-3.267m-24.858 91.659c6.604-3.547 13.308-7.555 19.683-11.97v-14.652c-8.513 5.667-18.894 11.436-31.489 16.744m-30.569-123.148c0-.753.737-1.405 1.556-1.405h11.269v-1.606h-12.853c-.815 0-1.504.764-1.504 1.558v12.066h1.53m22.412-13.918v14.249c0 4.85-4.078 8.909-8.948 8.909h-15.604l-1.071-.077c1.252.995 2.778 1.584 4.487 1.584h13.769c4.948 0 8.847-3.982 8.847-8.933v-12.31c0-1.683-.562-3.267-1.58-4.468l.101 1.046m86.254 11.111c0-.786.584-1.397 1.375-1.167l11.422 1.933v-1.552l-12.873-2.219c-.791-.118-1.506.409-1.506 1.251v11.938l1.582.256m22.282-10.997l.076 1.042v14.088c0 4.927-4.054 8.244-8.924 7.43l-15.578-2.732c-.382-.026-.765-.127-1.071-.256 1.201 1.278 2.78 2.12 4.388 2.426l13.769 2.322c4.92.945 8.974-2.501 8.974-7.402v-12.2c-.002-1.713-.614-3.369-1.634-4.718m-206.364-3.586v11.952l1.451-.204v-10.433c0-.768.688-1.558 1.53-1.673l11.397-1.199v-1.545l-12.929 1.431c-.763.153-1.45.88-1.45 1.672m23.813-4.455v14.034c0 4.899-3.953 9.34-8.871 9.927l-15.631 1.685c-.358.127-.664.127-1.019.127 1.22.842 2.776 1.276 4.409 1.123l13.718-1.606c4.972-.486 8.95-4.927 8.95-9.905v-12.282c0-1.634-.562-3.102-1.556-4.326v1.223m-62.823 13.216l2.347-2.783 4.382-.79v-1.429l-6.729 1.175m16.267-2.891v17.463l1.554 1.278v-17.516l6.912-1.225-1.506-1.264m4.998 1.494l1.502 1.173v-7.837l-1.502.319m-17.032 29.45l-1.556 1.836 10.453-1.888-1.453-1.199m166.235-26.092l4.41.446v-1.582l-6.655-.741v3.892m23.228-1.339l-7.088-.676v17.516l1.604 1.634v-17.542l7.013.766m3.416 1.199l1.479 1.66v-7.863l-1.479-.14m-18.612 26.055l10.504 1.147-1.578-1.683-7.371-.818m-27.127-2.398l1.174 1.608 9.866.637-1.554-1.558m-2.371-5.076l1.556 1.606v-20.922l2.369-2.234-3.925-.166m-21.519 25.39l-7.422-.204-1.528 1.455 10.53.331m-2.371-16.621l-1.506-2.056v11.991l1.506 1.608m-50.049-.357v-1.838c0-1.479-.586-2.781-1.582-3.623v4.032m-22.308-.997l12.823-.689v-1.505l-14.381.818v3.547l1.558 1.453m.791 3.347l-7.368.586-1.532 1.632 10.478-.792m18.028-15.958c.254.256.507.573.765.898 1.604-.938 2.728-2.775 2.728-4.74v-2.477c0-1.761-.586-3.216-1.582-4.391v5.73c0 1.787-.687 3.627-1.91 4.979m-20.397-6.559l12.823-.779v-1.442l-14.381.827v4.877l1.558-.116m17.235 16.802l-1.504 1.632 10.504-.458-1.556-1.405" fill="#B0B7BB" sketch:type="MSShapeGroup"/><path d="M412.724 284.185v-9.419s-5.608-1.175-15.015-2.986l-1.582 5.895 8.539 38.619-31.382 12.532c23.582 3.317 39.44 6.229 39.44 6.229v-10.644l22.668-16.055m-318.424-30.681l-1.582-5.895c-9.433 1.812-15.047 2.986-15.047 2.986v9.419l-22.655 24.17 22.655 16.055v10.644s15.866-2.912 39.424-6.229l-31.487-12.532m52.649-132.018c16.062-2.195 50.073-6.354 88.19-6.789l-15.448-11.322c-47.091 1.735-84.446 8.014-84.446 8.014v65.471c3.621-.613 7.547-1.264 11.703-1.877m202.897 1.877v-65.469s-37.325-6.277-84.392-8.014l-15.502 11.322c38.091.433 72.181 4.595 88.192 6.789v53.499c4.103.611 8.056 1.263 11.701 1.873m-11.703 89.457c0 50.563-78.683 78.947-95.638 84.434-16.826-5.487-95.558-33.871-95.558-84.434v-24.12c-4.159.715-8.082 1.354-11.703 1.965v22.155c0 65.903 107.261 96.687 107.261 96.687s107.34-30.782 107.34-96.687v-22.155c-3.696-.611-7.597-1.25-11.701-1.965" fill="#E31937" sketch:type="MSShapeGroup"/><path d="M256.483 175.904l20.961-15.2c48.034 1.632 86.379 8.154 86.379 8.154v-10.734s-23.252-3.905-56.271-6.431l6.681-21.479-18.791-13.567-2.601-8.078-14.813 10.795 5.636-17.459h-8.362l-18.817-13.679-18.793 13.679h-8.386l5.735 17.459-14.888-10.795-2.55 8.078-18.791 13.567 6.679 21.479c-32.916 2.527-56.271 6.431-56.271 6.431v10.734s38.321-6.522 86.459-8.154l20.804 15.2zm32.125-51.189l13.207 9.585-5.381 16.527-15.832-.855-4.998-15.672 13.004-9.585zm-32.125-23.356l13.183 9.559-5.022 15.431h-16.291l-5.022-15.431 13.153-9.559zm-8.132 36.514h16.291l5.022 15.467-13.183 9.469-13.153-9.469 5.022-15.467zm-31.767 12.953l-5.356-16.527 13.157-9.585 13.131 9.585-5.125 15.672-15.806.855zm139.233 128.356l15.198 2.604c.815.103 1.451-.409 1.451-1.276v-14.172c0-.842-.638-1.571-1.451-1.724l-15.198-2.628c-.713-.064-1.427.431-1.427 1.313v14.146c0 .792.715 1.61 1.427 1.737zm.407-13.726c0-.842.715-1.367 1.506-1.251l12.873 2.219v1.552l-11.422-1.933c-.791-.23-1.375.381-1.375 1.167v10.439l-1.582-.256v-11.937zm-240.401 42.926s53.95-15.799 140.66-15.799c86.739 0 140.743 15.799 140.743 15.799l-6.86-30.808 6.86-25.007s-54.002-15.876-140.743-15.876c-86.711 0-140.66 15.876-140.66 15.876l6.832 25.007-6.832 30.808zm18.892-36.551v-3.829l6.729-1.175v1.431l-4.384.79-2.345 2.783zm9.638 18.453l1.556-1.836 7.444-1.251 1.451 1.201-10.451 1.886zm8.183-23.946v17.516l-1.554-1.278v-17.465l6.961-1.264 1.506 1.264-6.912 1.227zm51.554 16.494l1.532-1.632 7.368-.586 1.578 1.429-10.478.79zm8.108-5.566l-1.558-1.453v-3.547l14.381-.818v1.505l-12.823.689v3.623zm65.78 3.907l1.528-1.455 7.422.204 1.58 1.582-10.53-.331zm8.159-4.748l-1.506-1.608v-11.991l1.506 2.056v11.543zm16.369 5.82l-1.174-1.606 9.485.687 1.554 1.558-9.866-.639zm14.838-19.126v-3.892l6.655.74v1.584l-4.41-.446-2.244 2.015zm9.562 21.27l1.554-1.354 7.371.818 1.578 1.683-10.504-1.147zm8.183-21.677v17.544l-1.604-1.634v-17.516l7.088.676 1.53 1.696-7.013-.766zm46.632 8.659v12.2c0 4.901-4.054 8.347-8.974 7.402l-13.769-2.322c-1.606-.306-3.187-1.149-4.388-2.426.306.127.688.23 1.071.256l15.578 2.732c4.869.816 8.924-2.503 8.924-7.43v-14.088l-.076-1.042c1.022 1.35 1.634 3.007 1.634 4.718zm-33.218-9.094c0-3.866 3.287-6.496 7.162-5.794l15.578 2.628c3.903.702 7.015 4.365 7.015 8.302v14.038c0 3.956-3.112 6.509-7.015 5.872l-15.578-2.654c-3.875-.663-7.162-4.415-7.162-8.244v-14.148zm-2.985-3.943l1.479.14v7.863l-1.479-1.66v-6.343zm-31.565-6.763l29.677 3.164v7.798l-2.293-2.564-9.612-.971v20.185l2.295 2.604-10.455-1.173 2.321-2.068v-20.209l-9.64-1.033-2.293 2.079v-7.811zm-3.95 5.359v20.924l-1.556-1.606v-21.716l3.924.166-2.368 2.232zm-35.34-7.555l9.791.332 16.343 21.359v-18.231l-2.244-2.374 10.457.652-2.373 2.247v23.502l2.373 2.45-9.92-.613-16.366-21.305v18.065l2.397 2.501-10.457-.306 2.271-2.245v-23.595l-2.272-2.439zm-1.631 10.147v12.31c0 4.951-3.899 8.933-8.847 8.933h-13.769c-1.709 0-3.235-.586-4.487-1.584l1.071.077h15.604c4.869 0 8.948-4.059 8.948-8.909v-14.249l-.101-1.048c1.019 1.201 1.58 2.785 1.58 4.469zm-33.097-3.422c0-3.918 3.162-7.043 7.063-7.043h15.604c3.875 0 7.062 3.125 7.062 7.043v14.249c0 3.879-3.187 7.043-7.062 7.043h-15.604c-3.901 0-7.063-3.164-7.063-7.043v-14.249zm-1.502 24.766l-10.504.458 1.504-1.632 7.444-.23 1.556 1.405zm-3.927-10.261c.994.842 1.582 2.144 1.582 3.623v1.838l-1.582-1.431v-4.031zm1.582-10.842v2.477c0 1.965-1.123 3.803-2.728 4.74-.257-.327-.511-.644-.765-.898 1.224-1.354 1.91-3.192 1.91-4.977v-5.73c.994 1.175 1.582 2.628 1.582 4.389zm-35.362-8.334l24.909-1.558c3.903-.204 7.062 2.719 7.062 6.675v4.58c0 2.234-1.427 4.214-3.312 5.183 1.886.644 3.312 2.43 3.312 4.651v4.49l2.347 2.221-10.53.486 2.397-2.475v-4.824c0-.715-.688-1.354-1.479-1.354l-16.649.919v6.229l2.291 2.168-10.349.792 2.267-2.4v-23.629l-2.265-2.153zm-1.632 10.287v12.282c0 4.977-3.978 9.419-8.95 9.905l-13.718 1.606c-1.632.153-3.188-.278-4.409-1.123.353 0 .659 0 1.019-.127l15.631-1.685c4.918-.586 8.871-5.028 8.871-9.927v-15.257c.994 1.223 1.556 2.691 1.556 4.326zm-33.069.409c0-3.881 3.136-7.391 7.011-7.889l15.631-1.672c3.899-.549 7.062 2.284 7.062 6.177v14.056c0 3.984-3.162 7.454-7.062 7.966l-15.631 1.683c-3.875.536-7.011-2.295-7.011-6.227v-14.094zm-3.084-3.128l1.502-.319v7.835l-1.502-1.173v-6.343zm-31.565 2.196l29.754-5.323v7.899l-2.373-1.965-9.612 1.786v20.106l2.295 1.967-10.427 1.838 2.291-2.68v-20.209l-9.636 1.724-2.293 2.71v-7.852h.002zm95.535 1.25v-5.691c0-.792-.688-1.468-1.479-1.378l-16.649.932v8.666l16.649-.945c.791-.052 1.479-.728 1.479-1.584zm-1.89-3.7l-12.825.779v3.369l-1.556.114v-4.875l14.381-.827v1.44zm-51.784 18.117l15.146-1.66c.841-.103 1.506-.818 1.506-1.584v-14.236c0-.906-.664-1.378-1.506-1.289l-15.146 1.673c-.765.09-1.325.818-1.325 1.634v14.208c0 .818.56 1.405 1.325 1.253zm.487-13.791c0-.792.687-1.518 1.451-1.672l12.929-1.431v1.545l-11.397 1.199c-.841.116-1.53.906-1.53 1.673v10.433l-1.451.204v-11.952h-.002zm73.481 8.761h15.168c.791 0 1.455-.639 1.455-1.405v-14.415c0-.753-.664-1.365-1.455-1.365h-15.168c-.715 0-1.403.613-1.403 1.365v14.415c0 .768.688 1.405 1.403 1.405zm.407-13.877c0-.794.688-1.558 1.504-1.558h12.853v1.606h-11.269c-.819 0-1.556.652-1.556 1.405v10.612h-1.53v-12.066h-.002zm-20.576 59.412l1.659 1.022v-4.748h-22.08l1.58 1.352v13.451l-1.58 1.302h7.472l-1.403-1.302v-4.875h12.289v-3.728h-12.289v-2.475h14.353zm64.073 0h13.233l1.58 1.022v-4.748h-14.812c-3.569 0-6.373 2.295-6.373 5.104v5.895c0 2.809 2.804 5.104 6.373 5.104h14.812v-3.726h-14.812c-1.021 0-1.836-.586-1.836-1.378v-5.895c-.002-.689.812-1.378 1.834-1.378z" fill="#E31937" sketch:type="MSShapeGroup"/><path d="M369.356 307.922v16.488l26.515-10.592c-5.938-1.558-14.84-3.676-26.515-5.896m-225.668 16.488v-16.488c-11.623 2.221-20.601 4.339-26.591 5.896m50.534 18.913c1.53 17.51 13.871 32.187 29.091 43.979v-14.499c-16.114-11.587-24.81-22.741-29.091-29.48m148.744 29.48v14.499c15.196-11.791 27.511-26.469 29.065-43.979-4.334 6.739-13.028 17.893-29.065 29.48m-148.948-172.537v40.761l10.399-14.791c15.935-1.927 37.224-3.805 60.836-4.479v20.177c5.735-.09 11.675-.179 17.819-.179 6.121 0 12.09.09 17.95.179v-20.177c23.535.674 44.901 2.551 60.707 4.479l10.379 14.791v-40.761c-19.401-2.566-52.728-6.05-89.035-6.05-36.28 0-69.601 3.483-89.054 6.05m107.006 108.675c-5.862-.103-11.828-.23-17.95-.23-6.144 0-12.084.127-17.819.23v86.733l-12.011 9.927c12.569 6.279 23.914 10.517 29.828 12.508 6.069-1.991 17.366-6.229 29.884-12.508l-11.935-9.927" fill="#455560" sketch:type="MSShapeGroup"/></g></svg>