<?xml version="1.0" encoding="UTF-8" standalone="no"?>
<svg width="512px" height="512px" viewBox="0 0 512 512" version="1.1" xmlns="http://www.w3.org/2000/svg" xmlns:xlink="http://www.w3.org/1999/xlink" xmlns:sketch="http://www.bohemiancoding.com/sketch/ns">
    <!-- Generator: Sketch 3.2.2 (9983) - http://www.bohemiancoding.com/sketch -->
    <title>vancouver-whitecaps-fc</title>
    <desc>Created with Sketch.</desc>
    <defs></defs>
    <g id="MLS" stroke="none" stroke-width="1" fill="none" fill-rule="evenodd" sketch:type="MSPage">
        <g id="vancouver-whitecaps-fc" sketch:type="MSArtboardGroup">
            <g sketch:type="MSLayerGroup" transform="translate(89.000000, 37.000000)">
                <path d="M167.997161,0.613956803 L130.570546,63.2063326 L116.69138,40.0065227 L112.264699,32.5936328 L107.826659,40.0065227 L1.8995831,217.174212 L0.317070423,219.820186 L110.754118,404.525637 L129.54551,373.097482 L167.991482,437.386989 L206.436507,373.09086 L220.808789,397.125045 L225.242096,404.524691 L229.672563,397.125045 L334.095685,222.46616 L335.685769,219.820186 L334.095685,217.174212 L228.153465,40.0131447 L223.72773,32.6002549 L219.28969,40.0131447 L205.417149,63.2063326 L167.997161,0.613956803 L167.997161,0.613956803 Z M167.997161,10.6718747 L205.417149,73.2566825 L223.72773,42.6572268 L329.661431,219.81924 L225.234524,394.470557 L206.436507,363.036726 L167.991482,427.325287 L129.546456,363.036726 L110.755065,394.464881 L6.33099718,219.820186 L112.266592,42.6515508 L130.570546,73.2566825 L167.997161,10.6718747 L167.997161,10.6718747 Z" id="Fill-1" fill="#AEACAD" sketch:type="MSShapeGroup"></path>
                <path d="M129.54551,363.038618 L167.990535,427.329071 L206.435561,363.038618 L225.234524,394.473395 L329.661431,219.822078 L223.722051,42.6534428 L205.417149,73.2528985 L167.997161,10.6671447 L130.570546,73.2585745 L112.265645,42.6524968 L6.33099718,219.822078 L110.754118,394.467719 L129.54551,363.038618" id="Fill-2" fill="#00245E" sketch:type="MSShapeGroup"></path>
                <path d="M237.510355,249.870959 L168.003786,366.095158 L98.4924845,249.870959 L74.9952,249.870959 L168.003786,405.390285 L260.993442,249.870959 L237.510355,249.870959 L237.510355,249.870959 Z M110.756011,333.253672 L60.9040225,249.870959 L37.4133634,249.870959 L110.756011,372.528933 L127.093183,345.21968 L115.341701,325.582523 L110.756011,333.253672 L110.756011,333.253672 Z M275.107335,249.870959 L225.23547,333.253672 L220.661138,325.582523 L208.910603,345.21968 L225.23547,372.537447 L298.58853,249.870959 L275.107335,249.870959 L275.107335,249.870959 Z" id="Fill-3" fill="#9DC2EB" sketch:type="MSShapeGroup"></path>
                <path d="M223.725837,64.596013 L207.822152,91.1796803 L219.261296,110.305996 L223.725837,102.841076 L275.700777,189.764683 L298.573386,189.764683 L223.725837,64.596013 L223.725837,64.596013 Z M37.4294535,189.764683 L60.2963831,189.764683 L112.277003,102.84013 L116.739651,110.298428 L128.179741,91.1853564 L112.27511,64.595067 L37.4294535,189.764683 L37.4294535,189.764683 Z" id="Fill-4" fill="#FFFFFF" sketch:type="MSShapeGroup"></path>
                <path d="M113.696721,161.675922 L168.006625,70.8604536 L222.311797,161.675922 L245.182513,161.675922 L168.006625,32.6097149 L90.8241127,161.675922 L113.696721,161.675922" id="Fill-5" fill="#FFFFFF" sketch:type="MSShapeGroup"></path>
                <path d="M26.2628958,203.160104 L34.2445521,203.160104 L39.5580845,224.470743 L39.6423211,224.470743 L46.5979944,203.160104 L53.4116958,203.160104 L60.3153127,225.036454 L60.4052282,225.036454 L65.9932394,203.160104 L73.4155268,203.160104 L63.6951887,236.398911 L57.1682704,236.398911 L49.8434704,213.388302 L49.7450366,213.388302 L42.4183437,236.398911 L36.1252056,236.398911 L26.2628958,203.160104" id="Fill-6" fill="#FFFFFF" sketch:type="MSShapeGroup"></path>
                <path d="M76.9534648,203.160104 L84.2782648,203.160104 L84.2782648,215.554652 L98.5152,215.554652 L98.5152,203.160104 L105.841893,203.160104 L105.841893,236.398911 L98.5152,236.398911 L98.5152,222.033836 L84.2782648,222.033836 L84.2782648,236.398911 L76.9525183,236.398911 L76.9525183,203.160104 L76.9534648,203.160104" id="Fill-7" fill="#FFFFFF" sketch:type="MSShapeGroup"></path>
                <path d="M113.825442,203.158212 L121.144563,203.158212 L121.144563,236.395127 L113.825442,236.395127 L113.825442,203.158212 Z" id="Fill-8" fill="#FFFFFF" sketch:type="MSShapeGroup"></path>
                <path d="M136.094197,209.636449 L126.607639,209.636449 L126.607639,203.162942 L152.913127,203.162942 L152.913127,209.636449 L143.418997,209.636449 L143.418997,236.394181 L136.094197,236.394181 L136.094197,209.636449" id="Fill-9" fill="#FFFFFF" sketch:type="MSShapeGroup"></path>
                <path d="M158.630806,203.160104 L181.230828,203.160104 L181.230828,209.924981 L165.963177,209.924981 L165.963177,216.118471 L177.246152,216.118471 L177.246152,222.876726 L165.963177,222.876726 L165.963177,229.640657 L182.073194,229.640657 L182.073194,236.398911 L158.630806,236.398911 L158.630806,203.160104" id="Fill-10" fill="#FFFFFF" sketch:type="MSShapeGroup"></path>
                <path d="M208.702377,211.792393 C207.247639,210.060259 205.132259,209.074523 202.407346,209.074523 C196.873285,209.074523 192.778817,213.582233 192.778817,219.775724 C192.778817,225.976782 196.873285,230.47787 202.174513,230.47787 C205.132259,230.47787 207.527797,229.167654 209.032699,226.916164 L215.13938,231.468337 C212.360518,235.411283 207.668823,237.240855 203.115313,237.240855 C192.726761,237.240855 185.173859,230.439084 185.173859,219.775724 C185.173859,209.119931 192.726761,202.316268 203.115313,202.316268 C206.826456,202.316268 211.517206,203.587698 214.340552,207.200488 L208.702377,211.792393" id="Fill-11" fill="#FFFFFF" sketch:type="MSShapeGroup"></path>
                <path d="M233.029724,212.83016 L228.992992,223.153905 L237.11662,223.153905 L233.029724,212.83016 L233.029724,212.83016 Z M230.213003,203.159158 L236.274254,203.159158 L250.743076,236.397965 L242.470851,236.397965 L239.608699,229.354017 L226.689262,229.354017 L223.919865,236.397965 L215.841668,236.397965 L230.213003,203.159158 L230.213003,203.159158 Z" id="Fill-12" fill="#FFFFFF" sketch:type="MSShapeGroup"></path>
                <path d="M261.362569,217.24327 L266.253972,217.24327 C268.831234,217.24327 271.419854,216.347404 271.419854,213.25397 C271.419854,209.822812 267.94249,209.356432 265.119144,209.356432 L261.363515,209.356432 L261.362569,217.24327 L261.362569,217.24327 Z M254.042501,203.162942 L266.391211,203.162942 C273.301454,203.162942 279.025758,205.368078 279.025758,213.25397 C279.025758,221.042423 273.722637,223.443382 266.723425,223.443382 L261.364462,223.443382 L261.364462,236.394181 L254.044394,236.394181 L254.042501,203.162942 L254.042501,203.162942 Z" id="Fill-13" fill="#FFFFFF" sketch:type="MSShapeGroup"></path>
                <path d="M301.003944,211.278713 C299.828417,209.781188 297.473577,209.073577 295.689465,209.073577 C293.627087,209.073577 290.764935,210.013905 290.764935,212.503788 C290.764935,218.554432 306.071392,214.656894 306.071392,226.305991 C306.071392,233.723611 300.109521,237.239909 293.249442,237.239909 C288.974197,237.239909 285.218569,235.974156 282.07058,233.062354 L287.287572,227.33619 C288.786794,229.301041 291.224924,230.481654 293.672518,230.481654 C296.06711,230.481654 298.745645,229.353071 298.745645,227.011711 C298.745645,220.903361 283.146727,224.190726 283.146727,213.113961 C283.146727,206.025551 289.304518,202.315322 295.831437,202.315322 C299.589904,202.315322 303.210186,203.301058 306.026907,205.78432 L301.003944,211.278713" id="Fill-14" fill="#FFFFFF" sketch:type="MSShapeGroup"></path>
                <path d="M141.092552,249.68838 L163.393487,249.68838 L163.393487,256.452311 L148.418299,256.452311 L148.418299,263.210566 L159.138118,263.210566 L159.138118,269.969767 L148.418299,269.969767 L148.418299,282.926242 L141.092552,282.926242 L141.092552,249.68838" id="Fill-15" fill="#FFFFFF" sketch:type="MSShapeGroup"></path>
                <path d="M188.056834,258.324454 C186.603042,256.59232 184.495234,255.607529 181.762749,255.607529 C176.223008,255.607529 172.133273,260.114294 172.133273,266.309676 C172.133273,272.503166 176.221115,277.009931 181.529915,277.009931 C184.49618,277.009931 186.8832,275.694039 188.388101,273.443495 L194.493837,277.995667 C191.723493,281.938613 187.026118,283.773862 182.470715,283.773862 C172.087842,283.773862 164.528315,276.963577 164.528315,266.307784 C164.528315,255.651991 172.086896,248.843598 182.470715,248.843598 C186.180913,248.843598 190.88018,250.115028 193.695008,253.726873 L188.056834,258.324454" id="Fill-16" fill="#FFFFFF" sketch:type="MSShapeGroup"></path>
                <path d="M82.7657915,170.888112 L87.5426704,170.888112 L92.2400451,183.332799 L92.2911549,183.332799 L97.0746592,170.888112 L101.551504,170.888112 L93.720338,189.876311 L90.3650704,189.876311 L82.7657915,170.888112" id="Fill-17" fill="#FFFFFF" sketch:type="MSShapeGroup"></path>
                <path d="M108.486355,176.40994 L106.176,182.319629 L110.821318,182.319629 L108.486355,176.40994 L108.486355,176.40994 Z M106.875448,170.884328 L110.341454,170.884328 L118.601375,189.880095 L113.884124,189.880095 L112.241983,185.852955 L104.858501,185.852955 L103.281668,189.880095 L98.6675831,189.880095 L106.875448,170.884328 L106.875448,170.884328 Z" id="Fill-18" fill="#FFFFFF" sketch:type="MSShapeGroup"></path>
                <path d="M120.888068,170.888112 L126.578299,170.888112 L134.656496,184.084873 L134.715177,184.084873 L134.715177,170.888112 L138.900507,170.888112 L138.900507,189.876311 L133.425127,189.876311 L125.1264,176.360747 L125.073397,176.360747 L125.073397,189.876311 L120.889014,189.876311 L120.889014,170.888112 L120.888068,170.888112" id="Fill-19" fill="#FFFFFF" sketch:type="MSShapeGroup"></path>
                <path d="M155.409938,175.823417 C154.57893,174.831058 153.365544,174.26724 151.814265,174.26724 C148.649239,174.26724 146.312383,176.841317 146.312383,180.383158 C146.312383,183.924052 148.649239,186.500022 151.677972,186.500022 C153.36649,186.500022 154.741724,185.752678 155.597341,184.462328 L159.088901,187.062894 C157.505442,189.313438 154.811763,190.363503 152.217465,190.363503 C146.286828,190.363503 141.965206,186.472587 141.965206,180.382212 C141.965206,174.291836 146.286828,170.407542 152.217465,170.407542 C154.332845,170.407542 157.018952,171.134073 158.627966,173.196363 L155.409938,175.823417" id="Fill-20" fill="#FFFFFF" sketch:type="MSShapeGroup"></path>
                <path d="M170.680428,186.500968 C174.242975,186.500968 176.583617,183.925944 176.583617,180.384104 C176.583617,176.844156 174.241082,174.269132 170.680428,174.269132 C167.111256,174.269132 164.775346,176.844156 164.775346,180.384104 C164.7744,183.925944 167.111256,186.500968 170.680428,186.500968 M170.680428,170.403758 C176.612011,170.403758 180.932687,174.294674 180.932687,180.38505 C180.932687,186.475425 176.612011,190.360665 170.680428,190.360665 C164.743166,190.360665 160.427223,186.475425 160.427223,180.38505 C160.427223,174.294674 164.743166,170.403758 170.680428,170.403758" id="Fill-21" fill="#FFFFFF" sketch:type="MSShapeGroup"></path>
                <path d="M200.496406,182.557076 C200.496406,187.037352 197.757296,190.359719 192.49582,190.359719 C187.206896,190.359719 184.469679,187.038298 184.469679,182.557076 L184.469679,170.890004 L188.661634,170.890004 L188.661634,182.394363 C188.661634,184.729102 190.271594,186.500022 192.497713,186.500022 C194.695437,186.500022 196.304451,184.729102 196.304451,182.394363 L196.304451,170.890004 L200.496406,170.890004 L200.496406,182.557076" id="Fill-22" fill="#FFFFFF" sketch:type="MSShapeGroup"></path>
                <path d="M202.806761,170.888112 L207.589318,170.888112 L212.286693,183.332799 L212.339696,183.332799 L217.121307,170.888112 L221.598152,170.888112 L213.766039,189.876311 L210.412665,189.876311 L202.806761,170.888112" id="Fill-23" fill="#FFFFFF" sketch:type="MSShapeGroup"></path>
                <path d="M224.127144,170.888112 L237.032383,170.888112 L237.032383,174.75254 L228.312473,174.75254 L228.312473,178.29438 L236.553465,178.29438 L236.553465,182.153132 L228.312473,182.153132 L228.312473,186.018505 L237.513194,186.018505 L237.513194,189.877257 L224.127144,189.877257 L224.127144,170.888112" id="Fill-24" fill="#FFFFFF" sketch:type="MSShapeGroup"></path>
                <path d="M245.426704,178.744678 L247.897961,178.744678 C249.421792,178.744678 251.408451,178.693594 251.408451,176.631305 C251.408451,174.718484 249.689645,174.43279 248.162975,174.43279 L245.425758,174.43279 L245.425758,178.744678 L245.426704,178.744678 L245.426704,178.744678 Z M241.241375,170.884328 L248.592676,170.884328 C252.48649,170.884328 255.756575,172.227654 255.756575,176.656847 C255.756575,179.309443 254.334963,181.372678 251.648856,181.8646 L256.481577,189.881041 L251.466186,189.881041 L247.494761,182.286518 L245.424811,182.286518 L245.424811,189.881041 L241.239482,189.881041 L241.239482,170.884328 L241.241375,170.884328 L241.241375,170.884328 Z" id="Fill-25" fill="#FFFFFF" sketch:type="MSShapeGroup"></path>
                <path d="M242.043042,387.015097 L244.884372,387.015097 L244.884372,394.473395 L246.344789,394.473395 L246.344789,387.015097 L249.205048,387.015097 L249.205048,385.711503 L242.043042,385.711503 L242.043042,387.015097" id="Fill-26" fill="#051C36" sketch:type="MSShapeGroup"></path>
                <path d="M254.550761,392.714773 L252.333161,385.711503 L250.184654,385.711503 L250.184654,394.472449 L251.528654,394.472449 L251.528654,387.013205 L253.883493,394.472449 L255.212349,394.472449 L257.463076,387.124834 L257.463076,394.472449 L258.800451,394.472449 L258.800451,385.711503 L256.691696,385.711503 L254.550761,392.714773" id="Fill-27" fill="#051C36" sketch:type="MSShapeGroup"></path>
            </g>
        </g>
    </g>
</svg>