<?xml version="1.0" encoding="UTF-8" standalone="no"?>
<!-- Created with Inkscape (http://www.inkscape.org/) -->

<svg
   xmlns:dc="http://purl.org/dc/elements/1.1/"
   xmlns:cc="http://creativecommons.org/ns#"
   xmlns:rdf="http://www.w3.org/1999/02/22-rdf-syntax-ns#"
   xmlns:svg="http://www.w3.org/2000/svg"
   xmlns="http://www.w3.org/2000/svg"
   xmlns:sodipodi="http://sodipodi.sourceforge.net/DTD/sodipodi-0.dtd"
   xmlns:inkscape="http://www.inkscape.org/namespaces/inkscape"
   version="1.1"
   width="361.41733"
   height="468.77951"
   id="svg6395"
   inkscape:version="0.48.1 "
   sodipodi:docname="Vancouver Whitecaps Logo.svg">
  <sodipodi:namedview
     pagecolor="#ffffff"
     bordercolor="#666666"
     borderopacity="1"
     objecttolerance="10"
     gridtolerance="10"
     guidetolerance="10"
     inkscape:pageopacity="0"
     inkscape:pageshadow="2"
     inkscape:window-width="1366"
     inkscape:window-height="706"
     id="namedview38"
     showgrid="false"
     inkscape:zoom="1.0718605"
     inkscape:cx="180.70866"
     inkscape:cy="182.30475"
     inkscape:window-x="-8"
     inkscape:window-y="-8"
     inkscape:window-maximized="1"
     inkscape:current-layer="g6470" />
  <defs
     id="defs6397">
    <clipPath
       id="clipPath3043">
      <path
         d="m 690.378,501.667 79.121,0 0,79.121 -79.121,0 0,-79.121 z"
         id="path3045" />
    </clipPath>
  </defs>
  <metadata
     id="metadata6400">
    <rdf:RDF>
      <cc:Work
         rdf:about="">
        <dc:format>image/svg+xml</dc:format>
        <dc:type
           rdf:resource="http://purl.org/dc/dcmitype/StillImage" />
        <dc:title />
      </cc:Work>
    </rdf:RDF>
  </metadata>
  <g
     transform="translate(-178.00368,-324.59433)"
     id="layer1">
    <g
       transform="matrix(5.4844649,0,0,5.4844649,-1546.1872,-2493.5086)"
       id="g6470">
      <g
         id="g4301">
        <path
           style="fill:#aeacad;fill-opacity:1;fill-rule:nonzero;stroke:none"
           id="path4489"
           d="m 347.32579,514.47887 -0.85375,1.42875 -6.35625,10.635 -2.67375,-4.47125 -0.8525,-1.42875 -0.855,1.42875 -20.40625,34.1475 -0.305,0.51 0.305,0.51 20.11625,33.66125 0.85375,1.42875 0.85375,-1.42875 2.76625,-4.62875 6.5525,10.9625 0.85375,1.42875 0.85375,-1.42875 6.5525,-10.96375 2.76875,4.6325 0.85375,1.42625 0.85375,-1.42625 20.11625,-33.66375 0.30625,-0.51 -0.30625,-0.51 -20.40875,-34.14625 -0.8525,-1.42875 -0.855,1.42875 -2.6725,4.47 -6.355,-10.635 -0.85375,-1.42875 z m 0,1.93875 7.20875,12.0625 3.5275,-5.8975 20.4075,34.14625 -20.1175,33.6625 -3.62125,-6.05875 -7.40625,12.39125 -7.40625,-12.39125 -3.62,6.0575 -20.11625,-33.66125 20.4075,-34.1475 3.52625,5.89875 7.21,-12.0625 z" />
        <path
           style="fill:#00245e;fill-opacity:1;fill-rule:nonzero;stroke:none"
           id="path4491"
           d="m 339.91829,584.33287 7.40625,12.39125 7.40625,-12.39125 3.62125,6.05875 20.1175,-33.6625 -20.40875,-34.1475 -3.52625,5.8975 -7.20875,-12.0625 -7.21,12.06375 -3.52625,-5.89875 -20.4075,34.1475 20.11625,33.66125 3.62,-6.0575 z" />
        <path
           style="fill:#9dc2ea;fill-opacity:1;fill-rule:nonzero;stroke:none"
           id="path4493"
           d="m 360.71729,562.52087 -13.39,22.40125 -13.39125,-22.40125 -4.52625,0 17.9175,29.975 17.91375,-29.975 -4.52375,0 z m -24.41875,16.07125 -9.60375,-16.07125 -4.525,0 14.12875,23.64125 3.1475,-5.26375 -2.26375,-3.785 -0.88375,1.47875 z m 31.66125,-16.07125 -9.6075,16.07125 -0.88125,-1.47875 -2.26375,3.785 3.145,5.265 14.13125,-23.6425 -4.52375,0 z" />
        <path
           style="fill:#ffffff;fill-opacity:1;fill-rule:nonzero;stroke:none"
           id="path4495"
           d="m 358.06167,526.811 -3.06375,5.12375 2.20375,3.68625 0.86,-1.43875 10.0125,16.75375 4.40625,0 -14.41875,-24.125 z m -35.88875,24.125 4.405,0 10.01375,-16.75375 0.86,1.4375 2.20375,-3.68375 -3.06375,-5.125 -14.41875,24.125 z" />
        <path
           style="fill:#ffffff;fill-opacity:1;fill-rule:nonzero;stroke:none"
           id="path4497"
           d="m 336.86529,545.52212 10.4625,-17.50375 10.46125,17.50375 4.40625,0 -14.8675,-24.87625 -14.86875,24.87625 4.40625,0 z" />
        <path
           style="fill:#ffffff;fill-opacity:1;fill-rule:nonzero;stroke:none"
           id="path4499"
           d="m 320.02167,553.51775 1.5375,0 1.02375,4.1075 0.0163,0 1.34,-4.1075 1.3125,0 1.33,4.21625 0.0175,0 1.07625,-4.21625 1.43,0 -1.8725,6.40625 -1.2575,0 -1.41125,-4.435 -0.0188,0 -1.41125,4.435 -1.2125,0 -1.9,-6.40625 z" />
        <path
           style="fill:#ffffff;fill-opacity:1;fill-rule:nonzero;stroke:none"
           id="path4501"
           d="m 329.78667,553.51775 1.41125,0 0,2.38875 2.7425,0 0,-2.38875 1.41125,0 0,6.40625 -1.41125,0 0,-2.76875 -2.7425,0 0,2.76875 -1.41125,0 0,-6.40625 z" />
        <path
           style="fill:#ffffff;fill-opacity:1;fill-rule:nonzero;stroke:none"
           id="path4503"
           d="m 336.88992,553.51737 1.41,0 0,6.40625 -1.41,0 0,-6.40625 z" />
        <path
           style="fill:#ffffff;fill-opacity:1;fill-rule:nonzero;stroke:none"
           id="path4505"
           d="m 341.17979,554.76587 -1.8275,0 0,-1.2475 5.0675,0 0,1.2475 -1.82875,0 0,5.1575 -1.41125,0 0,-5.1575 z" />
        <path
           style="fill:#ffffff;fill-opacity:1;fill-rule:nonzero;stroke:none"
           id="path4507"
           d="m 345.52129,553.51775 4.35375,0 0,1.30375 -2.94125,0 0,1.19375 2.17375,0 0,1.3025 -2.17375,0 0,1.30375 3.10375,0 0,1.3025 -4.51625,0 0,-6.40625 z" />
        <g
           id="g4509"
           transform="matrix(1.25,0,0,-1.25,-565.02883,1232.9786)">
          <g
             id="g4511"
             clip-path="url(#clipPath3043)">
            <path
               style="fill:#ffffff;fill-opacity:1;fill-rule:nonzero;stroke:none"
               id="path4513"
               d="m 736.1569,542.2377 c -0.224,0.267 -0.55,0.419 -0.97,0.419 -0.853,0 -1.484,-0.695 -1.484,-1.65 0,-0.956 0.631,-1.65 1.448,-1.65 0.456,0 0.825,0.202 1.057,0.549 l 0.941,-0.702 c -0.428,-0.608 -1.151,-0.89 -1.853,-0.89 -1.601,0 -2.765,1.049 -2.765,2.693 0,1.643 1.164,2.692 2.765,2.692 0.572,0 1.295,-0.196 1.73,-0.753 l -0.869,-0.708 z" />
            <path
               style="fill:#ffffff;fill-opacity:1;fill-rule:nonzero;stroke:none"
               id="path4515"
               d="m 739.9062,542.0778 -0.622,-1.592 1.252,0 -0.63,1.592 z m -0.434,1.491 0.934,0 2.23,-5.125 -1.275,0 -0.441,1.086 -1.991,0 -0.427,-1.086 -1.245,0 2.215,5.125 z" />
            <path
               style="fill:#ffffff;fill-opacity:1;fill-rule:nonzero;stroke:none"
               id="path4517"
               d="m 744.2727,541.3973 0.754,0 c 0.397,0 0.796,0.138 0.796,0.615 0,0.529 -0.536,0.601 -0.971,0.601 l -0.579,0 0,-1.216 z m -1.128,2.171 1.903,0 c 1.065,0 1.947,-0.34 1.947,-1.556 0,-1.201 -0.817,-1.571 -1.896,-1.571 l -0.826,0 0,-1.997 -1.128,0 0,5.124 z" />
            <path
               style="fill:#ffffff;fill-opacity:1;fill-rule:nonzero;stroke:none"
               id="path4519"
               d="m 750.3821,542.3169 c -0.181,0.231 -0.544,0.34 -0.819,0.34 -0.318,0 -0.759,-0.145 -0.759,-0.529 0,-0.933 2.359,-0.332 2.359,-2.128 0,-1.144 -0.919,-1.686 -1.976,-1.686 -0.659,0 -1.238,0.195 -1.723,0.644 l 0.804,0.883 c 0.231,-0.303 0.607,-0.485 0.984,-0.485 0.369,0 0.782,0.174 0.782,0.535 0,0.942 -2.404,0.435 -2.404,2.143 0,1.093 0.949,1.665 1.955,1.665 0.579,0 1.137,-0.152 1.571,-0.535 l -0.774,-0.847 z" />
            <path
               style="fill:#ffffff;fill-opacity:1;fill-rule:nonzero;stroke:none"
               id="path4521"
               d="m 725.7374,536.3944 3.437,0 0,-1.043 -2.308,0 0,-1.042 1.652,0 0,-1.042 -1.652,0 0,-1.998 -1.129,0 0,5.125 z" />
            <path
               style="fill:#ffffff;fill-opacity:1;fill-rule:nonzero;stroke:none"
               id="path4523"
               d="m 732.9752,535.0628 c -0.224,0.267 -0.549,0.419 -0.97,0.419 -0.854,0 -1.484,-0.695 -1.484,-1.65 0,-0.955 0.63,-1.65 1.448,-1.65 0.457,0 0.825,0.203 1.057,0.55 l 0.941,-0.702 c -0.427,-0.608 -1.151,-0.891 -1.853,-0.891 -1.6,0 -2.765,1.05 -2.765,2.693 0,1.643 1.165,2.693 2.765,2.693 0.572,0 1.296,-0.196 1.73,-0.753 l -0.869,-0.709 z" />
            <path
               style="fill:#ffffff;fill-opacity:1;fill-rule:nonzero;stroke:none"
               id="path4525"
               d="m 716.7484,548.545 0.736,0 0.724,-1.919 0.008,0 0.737,1.919 0.69,0 -1.207,-2.928 -0.517,0 -1.171,2.928 z" />
            <path
               style="fill:#ffffff;fill-opacity:1;fill-rule:nonzero;stroke:none"
               id="path4527"
               d="m 720.7121,547.6934 -0.356,-0.911 0.716,0 -0.36,0.911 z m -0.248,0.852 0.534,0 1.273,-2.929 -0.727,0 -0.253,0.621 -1.138,0 -0.243,-0.621 -0.711,0 1.265,2.929 z" />
            <path
               style="fill:#ffffff;fill-opacity:1;fill-rule:nonzero;stroke:none"
               id="path4529"
               d="m 722.6235,548.545 0.877,0 1.245,-2.035 0.009,0 0,2.035 0.645,0 0,-2.928 -0.844,0 -1.279,2.084 -0.008,0 0,-2.084 -0.645,0 0,2.928 z" />
            <path
               style="fill:#ffffff;fill-opacity:1;fill-rule:nonzero;stroke:none"
               id="path4531"
               d="m 727.9438,547.7839 c -0.128,0.153 -0.315,0.24 -0.554,0.24 -0.488,0 -0.848,-0.397 -0.848,-0.943 0,-0.546 0.36,-0.943 0.827,-0.943 0.26,0 0.472,0.115 0.604,0.314 l 0.538,-0.401 c -0.244,-0.347 -0.659,-0.509 -1.059,-0.509 -0.914,0 -1.58,0.6 -1.58,1.539 0,0.939 0.666,1.538 1.58,1.538 0.326,0 0.74,-0.112 0.988,-0.43 l -0.496,-0.405 z" />
            <path
               style="fill:#ffffff;fill-opacity:1;fill-rule:nonzero;stroke:none"
               id="path4533"
               d="m 730.2971,546.1375 c 0.549,0 0.91,0.397 0.91,0.943 0,0.546 -0.361,0.943 -0.91,0.943 -0.55,0 -0.91,-0.397 -0.91,-0.943 0,-0.546 0.36,-0.943 0.91,-0.943 m 0,2.482 c 0.914,0 1.58,-0.6 1.58,-1.539 0,-0.939 -0.666,-1.538 -1.58,-1.538 -0.915,0 -1.58,0.599 -1.58,1.538 0,0.939 0.665,1.539 1.58,1.539" />
            <path
               style="fill:#ffffff;fill-opacity:1;fill-rule:nonzero;stroke:none"
               id="path4535"
               d="m 734.8922,546.7456 c 0,-0.691 -0.422,-1.203 -1.233,-1.203 -0.815,0 -1.237,0.512 -1.237,1.203 l 0,1.799 0.646,0 0,-1.774 c 0,-0.36 0.248,-0.633 0.591,-0.633 0.339,0 0.587,0.273 0.587,0.633 l 0,1.774 0.646,0 0,-1.799 z" />
            <path
               style="fill:#ffffff;fill-opacity:1;fill-rule:nonzero;stroke:none"
               id="path4537"
               d="m 735.2484,548.545 0.737,0 0.724,-1.919 0.008,0 0.737,1.919 0.69,0 -1.207,-2.928 -0.517,0 -1.172,2.928 z" />
            <path
               style="fill:#ffffff;fill-opacity:1;fill-rule:nonzero;stroke:none"
               id="path4539"
               d="m 738.5342,548.545 1.989,0 0,-0.596 -1.344,0 0,-0.546 1.27,0 0,-0.595 -1.27,0 0,-0.596 1.418,0 0,-0.595 -2.063,0 0,2.928 z" />
            <path
               style="fill:#ffffff;fill-opacity:1;fill-rule:nonzero;stroke:none"
               id="path4541"
               d="m 741.8167,547.3334 0.381,0 c 0.235,0 0.541,0.008 0.541,0.326 0,0.295 -0.265,0.339 -0.5,0.339 l -0.422,0 0,-0.665 z m -0.645,1.212 1.133,0 c 0.6,0 1.104,-0.207 1.104,-0.89 0,-0.409 -0.219,-0.727 -0.633,-0.803 l 0.745,-1.236 -0.773,0 -0.612,1.171 -0.319,0 0,-1.171 -0.645,0 0,2.929 z" />
            <path
               style="fill:#051c36;fill-opacity:1;fill-rule:nonzero;stroke:none"
               id="path4543"
               d="m 741.2953,515.2197 0.438,0 0,-1.15 0.225,0 0,1.15 0.441,0 0,0.201 -1.104,0 0,-0.201 z" />
            <path
               style="fill:#051c36;fill-opacity:1;fill-rule:nonzero;stroke:none"
               id="path4545"
               d="m 743.2231,514.341 -0.342,1.08 -0.331,0 0,-1.351 0.207,0 0,1.15 0.363,-1.15 0.205,0 0.347,1.133 0,-1.133 0.206,0 0,1.351 -0.325,0 -0.33,-1.08 z" />
          </g>
        </g>
      </g>
    </g>
  </g>
</svg>
