<svg width="512" height="512" viewBox="0 0 512 512" xmlns="http://www.w3.org/2000/svg" xmlns:sketch="http://www.bohemiancoding.com/sketch/ns"><title>newcastle-united</title><desc>Created with Sketch.</desc><g sketch:type="MSShapeGroup" fill="none"><path stroke="#fff" stroke-width="11.699" fill="#fff" d="M362.46 318.792v.254-.254zm0 .264zm0-.01v.01-.01z"/><path fill="#231F20" d="M362.46 318.792v.254-.254m0 .264v-.02.01"/><path d="M430.303 338.067c-3.433-6.249-2.814-16.109-11.539-17.956-9.081-.264-18.853 3.256-26.969 8.186-3.169 3.165 1.148 5.894 1.32 8.978.975 4.393 3.179 8.268 3.616 12.843-2.021.7-4.053 1.674-6.166 2.201-1.767.619-3.261-.264-4.408-1.319-5.201-2.374-10.401.355-14.718 2.546-1.849 2.993-5.373.446-8.014 1.501-7.578.436-17.004.264-23.352 6.076-4.317 4.22.264 9.15-.183 13.898-11.884 3.175-23.617 6.776-36.121 8.45-3.433.619-7.049 1.055-10.574 1.583-11.011 1.674-22.296 2.901-32.86 3.165l-.356-.345c.091-.446.528-.791.356-1.319 7.567-9.424 18.324-16.637 28.807-21.831 1.503-.791 2.905-2.019 4.581-2.546 1.32-1.765 3.352-1.593 4.764-3.256 8.99-5.549 18.853-12.062 23.434-22.003 1.412-2.11 1.757-4.575 2.651-6.959l1.402-6.066c2.204 5.366 2.56 12.051 8.289 15.227 7.131 5.366 16.394 6.766 25.11 3.693 11.275-4.403 17.451-16.545 18.507-28.069.528-1.501 2.285-1.765 2.732-3.256-1.585-1.41-2.387-3.611-1.585-5.549.609-2.019 3.525-1.664 3.789-3.784-.538-.528-1.239-.7-1.859-1.136-2.113-1.501-3.261-3.875-2.732-6.432.183-2.019 2.824-2.81 3.169-4.748-1.585-.528-3.433-.791-4.398-2.201 0-.71.884-1.055 1.412-1.227 5.373-.974 14.272-2.82 18.152 3.246 5.729 7.05-1.412 14.963-.884 22.531.62 1.674.091 4.23 1.849 5.103 0-6.158 6.176-7.821 9.518-12.224l.884 1.319c2.113-3.165-.447-7.923 2.204-11.007h2.377v-.964c-2.204-2.019-2.113-4.93-2.56-7.659.264-1.319 1.849-.436 2.387-1.491-1.585-1.055-2.824-2.82-3.616-4.575-.528-3.256-3.697-5.285-6.084-6.949l1.676-2.029c.62-1.765 1.859-3.348 2.56-5.103-1.94-.528-4.317-1.055-6.084-2.384 3.088-4.748 2.732-11.26 2.915-16.099l-.884.528c-.447-3.256-.528-6.858-2.032-9.505-.701.183-.173 1.319-1.056 1.055-1.676-3.52-2.997-7.385-6.084-10.205-1.493-.355-.173 1.319-1.046 1.583-2.732-1.938-4.063-4.748-4.408-7.831-.792 0-.975.791-1.148 1.319-1.229 9.242 3.088 18.483.528 27.461-1.239 2.465-1.239 5.458-3.261 7.659-2.032 5.63-7.222 9.323-12.067 12.488-.356-.081-.802.091-.975-.172-.62-2.638 1.767-4.758 1.676-7.213-1.94-.355-3.697-1.938-4.764-3.429-.437-2.384.356-4.585 2.56-6.076.701-1.674-1.676-.883-2.377-1.674-2.032-1.583-3.352-4.22-3.352-7.131-.173-2.11 2.204-3.429 2.204-5.275-2.285 0-4.053-2.201-5.109-4.048-1.148-3.256-1.239-7.75.528-10.996 2.113-9.16 14.891-9.069 15.064-19.011.528-1.938 3.535.081 4.764-1.846.792-.883-.62-.619-.884-.883-2.651-1.41-2.123-4.575-2.377-6.776 1.229-.446 1.93.872 3.078.172.538-.436 1.767-.619 1.331-1.501-1.676.183-2.113-1.664-3.179-2.546.701-.528 1.412.264 2.214 0 .518-.172 1.483-.345 1.138-1.319-1.585-1.055-2.55-2.901-2.55-4.575h1.229c2.377-.791-.528-2.11-.356-3.429.173-.355.538-.446.884-.355.345-.264.62-.7.437-.964-3.433-.883-2.113-5.021-5.373-6.168 2.468-1.938-1.412-2.556-1.229-4.403-.356-.964-1.32-1.055-2.032-1.319-.091-.528.091-.964.528-1.319 1.056-1.674-.965-1.846-2.021-2.201 0-1.055.264-3.52-2.032-2.729 1.148-2.993-2.55-1.927-3.87-2.201.081-1.227.701-2.374.264-3.601-1.412-.355-2.204.619-3.352.528l-.173-2.374c-1.239-.355-1.859.609-2.915.528-3.078 3.074-2.641-2.648-5.201-3.256-.609-.355-1.666-.974-2.377-.183.356 1.593 1.767 3.084.975 4.93-.528.71-1.412 1.938-2.387 1.41-1.148-1.501-2.377-2.993-3.88-4.403-.691-.791-.782-2.374-2.194-2.546-.884 2.11-.62 4.656-.884 6.949-1.32-.264-2.641-1.674-3.88-.883-.965 3.175.437 6.158 2.732 8.45-1.676 1.501-2.905 3.165-4.408 4.748-2.204 4.311-6.775 6.868-10.036 10.652-3.616 2.82-3.88 7.395-4.408 11.352 1.32 2.201 3.606 1.501 5.637 2.556.264.7-.62.964-.884 1.41-.965.345-1.148-1.146-2.021-.883-1.148.172-1.32 1.41-1.676 2.201.437.781.264 1.846 1.32 2.374 2.032 1.146 4.317 0 6.084-1.501 1.493.355 3.342-.609 4.926.183v-.355c3.169-.964 4.5-4.839 7.669-6.249 1.239.446 2.377-.791 3.169.619-2.55 3.611-7.314 4.666-10.483 7.476-5.729 3.348-11.011 8.978-13.743 14.872-1.056 1.501-.792 3.784-2.377 4.93-3.088-4.93-4.236-10.733-7.933-15.227-2.204-1.846-5.556-1.938-8.197-.872-5.292 3.784-11.803 4.393-16.923 8.359l-.345-.355c-.091-1.583-.792-2.901-1.859-4.22-1.666-.791-3.342-1.319-5.282-1.41-2.905-.264-5.729 2.019-8.461.172-.609-1.227-.965-2.465-1.056-3.865-.518-1.238.356-4.149-1.493-4.585-1.412-2.282-1.148-5.275-1.32-8.095-.183-.609-.975 0-1.239-.528-1.229-4.311-.528-9.505-.884-13.553.538-1.846-1.32-4.139.884-5.275.356-.528.62-1.583-.173-1.846-.264-.264-.264-.883.173-1.055 3.616-.355 2.905-5.721 6.785-5.194.528-.446.437-1.238.701-1.765-.173-2.019.63-3.956-.173-6.066l-5.637.172-.437-.355c-.711-2.901-.356-6.421 1.849-8.44 1.849-.538 3.352-1.674 5.201-.71 1.32.791 2.021 2.201 2.204 3.611-.447.883-1.331 1.41-2.204 1.146-1.767-.71-1.412-3.175-3.007-3.175-.437 2.648.447 5.285 2.743 6.776 1.138.619 2.997.619 4.053 0 1.676-1.055 2.641-2.546 2.997-4.575-1.32-3.256 2.997-1.055 4.134-2.546 3.179-1.238 2.204-4.321 2.377-6.959 0-1.664 2.468-2.81 2.468-4.22-1.056-.446-2.194-.619-3.342-.528-2.641 0-2.56 2.993-4.053 4.403l-.173-3.084c-.62-1.146-1.767-2.374-2.915-2.993-.884.091-1.849-.791-2.55 0-.183 1.146 1.056 1.055 1.402 1.846-.345 3.084-3.87 2.465-5.983 3.348-2.824.436-3.088 3.865-5.729 4.403-4.053 2.455-4.144 7.649-3.616 11.879-2.204.528-.356 2.81-1.676 4.048-1.676-.446-2.032-2.465-2.55-3.875-.975-2.82-.538-6.421-.356-9.505.609-4.311 5.373-6.858 7.842-10.297-1.503-2.993 2.55-3.693 2.732-6.249-.792-.619-1.676.619-2.377-.355 0-.345 0-.791.173-1.045 4.937-.883 1.412-5.377 3.525-8.278-.173-1.41-.965-1.846-1.849-2.901-.965.345-1.849-.446-2.032-1.501-1.056-1.674-3.078-2.282-4.937-2.019-.792-.355-1.666-1.055-2.55-.528-1.849 2.282-4.673 3.074-6.257 5.894l-.701-.619c-1.067 1.41-2.377 2.993-2.377 5.021.874 2.282-2.204 2.201-3.179 3.601-1.585 1.674-1.229 4.23-3.078 5.549-2.123-3.439-5.648-5.194-7.314-8.805.081-4.656-6.084-7.213-3.525-12.488 11.803-7.223 25.282-.974 38.152-.355 18.589 2.638 42.114 2.901 54.272-13.908.091-1.136 1.503-2.282.884-3.256-5.902 3.611-13.571 3.611-20.529 4.139-4.764-.172-10.219-.091-14.099-1.41-9.69-1.227-18.507-4.748-26.969-8.795-7.486-3.439-16.12-4.758-24.754-3.348-.884.091-1.94.7-2.56.172.447-1.755-.528-3.52-1.493-5.103-1.229-.7-2.468-2.201-3.789-2.201-2.651-.436-5.201.619-6.958 2.556-1.595 1.938-1.767 5.275-.62 7.385.965 1.674 2.55 2.82 3.87 3.794.447 10.824 0 20.066.356 29.916-.356 1.583-1.585 3.52-.356 5.103.264 6.776.264 15.49 0 22.703l-.528.71c-.437.7-.081 1.491.356 2.019l.173 55.885c-1.138 1.146-2.55 1.755-3.25 3.256-.264 1.319 0 2.901.701 4.048 3.525 4.748 8.634 3.256 13.743 2.729l.356.345c-.884 2.029-.701 5.021.62 6.787.518 1.755-1.239 3.074-2.468 4.037-6.521 3.53-14.363 4.585-21.412 2.911-3.789-.528.173-3.611-.538-5.813-.691-3.074-2.377-6.513-5.902-7.121-3.078-.801-6.694.172-8.634 2.719-.081-2.546.264-5.711 2.997-6.949 2.56.436 5.028 1.146 7.141 2.911 1.585 1.927 2.732 3.429 5.282 3.51 1.239 2.201.802 4.839.356 7.304l.62.528c3.088.619 6.521.355 9.69.883 1.849-2.901 5.028.71 6.785-2.729.62-.619 2.204.264 2.204-1.055-2.997-4.748-8.461-6.949-12.514-10.297-4.673-6.249-13.042-6.249-19.035-10.56-11.102-2.729-10.564 10.824-15.419 16.454l-.701-.964c-3.088-10.56-13.398-18.655-22.733-23.231-1.148-.791-2.824-1.583-3.179-3.084 5.028-2.546 6.968 5.63 11.986 5.813 3.708-1.319 5.292 2.82 9.335 1.846.802-.264 1.331-.791 1.595-1.674.437-1.055.173-2.546-.884-3.084-1.148-.872-1.585.974-2.732.538-.356-.355-.965-.801-.701-1.238 1.94-.791 4.845-.436 5.81-2.993.447-6.685-4.845-11.615-9.69-15.663-4.398-2.638-5.373-7.831-9.518-10.824 1.412-1.319 2.468-2.729 3.088-4.403-.264-1.664.609-3.165-.711-4.403-1.229.355-2.204.883-3.342 1.41-.711-1.136-.173-2.901-.356-4.311-.264-.964-.091-3.165-1.503-2.638-.874 3.165-3.961 4.311-5.455 7.213h-.528c-3.443-1.319-1.056-4.92-.975-6.949-2.905-.172-4.134 2.82-5.455 4.748-1.422-.872-2.915-1.4-4.591-1.664-1.32.609.183 1.664-.518 2.546-1.067-.081-1.94-.7-2.997-.7-1.422 1.055.437 2.729-.366 4.22-.874-.436-2.285-.436-3.25-.264 0 1.501-.62 2.729-2.204 2.465-.62.791.264 1.674 0 2.374-.792.264-1.859 0-2.387.883.091.974.447 1.755.711 2.556-2.824-.183-1.229 3.337-3.88 3.693-.609.791.356 1.319.62 2.029-3.342 1.136-1.94 5.275-5.373 6.158-.447 1.227.874.964 1.32 1.491-.091 1.146-1.412 1.583-1.32 2.729.173 1.501 1.849.172 2.377 1.146-.884 1.319-1.056 3.256-2.732 3.956-.183 2.465 2.387.801 3.352 1.501-.792 1.319-1.859 2.465-3.352 2.729.884 1.846 3.088 1.227 4.764 1.319.437 1.491-.802 2.201-.356 3.693-.711 1.41-1.239 3.348-3.261 3.256.701 2.029 3.169 1.238 4.926 1.674-.081 3.348 1.239 6.776 4.408 8.978 6.084 2.82 11.722 8.795 12.433 15.572-.528 3.256-.091 6.868-3.088 9.15-.965.71-2.032 1.146-3.169 1.41.437 1.501 1.93 2.384 2.204 3.875.528 2.993-.447 5.985-2.743 8.095-.874.528-2.113.436-2.905 1.227 1.585 1.765 2.997 3.875 2.905 6.421-.701 1.146-1.666 2.465-2.722 2.911-6.166 1.319 2.021 5.275-.884 8.45-5.729-2.729-11.285-8.095-13.743-13.908-3.708-7.121-3.525-14.689-2.651-22.703 1.239-2.81.711-5.803.975-8.623.173-1.319-.264-3.084-1.32-3.875-.711 2.993-1.94 6.076-4.581 7.923-.356-.172-.091-.528-.183-.791-.081-.264 0-1.055-.528-.883-3.789 2.374-4.673 6.868-6.613 10.469-.345-.436-.437-1.136-1.138-1.319-.62 1.674-.792 3.52-1.229 5.285-.538 1.319.254 3.337-.711 4.22-.264-.264-.62-.345-.965-.345v.528c.264 5.63.701 11.088 3.169 15.744l-3.169 1.501c-.802.791-2.905-.091-2.743 1.491 1.94 2.029 2.032 4.748 4.236 6.776-5.902 1.674-4.937 8.095-9.69 11.179.081 1.319 1.757.355 2.377 1.41-.264 3.074-.792 5.894-2.641 8.268.081 1.583 1.412.172 2.204.528 1.056.883.965 2.201 1.493 3.348.792 2.546-.884 5.458.701 7.649.975.71.528-.781 1.158-1.136 2.722 3.429 7.659 5.458 9.335 9.769.437.7-.173 1.927.528 2.374.965-.619 1.32-1.674 1.148-2.556 2.814-7.131-4.5-14.08-2.204-21.648 1.138-3.52 4.398-7.04 8.37-7.649 4.673-.264 9.162-.528 13.042 1.583-.711 1.664-2.56 2.201-4.236 2.374-.518.791.264 1.41.792 1.846 1.767.964 2.468 2.993 2.377 4.93-.437 2.546-2.55 4.748-4.754 5.894.091 1.583 1.767 1.491 2.732 2.201 1.056 1.238 1.767 2.465 1.503 4.23-.264.964-1.056 1.755-1.859 2.546.091 1.41 1.503 2.201 2.377 3.074 1.158 8.897 4.144 17.073 10.848 23.677 7.75 7.304 20.082 7.923 29.508 3.611 8.207-2.638 9.965-11.007 12.26-17.864.609.964.345 2.638.874 3.784 2.204 16.718 19.828 27.278 32.87 34.846 11.895 5.894 23.617 13.025 32.606 24.113v.619c-11.021.883-21.941-1.319-32.962-2.465-13.571-1.674-26.166-4.23-39.117-7.659-3.169-1.319-6.694-1.755-9.873-3.084.528-4.748 3.88-11.078-1.056-14.872-7.842-5.894-18.68-4.748-28.106-5.103-4.764-3.337-10.757-5.803-16.659-4.22-1.402.345-2.204 2.282-4.053 1.674-2.468-.883-5.109-1.146-7.314-2.556 1.767-6.066 3.616-12.234 6.257-17.956.701-2.11-.884-3.784-2.204-5.011h-.792c-6.084-3.693-13.124-5.275-20-7.131-4.053-.7-9.071.264-11.539 4.403-2.123 4.758-3.88 9.586-5.475 14.517-2.103 8.014-7.222 15.318-6.247 24.113 4.144 10.824 15.592 17.519 25.282 22.531 1.859 1.055 3.708 1.846 5.739 2.374 1.666 1.593 3.961 1.501 5.637 2.82-1.676 4.666-3.352 10.915.792 14.963 5.191 4.129 11.356 5.985 17.004 8.978 14.708 6.858 30.839 10.195 46.431 14.861 3.179.71 6.785 1.583 9.701 2.029 24.582 5.448 50.666 6.949 75.695 6.33 25.902-.172 50.839-3.074 74.801-8.704 9.345-3.348 19.3-5.113 28.645-8.45 1.849-.791 3.87-1.319 5.729-2.201 9.254-3.165 18.324-7.304 26.511-12.67 4.408-3.875 2.57-10.205.975-14.79l.701-.781c3.271-.71 6.003-2.82 9.172-3.794 10.127-5.539 22.733-12.224 26.958-23.839.091-8.714-4.226-16.109-6.257-24.113zm-81.414-37.23s9.355 9.242 10.513 11.291c1.148 2.039 3.037 5.661 3.057 6.665 0 0-1.402 5.853-8.949 6.239-7.547.385-14.068-5.62-13.814-12.65.254-7.03 5.201-9.15 9.193-11.544zm-30.3-27.725c.081-2.394.427-5.032 2.641-6.056 2.214-1.014 2.306-.761 2.306-.761s4.083 6.898 5.373 8.684c1.28 1.796 7.496 9.799 10.919 15.257 0 0-13.398 11.585-13.997 25.554 0 0-.173-3.662-.681-5.539-.518-1.877-.681-4.859 1.96-6.3l.173-1.025s-2.56-.599-2.56-2.13c0-1.532 2.133-1.796 2.133-2.982 0-1.197-1.534-1.532-1.96-1.613-.427-.091-2.732-.172-3.758-3.926-1.016-3.753-4.175-15.501-4.175-15.501s1.534-1.278 1.625-3.662zm-45.171-51.97s1.28.639 3.2.254c1.92-.375 4.226-1.4 4.226-1.4l1.788 1.025-6.013 5.874s-1.402 2.039.132 2.039c1.534 0 1.92.517 2.174 1.156.254.639 2.174.893 3.2.639 1.016-.254 3.068.507 3.322 1.278l9.721-1.278.64-.893s-1.016-4.474-.376-6.137c.64-1.664 2.174-.385 3.708-2.303 1.534-1.917 5.505-5.113 8.187-4.981 2.692.122 3.454 2.688 3.961 6.645 0 0-2.164-3.449-6.135-2.942-3.972.517-7.293 1.025-8.573 8.44 0 0 .132 2.556 1.28 4.088 0 0-3.84 1.532-8.441 1.532-4.612 0-11.773-1.41-13.825-2.688-2.042-1.268-3.068-3.449-2.946-4.088.132-.639 1.544-3.064.772-6.259zm-97.625 92.517c-.132 1.664-.254 10.479-13.439 11.879 0 0-8.644.02-9.436-5.863-.416-3.074 6.115-11.128 7.771-12.538 1.666-1.4 6.145-5.772 6.145-5.772s6.694 4.271 8.461 7.131c0 0 .62 3.5.498 5.163zm17.654-18.726c-.315.456-4.094 2.11-4.347 2.303-.254.203-.772.578.193 1.796.955 1.207 2.113 2.293 1.402 2.871-.701.578-.955.771-.955.771s-1.788.122-1.341 1.014c.447.903 1.402 2.303 1.92 2.881.508.568.569 1.471.376 2.171-.193.7-.508 1.085-.569 1.978-.071.893-.386 3.895-.386 3.895s-1.148-8.237-8.065-17.57c-2.915-3.936-6.135-6.259-6.135-6.259s.193-1.085 1.595-2.688c1.412-1.593 10.747-15.075 11.966-17.053 1.219-1.978 2.367-4.22 3.454-4.22.772 0 3.332 1.603 3.972 2.556 0 0 .254 5.498 1.92 8.176 0 0-4.673 16.941-4.998 17.377zm42.296-156.365c.264 0 .356.264.62.436-.264.355-.528.791-.447 1.238.802.7 1.595 1.227 2.651 1.319.701 1.146-.884 2.81.701 3.611.975-.264 2.296-.883 3.261-.183-.081.71-1.056.883-1.585 1.319-1.056 1.593-2.56 2.648-4.398 2.374-1.239-.436-.802-1.319-1.148-2.191l.345-7.923zm10.046 53.227l-1.483 1.085-1.219 7.973s-1.351-.142-1.483 1.481c-.142 1.623-.681 5.813-1.361 6.076l-2.428.548c-.681.264-1.483.67-2.306.132 0 0-1.077-40.121 0-51.878 0 0 6.359.132 7.842-.406v.943s-.802.406-1.889.274c-1.077-.132-3.24-.274-4.185.406v7.831s2.438.142 3.372 1.491c.955 1.349 2.702 3.368 4.337 3.236v1.623s.264 1.217.802 1.217c.549 0 .955.264.955 1.349l-.955 16.616z" fill="#231F20"/><path d="M262.356 90.605l.173 3.693c-2.55-.264-5.546-.609-8.197-1.319-.528-1.583-.701-3.429.183-4.748 2.732.528 5.82.7 7.842 2.374zm-17.451-1.674c0 1.319 1.067 4.048-.874 4.23-2.915.081-5.292 1.4-8.116 1.664-.874-1.136.091-2.638-.173-3.865l3.179-1.41c1.849-.355 3.961-1.491 5.983-.619zm17.451 14.527l.173 6.066c-2.824-.436-5.455-.619-8.461-1.319-.874-1.938.183-4.139-.173-6.776 1.148-.264 2.56-.264 3.708 0 1.757.264 3.261 1.055 4.754 2.029zm-17.623-2.029c.884 2.374-.091 4.23.173 6.776-3.078.791-6.257 1.319-9.335 2.374v-6.249c2.641-2.191 5.637-2.546 9.162-2.901z" stroke="#00B6F1" stroke-width=".625" fill="#00B6F1"/><path d="M251.863 88.931c.711 2.11-.874 5.813 2.032 6.249 2.997.791 6.176.619 8.634 2.556l-.173 2.81c-3.169-.7-6.257-1.755-9.69-1.846-1.32 1.583-.528 4.403-.802 6.158l-.345 3.175c-1.849-.71-5.637 1.674-4.754-2.029-.183-2.11 1.676-5.539-1.067-7.121-3.342.528-6.867.964-9.954 2.191v-3.337c3.352-1.41 6.785-2.465 10.666-2.556l.528-.528v-6.066c1.229-.974 3.078-.355 4.581-.528l.345.872m69.356 11.616l3.697-.609v.345c-6.694 8.45-16.476 10.205-26.085 11.97-12.067 1.938-22.906-1.055-34.272-2.374-.701-1.319-.264-2.465-.356-4.048 0-4.575-.173-8.45.173-13.908l.528-.791c17.105 7.923 36.659 13.472 56.314 9.414" fill="#EF3E2E"/><path d="M174.503 176.142c4.764 5.985 13.307 10.033 13.571 18.128-1.148.791-2.55 2.282-4.408 1.501-1.676-1.146-3.261-4.139-5.81-2.993-1.32.791-2.113 2.374-1.503 3.865.528.538.528 1.238.711 1.846-1.412-.264-1.94-1.755-2.113-2.901.345-.964-.538-2.465-1.503-3.165-1.148-.183-2.285-.355-3.169-1.055-1.148-1.319 1.757-4.048-1.056-3.693-1.849 1.927-2.123 6.158-5.729 5.103-1.056-1.765-3.169.7-3.972-1.765-1.229.355-2.55.091-3.525-.609-1.676-1.765-1.94-4.058-3.078-5.995h-.356c.091 4.139 1.94 8.369 5.993 10.743l.173.619c-.792.964-2.732-.446-2.905.872 1.585.883 3.433 1.41 5.292.883-.356 1.227-3.352.7-1.595 2.029 1.595.172 2.997-.883 4.591-.538v.538c-.356 0-.538.436-.792.609 0 .264.345.446.609.7 1.239.183 2.296-1.846 3.443-.345 11.539 4.839 22.296 16.018 24.582 28.333 3.433 3.703 3.87 8.805 4.581 13.38.183 3.429-.183 6.604-1.056 9.505-.437-3.084.701-7.04 0-10.033-.264-1.238-.183-2.993-1.503-3.52-1.402 1.146-.264 2.11-.345 3.52-.274 2.638.701 6.066-1.676 7.476-1.503 0-1.32-1.583-1.849-2.546.081-3.348 1.056-8.978-2.204-11.179-.62.883.345 2.029.528 2.901.081 3.175-.091 6.168-.528 8.978.081 1.501 1.138 2.465 2.021 3.52 4.937 4.839 11.194 10.378 15.064 16.282 3.271 6.421-1.757 12.853.711 19.629.091 2.901-.711 5.975-1.493 8.795 0 4.575 2.113 12.407-2.905 15.399 1.666-3.966 2.641-8.714 2.194-13.025-.345-.091-.62-.7-.884-.172-.874 1.583-1.229 3.429-1.849 5.103-.173-2.201 2.204-3.956.538-6.076-.802 0-1.503 0-2.032.619.091.091-.091-.791-.538-.964-1.32.264-2.011 2.019-3.25 2.374-.792 0-1.32.791-2.032.791 1.94-2.11 4.673-3.693 5.993-6.249.884.091 2.032-.081 1.859-1.146-.447-1.227-.62-2.638-1.239-3.784 1.585-4.839 4.053-10.733.701-15.572.884-6.34-5.719-8.542-9.863-10.834-2.204-.254-4.408-1.4-6.267-2.901l-.782.883c-.884-.436-1.412-1.755-2.56-1.846-.884-2.465-2.285-5.458-4.937-6.421-3.078.7-5.729-.883-8.197-2.201-.609.355-.437 1.136-.264 1.501 1.331 3.865 6.176 1.227 7.578 5.103 2.123 3.601 4.764 6.33 8.817 7.385 1.585.964 3.616 1.055 5.292 1.938-3.525 2.638-8.461 3.074-12.697 2.201-3.961 0-8.106-1.146-11.895-2.374-.965-.71-2.377-.71-3.261-1.593-2.204-1.583-5.373-3.165-5.546-6.249-.437-2.191.62-3.693 1.32-5.711 3.789 4.403 9.518 5.985 15.419 6.421.091-.172.447-.264.356-.528-2.387-1.583-5.556-1.319-8.106-2.374-2.824-1.146-6.257-3.165-7.314-6.421-.091-2.556.792-4.758.701-7.304 4.581.964 9.518-.355 11.986-4.403 1.056-2.729.528-6.604-1.676-8.978-1.493-.964-2.997-1.846-4.754-2.029 1.493-.528 3.261-.172 4.754.71 2.021.355 2.113 5.275 3.87 1.846.274-1.938-.345-3.875-1.493-5.458 1.94-.619.091-2.374.183-3.52-1.148-1.41-3.179-2.282-2.56-4.22-1.585-3.084-5.018-5.549-8.278-5.285.701-.345 1.666.091 2.194-.7-1.666-4.048-6.958-.355-8.979-4.403-7.76-7.213-7.578-16.809-5.119-26.396 1.239-3.084 3.88-5.813 6.795-8.014 2.021-.609 5.018 0 6.43-2.638 3.606-1.583 6.613 1.755 9.518 3.52.782 1.583 2.814 2.729 3.078 4.575m46.612 38.287c3.708 2.11 4.937 5.894 8.817 7.294 2.377 1.41 4.937 3.266 6.785 5.285-.884.264-1.32 1.146-2.204 1.146-1.585-2.556-4.053-4.575-6.43-6.076-.356 1.856 2.285 2.82 2.905 4.403l1.148 1.846c-.62.183-2.113 1.593-2.204-.172-1.148-2.374-2.204-4.839-4.408-6.776-.437 0-1.056 0-1.148.528l2.204 7.131-.356.436c-1.32-2.465-.528-6.594-3.261-8.278-.965 1.329.091 2.82.538 4.058.254 1.319.518 2.729.874 3.956-.437.791-1.32.081-2.032 0 .274-3.165-.345-6.421-2.722-8.714-2.641.538-2.915-2.993-5.292-4.048-2.814-1.674-6.521-3.875-9.69-1.674-1.229 1.674-4.937.974-3.525 4.048l.884 2.374c-1.32 6.34-.975 12.68-3.088 18.666-.62-2.12-.965-4.575-1.849-6.776-.264-2.648-2.641-5.103-1.239-7.831 1.412-4.058 2.204-8.45 3.443-12.68.345-2.282 2.641-4.048 4.754-4.575 6.43.446 11.102 5.021 17.095 6.432m92.71-5.065c.01.172-.081.436.183.517.091-.081.183-.172.173-.355 2.621 3.571 2.529 8.582 4.632 12.508.213 2.201 1.92 4.372.813 6.411-1.788 3.459-2.164 7.436-2.885 11.23-2.052-6.036-2.438-13.076-3.596-19.305.681-1.238 1.534-2.84.63-4.23-.366-.436-.894-.599-1.513-.507-2.052-1.369-4.449-2.556-7.171-1.714-3.494 1.288-6.186 3.713-8.339 6.746-.264-.355-.884-.162-1.239-.162-2.245 2.242-2.895 5.427-2.397 8.41-.609.538-1.32.72-2.021.649-.234-2.993 1.493-5.133 1.706-7.953l-.62-.517c-2.346 2.069-1.93 5.488-2.946 8.237-.173 0-.264.183-.345.274.041-2.556 1.585-5.042 1.889-7.781-.264-.436-.711-.345-1.148-.335-2.082 2.151-3.525 4.9-4.632 7.558-.437.274-1.239-.142-1.676-.497.508-.883 1.107-1.856 1.625-2.749.325-1.156 2.956-2.08 1.96-3.551-2.255 1.877-4.866 3.774-6.318 6.35-.63-.335-1.168-.862-1.879-1.025.772-1.593 2.428-2.506 3.647-3.753 1.138-.112 1.392-1.177 2.346-1.714 2.539-1.096 4.703-2.993 6.338-5.397 1.046-.72 2.438-1.714 3.393-2.607 6.765-1.004 12.169-9.282 19.208-5.265l.183.528" fill="#BBBDBF"/><path d="M255.398 221.549c.356 1.41 1.056 2.648 1.138 4.23.183 1.938-.345 3.51-.965 5.103-2.021 6.066-8.725 10.114-14.272 12.315-9.609 3.084-20.793 3.611-29.874-.964-3.616-2.546-7.75-5.803-7.222-10.824-.528-2.12.965-3.429 1.32-5.285.701-1.4 2.377-2.729 4.053-2.901 1.849-.528 3.078.883 4.398 1.41 1.239 1.055 1.412 2.556 1.859 3.875.701 2.374-4.581 5.448 0 6.776.874.172 1.757.345 2.722.528 2.214.872 4.855.619 7.324.964 7.222-.528 15.328-1.674 19.645-8.268 1.239-2.029-1.585-3.439-1.138-5.285-.274-1.41.345-2.374.965-3.693 1.229-1.846 3.433-2.029 5.465-1.674 1.676.883 3.697 1.846 4.581 3.693m15.42-.7c0 1.846.173 4.22-1.32 5.63-.538 2.729 2.113 4.403 3.87 6.076 7.669 4.301 19.472 5.803 27.669 1.674.437-1.765-.609-2.384-1.239-3.703-.081-2.293-.609-3.875 1.067-5.721 1.676-1.583 4.144-2.282 6.43-1.41 3.433 2.384 4.226 6.868 3.433 10.834-1.493 4.829-6.247 8.004-10.93 9.505-.782 0-1.839.528-2.814.872-13.743 2.465-28.899-.446-36.832-11.879-2.113-3.611-1.585-9.333.965-12.67 1.767-1.765 4.327-2.638 6.785-2.029.975.791 2.387 1.501 2.915 2.82m-11.192-3.692v.7c-4.581 1.146-8.106-2.729-10.483-5.985 1.32-1.146 3.088-.172 4.581-.172 2.468.872 4.754 3.074 5.902 5.458m7.486-2.385c-1.493.183-3.078 1.146-4.754 1.319l-2.915-3.52c1.239-.7 3.179-1.583 4.764-.7 1.32.528 2.204 1.765 2.905 2.901m-19.208.183c-1.849 0-2.55 1.4-4.226 1.664l-4.226-4.393.173-.528c3.433-.619 6.43.609 8.278 3.256m38.691-1.054c.528.781.528 2.282 0 3.074-.975.71-1.94 1.846-3.179 1.055-2.377-1.227-3.078-3.429-4.581-5.458 1.767-.872 3.352-.7 5.201-.7.792.619 2.021.883 2.56 2.029m-9.163 1.227c0 .964 1.574 1.319 1.229 2.374-1.676 1.146-3.88.974-5.637.183-2.032-.974-3.261-3.348-4.236-5.285 1.859-1.146 2.824-.091 4.937-.172 1.412.609 2.732 1.583 3.708 2.901m-37.28 1.49v.538c-3.342.791-7.578 1.227-9.69-1.846-.356-.883-.091-1.938.345-2.739 3.799-1.846 7.049.974 9.345 4.048" fill="#F0B83D"/><path d="M246.581 160.743c.528.964-.345 2.465.711 3.165 2.194-.264 5.902 1.501 6.775-1.491v-1.501c1.595-.528 3.535-.345 5.201-.172.711.964-.173 3.084 1.412 3.165 1.849-.791 5.201.974 5.902-1.491v-1.674c2.123-.883 4.581.172 6.785-.172.447.7.792 1.583.356 2.374-.965.345-2.377 0-2.732 1.319 0 1.491-1.056 2.81-2.204 3.429-.965.883-3.169-.264-3.078 1.674-.183.71.264 1.583-.447 2.029-5.373.609-11.366.264-16.476-.183-.701-.872.091-2.81-1.676-3.337-1.493-.446-3.525-.183-4.398-1.765-.264-.883-.091-1.846-1.056-2.465-.538-.436-1.503.264-1.859-.528-.965-4.311 4.673-2.374 6.785-2.374m18.506 14.251c-.356 1.146 1.056 3.875-1.229 3.348l-14.109-.172c-.874-1.065-.081-2.384 0-3.52 4.581-.264 10.046-.264 14.983 0l.356.345m.172 5.903l.447 12.843c-4.591.172-10.838 0-16.75-.172.183-4.23-.437-9.505.528-13.38l.62-.355 14.627.183.528.883m1.676 14.687c.884 1.41.264 3.52.701 5.103l-.701.355-20-.183c-.356-1.664 0-3.51.356-5.092 6.958-.791 12.951-.091 19.645-.183m2.732 8.359c.528.974.528 2.648 0 3.52-8.014-.436-16.923.183-25.11-.528-.447-.883 0-2.191.345-3.165 8.461-.264 16.923-.264 24.764.172" fill="#BBBDBF"/><path d="M245.525 140.769c-1.412 1.583 1.94 3.784-.792 3.865-.701-3.51-5.902.355-4.581-4.048-.356-.7-1.94-.609-1.585-1.4.884-.264 1.849-.974 2.377-1.856-.965-1.846-2.824.791-3.87-.345.264 0 2.377.172 2.905-.974-.183-2.019-2.824-.528-4.063-1.227l-.345.528c-.62-2.82 1.056-5.021.792-7.476-.711-.883.356-1.501.528-2.201 1.757 5.366 10.31 8.531 8.634 15.135m38.508-.884c.183.791-.264 1.846-.965 2.556-1.503 1.319-4.327.964-4.764 3.074 1.595 1.319 2.732-.609 4.236-.7 1.229.091 2.458-.091 3.515-.71 1.412-1.227 1.859-2.81 2.56-4.393.437-.355 1.056-.183 1.585-.183-2.204 2.556.792 7.568-3.078 9.15-1.239.538-3.088.274-4.236-.7-.792-.791-1.493-1.755-2.55-1.674-1.056 1.856 2.285 2.82 2.021 4.758.264 1.755-.528 3.348-2.021 4.22h-2.56c.884-.528 2.377-.7 2.905-2.019.792-1.765-.609-3.084-.874-4.585-1.331-1.664-3.535-2.374-5.119-2.019-2.458.619-5.546 1.938-6.074 4.748-.356 2.029-.356 4.758-.528 6.432-1.503-2.648-1.32-6.695.528-9.333 1.148-2.11 4.053-1.491 4.581-4.048 2.905-2.729 8.37-1.055 9.69-5.721.701 0 .701.791 1.148 1.146m-34.892 6.078c-.264 1.227-1.056 2.993 0 4.129 1.32.183 1.849-1.491 2.997-1.927l3.961-.801c-1.767 1.146-3.433 2.911-5.282 3.875-.62.355-.802-.528-1.331-.528-1.046.619-.782 2.293-2.194 2.729.437-.791.874-1.755.609-2.556-.264-.172-.437-.528-.792-.345-.965.872-.965 2.11-2.021 2.901-.264-.528 0-1.583-.884-2.029-1.493.183-.711 4.058-2.55 1.674-.975-.081-1.412 1.146-2.204 1.41.345-.264.345-1.755-.711-1.938l-1.849 1.41-.173-1.674c-1.412-.609-2.296 1.146-3.352 1.674-.528-.964 3.179-1.583 1.148-2.901-1.148-.183-1.676 1.227-2.732 1.227.528-1.674 2.56-1.055 3.088-2.546 1.574.964 3.961.609 5.455-.355 2.296-2.638 5.729-3.348 8.817-3.429m9.954 3.784c-.528 1.938-.701 5.011.173 6.949v1.319c-2.377.436-5.637-.172-7.405.528-.437 1.238.183 2.201-.518 3.348l-2.204-.183c-.701-1.136.792-3.256-1.239-3.693-.437.172-1.138.172-1.493-.355-.173-1.583 1.32-1.938 2.377-2.546 1.676-2.11 4.317-2.82 6.084-4.758 1.402-.264 2.641-1.4 3.433-2.81 1.767-.091.264 1.41.792 2.201m6.958-30.89c.62-.355.528-1.319 1.412-.974 1.767 1.146.792 5.113 3.88 4.048 1.056 1.846-3.789 1.501-1.849 3.703.609-.183 1.493-.355 1.666.528-.081.883.183 2.11-.874 2.374h-.447c0-.7.975-1.583-.173-2.029-.792-.172-1.056.446-1.412-.345.091-.446.884-.883.356-1.501-.975-.172-1.849-1.846-2.905-.7-.62-.355-.264-1.41-1.148-1.319-.701-.183-1.493.355-2.032.964-.264-2.282-.437-4.139.183-6.604 1.32.274 2.021 1.765 3.342 1.856m-30.136 3.428c-2.113.791.447 3.165-1.402 4.22.091 1.501.528 2.729-.356 4.058-1.32-.883-1.94-2.465-2.56-3.875.538-1.765.975-3.784 2.113-5.103l.447-1.329c.884.274 1.148 1.41 1.757 2.029m22.744.791c0 .264 0 .964.609 1.227h.528c.183.538-.528.446-.528.883-.081.883.62 1.674 1.412 1.856.62.081 1.056 0 1.493-.355-.701.264-1.666 1.055-2.55.7-1.32-.609.356-2.901-1.493-3.084-1.239 1.065-.528 3.084-1.412 4.058-.356 1.491-1.767 2.81-.965 4.575-.447 1.755-2.032 1.938-3.443 2.546-1.585.355-3.261.355-4.581 1.055.62-3.693 5.993-2.11 6.958-5.975-1.229-.974-2.194.872-3.342 1.227l-1.859.619c-.173-.883.62-1.674 1.148-2.384 1.056-.345 2.296-1.583 3.433-.791.975-.081.528-1.319.447-1.846-.965-.883-.62-2.019-.183-3.084l.356-.345c.447.7 1.148 1.41 2.032 1.491 1.056-1.055-.711-2.901.701-4.048.711.528 2.021.264 1.239 1.674m.264 12.935c-1.412 1.856-2.651 3.348-2.651 5.549.356.436.802.619 1.331.528-1.239 2.82-4.5 2.374-6.44 4.22.091-2.546 4.053-3.693 4.236-6.594-.264-.355-.528-.446-.884-.355-1.493 1.765-3.433 3.52-4.764 5.458-1.046-2.293 3.972-4.048 3.271-7.487 2.194.264 3.87-4.656 5.902-1.319m-7.934 1.674c.62 2.556-2.905 3.52-3.443 5.63-.874-1.136-.701-2.11-.254-3.601.528-1.593 2.194-1.938 3.697-2.029m11.183-6.249c-.081.446-.518.619-.701.974h-.792c-.173-.528.356-.801.437-1.146.356.081.792-.091 1.056.172m6.786 1.846c.274.528-.345.528-.518.71-.975 0-1.056-1.055-1.331-1.765 0-.345.091-.964.528-.791 0 .791.62 1.583 1.32 1.846m-2.722 1.329c.792.7 1.493 1.4 1.402 2.546-.081-.091-.173-.264-.345-.172-.091.528.345 1.055-.356 1.583-.965-.974-.264-3.439-2.032-3.956-1.138.781-.081 2.019-.173 3.074-.792-.883-2.56-1.319-1.849-2.729.884-.528 1.239-1.938 2.377-2.201l.975 1.856m-2.914 5.974c-.874-.791-.609-2.019-1.666-2.719.874.436 1.757 1.583 1.666 2.719m-1.666 2.729l-.538 1.146c.447-1.846-3.078-3.337-.254-4.748.518 1.136 1.31 2.374.792 3.601m-2.306-12.669l-.813-.609s-.213.71.193 1.227c.416.507.62-.619.62-.619m4.673-.729s1.056-.791 1.889-.812c-.295.03-1.168.061-1.168.061s-.416-.67-.416-1.948c-.254 1.39-.67 2.252-.67 2.252l.366.446" fill="#F0B83D"/><path d="M357.696 170.076c3.789 1.136 7.314 5.103 8.634 8.795 2.56 9.86 1.676 20.948-6.958 27.451-2.55.619-5.983 0-7.141 2.82.264 1.146 1.503 0 2.032.883-2.997-.355-5.556 1.755-7.578 4.048-.183.964-1.056 1.938-.711 2.901-1.757 1.501-3.169 3.175-2.905 5.458.183.355.528.446.884.446-1.32 1.846-2.204 4.393-1.056 6.33.173.264.356.528.701.436 1.148-2.019 2.56-3.429 4.754-4.048h2.732c-2.377.71-5.282 1.674-6.166 4.403-1.138 2.11-1.138 4.839 0 6.949 2.113 2.993 5.648 4.93 9.701 4.585l1.839-.538c.183 3.439 2.123 7.659-.965 10.215-3.433 3.956-8.37 4.484-13.032 5.539-.183.172-.538.355-.538.7 1.331 1.065 2.905-.436 4.581-.172 4.063-1.227 8.116-2.374 11.194-5.894.965 2.293 2.032 5.366.528 7.74-1.767 2.029-4.226 4.048-6.785 4.93-6.166 2.911-13.652 4.403-20.884 3.256h-.528c-.345-.436-1.229-.436-1.849-.7-.62-.883-2.468-.264-2.377-1.674 5.902-1.319 11.895-4.403 14.718-10.033 1.666-2.729 6.602-1.055 6.958-5.366-.975-.7-1.849.619-2.824.964-2.113.538-3.789 1.319-5.993.883-2.641 1.055-3.961 3.966-4.571 6.421-1.148.091-1.686 1.41-2.56 1.846-1.32-1.927-2.651 1.238-4.053 1.501-1.331.355-2.123.081-3.352.71-3.352 2.019-8.197 3.601-9.335 8.004.345 3.875-2.824 7.04-1.595 10.469.356 3.703 3.972 7.476 1.056 11.179-.345.791.538 1.4 1.067 1.491 1.138-.436 1.229.71 1.676 1.238 1.493 1.755 3.606 3.165 5.373 4.748-2.032.172-3.972-1.491-5.201-2.901-.264.264-.894.264-.894.7 1.331 2.293 2.387 5.366 5.119 6.249.356.264.091.791.528.883.183-.964 1.32-.355 1.859-.355.173.264.437.355.345.619-4.144 1.146-5.637-3.348-7.669-5.894.091-.791-.264-1.501-.874-1.846-.792 0-1.676 0-1.859.7.884 4.403 2.113 9.069 5.993 12.325-4.926-2.211-4.49-8.105-6.785-12.062-.528-.264-.965.355-1.056.7.183 4.494.711 8.886 2.732 12.589-2.824-.528-2.997-3.784-3.616-5.985-.437-5.103 1.158-10.033-.965-14.517.091-5.366.701-11.707-.528-17.164.447-2.374.356-5.011 1.493-7.131 2.032-2.638 4.063-5.184 6.521-7.385l.274.172.701-1.41 8.461-8.44c.437-3.611-.802-7.923.173-11.707 0-.619 1.056-1.319.173-1.846-1.493.609-1.676 2.374-2.194 3.693-.366 3.429.701 6.776-.975 9.678-1.32.619-1.849-.091-2.204-1.319 0-2.729-.792-5.194 0-7.649.091-.629-.091-1.156-.528-1.684-1.849.446-.965 2.648-1.412 3.875v9.678c-2.113-8.095-1.493-16.718 3.616-23.758 2.021-10.733 10.666-21.202 20.884-25.696 1.94-.7 3.87-3.611 6.084-1.583.345 0 .701-.091.874-.355.173-.791-.701-.609-.874-1.146 1.32-1.227 3.078.974 5.109.183.345-.091.173-.446.173-.71-.62-.528-1.412-.436-2.032-1.136 1.94.609 4.144-.091 5.201-1.41-.965-.619-1.93.436-2.722-.355.528-1.136 1.93-2.374 3.078-3.348 1.148-2.546 3.697-5.011 2.732-8.004-1.412.436-1.148 2.201-1.676 3.256-.884 1.146-.965 2.993-2.732 3.256-1.493 0-2.732-.091-3.88 1.319-1.402-1.146-2.468 1.501-3.961.528-2.824-.609-2.468-4.129-4.754-5.275-1.239 1.319.874 4.22-1.849 4.575-1.331.264-2.824.791-3.362 2.201.091 1.674.183 3.52-1.574 4.22l-.62-.172c.62-1.146 1.585-2.374.965-3.875-.173-.964-1.32-1.41-2.021-1.846-3.697-.436-5.902 6.33-9.518 2.029-.609-10.124 11.895-13.289 14.983-21.567 2.814-2.638 6.074-5.63 10.127-5.366 1.676 1.055 3.088 2.901 5.465 2.556m3.525 97.415c-6.166 6.685-14.718 9.414-23.525 8.795-2.204-.436-3.708-1.055-5.82-1.846-2.285-1.146-3.078-3.611-4.226-5.64 9.518 2.029 19.208.091 26.969-4.575 1.757-1.491 3.606-2.901 5.455-4.393.884 2.374 2.905 5.103 1.148 7.659m3.432 3.165c.711 1.227.62 2.993.356 4.403-2.905 5.366-9.081 7.558-14.8 8.531-6.257-.091-14.454 1.41-17.095-6.158l-.173-.183c1.676-.172 3.961 1.146 6.247.883 9.081.71 17.898-3.074 23.617-9.85 1.412.172 1.056 1.674 1.849 2.374m3.706 8.978c.701 2.638-1.503 4.129-2.56 5.985-6.43 4.839-16.303 8.095-23.881 3.52-.965-1.41-2.113-2.729-2.905-4.23 4.144.355 9.609 1.765 14.099.183 4.053-.883 7.486-2.993 10.838-5.64.884-.964 1.767-2.465 2.905-2.81l1.503 2.993m2.906 7.476c-.701 4.666-5.993 8.45-10.219 9.678-4.226 1.238-9.873 1.938-13.388-1.227l-2.204-2.556c3.515-.091 8.451.355 12.067-1.136 2.814-.619 5.637-2.556 8.278-4.058 1.503-1.319 2.296-3.337 4.053-4.393.792 1.055.711 2.546 1.412 3.693m1.86 5.456c.701 2.019.345 4.575-1.158 6.076-3.515 4.748-9.508 6.158-15.328 5.103-2.377-.71-3.88-2.029-5.373-3.966 7.933.883 16.912-1.846 20.529-9.586.884.345.792 1.674 1.331 2.374m1.046 12.314c-3.342 4.311-9.518 4.758-14.272 3.875-1.32-.528-2.204-1.846-2.905-2.993 6.511.974 13.743-1.319 17.451-7.476.965 1.927 1.138 4.748-.274 6.594m1.33 6.959c-3.535 2.465-8.817 3.165-12.87 1.491-.965-.355-1.056-1.491-1.585-2.201 5.201.183 11.194-.436 14.627-5.366.792 1.765.965 4.494-.173 6.076m-.537 6.594c-2.722 1.674-7.039 1.501-10.127.183-.528-.801-1.412-1.674-1.056-2.556 4.317.791 8.715-.355 12.25-2.556-.356 1.238.792 3.966-1.067 4.93m-.356 4.757c-2.458 2.019-6.338 1.583-8.979.355-1.056-.801-.701-1.501-.792-2.739 2.997.883 7.405 1.593 10.31-.528.081.883-.091 2.029-.538 2.911m-.966 2.547c-.437 1.765-1.402 3.256-2.377 4.758-2.021.355-4.408.436-5.81-1.238-.528-1.319-1.239-2.282-.447-3.693 2.732.883 5.912 1.491 8.634.172m-5.81 6.605c.701-.528 1.666-.355 2.377-.183-3.789 5.194-8.99 9.16-14.891 10.215-4.144-.091-8.197 1.491-11.011-1.938-.528-1.319.081-2.638.965-3.693 4.754-3.52 10.401-3.52 15.775-5.721l.173.264c-1.229 2.465-3.961 4.575-6.257 5.985v.528c2.468.791 3.961-1.938 6.257-2.384.264 1.501 1.94 1.501 2.915 1.674.173-.172.518-.345.518-.7-.955-.7-2.113-1.055-2.377-2.374.447-1.319.62-2.729 1.859-3.703.792 1.238 2.285 1.765 3.697 2.029m-18.599-169.572l-1.056-1.065-.518.71c.254.172.081.528.173.7-.62-1.583-1.148-3.429-.975-5.103 1.239 1.41 2.204 2.901 2.377 4.758m-4.135 1.664c.173.355-1.067-.7-1.32.355v.883c-.792-.883-1.595-2.029-1.056-3.256.965.172 1.93 1.055 2.377 2.019" fill="#BBBDBF"/><path d="M314.079 239.687c.528 3.956 2.468 7.294 3.261 11.169-1.757 1.501-4.053-.883-5.282 1.501-2.905 3.601 1.412 9.586-3.088 12.579-2.56 5.549-.792 12.579-.62 17.956-.609 4.048-.528 8.704.802 13.025-4.063-16.201-11.905-33.446-4.591-50.164 1.94-3.165 5.028-6.604 8.99-6.604l.528.538m43.617-79.116c.528 1.755-1.767 3.337-.173 4.393 1.94-1.4 1.849-5.103 4.937-5.275 0 2.019-1.239 3.956-1.595 5.985l.356.436c2.204-1.319 2.204-4.22 4.937-4.666.173 2.293-1.503 4.23-2.204 6.249 1.412.619 1.849-1.227 3.088-1.846.792-.264 1.412-.964 2.377-.7-.701 1.846-3.169 3.165-2.732 5.103 1.767 0 2.56-2.901 4.581-2.729-.884 1.938-3.697 2.993-2.905 5.103 1.93-.355 2.905-2.993 5.109-2.546-.528 1.846-4.317 3.074-3.088 5.366 1.331-.355 2.204-2.029 3.789-1.674-1.32 1.055-3.961 2.201-3.433 4.22 1.94-.528 3.525-2.901 5.637-2.019-.254.609-1.412.883-1.229 1.846.173.964 1.229.7 1.849 1.227-1.493-.791-3.088-.081-4.236.791.366 1.41 2.032.183 2.743 1.065-.447.172-1.056 0-1.331.528.437 1.319 2.123 1.664 3.525 1.664 1.503.71 2.204 2.201 2.915 3.52-2.468 0-3.525-2.201-5.82-2.374-.528 0-.792.791-.345 1.055 2.021 2.11 5.902 3.439 5.983 6.776-2.204-1.055-4.134-2.82-6.785-2.901-.701 1.755 1.676 1.846 2.56 2.729 1.229 1.146 2.285 2.374 2.56 3.875-1.595-1.583-3.708-3.53-6.003-3.348-.345.264-.173.791-.173 1.146.264.791 1.148.345 1.585.7 3.789 2.465 3.179 7.131 4.855 10.652-3.708-1.227-3.525-5.813-7.06-7.131-1.229 1.227 1.331 2.374 1.676 3.611 1.767 3.165 2.915 7.568 1.148 10.996-4.937 4.93-12.423 7.223-13.926 14.435-2.204 5.011-9.863 4.139-9.599 10.469-1.239-1.055-.447-2.82-.183-4.048 1.94-3.693 7.232-2.201 8.289-6.249-.264-.436-.711-.355-1.148-.355-3.261 2.638-9.071 3.266-9.69 8.45-.183 1.329.701 2.293.965 3.52-1.666-.791-2.905-2.81-3.169-4.575.173-2.465 1.331-4.575 3.697-5.721 3.433-.883 7.496-1.583 10.401-4.393.091-.355 0-.71-.356-.883-2.285.791-5.018 1.583-7.486.7-2.641-1.055-5.637.264-7.933 1.674 0-1.41 1.32-2.465 2.377-3.348 4.5-1.664 8.898 1.41 13.835.619.538-.528 1.056-1.238.884-2.201.884-.345 2.032-.791 2.387-1.674-.884-.436-2.56 0-3.708-.345-3.078-1.146-2.814-5.458-6.613-5.549h-3.25c1.138-1.055 2.895-1.055 4.398-.7 4.053 1.41 4.937 7.831 10.219 5.458.62-.446 1.595-.183 2.032-1.065l-.701-.7c-1.767-.264-3.88.436-5.292-.609-1.676-2.12-1.849-5.021-4.398-6.604 1.32-.183 2.722.355 4.043.964 2.468 2.82 5.201 6.168 9.345 4.758.528-.355 1.32-.355 1.757-1.146l-.173-.528c-2.55-.355-6.521.528-7.842-2.729-.447-.619 0-1.227.183-1.856 1.839 1.948 4.662 4.494 8.106 3.53.884-.791 2.814-.528 2.905-2.201-1.148-1.501-2.113.436-3.352.355-1.503.081-2.997 0-3.961-1.146-1.859-4.758 3.88-7.75 3.261-12.762 1.849-9.769-.447-21.739-9.69-27.897-2.387-1.319-4.947-2.465-7.588-3.256-.701-1.41 1.239-2.374 1.859-3.348.254-.964.965-1.846.782-3.074.63.436.975 1.41 1.239 2.201m.524 59.925c-3.697 1.055-6.785-4.839-11.194-2.465 1.676-1.846 4.236-1.674 6.43-1.227 1.95.7 2.56 3.52 4.764 3.693m6.257 22.265c-.62 2.638-2.021 6.513-.173 9.15.792 1.765 2.377 2.993 3.697 4.23-1.402 2.374-2.641 5.275-.792 7.74 1.148 2.11 5.465 2.201 2.824 5.103-.711 1.583-.62 2.901-.62 4.758-4.845-10.652-9.426-22.186-8.817-34.41 1.148 1.227 2.377 2.901 3.88 3.429m10.667 37.575c-.356 2.11-2.387 3.956-1.148 6.249.965 1.755 2.56 3.348 4.226 4.22-.792 1.501-1.229 3.256-1.849 4.94-2.285-6.34-3.433-13.208-5.993-19.457 1.331 1.674 3.179 2.729 4.764 4.048m4.581 22.531l-1.849 2.019c-.447-1.755-.528-3.693-.711-5.539.63 1.583 2.032 1.846 2.56 3.52" fill="#F0B83D"/><path d="M312.159 236.613c-.569.172.65-.883.731-1.532.081-.659.406 1.461.406 1.461s-.569-.081-1.138.071" fill="#231F20"/><path d="M345.629 221.031l.701-.538h.528l-1.229.538" fill="#BBBDBF"/><path d="M356.02 234.929c.701 1.227.274 2.81.437 4.22-.528.791-1.31 0-1.839 0-1.067-.7-1.676-1.927-1.158-3.165.447-.619.63-1.583 1.331-1.938.884-.355.792.791 1.229.883" fill="#F0B83D"/><path d="M350.027 174.124c.975-.355 2.123-.091 2.915.528.447.964-.711 1.055-1.056 1.491-3.708.883-6.613 4.758-10.838 2.729.173-.974.965-1.765 1.412-2.729.701-.964 1.666-1.846 2.814-2.201 1.585.091 3.352 2.374 4.754.183" fill="#231F20"/><path d="M376.03 284.738c-.711-2.384 5.729-5.813 0-6.249-1.067-.71-2.387-1.41-2.905-2.729 3.433-.791 6.948-1.319 10.655-1.674.528.355 1.32.183 1.757.791 1.056.528.792 2.11.62 3.084-.965.964-2.032 2.201-2.997 2.729 0 .355-.701.883 0 1.146-2.133 1.298-6.43 2.729-7.131 2.901" fill="#BBBDBF"/><path d="M388.717 230.181c1.676 1.664 2.814 3.865 5.109 4.92.528-.081.792-.619.965-1.055 2.387 2.729 3.352 6.513 4.764 9.86.356 0 .792.091 1.056-.355.965 2.546.356 4.839.518 7.831 1.767 2.901.63 6.868-.345 9.769l-4.226 5.458c.884 1.055 1.585 0 2.55-.183 2.113-.345 3.708.446 5.201 1.501-.701 2.201-2.113 4.575-4.398 5.63-.528.183-.711.71-.528 1.319 1.747 1.329 4.317.791 5.81 2.901 1.849 1.938 2.55 4.321 3.525 6.604-1.757.883.091 2.465-.173 3.784-.274 2.029 2.458 4.575.173 6.249-.62 2.293-1.412 4.494-1.32 6.949-1.94 2.293-2.56 5.113-5.465 6.432-1.585.964-3.088 2.638-4.226 4.048-.884-1.765.792-3.693.701-5.721 1.32-4.23 3.961-8.359 2.204-13.289-1.148-4.575-5.028-8.095-9.518-9.242-4.408-.528-8.99-.528-12.87.619l-2.194.528c3.433-1.268 4.947-1.958 7.131-2.901 1.94-1.329 4.764-2.556 5.201-5.194-.264-1.065-.356-2.293-.965-3.256-2.204-2.029-4.673-.71-7.324-1.146l-3.87.436c6.958-4.656 12.25-12.315 13.571-20.765.874-7.121-.711-14.78-1.412-21.729h.356" fill="#F0B83D"/><path d="M391.978 235.629c3.261 9.678 2.113 20.776-1.849 29.662-.356.7-1.148 1.583-1.94.964-.62-1.41.701-2.901 1.402-4.23 2.651-7.121 4.408-15.308 2.032-23.048-.437-1.238-.792-2.546-.356-3.875.264 0 .528.355.711.528m6.257 14.079v.619h-.528v-.964c.254 0 .528.081.528.345m-2.204 12.853c-1.32 1.664-1.94 4.403-4.408 4.748-1.056-2.282 2.296-3.256 2.732-5.448 1.94-3.003 2.377-6.604 3.169-10.124l.528-.355c.183 3.875-.874 7.659-2.021 11.179m7.933 20.502c1.94 3.175 2.905 7.476 1.94 11.179-.711-.964-.102-1.846-.538-2.901-.792-4.494-2.905-8.724-7.131-11.707-.091-.619.264-1.41 1.148-1.146 1.747 1.227 3.25 2.82 4.581 4.575m-.803 14.08c-.792 4.048-1.839 8.45-4.053 12.143-.264-.172-.356-.619-.356-1.136.356-.893.894-1.765.975-2.911.884-3.165 2.032-6.249 2.387-9.678-.183-3.966-2.123-7.568-4.937-10.652-.183-.436 0-.964.528-1.055 4.408 2.911 6.084 8.542 5.455 13.289" fill="#231F20"/><path d="M417.26 329.961c.711 5.813-4.926 11.007-9.162 14.091l-3.261 2.019c-1.757-3.956-3.261-8.45-4.408-12.843 3.535-2.993 8.025-3.784 12.514-4.93 1.595.791 3.352-.264 4.317 1.664zm10.666 8.106c1.94 8.268 7.405 15.663 5.902 25.077-5.81 12.407-19.472 18.128-30.839 23.413-1.32.345-2.56.872-4.053.872-3.352-9.059-5.902-18.392-8.37-27.806 1.148-.609 3.078-.436 4.408-1.319 12.067-4.048 25.993-10.297 31.103-23.586.874.619 1.239 2.201 1.849 3.348z" stroke="#fff" stroke-width=".625" fill="#00B6F1"/><path d="M379.555 358.305c-.183.791-1.067 1.491-1.676 1.846-1.412.883-2.732 1.765-4.236 2.374.884-1.4 3.616-3.51 5.912-4.22z" stroke="#00B6F1" stroke-width=".625" fill="#00B6F1"/><path d="M155.823 377.934c14.8 4.311 29.437 8.795 44.765 11.696 12.159 3.256 25.638 4.23 38.863 5.549 19.289 2.465 38.853-.528 57.177-2.384 14.282-2.019 28.106-5.275 41.687-9.14 16.039-4.494 32.332-8.278 46.339-17.6l3.535-4.058.701.71c2.641 10.469 6.084 20.593 9.69 30.626.884 3.601 1.767 8.359-1.402 10.996-24.145 13.725-50.494 20.147-77.808 26.132-5.556.619-11.549 1.765-17.014 2.556-19.818 2.465-41.758 2.982-62.205 2.465-7.049-.274-13.479-.883-20.356-1.674-10.127-.436-19.645-2.556-29.345-4.23-25.465-5.448-51.103-12.041-73.663-24.722-2.824-2.019-3.433-5.011-2.905-8.095 2.641-9.678 6.43-18.828 9.162-28.516.62-2.282 1.056-4.575 2.204-6.594 8.461 9.242 19.736 12.407 30.575 16.282z" stroke="#fff" stroke-width=".625" fill="#00B6F1"/><path d="M359.199 362.525c-3.179 1.856-6.521 2.638-10.137 2.384-.356-1.055 1.32-.71 1.849-1.41 2.824-.791 5.201-.791 8.289-.974zm-12.169 10.306c-.874.436-2.814 1.055-4.571 1.055-.447-.528-.356-1.593-.356-2.201l4.926 1.146z" stroke="#00B6F1" stroke-width=".625" fill="#00B6F1"/><path d="M422.999 325.386c3.25 7.314-1.331 14.263-6.44 19.193-6.613 5.803-14.627 9.15-22.733 11.788l-3.88.528c.356-.872-.701-1.319-.356-2.201 11.377-3.693 23.18-8.531 29.701-20.147.792-1.938.975-4.311 0-6.249-2.032-2.729-4.937-1.938-7.842-1.846-4.581 1.319-9.162 2.465-13.042 5.366l-.528 1.227c1.767 4.666 3.088 9.424 4.581 14.172-.884.619-2.113 1.055-3.078 1.583-1.94-2.81-2.296-6.685-3.88-9.85-.173-3.348-4.937-7.659-.528-10.124 6.602-3.439 13.835-6.076 21.412-6.776 2.377.091 5.018 1.055 6.613 3.337m-264.444 41.195c3.169.7 7.222 1.309 9.599-1.238.711-1.846-1.493-2.729-2.458-3.52-4.937-2.374-11.194-2.11-16.831-2.374-.884-.71-1.767-1.238-2.56-2.201 6.877-.791 14.19.436 20.711 1.846 2.113 1.491 5.546 1.938 6.084 5.103.437 2.029-.62 3.875-2.214 4.585-5.109 2.11-9.508.872-14.891.172-5.282-.974-9.772-3.966-13.743-8.186-3.088-2.993-6.43-6.776-10.655-5.366-.792.791-.894 2.11-.528 3.165l.965 1.583c6.958 5.458 14.891 8.45 22.916 11.179 2.905.883 6.074 2.282 9.335 3.165 19.645 5.194 38.244 11.27 59.219 13.38 8.715 1.491 18.853 1.846 27.659 2.719l.356-.345c25.912.081 49.082-2.901 73.216-8.805 5.201-1.4 9.701-2.81 14.983-4.048 11.631-2.901 23.261-6.949 34.282-12.051 3.261-2.465 9.609-3.52 8.644-8.978-.711-1.41-2.57-1.146-3.88-.964-7.141 3.165-11.285 12.325-19.218 13.38-6.338.7-14.007 3.865-18.68-2.029-.081-1.501-.081-3.084.884-4.23 4.226-4.037 10.137-4.129 15.775-5.103h10.137c-1.686 4.494-6.877 1.41-9.792 2.556-3.87.609-8.37.7-11.539 3.52-.356.7-.965 1.664-.173 2.374 4.317 3.256 10.219.355 14.708-1.146 7.933-4.048 13.743-15.308 24.145-11.696 1.32.517 2.204 2.019 2.387 3.337-.091 3.348-2.387 6.249-5.119 8.014-5.983 4.656-13.032 7.213-20 9.941-23.881 8.014-49.346 13.989-75.156 17.337-7.496.355-15.074 1.491-22.743 1.846-18.142.172-36.029-1.227-53.744-4.403-1.412.355-2.732-.609-4.226-.528-23.088-5.194-46.085-10.205-67.589-19.792-5.028-2.911-13.479-6.432-12.342-13.735 1.056-2.019 2.997-2.82 5.119-3.256 10.919.355 16.557 12.934 26.958 14.79" fill="#F0B83D"/><path d="M113.445 332.873l-4.408 12.67c-5.465-2.638-10.574-7.294-12.778-13.198-.091-1.227-.091-2.556.701-3.52 3.443-1.674 7.232 0 10.483.791 2.123.883 4.236 2.11 6.003 3.256zm-21.423 9.505c7.933 9.769 19.746 13.198 30.849 16.9-.264 3.246-1.767 6.421-2.468 9.678-1.585 5.194-3.261 10.286-4.937 15.399-1.056.791 0 3.956-2.377 2.729-10.493-3.429-20.447-8.45-28.726-16.809-3.616-4.048-6.968-9.059-5.028-14.527 1.859-6.949 5.109-13.37 7.141-20.329l.792-1.4c1.056 2.993 2.732 5.894 4.754 8.359z" stroke="#fff" stroke-width=".625" fill="#00B6F1"/><path d="M140.231 362.352c-2.204-.872-5.028-2.374-5.82-4.403 2.296.71 4.144 2.729 5.82 4.403zm24.581 1.846c0 1.055-1.32.264-1.849.71-2.468-.528-5.729-.791-7.852-2.556 3.443.172 6.887.172 9.701 1.846zm7.141 7.304c-.356.791 0 2.029-.884 2.384l-4.236-1.238c1.686-.528 3.443-.7 5.119-1.146z" stroke="#00B6F1" stroke-width=".625" fill="#00B6F1"/><path d="M112.734 325.569c2.732 1.41 5.82 2.11 8.106 4.575-.62 3.875-2.55 7.131-3.525 10.824-1.229 2.374-1.32 5.194-2.732 7.487-1.138-.183-2.285-.974-3.078-1.501.264-2.201 1.32-4.748 1.757-6.949.975-2.201 2.032-4.403 2.56-6.776.528-1.846-1.585-2.556-2.732-3.266-4.764-2.719-10.666-4.575-16.13-4.037-1.32.355-2.641 1.491-3.078 2.729-1.056 8.095 6.602 13.725 12.423 17.945 5.546 3.348 11.366 5.721 17.441 7.75.447.609 0 1.674-.345 2.374-7.141-1.41-13.835-4.139-20.011-7.923-7.75-4.311-15.064-12.234-13.743-21.202.528-2.911 3.352-5.377 6.257-5.904 5.902-.081 11.631 2.029 16.831 3.875" fill="#F0B83D"/><path d="M125.4 398.101c1.544.426 2.296.528 2.956-1.085l4.693-11.605c-.691-2.242-1.056-2.475-1.371-2.607l.244-.609 5.17 2.09 4.276 13.888.051.01 3.007-7.416c.589-1.471.62-2.394-1.3-3.348l.244-.599 5.272 2.12-.244.609c-1.859-.487-2.235.02-2.712 1.197l-5.83 14.415-.691-.284-5.536-17.671-.051-.02-3.961 9.799c-.711 1.765-.386 2.435 1.351 3.368l-.244.609-5.566-2.242.244-.619m23.442-8.998l14.505 4.707-1.635 5.052-.63-.203c.579-3.764-.995-4.961-4.388-6.066-1.392-.446-1.869-.487-2.225.578l-1.899 5.833c2.407.801 3.911.568 5.302-2.425l.65.213-2.763 8.491-.66-.213c.721-3.236-.315-4.403-2.804-5.214l-1.971 6.076c-.366 1.106.02 1.562 1.646 2.09 2.468.801 5.241.984 8.065-2.293l.701.223-2.702 4.9-14.708-4.768.203-.629c1.483.314 2.285.487 2.793-1.075l3.951-12.143c.538-1.664-.498-2.059-1.635-2.506l.203-.629m39.697 11.474c-.914-.132-1.625.355-2.164 1.238l-8.725 14.304-.691-.172-1.554-13.035-.173-.03-7.476 10.956-.721-.172-1.879-16.748c-.152-1.339-.356-1.643-1.392-2.049l.142-.649 7.578 1.745-.152.649c-.945-.142-1.676-.254-1.899.7-.061.274-.051.578-.01.893l.914 9.992.051.01 4.835-7.152-.335-2.678c-.203-.639-.427-.994-1.646-1.329l.142-.639 8.045 1.846-.152.649c-1.128-.183-1.879-.325-2.082.548-.071.304 0 .974.03 1.501l.782 9.191.051.02 4.876-8.085c.142-.243.315-.497.437-1.045.244-1.055-.65-1.288-1.524-1.542l.152-.639 4.693 1.085-.152.639m14.037 16.229c-2.245 1.856-4.54 3.175-7.882 2.648-6.084-.964-8.695-5.762-7.923-10.631.843-5.295 5.241-8.765 10.726-7.902 2.346.375 4.165 1.968 4.835 2.08.701.112 1.026-.396 1.392-1.014l.711.112-.975 6.107-.65-.112c-.559-2.404-2.265-5.803-5.241-6.279-3.809-.599-5.465 3.226-6.166 7.629-.244 1.572-.477 4.098.213 5.914.802 2.059 2.804 2.769 3.616 2.901 2.032.325 4.114-.152 6.663-2.232l.681.781m16.608 5.588l-8.502-1.055.081-.649c1.646.071 2.123.101 2.225-.761.081-.7-.518-2.749-.782-3.632l-5.902-.72c-.965 1.796-1.513 2.81-1.574 3.236-.122.994 1.127 1.227 2.021 1.38l-.091.659-5.323-.649.081-.659c1.453-.03 1.92-.872 2.946-2.739l7.598-13.654.731.091 4.154 14.506c.833 2.942 1.148 3.885 2.407 3.987l-.071.659zm-7.242-7.172l-1.869-6.685-3.25 6.066 5.119.619zm20.234-4.626c-.345-1.877-1.717-5.011-4.825-5.234-1.381-.091-2.885.599-3.007 2.303-.102 1.43.366 2.039 2.509 3.307l3.738 2.191c.863.507 2.763 2.171 2.56 5.052-.163 2.303-2.072 5.377-6.928 5.042-2.509-.183-3.626-1.156-4.449-1.217-.549-.041-.721.426-.853.842l-.762-.051.457-6.503.762.051c.345 2.698 1.666 5.772 5.008 6.016 3.169.213 3.484-2.374 3.504-2.719.132-1.765-1.067-2.485-2.722-3.419l-1.706-.964c-4.368-2.485-4.205-4.748-4.124-5.955.122-1.603 1.188-5.133 6.196-4.778 2.113.142 3.291 1.096 4.053 1.146.609.051.762-.335.935-.832l.792.061-.396 5.711-.742-.051m14.495 13.259l-9.426-.335.02-.659c1.94-.091 2.57-.122 2.651-2.343l.488-13.898c-1.849.041-4.581.081-5.262 4.281l-.762-.03.264-5.295 15.856.558-.132 5.305-.772-.03c-.376-4.24-3.098-4.474-4.916-4.636l-.488 13.908c-.081 2.232.559 2.313 2.509 2.506l-.03.67m19.858.171h-15.277v-.659c1.483-.183 2.275-.264 2.275-1.867v-12.782c0-1.745-1.087-1.796-2.275-1.867v-.67h9.223v.67c-1.849.071-2.661.101-2.661 2.425v12.447c0 1.268.579 1.481 2.346 1.481 3.992 0 5.475-2.191 6.684-5.163h.772l-1.087 5.985m.548-17.885l15.226-.791.284 5.295-.66.041c-.802-3.723-2.722-4.281-6.277-4.098-1.453.081-1.92.213-1.869 1.349l.325 6.107c2.539-.101 3.85-.852 4.073-4.149l.681-.03.467 8.907-.681.03c-.488-3.277-1.879-3.997-4.49-3.855l.335 6.371c.061 1.167.579 1.461 2.285 1.359 2.59-.122 5.252-.954 6.704-5.021l.742-.041-.772 5.539-15.44.801-.041-.649c1.503-.243 2.316-.365 2.235-1.998l-.681-12.751c-.081-1.745-1.199-1.735-2.418-1.755l-.03-.659m39.77-2.365c-1.422.355-2.001.71-1.818 2.445l.884 8.379c.163 1.542.041 3.926-.935 5.214-1.168 1.562-3.403 2.303-4.987 2.455-1.148.122-3.636.223-5.505-1.085-1.229-.883-2.011-1.725-2.316-4.555l-.924-8.775c-.234-2.211-.914-2.191-2.407-2.191l-.071-.649 8.888-.933.071.649c-1.727.264-2.539.375-2.296 2.688l.924 8.765c.152 1.501.538 5.113 4.317 4.717 4.632-.477 4.266-4.504 4.083-6.178l-.843-8.014c-.163-1.603-.569-2.455-2.844-2.333l-.071-.649 5.78-.599.071.649m2.65 16.18c1.534-.436 2.235-.73 1.971-2.455l-1.971-12.356c-1.747-1.572-2.174-1.583-2.509-1.522l-.112-.659 5.516-.872 10.828 9.708.041-.01-1.249-7.902c-.244-1.562-.701-2.374-2.834-2.201l-.102-.649 5.607-.883.102.649c-1.839.528-1.899 1.156-1.696 2.404l2.428 15.359-.731.112-13.855-12.285-.051.01 1.656 10.418c.295 1.887.924 2.293 2.885 2.191l.102.659-5.922.933-.102-.649m28.053-4.534l-9.05 1.927-.142-.649c1.371-.426 2.357-.751 2.021-2.343l-2.661-12.498c-.366-1.704-1.595-1.501-2.804-1.329l-.132-.639 9.05-1.927.132.649c-1.199.304-2.438.599-2.062 2.353l2.661 12.498c.356 1.654 1.402 1.512 2.844 1.309l.142.649m13.602-3.541l-9.122 2.445-.163-.639c1.818-.659 2.418-.872 1.849-3.013l-3.616-13.441c-1.757.578-4.358 1.42-3.768 5.63l-.742.193-1.29-5.143 15.318-4.098 1.422 5.113-.742.203c-1.605-3.946-4.266-3.368-6.054-3.003l3.606 13.441c.579 2.171 1.209 2.049 3.129 1.674l.173.639m-.467-18.382l14.414-4.95 1.737 5.021-.62.203c-1.808-3.337-3.789-3.358-7.161-2.201-1.381.477-1.798.73-1.432 1.806l2.001 5.792c2.407-.801 3.464-1.887 2.773-5.113l.65-.223 2.905 8.44-.65.223c-1.381-3.013-2.905-3.327-5.384-2.475l2.082 6.036c.376 1.106.955 1.238 2.58.68 2.448-.842 4.784-2.374 5.059-6.685l.691-.233.792 5.539-14.627 5.021-.203-.619c1.361-.639 2.113-.984 1.585-2.536l-4.165-12.082c-.569-1.643-1.646-1.329-2.814-1.014l-.213-.629m22.702 10.163c1.524-.68 1.686-1.593 1.29-2.475l-5.302-11.899c-.65-1.471-1.737-1.045-2.722-.72l-.274-.609 7.374-3.266c6.765-3.013 10.828.203 12.484 3.916 1.971 4.443 1.046 9.363-4.947 12.265l-7.639 3.398-.264-.609zm5.18-4.271c.437.964.843 1.298 2.001.791 2.702-1.207 4.144-3.693 1.574-9.455-.985-2.201-3.819-7.091-7.974-5.245-1.554.69-1.26 1.278-.995 1.806l5.394 12.102zm-211.197-224.403c.965-.964 2.377-.964 3.515-.345 1.32 1.055 2.296 2.901 3.088 4.393-1.94-.081-4.673 1.146-6.43-.345-1.585-1.593-3.525-2.12-5.465-2.911-.081-.264-.356-.7 0-.964.528-.7 1.412-.7 2.377-.7.975.345 1.767 1.664 2.915.872m16.476 13.38c-.091.264-.447.355-.356.619.792-.091 1.849.081 2.56.528.965.964.264 2.11.264 3.256-.528.609-1.503.436-2.032.172-.884-.436-.792-1.41-1.493-1.938-.356.355-.091 1.41-.884 1.227-.792-1.227-1.585-2.455-2.032-3.865.447.091 1.331.7 2.032.172.437-.528 1.056-.964 1.757-1.055.356.183.183.619.183.883" fill="#231F20"/><path d="M171.648 178.252l-1.818.223c-.498.061-1.087-.091-1.585-.609-.152-.132-.274-.365-.477-.487.234-.03.386-.071.569-.284 0 0 .193 1.004 1.29 1.004.772 0 1.138-.812 1.138-.812l.884.964" fill="#fff"/><path d="M334.618 188.204h.518c-.345 1.136-1.493 2.374-1.849 3.693-.884.264-.884-.791-1.056-1.319-.609.791-.792 1.938-1.849 2.374-.701.172-1.32 0-1.849-.528.345-1.146-.792-3.084.965-3.429.437-.091.884-.264 1.412-.183l.437.355c.274-.436-.345-1.055-.264-1.674 1.585-.7 2.123 2.201 3.535.71" fill="#231F20"/><path d="M342.764 178.151s.782.416 1.371.396c.569-.02 1.524-.162 2.042-.659.163-.122.295-.345.498-.477-.234-.041-.386-.081-.559-.294 0 0-.223.994-1.331.964-.762-.03-1.107-.862-1.107-.862l-.914.933" fill="#fff"/><path d="M170.277 222.076c-.792-.791-1.94-1.227-2.732-1.846 1.056.446 2.113 1.055 2.732 1.846" fill="#BBBDBF"/><path d="M161.115 163.908v.883c-6.694 1.846-14.109 7.131-16.13 14.253-2.997 8.45-2.641 19.802 2.56 27.278.264 1.674-.264 2.739-1.412 3.53-1.676.609-3.972.436-5.373-.528-.437-.091-1.067 0-1.067.528.274 2.019 2.651 1.927 4.236 2.374 2.824 0 5.373-1.674 6.785-4.058.62.893.081 1.684 0 2.556-1.503 3.175-5.637 1.583-7.933 2.729 1.056 2.293 3.789 1.227 5.556 1.319 3.87-.964 5.109-6.776 9.69-5.63-3.789 1.674-1.94 7.568-6.958 7.476-1.239 0-2.56-.872-3.525.183 1.32 1.319 3.433 2.019 5.546 1.491 3.799-1.227 4.937-7.568 10.046-5.721.437.183.792.538 1.32.538-2.021 0-4.226 0-6.074 1.319-1.676 1.491-2.032 4.839-4.937 4.575-.965.436-2.468-.974-2.732.528.701 1.319 3.525.7 2.56 2.729 2.113 1.755 5.373.7 7.659.172l.183.264c1.229-.355 2.377-.883 3.697-.974 2.021.446 4.49.801 5.465 3.084l.264.974c-2.732-1.765-6.877-2.82-9.782-1.319-2.377.081-3.87-.446-5.993-1.065-.528.183-.528.801-.173 1.065 4.134 5.275 15.592 1.664 13.926 11.352-.63 1.227-1.503 2.638-2.824 3.165.792-1.41.965-3.165.62-4.748-1.595-4.585-6.613-4.494-9.792-7.223-.345 0-.609.091-.874.436-.356 1.41 1.402 1.938 2.204 2.556 2.204 1.146 5.373 1.146 6.43 4.23.091.964.528 2.455-.356 3.256-.081-2.201-2.021-4.758-4.408-6.076-3.342-.974-5.902-3.784-6.602-7.304-2.641-5.894-9.69-6.513-13.225-11.707-2.204-4.93.538-9.505 3.535-13.198 0-.446-.091-1.055-.62-1.055-3.352 1.41-3.261 6.158-6.958 7.121 1.757-3.774 1.229-9.759 6.247-10.996.183-.355.447-.619.356-1.146-1.493-1.136-3.169.619-4.581 1.329-.711.528-1.229 1.491-2.021 1.664.874-2.019 2.732-4.484 4.937-5.103.437-.264.609-.791.782-1.146-.874-.791-1.849 0-2.814 0l-4.144 2.556c-.264-3.52 4.236-4.666 5.993-7.476-1.412-.619-2.915.964-4.408 1.491l-2.021.528c.081-.883 1.229-1.846 1.849-2.729 1.412-.872 3.088-1.227 4.581-1.846.183-.528-.264-.791-.528-1.146h-.884c.792-.619 2.468-.172 2.905-1.055-1.138-.883-2.55-1.41-4.043-.964 0-.091 2.021-.264 1.666-1.593-.437-.345-.792-.964-1.32-1.136v-.355c2.204-.528 3.961 1.41 5.729 2.201.264-.172.356-.528.356-.883-.711-1.674-2.468-2.374-3.88-3.337 1.32-.538 2.56.964 3.88 1.491 1.148-2.465-2.296-2.901-3.088-4.93 2.032-1.146 3.352 1.846 5.109 2.374.701-.264.264-1.055.183-1.491-.802-1.491-2.204-2.201-3.088-3.693 1.849-.446 2.732 2.11 4.581 2.81.356-.528 0-1.583-.437-2.201-1.056-.791-1.595-2.11-2.377-3.165 2.285-.172 3.515 2.201 5.373 2.901.091-2.201-2.468-3.865-2.032-6.513 2.824.091 2.997 3.52 5.109 4.585.356-2.201-1.229-4.058-1.493-6.259.874-.528 1.849.71 2.824 1.065 1.046 1.227.609 4.484 2.905 3.52-.711-1.938-1.148-4.494.345-6.249.447 1.938 1.148 4.22 2.915 5.539m6.602 54.384c.091.183-.437-.081-1.056 0-1.676-.436-3.616.264-5.282 1.065-1.412.7-2.732 1.927-4.236 1.491 2.651-1.491 4.581-5.539 8.99-3.693l1.585 1.136m-6.166 17.693c.264 1.238.264 2.81-.965 3.348-.528.436-1.067.609-1.859.528-.345-1.938-.173-4.23 1.331-5.458.792.081 1.138.964 1.493 1.583" fill="#F0B83D"/><path d="M160.231 264.226c4.49 2.911 9.518 5.285 15.064 5.285 3.972 1.227 8.634.091 12.433-.355-1.158 3.611-4.327 6.249-7.852 7.131-7.486 1.146-15.155.091-21.321-4.048-2.56-2.282-6.349-4.484-5.109-8.542.792-.964.701-3.51 2.377-2.982 1.32 1.491 2.732 2.81 4.408 3.51m19.645 14.081l2.377-.872c0 1.583-2.021 2.729-2.732 4.23-4.49 2.81-10.3 3.246-15.765 2.191-5.292-1.146-11.102-3.084-13.571-8.278-.884-2.455.528-4.839 1.94-6.776 7.222 8.186 17.532 11.007 27.751 9.505m-7.923 7.751c.965-.355 2.285-.172 3.169-.264.264-.091.081-.446.528-.355h.528c-1.585 3.784-5.109 6.249-9.162 6.432-6.694.264-12.961-1.674-17.979-6.076-.884-1.674-2.997-3.175-2.204-5.458.792-.964.538-2.374 1.676-3.256 5.912 6.776 14.363 10.733 23.444 8.978m-26.176-1.848c5.82 7.568 14.718 10.297 23.972 9.15-1.94 3.693-5.637 5.366-9.69 5.103-5.82-.081-12.433-2.719-15.429-8.268-1.757-2.11.356-3.784.711-5.985h.437m18.15 16.099c-1.757 2.993-4.49 4.048-7.578 4.575-5.902.274-11.722-2.191-14.454-7.476-.701-2.201.447-4.494 1.067-6.604 4.134 7.75 12.514 10.388 20.965 9.505m-5.728 6.249c-1.849 4.139-6.602 3.256-10.655 3.084-3.352-.71-6.877-3.165-7.669-6.604.356-1.227 0-2.82.884-3.875 3.87 6.076 11.011 8.186 17.441 7.395m-4.054 5.285c-.345 1.055-1.148 2.282-2.377 2.546-2.997 1.146-6.877.791-9.873-.172-1.046-.71-2.468-1.501-2.905-2.729-.437-1.674-.081-3.429.356-4.93 3.433 4.839 9.254 5.549 14.8 5.285m-2.551 4.931c0 1.136-.528 2.019-1.412 2.719-2.377.791-5.82 1.765-8.461.619-1.229-.264-1.849-1.319-2.56-2.201v-3.52c3.443 2.465 8.207 2.993 12.433 2.384m-1.056 4.746c.091 1.227-.091 2.465-1.331 2.993-2.722 1.227-5.983 1.674-8.451-.436-.884-.71-.528-1.938-.884-2.911 3.169 1.491 7.314 1.938 10.666.355m.172 5.538c.437 1.238-.884 1.765-.792 2.901-1.148.801-2.296 1.856-3.789 1.684-.62-.183-1.585-.264-2.377-.355-.711-1.583-1.767-2.911-2.032-4.666 2.732 1.41 5.82.7 8.644-.172l.345.609m2.378 7.303c.528 2.384-3.169 1.501-2.021 3.439 1.412.446 2.204-.528 3.078-1.238v-.345c2.204.436 3.789 2.81 6.084 2.546.356-.172.173-.609.173-.964-1.757-.974-3.697-2.11-4.926-3.966-.366-.7-1.158-1.227-1.158-2.019 5.292 2.729 12.25 1.755 16.567 6.432.274.872.975 2.191.183 3.074-4.053 3.601-9.426 1.664-14.099.883-4.673-1.846-9.081-5.113-11.986-9.333 2.021.619 4.673 0 6.084-1.583 1.229.436 1.32 2.029 2.021 3.074m-21.057-51.828l.173-.183c-.965-2.282-4.845-3.165-3.342-6.239 1.839-2.11 4.134-.446 6.602-.71 2.021.619 4.408.355 6.43.883-.874 2.374-3.779 2.638-5.282 4.22.173 1.938 3.078 2.648 2.377 4.93-1.31-.568-5.505-2.435-6.958-2.901m36.121-124.167c-.081 1.755-.437 3.074-.965 4.403-.173.345.356-.883-.356-.71-.518-.264-.965.355-1.138.71-.447-1.501 1.402-2.911 2.021-4.403h.437m3.973 4.221c.437 1.238-.264 2.374-1.056 3.256v-1.227h-1.32c.609-.71 1.32-1.938 2.377-2.029" fill="#BBBDBF"/><path d="M124.811 243.197c-.447 8.805.701 17.164 6.785 23.768 2.194 2.282 4.398 4.393 6.958 6.239-3.443.264-7.578-1.4-10.93.71-1.056 1.146-1.056 2.993-.792 4.393 1.32 2.12 3.078 3.358 5.201 4.23.975.071 5.272 1.806 6.958 2.901-5.902-1.674-14.007-2.465-19.472.801-4.845 2.901-5.902 8.44-5.465 13.37.792 4.575 3.443 8.45 3.443 13.289-2.743-4.058-8.99-5.549-10.056-10.915.091-2.993-.701-5.63-2.194-7.923.528-2.374 1.056-4.839 1.585-7.294.091-.619-.091-1.146-.528-1.501h-.183v-.528c1.412-3.966 4.236-8.359 8.99-8.623 1.585-1.938-1.93-2.029-2.55-3.439-1.056-1.136-1.32-2.546-2.032-3.875 1.595-1.309 3.88-2.1 5.902-1.309.356.172.711.528 1.239.436.884-.436.356-1.146.173-1.674-4.317-2.729-5.546-8.268-5.109-13.025 1.849-2.282 0-5.894 1.148-8.795.173-.355.609.528 1.229.172 1.239-3.348 2.641-6.685 4.408-9.86l.528-.172c0 .446.173.791.62 1.055h.701l4.764-4.93c.792 4.048-1.412 8.095-1.32 12.498m21.848 28.689l-.884 2.201c.884-3.084-4.317-6.949.711-8.359 1.229-.791 1.849-2.11 2.377-3.348 1.138-2.901-4.317-5.63 0-7.304 2.641-2.465 3.433-6.594 2.204-9.678l-.884-1.664c1.676-1.146 2.997-2.648 4.408-4.23.173 11.97-3.352 22.439-7.933 32.381" fill="#F0B83D"/><path d="M123.572 235.812c-.264 5.894-2.732 11.879-.701 18.128.437 4.393 2.204 8.176 4.134 11.96.183.619-.173 1.146-.701 1.238-1.412.172-1.585-1.41-2.204-2.201-3.961-8.886-4.317-19.71-1.056-29.124h.528m-6.43 14.688v.538c-.264 0-.62.172-.711-.183-.081-.355 0-.7.356-.883.091.264.447.091.356.528m.172 2.028c.975 5.275 2.377 10.388 6.43 14.435.183.528-.345.964-.701 1.136-1.676-.172-2.468-2.019-3.352-3.165-2.194-3.703-2.905-8.095-3.261-12.579.356-.355.538 0 .884.172m-.528 27.28c0 1.41-1.412 1.238-2.032 2.374-3.87 3.348-5.018 8.186-5.719 13.025h-.356c-.965-6.685 1.767-12.498 6.958-15.927.528-.172.792.264 1.148.528m-1.32 8.977c-5.109 6.776-.711 14.435.62 21.384-.975-.172-1.148-1.41-1.503-2.201-2.377-6.249-5.455-15.308 0-21.202.884-.71 1.503-1.856 2.56-2.201 1.849 1.755-1.32 2.719-1.676 4.22" fill="#231F20"/><path d="M228.785 229.644c-.264-.264-.884-.872-.701-1.491.264.436.609.964.701 1.491m57.98 0c-.437-.264-.091-.964.356-1.319-.091.446-.183.964-.356 1.319m-111.297 65.563c.62 2.82 1.767 5.985 1.067 8.978.264.172.437.436.782.355 1.859-2.384.975-5.894.711-8.45 3.261 3.956 3.616 9.505 3.88 14.608.173.436.528.436.884.264 1.839-2.12.173-5.103.701-7.74 2.641 3.865 2.56 9.495 2.204 13.898.264.183.437.528.792.355.62-.619.975-1.41 1.056-2.374.884 4.484.183 9.586-1.493 13.989.782-12.315-7.578-22.794-17.532-29.48.173-1.227 1.402-2.729 2.722-3.348.264 1.41-.701 3.348.528 4.23 2.123-2.029-.609-6.604 2.377-7.923l1.32 2.638m168.486 4.757c.965-1.319-.356-2.82.356-4.22 1.148.781 2.285 1.755 2.722 3.074-9.954 7.04-18.324 17.245-17.532 29.835-1.676-3.794-2.377-9.242-1.493-14.435.173 1.055.345 2.201 1.32 2.729 1.493-.883-.62-3.084.356-4.758 0-3.348.254-7.03 2.55-9.678 0 2.82-.965 5.985.711 8.014.437.172.792-.183.965-.528-.62-4.93.528-10.124 3.433-14.08.173 2.81-1.32 6.158 1.32 8.004l.356-.355c-.264-4.048 0-8.45 2.56-11.524 2.732 1.927-.091 6.066 2.377 7.923" fill="#BBBDBF"/><path d="M192.482 304.712l-1.056-.172c1.056-.883 2.814-.528 4.053-1.501 1.503-1.319 2.021-3.074 3.433-4.575-1.503 2.556-3.088 5.985-6.43 6.249m3.87 1.845c-1.056-1.136 1.056-1.674 1.503-2.81.091 1.227-1.229 1.755-1.503 2.81m-.173 3.084c1.767-1.674 3.261-4.048 4.236-6.421.081 2.546-2.296 4.839-4.236 6.421m123.192-3.084c-.711-1.136-1.585-2.201-2.032-3.52.447 1.41 3.169 1.674 2.032 3.52m2.55.355v.7c-.264.091-.345-.172-.528-.355v-.7c.264-.081.356.183.528.355m-128.119 1.238c-.447-.183 0-.71.173-1.065h.356l-.528 1.065" fill="#fff"/><path d="M203.564 236.907c.538.254-.477-.994-.447-1.654.03-.649-.66 1.369-.66 1.369s.579.02 1.107.284" fill="#231F20"/><path d="M233.712 132.41c.091 4.839-.081 10.378-.173 14.953-.173.355-.528.183-.874.183-.264-5.549-.264-10.56 0-15.754.437 0 1.046.091 1.046.619m-55.156 64.406s2.184.223 2.946 1.238c.772 1.025 2.834 4.179 5.516 2.81 0 0 .802 1.369-1.676 1.369-2.387 0-3.748-1.796-4.429-2.982-.681-1.197-1.534-1.572-2.174-1.725l-.183-.71m157.901-.173s-.762 1.512-1.981 2.019c-1.219.507-1.067 1.309-1.188 1.501 0 0-1.991 1.978-3.697 1.978-1.717 0-1.483-.243-1.625-.842-.142-.609.599-.771 1.026-.517.427.254 1.453.852 2.905-1.106 1.442-1.958 3.758-3.246 4.561-3.033" fill="#fff"/><path d="M212.309 249.709c4.317 16.109-1.94 31.245-5.729 46.035.609-3.266 1.148-7.131.965-10.652-1.94-5.64 2.123-10.915-.356-16.109.183-2.282-1.046-4.494-2.722-6.249-.183-3.956.518-8.359-2.032-11.352-1.412.172-3.261.619-4.408-.345.975-4.058 2.387-7.842 3.616-11.707 5.373.609 9.254 5.63 10.666 10.378" fill="#F0B83D"/><path d="M237.419 84.184c.62.791.437 2.11.183 2.993-.447.528-.884.791-1.422.883.264-1.146 1.067-2.201.538-3.439-.975-1.136-2.113-2.638-3.708-2.638-1.493.172-2.814 1.146-3.606 2.374-1.412 2.201.874 3.966 1.056 5.721-1.056-.528-1.849-1.319-2.377-2.374-.447-1.583-.183-3.256.701-4.575 1.94-1.055 4.317-2.729 6.613-1.319.874.791 1.493 1.491 2.021 2.374m-3.432 2.019l-.447 2.384c.173 9.85.528 19.355.447 29.469-.447.446-.528 1.41-1.32 1.329-.091-12.234-.711-22.794-.183-33.882.62 0 1.503-.091 1.503.7" fill="#fff"/><path d="M138.819 296.262c-.701-1.583-.884-3.256-2.032-4.575 2.204-1.055 4.581-3.348 4.581-6.066.183-1.674-.965-2.911-1.493-4.403 1.412-1.501 3.525-2.465 4.754-4.403-2.55 6.249-3.87 13.198-5.81 19.447m-1.504 9.16c-.528 0-1.32-1.501-2.021-2.029.884-.791 2.021-2.11 2.732-3.256-.173 1.755-.173 3.693-.711 5.285m184.788 5.711c.792 1.146.792 3.256.792 4.758 1.148 14.78-5.109 27.806-17.624 35.11-15.694 11.443-34.018 18.392-47.142 34.055l-.528.172c-7.405-9.495-18.243-15.572-27.842-21.902-3.535-1.501-6.531-3.875-9.965-5.549-2.113-1.583-4.581-2.556-6.602-4.403-12.606-7.121-20.803-18.392-20.539-32.908.701-2.556-.609-6.158.447-8.45 1.056-.619 2.641.446 3.961-.172l.792-.355c.173.619-.62 1.755.528 2.374 1.412.091 2.56-.355 3.88-.791-1.585 14.963 5.81 27.816 18.68 34.673 12.687 7.04 26.085 13.198 36.832 24.377 1.666.091 1.666-1.846 2.732-2.638 12.25-11.879 28.106-16.809 41.24-26.842 8.807-7.659 12.86-18.392 11.448-29.926 1.595 0 3.525 1.674 4.764 0l-.62-2.019c1.32 1.146 3.352 1.227 4.764.436" fill="#F0B83D"/><path d="M229.76 248.654s12.26-2.059 16.293-4.22v113.698s-.234.68-1.94-.68c-1.696-1.369-14.536-8.298-14.536-8.298l.183-100.5m39.432-4.22s6.308 2.435 9.731 2.952c3.403.507 6.216.872 6.521 1.796v100.236s-14.475 8.065-16.13 9.323l-.122-114.307m-35.836-87.901l.132 48.5-.549 4.321s-.538-7.284-.538-11.21v-40.395s0-1.217.955-1.217" fill="#fff"/></g></svg>