<svg width="512" height="512" viewBox="0 0 512 512" version="1.1" xmlns="http://www.w3.org/2000/svg" xmlns:sketch="http://www.bohemiancoding.com/sketch/ns"><title>boston-celtics</title><desc>Created with Sketch.</desc><g sketch:type="MSShapeGroup" stroke="none" stroke-width="1" fill="none"><path d="M412.923 245.1c0-41.927-16.324-81.346-45.962-110.994-25.598-25.608-58.483-41.268-93.975-45.065-.823-.817-1.747-1.572-2.793-2.242-12.567-8.082-23.048-2.077-30.317 1.456-.523.253-1.143.555-1.824.906-13.681 1.565-26.834 4.905-39.224 9.771-1.465-2.197-3.156-4.261-5.063-6.171-7.581-7.582-17.665-11.76-28.388-11.76-22.138 0-40.147 18.014-40.147 40.16 0 9.28 3.133 18.077 8.886 25.196-21.9 26.986-35.04 61.356-35.04 98.744 0 41.929 16.324 81.352 45.96 110.998 14.477 14.481 31.288 25.777 49.581 33.551-1.026 8.296.327 13.925 1.836 16.233-2.304 1.938-3.275 3.151-3.637 5.337-3.639 4.973 5.213 11.281 8.853 14.075 7.473 5.731 11.4 4.729 17.223 4.486 7.187-.298 13.945-8.732 17.828-14.19 7.761-1.095 9.218.116 9.462 1.091 2.423-.364 5.821-.974 10.429-2.916 10.483-4.41 7.52-9.829 6.428-10.796-.281-.25-.515-.602-.733-1.028 24.873-.976 48.724-7.725 69.999-19.604.752.841 1.532 1.799 2.29 2.919 2.304 3.398 3.519 14.436 4.004 20.139.483 5.703 1.454 9.587 4.246 18.567 2.787 8.975 3.88 2.424 4.005 0 .116-2.431.6-11.167.237-17.473-.362-6.308-.484-15.41.733-19.291 1.209-3.883-.97-4.851-1.58-5.581-.608-.727 0-.97-1.576-5.945-.092-.278-.158-.569-.221-.862 7.987-5.475 15.524-11.716 22.516-18.711 29.638-29.646 45.962-69.067 45.962-110.998" id="Shape" fill="#231F20"/><path d="M412.923 245.1c0-41.927-16.324-81.346-45.962-110.994-25.598-25.608-58.483-41.268-93.975-45.065-.823-.817-1.747-1.572-2.793-2.242-12.567-8.082-23.048-2.077-30.317 1.456-.523.253-1.143.555-1.824.906-13.681 1.565-26.834 4.905-39.224 9.771-1.465-2.197-3.156-4.261-5.063-6.171-7.581-7.582-17.665-11.76-28.388-11.76-22.138 0-40.147 18.014-40.147 40.16 0 9.28 3.133 18.077 8.886 25.196-21.9 26.986-35.04 61.356-35.04 98.744 0 41.929 16.324 81.352 45.96 110.998 14.477 14.481 31.288 25.777 49.581 33.551-1.026 8.296.327 13.925 1.836 16.233-2.304 1.938-3.275 3.151-3.637 5.337-3.639 4.973 5.213 11.281 8.853 14.075 7.473 5.731 11.4 4.729 17.223 4.486 7.187-.298 13.945-8.732 17.828-14.19 7.761-1.095 9.218.116 9.462 1.091 2.423-.364 5.821-.974 10.429-2.916 10.483-4.41 7.52-9.829 6.428-10.796-.281-.25-.515-.602-.733-1.028 24.873-.976 48.724-7.725 69.999-19.604.752.841 1.532 1.799 2.29 2.919 2.304 3.398 3.519 14.436 4.004 20.139.483 5.703 1.454 9.587 4.246 18.567 2.787 8.975 3.88 2.424 4.005 0 .116-2.431.6-11.167.237-17.473-.362-6.308-.484-15.41.733-19.291 1.209-3.883-.97-4.851-1.58-5.581-.608-.727 0-.97-1.576-5.945-.092-.278-.158-.569-.221-.862 7.987-5.475 15.524-11.716 22.516-18.711 29.638-29.646 45.962-69.067 45.962-110.998" id="Shape" fill="#061922"/><path d="M218.894 391.565c5.821-.244 13.945-2.065 17.644-3.643.49.122 1.278.608 2.492 1.094.483-3.884-2.002-11.952-3.402-15.651-.926-2.458-1.817-4.128-2.909-6.672-3.275-.606-7.337-2.37-10.249-3.582 0 2.308.424 8.312.913 12.314-1.215.122-2.912.244-4.975.244.241 4.371.73 12.253.486 15.895" id="Shape" fill="#008248"/><path d="M218.894 391.565c5.821-.244 13.945-2.065 17.644-3.643.49.122 1.278.608 2.492 1.094.483-3.884-2.002-11.952-3.402-15.651-.926-2.458-1.817-4.128-2.909-6.672-3.275-.606-7.337-2.37-10.249-3.582 0 2.308.424 8.312.913 12.314-1.215.122-2.912.244-4.975.244.241 4.371.73 12.253.486 15.895z" id="Shape" stroke="#008248" stroke-width=".306"/><path d="M328.655 378.706c-1.09-1.092 1.333-4.488 2.426-10.802 1.093-6.308 1.212-16.863-3.397-22.807-2.242-2.895-3.332-4.719-3.707-6.019-14.368 10.453-30.827 17.39-48.323 20.366-.211.372-.414.694-.608.938-2.548 3.275-7.52 8.011-11.159 9.946-3.637 1.941-7.883 3.401-10.188 4.128-.486 3.883-1.116 12.541-.119 15.53.363 1.091 4.85 3.759 6.425 6.672.164.304.313.602.454.894 24.749-.715 48.041-7.36 68.501-18.558l-.307-.289" id="Shape" fill="#008248"/><path d="M328.655 378.706c-1.09-1.092 1.333-4.488 2.426-10.802 1.093-6.308 1.212-16.863-3.397-22.807-2.242-2.895-3.332-4.719-3.707-6.019-14.368 10.453-30.827 17.39-48.323 20.366-.211.372-.414.694-.608.938-2.548 3.275-7.52 8.011-11.159 9.946-3.637 1.941-7.883 3.401-10.188 4.128-.486 3.883-1.116 12.541-.119 15.53.363 1.091 4.85 3.759 6.425 6.672.164.304.313.602.454.894 24.749-.715 48.041-7.36 68.501-18.558l-.307-.289z" id="Shape" stroke="#008248" stroke-width=".306"/><path d="M363.817 137.254c-23.915-23.918-54.367-38.903-87.327-43.304 2.638 5.223 3.054 11.232 3.287 15.052 4.733-2.063 8.372-3.154 10.313-6.308 1.942-3.156 4.61-2.549 6.306-.243 1.696 2.305 1.696 5.218-2.787 8.005-4.489 2.793-7.764 4.127-8.735 4.613-.971.483-.119 1.332.971 3.154 1.089 1.819 3.87 6.314 4.364 15.773l.012.276c17.834 5.487 34.171 15.275 47.74 28.848 21.897 21.904 33.957 51.027 33.957 82.006 0 17.793-3.985 34.967-11.522 50.522 1.005.519 2.361 4.04 2.826 8.684.244 2.427.125 5.095-.608 6.794-.727 1.7-6.449 10.29-9.337 12.859-1.089.971-3.637.852-4.727-.727-1.096-1.575-1.215-.729-2.06.119-.855.852-3.767 5.1-4.493 6.189-.73 1.094-3.153 2.183-1.574 6.552 1.574 4.368 3.394 7.645 2.787 10.074-.605 2.426-.846 3.151 2.426 5.939 3.278 2.793 3.153 6.189 1.699 8.376-.91 1.364-2.343 5.015-2.9 8.773 38.735-27.68 64.037-73.03 64.037-124.179 0-40.741-15.857-79.043-44.653-107.85" id="Shape" fill="#008248"/><path d="M363.817 137.254c-23.915-23.918-54.367-38.903-87.327-43.304 2.638 5.223 3.054 11.232 3.287 15.052 4.733-2.063 8.372-3.154 10.313-6.308 1.942-3.156 4.61-2.549 6.306-.243 1.696 2.305 1.696 5.218-2.787 8.005-4.489 2.793-7.764 4.127-8.735 4.613-.971.483-.119 1.332.971 3.154 1.089 1.819 3.87 6.314 4.364 15.773l.012.276c17.834 5.487 34.171 15.275 47.74 28.848 21.897 21.904 33.957 51.027 33.957 82.006 0 17.793-3.985 34.967-11.522 50.522 1.005.519 2.361 4.04 2.826 8.684.244 2.427.125 5.095-.608 6.794-.727 1.7-6.449 10.29-9.337 12.859-1.089.971-3.637.852-4.727-.727-1.096-1.575-1.215-.729-2.06.119-.855.852-3.767 5.1-4.493 6.189-.73 1.094-3.153 2.183-1.574 6.552 1.574 4.368 3.394 7.645 2.787 10.074-.605 2.426-.846 3.151 2.426 5.939 3.278 2.793 3.153 6.189 1.699 8.376-.91 1.364-2.343 5.015-2.9 8.773 38.735-27.68 64.037-73.03 64.037-124.179 0-40.741-15.857-79.043-44.653-107.85z" id="Shape" stroke="#008248" stroke-width=".306"/><path d="M188.692 357.712c-.43-4.104-1.052-11.54 1.824-16.839-5.854-4.022-11.388-8.607-16.518-13.739-21.9-21.906-33.96-51.03-33.96-82.006 0-33.171 13.998-63.131 36.389-84.286.209-.448.477-.88.804-1.296-3.79 1.165-7.774 1.776-11.853 1.776-10.682 0-20.728-4.147-28.301-11.68-21.734 26.988-33.547 60.313-33.547 95.46 0 40.74 15.857 79.041 44.656 107.85 13.806 13.81 29.795 24.635 47.187 32.175.673-3.247 1.679-6.803 3.143-10.668 1.334-3.521-.727-11.645-4.123-15.893-1.82-.484-4.124-.729-5.701-.854" id="Shape" fill="#008248"/><path d="M188.692 357.712c-.43-4.104-1.052-11.54 1.824-16.839-5.854-4.022-11.388-8.607-16.518-13.739-21.9-21.906-33.96-51.03-33.96-82.006 0-33.171 13.998-63.131 36.389-84.286.209-.448.477-.88.804-1.296-3.79 1.165-7.774 1.776-11.853 1.776-10.682 0-20.728-4.147-28.301-11.68-21.734 26.988-33.547 60.313-33.547 95.46 0 40.74 15.857 79.041 44.656 107.85 13.806 13.81 29.795 24.635 47.187 32.175.673-3.247 1.679-6.803 3.143-10.668 1.334-3.521-.727-11.645-4.123-15.893-1.82-.484-4.124-.729-5.701-.854z" id="Shape" stroke="#008248" stroke-width=".306"/><path d="M229.122 94.935c-9.628 1.703-19.014 4.322-28.056 7.807 2.909 5.625 4.46 11.901 4.46 18.416 0 8.639-2.714 16.86-7.726 23.693 8.389-4.889 17.442-8.764 26.992-11.436.619-.605 1.241-1.188 1.862-1.726-3.515-5.827-8.247-15.168-4.123-27.785 1.162-3.56 3.719-6.545 6.591-8.969" id="Shape" fill="#008248"/><path d="M229.122 94.935c-9.628 1.703-19.014 4.322-28.056 7.807 2.909 5.625 4.46 11.901 4.46 18.416 0 8.639-2.714 16.86-7.726 23.693 8.389-4.889 17.442-8.764 26.992-11.436.619-.605 1.241-1.188 1.862-1.726-3.515-5.827-8.247-15.168-4.123-27.785 1.162-3.56 3.719-6.545 6.591-8.969z" id="Shape" stroke="#008248" stroke-width=".306"/><path d="M290.088 140.909c3.394 1.7 7.191 5.392 5.699 12.251-.608 2.793-2.935 5.478-3.15 6.557-.369 1.819-4.185 4.912-5.401 7.336-1.202 2.405-1.387 4.453-1.035 5.492l.006.028c1.941 1.819 6.305 4.246 8.729 5.098 1.899.663 1.765 1.172.975 2.424 1.334.122 2.019.945 3.269 2.427 1.34 1.578 4.852.608 7.039-.486 2.179-1.092 4.972-1.456 7.157 1.213 2.182 2.671 5.454 7.645 7.036 12.254 1.574 4.611 3.272 8.373 3.756 9.1.486.727-1.696 14.072-2.304 19.412-.608 5.337-1.092 7.643-1.211 8.492-.122.848 3.393-3.033 3.515 1.578.096 3.676 1.817 15.471 3.8 24.206.5 2.219 1.022 4.24 1.539 5.882 1.452.241 2.668 3.154 3.515 7.642.849 4.492 2.668 7.28 2.79 9.465.119 2.186.727 2.549 1.454 2.913.73.364.488 1.453-1.698 4.003.486.362 1.212 1.089 1.698 1.578.611-.608 2.307-2.549 2.307-2.549s6.67 2.668 8.125 3.157c1.46.483 3.184-3.112 7.521-1.216 1.18.516 2.497 2.162 3.426 3.776 6.798-14.534 10.597-30.738 10.597-47.816 0-30.264-11.781-58.718-33.175-80.117-13.053-13.058-28.734-22.528-45.848-27.935l-.132 3.833m35.053 190.842c-1.696-.848-2.804.384-3.639-6.307-.244-1.94-1.819-4.489-3.034-5.7-1.211-1.213-1.356-3.486-.725-5.459.97-3.035 1.214-5.825 1.089-8.254-.119-2.424.366-5.462 3.761-6.915-1.212-1.335-1.819-3.032-2.179-4.367-4.976-1.64-5.967-1.78-6.979-4.187-1.691-4.04-2.736-9.942-3.24-13.159-.256-1.584-.417-3.055-.455-4.371-1.595-3.014-5.13-9.709-7.863-14.739-1.013-1.888-1.915-3.528-2.569-4.675-2.429-4.243 0-9.824 1.215-13.101 1.208-3.276 2.179-6.186 1.089-9.465-1.089-3.273-1.089-4.003-1.333-5.337-.244-1.333-1.334-3.035-2.793 1.578-1.454 4.611-4.246 11.405-5.818 18.439-.9 4-1.519 8.353-1.311 12.563.158 3.205.795 6.331 2.156 9.155 3.156 6.554 6.914 12.618 6.431 16.258-.488 3.64-1.282 3.765-1.333 4.367-.608 7.04-3.639 20.507-5.217 24.389-1.577 3.881-7.764 17.953-9.097 23.901-1.022 4.553-3.823 14.302-6.223 20.089 18.149-3.435 34.79-11.207 48.78-22.209.411-1.021.34-1.966-.712-2.494m-134.799-159.202c1.342 1.745 3.095 3.347 5.387 4.518 5.941 3.032 7.155 5.215 7.155 10.432 0 5.215.97 15.895 2.668 17.712 1.09-1.091 2.304-2.668 2.545-3.151 1.696 3.151 5.117 8.99 10.551 12.615.366.241.201 1.581 1.092 1.819 1.819.484 13.586 2.305 13.95 4.732 2.426-2.427 6.306-8.494 7.036-10.554.727-2.061 4.972-8.613 8.125-12.253 0-1.456 0-2.309.122-2.673-.852.727-2.185 2.551-4.126 3.4-1.938.848-8.729 3.76-13.583 6.185-1.696.849-4.727 1.819-5.943-7.034-1.211-8.859 0-13.468.849-15.529.85-2.063 2.426-3.883 5.457-3.035 3.035.848 7.885 2.668 9.218 2.668.241-.97 1.093-2.791-2.182-3.154-2.332-.257-8.407-1.991-11.851-6.701-1.393-1.886-2.356-4.275-2.458-7.252-6.915 1.092-22.806 3.157-26.322 4.005-3.515.849-6.497 1.571-7.639-6.429-.484-3.398-1.333-8.129 1.09-6.43 1.941-1.457 4.63-3.173 9.34-2.426.861.135 1.938.858 2.275 1.53.263 1.176-.244 3.105-.818 4.898-1.047 3.252-3.092 5.581 3.517 4.064 6.921-1.588 15.706-2.913 18.01-3.395.305-2.366 2.243-6.007 4.547-8.678 2.317-2.68 2.67-4.851 2.79-5.7.122-.849-.676-1.04-1.819 0-1.333 1.211-5.335 3.638-9.094 2.665-1.454-.372-3.275-3.154-4.242-4.729.795-1.665 2.807-4.544 5.277-7.445-12.913 4.144-25.001 10.604-35.745 19.18-.07 1.345.108 4.477.993 7.919.592 2.314 1.694 5.45 3.829 8.226m8.419 165.753c4.972-1.938 8.891-1.848 12.733 3.276 1.092 1.46 1.941 5.706 11.281 1.941-4.972-5.945-7.956-12.99-10.673-22.444-4.296-14.933-14.006-31.907-10.432-39.674-2.06-1.941-4.488-9.465-7.034-8.613-1.711.571-4.123.608-2.185-5.095.875-2.565 2.314-5.668 5.033-9.4 3.325-4.55 8.571-10.024 17.042-16.564.728-.606.85-1.091.365-1.575-.848-.851-1.699-1.819-2.548-2.305-.848-.486-1.696-.244-2.426.486-.727.727-1.938 1.578-2.668 2.061-.727.486-6.547-5.215-9.583-9.342-3.031-4.127-6.186-5.46-7.154-5.946 1.211-1.333 3.954-4.229 2.909-3.881-1.819.605-5.005 1.012-8.247-2.427-4.001-4.246-2.426-6.429-3.275-7.034-.848-.608-5.213.361-8.488-4.735-3.275-5.092-4.586-7.309-1.941-10.919 1.334-1.819 1.821-2.668 1.455-4.973-.363-2.305 0-3.76 3.031-6.673 3.034-2.91 4.852-5.578 6.187-5.337 1.058.195-2.008-3.662-3.865-6.579-.483-.782-.882-1.482-1.106-2.034-.48-1.175-1.244-3.195-1.419-5.369-21.308 21.384-33.046 49.78-33.046 79.984 0 30.264 11.782 58.716 33.175 80.116 5.02 5.018 10.429 9.503 16.158 13.438 2.484-2.706 5.438-1.658 6.722-.382" id="Shape" fill="#fff"/><path d="M134.309 99.02c9.946 2.549 17.392 10.591 20.667 15.078.834 1.143 1.696.971 2.06.119.773-1.799 2.185-7.642 2.185-12.129 0-10.191 1.394-14.22 3.944-18.954-11.894.653-22.335 6.769-28.856 15.885" id="Shape" fill="#A63732"/><path d="M134.309 99.02c9.946 2.549 17.392 10.591 20.667 15.078.834 1.143 1.696.971 2.06.119.773-1.799 2.185-7.642 2.185-12.129 0-10.191 1.394-14.22 3.944-18.954-11.894.653-22.335 6.769-28.856 15.885z" id="Shape" stroke="#A63732" stroke-width=".306"/><path d="M128.305 130.237c18.676 1.7 24.488-8.74 25.7-10.317 1.211-1.575-.241-2.546-.849-3.397-3.229-4.52-10.459-12.522-20.403-15.068-3.489 5.751-5.53 12.477-5.53 19.697.001 3.132.366 6.173 1.082 9.086" id="Shape" fill="#A63732"/><path d="M128.305 130.237c18.676 1.7 24.488-8.74 25.7-10.317 1.211-1.575-.241-2.546-.849-3.397-3.229-4.52-10.459-12.522-20.403-15.068-3.489 5.751-5.53 12.477-5.53 19.697.001 3.132.366 6.173 1.082 9.086z" id="Shape" stroke="#A63732" stroke-width=".306"/><path d="M202.414 129.508c-7.883-3.276-17.238-.247-23.908 5.578-6.67 5.822-10.063 10.297-12.371 24.126l-.848.009c-9.884 0-18.857-3.763-25.623-9.941 11.401-2.913 21.01-8.127 31.807-18.318 10.795-10.192 16.13-22.082 17.587-27.663 1.457-5.581-.606-2.305-1.696.241-1.691 3.941-7.276 14.561-18.312 24.875-11.041 10.31-19.523 15.4-31.044 19.281-3.848-3.952-6.808-8.741-8.651-14.063 3.878.241 16.104-1.168 22.227-6.189 8.048-6.602 8.974-14.44 10.07-25.601 1.09-11.159 2.724-14.479 5.393-18.725 20.204.918 36.303 17.595 36.303 38.034-.003 2.872-.333 5.665-.935 8.356" id="Shape" fill="#A63732"/><path d="M202.414 129.508c-7.883-3.276-17.238-.247-23.908 5.578-6.67 5.822-10.063 10.297-12.371 24.126l-.848.009c-9.884 0-18.857-3.763-25.623-9.941 11.401-2.913 21.01-8.127 31.807-18.318 10.795-10.192 16.13-22.082 17.587-27.663 1.457-5.581-.606-2.305-1.696.241-1.691 3.941-7.276 14.561-18.312 24.875-11.041 10.31-19.523 15.4-31.044 19.281-3.848-3.952-6.808-8.741-8.651-14.063 3.878.241 16.104-1.168 22.227-6.189 8.048-6.602 8.974-14.44 10.07-25.601 1.09-11.159 2.724-14.479 5.393-18.725 20.204.918 36.303 17.595 36.303 38.034-.003 2.872-.333 5.665-.935 8.356z" id="Shape" stroke="#A63732" stroke-width=".306"/><path d="M201.358 133.324c-1.819-2.546-8.305-3.771-18.609 2.671-.968.605-1.638 1.03-.483 2.183 2.182 2.186 5.463 6.315 7.767 11.898 5.149-4.415 9.11-10.182 11.324-16.752" id="Shape" fill="#A63732"/><path d="M201.358 133.324c-1.819-2.546-8.305-3.771-18.609 2.671-.968.605-1.638 1.03-.483 2.183 2.182 2.186 5.463 6.315 7.767 11.898 5.149-4.415 9.11-10.182 11.324-16.752z" id="Shape" stroke="#A63732" stroke-width=".306"/><path d="M186.991 152.432c-2.182-5.337-3.998-9.218-6.059-11.886-1.112-1.44-1.336-2.061-3.397-.241-5.733 5.058-7.944 12.73-9.155 18.795 6.883-.554 13.251-2.936 18.612-6.667" id="Shape" fill="#A63732"/><path d="M186.991 152.432c-2.182-5.337-3.998-9.218-6.059-11.886-1.112-1.44-1.336-2.061-3.397-.241-5.733 5.058-7.944 12.73-9.155 18.795 6.883-.554 13.251-2.936 18.612-6.667z" id="Shape" stroke="#A63732" stroke-width=".306"/><path d="M233.751 391.076c.789-.364 1.878-.849 2.367-.486.483.366 3.393 2.43 5.213 4.006 1.819 1.578 2.426 2.061.97 2.91-1.455.851-2.79 1.7-2.545.97.241-.726.605-1.819-.366-2.788-.968-.97-3.348-2.811-4.364-3.641-.669-.542-1.273-.971-1.273-.971" id="Shape" fill="#BA9653"/><path d="M233.751 391.076c.789-.364 1.878-.849 2.367-.486.483.366 3.393 2.43 5.213 4.006 1.819 1.578 2.426 2.061.97 2.91-1.455.851-2.79 1.7-2.545.97.241-.726.605-1.819-.366-2.788-.968-.97-3.348-2.811-4.364-3.641-.669-.542-1.273-.971-1.273-.971z" id="Shape" stroke="#BA9653" stroke-width=".306"/><path d="M226.895 393.077c-.605.548-.727 1.46 0 2.186.73.727 4.791 4.123 5.46 4.793.669.67 1.635.909 2.729.67 1.09-.244-1.272 1.333-2.182 1.512-.911.185-1.941.185-2.912-.727-.97-.91-6.428-6.067-7.52-7.099-1.09-1.031.305-1.031 1.272-1.15.973-.119 1.82-.06 3.153-.185" id="Shape" fill="#BA9653"/><path d="M226.895 393.077c-.605.548-.727 1.46 0 2.186.73.727 4.791 4.123 5.46 4.793.669.67 1.635.909 2.729.67 1.09-.244-1.272 1.333-2.182 1.512-.911.185-1.941.185-2.912-.727-.97-.91-6.428-6.067-7.52-7.099-1.09-1.031.305-1.031 1.272-1.15.973-.119 1.82-.06 3.153-.185z" id="Shape" stroke="#BA9653" stroke-width=".306"/><path d="M220.105 362.022c.369 1.111.484 2.123-1.211 1.879-1.699-.244-8.852-.91-10.914-.91-.484 0-.302-1.213-1.031-.727-.727.489-.424 1.578-.424 2.791 0 1.213-.102 1.941-.061 2.791.061 1.275.852 3.035 4.123 3.217 3.275.179 6.367-.182 7.337-.852.971-.665-.061-1.757-.97-1.757-.907 0-6.367.423-7.52 0-1.151-.423-1.899-1.752-1.09-2.305.97-.667 2.851.185 4.727.185 1.88 0 3.881-.489 4.367-.185.484.302 1.153.185 1.153 2.484 0 .489 1.151.669 1.696.669.545 0 .788.909.728 2.125-.064 1.208.058 1.453-2.124 1.453s-11.58-.119-12.977-.119c-.547 0-.608-.426-.666-1.518-.061-1.091-.424-8.673-.547-9.28-.121-.608 1.455-.667 2.729-.423 1.272.241 2.851.486 4.911.608 2.063.119 5.216.423 5.216.423s1.577.185 1.758-.304c.186-.486.669-.605.791-.241" id="Shape" fill="#BA9653"/><path d="M220.105 362.022c.369 1.111.484 2.123-1.211 1.879-1.699-.244-8.852-.91-10.914-.91-.484 0-.302-1.213-1.031-.727-.727.489-.424 1.578-.424 2.791 0 1.213-.102 1.941-.061 2.791.061 1.275.852 3.035 4.123 3.217 3.275.179 6.367-.182 7.337-.852.971-.665-.061-1.757-.97-1.757-.907 0-6.367.423-7.52 0-1.151-.423-1.899-1.752-1.09-2.305.97-.667 2.851.185 4.727.185 1.88 0 3.881-.489 4.367-.185.484.302 1.153.185 1.153 2.484 0 .489 1.151.669 1.696.669.545 0 .788.909.728 2.125-.064 1.208.058 1.453-2.124 1.453s-11.58-.119-12.977-.119c-.547 0-.608-.426-.666-1.518-.061-1.091-.424-8.673-.547-9.28-.121-.608 1.455-.667 2.729-.423 1.272.241 2.851.486 4.911.608 2.063.119 5.216.423 5.216.423s1.577.185 1.758-.304c.186-.486.669-.605.791-.241z" id="Shape" stroke="#BA9653" stroke-width=".306"/><path d="M176.565 195.02c-1.577-.486-2.79 1.333-3.519 2.791-.727 1.454-1.574 3.032.73 6.308 2.304 3.276 3.74 5.226 7.761 4.973 1.941-.119 3.637-1.575 4.245-2.427.606-.848.727.611-.244 2.063-.968 1.456-1.695 4.851.122 7.159 1.821 2.302 5.579 4.243 10.551 1.333 4.973-2.913 7.036-6.429 7.885-8.008.848-1.578.848-2.305 0-3.276-.849-.97-3.639-5.588-4.246-14.681-.363-5.459.608-8.979-2.79-10.918-3.394-1.941-11.162-6.538-12.127-15.532-.363-3.394-.122-8.614-3.518-5.824-3.394 2.792-3.394 4.733-3.758 6.795-.366 2.063 1.333 4.854 2.79 6.792 1.454 1.941 3.15 6.189 4.486 7.281 1.333 1.091 2.182 1.941 3.275 2.061 1.09.121 5.457.121 6.546.484 1.093.366 1.699 1.7-.97 1.7-2.668 0-6.787.727-8.61.968-1.819.244-3.517.366-4.364 4.006-.85 3.635-2.063 7.886-2.185 9.219-.119 1.335-.846 2.065-.846 2.792 0 .727 1.454 4.243 4.727.727 3.275-3.519 4.608-7.038 5.216-8.737.608-1.697 1.333-1.456.727 1.211-.605 2.671-.788 9.344.484 11.649 1.369 2.476 4.137 5.029 7.642 3.276.727-.364 1.938-.971 2.909-.852.971.125-.182 1.822-1.029 2.549-.849.73-3.64 3.817-8.551-.605-1.214-1.092-2.897-3.523-3.275-6.552-.122-.97-1.455-1.336-2.06-.484-.606.848-3.881 3.88-6.186 1.697-2.304-2.183-3.258-3.393-1.938-8.007.241-.843.709-1.749.119-1.934" id="Shape" fill="#F9B282"/><path d="M176.565 195.02c-1.577-.486-2.79 1.333-3.519 2.791-.727 1.454-1.574 3.032.73 6.308 2.304 3.276 3.74 5.226 7.761 4.973 1.941-.119 3.637-1.575 4.245-2.427.606-.848.727.611-.244 2.063-.968 1.456-1.695 4.851.122 7.159 1.821 2.302 5.579 4.243 10.551 1.333 4.973-2.913 7.036-6.429 7.885-8.008.848-1.578.848-2.305 0-3.276-.849-.97-3.639-5.588-4.246-14.681-.363-5.459.608-8.979-2.79-10.918-3.394-1.941-11.162-6.538-12.127-15.532-.363-3.394-.122-8.614-3.518-5.824-3.394 2.792-3.394 4.733-3.758 6.795-.366 2.063 1.333 4.854 2.79 6.792 1.454 1.941 3.15 6.189 4.486 7.281 1.333 1.091 2.182 1.941 3.275 2.061 1.09.121 5.457.121 6.546.484 1.093.366 1.699 1.7-.97 1.7-2.668 0-6.787.727-8.61.968-1.819.244-3.517.366-4.364 4.006-.85 3.635-2.063 7.886-2.185 9.219-.119 1.335-.846 2.065-.846 2.792 0 .727 1.454 4.243 4.727.727 3.275-3.519 4.608-7.038 5.216-8.737.608-1.697 1.333-1.456.727 1.211-.605 2.671-.788 9.344.484 11.649 1.369 2.476 4.137 5.029 7.642 3.276.727-.364 1.938-.971 2.909-.852.971.125-.182 1.822-1.029 2.549-.849.73-3.64 3.817-8.551-.605-1.214-1.092-2.897-3.523-3.275-6.552-.122-.97-1.455-1.336-2.06-.484-.606.848-3.881 3.88-6.186 1.697-2.304-2.183-3.258-3.393-1.938-8.007.241-.843.709-1.749.119-1.934z" id="Shape" stroke="#F9B282" stroke-width=".306"/><path d="M178.992 188.226c-.523 1.565-.97 3.64-1.211 4.365-.244.73-1.333 2.305-2.307.244-.968-2.063-.922-3.691.606-5.218.486-.486 1.211-1.456 1.699-.971.483.487 1.332 1.213 1.212 1.579" id="Shape" fill="#F9B282"/><path d="M178.992 188.226c-.523 1.565-.97 3.64-1.211 4.365-.244.73-1.333 2.305-2.307.244-.968-2.063-.922-3.691.606-5.218.486-.486 1.211-1.456 1.699-.971.483.487 1.332 1.213 1.212 1.579z" id="Shape" stroke="#F9B282" stroke-width=".306"/><path d="M184.449 182.645c-1 .5-3.13.494-3.883 2.183-.483 1.092-2.426-.122-1.455-1.456.974-1.335 1.699-1.213 2.304-1.575.606-.366.85-1.456 2.063-.852 1.212.608 1.457 1.456.971 1.7" id="Shape" fill="#F9B282"/><path d="M184.449 182.645c-1 .5-3.13.494-3.883 2.183-.483 1.092-2.426-.122-1.455-1.456.974-1.335 1.699-1.213 2.304-1.575.606-.366.85-1.456 2.063-.852 1.212.608 1.457 1.456.971 1.7z" id="Shape" stroke="#F9B282" stroke-width=".306"/><path d="M264.375 122.589c-3.394.365-6.547 2.427-9.702 4.611-3.153 2.183-14.553 11.77-17.223 13.708 2.793 1.456 3.518 4.368 2.548 9.221-.215 1.079 0 1.456.73.729.727-.729 4.12-4.368 4.001-7.278-.122-2.913-1.455-4.61-1.699-4.973-.241-.365.97-1.822 2.304 1.213 1.333 3.032.971 7.278-3.031 12.01-4.001 4.729-7.154 4.61-8.85 5.459-1.701.848-3.399 2.184-1.823 4.73 1.579 2.549 4.61 1.578 5.822.73 1.214-.852 2.912-1.819 6.793-1.456 3.878.364 5.172-2.106 2.545-4.733-.848-.848-3.031-2.791-.363-2.791 1.577 0 3.515 3.521 4.608 4.492 1.093.97 3.517 1.333 6.793 1.575 3.272.244 8.366 1.456 8.366 4.61 0 1.941-1.044 2.506-2.423.97-.544-.608-1.324.35-1.941.97-2.063 2.063-7.34 7.645-11.1 8.613-3.758.971-5.152-.119-10.124-2.791-4.975-2.668-9.583-5.337-10.916-6.185-1.336-.852-4.126-2.791-2.793 1.092 1.336 3.88 4.611 7.883 11.16 10.066 6.55 2.186 7.52 2.913 8.977 3.638 1.454.73.605 1.456-1.333 1.214-1.689-.211-3.515-1.697-2.063 1.575 1.455 3.279 3.637 6.797 10.31 5.948 6.668-.848 6.861-2.261 11.037-9.219.727-1.216 1.455-.366.971 2.791 3.274-1.578 5.094-2.063 7.032-2.549 1.944-.484 6.988-2.197 10.311-8.372 1.696-3.154 2.617-4.236 2.304-7.519-.113-1.22 1.696-3.638 3.519-5.34 1.816-1.698 6.793-8.129 4.245-12.739-2.548-4.61-6.795-2.305-8.855 1.092-2.06 3.398-4.364 7.156-4.489 12.98-1.454-.483-2.939.051-3.639 1.211-.363.611-5.701-.119-7.52.366-1.817.486-2.425-.606-.483-3.154 1.938-2.551 8.775-11.783 8.366-18.686-.119-2.061.158-2.442.488-4.002.423-2.002.606-2.033-1.883-3.398-1.619-.887-1.717-3.413-2-5.337-.304-2.062-.698-2.071-3.034-1.579-1.727.371-4.61-1.331-5.944-3.513" id="Shape" fill="#F9B282"/><path d="M264.375 122.589c-3.394.365-6.547 2.427-9.702 4.611-3.153 2.183-14.553 11.77-17.223 13.708 2.793 1.456 3.518 4.368 2.548 9.221-.215 1.079 0 1.456.73.729.727-.729 4.12-4.368 4.001-7.278-.122-2.913-1.455-4.61-1.699-4.973-.241-.365.97-1.822 2.304 1.213 1.333 3.032.971 7.278-3.031 12.01-4.001 4.729-7.154 4.61-8.85 5.459-1.701.848-3.399 2.184-1.823 4.73 1.579 2.549 4.61 1.578 5.822.73 1.214-.852 2.912-1.819 6.793-1.456 3.878.364 5.172-2.106 2.545-4.733-.848-.848-3.031-2.791-.363-2.791 1.577 0 3.515 3.521 4.608 4.492 1.093.97 3.517 1.333 6.793 1.575 3.272.244 8.366 1.456 8.366 4.61 0 1.941-1.044 2.506-2.423.97-.544-.608-1.324.35-1.941.97-2.063 2.063-7.34 7.645-11.1 8.613-3.758.971-5.152-.119-10.124-2.791-4.975-2.668-9.583-5.337-10.916-6.185-1.336-.852-4.126-2.791-2.793 1.092 1.336 3.88 4.611 7.883 11.16 10.066 6.55 2.186 7.52 2.913 8.977 3.638 1.454.73.605 1.456-1.333 1.214-1.689-.211-3.515-1.697-2.063 1.575 1.455 3.279 3.637 6.797 10.31 5.948 6.668-.848 6.861-2.261 11.037-9.219.727-1.216 1.455-.366.971 2.791 3.274-1.578 5.094-2.063 7.032-2.549 1.944-.484 6.988-2.197 10.311-8.372 1.696-3.154 2.617-4.236 2.304-7.519-.113-1.22 1.696-3.638 3.519-5.34 1.816-1.698 6.793-8.129 4.245-12.739-2.548-4.61-6.795-2.305-8.855 1.092-2.06 3.398-4.364 7.156-4.489 12.98-1.454-.483-2.939.051-3.639 1.211-.363.611-5.701-.119-7.52.366-1.817.486-2.425-.606-.483-3.154 1.938-2.551 8.775-11.783 8.366-18.686-.119-2.061.158-2.442.488-4.002.423-2.002.606-2.033-1.883-3.398-1.619-.887-1.717-3.413-2-5.337-.304-2.062-.698-2.071-3.034-1.579-1.727.371-4.61-1.331-5.944-3.513z" id="Shape" stroke="#F9B282" stroke-width=".306"/><path d="M250.185 160.565c-.669 1.515-2.499 2.971-6.729 2.485-2.124-.241-4.2-.272-4.547 1.395-.244 1.153-1.209 1.091-2.548 1.031-1.396-.061-2.909-.428-2.974.061-.058.486 5.944 4.063 7.946 4.973 2.002.91 4.919 3.078 7.276 2.852 3.156-.302 5.899-1.866 10.554-6.795 1.917-2.031 3.457-3.093 1.634-3.941-1.231-.576-2.486-.73-4.12-.73-1.641.001-5.158-.24-6.491-1.331" id="Shape" fill="#F9B282"/><path d="M250.185 160.565c-.669 1.515-2.499 2.971-6.729 2.485-2.124-.241-4.2-.272-4.547 1.395-.244 1.153-1.209 1.091-2.548 1.031-1.396-.061-2.909-.428-2.974.061-.058.486 5.944 4.063 7.946 4.973 2.002.91 4.919 3.078 7.276 2.852 3.156-.302 5.899-1.866 10.554-6.795 1.917-2.031 3.457-3.093 1.634-3.941-1.231-.576-2.486-.73-4.12-.73-1.641.001-5.158-.24-6.491-1.331z" id="Shape" stroke="#F9B282" stroke-width=".306"/><path d="M227.564 160.624c-1.635-.06-1.819-1.274-.727-3.094 1.092-1.821 2.121-3.515 3.578-4.611.241.79.727 1.758 1.455 2.186-.971 1.03-2.252 2.324-2.008 4.87" id="Shape" fill="#F9B282"/><path d="M227.564 160.624c-1.635-.06-1.819-1.274-.727-3.094 1.092-1.821 2.121-3.515 3.578-4.611.241.79.727 1.758 1.455 2.186-.971 1.03-2.252 2.324-2.008 4.87l-2.298.65z" id="Shape" stroke="#F9B282" stroke-width=".306"/><path d="M254.793 142.731c.302-1.7.061-3.096-2.426-1.094-2.304-1.697-4.364-3.76-5.094-4.246-.727-.484-1.09-1.211-.241-2.061.849-.852 2.362.643 1.999-1.883-.119-.848 1.88-.302 2.365-.544.486-.243-.221-1.422 2.063-.848.727.18.424-1.214 1.88-.97 1.454.241 2.181.788 2.487-.366.301-1.152.637-1.873 2.487-.727 1.271.788 1.756.302 1.878-.304.122-.605 1.271-.241 2.304.365 1.034.608 3.596 1.88 6.613 5.401.727.846 1.089 1.755.605 1.877-.483.122-1.034 0-1.153.971-.122.97-.608 1.819-1.156.727-.544-1.091-.666.183-1.089-.968-.423-1.153-.971.425-1.272-.364-.394-1.024-.766.172-1.151-.729-.185-.425-1.334.544-1.704-.122-.363-.666-1.148.729-1.756-.061-.605-.788-.605.851-1.576.484-.97-.364-.544.91-1.515.486-.971-.425-.67 1.214-1.579.97-.91-.241-.846.183-1.029 1.216-.183 1.03-.606 5.031-.547 6.001.063.974 2.06.73 5.097.302 3.031-.422 8.446-2.101 11.159-4.365 1.09-.909 2.061-.848 2.243-.545.183.304-.301 1.275-1.093 1.941-.786.669-2.852 2.791-7.517 3.701-4.672.909-8.555 1.639-9.34 1.456-.789-.183.304 1.153 1.696.848.736-.159 2.304 2.729 4.85 2.729 2.064 0 5.155-2.305 6.005-2.971.846-.667 3.942-2.063 1.88 0-2.061 2.063-4.246 4.307-6.425 4.365-2.185.061-5.523-.666-7.821-2.244-2.308-1.575-3.156-2.424-2.733-4.851.423-2.427.487-2.913.606-3.579" id="Shape" fill="#061922"/><path d="M254.793 142.731c.302-1.7.061-3.096-2.426-1.094-2.304-1.697-4.364-3.76-5.094-4.246-.727-.484-1.09-1.211-.241-2.061.849-.852 2.362.643 1.999-1.883-.119-.848 1.88-.302 2.365-.544.486-.243-.221-1.422 2.063-.848.727.18.424-1.214 1.88-.97 1.454.241 2.181.788 2.487-.366.301-1.152.637-1.873 2.487-.727 1.271.788 1.756.302 1.878-.304.122-.605 1.271-.241 2.304.365 1.034.608 3.596 1.88 6.613 5.401.727.846 1.089 1.755.605 1.877-.483.122-1.034 0-1.153.971-.122.97-.608 1.819-1.156.727-.544-1.091-.666.183-1.089-.968-.423-1.153-.971.425-1.272-.364-.394-1.024-.766.172-1.151-.729-.185-.425-1.334.544-1.704-.122-.363-.666-1.148.729-1.756-.061-.605-.788-.605.851-1.576.484-.97-.364-.544.91-1.515.486-.971-.425-.67 1.214-1.579.97-.91-.241-.846.183-1.029 1.216-.183 1.03-.606 5.031-.547 6.001.063.974 2.06.73 5.097.302 3.031-.422 8.446-2.101 11.159-4.365 1.09-.909 2.061-.848 2.243-.545.183.304-.301 1.275-1.093 1.941-.786.669-2.852 2.791-7.517 3.701-4.672.909-8.555 1.639-9.34 1.456-.789-.183.304 1.153 1.696.848.736-.159 2.304 2.729 4.85 2.729 2.064 0 5.155-2.305 6.005-2.971.846-.667 3.942-2.063 1.88 0-2.061 2.063-4.246 4.307-6.425 4.365-2.185.061-5.523-.666-7.821-2.244-2.308-1.575-3.156-2.424-2.733-4.851.423-2.427.487-2.913.606-3.579z" id="Shape" stroke="#F9B282" stroke-width=".306"/><path d="M290.088 150.372c-1.407.996-2.185 1.333-2.304 3.032-.119 1.701-.459 4.597-1.09 4.855-.827.336-.714-1.573-.97-.97-.363.848-1.397.484-1.698-.307-.131-.336-3.156-.301-.731-3.823 2.197-3.185 3.881-4.851 5.46-5.578 1.577-.729 4.245.727 1.333 2.791" id="Shape" fill="#061922"/><path d="M290.088 150.372c-1.407.996-2.185 1.333-2.304 3.032-.119 1.701-.459 4.597-1.09 4.855-.827.336-.714-1.573-.97-.97-.363.848-1.397.484-1.698-.307-.131-.336-3.156-.301-.731-3.823 2.197-3.185 3.881-4.851 5.46-5.578 1.577-.729 4.245.727 1.333 2.791z" id="Shape" stroke="#F9B282" stroke-width=".306"/><path d="M349.457 294.563c-.565-1.422.426-3.817 3.455-2.12 3.031 1.697 5.337 3.157 3.15 9.829-2.179 6.67-3.756 10.554-4.602 13.345-.852 2.791-4.127 6.308-3.037 1.575 1.096-4.729 1.673-10.447 1.215-13.345-.852-5.34.862-5.024.304-7.463-.173-.749-.281-1.3-.486-1.821" id="Shape" fill="#F9B282"/><path d="M349.457 294.563c-.565-1.422.426-3.817 3.455-2.12 3.031 1.697 5.337 3.157 3.15 9.829-2.179 6.67-3.756 10.554-4.602 13.345-.852 2.791-4.127 6.308-3.037 1.575 1.096-4.729 1.673-10.447 1.215-13.345-.852-5.34.862-5.024.304-7.463-.173-.749-.281-1.3-.486-1.821z" id="Shape" stroke="#F9B282" stroke-width=".306"/><path d="M360.917 300.329c.874 2.623 1.821 8.613.363 11.041-1.454 2.424-5.943 9.097-7.641 10.796-1.696 1.7-3.031.97-1.941-.849 1.096-1.819 2.548-4.243 2.548-5.095 0-.849-.119-1.821 1.335-4.608 1.458-2.791 4.001-12.135 4.245-12.862.244-.727.852.852 1.09 1.578" id="Shape" fill="#F9B282"/><path d="M360.917 300.329c.874 2.623 1.821 8.613.363 11.041-1.454 2.424-5.943 9.097-7.641 10.796-1.696 1.7-3.031.97-1.941-.849 1.096-1.819 2.548-4.243 2.548-5.095 0-.849-.119-1.821 1.335-4.608 1.458-2.791 4.001-12.135 4.245-12.862.244-.727.852.852 1.09 1.578z" id="Shape" stroke="#F9B282" stroke-width=".306"/><path d="M329.626 322.774c-.727-2.184-1.09-5.338-2.306-7.157.971-2.668 4.166-9.848 9.581-12.011.608-.244.974-.852.73-1.333-.244-.489.73-.852 1.211.845.486 1.701 1.335 6.552 1.335 6.552.244 1.094-.241 1.944-.486 3.398-.244 1.456-.849 4.732-.486 6.43.366 1.697.971 2.913 4.368 2.186 1.696-.366 1.577-.852 2.06-2.308.488-1.454 1.819-5.581 2.307-7.887.483-2.302.06-7.946-.426-9.398-.481-1.46.182-6.371-.182-7.342-.365-.97-.606-2.424-3.637-3.401-3.034-.964-3.883-1.208-5.943.852-2.064 2.061-2.793 2.913-3.761 3.884-.971.97-3.397.119-1.335-1.824 2.064-1.935 4.002-3.877 4.607-4.485l-.605-1.578h-1.093c-3.274 3.275-7.639 5.218-10.551 5.82-1.096.231-3.153.368-1.696 2.311.363.483.486 1.816 1.333 1.333.849-.489 2.183-2.674 3.397-1.697 1.212.966-.244 3.276-1.699 4.365-1.454 1.091-3.031 2.181-4.121 2.788-1.093.611-1.699 1.216-1.577 3.157.119 1.943.241 5.462-.849 8.127-1.093 2.673-.488 3.398.483 5.216.97 1.822 2.548 3.4 3.034 6.31.486 2.913.725 3.64 2.668 3.398 1.941-.244 2.668-1.092 3.397-2.305" id="Shape" fill="#F9B282"/><path d="M329.626 322.774c-.727-2.184-1.09-5.338-2.306-7.157.971-2.668 4.166-9.848 9.581-12.011.608-.244.974-.852.73-1.333-.244-.489.73-.852 1.211.845.486 1.701 1.335 6.552 1.335 6.552.244 1.094-.241 1.944-.486 3.398-.244 1.456-.849 4.732-.486 6.43.366 1.697.971 2.913 4.368 2.186 1.696-.366 1.577-.852 2.06-2.308.488-1.454 1.819-5.581 2.307-7.887.483-2.302.06-7.946-.426-9.398-.481-1.46.182-6.371-.182-7.342-.365-.97-.606-2.424-3.637-3.401-3.034-.964-3.883-1.208-5.943.852-2.064 2.061-2.793 2.913-3.761 3.884-.971.97-3.397.119-1.335-1.824 2.064-1.935 4.002-3.877 4.607-4.485l-.605-1.578h-1.093c-3.274 3.275-7.639 5.218-10.551 5.82-1.096.231-3.153.368-1.696 2.311.363.483.486 1.816 1.333 1.333.849-.489 2.183-2.674 3.397-1.697 1.212.966-.244 3.276-1.699 4.365-1.454 1.091-3.031 2.181-4.121 2.788-1.093.611-1.699 1.216-1.577 3.157.119 1.943.241 5.462-.849 8.127-1.093 2.673-.488 3.398.483 5.216.97 1.822 2.548 3.4 3.034 6.31.486 2.913.725 3.64 2.668 3.398 1.941-.244 2.668-1.092 3.397-2.305l.241-4.246z" id="Shape" stroke="#F9B282" stroke-width=".306"/><path d="M330.354 328.355c-.848 1.456-2.304 3.758-2.304 5.825 0 2.061-2.063 4.243-1.819 5.215.241.97 2.909 3.518 4.486 6.192 1.576 2.668 3.639 6.67 3.639 13.342 0 6.672-2.182 15.773-2.426 16.988-.241 1.213-.849 2.183.97 3.881 1.823 1.7 4.732 4.854 5.821 12.011 1.093 7.156 1.823 10.918 2.306 11.284.487.361.362.967.362 2.302s1.215 8.979 2.064 10.435c.85 1.46.73-8.249.608-11.04-.122-2.791.122-16.135.606-18.078.486-1.941.968-4.124-.728-6.548-1.698-2.427-4.61-6.678-2.425-13.713 2.183-7.04 5.699-6.915 4.61-9.708-1.093-2.788-3.037-4.73-4.49-6.308-1.455-1.578-.295-5.331-.366-6.916-.118-2.913-2.423-3.394-2.665-6.673-.24-3.276-.484-5.945 1.942-9.221 2.423-3.273-.852-3.151-1.942-5.215-1.092-2.062-1.679-4.821-.725-9.099.486-2.186.241-2.791-.366-3.035-.608-.241-3.153-.727-3.153-.727l-3.761 7.524c.608 1.456.849 3.638.849 5.092" id="Shape" fill="#A63732"/><path d="M330.354 328.355c-.848 1.456-2.304 3.758-2.304 5.825 0 2.061-2.063 4.243-1.819 5.215.241.97 2.909 3.518 4.486 6.192 1.576 2.668 3.639 6.67 3.639 13.342 0 6.672-2.182 15.773-2.426 16.988-.241 1.213-.849 2.183.97 3.881 1.823 1.7 4.732 4.854 5.821 12.011 1.093 7.156 1.823 10.918 2.306 11.284.487.361.362.967.362 2.302s1.215 8.979 2.064 10.435c.85 1.46.73-8.249.608-11.04-.122-2.791.122-16.135.606-18.078.486-1.941.968-4.124-.728-6.548-1.698-2.427-4.61-6.678-2.425-13.713 2.183-7.04 5.699-6.915 4.61-9.708-1.093-2.788-3.037-4.73-4.49-6.308-1.455-1.578-.295-5.331-.366-6.916-.118-2.913-2.423-3.394-2.665-6.673-.24-3.276-.484-5.945 1.942-9.221 2.423-3.273-.852-3.151-1.942-5.215-1.092-2.062-1.679-4.821-.725-9.099.486-2.186.241-2.791-.366-3.035-.608-.241-3.153-.727-3.153-.727l-3.761 7.524c.608 1.456.849 3.638.849 5.092l-1.09 6.189z" id="Shape" stroke="#A63732" stroke-width=".306"/><path d="M295.304 180.703c-2.989 3.986-7.639 14.072-9.824 20.385-2.185 6.308-7.158 21.352-3.639 31.302 3.519 9.946 10.426 3.635 12.005-.122 1.577-3.763 4.002-10.192 4.727-11.891.733-1.7 1.096-2.671 2.429 1.333 1.334 4.002 3.275 13.588 3.275 14.437 0 .851-1.333 3.276-2.787 7.037-1.458 3.762-2.31 6.43-.85 8.735 1.452 2.308 7.157 12.134 8.975 16.377 1.093 2.551 2.061 3.035 4.973 2.309 2.912-.727 9.943-3.157 12.008-4.125 2.06-.971 1.089-2.671.481-4.732-.919-3.137-4.605-20.627-4.605-22.929 0-2.305.619-5.328-2.426-1.941-1.09 1.211-2.545 0-2.182-1.697.362-1.7 4.001-25.358 4.245-28.27-2.063-4.49-8.125-18.683-9.824-21.232-1.698-2.546-2.306-2.668-4.854-1.333-2.545 1.333-8.235 3.381-10.31-1.456-.363-.849-.971-2.791.488-3.032l-1.09-.366c0-.001-.852.727-1.215 1.213m31.773 87.23c-2.259 1.294-9.94 4.61-13.094 5.098-3.24.494-2.429 1.333-1.821 3.758.606 2.426 2.426 9.709 3.396 12.253.971 2.549 2.306 2.507 4.854 2.43 3.878-.125 10.429-1.822 15.156-6.187-1.333-1.579-3.668-9.138-4.364-12.378-.731-3.395-.731-6.913-4.127-4.973m-69.494-70.006c-.243.49-1.089 1.943-3.032 1.943-1.938 0-3.517-.606-4.727 1.092-1.214 1.697-7.883 9.829-9.339 14.802 1.455 3.032 3.396 8.491 4.85 12.375 4.73-4.003 19.829-18.746 22.681-21.594 1.092-1.094 1.214-2.063-.361-3.154-1.577-1.094-7.401-4.732-8.372-5.34-.973-.605-1.455-.605-1.699-.124m-38.206 21.354c-.935 3.742-2.79 10.311-5.824 15.41 1.215 1.938 2.185 3.64 3.639 4.243 3.396-2.424 9.827-8.372 11.644-10.556 1.819-2.183 4.123-5.456 4.123-6.185 0-.73-.848-.971-1.938-.73-1.092.244-5.585-1.552-9.946-2.424-1.212-.244-1.576-.244-1.698.241m-2.667-3.639c-1.332-.265-5.943-5.218-7.52-7.886-1.574-2.668-1.819-2.427-2.426-.483-.605 1.938-2.909 6.186-4.486 8.247-1.574 2.063-5.7 7.403-6.792 8.616-1.092 1.213 0 1.697.97 2.665.971.973 5.944 7.038 7.036 8.376 1.09 1.333 2.301 3.758 5.213 1.091s6.43-7.519 8.006-12.497c1.577-4.973 1.696-7.581 3.031-7.278l.061-1.032-.363-.605-.728-.608c.183.425.183.788-.119 1.272-.302.489-1.276.244-1.881.122m74.221-111.616c-3.264 3.864-9.82 7.278-20.859 10.069-11.037 2.791-21.59 10.554-26.077 14.318-4.486 3.758-15.797 13.024-21.223 15.283-1.455.608-4.55 2.663-.608 3.154 2.909.366 4.972-1.332 11.281-5.945 6.306-4.61 11.199-7.937 16.01-12.615 4.486-4.37 12.611-8.492 21.343-10.919 8.735-2.427 20.202-6.243 23.533-9.827 1.577-1.697 1.696-2.549.238-4.005-1.454-1.454-2.306-1.091-3.639.487m-55.664 38.156c-.954.521-1.333 1.091-2.431 4.61-1.09 3.516-.968 5.578-.058 6.429.66.614 1.634.666 2.122.666.365 0 .727.125.666-.909-.06-1.032-.131-5.43 3.155-7.4.605-.364-.083-2.907-2.243-2.546-.728.119.001-1.515-1.211-.849m-37.48 13.888c1.696 0 2.791 0 2.669 1.943-.119 1.941-.971 4.61-1.09 6.43-.126 1.819-.126 2.549.971 2.549 1.09 0-1.579 1.091-3.035 1.333-1.455.241-3.697 1.079-4.852-5.095-.363-1.941-.241-4.973-.483-5.703 1.576-.726 3.746-1.457 5.821-1.457m32.24 5.184c.445 2.447 1.112 2.401.628 2.764-.483.364-.994-.925-2.97-.609-1.88.307-17.162 2.676-18.256 2.795-3.393.361-3.576-.182-.424-.851 3.152-.666 14.691-2.767 18.132-3.459m-15.523 184.897c1.574.971 5.335 2.062 11.766-.602 6.424-2.674 13.583-.851 14.672 3.759 1.093 4.611 1.135 10.55-.848 13.105-1.696 2.18-3.272 1.941-5.217 1.333-3.514-1.101-11.641-4.854-13.945-5.945-2.304-1.095-6.186-2.305-8.977-2.305-1.09-2.311-.97-6.314-.241-7.767.727-1.454.727-2.913 1.333-2.549.608.368 1.457.97 1.457.97m25.472 21.475c1.574 0 4.431.662 5.335 3.521.727 2.305 5.457 2.913 7.517 2.793 2.063-.125 1.699.964 1.577 2.183-.122 1.211-.486 4.851-.486 6.308 0 1.456.363 6.551.608 7.519.241.974-.608 1.457-1.699 1.941-1.09.489-5.094 1.701-7.639-.119-1.342-.961-2.912-2.305-1.333-2.427 1.574-.122-1.938-13.833-2.912-16.258-.968-2.43-3.762-5.462-.968-5.462m-41.726-28.632c.654.218.97.851 1.455 1.7.486.846.651 1.582-.122 2.427-1.333 1.454-2.912 8.124-2.668 12.861-.849-.244-2.668-.608-3.639-.364-.363-2.668-.122-11.043 1.09-13.711 1.215-2.668 2.428-3.395 3.883-2.913m.242 74.01c3.022 3.398 8.734 8.616 12.979 10.434 4.245 1.822 7.034 2.424 10.795 2.061 3.04-.292 2.426.97 0 1.333-2.426.364-8.003.364-11.641-1.572-3.64-1.941-9.416-5.53-13.101-10.802-.85-1.213 0-2.546.968-1.454m63.191-8.494c-2.471 1.121-7.032 3.398-11.4 4.489.486 2.186.608 3.153.608 3.76 2.668 0 7.808-1.861 12.005-4.488.973-.608 1.336-1.335.973-2.186-.366-.846-.85-2.181-2.185-1.576m-28.745-9.948c-.608-.605 2.851-1.335 3.576-1.335.849.545 2.396 1.912 2.971 2.487.366.364.186.608-.18.852-.368.244-2.484.787-3.46.846-1.087-.971-2.605-2.545-2.907-2.85m6.43-50.471c-.971-.727-.853-1.091-.363-1.819.483-.73.97-1.213 1.454-1.457.484-.241 1.214-.364 2.063.852.849 1.211 5.457 8.86 6.428 10.921.971 2.061 2.182.727 1.696-.489-.486-1.208-1.455-3.276-1.819-3.883 1.333-4.125 2.668-10.434 2.668-14.558 0-4.125-.97-8.251-1.696-9.707 3.275.122 10.429 0 13.22-.849 2.79-.848.484-1.092-.605-.97-1.093.122-8.934.096-14.678-.608-9.945-1.213-19.709-6.811-22.801-10.678-.484-.603-3.396-.362-.97 1.579 2.426 1.941 8.616 7.738 17.71 9.343 2.06.364 5.335.967 5.821 8.491.486 7.522-.244 12.376-.244 13.103 0 .727-.483.974-1.09.119-.608-.846-2.668-3.637-3.761-4.243-1.09-.605-1.819-.486-2.79.244-.97.726-2.428 2.183-3.032 2.91m-16.74 25.42c-.907 0-6.367.423-7.52 0-1.151-.423-1.899-1.752-1.09-2.305.97-.667 2.851.185 4.727.185 1.88 0 3.881-.489 4.367-.185.484.302 1.153.185 1.153 2.484m-14.855 33.122c-1.577-.967-3.403-5.465-3.759-14.436-.124-3.035 1.092-8.13 2.063-10.554.968-2.427-.606-1.463-.97-.608-.363.849-1.579 4.248-1.942 6.794-.363 2.549-.97 6.311 0 11.77.973 5.459 1.457 7.156 1.698 8.127" id="Shape" fill="#fff"/><path d="M253.399 103.784c.227-.59.424-1.236.673-1.758-.893.468-1.737.923-2.543 1.37.535.758 1.268 1.953 1.869.388" id="Shape" fill="#BA9653"/><path d="M253.399 103.784c.227-.59.424-1.236.673-1.758-.893.468-1.737.923-2.543 1.37.535.758 1.268 1.953 1.869.388z" id="Shape" stroke="#BA9653" stroke-width=".306"/><path d="M275.292 104.997c-.363-1.272-1.518.729-3.034 2.549-1.515 1.819-3.697.729-3.941-.183-.244-.909-.664-1.938-2.002-3.699-1.333-1.758 1.275-4.182 2.365-4.488 1.095-.302 2.486-.547 2.852-.849.307-.252-.241-2.043-.534-3.425-4.363 1.242-9.683 3.519-14.374 5.836 1.429.545 1.003 3.324.836 3.714-.183.428-.666 2.852.423 1.397 1.09-1.456 1.519-2.002 2.668-2.366 1.156-.366 2.431-.305 2.49 1.395.06 1.697-.727 1.575-.971 2.668-.241 1.092 0 1.031.548 1.272.545.241.907.97.483 2.125-.423 1.152-2.243 1.272-3.883 1.091-1.635-.18-1.817.061-1.272.606.446.446 1.039 1.413 1.249 2.427 3.954-1.909 8.724-3.509 16.119-5.027.202-1.396.279-3.986-.022-5.043" id="Shape" fill="#BA9653"/><path d="M275.292 104.997c-.363-1.272-1.518.729-3.034 2.549-1.515 1.819-3.697.729-3.941-.183-.244-.909-.664-1.938-2.002-3.699-1.333-1.758 1.275-4.182 2.365-4.488 1.095-.302 2.486-.547 2.852-.849.307-.252-.241-2.043-.534-3.425-4.363 1.242-9.683 3.519-14.374 5.836 1.429.545 1.003 3.324.836 3.714-.183.428-.666 2.852.423 1.397 1.09-1.456 1.519-2.002 2.668-2.366 1.156-.366 2.431-.305 2.49 1.395.06 1.697-.727 1.575-.971 2.668-.241 1.092 0 1.031.548 1.272.545.241.907.97.483 2.125-.423 1.152-2.243 1.272-3.883 1.091-1.635-.18-1.817.061-1.272.606.446.446 1.039 1.413 1.249 2.427 3.954-1.909 8.724-3.509 16.119-5.027.202-1.396.279-3.986-.022-5.043z" id="Shape" stroke="#BA9653" stroke-width=".306"/><path d="M236.967 128.958c-.545-1.091-1.336-1.272-1.635-.425-.304.849-.911 3.701-2.791 4.488-.605.256-1.083.407-1.423.506.648.704 1.375 1.333 2.213 1.925 1.484-1.571 2.871-3 4.204-4.328-.054-.682-.192-1.413-.567-2.167" id="Shape" fill="#BA9653"/><path d="M236.967 128.958c-.545-1.091-1.336-1.272-1.635-.425-.304.849-.911 3.701-2.791 4.488-.605.256-1.083.407-1.423.506.648.704 1.375 1.333 2.213 1.925 1.484-1.571 2.871-3 4.204-4.328-.054-.682-.192-1.413-.567-2.167z" id="Shape" stroke="#BA9653" stroke-width=".306"/><path d="M255.096 114.46c-.666-.244-1.212.788-1.635 1.515-.424.73-1.333 1.944-2.912 1.761-1.574-.183-1.941-.73-2.362-2.063-.426-1.333-1.397-1.758-2.548-1.758-1.153 0-1.941-1.395-.728-2.849 1.214-1.456 2.429-.791 3.396-.791.971 0 1.455-1.031.669-1.578-.628-.432-1.73-1.674-1.922-2.625-3.457 2.274-8.415 5.796-12.745 9.696.788.067 1.695.326 2.114.512.545.241 1.513.97 1.394 2.063-.122 1.091.241 1.333.909.605.666-.727-.122-2.91 2.121-3.76 2.243-.849 2.548.851 2.426 1.999-.122 1.158 0 2.247 1.153 2.732 1.151.486 2.484 2.367-.064 3.461-2.545 1.091-3.94 1.332-4.972 1.636-1.029.302-.788 1.333.061 1.999.516.406.888.804 1.191 1.107 3.208-2.977 6.236-5.414 9.666-7.719 1.872-1.258 3.588-2.396 5.367-3.443.292-1.091.395-2.149-.577-2.501" id="Shape" fill="#BA9653"/><path d="M255.096 114.46c-.666-.244-1.212.788-1.635 1.515-.424.73-1.333 1.944-2.912 1.761-1.574-.183-1.941-.73-2.362-2.063-.426-1.333-1.397-1.758-2.548-1.758-1.153 0-1.941-1.395-.728-2.849 1.214-1.456 2.429-.791 3.396-.791.971 0 1.455-1.031.669-1.578-.628-.432-1.73-1.674-1.922-2.625-3.457 2.274-8.415 5.796-12.745 9.696.788.067 1.695.326 2.114.512.545.241 1.513.97 1.394 2.063-.122 1.091.241 1.333.909.605.666-.727-.122-2.91 2.121-3.76 2.243-.849 2.548.851 2.426 1.999-.122 1.158 0 2.247 1.153 2.732 1.151.486 2.484 2.367-.064 3.461-2.545 1.091-3.94 1.332-4.972 1.636-1.029.302-.788 1.333.061 1.999.516.406.888.804 1.191 1.107 3.208-2.977 6.236-5.414 9.666-7.719 1.872-1.258 3.588-2.396 5.367-3.443.292-1.091.395-2.149-.577-2.501z" id="Shape" stroke="#BA9653" stroke-width=".306"/><path d="M231.325 125.804c.061-1.211-.848-1.637-1.455-1.819-.445-.135-1.275-.996-1.641-1.736-.599.807-1.137 1.611-1.573 2.402.269.819.529 1.573.791 2.283 1.519-.033 3.828-.113 3.878-1.13" id="Shape" fill="#BA9653"/><path d="M231.325 125.804c.061-1.211-.848-1.637-1.455-1.819-.445-.135-1.275-.996-1.641-1.736-.599.807-1.137 1.611-1.573 2.402.269.819.529 1.573.791 2.283 1.519-.033 3.828-.113 3.878-1.13z" id="Shape" stroke="#BA9653" stroke-width=".306"/><path d="M282.568 182.4c-3.967-.253-8.695.555-13.214 2.295.789.471 1.63 1.544 3.266.982 2.307-.788 3.096 1.639 2.005 2.305-1.093.669-1.457 2.366.603 1.094 2.064-1.274 3.883.545 3.034 1.877-.848 1.338-1.941.305-1.699 2.187.244 1.879-.182 3.577-1.878 3.88-1.701.305-2.064-2.245-2.849-2.061-.789.182.177 4.488-.185 4.549-1.183.198-2.317 1.227-2.926 1.845l.137.096c6.68 4.793 8.372 2.183 9.341-.122.971-2.305 3.121-9.137 3.758-12.739.363-2.062.852-4.245.608-6.187" id="Shape" fill="#BA9653"/><path d="M282.568 182.4c-3.967-.253-8.695.555-13.214 2.295.789.471 1.63 1.544 3.266.982 2.307-.788 3.096 1.639 2.005 2.305-1.093.669-1.457 2.366.603 1.094 2.064-1.274 3.883.545 3.034 1.877-.848 1.338-1.941.305-1.699 2.187.244 1.879-.182 3.577-1.878 3.88-1.701.305-2.064-2.245-2.849-2.061-.789.182.177 4.488-.185 4.549-1.183.198-2.317 1.227-2.926 1.845l.137.096c6.68 4.793 8.372 2.183 9.341-.122.971-2.305 3.121-9.137 3.758-12.739.363-2.062.852-4.245.608-6.187z" id="Shape" stroke="#BA9653" stroke-width=".306"/><path d="M268.076 195.625c.363-.906-.605-1.697-1.638-1.031-1.032.667-2.548 1.639-3.58-.119-1.028-1.761 1.154-1.941 1.276-2.791.119-.849-.727-.971-.307-2.366.426-1.395 1.931-.979 3.037-.241 1.272.848.9-1.163.727-1.941-.131-.593-.233-1.185-.113-1.65-1.317.593-2.599 1.262-3.829 2.014-6.229 3.814-6.43 7.037-4.975 8.249 1.303 1.088 3.967 1.597 8.509 4.553.048-1.575.612-3.973.894-4.677" id="Shape" fill="#BA9653"/><path d="M268.076 195.625c.363-.906-.605-1.697-1.638-1.031-1.032.667-2.548 1.639-3.58-.119-1.028-1.761 1.154-1.941 1.276-2.791.119-.849-.727-.971-.307-2.366.426-1.395 1.931-.979 3.037-.241 1.272.848.9-1.163.727-1.941-.131-.593-.233-1.185-.113-1.65-1.317.593-2.599 1.262-3.829 2.014-6.229 3.814-6.43 7.037-4.975 8.249 1.303 1.088 3.967 1.597 8.509 4.553.048-1.575.612-3.973.894-4.677z" id="Shape" stroke="#BA9653" stroke-width=".306"/><path d="M248.244 191.985c-2.577-1.288-5.094-4.125-6.79-7.397 0 0 .119-.486-.608-.486s-3.396-.244-7.885-1.822c-4.486-1.575-5.091-.605-5.699 1.333-.608 1.944-1.092 5.462-1.214 11.284-.119 5.824 2.426 9.465 4.004 8.857.768-.297 2.75-1.284 4.871-2.318.031-1.156.097-3.163.224-4.112.183-1.395-1.273-.854-1.881-.122-.608.727-1.758 1.941-2.851 1.758-1.093-.183-1.819-2.122-1.635-3.942.18-1.819-1.941-2.549-.608-4.973 1.333-2.427 2.423.605 3.578.364 1.153-.244.545-.849 0-2.729-.547-1.88 1.712-2.439 3.155-1.094.909.849 1.333-1.03 2.668-.788 1.336.241 2.121 1.153 1.336 2.485-.611 1.031-1.031 3.459.122 2.186 1.148-1.275 2.301-2.063 3.393-1.216 1.093.849.363 2.61.061 3.519-.302.91 1.941 2.001.363 3.096-1.574 1.092-3.336-.788-4.245-.547-.909.244-1.09 1.333.122 2.183.789.554 1.624.987 2.23 1.235 2.524-.859 5.485-2.517 6.441-3.118l1.577.122c.121-2.058 0-3.394-.73-3.758" id="Shape" fill="#BA9653"/><path d="M248.244 191.985c-2.577-1.288-5.094-4.125-6.79-7.397 0 0 .119-.486-.608-.486s-3.396-.244-7.885-1.822c-4.486-1.575-5.091-.605-5.699 1.333-.608 1.944-1.092 5.462-1.214 11.284-.119 5.824 2.426 9.465 4.004 8.857.768-.297 2.75-1.284 4.871-2.318.031-1.156.097-3.163.224-4.112.183-1.395-1.273-.854-1.881-.122-.608.727-1.758 1.941-2.851 1.758-1.093-.183-1.819-2.122-1.635-3.942.18-1.819-1.941-2.549-.608-4.973 1.333-2.427 2.423.605 3.578.364 1.153-.244.545-.849 0-2.729-.547-1.88 1.712-2.439 3.155-1.094.909.849 1.333-1.03 2.668-.788 1.336.241 2.121 1.153 1.336 2.485-.611 1.031-1.031 3.459.122 2.186 1.148-1.275 2.301-2.063 3.393-1.216 1.093.849.363 2.61.061 3.519-.302.91 1.941 2.001.363 3.096-1.574 1.092-3.336-.788-4.245-.547-.909.244-1.09 1.333.122 2.183.789.554 1.624.987 2.23 1.235 2.524-.859 5.485-2.517 6.441-3.118l1.577.122c.121-2.058 0-3.394-.73-3.758z" id="Shape" stroke="#BA9653" stroke-width=".306"/><path d="M239.271 218.676c-.971-2.183-1.308-.506-4.002 3.762-1.366 2.159-4.807 6.157-9.11 10.681 2.982.602 9.413 2.186 5.591 5.337-4.123 3.395-2.304 3.151-.486 2.91 1.819-.243 4.854.849 2.55 4.973-2.306 4.127-3.883 7.037-6.065 8.372-2.185 1.333-5.338 1.214-6.065-1.941-.73-3.154-2.79 0-2.912 2.063-.122 2.061-.363 5.581-.122 6.794l-4.605-.244c-.122-1.94-.122-5.822.241-7.642.366-1.819.241-4.002-2.545-3.154-1.824.555-3.072.084-3.724-.282-5.416 4.821-8.155 8.155-9.996 11.095 1.393 1.232 3.602 2.159 5.959 1.197 2.665-1.092 7.032.244 4.364 4.37-2.668 4.121-2.548 6.186.122 3.64 2.668-2.551 6.955-6.928 8.247-2.309.849 3.035-1.941 4.009-1.819 6.433.119 2.424 2.545 4.855-.848 7.767-3.397 2.907-4.852-2.066-7.157-1.333-1.393.438-1.672 1.714-1.593 2.853 3.016 4.272 7.414 10.313 8.993 12.914 2.426 4.008 2.426 8.859 3.397 8.133.968-.73 3.271-2.916 4.001-3.523.727-.602 1.455-1.335 1.092-2.668-.366-1.335-1.758-8.488-1.333-13.468.483-5.7 3.153-11.947 5.094-15.525 1.864-3.441 7.519-14.441 8.853-17.354 1.333-2.91 3.761-6.305 4.367-8.977.605-2.668 2.909-8.854 3.88-11.767-.244-2.427-1.808-7.338-4.368-13.105" id="Shape" fill="#BA9653"/><path d="M239.271 218.676c-.971-2.183-1.308-.506-4.002 3.762-1.366 2.159-4.807 6.157-9.11 10.681 2.982.602 9.413 2.186 5.591 5.337-4.123 3.395-2.304 3.151-.486 2.91 1.819-.243 4.854.849 2.55 4.973-2.306 4.127-3.883 7.037-6.065 8.372-2.185 1.333-5.338 1.214-6.065-1.941-.73-3.154-2.79 0-2.912 2.063-.122 2.061-.363 5.581-.122 6.794l-4.605-.244c-.122-1.94-.122-5.822.241-7.642.366-1.819.241-4.002-2.545-3.154-1.824.555-3.072.084-3.724-.282-5.416 4.821-8.155 8.155-9.996 11.095 1.393 1.232 3.602 2.159 5.959 1.197 2.665-1.092 7.032.244 4.364 4.37-2.668 4.121-2.548 6.186.122 3.64 2.668-2.551 6.955-6.928 8.247-2.309.849 3.035-1.941 4.009-1.819 6.433.119 2.424 2.545 4.855-.848 7.767-3.397 2.907-4.852-2.066-7.157-1.333-1.393.438-1.672 1.714-1.593 2.853 3.016 4.272 7.414 10.313 8.993 12.914 2.426 4.008 2.426 8.859 3.397 8.133.968-.73 3.271-2.916 4.001-3.523.727-.602 1.455-1.335 1.092-2.668-.366-1.335-1.758-8.488-1.333-13.468.483-5.7 3.153-11.947 5.094-15.525 1.864-3.441 7.519-14.441 8.853-17.354 1.333-2.91 3.761-6.305 4.367-8.977.605-2.668 2.909-8.854 3.88-11.767-.244-2.427-1.808-7.338-4.368-13.105z" id="Shape" stroke="#BA9653" stroke-width=".306"/><path d="M292.149 272.544c-3.15-5.215-3.758-7.28-4.246-12.616-.307-3.366-.031-7.749.456-11.955-.935-.076-2.199.102-2.272 1.52-.125 2.305-1.215 5.581-1.942 7.281-.725 1.697-3.156 1.575-4.608 1.697-1.46.122-1.46-.852-.488-3.035.971-2.183 1.34-3.154 1.096-5.092-.244-1.941-1.215-.244-2.067 1.454-.845 1.7-3.274 5.095-6.065 4.732-2.787-.364-2.06-4.61-1.819-6.064.244-1.459-.605-1.7-1.696-1.941-1.09-.243-3.275-.729-2.061-4.246 1.215-3.519 2.547-3.156 4.243-2.549 1.696.608 1.941-.483.366-1.091-1.579-.608-3.275-1.941-3.153-3.64.318-4.493 3.153-4.124 5.335-3.641 1.899.42 4.303-.718 5.919-2.459l-.099-.332c-3.236-12.355 2.912-27.54 4.608-31.787 1.704-4.245 8.248-16.195 10.493-19.774-1.212-.608-4.425-2.244-6.184-3.157-1.759-.907-2.73-1.333-3.213-.666-.488.666-1.096 1.03-1.941 2.244-1.704 2.433-.244 2.061.244 2.061.481 0 2.543 2.671 2.906 3.279.369.605 0 1.091-.846 3.032-1.114 2.538-1.821 8.372-2.793 11.891-2.938 10.652-7.52 9.586-9.581 8.249-2.063-1.333-2.668.727-4.73 3.638-.491.695-1.728 2.017-3.358 3.657 1.968.887 4.647 3.427 1.42 5.93-3.761 2.91-4.49 4.485-2.669 4.121 1.817-.361 3.639-3.154 5.699-1.211 2.061 1.941-.725 4.124-1.819 4.729-1.093.606-3.275 1.7-2.668 4.006.605 2.305.968 5.459-2.063 6.187-3.031.727-4.246-.609-5.095-2.186-.848-1.575-1.696-.483-2.06 1.456-.365 1.941-.606 3.398-.606 4.124 0 .727-2.182-.364-3.153-1.333-.971-.97-2.182 1.697-3.275.364-1.092-1.333 1.333-5.459 2.182-6.915.801-1.373.468-3.273-4.354-1.046-1.561 2.61-2.798 6.404-4.742 12.33-2.668 8.127-8.712 19.201-11.221 23.236-6.533 10.501-7.7 20.443-6.731 26.63.965 6.153 1.819 5.7 3.153 5.7 1.335 0 4.608 4.124 6.795 6.67 2.179 2.549 3.032 1.457 4.121.608 3.503-2.728 10.551-7.278 20.497-12.014 4.24-2.015 9.894-4.163 15.402-5.927.086-2.282.641-5.045.849-6.081.244-1.214-.968-1.578-2.183 0-1.211 1.579-4.483 5.457-6.668 4.492-2.186-.971-4.002-3.401-2.79-5.462 1.211-2.061-.486-2.668-1.335-3.759-.852-1.096-.852-5.343 1.82-5.706 2.668-.364 3.515 1.941 5.335 2.549 1.819.608 3.275.483.97-2.061-2.304-2.552-5.094-1.579-3.637-5.098 1.455-3.518 3.515-3.276 5.943-2.549 2.426.729 3.637-.605 5.216-1.698 1.577-1.089 4.727-2.549 6.912 0 2.186 2.549-1.577 4.851-2.423 5.703-1.64 1.642-1.941 4.733-.125 2.91 1.823-1.819 4.928-8.396 7.039-2.91 1.208 3.154-1.096 4.37-.727 6.311.363 1.941 3.639 4.61.965 7.035-2.668 2.43-6.425.362-8.004-1.091-1.577-1.454-3.274-2.186-2.548.489.539 1.959.81 4.029.818 5.302 5.3-1.466 9.93-2.359 12.282-2.151 3.46.31 6.068 1.333 5.943-1.824-.118-3.148-1.816-5.334-4.97-10.551m-43.054 21.715c-2.912.852-3.397-.481-5.338-1.208-1.941-.727-2.063.966-.728 3.032 1.333 2.061 2.793 4.002 1.214 4.002-1.579 0-2.79.244-3.034 1.454-.241 1.217-2.787-.238-3.393-2.788-.608-2.549-1.215-7.405-2.545-4.973-1.334 2.424-2.55 6.426-5.947 4.61-3.393-1.822-1.09-4.248-2.787-5.945-1.699-1.697-3.274-3.884-1.577-6.916 1.696-3.032 3.153-.487 4.73-.487 1.574 0 1.819-1.454.363-2.545-1.455-1.095-3.275-6.313 3.397-5.949 2.57.141 5.337-.727 7.519-2.306 2.182-1.572 7.883-.726 5.579 3.282-2.304 4.003-1.574 4.85-.244 3.395 1.333-1.459 3.034-4.128 5.579-3.395 2.548.727 1.455 2.663-.119 4.85-1.577 2.186-.608 3.638.605 4.49 1.214.846 3.445 5.44-3.274 7.397m12.371-28.631c-2.185.122-4.852-.486-4.852-.486-.244 2.306-2.483 5.607-4.73 8.979-.241.364-1.574.364-2.182-.119-.605-.487-2.304-1.333-.97-2.793 1.333-1.456 3.519-4.488 3.153-5.822-.363-1.333-1.333-2.546-2.787-.729-1.458 1.822-3.764 5.581-6.309 5.706-2.545.119-5.094-2.19-3.878-4.492 1.211-2.305 1.574-3.518-.122-5.581-1.696-2.063-1.064-4.701 2.545-6.31 1.092-.483 3.031 0 4.367 1.092 1.333 1.092 2.06 0 .241-1.092-1.819-1.091-3.275-2.424-3.517-4.851-.23-2.305 1.212-4.729 4.364-3.398 3.153 1.338 5.094.244 6.428-.848 1.333-1.091 7.021-2.452 6.187 2.549-.608 3.64-2.304 3.762-2.79 5.7-.486 1.941.97.73 1.819-.727.849-1.457 2.79-7.415 6.792-2.913.97 1.092.608 2.913-.605 4.973-1.212 2.063-.244 3.276.486 4.37.725 1.091 2.419 6.455-3.64 6.791" id="Shape" fill="#BA9653"/><path d="M261.466 265.628c-2.185.122-4.852-.486-4.852-.486-.244 2.306-2.483 5.607-4.73 8.979-.241.364-1.574.364-2.182-.119-.605-.487-2.304-1.333-.97-2.793 1.333-1.456 3.519-4.488 3.153-5.822-.363-1.333-1.333-2.546-2.787-.729-1.458 1.822-3.764 5.581-6.309 5.706-2.545.119-5.094-2.19-3.878-4.492 1.211-2.305 1.574-3.518-.122-5.581-1.696-2.063-1.064-4.701 2.545-6.31 1.092-.483 3.031 0 4.367 1.092 1.333 1.092 2.06 0 .241-1.092-1.819-1.091-3.275-2.424-3.517-4.851-.23-2.305 1.212-4.729 4.364-3.398 3.153 1.338 5.094.244 6.428-.848 1.333-1.091 7.021-2.452 6.187 2.549-.608 3.64-2.304 3.762-2.79 5.7-.486 1.941.97.73 1.819-.727.849-1.457 2.79-7.415 6.792-2.913.97 1.092.608 2.913-.605 4.973-1.212 2.063-.244 3.276.486 4.37.725 1.091 2.419 6.455-3.64 6.791zm-12.371 28.631c-2.912.852-3.397-.481-5.338-1.208-1.941-.727-2.063.966-.728 3.032 1.333 2.061 2.793 4.002 1.214 4.002-1.579 0-2.79.244-3.034 1.454-.241 1.217-2.787-.238-3.393-2.788-.608-2.549-1.215-7.405-2.545-4.973-1.333 2.424-2.55 6.426-5.947 4.61-3.393-1.822-1.09-4.248-2.787-5.945-1.699-1.697-3.274-3.884-1.577-6.916 1.696-3.032 3.153-.487 4.73-.487 1.574 0 1.819-1.454.363-2.545-1.455-1.095-3.275-6.313 3.399-5.949 2.569.141 5.335-.727 7.517-2.306 2.182-1.572 7.883-.726 5.579 3.282-2.304 4.003-1.574 4.85-.244 3.395 1.333-1.459 3.034-4.128 5.579-3.395 2.548.727 1.455 2.663-.119 4.85-1.577 2.186-.608 3.638.605 4.49 1.214.846 3.445 5.44-3.274 7.397zm43.054-21.715c-3.15-5.215-3.758-7.28-4.246-12.616-.307-3.366-.031-7.749.456-11.955-.935-.076-2.199.1-2.272 1.52-.125 2.305-1.215 5.581-1.942 7.281-.725 1.697-3.156 1.575-4.608 1.697-1.46.122-1.46-.852-.488-3.035.971-2.183 1.34-3.154 1.096-5.092-.244-1.941-1.215-.244-2.067 1.454-.845 1.7-3.274 5.095-6.065 4.732-2.787-.364-2.06-4.61-1.819-6.064.244-1.459-.605-1.7-1.696-1.941-1.09-.243-3.275-.729-2.061-4.246 1.215-3.519 2.547-3.156 4.243-2.549 1.696.608 1.941-.483.366-1.091-1.579-.608-3.275-1.941-3.153-3.64.318-4.495 3.153-4.124 5.335-3.641 1.899.42 4.303-.718 5.919-2.459l-.099-.333c-3.236-12.355 2.912-27.539 4.608-31.787 1.704-4.243 8.248-16.194 10.493-19.772-1.212-.608-4.425-2.244-6.184-3.157-1.759-.907-2.73-1.333-3.213-.666-.488.666-1.096 1.03-1.941 2.244-1.704 2.433-.244 2.061.244 2.061.481 0 2.543 2.671 2.906 3.279.369.605 0 1.091-.846 3.032-1.114 2.538-1.821 8.372-2.793 11.889-2.938 10.653-7.52 9.587-9.581 8.251-2.063-1.333-2.668.727-4.73 3.638-.491.695-1.728 2.017-3.358 3.657 1.971.887 4.647 3.427 1.42 5.93-3.761 2.91-4.49 4.485-2.669 4.121 1.817-.361 3.639-3.154 5.699-1.211 2.061 1.941-.725 4.124-1.819 4.729-1.093.606-3.275 1.7-2.668 4.005.605 2.306.968 5.46-2.063 6.189-3.031.727-4.246-.609-5.095-2.186-.848-1.575-1.696-.483-2.06 1.456-.365 1.941-.606 3.398-.606 4.124 0 .727-2.182-.364-3.153-1.333-.971-.97-2.182 1.697-3.275.364-1.092-1.333 1.333-5.459 2.182-6.915.801-1.373.468-3.275-4.354-1.046-1.561 2.61-2.798 6.404-4.742 12.33-2.668 8.127-8.712 19.201-11.221 23.236-6.533 10.501-7.7 20.443-6.731 26.63.965 6.153 1.819 5.7 3.153 5.7 1.335 0 4.608 4.121 6.796 6.67 2.179 2.549 3.031 1.457 4.12.608 3.503-2.728 10.551-7.278 20.497-12.014 4.24-2.015 9.894-4.163 15.402-5.927.086-2.282.641-5.045.849-6.081.247-1.214-.968-1.578-2.183 0-1.211 1.579-4.483 5.457-6.668 4.492-2.186-.971-4.002-3.401-2.79-5.462 1.211-2.061-.486-2.668-1.335-3.759-.852-1.096-.852-5.343 1.82-5.706 2.668-.364 3.515 1.941 5.335 2.549 1.819.608 3.275.483.97-2.061-2.304-2.552-5.094-1.582-3.637-5.098 1.455-3.518 3.515-3.276 5.943-2.549 2.429.729 3.637-.605 5.216-1.698 1.577-1.089 4.727-2.549 6.912 0 2.186 2.549-1.577 4.851-2.423 5.703-1.64 1.642-1.941 4.733-.125 2.91 1.823-1.819 4.928-8.396 7.039-2.91 1.208 3.154-1.096 4.37-.727 6.311.363 1.941 3.639 4.61.965 7.035-2.668 2.43-6.425.362-8.004-1.091-1.577-1.454-3.274-2.186-2.548.489.539 1.959.81 4.029.818 5.302 5.3-1.466 9.93-2.359 12.282-2.151 3.46.31 6.068 1.333 5.943-1.824-.118-3.148-1.816-5.334-4.97-10.551z" id="Shape" stroke="#BA9653" stroke-width=".306"/><path d="M259.219 112.033c1.64.183 3.46.061 3.883-1.091.424-1.155.063-1.883-.483-2.125-.548-.241-.789-.18-.548-1.272.244-1.092 1.031-.97.971-2.668-.06-1.7-1.334-1.761-2.49-1.395-1.148.364-1.577.909-2.668 2.366-1.09 1.454-.606-.97-.423-1.397.173-.396.608-3.189-.881-3.692-.85.422-1.68.841-2.477 1.256-.267.532-.468 1.156-.704 1.77-.608 1.578-1.345.391-1.88-.364l-.015-.012c-1.617.894-3.031 1.732-4.11 2.439l-.363.238c.145.96 1.298 2.167 1.941 2.61.788.547.302 1.578-.669 1.578-.968 0-2.182-.666-3.396.791-1.211 1.454-.424 2.849.728 2.849 1.151 0 2.121.425 2.548 1.758.422 1.333.788 1.88 2.362 2.063 1.577.183 2.487-1.031 2.912-1.761.424-.727.97-1.758 1.635-1.515.989.361.865 1.4.563 2.51 1.141-.67 2.301-1.303 3.547-1.905-.202-1.031-.81-1.973-1.26-2.424-.542-.547-.361-.788 1.275-.608" id="Shape" fill="#008248"/><path d="M259.219 112.033c1.64.183 3.46.061 3.883-1.091.424-1.155.063-1.883-.483-2.125-.548-.241-.789-.18-.548-1.272.244-1.092 1.031-.97.971-2.668-.06-1.7-1.334-1.761-2.49-1.395-1.148.364-1.577.909-2.668 2.366-1.09 1.454-.606-.97-.423-1.397.173-.396.608-3.189-.881-3.692-.85.422-1.68.841-2.477 1.256-.267.532-.468 1.156-.704 1.77-.608 1.578-1.345.391-1.88-.364l-.015-.012c-1.617.894-3.031 1.732-4.11 2.439l-.363.238c.145.96 1.298 2.167 1.941 2.61.788.547.302 1.578-.669 1.578-.968 0-2.182-.666-3.396.791-1.211 1.454-.424 2.849.728 2.849 1.151 0 2.121.425 2.548 1.758.422 1.333.788 1.88 2.362 2.063 1.577.183 2.487-1.031 2.912-1.761.424-.727.97-1.758 1.635-1.515.989.361.865 1.4.563 2.51 1.141-.67 2.301-1.303 3.547-1.905-.202-1.031-.81-1.973-1.26-2.424-.542-.547-.361-.788 1.275-.608z" id="Shape" stroke="#00A55C" stroke-width=".306"/><path d="M272.744 94.442c-.563.131-1.148.286-1.753.458.289 1.39.852 3.17.542 3.425-.366.302-1.758.547-2.849.849-1.093.305-3.701 2.729-2.368 4.488 1.337 1.761 1.758 2.791 2.005 3.699.241.912 2.423 2.002 3.938.183 1.516-1.819 2.67-3.822 3.034-2.549.304 1.07.224 3.659.017 5.049l.954-.195c.606-6.794-1.092-11.646-3.519-15.407" id="Shape" fill="#008248"/><path d="M272.744 94.442c-.563.131-1.148.286-1.753.458.289 1.39.852 3.17.542 3.425-.366.302-1.758.547-2.849.849-1.093.305-3.701 2.729-2.368 4.488 1.337 1.761 1.758 2.791 2.005 3.699.241.912 2.423 2.002 3.938.183 1.516-1.819 2.67-3.822 3.034-2.549.304 1.07.224 3.659.017 5.049l.954-.195c.606-6.794-1.092-11.646-3.519-15.407z" id="Shape" stroke="#00A55C" stroke-width=".306"/><path d="M239.451 127.017c-.848-.666-1.09-1.697-.061-2.001 1.032-.304 2.426-.545 4.972-1.636 2.548-1.092 1.214-2.975.064-3.461-1.153-.484-1.275-1.575-1.153-2.732.122-1.149-.183-2.849-2.426-1.999-2.243.851-1.455 3.035-2.121 3.76-.669.73-1.031.486-.909-.605.119-1.094-.849-1.822-1.396-2.063-.423-.189-1.361-.412-2.153-.474-2.322 2.094-4.445 4.291-6.053 6.462.361.745 1.209 1.581 1.656 1.716.608.182 1.516.606 1.455 1.819-.051 1.025-2.362 1.099-3.878 1.133 1.073 2.898 2.159 4.956 3.679 6.602.343-.097.794-.256 1.414-.516 1.878-.788 2.486-3.638 2.79-4.488.301-.848 1.09-.666 1.637.425.384.766.519 1.47.573 2.159 1.073-1.069 2.109-2.069 3.127-3.013-.307-.31-.686-.67-1.217-1.088" id="Shape" fill="#008248"/><path d="M239.451 127.017c-.848-.666-1.09-1.697-.061-2.001 1.032-.304 2.426-.545 4.972-1.636 2.548-1.092 1.214-2.975.064-3.461-1.153-.484-1.275-1.575-1.153-2.732.122-1.149-.183-2.849-2.426-1.999-2.243.851-1.455 3.035-2.121 3.76-.669.73-1.031.486-.909-.605.119-1.094-.849-1.822-1.396-2.063-.423-.189-1.361-.412-2.153-.474-2.322 2.094-4.445 4.291-6.053 6.462.361.745 1.209 1.581 1.656 1.716.608.182 1.516.606 1.455 1.819-.051 1.025-2.362 1.099-3.878 1.133 1.073 2.898 2.159 4.956 3.679 6.602.343-.097.794-.256 1.414-.516 1.878-.788 2.486-3.638 2.79-4.488.301-.848 1.09-.666 1.637.425.384.766.519 1.47.573 2.159 1.073-1.069 2.109-2.069 3.127-3.013-.307-.31-.686-.67-1.217-1.088z" id="Shape" stroke="#00A55C" stroke-width=".306"/><path d="M271.652 199.507c.362-.06-.605-4.365.185-4.547.785-.185 1.148 2.364 2.849 2.061 1.696-.304 2.122-2.001 1.878-3.881-.241-1.88.852-.849 1.699-2.186.849-1.332-.97-3.151-3.034-1.877-2.06 1.272-1.696-.425-.603-1.094 1.092-.666.299-3.093-2.005-2.305-1.666.574-2.506-.509-3.309-.966-.612.238-1.225.493-1.83.768-.137.471-.029 1.043.108 1.653.173.779.545 2.791-.727 1.941-1.106-.739-2.611-1.155-3.037.241-.42 1.395.426 1.517.307 2.366-.122.848-2.304 1.03-1.276 2.791 1.032 1.758 2.548.788 3.58.119 1.034-.666 1.999.127 1.635 1.031-.283.71-.858 3.1-.9 4.672.488.32.997.662 1.528 1.04.602-.614 1.749-1.626 2.951-1.828" id="Shape" fill="#008248"/><path d="M271.652 199.507c.362-.06-.605-4.365.185-4.547.785-.185 1.148 2.364 2.849 2.061 1.696-.304 2.122-2.001 1.878-3.881-.241-1.88.852-.849 1.699-2.186.849-1.332-.97-3.151-3.034-1.877-2.06 1.272-1.696-.425-.603-1.094 1.092-.666.299-3.093-2.005-2.305-1.666.574-2.506-.509-3.309-.966-.612.238-1.225.493-1.83.768-.137.471-.029 1.043.108 1.653.173.779.545 2.791-.727 1.941-1.106-.739-2.611-1.155-3.037.241-.42 1.395.426 1.517.307 2.366-.122.848-2.304 1.03-1.276 2.791 1.032 1.758 2.548.788 3.58.119 1.034-.666 1.999.127 1.635 1.031-.283.71-.858 3.1-.9 4.672.488.32.997.662 1.528 1.04.602-.614 1.749-1.626 2.951-1.828z" id="Shape" stroke="#00A55C" stroke-width=".306"/><path d="M238.602 195.322c.909-.24 2.67 1.639 4.245.547 1.577-1.092-.666-2.183-.363-3.096.302-.907 1.032-2.668-.061-3.518-1.092-.848-2.246-.061-3.393 1.216-1.153 1.272-.733-1.155-.122-2.186.785-1.332 0-2.244-1.336-2.485-1.333-.241-1.759 1.636-2.668.788-1.442-1.345-3.701-.788-3.155 1.094.545 1.88 1.153 2.485 0 2.729-1.153.241-2.243-2.791-3.578-.364-1.333 2.424.788 3.154.608 4.973-.183 1.819.544 3.758 1.635 3.942 1.092.182 2.243-1.034 2.851-1.76.606-.73 2.064-1.272 1.881.122-.125.963-.195 2.962-.224 4.114 2.229-1.088 4.617-2.222 5.922-2.66l.164-.057c-.612-.241-1.473-.646-2.285-1.214-1.211-.852-1.031-1.941-.122-2.187" id="Shape" fill="#008248"/><path d="M238.602 195.322c.909-.24 2.67 1.639 4.245.547 1.577-1.092-.666-2.183-.363-3.096.302-.907 1.032-2.668-.061-3.518-1.092-.848-2.246-.061-3.393 1.216-1.153 1.272-.733-1.155-.122-2.186.785-1.332 0-2.244-1.336-2.485-1.333-.241-1.759 1.636-2.668.788-1.442-1.345-3.701-.788-3.155 1.094.545 1.88 1.153 2.485 0 2.729-1.153.241-2.243-2.791-3.578-.364-1.333 2.424.788 3.154.608 4.973-.183 1.819.544 3.758 1.635 3.942 1.092.182 2.243-1.034 2.851-1.76.606-.73 2.064-1.272 1.881.122-.125.963-.195 2.962-.224 4.114 2.229-1.088 4.617-2.222 5.922-2.66l.164-.057c-.612-.241-1.473-.646-2.285-1.214-1.211-.852-1.031-1.941-.122-2.187z" id="Shape" stroke="#00A55C" stroke-width=".306"/><path d="M211.739 250.586c2.787-.848 2.912 1.333 2.545 3.154-.363 1.819-.363 5.702-.241 7.642l4.605.244c-.241-1.213 0-4.732.122-6.794.122-2.063 2.182-5.218 2.912-2.063.727 3.156 3.878 3.275 6.065 1.941 2.182-1.333 3.759-4.243 6.065-8.372 2.304-4.124-.73-5.218-2.55-4.973-1.819.241-3.637.486.486-2.91 3.839-3.164-2.618-4.751-5.585-5.343-4.889 5.133-10.896 10.95-16.247 15.531-.68.585-1.32 1.143-1.931 1.69.645.366 1.901.816 3.753.253" id="Shape" fill="#008248"/><path d="M211.739 250.586c2.787-.848 2.912 1.333 2.545 3.154-.363 1.819-.363 5.702-.241 7.642l4.605.244c-.241-1.213 0-4.732.122-6.794.122-2.063 2.182-5.218 2.912-2.063.727 3.156 3.878 3.275 6.065 1.941 2.182-1.333 3.759-4.243 6.065-8.372 2.304-4.124-.73-5.218-2.55-4.973-1.819.241-3.637.486.486-2.91 3.839-3.164-2.618-4.751-5.585-5.343-4.889 5.133-10.896 10.95-16.247 15.531-.68.585-1.32 1.143-1.931 1.69.645.366 1.901.816 3.753.253z" id="Shape" stroke="#00A55C" stroke-width=".306"/><path d="M206.887 281.162c2.304-.733 3.759 4.24 7.157 1.333 3.394-2.911.968-5.343.848-7.767-.121-2.424 2.668-3.395 1.819-6.433-1.292-4.618-5.579-.241-8.247 2.312-2.67 2.543-2.79.481-.122-3.643 2.668-4.125-1.699-5.462-4.364-4.37-2.375.971-4.55.023-5.944-1.22-1.025 1.64-1.778 3.157-2.548 4.741-2.304 4.73-.73 4.854.97 4.854 1.696 0 5.337 7.155 5.822 8.489.17.47 1.417 2.293 3.062 4.621-.093-1.15.131-2.472 1.55-2.919" id="Shape" fill="#008248"/><path d="M206.887 281.162c2.304-.733 3.759 4.24 7.157 1.333 3.394-2.911.968-5.343.848-7.767-.121-2.424 2.668-3.395 1.819-6.433-1.292-4.618-5.579-.241-8.247 2.312-2.67 2.543-2.79.481-.122-3.643 2.668-4.125-1.699-5.462-4.364-4.37-2.375.971-4.55.023-5.944-1.22-1.025 1.64-1.778 3.157-2.548 4.741-2.304 4.73-.73 4.854.97 4.854 1.696 0 5.337 7.155 5.822 8.489.17.47 1.417 2.293 3.062 4.621-.093-1.15.131-2.472 1.55-2.919z" id="Shape" stroke="#00A55C" stroke-width=".306"/><path d="M242.424 249.129c-.23-2.305 1.212-4.729 4.364-3.398 3.153 1.338 5.094.244 6.428-.848 1.333-1.091 7.021-2.452 6.187 2.549-.608 3.64-2.304 3.762-2.79 5.7-.486 1.941.97.73 1.819-.727.849-1.457 2.79-7.415 6.792-2.913.97 1.092.608 2.913-.605 4.973-1.212 2.063-.244 3.276.486 4.37.727 1.092 2.42 6.457-3.639 6.792-2.185.122-4.852-.486-4.852-.486-.244 2.306-2.483 5.607-4.73 8.979-.241.364-1.574.364-2.182-.119-.605-.487-2.304-1.333-.97-2.793 1.333-1.456 3.519-4.488 3.153-5.822-.363-1.333-1.333-2.546-2.787-.729-1.458 1.822-3.764 5.581-6.309 5.703-2.545.122-5.094-2.187-3.878-4.489 1.211-2.305 1.574-3.518-.122-5.581-1.696-2.063-1.064-4.701 2.545-6.31 1.092-.483 3.031 0 4.367 1.092 1.333 1.092 2.06 0 .241-1.092-1.821-1.091-3.277-2.426-3.518-4.853" fill="#008248"/><path d="M242.424 249.129c-.23-2.305 1.212-4.729 4.364-3.398 3.153 1.338 5.094.244 6.428-.848 1.333-1.091 7.021-2.452 6.187 2.549-.608 3.64-2.304 3.762-2.79 5.7-.486 1.941.97.73 1.819-.727.849-1.457 2.79-7.415 6.792-2.913.97 1.092.608 2.913-.605 4.973-1.212 2.063-.244 3.276.486 4.37.727 1.092 2.42 6.457-3.639 6.792-2.185.122-4.852-.486-4.852-.486-.244 2.306-2.483 5.607-4.73 8.979-.241.364-1.574.364-2.182-.119-.605-.487-2.304-1.333-.97-2.793 1.333-1.456 3.519-4.488 3.153-5.822-.363-1.333-1.333-2.546-2.787-.729-1.458 1.822-3.764 5.581-6.309 5.703-2.545.122-5.094-2.187-3.878-4.489 1.211-2.305 1.574-3.518-.122-5.581-1.696-2.063-1.064-4.701 2.545-6.31 1.092-.483 3.031 0 4.367 1.092 1.333 1.092 2.06 0 .241-1.092-1.821-1.091-3.277-2.426-3.518-4.853z" stroke="#00A55C" stroke-width=".306"/><path d="M273.232 233.357c-2.185-.483-5.02-.851-5.338 3.641-.122 1.697 1.574 3.032 3.153 3.64 1.574.608 1.33 1.697-.366 1.091-1.696-.606-3.028-.97-4.243 2.549-1.214 3.518.971 4.003 2.061 4.246 1.092.241 1.941.483 1.696 1.941-.241 1.454-.968 5.7 1.819 6.064 2.791.364 5.22-3.032 6.065-4.732.852-1.697 1.823-3.394 2.067-1.454.244 1.938-.125 2.91-1.096 5.092-.971 2.183-.971 3.157.488 3.035 1.452-.122 3.883 0 4.608-1.697.727-1.7 1.817-4.976 1.942-7.281.074-1.443 1.339-1.601 2.271-1.52.283-2.462.647-4.867 1.003-6.97-4.758.715-8.811-5.104-10.224-10.14-1.621 1.761-3.998 2.919-5.906 2.494" fill="#008248"/><path d="M273.232 233.357c-2.185-.483-5.02-.851-5.338 3.641-.122 1.697 1.574 3.032 3.153 3.64 1.574.608 1.33 1.697-.366 1.091-1.696-.606-3.028-.97-4.243 2.549-1.214 3.518.971 4.003 2.061 4.246 1.092.241 1.941.483 1.696 1.941-.241 1.454-.968 5.7 1.819 6.064 2.791.364 5.22-3.032 6.065-4.732.852-1.697 1.823-3.394 2.067-1.454.244 1.938-.125 2.91-1.096 5.092-.971 2.183-.971 3.157.488 3.035 1.452-.122 3.883 0 4.608-1.697.727-1.7 1.817-4.976 1.942-7.281.074-1.443 1.339-1.601 2.271-1.52.283-2.462.647-4.867 1.003-6.97-4.758.715-8.811-5.104-10.224-10.14-1.621 1.761-3.998 2.919-5.906 2.494z" stroke="#00A55C" stroke-width=".306"/><path d="M250.549 232.508c-.849 1.456-3.275 5.581-2.182 6.915 1.093 1.333 2.304-1.333 3.275-.364.971.97 3.153 2.061 3.153 1.333 0-.727.241-2.183.606-4.124.363-1.938 1.212-3.032 2.06-1.456.849 1.575 2.064 2.913 5.095 2.186 3.031-.729 2.668-3.883 2.063-6.187-.608-2.305 1.574-3.4 2.668-4.006 1.093-.605 3.88-2.788 1.819-4.729-2.06-1.941-3.881.851-5.699 1.211-1.821.364-1.092-1.211 2.669-4.121 3.242-2.514.526-5.027-1.451-5.901-5.222 5.258-14.472 13.787-16.502 15.727-.728.697-1.358 1.515-1.941 2.5 4.877-2.277 5.171-.362 4.367 1.016" fill="#008248"/><path d="M250.549 232.508c-.849 1.456-3.275 5.581-2.182 6.915 1.093 1.333 2.304-1.333 3.275-.364.971.97 3.153 2.061 3.153 1.333 0-.727.241-2.183.606-4.124.363-1.938 1.212-3.032 2.06-1.456.849 1.575 2.064 2.913 5.095 2.186 3.031-.729 2.668-3.883 2.063-6.187-.608-2.305 1.574-3.4 2.668-4.006 1.093-.605 3.88-2.788 1.819-4.729-2.06-1.941-3.881.851-5.699 1.211-1.821.364-1.092-1.211 2.669-4.121 3.242-2.514.526-5.027-1.451-5.901-5.222 5.258-14.472 13.787-16.502 15.727-.728.697-1.358 1.515-1.941 2.5 4.877-2.277 5.171-.362 4.367 1.016z" stroke="#00A55C" stroke-width=".306"/><path d="M280.626 281.281c1.579 1.453 5.337 3.521 8.004 1.091 2.673-2.426-.602-5.094-.965-7.035-.369-1.941 1.935-3.157.727-6.308-2.111-5.489-5.216 1.091-7.039 2.907-1.816 1.824-1.515-1.268.125-2.907.846-.855 4.61-3.157 2.423-5.706-2.185-2.549-5.335-1.089-6.912 0-1.579 1.094-2.79 2.427-5.216 1.698-2.428-.727-4.488-.968-5.943 2.549-1.457 3.519 1.333 2.549 3.637 5.098 2.306 2.543.849 2.668-.97 2.061-1.82-.608-2.668-2.913-5.335-2.549-2.672.364-2.672 4.61-1.82 5.706.849 1.091 2.545 1.698 1.334 3.759-1.212 2.061.603 4.49 2.79 5.462 2.185.966 5.457-2.913 6.668-4.492 1.215-1.578 2.428-1.214 2.183 0-.208 1.043-.772 3.79-.852 6.081 1.848-.589 3.675-1.134 5.431-1.623-.006-1.269-.278-3.318-.82-5.302-.725-2.674.971-1.944 2.548-.49" fill="#008248"/><path d="M280.626 281.281c1.579 1.453 5.337 3.521 8.004 1.091 2.673-2.426-.602-5.094-.965-7.035-.369-1.941 1.935-3.157.727-6.308-2.111-5.489-5.216 1.091-7.039 2.907-1.816 1.824-1.515-1.268.125-2.907.846-.855 4.61-3.157 2.423-5.706-2.185-2.549-5.335-1.089-6.912 0-1.579 1.094-2.79 2.427-5.216 1.698-2.428-.727-4.488-.968-5.943 2.549-1.457 3.519 1.333 2.549 3.637 5.098 2.306 2.543.849 2.668-.97 2.061-1.82-.608-2.668-2.913-5.335-2.549-2.672.364-2.672 4.61-1.82 5.706.849 1.091 2.545 1.698 1.334 3.759-1.212 2.061.603 4.49 2.79 5.462 2.185.966 5.457-2.913 6.668-4.492 1.215-1.578 2.428-1.214 2.183 0-.208 1.043-.772 3.79-.852 6.081 1.848-.589 3.675-1.134 5.431-1.623-.006-1.269-.278-3.318-.82-5.302-.725-2.674.971-1.944 2.548-.49z" stroke="#00A55C" stroke-width=".306"/><path d="M233.45 276.548c2.569.141 5.335-.727 7.517-2.306 2.182-1.572 7.883-.726 5.579 3.282-2.304 4.003-1.574 4.85-.244 3.395 1.333-1.459 3.034-4.128 5.579-3.395 2.548.727 1.455 2.663-.119 4.85-1.577 2.186-.608 3.638.605 4.49 1.214.846 3.447 5.439-3.272 7.397-2.912.852-3.397-.481-5.338-1.208-1.941-.727-2.063.966-.728 3.032 1.333 2.061 2.793 4.002 1.214 4.002-1.579 0-2.79.244-3.034 1.454-.241 1.217-2.787-.238-3.393-2.788-.608-2.549-1.215-7.405-2.545-4.973-1.333 2.424-2.55 6.426-5.947 4.61-3.393-1.822-1.09-4.248-2.787-5.945-1.699-1.697-3.274-3.884-1.577-6.916 1.696-3.032 3.153-.487 4.73-.487 1.574 0 1.819-1.454.363-2.545-1.457-1.095-3.277-6.313 3.397-5.949" fill="#008248"/><path d="M233.45 276.548c2.569.141 5.335-.727 7.517-2.306 2.182-1.572 7.883-.726 5.579 3.282-2.304 4.003-1.574 4.85-.244 3.395 1.333-1.459 3.034-4.128 5.579-3.395 2.548.727 1.455 2.663-.119 4.85-1.577 2.186-.608 3.638.605 4.49 1.214.846 3.447 5.439-3.272 7.397-2.912.852-3.397-.481-5.338-1.208-1.941-.727-2.063.966-.728 3.032 1.333 2.061 2.793 4.002 1.214 4.002-1.579 0-2.79.244-3.034 1.454-.241 1.217-2.787-.238-3.393-2.788-.608-2.549-1.215-7.405-2.545-4.973-1.333 2.424-2.55 6.426-5.947 4.61-3.393-1.822-1.09-4.248-2.787-5.945-1.699-1.697-3.274-3.884-1.577-6.916 1.696-3.032 3.153-.487 4.73-.487 1.574 0 1.819-1.454.363-2.545-1.457-1.095-3.277-6.313 3.397-5.949z" stroke="#00A55C" stroke-width=".306"/><path d="M257.461 191.621c-.727 1.941-1.696 4.37-2.182 5.583-.484 1.214-2.72.743-2.548-.122.363-1.821-2.229-.615-1.938-2.062.241-1.216-.244-3.154 1.09-3.154s3.881-.244 5.578-.244" fill="#BA9653"/><path d="M257.461 191.621c-.727 1.941-1.696 4.37-2.182 5.583-.484 1.214-2.72.743-2.548-.122.363-1.821-2.229-.615-1.938-2.062.241-1.216-.244-3.154 1.09-3.154s3.881-.244 5.578-.244z" stroke="#BA9653" stroke-width=".306"/><path d="M253.399 103.784c.227-.59.424-1.236.673-1.758-.893.468-1.737.923-2.543 1.37.535.758 1.268 1.953 1.869.388m21.894 1.213c-.363-1.272-1.518.729-3.034 2.549-1.515 1.819-3.697.729-3.941-.183-.244-.909-.664-1.938-2.002-3.699-1.333-1.758 1.275-4.182 2.365-4.488 1.095-.302 2.486-.547 2.852-.849.307-.252-.241-2.043-.534-3.425-4.363 1.242-9.683 3.519-14.374 5.836 1.429.545 1.003 3.324.836 3.714-.183.428-.666 2.852.423 1.397 1.09-1.456 1.519-2.002 2.668-2.366 1.156-.366 2.431-.305 2.49 1.395.06 1.697-.727 1.575-.971 2.668-.241 1.092 0 1.031.548 1.272.545.241.907.97.483 2.125-.423 1.152-2.243 1.272-3.883 1.091-1.635-.18-1.817.061-1.272.606.446.446 1.039 1.413 1.249 2.427 3.954-1.909 8.724-3.509 16.119-5.027.202-1.396.279-3.986-.022-5.043m-38.325 23.961c-.545-1.091-1.336-1.272-1.635-.425-.304.849-.911 3.701-2.791 4.488-.605.256-1.083.407-1.423.506.648.704 1.375 1.333 2.213 1.925 1.484-1.571 2.871-3 4.204-4.328-.054-.682-.192-1.413-.567-2.167m18.128-14.497c-.666-.244-1.212.788-1.635 1.515-.424.73-1.333 1.944-2.912 1.761-1.574-.183-1.941-.73-2.362-2.063-.426-1.333-1.397-1.758-2.548-1.758-1.153 0-1.941-1.395-.728-2.849 1.214-1.456 2.429-.791 3.396-.791.971 0 1.455-1.031.669-1.578-.628-.432-1.73-1.674-1.922-2.625-3.457 2.274-8.415 5.796-12.745 9.696.788.067 1.695.326 2.114.512.545.241 1.513.97 1.394 2.063-.122 1.091.241 1.333.909.605.666-.727-.122-2.91 2.121-3.76 2.243-.849 2.548.851 2.426 1.999-.122 1.158 0 2.247 1.153 2.732 1.151.486 2.484 2.367-.064 3.461-2.545 1.091-3.94 1.332-4.972 1.636-1.029.302-.788 1.333.061 1.999.516.406.888.804 1.191 1.107 3.208-2.977 6.236-5.414 9.666-7.719 1.872-1.258 3.588-2.396 5.367-3.443.292-1.091.395-2.149-.577-2.501m-23.773 11.345c.061-1.211-.848-1.637-1.455-1.819-.445-.135-1.275-.996-1.641-1.736-.599.807-1.137 1.611-1.573 2.402.269.819.529 1.573.791 2.283 1.519-.033 3.828-.113 3.878-1.13m51.243 56.596c-3.967-.253-8.695.555-13.214 2.295.789.471 1.63 1.544 3.266.982 2.307-.788 3.096 1.639 2.005 2.305-1.093.669-1.457 2.366.603 1.094 2.064-1.274 3.883.545 3.034 1.877-.848 1.338-1.941.305-1.699 2.187.244 1.879-.182 3.577-1.878 3.88-1.701.305-2.064-2.245-2.849-2.061-.789.182.177 4.488-.185 4.549-1.183.198-2.317 1.227-2.926 1.845l.137.096c6.68 4.793 8.372 2.183 9.341-.122.971-2.305 3.121-9.137 3.758-12.739.363-2.062.852-4.245.608-6.187m-14.493 13.224c.363-.906-.605-1.697-1.638-1.031-1.032.667-2.548 1.639-3.58-.119-1.028-1.761 1.154-1.941 1.276-2.791.119-.849-.727-.971-.307-2.366.426-1.395 1.931-.979 3.037-.241 1.272.848.9-1.163.727-1.941-.131-.593-.233-1.185-.113-1.65-1.317.593-2.599 1.262-3.829 2.014-6.229 3.814-6.43 7.037-4.975 8.249 1.303 1.088 3.967 1.597 8.509 4.553.048-1.575.612-3.973.894-4.677m-19.833-3.64c-2.577-1.288-5.094-4.125-6.79-7.397 0 0 .119-.486-.608-.486s-3.396-.244-7.885-1.822c-4.486-1.575-5.091-.605-5.699 1.333-.608 1.944-1.092 5.462-1.214 11.284-.119 5.824 2.426 9.465 4.004 8.857.768-.297 2.75-1.284 4.871-2.318.031-1.156.097-3.163.224-4.112.183-1.395-1.273-.854-1.881-.122-.608.727-1.758 1.941-2.851 1.758-1.093-.183-1.819-2.122-1.635-3.942.18-1.819-1.941-2.549-.608-4.973 1.333-2.427 2.423.605 3.578.364 1.153-.244.545-.849 0-2.729-.547-1.88 1.712-2.439 3.155-1.094.909.849 1.333-1.03 2.668-.788 1.336.241 2.121 1.153 1.336 2.485-.611 1.031-1.031 3.459.122 2.186 1.148-1.275 2.301-2.063 3.393-1.216 1.093.849.363 2.61.061 3.519-.302.91 1.941 2.001.363 3.096-1.574 1.092-3.336-.788-4.245-.547-.909.244-1.09 1.333.122 2.183.789.554 1.624.987 2.23 1.235 2.524-.859 5.485-2.517 6.441-3.118l1.577.122c.121-2.058 0-3.394-.73-3.758m-8.972 26.691c-.971-2.183-1.308-.506-4.002 3.762-1.366 2.159-4.807 6.157-9.11 10.681 2.982.602 9.413 2.186 5.591 5.337-4.123 3.395-2.304 3.151-.486 2.91 1.819-.243 4.854.849 2.55 4.973-2.306 4.127-3.883 7.037-6.065 8.372-2.185 1.333-5.338 1.214-6.065-1.941-.73-3.154-2.79 0-2.912 2.063-.122 2.061-.363 5.581-.122 6.794l-4.605-.244c-.122-1.94-.122-5.822.241-7.642.366-1.819.241-4.002-2.545-3.154-1.824.555-3.072.084-3.724-.282-5.416 4.821-8.155 8.155-9.996 11.095 1.393 1.232 3.602 2.159 5.959 1.197 2.665-1.092 7.032.244 4.364 4.37-2.668 4.121-2.548 6.186.122 3.64 2.668-2.551 6.955-6.928 8.247-2.309.849 3.035-1.941 4.009-1.819 6.433.119 2.424 2.545 4.855-.848 7.767-3.397 2.907-4.852-2.066-7.157-1.333-1.393.438-1.672 1.714-1.593 2.853 3.016 4.272 7.414 10.313 8.993 12.914 2.426 4.008 2.426 8.859 3.397 8.133.968-.73 3.271-2.916 4.001-3.523.727-.602 1.455-1.335 1.092-2.668-.366-1.335-1.758-8.488-1.333-13.468.483-5.7 3.153-11.947 5.094-15.525 1.864-3.441 7.519-14.441 8.853-17.354 1.333-2.91 3.761-6.305 4.367-8.977.605-2.668 2.909-8.854 3.88-11.767-.244-2.427-1.808-7.338-4.368-13.105m52.877 53.866c-3.15-5.215-3.758-7.28-4.246-12.616-.307-3.366-.031-7.749.456-11.955-.935-.076-2.199.102-2.272 1.52-.125 2.305-1.215 5.581-1.942 7.281-.725 1.697-3.156 1.575-4.608 1.697-1.46.122-1.46-.852-.488-3.035.971-2.183 1.34-3.154 1.096-5.092-.244-1.941-1.215-.244-2.067 1.454-.845 1.7-3.274 5.095-6.065 4.732-2.787-.364-2.06-4.61-1.819-6.064.244-1.459-.605-1.7-1.696-1.941-1.09-.243-3.275-.729-2.061-4.246 1.215-3.519 2.547-3.156 4.243-2.549 1.696.608 1.941-.483.366-1.091-1.579-.608-3.275-1.941-3.153-3.64.318-4.493 3.153-4.124 5.335-3.641 1.899.42 4.303-.718 5.919-2.459l-.099-.332c-3.236-12.355 2.912-27.54 4.608-31.787 1.704-4.245 8.248-16.195 10.493-19.774-1.212-.608-4.425-2.244-6.184-3.157-1.759-.907-2.73-1.333-3.213-.666-.488.666-1.096 1.03-1.941 2.244-1.704 2.433-.244 2.061.244 2.061.481 0 2.543 2.671 2.906 3.279.369.605 0 1.091-.846 3.032-1.114 2.538-1.821 8.372-2.793 11.891-2.938 10.652-7.52 9.586-9.581 8.249-2.063-1.333-2.668.727-4.73 3.638-.491.695-1.728 2.017-3.358 3.657 1.968.887 4.647 3.427 1.42 5.93-3.761 2.91-4.49 4.485-2.669 4.121 1.817-.361 3.639-3.154 5.699-1.211 2.061 1.941-.725 4.124-1.819 4.729-1.093.606-3.275 1.7-2.668 4.006.605 2.305.968 5.459-2.063 6.187-3.031.727-4.246-.609-5.095-2.186-.848-1.575-1.696-.483-2.06 1.456-.365 1.941-.606 3.398-.606 4.124 0 .727-2.182-.364-3.153-1.333-.971-.97-2.182 1.697-3.275.364-1.092-1.333 1.333-5.459 2.182-6.915.801-1.373.468-3.273-4.354-1.046-1.561 2.61-2.798 6.404-4.742 12.33-2.668 8.127-8.712 19.201-11.221 23.236-6.533 10.501-7.7 20.443-6.731 26.63.965 6.153 1.819 5.7 3.153 5.7 1.335 0 4.608 4.124 6.795 6.67 2.179 2.549 3.032 1.457 4.121.608 3.503-2.728 10.551-7.278 20.497-12.014 4.24-2.015 9.894-4.163 15.402-5.927.086-2.282.641-5.045.849-6.081.244-1.214-.968-1.578-2.183 0-1.211 1.579-4.483 5.457-6.668 4.492-2.186-.971-4.002-3.401-2.79-5.462 1.211-2.061-.486-2.668-1.335-3.759-.852-1.096-.852-5.343 1.82-5.706 2.668-.364 3.515 1.941 5.335 2.549 1.819.608 3.275.483.97-2.061-2.304-2.552-5.094-1.579-3.637-5.098 1.455-3.518 3.515-3.276 5.943-2.549 2.426.729 3.637-.605 5.216-1.698 1.577-1.089 4.727-2.549 6.912 0 2.186 2.549-1.577 4.851-2.423 5.703-1.64 1.642-1.941 4.733-.125 2.91 1.823-1.819 4.928-8.396 7.039-2.91 1.208 3.154-1.096 4.37-.727 6.311.363 1.941 3.639 4.61.965 7.035-2.668 2.43-6.425.362-8.004-1.091-1.577-1.454-3.274-2.186-2.548.489.539 1.959.81 4.029.818 5.302 5.3-1.466 9.93-2.359 12.282-2.151 3.46.31 6.068 1.333 5.943-1.824-.118-3.148-1.816-5.334-4.97-10.551m-43.054 21.715c-2.912.852-3.397-.481-5.338-1.208-1.941-.727-2.063.966-.728 3.032 1.333 2.061 2.793 4.002 1.214 4.002-1.579 0-2.79.244-3.034 1.454-.241 1.217-2.787-.238-3.393-2.788-.608-2.549-1.215-7.405-2.545-4.973-1.334 2.424-2.55 6.426-5.947 4.61-3.393-1.822-1.09-4.248-2.787-5.945-1.699-1.697-3.274-3.884-1.577-6.916 1.696-3.032 3.153-.487 4.73-.487 1.574 0 1.819-1.454.363-2.545-1.455-1.095-3.275-6.313 3.397-5.949 2.57.141 5.337-.727 7.519-2.306 2.182-1.572 7.883-.726 5.579 3.282-2.304 4.003-1.574 4.85-.244 3.395 1.333-1.459 3.034-4.128 5.579-3.395 2.548.727 1.455 2.663-.119 4.85-1.577 2.186-.608 3.638.605 4.49 1.214.846 3.445 5.44-3.274 7.397m12.371-28.631c-2.185.122-4.852-.486-4.852-.486-.244 2.306-2.483 5.607-4.73 8.979-.241.364-1.574.364-2.182-.119-.605-.487-2.304-1.333-.97-2.793 1.333-1.456 3.519-4.488 3.153-5.822-.363-1.333-1.333-2.546-2.787-.729-1.458 1.822-3.764 5.581-6.309 5.706-2.545.119-5.094-2.19-3.878-4.492 1.211-2.305 1.574-3.518-.122-5.581-1.696-2.063-1.064-4.701 2.545-6.31 1.092-.483 3.031 0 4.367 1.092 1.333 1.092 2.06 0 .241-1.092-1.819-1.091-3.275-2.424-3.517-4.851-.23-2.305 1.212-4.729 4.364-3.398 3.153 1.338 5.094.244 6.428-.848 1.333-1.091 7.021-2.452 6.187 2.549-.608 3.64-2.304 3.762-2.79 5.7-.486 1.941.97.73 1.819-.727.849-1.457 2.79-7.415 6.792-2.913.97 1.092.608 2.913-.605 4.973-1.212 2.063-.244 3.276.486 4.37.725 1.091 2.419 6.455-3.64 6.791" fill="#BA9653"/><path d="M373.091 161.596l-3.594 2.548 8.264 11.683-4.727 3.355-8.027-11.927-3.704 2.625 7.343 11.124-4.73 3.355-11.848-16.86 21.487-15.234 13.064 18.318-4.732 3.353m-2.863 23.591l4.839 10.517-7.03 3.253-7.588-17.107 23.249-10.114 2.987 6.586m-13.724 38.241l-.731-6.486 15.601-1.835-.606-9.432 6.989-.521 1.944 22.689-6.987.516-.608-6.766m-15.452 25.212l-.099-7.733 22.942-.07.094 7.733m-10.832 31.453c2.169-1.291 3.105-2.939 3.418-4.837.784-4.764-1.702-8.766-6.068-9.411-4.111-.602-7.478 1.261-8.703 5.414-.634 2.146-.392 4.268.196 5.665l-6.062 2.03c-.834-2.881-1.22-6.176-.744-8.69.756-3.954 2.095-6.142 4.956-8.315 3.184-2.418 7.735-3.052 11.579-2.314 3.534.676 6.867 2.45 8.834 5.905 2.024 3.545 3.059 6.558 2.221 10.924-.5 2.591-2.817 6.282-5.872 8.151m-15.76 15.576c-3.498 3.297-9.568 7.242-11.977 7.464-3.136.288-4.107-1.477-4.634-4.259-.411-2.149-.017-5.539.965-8.431.846-2.507 2.9-4.997 4.745-6.541l3.794 1.687c-2.051 1.381-3.365 3.522-4.226 6.076-.589 1.748-1.122 4.416.628 5.013 1.955.659 6.196-3.617 7.411-4.784 2.099-2.024 6.463-5.542 9.664-4.717 2.111.542 6.017 4.937 4.518 12.158-.625 2.993-1.721 6.195-3.841 8.318l-5.18-3.478c1.455-1.035 2.332-3.835 2.945-5.658.462-1.373.548-3.554-.733-4.264-.792-.435-2.31-.253-4.081 1.418m-28.342-159.784c-.283-2.513-.916-4.224-2.513-5.292-4.025-2.674-8.539-1.909-11.132 1.664-2.08 2.863-1.923 7.333 1.35 10.163 1.695 1.459 3.729 2.113 5.248 2.151l-.647 6.361c-2.968-.425-6.13-1.424-8.221-2.895-3.298-2.319-4.741-4.432-5.537-7.935-.897-3.897.397-8.311 2.647-11.511 2.074-2.94 5.741-5.476 9.679-5.991 3.886-.503 7.543.215 10.629 2.895 1.994 1.73 3.958 5.817 4.406 9.372m-240.107 130.373c.119-6.774 3.473-10.141 5.358-10.538 3.083-.651 4.678-.164 6.798 1.719 2.199 1.956 3.15 4.061 3.783 7.045.55 2.586.797 5.612-.003 7.887l-4.887.508c1.061-2.234.32-4.283-.238-6.915-.384-1.812-1.577-3.569-3.389-3.185-1.88.397-1.781 3.571-1.947 5.302-.541 5.561-2.361 9.18-5.824 9.561-3.24.352-7.229-1.8-8.629-8.392-.631-2.984-.342-7.059.395-9.967l5.118.026c-.724 1.633-1.268 5.772-.868 7.659.297 1.415 1.384 3.16 2.848 3.083 1.156-.06 1.461-2.517 1.484-3.794m13.274-31.888l.086 5.693-18.109.224.073 8.206-5.797.064-.233-21.619 5.797-.064.073 7.725m31.093-64.462l-15.571-9.778 3.447-5.367 22.819 13.16-4.418 6.821-18.514.308-.039.07 13.98 8.065-3.447 6.094-22.454-13.04 2.961-5.729m-13.729 33.218c0-7.743 6.277-14.024 14.021-14.024 7.741 0 14.02 6.279 14.02 14.024 0 7.745-6.277 14.023-14.02 14.023-7.744 0-14.021-6.278-14.021-14.023m14.021 7.306c4.031 0 7.3-3.27 7.3-7.306 0-4.035-3.269-7.306-7.3-7.306-4.033 0-7.302 3.27-7.302 7.306 0 4.035 3.269 7.306 7.302 7.306m-4.983 84.958c0-7.743 6.274-14.024 14.02-14.024 7.744 0 14.018 6.279 14.018 14.024 0 7.748-6.273 14.027-14.018 14.027-7.745 0-14.02-6.279-14.02-14.027m14.02 7.309c4.03 0 7.3-3.27 7.3-7.307 0-4.029-3.271-7.301-7.3-7.301-4.034 0-7.303 3.27-7.303 7.301 0 4.035 3.268 7.307 7.303 7.307" fill="#fff"/><path d="M149.519 328.831c-2.028-3.07-.991-7.607 1.162-9.509 4.351-3.855 11.66 5.001 14.304 8.327l7.537 8.769-18.618 15.401-7.004-6.919c-5.024-5.018-11.144-11.356-6.1-15.738 2.045-1.777 6.507-1.406 8.718-.33zm14.469 4.037l-.605-.727c-1.4-1.685-6.364-7.994-8.334-6.138-2.159 2.033 3.066 7.56 4.613 9.42l.483.579 3.844-3.134zm-8.998 7.594c-.688-.825-6.225-7.576-8.468-5.465-2.362 2.223 3.162 6.561 5.008 8.783l3.46-3.318z" fill="#fff"/></g></svg>