<svg width="512" height="512" viewBox="0 0 512 512" version="1.1" xmlns="http://www.w3.org/2000/svg" xmlns:sketch="http://www.bohemiancoding.com/sketch/ns"><title>detroit-pistons</title><desc>Created with Sketch.</desc><g sketch:type="MSLayerGroup" stroke="none" stroke-width="1" fill="none"><path d="M217.982 284.027c0 11.333-6.818 17.981-20.264 19.741l-.179.018c-8.801.81-15.961 1.599-23.236 2.527l-4.344.544-.098-18.935-.086-2.886v-.012c3.742-.452 6.31-.752 8.196-.985 2.486-.347 4.961-.654 7.454-.961-.024-3.344-.069-12.991-.086-16.271-5.02-1.02-12.562-3.389-16.187-11.49-.086-.168-.144-.354-.215-.55v45.184l-.232.047v6.93l-3.031.44c-6.083.851-12.416 1.836-19.581 3.035 19.368 13.722 50.256 27.187 98.233 29.904.74-12.354-4.65-25.362-13.116-38.898l-.833.012v-1.333c-3.678-5.743-7.871-11.577-12.393-17.509v1.448h-.001zm-78.182-56.656c1.602-.278 3.112-.533 4.592-.794v-.333c7.136-1.275 14.007-2.431 21.091-3.477 1.156-.189 2.319-.345 3.453-.522v9.683c.776-2.871 2.273-5.317 4.373-7.263-12.482-18.543-22.439-38.203-24.985-58.906-16.088 18.832-26.729 41.693-31.067 65.957.289-.067.6-.139.896-.191 1.342-.313 3.441-.764 4.459-.991l.555-.136 1.232-.244.093-.029.11-.02.034.014.729-.113c4.922-.476 8.12.148 10.19 1.921l.012.005c.139.131.289.263.416.406l.069.052.347.402.081.102c.139.153.267.339.382.533v-5.554l2.939-.506zm-19.153 56.806l-.526.128c3.082 4.716 8.402 11.589 16.858 18.935-.069-9.943-.093-19.846-.093-29.626-3.223 5.245-8.75 8.917-16.24 10.563m16.377 26.649c-7.506-6.044-13-11.978-16.909-17.011 6.119 22.07 17.627 42.397 33.935 59.344 9.305 9.66 19.784 17.795 31.09 24.285 18.951 3.181 33.739 1.077 43.906-6.374 7.692-5.644 12.562-14.19 14.556-25.384-53.17-2.921-85.874-18.629-105.421-33.948l-1.144.195-.012-1.106zm235.132-.377c-2.135-.393-4.337-.782-6.599-1.17l-3.974-.719-4.089-.642c-7.686-1.234-15.591-2.347-24.157-3.402l-.948-.115c-4.222 10.846-7.548 21.149-9.543 30.129 22.104-5.423 38.182-14.033 49.309-24.08m-3.521-84.87c7.577 1.297 14.869 2.718 22.422 4.296-3.991-20.72-12.579-39.839-24.66-56.249 4.274 14.915 5.848 32.136.995 51.873.387.079.798.142 1.243.22v-.14zm-182.742-5.335l.017.124-.017-.124m89.513-13.926l-.232-.029h-.123c-4.1-.553-6.21-2.237-7.327-3.893 0 .292-.018 1.515-.018 1.515l-.039 1.666c-5.368 0-10.728-.017-16.077-.081.139-9.636.277-19.284.399-28.913l-.377.335c-.566.474-1.261.831-2.047 1.115-.115 8.052-.225 15.879-.358 23.971-.37.005-.723.024-1.07.038-.024 1.24-.024 1.998-.024 1.998-.029.505-.047 1.02-.086 1.536-5.35.249-10.711.476-16.066.653 0 0 .296-23.452.324-26.718-.879.05-2.452.131-3.747.197l-.018.148c0 .012-5.476.457-8.438.689-.012.461-.012.902-.012 1.366 2.255-.22 4.378-.429 6.558-.56-.034 3.063-.075 5.98-.105 9.097-.375.024-.752.034-1.116.069 0 .689 0 1.371-.017 2.055-.035.481-.058.974-.081 1.465 0 0-3.267.273-5.424.455-.024.689-.034 1.373-.047 2.067 3.32-.322 6.414-.571 9.589-.844 0 2.486-.046 4.855-.076 7.292l-1.087.084c-.024 1.12-.041 2.254-.052 3.381-.619.055-1.249.096-1.885.142-6.754.493-13.613 1.176-21.079 2.043-.838.101-1.672.215-2.522.309l.046-3.685c-1.596 2.527-4.378 4.264-8.039 4.836-6.021.873-11.815 1.833-18.165 3.061-.936.177-1.851.349-2.77.533 0 0 .324-24.522.353-27.352-1.156-.18-2.204-.529-3.146-1.211-1.001-.754-2.243-2.19-2.221-4.592l.046-.57.035-.208.382-2.153c.399-.084.821-.16 1.237-.256 1.295-.244 2.591-.493 3.898-.73v-.058c8.056-1.611 15.794-2.955 23.977-4.149h.035c2.226-.237 3.771-.107 4.858.397v-1.02c.566-.06 1.122-.124 1.689-.191 1.237-.131 2.458-.249 3.654-.385v-.153c6.119-.701 11.913-1.269 17.928-1.756v-.029l1.88-.142 1.105-.067.289-.018v.012c.693-.043 1.393-.084 2.07-.113v-.034c7.403-.476 14.423-.76 21.953-.873l1.526.005c.034.076.034.165.034.266h2.082v-.299c5.032-.034 9.971.026 14.996.168-5.524-25.159-12.324-42.966-19.639-51.396-35.698.36-69.362 14.113-95.184 39.046-1.532 1.489-3.031 3.002-4.476 4.532 1.307 21.54 11.288 41.808 24.532 61.353.602-.287 1.237-.481 1.908-.624 3.204-.837 7.559-1.147 9.842-1.419l-.289.06.196-.024c.267 0 .544-.072.787-.107 2.961-.385 17.049-1.732 28.337-2.439l.578-.029c.931-.079 1.492-.113 1.492-.113l.48-.024.583-.026h.041c2.932-.136 5.835-.261 8.738-.359 14.331-.637 28.176-.78 42.656-.469 1.169 0 2.278.076 3.24.076.201.945.201 1.84.201 2.812v.481c0 .945-.122 2.9-.982 5.038 1.451-1.477 3.22-2.718 5.221-3.738-.519-4.838-1.099-9.618-1.717-14.346-1.198-.059-2.4-.106-3.602-.168m-68.665 36.118c1.151.373 2.244.713 3.204 1.122 1.567.553 2.568 1.092 3.482 1.692 2.696 1.687 4.1 3.673 4.344 6.284.063 1.003.11 2.538.144 4.664.115 2.242.15 6.079.15 13.107l-.024 4.617c4.373 5.58 8.542 11.102 12.342 16.549v-49.932c-3.678.16-12.711.522-12.711.522v-4.716c-2.684 2.912-6.228 4.592-10.653 4.982 0 0-1.227.102-2.806.249.678.244 1.393.481 2.175.736 0 .124.191.084.352.124m42.912 98.121c10.121.394 20.947.324 32.559-.325 1.237-11.924 1.954-24.967 2.204-38.625-7.68-2.376-14.544-7.382-14.62-18.61v-43.001c.018-1.529.139-3.001.353-4.395l-.705.64-.092.073c-1.863 1.451-2.544 2.451-5.042 3.068v61.645l-26.868.313c7.996 13.387 12.962 26.457 12.211 39.218m67.414-4.707c2.36-12.121 7.143-26.212 13.157-40.577v-.511c-.723 1.141-1.624 2.219-2.666 3.194-5.465 4.965-14.487 6.86-28.511 5.974-2.684-.215-5.985-.469-9.398-1.072-.232 12.933-.908 25.436-2.065 37.026 10.77-.797 20.583-2.158 29.483-4.035m44.721-109.702v-1.654l.416.079c6.298-24.843 1.771-45.361-5.725-62.949-24.289-26.295-58.572-43.267-96.891-44.712 8.235 11.952 14.22 32.033 18.413 51.691 3.054.628 4.43 1.904 5.042 4.146 1.863-1.62 4.373-2.323 6.639-2.584.723-.107 1.457-.144 2.186-.156.451-.093.879-.17 1.354-.237 1.89-.256 3.926-.165 6.119.037 3.423.307 7.032.663 9.46 2.373v-.725c1.781.261 3.563.505 5.35.742v-.789c3.36.414 6.553.878 9.959 1.338.515.096 1.041.18 1.613.22l-.018.909c.647.098 1.279.206 1.927.313v-.906c7.38 1.115 14.458 2.373 21.779 3.891.556.113 1.023.232 1.55.345 0 .409 0 .776.052 1.204v.244c0 .556-.133 1.976-1.209 3.08-.232 1.314-.96 3.018-3.019 4.212-.487.266-1.029.402-1.585.533-.11 7.732-.232 15.23-.318 23.02-.387-.063-.746-.142-1.117-.194-.012 1.393-.024 2.261-.024 2.261-.034.736-.058 1.466-.081 2.202-5.31-.928-10.63-1.881-15.951-2.859 0 0 .336-24.089.336-26.429-.815-.119-1.665-.256-2.486-.385-.103 7.339-.213 14.601-.335 22.091-.354-.06-.695-.107-1.065-.157 0 .73-.005 1.466-.027 2.196-.024.701-.046 1.383-.064 2.077-5.274-.696-10.525-1.419-15.799-2.168l.063-3.958c-.283.287-.607.565-.954.814-2.757 1.904-7.251 2.683-13.439 2.208l-.451-.034c-2.244-.186-6.235-.553-9.288-2.285.589 4.473 1.133 9.059 1.641 13.73 1.048-.284 2.153-.539 3.314-.736l.144-.012c1.197-.362 2.476-.658 3.84-.883 3.389-.56 7.264-.617 12.908-.225l.034.005c9.802.764 19.854 1.579 24.127 9.856v-5.87l6.24-.218c1.706-.05 3.7.075 5.853.426 5.24.316 12.672 2.333 18.598 7.976.303-1.039.611-2.071.888-3.093m-37.699 137.248c3.146 3.783 9.038 4.317 17.459 1.639 3.24-2.613 6.391-5.36 9.415-8.291 13.336-12.862 23.739-27.963 30.946-44.448l-3.244-.637c-12.197 12.161-30.674 22.546-56.918 28.63-1.741 10.568-1.237 18.79 2.343 23.106m-4.107 3.421c-4.425-5.33-5.361-14.278-3.857-25.326-8.859 1.773-18.557 3.059-29.119 3.795-2.399 20.518-6.413 37.814-12.393 49.044 20.64-2.989 40.204-10.591 57.461-22.297-5.164-.054-9.23-1.768-12.092-5.216m-71.012-20.878c-2.163 12.776-7.9 22.94-16.754 29.458-8.593 6.288-19.899 9.231-33.722 8.814 16.597 7.272 34.623 11.253 53.286 11.6 5.465.093 10.861-.156 16.211-.672 6.494-9.711 10.982-27.424 13.642-49.506-11.636.612-22.509.681-32.664.305" id="Shape" fill="#ED174C" sketch:type="MSShapeGroup"/><path d="M408.931 280.672c-2.146-1.16-4.354-2.451-6.436-4.005-.798 5.934-1.972 12.239-3.448 17.917l1.011.237v-.046c3.054.736 5.968 1.407 8.918 2.103.012-1.646.012-4.005.012-6.044 0-3.806-.016-7.792-.056-10.163m-302.524-46.428c11.022-73.13 74.845-129.176 150.605-127.8 73.689 1.347 134.129 56.135 145.1 126.736 2.208-.273 4.707-.081 7.483.605v.017c.186.06 1.857.498 2.129.565l.186.034h-.035c.782.203 1.759.452 2.846.73-4.442-34.181-19.629-65.965-44.021-91.3-30.02-31.2-70.3-48.814-113.46-49.606-83.649-1.528-153.822 61.74-163.555 143.24 2.18-.577 4.39-1.139 6.57-1.687 2.069-.544 4.106-1.06 6.153-1.535" id="Shape" fill="#0067B1" sketch:type="MSShapeGroup"/><path d="M393.501 314.68v-3.495l-.017.029v3.466l-1.296-.279c-23.091 54.791-77.737 92.902-140.611 91.748-68.184-1.24-125.506-49.072-142.295-112.039v17.196l-.029.007v6.049l-2.255.574-2.094.486c23.953 57.642 80.258 98.742 146.452 99.935 43.147.799 84.047-15.337 115.193-45.421 16.598-16.056 29.339-35.01 37.753-55.777-2.596-.62-5.234-1.216-8.079-1.86l-2.722-.62z" id="Shape" fill="#0067B1" sketch:type="MSShapeGroup"/><path d="M218.023 275.48l-.041 7.099c4.523 5.933 8.715 11.767 12.393 17.509v-9.619c-3.8-5.446-7.969-10.969-12.342-16.549l-.01 1.559zm163.876 36.818c-7.207 16.485-17.61 31.585-30.946 44.448-3.025 2.932-6.176 5.678-9.415 8.291-8.421 2.677-14.312 2.144-17.459-1.639-3.58-4.317-4.083-12.539-2.343-23.108 26.243-6.085 44.72-16.468 56.918-28.63-2.123-.411-4.28-.806-6.501-1.212-11.127 10.047-27.204 18.657-49.307 24.081 1.995-8.982 5.321-19.284 9.543-30.129l-2.175-.256v-8.871c-6.014 14.364-10.797 28.456-13.157 40.577-8.901 1.878-18.714 3.24-29.483 4.034 1.158-11.59 1.834-24.093 2.065-37.026-1.741-.3-3.505-.718-5.234-1.252-.249 13.658-.965 26.701-2.204 38.625-11.612.649-22.438.719-32.559.325.752-12.759-4.216-25.831-12.214-39.216l-6.223.069c8.466 13.536 13.857 26.544 13.116 38.898-47.977-2.717-78.865-16.183-98.233-29.904-1.613.261-3.273.539-4.986.835l-2.926.499c19.547 15.32 52.252 31.028 105.421 33.948-1.995 11.194-6.864 19.74-14.556 25.384-10.167 7.453-24.955 9.555-43.906 6.374-11.306-6.49-21.785-14.625-31.09-24.285-16.309-16.948-27.818-37.274-33.935-59.344 3.909 5.035 9.403 10.967 16.909 17.011l-.034-3.042-.012-4.543c-8.455-7.347-13.775-14.22-16.858-18.935-2.787.615-8.94 1.936-10.838 2.346v7.359c17.078 62.555 74.406 110.897 142.295 112.137 62.874 1.153 117.52-36.957 140.611-91.748l-2.943-.62c-2.451-.515-4.887-1.003-7.344-1.482m-130.126 83.513c-18.663-.347-36.688-4.329-53.286-11.6 13.821.417 25.127-2.527 33.722-8.814 8.854-6.518 14.59-16.681 16.754-29.458 10.155.376 21.028.307 32.662-.307-2.659 22.083-7.148 39.795-13.642 49.506-5.348.518-10.745.767-16.21.674m22.832-1.483c5.979-11.228 9.994-28.525 12.393-49.044 10.56-.736 20.259-2.022 29.119-3.795-1.503 11.05-.568 19.997 3.857 25.326 2.862 3.448 6.928 5.162 12.092 5.214-17.256 11.707-36.82 19.309-57.461 22.298m7.254-191.026c-.024.51-.024.997-.034 1.502v1.807c-.936-.047-1.88-.081-2.816-.122.62 4.728 1.198 9.508 1.717 14.346 1.538-.773 3.244-1.419 5.112-1.912-.509-4.669-1.053-9.256-1.641-13.73-.88-.51-1.689-1.126-2.337-1.891m111.627 62.718v45.195l.017-.029v-17.91l5.546 1.309c1.475-5.678 2.649-11.983 3.448-17.917-3.563-2.654-6.803-6.032-9.011-10.649m-32.589-36.776c.296.283.596.567.885.864v-3.958c-.277 1.022-.585 2.054-.885 3.094m-212.571-63.483c2.545 20.703 12.504 40.363 24.983 58.905 1.249-1.156 2.684-2.211 4.384-2.929-13.243-19.545-23.225-39.813-24.532-61.353 1.445-1.529 2.943-3.042 4.476-4.532 25.822-24.933 59.486-38.685 95.185-39.042 7.315 8.43 14.115 26.237 19.639 51.396 1.341.046 2.713.086 4.07.136h.086l.11.029c.468.067.874.142 1.267.232-4.193-19.657-10.179-39.74-18.413-51.691 38.319 1.445 72.602 18.418 96.891 44.712 7.495 17.588 12.023 38.106 5.725 62.949.787.142 2.684.476 5.194.929 4.853-19.739 3.279-36.958-.995-51.873 12.08 16.41 20.67 35.529 24.66 56.249.666.142 1.307.278 1.984.414v.096l.446.096v8.24c.867-1.57 2.057-2.871 3.568-3.833 1.464-.919 3.152-1.477 5.06-1.709-10.971-70.601-71.411-125.39-145.1-126.736-75.76-1.376-139.583 54.669-150.605 127.8l1.185-.278c.902-.22 1.805-.44 2.724-.66 2.302-.545 4.609-1.12 6.94-1.62 4.336-24.258 14.977-47.084 31.065-65.928" id="Shape" fill="#fff" sketch:type="MSShapeGroup"/><path d="M109.253 317.361v-6.049c-8.402 1.981-16.748 4.005-25.151 6.391v-61.669c-6.171.972-8.889-1.385-10.069-3.222-.556-.941-1.394-3.181-1.435-5.401.041-1.275.318-2.465 1.082-3.433.353-.423.607-.809 1.012-1.24 6.061-1.77 12.046-3.436 17.969-5.015-7.234 1.852-14.62 4.048-22.363 6.255l-1.041.295s-3.742 3.259-3.62 7.626v.177c.034 2.759 1.053 4.833 1.978 6.334 1.261 1.97 4.065 4.791 9.634 5.047v62.034l4.476-1.245c7.843-2.191 15.707-4.085 23.18-5.824l2.094-.486 2.255-.574zm-8.999-81.582c2.169-.556 4.337-1.089 6.512-1.62l-.358.084c-2.047.474-4.083.991-6.154 1.536m20.393 48.398c7.489-1.646 13.018-5.319 16.24-10.564 0 9.781.024 19.685.093 29.626l.012 4.543.034 3.042.012 1.106 1.144-.195 2.926-.499c1.712-.296 3.372-.574 4.986-.835 7.166-1.199 13.498-2.185 19.581-3.035l3.031-.44v-6.93c-8.132 1.176-16.049 2.474-24.185 3.882-.208-26.115-.081-51.19-.127-77.302-1.481.261-2.99.516-4.592.794l-2.938.505v5.554c2.615 3.91 2.522 11.119 2.522 22.045l-.034 1.414v1.141c-.076 10.105-6.107 16.855-16.476 19.174-4.579.985-8.982 1.981-13.591 3.072v6.378c2.961-.642 9.12-1.97 10.838-2.346l.526-.13m-2.495-52.652c1.555-.362 3.123-.712 4.702-1.063l-.243.072c-1.018.225-3.117.678-4.459.991m243.626-5.377v3.958c2.551 2.654 4.77 6.023 6.315 10.308.169.6.37 1.092.538 1.727v-16.418c-.445-.079-.855-.142-1.243-.22-2.51-.455-4.407-.788-5.194-.929l-.416-.079v1.653zm82.693 22.696v-.182l.005.895c0 .076-.613 2.842-2.18 4.427-2.082 2.462-5.257 3.135-9.305 2.012-4.006-1.079-7.963-2.13-11.97-3.221v1.726c0 2.52 1.932 4.432 5.17 6.803l2.684.719c7.124 1.981 11.044-1.084 12.758-3.106l-.169.186.186-.203-.017.018.017-.018c2.214-2.398 2.915-5.922 2.915-6.748l-.094-3.308zm-34.879-15.059c-2.775-.687-5.274-.878-7.483-.605-1.908.232-3.597.792-5.06 1.709-1.509.962-2.7 2.263-3.568 3.833v-8.24l-.446-.096v77.629c-7.871-1.704-15.482-3.164-23.577-4.584 0 0-4.361-10.725-8.015-19.636v18.252c-8.028-1.314-15.996-2.432-24.053-3.441v-77.339c.943-.034 2.752-.041 2.752-.041.678-.021 1.393 0 2.153.041-2.153-.351-4.148-.474-5.853-.426l-6.24.218v5.87c1.301 2.57 2.105 5.832 2.141 10.038v43.353l-.047 1.848c-.051 3.842-1.417 7.04-4.036 9.485-4.592 4.253-12.959 5.933-25.626 5.121-10.207-.793-25.626-1.998-25.735-17.592v-43.373c.082-9.323 4.136-15.126 12.394-17.635l-.144.012c-1.163.197-2.267.452-3.314.736-1.868.493-3.573 1.139-5.112 1.912-2.001 1.02-3.771 2.261-5.221 3.737-.654 1.565-1.683 3.233-3.384 4.671-2.128 1.689-4.777 2.633-7.854 2.922v61.643c-8.477-.081-16.649 0-25.098.29v-61.475c-4.413.107-8.351.29-12.589.516v-16.327c1.273-.073 2.534-.124 3.811-.177-2.902.098-5.806.223-8.738.359l.237 2.694.081 1.799c0 .605-.081 1.132-.081 1.642v.119l-.046.072c0 .562-.475 2.562-1.839 4.764-2.128 3.334-5.24 5.169-9.496 5.547-4.013.29-7.934.628-11.989 1.046v1.684c.029 2.711 2.175 3.941 5.691 5.214 1.579-.148 2.806-.249 2.806-.249 4.424-.391 7.969-2.072 10.653-4.982v4.716s9.033-.362 12.711-.522v60.884l.833-.012 6.223-.069 26.868-.313v-61.645c2.498-.617 3.181-1.616 5.042-3.068l.092-.073.705-.64c-.213 1.393-.335 2.866-.353 4.395v43.001c.076 11.228 6.94 16.236 14.62 18.61 1.729.533 3.494.951 5.234 1.252 3.411.603 6.714.857 9.398 1.072 14.024.887 23.046-1.009 28.511-5.974 1.041-.974 1.942-2.051 2.666-3.194v9.382l2.175.256.948.115c8.566 1.055 16.471 2.166 24.157 3.402l4.089.642 3.974.719c2.261.388 4.464.777 6.599 1.17 2.22.406 4.378.799 6.501 1.212l3.244.637c2.458.48 4.892.967 7.344 1.483l2.943.62 1.296.279v-48.661c2.208 4.617 5.448 7.997 9.011 10.649 2.082 1.554 4.29 2.845 6.436 4.005.041 2.371.058 6.357.058 10.163 0 2.04 0 4.398-.012 6.044 2.169.498 4.349 1.02 6.633 1.563 0-4.496.082-20.222-.127-22.539 0-.093-.208-.122-.29-.162l-.555-.261c-5.726-2.967-12.545-7.162-15.672-15.257-.776-1.976-.867-5.123-.926-8.43-.081-4.581.723-11.155.723-11.725 1.158-5.114 5.765-7.423 12.961-5.702-.272-.067-1.944-.505-2.129-.565v-.018h-.001zm2.205.611c.247.079 1.664.423 3.81.967-.3-.072-.602-.142-.891-.232-1.087-.278-2.064-.527-2.846-.73l-.073-.005m30.043 8.129l-.671-.197c.73.22 1.457.481 2.192.718l-1.521-.522zm2.447.843h-.012c0 1.28.086 2.562.144 3.862l-.132-3.862zm-4.002 34.274l.034.864c.001-.284.017-.574-.034-.864m.115 30.808s-.081 1.119-.509 1.953c-2.534 4.874-7.9 6.513-16.402 4.676l-.027-.029c-8.074-2.109-15.361-3.904-23.406-5.695v-14.533l-1.011-.237-5.546-1.309v21.405l2.724.62c2.845.643 5.482 1.24 8.079 1.86 4.898 1.16 9.606 2.354 15.117 3.778l.064.024.11.052c12.445 2.701 17.597-2.046 19.906-6.49.7-1.355.872-2.879.901-3.308l.018-.134.027-5.324.052-10.43c0-.498 0-1.113-.005-1.768-.007 6.068-.093 11.873-.093 14.781v.11h-.001zm-327.956-59.606c-.759.186-1.562.345-2.314.452-.411.113-.776.148-1.134.261v16.451c1.723-.417 3.365-.794 5.094-1.172 0-1.912-.075-14.573-.075-15.06-.409-.903-.612-1.08-1.572-.932m190.762-14.465l-.092-.012h-.069c-.139-.029-.279-.029-.411-.029-.076.545-.122 1.098-.122 1.654v.225l-.034.215c-.058.539-.086 1.12-.086 1.721v1.228l.041 1.179v30.892c-.041.615-.041 1.148-.041 1.611 0 2.329.515 2.921 3.869 3.198l.678.029h.201c0-.422.076-2.276.076-2.276v-30.42c0-3.882 0-7.239-.556-8.361-.249-.48-2.008-.729-3.454-.853m-110.23 25.358l-23.827-4.421c3.626 8.101 11.167 10.469 16.187 11.49.034 3.8.069 13.438.086 16.271 2.527-.266 5.06-.557 7.674-.857l-.122-22.481c-.064.005-.277.005-.277-.076-.191-.029-.358-.064-.555-.064-5.743-.974-12.543-2.711-15.678-9.667-.752-1.726-.914-4.8-.914-8.164 0-4.467.301-9.086.515-10.462v.267c0-.603.203-1.174.203-1.732 1.007-4.681 4.43-7.985 9.641-9.439l.064-.024c1.001-.273 2.059-.488 3.181-.622l.289-.06c-2.285.273-6.639.582-9.842 1.419-.706.17-1.354.391-1.908.624-1.7.718-3.134 1.773-4.384 2.929-2.099 1.946-3.597 4.393-4.373 7.263v22.838c.068.195.126.381.213.549m16.759-34.945l-.017-.124.017.124m-16.136 64.66l.086 2.886.098 18.935 4.344-.544c7.275-.928 14.435-1.717 23.236-2.527l.179-.018c13.446-1.761 20.264-8.408 20.264-19.741v-1.447l.041-7.099.012-1.558.024-4.617c0-7.028-.034-10.865-.15-13.107.046 2.341.046 5.407.046 9.277 0 4.161-.081 8.924-.081 14.735 0 11.49-7.714 14.827-16.875 15.887h-.035c-8.05.731-15.516 1.524-23.364 2.544l-.093-14.544.284-.034c-4.064.486-8.014.972-8.014.972" id="Shape" fill="#002D62" sketch:type="MSShapeGroup"/><path d="M271.471 177.597v-.261c.046-1.584-.22-1.878-.266-1.912-.186-.119-.938-.148-1.573-.142h-.196l-.225-.024c-.041 2.321-.041 4.568-.071 6.908.712-.012 1.393.024 2.111.052.081-.072.081-.148.081-.22v-.035l.034-.443c.105-.962.082-1.217.105-2.701v-1.223z" id="Shape" fill="#ED174C" sketch:type="MSShapeGroup"/><path d="M271.471 177.597v-.261c.046-1.584-.22-1.878-.266-1.912-.186-.119-.938-.148-1.573-.142h-.196l-.225-.024c-.041 2.321-.041 4.568-.071 6.908.712-.012 1.393.024 2.111.052.081-.072.081-.148.081-.22v-.035l.034-.443c.105-.962.082-1.217.105-2.701v-1.223z" id="Shape" fill="#002D62" sketch:type="MSShapeGroup"/><path d="M272.269 198.335c-.116-.144-.196-.377-.226-2.326l-.029-.672c-.081-1.4-.115-4.326-.081-5.322 0-.368.081-1.448-2.677-1.529h-.226c-.081 4.558-.122 8.877-.191 13.426-3.997-.093-7.9-.115-11.861-.052.144-11.351.335-22.204.485-33.523h-2.082c.046.307.058.634.058.942v.225c0 .6-.149 2.161-1.341 3.537-.277 1.103-.862 2.407-2.111 3.544-.122 9.629-.26 19.277-.399 28.913 5.35.064 10.71.081 16.077.081l.039-1.666s.018-1.223.018-1.515c1.117 1.656 3.227 3.34 7.327 3.893h.123l.232.029 3.602.168c-.161-1.295-.347-2.62-.531-3.912-3.316-.503-5.432-1.941-6.206-4.241" id="Shape" fill="#ED174C" sketch:type="MSShapeGroup"/><path d="M272.269 198.335c-.116-.144-.196-.377-.226-2.326l-.029-.672c-.081-1.4-.115-4.326-.081-5.322 0-.368.081-1.448-2.677-1.529h-.226c-.081 4.558-.122 8.877-.191 13.426-3.997-.093-7.9-.115-11.861-.052.144-11.351.335-22.204.485-33.523h-2.082c.046.307.058.634.058.942v.225c0 .6-.149 2.161-1.341 3.537-.277 1.103-.862 2.407-2.111 3.544-.122 9.629-.26 19.277-.399 28.913 5.35.064 10.71.081 16.077.081l.039-1.666s.018-1.223.018-1.515c1.117 1.656 3.227 3.34 7.327 3.893h.123l.232.029 3.602.168c-.161-1.295-.347-2.62-.531-3.912-3.316-.503-5.432-1.941-6.206-4.241" id="Shape" fill="#002D62" sketch:type="MSShapeGroup"/><path d="M278.797 202.617h-.076l-.247-.041c.186 1.292.37 2.617.531 3.912.938.041 1.881.075 2.816.122v-1.808c.012-.505.012-.991.034-1.502-.173-.185-.335-.38-.473-.588-.854-.022-1.711-.054-2.585-.094" id="Shape" fill="#fff" sketch:type="MSShapeGroup"/><path d="M278.797 202.617h-.076l-.247-.041c.186 1.292.37 2.617.531 3.912.938.041 1.881.075 2.816.122v-1.808c.012-.505.012-.991.034-1.502-.173-.185-.335-.38-.473-.588-.854-.022-1.711-.054-2.585-.094" id="Shape" fill="#002D62" sketch:type="MSShapeGroup"/><path d="M311.709 178.564c-.092 6.324-.191 12.354-.277 18.678l-.034.782c-.047 1.246-.487 2.304-1.262 3.149-.243 1.272-.855 2.393-1.81 3.317l-.063 3.958c5.274.747 10.525 1.472 15.799 2.168.018-.696.041-1.376.064-2.077.024-.73.027-1.466.027-2.196-3.499-.51-6.933-.991-10.502-1.381.15-11.083.341-21.686.492-32.763-1.787-.237-3.568-.481-5.35-.742v.725c1.771 1.233 2.915 3.179 2.915 6.383" id="Shape" fill="#ED174C" sketch:type="MSShapeGroup"/><path d="M311.709 178.564c-.092 6.324-.191 12.354-.277 18.678l-.034.782c-.047 1.246-.487 2.304-1.262 3.149-.243 1.272-.855 2.393-1.81 3.317l-.063 3.958c5.274.747 10.525 1.472 15.799 2.168.018-.696.041-1.376.064-2.077.024-.73.027-1.466.027-2.196-3.499-.51-6.933-.991-10.502-1.381.15-11.083.341-21.686.492-32.763-1.787-.237-3.568-.481-5.35-.742v.725c1.771 1.233 2.915 3.179 2.915 6.383" id="Shape" fill="#002D62" sketch:type="MSShapeGroup"/><path d="M249.61 175.204c-.017.962-.034 1.895-.047 2.831.787-.284 1.481-.641 2.047-1.115l.377-.335.041-2.036c-.739.326-1.55.558-2.417.657" id="Shape" fill="#ED174C" sketch:type="MSShapeGroup"/><path d="M249.61 175.204c-.017.962-.034 1.895-.047 2.831.787-.284 1.481-.641 2.047-1.115l.377-.335.041-2.036c-.739.326-1.55.558-2.417.657" id="Shape" fill="#002D62" sketch:type="MSShapeGroup"/><path id="Shape" fill="#ED174C" sketch:type="MSShapeGroup" d="M229.508 169.088l-1.105.067-1.88.142v.029c.544-.05 1.093-.096 1.648-.136.441-.022.909-.072 1.337-.101"/><path id="Shape" fill="#002D62" sketch:type="MSShapeGroup" d="M229.508 169.088l-1.105.067-1.88.142v.029c.544-.05 1.093-.096 1.648-.136.441-.022.909-.072 1.337-.101"/><path d="M237.697 175.728c-2.013.124-3.932.235-5.934.38.035-2.393.076-4.716.105-7.138-.676.029-1.376.069-2.07.113-.035 2.396-.081 4.698-.081 7.048-.365.035-.729.058-1.105.081 0 .73 0 1.46-.024 2.19-.024.435-.041.873-.052 1.307 1.295-.067 2.868-.148 3.747-.197-.029 3.266-.324 26.718-.324 26.718 5.355-.177 10.716-.404 16.066-.653.041-.516.058-1.031.086-1.536 0 0 0-.759.024-1.998-3.632.105-7.212.244-10.791.493.118-9.097.228-17.719.354-26.807" id="Shape" fill="#ED174C" sketch:type="MSShapeGroup"/><path d="M237.697 175.728c-2.013.124-3.932.235-5.934.38.035-2.393.076-4.716.105-7.138-.676.029-1.376.069-2.07.113-.035 2.396-.081 4.698-.081 7.048-.365.035-.729.058-1.105.081 0 .73 0 1.46-.024 2.19-.024.435-.041.873-.052 1.307 1.295-.067 2.868-.148 3.747-.197-.029 3.266-.324 26.718-.324 26.718 5.355-.177 10.716-.404 16.066-.653.041-.516.058-1.031.086-1.536 0 0 0-.759.024-1.998-3.632.105-7.212.244-10.791.493.118-9.097.228-17.719.354-26.807" id="Shape" fill="#002D62" sketch:type="MSShapeGroup"/><path d="M254.099 173.039c-.232.256-.475.51-.787.747-.37.301-.816.55-1.283.76l-.041 2.036c1.248-1.135 1.832-2.439 2.111-3.544" id="Shape" fill="#ED174C" sketch:type="MSShapeGroup"/><path d="M254.099 173.039c-.232.256-.475.51-.787.747-.37.301-.816.55-1.283.76l-.041 2.036c1.248-1.135 1.832-2.439 2.111-3.544m0 .001c-.232.256-.475.51-.787.747-.37.301-.816.55-1.283.76l-.041 2.036c1.248-1.135 1.832-2.439 2.111-3.544" id="Shape" fill="#002D62" sketch:type="MSShapeGroup"/><path d="M345.228 183.323c0 1.17-.012 2.309-.034 3.47.556-.131 1.099-.267 1.585-.533 2.057-1.194 2.787-2.897 3.019-4.212-.249.254-.526.503-.879.718-1.014.539-2.222.73-3.691.557" id="Shape" fill="#ED174C" sketch:type="MSShapeGroup"/><path d="M345.228 183.323c0 1.17-.012 2.309-.034 3.47.556-.131 1.099-.267 1.585-.533 2.057-1.194 2.787-2.897 3.019-4.212-.249.254-.526.503-.879.718-1.014.539-2.222.73-3.691.557" id="Shape" fill="#002D62" sketch:type="MSShapeGroup"/><path d="M328.042 184.794c0 2.338-.336 26.429-.336 26.429 5.321.979 10.642 1.933 15.951 2.859.024-.736.046-1.466.081-2.202 0 0 .012-.866.024-2.261-3.573-.678-7.045-1.283-10.676-1.892l.348-26.422c-2.013-.333-3.875-.65-5.87-.957.018-2.065.052-4.111.064-6.159-.647-.107-1.279-.215-1.927-.313-.046 3.541-.092 7.037-.144 10.531.819.131 1.67.267 2.485.387" id="Shape" fill="#ED174C" sketch:type="MSShapeGroup"/><path d="M328.042 184.794c0 2.338-.336 26.429-.336 26.429 5.321.979 10.642 1.933 15.951 2.859.024-.736.046-1.466.081-2.202 0 0 .012-.866.024-2.261-3.573-.678-7.045-1.283-10.676-1.892l.348-26.422c-2.013-.333-3.875-.65-5.87-.957.018-2.065.052-4.111.064-6.159-.647-.107-1.279-.215-1.927-.313-.046 3.541-.092 7.037-.144 10.531.819.131 1.67.267 2.485.387" id="Shape" fill="#002D62" sketch:type="MSShapeGroup"/><path d="M208.596 171.236c-1.197.136-2.417.254-3.654.385-.566.067-1.122.131-1.689.191v1.02c2.534 1.189 2.458 4.474 2.371 10.218-.076 4.984-.145 9.796-.186 14.778-.047 1.883-.585 3.537-1.526 4.889-.26.93-.63 1.778-1.139 2.565l-.046 3.685c.85-.096 1.683-.208 2.522-.309 7.466-.866 14.325-1.55 21.079-2.043.637-.047 1.267-.086 1.885-.142.012-1.127.029-2.261.052-3.381-6.761.498-13.388 1.182-20.154 2.022.15-11.444.335-22.411.485-33.879" id="Shape" fill="#ED174C" sketch:type="MSShapeGroup"/><path d="M208.596 171.236c-1.197.136-2.417.254-3.654.385-.566.067-1.122.131-1.689.191v1.02c2.534 1.189 2.458 4.474 2.371 10.218-.076 4.984-.145 9.796-.186 14.778-.047 1.883-.585 3.537-1.526 4.889-.26.93-.63 1.778-1.139 2.565l-.046 3.685c.85-.096 1.683-.208 2.522-.309 7.466-.866 14.325-1.55 21.079-2.043.637-.047 1.267-.086 1.885-.142.012-1.127.029-2.261.052-3.381-6.761.498-13.388 1.182-20.154 2.022.15-11.444.335-22.411.485-33.879" id="Shape" fill="#002D62" sketch:type="MSShapeGroup"/><path d="M219.885 194.493c2.157-.182 5.424-.455 5.424-.455.024-.491.046-.984.081-1.465.017-.684.017-1.366.017-2.055-1.793.119-3.58.299-5.478.493.001 1.176-.033 2.333-.044 3.482" id="Shape" fill="#ED174C" sketch:type="MSShapeGroup"/><path d="M219.885 194.493c2.157-.182 5.424-.455 5.424-.455.024-.491.046-.984.081-1.465.017-.684.017-1.366.017-2.055-1.793.119-3.58.299-5.478.493.001 1.176-.033 2.333-.044 3.482" id="Shape" fill="#002D62" sketch:type="MSShapeGroup"/><path d="M226.42 176.386c-2.082.16-4.129.338-6.269.545-.034 1.204-.058 2.405-.069 3.616 2.961-.232 8.438-.678 8.438-.689l.018-.148c-1.203.058-2.175.118-2.175.118l.058-3.441" id="Shape" fill="#ED174C" sketch:type="MSShapeGroup"/><path d="M226.42 176.386c-2.082.16-4.129.338-6.269.545-.034 1.204-.058 2.405-.069 3.616 2.961-.232 8.438-.678 8.438-.689l.018-.148c-1.203.058-2.175.118-2.175.118l.058-3.441" id="Shape" fill="#002D62" sketch:type="MSShapeGroup"/><path d="M228.612 176.212l-2.192.174-.058 3.441s.972-.06 2.175-.118c.012-.435.029-.873.052-1.307.022-.73.022-1.46.022-2.191" id="Shape" fill="#ED174C" sketch:type="MSShapeGroup"/><path d="M228.612 176.212l-2.192.174-.058 3.441s.972-.06 2.175-.118c.012-.435.029-.873.052-1.307.022-.73.022-1.46.022-2.191m.001.001l-2.192.174-.058 3.441s.972-.06 2.175-.118c.012-.435.029-.873.052-1.307.022-.73.022-1.46.022-2.191" id="Shape" fill="#002D62" sketch:type="MSShapeGroup"/><path d="M193.653 181.572v-.072c0-.449-.122-.979-.306-1.06-.184-.05-.647-.017-1.961.206-.076 6.647-.15 13.008-.255 19.645.827-.182 1.538-.249 2.371-.397.029-3.323.186-7.417.22-11.036.034-3.477.115-6.284-.034-7.217l-.035-.069" id="Shape" fill="#ED174C" sketch:type="MSShapeGroup"/><path d="M193.653 181.572v-.072c0-.449-.122-.979-.306-1.06-.184-.05-.647-.017-1.961.206-.076 6.647-.15 13.008-.255 19.645.827-.182 1.538-.249 2.371-.397.029-3.323.186-7.417.22-11.036.034-3.477.115-6.284-.034-7.217l-.035-.069" id="Shape" fill="#002D62" sketch:type="MSShapeGroup"/><path d="M197.493 206.522c-6.211.929-12.092 1.964-18.332 3.143.15-9.167.277-17.913.382-27.039-1.736.05-2.944-.296-3.909-.979-1.354-1.003-1.509-2.448-1.509-3.274 0-.296.029-.539.029-.588.115-.38.127-.73.232-1.145-1.307.237-2.603.487-3.898.73-.416.096-.838.17-1.237.256l-.382 2.153-.035.208-.046.57c-.024 2.402 1.22 3.84 2.221 4.592.943.681 1.989 1.031 3.146 1.211-.029 2.831-.353 27.352-.353 27.352.919-.186 1.832-.356 2.77-.533 6.35-1.228 12.144-2.19 18.165-3.061 3.661-.571 6.442-2.309 8.039-4.836 0-.423.018-.837.024-1.252-1.349 1.265-3.14 2.126-5.304 2.493" id="Shape" fill="#ED174C" sketch:type="MSShapeGroup"/><path d="M197.493 206.522c-6.211.929-12.092 1.964-18.332 3.143.15-9.167.277-17.913.382-27.039-1.736.05-2.944-.296-3.909-.979-1.354-1.003-1.509-2.448-1.509-3.274 0-.296.029-.539.029-.588.115-.38.127-.73.232-1.145-1.307.237-2.603.487-3.898.73-.416.096-.838.17-1.237.256l-.382 2.153-.035.208-.046.57c-.024 2.402 1.22 3.84 2.221 4.592.943.681 1.989 1.031 3.146 1.211-.029 2.831-.353 27.352-.353 27.352.919-.186 1.832-.356 2.77-.533 6.35-1.228 12.144-2.19 18.165-3.061 3.661-.571 6.442-2.309 8.039-4.836 0-.423.018-.837.024-1.252-1.349 1.265-3.14 2.126-5.304 2.493" id="Shape" fill="#002D62" sketch:type="MSShapeGroup"/><path d="M202.795 204.031l-.024 1.252c.509-.785.879-1.634 1.139-2.565-.323.482-.693.913-1.116 1.313" id="Shape" fill="#ED174C" sketch:type="MSShapeGroup"/><path d="M202.795 204.031l-.024 1.252c.509-.785.879-1.634 1.139-2.565-.323.482-.693.913-1.116 1.313m.001 0l-.024 1.252c.509-.785.879-1.634 1.139-2.565-.323.482-.693.913-1.116 1.313" id="Shape" fill="#002D62" sketch:type="MSShapeGroup"/><path d="M283.46 180.961l-.071.622v.487c-.024 1.802-.467 3.08-1.481 4.23-.039.153-.098.311-.167.469.787 1.031 1.364 2.314 1.364 3.424-.024 2.237-.046 4.395-.081 6.562.409 2.753.803 5.577 1.169 8.437 3.053 1.732 7.043 2.101 9.288 2.285l.451.034c6.188.476 10.682-.304 13.439-2.208.348-.249.672-.527.954-.814l.029-1.981c-2.343 1.206-6.004 1.637-10.873 1.278-3.95-.328-12.075-.736-12.144-7.744.11-6.319.186-12.388.254-18.707.11-4.053 2.14-6.463 6.269-7.33-.729.012-1.462.05-2.186.156-2.267.261-4.777.965-6.639 2.584.517 1.947.453 4.601.425 8.214" id="Shape" fill="#ED174C" sketch:type="MSShapeGroup"/><path d="M283.46 180.961l-.071.622v.487c-.024 1.802-.467 3.08-1.481 4.23-.039.153-.098.311-.167.469.787 1.031 1.364 2.314 1.364 3.424-.024 2.237-.046 4.395-.081 6.562.409 2.753.803 5.577 1.169 8.437 3.053 1.732 7.043 2.101 9.288 2.285l.451.034c6.188.476 10.682-.304 13.439-2.208.348-.249.672-.527.954-.814l.029-1.981c-2.343 1.206-6.004 1.637-10.873 1.278-3.95-.328-12.075-.736-12.144-7.744.11-6.319.186-12.388.254-18.707.11-4.053 2.14-6.463 6.269-7.33-.729.012-1.462.05-2.186.156-2.267.261-4.777.965-6.639 2.584.517 1.947.453 4.601.425 8.214" id="Shape" fill="#002D62" sketch:type="MSShapeGroup"/><path d="M282.95 202.779l-1.093-.038v.56c.649.765 1.457 1.383 2.337 1.892-.365-2.859-.759-5.684-1.169-8.437-.029 1.993-.056 3.98-.075 6.023" id="Shape" fill="#fff" sketch:type="MSShapeGroup"/><path d="M282.95 202.779l-1.093-.038v.56c.649.765 1.457 1.383 2.337 1.892-.365-2.859-.759-5.684-1.169-8.437-.029 1.993-.056 3.98-.075 6.023" id="Shape" fill="#002D62" sketch:type="MSShapeGroup"/><path d="M299.068 195.325c.149.06.296.06.439.05.127-.411.086-.849.127-1.33.041-4.439.116-8.652.145-13.096.027-1.663 0-3.132-.215-3.72 0-.079-.162-.225-1.411-.368l-.335.012c-.11.696-.145 1.4-.196 2.19v.764c-.064 4.474-.11 8.77-.169 13.242v.599c-.051.51 0 1.061.255 1.31.191.187.607.324 1.359.347" fill="#ED174C" sketch:type="MSShapeGroup"/><path d="M299.068 195.325c.149.06.296.06.439.05.127-.411.086-.849.127-1.33.041-4.439.116-8.652.145-13.096.027-1.663 0-3.132-.215-3.72 0-.079-.162-.225-1.411-.368l-.335.012c-.11.696-.145 1.4-.196 2.19v.764c-.064 4.474-.11 8.77-.169 13.242v.599c-.051.51 0 1.061.255 1.31.191.187.607.324 1.359.347" fill="#002D62" sketch:type="MSShapeGroup"/><path fill="#ED174C" sketch:type="MSShapeGroup" d="M281.637 186.611l.105.16c.069-.16.128-.316.167-.469l-.272.309"/><path fill="#002D62" sketch:type="MSShapeGroup" d="M281.637 186.611l.105.16c.069-.16.128-.316.167-.469l-.272.309m0 0l.105.16c.069-.16.128-.316.167-.469l-.272.309"/><path fill="#fff" sketch:type="MSShapeGroup" d="M281.383 202.713c.139.208.301.404.473.588v-.56c-.161-.024-.311-.024-.473-.029"/><path fill="#002D62" sketch:type="MSShapeGroup" d="M281.383 202.713c.139.208.301.404.473.588v-.56c-.161-.024-.311-.024-.473-.029m0 .001c.139.208.301.404.473.588v-.56c-.161-.024-.311-.024-.473-.029"/><path d="M308.356 202.509l-.029 1.981c.954-.924 1.567-2.046 1.81-3.317-.468.512-1.053.957-1.781 1.335" fill="#ED174C" sketch:type="MSShapeGroup"/><path d="M308.356 202.509l-.029 1.981c.954-.924 1.567-2.046 1.81-3.317-.468.512-1.053.957-1.781 1.335m0 .001l-.029 1.981c.954-.924 1.567-2.046 1.81-3.317-.468.512-1.053.957-1.781 1.335" fill="#002D62" sketch:type="MSShapeGroup"/><path d="M272.998 181.981c.11-1.541.174-1.512.15-4.361.098-3.702-1.029-3.572-3.713-3.661-.636 0-1.283.005-1.832-.035-.052 3.221-.098 6.284-.128 9.511 1.279.018 2.643.047 3.915.073 1.024.035 1.609-.814 1.609-1.527m-1.666-.017v.035c0 .072 0 .148-.081.22-.718-.029-1.4-.064-2.111-.052.029-2.338.029-4.587.071-6.908l.225.024h.196c.636-.005 1.389.024 1.573.142.046.034.311.328.266 1.912v1.484c-.024 1.483 0 1.738-.105 2.701l-.034.443m-13.869-13.928v.299c-.15 11.32-.341 22.172-.485 33.523 3.96-.064 7.865-.041 11.861.052.069-4.549.11-8.868.191-13.426h.226c2.757.081 2.677 1.162 2.677 1.529-.034.996 0 3.922.081 5.322l.029.672c.029 1.95.11 2.182.226 2.326.774 2.3 2.891 3.738 6.205 4.241l.247.041h.076c.874.041 1.729.072 2.586.096.162.005.313.005.473.029.348.005.718.024 1.093.038.018-2.043.046-4.03.076-6.023.034-2.166.058-4.325.081-6.562 0-1.11-.577-2.393-1.364-3.424l-.105-.16.272-.311c1.012-1.149 1.457-2.428 1.481-4.23v-.487l.071-.622c.027-3.613.092-6.267-.422-8.214-.613-2.242-1.989-3.517-5.042-4.146-.394-.089-.798-.165-1.267-.232l-.11-.029h-.086l-4.07-.136c-5.029-.139-9.969-.201-15-.165m19.037 1.601c5.164.678 5.407 2.245 5.285 11.209v.653l-.046.481c0 1.924-.485 3.158-2.157 4.473.086.142.232.258.358.362.861.991 1.462 2.338 1.545 3.347-.082 3.815-.128 7.425-.162 11.281-.821-.06-1.579-.089-2.412-.119-2.522-.333-4.342-1.312-5.049-3.271-.11-.284-.186-2.029-.186-2.029 0-.474-.127-4.728-.127-5.988.034-1.998-1.92-2.752-4.297-2.848-.654-.029-1.21-.029-1.857-.063-.081 4.587-.11 8.918-.186 13.419-2.84-.024-5.632-.007-8.582-.024.156-10.566.311-20.653.463-31.196 5.853.012 11.544.084 17.408.313m47.654 36.704c.37.05.712.096 1.065.157.122-7.489.232-14.752.335-22.091.052-3.495.098-6.99.144-10.531l.018-.909c-.573-.041-1.099-.124-1.613-.22-3.406-.461-6.599-.924-9.959-1.338v.789c-.15 11.079-.341 21.682-.492 32.763 3.568.389 7.003.87 10.502 1.38m-8.391-33.438c2.821.355 5.478.723 8.299 1.144-.15 10.445-.277 20.466-.416 30.935-2.834-.397-5.505-.764-8.34-1.12.166-10.476.313-20.501.456-30.959m-63.734 1.641c.468-.208.914-.459 1.283-.76.313-.237.556-.491.787-.747 1.192-1.376 1.341-2.938 1.341-3.537v-.225c0-.307-.012-.634-.058-.942 0-.101 0-.191-.034-.266l-1.526-.005c-7.53.113-14.551.397-21.953.873v.034c-.029 2.422-.069 4.745-.105 7.138 2.001-.144 3.921-.254 5.934-.38-.127 9.088-.237 17.71-.353 26.807 3.58-.249 7.16-.388 10.791-.493.347-.014.7-.031 1.07-.038.133-8.091.243-15.92.358-23.971.012-.936.029-1.869.047-2.831.866-.097 1.677-.329 2.417-.657m-4.078-.582c-.093 9.062-.225 17.724-.37 26.812-2.909.084-5.627.203-8.57.338.11-9.053.237-17.705.375-26.764-2.042.122-3.962.194-5.956.342.029-1.548.029-3.031.076-4.549 6.865-.423 13.434-.683 20.276-.763-.001-.004.404 4.672-5.831 4.583m85.483 7.343l-.348 26.422c3.631.608 7.102 1.215 10.676 1.892.37.052.73.131 1.117.194.086-7.79.208-15.288.318-23.02.024-1.162.034-2.3.034-3.47 1.469.173 2.677-.017 3.69-.556.353-.215.629-.464.879-.718 1.075-1.103 1.209-2.524 1.209-3.08v-.244c-.052-.429-.052-.797-.052-1.204-.526-.113-.994-.232-1.55-.345-7.322-1.518-14.401-2.776-21.779-3.891v.907c-.012 2.048-.046 4.094-.064 6.159 1.996.303 3.858.62 5.871.953m-4.171-6.475c6.807 1.058 13.295 2.245 20.143 3.639 0 0 .306 4.728-5.784 3.334-.115 8.906-.271 17.456-.381 26.417-2.892-.565-5.68-1.034-8.483-1.51.098-8.923.208-17.473.323-26.408-1.995-.339-3.869-.689-5.869-.991l.051-4.482m-102.842 1.557l2.192-.174c.377-.024.74-.046 1.105-.081 0-2.35.046-4.652.081-7.048v-.012l-.289.018c-.428.029-.897.079-1.335.101-.555.041-1.104.086-1.648.136-6.014.487-11.808 1.055-17.928 1.756v.153c-.15 11.469-.335 22.435-.487 33.88 6.766-.84 13.393-1.524 20.154-2.022l1.087-.084c.029-2.436.076-4.806.076-7.292-3.174.273-6.269.522-9.589.844.012-.693.024-1.376.047-2.067.012-1.149.046-2.306.046-3.482 1.897-.194 3.685-.373 5.478-.493.364-.034.74-.046 1.116-.069.029-3.118.069-6.035.105-9.097-2.18.131-4.303.339-6.558.56 0-.464 0-.904.012-1.366.012-1.211.034-2.41.069-3.616 2.137-.208 4.184-.387 6.266-.546m-7.917-.612c-.052 2.582-.052 5.061-.105 7.605 2.204-.235 4.384-.426 6.558-.596l-.093 6.466c-2.191.16-4.332.368-6.575.594-.041 2.776-.076 5.412-.105 8.181 3.32-.355 6.408-.605 9.577-.854l-.034 4.647c-3.025.237-5.887.487-8.906.799-3.134.304-5.956.6-9.046.967.15-10.603.289-20.778.451-31.387 6.026-.696 11.884-1.229 17.916-1.687l-.081 4.444c-3.168.263-6.256.512-9.559.822m-44.377 2.6c0 .826.156 2.271 1.509 3.274.965.683 2.175 1.029 3.909.979-.105 9.126-.232 17.872-.382 27.039 6.24-1.178 12.122-2.213 18.332-3.143 2.163-.368 3.955-1.229 5.304-2.491.422-.4.791-.831 1.116-1.312.943-1.352 1.481-3.006 1.526-4.889.041-4.984.11-9.796.186-14.778.086-5.745.162-9.031-2.371-10.218-1.087-.505-2.632-.634-4.858-.397h-.024c-8.194 1.194-15.932 2.538-23.988 4.149v.058c-.105.414-.115.764-.232 1.145 0 .046-.029.288-.029.584m1.689-.748c7.674-1.512 14.926-2.759 22.502-3.862 6.107-.708 5.801 1.417 5.662 10.509-.086 4.664-.157 9.105-.203 13.752-.186 3.981-2.596 6.556-6.252 7.197-5.684.814-11.029 1.759-16.701 2.807.144-9.091.26-17.806.375-26.896-6.211.891-5.384-3.507-5.384-3.507m19.491 3.606s.157-1.874-1.266-2.123c-.017 0-.578-.215-4.268.522-.105 7.535-.173 14.709-.289 22.244 1.908-.301 3.685-.629 5.605-.907-.001 0 .473-16.98.218-19.736m-1.579 7.626c-.034 3.618-.191 7.712-.22 11.036-.833.148-1.545.215-2.371.397.105-6.638.179-12.999.255-19.645 1.312-.223 1.775-.254 1.961-.206.186.081.306.611.306 1.06v.072l.035.069c.149.933.068 3.74.034 7.217m105.299 7.791c.654.058 1.284.052 1.933.017.3-.819.3-1.561.3-2.451.081-4.439.105-8.691.174-13.124.046-4.367-.018-5.18-3.233-5.532-.636-.052-1.139-.075-1.775-.024-.37 1.335-.405 2.74-.405 4.149-.092 4.49-.103 8.765-.186 13.283-.044 1.729-.19 3.336 3.193 3.681m-1.567-2.979v-.599c.059-4.473.105-8.77.169-13.242v-.765c.051-.792.086-1.495.196-2.19l.335-.012c1.249.142 1.411.29 1.411.368.215.588.243 2.057.215 3.72-.029 4.444-.105 8.656-.145 13.096-.039.481 0 .919-.127 1.33-.144.012-.29.012-.439-.05-.752-.024-1.169-.16-1.359-.345-.255-.25-.306-.802-.255-1.312m-11.863-16.332c-.069 6.319-.144 12.388-.254 18.707.069 7.008 8.196 7.416 12.144 7.744 4.87.359 8.529-.072 10.873-1.278.729-.38 1.313-.823 1.78-1.335.776-.847 1.215-1.904 1.262-3.149l.034-.782c.086-6.324.186-12.354.277-18.678 0-3.204-1.144-5.152-2.915-6.385-2.429-1.71-6.038-2.067-9.46-2.373-2.192-.202-4.227-.292-6.119-.037-.475.067-.902.144-1.354.237-4.131.866-6.159 3.278-6.269 7.33m8.005-6.272c1.554-.215 3.428-.16 5.695.029 6.228.56 10.699 1.058 10.746 7.269l-.233 18.684-.039.777c-.105 4.285-5.495 5.197-12.254 4.635-6.599-.56-10.444-1.675-10.515-6.331.071-6.322.145-12.342.255-18.722.156-4.355 2.684-5.916 6.345-6.341" fill="#0067B1" sketch:type="MSShapeGroup"/><path d="M258.632 200.523c2.949.017 5.742 0 8.582.024.076-4.503.105-8.834.186-13.419.647.034 1.203.034 1.857.063 2.377.096 4.332.849 4.297 2.848 0 1.259.127 5.513.127 5.988 0 0 .076 1.744.186 2.029.706 1.958 2.528 2.938 5.049 3.271.833.029 1.59.058 2.412.119.034-3.855.081-7.466.162-11.281-.082-1.009-.683-2.355-1.545-3.347-.128-.105-.272-.22-.358-.362 1.672-1.314 2.157-2.549 2.157-4.473l.046-.481v-.653c.122-8.964-.122-10.531-5.285-11.209-5.864-.229-11.555-.301-17.408-.313-.15 10.542-.307 20.63-.463 31.196m8.97-26.599c.549.041 1.197.035 1.832.035 2.684.089 3.811-.041 3.713 3.661.024 2.848-.041 2.819-.15 4.361 0 .712-.583 1.561-1.607 1.527-1.273-.026-2.637-.055-3.915-.073.029-3.228.075-6.29.127-9.511m56.459.124c-2.821-.421-5.478-.789-8.299-1.144-.144 10.458-.29 20.483-.458 30.959 2.834.356 5.505.725 8.34 1.12.14-10.469.267-20.491.417-30.935m-70.283-4.665c-6.842.079-13.41.339-20.276.763-.046 1.519-.046 3.002-.076 4.549 1.995-.148 3.916-.22 5.956-.342-.139 9.059-.266 17.711-.375 26.764 2.943-.136 5.662-.254 8.57-.338.145-9.088.277-17.751.37-26.813 6.236.088 5.831-4.588 5.831-4.583m80.977 37.328c2.804.476 5.592.945 8.483 1.51.11-8.961.266-17.511.381-26.417 6.09 1.393 5.784-3.334 5.784-3.334-6.847-1.393-13.336-2.582-20.143-3.639l-.051 4.482c2 .3 3.874.651 5.869.991-.115 8.935-.225 17.484-.323 26.408m-106.613-36.201c-6.032.457-11.891.991-17.916 1.687-.162 10.61-.301 20.784-.451 31.387 3.088-.368 5.911-.663 9.046-.967 3.019-.313 5.882-.562 8.906-.799l.034-4.647c-3.169.249-6.257.498-9.577.854.029-2.769.063-5.406.105-8.181 2.243-.225 4.384-.435 6.575-.594l.093-6.466c-2.174.17-4.354.362-6.558.596l.105-7.605c3.301-.309 6.391-.558 9.56-.819.039-1.491.039-2.97.08-4.446m-46.95 10.62c-.115 9.092-.232 17.806-.375 26.896 5.673-1.048 11.017-1.993 16.701-2.807 3.654-.641 6.066-3.216 6.252-7.197.046-4.647.115-9.088.203-13.752.139-9.092.445-11.215-5.662-10.509-7.576 1.103-14.828 2.35-22.502 3.862 0 .001-.828 4.399 5.384 3.507m8.57-1.501c3.69-.736 4.251-.522 4.268-.522 1.423.249 1.266 2.123 1.266 2.123.255 2.756-.22 19.736-.22 19.736-1.92.278-3.695.605-5.605.907.118-7.535.187-14.709.29-22.244m97.232 16.497c.071 4.656 3.916 5.771 10.515 6.331 6.76.562 12.15-.351 12.254-4.635l.039-.777.233-18.684c-.047-6.212-4.518-6.71-10.746-7.269-2.267-.189-4.141-.244-5.695-.029-3.661.426-6.188 1.988-6.345 6.341-.11 6.379-.184 12.4-.255 18.722m8.831-3.158c.082-4.52.093-8.793.186-13.283 0-1.409.034-2.814.405-4.149.636-.052 1.139-.029 1.775.024 3.215.351 3.279 1.165 3.233 5.532-.069 4.432-.093 8.685-.174 13.124 0 .89 0 1.632-.3 2.451-.647.034-1.279.041-1.933-.017-3.384-.346-3.239-1.954-3.193-3.681" fill="#fff" sketch:type="MSShapeGroup"/><path d="M168.935 254.766v-32.521c-1.134.177-2.295.333-3.453.522-7.084 1.046-13.955 2.202-21.091 3.477v.333c.046 26.113-.081 51.188.127 77.302 8.137-1.407 16.054-2.705 24.185-3.882l.232-.047v-45.183zm-3.452 42.739c-5.921.915-11.583 1.768-17.557 2.815l-.076-71.757c5.968-1.081 11.711-1.941 17.633-2.841v71.783zm53.569-80.35l-.578.029c-11.288.706-25.376 2.054-28.337 2.439-.243.034-.521.107-.787.107l-.196.024c-1.121.136-2.18.35-3.181.622l-.064.024c-5.21 1.455-8.634 4.757-9.641 9.439 0 .56-.203 1.13-.203 1.732v-.267c-.215 1.376-.515 5.994-.515 10.462 0 3.364.162 6.438.914 8.164 3.134 6.956 9.935 8.694 15.678 9.667.196 0 .364.034.555.064 0 .081.215.081.277.076l.122 22.481c-2.615.3-5.147.591-7.674.857-2.493.307-4.968.615-7.454.961l-.179.025-.284.034.093 14.544c7.848-1.02 15.314-1.814 23.364-2.544h.035c9.16-1.06 16.875-4.397 16.875-15.887 0-5.812.081-10.574.081-14.735 0-3.87 0-6.936-.046-9.277-.034-2.127-.081-3.661-.144-4.664-.243-2.61-1.648-4.597-4.344-6.284-.914-.6-1.914-1.139-3.482-1.692-.96-.409-2.053-.748-3.204-1.122-.162-.041-.353 0-.353-.124-.781-.256-1.498-.493-2.175-.736-3.516-1.275-5.662-2.503-5.691-5.214v-1.684c4.055-.417 7.975-.756 11.989-1.046 4.256-.38 7.368-2.213 9.496-5.547 1.364-2.202 1.839-4.201 1.839-4.764l.046-.072v-.119c0-.51.081-1.038.081-1.642l-.081-1.799-.237-2.694h-.041c-.935.067-1.699.118-2.554.163m-.613 5.973s-.289 1.84-1.445 3.685c-1.324 1.904-3.007 3.512-6.489 3.862-5.187.402-10.224.814-15.447 1.376v4.647c.243 5.209 5.025 6.858 9.797 8.396 1.156.373 2.331.754 3.477 1.194 1.133.383 2.013.902 2.972 1.393 1.723 1.12 2.811 2.321 3.002 4.302.37 5.401.162 29.453.133 29.492 0 .516-.232 3.175-.683 4.242-2.105 4.931-6.911 6.466-12.861 7.294-6.899.567-13.162 1.385-19.901 2.254l-.034-8.656c5.385-.713 10.415-1.275 15.597-1.763l-.127-26.868c-.358-.632-1.046-.864-1.614-1.043-.59-.156-1.278-.197-1.67-.261-6.333-1.02-11.069-2.785-13.429-8.184-1.44-3.625-.191-17.19-.191-17.365 0 0-.086-.505.11-1.211 1.001-4.302 4.408-6.71 9.774-7.229.254-.142.578-.069.81-.142 3.683-.455 23.016-2.111 28.222-2.402.207.708.207 1.823-.003 2.984m172.616 6.75c-7.552-1.579-14.845-2.998-22.422-4.296v16.56c-.167-.634-.369-1.127-.538-1.727-1.545-4.285-3.764-7.655-6.315-10.308-.289-.296-.59-.579-.885-.864-5.926-5.644-13.358-7.66-18.598-7.976-.759-.041-1.475-.06-2.153-.041 0 0-1.81.005-2.752.041v77.339c8.056 1.009 16.025 2.127 24.053 3.441v-18.252c3.654 8.913 8.015 19.636 8.015 19.636 8.095 1.421 15.707 2.88 23.577 4.584v-77.723c-.676-.136-1.318-.273-1.983-.414zm-1.481 74.454c-5.933-1.24-11.578-2.359-17.72-3.441-4.608-11.502-9.207-22.447-13.811-33.838v31.469c-5.951-.899-11.271-1.692-17.245-2.469l.041-71.858s17.57-.763 23.936 16.482c2.118 6.26 3.997 12.246 5.894 18.461.602 1.548.833 2.967 1.405 4.467v-34.468c5.922 1.092 11.538 2.17 17.5 3.41v71.786h.001zm31.449-49.831v-1.726c4.008 1.092 7.964 2.144 11.97 3.221 4.049 1.123 7.223.452 9.305-2.012 1.567-1.584 2.18-4.351 2.18-4.427l-.005-.895-.052-1.431c-.058-1.301-.144-2.582-.144-3.862v-.029c-.306-.096-.62-.191-.914-.292-.735-.239-1.462-.498-2.192-.718l-.323-.113c-7.888-2.373-19.328-5.345-25.238-6.853-2.146-.545-3.563-.89-3.81-.967l.075.005h.035l-.186-.034c-7.195-1.721-11.803.588-12.961 5.702 0 .571-.803 7.145-.723 11.725.059 3.308.15 6.454.926 8.43 3.129 8.095 9.946 12.29 15.672 15.257l.555.261c.082.041.29.069.29.162.208 2.318.127 18.044.127 22.539-2.284-.544-4.464-1.065-6.633-1.563-2.949-.696-5.864-1.368-8.918-2.103v14.579c8.044 1.79 15.332 3.585 23.406 5.695l.027.029c8.502 1.836 13.87.197 16.402-4.676.428-.835.509-1.953.509-1.953v-.11c0-2.909.086-8.713.093-14.781v-.73c0-5.626-.047-11.015-.174-14.324l-.034-.864c-.018-.464-.052-.881-.071-1.229-.208-2.701-1.602-5.167-4.285-7.782-.977-.951-1.932-1.849-3.499-2.892-.965-.752-2.123-1.472-3.078-2.212-.122-.076-.369-.22-.485-.337-.965-.672-1.874-1.297-2.677-1.888-3.24-2.372-5.17-4.284-5.17-6.804m6.321 10.975c1.163.765 2.318 1.577 3.492 2.405.955.816 1.995 1.616 2.963 2.462 1.74 1.726 2.804 3.35 3.012 5.321.324 5.372.15 29.719.15 31.821 0 0 .046.481-.358 1.043-1.908 4.3-5.956 5.556-13.225 3.565-6.703-1.837-13.197-3.333-19.877-4.903v-8.668c5.17 1.206 10.364 2.411 15.552 3.755l-.133-26.938c-.394-.683-1.023-1.16-1.631-1.582-.566-.342-1.283-.632-1.636-.852-6.345-3.267-11.122-6.721-13.434-12.938-1.445-4.12-.243-17.272-.243-17.449 0 0 .007-.421.15-1.134 1.011-3.963 4.373-5.128 9.785-3.781.208 0 22.785 5.916 28.91 7.715l.122 3.006c0 .452-.602 1.941-1.572 3.292-1.366 1.307-3.1 2.314-6.374 1.419-5.164-1.419-10.26-2.769-15.423-4.082v4.688c-.003 5.182 5.161 8.614 9.772 11.835m-150.861-46.419c0-.974 0-1.869-.201-2.812-.96 0-2.07-.076-3.24-.076-14.48-.311-28.325-.168-42.656.469-1.278.052-2.539.105-3.811.177v16.327c4.239-.225 8.177-.409 12.589-.516v61.475c8.449-.29 16.622-.37 25.098-.29v-61.643c3.078-.29 5.726-1.234 7.854-2.922 1.7-1.438 2.73-3.106 3.384-4.671.861-2.137.982-4.094.982-5.037v-.481h.001zm-15.678 10.224v61.569c-6.13-.075-12.063 0-18.2.181v-61.477c-4.216.113-8.172.22-12.579.452v-10.379c14.551-.718 28.419-.832 43.015-.493.001 0 .997 10.815-12.236 10.147zm-187.125 14.703c-.763.967-1.041 2.158-1.082 3.433.041 2.219.879 4.458 1.435 5.401 1.18 1.837 3.898 4.195 10.069 3.222v61.669c8.402-2.386 16.748-4.41 25.151-6.391l.029-.007v-31.031c4.609-1.09 9.011-2.086 13.591-3.072 10.369-2.318 16.402-9.069 16.476-19.174v-1.141l.034-1.414c0-10.926.093-18.133-2.522-22.045-.115-.194-.243-.38-.382-.533l-.081-.102-.347-.402-.069-.052c-.128-.142-.277-.275-.416-.406l-.012-.005c-2.07-1.773-5.268-2.397-10.19-1.921l-.729.113-.144.005-.093.029-1.232.244c-.093.034-.196.058-.313.064-1.579.351-3.146.701-4.702 1.063-.296.052-.607.124-.896.191-2.337.516-4.645 1.055-6.94 1.587-.919.22-1.822.44-2.724.66l-.827.194c-2.174.531-4.342 1.064-6.512 1.62-2.18.548-4.39 1.11-6.57 1.687l-1.023.261c-5.922 1.579-11.908 3.245-17.969 5.015-.404.432-.658.819-1.011 1.241m2.492 1.304c16.274-4.723 31.906-8.698 48.226-12.223 10.814-1.077 11.538 2.173 11.538 22.975l-.046 1.535v1.13c-.035 8.872-5.123 13.785-13.018 15.54-5.743 1.282-11.259 2.515-17.043 3.888v31.035c-6.13 1.426-12.144 2.996-18.268 4.642-.203-20.744-.046-40.722-.046-61.513-13.227 3.853-11.343-7.008-11.343-7.008m41.159 21.651l.122-1.153c.191-3.817.122-12.52.122-12.52l-.047-2.474c0-.895-.024-1.715-.196-2.51-.595-1.651-1.751-2.778-4.442-2.474-.972.115-1.961.33-3.331.668-1.312.232-2.643.571-4.008.902v22.447c3.284-.828 6.293-1.536 9.542-2.254.759-.215 1.482-.41 2.239-.632m-8.333-.932v-16.451c.358-.113.723-.148 1.134-.261.752-.107 1.555-.267 2.314-.452.96-.147 1.163.029 1.573.933 0 .487.075 13.148.075 15.06-1.73.375-3.373.754-5.096 1.17" fill="#0067B1" sketch:type="MSShapeGroup"/><path d="M147.925 300.32c5.973-1.048 11.636-1.9 17.557-2.815v-71.783c-5.921.902-11.664 1.761-17.633 2.841.001 24.285.076 47.479.076 71.757m42.293-77.773c-.232.072-.556 0-.81.142-5.367.519-8.774 2.926-9.774 7.229-.196.706-.11 1.211-.11 1.211 0 .177-1.249 13.742.191 17.365 2.36 5.401 7.096 7.164 13.429 8.184.392.064 1.082.105 1.67.261.568.18 1.254.41 1.614 1.043l.127 26.868c-5.181.488-10.213 1.05-15.597 1.763l.034 8.656c6.737-.869 13.001-1.687 19.901-2.254 5.95-.83 10.757-2.364 12.861-7.294.451-1.067.683-3.727.683-4.242.029-.039.237-24.093-.133-29.492-.191-1.981-1.279-3.181-3.002-4.302-.96-.493-1.839-1.01-2.972-1.393-1.144-.44-2.319-.819-3.477-1.194-4.77-1.539-9.553-3.187-9.797-8.396v-4.647c5.223-.562 10.26-.974 15.447-1.376 3.482-.351 5.165-1.959 6.489-3.862 1.156-1.845 1.445-3.685 1.445-3.685.208-1.161.208-2.276 0-2.984-5.203.29-24.536 1.947-28.219 2.402" fill="#fff" sketch:type="MSShapeGroup"/><path d="M306.077 217.071l-.034-.005c-5.644-.391-9.519-.333-12.908.225-1.364.225-2.643.522-3.84.883-8.257 2.51-12.312 8.312-12.394 17.635v43.373c.11 15.592 15.528 16.798 25.735 17.592 12.666.811 21.033-.869 25.626-5.121 2.62-2.445 3.985-5.644 4.036-9.485l.047-1.848v-43.353c-.035-4.207-.84-7.468-2.141-10.038-4.274-8.278-14.325-9.093-24.127-9.857zm22.74 63.248l-.041 1.795c-.122 9.885-11.433 12.064-25.867 11.125-14.019-1.089-22.404-3.338-22.48-14.058v-43.332c.076-10.055 5.361-13.759 13.267-15.071 3.448-.556 7.293-.533 12.105-.194 13.267 1.048 22.884 1.993 23.017 16.381v43.353h-.001zm-25.302-49.464c-1.121-.151-2.156-.072-3.279-.043-.208.191-.364.338-.613.457-.399 1.46-.647 3.031-.647 4.723-.196 1.608-.076 3.25-.076 4.568v30.765c-.156 4.078-.076 7.856 7.109 8.454 1.117.051 2.318.161 3.637.051.237-.144.409-.278.607-.464.203-.927.203-1.749.394-2.689l.086-2.664v-30.42c0-10.109-.046-12.102-7.217-12.738zm3.702 43.159s-.076 1.854-.076 2.276h-.201l-.678-.029c-3.354-.278-3.869-.869-3.869-3.198 0-.464 0-.997.041-1.611v-30.892l-.041-1.179v-1.228c0-.6.029-1.182.086-1.721l.034-.215v-.225c0-.556.046-1.11.122-1.654.133 0 .272 0 .411.029h.069l.092.012c1.445.124 3.204.373 3.453.854.556 1.12.556 4.478.556 8.361v30.419h.001z" fill="#0067B1" sketch:type="MSShapeGroup"/><path d="M305.8 220.585c-4.812-.339-8.657-.362-12.105.194-7.905 1.312-13.191 5.015-13.267 15.071v43.332c.076 10.72 8.461 12.969 22.48 14.058 14.435.94 25.747-1.24 25.867-11.125l.041-1.795v-43.353c-.132-14.388-9.751-15.331-23.016-16.381zm4.932 53.43l-.086 2.664c-.191.94-.191 1.763-.394 2.689-.196.186-.37.318-.607.464-1.32.11-2.522 0-3.637-.051-7.183-.598-7.264-4.376-7.109-8.454v-30.765c0-1.318-.122-2.96.076-4.568 0-1.692.249-3.262.647-4.723.249-.119.405-.267.613-.457 1.122-.029 2.157-.107 3.279.043 7.172.634 7.219 2.628 7.219 12.739v30.419h-.001zm61.342-10.412c-.573-1.502-.803-2.921-1.405-4.467-1.897-6.214-3.776-12.201-5.894-18.461-6.366-17.245-23.936-16.482-23.936-16.482l-.041 71.858c5.973.777 11.294 1.57 17.245 2.469v-31.469c4.604 11.391 9.201 22.336 13.811 33.838 6.142 1.082 11.787 2.202 17.72 3.441v-71.786c-5.963-1.24-11.578-2.318-17.5-3.41v34.468h-.001zm45.496-9.964v-4.688c5.164 1.312 10.26 2.663 15.423 4.082 3.274.895 5.008-.113 6.374-1.419.971-1.35 1.572-2.84 1.572-3.292 0-1.013-.122-2.034-.122-3.006-6.125-1.799-28.701-7.715-28.91-7.715-5.414-1.347-8.774-.182-9.785 3.781-.144.713-.15 1.134-.15 1.134 0 .177-1.203 13.329.243 17.449 2.314 6.217 7.09 9.671 13.434 12.938.353.22 1.07.511 1.636.852.608.422 1.237.899 1.631 1.582l.133 26.938c-5.187-1.343-10.381-2.549-15.552-3.755v8.668c6.68 1.57 13.174 3.065 19.877 4.903 7.27 1.993 11.316.736 13.225-3.565.405-.562.358-1.043.358-1.043 0-2.102.174-26.451-.15-31.821-.208-1.971-1.273-3.593-3.012-5.321-.967-.847-2.006-1.646-2.963-2.462-1.173-.828-2.329-1.639-3.492-2.405-4.608-3.221-9.772-6.653-9.772-11.835m-187.54-34.016v10.378c4.407-.232 8.363-.339 12.579-.452v61.477c6.136-.181 12.07-.254 18.2-.181v-61.569c13.231.67 12.236-10.146 12.236-10.146-14.596-.338-28.464-.225-43.015.493" fill="#fff" sketch:type="MSShapeGroup"/><path d="M87.515 252.292c0 20.791-.157 40.769.046 61.513 6.124-1.646 12.139-3.216 18.268-4.642v-31.035c5.784-1.373 11.301-2.607 17.043-3.888 7.895-1.756 12.983-6.669 13.018-15.54v-1.13l.046-1.535c0-20.803-.723-24.053-11.538-22.975-16.321 3.525-31.952 7.501-48.226 12.223.001 0-1.883 10.861 11.343 7.008zm18.038-4.914c1.364-.33 2.696-.668 4.008-.902 1.371-.338 2.36-.553 3.331-.668 2.689-.304 3.845.822 4.442 2.474.174.794.196 1.613.196 2.51l.047 2.474s-.047 8.036-.122 12.52l-.122 1.153c-.757.221-1.481.417-2.238.632-3.25.718-6.257 1.426-9.542 2.254v-22.447h-.001z" fill="#fff" sketch:type="MSShapeGroup"/></g></svg>