<svg width="512" height="512" viewBox="0 0 512 512" version="1.1" xmlns="http://www.w3.org/2000/svg" xmlns:sketch="http://www.bohemiancoding.com/sketch/ns"><title>oklahoma-city-thunder</title><desc>Created with Sketch.</desc><g sketch:type="MSShapeGroup" stroke="none" stroke-width="1" fill="none"><path d="M137.072 228.823l10.085-4.909-42.563-86.929 10.088-4.893-4.919-10.058-30.259 14.708 4.916 10.049 10.097-4.897 42.554 86.929zm22.385-10.922l10.674-3.46-14.999-45.986 10.674-3.46 14.999 45.994 10.678-3.452-33.47-102.622-10.669 3.455 14.996 45.995-10.674 3.455-15.001-45.991-10.678 3.455 33.47 102.616zm56.404-123.901l-11.096 1.745 15.19 95.524-11.09 1.745-15.181-95.522-11.091 1.758 14.452 90.895c1.45 9.106 10.126 15.383 19.265 13.938 9.137-1.438 15.438-10.085 13.998-19.191l-14.447-90.892zm23.643 105.82l11.226.188.544-31.272c.168-9.52-.402-28.721-.856-37.805l.303.009c2.918 24.084 8.282 46.545 11.838 69.276l10.606.19 1.898-107.887-11.22-.188-.548 31.267c-.163 9.525.407 28.734.845 37.801l-.296-.005c-2.921-24.075-8.288-46.541-11.831-69.267l-10.619-.194-1.891 107.887zm41.904.802l22.184 3.496c6.141.973 11.861-3.173 12.838-9.296l13.433-84.474c.965-6.127-3.185-11.83-9.335-12.801l-22.164-3.494-16.955 106.569zm26.281-93.777l11.087 1.749-13.423 84.482-11.096-1.758 13.433-84.472zm78.963 8.673l-21.346-6.906c-5.911-1.914-12.224 1.282-14.148 7.18l-26.534 81.343c-1.921 5.893 1.299 12.18 7.203 14.092l21.355 6.91 3.465-10.632-21.352-6.915 11.534-35.354 16.02 5.184 3.459-10.626-16.007-5.193 11.521-35.354 21.366 6.912 3.464-10.641zm-28.43 104.908l47.614-97.243 20.213 9.834c5.614 2.724 7.919 9.406 5.191 14.99l-17.539 35.834c-2.273 4.628-6.203 6.598-10.63 4.442l-12.039 48.084-10.117-4.915 12.047-48.096-3.282-1.596-21.343 43.578-10.114-4.912zm52.78-82.248l-16.397 33.503 10.119 4.918 16.4-33.506-10.122-4.915z" fill="#1E3160"/><path d="M145.546 378.396c-1.142-.089-2.248-.286-3.344-.57-11.306-4.896-5.443-16.577-2.071-24.189 4.365-9.775 8.845-19.503 13.457-29.174-24.459 7.626-48.277 15.631-71.337 23.978-5.781 2.446-9.296-1.412-2.623-5.334 23.429-14.853 49.314-28.407 77.203-40.286-6.817-14.188-12.291-29.353-16.332-45.564l-3.194-12.822c40.505-20.778 74.739-32.26 120.738-32.26 45.988.005 80.226 11.487 120.734 32.265-.756 3.08-1.544 6.152-2.363 9.22 20.147-.701 39.77-.295 58.647 1.168 4.521.309 4.521 5.488.185 5.942-20.992 2.955-42.367 6.383-64.027 10.298-1.349 4.139-2.783 8.19-4.291 12.165 23.102-4.888 45.746-8.185 67.663-9.917 5.637-.512 5.707 4.866 1.124 5.839-25.634 7.833-51.746 16.503-78.177 26.002-22.492 46.348-55.506 77.36-99.498 103.634-19.549-11.69-37.375-24.661-53.729-40.494-36.128 16.81-70.718 34.392-103.473 52.443-4.95 3.121-9.415.413-3.442-4.866 14.783-12.992 30.878-25.55 48.15-37.478" fill="#fff"/><path d="M99.386 418.138c20.794-18.314 44.224-35.729 69.899-51.76 4.828-2.443 9.665-4.849 14.511-7.248 2.003-.982 5.921-2.878 10.846-5.232 3.303 3.702 6.732 7.299 10.283 10.798-36.873 17.139-72.16 35.03-105.539 53.442m262.738-130.808c24.847-5.5 49.197-9.168 72.703-11.032-26.051 7.955-52.591 16.785-79.477 26.466 2.403-4.985 4.642-10.134 6.774-15.435" fill="#0A7EC2"/><path d="M81.227 345.634c24.126-15.282 50.85-29.197 79.7-41.282.956 1.926 1.951 3.839 2.958 5.726-1.553 3.164-3.095 6.32-4.625 9.493-26.82 8.247-52.86 16.946-78.033 26.062m291.196-88.83c21.474-.904 42.348-.552 62.404 1.008-21.594 3.045-43.596 6.583-65.916 10.629 1.23-3.803 2.397-7.679 3.512-11.637" fill="#F05333"/><path d="M258.04 222.596c40.667 0 72.556 9.477 108.557 27.354-17.616 66.136-49.847 110.561-108.549 146.656-22.048-13.586-40.795-28.743-56.462-46.009 6.964-3.297 14.819-7.016 21.723-10.266 2.797.256 5.469.398 7.963.455-.153 3.812-1.358 6.612-3.287 8.613 1.124 1.282 2.266 2.556 3.411 3.812 3.04-2.711 4.997-6.718 5.155-12.403 7.141-.119 14.031-.842 20.434-2.205-.363 10.429-1.821 18.099-4.798 21.14-.104.093-.163.176-.209.268-.747.79-1.414 1.438-1.984 1.944 2.875-.529 5.702-1.193 8.494-1.975 3.586-7.4 3.639-20.373 3.692-22.624 6.663-1.667 12.592-3.347 17.928-5.162.209 6.088 2.65 11.904 7.317 14.047 2.102-1.472 4.141-3.042 6.115-4.668-1.181.172-8.574.683-8.459-11.146 15.621-5.871 25.788-12.945 34.739-23.502 2.363-5.319 4.268-10.899 5.623-16.673-10.712 16.824-20.573 26.653-39.832 34.353.552-3.389 1.547-7.457 3.123-12.306 5.619-2.349 11.486-5.143 15.012-6.594l8.423-8.811c2.119-8.146 4.22-16.292 6.322-24.437l-6.584 2.043 7.742-8.11c1.618-6.372 3.222-12.754 4.819-19.131-3.88.565-7.765 1.141-11.64 1.74.646-3.187 1.106-6.347 1.355-9.499-1.866-.472-3.743-.916-5.628-1.34-.399 3.544-1.089 7.471-2.142 11.848l-.538.089c-3.642.607-7.363 1.793-10.601 4.518l1.036-3.139c-6.239 1.124-12.458 2.265-18.684 3.469l-6.195 6.484.209-.526 2.009-5.187c-6.154 1.252-12.3 2.547-18.44 3.879-1.284-8.265-2.564-15.736-3.684-21.778-1.738.203-3.479.437-5.214.687 1.124 6.122 2.438 13.77 3.736 22.234l-4.348.972-5.536 5.806c-3.877-4.082-11.745-1.513-16.703-.265-5.369 1.358-10.746 2.75-16.102 4.197-1.605.44-3.199.925-4.76 1.459-4.023-5.779-7.797-11.726-10.914-18.139l-.567-1.19c-1.621.666-3.238 1.341-4.842 2.045l.688 1.424c3.036 6.265 6.696 12.127 10.639 17.809-5.782 2.565-11.127 6.127-15.757 11.208 0 0-7.526 7.851-8.403 8.812-1.957 2.238-3.644 4.615-5.126 7.043-7.9-15.846-14.166-33.08-18.862-51.955 36.005-17.88 67.904-27.375 108.587-27.366zm3.981 100.114c3.739-1.648 7.476-3.265 11.202-4.897l1.756-1.82c.74.124 1.585.151 2.536.053 1.45-.243 3.229-.74 5.167-1.41-1.257 4.57-2.013 8.515-2.366 11.954-5.319 1.882-11.291 3.641-18.082 5.351-.009-2.953-.08-6.036-.213-9.229zm-25.899 11.624l3.511-1.623 9.011-7.219 2.007-5.523c1.301 2.626 2.012 3.659 3.303 6.308l2.958-1.303c.104 2.848.156 5.612.156 8.256-6.511 1.48-13.534 2.275-20.785 2.388l-.162-1.284z" fill="#fff"/><path d="M279.949 236.132c8.602 0 17.069.449 25.439 1.349 6.353 1.326 12.658 2.931 18.905 4.808 2.384 8.313 3.668 17.094 3.668 26.166 0 7.503-.867 14.791-2.517 21.797-10.712 16.824-20.573 26.653-39.832 34.353.552-3.389 1.547-7.457 3.123-12.306 5.619-2.349 11.486-5.143 15.012-6.594l8.423-8.811c2.119-8.146 4.22-16.292 6.322-24.437l-6.584 2.043 7.742-8.11c1.618-6.372 3.222-12.754 4.819-19.131-3.88.565-7.765 1.141-11.64 1.74.646-3.187 1.106-6.347 1.355-9.499-1.866-.472-3.743-.916-5.628-1.34-.399 3.544-1.089 7.471-2.142 11.848l-.538.089c-3.642.607-7.363 1.793-10.601 4.518l1.036-3.139c-6.239 1.124-12.458 2.265-18.684 3.469l-6.195 6.484.209-.526 2.009-5.187c-6.154 1.252-12.3 2.547-18.44 3.879-1.284-8.265-2.564-15.736-3.684-21.778 9.325-1.123 18.793-1.686 28.424-1.686zm39.871 70.795c-6 13.492-15.051 25.323-26.28 34.648-1.181.172-8.574.683-8.459-11.146 15.621-5.872 25.788-12.945 34.739-23.502zm-32.395 39.317c-8.698 6.106-18.448 10.791-28.936 13.738 3.586-7.4 3.639-20.373 3.692-22.624 6.663-1.667 12.592-3.347 17.928-5.162.207 6.088 2.648 11.906 7.316 14.048zm-37.43 15.712c-2.931.538-5.918.943-8.931 1.213-3.329-3.226-6.554-6.555-9.666-9.956 3.04-2.711 4.997-6.718 5.155-12.403 7.141-.119 14.031-.842 20.434-2.205-.363 10.429-1.821 18.099-4.798 21.14-.104.093-.163.176-.209.268-.749.79-1.414 1.436-1.984 1.942zm-22.01-12.557c-2.307-2.645-4.563-5.343-6.755-8.089l2.08-.978c2.797.256 5.469.398 7.963.455-.153 3.812-1.358 6.611-3.288 8.612zm-41.34-67.882c-2.913-7.352-5.486-14.889-7.694-22.591 2.429-1.147 4.872-2.244 7.322-3.302l.688 1.424c3.036 6.265 6.696 12.127 10.639 17.809-3.878 1.721-7.556 3.886-10.955 6.659zm4.471-27.938c17.928-7.313 36.267-12.35 55.194-15.07 1.124 6.122 2.438 13.77 3.736 22.234l-4.348.972-5.536 5.806c-3.877-4.082-11.745-1.513-16.703-.265-5.369 1.358-10.746 2.75-16.102 4.197-1.605.44-3.199.925-4.76 1.459-4.023-5.779-7.797-11.726-10.914-18.139l-.567-1.192zm70.904 69.131c3.739-1.648 7.476-3.265 11.202-4.897l1.756-1.82c.74.124 1.585.151 2.536.053 1.45-.243 3.229-.74 5.167-1.41-1.257 4.57-2.013 8.515-2.366 11.954-5.319 1.882-11.291 3.641-18.082 5.351-.009-2.953-.08-6.036-.213-9.229zm-25.899 11.624l3.511-1.623 9.011-7.219 2.007-5.523c1.301 2.626 2.012 3.659 3.303 6.308l2.958-1.303c.104 2.848.156 5.612.156 8.256-6.511 1.48-13.534 2.275-20.785 2.388l-.162-1.284z" fill="#F05333"/><path d="M259.801 385.604c-17.271-11.657-32.681-25.389-45.997-40.796l7.426-3.496c2.192 2.745 4.448 5.444 6.753 8.089 1.124 1.282 2.266 2.556 3.414 3.812 9.862 10.785 20.78 20.677 32.682 29.543-1.413.961-2.836 1.909-4.279 2.848zm-81.415-95.922c-5.061-11.002-9.306-22.457-12.696-34.302 30.134-14.17 61.329-21.815 94.451-22.704 15.485.133 30.533 1.745 45.246 4.804-8.37-.9-16.839-1.353-25.434-1.353-9.636 0-19.104.564-28.427 1.688-1.741.203-3.483.44-5.209.692-18.938 2.72-37.273 7.757-55.194 15.07-1.626.666-3.246 1.341-4.849 2.045-2.449 1.058-4.891 2.155-7.32 3.302 2.205 7.702 4.781 15.239 7.691 22.591-1.67 1.358-3.275 2.874-4.796 4.549l-3.462 3.619z" fill="#FCBB30"/><path d="M140.785 246.018c38.951-19.975 73.123-30.845 117.255-30.845 44.135 0 78.313 10.869 117.237 30.845-18.082 72.606-52.617 120.69-117.237 159.278-24.378-14.553-45.685-31.603-63.399-51.393-4.925 2.349-8.838 4.239-10.846 5.232-6.097 3.015-12.195 6.061-18.265 9.142-6.852 3.473-14.452 8.749-22.344 6.704-8.621-3.731-2.94-14.179-.298-20.125 6.7-15.047 13.7-29.985 20.997-44.773-8.763-16.393-15.656-34.208-20.482-53.547l-2.617-10.518zm117.255-23.422c-40.683-.009-72.582 9.486-108.588 27.367 4.696 18.867 10.963 36.128 18.862 51.955 1.482-2.428 3.167-4.804 5.126-7.043.879-.961 8.403-8.812 8.403-8.812 4.63-5.081 9.975-8.643 15.757-11.208-3.942-5.682-7.603-11.544-10.639-17.809l-.688-1.424c1.603-.705 3.22-1.38 4.842-2.045l.567 1.19c3.117 6.413 6.891 12.361 10.914 18.139 1.562-.533 3.157-1.019 4.76-1.459 5.356-1.447 10.733-2.839 16.102-4.197 4.959-1.248 12.826-3.817 16.703.265l5.536-5.806 4.348-.972c-1.298-8.464-2.612-16.111-3.736-22.234 1.735-.252 3.476-.484 5.214-.687 1.119 6.042 2.4 13.513 3.684 21.778 6.141-1.332 12.286-2.628 18.44-3.879l-2.009 5.187-.209.526 6.195-6.484c6.224-1.202 12.445-2.345 18.684-3.469l-1.036 3.139c3.238-2.724 6.959-3.91 10.601-4.518l.538-.089c1.053-4.377 1.742-8.304 2.142-11.848 1.885.423 3.76.868 5.628 1.34-.248 3.152-.709 6.312-1.355 9.499 3.877-.6 7.761-1.177 11.64-1.74-1.597 6.377-3.199 12.76-4.819 19.131l-7.742 8.11 6.584-2.043c-2.102 8.145-4.202 16.291-6.322 24.437l-8.423 8.811c-3.526 1.451-9.393 4.245-15.012 6.594-1.576 4.849-2.571 8.918-3.123 12.306 19.259-7.7 29.12-17.529 39.832-34.353-1.355 5.774-3.261 11.354-5.623 16.673-8.951 10.557-19.118 17.63-34.739 23.502-.115 11.83 7.278 11.319 8.459 11.146-1.974 1.626-4.013 3.196-6.115 4.668-4.668-2.143-7.109-7.959-7.317-14.047-5.335 1.816-11.264 3.494-17.928 5.162-.053 2.251-.106 15.224-3.692 22.624-2.792.782-5.619 1.447-8.494 1.975.57-.506 1.236-1.154 1.984-1.944.044-.092.104-.175.209-.268 2.978-3.042 4.436-10.711 4.798-21.14-6.402 1.362-13.293 2.085-20.434 2.205-.157 5.685-2.114 9.694-5.155 12.403-1.146-1.257-2.287-2.532-3.411-3.812 1.928-2.001 3.135-4.801 3.287-8.613-2.494-.057-5.168-.199-7.963-.455-6.903 3.249-14.759 6.969-21.723 10.266 15.666 17.265 34.414 32.424 56.462 46.009 58.702-36.095 90.931-80.522 108.549-146.656-35.999-17.879-67.889-27.355-108.555-27.355zm3.981 100.114c.133 3.192.204 6.276.213 9.229 6.791-1.71 12.762-3.469 18.082-5.351.352-3.437 1.109-7.382 2.366-11.954-1.938.669-3.716 1.166-5.167 1.41-.951.096-1.797.071-2.536-.053l-1.756 1.82c-3.724 1.632-7.463 3.25-11.202 4.897zm-25.899 11.624l.159 1.282c7.251-.113 14.275-.909 20.785-2.388 0-2.645-.051-5.408-.156-8.256l-2.958 1.303c-1.292-2.649-2.003-3.68-3.303-6.308l-2.007 5.523-9.011 7.219-3.507 1.624z" fill="#1E3160"/><path d="M208.035 274.493c-9.157 2.479-17.335 6.383-23.876 13.59-3.756 4.288-6.433 9.198-8.93 14.232-7.328 14.827-14.343 29.783-21.062 44.874-1.758 3.936-7.141 13.506-1.41 15.986 6.342 1.639 14.275-3.668 19.876-6.51 6.079-3.082 12.182-6.13 18.294-9.154 10.411-5.14 19.743-11.386 26.072-21.417 2.523-4.237 4.397-8.78 6.247-13.312 3.973-9.746 8.024-19.488 12.156-29.197 1.544-3.636 4.246-8.224 3.388-12.196-1.741-5.33-10.784-2.076-14.715-1.098-5.345 1.359-10.701 2.752-16.04 4.201m-11.572 55.68c-4.843 2.152-9.666 4.32-14.491 6.532 6.998-16.164 14.257-32.219 21.836-48.145 4.237-1.335 8.49-2.654 12.761-3.948-6.939 15.096-13.631 30.283-20.106 45.561m82.849-72.377c-6.708 8.726-13.334 17.528-19.883 26.382 3.07-8.105 6.157-16.199 9.278-24.266-6.947 1.419-13.877 2.925-20.8 4.493-1.798 4.166-3.583 8.343-5.345 12.526 1.484-.414 2.989-.829 4.48-1.234-5.451 13.131-10.76 26.319-15.964 39.523-2.14 5.372-4.258 10.747-6.38 16.119 6.95-3.267 13.906-6.51 20.879-9.706 3.157-8.687 6.342-17.36 9.568-26.019 2.961 5.907 5.893 11.821 8.809 17.758 4.486-1.997 8.998-3.968 13.504-5.925-2.742-6.232-5.53-12.456-8.335-18.671 4.99-7.542 10.016-15.061 15.107-22.555 1.429-.335 2.859-.674 4.288-1.005l3.217-9.743c-4.147.749-8.29 1.52-12.421 2.322m26.916-4.588c-3.739.622-7.113 1.807-9.901 4.602-2.284 2.455-3.497 5.375-4.506 8.487-2.981 9.305-5.971 18.617-8.959 27.935-1.172 3.677-3.084 10.381 2.845 9.883 2.018-.332 3.92-1.16 5.814-1.962 5.989-2.547 11.99-5.055 18.006-7.528 1.535-5.845 3.06-11.699 4.566-17.559-3.169.987-6.313 1.988-9.482 3.002-.743 2.631-1.479 5.28-2.208 7.911-2.202.811-4.388 1.603-6.584 2.408 2.769-9.446 5.548-18.887 8.299-28.333 1.947-.423 3.893-.832 5.84-1.231l-1.375 4.97c2.836-.675 5.676-1.353 8.512-1.997 1.084-4.251 2.163-8.514 3.225-12.768-4.696.686-9.405 1.409-14.093 2.18" fill="#fff"/><path d="M331.499 244.568c2.85.93 5.515 1.878 8.172 2.878 6.676 2.468 12.586 4.994 17.471 7.322-15.078 51.546-45.959 94.776-89.52 125.539l-3.548 2.45c-12.759-9.513-20.29-16.987-20.29-16.987l6.006-.982c18.221-3.032 35.777-11.244 50.292-24.739 24.738-22.996 34.788-55.829 29.69-86.769l-.389-2.102-.048-.3-.062-.325-.076-.344-.067-.327-.067-.357-.071-.33-.085-.375-.085-.357-.071-.33-.053-.282-.101-.398-.079-.371-.076-.277-.048-.279-.071-.273c-.28-1.111-.528-2.054-.783-2.967 1.339.426 2.657.854 3.958 1.282m.478.603c2.664.909 5.41 1.864 8.025 2.848-2.664-1.005-5.344-1.948-8.025-2.848" fill="#0A7EC2"/></g></svg>