<?xml version="1.0" encoding="UTF-8" standalone="no"?>
<svg width="512px" height="512px" viewBox="0 0 512 512" version="1.1" xmlns="http://www.w3.org/2000/svg" xmlns:xlink="http://www.w3.org/1999/xlink" xmlns:sketch="http://www.bohemiancoding.com/sketch/ns">
    <!-- Generator: Sketch 3.3.1 (12002) - http://www.bohemiancoding.com/sketch -->
    <title>houston-dynamo</title>
    <desc>Created with Sketch.</desc>
    <defs></defs>
    <g id="MLS" stroke="none" stroke-width="1" fill="none" fill-rule="evenodd" sketch:type="MSPage">
        <g id="houston-dynamo" sketch:type="MSArtboardGroup">
            <g sketch:type="MSLayerGroup" transform="translate(64.000000, 86.000000)">
                <path d="M115.41002,15.0583245 L115.404864,15.0596151 C103.612757,18.800966 93.4293688,22.0312528 85.9800266,22.0312528 C79.6921063,22.0312528 76.1704585,20.7806943 75.7837475,20.6361509 L63.9529701,14.9331396 L20.8166512,49.0234415 L22.5259136,61.3625434 C24.2132625,73.539034 26.6714551,86.124634 29.76901,98.8225132 L19.5624186,100.129857 L19.8434286,100.110498 C19.1963322,100.178898 16.6917342,100.517026 4.2151495,102.201215 L0.645807309,102.683887 L0.647096346,241.476521 L25.6350698,237.828091 C45.571309,234.916574 66.5336213,232.46966 87.9522525,230.526068 C119.445993,277.893713 156.593449,313.852755 181.098033,331.823887 L180.881475,331.638045 C181.426738,332.065223 183.330645,333.461615 191.567588,339.502755 L194.002578,341.287608 L206.905834,331.825177 C231.407841,313.856626 268.555296,277.897585 300.051615,230.527358 C321.481847,232.472242 342.44287,234.917864 362.367508,237.829381 C362.371375,237.830672 387.355482,241.477811 387.355482,241.477811 L387.356771,102.683887 L368.43887,100.129857 C368.43887,100.129857 362.576332,99.3800377 358.232279,98.8225132 C361.328545,86.124634 363.788027,73.539034 365.474086,61.3625434 L367.185927,49.0234415 L324.294525,14.8118264 L312.218831,20.6361509 C311.815362,20.7871472 308.296292,22.0312528 302.021262,22.0312528 C294.570631,22.0312528 284.384664,18.7996755 272.591269,15.0583245 C252.446206,8.66615094 227.377023,0.712392453 194,0.712392453 C160.624266,0.712392453 135.553794,8.66615094 115.41002,15.0583245" id="Fill-1" fill="#8DC6ED" sketch:type="MSShapeGroup"></path>
                <path d="M116.655229,18.9893887 L116.65394,18.9893887 C104.534419,22.8339849 94.0687309,26.1559019 85.9800266,26.1559019 C78.5152159,26.1559019 74.4225249,24.5388226 74.1556944,24.4304151 C73.4866844,24.106483 64.4505382,19.7508226 64.4505382,19.7508226 L55.625794,26.5327472 L25.218711,50.7837736 L26.6057143,60.7946943 C28.4954419,74.4346868 31.2771827,88.3573132 34.8542591,102.328981 C29.8154153,102.944581 24.8706711,103.573087 20.1115482,104.215789 L4.76427907,106.288438 L4.76556811,236.706589 L25.0382458,233.74603 C46.1797342,230.657706 68.00699,228.139811 89.9940864,226.187185 C121.343455,273.929094 158.548917,310.177223 183.530445,328.496808 L193.998711,336.173094 L204.465688,328.496808 C229.445927,310.178513 266.651389,273.931675 298.002047,226.187185 C319.982698,228.139811 341.812532,230.657706 362.959176,233.747321 L383.231854,236.707879 L383.233143,106.289728 L367.887163,104.217079 C363.12804,103.574377 358.182007,102.947162 353.143163,102.330272 C356.720239,88.3586038 359.503269,74.4346868 361.390419,60.7959849 L362.78,50.7850642 L323.746684,19.6527396 C323.746684,19.6527396 314.193635,24.2600604 313.840439,24.4317057 C313.565874,24.5426943 309.474472,26.1571925 302.017395,26.1571925 C293.928691,26.1571925 283.461714,22.836566 271.343482,18.9906792 C251.469116,12.6849736 226.737661,4.83833208 193.997422,4.83833208 C161.258472,4.83833208 136.525728,12.6849736 116.652651,18.9906792" id="Fill-2" fill="#F78712" sketch:type="MSShapeGroup"></path>
                <path d="M119.890711,29.2132528 C106.923003,33.3275774 95.7251429,36.8805057 85.9800266,36.8805057 C75.4150831,36.8805057 69.7613688,34.2129057 69.7046512,34.1870943 L65.7421528,32.2770566 L62.2230831,34.9795019 L36.6666445,55.3639925 L37.214485,59.3221585 C39.6378738,76.8080377 43.4585781,94.3171472 48.4407043,111.522974 C39.1789767,112.569623 30.158299,113.6808 21.5423787,114.844891 L15.4748837,115.6644 L15.4761728,224.304249 L23.491402,223.132415 C47.1826047,219.673698 71.3623522,216.932536 95.4351096,214.923125 C126.593701,263.991736 164.423056,301.189721 189.860904,319.844853 L194,322.880264 L198.137807,319.844853 C223.574365,301.193592 261.40501,263.994317 292.563601,214.923125 C316.640226,216.932536 340.818684,219.674989 364.507309,223.136287 L372.522538,224.30554 L372.523827,115.6644 L366.456332,114.844891 C357.840412,113.6808 348.819734,112.568332 339.558007,111.522974 C344.540133,94.314566 348.360837,76.8067472 350.784226,59.3221585 L351.333355,55.3639925 L322.336478,32.2357585 L318.296638,34.1858038 C318.241209,34.2116151 312.586206,36.8792151 302.021262,36.8792151 C292.274857,36.8792151 281.078286,33.3262868 268.110578,29.2119623 C248.942605,23.1295245 225.085116,15.5603547 194.001289,15.5603547 C162.918751,15.5603547 139.061262,23.1295245 119.892,29.2119623" id="Fill-3" fill="#FFFFFF" sketch:type="MSShapeGroup"></path>
                <path d="M194,314.188302 C216.22299,297.892325 255.65204,261.232506 288.951721,207.566898 C314.715694,209.62406 340.247641,212.504604 365.519203,216.195623 L365.519203,121.794589 C353.897249,120.22526 342.218578,118.83274 330.499947,117.580891 C336.357329,98.9283396 340.964346,79.1697736 343.84792,58.3593962 L321.413528,40.4669887 C321.413528,40.4669887 314.729874,43.8934415 302.021262,43.8934415 C275.985302,43.8934415 245.360372,22.5745811 194.001289,22.5745811 C142.640917,22.5745811 112.017276,43.8934415 85.9813156,43.8934415 C73.2727043,43.8934415 66.5890498,40.4669887 66.5890498,40.4669887 L44.1546578,58.3593962 C47.0382326,79.1697736 51.6426711,98.9283396 57.5039203,117.580891 C45.782711,118.83274 34.1040399,120.22526 22.4820864,121.794589 L22.4833754,216.195623 C47.7536478,212.505894 73.2868837,209.625351 99.0495681,207.568189 C132.350538,261.235087 171.779588,297.893615 194.002578,314.189592" id="Fill-4" fill="#231F1F" sketch:type="MSShapeGroup"></path>
                <path d="M280.582007,206.928068 C279.202738,206.827404 277.824757,206.725449 276.444199,206.629947 C257.733834,214.125555 235.878219,222.914309 210.30889,233.231094 C226.597156,222.923343 241.218698,213.653208 254.359136,205.307117 C252.519681,205.214196 250.680226,205.127728 248.838193,205.043842 C236.672266,212.704642 223.284332,221.143653 208.553223,230.448634 C218.642512,221.161721 227.985449,212.554936 236.664532,204.548264 C235.137023,204.49406 233.609515,204.437275 232.080718,204.388234 C224.065488,211.736717 215.50113,219.596264 206.330924,228.019789 C212.687163,219.613042 218.681183,211.67477 224.345209,204.167547 C223.013635,204.133992 221.68206,204.108181 220.347907,204.078498 C215.084771,211.017872 209.545781,218.326347 203.710312,226.032317 C207.598047,218.3328 211.304027,210.988189 214.843721,203.9688 C213.637183,203.94686 212.433223,203.928792 211.227973,203.910725 C207.889369,210.493902 204.410259,217.364875 200.776465,224.545585 C202.903375,217.370038 204.941342,210.480996 206.900678,203.856521 C205.771482,203.843615 204.642286,203.833291 203.511801,203.824257 C201.622073,210.16997 199.662738,216.754438 197.623482,223.604762 C198.371123,216.755728 199.089116,210.163517 199.78004,203.801026 L196.499442,203.790702 C195.807229,210.043494 195.095681,216.516974 194.355774,223.238242 C193.878831,216.516974 193.418645,210.040913 192.97006,203.78554 L189.701063,203.795864 C190.140625,210.118347 190.596944,216.66926 191.072598,223.470543 C189.333688,216.665389 187.65794,210.122219 186.041488,203.80877 L182.686126,203.841034 C184.350272,210.393238 186.081449,217.199683 187.884811,224.284891 C184.636439,217.195811 181.518259,210.399691 178.527694,203.881042 L174.972532,203.937826 C178.13196,210.860423 181.434472,218.090174 184.894246,225.658053 C179.609196,218.083721 174.579375,210.882362 169.789316,204.029457 C168.489967,204.055268 167.191907,204.084951 165.893847,204.115925 C170.949449,211.388264 176.280904,219.050355 181.912704,227.13446 C173.838179,219.037449 166.252199,211.437306 159.114804,204.294023 C157.640146,204.336611 156.165488,204.380491 154.693409,204.428242 C162.529462,212.317472 170.928824,220.764226 179.943056,229.820128 C166.876093,220.743577 154.904811,212.440075 143.922219,204.832189 C142.170419,204.905751 140.419907,204.981894 138.669395,205.0632 C150.546578,213.356377 163.631588,222.476808 178.067508,232.522574 C155.968266,222.45874 136.686857,213.702249 119.855907,206.081457 C117.680013,206.216966 115.506698,206.358928 113.334671,206.507343 C131.327043,214.773419 152.281621,224.368777 176.702419,235.516687 C153.836199,229.738823 133.803282,224.697872 116.247894,220.300913 C117.155375,221.617291 118.066724,222.922053 118.980651,224.217781 C135.66594,228.485683 154.538724,233.291751 175.892904,238.708257 C158.024279,237.497706 141.84687,236.41363 127.185369,235.443125 C128.04,236.574951 128.898498,237.696453 129.758286,238.810211 C143.672146,239.785879 158.927894,240.844143 175.668611,241.992747 C161.325502,243.608536 148.079362,245.110755 135.833515,246.504566 C136.639163,247.502174 137.444811,248.488166 138.251748,249.468996 C149.925262,248.17714 162.49208,246.779457 176.035987,245.265623 C164.29802,248.795321 153.321874,252.10046 143.050831,255.201691 C143.817807,256.101215 144.584784,256.999449 145.351761,257.883487 C155.237382,254.930672 165.761076,251.782981 176.983429,248.418475 C167.244757,253.388445 158.068106,258.077072 149.421249,262.499842 C150.16889,263.337419 150.916532,264.169834 151.661595,264.991925 C160.094472,260.707245 169.019761,256.167034 178.474844,251.351932 C170.332,257.563426 162.637741,263.436792 155.353395,269.004294 C156.097169,269.803155 156.840944,270.598143 157.58214,271.380226 C164.802033,265.89274 172.41895,260.099389 180.468983,253.970491 C173.682206,261.410604 167.264093,268.454513 161.18113,275.131902 C161.940372,275.913985 162.698326,276.689615 163.452412,277.45234 C169.585648,270.75043 176.0579,263.675547 182.89495,256.191555 C177.36885,265.007411 172.154698,273.334143 167.224133,281.216921 C168.018179,281.997713 168.808359,282.766891 169.59596,283.529615 C174.655429,275.488098 180.008797,266.971653 185.679269,257.941562 C181.484744,268.431283 177.548027,278.293789 173.845914,287.579411 C174.696678,288.375691 175.543575,289.160355 176.384027,289.930823 C180.247269,280.321268 184.355429,270.084498 188.732997,259.163728 C186.16008,271.800951 183.768917,283.577366 181.545329,294.562664 C182.483748,295.387336 183.414432,296.19394 184.334804,296.982475 C186.697608,285.5016 189.231854,273.14314 191.955588,259.825789 C191.624306,275.294513 191.329116,289.504936 191.066153,302.561592 C192.056133,303.355291 193.03709,304.133502 193.997422,304.878158 L194.212691,304.706513 C194.536239,291.084589 194.879123,276.192747 195.241342,259.89677 C197.471375,273.894249 199.544146,286.848951 201.469967,298.838309 C202.413542,298.045902 203.371296,297.230264 204.335495,296.39914 C202.532133,284.945366 200.589555,272.633366 198.488425,259.379253 C202.507641,270.826574 206.271628,281.538272 209.803588,291.571132 C210.662086,290.795502 211.525741,290.008257 212.394551,289.205525 C209.019854,279.537894 205.427309,269.250792 201.591136,258.290015 C206.966419,267.742121 212.037488,276.650898 216.822392,285.049902 C217.619017,284.288468 218.422086,283.511547 219.226445,282.728174 C214.582047,274.527917 209.664372,265.852732 204.450219,256.663902 C211.006259,264.500219 217.206525,271.908068 223.084532,278.921004 C223.845063,278.156989 224.608173,277.389102 225.37515,276.6096 C219.573196,269.649577 213.447694,262.307547 206.967708,254.549955 C214.712239,260.998913 222.039123,267.096838 228.988319,272.874702 C229.733382,272.096491 230.478445,271.315698 231.227375,270.520709 C224.244664,264.68477 216.872664,258.527479 209.076571,252.021736 C218.16299,257.16077 226.746684,262.012008 234.867615,266.596098 C235.612678,265.783042 236.356452,264.967404 237.104093,264.13886 C228.807854,259.427004 220.017914,254.438966 210.695601,249.155389 C221.442299,252.89674 231.540611,256.407079 241.043389,259.704475 C241.805209,258.835925 242.568319,257.963502 243.331429,257.078174 C233.4819,253.628491 222.982698,249.959411 211.774525,246.045125 C224.690671,248.06486 236.709648,249.937472 247.912664,251.678445 C248.706711,250.726008 249.502047,249.763245 250.294804,248.79403 C238.56715,246.936906 225.921701,244.9404 212.283694,242.794189 C228.141422,242.401857 242.67402,242.031464 255.997502,241.684302 C256.841821,240.606679 257.68614,239.522604 258.52788,238.428204 C244.496718,238.743102 229.100465,239.099298 212.201196,239.501955 C232.261183,235.338589 250.154299,231.608853 266.116439,228.267577 C267.020053,227.020891 267.918512,225.76517 268.814392,224.497834 C252.002777,227.937192 233.006246,231.842445 211.536053,236.279411 C237.943256,225.594815 260.378937,216.484709 279.446365,208.71163 L280.57685,206.922906" id="Fill-5" fill="#F78712" sketch:type="MSShapeGroup"></path>
                <path d="M194,223.155645 L198.558033,237.200875 L213.311056,237.200875 L201.374578,245.879932 L205.932611,259.927743 L193.998711,251.247396 L182.064811,259.927743 L186.622844,245.879932 L174.688944,237.200875 L189.440678,237.200875 L193.998711,223.155645 L194,223.155645" id="Fill-6" fill="#FFFFFF" sketch:type="MSShapeGroup"></path>
                <path d="M314.553276,115.95994 C327.787814,99.2509811 325.913555,100.937751 325.913555,100.937751 C325.913555,100.937751 327.248997,98.6986189 312.67515,115.788294 L314.553276,115.95994" id="Fill-7" fill="#F78712" sketch:type="MSShapeGroup"></path>
                <path d="M291.934551,114.030543 C322.666472,72.6046642 319.532824,75.6633057 319.532824,75.6633057 C319.532824,75.6633057 321.662312,71.7386943 289.209528,113.830506 L291.934551,114.030543" id="Fill-8" fill="#F78712" sketch:type="MSShapeGroup"></path>
                <path d="M260.912598,112.045653 C290.904611,51.642 287.896,55.8750566 287.896,55.8750566 C287.896,55.8750566 289.536944,50.8870189 258.145037,111.903691 L260.912598,112.044362" id="Fill-9" fill="#F78712" sketch:type="MSShapeGroup"></path>
                <path d="M234.171535,110.934475 C255.635282,36.9501962 253.237674,42.066 253.237674,42.066 C253.237674,42.066 254.023987,36.4300981 231.427176,110.857042 L234.171535,110.934475" id="Fill-10" fill="#F78712" sketch:type="MSShapeGroup"></path>
                <path d="M161.988066,110.707336 C141.975774,34.1948377 142.549395,39.9133358 142.549395,39.9133358 C142.549395,39.9133358 140.32194,34.6439547 159.251442,110.780898 L161.988066,110.707336" id="Fill-11" fill="#F78712" sketch:type="MSShapeGroup"></path>
                <path d="M135.918591,111.617185 C105.899508,47.2024528 107.379322,52.3634264 107.379322,52.3634264 C107.379322,52.3634264 104.468678,47.9135547 133.153608,111.748823 L135.918591,111.617185" id="Fill-12" fill="#F78712" sketch:type="MSShapeGroup"></path>
                <path d="M106.012944,113.314279 C72.9298206,66.7132302 75.0000133,70.9062792 75.0000133,70.9062792 C75.0000133,70.9062792 71.8367176,67.5714566 103.266007,113.503992 L106.012944,113.314279" id="Fill-13" fill="#F78712" sketch:type="MSShapeGroup"></path>
                <path d="M78.5783787,115.488883 C61.304,93.5686189 62.7374086,96.1807245 62.7374086,96.1807245 C62.7374086,96.1807245 60.6517475,94.1648604 76.5442791,115.676015 L78.5796678,115.488883" id="Fill-14" fill="#F78712" sketch:type="MSShapeGroup"></path>
                <path d="M182.130551,60.3300906 C179.620797,30.8832453 179.374591,33.9522113 179.374591,33.9522113 C179.374591,33.9522113 178.690113,30.907766 180.376173,61.0579698 C180.952372,60.7998566 181.537595,60.5559396 182.130551,60.3288" id="Fill-15" fill="#F78712" sketch:type="MSShapeGroup"></path>
                <path d="M214.298458,65.0522717 C217.528784,31.4446415 216.670286,34.6800906 216.670286,34.6800906 C216.670286,34.6800906 216.534937,31.4033434 212.538924,63.7810642 C213.142193,64.1850113 213.724837,64.6121887 214.298458,65.0535623" id="Fill-16" fill="#F78712" sketch:type="MSShapeGroup"></path>
                <path d="M268.601701,49.7448679 L264.906033,48.4259094 L259.761488,62.8789585 L263.454578,64.1992075 L268.601701,49.7448679 L268.601701,49.7448679 Z M268.618458,67.3843245 C268.190498,68.5871321 266.867947,69.2156377 265.667854,68.7858792 L255.146738,65.0303321 C253.944066,64.6018642 253.318884,63.2777434 253.746844,62.0749358 L259.556532,45.7557283 C259.98707,44.5516302 261.308332,43.9244151 262.509714,44.3541736 L273.029542,48.1084302 C274.232213,48.5368981 274.859973,49.8610189 274.432013,51.0638264 L268.621037,67.383034 L268.618458,67.3843245 L268.618458,67.3843245 Z" id="Fill-17" fill="#FFFFFF" sketch:type="MSShapeGroup"></path>
                <path d="M268.601701,49.7448679 L264.906033,48.4259094 L259.761488,62.8789585 L263.454578,64.1992075 L268.601701,49.7448679 L268.601701,49.7448679 Z M268.618458,67.3843245 C268.190498,68.5871321 266.867947,69.2156377 265.667854,68.7858792 L255.146738,65.0303321 C253.944066,64.6018642 253.318884,63.2777434 253.746844,62.0749358 L259.556532,45.7557283 C259.98707,44.5516302 261.308332,43.9244151 262.509714,44.3541736 L273.029542,48.1084302 C274.232213,48.5368981 274.859973,49.8610189 274.432013,51.0638264 L268.621037,67.383034 L268.618458,67.3843245 L268.618458,67.3843245 Z" id="Stroke-18" stroke="#231F1F" stroke-width="0.319" sketch:type="MSShapeGroup"></path>
                <path d="M126.788346,47.410234 L123.072053,48.6685358 L127.983282,63.2041811 L131.699575,61.9458792 L126.788346,47.410234 L126.788346,47.410234 Z M137.723243,61.2399396 C138.131867,62.4492 137.484771,63.7629962 136.274365,64.1721057 L125.696532,67.754717 C124.487415,68.1638264 123.176465,67.5159623 122.767841,66.3054113 L117.222405,49.8919925 C116.812492,48.6814415 117.460877,47.3689358 118.669993,46.9598264 L129.249116,43.3772151 C130.458233,42.9681057 131.769183,43.6172604 132.177807,44.8278113 L137.721953,61.2399396 L137.723243,61.2399396 L137.723243,61.2399396 Z" id="Fill-19" fill="#FFFFFF" sketch:type="MSShapeGroup"></path>
                <path d="M126.788346,47.410234 L123.072053,48.6685358 L127.983282,63.2041811 L131.699575,61.9458792 L126.788346,47.410234 L126.788346,47.410234 Z M137.723243,61.2399396 C138.131867,62.4492 137.484771,63.7629962 136.274365,64.1721057 L125.696532,67.754717 C124.487415,68.1638264 123.176465,67.5159623 122.767841,66.3054113 L117.222405,49.8919925 C116.812492,48.6814415 117.460877,47.3689358 118.669993,46.9598264 L129.249116,43.3772151 C130.458233,42.9681057 131.769183,43.6172604 132.177807,44.8278113 L137.721953,61.2399396 L137.723243,61.2399396 L137.723243,61.2399396 Z" id="Stroke-20" stroke="#231F1F" stroke-width="0.319" sketch:type="MSShapeGroup"></path>
                <path d="M164.182007,37.8084226 L166.890272,55.9821736 L163.008983,56.5616377 L160.302007,38.3865962 L154.433023,39.2628906 L157.328199,58.6872 C157.516399,59.9506642 158.692,60.8217962 159.953967,60.6346642 L170.999721,58.9853208 C172.262977,58.7968981 173.133076,57.6186113 172.944877,56.3564377 L170.05099,36.9321283 L164.183296,37.8084226 L164.182007,37.8084226" id="Fill-21" fill="#FFFFFF" sketch:type="MSShapeGroup"></path>
                <path d="M164.182007,37.8084226 L166.890272,55.9821736 L163.008983,56.5616377 L160.302007,38.3865962 L154.433023,39.2628906 L157.328199,58.6872 C157.516399,59.9506642 158.692,60.8217962 159.953967,60.6346642 L170.999721,58.9853208 C172.262977,58.7968981 173.133076,57.6186113 172.944877,56.3564377 L170.05099,36.9321283 L164.183296,37.8084226 L164.182007,37.8084226 L164.182007,37.8084226 Z" id="Stroke-22" stroke="#231F1F" stroke-width="0.319" sketch:type="MSShapeGroup"></path>
                <path d="M239.745329,39.8281585 L224.195681,37.0947396 L223.673621,40.0785283 L228.526844,40.9315925 L225.259136,59.567366 L231.102339,60.5946566 L234.370047,41.958883 L239.224558,42.8132377 L239.747907,39.8281585 L239.745329,39.8281585" id="Fill-23" fill="#FFFFFF" sketch:type="MSShapeGroup"></path>
                <path d="M239.745329,39.8281585 L224.195681,37.0947396 L223.673621,40.0785283 L228.526844,40.9315925 L225.259136,59.567366 L231.102339,60.5946566 L234.370047,41.958883 L239.224558,42.8132377 L239.747907,39.8281585 L239.745329,39.8281585 L239.745329,39.8281585 Z" id="Stroke-24" stroke="#231F1F" stroke-width="0.319" sketch:type="MSShapeGroup"></path>
                <path d="M306.360159,61.3122113 L300.947495,70.6997887 L300.108332,57.6973358 L297.111322,55.9653962 L286.148066,74.9767245 L290.573329,77.5346264 L295.985993,68.1470491 L296.826445,81.1482113 L299.822166,82.8801509 L310.786711,63.8688226 L306.360159,61.3109208 L306.360159,61.3122113" id="Fill-25" fill="#FFFFFF" sketch:type="MSShapeGroup"></path>
                <path d="M306.360159,61.3122113 L300.947495,70.6997887 L300.108332,57.6973358 L297.111322,55.9653962 L286.148066,74.9767245 L290.573329,77.5346264 L295.985993,68.1470491 L296.826445,81.1482113 L299.822166,82.8801509 L310.786711,63.8688226 L306.360159,61.3109208 L306.360159,61.3122113 L306.360159,61.3122113 Z" id="Stroke-26" stroke="#231F1F" stroke-width="0.319" sketch:type="MSShapeGroup"></path>
                <path d="M89.4011296,57.2404755 L93.8444385,65.2794113 L88.9718804,67.9792755 L84.5272824,59.9416302 L80.0569037,62.419517 L90.6772757,81.6244302 L95.1476545,79.1465434 L90.7030565,71.1088981 L95.5756146,68.4077434 L100.020213,76.4453887 L104.490591,73.9675019 L93.8715083,54.7612981 L89.4011296,57.2391849 L89.4011296,57.2404755" id="Fill-27" fill="#FFFFFF" sketch:type="MSShapeGroup"></path>
                <path d="M89.4011296,57.2404755 L93.8444385,65.2794113 L88.9718804,67.9792755 L84.5272824,59.9416302 L80.0569037,62.419517 L90.6772757,81.6244302 L95.1476545,79.1465434 L90.7030565,71.1088981 L95.5756146,68.4077434 L100.020213,76.4453887 L104.490591,73.9675019 L93.8715083,54.7612981 L89.4011296,57.2391849 L89.4011296,57.2404755 L89.4011296,57.2404755 Z" id="Stroke-28" stroke="#231F1F" stroke-width="0.319" sketch:type="MSShapeGroup"></path>
                <path d="M196.165581,41.2981132 L196.210698,38.7763472 L199.71301,38.8408755 L199.649847,42.1898943 L204.945209,42.2892679 L205.021262,38.2226943 C205.044465,36.945034 204.143429,35.8919321 203.000053,35.871283 L193.033223,35.6854415 C191.895003,35.6635019 190.951429,36.6817585 190.928226,37.9594189 L190.852173,42.0234113 C190.77612,46.1274113 199.519654,49.1395925 199.474538,51.6613585 L199.426844,54.1831245 L195.925821,54.1173057 L195.986405,50.7708679 L190.691043,50.6714943 L190.605967,55.2826868 C190.581475,56.5590566 191.486379,57.6121585 192.624598,57.6340981 L202.594007,57.8199396 C203.733515,57.8418792 204.675801,56.8223321 204.699003,55.5459623 L204.785369,50.9347698 C204.854977,47.2179396 196.117887,43.8198792 196.165581,41.2981132" id="Fill-29" fill="#FFFFFF" sketch:type="MSShapeGroup"></path>
                <path d="M196.165581,41.2981132 L196.210698,38.7763472 L199.71301,38.8408755 L199.649847,42.1898943 L204.945209,42.2892679 L205.021262,38.2226943 C205.044465,36.945034 204.143429,35.8919321 203.000053,35.871283 L193.033223,35.6854415 C191.895003,35.6635019 190.951429,36.6817585 190.928226,37.9594189 L190.852173,42.0234113 C190.77612,46.1274113 199.519654,49.1395925 199.474538,51.6613585 L199.426844,54.1831245 L195.925821,54.1173057 L195.986405,50.7708679 L190.691043,50.6714943 L190.605967,55.2826868 C190.581475,56.5590566 191.486379,57.6121585 192.624598,57.6340981 L202.594007,57.8199396 C203.733515,57.8418792 204.675801,56.8223321 204.699003,55.5459623 L204.785369,50.9347698 C204.854977,47.2179396 196.117887,43.8198792 196.165581,41.2981132 L196.165581,41.2981132 Z" id="Stroke-30" stroke="#231F1F" stroke-width="0.319" sketch:type="MSShapeGroup"></path>
                <path d="M303.391508,149.497879 C303.391508,139.133343 302.86687,129.794808 318.018206,131.982317 C333.169542,134.171117 346.502047,136.165042 349.011801,136.538015 C354.906565,137.416891 343.686791,141.507985 343.686791,145.529389 L343.686791,190.536589 C343.686791,195.110355 341.314963,199.068521 333.850153,197.907011 C330.860877,197.49274 327.251575,197.007487 318.019495,195.605932 C302.468558,193.245487 303.394086,187.616038 303.394086,173.467562 L303.394086,149.496589 L303.391508,149.497879 L303.391508,149.497879 Z M330.420027,183.764989 L330.420027,146.206936 C330.420027,144.183328 329.454538,141.888702 327.082711,141.888702 L323.518525,141.389253 C317.800359,140.680732 316.667296,142.330075 315.95188,151.365328 C315.715987,154.352989 315.710831,158.320189 315.710831,163.252732 C315.71212,168.186566 315.95188,172.167962 315.95188,175.205955 C315.95188,185.433691 317.448452,186.460981 320.413236,186.850732 C323.380598,187.240483 327.081422,187.717992 327.081422,187.717992 C328.666937,187.94126 330.418738,186.581004 330.418738,183.766279 L330.420027,183.764989 Z M81.5276944,174.2148 C81.5276944,188.364566 82.4545116,193.991434 66.9022857,196.351879 C51.3513488,198.714906 51.7535282,198.477442 44.1946179,199.676377 L44.1946179,145.836543 C44.1946179,141.81514 32.9761329,137.724045 38.869608,136.84646 C41.3806512,136.472196 51.7509502,134.919645 66.9009967,132.729555 C82.0523322,130.540755 81.5264053,139.879291 81.5264053,150.245117 L81.5264053,174.2148 L81.5276944,174.2148 L81.5276944,174.2148 Z M61.4045449,187.9632 C63.13701,187.724445 64.5162791,187.281781 65.5462193,186.630045 C66.5748704,185.977019 67.3624718,184.792279 67.9077342,183.077117 C68.4542857,181.360664 68.8074817,178.984732 68.9686113,175.951902 C69.1271628,172.917781 69.2096611,168.932513 69.2096611,163.99997 C69.2096611,159.067426 69.1284518,155.104098 68.9686113,152.112566 C68.8074817,149.121034 68.4529967,146.836732 67.9077342,145.264823 C67.3624718,143.692913 66.5748704,142.718536 65.5462193,142.344272 C64.5162791,141.968717 63.1357209,141.897736 61.4045449,142.137781 C60.2160532,142.301683 59.0275615,142.468166 57.8390698,142.63723 L57.8390698,188.466521 C59.0275615,188.298747 60.2147641,188.130974 61.4045449,187.967072 L61.4045449,187.9632 Z M205.932611,161.0136 L209.508399,144.635026 L214.950711,167.947811 C214.949422,167.946521 210.96501,164.894332 205.9339,161.0136 L205.932611,161.0136 Z M232.936638,188.644619 C228.018963,167.238 220.936997,145.868808 216.018033,124.537042 C209.402698,124.371849 209.611522,124.273766 202.997475,124.244083 C200.812558,133.818792 198.217728,143.399955 195.57907,152.98757 C190.617568,149.117162 186.450113,145.810732 185.69087,145.050589 C183.627123,142.984392 183.040611,146.049487 183.970007,146.978694 C184.28711,147.297464 188.561555,152.215811 194.048983,158.549909 C191.358764,168.3324 188.70206,178.121343 186.474605,187.91674 C191.987814,187.856083 194.556864,187.844468 200.070073,187.880604 L203.969409,170.016589 C212.126432,179.453208 219.677608,188.200664 219.677608,188.200664 C224.099003,188.318106 228.516532,188.466521 232.935349,188.645909 L232.936638,188.644619 Z M252.899947,126.006996 L266.095814,158.730589 L279.313595,128.004792 C279.313595,128.004792 282.882937,128.626845 289.579482,129.318589 L289.579482,192.942204 C285.189023,192.487925 281.306445,191.399977 276.910831,191.005064 C276.910831,175.204664 277.426445,159.657215 277.426445,159.657215 L268.467641,184.6116 L263.212239,184.198619 C263.212239,184.198619 254.223787,159.556551 254.174804,159.55397 L254.174804,189.739019 C249.771455,189.464128 246.709993,189.21763 242.306645,189.002106 L242.306645,125.378491 C249.022525,125.706294 252.902525,126.004415 252.902525,126.004415 L252.899947,126.006996 Z M145.503867,125.473992 L164.505555,154.283298 L164.505555,124.695781 C169.428385,124.543494 171.876266,124.428634 176.801674,124.349909 L176.801674,187.974815 C173.639668,188.023857 169.791894,188.1684 169.791894,188.1684 L151.287774,158.978377 L151.287774,188.820136 C146.366233,189.039532 143.508439,189.298936 138.589475,189.595766 L138.589475,125.972151 C141.58004,125.792762 145.503867,125.473992 145.503867,125.473992 L145.503867,125.473992 Z M88.4575548,130.090347 C94.1138472,129.447645 96.5707508,129.201147 102.236066,128.6604 C104.212159,135.868211 110.106924,152.134506 110.162352,152.129343 C112.139734,144.557592 116.112545,134.824143 118.092505,127.264008 C123.846764,126.787789 126.031681,126.601947 131.791096,126.228974 C126.654286,139.42243 122.149103,152.657185 117.016159,165.934528 L117.016159,190.974091 C111.760757,191.399977 109.129834,191.867162 103.879588,192.379517 L103.879588,167.339955 C98.835588,154.97117 93.4938206,142.380408 88.4562658,130.091638 L88.4575548,130.090347 Z" id="Fill-31" fill="#FFFFFF" sketch:type="MSShapeGroup"></path>
                <path d="M303.391508,149.497879 C303.391508,139.133343 302.86687,129.794808 318.018206,131.982317 C333.169542,134.171117 346.502047,136.165042 349.011801,136.538015 C354.906565,137.416891 343.686791,141.507985 343.686791,145.529389 L343.686791,190.536589 C343.686791,195.110355 341.314963,199.068521 333.850153,197.907011 C330.860877,197.49274 327.251575,197.007487 318.019495,195.605932 C302.468558,193.245487 303.394086,187.616038 303.394086,173.467562 L303.394086,149.496589 L303.391508,149.497879 L303.391508,149.497879 Z M330.420027,183.764989 L330.420027,146.206936 C330.420027,144.183328 329.454538,141.888702 327.082711,141.888702 L323.518525,141.389253 C317.800359,140.680732 316.667296,142.330075 315.95188,151.365328 C315.715987,154.352989 315.710831,158.320189 315.710831,163.252732 C315.71212,168.186566 315.95188,172.167962 315.95188,175.205955 C315.95188,185.433691 317.448452,186.460981 320.413236,186.850732 C323.380598,187.240483 327.081422,187.717992 327.081422,187.717992 C328.666937,187.94126 330.418738,186.581004 330.418738,183.766279 L330.420027,183.764989 L330.420027,183.764989 Z M81.5289834,174.213509 C81.5289834,188.363275 82.4558007,193.990143 66.9035748,196.351879 C51.3526379,198.713615 51.7548173,198.476151 44.195907,199.675087 L44.195907,145.835253 C44.195907,141.813849 32.9774219,137.722755 38.870897,136.84517 C41.3819402,136.470906 51.7522392,134.918355 66.9022857,132.728264 C82.0536213,130.539464 81.5276944,139.878 81.5276944,150.243826 L81.5276944,174.213509 L81.5289834,174.213509 L81.5289834,174.213509 Z M61.4058339,187.9632 C63.138299,187.723155 64.5175681,187.280491 65.5475083,186.628755 C66.5761595,185.974438 67.3637608,184.790989 67.9090233,183.075826 C68.4555748,181.359374 68.8087708,178.983442 68.9699003,175.950611 C69.1284518,172.916491 69.2109502,168.931223 69.2109502,163.998679 C69.2109502,159.066136 69.1297409,155.102808 68.9699003,152.111275 C68.8087708,149.119743 68.4542857,146.835442 67.9090233,145.263532 C67.3637608,143.691623 66.5761595,142.717245 65.5475083,142.342981 C64.5175681,141.967426 63.13701,141.896445 61.4058339,142.136491 C60.2173422,142.300392 59.0288505,142.466875 57.8403588,142.63594 L57.8403588,188.46523 C59.0288505,188.297457 60.2160532,188.129683 61.4058339,187.965781 L61.4058339,187.9632 L61.4058339,187.9632 Z M205.9339,161.009728 L209.509688,144.631155 L214.952,167.94394 C214.950711,167.942649 210.966299,164.89046 205.935189,161.009728 L205.9339,161.009728 L205.9339,161.009728 Z M232.936638,188.640747 C228.018963,167.234128 220.936997,145.864936 216.018033,124.53317 C209.402698,124.367977 209.611522,124.269894 202.997475,124.241502 C200.812558,133.81363 198.217728,143.396083 195.57907,152.983698 C190.617568,149.113291 186.450113,145.80557 185.69087,145.046717 C183.627123,142.980521 183.040611,146.045615 183.970007,146.974823 C184.28711,147.293592 188.561555,152.21194 194.048983,158.547328 C191.358764,168.328528 188.70206,178.117472 186.474605,187.912868 C191.987814,187.853502 194.556864,187.840596 200.070073,187.876732 L203.969409,170.012717 C212.126432,179.449336 219.677608,188.196792 219.677608,188.196792 C224.099003,188.314234 228.516532,188.462649 232.935349,188.642038 L232.936638,188.640747 L232.936638,188.640747 Z M252.902525,126.001834 L266.098392,158.725426 L279.313595,127.99963 C279.313595,127.99963 282.884226,128.621683 289.579482,129.313426 L289.579482,192.937042 C285.190312,192.481472 281.306445,191.394815 276.910831,190.999902 C276.910831,175.199502 277.427734,159.652053 277.427734,159.652053 L268.467641,184.606438 L263.214817,184.193457 C263.214817,184.193457 254.225076,159.551389 254.174804,159.548808 L254.174804,189.735147 C249.774033,189.458966 246.712571,189.212468 242.306645,188.996943 L242.306645,125.373328 C249.022525,125.701132 252.902525,125.999253 252.902525,125.999253 L252.902525,126.001834 L252.902525,126.001834 Z M145.503867,125.471411 L164.505555,154.280717 L164.505555,124.6932 C169.428385,124.540913 171.876266,124.426053 176.801674,124.348619 L176.801674,187.972234 C173.639668,188.021275 169.791894,188.165819 169.791894,188.165819 L151.287774,158.975796 L151.287774,188.817555 C146.366233,189.038242 143.508439,189.296355 138.589475,189.593185 L138.589475,125.96957 C141.58004,125.790181 145.503867,125.471411 145.503867,125.471411 L145.503867,125.471411 Z M88.4575548,130.087766 C94.1138472,129.445064 96.5707508,129.198566 102.236066,128.657819 C104.212159,135.86563 110.106924,152.131925 110.162352,152.126762 C112.139734,144.555011 116.112545,134.821562 118.092505,127.261426 C123.846764,126.785208 126.031681,126.599366 131.791096,126.226392 C126.654286,139.419849 122.149103,152.654604 117.016159,165.931947 L117.016159,190.971509 C111.760757,191.397396 109.129834,191.864581 103.879588,192.376936 L103.879588,167.337374 C98.835588,154.968589 93.4938206,142.377826 88.4562658,130.089057 L88.4575548,130.087766 L88.4575548,130.087766 Z" id="Stroke-32" stroke="#F47216" stroke-width="1.278" sketch:type="MSShapeGroup"></path>
                <path d="M31.2372226,207.939872 C84.8121595,200.592679 139.123136,196.899079 193.998711,196.899079 C248.874286,196.899079 303.187841,200.592679 356.764066,207.941162 L356.764066,205.445208 C303.185262,198.112211 248.871708,194.425064 193.998711,194.425064 C139.124425,194.425064 84.8134485,198.112211 31.2372226,205.445208 L31.2372226,207.941162 L31.2372226,207.939872" id="Fill-33" fill="#F78712" sketch:type="MSShapeGroup"></path>
                <path d="M247.884306,308.250408 L247.884306,309.577109 L245.632359,309.577109 L245.632359,315.764083 L244.046844,315.764083 L244.046844,309.577109 L241.793608,309.577109 L241.793608,308.250408 L247.884306,308.250408" id="Fill-34" fill="#231F1F" sketch:type="MSShapeGroup"></path>
                <path d="M253.761023,308.250408 L256.011681,308.250408 L256.011681,315.765374 L254.557648,315.765374 L254.557648,310.681834 L254.566671,309.458377 L253.143575,315.764083 L251.619934,315.764083 L250.20715,309.458377 L250.216173,310.681834 L250.216173,315.765374 L248.76085,315.765374 L248.76085,308.250408 L251.037289,308.250408 L252.404957,314.158619 L253.758445,308.250408 L253.761023,308.250408" id="Fill-35" fill="#231F1F" sketch:type="MSShapeGroup"></path>
                <path d="M172.907495,117.367947 C125.235056,118.142287 77.9776877,121.537766 31.2372226,127.531155 L31.2372226,130.027109 C79.082392,123.880143 127.471535,120.466596 176.292505,119.799374 C175.113037,119.057298 173.981262,118.248113 172.907495,117.367947" id="Fill-36" fill="#F78712" sketch:type="MSShapeGroup"></path>
                <path d="M215.092505,117.369238 C214.017449,118.248113 212.886963,119.057298 211.706206,119.799374 C260.528465,120.465306 308.917608,123.880143 356.764066,130.027109 L356.764066,127.531155 C310.023601,121.537766 262.767522,118.142287 215.092505,117.369238" id="Fill-37" fill="#F78712" sketch:type="MSShapeGroup"></path>
                <path d="M220.594113,91.5230717 C220.594113,106.226491 208.688571,118.14874 194,118.14874 C179.312718,118.14874 167.405887,106.226491 167.405887,91.5230717 C167.405887,76.8183623 179.312718,64.8961132 194,64.8961132 C208.688571,64.8961132 220.594113,76.8170717 220.594113,91.5230717" id="Fill-38" fill="#FFFFFF" sketch:type="MSShapeGroup"></path>
                <path d="M208.388226,69.1356226 C212.968173,73.149283 215.865927,79.0420075 215.865927,85.6148604 C215.865927,97.7061736 206.076983,107.509313 193.998711,107.509313 C181.921728,107.509313 172.131495,97.7074642 172.131495,85.6148604 C172.131495,79.0420075 175.029249,73.149283 179.610485,69.1356226 C172.269422,73.8745811 167.404598,82.1277509 167.404598,91.5230717 C167.404598,106.226491 179.311429,118.14874 193.998711,118.14874 C208.685993,118.14874 220.592824,106.226491 220.592824,91.5230717 C220.592824,82.1264604 215.728,73.8745811 208.386937,69.1356226" id="Fill-39" fill="#B3E6FA" sketch:type="MSShapeGroup"></path>
                <path d="M213.687455,73.6229208 C212.172837,74.2501358 210.393967,74.8321811 210.194166,74.6321434 C211.958857,78.4973887 212.398419,82.9149962 211.737143,85.2341434 C212.69103,86.1891623 214.567867,88.2372906 215.864638,89.8982491 C216.386698,93.1272453 216.23588,96.6504906 215.709953,98.3566189 C216.501422,97.0273358 217.831708,94.5507396 218.406618,91.6495472 C219.098831,91.2856075 219.833581,90.8623019 220.568332,90.531917 C220.32986,84.0300453 217.771123,78.121834 213.687455,73.6229208" id="Fill-40" fill="#231F1F" sketch:type="MSShapeGroup"></path>
                <path d="M214.191468,108.839887 C214.159243,107.142792 214.05612,104.223532 213.723548,102.020536 C209.529023,106.6356 204.550764,105.844483 204.550764,105.844483 C204.550764,105.844483 203.7941,107.704189 202.778339,109.641328 C200.12808,112.378619 198.813262,113.622725 192.157967,113.922136 C192.984239,114.180249 198.394326,114.042158 201.522817,114.373834 L203.604611,116.350981 C207.730817,114.749389 211.359455,112.147608 214.192757,108.839887" id="Fill-41" fill="#231F1F" sketch:type="MSShapeGroup"></path>
                <path d="M182.304571,105.226302 C182.304571,105.226302 181.304279,105.351487 179.776771,105.462475 C175.486857,103.567925 172.019349,98.8250943 170.975229,95.6348151 C173.02093,101.204898 173.374126,104.229985 173.434711,105.604438 C172.736053,105.578626 172.036106,105.534747 171.346472,105.470219 C174.188797,110.087864 178.40008,113.768558 183.413143,115.949615 C184.66093,115.244966 186.388239,114.122174 189.10295,113.578845 C183.953249,111.31003 182.30586,105.226302 182.30586,105.226302" id="Fill-42" fill="#231F1F" sketch:type="MSShapeGroup"></path>
                <path d="M173.965794,74.0242868 C169.959468,78.6187019 167.503854,84.6004755 167.41491,91.1565509 C168.692346,91.1217057 169.855056,91.2533434 170.373249,93.6279849 C171.145382,91.1991396 173.572638,85.1244453 175.999894,84.2404075 C175.238073,82.4103849 175.265143,79.421434 175.355375,77.5656 C177.696266,73.9804075 181.845674,70.5462113 181.845674,70.5462113 C181.845674,70.5462113 177.419123,73.4938642 175.186512,75.4710113 C174.915814,75.094166 174.459495,74.5663245 173.965794,74.0242868" id="Fill-43" fill="#231F1F" sketch:type="MSShapeGroup"></path>
                <path d="M194,64.8961132 C191.084199,64.8961132 188.281834,65.3723321 185.657355,66.240883 C184.842684,67.6721208 183.73798,69.1252981 183.499508,69.9938491 C185.926764,69.2195094 192.268824,71.0430792 193.316811,72.0923094 C193.316811,71.5399472 198.942166,69.4414868 200.374286,69.4414868 C201.810272,69.4414868 209.14489,73.3622264 208.647322,72.8653585 C208.153621,72.3684906 202.249834,67.8953887 201.810272,67.4540151 C201.618206,67.2617208 201.824452,66.7325887 202.211163,66.1957132 C199.625355,65.3555547 196.868106,64.8961132 194,64.8961132" id="Fill-44" fill="#231F1F" sketch:type="MSShapeGroup"></path>
                <path d="M170.152824,89.6517509 C170.152824,90.5344981 171.476664,87.7739774 171.476664,87.1106264 C171.476664,86.6408604 170.480239,82.4981434 170.374538,79.3039925 C168.969488,82.0219245 168.020757,85.0095849 167.623734,88.1714717 C168.754219,88.5031472 170.154113,89.0761585 170.154113,89.6517509" id="Fill-45" fill="#F78712" sketch:type="MSShapeGroup"></path>
                <path d="M183.334512,110.89834 C183.334512,110.89834 177.608611,109.992362 174.018645,109.083804 C175.923841,111.255826 178.175787,113.11166 180.690698,114.571291 C182.824053,114.298981 185.636731,113.203291 185.291269,112.857419 L183.334512,110.89834" id="Fill-46" fill="#F78712" sketch:type="MSShapeGroup"></path>
                <path d="M213.184731,109.952355 C213.183442,109.005079 212.964306,105.536038 212.964306,105.536038 C212.964306,105.536038 209.942804,106.360709 209.942804,107.116981 C209.942804,107.873253 205.629688,114.111849 205.276492,115.638589 C208.258033,114.239615 210.934073,112.302475 213.18602,109.952355" id="Fill-47" fill="#F78712" sketch:type="MSShapeGroup"></path>
                <path d="M216.831415,77.868883 C215.231721,77.5539849 213.171841,76.9512906 213.171841,76.9512906 C213.171841,78.2767019 213.66812,79.1052453 213.171841,79.6021132 C212.684585,80.0899472 218.784306,84.7282415 220.359508,88.0333811 C219.878698,84.3552679 218.652824,80.9146189 216.831415,77.868883" id="Fill-48" fill="#F78712" sketch:type="MSShapeGroup"></path>
                <path d="M194,64.8961132 C191.936252,64.8961132 189.931801,65.1400302 188.002113,65.5852755 L186.367615,68.3367623 C186.367615,68.3367623 189.234432,68.2257736 190.890844,68.2257736 C192.128319,66.9868302 194.942286,65.8975925 197.426259,65.1232528 C196.303508,64.9774189 195.160133,64.8961132 194,64.8961132" id="Fill-49" fill="#F78712" sketch:type="MSShapeGroup"></path>
                <path d="M200.233781,95.9587472 C201.379734,93.5763623 202.905953,89.4594566 203.266884,88.0114415 C205.302272,87.1403094 208.981183,85.235434 208.981183,85.235434 C208.981183,85.235434 205.495628,86.4472755 202.858259,86.8628377 C201.522817,85.5154868 197.802658,82.8324 195.56489,81.5908755 L195.56489,81.5895849 C194.282299,78.826483 193.648093,74.0823623 193.648093,74.0823623 C193.648093,74.0823623 193.645515,77.8508151 192.837289,81.4037434 C190.84186,82.4929811 187.016,85.2109132 185.377635,86.7712075 C182.722219,86.5543925 177.98501,85.1257358 177.98501,85.1257358 C177.98501,85.1257358 183.718645,88.8825736 185.373767,90.5409509 L185.375056,90.5409509 C185.724385,91.5876 186.154924,92.7942792 186.589329,93.9377208 L186.58804,93.9377208 C187.385953,95.9303547 185.479468,100.970015 184.330937,103.116226 C185.739854,101.655306 188.798738,99.0573962 190.769674,98.5450415 C192.614286,98.6276377 195.167867,98.5321358 197.013767,98.2675698 C199.70012,99.8459321 204.050618,104.197721 204.050618,104.197721 C204.050618,104.197721 200.594711,99.9259472 200.23507,95.9613283" id="Fill-50" fill="#231F1F" sketch:type="MSShapeGroup"></path>
                <path d="M183.610365,104.118996 C183.732824,104.118996 184.002233,103.729245 184.330937,103.114936 C183.758605,103.708596 183.451814,104.118996 183.610365,104.118996" id="Fill-51" fill="#231F1F" sketch:type="MSShapeGroup"></path>
                <path d="M194,90.2028226 C194.33515,89.5046264 194.424093,85.7077811 194.190777,82.3406943 L193.979375,82.2981057 C193.047402,82.2981057 186.060824,87.2409736 186.060824,88.0811321 C186.060824,88.7199623 187.596066,93.1053057 188.598937,95.4360679 C191.039083,93.2575925 193.694498,90.844234 194.001289,90.2028226" id="Fill-52" fill="#F78712" sketch:type="MSShapeGroup"></path>
                <path d="M215.267814,99.2600151 C215.435389,99.0922415 215.582339,98.7721811 215.709953,98.3579094 C215.176292,99.2535623 214.890126,99.6381509 215.267814,99.2600151" id="Fill-53" fill="#FFF200" sketch:type="MSShapeGroup"></path>
                <path d="M215.267814,99.2600151 C215.435389,99.0922415 215.582339,98.7721811 215.709953,98.3579094 C215.176292,99.2535623 214.890126,99.6381509 215.267814,99.2600151 L215.267814,99.2600151 Z" id="Stroke-54" stroke="#231F1F" stroke-width="0.639" sketch:type="MSShapeGroup"></path>
            </g>
        </g>
    </g>
</svg>