<?xml version="1.0" encoding="UTF-8" standalone="no"?>
<svg width="512px" height="512px" viewBox="0 0 512 512" version="1.1" xmlns="http://www.w3.org/2000/svg" xmlns:xlink="http://www.w3.org/1999/xlink" xmlns:sketch="http://www.bohemiancoding.com/sketch/ns">
    <!-- Generator: Sketch 3.3.1 (12002) - http://www.bohemiancoding.com/sketch -->
    <title>new-york-city-fc</title>
    <desc>Created with Sketch.</desc>
    <defs></defs>
    <g id="MLS" stroke="none" stroke-width="1" fill="none" fill-rule="evenodd" sketch:type="MSPage">
        <g id="new-york-city-fc" sketch:type="MSArtboardGroup">
            <g sketch:type="MSLayerGroup" transform="translate(77.000000, 78.000000)" id="layer1">
                <g transform="translate(0.888614, 0.246383)" sketch:type="MSShapeGroup">
                    <g id="g3937" transform="translate(1.422845, 0.513414)">
                        <path d="M354.022696,176.852153 C354.022696,274.454062 274.851345,353.576035 177.188536,353.576035 C79.5257257,353.576035 0.354374985,274.454062 0.354374985,176.852153 C0.354374985,79.2502484 79.5257257,0.128271201 177.188536,0.128271201 C274.851345,0.128271201 354.022696,79.2502484 354.022696,176.852153 L354.022696,176.852153 Z" id="path2998" fill="#28295C"></path>
                        <path d="M177.188535,61.1460193 C113.271409,61.1460193 61.4060366,112.979043 61.4060366,176.856313 C61.4060366,240.733582 113.271409,292.556466 177.188535,292.556466 C241.105665,292.556466 292.971036,240.733582 292.971036,176.856313 C292.971036,112.979043 241.105665,61.1460193 177.188535,61.1460193 L177.188535,61.1460193 Z M177.188535,65.3951523 C238.807424,65.3951523 288.709102,115.27585 288.709102,176.856313 C288.709102,238.436776 238.807424,288.307333 177.188535,288.307333 C115.569646,288.307333 65.6679705,238.436776 65.6679705,176.856313 C65.6679705,115.27585 115.569646,65.3951523 177.188535,65.3951523 L177.188535,65.3951523 Z" id="path3002" fill="#FFFFFF"></path>
                        <path d="M177.188538,7.53343108 C83.6380202,7.53343108 7.75801576,83.3661139 7.75801576,176.858292 C7.75801576,270.350471 83.6380202,346.168194 177.188538,346.168194 C270.739053,346.168194 346.619057,270.350471 346.619057,176.858292 C346.619057,83.3661139 270.739053,7.53343108 177.188538,7.53343108 L177.188538,7.53343108 Z M177.188538,11.137997 C268.785555,11.137997 342.997277,85.3183975 342.997277,176.858292 C342.997277,268.398187 268.785555,342.56363 177.188538,342.56363 C85.591522,342.56363 11.3797953,268.398187 11.3797953,176.858292 C11.3797953,85.3183975 85.591522,11.137997 177.188538,11.137997 L177.188538,11.137997 Z" id="path3772" fill="#E76B31"></path>
                        <path d="M177.188698,18.3939979 C89.8227233,18.3939979 18.6158875,89.5453639 18.6158875,176.856851 C18.6158875,264.168341 89.8227233,335.308637 177.188698,335.308637 C264.554668,335.308637 335.761508,264.168341 335.761508,176.856851 C335.761508,89.5453639 264.554668,18.3939979 177.188698,18.3939979 L177.188698,18.3939979 Z M177.188698,53.2894704 C245.745861,53.2894704 300.68922,108.342441 300.68922,176.856851 C300.68922,245.37126 245.745861,300.114345 177.188698,300.114345 C108.631532,300.114345 53.6881754,245.37126 53.6881754,176.856851 C53.6881754,108.342441 108.631532,53.2894704 177.188698,53.2894704 L177.188698,53.2894704 Z M36.6559118,167.903334 L45.714684,174.499497 L42.2041329,185.345537 L30.8862048,185.345537 L27.3424309,174.455228 L36.6559118,167.903334 L36.6559118,167.903334 Z M317.865449,167.903334 L326.924221,174.499497 L323.424745,185.345537 L312.106816,185.345537 L308.563043,174.455228 L317.865449,167.903334 L317.865449,167.903334 Z" id="path3774" fill="#78A5DB"></path>
                        <path d="M116.659773,103.541936 L108.79386,103.541936 L108.79386,93.2714009 L136.08092,93.2714009 L136.08092,103.541936 L131.474014,103.541936 L176.650572,146.999632 L206.41845,118.301217 C209.512112,119.785206 212.556961,121.708233 215.591566,123.723393 L181.96427,155.742199 L181.964287,172.300246 L171.873037,162.329472 L171.873037,156.31124 L116.659773,103.541936 Z" id="path3776" fill="#FFFFFF"></path>
                        <path d="M221.840249,103.541936 L216.878966,103.541936 L216.878966,92.9172445 L244.166025,92.9172445 L244.166025,103.541936 L236.369723,103.541936 L226.750907,112.933406 C223.839951,110.459004 220.928993,108.944057 218.018038,107.178365 L221.840249,103.541936 Z" id="path3778" fill="#FFFFFF"></path>
                        <path d="M139.801882,108.126997 L147.838655,115.652821 C147.838655,115.652821 160.062744,108.82266 177.327918,108.82266 C207.797368,108.82266 232.078971,128.798281 242.065074,155.337309 L252.886239,155.337309 L252.886239,124.759701 L242.761174,124.759701 L242.761174,133.581988 C230.380422,114.540632 206.382414,98.6090442 177.391199,98.6090442 C155.17859,98.6090442 139.801882,108.126997 139.801882,108.126997 L139.801882,108.126997 Z" id="path3780" fill="#FFFFFF"></path>
                        <path d="M153.091035,207.663917 L153.091035,217.22614 L127.93024,217.22614 L127.93024,207.663917 L135.513916,207.663917 L135.513916,152.769676 L128.284617,152.769676 L128.284617,143.207453 L147.775374,143.207453 L210.145795,202.351571 L210.145795,152.769676 L202.70387,152.769676 L202.70387,143.207453 L227.864665,143.207453 L227.864665,152.769676 L220.068362,152.769676 L220.068362,217.22614 L211.816433,217.22614 L145.649109,154.72293 L145.649109,207.663917 L153.091035,207.663917 Z" id="path3782" fill="#FFFFFF"></path>
                        <path d="M168.853426,245.202555 L168.853426,255.465564 C129.023954,251.725744 98.5264082,217.261991 98.5264082,177.36141 C98.5264082,151.00932 110.392029,131.211563 126.670934,116.822801 L134.210721,124.10108 C118.686086,136.937227 108.762219,155.912112 108.762219,177.408843 C108.762219,211.922634 135.229724,241.047879 168.853426,245.202555 L168.853426,245.202555 Z" id="path3784" fill="#FFFFFF"></path>
                        <path d="M184.805696,255.487922 L184.805696,245.202555 C211.727786,242.281834 235.455177,222.939908 242.641068,197.397943 L253.357951,197.397943 C245.541803,227.914488 218.181147,252.052857 184.805696,255.487922 L184.805696,255.487922 Z" id="path3786" fill="#FFFFFF"></path>
                        <path d="M189.946284,274.953633 L164.076734,274.953633 L164.076734,264.683097 L171.518659,264.683097 L171.518659,182.872969 L181.964287,192.435192 L181.964287,264.683097 L189.946284,264.683097 L189.946284,274.953633 Z" id="path3788" fill="#FFFFFF"></path>
                        <path d="M89.3975657,79.1955505 L75.6808379,65.7915666 L72.7683356,68.7683078 L81.2137687,77.0211825 L66.4843356,75.1909128 L63.7636244,77.9716285 L77.4803525,91.3756123 L80.3922659,88.3994732 L71.6723551,79.8783782 L86.8879391,81.7605282 L89.3975657,79.1955505 Z" id="path3819" fill="#28295C"></path>
                        <path d="M104.059709,67.7257422 L101.746902,64.7701371 L93.5432596,71.1816145 L91.0614618,68.0100519 L98.1852923,62.4424938 L95.8724848,59.4868922 L88.7486546,65.0544503 L86.3513521,61.9908664 L94.4469453,55.6638376 L92.1336232,52.7075737 L80.7353628,61.6157723 L92.5533992,76.7183858 L104.059709,67.7257422 Z" id="path3821" fill="#28295C"></path>
                        <path d="M121.843241,36.4181255 L117.920881,38.4383185 L120.339759,51.7973245 L110.538938,42.179223 L107.323581,43.8352689 L109.474455,57.3934347 L99.9914484,47.6727624 L95.9716934,49.7431147 L110.645597,63.9083612 L113.910024,62.2270427 L112.00861,49.0942364 L121.607554,58.2624743 L124.871982,56.5811487 L121.843241,36.4181255 Z" id="path3823" fill="#28295C"></path>
                        <path d="M152.891818,28.3939678 L148.212038,29.4450838 L145.355614,37.9750218 L139.200933,31.4690554 L134.388149,32.5500466 L144.129302,42.2648863 L145.787926,49.6402075 L149.90548,48.7153741 L148.228878,41.2601376 L152.891818,28.3939678 Z" id="path3825" fill="#28295C"></path>
                        <path d="M172.999539,29.4178715 L172.96067,29.3798882 C171.980753,28.4223443 170.887325,27.7049403 169.680387,27.2276688 C168.473431,26.7504502 167.237082,26.5254259 165.971338,26.5525922 C164.705584,26.5798162 163.452183,26.8554151 162.211132,27.3793909 C160.970085,27.9034173 159.832278,28.6941097 158.797701,29.7514776 C157.763146,30.8088817 156.994569,31.9666207 156.49197,33.224699 C155.989388,34.482813 155.745268,35.7509161 155.75961,37.0290098 C155.773962,38.3071319 156.030181,39.5470618 156.52824,40.7488101 C157.026318,41.9505796 157.76511,43.0300448 158.744609,43.9872126 L158.784076,44.0257803 C159.763593,44.9829623 160.856822,45.7001715 162.063764,46.177415 C163.270717,46.654662 164.507065,46.8796859 165.772816,46.8524866 C167.038564,46.8252874 168.291869,46.5497963 169.532728,46.0259883 C170.773574,45.5021945 171.911483,44.7113987 172.946446,43.6536079 C173.981005,42.5962315 174.749582,41.4384907 175.252181,40.1803855 C175.754759,38.922298 175.998879,37.6541986 175.984541,36.3760765 C175.970189,35.0979827 175.714069,33.8581484 175.216212,32.6565638 C174.718329,31.4550216 173.979438,30.375458 172.999539,29.4178712 L172.999539,29.4178715 Z M169.954016,32.6094744 C170.541637,33.1837185 170.994571,33.8240786 171.312812,34.5305569 C171.631039,35.237067 171.810386,35.961377 171.850863,36.7034728 C171.891319,37.4456075 171.773488,38.1797454 171.497365,38.9058971 C171.22123,39.63207 170.789446,40.2953518 170.201998,40.8957531 C169.60168,41.5093149 168.941333,41.955683 168.220954,42.2348468 C167.500565,42.5140354 166.76239,42.6482111 166.006422,42.6373703 C165.250453,42.6265331 164.512232,42.4670601 163.791761,42.1589086 C163.071294,41.8507819 162.417043,41.4094038 161.829017,40.8347745 L161.790146,40.7967912 C161.202124,40.2221866 160.749095,39.5815283 160.431052,38.8748234 C160.113012,38.1681433 159.933662,37.4438403 159.892997,36.7019074 C159.852339,35.9600064 159.966956,35.2291516 160.236842,34.5093464 C160.506736,33.7895802 160.941841,33.1229059 161.542152,32.5093328 C162.129604,31.908946 162.786736,31.4658662 163.51355,31.1800935 C164.240368,30.8943612 164.981757,30.7569032 165.737726,30.7677153 C166.493698,30.7785666 167.231919,30.9382479 167.952397,31.2467603 C168.672871,31.5553141 169.32692,31.9966957 169.914549,32.5709068 L169.954016,32.6094744 Z" id="path3827" fill="#28295C"></path>
                        <path d="M196.427956,46.7737506 L192.193915,39.6385439 C193.444694,39.2620969 194.479993,38.6109379 195.299824,37.6850775 C196.119616,36.7592312 196.579665,35.5217131 196.679965,33.9725162 L196.683508,33.9182984 C196.812055,31.932059 196.278703,30.34219 195.083455,29.1486843 C193.888172,27.9552099 192.151018,27.284796 189.871978,27.1374369 L181.121068,26.5716989 L179.882625,45.7041027 L184.094085,45.976371 L184.490374,39.8541331 L187.799614,40.0680755 L191.505442,46.4555092 L196.427956,46.7737506 Z M192.399277,33.9152207 C192.34617,34.7354222 192.025632,35.3735978 191.437663,35.8297477 C190.849659,36.2859153 190.036267,36.4804216 188.997463,36.4132487 L184.730926,36.1374211 L185.086565,30.643258 L189.270472,30.9137421 C190.309832,30.9809511 191.106466,31.2612527 191.660375,31.7546475 C192.214264,32.2480706 192.461733,32.9501874 192.402785,33.8610029 L192.399277,33.9152207 Z" id="path3829" fill="#28295C"></path>
                        <path d="M215.850081,51.2410723 L210.272974,38.6955388 L219.66315,32.4478194 L214.686886,31.3428964 L205.270151,37.8372974 L207.089017,29.6558724 L202.969214,28.7411165 L198.808341,47.4571379 L202.928141,48.3718955 L204.200094,42.6505308 L206.86633,40.8853693 L210.900764,50.1421321 L215.850081,51.2410723 Z" id="path3831" fill="#28295C"></path>
                        <path d="M242.020933,58.9343763 L240.683123,55.3611968 C239.715077,55.6871128 238.802832,55.8780031 237.946404,55.9339173 C237.089945,55.9898209 236.16177,55.7932924 235.16187,55.3443567 C234.412181,55.0077629 233.790337,54.5533908 233.296314,53.9812406 C232.80228,53.4090974 232.446712,52.7740383 232.22962,52.0760668 C232.012504,51.3780954 231.928686,50.6399449 231.978161,49.8615942 C232.027621,49.0832611 232.220874,48.3192324 232.557922,47.5695081 L232.580213,47.519951 C232.917236,46.7702409 233.358635,46.1225136 233.904411,45.5767693 C234.450174,45.0310426 235.060411,44.6094017 235.73515,44.311843 C236.409859,44.0143056 237.123271,43.8642425 237.875369,43.86165 C238.627447,43.8591709 239.37019,44.022437 240.103606,44.3517139 C240.987033,44.7483797 241.704258,45.2805422 242.255297,45.9482191 C242.806297,46.6159137 243.285001,47.4114765 243.691418,48.3349357 L247.410279,46.6115434 C247.190091,46.0325544 246.921586,45.4717052 246.604748,44.929003 C246.287867,44.3863186 245.906848,43.8748353 245.4617,43.3945532 C245.016506,42.9142994 244.4864,42.456067 243.871375,42.0198597 C243.256307,41.58367 242.540376,41.1822054 241.723589,40.8154552 C240.373741,40.2094122 239.033804,39.8930762 237.703773,39.8664436 C236.373706,39.8398464 235.12336,40.0591472 233.95272,40.524367 C232.782052,40.9896081 231.726564,41.6667551 230.786252,42.5557939 C229.845915,43.444854 229.095039,44.5138007 228.53363,45.7626482 L228.510986,45.8129668 C227.949553,47.0618214 227.646659,48.3369509 227.602281,49.6383411 C227.557891,50.9397383 227.754174,52.1738707 228.191125,53.3407381 C228.628047,54.507609 229.29164,55.5711195 230.181843,56.5312835 C231.072039,57.4914511 232.158741,58.2596021 233.441949,58.8357508 C234.29232,59.2175562 235.09098,59.4910783 235.83793,59.6563206 C236.584858,59.8215558 237.307568,59.8958897 238.006057,59.8793222 C238.70452,59.8627477 239.381484,59.7713045 240.036955,59.6050033 C240.6924,59.4386915 241.353722,59.2151444 242.020922,58.9343763 L242.020933,58.9343763 Z" id="path3833" fill="#28295C"></path>
                        <path d="M246.673749,65.8806511 L256.641329,49.499193 L253.035415,47.3078468 L243.067835,63.6893049 L246.673749,65.8806511 Z" id="path3835" fill="#28295C"></path>
                        <path d="M271.292725,64.6748124 L273.630564,61.5656698 L260.92281,52.0223059 L258.584968,55.1314449 L263.251924,58.6362722 L254.064863,70.8543315 L257.43871,73.3880478 L266.625766,61.169985 L271.292725,64.6748124 Z" id="path3837" fill="#28295C"></path>
                        <path d="M289.706579,77.0437493 L286.308511,73.6606455 L277.572991,75.8273425 L279.765389,67.1463353 L276.270746,63.6670816 L273.292512,77.0943299 L267.954086,82.4496811 L270.943912,85.4263373 L276.340183,80.0129611 L289.706579,77.0437493 Z" id="path3839" fill="#28295C"></path>
                        <path d="M86.5304431,272.385085 L77.9725462,262.897465 L65.1483718,275.231932 L66.374631,276.610854 L71.9620756,271.236775 L78.4703416,278.476972 L79.7897705,277.207927 L73.2815042,269.96773 L77.8614865,265.562641 L85.1931242,273.671335 L86.5304431,272.385085 Z" id="path3961" stroke="#28295C" stroke-width="0.796796813" fill="#28295C"></path>
                        <path d="M132.422172,302.401713 L138.33297,304.596435 L138.935667,302.842057 L125.663565,297.90143 L125.060867,299.655811 L130.679481,301.725391 L125.502624,316.794562 L127.245315,317.470884 L132.422172,302.401713 Z" id="path3878" stroke="#28295C" stroke-width="0.796796813" fill="#28295C"></path>
                        <path d="M151.080602,305.674897 L143.19955,303.860282 L139.566494,321.273231 L147.742193,323.161554 C148.607296,323.361362 149.411743,323.465756 150.166836,323.427791 C150.921915,323.389822 151.594882,323.23094 152.185749,322.951139 C152.776589,322.671338 153.270314,322.267001 153.666923,321.738121 C154.063503,321.209242 154.339623,320.571817 154.49528,319.825847 C154.619858,319.228665 154.63999,318.675239 154.555669,318.165572 C154.47132,317.655913 154.312634,317.197408 154.079609,316.790057 C153.84655,316.382713 153.547381,316.006883 153.182096,315.662565 C152.816778,315.318254 152.41546,315.012854 151.978141,314.746366 C152.326519,314.676434 152.671395,314.566341 153.012785,314.416097 C153.354139,314.26586 153.680215,314.055219 153.991008,313.784162 C154.301776,313.513122 154.573969,313.179971 154.807579,312.784704 C155.041163,312.389455 155.218515,311.901587 155.339644,311.321096 C155.478057,310.657623 155.482579,310.026144 155.353182,309.426653 C155.22377,308.827187 154.971351,308.284262 154.595916,307.797881 C154.220453,307.311529 153.737132,306.885241 153.14596,306.519022 C152.554755,306.152828 151.866299,305.871454 151.080588,305.674897 L151.080602,305.674897 Z M149.166617,313.362553 L143.348098,312.063861 L144.598869,306.069003 L150.55365,307.401778 C151.686573,307.685185 152.501655,308.159581 152.998904,308.824966 C153.496116,309.490377 153.653081,310.26236 153.46979,311.140915 C153.255214,312.169294 152.752512,312.86373 151.961684,313.224226 C151.170823,313.584736 150.245643,313.60339 149.166617,313.362553 L149.166617,313.362553 Z M148.155713,321.406298 L141.702943,319.948955 L142.984758,313.805308 L149.12075,315.183412 C150.518524,315.49734 151.506082,316.05486 152.107457,316.754822 C152.70881,317.454791 152.909126,318.285812 152.708417,319.247881 C152.500809,320.242848 151.992383,320.926933 151.183138,321.300136 C150.373864,321.673339 149.371362,321.680847 148.155713,321.406298 L148.155713,321.406298 Z" id="path3880" stroke="#28295C" stroke-width="0.796796813" fill="#28295C"></path>
                        <path d="M170.327168,307.729745 L168.602874,307.602163 L159.52415,325.339038 L161.411274,325.478672 L163.978458,320.835214 L173.652826,321.344586 L175.40182,326.183978 L177.382804,326.330556 L170.327168,307.729745 Z M172.992153,319.487698 L164.762638,319.085231 L169.361926,310.000107 L172.992153,319.487698 Z" id="path3882" stroke="#28295C" stroke-width="0.796796813" fill="#28295C"></path>
                        <path d="M202.936239,323.781993 L214.749129,321.598431 L214.365874,319.783511 L204.372849,321.658068 L201.080871,306.068882 L199.261005,306.377884 L202.936239,323.781993 Z" id="path3886" stroke="#28295C" stroke-width="0.796796813" fill="#28295C"></path>
                        <path d="M265.685337,274.400093 L264.253582,275.563394 L271.006817,283.706438 C272.250632,285.20623 272.556612,286.31106 272.556612,287.785091 C272.556612,289.289324 271.530321,290.527696 270.385781,291.512945 C269.16499,292.563833 268.285139,293.083232 266.446037,293.083232 C265.062023,293.083232 263.46253,292.057687 262.184829,290.608592 L255.545239,282.531468 L254.11348,283.694769 L260.837203,291.86731 C261.6339,292.835676 262.527424,293.537288 263.419845,294.055469 C264.312267,294.57366 265.31766,294.999653 266.398674,294.999653 C268.434551,294.999653 269.73927,294.467838 271.487807,293.08178 C273.133216,291.834699 274.601306,289.796076 274.601306,287.594827 C274.620691,285.456789 273.420843,283.485877 272.219454,282.104057 L265.685337,274.400093 Z" id="path3892" stroke="#28295C" stroke-width="0.796796813" fill="#28295C"></path>
                        <path d="M184.249437,325.713789 L196.251682,325.199954 L196.125747,323.349331 L185.968709,323.811126 L184.886965,307.915291 L183.041758,307.967327 L184.249437,325.713789 Z" id="path3912" stroke="#28295C" stroke-width="0.796796813" fill="#28295C"></path>
                        <path d="M250.299855,307.151021 L260.606932,300.983774 L259.613839,299.416724 L250.904214,304.659528 L242.374084,291.199442 L240.776636,292.123882 L250.299855,307.151021 Z" id="path3914" stroke="#28295C" stroke-width="0.796796813" fill="#28295C"></path>
                        <path d="M99.3041431,287.50095 C99.3041431,292.108612 95.5665658,295.843858 90.9560303,295.843858 C86.3454951,295.843858 82.6079178,292.108612 82.6079178,287.50095 C82.6079178,282.893289 86.3454951,279.158043 90.9560303,279.158043 C95.5665658,279.158043 99.3041431,282.893289 99.3041431,287.50095 L99.3041431,287.50095 Z" id="path3916" stroke="#28295C" stroke-width="1.91231247"></path>
                        <path d="M119.339614,300.599314 C119.339614,305.206976 115.602037,308.942222 110.991501,308.942222 C106.380966,308.942222 102.643389,305.206976 102.643389,300.599314 C102.643389,295.991653 106.380966,292.256407 110.991501,292.256407 C115.602037,292.256407 119.339614,295.991653 119.339614,300.599314 L119.339614,300.599314 Z" id="path3918" stroke="#28295C" stroke-width="1.91231247"></path>
                        <path d="M275.060983,264.668917 L269.52721,270.563142 L282.758393,282.460519 L288.504127,276.348878 C289.112104,275.702178 289.607052,275.059873 289.954062,274.388583 C290.301061,273.717301 290.502192,273.056123 290.55745,272.405024 C290.61269,271.75395 290.511384,271.124111 290.253518,270.515501 C289.995637,269.906918 289.583291,269.347776 289.016475,268.838078 C288.562698,268.430072 288.094222,268.134288 287.611046,267.950732 C287.12786,267.767208 286.65152,267.673622 286.182019,267.669978 C285.712508,267.666365 285.236997,267.735709 284.755477,267.878006 C284.273945,268.020338 283.807956,268.213339 283.357507,268.457005 C283.47228,268.120925 283.550558,267.767665 283.592357,267.397221 C283.634149,267.026812 283.616029,266.639209 283.537946,266.234419 C283.45988,265.829657 283.308692,265.426967 283.084382,265.02636 C282.860071,264.62578 282.527375,264.227177 282.086299,263.830547 C281.582155,263.377241 281.038323,263.055678 280.454791,262.865871 C279.871274,262.676093 279.274771,262.621 278.665292,262.7006 C278.05582,262.780243 277.444033,262.98326 276.829943,263.309647 C276.21586,263.636073 275.626205,264.089166 275.060976,264.668927 L275.060983,264.668917 Z M280.746472,270.189273 L276.69641,274.561571 L272.141232,270.465593 L276.289316,265.992746 C277.104313,265.156778 277.92459,264.691413 278.750155,264.596644 C279.575719,264.501918 280.322293,264.754683 280.989866,265.354946 C281.771268,266.057596 282.118941,266.841121 282.03288,267.705525 C281.946816,268.56996 281.497543,269.378442 280.746472,270.189273 L280.746472,270.189273 Z M287.194195,275.108746 L282.687876,279.949051 L278.019641,275.751416 L282.298082,271.144854 C283.272705,270.095482 284.25163,269.52296 285.159477,269.355649 C286.067314,269.188356 286.886752,269.433379 287.617786,270.090693 C288.373801,270.770518 288.709641,271.553781 288.625303,272.440482 C288.540954,273.327208 288.043145,274.196868 287.194195,275.108746 L287.194195,275.108746 Z" id="path3920" stroke="#28295C" stroke-width="0.796796813" fill="#28295C"></path>
                        <path d="M241.003359,306.827206 C239.822758,309.572251 238.197601,311.638845 234.50636,311.638845 C230.815119,311.638845 227.861784,308.687352 227.861784,304.998413 C227.861784,301.309474 230.815119,298.35798 234.50636,298.35798 C235.533966,298.35798 236.504382,298.586723 237.369811,298.996443 L238.463997,295.770762 C237.2481,295.246259 235.909766,294.955348 234.50636,294.955348 C228.976531,294.955348 224.457029,299.472032 224.457029,304.998413 C224.457029,310.524793 228.976531,315.041477 234.50636,315.041477 C239.050981,315.041477 242.913209,311.990838 244.145163,307.836222" id="path3922" fill="#28295C"></path>
                    </g>
                </g>
            </g>
        </g>
    </g>
</svg>