<?xml version="1.0" encoding="UTF-8" standalone="no"?>
<svg width="512px" height="512px" viewBox="0 0 512 512" version="1.1" xmlns="http://www.w3.org/2000/svg" xmlns:xlink="http://www.w3.org/1999/xlink" xmlns:sketch="http://www.bohemiancoding.com/sketch/ns">
    <!-- Generator: Sketch 3.3.1 (12002) - http://www.bohemiancoding.com/sketch -->
    <title>seattle-sounders-fc</title>
    <desc>Created with Sketch.</desc>
    <defs></defs>
    <g id="MLS" stroke="none" stroke-width="1" fill="none" fill-rule="evenodd" sketch:type="MSPage">
        <g id="seattle-sounders-fc" sketch:type="MSArtboardGroup">
            <g sketch:type="MSLayerGroup" transform="translate(111.000000, 46.000000)">
                <path d="M67.2166957,297.835901 C51.6229565,282.99905 35.0024348,270.105069 16.6956522,258.844772 C16.6956522,258.844772 21.4246957,247.162475 23.0066087,241.308792 C35.7036522,194.170139 24.4382609,156.357267 3.60208696,113.208812 C3.60208696,113.208812 36.7304348,116.881465 58.1467826,114.804891 C88.845913,111.813287 116.260174,103.339861 144.004174,89.5141386 C192.246261,113.538891 231.794087,119.041604 284.389565,113.204634 C259.738435,164.249921 250.105043,206.508416 271.296,258.840594 C271.296,258.840594 258.874435,266.486733 251.236174,272.148218 C196.215652,312.919267 168.642783,355.825386 144.004174,419.910891 C125.096348,370.745802 106.00487,334.712851 67.2166957,297.835901" id="Fill-1" fill="#132530" sketch:type="MSShapeGroup"></path>
                <path d="M74.7005217,289.53796 C98.7631304,312.409525 126.849391,345.643069 144,387.730257 C164.151652,338.272693 202.685217,294.113109 245.388522,262.479822 C251.286261,258.117762 255.606261,255.255683 257.630609,253.939545 C253.177043,241.764218 250.806261,228.473307 249.67513,215.658713 C247.629913,192.110277 249.625043,160.247188 265.406609,126.119505 C225.249391,128.87295 179.695304,118.807624 144.008348,101.20897 C108.313043,118.807624 62.7422609,128.87295 22.5933913,126.119505 C39.5686957,162.833505 43.7926957,205.530713 33.3078261,244.530198 C32.1057391,249.017604 31.0038261,252.243188 30.3735652,253.939545 C46.2093913,264.176178 61.0768696,276.564594 74.7005217,289.53796" id="Fill-2" fill="#005595" sketch:type="MSShapeGroup"></path>
                <path d="M75.7314783,288.856911 C99.4309565,311.398396 127.108174,344.147267 144,385.586832 C163.846957,336.885525 201.804522,293.390277 243.881739,262.220772 C249.696,257.908851 253.961739,255.084376 255.944348,253.793307 C251.557565,241.835248 249.203478,228.715644 248.101565,216.080713 C246.098087,192.904139 248.051478,161.492297 263.607652,127.895248 C224.051478,130.598554 179.15687,120.692 144.008348,103.348218 C108.84313,120.687822 63.9526957,130.598554 24.4090435,127.895248 C41.1255652,164.057723 45.2911304,206.111485 34.9565217,244.530198 C33.7586087,248.959109 32.6733913,252.113663 32.064,253.793307 C47.6702609,263.871168 62.3123478,276.088277 75.7314783,288.856911 M73.3147826,291.405624 C59.4323478,278.21499 44.0806957,265.283406 27.698087,255.255683 C27.698087,255.255683 29.7808696,250.187505 31.5464348,243.619347 C42.4570435,203.069743 36.8389565,161.709564 18.5238261,123.767168 C18.5238261,123.767168 36.4466087,125.797782 58.9982609,123.604218 C88.6413913,120.725426 117.253565,112.724139 144,99.4123366 C180.321391,117.50402 228.538435,128.409168 269.472,123.771347 C251.144348,161.709564 245.526261,203.069743 256.445217,243.619347 C258.210783,250.187505 260.297739,255.255683 260.297739,255.255683 C260.297739,255.255683 254.011826,259.099644 245.989565,265.045248 C200.823652,298.496059 164.406261,342.221109 144.004174,395.271941 C128.205913,354.229307 104.815304,321.392693 73.3147826,291.405624" id="Fill-3" fill="#FFFFFF" sketch:type="MSShapeGroup"></path>
                <path d="M49.2313043,159.992317 C38.1871304,99.7215248 39.5478261,38.9326337 39.5478261,38.9326337 L144,2.08910891 L248.439652,38.9326337 C248.439652,38.9326337 249.808696,99.7215248 238.756174,159.992317 C225.996522,229.726772 202.63513,293.273287 144,338.393861 C85.3565217,293.273287 62.0201739,229.73095 49.2313043,159.992317" id="Fill-4" fill="#132530" sketch:type="MSShapeGroup"></path>
                <path d="M64.7081739,156.641386 C75.5186087,215.600218 97.9450435,282.698218 144,319.479069 C213.178435,264.238851 233.659826,133.088772 233.129739,48.9603564 L144,17.5067327 L54.8744348,48.9603564 C54.8118261,59.1343168 55.1332174,104.313386 64.7081739,156.641386" id="Fill-5" fill="#5D9741" sketch:type="MSShapeGroup"></path>
                <path d="M66.674087,156.933861 C77.2048696,214.438673 99.0761739,279.882099 144,315.747921 C211.462957,261.890693 231.443478,133.974554 230.921739,51.8934653 L144,21.2420594 L57.0615652,51.8934653 C56.9989565,61.8501584 57.3203478,105.909465 66.674087,156.933861 M60.6678261,158.028554 C49.9074783,99.2911683 51.0511304,47.5606535 51.0511304,47.5606535 L144,14.7574653 L236.936348,47.5606535 C236.936348,47.5606535 238.075826,99.2828119 227.319652,158.028554 C216.525913,216.933069 194.404174,284.674515 144,323.460911 C93.5833043,284.674515 71.4782609,216.933069 60.6678261,158.028554" id="Fill-6" fill="#FFFFFF" sketch:type="MSShapeGroup"></path>
                <path d="M122.295652,156.027188 L115.650783,107.977683 C109.615304,106.306396 98.3707826,102.454079 98.3707826,94.6115644 C92.64,91.7912673 86.496,87.5085941 86.496,81.3958614 C86.496,74.3639208 94.3304348,69.8013069 101.154783,66.9935446 C105.537391,61.8668713 114.139826,58.3613465 123.890087,56.414297 C124.324174,53.6107129 126.006261,50.9366535 127.89287,49.1734455 C130.568348,46.8921386 133.44,45.2375644 136.269913,44.1804752 L137.16313,42.9520792 L138.74087,22.1445545 C139.70087,16.2783366 145.80313,16.938495 147.639652,19.0317822 C148.457739,19.8465347 149.004522,21.0498614 149.125565,22.1905149 L150.820174,42.9311881 L151.75513,44.2055446 C161.881043,48.2166337 163.846957,53.268099 164.352,56.3474455 C173.897739,57.5883762 182.454261,61.8376238 186.828522,66.9977228 C193.669565,69.8054851 201.495652,74.368099 201.495652,81.4000396 C201.495652,87.5127723 195.351652,91.7578416 189.62087,94.5614257 C189.62087,102.73402 178.514087,106.477703 172.224,108.098851 L165.633391,156.031366 L122.295652,156.031366" id="Fill-7" fill="#FFFFFF" sketch:type="MSShapeGroup"></path>
                <path d="M126.882783,156.027188 L119.649391,104.359347 C110.529391,102.211743 102.857739,98.6477228 102.857739,94.6115644 C102.857739,93.7132475 103.170783,92.8525347 103.788522,92.0252475 C96.3422609,89.1422772 91.8761739,85.4320198 91.8761739,81.3958614 C91.8761739,77.3429901 96.4132174,73.620198 103.963826,70.7079802 C107.340522,65.8528911 116.744348,61.9253663 128.94887,60.1078416 C126.661565,56.5647129 130.893913,52.5076634 130.893913,52.5076634 C133.590261,50.2221782 136.345043,48.7974059 139.058087,47.9826535 L141.566609,44.5272673 L143.136,22.6459406 C143.974957,19.5749505 144.864,22.6459406 144.864,22.6459406 L146.433391,44.5272673 L148.353391,47.1637228 C155.40313,49.2319406 158.212174,52.6956832 158.212174,52.6956832 L156.763826,52.5912277 C150.298435,53.3809109 148.537043,56.8279406 148.791652,59.1343168 C165.850435,59.8947525 179.753739,64.566 184.040348,70.703802 C191.586783,73.6160198 196.119652,77.3429901 196.119652,81.3916832 C196.119652,85.4236634 191.666087,89.1422772 184.219826,92.0210693 C184.816696,92.8483564 185.138087,93.7132475 185.138087,94.6073861 C185.138087,98.6393663 178.468174,102.215921 168.187826,104.417842 L161.113043,156.02301 L157.444174,156.02301 L161.35513,107.513901 C161.442783,106.937307 161.534609,105.353762 159.468522,105.717267 C157.94087,105.96796 154.226087,106.540376 154.226087,106.540376 C152.481391,106.832851 152.393739,107.969327 152.393739,108.675446 C152.393739,108.675446 152.439652,134.053941 152.422957,156.018832 L135.606261,156.018832 L135.606261,108.930317 C135.606261,108.930317 135.977739,106.912238 133.811478,106.565446 L128.731826,105.750693 C126.114783,105.245129 126.619826,107.413624 126.619826,107.413624 L130.597565,156.018832 L126.882783,156.018832" id="Fill-8" fill="#132530" sketch:type="MSShapeGroup"></path>
                <path d="M160.207304,71.6731485 C156.550957,70.7288713 152.911304,70.3110495 149.133913,70.436396 L150.386087,69.7344554 C154.526609,67.4406139 161.000348,66.8180594 165.971478,68.075703 C170.412522,69.2247129 181.765565,75.500396 178.985739,82.941802 C177.495652,81.3206535 175.955478,79.8624554 174.323478,78.5839208 C174.323478,78.5839208 172.729043,79.1605149 173.213217,81.061604 C176.360348,84.0866337 178.088348,88.0225149 176.744348,91.6157822 C172.549565,85.7579208 163.237565,80.7022772 156.104348,78.4251485 L155.469913,78.2245941 C159.334957,75.2789505 164.577391,75.767802 168.955826,78.032396 C168.955826,78.032396 170.533565,77.2218218 170.066087,75.6925941 C167.035826,73.9252079 163.767652,72.5923564 160.207304,71.6731485" id="Fill-9" fill="#FFFFFF" sketch:type="MSShapeGroup"></path>
                <path d="M113.380174,289.107604 C118.530783,254.716693 122.178783,240.205743 124.082087,204.933228 L163.905391,204.933228 C166.00487,241.325505 169.769739,254.716693 175.446261,289.358297 L144.004174,321.288238 L113.380174,289.107604" id="Fill-10" fill="#FFFFFF" sketch:type="MSShapeGroup"></path>
                <path d="M117.174261,291.568574 C119.858087,276.823644 127.145739,243.552495 128.923826,204.958297 L159.038609,204.958297 C160.812522,243.552495 168.070957,276.689941 170.771478,291.464119 L163.70087,300.30105 C160.407652,284.068673 158.504348,274.408634 155.524174,258.347564 C155.056696,255.790495 154.38887,254.311406 153.282783,254.453465 C152.385391,254.58299 151.94713,255.769604 151.859478,258.652574 L148.307478,313.178317 L143.987478,319.662911 L139.650783,313.178317 L136.10713,258.652574 C136.006957,255.769604 135.577043,254.587168 134.692174,254.453465 C133.586087,254.311406 132.914087,255.790495 132.442435,258.347564 C129.466435,274.408634 127.621565,283.851406 124.345043,300.083782 L117.174261,291.568574" id="Fill-11" fill="#132530" sketch:type="MSShapeGroup"></path>
                <path d="M1.52765217,157.276475 C48.237913,137.321307 93.12,127.134812 144,127.134812 C194.867478,127.134812 239.749565,137.321307 286.472348,157.276475 L286.472348,247.041307 C238.013217,226.342416 196.900174,215.466515 144,215.466515 C91.1165217,215.466515 49.9867826,226.338238 1.52765217,247.041307 L1.52765217,157.276475" id="Fill-12" fill="#132530" sketch:type="MSShapeGroup"></path>
                <path d="M10.5725217,163.096733 L10.5725217,235.175168 C51.8149565,217.572337 97.2313043,207.807842 144.914087,207.807842 C192.592696,207.807842 237.984,217.568158 279.234783,235.175168 L279.234783,163.096733 C237.984,145.468832 192.588522,135.733584 144.914087,135.733584 C97.2313043,135.733584 51.8149565,145.47301 10.5725217,163.096733" id="Fill-13" fill="#FFFFFF" sketch:type="MSShapeGroup"></path>
                <path d="M72.3673043,164.684455 C72.3673043,167.400297 73.6361739,167.818119 76.7833043,167.195564 L80.9655652,166.38499 C85.5610435,165.490851 86.592,164.747129 86.592,161.358594 C86.592,157.706832 85.3481739,157.59402 79.9721739,158.651109 C76.269913,159.386475 75.8483478,159.432436 75.8483478,158.341921 C75.8483478,157.669228 76.3784348,157.276475 77.1547826,157.113525 L80.9906087,156.37398 C82.5766957,156.056436 82.6643478,156.424119 82.6643478,157.343327 L86.1286957,156.666455 L86.1286957,156.277881 C86.1286957,154.063426 85.7572174,152.626119 81.7627826,153.403267 L76.9377391,154.343366 C72.576,155.191545 72.3881739,156.984 72.3881739,159.252772 C72.3881739,162.340475 72.9808696,162.912891 78.1815652,161.893406 C82.6434783,161.036871 83.0483478,161.01598 83.0483478,162.114851 C83.0483478,163.08002 82.2886957,163.314 81.554087,163.456059 L77.325913,164.283347 C76.3283478,164.475545 75.8483478,164.475545 75.8233043,163.15105 L72.3673043,163.815386 L72.3673043,164.684455" id="Fill-14" fill="#132530" sketch:type="MSShapeGroup"></path>
                <path d="M96.8806957,163.451881 L109.410783,161.897584 L109.410783,158.885089 L100.336696,160.017386 L100.336696,157.99095 L107.553391,157.10099 L108.755478,154.376792 L100.336696,155.396277 L100.336696,153.37402 L109.222957,152.308574 L109.222957,149.379644 L96.8806957,150.896337 L96.8806957,163.451881" id="Fill-15" fill="#132530" sketch:type="MSShapeGroup"></path>
                <path d="M126.878609,150.95901 L129.12,155.500733 L124.699826,155.822455 L126.878609,150.95901 L126.878609,150.95901 Z M118.530783,161.187287 L122.374957,160.903168 L123.397565,158.621861 L130.409739,158.13301 L131.486609,160.284792 L135.334957,159.996495 L129.124174,147.896376 L124.624696,148.205564 L118.530783,161.187287 L118.530783,161.187287 Z" id="Fill-16" fill="#132530" sketch:type="MSShapeGroup"></path>
                <path d="M141.879652,150.737564 L146.738087,150.833663 L146.738087,160.259723 L150.189913,160.322396 L150.189913,150.896337 L155.056696,150.984079 L155.056696,147.854594 L141.879652,147.62897 L141.879652,150.737564" id="Fill-17" fill="#132530" sketch:type="MSShapeGroup"></path>
                <path d="M161.810087,151.247307 L166.67687,151.589921 L166.67687,161.011802 L170.120348,161.24996 L170.120348,151.823901 L174.982957,152.162337 L174.982957,149.041208 L161.810087,148.130356 L161.810087,151.247307" id="Fill-18" fill="#132530" sketch:type="MSShapeGroup"></path>
                <path d="M184.05287,162.545208 L195.264,164.124574 L195.264,160.89899 L187.521391,159.804297 L187.521391,150.495228 L184.05287,150.010554 L184.05287,162.545208" id="Fill-19" fill="#132530" sketch:type="MSShapeGroup"></path>
                <path d="M203.073391,165.453248 L215.611826,167.88497 L215.611826,164.872475 L206.541913,163.096733 L206.541913,161.08701 L213.499826,162.415683 L214.948174,160.130198 L206.541913,158.496515 L206.541913,156.486792 L215.415652,158.216574 L215.415652,155.308535 L203.073391,152.893525 L203.073391,165.453248" id="Fill-20" fill="#132530" sketch:type="MSShapeGroup"></path>
                <path d="M53.2591304,183.879188 C48.9349565,185.007307 46.0132174,189.724515 46.0132174,195.214693 C46.0132174,200.675624 48.9349565,203.930455 53.2591304,202.798158 C57.5874783,201.67004 60.4883478,196.906871 60.4883478,191.445941 C60.4883478,185.968297 57.5874783,182.751069 53.2591304,183.879188 M53.1422609,209.107267 C44.6817391,211.321723 39.2806957,205.927644 39.2806957,196.965366 C39.2806957,187.97802 44.9488696,179.709327 53.4093913,177.49905 C61.8323478,175.313842 67.2667826,180.695386 67.2667826,189.670198 C67.2667826,198.636653 61.5693913,206.905347 53.1422609,209.107267" id="Fill-21" fill="#132530" sketch:type="MSShapeGroup"></path>
                <path d="M120.237913,166.489446 L120.384,196.037802 L101.597217,181.209307 L104.439652,185.379168 L104.318609,196.936119 L97.3773913,197.75505 L97.3648696,168.060455 L113.376,181.380614 L113.476174,167.036792 L120.237913,166.485267" id="Fill-22" fill="#132530" sketch:type="MSShapeGroup"></path>
                <path d="M135.53113,188.604752 C139.279304,188.742634 140.185043,186.444614 140.185043,184.271941 L140.185043,176.366752 C140.185043,170.433683 136.32,171.812495 132.734609,171.578515 L132.734609,188.742634 L135.53113,188.604752 L135.53113,188.604752 Z M145.974261,174.887663 L145.974261,184.393109 C145.974261,192.131168 139.980522,194.813584 136.82087,194.742554 C131.027478,194.934752 126.528,194.972356 126.528,194.972356 L126.565565,169.088297 L124.032,166.230396 C124.032,166.230396 131.286261,165.758257 137.701565,165.68305 C141.708522,165.875248 145.974261,167.391941 145.974261,174.887663 L145.974261,174.887663 Z" id="Fill-23" fill="#132530" sketch:type="MSShapeGroup"></path>
                <path d="M169.619478,166.706713 L169.65287,172.706634 L158.425043,172.038119 L158.358261,177.632752 L167.92487,178.476752 L164.71513,183.348554 L158.391652,182.784495 L158.408348,188.897228 L169.711304,189.816436 L169.769739,195.665941 L151.855304,194.617208 L151.725913,179.81796 L148.39513,176.751149 L151.721739,177.07705 L151.771826,165.758257 L169.619478,166.706713" id="Fill-24" fill="#132530" sketch:type="MSShapeGroup"></path>
                <path d="M186.373565,174.039485 L181.331478,173.270693 L181.331478,180.73299 L186.373565,181.50596 C188.719304,181.852752 190.263652,180.540792 190.263652,178.347228 C190.263652,176.157842 188.719304,174.377921 186.373565,174.039485 M190.543304,198.009921 L185.175652,185.930693 L181.331478,185.345743 L181.331478,196.635287 L175.963826,195.837248 L175.963826,169.644 L173.505391,167.187208 L186.715826,169.155149 C192.296348,169.982436 195.622957,174.423881 195.622957,179.145267 C195.622957,183.114574 193.281391,185.220396 190.614261,185.817881 L196.741565,198.933307 L190.543304,198.009921" id="Fill-25" fill="#132530" sketch:type="MSShapeGroup"></path>
                <path d="M186.281739,181.99899 L180.834783,181.15499 L180.834783,172.702455 L186.469565,173.546455 L186.373565,174.035307 L186.285913,174.490733 L181.811478,173.843109 L181.811478,180.31099 L186.473739,181.008752 L187.296,181.050535 C188.882087,180.950257 189.754435,180.035228 189.779478,178.359762 C189.779478,176.421069 188.422957,174.816634 186.281739,174.490733 L186.369391,174.035307 L186.465391,173.546455 C189.011478,173.914139 190.747826,175.886257 190.735304,178.309624 C190.735304,180.407089 189.345391,181.936317 187.291826,182.036594 L186.281739,181.99899 L186.281739,181.99899 Z M195.91513,198.327465 L189.913043,185.487802 L190.526609,185.354099 C193.005913,184.777505 195.122087,182.934911 195.151304,179.16198 C195.130435,174.66204 191.991652,170.437861 186.624,169.631465 L174.912,167.893327 L176.456348,169.426733 L176.456348,195.419426 L180.838957,196.079584 L180.838957,184.79004 L185.517913,185.49198 L190.877217,197.583743 L195.91513,198.327465 L195.91513,198.327465 Z M189.921391,197.838614 L184.837565,186.369406 L181.807304,185.918158 L181.807304,196.844198 L175.483826,196.11301 L175.483826,170.345941 L172.353391,166.940693 L187.296,168.557663 C193.101913,169.430911 196.111304,174.177366 196.102957,179.120198 C196.132174,183.010119 193.903304,185.341564 191.302957,186.14796 L197.338435,199.117149 L189.921391,197.838614 L189.921391,197.838614 Z" id="Fill-26" fill="#132530" sketch:type="MSShapeGroup"></path>
                <path d="M208.557913,201.774495 C205.369043,201.147762 201.508174,199.083723 199.024696,196.936119 L200.706783,191.166 C203.014957,193.330317 205.982609,195.005782 208.637217,195.540594 C210.937043,195.99602 211.792696,195.064277 211.767652,193.614436 C211.738435,192.101921 211.020522,190.93202 206.679652,188.291386 C201.679304,185.237109 199.89287,181.92796 199.834435,178.422436 C199.763478,174.152297 203.031652,170.688554 209.605565,171.98798 C212.66087,172.589644 215.845565,174.340317 217.506783,175.798515 L215.958261,181.522673 C214.330435,180.051941 211.705043,178.309624 209.705739,177.912693 C207.314087,177.444733 206.370783,178.414079 206.408348,179.604871 C206.445913,181.50596 207.877565,182.429347 211.425391,184.685584 C216.730435,188.032337 218.354087,190.948733 218.42087,194.70495 C218.512696,199.338594 215.315478,203.115703 208.557913,201.774495" id="Fill-27" fill="#132530" sketch:type="MSShapeGroup"></path>
                <path d="M80.8528696,202.150535 C73.8782609,203.391465 70.0048696,199.727168 70.0048696,191.358198 L70.0048696,173.880713 L76.0027826,172.618891 L76.0027826,189.724515 C76.0027826,194.032257 77.5554783,196.338634 80.9906087,195.728614 C84.384,195.089347 85.9366957,192.206376 85.9366957,187.873564 L85.9366957,170.734515 L94.2636522,169.460158 L91.9429565,172.217782 L91.9429565,187.246832 C91.9387826,195.774574 87.8024348,200.930495 80.8528696,202.150535" id="Fill-28" fill="#132530" sketch:type="MSShapeGroup"></path>
                <path d="M27.2514783,218.654495 C23.9332174,219.857822 19.9513043,219.928851 17.3968696,219.076495 L19.2834783,211.802218 C21.6333913,212.779921 24.6928696,212.834238 27.4393043,211.814752 C29.8434783,210.941505 30.7617391,209.408099 30.7617391,207.866337 C30.7617391,206.24101 30.0062609,205.405366 25.5443478,205.121248 C20.3895652,204.816238 18.6031304,202.267525 18.6031304,198.50295 C18.6031304,193.940337 22.0633043,188.216178 28.8793043,185.700891 C32.064,184.522634 35.3363478,184.514277 37.0518261,185.099228 L35.3405217,192.248158 C33.6709565,191.617248 30.957913,191.303881 28.8834783,192.064317 C26.4166957,192.966812 25.4191304,194.571248 25.4191304,195.849782 C25.4191304,197.905465 26.88,198.043347 30.5488696,198.369248 C36.0208696,198.820495 37.6612174,201.06002 37.6612174,205.071109 C37.6612174,210.064079 34.2636522,216.059822 27.2514783,218.654495" id="Fill-29" fill="#132530" sketch:type="MSShapeGroup"></path>
                <path d="M231.556174,189.870752 L231.556174,177.07705 L249.366261,181.848574 L249.366261,188.295564 L238.071652,185.278891 L238.071652,191.608891 L247.842783,194.216099 L244.603826,198.611584 L238.071652,196.877624 L238.071652,209.119802 L231.556174,207.381663 L231.556174,192.640911 L228.279652,188.972436 L231.556174,189.870752 M231.556174,192.540634 L228.530087,189.12703" id="Fill-30" fill="#132530" sketch:type="MSShapeGroup"></path>
                <path d="M264.258783,219.51103 C255.247304,216.206059 249.132522,207.377485 249.132522,198.465347 C249.132522,189.519782 255.238957,185.145188 264.258783,188.44598 C267.456,189.603347 270.398609,191.709168 272.894609,194.211921 L270.93287,199.405446 C268.896,197.433327 266.592,195.820535 264.325565,194.997426 C259.158261,193.108871 255.952696,195.394356 255.952696,200.968099 C255.952696,206.529307 259.158261,211.154594 264.325565,213.034792 C266.592,213.862079 269.16313,213.991604 271.237565,213.356515 L273.153391,219.970634 C270.749217,220.781208 267.414261,220.651683 264.258783,219.506851" id="Fill-31" fill="#132530" sketch:type="MSShapeGroup"></path>
            </g>
        </g>
    </g>
</svg>