<svg width="512" height="512" viewBox="0 0 512 512" version="1.1" xmlns="http://www.w3.org/2000/svg" xmlns:sketch="http://www.bohemiancoding.com/sketch/ns"><title>cleveland-indians</title><desc>Created with Sketch.</desc><path d="M200.103 103.25c34.369-.034 68.746-.021 103.122-.007 3.905 3.98 7.816 7.975 11.891 11.791.048-3.939 0-7.871.027-11.805 16.921 0 33.842.007 50.762-.007.013 36.411.007 72.829.007 109.24-16.927-.007-33.848-.007-50.776 0-.013-12.208.021-24.415-.013-36.623-7.24-7.066-14.403-14.208-21.518-21.404-23.844-.013-47.695-.027-71.539.008-7.094 7.196-14.258 14.33-21.497 21.377-.048 53.78-.027 107.56-.014 161.34 7.459 7.292 14.862 14.652 22.191 22.081 23.398.02 46.795.027 70.201-.008 7.321-7.422 14.718-14.774 22.177-22.066.034-11.983 0-23.965.013-35.947h50.776c-.013 19.718.028 39.442-.021 59.16-6.765 6.527-13.353 13.245-20.043 19.855-.885.744-1.969 1.221-2.779 2.054-9.113 9.204-18.416 18.223-27.488 27.467-38.72.034-77.447.034-116.166 0-16.694-16.761-33.471-33.447-50.309-50.066-.027-68.569-.027-137.137 0-205.705 17.072-16.837 34.067-33.755 50.995-50.735z" sketch:type="MSShapeGroup" fill="#D30335" stroke="none" stroke-width="1"/></svg>