<svg width="512" height="512" viewBox="0 0 512 512" version="1.1" xmlns="http://www.w3.org/2000/svg" xmlns:sketch="http://www.bohemiancoding.com/sketch/ns"><title>milwaukee-brewers</title><desc>Created with Sketch.</desc><g sketch:type="MSShapeGroup" stroke="none" stroke-width="1" fill="none"><path d="M118.919 256.221c0-36.529 14.388-70.671 40.084-96.277 25.699-25.946 60.301-39.944 96.617-39.944 36.657 0 70.918 13.998 96.958 39.944 25.696 25.606 40.087 59.748 40.087 96.277 0 75.108-61.327 136.224-137.042 136.224-36.316 0-70.918-13.998-96.614-39.947-25.699-25.601-40.09-59.742-40.09-96.277z" fill="#09152F"/><path d="M122.346 256.221c0-35.507 13.703-68.963 39.058-93.887 25.352-25.264 58.584-38.919 94.215-38.919s69.207 13.656 94.559 38.919c25.008 24.924 39.058 58.383 39.058 93.887 0 73.406-59.957 132.809-133.617 132.809-35.631 0-68.863-13.656-94.215-38.919-25.355-24.924-39.058-58.383-39.058-93.89z" fill="#fff"/><path d="M255.619 165.067c-50.363 0-91.476 40.969-91.476 91.157 0 24.241 9.594 47.457 26.725 64.526 17.472 17.074 40.425 26.634 64.751 26.634 24.667 0 47.623-9.561 64.751-26.634 17.474-17.068 26.725-40.284 26.725-64.526 0-24.241-9.25-47.115-26.725-64.528-17.128-17.071-40.084-26.629-64.751-26.629z" fill="#9F1D20"/><path d="M255.619 168.48c-48.649 0-88.048 39.262-88.048 87.742 0 48.48 39.399 87.742 88.048 87.742s88.392-39.262 88.392-87.742c0-48.477-39.743-87.742-88.392-87.742z" fill="#fff"/><path d="M200.118 188.283l2.396 2.73-4.109 10.24-2.055-2.73 3.768-10.24zm-12.166 11.79l10.108-1.889-2.398-2.73-4.327.811c-1.163 1.234-2.292 2.504-3.383 3.808zm19.018-4.279l1.714 3.073-4.797 9.9-2.055-3.073 5.138-9.9zm-16.446 8.193l2.057 2.733 10.961-1.025-2.055-2.73-10.964 1.022zm22.271.342l1.711 3.415-5.823 9.218-1.714-3.073 5.826-9.561zm-17.13 6.145l2.055 3.073 10.964.343-2.057-3.075-10.961-.34zm21.925 3.073l1.37 3.415-6.852 8.535-1.029-3.415 6.511-8.535zm-17.472 4.438l1.37 3.073 11.308 1.365-1.716-3.412-10.961-1.025z" fill="#9F1D20"/><path d="M221.702 223.105l1.026 3.415-7.537 7.853-1.029-3.415 7.539-7.853z" fill="#8F3326"/><path d="M203.886 225.498l1.029 3.412 10.961 2.39-1.37-3.415-10.62-2.387z" fill="#9F1D20"/><path d="M224.785 233.005l.685 3.415-8.565 7.17-.685-3.755 8.565-6.831zm-18.159.686l.688 3.415 10.617 3.412-.682-3.412-10.623-3.415zm20.214 9.218v3.755l-8.909 6.145-.341-3.755 9.25-6.145zm-18.157-1.026l.341 3.415 9.935 4.438-.341-3.415-9.935-4.438zm18.842 11.266v3.758l-9.935 5.117.341-3.41 9.594-5.466zm-17.816-3.073v3.755l9.594 5.463v-3.412l-9.594-5.805zm17.816 13.659l-.685 3.415-10.276 4.092.685-3.412 10.276-4.095zm-17.472-5.121l-.344 3.752 8.909 6.488.341-3.755-8.906-6.485zm16.102 15.364l-1.026 3.412-10.623 3.075 1.029-3.418 10.62-3.07zm-16.79-6.828l-.682 3.412 8.221 7.507.685-3.41-8.224-7.51zm14.391 16.725l-1.029 3.418-10.961 2.045 1.37-3.412 10.62-2.05zm-16.101-8.193l-1.029 3.415 7.537 8.196 1.029-3.418-7.537-8.193z" fill="#8F3326"/><path d="M220.673 293.778l-1.714 3.073-10.961 1.025 1.367-3.418 11.308-.68zm-15.076-10.245l-1.711 3.418 6.508 8.872 1.373-3.067-6.17-9.224zm10.623 19.461l-2.057 3.075-10.961-.343 2.055-3.075 10.964.343zm-14.047-11.606l-1.714 3.412 5.482 9.561 1.714-3.412-5.482-9.561zm8.565 20.486l-2.055 2.73-10.964-1.365 2.055-2.73 10.964 1.365zm-12.675-12.975l-2.057 3.073 4.453 9.903 2.055-2.733-4.45-10.243zm6.508 21.168l-2.396 2.73-5.546-1.426c-1.118-1.006-2.211-2.039-3.276-3.1l.598-.599 10.62 2.396zm-11.305-13.998l-2.399 2.73 3.335 10.299.182.178 2.306-2.627-3.424-10.58zm118.033 18.249l-2.234-2.546 3.768-10.583 2.399 2.73-3.609 10.137-.324.262zm12.166-11.917l-9.949 1.861 2.398 2.73 4.137-.772c1.18-1.24 2.315-2.513 3.413-3.819zm-18.856 4.251l-2.055-3.075 4.797-9.895 2.055 3.067-4.797 9.903zm16.446-7.853l-2.396-3.073-10.964 1.022 2.055 3.075 11.305-1.025z" fill="#9F1D20"/><path d="M298.786 308.114l-1.714-3.067 5.826-9.561 1.711 3.412-5.823 9.215zm17.131-6.143l-2.055-3.073-10.964-.343 1.711 3.415h11.308zm-22.269-3.072l-1.373-3.075 6.852-8.872 1.373 3.41-6.852 8.538zm17.813-4.098l-1.711-3.412-10.964-1.365 1.714 3.412 10.961 1.365zm-21.581-5.12l-1.026-3.755 7.534-7.856 1.029 3.418-7.537 8.193zm17.816-2.73l-1.029-3.418-10.961-2.387 1.026 3.415 10.964 2.39zm-20.899-7.174l-.685-3.752 8.565-7.17.341 3.758-8.221 7.165zm18.156-.679l-1.029-3.758-10.276-3.412.682 3.755 10.623 3.415zm-20.214-9.558l-.341-3.761 9.25-6.142.341 3.755-9.25 6.148zm18.16 1.365l-.344-3.755-10.279-4.44.344 3.412 10.279 4.783zm-19.186-11.611l.344-3.755 9.591-5.12v3.755l-9.935 5.12zm18.157 3.073l-.341-3.752-9.253-5.466v3.758l9.594 5.46zm-17.813-13.313l.682-3.755 9.938-4.098-.347 3.412-10.273 4.44zm17.472 4.777l.341-3.755-8.906-6.485-.344 3.755 8.909 6.485zm-16.105-15.02l.688-3.755 10.62-3.073-.685 3.755-10.623 3.073zm16.79 6.488l.685-3.415-8.221-7.51-.688 3.413 8.224 7.513zm-14.735-16.731l1.375-3.413 10.958-2.05-1.367 3.415-10.967 2.047zm16.104 8.538l1.026-3.415-7.193-8.193-1.029 3.412 7.196 8.196zm-12.674-18.096l1.711-3.415 10.964-.683-1.714 3.073-10.961 1.025zm15.07 9.9l1.373-3.412-6.508-8.878-1.373 3.415 6.508 8.875z" fill="#8F3326"/><path d="M295.362 209.449l2.055-3.073 10.964.343-2.055 3.07-10.964-.34zm14.044 11.608l1.714-3.073-5.482-9.558-1.714 3.07 5.482 9.561zm-8.906-20.483l2.399-2.733 10.964 1.365-2.401 2.733-10.961-1.365zm12.677 12.973l2.055-3.073-4.456-9.9-2.055 2.73 4.456 10.243zm-6.51-21.169l2.74-2.733 5.275 1.357c1.182 1.053 2.337 2.137 3.461 3.254l-.514.513-10.961-2.39zm11.307 13.999l2.396-2.73-3.427-10.243-2.396 2.733 3.427 10.24z" fill="#9F1D20"/><path d="M125.773 256.221c0-71.356 58.243-129.394 129.846-129.394 71.947 0 130.19 58.038 130.19 129.394 0 71.696-58.243 129.733-130.19 129.733-71.603.003-129.846-58.035-129.846-129.733zm129.846-94.569c-52.418 0-94.9 42.335-94.9 94.569 0 52.235 42.483 94.569 94.9 94.569 52.418 0 94.9-42.334 94.9-94.569s-42.483-94.569-94.9-94.569z" fill="#09152F"/><path d="M172.368 315.972c-9.594-13.319-16.787-28.342-19.185-44.388 2.74 17.074 8.565 33.462 18.844 47.118l.341-2.73zm-11.993 11.948c-11.649-15.709-20.558-34.142-23.641-53.603 3.083 19.118 9.935 37.557 21.243 53.26l2.398.343zm-2.055-16.731l1.714 1.022c-9.25-15.703-15.761-33.799-16.446-52.232.685 18.776 5.482 37.209 15.076 53.597l-.344-2.387zm1.714 2.73l1.711 14.001 9.25 1.022-10.961-15.023zm10.961 15.023l1.029-9.218-11.99-5.805 10.961 15.023zm20.899 30.044c3.427 2.387 7.195 4.098 10.62 6.148l10.964-4.44c-3.427-1.365-6.852-2.73-9.938-4.44l-11.646 2.733zm23.982 2.733l-10.961 4.44c3.768 1.702 7.537 3.075 11.305 4.44l10.279-5.463c-.685 0-1.029-.343-1.37-.343-3.086-1.025-6.17-1.71-9.253-3.075zm-46.936-21.166c2.74 3.07 5.823 5.8 8.909 8.533l11.305-1.702c-2.74-2.05-5.479-4.44-8.221-6.828h-11.993v-.003zm10.964 9.898c3.083 2.73 6.511 5.126 9.935 7.17l10.961-2.73c-3.083-1.708-6.167-3.755-9.25-5.805l-11.646 1.365zm38.714 21.169c4.109 1.022 7.878 2.045 11.99 3.075l9.25-6.833c-3.768-.337-7.196-1.022-10.62-2.045l-10.62 5.803zm-59.272-41.992l1.714 2.045c2.055 2.73 4.112 4.783 6.167 7.17h11.649c-2.74-2.73-5.482-5.12-7.88-7.85l-11.649-1.365zm73.661 45.404c4.112 1.028 7.88 1.365 11.992 1.708l8.565-7.507c-3.768 0-7.193-.343-10.964-1.028l-9.594 6.828zm-22.954-26.971c-3.083-1.708-5.823-3.075-8.565-4.778l3.083 11.263c3.086 1.708 6.511 3.418 9.938 4.783l-4.456-11.268zm17.131 15.366l-5.823-10.583c-2.74-1.028-5.823-2.393-8.909-3.761l4.453 10.926c2.742 1.022 5.823 2.05 8.565 3.075l1.714.343zm-38.032-29.364c-2.396-2.045-4.794-4.098-6.852-6.485v11.611c2.74 2.387 5.482 4.778 8.565 6.828l-1.714-11.953zm9.937 7.513c-2.74-1.708-5.141-3.418-7.88-5.463l1.714 11.605c3.083 2.05 6.167 3.761 9.25 5.805l-3.083-11.948zm34.261 14.68c-3.083-.68-6.167-1.365-9.25-2.387l5.823 10.24c3.424.685 6.852 1.708 10.62 2.05l-7.193-9.903zm-53.105-30.726c-1.714-1.708-3.083-3.418-4.453-5.463-.685-.685-1.37-1.365-1.714-2.05l-1.37 11.611c2.398 2.73 4.797 5.463 7.537 7.85v-11.948zm65.439 32.777c-3.083-.343-6.167-.685-9.594-1.365l6.852 9.561c3.768.337 7.537.68 10.964.68l-8.221-8.875zm93.53-42.335c9.594-13.319 16.446-28.342 18.841-44.388-2.396 17.074-8.221 33.462-18.5 47.118l-.341-2.73zm11.649 11.948c11.99-15.709 20.899-34.142 23.638-53.603-2.74 19.118-9.594 37.557-20.899 53.26l-2.74.343zm2.398-16.731l-2.055 1.022c9.594-15.703 15.761-33.799 16.446-52.232-.685 18.776-5.138 37.209-14.732 53.597l.341-2.387zm-2.057 2.73l-1.37 14.001-9.25 1.022 10.62-15.023zm-10.62 15.023l-1.029-9.218 11.649-5.805-10.62 15.023zm-21.24 30.044c-3.427 2.387-6.852 4.098-10.623 6.148l-10.62-4.44c3.427-1.365 6.852-2.73 9.935-4.44l11.308 2.733zm-23.982 2.733l11.305 4.44c-3.768 1.702-7.537 3.075-11.305 4.44l-10.279-5.463 1.37-.343c3.083-1.025 6.167-1.71 8.909-3.075zm46.936-21.166c-2.74 3.07-5.823 5.8-8.562 8.533l-11.649-1.702c3.083-2.05 5.823-4.44 8.562-6.828h11.649v-.003zm-10.62 9.898c-3.427 2.73-6.511 5.126-9.938 7.17l-11.305-2.73c3.427-1.708 6.508-3.755 9.25-5.805l11.993 1.365zm-39.058 21.169c-3.768 1.022-7.537 2.045-11.649 3.075l-9.25-6.833c3.424-.337 7.193-1.022 10.62-2.045l10.279 5.803zm59.613-41.992l-2.055 2.045c-1.714 2.73-3.771 4.783-5.826 7.17h-11.649c2.74-2.73 5.141-5.12 7.537-7.85l11.993-1.365zm-73.658 45.404c-4.112 1.028-8.224 1.365-12.336 1.708l-8.221-7.507c3.424 0 7.195-.343 10.62-1.028l9.938 6.828zm22.954-26.971c2.74-1.708 5.482-3.075 8.221-4.778l-2.74 11.263c-3.427 1.708-6.511 3.418-9.938 4.783l4.456-11.268zm-17.472 15.366l5.823-10.583c3.086-1.028 6.167-2.393 8.909-3.761l-4.112 10.926c-3.086 1.022-5.823 2.05-8.562 3.075l-2.057.343zm38.027-29.364c2.74-2.045 4.797-4.098 7.193-6.485v11.611c-2.74 2.387-5.823 4.778-8.562 6.828l1.37-11.953zm-9.935 7.513c2.74-1.708 5.482-3.418 7.88-5.463l-1.37 11.605c-3.086 2.05-6.167 3.761-9.594 5.805l3.083-11.948zm-34.261 14.68c3.086-.68 6.17-1.365 9.253-2.387l-5.482 10.24c-3.427.685-7.193 1.708-10.62 2.05l6.849-9.903zm53.446-30.726c1.37-1.708 3.086-3.418 4.456-5.463l1.711-2.05 1.37 11.611c-2.396 2.73-5.138 5.463-7.878 7.85l.341-11.948zm-65.777 32.777c3.427-.343 6.508-.685 9.591-1.365l-6.852 9.561c-3.424.337-7.193.68-10.961.68l8.221-8.875z" fill="#AB823A"/><path d="M228.553 289.001c-5.823 2.727-11.649 5.8-17.131 9.555l-2.396 1.365 3.427 8.193 6.508 6.828 2.055-.337c10.279-2.73 21.243-3.761 31.863-3.761 16.446 0 31.178 2.73 39.058 5.126l3.771 1.022 2.74-2.387c29.461-25.266 88.731-14.684 146.633-1.365 22.612 5.12 48.99 8.875 54.131-9.561 1.026-4.098.341-8.881-2.055-12.976-1.029-1.702-2.399-3.412-4.112-4.778l-5.141-5.126c-2.74-3.07-6.508-5.463-10.964-7.508-.685-.343-1.37-.343-1.711-.68 0 0-.344 0-.685-.343-1.37-3.761-4.112-8.535-5.826-11.948 2.055-.343 4.112-1.371 5.826-3.075 2.74-2.39 4.112-5.463 4.112-8.535.341-4.438-1.37-8.193-4.456-11.265l-4.112-4.098c-3.083-3.415-8.221-6.145-14.388-7.17-1.37 0-2.74-.343-4.453-.343-4.797 0-9.938 1.365-14.047 4.44-.341-.343-.341-.343-.341-.682-.344-.343-4.456-4.098-5.141-4.78l-.341-.34c-.344-.343-.685-.685-1.029-.685-5.823-4.777-15.758-4.777-21.243-4.095-.685-1.025-1.026-1.708-1.711-2.05-2.055-2.73-5.482-4.098-8.909-4.098h-3.081c-1.029.343-1.714.343-2.399.685-.341 0-.685 0-.685.34-.685 0-1.026 0-1.026.343-2.74 1.025-5.141 2.73-6.852 5.12-.344.34-.685.34-.685.683-3.086-3.075-8.221-6.488-17.131-7.51-7.537-.685-16.105 1.708-24.667 7.168-.344 0-1.029.682-1.029.682-2.055 1.025-4.112 2.73-5.823 4.098-1.029-1.708-2.055-3.412-3.086-4.78-1.026-1.025-4.453-4.438-5.138-5.12l-.685-.343c-1.714-1.708-3.771-2.73-5.826-3.075h-1.026l-5.482-.343c-22.953.685-41.113 2.733-66.124 5.12l-2.055.343-1.37 3.755-.688 1.365c-2.74-1.708-6.167-2.73-9.591-3.073-14.047-.343-26.725 8.535-35.29 16.728l-3.424-3.755c-.344-.343-.685-.343-.685-.682-.344 0-.688-.343-.688-.343-5.138-3.412-12.675-2.39-18.156 0-2.055.683-4.797 2.047-7.537 3.415-2.055-1.708-4.453-2.39-7.195-2.39-1.37 0-3.083.343-4.453 1.025-1.37-4.78-4.453-9.218-8.565-13.313l-4.797-4.78c-5.482-5.463-12.677-9.903-21.243-12.633-1.029-.343-1.714-.683-1.714-.683-5.138-1.368-10.964-2.73-17.131-3.073h-3.425c-47.282-2.042-65.442 19.124-66.811 37.56v5.12c.685 5.463 2.74 10.243 5.823 13.998l1.37 1.708 4.797 4.783c1.029 1.022 2.055 1.702 3.427 2.73-1.029 0-1.714.337-1.714.337-.685.343-1.37.343-1.714.343-7.537 2.387-14.047 5.805-19.529 10.583-9.25 7.853-14.388 18.099-14.388 28.682 0 11.611 4.453 22.536 13.018 30.729l4.797 5.12c7.537 7.17 21.243 16.046 45.566 16.046 51.733 0 79.827-26.971 80.853-53.603v-5.463c1.029.685 1.714 1.708 2.055 2.05 2.74 2.387 6.167 3.755 10.279 3.755 8.909.343 16.787-5.463 22.269-11.268 4.453 3.075 9.594 3.418 11.993 3.418 2.742-.003 13.706-.003 26.725-6.145zm-162.394 17.411c-4.112 3.755-6.511 9.218-6.511 15.023 0 2.387.685 5.12 1.714 7.507-1.37-.343-2.399-.68-3.427-.68-3.083-1.028-5.823-2.393-7.88-4.098-2.74-3.418-4.112-8.193-4.112-12.976 0-12.291 9.935-22.188 22.269-22.188 4.453 0 8.565 1.022 11.993 3.07 1.029 2.05 1.37 3.755 1.37 5.805v2.045c-5.82 0-11.305 2.393-15.414 6.491zm53.787-73.746c0 4.44-4.797 8.196-11.649 10.243l5.479-12.63-5.138-4.78h.344c3.768.682 7.195 1.705 10.279 3.755 0 0 0 .343.344.343.341 1.02.341 2.045.341 3.07zm-3.424 64.186c0 1.365 0 2.73-.344 4.098-2.055-6.828-5.823-13.319-10.961-18.781l-4.453-4.435-1.029-1.022c4.453 1.359 8.221 3.413 11.649 6.143 3.424 4.098 5.138 9.218 5.138 13.998z" fill="#09152F"/><path d="M170.654 198.866h-.344c.344-1.025 0-1.365 0-1.365l-11.649-6.828 8.565 12.633-15.417-1.708h-.344l11.992 7.168s.344 0 1.029-.683l.344.343-3.427 5.463-.344-.343c.344-.682.344-1.025 0-1.025l-14.732-8.875c-.344-.343-.344-.343-1.029.34h-.341l5.138-8.193.344.343c-.344.34-.344.683 0 1.022.344 0 7.537.685 8.565 1.025-2.398-3.412-4.453-6.828-4.797-7.168-.344-.34-.685 0-1.029.343l-.344-.343 5.138-8.193h.347c-.344 1.025-.344 1.025 0 1.365l14.732 8.878s.344 0 1.029-.683l.344.343-3.771 6.14zm8.906-11.265l-.344-.343c.685-.683.344-1.025.344-1.025l-12.334-11.951c-.344-.343-.344-.343-1.029.343l-.344-.343 5.138-5.463.344.343c-.685.683-.344 1.025-.344 1.025l12.334 11.951c.344.343.344.343 1.029-.343l.344.343-5.138 5.463zm13.706-18.096l10.276-7.17c.344 0 .344-.343 0-1.025l.344-.34 3.768 5.463h-.344c-.685-.343-.685-.683-1.029-.343l-16.102 10.926v-.343c.688-.683.688-1.025.344-1.368l-9.594-13.995c-.344-.343-.344-.343-1.37 0v-.343l6.167-4.098.344.343c-.685.343-.685.683-.685 1.025l7.88 11.268zm19.186-6.488v-.683c.344 0 .344-.343.344-.682 0-.34-10.62-13.998-10.964-14.681-.344-.34-.344-.34-.685-.34v-.343l6.511-2.047v.343c-.344.343-.685.343-.685.683.344.343 5.482 7.17 7.193 9.561 0-2.73-.344-11.265-.344-11.608 0-.343-.685-.343-1.026-.343v-.343l8.221-2.73v.343s-.344.343-.344.683c0 0 5.482 7.51 6.511 9.561h.341c-.341-1.708-.341-11.265-.341-11.608 0-.343-.688-.343-1.029-.343v-.343l5.826-2.05v.343c-.344 0-.344.343-.344.683v18.096c.344.682.685.343 1.029.343v.343l-7.196 2.73v-.682c.344 0 .688-.343.344-.683-.344-1.025-4.453-6.828-7.193-10.926h-.344c.344 4.438.344 12.633.685 13.316 0 .343.344.343.688.343l.341.343-7.539 2.724zm34.602-12.973c-1.029 2.73-1.029 3.073-1.029 3.415 0 .343 0 .343.685.343v.343l-6.511.343v-.343c.344-.343.685-.343 1.029-1.025 0-.683 5.823-17.071 5.823-17.411 0-.34-.344-.343-.685-.343v-.343l9.591-.343v.343c-.685 0-.685.343-.685.682 0 .34 4.797 10.926 7.195 16.388.344 1.025.685 1.025 1.026 1.025v.343l-7.193.343v-.343c.685 0 .685-.343.685-.343 0-.343-1.029-3.073-1.37-3.415l-8.562.34zm.685-3.073h6.852l-3.768-8.535-3.083 8.535zm39.399-7.17c0-.343 0-.683-1.026-.683l.341-.683 7.196 1.708v.343c-1.029 0-1.029.343-1.029.682l-2.399 9.561c-1.367 6.145-6.164 7.17-11.646 6.145-5.485-1.365-9.594-4.438-7.88-10.583l2.055-9.561c0-.343 0-.683-1.026-1.025l.341-.343 7.195 1.708v.34c-1.029 0-1.029 0-1.029.343l-2.398 9.561c-.685 2.73.688 4.098 3.771 4.78 2.74.683 4.797 0 5.138-2.73l2.396-9.563zm21.242 28.679l.341-.343c.344 0 .685.343.685-.343.344-.343-.685-8.193-.685-9.218l-4.453 1.365-2.399 3.755c0 .343 0 .343.685 1.025v.343l-6.849-3.755.341-.343c.685.343 1.026.343 1.026 0l8.224-15.023c.341-.343.341-.343-.344-1.025v-.337l6.852 3.755-.344.343c-1.026-.343-1.026-.343-1.37 0l-3.083 5.803h.341c3.771-1.025 9.253-2.047 9.594-2.39 0-.343 0-.683-.341-.683v-.343l8.221 4.438v.343c-1.029-.343-1.37-.343-2.398 0l-8.221 1.708 1.029 13.316c.341.682.341 1.025.685 1.025v.343l-7.537-3.758zm26.722 11.95l-.344-.343c0-.343.344-.682-.341-1.365l-5.141-4.78-2.055 2.73 8.565 7.853c.341.34.341.34 1.026-.343l.344.343-4.456 4.78v-.343c.344-.682.344-.682 0-1.025l-13.359-12.633.341-.34c.685.682 1.029.682 1.029.34l11.649-12.291c.341-.343.341-.682-.344-1.365l.344-.343 13.359 12.633c.344.343.685 0 1.37-.343l.344.343-4.456 4.438-.341-.343c.341-.682.685-.682.341-1.025l-8.562-8.193-2.055 2.39 4.797 4.78c.685.343 1.026.343 1.37 0l.341.343-3.765 4.101zm16.102 21.509l-.341-.34c.341-.343.685-.683.341-1.368l-3.768-5.803-3.086 2.047 6.511 9.903c.341.343.341.343 1.37 0v.343l-5.141 3.415-.341-.343c.341-.682.685-.682.341-1.025l-9.935-15.363.341-.343c.685.683 1.029.683 1.029.683l14.388-9.218c.341-.343.685-.682 0-1.365l.685-.343 9.594 15.363c.341.343.685.343 1.37 0l.341.343-5.482 3.412-.341-.34c.685-.343.685-.683.685-1.025l-6.511-9.9-2.396 1.708 3.427 5.803c.685.685 1.026.685 1.37.343l.341.343-4.791 3.07zm142.867 90.474c-.685-1.365-1.711-2.73-3.427-4.098-.685-1.022-4.112-4.44-5.138-5.12-2.74-3.075-6.852-5.805-13.362-8.193-1.711-5.12-5.482-10.926-7.537-15.023-.685-1.028-1.37-2.05-2.055-3.415 1.029.343 2.055.682 3.086.682 2.396 0 4.797-.682 6.852-2.39 1.711-1.708 2.74-4.098 2.74-6.488.341-3.415-1.029-6.145-3.427-8.535-.685-1.025-4.112-4.098-4.797-4.778-3.086-3.415-8.909-5.463-15.761-5.805-5.482-.343-10.964 2.05-14.735 6.145-.685-1.365-1.37-2.39-2.396-3.415 0-.343-4.112-4.098-4.797-4.78l-1.029-1.025c-5.823-4.438-16.102-2.73-20.555-2.047l-2.055-1.025c-.344-1.025 0-2.387-.685-3.073-1.714-2.048-4.112-3.073-6.511-3.073-5.138-.343-9.594 2.047-12.675 6.485-.688 1.025-1.029 4.098-1.37 5.12-.685-.343-2.057-1.365-2.399-1.708-2.396-3.073-5.823-9.218-15.761-10.243-9.935-1.025-22.269 4.438-32.891 14.338 0 .343-.341.683-.685.683v-.683c-.341-3.755-1.37-6.485-3.083-8.193l-5.141-5.123c-2.055-1.705-4.112-2.73-6.508-2.73h-.685c-1.37 0-2.398.343-3.427 1.025l.341-1.025c-22.612 1.025-43.508 2.73-66.121 5.12l-.685 2.047c-2.398 5.463 1.029 7.513 2.74 8.535l-.685 1.365c-.685-1.025-4.453-4.438-5.482-5.46-2.399-2.39-5.823-3.755-10.276-4.098-12.677-.343-25.355 7.853-34.946 18.096l-.685-1.025-5.138-5.12c-.344-.343-.685-.683-1.029-.683-3.768-2.73-10.279-1.708-14.732.343-2.399 1.025-6.167 2.73-9.25 4.438-1.714-2.047-4.112-3.073-6.852-3.073-2.055 0-4.453 1.025-6.852 2.73-.685-5.463-3.427-11.265-8.565-16.046-.685-1.025-3.768-4.095-4.797-4.78-8.221-8.535-22.612-15.023-41.454-15.703-44.54-1.368-62.012 17.753-63.04 34.821-.685 7.17 1.714 13.656 6.167 18.096.685.683 4.112 3.755 4.797 4.778 2.74 2.393 5.823 4.098 9.594 4.44h.685l-1.029 2.396c-10.964 1.365-21.243 5.463-29.12 11.948-8.565 7.17-13.018 16.388-13.018 26.292 0 10.926 4.112 20.829 11.993 28.336.685 1.028 3.768 4.098 4.797 5.126 6.852 6.828 20.214 15.023 43.167 15.023 49.678 0 76.744-25.266 77.428-50.53.344-5.126-.344-9.903-1.37-14.341l1.37-2.045c.344 1.365.685 2.387 1.029 3.412.344 1.025 1.029 1.708 1.714 2.387 1.029.685 4.112 4.44 5.138 5.126 1.714 1.365 4.112 2.73 7.88 2.73 8.909.337 17.131-6.828 22.269-12.633 3.768 4.44 9.25 4.778 12.334 4.778 3.424.343 20.899 0 40.084-16.046l4.453 4.44c1.37 1.365 3.427 2.387 5.823 3.075-4.112 1.365-7.88 2.73-11.649 4.098-10.279 3.755-19.526 8.875-27.75 13.993l2.055 5.126 4.797 4.778c10.964-2.387 22.269-3.755 32.891-3.755 17.131 0 32.206 2.73 40.087 5.12l1.711.685 1.37-1.365c30.834-26.292 91.132-15.366 150.06-1.708 31.178 7.17 46.595 4.778 50.022-7.513.682-3.075-.003-6.836-2.057-10.246zm-167.534-19.121c.344.343 3.427 2.045 3.771 2.73-4.797-.343-13.362-1.022-18.159-1.022 1.37-1.022 2.74-2.05 4.112-3.418 1.373-1.368 2.398-2.73 3.771-4.435 1.367 2.736 3.765 4.438 6.505 6.145zm-12.675-40.287c0 1.365-.344 3.415-1.37 5.803-2.055 7.17-5.826 13.316-9.25 17.411l10.276-23.559c0 .345.344.345.344.345zm74.689 40.287c.341 1.708 1.37 3.418 2.74 5.12 1.026.685 4.112 3.755 5.138 4.783 0 .337.341.337.685.68-8.909-1.708-18.5-3.412-28.435-4.778 6.167-2.387 12.675-6.148 19.185-11.268 0 1.71 0 3.755.688 5.463zm40.081 9.218c-.344 3.075.685 5.805 2.74 8.193.341.343 1.026.685 1.37 1.365-5.482-1.365-11.993-3.07-19.185-4.778 9.594-2.05 18.5-10.926 25.352-20.486l.685 1.022c1.026 1.022 2.055 2.387 2.74 3.412-8.219 1.373-13.013 5.471-13.701 11.271zm-325.816 2.05c-1.029-.685-4.109-4.098-4.797-4.783-2.055-2.045-4.453-4.098-6.852-5.8l.685-2.05c8.909.685 16.446 4.098 21.925 8.535 4.112 4.778 6.167 10.583 6.167 16.388 0 4.435-1.714 10.24-5.823 16.046v-1.708c.003-9.903-4.109-19.461-11.305-26.629zm20.558-51.895c0 7.51-9.594 14.338-20.558 14.338l6.852-16.046-4.797-4.78-37.683 3.755c7.878-6.828 23.982-8.878 36.657-8.535 7.196.343 13.362 2.39 17.815 5.463 1.029 1.708 2.055 3.755 1.714 5.805zm-80.856 78.524c0-13.998 11.649-25.603 25.696-25.603 5.482 0 10.62 1.708 14.388 4.098 1.37 2.387 2.398 5.12 2.398 8.193 0 1.708-.344 3.755-1.37 5.805-.688-.343-1.714-.343-2.398-.343-4.797 0-9.594 2.045-12.677 5.463-3.427 3.075-5.482 7.85-5.482 12.633 0 4.435 1.714 8.533 4.453 11.605-8.221 0-15.076-2.387-20.214-6.485-3.081-4.098-4.794-9.561-4.794-15.366zm103.809-51.895c-2.399 4.098-5.138 8.535-7.196 11.268l-2.398-2.387c-.344-.685-1.029-1.365-1.37-2.393 4.453-2.045 7.88-4.435 10.964-7.165v.677z" fill="#AB823A"/><path d="M248.083 220.035l-.685 2.047c-2.399 5.463 1.029 7.513 2.74 8.535l-2.398 5.463v-2.047c-.685-6.485-6.167-11.265-14.044-11.608-15.076-.343-30.152 11.608-40.084 23.899 1.029-2.39 1.37-4.098 1.37-6.488.344-2.73-1.029-4.778-3.083-6.145-3.768-2.73-10.279-1.708-14.732.343-2.399 1.025-6.167 2.73-9.25 4.438-1.714-2.047-4.112-3.073-6.852-3.073s-6.167 1.708-8.909 4.438c-4.112 4.098-6.511 9.561-6.511 14.681 0 1.708.344 3.415.685 4.778-2.399 4.098-5.138 7.856-7.537 10.589-2.398-3.418-5.482-6.148-8.565-8.535 11.649-5.463 18.5-14.681 19.185-25.949.344-15.363-18.5-32.434-50.019-33.799-44.54-1.368-62.012 17.753-63.04 34.821-1.029 11.608 5.823 21.508 15.417 22.531 3.427.343 6.852-.68 9.25-2.727l-4.453 9.898c-10.964 1.365-21.243 5.463-29.12 11.948-8.565 7.17-13.018 16.388-13.018 26.292 0 10.926 4.112 20.829 11.993 28.336 6.852 7.17 20.214 15.366 43.167 15.366 49.678 0 76.4-25.261 77.428-50.53.344-5.12-.344-9.903-1.37-14.335 4.453-6.148 9.25-13.313 12.334-19.461 1.029 0 2.398-.343 3.768-1.022-2.055 3.07-5.138 7.85-5.138 7.85-3.768 5.463-6.511 13.313-3.768 18.776 1.37 2.387 4.112 5.463 9.935 5.463 8.909.343 17.131-7.17 21.928-12.97 3.768 4.778 9.594 5.12 12.334 5.12 3.768 0 21.584 0 41.454-17.068.685 1.702 1.37 3.07 2.398 4.435 2.74 3.075 6.852 4.783 12.677 5.126 7.537 0 14.388-2.393 20.214-7.856 2.74 2.73 6.164 4.44 10.279 5.463-15.076 1.708-29.808 5.12-43.17 10.246-10.279 3.755-19.526 8.875-27.75 13.993l2.055 5.126c10.964-2.73 22.269-3.761 32.891-3.761 17.131 0 32.206 2.73 40.084 5.126l1.714.68 1.37-1.365c30.834-26.292 90.791-15.366 149.719-1.708 31.175 6.828 46.595 4.783 50.022-7.507 1.026-3.075.341-6.828-1.714-10.246-2.74-4.435-8.221-10.24-20.899-13.993-1.37-5.805-5.826-13.313-8.565-18.439l-2.055-3.415c1.029.343 2.055.683 3.086.683 2.396 0 4.797-.683 6.508-2.39 2.055-1.708 3.086-4.098 3.086-6.488.341-8.193-7.537-13.995-19.185-14.338-8.565-.343-16.79 5.463-19.529 13.316-8.909 11.265-14.044 16.049-17.128 18.093.685-1.365 2.052-3.073 3.768-5.803 1.026-1.025 2.396-2.39 4.112-4.098 4.456-4.78 10.279-10.583 9.935-17.071-.341-3.073-1.711-5.463-4.112-7.51-6.164-4.78-17.472-3.412-21.243-3.073-.341-1.025-1.026-2.387-2.052-3.413-1.714-1.708-4.112-2.73-6.511-2.73-5.138-.343-9.594 2.048-12.675 6.485-.688 1.025-1.37 2.39-2.055 3.755-1.373-3.415-5.482-9.218-17.474-10.583-9.935-1.025-22.269 4.438-32.891 14.338-2.396 2.73-4.797 5.463-6.852 8.193 1.029-4.78 1.714-9.218 1.37-12.973-.685-8.193-5.823-10.923-9.935-11.265h-.685c-1.37 0-2.399.343-3.427 1.025l.341-1.025c-22.624 1.02-43.522 2.724-66.132 5.117zm-179.524 88.764c-3.427 3.075-5.482 7.85-5.482 12.633 0 4.435 1.714 8.533 4.453 11.605-9.25-.343-16.787-3.075-21.928-7.85-5.138-4.783-7.88-11.268-7.88-18.776 0-13.998 11.305-25.609 25.696-25.609 11.992 0 21.584 7.513 21.584 17.074 0 2.045-.344 3.755-1.37 5.805-.688-.343-1.714-.343-2.398-.343-4.794-.003-9.591 2.045-12.675 5.46zm37.342 12.973c2.055-4.778 3.427-9.898 3.427-15.36 0-15.023-9.25-28.342-23.982-35.507l1.714-3.755c20.555 1.702 32.889 16.046 32.889 29.701 0 6.485-4.109 16.725-14.047 24.921zm-7.537-74.769h-2.74l9.25-20.826-40.769 4.098-.685 1.705c-1.029 2.39-1.029 4.098-.685 5.803-1.714-1.708-3.427-2.73-5.138-3.415 0-3.073 1.37-5.803 3.427-8.193 7.537-7.853 24.667-9.9 38.029-9.561 13.703.343 24.667 7.853 24.326 16.046-.349 8.541-11.654 15.026-25.017 14.344zm129.846-11.608c0 1.365-1.026 3.755-3.083 6.828-1.373 2.73-5.141 7.51-11.308 10.583 2.399-3.755 4.797-7.51 7.196-10.583 3.43-4.095 5.826-6.145 7.195-6.828zm-20.896 36.874h-.344c0-.343-.344-1.708.344-5.12 9.25-1.028 21.925-6.148 30.49-13.658-16.446 16.728-26.037 19.121-30.49 18.778zm189.115-22.876c-5.482 7.17-10.279 16.386-7.878 23.899.685 3.418 3.424 7.508 11.305 9.218 13.359 3.075 26.037-8.875 34.946-21.508 1.37 2.387 3.083 4.44 4.797 6.828 1.026 1.022 2.055 2.387 2.74 3.412-8.221 1.371-13.018 5.468-13.703 11.268-.344 3.075.685 5.805 2.74 8.193.341.343 1.026.685 1.37 1.365-18.156-4.44-47.28-11.605-79.142-15.023 12.677-2.385 29.467-10.238 42.826-27.651zm-16.105-4.095c1.373-1.708 2.742-3.755 3.43-5.803 0 0 0 .343.341.343.344 1.025.685 1.708 1.37 2.73-9.25 10.583-27.066 22.191-38.029 21.511-2.74 0-3.427-.343-3.771-.343-.341-.343-.341-1.022-.341-1.365 0-.68.341-2.045 1.026-4.78 17.477 2.387 29.811-4.783 35.975-12.293zm-14.729-16.388h.341c.344.343.344 2.73-1.367 5.803-2.74 4.78-7.88 9.561-14.735 10.583 5.826-10.24 12.334-16.728 15.761-16.386zm-68.863 26.629l11.99-27.994c1.029 2.387 2.74 4.438 5.141 5.46 0 1.365-.344 3.415-1.37 5.803-4.112 13.316-12.334 22.534-16.105 22.191h-.682c-.344-.34-.344-3.07 1.026-5.46zm-34.946 8.881c0-.685.344-3.075 2.398-7.856l16.102-36.872c-1.711 4.78 1.714 7.168 3.086 7.853l-8.909 20.141c-6.852 14.001-10.623 16.734-12.677 16.734zm36.66 11.263c4.453-1.702 8.906-4.778 12.675-8.875 2.74-2.73 5.138-5.805 7.193-9.221v3.073c.344 6.828 4.112 11.611 10.279 14.681-10.617-.337-20.555-.337-30.146.343zm174.042 16.388c0 1.365-.344 2.387-1.714 3.418-1.711 1.022-5.823 2.73-15.417 1.365 3.768-.685 6.852-2.73 9.25-5.126 1.37-1.365 2.74-3.412 3.086-5.457 2.74 1.359 5.135 3.41 4.794 5.8z" fill="#fff"/><path d="M253.564 276.025c5.823 0 13.362-1.365 20.902-9.218 2.055 4.098 7.537 7.17 14.044 7.17 20.558 1.022 37.342-30.047 35.972-47.8-.341-5.12-3.083-7.853-6.508-7.853h-.685c-3.086.343-5.482 2.73-5.826 5.803 0 3.415 2.399 6.148 5.826 6.488.341 2.047 0 5.12-1.37 9.218-4.112 12.633-13.362 24.921-19.87 24.584-5.482 0-4.112-6.831-2.396-10.586l15.417-35.167-25.352 1.368c-2.396 5.803 5.141 3.755 2.74 8.533l-8.909 20.486c-5.482 11.268-10.62 18.779-16.105 18.779-4.109-.343-3.768-4.778-.341-12.633l15.076-34.482-25.696 2.387c-2.398 6.145 5.138 3.755 3.083 8.196l-9.25 20.141c-6.17 6.828-23.297 24.581-37.344 24.239-4.112-.343-4.456-5.12-2.055-11.605 13.362-.343 40.769-13.316 39.399-29.704-.344-4.438-4.112-8.193-10.62-8.535-20.214-.683-41.457 23.899-47.28 38.582-2.055 2.73-8.565 10.583-11.992 10.583-2.055-.343-1.37-3.075 1.029-6.828l11.992-17.756c3.768-5.803 4.112-7.853 4.112-10.583.344-5.803-8.221-5.12-13.018-2.73-3.427 1.365-9.594 4.438-11.993 5.803-.685-2.39-2.74-4.098-5.482-4.098-4.112 0-11.993 7.17-11.993 15.706 0 2.048.344 3.755 1.37 4.778-4.453 7.513-9.935 13.998-11.649 16.046-4.112-6.485-9.935-11.263-15.761-15.018 11.305-3.418 22.269-11.268 22.953-24.927.344-13.316-17.815-29.361-46.592-30.387-71.265-2.382-67.152 48.488-47.282 50.536 5.138.683 9.935-3.073 10.279-8.535.685-5.12-3.083-9.561-8.221-10.243-1.714-18.776 24.667-24.241 45.225-23.556 15.073.683 27.75 8.875 27.407 19.458-.344 10.243-12.677 18.436-28.435 17.753-2.396 0-5.823-.343-7.537-.343l8.565-19.801-32.891 3.073c-3.083 7.513 6.167 4.438 3.427 10.583l-10.964 25.606c-23.297 1.702-41.457 16.731-41.457 34.821.344 21.171 17.815 40.29 52.077 40.29 48.649 0 73.316-24.244 74.001-47.118.344-5.805-.344-10.926-1.714-15.023 5.482-7.17 10.964-15.703 13.703-21.851 3.768-.337 9.25-2.387 16.446-7.168-3.768 5.123-10.62 15.706-12.677 18.778-4.453 6.828-7.88 18.776 3.427 19.118 9.935.337 19.529-11.611 22.612-15.366 2.055 6.828 7.537 7.507 11.993 7.507 4.797.343 23.982-.68 44.196-21.166-1.032 7.861 2.052 13.324 11.99 13.667zm-23.985-44.725c6.511.34-2.74 24.239-22.269 26.971 5.826-12.63 16.789-26.971 22.269-26.971zm-144.234 76.134c-1.37-.343-2.74-.685-4.112-.685-8.221 0-14.732 6.491-14.732 14.683 0 7.508 5.823 13.656 13.018 14.335-3.083.343-6.511.685-9.935.685-23.297 0-35.29-13.656-35.29-30.044 0-16.051 13.018-29.022 29.12-29.022 13.703 0 25.011 9.218 25.011 20.486.003 3.413-1.026 6.488-3.081 9.561zm6.167 25.606c8.565-4.778 14.388-15.023 14.388-26.629 0-15.023-10.276-27.999-25.011-33.799l4.112-8.881c24.323.685 38.37 18.096 38.37 33.119.003 11.263-9.591 29.016-31.86 36.189zm373.78-51.552c6.167 2.045 10.964 6.143 10.623 10.926-.344 3.075-2.055 12.97-33.235 5.463-35.287-8.535-152.115-41.652-224.746 4.44 30.149-6.828 60.298-1.028 71.262 2.387 31.86-27.657 93.874-16.388 152.8-2.73 39.058 8.875 44.199.68 45.91-5.12 1.37-4.783-2.74-15.366-22.612-20.486-1.026-6.828-4.797-13.313-7.537-18.096-2.74-4.438-5.138-8.193-5.482-12.63 0-1.025 1.029-3.075 3.086-3.755v1.022c0 3.415 2.396 6.145 5.482 6.145 3.427 0 6.167-2.387 6.167-5.463.341-7.17-7.537-10.583-15.761-10.926-7.195-.34-14.388 4.78-16.446 11.608-16.79 21.848-22.612 21.169-23.982 20.826-2.399-.68-.341-5.12 4.797-11.951 3.768-5.12 13.703-11.951 13.359-19.461-.685-8.878-15.417-8.193-22.269-7.168-1.026.34-1.711.34-2.398.34v-.34c0-3.415-2.74-6.148-5.823-6.488-9.25-.343-14.732 10.923-11.308 18.436.688 1.708 1.714 2.73 3.086 3.415-8.562 11.948-29.12 26.289-43.167 25.603-6.508-.337-6.852-2.045-7.193-4.777 0-1.708.685-5.123 2.396-8.535 37.001 6.148 54.472-30.726 23.638-34.139-19.526-2.047-45.566 23.899-44.196 40.624.685 12.976 15.761 13.998 19.87 14.341 9.938.337 36.316-4.44 54.816-31.752 3.427 0 7.537-.683 11.649-2.047-12.675 12.291-26.381 33.802-7.537 38.242 13.359 2.727 26.725-12.976 34.602-24.927 2.74 7.51 9.594 12.973 13.018 19.801-9.594 0-15.761 3.075-16.102 8.535-.685 7.17 9.25 11.268 16.787 11.268 6.852.337 15.761-2.733 16.446-12.633zm-99.697-55.99c10.279.682-1.711 25.603-21.243 23.556 5.482-11.268 14.735-23.899 21.243-23.556zm83.936 59.4c-1.026 5.126-10.62 3.075-9.935-1.365.341-2.73 4.797-4.092 9.935-4.435.344 1.705.344 3.755 0 5.8zm-54.472 30.389h-2.396v6.828h-2.055v-6.828h-2.399v-1.708h6.852v1.708h-.003zm11.99 6.828h-1.711v-6.828l-2.74 6.828h-1.711l-2.399-6.828v6.828h-1.714v-8.535h3.086l2.055 5.805 2.055-5.805h3.083v8.535h-.006z" fill="#09152F"/></g></svg>