<svg width="512" height="512" viewBox="0 0 512 512" version="1.1" xmlns="http://www.w3.org/2000/svg" xmlns:sketch="http://www.bohemiancoding.com/sketch/ns"><title>pittsburgh-pirates</title><desc>Created with Sketch.</desc><g sketch:type="MSLayerGroup" stroke="none" stroke-width="1" fill="none"><path d="M190.187 119.779c39.379.077 78.759.006 118.137.033 6.23.416 12.536 2.2 17.533 6.054 6.368 4.668 9.921 12.528 9.989 20.339l-.007 62.642c-.061 5.566.451 11.325-1.516 16.664-1.56 5.128-5.552 9.341-10.376 11.597-5.008 2.428-10.649 3.159-16.156 3.315-39.24-.006-78.481.011-117.722-.006-.017-32.513 0-65.02-.006-97.534.084-7.695-.16-15.439.123-23.105z" fill="#FFFFFE" sketch:type="MSShapeGroup"/><path d="M317.993 87h.172c.135 1.374.532 2.785 1.362 3.902.304 1.314.611 2.649 1.316 3.823 7.943 18.226 21.555 34.231 39.048 43.908 5.084 2.798 10.53 4.912 16.15 6.374-8.082 13.542-12.139 29.202-13.03 44.866-.401 6.524-.5 13.103.191 19.614 1.427 14.887 6.795 29.197 14.34 42.035v.708c-17.343 4.33-33.997 12.89-46.15 26.175-5.881 6.445-10.545 14.053-13.264 22.365-3.637-3.167-7.247-6.453-11.467-8.856-5.722-3.427-12.177-5.551-18.775-6.412-7.527-1.146-15.152-.68-22.739-.773-21.695.07-43.39-.107-65.084-.094-.005 25.388.004 50.775-.005 76.163-.01 10.599 6.809 20.937 16.733 24.834-5.452 13.49-11.131 26.897-16.63 40.368h-47.294c-5.643-13.36-11.024-26.831-16.695-40.177 1.866-1.137 3.959-1.992 5.68-3.404 5.843-4.205 9.798-10.874 10.773-17.994-.009-.651.233-1.206.611-1.709-.019-65.514-.005-131.027-.01-196.541-.746-1.052-.546-2.533-.956-3.781-1.702-8.633-8.124-15.86-16.089-19.39 5.587-13.867 11.155-27.748 16.676-41.644 2.243-.303 4.594-.033 6.879-.126 26.428.047 52.857-.107 79.276.107 13.212 0 26.423-.005 39.641 0 7.854-.13 15.855-.801 23.261-3.618 4.593-1.695 8.782-4.34 12.564-7.418 1.175-1.015 2.276-2.128 3.559-3.013l-.043-.292z" fill="#FDB829" sketch:type="MSShapeGroup"/><path d="M200.43 141.654c33.078.065 66.157.005 99.235.028 5.233.349 10.531 1.848 14.728 5.085 5.349 3.921 8.334 10.524 8.39 17.085l-.005 52.62c-.052 4.675.378 9.513-1.274 13.998-1.31 4.308-4.663 7.846-8.716 9.742-4.206 2.04-8.944 2.654-13.571 2.785-32.962-.005-65.924.01-98.886-.005-.014-27.311 0-54.617-.005-81.928.07-6.465-.135-12.97.103-19.41z" fill="#FFFFFE" sketch:type="MSShapeGroup"/><path d="M226.62 411.811c1.497.056 2.999-.037 4.495.056.816 2.496 1.763 4.954 2.598 7.445l.541.168c.918-2.556 1.889-5.099 2.84-7.646 1.487-.014 2.975-.01 4.467 0 .019 4.195-.019 8.396.019 12.596-.882-.005-1.762.005-2.64-.014-.005-2.733-.005-5.466.005-8.196l-.718.108c-1.008 2.701-1.833 5.495-3.036 8.106-.84-.009-1.679 0-2.513-.013-1.12-3.074-2.062-6.254-3.353-9.24l-.168 9.267c-.853-.027-1.707-.027-2.56-.009.052-4.211.006-8.42.024-12.63zm-12.592.005c3.423.037 6.851 0 10.279.019.005.777.009 1.565.019 2.351-1.269-.005-2.537 0-3.805-.023-.112 3.414-.01 6.835-.046 10.253-.881.019-1.763.01-2.64.01.028-3.418.019-6.842.01-10.258-1.278.019-2.556.005-3.834.032.009-.796.018-1.592.018-2.384z" fill="#FDB829" sketch:type="MSShapeGroup"/></g></svg>