<svg width="512" height="512" viewBox="0 0 512 512" version="1.1" xmlns="http://www.w3.org/2000/svg" xmlns:sketch="http://www.bohemiancoding.com/sketch/ns"><title>san-diego-padres</title><desc>Created with Sketch.</desc><g sketch:type="MSShapeGroup" stroke="none" stroke-width="1" fill="none"><path d="M429.555 256.64c0 22.763-4.526 45.522-13.237 66.554-8.712 21.032-21.601 40.325-37.7 56.42-16.095 16.099-35.388 28.99-56.42 37.701-21.032 8.713-43.791 13.239-66.558 13.239-22.763 0-45.518-4.526-66.55-13.239-21.036-8.711-40.325-21.602-56.424-37.701-16.099-16.095-28.989-35.388-37.7-56.42-8.713-21.032-13.24-43.791-13.24-66.554 0-22.767 4.527-45.522 13.24-66.554 8.711-21.032 21.601-40.325 37.7-56.424 16.099-16.099 35.388-28.989 56.424-37.7 21.032-8.712 43.787-13.237 66.55-13.237 22.767 0 45.526 4.526 66.558 13.237 21.032 8.712 40.325 21.601 56.42 37.7 16.099 16.099 28.989 35.392 37.7 56.424 8.712 21.032 13.237 43.787 13.237 66.554zm-55.048 149.762v-6.772h-2.419v-1.376h6.478v1.376h-2.415v6.772h-1.644zm5.735 0v-8.148h2.462l1.478 5.557 1.462-5.557h2.466v8.148h-1.526v-6.416l-1.621 6.416h-1.581l-1.613-6.416v6.416h-1.53z" fill="#1C3465"/><path d="M255.391 133.52c-15.988 0-31.965 3.174-46.732 9.297-14.771 6.119-28.305 15.166-39.605 26.471-11.305 11.305-20.344 24.846-26.459 39.613-6.115 14.767-9.281 30.728-9.277 46.708 0 15.98 3.162 31.941 9.277 46.708 6.115 14.767 15.154 28.309 26.459 39.613 11.301 11.305 24.834 20.356 39.605 26.475 14.767 6.119 30.744 9.293 46.732 9.293s31.953-3.174 46.724-9.293l.079-.04c14.739-6.119 28.245-15.154 39.526-26.439 11.301-11.305 20.344-24.846 26.455-39.613 6.115-14.767 9.281-30.728 9.277-46.708 0-15.98-3.162-31.941-9.277-46.708-6.111-14.767-15.154-28.309-26.455-39.613-11.305-11.305-24.838-20.352-39.605-26.471l-.15-.059c-14.727-6.079-30.641-9.237-46.574-9.237v.004zm0 5.364c15.269 0 30.546 3.04 44.653 8.886 14.111 5.846 27.056 14.498 37.854 25.301 10.795 10.803 19.447 23.755 25.285 37.866 5.846 14.111 8.878 29.396 8.874 44.669 0 15.277-3.028 30.558-8.874 44.673-5.838 14.111-14.494 27.068-25.293 37.87-10.799 10.799-23.743 19.455-37.854 25.301-14.107 5.842-29.384 8.882-44.653 8.882-15.273 0-30.55-3.04-44.657-8.882-14.107-5.846-27.064-14.502-37.862-25.301l-.103-.111c-10.688-10.723-19.273-23.554-25.095-37.534l-.095-.225c-5.842-14.115-8.878-29.396-8.874-44.673 0-15.273 3.032-30.558 8.874-44.669 5.842-14.115 14.498-27.072 25.293-37.87 10.799-10.803 23.755-19.455 37.862-25.301 14.107-5.846 29.384-8.886 44.657-8.886l.008.004zm.102-48.148c-21.569 0-43.123 4.289-63.052 12.542-19.925 8.257-38.194 20.463-53.451 35.72-15.253 15.253-27.463 33.518-35.718 53.451-8.255 19.929-12.54 41.483-12.54 63.056s4.285 43.135 12.54 63.068c8.255 19.929 20.465 38.198 35.718 53.451 15.257 15.253 33.526 27.459 53.451 35.714 19.929 8.256 41.483 12.543 63.052 12.543 21.569 0 43.115-4.287 63.04-12.543 19.874-8.232 38.099-20.394 53.325-35.588l.126-.126c15.253-15.253 27.467-33.522 35.72-53.451 8.257-19.933 12.542-41.495 12.542-63.068s-4.285-43.127-12.542-63.056c-8.253-19.933-20.467-38.198-35.72-53.451-15.253-15.257-33.522-27.463-53.451-35.72-19.925-8.253-41.471-12.542-63.04-12.542zm0 5.387c20.862 0 41.732 4.158 61.005 12.142 19.273 7.984 36.953 19.799 51.704 34.546 14.747 14.751 26.57 32.443 34.554 51.716 7.98 19.269 12.131 40.119 12.131 60.977 0 20.854-4.15 41.716-12.131 60.985l-.051.119c-7.98 19.226-19.783 36.878-34.502 51.598-14.751 14.751-32.431 26.562-51.704 34.546-19.273 7.984-40.143 12.133-61.005 12.133-20.862 0-41.728-4.149-61.001-12.133-19.277-7.984-36.965-19.794-51.716-34.546-14.751-14.751-26.574-32.443-34.554-51.716-7.981-19.269-12.133-40.131-12.133-60.985 0-20.826 4.136-41.645 12.094-60.89l.04-.087c7.98-19.273 19.802-36.965 34.553-51.716 14.751-14.747 32.439-26.562 51.716-34.546 19.273-7.984 40.139-12.142 61.001-12.142z" fill="#fff"/><path d="M220.797 165.926c-9.621 0-18.079 4.447-23.336 10.273-5.257 5.826-8.308 13.799-8.308 21.712v31.518c0 6.099 2.838 11.712 6.553 15.162 3.719 3.451 8.261 6.087 15.506 6.091h52.819c1.036 0 2.055.518 2.692 1.241.636.723.945 1.585.945 2.36v29.34c0 3.146-1.312 6.245-3.119 8.312-1.806 2.071-5.032 4.502-9.925 4.502h-8.004v-39.001h-17.984v39.001h-17.83c-1.142 0-1.988-.447-2.664-1.123-.676-.676-1.032-1.648-1.032-2.573 0-1.198.067-17.119.067-17.119s0-1.846.486-2.854c.403-.834.818-1.696 1.451-2.372.775-.826 1.719-1.538 2.767-1.961 1.241-.502 3.976-.609 3.976-.609v-1.198h-26.7v26.111c0 4.988 1.802 10.834 6.221 15.265 4.419 4.431 9.664 6.431 15.431 6.431h17.83v23.676c0 1.751-.704 3.617-2.293 5.166-1.589 1.553-3.569 2.146-4.463 2.372-.889.225-1.071.261-2.664.47v1.02l64.12-.04c10.522 0 21.419-4.494 28.566-12.095 5.538-5.893 11.02-14.419 11.02-27.368 0-6.98-.285-53.447 0-67.799.257-13.056-7.7-23.803-12.735-28.309-5.032-4.51-13.85-10.384-26.562-10.384-6.652 0-63.685.04-63.685.04v1.138s1.466.051 1.972.04c2.206.04 3.557.854 4.787 2.166 1.229 1.308 1.949 1.731 1.949 5.158v23.052h-17.83c-1.237 0-2.15-.557-2.806-1.304-.652-.747-.889-1.486-.889-2.561v-32.261c0-3.49 1.154-5.874 2.941-8.225 1.783-2.348 5.629-4.486 9.542-4.486h42.799c1.119 0 2.071.296 2.87 1.111.802.81 1.142 1.589 1.142 2.486 0 .897-.186 2.04-1.636 3.13-1.644 1.111-3.613 1.079-3.613 1.079v1.206h24.483v-8.878c0-4.937-1.589-9.316-5.482-12.842-3.889-3.526-7.755-5.265-17.131-5.265h-42.226l-.016-.004zm25.823 53.285h39.016c5.826 0 10.49 2.067 13.901 5.719 3.415 3.656 5.395 8.443 5.395 12.557v72.788c0 5.012-2.103 9.969-5.514 13.324-3.411 3.352-8.597 5.51-13.415 5.51h-39.384v-14.676h10.395c6.269 0 13.66-1.854 20.119-8.071 6.463-6.221 8.502-14.486 8.502-20.384v-31.036c0-6.356-2.111-11.767-6.281-15.894-4.17-4.127-9.676-6.316-15.451-6.316h-17.285v-13.522z" stroke="#fff" stroke-width=".625" fill="#fff"/><path d="M115.017 222.22c-.241.85-.538 1.47-.885 1.858-.348.391-.988.47-1.913.233-.692-.111-1.154-.435-1.387-.972-.233-.534-.134-1.64.296-3.316.277-1.289.617-2.186 1.02-2.688.403-.502 1.198-.593 2.379-.281l1.585-6.174-.996-.257c-2.186-.534-3.874-.482-5.063.154-1.185.64-2.079 1.668-2.677 3.083-.599 1.415-1.107 3.016-1.524 4.81-.577 2.099-.92 3.945-1.024 5.538-.104 1.593.266 2.933 1.109 4.024.844 1.087 2.399 1.929 4.665 2.522 2.261.573 3.98.617 5.158.126 1.182-.486 2.083-1.395 2.712-2.731.628-1.332 1.245-2.98 1.846-4.949l.462-1.387c.423-1.451.802-2.356 1.138-2.715.332-.36.996-.387 1.976-.083.984.229 1.534.68 1.644 1.356.115.672-.04 1.751-.455 3.233-.356 1.557-.779 2.589-1.265 3.095-.49.502-1.336.585-2.542.245l-1.585 6.174c2.593.656 4.569.704 5.933.154 1.36-.553 2.368-1.557 3.024-3.02.66-1.459 1.225-3.225 1.708-5.297.866-3.478 1.115-6.051.743-7.727-.375-1.672-1.119-2.814-2.237-3.423-1.123-.605-2.364-1.051-3.735-1.332-2.656-.763-4.593-.628-5.81.403-1.217 1.032-2.356 3.273-3.423 6.723l-.877 2.621zm21.661-26.605l4.423.668 2.909-6.119-25.743-3.85-4.328 9.119 19.281 17.435 2.964-6.237-3.34-2.949 3.834-8.067zm-4.949-.881l-2.652 5.581-8.447-7.364.04-.059 11.071 1.842h-.012zm2.225-23.242l.162-.213 19.443 6.099 6.913-8.969-19.728-15.198-4.051 5.257 15.392 11.36-.162.209-19.506-6.02-6.85 8.893 19.724 15.198 4.055-5.261-15.392-11.356zm39.21-14.786l11.154-7.629c2.826-1.921 4.332-3.949 4.526-6.075.194-2.13-.688-4.581-2.652-7.356l-2.941-4.3c-1.961-2.897-4.032-4.502-6.214-4.818-2.186-.312-4.688.522-7.518 2.502l-10.415 7.123 14.059 20.554zm-5.316-19.534l4.798-3.281c.929-.684 1.771-.96 2.514-.83.751.13 1.561.846 2.447 2.146l2.941 4.3c.763 1.087 1.138 2.083 1.134 2.992 0 .909-.506 1.711-1.502 2.407l-4.795 3.281-7.538-11.016zm22.977-20.131l-5.968 2.913 10.913 22.38 5.968-2.909-10.913-22.384zm15.537-.395l10.747-3.553-1.708-5.17-17.056 5.636 7.814 23.645 17.277-5.708-1.708-5.174-10.972 3.629-1.522-4.605 10.091-3.332-1.451-4.383-10.087 3.336-1.427-4.32zm41.42-6.214c-.348-2.561-1.055-4.344-2.127-5.344-1.067-.996-2.439-1.514-4.107-1.549-1.668-.04-3.573.103-5.712.431-2.431.273-4.49.747-6.182 1.419-1.688.676-2.917 1.747-3.688 3.225-.767 1.474-.98 3.557-.648 6.245l.822 6.387c.34 2.636 1.032 4.569 2.079 5.806 1.047 1.233 2.47 1.968 4.265 2.202 1.798.237 3.992.17 6.577-.194 2.917-.34 5.138-.866 6.668-1.569 1.526-.704 2.502-1.81 2.929-3.316.427-1.502.451-3.625.071-6.368l-.557-4.312-11.229 1.443.589 4.577 4.546-.585c.249 1.668.103 2.83-.431 3.486-.534.66-1.628 1.071-3.281 1.245-1.692.289-2.976.19-3.854-.296-.874-.486-1.443-1.794-1.708-3.913l-.514-4.016c-.316-1.961-.261-3.395.174-4.304.431-.905 1.787-1.494 4.067-1.763 1.024-.186 1.976-.209 2.854-.067.874.142 1.447.806 1.711 1.992l6.684-.862zm16.81 17.973c3.411.348 6.21 0 8.391-1.079 2.178-1.067 3.435-3.463 3.767-7.182l.518-7.02c.213-3.731-.68-6.285-2.68-7.66-2-1.376-4.715-2.138-8.142-2.293-3.411-.348-6.206 0-8.387 1.079-2.182 1.067-3.439 3.463-3.771 7.186l-.514 7.016c-.217 3.731.676 6.285 2.676 7.66 2.004 1.376 4.715 2.138 8.142 2.293zm.427-5.763c-1.7-.059-2.881-.364-3.546-.909-.66-.542-.937-1.711-.826-3.506l.411-5.597c.154-1.775.597-2.881 1.328-3.32.735-.435 1.949-.561 3.636-.375 1.708.063 2.901.368 3.581.909.68.542.945 1.7.791 3.474l-.411 5.593c-.111 1.794-.542 2.913-1.293 3.352-.755.439-1.976.565-3.672.379zm33.333 12.581l2.277-5.957 5.49 2.099c3.146 1.249 5.53 1.419 7.138.51 1.609-.913 2.992-3 4.154-6.257 1.182-3.004 1.411-5.415.692-7.233-.719-1.818-2.51-3.261-5.376-4.328l-11.696-4.466-8.882 23.261 6.202 2.372zm4.336-11.352l2.486-6.514 4.249 1.625c1.186.427 1.866.945 2.047 1.549.182.601.04 1.486-.451 2.648-.518 1.462-1.032 2.332-1.542 2.601-.506.269-1.356.174-2.542-.285l-4.249-1.625zm26.858 22.214l-1.162 4.316 5.751 3.581 6.727-25.143-8.569-5.332-19.498 17.198 5.862 3.648 3.308-2.988 7.581 4.719zm1.435-4.818l-5.245-3.265 8.265-7.565.059.04-3.079 10.795v-.004zm4.739 14.118l9.83 9.269c2.482 2.348 4.783 3.391 6.905 3.127 2.119-.265 4.328-1.652 6.617-4.158l3.577-3.795c2.407-2.534 3.538-4.897 3.379-7.099-.158-2.198-1.506-4.466-4.047-6.81l-9.182-8.652-17.079 18.119zm17.949-9.36l4.229 3.984c.866.767 1.316 1.526 1.348 2.285.04.755-.49 1.704-1.573 2.842l-3.577 3.795c-.897.972-1.794 1.553-2.684 1.743-.889.19-1.779-.13-2.672-.953l-4.225-3.984 9.154-9.712zm15.055 26.313l5.506-3.885 2.968 4.202c.632.866.893 1.581.783 2.142-.115.557-.625 1.146-1.53 1.759-1.103.854-1.98 1.348-2.628 1.478-.648.126-1.36-.368-2.134-1.494l-2.964-4.202zm-13.949 1.715l3.83 5.427 5.399-3.81 2.964 4.202c.561.818.735 1.565.526 2.241-.209.68-.711 1.273-1.506 1.783l-2.846 2.012 3.83 5.427 4.095-2.893c1.146-.826 1.787-1.779 1.933-2.858.146-1.079-.158-2.194-.909-3.348l.217-.154c1.743 1.534 3.269 2.138 4.573 1.818 1.308-.32 2.779-1.119 4.411-2.391 2.47-1.743 3.712-3.486 3.723-5.233 0-1.747-.826-3.783-2.506-6.111l-7.391-10.471-20.344 14.36zm34.772 19.262l4.68 10.308 4.957-2.253-7.427-16.356-22.672 10.301 7.526 16.565 4.957-2.253-4.779-10.518 4.415-2.008 4.391 9.676 4.202-1.909-4.391-9.676 4.142-1.877zm5.711 27.941c-.186-.866-.217-1.549-.095-2.059.123-.506.648-.877 1.573-1.107.664-.229 1.225-.162 1.684.202.459.36.893 1.379 1.308 3.063.364 1.265.49 2.213.372 2.85-.123.632-.779 1.087-1.968 1.372l1.522 6.19 1-.245c2.178-.561 3.64-1.403 4.383-2.526.747-1.126 1.047-2.455.905-3.98-.138-1.53-.451-3.182-.925-4.961-.486-2.127-1.055-3.913-1.715-5.368-.66-1.451-1.621-2.459-2.878-3.02-1.261-.565-3.028-.569-5.304 0-2.261.565-3.798 1.336-4.609 2.324-.806.984-1.174 2.213-1.099 3.688.079 1.47.312 3.217.711 5.233l.253 1.443c.308 1.478.403 2.455.277 2.933-.126.474-.696.81-1.704 1.008-.976.261-1.672.123-2.091-.419-.415-.542-.791-1.561-1.123-3.067-.423-1.538-.542-2.648-.348-3.324.19-.676.897-1.146 2.119-1.419l-1.518-6.19c-2.597.652-4.36 1.542-5.3 2.668-.937 1.13-1.352 2.494-1.241 4.091.111 1.597.443 3.419 1 5.474.877 3.474 1.877 5.858 2.996 7.158 1.119 1.3 2.316 1.953 3.589 1.961 1.273 0 2.577-.186 3.921-.589 2.704-.581 4.344-1.617 4.929-3.099.585-1.482.534-3.996-.158-7.542l-.466-2.723v-.02zm-258.521 127.591l6.107 6.7c1.174 1.383 2.308 2.221 3.391 2.518 1.083.296 2.376-.237 3.881-1.605.826-.704 1.36-1.431 1.605-2.182.241-.747 0-1.609-.771-2.581l.134-.123c.877.684 1.688.933 2.431.747.743-.19 1.506-.66 2.289-1.415 1.332-1.233 1.897-2.391 1.688-3.47-.206-1.079-.901-2.233-2.091-3.463l-6.044-6.629-12.621 11.502zm12.929-5.621l2.577 2.826c.403.466.581.842.538 1.126-.043.285-.261.589-.648.913-.482.462-.897.664-1.249.609-.352-.055-.787-.379-1.296-.968l-2.21-2.423 2.289-2.083zm-4.629 4.217l2.379 2.609c.506.526.787.972.842 1.336.051.368-.174.779-.688 1.233-.498.462-.953.652-1.356.569-.403-.083-.85-.399-1.336-.953l-2.316-2.542 2.474-2.253zm17.7 22.329l-1.182 2.83 3.589 2.953 6.838-16.486-5.344-4.395-14.807 9.929 3.66 3.012 2.518-1.735 4.727 3.893zm1.407-3.146l-3.269-2.692 6.3-4.395.04.04-3.067 7.059-.004-.012zm17.929 7.541c-.506-.336-.85-.656-1.036-.964-.182-.308-.103-.743.241-1.296.217-.431.526-.668.921-.711.399-.04 1.103.253 2.111.877.787.447 1.3.85 1.545 1.217.245.368.146.909-.304 1.617l3.712 2.308.372-.601c.802-1.32 1.115-2.435.941-3.34-.174-.909-.66-1.708-1.462-2.387-.802-.684-1.747-1.344-2.834-1.988-1.253-.81-2.391-1.411-3.411-1.806s-1.976-.431-2.862-.103c-.885.328-1.755 1.17-2.609 2.534-.838 1.36-1.221 2.474-1.146 3.348.079.87.486 1.648 1.229 2.332.743.684 1.696 1.427 2.858 2.229l.814.585c.862.573 1.379 1.012 1.542 1.304.17.292.051.731-.352 1.312-.352.597-.759.862-1.225.794-.462-.063-1.138-.387-2.02-.964-.949-.553-1.534-1.04-1.763-1.462-.233-.423-.111-.996.36-1.711l-3.715-2.308c-.957 1.561-1.399 2.846-1.316 3.85.079 1 .53 1.87 1.348 2.597.822.731 1.858 1.466 3.115 2.21 2.095 1.281 3.731 1.972 4.901 2.075 1.174.099 2.071-.154 2.7-.763.628-.605 1.178-1.328 1.64-2.166 1.047-1.581 1.356-2.878.933-3.881-.423-1.012-1.656-2.217-3.696-3.625l-1.53-1.111zm18.914 7.056l7.099 3.146 1.514-3.411-11.257-4.996-6.929 15.609 11.407 5.059 1.514-3.415-7.241-3.21 1.348-3.04 6.66 2.953 1.281-2.893-6.66-2.953 1.265-2.85zm10.771 18.68l8.743 2.391c1.735.54 3.138.643 4.21.313 1.075-.332 1.881-1.475 2.423-3.432.32-1.04.383-1.941.186-2.704-.194-.763-.87-1.352-2.032-1.767l.047-.178c1.111.111 1.929-.115 2.455-.668.526-.557.917-1.364 1.174-2.423.466-1.755.328-3.032-.427-3.834s-1.961-1.403-3.625-1.806l-8.652-2.364-4.502 16.471zm7.913-11.668l3.688 1.008c.589.182.945.399 1.055.664.115.265.099.64-.055 1.119-.158.648-.403 1.043-.731 1.182-.328.142-.866.103-1.613-.123l-3.162-.862.818-2.988zm-1.652 6.04l3.403.933c.711.17 1.186.395 1.427.676.245.281.269.751.079 1.411-.174.656-.455 1.059-.838 1.206-.387.146-.933.119-1.636-.091l-3.316-.905.881-3.229zm26.862 9.212l.577 3.014 4.621.485-3.376-17.526-6.882-.723-6.882 16.446 4.708.496 1.142-2.832 6.091.641zm-.557-3.402l-4.21-.443 2.834-7.142h.047l1.332 7.581-.004.004zm17.193-10.384l-4.549.213.81 17.058 11.664-.553-.186-3.957-7.119.337-.621-13.097zm17.372-1.98l-4.47.874 3.269 16.76 11.467-2.236-.759-3.887-6.996 1.364-2.51-12.874zm38.277-1.945l.217.451c.419.87.474 1.518.162 1.941-.308.427-.897.826-1.763 1.202-1.178.577-2.032.688-2.557.328-.526-.36-1.036-1.119-1.534-2.285l-1.15-2.399c-.561-1.063-.787-1.889-.688-2.478.099-.585.719-1.142 1.854-1.668.696-.364 1.308-.561 1.83-.601.526-.04.988.253 1.383.881l.289.593 4.229-2.028-.289-.593c-.751-1.506-1.53-2.51-2.336-3.016-.806-.506-1.715-.644-2.739-.415-1.02.229-2.229.692-3.625 1.391-1.522.7-2.759 1.447-3.704 2.241-.949.794-1.51 1.747-1.684 2.866-.174 1.119.134 2.518.933 4.198l1.909 3.98c.893 1.838 1.85 3.024 2.87 3.557 1.02.534 2.119.644 3.304.332 1.186-.312 2.474-.822 3.866-1.53.909-.407 1.751-.866 2.526-1.376.775-.51 1.379-1.21 1.818-2.095.387-.909.482-1.771.277-2.585-.202-.814-.518-1.636-.953-2.466l-.217-.451-4.229 2.024zm8.937-17.411l-3.802 2.51 9.407 14.249 9.747-6.435-2.182-3.304-5.949 3.925-7.221-10.945zm18.609-14.277l7.257 8.384c.64.723.897 1.308.763 1.759-.13.451-.569.976-1.312 1.573-.7.66-1.316 1.079-1.846 1.261-.526.182-1.099-.075-1.708-.775l-7.387-8.538-3.443 2.98 7.447 8.605c.866 1.051 1.704 1.798 2.514 2.233.81.435 1.759.451 2.846.043 1.083-.403 2.474-1.344 4.17-2.814 1.909-1.597 3.02-3.091 3.332-4.478.316-1.391-.265-2.925-1.739-4.605l-7.451-8.609-3.443 2.98zm21.321 3.273l5.901-6.878c1.229-1.336 1.925-2.561 2.083-3.672.162-1.111-.526-2.332-2.063-3.656-.802-.735-1.589-1.174-2.364-1.324-.771-.15-1.597.209-2.466 1.079l-.138-.119c.569-.957.719-1.791.443-2.506-.277-.711-.838-1.411-1.684-2.099-1.387-1.17-2.601-1.589-3.648-1.253-1.047.336-2.107 1.174-3.182 2.502l-5.842 6.806 12.961 11.119zm-7.162-12.142l2.49-2.901c.415-.459.767-.684 1.055-.672.285 0 .613.186.984.534.518.419.771.806.755 1.162 0 .36-.277.826-.798 1.407l-2.134 2.49-2.352-2.02zm4.755 4.079l2.296-2.68c.459-.565.866-.901 1.225-1 .356-.099.791.079 1.304.534.522.439.763.862.731 1.277-.04.411-.292.889-.783 1.439l-2.237 2.609-2.542-2.178h.004z" fill="#fff"/></g></svg>