<svg width="512" height="512" viewBox="0 0 512 512" version="1.1" xmlns="http://www.w3.org/2000/svg" xmlns:sketch="http://www.bohemiancoding.com/sketch/ns"><title>st-louis-cardinals</title><desc>Created with Sketch.</desc><g sketch:type="MSShapeGroup" stroke="none" stroke-width="1" fill="none"><path d="M428.714 381.09c-2.662-1.327-5.509-2.079-8.493-2.255-.273-3.821-1.523-7.542-2.59-10.661-.461-1.351-.896-2.626-1.179-3.691-1.34-5.04-1.703-7.097-.5-10.37 2.556-6.973-6.354-10.983-9.88-12.571l-1.085-.493c-1.038-.468-1.634-.239-3.216.369-1.282.498-2.758 1.483-4.697 3.263 1.614-2.646 2.659-5.972 2.92-9.497 1.048-.756 2.021-1.947 2.808-3.517 2.655-5.28 2.773-14.062-4.851-22.883-3.091-3.577-24.807-22.321-43.913-38.628l-.072-.064c6.72-2.158 16.996-5.461 16.907-5.436 1.441-.383 3.764-1.454 5.894.468 1.882 1.82 5.574 2.487 8.765.246 5.534-3.878 2.467-12.409 1.332-15.588-1.989-5.586-4.799-7.692-6.81-8.474-1.951-.759-4.014-.802-5.794.144-2.768 1.469-3.442 3.829-3.761 5.76-.354 2.099-3.71 2.587-9.68 4.085 0 0-20.463 5.563-21.919 5.976l-.106-.089-4.958-4.2c-.961-1.588-2.863-4.429-5.104-6.245-.386-6.377-5.354-13.967-9.43-17.071-.211-4.438-3.786-10.866-7.595-13.207-17.09-30.055-32.359-49.346-46.651-58.939l-.468-.311c-2.561-1.712-2.774-1.954-2.875-3.286-.879-11.844-4.063-23.197-8.099-29.288 1.594-2.556 4.006-7.104 5.676-13.414 0 0 1.802-6.81 1.802-6.806l-2.067 1.362c.525-1.717 1.05-3.766 1.558-6.25l.045-.329c.153-2.043-1.233-2.81-1.662-2.995-.179-.079-.349-.119-.52-.159.153-2.258-.075-4.976-1.25-7.978l-1.589-4.068-2.924 3.243c-5.983 6.639-15.083 10.101-23.118 13.153-1.838.699-3.58 1.366-5.229 2.043-13.102 5.396-21.204 11.174-28.843 27.504l-.597.501c-3.471 2.908-10.699 8.964-14.791 20.956l-.679 1.991 1.775 1.133c4.22 2.686 8.775 4.577 14.535 6.587-21.609 48.131 19.523 76.687 53.944 94.179-1.994 3.656-3.593 7.072-4.014 11.102l-15.422 16.195c-1.485.388-4.286 1.302-5.913 3.035-.557.583-1.074 1.382-1.552 2.358l-1.129.236c-9.642 1.927-25.047 5.439-65.926 16.752-5.91-5.404-15.751-8.866-25.433-8.866-15.337 0-25.238 8.209-35.394 20.538-14.656 17.796-31.213 66.507-9.273 92.292 3.749 4.411 17.858 18.636 42.031 16.797 6.471-.493 11.314-1.563 15.588-2.501 8.441-1.85 12.292-2.701 20.699 2.928l3.362 2.255 3.179-2.504c4.787-3.771 12.919-2.502 19.466-.985l12.686 2.949-6.653-11.162c-8.877-14.888-21.454-17.023-34.141-15.921 7.142-1.986 11.883-8.306 15.342-15.797-.46 4.934.393 10.179 5.069 13.492 7.54 5.335 16.987 2.997 23.977-1.315 3.311 2.81 7.746 4.455 11.836 4.277 3.548-.069 6.596-.764 9.449-2.15 1.892 1.331 4.012 2.124 6.324 2.352 3.833.374 7.933-.868 12.218-3.657 2.229 2.226 5.15 3.442 8.474 3.457 1.548.008 3.165-.199 4.802-.612l-.164.612h23.078l3.103-11.309c.275 2.233.946 4.371 2.246 6.246 1.439 2.066 4.23 4.618 9.365 5.043 5.499.453 12.093-1.61 17.412-5.329 5.78 5.67 13.072 6.594 21.738 2.726 1.716 1.469 4.672 3.198 9.11 2.591 3.045-.204 6.111-1.496 9.3-3.895 2.629 2.591 6.015 3.982 9.805 3.926 6.242-.095 11.49-3.809 15.607-7.635 4.534 4.625 11.418 9.337 21.979 7.557 1.822-.306 3.32-.702 4.643-1.056 3.491-.934 3.94-1.05 6.726 1.299l8.245 6.957.862-10.514c.158-.523 1.307-3.719 6.904-7.39l8.037-5.285-8.615-4.289zm-280.579 21.718c-11.682 2.094-23.757 4.256-34.085-.839-7.372-3.627-13.292-13.619-13.48-22.742-.173-8.261.934-16.847 3.929-25.898.849.906 1.885 1.414 2.919 1.787 2.306.834 5.633.799 8.407-.135 4.298-1.437 8.473-2.848 12.559-4.236-.231.244-.465.461-.694.717-8.709 9.75-12.336 21.28-10.138 31.931-1.253.756-2.999 1.717-4.863 2.599 0 0-4.807 2.28-5.039 2.4l-1.303.779v1.518c-.005 1.518-.005 1.518 5.811 5.006.022.017 2.421 1.578 3.739 4.316l1.552 3.234 3.595-.092c3.284-.079 5.894-1.854 7.51-3.269 5.557 2.419 11.432 1.85 16.585-1.61 4.356 2.587 8.88 3.096 11.219 3.164-2.774.398-5.527.889-8.219 1.371zm204.828-60.221h-14.709l-.121.468c-1.929-.306-4.031-.266-6.217.144-8.154 1.526-14.391 6.442-18.697 14.626.478-4.267-.015-7.585-2.038-10.164-2.347-2.984-5.655-4.652-9.568-4.819-1.424-.06-2.914.092-4.433.438l.107-.465h-21.892l.012-.04h-2.917c3.96-1.934 6.703-5.979 6.703-10.664 0-6.549-5.348-11.879-11.921-11.879-5.014 0-9.306 3.106-11.063 7.487l3.301-12.891-25.648 10.072-4.19 18.301c-8.905-1.28-14.917 3.375-18.705 8.038.673-1.23 1.734-3.169 1.646-3.029l2.6-4.159-25.28-.013.711-2.678h-20.366s-3.811 15.254-5.557 20.67c.891-3.92 4.484-19.241 4.484-19.241h-17.536c37.422-12.914 63.827-22.712 78.701-29.219 6.955-3.044 41.902-15.704 53.595-19.903 8.83-3.167 19.477-6.838 31.633-10.915 8.047 12.207 28.65 43.263 41.001 59.88-.762-.042-1.887-.045-3.637-.045zm-82.989-78.351l1.557.674-11.5 11.035c-4.599 0-6.17 4.573-6.17 4.573l-8.233 2.288c-.372-.374-2.37-.543-2.37-.543l10.309-8.921c8.449-2.598 16.407-9.106 16.407-9.106zm9.945 3.783l9.945 3.341-13.8 3.468s-1.119-.742-2.613-.868l6.468-5.942z" fill="#fff"/><path d="M427.511 383.486c-3.623-1.804-7.161-2.141-9.959-1.974.334-4.232-1.176-8.678-2.471-12.466-.476-1.397-.929-2.718-1.235-3.873-1.33-5.006-1.953-7.813-.423-11.98 1.699-4.632-5.302-7.779-8.29-9.131l-1.266-.568c-.008-.003-1.129.425-1.129.425-3.897 1.506-11.856 10.943-26.126 28.995-1.674 2.118-3.375 4.272-4.737 5.959.884-4.002 3.746-16.956 5.119-23.169 5.497.501 9.741-2.97 10.771-8.2 4.566 1.128 9.625-5.563 9.625-14.074 2.405.164 9.269-10.454-1.479-22.895-3.274-3.791-29.403-26.224-47.288-41.467l-.064-.055 21.617-6.947c1.339-.358 3.793-.929 5-.826.777.064 2.447 1.197 3.261 2.091.79.766 2.961 1.723 5.51-.127 3.447-2.496 1.865-8.344.379-12.525-1.651-4.63-3.7-6.627-5.188-7.209-1.213-.468-2.617-.612-3.962.089-3.1 1.596-1.667 4.943-3.367 6.223 0 0-.488 1.491-10.123 3.829l-22.14 6.271-1.295.366-.106-.092c-3.942-3.343-6.389-5.407-6.389-5.407-1.553-2.648-3.749-5.539-5.708-6.621.446-6.484-6.163-15.503-9.539-17.061.926-2.853-2.947-10.932-6.762-12.613-12.173-21.487-28.677-46.946-46.198-58.703-2.798-1.875-4.306-2.718-4.524-5.626-.981-13.268-4.752-24.711-8.684-29.412 1.446-2.029 4.42-6.897 6.342-14.169 0 0-2.238 1.483-3.949 2.023.921-1.053 3.18-3.62 5.205-13.561.092-1.208-.933 1.048-3.36 2.439.394-1.74 2.461-6.373.106-12.404-7.84 8.693-20.396 12.199-29.323 15.878-13.554 5.578-20.649 11.403-27.686 26.685-2.493 2.236-10.683 7.94-15.03 20.658 4.334 2.761 9.045 4.652 15.729 6.925 0 0 .054 2.138.094 2.375-20.32 44.241 13.178 71.808 54.912 92.591-2.691 4.816-4.896 8.645-5.136 13.42l-16.6 17.432s-3.786.779-5.359 2.452c-.694.735-1.251 1.956-1.599 2.853-.973.214-1.827.401-2.511.54-10.108 2.019-26.382 5.798-67.239 17.118l-.413-.446c-5.333-5.305-14.843-8.739-24.237-8.739-14.28 0-23.643 7.821-33.31 19.557-14.176 17.21-30.304 64.177-9.301 88.858 3.538 4.164 16.871 17.601 39.77 15.852 6.282-.476 11.027-1.521 15.214-2.439 8.652-1.909 13.419-2.949 22.781 3.316l1.731 1.157 1.639-1.289c5.688-4.475 14.609-3.147 21.746-1.494l6.537 1.521-3.429-5.748c-11.148-18.701-28.387-15.612-45.054-12.628-12.111 2.17-24.633 4.411-35.754-1.073-8.328-4.102-14.768-14.893-14.979-25.094-.208-10.049 2.075-21.208 5.574-30.814 2.753 3.537 6.247 5.436 9.41 4.602.424-.11.817-.262 1.194-.43.31-.043.616-.104.907-.207 56.683-19.028 95.15-32.935 114.321-41.324 7.025-3.071 42.053-15.766 53.77-19.969 10.383-3.726 22.152-7.752 33.656-11.602 6.921 10.53 34.201 51.813 46.055 66.738-2.337 13.716-6.403 30.055-13.292 34.284l-.954.598c1.496-8.006 6.445-29.176 7.221-32.362l.859-3.524-16.258-.005-.275 1.065c-2.109-.842-4.722-1.048-7.654-.5-12.589 2.36-20.223 13.914-22.697 34.346l-.133 1.041c-2.454 2.813-4.386 3.353-4.965 3.139-.205-.08-.245-.537-.237-.796.087-2.424 1.411-6.97 2.691-11.373 3.258-11.196 5.156-18.844 1.993-22.879-1.85-2.348-4.464-3.662-7.563-3.796-2.722-.114-5.524.689-8.063 1.952l.46-1.972h-16.868l-.47 2.273c-1.921 9.262-7.511 28.882-11.348 33.36-.757.883-2.253 1.431-3.289 1.573 1.058-5.07 5.839-22.629 8.924-33.634l1.015-3.615-17.105-.005-.502 2.23c-.057.249-5.631 24.909-9.984 32.476-1.25 2.17-2.419 2.768-2.862 2.629-.29-.089-.575-.548-.528-1.145.428-5.777 9.771-43.103 13.334-56.996l1.384-5.402-19.428 7.629-4.472 19.525c-.579-.189-1.223-.358-1.954-.485-12.498-2.093-18.586 9.267-20.875 13.542-2.934 5.476-5.894 14.48-6.166 21.631-1.813 2.129-4.024 3.751-4.769 3.657-.626-.084-.787-.311-.929-.59-2.367-4.632 5.044-22.211 11.066-33.218l2.305-4.219-23.937.008.708-2.681h-14.733l-.515 2.205c-3.006 12.857-8.392 29.721-13.122 36.345-.565.796-1.062 1.212-1.396 1.419.294-3.052 4.063-20.043 7.6-35.035l.827-3.505h-16.836l-.716 2.723c-5.46-2.007-12.611-1.615-18.559 5.05-8.681 9.718-11.938 21.059-9.098 31.354-1.261.941-4.043 2.527-6.76 3.814l-4.806 2.277 4.559 2.738c.017.012 3.036 1.899 4.727 5.424l.8 1.663 1.852-.042c3.085-.077 5.495-2.196 7.064-3.831 5.65 3.183 11.844 2.587 17.011-1.636 4.67 3.453 10.162 3.756 11.923 3.756 14.446 0 19.971-19.06 24.004-32.98.537-1.854 1.052-3.624 1.55-5.22h5.534c-.341.826-.698 1.682-1.065 2.562-1.607 3.851-3.427 8.217-4.834 12.473-1.567 4.737-5.227 15.831 1.656 20.701 6.783 4.801 15.999 2.25 22.732-2.542 3.201 3.624 7.887 5.167 11.469 5.008 3.756-.072 6.882-.919 9.794-2.668 1.813 1.682 3.92 2.651 6.292 2.882 4.438.43 8.884-1.892 12.455-4.61 1.798 2.806 4.556 4.379 7.988 4.396 2.84.015 5.841-.792 8.763-2.255l-.616 2.255h17.509l5.668-20.67c3.281-13.168 6.565-14.694 7.191-14.87.28-.075.507-.005.664.08-.013.866-.735 3.059-1.382 5.038-.59 1.783-1.318 4.005-2.065 6.668l-.216.754c-1.464 5.167-3.923 13.805-.245 19.094 1.109 1.593 3.288 3.56 7.374 3.898 5.608.463 12.586-2.129 17.507-6.266 7.022 8.571 15.449 6.434 21.967 3.106 1.803 1.991 4.229 3.709 8.385 3.144 3.648-.239 6.993-2.435 9.816-4.951 2.243 3.258 5.532 5.035 9.425 4.976 6.317-.092 11.604-4.602 15.761-8.802 5.076 5.88 11.395 10.454 21.419 8.765 1.699-.291 3.13-.667 4.393-1.006 3.747-1.003 5.299-1.416 9.164 1.844l4.246 3.585.455-5.528c-.002.032.679-4.336 8.089-9.198l4.14-2.723-4.445-2.206zm-165.687-105.766c-1.984.389-2.947.667-4.291 1.909-.944.871-1.59 2.089-1.932 2.995-3.741.969-7.595 1.956-11.334 2.9-.854-.501-2.491-1.16-5.024-.978-.231-.023-.904-.142-.849-.842.045-.607 13.973-13.171 13.973-13.171 3.89-.792 18.151-9.051 18.151-9.051l4.365 1.777-.322.715-.622 1.097-11.291 11.951c-.245.271-.478.632-.824.699zm13.069-.145c-.985-.724-2.023-1.148-2.987-1.125-3.618.055-2.387-1.255-1.563-2.19l9.68-9.008s7.632 3.162 16.798 6.365c-13.277 3.629-20.48 5.571-21.927 5.957zm-148.76 117.847l-.185-.127.185.127zm11.286-12.142c-.035 0-.089 0-.22-.164-.188-.239-1.765-2.562.287-10.713 1.516-6.012 3.739-10.036 6.255-11.343.485-.251 1.162-.51 2.132-.473-1.293 11.189-4.861 22.692-8.454 22.692zm89.205-10.88c-.725 2.873-1.469 5.849-2.137 8.912-.094.441-1.251 1.356-2.857 1.504-.579.064-1.617.017-1.845-.516-1.448-3.321.543-14.037 5.218-19.573 1.381-1.63 2.741-2.464 4.056-2.511.054 2.27-1.367 7.923-2.436 12.184zm101.319 10.973c-.035 0-.092 0-.221-.17-.186-.236-1.763-2.564.289-10.709 1.55-6.134 3.606-9.902 6.119-11.192.849-.438 1.813-.552 2.882-.425-1.478 11.278-5.257 22.497-9.068 22.497zm73.765.547c-.664.64-1.934 1.076-3.293 1.1-1.684.038-3.241-.501-4.264-1.486-5.205-4.864-5.205-4.864-2.696-8.107 1.619-2.098 3.039-4.045 4.415-5.937 1.216-1.677 2.363-3.231 3.507-4.702.398 2.905 1.233 5.605 2.02 8.125 1.62 5.217 2.431 8.319.31 11.007zm-125.206-51.81c0-5.07-4.142-9.198-9.229-9.198-5.084 0-9.226 4.129-9.226 9.198 0 5.07 4.142 9.195 9.226 9.195 5.088 0 9.229-4.125 9.229-9.195z" fill="#003263"/><path d="M246.451 302.261c9.952-3.696 21.239-7.796 27.426-10.029l1.246-.453c1.424-2.592 1.35-7.746-1.282-9.879-.585-.476-1.419-.817-2.221-1.065-.879.214-1.624.358-2.057.349-1.396.361-19.121 4.948-23.061 5.967 4.111 3.587 4.801 10.92-.052 15.109zm30.685-11.209c2.122-.762 4.91-1.768 4.91-1.768 9.301-3.338 20.52-7.209 33.345-11.5l.136-.042-.438-.672c-4.517-1.001-9.702-2.571-14.686-4.236l-23.169 6.313-.55.179c2.607 3.196 3.949 8.324.451 11.726z" fill="#FFF100"/><path d="M199.931 156.369s6.456 2.531 8.327-5.623c1.013-4.426-2.338-10.831-6.648-9.036-.042.015.773-4.668-2.847-6.263-8.926 5.459-12.938 15.575-12.938 15.575 7.855-1.668 9.083-3.918 15.062-3.401 2.134.182 3.147 1.16 4.846 2.404-2.6-.583-4.606-.719-6.792-.766-3.041-.072-9.055 2.054-12.106 2.357 0 .002 10.018 4.296 13.096 4.754z" fill="#FFF200"/><path d="M270.262 214.186c-2.704.438-6.071.54-11.22-1.379-.2 1.451-4.007 3.589-5.727 3.898 12.428 10.522 56.197 26.766 68.704 29.686 2.011.465-.916-8.503-6.414-12.177-4.027-2.704-29.318-8.528-45.342-20.028zm3.393-.834c17.286 10.235 35.736 15.814 39.777 16.982.837-.592-1.277-8.461-7.062-10.505-8.64-3.061-15.837-6.094-20.944-9.29-1.8.99-4.475 1.566-9.323-.374-.19 1.192-.552 2.337-2.447 3.188z" fill="#CD1141"/><path d="M220.335 142.887c-.884 1.431-2.528 2.333-4.326 2.21-2.577-.179-4.517-2.404-4.339-4.976.181-2.567 2.417-4.501 4.994-4.322 1.708.119 3.138 1.137 3.856 2.559-3.222-.346-3.927 2.758-3.927 2.758-2.087-2.551.609-4.017.609-4.017-1.79-.236-3.497 1.123-3.642 3.174-.143 2.051 1.409 3.831 3.466 3.973 1.387.095 2.587-.358 3.31-1.359z" fill="#fff"/><path d="M427.956 369.699h-2.057v5.563h-1.387v-5.563h-2.051v-1.217h5.494v1.217h.002zm9.3 5.558h-1.387v-5.392h-.034l-1.969 5.392h-1.34l-1.907-5.392h-.03v5.397h-1.389v-6.78h2.407l1.58 4.433h.032l1.647-4.433h2.389v6.775h.002z" fill="#003263"/><path d="M196.844 177.709c1.983-3.926 12.817-18.5 23.611-18.5-.859-2.034.201-14.081 9.382-23.252-2.085.493-4.901-.222-6.913-1.073-.757-.508-1.659-1.463-3.323-2.424-2.28-1.312-5.136-.684-7.24.563-1.24.732-9.486.525-10.806-1.725 3.519-8.503 10.571-17.307 24.168-23.015 9.271-3.886 20.121-6.218 26.961-13.367.309 11.07-16.185 18.557-16.179 18.572 9.924-2.233 16.702-8.964 16.702-8.869-4.267 11.042-14.895 17.228-14.895 17.228 3.39-.583 9.919-3.473 12.631-5.563 0 0-1.196 5.773-10.516 14.01-.02-.028 4.648-1.041 7.228-3.052 4.65 6.083 8.137 16.656 8.385 29.34.049 2.455 1.193 7.891 2.503 8.511 1.884.906.305-2.828.81-4.466 18.943 11.507 33.478 34.602 46.624 56.565-4.289-1.327-13.508-4.981-18.926-7.819.555-.603.653-1.093.706-1.82.305-4.144-3.362-6.771-5.23-7.66-.483-.232-.844-.119-.995.084-.156.206-.084.528.055.615.948.644 4.553 2.813 4.299 6.367-.069.938-1.377 2.272-3.254 2.392-4.64.493-12.309-3.472-21.863-13.24-.299-.274-.79-.934-1.434-.548-.626.383-.488.874-.319 1.133 4.908 8.087 14.914 12.68 14.914 12.68-.691 2.79-4.138 2.9-7.267 2.805-11.827-.358-19.819-13.477-21.989-16.83-.419-.649-.874-.811-1.263-.608-.418.224-.664.401-.448 1.066.337 1.013 5.067 10.816 13.481 15.684 1.124.647-3.155 3.345-5.868 3.281-4.905-.119-16.504-4.64-20.47-21.607-.049-.257-.29-.684-.876-.557-.634.144-.661.58-.57 1.088 2.253 18.692 16.098 22.891 21.285 23.505 8.639 8.506 39.866 22.669 72.3 32.165 6.102 1.72 12.337 18.457 7.515 17.038-1.736-.493-3.981-1.336-6.418-2.15-15.987-5.344-40.261-15.095-66.478-27.754-18.108-8.75-48.813-28.451-33.973-55.938 1.939-4.1 4.019-6.094 4.311-6.388.195-.104.335-.612.292-.802-.659-1.797-2.412-1.645-7.025 6.051-15.786 30.217 15.882 49.951 35.011 59.415 12.344 6.106 34.094 15.401 49.561 21.556l8.511 13.736c-7.852-1.551-33.218-11.495-40.644-14.833 0 0 2.701-2.389 1.76-4.622-.661-1.551-1.037-2.519-3.128-4.281-2.204-1.344-2.758-.401-1.798.672.891.993 2.774 4.045.954 6.143-2.996 3.463-11.497 7.343-16.313 10.052-2.105.421-3.127.374-3.353-1.429-.283-2.25 2.935-7.104 6.743-13.168-6.547-3.03-72.481-31.6-60.932-74.955zm190.064 165.796c4.958 2.186 8.505-7.564 6.596-10.362-.639-.946-4.279-4.896-9.382-10.308l-3.066 14.186c3.182 3.818 5.346 6.253 5.853 6.484zm-21.79-14.057l.3-2.511 2.909-1.13-37.89-48.428h3.375s21.578 27.815 37.254 47.367l10.861-4.231c-15.885-16.752-42.341-43.959-42.341-43.959l3.454.092c-.017-.277 51.225 52.744 51.225 52.744 2.808 3.147 7.59-7.51-.106-16.038-4.249-6.775-60.562-53.458-60.562-53.458.513 1.113.785 2.559 1.03 3.903 2.192 10.395-5.683 4.632-25.809-2.119 16.135 25.39 40.706 62.888 54.622 80.434.793-5.19 1.334-9.726 1.677-12.667zm12.572 23.108c4.128-.142 8.305-3.722 6.248-6.793l-3.741-4.784-2.508 11.577zm35.934 32.528c3.115-5.675-1.06-13.606-2.54-19.184-1.332-5.003-2.218-8.588-.347-13.686.825-2.25-5.849-5.128-6.963-5.635-5.693 2.195-30.13 35.436-32.673 37.567-1.186.993-3.959 2.594-2.276-4.714 0 0 12.274-55.44 12.186-55.492l-12.956 5.031c-1.454 12.262-5.302 46.795-17.083 54.018-1.067.652-4.646 3.295-5.712 1.227-.589-1.137 7.61-35.728 7.703-36.099h-10.403l-.817 3.167c-1.713-3.167-6.04-3.167-8.803-2.646-19.73 3.687-20.047 32.877-20.706 33.893-5.718 7.017-10.865 5.238-10.712.931.26-7.458 9.264-27.322 5.287-32.387-4.376-5.576-13.398-1.59-17.913 3.244l1.396-5.976h-10.932c-1.572 7.574-7.265 29.143-11.972 34.642-2.481 2.892-8.793 3.742-8.521.652.315-3.544 9.224-35.332 9.224-35.332h-11.044s-5.676 25.24-10.294 33.264c-3.949 6.87-9.025 3.854-8.728-.135.543-7.294 13.418-57.495 13.418-57.495l-12.819 5.04-5.17 22.569s-.042-2.124-4.187-2.821c-9.108-1.529-14.162 5.142-17.876 12.072-2.774 5.173-5.853 14.495-5.853 21.338 0 0-4.49 5.88-7.973 5.427-11.953-1.549 7.991-37.993 7.991-37.993l-22.83.003.71-2.681h-8.751c-2.419 10.372-7.958 29.489-13.575 37.36-3.046 4.267-6.507 3.076-6.604.127-.102-3.012 7.691-36.051 7.691-36.051h-11.016l-1.043 3.961c-3.09-1.971-11.148-5.167-18.304 2.853-9.35 10.47-10.908 21.596-8.102 29.975.389 1.581-8.666 5.874-8.666 5.874s3.721 2.233 5.832 6.633c3.471-.084 6.398-4.842 6.768-4.605 5.349 4.02 11.891 3.965 17.321-1.845 3.311 3.482 8.26 4.745 11.98 4.745 14.842 0 19.314-26.039 23.472-38.2l11.812-.008c-1.726 4.72-5.128 11.96-7.381 18.783-2.363 7.159-3.808 14.363.595 17.479 6.762 4.784 16.313.413 21.691-4.336 2.254 4.344 6.958 6.442 10.73 6.278 4.16-.075 7.295-1.152 10.38-3.587 5.755 7.923 14.537 1.884 19.373-2.603.84 3.316 2.932 6.175 6.913 6.19 4.717.025 9.702-2.591 13.589-6.295l-1.714 6.295h11.583l5.091-18.57c5.609-22.493 12.542-16.518 13.094-15.62 1.282 1.976-.842 5.753-3.17 14.057-1.617 5.757-5.926 19.282 4.393 20.133 5.915.49 13.664-3.139 17.657-7.782 5.881 9.447 12.965 9.182 22.295 3.834 2.023 2.618 3.536 4.475 7.309 3.948 4.341-.182 8.624-4.429 10.97-6.885 1.318 3.763 4.069 6.953 8.59 6.885 6.305-.092 11.888-5.949 15.982-10.248 5.549 7.144 11.155 11.866 20.76 10.248 6.737-1.132 9.362-4.025 15.88 1.479 0 0 .451-5.496 9.368-11.353-4.901-2.444-9.845-1.809-12.606-.958zm-276.206 1.05c-2.88 0-5.368-3.856-2.704-14.425 1.919-7.62 6.009-16.473 14.256-13.318 0 0-2.369 27.744-11.552 27.744zm89.861-4.222c-.803 3.727-8.389 5.508-10.122 1.526-2.897-6.659 3.737-28.275 13.468-25.915 3.382.821-.748 12.429-3.346 24.389zm100.664 4.314c-2.878 0-5.369-3.856-2.706-14.42 1.922-7.622 5.787-16.616 14.907-13.058-.002 0-2.774 27.478-12.202 27.478zm75.905-.394c-2.473 2.582-8.354 2.944-11.682-.244-6.75-6.313-6.616-7.201-2.976-11.899 5.239-6.776 8.652-12.453 13.339-16.65-2.925 11.779 7.53 21.228 1.318 28.793zm-142.943-53.722c0-3.505 2.853-6.345 6.367-6.345 3.521 0 6.371 2.84 6.371 6.345s-2.85 6.342-6.371 6.342c-3.514-.002-6.367-2.838-6.367-6.342z" fill="#CD1141"/><path d="M340.099 261.812l6.74 5.638 22.719-7.299s8.412-2.089 8.412-6.031c0-6.076 3.164 5.483 1.875 7.771 0 0 1.067 1.025 2.917-.309 1.852-1.344 1.515-5.031-.335-10.228-1.85-5.197-3.83-6.327-5.502-6.017-2.085.383-2.15 2.746-2.15 2.746s.335 2.094-2.02 3.859c-1.198.898-4.771 2.464-10.514 3.6l-22.142 6.27z" fill="#FFF100"/><path d="M111.59 406.937c-9.654-4.76-16.346-16.692-16.573-27.591-.228-11.024 2.431-23.286 6.492-33.774-.882-1.633-1.62-3.457-2.142-5.427-2.142-8.087.554-16.207 5.327-18.032.257-.125.533-.231.837-.316 4.821-1.382 9.427-2.567 13.849-3.823 1.557-1.374 3.125-2.551 4.69-3.465 5.566-3.249 16.217-3.388 22.437 1.13-2.887 3.385-5.374 7.993-1.288 11.786 3.197 3.071 8.458 1.812 10.618-1.852 3.333-5.646.612-11.991-3.333-16.028-4.74-4.725-13.5-7.908-22.214-7.908-12.262 0-20.933 6.175-31.099 18.517-14.615 17.745-28.702 62.437-9.33 85.206 6.492 7.629 19.599 16.209 37.368 14.853 19.425-1.478 24.702-8.755 39.809 1.357 7.109-5.6 17.948-3.477 24.168-2.031-17.769-29.806-51.757 1.123-79.615-12.601z" fill="#CD1141"/><path d="M242.789 290.249c-.847-.598-2.119-.998-3.177-1.244h-.475c-1.778.451-3.221.811-3.221.811-6.572 1.63-11.157 2.701-13.624 3.194-13.403 2.681-33.748 7.856-65.881 16.752 3.415 4.593 5.5 11.134 1.889 17.252-1.562 2.646-4.331 4.475-7.406 4.896-2.85.389-5.643-.496-7.627-2.404-2.27-2.101-5.083-6.417-.971-12.972-1.642-.704-3.479-1.122-5.353-1.327l-31.131 8.844-.47.127c-3.994 1.446-5.797 8.543-4.007 15.289 1.842 6.953 6.539 12.27 10.798 11.154 4.259-1.117 5.913-8.095 4.073-15.047-.706-2.663-1.287-4.466-2.652-6.414 0 0 2.914 2.43 4.291 8.347 1.176 5.075.998 9.151-.431 11.904 54.754-18.425 92.013-31.919 110.731-40.104 2.202-.964 7.188-2.9 14.818-5.748l1.349-.505c1.746-3.015 2.088-10.263-1.523-12.805z" fill="#FFF100"/></g></svg>