<svg width="512" height="512" viewBox="0 0 512 512" version="1.1" xmlns="http://www.w3.org/2000/svg" xmlns:sketch="http://www.bohemiancoding.com/sketch/ns"><title>tampa-bay-rays</title><desc>Created with Sketch.</desc><g sketch:type="MSLayerGroup" stroke="none" stroke-width="1" fill="none"><g sketch:type="MSShapeGroup"><path d="M445.841 257.549l-22.855-22.852-.997-25.255-.014-.014-.028-.616-6.048-2.145v.006l-.692-.236c-9.841-3.453-17.731-5.004-25.524-5.031l-132.549-132.564-101.544 101.531c-.997-.014-1.994-.028-3.032-.028h-64.461v11.516l2.021.388v5.979s10.769 2.049 15.849 3.018v28.749l-37.552 37.552 29.29 29.29c-4.719.851-9.606 1.724-9.606 1.724v11.724h2.021v5.336h26.37l140.648 140.634 138.89-138.903c20.346-2.165 32.265-13.663 32.265-31.677l-.014-.555 17.563-17.572zm-188.707-181.357l125.559 125.559c-3.391.366-6.533 1.003-9.455 1.903h-14.256l-101.849-101.857-73.265 73.268c-5.688-2.332-12.748-3.765-21.233-4.381l94.498-94.492zm76.712 138.953c-.263.47-.651 1.142-1.121 1.958-2.755-.539-5.287-1.032-5.287-1.032v-2.18c2.214.436 4.776.934 6.408 1.253zm-31.492-.02c3.197-.679 10.036-2.139 10.036-2.139v-4.886h2.92v6.305s-6.646 1.612-9.094 2.2c1.052 2.09 7.973 15.684 12.597 24.764l-1.439 2.505c-2.851-5.426-12.916-24.701-15.02-28.749zm-32.223.442c.124.214.649 1.107 1.467 2.463-3.777-.733-10.007-1.959-10.007-1.959v-2.178c3.348.657 7.556 1.488 8.539 1.675zm-20.847-7.468h2.741s25.69 65.369 31.907 81.232c-1.343-.401-2.533-.761-3.087-.92-.694-1.744-24.805-63.106-31.561-80.312zm20.681-82.897l-12.845 12.851-12.831-12.839-53.543 53.533c-1.467-1.024-3.073-1.945-4.817-2.776 36.016-36.018 70.497-70.491 71.203-71.189.873.885 55.243 55.251 98.859 98.873h-7.571l-78.456-78.455zm-177.427 61.028v-3.516c.955.181 1.993.374 3.059.582 4.18.789 8.832 1.675 10.368 1.966v3.523c-5.356-1.017-13.427-2.554-13.427-2.554zm-16.775 71.32l30.204-30.204v58.004c-.443.075-1.162.208-2.035.366l-28.169-28.167zm32.5 29.719v-103.904l-17.87-3.398v-7.322h62.164c32.39 0 47.644 9.102 47.644 31.809 0 6.069-1.343 11.848-3.972 16.976l2.394.373c2.063-4.235 3.337-8.921 3.724-13.946.083-1.121.153-2.249.153-3.405 0-6.929-1.343-12.721-4.097-17.462 4.734 5.238 7.004 12.229 7.004 21.142 0 5.122-.9 9.939-2.617 14.334l6.561 1.038-7.267.686c-3.114 6.901-8.319 12.631-15.295 16.624l.733 1.024-1.066-.844c-.539.304-1.08.602-1.634.892-1.038.499-2.049.942-3.016 1.343l7.599 11.205s6.091 8.928 7.835 11.496c-.651-.843-1.288-1.702-1.925-2.546 0 0-.582-.767-.637-.851-.055-.055-8.278-12.155-8.278-12.155s-4.249-6.25-6.547-9.654c-.208-.297-.401-.574-.568-.83.72-.305 1.453-.645 2.188-1.003.484-.242.928-.499 1.384-.755l-1.937-1.557-.443.25c-1.412.686-2.741 1.26-3.972 1.736l-.651.354c6.451 9.384 11.946 17.752 16.956 24.95 2.727 3.634 5.592 7.42 8.596 11.261l28.431-69.182h16.14l33.137 84.339 7.849 2.338 11.946-2.338v-30.756l-27.338-46.018-12.139-2.381v-5.183h50.662v5.183l-11.184 2.381 18.368 35.145 20.169-35.145-12.167-2.381v-5.183h48.281c4.595-1.467 9.911-2.249 15.918-2.249 8.291 0 16.278 1.856 24.984 4.9l.983 24.799h-4.015c-2.906-14.845-10.617-22.265-22.369-22.265-8.568 0-15.67 4.63-15.67 11.663 0 8.755 6.77 11.669 17.399 16.577 6.893 3.183 15.629 6.228 22.658 12.741 5.385 4.9 7.877 11.392 7.877 19.884 0 16.97-12.513 28.114-35.588 28.114-11.032 0-20.971-2.131-30.092-6.632l-.679-24.666h4.969c2.477 15.912 10.908 24.003 24.707 24.003 9.799 0 15.6-5.177 15.6-12.334 0-3.708-1.648-7.031-4.554-9.288-5.26-4.241-12.155-6.36-19.046-9.813-15.614-7.682-23.199-15.641-23.199-28.777 0-8.588 3.128-15.607 8.899-20.59l-10.7 1.502-27.463 46.018v30.757l16.291 2.526v5.163h-101.107v-5.163l12.707-2.526-6.091-17.503h-29.954l-5.08 13.718.637.761c24.335 26.763 57.265 48.059 122.058 15.226l2.963 3.523c-7.987 8-106.792 72.815-166.574-28.142-6.754-10.153-11.986-21.496-17.454-31.13 0 0-.263-.651-.983-1.862-.291-.525-.554-.983-.802-1.412l-8.928-3.004v-4.859c1.26.035 3.641.049 4.304.049 8.14 0 14.229-1.925 18.382-5.814v.006l1.799-1.952 2.021 16.284 2.908-17.662 5.771 4.188-3.752-6.007 15.018-1.536-15.006-3.321 2.216-5.661-4.762 3.17.387-3.067.112-.865-.041.049c.083-1.178.138-2.375.138-3.641 0-19.489-9.302-29.683-27.725-29.683-1.868 0-3.903.179-5.952.36v106.769l18.244 3.219v7.503h-65.528v-7.503l17.87-3.222zm57.375-93.981l-13.924 13.94 1.813 1.156c4.249-4.257 8.637-8.637 13.081-13.087.747 1.779 1.286 3.744 1.703 5.889l-10.147 10.147 9.219 5.875-2.381-11.357 4.719 8.7-.028.193c-4.609 4.312-5.385 9.434-5.385 12.465l-13.44 1.17 13.454-5.771-8.568-8.859-12.873 12.859v6.707c-1.357-.014-2.686-.028-2.908-.035v-50.662c1.26-.098 2.519-.179 3.655-.179l.236.006c8.193.041 14.341 2.159 18.507 6.402 1.272 1.286 2.367 2.76 3.266 4.441zm-25.663 92.056v-43.096c.167.049 1.398.464 2.908.977v42.634c-1.288-.23-2.326-.417-2.908-.514zm9.247-39.974c.193.311.374.637.374.637.387.672.623 1.113.733 1.363-2.754-.934-6.325-2.131-6.325-2.131l.014-1.634c2.158.725 4.512 1.514 5.204 1.764zm125.642 89.405c12.472-1.917 23.559-5.592 32.031-9.101 15.515-6.437 26.535-13.891 30.395-17.204.374-.319.692-.61.942-.838l1.274-1.279 2.368 2.754-1.011 1.005c-2.7 2.706-14.271 11.011-31.091 18.091-14.646 6.16-37.137 12.859-61.126 9.856-16.472-2.055-31.449-8.325-44.793-18.714 12.527 8.769 26.382 14.139 41.512 16.036 10.285 1.283 20.266.819 29.498-.605zm-30.507-59.7c.193.602.568 1.654 1.011 2.927h-25.096c-.387 1.038-2.422 6.533-4.042 10.901-.914-.977-1.813-1.925-2.672-2.873 1.384-3.722 3.183-8.547 4.068-10.955h26.73zm48.46 28.112h-51.311v-2.908h91.411l-.318.16c-1.897.961-3.779 1.875-5.633 2.747h-34.149zm44.418 0l-2.45-2.908h7.973v-5.55c1.73.27 2.919.45 2.919.45v8.008h-8.442zm-7.847-41.207v26.799c-1.26-.195-2.312-.36-2.92-.45v-28.169c.623-1.046 25.524-42.737 26.59-44.529.499-.069 1.758-.242 3.336-.47-1.757 2.463-3.101 5.232-3.971 8.25-7.35 12.29-22.716 38.029-23.034 38.568zm68.56 18.499c0 6.091-5.218 10.043-13.303 10.043-1.549 0-3.018-.116-4.416-.332l15.629-15.633c1.37 1.659 2.09 3.702 2.09 5.922zm-22.328-17.046c2.228 1.113 4.457 2.09 6.616 3.038 4.457 1.958 8.679 3.807 12.001 6.506.374.285.706.588 1.024.906-.36-.208-.705-.421-1.08-.629-4.705 4.713-10.271 10.264-16.415 16.417-1.952-.519-3.71-1.274-5.301-2.269l16.472-16.479-.484-.486c-.749-.332-1.481-.657-2.243-.989-2.145-.936-4.359-1.911-6.577-3.018-5.495-2.714-9.937-5.454-13.454-8.368 2.743 1.829 5.871 3.606 9.442 5.372zm-10.7 7.523l.209 1.294c.788 5.053 2.2 9.247 4.208 12.623-3.197-3.225-5.411-7.855-6.687-13.919h2.269v.002zm25.829 34.329l-133.616 133.623-135.706-135.707h-28.889v-2.914h65.666v-7.924c1.744.304 2.92.519 2.92.519v10.319h-3.529l84.504 84.498v-10.576h30.259v10.381l88.131-88.131c-.609-.285-1.231-.547-1.84-.851l-.818-.409-.041-1.135c8.472 3.639 17.66 5.418 27.947 5.418 11.669 0 21.317-2.837 27.892-8.207 6.533-5.33 9.98-13.006 9.98-22.196 0-5.177-.914-9.648-2.714-13.524-1.411-3.045-3.35-5.737-5.896-8.063-6.022-5.564-13.095-8.657-19.351-11.392l-3.903-1.736-.692-.319c-5.786-2.664-9.799-4.603-12.29-6.913-2.09-1.945-3.087-4.139-3.087-7.253 0-5.342 5.757-9.363 13.385-9.363 6.618 0 11.71 2.615 15.269 7.799 2.214 3.218 3.834 7.426 4.844 12.611l.36 1.848h8.291l-1.011-25.462c.609.201 1.205.388 1.84.61l.969.346 1.093 27.428h-1.176l18.95 18.942-12.984 12.984c.222 1.64.36 3.329.36 5.144.002 18.014-13.079 28.983-35.116 29.608z" fill="#fff"/><path d="M183.869 175.065l73.265-73.265 101.849 101.857h14.256c2.92-.9 6.062-1.536 9.455-1.903l-125.559-125.559-94.498 94.492c8.484.613 15.545 2.046 21.233 4.378m-77.904 52.282l-30.202 30.202 28.169 28.169c.873-.16 1.591-.293 2.035-.366-.002-2.021-.002-31.532-.002-58.004m274.264 62.84c1.398.215 2.865.332 4.416.332 8.085 0 13.303-3.952 13.303-10.043 0-2.221-.72-4.263-2.09-5.924m-27.74 27.746l-110.986 110.992-110.099-110.092h-25.607l135.706 135.707 133.616-133.623c-.651.014-1.315.028-1.98.028-7.473 0-14.201-.983-20.65-3.012m57.388-31.767l12.984-12.984-18.95-18.942h-8.637l-.234-1.231c-.11-.582-.234-1.135-.348-1.689h-.788l-.36-1.848c-1.011-5.183-2.629-9.392-4.844-12.611-2.99-3.6-6.908-5.226-12.071-5.226-8.069 0-14.16 4.355-14.16 10.14 0 1.459.222 2.747.665 3.903 2.491 2.312 6.506 4.249 12.29 6.913l.692.319 3.903 1.736c6.256 2.733 13.329 5.828 19.351 11.392 2.546 2.326 4.485 5.018 5.896 8.063 2.452 3.392 3.974 7.399 4.611 12.064" fill="#002D62"/><path d="M168.311 201.185c-.415-2.145-.955-4.111-1.703-5.889l-13.081 13.087 4.638 2.949" fill="#79BCE7"/><path d="M257.134 104.783c-.706.698-35.187 35.172-71.203 71.189 1.744.83 3.35 1.75 4.817 2.776l53.541-53.533 12.831 12.839 12.845-12.851 78.456 78.456h7.571c-43.613-43.626-97.985-97.99-98.858-98.875zm-.014 27.068l-9.744-9.738 9.744-9.752 9.745 9.752-9.745 9.738z" fill="#79BCE7"/><path d="M257.134 413.291l110.986-110.992c-.761-.234-1.51-.456-2.258-.719-44.791 44.785-107.787 107.787-108.727 108.727-.955-.926-62.441-62.433-107.123-107.108h-2.975m3.527-94.831l-7.682 7.674v2.977c2.963-2.949 6.007-6 9.135-9.135m105.102-97.524l-9.744 9.753 9.744 9.738 9.745-9.738m1.025 269.849v-10.403h-21.317v10.61l10.562 10.574" fill="#fff"/><path d="M147.312 185.356c-1.384 0-2.879.104-4.428.236v30.452l7.682-7.674-4.748-4.9 5.897 3.759 13.924-13.94c-.9-1.681-1.994-3.156-3.266-4.443-3.974-2.305-8.97-3.49-15.061-3.49" fill="#002D62"/><path d="M261.592 213.891v2.18s6.229 1.225 10.007 1.959c-.818-1.356-1.343-2.249-1.467-2.463-.983-.189-5.191-1.019-8.539-1.676m94.801 1.268c-1.577.228-2.837.401-3.336.47-1.066 1.793-25.967 43.483-26.59 44.529v28.169c.61.09 1.662.255 2.92.45v-26.799c.318-.539 15.684-26.278 23.033-38.57.871-3.016 2.216-5.786 3.972-8.248m-37.58 26.208c-4.622-9.08-11.545-22.672-12.597-24.764 2.45-.588 9.094-2.2 9.094-2.2v-6.305h-2.92v4.886s-6.839 1.459-10.036 2.139c2.104 4.048 12.167 23.323 15.02 28.749l1.439-2.505m26.867 53.81s-1.19-.179-2.919-.45v5.55h-7.973l2.45 2.908h8.443m-18.244-89.295v2.18s2.532.492 5.287 1.032c.47-.816.859-1.488 1.121-1.958-1.632-.319-4.194-.818-6.408-1.253m5.163 86.547l.318-.16h-91.411v2.908h85.46c1.854-.873 3.737-1.786 5.633-2.747m92.907-29.908c-.637-4.664-2.159-8.671-4.611-12.064 1.801 3.876 2.714 8.347 2.714 13.524 0 9.192-3.446 16.868-9.98 22.196-6.577 5.37-16.223 8.207-27.892 8.207-10.285 0-19.475-1.779-27.947-5.418l.041 1.135.818.409c.609.304 1.231.566 1.84.851l-88.131 88.131v-10.381h-30.259v10.576l-84.504-84.5h3.529v-10.319s-1.176-.215-2.92-.519v7.924h-65.666v2.914h57.47c44.683 44.675 106.167 106.183 107.123 107.108.942-.94 63.936-63.942 108.727-108.727.749.263 1.496.484 2.258.719 6.451 2.029 13.177 3.012 20.652 3.012.665 0 1.329-.014 1.98-.028 22.037-.623 35.116-11.593 35.116-29.608 0-1.813-.138-3.502-.36-5.142zm-178.935 121.637v-10.61h21.317v10.403l-10.755 10.782-10.562-10.574zm164.096-154.794l.234 1.231h9.813l-1.093-27.428-.969-.346c-.635-.222-1.231-.409-1.84-.61l1.011 25.462h-7.503c.112.555.236 1.109.346 1.691m-24.456 32.072c.76.332 1.494.657 2.243.989l.484.486-16.472 16.479c1.591.997 3.35 1.75 5.301 2.269l16.415-16.417 1.08.629c-.318-.318-.649-.623-1.024-.906-3.321-2.699-7.544-4.548-12.001-6.506-2.159-.948-4.388-1.925-6.616-3.038-3.571-1.766-6.701-3.545-9.44-5.372 3.515 2.914 7.959 5.654 13.454 8.368 2.214 1.107 4.428 2.082 6.575 3.018m6.047-53.444c5.163 0 9.08 1.626 12.071 5.226-3.559-5.183-8.651-7.799-15.269-7.799-7.627 0-13.385 4.021-13.385 9.363 0 3.114.997 5.308 3.087 7.253-.443-1.156-.665-2.444-.665-3.903.002-5.786 6.092-10.14 14.16-10.14m-22.92 68.871c-2.007-3.376-3.42-7.571-4.208-12.623l-.209-1.294h-2.269c1.275 6.062 3.49 10.692 6.687 13.918m-155.777 1.155c.857.95 1.758 1.897 2.672 2.873l4.042-10.901h25.096c-.443-1.274-.818-2.326-1.011-2.927h-26.73c-.885 2.408-2.684 7.231-4.068 10.955m18.2-49.388c-3.309 8.879-9.025 24.258-9.025 24.258s-.443 1.176-.859 2.298c1.08-.006 2.574-.014 4.249-.014l.346-.934h-.499c.928-2.499 4.955-13.309 7.544-20.273-.649-1.964-1.258-3.806-1.757-5.334m52.172 52.688c-6.215-15.863-31.907-81.232-31.907-81.232h-2.741c6.754 17.206 30.867 78.566 31.559 80.312.554.159 1.746.519 3.089.92m-177.966-103.662v-.409c-1.536-.291-6.188-1.176-10.368-1.966v.401c1.135.223 5.995 1.143 10.368 1.974m96.395 22.464l-.014-.277c-.387 5.025-1.661 9.709-3.724 13.946l1.066.167c1.746-4.208 2.672-8.865 2.672-13.836m-3.848 16.397l-1.411.132c-3.073 5.094-7.391 9.392-12.818 12.666l.706.983c5.979-3.364 10.576-8.085 13.523-13.781m-14.659 14.403l-.995-.796c-.458.256-.9.513-1.384.755-.733.36-1.467.698-2.188 1.003.165.256.36.533.568.83 1.148-.45 2.367-.983 3.626-1.585l.373-.208m153.437 69.536c-3.861 3.313-14.88 10.769-30.395 17.204-8.472 3.509-19.56 7.184-32.031 9.101 31.187-4.172 56.628-20.832 62.774-25.892l-.348-.414m-193.425-126.024l-.236-.006c-1.135 0-2.394.083-3.655.179v.145l1.302-.11c.843-.075 1.73-.151 2.589-.208m-.983 60.78c-1.508-.513-2.741-.928-2.908-.977v43.096c.582.098 1.62.285 2.908.513v-42.632m7.446 4.147c-.11-.25-.346-.692-.733-1.363 0 0-.181-.326-.374-.637-.692-.25-3.046-1.038-5.205-1.764l-.014 1.634c.002-.002 3.573 1.195 6.327 2.131m53.527 71.968c13.344 10.389 28.321 16.66 44.793 18.714 23.987 3.004 46.48-3.696 61.126-9.856 16.818-7.08 28.39-15.385 31.091-18.091l1.011-1.005-2.368-2.754-1.274 1.279c-.248.23-.566.519-.942.838l.348.415c-6.146 5.059-31.588 21.719-62.774 25.892-9.231 1.425-19.213 1.889-29.496.602-15.132-1.895-28.988-7.265-41.514-16.034m-59.992-136.896c-.859.055-1.744.131-2.589.208l-1.302.11v50.517c.222.006 1.551.02 2.908.035v-6.707l12.873-12.859-3.737-3.862c-3.128 3.136-6.173 6.187-9.135 9.135v-33.429c1.551-.131 3.046-.236 4.428-.236 6.091 0 11.087 1.184 15.061 3.488-4.169-4.238-10.315-6.357-18.508-6.399m-37.899 3.225c-4.373-.83-9.233-1.75-10.368-1.972v-.401c-1.066-.208-2.104-.401-3.059-.582v3.516s8.069 1.536 13.427 2.554v-3.115m93.723 36.3l3.101.499c1.717-4.395 2.617-9.212 2.617-14.334 0-8.914-2.269-15.904-7.004-21.142 2.754 4.74 4.097 10.533 4.097 17.462 0 1.156-.069 2.283-.153 3.405l.014.277c0 4.969-.926 9.626-2.672 13.834m-1.176 2.56c-2.949 5.696-7.544 10.417-13.523 13.781l1.799 2.505c6.976-3.993 12.181-9.723 15.295-16.624m-18.23 14.741l-.373.208c-1.26.602-2.478 1.135-3.626 1.585 2.298 3.406 6.547 9.654 6.547 9.654s8.223 12.098 8.278 12.155c.055.083.637.851.637.851.637.844 1.274 1.703 1.925 2.546-1.744-2.568-7.835-11.496-7.835-11.496l-7.599-11.205c.969-.401 1.978-.844 3.016-1.343.554-.291 1.093-.588 1.634-.892" fill="#79BCE7"/><path d="M231.899 229.691l-11.323 30.411-2.021 5.392 25.053-.063-11.71-35.741zm1.62 12.285c-2.589 6.964-6.616 17.774-7.544 20.273h.499l-.346.934c-1.675 0-3.17.008-4.249.014.415-1.121.859-2.298.859-2.298s5.716-15.379 9.025-24.258c.497 1.527 1.106 3.369 1.757 5.334zm-36.417-17.315l-2.949.277c-2.796 4.145-6.533 7.731-11.199 10.527l1.329 1.862c5.427-3.274 9.745-7.572 12.818-12.666" fill="#fff"/><path d="M172.906 230.21l-4.831 31.366-3.531-31.732v-.006c-4.153 3.889-10.242 5.814-18.382 5.814-.664 0-3.046-.014-4.304-.049v4.859l8.928 3.004c.248.429.513.885.802 1.412.72 1.211.983 1.862.983 1.862 5.468 9.634 10.7 20.977 17.454 31.13 59.783 100.956 158.587 36.14 166.574 28.142l-2.963-3.523c-64.793 32.833-97.724 11.537-122.058-15.226l-.637-.761 5.08-13.718h29.954l6.091 17.503-12.707 2.526v5.163h101.115v-5.163l-16.291-2.526v-30.759l27.463-46.018 10.7-1.502c-5.771 4.982-8.899 12.001-8.899 20.59 0 13.136 7.585 21.095 23.199 28.777 6.893 3.453 13.787 5.572 19.046 9.813 2.906 2.258 4.554 5.58 4.554 9.288 0 7.157-5.8 12.334-15.6 12.334-13.8 0-22.23-8.091-24.707-24.003h-4.969l.679 24.666c9.121 4.499 19.06 6.632 30.092 6.632 23.075 0 35.588-11.144 35.588-28.114 0-8.491-2.493-14.984-7.877-19.884-7.031-6.514-15.765-9.558-22.658-12.741-10.631-4.908-17.399-7.821-17.399-16.577 0-7.031 7.102-11.663 15.67-11.663 11.752 0 19.463 7.42 22.369 22.265h4.015l-.983-24.799c-8.706-3.045-16.692-4.9-24.984-4.9-6.007 0-11.323.783-15.918 2.249h-48.281v5.183l12.167 2.381-20.169 35.145-18.368-35.145 11.184-2.381v-5.183h-50.662v5.183l12.139 2.381 27.338 46.018v30.757l-11.946 2.338-7.849-2.338-33.137-84.339h-16.143l-28.431 69.186c-3.004-3.842-5.869-7.629-8.596-11.261-5.01-7.198-10.505-15.564-16.956-24.95l.651-.354c1.231-.478 2.56-1.052 3.972-1.736l.443-.25-8.016-6.368zm70.703 35.222l-25.053.063 2.021-5.392 11.323-30.411 11.71 35.741zm-153.215 32.557h65.528v-7.503l-18.244-3.219v-106.768c2.049-.179 4.084-.36 5.952-.36 18.423 0 27.725 10.194 27.725 29.683 0 1.266-.055 2.463-.138 3.641l.041-.049-.112.865 11.545-12.133-5.745 16.217 19.282 3.067c2.629-5.128 3.972-10.908 3.972-16.976 0-22.707-15.254-31.809-47.644-31.809h-62.163v7.322l17.87 3.398v103.904l-17.87 3.219m103.761-65.551l-17.538 1.661 6.339 8.866c4.664-2.796 8.402-6.382 11.199-10.527" fill="#002D62"/><path d="M150.564 208.368l1.453 1.516 3.737 3.862 8.568 8.859-13.454 5.771 13.44-1.17c0-3.032.775-8.154 5.385-12.465l.028-.193-4.719-8.7 2.381 11.357-9.219-5.875-4.638-2.949-1.813-1.156-5.897-3.759m31.132 14.896l5.745-16.215-11.545 12.133-.387 3.065 4.762-3.169-2.216 5.661 15.004 3.321-15.018 1.536 3.752 6.007-5.773-4.188-2.906 17.664-2.021-16.286-1.799 1.953 3.529 31.732 4.831-31.367 8.014 6.368 1.939 1.558.995.796 2.603 2.062 1.065.844-.733-1.024-1.799-2.505-.706-.983-1.329-1.862-6.339-8.866 17.538-1.661 2.949-.277 1.411-.132 3.571-.338 7.267-.686-6.561-1.038-3.101-.499-1.065-.167-2.395-.373" fill="#FFD200"/><path d="M400.051 311.919h2.063v5.628h1.398v-5.628h2.062v-1.209h-5.523m10.839 4.47h-.041l-1.593-4.471h-2.422v6.838h1.398v-5.446h.027l1.911 5.446h1.357l1.993-5.446h.028v5.446h1.384v-6.838h-2.394" fill="#002D62"/></g><path d="M90.121 270.756l-13.468-13.519 14.507-14.507 14.507-14.507v28.026c0 15.414-.467 28.026-1.039 28.026-.571 0-7.099-6.084-14.507-13.519zm.685 23.759c0-3.399.235-3.505 12.497-5.616l5.066-.872v-105.03l-3.04-.707c-1.672-.389-5.472-1.185-8.444-1.77-4.136-.813-5.505-1.763-5.836-4.047l-.432-2.985 36.91.028c40.42.031 49.211 1.08 59.483 7.1 8.096 4.745 11.878 12.226 11.878 23.495 0 4.484-.679 10.101-1.509 12.481-1.294 3.711-2.015 4.228-5.066 3.625-1.957-.386-5.838-1.094-8.624-1.574-5.778-.995-5.764-.955-3.04-8.678 3.047-8.637 2.534-9.15-3.378-3.378l-5.404 5.277-.008-4.665c-.019-11.554-6.75-22.778-15.259-25.445-4.37-1.37-11.249-2.068-16.821-1.708l-3.04.196v107.776l6.417.926c11.406 1.646 12.497 2.135 12.497 5.607v3.231h-64.85v-3.27zm151.992 37.495c-37.812-8.24-59.223-28.168-87.037-81.007-3.443-6.541-5.255-8.535-8.639-9.505-2.355-.675-4.483-2.271-4.728-3.545-.374-1.944.665-2.316 6.475-2.316 3.807 0 8.656-.897 10.776-1.993 4.829-2.497 4.933-2.263 6.204 13.989.533 6.81 1.416 12.658 1.963 12.996.547.338 1.718-4.083 2.603-9.824 3.229-20.948 2.797-19.647 5.664-17.052 1.926 1.743 2.173 2.731 1.027 4.111-1.665 2.006 3.467 10.686 17.066 28.862l7.38 9.865 2.212-5.278c1.217-2.903 7.57-18.349 14.119-34.325l11.907-29.047 7.96-.396 7.96-.396 16.107 41.434c14.915 38.369 16.407 41.562 20.16 43.166 3.075 1.314 5.766 1.393 11.146.328l7.093-1.405v-30.227l-13.85-23.55-13.85-23.55-5.997-1.446c-3.298-.795-6.236-2.163-6.528-3.04-.395-1.186 5.915-1.594 24.688-1.594 19.364 0 25.091.386 24.665 1.663-.305.914-2.787 2.191-5.517 2.836-2.729.645-4.963 1.71-4.963 2.365 0 2.454 17.849 35.002 18.854 34.381 1.476-.912 20.604-34.661 19.992-35.273-.276-.276-2.853-.991-5.727-1.588-2.874-.597-5.453-1.771-5.733-2.609-.359-1.078 7.114-1.75 25.571-2.299 14.343-.427 29.591-1.148 33.885-1.604 5.162-.548 11.226-.067 17.901 1.418l10.095 2.246.013 4.974c.006 2.736.405 8.248.885 12.25 1.135 9.457-1.33 8.951-5.391-1.105-1.615-3.999-4.503-8.432-6.419-9.85-11.553-8.557-29.619-3.439-29.619 8.391 0 6.774 4.261 10.443 21.836 18.803 10.617 5.05 15.665 8.324 19.196 12.45 11.108 12.977 6.979 32.971-8.389 40.615-5.478 2.725-8.232 3.122-21.159 3.053-11.457-.061-16.409-.689-21.617-2.741l-6.755-2.661-.39-11.783c-.312-9.419-.008-11.783 1.513-11.783 1.109 0 2.629 2.591 3.642 6.208 3.408 12.174 14.906 19.476 27.354 17.373 7.452-1.259 11.799-5.832 11.76-12.373-.042-7.159-2.91-10.057-16.858-17.029-16.555-8.276-23.336-13.478-26.419-20.269-4.232-9.32-2.669-21.188 3.72-28.247 2.94-3.249 1.798-4.013-4.479-2.995-5.154.836-5.493 1.268-19.095 24.33l-13.848 23.479v30.976l6.417.859c8.737 1.17 9.795 1.601 9.795 3.993 0 1.821-6 2.069-49.989 2.069-42.489 0-49.989-.29-49.989-1.936 0-1.975 1.343-2.585 9.173-4.162 4.908-.989 4.905-.89.268-12.817l-2.364-6.08-15.502-.379-15.502-.379-2.764 7.134-2.764 7.134 6.959 7.183c8.795 9.078 22.911 18.554 32.961 22.126 10.076 3.581 28.76 4.695 41.335 2.464 10.184-1.807 29.205-8.036 37.633-12.325 6.432-3.273 7.902-1.04 2.125 3.228-19.156 14.151-49.557 23.998-73.319 23.749-6.688-.07-13.375-.392-14.861-.716zm.676-67.661c0-1.299-2.511-9.898-5.58-19.107-3.812-11.44-5.933-16.115-6.693-14.758-1.185 2.117-13.397 34.583-13.397 35.615 0 .337 5.776.612 12.835.612 11.319 0 12.835-.279 12.835-2.362zm66.201-111.801c-27.858-27.865-51.257-50.664-51.999-50.664-.742 0-17.563 16.206-37.38 36.012l-36.031 36.012-7.887-1.535c-4.338-.844-8.961-1.698-10.274-1.899-1.654-.252 11.947-14.689 44.248-46.968l46.635-46.605 62.16 62.142c68.311 68.292 64.855 63.739 48.617 64.033l-7.437.135-50.651-50.664zm-166.179 47.587c0-11.757.369-14.486 1.96-14.486 5.138 0 15.562 3.118 17.469 5.227 1.975 2.183 1.645 2.84-4.437 8.83-5.697 5.611-6.94 6.275-9.342 4.989-4.193-2.244-4.995-1.788-2.23 1.267 2.424 2.679 2.412 2.826-.466 5.704l-2.955 2.955v-14.486zm45.936 169.931l-66.866-66.877h22.946l55.737 55.724 55.737 55.724 55.858-55.846 55.858-55.846 5.277 1.465c2.902.806 7.402 1.468 10 1.473 4.564.008 2.516 2.216-60.792 65.533-36.033 36.039-65.824 65.526-66.201 65.526-.377 0-30.776-30.094-67.552-66.877zm233.802-108.244c-4.403-9.969-10.11-14.953-26.324-22.991-8.123-4.027-15.57-7.987-16.55-8.8-2.77-2.299-2.131-5.06 2.167-9.358 3.049-3.049 5.182-3.949 9.354-3.949 7.9 0 13.04 4.838 15.875 14.942 2.223 7.922 2.316 8.026 7.179 8.026 4.272 0 6.087 1.17 13.641 8.791l8.713 8.791-5.571 5.571-5.571 5.571-2.913-6.594zm-34.634 21.334c6.654-6.875 8.892-7.631 8.892-3.004 0 4.255-4.426 8.213-10.133 9.064l-5.404.806 6.645-6.866zm18.271 31.003v-3.355h2.348l.774 2.168c.425 1.192.82 2.176.876 2.187.056.011.461-.965.899-2.167l.796-2.186 1.168-.001 1.168-.001v6.71h-1.318l-.009-2.786c-.011-3.228.101-3.261-1.209.362l-.878 2.429-.641-.033-.641-.033-.941-2.68c-.518-1.474-.971-2.71-1.007-2.746-.036-.036-.066 1.183-.066 2.71v2.776h-1.318v-3.355zm-4.673.54v-2.816h-2.038v-1.078h5.392v1.078h-2.156v5.632h-1.198v-2.816zm-49.358 27.051c22.844-22.929 30.788-31.341 32.326-34.228.436-.818.462-1.065.149-1.379-.184-.184-.476-.242-1.528-.302-4.492-.257-7.279-.762-12.924-2.34l-2.157-.603-16.207 16.205-16.207 16.205v-1.078l15.926-15.926 15.926-15.926 1.299.377c5.757 1.67 11.718 2.502 18.404 2.569l2.725.027-23.036 23.037-23.036 23.037h-1.3l9.64-9.676zm28.923-41.81c-4.461-.308-6.53-.55-9.706-1.134-4.97-.914-9.984-2.482-14.514-4.54-.882-.4-1.662-.793-1.734-.873-.088-.097-.218-3.506-.396-10.39-.146-5.635-.297-11.122-.337-12.193l-.072-1.947h4.902l.218 1.288c1.127 6.653 3.764 12.4 7.423 16.177.527.544.906.989.844.989-.167 0-1.934-1.835-2.769-2.876-1.326-1.653-2.479-3.554-3.269-5.392-.212-.494-.786-2.081-1.275-3.525-1.257-3.713-2.223-5.52-3.198-5.983-.558-.265-.72-.251-1.131.095-.841.708-1.045 2.535-.944 8.454.069 4.058.409 14.879.469 14.927.098.078 7.88 3.082 8.625 3.33 2.215.735 5.326 1.348 8.237 1.625 5.789.55 18.99.621 23.562.126 3.394-.367 5.899-1.121 9.153-2.753 7.951-3.99 13.194-11.337 14.449-20.25.212-1.504.242-4.908.056-6.411-.989-8.015-5.087-14.476-12.257-19.321l-1.198-.81.937-.035c.886-.033.967-.014 1.481.345 2.542 1.779 5.965 4.991 7.245 6.8 2.511 3.547 3.961 7.518 4.515 12.362.24 2.099.18 6.359-.117 8.328-.896 5.942-3.155 10.526-7.12 14.447-5.355 5.295-13.352 8.359-23.75 9.099-1.512.108-6.976.135-8.328.041zm-.345-9.65l-1.004-.124 2.861-2.892c1.574-1.591 5.043-5.087 7.709-7.77l4.848-4.878.409.564c1.67 2.302 2.093 5.92 1.012 8.653-1.269 3.208-4.458 5.476-8.855 6.296-1.294.242-5.507.333-6.98.151zm4.086-.757c3.136-.468 4.36-.776 5.896-1.486 4.162-1.923 6.509-5.363 6.066-8.893-.182-1.451-.523-1.926-1.383-1.926-.879 0-2.376 1-4.733 3.164-1.368 1.255-9.246 9.347-9.331 9.584-.027.076.087.096.3.053.189-.039 1.623-.261 3.186-.495zm-72.043 8.202c17.946-.114 23.397-.37 25.237-1.183.657-.29.807-.583.703-1.365-.268-2.017-1.412-2.382-11.86-3.784l-4.194-.562-.03-15.514-.03-15.514 3.326-5.656c3.099-5.27 3.348-5.656 3.655-5.659.181-.002.33.03.33.07 0 .04-1.456 2.514-3.235 5.496l-3.235 5.423v30.822l.27.062c.331.076 15.751 2.459 15.912 2.459.07 0 .115.984.115 2.516v2.516l-20.041-.022-20.041-.022 13.121-.083zm-58.986 35.996l-1.048-.049v-.95l4.284-.002c5.936-.003 10.689-.354 16.327-1.209 19.827-3.005 40.435-10.953 55.214-21.295 3.461-2.422 4.915-3.785 5.291-4.959.187-.585.021-.889-.575-1.05-.951-.256-2.423.203-5.775 1.799-8.796 4.189-24.371 9.36-34.834 11.565-3.433.723-7.006 1.203-9.736 1.306l-1.498.057 2.337-.282c14.675-1.772 29.332-6.421 46.281-14.681 1.498-.73 2.773-1.327 2.834-1.327.061 0 .642.632 1.291 1.404 1.856 2.208 1.702 1.894 1.164 2.377-.961.861-4.144 3.196-6.163 4.521-9.055 5.946-20.026 11.334-31.147 15.297-11.341 4.041-22.309 6.421-33.432 7.254-2.457.184-8.838.315-10.815.222zm138.252-64.674c-1.712-1.098-4.812-2.645-9.227-4.602-4.633-2.054-9.387-4.384-11.983-5.872-11.341-6.502-16.655-13.206-17.806-22.468-.247-1.989-.19-6.054.113-8.028.934-6.086 3.35-10.951 7.438-14.975.741-.729.849-.799.849-.55 0 .426-.515 1.236-1.694 2.665-2.923 3.544-4.597 7.14-5.435 11.673-.892 4.826-.539 9.707 1.032 14.277 1.889 5.495 5.278 9.386 12.209 14.02 3.142 2.101 7.131 4.34 14.652 8.225 5.93 3.063 8.007 4.206 10.039 5.524 1.088.706 1.351.918 1.102.89-.049-.006-.629-.356-1.288-.779zm13.41-20.96c-1.915-1.262-5.103-2.929-13.359-6.983-4.891-2.402-7.125-3.563-9.337-4.851-1.556-.906-3.127-1.915-3.071-1.971.028-.028.578.254 1.223.627 2.369 1.368 6.976 3.555 14.01 6.652 4.202 1.85 8.802 4.167 11.144 5.614.989.611 1.849 1.16 1.911 1.221.07.068-.276.107-.899.102-.941-.008-1.056-.037-1.623-.411zm19.25 21.311c-.541-3.407-1.901-7.039-3.671-9.807-.379-.593-.948-1.574-1.265-2.179-1.193-2.282-2.535-4.136-4.342-5.999-.655-.676-1.138-1.228-1.072-1.228.163 0 2.333 2.257 3.169 3.295 2.363 2.935 3.541 5.051 6.272 11.264.84 1.911 1.564 3.515 1.609 3.563.077.084 11.054-10.809 11.135-11.05.056-.165-12.632-12.834-14.059-14.038-3.454-2.915-5.023-3.575-8.508-3.582-2.546-.005-3.622-.279-4.318-1.101-.646-.763-1.113-1.994-2.33-6.146-1.122-3.828-1.974-5.963-3.251-8.148-2.267-3.881-5.363-6.279-9.278-7.187-3.078-.714-7.241-.366-9.401.786-2.166 1.155-5.382 4.364-6.658 6.646-1.303 2.33-.865 4.362 1.247 5.793 1.106.749 5.217 2.967 10.727 5.788 10.633 5.443 11.679 5.986 13.356 6.936.944.535 1.691.998 1.66 1.029-.031.031-.777-.332-1.657-.808-2.024-1.094-3.317-1.704-8.73-4.124-5.582-2.496-7.48-3.379-10.332-4.806-3.228-1.616-4.712-2.536-6.76-4.194-.272-.22-.651-1.938-.725-3.282-.152-2.757.795-4.983 2.981-7.006 4.319-3.998 12.994-4.963 18.71-2.081 1.666.84 3.714 2.583 4.649 3.958 1.996 2.934 3.671 7.524 4.727 12.948l.204 1.048h.395c.437 0 .411-.066.81 2.097l.155.839 4.368.031 4.368.031 9.405 9.405 9.405 9.405-6.422 6.422-6.422 6.422-.149-.94zm-13.961-36.379c-1.619-7.462-4.025-12.519-7.733-16.251-2.606-2.623-5.491-4.209-9.289-5.103-1.916-.451-3.507-.584-6.259-.524-1.43.031-2.259.014-1.949-.042 1.071-.191 4.581-.255 5.872-.107 3.542.406 7.003 1.629 9.713 3.43 1.679 1.116 2.733 2.267 4.349 4.748 1.211 1.86 2.034 3.443 3.29 6.329 1.803 4.142 2.903 6.147 3.809 6.943 1.592 1.398 2.022-1.025 1.327-7.482-.592-5.504-.794-8.864-.797-13.211-.001-1.664-.027-3.026-.058-3.026-.031 0-2.606-.564-5.722-1.254-6.35-1.406-8.216-1.768-10.818-2.098-4.329-.55-7.441-.613-12.103-.243-3.613.286-8.857.602-9.766.587l-.659-.011.534-.167c2.075-.651 5.992-1.313 9.532-1.61 2.03-.171 7.245-.17 9.227.002 5.898.511 11.344 1.697 18.244 3.974 1.857.613 2.195.761 2.238.981.028.143.245 5.49.481 11.883.237 6.393.451 11.826.477 12.073l.047.449h-1.963c-1.939 0-1.964-.003-2.022-.27zm-31.221 66.768c-3.78-.315-6.746-.736-9.766-1.386-4.629-.996-9.378-2.573-13.385-4.446-.964-.451-1.173-.597-1.226-.858-.076-.374-.24-5.265-.483-14.454-.098-3.691-.21-7.398-.249-8.238l-.071-1.528h2.402c2.394 0 2.402.001 2.459.27l.423 2.092c1.018 5.065 2.801 9.386 5.248 12.718.355.484.619.907.585.94-.033.033-.468-.487-.966-1.156-1.613-2.168-2.435-3.761-3.603-6.988-.448-1.237-.832-2.231-.854-2.21-.122.122 1.252 3.906 1.91 5.263 1.982 4.081 4.634 7.139 8.34 9.615 3.894 2.602 8.33 3.919 13.17 3.91 4.793-.008 8.587-1.071 11.468-3.211 2.116-1.572 3.492-3.603 4.204-6.205.302-1.104.328-1.371.328-3.414 0-2.443-.124-3.244-.759-4.89-1.118-2.9-3.903-5.432-9.408-8.554-2.374-1.347-12.222-6.425-11.563-5.963.099.069 2.391 1.286 5.093 2.704 5.3 2.781 7.779 4.127 8.152 4.427.361.29.171.204-2.28-1.04-1.252-.635-4.137-2.003-6.411-3.039-4.981-2.269-10.118-4.838-12.402-6.201-10.292-6.142-15.281-12.401-16.657-20.899-.426-2.633-.344-7.35.175-10.077.847-4.443 2.566-8.292 5.152-11.533 1.004-1.258 2.696-2.929 2.741-2.706.052.258-.308.821-1.537 2.401-.566.728-1.151 1.512-1.3 1.743l-.271.419.276-.345c.152-.19.795-.981 1.43-1.759.635-.778 1.27-1.656 1.413-1.95.69-1.425-.487-1.863-3.933-1.465-4.792.554-5.929 1.116-8.32 4.106-2.151 2.692-4.444 6.44-18.225 29.808l-8.337 14.135v15.552c0 8.554.046 15.552.102 15.552.056 0 1.499.188 3.205.419 1.707.23 3.211.413 3.343.406.215-.011-2.625-.448-5.345-.822l-1.031-.142-.062-15.478-.062-15.478 1.202-2.037c5.105-8.653 5.5-9.287 5.795-9.287.126 0 .163.066.112.198-.042.109-1.477 2.561-3.189 5.449l-3.113 5.251.03 15.485.03 15.485 8.026 1.241c4.414.683 8.041 1.256 8.059 1.275.019.019.069 1.117.111 2.442l.078 2.408-40.311-.042c-22.171-.023-41.753-.082-43.516-.13l-3.205-.089v-35.112c0-19.311.022-35.089.05-35.062.027.028 1.516 3.825 3.307 8.438 14.676 37.797 18.215 46.524 20.747 51.167 1.874 3.436 2.919 4.413 5.693 5.319 2.105.688 4.461.767 7.71.258 1.396-.219 8.671-1.617 9.137-1.756.198-.059.21-.886.21-15.17v-15.107l-13.866-23.581-13.866-23.581-2.581-.616c-4.775-1.14-6.989-1.843-8.558-2.716-.71-.395-1.392-1.002-1.392-1.238 0-.574 2.561-.956 8.148-1.215 4.114-.19 29.315-.19 33.312 0 5.75.274 7.789.618 7.789 1.313 0 .226-.521.765-1.171 1.21-.708.486-2.456 1.169-4.283 1.675-2.602.72-4.156 1.369-4.716 1.97-.232.248-.27.383-.205.725.387 2.061 8.002 16.705 14.027 26.974 2.896 4.936 4.345 7.13 4.709 7.13.38 0 1.981-2.45 5.6-8.568 6.134-10.37 14.146-24.977 14.502-26.44.072-.295.032-.334-.562-.555-.834-.311-2.457-.743-4.833-1.288-2.993-.687-5.404-1.677-5.9-2.423-.322-.484.072-.694 1.955-1.04 3.444-.632 8.251-.896 29.708-1.629 5.827-.199 14.655-.584 19.352-.844 4.574-.253 10.034-.67 9.107-.695-.297-.008-2.049.091-3.894.221-4.188.294-7.575.411-7.07.243 1.298-.43 4.601-1.016 7.849-1.395 2.158-.251 9.139-.286 11.264-.055 4.712.511 8.858 1.337 13.553 2.701 2.581.75 5.754 1.827 5.945 2.018.125.125.265 2.773.635 11.956.261 6.488.476 11.971.476 12.185l.001.389-.929-.001c-.511 0-1.369-.035-1.907-.077l-.978-.076-.439-1.81c-.241-.996-.73-2.686-1.086-3.755-.356-1.07-.621-2.015-.588-2.1.087-.226-1.12-2.869-2.054-4.498-2.032-3.545-3.539-5.347-5.561-6.65-3.829-2.466-8.287-3.685-12.882-3.52-7.937.285-13.964 4.238-15.469 10.145-.335 1.314-.307 4.119.054 5.452 1.093 4.036 4.541 7.118 13.069 11.681 1.149.615 3.413 1.763 5.033 2.552 6.591 3.211 8.037 3.905 8.037 3.853 0-.03-2.656-1.365-5.902-2.966-6.614-3.264-11.718-5.987-11.545-6.16.031-.031.424.141.873.381 1.579.845 6.085 2.968 10.821 5.097 6.777 3.047 10.968 5.167 13.781 6.971.826.53.87.577.539.588-.408.013-.318.06.321.166 1.034.173 5.894 4.417 7.75 6.767.282.357.851 1.22 1.265 1.917 2.853 4.811 4.028 10.442 3.557 17.053-.397 5.576-2.165 10.347-5.273 14.231-.862 1.077-2.767 2.993-3.845 3.866-3.998 3.24-9.385 5.528-15.732 6.682-3.277.596-5.178.743-10.091.779-2.57.019-5.239-.013-5.931-.07zm8.41-1.402c-1.075-.02-2.801-.02-3.835 0-1.034.02-.154.036 1.955.036s2.955-.016 1.88-.036zm-7.362-.12c-.643-.022-1.694-.022-2.337 0-.643.022-.117.039 1.168.039s1.811-.018 1.168-.039zm15.58-.157c.677-.081 1.207-.171 1.178-.201-.029-.029-.664.011-1.411.09s-2.409.187-3.694.24l-2.337.097 2.516-.04c1.384-.022 3.07-.106 3.747-.187zm-20.583-.001c-.824-.051-2.187-.158-3.03-.237-.843-.08-1.559-.118-1.592-.085-.033.033.63.121 1.472.196l1.952.176c.231.022.932.04 1.558.041 1.12.002 1.115 0-.359-.091zm23.187-.415l.599-.16-.541.061c-.298.033-.729.105-.959.159-.41.096-.411.098-.058.099.198 0 .629-.071.959-.159zm-28.399-.064c-.264-.055-.614-.096-.779-.092-.273.006-.268.016.06.099.198.05.548.092.779.092h.419l-.479-.099zm-44.786-.082c-.643-.022-1.694-.022-2.337 0-.643.022-.117.039 1.168.039s1.811-.018 1.168-.039zm8.478-.274c2.809-.243 4.312-.631 4.61-1.188.075-.141.116-.456.09-.7l-.047-.444-.02.487c-.026.63-.332.952-1.129 1.189-1.174.349-4.294.632-9.136.83-.527.022.201.02 1.618-.005 1.417-.024 3.223-.1 4.014-.168zm35.018.161c-.117-.03-.278-.028-.359.005-.081.033.014.058.212.055.198-.003.264-.029.148-.06zm30.611.001c-.086-.035-.19-.03-.23.009-.04.04.031.068.157.063.14-.006.168-.034.072-.072zm-32.077-.285c-.527-.124-1.04-.221-1.138-.215-.272.014 1.453.435 1.797.438.165.001-.132-.099-.659-.223zm33.252-.008c.213-.128-.408-.005-.779.154-.162.069-.103.078.18.028.231-.041.5-.123.599-.182zm-35.11-.421c-1.942-.641-2.688-.87-2.722-.835-.083.083 2.761 1.021 3.082 1.016.099-.001-.063-.083-.359-.181zm37.446-.43c6.286-2.7 10.995-7.027 13.885-12.76.55-1.091.336-.859-.299.326-3.085 5.745-7.693 9.877-13.846 12.413-.581.24-1.084.463-1.117.497-.107.11.519-.106 1.378-.475zm-41.401-.931c-.099-.064-.234-.116-.3-.116-.066 0-.039.052.06.116s.234.116.3.116c.066 0 .039-.052-.06-.116zm-.599-.24c-.099-.064-.234-.116-.3-.116-.066 0-.039.052.06.116s.234.116.3.116c.066 0 .039-.052-.06-.116zm-.899-.351c-.557-.248-1.105-.427-1.018-.333.086.094 1.235.551 1.378.549.066-.001-.096-.098-.36-.216zm-21.801-.474c-.226-.437-.787-.868-1.478-1.135-.793-.307-.893-.228-.116.092.996.409 1.29.634 1.51 1.155.108.254.212.414.233.356.02-.058-.047-.269-.15-.468zm20.653.057c-.028-.027-.815-.355-1.751-.729l-1.701-.68-.045-.499-.045-.499-.021.549-.021.549 1.708.671c1.575.619 2.008.766 1.877.639zm-23.448-1.574c-.281-.089-.766-.19-1.078-.225-.43-.049-.35-.011.331.157 1.052.26 1.481.299.747.068zm-2.425-.483c-.428-.088-.914-.156-1.078-.151-.365.011 1.135.31 1.558.31.165 0-.051-.072-.479-.16zm-1.588-.254c-.115-.03-.304-.03-.419 0-.115.03-.021.055.21.055.231 0 .325-.025.21-.055zm-.839-.12c-.115-.03-.304-.03-.419 0-.115.03-.021.055.21.055.231 0 .325-.025.21-.055zm-.839-.12c-.115-.03-.304-.03-.419 0-.115.03-.021.055.21.055.231 0 .325-.025.21-.055zm25.379-6.388c-.16-4.082-.168-4.17-.117-1.318.073 4.097.224 8.005.26 6.71.016-.56-.049-2.987-.143-5.392zm62.611-3.998c.202-.518.346-.963.32-.988-.036-.036-.703 1.565-.904 2.17-.163.489.29-.427.584-1.182zm-62.826-6.637c-.02-1.038-.036-.189-.036 1.887s.016 2.925.036 1.887c.02-1.038.02-2.737 0-3.775zm63.409 5.003c-.005-.119-.042-.098-.11.06-.142.329-.142.519 0 .3.064-.099.113-.261.11-.359zm.233-.839c0-.113-.038-.091-.103.06-.057.132-.103.321-.103.419 0 .113.038.091.103-.06.057-.132.103-.321.103-.419zm.356-1.378c-.001-.132-.077.03-.168.359-.092.33-.162.653-.156.719.017.203.326-.823.325-1.078zm.493-2.576c.069-.56.118-1.261.109-1.558-.009-.304-.062-.042-.121.599-.058.626-.185 1.574-.283 2.106-.098.532-.172 1.018-.165 1.078.029.244.342-1.271.46-2.226zm-60.253-2.238c-.141-.243-.175-.165-.06.136.041.107.1.169.131.139.031-.031-.001-.154-.071-.275zm-3.957-1.535c.072-.395.209-.88.305-1.078.159-.33.158-.341-.013-.127-.261.328-.422.953-.479 1.863-.027.428-.025.617.003.419.029-.198.111-.682.183-1.077h.001zm3.17-.121c-.844-1.44-1.999-2.154-2.473-1.528-.135.178-.134.187.009.06.579-.516 1.578.152 2.407 1.61.157.276.306.48.332.455.026-.026-.098-.294-.276-.596zm60.989-3.156c-.937-6.331-4.05-11.945-8.942-16.129-1.349-1.154-4.033-3.132-4.125-3.04-.03.03.417.374.993.765 5.918 4.012 9.813 9.375 11.402 15.701.393 1.563.717 3.579.752 4.677l.023.704.044-.699c.024-.384-.042-1.274-.146-1.977zm-42.362-7.148c0-.032-.27-.195-.599-.362-.33-.167-.599-.277-.599-.244 0 .033.256.193.569.356.64.333.629.329.629.25zm-1.318-.709c0-.026-.714-.44-1.588-.92-4.492-2.466-8.371-4.994-11.114-7.242-1.513-1.24-3.606-3.364-4.494-4.561-1.14-1.536-1.306-1.738-.932-1.129.669 1.088 2.074 2.735 3.462 4.062 3.162 3.021 7.325 5.858 13.707 9.344.944.516.959.522.959.446zm30.97-11.589c.068-.063-.08-.106-.363-.106-.378 0-.775-.178-1.911-.856-1.575-.94-5.329-2.92-5.329-2.81 0 .038.497.319 1.105.624 1.424.715 3.726 2.009 4.947 2.78.928.586 1.24.66 1.552.369zm-50.249-4.464c-.435-.881-.81-1.586-.832-1.567-.092.077 1.456 3.169 1.586 3.169.021 0-.319-.72-.754-1.601zm-.957-2.075c-.141-.243-.175-.165-.06.136.041.107.1.169.131.139.031-.031-.001-.154-.071-.275zm-.366-1.007c-.127-.357-.234-.592-.239-.521-.013.181.368 1.272.424 1.217.025-.025-.058-.338-.184-.696zm-.655-2.399c-.16-.685-.348-1.516-.416-1.845l-.125-.599.062.599c.072.703.649 3.214.721 3.141.027-.027-.082-.61-.242-1.296zm-.632-3.776c-.048-.652-.109-1.082-.136-.956-.058.276.097 2.266.171 2.192.029-.029.013-.585-.035-1.237zm-.191-3.556c-.023-.409-.042-.043-.042.814s.019 1.192.042.744c.023-.448.023-1.149 0-1.558zm59.941 1.361c.189-.353.148-.455-.062-.154-.398.568-1.087.212-1.913-.988-.251-.365-.476-.663-.5-.663-.154 0 .6 1.063 1.067 1.504.633.598 1.187.716 1.409.301zm.322-1.358c-.033-.081-.058.014-.055.212.003.198.029.264.06.148.03-.117.028-.278-.005-.359zm-3.074-1.046c-.134-.264-.271-.479-.304-.479-.033 0 .05.216.185.479.134.264.271.479.304.479.033 0-.05-.216-.185-.479zm3.203-.989c-.025-.28-.046-.051-.046.509s.021.789.046.509c.025-.28.025-.738 0-1.019zm-60.207.03c.046-.812.036-.967-.034-.539-.102.619-.154 1.816-.075 1.728.025-.028.074-.562.109-1.188zm59.83-4.836c-.502-5.138-.567-6.157-.711-11.036l-.137-4.668-.419-.09c-.231-.049-2.167-.471-4.302-.938-2.136-.466-3.933-.831-3.994-.811-.061.02 1.848.471 4.242 1.001l4.353.964.025 2.089c.056 4.636.41 10.293.932 14.91.097.857.186 1.8.199 2.097l.022.539.048-.462c.026-.254-.09-1.872-.258-3.595zm-4.13 3.2c-.134-.253-.245-.422-.248-.375-.008.138.392.934.444.883.026-.026-.062-.254-.196-.508zm-55.536-.073c-.033-.081-.058.014-.055.212.003.198.029.264.06.148.03-.117.028-.278-.005-.359zm.12-.719c-.033-.081-.058.014-.055.212.003.198.029.264.06.148.03-.117.028-.278-.005-.359zm54.843-.547c-.175-.407-.342-.716-.37-.688-.028.028.097.38.277.782.18.402.347.712.37.688.023-.023-.101-.375-.277-.782zm-54.369-1.545c-.059-.059-.438 1.558-.42 1.788.006.086.115-.27.241-.791s.206-.97.179-.997zm1.477-3.868c.282-.626.647-1.381.811-1.678.164-.297.207-.431.097-.3-.508.608-2.086 4.326-2.263 5.332-.041.231.132-.174.384-.899.252-.725.689-1.83.971-2.456zm1.557-2.898c.212-.342.313-.56.224-.486-.17.141-.745 1.107-.659 1.107.027 0 .223-.279.436-.621zm46.023-11.242c-.165-.053-.407-.096-.539-.096-.19 0-.177.02.06.096.165.053.407.096.539.096.19 0 .177-.02-.06-.096zm-.929-.199c-.082-.033-.217-.033-.3 0-.082.033-.016.06.15.06.165 0 .232-.027.15-.06zm-.521-.092c-.172-.172-6.038-1.154-6.759-1.132-.198.006.315.106 1.138.222 1.637.231 5.063.84 5.143.914.069.064.542.059.478-.005zm-7.386-1.231c-.147-.028-.417-.029-.599-.002-.182.028-.061.051.268.052.33.001.479-.022.331-.05zm-1.32-.122c-.214-.027-.565-.027-.779 0-.214.027-.039.048.389.048s.604-.022.389-.048zm-2.756-.123c-.807-.021-2.128-.021-2.936 0-.807.021-.147.038 1.468.038s2.275-.017 1.468-.038zm-38.905 8.232c.628-.628 5.808-1.561 7.852-1.415 1.815.13 1.295.275-3.268.911-4.911.685-4.746.667-4.584.504zm-22.58 35.074c.25-.473 10.237-17.381 12.546-21.24 2.364-3.951 4.465-7.304 5.745-9.167.944-1.375 1.955-2.667 2.028-2.593.029.029-4.406 7.527-9.858 16.662-9.52 15.953-9.925 16.608-10.258 16.608-.322 0-.336-.019-.204-.27zm-12.402-.222c.131-.224 4.624-8.051 9.985-17.395 5.361-9.343 9.774-16.962 9.806-16.93.154.154-3.193 6.555-6.897 13.187-5.227 9.362-10.943 19.016-12.338 20.841-.547.715-.917.912-.557.296zm19.697-34.513c-.16-.093-11.671-2.382-11.979-2.382-.082 0-.124-.881-.124-2.576v-2.576l22.198.017c23.492.018 23.956.036 11.833.454-10.145.35-20.252.738-22.108.847-5.834.344-9.371.753-10.52 1.216-1.117.451-.225 1.357 2.256 2.293 1.122.423 1.94.648 4.881 1.341 2.101.495 3.341.861 3.627 1.07.253.185.196.448-.064.297zm-.831-32.309l-22.301-22.378.745-.036.745-.036 22.249 22.249 22.249 22.249 6.277-.076c3.452-.042 6.843-.101 7.535-.132l1.258-.057-1.019.296-1.019.296-7.21.002-7.21.002-22.301-22.378zm40.085 21.369c.606-.264.889-.727.889-1.458 0-.529-.102-.836-.601-1.811-1.986-3.879-8.36-10.767-30.605-33.078-6.693-6.713-7.401-7.459-7.078-7.459.318 0 2.833 2.473 21.846 21.487l21.487 21.487-1.296.15c-.713.083-2.094.308-3.069.502-1.996.396-2.089.407-1.572.181zm-77.665 58.066v-1.059l-13.694-23.051-13.694-23.051-2.513-.498c-1.382-.274-4.117-.813-6.078-1.197l-3.565-.699v-5.106h50.568v5.112l-4.923 1.049c-2.708.577-4.947 1.025-4.975.997-.097-.097 1.929-.811 3.817-1.346 3.329-.942 5.713-2.314 5.407-3.111-.263-.687-2.772-1.044-8.852-1.263-4.342-.156-26.63-.158-31.215-.002-6.069.206-8.721.532-9.219 1.132-.418.504.663 1.365 2.774 2.21 1.657.663 2.731.976 6.266 1.821 1.648.394 3.089.756 3.204.804.114.048 6.437 10.678 14.05 23.622 13.236 22.505 13.842 23.56 13.842 24.115v.581h-1.198v-1.059zm15.069-17.419c-4.25-7.156-8.825-15.534-12.254-22.443-2.33-4.693-3.204-6.77-2.851-6.77.116 0 16.247 30.801 16.171 30.877-.027.027-.507-.722-1.066-1.664zm-107.057 18.389c.041-.068 22.528-54.753 22.814-55.48.046-.118 1.771-.15 8.062-.15h8.003l.204.509c.913 2.277 21.556 54.84 21.6 55.001.047.17-.019.21-.345.209l-.403-.001-.916-2.366c-4.397-11.355-20.268-52.106-20.31-52.15-.053-.054-13.037.551-14.998.699l-.995.075-5.87 14.319c-3.228 7.876-8.193 19.968-11.033 26.871l-5.163 12.552h-.352c-.193 0-.327-.04-.297-.09zm-20.686-41.789c-5.062-.811-9.222-1.494-9.244-1.517-.022-.023 1.154-3.412 2.614-7.532 1.733-4.889 2.667-7.375 2.692-7.16.074.642-.402 2.265-2.347 7.999-1.306 3.85-1.467 4.902-.866 5.665.268.341 1.004.707 1.822.908 1.118.274 11.796 2.193 12.557 2.256.922.077 1.652-.095 2.138-.504.65-.547 1.67-2.841 2.11-4.746.791-3.425 1.282-9.968 1.029-13.705-.673-9.938-4.207-16.259-11.595-20.744-6.446-3.913-12.806-5.61-24.177-6.452-8.109-.6-13.128-.685-44.127-.747l-28.309-.057.001.279c.003.678.497 3.403.699 3.861.479 1.083 1.293 1.713 2.955 2.287.489.169 3.438.846 6.555 1.506 7.128 1.509 7.434 1.582 7.501 1.783.038.113-.016.147-.171.107-.124-.032-4.176-.807-9.003-1.723l-8.777-1.665v-7.272l33.941.054c34.226.054 35.238.067 40.053.503 21.166 1.919 32.133 9.226 34.997 23.317 1.024 5.037.979 10.909-.124 16.151-.506 2.406-1.733 6-2.716 7.953-.299.595-.391.688-.674.678-.18-.006-4.47-.675-9.532-1.486zm-15.007-9.8c-.005-2.97-.06-4.453-.217-5.839-1.468-12.984-7.646-20.604-18.795-23.185-1.525-.353-1.157-.388.589-.056 1.907.363 3.552.812 4.769 1.304 7.118 2.874 12.883 11.898 13.954 21.842.069.64.131 2.366.137 3.835.006 1.469.047 2.958.09 3.309l.078.638 3.355-3.264c4.312-4.196 6.145-5.806 6.362-5.59.036.036-2.156 2.403-4.872 5.26l-5.191 5.461-.253.267-.007-3.982zm8.593 21.095c-1.665-2.325-3.038-4.281-3.051-4.347-.022-.114 16.922-1.788 17.028-1.682.026.026-.247.444-.605.929-2.38 3.219-5.535 6.213-8.926 8.471-.609.406-1.178.765-1.263.797-.097.037-1.279-1.51-3.182-4.168zm1.733 2.274c-2.653-3.56-4.647-6.481-4.483-6.567.18-.094.355-.116 4.888-.591 3.191-.334 8.476-.838 10.768-1.026l1.002-.082-.481.703c-1.3 1.901-4.227 4.949-6.497 6.766-1.08.864-3.602 2.624-3.762 2.624-.041 0-.687-.822-1.436-1.827zm-13.083 25.434c.264-1.954 4.298-28.03 4.362-28.198.07-.183.669.246 3.736 2.68 2.009 1.594 3.75 2.991 3.869 3.104.207.197.175.227-.719.657-1.375.662-2.669 1.191-2.74 1.12-.034-.034.111-.34.322-.68.449-.722.503-1.397.166-2.049-.253-.488-1.66-1.983-2.499-2.652-1.601-1.278-1.805-.634-3.731 11.738-1.196 7.685-1.576 9.867-2.142 12.304-.429 1.845-.74 2.829-.625 1.977zm-.86 1.527c-.218-.455-.278-.695-.574-2.307-.511-2.778-.899-6.227-1.432-12.716-.755-9.191-1.141-11.458-2.115-12.432-.455-.455-.487-.467-1.118-.401-.452.047-1.152.304-2.304.846-.91.428-2.144.916-2.743 1.084-1.336.374-4.385.944-4.753.887-.149-.023.161-.112.688-.199 3.857-.636 7.62-2.257 10.352-4.457.415-.335.768-.591.783-.57.042.058 3.404 30.47 3.373 30.505-.015.016-.086-.092-.157-.24zm-21.689-18.525l-4.103-1.396-.001-2.367-.001-2.367 1.468.018c.807.009 1.306.039 1.108.066-.77.102-1.581.401-1.843.68-.336.358-.45 1.099-.259 1.68.079.239.411.727.738 1.085.92 1.007 2.314 1.808 4.179 2.403 1.019.325 3.428 1.641 2.936 1.604-.066-.005-1.966-.637-4.223-1.405zm59.807 75.992c-12.89-8.922-24.4-21.504-34.08-37.254-.807-1.313-2.154-3.467-2.992-4.785-2.926-4.601-5.205-8.634-10.122-17.914-2.801-5.287-4.333-8.132-6.67-12.391-.322-.587-.566-1.087-.541-1.111.057-.057.718.766 1.413 1.759.825 1.18 1.571 2.491 4.077 7.166 6.19 11.55 10.891 19.571 16.101 27.477 11.374 17.258 21.948 28.597 34.553 37.054l2.083 1.397h-1.8l-2.021-1.399zm-8.215-46.54c-9.802-13.136-13.297-18.057-16.728-23.554-1.549-2.482-3.116-5.383-2.98-5.518.027-.028 2.25 3.201 4.939 7.175 9.912 14.648 9.604 14.214 15.852 22.362 1.784 2.327 2.724 3.46 2.781 3.355.047-.087 1.203-2.882 2.568-6.21s2.591-6.307 2.724-6.621c.206-.483.293-.569.573-.569h.33l-1.194 2.906c-2.28 5.547-4.674 11.295-4.826 11.587-.147.283-.294.105-4.038-4.914zm27.943-4.683c-5.092-.102-7.669-.286-7.669-.546 0-.915 11.063-30.481 12.977-34.68.39-.857.811-1.416.656-.873-.055.194-12.736 34.232-12.975 34.829-.08.199.551.21 12.241.21 12.296.001 12.324.001 11.968.236-.888.585-3.273.811-9.169.869-2.142.021-5.755.001-8.028-.045zm2.456 36.486c-5.606-4.291-7.721-6.212-14.559-13.223l-3.449-3.536 2.732-7.048c1.503-3.876 2.76-7.076 2.794-7.109.034-.034 5.283.065 11.664.219l11.602.281-11.425.06-11.425.06-2.505 6.764c-1.378 3.72-2.505 6.851-2.505 6.958 0 .444 7.115 7.762 10.605 10.908 2.038 1.837 4.807 4.161 6.621 5.556.676.52 1.228.964 1.228.987 0 .139-.309-.058-1.378-.876zm11.444-9.105c0-1.037.014-1.099.269-1.16.388-.093 11.911-2.358 11.999-2.358.041 0 .074.049.074.109 0 .244-1.171.647-3.018 1.038-4.834 1.025-6.419 1.437-7.641 1.987-.867.39-1.138.598-1.46 1.12l-.222.359v-1.095zm0 3.091v-.82l.569.274c1.796.864 7.476 1.118 27.71 1.238l14.319.085-21.299.022-21.299.022v-.82zm12.434-7.455c-2.295-6.574-5.124-14.703-5.43-15.6-.347-1.017-.372-1.168-.196-1.168.196 0 1.429 3.047 4.245 10.485 1.351 3.567 1.934 5.837 1.676 6.523-.105.279-.118.268-.295-.24zm-96.198 5.879c-.057-2.201-.091-2.506-.319-2.936-.932-1.756-2.626-2.235-13.517-3.821l-5.033-.733-.03-35.859-.03-35.859h.84v71.032l.27.061c.148.034 4.206.75 9.017 1.591 4.811.841 8.789 1.565 8.839 1.607.05.042.077 1.718.06 3.724l-.032 3.647-.064-2.456zm-65.771-23.874l-14.05-14.052 15.038-15.038 15.038-15.038v57.8l-.689.134-.989.19c-.264.049-1.984-1.628-14.349-13.996zm15.052 11.259c.19-1.591.365-4.738.509-9.134.157-4.807.292-45.475.15-45.475-.057 0-6.622 6.518-14.589 14.485l-14.485 14.485 7.535 7.577c10.168 10.224 17.718 17.484 19.856 19.092.766.576.84.501 1.023-1.031zm-14.455 11.336l.032-3.676 8.508-1.531c4.679-.842 8.683-1.563 8.897-1.602.364-.067.389-.049.389.264v.335l-4.463.769c-11.54 1.988-12.658 2.359-13.031 4.321-.066.349-.12 1.571-.12 2.716 0 1.327-.044 2.081-.122 2.081-.08 0-.111-1.249-.09-3.676zm54.494 31.416l-22.348-22.348h22.888l22.348 22.348 22.348 22.348h-22.888l-22.348-22.348zm23.007 0l-22.348-22.348h1.318l22.348 22.348 22.348 22.348h-1.318l-22.348-22.348zm-24.086 0l-22.348-22.348h.479c.478 0 .559.08 22.827 22.348l22.348 22.348h-.479c-.478 0-.559-.08-22.827-22.348zm49.68 49.623c-15.092-15.101-27.333-27.413-27.201-27.361.132.053.392.105.578.116.28.017 5.069 4.75 27.685 27.361l27.346 27.34h-.968l-27.441-27.456zm24.218.148l-27.308-27.308.617-.043.617-.043 27.35 27.351 27.35 27.351h-1.318l-27.308-27.308zm21.257 45.342l-18.034-18.034h1.062l8.516 8.481c9.355 9.316 23.151 22.892 25.082 24.681l1.228 1.138.509-.419c1.197-.985 17.508-17.044 33.612-33.093l9.856-9.822v1.306l-21.899 21.898-21.899 21.899-18.034-18.034zm11.952-12.102l-5.931-5.932h1.316l5.363 5.362 5.363 5.362 32.871-32.871c32.837-32.837 32.872-32.871 33.314-32.833l.442.039-33.404 33.402-33.404 33.402-5.931-5.932zm49.968-14.32v-.659l21.067-21.067 21.067-21.067.623.037.623.037-21.69 21.689-21.69 21.689v-.659zm28.186-52.966l6.95-6.952.038.503.038.503-6.187 6.188c-5.58 5.58-6.219 6.183-6.517 6.139-.23-.034-.442.046-.699.262-1.269 1.068.216-.479 6.377-6.642zm-146.232-166.686c-4.722-1.866-12.368-3.437-18.975-3.899l-1.181-.083 26.524-26.525c14.588-14.589 26.602-26.525 26.697-26.525.095 0-5.406 5.594-12.224 12.432-27.333 27.41-38.295 39.098-37.824 40.326.033.085.616.242 1.36.367 1.786.299 4.744.855 11.349 2.132l5.612 1.085 25.603-25.565c25.716-25.677 30.943-30.835 31.171-30.759.068.023-12.777 12.94-28.545 28.704l-28.669 28.663-.899-.355zm-40.022 26.084v-15.024l.27-.078c.559-.161 5.676-.221 7.28-.085 4.254.36 7.669 1.237 10.605 2.722 1.259.637 1.708 1.038 2.805 2.505 1.072 1.434 1.593 2.312 1.515 2.556-.035.11-3.129 3.264-6.875 7.01l-6.812 6.81-2.923-1.86c-1.607-1.023-2.945-1.838-2.972-1.811-.027.027 1.007 1.146 2.297 2.487l2.347 2.437-3.679 3.677c-2.023 2.022-3.719 3.677-3.768 3.677-.049 0-.089-6.761-.089-15.024zm5.169 9.188c.892-1.148.771-1.746-.695-3.452-1.538-1.79-2.077-2.548-2.077-2.92 0-.441 1.351-.058 3.386.961 1.57.786 2.164.908 3.055.628.78-.245 2.009-1.038 3.146-2.03 1.562-1.362 5.233-4.946 6.66-6.5 2.834-3.088 3.05-3.97 1.385-5.647-1.076-1.084-2.6-1.859-5.827-2.963-4.437-1.519-11.189-2.787-12.162-2.285-.694.358-1.077 1.688-1.318 4.581-.074.889-.159 6.473-.197 13.001l-.068 11.444 2.115-2.097c1.163-1.153 2.333-2.378 2.6-2.721zm135.046-82.162c-14.349-14.349-25.631-25.722-25.56-25.766.255-.158 3.148 2.508 11.944 11.004 4.495 4.342 21.344 20.94 32.354 31.872l8.628 8.567-.839.006-.839.006-25.687-25.687zm12.176-12.628l-38.315-38.315-20.595 20.594c-11.327 11.327-20.626 20.544-20.663 20.483-.038-.061 9.257-9.436 20.655-20.834l20.723-20.723 38.465 38.465c21.156 21.156 38.465 38.505 38.465 38.555 0 .049-.094.09-.21.09-.119 0-16.707-16.497-38.525-38.315zm16.198 40.982l-2.664-2.666h1.678l2.623 2.625 2.623 2.625-.798.041-.798.041-2.664-2.666zm28.042 2.798c-.256-.225-.421-.211-.339.028.027.08-1.689-1.588-3.815-3.708-2.126-2.119-3.846-3.872-3.823-3.895.023-.023.528.443 1.121 1.035.992.99 1.312 1.218 1.388.992.016-.047 1.344 1.231 2.952 2.84 1.608 1.609 2.886 2.924 2.84 2.922-.046-.001-.192-.097-.324-.213zm-62.609 126.776c-1.621-3.233-3.71-8.177-7.798-18.457l-2.158-5.427.282-.062c.155-.034.325-.089.379-.122.105-.065 10.013 25.05 9.92 25.143-.031.031-.312-.454-.624-1.077zm8.259 6.954c-.94-.149-1.838-.402-2.85-.804-.847-.336-1.974-.961-1.888-1.047.019-.019 1.482.398 3.251.926l3.218.96 5.484-1.071c3.016-.589 5.707-1.117 5.98-1.174l.496-.103.022-15.41c.013-8.476.037-14.906.056-14.289l.033 1.122h1.14v14.395c0 9.397-.036 14.418-.103 14.459-.148.092-7.632 1.575-9.242 1.832-1.516.242-4.638.355-5.597.203z" fill="#041E42" sketch:type="MSShapeGroup"/><path d="M251.383 333.586c-8.919-.569-17.915-2.49-26.09-5.571-5.437-2.049-11.222-4.916-15.988-7.922l-1.314-.829.876-.031c.867-.03.884-.026 1.555.395 2.482 1.558 7.444 4.139 10.621 5.525 6.098 2.66 12.82 4.84 20.07 6.51 2.44.562 4.207.741 8.861.897.947.032 2.109.084 2.583.117l.861.059v.92l-.757-.019c-.416-.011-.991-.034-1.278-.052zm-29.129-71.093c.386-.998 8.959-24.046 9.224-24.799l.254-.721.837 2.502.837 2.502-3.721 9.972c-2.802 7.509-3.69 10.113-3.595 10.544l.125.572h-4.184l.221-.572zm59.752 26.196l-1.069-.331-15.613-39.741c-8.587-21.857-15.675-39.904-15.75-40.105-.121-.321.009-.364 1.111-.364.805 0 1.284.092 1.35.26.056.143 7.146 18.186 15.756 40.095s15.699 39.999 15.754 40.199c.12.435-.09.433-1.538-.016v.001zm-15.52-71.753l-4.732-.93v-.997c0-.843.056-.984.364-.913.2.046 1.862.371 3.692.722 1.831.351 3.537.688 3.792.75.391.094 1.881 2.085 1.681 2.246-.035.028-2.194-.367-4.796-.878zm49.287 23.631c-10.296-19.618-13.177-25.256-12.965-25.374.131-.073 2.368-.581 4.97-1.13l4.732-.998v-4.916h2.704v6.166l-4.108.99c-2.26.544-4.316 1.053-4.569 1.13-.436.132-.123.802 5.854 12.517l6.314 12.377-.525.936c-.289.515-.596 1.015-.683 1.112-.087.097-.863-1.167-1.724-2.808zm13.847-24.146l-2.132-.421v-1.017c0-.949.031-1.01.468-.907.257.061 1.572.332 2.921.602 1.349.27 2.507.546 2.573.612.066.066-.059.429-.279.806-.493.847-.778.873-3.551.326zm-1.197 72.127c-.114-.039-.559-.129-.988-.201l-.78-.131.002-14.084.002-14.084 13.249-22.186 13.249-22.186 1.327-.142c.73-.078 1.372-.097 1.427-.043.055.055-.245.638-.666 1.296-.881 1.377-1.941 3.641-2.48 5.298-.218.669-5.157 9.159-11.889 20.437l-11.516 19.293v13.418c0 12.646-.021 13.417-.364 13.401-.2-.009-.458-.048-.572-.087zm-19.293-124.238l-39.263-39.263-6.398 6.395-6.398 6.395-6.396-6.396-6.396-6.396-26.782 26.779-26.782 26.779-1.309-.829c-.72-.456-1.703-1.028-2.184-1.271-.481-.243-.918-.481-.971-.528-.052-.048 11.461-11.644 25.586-25.769l25.681-25.682h12.07l3.74 3.744 3.74 3.744 3.748-3.744 3.748-3.744h12.062l39.523 39.523 39.523 39.523h-7.28l-39.263-39.263zm-169.067 43.651v-25.15l2.418-.151c5.232-.327 10.496.608 14.584 2.59 1.614.782 4.135 2.456 3.961 2.629-.044.044-.762-.199-1.597-.538-3.887-1.582-9.617-2.357-14.633-1.98l-2.028.152v16.726c0 9.199.069 16.726.154 16.726.085 0 2.173-2.018 4.641-4.483l4.487-4.483 1.737 1.9 1.737 1.9-6.378 6.381-6.378 6.381v6.55h-2.704v-25.15zm15.914 1.843c-1.03-.676-1.966-1.268-2.08-1.316-.114-.047 2.693-2.998 6.239-6.556l6.447-6.471.374 1.091c.206.6.571 1.873.813 2.827l.438 1.736-4.969 4.973c-2.733 2.735-5.064 4.966-5.179 4.959-.115-.008-1.052-.567-2.082-1.244zm-14.822 75.671l-1.092-.21v-21.397c0-16.987.054-21.393.26-21.38.143.009.728.181 1.3.382l1.04.366.053 21.252c.042 16.945 0 21.246-.208 21.225-.144-.016-.752-.122-1.353-.237zm5.617-39.397l-2.756-.937v-.728c0-.4.078-.697.173-.659.095.038 1.26.442 2.588.896 2.243.768 2.447.883 2.857 1.612.312.555.361.78.168.769-.15-.009-1.514-.438-3.03-.953zm54.761-23.883c-.114-.041-.544-.131-.954-.199l-.746-.124.673-1.932c.878-2.52 1.57-5.843 1.666-8.004.042-.949.131-1.813.197-1.92.066-.106.124-2.325.128-4.93.012-6.373-.514-9.77-2.214-14.295-.387-1.029-.67-1.904-.629-1.945.041-.041.468.507.951 1.218 1.077 1.585 2.282 4.126 2.996 6.315 2.322 7.118 2.161 17.509-.38 24.46-.407 1.112-.582 1.359-.987 1.392-.271.022-.586.006-.701-.035zm-16.801 15.556c-.316-.316-.231-.414 1.157-1.332 4.353-2.879 7.963-6.554 11.067-11.266.114-.174.474-.377.799-.452l.591-.136-.695 1.27c-2.266 4.142-7.27 9.193-11.562 11.671-.941.543-1.04.561-1.357.245zm14.29-16.148c-.058-.151.164-.877.493-1.612.568-1.27 1.684-4.739 2.103-6.538.177-.762.191-.714.158.57-.02.771-.094 1.403-.164 1.404-.071.001-.239.561-.374 1.245s-.426 1.771-.648 2.417c-.222.645-.353 1.256-.29 1.357.062.101.035.184-.061.184s-.281.281-.41.624c-.247.653-.626.818-.806.349zm-100.164-34.266c-3.375-.666-6.16-1.217-6.189-1.224-.029-.007-.052-.748-.052-1.645v-1.632l1.379.259c.759.143 1.458.385 1.553.539.121.195.605.273 1.585.256.843-.014 1.16.028.788.106-.508.106-.278.195 1.248.484 1.029.195 2.292.314 2.807.266.694-.065.775-.049.312.065-.521.128-.274.218 1.508.547l2.132.394v1.421c0 1.342-.026 1.42-.468 1.398-.257-.013-3.229-.569-6.605-1.235zm148.473-72.64l9.829-9.829 9.829 9.829 9.829 9.829h-12.26l1.238-1.251 1.238-1.251-4.936-4.936-4.936-4.936-4.889 4.886c-2.689 2.687-4.889 4.977-4.889 5.089 0 .112.488.698 1.085 1.302l1.085 1.099h-12.05l9.829-9.829zm88.79 187.004l-1.081-1.297 3.941-.056 3.941-.056v-5.424l.988.134c1.875.255 1.716-.131 1.716 4.17v3.834l-4.212-.003-4.212-.003-1.081-1.297v-.001zm-94.503-.048v-1.352h90.956l-2.741 1.352-2.741 1.352h-85.474v-1.352zm-38.067 54.916l-53.564-53.565h-43.788v-2.704h52.004v-7.85l.988.178c.543.098 1.199.228 1.456.289l.468.111v9.976h-1.768c-.972 0-1.768.07-1.768.156 0 .204 84.303 84.507 84.507 84.507.086 0 .156-2.34.156-5.2v-5.2h29.954v5.096c0 2.803.07 5.096.156 5.096s19.98-19.824 44.209-44.053l44.052-44.053-1.357-.669c-.998-.492-1.357-.78-1.357-1.087 0-.23.029-.418.064-.418s.873.327 1.863.726c4.195 1.692 10.525 3.265 15.954 3.965 3.439.444 9.112.647 13.218.474 21.613-.91 34.635-12.323 34.635-30.357 0-3.412-.36-6.325-1.153-9.318-.285-1.075-.474-1.999-.42-2.053.169-.169 1.736 3.422 2.274 5.21.868 2.886 1.199 5.095 1.316 8.783.125 3.972-.161 6.567-1.079 9.777-.649 2.268-2.667 6.434-3.892 8.032-6.529 8.52-17.126 12.728-31.993 12.704-7.354-.013-12.753-.748-19.514-2.66l-3.419-.967-54.319 54.319-54.319 54.319-53.564-53.565zm64.485 30.112v-5.254h-21.634v10.71l5.355 5.358 5.355 5.358 5.462-5.459 5.462-5.459v-5.254zm108.793-97.398c-1.097-.348-2.837-1.098-3.505-1.51l-.697-.43 8.252-8.254c6.438-6.439 8.191-8.303 7.978-8.48-.151-.124-1.585-.804-3.186-1.51-3.305-1.458-9.368-4.459-11.233-5.562-2.064-1.22-3.865-2.397-3.787-2.475.04-.04 1.705.761 3.699 1.78 1.994 1.019 5.357 2.618 7.474 3.554 4.998 2.209 8.397 3.949 10.62 5.435l1.79 1.197-8.237 8.227c-4.53 4.525-8.329 8.219-8.441 8.209-.113-.009-.439-.092-.725-.183zm-9.327-6.77c-1.721-2.403-3.312-5.982-4.28-9.629l-.514-1.935 1.068.062 1.068.062.465 2.552c.547 3 1.501 6.195 2.493 8.35.39.848.672 1.579.625 1.626-.047.047-.463-.444-.925-1.089zm7.871 6.173c-.744-.314-1.657-.752-2.03-.973l-.678-.402 8.139-8.149c4.477-4.482 8.102-8.261 8.056-8.399-.046-.137-2.186-1.252-4.757-2.477-7.719-3.679-11.614-5.734-11.356-5.992.056-.056 1.583.602 3.392 1.464s5.63 2.678 8.49 4.035c4.658 2.211 9.465 4.896 9.465 5.286 0 .08-3.65 3.734-8.111 8.119-6.378 6.27-8.233 7.982-8.685 8.016-.316.023-1.182-.215-1.926-.528zm2.17-60.204c-1.198-1.417-1.915-4.168-1.679-6.434.376-3.597 3.534-6.579 8.369-7.901 1.361-.372 2.219-.451 4.973-.455 3.845-.006 5.423.323 8.353 1.741 1.575.762 4.391 2.819 4.167 3.043-.052.052-.55-.194-1.107-.547-2.319-1.471-6.488-2.239-10.2-1.878-5.792.562-9.766 2.846-11.591 6.659-.615 1.286-.647 1.477-.647 3.9 0 1.402-.016 2.548-.033 2.548-.018 0-.291-.304-.605-.676zm33.222 8.859c-.13-.648-.237-1.257-.237-1.352 0-.095 1.638-.173 3.64-.173h3.64l.003-1.404c.002-.772-.198-6.438-.445-12.591s-.405-11.231-.351-11.284c.117-.117 2.066.509 2.329.748.172.156 1.137 21.347 1.158 25.415l.009 1.82h-9.512l-.237-1.179zm-81.52-21.029l-1.716-.32v-.906c0-.722.073-.906.362-.906.871 0 5.462 1.124 5.462 1.337 0 .129-.146.443-.324.697-.389.556-1.209.577-3.785.097zm-1.456 72.062l-1.092-.197v-28.1l13.261-22.216 13.261-22.216 1.297-.004 1.297-.004-1.028 1.924c-.565 1.058-1.299 2.579-1.63 3.38-.959 2.321-7.676 13.87-19.417 33.387l-4.443 7.385-.056 13.307c-.031 7.319-.125 13.362-.208 13.429-.083.067-.643.033-1.244-.075zm-11.642-47.313c-1.382-2.464-9.877-18.803-11.941-22.97-.72-1.454-1.245-2.708-1.166-2.787.127-.127 2.183-.609 7.9-1.853l1.612-.351v-4.95h2.716l-.058 3.064-.058 3.064-4.352 1.048c-2.394.576-4.389 1.16-4.435 1.297-.081.245 4.24 8.995 9.571 19.38l2.711 5.282-.5.924c-.275.508-.556.96-.625 1.004-.069.044-.688-.923-1.376-2.149zm-45.719-23.444c-.114-.037-2.104-.422-4.42-.854l-4.212-.786v-.898c0-.608.089-.898.277-.898.152 0 1.907.326 3.9.724l3.624.724.78.863c.979 1.083.995 1.432.052 1.125zm11.464 70.966c-.445-.134-.891-.385-.991-.556-.1-.171-7.161-18.094-15.692-39.829-8.531-21.734-15.553-39.587-15.606-39.673-.154-.249.899-.434 1.657-.292l.694.13 6.195 15.754c11.928 30.333 25.128 64.017 25.228 64.378.12.43-.274.453-1.485.088zm-59.596-26.09c.122-.315 2.275-6.09 4.785-12.834 2.51-6.744 4.599-12.297 4.642-12.341.043-.044.428.981.855 2.278l.776 2.357-2.402 6.448c-3.402 9.133-4.757 12.986-4.882 13.884l-.109.78h-3.888l.222-.572zm-7.393 24.815l-1.202-1.369 1.605-4.312c.882-2.372 1.788-4.804 2.012-5.405l.408-1.092h26.562l.359 1.092c.197.601.402 1.209.455 1.352.076.206-2.488.26-12.385.26-11.694 0-12.49.023-12.623.364-.078.2-.935 2.509-1.904 5.132-.969 2.622-1.835 4.898-1.924 5.057-.12.214-.476-.068-1.364-1.079zm-74.217-1.922l-.58-.092.06-21.186c.033-11.652.131-21.257.218-21.343.087-.086.601-.019 1.144.149l.987.306v42.206l-.624.025c-.343.014-.885-.016-1.204-.067zm34.384 42.685l-25.065-25.066h-43.788v-2.704h52.004v-3.848c0-3.068.056-3.848.277-3.848.153 0 .808.106 1.456.237l1.179.237v9.928h-1.768c-.972 0-1.768.07-1.768.156s11.209 11.365 24.91 25.066l24.91 24.91h-7.28l-25.065-25.066zm-70.414-139.706l-6.397-1.238-5.564-1.077v-3.118l.78.137c.429.075 1.342.314 2.028.529 1.591.5 2.906.803 4.992 1.152.915.153 2.483.445 3.484.648l1.82.37v1.297c0 .713-.07 1.333-.156 1.378-.086.045-.53.009-.988-.079zm81.379 51.2c-.425-.569-.772-1.078-.772-1.131 0-.053.855-.668 1.901-1.368 4.608-3.083 7.41-5.951 10.262-10.508 1.157-1.849 1.184-1.874 2.149-2.01.537-.076 1.289-.146 1.671-.156l.694-.018-.866 1.612c-2.924 5.443-7.206 10.102-12.411 13.505-.933.61-1.732 1.109-1.776 1.109-.044 0-.427-.466-.852-1.035z" fill="#69B3E7" sketch:type="MSShapeGroup"/><path d="M136.746 213.708l-.006-9.731h.928v9.725c0 6.448-.008 9.725-.023 9.725s-.025-1.221-.028-3.583l-.006-3.583-.424-.006-.424-.006-.006 3.595c-.003 1.977-.008-.784-.011-6.136zm112.384 119.6c-13.188-1.173-26.544-5.488-37.997-12.276-2.273-1.347-2.648-1.641-2.17-1.699.396-.048 1.538.471 3.634 1.654 7.457 4.209 15.145 7.274 24.447 9.746 4.847 1.288 6.834 1.622 10.681 1.793 4.616.206 5.678.337 5.678.703 0 .351-.997.369-4.272.078zm3.371.307c-2.274-.077-5.771-.42-8.647-.848-7.6-1.131-14.882-3.154-21.626-6.007-4.791-2.027-9.097-4.282-13.633-7.138l-.522-.329.651-.033c.984-.05.94-.063 2.055.609.514.31.93.569.923.575-.006.006-.334-.153-.727-.356-1.161-.597-1.827-.837-2.081-.753-.229.076-.13.217.425.598.754.518 3.191 1.937 4.96 2.889 10.341 5.56 22.031 9.171 33.575 10.371 3.229.336 5.083.404 5.462.201.062-.033.069-.022.069.112l-.009.143-.876-.035zm.798-.568l-.258-.106c-.514-.144-1.279-.218-3.654-.352-.32-.018-.418-.031-.258-.034.232-.005 2.733.103 3.826.165l.433.024v.179l-.009.178-.08-.054zm-5.185-1.134c-.001.09.042.166.1.232l.18.171.17.108.132.124c.049.031.105.04.157.013l-.416.232.025-.021.082-.069c.315-.22.407-.295.698-.303.164-.04.567-.363-.396.237l.009.017-.036.005-.267-.018-.21-.057-.212-.011c-.076.005-.161-.019-.229.023.506-.293.312-.351.552-.181l.262.141.274.03.207-.038.175-.076-.446.252.025-.037-.029-.021c-.273-.131-.272.026.341-.334.099.053.213.053.322.071l.335.058.261.014.279.001.361.006.281.066.225.042.232.055.26.021.263.027.212.001-.46.324-.048-.008-.077-.013-.282-.052-.411-.109c-.128-.021-.244-.081-.362-.131-.103-.059-.213-.079-.328-.089-.161-.023-.324-.033-.486-.04-.102.008-.22-.03-.314.019l.447-.251-.017.011.014.013.055.044.189.088c.208.069.425.102.644.119l.119-.008c.15-.026.692-.37-.306.197l.031-.018.503-.285.078-.019.07-.031.032-.016-.427.34-.032.014-.111.035-.035.016.402-.232c-.312.178-.444.338-.76.319-.219-.026-.435-.067-.645-.137-.106-.042-.272-.095-.319-.216l.008-.034.495-.284.319.001.488.042c.121.013.233.042.339.101.116.051.232.102.358.125l.405.11.282.046.08.008h.05l-.432.324-.207-.008-.265-.03-.261-.024-.235-.055-.226-.046-.273-.059-.357-.003h-.283l-.265-.022-.33-.06c-.118-.017-.242-.023-.344-.092.409-.302.311-.406.585-.248.255.211-.367.39-.442.436l-.178.071-.215.023c-.097-.005-.195-.011-.286-.047l-.265-.151-.123-.093c-.143-.168.267-.606.46-.355l.239-.006.219.018.206.054.273.023c.299.101-.248.374-.466.375-.26.017-.446.186.25-.216l-.06.036-.05.047-.492.295-.033.011c-.069.005-.134-.013-.188-.057l-.131-.122-.166-.106-.186-.184c-.063-.077-.112-.163-.121-.264l.487-.248-.001-.001zm5.149 1.405c-.019-.115-.044-.227-.105-.327-.047-.074-.114-.108-.198-.12l-.278-.006-.295.002h-.249l-.264.008.421-.237-.019.014-.014.045c.087.033.187.035.279.029l.292-.057c.051-.005.142-.025.179.028l.014.037-.48.305-.042.001-.049.003-.176.006c-.105.002-.209.011-.311-.017-.106-.034-.189-.104-.265-.183-.068-.075-.085-.17-.088-.268.039-.219.008-.104.502-.317l.051.044.167.166.241.28c.055.078.116.078.204.086l.327.005.248-.034c.074-.013.139.009.207.035l.094-.025.084-.025c.153-.036.308-.066.464-.085.101-.009.202-.026.299.005l.255.121c.089.038.187.04.282.043l.481.002c.13-.003.253-.045.378-.075l.311-.073.226-.044c.192-.089-.123.056-.438.249l.006.018-.074-.027-.429-.124c-.148-.032-.3-.044-.452-.049l-.377-.002-.325-.027-.347-.028-.345-.017c-.109-.009-.212.006-.312.051l-.074.038-.032.018.44-.253-.013.003.022-.023c.32.055.644.077.968.094.209.018.418.002.627-.011l.499-.014c.184.002.367.002.55-.013l.51-.024.355-.003.339.001c.107-.006.209.026.312.048l.377.098.322.066.281-.003.17-.036-.432.336-.174.024c-.097.009-.194.009-.29-.008l-.321-.072-.379-.095c-.1-.023-.2-.046-.304-.039h-.34l-.351.002-.506.024-.553.011-.497.016c-.206.013-.411.018-.617-.003-.332-.022-.665-.045-.994-.092l-.072-.053.003-.032c.177-.116.39-.258.602-.34.105-.032.212-.041.322-.033l.347.021.348.026.32.025.379.003c.153.009.305.026.454.06l.439.126.091.043c.185.155-.315.329-.473.349l-.223.046-.309.069c-.127.032-.252.068-.384.064l-.484-.003c-.102-.005-.205-.013-.298-.06l-.25-.112-.283.008c-.155.021-.31.05-.46.095-.091.038-.103.065-.203.024l-.192-.016-.249.029-.331-.009c-.096-.014-.175-.036-.23-.123l-.231-.277-.11-.111-.055-.041-.035-.011c.61-.426.562-.385.424-.257-.006.084.009.166.066.231.071.072.148.133.249.156l.301.008.175-.013c.194-.026.465-.282-.358.262l.017.014-.013-.005-.141.008-.294.049c-.106-.001-.23.001-.315-.071l-.024-.039.021-.095c.454-.284.308-.256.525-.291l.267-.001h.249l.294-.001.285.014c.094.025.169.075.221.159.061.106.091.22.116.339l-.48.26.003.004zm-.051-.582l.178.194.142.163.116.185.061.1-.474.274-.059-.097-.115-.186-.136-.155-.183-.197.47-.281zm-6.335-.558l.463.002h.43l.375-.002c.084-.011.152.017.226.052.075.036.141.082.197.144.137.262-.343.388-.579.409l-.372.009c-.086.003-.17-.016-.25-.044l-.19-.102-.166-.159c-.062-.049-.137-.057-.213-.063l-.248-.002h-.183l.44-.32.183-.001.252.006c.086.011.166.032.232.091l.162.149.183.092.237.032.367-.016.055-.011.043-.017-.433.266.02-.005-.006-.035-.184-.126c-.07-.029-.135-.042-.211-.034l-.37-.002h-.43l-.469.002.441-.321v.002zm-20.989-5.331l.318.156c.086.035.177.046.269.05l.21.044.24.071.31.168.307.193.268.14.262.136.262.099c.143.04.281.096.417.154.1.056.2.103.31.136l.377.079c.157.03.294.111.443.163.238.073.486.093.732.122.206.023.407.076.609.12.171.034.335.089.498.15l.368.143.266.111.281.127.257.092.334.101.34.082c.29.101.031.14-.353.374l-.032-.014-.041-.008-.585-.182-.522-.166c-.149-.046-.299-.093-.443-.156-.108-.048-.211-.111-.309-.178l-.291-.137c-.184-.071-.374-.121-.568-.15-.178-.022-.357-.022-.535-.023-.188.005-.374-.027-.558-.058-.148-.036-.298-.079-.424-.168l-.275-.177-.226-.138c-.121-.076-.256-.11-.393-.144-.16-.029-.318-.069-.473-.118-.167-.04-.325-.105-.486-.164-.102-.046-.205-.09-.315-.112l-.392-.115-.277-.067-.244-.057-.281-.083c-.079-.045-.149-.092-.145-.191.18-.293.506-.33.792-.297.246.052.496.085.745.123.25.04.498.095.742.166.177.042.338.118.492.212l.4.269.534.396c.274.184.566.338.866.473.184.091.368.182.558.259.169.067.346.106.524.142l.273.036-.437.31-.275-.041c-.18-.036-.359-.082-.53-.15-.187-.079-.368-.172-.548-.267-.301-.14-.593-.297-.868-.483l-.547-.385-.399-.267c-.151-.089-.311-.157-.48-.204-.242-.071-.489-.123-.739-.159l-.744-.119-.228.008-.042.011.412-.255-.019.001c-.027.024.095.107.116.113l.274.069.244.061.279.074.389.11c.11.028.214.072.316.121.159.062.319.12.484.161.155.047.312.086.472.115.141.035.277.08.403.153l.23.142.274.178c.122.08.261.124.403.153.184.03.37.054.558.048.18.003.36.006.538.031.197.035.388.092.577.157.105.038.206.086.301.146l.301.171.436.154.518.167c.196.06.389.136.592.168l.043.005.018-.009c-.559.397-.266.36-.524.271l-.345-.081-.335-.105-.261-.094-.278-.126-.267-.11-.359-.147c-.162-.059-.328-.107-.497-.142-.197-.048-.394-.1-.597-.122-.251-.03-.504-.055-.748-.126-.146-.055-.284-.131-.44-.157l-.381-.082-.312-.142c-.134-.059-.272-.111-.415-.148l-.269-.103-.26-.136-.272-.151-.304-.189-.308-.159-.238-.067-.204-.035c-.095-.009-.188-.028-.276-.068l-.321-.149.453-.307v-.001zm8.002 2.672l.223.167c.068.054.137.098.221.12l.064.011.016.019c-.156.109-.316.212-.481.306l-.044-.008-.055-.006-.347-.055-.279-.043c-.071-.033-.103-.1-.095-.175.185-.278.485-.32.77-.328.155.005.3.065.449.101.125.034.252.064.369.121l.31.174.247.1.269.048.267.008.397.002h.399c.148.006.291.043.431.091.112.045.21.117.311.183.058.05.204.126.24.194l.011.046-.502.318-.083.011c-.134.016-.257.013-.39-.009-.145-.027-.266-.109-.39-.182l-.252-.163-.177-.097-.25-.064-.362-.048-.331-.063c-.172-.06-.332-.151-.489-.242l-.257-.155-.056-.014-.014-.016c.158-.106.319-.21.487-.301l.057.006.109.024c.494.1.998.137 1.499.181l.921.061c.138.009.239.045.35.125l.215.22.206.252c.027.051.055.141-.011.18-.483.285-.321.253-.558.291-.096.014-.192.009-.288-.005-.104-.014-.196-.072-.291-.113-.139-.07-.299-.083-.45-.114l-.374-.053c-.171-.008-.344.001-.512-.035-.121-.028-.2-.114-.283-.199l-.043-.06.002-.069c.456-.283.315-.264.545-.286l.591.065-.415.294c-.202-.02-.408-.047-.611-.031l.399-.249-.036.002.034.05c.074.08.147.153.259.175.17.029.342.022.514.026l.371.064c.156.032.318.047.461.12.092.042.182.09.284.099.092.011.185.009.276-.011l-.382.238.038-.011.03-.05-.016-.045-.207-.244-.204-.209c-.1-.066-.208-.096-.328-.106l-.899-.078c-.507-.051-1.015-.1-1.521-.17l-.114-.014-.061-.003c.338-.281.292-.363.483-.29l.254.164c.152.091.307.184.482.226l.327.06.366.047.261.076.181.104.247.162c.118.071.235.145.374.168l.283.008c.23-.026.497-.221-.233.23l.011-.013c-.02-.05-.183-.149-.227-.184-.099-.061-.196-.129-.306-.171-.135-.046-.275-.076-.419-.077h-.399l-.402.002-.27-.013-.276-.056-.25-.112-.309-.169c-.115-.051-.237-.083-.358-.115-.146-.037-.29-.093-.443-.087l-.184.018-.047.013.396-.249c-.051.028.006.083.045.093l.273.039.346.055.057.005.042-.001-.434.302.009.013-.066-.017-.229-.135-.228-.168.464-.291h.001zm12.466 3.201c-.156-.013-.303-.058-.448-.116l-.327-.15-.192-.171-.138-.094c-.062-.041-.135-.048-.207-.055h-.318l.404-.233-.013.001.002.016.035.036c.087.062.197.082.297.114.142.047.28.104.415.167l.201.1c.142.318-.443.352-.66.339-.134-.011-.251-.08-.374-.129l-.262-.138-.189-.118c-.136-.019-.274-.022-.409.003-.184.058-.537.298.388-.269l.1.008.344.03c.139.011.267.066.39.129.115.078.236.129.372.154.153.021.307.021.461.022l.387-.001c.076-.009.278.024.333-.022-.162.103-.314.226-.487.309l-.101-.028-.155-.051-.59-.2-.767-.325-.077-.025c-.187-.027-.449.06-.628.113-.143.044-.286.089-.436.101l-.348.005-.288-.001.404-.279.089.02.285.042c.111.005.215.049.318.086l.327.133.104.034.023-.002-.468.264c-.107-.106-.244-.172-.377-.239-.085-.055-.178-.08-.278-.092l-.097.011c1.104-.634.461-.398.449-.227l-.026.145-.494.282-.183-.03-.158-.099c-.056-.048-.116-.067-.188-.077-.146-.027-.293-.058-.435-.102l-.337-.109-.321-.098-.279-.032-.278-.001h-.259c-.095.006-.182-.002-.269-.04l-.225-.156-.209-.124-.312-.095c-.106-.033-.215-.052-.325-.061l-.253-.005c-.079.005-.155.002-.229-.027l-.201-.09-.261-.107-.277-.033h-.226l-.24-.014-.221-.065-.181-.06-.176-.049-.022-.011-.027-.063c.4-.269.319-.27.552-.278h.296l.479.001c.13.001.26-.011.388.017.123.044.224.128.328.205l.156.163.109.222.046.119-.013.041c-.488.293-.329.324-.565.257-.105-.035-.195-.098-.274-.173-.055-.055-.122-.077-.198-.087l-.377-.006c-.139.009-.268-.022-.389-.089-.078-.052-.137-.122-.185-.201l-.066-.084-.008-.005c.489-.291.314-.347.521-.27l.332.042c.266.031.526.091.789.137.131.024.258.055.38.108l.187.123c.087.08.187.14.293.191.104.049.216.058.329.063l.375.002.374.005c.195.006.367.1.54.181.172.087.346.165.524.238l.26.111.206.017h.246l.363.001.328-.001.218.065.028.014c-.149.119-.299.239-.464.334l-.082-.019-.396-.112c-.193-.063-.375-.152-.55-.254l-.279-.184-.022-.019.466-.289.018.016.268.184c.17.099.346.188.533.25.128.039.264.089.399.094l.072-.011c-.389.335-.266.385-.445.299l-.204-.049-.325-.001-.366.001h-.249l-.216-.031-.258-.117-.514-.246c-.173-.077-.346-.155-.538-.158l-.373-.002-.378-.005c-.118-.009-.234-.025-.34-.082-.107-.055-.21-.118-.303-.195l-.18-.114c-.116-.05-.239-.077-.362-.106-.262-.053-.524-.114-.792-.129-.117-.009-.237-.008-.348-.051-.199-.083-.063-.014.402-.322l.008.013.043.055.023.035c.044.07.097.134.168.178.117.059.241.078.371.07l.389.009c.082.019.154.053.213.114.074.068.156.126.256.147l-.385.264.031-.002-.03-.096-.11-.216-.142-.15c-.096-.075-.193-.153-.313-.184l-.378-.013-.481.001-.3.008c-.209.028-.222.18.398-.255l-.028-.033h.002l.016.006.173.046.184.067.216.057.234.006.227.003.282.047.27.115.196.08.218.014.256.009.327.072.32.098.217.135.215.143c.084.028.17.025.258.023h.259l.278.003c.098.005.197.009.289.044l.317.101.337.107c.142.043.286.076.433.095.079.016.148.046.208.101l.145.078.16-.002-.445.261.041-.018.008-.079-.006-.066c.305-.205.34-.317.588-.282.102.019.197.053.284.11.137.076.278.149.395.256l.036.056c-.358.265-.364.341-.618.229l-.322-.133c-.102-.035-.204-.071-.313-.074l-.29-.046-.11-.044c.327-.277.277-.32.505-.327l.288.001.343-.009c.143-.02.282-.06.42-.1.203-.056.443-.132.654-.091l.075.029.748.336c.196.072.393.136.595.193l.163.043.112.024c-.107.136-.264.224-.395.336h-.335l-.389.001c-.156-.003-.312-.006-.466-.031-.138-.031-.262-.089-.381-.165-.12-.058-.244-.105-.378-.111l-.348-.029-.122-.032c.294-.261.28-.307.508-.346.142-.014.29-.017.43.014l.194.129.255.131c.116.05.231.111.361.114l.134-.006.046-.011-.424.282-.187-.09c-.132-.065-.268-.12-.408-.163-.109-.033-.226-.056-.317-.129-.241-.234.201-.39.473-.43l.325.008c.078.009.152.027.22.069l.147.109.183.161.316.148c.143.054.29.096.444.095l-.441.321.001.001zm7.04.527l.178.033.018.032c-.51.376-.333.301-.637.264l-.066-.005.444-.318.069.008c.277.044.224-.025-.302.303l.018.025-.035-.008-.129-.013.443-.322zm-44.947-14.682l.261.223.14.199.108.182.137.091.178.039.196.009h.013c-.484.341-.305.324-.613.321l-.256-.064-.198-.09-.131-.128-.107-.131-.12-.111-.014-.021-.011-.011-.005.005.473-.253.159.053.125.128.106.098.177.034.169.05.275.009.261-.001h.223l.235.045c.095.014.176.057.259.103l.239.137.182.109.247.127c.081.03.15.08.215.135l.231.266c.118.238-.346.297-.494.365l-.083-.024-.29-.117c-.28-.107-.551-.234-.815-.376-.169-.091-.338-.18-.496-.289-.078-.062-.153-.135-.166-.238.033-.214.391-.281.515-.348l.092.013.438.282.693.419.35.256.251.185.255.162c.095.056.203.085.309.113l.291.066.251.07.244.097c.151.066.297.145.441.225l.293.152.224.106.27.162c.155.118.315.229.483.326l.122.074.084.037.495.243c.217.107.435.217.665.297l.296.05.2.032.115.057.323.206.202.198.198.219.226.131c.238.189-.338.334-.446.392l-.13.011c-.189.008-.358-.079-.524-.158-.151-.078-.294-.17-.43-.271-.08-.07-.138-.162-.179-.259-.144-.277.068-.214.446-.432l.263.089.549.228.407.162.209.131.272.159.176.15c.054.079.127.137.206.188l.34.184.314.12.256.115.239.099.368.201.422.245c.142.075.28.159.431.216l.297.07.549.16.768.207c.246.075.488.161.727.258.167.07.33.149.488.236.19.106.377.219.552.348l.244.181.274.158c.109.061.232.082.351.111l.626.109c.211.013.372.09.555.189.123.08.274.113.384.212.137.21-.454.334-.485.349l-.204-.053-.414-.202c-.186-.082-.383-.137-.577-.195l-.336-.064-.353-.054-.257-.091-.187-.146c-.099-.1-.211-.18-.328-.258-.07-.045-.146-.074-.228-.09l-.239-.052-.342-.08c-.126-.028-.236-.096-.351-.151l-.223-.148-.216-.116c-.069-.052-.151-.069-.232-.092l-.313-.084-.382-.148c-.13-.05-.249-.118-.368-.188l-.284-.161-.203-.137c-.113-.088-.235-.162-.358-.234-.121-.067-.255-.099-.39-.126-.279-.046-.554-.111-.828-.179-.338-.069-.647-.216-.947-.382-.142-.087-.288-.171-.411-.285l-.149-.149c-.123-.103-.261-.187-.397-.271l-.276-.185-.272-.14c-.089-.057-.186-.103-.287-.133l-.431-.13-.207-.062-.071-.032c-.119-.042-.234-.094-.343-.157l-.255-.207-.191-.132-.222-.126c-.171-.078-.335-.17-.487-.282-.095-.083-.188-.167-.297-.231-.1-.057-.211-.098-.321-.132-.201-.083-.402-.166-.597-.262l-.522-.257c-.098-.047-.184-.115-.264-.188-.085-.068-.168-.145-.214-.245-.042-.233.28-.251.493-.359l.201.109c.393.255.789.505 1.193.743.372.221.744.441 1.102.684l.137.106.343.271c.173.128.353.243.536.354.264.152.549.261.83.376.134.055.264.115.388.19.145.096.3.175.454.256.271.144.545.284.824.413.283.128.555.276.834.412.307.135.603.295.9.45.347.187.703.353 1.069.497.217.08.438.152.664.201l.559.112c.151.03.297.065.438.128.216.079.425.173.619.296.156.088.297.2.436.314l.268.237.164.092.278.061c.204.045.157.028-.446.296l-.063-.05.453-.288.074.045c-.35.345-.269.359-.464.31l-.283-.066c-.072-.022-.128-.059-.179-.114l-.259-.235c-.137-.111-.272-.225-.426-.312-.194-.119-.402-.212-.617-.287-.141-.053-.288-.085-.434-.121l-.558-.113c-.225-.055-.445-.128-.66-.214-.362-.151-.711-.328-1.059-.509l-.912-.442-.832-.412c-.281-.129-.554-.273-.831-.41-.159-.077-.317-.156-.466-.252l-.376-.188c-.277-.121-.557-.24-.819-.393-.354-.225-.693-.47-1.02-.731-.352-.247-.721-.467-1.09-.687-.405-.242-.799-.501-1.213-.728l-.105-.052-.053-.016-.029.008.442-.266h-.024l-.005.021c.032.096.125.161.198.225.079.067.161.131.255.177l.51.264c.197.092.398.174.602.25.114.037.231.075.333.14l.294.238c.149.112.311.203.485.271l.23.131.191.134.248.204c.11.061.225.109.344.148l.272.094.432.129c.103.035.202.082.295.139l.274.143.271.189.41.275.147.15c.116.112.252.199.387.284l.274.148c.211.101.433.171.659.226.28.067.562.123.846.164.138.031.274.069.397.142l.366.235.199.131.282.165c.117.068.234.135.362.182l.381.143.315.081.239.103.222.123.213.14c.111.057.221.116.345.14l.343.077.24.053c.085.022.166.056.237.108l.331.265.182.132.247.081.35.051c.114.017.228.033.337.073.194.064.39.122.578.202l.413.193.137.031.058-.003-.436.267.026.014-.005-.013c-.103-.096-.251-.129-.364-.209-.18-.094-.343-.152-.545-.175l-.638-.105c-.123-.028-.244-.063-.356-.121l-.284-.164-.238-.186c-.171-.13-.351-.247-.541-.346l-.491-.228c-.232-.101-.469-.187-.712-.259-.259-.067-.521-.121-.775-.203l-.557-.149-.302-.079-.43-.224-.424-.245c-.12-.069-.242-.138-.371-.191l-.243-.104-.249-.11-.318-.123-.339-.192c-.083-.055-.163-.112-.219-.196l-.166-.137-.272-.163-.205-.124-.395-.168-.557-.222c-.079-.028-.165-.072-.251-.058l.446-.273h-.017l.001.02.038.086c.035.089.085.174.159.237.133.1.272.189.42.265.162.077.328.151.512.131l.068-.009.058-.016-.428.267.023.008-.035-.034-.231-.139-.198-.227-.198-.187c-.099-.075-.202-.145-.314-.2l-.112-.046-.197-.027-.301-.062c-.221-.092-.431-.209-.644-.316l-.37-.17-.235-.1-.118-.075-.489-.328-.268-.153-.227-.11-.287-.154c-.143-.081-.287-.162-.441-.22l-.24-.085-.255-.074-.285-.066c-.111-.031-.223-.061-.32-.124l-.257-.164-.25-.187-.34-.257c-.224-.147-.455-.285-.685-.422l-.232-.135-.185-.109-.027-.006-.053.002-.021.009.442-.261-.024.008-.017.013c-.019.083.084.146.135.195.152.108.313.204.476.295.264.145.54.266.827.359l.292.11.039.008.036.001-.445.26.031.014-.003-.04-.224-.253-.205-.121-.251-.132-.185-.112-.235-.136-.253-.092-.228-.033h-.223l-.259-.001-.285-.016-.171-.052-.185-.046-.119-.12-.105-.099-.178-.078c-.17-.229.4-.507.503-.276l.114.101.108.133.119.11.191.084.247.05c.295-.002.208-.039-.274.321l-.01-.001-.201-.018-.183-.046-.154-.12-.11-.187-.13-.187-.258-.213.461-.295h-.001zm-1.108-1.446l.395.33c.201.169.381.36.574.537.169.159.338.32.517.467.105.095.216.183.334.261l.487.266.586.373.479.255c.14.084.26.195.381.303.076.073.15.113.247.151l.509.185.241.091-.447.3-.238-.091-.512-.183c-.116-.042-.17-.083-.258-.168-.115-.109-.235-.215-.375-.294l-.472-.261-.588-.369-.494-.266c-.119-.08-.232-.168-.335-.268l-.509-.475-.575-.534-.405-.308.457-.301z" fill="#041E42" sketch:type="MSShapeGroup"/><path d="M167.877 257.628c-.138-.808-.892-7.347-1.677-14.531-1.275-11.676-1.355-13.134-.751-13.738.812-.812.83-.734 1.96 8.675.421 3.508.904 6.114 1.073 5.791.169-.323.877-4.145 1.574-8.494.697-4.349 1.45-7.908 1.673-7.908.223 0 1.334.67 2.47 1.488 3.25 2.343 3.438 2.383 2.294.484-.58-.962-1.442-2.312-1.916-3-.474-.688-.789-1.32-.701-1.405.088-.085 3.361-.485 7.274-.889s7.186-.806 7.273-.893c.22-.22-.567-.423-7.928-2.041-3.553-.781-6.536-1.49-6.629-1.576-.093-.086.284-1.273.838-2.638s.895-2.595.758-2.732-1.166.381-2.286 1.151l-2.036 1.401v-1.07c0-.766 1.529-2.64 5.379-6.593 2.959-3.037 5.246-5.121 5.083-4.631-.163.49-1.309 3.768-2.548 7.285-1.451 4.12-2.085 6.496-1.783 6.682.258.159 6.802 1.282 14.542 2.495s13.923 2.337 13.74 2.498c-.183.16-6.448.837-13.921 1.503-7.473.666-13.949 1.349-14.39 1.517-.688.262-.171 1.192 3.638 6.538 2.442 3.427 4.375 6.297 4.295 6.376-.08.08-2.819-1.973-6.088-4.562-3.269-2.589-6.045-4.709-6.17-4.711-.124-.002-1.205 6.461-2.402 14.363-1.197 7.902-2.224 14.427-2.282 14.5-.058.073-.219-.529-.357-1.337zm.026.09c-.153-.858-.917-7.42-1.7-14.583-1.163-10.65-1.319-13.149-.853-13.71.313-.377.644-.611.735-.52.173.173 1.933 13.403 1.934 14.535 0 .393.152.48.387.223.212-.233.955-3.982 1.651-8.331.696-4.349 1.448-7.908 1.67-7.908.223 0 1.394.726 2.602 1.613s2.296 1.513 2.418 1.391c.122-.122-.489-1.399-1.357-2.838l-1.578-2.616 2.115-.292c1.163-.16 4.521-.541 7.461-.845 3.584-.371 5.052-.672 4.455-.911-.49-.197-3.798-.992-7.351-1.767-3.553-.775-6.529-1.473-6.615-1.551-.085-.078.273-1.284.795-2.681.523-1.397.879-2.611.791-2.699-.088-.088-1.097.436-2.243 1.163-2.056 1.304-2.084 1.308-2.081.329.002-.649 1.715-2.808 4.956-6.246 2.724-2.89 5.053-5.154 5.175-5.031.122.122-.819 3.257-2.093 6.966s-2.212 6.846-2.086 6.972c.126.126 6.653 1.254 14.503 2.507 7.85 1.253 14.127 2.406 13.948 2.563-.179.157-6.488.852-14.02 1.543-7.532.692-13.936 1.407-14.231 1.59-.548.339.739 2.456 5.859 9.639 1.266 1.776 2.188 3.23 2.048 3.23-.14 0-2.903-2.095-6.141-4.655s-5.994-4.551-6.124-4.422c-.131.128-1.254 6.684-2.496 14.568-1.641 10.418-2.334 13.909-2.536 12.776zm-11.098-43.21c-4.331-4.531-7.801-8.312-7.711-8.402.09-.09 4.176 2.388 9.081 5.507l8.918 5.671-.94 1.84c-.517 1.012-1.06 2.241-1.207 2.731-.223.743-1.573-.475-8.141-7.347zm-3.475 13.219c.439-.471 10.808-4.779 11.012-4.576.112.112.069.998-.095 1.969-.283 1.673-.396 1.779-2.16 2.016-3.527.473-8.989.841-8.756.591zm14.046-11.916c-.396-1.084-1.608-7.223-1.455-7.375.079-.079.909 1.274 1.845 3.006l1.701 3.15-.929.929c-.744.744-.975.801-1.162.29zm.449 43.133c-.003-.008-.735-6.553-1.626-14.546l-1.62-14.533.86-.94c.834-.911.861-.935.898-.794.021.08.46 3.567.977 7.748.516 4.181.962 7.663.99 7.737.073.193.14.097.226-.327.04-.198.675-4.031 1.411-8.517s1.343-8.165 1.351-8.175c.007-.009 1.21.849 2.672 1.909 1.462 1.06 2.691 1.927 2.732 1.927.041 0 .073-.052.073-.12 0-.067-.752-1.323-1.708-2.853l-1.708-2.733.215-.03c.118-.017 3.333-.348 7.143-.737 6.805-.695 7.51-.784 7.203-.909-.057-.023-3.358-.761-7.335-1.639l-7.231-1.597.066-.159c.036-.088.52-1.322 1.075-2.744l1.009-2.585h1.416c.779 0 1.416.01 1.416.023s-.196.58-.436 1.26-.486 1.4-.548 1.6c-.14.455-.202 1.136-.108 1.195.058.036 12.367 2.009 20.081 3.22 1.543.242 4.267.673 6.053.958 1.786.285 3.82.607 4.52.716.7.109 1.214.204 1.143.211-.071.008-3.988.376-8.702.82-17.921 1.687-22.3 2.104-22.652 2.156-.2.03-.397.087-.437.128-.181.18.043.909.479 1.559.181.269 6.49 9.106 8.754 12.261.43.6.775 1.098.765 1.107-.018.018-2.343-1.82-5.509-4.355-1.057-.847-3.185-2.541-4.728-3.766l-3.15-2.5c-.356-.282-.817-.591-.883-.591-.062 0-.139.299-.25.961-.057.343-1.029 6.632-2.159 13.976-1.13 7.344-2.069 13.428-2.086 13.521-.03.168-.032.169-.336.169l-.312-.013z" fill="#FFCD00" sketch:type="MSShapeGroup"/></g></svg>