<svg width="512" height="512" viewBox="0 0 512 512" version="1.1" xmlns="http://www.w3.org/2000/svg" xmlns:sketch="http://www.bohemiancoding.com/sketch/ns"><title>texas-rangers</title><desc>Created with Sketch.</desc><g sketch:type="MSShapeGroup" stroke="none" stroke-width="1" fill="none"><path d="M257.151 82.207c-96.921 0-175.76 78.861-175.76 175.768 0 96.921 78.839 175.768 175.76 175.768 96.921 0 175.76-78.846 175.76-175.768 0-96.907-78.839-175.768-175.76-175.768m162.064 175.768l-.073-3.029h-50.552c-.801-27.335-11.517-54.44-32.376-75.297-43.382-43.391-113.732-43.391-157.116 0-20.937 20.931-31.67 48.135-32.406 75.558l-51.547-.059-.057 2.799-.015.822c0 .735.044 1.457.059 2.178h51.554c.671 27.524 11.41 54.816 32.413 75.819 43.384 43.375 113.726 43.375 157.116-.015 21.061-21.047 31.793-48.468 32.413-76.063h50.545c.016-.721.059-1.443.059-2.178l-.016-.535" fill="#fff"/><path d="M257.151 95.896c-88.424 0-160.485 71.187-162.006 159.251l51.547.059c.735-27.423 11.469-54.627 32.406-75.558 43.384-43.391 113.733-43.391 157.116 0 20.859 20.858 31.577 47.963 32.376 75.297h50.552l.073 3.029h.015c0-89.376-72.702-162.078-162.078-162.078" fill="#CD1141"/><path d="M257.151 88.165c-93.784 0-169.803 76.034-169.803 169.811 0 93.776 76.02 169.811 169.803 169.811 93.776 0 169.796-76.033 169.796-169.811s-76.02-169.811-169.796-169.811zm-43.527 271.967c1.003.057 1.954-.015 3.007-.231 1.197 1.327 2.235 2.062 3.347 2.713-2.136-.765-4.248-1.573-6.354-2.481zm205.606-101.624c0 .735-.042 1.457-.059 2.178h-50.545c-.62 27.596-11.352 55.017-32.413 76.063-30.465 30.465-74.186 39.453-112.572 27.147l.836-1.226c-2.439-.606-5.51-2.656-7.321-4.385-4.01 1.024-6.188-.823-8.958-1.63l-.252.851c-10.392-5.207-20.18-12.074-28.849-20.742-4.119-4.111-7.703-8.525-11.028-13.055 1.097.649 2.358 1.356 3.389 1.717l-.989-1.674s-2.827-1.86-5.106-3.706c-1.838-2.755-3.52-5.569-5.084-8.44 3.288 3.001 5.531 3.52 8.021 4.703l-.75-3.564c-2.128-.678-6.354-2.481-9.484-5.554-7.133-14.568-10.999-30.349-11.382-46.246h-51.554c-.015-.721-.059-1.441-.059-2.178l.015-.822-.015.029c0-.937.059-1.875.072-2.827 1.523-88.064 73.584-159.251 162.008-159.251 89.378 0 162.078 72.702 162.078 162.078h-.015l.015.533z" fill="#004784"/><path d="M139.812 308.534c1.932-.706 3.266-2.062 4.031-4.053 1.053-2.742.858-6.622-.526-10.386l-3.895-10.618-.599.579-2.163 2.092c-.037-.029-2.625.908-2.625.908s-5.179 1.862-5.229 1.89c0-.144-3.123-1.441-3.123-1.441l-.483-.202s-1.551 3.419-1.724 3.794c-.382.145-8.668 3.174-8.683 3.174-.015-.031-2.836-.187-2.836-.187l-.814-.044 3.512 9.781s2.741-2.871 2.748-2.886c.037.029 7.01-2.568 8.951-3.274.072.202.505 1.428.642 1.831-.412.448-9.953 10.978-9.953 10.978l2.784 7.933s2.467-3.764 2.531-3.867c.166-.173 8.078-8.453 8.662-9.073 2.45 2.827 5.891 4.125 8.791 3.072zm-.066-9.852c-.404 1.068-1.305 1.89-2.596 2.364-1.406.505-2.893.419-4.04-.215h-.015c-.886-.461-1.537-1.241-1.904-2.222l-.937-2.525c.873-.302 7.724-2.596 8.575-2.886.245.664.794 2.178.794 2.178.252.693.368 1.342.368 1.932.001.494-.078.955-.245 1.374zm25.583 37.231l-11.519 4.024c0-.072-3.433-.923-3.433-.923l-.432-.101s-1.364 2.899-1.529 3.26l-9.607 3.217.064.029c-.432.031-1.226.145-2.957.404l-1.371.23 5.871 6.738s1.371-2.899 1.522-3.246c.325-.13 3.685-1.472 4.233-1.674.426.491 5.821 6.606 6.231 7.082-.289.519-2.033 3.577-2.199 3.867-.354.116-3.448 1.053-3.448 1.053l7.646 8.727s.995-4.457.995-4.486c.007.086 1.977-3.203 1.977-3.203s3.108-5.163 3.13-5.192c.037.086 3.058-1.097 3.058-1.097l.404-.158s-.612-4.154-.62-4.169c.086.015 5.323-10.775 5.323-10.775l.158-.318-3.007-3.461-.491.173zm-6.361 7.284c-1.009 1.746-3.751 6.506-4.299 7.458l-3.966-4.514c1.11-.391 6.354-2.266 8.265-2.944zm53.12 30.452c-.064-.042-3.909 7.819-3.909 7.819s-1.125 2.292-1.882 3.821c-.505-2.77-3.707-20.426-3.707-20.426l-7.501-3.678.064.923s.224 3.492.224 3.52c-.044-.073-2.048 4.009-2.048 4.009s-1.255 2.568-1.421 2.913c-.382.145-3.606 1.386-3.606 1.386l1.053 3.952c-.116-.015-2.726 5.266-2.726 5.266s-1.515 3.073-1.537 3.101c-.035-.044-2.395 1.674-2.395 1.674l-.706.533 8.547 4.24s-.513-4.312-.519-4.327c.064 0 5.424-10.761 7.35-14.641.498 2.856 4.242 24.495 4.242 24.495l3.52 1.788s5.69-11.655 5.712-11.712c.064.1 2.95-1.242 2.95-1.242l.404-.187s-.88-3.592-.895-3.621c.13 0 2.294-4.443 2.294-4.443l1.428-2.943c.057.015 2.294-1.759 2.294-1.759l.664-.52-8.265-4.182c-.004-.001.371 4.226.371 4.24m53.062 23.816c-.05 0-.066 2.683-.066 2.683l-.015 5.251c-.605.187-1.298.75-3.433.735-5.222-.042-8.295-4.716-9.03-9.333.05-.042 2.351-2.336 2.351-2.336l.346-.346s-2.128-2.525-2.415-2.871l.152-.908c1.074-3.693 3.981-7.659 8.929-7.545 3.564.073 6.218.939 7.466 2.439 0-.015.441.548.441.548l.923 1.14.173-5.655-.368-.245c-2.546-1.731-4.738-2.338-8.655-2.366-7.523-.072-14.368 4.545-16.654 11.208-.007.029-.375 1.384-.39 1.413-.022-.057-2.163 2.178-2.163 2.178l-.318.332 2.395 3.143c1.27 7.53 8.525 13.243 16.79 13.314 5.799.044 7.494-.792 9.464-1.774l1.153-.579.059-10.616c.072 0 1.498-2.553 1.498-2.553l.456-.807-10.955-.073c-.001 0 1.86 3.592 1.868 3.621m59.969-8.047c-.015-.057-4.588 1.948-4.588 1.948l-2.467 1.081c-.223-.519-3.404-8.122-3.764-9.002l4.919-2.119c.015.015 3-.145 3-.145l.759-.042-2.626-6.332s-2.862 2.654-2.869 2.654c-.007-.015-4.768 2.048-4.768 2.048l-.088.042-3.143-7.297c.75-.318 7.053-3.044 7.284-3.145.289.029 5.352.303 5.352.303l-2.59-6.145-.729.318-19.279 8.367 3.389 2.48c0 .145 3.139 7.458 3.397 8.107-.173.375-1.66 3.564-1.66 3.564l3.795 1.399c.158.39 3.448 8.438 3.448 8.468-.042.015-.275 2.943-.275 2.943l-.072.893 19.733-8.597-2.546-5.957c.001-.001-3.59 4.153-3.612 4.167m39.02-45.771c.417-1.184.735-2.38.735-3.507 0-2.279-.816-4.341-2.373-5.683-1.572-1.342-3.411-1.862-5.51-1.544-2.893.419-6.174 2.511-8.762 5.569l-7.313 8.611s3.751 1.112 3.764 1.112c0 .086 6.137 5.439 6.194 5.496l-.022.173c0 .706.289 3.246.289 3.246l.057.533s3.751-.332 4.154-.375c.332.289 7.041 6.058 7.041 6.058 0 .088 1.211 2.553 1.211 2.553l.353.737 6.788-7.861s-3.823-.996-3.83-.996c0-.042-5.698-4.876-7.262-6.203.259-.316 1.024-1.184 1.276-1.471.599.13 14.419 3.318 14.419 3.318l5.523-6.332s-4.514-.318-4.58-.318c-.078-.029-11.258-2.886-12.151-3.115zm-5.028.533c0 .981-.346 1.904-1.015 2.669l-1.718 2.077c-.713-.649-6.058-5.496-6.722-6.102l1.507-1.744c.858-1.024 1.81-1.601 2.79-1.731 1.14-.173 2.288.202 3.332 1.096 1.138.996 1.788 2.338 1.824 3.65l.001.086zm42.36-47.559c-1.104-2.494-3.231-4.312-5.972-5.135-1.211-.375-2.669-.287-3.592-.057h-.007c-1.537.434-2.893 1.413-3.47 1.932l-1.862 1.832c-.042.057-.647.779-.866 1.038-.39 0-2.713.029-2.713.029s-.88 3.492-.908 3.65c-.057 0-.332.318-.332.318-2.106 2.206-3.49 2.222-4.139 2.018-1.349-.519-3.657-2.596-2.546-5.669.908-2.538 1.875-3.851 3.542-4.79l.425-.23.022-.592-1.167-2.639-.722.36c-2.042 1.068-3.836 3.679-5.055 7.343-1.638 4.919-.664 11.223 4.369 13.213.801.289 1.977.649 3.124.434 1.384-.289 2.84-1.024 4.125-2.077l.829-.765.368-.302c.029.1 2.3.144 2.3.144h.412s1.125-3.952 1.125-3.966c.044.015 2.713-3 2.713-3 1.031-.967 2.461-1.529 3.376-1.312 1.557.432 2.625 1.371 3.266 2.61.794 1.557.886 3.52.268 5.669-1.299 3.65-3.845 4.775-5.756 5.093l-.664.116-.064.678 1.074 2.741.562-.057c2.25-.217 6.188-2.899 7.861-8.194 1.293-4.028 1.315-7.634.075-10.433m-235.943-120.592c0-.101-7.089-6.087-7.205-6.188l.015-.059c0-.476-.476-3.115-.476-3.115l-.094-.491s-3.187.332-3.577.36c-.309-.259-5.244-4.413-5.942-4.99.548-.664 2.928-3.549 2.943-3.577.022.042 3.83-1.66 3.83-1.66l.823-.36-5.172-4.053-.325.419-15.711 18.737 4.984 4.097s1.197-4.79 1.204-4.79c.029.015 2.308-2.698 3.086-3.621.706.592 5.661 4.659 5.964 4.904.035.39.412 3.635.412 3.635s3.274-.145 3.641-.158c.303.259 7.22 6.073 7.22 6.073 0 .101 1.191 2.669 1.191 2.669l.36.779 6.708-8.021s-3.858-.59-3.88-.59m22.46-37.908c-.151.404-1.377 3.606-1.377 3.606s3.419.98 3.816 1.096c.202.419 4.161 8.424 4.169 8.453-.051.015-.072 2.656-.072 2.656l-.007.908 18.724-9.824-2.834-5.683s-3.108 4.169-3.108 4.183c-.029-.042-6.001 3.115-7.249 3.78-.439-.836-4.133-8.063-4.551-8.885.794-.404 5.106-2.669 5.121-2.669 0 .029 2.669-.332 2.669-.332l.757-.101-2.77-5.554s-2.481 2.654-2.489 2.654c-.015-.029-3.924 2.02-5.056 2.612-.419-.794-3.29-6.332-3.7-7.126.844-.432 7.559-3.924 7.58-3.924 0 .044 4.082-.029 4.082-.029l.873-.029-3.051-5.9-.483.259-18.472 9.707 3.332 2.064c.001.145 3.549 7.026 4.097 8.079m115.781 4.686c.261-.259 3.001-3 3.448-3.448l9.03 4.255-.533 4.76c-.274.245-2.568 2.193-2.568 2.193l9.809 4.588-.765-4.082c.029 0 1.327-9.42 1.342-9.55.088.059 2.748-2.322 2.748-2.322l.375-.332s-2.705-3.433-2.719-3.448c.13-.015.707-12.478.707-12.478l.015-.36-3.852-1.846-.275.245s-9.433 8.727-9.462 8.742c-.015-.072-3.577.476-3.577.476l-.461.072s.022 3.203.022 3.621c-.338.316-7.435 6.692-7.435 6.692.072-.059-2.553 1.586-2.553 1.586l-.836.519 7.444 3.49c-.004.004.082-2.995.097-3.372zm6.621-6.52c.88-.836 5.77-5.395 7.306-6.837-.239 2.092-.989 8.611-1.126 9.765-1.002-.491-5.119-2.423-6.18-2.928zm44.919 48.036c2.366.735 4.834.461 7.155-.779 1.119-.592 2.092-1.674 2.511-2.439.851-1.443 1.081-3.174 1.081-3.707l.044-2.654-.114-1.441 1.862-1.904-1.832-3.115.022-.202-.007-.606c0-2.351.628-3.924 1.788-4.428 1.415-.62 4.624-.548 6.016 2.452 1.169 2.538 1.399 4.211.866 6.174l-.138.476 2.726 1.053.18-.548c.915-2.886-.577-6.65-1.537-8.64-2.257-4.573-7.278-8.309-12.168-6.203-.751.303-1.803.88-2.439 1.803-.785 1.154-1.298 2.683-1.456 4.314l-.072 1.154-.059.592c-.086-.072-1.66 1.443-1.66 1.443l-.302.289s1.932 3.52 1.932 3.534v.116c0 .664.173 3.996.173 3.996-.042 1.5-.721 3.029-1.601 3.577-1.126.721-2.568.937-3.968.577-1.326-.332-3.231-1.327-4.76-4.111-1.701-3.693-.647-6.42.535-8.05l.403-.548-2.864-1.241-.259.318c-1.63 2.005-2.143 6.591.18 11.166 2.036 4.008 4.718 6.634 7.762 7.586m-105.445-49.381c.281-.36 5.294-6.837 6.073-7.847.721 1.068 5.38 8.021 5.395 8.049l-.007.044c0 .346.217 2.207.217 2.207l.05.476 10.337-.015-3.773-3.693c0-.015-5.748-8.554-6.714-9.997.275-.432 1.307-2.077 1.307-2.077l-1.739-1.947c.482-.664 6.974-9.348 6.974-9.348l2.994-3.463-9.297-.015.316.75s.737 1.717.924 2.163c-.325.434-4.883 6.492-5.648 7.501-.713-1.096-4.998-7.644-5.012-7.674v-.057c0-.346-.202-2.207-.202-2.207l-.057-.476-9.636.015 3.073 3.52c0 .015 5.367 8.164 6.282 9.563l-1.32 2.136s1.544 1.485 2.005 1.948c-.519.706-7.472 9.881-7.472 9.881-.007 0-2.654 2.511-2.654 2.511l-1.009.952 9.247-.101c-.004-.001-.565-2.396-.652-2.801m137.481 68.967l3.981 12.247h12.882l-10.429 7.559 3.981 12.232-10.416-7.559-10.407 7.559 3.974-12.232-10.408-7.559h12.875m-257.507-12.247l3.975 12.247h12.866l-10.4 7.559 3.966 12.232-10.408-7.559-10.407 7.559 3.974-12.232-10.407-7.559h12.859" fill="#fff"/><path d="M359.316 411.688h-3.499v9.563h-2.38v-9.563h-3.498v-2.077h9.376l.001 2.077zm15.903 9.563h-2.366v-9.26h-.057l-3.362 9.26h-2.292l-3.246-9.26h-.073v9.26h-2.366v-11.64h4.111l2.713 7.6h.042l2.828-7.6h4.068v11.64h-.001zm-125.469-271.549s-1.586-1.283-2.713-2.077c-.822.072-1.645.173-2.452.274.75.274 3.49 1.356 3.865 1.991m-3.791 1.356s-1.702-1.471-4.154-2.812c-.996.145-1.969.346-2.943.519 1.818.476 3.52 1.557 5.345 2.452m-7.927 2.495l2.95-.937s-3.845-1.89-5.236-1.919c-.7-.332-1.074-.621-1.638-.722-1.327.332-2.639.693-3.952 1.068.851.129 2.625.491 3.274 1.226 1.977-.346 3.347.649 4.602 1.285m-7.63 3.447l2.972-1.053c-.325-.548-4.169-2.222-6.319-2.25-.787-.62-1.616-.809-2.308-.952-1.147.39-2.264.779-3.404 1.211.382.086 2.467.562 3.476 1.428 2.062-.347 4.104.677 5.584 1.616m-13.749 1.283c2.215-.217 4.602 1.125 6.043 2.033l3.174-.807c-1.702-1.529-4.832-2.755-6.622-2.654-.75-1.125-2.351-.549-3.36-.664l-3.924 1.774c.513 0 4.271-.649 4.689.318m-1.536 6.981l2.777-2.106c-2.178-1.169-5.567-1.818-7.35-1.731-.886-.316-.765-.606-1.781-.721l-3.816 2.062c.483.029 3.7.101 4.141 1.038 2.2-.186 4.623.579 6.029 1.457m-16.134 6.161c2.59-.476 6.391-1.515 10.098-.678l2.783-2.467c-4.183-.735-8.626-.519-10.876.072-.548-.836-1.81-1.702-1.81-1.702l-2.654 2.235c1.261.39 1.695 1.457 2.459 2.54m-7.444 8.338c2.149-1.053 6.852-1.803 11.62-1.167l2.459-3.159c-7.227-.519-10.192.403-12.441 1.485-.772-1.298-1.897-2.062-1.897-2.062l-2.2 2.02c1.27.388 1.682 1.831 2.459 2.884m-4.919 6.128c-.75-1.312-2.114-2.639-2.114-2.639l-1.739 2.741c1.594.866 1.443 1.904 2.207 2.987 2.158-1.081 6.556-3.143 11.338-2.481l2.439-3.159c-7.473.173-11.598.822-12.132 2.553m-5.278 9.505c-.757-1.803-2.77-3.966-2.77-3.966l-1.298 3.101c1.154.866 1.868 3.001 2.661 4.082 2.149-1.11 4.913-3.217 9.666-2.524l2.257-3.678c-6.06 0-9.976 1.239-10.517 2.985m-4.449 9.188c-.959-2.395-3.115-4.457-3.115-4.457l-1.283 3.448c1.601.88 1.862 3.016 2.639 4.054 2.141-1.053 5.373-3.044 10.17-2.409l1.983-3.635c-5.835 0-9.875 1.255-10.394 3m-4.4 11.021c-1.082-2.136-3.448-4.804-3.448-4.804l-1.06 3.577c1.586.895 2.329 3.014 3.102 4.111 2.156-1.097 4.782-2.869 9.563-2.207l1.529-3.448c-7.264.448-9.146 1.053-9.686 2.771m-4.378 9.894c-.765-1.312-3.441-4.573-3.441-4.573l-.721 3.577c1.616.893 2.336 3.014 3.13 4.097 2.128-1.082 5.705-3.044 10.471-2.409l1.204-3.564c-7.016.42-10.082 1.113-10.644 2.872m-2.574 11.916c-.765-1.312-4.068-5.885-4.068-5.885l-.75 3.823c1.594 1.471 2.77 4.198 3.549 5.308 2.141-1.097 5.503-4.082 10.249-3.404l.75-3.202c-6.938.533-8.043 1.298-9.73 3.36m-2.907 15.42c.923-1.832 4.435-3.564 9.232-3.174l.592-3.477c-5.69.318-8.251 1.255-9.002 2.886-.836-1.299-5.064-5.683-5.064-5.683l-.555 3.693c2.808 2.439 3.969 4.746 4.797 5.756m-1.622 12.706c.182-.187.412-.836.888-1.428.858-1.024 3.31-2.481 8.591-2.264l.303-3.26c-6.087.059-8.049 1.558-8.561 2.149-.476.434-.664 1.242-.801 1.702-.937-2.494-4.955-6.505-4.955-6.505l-.245 3.564c1.405.636 4.002 4.977 4.781 6.043m8.726 20.411l-.094-3.49c-4.595-2.048-6.946-1.687-8.635-.694-.772-1.326-5.38-3.028-5.38-3.028l.224 3.518c1.862.434 4.132 1.588 4.926 2.669 2.143-1.094 5.187-.995 8.958 1.025m-9.26-10.371c.989-1.658 2.106-2.525 9.225-1.024l.029-3.389c-8.396-.417-8.273.346-8.539 1.43-.715-1.342-5.554-5.481-5.554-5.481l.072 3.924c1.58.949 4.04 3.416 4.768 4.541m1.096 19.055c.419-1.097 1.744-.491 3.477.289 1.551.706 2.689 1.529 4.457 2.494l-.094-3.518c-3.858-2.481-7.653-4.371-8.186-2.656-.757-1.299-4.782-3.13-4.782-3.13l.901 3.909c2.078.549 3.448 1.529 4.227 2.612m.93 8.857c1.825-.231 3.433.476 7.356 3.288l-.289-3.331c-4.003-3.347-5.951-3.159-7.379-3.159-.787-1.428-3.959-3.174-3.959-3.174l.491 3.549c1.689.691 2.988 1.643 3.78 2.827m163.506-30.206c-1.255-.88-3.404-2.106-7.357-6.448l-2.928 1.788c1.327.996 7.293 7.892 10.083 6.853 0 0-1.254 8.539-1.031 12.954l3.196-2.064c-.1-2.322.05-12.102.621-14.395.129-.119-1.791 1.859-2.584 1.311m8.481-5.871c-3.007-4.384-5.012-6.332-6.749-7.53l-2.15 1.602c.908.259 3.332 2.682 6.766 7.788l2.055-1.687c.289 5.67.743 11.065.116 13.645l2.48-1.919c.505-4.154.368-8.971-.223-13.386m-113.784 86.509c-4.018 1.009-7.732-.779-10.487-1.602l-.765 2.351c3.88 2.02 7.631 1.717 10.458 1.096 1.564 2.222 2.884 3.463 6.332 4.76l1.241-1.802c-3.678-.434-5.119-2.323-6.779-4.803m2.827-6.435c-4.031 1.024-8.28-.448-11.065-1.27l-1.16 2.656c4.205 1.441 8.107 1.744 10.955 1.14 1.443 2.395 3.016 4.659 6.477 5.957l1.283-2.266c-2.877-1.182-5.551-2.711-6.49-6.216m4.53-8.483l-.432.678c-4.01 1.024-8.872.145-11.655-.678l-1.421 2.525c3.873 1.197 7.256 1.399 11.561.908l.231-.39c1.564 2.871 1.969 4.588 6.001 6.953l1.977-2.264c-2.556-1.024-5.658-5.122-6.263-7.732m3.968-5.15l-.224.318c-3.865.735-8.438-1.27-11.201-2.077l-1.586 2.38c3.88 2.035 7.674 2.191 11.078 2.191l.202-.287c1.428 3.13 2.799 6.389 6.231 7.703l1.961-2.279c-2.537-1.009-5.847-5.337-6.461-7.949m-7.329-7.37c.353.173.75.346 1.154.533v-1.759m65.23-17.41c-2.077-2.178-2.004-8.627-1.788-12.116l-.952.577c-3.902-.636-8.106-4.514-10.061-7.155l-.237.088v-20.341c0-7.343 10.17-10.155 10.17-10.155s-2.771-1.097-5.409-3.086l-4.125 1.167c-.101.029-9.052 2.625-9.052 8.699v35.903c0 2.437 1.003 4.054 5.878 4.054h2.538c0-.231.015-.461 0-.706v-10.877c2.538 2.222 5.2 4.054 7.22 4.284l.88-.519c.037 4.371-.338 6.953.702 10.011l-2.15-2.005v21.781h-58.667l9.218 8.698h3.996c.592.967 1.277 1.718 2.114 1.948l1.911-1.948h48.531v-23.858l-3.512-3.26m14.35-19.837l-.958.564c-3.902-.636-8.1-4.516-10.061-7.17l-3.635 1.513c3.297 3.435 7.659 7.185 10.616 7.532l.882-.519c.042 5.15-.621 7.775 1.326 11.697l3.622-1.515c-2.095-2.163-2.008-8.626-1.791-12.103m13.616-6.721l-.13-.215c-1.283.447-2.913.057-4.385-1.197-1.456-1.242-6.288-6.968-6.288-6.968l-3.983 2.178c2.308 2.38 9.866 8.381 11.41 8.424l.223-.158c.023 5.064-.612 7.674 1.32 11.555l3.621-1.5c-2.083-2.181-1.989-8.643-1.787-12.119m22.862-19.055c-1.487-2.582-4.516-6.043-6.823-7.63l-2.077 1.832c2.077 1.226 6.332 5.179 7.615 8.28l1.371-1.472c.412 4.933.391 10.473-.187 13.055l2.553-2.02c.419-4.457.145-9.593-.649-13.357m4.587-3.68c.642 1.658 1.14 3.679.642 13.66l2.43-2.264c.073-7.486-.338-9.535-1.138-13.3m4.14-4.485c1.126 3.779 1.832 10.212 1.211 13.934l2.235-2.957c.39-4.213-.937-9.477-1.717-13.243m3.002-4.6l-.873 1.5c2.445 3.13 3.382 6.665 3.656 11.366l1.731-2.654c-.057-4.919-3.303-11.322-4.514-10.212m3.014-5.02l-.475.577.353-.577c-1.299-2.625-2.878-5.453-5.374-7.183l-1.349 1.803c2.042 1.27 4.177 4.327 5.474 7.429l.664-1.097c1.126.98 3.152 2.452 4.472 10.098l1.017-2.654c-1.116-7.286-4.507-10.011-4.781-8.396m2.771-5.742l-.217.62c-1.298-2.582-2.134-4.356-5.047-7.01l-.996 1.601c2.719 2.439 3.924 3.78 5.192 7.343l.636-1.355-.072.202c1.529 1.27 3.26 3.288 4.305 8.872l.785-3.159c-.303-4.04-4.038-8.497-4.586-7.113m-23.947 15.593l-2.062 1.832c2.062 1.226 6.317 5.178 7.589 8.28l1.709-1.818c-1.299-2.612-4.725-6.578-7.236-8.295m6.247-5.927l-1.963 1.572c1.43.952 6.391 5.106 7.659 8.223l1.5-2.064c-1.298-2.639-4.601-5.986-7.196-7.731m10.081 3.851l1.226-1.832c-1.298-2.639-3.468-5.972-5.972-7.703l-1.702 1.803c2.042 1.255 5.143 4.631 6.448 7.732m8.642-16.748l.763-1.586c-1.299-2.654-1.983-3.36-4.891-6.29l-.533 1.616c2.027 1.746 3.391 3.173 4.661 6.26m.563-.794c.908.636 1.802 1.558 2.741 3.044-.275-1.184-.584-2.366-.893-3.534l-1.084-1.211m-1.76-7.732c-.425-.533-1.003-1.169-1.847-2.005l-.447 1.515c1.513 1.645 2.985 3.376 4.169 6.043-.576-1.875-1.211-3.722-1.875-5.553m-65.085 19.661l8.857 8.38h14.452v-47.731l-8.012-7.486v46.838m-43.274 4.067c0 5.654 9.095 9.276 9.188 9.319l3.742 1.471c-2.336-1.818-4.514-4.299-4.514-7.429v-30.494l1.441.086c5.597.476 9.636 1.961 12.493 4.125-4.646-4.645-12.131-7.183-22.352-7.212.001 2.858.001 30.135.001 30.135m-28.958-30.221c-18.652 0-26.261 6.462-26.282 22.503l-.015 3.65h-18.442l8.409 7.891h17.527l.022-2.943c0-16.43 1.601-26.787 19.027-28.518v-2.582h-.246" fill="#004784"/><path d="M265.891 300.298v-35.903c0-5.626 4.782-8.727 8.107-10.285-3.29-1.832-8.107-5.323-8.107-10.559v-33.292l1.564.086s1.422.072 1.349.072c19.604 0 30.841 8.856 30.841 24.335v1.744h9.521v-41.053h-111.144v41.053h12.752l.145-1.673-.252.836c0-17.512 9.015-25.315 29.246-25.315h3.231v33.205c0 5.683-4.133 8.929-7.089 10.631 2.987 1.528 7.089 4.529 7.089 10.214v35.571c0 4.615-3.189 7.371-8.512 7.371h-6.556v15.998h52.874v-15.998h-6.202c-5.885 0-8.859-2.366-8.859-7.038" fill="#CD1141"/></g></svg>