<svg width="512" height="512" viewBox="0 0 512 512" version="1.1" xmlns="http://www.w3.org/2000/svg" xmlns:sketch="http://www.bohemiancoding.com/sketch/ns"><title>toronto-blue-jays</title><desc>Created with Sketch.</desc><g sketch:type="MSLayerGroup" stroke="none" stroke-width="1" fill="none"><path d="M256 82.722c-95.664 0-173.278 77.621-173.278 173.278s77.614 173.278 173.278 173.278c95.671 0 173.278-77.621 173.278-173.278s-77.607-173.278-173.278-173.278z" fill="#fff" sketch:type="MSShapeGroup"/><path d="M256 82.722c-95.664 0-173.278 77.614-173.278 173.271 0 95.657 77.614 173.285 173.278 173.285 95.671 0 173.278-77.629 173.278-173.285 0-95.657-77.607-173.271-173.278-173.271zm0 6.159c92.321 0 167.127 74.777 167.127 167.112 0 92.343-74.806 167.134-167.127 167.134-92.328 0-167.105-74.791-167.105-167.134 0-92.336 74.777-167.112 167.105-167.112z" fill="#003DA5" sketch:type="MSShapeGroup"/><g fill="#DA291C" sketch:type="MSShapeGroup"><path d="M271.602 171.693l-3.769 4.881 4.26-.245 2.505-3.61-2.996-1.025zm-9.307-2.989c-.202.332-4.339 5.451-4.339 5.451l2.13 3.61 3.198-.072-1.48-3.155 3.408-5.126-2.917-.708zm-9.631-2.881s-.751 1.321-1.213 2.065c-.469.736-1.141 1.653-1.704 2.296-.563.65-1.783 1.675-1.783 1.675s.765.852 1.083 1.393c.325.549.7 1.3.953 1.957.253.664.448 1.365.563 2 .123.635.202 1.646.202 1.646l3.567.137s-.094-1.054-.274-1.762c-.173-.715-.534-1.754-.852-2.462-.31-.7-.7-1.321-.989-1.762-.296-.44-.7-.895-.7-.895s.736-.52 1.119-.866c.383-.347.787-.758 1.199-1.271.404-.513.722-1.004 1.032-1.538.303-.534.874-1.682.874-1.682l-3.076-.931zm-9.14-1.805l3.22.657s-1.155 1.632-1.733 2.325c-.578.693-1.112 1.285-1.697 1.834-.585.556-1.805 1.495-1.805 1.495s.801.953 1.141 1.56c.347.599.664 1.278.874 2.043.202.765.26 1.726.31 2.527.072.809-.072 2.18-.072 2.18l-3.386-.116s.159-1.552.116-2.339c-.072-.787-.123-1.689-.31-2.39-.195-.708-.448-1.343-.801-2.014-.354-.664-1.35-1.834-1.35-1.834s1.032-.823 1.523-1.249c.491-.426 1.047-.975 1.531-1.487.484-.513.91-1.032 1.35-1.596.433-.563 1.076-1.596 1.076-1.596h.014zm-10.924-1.422c.318.072 3.747.419 3.747.419s-.888 1.668-1.321 2.39c-.426.722-.592 1.047-.967 1.56-.375.513-.845 1.047-1.177 1.386-.332.339-1.076 1.04-1.076 1.04s.736.715 1.04 1.177c.303.469.57 1.018.758 1.596.195.578.397 1.314.491 2.253.094.939 0 3.567 0 3.567l-3.711-.13s.087-2.072.072-2.845c-.072-.773-.152-1.466-.318-2.152-.166-.679-.657-1.697-.758-1.87-.108-.173-1.285-1.523-1.285-1.523s.866-.816 1.35-1.386c.484-.578.982-1.097 1.386-1.733.404-.635.794-1.235 1.076-1.805.282-.563.693-1.942.693-1.942zm-40.554 24.374c.072.173 2.455-1.48 2.455-1.48-1.061-1.437-1.791-2.455-2.852-3.877 1.112-.96 2.361-1.978 3.343-2.729l3.603 5.083 2.043-1.61-3.141-5.408 3.993-2.772c.592.592 1.798 1.87 2.281 2.78.491.924.592 1.567.708 2.267.116.708.166 1.675.166 1.675l3.235-.664s0-.902-.159-1.733c-.173-.83-.397-1.892-.78-2.52-.375-.621-.845-1.343-1.278-1.935-.426-.578-1.285-1.48-1.365-1.624 1.567-.939 2.823-1.726 4.635-2.729.924-.448 2.101-1.09 2.101-1.09s-.347 1.466-.643 2.101c-.282.635-.917 1.357-.917 1.357s1.141.902 1.646 1.653c.498.751.975 1.935 1.17 2.837.195.902.137 2.26.137 2.26l3.032-.31s.087-1.458 0-2.231c-.072-.773-.217-1.249-.419-1.834-.195-.585-.448-1.09-.78-1.646-.325-.556-1.191-1.682-1.191-1.682s.549-.881.801-1.393c.253-.52.534-1.112.7-1.697l.361-1.321s4.014-1.762 5.899-2.476c0 0-.072 1.148-.274 1.884-.217.736-.52 1.408-.895 2-.375.592-1.3 1.523-1.3 1.523s.686.809 1.083 1.415c.404.606.946 1.466 1.271 2.238.332.765.585 1.617.708 2.332.116.722.072 1.928.072 1.928l3.408.072s.072-1.596 0-2.361c-.072-.758-.123-1.43-.404-2.188-.282-.765-.859-1.646-1.307-2.274-.448-.621-1.328-1.487-1.328-1.487 1.567-2.209 2.91-4.765 3.646-6.621 8.671-2.888 15.638-4.086 24.447-4.549 11.422-.599 23.111.635 33.457 3.754 11.833 3.581 17.992 7.314 17.992 7.314l7.177-2.224s-9.884-6.043-21.068-9.639c-9.783-3.148-20.678-4.953-33.017-4.982-17.667.159-33.233 4.823-46.879 11.509-9.545 4.772-21.371 13.508-34.035 28.591-8.476 10.101-13.126 21.732-15.097 27.017l6.325-.866c1.061-3.307 8.159-16.844 14.425-24.223l.895.931 2.144-2.036-1.076-1.227c.91-1.032 2.058-2.303 2.967-3.285l1.357 2.31 2.224-1.617-1.92-2.404c1.314-1.292 2.325-2.245 3.682-3.523l2.534 3.437zm122.774 123.808l1.884-1.466 2.361 1.726-2.411 7.025-3.148-.101 2.26-6.137-.946-1.047m6.238-6.029l2.729-2.253c.137.693.332 1.379.57 2.043.26.722.585 1.43 1.054 2.043.397.52.895.96 1.415 1.365.412.318.838.606 1.278.874l-3.328 6.455-3.206.18c.484-1.069.982-2.13 1.502-3.177.448-.91.917-1.812 1.393-2.707-.65-.419-1.235-.931-1.733-1.516-.433-.513-.801-1.076-1.097-1.682-.253-.52-.448-1.061-.578-1.624m8.254-3.582l2.65-.563c.159.794.361 1.581.621 2.354.245.744.541 1.466.874 2.173.245.52.513 1.04.866 1.495.267.347.592.657.946.917l-3.364 6.78h-2.578c.433-.924.881-1.841 1.35-2.744.426-.83.874-1.661 1.343-2.469.217-.368.433-.736.657-1.097-.339-.383-.65-.794-.939-1.22-.361-.541-.686-1.112-.967-1.704-.296-.614-.549-1.242-.787-1.884-.245-.671-.469-1.35-.671-2.036m8.482 4.525c-.354-.52-.635-1.09-.823-1.689-.159-.505-.253-1.025-.318-1.545-.079-.592-.123-1.184-.13-1.776l2.448-.072c0 .592.116 1.177.26 1.754.116.44.26.881.505 1.271.253.397.599.729 1.004.96 1.877-3.581 3.617-7.227 5.213-10.938.866-2.007 1.689-4.036 2.469-6.079l5.66.072c-.866 2.801-1.877 5.567-3.018 8.267-1.856 4.39-4.065 8.635-6.534 12.714-3.928 6.491-8.512 12.592-13.696 18.129-4.238 4.52-8.873 8.671-13.855 12.36-5.22 3.87-10.815 7.234-16.685 10.021-5.798 2.751-11.862 4.946-18.086 6.527l4.151-6.736c3.776-1.271 7.473-2.78 11.061-4.52 5.184-2.513 10.137-5.494 14.859-8.801 5.256-3.675 10.231-7.769 14.693-12.375 4.65-4.801 8.714-10.166 12.093-15.934l-1.271-1.596m-184.888-35.76l5.53 1.184 2.152 10.57 1.978 6.447 3.747 9.393 1.292-.159 1.581 1.92-1.061 1.971 1.408 2.534 1.48-2.166 1.884 2.029-1.372 3.502 2.036 3.401 2.159-4.346 1.856 1.639-1.884 5.747 3.819 4.996-.202-3.964 1.61-4.253 2.491 1.913-1.365 2.188v7.068l3.646 3.87 1.487-2.52c-.383-.679-.671-1.408-.852-2.166-.217-.931-.274-1.899-.209-2.859.079-1.235.361-2.462.816-3.61l2.83 1.733c-.303.773-.52 1.581-.643 2.397-.123.801-.159 1.617-.123 2.426.072 1.213.282 2.419.671 3.567l-1.913 3.011 4.707 4.281 2.339-4.527c-.513-1.09-.902-2.245-1.155-3.422-.238-1.105-.354-2.238-.274-3.364.072-.859.238-1.704.52-2.513l2.404 1.588-.397 2.671.116 3.09 1.22 2.765-2.245 5.812 7.805 5.408c6.816 4.318 14.151 7.834 21.79 10.433 4.281 1.458 8.657 2.628 13.09 3.509l2.253 4.953c-5.66-.881-11.249-2.217-16.685-4.007-8.18-2.686-16.035-6.39-23.306-11.003-6.772-4.296-13.046-9.379-18.656-15.104-4.794-4.895-9.112-10.267-12.851-16.014-4.895-7.516-8.794-15.682-11.545-24.216-1.863-5.798-3.198-11.761-3.978-17.804"/><path d="M201.345 321.362l3.04.895s-.144 4.043.094 5.321c.231 1.271.426 1.574.838 2.31.404.736 1.624 1.827 1.624 1.827s-.801.852-1.112 1.35c-.303.505-.549.823-.715 1.639-.173.816 0 3.213 0 3.213h-2.744s-.188-1.848-.13-2.7c.072-.838.332-1.603.57-2.296.245-.679.881-1.762.881-1.762s-1.054-1.162-1.43-1.791c-.383-.628-.599-.664-.895-2-.289-1.336-.072-6.007-.072-6.007h.051zm8.642 2.534l2.975.715s-.072 3.003.245 4.18c.31 1.17.787 1.978 1.336 2.765.556.787 1.892 1.92 1.892 1.92s-.823 1.639-1.025 2.78c-.202 1.141 0 4 0 4l-3.328.072s-.26-2.946 0-4.137c.245-1.184 1.256-2.881 1.256-2.881s-1.112-.686-1.545-1.112c-.433-.426-.708-.773-1.032-1.415-.325-.635-.599-1.278-.773-2.433-.18-1.155 0-4.44 0-4.44v-.014zm9.595 1.531l3.357.39s.159 2.18.513 3.198c.354 1.025.657 1.877 1.386 2.722.729.852 2.173 1.899 2.173 1.899s-.354 1.17-.44 1.856c-.087.686-.144 1.487-.159 2.368 0 .881.123 2.924.123 2.924l-3.242-.159s-.072-1.581-.072-2.332c0-.751 0-1.069.159-1.971.159-.91.91-2.173.91-2.173s-.809-.491-1.466-.946c-.758-.534-1.328-1.343-1.812-2.05-.491-.715-.823-1.177-1.105-2.137-.289-.96-.361-3.588-.361-3.588h.036z"/></g><g sketch:type="MSShapeGroup"><path d="M256.18 92.513c-90.155 0-163.293 73.152-163.293 163.3 0 90.155 73.138 163.307 163.293 163.307s163.315-73.152 163.315-163.307c0-90.148-73.159-163.3-163.315-163.3zm0 6.151c86.82 0 157.127 70.315 157.127 157.149s-70.308 157.156-157.127 157.156c-86.82 0-157.134-70.322-157.134-157.156s70.315-157.149 157.134-157.149zm20.902 83.729c3.227-.744 6.447-1.523 9.653-2.346 3.105-.794 6.202-1.624 9.285-2.491 3.451-.967 6.895-1.964 10.296-3.097 4.715-1.574 9.328-3.451 13.855-5.502 3.834-1.733 7.61-3.596 11.234-5.725 3.018-1.769 5.935-3.74 8.512-6.101 2.137-1.964 4.036-4.188 5.624-6.613.231 1.682.282 3.386.144 5.076-.108 1.35-.339 2.686-.606 4.007-.296 1.473-.65 2.931-1.054 4.375l8.223-3.624c3.581-1.581 7.343-2.902 11.249-3.061l-1.74 1.552c-1.235 1.393-2.419 2.823-3.545 4.303-1.162 1.516-2.267 3.083-3.321 4.679-1.661 2.513-3.198 5.112-4.599 7.776l-3.097 6.866 2.115-1.661c1.22-.729 2.455-1.43 3.697-2.115 1.242-.686 2.505-1.343 3.848-1.812 1.097-.383 2.245-.635 3.401-.751 1.025-.101 2.065-.101 3.09 0-.599.505-1.155 1.061-1.661 1.661-1.011 1.206-1.805 2.592-2.339 4.072-.866 1.892-1.624 3.834-2.267 5.812-.895 2.751-1.56 5.574-2.26 8.382-.671 2.7-1.379 5.393-2.115 8.072l-10.945-18.035-12.981 21.133-12.375-4.902 2.787 28.071-13.956-13.285-4.231 10.115-17.53-2.751v3.321c-2.614-.26-5.22-.549-7.826-.874-3.444-.426-6.881-.917-10.267-1.653-2.895-.628-5.754-1.437-8.599-2.267-3.011-.881-6.007-1.798-8.982-2.794-2.96-.996-5.891-2.072-8.852-3.061-2.05-.686-4.115-1.321-6.187-1.92 2.303-.339 4.621-.592 6.946-.773 1.993-.152 3.993-.245 5.993-.224 2.411 0 4.816.217 7.198.57-3.177-1.141-6.419-2.094-9.704-2.859-3.256-.758-6.556-1.328-9.87-1.754-2.758-.354-5.538-.599-8.317-.7-2.491-.087-4.982-.072-7.473.079-2.383.13-4.765.347-7.097.83-2.123.44-4.195 1.112-6.187 1.964-1.17.498-2.31 1.069-3.415 1.697-2.996 1.328-5.321 4.086-6.122 7.27-.585 2.318-.368 4.83.592 7.018-2.123.072-4.253-.549-6.021-1.726-1.307-.866-2.404-2.029-3.336-3.292-.852-1.155-1.574-2.411-2.079-3.754-.809-2.159-1.018-4.577-.318-6.772.44-1.386 1.227-2.642 2.152-3.769.917-1.126 1.971-2.137 3.011-3.148 2.108-2.05 4.18-4.137 6.512-5.928 2.939-2.26 6.238-4.014 9.66-5.444 4.556-1.899 9.343-3.242 14.223-3.971 6.267-1.018 12.563-1.913 18.866-2.679 6.007-.729 12.028-1.35 18.028-2.115 7.097-.902 14.173-2.007 21.212-3.314" fill="#003DA5"/><path d="M178.682 214.493s-2.91 1.141-4.18 1.964c-1.271.823-2.455 1.877-3.422 2.902-.975 1.025-1.653 2.224-2.166 3.032-.513.809-1.227 2.31-2.224 2.917-.989.606-5.92 1.199-9.523 1.819-3.596.606-8.195 1.473-11.696 2.217-3.487.744-6.281 1.372-9.278 2.144-2.996.78-6.065 1.509-8.88 2.332-2.801.816-5.725 1.769-7.971 2.556-2.238.787-3.733 1.365-5.184 2.036-1.444.679-2.361 1.285-3.162 1.783-.801.498-1.473 1.061-2.079 1.718-.599.664-.953 1.61-.953 1.61l75.08.231s.708-1.004 1.134-1.458c.426-.448.809-.823 1.791-1.357.975-.534 2.195-.953 3.451-1.256 1.256-.296 2.469-.354 3.704-.375 1.235 0 2.513-.072 3.978.303 1.473.354 2.996.96 4.195 1.61 1.191.65 2.231 1.451 3.068 2.108.83.671 1.538 1.545 2.368 2.224.83.679 1.581 1.321 2.556 2 .982.679 2.152 1.538 3.314 2.058 1.162.527 2.202.838 3.408 1.069 1.206.224 2.433.303 3.812.289 1.379 0 3.105-.245 4.512-.671 1.401-.426 2.693-1.134 3.834-1.812 1.141-.671 2.115-1.451 3.011-2.18.902-.729 1.567-1.437 2.404-2.173.838-.736 1.632-1.603 2.628-2.26.996-.664 2.137-1.177 3.213-1.56s2.022-.643 3.184-.773c1.162-.123 41.24-.072 41.24-.072l-.159-6.115s-34.937.072-40.85 0c-1.177-.101-2.072-.325-2.895-.578-.823-.253-1.076-.462-2.022-.967-.946-.513-1.957-1.177-3.011-1.985-1.054-.809-2.245-1.985-3.278-2.881-1.04-.902-1.92-1.791-2.931-2.505-1.018-.715-2.007-1.314-3.119-1.776-1.119-.462-2.318-.801-3.531-.967-1.213-.159-2.455-.108-3.682 0-1.235.116-2.361.238-3.682.686-.902.31-2.137.902-2.888 1.372-1.307.83-2.325 1.754-3.559 2.686-1.126.859-2.202 1.834-3.307 2.657-1.235.924-2.267 1.762-3.711 2.585-1.032.585-2.57 1.415-3.747 1.581-1.487.202-2.245.217-3.386.13-1.126-.079-1.985-.238-3.141-.614-1.155-.368-2.332-.881-3.502-1.624-1.162-.744-2.303-1.74-3.386-2.866-1.076-1.126-2.202-2.462-3.025-3.906-.83-1.444-1.596-3.321-2.022-4.982-.426-1.661-.332-4.917-.332-4.917v.014zm36.28 12.173v7.826h-4.151s.188-2.137.491-3.155c.224-.751.541-1.502.96-2.166.39-.628.881-1.191 1.43-1.682.383-.339 1.271-.845 1.271-.845v.022z" stroke="#000" stroke-width=".213" fill="#041E42"/><path d="M306.626 224.218l12.173 11.472c1.011.758 2.448 1.552 3.451 1.054.679-.433 1.285-1.365 1.105-2.52-.715-7.826-2.469-25.956-2.469-25.956l9.184 3.863 11.956-18.36 11.357 18.483 9.061-3.624s-1.437 17.436-2 25.573c.072.996.224 1.632 1.162 2.166 1.314.498 1.805 0 3.235-.78 4.895-3.971 8.159-7.509 12.324-11.963l3.061 8.267 15.905-2.484-1.076 17.4 5.444 2.296-33.71 29.233 5.307 6.931-27.291-2.224-2.902 4.592-2.657-4.346-28.028 1.812 5.675-6.404-34.186-29.963 5.928-1.689-1.09-17.877 16.064 2.534 3.018-7.487z" fill="#DA291C"/><path d="M108.028 245.568l22.959.809 18.728 1.307 16.613 1.87 11.386 1.675s-.072 1.574.18 2.679c.231 1.105.715 2.65 1.372 3.855.657 1.206 1.588 2.296 2.549 3.3.96.996 1.776 1.653 3.177 2.671 1.393 1.018 3.386 2.274 5.285 3.3 1.899 1.025 3.978 1.834 6.101 2.801 2.123.967 4.642 2.094 6.657 2.989 2.014.888 3.011 1.191 5.415 2.361 2.397 1.17 6.274 3.242 8.895 4.787 2.621 1.552 4.664 2.895 6.844 4.426 2.173 1.523 3.899 2.809 6.224 4.722 2.318 1.92 4.989 4.368 7.653 6.852 2.657 2.469 5.53 4.996 8.274 8.021 2.744 3.025 5.632 6.722 8.086 10.144 2.455 3.422 4.881 7.249 6.657 10.324 1.769 3.076 3.126 5.92 4.108 8.029.982 2.108 1.928 4.541 1.928 4.541s2.18-3.184 3.494-5.314c1.307-2.13 3.393-4.758 4.881-7.386 1.495-2.635 3.769-5.567 5.704-8.101 1.942-2.534 4.39-5.372 6.224-7.588 1.834-2.217 3.213-3.949 4.787-5.725 1.581-1.783 4.086-4.397 4.086-4.397l-13.559-.13s2.058-4.397 3.328-7.068c1.271-2.679 2.881-6.13 4.325-8.714 1.451-2.592 2.736-4.563 4.188-6.909 1.451-2.346 4.585-7.357 4.585-7.357l12.252 10.953-8.707 10.642s4.419-.231 7.913-.39c3.502-.152 8.325-.52 11.646-.758 2.217-.152 8.317-.91 8.317-.91s-5.559 4.837-8.714 7.776c-3.155 2.946-7.61 6.78-10.166 9.899-2.686 3.271-4.31 4.621-7.256 8.021-2.946 3.401-7.112 8.332-10.324 12.447-3.213 4.108-6.021 8.021-8.96 12.194-2.939 4.166-5.776 8.368-8.649 12.815-2.874 4.447-5.538 8.686-8.584 13.877-3.054 5.191-9.646 17.292-9.646 17.292s-3.177-8.296-4.787-12.563c-1.617-4.267-3.018-8.722-4.902-13.054-1.884-4.332-4.245-8.671-6.426-12.895-2.18-4.224-4.484-8.577-6.657-12.44-2.173-3.87-3.689-6.534-6.346-10.765-2.657-4.238-6.52-10.209-9.704-14.563-3.184-4.346-6.57-8.433-9.27-11.574-2.7-3.133-4.303-4.924-6.78-7.335-2.476-2.419-5.379-4.946-8.086-7.097-2.715-2.152-5.437-4.173-8.159-5.848-2.715-1.675-5.603-3.177-8.086-4.231-2.484-1.054-4.534-1.56-6.455-2.152-1.92-.592-3.364-.874-5.234-1.278-1.863-.412-4.577-.989-7.465-1.567-2.881-.585-5.177-1.134-9.588-2.281-4.411-1.155-11.299-2.975-15.617-4.296-4.318-1.321-7.314-2.361-10.332-3.487-3.011-1.119-5.761-2.281-7.776-3.17-2.014-.888-4.354-2.05-4.354-2.05s-2.563-1.581-3.235-2.303c-.671-.729-.996-1.682-.996-1.682z" fill="#041E42"/></g><g fill="#003DA5" sketch:type="MSShapeGroup"><path d="M380.103 389.21v-6.073h-2.167v-1.234h5.805v1.234h-2.161v6.073h-1.477zm4.577 0v-7.307h2.216l1.323 4.968 1.293-4.968h2.216v7.307h-1.354v-5.753l-1.447 5.753h-1.447l-1.431-5.753v5.753h-1.37zm-147.653-251.731c.071 1.219-.031 2.453-.926 3.484l8.048-.471c-.763-.8-.84-1.714-.954-3.321v-.052l-.674-11.825 18.254 14.337-1.536-26.236c-.052-1.065 0-2.198.603-3.099l-7.636.462c.585.686.776 1.545.899 2.872l.723 12.284-18.325-14.337 1.523 25.903zm-92.999 35.152c2.902-3.912 8.658-4.765 12.566-1.865 3.909 2.912 4.761 8.652 1.865 12.57-2.905 3.912-8.658 4.758-12.566 1.859-3.909-2.896-4.761-8.652-1.865-12.564m-1.8 17.495c6.648 4.937 16.093 3.493 21.061-3.204 4.974-6.694 3.607-16.156-3.028-21.077-6.645-4.931-16.103-3.493-21.07 3.198-4.964 6.7-3.607 16.153 3.038 21.083m133.479-72.48l4.263.859-4.01 19.806c-.305 1.514-.859 2.472-1.884 3.072l8.731 1.773c-.619-.926-.951-2.17-.659-3.586l4.01-19.8 4.718.948c1.677.339 2.918 1.287 3.702 2.053l.12-6.944-20.719-4.204-2.551 6.362c1.514-.646 2.684-.619 4.278-.339m-151.752 92.32l1.643-4.023 18.7 7.661c1.508.606 2.265 1.453 2.641 2.484l3.41-8.313c-1.04.44-2.321.526-3.65-.031l-18.706-7.658 1.822-4.444c.649-1.579 1.807-2.632 2.705-3.259l-6.792-1.419-8.008 19.563 5.755 3.696c-.332-1.597-.098-2.742.48-4.257m48.145-64.829c1.997-1.447 3.444-1.693 4.995-.831 1.049.579 1.474 1.918 1.527 2.244.049.24.314 2.351-2.201 4.183l-2.154 1.567-4.164-5.691 1.997-1.471zm-8.602 2.745l13.822 19.227c.339.733.572 1.647.409 2.638l7.063-5.149c-1.354-.12-2.127-.908-3.013-2.001l-5.989-8.233 15.521 5.497 6.651-4.845c-1.086-.058-2.434-.299-3.909-.705l-10.224-3.493.188-.492c1.231-3.136.643-5.448.514-5.876-.305-1.025-.8-2.004-1.474-2.912-.905-1.247-2.001-2.198-3.262-2.838l-.169-.086c-1.016-.468-1.902-.739-2.871-.865-1.502-.169-3.201.086-4.906.751-.342.126-1.991.865-3.287 1.807l-.089.074-7.947 5.774c1.016.222 2.182.634 2.973 1.727zm39.625-19.63c2.905-3.912 8.651-4.755 12.563-1.859 3.906 2.896 4.764 8.646 1.856 12.558-2.896 3.912-8.645 4.771-12.557 1.865-3.906-2.902-4.758-8.652-1.862-12.564m-1.804 17.501c6.648 4.925 16.096 3.487 21.061-3.204 4.974-6.694 3.616-16.156-3.035-21.093-6.648-4.931-16.093-3.49-21.061 3.207-4.964 6.694-3.613 16.159 3.035 21.089m104.679-12.194c2.905-3.912 8.661-4.765 12.579-1.865 3.903 2.902 4.755 8.661 1.853 12.564-2.899 3.912-8.648 4.765-12.566 1.865-3.918-2.896-4.761-8.661-1.865-12.564m-1.791 17.488c6.642 4.943 16.087 3.506 21.058-3.198 4.97-6.694 3.61-16.149-3.025-21.077-6.654-4.931-16.109-3.5-21.079 3.198-4.961 6.7-3.595 16.153 3.047 21.077m-115.207 199.608l.219-.354c1.12-1.751 2.551-2.604 4.749-2.499l-5.426-3.441-14.462 22.804c-2.234 3.509-.579 8.381 3.561 11.013 4.152 2.625 9.184 2.17 11.477-1.4l14.502-22.865-5.417-3.432c1.194 1.933.963 3.432-.252 5.359 0 0-7.694 12.133-11.757 18.541-1.271 1.865-4.232 2.198-6.559.714-2.333-1.465-3.284-4.312-2.164-6.257 1.317-2.078 11.483-18.113 11.529-18.181m16.048 4.175l-14.231 22.438-.539.846c-2.49 3.937-8.519 4.577-13.453 1.44-1.708-1.08-3.041-2.472-3.986-3.992l-.102-.154c-1.69-2.844-1.985-6.15-.388-8.673l.511-.84 14.237-22.444-5.411-3.438c1.046 1.825 1.126 3.152-.243 5.355l-12.102 19.083c-4.093 6.553-2.09 13.37 5.318 18.107 7.239 4.62 14.822 3.804 18.965-2.712l12.095-19.083c1.317-1.998 2.933-2.736 4.709-2.53l-5.383-3.404zm154.753 2.505l-6.777-6.968-7.38-21.951c-.194-.8-.813-2.139.382-5.863l-4.758 4.571 8.374 25.121 10.446 10.868.031-.031 5.017-4.829c-2.161.757-3.786.372-5.331-.926m-34.708-14.639l-.12.126 22.63 8.541-7.7-22.918-5.937 5.716c1.493-.671 2.425-.572 2.844-.446.295.154.862.372 1.594 2.367l3.438 9.292-9.113-3.73c-1.407-.726-1.985-1.647-1.985-1.647-.572-1.025-.08-2.099.2-2.924l-5.851 5.623zm-1.484 1.434l-4.638 4.451c2.585-.862 3.552-.693 5.691-.052l21.738 8.233 6.195 6.488c1.927 1.927 1.859 4.22 1.219 5.909l5.066-4.863-10.467-10.859-24.803-9.307zm-28.379 45.087l-5.463-22.004c-.625-2.721 1.44-5.152 1.44-5.152l-6.211 1.539 6.423 25.863s1.28 3.755-.705 6.833c-1.416 2.154-3.607 3.817-6.611 4.555-2.81.677-6.18.4-8.685-1.293-1.108-.739-1.64-1.2-2.819-2.339l-2.194 3.663c6.537 6.34 14.607 3.57 14.607 3.57 3.004-.769 5.595-2.216 7.491-4.217 2.533-2.647 3.539-6.063 3.019-9.572 0-.092-.206-1.139-.292-1.447m-12.16 6.496c-2.019.585-3.616-.031-3.662-.062-2.268-.769-3.358-4.247-3.358-4.247l-2.631 4.401c1.025 1.2 3.25 2.647 3.25 2.647 2.958 1.816 6.109 1.108 7.1.862 3.872-.954 7.211-4.432 6.149-8.741 0-.031-6.583-26.525-6.583-26.525l-6.208 1.524c1.354.222 3.152 1.674 3.693 3.881l5.408 21.828c.502 2.062-1.139 3.878-3.158 4.432m-136.694-91.255l1.203 2.53c.905 1.902.652 3.74-.923 4.484-1.936.914-3.444-.911-4.023-2.145l-1.2-2.524 4.943-2.345zm2.022 10.686c3.269-1.545 4.37-5.829 2.49-9.726l-2.807-5.925-11.12 5.279 2.813 5.922c1.945 4.106 5.5 5.937 8.624 4.451zm-13.141 3.385c-.397.388-1.139.819-1.72.893-1.603.194-3.136.299-4.958-3.644l-1.111-2.373 6.691-3.17 1.12 2.351c1.499 3.164 1 4.958-.031 5.943m2.89-7.295l-2.721-5.731-12.874 6.11 2.724 5.725c1.505 3.223 4.884 8.261 10.301 5.694 6.078-2.89 3.819-9.141 2.57-11.797m-14.41 6.836l-3.444-7.254 28.595-13.57 3.542 7.455c2.265 4.771.809 10.04-3.299 11.991-2.441 1.151-4.937.745-7.636-1.259l-.302-.228.055.372c.505 3.853-1.339 7.276-4.949 8.981-4.85 2.299-9.544-.126-12.563-6.488zm14.321 10.166c2.945-1.391 5.115-3.77 5.866-7.328 0 0 2.798 1.308 6.894-.625v-.031c6.008-2.85 8.144-10.372 4.897-17.134l-6.297-13.272c0 1.745-.831 3.426-3.022 4.411l-26.394 12.53c-2.487 1.123-4.444.877-6.038-.776l6.469 13.619c5.201 10.945 13.785 10.406 17.626 8.6v.006zm3.979 19.766l26.401-23.512-4.272-4.795c.505 1.619.2 3.324-1.699 5.082l-.215.194c-.052.046-19.411 17.288-21.682 19.314-1.979 1.647-3.758 1.681-5.912.92l16.444 18.461 3.155-1.973h-.031l-12.2-13.69h.012zm12.584 6.07s-3.096-3.478-4.946-5.543c2.518-2.25 16.435-14.675 18.734-16.71h.031l.157-.135s3.195-2.364 5.241-1.111l-4.25-4.789-.031-.031-25.126 22.385 11.246 12.619 5.318-3.306s-3.462-.179-6.248-3.244l-.123-.139-.003.003zm76.134 40.686c-.068 0-9.399-2.247-9.399-2.247l1.687-7.061 6.589 1.551.092.031c3.121.831 3.789 3.17 3.789 3.17l1.243-5.214-14.662-3.487-3.269 13.718 17.983 4.247 2.505-5.786c-1.45.862-3.078 1.785-6.559 1.077m-10.421-14.933l14.828 3.512 1.243-5.251s-1.717 1.905-4.807 1.173l-6.891-1.631 1.308-5.503 8.294 1.973c4.506 1.071 5.592 3.515 5.592 3.515l.394-5.866-17.084-4.054-2.878 12.133zm-2.268-14.084c-6.829 28.741-6.765 28.495-6.808 28.679-.412 1.508-1.597 3.632-4.38 3.94l25.782 6.125 1.465-3.416-19.503-4.617 7.316-30.812 18.451 4.386.24-3.706-24.283-5.774c1.376 1.265 2.207 3.124 1.72 5.195m95.08 15.383l.859 13.235.114-.062 6.383-3.355c-1.493-.215-2.841-1.57-3.21-3.632l-.308-4.654 8.907-4.672 3.869 3.001c.982.813 2.521 2.388.936 4.595l6.435-3.383.135-.074-10.449-8.209-13.671 7.208zm70.162-69.517c-8.116-4.577-13.819.806-16.561 3.404l-.12.108c-2.681 2.518-3.939 3.142-5.198 2.552-.292-.142-.437-.246-.646-.382-1.403-.985-1.536-2.724-.345-4.589.259-.394 2.644-3.85 7.002-1.659l.074.04-1.727-4.789h-.049c-1.634-.049-5.758.345-8.553 4.915-2.379 3.89-1.4 7.842 2.425 9.994 3.595 2.031 6.282-.36 8.645-2.478l.12-.102 1.08-.883.594-.508c2.176-1.859 4.229-3.626 7.254-3.53.225 0 2.244.126 4.136 1.271 1.911 1.16 3.17 2.724 3.709 4.657.736 2.564.323 5.411-1.123 7.996-1.539 2.718-3.986 4.589-6.897 5.263-1.225.292-1.945.372-3.589.446h-.031l1.173 4.041h.031c7.543-.351 11.206-5.866 12.126-7.553.215-.342.277-.542.277-.542 1.508-2.662 2.216-5.506 2.062-8.233-.246-4.029-2.37-7.482-5.86-9.44m-6.675 19.715c2.579-.56 4.57-2.071 5.915-4.484l.148-.259.068-.12c2.102-3.826 1.243-8.101-2.028-9.96-2.545-1.453-4.807-1.487-6.928-.108-1.813 1.2-4.032 3.087-4.05 3.106-3.638 3.216-6.762 5.488-11.067 3.136-2.084-1.123-3.509-2.822-4.109-4.897-.68-2.358-.252-5.057 1.246-7.581.779-1.333 3.77-5.703 9.307-5.577h.031l-1.305-3.61v-.034l-.911.12c-3.823.526-8.101 3.57-10.181 7.261-1.573 2.813-2.299 5.583-2.145 8.236.2 3.549 1.865 6.55 4.798 8.68.419.305.853.591 1.333.853 6.928 3.906 11.32-.031 14.828-3.182l.274-.262c2.872-2.57 4.915-3.835 6.842-2.749 1.191.665 1.764 2.896.751 4.869-.837 1.619-2.077 2.253-2.438 2.41-2.037 1.086-5.291-.311-5.315-.326l-.055-.031 1.413 4.894h.04c1.296.154 3.512-.385 3.546-.391"/><path d="M315.444 368.974l4.09 3.272-3.684 1.939-.406-5.211zm-3.69-7.036l1.197 17.344 12.446-6.556-13.643-10.788zm-5.654-10.754l2.179 39.72c-.04 3.755-.628 5.94-1.619 7.325l5.709-3.016-2.465-36.848 28.992 22.872 5.451-2.869c-2.253-.068-4.389-1.416-6.642-2.918l-31.605-24.266z"/></g></g></svg>