<svg width="512" height="512" viewBox="0 0 512 512" version="1.1" xmlns="http://www.w3.org/2000/svg" xmlns:sketch="http://www.bohemiancoding.com/sketch/ns"><title>washington-nationals</title><desc>Created with Sketch.</desc><g sketch:type="MSLayerGroup" stroke="none" stroke-width="1" fill="none"><path d="M435 257.131c0 63.283-33.761 121.759-88.565 153.4-54.805 31.641-122.326 31.641-177.131 0-54.805-31.641-88.565-90.117-88.565-153.4 0-97.827 79.304-177.131 177.131-177.131s177.131 79.304 177.131 177.131z" fill="#fff" sketch:type="MSShapeGroup"/><g sketch:type="MSShapeGroup"><path d="M427.533 257.135c0 93.71-75.964 169.677-169.671 169.677s-169.671-75.967-169.671-169.677 75.964-169.677 169.671-169.677 169.671 75.967 169.671 169.677z" stroke="#000" stroke-width=".5" fill="#BA122B"/><path d="M385.957 399.95h-.074l-2.155-6.303h-3.188v9.631h1.83v-7.668h.074l2.568 7.668h1.764l2.679-7.668v7.668h1.852v-9.631h-3.203l-2.214 6.303h.066zm-14.428-4.591h2.746v7.919h1.867v-7.919h2.738v-1.727h-7.351v1.727z" fill="#14225A"/></g><path d="M417.952 257.499c0 88.614-71.837 160.451-160.452 160.451s-160.452-71.836-160.452-160.451c0-88.614 71.837-160.451 160.452-160.451s160.452 71.836 160.452 160.451z" stroke="#000" stroke-width=".5" fill="#14225A" sketch:type="MSShapeGroup"/><path d="M370.181 257.108c0 62.029-50.284 112.313-112.313 112.313s-112.313-50.284-112.313-112.313 50.284-112.313 112.313-112.313 112.313 50.284 112.313 112.313z" stroke="#BA122F" stroke-width="8.654" sketch:type="MSShapeGroup"/><path d="M361.195 257.131c0 57.066-46.261 103.326-103.326 103.326-57.066 0-103.326-46.261-103.326-103.326 0-57.066 46.261-103.326 103.326-103.326 57.066 0 103.326 46.261 103.326 103.326z" fill="#fff" sketch:type="MSShapeGroup"/><g sketch:type="MSShapeGroup"><path d="M129.072 283.489l-8.294-5.903-8.253 5.971 3.153-9.59-8.32-5.866 10.243-.023 3.11-9.599 3.177 9.576 10.242-.061-8.279 5.939 3.22 9.555zm280.302.177l-8.294-5.903-8.253 5.971 3.153-9.59-8.32-5.866 10.243-.023 3.11-9.599 3.177 9.576 10.242-.061-8.279 5.939 3.22 9.555z" fill="#BA122B"/><g fill="#fff"><path d="M140.807 215.95l-13.299-14.015 19.264.057.477-1.117-22.586-20.384-2.252 5.252 12.629 11.06-17.967.079-.466 1.078 12.419 12.96-16.782-1.31-2.352 5.519 30.472 1.923.443-1.072v-.028zm31.131-67.277c1.17 0 2.471-.169 4.102-.524l1.994-.423c1.04-.214 2.022-.423 2.869-.423 1.13 0 1.886.378 2.517 1.248.415.559.568 1.173.466 1.818-.153.974-.892 1.99-2.074 2.847-2.017 1.463-4.204 1.667-6.357.585l-.625-.307-2.505 4.805.659.314c1.619.791 3.301 1.193 4.999 1.193 2.426 0 4.761-.802 6.936-2.391 4.812-3.494 5.959-8.198 2.988-12.267-1.75-2.389-3.903-3.508-6.777-3.508-1.165 0-2.494.172-4.295.556l-2.005.425c-1.221.258-2.193.433-2.977.433-1.051 0-1.664-.3-2.261-1.121-.892-1.228-.596-2.566.79-3.574 1.397-1.018 2.698-1.128 4.408-.398l.682.293 1.863-4.914-.625-.267c-3.267-1.393-6.442-.997-9.425 1.176-1.88 1.37-3.13 3.218-3.505 5.214-.375 2.002.131 4.084 1.42 5.861 1.664 2.284 3.812 3.347 6.738 3.347m35.716-4.864l-2.971-7.698 10.76-4.135 2.971 7.699 5.283-2.036-10.209-26.485-5.295 2.036 5.374 13.945-10.76 4.14-5.368-13.949-5.295 2.03 10.214 26.483 5.295-2.03zm34.806-9.421l-4.073-28.082-5.613.81 4.073 28.081 5.613-.809zm20.008-17.589l14.929 18.263 1.329.097 2.221-28.684-5.374-.411-1.284 16.607-14.941-18.258-1.318-.102-2.233 28.682 5.38.417 1.29-16.611zm41.141 25.881c2.295.881 4.442 1.313 6.556 1.313 1.664 0 3.295-.274 4.988-.837l.312-.105 3.937-10.197-11.731-4.512-1.875 4.837 6.755 2.593-1.091 2.798c-1.807.316-3.727.051-5.954-.805-5.209-2.002-7.374-6.832-5.38-12.01 1.471-3.812 4.63-6.178 8.232-6.178 1.057 0 2.119.204 3.17.604 3.596 1.386 4.624 3.357 5.368 5.262l.261.671 5.033-2.074-.239-.64c-1.449-3.864-4.124-6.433-8.425-8.084-1.772-.685-3.602-1.027-5.442-1.027-6.027 0-11.157 3.592-13.39 9.377-2.982 7.738.846 15.91 8.913 19.014m29.208 16.17l13.674-18.739 6.482 4.713 3.062-4.186-17.548-12.766-3.051 4.186 6.482 4.717-13.68 18.739 4.579 3.336zm18.122 10.725c-.386 3.789.767 7.577 3.249 10.668 2.852 3.556 7.005 5.604 11.402 5.604 3.278 0 6.442-1.134 9.124-3.278 3.136-2.507 5.073-6.001 5.471-9.846.375-3.783-.778-7.572-3.255-10.657-2.852-3.563-7.01-5.607-11.402-5.607-3.284 0-6.436 1.135-9.124 3.275-3.136 2.507-5.079 6.007-5.465 9.841m9.101-5.297c1.852-1.48 3.954-2.257 6.079-2.257 2.596 0 4.976 1.185 6.698 3.329 3.193 3.987 2.46 9.319-1.744 12.676-1.846 1.48-3.948 2.263-6.073 2.263-2.596 0-4.971-1.191-6.698-3.341-3.193-3.976-2.466-9.313 1.738-12.67m10.668 41.879l15.514-6.125-9.771 21.133-.119.272.472 1.242 26.825-10.583-1.994-5.002-15.514 6.12 9.89-21.399-.472-1.242-26.825 10.578 1.994 5.008zm-213.993 123.398l-14.02 9.041 5.499-22.925-.716-1.129-24.207 15.625 2.928 4.52 14.019-9.041-5.518 22.936.746 1.1 24.195-15.614-2.926-4.515zm30.904 36.713l7.078 3.755-10.868 20.497 4.999 2.643 10.879-20.492 7.09 3.749 2.431-4.577-19.179-10.152-2.431 4.577zm24.769 36.406l5.448 1.577 7.908-27.258-5.448-1.577-7.908 27.258zm39.505-22.079c-8.283-.38-14.924 5.711-15.299 13.867-.369 8.15 5.772 14.826 13.975 15.194h.727c7.948 0 14.214-5.972 14.566-13.89.369-8.145-5.766-14.814-13.969-15.189m-1.085 23.804c-5.107-.233-8.635-4.293-8.391-9.67.239-5.235 3.852-8.887 8.777-8.887h.46c2.488.113 4.704 1.151 6.221 2.921 1.517 1.764 2.284 4.163 2.164 6.761-.244 5.388-4.056 9.092-9.231 8.87m43.663-28.693l4.141 16.142-19.775-12.319-.25-.159-1.301.329 7.169 27.871 5.221-1.344-4.147-16.136 19.781 12.325.25.159 1.295-.335-7.164-27.865-5.221 1.333zm65.313-12.563l-16.389-16.436-4.022 3.993 20.054 20.112 12.464-12.387-3.664-3.67-8.442 8.388zm26.07-38.42c-1.494-.913-2.931-1.361-4.386-1.361-2.346 0-4.488 1.123-6.976 2.819l-1.693 1.157c-1.704 1.157-2.801 1.781-3.738 1.781-.443 0-.886-.142-1.369-.442-1.301-.794-1.534-2.138-.631-3.596.881-1.429 2.022-2.042 3.795-2.042h.881l-.148-5.258h-.846c-3.465 0-6.192 1.565-8.107 4.651-1.216 1.985-1.665 4.169-1.261 6.154.409 2.002 1.665 3.738 3.539 4.883 1.38.851 2.738 1.265 4.17 1.265 2.068 0 4.147-.822 6.936-2.745l1.682-1.151c1.392-.941 2.596-1.758 3.761-1.758.511 0 1.017.159 1.54.476.591.363.966.879 1.119 1.503.227.97-.068 2.184-.841 3.431-1.312 2.127-3.232 3.125-5.658 2.944l-.699-.057-.489 5.388.727.057h.818c4.056 0 7.521-2.013 9.765-5.655 1.682-2.717 2.272-5.388 1.721-7.742-.466-1.934-1.71-3.567-3.613-4.736"/><path d="M147.311 363.186l4.357 3.806 4.545-2.223 7.851 6.846-1.63 4.793 4.511 3.93 9.697-30.009-.858-.732-28.473 13.589zm18.838 2.274l-.307.907-4.619-4.05.852-.414 6.334-3.102-2.261 6.659zm153.225-1.508l4.039 31.251 4.976-2.944-.699-5.008 8.964-5.309 4.056 3.04 5.153-3.04-25.524-18.58-.966.59zm12.089 14.094l.767.579-5.3 3.114-.131-.941-.977-6.976 5.641 4.225zm-174.381-193.693l-2.369-4.475 6.607-8.037 4.846 1.469 3.801-4.617-30.353-8.739-.704.876 14.503 27.991 3.67-4.469zm-8.726-16.453l6.749 2.047.915.284-3.914 4.736-3.749-7.067z"/></g></g><g sketch:type="MSShapeGroup"><path d="M315.127 184.374c-14.54-11.654-27.721 2.915-27.721 11.248 14.525 3.107 27.522 17.669 21.713 55.501-4.753 30.939-22.983 50.202-34.43 50.586 9.491-13.041 15.883-27.743 19.344-42.106 10.429-42.962-6.251-56.807-19.448-57.442-16.038-.827-32.12 21.056-36.592 46.881-3.55 20.459-3.085 41.36 9.329 56.682-11.004 13.875-37.397 18.178-32.769-15.307 3.882-28.001 17.772-58.903 25.485-74.078l.229-.406c4.118-8.48 7.403-14.48 8.798-16.879l-3.107-.074c-30.009.517-53.944 7.469-65.051 22.702-10.443 14.266-10.746 29.3-2.133 38.172l1.269 1.284c2.531 2.524 5.831 3.838 9.13 3.838 2.989 0 5.986-1.1 8.259-3.38 2.288-2.258 3.417-5.307 3.417-8.303 0-3.306-1.328-6.606-3.845-9.137-1.373-1.321-2.901-2.332-4.532-2.982l.074-.089.775-1.602c2.03-3.535 5.565-6.768 10.141-9.056 3.624-1.808 7.845-3.063 12.436-3.52l-.701 1.513c-6.369 11.846-15.676 34.363-18.636 46.076-9.144 36.71 5.668 58.195 21.684 61.206 19.293 3.609 34.076-5.757 41.906-17.846 9.322 5.934 33.957 9.336 52.482-23.699 21.307-38.031 22.09-94.116 2.517-109.821m-54.527 108.707c-3.646-8.908-5.321-19.396-5.321-29.367 0-12.03 2.406-23.212 6.554-29.788 2.709-4.332 5.986-6.421 9.631-6.177 1.306.074 2.782.524 3.845 3.041.849 2.037 1.225 4.746 1.225 7.882 0 15.683-9.366 42.438-15.934 54.409" fill="#14225A"/><path d="M312.95 187.098c-4.65-3.72-9.454-4.569-13.905-2.406-3.742 1.801-6.569 5.38-7.661 8.436 8.975 3.033 22.621 12.333 22.621 40.954 0 5.225-.465 11.041-1.483 17.588-4.458 29.182-20.68 49.021-33.67 52.837-3.838 1.129-7.307.812-10.148-.745 12.864-15.853 19.034-32.895 21.957-44.999 2.281-9.403 3.203-17.123 3.203-23.44 0-11.277-2.871-18.134-5.912-22.215-4.62-6.155-10.458-7.336-13.558-7.499-13.632-.664-28.725 19.514-32.961 44.024-1.225 7.085-1.875 13.632-1.875 19.617 0 15.381 4.067 27.322 12.178 36.194-6.008 9.44-18.244 15.89-27.935 13.683-4.281-.967-13.248-4.967-13.248-21.44 0-2.34.177-4.893.568-7.727 3.528-25.263 15.093-53.235 23.263-70.129l.199-.362c3.55-7.432 6.598-13.3 8.635-16.879h-.546c-29.182.982-49.538 8.266-58.977 21.16 0 0-7.875 10.089-7.602 20.326.155 5.949 2.244 11.196 6.783 14.872l.59.465c3.543 2.775 8.458 2.716 11.454-.317 3.284-3.306 3.07-8.842-.443-12.377-1.83-1.83-4.17-2.782-6.473-2.812h-.074c2.074-11.713 15.551-20.769 31.847-20.769l2.148.074-.303.59-3.388 6.332c-6.037 11.211-15.359 33.411-18.311 45.242-4.628 18.532-3.284 34.806 3.757 45.803 3.904 6.104 9.307 10.045 15.159 11.152 12.908 2.421 22.326-1.69 27.965-5.557 4.694-3.225 9.292-8.266 12.517-13.602 3.845 2.495 10.318 5.166 15.75 5.093 9.218-.133 22.702-4.716 34.489-25.75 9.831-17.543 15.735-40.017 16.141-61.642.428-20.673-4.354-37.013-12.753-43.766m-41.279 37.19c20.591 1.284-2.62 65.605-11.58 75.893-14.724-26.643-9.226-77.207 11.58-75.893" fill="#BA122B"/></g></g></svg>