<?xml version="1.0" encoding="UTF-8" standalone="no"?>
<svg width="512px" height="512px" viewBox="0 0 512 512" version="1.1" xmlns="http://www.w3.org/2000/svg" xmlns:xlink="http://www.w3.org/1999/xlink" xmlns:sketch="http://www.bohemiancoding.com/sketch/ns">
    <!-- Generator: Sketch 3.3.1 (12002) - http://www.bohemiancoding.com/sketch -->
    <title>arizona-diamondbacks</title>
    <desc>Created with Sketch.</desc>
    <defs></defs>
    <g id="MLB" stroke="none" stroke-width="1" fill="none" fill-rule="evenodd" sketch:type="MSPage">
        <g id="arizona-diamondbacks" sketch:type="MSArtboardGroup">
            <g sketch:type="MSLayerGroup" transform="translate(95.000000, 119.000000)">
                <path d="M224.496212,236.023669 L194.277778,277.590059 L324.312247,277.590059 L262.183081,0 L175.631313,0 L0,277.540888 L138.579672,277.540888 L118.734975,235.826982 L161.531566,164.102012 C162.680556,168.543846 164.880051,177.247219 165.224747,178.591243 C163.041667,182.393846 129.842424,239.678757 129.842424,239.678757 C129.842424,239.678757 178.782828,199.292485 181.031566,197.409213 C181.834217,198.407396 217.255934,241.30142 217.255934,241.30142 C217.255934,241.30142 200.597222,185.804716 199.446591,182.033254 C200.300126,180.67284 205.848106,171.872763 209.378788,166.21803 L224.494571,235.976136 L224.494571,236.023669 L224.496212,236.023669 Z M163.058081,161.545089 L190.356439,115.828615 L198.432197,115.828615 L208.361111,161.545089 L163.058081,161.545089 L163.058081,161.545089 Z" id="path30" fill="#EFE4BC" sketch:type="MSShapeGroup"></path>
                <path d="M85.3535354,173.329882 L139.753283,139.265438 L121.055934,105.802527 L173.67803,80.4660414 L156.705808,50.597574 L197.166667,32.6024083 L178.94697,5.91042604 L10.0142677,271.986136 L102.434091,213.91284 L85.3535354,173.329882 L85.3535354,173.329882 Z" id="path34" fill="#1D0B09" sketch:type="MSShapeGroup"></path>
                <path d="M193.292929,181.213728 C194.72096,178.986254 202.141793,167.216213 202.141793,167.216213 L168.148106,167.216213 C168.148106,167.216213 170.74154,177.230828 171.316035,179.476331 C169.740278,182.164379 150.502904,215.338817 150.502904,215.338817 C150.502904,215.338817 177.930934,192.703491 181.771843,189.490947 C184.480177,192.751024 203.799621,216.158343 203.799621,216.158343 C203.799621,216.158343 194.230177,184.262367 193.278157,181.213728" id="path46" fill="#B91134" sketch:type="MSShapeGroup"></path>
                <path d="M310.048359,266.624793 L252.991162,10.9111775 L188.565657,10.9111775 L204.438131,35.2576746 L164.453283,53.2020296 L181.671717,83.0164083 L129.113636,108.148012 L146.716162,140.725834 L92.2655303,174.952544 L109.058838,216.010828 L27.4608586,266.493669 L119.281566,266.493669 L104.495707,236.122012 L183.790783,105.909065 L208.361111,105.909065 L238.037879,238.664183 L217.356061,266.626432 L310.048359,266.626432 L310.048359,266.624793 Z" id="path50" fill="#B91134" sketch:type="MSShapeGroup"></path>
                <path d="M317.236111,272.08284 L257.784091,5.25808284 L184.872475,5.25808284 L188.565657,10.9357633 L252.991162,10.9357633 L310.048359,266.641183 L217.356061,266.641183 L238.052652,238.695325 L208.35947,105.933651 L183.789141,105.933651 L104.494066,236.138402 L119.306187,266.52645 L27.4608586,266.52645 L18.4642677,272.132012 L129.218687,272.132012 L111.717929,236.023669 L186.875,110.829503 L203.256313,110.829503 L231.618308,237.318521 L206.128788,272.132012 L317.23447,272.132012 L317.23447,272.08284 L317.236111,272.08284 Z" id="path54" fill="#1D0B09" sketch:type="MSShapeGroup"></path>
            </g>
        </g>
    </g>
</svg>