<?xml version="1.0" encoding="UTF-8" standalone="no"?>
<svg width="512px" height="512px" viewBox="0 0 512 512" version="1.1" xmlns="http://www.w3.org/2000/svg" xmlns:xlink="http://www.w3.org/1999/xlink" xmlns:sketch="http://www.bohemiancoding.com/sketch/ns">
    <!-- Generator: Sketch 3.3.1 (12002) - http://www.bohemiancoding.com/sketch -->
    <title>atlanta-braves</title>
    <desc>Created with Sketch.</desc>
    <defs></defs>
    <g id="MLB" stroke="none" stroke-width="1" fill="none" fill-rule="evenodd" sketch:type="MSPage">
        <g id="atlanta-braves" sketch:type="MSArtboardGroup">
            <g sketch:type="MSLayerGroup" transform="translate(11.000000, 168.000000)" id="Shape">
                <path d="M487.886242,143.584621 C487.902608,143.230667 487.93125,142.987195 487.93125,142.586184 C487.93125,141.264483 487.820775,139.635885 487.411608,137.769954 C486.31095,132.63046 483.557258,128.867908 481.527792,126.124253 L479.938179,123.810253 C479.938179,123.826621 479.230321,122.062989 479.230321,122.062989 C478.94595,121.299839 478.614525,120.395517 478.191037,119.403218 C482.534342,115.814575 484.295804,111.841287 485.003663,109.140598 C486.484846,103.366851 484.848179,97.3925977 480.598983,93.184023 C476.380475,88.997954 470.134546,87.0992874 463.082558,87.6046437 C462.863654,78.4448046 458.628779,73.2521149 456.253567,70.5534713 C456.2372,70.1054023 456.2372,69.6327816 456.2372,69.6327816 C456.190146,64.2825517 456.110358,54.3677471 448.164342,46.3802529 C446.449933,44.6575402 446.231029,44.1296782 445.553858,42.4069655 C445.553858,42.4069655 444.735525,40.4796552 444.514575,39.9436092 C444.074721,38.8735632 442.894275,36.3713333 439.1013,33.5376552 L430.113954,26.8411724 L423.992821,36.3713333 C420.611058,41.5967586 420.185525,46.6789655 419.901154,50.0466437 C419.901154,50.0466437 419.759992,51.3765287 419.68225,51.9268966 C419.414246,52.2174253 418.943704,52.6982299 418.943704,52.6982299 L416.04885,55.8613103 L415.733792,56.2541379 C411.609392,61.407954 410.9179,65.7658851 410.9179,76.2249195 C410.9179,76.2249195 410.901533,76.7364138 410.870846,77.2315402 C410.586475,77.5773103 410.226408,78.0356092 410.226408,78.0356092 C406.764858,82.506069 406.638017,87.8869885 406.543908,91.7968506 C406.543908,91.7968506 406.372058,94.9988046 406.372058,95.047908 C396.347475,96.4964598 198.308763,125.050115 193.875442,125.68846 C181.174908,127.388667 175.309504,137.428276 176.242404,146.015241 C177.850429,160.815839 188.292363,165.231057 197.541575,164.435172 C203.402888,163.931862 347.296575,142.467517 398.391263,134.833977 C397.982096,136.863586 397.683404,138.995494 397.683404,141.284943 C397.683404,144.085885 398.153946,147.077103 399.209596,150.137885 C398.405583,152.00177 397.744779,154.039563 397.462454,156.392437 C397.290604,157.779609 397.210817,159.068575 397.210817,160.287977 C397.210817,168.494391 400.721467,173.050782 403.884325,175.491632 C408.9048,179.370805 415.639683,179.669517 423.743229,176.805149 C432.161833,178.364184 441.400817,177.50692 449.756,174.319287 C457.591542,175.812851 465.570292,171.178713 469.537163,168.778782 C469.537163,168.778782 469.631271,168.717402 469.647637,168.709218 C469.819488,168.717402 470.026117,168.717402 470.026117,168.717402 L475.502813,168.559862 L476.398888,168.37777 C480.017967,167.702598 486.738529,166.444322 489.774546,159.629172 C490.670621,157.646621 491.002046,155.686575 491.002046,153.837011 C491,149.131264 488.798683,145.196851 487.886242,143.584621" fill="#0F437C" sketch:type="MSShapeGroup"></path>
                <path d="M483.85595,145.943632 L483.526571,145.346207 C483.526571,145.346207 483.352675,145.141609 483.180825,144.975885 C483.197192,144.889954 483.197192,144.771287 483.197192,144.771287 C483.2422,144.18 483.2913,143.433218 483.2913,142.584138 C483.2913,141.52023 483.211513,140.25377 482.8985,138.797034 C482.002425,134.682575 479.688588,131.535862 477.847337,129.00908 L475.928346,126.19177 L474.889063,123.738644 C474.322367,122.163241 473.581775,120.141816 472.008529,117.913747 C477.847338,114.609494 479.846117,110.503218 480.521242,107.921195 C481.576892,103.829241 480.410767,99.6104368 477.391117,96.6233103 C473.645196,92.916 467.681592,91.5697471 460.899654,92.6786667 C460.584596,92.2551494 460.300225,91.8377701 459.987213,91.4285747 C459.987213,91.4285747 458.757667,89.6035632 458.491708,89.1861839 C458.508075,88.8629195 458.524442,88.5335172 458.524442,88.2184368 C458.524442,80.2002529 454.841942,76.0366897 452.593571,73.4710345 C452.593571,73.4710345 451.949133,72.7017471 451.711817,72.4173563 C451.69545,71.7953793 451.601342,69.6634713 451.601342,69.6634713 C451.568608,64.6978851 451.505188,56.3973563 444.9442,49.8113563 C442.519887,47.3868736 442.0473,46.192023 441.278067,44.2176552 L440.208096,41.6765517 C439.940092,41.1323218 439.312021,39.779931 436.586971,37.560046 L431.458067,33.4046667 L427.853308,39.0065517 C425.130304,43.2314943 424.784558,47.4032414 424.532921,50.4558391 L424.140121,53.492069 C423.935538,54.3431954 423.495683,54.8383218 422.141342,56.160023 L419.669975,58.8361609 L419.307862,59.3005977 C416.396642,62.9362989 415.561942,65.596069 415.561942,76.2249195 C415.561942,78.5552874 415.326671,79.1363448 415.326671,79.1752184 C415.310304,79.1915862 414.696554,79.9629195 414.696554,79.9629195 L413.847533,81.0165977 C411.343433,84.2349195 411.265692,88.3105057 411.171583,91.9073333 L410.952679,95.8008276 C410.701042,97.539908 410.369617,98.609954 410.007504,99.3485517 C405.490304,100.001218 196.426596,130.154828 194.468733,130.428989 C183.523525,131.902092 180.301338,140.43177 180.851667,145.481241 C182.363538,159.418437 192.764554,160.038368 197.167188,159.670092 C203.147158,159.150414 364.624783,135.048805 404.784492,129.035678 C403.620413,132.560897 402.298804,136.675356 402.298804,141.256299 C402.298804,144.198414 402.832767,147.291931 404.297583,150.504115 C403.211246,152.550092 402.345858,154.594023 402.061487,156.987816 C401.920325,158.143793 401.856904,159.230207 401.856904,160.228644 C401.856904,166.524115 404.358958,169.891793 406.656429,171.655425 C412.212913,175.943793 419.702708,173.568414 423.667533,171.921402 C431.803813,173.646161 440.803433,172.574069 448.925392,169.294368 C455.502746,171.702483 463.182804,167.082667 467.178317,164.645908 L468.090758,164.109862 C468.516292,163.850023 468.862038,163.833655 470.388229,163.960506 L474.621058,163.850023 L475.580554,163.667931 C478.933675,163.03777 483.544983,162.166184 485.558083,157.626161 C486.1391,156.359701 486.376417,155.076874 486.376417,153.83292 C486.374371,150.839655 485.036396,148.022345 483.85595,145.943632" fill="#CD1141" sketch:type="MSShapeGroup"></path>
                <path d="M401.412958,41.9834483 C399.856079,38.087908 395.4023,26.9230115 402.280392,17.353977 C404.907242,14.1602069 403.696108,10.7045517 403.256254,9.7368046 C402.8164,8.76905747 401.005838,5.5896092 396.45795,5.6694023 L396.206313,5.6694023 L395.938308,5.69190805 C381.9489,7.07703448 374.207467,23.4448506 366.007767,40.7558621 C365.158746,42.5256322 364.135829,44.4222529 363.159967,46.2881839 C362.781488,46.2165747 362.421421,46.0754023 362.040896,46.0283448 C360.6886,45.8789885 359.414046,46.0365287 358.123125,46.1777011 C358.078117,45.9485517 358.090392,45.7378161 358.029017,45.5086667 C357.730325,44.682092 357.069521,44.0457931 356.486458,43.3767586 C357.61985,43.0923678 359.035567,42.724092 359.035567,42.724092 C362.875596,41.7174713 364.276992,37.736 364.702525,36.0521609 C364.98485,34.9268736 365.126013,33.7934023 365.126013,32.6681149 C365.126013,30.1106437 364.401788,27.6329655 362.969704,25.4601379 C360.704967,22.0290345 356.959046,19.7314023 352.695529,19.1728506 C344.495829,18.0864368 335.590317,24.9486437 331.938504,34.358092 C328.996596,37.7032644 325.627108,40.0868276 322.353775,41.7154253 C321.521121,35.0189425 317.366033,30.1883908 311.259221,29.101977 C304.618446,27.9132644 297.822188,31.5653333 295.06645,37.7564598 C294.955975,37.999931 294.908921,38.2843218 294.798446,38.5441609 C293.462517,36.2465287 291.668321,34.3417241 289.260375,33.3821609 C271.651888,26.3317241 258.243496,47.6242069 246.422671,66.398092 C241.700888,73.8904598 237.253246,80.9634023 232.975408,85.793954 C232.613296,86.1949655 232.447583,86.2808966 232.157075,86.5489195 C232.26755,85.3131494 232.558058,83.8032184 233.419354,81.9454713 C233.509371,81.7265517 249.5753,43.6181839 249.5753,43.6181839 L227.380054,45.836023 C227.380054,45.836023 227.132508,46.4805057 226.966796,46.9306207 C224.945513,45.9076322 222.750333,45.0646897 220.184858,44.7352874 C200.385283,42.2166897 188.183933,59.8202759 183.353721,77.1292414 C183.071396,78.0335632 181.354942,81.4810345 179.759192,84.3208506 C173.329138,95.7537701 167.819708,98.9414023 165.659308,99.1378161 C165.489504,98.524023 165.327883,97.9245517 165.327883,96.9506667 C165.327883,90.8843448 168.312754,78.5368736 171.631096,70.3468276 C172.142554,68.9310115 172.343046,67.6706897 172.343046,66.5863218 C172.343046,63.6830805 170.894596,61.9501379 170.100813,61.2197241 C168.394588,59.63 165.370846,58.5517701 162.003404,60.2908506 C158.243163,62.5414253 154.484967,63.8549425 150.962042,64.706069 C151.000913,64.1475172 151.158442,63.5255402 151.158442,62.9997241 C151.158442,61.4570575 150.962042,60.0637471 150.514004,58.8607126 C148.400658,53.1872184 144.176013,49.4574023 138.92845,48.6165057 C133.637925,47.7735632 128.228742,50.0323218 124.777421,54.5089195 C122.514729,57.4367126 121.362925,60.9291954 121.362925,64.6283218 C121.362925,66.9423218 121.810963,69.334069 122.727496,71.7094483 C123.605158,73.9436552 125.135442,76.0530575 126.960325,78.0192414 C124.930858,82.1828046 122.621113,86.6675862 120.315458,90.7206667 C113.572392,102.611885 107.353058,111.133379 98.8587583,120.100897 C98.5048292,120.471218 98.2450083,120.83131 97.9770042,121.195494 C98.2061375,120.579655 98.4455,119.965862 98.6582667,119.329563 C100.448371,113.954782 101.305575,108.526805 101.305575,103.182713 C101.305575,91.9932644 97.3366583,81.3562299 90.1332792,72.5974023 C101.233971,63.8078851 108.001588,51.0614483 108.001588,37.7073563 C108.001588,35.0782759 107.686529,32.4348736 107.166888,29.8078391 C108.795371,29.2717931 110.419763,28.7377931 112.175088,28.2017471 C118.35555,26.612023 117.848183,21.0571954 117.770442,20.4352184 C117.684517,19.8050575 116.806854,14.330023 110.231546,14.4241379 C106.970488,14.4711954 103.811721,14.683977 100.714329,14.9990575 C94.1840292,6.16248276 82.8726167,-0.769287356 65.7142125,-0.714045977 C47.3221708,-0.313034483 36.3421833,9.46878161 30.3581208,17.6035862 C22.1645583,28.7377931 19.6113583,41.5967586 21.33395,48.5285287 L22.2423,52.1887816 L25.9759458,53.5411724 C28.2611417,54.2572644 30.7018208,53.6987126 32.5021542,52.0476092 C37.9399792,47.6242069 41.244,46.4293563 42.0275542,46.3495632 L42.8336125,46.2697701 C33.5291625,58.8607126 27.8724333,74.5513103 22.4346083,89.7692874 C16.730825,105.703356 11.3441458,120.763793 2.69845417,128.806529 L0,131.325126 L0.6567125,134.999701 C1.3809375,139.146897 1.9149,148.005977 1.53028333,156.938713 C1.48322917,160.06292 2.87644167,162.581517 5.23733333,163.847977 C7.59413333,165.122621 10.3641917,164.854598 12.6371125,163.178943 C27.2443625,152.232966 37.1196,122.365793 45.8205292,96.0115632 C49.431425,85.1146897 52.8868375,74.7027126 56.084475,67.5274713 C55.6712167,69.4322759 55.6568958,71.4373333 56.1008417,73.4055632 C58.1425833,81.172092 64.6421958,85.2476782 72.3079333,83.7295632 C72.3079333,83.7295632 73.03625,83.3981149 73.8791333,83.0134713 C76.22775,86.600069 77.5023042,91.8173103 77.5023042,97.546046 C77.5023042,102.008322 76.7433,106.76931 75.1680083,111.245908 C73.1201292,117.044207 66.6839375,130.48423 51.0292208,130.144598 C47.6310917,130.050483 44.1143042,128.55692 43.4248583,128.194782 C39.4232083,125.850092 35.7939,127.572805 34.1551875,130.177333 C32.467375,132.884161 32.614675,137.017034 36.149875,139.676805 C35.7877625,139.38423 36.35855,139.895724 36.35855,139.895724 C39.7689542,142.972874 47.7743,150.186989 63.6438292,149.567057 C76.9335625,148.994184 89.362,139.605195 96.1398458,125.567747 C96.1214333,125.758023 96.0723333,125.952391 96.0723333,126.126299 C96.0723333,128.196828 97.0481958,129.723126 97.5310125,130.345103 C99.2822458,132.626368 102.948379,134.287701 107.526954,131.437655 C110.096521,129.841793 113.535567,127.574851 117.248754,124.158069 C123.543783,118.376138 129.750842,110.402966 136.772142,99.0887126 C137.099475,98.5608506 140.675592,92.7543678 144.171921,85.4850115 C144.935017,85.4931954 145.734938,85.4522759 146.520538,85.4052184 C144.77135,90.5365287 142.940329,96.7665287 142.940329,102.652805 C142.940329,109.232667 145.233708,115.290805 152.508692,118.57869 C160.683842,122.286 173.989942,119.192483 186.594321,105.672667 C189.552596,109.592759 193.636079,112.142046 198.771121,112.645356 C203.848879,112.817218 209.270338,110.323172 213.378371,107.419931 C216.404158,109.598897 220.553108,111.675563 226.093225,111.086322 C234.200863,110.253609 242.257354,103.958138 250.751654,91.8786897 L255.739396,84.2369655 C260.727138,76.3926897 268.202613,64.7306207 274.039375,58.6008736 C273.615888,59.7568506 273.126933,61.0171724 272.167438,62.6294023 C267.271758,70.8828736 262.615442,79.4452874 262.615442,86.8169425 C262.615442,88.5396552 262.867079,90.2091724 263.448096,91.7886667 C264.739017,95.4018621 267.572496,98.1005057 271.396158,99.3669655 C287.052921,104.584207 303.591438,91.138046 316.244917,63.5255402 C317.832483,63.0692874 319.407775,62.5414253 320.9667,61.8887586 C319.156138,65.7761149 317.992058,69.4670575 317.992058,72.6771954 C317.992058,78.146092 320.228154,82.5285747 323.264171,85.4788736 C331.083346,93.0182989 344.790429,92.5988736 354.972542,85.2272184 C359.348579,87.7048966 364.477483,89.2250575 369.923492,89.3109885 C381.709537,89.4992184 392.096233,84.1101149 398.405583,74.5492644 C404.655604,65.1009425 405.772629,52.9212414 401.412958,41.9834483 L401.412958,41.9834483 Z M48.0341208,39.2541149 C47.9441042,37.733954 47.7477042,29.8896782 52.4244792,24.9793333 C55.4298083,21.8387586 60.1290875,20.3922529 66.3872917,20.6664138 C67.8541542,20.7298391 70.1925417,21.2106437 72.6741375,22.2725057 C63.2326167,26.5056322 54.9981375,32.5085287 48.0791292,40.047954 L48.0341208,39.2541149 L48.0341208,39.2541149 Z M59.5930792,60.9312414 C59.6769583,60.8207586 59.7506083,60.6652644 59.82835,60.5527356 L61.1151792,58.7747816 C65.2232125,53.0542299 70.0370583,46.4048046 84.0080542,39.1968276 C83.961,42.7384138 83.0751542,50.4333333 77.0235792,57.9236552 L76.9458375,58.025954 C76.7371625,58.293977 76.4527917,58.5292644 76.1745583,58.7727356 C70.7756042,56.0822759 65.0513625,56.3809885 60.7878458,59.812092 C60.3643583,60.159908 59.9715583,60.5384138 59.5930792,60.9312414 L59.5930792,60.9312414 Z M384.244325,51.1657931 C383.724683,62.1731494 377.257804,65.8477241 371.2942,67.0528046 C375.353133,60.8534943 378.816729,54.3922989 381.885479,48.6390115 C382.515596,47.4973563 383.143667,46.3331954 383.773783,45.1772184 C383.992688,46.5152874 384.309792,47.7817471 384.309792,49.3244138 C384.309792,49.9136552 384.293425,50.5294943 384.244325,51.1657931 L384.244325,51.1657931 Z M343.5527,71.8526667 C342.087883,72.3723448 340.702854,72.5912644 339.997042,71.9713333 C339.524454,71.5703218 339.319871,70.9237931 339.319871,70.0972184 C339.319871,68.9555632 339.745404,67.4783678 340.578058,65.8804598 C341.175442,64.7081149 342.071517,63.5746437 343.094433,62.5045977 C342.936904,63.5030345 342.464317,64.5178391 342.464317,65.5265057 C342.464317,67.6747816 342.88985,69.7821379 343.5527,71.8526667 L343.5527,71.8526667 Z M352.601421,40.7804138 C352.601421,40.7804138 352.994221,41.2121149 353.215171,41.4494483 C351.813775,41.0709425 350.365325,40.7967816 348.509754,41.4330805 L348.636596,41.4105747 C348.556808,41.4187586 348.4627,41.3696552 348.368592,41.3389655 C348.352225,41.2673563 348.321538,41.1896092 348.321538,41.1098161 C348.321538,39.6387586 349.139871,38.1267816 350.115733,37.3104368 C350.477846,37.019908 350.698796,36.8930575 350.981121,36.7191494 C351.167292,38.718069 352.049046,40.1645747 352.601421,40.7804138 L352.601421,40.7804138 Z M293.761208,58.7665977 C294.250163,57.6883678 294.438379,56.8392874 294.784125,55.8469885 C294.958021,56.1927586 295.021442,56.601954 295.193292,56.9170345 C295.997304,58.3717241 297.222758,59.3415172 298.35615,60.4115632 C293.448196,69.3115632 288.742779,75.0566667 285.831558,76.9205517 C286.838108,73.2541609 289.655221,67.3371954 291.402363,63.7178621 L293.761208,58.7665977 L293.761208,58.7665977 Z M205.209358,90.7308966 C204.953629,90.8413793 204.726542,90.9436782 204.045279,90.6449655 C203.699533,90.4874253 202.703213,87.9933793 203.762954,82.6492874 C205.812879,72.4357701 212.433196,64.1434253 215.667658,64.1434253 C216.076825,64.1434253 216.1382,64.2457241 216.183208,64.3152874 C216.414388,64.6610575 216.618971,65.4242069 216.618971,66.6538391 C216.618971,68.3847356 216.191392,71.0445057 214.773629,74.7272644 C209.710192,87.9442759 206.172946,90.3217011 205.209358,90.7308966 L205.209358,90.7308966 Z" fill="#0F437C" sketch:type="MSShapeGroup"></path>
                <path d="M395.387979,44.5327356 C393.798367,40.5676322 387.802029,26.1823678 397.041012,13.347954 C397.560654,12.7034713 397.527921,12.372023 396.568425,12.3883908 C386.386312,13.3970575 379.794637,26.9455172 371.862942,43.7143448 C370.181267,47.2231954 368.243862,50.9202759 366.183708,54.5805287 C363.366596,52.1949195 354.115337,50.3310345 350.242575,59.5849885 C347.992158,64.9597701 348.968021,70.0828966 351.975396,74.1502989 C351.18775,74.9216322 350.385783,75.6765977 349.598137,76.3231264 C340.187304,83.9096092 327.883662,76.0162299 334.83745,62.6866897 C338.251946,56.1477471 346.67055,51.0164368 349.896829,49.7274713 C351.455754,49.1218621 353.137429,46.9347126 350.588321,47.8144828 C347.50525,48.8927126 343.114892,47.1843218 342.216771,43.9762299 C340.895162,39.3727816 342.971683,34.619977 346.024067,32.0706897 C353.7655,25.634046 358.266333,31.866092 357.464367,35.5713563 C357.024512,36.933977 358.000375,35.9253103 358.393175,34.3683218 C359.5102,29.9469655 356.142758,26.4053793 351.877196,25.8386437 C346.197962,25.100046 339.211442,31.15 337.210617,38.4684598 C330.633262,46.1715632 321.523167,50.4046897 314.299329,51.1535172 C315.463408,47.6917241 316.173312,44.6370805 316.015783,43.0105287 C315.181083,33.2062069 303.931046,33.9448046 301.003458,40.5635402 C298.122925,47.0001839 299.019,56.6551494 307.155279,57.8438621 C301.050512,70.4654943 290.743604,86.3361379 282.953071,84.5806897 C273.685446,82.4631034 282.388421,67.7341149 287.879437,55.8674483 C292.253429,46.4334483 290.428546,41.0586667 286.901529,39.6489885 C268.679292,32.3632644 252.989796,73.162092 237.789254,90.331931 C228.079729,101.286092 222.189775,90.5754023 227.543721,79.0483678 L239.180421,51.4215402 L231.968858,52.1458161 L229.638654,58.1507586 C228.701662,55.7508276 224.992567,52.1396782 219.386983,51.4235862 C203.615654,49.4164828 193.662675,64.5014713 189.622154,78.9951724 C189.069779,80.9613563 186.234254,86.1867816 185.4016,87.6967126 C177.12825,102.419563 168.1675,108.148299 162.120017,105.22869 C154.286521,101.443632 162.703079,74.9584598 165.618392,67.7586667 C166.135987,66.3101149 165.845479,65.8395402 164.914625,66.3101149 C158.093817,70.4102529 149.421529,72.7938161 142.563896,72.4541839 C144.306946,67.6318161 145.235754,63.4375632 144.421512,61.2729195 C139.945229,49.1955172 123.961133,56.7554023 128.791346,69.2113103 C129.824492,71.909954 131.986937,74.4837931 135.045458,76.2924368 C132.342912,82.1377931 128.907958,88.8977011 125.945592,94.1231264 C118.148921,107.853678 111.43245,116.454966 103.525304,124.802552 C101.551075,126.889448 103.269575,126.234736 104.182017,125.67823 C106.919342,123.961655 109.818287,121.979103 112.919771,119.139287 C118.883375,113.645839 124.851071,105.840437 131.285217,95.4632414 C133.766812,91.4654023 137.355204,84.7934713 140.198912,78.2934023 C142.803258,78.8846897 145.757442,79.0401839 149.081921,78.4427586 C150.935446,78.1133563 154.423592,76.5543218 155.824987,75.918023 C156.209604,75.737977 156.324171,76.2331034 156.324171,76.2331034 C155.620404,82.9623218 142.001292,106.480828 155.135542,112.436667 C162.4719,115.757287 176.324237,110.824437 188.429433,93.0571724 C189.298912,100.097379 192.756371,105.314621 199.374642,105.944782 C204.284642,106.110506 211.234337,101.625724 213.3395,98.7449885 C217.294096,102.35 227.150921,114.018207 245.469312,87.934046 C249.863762,81.6692644 261.185404,62.1711034 269.888379,53.3202069 C279.031208,44.0355632 285.970675,52.2726667 277.723921,66.1382529 C271.74395,76.2331034 264.286887,89.9493333 273.396983,92.9773793 C288.425675,97.9654713 302.981779,77.9967356 311.713396,57.7661149 C321.596817,56.2398161 333.46265,47.1434023 336.70325,43.8064138 C336.938521,46.1285977 338.213075,49.306 340.338696,50.3453563 C336.169287,53.4838851 331.746196,56.8515632 329.260508,60.0862529 C314.152029,81.5362759 338.213075,91.4347126 352.863287,78.851954 C353.507725,78.3097701 354.107154,77.695977 354.737271,77.1046897 C358.5773,80.4007586 364.004896,82.4937931 370.033967,82.587908 C390.351137,82.9152644 402.783667,63.1102069 395.387979,44.5327356 L395.387979,44.5327356 Z M132.314271,67.7525287 C127.608854,60.0187356 140.025017,55.2577471 139.769287,63.9142759 C139.734508,65.0313793 138.73205,67.8405057 137.193583,71.4516552 C135.080237,70.6803218 133.369921,69.4772874 132.314271,67.7525287 L132.314271,67.7525287 Z M220.839525,77.1947126 C215.311683,91.6270345 209.166,100.23446 201.467529,96.8033563 C189.589421,91.5247356 202.384062,57.4203448 215.665612,57.4285287 C221.477825,57.4285287 226.095271,63.4805287 220.839525,77.1947126 L220.839525,77.1947126 Z M309.718708,40.1257011 C312.726083,41.2755402 312.726083,44.5245517 310.080821,51.2046667 C308.931062,51.0716782 307.863137,50.8425287 306.934329,50.4578851 C301.834067,48.3791724 304.88645,38.2925057 309.718708,40.1257011 L309.718708,40.1257011 Z M353.024908,60.790069 C356.39235,53.9053563 361.349404,57.4285287 362.828542,60.1374023 C360.453329,63.8897241 357.965596,67.4394943 355.402167,70.4614023 C352.458213,67.9428046 351.230713,64.4728276 353.024908,60.790069 L353.024908,60.790069 Z M390.743937,51.6854713 C389.956292,68.8798621 377.241437,73.245977 370.506554,74.1196092 C366.195983,74.672023 362.165692,74.048 358.972146,72.6567356 C371.922271,57.4633103 379.931708,34.8798161 386.320846,29.4416092 C385.897358,33.7136092 391.609325,40.1563908 390.743937,51.6854713 L390.743937,51.6854713 Z" fill="#CD1141" sketch:type="MSShapeGroup"></path>
                <path d="M99.1472208,25.4908276 C102.59445,24.2550575 106.244217,23.0131494 110.315425,21.7528276 C111.244233,21.5175402 111.964367,21.1308506 110.315425,21.1554023 C106.547,21.2106437 102.203696,21.4704828 97.5617,22.1149655 C92.33255,12.728023 81.7821875,5.96811494 65.7346708,6.02335632 C35.4461083,6.67602299 25.347875,37.5764138 27.6535292,46.8610575 C27.6944458,47.0185977 27.9297167,47.2395632 28.1690792,47.0185977 C33.8258083,42.4151494 38.5639583,39.8822299 41.5324625,39.6448966 C41.0639667,31.4773563 43.8933542,12.9223908 66.6757542,13.9453793 C71.7862458,14.1806667 80.511725,17.0061609 85.9168167,24.5292184 C73.2919792,28.0626207 59.7894792,35.1130575 48.9711125,49.0154713 C29.4927333,74.0705057 25.9207083,116.268782 7.07244583,133.800759 C7.9542,138.874782 8.43087917,148.388575 8.04421667,157.233333 C8.02375833,158.184713 8.53930833,157.924874 8.82367917,157.712092 C30.0880708,141.769839 42.4244458,73.1395862 54.6278417,56.4976092 C60.1127208,49.0052414 65.634425,39.603977 88.6807375,29.6093793 C89.48475,31.6082989 90.0964542,33.8036322 90.4196958,36.2813103 C90.9904833,40.8377011 90.184425,52.1376322 82.0276875,62.2242989 C80.1700708,64.6242299 76.951975,66.6149655 76.0170292,66.4431034 C74.8243083,65.4671724 74.9716083,65.774069 73.6438625,64.8615632 C66.5816458,61.0928736 61.25225,66.6538391 62.4470167,71.8485747 C63.36355,75.3431034 66.21135,78.0724368 71.0865708,77.1210575 C72.582075,76.8223448 75.0923125,74.579954 75.5792208,74.9809655 C92.47985,88.9631724 83.9507708,137.58377 50.8962417,136.86154 C45.88395,136.728552 41.1048833,134.572092 40.2783667,134.083103 C39.4764,133.596161 39.4600333,133.839632 39.9837667,134.23246 C42.6638083,136.562828 49.0549917,143.398437 63.4106042,142.841931 C90.1741958,141.685954 109.329333,96.9752184 80.2294,71.6153333 C98.8362542,61.5593563 105.362463,40.944092 99.1472208,25.4908276" fill="#CD1141" sketch:type="MSShapeGroup"></path>
                <path d="M479.449225,148.597264 C477.906667,146.952299 477.970088,146.015241 478.11125,144.339586 C478.191038,143.197931 478.317879,141.782115 477.906667,139.934598 C477.27655,136.943379 475.482354,134.52708 473.767946,132.182391 L471.503208,128.822897 L470.118179,125.580023 C469.379633,123.558598 468.624721,121.457379 466.200408,118.971517 C465.995825,118.744414 465.807608,118.531632 465.617346,118.318851 L463.573558,115.738874 C470.197967,113.787011 474.588325,110.482759 475.594875,106.564713 C476.177938,104.320276 475.5335,102.088115 473.847733,100.418598 C471.439788,98.0186667 466.134942,96.3737011 458.426242,98.607908 C458.409875,98.5751724 458.379188,98.5444828 458.379188,98.5056092 C457.765438,97.2064138 456.852996,95.8928966 455.909867,94.5937011 C455.813713,94.4545747 455.703238,94.2949885 455.611175,94.1538161 C455.075167,93.3742989 454.352988,92.2735632 453.849713,91.4142529 C453.565342,90.8086437 453.346438,90.250092 453.379171,89.802023 C453.866079,82.7515862 450.954858,79.4309655 448.814917,77.0085287 C447.871788,75.9384828 447.053454,75.0096092 446.801817,74.050046 C446.517446,72.9963678 446.517446,71.470069 446.503125,69.7002989 C446.470392,65.0334253 446.423338,58.6356552 441.388542,53.5923218 C438.225683,50.4046897 437.438038,48.4528276 436.558329,46.2042989 L435.613154,43.9782759 C435.283775,43.1598851 433.960121,42.098023 433.409792,41.6867816 L432.622146,41.1057241 L432.088183,41.9322989 C430.103725,45.0237701 429.835721,48.1561609 429.60045,50.8936782 L429.097175,54.7646667 C428.516158,57.1727816 427.131129,58.5333563 425.649946,59.9737241 L423.651167,62.1301839 L423.242,62.6478161 C421.402796,64.9618161 420.660158,66.2917011 420.660158,76.2290115 C420.660158,80.8795172 419.905246,81.7695172 418.583638,83.3817471 L417.828725,84.3188046 C416.413008,86.1376782 416.333221,89.0081839 416.2698,92.0382759 L415.985429,96.5864828 C415.907688,97.1757241 415.811533,97.719954 415.717425,98.2232644 L415.181417,100.346989 C415.16505,100.363356 415.16505,100.363356 415.16505,100.37154 L415.16505,100.396092 C414.567667,102.276345 413.812754,103.338207 412.947367,104.103402 C412.853258,104.172966 412.757104,104.244575 412.679363,104.283448 C412.098346,104.371425 406.273858,105.204138 396.848704,106.566759 L395.275458,106.771356 C395.242725,106.771356 395.242725,106.804092 395.228404,106.804092 C389.297533,107.653172 382.088017,108.700713 374.015158,109.864874 C374.000838,109.864874 374.000838,109.85669 374.000838,109.85669 L369.751642,110.478667 C324.274813,117.040115 254.231617,127.128828 218.241317,132.313333 C218.163575,132.313333 218.100154,132.268322 218.022413,132.27446 L213.380417,133.021241 C202.042408,134.658023 195.125446,135.648276 195.125446,135.648276 C187.793179,136.632391 185.589817,141.849632 185.91715,144.910414 C186.195383,147.465839 187.038267,155.271241 196.731425,154.430345 C197.75025,154.350552 203.537913,153.540345 212.566175,152.235011 C212.613229,152.235011 212.648008,152.259563 212.699154,152.259563 L217.510954,151.512782 C248.781517,146.978897 308.836954,138.048207 354.188988,131.288299 L354.614521,131.249425 L357.053154,130.864782 C375.653871,128.088391 391.562271,125.717103 401.617542,124.215356 C401.695283,124.231724 401.775071,124.248092 401.836446,124.231724 L408.870021,123.14531 C408.886388,123.14531 408.886388,123.130989 408.902754,123.122805 C410.003413,122.95708 410.932221,122.83023 411.607346,122.721793 C411.388442,125.019425 410.680583,127.452092 409.81315,130.046391 C408.63475,133.516368 407.388838,137.262552 407.388838,141.213333 C407.388838,144.141126 408.160117,147.193724 410.079108,150.364989 C409.985,150.561402 409.827471,150.986966 409.827471,150.986966 C408.096696,153.787908 407.35815,155.590414 407.106513,157.660943 C406.996038,158.595954 406.948983,159.47777 406.948983,160.304345 C406.948983,163.633149 407.877792,166.049448 409.702675,167.448897 C412.392946,169.533747 416.910146,169.187977 423.078333,166.479103 C431.372142,168.682621 441.098033,167.598253 449.342742,163.616782 C453.749467,166.644828 460.752354,162.460805 464.592383,160.130437 L465.535513,159.565747 C467.423817,158.446598 469.123904,158.595954 470.776938,158.722805 L473.671792,158.698253 L474.6497,158.510023 C477.419758,157.990345 480.013875,157.511586 480.942683,155.42469 C481.654633,153.830874 481.18,151.658046 479.449225,148.597264 L479.449225,148.597264 Z M212.054717,150.375218 C203.206487,151.649862 197.562033,152.435517 196.573896,152.523494 C189.585329,153.12092 188.185979,148.658644 187.756354,144.69354 C187.739988,144.574874 187.739988,144.450069 187.739988,144.315034 C187.739988,142.418414 189.043183,138.383747 195.356625,137.546943 L210.356675,135.382299 C211.59645,136.319356 212.645962,138.592437 213.110367,141.467034 C213.687292,145.041356 213.255621,148.525655 212.054717,150.375218 L212.054717,150.375218 Z M346.508929,130.498552 C304.366808,136.775609 252.175554,144.527816 221.747875,148.96554 C222.850579,146.258713 222.854671,142.620966 222.412771,139.940736 C222.011788,137.43646 221.209821,135.398667 220.182813,133.966483 L344.888629,115.988483 C345.817438,119.93108 346.635771,124.360621 346.508929,130.498552 L346.508929,130.498552 Z M355.179171,122.887517 C354.866158,119.818552 354.33015,117.175149 353.749133,114.713839 L361.914054,113.53331 L355.179171,122.887517 L355.179171,122.887517 Z M362.292533,128.145678 L367.771275,120.420069 C367.990179,122.490598 368.117021,124.730943 368.069967,127.282276 C366.179617,127.564621 364.260625,127.84492 362.292533,128.145678 L362.292533,128.145678 Z M376.928425,125.956483 C376.973433,123.423563 376.848638,121.189356 376.629733,119.135195 L382.908396,125.066483 C380.973038,125.35292 378.974258,125.659816 376.928425,125.956483 L376.928425,125.956483 Z M387.959558,117.105586 C387.03075,116.246276 383.223454,112.737425 381.083512,110.763057 L393.485354,108.97692 C391.766854,111.487333 388.681737,116.043724 387.959558,117.105586 L387.959558,117.105586 Z M400.799208,122.392391 C398.675633,122.715655 396.284054,123.061425 393.671525,123.456299 L400.3614,114.541977 C400.674413,116.765954 400.862629,119.331609 400.799208,122.392391 L400.799208,122.392391 Z M472.573179,101.801678 C473.469254,102.697816 473.941842,103.776046 473.941842,104.940207 C473.941842,105.310529 473.894788,105.695172 473.800679,106.073678 C472.951658,109.377931 468.718829,112.305724 462.517908,114.022299 C461.9819,113.298023 461.478625,112.29754 461.053092,111.268414 C460.864875,110.818299 460.707346,110.372276 460.58255,109.961034 C460.58255,109.913977 460.535496,109.897609 460.521175,109.858736 C460.128375,108.78869 459.844004,107.820943 459.686475,107.205103 C459.418471,106.079816 459.246621,105.04046 459.150467,104.121816 C459.089092,103.287057 459.072725,102.50754 459.072725,101.854874 C459.072725,101.854874 459.039992,101.580713 458.978617,101.224713 L458.978617,100.825747 L458.978617,100.754138 L458.978617,100.676391 C458.978617,100.596598 458.945883,100.527034 458.931563,100.455425 C465.871029,98.4483218 470.527346,99.772069 472.573179,101.801678 L472.573179,101.801678 Z M457.436058,105.468069 C457.5138,106.073678 457.624275,106.681333 457.781804,107.317632 C457.781804,107.331954 457.798171,107.348322 457.798171,107.362644 L457.798171,107.403563 C457.814538,107.428115 457.814538,107.450621 457.814538,107.464943 C457.9557,108.072598 458.12755,108.694575 458.317813,109.32269 C457.121,109.298138 456.020342,109.062851 455.013792,108.637287 C455.813712,107.616345 456.615679,106.562667 457.436058,105.468069 L457.436058,105.468069 Z M455.105854,96.7890345 C453.186863,99.504046 450.920079,102.423655 448.260496,105.265517 C446.167608,104.14023 442.736746,101.472276 440.469963,99.3014943 C441.241242,99.1889655 442.012521,99.0723448 442.7838,98.9536782 L455.105854,96.7890345 L455.105854,96.7890345 Z M451.7691,115.941425 C450.668442,115.949609 449.629158,115.90869 448.716717,115.814575 C448.984721,115.538368 449.269092,115.278529 449.551417,115.004368 C450.259275,115.37469 450.997821,115.68977 451.7691,115.941425 L451.7691,115.941425 Z M423.726862,108.622966 C423.555012,106.853195 423.145846,105.263471 422.548463,104.044069 C422.4073,103.75354 422.217037,103.524391 422.045187,103.242046 C424.688404,102.374552 427.472783,101.660506 430.33695,101.06308 C433.972396,104.754023 439.181087,108.866437 442.249837,110.928782 C441.353763,111.661241 440.422908,112.360966 439.465458,113.046368 L437.104567,112.236161 C433.278858,110.896046 428.133587,109.142644 423.726862,108.622966 L423.726862,108.622966 Z M429.50225,118.396598 C426.732192,119.472782 423.75755,120.346414 420.547638,120.898828 C421.537821,119.262046 422.264092,117.672322 422.767367,116.121471 C424.4204,116.366989 426.024333,116.988966 427.566892,117.633448 C428.197008,117.907609 428.841446,118.159264 429.50225,118.396598 L429.50225,118.396598 Z M418.125371,92.0832874 C418.188792,89.3764598 418.235846,86.8189885 419.275129,85.5136552 L419.999354,84.6175172 C421.636021,82.6349655 422.501408,81.3521379 422.501408,76.2290115 C422.501408,66.574046 423.225633,65.6697241 424.674083,63.8672184 L425.099617,63.3168506 L426.938821,61.3649885 C428.448646,59.8693793 430.181467,58.1773563 430.903646,55.2270575 L431.439654,51.0634943 C431.644238,48.7433563 432.004304,46.3577471 433.217483,43.9966897 C433.563229,44.3117701 433.8476,44.6104828 433.908975,44.7516552 C433.941708,44.8068966 434.837783,46.9306207 434.837783,46.9306207 C435.766592,49.2753103 436.631979,51.4870115 440.093529,54.9488046 C444.577996,59.449954 444.608683,65.1377701 444.641417,69.7105287 C444.657783,71.6071494 444.67415,73.243931 445.003529,74.5349425 C445.351321,75.9507586 446.374238,77.0842299 447.442163,78.2954483 C449.299779,80.3966667 451.566563,82.9766437 451.566563,88.2573103 C451.566563,88.6971954 451.566563,89.1698161 451.519508,89.6649425 L451.519508,89.885908 L442.896321,91.3651494 C445.052629,86.1233563 443.526438,79.6089655 441.337396,75.289908 C441.102125,74.8172874 440.54975,74.6454253 440.079208,74.8970805 C439.637308,75.1323678 439.465458,75.7154713 439.700729,76.179908 C441.857038,80.451908 443.334129,87.0154023 440.629538,91.7518391 L439.086979,92.0116782 C431.816088,93.0878621 424.356979,94.2377011 417.857367,96.3777931 L418.125371,92.0832874 L418.125371,92.0832874 Z M411.185904,120.84154 C410.776738,120.904966 410.257096,120.974529 409.676079,121.078874 C409.753821,115.278529 408.982542,111.117011 407.975992,106.890023 L412.051292,106.308966 C412.112667,106.315103 412.161767,106.378529 412.225188,106.378529 C413.342213,106.378529 414.050071,106.826598 414.489925,107.794345 C415.797213,110.652575 414.191233,116.884621 411.185904,120.84154 L411.185904,120.84154 Z M479.261008,154.630851 C478.727046,155.786828 476.601425,156.189885 474.320321,156.623632 L473.330137,156.811862 L470.938558,156.811862 C469.177096,156.662506 467.004421,156.498828 464.627162,157.890092 L463.667667,158.471149 C460.314546,160.500759 453.360758,164.719563 450.024004,161.855195 L449.565738,161.454184 L449.015408,161.714023 C446.008033,163.223954 435.230583,167.866276 423.237908,164.553839 L422.924896,164.476092 L422.626204,164.60908 C417.041079,167.11131 412.963733,167.567563 410.809471,165.91646 C409.093017,164.586575 408.479267,161.894069 408.968221,157.890092 C409.17485,156.134644 409.833608,154.54492 411.392533,152.012 L412.163813,149.925103 L411.8508,149.753241 C407.460442,142.970828 409.536963,136.730598 411.552108,130.694966 C424.582021,130.105724 433.708483,127.247494 441.247379,122.103908 C449.005179,124.061908 459.107504,123.757057 465.795333,121.379632 C467.196729,123.120759 467.808433,124.661379 468.377175,126.251103 L469.887,129.759954 L472.311313,133.348598 C473.898879,135.527563 475.553958,137.772 476.118608,140.351977 C476.292504,141.19492 476.353879,141.927379 476.353879,142.604598 C476.353879,143.169287 476.308871,143.705333 476.276138,144.184092 C476.229083,144.642391 476.19635,145.096598 476.19635,145.546713 C476.19635,146.868414 476.495042,148.206483 478.006913,149.749149 C478.919354,151.430943 479.408308,152.816069 479.408308,153.808368 C479.402171,154.12754 479.357163,154.395563 479.261008,154.630851 L479.261008,154.630851 Z" fill="#0F437C" sketch:type="MSShapeGroup"></path>
                <path d="M430.148733,76.7855172 C430.353317,77.2663218 430.1651,77.8330575 429.678192,78.0601609 C427.787842,78.9808506 426.183908,81.2232414 425.713367,83.6477241 C425.2551,85.9924138 425.854529,88.2654943 427.411408,90.0598161 C427.7592,90.4526437 427.726467,91.050069 427.350033,91.4122069 C426.971554,91.760023 426.388492,91.7272874 426.042746,91.3262759 C424.0767,89.0838851 423.321788,86.2195172 423.886438,83.2610345 C424.483821,80.2391264 426.451913,77.515931 428.890546,76.3292644 C429.361088,76.1103448 429.913463,76.3149425 430.148733,76.7855172" fill="#0F437C" sketch:type="MSShapeGroup"></path>
                <path d="M459.749896,124.479287 C460.253171,124.512023 460.645971,124.949862 460.63165,125.477724 C460.568229,126.674621 462.061688,127.877655 463.794508,129.285287 C466.830525,131.756828 470.999933,135.138828 469.254837,141.370874 C469.113675,141.874184 468.594033,142.158575 468.105079,142.02354 C467.601804,141.874184 467.3338,141.340184 467.474962,140.834828 C468.876358,135.85492 465.7135,133.274943 462.64475,130.795218 C460.598917,129.127747 458.663558,127.554391 458.771987,125.367241 C458.804721,124.847563 459.230254,124.446552 459.749896,124.479287" fill="#0F437C" sketch:type="MSShapeGroup"></path>
                <path d="M469.441008,145.346207 C469.158683,146.604483 468.749517,146.888874 468.418092,146.982989 L466.4991,146.952299 L464.406213,146.83977 C463.098925,146.989126 461.793683,147.557908 460.785088,148.374253 L457.544488,150.96446 L456.789575,151.27954 C455.420913,151.592575 454.066571,151.492322 452.665175,150.956276 C452.178267,150.774184 451.658625,151.019701 451.470408,151.514828 C451.296513,152.009954 451.54815,152.560322 452.035058,152.742414 C453.7822,153.419632 455.465921,153.546483 457.196696,153.143425 L458.659467,152.490759 L461.9328,149.880092 C462.673392,149.272437 463.665621,148.84892 464.60875,148.736391 L466.231096,148.840736 L468.952054,148.816184 C470.684875,148.296506 471.108363,146.399885 471.249525,145.779954 C471.36,145.26846 471.044942,144.756966 470.558033,144.638299 C470.056804,144.521678 469.553529,144.842897 469.441008,145.346207 L469.441008,145.346207 Z" fill="#0F437C" sketch:type="MSShapeGroup"></path>
                <path d="M443.066125,128.184552 C445.097638,131.449931 445.2388,135.66669 443.491658,139.742276 C443.113179,140.59954 443.508025,141.495678 444.860321,142.94423 C444.860321,142.94423 445.332908,143.377977 445.253121,143.801494 C445.175379,144.218874 445.142646,144.572828 444.719158,144.611701 C444.420467,144.636253 443.931513,144.67308 443.522346,144.265931 C442.640592,143.312506 440.768654,141.329954 441.775204,138.968897 C443.301396,135.482552 443.188875,131.91846 441.5072,129.205494 C441.222829,128.763563 441.349671,128.166138 441.775204,127.875609 C442.233471,127.593264 442.800167,127.728299 443.066125,128.184552" fill="#0F437C" sketch:type="MSShapeGroup"></path>
                <path d="M423.759596,131.14508 C425.553792,132.970092 424.956408,135.67692 423.41385,137.413954 L421.132746,139.382184 C419.070546,140.908483 417.843046,141.947839 418.393375,143.866966 C418.534537,144.386644 418.252212,144.906322 417.763258,145.053632 C417.259983,145.194805 416.756708,144.914506 416.6135,144.403011 C415.670371,141.082391 418.092637,139.279885 420.027996,137.831333 L422.057462,136.116805 C422.577104,135.525517 423.663442,133.731195 422.450262,132.503609 C422.08815,132.133287 422.08815,131.535862 422.450262,131.16554 C422.814421,130.772713 423.397483,130.772713 423.759596,131.14508" fill="#0F437C" sketch:type="MSShapeGroup"></path>
                <path d="M419.305817,153.198667 C420.12415,155.418552 422.4073,156.709563 424.481775,156.134644 L427.127037,154.939793 L429.897096,153.673333 C430.997754,153.325517 431.987937,153.656966 432.871737,153.957724 C433.579596,154.193011 434.176979,154.397609 434.680254,154.223701 L435.451533,153.98023 L435.4188,154.012966 C435.451533,153.98023 436.693354,153.526023 437.024779,153.839057 C437.906533,154.673816 436.615612,155.271241 436.992046,155.019586 L435.529275,155.956644 L435.308325,156.018023 C434.207667,156.427218 433.18475,156.081448 432.286629,155.774552 C431.578771,155.539264 430.965021,155.334667 430.431058,155.498345 L427.992425,156.633862 C427.992425,156.633862 424.970729,157.986253 424.956408,157.986253 C421.9654,158.810782 418.7248,157.010322 417.577087,153.886115 C417.386825,153.390989 417.622096,152.838575 418.11105,152.650345 C418.597958,152.468253 419.131921,152.70354 419.305817,153.198667" fill="#0F437C" sketch:type="MSShapeGroup"></path>
                <path d="M436.206446,55.799931 C436.679033,56.0188506 436.883617,56.5876322 436.679033,57.0663908 C435.797279,59.1205517 435.875021,61.9133103 436.86725,64.3541609 C437.638529,66.2262299 438.818975,67.5806667 440.140583,68.0921609 C440.613171,68.2722069 440.864808,68.8225747 440.676592,69.3197471 C440.504742,69.8148736 439.968733,70.0583448 439.498192,69.8864828 C437.671263,69.1785747 436.13075,67.4783678 435.154888,65.1029885 C433.974442,62.1833793 433.911021,58.8157011 434.997358,56.3052874 C435.199896,55.8081149 435.733858,55.5871494 436.206446,55.799931" fill="#0F437C" sketch:type="MSShapeGroup"></path>
                <path d="M441.38445,93.5563908 C441.415138,93.5563908 441.429458,93.5563908 441.445825,93.5482069 C444.782579,92.9814713 451.030554,91.9114253 451.942996,91.7538851 C451.975729,91.8152644 452.020738,91.8868736 452.053471,91.9502989 C452.493325,92.9651034 453.186863,94.0044598 453.958142,95.0826897 C451.660671,95.4673333 442.517842,97.0570575 442.517842,97.0570575 C440.330846,97.3803218 438.141804,97.726092 435.938442,98.080046 C432.759217,98.5915402 431.044808,98.9066207 430.416738,99.1194023 C427.09635,99.8129885 423.837337,100.598644 420.801321,101.660506 C419.794771,100.653885 418.600004,100.023724 417.262029,99.8129885 C417.372504,99.3792414 417.466613,98.9454943 417.560721,98.4831034 C424.088975,96.2018391 431.8345,95.0294943 439.354983,93.9042069 C439.354983,93.9021609 440.171271,93.7671264 441.38445,93.5563908" fill="#EEB210" sketch:type="MSShapeGroup"></path>
                <path d="M464.373479,119.748989 C458.456929,121.637425 450.289963,121.952506 443.381183,120.559195 C443.571446,120.418023 443.79035,120.235931 443.978567,120.078391 C444.246571,119.865609 444.514575,119.671241 444.782579,119.456414 C445.600913,118.795563 446.419246,118.104023 447.08005,117.465678 C450.729817,118.253379 458.080496,117.700966 461.713896,116.395632 C462.438121,117.473862 463.289188,118.560276 464.263004,119.630322 C464.312104,119.679425 464.359158,119.732621 464.373479,119.748989" fill="#EEB210" sketch:type="MSShapeGroup"></path>
                <path d="M397.149442,108.451103 C397.793879,108.37131 398.534471,108.285379 399.068433,108.221954 C399.195275,108.78869 399.508288,110.128805 399.745604,111.078138 C399.806979,111.370713 399.856079,111.691931 399.933821,111.990644 C399.273017,112.847908 391.468163,123.266023 391.042629,123.832759 C390.428879,123.926874 385.944413,124.587724 385.234508,124.681839 C384.653492,124.139655 376.815904,116.718897 376.202154,116.143977 C375.93415,114.586989 375.621138,113.107747 375.289713,111.661241 C376.392417,111.487333 378.153879,111.227494 378.706254,111.149747 C379.303638,111.700115 387.517658,119.253862 387.517658,119.253862 C387.691554,119.433908 387.959558,119.513701 388.227563,119.489149 C388.495567,119.456414 388.730838,119.30092 388.888367,119.079954 C388.888367,119.079954 395.62325,109.173333 396.001729,108.622966" fill="#EEB210" sketch:type="MSShapeGroup"></path>
                <path d="M373.387088,111.882207 L374.283162,116.101011 C374.75575,118.73623 375.087175,121.578092 375.087175,125.015333 L375.087175,126.193816 C374.064258,126.351356 371.263512,126.785103 369.927583,126.997885 C369.927583,126.693034 369.941904,126.35954 369.941904,126.060828 C369.941904,123.00823 369.690267,120.403701 369.299512,117.989448 C369.266779,117.604805 369.15835,116.958276 369.015142,116.236046 C368.904667,115.724552 368.808513,115.221241 368.71645,114.732253 C368.542554,113.96092 368.387071,113.222322 368.245908,112.63308 C368.702129,112.561471 369.346567,112.467356 370.040104,112.365057" fill="#EEB210" sketch:type="MSShapeGroup"></path>
                <path d="M346.729879,115.767517 C348.004433,115.579287 350.774492,115.178276 351.87515,115.012552 C352.70985,118.523448 353.464762,122.386253 353.558871,127.390713 L353.558871,129.444874 C352.535954,129.586046 349.686108,129.98092 348.366546,130.160966 C348.366546,129.823379 348.382912,129.485793 348.382912,129.170713 C348.382912,123.605655 347.595267,119.474828 346.729879,115.767517" fill="#EEB210" sketch:type="MSShapeGroup"></path>
                <path d="M355.416488,129.168667 C355.432854,128.311402 355.432854,127.476644 355.402167,126.674621 L355.402167,125.770299 C355.747913,125.297678 364.025354,113.801333 364.465208,113.181402 C364.890742,113.126161 365.629288,113.04023 366.3842,112.944069 C366.60515,113.983425 367.2189,117.019655 367.362108,117.737793 C366.8752,118.453885 360.168958,127.912437 359.745471,128.501678 C359.397679,128.55692 358.217233,128.745149 357.0552,128.935425 C356.519192,129.011126 355.983183,129.09092 355.416488,129.168667" fill="#EEB210" sketch:type="MSShapeGroup"></path>
                <path d="M402.656825,122.11823 C402.656825,121.827701 402.673192,121.528989 402.673192,121.244598 C402.673192,117.625264 402.3254,114.728161 401.854858,112.227977 C401.871225,112.142046 401.871225,112.062253 401.854858,111.968138 C401.445692,109.946713 401.161321,108.749816 400.958783,107.970299 C402.233338,107.782069 405.017717,107.381057 406.118375,107.223517 C407.06355,111.157931 407.851196,114.99823 407.851196,120.223655 C407.851196,120.585793 407.834829,120.962253 407.818463,121.348943 C406.386379,121.567862 404.671971,121.819517 402.656825,122.11823" fill="#EEB210" sketch:type="MSShapeGroup"></path>
                <path d="M451.566563,112.809034 C451.677038,112.682184 451.785467,112.551241 451.912308,112.418253 C452.605846,111.630552 453.471233,110.623931 453.8804,110.165632 C455.406592,110.889908 457.121,111.29092 458.96225,111.221356 C459.181154,111.77377 459.432792,112.330276 459.686475,112.897011 C459.891058,113.34508 460.112008,113.770644 460.347279,114.188023 C460.380013,114.249402 460.425021,114.321011 460.457754,114.392621 C460.490488,114.43354 460.504808,114.486736 460.521175,114.525609 C457.73475,115.020736 454.162725,114.942989 450.9835,113.469885 C451.063288,113.37577 451.282192,113.124115 451.566563,112.809034" fill="#EEB210" sketch:type="MSShapeGroup"></path>
                <path d="M432.288675,117.183333 C430.981387,116.970552 429.661825,116.45292 428.260429,115.861632 C426.701504,115.208966 425.064837,114.640184 423.319742,114.341471 C423.618433,113.01977 423.759596,111.769678 423.775963,110.564598 C427.945371,111.108828 432.824683,112.768115 436.490817,114.050943 C436.490817,114.050943 437.026825,114.222805 437.466679,114.372161 C435.862746,115.378782 434.162658,116.307655 432.384829,117.156736 C432.366417,117.169011 432.319363,117.183333 432.288675,117.183333" fill="#EEB210" sketch:type="MSShapeGroup"></path>
                <path d="M443.759662,109.63777 C441.177821,107.970299 436.331242,104.185241 432.603733,100.604782 C433.579596,100.424736 434.553412,100.259011 435.531321,100.093287 C436.333287,99.9602989 437.212996,99.8252644 438.235912,99.677954 C440.204004,101.809862 444.105408,104.997494 446.877512,106.626092 C445.915971,107.571333 444.312038,109.142644 444.312038,109.142644 C444.312038,109.142644 444.105408,109.324736 443.902871,109.527287 C443.853771,109.560023 443.808763,109.598897 443.759662,109.63777" fill="#EEB210" sketch:type="MSShapeGroup"></path>
                <path d="M416.678967,101.707563 C417.984208,101.848736 419.164654,102.462529 420.060729,103.579632 L420.107783,103.641011 C420.390108,104.013379 420.658113,104.428713 420.895429,104.901333 C421.554188,106.261908 421.932667,108.000989 421.949033,109.961034 L421.949033,110.118575 C421.949033,110.881724 421.871292,111.667379 421.74445,112.493954 C421.74445,112.596253 421.711717,112.698552 421.697396,112.792667 C421.226854,115.452437 420.093463,118.355678 418.092638,121.218 C417.701883,121.265057 417.290671,121.338713 416.881504,121.37554 C416.818083,121.37554 416.754662,121.383724 416.676921,121.383724 C415.684692,121.477839 414.661775,121.510575 413.624538,121.541264 L413.624538,120.477356 L413.591804,120.48554 C415.447375,117.48 416.801717,113.631517 416.801717,110.368184 C416.801717,109.109908 416.611454,107.943701 416.1716,106.975954 C415.793121,106.173931 415.259158,105.568322 414.612675,105.136621 C415.465788,104.248667 416.142958,103.129517 416.678967,101.707563" fill="#EEB210" sketch:type="MSShapeGroup"></path>
                <path d="M412.775517,126.760552 C413.090575,125.676184 413.342213,124.595908 413.485421,123.534046 L413.485421,123.480851 C414.790663,123.448115 417.292717,123.354 418.851642,123.055287 C418.89665,123.055287 418.929383,122.993908 418.978483,122.97754 C424.046013,122.31669 428.575488,120.962253 432.6201,119.11269 C433.894654,118.742368 437.941313,116.514299 440.142629,114.863195 C440.142629,114.863195 440.142629,114.855011 440.158996,114.84069 C441.623813,113.825885 443.008842,112.739471 444.314083,111.630552 C444.375458,111.589632 444.455246,111.589632 444.5023,111.542575 L445.541583,110.574828 L445.619325,110.480713 C449.931942,106.607678 453.379171,102.374552 456.179917,98.4810575 C456.478608,98.9373103 456.7773,99.4406207 456.951196,99.9746207 C457.045304,100.250828 457.123046,100.527034 457.123046,100.77869 L457.123046,102.714184 C457.090313,102.767379 457.045304,102.841034 457.045304,102.841034 C445.384054,118.979701 435.044413,127.476644 412.2436,128.706276 C412.429771,128.096575 412.617988,127.445954 412.775517,126.760552" fill="#EEB210" sketch:type="MSShapeGroup"></path>
                <path d="M217.834196,134.234506 C219.069879,135.171563 220.119392,137.397586 220.591979,140.25377 C220.761783,141.332 220.847708,142.418414 220.847708,143.433218 C220.847708,145.880207 220.323975,147.989609 219.440175,149.278575 C218.822333,149.380874 215.945892,149.822805 214.094413,150.096966 C214.789996,148.429494 215.219621,146.532874 215.219621,144.572828 C215.219621,143.369793 215.109146,142.189264 214.939342,141.149908 C214.513808,138.481954 213.558404,136.54646 212.410692,135.099954 C214.2233,134.819655 217.197942,134.338851 217.834196,134.234506" fill="#EEB210" sketch:type="MSShapeGroup"></path>
            </g>
        </g>
    </g>
</svg>