<?xml version="1.0" encoding="UTF-8" standalone="no"?>
<svg width="512px" height="512px" viewBox="0 0 512 512" version="1.1" xmlns="http://www.w3.org/2000/svg" xmlns:xlink="http://www.w3.org/1999/xlink" xmlns:sketch="http://www.bohemiancoding.com/sketch/ns">
    <!-- Generator: Sketch 3.3.1 (12002) - http://www.bohemiancoding.com/sketch -->
    <title>baltimore-orioles</title>
    <desc>Created with Sketch.</desc>
    <defs></defs>
    <g id="MLB" stroke="none" stroke-width="1" fill="none" fill-rule="evenodd" sketch:type="MSPage">
        <g id="baltimore-orioles" sketch:type="MSArtboardGroup">
            <g sketch:type="MSLayerGroup" transform="translate(56.000000, 95.000000)" id="Shape">
                <path d="M228.02886,0.519231183 C231.701232,-0.0515179211 235.553491,-0.578853047 239.181902,0.546437276 C242.7276,1.76029211 245.592501,4.29219534 248.171663,6.90687455 C254.658613,8.4558853 262.134078,7.17083154 267.793891,11.328733 C261.832144,13.8988405 255.510043,15.7500125 250.005246,19.2648082 C249.429142,25.3844427 244.303209,29.5093495 240.965741,34.2327903 C239.439876,36.0121846 239.747016,38.4780986 239.528374,40.658638 C239.604725,45.239681 240.252553,49.8479301 239.665459,54.4289731 C239.24842,58.4716828 237.870052,62.3222133 236.620092,66.1663763 C234.324932,73.0211541 230.54324,79.4585789 225.131568,84.3087885 C216.185188,92.2830681 204.412662,96.1017616 192.837954,98.2979301 C187.278207,99.4075914 181.630541,99.9129301 176.005433,100.539249 C173.085004,100.769054 170.126978,102.384633 168.683249,104.971527 C168.205476,106.69072 169.962129,107.459437 171.147306,108.18995 C177.843643,111.995909 185.03337,115.143711 190.900256,120.241091 C192.129393,121.476943 193.792342,122.734211 193.85886,124.629955 C193.897036,125.926586 194.363819,127.184434 194.319859,128.479907 C193.024783,131.281556 190.883482,133.80767 187.9752,134.983321 C186.909755,137.070086 185.861085,139.169007 184.917686,141.316552 L186.404797,142.085848 C181.261511,155.048683 176.712259,168.230903 172.200604,181.417754 C169.461799,189.684355 166.690601,197.939957 164.346276,206.327538 C163.912463,208.007369 163.303968,209.820916 163.917669,211.540109 C165.706714,213.182315 168.435108,211.709713 170.124665,210.54564 C173.083269,208.167711 175.86025,205.404846 177.847114,202.147061 C176.749278,191.578941 178.313318,180.676823 182.692515,170.960774 C184.109637,167.93974 185.069232,164.721317 186.606665,161.755274 C187.457517,159.997876 188.598734,158.322097 188.829522,156.334315 C189.339686,152.434582 190.980656,148.837011 192.715329,145.354631 C197.649807,133.11652 213.741954,126.580111 225.61339,132.688747 C230.915741,135.060887 234.658679,139.912254 236.717266,145.239439 C238.473919,149.227158 239.477473,153.506618 240.026391,157.817337 C241.321468,156.856441 243.248176,156.180341 243.472023,154.356953 C245.601755,145.903384 248.155468,137.527959 251.722567,129.55831 C256.463275,117.512957 262.357925,105.780763 270.4656,95.6247867 C274.927511,90.1812527 280.261675,84.8262832 287.216564,82.8599194 C290.640216,82.4147814 294.636501,82.0582079 297.467853,84.4529229 C301.316063,87.6493495 302.924063,92.9007043 302.594365,97.7833297 C302.193522,108.10428 298.493965,117.913523 294.482063,127.311781 C290.080308,137.561532 283.674915,146.90943 275.909663,154.895866 C272.402719,158.72903 268.346858,162.003023 264.503853,165.479036 C263.658786,169.197009 263.286285,173.097321 263.774469,176.893439 C263.921965,178.426242 265.250012,180.073658 266.941304,179.480912 C271.507329,178.244482 274.943706,174.718109 278.071787,171.357867 C280.218872,168.847382 282.495522,166.408095 284.289773,163.623233 C284.564521,158.422238 285.337865,153.232242 286.969001,148.27205 C288.27044,143.98217 290.316302,139.984032 291.887283,135.797767 C295.683436,126.548853 301.650967,117.666932 310.531407,112.663326 C314.324089,110.652391 318.736835,108.994556 323.072072,110.010443 C328.681563,111.048905 333.423427,115.475394 335.196276,120.847729 C336.502921,124.494504 336.179586,128.460226 335.921612,132.249977 C334.093813,141.033493 330.591496,149.628882 324.659249,156.462242 C321.678086,160.125224 317.831033,162.88809 314.17023,165.80493 C318.862351,166.090305 322.600083,162.734694 325.311704,159.296306 C329.571168,153.907763 332.584144,147.695513 335.7504,141.637237 C338.616458,135.924536 341.509122,130.229201 344.154803,124.407097 C346.908647,118.29383 349.505741,112.048584 353.209925,106.429658 C354.263223,105.001627 355.306109,103.161453 357.254219,102.92586 C363.714561,101.514038 370.047652,99.503681 376.562365,98.3500269 C375.618967,102.540923 373.632104,107.055977 375.585997,111.274079 C379.833894,120.018233 385.190616,128.482801 386.974455,138.182063 C392.644101,140.330186 398.049988,144.141934 400.640719,149.788645 C402.940506,154.698477 402.419353,160.383971 401.144521,165.503348 C399.240371,175.389579 392.083036,183.359806 384.037252,188.951527 C379.569557,192.092962 374.591698,194.395061 369.536909,196.415837 C346.941617,205.698903 324.224279,214.696016 301.589076,223.885887 C257.533347,241.80081 213.537194,259.861604 169.678705,278.262185 C160.370236,282.112136 151.155471,286.182631 142.083574,290.572073 C124.036955,299.195247 105.310696,308.00597 91.5507281,322.977425 C86.9459482,319.70922 82.1323597,316.644772 76.8034014,314.705615 C65.7550532,310.575498 53.8564317,309.641808 42.1874417,308.883511 C40.5129237,308.619554 38.1911568,309.366274 37.3079137,307.449692 C35.9416921,305.236737 33.9872201,303.307998 32.9553237,300.950909 C33.586377,298.853724 34.5696863,296.869995 35.376,294.837063 C35.6773554,293.645204 37.0389496,293.513226 37.9881324,293.090663 C139.711485,256.515833 241.626872,220.46776 343.328823,183.831572 C351.463105,180.855109 359.674317,178.065038 367.698699,174.780625 C373.603761,172.324552 379.300593,169.148964 383.977096,164.734631 C386.446938,162.746271 383.675163,159.709029 382.028987,158.154229 C378.906691,166.23386 371.881235,172.780688 363.351315,174.675853 C357.730835,176.296642 351.315609,175.109414 346.863531,171.237466 C344.246193,169.084711 342.988714,165.844871 342.001355,162.702278 C337.736685,170.539369 332.506058,178.04362 325.579511,183.755163 C320.453577,187.979054 313.954481,190.879686 307.208978,190.538742 C300.59015,190.604731 294.080642,187.659527 289.870921,182.536099 C284.207637,190.664353 277.055508,197.789455 268.751171,203.205204 C263.839252,206.269652 258.262153,209.059724 252.307347,208.593747 C246.578124,208.373783 241.681822,204.155681 239.536472,199.009099 C237.017465,192.990185 238.483174,186.321219 238.421862,180.010563 C237.192725,185.080158 235.715447,190.11097 233.438219,194.818203 C231.560676,199.958996 229.210567,204.941763 226.181974,209.511229 C221.117353,217.816613 212.598423,224.198468 202.934227,225.878878 C198.77425,226.401004 194.338368,226.318806 190.519079,224.384858 C187.845056,223.160005 185.694501,221.105656 183.735401,218.969109 C178.037991,227.142514 170.705396,234.404226 161.72084,238.874129 C156.331727,241.489966 149.838414,242.938256 144.10225,240.577115 C141.857991,239.709993 140.276599,237.830457 138.845016,235.979285 C134.700656,241.110238 129.778325,245.586509 124.416397,249.415043 C121.057528,251.831754 117.083801,253.638934 112.885071,253.694504 C110.146265,253.749495 107.210219,253.936464 104.734593,252.524642 C100.910098,250.66305 98.4338935,246.796312 97.5014849,242.731606 C95.9704144,236.679118 96.8368835,230.356885 98.269623,224.375597 C99.7954878,217.888391 102.139235,211.630989 104.817885,205.547244 C107.166837,199.384195 110.081482,193.45153 113.429361,187.778192 C112.173039,187.652002 110.92655,187.503815 109.681217,187.338263 C106.004219,192.978608 100.575194,197.280065 94.6701324,200.394873 C94.1657525,200.712663 93.3802619,200.960412 93.4022417,201.696713 C91.7554878,212.127645 88.6771511,222.30967 84.3905007,231.955099 C79.4120633,244.847892 72.6121899,257.427527 62.3325583,266.86862 C55.3504835,273.266683 46.223059,277.786946 36.6138129,277.710538 C26.4163165,278.028328 16.3888748,272.794339 10.4392748,264.57231 C4.33003165,256.101953 1.31242878,245.775794 0.230788489,235.483787 C-1.27830216,220.526224 0.537928058,205.180251 5.89985612,191.109491 C6.88258705,188.336206 8.20022158,185.693163 9.2425295,182.946505 C13.1393266,172.960133 18.6932892,163.612814 25.7898906,155.576018 C27.0577813,152.961339 27.7993122,150.08386 29.1875137,147.496387 C31.5416719,139.977086 36.1961957,133.061529 42.8479942,128.717237 C50.920964,123.153301 61.6569669,122.301808 70.7843914,125.575801 C78.4623022,128.07471 84.4066964,134.286961 87.870259,141.444478 C93.6116288,153.094475 94.7412777,166.369891 94.7412777,179.178751 C96.2561525,178.404824 97.8647309,177.449138 98.6658388,175.894339 C100.037845,171.27567 101.366469,166.61764 103.095358,162.118794 C103.918446,159.905839 106.195675,158.571004 108.490256,158.488806 C111.849125,158.263633 115.032155,159.608887 118.352271,159.806855 C123.214446,160.378183 128.434662,159.334511 132.282294,156.176867 C133.901862,154.85824 135.959292,153.655962 138.121994,154.220923 C140.706941,154.715263 141.612742,157.451502 143.205125,159.192113 C144.906829,161.542256 147.480207,163.262029 148.687942,165.942118 C150.109114,170.797538 147.683232,175.828928 144.653482,179.541692 C137.979125,186.51224 132.782046,194.756265 128.341537,203.292032 C126.398633,207.010584 125.23023,211.086289 124.41177,215.189778 C123.869214,218.117616 123.429039,221.15428 124.1376,224.093116 C126.925571,224.016708 128.902023,221.785808 130.976227,220.21017 C134.368066,217.018375 137.85303,213.757116 140.185787,209.680833 C146.239502,192.798005 151.552265,175.637907 158.007401,158.891688 C159.127217,155.837081 160.620112,152.920819 161.64044,149.829165 C160.938242,147.396246 159.911551,144.946539 160.388167,142.33707 C160.568633,138.519534 163.236872,135.537283 164.103919,131.928713 C165.530875,127.655041 168.637554,123.93591 172.633839,121.838726 C173.688294,121.295183 174.609712,120.548462 175.487171,119.75717 C175.097896,119.070651 174.801747,118.257941 174.03303,117.916996 C168.670524,114.840971 163.100365,112.133097 157.86916,108.832477 C156.327099,107.866371 154.839988,106.503751 154.444929,104.652 C154.005332,102.795618 154.510291,100.911452 154.999053,99.1210591 C146.250492,98.105172 137.534901,96.8299588 128.840711,95.4355018 C121.535301,95.9408405 114.180725,95.9738351 106.853914,95.7758674 C104.598665,95.5732688 102.194184,95.4187151 100.311436,94.012681 C100.925715,91.3378011 103.012066,89.403853 104.965381,87.6348781 C108.713525,84.5652204 113.208984,82.4448817 117.890694,81.2530233 C114.400524,79.4840484 110.607842,78.4513746 107.02339,76.897733 C105.547269,76.3756075 104.131304,75.4309194 102.505951,75.562319 C92.0458532,76.0404516 81.6389698,77.3087186 71.1892835,77.9518244 C66.4636144,78.512733 61.6777899,78.4785806 56.9295626,78.3089767 C52.5168173,77.984819 47.9773986,76.9359373 44.4762388,74.0856649 C42.6322446,73.7562975 40.728095,73.624319 38.9824317,72.8712312 C36.8694734,71.9983208 34.3996317,72.0307366 32.5388633,70.5859194 C30.3767396,68.7955269 27.2816288,68.5651434 25.3595482,66.4338065 L25.420282,65.4341272 C28.0428259,63.8133387 31.2374245,64.0552993 34.190823,63.7311416 C34.2180086,62.9896308 34.2457727,62.2481201 34.2845266,61.5123978 C35.3436086,61.2600179 36.414259,61.0516308 37.4293813,60.6504857 C38.6481065,59.892767 39.6522388,58.7935251 41.0080489,58.2499821 C42.7647022,57.4644785 44.433436,56.1406416 46.4694647,56.3716039 C60.8049583,57.4366935 74.9542014,60.2713369 89.2844892,61.424991 C94.5151165,62.3696792 99.790282,61.1228297 104.866472,59.9147634 C109.531407,58.6737025 114.268066,57.6190323 118.764104,55.8338495 C122.716429,54.2946792 126.211804,51.8403423 130.014898,49.9949588 C134.932023,47.4514785 140.075309,45.3693441 145.229007,43.364776 C155.443856,38.783733 165.778437,34.3450878 176.546832,31.2100197 C180.179292,30.1119355 184.230527,29.7148423 187.243502,27.1788871 C190.826797,24.1520645 194.845062,21.6641541 198.193519,18.351957 C202.732938,13.9196792 206.79979,8.85008423 212.337557,5.58708961 C217.068432,2.63956989 222.617188,1.49691398 228.02886,0.519231183 L228.02886,0.519231183 L228.02886,0.519231183 Z" fill="#100A07" sketch:type="MSShapeGroup"></path>
                <path d="M244.181163,6.78068459 C246.108449,7.57718638 247.914268,8.9010233 250.098371,8.8246147 C254.981948,8.96180287 259.829085,9.61532796 264.615488,10.5768029 C257.069456,11.7020932 249.543669,13.179905 242.348158,15.7841649 C243.369065,14.1425376 244.630593,12.6699355 245.619108,11.0109427 C245.614481,9.48334946 244.637534,8.19250717 244.181163,6.78068459 L244.181163,6.78068459 L244.181163,6.78068459 Z M226.294765,12.3064158 C227.112647,10.5102348 228.725275,8.63764516 230.909957,8.92822939 C233.540599,8.56528853 235.576049,10.4112509 237.464003,11.9266882 L235.536717,11.872276 C234.253209,10.1368746 232.222386,8.70884409 229.960774,9.36815771 C226.69503,9.87349642 226.294187,14.8059032 228.961269,16.3497043 C230.702305,17.4205824 232.660826,16.1349498 234.350383,15.5422043 C232.984161,16.5308853 231.353603,17.7615269 229.564558,17.1838315 C227.683545,16.4423208 225.773033,14.4811667 226.294765,12.3064158 L226.294765,12.3064158 Z" fill="#FDFDFD" sketch:type="MSShapeGroup"></path>
                <path d="M245.959796,10.3568387 C247.750576,9.39594265 249.845603,9.76930287 251.783301,9.8515 C250.169517,11.285319 247.929885,11.4931272 245.926826,11.9932563 C245.933188,11.5816918 245.949384,10.7684032 245.959796,10.3568387 L245.959796,10.3568387 Z" fill="#100A07" sketch:type="MSShapeGroup"></path>
                <path d="M231.645704,11.1469731 C232.584475,10.5160233 233.737839,12.5425878 232.63364,12.9599409 C231.837738,12.9049498 231.35476,11.828862 231.645704,11.1469731 L231.645704,11.1469731 Z M243.484748,17.3210197 C249.603246,15.8379982 255.60259,13.8600573 261.711255,12.3168351 C256.371306,14.1842151 251.06375,16.3757527 246.43699,19.687371 C246.508714,18.8468763 246.574075,18.0069606 246.640014,17.1658871 C245.586138,17.2110376 244.533419,17.2712384 243.484748,17.3210197 L243.484748,17.3210197 L243.484748,17.3210197 Z" fill="#FDFDFD" sketch:type="MSShapeGroup"></path>
                <path d="M210.746331,39.4129462 C208.967698,37.9843369 209.636927,35.3974427 210.142463,33.4970681 C211.135027,35.1890556 211.865568,37.1114265 213.370032,38.4346846 C216.73295,41.115353 220.916642,42.3454158 224.896153,43.7850233 C223.737583,44.1149695 222.562817,44.4003441 221.404826,44.7187133 C225.00663,47.2401971 228.792371,49.5191416 231.98697,52.5789588 C230.505065,52.5349659 229.022581,52.4967616 227.552245,52.6223728 C228.738,53.7760269 230.290472,54.5285358 231.926236,54.7809158 C235.351623,52.6825735 237.453013,48.8876129 237.898973,44.9386774 C239.424259,49.623914 238.879968,54.6819319 237.552501,59.3399624 C235.877983,64.9478907 234.001019,70.6218082 230.538035,75.4118172 C224.912348,83.9024337 216.278892,90.2472419 206.586932,93.2908513 C198.007847,96.0045143 189.072458,97.3769749 180.165988,98.4750591 C174.918009,99.0637527 169.309096,99.4909462 164.770835,102.462778 C163.041945,103.517448 162.530624,105.533014 162.119948,107.373188 C160.698199,107.439177 159.013269,108.307457 157.778348,107.257996 C156.516242,106.318518 155.631842,104.852283 155.473355,103.276066 C155.473355,101.495514 156.208524,99.8318907 156.724472,98.1572688 C153.036483,97.7179194 149.375681,97.0632366 145.758259,96.2175323 L145.368984,95.3938244 C151.00566,93.9327993 156.763226,93.0153172 162.405108,91.5826559 C172.470725,89.4189032 182.613272,87.2435735 192.196489,83.3710466 C194.720702,82.3661577 197.17377,81.0863136 199.17278,79.2079355 C201.412412,77.137957 204.485542,76.2361039 206.560325,73.9623692 C208.744429,71.90281 209.590075,68.6838082 212.268147,67.1128011 C215.688328,64.8709032 218.240305,61.5870699 220.337068,58.1266864 C216.938866,61.3289014 213.81657,65.1186523 209.343091,66.8436344 C207.855401,67.5087366 206.197658,67.2951398 204.63246,67.2175735 C207.300699,63.9765753 210.824417,61.4666685 212.910768,57.7429068 C208.414153,61.3294803 203.9748,66.6022527 197.657327,66.1189104 C196.296311,65.2789946 194.676742,65.3993961 193.189632,65.0260358 C194.792426,65.0700287 196.542717,65.3281971 197.952898,64.3609337 C201.361511,62.3841505 204.237401,59.6154964 206.921258,56.7542258 C203.38655,59.231138 200.005122,62.2035484 195.768216,63.3942491 C194.280527,63.8665932 192.760446,63.3942491 191.378607,62.8344982 C194.469091,60.5879695 197.661954,58.4184283 200.1156,55.4408082 C196.997931,57.5947204 193.951986,60.093629 190.202685,61.0487366 C189.012302,61.4608799 187.858938,60.7523638 186.734495,60.4507814 C189.439753,58.4896272 192.442317,56.8798369 194.724751,54.3815072 C192.217312,55.8761057 189.81341,57.6827061 186.948509,58.4352151 C185.263001,58.868776 183.551465,58.3420197 181.904132,57.9854462 C182.858521,55.0523978 185.54874,53.0420412 188.386455,52.1245591 C192.365387,51.9983692 195.905301,49.8722419 199.846058,49.4224731 C199.758717,49.9555968 199.676003,50.4933513 199.593868,51.0264749 C205.065117,49.5602401 210.954561,49.7304229 216.158581,52.0643584 C213.721131,49.6094427 210.416633,48.3678029 207.217986,47.252353 C205.505292,46.5490466 203.628328,47.071172 201.882665,46.5820412 C200.329614,46.2254677 198.77078,45.6095681 197.152368,45.8746828 C195.067174,46.2364659 192.964049,45.7861183 190.873649,45.929095 C189.885134,46.1762652 189.051056,46.819371 188.074688,47.0775394 C186.010895,47.2037294 183.958671,46.8303692 181.928426,46.5056326 C186.401327,43.4133996 192.093531,43.5835824 197.29061,43.5621649 L197.240288,41.8910161 C200.418112,42.4021434 203.556604,43.1100806 206.652872,43.9835699 C206.081974,43.341043 205.51686,42.6985161 204.967942,42.0444122 C209.265583,42.6765197 213.266495,44.4119211 217.229232,46.0923315 C215.543145,43.4382903 213.094705,41.4389319 210.746331,39.4129462 L210.746331,39.4129462 L210.746331,39.4129462 Z M130.082573,51.786509 C137.607203,47.5139946 146.032429,44.960095 154.588955,43.8168602 C154.704639,45.0579211 154.808176,46.2937724 154.896673,47.5348333 C158.030538,48.1061613 161.510875,48.1883584 164.117223,50.2647043 C154.885683,52.790819 145.506069,55.8292186 137.822374,61.7329409 C135.714622,63.2715323 134.16215,65.4514928 131.949704,66.8517384 C130.094719,68.0493853 128.211971,69.3124427 126.889709,71.1196219 C124.897062,74.0636685 121.851117,76.0242437 119.491174,78.6441326 C115.99522,77.1559014 112.471502,75.7168728 109.040909,74.0804552 C111.455801,73.8442832 113.859704,73.5085484 116.263606,73.1299785 C112.712124,71.6799516 108.777729,71.9103351 105.138328,70.8064624 C106.395229,70.6137043 107.663119,70.4713065 108.92002,70.2571308 C105.132544,68.5599337 100.829698,68.8510968 96.9271165,67.5162616 C98.1348518,67.3842832 99.3477928,67.2962975 100.560155,67.2083118 L100.548587,66.3903925 C98.797718,66.2966183 97.0416432,66.2034229 95.2907741,66.1374337 C96.3058964,65.8462706 97.3158129,65.5556864 98.3199453,65.2251613 C96.8600201,64.4124516 95.2514417,63.9348978 93.6989698,63.3409946 C98.0185899,62.6770502 102.436541,62.5780663 106.662458,61.3584229 C111.283433,60.0073799 116.003318,58.9029283 120.460023,57.0413369 C123.846656,55.642828 126.89318,53.5716918 130.082573,51.786509 L130.082573,51.786509 L130.082573,51.786509 Z" fill="#ED4C09" sketch:type="MSShapeGroup"></path>
                <path d="M186.948509,58.4334785 C189.81341,57.6809695 192.216734,55.8743692 194.725329,54.3797706 C192.442317,56.8786792 189.439753,58.4884695 186.734495,60.4490448 C187.858938,60.7506272 189.012302,61.4603011 190.202685,61.0481577 C193.950829,60.0918925 196.997931,57.5935627 200.115022,55.4402294 C197.661376,58.4172706 194.467355,60.5873907 191.378029,62.8333405 C192.761024,63.3936703 194.281683,63.8660143 195.768216,63.3936703 C200.005701,62.2018118 203.385971,59.2305591 206.921258,56.7530681 C204.237401,59.6143387 201.361511,62.3829928 197.952898,64.3603548 C196.542717,65.3270394 194.791269,65.068871 193.189053,65.0248781 C192.25086,64.6295215 191.795068,63.5690627 191.026929,62.9317455 C190.028003,62.6191649 188.974705,62.5143925 187.980406,62.201233 C187.272423,61.6843172 186.833404,60.8993925 186.328446,60.2076631 C184.440492,60.4716201 182.871246,59.5813441 181.904711,57.9831308 C183.550308,58.3397043 185.263001,58.8670394 186.948509,58.4334785 L186.948509,58.4334785 L186.948509,58.4334785 Z M197.65617,66.1177527 C203.973065,66.601095 208.412996,61.3277437 212.909033,57.7417491 C210.823839,61.4655108 207.300121,63.9759964 204.630725,67.2164158 C206.195344,67.2934032 207.853088,67.5075789 209.341355,66.8424767 C213.813099,65.1174946 216.937131,61.3277437 220.335332,58.1255287 C218.237991,61.586491 215.685436,64.8703244 212.26699,67.1116434 C209.58834,68.6820717 208.74385,71.9004946 206.55859,73.9606326 C204.483807,76.2343674 201.410676,77.1356416 199.171045,79.2061989 C197.172613,81.0845771 194.719545,82.3644211 192.194754,83.36931 C182.611537,87.2406792 172.468412,89.4165878 162.403373,91.5809194 C171.453289,89.3893817 180.427433,86.59931 188.95099,82.8037706 C192.046101,81.293543 195.355804,79.7943136 197.518506,77.0036631 C198.209715,75.9055789 199.560319,75.7128208 200.657577,75.2074821 C203.676337,74.0098351 206.322017,71.7800932 207.672043,68.775267 C205.821686,68.3527043 204.170305,66.6115143 202.193853,67.4572186 C200.559824,68.1547366 198.616921,67.6609749 197.65617,66.1177527 L197.65617,66.1177527 L197.65617,66.1177527 Z M154.615563,63.1187151 C156.953525,60.2950699 160.680268,59.5865538 164.000961,58.5764552 C161.822063,59.5813441 159.681341,60.6967939 157.804955,62.2122312 C159.643165,63.3653065 161.888581,62.9757384 163.94659,63.0191523 C166.272984,62.882543 168.787942,63.2171201 170.905528,62.0032652 C171.48221,61.5361308 172.211594,61.7833011 172.601447,62.3494194 C169.961551,62.3268441 167.562855,63.6396828 164.950722,63.8874319 C161.486581,63.7994462 157.962863,64.2989964 154.615563,63.1187151 L154.615563,63.1187151 L154.615563,63.1187151 Z" fill="#FDFDFD" sketch:type="MSShapeGroup"></path>
                <path d="M39.1704173,62.2394373 C43.4628518,61.2837509 47.8744403,62.2782204 52.2108345,62.3766254 C59.6313496,63.1731272 67.1507741,63.1343441 74.5047712,64.5247491 C71.3980921,64.0796111 68.2694331,63.9256362 65.1361468,63.9100072 C60.9426216,63.3994588 56.7057151,63.5696416 52.5012,63.1245036 C48.0676317,62.7331989 43.5669669,63.0527258 39.1704173,62.2394373 L39.1704173,62.2394373 L39.1704173,62.2394373 Z M154.160348,63.008733 L154.616141,63.1187151 C157.96402,64.2995753 161.48716,63.7994462 164.951301,63.8874319 C161.38825,64.331991 157.540619,64.3817724 154.160348,63.008733 L154.160348,63.008733 Z" fill="#ED4C09" sketch:type="MSShapeGroup"></path>
                <path d="M141.794365,67.6823925 C143.144391,65.3652437 145.834032,64.5849498 148.084075,63.4480824 C147.304947,64.2885771 146.54722,65.1452796 145.834032,66.0453961 C148.940711,67.3970179 152.414685,67.2482527 155.724388,67.1058548 C158.403039,66.7267061 161.13606,66.8644731 163.775957,66.2271559 C162.656141,67.1828423 161.547315,68.1605251 160.642092,69.3251774 C167.69994,69.9677043 174.818521,68.7758459 181.607983,66.8864695 C174.094342,70.5934444 165.449896,71.0333728 157.233479,70.3734803 C158.123085,69.4010072 159.143413,68.5616703 160.169525,67.7373835 C157.221911,67.8913584 154.263306,67.9023566 151.333045,68.2323029 C148.14423,68.3254982 144.977974,67.7987419 141.794365,67.6823925 L141.794365,67.6823925 L141.794365,67.6823925 Z" fill="#FDFDFD" sketch:type="MSShapeGroup"></path>
                <path d="M28.9011971,66.2653602 C42.6172058,67.4462204 56.3494101,68.5668799 70.0758302,69.5173566 C74.0443511,69.5937652 77.9573439,70.5222455 81.9426388,70.1546738 L81.9310705,70.500828 C77.7820835,70.6658011 73.6822619,69.7755251 69.5326964,70.0111183 C62.0462417,69.5665591 54.5545813,69.1110018 47.0681266,68.6988584 C41.0254014,67.967767 34.5494417,68.9350305 28.9011971,66.2653602 L28.9011971,66.2653602 Z" fill="#ED4C09" sketch:type="MSShapeGroup"></path>
                <path d="M173.968247,73.8066577 C178.518078,73.0541487 182.650869,70.8626111 186.508912,68.4239032 C183.80886,72.5939606 178.490892,73.3071075 173.968247,73.8066577 L173.968247,73.8066577 Z" fill="#FDFDFD" sketch:type="MSShapeGroup"></path>
                <path d="M39.3248547,70.7040054 C49.8346964,71.1815591 60.3404892,72.0110556 70.8613209,72.3190054 C77.3488489,73.1977043 83.9121496,72.5829624 90.4274417,73.0171022 C80.5752604,73.8350215 70.6692863,72.8579176 60.8009094,72.6321649 C53.6661324,71.8460824 46.2560288,72.911172 39.3248547,70.7040054 L39.3248547,70.7040054 L39.3248547,70.7040054 Z" fill="#ED4C09" sketch:type="MSShapeGroup"></path>
                <path d="M132.952101,74.8833244 C134.005399,73.7348799 135.20735,72.7247814 136.557954,71.9392778 C136.563738,72.5875932 136.574728,73.2416971 136.596708,73.8894337 C143.775445,75.459862 151.19596,74.0428297 158.423862,73.4778692 C150.076722,74.9661004 141.338573,77.338819 132.952101,74.8833244 L132.952101,74.8833244 L132.952101,74.8833244 Z M187.13476,78.3494964 C190.449091,76.9318853 193.357951,74.8011272 196.189882,72.6095896 C194.932981,73.9994158 193.747226,75.5038548 192.161206,76.5423172 C190.653272,77.5367867 188.846875,77.8655753 187.13476,78.3494964 L187.13476,78.3494964 Z" fill="#FDFDFD" sketch:type="MSShapeGroup"></path>
                <path d="M50.2187655,74.5545358 C53.5336748,74.3785645 56.8601525,74.5875305 60.1750619,74.6477312 C67.1351568,75.2468441 74.1490446,74.6425215 81.0969928,75.3122545 C73.2322532,75.6966129 65.3449554,75.625414 57.4698043,75.6364122 C55.032354,75.5866308 52.4474072,75.7348172 50.2187655,74.5545358 L50.2187655,74.5545358 L50.2187655,74.5545358 Z" fill="#ED4C09" sketch:type="MSShapeGroup"></path>
                <path d="M131.689994,79.3381774 C142.305108,80.0738996 152.831724,78.0855394 163.325948,76.767491 C154.417744,78.3714928 145.576058,80.5126703 136.520935,81.0845771 C133.030187,81.4029462 129.467137,81.8422957 126.026132,80.9248136 C126.937718,79.682595 128.056377,78.6232939 129.225937,77.6288244 C129.906734,78.3552849 130.586374,79.316181 131.689994,79.3381774 L131.689994,79.3381774 Z M124.099424,85.8415914 C139.916823,86.6323047 155.460052,82.7597778 170.625574,78.7228566 C167.551865,80.1676738 164.302895,81.1997688 161.021534,82.0466308 C152.783137,84.1889659 144.390881,85.693405 135.977223,86.9182581 C130.988953,87.3633961 125.867068,88.1761057 120.922178,86.9900358 C121.910115,86.0175627 123.046705,85.2164301 124.133551,84.3585699 C124.12661,84.7261416 124.110993,85.4676523 124.099424,85.8415914 L124.099424,85.8415914 Z" fill="#FDFDFD" sketch:type="MSShapeGroup"></path>
                <path d="M284.401407,87.6151971 C287.047088,86.1101792 290.208717,85.5452186 293.199134,86.099181 C296.278049,86.9778799 298.030075,90.1031075 298.781439,93.019948 C299.823747,97.6611918 298.737479,102.417627 297.879686,106.998091 C294.214256,124.206235 283.72061,139.277832 270.784308,150.884414 C268.407013,153.097369 265.877594,155.129722 263.341235,157.151077 C262.177459,157.908796 262.128872,159.386608 261.827517,160.606251 C260.839001,166.065993 259.598296,171.629928 260.339827,177.199073 C260.614576,179.33041 261.750009,181.433384 263.698118,182.449849 C265.284138,183.395695 267.244394,183.049541 268.90156,182.489211 C272.035424,181.340188 274.840748,179.407398 277.23366,177.096616 C282.035681,172.514416 286.140708,167.25322 289.960576,161.83805 C291.273583,160.168059 290.559237,157.937738 290.75185,155.999159 C291.097165,146.122769 294.478014,136.477919 299.638075,128.107125 C303.46257,122.180249 308.672374,116.776077 315.362927,114.194392 C318.97977,112.700373 323.413917,112.843349 326.691229,115.111875 C330.59381,117.63278 332.805099,122.302387 332.755934,126.89848 C333.167188,135.389676 328.896155,143.43747 322.996878,149.292568 C317.930521,154.543923 311.508932,158.201695 304.867545,161.085541 C306.366803,164.398317 308.633042,167.885907 312.348216,168.907004 C316.448037,169.917681 320.838803,168.357672 323.95705,165.634168 C328.879381,161.377283 332.11794,155.609013 335.251804,149.990086 C340.838737,139.461328 346.047384,128.723025 350.860394,117.814539 C352.913776,113.964009 354.498639,109.630715 357.68861,106.565688 C362.211255,105.022466 366.963531,104.121771 371.612849,102.984324 C371.14086,106.218955 370.99857,109.66371 372.441721,112.689953 C374.357439,116.748871 376.656647,120.621398 378.538817,124.695944 C380.855378,129.732545 383.36918,134.884337 383.654918,140.52526 C388.699295,142.409427 393.93455,145.040314 396.767059,149.840742 C399.511071,154.295016 399.176745,159.902944 397.711036,164.736946 C395.871669,170.772647 391.195744,175.484511 385.999822,178.825072 C380.340587,182.484002 374.072858,185.004328 367.864127,187.547229 C346.003424,196.483563 324.061165,205.216719 302.178483,214.105007 C259.308509,231.544692 216.485965,249.120407 173.79183,266.987285 C165.091856,270.645636 156.376843,274.253627 147.880472,278.368115 C135.981272,283.970833 124.027701,289.550398 112.874659,296.559729 C106.118167,300.783041 99.7127741,305.63383 94.1536058,311.356371 C91.019741,309.604762 88.0825381,307.494842 84.7734129,306.066812 C71.9689899,300.15267 57.632918,299.284391 43.7746187,298.272556 C42.3146935,298.306129 41.9028604,296.624561 41.2168576,295.641668 C85.7121842,279.46562 130.355007,263.679719 174.932469,247.729423 C229.389876,228.268384 283.873312,208.884332 338.280976,189.298839 C347.39741,185.98722 356.546236,182.76243 365.618711,179.329832 C373.220849,176.352211 380.838604,172.721645 386.646492,166.827763 C389.429258,163.943918 391.590803,160.099176 391.454296,155.990477 C390.932564,151.245039 387.003954,147.630102 382.903554,145.669527 C381.647232,151.195258 378.935612,156.556016 374.319842,160.00598 C370.663666,162.834835 366.163001,164.5986 361.547232,164.872398 C357.277355,164.98759 352.733309,163.208774 350.274458,159.588048 C348.100187,156.264853 347.58019,151.783373 349.373862,148.180013 C351.515163,143.862348 355.670512,140.753907 360.23596,139.386656 C363.616809,138.315199 367.195476,138.150805 370.7244,138.227792 C366.652342,131.416428 362.936012,124.199867 361.487655,116.328624 C359.056567,118.839109 357.421381,121.964337 355.807019,125.028785 C350.043669,136.201228 345.686452,148.086817 339.13819,158.857536 C335.235609,164.998009 330.674788,170.8971 324.791128,175.264547 C320.514889,178.406561 315.252449,180.350928 309.906138,180.09797 C305.329122,179.97641 300.653197,178.466183 297.327298,175.219975 C295.450334,173.489783 294.143111,171.276249 292.809859,169.129283 C289.280357,174.918392 285.131948,180.333563 280.202098,185.00838 C275.219612,189.721401 269.703246,194.038487 263.33198,196.70179 C259.949974,198.091038 256.04855,198.794923 252.519047,197.542285 C248.073332,195.877504 245.136708,191.36245 244.561183,186.759989 C243.989706,179.740817 244.901292,172.699649 246.229338,165.812455 C243.528708,167.4755 241.059445,169.487014 238.325845,171.096805 C237.404426,171.772326 235.993666,172.282875 235.982676,173.628708 C234.95078,180.955251 233.035062,188.222172 229.583068,194.796206 C227.124216,199.43224 224.44036,204.09548 220.515799,207.665267 C215.319298,212.470905 208.458112,215.898873 201.257396,215.695695 C197.547427,215.702063 193.842086,214.289082 191.164593,211.703346 C189.259865,209.940159 188.107079,207.578439 186.888932,205.325543 C186.186155,206.281229 185.516348,207.26991 184.885295,208.275957 C180.961312,214.576194 175.829594,220.118133 169.918748,224.589194 C164.814216,228.22497 158.886596,231.614733 152.399068,231.159176 C150.098702,231.219376 147.700584,230.522437 146.103574,228.796876 C144.220826,226.879715 143.781807,224.116849 143.095804,221.62836 C137.799237,228.950272 131.44301,235.590296 123.864009,240.578272 C120.926806,242.418446 117.4644,243.352136 114.01819,243.515952 C110.423327,243.614357 106.849865,241.687934 105.13775,238.496138 C102.986037,234.464427 102.920098,229.71378 103.260207,225.259505 C103.941004,218.998631 105.817968,212.933987 107.964475,207.034896 C111.405479,197.945167 115.939114,189.200434 121.943085,181.527158 C123.34806,179.693351 124.96705,178.034937 126.35583,176.188396 C121.26865,176.934538 115.83442,178.253744 110.938696,175.931385 C109.813096,178.341151 108.36474,180.616043 106.432247,182.472425 C102.584616,186.487349 97.9196806,189.743977 92.7440029,191.798326 C91.9926388,192.176896 90.8392748,192.337238 90.8832345,193.430113 C89.9114935,206.321749 86.3987655,218.955217 81.162354,230.747032 C76.4106561,241.189541 70.1539165,251.245955 61.3012403,258.688848 C55.3238763,263.692453 47.8050302,267.190462 39.9119482,267.239665 C30.1592547,267.662806 20.4991079,262.445025 15.2574906,254.255412 C8.56173237,244.116222 6.1908,231.708507 6.14105612,219.717566 C5.61238273,196.125253 14.4002763,172.227305 30.8267482,155.178925 C31.7209813,154.250444 31.6174446,152.855987 31.8973986,151.680337 C33.7032173,139.486797 43.9336835,128.611306 56.3713899,127.259685 C64.4061842,126.452763 73.1107856,128.71029 78.8741353,134.592595 C83.8462101,139.596201 86.6787194,146.297004 88.467764,153.025591 C91.2441669,163.461154 91.4807396,174.342434 91.2939108,185.074948 C95.6956662,183.246351 99.9221612,180.51648 102.770866,176.626588 C105.60916,172.831627 104.642624,167.784029 106.184685,163.532353 C106.50802,162.548882 107.523142,161.967134 108.522647,161.928351 C111.33202,161.729805 114.017033,162.796052 116.78823,163.080848 C122.644127,163.888927 128.99457,162.976654 133.791384,159.324091 C134.93318,158.625995 136.025232,157.286529 137.501931,157.599688 C139.19785,159.269679 140.372616,161.400437 142.040771,163.109211 C143.165214,164.42726 144.571347,165.542131 145.41063,167.085353 C146.086222,168.475179 145.316927,169.980776 144.324941,170.980455 C138.275853,177.417301 133.429873,184.8874 129.241554,192.638242 C124.856573,201.086023 121.063891,210.142179 120.361114,219.733195 C120.273194,222.271466 120.207833,225.49452 122.58455,227.076525 C124.681312,228.439145 127.17834,227.126306 129.050098,225.983072 C133.687847,222.859002 137.688181,218.842919 141.130342,214.443636 C142.507554,212.652086 143.874354,210.796283 144.637286,208.647581 C151.272311,190.270154 157.068052,171.589409 164.000383,153.315597 C164.390236,151.398435 166.514184,151.288453 168.034843,150.75012 C172.277534,149.585468 176.366944,147.899269 180.675574,146.960369 C173.902886,166.014475 166.96535,185.029219 161.295704,204.451475 C160.433283,207.384523 159.456915,210.855326 161.241332,213.646556 C162.618544,215.772104 165.522199,215.898873 167.76183,215.405111 C171.186639,214.503258 173.908671,212.048342 176.323563,209.577219 C179.167062,206.501772 181.723666,203.145004 183.870751,199.547432 C185.104515,197.861233 184.089971,195.76347 184.089971,193.885091 C183.821007,187.837814 183.803655,181.696762 185.247963,175.775674 C186.90455,168.546957 189.907692,161.582197 194.286889,155.578912 C195.071801,154.607018 194.846219,153.299389 194.934717,152.140525 C194.76524,147.323889 197.338619,142.786839 200.823583,139.622828 C205.560242,135.514129 211.987614,133.108416 218.283686,133.948332 C223.436806,134.689842 228.360294,137.556901 231.19743,141.978181 C235.192558,148.410975 236.828322,156.050099 236.861871,163.569978 C240.000941,162.405326 242.607289,160.262991 245.28594,158.324412 C246.416167,157.440504 247.849485,156.605219 248.035735,155.03479 C250.528135,144.2195 253.452035,133.426206 258.035413,123.287595 C261.953612,114.620428 266.520794,106.166858 272.403876,98.6591344 C275.778363,94.3871989 279.604593,90.3062849 284.401407,87.6151971 L284.401407,87.6151971 L284.401407,87.6151971 Z" fill="#ED4C09" sketch:type="MSShapeGroup"></path>
                <path d="M287.376207,95.5628495 C288.699047,94.8213387 290.904553,94.7501398 291.447686,96.4971183 C292.868858,100.187885 291.437275,104.14724 290.202354,107.674192 C286.058573,118.961826 280.240273,129.672344 272.721427,139.065392 C270.179862,142.096846 267.562524,145.156084 264.302564,147.435608 C266.289427,137.971939 269.780176,128.88221 273.319511,119.901884 C275.828106,113.793826 278.440239,107.708344 281.728541,101.968437 C283.166486,99.5117849 284.829436,96.9914588 287.376207,95.5628495 L287.376207,95.5628495 L287.376207,95.5628495 Z" fill="#100A07" sketch:type="MSShapeGroup"></path>
                <path d="M164.307522,106.976674 C164.330081,104.252013 166.629289,102.631803 168.868921,101.637912 C168.034843,103.115145 167.35983,104.675733 166.7496,106.257159 C166.008647,106.696509 165.125983,106.767708 164.307522,106.976674 L164.307522,106.976674 Z" fill="#ED4C09" sketch:type="MSShapeGroup"></path>
                <path d="M281.157643,111.826884 C282.376368,109.679339 283.605505,107.410814 285.653102,105.93879 C285.724247,110.266875 283.820676,114.304375 281.965114,118.115543 C278.912806,123.943435 275.708953,129.776538 271.498653,134.851342 C273.896193,126.865486 277.222671,119.170792 281.157643,111.826884 L281.157643,111.826884 L281.157643,111.826884 Z" fill="#FDFDFD" sketch:type="MSShapeGroup"></path>
                <path d="M165.833387,108.586464 C167.101278,108.816848 168.336777,109.217993 169.477994,109.816527 C174.735807,112.47983 179.966435,115.269901 184.774239,118.709446 C186.443551,119.927932 188.100717,121.202566 189.434547,122.807147 C191.508751,125.058885 191.201612,129.0686 188.682604,130.880989 C188.451237,128.854425 188.479001,126.794866 188.127902,124.784509 C187.56221,122.959964 185.998748,121.708484 184.610547,120.505627 C179.709039,116.545694 174.006423,113.804246 168.501626,110.805787 C167.45874,110.272663 166.552938,109.514944 165.833387,108.586464 L165.833387,108.586464 L165.833387,108.586464 Z M176.77762,123.872237 C179.071623,123.361109 181.788449,123.669059 183.390665,125.563645 C185.800929,128.260522 185.426694,132.358222 183.989327,135.433668 C181.859594,140.080122 177.046584,144.232235 171.651108,143.469306 C168.451882,143.078581 166.524596,139.800536 166.624083,136.778923 C166.876273,130.962608 171.107974,125.371466 176.77762,123.872237 L176.77762,123.872237 L176.77762,123.872237 Z" fill="#ED4C09" sketch:type="MSShapeGroup"></path>
                <path d="M313.2384,128.541265 C315.329378,125.772611 318.331364,123.076892 322.029764,123.268493 C325.179824,123.702633 326.031255,127.525378 325.60901,130.18926 C324.994153,135.664631 322.567692,141.026547 318.479439,144.777514 C314.489517,148.650041 309.450345,151.237514 304.329617,153.280287 C304.625767,144.365371 307.874737,135.631636 313.2384,128.541265 L313.2384,128.541265 L313.2384,128.541265 Z" fill="#100A07" sketch:type="MSShapeGroup"></path>
                <path d="M357.102095,131.402536 C357.782892,132.973543 358.440553,134.555548 359.07739,136.142763 C357.179603,136.840281 355.32404,137.652991 353.502026,138.521271 C354.70282,136.148552 355.871801,133.759625 357.102095,131.402536 L357.102095,131.402536 Z M314.313678,136.192545 C315.444483,134.774934 317.112639,133.995219 318.835744,133.561658 C319.884414,135.874176 319.467376,138.823432 317.689321,140.663606 C315.163373,143.656855 311.876227,145.892964 308.408037,147.650941 C308.84185,143.222715 311.459188,139.437595 314.313678,136.192545 L314.313678,136.192545 L314.313678,136.192545 Z" fill="#FDFDFD" sketch:type="MSShapeGroup"></path>
                <path d="M56.1353957,141.437532 C60.9981496,139.21821 67.5186475,140.514262 70.5865727,145.079097 C74.0223712,150.127274 75.0710417,156.344735 75.7396921,162.298817 C76.2452288,170.608832 76.0907914,178.969206 75.2185381,187.251435 C69.1376374,188.092509 62.7218331,186.322955 57.9516259,182.440009 C48.6929007,175.129095 43.5120173,161.799267 48.072259,150.473428 C49.6044863,146.671522 52.3427137,143.167724 56.1353957,141.437532 L56.1353957,141.437532 Z M209.642711,143.50809 C212.007281,141.508152 215.515381,140.866204 218.353675,142.234034 C221.179822,143.453099 222.864751,146.336944 223.534558,149.23121 C225.236262,155.438251 224.231551,161.956715 222.721882,168.087348 C219.522656,169.043034 215.933577,169.065609 212.974394,167.351625 C209.45646,165.313484 206.398947,162.117057 205.242112,158.140337 C203.87994,152.96597 205.498929,146.98526 209.642711,143.50809 L209.642711,143.50809 Z M356.640518,146.715514 C360.625235,143.19493 366.355036,142.996384 371.389001,143.491882 C372.129376,148.001726 371.332895,153.08174 368.007574,156.43793 C364.921718,159.739129 358.802642,160.518844 355.624817,156.954267 C352.952529,154.037427 353.754216,149.198794 356.640518,146.715514 L356.640518,146.715514 L356.640518,146.715514 Z" fill="#100A07" sketch:type="MSShapeGroup"></path>
                <path d="M50.2685094,155.290643 C52.5625122,151.896249 57.1013525,149.814115 61.0918532,151.324342 C64.7364604,152.401588 66.4098216,156.240541 67.4914619,159.557948 C69.8138072,167.411826 69.9832835,175.701581 69.6975453,183.824047 C63.802895,183.164733 58.6544029,179.44676 55.2243885,174.740106 C51.1025871,169.253158 48.917905,162.116478 50.2685094,155.290643 L50.2685094,155.290643 Z M208.14461,153.790835 C209.550164,152.609975 211.355404,151.549516 213.260711,152.175835 C215.653623,152.681174 216.800624,155.119303 217.371522,157.262217 C218.140239,159.904102 218.052898,162.672756 218.008938,165.39105 C212.55215,164.577183 207.90341,159.392396 208.14461,153.790835 L208.14461,153.790835 L208.14461,153.790835 Z M358.638371,154.69674 C360.867013,154.01022 363.209603,153.664066 365.537732,153.966228 C363.945928,155.773986 360.274135,156.855283 358.638371,154.69674 L358.638371,154.69674 Z" fill="#FDFDFD" sketch:type="MSShapeGroup"></path>
                <path d="M199.577094,169.80712 C203.144771,171.877677 206.678322,174.118996 210.750958,175.068315 C214.153787,176.056418 217.727249,176.139194 221.239399,175.915177 C220.78939,179.358774 219.740719,182.687758 218.708823,185.994167 C216.854417,191.431912 214.614786,196.885866 210.915229,201.345928 C209.09842,203.509681 206.525042,205.542613 203.533468,205.261869 C200.311105,204.911084 198.066846,202.037079 197.040155,199.17002 C195.042302,193.672652 195.190955,187.614376 196.288213,181.93988 C197.12981,177.837548 197.666581,173.591082 199.577094,169.80712 L199.577094,169.80712 L199.577094,169.80712 Z M27.9907683,192.425224 C30.1852835,187.47603 32.7551914,182.55578 36.4483856,178.551274 C40.1907453,183.439688 44.5381295,188.058935 50.1372086,190.810224 C57.5079799,194.693749 66.0968978,195.111102 74.2317583,194.3146 C73.4688259,202.767591 71.3558676,211.044611 68.9189957,219.158394 C66.1136719,227.769991 62.5361612,236.250767 57.2563683,243.654297 C53.7928058,248.340113 49.1712518,252.816384 43.216446,253.838638 C38.2825468,254.283776 33.1670245,252.140862 30.1100892,248.208134 C25.7031281,242.555634 24.0615799,235.332706 23.2280806,228.352317 C21.9914245,216.246763 23.029105,203.652658 27.9907683,192.425224 L27.9907683,192.425224 L27.9907683,192.425224 Z" fill="#100A07" sketch:type="MSShapeGroup"></path>
                <path d="M199.483968,182.774586 C201.476037,183.301921 203.292268,184.318387 205.257729,184.927919 C208.143453,185.883027 211.168576,186.395312 214.209894,186.542341 C213.089499,190.562475 211.860363,194.649177 209.209476,197.972373 C207.772109,199.708353 206.059416,202.141272 203.500498,201.790487 C200.273508,200.295889 199.620475,196.308749 199.182035,193.149948 C198.439925,189.701142 199.20922,186.223971 199.483968,182.774586 L199.483968,182.774586 L199.483968,182.774586 Z M33.4573899,191.145959 C37.6173669,195.661013 42.4309554,199.736717 48.1827367,202.059654 C54.1976978,204.603713 60.8113209,205.327858 67.2936432,205.091686 C66.7395194,211.200323 65.0326101,217.142249 63.396846,223.036131 C62.2110906,227.210819 60.7349698,231.320097 58.5670619,235.092482 C55.6518388,240.310842 52.2218245,245.605032 47.0305295,248.807826 C43.7804029,250.943794 39.3514619,250.801396 36.0417583,248.891181 C32.7870043,246.989649 30.8550906,243.551262 29.472095,240.169023 C26.9039223,233.308457 26.1785871,225.898559 26.2884863,218.621219 C26.2225468,212.430964 26.9964691,206.218713 28.7803079,200.292416 C29.7416374,196.967484 31.6463655,194.050643 33.4573899,191.145959 L33.4573899,191.145959 L33.4573899,191.145959 Z" fill="#FDFDFD" sketch:type="MSShapeGroup"></path>
            </g>
        </g>
    </g>
</svg>