<?xml version="1.0" encoding="UTF-8" standalone="no"?>
<svg width="512px" height="512px" viewBox="0 0 512 512" version="1.1" xmlns="http://www.w3.org/2000/svg" xmlns:xlink="http://www.w3.org/1999/xlink" xmlns:sketch="http://www.bohemiancoding.com/sketch/ns">
    <!-- Generator: Sketch 3.3.1 (12002) - http://www.bohemiancoding.com/sketch -->
    <title>los-angeles-angels-of-anaheim</title>
    <desc>Created with Sketch.</desc>
    <defs></defs>
    <g id="MLB" stroke="none" stroke-width="1" fill="none" fill-rule="evenodd" sketch:type="MSPage">
        <g id="los-angeles-angels-of-anaheim" sketch:type="MSArtboardGroup">
            <g sketch:type="MSLayerGroup" transform="translate(122.000000, 76.000000)" id="Group">
                <g sketch:type="MSShapeGroup">
                    <path d="M149.243905,362.734905 L252.028955,362.734905 C242.540318,356.271697 234.148721,344.953929 230.408268,331.995884 L201.67486,233.18156 C198.568587,222.538581 203.619475,211.903133 211.695486,204.7079 C200.229173,201.166768 190.059771,193.206373 186.867838,182.188344 L170.763905,126.872266 C193.648441,119.193535 208.553145,105.610407 208.553145,89.8206598 C208.553145,69.2079834 183.109352,52.3262241 147.679497,47.4957635 L134.218978,1.24112863 L119.162492,1.24112863 L105.718503,47.5048008 C70.2721173,52.3352614 44.7952626,69.2079834 44.7952626,89.8206598 C44.7952626,105.610407 59.7345307,119.193535 82.6355978,126.872266 L66.5481955,182.188344 C63.3742961,193.206373 53.1703296,201.168274 41.7040168,204.7079 C49.7634972,211.903133 54.8489497,222.538581 51.7411732,233.18156 L22.9927374,331.995884 C19.186162,344.955436 10.8606872,356.271697 1.40511173,362.734905 L104.190162,362.734905 C95.7805307,356.271697 91.1940056,344.953929 94.9660168,331.995884 L97.4922123,323.401369 L155.95538,323.401369 L158.448514,331.995884 C162.205497,344.955436 157.618972,356.271697 149.243905,362.734905 L149.243905,362.734905 Z M117.850553,253.402618 L126.724547,222.829282 L135.582011,253.402618 L117.850553,253.402618 L117.850553,253.402618 Z" id="Shape" fill="#FFFFFF"></path>
                    <path d="M234.743827,355.730963 C229.826687,349.309929 225.937458,341.831527 223.642693,333.994643 L195.092626,235.829502 C190.588754,220.255145 198.947291,209.17988 200.04433,207.414585 C190.122888,202.034353 182.861391,193.82995 180.102263,184.144929 L162.737486,124.399046 C187.233017,117.862033 203.933559,104.845245 203.933559,89.8206598 C203.933559,70.8241618 177.095173,54.9666349 141.548101,51.4601452 L129.001279,8.27067635 L124.447816,8.27067635 L111.900994,51.4601452 C76.3208603,54.9575975 49.4659441,70.8151245 49.4659441,89.8206598 C49.4659441,104.845245 66.1845196,117.862033 90.6800503,124.399046 L73.3137709,184.144929 C70.5050503,193.831456 63.2751117,202.034353 53.3551732,207.414585 C54.468743,209.17988 62.8438101,220.255145 58.2903464,235.829502 L29.7553073,333.994643 C27.4785754,341.831527 23.5728156,349.309929 18.6541732,355.730963 L89.8309721,355.730963 C84.0978156,343.021444 87.1064078,333.761178 89.6806927,325.041647 L92.2068883,316.36429 L161.207642,316.36429 L163.748866,325.041647 C166.275061,333.761178 169.298682,343.02295 163.567028,355.730963 L234.743827,355.730963 Z M108.428039,260.43066 L126.724547,197.637685 L144.954933,260.43066 L108.428039,260.43066 L108.428039,260.43066 Z" id="Shape" fill="#003263"></path>
                    <path d="M145.619168,105.193183 L145.635698,105.193183 L136.479179,73.6543568 L138.273514,79.933805 C134.534564,79.7259461 130.661866,79.584361 126.723045,79.584361 L126.723045,100.046415 L181.546447,288.41329 L194.14286,331.620834 L215.814642,344.621054 C214.30133,341.323929 212.939799,337.942456 211.908883,334.478141 L184.621162,240.870834 C180.33219,226.237867 182.693078,219.925282 185.800855,211.095797 C177.607626,204.790743 172.156994,196.587846 169.49705,187.344149 L148.791564,116.045527 C148.775034,116.045527 148.758503,116.054564 148.741972,116.054564" id="Shape" fill="#CD1141"></path>
                    <path d="M133.139972,62.1452988 L126.724547,40.091166 L126.724547,62.0022075 C128.885564,62.0037137 131.028547,62.0624564 133.139972,62.1452988" id="Shape" fill="#CD1141"></path>
                    <path d="M58.9380503,332.762552 L76.4546089,344.621054 C75.5078492,338.716656 76.4050168,330.947552 78.0821341,325.433266 L83.8994469,305.279988 L71.8680838,288.414797" id="Shape" fill="#CD1141"></path>
                    <path d="M93.6706089,271.525506 L126.724547,158.094784 L126.724547,100.046415 L71.866581,288.41329 L181.549453,288.41329 L159.679302,271.525506" id="Shape" fill="#CD1141"></path>
                    <path d="M126.724547,158.094784 L159.679302,271.525506 L181.549453,288.41329 L126.724547,100.046415" id="Shape" fill="#8F0028"></path>
                    <path d="M215.816145,344.621054 L194.144363,331.620834 L181.54795,288.41329 L71.866581,288.41329 L126.724547,100.046415 L126.724547,79.584361 C130.663369,79.584361 134.534564,79.7259461 138.275017,79.933805 L136.479179,73.6543568 C135.996782,73.6212199 135.499358,73.6046515 135.00043,73.588083 C132.307425,73.4464979 129.549799,73.3636556 126.724547,73.3636556 C123.383838,73.3636556 120.127285,73.4721037 116.953385,73.6543568 L107.780335,105.193183 L104.656028,116.053058 C104.639497,116.053058 104.622966,116.053058 104.622966,116.044021 L83.8994469,187.342643 C81.2395028,196.58634 75.8399665,204.789237 67.5971453,211.09429 C70.6883911,219.92227 73.0643073,226.236361 68.7933687,240.869328 L41.4725866,334.476635 C40.4416704,337.942456 39.1462626,341.322423 37.5502961,344.619548 L76.4546089,344.619548 L58.9380503,332.761046 L71.8680838,288.41329 L83.8994469,305.278481 L169.500056,305.278481 L175.400022,325.431759 C176.962927,330.946046 177.860095,338.715149 176.962927,344.619548" id="Shape" fill="#8F0028"></path>
                    <path d="M126.724547,40.0926722 L120.309123,62.146805 C122.419045,62.0639627 124.563531,62.0052199 126.724547,62.0052199" id="Shape" fill="#8F0028"></path>
                    <path d="M107.780335,105.193183 L107.780335,105.193183 C87.9209218,102.811842 73.8111955,96.806527 73.8111955,89.8191535 C73.8111955,81.7744108 92.3902291,75.0777386 116.953385,73.6543568 C120.127285,73.4705975 123.385341,73.3636556 126.724547,73.3636556 C129.549799,73.3636556 132.307425,73.4464979 135.00043,73.588083 C135.499358,73.6046515 135.998285,73.6212199 136.479179,73.6543568 L136.479179,73.6543568 C161.024302,75.0792448 179.621369,81.7578423 179.621369,89.8191535 C179.621369,96.806527 165.495112,102.810336 145.635698,105.193183 L145.619168,105.193183 L148.743475,116.053058 C148.760006,116.053058 148.776536,116.044021 148.793067,116.044021 C174.369106,112.197124 192.716709,101.944257 192.716709,89.8191535 C192.716709,75.3865145 166.559089,63.5024066 133.138469,62.1437925 C131.028547,62.0609502 128.884061,62.0022075 126.723045,62.0022075 C124.562028,62.0022075 122.419045,62.0609502 120.30762,62.1437925 C86.8208771,63.5009004 60.714352,75.3865145 60.714352,89.8191535 C60.714352,101.944257 79.0273911,112.204656 104.619961,116.044021 C104.619961,116.053058 104.636492,116.053058 104.653022,116.053058" id="Shape" fill="#C4CDD3"></path>
                    <path d="M254.77005,347.011432 L251.728397,347.011432 L251.728397,355.324282 L249.668067,355.324282 L249.668067,347.011432 L246.627916,347.011432 L246.627916,345.205469 L254.771553,345.205469 L254.77005,347.011432 Z M268.562687,355.322776 L266.502358,355.322776 L266.502358,347.268996 L266.452765,347.268996 L263.52833,355.322776 L261.534123,355.322776 L258.726905,347.268996 L258.677313,347.268996 L258.677313,355.322776 L256.616983,355.322776 L256.616983,345.203963 L260.172592,345.203963 L262.51695,351.808755 L262.583073,351.808755 L265.008581,345.203963 L268.56419,345.203963 L268.56419,355.322776 L268.562687,355.322776 Z" id="Shape" fill="#003263"></path>
                </g>
            </g>
        </g>
    </g>
</svg>