<?xml version="1.0" encoding="UTF-8" standalone="no"?>
<svg width="512px" height="512px" viewBox="0 0 512 512" version="1.1" xmlns="http://www.w3.org/2000/svg" xmlns:xlink="http://www.w3.org/1999/xlink" xmlns:sketch="http://www.bohemiancoding.com/sketch/ns">
    <!-- Generator: Sketch 3.3.1 (12002) - http://www.bohemiancoding.com/sketch -->
    <title>pittsburgh-pirates</title>
    <desc>Created with Sketch.</desc>
    <defs></defs>
    <g id="MLB" stroke="none" stroke-width="1" fill="none" fill-rule="evenodd" sketch:type="MSPage">
        <g id="pittsburgh-pirates" sketch:type="MSArtboardGroup">
            <g sketch:type="MSLayerGroup" transform="translate(136.000000, 87.000000)" id="Shape">
                <path d="M54.1867808,32.7790804 C93.5655866,32.8562634 132.945403,32.7846295 172.324209,32.812375 C178.554067,33.2280536 184.860213,35.0128482 189.857336,38.8659464 C196.225119,43.5337545 199.778831,51.394317 199.846025,59.205442 L199.839457,121.847799 C199.778326,127.413554 200.290113,133.173022 198.323294,138.511768 C196.763683,143.639647 192.771441,147.852933 187.947102,150.108897 C182.93937,152.536884 177.298597,153.268357 171.790697,153.423732 C132.550322,153.418183 93.3099457,153.43483 54.0690647,153.418183 C54.0523925,120.904955 54.0690647,88.3977813 54.0635073,55.8845536 C54.1473737,48.1899598 53.9033528,40.4459286 54.1867808,32.7790804 L54.1867808,32.7790804 Z" fill="#FFFFFE" sketch:type="MSShapeGroup"></path>
                <path d="M181.993094,0 L182.165374,0 C182.300772,1.37416071 182.69737,2.78464286 183.526939,3.90203125 C183.831081,5.21565625 184.137749,6.55147768 184.84253,7.72486161 C192.785081,25.9506518 206.397708,41.9557902 223.890923,51.6324241 C228.974438,54.4306875 234.421207,56.5448973 240.04076,58.0068348 C231.958768,71.5486741 227.901858,87.2087589 227.011157,102.872879 C226.610518,109.397116 226.511495,115.976339 227.202129,122.486451 C228.628868,137.373192 233.997328,151.68333 241.542271,164.521442 L241.542271,165.229205 C224.199106,169.559527 207.545061,178.118772 195.392013,191.404344 C189.511261,197.848875 184.847077,205.457205 182.128493,213.769263 C178.49142,210.602741 174.881123,207.316156 170.661532,204.912888 C164.93942,201.486063 158.484739,199.361763 151.886071,198.500643 C144.359315,197.355004 136.734042,197.820625 129.14666,197.727804 C107.451537,197.79742 85.7564134,197.620353 64.0623006,197.633973 C64.0572484,223.022147 64.0663424,248.409313 64.0572484,273.796982 C64.0476493,284.396281 70.8660877,294.733763 80.7906138,298.63075 C75.3387933,312.121134 69.659119,325.527777 64.1603132,338.998991 L16.8667432,338.998991 C11.2239499,325.639263 5.84235491,312.167545 0.171269311,298.821942 C2.03704384,297.685384 4.13067223,296.829813 5.85144885,295.418321 C11.6948142,291.213107 15.6496701,284.544594 16.624238,277.424585 C16.6151441,276.773321 16.8576493,276.218411 17.235048,275.715964 C17.2163549,210.202196 17.230501,144.688933 17.2254489,79.1751652 C16.4792401,78.1228527 16.6798121,76.6417455 16.2695741,75.3937009 C14.5674906,66.7602991 8.14564927,59.5333438 0.180363257,56.0036071 C5.76707724,42.1368929 11.3356033,28.2555491 16.8566388,14.3600804 C19.0998121,14.0574018 21.4505971,14.3272902 23.7357035,14.2339643 C50.1637203,14.2808795 76.5922422,14.1270179 103.01167,14.3409107 C116.223658,14.3409107 129.43514,14.3358661 142.65218,14.3409107 C150.505812,14.2107589 158.507474,13.5398214 165.913482,10.7228929 C170.506935,9.02789286 174.695203,6.38248214 178.477273,3.30474554 C179.652413,2.28925893 180.752781,1.17641071 182.036038,0.292084821 L181.993094,6.45198181e-14 L181.993094,0 Z" fill="#FDB829" sketch:type="MSShapeGroup"></path>
                <path d="M64.429595,54.6541652 C97.5078121,54.7187366 130.586534,54.6592098 163.664752,54.6824152 C168.897812,55.0315045 174.195541,56.5307723 178.392397,59.7674152 C183.741658,63.6881116 186.726493,70.2910446 186.782572,76.8526116 L186.77752,129.472272 C186.725987,134.147143 187.155424,138.98546 185.503862,143.470147 C184.193829,147.777768 180.840689,151.316585 176.78782,153.211857 C172.581365,155.251406 167.84342,155.865844 163.217127,155.9965 C130.255111,155.99196 97.2930939,156.006085 64.3310772,155.99196 C64.3174363,128.680768 64.3310772,101.374621 64.3265303,74.063933 C64.3962505,67.5992232 64.1916367,61.0941562 64.429595,54.6541652 L64.429595,54.6541652 Z" fill="#FFFFFE" sketch:type="MSShapeGroup"></path>
                <path d="M90.6196534,324.811437 C92.116618,324.867433 93.6186347,324.774107 95.1150939,324.867433 C95.931023,327.363018 96.8778038,329.821272 97.7129311,332.312821 L98.2540209,332.480808 C99.1725094,329.924687 100.143035,327.382187 101.093858,324.834643 C102.581223,324.821022 104.069094,324.825058 105.561006,324.834643 C105.579699,329.029768 105.542313,333.230442 105.579699,337.431116 C104.698092,337.426576 103.817495,337.435656 102.939929,337.417496 C102.935382,334.684308 102.935382,331.951121 102.944476,329.221464 C102.767144,329.245174 102.403386,329.30117 102.226559,329.32942 C101.218647,332.030321 100.393624,334.824045 99.1901921,337.435656 C98.3505177,337.42708 97.5113486,337.435656 96.6772317,337.423045 C95.557666,334.348839 94.6154322,331.168696 93.3240919,328.183277 L93.1558539,337.450286 C92.3030438,337.423045 91.4492234,337.423045 90.5959081,337.441205 C90.6479457,333.229937 90.6014656,329.021192 90.6196534,324.811437 L90.6196534,324.811437 Z M78.0280752,324.815978 C81.4509353,324.852804 84.8788476,324.815978 88.3067599,324.834643 C88.3113069,325.612022 88.3158539,326.399491 88.325453,327.185951 C87.0568476,327.181411 85.7887474,327.185951 84.520142,327.162746 C84.4084885,330.576455 84.5105428,333.998237 84.4736618,337.415982 C83.5925595,337.434647 82.710952,337.425567 81.8338914,337.425567 C81.8621837,334.007821 81.8525846,330.584022 81.8434906,327.167286 C80.5657912,327.185951 79.2875866,327.171826 78.0098873,327.199571 C78.018476,326.404031 78.0280752,325.607987 78.0280752,324.815978 L78.0280752,324.815978 Z" fill="#FDB829" sketch:type="MSShapeGroup"></path>
            </g>
        </g>
    </g>
</svg>