<?xml version="1.0" encoding="UTF-8" standalone="no"?>
<svg width="512px" height="512px" viewBox="0 0 512 512" version="1.1" xmlns="http://www.w3.org/2000/svg" xmlns:xlink="http://www.w3.org/1999/xlink" xmlns:sketch="http://www.bohemiancoding.com/sketch/ns">
    <!-- Generator: Sketch 3.3.1 (12002) - http://www.bohemiancoding.com/sketch -->
    <title>st-louis-cardinals</title>
    <desc>Created with Sketch.</desc>
    <defs></defs>
    <g id="MLB" stroke="none" stroke-width="1" fill="none" fill-rule="evenodd" sketch:type="MSPage">
        <g id="st-louis-cardinals" sketch:type="MSArtboardGroup">
            <g sketch:type="MSLayerGroup" transform="translate(75.000000, 84.000000)" id="Group">
                <g sketch:type="MSShapeGroup">
                    <path d="M353.714065,297.090309 C351.052,295.76314 348.205419,295.010966 345.22129,294.835459 C344.947871,291.014415 343.698194,287.293662 342.631355,284.174647 C342.170065,282.824077 341.735613,281.548725 341.452129,280.483981 C340.111871,275.444415 339.749548,273.386802 340.952258,270.11401 C343.508645,263.140522 334.598194,259.130599 331.072258,257.542676 C331.072258,257.542676 329.980258,257.049585 329.986968,257.049585 C328.948645,256.581565 328.353161,256.81056 326.771355,257.418986 C325.489806,257.917092 324.013677,258.901604 322.074581,260.681749 C323.688258,258.035768 324.73329,254.709488 324.994968,251.1843 C326.043355,250.428783 327.016258,249.237005 327.802968,247.667469 C330.458323,242.387208 330.575742,233.605159 322.951871,224.784667 C319.860387,221.207662 298.144516,202.463488 279.03871,186.156357 L278.966581,186.092841 C285.686323,183.934937 295.962194,180.632058 295.87329,180.65713 C297.314194,180.274357 299.637419,179.202928 301.767742,181.12515 C303.649806,182.945411 307.341806,183.612338 310.532258,181.37086 C316.066065,177.492986 312.999742,168.961662 311.864129,165.782473 C309.87471,160.196329 307.065032,158.090242 305.053806,157.307981 C303.102968,156.549121 301.039742,156.505662 299.26,157.451729 C296.492258,158.920976 295.817935,161.28113 295.499226,163.21171 C295.14529,165.311111 291.788774,165.799188 285.818839,167.29685 C285.818839,167.29685 265.356,172.859594 263.9,173.272454 L263.794323,173.183865 L258.835871,168.983391 C257.87471,167.395469 255.972516,164.553923 253.731484,162.738676 C253.345677,156.361913 248.377161,148.771643 244.301032,145.667671 C244.089677,141.229845 240.515097,134.801266 236.705677,132.461169 C219.616129,102.405971 204.346581,83.1152174 190.054968,73.5224928 L189.586968,73.2115942 C187.025548,71.4999807 186.812516,71.2576135 186.711871,69.92543 C185.832903,58.0811981 182.649161,46.7283865 178.61329,40.6374493 C180.206839,38.0817295 182.618968,33.5335845 184.289677,27.2236812 C184.289677,27.2236812 186.091226,20.414 186.091226,20.417343 L184.024645,21.7796135 C184.549677,20.0629855 185.07471,18.0137295 185.582968,15.5298841 L185.628258,15.200599 C185.780903,13.158029 184.395355,12.3908116 183.965935,12.2052754 C183.786452,12.126715 183.617032,12.086599 183.445935,12.0464831 C183.598581,9.78828986 183.370452,7.07043478 182.196258,4.06842512 L180.607742,0 L177.684,3.24270531 C171.700645,9.88189372 162.600645,13.3435652 154.565806,16.3957198 C152.727355,17.0944058 150.986194,17.7613333 149.33729,18.4382899 C136.234968,23.8338841 128.133032,29.6122512 120.494065,45.9427826 C120.314581,46.0932174 120.116645,46.2603671 119.896903,46.4442319 C116.426323,49.3526377 109.198323,55.4084734 105.105419,67.3997971 L104.426065,69.3905507 L106.200774,70.5238261 C110.421161,73.2099227 114.975355,75.1003865 120.735613,77.1111981 C99.1270968,125.241971 140.259097,153.797836 174.679742,171.290058 C172.68529,174.945623 171.08671,178.362164 170.665677,182.392145 L155.243484,198.587285 C153.758968,198.975072 150.957677,199.889382 149.330581,201.622725 C148.773677,202.206077 148.257032,203.005053 147.778968,203.981208 C147.351226,204.07314 146.975484,204.153372 146.650065,204.216889 C137.008258,206.144126 121.602839,209.655942 80.724129,220.968638 C74.8145806,215.564686 64.9731613,212.103014 55.2910968,212.103014 C39.9544516,212.103014 30.0526452,220.311739 19.8975484,232.640705 C5.24193548,250.43714 -11.315871,299.147923 10.6247742,324.932444 C14.3738065,329.343527 28.4825806,343.567971 52.655871,341.729324 C59.1273548,341.236232 63.9700645,340.166473 68.244129,339.228763 C76.6849032,337.378415 80.5362581,336.527623 88.9434839,342.157227 L92.3050323,344.412077 L95.4837419,341.908174 C100.271097,338.137275 108.403226,339.405942 114.950194,340.923662 L127.636516,343.872184 L120.983871,332.709923 C112.106968,317.821894 99.5296774,315.687391 86.8433548,316.788908 C93.9858065,314.803169 98.7261935,308.483237 102.185032,300.991585 C101.725419,305.925845 102.577548,311.171005 107.254194,314.483913 C114.794194,319.819333 124.241419,317.480908 131.231226,313.168444 C134.542452,315.978232 138.977548,317.622986 143.067097,317.445807 C146.614839,317.377275 149.66271,316.681932 152.516,315.296261 C154.408129,316.626773 156.528387,317.420734 158.839871,317.648058 C162.672774,318.022473 166.772387,316.780551 171.058194,313.990821 C173.287484,316.217256 176.207871,317.432435 179.532516,317.447478 C181.080774,317.455836 182.697806,317.24857 184.334968,316.83571 L184.170581,317.447478 L207.248516,317.447478 L210.351742,306.138126 C210.626839,308.371246 211.297806,310.509092 212.597806,312.384512 C214.037032,314.450483 216.828258,317.00286 221.962839,317.42742 C227.461419,317.880396 234.055355,315.817768 239.374452,312.098686 C245.154839,317.768406 252.446581,318.692744 261.112129,314.824899 C262.828129,316.294145 265.783742,318.022473 270.222194,317.41572 C273.26671,317.211797 276.333032,315.919729 279.521806,313.52113 C282.150323,316.111952 285.537032,317.502638 289.326323,317.447478 C295.568,317.352203 300.816645,313.638135 304.933032,309.812077 C309.467097,314.437111 316.351226,319.149063 326.912258,317.368918 C328.733935,317.063034 330.231871,316.666889 331.555355,316.312531 C335.046065,315.378164 335.495613,315.262831 338.281806,317.611285 L346.526323,324.568058 L347.388516,314.054338 C347.546194,313.531159 348.695226,310.335256 354.292774,306.664647 L362.32929,301.379372 L353.714065,297.090309 L353.714065,297.090309 Z M73.1354839,318.808077 C61.4539355,320.902464 49.3781935,323.06371 39.0503226,317.968986 C31.6780645,314.341836 25.7584516,304.349623 25.5705806,295.226589 C25.3978065,286.966048 26.5049032,278.379565 29.4990968,269.328406 C30.347871,270.234357 31.3845161,270.742493 32.4178065,271.115237 C34.7242581,271.949314 38.0505806,271.914213 40.8250323,270.979845 C45.1225806,269.542357 49.2976774,268.131614 53.383871,266.744271 C53.1523871,266.988309 52.9192258,267.205604 52.6894194,267.461343 C43.9802581,277.211188 40.3536774,288.741179 42.5510968,299.391961 C41.2980645,300.147478 39.551871,301.108589 37.6882581,301.99114 C37.6882581,301.99114 32.8807742,304.271063 32.6492903,304.391411 L31.3459355,305.170329 L31.3459355,306.688048 C31.3409032,308.205768 31.3409032,308.205768 37.1565161,311.694184 C37.1783226,311.710899 39.5770323,313.272077 40.8954839,316.00999 L42.4470968,319.244338 L46.0418065,319.152406 C49.3261935,319.073845 51.9362581,317.298715 53.5516129,315.882957 C59.1089032,318.301614 64.9832258,317.733304 70.1362581,314.273304 C74.4925161,316.860783 79.0165161,317.368918 81.3548387,317.437449 C78.5803871,317.835266 75.8277419,318.326686 73.1354839,318.808077 L73.1354839,318.808077 Z M277.963484,258.587362 L263.254194,258.587362 L263.133419,259.055382 C261.204387,258.749498 259.102581,258.789614 256.916903,259.19913 C248.762968,260.725208 242.526323,265.641082 238.220387,273.824734 C238.698452,269.557401 238.20529,266.239478 236.182323,263.660357 C233.835613,260.676734 230.527742,259.00858 226.614323,258.84143 C225.190194,258.781256 223.700645,258.933362 222.180903,259.279362 L222.288258,258.814686 L200.396258,258.814686 L200.408,258.77457 L197.490968,258.77457 C201.451355,256.840647 204.193935,252.795623 204.193935,248.110415 C204.193935,241.561488 198.846323,236.231082 192.272516,236.231082 C187.25871,236.231082 182.966194,239.336725 181.209935,243.71772 L184.511097,230.82713 L158.863355,240.899575 L154.673161,259.200802 C145.767742,257.920435 139.755871,262.575556 135.968258,267.239034 C136.640903,266.008812 137.70271,264.069874 137.613806,264.21028 L140.213806,260.051594 L114.933419,260.038222 L115.644645,257.360483 L95.2790968,257.360483 C95.2790968,257.360483 91.468,272.61457 89.7218065,278.030222 C90.6125161,274.11056 94.2055484,258.789614 94.2055484,258.789614 L76.6698065,258.789614 C114.091355,245.875623 140.49729,236.077304 155.370968,229.570164 C162.325548,226.526367 197.272903,213.866444 208.966194,209.667643 C217.796129,206.500155 228.44271,202.829546 240.598968,198.752763 C248.645548,210.95971 269.24929,242.016135 281.600129,258.632493 C280.838581,258.590705 279.713032,258.587362 277.963484,258.587362 L277.963484,258.587362 Z M194.974839,180.235913 L196.531484,180.909527 L185.031097,191.944754 C180.431613,191.944754 178.861548,196.517971 178.861548,196.517971 L170.628774,198.806251 C170.256387,198.431836 168.258581,198.263014 168.258581,198.263014 L178.568,189.342232 C187.017161,186.744725 194.974839,180.235913 194.974839,180.235913 L194.974839,180.235913 Z M204.920258,184.018512 L214.865677,187.359836 L201.065548,190.828193 C201.065548,190.828193 199.94671,190.086048 198.452129,189.960686 L204.920258,184.018512 L204.920258,184.018512 Z" id="Shape" fill="#FFFFFF"></path>
                    <path d="M352.511355,299.485565 C348.888129,297.682019 345.350452,297.344377 342.552516,297.511527 C342.886323,293.279295 341.376645,288.833111 340.081677,285.045498 C339.60529,283.648126 339.152387,282.327643 338.847097,281.172638 C337.516903,276.166502 336.894581,273.360058 338.424387,269.193014 C340.123613,264.561295 333.122065,261.413865 330.134581,260.061623 L328.868129,259.493314 C328.859742,259.489971 327.739226,259.917874 327.739226,259.917874 C323.842581,261.423894 315.883226,270.861169 301.613419,288.913343 C299.939355,291.03113 298.238452,293.185691 296.876387,294.872232 C297.760387,290.870667 300.622065,277.91656 301.995871,271.703604 C307.492774,272.205053 311.736645,268.733353 312.766581,263.503237 C317.332516,264.631498 322.391613,257.940493 322.391613,249.429227 C324.797032,249.593034 331.661032,238.975681 320.912129,226.534725 C317.637806,222.743768 291.508645,200.310599 273.624,185.068213 L273.560258,185.013053 L295.177161,178.066309 C296.515742,177.708609 298.969806,177.136957 300.177548,177.240589 C300.954194,177.304106 302.624903,178.437382 303.438452,179.331633 C304.228516,180.097179 306.399097,181.054947 308.948774,179.204599 C312.395871,176.709053 310.814065,170.860483 309.327871,166.680068 C307.67729,162.050019 305.627484,160.05258 304.139613,159.470899 C302.926839,159.002879 301.522839,158.85913 300.177548,159.559488 C297.077677,161.155768 298.510194,164.502106 296.810968,165.782473 C296.810968,165.782473 296.322839,167.273449 286.687742,169.611874 L264.547484,175.883333 L263.252516,176.249391 L263.146839,176.157459 C259.204903,172.814464 256.757548,170.750164 256.757548,170.750164 C255.204258,168.102512 253.008516,165.210821 251.04929,164.129362 C251.495484,157.645623 244.886452,148.626222 241.509806,147.068386 C242.435742,144.21514 238.562581,136.136792 234.748129,134.455266 C222.575097,112.968164 206.070968,87.5095845 188.550323,75.7522705 C185.752387,73.8768502 184.244387,73.0344155 184.026323,70.1260097 C183.045032,56.8576618 179.274194,45.4145894 175.342323,40.7143382 C176.788258,38.6851401 179.762323,33.8177391 181.684645,26.5450531 C181.684645,26.5450531 179.446968,28.0276715 177.736,28.5675652 C178.656903,27.5145217 180.916387,24.9471014 182.941032,15.0067053 C183.03329,13.7982126 182.008387,16.0547343 179.581161,17.4454203 C179.975355,15.7053913 182.041935,11.072 179.686839,5.04123671 C171.846581,13.7346957 159.291097,17.2398261 150.363871,20.9187923 C136.810323,26.4965797 129.714839,32.3217488 122.678065,47.6042512 C120.185419,49.840715 111.994581,55.5438647 107.648387,68.2622899 C111.982839,71.0236039 116.693032,72.9140676 123.377548,75.1873043 C123.377548,75.1873043 123.431226,77.3251498 123.471484,77.5625024 C103.151226,121.8037 136.64929,149.370039 178.383484,170.15344 C175.692903,174.969024 173.487097,178.798425 173.247226,183.573894 L156.647484,201.005942 C156.647484,201.005942 152.861548,201.78486 151.288129,203.458029 C150.593677,204.193488 150.036774,205.413681 149.689548,206.311275 C148.716645,206.525227 147.862839,206.712435 147.178452,206.851169 C137.070323,208.870338 120.796,212.649594 79.9390968,223.968976 C79.8015484,223.820213 79.6656774,223.666435 79.5264516,223.522686 C74.1939355,218.217353 64.6829677,214.784097 55.2894194,214.784097 C41.0095484,214.784097 31.6461935,222.605034 21.9792258,234.340618 C7.80335484,251.550357 -8.32503226,298.517768 12.6779355,323.199101 C16.2156129,327.362802 29.5494194,340.799971 52.447871,339.051585 C58.7298065,338.575208 63.4752258,337.530522 67.6620645,336.61287 C76.3141935,334.704019 81.0814194,333.664348 90.4430968,339.929121 L92.1741935,341.085797 L93.8130323,339.797072 C99.5011613,335.322473 108.421677,336.649643 115.559097,338.302754 L122.096,339.823816 L118.667355,334.075536 C107.519226,315.374821 90.2803871,318.463749 73.6135484,321.447372 C61.5025806,323.616976 48.9806452,325.858454 37.8593548,320.374271 C29.5309677,316.272415 23.0913548,305.481227 22.88,295.280077 C22.672,285.231034 24.9549677,274.072116 28.4540645,264.466019 C31.2067097,268.002908 34.7007742,269.901729 37.8643871,269.067652 C38.2887742,268.957333 38.6812903,268.805227 39.0587097,268.638077 C39.3690323,268.594618 39.6743226,268.534444 39.9661935,268.430812 C96.6495484,249.402483 135.116129,235.495623 154.287355,227.106377 C161.312387,224.035836 196.340258,211.340812 208.057032,207.136995 C218.440258,203.411227 230.209032,199.384589 241.712774,195.53513 C248.633806,206.065565 275.913677,247.348213 287.768,262.273014 C285.431355,275.989324 281.36529,292.328213 274.476129,296.557101 C274.182581,296.739295 273.826968,296.969961 273.521677,297.155498 C275.017935,289.149024 279.966323,267.979507 280.742968,264.793633 L281.601806,261.270116 L265.344258,261.265101 L265.069161,262.329845 C262.960645,261.487411 260.347226,261.281816 257.415097,261.830068 C244.826065,264.190222 237.192129,275.743614 234.717935,296.176 C234.672645,296.542058 234.625677,296.923159 234.585419,297.217343 C232.131355,300.030473 230.198968,300.570367 229.620258,300.356415 C229.415613,300.276184 229.375355,299.819865 229.383742,299.560783 C229.470968,297.137111 230.794452,292.590638 232.074323,288.187913 C235.331871,276.992222 237.23071,269.343449 234.067097,265.308454 C232.216903,262.96 229.603484,261.646203 226.503613,261.512483 C223.781161,261.398821 220.979871,262.20114 218.440258,263.464792 L218.899871,261.492425 L202.031742,261.492425 L201.562065,263.765662 C199.641419,273.02743 194.050581,292.647469 190.214323,297.125411 C189.457806,298.007961 187.961548,298.556213 186.924903,298.69829 C187.983355,293.628638 192.764,276.069556 195.848774,265.064415 L196.863613,261.448966 L179.758968,261.443952 L179.257419,263.673729 C179.200387,263.922783 173.626323,288.582386 169.273419,296.149256 C168.023742,298.31886 166.854581,298.917256 166.411742,298.778522 C166.121548,298.689932 165.836387,298.230271 165.883355,297.633546 C166.311097,291.85685 175.654323,254.530638 179.217161,240.63715 L180.601032,235.23487 L161.173161,242.863585 L156.701161,262.388348 C156.122452,262.199469 155.478323,262.030647 154.746968,261.903614 C142.248516,259.810899 136.161161,271.170396 133.871484,275.446087 C130.937677,280.921913 127.977032,289.926271 127.70529,297.076937 C125.892,299.206425 123.681161,300.827778 122.936387,300.734174 C122.31071,300.650599 122.149677,300.423275 122.007097,300.144135 C119.640258,295.512415 127.051097,277.933275 133.073032,266.926464 L135.377806,262.707604 L111.441032,262.715961 L112.148903,260.034879 L97.416129,260.034879 L96.9011613,262.239585 C93.8952258,275.096744 88.5090323,291.960483 83.7787097,298.584628 C83.2134194,299.380261 82.7169032,299.796464 82.3830968,300.003729 C82.6766452,296.951575 86.4458065,279.960802 89.9834839,264.96914 L90.8104516,261.46401 L73.9741935,261.46401 L73.2579355,264.186879 C67.7979355,262.179411 60.6470968,262.572213 54.6989677,269.236473 C46.0183226,278.95456 42.7607742,290.295671 45.6006452,300.590425 C44.3392258,301.531478 41.5580645,303.117729 38.8406452,304.404783 L34.0348387,306.681362 L38.5940645,309.419275 C38.6108387,309.430976 41.6301935,311.318097 43.3210323,314.843285 L44.1211613,316.506425 L45.9730323,316.464638 C49.0578065,316.387749 51.4682581,314.26829 53.0366452,312.633565 C58.6861935,315.816097 64.8809032,315.221043 70.0473548,310.997169 C74.7172903,314.450483 80.2091613,314.753024 81.9704516,314.753024 C96.4163871,314.753024 101.941806,295.692937 105.974323,281.772705 C106.511097,279.919014 107.026065,278.148899 107.524258,276.552618 L113.058065,276.552618 C112.717548,277.378338 112.360258,278.234145 111.992903,279.115024 C110.385935,282.966155 108.565935,287.332106 107.158581,291.587739 C105.591871,296.324763 101.931742,307.418493 108.814194,312.289237 C115.597677,317.089778 124.813419,314.539072 131.546581,309.746889 C134.747097,313.370696 139.433806,314.913488 143.015097,314.754696 C146.770839,314.682821 149.897548,313.835372 152.809548,312.086986 C154.622839,313.768512 156.729677,314.737981 159.101548,314.968647 C163.54,315.398222 167.985161,313.076512 171.556387,310.358657 C173.354581,313.165101 176.112258,314.737981 179.544258,314.754696 C182.384129,314.769739 185.385032,313.962406 188.307097,312.499845 L187.691484,314.754696 L205.200387,314.754696 L210.868387,294.084957 C214.149419,280.916899 217.433806,279.390821 218.059484,279.215314 C218.339613,279.140097 218.566065,279.2103 218.723742,279.295546 C218.710323,280.161382 217.989032,282.354386 217.341548,284.33344 C216.751097,286.116928 216.023097,288.338348 215.276645,291.001043 L215.060258,291.754889 C213.595871,296.921488 211.136774,305.559787 214.815355,310.848406 C215.924129,312.441343 218.103097,314.408696 222.18929,314.746338 C227.796903,315.209343 234.774968,312.61685 239.696516,308.479894 C246.718194,317.051333 255.145548,314.913488 261.664,311.585536 C263.467226,313.57629 265.892774,315.294589 270.049419,314.729623 C273.697806,314.490599 277.042581,312.294251 279.865677,309.778647 C282.108387,313.036396 285.397806,314.813198 289.291097,314.754696 C295.608258,314.662763 300.895484,310.153063 305.052129,305.952589 C310.128,311.832918 316.446839,316.406135 326.471097,314.717923 C328.170323,314.427082 329.601161,314.050995 330.864258,313.711681 C334.611613,312.708783 336.163226,312.295923 340.028,315.555343 L344.273548,319.140705 L344.728129,313.613063 C344.726452,313.644821 345.407484,309.277198 352.816645,304.414812 L356.956516,301.691942 L352.511355,299.485565 L352.511355,299.485565 Z M186.824258,193.719884 C184.839871,194.109343 183.877032,194.386812 182.533419,195.628734 C181.589032,196.499585 180.943226,197.718106 180.601032,198.624058 C176.860387,199.593527 173.005677,200.57971 169.26671,201.524106 C168.412903,201.022657 166.775742,200.364087 164.242839,200.54628 C164.011355,200.522879 163.33871,200.404203 163.394065,199.703845 C163.439355,199.097092 177.366968,186.532444 177.366968,186.532444 C181.256903,185.740155 195.518323,177.481285 195.518323,177.481285 L199.882968,179.258087 L199.560903,179.973488 L198.938581,181.06999 L187.647871,193.021198 C187.402968,193.291981 187.169806,193.653024 186.824258,193.719884 L186.824258,193.719884 Z M199.893032,193.574464 C198.908387,192.850705 197.870065,192.426145 196.905548,192.449546 C193.287355,192.504705 194.518581,191.194251 195.342194,190.259884 L205.022581,181.252184 C205.022581,181.252184 212.654839,184.414657 221.820258,187.617246 C208.543484,191.246068 201.340645,193.188348 199.893032,193.574464 L199.893032,193.574464 Z M51.1327742,311.421729 L50.9482581,311.294696 C51.0086452,311.339826 51.0707097,311.374928 51.1327742,311.421729 L51.1327742,311.421729 L51.1327742,311.421729 Z M62.4184516,299.279971 C62.3832258,299.279971 62.3295484,299.279971 62.1987097,299.116164 C62.0108387,298.87714 60.4340645,296.553758 62.4855484,288.403536 C64.0019355,282.391159 66.2245161,278.367865 68.7406452,277.060754 C69.2254194,276.810029 69.9030968,276.550947 70.8726452,276.58772 C69.5793548,287.776725 66.0114839,299.279971 62.4184516,299.279971 L62.4184516,299.279971 Z M151.623613,288.400193 C150.898968,291.273498 150.154194,294.248763 149.486581,297.312618 C149.392645,297.753894 148.235226,298.668203 146.629935,298.816966 C146.051226,298.880483 145.012903,298.833681 144.784774,298.300473 C143.337161,294.979208 145.328258,284.263237 150.003226,278.727237 C151.383742,277.097527 152.744129,276.263449 154.059226,276.216647 C154.112903,278.486541 152.692129,284.139546 151.623613,288.400193 L151.623613,288.400193 Z M252.943097,299.373575 C252.907871,299.373575 252.850839,299.373575 252.721677,299.203082 C252.535484,298.967401 250.95871,296.639005 253.010194,288.493797 C254.560129,282.359401 256.616645,278.591845 259.129419,277.301449 C259.978194,276.863517 260.94271,276.749855 262.011226,276.876889 C260.533419,288.154483 256.754194,299.373575 252.943097,299.373575 L252.943097,299.373575 Z M326.707613,299.920155 C326.043355,300.560338 324.773548,300.996599 323.414839,301.02 C321.73071,301.058444 320.174065,300.518551 319.150839,299.534039 C313.945806,294.669981 313.945806,294.669981 316.455226,291.427275 C318.073935,289.329546 319.49471,287.382251 320.870194,285.490116 C322.086323,283.813604 323.233677,282.259111 324.377677,280.788193 C324.775226,283.693256 325.610581,286.392725 326.39729,288.913343 C328.017677,294.130087 328.827871,297.232386 326.707613,299.920155 L326.707613,299.920155 Z" id="Shape" fill="#003263"></path>
                    <path d="M201.501677,248.110415 C201.501677,243.040763 197.360129,238.912164 192.272516,238.912164 C187.188258,238.912164 183.04671,243.040763 183.04671,248.110415 C183.04671,253.180068 187.188258,257.305324 192.272516,257.305324 C197.360129,257.305324 201.501677,253.180068 201.501677,248.110415 L201.501677,248.110415 Z" id="Shape" fill="#003263"></path>
                    <path d="M171.45071,218.260812 C181.402839,214.56513 192.690194,210.464947 198.876516,208.231826 L200.122839,207.77885 C201.546968,205.186357 201.473161,200.03313 198.84129,197.9003 C198.255871,197.423923 197.422194,197.082937 196.620387,196.835556 C195.741419,197.049507 194.996645,197.193256 194.563871,197.184899 C193.168258,197.545942 175.442968,202.132531 171.50271,203.152145 C175.614065,206.739179 176.303484,214.072039 171.45071,218.260812 L171.45071,218.260812 Z" id="Shape" fill="#FFF100"></path>
                    <path d="M202.135742,207.051749 C204.257677,206.289546 207.045548,205.283304 207.045548,205.283304 C216.346839,201.945324 227.565419,198.074135 240.390968,193.783401 C240.390968,193.783401 240.444645,193.763343 240.526839,193.741614 C240.250065,193.315382 240.089032,193.069671 240.089032,193.069671 C235.571742,192.068444 230.386839,190.498908 225.403226,188.834097 L202.23471,195.147343 C202.068645,195.202502 201.884129,195.262676 201.684516,195.326193 C204.291226,198.522097 205.633161,203.650251 202.135742,207.051749 L202.135742,207.051749 Z" id="Shape" fill="#FFF100"></path>
                    <path d="M124.930839,72.3691594 C124.930839,72.3691594 131.387226,74.8998068 133.257548,66.7462415 C134.27071,62.3201159 130.919226,55.9149372 126.609935,57.7101256 C126.568,57.7251691 127.383226,53.0416329 123.763355,51.4470242 C114.837806,56.9061353 110.825419,67.0220386 110.825419,67.0220386 C118.680774,65.3538841 119.908645,63.1040483 125.886968,63.6205411 C128.020645,63.8027343 129.033806,64.7805604 130.733032,66.0241546 C128.133032,65.4408019 126.126839,65.3054106 123.941161,65.2586087 C120.9,65.1867343 114.886452,67.3128792 111.835226,67.6154203 C111.835226,67.6170918 121.852774,71.9111691 124.930839,72.3691594 L124.930839,72.3691594 L124.930839,72.3691594 Z" id="Shape" fill="#FFF200"></path>
                    <path d="M195.261677,130.186261 C192.557677,130.624193 189.191097,130.726155 184.041419,128.807275 C183.841806,130.258135 180.034065,132.395981 178.31471,132.705208 C190.74271,143.227285 234.511613,159.470899 247.018452,162.391005 C249.029677,162.855681 246.102581,153.888097 240.604,150.214145 C236.576516,147.509662 211.286065,141.686164 195.261677,130.186261 L195.261677,130.186261 L195.261677,130.186261 Z" id="Shape" fill="#CD1141"></path>
                    <path d="M198.655097,129.352184 C215.940903,139.586763 234.390839,145.166222 238.431742,146.334599 C239.268774,145.742889 237.155226,137.873478 231.369806,135.829237 C222.729419,132.768725 215.53329,129.734957 210.425548,126.539053 C208.625677,127.52858 205.950194,128.105246 201.102452,126.164638 C200.912903,127.356415 200.550581,128.501391 198.655097,129.352184 L198.655097,129.352184 L198.655097,129.352184 Z" id="Shape" fill="#CD1141"></path>
                    <path d="M145.334968,58.8868599 C144.450968,60.3176618 142.807097,61.2202705 141.008903,61.0965797 C138.432387,60.9177295 136.491613,58.6929662 136.669419,56.1205314 C136.850581,53.5531111 139.086581,51.6191884 141.663097,51.7980386 C143.37071,51.916715 144.801548,52.934657 145.519484,54.3571014 C142.297161,54.0111014 141.592645,57.1150725 141.592645,57.1150725 C139.505935,54.5643671 142.201548,53.0984638 142.201548,53.0984638 C140.411742,52.8627826 138.704129,54.2217101 138.559871,56.2726377 C138.41729,58.3235652 139.968903,60.1037101 142.025419,60.2457874 C143.412645,60.3410628 144.612,59.888087 145.334968,58.8868599 L145.334968,58.8868599 L145.334968,58.8868599 Z" id="Shape" fill="#FFFFFF"></path>
                    <path d="M352.955871,285.699053 L350.899355,285.699053 L350.899355,291.261797 L349.512129,291.261797 L349.512129,285.699053 L347.460645,285.699053 L347.460645,284.482203 L352.954194,284.482203 L352.954194,285.699053 L352.955871,285.699053 Z M362.255484,291.256783 L360.868258,291.256783 L360.868258,285.864531 L360.83471,285.864531 L358.865419,291.256783 L357.525161,291.256783 L355.617935,285.864531 L355.587742,285.864531 L355.587742,291.261797 L354.198839,291.261797 L354.198839,284.482203 L356.605935,284.482203 L358.186065,288.915014 L358.217935,288.915014 L359.865161,284.482203 L362.253806,284.482203 L362.253806,291.256783 L362.255484,291.256783 Z" id="Shape" fill="#003263"></path>
                    <path d="M121.844387,93.7091691 C123.827097,89.7828213 134.661548,75.2090338 145.455742,75.2090338 C144.596903,73.1748213 145.657032,61.1283382 154.837548,51.9568309 C152.752516,52.4499227 149.936129,51.7345217 147.924903,50.8837295 C147.168387,50.3755942 146.265935,49.4211691 144.601935,48.460058 C142.322323,47.1479324 139.465677,47.7764155 137.362194,49.0233527 C136.122581,49.7554686 127.876387,49.5482029 126.556258,47.2983671 C130.075484,38.7954589 137.127355,29.9916812 150.724516,24.2835169 C159.995613,20.397285 170.845161,18.0655459 177.685677,10.9165507 C177.994323,21.9868792 161.500258,29.4735169 161.506968,29.4885604 C171.430581,27.2554396 178.209032,20.5243188 178.209032,20.6195942 C173.941677,31.6615072 163.313548,37.8477198 163.313548,37.8477198 C166.703613,37.2643671 173.232129,34.3743478 175.944516,32.2849758 C175.944516,32.2849758 174.748516,38.0583285 165.428774,46.2954686 C165.408645,46.2670531 170.076903,45.2541256 172.656774,43.243314 C177.306581,49.3258937 180.793935,59.8997874 181.042194,72.5831111 C181.090839,75.0385411 182.234839,80.4742512 183.544903,81.0943768 C185.428645,82.0003285 183.850194,78.2662029 184.355097,76.6281353 C203.298194,88.1347246 217.833032,111.229807 230.978968,133.193285 C226.689806,131.866116 217.47071,128.212222 212.052645,125.374019 C212.607871,124.770609 212.705161,124.28086 212.758839,123.553758 C213.064129,119.410116 209.39729,116.782522 207.528645,115.893285 C207.045548,115.660947 206.684903,115.774609 206.533935,115.97686 C206.377935,116.182454 206.450065,116.505053 206.58929,116.591971 C207.537032,117.235498 211.141806,119.405101 210.888516,122.958705 C210.819742,123.896415 209.511355,125.230271 207.634323,125.350618 C202.994581,125.84371 195.325419,121.878918 185.770839,112.110686 C185.472258,111.83656 184.980774,111.176319 184.336645,111.562435 C183.710968,111.945208 183.848516,112.436628 184.017935,112.69571 C188.926065,120.782415 198.931871,125.375691 198.931871,125.375691 C198.240774,128.16542 194.793677,128.275739 191.66529,128.180464 C179.837806,127.822763 171.846581,114.703179 169.676,111.350155 C169.256645,110.701614 168.802065,110.539478 168.412903,110.741729 C167.995226,110.96571 167.748645,111.142889 167.965032,111.808145 C168.302194,112.821072 173.032516,122.624406 181.446452,127.491807 C182.570323,128.138676 178.291226,130.836473 175.578839,130.772957 C170.674065,130.65428 159.07471,126.132879 155.10929,109.165507 C155.060645,108.908097 154.819097,108.481865 154.233677,108.608899 C153.599613,108.752647 153.572774,109.188908 153.663355,109.697043 C155.916129,128.389401 169.761548,132.588203 174.948129,133.201643 C183.586839,141.707894 214.813677,155.870493 247.248258,165.366271 C253.35071,167.086242 259.585677,183.822947 254.763097,182.403845 C253.026968,181.910754 250.782581,181.068319 248.34529,180.2543 C232.357806,174.910522 208.083871,165.159005 181.867484,152.500754 C163.759742,143.750464 133.054581,124.050193 147.89471,96.5624155 C149.833806,92.4622319 151.913806,90.4681353 152.205677,90.1739517 C152.400258,90.0703188 152.541161,89.5621836 152.497548,89.3716329 C151.838323,87.5747729 150.085419,87.7268792 145.472516,95.4224541 C129.686323,125.639787 161.354323,145.373488 180.483613,154.837507 C192.827742,160.943488 214.577161,170.238686 230.044645,176.39314 L238.555871,190.129507 C230.703871,188.578357 205.337935,178.634618 197.912,175.296638 C197.912,175.296638 200.612645,172.908068 199.671613,170.674947 C199.01071,169.123797 198.634968,168.156 196.543226,166.394242 C194.339097,165.050357 193.785548,165.993082 194.745032,167.066184 C195.635742,168.059053 197.519484,171.111208 195.699484,173.208937 C192.703613,176.67228 184.202452,180.551826 179.386581,183.261324 C177.281419,183.682541 176.259871,183.635739 176.033419,181.832193 C175.749935,179.582357 178.968903,174.728329 182.776645,168.664135 C176.229677,165.63371 110.295355,137.064473 121.844387,93.7091691 L121.844387,93.7091691 L121.844387,93.7091691 Z" id="Shape" fill="#CD1141"></path>
                    <path d="M311.907742,259.505014 C316.866194,261.691333 320.412258,251.941488 318.503355,249.143401 C317.864258,248.197333 314.224258,244.247585 309.121548,238.835275 L306.055226,253.021275 C309.23729,256.838976 311.401161,259.274348 311.907742,259.505014 L311.907742,259.505014 Z" id="Shape" fill="#CD1141"></path>
                    <path d="M290.118065,245.44772 L290.418323,242.93713 L293.326968,241.807198 L255.437419,193.378899 L258.812387,193.378899 C258.812387,193.378899 280.39071,221.19429 296.066194,240.745797 L306.927484,236.515237 C291.042323,219.763488 264.586065,192.556522 264.586065,192.556522 L268.039871,192.648454 C268.023097,192.370986 319.264903,245.39256 319.264903,245.39256 C322.072903,248.53999 326.855226,237.882522 319.159226,229.354541 C314.910323,222.579961 258.597677,175.896705 258.597677,175.896705 C259.110968,177.009923 259.38271,178.455768 259.627613,179.799652 C261.82,190.194696 253.944516,184.431372 233.818839,177.680193 C249.953935,203.070242 274.524774,240.568618 288.440645,258.114329 C289.234065,252.924329 289.774194,248.387884 290.118065,245.44772 L290.118065,245.44772 Z" id="Shape" fill="#CD1141"></path>
                    <path d="M302.690323,268.556174 C306.818452,268.414097 310.995226,264.833749 308.93871,261.763208 L305.198065,256.979382 L302.690323,268.556174 L302.690323,268.556174 Z" id="Shape" fill="#CD1141"></path>
                    <path d="M338.624,301.083517 C341.738968,295.408783 337.563871,287.477527 336.084387,281.899739 C334.752516,276.896947 333.866839,273.311585 335.737161,268.213517 C336.562452,265.963681 329.888,263.085362 328.774194,262.578899 C323.081032,264.773575 298.644387,298.014647 296.101419,300.145807 C294.915484,301.138676 292.14271,302.739971 293.825161,295.432184 C293.825161,295.432184 306.098839,239.991952 306.011613,239.940135 L293.055226,244.971343 C291.600903,257.233449 287.752903,291.766589 275.972387,298.98913 C274.905548,299.641014 271.325935,302.283652 270.260774,300.21601 C269.672,299.079391 277.871226,264.487749 277.963484,264.116676 L267.560129,264.116676 L266.743226,267.284164 C265.030581,264.116676 260.702839,264.116676 257.940129,264.638184 C238.210323,268.325507 237.89329,297.51487 237.234065,298.53114 C231.515742,305.548087 226.369419,303.769614 226.522065,299.462164 C226.782065,292.003942 235.786452,272.139865 231.80929,267.075227 C227.432903,261.499111 218.411742,265.485633 213.896129,270.319604 L215.291742,264.344 L204.36,264.344 C202.788258,271.917556 197.095097,293.48656 192.388258,298.985787 C189.907355,301.877478 183.595226,302.728271 183.866968,299.637671 C184.182323,296.094097 193.091097,264.305556 193.091097,264.305556 L182.046968,264.305556 C182.046968,264.305556 176.370581,289.545169 171.752645,297.570029 C167.804,304.439884 162.728129,301.424502 163.025032,297.434638 C163.568516,290.140222 176.44271,239.940135 176.44271,239.940135 L163.623871,244.9797 L158.454065,267.548261 C158.454065,267.548261 158.412129,265.423787 154.267226,264.726773 C145.158839,263.197353 140.104774,269.8683 136.390968,276.798329 C133.616516,281.971614 130.538452,291.293556 130.538452,298.136667 C130.538452,298.136667 126.048,304.016995 122.565677,303.564019 C110.612387,302.014541 130.556903,265.570879 130.556903,265.570879 L107.727226,265.574222 L108.436774,262.89314 L99.6856774,262.89314 C97.2668387,273.264783 91.728,292.3817 86.1103226,300.252783 C83.064129,304.520116 79.6036129,303.328338 79.5063226,300.379816 C79.404,297.367778 87.1972903,264.328957 87.1972903,264.328957 L76.1816774,264.328957 L75.1383226,268.290406 C72.0485161,266.31971 63.9901935,263.123807 56.8343226,271.143652 C47.4843871,281.613913 45.9260645,292.739401 48.7323871,301.118618 C49.1215484,302.699855 40.0668387,306.992261 40.0668387,306.992261 C40.0668387,306.992261 43.7873548,309.225382 45.8992258,313.624763 C49.3698065,313.541188 52.2969032,308.782435 52.6676129,309.019787 C58.0169032,313.039739 64.5588387,312.98458 69.9886452,307.174454 C73.299871,310.656184 78.2482581,311.919836 81.9687742,311.919836 C96.8105806,311.919836 101.282581,285.881246 105.440903,273.71943 L117.25329,273.711072 C115.527226,278.431382 112.125419,285.670638 109.872645,292.493691 C107.509161,299.652715 106.064903,306.85687 110.468129,309.972541 C117.229806,314.756367 126.781032,310.385401 132.158839,305.636676 C134.41329,309.980899 139.116774,312.078628 142.88929,311.914821 C147.04929,311.839604 150.184387,310.763159 153.269161,308.327787 C159.024387,316.250686 167.805677,310.211565 172.641677,305.725266 C173.482065,309.041517 175.573806,311.899778 179.554323,311.914821 C184.271226,311.939894 189.256516,309.324 193.143097,305.619961 L191.428774,311.914821 L203.011355,311.914821 L208.102323,293.344483 C213.711613,270.85114 220.644387,276.826744 221.196258,277.724338 C222.477806,279.700048 220.354194,283.477633 218.025935,291.781633 C216.408903,297.538271 212.099613,311.064029 222.419097,311.914821 C228.333677,312.40457 236.083355,308.775749 240.075613,304.132329 C245.956645,313.579633 253.040387,313.313865 262.370194,307.966744 C264.393161,310.584309 265.906194,312.441343 269.67871,311.914821 C274.019871,311.732628 278.302323,307.485353 280.649032,305.029923 C281.967484,308.792464 284.718452,311.983353 289.239097,311.914821 C295.544516,311.822889 301.126968,305.965961 305.221548,301.66687 C310.770452,308.81085 316.376387,313.532831 325.98129,311.914821 C332.717806,310.783217 335.342968,307.889855 341.861419,313.394097 C341.861419,313.394097 342.312645,307.898213 351.229806,302.041285 C346.328387,299.597556 341.385032,300.232725 338.624,301.083517 L338.624,301.083517 Z M62.4184516,302.133217 C59.5383226,302.133217 57.0507097,298.277072 59.7144516,287.708193 C61.6334194,280.087836 65.7229677,271.235585 73.9708387,274.3897 C73.9708387,274.3897 71.6023226,302.133217 62.4184516,302.133217 L62.4184516,302.133217 Z M152.279484,297.911014 C151.476,301.638454 143.89071,303.418599 142.157935,299.437092 C139.261032,292.777845 145.895226,271.162039 155.625935,273.522193 C159.007613,274.342899 154.877806,285.951449 152.279484,297.911014 L152.279484,297.911014 Z M252.943097,302.22515 C250.064645,302.22515 247.573677,298.369005 250.237419,287.80514 C252.159742,280.183111 256.024516,271.188783 265.144645,274.747401 C265.142968,274.747401 262.370194,302.22515 252.943097,302.22515 L252.943097,302.22515 Z M328.848,301.830676 C326.375484,304.41314 320.494452,304.774184 317.166452,301.586638 C310.416516,295.273391 310.55071,294.385826 314.19071,289.687246 C319.42929,282.910995 322.842839,277.234589 327.529548,273.037459 C324.604129,284.816502 335.059484,294.265478 328.848,301.830676 L328.848,301.830676 Z" id="Shape" fill="#CD1141"></path>
                    <path d="M185.905032,248.110415 C185.905032,244.605285 188.758323,241.765411 192.272516,241.765411 C195.793419,241.765411 198.643355,244.605285 198.643355,248.110415 C198.643355,251.615546 195.793419,254.452077 192.272516,254.452077 C188.758323,254.450406 185.905032,251.613874 185.905032,248.110415 L185.905032,248.110415 L185.905032,248.110415 Z" id="Shape" fill="#CD1141"></path>
                    <path d="M265.099355,177.812242 L271.839226,183.450203 L294.558194,176.150773 C294.558194,176.150773 302.970452,174.061401 302.970452,170.12001 C302.970452,164.044116 306.134065,175.602522 304.845806,177.890802 C304.845806,177.890802 305.912645,178.91543 307.762839,177.581575 C309.61471,176.237691 309.277548,172.550367 307.427355,167.353681 C305.577161,162.156995 303.597806,161.027063 301.925419,161.33629 C299.840387,161.719063 299.774968,164.08256 299.774968,164.08256 C299.774968,164.08256 300.110452,166.176947 297.755355,167.942048 C296.557677,168.839643 292.984774,170.405836 287.24129,171.542454 L265.099355,177.812242 L265.099355,177.812242 Z" id="Shape" fill="#FFF100"></path>
                    <path d="M36.5895484,322.936676 C26.936,318.176251 20.2430968,306.245101 20.0166452,295.345266 C19.7885161,284.321739 22.4472258,272.059633 26.5082581,261.570986 C25.6259355,259.937932 24.887871,258.114329 24.3661935,256.143633 C22.224129,248.056928 24.9197419,239.936792 29.6936774,238.111517 C29.9503226,237.986155 30.2270968,237.88085 30.5307097,237.795604 C35.3516129,236.413275 39.9578065,235.228184 44.3794839,233.972889 C45.936129,232.598918 47.5045161,231.422184 49.0695484,230.507874 C54.6352258,227.258483 65.2868387,227.119749 71.5067097,231.637807 C68.619871,235.022589 66.1322581,239.630908 70.2184516,243.423536 C73.4156129,246.494077 78.676,245.23544 80.8365161,241.571517 C84.1695484,235.925198 81.4487742,229.580193 77.5034839,225.543527 C72.7630968,220.818203 64.0036129,217.635671 55.2894194,217.635671 C43.0274839,217.635671 34.3569032,223.810184 24.1900645,236.152522 C9.57470968,253.89714 -4.51225806,298.589643 14.8602581,321.358783 C21.351871,328.987498 34.4592258,337.567295 52.228129,336.21171 C71.6526452,334.734106 76.9298065,327.456406 92.0366452,337.568966 C99.1455484,331.969449 109.985032,334.092251 116.204903,335.538097 C98.436,305.731952 64.448129,336.661343 36.5895484,322.936676 L36.5895484,322.936676 Z" id="Shape" fill="#CD1141"></path>
                    <path d="M167.788903,206.24943 C166.941806,205.651034 165.670323,205.251546 164.611871,205.005836 L164.137161,205.005836 C162.359097,205.45714 160.916516,205.816512 160.916516,205.816512 C154.344387,207.446222 149.76,208.517652 147.292516,209.010744 C133.889935,211.691826 113.544516,216.866783 81.411871,225.762493 C84.8270968,230.355768 86.912129,236.896338 83.3006452,243.014019 C81.7389677,245.66 78.9695484,247.488618 75.8948387,247.909836 C73.0449032,248.299295 70.252,247.413401 68.2676129,245.506222 C65.9980645,243.40515 63.1850323,239.089343 67.2963871,232.533729 C65.6541935,231.830029 63.8174194,231.412155 61.9437419,231.20656 L30.8125161,240.050454 C30.6565161,240.098928 30.4971613,240.139043 30.3428387,240.177488 C26.3489032,241.623333 24.5456774,248.720512 26.3354839,255.466676 C28.1772903,262.420106 32.8740645,267.73714 37.1330323,266.62058 C41.392,265.504019 43.0459355,258.525517 41.2058065,251.573758 C40.4996129,248.911063 39.9192258,247.107517 38.5538065,245.160222 C38.5538065,245.160222 41.4674839,247.59058 42.8446452,253.507681 C44.0205161,258.582348 43.8427097,262.65913 42.4135484,265.412087 C97.167871,246.987169 134.42671,233.493169 153.145032,225.307845 C155.347484,224.343391 160.332774,222.407797 167.963355,219.559565 C167.963355,219.559565 168.726581,219.277082 169.312,219.054773 C171.058194,216.039391 171.400387,208.791778 167.788903,206.24943 L167.788903,206.24943 Z" id="Shape" fill="#FFF100"></path>
                </g>
            </g>
        </g>
    </g>
</svg>