<?xml version="1.0" encoding="UTF-8" standalone="no"?>
<svg width="512px" height="512px" viewBox="0 0 512 512" version="1.1" xmlns="http://www.w3.org/2000/svg" xmlns:xlink="http://www.w3.org/1999/xlink" xmlns:sketch="http://www.bohemiancoding.com/sketch/ns">
    <!-- Generator: Sketch 3.3.1 (12002) - http://www.bohemiancoding.com/sketch -->
    <title>texas-rangers</title>
    <desc>Created with Sketch.</desc>
    <defs></defs>
    <g id="MLB" stroke="none" stroke-width="1" fill="none" fill-rule="evenodd" sketch:type="MSPage">
        <g id="texas-rangers" sketch:type="MSArtboardGroup">
            <g sketch:type="MSLayerGroup" transform="translate(81.000000, 81.000000)" id="Group">
                <g sketch:type="MSShapeGroup">
                    <path d="M176.151394,1.20693776 C79.2301909,1.20693776 0.391082988,80.0680166 0.391082988,176.974573 C0.391082988,273.895776 79.2301909,352.742207 176.151394,352.742207 C273.072598,352.742207 351.911705,273.895776 351.911705,176.974573 C351.911705,80.0680166 273.072598,1.20693776 176.151394,1.20693776" id="Shape" fill="#FFFFFF"></path>
                    <path d="M338.215012,176.974573 C338.200365,175.965373 338.156423,174.95471 338.141776,173.94551 L287.589539,173.94551 C286.788332,146.610714 276.072365,119.50588 255.213141,98.6481203 C211.830759,55.2569502 141.481228,55.2569502 98.0973817,98.6481203 C77.160527,119.579116 66.4269834,146.783552 65.6916888,174.206232 L14.1449004,174.147643 C14.1229295,175.114365 14.1097469,176.037145 14.0877759,176.946743 C14.0877759,177.220647 14.0731286,177.479905 14.0731286,177.768456 C14.0731286,178.503751 14.1170705,179.225863 14.1317178,179.94651 L65.6858299,179.94651 C66.3566763,207.470257 77.0960788,234.762577 98.0988465,255.765344 C141.482693,299.140402 211.8249,299.140402 255.214606,255.750697 C276.275963,234.703988 287.008041,207.282772 287.627622,179.687253 L338.172535,179.687253 C338.188647,178.966606 338.231124,178.244494 338.231124,177.509199 C338.22966,177.334896 338.222336,177.147411 338.215012,176.974573" id="Shape" fill="#FFFFFF"></path>
                    <path d="M176.151394,14.8963071 C87.7270913,14.8963071 15.6667552,86.0836639 14.1449004,174.147643 L14.1449004,174.147643 L65.6916888,174.206232 C66.4269834,146.783552 77.160527,119.579116 98.0973817,98.6481203 C141.481228,55.2569502 211.830759,55.2569502 255.213141,98.6481203 C276.072365,119.50588 286.789797,146.610714 287.589539,173.94551 L338.141776,173.94551 C338.156423,174.95471 338.200365,175.965373 338.215012,176.974573 L338.22966,176.974573 C338.22966,87.598195 265.527772,14.8963071 176.151394,14.8963071" id="Shape" fill="#CD1141"></path>
                    <path d="M176.151394,7.16546058 C82.3676432,7.16546058 6.34814108,83.19961 6.34814108,176.976037 C6.34814108,270.752465 82.3676432,346.786614 176.151394,346.786614 C269.927822,346.786614 345.947324,270.753929 345.947324,176.976037 C345.947324,83.1981452 269.927822,7.16546058 176.151394,7.16546058 L176.151394,7.16546058 Z M132.624004,279.132187 C133.627344,279.189311 134.577954,279.117539 135.631095,278.900759 C136.82778,280.227805 137.866274,280.9631 138.978004,281.61344 C136.842427,280.848851 134.730286,280.04032 132.624004,279.132187 L132.624004,279.132187 Z M338.22966,177.507734 C338.22966,178.243029 338.187183,178.965141 338.171071,179.685788 L287.626158,179.685788 C287.006577,207.281307 276.274498,234.702523 255.213141,255.749232 C224.748216,286.214158 181.027481,295.201743 142.641295,282.896544 L143.477656,281.670564 C141.03888,281.064166 137.96734,279.015008 136.156934,277.285162 C132.146502,278.309008 129.968448,276.461983 127.198643,275.654917 L126.94671,276.505925 C116.554448,271.298809 106.76712,264.432154 98.0973817,255.76388 C93.9785602,251.652382 90.3943651,247.239149 87.0694274,242.708739 C88.1665104,243.357614 89.4276432,244.065079 90.4588133,244.425402 L89.4701203,242.751216 C89.4701203,242.751216 86.6431909,240.891008 84.3640705,239.045448 C82.525834,236.29029 80.8443237,233.476544 79.2799917,230.605672 C82.5683112,233.606905 84.8108133,234.125419 87.3008548,235.308921 L86.5509129,231.745232 C84.4226598,231.067062 80.1969129,229.263979 77.0667842,226.190975 C69.9335477,211.622768 66.0681245,195.841763 65.6843651,179.945046 L14.1302531,179.945046 C14.1156058,179.224398 14.0716639,178.503751 14.0716639,177.766992 C14.0716639,177.47844 14.0863112,177.219183 14.0863112,176.945278 C14.0863112,176.959925 14.0716639,176.959925 14.0716639,176.974573 C14.0716639,176.037145 14.1302531,175.099718 14.1434357,174.147643 C15.6667552,86.0836639 87.7270913,14.8963071 176.151394,14.8963071 C265.529237,14.8963071 338.22966,87.598195 338.22966,176.974573 L338.215012,176.974573 C338.222336,177.147411 338.22966,177.334896 338.22966,177.507734 L338.22966,177.507734 Z" id="Shape" fill="#004784"></path>
                    <path d="M58.8118506,227.534133 C60.7438299,226.828133 62.0781992,225.471793 62.8427884,223.481224 C63.8959295,220.739249 63.7011203,216.859178 62.3169502,213.094822 L58.4222324,202.476992 L57.8231577,203.05556 C57.8231577,203.05556 55.6743983,205.132548 55.659751,205.147195 C55.6231328,205.1179 53.0349544,206.055328 53.0349544,206.055328 C53.0349544,206.055328 47.855668,207.917 47.8058672,207.94483 C47.8058672,207.801286 44.6830622,206.503535 44.6830622,206.503535 L44.1997012,206.301402 C44.1997012,206.301402 42.6485519,209.720083 42.4757137,210.095054 C42.0934191,210.240062 33.8074398,213.269124 33.7927925,213.269124 C33.7781452,213.238365 30.9570747,213.081639 30.9570747,213.081639 L30.1426846,213.037697 L33.6551079,222.819166 C33.6551079,222.819166 36.3956183,219.948295 36.4029419,219.933647 C36.4395602,219.962942 43.4131411,217.365975 45.3539087,216.659975 C45.4256805,216.862108 45.8592407,218.088087 45.9954606,218.490888 C45.5838714,218.939095 36.0426183,229.469041 36.0426183,229.469041 L38.8270705,237.402021 C38.8270705,237.402021 41.2936763,233.637664 41.3581245,233.535133 C41.523639,233.362295 49.436112,225.082174 50.0205394,224.462593 C52.4710332,227.289523 55.9116846,228.587274 58.8118506,227.534133 L58.8118506,227.534133 Z M58.7459378,217.682357 C58.3416722,218.750145 57.4408631,219.571859 56.1504357,220.046432 C54.7442946,220.551763 53.2575934,220.465344 52.1107095,219.831116 L52.0960622,219.831116 C51.2099004,219.369726 50.5595602,218.59049 50.1919129,217.60912 C50.1919129,217.60912 49.5635436,215.921751 49.2544855,215.083925 C50.1274647,214.782191 56.9780083,212.488423 57.8290166,212.198407 C58.0736266,212.861929 58.6229004,214.376461 58.6229004,214.376461 C58.874834,215.069278 58.9905477,215.718154 58.9905477,216.30844 C58.9920124,216.802054 58.912917,217.263444 58.7459378,217.682357 L58.7459378,217.682357 Z" id="Shape" fill="#FFFFFF"></path>
                    <path d="M84.328917,254.912871 C84.328917,254.912871 72.8542199,258.921838 72.810278,258.936485 C72.810278,258.864714 69.3769502,258.013705 69.3769502,258.013705 L68.9448548,257.912639 C68.9448548,257.912639 67.5811909,260.81134 67.4156763,261.173129 C66.9835809,261.318137 57.8085104,264.389676 57.8085104,264.389676 C57.8085104,264.389676 57.8670996,264.418971 57.8729585,264.418971 C57.4408631,264.44973 56.6469793,264.563979 54.915668,264.823237 C54.9083444,264.823237 53.5446805,265.053199 53.5446805,265.053199 L59.4153195,271.790959 C59.4153195,271.790959 60.7863071,268.892257 60.9371743,268.545116 C61.2623444,268.414755 64.6224357,267.073062 65.1702448,266.870929 C65.5964813,267.361614 70.991083,273.476863 71.4012075,273.9529 C71.1126556,274.471415 69.3681618,277.529772 69.2026473,277.819788 C68.8481826,277.935502 65.7546722,278.872929 65.7546722,278.872929 L73.4005643,287.599793 C73.4005643,287.599793 74.3951162,283.142618 74.3951162,283.113324 C74.4024398,283.199743 76.3725021,279.909959 76.3725021,279.909959 C76.3725021,279.909959 79.4806598,274.746784 79.5026307,274.71749 C79.539249,274.803909 82.5609876,273.620407 82.5609876,273.620407 L82.9652531,273.462216 C82.9652531,273.462216 82.3529959,269.308241 82.3456722,269.293593 C82.4320913,269.308241 87.6685021,258.519037 87.6685021,258.519037 L87.8266929,258.201191 L84.8196017,254.740033 L84.328917,254.912871 Z M77.9675934,262.196975 C76.9583942,263.942934 74.2164191,268.703307 73.66861,269.655382 C72.9552863,268.846851 70.4520622,265.992091 69.7021203,265.141083 C70.8123859,264.75 76.0561203,262.875145 77.9675934,262.196975 L77.9675934,262.196975 Z" id="Shape" fill="#FFFFFF"></path>
                    <path d="M131.087502,292.648718 C131.023054,292.606241 127.178137,300.467448 127.178137,300.467448 C127.178137,300.467448 126.053224,302.759751 125.295959,304.288929 C124.790627,301.519124 121.588726,283.863266 121.588726,283.863266 L114.087842,280.185328 L114.15229,281.108108 C114.15229,281.108108 114.376394,284.600025 114.376394,284.627855 C114.332452,284.554618 112.328701,288.636822 112.328701,288.636822 C112.328701,288.636822 111.073427,291.204494 110.907913,291.55017 C110.525618,291.695178 107.301747,292.935805 107.301747,292.935805 C107.301747,292.935805 108.347564,296.859817 108.354888,296.887647 C108.239174,296.873 105.629025,302.153353 105.629025,302.153353 C105.629025,302.153353 104.114494,305.226357 104.092523,305.254187 C104.057369,305.210245 101.697689,306.928373 101.697689,306.928373 L100.991689,307.461535 L109.53839,311.701929 C109.53839,311.701929 109.025734,307.389763 109.019876,307.375116 C109.084324,307.375116 114.443772,296.613743 116.369892,292.733672 C116.8679,295.589896 120.611751,317.228357 120.611751,317.228357 L124.131498,319.016793 C124.131498,319.016793 129.821975,307.361934 129.843946,307.304809 C129.908394,307.404411 132.793913,306.062718 132.793913,306.062718 L133.198178,305.875232 C133.198178,305.875232 132.317876,302.283714 132.303228,302.254419 C132.433589,302.254419 134.596996,297.811892 134.596996,297.811892 C134.596996,297.811892 136.010461,294.898544 136.025108,294.869249 C136.082232,294.883896 138.318876,293.110108 138.318876,293.110108 L138.982398,292.590129 L130.716925,288.408324 C130.712531,288.406859 131.087502,292.634071 131.087502,292.648718" id="Shape" fill="#FFFFFF"></path>
                    <path d="M184.150286,316.463768 C184.100485,316.463768 184.084373,319.147154 184.084373,319.147154 L184.069726,324.398212 C183.464793,324.585697 182.771975,325.148154 180.636398,325.133506 C175.414635,325.091029 172.341631,320.417075 171.606336,315.800245 C171.656137,315.757768 173.957228,313.464 173.957228,313.464 L174.302905,313.118324 C174.302905,313.118324 172.174651,310.593129 171.887564,310.247452 C171.909535,310.131739 172.039896,309.33932 172.039896,309.33932 C173.113544,305.646734 176.021033,301.680245 180.968892,301.794494 C184.532581,301.86773 187.186672,302.733386 188.434622,304.23327 C188.434622,304.218622 188.875506,304.781079 188.875506,304.781079 L189.798286,305.920639 L189.971124,300.265315 L189.603477,300.020705 C187.057776,298.289394 184.865075,297.682996 180.948386,297.655166 C173.425531,297.583394 166.580846,302.200224 164.294402,308.863282 C164.287079,308.892577 163.919432,310.247452 163.904784,310.276747 C163.882813,310.219622 161.741378,312.454801 161.741378,312.454801 L161.423531,312.787295 L163.818365,315.930606 C165.088286,323.460784 172.343095,329.173232 180.608568,329.245004 C186.407436,329.288946 188.102129,328.452585 190.072191,327.471216 L191.224934,326.892647 C191.224934,326.892647 191.283523,316.320224 191.283523,316.276282 C191.355295,316.276282 192.781942,313.723257 192.781942,313.723257 L193.237473,312.916191 L182.282755,312.842954 C182.28129,312.842954 184.142963,316.434473 184.150286,316.463768" id="Shape" fill="#FFFFFF"></path>
                    <path d="M244.120739,308.415075 C244.106091,308.35795 239.533203,310.363166 239.533203,310.363166 C239.533203,310.363166 237.759415,311.140938 237.066598,311.444137 C236.843959,310.925622 233.662564,303.322207 233.302241,302.441905 C234.110772,302.096228 238.214946,300.32244 238.220805,300.32244 C238.235452,300.337087 241.220573,300.177432 241.220573,300.177432 L241.979303,300.134954 L239.353041,293.802925 C239.353041,293.802925 236.490959,296.457017 236.483635,296.457017 C236.476311,296.442369 231.715938,298.50471 231.715938,298.50471 C231.715938,298.50471 231.657349,298.534004 231.628054,298.547187 C231.26773,297.710826 228.837743,292.070149 228.484743,291.2499 C229.234685,290.932054 235.537419,288.206191 235.768846,288.105124 C236.057398,288.134419 241.120971,288.408324 241.120971,288.408324 L238.531328,282.26378 L237.801892,282.581627 L218.523112,290.948166 L221.912498,293.427954 C221.912498,293.572963 225.051415,300.886361 225.309207,301.535237 C225.136369,301.910207 223.649668,305.098925 223.649668,305.098925 C223.649668,305.098925 227.053701,306.352734 227.444784,306.497743 C227.602975,306.887361 230.892759,314.936054 230.892759,314.965349 C230.850282,314.979996 230.61739,317.907992 230.61739,317.907992 L230.545618,318.801477 L250.278465,310.204975 L247.732763,304.247917 C247.734228,304.246452 244.14271,308.400427 244.120739,308.415075" id="Shape" fill="#FFFFFF"></path>
                    <path d="M283.141154,262.645183 C283.558602,261.46168 283.876448,260.264996 283.876448,259.138618 C283.876448,256.859498 283.060593,254.797158 281.503585,253.455465 C279.931929,252.113772 278.092228,251.593793 275.99327,251.911639 C273.100427,252.330552 269.819432,254.422187 267.231253,257.480544 L259.917855,266.091693 C259.917855,266.091693 263.669029,267.203423 263.682212,267.203423 L263.682212,267.203423 C263.682212,267.289842 269.819432,272.641967 269.876556,272.699091 C269.854585,272.699091 269.854585,272.756216 269.854585,272.871929 C269.854585,273.577929 270.143137,276.117772 270.143137,276.117772 L270.200261,276.650934 C270.200261,276.650934 273.951436,276.31844 274.354237,276.275963 C274.68673,276.564515 281.395195,282.334087 281.395195,282.334087 C281.395195,282.421971 282.606527,284.887112 282.606527,284.887112 L282.959527,285.623871 L289.747087,277.762664 C289.747087,277.762664 285.924141,276.766647 285.916817,276.766647 C285.916817,276.72417 280.219017,271.89056 278.654685,270.563515 C278.913942,270.247133 279.678531,269.380012 279.930465,269.092925 C280.529539,269.223286 294.34927,272.410539 294.34927,272.410539 L299.872768,266.07851 C299.872768,266.07851 295.358469,265.760664 295.292556,265.760664 C295.214925,265.731369 284.034639,262.875145 283.141154,262.645183 L283.141154,262.645183 Z M278.112734,263.178344 C278.112734,264.159714 277.767058,265.082494 277.097676,265.847083 C277.097676,265.86173 275.943469,267.231253 275.379548,267.924071 C274.666224,267.275195 269.321423,262.428402 268.6579,261.822004 C269.106108,261.30349 270.165108,260.07751 270.165108,260.07751 C271.02344,259.053664 271.975515,258.47656 272.955419,258.346199 C274.094979,258.173361 275.243328,258.548332 276.28768,259.441817 C277.425776,260.437834 278.076116,261.779527 278.11127,263.091925 C278.112734,263.12122 278.112734,263.14905 278.112734,263.178344 L278.112734,263.178344 Z" id="Shape" fill="#FFFFFF"></path>
                    <path d="M320.472734,215.618552 C319.368328,213.124116 317.241539,211.306386 314.501029,210.483207 C313.289697,210.108237 311.83229,210.19612 310.90951,210.426083 L310.902187,210.426083 C309.365685,210.859643 308.009344,211.839548 307.432241,212.358062 C307.417593,212.37271 305.570568,214.19044 305.570568,214.19044 C305.528091,214.247564 304.923158,214.969676 304.704913,215.228934 C304.315295,215.228934 301.992232,215.258228 301.992232,215.258228 C301.992232,215.258228 301.111929,218.750145 301.0841,218.908336 C301.026975,218.908336 300.751606,219.226183 300.751606,219.226183 C298.645324,221.432066 297.261154,221.448178 296.612278,221.244581 C295.263261,220.726066 292.954846,218.649079 294.066577,215.576075 C294.97471,213.037697 295.941432,211.725299 297.608295,210.786407 L298.033066,210.556444 L298.055037,209.964693 L296.887647,207.325249 L296.165535,207.685573 C294.123701,208.753361 292.329407,211.364975 291.110751,215.028266 C289.473183,219.94683 290.447228,226.251029 295.480041,228.241598 C296.281249,228.530149 297.457427,228.890473 298.604311,228.675158 C299.988481,228.386606 301.444423,227.651311 302.728992,226.59817 C302.743639,226.583523 303.558029,225.833581 303.558029,225.833581 C303.534593,225.848228 303.881734,225.574324 303.925676,225.531846 C303.954971,225.631448 306.225303,225.67539 306.225303,225.67539 L306.636892,225.67539 C306.636892,225.67539 307.761805,221.723548 307.761805,221.7089 C307.805747,221.723548 310.474485,218.709133 310.474485,218.709133 C311.505656,217.742411 312.935232,217.179954 313.850689,217.396734 C315.407697,217.82883 316.475485,218.767722 317.117037,220.006884 C317.910921,221.563892 318.003199,223.526631 317.385083,225.67539 C316.085867,229.325498 313.540166,230.450411 311.628693,230.768257 L310.96517,230.883971 L310.900722,231.562141 L311.974369,234.302651 L312.536826,234.245527 C314.786651,234.028747 318.725311,231.346826 320.398033,226.051826 C321.69139,222.023817 321.713361,218.417651 320.472734,215.618552" id="Shape" fill="#FFFFFF"></path>
                    <path d="M84.5310498,95.0273071 C84.5310498,94.9262407 77.4417552,88.939888 77.3260415,88.8388216 C77.3333651,88.8388216 77.3406888,88.8241743 77.3406888,88.7802324 C77.3406888,88.304195 76.8646515,85.664751 76.8646515,85.664751 L76.7709087,85.1740664 C76.7709087,85.1740664 73.5836556,85.5065602 73.1940373,85.53439 C72.8849793,85.2751328 67.9503029,81.1211577 67.2516266,80.5440539 C67.7994357,79.8805311 70.1796224,76.9950124 70.1942697,76.9671826 C70.2162407,77.0096598 74.0245394,75.3076432 74.0245394,75.3076432 L74.8477178,74.9473195 L69.6757552,70.8944108 L69.3505851,71.3133237 L53.639888,90.0501535 L58.6243651,94.1470041 C58.6243651,94.1470041 59.8210498,89.3573361 59.8283734,89.3573361 C59.857668,89.3719834 62.1367884,86.6593029 62.9145602,85.7365228 C63.6205602,86.3282739 68.5757427,90.3958299 68.8789419,90.6404398 C68.9140954,91.0300581 69.2905311,94.2759004 69.2905311,94.2759004 C69.2905311,94.2759004 72.5642033,94.1308921 72.9318506,94.1177095 C73.2350498,94.3769668 80.1515062,100.190481 80.1515062,100.190481 C80.1515062,100.291548 81.342332,102.85922 81.342332,102.85922 L81.7026556,103.638456 L88.4111203,95.6175934 C88.4111203,95.6175934 84.5530207,95.0273071 84.5310498,95.0273071" id="Shape" fill="#FFFFFF"></path>
                    <path d="M106.989759,57.1186224 C106.838892,57.522888 105.612913,60.7247884 105.612913,60.7247884 C105.612913,60.7247884 109.031593,61.7046929 109.428535,61.8204066 C109.630668,62.2393195 113.589834,70.2440705 113.597158,70.2733651 C113.545892,70.2880124 113.525386,72.9289212 113.525386,72.9289212 L113.518062,73.8370539 L132.24171,64.0131079 L129.407456,58.3299544 C129.407456,58.3299544 126.299299,62.4985768 126.299299,62.5132241 C126.270004,62.4707469 120.298299,65.6287054 119.050349,66.2936929 C118.610929,65.457332 114.91688,58.2303527 114.499432,57.408639 C115.293315,57.0043734 119.605481,54.7399004 119.620129,54.7399004 C119.620129,54.769195 122.288867,54.4074066 122.288867,54.4074066 L123.046133,54.3063402 L120.276328,48.752083 C120.276328,48.752083 117.795075,51.4061743 117.787751,51.4061743 C117.773104,51.3768797 113.863739,53.4260373 112.731502,54.0177884 C112.312589,53.2239046 109.441718,47.6857593 109.031593,46.8918755 C109.875278,46.4597801 116.591066,42.9678631 116.611573,42.9678631 C116.611573,43.011805 120.693776,42.9385685 120.693776,42.9385685 L121.566755,42.9092739 L118.515722,37.0093402 L118.032361,37.2685975 L99.5606473,46.9753651 L102.892909,49.0391701 C102.894373,49.1841784 106.44195,56.0654813 106.989759,57.1186224" id="Shape" fill="#FFFFFF"></path>
                    <path d="M222.772295,61.8057593 C223.033017,61.5465021 225.773527,58.8059917 226.22027,58.3577842 C226.841315,58.6463361 234.630751,62.3242739 235.250332,62.6128257 C235.17856,63.2470539 234.759647,67.0114108 234.71717,67.3731992 C234.443266,67.6178091 232.149498,69.5659004 232.149498,69.5659004 L241.958797,74.1534357 L241.194207,70.0712324 C241.223502,70.0712324 242.521253,60.6515519 242.5359,60.5211909 C242.623784,60.5797801 245.283734,58.1995934 245.283734,58.1995934 L245.658705,57.8670996 C245.658705,57.8670996 242.953349,54.4337718 242.940166,54.4191245 C243.070527,54.4044772 243.647631,41.9410871 243.647631,41.9410871 L243.662278,41.5807635 L239.810037,39.7352033 L239.534668,39.9798133 C239.534668,39.9798133 230.101805,48.7066763 230.07251,48.7213237 C230.057863,48.6495519 226.495639,49.197361 226.495639,49.197361 L226.034249,49.2691328 C226.034249,49.2691328 226.05622,52.4724979 226.05622,52.8899461 C225.717867,53.2063278 218.621249,59.5822988 218.621249,59.5822988 C218.693021,59.5237095 216.068224,61.1686017 216.068224,61.1686017 L215.231863,61.6871162 L222.675622,65.1775685 C222.671228,65.1819627 222.757647,62.182195 222.772295,61.8057593 L222.772295,61.8057593 Z M229.392876,55.2862448 C230.273178,54.4498838 235.162448,49.8916432 236.69895,48.4488838 C236.460199,50.5405187 235.710257,57.0600332 235.572573,58.2142407 C234.570697,57.723556 230.45334,55.7915768 229.392876,55.2862448 L229.392876,55.2862448 Z" id="Shape" fill="#FFFFFF"></path>
                    <path d="M274.311759,103.322075 C276.677299,104.057369 279.145369,103.783465 281.466967,102.542838 C282.586021,101.951087 283.558602,100.868651 283.977515,100.104062 C284.828523,98.6613029 285.058485,96.9299917 285.058485,96.3968299 L285.102427,93.7427386 C285.102427,93.7002614 285.016008,92.6471203 284.988178,92.301444 C285.267942,92.0128921 286.849851,90.3972946 286.849851,90.3972946 C286.849851,90.3972946 285.05995,87.3535851 285.017473,87.2818133 C285.03212,87.267166 285.039444,87.1807469 285.039444,87.0796805 C285.039444,86.9361369 285.03212,86.561166 285.03212,86.4732822 C285.03212,84.12239 285.66049,82.5492697 286.820556,82.0454025 C288.235485,81.4258216 291.44471,81.4975934 292.836203,84.497361 C294.005058,87.0357386 294.235021,88.7084606 293.701859,90.6711992 L293.564174,91.1472365 L296.290037,92.2003776 L296.470199,91.6525685 C297.385656,88.7670498 295.893095,85.0026929 294.933697,83.0121245 C292.676548,78.4392365 287.655452,74.7027095 282.766183,76.8089917 C282.014776,77.1121909 280.9631,77.6892946 280.327407,78.6120747 C279.542311,79.7662822 279.029656,81.2954606 278.871465,82.9257054 L278.799693,84.0799129 C278.799693,84.0227884 278.755751,84.5984274 278.741104,84.6716639 C278.654685,84.5998921 277.081564,86.1144232 277.081564,86.1144232 L276.77983,86.4029751 C276.77983,86.4029751 278.711809,89.922722 278.711809,89.9373693 L278.711809,90.053083 C278.711809,90.7166058 278.884647,94.0488672 278.884647,94.0488672 C278.84217,95.548751 278.164,97.0779295 277.283697,97.6257386 C276.15732,98.3463859 274.716025,98.563166 273.315743,98.2028423 C271.990162,97.8703485 270.084548,96.8757967 268.555369,94.0913444 C266.854817,90.3987593 267.907959,87.6714315 269.089996,86.0411867 L269.492797,85.4933776 L266.629249,84.252751 L266.369992,84.5705975 C264.739747,86.5758133 264.227091,91.1618838 266.550154,95.7362365 C268.586129,99.7437386 271.26805,102.37 274.311759,103.322075" id="Shape" fill="#FFFFFF"></path>
                    <path d="M168.86729,53.9445519 C169.148519,53.5842282 174.160826,47.1071909 174.940062,46.0979917 C175.66071,47.1657801 180.320017,54.1188548 180.334664,54.1466846 C180.32734,54.1466846 180.32734,54.161332 180.32734,54.1906266 C180.32734,54.5363029 180.54412,56.3979751 180.54412,56.3979751 L180.593921,56.8740124 L190.930523,56.8593651 L187.157378,53.1667801 C187.157378,53.1521328 181.409776,44.6127552 180.443054,43.1699959 C180.718423,42.7379004 181.749593,41.0930083 181.749593,41.0930083 C181.749593,41.0930083 180.422548,39.6077718 180.010959,39.1463817 C180.492855,38.4828589 186.984539,29.798473 186.984539,29.798473 L189.978448,26.3358506 L180.681805,26.3212033 L180.998187,27.0711452 C180.998187,27.0711452 181.734946,28.7878091 181.922432,29.2345519 C181.597261,29.668112 177.039021,35.7262365 176.274432,36.7354357 C175.561108,35.6398174 171.276772,29.0910083 171.262124,29.0617137 L171.262124,29.0045892 C171.262124,28.6589129 171.059992,26.7972407 171.059992,26.7972407 L171.002867,26.3212033 L161.366407,26.3358506 L164.439411,29.8555975 C164.439411,29.8702448 169.806183,38.0200041 170.721639,39.4188216 C170.455058,39.850917 169.401917,41.5543983 169.401917,41.5543983 C169.401917,41.5543983 170.945743,43.0396349 171.407133,43.5024896 C170.888618,44.2084896 163.935544,53.3835602 163.935544,53.3835602 C163.92822,53.3835602 161.281452,55.8941079 161.281452,55.8941079 L160.272253,56.8461826 L169.519095,56.7451162 C169.514701,56.7436515 168.95371,54.3488174 168.86729,53.9445519" id="Shape" fill="#FFFFFF"></path>
                    <path d="M306.349805,122.909913 L310.330942,135.156523 L323.213245,135.156523 L312.784365,142.715996 L316.765502,154.947959 L306.349805,147.388485 L295.942896,154.947959 L299.91671,142.715996 L289.508336,135.156523 L302.383315,135.156523" id="Shape" fill="#FFFFFF"></path>
                    <path d="M44.8764066,122.909913 L48.8516846,135.156523 L61.7178755,135.156523 L51.3182905,142.715996 L55.2847801,154.947959 L44.8764066,147.388485 L34.4694979,154.947959 L38.4433112,142.715996 L28.0364025,135.156523 L40.8952697,135.156523" id="Shape" fill="#FFFFFF"></path>
                    <path d="M278.316332,330.687763 L274.817091,330.687763 L274.817091,340.250988 L272.436905,340.250988 L272.436905,330.687763 L268.939129,330.687763 L268.939129,328.610776 L278.314867,328.610776 L278.316332,330.687763 Z M294.218909,340.250988 L291.853369,340.250988 L291.853369,330.990963 L291.796245,330.990963 L288.434689,340.250988 L286.142386,340.250988 L282.896544,330.990963 L282.823307,330.990963 L282.823307,340.250988 L280.457768,340.250988 L280.457768,328.610776 L284.569266,328.610776 L287.281946,336.211261 L287.324423,336.211261 L290.152817,328.610776 L294.220373,328.610776 L294.220373,340.250988 L294.218909,340.250988 Z" id="Shape" fill="#004784"></path>
                    <path d="M168.750112,68.7017095 C168.750112,68.7017095 167.163809,67.4186058 166.037432,66.624722 C165.215718,66.6964938 164.392539,66.7975602 163.585473,66.8986266 C164.335415,67.1725311 167.075925,68.2549668 167.450896,68.889195" id="Shape" fill="#004784"></path>
                    <path d="M163.65871,70.2455353 C163.65871,70.2455353 161.956693,68.7749461 159.504734,67.4332531 C158.508718,67.5782614 157.536137,67.7789295 156.562091,67.9517676 C158.379822,68.427805 160.081838,69.5087759 161.906892,70.4037261" id="Shape" fill="#004784"></path>
                    <path d="M153.979772,72.8996266 L156.929739,71.9621992 C156.929739,71.9621992 153.084822,70.0726971 151.693328,70.0434025 C150.993187,69.7109087 150.61968,69.4223568 150.055759,69.3212905 C148.728714,69.6537842 147.416315,70.0141079 146.103917,70.3890788 C146.954925,70.5179751 148.728714,70.8797635 149.377589,71.6150581 C151.354975,71.2693817 152.724498,72.2639336 153.979772,72.8996266" id="Shape" fill="#004784"></path>
                    <path d="M146.349992,76.3476017 L149.321929,75.2944606 C148.996759,74.7466515 145.153307,73.0724647 143.003083,73.0446349 C142.216523,72.4250539 141.387485,72.2361037 140.694668,72.0925602 C139.547784,72.4821784 138.430195,72.8717967 137.290635,73.3038921 C137.672929,73.3903112 139.757241,73.8663485 140.76644,74.7320041 C142.82878,74.3848631 144.870614,75.4087095 146.349992,76.3476017" id="Shape" fill="#004784"></path>
                    <path d="M132.602033,77.6307054 C134.816705,77.4139253 137.204216,78.7556183 138.64551,79.663751 L141.819581,78.8566846 C140.117564,77.3275062 136.987436,76.101527 135.197535,76.2025934 C134.447593,75.0776805 132.846643,75.6533195 131.837444,75.5390705 L127.913432,77.3128589 C128.426087,77.3128589 132.184585,76.6639834 132.602033,77.6307054" id="Shape" fill="#004784"></path>
                    <path d="M131.065531,84.61161 L133.84266,82.5053278 C131.664606,81.336473 128.27522,80.6875975 126.492643,80.7740166 C125.606481,80.4576349 125.728054,80.1676183 124.711531,80.0533693 L120.895909,82.1157095 C121.37927,82.1450041 124.595817,82.2167759 125.036701,83.1542033 C127.236726,82.9681826 129.65939,83.7327718 131.065531,84.61161" id="Shape" fill="#004784"></path>
                    <path d="M114.931527,90.7722656 C117.52117,90.2962282 121.322145,89.2577344 125.029378,90.0940954 L127.812365,87.6274896 C123.629095,86.892195 119.186568,87.1089751 116.936743,87.6992614 C116.388934,86.8629004 115.126336,85.9972448 115.126336,85.9972448 L112.472245,88.2324232 C113.733378,88.6220415 114.166938,89.6898299 114.931527,90.7722656" id="Shape" fill="#004784"></path>
                    <path d="M107.487768,99.1095104 C109.636527,98.0563693 114.339776,97.3064274 119.107473,97.9421203 L121.566755,94.7826971 C114.339776,94.2641826 111.375162,95.1854979 109.125336,96.2679336 C108.353423,94.9701826 107.22851,94.2055934 107.22851,94.2055934 L105.028485,96.2254564 C106.298407,96.61361 106.709996,98.0563693 107.487768,99.1095104" id="Shape" fill="#004784"></path>
                    <path d="M102.569203,105.239407 C101.819261,103.927008 100.455598,102.599963 100.455598,102.599963 L98.7169627,105.340473 C100.310589,106.206129 100.159722,107.244622 100.924311,108.327058 C103.081859,107.246087 107.480444,105.183747 112.262788,105.845805 L114.701564,102.686382 C107.22851,102.85922 103.10383,103.508095 102.569203,105.239407" id="Shape" fill="#004784"></path>
                    <path d="M97.2903154,114.745506 C96.5330498,112.942423 94.5205104,110.779017 94.5205104,110.779017 L93.2227593,113.879851 C94.3769668,114.745506 95.0902905,116.881083 95.8841743,117.962054 C98.0329336,116.851788 100.79688,114.745506 105.549929,115.438324 L107.807079,111.760386 C101.74749,111.760386 97.8308008,112.999548 97.2903154,114.745506" id="Shape" fill="#004784"></path>
                    <path d="M92.8404647,123.933759 C91.8810664,121.538925 89.7249834,119.476585 89.7249834,119.476585 L88.4418797,122.92456 C90.0428299,123.804863 90.3035519,125.94044 91.0813237,126.978934 C93.2227593,125.925793 96.4539544,123.935224 101.250946,124.569452 L103.234191,120.933992 C97.3987054,120.933992 93.3589793,122.189266 92.8404647,123.933759" id="Shape" fill="#004784"></path>
                    <path d="M88.4404149,134.955855 C87.3579793,132.820278 84.9924398,130.151539 84.9924398,130.151539 L83.9319751,133.728411 C85.518278,134.623361 86.2608963,136.742826 87.0342739,137.839909 C89.1903568,136.742826 91.8166183,134.970502 96.5974979,135.63256 L98.1266763,132.184585 C90.8630788,132.632793 88.9809004,133.237726 88.4404149,134.955855" id="Shape" fill="#004784"></path>
                    <path d="M84.0623361,144.850108 C83.2977469,143.53771 80.6216846,140.27722 80.6216846,140.27722 L79.9010373,143.854091 C81.5166349,144.747577 82.2372822,146.868506 83.031166,147.950942 C85.1594191,146.868506 88.7362905,144.907232 93.5025228,145.541461 L94.7065311,141.977772 C87.690473,142.398149 84.6247925,143.090967 84.0623361,144.850108" id="Shape" fill="#004784"></path>
                    <path d="M81.4873402,156.765689 C80.722751,155.45329 77.4197842,150.880402 77.4197842,150.880402 L76.6698423,154.703349 C78.2634689,156.173938 79.4396473,158.901266 80.2188838,160.011531 C82.3603195,158.914448 85.7218755,155.929328 90.4676017,156.607498 L91.2175436,153.405598 C84.2791162,153.938759 83.1747095,154.703349 81.4873402,156.765689" id="Shape" fill="#004784"></path>
                    <path d="M78.5798506,172.186369 C79.5026307,170.353992 83.0150539,168.62268 87.8120456,169.012299 L88.4037967,165.535029 C82.7133195,165.852876 80.152971,166.790303 79.4015643,168.420548 C78.5652033,167.121332 74.3379917,162.737394 74.3379917,162.737394 L73.7828589,166.429979 C76.5907469,168.868755 77.752278,171.175705 78.5798506,172.186369" id="Shape" fill="#004784"></path>
                    <path d="M76.9583942,184.892905 C77.1400207,184.705419 77.3699834,184.056544 77.8460207,183.464793 C78.7043527,182.440946 81.1563112,180.983539 86.4366639,181.20032 L86.7398631,177.93983 C80.652444,177.998419 78.6911701,179.498303 78.1785145,180.088589 C77.7024772,180.522149 77.5149917,181.33068 77.3773071,181.790606 C76.4398797,179.29617 72.4221245,175.285739 72.4221245,175.285739 L72.1775145,178.849427 C73.5821909,179.48512 76.1791577,183.826581 76.9583942,184.892905" id="Shape" fill="#004784"></path>
                    <path d="M85.6852573,205.305386 L85.5915145,201.814934 C80.9966556,199.767241 78.6457635,200.127564 76.9569295,201.120651 C76.1850166,199.795071 71.5769751,198.093054 71.5769751,198.093054 L71.8010788,201.611336 C73.662751,202.044896 75.933083,203.199104 76.7269668,204.280075 C78.8698672,203.185921 81.9135768,203.285523 85.6852573,205.305386" id="Shape" fill="#004784"></path>
                    <path d="M76.4237676,194.933631 C77.4124606,193.275556 78.5300498,192.408436 85.648639,193.909784 L85.6779336,190.520398 C77.2820996,190.10295 77.4051369,190.866075 77.138556,191.949975 C76.4237676,190.608282 71.5842988,186.468954 71.5842988,186.468954 L71.6560705,190.392967 C73.2365145,191.342112 75.6957967,193.808718 76.4237676,194.933631" id="Shape" fill="#004784"></path>
                    <path d="M77.5208506,213.989772 C77.9397635,212.892689 79.2653444,213.499087 80.9981203,214.278324 C82.5492697,214.984324 83.6873651,215.807502 85.4552946,216.772759 L85.3615519,213.254477 C81.5034523,210.773224 77.7083361,208.883722 77.1751743,210.598921 C76.4179087,209.299705 72.3928299,207.468793 72.3928299,207.468793 L73.293639,211.378158 C75.3720913,211.927432 76.7416141,212.907336 77.5208506,213.989772" id="Shape" fill="#004784"></path>
                    <path d="M78.4509544,222.846996 C80.2760083,222.615568 81.8842822,223.323033 85.8068299,226.135315 L85.518278,222.804519 C81.5151701,219.45761 79.5670788,219.645095 78.1389668,219.645095 C77.3524066,218.216983 74.1798008,216.471025 74.1798008,216.471025 L74.6704855,220.020066 C76.3593195,220.711419 77.6585353,221.663494 78.4509544,222.846996" id="Shape" fill="#004784"></path>
                    <path d="M241.957332,192.641328 C240.702058,191.761025 238.553299,190.535046 234.599992,186.193585 L231.671996,187.982021 C232.999041,188.978037 238.964888,195.873988 241.755199,194.835494 C241.755199,194.835494 240.50139,203.374871 240.724029,207.789568 L243.920071,205.725763 C243.820469,203.404166 243.969871,193.624162 244.541116,191.330394 C244.670012,191.211751 242.749751,193.189137 241.957332,192.641328" id="Shape" fill="#004784"></path>
                    <path d="M250.43812,186.769224 C247.431029,182.385286 245.425813,180.437195 243.688643,179.239046 L241.538419,180.841461 C242.446552,181.100718 244.87068,183.523382 248.304008,188.629432 L250.359025,186.942062 C250.647577,192.612033 251.101643,198.006635 250.474739,200.58749 L252.954527,198.668693 C253.459859,194.514718 253.322174,189.69722 252.731888,185.282523" id="Shape" fill="#004784"></path>
                    <path d="M138.94871,271.790959 C134.930954,272.800158 131.216398,271.011722 128.461241,270.188544 L127.696651,272.539436 C131.576722,274.559299 135.327896,274.2561 138.154826,273.635054 C139.719158,275.85705 141.03888,277.097676 144.486855,278.395427 L145.727481,276.593809 C142.049544,276.160249 140.608249,274.270747 138.94871,271.790959" id="Shape" fill="#004784"></path>
                    <path d="M141.775639,265.356398 C137.744701,266.380245 133.495519,264.908191 130.711066,264.086477 L129.551,266.742033 C133.756241,268.183328 137.658282,268.486527 140.505718,267.881593 C141.948477,270.276427 143.521598,272.5409 146.982755,273.838651 L148.265859,271.572714 C145.389129,270.390676 142.714531,268.861498 141.775639,265.356398" id="Shape" fill="#004784"></path>
                    <path d="M146.30605,256.874145 L145.873954,257.552315 C141.863523,258.576162 137.002083,257.697324 134.219095,256.874145 L132.798307,259.39934 C136.671054,260.596025 140.054581,260.798158 144.359423,260.307473 L144.590851,259.917855 C146.155183,262.788726 146.559448,264.50539 150.591851,266.870929 L152.569237,264.606456 C150.013282,263.58261 146.910983,259.484295 146.30605,256.874145" id="Shape" fill="#004784"></path>
                    <path d="M150.272539,251.724154 L150.048436,252.042 C146.183012,252.777295 141.610124,250.772079 138.847643,249.965012 L137.26134,252.345199 C141.141411,254.37971 144.935062,254.536436 148.339095,254.536436 L148.541228,254.249349 C149.96934,257.379477 151.340328,260.638502 154.772191,261.952365 L156.733465,259.673245 C154.196552,258.664046 150.886261,254.335768 150.272539,251.724154" id="Shape" fill="#004784"></path>
                    <path d="M142.944494,244.353631 C143.297494,244.526469 143.694436,244.699307 144.098701,244.886793 L144.098701,243.127651" id="Shape" fill="#004784"></path>
                    <path d="M209.327535,225.717867 C207.250548,223.539813 207.323784,217.090606 207.5391,213.601618 L206.587025,214.178722 C202.684983,213.543029 198.481207,209.664423 196.525793,207.023515 L196.288506,207.111398 L196.288506,186.770689 C196.288506,179.427996 206.458129,176.615714 206.458129,176.615714 C206.458129,176.615714 203.686859,175.518631 201.04888,173.529527 L196.924199,174.696917 C196.823133,174.726212 187.872166,177.321714 187.872166,183.39595 L187.872166,219.299419 C187.872166,221.73673 188.875506,223.353793 193.750129,223.353793 L196.288506,223.353793 C196.288506,223.122365 196.303154,222.892402 196.288506,222.647793 L196.288506,211.770705 C198.826884,213.992701 201.488299,215.825079 203.508162,216.055041 L204.388465,215.536527 C204.425083,219.907282 204.050112,222.489602 205.090071,225.547959 L202.939846,223.542743 L202.939846,245.323282 L144.273004,245.323282 L153.490552,254.020851 L157.486336,254.020851 C158.078087,254.987573 158.763581,255.738979 159.599942,255.968942 L161.511415,254.020851 L210.042324,254.020851 L210.042324,230.163324 L206.5299,226.902834" id="Shape" fill="#004784"></path>
                    <path d="M220.882793,207.064527 L219.924859,207.628448 C216.022817,206.992755 211.8249,203.112685 209.863627,200.458593 L206.228166,201.97166 C209.525274,205.406452 213.887241,209.156162 216.844531,209.503303 L217.726299,208.984788 C217.768776,214.13478 217.105253,216.759577 219.05188,220.682124 L222.674158,219.167593 C220.579593,217.004187 220.666012,210.541797 220.882793,207.064527" id="Shape" fill="#004784"></path>
                    <path d="M234.50039,200.34288 L234.370029,200.127564 C233.086925,200.574307 231.45668,200.184689 229.984627,198.93088 C228.528685,197.688788 223.696539,191.963158 223.696539,191.963158 L219.713938,194.141212 C222.022353,196.521398 229.580361,202.522398 231.124187,202.564876 L231.346826,202.406685 C231.370261,207.470257 230.734568,210.080407 232.666548,213.961942 L236.287361,212.462058 C234.204515,210.281075 234.298257,203.818685 234.50039,200.34288" id="Shape" fill="#004784"></path>
                    <path d="M257.363365,181.288203 C255.876664,178.705884 252.847602,175.244726 250.540651,173.658423 L248.463664,175.490801 C250.540651,176.71678 254.795693,180.670087 256.078797,183.770921 L257.449784,182.298867 C257.861373,187.232079 257.840867,192.771689 257.262299,195.354008 L259.815324,193.334145 C260.234237,188.876971 259.960332,183.741627 259.166448,179.97727" id="Shape" fill="#004784"></path>
                    <path d="M263.752519,176.296402 C264.394071,177.954477 264.892079,179.975805 264.394071,189.956477 L266.824058,187.692004 C266.897295,180.205768 266.485705,178.15661 265.685963,174.392253" id="Shape" fill="#004784"></path>
                    <path d="M269.826755,169.907249 C270.953133,173.686253 271.659133,180.119349 271.038087,183.841228 L273.273266,180.883938 C273.662884,176.671373 272.335838,171.407133 271.556602,167.641311" id="Shape" fill="#004784"></path>
                    <path d="M274.557834,163.040593 L273.684855,164.540477 C276.12949,167.670606 277.066917,171.205 277.340822,175.906784 L279.072133,173.252693 C279.015008,168.334129 275.769166,161.930328 274.557834,163.040593" id="Shape" fill="#004784"></path>
                    <path d="M277.572249,158.020963 L277.097676,158.598066 L277.450676,158.020963 C276.151461,155.396166 274.572481,152.567772 272.076581,150.837925 L270.727564,152.641008 C272.769398,153.910929 274.904975,156.967822 276.201261,160.07012 L276.864784,158.973037 C277.991162,159.952942 280.016884,161.424996 281.336606,169.070888 L282.353129,166.416797 C281.237004,159.131228 277.846154,156.405365 277.572249,158.020963" id="Shape" fill="#004784"></path>
                    <path d="M280.343519,152.27922 L280.126739,152.898801 C278.828988,150.316481 277.992627,148.542693 275.079278,145.888602 L274.083261,147.489552 C276.801801,149.928328 278.007274,151.270021 279.27573,154.832245 L279.911423,153.477369 L279.839651,153.679502 C281.36883,154.949423 283.100141,156.967822 284.144494,162.551373 L284.929589,159.39195 C284.62639,155.352224 280.891328,150.89505 280.343519,152.27922" id="Shape" fill="#004784"></path>
                    <path d="M256.396643,167.872739 L254.334303,169.705116 C256.396643,170.931095 260.651685,174.882938 261.923071,177.985237 L263.632411,176.167506 C262.333195,173.555892 258.907191,169.589402 256.396643,167.872739" id="Shape" fill="#004784"></path>
                    <path d="M262.643718,161.944975 L260.680979,163.516631 C262.110556,164.468705 267.071598,168.62268 268.340054,171.739627 L269.839938,169.675822 C268.542187,167.036378 265.23922,163.689469 262.643718,161.944975" id="Shape" fill="#004784"></path>
                    <path d="M272.725456,165.795751 L273.951436,163.963373 C272.653685,161.323929 270.482954,157.991668 267.97973,156.260357 L266.277714,158.06344 C268.319548,159.318714 271.420382,162.694917 272.725456,165.795751" id="Shape" fill="#004784"></path>
                    <path d="M281.367365,149.048025 L282.13049,147.461722 C280.831274,144.807631 280.147245,144.101631 277.239755,141.17217 L276.706593,142.787768 C278.73378,144.533726 280.097444,145.960373 281.367365,149.048025" id="Shape" fill="#004784"></path>
                    <path d="M281.929822,148.254141 C282.837954,148.889834 283.73144,149.812614 284.670332,151.297851 C284.394963,150.114349 284.085905,148.932311 283.776846,147.763456 L282.692946,146.552124" id="Shape" fill="#004784"></path>
                    <path d="M280.933805,138.821278 C280.509033,138.288116 279.930465,137.652423 279.08678,136.816062 L278.640037,138.330593 C280.153104,139.975485 281.625158,141.706797 282.80866,144.374071 C282.233021,142.499216 281.597328,140.652191 280.933805,138.821278" id="Shape" fill="#004784"></path>
                    <path d="M215.848515,158.482353 L224.705739,166.862075 L239.158232,166.862075 L239.158232,119.130909 L231.146158,111.644672 L231.146158,158.482353" id="Shape" fill="#004784"></path>
                    <path d="M187.872166,162.549909 C187.872166,168.203768 196.966676,171.826046 197.060419,171.868523 L200.802805,173.339112 C198.46656,171.521382 196.288506,169.040129 196.288506,165.91 L196.288506,135.41578 L197.729801,135.502199 C203.326535,135.978237 207.366261,137.463473 210.222485,139.62688 C205.576361,134.98222 198.091589,132.443842 187.870701,132.414548 C187.872166,135.272237 187.872166,162.549909 187.872166,162.549909" id="Shape" fill="#004784"></path>
                    <path d="M158.912983,132.329593 C140.261108,132.329593 132.651834,138.791983 132.631328,154.832245 L132.61668,158.482353 L114.174261,158.482353 L122.583278,166.372855 L140.110241,166.372855 L140.132212,163.430212 C140.132212,147.000332 141.733162,136.643224 159.159058,134.911913 L159.159058,132.329593 L158.912983,132.329593" id="Shape" fill="#004784"></path>
                    <path d="M184.89144,219.297954 L184.89144,183.394485 C184.89144,177.768456 189.673784,174.667622 192.998722,173.109149 C189.708938,171.276772 184.89144,167.78632 184.89144,162.549909 L184.89144,129.258054 L186.455772,129.344473 C186.455772,129.344473 187.878025,129.416245 187.804788,129.416245 C207.408739,129.416245 218.646149,138.272004 218.646149,153.751274 L218.646149,155.495768 L228.166896,155.495768 L228.166896,114.442307 L117.023162,114.442307 L117.023162,155.495768 L129.775104,155.495768 C129.846876,154.659407 129.920112,153.823046 129.920112,153.823046 L129.668178,154.659407 C129.668178,137.147091 138.683593,129.344473 158.914448,129.344473 L162.145643,129.344473 L162.145643,162.549909 C162.145643,168.233062 158.012174,171.478905 155.056349,173.180921 C158.042934,174.708635 162.145643,177.709867 162.145643,183.394485 L162.145643,218.965461 C162.145643,223.580826 158.956925,226.335983 153.634095,226.335983 L147.077963,226.335983 L147.077963,242.333768 L199.951797,242.333768 L199.951797,226.335983 L193.750129,226.335983 C187.864842,226.335983 184.89144,223.970444 184.89144,219.297954" id="Shape" fill="#CD1141"></path>
                </g>
            </g>
        </g>
    </g>
</svg>